<svg class="main-svg" xmlns="http://www.w3.org/2000/svg" xmlns:xlink="http://www.w3.org/1999/xlink" width="700" height="500" style="" viewBox="0 0 700 500"><rect x="0" y="0" width="700" height="500" style="fill: rgb(255, 255, 255); fill-opacity: 1;"/><defs id="defs-530882"><g class="clips"><clipPath id="clip530882xyplot" class="plotclip"><rect width="462" height="320"/></clipPath><clipPath class="axesclip" id="clip530882x"><rect x="80" y="0" width="462" height="500"/></clipPath><clipPath class="axesclip" id="clip530882y"><rect x="0" y="100" width="700" height="320"/></clipPath><clipPath class="axesclip" id="clip530882xy"><rect x="80" y="100" width="462" height="320"/></clipPath></g><g class="gradients"/></defs><g class="bglayer"><rect class="bg" x="80" y="100" width="462" height="320" style="fill: rgb(229, 236, 246); fill-opacity: 1; stroke-width: 0;"/></g><g class="layer-below"><g class="imagelayer"/><g class="shapelayer"/></g><g class="cartesianlayer"><g class="subplot xy"><g class="layer-subplot"><g class="shapelayer"/><g class="imagelayer"/></g><g class="gridlayer"><g class="x"><path class="xgrid crisp" transform="translate(170.23000000000002,0)" d="M0,100v320" style="stroke: rgb(255, 255, 255); stroke-opacity: 1; stroke-width: 1px;"/><path class="xgrid crisp" transform="translate(260.47,0)" d="M0,100v320" style="stroke: rgb(255, 255, 255); stroke-opacity: 1; stroke-width: 1px;"/><path class="xgrid crisp" transform="translate(350.7,0)" d="M0,100v320" style="stroke: rgb(255, 255, 255); stroke-opacity: 1; stroke-width: 1px;"/><path class="xgrid crisp" transform="translate(440.94,0)" d="M0,100v320" style="stroke: rgb(255, 255, 255); stroke-opacity: 1; stroke-width: 1px;"/><path class="xgrid crisp" transform="translate(531.1700000000001,0)" d="M0,100v320" style="stroke: rgb(255, 255, 255); stroke-opacity: 1; stroke-width: 1px;"/></g><g class="y"><path class="ygrid crisp" transform="translate(0,398.43)" d="M80,0h462" style="stroke: rgb(255, 255, 255); stroke-opacity: 1; stroke-width: 1px;"/><path class="ygrid crisp" transform="translate(0,353.68)" d="M80,0h462" style="stroke: rgb(255, 255, 255); stroke-opacity: 1; stroke-width: 1px;"/><path class="ygrid crisp" transform="translate(0,308.93)" d="M80,0h462" style="stroke: rgb(255, 255, 255); stroke-opacity: 1; stroke-width: 1px;"/><path class="ygrid crisp" transform="translate(0,264.19)" d="M80,0h462" style="stroke: rgb(255, 255, 255); stroke-opacity: 1; stroke-width: 1px;"/><path class="ygrid crisp" transform="translate(0,219.44)" d="M80,0h462" style="stroke: rgb(255, 255, 255); stroke-opacity: 1; stroke-width: 1px;"/><path class="ygrid crisp" transform="translate(0,174.69)" d="M80,0h462" style="stroke: rgb(255, 255, 255); stroke-opacity: 1; stroke-width: 1px;"/><path class="ygrid crisp" transform="translate(0,129.94)" d="M80,0h462" style="stroke: rgb(255, 255, 255); stroke-opacity: 1; stroke-width: 1px;"/></g></g><g class="zerolinelayer"><path class="xzl zl crisp" transform="translate(80,0)" d="M0,100v320" style="stroke: rgb(255, 255, 255); stroke-opacity: 1; stroke-width: 2px;"/></g><path class="xlines-below"/><path class="ylines-below"/><g class="overlines-below"/><g class="xaxislayer-below"/><g class="yaxislayer-below"/><g class="overaxes-below"/><g class="plot" transform="translate(80, 100)" clip-path="url('#clip530882xyplot')"><g class="scatterlayer mlayer"><g class="trace scatter trace924299" style="stroke-miterlimit: 2; opacity: 1;"><g class="fills"/><g class="errorbars"/><g class="lines"><path class="js-line" d="M0,16Q0.6,16.04 0.9,16.1C1.21,16.17 1.51,16.26 1.81,16.39C2.12,16.52 2.42,16.69 2.71,16.88C3.02,17.08 3.33,17.32 3.62,17.58C3.93,17.86 4.23,18.17 4.52,18.51C4.83,18.87 5.13,19.26 5.42,19.68C5.73,20.13 6.04,20.61 6.33,21.12C6.64,21.66 6.94,22.24 7.23,22.85C7.54,23.5 7.85,24.18 8.14,24.89C8.45,25.65 8.75,26.45 9.04,27.28C9.35,28.16 9.66,29.08 9.95,30.03C10.26,31.04 10.56,32.09 10.85,33.17C11.16,34.32 11.46,35.51 11.75,36.73C12.06,38.02 12.37,39.35 12.66,40.72C12.97,42.16 13.27,43.65 13.56,45.17C13.87,46.77 14.17,48.41 14.47,50.09C14.78,51.85 15.08,53.66 15.37,55.51C15.68,57.43 15.97,59.4 16.27,61.41C16.58,63.5 16.88,65.64 17.18,67.82C17.49,70.08 17.78,72.38 18.08,74.72C18.39,77.15 18.69,79.62 18.99,82.13C19.3,84.72 19.59,87.35 19.89,90.02C20.19,92.77 20.49,95.56 20.79,98.38C21.1,101.28 21.4,104.22 21.7,107.19C22.01,110.23 22.3,113.32 22.6,116.43C22.9,119.6 23.21,122.81 23.51,126.05C23.81,129.34 24.11,132.67 24.41,136.02C24.71,139.41 25.02,142.84 25.32,146.27C25.62,149.73 25.92,153.23 26.22,156.71C26.52,160.2 26.82,163.71 27.12,167.19C27.42,170.65 27.73,174.1 28.03,177.54C28.33,180.97 28.63,184.38 28.93,187.81C29.23,191.26 29.54,194.71 29.84,198.18C30.14,201.68 30.44,205.19 30.74,208.72C31.04,212.27 31.34,215.84 31.64,219.41C31.94,223 32.25,226.6 32.55,230.19C32.85,233.77 33.15,237.37 33.45,240.93C33.75,244.46 34.05,247.98 34.36,251.45C34.66,254.84 34.95,258.22 35.26,261.5C35.55,264.64 35.84,267.77 36.16,270.7C36.45,273.38 36.75,275.99 37.07,278.39C37.35,280.5 37.62,282.63 37.97,284.34C38.24,285.66 38.38,287.41 38.88,287.8C39.13,288 39.53,287.99 39.78,287.81C40.22,287.5 40.41,286.23 40.68,285.22C41.04,283.86 41.3,282.06 41.59,280.33C41.91,278.39 42.19,276.25 42.49,274.15C42.8,271.96 43.1,269.68 43.4,267.42C43.7,265.13 44,262.79 44.3,260.49C44.6,258.2 44.91,255.9 45.21,253.63C45.51,251.41 45.81,249.19 46.11,247.02C46.41,244.92 46.7,242.83 47.01,240.81C47.31,238.88 47.61,236.97 47.92,235.14C48.21,233.41 48.51,231.72 48.82,230.1C49.11,228.59 49.41,227.13 49.73,225.75C50.02,224.49 50.31,223.28 50.63,222.16C50.91,221.17 51.2,220.21 51.53,219.37C51.81,218.64 52.1,217.94 52.44,217.38C52.72,216.92 53,216.47 53.34,216.21C53.62,216 53.95,215.84 54.25,215.85C54.55,215.86 54.87,216.06 55.15,216.28C55.49,216.55 55.77,217 56.05,217.45C56.38,217.99 56.68,218.65 56.96,219.34C57.28,220.12 57.57,221 57.86,221.9C58.18,222.89 58.48,223.96 58.77,225.06C59.08,226.25 59.38,227.5 59.67,228.78C59.98,230.13 60.28,231.54 60.58,232.97C60.89,234.46 61.18,236.01 61.48,237.56C61.78,239.16 62.08,240.79 62.38,242.42C62.68,244.07 62.99,245.76 63.29,247.42C63.59,249.08 63.88,250.75 64.19,252.38C64.49,253.97 64.79,255.55 65.1,257.08C65.4,258.55 65.69,260.02 66,261.41C66.29,262.72 66.58,264.01 66.9,265.2C67.19,266.27 67.48,267.33 67.81,268.23C68.09,268.99 68.37,269.73 68.71,270.29C68.99,270.74 69.28,271.19 69.62,271.41C69.9,271.59 70.23,271.7 70.52,271.66C70.83,271.62 71.14,271.37 71.42,271.13C71.75,270.85 72.04,270.43 72.33,270.02C72.65,269.57 72.94,269.03 73.23,268.51C73.54,267.96 73.84,267.37 74.14,266.79C74.44,266.21 74.74,265.61 75.04,265.02C75.34,264.43 75.64,263.82 75.95,263.24C76.25,262.68 76.54,262.1 76.85,261.58C77.14,261.1 77.43,260.63 77.75,260.24C78.04,259.9 78.34,259.57 78.66,259.35C78.94,259.16 79.25,258.99 79.56,258.95C79.86,258.91 80.18,258.97 80.47,259.1C80.79,259.24 81.09,259.51 81.37,259.8C81.7,260.14 81.99,260.6 82.27,261.07C82.59,261.61 82.89,262.22 83.18,262.86C83.5,263.56 83.79,264.34 84.08,265.13C84.39,265.97 84.69,266.89 84.99,267.77C85.29,268.66 85.59,269.57 85.89,270.45C86.19,271.31 86.49,272.15 86.79,272.98C87.09,273.8 87.39,274.63 87.7,275.42C88,276.18 88.28,276.96 88.6,277.66C88.89,278.3 89.18,278.95 89.51,279.47C89.79,279.91 90.07,280.39 90.41,280.6C90.69,280.77 91.04,280.86 91.32,280.77C91.65,280.66 91.95,280.21 92.22,279.79C92.58,279.23 92.84,278.42 93.12,277.61C93.46,276.63 93.74,275.48 94.03,274.3C94.35,272.97 94.64,271.52 94.93,270.04C95.24,268.44 95.55,266.73 95.84,265.01C96.15,263.19 96.45,261.3 96.74,259.39C97.05,257.41 97.34,255.38 97.64,253.35C97.94,251.28 98.25,249.18 98.55,247.08C98.85,244.97 99.15,242.85 99.45,240.74C99.75,238.65 100.06,236.56 100.36,234.49C100.66,232.44 100.96,230.4 101.26,228.39C101.56,226.42 101.85,224.46 102.16,222.53C102.46,220.65 102.76,218.79 103.07,216.97C103.37,215.21 103.66,213.47 103.97,211.77C104.27,210.14 104.57,208.54 104.88,206.97C105.18,205.45 105.48,204 105.78,202.5C106.08,201 106.38,199.49 106.68,197.97C106.98,196.44 107.28,194.87 107.59,193.36C107.89,191.91 108.18,190.47 108.49,189.1C108.78,187.82 109.08,186.58 109.4,185.41C109.69,184.34 109.98,183.3 110.3,182.36C110.59,181.52 110.88,180.71 111.21,180.01C111.49,179.4 111.78,178.82 112.11,178.36C112.39,177.98 112.68,177.61 113.01,177.42C113.29,177.26 113.62,177.16 113.92,177.2C114.23,177.24 114.54,177.43 114.82,177.66C115.15,177.93 115.45,178.35 115.73,178.78C116.06,179.28 116.35,179.9 116.63,180.53C116.95,181.24 117.24,182.03 117.53,182.84C117.85,183.73 118.15,184.68 118.44,185.66C118.75,186.7 119.04,187.79 119.34,188.9C119.65,190.06 119.95,191.26 120.25,192.47C120.56,193.71 120.85,194.99 121.15,196.26C121.45,197.55 121.75,198.86 122.05,200.16C122.35,201.45 122.66,202.75 122.96,204.03C123.26,205.28 123.55,206.53 123.86,207.74C124.16,208.9 124.46,210.04 124.77,211.13C125.06,212.15 125.35,213.15 125.67,214.07C125.96,214.91 126.26,215.72 126.58,216.44C126.86,217.07 127.15,217.68 127.48,218.18C127.76,218.61 128.05,219.01 128.38,219.29C128.66,219.53 128.98,219.73 129.29,219.82C129.58,219.9 129.89,219.9 130.19,219.85C130.5,219.8 130.81,219.66 131.1,219.5C131.41,219.33 131.71,219.09 132,218.85C132.31,218.6 132.6,218.31 132.9,218.02C133.21,217.73 133.51,217.41 133.81,217.11C134.11,216.81 134.4,216.5 134.71,216.22C135.01,215.95 135.31,215.68 135.62,215.46C135.91,215.25 136.21,215.03 136.52,214.9C136.81,214.77 137.12,214.67 137.42,214.66C137.72,214.65 138.04,214.7 138.33,214.82C138.65,214.95 138.95,215.17 139.23,215.44C139.56,215.75 139.86,216.17 140.14,216.61C140.47,217.12 140.76,217.72 141.04,218.35C141.36,219.07 141.66,219.88 141.95,220.72C142.27,221.65 142.56,222.65 142.85,223.69C143.16,224.82 143.46,226.03 143.75,227.27C144.06,228.6 144.37,229.98 144.66,231.4C144.97,232.9 145.26,234.46 145.56,236.04C145.87,237.7 146.17,239.4 146.47,241.13C146.78,242.91 147.07,244.75 147.37,246.58C147.67,248.43 147.96,250.34 148.27,252.16C148.57,253.9 148.87,255.61 149.18,257.27C149.48,258.86 149.77,260.42 150.08,261.93C150.37,263.35 150.66,264.8 150.99,266.07C151.27,267.18 151.54,268.3 151.89,269.16C152.16,269.82 152.41,270.56 152.79,270.82C153.05,271 153.43,271.06 153.7,270.93C154.07,270.76 154.33,270.07 154.6,269.49C154.95,268.74 155.23,267.74 155.51,266.74C155.84,265.57 156.12,264.25 156.41,262.9C156.73,261.4 157.03,259.79 157.32,258.15C157.63,256.4 157.93,254.56 158.22,252.71C158.53,250.78 158.82,248.78 159.12,246.78C159.43,244.73 159.73,242.64 160.03,240.55C160.33,238.44 160.63,236.31 160.93,234.18C161.23,232.04 161.54,229.89 161.84,227.76C162.14,225.64 162.44,223.52 162.74,221.43C163.04,219.38 163.33,217.33 163.64,215.34C163.94,213.42 164.24,211.51 164.55,209.68C164.84,207.94 165.14,206.23 165.45,204.6C165.74,203.08 166.04,201.6 166.36,200.21C166.65,198.94 166.94,197.72 167.26,196.6C167.54,195.61 167.83,194.66 168.16,193.83C168.44,193.12 168.73,192.44 169.07,191.92C169.34,191.51 169.63,191.09 169.97,190.91C170.25,190.76 170.6,190.71 170.88,190.79C171.2,190.89 171.51,191.22 171.78,191.56C172.12,191.98 172.4,192.58 172.68,193.19C173.01,193.91 173.3,194.77 173.59,195.65C173.91,196.65 174.2,197.76 174.49,198.9C174.81,200.16 175.11,201.51 175.4,202.9C175.71,204.4 176.01,205.97 176.3,207.58C176.61,209.29 176.92,211.08 177.21,212.9C177.52,214.81 177.82,216.79 178.11,218.8C178.42,220.89 178.71,223.03 179.01,225.2C179.32,227.44 179.62,229.73 179.92,232.03C180.22,234.37 180.52,236.76 180.82,239.11C181.12,241.45 181.43,243.79 181.73,246.12C182.03,248.45 182.33,250.77 182.63,253.1C182.93,255.44 183.23,257.8 183.53,260.14C183.83,262.47 184.14,264.82 184.44,267.13C184.74,269.39 185.03,271.68 185.34,273.84C185.63,275.87 185.89,278.09 186.25,279.74C186.52,280.95 186.67,282.5 187.15,282.86C187.4,283.05 187.78,283.01 188.05,282.87C188.42,282.67 188.68,281.99 188.96,281.44C189.3,280.77 189.58,279.97 189.86,279.1C190.19,278.07 190.49,276.88 190.77,275.63C191.1,274.18 191.38,272.51 191.67,270.88C191.98,269.15 192.28,267.3 192.58,265.51C192.88,263.71 193.18,261.87 193.48,260.09C193.78,258.35 194.08,256.65 194.38,254.92C194.68,253.18 194.99,251.41 195.29,249.67C195.59,247.94 195.88,246.17 196.19,244.5C196.48,242.92 196.79,241.37 197.1,239.89C197.39,238.5 197.69,237.14 198,235.85C198.29,234.65 198.58,233.49 198.9,232.4C199.19,231.4 199.49,230.43 199.81,229.53C200.1,228.71 200.39,227.93 200.71,227.22C201,226.58 201.3,225.98 201.62,225.44C201.91,224.96 202.2,224.52 202.52,224.15C202.8,223.82 203.1,223.52 203.42,223.29C203.71,223.08 204.02,222.91 204.33,222.79C204.62,222.68 204.93,222.61 205.23,222.58C205.53,222.55 205.84,222.56 206.14,222.59C206.44,222.62 206.74,222.68 207.04,222.75C207.34,222.82 207.65,222.92 207.95,223.02C208.25,223.13 208.55,223.24 208.85,223.38C209.15,223.52 209.45,223.68 209.75,223.85C210.06,224.03 210.36,224.23 210.66,224.45C210.97,224.67 211.26,224.92 211.56,225.17C211.87,225.43 212.17,225.71 212.47,225.99C212.77,226.27 213.07,226.58 213.37,226.86C213.67,227.14 213.96,227.43 214.27,227.68C214.57,227.92 214.87,228.16 215.18,228.35C215.47,228.53 215.77,228.68 216.08,228.81C216.38,228.93 216.68,229.03 216.99,229.1C217.29,229.16 217.59,229.21 217.89,229.2C218.19,229.19 218.5,229.17 218.79,229.05C219.11,228.92 219.42,228.7 219.7,228.41C220.04,228.07 220.31,227.55 220.6,227.06C220.92,226.52 221.22,225.9 221.51,225.28C221.82,224.63 222.11,223.95 222.41,223.27C222.72,222.57 223.02,221.87 223.32,221.15C223.62,220.42 223.92,219.67 224.22,218.93C224.52,218.18 224.82,217.41 225.12,216.66C225.42,215.91 225.72,215.15 226.03,214.41C226.33,213.69 226.62,212.97 226.93,212.28C227.22,211.63 227.53,210.99 227.84,210.39C228.13,209.83 228.42,209.29 228.74,208.8C229.03,208.36 229.32,207.93 229.64,207.58C229.93,207.26 230.23,206.96 230.55,206.76C230.84,206.58 231.14,206.44 231.45,206.38C231.75,206.33 232.07,206.34 232.36,206.42C232.67,206.5 232.97,206.69 233.26,206.89C233.58,207.11 233.87,207.41 234.16,207.73C234.48,208.08 234.78,208.49 235.07,208.92C235.38,209.38 235.68,209.89 235.97,210.42C236.28,210.99 236.59,211.6 236.88,212.23C237.19,212.9 237.49,213.61 237.78,214.34C238.09,215.11 238.39,215.92 238.68,216.74C238.99,217.6 239.29,218.5 239.59,219.41C239.9,220.35 240.19,221.31 240.49,222.28C240.8,223.28 241.1,224.29 241.4,225.31C241.7,226.34 242,227.38 242.3,228.41C242.6,229.44 242.9,230.49 243.21,231.49C243.51,232.45 243.8,233.42 244.11,234.31C244.4,235.13 244.7,235.9 245.01,236.65C245.3,237.35 245.61,238.03 245.92,238.68C246.21,239.3 246.51,239.91 246.82,240.49C247.12,241.04 247.42,241.58 247.73,242.09C248.02,242.58 248.32,243.05 248.63,243.49C248.92,243.91 249.22,244.32 249.53,244.7C249.83,245.07 250.13,245.41 250.44,245.75C250.74,246.08 251.03,246.39 251.34,246.69C251.64,246.98 251.95,247.26 252.25,247.54C252.55,247.82 252.85,248.09 253.15,248.37C253.45,248.65 253.75,248.92 254.05,249.21C254.35,249.5 254.66,249.79 254.96,250.1C255.27,250.42 255.56,250.75 255.86,251.09C256.17,251.44 256.47,251.81 256.77,252.19C257.08,252.59 257.37,253 257.67,253.43C257.98,253.87 258.28,254.34 258.58,254.81C258.89,255.3 259.18,255.82 259.48,256.32C259.78,256.82 260.06,257.38 260.38,257.83C260.67,258.23 260.99,258.54 261.29,258.91C261.59,259.28 261.89,259.67 262.19,260.06C262.5,260.46 262.8,260.87 263.1,261.29C263.41,261.73 263.71,262.17 264,262.64C264.31,263.13 264.6,263.63 264.9,264.15C265.21,264.69 265.51,265.26 265.81,265.84C266.12,266.45 266.41,267.08 266.71,267.73C267.02,268.41 267.32,269.11 267.62,269.83C267.93,270.57 268.22,271.34 268.52,272.11C268.82,272.91 269.12,273.72 269.42,274.54C269.73,275.38 270.03,276.23 270.33,277.09C270.63,277.96 270.93,278.87 271.23,279.74C271.53,280.6 271.83,281.45 272.14,282.28C272.44,283.08 272.73,283.86 273.04,284.62C273.34,285.36 273.64,286.1 273.95,286.8C274.24,287.46 274.54,288.11 274.85,288.7C275.14,289.24 275.42,289.8 275.75,290.22C276.03,290.58 276.33,291 276.66,291.11C276.94,291.2 277.28,291.11 277.56,290.97C277.89,290.81 278.2,290.47 278.47,290.1C278.82,289.62 279.08,288.92 279.37,288.26C279.69,287.54 279.97,286.73 280.27,285.93C280.58,285.1 280.88,284.25 281.18,283.39C281.49,282.5 281.78,281.59 282.08,280.65C282.39,279.67 282.69,278.66 282.99,277.65C283.29,276.64 283.59,275.61 283.89,274.59C284.19,273.57 284.49,272.53 284.79,271.51C285.09,270.5 285.39,269.49 285.7,268.51C286,267.55 286.29,266.61 286.6,265.69C286.9,264.81 287.2,263.95 287.51,263.11C287.81,262.31 288.1,261.53 288.41,260.78C288.71,260.06 289.01,259.37 289.32,258.69C289.62,258.03 289.92,257.4 290.22,256.74C290.52,256.06 290.83,255.39 291.12,254.68C291.43,253.93 291.73,253.12 292.03,252.33C292.33,251.53 292.62,250.7 292.93,249.91C293.23,249.15 293.53,248.4 293.84,247.69C294.13,247.03 294.43,246.38 294.74,245.79C295.03,245.24 295.32,244.71 295.64,244.24C295.93,243.81 296.23,243.4 296.55,243.05C296.84,242.73 297.14,242.44 297.45,242.2C297.74,241.98 298.05,241.79 298.36,241.65C298.65,241.51 298.96,241.42 299.26,241.35C299.56,241.28 299.86,241.26 300.16,241.24C300.46,241.22 300.77,241.24 301.07,241.25C301.37,241.26 301.67,241.28 301.97,241.28C302.27,241.28 302.58,241.29 302.88,241.25C303.18,241.21 303.49,241.15 303.78,241.05C304.09,240.94 304.39,240.79 304.68,240.6C305,240.39 305.3,240.12 305.59,239.81C305.91,239.46 306.2,239.05 306.49,238.6C306.81,238.09 307.11,237.52 307.4,236.91C307.72,236.23 308.01,235.49 308.3,234.71C308.62,233.85 308.92,232.92 309.21,231.96C309.53,230.92 309.82,229.81 310.11,228.67C310.42,227.45 310.72,226.18 311.01,224.87C311.32,223.49 311.62,222.06 311.92,220.6C312.23,219.07 312.52,217.5 312.82,215.91C313.13,214.26 313.43,212.58 313.73,210.88C314.04,209.13 314.33,207.35 314.63,205.56C314.93,203.74 315.23,201.9 315.53,200.05C315.83,198.18 316.14,196.3 316.44,194.42C316.74,192.54 317.04,190.64 317.34,188.76C317.64,186.88 317.95,185 318.25,183.13C318.55,181.29 318.85,179.45 319.15,177.63C319.45,175.84 319.74,174.07 320.05,172.32C320.35,170.62 320.65,168.93 320.96,167.28C321.26,165.68 321.55,164.09 321.86,162.55C322.16,161.07 322.46,159.62 322.77,158.21C323.06,156.87 323.36,155.55 323.67,154.29C323.96,153.1 324.27,151.95 324.58,150.85C324.87,149.83 325.16,148.84 325.48,147.92C325.77,147.08 326.06,146.27 326.38,145.54C326.67,144.88 326.96,144.26 327.29,143.72C327.57,143.25 327.86,142.81 328.19,142.48C328.47,142.2 328.78,141.94 329.1,141.83C329.39,141.73 329.71,141.72 330,141.79C330.31,141.87 330.62,142.09 330.9,142.33C331.23,142.62 331.53,143.03 331.81,143.46C332.14,143.95 332.42,144.54 332.71,145.15C333.03,145.83 333.33,146.59 333.62,147.37C333.94,148.22 334.23,149.14 334.52,150.07C334.83,151.06 335.13,152.11 335.42,153.17C335.73,154.28 336.03,155.43 336.33,156.59C336.64,157.78 336.93,158.99 337.23,160.21C337.53,161.45 337.84,162.7 338.14,163.96C338.44,165.25 338.74,166.54 339.04,167.86C339.35,169.21 339.65,170.59 339.95,171.98C340.26,173.41 340.55,174.87 340.85,176.35C341.15,177.86 341.45,179.4 341.75,180.95C342.05,182.53 342.36,184.14 342.66,185.74C342.96,187.36 343.26,188.99 343.56,190.61C343.86,192.23 344.17,193.85 344.47,195.46C344.77,197.05 345.07,198.64 345.37,200.22C345.67,201.78 345.97,203.33 346.27,204.86C346.57,206.37 346.88,207.86 347.18,209.34C347.48,210.79 347.77,212.23 348.08,213.65C348.38,215.03 348.68,216.4 348.99,217.73C349.29,219.01 349.58,220.27 349.89,221.49C350.18,222.65 350.48,223.78 350.79,224.86C351.08,225.86 351.38,226.85 351.7,227.75C351.99,228.57 352.27,229.37 352.6,230.06C352.88,230.66 353.17,231.24 353.51,231.67C353.79,232.02 354.08,232.38 354.41,232.5C354.69,232.61 355.04,232.59 355.32,232.47C355.65,232.32 355.95,231.93 356.22,231.54C356.56,231.05 356.84,230.38 357.12,229.7C357.45,228.9 357.74,227.96 358.03,227.01C358.35,225.95 358.64,224.78 358.93,223.6C359.24,222.32 359.55,220.97 359.84,219.6C360.15,218.16 360.45,216.67 360.74,215.16C361.05,213.59 361.34,211.99 361.64,210.37C361.95,208.71 362.25,207.02 362.55,205.33C362.85,203.61 363.15,201.87 363.45,200.13C363.75,198.37 364.06,196.6 364.36,194.83C364.66,193.06 364.96,191.27 365.26,189.5C365.56,187.73 365.86,185.95 366.16,184.19C366.46,182.43 366.77,180.68 367.07,178.94C367.37,177.22 367.67,175.51 367.97,173.81C368.27,172.13 368.58,170.47 368.88,168.82C369.18,167.2 369.48,165.59 369.78,164C370.08,162.44 370.37,160.89 370.68,159.37C370.98,157.88 371.28,156.41 371.59,154.96C371.89,153.54 372.18,152.14 372.49,150.77C372.79,149.44 373.09,148.13 373.4,146.84C373.7,145.59 373.99,144.36 374.3,143.16C374.6,142 374.9,140.86 375.21,139.75C375.51,138.68 375.8,137.63 376.11,136.61C376.4,135.64 376.7,134.69 377.01,133.77C377.31,132.89 377.61,132.03 377.92,131.21C378.21,130.43 378.51,129.67 378.82,128.95C379.11,128.27 379.42,127.61 379.73,126.99C380.02,126.41 380.32,125.85 380.63,125.33C380.92,124.85 381.21,124.39 381.53,123.98C381.82,123.61 382.12,123.26 382.44,122.98C382.73,122.73 383.03,122.49 383.34,122.35C383.63,122.22 383.95,122.13 384.25,122.13C384.55,122.13 384.86,122.22 385.15,122.35C385.47,122.5 385.77,122.74 386.05,123.01C386.37,123.32 386.67,123.72 386.96,124.15C387.28,124.63 387.57,125.2 387.86,125.79C388.18,126.46 388.48,127.19 388.77,127.96C389.09,128.82 389.38,129.74 389.67,130.71C389.99,131.77 390.29,132.9 390.58,134.07C390.9,135.34 391.19,136.68 391.48,138.07C391.79,139.57 392.09,141.14 392.38,142.76C392.69,144.49 393,146.29 393.29,148.14C393.6,150.11 393.9,152.14 394.19,154.23C394.5,156.44 394.81,158.71 395.1,161.04C395.41,163.48 395.71,165.99 396,168.55C396.31,171.22 396.6,173.96 396.9,176.75C397.21,179.65 397.51,182.61 397.81,185.61C398.12,188.71 398.41,191.87 398.71,195.06C399.02,198.34 399.32,201.68 399.62,205.05C399.93,208.49 400.22,211.99 400.52,215.5C400.82,219.07 401.12,222.68 401.42,226.3C401.72,229.95 402.03,233.64 402.33,237.32C402.63,241.01 402.93,244.73 403.23,248.4C403.53,252.02 403.83,255.69 404.14,259.2C404.43,262.54 404.72,265.86 405.04,268.96C405.33,271.8 405.63,274.56 405.95,277.1C406.23,279.33 406.48,281.66 406.85,283.38C407.11,284.6 407.42,286.46 407.75,286.48C408.03,286.5 408.41,285.33 408.66,284.4C409.12,282.72 409.28,279.73 409.56,277.02C409.9,273.71 410.18,269.81 410.47,265.97C410.79,261.8 411.07,257.32 411.37,252.9C411.67,248.36 411.97,243.71 412.27,239.1C412.57,234.46 412.88,229.79 413.18,225.15C413.48,220.54 413.78,215.92 414.08,211.35C414.38,206.84 414.69,202.34 414.99,197.9C415.29,193.55 415.59,189.23 415.89,184.97C416.19,180.82 416.48,176.71 416.79,172.68C417.09,168.77 417.39,164.91 417.7,161.13C418,157.49 418.29,153.91 418.6,150.42C418.9,147.08 419.2,143.81 419.51,140.63C419.8,137.62 420.1,134.66 420.41,131.82C420.7,129.15 421.01,126.56 421.32,124.07C421.61,121.76 421.91,119.52 422.22,117.4C422.51,115.46 422.8,113.59 423.12,111.85C423.41,110.29 423.71,108.8 424.03,107.43C424.31,106.23 424.6,105.09 424.93,104.08C425.21,103.22 425.51,102.41 425.84,101.72C426.12,101.14 426.41,100.61 426.74,100.18C427.02,99.81 427.35,99.59 427.64,99.25C427.95,98.89 428.26,98.5 428.55,98.09C428.86,97.65 429.11,97.04 429.45,96.67C429.73,96.37 430.04,96.03 430.36,95.98C430.65,95.93 430.99,96.08 431.26,96.29C431.62,96.57 431.89,97.14 432.16,97.69C432.5,98.38 432.79,99.26 433.07,100.17C433.4,101.24 433.69,102.45 433.97,103.71C434.29,105.14 434.59,106.69 434.88,108.3C435.2,110.06 435.49,111.94 435.78,113.86C436.09,115.93 436.39,118.1 436.68,120.32C436.99,122.68 437.29,125.12 437.59,127.61C437.9,130.21 438.19,132.9 438.49,135.61C438.8,138.41 439.1,141.28 439.4,144.16C439.71,147.11 440,150.11 440.3,153.11C440.6,156.14 440.91,159.2 441.21,162.23C441.51,165.25 441.81,168.29 442.11,171.26C442.41,174.16 442.7,177.06 443.01,179.86C443.3,182.52 443.6,185.17 443.92,187.66C444.21,189.95 444.5,192.21 444.82,194.25C445.1,196.04 445.39,197.79 445.73,199.27C446.01,200.46 446.24,201.68 446.63,202.45C446.89,202.97 447.21,203.59 447.53,203.62C447.82,203.65 448.18,203.22 448.44,202.84C448.83,202.27 449.06,201.26 449.34,200.32C449.68,199.16 449.96,197.78 450.25,196.39C450.57,194.84 450.86,193.14 451.15,191.44C451.46,189.63 451.75,187.72 452.05,185.82C452.36,183.87 452.66,181.87 452.96,179.89C453.26,177.91 453.56,175.9 453.86,173.93C454.16,171.99 454.46,170.05 454.77,168.17C455.07,166.35 455.36,164.55 455.67,162.82C455.96,161.18 456.27,159.56 456.58,158.02C456.87,156.59 457.16,155.19 457.48,153.89C457.77,152.7 458.06,151.56 458.38,150.51C458.67,149.58 458.96,148.69 459.29,147.91C459.57,147.24 459.86,146.6 460.19,146.08C460.47,145.64 460.77,145.23 461.1,144.93Q461.38,144.67 462,144.35" style="vector-effect: non-scaling-stroke; fill: none; stroke: rgb(0, 100, 80); stroke-opacity: 1; stroke-width: 2px; opacity: 1;"/></g><g class="points"/><g class="text"/></g><g class="trace scatter tracefb6682" style="stroke-miterlimit: 2; opacity: 1;"><g class="fills"/><g class="errorbars"/><g class="lines"><path class="js-line" d="M0,40.6Q0.61,40.52 0.9,40.41C1.21,40.29 1.52,40.09 1.81,39.87C2.13,39.63 2.42,39.32 2.71,39C3.02,38.66 3.33,38.27 3.62,37.88C3.93,37.47 4.22,37.01 4.52,36.57C4.82,36.12 5.12,35.65 5.42,35.19C5.72,34.73 6.02,34.26 6.33,33.82C6.63,33.39 6.92,32.96 7.23,32.57C7.52,32.21 7.82,31.85 8.14,31.56C8.43,31.3 8.72,31.04 9.04,30.89C9.33,30.75 9.65,30.64 9.95,30.65C10.25,30.66 10.57,30.76 10.85,30.93C11.18,31.12 11.47,31.45 11.75,31.81C12.08,32.24 12.38,32.78 12.66,33.36C12.99,34.04 13.28,34.82 13.56,35.64C13.88,36.58 14.18,37.62 14.47,38.7C14.79,39.91 15.08,41.2 15.37,42.55C15.69,44.03 15.98,45.61 16.27,47.24C16.58,49 16.89,50.85 17.18,52.76C17.49,54.8 17.79,56.93 18.08,59.11C18.39,61.43 18.7,63.83 18.99,66.29C19.3,68.88 19.6,71.54 19.89,74.26C20.2,77.1 20.49,80.02 20.79,82.99C21.1,86.08 21.4,89.24 21.7,92.44C22.01,95.76 22.3,99.14 22.6,102.56C22.91,106.08 23.21,109.67 23.51,113.29C23.82,117 24.11,120.76 24.41,124.56C24.71,128.43 25.02,132.36 25.32,136.3C25.62,140.31 25.92,144.36 26.22,148.42C26.52,152.53 26.82,156.69 27.12,160.82C27.42,164.95 27.7,169.44 28.03,173.21C28.31,176.38 28.62,179.12 28.93,181.97C29.22,184.68 29.54,187.21 29.84,189.9C30.15,192.67 30.44,195.49 30.74,198.34C31.04,201.26 31.34,204.23 31.64,207.22C31.94,210.27 32.25,213.37 32.55,216.47C32.85,219.62 33.15,222.8 33.45,225.97C33.75,229.16 34.06,232.37 34.36,235.56C34.66,238.73 34.96,241.91 35.26,245.05C35.56,248.13 35.85,251.21 36.16,254.21C36.46,257.11 36.73,260.2 37.07,262.75C37.35,264.83 37.63,266.74 37.97,268.4C38.25,269.74 38.41,271.8 38.88,271.98C39.13,272.08 39.52,271.69 39.78,271.38C40.15,270.94 40.4,270.14 40.68,269.42C41.01,268.57 41.3,267.59 41.59,266.6C41.91,265.51 42.2,264.32 42.49,263.13C42.8,261.87 43.1,260.55 43.4,259.22C43.71,257.84 44,256.43 44.3,255.01C44.61,253.56 44.91,252.07 45.21,250.59C45.51,249.09 45.81,247.56 46.11,246.05C46.41,244.55 46.7,243.03 47.01,241.55C47.31,240.1 47.61,238.66 47.92,237.27C48.21,235.95 48.51,234.64 48.82,233.41C49.11,232.26 49.41,231.14 49.73,230.11C50.02,229.18 50.3,228.29 50.63,227.5C50.91,226.82 51.19,226.16 51.53,225.65C51.81,225.24 52.1,224.82 52.44,224.63C52.72,224.47 53.05,224.39 53.34,224.45C53.66,224.52 53.97,224.82 54.25,225.13C54.59,225.51 54.87,226.08 55.15,226.65C55.48,227.34 55.77,228.15 56.05,229C56.37,229.97 56.67,231.04 56.96,232.15C57.28,233.37 57.57,234.68 57.86,236.03C58.17,237.49 58.48,239.03 58.77,240.6C59.08,242.27 59.38,244.01 59.67,245.78C59.98,247.63 60.28,249.55 60.58,251.48C60.89,253.48 61.18,255.53 61.48,257.58C61.78,259.68 62.08,261.81 62.38,263.94C62.68,266.08 62.99,268.25 63.29,270.38C63.59,272.47 63.88,274.57 64.19,276.58C64.48,278.48 64.78,280.37 65.1,282.12C65.39,283.7 65.68,285.24 66,286.62C66.28,287.82 66.48,289.21 66.9,289.96C67.16,290.42 67.5,290.92 67.81,290.93C68.11,290.94 68.44,290.43 68.71,290.04C69.07,289.52 69.34,288.75 69.62,287.99C69.95,287.09 70.23,286.02 70.52,284.95C70.84,283.76 71.13,282.45 71.42,281.15C71.73,279.78 72.03,278.34 72.33,276.91C72.63,275.46 72.93,273.98 73.23,272.52C73.53,271.07 73.83,269.61 74.14,268.18C74.44,266.79 74.73,265.41 75.04,264.07C75.34,262.78 75.64,261.52 75.95,260.3C76.24,259.15 76.54,258.03 76.85,256.96C77.14,255.97 77.43,255 77.75,254.11C78.04,253.3 78.34,252.52 78.66,251.82C78.95,251.2 79.23,250.6 79.56,250.1C79.84,249.67 80.14,249.27 80.47,248.99C80.75,248.75 81.06,248.54 81.37,248.47C81.66,248.4 81.98,248.43 82.27,248.53C82.59,248.64 82.9,248.88 83.18,249.13C83.5,249.42 83.79,249.81 84.08,250.21C84.4,250.66 84.7,251.18 84.99,251.71C85.3,252.28 85.6,252.91 85.89,253.54C86.2,254.2 86.49,254.9 86.79,255.59C87.09,256.28 87.39,257 87.7,257.67C87.99,258.31 88.28,258.95 88.6,259.53C88.89,260.06 89.19,260.58 89.51,261.01C89.79,261.39 90.08,261.78 90.41,262.02C90.69,262.22 91.02,262.41 91.32,262.4C91.62,262.39 91.95,262.19 92.22,261.94C92.57,261.61 92.85,261.05 93.12,260.47C93.47,259.74 93.75,258.81 94.03,257.85C94.36,256.71 94.64,255.42 94.93,254.08C95.25,252.58 95.55,250.94 95.84,249.28C96.15,247.48 96.45,245.59 96.74,243.67C97.05,241.66 97.34,239.58 97.64,237.49C97.95,235.35 98.25,233.16 98.55,230.98C98.85,228.78 99.15,226.56 99.45,224.36C99.75,222.17 100.06,219.98 100.36,217.82C100.66,215.7 100.96,213.59 101.26,211.52C101.56,209.52 101.85,207.53 102.16,205.6C102.46,203.75 102.76,201.92 103.07,200.16C103.36,198.5 103.66,196.87 103.97,195.32C104.26,193.87 104.56,192.46 104.88,191.14C105.17,189.93 105.46,188.76 105.78,187.69C106.06,186.74 106.35,185.82 106.68,185.01C106.96,184.32 107.25,183.65 107.59,183.12C107.87,182.68 108.15,182.25 108.49,182.02C108.77,181.83 109.1,181.69 109.4,181.71C109.7,181.73 110.02,181.93 110.3,182.15C110.64,182.42 110.93,182.85 111.21,183.29C111.54,183.8 111.82,184.42 112.11,185.05C112.43,185.74 112.72,186.51 113.01,187.28C113.32,188.08 113.61,188.95 113.92,189.77C114.22,190.57 114.5,191.4 114.82,192.14C115.11,192.8 115.41,193.44 115.73,194C116.02,194.5 116.32,194.92 116.63,195.35C116.92,195.75 117.23,196.11 117.53,196.49C117.83,196.88 118.14,197.26 118.44,197.66C118.75,198.08 119.04,198.52 119.34,198.96C119.65,199.42 119.95,199.88 120.25,200.36C120.55,200.84 120.85,201.35 121.15,201.84C121.45,202.33 121.75,202.83 122.05,203.31C122.35,203.78 122.65,204.26 122.96,204.71C123.26,205.14 123.55,205.57 123.86,205.97C124.16,206.35 124.46,206.72 124.77,207.05C125.06,207.36 125.36,207.65 125.67,207.9C125.96,208.13 126.27,208.34 126.58,208.51C126.87,208.67 127.17,208.8 127.48,208.88C127.78,208.96 128.08,209 128.38,209.01C128.68,209.02 128.99,208.99 129.29,208.94C129.59,208.89 129.89,208.79 130.19,208.68C130.5,208.56 130.8,208.41 131.1,208.24C131.41,208.06 131.71,207.85 132,207.61C132.31,207.35 132.61,207.06 132.9,206.74C133.21,206.4 133.51,206.02 133.81,205.63C134.12,205.22 134.41,204.78 134.71,204.34C135.01,203.9 135.31,203.43 135.62,202.99C135.92,202.57 136.21,202.14 136.52,201.77C136.81,201.43 137.1,201.08 137.42,200.84C137.71,200.62 138.02,200.42 138.33,200.35C138.62,200.28 138.94,200.3 139.23,200.4C139.55,200.52 139.86,200.78 140.14,201.07C140.47,201.42 140.76,201.9 141.04,202.41C141.37,203.01 141.67,203.72 141.95,204.47C142.27,205.32 142.56,206.27 142.85,207.25C143.17,208.34 143.46,209.52 143.75,210.74C144.07,212.07 144.37,213.48 144.66,214.93C144.97,216.48 145.27,218.11 145.56,219.77C145.87,221.53 146.17,223.35 146.47,225.2C146.78,227.13 147.07,229.11 147.37,231.11C147.67,233.17 147.97,235.29 148.27,237.4C148.57,239.55 148.88,241.73 149.18,243.89C149.48,246.04 149.77,248.24 150.08,250.31C150.37,252.26 150.62,254.4 150.99,255.97C151.26,257.12 151.51,258.16 151.89,258.9C152.15,259.41 152.44,259.89 152.79,260.09C153.06,260.25 153.42,260.3 153.7,260.2C154.03,260.09 154.33,259.7 154.6,259.32C154.95,258.84 155.23,258.16 155.51,257.47C155.84,256.64 156.13,255.67 156.41,254.67C156.73,253.53 157.03,252.27 157.32,250.97C157.64,249.55 157.93,248.02 158.22,246.48C158.53,244.84 158.82,243.13 159.12,241.41C159.43,239.63 159.73,237.8 160.03,235.99C160.33,234.16 160.63,232.31 160.93,230.49C161.23,228.69 161.53,226.88 161.84,225.12C162.14,223.41 162.43,221.72 162.74,220.08C163.03,218.52 163.33,216.99 163.64,215.52C163.93,214.15 164.23,212.81 164.55,211.55C164.84,210.4 165.13,209.29 165.45,208.27C165.74,207.37 166.03,206.5 166.36,205.75C166.64,205.11 166.92,204.5 167.26,204.04C167.53,203.67 167.83,203.3 168.16,203.16C168.44,203.04 168.79,203.03 169.07,203.13C169.4,203.25 169.69,203.6 169.97,203.94C170.31,204.36 170.6,204.95 170.88,205.55C171.21,206.25 171.5,207.08 171.78,207.93C172.1,208.89 172.39,209.95 172.68,211.03C173,212.21 173.3,213.47 173.59,214.76C173.9,216.14 174.2,217.59 174.49,219.07C174.8,220.63 175.1,222.25 175.4,223.9C175.71,225.62 176,227.39 176.3,229.19C176.61,231.05 176.91,232.96 177.21,234.89C177.52,236.89 177.81,238.92 178.11,240.98C178.41,243.09 178.71,245.23 179.01,247.38C179.31,249.58 179.62,251.81 179.92,254.04C180.22,256.29 180.52,258.57 180.82,260.84C181.12,263.1 181.43,265.38 181.73,267.63C182.03,269.84 182.33,272.06 182.63,274.22C182.93,276.32 183.22,278.4 183.53,280.41C183.83,282.33 184.13,284.22 184.44,286.04C184.73,287.75 185.02,289.42 185.34,291C185.63,292.46 185.92,293.92 186.25,295.19C186.53,296.27 186.71,297.6 187.15,298.14C187.4,298.45 187.79,298.71 188.05,298.62C188.44,298.48 188.68,297.28 188.96,296.48C189.3,295.5 189.57,294.33 189.86,293.16C190.18,291.88 190.47,290.45 190.77,289.1C191.07,287.74 191.36,286.37 191.67,285.03C191.97,283.72 192.27,282.42 192.58,281.15C192.88,279.92 193.18,278.73 193.48,277.54C193.78,276.38 194.1,275.33 194.38,274.1C194.7,272.7 194.98,271.07 195.29,269.59C195.59,268.15 195.88,266.72 196.19,265.33C196.49,264 196.79,262.7 197.1,261.43C197.4,260.22 197.69,259.03 198,257.88C198.29,256.79 198.59,255.73 198.9,254.71C199.19,253.74 199.5,252.8 199.81,251.9C200.1,251.06 200.4,250.25 200.71,249.48C201,248.76 201.31,248.06 201.62,247.4C201.91,246.78 202.21,246.19 202.52,245.63C202.81,245.1 203.11,244.6 203.42,244.12C203.71,243.67 204.02,243.23 204.33,242.83C204.62,242.45 204.92,242.09 205.23,241.77C205.52,241.47 205.83,241.18 206.14,240.95C206.43,240.74 206.73,240.56 207.04,240.42C207.34,240.29 207.68,240.35 207.95,240.14C208.32,239.84 208.56,239.1 208.85,238.55C209.16,237.97 209.44,237.31 209.75,236.72C210.05,236.15 210.35,235.59 210.66,235.04C210.96,234.51 211.25,234 211.56,233.49C211.86,233 212.17,232.51 212.47,232.04C212.77,231.58 213.07,231.12 213.37,230.67C213.67,230.23 213.97,229.8 214.27,229.37C214.57,228.94 214.88,228.52 215.18,228.09C215.48,227.66 215.78,227.24 216.08,226.81C216.38,226.37 216.69,225.93 216.99,225.47C217.3,225 217.6,224.52 217.89,224.01C218.2,223.48 218.5,222.92 218.79,222.34C219.1,221.73 219.4,221.09 219.7,220.44C220.01,219.76 220.3,219.04 220.6,218.33C220.9,217.61 221.21,216.88 221.51,216.17C221.81,215.47 222.1,214.77 222.41,214.11C222.7,213.49 223,212.87 223.32,212.31C223.61,211.8 223.9,211.31 224.22,210.9C224.5,210.54 224.79,210.18 225.12,209.96C225.4,209.77 225.72,209.6 226.03,209.58C226.33,209.56 226.65,209.65 226.93,209.8C227.26,209.98 227.56,210.3 227.84,210.65C228.17,211.06 228.46,211.59 228.74,212.14C229.06,212.78 229.35,213.51 229.64,214.27C229.96,215.12 230.26,216.04 230.55,216.99C230.87,218.02 231.16,219.13 231.45,220.25C231.76,221.43 232.06,222.66 232.36,223.88C232.66,225.1 232.94,226.42 233.26,227.57C233.55,228.6 233.8,229.69 234.16,230.48C234.43,231.07 234.71,231.64 235.07,231.95C235.34,232.18 235.67,232.35 235.97,232.33C236.28,232.31 236.61,232.08 236.88,231.81C237.23,231.47 237.5,230.87 237.78,230.31C238.11,229.65 238.39,228.85 238.68,228.08C238.99,227.26 239.29,226.39 239.59,225.54C239.89,224.68 240.19,223.8 240.49,222.95C240.79,222.11 241.09,221.28 241.4,220.47C241.7,219.69 241.99,218.92 242.3,218.18C242.6,217.47 242.9,216.78 243.21,216.13C243.5,215.52 243.8,214.92 244.11,214.37C244.4,213.86 244.69,213.36 245.01,212.92C245.3,212.51 245.6,212.12 245.92,211.79C246.21,211.49 246.5,211.21 246.82,211C247.11,210.81 247.42,210.64 247.73,210.55C248.02,210.46 248.33,210.43 248.63,210.45C248.93,210.47 249.24,210.55 249.53,210.68C249.84,210.82 250.15,211.02 250.44,211.26C250.76,211.52 251.05,211.84 251.34,212.18C251.66,212.55 251.96,212.98 252.25,213.42C252.56,213.9 252.86,214.42 253.15,214.97C253.46,215.56 253.76,216.18 254.05,216.83C254.36,217.51 254.67,218.23 254.96,218.97C255.27,219.74 255.56,220.55 255.86,221.37C256.17,222.22 256.47,223.1 256.77,223.99C257.08,224.91 257.37,225.84 257.67,226.79C257.98,227.76 258.28,228.74 258.58,229.73C258.88,230.73 259.18,231.74 259.48,232.74C259.78,233.74 260.08,234.75 260.38,235.74C260.68,236.71 260.98,237.69 261.29,238.63C261.59,239.54 261.88,240.43 262.19,241.31C262.49,242.16 262.8,242.99 263.1,243.81C263.4,244.62 263.7,245.41 264,246.21C264.3,247.01 264.6,247.82 264.9,248.63C265.2,249.44 265.51,250.27 265.81,251.08C266.11,251.89 266.41,252.7 266.71,253.5C267.01,254.28 267.32,255.03 267.62,255.81C267.92,256.59 268.23,257.37 268.52,258.18C268.83,259.02 269.12,259.88 269.42,260.76C269.73,261.68 270.03,262.63 270.33,263.6C270.64,264.6 270.93,265.64 271.23,266.68C271.54,267.75 271.84,268.85 272.14,269.94C272.44,271.03 272.73,272.15 273.04,273.22C273.34,274.26 273.62,275.36 273.95,276.28C274.23,277.05 274.5,277.82 274.85,278.38C275.12,278.82 275.42,279.21 275.75,279.45C276.03,279.65 276.35,279.78 276.66,279.81C276.96,279.84 277.27,279.75 277.56,279.66C277.87,279.56 278.17,279.4 278.47,279.24C278.78,279.07 279.08,278.88 279.37,278.67C279.68,278.45 279.98,278.21 280.27,277.94C280.58,277.66 280.89,277.36 281.18,277.02C281.5,276.65 281.81,276.29 282.08,275.78C282.44,275.11 282.71,274.17 282.99,273.25C283.32,272.17 283.6,270.93 283.89,269.67C284.21,268.28 284.5,266.78 284.79,265.25C285.1,263.61 285.4,261.88 285.7,260.16C286.01,258.4 286.3,256.59 286.6,254.82C286.9,253.06 287.2,251.29 287.51,249.56C287.81,247.87 288.1,246.2 288.41,244.57C288.71,243 289.01,241.46 289.32,239.97C289.61,238.56 289.91,237.18 290.22,235.86C290.51,234.63 290.8,233.43 291.12,232.31C291.41,231.28 291.71,230.29 292.03,229.38C292.32,228.57 292.6,227.79 292.93,227.1C293.21,226.5 293.51,225.93 293.84,225.48C294.12,225.1 294.41,224.74 294.74,224.53C295.02,224.35 295.34,224.22 295.64,224.21C295.94,224.2 296.26,224.33 296.55,224.49C296.87,224.67 297.17,224.98 297.45,225.3C297.77,225.66 298.07,226.11 298.36,226.56C298.68,227.05 298.97,227.6 299.26,228.15C299.57,228.73 299.86,229.34 300.16,229.95C300.46,230.57 300.77,231.21 301.07,231.83C301.37,232.44 301.66,233.05 301.97,233.63C302.27,234.18 302.57,234.73 302.88,235.23C303.17,235.69 303.46,236.15 303.78,236.52C304.06,236.85 304.36,237.19 304.68,237.39C304.96,237.57 305.29,237.72 305.59,237.71C305.89,237.7 306.21,237.55 306.49,237.34C306.83,237.08 307.12,236.62 307.4,236.16C307.74,235.6 308.02,234.89 308.3,234.16C308.63,233.33 308.92,232.38 309.21,231.42C309.53,230.37 309.82,229.25 310.11,228.11C310.42,226.92 310.71,225.67 311.01,224.42C311.32,223.13 311.62,221.81 311.92,220.49C312.22,219.15 312.52,217.79 312.82,216.44C313.12,215.08 313.43,213.71 313.73,212.35C314.03,210.99 314.33,209.64 314.63,208.29C314.93,206.96 315.23,205.63 315.53,204.31C315.83,203.01 316.14,201.72 316.44,200.44C316.74,199.19 317.04,197.95 317.34,196.73C317.64,195.53 317.94,194.34 318.25,193.17C318.55,192.03 318.85,190.89 319.15,189.78C319.45,188.69 319.74,187.62 320.05,186.57C320.35,185.55 320.65,184.54 320.96,183.55C321.26,182.6 321.55,181.66 321.86,180.75C322.16,179.87 322.46,179.01 322.77,178.18C323.06,177.39 323.36,176.61 323.67,175.87C323.96,175.18 324.27,174.5 324.58,173.87C324.87,173.29 325.16,172.72 325.48,172.21C325.77,171.75 326.06,171.31 326.38,170.93C326.67,170.59 326.97,170.27 327.29,170.04C327.58,169.83 327.88,169.65 328.19,169.56C328.48,169.47 328.8,169.45 329.1,169.48C329.4,169.51 329.71,169.63 330,169.77C330.31,169.92 330.61,170.15 330.9,170.39C331.21,170.65 331.52,170.96 331.81,171.28C332.12,171.63 332.42,172.02 332.71,172.41C333.02,172.82 333.32,173.26 333.62,173.71C333.93,174.17 334.22,174.64 334.52,175.12C334.82,175.61 335.12,176.11 335.42,176.61C335.72,177.12 336.03,177.63 336.33,178.15C336.63,178.67 336.93,179.2 337.23,179.73C337.53,180.28 337.84,180.83 338.14,181.39C338.44,181.96 338.74,182.55 339.04,183.14C339.35,183.75 339.65,184.37 339.95,185C340.26,185.65 340.55,186.33 340.85,187.01C341.15,187.72 341.45,188.43 341.75,189.17C342.06,189.93 342.36,190.72 342.66,191.52C342.97,192.35 343.26,193.2 343.56,194.07C343.87,194.97 344.17,195.88 344.47,196.81C344.78,197.77 345.07,198.75 345.37,199.75C345.67,200.77 345.97,201.82 346.27,202.87C346.57,203.94 346.88,205.03 347.18,206.12C347.48,207.23 347.78,208.35 348.08,209.47C348.38,210.6 348.69,211.74 348.99,212.86C349.29,213.98 349.59,215.09 349.89,216.19C350.19,217.27 350.48,218.35 350.79,219.39C351.09,220.4 351.39,221.39 351.7,222.34C351.99,223.23 352.28,224.11 352.6,224.9C352.89,225.61 353.17,226.32 353.51,226.88C353.79,227.34 354.06,227.85 354.41,228.05C354.68,228.21 355.04,228.28 355.32,228.18C355.65,228.06 355.95,227.61 356.22,227.21C356.57,226.7 356.84,225.98 357.12,225.27C357.45,224.45 357.74,223.51 358.03,222.55C358.35,221.5 358.64,220.36 358.93,219.2C359.24,217.96 359.55,216.66 359.84,215.34C360.15,213.95 360.45,212.51 360.74,211.05C361.05,209.54 361.34,208 361.64,206.44C361.95,204.84 362.25,203.21 362.55,201.57C362.85,199.91 363.15,198.22 363.45,196.54C363.75,194.84 364.06,193.13 364.36,191.42C364.66,189.7 364.96,187.98 365.26,186.26C365.56,184.55 365.86,182.84 366.16,181.14C366.46,179.46 366.77,177.78 367.07,176.11C367.37,174.47 367.67,172.83 367.97,171.21C368.27,169.62 368.58,168.04 368.88,166.48C369.18,164.95 369.48,163.43 369.78,161.93C370.08,160.47 370.38,159.02 370.68,157.59C370.98,156.19 371.29,154.8 371.59,153.43C371.89,152.09 372.19,150.76 372.49,149.44C372.79,148.14 373.1,146.86 373.4,145.58C373.7,144.32 374,143.08 374.3,141.83C374.6,140.59 374.91,139.36 375.21,138.12C375.51,136.89 375.81,135.66 376.11,134.43C376.41,133.2 376.71,131.96 377.01,130.73C377.31,129.5 377.62,128.27 377.92,127.05C378.22,125.83 378.52,124.61 378.82,123.4C379.12,122.21 379.42,121.03 379.73,119.87C380.03,118.74 380.32,117.61 380.63,116.51C380.92,115.45 381.22,114.41 381.53,113.41C381.82,112.46 382.13,111.53 382.44,110.66C382.73,109.85 383.02,109.06 383.34,108.34C383.63,107.69 383.92,107.06 384.25,106.53C384.53,106.07 384.82,105.61 385.15,105.3C385.43,105.04 385.74,104.79 386.05,104.72C386.34,104.65 386.68,104.7 386.96,104.83C387.29,104.99 387.58,105.33 387.86,105.69C388.2,106.13 388.49,106.73 388.77,107.35C389.1,108.08 389.39,108.93 389.67,109.82C389.99,110.84 390.29,111.97 390.58,113.14C390.9,114.45 391.19,115.85 391.48,117.31C391.79,118.91 392.09,120.6 392.38,122.34C392.69,124.22 393,126.19 393.29,128.22C393.6,130.38 393.9,132.62 394.19,134.92C394.5,137.35 394.81,139.86 395.1,142.43C395.41,145.12 395.71,147.89 396,150.71C396.31,153.64 396.6,156.65 396.9,159.7C397.21,162.86 397.51,166.09 397.81,169.35C398.12,172.71 398.41,176.13 398.71,179.59C399.02,183.13 399.32,186.72 399.62,190.34C399.92,194.03 400.22,197.76 400.52,201.51C400.82,205.31 401.12,209.16 401.42,213C401.72,216.87 402.03,220.77 402.33,224.66C402.63,228.56 402.93,232.48 403.23,236.36C403.53,240.22 403.84,244.08 404.14,247.88C404.44,251.6 404.73,255.33 405.04,258.94C405.34,262.41 405.63,265.91 405.95,269.14C406.24,272.07 406.51,275.02 406.85,277.5C407.12,279.51 407.27,281.8 407.75,282.94C408,283.54 408.4,284.23 408.66,284.17C409.1,284.07 409.29,281.46 409.56,279.81C409.91,277.66 410.18,274.94 410.47,272.36C410.78,269.58 411.09,266.77 411.37,263.69C411.69,260.17 411.97,256.17 412.27,252.36C412.57,248.49 412.88,244.55 413.18,240.66C413.48,236.79 413.78,232.93 414.08,229.09C414.38,225.3 414.69,221.51 414.99,217.77C415.29,214.08 415.59,210.42 415.89,206.8C416.19,203.25 416.48,199.72 416.79,196.24C417.09,192.84 417.39,189.46 417.7,186.14C418,182.9 418.29,179.7 418.6,176.55C418.9,173.49 419.2,170.47 419.51,167.5C419.81,164.62 420.1,161.79 420.41,159.01C420.71,156.33 421.01,153.7 421.32,151.13C421.62,148.66 421.91,146.23 422.22,143.87C422.51,141.62 422.81,139.41 423.12,137.27C423.41,135.24 423.72,133.26 424.03,131.36C424.32,129.57 424.62,127.83 424.93,126.17C425.22,124.63 425.52,123.13 425.84,121.73C426.13,120.46 426.42,119.23 426.74,118.1C427.02,117.1 427.31,116.15 427.64,115.31C427.92,114.6 428.21,113.9 428.55,113.38C428.82,112.97 429.11,112.54 429.45,112.37C429.73,112.23 430.08,112.18 430.36,112.28C430.69,112.39 430.99,112.78 431.26,113.15C431.61,113.62 431.88,114.29 432.16,114.97C432.49,115.79 432.79,116.74 433.07,117.74C433.39,118.88 433.68,120.14 433.97,121.44C434.29,122.89 434.59,124.45 434.88,126.05C435.2,127.79 435.49,129.62 435.78,131.5C436.09,133.5 436.39,135.59 436.68,137.72C436.99,139.96 437.29,142.28 437.59,144.63C437.9,147.07 438.19,149.57 438.49,152.08C438.8,154.66 439.1,157.29 439.4,159.91C439.7,162.56 440,165.24 440.3,167.89C440.6,170.53 440.91,173.18 441.21,175.79C441.51,178.35 441.8,180.89 442.11,183.38C442.41,185.78 442.7,188.17 443.01,190.46C443.3,192.64 443.61,194.78 443.92,196.81C444.21,198.68 444.5,200.53 444.82,202.21C445.11,203.7 445.39,205.15 445.73,206.39C446.01,207.4 446.26,208.43 446.63,209.12C446.89,209.61 447.2,210.18 447.53,210.24C447.81,210.29 448.18,210 448.44,209.69C448.83,209.23 449.07,208.34 449.34,207.51C449.68,206.47 449.97,205.19 450.25,203.9C450.57,202.42 450.86,200.78 451.15,199.12C451.46,197.32 451.75,195.4 452.05,193.48C452.36,191.47 452.66,189.38 452.96,187.3C453.26,185.18 453.56,183.01 453.86,180.86C454.16,178.71 454.47,176.55 454.77,174.42C455.07,172.33 455.36,170.23 455.67,168.19C455.97,166.21 456.27,164.26 456.58,162.36C456.88,160.55 457.17,158.76 457.48,157.05C457.77,155.44 458.06,153.87 458.38,152.39C458.67,151.02 458.97,149.7 459.29,148.47C459.58,147.37 459.86,146.31 460.19,145.36C460.47,144.54 460.76,143.75 461.1,143.1Q461.38,142.57 462,141.73" style="vector-effect: non-scaling-stroke; fill: none; stroke: rgb(0, 176, 246); stroke-opacity: 1; stroke-width: 2px; opacity: 1;"/></g><g class="points"/><g class="text"/></g><g class="trace scatter tracecdf00e" style="stroke-miterlimit: 2; opacity: 1;"><g class="fills"/><g class="errorbars"/><g class="lines"><path class="js-line" d="M0,81.03Q0.6,81.05 0.9,81.1C1.2,81.15 1.51,81.22 1.81,81.31C2.11,81.41 2.41,81.53 2.71,81.67C3.02,81.82 3.32,81.99 3.62,82.18C3.93,82.38 4.23,82.61 4.52,82.85C4.83,83.11 5.13,83.39 5.42,83.69C5.73,84 6.03,84.34 6.33,84.69C6.64,85.06 6.94,85.46 7.23,85.87C7.54,86.3 7.84,86.76 8.14,87.24C8.45,87.74 8.74,88.26 9.04,88.79C9.35,89.35 9.65,89.92 9.95,90.52C10.26,91.14 10.56,91.78 10.85,92.44C11.16,93.12 11.45,93.82 11.75,94.53C12.06,95.27 12.36,96.02 12.66,96.79C12.97,97.58 13.26,98.38 13.56,99.2C13.87,100.04 14.17,100.89 14.47,101.76C14.78,102.64 15.07,103.54 15.37,104.45C15.67,105.38 15.97,106.31 16.27,107.26C16.57,108.23 16.88,109.21 17.18,110.2C17.48,111.21 17.78,112.22 18.08,113.25C18.38,114.3 18.69,115.36 18.99,116.44C19.29,117.54 19.59,118.65 19.89,119.78C20.19,120.94 20.49,122.11 20.79,123.3C21.1,124.52 21.4,125.77 21.7,127.03C22.01,128.33 22.3,129.66 22.6,131.01C22.91,132.4 23.21,133.82 23.51,135.26C23.82,136.75 24.11,138.28 24.41,139.83C24.72,141.43 25.02,143.06 25.32,144.72C25.63,146.44 25.92,148.19 26.22,149.97C26.53,151.81 26.82,153.69 27.12,155.59C27.43,157.55 27.73,159.55 28.03,161.57C28.34,163.65 28.63,165.77 28.93,167.91C29.24,170.11 29.54,172.34 29.84,174.6C30.15,176.91 30.44,179.25 30.74,181.61C31.04,184.02 31.34,186.45 31.64,188.9C31.94,191.39 32.25,193.9 32.55,196.43C32.85,198.99 33.15,201.57 33.45,204.15C33.75,206.75 34.06,209.36 34.36,211.97C34.66,214.58 34.96,217.21 35.26,219.81C35.56,222.4 35.86,224.99 36.16,227.54C36.46,230.04 36.75,232.66 37.07,234.97C37.35,237 37.62,239.01 37.97,240.68C38.24,242 38.53,243.21 38.88,244.2C39.15,244.96 39.4,245.76 39.78,246.15C40.04,246.42 40.39,246.63 40.68,246.59C41,246.55 41.32,246.16 41.59,245.82C41.94,245.4 42.21,244.77 42.49,244.17C42.81,243.49 43.11,242.7 43.4,241.92C43.71,241.08 44,240.18 44.3,239.28C44.61,238.35 44.91,237.39 45.21,236.44C45.51,235.47 45.81,234.49 46.11,233.51C46.41,232.53 46.71,231.55 47.01,230.58C47.31,229.62 47.62,228.66 47.92,227.72C48.22,226.8 48.51,225.88 48.82,224.99C49.12,224.12 49.42,223.27 49.73,222.44C50.03,221.65 50.32,220.86 50.63,220.12C50.92,219.42 51.22,218.73 51.53,218.09C51.82,217.5 52.12,216.93 52.44,216.41C52.73,215.94 53.02,215.48 53.34,215.1C53.63,214.76 53.93,214.45 54.25,214.23C54.54,214.04 54.84,213.87 55.15,213.82C55.44,213.77 55.76,213.8 56.05,213.9C56.37,214.01 56.68,214.23 56.96,214.48C57.29,214.77 57.58,215.16 57.86,215.57C58.18,216.04 58.48,216.6 58.77,217.18C59.09,217.83 59.38,218.54 59.67,219.28C59.99,220.09 60.29,220.96 60.58,221.86C60.89,222.82 61.19,223.84 61.48,224.88C61.79,225.98 62.08,227.11 62.38,228.27C62.69,229.48 62.99,230.73 63.29,231.98C63.6,233.27 63.89,234.58 64.19,235.89C64.49,237.2 64.8,238.53 65.1,239.83C65.4,241.11 65.69,242.39 66,243.62C66.29,244.79 66.59,245.95 66.9,247.05C67.19,248.07 67.5,249.05 67.81,249.99C68.1,250.86 68.4,251.7 68.71,252.5C69,253.24 69.31,253.96 69.62,254.63C69.91,255.26 70.21,255.86 70.52,256.42C70.81,256.94 71.11,257.43 71.42,257.89C71.71,258.32 72.02,258.72 72.33,259.11C72.63,259.49 72.93,259.85 73.23,260.2C73.53,260.55 73.84,260.88 74.14,261.22C74.44,261.56 74.74,261.9 75.04,262.25C75.34,262.6 75.65,262.95 75.95,263.32C76.26,263.7 76.55,264.1 76.85,264.49C77.15,264.89 77.42,265.39 77.75,265.7C78.03,265.96 78.34,266.17 78.66,266.29C78.95,266.4 79.28,266.52 79.56,266.43C79.89,266.33 80.19,265.93 80.47,265.59C80.8,265.19 81.09,264.67 81.37,264.12C81.7,263.48 81.96,262.66 82.27,261.96C82.57,261.28 82.87,260.59 83.18,259.95C83.47,259.35 83.77,258.76 84.08,258.21C84.37,257.69 84.68,257.19 84.99,256.72C85.28,256.27 85.58,255.84 85.89,255.44C86.18,255.07 86.48,254.72 86.79,254.4C87.08,254.1 87.39,253.83 87.7,253.59C87.99,253.36 88.3,253.16 88.6,252.96C88.9,252.77 89.21,252.59 89.51,252.41C89.81,252.23 90.11,252.06 90.41,251.86C90.72,251.65 91.03,251.42 91.32,251.15C91.63,250.86 91.93,250.54 92.22,250.17C92.54,249.76 92.83,249.3 93.12,248.81C93.44,248.26 93.74,247.65 94.03,247C94.35,246.29 94.64,245.5 94.93,244.71C95.24,243.86 95.54,242.97 95.84,242.07C96.15,241.14 96.44,240.18 96.74,239.22C97.04,238.26 97.34,237.28 97.64,236.31C97.94,235.34 98.25,234.38 98.55,233.42C98.85,232.48 99.14,231.54 99.45,230.62C99.75,229.73 100.05,228.85 100.36,227.99C100.66,227.16 100.95,226.34 101.26,225.54C101.55,224.78 101.85,224.03 102.16,223.31C102.46,222.62 102.76,221.95 103.07,221.3C103.37,220.68 103.66,220.07 103.97,219.48C104.27,218.92 104.57,218.37 104.88,217.84C105.18,217.33 105.48,216.83 105.78,216.34C106.08,215.86 106.37,215.39 106.68,214.94C106.98,214.5 107.28,214.07 107.59,213.65C107.89,213.24 108.18,212.83 108.49,212.44C108.79,212.06 109.09,211.69 109.4,211.35C109.7,211.02 109.99,210.7 110.3,210.41C110.6,210.13 110.9,209.87 111.21,209.65C111.5,209.44 111.8,209.24 112.11,209.1C112.4,208.96 112.71,208.86 113.01,208.8C113.31,208.74 113.62,208.72 113.92,208.75C114.22,208.78 114.53,208.86 114.82,208.97C115.13,209.09 115.44,209.26 115.73,209.45C116.04,209.65 116.34,209.9 116.63,210.16C116.94,210.44 117.24,210.75 117.53,211.08C117.84,211.42 118.14,211.79 118.44,212.17C118.75,212.56 119.04,212.96 119.34,213.37C119.64,213.78 119.95,214.21 120.25,214.62C120.55,215.03 120.85,215.45 121.15,215.85C121.45,216.24 121.74,216.63 122.05,216.98C122.34,217.32 122.65,217.64 122.96,217.92C123.25,218.18 123.55,218.42 123.86,218.59C124.15,218.75 124.46,218.88 124.77,218.92C125.07,218.96 125.38,218.94 125.67,218.86C125.98,218.78 126.29,218.61 126.58,218.41C126.9,218.19 127.19,217.9 127.48,217.59C127.79,217.26 128.09,216.87 128.38,216.47C128.69,216.05 128.99,215.6 129.29,215.14C129.6,214.67 129.89,214.16 130.19,213.67C130.49,213.17 130.8,212.65 131.1,212.15C131.4,211.66 131.69,211.16 132,210.68C132.3,210.22 132.59,209.76 132.9,209.34C133.19,208.94 133.5,208.55 133.81,208.21C134.1,207.9 134.39,207.59 134.71,207.36C135,207.14 135.31,206.95 135.62,206.84C135.91,206.74 136.22,206.68 136.52,206.71C136.82,206.74 137.13,206.86 137.42,207.02C137.74,207.2 138.05,207.48 138.33,207.78C138.65,208.13 138.94,208.56 139.23,209.02C139.55,209.54 139.85,210.12 140.14,210.74C140.46,211.42 140.75,212.17 141.04,212.95C141.36,213.8 141.66,214.7 141.95,215.63C142.26,216.63 142.56,217.7 142.85,218.78C143.16,219.93 143.46,221.12 143.75,222.34C144.06,223.62 144.36,224.95 144.66,226.3C144.97,227.7 145.26,229.13 145.56,230.58C145.87,232.08 146.17,233.61 146.47,235.14C146.77,236.7 147.07,238.29 147.37,239.87C147.67,241.46 147.97,243.08 148.27,244.67C148.57,246.25 148.87,247.84 149.18,249.39C149.48,250.89 149.77,252.4 150.08,253.82C150.37,255.16 150.66,256.51 150.99,257.69C151.27,258.7 151.5,259.83 151.89,260.47C152.15,260.9 152.48,261.35 152.79,261.38C153.08,261.41 153.43,261.07 153.7,260.76C154.07,260.33 154.33,259.6 154.6,258.89C154.94,258 155.22,256.9 155.51,255.79C155.83,254.54 156.12,253.14 156.41,251.74C156.72,250.23 157.02,248.63 157.32,247.03C157.63,245.36 157.92,243.63 158.22,241.91C158.52,240.15 158.82,238.36 159.12,236.58C159.42,234.8 159.73,233 160.03,231.22C160.33,229.46 160.63,227.69 160.93,225.96C161.23,224.26 161.53,222.57 161.84,220.91C162.14,219.3 162.43,217.71 162.74,216.16C163.03,214.67 163.33,213.21 163.64,211.8C163.93,210.45 164.24,209.13 164.55,207.87C164.84,206.69 165.14,205.53 165.45,204.44C165.74,203.43 166.04,202.44 166.36,201.53C166.65,200.71 166.94,199.91 167.26,199.2C167.54,198.57 167.83,197.96 168.16,197.45C168.44,197.01 168.74,196.6 169.07,196.31C169.35,196.07 169.66,195.86 169.97,195.79C170.26,195.73 170.59,195.77 170.88,195.89C171.2,196.02 171.5,196.31 171.78,196.61C172.11,196.97 172.4,197.45 172.68,197.95C173.01,198.53 173.3,199.19 173.59,199.89C173.91,200.67 174.2,201.52 174.49,202.41C174.81,203.38 175.11,204.42 175.4,205.49C175.71,206.64 176.01,207.86 176.3,209.1C176.61,210.42 176.92,211.8 177.21,213.2C177.52,214.68 177.82,216.21 178.11,217.76C178.42,219.38 178.71,221.05 179.01,222.74C179.32,224.49 179.62,226.27 179.92,228.08C180.23,229.94 180.52,231.82 180.82,233.73C181.13,235.68 181.43,237.67 181.73,239.66C182.03,241.69 182.33,243.74 182.63,245.79C182.93,247.87 183.23,249.96 183.53,252.05C183.83,254.15 184.14,256.28 184.44,258.38C184.74,260.46 185.03,262.57 185.34,264.6C185.64,266.55 185.91,268.62 186.25,270.34C186.53,271.76 186.63,273.84 187.15,274.21C187.4,274.39 187.79,274.29 188.05,274.11C188.43,273.86 188.68,273.08 188.96,272.47C189.29,271.75 189.56,270.86 189.86,270.02C190.17,269.15 190.47,268.24 190.77,267.34C191.07,266.43 191.37,265.51 191.67,264.6C191.97,263.7 192.28,262.79 192.58,261.9C192.88,261.02 193.18,260.14 193.48,259.28C193.78,258.43 194.07,257.59 194.38,256.77C194.68,255.97 194.98,255.18 195.29,254.42C195.59,253.68 195.88,252.96 196.19,252.26C196.49,251.59 196.79,250.94 197.1,250.32C197.39,249.74 197.69,249.17 198,248.64C198.29,248.14 198.59,247.66 198.9,247.21C199.19,246.79 199.5,246.39 199.81,246.02C200.1,245.67 200.4,245.35 200.71,245.05C201.01,244.76 201.31,244.49 201.62,244.23C201.92,243.97 202.22,243.73 202.52,243.48C202.82,243.23 203.12,242.98 203.42,242.71C203.73,242.44 204.03,242.15 204.33,241.87C204.63,241.59 204.93,241.29 205.23,241.01C205.53,240.73 205.83,240.44 206.14,240.17C206.44,239.91 206.73,239.65 207.04,239.41C207.34,239.18 207.64,238.95 207.95,238.75C208.25,238.55 208.55,238.37 208.85,238.2C209.15,238.04 209.45,237.9 209.75,237.77C210.05,237.64 210.36,237.53 210.66,237.43C210.96,237.33 211.26,237.25 211.56,237.17C211.86,237.1 212.17,237.04 212.47,236.98C212.77,236.92 213.07,236.88 213.37,236.83C213.67,236.78 213.97,236.74 214.27,236.7C214.57,236.66 214.88,236.63 215.18,236.59C215.48,236.55 215.78,236.51 216.08,236.47C216.38,236.43 216.69,236.39 216.99,236.35C217.29,236.31 217.59,236.27 217.89,236.23C218.19,236.19 218.49,236.14 218.79,236.1C219.09,236.06 219.4,236.02 219.7,235.99C220,235.96 220.3,235.93 220.6,235.92C220.9,235.91 221.21,235.9 221.51,235.91C221.81,235.92 222.11,235.94 222.41,235.98C222.71,236.02 223.02,236.08 223.32,236.17C223.62,236.26 223.93,236.37 224.22,236.51C224.53,236.65 224.83,236.82 225.12,237.02C225.43,237.23 225.74,237.47 226.03,237.73C226.34,238.01 226.64,238.33 226.93,238.66C227.24,239.01 227.55,239.4 227.84,239.8C228.15,240.23 228.45,240.7 228.74,241.17C229.05,241.67 229.34,242.19 229.64,242.72C229.95,243.26 230.25,243.82 230.55,244.37C230.85,244.92 231.15,245.47 231.45,246.03C231.75,246.59 232.06,247.16 232.36,247.71C232.66,248.25 232.95,248.81 233.26,249.32C233.55,249.8 233.85,250.27 234.16,250.7C234.45,251.1 234.75,251.47 235.07,251.8C235.36,252.1 235.65,252.4 235.97,252.61C236.26,252.8 236.57,252.91 236.88,253.01C237.18,253.11 237.48,253.15 237.78,253.21C238.08,253.27 238.38,253.31 238.68,253.36C238.98,253.41 239.29,253.45 239.59,253.5C239.89,253.55 240.19,253.59 240.49,253.64C240.79,253.69 241.1,253.75 241.4,253.82C241.7,253.89 242,253.96 242.3,254.04C242.6,254.12 242.91,254.21 243.21,254.3C243.51,254.39 243.81,254.49 244.11,254.59C244.41,254.69 244.71,254.81 245.01,254.92C245.31,255.03 245.62,255.14 245.92,255.25C246.22,255.36 246.52,255.47 246.82,255.57C247.12,255.66 247.43,255.76 247.73,255.82C248.03,255.88 248.33,255.91 248.63,255.94C248.93,255.97 249.23,255.99 249.53,256.02C249.83,256.06 250.14,256.09 250.44,256.15C250.74,256.21 251.04,256.28 251.34,256.39C251.65,256.5 251.95,256.64 252.25,256.8C252.56,256.97 252.86,257.17 253.15,257.4C253.46,257.64 253.76,257.92 254.05,258.22C254.36,258.54 254.67,258.9 254.96,259.29C255.27,259.71 255.57,260.16 255.86,260.64C256.17,261.15 256.48,261.7 256.77,262.28C257.08,262.9 257.38,263.55 257.67,264.23C257.98,264.95 258.29,265.72 258.58,266.5C258.89,267.33 259.19,268.19 259.48,269.08C259.79,270.02 260.08,270.99 260.38,271.98C260.69,273.02 260.99,274.09 261.29,275.18C261.6,276.3 261.89,277.47 262.19,278.6C262.49,279.72 262.8,280.83 263.1,281.93C263.4,283 263.7,284.05 264,285.11C264.3,286.16 264.59,287.24 264.9,288.26C265.2,289.24 265.5,290.22 265.81,291.14C266.1,291.99 266.41,292.76 266.71,293.57C267.01,294.39 267.31,295.24 267.62,296.02C267.91,296.75 268.21,297.45 268.52,298.13C268.81,298.78 269.11,299.42 269.42,300.03C269.71,300.6 270.01,301.17 270.33,301.67C270.62,302.13 270.91,302.58 271.23,302.94C271.51,303.25 271.82,303.54 272.14,303.72C272.43,303.88 272.74,304 273.04,304C273.34,304 273.68,303.9 273.95,303.7C274.3,303.45 274.57,302.95 274.85,302.47C275.18,301.9 275.46,301.18 275.75,300.47C276.07,299.69 276.37,298.85 276.66,297.99C276.97,297.07 277.27,296.09 277.56,295.1C277.87,294.05 278.17,292.96 278.47,291.86C278.78,290.72 279.07,289.54 279.37,288.35C279.67,287.13 279.97,285.89 280.27,284.65C280.57,283.39 280.88,282.1 281.18,280.83C281.48,279.56 281.78,278.27 282.08,277.01C282.38,275.77 282.68,274.53 282.99,273.32C283.29,272.13 283.59,270.96 283.89,269.81C284.19,268.69 284.48,267.59 284.79,266.51C285.09,265.46 285.39,264.44 285.7,263.43C286,262.46 286.29,261.51 286.6,260.58C286.9,259.68 287.2,258.79 287.51,257.93C287.81,257.1 288.1,256.28 288.41,255.48C288.71,254.71 289.01,253.96 289.32,253.23C289.62,252.53 289.91,251.84 290.22,251.18C290.51,250.54 290.81,249.93 291.12,249.33C291.42,248.76 291.72,248.21 292.03,247.68C292.32,247.17 292.63,246.7 292.93,246.22C293.23,245.75 293.54,245.32 293.84,244.85C294.14,244.37 294.44,243.88 294.74,243.39C295.04,242.9 295.34,242.41 295.64,241.93C295.94,241.46 296.25,241.01 296.55,240.56C296.85,240.12 297.15,239.68 297.45,239.25C297.75,238.82 298.06,238.4 298.36,237.98C298.66,237.56 298.96,237.15 299.26,236.73C299.56,236.31 299.86,235.89 300.16,235.47C300.46,235.04 300.77,234.61 301.07,234.17C301.37,233.72 301.67,233.27 301.97,232.81C302.28,232.33 302.58,231.85 302.88,231.34C303.19,230.82 303.49,230.28 303.78,229.72C304.09,229.14 304.39,228.54 304.68,227.92C304.99,227.27 305.3,226.59 305.59,225.89C305.9,225.15 306.2,224.39 306.49,223.6C306.8,222.77 307.1,221.92 307.4,221.04C307.71,220.13 308,219.18 308.3,218.23C308.61,217.24 308.91,216.23 309.21,215.21C309.52,214.16 309.81,213.09 310.11,212.01C310.41,210.91 310.71,209.79 311.01,208.67C311.31,207.52 311.62,206.37 311.92,205.2C312.23,203.99 312.52,202.77 312.82,201.52C313.13,200.22 313.43,198.86 313.73,197.52C314.03,196.16 314.33,194.79 314.63,193.43C314.93,192.08 315.23,190.74 315.53,189.41C315.83,188.11 316.13,186.82 316.44,185.55C316.74,184.32 317.03,183.1 317.34,181.91C317.64,180.76 317.94,179.62 318.25,178.52C318.55,177.47 318.84,176.44 319.15,175.44C319.44,174.49 319.74,173.57 320.05,172.69C320.34,171.86 320.65,171.06 320.96,170.31C321.25,169.61 321.54,168.94 321.86,168.33C322.15,167.77 322.45,167.23 322.77,166.76C323.06,166.34 323.35,165.94 323.67,165.62C323.96,165.34 324.26,165.09 324.58,164.93C324.87,164.79 325.18,164.69 325.48,164.69C325.78,164.69 326.09,164.77 326.38,164.9C326.7,165.05 327,165.29 327.29,165.56C327.61,165.86 327.9,166.25 328.19,166.66C328.51,167.11 328.81,167.62 329.1,168.15C329.42,168.73 329.71,169.37 330,170.02C330.31,170.72 330.61,171.46 330.9,172.22C331.21,173.01 331.51,173.84 331.81,174.68C332.12,175.55 332.41,176.45 332.71,177.36C333.02,178.29 333.32,179.24 333.62,180.2C333.93,181.18 334.22,182.18 334.52,183.18C334.82,184.2 335.12,185.23 335.42,186.27C335.72,187.32 336.03,188.38 336.33,189.44C336.63,190.5 336.93,191.58 337.23,192.64C337.53,193.7 337.84,194.77 338.14,195.82C338.44,196.86 338.73,197.89 339.04,198.9C339.34,199.89 339.64,200.86 339.95,201.81C340.25,202.72 340.54,203.61 340.85,204.47C341.14,205.28 341.44,206.07 341.75,206.82C342.04,207.52 342.35,208.2 342.66,208.83C342.95,209.42 343.25,209.97 343.56,210.49C343.85,210.97 344.16,211.42 344.47,211.84C344.76,212.23 345.06,212.59 345.37,212.92C345.66,213.24 345.96,213.53 346.27,213.8C346.57,214.06 346.87,214.3 347.18,214.53C347.48,214.75 347.77,214.95 348.08,215.13C348.38,215.31 348.68,215.48 348.99,215.62C349.29,215.76 349.59,215.89 349.89,215.99C350.19,216.08 350.49,216.16 350.79,216.2C351.09,216.24 351.4,216.26 351.7,216.25C352,216.24 352.3,216.19 352.6,216.12C352.91,216.05 353.21,215.96 353.51,215.84C353.82,215.72 354.11,215.57 354.41,215.41C354.72,215.24 355.02,215.04 355.32,214.83C355.63,214.61 355.93,214.36 356.22,214.1C356.53,213.83 356.83,213.53 357.12,213.22C357.43,212.89 357.73,212.54 358.03,212.18C358.34,211.8 358.63,211.39 358.93,210.98C359.24,210.55 359.54,210.11 359.84,209.65C360.15,209.18 360.44,208.68 360.74,208.18C361.04,207.66 361.34,207.13 361.64,206.58C361.95,206.01 362.25,205.43 362.55,204.83C362.86,204.21 363.15,203.59 363.45,202.94C363.76,202.27 364.06,201.58 364.36,200.87C364.67,200.13 364.97,199.37 365.26,198.59C365.57,197.77 365.87,196.94 366.16,196.07C366.47,195.16 366.78,194.23 367.07,193.26C367.38,192.24 367.68,191.2 367.97,190.12C368.28,188.99 368.59,187.82 368.88,186.63C369.19,185.38 369.49,184.09 369.78,182.77C370.09,181.4 370.38,179.99 370.68,178.56C370.99,177.09 371.29,175.58 371.59,174.06C371.9,172.5 372.19,170.92 372.49,169.33C372.79,167.72 373.1,166.09 373.4,164.47C373.7,162.84 374,161.19 374.3,159.56C374.6,157.93 374.91,156.3 375.21,154.69C375.51,153.1 375.81,151.51 376.11,149.94C376.41,148.41 376.7,146.88 377.01,145.39C377.31,143.94 377.61,142.51 377.92,141.11C378.22,139.76 378.51,138.43 378.82,137.15C379.11,135.93 379.42,134.74 379.73,133.59C380.02,132.51 380.32,131.46 380.63,130.46C380.92,129.54 381.21,128.64 381.53,127.82C381.82,127.07 382.12,126.35 382.44,125.71C382.72,125.14 383.01,124.6 383.34,124.16C383.62,123.79 383.92,123.43 384.25,123.21C384.53,123.03 384.85,122.88 385.15,122.88C385.45,122.88 385.77,123 386.05,123.18C386.38,123.39 386.68,123.74 386.96,124.12C387.29,124.56 387.58,125.12 387.86,125.71C388.19,126.38 388.48,127.15 388.77,127.95C389.09,128.85 389.38,129.83 389.67,130.86C389.99,131.99 390.29,133.2 390.58,134.46C390.9,135.82 391.19,137.26 391.48,138.75C391.79,140.35 392.09,142.01 392.38,143.73C392.69,145.56 393,147.46 393.29,149.4C393.6,151.45 393.9,153.57 394.19,155.73C394.5,158 394.8,160.33 395.1,162.71C395.41,165.19 395.71,167.72 396,170.3C396.31,172.97 396.6,175.7 396.9,178.46C397.21,181.31 397.51,184.22 397.81,187.16C398.12,190.18 398.41,193.25 398.71,196.34C399.02,199.5 399.32,202.71 399.62,205.94C399.92,209.22 400.22,212.54 400.52,215.87C400.82,219.24 401.12,222.65 401.42,226.05C401.72,229.47 402.03,232.92 402.33,236.35C402.63,239.77 402.93,243.2 403.23,246.59C403.53,249.92 403.83,253.26 404.14,256.51C404.44,259.65 404.73,262.77 405.04,265.78C405.33,268.63 405.63,271.45 405.95,274.11C406.24,276.55 406.52,279 406.85,281.12C407.13,282.89 407.31,284.86 407.75,285.98C408.01,286.64 408.39,287.47 408.66,287.43C409.03,287.37 409.3,285.45 409.56,284.15C409.94,282.29 410.18,279.71 410.47,277.3C410.79,274.63 411.08,271.71 411.37,268.82C411.68,265.79 411.97,262.64 412.27,259.5C412.57,256.29 412.88,253.03 413.18,249.78C413.48,246.52 413.78,243.23 414.08,239.96C414.38,236.71 414.69,233.45 414.99,230.23C415.29,227.04 415.59,223.87 415.89,220.73C416.19,217.65 416.48,214.59 416.79,211.57C417.09,208.62 417.39,205.69 417.7,202.81C418,200.01 418.29,197.25 418.6,194.53C418.9,191.9 419.2,189.3 419.51,186.76C419.81,184.31 420.1,181.89 420.41,179.53C420.71,177.26 421.01,175.02 421.32,172.84C421.62,170.75 421.91,168.69 422.22,166.69C422.51,164.77 422.81,162.9 423.12,161.07C423.42,159.32 423.72,157.6 424.03,155.93C424.32,154.33 424.62,152.78 424.93,151.26C425.22,149.81 425.53,148.4 425.84,147.03C426.13,145.72 426.43,144.44 426.74,143.21C427.03,142.04 427.33,140.9 427.64,139.81C427.93,138.78 428.24,137.79 428.55,136.84C428.84,135.96 429.13,135.11 429.45,134.32C429.74,133.6 430.04,132.91 430.36,132.29C430.65,131.75 430.93,131.22 431.26,130.8C431.54,130.44 431.83,130.09 432.16,129.88C432.44,129.7 432.77,129.57 433.07,129.57C433.37,129.57 433.69,129.69 433.97,129.87C434.3,130.08 434.6,130.43 434.88,130.8C435.21,131.24 435.5,131.79 435.78,132.37C436.1,133.03 436.39,133.77 436.68,134.54C437,135.4 437.3,136.33 437.59,137.29C437.9,138.33 438.2,139.44 438.49,140.57C438.8,141.77 439.1,143.03 439.4,144.31C439.71,145.65 440,147.04 440.3,148.44C440.61,149.88 440.91,151.36 441.21,152.84C441.51,154.34 441.81,155.86 442.11,157.37C442.41,158.87 442.7,160.39 443.01,161.86C443.31,163.29 443.61,164.73 443.92,166.1C444.21,167.4 444.5,168.68 444.82,169.87C445.11,170.95 445.4,172.01 445.73,172.93C446.01,173.71 446.28,174.49 446.63,175.05C446.9,175.48 447.19,175.95 447.53,176.09C447.81,176.2 448.17,176.17 448.44,176.02C448.79,175.84 449.06,175.34 449.34,174.89C449.68,174.33 449.96,173.6 450.25,172.87C450.57,172.04 450.86,171.11 451.15,170.18C451.46,169.18 451.75,168.11 452.05,167.05C452.36,165.95 452.66,164.81 452.96,163.69C453.26,162.56 453.56,161.41 453.86,160.29C454.16,159.18 454.46,158.08 454.77,157C455.07,155.96 455.36,154.92 455.67,153.93C455.96,152.98 456.27,152.05 456.58,151.17C456.87,150.34 457.17,149.53 457.48,148.78C457.77,148.08 458.06,147.41 458.38,146.8C458.67,146.24 458.97,145.71 459.29,145.24C459.58,144.82 459.87,144.43 460.19,144.11C460.48,143.82 460.78,143.58 461.1,143.39Q461.39,143.22 462,143.02" style="vector-effect: non-scaling-stroke; fill: none; stroke: rgb(231, 107, 243); stroke-opacity: 1; stroke-width: 2px; opacity: 1;"/></g><g class="points"/><g class="text"/></g></g></g><g class="overplot"/><path class="xlines-above crisp" d="M0,0" style="fill: none;"/><path class="ylines-above crisp" d="M0,0" style="fill: none;"/><g class="overlines-above"/><g class="xaxislayer-above"><g class="xtick"><text text-anchor="middle" x="0" y="433" transform="translate(80,0)" style="font-family: 'Open Sans', verdana, arial, sans-serif; font-size: 12px; fill: rgb(42, 63, 95); fill-opacity: 1; white-space: pre;">0</text></g><g class="xtick"><text text-anchor="middle" x="0" y="433" transform="translate(170.23000000000002,0)" style="font-family: 'Open Sans', verdana, arial, sans-serif; font-size: 12px; fill: rgb(42, 63, 95); fill-opacity: 1; white-space: pre;">100</text></g><g class="xtick"><text text-anchor="middle" x="0" y="433" transform="translate(260.47,0)" style="font-family: 'Open Sans', verdana, arial, sans-serif; font-size: 12px; fill: rgb(42, 63, 95); fill-opacity: 1; white-space: pre;">200</text></g><g class="xtick"><text text-anchor="middle" x="0" y="433" transform="translate(350.7,0)" style="font-family: 'Open Sans', verdana, arial, sans-serif; font-size: 12px; fill: rgb(42, 63, 95); fill-opacity: 1; white-space: pre;">300</text></g><g class="xtick"><text text-anchor="middle" x="0" y="433" transform="translate(440.94,0)" style="font-family: 'Open Sans', verdana, arial, sans-serif; font-size: 12px; fill: rgb(42, 63, 95); fill-opacity: 1; white-space: pre;">400</text></g><g class="xtick"><text text-anchor="middle" x="0" y="433" transform="translate(531.1700000000001,0)" style="font-family: 'Open Sans', verdana, arial, sans-serif; font-size: 12px; fill: rgb(42, 63, 95); fill-opacity: 1; white-space: pre;">500</text></g></g><g class="yaxislayer-above"><g class="ytick"><text text-anchor="end" x="79" y="4.199999999999999" transform="translate(0,398.43)" style="font-family: 'Open Sans', verdana, arial, sans-serif; font-size: 12px; fill: rgb(42, 63, 95); fill-opacity: 1; white-space: pre;">10</text></g><g class="ytick"><text text-anchor="end" x="79" y="4.199999999999999" transform="translate(0,353.68)" style="font-family: 'Open Sans', verdana, arial, sans-serif; font-size: 12px; fill: rgb(42, 63, 95); fill-opacity: 1; white-space: pre;">20</text></g><g class="ytick"><text text-anchor="end" x="79" y="4.199999999999999" transform="translate(0,308.93)" style="font-family: 'Open Sans', verdana, arial, sans-serif; font-size: 12px; fill: rgb(42, 63, 95); fill-opacity: 1; white-space: pre;">30</text></g><g class="ytick"><text text-anchor="end" x="79" y="4.199999999999999" transform="translate(0,264.19)" style="font-family: 'Open Sans', verdana, arial, sans-serif; font-size: 12px; fill: rgb(42, 63, 95); fill-opacity: 1; white-space: pre;">40</text></g><g class="ytick"><text text-anchor="end" x="79" y="4.199999999999999" transform="translate(0,219.44)" style="font-family: 'Open Sans', verdana, arial, sans-serif; font-size: 12px; fill: rgb(42, 63, 95); fill-opacity: 1; white-space: pre;">50</text></g><g class="ytick"><text text-anchor="end" x="79" y="4.199999999999999" transform="translate(0,174.69)" style="font-family: 'Open Sans', verdana, arial, sans-serif; font-size: 12px; fill: rgb(42, 63, 95); fill-opacity: 1; white-space: pre;">60</text></g><g class="ytick"><text text-anchor="end" x="79" y="4.199999999999999" transform="translate(0,129.94)" style="font-family: 'Open Sans', verdana, arial, sans-serif; font-size: 12px; fill: rgb(42, 63, 95); fill-opacity: 1; white-space: pre;">70</text></g></g><g class="overaxes-above"/></g></g><g class="polarlayer"/><g class="ternarylayer"/><g class="geolayer"/><g class="funnelarealayer"/><g class="pielayer"/><g class="treemaplayer"/><g class="sunburstlayer"/><g class="glimages"/><defs id="topdefs-530882"><g class="clips"/><clipPath id="legend530882"><rect width="137" height="67" x="0" y="0"/></clipPath></defs><g class="layer-above"><g class="imagelayer"/><g class="shapelayer"/></g><g class="infolayer"><g class="legend" pointer-events="all" transform="translate(551.24, 100)"><rect class="bg" shape-rendering="crispEdges" style="stroke: rgb(68, 68, 68); stroke-opacity: 1; fill: rgb(255, 255, 255); fill-opacity: 1; stroke-width: 0px;" width="137" height="67" x="0" y="0"/><g class="scrollbox" transform="translate(0, 0)" clip-path="url('#legend530882')"><g class="groups"><g class="traces" transform="translate(0, 14.5)" style="opacity: 1;"><text class="legendtext" text-anchor="start" x="40" y="4.680000000000001" style="font-family: 'Open Sans', verdana, arial, sans-serif; font-size: 12px; fill: rgb(42, 63, 95); fill-opacity: 1; white-space: pre;">Average Class I</text><g class="layers" style="opacity: 1;"><g class="legendfill"/><g class="legendlines"><path class="js-line" d="M5,0h30" style="fill: none; stroke: rgb(0, 100, 80); stroke-opacity: 1; stroke-width: 2px;"/></g><g class="legendsymbols"><g class="legendpoints"/></g></g><rect class="legendtoggle" x="0" y="-9.5" width="131.15625" height="19" style="fill: rgb(0, 0, 0); fill-opacity: 0;"/></g><g class="traces" transform="translate(0, 33.5)" style="opacity: 1;"><text class="legendtext" text-anchor="start" x="40" y="4.680000000000001" style="font-family: 'Open Sans', verdana, arial, sans-serif; font-size: 12px; fill: rgb(42, 63, 95); fill-opacity: 1; white-space: pre;">Average Class II</text><g class="layers" style="opacity: 1;"><g class="legendfill"/><g class="legendlines"><path class="js-line" d="M5,0h30" style="fill: none; stroke: rgb(0, 176, 246); stroke-opacity: 1; stroke-width: 2px;"/></g><g class="legendsymbols"><g class="legendpoints"/></g></g><rect class="legendtoggle" x="0" y="-9.5" width="131.15625" height="19" style="fill: rgb(0, 0, 0); fill-opacity: 0;"/></g><g class="traces" transform="translate(0, 52.5)" style="opacity: 1;"><text class="legendtext" text-anchor="start" x="40" y="4.680000000000001" style="font-family: 'Open Sans', verdana, arial, sans-serif; font-size: 12px; fill: rgb(42, 63, 95); fill-opacity: 1; white-space: pre;">Average Class III</text><g class="layers" style="opacity: 1;"><g class="legendfill"/><g class="legendlines"><path class="js-line" d="M5,0h30" style="fill: none; stroke: rgb(231, 107, 243); stroke-opacity: 1; stroke-width: 2px;"/></g><g class="legendsymbols"><g class="legendpoints"/></g></g><rect class="legendtoggle" x="0" y="-9.5" width="131.15625" height="19" style="fill: rgb(0, 0, 0); fill-opacity: 0;"/></g></g></g><rect class="scrollbar" rx="20" ry="3" width="0" height="0" style="fill: rgb(128, 139, 164); fill-opacity: 1;" x="0" y="0"/></g><g class="g-gtitle"><text class="gtitle" x="35" y="50" text-anchor="start" dy="0em" style="font-family: 'Open Sans', verdana, arial, sans-serif; font-size: 17px; fill: rgb(42, 63, 95); opacity: 1; font-weight: normal; white-space: pre;">Average curve: alpha-structure_group</text></g><g class="g-xtitle"><text class="xtitle" x="311" y="460.8" text-anchor="middle" style="font-family: 'Open Sans', verdana, arial, sans-serif; font-size: 14px; fill: rgb(42, 63, 95); opacity: 1; font-weight: normal; white-space: pre;">Domain</text></g><g class="g-ytitle"><text class="ytitle" transform="rotate(-90,40.840625,260)" x="40.840625" y="260" text-anchor="middle" style="font-family: 'Open Sans', verdana, arial, sans-serif; font-size: 14px; fill: rgb(42, 63, 95); opacity: 1; font-weight: normal; white-space: pre;">Frequency</text></g></g></svg>