<svg class="main-svg" xmlns="http://www.w3.org/2000/svg" xmlns:xlink="http://www.w3.org/1999/xlink" width="700" height="500" style="" viewBox="0 0 700 500"><rect x="0" y="0" width="700" height="500" style="fill: rgb(255, 255, 255); fill-opacity: 1;"/><defs id="defs-5476a8"><g class="clips"><clipPath id="clip5476a8xyplot" class="plotclip"><rect width="462" height="320"/></clipPath><clipPath class="axesclip" id="clip5476a8x"><rect x="80" y="0" width="462" height="500"/></clipPath><clipPath class="axesclip" id="clip5476a8y"><rect x="0" y="100" width="700" height="320"/></clipPath><clipPath class="axesclip" id="clip5476a8xy"><rect x="80" y="100" width="462" height="320"/></clipPath></g><g class="gradients"/></defs><g class="bglayer"><rect class="bg" x="80" y="100" width="462" height="320" style="fill: rgb(229, 236, 246); fill-opacity: 1; stroke-width: 0;"/></g><g class="layer-below"><g class="imagelayer"/><g class="shapelayer"/></g><g class="cartesianlayer"><g class="subplot xy"><g class="layer-subplot"><g class="shapelayer"/><g class="imagelayer"/></g><g class="gridlayer"><g class="x"><path class="xgrid crisp" transform="translate(170.23000000000002,0)" d="M0,100v320" style="stroke: rgb(255, 255, 255); stroke-opacity: 1; stroke-width: 1px;"/><path class="xgrid crisp" transform="translate(260.47,0)" d="M0,100v320" style="stroke: rgb(255, 255, 255); stroke-opacity: 1; stroke-width: 1px;"/><path class="xgrid crisp" transform="translate(350.7,0)" d="M0,100v320" style="stroke: rgb(255, 255, 255); stroke-opacity: 1; stroke-width: 1px;"/><path class="xgrid crisp" transform="translate(440.94,0)" d="M0,100v320" style="stroke: rgb(255, 255, 255); stroke-opacity: 1; stroke-width: 1px;"/><path class="xgrid crisp" transform="translate(531.1700000000001,0)" d="M0,100v320" style="stroke: rgb(255, 255, 255); stroke-opacity: 1; stroke-width: 1px;"/></g><g class="y"><path class="ygrid crisp" transform="translate(0,399.05)" d="M80,0h462" style="stroke: rgb(255, 255, 255); stroke-opacity: 1; stroke-width: 1px;"/><path class="ygrid crisp" transform="translate(0,354.21000000000004)" d="M80,0h462" style="stroke: rgb(255, 255, 255); stroke-opacity: 1; stroke-width: 1px;"/><path class="ygrid crisp" transform="translate(0,309.36)" d="M80,0h462" style="stroke: rgb(255, 255, 255); stroke-opacity: 1; stroke-width: 1px;"/><path class="ygrid crisp" transform="translate(0,264.51)" d="M80,0h462" style="stroke: rgb(255, 255, 255); stroke-opacity: 1; stroke-width: 1px;"/><path class="ygrid crisp" transform="translate(0,219.67000000000002)" d="M80,0h462" style="stroke: rgb(255, 255, 255); stroke-opacity: 1; stroke-width: 1px;"/><path class="ygrid crisp" transform="translate(0,174.82)" d="M80,0h462" style="stroke: rgb(255, 255, 255); stroke-opacity: 1; stroke-width: 1px;"/><path class="ygrid crisp" transform="translate(0,129.98)" d="M80,0h462" style="stroke: rgb(255, 255, 255); stroke-opacity: 1; stroke-width: 1px;"/></g></g><g class="zerolinelayer"><path class="xzl zl crisp" transform="translate(80,0)" d="M0,100v320" style="stroke: rgb(255, 255, 255); stroke-opacity: 1; stroke-width: 2px;"/></g><path class="xlines-below"/><path class="ylines-below"/><g class="overlines-below"/><g class="xaxislayer-below"/><g class="yaxislayer-below"/><g class="overaxes-below"/><g class="plot" transform="translate(80, 100)" clip-path="url('#clip5476a8xyplot')"><g class="scatterlayer mlayer"><g class="trace scatter trace0cf809" style="stroke-miterlimit: 2; opacity: 1;"><g class="fills"/><g class="errorbars"/><g class="lines"><path class="js-line" d="M0,16Q0.6,16.04 0.9,16.1C1.21,16.17 1.51,16.26 1.81,16.39C2.12,16.52 2.42,16.69 2.71,16.88C3.02,17.08 3.33,17.32 3.62,17.58C3.93,17.86 4.23,18.17 4.52,18.51C4.83,18.87 5.13,19.27 5.42,19.69C5.73,20.14 6.04,20.62 6.33,21.13C6.64,21.68 6.94,22.26 7.23,22.87C7.54,23.52 7.85,24.2 8.14,24.91C8.45,25.67 8.75,26.47 9.04,27.3C9.35,28.18 9.66,29.11 9.95,30.06C10.26,31.07 10.56,32.13 10.85,33.21C11.16,34.36 11.46,35.55 11.75,36.77C12.06,38.06 12.37,39.4 12.66,40.77C12.97,42.21 13.27,43.7 13.56,45.23C13.87,46.83 14.17,48.48 14.47,50.17C14.78,51.93 15.08,53.74 15.37,55.59C15.68,57.52 15.97,59.5 16.27,61.51C16.58,63.61 16.88,65.75 17.18,67.93C17.49,70.19 17.78,72.5 18.08,74.85C18.39,77.28 18.69,79.76 18.99,82.27C19.3,84.86 19.59,87.5 19.89,90.18C20.19,92.93 20.49,95.73 20.79,98.56C21.1,101.46 21.4,104.41 21.7,107.39C22.01,110.44 22.3,113.53 22.6,116.65C22.9,119.83 23.21,123.05 23.51,126.29C23.81,129.59 24.11,132.93 24.41,136.28C24.71,139.68 25.02,143.12 25.32,146.56C25.62,150.03 25.92,153.53 26.22,157.02C26.52,160.52 26.82,164.04 27.12,167.53C27.42,171 27.73,174.45 28.03,177.9C28.33,181.34 28.63,184.75 28.93,188.19C29.23,191.64 29.54,195.1 29.84,198.58C30.14,202.09 30.44,205.61 30.74,209.14C31.04,212.7 31.34,216.28 31.64,219.86C31.94,223.45 32.25,227.06 32.55,230.66C32.85,234.25 33.15,237.86 33.45,241.43C33.75,244.96 34.05,248.5 34.36,251.97C34.66,255.37 34.95,258.76 35.26,262.04C35.55,265.18 35.84,268.33 36.16,271.27C36.45,273.95 36.75,276.57 37.07,278.97C37.35,281.09 37.62,283.22 37.97,284.93C38.24,286.25 38.38,288.01 38.88,288.4C39.13,288.6 39.53,288.59 39.78,288.41C40.22,288.1 40.41,286.83 40.68,285.82C41.04,284.46 41.3,282.65 41.59,280.92C41.91,278.98 42.19,276.83 42.49,274.72C42.8,272.52 43.1,270.24 43.4,267.97C43.7,265.67 44,263.34 44.3,261.03C44.6,258.73 44.91,256.42 45.21,254.15C45.51,251.92 45.81,249.7 46.11,247.53C46.41,245.42 46.7,243.34 47.01,241.31C47.31,239.37 47.61,237.46 47.92,235.62C48.21,233.89 48.51,232.19 48.82,230.57C49.11,229.06 49.41,227.6 49.73,226.22C50.02,224.96 50.31,223.74 50.63,222.62C50.91,221.62 51.2,220.67 51.53,219.82C51.81,219.09 52.1,218.39 52.44,217.83C52.72,217.37 53,216.92 53.34,216.66C53.62,216.45 53.95,216.28 54.25,216.29C54.55,216.3 54.87,216.5 55.15,216.72C55.49,216.99 55.77,217.44 56.05,217.9C56.38,218.44 56.68,219.1 56.96,219.79C57.28,220.57 57.57,221.45 57.86,222.35C58.18,223.35 58.48,224.42 58.77,225.52C59.08,226.71 59.38,227.97 59.67,229.25C59.98,230.61 60.28,232.02 60.58,233.45C60.89,234.95 61.18,236.49 61.48,238.05C61.78,239.65 62.08,241.28 62.38,242.92C62.68,244.58 62.99,246.26 63.29,247.93C63.59,249.59 63.88,251.27 64.19,252.9C64.49,254.49 64.79,256.08 65.1,257.62C65.4,259.1 65.69,260.56 66,261.95C66.29,263.26 66.58,264.56 66.9,265.75C67.19,266.82 67.48,267.87 67.81,268.78C68.09,269.55 68.36,270.29 68.71,270.86C68.98,271.31 69.28,271.75 69.62,271.97C69.9,272.15 70.23,272.26 70.52,272.22C70.83,272.18 71.14,271.94 71.42,271.7C71.75,271.42 72.04,270.99 72.33,270.58C72.65,270.12 72.94,269.59 73.23,269.07C73.54,268.52 73.84,267.93 74.14,267.35C74.44,266.76 74.74,266.16 75.04,265.57C75.34,264.98 75.64,264.37 75.95,263.79C76.25,263.22 76.54,262.64 76.85,262.12C77.14,261.64 77.43,261.17 77.75,260.78C78.04,260.44 78.34,260.11 78.66,259.89C78.94,259.7 79.25,259.53 79.56,259.49C79.86,259.45 80.18,259.51 80.47,259.64C80.79,259.78 81.09,260.05 81.37,260.34C81.7,260.68 81.99,261.14 82.27,261.61C82.59,262.15 82.89,262.77 83.18,263.41C83.5,264.12 83.79,264.89 84.08,265.68C84.39,266.53 84.69,267.44 84.99,268.33C85.29,269.22 85.59,270.14 85.89,271.02C86.19,271.88 86.49,272.71 86.79,273.55C87.09,274.37 87.39,275.2 87.7,276C88,276.77 88.28,277.54 88.6,278.24C88.89,278.88 89.18,279.53 89.51,280.05C89.79,280.49 90.07,280.97 90.41,281.18C90.69,281.35 91.04,281.44 91.32,281.35C91.65,281.24 91.95,280.8 92.22,280.38C92.58,279.82 92.84,279.01 93.12,278.19C93.46,277.21 93.74,276.05 94.03,274.87C94.35,273.54 94.64,272.08 94.93,270.6C95.24,268.99 95.55,267.29 95.84,265.56C96.15,263.73 96.44,261.83 96.74,259.92C97.05,257.94 97.34,255.91 97.64,253.87C97.94,251.8 98.25,249.69 98.55,247.59C98.85,245.48 99.15,243.35 99.45,241.24C99.75,239.14 100.06,237.05 100.36,234.97C100.66,232.92 100.96,230.88 101.26,228.86C101.56,226.88 101.85,224.92 102.16,222.99C102.46,221.11 102.76,219.24 103.07,217.41C103.37,215.64 103.66,213.9 103.97,212.2C104.27,210.56 104.57,208.96 104.88,207.39C105.18,205.87 105.48,204.41 105.78,202.91C106.08,201.4 106.38,199.9 106.68,198.38C106.98,196.85 107.28,195.26 107.59,193.75C107.89,192.3 108.18,190.85 108.49,189.48C108.78,188.2 109.08,186.95 109.4,185.78C109.69,184.71 109.98,183.68 110.3,182.73C110.59,181.89 110.88,181.08 111.21,180.37C111.49,179.76 111.78,179.18 112.11,178.72C112.39,178.34 112.68,177.97 113.01,177.78C113.29,177.62 113.62,177.52 113.92,177.55C114.23,177.59 114.54,177.79 114.82,178.02C115.15,178.29 115.45,178.71 115.73,179.14C116.06,179.64 116.35,180.26 116.63,180.89C116.95,181.6 117.24,182.39 117.53,183.21C117.85,184.1 118.15,185.06 118.44,186.04C118.75,187.08 119.05,188.17 119.34,189.28C119.65,190.44 119.95,191.65 120.25,192.86C120.56,194.11 120.85,195.38 121.15,196.66C121.45,197.95 121.75,199.27 122.05,200.57C122.35,201.87 122.66,203.17 122.96,204.45C123.26,205.7 123.55,206.95 123.86,208.16C124.16,209.32 124.46,210.47 124.77,211.56C125.06,212.58 125.35,213.59 125.67,214.51C125.96,215.35 126.26,216.16 126.58,216.88C126.86,217.51 127.15,218.12 127.48,218.62C127.76,219.05 128.05,219.45 128.38,219.73C128.66,219.97 128.98,220.18 129.29,220.27C129.58,220.35 129.89,220.35 130.19,220.3C130.5,220.25 130.81,220.11 131.1,219.95C131.41,219.78 131.71,219.54 132,219.3C132.31,219.05 132.6,218.76 132.9,218.47C133.21,218.18 133.51,217.86 133.81,217.56C134.11,217.26 134.4,216.95 134.71,216.67C135.01,216.4 135.31,216.13 135.62,215.9C135.91,215.69 136.21,215.47 136.52,215.34C136.81,215.21 137.12,215.11 137.42,215.1C137.72,215.09 138.04,215.14 138.33,215.26C138.65,215.39 138.95,215.61 139.23,215.88C139.56,216.19 139.86,216.61 140.14,217.05C140.47,217.56 140.76,218.16 141.04,218.8C141.36,219.52 141.66,220.33 141.95,221.17C142.27,222.1 142.56,223.11 142.85,224.15C143.16,225.29 143.46,226.5 143.75,227.74C144.06,229.07 144.37,230.46 144.66,231.88C144.97,233.38 145.26,234.94 145.56,236.53C145.87,238.19 146.17,239.9 146.47,241.63C146.78,243.42 147.07,245.26 147.37,247.09C147.67,248.94 147.96,250.86 148.27,252.68C148.57,254.43 148.87,256.14 149.18,257.81C149.47,259.4 149.77,260.96 150.08,262.47C150.37,263.9 150.66,265.34 150.99,266.62C151.27,267.73 151.54,268.86 151.89,269.72C152.16,270.38 152.41,271.12 152.79,271.38C153.05,271.56 153.43,271.62 153.7,271.49C154.07,271.32 154.33,270.63 154.6,270.05C154.95,269.3 155.23,268.3 155.51,267.3C155.84,266.13 156.12,264.8 156.41,263.45C156.73,261.95 157.03,260.33 157.32,258.69C157.63,256.93 157.93,255.09 158.22,253.23C158.53,251.29 158.82,249.29 159.12,247.29C159.43,245.24 159.73,243.14 160.03,241.05C160.33,238.93 160.63,236.79 160.93,234.66C161.23,232.52 161.54,230.37 161.84,228.23C162.14,226.11 162.44,223.97 162.74,221.88C163.04,219.83 163.33,217.78 163.64,215.78C163.94,213.85 164.24,211.95 164.55,210.11C164.84,208.36 165.14,206.64 165.45,205.01C165.74,203.49 166.04,202.01 166.36,200.62C166.65,199.35 166.94,198.12 167.26,197C167.54,196.01 167.83,195.05 168.16,194.22C168.44,193.51 168.73,192.83 169.07,192.31C169.34,191.9 169.63,191.48 169.97,191.3C170.25,191.15 170.6,191.1 170.88,191.18C171.2,191.28 171.51,191.61 171.78,191.95C172.12,192.37 172.4,192.97 172.68,193.58C173.01,194.31 173.3,195.16 173.59,196.05C173.91,197.06 174.2,198.16 174.49,199.31C174.81,200.57 175.11,201.92 175.4,203.31C175.71,204.81 176.01,206.39 176.3,208.01C176.61,209.73 176.92,211.52 177.21,213.34C177.52,215.26 177.82,217.24 178.11,219.25C178.42,221.34 178.71,223.49 179.01,225.66C179.32,227.9 179.62,230.2 179.92,232.5C180.22,234.84 180.52,237.24 180.82,239.6C181.12,241.95 181.43,244.29 181.73,246.63C182.03,248.97 182.33,251.29 182.63,253.63C182.93,255.98 183.23,258.33 183.53,260.68C183.83,263.02 184.14,265.38 184.44,267.69C184.74,269.95 185.03,272.24 185.34,274.41C185.63,276.44 185.89,278.67 186.25,280.32C186.52,281.54 186.67,283.09 187.15,283.45C187.4,283.64 187.78,283.6 188.05,283.46C188.42,283.26 188.68,282.58 188.96,282.03C189.3,281.36 189.58,280.55 189.86,279.68C190.19,278.64 190.49,277.46 190.77,276.21C191.1,274.75 191.38,273.08 191.67,271.44C191.98,269.7 192.28,267.86 192.58,266.06C192.88,264.25 193.18,262.42 193.48,260.63C193.78,258.88 194.08,257.18 194.38,255.44C194.68,253.69 194.99,251.93 195.29,250.18C195.59,248.45 195.88,246.68 196.19,245.01C196.48,243.42 196.79,241.87 197.1,240.38C197.39,238.99 197.69,237.63 198,236.34C198.29,235.14 198.58,233.98 198.9,232.88C199.19,231.87 199.49,230.9 199.81,230C200.1,229.18 200.39,228.4 200.71,227.69C201,227.05 201.3,226.44 201.62,225.9C201.91,225.42 202.2,224.98 202.52,224.61C202.8,224.28 203.1,223.98 203.42,223.75C203.71,223.54 204.02,223.37 204.33,223.25C204.62,223.14 204.93,223.07 205.23,223.04C205.53,223.01 205.84,223.02 206.14,223.05C206.44,223.08 206.74,223.14 207.04,223.21C207.34,223.28 207.65,223.38 207.95,223.48C208.25,223.59 208.55,223.7 208.85,223.84C209.15,223.98 209.45,224.14 209.75,224.31C210.06,224.49 210.36,224.69 210.66,224.91C210.97,225.13 211.26,225.38 211.56,225.63C211.87,225.89 212.17,226.18 212.47,226.46C212.77,226.74 213.07,227.04 213.37,227.32C213.67,227.6 213.96,227.9 214.27,228.15C214.57,228.39 214.87,228.63 215.18,228.82C215.47,229 215.77,229.15 216.08,229.28C216.38,229.4 216.68,229.5 216.99,229.57C217.29,229.63 217.59,229.68 217.89,229.67C218.19,229.66 218.5,229.64 218.79,229.52C219.11,229.39 219.42,229.17 219.7,228.88C220.04,228.54 220.31,228.02 220.6,227.53C220.92,226.98 221.21,226.36 221.51,225.74C221.82,225.09 222.11,224.41 222.41,223.73C222.72,223.03 223.02,222.32 223.32,221.6C223.62,220.87 223.92,220.12 224.22,219.38C224.52,218.63 224.82,217.87 225.12,217.11C225.42,216.36 225.72,215.59 226.03,214.85C226.33,214.13 226.62,213.41 226.93,212.72C227.23,212.07 227.53,211.42 227.84,210.82C228.13,210.26 228.42,209.71 228.74,209.22C229.03,208.78 229.32,208.35 229.64,208C229.93,207.69 230.23,207.39 230.55,207.19C230.84,207.01 231.14,206.86 231.45,206.8C231.75,206.75 232.07,206.76 232.36,206.84C232.67,206.92 232.97,207.11 233.26,207.31C233.58,207.54 233.87,207.84 234.16,208.16C234.48,208.51 234.78,208.92 235.07,209.35C235.38,209.81 235.68,210.32 235.97,210.85C236.28,211.42 236.59,212.03 236.88,212.66C237.19,213.33 237.49,214.05 237.78,214.78C238.09,215.55 238.39,216.36 238.68,217.19C238.99,218.06 239.29,218.95 239.59,219.86C239.9,220.8 240.19,221.77 240.49,222.74C240.8,223.74 241.1,224.75 241.4,225.77C241.7,226.8 242,227.85 242.3,228.88C242.6,229.91 242.9,230.97 243.21,231.97C243.51,232.93 243.8,233.9 244.11,234.79C244.4,235.61 244.7,236.38 245.01,237.13C245.3,237.84 245.61,238.51 245.92,239.17C246.21,239.79 246.51,240.4 246.82,240.98C247.12,241.54 247.42,242.08 247.73,242.59C248.02,243.08 248.32,243.54 248.63,243.99C248.92,244.42 249.22,244.82 249.53,245.21C249.83,245.58 250.13,245.92 250.44,246.26C250.74,246.59 251.03,246.9 251.34,247.2C251.64,247.49 251.95,247.77 252.25,248.05C252.55,248.33 252.85,248.6 253.15,248.88C253.45,249.16 253.75,249.43 254.05,249.72C254.35,250.01 254.66,250.31 254.96,250.62C255.27,250.94 255.56,251.27 255.86,251.61C256.17,251.96 256.47,252.33 256.77,252.71C257.08,253.11 257.37,253.53 257.67,253.96C257.98,254.41 258.28,254.87 258.58,255.34C258.89,255.83 259.18,256.35 259.48,256.85C259.78,257.35 260.06,257.91 260.38,258.36C260.67,258.77 260.99,259.08 261.29,259.45C261.59,259.83 261.89,260.21 262.19,260.6C262.5,261 262.8,261.41 263.1,261.83C263.41,262.27 263.71,262.72 264,263.19C264.31,263.68 264.6,264.18 264.9,264.7C265.21,265.24 265.51,265.81 265.81,266.39C266.12,267 266.41,267.64 266.71,268.29C267.02,268.97 267.32,269.67 267.62,270.39C267.93,271.13 268.22,271.9 268.52,272.68C268.82,273.48 269.12,274.29 269.42,275.11C269.73,275.95 270.03,276.81 270.33,277.67C270.63,278.55 270.92,279.46 271.23,280.33C271.53,281.19 271.83,282.03 272.14,282.86C272.44,283.66 272.73,284.44 273.04,285.21C273.34,285.95 273.64,286.7 273.95,287.4C274.24,288.06 274.54,288.71 274.85,289.3C275.14,289.84 275.42,290.41 275.75,290.83C276.03,291.19 276.33,291.6 276.66,291.71C276.94,291.8 277.28,291.72 277.56,291.58C277.89,291.42 278.2,291.08 278.47,290.71C278.82,290.23 279.08,289.52 279.37,288.86C279.69,288.13 279.97,287.32 280.27,286.52C280.58,285.69 280.88,284.85 281.18,283.98C281.49,283.08 281.78,282.17 282.08,281.23C282.39,280.25 282.69,279.24 282.99,278.23C283.29,277.22 283.59,276.19 283.89,275.17C284.19,274.14 284.49,273.1 284.79,272.08C285.09,271.07 285.39,270.06 285.7,269.07C286,268.11 286.29,267.16 286.6,266.24C286.9,265.36 287.2,264.49 287.51,263.65C287.8,262.85 288.1,262.08 288.41,261.33C288.71,260.61 289.01,259.92 289.32,259.23C289.62,258.56 289.92,257.93 290.22,257.27C290.52,256.59 290.83,255.92 291.12,255.21C291.43,254.46 291.73,253.65 292.03,252.86C292.33,252.06 292.62,251.22 292.93,250.43C293.23,249.67 293.53,248.91 293.84,248.2C294.13,247.54 294.43,246.89 294.74,246.3C295.03,245.75 295.32,245.22 295.64,244.75C295.93,244.32 296.23,243.91 296.55,243.56C296.84,243.24 297.14,242.94 297.45,242.7C297.74,242.48 298.05,242.29 298.36,242.15C298.65,242.01 298.96,241.92 299.26,241.85C299.56,241.78 299.86,241.76 300.16,241.74C300.46,241.72 300.77,241.74 301.07,241.75C301.37,241.76 301.67,241.78 301.97,241.78C302.27,241.78 302.58,241.79 302.88,241.75C303.18,241.71 303.49,241.65 303.78,241.55C304.09,241.44 304.39,241.29 304.68,241.1C305,240.89 305.3,240.62 305.59,240.31C305.91,239.96 306.2,239.54 306.49,239.09C306.81,238.58 307.11,238.01 307.4,237.4C307.72,236.72 308.01,235.97 308.3,235.19C308.62,234.33 308.92,233.4 309.21,232.44C309.53,231.39 309.82,230.28 310.11,229.14C310.42,227.92 310.72,226.65 311.01,225.34C311.32,223.96 311.62,222.52 311.92,221.06C312.23,219.53 312.52,217.96 312.82,216.36C313.13,214.71 313.43,213.02 313.73,211.31C314.04,209.56 314.33,207.77 314.63,205.98C314.93,204.16 315.23,202.31 315.53,200.46C315.83,198.59 316.14,196.7 316.44,194.82C316.74,192.93 317.04,191.03 317.34,189.14C317.64,187.26 317.95,185.37 318.25,183.5C318.55,181.65 318.85,179.81 319.15,177.99C319.45,176.2 319.74,174.42 320.05,172.67C320.35,170.96 320.65,169.27 320.96,167.61C321.26,166.01 321.55,164.42 321.86,162.88C322.16,161.4 322.46,159.93 322.77,158.52C323.06,157.18 323.36,155.86 323.67,154.6C323.96,153.41 324.27,152.25 324.58,151.15C324.87,150.13 325.17,149.14 325.48,148.22C325.77,147.38 326.06,146.56 326.38,145.82C326.67,145.16 326.96,144.54 327.29,144C327.57,143.53 327.86,143.09 328.19,142.76C328.47,142.48 328.78,142.22 329.1,142.11C329.39,142.01 329.71,141.99 330,142.06C330.31,142.14 330.62,142.36 330.9,142.61C331.23,142.9 331.53,143.31 331.81,143.74C332.14,144.24 332.42,144.83 332.71,145.44C333.03,146.12 333.33,146.88 333.62,147.66C333.94,148.51 334.23,149.42 334.52,150.36C334.83,151.36 335.12,152.41 335.42,153.48C335.73,154.59 336.03,155.74 336.33,156.9C336.64,158.09 336.93,159.31 337.23,160.53C337.53,161.77 337.84,163.02 338.14,164.29C338.44,165.58 338.74,166.88 339.04,168.2C339.35,169.56 339.65,170.93 339.95,172.33C340.26,173.77 340.55,175.23 340.85,176.71C341.15,178.23 341.45,179.77 341.75,181.32C342.05,182.9 342.36,184.51 342.66,186.11C342.96,187.73 343.26,189.36 343.56,190.99C343.86,192.61 344.17,194.25 344.47,195.86C344.77,197.46 345.07,199.05 345.37,200.63C345.67,202.19 345.97,203.74 346.27,205.27C346.57,206.78 346.88,208.29 347.18,209.77C347.48,211.23 347.77,212.67 348.08,214.09C348.38,215.47 348.68,216.84 348.99,218.17C349.29,219.45 349.58,220.72 349.89,221.94C350.18,223.1 350.48,224.24 350.79,225.32C351.08,226.33 351.38,227.31 351.7,228.22C351.99,229.04 352.27,229.84 352.6,230.53C352.88,231.13 353.17,231.72 353.51,232.15C353.79,232.5 354.08,232.86 354.41,232.98C354.69,233.08 355.04,233.07 355.32,232.94C355.65,232.79 355.95,232.4 356.22,232.01C356.56,231.52 356.84,230.85 357.12,230.17C357.45,229.37 357.74,228.44 358.03,227.48C358.35,226.41 358.64,225.24 358.93,224.05C359.24,222.77 359.55,221.42 359.84,220.05C360.15,218.61 360.45,217.11 360.74,215.6C361.05,214.03 361.34,212.42 361.64,210.8C361.95,209.14 362.25,207.45 362.55,205.75C362.85,204.03 363.15,202.29 363.45,200.54C363.75,198.78 364.06,197 364.36,195.22C364.66,193.44 364.96,191.66 365.26,189.88C365.56,188.1 365.86,186.33 366.16,184.56C366.46,182.8 366.77,181.04 367.07,179.3C367.37,177.58 367.67,175.86 367.97,174.16C368.27,172.48 368.58,170.81 368.88,169.16C369.18,167.54 369.48,165.92 369.78,164.33C370.08,162.77 370.37,161.22 370.68,159.69C370.98,158.2 371.28,156.72 371.59,155.26C371.89,153.84 372.18,152.44 372.49,151.07C372.79,149.74 373.09,148.42 373.4,147.13C373.7,145.88 373.99,144.65 374.3,143.44C374.6,142.28 374.9,141.13 375.21,140.02C375.51,138.95 375.8,137.9 376.11,136.88C376.4,135.9 376.7,134.95 377.01,134.03C377.3,133.15 377.61,132.3 377.92,131.47C378.21,130.69 378.51,129.93 378.82,129.2C379.11,128.52 379.42,127.85 379.73,127.23C380.02,126.65 380.32,126.09 380.63,125.57C380.92,125.09 381.21,124.63 381.53,124.22C381.82,123.85 382.12,123.5 382.44,123.22C382.73,122.97 383.03,122.73 383.34,122.59C383.63,122.46 383.95,122.37 384.25,122.37C384.55,122.37 384.86,122.45 385.15,122.58C385.47,122.73 385.77,122.98 386.05,123.25C386.37,123.56 386.67,123.96 386.96,124.39C387.28,124.87 387.57,125.44 387.86,126.03C388.18,126.7 388.48,127.44 388.77,128.21C389.09,129.07 389.38,129.99 389.67,130.96C389.99,132.02 390.29,133.15 390.58,134.33C390.9,135.61 391.19,136.95 391.48,138.34C391.79,139.84 392.09,141.42 392.38,143.04C392.69,144.77 393,146.58 393.29,148.43C393.6,150.4 393.9,152.44 394.19,154.53C394.5,156.74 394.81,159.03 395.1,161.36C395.41,163.81 395.71,166.32 396,168.89C396.31,171.57 396.6,174.32 396.9,177.11C397.21,180.01 397.51,182.97 397.81,185.98C398.12,189.09 398.41,192.26 398.71,195.46C399.02,198.75 399.32,202.1 399.62,205.47C399.93,208.92 400.22,212.42 400.52,215.94C400.82,219.52 401.12,223.13 401.42,226.76C401.72,230.42 402.03,234.12 402.33,237.81C402.63,241.51 402.93,245.23 403.23,248.91C403.53,252.54 403.83,256.22 404.14,259.74C404.43,263.08 404.72,266.41 405.04,269.52C405.33,272.36 405.63,275.14 405.95,277.68C406.23,279.92 406.48,282.25 406.85,283.97C407.11,285.2 407.42,287.06 407.75,287.08C408.03,287.1 408.41,285.92 408.66,284.99C409.12,283.3 409.28,280.31 409.56,277.6C409.9,274.28 410.18,270.37 410.47,266.52C410.79,262.34 411.07,257.85 411.37,253.42C411.67,248.87 411.97,244.21 412.27,239.59C412.57,234.94 412.88,230.26 413.18,225.61C413.48,220.99 413.78,216.36 414.08,211.78C414.38,207.26 414.69,202.76 414.99,198.31C415.29,193.95 415.59,189.62 415.89,185.35C416.19,181.19 416.48,177.07 416.79,173.03C417.09,169.11 417.39,165.24 417.7,161.45C418,157.8 418.29,154.22 418.6,150.72C418.9,147.37 419.2,144.08 419.51,140.9C419.8,137.88 420.1,134.93 420.41,132.08C420.7,129.4 421.01,126.79 421.32,124.3C421.61,121.99 421.91,119.74 422.22,117.62C422.51,115.68 422.8,113.81 423.12,112.06C423.41,110.5 423.71,109 424.03,107.63C424.31,106.43 424.6,105.29 424.93,104.28C425.21,103.41 425.51,102.6 425.84,101.91C426.12,101.33 426.41,100.8 426.74,100.37C427.02,100 427.35,99.78 427.64,99.44C427.95,99.08 428.26,98.69 428.55,98.27C428.86,97.83 429.11,97.22 429.45,96.85C429.73,96.55 430.04,96.2 430.36,96.15C430.65,96.1 430.99,96.26 431.26,96.47C431.61,96.75 431.89,97.32 432.16,97.87C432.5,98.56 432.79,99.44 433.07,100.35C433.4,101.42 433.68,102.64 433.97,103.91C434.29,105.34 434.59,106.89 434.88,108.5C435.2,110.26 435.49,112.14 435.78,114.07C436.09,116.15 436.39,118.33 436.68,120.56C436.99,122.92 437.29,125.37 437.59,127.86C437.9,130.47 438.19,133.15 438.49,135.87C438.8,138.68 439.1,141.56 439.4,144.45C439.7,147.4 440,150.41 440.3,153.41C440.6,156.44 440.91,159.52 441.21,162.56C441.51,165.58 441.81,168.62 442.11,171.6C442.41,174.51 442.7,177.42 443.01,180.22C443.3,182.89 443.6,185.54 443.92,188.04C444.21,190.34 444.5,192.6 444.82,194.65C445.1,196.44 445.39,198.2 445.73,199.68C446,200.87 446.24,202.08 446.63,202.86C446.89,203.38 447.21,204.01 447.53,204.04C447.82,204.07 448.18,203.64 448.44,203.26C448.83,202.69 449.06,201.68 449.34,200.73C449.68,199.57 449.96,198.18 450.25,196.79C450.57,195.23 450.86,193.53 451.15,191.82C451.46,190.01 451.75,188.1 452.05,186.2C452.36,184.25 452.66,182.24 452.96,180.25C453.26,178.26 453.56,176.25 453.86,174.28C454.16,172.34 454.46,170.4 454.77,168.51C455.07,166.69 455.36,164.88 455.67,163.14C455.96,161.49 456.27,159.87 456.58,158.33C456.87,156.9 457.16,155.51 457.48,154.2C457.77,153.01 458.06,151.86 458.38,150.81C458.67,149.88 458.96,148.99 459.29,148.2C459.57,147.52 459.86,146.88 460.19,146.36C460.47,145.92 460.77,145.52 461.1,145.22Q461.38,144.97 462,144.64" style="vector-effect: non-scaling-stroke; fill: none; stroke: rgb(0, 100, 80); stroke-opacity: 1; stroke-width: 2px; opacity: 1;"/></g><g class="points"/><g class="text"/></g><g class="trace scatter tracee719ad" style="stroke-miterlimit: 2; opacity: 1;"><g class="fills"/><g class="errorbars"/><g class="lines"><path class="js-line" d="M0,42.31Q0.61,42.24 0.9,42.13C1.21,42.01 1.52,41.83 1.81,41.62C2.12,41.39 2.42,41.1 2.71,40.8C3.02,40.48 3.32,40.11 3.62,39.74C3.93,39.35 4.22,38.94 4.52,38.52C4.82,38.09 5.12,37.64 5.42,37.21C5.72,36.78 6.02,36.34 6.33,35.92C6.63,35.52 6.92,35.12 7.23,34.76C7.52,34.42 7.82,34.09 8.14,33.82C8.43,33.58 8.72,33.33 9.04,33.2C9.33,33.08 9.65,32.99 9.95,33.01C10.25,33.03 10.57,33.14 10.85,33.31C11.17,33.51 11.47,33.84 11.75,34.2C12.08,34.62 12.38,35.16 12.66,35.73C12.99,36.39 13.28,37.16 13.56,37.97C13.88,38.89 14.18,39.89 14.47,40.95C14.79,42.13 15.08,43.4 15.37,44.72C15.69,46.17 15.98,47.7 16.27,49.29C16.58,51.01 16.89,52.81 17.18,54.67C17.49,56.66 17.79,58.74 18.08,60.87C18.39,63.13 18.7,65.48 18.99,67.88C19.3,70.4 19.6,73.01 19.89,75.66C20.2,78.44 20.49,81.3 20.79,84.2C21.1,87.22 21.4,90.31 21.7,93.45C22.01,96.7 22.3,100.01 22.6,103.37C22.91,106.82 23.21,110.34 23.51,113.89C23.82,117.53 24.11,121.23 24.41,124.96C24.71,128.77 25.02,132.62 25.32,136.5C25.62,140.45 25.92,144.44 26.22,148.44C26.52,152.49 26.82,156.6 27.12,160.68C27.42,164.77 27.7,169.18 28.03,172.94C28.31,176.15 28.62,178.94 28.93,181.84C29.23,184.62 29.54,187.24 29.84,190C30.15,192.84 30.44,195.73 30.74,198.65C31.04,201.64 31.34,204.68 31.64,207.73C31.94,210.84 32.25,213.99 32.55,217.15C32.85,220.34 33.15,223.57 33.45,226.79C33.75,230.02 34.06,233.27 34.36,236.5C34.66,239.71 34.96,242.92 35.26,246.09C35.56,249.2 35.85,252.3 36.16,255.32C36.46,258.24 36.73,261.33 37.07,263.91C37.35,266.03 37.63,267.98 37.97,269.69C38.25,271.07 38.38,273.15 38.88,273.41C39.13,273.54 39.52,273.31 39.78,273.07C40.16,272.73 40.4,271.95 40.68,271.28C41.02,270.47 41.3,269.5 41.59,268.52C41.91,267.43 42.2,266.23 42.49,265.02C42.8,263.73 43.1,262.38 43.4,261.02C43.71,259.6 44,258.14 44.3,256.68C44.61,255.18 44.91,253.66 45.21,252.13C45.51,250.59 45.81,249.03 46.11,247.48C46.41,245.94 46.7,244.39 47.01,242.88C47.31,241.41 47.61,239.93 47.92,238.52C48.21,237.17 48.51,235.84 48.82,234.59C49.11,233.43 49.41,232.29 49.73,231.24C50.02,230.3 50.3,229.39 50.63,228.59C50.91,227.9 51.19,227.22 51.53,226.7C51.81,226.27 52.1,225.85 52.44,225.64C52.72,225.47 53.05,225.37 53.34,225.43C53.66,225.49 53.97,225.78 54.25,226.08C54.59,226.45 54.87,227 55.15,227.57C55.48,228.25 55.77,229.06 56.05,229.9C56.37,230.86 56.67,231.92 56.96,233.02C57.28,234.24 57.57,235.55 57.86,236.89C58.17,238.34 58.48,239.87 58.77,241.44C59.08,243.1 59.38,244.84 59.67,246.6C59.98,248.45 60.28,250.36 60.58,252.29C60.89,254.28 61.18,256.33 61.48,258.38C61.78,260.48 62.08,262.61 62.38,264.74C62.68,266.88 62.99,269.05 63.29,271.17C63.59,273.26 63.88,275.36 64.19,277.37C64.48,279.28 64.78,281.18 65.1,282.94C65.39,284.54 65.68,286.1 66,287.5C66.28,288.72 66.49,290.11 66.9,290.9C67.16,291.4 67.49,291.97 67.81,292C68.1,292.02 68.44,291.58 68.71,291.23C69.07,290.75 69.34,290 69.62,289.27C69.96,288.38 70.23,287.33 70.52,286.26C70.84,285.07 71.13,283.77 71.42,282.46C71.73,281.08 72.03,279.63 72.33,278.19C72.63,276.73 72.93,275.23 73.23,273.75C73.53,272.28 73.83,270.8 74.14,269.36C74.44,267.95 74.73,266.54 75.04,265.18C75.34,263.87 75.64,262.57 75.95,261.33C76.24,260.16 76.54,259.01 76.85,257.92C77.14,256.91 77.43,255.93 77.75,255.02C78.04,254.19 78.34,253.39 78.66,252.67C78.95,252.03 79.23,251.42 79.56,250.91C79.84,250.47 80.14,250.05 80.47,249.76C80.75,249.51 81.06,249.3 81.37,249.22C81.66,249.15 81.98,249.18 82.27,249.28C82.59,249.39 82.9,249.63 83.18,249.89C83.51,250.19 83.79,250.59 84.08,251.01C84.4,251.47 84.7,252.01 84.99,252.56C85.3,253.16 85.6,253.81 85.89,254.47C86.2,255.16 86.49,255.9 86.79,256.62C87.09,257.35 87.39,258.11 87.7,258.83C88,259.52 88.29,260.22 88.6,260.85C88.89,261.44 89.19,262.01 89.51,262.51C89.8,262.95 90.08,263.41 90.41,263.71C90.69,263.97 91.01,264.24 91.32,264.28C91.61,264.32 91.95,264.2 92.22,264C92.57,263.74 92.85,263.2 93.12,262.66C93.47,261.97 93.75,261.07 94.03,260.14C94.36,259.03 94.64,257.75 94.93,256.43C95.25,254.94 95.55,253.31 95.84,251.65C96.15,249.85 96.45,247.94 96.74,246.01C97.05,243.98 97.34,241.88 97.64,239.77C97.95,237.6 98.25,235.37 98.55,233.16C98.85,230.92 99.15,228.66 99.45,226.42C99.75,224.19 100.06,221.94 100.36,219.73C100.66,217.56 100.96,215.38 101.26,213.26C101.56,211.2 101.85,209.15 102.16,207.16C102.46,205.24 102.76,203.35 103.07,201.52C103.36,199.79 103.66,198.09 103.97,196.47C104.26,194.95 104.56,193.47 104.88,192.07C105.17,190.78 105.46,189.53 105.78,188.38C106.07,187.34 106.35,186.34 106.68,185.45C106.96,184.67 107.26,183.93 107.59,183.31C107.87,182.8 108.15,182.3 108.49,181.97C108.77,181.7 109.09,181.46 109.4,181.41C109.69,181.36 110.02,181.46 110.3,181.61C110.63,181.79 110.93,182.16 111.21,182.52C111.54,182.95 111.83,183.5 112.11,184.06C112.43,184.69 112.72,185.4 113.01,186.11C113.32,186.86 113.62,187.67 113.92,188.44C114.22,189.2 114.5,190 114.82,190.72C115.11,191.38 115.41,192.01 115.73,192.58C116.02,193.09 116.32,193.54 116.63,194C116.92,194.44 117.23,194.85 117.53,195.28C117.83,195.72 118.14,196.15 118.44,196.61C118.75,197.08 119.04,197.58 119.34,198.08C119.65,198.6 119.95,199.14 120.25,199.68C120.55,200.23 120.85,200.79 121.15,201.35C121.45,201.91 121.75,202.47 122.05,203.02C122.35,203.56 122.65,204.09 122.96,204.61C123.26,205.11 123.55,205.6 123.86,206.06C124.16,206.5 124.46,206.93 124.77,207.32C125.06,207.68 125.36,208.03 125.67,208.33C125.96,208.61 126.27,208.87 126.58,209.08C126.87,209.27 127.17,209.44 127.48,209.56C127.77,209.67 128.08,209.75 128.38,209.79C128.68,209.83 128.99,209.82 129.29,209.78C129.59,209.74 129.89,209.66 130.19,209.55C130.5,209.44 130.8,209.3 131.1,209.13C131.41,208.95 131.71,208.74 132,208.5C132.31,208.25 132.61,207.95 132.9,207.64C133.21,207.31 133.51,206.93 133.81,206.55C134.12,206.15 134.41,205.71 134.71,205.29C135.01,204.86 135.31,204.41 135.62,203.99C135.92,203.59 136.21,203.18 136.52,202.83C136.81,202.51 137.1,202.19 137.42,201.97C137.71,201.77 138.02,201.6 138.33,201.55C138.62,201.51 138.95,201.55 139.23,201.67C139.55,201.81 139.86,202.1 140.14,202.41C140.47,202.78 140.76,203.29 141.04,203.82C141.37,204.44 141.67,205.17 141.95,205.94C142.27,206.81 142.56,207.78 142.85,208.78C143.17,209.89 143.46,211.09 143.75,212.33C144.07,213.68 144.37,215.1 144.66,216.57C144.97,218.14 145.27,219.78 145.56,221.45C145.87,223.22 146.17,225.05 146.47,226.91C146.78,228.84 147.07,230.83 147.37,232.84C147.67,234.9 147.97,237.01 148.27,239.12C148.57,241.26 148.88,243.43 149.18,245.58C149.48,247.71 149.77,249.9 150.08,251.96C150.37,253.89 150.63,256 150.99,257.57C151.26,258.74 151.52,259.81 151.89,260.57C152.15,261.11 152.44,261.61 152.79,261.83C153.06,262 153.42,262.06 153.7,261.97C154.03,261.86 154.33,261.44 154.6,261.04C154.95,260.53 155.23,259.8 155.51,259.07C155.84,258.19 156.13,257.17 156.41,256.11C156.73,254.91 157.03,253.59 157.32,252.23C157.64,250.75 157.93,249.16 158.22,247.56C158.53,245.86 158.82,244.08 159.12,242.3C159.43,240.47 159.73,238.58 160.03,236.71C160.33,234.83 160.63,232.93 160.93,231.05C161.23,229.2 161.53,227.33 161.84,225.52C162.14,223.76 162.43,222.02 162.74,220.33C163.03,218.72 163.33,217.14 163.64,215.62C163.93,214.2 164.23,212.81 164.55,211.5C164.84,210.3 165.13,209.14 165.45,208.08C165.74,207.13 166.03,206.23 166.36,205.43C166.64,204.75 166.92,204.08 167.26,203.58C167.53,203.17 167.82,202.76 168.16,202.58C168.44,202.43 168.78,202.37 169.07,202.44C169.39,202.52 169.7,202.83 169.97,203.14C170.31,203.53 170.6,204.09 170.88,204.67C171.21,205.35 171.5,206.16 171.78,206.99C172.1,207.93 172.39,208.97 172.68,210.04C173,211.21 173.3,212.47 173.59,213.76C173.9,215.15 174.2,216.6 174.49,218.09C174.8,219.66 175.1,221.3 175.4,222.96C175.71,224.7 176,226.5 176.3,228.32C176.61,230.22 176.91,232.17 177.21,234.14C177.52,236.18 177.81,238.26 178.11,240.36C178.41,242.52 178.71,244.72 179.01,246.94C179.31,249.2 179.62,251.49 179.92,253.79C180.22,256.12 180.52,258.48 180.82,260.82C181.12,263.17 181.43,265.53 181.73,267.87C182.03,270.18 182.33,272.49 182.63,274.76C182.93,276.97 183.22,279.17 183.53,281.3C183.83,283.35 184.13,285.37 184.44,287.32C184.73,289.16 185.03,290.98 185.34,292.7C185.63,294.3 185.92,295.9 186.25,297.3C186.53,298.49 186.7,299.97 187.15,300.59C187.4,300.94 187.79,301.27 188.05,301.19C188.45,301.07 188.68,299.74 188.96,298.86C189.3,297.78 189.57,296.45 189.86,295.16C190.18,293.75 190.47,292.2 190.77,290.71C191.07,289.22 191.36,287.7 191.67,286.22C191.97,284.78 192.27,283.34 192.58,281.94C192.88,280.58 193.18,279.23 193.48,277.91C193.78,276.62 194.09,275.45 194.38,274.1C194.7,272.6 194.98,270.89 195.29,269.32C195.59,267.8 195.88,266.29 196.19,264.83C196.49,263.43 196.79,262.05 197.1,260.71C197.39,259.43 197.69,258.19 198,256.98C198.29,255.84 198.59,254.72 198.9,253.65C199.19,252.64 199.5,251.65 199.81,250.71C200.1,249.83 200.4,248.98 200.71,248.18C201,247.43 201.31,246.71 201.62,246.03C201.91,245.4 202.21,244.79 202.52,244.22C202.81,243.69 203.11,243.18 203.42,242.7C203.71,242.25 204.02,241.82 204.33,241.43C204.62,241.06 204.92,240.71 205.23,240.41C205.52,240.13 205.83,239.86 206.14,239.65C206.43,239.46 206.73,239.31 207.04,239.2C207.34,239.1 207.68,239.19 207.95,239.01C208.31,238.76 208.56,238.1 208.85,237.62C209.16,237.11 209.44,236.54 209.75,236.02C210.05,235.52 210.35,235.04 210.66,234.57C210.96,234.11 211.25,233.66 211.56,233.23C211.86,232.81 212.17,232.4 212.47,231.99C212.77,231.59 213.07,231.2 213.37,230.81C213.67,230.43 213.97,230.05 214.27,229.67C214.57,229.29 214.88,228.91 215.18,228.53C215.48,228.14 215.78,227.76 216.08,227.36C216.39,226.95 216.69,226.54 216.99,226.11C217.3,225.66 217.6,225.2 217.89,224.71C218.2,224.2 218.5,223.66 218.79,223.1C219.1,222.51 219.4,221.88 219.7,221.24C220.01,220.57 220.3,219.87 220.6,219.18C220.9,218.48 221.21,217.75 221.51,217.05C221.81,216.36 222.1,215.66 222.41,215.01C222.7,214.39 223,213.78 223.32,213.22C223.61,212.71 223.9,212.2 224.22,211.78C224.5,211.4 224.79,211.04 225.12,210.79C225.4,210.57 225.72,210.38 226.03,210.33C226.32,210.28 226.64,210.33 226.93,210.45C227.25,210.59 227.56,210.86 227.84,211.17C228.17,211.53 228.46,212.02 228.74,212.53C229.06,213.11 229.35,213.79 229.64,214.49C229.96,215.28 230.26,216.15 230.55,217.05C230.87,218.02 231.16,219.06 231.45,220.12C231.76,221.24 232.06,222.42 232.36,223.58C232.66,224.75 232.94,226 233.26,227.11C233.55,228.11 233.81,229.17 234.16,229.95C234.43,230.56 234.72,231.13 235.07,231.48C235.34,231.75 235.66,231.97 235.97,232.01C236.27,232.04 236.6,231.92 236.88,231.73C237.22,231.49 237.5,231 237.78,230.55C238.11,230.02 238.39,229.36 238.68,228.72C238.99,228.04 239.29,227.3 239.59,226.59C239.89,225.87 240.19,225.14 240.49,224.43C240.79,223.73 241.09,223.04 241.4,222.37C241.7,221.72 241.99,221.09 242.3,220.48C242.59,219.9 242.9,219.34 243.21,218.81C243.5,218.31 243.8,217.83 244.11,217.39C244.4,216.98 244.7,216.59 245.01,216.24C245.3,215.92 245.6,215.61 245.92,215.36C246.21,215.13 246.51,214.93 246.82,214.78C247.11,214.64 247.42,214.53 247.73,214.48C248.03,214.43 248.33,214.43 248.63,214.48C248.93,214.53 249.24,214.63 249.53,214.77C249.84,214.92 250.15,215.12 250.44,215.35C250.75,215.6 251.05,215.91 251.34,216.23C251.65,216.58 251.96,216.97 252.25,217.39C252.56,217.84 252.86,218.34 253.15,218.85C253.46,219.4 253.76,219.98 254.05,220.58C254.36,221.22 254.67,221.88 254.96,222.57C255.27,223.29 255.56,224.04 255.86,224.81C256.17,225.61 256.47,226.43 256.77,227.26C257.08,228.12 257.37,229.01 257.67,229.91C257.98,230.83 258.28,231.76 258.58,232.7C258.88,233.65 259.18,234.62 259.48,235.58C259.78,236.54 260.08,237.51 260.38,238.47C260.68,239.42 260.98,240.37 261.29,241.29C261.59,242.19 261.88,243.07 262.19,243.94C262.49,244.79 262.8,245.61 263.1,246.44C263.4,247.26 263.7,248.07 264,248.89C264.3,249.71 264.6,250.54 264.9,251.37C265.2,252.21 265.51,253.06 265.81,253.91C266.11,254.75 266.41,255.6 266.71,256.43C267.01,257.26 267.32,258.06 267.62,258.89C267.92,259.72 268.23,260.55 268.52,261.41C268.83,262.3 269.12,263.21 269.42,264.14C269.73,265.11 270.03,266.09 270.33,267.1C270.64,268.14 270.93,269.22 271.23,270.29C271.53,271.39 271.84,272.5 272.14,273.61C272.44,274.71 272.73,275.84 273.04,276.91C273.34,277.93 273.62,279.01 273.95,279.9C274.23,280.64 274.5,281.39 274.85,281.9C275.12,282.29 275.42,282.64 275.75,282.81C276.03,282.95 276.36,282.99 276.66,282.95C276.97,282.91 277.27,282.71 277.56,282.53C277.87,282.33 278.17,282.06 278.47,281.8C278.78,281.52 279.08,281.22 279.37,280.9C279.68,280.57 279.98,280.22 280.27,279.85C280.58,279.46 280.89,279.05 281.18,278.6C281.49,278.12 281.81,277.67 282.08,277.07C282.43,276.31 282.71,275.33 282.99,274.35C283.32,273.22 283.6,271.94 283.89,270.65C284.2,269.24 284.5,267.73 284.79,266.19C285.1,264.56 285.4,262.83 285.7,261.13C286,259.39 286.3,257.61 286.6,255.86C286.9,254.13 287.2,252.39 287.51,250.69C287.81,249.03 288.1,247.39 288.41,245.79C288.71,244.26 289.01,242.75 289.32,241.29C289.61,239.91 289.91,238.56 290.22,237.27C290.51,236.07 290.8,234.9 291.12,233.8C291.41,232.79 291.71,231.82 292.03,230.93C292.32,230.13 292.6,229.37 292.93,228.7C293.21,228.11 293.51,227.55 293.84,227.11C294.12,226.74 294.41,226.38 294.74,226.17C295.02,225.99 295.34,225.85 295.64,225.84C295.94,225.83 296.26,225.95 296.55,226.1C296.87,226.27 297.16,226.57 297.45,226.87C297.77,227.21 298.07,227.64 298.36,228.07C298.68,228.54 298.97,229.08 299.26,229.61C299.57,230.17 299.86,230.76 300.16,231.35C300.46,231.95 300.77,232.56 301.07,233.16C301.37,233.75 301.66,234.34 301.97,234.9C302.27,235.44 302.57,235.97 302.88,236.46C303.17,236.91 303.46,237.36 303.78,237.72C304.06,238.04 304.36,238.37 304.68,238.56C304.97,238.73 305.29,238.88 305.59,238.87C305.89,238.86 306.21,238.72 306.49,238.51C306.83,238.26 307.12,237.81 307.4,237.36C307.74,236.81 308.02,236.12 308.3,235.41C308.63,234.6 308.92,233.67 309.21,232.73C309.53,231.7 309.82,230.6 310.11,229.48C310.42,228.3 310.71,227.08 311.01,225.84C311.32,224.56 311.62,223.25 311.92,221.93C312.22,220.59 312.52,219.22 312.82,217.86C313.12,216.49 313.43,215.11 313.73,213.73C314.03,212.35 314.33,210.97 314.63,209.6C314.93,208.24 315.23,206.87 315.53,205.52C315.83,204.18 316.14,202.86 316.44,201.54C316.74,200.24 317.04,198.95 317.34,197.67C317.64,196.41 317.95,195.17 318.25,193.94C318.55,192.74 318.85,191.54 319.15,190.37C319.45,189.22 319.74,188.09 320.05,186.97C320.35,185.88 320.65,184.81 320.96,183.76C321.26,182.74 321.55,181.73 321.86,180.75C322.16,179.8 322.46,178.87 322.77,177.97C323.06,177.11 323.36,176.27 323.67,175.47C323.96,174.71 324.27,173.96 324.58,173.26C324.87,172.61 325.17,171.98 325.48,171.4C325.77,170.87 326.06,170.37 326.38,169.92C326.67,169.52 326.97,169.13 327.29,168.83C327.58,168.56 327.87,168.32 328.19,168.16C328.48,168.01 328.79,167.91 329.1,167.88C329.4,167.85 329.71,167.9 330,167.99C330.31,168.08 330.61,168.25 330.9,168.44C331.21,168.64 331.52,168.91 331.81,169.19C332.12,169.49 332.42,169.83 332.71,170.19C333.02,170.57 333.32,170.97 333.62,171.39C333.93,171.82 334.22,172.27 334.52,172.73C334.82,173.2 335.12,173.69 335.42,174.18C335.72,174.68 336.03,175.19 336.33,175.71C336.63,176.24 336.93,176.77 337.23,177.32C337.54,177.88 337.84,178.46 338.14,179.04C338.44,179.64 338.74,180.24 339.04,180.86C339.35,181.5 339.65,182.16 339.95,182.83C340.26,183.52 340.55,184.23 340.85,184.96C341.16,185.71 341.45,186.48 341.75,187.26C342.06,188.07 342.36,188.9 342.66,189.75C342.97,190.63 343.26,191.53 343.56,192.45C343.87,193.4 344.17,194.36 344.47,195.34C344.78,196.35 345.07,197.39 345.37,198.43C345.67,199.5 345.97,200.59 346.27,201.69C346.57,202.81 346.88,203.94 347.18,205.08C347.48,206.23 347.78,207.4 348.08,208.56C348.38,209.72 348.69,210.89 348.99,212.05C349.29,213.2 349.59,214.36 349.89,215.49C350.19,216.6 350.48,217.71 350.79,218.78C351.09,219.81 351.39,220.84 351.7,221.81C351.99,222.72 352.28,223.62 352.6,224.44C352.89,225.18 353.17,225.92 353.51,226.51C353.79,227 354.06,227.53 354.41,227.77C354.68,227.96 355.04,228.09 355.32,228.02C355.64,227.94 355.95,227.55 356.22,227.19C356.57,226.73 356.84,226.07 357.12,225.42C357.45,224.65 357.74,223.77 358.03,222.86C358.35,221.86 358.64,220.78 358.93,219.67C359.24,218.48 359.55,217.23 359.84,215.95C360.15,214.6 360.45,213.21 360.74,211.79C361.05,210.32 361.34,208.81 361.64,207.29C361.95,205.72 362.25,204.13 362.55,202.52C362.85,200.88 363.15,199.22 363.45,197.56C363.75,195.88 364.06,194.19 364.36,192.49C364.66,190.79 364.96,189.07 365.26,187.36C365.56,185.66 365.86,183.96 366.16,182.26C366.46,180.57 366.77,178.88 367.07,177.21C367.37,175.56 367.67,173.91 367.97,172.28C368.27,170.67 368.58,169.08 368.88,167.5C369.18,165.95 369.48,164.41 369.78,162.89C370.08,161.4 370.38,159.91 370.68,158.45C370.98,157.01 371.29,155.6 371.59,154.19C371.89,152.81 372.19,151.44 372.49,150.09C372.79,148.76 373.1,147.44 373.4,146.13C373.7,144.83 374,143.55 374.3,142.26C374.6,140.98 374.91,139.71 375.21,138.44C375.51,137.17 375.81,135.91 376.11,134.65C376.41,133.39 376.71,132.13 377.01,130.87C377.31,129.62 377.62,128.37 377.92,127.12C378.22,125.88 378.52,124.64 378.82,123.42C379.12,122.22 379.42,121.02 379.73,119.85C380.03,118.71 380.32,117.57 380.63,116.47C380.92,115.41 381.22,114.36 381.53,113.36C381.82,112.41 382.13,111.48 382.44,110.61C382.73,109.8 383.02,109.01 383.34,108.29C383.63,107.64 383.92,107.01 384.25,106.48C384.53,106.02 384.82,105.56 385.15,105.25C385.43,104.99 385.74,104.73 386.05,104.66C386.34,104.59 386.68,104.64 386.96,104.77C387.29,104.93 387.58,105.27 387.86,105.63C388.2,106.07 388.49,106.66 388.77,107.28C389.1,108.01 389.39,108.86 389.67,109.75C389.99,110.77 390.29,111.89 390.58,113.06C390.9,114.36 391.19,115.77 391.48,117.22C391.79,118.81 392.09,120.5 392.38,122.24C392.69,124.12 393,126.09 393.29,128.11C393.6,130.27 393.9,132.52 394.19,134.82C394.5,137.25 394.81,139.77 395.1,142.34C395.41,145.04 395.71,147.81 396,150.63C396.31,153.57 396.6,156.59 396.9,159.65C397.21,162.82 397.51,166.07 397.81,169.35C398.12,172.73 398.41,176.18 398.71,179.66C399.02,183.23 399.32,186.86 399.62,190.51C399.92,194.24 400.22,198.02 400.52,201.81C400.82,205.66 401.12,209.55 401.42,213.45C401.72,217.38 402.03,221.35 402.33,225.31C402.63,229.28 402.93,233.27 403.23,237.24C403.53,241.18 403.84,245.14 404.14,249.04C404.44,252.88 404.73,256.72 405.04,260.46C405.34,264.06 405.63,267.69 405.95,271.07C406.24,274.16 406.52,277.28 406.85,279.95C407.13,282.15 407.28,284.64 407.75,285.96C408,286.68 408.4,287.56 408.66,287.52C409.08,287.45 409.29,284.67 409.56,282.92C409.91,280.63 410.18,277.71 410.47,274.95C410.78,271.98 411.09,268.97 411.37,265.7C411.69,262.02 411.97,257.89 412.27,253.94C412.57,249.93 412.88,245.84 413.18,241.81C413.48,237.8 413.78,233.78 414.08,229.8C414.38,225.86 414.69,221.94 414.99,218.06C415.29,214.23 415.59,210.43 415.89,206.67C416.19,202.98 416.48,199.32 416.79,195.7C417.09,192.16 417.39,188.65 417.7,185.2C418,181.83 418.29,178.51 418.6,175.23C418.9,172.04 419.2,168.9 419.51,165.81C419.81,162.82 420.1,159.87 420.41,156.99C420.71,154.21 421.01,151.47 421.32,148.8C421.62,146.24 421.91,143.72 422.22,141.27C422.51,138.93 422.81,136.64 423.12,134.43C423.41,132.33 423.72,130.29 424.03,128.32C424.32,126.48 424.62,124.68 424.93,122.97C425.22,121.39 425.52,119.85 425.84,118.41C426.13,117.11 426.42,115.85 426.74,114.7C427.02,113.68 427.31,112.7 427.64,111.86C427.92,111.15 428.21,110.46 428.55,109.94C428.82,109.53 429.11,109.1 429.45,108.95C429.73,108.82 430.08,108.81 430.36,108.93C430.7,109.07 430.99,109.5 431.26,109.9C431.61,110.41 431.88,111.12 432.16,111.84C432.49,112.7 432.79,113.71 433.07,114.76C433.39,115.96 433.68,117.27 433.97,118.64C434.29,120.15 434.59,121.77 434.88,123.44C435.19,125.25 435.49,127.15 435.78,129.1C436.09,131.18 436.39,133.35 436.68,135.56C436.99,137.88 437.29,140.27 437.59,142.7C437.9,145.22 438.19,147.81 438.49,150.41C438.8,153.08 439.1,155.8 439.4,158.51C439.7,161.25 440,164.02 440.3,166.77C440.6,169.51 440.91,172.26 441.21,174.97C441.51,177.63 441.8,180.29 442.11,182.88C442.41,185.39 442.7,187.87 443.01,190.27C443.3,192.55 443.61,194.81 443.92,196.94C444.21,198.91 444.5,200.85 444.82,202.62C445.11,204.2 445.39,205.75 445.73,207.07C446.01,208.16 446.26,209.26 446.63,210.02C446.89,210.56 447.19,211.22 447.53,211.31C447.81,211.38 448.18,211.13 448.44,210.85C448.83,210.43 449.07,209.54 449.34,208.72C449.69,207.68 449.97,206.39 450.25,205.09C450.58,203.6 450.86,201.93 451.15,200.25C451.46,198.42 451.76,196.47 452.05,194.51C452.36,192.46 452.66,190.33 452.96,188.2C453.26,186.03 453.56,183.81 453.86,181.62C454.16,179.43 454.47,177.22 454.77,175.04C455.07,172.9 455.36,170.75 455.67,168.66C455.97,166.63 456.27,164.62 456.58,162.68C456.87,160.83 457.17,159 457.48,157.25C457.77,155.6 458.06,153.99 458.38,152.47C458.67,151.07 458.97,149.71 459.29,148.45C459.58,147.32 459.86,146.23 460.19,145.26C460.47,144.42 460.76,143.6 461.1,142.94Q461.38,142.4 462,141.54" style="vector-effect: non-scaling-stroke; fill: none; stroke: rgb(0, 176, 246); stroke-opacity: 1; stroke-width: 2px; opacity: 1;"/></g><g class="points"/><g class="text"/></g><g class="trace scatter tracec730c4" style="stroke-miterlimit: 2; opacity: 1;"><g class="fills"/><g class="errorbars"/><g class="lines"><path class="js-line" d="M0,82.04Q0.6,82.07 0.9,82.12C1.2,82.17 1.51,82.25 1.81,82.35C2.11,82.45 2.41,82.58 2.71,82.73C3.02,82.89 3.32,83.07 3.62,83.28C3.93,83.49 4.23,83.73 4.52,83.99C4.83,84.26 5.13,84.56 5.42,84.88C5.73,85.21 6.04,85.57 6.33,85.94C6.64,86.33 6.94,86.75 7.23,87.19C7.54,87.65 7.84,88.13 8.14,88.63C8.45,89.15 8.74,89.69 9.04,90.25C9.35,90.83 9.65,91.44 9.95,92.06C10.26,92.7 10.56,93.36 10.85,94.04C11.16,94.74 11.45,95.47 11.75,96.2C12.06,96.96 12.36,97.73 12.66,98.51C12.97,99.32 13.26,100.14 13.56,100.97C13.87,101.82 14.17,102.69 14.47,103.57C14.77,104.46 15.07,105.36 15.37,106.27C15.67,107.2 15.97,108.14 16.27,109.09C16.57,110.05 16.88,111.02 17.18,112C17.48,112.99 17.78,114 18.08,115.01C18.38,116.04 18.69,117.09 18.99,118.14C19.29,119.21 19.59,120.3 19.89,121.4C20.19,122.53 20.49,123.66 20.79,124.82C21.1,126 21.4,127.2 21.7,128.42C22.01,129.68 22.3,130.96 22.6,132.26C22.91,133.6 23.21,134.97 23.51,136.36C23.82,137.8 24.11,139.26 24.41,140.75C24.72,142.29 25.02,143.87 25.32,145.47C25.63,147.13 25.92,148.82 26.22,150.54C26.53,152.32 26.82,154.12 27.12,155.96C27.43,157.86 27.73,159.78 28.03,161.74C28.34,163.76 28.63,165.81 28.93,167.89C29.24,170.02 29.54,172.19 29.84,174.38C30.15,176.62 30.44,178.9 30.74,181.2C31.04,183.54 31.34,185.92 31.64,188.31C31.94,190.74 32.25,193.2 32.55,195.67C32.85,198.17 33.15,200.69 33.45,203.22C33.75,205.77 34.06,208.34 34.36,210.9C34.66,213.47 34.96,216.05 35.26,218.62C35.56,221.17 35.86,223.74 36.16,226.26C36.46,228.74 36.75,231.34 37.07,233.63C37.35,235.64 37.62,237.63 37.97,239.27C38.24,240.56 38.53,241.74 38.88,242.7C39.15,243.44 39.4,244.23 39.78,244.61C40.04,244.87 40.39,245.07 40.68,245.04C40.99,245.01 41.31,244.65 41.59,244.33C41.93,243.94 42.21,243.35 42.49,242.79C42.81,242.15 43.11,241.41 43.4,240.67C43.71,239.88 44,239.04 44.3,238.19C44.61,237.31 44.91,236.41 45.21,235.5C45.51,234.58 45.81,233.65 46.11,232.72C46.41,231.79 46.71,230.85 47.01,229.92C47.31,229 47.62,228.09 47.92,227.18C48.22,226.29 48.51,225.4 48.82,224.53C49.12,223.69 49.42,222.86 49.73,222.05C50.03,221.27 50.32,220.5 50.63,219.77C50.92,219.07 51.22,218.39 51.53,217.75C51.82,217.15 52.12,216.58 52.44,216.05C52.73,215.57 53.02,215.1 53.34,214.71C53.63,214.36 53.93,214.02 54.25,213.78C54.54,213.56 54.84,213.37 55.15,213.29C55.44,213.21 55.76,213.21 56.05,213.28C56.36,213.35 56.68,213.53 56.96,213.75C57.28,214 57.58,214.35 57.86,214.73C58.18,215.16 58.48,215.67 58.77,216.21C59.09,216.81 59.38,217.48 59.67,218.18C59.99,218.95 60.29,219.78 60.58,220.63C60.89,221.55 61.19,222.52 61.48,223.51C61.79,224.57 62.08,225.67 62.38,226.79C62.69,227.96 62.99,229.17 63.29,230.38C63.6,231.63 63.89,232.91 64.19,234.18C64.49,235.46 64.8,236.76 65.1,238.04C65.4,239.29 65.69,240.56 66,241.77C66.29,242.93 66.59,244.08 66.9,245.17C67.19,246.2 67.5,247.19 67.81,248.14C68.1,249.04 68.4,249.9 68.71,250.73C69,251.52 69.31,252.28 69.62,253.01C69.91,253.7 70.21,254.38 70.52,255.02C70.81,255.62 71.11,256.2 71.42,256.75C71.71,257.28 72.02,257.78 72.33,258.27C72.63,258.74 72.93,259.2 73.23,259.65C73.53,260.1 73.84,260.54 74.14,260.98C74.44,261.42 74.74,261.86 75.04,262.31C75.34,262.76 75.65,263.22 75.95,263.68C76.25,264.15 76.55,264.63 76.85,265.11C77.15,265.59 77.42,266.18 77.75,266.57C78.03,266.89 78.34,267.17 78.66,267.34C78.95,267.49 79.28,267.66 79.56,267.6C79.88,267.53 80.19,267.13 80.47,266.79C80.8,266.39 81.09,265.86 81.37,265.29C81.7,264.62 81.96,263.76 82.27,263.01C82.57,262.28 82.87,261.55 83.18,260.86C83.47,260.2 83.77,259.56 84.08,258.95C84.37,258.37 84.68,257.8 84.99,257.26C85.28,256.75 85.58,256.25 85.89,255.78C86.18,255.34 86.48,254.91 86.79,254.52C87.08,254.15 87.39,253.8 87.7,253.47C87.99,253.16 88.29,252.88 88.6,252.61C88.9,252.34 89.21,252.1 89.51,251.84C89.81,251.58 90.11,251.33 90.41,251.06C90.72,250.78 91.03,250.49 91.32,250.17C91.63,249.82 91.93,249.45 92.22,249.04C92.53,248.6 92.83,248.11 93.12,247.59C93.44,247.02 93.74,246.39 94.03,245.73C94.34,245.02 94.64,244.25 94.93,243.47C95.24,242.65 95.54,241.78 95.84,240.91C96.15,240.02 96.44,239.11 96.74,238.21C97.04,237.31 97.34,236.39 97.64,235.49C97.94,234.6 98.24,233.7 98.55,232.83C98.85,231.98 99.14,231.13 99.45,230.3C99.75,229.5 100.05,228.71 100.36,227.94C100.66,227.2 100.95,226.48 101.26,225.79C101.55,225.13 101.85,224.48 102.16,223.86C102.46,223.27 102.76,222.69 103.07,222.14C103.36,221.61 103.66,221.11 103.97,220.62C104.27,220.15 104.57,219.69 104.88,219.25C105.18,218.82 105.48,218.41 105.78,218C106.08,217.6 106.38,217.22 106.68,216.84C106.98,216.46 107.28,216.09 107.59,215.73C107.89,215.38 108.19,215.03 108.49,214.7C108.79,214.37 109.09,214.05 109.4,213.74C109.7,213.44 109.99,213.15 110.3,212.89C110.6,212.64 110.9,212.4 111.21,212.2C111.5,212.01 111.8,211.83 112.11,211.69C112.4,211.56 112.71,211.45 113.01,211.39C113.31,211.33 113.62,211.31 113.92,211.33C114.22,211.35 114.52,211.41 114.82,211.5C115.13,211.6 115.43,211.75 115.73,211.92C116.04,212.1 116.34,212.32 116.63,212.55C116.94,212.8 117.24,213.08 117.53,213.37C117.84,213.68 118.14,214.01 118.44,214.35C118.75,214.7 119.04,215.07 119.34,215.43C119.64,215.8 119.95,216.17 120.25,216.54C120.55,216.91 120.84,217.28 121.15,217.63C121.45,217.97 121.74,218.3 122.05,218.6C122.35,218.89 122.65,219.17 122.96,219.39C123.25,219.6 123.55,219.79 123.86,219.9C124.15,220.01 124.47,220.08 124.77,220.07C125.07,220.06 125.38,219.99 125.67,219.86C125.99,219.72 126.29,219.5 126.58,219.25C126.9,218.98 127.19,218.64 127.48,218.29C127.79,217.91 128.09,217.48 128.38,217.05C128.69,216.59 128.99,216.1 129.29,215.6C129.6,215.09 129.89,214.56 130.19,214.04C130.49,213.52 130.8,212.98 131.1,212.46C131.4,211.95 131.69,211.43 132,210.94C132.29,210.47 132.59,209.99 132.9,209.56C133.19,209.15 133.49,208.75 133.81,208.41C134.1,208.09 134.39,207.79 134.71,207.56C135,207.34 135.31,207.14 135.62,207.04C135.91,206.94 136.22,206.9 136.52,206.93C136.82,206.96 137.13,207.09 137.42,207.25C137.74,207.43 138.05,207.71 138.33,208.02C138.65,208.37 138.94,208.81 139.23,209.27C139.55,209.79 139.85,210.38 140.14,211C140.46,211.69 140.75,212.44 141.04,213.22C141.36,214.07 141.66,214.97 141.95,215.9C142.26,216.9 142.56,217.95 142.85,219.03C143.16,220.17 143.46,221.36 143.75,222.57C144.06,223.84 144.36,225.16 144.66,226.49C144.97,227.88 145.26,229.3 145.56,230.74C145.87,232.22 146.17,233.73 146.47,235.25C146.77,236.79 147.07,238.36 147.37,239.93C147.67,241.5 147.97,243.1 148.27,244.67C148.57,246.23 148.87,247.81 149.18,249.34C149.48,250.83 149.77,252.32 150.08,253.73C150.37,255.05 150.66,256.4 150.99,257.56C151.27,258.56 151.49,259.68 151.89,260.3C152.15,260.71 152.48,261.13 152.79,261.15C153.09,261.17 153.43,260.8 153.7,260.48C154.07,260.04 154.32,259.31 154.6,258.59C154.94,257.7 155.22,256.6 155.51,255.49C155.83,254.24 156.12,252.86 156.41,251.47C156.72,249.98 157.02,248.4 157.32,246.82C157.63,245.18 157.92,243.48 158.22,241.78C158.52,240.05 158.82,238.3 159.12,236.55C159.42,234.8 159.73,233.03 160.03,231.29C160.33,229.56 160.63,227.84 160.93,226.14C161.23,224.47 161.53,222.81 161.84,221.19C162.14,219.62 162.43,218.06 162.74,216.55C163.03,215.1 163.33,213.66 163.64,212.28C163.93,210.97 164.24,209.68 164.55,208.45C164.84,207.29 165.14,206.16 165.45,205.09C165.74,204.1 166.04,203.14 166.36,202.25C166.65,201.44 166.94,200.67 167.26,199.97C167.54,199.35 167.83,198.76 168.16,198.26C168.44,197.83 168.74,197.42 169.07,197.14C169.35,196.9 169.66,196.69 169.97,196.62C170.26,196.56 170.59,196.6 170.88,196.71C171.2,196.84 171.5,197.11 171.78,197.4C172.11,197.74 172.4,198.21 172.68,198.69C173.01,199.24 173.3,199.89 173.59,200.56C173.91,201.31 174.2,202.13 174.49,202.99C174.81,203.93 175.11,204.93 175.4,205.97C175.71,207.08 176.01,208.25 176.3,209.45C176.61,210.73 176.92,212.06 177.21,213.42C177.52,214.85 177.82,216.32 178.11,217.82C178.42,219.39 178.71,221 179.01,222.63C179.32,224.32 179.62,226.04 179.92,227.79C180.23,229.58 180.52,231.41 180.82,233.25C181.13,235.13 181.43,237.05 181.73,238.97C182.03,240.93 182.33,242.91 182.63,244.89C182.93,246.9 183.23,248.92 183.53,250.94C183.83,252.97 184.14,255.02 184.44,257.05C184.74,259.06 185.03,261.1 185.34,263.06C185.64,264.95 185.91,266.95 186.25,268.61C186.53,269.97 186.64,271.99 187.15,272.3C187.4,272.45 187.78,272.28 188.05,272.09C188.42,271.83 188.68,271.15 188.96,270.6C189.29,269.96 189.56,269.18 189.86,268.45C190.17,267.69 190.47,266.89 190.77,266.1C191.07,265.31 191.37,264.5 191.67,263.71C191.97,262.92 192.28,262.12 192.58,261.34C192.88,260.57 193.18,259.8 193.48,259.04C193.78,258.3 194.07,257.56 194.38,256.84C194.68,256.14 194.98,255.44 195.29,254.76C195.59,254.11 195.88,253.47 196.19,252.86C196.49,252.27 196.79,251.7 197.1,251.16C197.39,250.65 197.69,250.15 198,249.69C198.29,249.25 198.59,248.84 198.9,248.45C199.19,248.09 199.5,247.75 199.81,247.43C200.1,247.13 200.4,246.86 200.71,246.6C201.01,246.35 201.32,246.12 201.62,245.89C201.92,245.66 202.22,245.45 202.52,245.22C202.82,244.98 203.12,244.75 203.42,244.49C203.73,244.23 204.03,243.94 204.33,243.66C204.63,243.37 204.93,243.07 205.23,242.77C205.53,242.47 205.84,242.17 206.14,241.88C206.44,241.6 206.73,241.31 207.04,241.05C207.34,240.79 207.64,240.54 207.95,240.31C208.25,240.08 208.55,239.87 208.85,239.67C209.15,239.48 209.45,239.3 209.75,239.14C210.05,238.98 210.36,238.84 210.66,238.71C210.96,238.58 211.26,238.47 211.56,238.36C211.86,238.26 212.17,238.16 212.47,238.08C212.77,238 213.07,237.93 213.37,237.86C213.67,237.79 213.97,237.73 214.27,237.68C214.57,237.62 214.88,237.58 215.18,237.53C215.48,237.48 215.78,237.43 216.08,237.39C216.38,237.34 216.69,237.3 216.99,237.26C217.29,237.22 217.59,237.18 217.89,237.15C218.19,237.12 218.49,237.09 218.79,237.07C219.09,237.05 219.4,237.02 219.7,237.01C220,237 220.3,236.99 220.6,237C220.9,237.01 221.21,237.03 221.51,237.07C221.81,237.11 222.11,237.16 222.41,237.24C222.71,237.32 223.02,237.41 223.32,237.53C223.63,237.65 223.93,237.8 224.22,237.97C224.53,238.15 224.83,238.36 225.12,238.59C225.43,238.84 225.74,239.11 226.03,239.41C226.34,239.73 226.64,240.07 226.93,240.44C227.24,240.83 227.55,241.25 227.84,241.69C228.15,242.15 228.45,242.65 228.74,243.16C229.05,243.69 229.34,244.25 229.64,244.8C229.94,245.37 230.25,245.95 230.55,246.52C230.85,247.09 231.15,247.67 231.45,248.24C231.75,248.81 232.05,249.39 232.36,249.95C232.66,250.5 232.95,251.06 233.26,251.57C233.55,252.05 233.85,252.52 234.16,252.93C234.45,253.31 234.75,253.67 235.07,253.98C235.36,254.26 235.65,254.54 235.97,254.71C236.26,254.86 236.57,254.94 236.88,254.99C237.18,255.04 237.48,255.03 237.78,255.04C238.08,255.05 238.38,255.04 238.68,255.04C238.98,255.04 239.29,255.02 239.59,255.01C239.89,255 240.19,254.99 240.49,254.99C240.79,254.99 241.1,254.99 241.4,255C241.7,255.01 242,255.03 242.3,255.06C242.6,255.09 242.91,255.12 243.21,255.17C243.51,255.21 243.81,255.27 244.11,255.33C244.41,255.39 244.71,255.46 245.01,255.53C245.31,255.6 245.62,255.68 245.92,255.76C246.22,255.84 246.52,255.92 246.82,255.99C247.12,256.06 247.43,256.13 247.73,256.17C248.03,256.21 248.33,256.23 248.63,256.24C248.93,256.25 249.23,256.24 249.53,256.26C249.83,256.28 250.14,256.31 250.44,256.37C250.74,256.43 251.04,256.5 251.34,256.61C251.65,256.72 251.96,256.85 252.25,257.02C252.56,257.2 252.86,257.41 253.15,257.65C253.46,257.91 253.76,258.2 254.05,258.52C254.36,258.86 254.67,259.24 254.96,259.65C255.27,260.09 255.57,260.56 255.86,261.06C256.17,261.6 256.48,262.18 256.77,262.78C257.08,263.42 257.38,264.1 257.67,264.8C257.98,265.55 258.29,266.34 258.58,267.15C258.89,268.01 259.19,268.9 259.48,269.81C259.79,270.77 260.08,271.77 260.38,272.79C260.69,273.86 260.99,274.96 261.29,276.07C261.6,277.21 261.89,278.41 262.19,279.56C262.49,280.7 262.79,281.83 263.1,282.94C263.4,284.02 263.7,285.08 264,286.14C264.3,287.2 264.59,288.28 264.9,289.3C265.2,290.28 265.49,291.25 265.81,292.15C266.1,292.98 266.41,293.72 266.71,294.5C267.01,295.29 267.31,296.12 267.62,296.87C267.91,297.57 268.21,298.24 268.52,298.88C268.81,299.49 269.11,300.08 269.42,300.64C269.71,301.17 270.01,301.69 270.33,302.14C270.62,302.55 270.91,302.95 271.23,303.25C271.51,303.51 271.82,303.76 272.14,303.88C272.43,303.99 272.75,304.05 273.04,304C273.35,303.95 273.68,303.8 273.95,303.57C274.3,303.28 274.57,302.76 274.85,302.26C275.18,301.67 275.46,300.93 275.75,300.21C276.06,299.43 276.37,298.6 276.66,297.74C276.97,296.83 277.27,295.88 277.56,294.9C277.87,293.87 278.17,292.8 278.47,291.72C278.78,290.6 279.07,289.44 279.37,288.28C279.67,287.09 279.97,285.87 280.27,284.65C280.57,283.41 280.88,282.15 281.18,280.9C281.48,279.65 281.78,278.39 282.08,277.15C282.38,275.93 282.68,274.71 282.99,273.52C283.29,272.36 283.59,271.21 283.89,270.08C284.19,268.99 284.48,267.91 284.79,266.85C285.09,265.83 285.39,264.82 285.7,263.84C286,262.89 286.29,261.96 286.6,261.05C286.9,260.17 287.2,259.3 287.51,258.45C287.81,257.63 288.1,256.83 288.41,256.05C288.71,255.3 289.01,254.56 289.32,253.84C289.62,253.15 289.91,252.47 290.22,251.82C290.51,251.19 290.81,250.58 291.12,249.99C291.42,249.43 291.72,248.89 292.03,248.36C292.33,247.85 292.63,247.37 292.93,246.89C293.23,246.42 293.54,245.98 293.84,245.51C294.15,245.02 294.44,244.51 294.74,244.01C295.04,243.51 295.34,243 295.64,242.5C295.94,242.01 296.25,241.53 296.55,241.05C296.85,240.58 297.15,240.12 297.45,239.66C297.75,239.21 298.06,238.76 298.36,238.31C298.66,237.86 298.96,237.41 299.26,236.96C299.56,236.51 299.86,236.05 300.16,235.59C300.46,235.12 300.77,234.66 301.07,234.18C301.37,233.69 301.67,233.2 301.97,232.69C302.28,232.17 302.58,231.65 302.88,231.1C303.19,230.54 303.49,229.96 303.78,229.36C304.09,228.74 304.39,228.1 304.68,227.44C304.99,226.75 305.29,226.03 305.59,225.29C305.9,224.52 306.19,223.71 306.49,222.89C306.8,222.03 307.1,221.15 307.4,220.24C307.71,219.3 308,218.32 308.3,217.34C308.61,216.33 308.91,215.29 309.21,214.25C309.52,213.18 309.81,212.09 310.11,211C310.41,209.89 310.71,208.77 311.01,207.64C311.31,206.49 311.62,205.34 311.92,204.17C312.23,202.97 312.52,201.75 312.82,200.5C313.13,199.2 313.43,197.85 313.73,196.52C314.03,195.17 314.33,193.8 314.63,192.45C314.93,191.12 315.23,189.79 315.53,188.49C315.83,187.21 316.13,185.94 316.44,184.7C316.74,183.5 317.03,182.31 317.34,181.15C317.64,180.04 317.94,178.94 318.25,177.88C318.54,176.87 318.84,175.88 319.15,174.93C319.44,174.03 319.74,173.16 320.05,172.33C320.34,171.56 320.64,170.81 320.96,170.11C321.25,169.47 321.54,168.85 321.86,168.29C322.15,167.79 322.45,167.31 322.77,166.91C323.06,166.55 323.35,166.21 323.67,165.97C323.96,165.75 324.27,165.56 324.58,165.48C324.87,165.4 325.19,165.39 325.48,165.45C325.79,165.51 326.09,165.68 326.38,165.88C326.7,166.1 327,166.42 327.29,166.76C327.61,167.14 327.9,167.6 328.19,168.07C328.51,168.59 328.81,169.18 329.1,169.78C329.41,170.43 329.71,171.14 330,171.86C330.31,172.63 330.6,173.44 330.9,174.26C331.21,175.12 331.51,176.01 331.81,176.91C332.12,177.84 332.41,178.8 332.71,179.76C333.02,180.74 333.32,181.74 333.62,182.75C333.92,183.78 334.22,184.82 334.52,185.87C334.82,186.93 335.12,188.01 335.42,189.08C335.72,190.16 336.03,191.25 336.33,192.34C336.63,193.43 336.93,194.53 337.23,195.62C337.53,196.7 337.84,197.78 338.14,198.84C338.44,199.88 338.73,200.93 339.04,201.94C339.34,202.92 339.64,203.9 339.95,204.84C340.24,205.74 340.54,206.62 340.85,207.46C341.14,208.25 341.44,209.02 341.75,209.74C342.04,210.41 342.34,211.04 342.66,211.63C342.95,212.17 343.24,212.68 343.56,213.15C343.85,213.58 344.16,213.97 344.47,214.33C344.76,214.66 345.06,214.95 345.37,215.22C345.66,215.47 345.96,215.7 346.27,215.9C346.57,216.09 346.87,216.26 347.18,216.41C347.48,216.56 347.78,216.69 348.08,216.8C348.38,216.91 348.69,217 348.99,217.07C349.29,217.14 349.59,217.19 349.89,217.22C350.19,217.25 350.49,217.25 350.79,217.23C351.09,217.21 351.4,217.15 351.7,217.07C352,216.99 352.3,216.88 352.6,216.76C352.91,216.63 353.21,216.48 353.51,216.31C353.82,216.14 354.11,215.95 354.41,215.74C354.72,215.53 355.02,215.3 355.32,215.05C355.63,214.79 355.93,214.52 356.22,214.23C356.53,213.93 356.82,213.6 357.12,213.27C357.43,212.93 357.73,212.57 358.03,212.2C358.34,211.81 358.63,211.4 358.93,210.99C359.24,210.56 359.54,210.13 359.84,209.68C360.15,209.22 360.44,208.74 360.74,208.25C361.04,207.75 361.34,207.23 361.64,206.7C361.95,206.16 362.25,205.61 362.55,205.04C362.86,204.45 363.15,203.86 363.45,203.24C363.76,202.6 364.06,201.95 364.36,201.27C364.67,200.57 364.97,199.84 365.26,199.1C365.57,198.32 365.87,197.52 366.16,196.69C366.47,195.82 366.78,194.92 367.07,193.99C367.38,193.01 367.68,192 367.97,190.95C368.28,189.85 368.59,188.7 368.88,187.53C369.19,186.3 369.49,185.03 369.78,183.74C370.09,182.39 370.38,180.99 370.68,179.58C370.99,178.12 371.29,176.63 371.59,175.12C371.9,173.57 372.19,171.99 372.49,170.41C372.79,168.81 373.1,167.19 373.4,165.57C373.7,163.94 374,162.29 374.3,160.66C374.6,159.03 374.91,157.4 375.21,155.79C375.51,154.2 375.81,152.61 376.11,151.04C376.41,149.51 376.7,147.98 377.01,146.49C377.31,145.04 377.61,143.61 377.92,142.21C378.22,140.87 378.51,139.54 378.82,138.26C379.11,137.04 379.42,135.84 379.73,134.7C380.02,133.63 380.32,132.58 380.63,131.59C380.92,130.68 381.21,129.79 381.53,128.97C381.82,128.23 382.12,127.52 382.44,126.89C382.72,126.34 383.01,125.8 383.34,125.38C383.62,125.02 383.92,124.66 384.25,124.46C384.53,124.29 384.85,124.16 385.15,124.17C385.45,124.18 385.77,124.33 386.05,124.52C386.38,124.74 386.68,125.11 386.96,125.5C387.29,125.96 387.58,126.53 387.86,127.13C388.19,127.82 388.48,128.6 388.77,129.42C389.09,130.34 389.38,131.33 389.67,132.37C389.99,133.51 390.29,134.73 390.58,136C390.9,137.37 391.19,138.83 391.48,140.32C391.79,141.92 392.09,143.6 392.38,145.32C392.69,147.15 393,149.05 393.29,151C393.6,153.05 393.9,155.18 394.19,157.34C394.5,159.61 394.8,161.94 395.1,164.31C395.41,166.78 395.71,169.31 396,171.88C396.31,174.54 396.6,177.27 396.9,180.02C397.21,182.86 397.51,185.75 397.81,188.67C398.12,191.67 398.41,194.71 398.71,197.78C399.01,200.92 399.32,204.09 399.62,207.29C399.92,210.54 400.22,213.82 400.52,217.11C400.82,220.44 401.12,223.8 401.42,227.16C401.72,230.53 402.03,233.92 402.33,237.29C402.63,240.65 402.93,244.02 403.23,247.34C403.53,250.6 403.83,253.86 404.14,257.02C404.44,260.07 404.73,263.09 405.04,265.99C405.33,268.73 405.63,271.44 405.95,273.97C406.24,276.28 406.52,278.6 406.85,280.58C407.13,282.21 407.31,284.04 407.75,285.03C408.01,285.61 408.4,286.31 408.66,286.26C409.04,286.19 409.3,284.41 409.56,283.19C409.94,281.44 410.18,278.99 410.47,276.71C410.79,274.16 411.08,271.38 411.37,268.61C411.68,265.7 411.97,262.68 412.27,259.66C412.58,256.58 412.88,253.43 413.18,250.3C413.48,247.15 413.78,243.98 414.08,240.83C414.38,237.69 414.69,234.55 414.99,231.44C415.29,228.37 415.59,225.3 415.89,222.27C416.19,219.29 416.48,216.33 416.79,213.42C417.09,210.57 417.39,207.75 417.7,204.98C418,202.28 418.29,199.62 418.6,197C418.9,194.47 419.2,191.97 419.51,189.52C419.81,187.16 420.1,184.83 420.41,182.55C420.71,180.36 421.01,178.21 421.32,176.11C421.62,174.09 421.91,172.12 422.22,170.19C422.51,168.34 422.81,166.52 423.12,164.75C423.42,163.05 423.72,161.4 424.03,159.78C424.33,158.23 424.62,156.71 424.93,155.23C425.23,153.81 425.53,152.43 425.84,151.08C426.14,149.79 426.43,148.52 426.74,147.29C427.03,146.12 427.33,144.98 427.64,143.88C427.93,142.84 428.24,141.81 428.55,140.84C428.84,139.93 429.13,139.05 429.45,138.22C429.74,137.46 430.04,136.72 430.36,136.05C430.65,135.45 430.94,134.86 431.26,134.37C431.54,133.94 431.83,133.53 432.16,133.23C432.44,132.97 432.75,132.74 433.07,132.65C433.36,132.57 433.68,132.58 433.97,132.67C434.29,132.77 434.6,133.02 434.88,133.29C435.21,133.61 435.5,134.06 435.78,134.52C436.11,135.06 436.39,135.69 436.68,136.35C437,137.08 437.3,137.89 437.59,138.73C437.91,139.65 438.2,140.64 438.49,141.65C438.8,142.73 439.11,143.86 439.4,145.02C439.71,146.24 440,147.5 440.3,148.78C440.61,150.1 440.91,151.45 441.21,152.81C441.51,154.19 441.81,155.6 442.11,156.99C442.41,158.38 442.7,159.78 443.01,161.15C443.31,162.48 443.61,163.82 443.92,165.09C444.21,166.29 444.5,167.49 444.82,168.59C445.11,169.59 445.4,170.57 445.73,171.42C446.01,172.14 446.28,172.86 446.63,173.37C446.9,173.76 447.2,174.18 447.53,174.29C447.81,174.39 448.16,174.32 448.44,174.17C448.78,173.98 449.06,173.5 449.34,173.06C449.68,172.52 449.96,171.82 450.25,171.12C450.57,170.33 450.86,169.45 451.15,168.56C451.46,167.61 451.75,166.61 452.05,165.61C452.36,164.58 452.66,163.52 452.96,162.47C453.26,161.42 453.56,160.35 453.86,159.3C454.16,158.27 454.46,157.25 454.77,156.25C455.07,155.29 455.36,154.34 455.67,153.43C455.96,152.56 456.27,151.72 456.58,150.91C456.87,150.16 457.17,149.42 457.48,148.74C457.77,148.11 458.06,147.52 458.38,146.97C458.67,146.47 458.97,146 459.29,145.59C459.58,145.22 459.87,144.87 460.19,144.6C460.48,144.35 460.79,144.14 461.1,143.99Q461.39,143.85 462,143.7" style="vector-effect: non-scaling-stroke; fill: none; stroke: rgb(231, 107, 243); stroke-opacity: 1; stroke-width: 2px; opacity: 1;"/></g><g class="points"/><g class="text"/></g></g></g><g class="overplot"/><path class="xlines-above crisp" d="M0,0" style="fill: none;"/><path class="ylines-above crisp" d="M0,0" style="fill: none;"/><g class="overlines-above"/><g class="xaxislayer-above"><g class="xtick"><text text-anchor="middle" x="0" y="433" transform="translate(80,0)" style="font-family: 'Open Sans', verdana, arial, sans-serif; font-size: 12px; fill: rgb(42, 63, 95); fill-opacity: 1; white-space: pre;">0</text></g><g class="xtick"><text text-anchor="middle" x="0" y="433" transform="translate(170.23000000000002,0)" style="font-family: 'Open Sans', verdana, arial, sans-serif; font-size: 12px; fill: rgb(42, 63, 95); fill-opacity: 1; white-space: pre;">100</text></g><g class="xtick"><text text-anchor="middle" x="0" y="433" transform="translate(260.47,0)" style="font-family: 'Open Sans', verdana, arial, sans-serif; font-size: 12px; fill: rgb(42, 63, 95); fill-opacity: 1; white-space: pre;">200</text></g><g class="xtick"><text text-anchor="middle" x="0" y="433" transform="translate(350.7,0)" style="font-family: 'Open Sans', verdana, arial, sans-serif; font-size: 12px; fill: rgb(42, 63, 95); fill-opacity: 1; white-space: pre;">300</text></g><g class="xtick"><text text-anchor="middle" x="0" y="433" transform="translate(440.94,0)" style="font-family: 'Open Sans', verdana, arial, sans-serif; font-size: 12px; fill: rgb(42, 63, 95); fill-opacity: 1; white-space: pre;">400</text></g><g class="xtick"><text text-anchor="middle" x="0" y="433" transform="translate(531.1700000000001,0)" style="font-family: 'Open Sans', verdana, arial, sans-serif; font-size: 12px; fill: rgb(42, 63, 95); fill-opacity: 1; white-space: pre;">500</text></g></g><g class="yaxislayer-above"><g class="ytick"><text text-anchor="end" x="79" y="4.199999999999999" transform="translate(0,399.05)" style="font-family: 'Open Sans', verdana, arial, sans-serif; font-size: 12px; fill: rgb(42, 63, 95); fill-opacity: 1; white-space: pre;">10</text></g><g class="ytick"><text text-anchor="end" x="79" y="4.199999999999999" transform="translate(0,354.21000000000004)" style="font-family: 'Open Sans', verdana, arial, sans-serif; font-size: 12px; fill: rgb(42, 63, 95); fill-opacity: 1; white-space: pre;">20</text></g><g class="ytick"><text text-anchor="end" x="79" y="4.199999999999999" transform="translate(0,309.36)" style="font-family: 'Open Sans', verdana, arial, sans-serif; font-size: 12px; fill: rgb(42, 63, 95); fill-opacity: 1; white-space: pre;">30</text></g><g class="ytick"><text text-anchor="end" x="79" y="4.199999999999999" transform="translate(0,264.51)" style="font-family: 'Open Sans', verdana, arial, sans-serif; font-size: 12px; fill: rgb(42, 63, 95); fill-opacity: 1; white-space: pre;">40</text></g><g class="ytick"><text text-anchor="end" x="79" y="4.199999999999999" transform="translate(0,219.67000000000002)" style="font-family: 'Open Sans', verdana, arial, sans-serif; font-size: 12px; fill: rgb(42, 63, 95); fill-opacity: 1; white-space: pre;">50</text></g><g class="ytick"><text text-anchor="end" x="79" y="4.199999999999999" transform="translate(0,174.82)" style="font-family: 'Open Sans', verdana, arial, sans-serif; font-size: 12px; fill: rgb(42, 63, 95); fill-opacity: 1; white-space: pre;">60</text></g><g class="ytick"><text text-anchor="end" x="79" y="4.199999999999999" transform="translate(0,129.98)" style="font-family: 'Open Sans', verdana, arial, sans-serif; font-size: 12px; fill: rgb(42, 63, 95); fill-opacity: 1; white-space: pre;">70</text></g></g><g class="overaxes-above"/></g></g><g class="polarlayer"/><g class="ternarylayer"/><g class="geolayer"/><g class="funnelarealayer"/><g class="pielayer"/><g class="treemaplayer"/><g class="sunburstlayer"/><g class="glimages"/><defs id="topdefs-5476a8"><g class="clips"/><clipPath id="legend5476a8"><rect width="137" height="67" x="0" y="0"/></clipPath></defs><g class="layer-above"><g class="imagelayer"/><g class="shapelayer"/></g><g class="infolayer"><g class="legend" pointer-events="all" transform="translate(551.24, 100)"><rect class="bg" shape-rendering="crispEdges" style="stroke: rgb(68, 68, 68); stroke-opacity: 1; fill: rgb(255, 255, 255); fill-opacity: 1; stroke-width: 0px;" width="137" height="67" x="0" y="0"/><g class="scrollbox" transform="translate(0, 0)" clip-path="url('#legend5476a8')"><g class="groups"><g class="traces" transform="translate(0, 14.5)" style="opacity: 1;"><text class="legendtext" text-anchor="start" x="40" y="4.680000000000001" style="font-family: 'Open Sans', verdana, arial, sans-serif; font-size: 12px; fill: rgb(42, 63, 95); fill-opacity: 1; white-space: pre;">Average Class I</text><g class="layers" style="opacity: 1;"><g class="legendfill"/><g class="legendlines"><path class="js-line" d="M5,0h30" style="fill: none; stroke: rgb(0, 100, 80); stroke-opacity: 1; stroke-width: 2px;"/></g><g class="legendsymbols"><g class="legendpoints"/></g></g><rect class="legendtoggle" x="0" y="-9.5" width="131.15625" height="19" style="fill: rgb(0, 0, 0); fill-opacity: 0;"/></g><g class="traces" transform="translate(0, 33.5)" style="opacity: 1;"><text class="legendtext" text-anchor="start" x="40" y="4.680000000000001" style="font-family: 'Open Sans', verdana, arial, sans-serif; font-size: 12px; fill: rgb(42, 63, 95); fill-opacity: 1; white-space: pre;">Average Class II</text><g class="layers" style="opacity: 1;"><g class="legendfill"/><g class="legendlines"><path class="js-line" d="M5,0h30" style="fill: none; stroke: rgb(0, 176, 246); stroke-opacity: 1; stroke-width: 2px;"/></g><g class="legendsymbols"><g class="legendpoints"/></g></g><rect class="legendtoggle" x="0" y="-9.5" width="131.15625" height="19" style="fill: rgb(0, 0, 0); fill-opacity: 0;"/></g><g class="traces" transform="translate(0, 52.5)" style="opacity: 1;"><text class="legendtext" text-anchor="start" x="40" y="4.680000000000001" style="font-family: 'Open Sans', verdana, arial, sans-serif; font-size: 12px; fill: rgb(42, 63, 95); fill-opacity: 1; white-space: pre;">Average Class III</text><g class="layers" style="opacity: 1;"><g class="legendfill"/><g class="legendlines"><path class="js-line" d="M5,0h30" style="fill: none; stroke: rgb(231, 107, 243); stroke-opacity: 1; stroke-width: 2px;"/></g><g class="legendsymbols"><g class="legendpoints"/></g></g><rect class="legendtoggle" x="0" y="-9.5" width="131.15625" height="19" style="fill: rgb(0, 0, 0); fill-opacity: 0;"/></g></g></g><rect class="scrollbar" rx="20" ry="3" width="0" height="0" style="fill: rgb(128, 139, 164); fill-opacity: 1;" x="0" y="0"/></g><g class="g-gtitle"><text class="gtitle" x="35" y="50" text-anchor="start" dy="0em" style="font-family: 'Open Sans', verdana, arial, sans-serif; font-size: 17px; fill: rgb(42, 63, 95); opacity: 1; font-weight: normal; white-space: pre;">Average curve: alpha-structure_group</text></g><g class="g-xtitle"><text class="xtitle" x="311" y="460.8" text-anchor="middle" style="font-family: 'Open Sans', verdana, arial, sans-serif; font-size: 14px; fill: rgb(42, 63, 95); opacity: 1; font-weight: normal; white-space: pre;">Domain</text></g><g class="g-ytitle"><text class="ytitle" transform="rotate(-90,40.840625,260)" x="40.840625" y="260" text-anchor="middle" style="font-family: 'Open Sans', verdana, arial, sans-serif; font-size: 14px; fill: rgb(42, 63, 95); opacity: 1; font-weight: normal; white-space: pre;">Frequency</text></g></g></svg>