<svg class="main-svg" xmlns="http://www.w3.org/2000/svg" xmlns:xlink="http://www.w3.org/1999/xlink" width="700" height="500" style="" viewBox="0 0 700 500"><rect x="0" y="0" width="700" height="500" style="fill: rgb(255, 255, 255); fill-opacity: 1;"/><defs id="defs-b85635"><g class="clips"><clipPath id="clipb85635xyplot" class="plotclip"><rect width="462" height="320"/></clipPath><clipPath class="axesclip" id="clipb85635x"><rect x="80" y="0" width="462" height="500"/></clipPath><clipPath class="axesclip" id="clipb85635y"><rect x="0" y="100" width="700" height="320"/></clipPath><clipPath class="axesclip" id="clipb85635xy"><rect x="80" y="100" width="462" height="320"/></clipPath></g><g class="gradients"/></defs><g class="bglayer"><rect class="bg" x="80" y="100" width="462" height="320" style="fill: rgb(229, 236, 246); fill-opacity: 1; stroke-width: 0;"/></g><g class="layer-below"><g class="imagelayer"/><g class="shapelayer"/></g><g class="cartesianlayer"><g class="subplot xy"><g class="layer-subplot"><g class="shapelayer"/><g class="imagelayer"/></g><g class="gridlayer"><g class="x"><path class="xgrid crisp" transform="translate(170.23000000000002,0)" d="M0,100v320" style="stroke: rgb(255, 255, 255); stroke-opacity: 1; stroke-width: 1px;"/><path class="xgrid crisp" transform="translate(260.47,0)" d="M0,100v320" style="stroke: rgb(255, 255, 255); stroke-opacity: 1; stroke-width: 1px;"/><path class="xgrid crisp" transform="translate(350.7,0)" d="M0,100v320" style="stroke: rgb(255, 255, 255); stroke-opacity: 1; stroke-width: 1px;"/><path class="xgrid crisp" transform="translate(440.94,0)" d="M0,100v320" style="stroke: rgb(255, 255, 255); stroke-opacity: 1; stroke-width: 1px;"/><path class="xgrid crisp" transform="translate(531.1700000000001,0)" d="M0,100v320" style="stroke: rgb(255, 255, 255); stroke-opacity: 1; stroke-width: 1px;"/></g><g class="y"><path class="ygrid crisp" transform="translate(0,405.3)" d="M80,0h462" style="stroke: rgb(255, 255, 255); stroke-opacity: 1; stroke-width: 1px;"/><path class="ygrid crisp" transform="translate(0,344.45)" d="M80,0h462" style="stroke: rgb(255, 255, 255); stroke-opacity: 1; stroke-width: 1px;"/><path class="ygrid crisp" transform="translate(0,283.59000000000003)" d="M80,0h462" style="stroke: rgb(255, 255, 255); stroke-opacity: 1; stroke-width: 1px;"/><path class="ygrid crisp" transform="translate(0,222.73000000000002)" d="M80,0h462" style="stroke: rgb(255, 255, 255); stroke-opacity: 1; stroke-width: 1px;"/><path class="ygrid crisp" transform="translate(0,161.88)" d="M80,0h462" style="stroke: rgb(255, 255, 255); stroke-opacity: 1; stroke-width: 1px;"/><path class="ygrid crisp" transform="translate(0,101.02)" d="M80,0h462" style="stroke: rgb(255, 255, 255); stroke-opacity: 1; stroke-width: 1px;"/></g></g><g class="zerolinelayer"><path class="xzl zl crisp" transform="translate(80,0)" d="M0,100v320" style="stroke: rgb(255, 255, 255); stroke-opacity: 1; stroke-width: 2px;"/></g><path class="xlines-below"/><path class="ylines-below"/><g class="overlines-below"/><g class="xaxislayer-below"/><g class="yaxislayer-below"/><g class="overaxes-below"/><g class="plot" transform="translate(80, 100)" clip-path="url('#clipb85635xyplot')"><g class="scatterlayer mlayer"><g class="trace scatter tracedd4038" style="stroke-miterlimit: 2; opacity: 1;"><g class="fills"/><g class="errorbars"/><g class="lines"><path class="js-line" d="M0,280.63Q0.63,280.3 0.9,279.98C1.27,279.54 1.53,278.81 1.81,278.1C2.15,277.22 2.43,276.15 2.71,275.06C3.04,273.8 3.33,272.4 3.62,270.96C3.94,269.36 4.23,267.64 4.52,265.87C4.83,263.95 5.13,261.92 5.42,259.85C5.73,257.63 6.04,255.33 6.33,252.97C6.64,250.49 6.93,247.93 7.23,245.32C7.54,242.6 7.84,239.8 8.14,236.96C8.45,234.02 8.74,231.02 9.04,227.98C9.35,224.85 9.65,221.67 9.95,218.46C10.26,215.17 10.55,211.84 10.85,208.48C11.15,205.06 11.45,201.6 11.75,198.13C12.05,194.61 12.36,191.06 12.66,187.5C12.96,183.9 13.26,180.28 13.56,176.66C13.86,173.02 14.17,169.36 14.47,165.71C14.77,162.06 15.07,158.39 15.37,154.74C15.67,151.1 15.97,147.46 16.27,143.84C16.57,140.25 16.88,136.66 17.18,133.11C17.48,129.6 17.78,126.1 18.08,122.65C18.38,119.26 18.68,115.89 18.99,112.57C19.29,109.33 19.59,106.11 19.89,102.96C20.19,99.9 20.48,96.87 20.79,93.91C21.09,91.06 21.39,88.24 21.7,85.51C21.99,82.9 22.29,80.34 22.6,77.86C22.89,75.51 23.2,73.21 23.51,71.01C23.8,68.95 24.09,66.95 24.41,65.05C24.7,63.3 25,61.6 25.32,60.02C25.61,58.59 25.9,57.22 26.22,55.97C26.5,54.88 26.79,53.84 27.12,52.94C27.4,52.19 27.68,51.46 28.03,50.94C28.3,50.54 28.6,50.12 28.93,50C29.21,49.9 29.57,49.95 29.84,50.1C30.18,50.29 30.47,50.76 30.74,51.22C31.09,51.8 31.36,52.57 31.64,53.35C31.97,54.27 32.26,55.33 32.55,56.43C32.87,57.67 33.16,59.02 33.45,60.41C33.77,61.93 34.07,63.54 34.36,65.2C34.67,66.98 34.97,68.83 35.26,70.73C35.57,72.73 35.86,74.8 36.16,76.9C36.47,79.09 36.77,81.33 37.07,83.6C37.38,85.93 37.67,88.3 37.97,90.69C38.27,93.12 38.58,95.59 38.88,98.05C39.18,100.53 39.48,103.04 39.78,105.52C40.08,108 40.38,110.48 40.68,112.93C40.98,115.33 41.28,117.73 41.59,120.06C41.89,122.29 42.18,124.5 42.49,126.62C42.78,128.62 43.09,130.56 43.4,132.43C43.69,134.18 43.99,135.88 44.3,137.5C44.59,139 44.89,140.46 45.21,141.83C45.5,143.09 45.79,144.3 46.11,145.42C46.4,146.42 46.69,147.38 47.01,148.24C47.3,149 47.59,149.72 47.92,150.35C48.2,150.89 48.49,151.39 48.82,151.8C49.1,152.16 49.41,152.47 49.73,152.7C50.02,152.91 50.32,153.06 50.63,153.16C50.92,153.25 51.23,153.28 51.53,153.29C51.83,153.3 52.14,153.26 52.44,153.22C52.74,153.18 53.04,153.11 53.34,153.07C53.64,153.03 53.95,152.97 54.25,152.96C54.55,152.95 54.85,152.94 55.15,152.99C55.45,153.04 55.76,153.13 56.05,153.26C56.36,153.4 56.67,153.6 56.96,153.84C57.28,154.1 57.57,154.43 57.86,154.79C58.18,155.19 58.48,155.65 58.77,156.15C59.09,156.7 59.38,157.32 59.67,157.96C59.99,158.66 60.29,159.42 60.58,160.2C60.89,161.05 61.19,161.95 61.48,162.88C61.79,163.87 62.09,164.9 62.38,165.96C62.69,167.08 62.99,168.23 63.29,169.41C63.6,170.64 63.89,171.92 64.19,173.21C64.5,174.55 64.8,175.93 65.1,177.33C65.41,178.77 65.7,180.25 66,181.74C66.3,183.28 66.6,184.84 66.9,186.43C67.21,188.06 67.51,189.72 67.81,191.39C68.12,193.1 68.41,194.84 68.71,196.59C69.01,198.38 69.32,200.18 69.62,202C69.92,203.85 70.22,205.72 70.52,207.6C70.82,209.5 71.12,211.42 71.42,213.35C71.72,215.29 72.03,217.25 72.33,219.21C72.63,221.18 72.93,223.16 73.23,225.14C73.53,227.12 73.84,229.11 74.14,231.09C74.44,233.07 74.74,235.04 75.04,237.01C75.34,238.96 75.65,240.91 75.95,242.85C76.25,244.77 76.55,246.69 76.85,248.59C77.15,250.47 77.45,252.34 77.75,254.19C78.05,256.02 78.36,257.84 78.66,259.65C78.96,261.43 79.26,263.2 79.56,264.96C79.86,266.69 80.17,268.41 80.47,270.12C80.77,271.8 81.07,273.47 81.37,275.12C81.67,276.74 81.96,278.37 82.27,279.94C82.57,281.44 82.87,282.91 83.18,284.33C83.47,285.67 83.77,286.97 84.08,288.23C84.37,289.43 84.67,290.62 84.99,291.73C85.28,292.75 85.58,293.71 85.89,294.63C86.18,295.47 86.48,296.27 86.79,297.04C87.08,297.75 87.39,298.44 87.7,299.08C87.99,299.67 88.28,300.24 88.6,300.76C88.89,301.24 89.19,301.7 89.51,302.1C89.8,302.46 90.09,302.8 90.41,303.08C90.7,303.33 91.01,303.55 91.32,303.71C91.61,303.85 91.92,303.97 92.22,304C92.52,304.03 92.83,304.01 93.12,303.91C93.44,303.8 93.75,303.59 94.03,303.34C94.36,303.05 94.65,302.63 94.93,302.21C95.25,301.73 95.55,301.15 95.84,300.58C96.15,299.96 96.45,299.29 96.74,298.62C97.05,297.91 97.34,297.18 97.64,296.43C97.95,295.66 98.25,294.86 98.55,294.05C98.86,293.22 99.15,292.37 99.45,291.51C99.76,290.62 100.06,289.72 100.36,288.81C100.67,287.87 100.96,286.92 101.26,285.95C101.56,284.96 101.86,283.96 102.16,282.95C102.47,281.91 102.77,280.86 103.07,279.8C103.37,278.71 103.67,277.61 103.97,276.5C104.27,275.37 104.58,274.22 104.88,273.07C105.18,271.9 105.48,270.72 105.78,269.53C106.08,268.33 106.38,267.13 106.68,265.92C106.98,264.7 107.29,263.48 107.59,262.25C107.89,261.02 108.19,259.79 108.49,258.56C108.79,257.32 109.1,256.07 109.4,254.82C109.7,253.56 110,252.3 110.3,251.04C110.6,249.77 110.91,248.49 111.21,247.21C111.51,245.92 111.81,244.62 112.11,243.31C112.41,241.99 112.71,240.67 113.01,239.34C113.31,237.99 113.62,236.64 113.92,235.28C114.22,233.9 114.52,232.51 114.82,231.12C115.12,229.71 115.43,228.3 115.73,226.88C116.03,225.45 116.33,224.01 116.63,222.56C116.93,221.1 117.23,219.64 117.53,218.17C117.83,216.7 118.14,215.22 118.44,213.74C118.74,212.26 119.04,210.78 119.34,209.3C119.64,207.82 119.95,206.34 120.25,204.87C120.55,203.41 120.85,201.95 121.15,200.5C121.45,199.07 121.75,197.64 122.05,196.22C122.35,194.83 122.66,193.44 122.96,192.07C123.26,190.73 123.55,189.39 123.86,188.08C124.16,186.8 124.46,185.53 124.77,184.29C125.07,183.09 125.36,181.9 125.67,180.74C125.97,179.62 126.27,178.52 126.58,177.45C126.88,176.43 127.17,175.43 127.48,174.46C127.77,173.54 128.07,172.64 128.38,171.78C128.67,170.97 128.98,170.18 129.29,169.44C129.58,168.75 129.87,168.08 130.19,167.46C130.48,166.89 130.78,166.35 131.1,165.86C131.39,165.42 131.68,165 132,164.65C132.29,164.33 132.58,164.04 132.9,163.83C133.19,163.64 133.5,163.48 133.81,163.42C134.1,163.36 134.42,163.37 134.71,163.43C135.02,163.5 135.33,163.65 135.62,163.84C135.94,164.05 136.24,164.35 136.52,164.67C136.84,165.03 137.13,165.46 137.42,165.91C137.74,166.41 138.04,166.97 138.33,167.56C138.65,168.2 138.94,168.89 139.23,169.6C139.54,170.37 139.84,171.18 140.14,172.01C140.45,172.87 140.74,173.79 141.04,174.68C141.34,175.58 141.65,176.46 141.95,177.38C142.26,178.33 142.56,179.29 142.85,180.28C143.16,181.33 143.45,182.41 143.75,183.51C144.06,184.66 144.36,185.85 144.66,187.06C144.97,188.32 145.26,189.62 145.56,190.94C145.87,192.32 146.17,193.73 146.47,195.17C146.78,196.66 147.08,198.18 147.37,199.72C147.68,201.32 147.97,202.95 148.27,204.61C148.58,206.32 148.88,208.07 149.18,209.84C149.49,211.66 149.78,213.51 150.08,215.38C150.39,217.31 150.69,219.26 150.99,221.24C151.3,223.27 151.59,225.32 151.89,227.4C152.19,229.52 152.49,231.67 152.79,233.83C153.09,236.04 153.4,238.27 153.7,240.51C154,242.79 154.3,245.09 154.6,247.4C154.9,249.74 155.21,252.1 155.51,254.46C155.81,256.84 156.11,259.24 156.41,261.63C156.71,264.03 157.02,266.44 157.32,268.84C157.62,271.23 157.92,273.62 158.22,275.98C158.52,278.31 158.81,280.69 159.12,282.92C159.41,285 159.71,287.07 160.03,288.94C160.31,290.59 160.61,292.12 160.93,293.59C161.22,294.93 161.51,296.25 161.84,297.41C162.12,298.41 162.39,299.4 162.74,300.16C163.01,300.75 163.27,301.4 163.64,301.66C163.91,301.85 164.27,301.93 164.55,301.83C164.89,301.7 165.18,301.17 165.45,300.72C165.8,300.14 166.08,299.35 166.36,298.57C166.69,297.68 166.97,296.67 167.26,295.65C167.57,294.55 167.87,293.38 168.16,292.2C168.47,290.96 168.77,289.67 169.07,288.38C169.38,287.05 169.67,285.69 169.97,284.34C170.27,282.98 170.58,281.6 170.88,280.23C171.18,278.87 171.48,277.51 171.78,276.17C172.08,274.86 172.37,273.55 172.68,272.28C172.98,271.05 173.28,269.84 173.59,268.67C173.88,267.56 174.18,266.46 174.49,265.42C174.78,264.44 175.09,263.49 175.4,262.59C175.69,261.76 175.98,260.97 176.3,260.23C176.59,259.56 176.89,258.92 177.21,258.35C177.5,257.84 177.79,257.36 178.11,256.95C178.4,256.58 178.69,256.25 179.01,255.97C179.3,255.72 179.61,255.51 179.92,255.34C180.21,255.18 180.52,255.07 180.82,254.96C181.12,254.85 181.43,254.79 181.73,254.7C182.03,254.61 182.33,254.53 182.63,254.4C182.94,254.27 183.24,254.13 183.53,253.93C183.85,253.72 184.15,253.46 184.44,253.15C184.76,252.8 185.06,252.37 185.34,251.91C185.67,251.38 185.97,250.77 186.25,250.11C186.58,249.36 186.87,248.52 187.15,247.63C187.47,246.63 187.76,245.53 188.05,244.38C188.37,243.08 188.67,241.69 188.96,240.22C189.28,238.58 189.57,236.82 189.86,235C190.18,233.01 190.48,230.88 190.77,228.73C191.08,226.46 191.37,224.09 191.67,221.72C191.98,219.28 192.28,216.79 192.58,214.3C192.88,211.78 193.18,209.24 193.48,206.71C193.78,204.19 194.08,201.65 194.38,199.15C194.68,196.69 194.98,194.23 195.29,191.82C195.59,189.47 195.88,187.14 196.19,184.87C196.49,182.69 196.79,180.54 197.1,178.46C197.39,176.49 197.69,174.56 198,172.72C198.29,171.01 198.58,169.34 198.9,167.77C199.19,166.35 199.49,164.97 199.81,163.71C200.09,162.61 200.37,161.54 200.71,160.63C200.99,159.88 201.26,159.13 201.62,158.61C201.89,158.22 202.19,157.79 202.52,157.7C202.8,157.62 203.15,157.74 203.42,157.94C203.78,158.2 204.06,158.8 204.33,159.36C204.68,160.08 204.95,161.01 205.23,161.97C205.56,163.11 205.86,164.41 206.14,165.76C206.46,167.3 206.75,168.98 207.04,170.72C207.36,172.64 207.66,174.69 207.95,176.8C208.26,179.09 208.56,181.49 208.85,183.95C209.16,186.57 209.46,189.31 209.75,192.09C210.06,195.01 210.36,198.03 210.66,201.09C210.97,204.26 211.26,207.52 211.56,210.79C211.87,214.14 212.17,217.55 212.47,220.95C212.77,224.37 213.07,227.85 213.37,231.26C213.67,234.62 213.96,238.01 214.27,241.26C214.56,244.36 214.86,247.46 215.18,250.32C215.47,252.9 215.74,255.49 216.08,257.68C216.36,259.46 216.57,261.36 216.99,262.49C217.25,263.17 217.61,264.04 217.89,264.02C218.22,264 218.53,262.72 218.79,261.77C219.2,260.24 219.42,257.89 219.7,255.6C220.04,252.73 220.31,249.32 220.6,245.89C220.92,242.03 221.22,237.8 221.51,233.57C221.82,229.07 222.11,224.37 222.41,219.65C222.72,214.78 223.02,209.79 223.32,204.8C223.62,199.73 223.92,194.59 224.22,189.47C224.52,184.32 224.82,179.13 225.12,173.98C225.42,168.84 225.73,163.7 226.03,158.6C226.33,153.55 226.63,148.5 226.93,143.51C227.23,138.6 227.53,133.72 227.84,128.91C228.14,124.21 228.44,119.55 228.74,114.97C229.04,110.53 229.33,106.14 229.64,101.86C229.94,97.75 230.24,93.69 230.55,89.76C230.84,86.03 231.14,82.36 231.45,78.85C231.74,75.56 232.04,72.34 232.36,69.3C232.65,66.51 232.94,63.79 233.26,61.28C233.54,59.04 233.83,56.88 234.16,54.95C234.44,53.31 234.72,51.72 235.07,50.43C235.34,49.44 235.56,48.36 235.97,47.85C236.23,47.53 236.61,47.22 236.88,47.29C237.23,47.38 237.52,48.16 237.78,48.8C238.16,49.73 238.41,51.08 238.68,52.44C239.02,54.14 239.31,56.13 239.59,58.21C239.92,60.63 240.2,63.31 240.49,66.09C240.81,69.21 241.11,72.57 241.4,76.04C241.72,79.84 242.01,83.86 242.3,87.99C242.61,92.43 242.92,97.07 243.21,101.81C243.52,106.84 243.82,112.05 244.11,117.35C244.42,122.9 244.71,128.62 245.01,134.41C245.32,140.4 245.62,146.53 245.92,152.69C246.23,159 246.52,165.42 246.82,171.83C247.12,178.3 247.43,184.85 247.73,191.32C248.03,197.72 248.32,204.19 248.63,210.44C248.92,216.46 249.21,222.52 249.53,228.18C249.82,233.38 250.11,238.6 250.44,243.15C250.72,246.96 250.94,250.88 251.34,253.64C251.6,255.46 251.86,258.09 252.25,258.14C252.51,258.17 252.9,257.14 253.15,256.28C253.63,254.62 253.78,251.57 254.05,248.64C254.41,244.68 254.67,239.61 254.96,234.67C255.28,229.08 255.57,222.94 255.86,216.81C256.17,210.3 256.47,203.5 256.77,196.69C257.08,189.68 257.37,182.48 257.67,175.34C257.97,168.14 258.28,160.85 258.58,153.65C258.88,146.52 259.18,139.38 259.48,132.37C259.78,125.51 260.07,118.69 260.38,112.03C260.68,105.59 260.98,99.22 261.29,93.04C261.59,87.13 261.88,81.32 262.19,75.71C262.48,70.41 262.79,65.23 263.1,60.27C263.39,55.66 263.68,51.17 264,46.93C264.29,43.06 264.58,39.31 264.9,35.83C265.19,32.75 265.48,29.77 265.81,27.11C266.09,24.85 266.36,22.67 266.71,20.86C266.98,19.46 267.2,18.01 267.62,17.15C267.88,16.62 268.23,15.99 268.52,16C268.83,16.02 269.16,16.81 269.42,17.43C269.82,18.4 270.06,19.93 270.33,21.43C270.68,23.33 270.95,25.59 271.23,27.93C271.56,30.67 271.85,33.72 272.14,36.88C272.46,40.42 272.75,44.24 273.04,48.17C273.36,52.47 273.66,57.01 273.95,61.67C274.26,66.67 274.56,71.9 274.85,77.23C275.16,82.87 275.45,88.71 275.75,94.65C276.06,100.86 276.36,107.25 276.66,113.71C276.97,120.39 277.26,127.23 277.56,134.1C277.87,141.13 278.17,148.29 278.47,155.43C278.77,162.63 279.06,170.01 279.37,177.13C279.67,184.02 279.96,190.82 280.27,197.46C280.57,203.85 280.87,210.08 281.18,216.25C281.48,222.25 281.77,228.26 282.08,233.98C282.37,239.34 282.66,244.73 282.99,249.56C283.27,253.76 283.53,257.99 283.89,261.33C284.16,263.82 284.12,267.28 284.79,267.83C285.04,268.03 285.45,268.01 285.7,267.77C286.43,267.08 286.33,263.05 286.6,260.16C286.95,256.37 287.22,251.65 287.51,246.98C287.83,241.7 288.12,235.87 288.41,230.09C288.72,224 289.02,217.62 289.32,211.32C289.62,204.92 289.92,198.4 290.22,191.97C290.52,185.57 290.82,179.15 291.12,172.83C291.42,166.62 291.72,160.44 292.03,154.37C292.33,148.47 292.62,142.63 292.93,136.93C293.23,131.43 293.53,126.01 293.84,120.74C294.14,115.7 294.43,110.75 294.74,105.95C295.03,101.41 295.33,96.96 295.64,92.68C295.93,88.66 296.24,84.73 296.55,80.98C296.84,77.49 297.13,74.11 297.45,70.89C297.74,67.93 298.04,65.08 298.36,62.39C298.65,59.96 298.94,57.61 299.26,55.44C299.54,53.51 299.83,51.67 300.16,49.99C300.44,48.54 300.73,47.16 301.07,45.96C301.35,44.97 301.62,44.01 301.97,43.28C302.24,42.72 302.52,42.13 302.88,41.88C303.15,41.7 303.5,41.6 303.78,41.69C304.11,41.79 304.41,42.24 304.68,42.65C305.03,43.18 305.31,43.94 305.59,44.71C305.92,45.63 306.21,46.7 306.49,47.81C306.81,49.07 307.11,50.45 307.4,51.88C307.72,53.45 308.01,55.13 308.3,56.85C308.61,58.7 308.92,60.63 309.21,62.6C309.52,64.69 309.82,66.85 310.11,69.05C310.42,71.34 310.71,73.7 311.01,76.08C311.32,78.53 311.62,81.03 311.92,83.55C312.22,86.12 312.52,88.72 312.82,91.33C313.12,93.97 313.43,96.63 313.73,99.28C314.03,101.94 314.33,104.61 314.63,107.27C314.93,109.91 315.23,112.56 315.53,115.17C315.83,117.74 316.14,120.31 316.44,122.83C316.74,125.3 317.03,127.76 317.34,130.16C317.64,132.49 317.94,134.8 318.25,137.05C318.55,139.22 318.84,141.36 319.15,143.45C319.44,145.45 319.74,147.4 320.05,149.31C320.35,151.13 320.65,152.91 320.96,154.64C321.25,156.29 321.55,157.9 321.86,159.47C322.16,160.97 322.46,162.43 322.77,163.86C323.07,165.23 323.36,166.57 323.67,167.88C323.97,169.15 324.27,170.39 324.58,171.62C324.88,172.82 325.18,174 325.48,175.18C325.78,176.35 326.08,177.5 326.38,178.66C326.68,179.82 326.99,180.97 327.29,182.13C327.59,183.3 327.89,184.48 328.19,185.67C328.49,186.89 328.8,188.11 329.1,189.36C329.41,190.64 329.7,191.93 330,193.24C330.3,194.59 330.6,195.96 330.9,197.35C331.21,198.79 331.51,200.25 331.81,201.73C332.12,203.25 332.41,204.79 332.71,206.36C333.02,207.97 333.32,209.61 333.62,211.27C333.93,212.96 334.22,214.68 334.52,216.41C334.82,218.18 335.12,219.98 335.42,221.78C335.72,223.61 336.03,225.46 336.33,227.32C336.63,229.2 336.93,231.09 337.23,232.99C337.53,234.9 337.84,236.82 338.14,238.73C338.44,240.64 338.74,242.56 339.04,244.47C339.34,246.37 339.65,248.26 339.95,250.14C340.25,251.99 340.55,253.83 340.85,255.64C341.15,257.41 341.44,259.16 341.75,260.87C342.05,262.52 342.35,264.15 342.66,265.71C342.95,267.18 343.24,268.64 343.56,269.99C343.85,271.22 344.15,272.4 344.47,273.48C344.75,274.43 345.05,275.31 345.37,276.13C345.65,276.86 345.95,277.54 346.27,278.17C346.56,278.74 346.86,279.26 347.18,279.75C347.47,280.2 347.77,280.61 348.08,281C348.37,281.37 348.68,281.7 348.99,282.03C349.29,282.35 349.59,282.66 349.89,282.97C350.19,283.29 350.49,283.59 350.79,283.92C351.1,284.26 351.41,284.62 351.7,285C352.01,285.4 352.31,285.83 352.6,286.27C352.91,286.74 353.21,287.24 353.51,287.75C353.82,288.28 354.11,288.85 354.41,289.39C354.71,289.93 355,290.51 355.32,290.99C355.61,291.41 355.88,291.97 356.22,292.12C356.49,292.24 356.83,292.15 357.12,292.05C357.44,291.93 357.73,291.61 358.03,291.4C358.33,291.2 358.63,291 358.93,290.81C359.23,290.62 359.54,290.46 359.84,290.28C360.14,290.1 360.44,289.93 360.74,289.73C361.04,289.53 361.35,289.33 361.64,289.09C361.95,288.84 362.26,288.57 362.55,288.27C362.86,287.95 363.16,287.59 363.45,287.2C363.77,286.77 364.07,286.3 364.36,285.78C364.68,285.2 364.97,284.55 365.26,283.87C365.58,283.12 365.87,282.29 366.16,281.44C366.47,280.52 366.78,279.54 367.07,278.54C367.38,277.47 367.68,276.34 367.97,275.19C368.28,273.97 368.59,272.7 368.88,271.4C369.19,270.03 369.5,268.66 369.78,267.16C370.1,265.47 370.38,263.54 370.68,261.74C370.98,259.94 371.28,258.12 371.59,256.35C371.89,254.62 372.18,252.9 372.49,251.23C372.79,249.62 373.09,248.03 373.4,246.49C373.69,245.03 373.99,243.59 374.3,242.22C374.59,240.93 374.89,239.67 375.21,238.49C375.5,237.4 375.79,236.34 376.11,235.37C376.4,234.5 376.68,233.65 377.01,232.91C377.29,232.26 377.59,231.63 377.92,231.13C378.2,230.71 378.49,230.31 378.82,230.06C379.1,229.85 379.42,229.69 379.73,229.67C380.03,229.65 380.35,229.78 380.63,229.93C380.95,230.1 381.24,230.4 381.53,230.69C381.85,231 382.15,231.36 382.44,231.74C382.75,232.14 383.05,232.56 383.34,233.03C383.66,233.54 383.96,234.11 384.25,234.71C384.57,235.37 384.86,236.1 385.15,236.83C385.46,237.6 385.74,238.46 386.05,239.24C386.34,239.98 386.6,240.83 386.96,241.38C387.23,241.79 387.53,242.24 387.86,242.34C388.14,242.43 388.47,242.16 388.77,242.13C389.07,242.1 389.38,242.11 389.67,242.18C389.98,242.26 390.29,242.41 390.58,242.6C390.9,242.8 391.19,243.08 391.48,243.37C391.79,243.68 392.09,244.05 392.38,244.43C392.69,244.83 392.99,245.28 393.29,245.73C393.6,246.2 393.89,246.7 394.19,247.2C394.5,247.71 394.8,248.24 395.1,248.76C395.4,249.28 395.7,249.82 396,250.33C396.3,250.83 396.59,251.33 396.9,251.8C397.19,252.24 397.5,252.68 397.81,253.07C398.1,253.43 398.39,253.78 398.71,254.06C399,254.32 399.3,254.56 399.62,254.72C399.91,254.87 400.22,254.97 400.52,255C400.82,255.03 401.13,254.99 401.42,254.89C401.73,254.79 402.04,254.59 402.33,254.37C402.65,254.13 402.94,253.83 403.23,253.51C403.54,253.17 403.84,252.77 404.14,252.37C404.45,251.95 404.74,251.5 405.04,251.06C405.34,250.61 405.65,250.14 405.95,249.68C406.25,249.22 406.55,248.75 406.85,248.29C407.15,247.84 407.44,247.38 407.75,246.95C408.05,246.53 408.35,246.12 408.66,245.73C408.96,245.35 409.25,244.99 409.56,244.65C409.86,244.33 410.16,244.02 410.47,243.74C410.76,243.48 411.06,243.24 411.37,243.03C411.66,242.83 411.96,242.65 412.27,242.52C412.57,242.39 412.87,242.3 413.18,242.23C413.48,242.17 413.78,242.13 414.08,242.13C414.38,242.13 414.69,242.16 414.99,242.21C415.29,242.26 415.59,242.36 415.89,242.46C416.19,242.57 416.49,242.7 416.79,242.84C417.09,242.98 417.4,243.14 417.7,243.3C418,243.46 418.3,243.65 418.6,243.82C418.9,243.99 419.21,244.17 419.51,244.33C419.81,244.49 420.11,244.66 420.41,244.8C420.71,244.94 421.01,245.07 421.32,245.18C421.62,245.28 421.92,245.38 422.22,245.44C422.52,245.5 422.82,245.54 423.12,245.56C423.42,245.58 423.73,245.56 424.03,245.53C424.33,245.5 424.63,245.43 424.93,245.36C425.23,245.28 425.54,245.19 425.84,245.08C426.14,244.97 426.44,244.83 426.74,244.69C427.04,244.54 427.34,244.38 427.64,244.21C427.95,244.03 428.25,243.84 428.55,243.65C428.85,243.45 429.15,243.25 429.45,243.04C429.75,242.83 430.06,242.61 430.36,242.39C430.66,242.18 430.96,241.95 431.26,241.75C431.56,241.55 431.86,241.35 432.16,241.17C432.46,241 432.76,240.83 433.07,240.69C433.37,240.56 433.67,240.44 433.97,240.36C434.27,240.28 434.58,240.21 434.88,240.19C435.18,240.17 435.48,240.17 435.78,240.22C436.08,240.27 436.39,240.35 436.68,240.47C436.99,240.59 437.3,240.76 437.59,240.96C437.9,241.17 438.2,241.41 438.49,241.69C438.8,241.99 439.11,242.34 439.4,242.7C439.71,243.09 440.01,243.51 440.3,243.96C440.61,244.44 440.92,244.96 441.21,245.49C441.52,246.05 441.82,246.64 442.11,247.25C442.42,247.89 442.71,248.55 443.01,249.23C443.32,249.93 443.62,250.66 443.92,251.39C444.23,252.15 444.52,252.92 444.82,253.7C445.13,254.5 445.43,255.32 445.73,256.15C446.03,257 446.33,257.85 446.63,258.72C446.93,259.61 447.23,260.5 447.53,261.41C447.83,262.33 448.14,263.27 448.44,264.21C448.74,265.17 449.04,266.14 449.34,267.11C449.64,268.1 449.95,269.1 450.25,270.1C450.55,271.11 450.85,272.13 451.15,273.15C451.45,274.18 451.75,275.21 452.05,276.24C452.35,277.27 452.65,278.31 452.96,279.33C453.26,280.32 453.55,281.31 453.86,282.26C454.16,283.17 454.47,284.04 454.77,284.92C455.07,285.79 455.37,286.65 455.67,287.5C455.97,288.34 456.27,289.17 456.58,289.98C456.88,290.77 457.17,291.56 457.48,292.33C457.78,293.07 458.07,293.8 458.38,294.51C458.68,295.19 458.98,295.85 459.29,296.48C459.58,297.07 459.87,297.65 460.19,298.17C460.48,298.65 460.78,299.12 461.1,299.52Q461.39,299.87 462,300.45" style="vector-effect: non-scaling-stroke; fill: none; stroke: rgb(0, 100, 80); stroke-opacity: 1; stroke-width: 2px; opacity: 1;"/></g><g class="points"/><g class="text"/></g><g class="trace scatter trace533496" style="stroke-miterlimit: 2; opacity: 1;"><g class="fills"/><g class="errorbars"/><g class="lines"><path class="js-line" d="M0,259.11Q0.64,257.92 0.9,257.09C1.28,255.89 1.52,254.14 1.81,252.52C2.13,250.7 2.42,248.69 2.71,246.68C3.02,244.52 3.32,242.26 3.62,239.98C3.93,237.59 4.22,235.14 4.52,232.66C4.82,230.1 5.12,227.49 5.42,224.87C5.72,222.19 6.03,219.48 6.33,216.75C6.63,213.99 6.93,211.19 7.23,208.4C7.53,205.58 7.84,202.74 8.14,199.91C8.44,197.07 8.74,194.23 9.04,191.39C9.34,188.56 9.65,185.72 9.95,182.9C10.25,180.1 10.55,177.3 10.85,174.53C11.15,171.78 11.45,169.05 11.75,166.34C12.05,163.67 12.36,161.02 12.66,158.4C12.96,155.83 13.25,153.27 13.56,150.75C13.86,148.29 14.16,145.85 14.47,143.44C14.77,141.09 15.07,138.77 15.37,136.49C15.67,134.27 15.96,132.09 16.27,129.94C16.57,127.86 16.87,125.8 17.18,123.79C17.48,121.84 17.77,119.92 18.08,118.04C18.38,116.22 18.68,114.43 18.99,112.68C19.29,110.98 19.58,109.32 19.89,107.68C20.19,106.1 20.48,104.55 20.79,103.02C21.09,101.54 21.39,100.08 21.7,98.66C22,97.29 22.29,95.95 22.6,94.65C22.89,93.41 23.2,92.2 23.51,91.04C23.8,89.96 24.09,88.9 24.41,87.92C24.7,87.03 25,86.16 25.32,85.39C25.6,84.71 25.89,84.05 26.22,83.51C26.5,83.06 26.78,82.62 27.12,82.34C27.4,82.11 27.72,81.92 28.03,81.89C28.33,81.86 28.65,81.97 28.93,82.14C29.26,82.34 29.56,82.71 29.84,83.09C30.17,83.53 30.46,84.09 30.74,84.67C31.06,85.32 31.35,86.05 31.64,86.8C31.96,87.62 32.26,88.5 32.55,89.4C32.86,90.34 33.15,91.34 33.45,92.33C33.76,93.35 34.06,94.4 34.36,95.43C34.66,96.46 34.96,97.51 35.26,98.53C35.56,99.52 35.85,100.51 36.16,101.45C36.45,102.34 36.76,103.21 37.07,104.04C37.36,104.81 37.66,105.57 37.97,106.27C38.26,106.92 38.57,107.54 38.88,108.13C39.17,108.68 39.47,109.2 39.78,109.7C40.07,110.17 40.37,110.62 40.68,111.06C40.98,111.48 41.29,111.89 41.59,112.29C41.89,112.68 42.19,113.06 42.49,113.45C42.79,113.83 43.1,114.21 43.4,114.6C43.7,114.99 44,115.37 44.3,115.77C44.6,116.18 44.91,116.59 45.21,117.01C45.52,117.44 45.81,117.89 46.11,118.34C46.41,118.81 46.71,119.28 47.01,119.77C47.32,120.28 47.62,120.79 47.92,121.33C48.23,121.89 48.52,122.46 48.82,123.05C49.13,123.66 49.43,124.28 49.73,124.93C50.04,125.6 50.34,126.3 50.63,127.01C50.94,127.75 51.23,128.52 51.53,129.3C51.84,130.12 52.14,130.96 52.44,131.83C52.75,132.73 53.04,133.67 53.34,134.62C53.65,135.62 53.95,136.65 54.25,137.7C54.56,138.8 54.86,139.92 55.15,141.07C55.46,142.27 55.75,143.5 56.05,144.76C56.36,146.06 56.66,147.39 56.96,148.75C57.27,150.16 57.56,151.59 57.86,153.05C58.17,154.55 58.47,156.08 58.77,157.63C59.08,159.22 59.37,160.83 59.67,162.45C59.97,164.09 60.28,165.75 60.58,167.41C60.88,169.08 61.18,170.77 61.48,172.44C61.78,174.1 62.08,175.76 62.38,177.39C62.68,179 62.98,180.59 63.29,182.16C63.59,183.69 63.88,185.2 64.19,186.69C64.49,188.14 64.8,189.56 65.1,190.98C65.4,192.38 65.7,193.77 66,195.16C66.3,196.55 66.6,197.93 66.9,199.33C67.2,200.74 67.51,202.16 67.81,203.6C68.11,205.07 68.41,206.55 68.71,208.06C69.02,209.6 69.32,211.16 69.62,212.74C69.93,214.36 70.22,216 70.52,217.67C70.82,219.38 71.12,221.11 71.42,222.86C71.73,224.65 72.03,226.46 72.33,228.29C72.63,230.15 72.93,232.04 73.23,233.94C73.53,235.87 73.84,237.83 74.14,239.79C74.44,241.77 74.74,243.77 75.04,245.77C75.34,247.77 75.65,249.79 75.95,251.79C76.25,253.78 76.55,255.77 76.85,257.74C77.15,259.67 77.44,261.6 77.75,263.48C78.05,265.3 78.35,267.1 78.66,268.85C78.95,270.52 79.25,272.15 79.56,273.73C79.85,275.23 80.16,276.69 80.47,278.12C80.76,279.48 81.06,280.8 81.37,282.1C81.66,283.35 81.96,284.57 82.27,285.77C82.57,286.94 82.87,288.09 83.18,289.21C83.48,290.29 83.77,291.37 84.08,292.39C84.37,293.36 84.67,294.33 84.99,295.19C85.27,295.95 85.53,296.77 85.89,297.29C86.16,297.67 86.46,298.04 86.79,298.14C87.07,298.23 87.41,298.1 87.7,298.01C88.01,297.91 88.3,297.7 88.6,297.54C88.9,297.38 89.2,297.2 89.51,297.05C89.81,296.91 90.11,296.77 90.41,296.67C90.71,296.57 91.02,296.51 91.32,296.44C91.62,296.37 91.94,296.4 92.22,296.26C92.54,296.1 92.85,295.84 93.12,295.47C93.49,294.95 93.74,294.07 94.03,293.3C94.35,292.45 94.64,291.52 94.93,290.59C95.24,289.61 95.55,288.59 95.84,287.54C96.15,286.44 96.45,285.29 96.74,284.12C97.05,282.91 97.34,281.65 97.64,280.39C97.95,279.09 98.25,277.76 98.55,276.43C98.85,275.09 99.15,273.72 99.45,272.38C99.75,271.05 100.05,269.72 100.36,268.41C100.66,267.14 100.95,265.87 101.26,264.64C101.55,263.47 101.85,262.31 102.16,261.2C102.45,260.16 102.76,259.15 103.07,258.19C103.36,257.31 103.65,256.45 103.97,255.67C104.26,254.96 104.56,254.28 104.88,253.68C105.17,253.15 105.46,252.64 105.78,252.22C106.06,251.85 106.36,251.52 106.68,251.26C106.97,251.03 107.28,250.85 107.59,250.7C107.88,250.56 108.19,250.49 108.49,250.4C108.79,250.31 109.1,250.27 109.4,250.15C109.71,250.03 110.02,249.88 110.3,249.66C110.63,249.4 110.93,249.05 111.21,248.64C111.55,248.15 111.83,247.53 112.11,246.87C112.44,246.09 112.73,245.19 113.01,244.25C113.33,243.19 113.63,242.02 113.92,240.82C114.24,239.5 114.53,238.09 114.82,236.63C115.13,235.06 115.44,233.4 115.73,231.7C116.04,229.9 116.34,228.01 116.63,226.11C116.94,224.12 117.23,222.07 117.53,220.02C117.84,217.92 118.14,215.77 118.44,213.64C118.74,211.5 119.04,209.35 119.34,207.22C119.64,205.12 119.94,203.02 120.25,200.96C120.55,198.95 120.84,196.96 121.15,195.02C121.44,193.14 121.74,191.29 122.05,189.49C122.35,187.77 122.65,186.09 122.96,184.47C123.25,182.93 123.55,181.43 123.86,179.99C124.15,178.64 124.46,177.33 124.77,176.08C125.06,174.91 125.36,173.78 125.67,172.71C125.96,171.72 126.27,170.76 126.58,169.86C126.87,169.03 127.17,168.23 127.48,167.48C127.77,166.8 128.06,166.15 128.38,165.56C128.67,165.02 128.97,164.51 129.29,164.05C129.58,163.63 129.88,163.26 130.19,162.9C130.48,162.56 130.81,162.31 131.1,161.96C131.42,161.57 131.73,161.19 132,160.65C132.36,159.91 132.62,158.87 132.9,157.82C133.24,156.56 133.51,155.01 133.81,153.58C134.12,152.11 134.4,150.56 134.71,149.11C135.01,147.72 135.3,146.33 135.62,145.04C135.91,143.86 136.2,142.71 136.52,141.67C136.8,140.76 137.08,139.87 137.42,139.15C137.7,138.56 137.97,137.95 138.33,137.61C138.6,137.36 138.94,137.13 139.23,137.15C139.54,137.17 139.87,137.49 140.14,137.81C140.5,138.24 140.76,138.95 141.04,139.66C141.38,140.54 141.67,141.6 141.95,142.7C142.28,143.99 142.57,145.44 142.85,146.94C143.17,148.63 143.46,150.46 143.75,152.35C144.07,154.42 144.37,156.62 144.66,158.88C144.97,161.31 145.27,163.86 145.56,166.46C145.87,169.22 146.17,172.08 146.47,174.99C146.78,178.04 147.08,181.17 147.37,184.35C147.68,187.64 147.97,191.01 148.27,194.41C148.58,197.89 148.88,201.44 149.18,204.99C149.48,208.6 149.78,212.25 150.08,215.89C150.38,219.54 150.69,223.23 150.99,226.87C151.29,230.46 151.58,234.07 151.89,237.58C152.18,240.96 152.48,244.36 152.79,247.55C153.08,250.51 153.38,253.42 153.7,256.08C153.98,258.42 154.28,260.63 154.6,262.68C154.88,264.47 155.19,266.12 155.51,267.7C155.8,269.13 156.09,270.47 156.41,271.75C156.7,272.93 156.99,274.12 157.32,275.12C157.6,275.96 157.88,276.74 158.22,277.38C158.5,277.9 158.81,278.31 159.12,278.72C159.41,279.11 159.72,279.47 160.03,279.79C160.32,280.09 160.62,280.38 160.93,280.6C161.22,280.8 161.53,280.96 161.84,281.09C162.13,281.21 162.44,281.27 162.74,281.36C163.04,281.45 163.34,281.51 163.64,281.62C163.95,281.73 164.26,281.87 164.55,282.04C164.86,282.22 165.16,282.45 165.45,282.7C165.76,282.96 166.06,283.27 166.36,283.58C166.67,283.9 166.96,284.26 167.26,284.61C167.56,284.97 167.86,285.35 168.16,285.71C168.46,286.07 168.76,286.44 169.07,286.76C169.36,287.06 169.65,287.37 169.97,287.58C170.26,287.77 170.57,287.96 170.88,288C171.17,288.04 171.5,287.99 171.78,287.85C172.11,287.69 172.41,287.37 172.68,287.02C173.02,286.58 173.31,285.97 173.59,285.33C173.93,284.55 174.21,283.59 174.49,282.62C174.81,281.52 175.11,280.28 175.4,279.05C175.71,277.76 176,276.39 176.3,275.06C176.6,273.72 176.91,272.36 177.21,271.04C177.51,269.74 177.8,268.45 178.11,267.19C178.4,265.98 178.7,264.79 179.01,263.64C179.31,262.54 179.61,261.46 179.92,260.42C180.21,259.42 180.51,258.45 180.82,257.51C181.12,256.61 181.42,255.73 181.73,254.88C182.03,254.06 182.32,253.26 182.63,252.48C182.93,251.72 183.22,250.99 183.53,250.26C183.83,249.55 184.14,248.87 184.44,248.18C184.74,247.5 185.04,246.84 185.34,246.17C185.64,245.51 185.95,244.85 186.25,244.19C186.55,243.53 186.85,242.86 187.15,242.19C187.45,241.51 187.75,240.82 188.05,240.13C188.35,239.42 188.66,238.71 188.96,237.98C189.27,237.23 189.56,236.46 189.86,235.67C190.17,234.85 190.48,234.01 190.77,233.13C191.08,232.21 191.38,231.25 191.67,230.26C191.98,229.2 192.29,228.09 192.58,226.95C192.89,225.74 193.18,224.48 193.48,223.21C193.78,221.9 194.08,220.54 194.38,219.21C194.68,217.87 194.98,216.52 195.29,215.2C195.59,213.92 195.88,212.63 196.19,211.4C196.48,210.23 196.79,209.08 197.1,208C197.39,207 197.68,206.03 198,205.15C198.28,204.37 198.57,203.6 198.9,202.97C199.18,202.43 199.46,201.9 199.81,201.56C200.08,201.29 200.4,201.04 200.71,201.01C201.01,200.98 201.35,201.14 201.62,201.35C201.97,201.62 202.25,202.12 202.52,202.62C202.86,203.24 203.14,204.02 203.42,204.82C203.75,205.75 204.04,206.81 204.33,207.9C204.65,209.11 204.94,210.43 205.23,211.77C205.54,213.2 205.84,214.72 206.14,216.24C206.45,217.81 206.74,219.43 207.04,221.02C207.34,222.62 207.65,224.23 207.95,225.81C208.25,227.37 208.55,228.92 208.85,230.46C209.15,231.99 209.45,233.51 209.75,235.04C210.05,236.58 210.36,238.11 210.66,239.67C210.96,241.25 211.26,242.85 211.56,244.46C211.86,246.1 212.17,247.77 212.47,249.43C212.77,251.09 213.07,252.78 213.37,254.41C213.67,256 213.95,257.61 214.27,259.09C214.56,260.43 214.83,261.82 215.18,262.9C215.45,263.73 215.68,264.88 216.08,265.05C216.34,265.16 216.74,264.97 216.99,264.68C217.47,264.14 217.62,262.64 217.89,261.35C218.25,259.61 218.51,257.38 218.79,255.12C219.12,252.45 219.41,249.42 219.7,246.34C220.02,242.93 220.31,239.26 220.6,235.56C220.91,231.62 221.21,227.51 221.51,223.38C221.82,219.12 222.11,214.73 222.41,210.37C222.71,205.95 223.02,201.47 223.32,197.03C223.62,192.59 223.92,188.13 224.22,183.72C224.52,179.37 224.81,175.03 225.12,170.76C225.42,166.58 225.72,162.43 226.03,158.37C226.33,154.43 226.62,150.54 226.93,146.74C227.23,143.1 227.53,139.51 227.84,136.03C228.13,132.72 228.43,129.47 228.74,126.33C229.03,123.37 229.33,120.48 229.64,117.71C229.93,115.12 230.24,112.61 230.55,110.21C230.84,107.99 231.13,105.85 231.45,103.81C231.74,101.94 232.04,100.15 232.36,98.46C232.65,96.92 232.94,95.45 233.26,94.08C233.55,92.85 233.83,91.67 234.16,90.61C234.44,89.69 234.73,88.79 235.07,88.05C235.35,87.44 235.62,86.83 235.97,86.45C236.24,86.16 236.57,85.87 236.88,85.86C237.18,85.85 237.51,86.09 237.78,86.35C238.14,86.7 238.41,87.33 238.68,87.95C239.02,88.73 239.31,89.69 239.59,90.69C239.92,91.86 240.21,93.19 240.49,94.57C240.81,96.14 241.11,97.84 241.4,99.61C241.72,101.56 242.01,103.64 242.3,105.79C242.61,108.12 242.92,110.56 243.21,113.08C243.52,115.77 243.82,118.58 244.11,121.45C244.42,124.48 244.71,127.62 245.01,130.81C245.32,134.15 245.62,137.58 245.92,141.06C246.23,144.65 246.52,148.34 246.82,152.03C247.12,155.8 247.43,159.64 247.73,163.44C248.03,167.24 248.32,171.09 248.63,174.82C248.92,178.42 249.21,182.07 249.53,185.42C249.82,188.45 250.1,191.52 250.44,194.07C250.71,196.11 250.89,198.29 251.34,199.54C251.6,200.26 251.96,201.14 252.25,201.12C252.57,201.1 252.89,199.88 253.15,199.03C253.52,197.83 253.76,196.11 254.05,194.51C254.37,192.72 254.66,190.75 254.96,188.81C255.27,186.8 255.56,184.72 255.86,182.67C256.16,180.6 256.47,178.53 256.77,176.45C257.07,174.36 257.37,172.3 257.67,170.16C257.98,167.94 258.29,165.7 258.58,163.36C258.89,160.86 259.19,158.25 259.48,155.6C259.79,152.83 260.08,149.97 260.38,147.11C260.68,144.2 260.99,141.25 261.29,138.31C261.59,135.36 261.89,132.42 262.19,129.45C262.49,126.45 262.81,123.5 263.1,120.4C263.41,117.13 263.71,113.76 264,110.33C264.31,106.75 264.59,102.96 264.9,99.37C265.2,95.9 265.5,92.42 265.81,89.14C266.1,86.11 266.39,83.14 266.71,80.39C267,77.94 267.29,75.57 267.62,73.45C267.9,71.65 268.17,69.91 268.52,68.49C268.79,67.4 269,66.22 269.42,65.63C269.68,65.27 270.05,64.9 270.33,64.96C270.67,65.03 270.97,65.84 271.23,66.48C271.62,67.43 271.86,68.82 272.14,70.22C272.48,71.96 272.76,74.02 273.04,76.15C273.37,78.63 273.66,81.38 273.95,84.22C274.27,87.4 274.56,90.82 274.85,94.34C275.16,98.18 275.46,102.23 275.75,106.38C276.06,110.82 276.37,115.45 276.66,120.17C276.97,125.14 277.26,130.28 277.56,135.49C277.87,140.91 278.17,146.47 278.47,152.08C278.78,157.84 279.07,163.71 279.37,169.6C279.67,175.58 279.97,181.65 280.27,187.67C280.57,193.69 280.88,199.78 281.18,205.74C281.48,211.58 281.77,217.47 282.08,223.08C282.37,228.37 282.65,233.94 282.99,238.51C283.26,242.18 283.37,246.37 283.89,248.42C284.14,249.4 284.53,250.54 284.79,250.51C285.16,250.47 285.44,247.86 285.7,246.09C286.09,243.49 286.32,239.86 286.6,236.36C286.93,232.28 287.22,227.65 287.51,223.07C287.82,218.16 288.11,212.98 288.41,207.83C288.72,202.54 289.02,197.13 289.32,191.76C289.62,186.38 289.92,180.95 290.22,175.58C290.52,170.26 290.82,164.93 291.12,159.69C291.42,154.55 291.72,149.44 292.03,144.42C292.33,139.55 292.62,134.72 292.93,130.01C293.23,125.48 293.53,121.01 293.84,116.67C294.13,112.54 294.43,108.48 294.74,104.56C295.03,100.87 295.33,97.27 295.64,93.81C295.93,90.59 296.23,87.45 296.55,84.48C296.84,81.75 297.13,79.11 297.45,76.64C297.74,74.41 298.04,72.26 298.36,70.28C298.64,68.54 298.93,66.88 299.26,65.4C299.54,64.15 299.81,62.95 300.16,61.96C300.43,61.17 300.7,60.39 301.07,59.9C301.34,59.54 301.66,59.17 301.97,59.14C302.26,59.11 302.61,59.36 302.88,59.62C303.24,59.97 303.51,60.61 303.78,61.23C304.12,61.99 304.4,62.93 304.68,63.89C305,64.99 305.3,66.21 305.59,67.46C305.91,68.84 306.2,70.32 306.49,71.83C306.8,73.45 307.11,75.15 307.4,76.88C307.71,78.7 308,80.58 308.3,82.49C308.61,84.47 308.91,86.5 309.21,88.54C309.52,90.64 309.81,92.78 310.11,94.93C310.41,97.12 310.71,99.35 311.01,101.57C311.31,103.82 311.62,106.08 311.92,108.34C312.22,110.6 312.52,112.88 312.82,115.14C313.12,117.38 313.43,119.63 313.73,121.85C314.03,124.04 314.33,126.22 314.63,128.37C314.93,130.48 315.22,132.57 315.53,134.63C315.83,136.65 316.14,138.64 316.44,140.62C316.74,142.56 317.04,144.48 317.34,146.38C317.64,148.25 317.95,150.1 318.25,151.94C318.55,153.76 318.85,155.57 319.15,157.37C319.45,159.16 319.75,160.93 320.05,162.7C320.35,164.46 320.66,166.21 320.96,167.96C321.26,169.71 321.56,171.45 321.86,173.2C322.16,174.94 322.47,176.69 322.77,178.43C323.07,180.17 323.37,181.92 323.67,183.66C323.97,185.41 324.28,187.16 324.58,188.91C324.88,190.66 325.18,192.42 325.48,194.17C325.78,195.92 326.08,197.68 326.38,199.43C326.68,201.18 326.99,202.93 327.29,204.67C327.59,206.41 327.89,208.15 328.19,209.88C328.49,211.6 328.8,213.31 329.1,215.02C329.4,216.72 329.7,218.42 330,220.11C330.3,221.8 330.6,223.48 330.9,225.16C331.2,226.85 331.51,228.53 331.81,230.23C332.11,231.93 332.41,233.64 332.71,235.36C333.01,237.1 333.32,238.85 333.62,240.61C333.92,242.38 334.22,244.18 334.52,245.96C334.82,247.74 335.11,249.56 335.42,251.31C335.72,252.99 336,254.73 336.33,256.25C336.61,257.56 336.92,258.74 337.23,259.9C337.52,260.97 337.8,262.09 338.14,262.97C338.41,263.68 338.73,264.23 339.04,264.83C339.34,265.41 339.65,265.95 339.95,266.51C340.25,267.06 340.55,267.6 340.85,268.14C341.15,268.67 341.45,269.21 341.75,269.73C342.05,270.24 342.35,270.75 342.66,271.24C342.96,271.71 343.25,272.18 343.56,272.62C343.86,273.04 344.16,273.46 344.47,273.83C344.76,274.18 345.06,274.52 345.37,274.79C345.66,275.04 345.95,275.28 346.27,275.42C346.56,275.55 346.88,275.63 347.18,275.61C347.48,275.59 347.8,275.47 348.08,275.28C348.41,275.05 348.71,274.66 348.99,274.25C349.32,273.77 349.6,273.14 349.89,272.54C350.2,271.9 350.49,271.19 350.79,270.53C351.09,269.87 351.39,269.2 351.7,268.57C351.99,267.97 352.28,267.38 352.6,266.85C352.89,266.36 353.19,265.9 353.51,265.49C353.8,265.12 354.09,264.78 354.41,264.51C354.7,264.26 355.01,264.06 355.32,263.9C355.61,263.75 355.92,263.65 356.22,263.54C356.52,263.43 356.82,263.33 357.12,263.26C357.42,263.19 357.73,263.15 358.03,263.12C358.33,263.09 358.63,263.1 358.93,263.08C359.23,263.06 359.54,263.07 359.84,262.99C360.15,262.91 360.46,262.81 360.74,262.6C361.07,262.35 361.36,261.96 361.64,261.54C361.98,261.02 362.26,260.34 362.55,259.66C362.87,258.89 363.16,258.01 363.45,257.13C363.76,256.18 364.06,255.18 364.36,254.16C364.67,253.1 364.96,252.01 365.26,250.9C365.57,249.76 365.86,248.59 366.16,247.4C366.47,246.18 366.77,244.94 367.07,243.67C367.38,242.36 367.67,241.02 367.97,239.66C368.28,238.26 368.58,236.81 368.88,235.37C369.18,233.93 369.48,232.45 369.78,231.02C370.08,229.61 370.37,228.21 370.68,226.85C370.98,225.55 371.28,224.27 371.59,223.05C371.88,221.91 372.17,220.8 372.49,219.76C372.78,218.81 373.08,217.9 373.4,217.07C373.69,216.34 373.97,215.63 374.3,215.04C374.58,214.54 374.87,214.05 375.21,213.72C375.49,213.45 375.8,213.2 376.11,213.14C376.4,213.08 376.73,213.15 377.01,213.3C377.34,213.47 377.64,213.84 377.92,214.22C378.26,214.67 378.54,215.27 378.82,215.88C379.15,216.59 379.44,217.41 379.73,218.26C380.05,219.21 380.34,220.25 380.63,221.32C380.94,222.49 381.24,223.74 381.53,225.02C381.84,226.39 382.15,227.83 382.44,229.3C382.75,230.85 383.04,232.46 383.34,234.09C383.65,235.78 383.95,237.52 384.25,239.27C384.55,241.05 384.85,242.89 385.15,244.67C385.45,246.41 385.71,248.3 386.05,249.84C386.33,251.1 386.55,252.44 386.96,253.23C387.22,253.73 387.52,254.21 387.86,254.33C388.14,254.42 388.48,254.26 388.77,254.12C389.09,253.96 389.37,253.63 389.67,253.39C389.97,253.14 390.27,252.86 390.58,252.65C390.87,252.45 391.17,252.25 391.48,252.13C391.77,252.01 392.08,251.93 392.38,251.92C392.68,251.91 393,251.96 393.29,252.06C393.6,252.16 393.9,252.34 394.19,252.55C394.51,252.78 394.81,253.07 395.1,253.38C395.41,253.71 395.71,254.1 396,254.5C396.31,254.92 396.6,255.39 396.9,255.86C397.21,256.35 397.51,256.87 397.81,257.39C398.12,257.92 398.41,258.47 398.71,259.02C399.01,259.57 399.32,260.13 399.62,260.68C399.92,261.23 400.22,261.78 400.52,262.33C400.82,262.88 401.12,263.42 401.42,263.96C401.72,264.51 402.03,265.05 402.33,265.6C402.63,266.16 402.93,266.72 403.23,267.29C403.53,267.87 403.84,268.46 404.14,269.05C404.44,269.65 404.74,270.26 405.04,270.87C405.34,271.48 405.65,272.11 405.95,272.72C406.25,273.33 406.54,273.96 406.85,274.53C407.14,275.06 407.38,275.8 407.75,276.04C408.02,276.21 408.4,276.28 408.66,276.14C409.05,275.93 409.27,274.95 409.56,274.31C409.87,273.61 410.16,272.83 410.47,272.1C410.77,271.39 411.06,270.68 411.37,270C411.66,269.36 411.96,268.73 412.27,268.13C412.56,267.56 412.87,267.01 413.18,266.48C413.48,265.97 413.77,265.48 414.08,265C414.38,264.53 414.68,264.07 414.99,263.62C415.29,263.18 415.59,262.75 415.89,262.34C416.19,261.94 416.48,261.55 416.79,261.17C417.09,260.81 417.39,260.46 417.7,260.12C418,259.79 418.3,259.47 418.6,259.15C418.9,258.83 419.21,258.52 419.51,258.18C419.82,257.83 420.12,257.48 420.41,257.1C420.72,256.69 421.03,256.26 421.32,255.79C421.64,255.28 421.93,254.72 422.22,254.12C422.54,253.46 422.83,252.74 423.12,251.98C423.44,251.14 423.74,250.22 424.03,249.27C424.35,248.23 424.64,247.13 424.93,245.99C425.24,244.77 425.54,243.49 425.84,242.2C426.15,240.85 426.44,239.44 426.74,238.04C427.04,236.61 427.34,235.14 427.64,233.69C427.94,232.24 428.25,230.77 428.55,229.33C428.85,227.91 429.14,226.5 429.45,225.12C429.75,223.79 430.05,222.48 430.36,221.22C430.65,220.02 430.95,218.84 431.26,217.73C431.55,216.7 431.84,215.7 432.16,214.77C432.45,213.93 432.75,213.12 433.07,212.4C433.35,211.77 433.64,211.16 433.97,210.68C434.25,210.27 434.55,209.88 434.88,209.65C435.16,209.46 435.48,209.31 435.78,209.32C436.08,209.33 436.4,209.49 436.68,209.69C437.01,209.93 437.31,210.33 437.59,210.74C437.92,211.22 438.21,211.82 438.49,212.43C438.81,213.13 439.11,213.9 439.4,214.71C439.72,215.59 440.01,216.55 440.3,217.52C440.61,218.56 440.92,219.66 441.21,220.78C441.52,221.96 441.82,223.19 442.11,224.43C442.42,225.72 442.71,227.05 443.01,228.39C443.32,229.77 443.62,231.18 443.92,232.6C444.22,234.05 444.52,235.52 444.82,236.99C445.12,238.48 445.43,239.99 445.73,241.5C446.03,243.02 446.33,244.54 446.63,246.07C446.93,247.6 447.14,249.48 447.53,250.66C447.79,251.45 448.05,252.19 448.44,252.54C448.7,252.78 449.05,252.73 449.34,252.87C449.65,253.02 449.96,253.19 450.25,253.4C450.56,253.62 450.86,253.88 451.15,254.17C451.46,254.48 451.76,254.83 452.05,255.2C452.36,255.6 452.67,256.05 452.96,256.52C453.27,257.03 453.57,257.57 453.86,258.14C454.17,258.75 454.48,259.39 454.77,260.05C455.08,260.75 455.37,261.49 455.67,262.24C455.98,263.02 456.28,263.82 456.58,264.63C456.89,265.46 457.18,266.32 457.48,267.17C457.78,268.02 458.08,268.89 458.38,269.74C458.68,270.58 458.98,271.42 459.29,272.23C459.59,273 459.87,273.78 460.19,274.49C460.48,275.14 460.77,275.79 461.1,276.33Q461.38,276.8 462,277.58" style="vector-effect: non-scaling-stroke; fill: none; stroke: rgb(0, 176, 246); stroke-opacity: 1; stroke-width: 2px; opacity: 1;"/></g><g class="points"/><g class="text"/></g><g class="trace scatter trace7c6c0e" style="stroke-miterlimit: 2; opacity: 1;"><g class="fills"/><g class="errorbars"/><g class="lines"><path class="js-line" d="M0,258.65Q0.64,256.55 0.9,255.17C1.28,253.21 1.52,250.49 1.81,247.94C2.13,245.09 2.42,241.99 2.71,238.89C3.02,235.61 3.32,232.19 3.62,228.76C3.93,225.22 4.22,221.59 4.52,217.96C4.82,214.26 5.12,210.51 5.42,206.76C5.72,202.98 6.03,199.18 6.33,195.38C6.63,191.58 6.93,187.76 7.23,183.96C7.53,180.18 7.84,176.4 8.14,172.65C8.44,168.94 8.74,165.24 9.04,161.58C9.34,157.98 9.64,154.39 9.95,150.86C10.25,147.4 10.55,143.98 10.85,140.61C11.15,137.33 11.44,134.09 11.75,130.91C12.05,127.84 12.35,124.82 12.66,121.87C12.96,119.04 13.25,116.26 13.56,113.57C13.85,111.01 14.16,108.5 14.47,106.08C14.76,103.81 15.06,101.59 15.37,99.47C15.66,97.51 15.95,95.6 16.27,93.81C16.56,92.17 16.86,90.59 17.18,89.13C17.47,87.84 17.75,86.59 18.08,85.49C18.36,84.55 18.65,83.63 18.99,82.9C19.26,82.31 19.53,81.71 19.89,81.39C20.16,81.15 20.5,80.94 20.79,80.96C21.1,80.99 21.43,81.29 21.7,81.6C22.06,82 22.32,82.65 22.6,83.29C22.94,84.08 23.23,85.03 23.51,86.01C23.84,87.14 24.12,88.41 24.41,89.72C24.73,91.17 25.03,92.74 25.32,94.35C25.64,96.1 25.93,97.95 26.22,99.85C26.53,101.88 26.83,103.99 27.12,106.15C27.43,108.42 27.73,110.77 28.03,113.16C28.34,115.65 28.63,118.2 28.93,120.78C29.24,123.44 29.54,126.15 29.84,128.87C30.14,131.63 30.44,134.44 30.74,137.21C31.04,139.96 31.32,142.82 31.64,145.44C31.93,147.84 32.16,150.52 32.55,152.31C32.81,153.49 32.99,154.9 33.45,155.2C33.7,155.36 34.09,155.26 34.36,155.09C34.73,154.86 34.98,154.18 35.26,153.64C35.58,153.03 35.86,152.3 36.16,151.6C36.47,150.88 36.77,150.11 37.07,149.38C37.37,148.66 37.66,147.93 37.97,147.24C38.26,146.58 38.57,145.94 38.88,145.34C39.17,144.78 39.47,144.24 39.78,143.74C40.07,143.28 40.36,142.85 40.68,142.47C40.97,142.13 41.27,141.81 41.59,141.55C41.88,141.32 42.18,141.11 42.49,140.97C42.78,140.84 43.09,140.75 43.4,140.71C43.7,140.67 44,140.69 44.3,140.75C44.61,140.81 44.92,140.94 45.21,141.1C45.52,141.27 45.82,141.48 46.11,141.73C46.42,142 46.72,142.32 47.01,142.66C47.33,143.03 47.63,143.45 47.92,143.89C48.23,144.37 48.53,144.89 48.82,145.43C49.13,146.02 49.44,146.64 49.73,147.3C50.04,148.01 50.34,148.75 50.63,149.53C50.94,150.36 51.24,151.23 51.53,152.14C51.84,153.11 52.15,154.12 52.44,155.17C52.75,156.28 53.05,157.44 53.34,158.63C53.65,159.89 53.96,161.2 54.25,162.54C54.56,163.96 54.86,165.43 55.15,166.93C55.46,168.51 55.75,170.13 56.05,171.79C56.36,173.52 56.66,175.31 56.96,177.12C57.27,179.01 57.56,180.94 57.86,182.9C58.17,184.93 58.47,187.01 58.77,189.12C59.08,191.29 59.37,193.5 59.67,195.73C59.98,198.01 60.28,200.33 60.58,202.66C60.88,205.02 61.17,207.48 61.48,209.79C61.77,211.99 62.04,214.32 62.38,216.21C62.66,217.72 62.95,219.09 63.29,220.26C63.56,221.19 63.83,222.08 64.19,222.72C64.46,223.19 64.76,223.63 65.1,223.83C65.37,223.99 65.7,224 66,224C66.3,224 66.6,223.86 66.9,223.8C67.2,223.74 67.51,223.65 67.81,223.64C68.11,223.63 68.42,223.67 68.71,223.75C69.02,223.84 69.32,224.01 69.62,224.17C69.93,224.34 70.23,224.52 70.52,224.74C70.83,224.98 71.13,225.25 71.42,225.57C71.74,225.93 72.04,226.35 72.33,226.8C72.65,227.29 72.94,227.84 73.23,228.41C73.55,229.03 73.85,229.7 74.14,230.39C74.45,231.13 74.75,231.92 75.04,232.73C75.35,233.59 75.66,234.48 75.95,235.4C76.26,236.36 76.56,237.36 76.85,238.38C77.16,239.44 77.45,240.53 77.75,241.64C78.06,242.79 78.36,243.96 78.66,245.15C78.97,246.37 79.26,247.62 79.56,248.88C79.86,250.16 80.17,251.46 80.47,252.77C80.77,254.1 81.07,255.45 81.37,256.8C81.67,258.16 81.97,259.53 82.27,260.89C82.57,262.26 82.88,263.63 83.18,264.99C83.48,266.34 83.78,267.7 84.08,269.03C84.38,270.34 84.66,271.73 84.99,272.92C85.27,273.95 85.55,274.95 85.89,275.77C86.16,276.43 86.44,277.07 86.79,277.51C87.06,277.85 87.38,278.09 87.7,278.28C87.99,278.45 88.29,278.57 88.6,278.63C88.9,278.69 89.21,278.7 89.51,278.67C89.81,278.64 90.12,278.56 90.41,278.44C90.72,278.32 91.03,278.14 91.32,277.94C91.63,277.73 91.93,277.47 92.22,277.19C92.53,276.89 92.83,276.57 93.12,276.2C93.44,275.8 93.76,275.39 94.03,274.85C94.38,274.15 94.63,273.17 94.93,272.3C95.24,271.4 95.54,270.47 95.84,269.54C96.14,268.59 96.44,267.63 96.74,266.67C97.04,265.7 97.34,264.71 97.64,263.73C97.94,262.75 98.25,261.76 98.55,260.79C98.85,259.83 99.14,258.86 99.45,257.92C99.75,257 100.05,256.09 100.36,255.2C100.66,254.34 100.95,253.49 101.26,252.67C101.55,251.89 101.85,251.12 102.16,250.39C102.45,249.7 102.76,249.03 103.07,248.39C103.36,247.79 103.66,247.21 103.97,246.67C104.26,246.16 104.57,245.69 104.88,245.24C105.17,244.82 105.47,244.43 105.78,244.07C106.07,243.73 106.37,243.42 106.68,243.13C106.97,242.86 107.28,242.61 107.59,242.38C107.89,242.15 108.19,241.95 108.49,241.74C108.79,241.53 109.1,241.35 109.4,241.14C109.7,240.93 110,240.73 110.3,240.5C110.61,240.27 110.92,240.02 111.21,239.75C111.52,239.46 111.82,239.15 112.11,238.81C112.42,238.44 112.72,238.03 113.01,237.59C113.33,237.1 113.63,236.57 113.92,235.99C114.24,235.34 114.53,234.64 114.82,233.88C115.14,233.03 115.44,232.09 115.73,231.11C116.05,230.02 116.34,228.84 116.63,227.63C116.94,226.32 117.24,224.92 117.53,223.51C117.84,222.02 118.14,220.47 118.44,218.92C118.75,217.32 119.04,215.69 119.34,214.05C119.64,212.39 119.95,210.71 120.25,209.04C120.55,207.37 120.85,205.69 121.15,204.02C121.45,202.36 121.75,200.69 122.05,199.04C122.35,197.41 122.66,195.79 122.96,194.18C123.26,192.6 123.56,191.02 123.86,189.47C124.16,187.95 124.46,186.44 124.77,184.95C125.07,183.5 125.36,182.06 125.67,180.65C125.97,179.28 126.27,177.92 126.58,176.59C126.88,175.3 127.17,174.03 127.48,172.79C127.77,171.59 128.07,170.41 128.38,169.26C128.68,168.16 128.98,167.07 129.29,166.02C129.59,165.01 129.88,164.03 130.19,163.08C130.48,162.18 130.79,161.31 131.1,160.47C131.39,159.68 131.69,158.92 132,158.2C132.29,157.54 132.58,156.9 132.9,156.32C133.19,155.79 133.49,155.27 133.81,154.83C134.1,154.43 134.39,154.05 134.71,153.76C135,153.5 135.3,153.26 135.62,153.12C135.91,152.99 136.22,152.91 136.52,152.92C136.82,152.93 137.13,153.03 137.42,153.18C137.74,153.34 138.04,153.6 138.33,153.89C138.65,154.21 138.94,154.62 139.23,155.05C139.55,155.53 139.85,156.08 140.14,156.66C140.46,157.3 140.75,158 141.04,158.73C141.36,159.52 141.66,160.37 141.95,161.24C142.26,162.18 142.56,163.17 142.85,164.19C143.16,165.28 143.46,166.41 143.75,167.57C144.06,168.8 144.37,170.07 144.66,171.38C144.97,172.75 145.26,174.17 145.56,175.61C145.87,177.11 146.17,178.66 146.47,180.23C146.78,181.86 147.07,183.53 147.37,185.23C147.68,186.98 147.97,188.77 148.27,190.59C148.58,192.46 148.88,194.37 149.18,196.3C149.49,198.28 149.78,200.28 150.08,202.31C150.39,204.38 150.69,206.48 150.99,208.6C151.29,210.76 151.59,212.94 151.89,215.14C152.19,217.37 152.49,219.62 152.79,221.87C153.09,224.15 153.4,226.44 153.7,228.74C154,231.06 154.3,233.39 154.6,235.72C154.9,238.06 155.21,240.4 155.51,242.74C155.81,245.08 156.11,247.43 156.41,249.76C156.71,252.09 157.02,254.41 157.32,256.72C157.62,259 157.92,261.28 158.22,263.52C158.52,265.71 158.81,267.9 159.12,270.03C159.42,272.07 159.72,274.1 160.03,276.04C160.32,277.86 160.61,279.66 160.93,281.32C161.22,282.82 161.49,284.35 161.84,285.57C162.11,286.52 162.38,287.4 162.74,288.07C163.01,288.57 163.29,289.04 163.64,289.29C163.91,289.49 164.25,289.62 164.55,289.59C164.86,289.56 165.18,289.35 165.45,289.08C165.81,288.71 166.09,288.08 166.36,287.38C166.73,286.41 166.98,285.01 167.26,283.7C167.58,282.21 167.86,280.5 168.16,278.89C168.46,277.26 168.77,275.6 169.07,273.98C169.37,272.38 169.66,270.78 169.97,269.22C170.27,267.71 170.57,266.22 170.88,264.77C171.18,263.38 171.47,262.01 171.78,260.69C172.07,259.44 172.37,258.22 172.68,257.04C172.97,255.93 173.28,254.86 173.59,253.83C173.88,252.87 174.18,251.94 174.49,251.06C174.78,250.24 175.09,249.44 175.4,248.69C175.69,247.99 175.99,247.32 176.3,246.69C176.59,246.1 176.89,245.53 177.21,245.01C177.5,244.53 177.8,244.08 178.11,243.67C178.4,243.3 178.69,242.95 179.01,242.66C179.3,242.4 179.61,242.17 179.92,241.99C180.21,241.82 180.51,241.69 180.82,241.6C181.12,241.51 181.43,241.47 181.73,241.45C182.03,241.43 182.33,241.45 182.63,241.46C182.93,241.47 183.23,241.5 183.53,241.51C183.83,241.52 184.14,241.53 184.44,241.49C184.74,241.45 185.05,241.38 185.34,241.25C185.65,241.11 185.96,240.91 186.25,240.67C186.57,240.4 186.86,240.06 187.15,239.7C187.47,239.31 187.76,238.86 188.05,238.39C188.36,237.89 188.67,237.35 188.96,236.79C189.27,236.2 189.56,235.59 189.86,234.96C190.17,234.31 190.47,233.64 190.77,232.96C191.08,232.27 191.37,231.55 191.67,230.84C191.97,230.12 192.28,229.38 192.58,228.65C192.88,227.92 193.18,227.18 193.48,226.45C193.78,225.73 194.08,225.01 194.38,224.3C194.68,223.6 194.98,222.91 195.29,222.24C195.59,221.59 195.88,220.96 196.19,220.35C196.48,219.77 196.79,219.21 197.1,218.68C197.39,218.19 197.68,217.7 198,217.28C198.29,216.89 198.58,216.52 198.9,216.23C199.19,215.97 199.49,215.72 199.81,215.59C200.1,215.47 200.41,215.39 200.71,215.42C201.02,215.45 201.34,215.58 201.62,215.77C201.95,215.99 202.24,216.34 202.52,216.72C202.85,217.16 203.14,217.71 203.42,218.29C203.75,218.96 204.04,219.73 204.33,220.53C204.65,221.44 204.94,222.44 205.23,223.47C205.55,224.61 205.85,225.83 206.14,227.09C206.45,228.45 206.75,229.89 207.04,231.37C207.35,232.94 207.65,234.6 207.95,236.26C208.26,237.98 208.55,239.78 208.85,241.53C209.15,243.28 209.45,245.03 209.75,246.77C210.05,248.49 210.36,250.18 210.66,251.91C210.96,253.66 211.26,255.42 211.56,257.19C211.86,258.98 212.17,260.8 212.47,262.61C212.77,264.41 213.07,266.24 213.37,268.02C213.67,269.76 213.96,271.51 214.27,273.17C214.56,274.73 214.86,276.28 215.18,277.68C215.47,278.92 215.73,280.17 216.08,281.16C216.35,281.93 216.59,282.88 216.99,283.17C217.25,283.36 217.63,283.42 217.89,283.27C218.3,283.03 218.52,281.96 218.79,281.09C219.16,279.86 219.42,278.21 219.7,276.54C220.04,274.52 220.31,272.19 220.6,269.82C220.92,267.16 221.22,264.27 221.51,261.35C221.82,258.22 222.11,254.93 222.41,251.63C222.72,248.2 223.02,244.67 223.32,241.14C223.62,237.55 223.92,233.91 224.22,230.29C224.52,226.66 224.82,223.02 225.12,219.4C225.42,215.81 225.73,212.21 226.03,208.66C226.33,205.17 226.62,201.7 226.93,198.29C227.23,194.98 227.53,191.69 227.84,188.49C228.14,185.41 228.43,182.37 228.74,179.42C229.03,176.61 229.33,173.86 229.64,171.2C229.93,168.7 230.24,166.25 230.55,163.91C230.84,161.74 231.13,159.63 231.45,157.64C231.74,155.82 232.04,154.06 232.36,152.43C232.65,150.98 232.93,149.58 233.26,148.33C233.54,147.25 233.82,146.21 234.16,145.34C234.44,144.63 234.71,143.92 235.07,143.46C235.34,143.11 235.65,142.75 235.97,142.69C236.26,142.64 236.61,142.81 236.88,143.03C237.24,143.32 237.51,143.9 237.78,144.47C238.12,145.19 238.4,146.09 238.68,147.03C239.01,148.13 239.3,149.39 239.59,150.69C239.91,152.15 240.2,153.75 240.49,155.38C240.8,157.14 241.11,158.98 241.4,160.88C241.71,162.91 242.01,165.02 242.3,167.2C242.61,169.52 242.92,171.94 243.21,174.41C243.52,177.01 243.82,179.69 244.11,182.41C244.42,185.22 244.71,188.12 245.01,191.01C245.31,193.96 245.62,196.95 245.92,199.94C246.22,202.94 246.52,205.97 246.82,208.98C247.12,211.97 247.43,214.98 247.73,217.94C248.03,220.85 248.32,223.78 248.63,226.61C248.92,229.33 249.21,232.07 249.53,234.6C249.82,236.91 250.1,239.26 250.44,241.2C250.71,242.74 250.82,244.7 251.34,245.33C251.59,245.63 252,245.85 252.25,245.72C252.74,245.47 252.88,243.45 253.15,242.03C253.51,240.13 253.76,237.68 254.05,235.31C254.37,232.65 254.67,229.73 254.96,226.83C255.27,223.79 255.56,220.63 255.86,217.48C256.16,214.28 256.47,211.01 256.77,207.78C257.07,204.55 257.37,201.31 257.67,198.1C257.97,194.93 258.28,191.78 258.58,188.66C258.88,185.6 259.18,182.58 259.48,179.56C259.78,176.57 260.08,173.62 260.38,170.65C260.68,167.67 260.99,164.66 261.29,161.71C261.59,158.82 261.88,155.93 262.19,153.13C262.49,150.45 262.79,147.8 263.1,145.26C263.39,142.86 263.69,140.52 264,138.28C264.29,136.2 264.58,134.17 264.9,132.26C265.19,130.52 265.49,128.84 265.81,127.29C266.1,125.91 266.38,124.59 266.71,123.41C266.99,122.41 267.27,121.44 267.62,120.66C267.89,120.05 268.16,119.41 268.52,119.08C268.79,118.84 269.13,118.65 269.42,118.69C269.74,118.74 270.06,119.12 270.33,119.48C270.69,119.96 270.95,120.71 271.23,121.45C271.57,122.36 271.86,123.45 272.14,124.58C272.47,125.89 272.75,127.34 273.04,128.84C273.36,130.51 273.66,132.31 273.95,134.16C274.27,136.18 274.56,138.31 274.85,140.5C275.16,142.84 275.46,145.27 275.75,147.76C276.06,150.38 276.36,153.1 276.66,155.85C276.97,158.72 277.26,161.67 277.56,164.65C277.87,167.72 278.17,170.85 278.47,174C278.77,177.2 279.07,180.46 279.37,183.7C279.67,186.95 279.97,190.25 280.27,193.48C280.57,196.66 280.87,199.88 281.18,202.96C281.47,205.89 281.76,208.84 282.08,211.53C282.37,213.93 282.63,216.41 282.99,218.32C283.26,219.75 283.46,221.91 283.89,222.02C284.14,222.08 284.54,221.53 284.79,221C285.29,219.94 285.43,217.59 285.7,215.55C286.05,212.98 286.31,209.86 286.6,206.78C286.92,203.36 287.21,199.65 287.51,195.96C287.82,192.1 288.11,188.09 288.41,184.11C288.71,180.06 289.02,175.95 289.32,171.87C289.62,167.79 289.92,163.7 290.22,159.64C290.52,155.63 290.82,151.62 291.12,147.66C291.42,143.77 291.72,139.91 292.03,136.11C292.33,132.41 292.62,128.74 292.93,125.14C293.23,121.65 293.53,118.21 293.84,114.84C294.14,111.6 294.43,108.41 294.74,105.31C295.03,102.35 295.33,99.45 295.64,96.64C295.93,93.99 296.24,91.39 296.55,88.9C296.84,86.57 297.13,84.31 297.45,82.16C297.74,80.18 298.04,78.26 298.36,76.46C298.65,74.84 298.94,73.28 299.26,71.85C299.54,70.6 299.83,69.39 300.16,68.35C300.44,67.48 300.72,66.63 301.07,65.99C301.34,65.5 301.62,64.97 301.97,64.77C302.24,64.61 302.6,64.56 302.88,64.67C303.22,64.8 303.51,65.25 303.78,65.67C304.13,66.21 304.4,66.97 304.68,67.74C305.01,68.66 305.3,69.73 305.59,70.83C305.91,72.08 306.2,73.46 306.49,74.88C306.81,76.44 307.11,78.11 307.4,79.82C307.71,81.66 308.01,83.59 308.3,85.56C308.61,87.65 308.91,89.81 309.21,92.01C309.52,94.3 309.81,96.67 310.11,99.05C310.41,101.51 310.71,104.02 311.01,106.54C311.31,109.11 311.62,111.73 311.92,114.34C312.22,116.97 312.52,119.63 312.82,122.26C313.12,124.89 313.43,127.52 313.73,130.12C314.03,132.67 314.33,135.22 314.63,137.72C314.93,140.16 315.22,142.58 315.53,144.95C315.83,147.25 316.13,149.52 316.44,151.75C316.74,153.92 317.03,156.05 317.34,158.15C317.64,160.19 317.94,162.2 318.25,164.19C318.55,166.13 318.85,168.04 319.15,169.92C319.45,171.76 319.74,173.57 320.05,175.36C320.35,177.11 320.66,178.84 320.96,180.55C321.26,182.23 321.56,183.89 321.86,185.53C322.16,187.14 322.47,188.72 322.77,190.31C323.07,191.88 323.37,193.44 323.67,195.01C323.97,196.58 324.28,198.15 324.58,199.72C324.88,201.29 325.18,202.87 325.48,204.45C325.78,206.02 326.08,207.59 326.38,209.17C326.68,210.76 326.99,212.35 327.29,213.97C327.59,215.61 327.89,217.27 328.19,218.95C328.5,220.67 328.8,222.4 329.1,224.16C329.4,225.95 329.7,227.77 330,229.6C330.3,231.47 330.6,233.35 330.9,235.25C331.2,237.17 331.51,239.11 331.81,241.04C332.11,242.98 332.41,244.94 332.71,246.87C333.01,248.77 333.31,250.67 333.62,252.51C333.92,254.28 334.21,256.05 334.52,257.71C334.81,259.25 335.11,260.72 335.42,262.14C335.71,263.47 336.02,264.74 336.33,266C336.63,267.21 336.91,268.44 337.23,269.57C337.52,270.6 337.77,271.76 338.14,272.52C338.41,273.06 338.71,273.46 339.04,273.8C339.32,274.08 339.64,274.29 339.95,274.46C340.24,274.62 340.55,274.73 340.85,274.83C341.15,274.93 341.45,274.99 341.75,275.07C342.05,275.15 342.36,275.22 342.66,275.29C342.96,275.36 343.26,275.42 343.56,275.49C343.86,275.56 344.17,275.63 344.47,275.7C344.77,275.76 345.07,275.82 345.37,275.88C345.67,275.94 345.97,276 346.27,276.05C346.57,276.1 346.88,276.15 347.18,276.18C347.48,276.21 347.78,276.27 348.08,276.23C348.39,276.18 348.72,276.13 348.99,275.9C349.36,275.58 349.61,274.87 349.89,274.25C350.22,273.52 350.49,272.61 350.79,271.79C351.09,270.97 351.39,270.14 351.7,269.34C352,268.56 352.29,267.8 352.6,267.06C352.9,266.36 353.2,265.68 353.51,265.02C353.8,264.4 354.1,263.79 354.41,263.21C354.7,262.66 355.01,262.13 355.32,261.63C355.61,261.15 355.91,260.7 356.22,260.27C356.51,259.86 356.81,259.47 357.12,259.1C357.42,258.74 357.72,258.41 358.03,258.09C358.33,257.78 358.63,257.48 358.93,257.18C359.23,256.89 359.54,256.61 359.84,256.32C360.14,256.03 360.44,255.74 360.74,255.44C361.04,255.13 361.34,254.82 361.64,254.48C361.95,254.13 362.26,253.76 362.55,253.37C362.86,252.96 363.16,252.52 363.45,252.06C363.76,251.57 364.07,251.04 364.36,250.49C364.67,249.91 364.97,249.31 365.26,248.68C365.57,248.02 365.86,247.33 366.16,246.63C366.47,245.9 366.77,245.16 367.07,244.4C367.38,243.62 367.67,242.82 367.97,242.02C368.27,241.21 368.58,240.39 368.88,239.57C369.18,238.75 369.48,237.92 369.78,237.1C370.08,236.28 370.38,235.46 370.68,234.66C370.98,233.87 371.28,233.08 371.59,232.31C371.89,231.56 372.18,230.81 372.49,230.09C372.79,229.39 373.09,228.71 373.4,228.05C373.7,227.42 373.99,226.8 374.3,226.22C374.59,225.67 374.9,225.14 375.21,224.64C375.5,224.18 375.8,223.73 376.11,223.33C376.4,222.96 376.69,222.61 377.01,222.32C377.3,222.05 377.6,221.8 377.92,221.62C378.21,221.45 378.51,221.32 378.82,221.25C379.12,221.19 379.43,221.18 379.73,221.22C380.04,221.27 380.34,221.38 380.63,221.53C380.94,221.69 381.24,221.92 381.53,222.17C381.85,222.45 382.15,222.78 382.44,223.14C382.76,223.53 383.05,223.98 383.34,224.44C383.65,224.94 383.96,225.47 384.25,226.03C384.56,226.62 384.84,227.32 385.15,227.9C385.44,228.43 385.75,228.88 386.05,229.38C386.36,229.9 386.67,230.41 386.96,230.96C387.27,231.54 387.56,232.14 387.86,232.76C388.17,233.4 388.47,234.07 388.77,234.75C389.08,235.45 389.37,236.18 389.67,236.91C389.98,237.66 390.28,238.43 390.58,239.2C390.88,239.98 391.18,240.78 391.48,241.58C391.78,242.39 392.08,243.21 392.38,244.02C392.68,244.84 392.99,245.66 393.29,246.48C393.59,247.29 393.89,248.11 394.19,248.91C394.49,249.71 394.8,250.51 395.1,251.29C395.4,252.06 395.7,252.82 396,253.57C396.3,254.3 396.59,255.02 396.9,255.72C397.2,256.39 397.5,257.06 397.81,257.69C398.1,258.29 398.4,258.89 398.71,259.44C399,259.95 399.3,260.44 399.62,260.89C399.91,261.3 400.21,261.68 400.52,262.02C400.81,262.33 401.11,262.6 401.42,262.84C401.71,263.06 402.02,263.25 402.33,263.41C402.63,263.57 402.93,263.69 403.23,263.8C403.53,263.91 403.84,263.99 404.14,264.08C404.44,264.16 404.74,264.24 405.04,264.31C405.34,264.39 405.65,264.45 405.95,264.53C406.25,264.61 406.55,264.69 406.85,264.79C407.15,264.89 407.45,265 407.75,265.12C408.05,265.24 408.36,265.38 408.66,265.53C408.96,265.68 409.26,265.86 409.56,266.04C409.87,266.23 410.17,266.43 410.47,266.63C410.77,266.83 411.06,267.08 411.37,267.26C411.66,267.44 411.96,267.62 412.27,267.72C412.56,267.81 412.88,267.82 413.18,267.84C413.48,267.86 413.78,267.84 414.08,267.82C414.38,267.8 414.69,267.76 414.99,267.71C415.29,267.66 415.59,267.59 415.89,267.5C416.19,267.41 416.49,267.31 416.79,267.19C417.1,267.07 417.4,266.93 417.7,266.77C418.01,266.6 418.31,266.43 418.6,266.19C418.92,265.93 419.24,265.66 419.51,265.26C419.86,264.75 420.12,263.99 420.41,263.28C420.73,262.49 421.03,261.62 421.32,260.71C421.64,259.69 421.93,258.58 422.22,257.44C422.53,256.21 422.82,254.89 423.12,253.57C423.43,252.19 423.73,250.75 424.03,249.32C424.33,247.87 424.63,246.41 424.93,244.95C425.23,243.5 425.54,242.03 425.84,240.59C426.14,239.16 426.44,237.73 426.74,236.33C427.04,234.95 427.33,233.58 427.64,232.24C427.94,230.93 428.24,229.64 428.55,228.38C428.85,227.16 429.14,225.95 429.45,224.77C429.75,223.64 430.05,222.52 430.36,221.44C430.65,220.41 430.95,219.41 431.26,218.44C431.55,217.52 431.85,216.63 432.16,215.78C432.45,214.98 432.76,214.22 433.07,213.49C433.36,212.82 433.65,212.17 433.97,211.57C434.26,211.03 434.56,210.51 434.88,210.05C435.17,209.64 435.46,209.25 435.78,208.94C436.06,208.66 436.36,208.4 436.68,208.24C436.97,208.09 437.28,207.99 437.59,207.96C437.89,207.94 438.2,207.98 438.49,208.08C438.8,208.19 439.11,208.38 439.4,208.61C439.72,208.86 440.01,209.19 440.3,209.54C440.62,209.93 440.92,210.37 441.21,210.84C441.53,211.35 441.82,211.92 442.11,212.5C442.42,213.13 442.72,213.81 443.01,214.5C443.32,215.23 443.63,216 443.92,216.79C444.23,217.62 444.52,218.48 444.82,219.35C445.13,220.25 445.43,221.18 445.73,222.11C446.04,223.07 446.33,224.05 446.63,225.03C446.93,226.03 447.23,227.04 447.53,228.04C447.83,229.05 448.14,230.06 448.44,231.06C448.74,232.05 449.04,233.05 449.34,234.03C449.64,235 449.95,235.96 450.25,236.92C450.55,237.86 450.85,238.8 451.15,239.73C451.45,240.65 451.75,241.57 452.05,242.48C452.35,243.39 452.66,244.3 452.96,245.21C453.26,246.12 453.56,247.03 453.86,247.94C454.16,248.86 454.47,249.77 454.77,250.69C455.07,251.61 455.37,252.53 455.67,253.45C455.97,254.38 456.28,255.31 456.58,256.23C456.88,257.15 457.18,258.07 457.48,258.98C457.78,259.88 458.08,260.78 458.38,261.67C458.68,262.54 458.98,263.42 459.29,264.26C459.59,265.07 459.88,265.88 460.19,266.65C460.48,267.38 460.78,268.1 461.1,268.75Q461.39,269.33 462,270.36" style="vector-effect: non-scaling-stroke; fill: none; stroke: rgb(231, 107, 243); stroke-opacity: 1; stroke-width: 2px; opacity: 1;"/></g><g class="points"/><g class="text"/></g></g></g><g class="overplot"/><path class="xlines-above crisp" d="M0,0" style="fill: none;"/><path class="ylines-above crisp" d="M0,0" style="fill: none;"/><g class="overlines-above"/><g class="xaxislayer-above"><g class="xtick"><text text-anchor="middle" x="0" y="433" transform="translate(80,0)" style="font-family: 'Open Sans', verdana, arial, sans-serif; font-size: 12px; fill: rgb(42, 63, 95); fill-opacity: 1; white-space: pre;">0</text></g><g class="xtick"><text text-anchor="middle" x="0" y="433" transform="translate(170.23000000000002,0)" style="font-family: 'Open Sans', verdana, arial, sans-serif; font-size: 12px; fill: rgb(42, 63, 95); fill-opacity: 1; white-space: pre;">100</text></g><g class="xtick"><text text-anchor="middle" x="0" y="433" transform="translate(260.47,0)" style="font-family: 'Open Sans', verdana, arial, sans-serif; font-size: 12px; fill: rgb(42, 63, 95); fill-opacity: 1; white-space: pre;">200</text></g><g class="xtick"><text text-anchor="middle" x="0" y="433" transform="translate(350.7,0)" style="font-family: 'Open Sans', verdana, arial, sans-serif; font-size: 12px; fill: rgb(42, 63, 95); fill-opacity: 1; white-space: pre;">300</text></g><g class="xtick"><text text-anchor="middle" x="0" y="433" transform="translate(440.94,0)" style="font-family: 'Open Sans', verdana, arial, sans-serif; font-size: 12px; fill: rgb(42, 63, 95); fill-opacity: 1; white-space: pre;">400</text></g><g class="xtick"><text text-anchor="middle" x="0" y="433" transform="translate(531.1700000000001,0)" style="font-family: 'Open Sans', verdana, arial, sans-serif; font-size: 12px; fill: rgb(42, 63, 95); fill-opacity: 1; white-space: pre;">500</text></g></g><g class="yaxislayer-above"><g class="ytick"><text text-anchor="end" x="79" y="4.199999999999999" transform="translate(0,405.3)" style="font-family: 'Open Sans', verdana, arial, sans-serif; font-size: 12px; fill: rgb(42, 63, 95); fill-opacity: 1; white-space: pre;">5</text></g><g class="ytick"><text text-anchor="end" x="79" y="4.199999999999999" transform="translate(0,344.45)" style="font-family: 'Open Sans', verdana, arial, sans-serif; font-size: 12px; fill: rgb(42, 63, 95); fill-opacity: 1; white-space: pre;">10</text></g><g class="ytick"><text text-anchor="end" x="79" y="4.199999999999999" transform="translate(0,283.59000000000003)" style="font-family: 'Open Sans', verdana, arial, sans-serif; font-size: 12px; fill: rgb(42, 63, 95); fill-opacity: 1; white-space: pre;">15</text></g><g class="ytick"><text text-anchor="end" x="79" y="4.199999999999999" transform="translate(0,222.73000000000002)" style="font-family: 'Open Sans', verdana, arial, sans-serif; font-size: 12px; fill: rgb(42, 63, 95); fill-opacity: 1; white-space: pre;">20</text></g><g class="ytick"><text text-anchor="end" x="79" y="4.199999999999999" transform="translate(0,161.88)" style="font-family: 'Open Sans', verdana, arial, sans-serif; font-size: 12px; fill: rgb(42, 63, 95); fill-opacity: 1; white-space: pre;">25</text></g><g class="ytick"><text text-anchor="end" x="79" y="4.199999999999999" transform="translate(0,101.02)" style="font-family: 'Open Sans', verdana, arial, sans-serif; font-size: 12px; fill: rgb(42, 63, 95); fill-opacity: 1; white-space: pre;">30</text></g></g><g class="overaxes-above"/></g></g><g class="polarlayer"/><g class="ternarylayer"/><g class="geolayer"/><g class="funnelarealayer"/><g class="pielayer"/><g class="treemaplayer"/><g class="sunburstlayer"/><g class="glimages"/><defs id="topdefs-b85635"><g class="clips"/><clipPath id="legendb85635"><rect width="137" height="67" x="0" y="0"/></clipPath></defs><g class="layer-above"><g class="imagelayer"/><g class="shapelayer"/></g><g class="infolayer"><g class="legend" pointer-events="all" transform="translate(551.24, 100)"><rect class="bg" shape-rendering="crispEdges" width="137" height="67" x="0" y="0" style="stroke: rgb(68, 68, 68); stroke-opacity: 1; fill: rgb(255, 255, 255); fill-opacity: 1; stroke-width: 0px;"/><g class="scrollbox" transform="translate(0, 0)" clip-path="url('#legendb85635')"><g class="groups"><g class="traces" transform="translate(0, 14.5)" style="opacity: 1;"><text class="legendtext" text-anchor="start" x="40" y="4.680000000000001" style="font-family: 'Open Sans', verdana, arial, sans-serif; font-size: 12px; fill: rgb(42, 63, 95); fill-opacity: 1; white-space: pre;">Average Class I</text><g class="layers" style="opacity: 1;"><g class="legendfill"/><g class="legendlines"><path class="js-line" d="M5,0h30" style="fill: none; stroke: rgb(0, 100, 80); stroke-opacity: 1; stroke-width: 2px;"/></g><g class="legendsymbols"><g class="legendpoints"/></g></g><rect class="legendtoggle" x="0" y="-9.5" width="131.15625" height="19" style="fill: rgb(0, 0, 0); fill-opacity: 0;"/></g><g class="traces" transform="translate(0, 33.5)" style="opacity: 1;"><text class="legendtext" text-anchor="start" x="40" y="4.680000000000001" style="font-family: 'Open Sans', verdana, arial, sans-serif; font-size: 12px; fill: rgb(42, 63, 95); fill-opacity: 1; white-space: pre;">Average Class II</text><g class="layers" style="opacity: 1;"><g class="legendfill"/><g class="legendlines"><path class="js-line" d="M5,0h30" style="fill: none; stroke: rgb(0, 176, 246); stroke-opacity: 1; stroke-width: 2px;"/></g><g class="legendsymbols"><g class="legendpoints"/></g></g><rect class="legendtoggle" x="0" y="-9.5" width="131.15625" height="19" style="fill: rgb(0, 0, 0); fill-opacity: 0;"/></g><g class="traces" transform="translate(0, 52.5)" style="opacity: 1;"><text class="legendtext" text-anchor="start" x="40" y="4.680000000000001" style="font-family: 'Open Sans', verdana, arial, sans-serif; font-size: 12px; fill: rgb(42, 63, 95); fill-opacity: 1; white-space: pre;">Average Class III</text><g class="layers" style="opacity: 1;"><g class="legendfill"/><g class="legendlines"><path class="js-line" d="M5,0h30" style="fill: none; stroke: rgb(231, 107, 243); stroke-opacity: 1; stroke-width: 2px;"/></g><g class="legendsymbols"><g class="legendpoints"/></g></g><rect class="legendtoggle" x="0" y="-9.5" width="131.15625" height="19" style="fill: rgb(0, 0, 0); fill-opacity: 0;"/></g></g></g><rect class="scrollbar" rx="20" ry="3" width="0" height="0" x="0" y="0" style="fill: rgb(128, 139, 164); fill-opacity: 1;"/></g><g class="g-gtitle"><text class="gtitle" x="35" y="50" text-anchor="start" dy="0em" style="font-family: 'Open Sans', verdana, arial, sans-serif; font-size: 17px; fill: rgb(42, 63, 95); opacity: 1; font-weight: normal; white-space: pre;">Average curve: betha-structure_group</text></g><g class="g-xtitle"><text class="xtitle" x="311" y="460.8" text-anchor="middle" style="font-family: 'Open Sans', verdana, arial, sans-serif; font-size: 14px; fill: rgb(42, 63, 95); opacity: 1; font-weight: normal; white-space: pre;">Domain</text></g><g class="g-ytitle"><text class="ytitle" transform="rotate(-90,40.840625,260)" x="40.840625" y="260" text-anchor="middle" style="font-family: 'Open Sans', verdana, arial, sans-serif; font-size: 14px; fill: rgb(42, 63, 95); opacity: 1; font-weight: normal; white-space: pre;">Frequency</text></g></g></svg>