<svg class="main-svg" xmlns="http://www.w3.org/2000/svg" xmlns:xlink="http://www.w3.org/1999/xlink" width="700" height="500" style="" viewBox="0 0 700 500"><rect x="0" y="0" width="700" height="500" style="fill: rgb(255, 255, 255); fill-opacity: 1;"/><defs id="defs-9cec02"><g class="clips"><clipPath id="clip9cec02xyplot" class="plotclip"><rect width="462" height="320"/></clipPath><clipPath class="axesclip" id="clip9cec02x"><rect x="80" y="0" width="462" height="500"/></clipPath><clipPath class="axesclip" id="clip9cec02y"><rect x="0" y="100" width="700" height="320"/></clipPath><clipPath class="axesclip" id="clip9cec02xy"><rect x="80" y="100" width="462" height="320"/></clipPath></g><g class="gradients"/></defs><g class="bglayer"><rect class="bg" x="80" y="100" width="462" height="320" style="fill: rgb(229, 236, 246); fill-opacity: 1; stroke-width: 0;"/></g><g class="layer-below"><g class="imagelayer"/><g class="shapelayer"/></g><g class="cartesianlayer"><g class="subplot xy"><g class="layer-subplot"><g class="shapelayer"/><g class="imagelayer"/></g><g class="gridlayer"><g class="x"><path class="xgrid crisp" transform="translate(170.23000000000002,0)" d="M0,100v320" style="stroke: rgb(255, 255, 255); stroke-opacity: 1; stroke-width: 1px;"/><path class="xgrid crisp" transform="translate(260.47,0)" d="M0,100v320" style="stroke: rgb(255, 255, 255); stroke-opacity: 1; stroke-width: 1px;"/><path class="xgrid crisp" transform="translate(350.7,0)" d="M0,100v320" style="stroke: rgb(255, 255, 255); stroke-opacity: 1; stroke-width: 1px;"/><path class="xgrid crisp" transform="translate(440.94,0)" d="M0,100v320" style="stroke: rgb(255, 255, 255); stroke-opacity: 1; stroke-width: 1px;"/><path class="xgrid crisp" transform="translate(531.1700000000001,0)" d="M0,100v320" style="stroke: rgb(255, 255, 255); stroke-opacity: 1; stroke-width: 1px;"/></g><g class="y"><path class="ygrid crisp" transform="translate(0,377.87)" d="M80,0h462" style="stroke: rgb(255, 255, 255); stroke-opacity: 1; stroke-width: 1px;"/><path class="ygrid crisp" transform="translate(0,320.82)" d="M80,0h462" style="stroke: rgb(255, 255, 255); stroke-opacity: 1; stroke-width: 1px;"/><path class="ygrid crisp" transform="translate(0,263.76)" d="M80,0h462" style="stroke: rgb(255, 255, 255); stroke-opacity: 1; stroke-width: 1px;"/><path class="ygrid crisp" transform="translate(0,206.7)" d="M80,0h462" style="stroke: rgb(255, 255, 255); stroke-opacity: 1; stroke-width: 1px;"/><path class="ygrid crisp" transform="translate(0,149.65)" d="M80,0h462" style="stroke: rgb(255, 255, 255); stroke-opacity: 1; stroke-width: 1px;"/></g></g><g class="zerolinelayer"><path class="xzl zl crisp" transform="translate(80,0)" d="M0,100v320" style="stroke: rgb(255, 255, 255); stroke-opacity: 1; stroke-width: 2px;"/></g><path class="xlines-below"/><path class="ylines-below"/><g class="overlines-below"/><g class="xaxislayer-below"/><g class="yaxislayer-below"/><g class="overaxes-below"/><g class="plot" transform="translate(80, 100)" clip-path="url('#clip9cec02xyplot')"><g class="scatterlayer mlayer"><g class="trace scatter traced97626" style="stroke-miterlimit: 2; opacity: 1;"><g class="fills"/><g class="errorbars"/><g class="lines"><path class="js-line" d="M0,236.53Q0.63,236.26 0.9,235.98C1.26,235.61 1.53,234.98 1.81,234.35C2.15,233.58 2.43,232.63 2.71,231.66C3.04,230.53 3.33,229.27 3.62,227.96C3.94,226.5 4.23,224.92 4.52,223.3C4.83,221.54 5.13,219.67 5.42,217.76C5.73,215.72 6.04,213.59 6.33,211.42C6.64,209.13 6.93,206.76 7.23,204.35C7.54,201.84 7.84,199.27 8.14,196.66C8.45,193.96 8.74,191.2 9.04,188.42C9.35,185.56 9.65,182.66 9.95,179.74C10.25,176.76 10.55,173.75 10.85,170.72C11.15,167.65 11.45,164.56 11.75,161.46C12.05,158.34 12.36,155.2 12.66,152.06C12.96,148.91 13.26,145.75 13.56,142.6C13.86,139.46 14.17,136.32 14.47,133.19C14.77,130.09 15.07,126.99 15.37,123.91C15.67,120.87 15.97,117.84 16.27,114.84C16.57,111.88 16.88,108.95 17.18,106.04C17.48,103.19 17.78,100.36 18.08,97.56C18.38,94.81 18.69,92.08 18.99,89.37C19.29,86.69 19.59,84.04 19.89,81.37C20.19,78.68 20.49,76 20.79,73.28C21.09,70.51 21.4,67.7 21.7,64.89C22,62.05 22.3,59.17 22.6,56.34C22.9,53.55 23.2,50.76 23.51,48.05C23.81,45.44 24.1,42.86 24.41,40.37C24.7,38.02 25.01,35.71 25.32,33.52C25.61,31.49 25.9,29.52 26.22,27.68C26.51,26.01 26.79,24.39 27.12,22.93C27.4,21.65 27.69,20.42 28.03,19.37C28.31,18.5 28.57,17.64 28.93,17.04C29.2,16.59 29.5,16.1 29.84,16C30.12,15.92 30.48,16.05 30.74,16.26C31.11,16.55 31.37,17.21 31.64,17.83C31.99,18.63 32.27,19.66 32.55,20.71C32.88,21.96 33.17,23.38 33.45,24.86C33.77,26.54 34.07,28.37 34.36,30.27C34.68,32.36 34.97,34.58 35.26,36.87C35.57,39.34 35.87,41.93 36.16,44.59C36.47,47.42 36.78,50.35 37.07,53.35C37.38,56.5 37.67,59.76 37.97,63.06C38.28,66.5 38.58,70.02 38.88,73.59C39.19,77.28 39.48,81.04 39.78,84.83C40.08,88.71 40.38,92.65 40.68,96.61C40.98,100.63 41.29,104.7 41.59,108.77C41.89,112.87 42.19,117.01 42.49,121.12C42.79,125.23 43.1,129.36 43.4,133.45C43.7,137.49 43.99,141.54 44.3,145.51C44.6,149.4 44.9,153.27 45.21,157.04C45.51,160.67 45.8,164.27 46.11,167.73C46.4,171 46.69,174.22 47.01,177.26C47.3,180.06 47.6,182.79 47.92,185.32C48.21,187.57 48.49,189.75 48.82,191.7C49.1,193.36 49.39,194.96 49.73,196.3C50,197.37 50.26,198.42 50.63,199.15C50.89,199.67 51.18,200.24 51.53,200.37C51.8,200.47 52.17,200.35 52.44,200.16C52.8,199.91 53.06,199.29 53.34,198.75C53.68,198.08 53.96,197.24 54.25,196.41C54.57,195.48 54.86,194.45 55.15,193.43C55.46,192.35 55.75,191.21 56.05,190.08C56.35,188.94 56.66,187.76 56.96,186.62C57.26,185.49 57.55,184.36 57.86,183.27C58.16,182.22 58.46,181.19 58.77,180.21C59.06,179.3 59.35,178.41 59.67,177.6C59.96,176.87 60.25,176.15 60.58,175.54C60.86,175.01 61.15,174.49 61.48,174.12C61.76,173.81 62.06,173.52 62.38,173.41C62.67,173.31 63,173.32 63.29,173.42C63.61,173.54 63.91,173.85 64.19,174.17C64.53,174.56 64.82,175.09 65.1,175.64C65.43,176.28 65.71,177.02 66,177.78C66.32,178.64 66.61,179.58 66.9,180.54C67.21,181.58 67.52,182.69 67.81,183.82C68.12,185.02 68.41,186.27 68.71,187.53C69.02,188.83 69.32,190.17 69.62,191.51C69.92,192.87 70.22,194.26 70.52,195.63C70.82,197 71.12,198.38 71.42,199.73C71.72,201.06 72.02,202.4 72.33,203.7C72.63,204.97 72.92,206.23 73.23,207.46C73.53,208.65 73.83,209.83 74.14,210.96C74.43,212.04 74.73,213.1 75.04,214.11C75.33,215.05 75.64,215.97 75.95,216.83C76.24,217.63 76.54,218.39 76.85,219.1C77.14,219.75 77.43,220.37 77.75,220.95C78.04,221.48 78.34,221.99 78.66,222.44C78.95,222.85 79.24,223.24 79.56,223.57C79.85,223.87 80.15,224.15 80.47,224.37C80.76,224.57 81.06,224.75 81.37,224.86C81.66,224.97 81.97,225.03 82.27,225.05C82.57,225.07 82.88,225.04 83.18,224.99C83.48,224.94 83.78,224.83 84.08,224.72C84.39,224.6 84.69,224.45 84.99,224.3C85.29,224.15 85.59,223.97 85.89,223.8C86.19,223.63 86.49,223.44 86.79,223.27C87.09,223.1 87.39,222.93 87.7,222.79C88,222.65 88.3,222.52 88.6,222.42C88.9,222.32 89.21,222.23 89.51,222.19C89.81,222.15 90.11,222.13 90.41,222.16C90.71,222.19 91.02,222.26 91.32,222.37C91.63,222.48 91.93,222.64 92.22,222.83C92.53,223.03 92.83,223.28 93.12,223.56C93.43,223.86 93.74,224.2 94.03,224.57C94.34,224.96 94.64,225.4 94.93,225.85C95.24,226.33 95.55,226.85 95.84,227.39C96.15,227.96 96.45,228.57 96.74,229.19C97.05,229.84 97.34,230.51 97.64,231.2C97.95,231.91 98.25,232.65 98.55,233.4C98.86,234.17 99.15,234.96 99.45,235.75C99.75,236.56 100.06,237.38 100.36,238.21C100.66,239.04 100.96,239.89 101.26,240.73C101.56,241.57 101.86,242.4 102.16,243.23C102.46,244.05 102.76,244.86 103.07,245.66C103.37,246.43 103.66,247.2 103.97,247.94C104.27,248.64 104.57,249.33 104.88,249.98C105.17,250.59 105.47,251.17 105.78,251.71C106.07,252.2 106.36,252.67 106.68,253.08C106.97,253.45 107.27,253.79 107.59,254.05C107.88,254.28 108.18,254.5 108.49,254.61C108.78,254.71 109.1,254.76 109.4,254.73C109.7,254.7 110.01,254.58 110.3,254.42C110.62,254.24 110.92,253.96 111.21,253.66C111.53,253.32 111.83,252.89 112.11,252.44C112.43,251.94 112.72,251.37 113.01,250.77C113.33,250.11 113.63,249.39 113.92,248.63C114.24,247.79 114.53,246.88 114.82,245.94C115.13,244.92 115.44,243.83 115.73,242.73C116.04,241.56 116.34,240.35 116.63,239.12C116.94,237.85 117.23,236.54 117.53,235.23C117.84,233.88 118.14,232.51 118.44,231.13C118.74,229.73 119.04,228.31 119.34,226.88C119.64,225.44 119.95,223.98 120.25,222.53C120.55,221.07 120.85,219.6 121.15,218.14C121.45,216.68 121.75,215.22 122.05,213.77C122.35,212.33 122.66,210.88 122.96,209.45C123.26,208.04 123.56,206.64 123.86,205.25C124.16,203.89 124.46,202.53 124.77,201.2C125.07,199.9 125.36,198.62 125.67,197.36C125.97,196.14 126.27,194.93 126.58,193.76C126.88,192.63 127.17,191.52 127.48,190.44C127.77,189.42 128.07,188.41 128.38,187.45C128.67,186.54 128.98,185.65 129.29,184.8C129.58,184.01 129.88,183.24 130.19,182.53C130.48,181.87 130.78,181.24 131.1,180.66C131.39,180.14 131.68,179.64 132,179.21C132.29,178.82 132.58,178.46 132.9,178.18C133.19,177.93 133.49,177.71 133.81,177.57C134.1,177.45 134.41,177.37 134.71,177.37C135.01,177.37 135.33,177.46 135.62,177.59C135.93,177.73 136.23,177.95 136.52,178.2C136.84,178.48 137.13,178.82 137.42,179.19C137.74,179.59 138.04,180.06 138.33,180.54C138.64,181.06 138.94,181.63 139.23,182.22C139.54,182.85 139.85,183.52 140.14,184.21C140.45,184.94 140.75,185.7 141.04,186.48C141.35,187.3 141.65,188.15 141.95,189.01C142.26,189.91 142.55,190.84 142.85,191.78C143.15,192.75 143.45,193.74 143.75,194.74C144.06,195.77 144.36,196.81 144.66,197.86C144.96,198.92 145.26,199.99 145.56,201.06C145.86,202.13 146.17,203.22 146.47,204.29C146.77,205.35 147.07,206.41 147.37,207.45C147.67,208.47 147.96,209.48 148.27,210.46C148.57,211.4 148.87,212.33 149.18,213.22C149.47,214.05 149.76,214.87 150.08,215.63C150.37,216.33 150.67,217 150.99,217.6C151.28,218.13 151.56,218.64 151.89,219.04C152.17,219.38 152.46,219.7 152.79,219.88C153.07,220.03 153.4,220.13 153.7,220.11C154.01,220.09 154.32,219.92 154.6,219.72C154.93,219.48 155.23,219.11 155.51,218.72C155.84,218.27 156.12,217.72 156.41,217.16C156.73,216.53 157.03,215.83 157.32,215.12C157.63,214.35 157.93,213.54 158.22,212.71C158.53,211.85 158.82,210.94 159.12,210.04C159.43,209.11 159.73,208.16 160.03,207.21C160.33,206.25 160.63,205.28 160.93,204.31C161.23,203.33 161.54,202.35 161.84,201.37C162.14,200.39 162.44,199.41 162.74,198.43C163.04,197.45 163.34,196.47 163.64,195.5C163.94,194.53 164.25,193.56 164.55,192.6C164.85,191.66 165.14,190.72 165.45,189.81C165.75,188.93 166.05,188.06 166.36,187.24C166.65,186.46 166.94,185.7 167.26,185C167.55,184.36 167.84,183.74 168.16,183.21C168.45,182.74 168.74,182.28 169.07,181.94C169.35,181.65 169.65,181.38 169.97,181.27C170.26,181.17 170.59,181.15 170.88,181.24C171.2,181.34 171.5,181.6 171.78,181.89C172.11,182.24 172.4,182.74 172.68,183.25C173.01,183.86 173.31,184.58 173.59,185.33C173.91,186.19 174.2,187.15 174.49,188.14C174.81,189.24 175.11,190.43 175.4,191.66C175.72,193 176.01,194.43 176.3,195.9C176.61,197.48 176.92,199.13 177.21,200.83C177.52,202.63 177.82,204.49 178.11,206.4C178.42,208.41 178.71,210.49 179.01,212.6C179.32,214.8 179.62,217.07 179.92,219.36C180.23,221.74 180.52,224.16 180.82,226.62C181.13,229.15 181.43,231.73 181.73,234.32C182.03,236.97 182.33,239.66 182.63,242.36C182.93,245.1 183.23,247.88 183.53,250.65C183.83,253.44 184.14,256.25 184.44,259.05C184.74,261.83 185.04,264.64 185.34,267.39C185.64,270.09 185.94,272.8 186.25,275.41C186.54,277.9 186.83,280.41 187.15,282.7C187.44,284.75 187.71,286.78 188.05,288.52C188.33,289.95 188.6,291.33 188.96,292.41C189.23,293.22 189.47,294.07 189.86,294.47C190.12,294.74 190.49,294.96 190.77,294.9C191.1,294.84 191.4,294.35 191.67,293.92C192.03,293.34 192.3,292.49 192.58,291.64C192.92,290.62 193.19,289.41 193.48,288.2C193.8,286.88 194.08,285.44 194.38,284.02C194.69,282.54 194.99,281.01 195.29,279.49C195.59,277.97 195.89,276.42 196.19,274.9C196.49,273.4 196.79,271.9 197.1,270.44C197.4,269.03 197.69,267.63 198,266.28C198.29,265.01 198.59,263.76 198.9,262.57C199.19,261.47 199.49,260.39 199.81,259.39C200.1,258.49 200.39,257.62 200.71,256.85C200.99,256.17 201.29,255.51 201.62,254.97C201.9,254.51 202.19,254.07 202.52,253.78C202.8,253.54 203.11,253.34 203.42,253.3C203.72,253.26 204.05,253.35 204.33,253.5C204.66,253.67 204.95,254.01 205.23,254.36C205.56,254.77 205.85,255.29 206.14,255.82C206.46,256.42 206.75,257.11 207.04,257.81C207.36,258.58 207.66,259.42 207.95,260.27C208.26,261.17 208.56,262.13 208.85,263.09C209.16,264.1 209.45,265.14 209.75,266.19C210.06,267.27 210.36,268.38 210.66,269.48C210.96,270.6 211.26,271.73 211.56,272.85C211.86,273.95 212.16,275.06 212.47,276.13C212.77,277.16 213.06,278.19 213.37,279.15C213.66,280.05 213.95,280.94 214.27,281.73C214.56,282.43 214.84,283.14 215.18,283.68C215.46,284.12 215.74,284.67 216.08,284.8C216.36,284.91 216.72,284.83 216.99,284.66C217.34,284.44 217.62,283.89 217.89,283.39C218.23,282.76 218.51,281.94 218.79,281.11C219.12,280.15 219.41,279.07 219.7,277.97C220.02,276.77 220.31,275.49 220.6,274.19C220.91,272.82 221.21,271.4 221.51,269.97C221.82,268.5 222.11,266.99 222.41,265.49C222.71,263.96 223.02,262.42 223.32,260.88C223.62,259.34 223.92,257.79 224.22,256.26C224.52,254.74 224.82,253.22 225.12,251.71C225.42,250.23 225.73,248.75 226.03,247.29C226.33,245.85 226.63,244.43 226.93,243.02C227.23,241.64 227.53,240.27 227.84,238.92C228.14,237.6 228.44,236.3 228.74,235.01C229.04,233.75 229.33,232.51 229.64,231.29C229.94,230.11 230.24,228.95 230.55,227.83C230.84,226.76 231.14,225.71 231.45,224.71C231.74,223.77 232.04,222.85 232.36,222C232.65,221.22 232.94,220.47 233.26,219.8C233.54,219.2 233.83,218.62 234.16,218.15C234.44,217.74 234.74,217.35 235.07,217.1C235.35,216.89 235.66,216.72 235.97,216.69C236.27,216.66 236.6,216.76 236.88,216.92C237.21,217.1 237.5,217.44 237.78,217.79C238.11,218.2 238.4,218.74 238.68,219.29C239,219.92 239.3,220.64 239.59,221.38C239.91,222.19 240.2,223.08 240.49,223.98C240.8,224.95 241.1,225.97 241.4,227.01C241.71,228.09 242,229.23 242.3,230.35C242.6,231.5 242.91,232.67 243.21,233.82C243.51,234.96 243.8,236.11 244.11,237.22C244.4,238.28 244.69,239.35 245.01,240.32C245.3,241.21 245.59,242.09 245.92,242.83C246.2,243.45 246.46,244.1 246.82,244.47C247.09,244.74 247.44,245.02 247.73,244.99C248.04,244.96 248.37,244.58 248.63,244.21C249,243.7 249.25,242.87 249.53,242.05C249.87,241.03 250.16,239.81 250.44,238.55C250.77,237.1 251.05,235.48 251.34,233.82C251.66,231.99 251.96,230.04 252.25,228.04C252.56,225.91 252.86,223.67 253.15,221.4C253.46,219.03 253.75,216.58 254.05,214.11C254.36,211.57 254.66,208.97 254.96,206.37C255.26,203.73 255.56,201.05 255.86,198.38C256.16,195.69 256.47,192.98 256.77,190.3C257.07,187.63 257.37,184.96 257.67,182.32C257.97,179.72 258.27,177.14 258.58,174.6C258.88,172.12 259.17,169.67 259.48,167.27C259.77,164.96 260.07,162.68 260.38,160.47C260.67,158.37 260.98,156.31 261.29,154.33C261.58,152.48 261.87,150.67 262.19,148.96C262.48,147.38 262.78,145.85 263.1,144.43C263.39,143.16 263.67,141.94 264,140.85C264.28,139.91 264.56,139 264.9,138.26C265.18,137.66 265.45,137.05 265.81,136.71C266.08,136.45 266.41,136.21 266.71,136.23C267.02,136.25 267.35,136.55 267.62,136.85C267.98,137.25 268.25,137.91 268.52,138.56C268.86,139.36 269.14,140.33 269.42,141.34C269.75,142.51 270.04,143.81 270.33,145.16C270.65,146.67 270.94,148.3 271.23,149.98C271.55,151.81 271.85,153.74 272.14,155.72C272.45,157.84 272.75,160.05 273.04,162.3C273.35,164.67 273.65,167.12 273.95,169.6C274.26,172.18 274.55,174.83 274.85,177.49C275.15,180.21 275.45,183 275.75,185.76C276.05,188.51 276.35,191.35 276.66,194.02C276.95,196.53 277.22,199.17 277.56,201.34C277.84,203.09 278.16,204.56 278.47,206.06C278.76,207.45 279.05,208.79 279.37,210.04C279.66,211.16 279.92,212.34 280.27,213.22C280.54,213.89 280.8,214.63 281.18,214.93C281.44,215.14 281.8,215.24 282.08,215.17C282.41,215.08 282.72,214.66 282.99,214.27C283.35,213.75 283.61,213 283.89,212.23C284.23,211.3 284.51,210.19 284.79,209.04C285.12,207.72 285.41,206.26 285.7,204.75C286.02,203.08 286.31,201.29 286.6,199.46C286.91,197.5 287.21,195.45 287.51,193.37C287.82,191.19 288.11,188.94 288.41,186.68C288.72,184.36 289.02,182 289.32,179.64C289.62,177.26 289.92,174.85 290.22,172.47C290.52,170.09 290.82,167.71 291.12,165.36C291.42,163.05 291.72,160.75 292.03,158.49C292.33,156.3 292.62,154.12 292.93,152C293.23,149.96 293.53,147.94 293.84,145.99C294.13,144.14 294.43,142.32 294.74,140.58C295.03,138.94 295.33,137.33 295.64,135.81C295.93,134.4 296.23,133.03 296.55,131.74C296.84,130.56 297.13,129.43 297.45,128.38C297.74,127.44 298.04,126.55 298.36,125.75C298.64,125.04 298.93,124.37 299.26,123.8C299.54,123.31 299.84,122.86 300.16,122.49C300.45,122.16 300.76,121.9 301.07,121.65C301.36,121.42 301.67,121.26 301.97,121.04C302.28,120.81 302.59,120.58 302.88,120.3C303.19,120.01 303.48,119.65 303.78,119.32C304.08,118.98 304.37,118.6 304.68,118.29C304.97,118 305.27,117.7 305.59,117.5C305.88,117.33 306.18,117.17 306.49,117.14C306.79,117.11 307.11,117.18 307.4,117.31C307.72,117.46 308.02,117.75 308.3,118.06C308.63,118.42 308.93,118.9 309.21,119.4C309.54,119.97 309.83,120.64 310.11,121.33C310.43,122.1 310.72,122.96 311.01,123.84C311.33,124.81 311.63,125.84 311.92,126.9C312.23,128.05 312.53,129.25 312.82,130.49C313.13,131.8 313.44,133.17 313.73,134.56C314.04,136.02 314.34,137.53 314.63,139.07C314.94,140.67 315.23,142.32 315.53,143.98C315.84,145.7 316.14,147.46 316.44,149.23C316.75,151.05 317.04,152.9 317.34,154.77C317.64,156.67 317.95,158.6 318.25,160.54C318.55,162.51 318.85,164.5 319.15,166.5C319.45,168.52 319.75,170.55 320.05,172.58C320.35,174.62 320.66,176.68 320.96,178.73C321.26,180.79 321.56,182.85 321.86,184.91C322.16,186.97 322.47,189.03 322.77,191.08C323.07,193.12 323.37,195.15 323.67,197.18C323.97,199.19 324.28,201.2 324.58,203.2C324.88,205.17 325.18,207.14 325.48,209.09C325.78,211.02 326.08,212.94 326.38,214.85C326.68,216.73 326.99,218.6 327.29,220.45C327.59,222.27 327.89,224.08 328.19,225.87C328.49,227.64 328.8,229.39 329.1,231.13C329.4,232.84 329.7,234.53 330,236.21C330.3,237.86 330.6,239.48 330.9,241.1C331.2,242.69 331.51,244.27 331.81,245.83C332.11,247.36 332.41,248.87 332.71,250.37C333.01,251.84 333.32,253.29 333.62,254.73C333.92,256.14 334.22,257.53 334.52,258.9C334.82,260.23 335.11,261.55 335.42,262.84C335.72,264.08 336.02,265.33 336.33,266.5C336.62,267.59 336.9,268.7 337.23,269.66C337.51,270.48 337.82,271.21 338.14,271.91C338.43,272.54 338.73,273.12 339.04,273.67C339.33,274.18 339.63,274.66 339.95,275.09C340.24,275.49 340.54,275.87 340.85,276.19C341.14,276.49 341.44,276.75 341.75,276.97C342.04,277.17 342.35,277.34 342.66,277.46C342.95,277.58 343.26,277.65 343.56,277.7C343.86,277.75 344.17,277.76 344.47,277.75C344.77,277.74 345.07,277.71 345.37,277.66C345.67,277.61 345.97,277.54 346.27,277.47C346.57,277.4 346.88,277.3 347.18,277.22C347.48,277.14 347.78,277.05 348.08,276.97C348.38,276.89 348.69,276.82 348.99,276.76C349.29,276.7 349.59,276.65 349.89,276.62C350.19,276.59 350.49,276.58 350.79,276.57C351.09,276.56 351.4,276.57 351.7,276.58C352,276.59 352.3,276.63 352.6,276.65C352.9,276.68 353.21,276.7 353.51,276.73C353.81,276.76 354.11,276.8 354.41,276.83C354.71,276.86 355.02,276.9 355.32,276.93C355.62,276.96 355.92,277 356.22,277.02C356.52,277.04 356.82,277.06 357.12,277.07C357.42,277.08 357.73,277.07 358.03,277.06C358.33,277.05 358.63,277.03 358.93,276.99C359.23,276.95 359.54,276.9 359.84,276.84C360.14,276.78 360.44,276.71 360.74,276.61C361.04,276.51 361.35,276.39 361.64,276.24C361.95,276.08 362.26,275.9 362.55,275.67C362.86,275.43 363.16,275.14 363.45,274.81C363.77,274.44 364.07,274.02 364.36,273.56C364.68,273.04 364.98,272.45 365.26,271.81C365.58,271.08 365.88,270.28 366.16,269.42C366.48,268.44 366.78,267.35 367.07,266.24C367.39,265.03 367.68,263.73 367.97,262.42C368.28,261.05 368.58,259.63 368.88,258.21C369.19,256.75 369.48,255.25 369.78,253.75C370.08,252.22 370.38,250.68 370.68,249.13C370.98,247.57 371.29,245.99 371.59,244.42C371.89,242.85 372.19,241.26 372.49,239.69C372.79,238.12 373.1,236.56 373.4,235C373.7,233.46 374,231.92 374.3,230.4C374.6,228.9 374.91,227.41 375.21,225.93C375.51,224.48 375.81,223.04 376.11,221.62C376.41,220.23 376.7,218.86 377.01,217.5C377.31,216.17 377.61,214.86 377.92,213.57C378.22,212.31 378.51,211.06 378.82,209.83C379.12,208.63 379.42,207.43 379.73,206.26C380.03,205.11 380.33,203.98 380.63,202.86C380.93,201.76 381.22,200.68 381.53,199.61C381.83,198.56 382.14,197.53 382.44,196.51C382.74,195.5 383.04,194.51 383.34,193.52C383.64,192.55 383.95,191.59 384.25,190.64C384.55,189.7 384.85,188.76 385.15,187.84C385.45,186.94 385.74,186.03 386.05,185.16C386.35,184.33 386.65,183.5 386.96,182.72C387.25,181.99 387.54,181.28 387.86,180.63C388.15,180.04 388.45,179.47 388.77,178.99C389.05,178.57 389.34,178.15 389.67,177.86C389.95,177.61 390.26,177.38 390.58,177.28C390.87,177.19 391.19,177.17 391.48,177.25C391.79,177.33 392.1,177.55 392.38,177.8C392.71,178.09 393.01,178.49 393.29,178.92C393.62,179.41 393.9,179.99 394.19,180.6C394.51,181.28 394.81,182.04 395.1,182.83C395.42,183.7 395.71,184.63 396,185.59C396.31,186.63 396.61,187.73 396.9,188.86C397.21,190.06 397.52,191.32 397.81,192.61C398.12,193.96 398.41,195.36 398.71,196.79C399.02,198.28 399.32,199.81 399.62,201.37C399.93,202.98 400.22,204.63 400.52,206.3C400.82,208.02 401.12,209.77 401.42,211.54C401.72,213.34 402.03,215.17 402.33,217.01C402.63,218.88 402.93,220.77 403.23,222.67C403.53,224.58 403.84,226.51 404.14,228.43C404.44,230.36 404.74,232.29 405.04,234.22C405.34,236.14 405.65,238.06 405.95,239.97C406.25,241.87 406.55,243.76 406.85,245.64C407.15,247.5 407.45,249.36 407.75,251.2C408.05,253.02 408.36,254.84 408.66,256.64C408.96,258.42 409.26,260.19 409.56,261.94C409.86,263.66 410.16,265.38 410.47,267.07C410.77,268.72 411.07,270.36 411.37,271.97C411.67,273.53 411.96,275.08 412.27,276.59C412.57,278.04 412.87,279.47 413.18,280.85C413.47,282.16 413.77,283.44 414.08,284.67C414.37,285.83 414.68,286.95 414.99,288.03C415.28,289.03 415.58,290.01 415.89,290.93C416.18,291.78 416.47,292.61 416.79,293.37C417.08,294.06 417.38,294.72 417.7,295.31C417.98,295.83 418.28,296.31 418.6,296.72C418.88,297.08 419.19,297.4 419.51,297.64C419.8,297.85 420.1,298.03 420.41,298.13C420.7,298.23 421.02,298.25 421.32,298.25C421.62,298.25 421.92,298.19 422.22,298.12C422.52,298.05 422.82,297.94 423.12,297.82C423.43,297.7 423.74,297.56 424.03,297.38C424.34,297.19 424.64,296.96 424.93,296.71C425.24,296.44 425.54,296.11 425.84,295.8C426.15,295.48 426.44,295.13 426.74,294.8C427.04,294.47 427.34,294.13 427.64,293.8C427.94,293.48 428.24,293.16 428.55,292.86C428.85,292.56 429.15,292.27 429.45,291.99C429.75,291.71 430.06,291.44 430.36,291.18C430.66,290.92 430.96,290.67 431.26,290.43C431.56,290.19 431.86,289.95 432.16,289.72C432.46,289.49 432.77,289.27 433.07,289.05C433.37,288.83 433.67,288.62 433.97,288.41C434.27,288.19 434.58,287.98 434.88,287.76C435.18,287.54 435.48,287.32 435.78,287.11C436.08,286.91 436.37,286.7 436.68,286.52C436.98,286.34 437.28,286.18 437.59,286.04C437.89,285.9 438.19,285.78 438.49,285.69C438.79,285.6 439.1,285.53 439.4,285.48C439.7,285.43 440,285.41 440.3,285.4C440.6,285.39 440.91,285.41 441.21,285.45C441.51,285.49 441.81,285.56 442.11,285.64C442.41,285.72 442.71,285.83 443.01,285.95C443.32,286.07 443.62,286.21 443.92,286.37C444.22,286.53 444.52,286.71 444.82,286.9C445.13,287.1 445.43,287.31 445.73,287.53C446.03,287.76 446.33,288 446.63,288.25C446.93,288.5 447.23,288.77 447.53,289.04C447.84,289.32 448.14,289.61 448.44,289.9C448.74,290.19 449.04,290.49 449.34,290.8C449.64,291.11 449.95,291.43 450.25,291.75C450.55,292.07 450.85,292.4 451.15,292.73C451.45,293.06 451.75,293.39 452.05,293.72C452.35,294.05 452.66,294.38 452.96,294.71C453.26,295.04 453.56,295.37 453.86,295.7C454.16,296.02 454.46,296.35 454.77,296.66C455.07,296.96 455.36,297.27 455.67,297.52C455.96,297.76 456.28,297.93 456.58,298.13C456.88,298.33 457.18,298.52 457.48,298.71C457.78,298.9 458.08,299.08 458.38,299.25C458.68,299.42 458.99,299.58 459.29,299.73C459.59,299.88 459.89,300.02 460.19,300.14C460.49,300.26 460.8,300.37 461.1,300.46Q461.4,300.55 462,300.67" style="vector-effect: non-scaling-stroke; fill: none; stroke: rgb(0, 100, 80); stroke-opacity: 1; stroke-width: 2px; opacity: 1;"/></g><g class="points"/><g class="text"/></g><g class="trace scatter traceff7a74" style="stroke-miterlimit: 2; opacity: 1;"><g class="fills"/><g class="errorbars"/><g class="lines"><path class="js-line" d="M0,230.77Q0.63,229.5 0.9,228.66C1.26,227.52 1.52,225.96 1.81,224.48C2.13,222.81 2.42,220.98 2.71,219.12C3.02,217.11 3.33,214.99 3.62,212.83C3.93,210.55 4.23,208.18 4.52,205.79C4.83,203.3 5.12,200.74 5.42,198.16C5.73,195.5 6.03,192.8 6.33,190.07C6.63,187.29 6.93,184.46 7.23,181.63C7.53,178.76 7.84,175.86 8.14,172.96C8.44,170.03 8.74,167.08 9.04,164.14C9.34,161.19 9.65,158.22 9.95,155.27C10.25,152.32 10.55,149.37 10.85,146.43C11.15,143.5 11.45,140.58 11.75,137.67C12.05,134.79 12.36,131.93 12.66,129.08C12.96,126.27 13.26,123.46 13.56,120.69C13.86,117.96 14.17,115.24 14.47,112.56C14.77,109.93 15.07,107.31 15.37,104.73C15.67,102.21 15.96,99.71 16.27,97.25C16.57,94.85 16.87,92.47 17.18,90.13C17.48,87.86 17.77,85.61 18.08,83.41C18.38,81.28 18.68,79.18 18.99,77.13C19.29,75.15 19.58,73.19 19.89,71.29C20.18,69.46 20.48,67.67 20.79,65.93C21.08,64.27 21.39,62.65 21.7,61.08C21.99,59.6 22.29,58.16 22.6,56.78C22.89,55.49 23.19,54.23 23.51,53.05C23.8,51.97 24.09,50.92 24.41,49.95C24.7,49.08 24.99,48.24 25.32,47.5C25.6,46.86 25.89,46.24 26.22,45.76C26.5,45.36 26.79,44.97 27.12,44.77C27.4,44.61 27.74,44.51 28.03,44.56C28.34,44.61 28.66,44.87 28.93,45.14C29.27,45.48 29.56,46.01 29.84,46.54C30.17,47.18 30.46,47.95 30.74,48.75C31.06,49.67 31.35,50.69 31.64,51.75C31.96,52.93 32.26,54.2 32.55,55.52C32.87,56.95 33.16,58.47 33.45,60.02C33.76,61.68 34.07,63.42 34.36,65.2C34.67,67.09 34.97,69.05 35.26,71.04C35.57,73.13 35.86,75.28 36.16,77.46C36.47,79.73 36.77,82.07 37.07,84.43C37.38,86.87 37.67,89.35 37.97,91.86C38.28,94.43 38.58,97.05 38.88,99.68C39.18,102.35 39.48,105.06 39.78,107.77C40.08,110.5 40.38,113.26 40.68,116.01C40.98,118.77 41.29,121.54 41.59,124.29C41.89,127.03 42.19,129.77 42.49,132.48C42.79,135.15 43.1,137.82 43.4,140.44C43.7,143.01 43.99,145.56 44.3,148.06C44.6,150.49 44.9,152.91 45.21,155.26C45.51,157.53 45.8,159.76 46.11,161.94C46.4,164.02 46.7,166.07 47.01,168.04C47.3,169.9 47.61,171.73 47.92,173.47C48.21,175.1 48.5,176.69 48.82,178.19C49.11,179.57 49.41,180.9 49.73,182.14C50.02,183.25 50.31,184.32 50.63,185.28C50.91,186.12 51.2,186.93 51.53,187.61C51.81,188.18 52.1,188.74 52.44,189.12C52.71,189.42 53.02,189.72 53.34,189.8C53.63,189.87 53.97,189.8 54.25,189.65C54.58,189.47 54.87,189.08 55.15,188.71C55.47,188.29 55.76,187.75 56.05,187.23C56.36,186.68 56.66,186.07 56.96,185.5C57.26,184.93 57.55,184.34 57.86,183.79C58.16,183.26 58.46,182.74 58.77,182.26C59.06,181.82 59.35,181.39 59.67,181.03C59.96,180.7 60.26,180.39 60.58,180.17C60.87,179.97 61.17,179.79 61.48,179.72C61.77,179.65 62.09,179.65 62.38,179.71C62.69,179.77 63,179.93 63.29,180.12C63.61,180.33 63.9,180.62 64.19,180.93C64.51,181.27 64.81,181.68 65.1,182.1C65.41,182.56 65.71,183.07 66,183.59C66.31,184.15 66.61,184.74 66.9,185.35C67.21,186 67.51,186.67 67.81,187.37C68.12,188.1 68.41,188.86 68.71,189.63C69.02,190.44 69.32,191.27 69.62,192.13C69.93,193.02 70.23,193.95 70.52,194.89C70.83,195.87 71.12,196.89 71.42,197.92C71.73,199 72.03,200.1 72.33,201.22C72.64,202.38 72.93,203.58 73.23,204.79C73.54,206.05 73.84,207.33 74.14,208.63C74.45,209.97 74.74,211.33 75.04,212.7C75.35,214.11 75.65,215.54 75.95,216.98C76.25,218.43 76.51,220.07 76.85,221.37C77.13,222.44 77.4,223.46 77.75,224.26C78.02,224.88 78.35,225.33 78.66,225.83C78.95,226.3 79.25,226.74 79.56,227.16C79.85,227.56 80.16,227.94 80.47,228.28C80.76,228.6 81.06,228.9 81.37,229.16C81.66,229.4 81.96,229.62 82.27,229.78C82.56,229.93 82.87,230.06 83.18,230.13C83.48,230.2 83.78,230.23 84.08,230.23C84.38,230.23 84.69,230.17 84.99,230.1C85.29,230.03 85.59,229.93 85.89,229.83C86.19,229.73 86.49,229.59 86.79,229.48C87.09,229.36 87.4,229.24 87.7,229.14C88,229.04 88.3,228.96 88.6,228.9C88.9,228.85 89.21,228.81 89.51,228.81C89.81,228.81 90.11,228.85 90.41,228.92C90.72,228.99 91.02,229.1 91.32,229.24C91.63,229.38 91.93,229.57 92.22,229.77C92.53,229.97 92.82,230.21 93.12,230.44C93.43,230.68 93.73,230.94 94.03,231.2C94.33,231.46 94.63,231.73 94.93,231.99C95.23,232.26 95.54,232.51 95.84,232.79C96.14,233.07 96.44,233.36 96.74,233.66C97.04,233.97 97.34,234.3 97.64,234.64C97.95,234.99 98.25,235.37 98.55,235.75C98.85,236.13 99.14,236.54 99.45,236.91C99.75,237.26 100.03,237.66 100.36,237.91C100.64,238.12 100.96,238.34 101.26,238.35C101.56,238.36 101.87,238.17 102.16,238C102.48,237.81 102.77,237.48 103.07,237.22C103.37,236.96 103.66,236.67 103.97,236.43C104.27,236.2 104.57,235.98 104.88,235.8C105.17,235.63 105.47,235.49 105.78,235.39C106.08,235.29 106.38,235.24 106.68,235.18C106.98,235.12 107.29,235.11 107.59,235.03C107.9,234.95 108.21,234.86 108.49,234.68C108.81,234.48 109.12,234.17 109.4,233.83C109.72,233.45 110.01,232.96 110.3,232.48C110.61,231.96 110.92,231.39 111.21,230.81C111.52,230.19 111.82,229.54 112.11,228.88C112.42,228.18 112.72,227.46 113.01,226.72C113.32,225.94 113.62,225.13 113.92,224.31C114.23,223.45 114.52,222.57 114.82,221.66C115.13,220.71 115.43,219.74 115.73,218.75C116.04,217.72 116.33,216.67 116.63,215.6C116.93,214.5 117.23,213.37 117.53,212.24C117.84,211.08 118.14,209.9 118.44,208.71C118.74,207.5 119.04,206.27 119.34,205.05C119.64,203.82 119.95,202.58 120.25,201.34C120.55,200.11 120.85,198.86 121.15,197.64C121.45,196.44 121.74,195.24 122.05,194.06C122.35,192.91 122.65,191.77 122.96,190.67C123.26,189.61 123.55,188.57 123.86,187.56C124.15,186.6 124.46,185.67 124.77,184.78C125.06,183.95 125.36,183.14 125.67,182.38C125.96,181.67 126.27,181 126.58,180.36C126.87,179.77 127.17,179.21 127.48,178.67C127.77,178.16 128.08,177.69 128.38,177.21C128.68,176.74 128.99,176.29 129.29,175.81C129.6,175.31 129.9,174.8 130.19,174.24C130.51,173.62 130.81,172.96 131.1,172.26C131.42,171.49 131.71,170.65 132,169.8C132.31,168.9 132.6,167.93 132.9,166.98C133.2,166.02 133.51,165.02 133.81,164.06C134.11,163.12 134.4,162.16 134.71,161.26C135,160.4 135.3,159.55 135.62,158.77C135.91,158.05 136.2,157.35 136.52,156.74C136.8,156.2 137.09,155.67 137.42,155.28C137.7,154.95 138,154.63 138.33,154.5C138.61,154.39 138.95,154.37 139.23,154.46C139.55,154.57 139.86,154.88 140.14,155.21C140.48,155.62 140.76,156.19 141.04,156.78C141.37,157.48 141.67,158.31 141.95,159.17C142.27,160.15 142.56,161.25 142.85,162.38C143.17,163.63 143.46,164.98 143.75,166.37C144.06,167.87 144.37,169.46 144.66,171.08C144.97,172.8 145.26,174.61 145.56,176.43C145.87,178.34 146.17,180.3 146.47,182.29C146.78,184.34 147.07,186.44 147.37,188.55C147.67,190.69 147.97,192.87 148.27,195.04C148.57,197.21 148.88,199.4 149.18,201.56C149.48,203.69 149.77,205.83 150.08,207.92C150.38,209.95 150.68,211.97 150.99,213.92C151.28,215.78 151.58,217.61 151.89,219.35C152.18,220.97 152.47,222.56 152.79,224.04C153.08,225.38 153.37,226.69 153.7,227.86C153.98,228.88 154.25,229.89 154.6,230.68C154.87,231.31 155.13,232.09 155.51,232.29C155.77,232.43 156.15,232.39 156.41,232.2C156.84,231.88 157.05,230.8 157.32,229.85C157.7,228.51 157.93,226.56 158.22,224.84C158.53,223.03 158.81,221.1 159.12,219.27C159.42,217.48 159.72,215.69 160.03,213.97C160.32,212.33 160.62,210.71 160.93,209.17C161.22,207.73 161.52,206.33 161.84,205.02C162.13,203.83 162.42,202.68 162.74,201.63C163.02,200.71 163.31,199.82 163.64,199.06C163.92,198.42 164.2,197.79 164.55,197.34C164.82,196.98 165.12,196.63 165.45,196.51C165.73,196.4 166.08,196.42 166.36,196.54C166.69,196.68 166.99,197.05 167.26,197.41C167.6,197.86 167.88,198.46 168.16,199.08C168.49,199.8 168.72,200.83 169.07,201.48C169.34,201.98 169.65,202.36 169.97,202.7C170.25,202.99 170.59,203.13 170.88,203.42C171.2,203.74 171.49,204.15 171.78,204.57C172.1,205.04 172.39,205.57 172.68,206.13C173,206.74 173.3,207.4 173.59,208.09C173.9,208.83 174.2,209.62 174.49,210.44C174.8,211.31 175.11,212.23 175.4,213.17C175.71,214.17 176.01,215.22 176.3,216.29C176.61,217.42 176.92,218.6 177.21,219.8C177.52,221.07 177.82,222.38 178.11,223.72C178.42,225.12 178.71,226.56 179.01,228.02C179.32,229.55 179.62,231.11 179.92,232.7C180.23,234.35 180.52,236.03 180.82,237.73C181.13,239.48 181.43,241.28 181.73,243.05C182.03,244.8 182.33,246.53 182.63,248.28C182.93,250.04 183.23,251.79 183.53,253.56C183.83,255.36 184.14,257.19 184.44,259.01C184.74,260.85 185.04,262.71 185.34,264.55C185.64,266.39 185.95,268.24 186.25,270.06C186.55,271.84 186.84,273.63 187.15,275.35C187.44,277 187.73,278.64 188.05,280.17C188.34,281.58 188.63,282.99 188.96,284.2C189.24,285.22 189.48,286.28 189.86,286.98C190.13,287.48 190.43,288.03 190.77,288.13C191.05,288.21 191.4,288.02 191.67,287.81C192.02,287.54 192.3,287 192.58,286.5C192.91,285.92 193.19,285.21 193.48,284.5C193.8,283.72 194.09,282.87 194.38,282.01C194.69,281.11 194.99,280.15 195.29,279.22C195.59,278.28 195.88,277.32 196.19,276.4C196.49,275.51 196.79,274.62 197.1,273.78C197.39,273 197.68,272.24 198,271.54C198.29,270.9 198.58,270.29 198.9,269.75C199.19,269.27 199.49,268.82 199.81,268.43C200.1,268.08 200.39,267.75 200.71,267.52C201,267.32 201.32,267.23 201.62,267.09C201.92,266.95 202.22,266.82 202.52,266.69C202.82,266.56 203.11,266.35 203.42,266.31C203.72,266.27 204.04,266.34 204.33,266.45C204.64,266.57 204.94,266.81 205.23,267.04C205.54,267.28 205.83,267.62 206.14,267.87C206.43,268.11 206.72,268.38 207.04,268.54C207.33,268.69 207.65,268.74 207.95,268.81C208.25,268.88 208.55,268.88 208.85,268.96C209.15,269.04 209.46,269.13 209.75,269.27C210.06,269.42 210.37,269.61 210.66,269.83C210.97,270.07 211.27,270.35 211.56,270.65C211.87,270.97 212.17,271.32 212.47,271.68C212.78,272.05 213.07,272.45 213.37,272.83C213.67,273.21 213.96,273.61 214.27,273.97C214.57,274.31 214.86,274.66 215.18,274.93C215.47,275.17 215.76,275.41 216.08,275.52C216.37,275.62 216.69,275.65 216.99,275.61C217.3,275.57 217.6,275.42 217.89,275.24C218.21,275.04 218.51,274.75 218.79,274.43C219.11,274.07 219.41,273.62 219.7,273.16C220.02,272.65 220.31,272.06 220.6,271.48C220.91,270.86 221.21,270.19 221.51,269.55C221.81,268.91 222.1,268.25 222.41,267.62C222.71,267.01 223.01,266.41 223.32,265.84C223.61,265.3 223.91,264.78 224.22,264.3C224.51,263.85 224.81,263.42 225.12,263.02C225.41,262.65 225.72,262.31 226.03,261.98C226.32,261.67 226.63,261.4 226.93,261.11C227.23,260.83 227.54,260.57 227.84,260.27C228.15,259.96 228.45,259.65 228.74,259.3C229.05,258.93 229.35,258.55 229.64,258.13C229.96,257.67 230.25,257.14 230.55,256.62C230.86,256.09 231.14,255.51 231.45,254.99C231.75,254.49 232.05,253.99 232.36,253.54C232.65,253.12 232.96,252.75 233.26,252.37C233.56,252 233.87,251.68 234.16,251.3C234.47,250.9 234.77,250.46 235.07,250.03C235.38,249.59 235.66,249.1 235.97,248.67C236.27,248.25 236.57,247.84 236.88,247.47C237.17,247.13 237.47,246.8 237.78,246.52C238.07,246.26 238.37,246.02 238.68,245.82C238.97,245.63 239.28,245.47 239.59,245.33C239.89,245.2 240.19,245.1 240.49,245C240.79,244.9 241.1,244.83 241.4,244.74C241.7,244.65 242,244.59 242.3,244.48C242.61,244.37 242.92,244.25 243.21,244.08C243.52,243.9 243.83,243.68 244.11,243.41C244.43,243.11 244.73,242.75 245.01,242.33C245.34,241.84 245.64,241.26 245.92,240.63C246.25,239.88 246.54,239.03 246.82,238.11C247.15,237.04 247.44,235.84 247.73,234.59C248.05,233.19 248.34,231.65 248.63,230.09C248.94,228.41 249.23,226.64 249.53,224.86C249.84,223 250.14,221.08 250.44,219.17C250.74,217.22 251.04,215.24 251.34,213.27C251.64,211.3 251.95,209.31 252.25,207.35C252.55,205.41 252.85,203.47 253.15,201.57C253.45,199.71 253.74,197.86 254.05,196.05C254.35,194.29 254.65,192.54 254.96,190.84C255.26,189.2 255.55,187.58 255.86,186.01C256.16,184.5 256.46,183.01 256.77,181.57C257.07,180.19 257.36,178.83 257.67,177.52C257.96,176.27 258.27,175.04 258.58,173.86C258.87,172.74 259.17,171.64 259.48,170.6C259.77,169.62 260.07,168.67 260.38,167.78C260.67,166.95 260.97,166.15 261.29,165.42C261.58,164.75 261.87,164.11 262.19,163.55C262.48,163.05 262.78,162.58 263.1,162.18C263.38,161.83 263.68,161.51 264,161.28C264.28,161.08 264.59,160.92 264.9,160.84C265.19,160.77 265.51,160.77 265.81,160.82C266.12,160.88 266.42,161.01 266.71,161.18C267.03,161.36 267.33,161.62 267.62,161.9C267.94,162.2 268.23,162.57 268.52,162.95C268.83,163.36 269.13,163.82 269.42,164.3C269.73,164.82 270.04,165.38 270.33,165.97C270.64,166.6 270.94,167.28 271.23,167.98C271.54,168.74 271.85,169.54 272.14,170.38C272.45,171.28 272.75,172.23 273.04,173.22C273.35,174.29 273.66,175.4 273.95,176.56C274.26,177.8 274.56,179.08 274.85,180.41C275.16,181.82 275.46,183.28 275.75,184.78C276.06,186.35 276.36,187.98 276.66,189.63C276.97,191.34 277.26,193.09 277.56,194.85C277.87,196.65 278.17,198.49 278.47,200.31C278.77,202.14 279.07,204.01 279.37,205.82C279.67,207.59 279.96,209.4 280.27,211.08C280.56,212.64 280.84,214.26 281.18,215.57C281.45,216.61 281.62,218.02 282.08,218.34C282.33,218.52 282.73,218.5 282.99,218.31C283.42,218 283.61,216.77 283.89,215.86C284.23,214.74 284.5,213.4 284.79,212.07C285.11,210.6 285.41,209.01 285.7,207.41C286.01,205.7 286.3,203.92 286.6,202.12C286.91,200.24 287.21,198.3 287.51,196.35C287.82,194.35 288.11,192.3 288.41,190.25C288.71,188.17 289.02,186.07 289.32,183.96C289.62,181.84 289.92,179.7 290.22,177.57C290.52,175.43 290.82,173.29 291.12,171.14C291.42,168.97 291.73,166.8 292.03,164.61C292.33,162.4 292.63,160.16 292.93,157.93C293.23,155.71 293.53,153.45 293.84,151.26C294.14,149.13 294.43,147.01 294.74,144.98C295.03,143.06 295.33,141.16 295.64,139.37C295.93,137.71 296.23,136.09 296.55,134.58C296.84,133.22 297.13,131.9 297.45,130.7C297.73,129.65 298.03,128.64 298.36,127.76C298.64,127.02 298.92,126.3 299.26,125.75C299.53,125.31 299.82,124.88 300.16,124.65C300.44,124.47 300.77,124.35 301.07,124.38C301.38,124.41 301.69,124.62 301.97,124.85C302.3,125.12 302.59,125.53 302.88,125.94C303.2,126.4 303.49,126.95 303.78,127.5C304.09,128.09 304.38,128.72 304.68,129.35C304.99,130 305.29,130.67 305.59,131.34C305.89,132.01 306.19,132.69 306.49,133.37C306.79,134.05 307.1,134.73 307.4,135.42C307.7,136.12 308,136.82 308.3,137.55C308.61,138.3 308.92,139.06 309.21,139.86C309.52,140.7 309.82,141.56 310.11,142.46C310.42,143.41 310.72,144.4 311.01,145.42C311.32,146.51 311.63,147.65 311.92,148.82C312.23,150.07 312.53,151.36 312.82,152.69C313.13,154.1 313.44,155.56 313.73,157.06C314.04,158.64 314.34,160.27 314.63,161.93C314.94,163.67 315.23,165.47 315.53,167.29C315.84,169.19 316.14,171.13 316.44,173.1C316.75,175.14 317.04,177.22 317.34,179.32C317.65,181.48 317.95,183.69 318.25,185.91C318.55,188.18 318.85,190.48 319.15,192.79C319.45,195.14 319.75,197.51 320.05,199.88C320.35,202.27 320.66,204.68 320.96,207.09C321.26,209.5 321.56,211.92 321.86,214.33C322.16,216.72 322.47,219.12 322.77,221.49C323.07,223.84 323.37,226.19 323.67,228.5C323.97,230.77 324.27,233.03 324.58,235.24C324.88,237.39 325.17,239.52 325.48,241.58C325.77,243.54 326.07,245.48 326.38,247.32C326.67,249.04 326.97,250.71 327.29,252.29C327.58,253.74 327.88,255.12 328.19,256.45C328.48,257.68 328.79,258.85 329.1,259.99C329.39,261.06 329.69,262.08 330,263.08C330.29,264.03 330.59,264.97 330.9,265.86C331.19,266.7 331.49,267.55 331.81,268.3C332.1,268.96 332.38,269.62 332.71,270.13C332.99,270.56 333.31,270.89 333.62,271.22C333.91,271.52 334.22,271.76 334.52,272.03C334.82,272.3 335.12,272.57 335.42,272.86C335.73,273.17 336.03,273.49 336.33,273.83C336.64,274.19 336.93,274.58 337.23,274.98C337.54,275.4 337.84,275.84 338.14,276.29C338.45,276.75 338.74,277.24 339.04,277.72C339.34,278.21 339.65,278.72 339.95,279.21C340.25,279.7 340.54,280.2 340.85,280.67C341.14,281.12 341.44,281.58 341.75,281.99C342.04,282.37 342.34,282.74 342.66,283.04C342.95,283.31 343.25,283.55 343.56,283.72C343.85,283.88 344.16,283.98 344.47,284.05C344.77,284.11 345.07,284.12 345.37,284.12C345.67,284.12 345.97,284.07 346.27,284.02C346.57,283.97 346.88,283.91 347.18,283.82C347.48,283.73 347.79,283.64 348.08,283.47C348.4,283.28 348.7,282.98 348.99,282.67C349.31,282.33 349.59,281.88 349.89,281.48C350.19,281.08 350.48,280.65 350.79,280.26C351.09,279.88 351.39,279.5 351.7,279.16C351.99,278.84 352.29,278.52 352.6,278.25C352.89,277.99 353.2,277.76 353.51,277.55C353.8,277.35 354.1,277.17 354.41,277.02C354.71,276.87 355.02,276.75 355.32,276.63C355.62,276.51 355.92,276.42 356.22,276.32C356.52,276.22 356.82,276.13 357.12,276.05C357.42,275.97 357.73,275.9 358.03,275.83C358.33,275.76 358.63,275.7 358.93,275.64C359.23,275.58 359.54,275.54 359.84,275.48C360.14,275.43 360.44,275.4 360.74,275.31C361.04,275.22 361.37,275.15 361.64,274.93C361.98,274.66 362.26,274.14 362.55,273.7C362.87,273.22 363.15,272.67 363.45,272.13C363.76,271.57 364.07,270.99 364.36,270.38C364.67,269.73 364.97,269.06 365.26,268.34C365.57,267.55 365.87,266.7 366.16,265.83C366.47,264.9 366.77,263.91 367.07,262.91C367.38,261.86 367.67,260.78 367.97,259.68C368.28,258.54 368.58,257.38 368.88,256.19C369.19,254.96 369.49,253.72 369.78,252.44C370.09,251.12 370.38,249.77 370.68,248.39C370.99,246.97 371.29,245.51 371.59,244.04C371.9,242.52 372.19,240.97 372.49,239.4C372.8,237.8 373.1,236.17 373.4,234.53C373.7,232.87 374,231.19 374.3,229.51C374.6,227.83 374.91,226.13 375.21,224.45C375.51,222.78 375.81,221.11 376.11,219.46C376.41,217.84 376.7,216.22 377.01,214.63C377.31,213.08 377.61,211.55 377.92,210.05C378.22,208.6 378.51,207.17 378.82,205.79C379.12,204.47 379.42,203.17 379.73,201.92C380.02,200.74 380.32,199.58 380.63,198.47C380.92,197.43 381.22,196.43 381.53,195.48C381.82,194.61 382.12,193.76 382.44,192.98C382.73,192.27 383.02,191.59 383.34,190.98C383.63,190.43 383.93,189.91 384.25,189.46C384.53,189.07 384.83,188.7 385.15,188.42C385.43,188.17 385.74,187.97 386.05,187.84C386.34,187.72 386.66,187.66 386.96,187.66C387.26,187.66 387.57,187.74 387.86,187.85C388.17,187.97 388.48,188.15 388.77,188.35C389.08,188.56 389.37,188.82 389.67,189.08C389.98,189.35 390.28,189.65 390.58,189.96C390.89,190.28 391.19,190.61 391.48,190.96C391.79,191.32 392.09,191.7 392.38,192.1C392.69,192.53 393,192.98 393.29,193.46C393.6,193.97 393.9,194.52 394.19,195.09C394.5,195.71 394.81,196.36 395.1,197.05C395.41,197.79 395.71,198.58 396,199.39C396.31,200.26 396.61,201.17 396.9,202.11C397.21,203.11 397.52,204.16 397.81,205.24C398.12,206.38 398.42,207.57 398.71,208.79C399.02,210.07 399.32,211.39 399.62,212.74C399.93,214.15 400.23,215.6 400.52,217.07C400.83,218.6 401.12,220.18 401.42,221.77C401.73,223.42 402.03,225.1 402.33,226.8C402.64,228.55 402.93,230.33 403.23,232.13C403.53,233.96 403.84,235.82 404.14,237.69C404.44,239.59 404.74,241.51 405.04,243.43C405.34,245.37 405.65,247.33 405.95,249.29C406.25,251.26 406.55,253.24 406.85,255.2C407.15,257.16 407.45,259.12 407.75,261.05C408.05,262.95 408.34,264.92 408.66,266.68C408.95,268.24 409.22,269.79 409.56,271.08C409.84,272.13 410.16,272.98 410.47,273.88C410.76,274.72 411.07,275.52 411.37,276.31C411.67,277.08 411.96,277.84 412.27,278.58C412.57,279.3 412.87,280.02 413.18,280.71C413.48,281.38 413.77,282.03 414.08,282.67C414.38,283.28 414.68,283.89 414.99,284.46C415.28,285.01 415.58,285.54 415.89,286.04C416.18,286.51 416.48,286.96 416.79,287.37C417.08,287.75 417.38,288.13 417.7,288.43C417.99,288.7 418.28,288.95 418.6,289.1C418.89,289.24 419.21,289.31 419.51,289.34C419.81,289.37 420.11,289.33 420.41,289.3C420.71,289.27 421.02,289.21 421.32,289.16C421.62,289.11 421.92,289.05 422.22,289C422.52,288.95 422.82,288.91 423.12,288.88C423.42,288.85 423.73,288.84 424.03,288.85C424.33,288.86 424.63,288.93 424.93,288.91C425.23,288.89 425.58,288.94 425.84,288.73C426.25,288.4 426.45,287.38 426.74,286.65C427.05,285.87 427.33,285 427.64,284.19C427.94,283.4 428.24,282.62 428.55,281.87C428.85,281.15 429.14,280.43 429.45,279.75C429.74,279.11 430.05,278.48 430.36,277.89C430.65,277.34 430.95,276.8 431.26,276.31C431.55,275.85 431.84,275.41 432.16,275.03C432.45,274.68 432.75,274.35 433.07,274.08C433.36,273.84 433.66,273.62 433.97,273.48C434.26,273.34 434.57,273.25 434.88,273.22C435.18,273.19 435.49,273.24 435.78,273.32C436.09,273.41 436.39,273.56 436.68,273.75C437,273.95 437.3,274.22 437.59,274.51C437.9,274.82 438.2,275.18 438.49,275.56C438.8,275.97 439.11,276.41 439.4,276.87C439.71,277.35 440,277.88 440.3,278.4C440.61,278.94 440.91,279.51 441.21,280.08C441.52,280.66 441.81,281.27 442.11,281.86C442.41,282.46 442.7,283.06 443.01,283.65C443.31,284.22 443.61,284.81 443.92,285.34C444.21,285.83 444.49,286.34 444.82,286.71C445.1,287.02 445.41,287.34 445.73,287.46C446.01,287.57 446.34,287.55 446.63,287.48C446.94,287.41 447.24,287.2 447.53,287.02C447.84,286.83 448.14,286.6 448.44,286.38C448.74,286.17 449.03,285.93 449.34,285.73C449.64,285.53 449.94,285.34 450.25,285.18C450.55,285.03 450.84,284.9 451.15,284.81C451.45,284.73 451.75,284.68 452.05,284.67C452.35,284.66 452.66,284.7 452.96,284.78C453.27,284.86 453.57,285 453.86,285.17C454.17,285.35 454.48,285.58 454.77,285.83C455.08,286.1 455.38,286.43 455.67,286.77C455.98,287.13 456.29,287.53 456.58,287.95C456.89,288.39 457.19,288.87 457.48,289.35C457.79,289.85 458.08,290.38 458.38,290.91C458.69,291.45 458.99,292.01 459.29,292.57C459.59,293.13 459.89,293.7 460.19,294.25C460.49,294.79 460.79,295.35 461.1,295.84Q461.39,296.3 462,297.12" style="vector-effect: non-scaling-stroke; fill: none; stroke: rgb(0, 176, 246); stroke-opacity: 1; stroke-width: 2px; opacity: 1;"/></g><g class="points"/><g class="text"/></g><g class="trace scatter tracef90139" style="stroke-miterlimit: 2; opacity: 1;"><g class="fills"/><g class="errorbars"/><g class="lines"><path class="js-line" d="M0,214.63Q0.63,212.95 0.9,211.89C1.26,210.49 1.53,208.68 1.81,206.91C2.13,204.89 2.42,202.65 2.71,200.4C3.02,197.98 3.32,195.42 3.62,192.84C3.93,190.14 4.22,187.35 4.52,184.54C4.82,181.65 5.12,178.7 5.42,175.74C5.72,172.72 6.03,169.66 6.33,166.59C6.63,163.49 6.93,160.36 7.23,157.23C7.53,154.09 7.84,150.94 8.14,147.79C8.44,144.65 8.74,141.49 9.04,138.36C9.34,135.24 9.65,132.13 9.95,129.04C10.25,125.98 10.55,122.94 10.85,119.92C11.15,116.95 11.45,113.99 11.75,111.07C12.05,108.21 12.35,105.38 12.66,102.59C12.96,99.87 13.25,97.18 13.56,94.54C13.86,91.98 14.16,89.46 14.47,86.99C14.77,84.62 15.06,82.28 15.37,80.01C15.66,77.84 15.96,75.72 16.27,73.66C16.56,71.72 16.87,69.81 17.18,67.99C17.47,66.29 17.76,64.62 18.08,63.05C18.37,61.6 18.67,60.2 18.99,58.89C19.28,57.71 19.57,56.58 19.89,55.55C20.17,54.65 20.46,53.78 20.79,53.04C21.07,52.42 21.35,51.82 21.7,51.4C21.97,51.07 22.28,50.73 22.6,50.64C22.89,50.56 23.23,50.61 23.51,50.76C23.85,50.94 24.14,51.36 24.41,51.77C24.75,52.28 25.04,52.96 25.32,53.66C25.65,54.48 25.94,55.43 26.22,56.41C26.54,57.52 26.83,58.73 27.12,59.98C27.44,61.36 27.74,62.83 28.03,64.35C28.34,65.98 28.64,67.69 28.93,69.45C29.24,71.32 29.55,73.26 29.84,75.24C30.15,77.32 30.45,79.46 30.74,81.63C31.05,83.89 31.34,86.2 31.64,88.53C31.95,90.93 32.25,93.38 32.55,95.84C32.85,98.34 33.15,100.88 33.45,103.42C33.75,105.98 34.06,108.56 34.36,111.13C34.66,113.69 34.96,116.26 35.26,118.81C35.56,121.33 35.86,123.85 36.16,126.33C36.46,128.76 36.76,131.17 37.07,133.55C37.37,135.87 37.66,138.16 37.97,140.41C38.27,142.59 38.57,144.75 38.88,146.86C39.18,148.9 39.47,150.92 39.78,152.89C40.08,154.8 40.37,156.68 40.68,158.52C40.98,160.3 41.28,162.05 41.59,163.76C41.89,165.42 42.18,167.04 42.49,168.64C42.79,170.18 43.09,171.7 43.4,173.18C43.7,174.61 43.99,176.02 44.3,177.4C44.6,178.73 44.9,180.03 45.21,181.3C45.51,182.52 45.8,183.72 46.11,184.88C46.4,185.98 46.7,187.06 47.01,188.1C47.3,189.08 47.61,190.03 47.92,190.93C48.21,191.77 48.5,192.58 48.82,193.34C49.11,194.04 49.41,194.71 49.73,195.32C50.02,195.87 50.31,196.4 50.63,196.86C50.92,197.28 51.21,197.66 51.53,197.99C51.82,198.29 52.13,198.55 52.44,198.77C52.73,198.97 53.03,199.14 53.34,199.28C53.64,199.41 53.95,199.51 54.25,199.6C54.55,199.69 54.85,199.75 55.15,199.82C55.45,199.89 55.75,199.94 56.05,200.02C56.35,200.1 56.66,200.18 56.96,200.28C57.26,200.38 57.56,200.49 57.86,200.62C58.17,200.76 58.47,200.92 58.77,201.09C59.07,201.26 59.37,201.46 59.67,201.66C59.98,201.87 60.28,202.09 60.58,202.31C60.88,202.54 61.18,202.77 61.48,203.01C61.78,203.25 62.08,203.49 62.38,203.73C62.68,203.97 62.99,204.22 63.29,204.46C63.59,204.7 63.89,204.94 64.19,205.17C64.49,205.4 64.8,205.64 65.1,205.86C65.4,206.08 65.7,206.29 66,206.5C66.3,206.71 66.6,206.91 66.9,207.13C67.2,207.35 67.51,207.57 67.81,207.8C68.11,208.03 68.41,208.28 68.71,208.53C69.02,208.79 69.32,209.06 69.62,209.35C69.93,209.65 70.23,209.96 70.52,210.29C70.83,210.63 71.12,210.99 71.42,211.37C71.73,211.76 72.03,212.17 72.33,212.6C72.64,213.05 72.93,213.52 73.23,214.01C73.54,214.52 73.84,215.05 74.14,215.59C74.45,216.15 74.74,216.72 75.04,217.31C75.35,217.91 75.65,218.54 75.95,219.16C76.25,219.79 76.55,220.44 76.85,221.08C77.15,221.73 77.45,222.4 77.75,223.05C78.05,223.7 78.36,224.36 78.66,225C78.96,225.63 79.25,226.26 79.56,226.87C79.86,227.46 80.16,228.05 80.47,228.61C80.76,229.14 81.06,229.66 81.37,230.15C81.66,230.61 81.96,231.06 82.27,231.46C82.56,231.83 82.86,232.19 83.18,232.49C83.47,232.77 83.77,233.02 84.08,233.21C84.37,233.38 84.68,233.53 84.99,233.6C85.28,233.67 85.59,233.69 85.89,233.66C86.19,233.63 86.5,233.54 86.79,233.42C87.1,233.3 87.4,233.12 87.7,232.93C88.01,232.74 88.3,232.5 88.6,232.27C88.91,232.03 89.21,231.77 89.51,231.52C89.81,231.26 90.11,231 90.41,230.74C90.71,230.48 91.02,230.23 91.32,229.98C91.62,229.74 91.92,229.5 92.22,229.28C92.52,229.06 92.82,228.86 93.12,228.67C93.42,228.49 93.72,228.31 94.03,228.16C94.33,228.01 94.63,227.88 94.93,227.76C95.23,227.64 95.54,227.54 95.84,227.46C96.14,227.38 96.44,227.32 96.74,227.27C97.04,227.23 97.34,227.2 97.64,227.19C97.94,227.18 98.25,227.18 98.55,227.2C98.85,227.22 99.15,227.26 99.45,227.31C99.75,227.36 100.06,227.43 100.36,227.51C100.66,227.59 100.96,227.69 101.26,227.8C101.56,227.91 101.86,228.02 102.16,228.15C102.46,228.28 102.77,228.42 103.07,228.57C103.37,228.72 103.67,228.87 103.97,229.03C104.27,229.19 104.58,229.36 104.88,229.52C105.18,229.68 105.48,229.84 105.78,230C106.08,230.16 106.38,230.32 106.68,230.47C106.98,230.62 107.29,230.75 107.59,230.88C107.89,231.01 108.19,231.13 108.49,231.23C108.79,231.33 109.1,231.41 109.4,231.47C109.7,231.53 110,231.57 110.3,231.58C110.6,231.59 110.91,231.58 111.21,231.53C111.51,231.48 111.82,231.39 112.11,231.27C112.42,231.15 112.72,230.98 113.01,230.79C113.32,230.58 113.63,230.33 113.92,230.05C114.23,229.75 114.53,229.41 114.82,229.05C115.13,228.66 115.44,228.23 115.73,227.78C116.04,227.3 116.34,226.78 116.63,226.24C116.94,225.67 117.24,225.06 117.53,224.43C117.84,223.77 118.15,223.07 118.44,222.36C118.75,221.61 119.04,220.83 119.34,220.03C119.65,219.2 119.95,218.35 120.25,217.48C120.56,216.58 120.85,215.65 121.15,214.72C121.45,213.76 121.75,212.78 122.05,211.8C122.35,210.8 122.66,209.8 122.96,208.79C123.26,207.77 123.56,206.73 123.86,205.7C124.16,204.67 124.47,203.63 124.77,202.6C125.07,201.56 125.37,200.52 125.67,199.49C125.97,198.46 126.28,197.43 126.58,196.4C126.88,195.38 127.18,194.35 127.48,193.33C127.78,192.32 128.08,191.32 128.38,190.32C128.68,189.34 128.98,188.35 129.29,187.39C129.59,186.45 129.88,185.52 130.19,184.61C130.49,183.73 130.79,182.86 131.1,182.02C131.4,181.21 131.69,180.42 132,179.66C132.29,178.95 132.59,178.25 132.9,177.6C133.19,176.99 133.49,176.39 133.81,175.85C134.1,175.35 134.39,174.88 134.71,174.46C135,174.08 135.3,173.73 135.62,173.45C135.91,173.2 136.21,172.97 136.52,172.83C136.81,172.7 137.12,172.63 137.42,172.63C137.72,172.63 138.04,172.71 138.33,172.84C138.65,172.98 138.94,173.22 139.23,173.48C139.55,173.77 139.85,174.15 140.14,174.54C140.46,174.98 140.75,175.48 141.04,176C141.36,176.57 141.66,177.2 141.95,177.85C142.26,178.55 142.56,179.29 142.85,180.06C143.16,180.88 143.46,181.74 143.75,182.61C144.06,183.53 144.36,184.48 144.66,185.44C144.97,186.44 145.26,187.47 145.56,188.51C145.87,189.58 146.17,190.67 146.47,191.77C146.77,192.88 147.07,194.01 147.37,195.13C147.67,196.25 147.97,197.39 148.27,198.51C148.57,199.62 148.87,200.73 149.18,201.81C149.48,202.86 149.77,203.91 150.08,204.9C150.37,205.84 150.67,206.77 150.99,207.62C151.28,208.39 151.56,209.16 151.89,209.81C152.17,210.37 152.45,210.91 152.79,211.3C153.07,211.62 153.38,211.92 153.7,212.05C153.98,212.17 154.31,212.19 154.6,212.14C154.91,212.09 155.22,211.9 155.51,211.72C155.83,211.52 156.12,211.24 156.41,210.96C156.72,210.67 157.02,210.33 157.32,210.01C157.62,209.68 157.92,209.34 158.22,209C158.52,208.67 158.81,208.32 159.12,208C159.42,207.69 159.72,207.39 160.03,207.11C160.32,206.85 160.62,206.59 160.93,206.38C161.22,206.18 161.53,205.99 161.84,205.86C162.13,205.73 162.44,205.63 162.74,205.58C163.04,205.53 163.34,205.53 163.64,205.58C163.95,205.63 164.26,205.73 164.55,205.87C164.86,206.02 165.16,206.23 165.45,206.46C165.77,206.72 166.07,207.03 166.36,207.36C166.68,207.72 166.97,208.14 167.26,208.57C167.57,209.04 167.87,209.55 168.16,210.08C168.47,210.65 168.78,211.26 169.07,211.88C169.38,212.54 169.67,213.23 169.97,213.93C170.28,214.66 170.58,215.42 170.88,216.17C171.18,216.92 171.46,217.73 171.78,218.44C172.07,219.08 172.37,219.68 172.68,220.25C172.97,220.78 173.29,221.23 173.59,221.74C173.9,222.27 174.19,222.81 174.49,223.36C174.79,223.92 175.1,224.47 175.4,225.05C175.71,225.65 176.01,226.26 176.3,226.9C176.61,227.58 176.92,228.29 177.21,229.02C177.52,229.79 177.82,230.59 178.11,231.41C178.42,232.27 178.71,233.16 179.01,234.06C179.32,235 179.62,235.96 179.92,236.94C180.23,237.95 180.52,238.98 180.82,240.02C181.12,241.08 181.43,242.16 181.73,243.24C182.03,244.33 182.33,245.44 182.63,246.55C182.93,247.67 183.23,248.79 183.53,249.91C183.83,251.03 184.14,252.15 184.44,253.27C184.74,254.38 185.04,255.49 185.34,256.58C185.64,257.66 185.94,258.73 186.25,259.78C186.55,260.8 186.84,261.82 187.15,262.79C187.44,263.72 187.73,264.64 188.05,265.49C188.34,266.28 188.64,267.05 188.96,267.73C189.25,268.34 189.53,268.92 189.86,269.4C190.14,269.81 190.44,270.2 190.77,270.47C191.05,270.7 191.36,270.88 191.67,270.96C191.96,271.03 192.29,271.02 192.58,270.95C192.89,270.88 193.19,270.7 193.48,270.51C193.79,270.31 194.09,270.03 194.38,269.75C194.69,269.45 194.99,269.12 195.29,268.78C195.6,268.43 195.89,268.06 196.19,267.7C196.49,267.33 196.8,266.95 197.1,266.59C197.4,266.23 197.69,265.87 198,265.54C198.29,265.22 198.59,264.9 198.9,264.63C199.19,264.37 199.5,264.13 199.81,263.94C200.1,263.76 200.4,263.61 200.71,263.52C201.01,263.43 201.32,263.39 201.62,263.4C201.92,263.41 202.22,263.47 202.52,263.55C202.82,263.63 203.13,263.75 203.42,263.9C203.73,264.05 204.04,264.23 204.33,264.46C204.65,264.71 204.94,265.01 205.23,265.34C205.55,265.71 205.85,266.13 206.14,266.58C206.46,267.07 206.75,267.61 207.04,268.18C207.35,268.79 207.66,269.45 207.95,270.13C208.26,270.85 208.55,271.62 208.85,272.39C209.15,273.18 209.45,274.01 209.75,274.81C210.05,275.61 210.36,276.41 210.66,277.21C210.96,278.02 211.26,278.83 211.56,279.66C211.86,280.5 212.17,281.36 212.47,282.21C212.77,283.07 213.07,283.94 213.37,284.8C213.67,285.65 213.96,286.5 214.27,287.33C214.57,288.13 214.87,288.94 215.18,289.68C215.47,290.37 215.76,291.06 216.08,291.65C216.37,292.18 216.65,292.7 216.99,293.08C217.27,293.39 217.57,293.69 217.89,293.82C218.17,293.93 218.5,293.95 218.79,293.87C219.11,293.79 219.42,293.55 219.7,293.29C220.03,292.99 220.32,292.57 220.6,292.13C220.92,291.63 221.22,291.03 221.51,290.43C221.83,289.77 222.12,289.04 222.41,288.31C222.72,287.54 223.02,286.73 223.32,285.93C223.62,285.12 223.92,284.27 224.22,283.46C224.52,282.66 224.81,281.86 225.12,281.09C225.42,280.34 225.72,279.59 226.03,278.88C226.32,278.2 226.62,277.54 226.93,276.92C227.22,276.33 227.53,275.77 227.84,275.24C228.13,274.75 228.43,274.28 228.74,273.86C229.03,273.47 229.33,273.11 229.64,272.78C229.93,272.48 230.24,272.21 230.55,271.96C230.84,271.72 231.14,271.51 231.45,271.32C231.75,271.14 232.05,270.97 232.36,270.85C232.66,270.73 232.96,270.65 233.26,270.59C233.56,270.53 233.86,270.5 234.16,270.48C234.46,270.46 234.77,270.44 235.07,270.49C235.38,270.54 235.67,270.67 235.97,270.8C236.28,270.94 236.58,271.11 236.88,271.3C237.19,271.5 237.49,271.73 237.78,271.99C238.09,272.28 238.39,272.62 238.68,272.97C238.99,273.34 239.29,273.76 239.59,274.17C239.9,274.6 240.17,275.09 240.49,275.49C240.78,275.86 241.08,276.2 241.4,276.48C241.69,276.74 241.99,276.95 242.3,277.13C242.59,277.3 242.9,277.46 243.21,277.53C243.5,277.6 243.81,277.62 244.11,277.58C244.41,277.54 244.72,277.45 245.01,277.31C245.32,277.16 245.64,276.96 245.92,276.69C246.25,276.37 246.55,275.97 246.82,275.46C247.18,274.78 247.45,273.84 247.73,272.91C248.06,271.82 248.34,270.56 248.63,269.31C248.94,267.98 249.23,266.56 249.53,265.15C249.84,263.68 250.14,262.16 250.44,260.65C250.74,259.11 251.04,257.54 251.34,255.98C251.64,254.41 251.95,252.82 252.25,251.25C252.55,249.69 252.85,248.12 253.15,246.57C253.45,245.04 253.75,243.53 254.05,242.03C254.35,240.56 254.65,239.11 254.96,237.68C255.26,236.29 255.55,234.91 255.86,233.57C256.16,232.27 256.46,231 256.77,229.76C257.07,228.56 257.36,227.39 257.67,226.25C257.97,225.16 258.27,224.09 258.58,223.06C258.87,222.08 259.17,221.12 259.48,220.2C259.77,219.33 260.07,218.47 260.38,217.66C260.67,216.89 260.98,216.14 261.29,215.44C261.58,214.79 261.87,214.15 262.19,213.57C262.48,213.04 262.78,212.53 263.1,212.08C263.39,211.67 263.68,211.29 264,210.98C264.28,210.7 264.58,210.45 264.9,210.29C265.19,210.15 265.51,210.06 265.81,210.04C266.11,210.02 266.42,210.08 266.71,210.19C267.02,210.31 267.33,210.52 267.62,210.74C267.94,210.98 268.23,211.29 268.52,211.61C268.83,211.95 269.12,212.35 269.42,212.74C269.73,213.15 270.03,213.59 270.33,214.01C270.63,214.44 270.92,214.88 271.23,215.29C271.53,215.69 271.83,216.08 272.14,216.45C272.43,216.8 272.73,217.13 273.04,217.44C273.34,217.74 273.65,218.03 273.95,218.31C274.25,218.59 274.55,218.86 274.85,219.13C275.15,219.39 275.44,219.65 275.75,219.89C276.05,220.12 276.35,220.35 276.66,220.55C276.96,220.74 277.25,220.93 277.56,221.06C277.86,221.19 278.16,221.31 278.47,221.34C278.77,221.37 279.08,221.37 279.37,221.27C279.68,221.16 279.99,220.96 280.27,220.69C280.61,220.36 280.9,219.9 281.18,219.38C281.52,218.74 281.8,217.95 282.08,217.09C282.42,216.02 282.7,214.73 282.99,213.44C283.31,211.99 283.6,210.39 283.89,208.8C284.2,207.12 284.49,205.37 284.79,203.61C285.1,201.78 285.4,199.9 285.7,198.01C286.01,196.07 286.3,194.09 286.6,192.1C286.9,190.08 287.21,188.03 287.51,185.97C287.81,183.89 288.11,181.79 288.41,179.7C288.71,177.6 289.02,175.48 289.32,173.38C289.62,171.29 289.92,169.19 290.22,167.11C290.52,165.05 290.82,162.99 291.12,160.96C291.42,158.96 291.72,156.97 292.03,155.01C292.33,153.1 292.62,151.21 292.93,149.35C293.23,147.55 293.53,145.77 293.84,144.03C294.14,142.36 294.43,140.72 294.74,139.12C295.03,137.6 295.33,136.11 295.64,134.67C295.93,133.32 296.24,132 296.55,130.74C296.84,129.57 297.13,128.42 297.45,127.35C297.74,126.37 298.04,125.43 298.36,124.56C298.65,123.79 298.94,123.04 299.26,122.39C299.54,121.82 299.83,121.28 300.16,120.85C300.44,120.49 300.74,120.15 301.07,119.96C301.35,119.8 301.67,119.7 301.97,119.73C302.28,119.76 302.6,119.94 302.88,120.16C303.21,120.42 303.5,120.82 303.78,121.24C304.11,121.73 304.4,122.33 304.68,122.95C305,123.65 305.3,124.44 305.59,125.26C305.91,126.16 306.2,127.14 306.49,128.15C306.8,129.24 307.11,130.4 307.4,131.58C307.71,132.84 308.01,134.15 308.3,135.49C308.61,136.9 308.91,138.36 309.21,139.85C309.52,141.4 309.81,142.98 310.11,144.59C310.42,146.25 310.71,147.95 311.01,149.67C311.32,151.44 311.62,153.23 311.92,155.05C312.23,156.91 312.52,158.79 312.82,160.69C313.12,162.62 313.43,164.58 313.73,166.55C314.03,168.55 314.33,170.56 314.63,172.59C314.93,174.64 315.23,176.7 315.53,178.77C315.83,180.86 316.14,182.96 316.44,185.06C316.74,187.18 317.04,189.3 317.34,191.43C317.64,193.56 317.95,195.7 318.25,197.84C318.55,199.98 318.85,202.13 319.15,204.27C319.45,206.41 319.75,208.55 320.05,210.69C320.35,212.83 320.66,214.97 320.96,217.1C321.26,219.22 321.56,221.34 321.86,223.45C322.16,225.55 322.47,227.65 322.77,229.73C323.07,231.8 323.37,233.86 323.67,235.9C323.97,237.92 324.28,239.94 324.58,241.93C324.88,243.88 325.18,245.83 325.48,247.74C325.78,249.6 326.07,251.45 326.38,253.24C326.68,254.95 326.98,256.64 327.29,258.25C327.58,259.75 327.87,261.21 328.19,262.58C328.48,263.82 328.78,265.03 329.1,266.12C329.38,267.07 329.63,268.09 330,268.76C330.26,269.24 330.56,269.66 330.9,269.87C331.18,270.04 331.52,270.11 331.81,270.05C332.12,269.99 332.42,269.69 332.71,269.44C333.03,269.16 333.32,268.77 333.62,268.44C333.92,268.1 334.21,267.74 334.52,267.43C334.81,267.13 335.11,266.84 335.42,266.59C335.71,266.36 336.02,266.14 336.33,265.98C336.62,265.83 336.92,265.72 337.23,265.66C337.53,265.6 337.84,265.59 338.14,265.63C338.44,265.67 338.75,265.76 339.04,265.88C339.35,266.01 339.66,266.19 339.95,266.4C340.26,266.62 340.56,266.9 340.85,267.19C341.16,267.5 341.46,267.85 341.75,268.21C342.06,268.59 342.37,269 342.66,269.43C342.97,269.88 343.26,270.36 343.56,270.85C343.87,271.36 344.17,271.89 344.47,272.43C344.78,272.99 345.07,273.58 345.37,274.17C345.67,274.78 345.97,275.4 346.27,276.02C346.57,276.65 346.88,277.3 347.18,277.93C347.48,278.55 347.77,279.19 348.08,279.79C348.38,280.37 348.68,280.95 348.99,281.5C349.29,282.03 349.59,282.55 349.89,283.06C350.19,283.56 350.49,284.05 350.79,284.54C351.09,285.03 351.4,285.53 351.7,286.02C352,286.51 352.29,287.01 352.6,287.49C352.9,287.96 353.2,288.43 353.51,288.86C353.8,289.27 354.1,289.68 354.41,290.04C354.7,290.38 355.01,290.69 355.32,290.97C355.61,291.23 355.91,291.46 356.22,291.65C356.51,291.83 356.81,291.97 357.12,292.07C357.42,292.17 357.73,292.22 358.03,292.24C358.33,292.26 358.63,292.23 358.93,292.2C359.23,292.17 359.54,292.13 359.84,292.08C360.14,292.03 360.46,292.06 360.74,291.91C361.07,291.74 361.36,291.37 361.64,291.03C361.97,290.63 362.26,290.15 362.55,289.64C362.87,289.07 363.15,288.4 363.45,287.78C363.75,287.15 364.06,286.51 364.36,285.87C364.66,285.22 364.96,284.57 365.26,283.91C365.56,283.24 365.86,282.56 366.16,281.88C366.46,281.18 366.77,280.48 367.07,279.77C367.37,279.04 367.67,278.31 367.97,277.56C368.28,276.79 368.58,276.01 368.88,275.21C369.19,274.38 369.49,273.54 369.78,272.68C370.09,271.78 370.38,270.86 370.68,269.92C370.99,268.94 371.29,267.93 371.59,266.9C371.9,265.82 372.19,264.72 372.49,263.59C372.8,262.42 373.1,261.22 373.4,260C373.71,258.74 374,257.46 374.3,256.16C374.61,254.82 374.91,253.46 375.21,252.09C375.52,250.69 375.81,249.26 376.11,247.83C376.41,246.38 376.71,244.91 377.01,243.44C377.31,241.96 377.62,240.47 377.92,238.99C378.22,237.51 378.52,236.03 378.82,234.56C379.12,233.11 379.43,231.65 379.73,230.22C380.03,228.81 380.33,227.4 380.63,226.02C380.93,224.67 381.22,223.32 381.53,222.01C381.83,220.74 382.13,219.48 382.44,218.26C382.74,217.08 383.03,215.92 383.34,214.79C383.64,213.72 383.94,212.66 384.25,211.65C384.54,210.69 384.84,209.75 385.15,208.86C385.44,208.03 385.74,207.22 386.05,206.46C386.34,205.76 386.64,205.09 386.96,204.47C387.25,203.91 387.54,203.38 387.86,202.91C388.15,202.49 388.45,202.1 388.77,201.79C389.05,201.52 389.35,201.27 389.67,201.13C389.96,201 390.28,200.93 390.58,200.94C390.88,200.95 391.19,201.06 391.48,201.21C391.8,201.38 392.1,201.65 392.38,201.95C392.7,202.28 393,202.7 393.29,203.14C393.61,203.63 393.9,204.2 394.19,204.79C394.51,205.44 394.81,206.15 395.1,206.88C395.41,207.67 395.71,208.52 396,209.39C396.31,210.32 396.61,211.3 396.9,212.3C397.21,213.36 397.51,214.46 397.81,215.58C398.12,216.75 398.41,217.97 398.71,219.2C399.02,220.48 399.32,221.8 399.62,223.14C399.93,224.52 400.22,225.93 400.52,227.35C400.82,228.81 401.12,230.29 401.42,231.79C401.72,233.31 402.03,234.86 402.33,236.41C402.63,237.99 402.93,239.58 403.23,241.18C403.53,242.79 403.84,244.41 404.14,246.03C404.44,247.66 404.74,249.3 405.04,250.93C405.34,252.56 405.65,254.19 405.95,255.82C406.25,257.44 406.55,259.06 406.85,260.67C407.15,262.27 407.45,263.86 407.75,265.44C408.05,267 408.36,268.55 408.66,270.09C408.96,271.6 409.25,273.1 409.56,274.58C409.86,276.03 410.16,277.46 410.47,278.87C410.77,280.24 411.06,281.59 411.37,282.9C411.66,284.16 411.95,285.42 412.27,286.59C412.56,287.67 412.83,288.81 413.18,289.67C413.45,290.33 413.75,290.86 414.08,291.34C414.36,291.76 414.67,292.13 414.99,292.42C415.27,292.68 415.58,292.96 415.89,293.03C416.18,293.09 416.5,292.97 416.79,292.87C417.1,292.76 417.41,292.56 417.7,292.36C418.01,292.15 418.31,291.9 418.6,291.61C418.92,291.29 419.22,290.91 419.51,290.51C419.83,290.07 420.11,289.55 420.41,289.05C420.72,288.52 421.02,287.96 421.32,287.42C421.62,286.87 421.92,286.31 422.22,285.78C422.52,285.26 422.81,284.74 423.12,284.25C423.42,283.78 423.72,283.31 424.03,282.88C424.32,282.47 424.62,282.07 424.93,281.7C425.22,281.35 425.53,281.02 425.84,280.73C426.13,280.45 426.43,280.2 426.74,279.98C427.03,279.77 427.33,279.59 427.64,279.45C427.94,279.31 428.24,279.21 428.55,279.13C428.85,279.06 429.15,279.01 429.45,278.99C429.75,278.97 430.06,278.97 430.36,278.99C430.66,279.01 430.96,279.06 431.26,279.11C431.56,279.16 431.86,279.23 432.16,279.29C432.46,279.36 432.77,279.43 433.07,279.5C433.37,279.57 433.67,279.64 433.97,279.7C434.27,279.76 434.58,279.82 434.88,279.87C435.18,279.92 435.48,279.97 435.78,280.01C436.08,280.05 436.38,280.09 436.68,280.13C436.98,280.17 437.29,280.22 437.59,280.27C437.89,280.32 438.19,280.37 438.49,280.44C438.79,280.51 439.1,280.59 439.4,280.68C439.7,280.77 440,280.88 440.3,281C440.61,281.12 440.91,281.27 441.21,281.42C441.51,281.58 441.81,281.75 442.11,281.94C442.41,282.13 442.71,282.35 443.01,282.57C443.32,282.8 443.62,283.04 443.92,283.29C444.22,283.54 444.52,283.81 444.82,284.08C445.12,284.35 445.43,284.64 445.73,284.91C446.03,285.18 446.33,285.46 446.63,285.71C446.93,285.96 447.22,286.19 447.53,286.41C447.83,286.62 448.14,286.81 448.44,287.01C448.74,287.21 449.04,287.4 449.34,287.61C449.65,287.83 449.95,288.05 450.25,288.29C450.55,288.53 450.85,288.79 451.15,289.06C451.45,289.34 451.75,289.63 452.05,289.93C452.36,290.24 452.66,290.57 452.96,290.91C453.27,291.26 453.56,291.62 453.86,291.99C454.17,292.37 454.47,292.77 454.77,293.17C455.08,293.58 455.37,294.01 455.67,294.44C455.97,294.88 456.28,295.33 456.58,295.78C456.88,296.24 457.18,296.72 457.48,297.19C457.78,297.67 458.08,298.15 458.38,298.63C458.68,299.11 458.99,299.61 459.29,300.09C459.59,300.57 459.88,301.06 460.19,301.53C460.49,301.99 460.79,302.45 461.1,302.87Q461.39,303.27 462,304" style="vector-effect: non-scaling-stroke; fill: none; stroke: rgb(231, 107, 243); stroke-opacity: 1; stroke-width: 2px; opacity: 1;"/></g><g class="points"/><g class="text"/></g></g></g><g class="overplot"/><path class="xlines-above crisp" d="M0,0" style="fill: none;"/><path class="ylines-above crisp" d="M0,0" style="fill: none;"/><g class="overlines-above"/><g class="xaxislayer-above"><g class="xtick"><text text-anchor="middle" x="0" y="433" transform="translate(80,0)" style="font-family: 'Open Sans', verdana, arial, sans-serif; font-size: 12px; fill: rgb(42, 63, 95); fill-opacity: 1; white-space: pre;">0</text></g><g class="xtick"><text text-anchor="middle" x="0" y="433" transform="translate(170.23000000000002,0)" style="font-family: 'Open Sans', verdana, arial, sans-serif; font-size: 12px; fill: rgb(42, 63, 95); fill-opacity: 1; white-space: pre;">100</text></g><g class="xtick"><text text-anchor="middle" x="0" y="433" transform="translate(260.47,0)" style="font-family: 'Open Sans', verdana, arial, sans-serif; font-size: 12px; fill: rgb(42, 63, 95); fill-opacity: 1; white-space: pre;">200</text></g><g class="xtick"><text text-anchor="middle" x="0" y="433" transform="translate(350.7,0)" style="font-family: 'Open Sans', verdana, arial, sans-serif; font-size: 12px; fill: rgb(42, 63, 95); fill-opacity: 1; white-space: pre;">300</text></g><g class="xtick"><text text-anchor="middle" x="0" y="433" transform="translate(440.94,0)" style="font-family: 'Open Sans', verdana, arial, sans-serif; font-size: 12px; fill: rgb(42, 63, 95); fill-opacity: 1; white-space: pre;">400</text></g><g class="xtick"><text text-anchor="middle" x="0" y="433" transform="translate(531.1700000000001,0)" style="font-family: 'Open Sans', verdana, arial, sans-serif; font-size: 12px; fill: rgb(42, 63, 95); fill-opacity: 1; white-space: pre;">500</text></g></g><g class="yaxislayer-above"><g class="ytick"><text text-anchor="end" x="79" y="4.199999999999999" transform="translate(0,377.87)" style="font-family: 'Open Sans', verdana, arial, sans-serif; font-size: 12px; fill: rgb(42, 63, 95); fill-opacity: 1; white-space: pre;">50</text></g><g class="ytick"><text text-anchor="end" x="79" y="4.199999999999999" transform="translate(0,320.82)" style="font-family: 'Open Sans', verdana, arial, sans-serif; font-size: 12px; fill: rgb(42, 63, 95); fill-opacity: 1; white-space: pre;">100</text></g><g class="ytick"><text text-anchor="end" x="79" y="4.199999999999999" transform="translate(0,263.76)" style="font-family: 'Open Sans', verdana, arial, sans-serif; font-size: 12px; fill: rgb(42, 63, 95); fill-opacity: 1; white-space: pre;">150</text></g><g class="ytick"><text text-anchor="end" x="79" y="4.199999999999999" transform="translate(0,206.7)" style="font-family: 'Open Sans', verdana, arial, sans-serif; font-size: 12px; fill: rgb(42, 63, 95); fill-opacity: 1; white-space: pre;">200</text></g><g class="ytick"><text text-anchor="end" x="79" y="4.199999999999999" transform="translate(0,149.65)" style="font-family: 'Open Sans', verdana, arial, sans-serif; font-size: 12px; fill: rgb(42, 63, 95); fill-opacity: 1; white-space: pre;">250</text></g></g><g class="overaxes-above"/></g></g><g class="polarlayer"/><g class="ternarylayer"/><g class="geolayer"/><g class="funnelarealayer"/><g class="pielayer"/><g class="treemaplayer"/><g class="sunburstlayer"/><g class="glimages"/><defs id="topdefs-9cec02"><g class="clips"/><clipPath id="legend9cec02"><rect width="137" height="67" x="0" y="0"/></clipPath></defs><g class="layer-above"><g class="imagelayer"/><g class="shapelayer"/></g><g class="infolayer"><g class="legend" pointer-events="all" transform="translate(551.24, 100)"><rect class="bg" shape-rendering="crispEdges" width="137" height="67" x="0" y="0" style="stroke: rgb(68, 68, 68); stroke-opacity: 1; fill: rgb(255, 255, 255); fill-opacity: 1; stroke-width: 0px;"/><g class="scrollbox" transform="translate(0, 0)" clip-path="url('#legend9cec02')"><g class="groups"><g class="traces" transform="translate(0, 14.5)" style="opacity: 1;"><text class="legendtext" text-anchor="start" x="40" y="4.680000000000001" style="font-family: 'Open Sans', verdana, arial, sans-serif; font-size: 12px; fill: rgb(42, 63, 95); fill-opacity: 1; white-space: pre;">Average Class I</text><g class="layers" style="opacity: 1;"><g class="legendfill"/><g class="legendlines"><path class="js-line" d="M5,0h30" style="fill: none; stroke: rgb(0, 100, 80); stroke-opacity: 1; stroke-width: 2px;"/></g><g class="legendsymbols"><g class="legendpoints"/></g></g><rect class="legendtoggle" x="0" y="-9.5" width="131.15625" height="19" style="fill: rgb(0, 0, 0); fill-opacity: 0;"/></g><g class="traces" transform="translate(0, 33.5)" style="opacity: 1;"><text class="legendtext" text-anchor="start" x="40" y="4.680000000000001" style="font-family: 'Open Sans', verdana, arial, sans-serif; font-size: 12px; fill: rgb(42, 63, 95); fill-opacity: 1; white-space: pre;">Average Class II</text><g class="layers" style="opacity: 1;"><g class="legendfill"/><g class="legendlines"><path class="js-line" d="M5,0h30" style="fill: none; stroke: rgb(0, 176, 246); stroke-opacity: 1; stroke-width: 2px;"/></g><g class="legendsymbols"><g class="legendpoints"/></g></g><rect class="legendtoggle" x="0" y="-9.5" width="131.15625" height="19" style="fill: rgb(0, 0, 0); fill-opacity: 0;"/></g><g class="traces" transform="translate(0, 52.5)" style="opacity: 1;"><text class="legendtext" text-anchor="start" x="40" y="4.680000000000001" style="font-family: 'Open Sans', verdana, arial, sans-serif; font-size: 12px; fill: rgb(42, 63, 95); fill-opacity: 1; white-space: pre;">Average Class III</text><g class="layers" style="opacity: 1;"><g class="legendfill"/><g class="legendlines"><path class="js-line" d="M5,0h30" style="fill: none; stroke: rgb(231, 107, 243); stroke-opacity: 1; stroke-width: 2px;"/></g><g class="legendsymbols"><g class="legendpoints"/></g></g><rect class="legendtoggle" x="0" y="-9.5" width="131.15625" height="19" style="fill: rgb(0, 0, 0); fill-opacity: 0;"/></g></g></g><rect class="scrollbar" rx="20" ry="3" width="0" height="0" x="0" y="0" style="fill: rgb(128, 139, 164); fill-opacity: 1;"/></g><g class="g-gtitle"><text class="gtitle" x="35" y="50" text-anchor="start" dy="0em" style="font-family: 'Open Sans', verdana, arial, sans-serif; font-size: 17px; fill: rgb(42, 63, 95); opacity: 1; font-weight: normal; white-space: pre;">Average curve: hydrophobicity_group</text></g><g class="g-xtitle"><text class="xtitle" x="311" y="460.8" text-anchor="middle" style="font-family: 'Open Sans', verdana, arial, sans-serif; font-size: 14px; fill: rgb(42, 63, 95); opacity: 1; font-weight: normal; white-space: pre;">Domain</text></g><g class="g-ytitle"><text class="ytitle" transform="rotate(-90,34.16875,260)" x="34.16875" y="260" text-anchor="middle" style="font-family: 'Open Sans', verdana, arial, sans-serif; font-size: 14px; fill: rgb(42, 63, 95); opacity: 1; font-weight: normal; white-space: pre;">Frequency</text></g></g></svg>