<svg class="main-svg" xmlns="http://www.w3.org/2000/svg" xmlns:xlink="http://www.w3.org/1999/xlink" width="700" height="500" style="" viewBox="0 0 700 500"><rect x="0" y="0" width="700" height="500" style="fill: rgb(255, 255, 255); fill-opacity: 1;"/><defs id="defs-2e69cc"><g class="clips"><clipPath id="clip2e69ccxyplot" class="plotclip"><rect width="462" height="320"/></clipPath><clipPath class="axesclip" id="clip2e69ccx"><rect x="80" y="0" width="462" height="500"/></clipPath><clipPath class="axesclip" id="clip2e69ccy"><rect x="0" y="100" width="700" height="320"/></clipPath><clipPath class="axesclip" id="clip2e69ccxy"><rect x="80" y="100" width="462" height="320"/></clipPath></g><g class="gradients"/></defs><g class="bglayer"><rect class="bg" x="80" y="100" width="462" height="320" style="fill: rgb(229, 236, 246); fill-opacity: 1; stroke-width: 0;"/></g><g class="layer-below"><g class="imagelayer"/><g class="shapelayer"/></g><g class="cartesianlayer"><g class="subplot xy"><g class="layer-subplot"><g class="shapelayer"/><g class="imagelayer"/></g><g class="gridlayer"><g class="x"><path class="xgrid crisp" transform="translate(170.23000000000002,0)" d="M0,100v320" style="stroke: rgb(255, 255, 255); stroke-opacity: 1; stroke-width: 1px;"/><path class="xgrid crisp" transform="translate(260.47,0)" d="M0,100v320" style="stroke: rgb(255, 255, 255); stroke-opacity: 1; stroke-width: 1px;"/><path class="xgrid crisp" transform="translate(350.7,0)" d="M0,100v320" style="stroke: rgb(255, 255, 255); stroke-opacity: 1; stroke-width: 1px;"/><path class="xgrid crisp" transform="translate(440.94,0)" d="M0,100v320" style="stroke: rgb(255, 255, 255); stroke-opacity: 1; stroke-width: 1px;"/><path class="xgrid crisp" transform="translate(531.1700000000001,0)" d="M0,100v320" style="stroke: rgb(255, 255, 255); stroke-opacity: 1; stroke-width: 1px;"/></g><g class="y"><path class="ygrid crisp" transform="translate(0,375.76)" d="M80,0h462" style="stroke: rgb(255, 255, 255); stroke-opacity: 1; stroke-width: 1px;"/><path class="ygrid crisp" transform="translate(0,316.66999999999996)" d="M80,0h462" style="stroke: rgb(255, 255, 255); stroke-opacity: 1; stroke-width: 1px;"/><path class="ygrid crisp" transform="translate(0,257.57)" d="M80,0h462" style="stroke: rgb(255, 255, 255); stroke-opacity: 1; stroke-width: 1px;"/><path class="ygrid crisp" transform="translate(0,198.48000000000002)" d="M80,0h462" style="stroke: rgb(255, 255, 255); stroke-opacity: 1; stroke-width: 1px;"/><path class="ygrid crisp" transform="translate(0,139.39)" d="M80,0h462" style="stroke: rgb(255, 255, 255); stroke-opacity: 1; stroke-width: 1px;"/></g></g><g class="zerolinelayer"><path class="xzl zl crisp" transform="translate(80,0)" d="M0,100v320" style="stroke: rgb(255, 255, 255); stroke-opacity: 1; stroke-width: 2px;"/></g><path class="xlines-below"/><path class="ylines-below"/><g class="overlines-below"/><g class="xaxislayer-below"/><g class="yaxislayer-below"/><g class="overaxes-below"/><g class="plot" transform="translate(80, 100)" clip-path="url('#clip2e69ccxyplot')"><g class="scatterlayer mlayer"><g class="trace scatter trace88853e" style="stroke-miterlimit: 2; opacity: 1;"><g class="fills"/><g class="errorbars"/><g class="lines"><path class="js-line" d="M0,157.99Q0.63,157.68 0.9,157.37C1.27,156.95 1.53,156.23 1.81,155.53C2.15,154.67 2.43,153.62 2.71,152.54C3.04,151.3 3.33,149.91 3.62,148.48C3.94,146.9 4.23,145.21 4.52,143.48C4.83,141.62 5.13,139.66 5.42,137.67C5.73,135.57 6.03,133.39 6.33,131.19C6.64,128.9 6.93,126.54 7.23,124.17C7.54,121.73 7.84,119.25 8.14,116.75C8.44,114.21 8.74,111.64 9.04,109.06C9.34,106.46 9.65,103.83 9.95,101.21C10.25,98.58 10.55,95.93 10.85,93.3C11.15,90.68 11.45,88.05 11.75,85.44C12.05,82.85 12.36,80.28 12.66,77.72C12.96,75.2 13.26,72.68 13.56,70.2C13.86,67.77 14.16,65.36 14.47,62.98C14.77,60.66 15.07,58.36 15.37,56.1C15.67,53.91 15.96,51.74 16.27,49.62C16.57,47.58 16.87,45.57 17.18,43.61C17.48,41.73 17.77,39.88 18.08,38.09C18.37,36.39 18.68,34.72 18.99,33.11C19.28,31.59 19.58,30.11 19.89,28.7C20.18,27.38 20.47,26.11 20.79,24.9C21.08,23.79 21.38,22.72 21.7,21.73C21.99,20.84 22.27,19.99 22.6,19.23C22.88,18.57 23.18,17.93 23.51,17.42C23.79,17 24.07,16.58 24.41,16.34C24.69,16.14 25.02,15.99 25.32,16C25.62,16.01 25.95,16.2 26.22,16.43C26.56,16.71 26.84,17.18 27.12,17.66C27.46,18.24 27.75,18.95 28.03,19.7C28.36,20.56 28.64,21.54 28.93,22.56C29.25,23.7 29.55,24.95 29.84,26.24C30.16,27.66 30.45,29.18 30.74,30.75C31.05,32.45 31.35,34.25 31.64,36.09C31.95,38.06 32.26,40.12 32.55,42.23C32.86,44.47 33.16,46.8 33.45,49.17C33.76,51.67 34.06,54.24 34.36,56.86C34.67,59.6 34.97,62.43 35.26,65.29C35.57,68.26 35.86,71.31 36.16,74.39C36.47,77.58 36.77,80.82 37.07,84.11C37.38,87.49 37.67,90.92 37.97,94.39C38.28,97.94 38.58,101.54 38.88,105.16C39.18,108.85 39.48,112.58 39.78,116.33C40.08,120.13 40.38,123.97 40.68,127.81C40.98,131.69 41.29,135.59 41.59,139.49C41.89,143.4 42.19,147.33 42.49,151.24C42.79,155.14 43.1,159.06 43.4,162.94C43.7,166.78 44,170.62 44.3,174.41C44.6,178.13 44.9,181.83 45.21,185.46C45.51,188.97 45.8,192.45 46.11,195.84C46.4,199.09 46.7,202.28 47.01,205.37C47.3,208.3 47.61,211.17 47.92,213.92C48.21,216.5 48.5,219.01 48.82,221.39C49.11,223.58 49.41,225.7 49.73,227.67C50.02,229.43 50.31,231.13 50.63,232.67C50.91,234.01 51.2,235.29 51.53,236.41C51.81,237.35 52.1,238.23 52.44,238.96C52.72,239.55 52.99,240.1 53.34,240.48C53.61,240.78 53.93,241.03 54.25,241.13C54.54,241.22 54.86,241.19 55.15,241.12C55.46,241.04 55.76,240.85 56.05,240.66C56.36,240.46 56.66,240.2 56.96,239.95C57.26,239.7 57.55,239.41 57.86,239.17C58.16,238.93 58.46,238.7 58.77,238.51C59.06,238.34 59.36,238.16 59.67,238.08C59.97,238 60.28,237.96 60.58,238.01C60.89,238.06 61.2,238.2 61.48,238.38C61.8,238.59 62.1,238.9 62.38,239.24C62.71,239.63 63,240.12 63.29,240.63C63.61,241.21 63.9,241.87 64.19,242.56C64.51,243.32 64.81,244.16 65.1,245.02C65.42,245.95 65.71,246.95 66,247.97C66.31,249.06 66.61,250.21 66.9,251.37C67.21,252.59 67.51,253.86 67.81,255.13C68.12,256.44 68.41,257.79 68.71,259.12C69.01,260.45 69.31,261.82 69.62,263.12C69.91,264.36 70.2,265.61 70.52,266.75C70.81,267.77 71.1,268.75 71.42,269.64C71.7,270.42 72.01,271.14 72.33,271.8C72.62,272.39 72.9,272.97 73.23,273.45C73.51,273.87 73.81,274.29 74.14,274.56C74.42,274.79 74.73,274.99 75.04,275.04C75.33,275.09 75.67,275.01 75.95,274.87C76.27,274.71 76.57,274.4 76.85,274.07C77.18,273.69 77.47,273.19 77.75,272.67C78.07,272.08 78.37,271.4 78.66,270.69C78.98,269.9 79.27,269.03 79.56,268.13C79.87,267.16 80.18,266.12 80.47,265.07C80.78,263.97 81.08,262.83 81.37,261.67C81.68,260.47 81.97,259.22 82.27,257.98C82.57,256.72 82.88,255.44 83.18,254.18C83.48,252.95 83.77,251.71 84.08,250.51C84.38,249.34 84.68,248.19 84.99,247.07C85.29,246 85.58,244.94 85.89,243.92C86.18,242.96 86.48,242.02 86.79,241.13C87.08,240.29 87.39,239.48 87.7,238.72C87.99,238.02 88.28,237.33 88.6,236.71C88.89,236.14 89.19,235.59 89.51,235.11C89.8,234.67 90.09,234.26 90.41,233.92C90.7,233.61 91,233.34 91.32,233.14C91.61,232.96 91.91,232.81 92.22,232.74C92.51,232.68 92.82,232.68 93.12,232.73C93.43,232.78 93.74,232.9 94.03,233.06C94.34,233.23 94.64,233.47 94.93,233.72C95.24,233.99 95.55,234.32 95.84,234.66C96.15,235.01 96.44,235.41 96.74,235.79C97.04,236.17 97.33,236.56 97.64,236.93C97.94,237.29 98.25,237.6 98.55,237.96C98.86,238.33 99.16,238.7 99.45,239.11C99.76,239.55 100.07,240.01 100.36,240.5C100.67,241.02 100.97,241.56 101.26,242.13C101.57,242.73 101.87,243.36 102.16,244.01C102.47,244.69 102.77,245.39 103.07,246.11C103.38,246.85 103.67,247.61 103.97,248.38C104.28,249.17 104.58,249.97 104.88,250.78C105.18,251.6 105.48,252.43 105.78,253.25C106.08,254.07 106.38,254.9 106.68,255.71C106.98,256.51 107.28,257.3 107.59,258.07C107.89,258.81 108.18,259.55 108.49,260.24C108.78,260.9 109.09,261.53 109.4,262.13C109.69,262.68 109.98,263.22 110.3,263.7C110.59,264.14 110.89,264.56 111.21,264.91C111.5,265.23 111.79,265.53 112.11,265.75C112.4,265.95 112.7,266.13 113.01,266.22C113.3,266.3 113.62,266.34 113.92,266.29C114.23,266.24 114.53,266.09 114.82,265.9C115.14,265.69 115.44,265.38 115.73,265.05C116.05,264.69 116.34,264.26 116.63,263.81C116.94,263.32 117.24,262.78 117.53,262.23C117.84,261.64 118.15,261.01 118.44,260.36C118.75,259.68 119.04,258.98 119.34,258.26C119.65,257.51 119.95,256.73 120.25,255.95C120.56,255.15 120.85,254.33 121.15,253.5C121.45,252.66 121.75,251.8 122.05,250.94C122.35,250.07 122.66,249.2 122.96,248.33C123.26,247.46 123.56,246.57 123.86,245.7C124.16,244.83 124.47,243.97 124.77,243.11C125.07,242.26 125.37,241.42 125.67,240.59C125.97,239.78 126.27,238.98 126.58,238.19C126.88,237.42 127.17,236.67 127.48,235.93C127.77,235.22 128.07,234.52 128.38,233.85C128.68,233.21 128.98,232.58 129.29,231.98C129.58,231.41 129.88,230.86 130.19,230.34C130.48,229.85 130.79,229.39 131.1,228.96C131.39,228.56 131.69,228.18 132,227.85C132.29,227.55 132.59,227.26 132.9,227.04C133.19,226.83 133.5,226.65 133.81,226.53C134.1,226.42 134.41,226.36 134.71,226.35C135.01,226.34 135.33,226.39 135.62,226.48C135.93,226.58 136.23,226.75 136.52,226.94C136.83,227.15 137.13,227.42 137.42,227.71C137.73,228.02 138.03,228.39 138.33,228.75C138.64,229.13 138.93,229.54 139.23,229.94C139.53,230.35 139.85,230.74 140.14,231.17C140.45,231.62 140.75,232.09 141.04,232.6C141.35,233.15 141.66,233.74 141.95,234.36C142.26,235.03 142.56,235.75 142.85,236.49C143.16,237.29 143.46,238.12 143.75,238.99C144.06,239.91 144.37,240.88 144.66,241.87C144.97,242.91 145.27,244 145.56,245.1C145.87,246.26 146.17,247.45 146.47,248.66C146.78,249.92 147.07,251.21 147.37,252.52C147.67,253.87 147.97,255.24 148.27,256.63C148.57,258.05 148.88,259.49 149.18,260.93C149.48,262.4 149.78,263.88 150.08,265.36C150.38,266.84 150.69,268.34 150.99,269.82C151.29,271.29 151.59,272.76 151.89,274.2C152.19,275.6 152.48,277 152.79,278.33C153.08,279.58 153.38,280.84 153.7,281.97C153.99,282.97 154.26,283.98 154.6,284.79C154.88,285.45 155.14,286.16 155.51,286.52C155.78,286.78 156.13,287 156.41,286.95C156.74,286.89 157.05,286.41 157.32,285.99C157.68,285.42 157.94,284.57 158.22,283.75C158.55,282.78 158.84,281.69 159.12,280.54C159.44,279.22 159.73,277.72 160.03,276.26C160.34,274.73 160.63,273.13 160.93,271.54C161.24,269.91 161.54,268.24 161.84,266.58C162.14,264.91 162.44,263.22 162.74,261.55C163.04,259.88 163.34,258.21 163.64,256.56C163.94,254.93 164.24,253.3 164.55,251.7C164.85,250.14 165.14,248.59 165.45,247.07C165.75,245.59 166.05,244.13 166.36,242.71C166.66,241.34 166.95,239.99 167.26,238.68C167.55,237.43 167.85,236.21 168.16,235.03C168.45,233.92 168.76,232.83 169.07,231.8C169.36,230.83 169.65,229.89 169.97,229.01C170.26,228.2 170.56,227.42 170.88,226.7C171.17,226.05 171.46,225.43 171.78,224.88C172.06,224.39 172.36,223.93 172.68,223.56C172.96,223.23 173.27,222.94 173.59,222.74C173.88,222.57 174.18,222.43 174.49,222.4C174.79,222.37 175.11,222.42 175.4,222.53C175.71,222.64 176.01,222.86 176.3,223.09C176.62,223.34 176.92,223.67 177.21,224.01C177.53,224.38 177.82,224.81 178.11,225.24C178.42,225.7 178.71,226.19 179.01,226.69C179.32,227.2 179.62,227.74 179.92,228.27C180.22,228.8 180.52,229.35 180.82,229.88C181.12,230.4 181.42,230.91 181.73,231.4C182.02,231.86 182.32,232.33 182.63,232.74C182.92,233.12 183.21,233.49 183.53,233.79C183.82,234.06 184.12,234.32 184.44,234.47C184.73,234.61 185.04,234.7 185.34,234.69C185.64,234.68 185.97,234.57 186.25,234.39C186.58,234.19 186.88,233.86 187.15,233.48C187.49,233 187.78,232.38 188.05,231.67C188.4,230.75 188.68,229.57 188.96,228.4C189.28,227.07 189.57,225.58 189.86,224.1C190.17,222.54 190.47,220.91 190.77,219.28C191.08,217.62 191.37,215.92 191.67,214.23C191.97,212.53 192.28,210.81 192.58,209.11C192.88,207.42 193.18,205.72 193.48,204.06C193.78,202.43 194.07,200.81 194.38,199.22C194.68,197.68 194.98,196.16 195.29,194.69C195.58,193.29 195.88,191.91 196.19,190.59C196.48,189.35 196.78,188.14 197.1,187.01C197.39,185.97 197.68,184.96 198,184.04C198.28,183.22 198.57,182.42 198.9,181.75C199.18,181.18 199.47,180.61 199.81,180.22C200.08,179.91 200.39,179.59 200.71,179.51C201,179.43 201.34,179.5 201.62,179.65C201.96,179.84 202.25,180.26 202.52,180.68C202.86,181.21 203.14,181.91 203.42,182.63C203.75,183.49 204.05,184.48 204.33,185.51C204.65,186.68 204.94,187.97 205.23,189.3C205.55,190.77 205.85,192.35 206.14,193.98C206.46,195.75 206.75,197.61 207.04,199.52C207.35,201.55 207.66,203.67 207.95,205.83C208.26,208.11 208.56,210.46 208.85,212.85C209.16,215.33 209.45,217.87 209.75,220.44C210.06,223.08 210.36,225.77 210.66,228.48C210.96,231.24 211.26,234.04 211.56,236.84C211.86,239.68 212.17,242.56 212.47,245.42C212.77,248.29 213.07,251.18 213.37,254.04C213.67,256.87 213.96,259.71 214.27,262.47C214.57,265.13 214.87,267.81 215.18,270.32C215.47,272.63 215.75,274.96 216.08,276.97C216.36,278.65 216.59,280.42 216.99,281.57C217.25,282.31 217.59,283.32 217.89,283.32C218.19,283.32 218.53,282.31 218.79,281.53C219.21,280.27 219.42,278.24 219.7,276.33C220.04,274.02 220.31,271.31 220.6,268.64C220.92,265.73 221.21,262.61 221.51,259.51C221.82,256.3 222.11,252.98 222.41,249.69C222.71,246.36 223.02,243 223.32,239.66C223.62,236.33 223.92,232.99 224.22,229.68C224.52,226.4 224.82,223.14 225.12,219.89C225.42,216.68 225.73,213.48 226.03,210.31C226.33,207.18 226.62,204.06 226.93,200.99C227.23,197.98 227.54,195.01 227.84,192.07C228.14,189.19 228.44,186.35 228.74,183.52C229.04,180.73 229.34,177.96 229.64,175.21C229.94,172.49 230.24,169.77 230.55,167.11C230.85,164.53 231.14,161.97 231.45,159.5C231.74,157.15 232.05,154.83 232.36,152.63C232.65,150.58 232.94,148.58 233.26,146.7C233.55,144.99 233.84,143.33 234.16,141.82C234.45,140.49 234.74,139.2 235.07,138.08C235.35,137.14 235.62,136.22 235.97,135.53C236.24,135 236.52,134.42 236.88,134.21C237.15,134.05 237.51,134.01 237.78,134.13C238.13,134.28 238.41,134.8 238.68,135.28C239.04,135.91 239.31,136.77 239.59,137.65C239.92,138.7 240.21,139.91 240.49,141.16C240.81,142.58 241.11,144.14 241.4,145.75C241.72,147.51 242.01,149.39 242.3,151.3C242.61,153.34 242.91,155.48 243.21,157.64C243.52,159.9 243.81,162.25 244.11,164.6C244.41,167 244.71,169.46 245.01,171.9C245.31,174.34 245.61,176.82 245.92,179.24C246.22,181.6 246.51,183.99 246.82,186.25C247.11,188.38 247.41,190.51 247.73,192.46C248.02,194.2 248.29,195.93 248.63,197.39C248.91,198.58 249.13,199.84 249.53,200.59C249.79,201.08 250.14,201.67 250.44,201.66C250.75,201.65 251.08,200.98 251.34,200.44C251.74,199.6 251.97,198.24 252.25,196.92C252.59,195.27 252.87,193.31 253.15,191.31C253.47,189.01 253.76,186.48 254.05,183.89C254.37,181.06 254.67,178.06 254.96,175.01C255.27,171.78 255.56,168.42 255.86,165.03C256.17,161.52 256.47,157.92 256.77,154.31C257.07,150.64 257.37,146.9 257.67,143.19C257.97,139.47 258.28,135.72 258.58,132.01C258.88,128.34 259.18,124.67 259.48,121.06C259.78,117.54 260.07,114.03 260.38,110.62C260.68,107.33 260.98,104.08 261.29,100.93C261.58,97.94 261.88,95.01 262.19,92.2C262.48,89.58 262.78,87.03 263.1,84.62C263.39,82.43 263.68,80.3 264,78.34C264.28,76.61 264.57,74.94 264.9,73.48C265.18,72.26 265.45,71.06 265.81,70.14C266.08,69.45 266.32,68.66 266.71,68.4C266.97,68.22 267.35,68.17 267.62,68.31C268,68.5 268.25,69.26 268.52,69.9C268.88,70.78 269.14,71.96 269.42,73.17C269.76,74.64 270.05,76.34 270.33,78.1C270.66,80.13 270.94,82.35 271.23,84.65C271.55,87.21 271.85,89.95 272.14,92.77C272.46,95.83 272.75,99.06 273.04,102.37C273.35,105.9 273.66,109.57 273.95,113.32C274.26,117.27 274.56,121.35 274.85,125.49C275.16,129.79 275.45,134.23 275.75,138.65C276.05,143.15 276.35,147.86 276.66,152.26C276.95,156.41 277.26,160.35 277.56,164.34C277.86,168.25 278.17,172.1 278.47,175.94C278.77,179.74 279.07,183.53 279.37,187.28C279.67,190.98 279.96,194.68 280.27,198.29C280.57,201.79 280.87,205.32 281.18,208.62C281.47,211.66 281.74,214.77 282.08,217.39C282.36,219.52 282.63,221.56 282.99,223.17C283.26,224.36 283.42,225.92 283.89,226.22C284.14,226.38 284.54,226.32 284.79,226.09C285.3,225.63 285.43,223.88 285.7,222.47C286.06,220.56 286.32,218.09 286.6,215.63C286.93,212.74 287.22,209.49 287.51,206.21C287.83,202.64 288.11,198.84 288.41,195.03C288.72,191.06 289.02,186.94 289.32,182.85C289.62,178.69 289.92,174.46 290.22,170.27C290.52,166.09 290.82,161.9 291.12,157.76C291.42,153.69 291.72,149.63 292.03,145.64C292.33,141.76 292.62,137.9 292.93,134.14C293.23,130.51 293.53,126.92 293.84,123.43C294.14,120.09 294.43,116.8 294.74,113.61C295.03,110.57 295.33,107.6 295.64,104.72C295.93,101.99 296.24,99.34 296.55,96.77C296.84,94.34 297.14,91.98 297.45,89.69C297.74,87.52 298.05,85.42 298.36,83.36C298.65,81.4 298.95,79.49 299.26,77.63C299.55,75.85 299.85,74.11 300.16,72.42C300.45,70.81 300.76,69.22 301.07,67.7C301.36,66.28 301.65,64.88 301.97,63.57C302.26,62.37 302.56,61.2 302.88,60.13C303.17,59.18 303.45,58.27 303.78,57.48C304.06,56.81 304.34,56.16 304.68,55.69C304.96,55.31 305.26,54.93 305.59,54.79C305.87,54.67 306.21,54.66 306.49,54.77C306.82,54.9 307.12,55.26 307.4,55.62C307.74,56.06 308.02,56.68 308.3,57.3C308.63,58.03 308.92,58.86 309.21,59.73C309.53,60.7 309.82,61.76 310.11,62.85C310.42,64.03 310.72,65.28 311.01,66.56C311.32,67.91 311.62,69.33 311.92,70.76C312.23,72.25 312.52,73.78 312.82,75.33C313.13,76.92 313.43,78.55 313.73,80.17C314.03,81.82 314.33,83.48 314.63,85.14C314.93,86.8 315.23,88.47 315.53,90.13C315.83,91.78 316.14,93.43 316.44,95.05C316.74,96.64 317.03,98.22 317.34,99.78C317.64,101.3 317.94,102.8 318.25,104.27C318.55,105.69 318.84,107.09 319.15,108.46C319.44,109.78 319.74,111.07 320.05,112.33C320.35,113.54 320.65,114.72 320.96,115.87C321.26,116.98 321.55,118.05 321.86,119.11C322.16,120.13 322.46,121.12 322.77,122.09C323.07,123.03 323.36,123.95 323.67,124.86C323.97,125.74 324.28,126.61 324.58,127.47C324.88,128.31 325.18,129.14 325.48,129.97C325.78,130.79 326.08,131.61 326.38,132.43C326.68,133.25 326.99,134.07 327.29,134.9C327.59,135.73 327.89,136.56 328.19,137.41C328.49,138.27 328.8,139.14 329.1,140.02C329.4,140.92 329.7,141.83 330,142.76C330.3,143.71 330.6,144.68 330.9,145.67C331.21,146.69 331.51,147.73 331.81,148.8C332.12,149.9 332.41,151.03 332.71,152.18C333.02,153.38 333.32,154.6 333.62,155.85C333.93,157.15 334.23,158.49 334.52,159.85C334.83,161.27 335.12,162.72 335.42,164.2C335.73,165.75 336.03,167.34 336.33,168.96C336.64,170.66 336.93,172.4 337.23,174.18C337.54,176.04 337.84,177.94 338.14,179.88C338.45,181.89 338.74,183.96 339.04,186.05C339.35,188.22 339.65,190.43 339.95,192.67C340.26,194.98 340.55,197.33 340.85,199.7C341.15,202.12 341.45,204.58 341.75,207.06C342.05,209.58 342.36,212.14 342.66,214.7C342.96,217.29 343.26,219.9 343.56,222.52C343.86,225.15 344.17,227.81 344.47,230.45C344.77,233.1 345.07,235.75 345.37,238.39C345.67,241.02 345.97,243.64 346.27,246.25C346.57,248.83 346.88,251.41 347.18,253.96C347.48,256.46 347.77,258.96 348.08,261.41C348.38,263.81 348.68,266.19 348.99,268.52C349.29,270.78 349.58,273.03 349.89,275.21C350.18,277.31 350.48,279.38 350.79,281.38C351.08,283.27 351.38,285.16 351.7,286.89C351.99,288.45 352.28,289.92 352.6,291.31C352.89,292.56 353.19,293.75 353.51,294.86C353.8,295.86 354.09,296.8 354.41,297.67C354.7,298.45 355,299.18 355.32,299.84C355.61,300.43 355.9,300.98 356.22,301.45C356.5,301.86 356.79,302.28 357.12,302.53C357.4,302.74 357.72,302.91 358.03,302.93C358.33,302.95 358.64,302.82 358.93,302.67C359.25,302.51 359.55,302.23 359.84,301.95C360.16,301.64 360.46,301.27 360.74,300.85C361.06,300.38 361.35,299.82 361.64,299.24C361.96,298.59 362.26,297.88 362.55,297.14C362.87,296.33 363.16,295.47 363.45,294.58C363.76,293.61 364.07,292.59 364.36,291.53C364.67,290.39 364.97,289.2 365.26,287.97C365.57,286.66 365.87,285.3 366.16,283.91C366.47,282.44 366.77,280.92 367.07,279.38C367.38,277.77 367.67,276.11 367.97,274.44C368.28,272.71 368.58,270.95 368.88,269.17C369.19,267.35 369.48,265.5 369.78,263.64C370.08,261.75 370.38,259.84 370.68,257.93C370.98,256.01 371.29,254.08 371.59,252.16C371.89,250.24 372.19,248.32 372.49,246.41C372.79,244.53 373.1,242.65 373.4,240.79C373.7,238.97 373.99,237.15 374.3,235.37C374.6,233.64 374.9,231.93 375.21,230.25C375.51,228.63 375.8,227.03 376.11,225.48C376.4,224 376.7,222.54 377.01,221.14C377.3,219.81 377.61,218.52 377.92,217.28C378.21,216.13 378.5,215 378.82,213.95C379.11,212.98 379.41,212.05 379.73,211.19C380.02,210.42 380.31,209.68 380.63,209.03C380.91,208.46 381.2,207.92 381.53,207.49C381.81,207.13 382.11,206.78 382.44,206.58C382.72,206.41 383.04,206.3 383.34,206.3C383.64,206.3 383.96,206.43 384.25,206.59C384.57,206.76 384.86,207.06 385.15,207.34C385.46,207.64 385.75,207.99 386.05,208.32C386.35,208.66 386.63,209.08 386.96,209.34C387.24,209.57 387.55,209.77 387.86,209.84C388.15,209.9 388.47,209.72 388.77,209.76C389.08,209.8 389.39,209.92 389.67,210.1C390,210.31 390.3,210.63 390.58,210.98C390.91,211.39 391.2,211.9 391.48,212.44C391.8,213.05 392.09,213.75 392.38,214.48C392.7,215.29 393,216.17 393.29,217.08C393.61,218.07 393.9,219.12 394.19,220.2C394.5,221.36 394.81,222.57 395.1,223.81C395.41,225.11 395.71,226.47 396,227.84C396.31,229.27 396.6,230.75 396.9,232.24C397.21,233.77 397.51,235.34 397.81,236.91C398.11,238.51 398.41,240.15 398.71,241.77C399.01,243.4 399.32,245.05 399.62,246.69C399.92,248.32 400.22,249.96 400.52,251.56C400.82,253.13 401.11,254.7 401.42,256.22C401.72,257.68 402.02,259.12 402.33,260.49C402.62,261.76 402.91,263.03 403.23,264.17C403.52,265.18 403.81,266.17 404.14,267.01C404.42,267.71 404.69,268.41 405.04,268.89C405.31,269.26 405.62,269.63 405.95,269.75C406.23,269.85 406.57,269.79 406.85,269.68C407.17,269.55 407.47,269.24 407.75,268.95C408.07,268.62 408.37,268.19 408.66,267.77C408.97,267.31 409.26,266.8 409.56,266.3C409.87,265.78 410.17,265.23 410.47,264.69C410.77,264.14 411.07,263.58 411.37,263.04C411.67,262.5 411.96,261.97 412.27,261.45C412.57,260.95 412.87,260.45 413.18,259.99C413.47,259.55 413.77,259.12 414.08,258.73C414.37,258.37 414.67,258.03 414.99,257.74C415.28,257.48 415.58,257.24 415.89,257.07C416.18,256.92 416.48,256.79 416.79,256.75C417.09,256.71 417.41,256.74 417.7,256.82C418.01,256.91 418.31,257.08 418.6,257.28C418.92,257.51 419.22,257.82 419.51,258.16C419.83,258.53 420.12,258.97 420.41,259.44C420.73,259.96 421.03,260.53 421.32,261.13C421.64,261.78 421.93,262.48 422.22,263.21C422.53,263.99 422.83,264.81 423.12,265.65C423.43,266.54 423.73,267.48 424.03,268.43C424.34,269.42 424.63,270.45 424.93,271.49C425.24,272.57 425.54,273.67 425.84,274.78C426.15,275.92 426.44,277.07 426.74,278.23C427.04,279.4 427.34,280.58 427.64,281.76C427.94,282.94 428.25,284.12 428.55,285.29C428.85,286.44 429.14,287.58 429.45,288.7C429.75,289.78 430.05,290.85 430.36,291.89C430.66,292.88 430.95,293.86 431.26,294.8C431.55,295.69 431.85,296.57 432.16,297.39C432.45,298.16 432.75,298.9 433.07,299.58C433.36,300.19 433.64,300.79 433.97,301.28C434.25,301.7 434.55,302.13 434.88,302.38C435.16,302.59 435.48,302.76 435.78,302.78C436.08,302.8 436.4,302.67 436.68,302.51C437,302.33 437.31,302.03 437.59,301.69C437.92,301.29 438.21,300.77 438.49,300.21C438.82,299.55 439.11,298.73 439.4,297.94C439.71,297.11 440,296.21 440.3,295.35C440.6,294.48 440.91,293.61 441.21,292.75C441.51,291.91 441.8,291.07 442.11,290.26C442.4,289.48 442.7,288.7 443.01,287.96C443.3,287.26 443.61,286.58 443.92,285.94C444.21,285.34 444.5,284.76 444.82,284.23C445.11,283.74 445.41,283.28 445.73,282.88C446.02,282.51 446.31,282.17 446.63,281.89C446.92,281.64 447.22,281.41 447.53,281.26C447.82,281.12 448.13,281.02 448.44,280.99C448.74,280.96 449.05,280.99 449.34,281.07C449.65,281.15 449.96,281.31 450.25,281.49C450.56,281.69 450.86,281.94 451.15,282.22C451.46,282.52 451.76,282.88 452.05,283.25C452.36,283.65 452.67,284.09 452.96,284.55C453.27,285.04 453.57,285.56 453.86,286.1C454.17,286.67 454.47,287.26 454.77,287.87C455.08,288.5 455.37,289.16 455.67,289.82C455.98,290.5 456.28,291.2 456.58,291.9C456.88,292.62 457.18,293.36 457.48,294.09C457.78,294.83 458.08,295.58 458.38,296.32C458.68,297.06 458.98,297.82 459.29,298.55C459.59,299.27 459.88,299.99 460.19,300.67C460.48,301.32 460.78,301.97 461.1,302.55Q461.39,303.07 462,304" style="vector-effect: non-scaling-stroke; fill: none; stroke: rgb(0, 100, 80); stroke-opacity: 1; stroke-width: 2px; opacity: 1;"/></g><g class="points"/><g class="text"/></g><g class="trace scatter trace71c565" style="stroke-miterlimit: 2; opacity: 1;"><g class="fills"/><g class="errorbars"/><g class="lines"><path class="js-line" d="M0,136.96Q0.63,136.61 0.9,136.27C1.27,135.8 1.53,135.01 1.81,134.24C2.15,133.3 2.43,132.17 2.71,131.02C3.03,129.72 3.33,128.28 3.62,126.82C3.94,125.24 4.23,123.55 4.52,121.85C4.83,120.06 5.12,118.2 5.42,116.33C5.73,114.4 6.03,112.43 6.33,110.45C6.63,108.44 6.93,106.4 7.23,104.37C7.53,102.33 7.84,100.28 8.14,98.24C8.44,96.22 8.74,94.19 9.04,92.19C9.34,90.21 9.65,88.24 9.95,86.29C10.25,84.39 10.55,82.5 10.85,80.64C11.15,78.83 11.44,77.04 11.75,75.29C12.05,73.59 12.35,71.91 12.66,70.27C12.96,68.68 13.25,67.12 13.56,65.59C13.86,64.12 14.16,62.68 14.47,61.27C14.77,59.92 15.06,58.6 15.37,57.31C15.66,56.08 15.96,54.87 16.27,53.71C16.56,52.6 16.87,51.53 17.18,50.49C17.47,49.52 17.77,48.57 18.08,47.67C18.37,46.84 18.67,46.03 18.99,45.29C19.28,44.62 19.57,43.97 19.89,43.41C20.17,42.92 20.46,42.44 20.79,42.08C21.07,41.77 21.38,41.48 21.7,41.34C21.98,41.22 22.31,41.17 22.6,41.23C22.91,41.3 23.23,41.52 23.51,41.77C23.84,42.07 24.13,42.51 24.41,42.97C24.74,43.51 25.03,44.15 25.32,44.82C25.64,45.58 25.93,46.42 26.22,47.3C26.54,48.26 26.83,49.3 27.12,50.37C27.43,51.52 27.74,52.74 28.03,53.99C28.34,55.32 28.64,56.7 28.93,58.11C29.24,59.59 29.54,61.12 29.84,62.67C30.15,64.28 30.44,65.93 30.74,67.6C31.04,69.32 31.34,71.07 31.64,72.83C31.94,74.63 32.25,76.45 32.55,78.28C32.85,80.13 33.15,82 33.45,83.88C33.75,85.77 34.06,87.68 34.36,89.59C34.66,91.51 34.96,93.44 35.26,95.37C35.56,97.31 35.86,99.26 36.16,101.21C36.46,103.17 36.77,105.12 37.07,107.09C37.37,109.06 37.67,111.05 37.97,113.03C38.27,115.02 38.58,117.03 38.88,119.03C39.18,121.04 39.48,123.06 39.78,125.08C40.08,127.11 40.38,129.14 40.68,131.18C40.98,133.22 41.29,135.27 41.59,137.32C41.89,139.38 42.19,141.44 42.49,143.51C42.79,145.59 43.1,147.67 43.4,149.75C43.7,151.84 44,153.94 44.3,156.04C44.6,158.15 44.91,160.27 45.21,162.39C45.51,164.52 45.81,166.65 46.11,168.79C46.41,170.93 46.71,173.08 47.01,175.22C47.31,177.36 47.62,179.51 47.92,181.63C48.22,183.72 48.52,185.79 48.82,187.85C49.12,189.87 49.43,191.88 49.73,193.87C50.03,195.83 50.33,197.79 50.63,199.72C50.93,201.61 51.22,203.49 51.53,205.34C51.83,207.14 52.13,208.92 52.44,210.66C52.74,212.35 53.03,214.02 53.34,215.64C53.64,217.2 53.94,218.74 54.25,220.23C54.54,221.64 54.84,223.03 55.15,224.35C55.44,225.59 55.74,226.78 56.05,227.92C56.34,228.98 56.65,229.98 56.96,230.96C57.25,231.89 57.56,232.76 57.86,233.65C58.16,234.53 58.47,235.38 58.77,236.26C59.07,237.16 59.37,238.06 59.67,238.98C59.98,239.93 60.28,240.91 60.58,241.9C60.89,242.92 61.18,243.97 61.48,245.02C61.78,246.09 62.08,247.19 62.38,248.27C62.68,249.35 62.98,250.45 63.29,251.52C63.59,252.56 63.88,253.61 64.19,254.6C64.48,255.55 64.79,256.47 65.1,257.35C65.39,258.17 65.69,258.96 66,259.7C66.29,260.39 66.59,261.05 66.9,261.66C67.19,262.23 67.49,262.77 67.81,263.26C68.1,263.71 68.4,264.12 68.71,264.49C69,264.84 69.31,265.14 69.62,265.44C69.92,265.73 70.22,265.98 70.52,266.26C70.82,266.54 71.13,266.81 71.42,267.12C71.73,267.44 72.04,267.78 72.33,268.14C72.64,268.53 72.94,268.95 73.23,269.38C73.54,269.84 73.84,270.32 74.14,270.81C74.44,271.3 74.73,271.83 75.04,272.32C75.34,272.8 75.64,273.26 75.95,273.71C76.25,274.14 76.54,274.55 76.85,274.94C77.14,275.31 77.44,275.69 77.75,276.01C78.04,276.31 78.34,276.62 78.66,276.84C78.95,277.04 79.25,277.26 79.56,277.32C79.85,277.37 80.19,277.35 80.47,277.21C80.81,277.03 81.1,276.62 81.37,276.21C81.71,275.7 81.98,275 82.27,274.32C82.59,273.56 82.89,272.7 83.18,271.84C83.49,270.93 83.78,269.97 84.08,269C84.39,267.99 84.69,266.95 84.99,265.88C85.3,264.76 85.6,263.61 85.89,262.44C86.2,261.22 86.49,259.96 86.79,258.7C87.1,257.4 87.4,256.07 87.7,254.75C88,253.42 88.3,252.07 88.6,250.75C88.9,249.45 89.2,248.14 89.51,246.88C89.81,245.66 90.1,244.46 90.41,243.31C90.7,242.22 91.01,241.15 91.32,240.14C91.61,239.21 91.9,238.3 92.22,237.46C92.51,236.69 92.8,235.96 93.12,235.29C93.41,234.69 93.71,234.12 94.03,233.63C94.31,233.2 94.61,232.79 94.93,232.47C95.22,232.18 95.52,231.93 95.84,231.75C96.13,231.58 96.43,231.47 96.74,231.4C97.04,231.33 97.34,231.31 97.64,231.31C97.94,231.31 98.25,231.35 98.55,231.38C98.85,231.41 99.15,231.46 99.45,231.5C99.75,231.54 100.06,231.58 100.36,231.62C100.66,231.66 100.96,231.68 101.26,231.72C101.56,231.76 101.86,231.78 102.16,231.84C102.46,231.9 102.77,231.97 103.07,232.09C103.38,232.21 103.68,232.35 103.97,232.55C104.29,232.76 104.59,233.03 104.88,233.34C105.2,233.68 105.49,234.08 105.78,234.52C106.1,235.01 106.39,235.56 106.68,236.14C107,236.78 107.3,237.49 107.59,238.22C107.91,239.02 108.2,239.88 108.49,240.76C108.8,241.7 109.1,242.69 109.4,243.7C109.71,244.75 110,245.85 110.3,246.93C110.6,248.01 110.89,249.16 111.21,250.17C111.5,251.07 111.77,251.99 112.11,252.7C112.38,253.27 112.68,253.76 113.01,254.17C113.29,254.51 113.6,254.8 113.92,255.02C114.21,255.22 114.51,255.38 114.82,255.46C115.11,255.54 115.43,255.55 115.73,255.5C116.04,255.45 116.34,255.32 116.63,255.15C116.95,254.96 117.25,254.68 117.53,254.38C117.85,254.03 118.16,253.62 118.44,253.16C118.77,252.63 119.06,252.02 119.34,251.36C119.67,250.59 119.96,249.71 120.25,248.78C120.57,247.73 120.86,246.55 121.15,245.38C121.46,244.13 121.75,242.79 122.05,241.48C122.35,240.15 122.66,238.78 122.96,237.46C123.26,236.16 123.55,234.86 123.86,233.61C124.15,232.42 124.46,231.24 124.77,230.13C125.06,229.1 125.35,228.09 125.67,227.16C125.96,226.32 126.26,225.5 126.58,224.78C126.86,224.15 127.15,223.55 127.48,223.06C127.76,222.65 128.05,222.26 128.38,222.02C128.66,221.82 128.98,221.66 129.29,221.64C129.59,221.62 129.9,221.73 130.19,221.88C130.51,222.05 130.81,222.36 131.1,222.64C131.41,222.94 131.66,223.49 132,223.66C132.27,223.8 132.65,223.89 132.9,223.72C133.34,223.43 133.53,222.07 133.81,221.13C134.14,220.06 134.41,218.78 134.71,217.62C135.01,216.47 135.31,215.3 135.62,214.19C135.91,213.14 136.21,212.1 136.52,211.13C136.81,210.24 137.1,209.36 137.42,208.58C137.71,207.88 138,207.2 138.33,206.64C138.61,206.17 138.89,205.7 139.23,205.41C139.51,205.17 139.83,204.96 140.14,204.95C140.44,204.94 140.77,205.11 141.04,205.32C141.38,205.59 141.67,206.07 141.95,206.55C142.29,207.14 142.57,207.89 142.85,208.66C143.18,209.56 143.46,210.58 143.75,211.64C144.07,212.83 144.37,214.11 144.66,215.44C144.98,216.89 145.27,218.43 145.56,220.01C145.87,221.69 146.18,223.45 146.47,225.24C146.78,227.11 147.07,229.05 147.37,231.01C147.68,233.03 147.97,235.1 148.27,237.18C148.57,239.3 148.88,241.45 149.18,243.6C149.48,245.76 149.78,247.94 150.08,250.1C150.38,252.24 150.68,254.41 150.99,256.51C151.29,258.54 151.58,260.58 151.89,262.49C152.18,264.25 152.47,265.97 152.79,267.56C153.08,268.97 153.34,270.45 153.7,271.55C153.97,272.38 154.2,273.29 154.6,273.65C154.86,273.88 155.23,274.02 155.51,273.93C155.85,273.82 156.14,273.24 156.41,272.74C156.77,272.07 157.04,271.12 157.32,270.19C157.65,269.1 157.93,267.84 158.22,266.57C158.54,265.17 158.82,263.65 159.12,262.15C159.43,260.59 159.73,258.97 160.03,257.39C160.33,255.83 160.62,254.25 160.93,252.74C161.23,251.29 161.53,249.85 161.84,248.49C162.13,247.22 162.42,245.99 162.74,244.84C163.03,243.8 163.32,242.79 163.64,241.89C163.92,241.1 164.22,240.34 164.55,239.69C164.83,239.14 165.11,238.62 165.45,238.24C165.73,237.93 166.04,237.64 166.36,237.51C166.64,237.4 166.97,237.39 167.26,237.45C167.57,237.52 167.87,237.72 168.16,237.93C168.48,238.16 168.77,238.5 169.07,238.81C169.38,239.14 169.66,239.53 169.97,239.85C170.27,240.16 170.56,240.51 170.88,240.72C171.16,240.9 171.48,241.08 171.78,241.08C172.08,241.08 172.4,240.93 172.68,240.74C173.01,240.52 173.31,240.14 173.59,239.76C173.92,239.32 174.2,238.78 174.49,238.23C174.81,237.62 175.11,236.94 175.4,236.25C175.71,235.51 176,234.73 176.3,233.94C176.61,233.12 176.91,232.25 177.21,231.4C177.51,230.54 177.81,229.66 178.11,228.79C178.41,227.93 178.71,227.06 179.01,226.21C179.31,225.38 179.61,224.55 179.92,223.75C180.22,222.98 180.51,222.22 180.82,221.48C181.12,220.77 181.42,220.08 181.73,219.41C182.02,218.77 182.32,218.15 182.63,217.56C182.92,216.99 183.22,216.44 183.53,215.92C183.82,215.42 184.13,214.95 184.44,214.5C184.73,214.07 185.03,213.66 185.34,213.27C185.64,212.9 185.94,212.55 186.25,212.22C186.54,211.91 186.84,211.61 187.15,211.34C187.44,211.08 187.74,210.84 188.05,210.62C188.35,210.41 188.65,210.23 188.96,210.06C189.26,209.9 189.56,209.75 189.86,209.62C190.16,209.49 190.47,209.39 190.77,209.27C191.07,209.15 191.38,209.04 191.67,208.89C191.98,208.73 192.29,208.55 192.58,208.31C192.9,208.05 193.19,207.71 193.48,207.38C193.79,207.02 194.07,206.6 194.38,206.23C194.68,205.87 194.97,205.49 195.29,205.21C195.58,204.96 195.87,204.71 196.19,204.59C196.48,204.48 196.81,204.44 197.1,204.5C197.41,204.57 197.72,204.78 198,205.01C198.33,205.28 198.62,205.68 198.9,206.1C199.23,206.58 199.52,207.16 199.81,207.76C200.13,208.44 200.42,209.21 200.71,210.01C201.03,210.9 201.33,211.87 201.62,212.88C201.94,213.98 202.23,215.16 202.52,216.37C202.83,217.68 203.13,219.06 203.42,220.47C203.73,221.98 204.04,223.55 204.33,225.15C204.64,226.84 204.93,228.58 205.23,230.35C205.54,232.19 205.84,234.11 206.14,236C206.44,237.91 206.72,239.98 207.04,241.76C207.32,243.32 207.61,244.83 207.95,246.14C208.23,247.22 208.55,248.09 208.85,249.08C209.15,250.08 209.46,251.06 209.75,252.11C210.06,253.22 210.37,254.37 210.66,255.56C210.97,256.82 211.26,258.12 211.56,259.45C211.87,260.84 212.17,262.27 212.47,263.72C212.78,265.21 213.07,266.74 213.37,268.26C213.67,269.8 213.96,271.38 214.27,272.89C214.57,274.33 214.83,275.91 215.18,277.11C215.45,278.04 215.65,279.23 216.08,279.52C216.34,279.69 216.73,279.67 216.99,279.5C217.4,279.23 217.62,278.25 217.89,277.43C218.25,276.33 218.51,274.88 218.79,273.42C219.12,271.69 219.41,269.71 219.7,267.72C220.02,265.56 220.3,263.23 220.6,260.93C220.91,258.55 221.21,256.09 221.51,253.66C221.81,251.2 222.11,248.72 222.41,246.26C222.71,243.81 223.02,241.36 223.32,238.93C223.62,236.53 223.92,234.14 224.22,231.78C224.52,229.47 224.81,227.17 225.12,224.91C225.42,222.7 225.72,220.51 226.03,218.36C226.33,216.27 226.62,214.2 226.93,212.17C227.23,210.2 227.53,208.25 227.84,206.35C228.14,204.51 228.43,202.7 228.74,200.93C229.03,199.24 229.33,197.57 229.64,195.96C229.93,194.43 230.24,192.94 230.55,191.48C230.84,190.09 231.14,188.75 231.45,187.41C231.75,186.11 232.05,184.82 232.36,183.56C232.66,182.33 232.95,181.12 233.26,179.94C233.55,178.82 233.85,177.72 234.16,176.66C234.45,175.65 234.76,174.68 235.07,173.73C235.36,172.83 235.66,171.96 235.97,171.11C236.26,170.3 236.57,169.52 236.88,168.77C237.17,168.07 237.47,167.38 237.78,166.74C238.07,166.15 238.36,165.58 238.68,165.07C238.97,164.61 239.27,164.17 239.59,163.82C239.87,163.51 240.17,163.22 240.49,163.03C240.78,162.86 241.09,162.74 241.4,162.71C241.7,162.68 242.01,162.74 242.3,162.84C242.61,162.95 242.92,163.17 243.21,163.39C243.53,163.63 243.82,163.95 244.11,164.27C244.42,164.61 244.71,164.99 245.01,165.36C245.31,165.73 245.61,166.13 245.92,166.48C246.21,166.81 246.5,167.16 246.82,167.41C247.11,167.63 247.42,167.87 247.73,167.92C248.02,167.97 248.35,167.92 248.63,167.77C248.96,167.59 249.25,167.22 249.53,166.83C249.87,166.35 250.16,165.7 250.44,165.04C250.77,164.26 251.05,163.35 251.34,162.42C251.66,161.38 251.96,160.24 252.25,159.08C252.56,157.84 252.86,156.54 253.15,155.23C253.46,153.87 253.75,152.47 254.05,151.07C254.35,149.65 254.66,148.22 254.96,146.79C255.26,145.36 255.56,143.93 255.86,142.51C256.16,141.1 256.47,139.69 256.77,138.29C257.07,136.89 257.37,135.5 257.67,134.1C257.97,132.7 258.28,131.3 258.58,129.89C258.88,128.47 259.18,127.04 259.48,125.62C259.78,124.21 260.07,122.78 260.38,121.39C260.68,120.03 260.98,118.67 261.29,117.35C261.59,116.08 261.88,114.82 262.19,113.62C262.48,112.48 262.79,111.37 263.1,110.31C263.39,109.32 263.69,108.35 264,107.45C264.29,106.62 264.58,105.82 264.9,105.1C265.19,104.45 265.48,103.82 265.81,103.29C266.09,102.83 266.38,102.38 266.71,102.07C266.99,101.81 267.31,101.56 267.62,101.51C267.91,101.46 268.24,101.54 268.52,101.7C268.86,101.9 269.15,102.32 269.42,102.75C269.77,103.3 270.05,104.04 270.33,104.81C270.67,105.75 270.95,106.84 271.23,107.99C271.56,109.33 271.85,110.83 272.14,112.4C272.46,114.17 272.75,116.09 273.04,118.08C273.36,120.28 273.66,122.63 273.95,125.06C274.27,127.7 274.56,130.47 274.85,133.32C275.16,136.37 275.46,139.54 275.75,142.78C276.06,146.2 276.36,149.75 276.66,153.34C276.97,157.08 277.26,160.93 277.56,164.81C277.87,168.81 278.17,172.89 278.47,176.98C278.77,181.13 279.07,185.35 279.37,189.52C279.67,193.68 279.96,197.89 280.27,201.97C280.57,205.91 280.86,209.9 281.18,213.58C281.47,216.91 281.75,220.19 282.08,223.1C282.36,225.57 282.53,228.39 282.99,229.93C283.24,230.77 283.63,231.83 283.89,231.79C284.3,231.73 284.51,228.41 284.79,226.5C285.12,224.27 285.41,221.79 285.7,219.23C286.02,216.39 286.31,213.33 286.6,210.22C286.91,206.89 287.21,203.38 287.51,199.85C287.82,196.16 288.11,192.36 288.41,188.55C288.71,184.67 289.02,180.71 289.32,176.78C289.62,172.83 289.92,168.85 290.22,164.91C290.52,161.01 290.82,157.11 291.12,153.27C291.42,149.51 291.72,145.76 292.03,142.1C292.33,138.55 292.62,135.04 292.93,131.63C293.23,128.36 293.53,125.13 293.84,122.02C294.13,119.07 294.43,116.18 294.74,113.41C295.03,110.82 295.33,108.29 295.64,105.89C295.93,103.67 296.23,101.52 296.55,99.5C296.84,97.67 297.13,95.91 297.45,94.28C297.74,92.84 298.03,91.46 298.36,90.22C298.64,89.15 298.93,88.13 299.26,87.26C299.54,86.54 299.82,85.85 300.16,85.33C300.44,84.91 300.73,84.52 301.07,84.32C301.35,84.16 301.67,84.08 301.97,84.11C302.28,84.14 302.59,84.33 302.88,84.53C303.2,84.76 303.49,85.1 303.78,85.44C304.09,85.81 304.39,86.24 304.68,86.66C304.99,87.1 305.29,87.58 305.59,88.05C305.89,88.52 306.19,89.01 306.49,89.49C306.79,89.97 307.1,90.46 307.4,90.95C307.7,91.45 308,91.94 308.3,92.45C308.61,92.98 308.91,93.51 309.21,94.06C309.52,94.64 309.82,95.23 310.11,95.85C310.42,96.5 310.72,97.17 311.01,97.87C311.32,98.6 311.62,99.36 311.92,100.14C312.23,100.96 312.52,101.8 312.82,102.67C313.13,103.57 313.43,104.5 313.73,105.45C314.04,106.43 314.33,107.43 314.63,108.45C314.93,109.5 315.23,110.58 315.53,111.66C315.84,112.77 316.14,113.9 316.44,115.04C316.74,116.2 317.04,117.38 317.34,118.56C317.64,119.76 317.95,120.98 318.25,122.2C318.55,123.44 318.85,124.68 319.15,125.93C319.45,127.19 319.75,128.46 320.05,129.72C320.35,130.99 320.66,132.26 320.96,133.53C321.26,134.8 321.56,136.08 321.86,137.35C322.16,138.62 322.47,139.89 322.77,141.15C323.07,142.41 323.37,143.66 323.67,144.91C323.97,146.14 324.28,147.37 324.58,148.58C324.88,149.78 325.18,150.97 325.48,152.14C325.78,153.29 326.07,154.44 326.38,155.57C326.68,156.67 326.99,157.76 327.29,158.83C327.59,159.88 327.89,160.92 328.19,161.95C328.49,162.96 328.8,163.96 329.1,164.95C329.4,165.94 329.7,166.91 330,167.89C330.3,168.87 330.6,169.85 330.9,170.83C331.2,171.82 331.51,172.81 331.81,173.82C332.11,174.85 332.41,175.89 332.71,176.95C333.02,178.04 333.32,179.15 333.62,180.29C333.93,181.47 334.23,182.66 334.52,183.89C334.83,185.16 335.12,186.46 335.42,187.79C335.73,189.16 336.03,190.57 336.33,191.99C336.64,193.45 336.93,194.94 337.23,196.45C337.54,197.99 337.84,199.56 338.14,201.13C338.44,202.73 338.74,204.35 339.04,205.98C339.34,207.63 339.65,209.29 339.95,210.95C340.25,212.62 340.55,214.31 340.85,215.99C341.15,217.68 341.45,219.38 341.75,221.07C342.05,222.77 342.36,224.47 342.66,226.17C342.96,227.86 343.26,229.56 343.56,231.24C343.86,232.91 344.17,234.58 344.47,236.24C344.77,237.88 345.07,239.52 345.37,241.14C345.67,242.74 345.97,244.32 346.27,245.89C346.57,247.42 346.87,248.95 347.18,250.44C347.48,251.88 347.77,253.31 348.08,254.7C348.38,256.03 348.68,257.34 348.99,258.59C349.28,259.75 349.57,260.89 349.89,261.95C350.18,262.92 350.47,263.85 350.79,264.7C351.08,265.46 351.37,266.19 351.7,266.83C351.98,267.38 352.27,267.92 352.6,268.33C352.88,268.68 353.19,268.99 353.51,269.19C353.79,269.37 354.1,269.48 354.41,269.53C354.71,269.58 355.02,269.54 355.32,269.49C355.62,269.44 355.92,269.32 356.22,269.21C356.52,269.09 356.82,268.95 357.12,268.8C357.43,268.65 357.73,268.48 358.03,268.31C358.33,268.14 358.63,267.97 358.93,267.79C359.23,267.61 359.54,267.44 359.84,267.25C360.14,267.05 360.45,266.85 360.74,266.62C361.05,266.38 361.35,266.11 361.64,265.81C361.96,265.48 362.26,265.11 362.55,264.69C362.87,264.22 363.17,263.69 363.45,263.11C363.77,262.45 364.07,261.7 364.36,260.93C364.68,260.07 364.97,259.14 365.26,258.18C365.57,257.15 365.87,256.06 366.16,254.96C366.47,253.8 366.77,252.61 367.07,251.4C367.38,250.15 367.67,248.87 367.97,247.59C368.27,246.28 368.58,244.96 368.88,243.63C369.18,242.3 369.48,240.95 369.78,239.61C370.08,238.27 370.38,236.92 370.68,235.59C370.98,234.27 371.29,232.96 371.59,231.66C371.89,230.38 372.18,229.11 372.49,227.87C372.79,226.66 373.09,225.46 373.4,224.29C373.7,223.16 373.99,222.05 374.3,220.98C374.6,219.95 374.9,218.95 375.21,217.98C375.5,217.07 375.8,216.18 376.11,215.34C376.4,214.56 376.69,213.81 377.01,213.11C377.3,212.47 377.6,211.86 377.92,211.32C378.21,210.84 378.5,210.37 378.82,210C379.1,209.67 379.41,209.37 379.73,209.18C380.01,209.01 380.33,208.88 380.63,208.86C380.93,208.84 381.24,208.91 381.53,209.04C381.85,209.18 382.15,209.44 382.44,209.71C382.76,210.01 383.05,210.4 383.34,210.78C383.65,211.18 383.94,211.66 384.25,212.07C384.54,212.46 384.83,212.85 385.15,213.17C385.44,213.46 385.75,213.67 386.05,213.92C386.35,214.16 386.66,214.38 386.96,214.64C387.27,214.91 387.56,215.19 387.86,215.49C388.17,215.8 388.47,216.14 388.77,216.49C389.08,216.86 389.38,217.25 389.67,217.66C389.98,218.09 390.29,218.54 390.58,219.02C390.89,219.53 391.19,220.06 391.48,220.62C391.79,221.22 392.09,221.85 392.38,222.51C392.69,223.22 393,223.97 393.29,224.75C393.6,225.59 393.9,226.47 394.19,227.38C394.5,228.35 394.81,229.37 395.1,230.41C395.41,231.52 395.71,232.67 396,233.85C396.31,235.09 396.6,236.38 396.9,237.69C397.21,239.06 397.51,240.47 397.81,241.9C398.12,243.38 398.41,244.89 398.71,246.42C399.02,247.99 399.32,249.59 399.62,251.19C399.92,252.81 400.22,254.46 400.52,256.09C400.82,257.7 401.11,259.34 401.42,260.9C401.72,262.39 402.02,263.86 402.33,265.27C402.62,266.61 402.92,267.92 403.23,269.16C403.52,270.3 403.82,271.43 404.14,272.44C404.42,273.33 404.71,274.19 405.04,274.93C405.32,275.56 405.58,276.27 405.95,276.63C406.22,276.89 406.58,277.16 406.85,277.09C407.19,277.01 407.47,276.29 407.75,275.81C408.08,275.25 408.36,274.56 408.66,273.92C408.97,273.26 409.26,272.59 409.56,271.91C409.86,271.22 410.17,270.54 410.47,269.82C410.78,269.07 411.06,268.26 411.37,267.52C411.66,266.82 411.95,266.12 412.27,265.49C412.56,264.92 412.86,264.37 413.18,263.89C413.47,263.47 413.76,263.07 414.08,262.76C414.36,262.49 414.67,262.25 414.99,262.12C415.28,262 415.59,261.95 415.89,261.95C416.19,261.95 416.49,262.04 416.79,262.13C417.1,262.22 417.41,262.33 417.7,262.48C418.01,262.64 418.31,262.84 418.6,263.07C418.91,263.31 419.22,263.61 419.51,263.91C419.82,264.23 420.11,264.59 420.41,264.96C420.72,265.34 421.02,265.75 421.32,266.16C421.62,266.57 421.91,267.02 422.22,267.42C422.51,267.8 422.78,268.28 423.12,268.48C423.4,268.65 423.75,268.76 424.03,268.68C424.36,268.59 424.64,268.17 424.93,267.85C425.25,267.5 425.54,267.04 425.84,266.64C426.14,266.23 426.43,265.81 426.74,265.42C427.04,265.04 427.33,264.66 427.64,264.32C427.93,264 428.24,263.68 428.55,263.42C428.84,263.18 429.14,262.96 429.45,262.8C429.74,262.65 430.05,262.53 430.36,262.49C430.66,262.45 430.97,262.48 431.26,262.56C431.57,262.65 431.87,262.81 432.16,263.01C432.48,263.23 432.78,263.52 433.07,263.84C433.39,264.19 433.68,264.59 433.97,265.02C434.29,265.48 434.59,266 434.88,266.53C435.19,267.09 435.49,267.7 435.78,268.31C436.09,268.95 436.38,269.63 436.68,270.3C436.98,270.99 437.28,271.7 437.59,272.39C437.89,273.06 438.16,273.78 438.49,274.37C438.77,274.88 439.09,275.32 439.4,275.75C439.69,276.15 440,276.48 440.3,276.87C440.61,277.28 440.91,277.7 441.21,278.15C441.52,278.62 441.81,279.12 442.11,279.61C442.41,280.11 442.64,280.97 443.01,281.14C443.28,281.26 443.66,281.18 443.92,280.98C444.32,280.68 444.52,279.7 444.82,279.06C445.12,278.43 445.42,277.79 445.73,277.18C446.02,276.6 446.32,276.03 446.63,275.5C446.92,275 447.22,274.52 447.53,274.08C447.82,273.67 448.13,273.28 448.44,272.93C448.73,272.6 449.03,272.32 449.34,272.04C449.64,271.77 449.94,271.51 450.25,271.26C450.55,271.02 450.84,270.76 451.15,270.56C451.44,270.37 451.74,270.19 452.05,270.08C452.34,269.98 452.66,269.9 452.96,269.92C453.26,269.94 453.57,270.04 453.86,270.2C454.18,270.38 454.49,270.67 454.77,270.99C455.1,271.35 455.38,271.81 455.67,272.29C455.99,272.83 456.29,273.43 456.58,274.06C456.9,274.74 457.19,275.49 457.48,276.25C457.79,277.06 458.08,277.92 458.38,278.79C458.69,279.69 458.99,280.63 459.29,281.57C459.6,282.53 459.89,283.53 460.19,284.5C460.49,285.47 460.79,286.46 461.1,287.41Q461.4,288.34 462,290.15" style="vector-effect: non-scaling-stroke; fill: none; stroke: rgb(0, 176, 246); stroke-opacity: 1; stroke-width: 2px; opacity: 1;"/></g><g class="points"/><g class="text"/></g><g class="trace scatter trace29650e" style="stroke-miterlimit: 2; opacity: 1;"><g class="fills"/><g class="errorbars"/><g class="lines"><path class="js-line" d="M0,176.9Q0.64,175.22 0.9,174.11C1.28,172.53 1.52,170.32 1.81,168.25C2.13,165.92 2.42,163.36 2.71,160.79C3.02,158.05 3.32,155.19 3.62,152.31C3.93,149.31 4.22,146.23 4.52,143.14C4.82,139.98 5.12,136.76 5.42,133.55C5.72,130.31 6.03,127.03 6.33,123.77C6.63,120.5 6.93,117.22 7.23,113.96C7.53,110.72 7.84,107.48 8.14,104.28C8.44,101.12 8.74,97.97 9.04,94.87C9.34,91.83 9.64,88.81 9.95,85.84C10.25,82.95 10.54,80.1 10.85,77.3C11.15,74.6 11.44,71.93 11.75,69.33C12.05,66.84 12.35,64.4 12.66,62.03C12.95,59.78 13.25,57.57 13.56,55.45C13.85,53.46 14.16,51.51 14.47,49.66C14.76,47.94 15.05,46.28 15.37,44.71C15.66,43.28 15.95,41.91 16.27,40.64C16.56,39.52 16.85,38.43 17.18,37.48C17.46,36.66 17.74,35.87 18.08,35.25C18.36,34.75 18.64,34.24 18.99,33.97C19.26,33.76 19.6,33.6 19.89,33.64C20.2,33.68 20.52,33.96 20.79,34.25C21.14,34.62 21.42,35.21 21.7,35.8C22.04,36.51 22.32,37.37 22.6,38.26C22.93,39.28 23.22,40.42 23.51,41.6C23.83,42.91 24.12,44.33 24.41,45.79C24.73,47.38 25.03,49.06 25.32,50.79C25.63,52.64 25.93,54.58 26.22,56.55C26.53,58.64 26.83,60.79 27.12,62.99C27.43,65.29 27.73,67.67 28.03,70.07C28.34,72.56 28.63,75.11 28.93,77.68C29.24,80.33 29.54,83.03 29.84,85.75C30.14,88.52 30.44,91.34 30.74,94.16C31.04,97.01 31.34,99.9 31.64,102.77C31.94,105.65 32.25,108.55 32.55,111.42C32.85,114.27 33.15,117.13 33.45,119.94C33.75,122.69 34.05,125.44 34.36,128.12C34.66,130.72 34.95,133.29 35.26,135.79C35.55,138.19 35.85,140.54 36.16,142.83C36.46,145.02 36.76,147.16 37.07,149.24C37.36,151.23 37.66,153.16 37.97,155.05C38.27,156.87 38.57,158.64 38.88,160.39C39.18,162.07 39.48,163.71 39.78,165.34C40.08,166.93 40.38,168.48 40.68,170.03C40.98,171.54 41.29,173.03 41.59,174.52C41.89,175.98 42.19,177.43 42.49,178.88C42.79,180.31 43.1,181.73 43.4,183.15C43.7,184.55 44,185.95 44.3,187.34C44.6,188.72 44.91,190.09 45.21,191.45C45.51,192.8 45.81,194.15 46.11,195.49C46.41,196.81 46.71,198.13 47.01,199.43C47.31,200.71 47.61,201.98 47.92,203.22C48.22,204.43 48.51,205.63 48.82,206.8C49.12,207.92 49.42,209.02 49.73,210.09C50.03,211.12 50.32,212.12 50.63,213.11C50.92,214.06 51.22,214.99 51.53,215.9C51.83,216.78 52.13,217.64 52.44,218.48C52.74,219.3 53.04,220.1 53.34,220.89C53.64,221.67 53.95,222.43 54.25,223.19C54.55,223.95 54.85,224.69 55.15,225.45C55.45,226.21 55.75,226.96 56.05,227.73C56.35,228.51 56.66,229.3 56.96,230.1C57.27,230.92 57.56,231.76 57.86,232.61C58.17,233.49 58.47,234.37 58.77,235.28C59.08,236.21 59.37,237.16 59.67,238.13C59.98,239.12 60.28,240.14 60.58,241.16C60.89,242.21 61.18,243.27 61.48,244.34C61.78,245.42 62.08,246.52 62.38,247.62C62.68,248.72 62.99,249.83 63.29,250.93C63.59,252.01 63.88,253.1 64.19,254.16C64.49,255.19 64.79,256.21 65.1,257.19C65.39,258.12 65.69,259.04 66,259.91C66.29,260.72 66.58,261.51 66.9,262.24C67.19,262.91 67.49,263.58 67.81,264.15C68.09,264.65 68.37,265.16 68.71,265.51C68.99,265.8 69.3,266 69.62,266.15C69.91,266.29 70.22,266.32 70.52,266.4C70.82,266.48 71.12,266.54 71.42,266.64C71.72,266.74 72.03,266.85 72.33,266.98C72.63,267.11 72.93,267.26 73.23,267.41C73.53,267.56 73.84,267.73 74.14,267.88C74.44,268.03 74.73,268.21 75.04,268.33C75.34,268.45 75.64,268.57 75.95,268.62C76.25,268.66 76.56,268.68 76.85,268.61C77.16,268.53 77.47,268.37 77.75,268.15C78.08,267.9 78.38,267.53 78.66,267.14C78.98,266.7 79.27,266.17 79.56,265.62C79.88,265.02 80.18,264.35 80.47,263.66C80.78,262.92 81.08,262.14 81.37,261.34C81.68,260.48 81.98,259.58 82.27,258.66C82.58,257.7 82.88,256.69 83.18,255.68C83.49,254.64 83.78,253.57 84.08,252.5C84.38,251.42 84.69,250.32 84.99,249.22C85.29,248.11 85.59,247 85.89,245.89C86.19,244.78 86.49,243.67 86.79,242.57C87.09,241.47 87.4,240.38 87.7,239.29C88,238.22 88.3,237.15 88.6,236.1C88.9,235.06 89.2,234.03 89.51,233.02C89.81,232.04 90.1,231.06 90.41,230.11C90.71,229.19 91.01,228.28 91.32,227.39C91.62,226.53 91.91,225.69 92.22,224.87C92.51,224.09 92.81,223.33 93.12,222.59C93.42,221.89 93.72,221.2 94.03,220.55C94.32,219.94 94.62,219.34 94.93,218.78C95.22,218.25 95.53,217.75 95.84,217.28C96.13,216.85 96.43,216.44 96.74,216.07C97.03,215.73 97.33,215.41 97.64,215.15C97.93,214.91 98.24,214.69 98.55,214.53C98.84,214.38 99.14,214.27 99.45,214.21C99.75,214.16 100.06,214.15 100.36,214.19C100.66,214.23 100.97,214.33 101.26,214.46C101.57,214.6 101.87,214.8 102.16,215.02C102.47,215.26 102.78,215.55 103.07,215.86C103.38,216.19 103.68,216.57 103.97,216.96C104.28,217.38 104.59,217.83 104.88,218.3C105.19,218.8 105.49,219.33 105.78,219.87C106.09,220.44 106.38,221.03 106.68,221.63C106.99,222.26 107.29,222.9 107.59,223.56C107.9,224.23 108.19,224.92 108.49,225.62C108.79,226.33 109.1,227.05 109.4,227.78C109.7,228.52 110,229.27 110.3,230.01C110.6,230.75 110.91,231.5 111.21,232.24C111.51,232.98 111.81,233.73 112.11,234.46C112.41,235.18 112.7,235.91 113.01,236.61C113.31,237.3 113.61,237.97 113.92,238.63C114.22,239.26 114.51,239.89 114.82,240.47C115.11,241.01 115.41,241.56 115.73,242.02C116.01,242.42 116.3,242.81 116.63,243.08C116.91,243.31 117.22,243.48 117.53,243.58C117.82,243.68 118.14,243.7 118.44,243.7C118.74,243.7 119.07,243.72 119.34,243.56C119.68,243.37 119.97,242.89 120.25,242.47C120.58,241.97 120.86,241.33 121.15,240.73C121.46,240.1 121.76,239.48 122.05,238.79C122.37,238.03 122.66,237.18 122.96,236.34C123.27,235.46 123.56,234.53 123.86,233.62C124.16,232.71 124.47,231.8 124.77,230.89C125.07,229.99 125.37,229.1 125.67,228.19C125.97,227.26 126.29,226.35 126.58,225.36C126.89,224.3 127.18,223.14 127.48,222.03C127.78,220.92 128.08,219.8 128.38,218.7C128.68,217.62 128.98,216.55 129.29,215.49C129.59,214.46 129.88,213.44 130.19,212.44C130.49,211.48 130.79,210.53 131.1,209.61C131.4,208.73 131.69,207.87 132,207.05C132.29,206.27 132.59,205.51 132.9,204.79C133.19,204.12 133.49,203.47 133.81,202.87C134.1,202.32 134.39,201.79 134.71,201.32C135,200.89 135.3,200.48 135.62,200.15C135.91,199.85 136.2,199.58 136.52,199.39C136.81,199.22 137.11,199.09 137.42,199.04C137.72,199 138.04,199.02 138.33,199.11C138.64,199.2 138.94,199.39 139.23,199.6C139.55,199.84 139.85,200.16 140.14,200.5C140.46,200.88 140.75,201.33 141.04,201.81C141.36,202.34 141.66,202.92 141.95,203.53C142.26,204.19 142.56,204.9 142.85,205.63C143.16,206.42 143.46,207.26 143.75,208.12C144.06,209.04 144.37,210 144.66,210.98C144.97,212.02 145.27,213.09 145.56,214.19C145.87,215.34 146.17,216.52 146.47,217.73C146.78,218.99 147.07,220.28 147.37,221.59C147.67,222.94 147.97,224.32 148.27,225.71C148.57,227.12 148.88,228.56 149.18,229.98C149.48,231.4 149.78,232.83 150.08,234.25C150.38,235.67 150.69,237.09 150.99,238.52C151.29,239.95 151.59,241.39 151.89,242.82C152.19,244.25 152.49,245.68 152.79,247.1C153.09,248.51 153.39,249.92 153.7,251.31C154,252.67 154.29,254.05 154.6,255.33C154.89,256.52 155.13,257.88 155.51,258.77C155.77,259.4 156.04,260.02 156.41,260.27C156.68,260.45 157.02,260.45 157.32,260.41C157.63,260.37 157.93,260.21 158.22,260.04C158.53,259.86 158.83,259.6 159.12,259.35C159.43,259.08 159.73,258.76 160.03,258.46C160.33,258.15 160.63,257.83 160.93,257.52C161.23,257.21 161.54,256.91 161.84,256.61C162.14,256.32 162.44,256.04 162.74,255.76C163.04,255.48 163.34,255.2 163.64,254.92C163.94,254.63 164.25,254.36 164.55,254.05C164.86,253.73 165.16,253.4 165.45,253.04C165.76,252.66 166.07,252.24 166.36,251.81C166.67,251.35 166.97,250.86 167.26,250.36C167.57,249.84 167.86,249.28 168.16,248.73C168.46,248.17 168.77,247.59 169.07,247.02C169.37,246.45 169.67,245.87 169.97,245.29C170.27,244.72 170.57,244.13 170.88,243.57C171.18,243.03 171.47,242.5 171.78,242C172.07,241.53 172.37,241.08 172.68,240.67C172.97,240.29 173.27,239.94 173.59,239.64C173.88,239.36 174.18,239.11 174.49,238.92C174.78,238.74 175.09,238.6 175.4,238.51C175.69,238.42 176,238.38 176.3,238.38C176.6,238.38 176.91,238.43 177.21,238.5C177.51,238.57 177.81,238.69 178.11,238.81C178.41,238.94 178.71,239.1 179.01,239.26C179.31,239.42 179.62,239.61 179.92,239.78C180.22,239.95 180.52,240.14 180.82,240.29C181.12,240.44 181.42,240.6 181.73,240.7C182.03,240.8 182.33,240.89 182.63,240.91C182.93,240.93 183.23,240.9 183.53,240.83C183.84,240.75 184.15,240.61 184.44,240.44C184.75,240.26 185.05,240.04 185.34,239.79C185.65,239.52 185.96,239.22 186.25,238.89C186.56,238.55 186.86,238.16 187.15,237.77C187.46,237.36 187.75,236.92 188.05,236.47C188.36,236 188.66,235.52 188.96,235.02C189.27,234.51 189.56,233.98 189.86,233.45C190.16,232.91 190.47,232.37 190.77,231.82C191.07,231.27 191.37,230.71 191.67,230.16C191.97,229.62 192.27,229.07 192.58,228.54C192.88,228.03 193.17,227.52 193.48,227.03C193.77,226.56 194.07,226.1 194.38,225.68C194.67,225.28 194.98,224.9 195.29,224.57C195.58,224.26 195.88,223.97 196.19,223.74C196.48,223.53 196.79,223.34 197.1,223.23C197.39,223.13 197.7,223.07 198,223.08C198.3,223.09 198.61,223.18 198.9,223.32C199.22,223.47 199.52,223.7 199.81,223.96C200.13,224.25 200.42,224.63 200.71,225.03C201.03,225.48 201.33,225.99 201.62,226.53C201.94,227.13 202.23,227.78 202.52,228.47C202.83,229.22 203.13,230.02 203.42,230.85C203.73,231.74 204.04,232.69 204.33,233.66C204.64,234.7 204.94,235.79 205.23,236.9C205.54,238.08 205.85,239.3 206.14,240.55C206.45,241.86 206.74,243.21 207.04,244.59C207.35,246.03 207.65,247.5 207.95,249C208.26,250.55 208.55,252.13 208.85,253.73C209.15,255.37 209.45,257.05 209.75,258.73C210.05,260.43 210.36,262.17 210.66,263.88C210.96,265.57 211.24,267.34 211.56,268.91C211.85,270.32 212.16,271.61 212.47,272.88C212.76,274.07 213.07,275.19 213.37,276.32C213.67,277.42 213.96,278.53 214.27,279.58C214.56,280.58 214.87,281.55 215.18,282.48C215.47,283.34 215.76,284.2 216.08,284.96C216.37,285.64 216.63,286.39 216.99,286.84C217.26,287.18 217.6,287.6 217.89,287.57C218.21,287.54 218.53,286.95 218.79,286.44C219.19,285.65 219.42,284.32 219.7,283.08C220.04,281.57 220.31,279.78 220.6,278C220.92,276.05 221.22,274.02 221.51,271.83C221.83,269.36 222.11,266.56 222.41,263.92C222.71,261.28 223.02,258.63 223.32,256.01C223.62,253.41 223.92,250.82 224.22,248.26C224.52,245.75 224.81,243.25 225.12,240.8C225.42,238.41 225.72,236.03 226.03,233.71C226.33,231.46 226.62,229.23 226.93,227.06C227.23,224.97 227.53,222.91 227.84,220.9C228.14,218.98 228.43,217.1 228.74,215.28C229.03,213.55 229.33,211.86 229.64,210.23C229.93,208.7 230.24,207.21 230.55,205.78C230.84,204.45 231.13,203.17 231.45,201.95C231.74,200.83 232.04,199.75 232.36,198.75C232.65,197.84 232.94,196.97 233.26,196.19C233.54,195.5 233.83,194.84 234.16,194.28C234.44,193.8 234.74,193.35 235.07,193.03C235.35,192.77 235.66,192.53 235.97,192.45C236.26,192.38 236.59,192.42 236.88,192.54C237.2,192.68 237.5,192.98 237.78,193.29C238.11,193.66 238.4,194.16 238.68,194.68C239.01,195.28 239.3,195.97 239.59,196.68C239.91,197.47 240.2,198.34 240.49,199.24C240.8,200.21 241.11,201.24 241.4,202.3C241.71,203.42 242,204.6 242.3,205.79C242.61,207.03 242.91,208.32 243.21,209.61C243.52,210.93 243.81,212.3 244.11,213.64C244.41,214.97 244.68,216.4 245.01,217.62C245.29,218.68 245.6,219.65 245.92,220.57C246.21,221.4 246.5,222.17 246.82,222.9C247.11,223.57 247.39,224.26 247.73,224.79C248.01,225.23 248.29,225.72 248.63,225.91C248.9,226.06 249.25,226.13 249.53,226.03C249.87,225.91 250.17,225.48 250.44,225.07C250.8,224.53 251.06,223.75 251.34,222.97C251.67,222.04 251.96,220.94 252.25,219.82C252.57,218.57 252.86,217.2 253.15,215.82C253.46,214.34 253.75,212.78 254.05,211.22C254.36,209.6 254.66,207.93 254.96,206.27C255.26,204.59 255.56,202.87 255.86,201.18C256.16,199.49 256.47,197.8 256.77,196.13C257.07,194.49 257.36,192.85 257.67,191.24C257.97,189.67 258.27,188.12 258.58,186.6C258.88,185.13 259.17,183.67 259.48,182.25C259.77,180.88 260.07,179.53 260.38,178.22C260.68,176.96 260.98,175.71 261.29,174.51C261.58,173.37 261.88,172.24 262.19,171.17C262.48,170.16 262.79,169.17 263.1,168.24C263.39,167.38 263.68,166.55 264,165.79C264.29,165.1 264.58,164.44 264.9,163.86C265.19,163.34 265.48,162.85 265.81,162.46C266.09,162.12 266.39,161.8 266.71,161.6C267,161.42 267.31,161.28 267.62,161.25C267.92,161.22 268.23,161.29 268.52,161.41C268.84,161.55 269.14,161.8 269.42,162.08C269.75,162.41 270.05,162.84 270.33,163.3C270.66,163.83 270.94,164.44 271.23,165.08C271.55,165.81 271.85,166.61 272.14,167.45C272.46,168.37 272.75,169.37 273.04,170.4C273.36,171.52 273.66,172.71 273.95,173.93C274.26,175.23 274.56,176.6 274.85,177.99C275.16,179.46 275.45,180.98 275.75,182.52C276.06,184.13 276.36,185.79 276.66,187.46C276.97,189.18 277.26,190.94 277.56,192.69C277.86,194.47 278.17,196.27 278.47,198.05C278.77,199.82 279.07,201.62 279.37,203.36C279.67,205.04 279.94,206.8 280.27,208.33C280.55,209.66 280.75,211.24 281.18,212.05C281.44,212.53 281.77,213.01 282.08,213.04C282.37,213.07 282.73,212.7 282.99,212.34C283.39,211.78 283.62,210.72 283.89,209.72C284.24,208.45 284.51,206.89 284.79,205.32C285.12,203.51 285.41,201.51 285.7,199.47C286.02,197.25 286.31,194.9 286.6,192.52C286.91,190.02 287.21,187.42 287.51,184.82C287.82,182.14 288.11,179.4 288.41,176.66C288.71,173.89 289.02,171.08 289.32,168.28C289.62,165.48 289.92,162.67 290.22,159.88C290.52,157.11 290.82,154.33 291.12,151.59C291.42,148.88 291.73,146.19 292.03,143.53C292.33,140.93 292.62,138.35 292.93,135.81C293.23,133.34 293.53,130.89 293.84,128.5C294.14,126.18 294.43,123.9 294.74,121.67C295.03,119.53 295.33,117.43 295.64,115.39C295.93,113.45 296.24,111.55 296.55,109.71C296.84,107.98 297.14,106.28 297.45,104.66C297.74,103.14 298.05,101.67 298.36,100.27C298.65,98.98 298.94,97.72 299.26,96.55C299.55,95.48 299.84,94.45 300.16,93.5C300.45,92.65 300.75,91.84 301.07,91.12C301.35,90.48 301.64,89.88 301.97,89.37C302.25,88.93 302.55,88.52 302.88,88.21C303.16,87.94 303.46,87.69 303.78,87.56C304.07,87.44 304.39,87.38 304.68,87.43C304.99,87.48 305.31,87.66 305.59,87.88C305.92,88.13 306.21,88.5 306.49,88.89C306.82,89.34 307.11,89.88 307.4,90.44C307.72,91.06 308.01,91.76 308.3,92.47C308.61,93.24 308.92,94.07 309.21,94.91C309.52,95.8 309.82,96.73 310.11,97.67C310.42,98.65 310.71,99.66 311.01,100.67C311.31,101.7 311.62,102.74 311.92,103.78C312.22,104.82 312.52,105.88 312.82,106.92C313.12,107.94 313.42,108.97 313.73,109.97C314.03,110.95 314.32,111.92 314.63,112.86C314.93,113.77 315.22,114.67 315.53,115.55C315.83,116.39 316.13,117.22 316.44,118.02C316.74,118.79 317.03,119.54 317.34,120.28C317.64,120.99 317.94,121.68 318.25,122.36C318.55,123.01 318.85,123.64 319.15,124.26C319.45,124.86 319.74,125.45 320.05,126.03C320.35,126.59 320.66,127.14 320.96,127.69C321.26,128.23 321.56,128.76 321.86,129.29C322.16,129.82 322.47,130.35 322.77,130.89C323.07,131.43 323.37,131.97 323.67,132.53C323.98,133.1 324.28,133.69 324.58,134.29C324.89,134.91 325.19,135.54 325.48,136.2C325.79,136.89 326.09,137.6 326.38,138.34C326.69,139.11 327,139.91 327.29,140.73C327.6,141.6 327.9,142.49 328.19,143.42C328.5,144.4 328.81,145.41 329.1,146.45C329.41,147.54 329.71,148.66 330,149.81C330.31,151.02 330.6,152.27 330.9,153.54C331.21,154.87 331.51,156.24 331.81,157.63C332.12,159.08 332.41,160.56 332.71,162.07C333.02,163.63 333.32,165.22 333.62,166.84C333.93,168.51 334.22,170.22 334.52,171.94C334.82,173.71 335.12,175.51 335.42,177.33C335.73,179.19 336.03,181.07 336.33,182.97C336.63,184.91 336.93,186.87 337.23,188.84C337.53,190.84 337.84,192.86 338.14,194.88C338.44,196.93 338.74,198.99 339.04,201.05C339.34,203.12 339.65,205.2 339.95,207.28C340.25,209.36 340.55,211.44 340.85,213.51C341.15,215.56 341.45,217.62 341.75,219.65C342.05,221.65 342.35,223.64 342.66,225.59C342.96,227.49 343.25,229.38 343.56,231.21C343.86,232.97 344.16,234.7 344.47,236.37C344.76,237.95 345.06,239.48 345.37,240.97C345.66,242.37 345.96,243.74 346.27,245.05C346.56,246.28 346.87,247.49 347.18,248.63C347.47,249.69 347.76,250.74 348.08,251.69C348.37,252.55 348.66,253.38 348.99,254.11C349.27,254.74 349.56,255.35 349.89,255.83C350.17,256.24 350.45,256.7 350.79,256.86C351.07,256.99 351.4,256.93 351.7,256.87C352.01,256.81 352.31,256.66 352.6,256.51C352.91,256.36 353.21,256.17 353.51,255.96C353.82,255.74 354.12,255.5 354.41,255.22C354.72,254.92 355.02,254.58 355.32,254.23C355.63,253.87 355.92,253.47 356.22,253.08C356.52,252.68 356.82,252.28 357.12,251.87C357.42,251.46 357.73,251.04 358.03,250.62C358.33,250.2 358.63,249.77 358.93,249.34C359.23,248.91 359.54,248.48 359.84,248.04C360.14,247.6 360.44,247.15 360.74,246.7C361.04,246.24 361.34,245.78 361.64,245.31C361.94,244.83 362.25,244.35 362.55,243.86C362.85,243.36 363.15,242.85 363.45,242.34C363.75,241.82 364.06,241.29 364.36,240.76C364.66,240.22 364.96,239.67 365.26,239.11C365.56,238.54 365.87,237.98 366.16,237.38C366.47,236.75 366.78,236.09 367.07,235.41C367.38,234.69 367.67,233.93 367.97,233.18C368.28,232.41 368.58,231.62 368.88,230.83C369.18,230.03 369.48,229.21 369.78,228.39C370.08,227.56 370.38,226.73 370.68,225.9C370.98,225.06 371.29,224.23 371.59,223.39C371.89,222.55 372.19,221.71 372.49,220.87C372.79,220.04 373.1,219.21 373.4,218.39C373.7,217.58 374,216.77 374.3,215.97C374.6,215.18 374.91,214.4 375.21,213.63C375.51,212.88 375.81,212.13 376.11,211.4C376.41,210.69 376.7,209.98 377.01,209.29C377.31,208.61 377.61,207.95 377.92,207.29C378.22,206.65 378.52,206.02 378.82,205.4C379.12,204.79 379.42,204.17 379.73,203.58C380.03,203.01 380.32,202.43 380.63,201.9C380.92,201.39 381.22,200.9 381.53,200.45C381.82,200.04 382.12,199.64 382.44,199.3C382.73,198.99 383.02,198.71 383.34,198.5C383.63,198.31 383.94,198.15 384.25,198.08C384.54,198.01 384.86,198 385.15,198.06C385.46,198.12 385.76,198.27 386.05,198.45C386.37,198.66 386.67,198.95 386.96,199.27C387.28,199.63 387.57,200.06 387.86,200.51C388.18,201.01 388.48,201.57 388.77,202.16C389.09,202.8 389.38,203.5 389.67,204.22C389.98,205 390.29,205.83 390.58,206.68C390.89,207.59 391.19,208.54 391.48,209.51C391.79,210.54 392.09,211.6 392.38,212.69C392.69,213.83 392.99,215 393.29,216.2C393.6,217.44 393.89,218.72 394.19,220.01C394.5,221.35 394.8,222.71 395.1,224.09C395.41,225.51 395.7,226.95 396,228.4C396.3,229.89 396.6,231.39 396.9,232.91C397.2,234.45 397.51,236.01 397.81,237.57C398.11,239.15 398.41,240.74 398.71,242.33C399.01,243.92 399.32,245.53 399.62,247.12C399.92,248.7 400.22,250.3 400.52,251.86C400.82,253.39 401.11,254.93 401.42,256.41C401.72,257.83 402.02,259.25 402.33,260.57C402.62,261.79 402.91,262.99 403.23,264.07C403.51,265.02 403.81,265.92 404.14,266.71C404.42,267.38 404.71,268 405.04,268.52C405.32,268.96 405.63,269.35 405.95,269.67C406.23,269.95 406.54,270.18 406.85,270.36C407.14,270.52 407.44,270.63 407.75,270.72C408.05,270.8 408.36,270.85 408.66,270.87C408.96,270.89 409.26,270.87 409.56,270.83C409.86,270.79 410.17,270.73 410.47,270.63C410.78,270.52 411.08,270.38 411.37,270.2C411.68,270.01 411.97,269.75 412.27,269.51C412.58,269.26 412.88,268.98 413.18,268.73C413.48,268.48 413.77,268.23 414.08,268.01C414.38,267.79 414.68,267.58 414.99,267.4C415.29,267.22 415.59,267.06 415.89,266.92C416.19,266.78 416.49,266.66 416.79,266.55C417.09,266.44 417.4,266.35 417.7,266.26C418,266.17 418.3,266.08 418.6,265.99C418.9,265.89 419.21,265.79 419.51,265.69C419.81,265.58 420.11,265.47 420.41,265.36C420.71,265.25 421.02,265.12 421.32,265.02C421.62,264.92 421.92,264.82 422.22,264.74C422.52,264.66 422.82,264.59 423.12,264.56C423.42,264.53 423.73,264.51 424.03,264.53C424.33,264.55 424.63,264.6 424.93,264.68C425.24,264.77 425.54,264.89 425.84,265.04C426.15,265.2 426.45,265.39 426.74,265.61C427.05,265.85 427.35,266.13 427.64,266.42C427.95,266.73 428.26,267.08 428.55,267.44C428.86,267.82 429.16,268.24 429.45,268.67C429.76,269.12 430.06,269.61 430.36,270.1C430.67,270.61 430.96,271.14 431.26,271.68C431.56,272.23 431.86,272.81 432.16,273.38C432.46,273.96 432.77,274.56 433.07,275.15C433.37,275.74 433.67,276.33 433.97,276.91C434.27,277.48 434.57,278.05 434.88,278.59C435.18,279.11 435.47,279.63 435.78,280.11C436.07,280.56 436.36,281.01 436.68,281.38C436.97,281.72 437.26,282.06 437.59,282.27C437.87,282.45 438.19,282.62 438.49,282.6C438.8,282.57 439.12,282.34 439.4,282.08C439.74,281.76 440,281.2 440.3,280.74C440.61,280.27 440.9,279.76 441.21,279.28C441.51,278.81 441.8,278.35 442.11,277.91C442.41,277.48 442.7,277.07 443.01,276.67C443.31,276.29 443.61,275.91 443.92,275.56C444.22,275.22 444.51,274.9 444.82,274.6C445.12,274.31 445.42,274.03 445.73,273.76C446.03,273.5 446.33,273.25 446.63,273.02C446.93,272.79 447.23,272.58 447.53,272.38C447.83,272.18 448.14,271.99 448.44,271.81C448.74,271.63 449.04,271.46 449.34,271.29C449.64,271.12 449.95,270.96 450.25,270.81C450.55,270.66 450.85,270.5 451.15,270.37C451.45,270.24 451.75,270.12 452.05,270.01C452.35,269.91 452.66,269.81 452.96,269.74C453.26,269.67 453.56,269.62 453.86,269.59C454.16,269.56 454.47,269.55 454.77,269.56C455.07,269.57 455.37,269.61 455.67,269.67C455.97,269.73 456.28,269.8 456.58,269.9C456.88,270 457.18,270.12 457.48,270.25C457.78,270.38 458.08,270.52 458.38,270.67C458.68,270.82 458.99,270.98 459.29,271.14C459.59,271.3 459.89,271.47 460.19,271.62C460.49,271.77 460.79,271.92 461.1,272.04Q461.4,272.16 462,272.34" style="vector-effect: non-scaling-stroke; fill: none; stroke: rgb(231, 107, 243); stroke-opacity: 1; stroke-width: 2px; opacity: 1;"/></g><g class="points"/><g class="text"/></g></g></g><g class="overplot"/><path class="xlines-above crisp" d="M0,0" style="fill: none;"/><path class="ylines-above crisp" d="M0,0" style="fill: none;"/><g class="overlines-above"/><g class="xaxislayer-above"><g class="xtick"><text text-anchor="middle" x="0" y="433" transform="translate(80,0)" style="font-family: 'Open Sans', verdana, arial, sans-serif; font-size: 12px; fill: rgb(42, 63, 95); fill-opacity: 1; white-space: pre;">0</text></g><g class="xtick"><text text-anchor="middle" x="0" y="433" transform="translate(170.23000000000002,0)" style="font-family: 'Open Sans', verdana, arial, sans-serif; font-size: 12px; fill: rgb(42, 63, 95); fill-opacity: 1; white-space: pre;">100</text></g><g class="xtick"><text text-anchor="middle" x="0" y="433" transform="translate(260.47,0)" style="font-family: 'Open Sans', verdana, arial, sans-serif; font-size: 12px; fill: rgb(42, 63, 95); fill-opacity: 1; white-space: pre;">200</text></g><g class="xtick"><text text-anchor="middle" x="0" y="433" transform="translate(350.7,0)" style="font-family: 'Open Sans', verdana, arial, sans-serif; font-size: 12px; fill: rgb(42, 63, 95); fill-opacity: 1; white-space: pre;">300</text></g><g class="xtick"><text text-anchor="middle" x="0" y="433" transform="translate(440.94,0)" style="font-family: 'Open Sans', verdana, arial, sans-serif; font-size: 12px; fill: rgb(42, 63, 95); fill-opacity: 1; white-space: pre;">400</text></g><g class="xtick"><text text-anchor="middle" x="0" y="433" transform="translate(531.1700000000001,0)" style="font-family: 'Open Sans', verdana, arial, sans-serif; font-size: 12px; fill: rgb(42, 63, 95); fill-opacity: 1; white-space: pre;">500</text></g></g><g class="yaxislayer-above"><g class="ytick"><text text-anchor="end" x="79" y="4.199999999999999" transform="translate(0,375.76)" style="font-family: 'Open Sans', verdana, arial, sans-serif; font-size: 12px; fill: rgb(42, 63, 95); fill-opacity: 1; white-space: pre;">500</text></g><g class="ytick"><text text-anchor="end" x="79" y="4.199999999999999" transform="translate(0,316.66999999999996)" style="font-family: 'Open Sans', verdana, arial, sans-serif; font-size: 12px; fill: rgb(42, 63, 95); fill-opacity: 1; white-space: pre;">1000</text></g><g class="ytick"><text text-anchor="end" x="79" y="4.199999999999999" transform="translate(0,257.57)" style="font-family: 'Open Sans', verdana, arial, sans-serif; font-size: 12px; fill: rgb(42, 63, 95); fill-opacity: 1; white-space: pre;">1500</text></g><g class="ytick"><text text-anchor="end" x="79" y="4.199999999999999" transform="translate(0,198.48000000000002)" style="font-family: 'Open Sans', verdana, arial, sans-serif; font-size: 12px; fill: rgb(42, 63, 95); fill-opacity: 1; white-space: pre;">2000</text></g><g class="ytick"><text text-anchor="end" x="79" y="4.199999999999999" transform="translate(0,139.39)" style="font-family: 'Open Sans', verdana, arial, sans-serif; font-size: 12px; fill: rgb(42, 63, 95); fill-opacity: 1; white-space: pre;">2500</text></g></g><g class="overaxes-above"/></g></g><g class="polarlayer"/><g class="ternarylayer"/><g class="geolayer"/><g class="funnelarealayer"/><g class="pielayer"/><g class="treemaplayer"/><g class="sunburstlayer"/><g class="glimages"/><defs id="topdefs-2e69cc"><g class="clips"/><clipPath id="legend2e69cc"><rect width="137" height="67" x="0" y="0"/></clipPath></defs><g class="layer-above"><g class="imagelayer"/><g class="shapelayer"/></g><g class="infolayer"><g class="legend" pointer-events="all" transform="translate(551.24, 100)"><rect class="bg" shape-rendering="crispEdges" width="137" height="67" x="0" y="0" style="stroke: rgb(68, 68, 68); stroke-opacity: 1; fill: rgb(255, 255, 255); fill-opacity: 1; stroke-width: 0px;"/><g class="scrollbox" transform="translate(0, 0)" clip-path="url('#legend2e69cc')"><g class="groups"><g class="traces" transform="translate(0, 14.5)" style="opacity: 1;"><text class="legendtext" text-anchor="start" x="40" y="4.680000000000001" style="font-family: 'Open Sans', verdana, arial, sans-serif; font-size: 12px; fill: rgb(42, 63, 95); fill-opacity: 1; white-space: pre;">Average Class I</text><g class="layers" style="opacity: 1;"><g class="legendfill"/><g class="legendlines"><path class="js-line" d="M5,0h30" style="fill: none; stroke: rgb(0, 100, 80); stroke-opacity: 1; stroke-width: 2px;"/></g><g class="legendsymbols"><g class="legendpoints"/></g></g><rect class="legendtoggle" x="0" y="-9.5" width="131.15625" height="19" style="fill: rgb(0, 0, 0); fill-opacity: 0;"/></g><g class="traces" transform="translate(0, 33.5)" style="opacity: 1;"><text class="legendtext" text-anchor="start" x="40" y="4.680000000000001" style="font-family: 'Open Sans', verdana, arial, sans-serif; font-size: 12px; fill: rgb(42, 63, 95); fill-opacity: 1; white-space: pre;">Average Class II</text><g class="layers" style="opacity: 1;"><g class="legendfill"/><g class="legendlines"><path class="js-line" d="M5,0h30" style="fill: none; stroke: rgb(0, 176, 246); stroke-opacity: 1; stroke-width: 2px;"/></g><g class="legendsymbols"><g class="legendpoints"/></g></g><rect class="legendtoggle" x="0" y="-9.5" width="131.15625" height="19" style="fill: rgb(0, 0, 0); fill-opacity: 0;"/></g><g class="traces" transform="translate(0, 52.5)" style="opacity: 1;"><text class="legendtext" text-anchor="start" x="40" y="4.680000000000001" style="font-family: 'Open Sans', verdana, arial, sans-serif; font-size: 12px; fill: rgb(42, 63, 95); fill-opacity: 1; white-space: pre;">Average Class III</text><g class="layers" style="opacity: 1;"><g class="legendfill"/><g class="legendlines"><path class="js-line" d="M5,0h30" style="fill: none; stroke: rgb(231, 107, 243); stroke-opacity: 1; stroke-width: 2px;"/></g><g class="legendsymbols"><g class="legendpoints"/></g></g><rect class="legendtoggle" x="0" y="-9.5" width="131.15625" height="19" style="fill: rgb(0, 0, 0); fill-opacity: 0;"/></g></g></g><rect class="scrollbar" rx="20" ry="3" width="0" height="0" x="0" y="0" style="fill: rgb(128, 139, 164); fill-opacity: 1;"/></g><g class="g-gtitle"><text class="gtitle" x="35" y="50" text-anchor="start" dy="0em" style="font-family: 'Open Sans', verdana, arial, sans-serif; font-size: 17px; fill: rgb(42, 63, 95); opacity: 1; font-weight: normal; white-space: pre;">Average curve: hydropathy_group</text></g><g class="g-xtitle"><text class="xtitle" x="311" y="460.8" text-anchor="middle" style="font-family: 'Open Sans', verdana, arial, sans-serif; font-size: 14px; fill: rgb(42, 63, 95); opacity: 1; font-weight: normal; white-space: pre;">Domain</text></g><g class="g-ytitle"><text class="ytitle" transform="rotate(-90,27.496875000000003,260)" x="27.496875000000003" y="260" text-anchor="middle" style="font-family: 'Open Sans', verdana, arial, sans-serif; font-size: 14px; fill: rgb(42, 63, 95); opacity: 1; font-weight: normal; white-space: pre;">Frequency</text></g></g></svg>