<svg class="main-svg" xmlns="http://www.w3.org/2000/svg" xmlns:xlink="http://www.w3.org/1999/xlink" width="700" height="500" style="" viewBox="0 0 700 500"><rect x="0" y="0" width="700" height="500" style="fill: rgb(255, 255, 255); fill-opacity: 1;"/><defs id="defs-a27438"><g class="clips"><clipPath id="clipa27438xyplot" class="plotclip"><rect width="462" height="320"/></clipPath><clipPath class="axesclip" id="clipa27438x"><rect x="80" y="0" width="462" height="500"/></clipPath><clipPath class="axesclip" id="clipa27438y"><rect x="0" y="100" width="700" height="320"/></clipPath><clipPath class="axesclip" id="clipa27438xy"><rect x="80" y="100" width="462" height="320"/></clipPath></g><g class="gradients"/></defs><g class="bglayer"><rect class="bg" x="80" y="100" width="462" height="320" style="fill: rgb(229, 236, 246); fill-opacity: 1; stroke-width: 0;"/></g><g class="layer-below"><g class="imagelayer"/><g class="shapelayer"/></g><g class="cartesianlayer"><g class="subplot xy"><g class="layer-subplot"><g class="shapelayer"/><g class="imagelayer"/></g><g class="gridlayer"><g class="x"><path class="xgrid crisp" transform="translate(170.23000000000002,0)" d="M0,100v320" style="stroke: rgb(255, 255, 255); stroke-opacity: 1; stroke-width: 1px;"/><path class="xgrid crisp" transform="translate(260.47,0)" d="M0,100v320" style="stroke: rgb(255, 255, 255); stroke-opacity: 1; stroke-width: 1px;"/><path class="xgrid crisp" transform="translate(350.7,0)" d="M0,100v320" style="stroke: rgb(255, 255, 255); stroke-opacity: 1; stroke-width: 1px;"/><path class="xgrid crisp" transform="translate(440.94,0)" d="M0,100v320" style="stroke: rgb(255, 255, 255); stroke-opacity: 1; stroke-width: 1px;"/><path class="xgrid crisp" transform="translate(531.1700000000001,0)" d="M0,100v320" style="stroke: rgb(255, 255, 255); stroke-opacity: 1; stroke-width: 1px;"/></g><g class="y"><path class="ygrid crisp" transform="translate(0,377.68)" d="M80,0h462" style="stroke: rgb(255, 255, 255); stroke-opacity: 1; stroke-width: 1px;"/><path class="ygrid crisp" transform="translate(0,320.65999999999997)" d="M80,0h462" style="stroke: rgb(255, 255, 255); stroke-opacity: 1; stroke-width: 1px;"/><path class="ygrid crisp" transform="translate(0,263.65)" d="M80,0h462" style="stroke: rgb(255, 255, 255); stroke-opacity: 1; stroke-width: 1px;"/><path class="ygrid crisp" transform="translate(0,206.64)" d="M80,0h462" style="stroke: rgb(255, 255, 255); stroke-opacity: 1; stroke-width: 1px;"/><path class="ygrid crisp" transform="translate(0,149.62)" d="M80,0h462" style="stroke: rgb(255, 255, 255); stroke-opacity: 1; stroke-width: 1px;"/></g></g><g class="zerolinelayer"><path class="xzl zl crisp" transform="translate(80,0)" d="M0,100v320" style="stroke: rgb(255, 255, 255); stroke-opacity: 1; stroke-width: 2px;"/></g><path class="xlines-below"/><path class="ylines-below"/><g class="overlines-below"/><g class="xaxislayer-below"/><g class="yaxislayer-below"/><g class="overaxes-below"/><g class="plot" transform="translate(80, 100)" clip-path="url('#clipa27438xyplot')"><g class="scatterlayer mlayer"><g class="trace scatter trace7016cc" style="stroke-miterlimit: 2; opacity: 1;"><g class="fills"/><g class="errorbars"/><g class="lines"><path class="js-line" d="M0,236.36Q0.63,236.1 0.9,235.82C1.26,235.45 1.53,234.82 1.81,234.19C2.15,233.42 2.43,232.47 2.71,231.5C3.04,230.37 3.33,229.11 3.62,227.8C3.94,226.34 4.23,224.77 4.52,223.15C4.83,221.39 5.13,219.53 5.42,217.62C5.73,215.58 6.04,213.45 6.33,211.28C6.64,208.99 6.93,206.62 7.23,204.21C7.54,201.7 7.84,199.13 8.14,196.52C8.45,193.82 8.74,191.07 9.04,188.29C9.35,185.44 9.65,182.54 9.95,179.62C10.25,176.65 10.55,173.63 10.85,170.61C11.15,167.55 11.45,164.46 11.75,161.36C12.05,158.24 12.36,155.1 12.66,151.96C12.96,148.81 13.26,145.66 13.56,142.51C13.86,139.37 14.17,136.22 14.47,133.1C14.77,130 15.07,126.9 15.37,123.83C15.67,120.79 15.97,117.77 16.27,114.77C16.57,111.82 16.88,108.88 17.18,105.97C17.48,103.12 17.78,100.3 18.08,97.5C18.38,94.75 18.69,92.03 18.99,89.32C19.29,86.64 19.59,83.99 19.89,81.32C20.19,78.63 20.49,75.96 20.79,73.24C21.09,70.47 21.4,67.66 21.7,64.85C22,62.02 22.3,59.13 22.6,56.31C22.9,53.53 23.2,50.74 23.51,48.03C23.81,45.42 24.1,42.83 24.41,40.35C24.7,38 25.01,35.7 25.32,33.51C25.61,31.48 25.9,29.51 26.22,27.67C26.51,26.01 26.79,24.39 27.12,22.93C27.4,21.65 27.69,20.42 28.03,19.37C28.31,18.5 28.57,17.64 28.93,17.04C29.2,16.59 29.5,16.1 29.84,16C30.12,15.92 30.48,16.05 30.74,16.26C31.11,16.55 31.37,17.21 31.64,17.83C31.99,18.63 32.27,19.65 32.55,20.7C32.88,21.95 33.17,23.38 33.45,24.86C33.77,26.54 34.07,28.37 34.36,30.26C34.68,32.35 34.97,34.56 35.26,36.85C35.57,39.32 35.87,41.92 36.16,44.57C36.47,47.39 36.78,50.33 37.07,53.32C37.38,56.47 37.67,59.72 37.97,63.02C38.28,66.46 38.58,69.98 38.88,73.55C39.19,77.23 39.48,80.98 39.78,84.77C40.08,88.65 40.38,92.59 40.68,96.55C40.98,100.57 41.29,104.63 41.59,108.7C41.89,112.8 42.19,116.93 42.49,121.04C42.79,125.15 43.1,129.28 43.4,133.36C43.7,137.4 43.99,141.45 44.3,145.42C44.6,149.3 44.9,153.17 45.21,156.94C45.51,160.57 45.8,164.16 46.11,167.62C46.4,170.89 46.69,174.1 47.01,177.14C47.3,179.94 47.6,182.67 47.92,185.2C48.21,187.45 48.49,189.62 48.82,191.57C49.1,193.23 49.39,194.83 49.73,196.17C50,197.24 50.26,198.29 50.63,199.02C50.89,199.54 51.18,200.11 51.53,200.24C51.8,200.34 52.17,200.21 52.44,200.02C52.8,199.76 53.06,199.15 53.34,198.61C53.68,197.94 53.96,197.1 54.25,196.27C54.57,195.34 54.86,194.32 55.15,193.3C55.46,192.22 55.75,191.08 56.05,189.95C56.35,188.81 56.66,187.64 56.96,186.5C57.26,185.37 57.55,184.24 57.86,183.15C58.16,182.1 58.46,181.07 58.77,180.09C59.06,179.18 59.35,178.29 59.67,177.48C59.96,176.75 60.25,176.03 60.58,175.42C60.86,174.89 61.15,174.38 61.48,174.01C61.76,173.7 62.06,173.4 62.38,173.29C62.67,173.19 63,173.2 63.29,173.31C63.61,173.43 63.91,173.74 64.19,174.06C64.53,174.45 64.82,174.97 65.1,175.52C65.43,176.15 65.71,176.9 66,177.66C66.32,178.51 66.61,179.45 66.9,180.41C67.22,181.45 67.52,182.57 67.81,183.7C68.12,184.89 68.41,186.14 68.71,187.4C69.02,188.7 69.32,190.05 69.62,191.39C69.92,192.75 70.22,194.13 70.52,195.5C70.82,196.87 71.12,198.25 71.42,199.6C71.72,200.93 72.02,202.26 72.33,203.56C72.63,204.83 72.92,206.09 73.23,207.32C73.53,208.51 73.83,209.69 74.14,210.82C74.43,211.9 74.73,212.96 75.04,213.97C75.33,214.91 75.64,215.82 75.95,216.68C76.24,217.47 76.54,218.24 76.85,218.95C77.14,219.6 77.43,220.22 77.75,220.8C78.04,221.33 78.34,221.83 78.66,222.28C78.95,222.69 79.24,223.09 79.56,223.42C79.85,223.73 80.15,224 80.47,224.22C80.76,224.42 81.06,224.6 81.37,224.71C81.66,224.82 81.97,224.88 82.27,224.9C82.57,224.92 82.88,224.89 83.18,224.84C83.48,224.79 83.78,224.68 84.08,224.57C84.39,224.45 84.69,224.3 84.99,224.15C85.29,224 85.59,223.82 85.89,223.65C86.19,223.48 86.49,223.29 86.79,223.12C87.09,222.95 87.39,222.78 87.7,222.64C88,222.5 88.3,222.36 88.6,222.26C88.9,222.16 89.21,222.08 89.51,222.04C89.81,222 90.11,221.98 90.41,222.01C90.71,222.04 91.02,222.11 91.32,222.22C91.63,222.33 91.93,222.49 92.22,222.68C92.53,222.88 92.83,223.14 93.12,223.41C93.43,223.71 93.74,224.05 94.03,224.41C94.34,224.8 94.64,225.25 94.93,225.7C95.24,226.19 95.55,226.7 95.84,227.24C96.15,227.81 96.45,228.41 96.74,229.03C97.05,229.68 97.34,230.35 97.64,231.04C97.95,231.75 98.25,232.49 98.55,233.24C98.86,234.01 99.15,234.8 99.45,235.59C99.75,236.4 100.06,237.23 100.36,238.05C100.66,238.88 100.96,239.72 101.26,240.56C101.56,241.4 101.86,242.24 102.16,243.07C102.46,243.89 102.76,244.71 103.07,245.5C103.37,246.27 103.66,247.04 103.97,247.77C104.27,248.47 104.57,249.15 104.88,249.8C105.17,250.4 105.47,250.99 105.78,251.53C106.07,252.02 106.36,252.49 106.68,252.9C106.97,253.27 107.27,253.61 107.59,253.87C107.88,254.1 108.18,254.32 108.49,254.43C108.78,254.54 109.1,254.59 109.4,254.56C109.7,254.53 110.01,254.4 110.3,254.24C110.62,254.06 110.92,253.78 111.21,253.48C111.53,253.14 111.83,252.72 112.11,252.27C112.43,251.77 112.72,251.2 113.01,250.6C113.33,249.94 113.63,249.22 113.92,248.46C114.24,247.62 114.53,246.71 114.82,245.77C115.13,244.75 115.44,243.66 115.73,242.56C116.04,241.4 116.34,240.18 116.63,238.96C116.94,237.69 117.23,236.38 117.53,235.07C117.84,233.72 118.14,232.36 118.44,230.98C118.74,229.58 119.04,228.16 119.34,226.73C119.64,225.29 119.95,223.83 120.25,222.38C120.55,220.92 120.85,219.46 121.15,218C121.45,216.54 121.75,215.07 122.05,213.62C122.35,212.18 122.66,210.74 122.96,209.31C123.26,207.9 123.56,206.5 123.86,205.11C124.16,203.75 124.46,202.4 124.77,201.07C125.07,199.77 125.36,198.49 125.67,197.23C125.97,196.01 126.27,194.8 126.58,193.63C126.88,192.5 127.17,191.39 127.48,190.32C127.77,189.29 128.07,188.29 128.38,187.32C128.67,186.41 128.98,185.52 129.29,184.68C129.58,183.89 129.88,183.12 130.19,182.41C130.48,181.75 130.78,181.12 131.1,180.54C131.39,180.02 131.68,179.52 132,179.09C132.29,178.7 132.58,178.34 132.9,178.06C133.19,177.81 133.49,177.59 133.81,177.45C134.1,177.33 134.41,177.25 134.71,177.25C135.01,177.25 135.33,177.34 135.62,177.47C135.93,177.61 136.23,177.83 136.52,178.08C136.84,178.36 137.13,178.7 137.42,179.07C137.74,179.47 138.04,179.94 138.33,180.42C138.64,180.94 138.94,181.51 139.23,182.1C139.54,182.73 139.85,183.4 140.14,184.09C140.45,184.82 140.75,185.57 141.04,186.35C141.35,187.17 141.65,188.02 141.95,188.88C142.26,189.78 142.55,190.71 142.85,191.65C143.15,192.62 143.45,193.61 143.75,194.61C144.06,195.64 144.36,196.68 144.66,197.73C144.96,198.79 145.26,199.86 145.56,200.93C145.86,202 146.17,203.08 146.47,204.15C146.77,205.21 147.07,206.27 147.37,207.31C147.67,208.33 147.96,209.34 148.27,210.32C148.57,211.26 148.87,212.19 149.18,213.07C149.47,213.9 149.76,214.72 150.08,215.48C150.37,216.18 150.67,216.85 150.99,217.45C151.28,217.98 151.56,218.49 151.89,218.89C152.17,219.23 152.46,219.55 152.79,219.73C153.07,219.88 153.4,219.98 153.7,219.96C154.01,219.94 154.32,219.77 154.6,219.57C154.93,219.33 155.23,218.96 155.51,218.57C155.84,218.12 156.12,217.57 156.41,217.01C156.73,216.39 157.03,215.69 157.32,214.98C157.63,214.22 157.93,213.4 158.22,212.57C158.53,211.71 158.82,210.8 159.12,209.9C159.43,208.97 159.73,208.02 160.03,207.07C160.33,206.11 160.63,205.14 160.93,204.17C161.23,203.19 161.54,202.21 161.84,201.23C162.14,200.25 162.44,199.27 162.74,198.29C163.04,197.31 163.34,196.34 163.64,195.37C163.94,194.4 164.25,193.43 164.55,192.47C164.85,191.53 165.14,190.6 165.45,189.69C165.75,188.81 166.05,187.94 166.36,187.11C166.65,186.34 166.95,185.58 167.26,184.88C167.55,184.24 167.84,183.62 168.16,183.09C168.45,182.62 168.74,182.16 169.07,181.82C169.35,181.53 169.65,181.26 169.97,181.15C170.26,181.05 170.59,181.03 170.88,181.12C171.2,181.22 171.5,181.48 171.78,181.77C172.11,182.12 172.4,182.62 172.68,183.13C173.01,183.74 173.31,184.46 173.59,185.21C173.91,186.07 174.2,187.02 174.49,188.01C174.81,189.11 175.11,190.31 175.4,191.54C175.72,192.88 176.01,194.3 176.3,195.77C176.61,197.35 176.92,199 177.21,200.69C177.52,202.49 177.82,204.35 178.11,206.26C178.42,208.27 178.71,210.34 179.01,212.45C179.32,214.65 179.62,216.92 179.92,219.21C180.23,221.59 180.52,224.01 180.82,226.47C181.13,229 181.43,231.57 181.73,234.16C182.04,236.81 182.33,239.5 182.63,242.2C182.93,244.94 183.23,247.71 183.53,250.48C183.83,253.27 184.14,256.08 184.44,258.87C184.74,261.65 185.04,264.45 185.34,267.2C185.64,269.9 185.94,272.61 186.25,275.22C186.54,277.71 186.83,280.21 187.15,282.5C187.44,284.55 187.71,286.58 188.05,288.32C188.33,289.75 188.6,291.13 188.96,292.21C189.23,293.02 189.47,293.86 189.86,294.26C190.12,294.53 190.49,294.75 190.77,294.69C191.1,294.63 191.4,294.14 191.67,293.71C192.03,293.13 192.3,292.28 192.58,291.43C192.92,290.41 193.19,289.2 193.48,288C193.8,286.68 194.08,285.25 194.38,283.83C194.69,282.35 194.99,280.82 195.29,279.3C195.59,277.78 195.89,276.23 196.19,274.71C196.49,273.21 196.79,271.71 197.1,270.25C197.4,268.84 197.69,267.44 198,266.1C198.29,264.82 198.59,263.57 198.9,262.38C199.19,261.28 199.49,260.21 199.81,259.22C200.1,258.32 200.39,257.45 200.71,256.67C200.99,255.99 201.29,255.33 201.62,254.79C201.9,254.33 202.19,253.9 202.52,253.61C202.8,253.37 203.11,253.16 203.42,253.12C203.72,253.08 204.05,253.18 204.33,253.33C204.66,253.5 204.95,253.84 205.23,254.18C205.56,254.58 205.85,255.1 206.14,255.64C206.46,256.24 206.75,256.93 207.04,257.64C207.36,258.41 207.66,259.24 207.95,260.09C208.26,260.99 208.56,261.95 208.85,262.91C209.16,263.92 209.45,264.96 209.75,266.01C210.06,267.09 210.36,268.2 210.66,269.3C210.96,270.41 211.26,271.55 211.56,272.66C211.86,273.76 212.16,274.87 212.47,275.94C212.77,276.97 213.06,278 213.37,278.96C213.66,279.85 213.95,280.74 214.27,281.53C214.56,282.24 214.84,282.95 215.18,283.49C215.46,283.93 215.74,284.47 216.08,284.6C216.36,284.71 216.72,284.63 216.99,284.46C217.34,284.24 217.62,283.69 217.89,283.19C218.23,282.56 218.51,281.74 218.79,280.91C219.12,279.96 219.41,278.88 219.7,277.78C220.02,276.58 220.31,275.3 220.6,274C220.91,272.64 221.21,271.22 221.51,269.79C221.82,268.32 222.11,266.81 222.41,265.3C222.71,263.78 223.02,262.24 223.32,260.7C223.62,259.16 223.92,257.61 224.22,256.08C224.52,254.56 224.82,253.04 225.12,251.54C225.42,250.06 225.73,248.58 226.03,247.12C226.33,245.68 226.63,244.26 226.93,242.85C227.23,241.47 227.54,240.11 227.84,238.76C228.14,237.44 228.44,236.14 228.74,234.85C229.04,233.59 229.33,232.35 229.64,231.13C229.94,229.95 230.24,228.79 230.55,227.67C230.84,226.6 231.14,225.55 231.45,224.55C231.74,223.61 232.04,222.7 232.36,221.85C232.65,221.07 232.94,220.32 233.26,219.65C233.54,219.05 233.83,218.47 234.16,218C234.44,217.59 234.74,217.2 235.07,216.95C235.35,216.74 235.66,216.57 235.97,216.54C236.27,216.51 236.6,216.61 236.88,216.77C237.21,216.95 237.5,217.29 237.78,217.64C238.11,218.05 238.4,218.59 238.68,219.14C239,219.77 239.3,220.49 239.59,221.23C239.91,222.04 240.2,222.93 240.49,223.83C240.8,224.8 241.1,225.82 241.4,226.86C241.71,227.94 242,229.07 242.3,230.19C242.6,231.33 242.91,232.51 243.21,233.66C243.51,234.8 243.8,235.96 244.11,237.06C244.4,238.12 244.69,239.18 245.01,240.15C245.3,241.04 245.59,241.92 245.92,242.66C246.2,243.28 246.46,243.94 246.82,244.31C247.09,244.58 247.44,244.85 247.73,244.82C248.04,244.79 248.37,244.41 248.63,244.04C249,243.53 249.25,242.7 249.53,241.88C249.87,240.86 250.16,239.64 250.44,238.38C250.77,236.93 251.05,235.32 251.34,233.66C251.66,231.83 251.96,229.87 252.25,227.88C252.56,225.75 252.86,223.51 253.15,221.25C253.46,218.88 253.75,216.43 254.05,213.96C254.36,211.42 254.66,208.83 254.96,206.23C255.26,203.59 255.56,200.91 255.86,198.24C256.16,195.56 256.47,192.86 256.77,190.18C257.07,187.51 257.37,184.84 257.67,182.2C257.97,179.6 258.27,177.02 258.58,174.48C258.88,172.01 259.17,169.55 259.48,167.16C259.77,164.85 260.07,162.57 260.38,160.36C260.67,158.26 260.98,156.2 261.29,154.23C261.58,152.38 261.87,150.57 262.19,148.86C262.48,147.29 262.78,145.76 263.1,144.34C263.39,143.07 263.67,141.84 264,140.75C264.28,139.81 264.56,138.91 264.9,138.17C265.18,137.57 265.45,136.96 265.81,136.62C266.08,136.36 266.41,136.12 266.71,136.14C267.02,136.16 267.35,136.46 267.62,136.76C267.98,137.16 268.25,137.82 268.52,138.47C268.86,139.27 269.14,140.24 269.42,141.25C269.75,142.42 270.04,143.72 270.33,145.07C270.65,146.58 270.94,148.2 271.23,149.88C271.55,151.71 271.85,153.64 272.14,155.62C272.45,157.73 272.75,159.94 273.04,162.19C273.35,164.56 273.65,167.01 273.95,169.49C274.26,172.07 274.55,174.71 274.85,177.37C275.15,180.09 275.45,182.88 275.75,185.63C276.05,188.38 276.35,191.22 276.66,193.89C276.95,196.4 277.22,199.04 277.56,201.21C277.84,202.96 278.16,204.42 278.47,205.92C278.76,207.3 279.05,208.64 279.37,209.89C279.66,211.01 279.92,212.19 280.27,213.07C280.54,213.74 280.8,214.48 281.18,214.78C281.44,214.99 281.8,215.09 282.08,215.02C282.41,214.93 282.72,214.51 282.99,214.12C283.35,213.6 283.61,212.85 283.89,212.08C284.23,211.15 284.51,210.04 284.79,208.9C285.12,207.58 285.41,206.12 285.7,204.61C286.02,202.94 286.31,201.16 286.6,199.33C286.91,197.37 287.21,195.31 287.51,193.23C287.82,191.06 288.11,188.81 288.41,186.56C288.72,184.25 289.02,181.88 289.32,179.52C289.62,177.14 289.92,174.73 290.22,172.35C290.52,169.98 290.82,167.6 291.12,165.25C291.42,162.94 291.72,160.64 292.03,158.38C292.33,156.19 292.62,154.02 292.93,151.9C293.23,149.86 293.53,147.85 293.84,145.9C294.13,144.05 294.43,142.23 294.74,140.49C295.03,138.85 295.33,137.24 295.64,135.72C295.93,134.31 296.23,132.94 296.55,131.65C296.84,130.48 297.13,129.34 297.45,128.3C297.74,127.36 298.04,126.47 298.36,125.67C298.64,124.97 298.93,124.3 299.26,123.73C299.54,123.23 299.84,122.79 300.16,122.41C300.44,122.08 300.76,121.82 301.07,121.57C301.36,121.34 301.67,121.18 301.97,120.96C302.28,120.73 302.59,120.5 302.88,120.23C303.19,119.94 303.48,119.57 303.78,119.24C304.08,118.9 304.37,118.52 304.68,118.21C304.97,117.92 305.27,117.61 305.59,117.42C305.88,117.25 306.19,117.1 306.49,117.07C306.79,117.04 307.11,117.11 307.4,117.24C307.72,117.39 308.02,117.67 308.3,117.98C308.63,118.34 308.93,118.82 309.21,119.32C309.54,119.89 309.83,120.56 310.11,121.25C310.43,122.02 310.72,122.88 311.01,123.76C311.33,124.73 311.63,125.76 311.92,126.82C312.23,127.97 312.53,129.17 312.82,130.41C313.13,131.72 313.44,133.08 313.73,134.47C314.04,135.93 314.34,137.44 314.63,138.98C314.94,140.58 315.23,142.23 315.53,143.89C315.84,145.61 316.14,147.36 316.44,149.13C316.75,150.95 317.04,152.8 317.34,154.67C317.64,156.57 317.95,158.5 318.25,160.44C318.55,162.41 318.85,164.39 319.15,166.38C319.45,168.39 319.75,170.43 320.05,172.46C320.35,174.5 320.66,176.56 320.96,178.61C321.26,180.67 321.56,182.73 321.86,184.79C322.16,186.85 322.47,188.9 322.77,190.95C323.07,192.99 323.37,195.02 323.67,197.05C323.97,199.06 324.28,201.07 324.58,203.06C324.88,205.03 325.18,207 325.48,208.95C325.78,210.88 326.08,212.8 326.38,214.7C326.68,216.58 326.99,218.44 327.29,220.29C327.59,222.11 327.89,223.93 328.19,225.72C328.49,227.49 328.8,229.24 329.1,230.97C329.4,232.68 329.7,234.36 330,236.04C330.3,237.69 330.6,239.32 330.9,240.94C331.2,242.53 331.51,244.1 331.81,245.66C332.11,247.19 332.41,248.7 332.71,250.2C333.01,251.67 333.31,253.12 333.62,254.56C333.92,255.96 334.22,257.35 334.52,258.72C334.82,260.05 335.11,261.37 335.42,262.66C335.72,263.9 336.02,265.14 336.33,266.31C336.62,267.4 336.9,268.51 337.23,269.47C337.51,270.29 337.82,271.03 338.14,271.73C338.43,272.36 338.73,272.93 339.04,273.48C339.33,273.99 339.63,274.47 339.95,274.9C340.24,275.3 340.54,275.68 340.85,276C341.14,276.3 341.44,276.57 341.75,276.78C342.04,276.98 342.35,277.14 342.66,277.26C342.95,277.38 343.26,277.46 343.56,277.51C343.86,277.56 344.17,277.57 344.47,277.56C344.77,277.55 345.07,277.52 345.37,277.47C345.67,277.42 345.97,277.35 346.27,277.28C346.57,277.21 346.88,277.11 347.18,277.03C347.48,276.95 347.78,276.86 348.08,276.78C348.38,276.7 348.69,276.63 348.99,276.57C349.29,276.51 349.59,276.46 349.89,276.43C350.19,276.4 350.49,276.38 350.79,276.37C351.09,276.36 351.4,276.37 351.7,276.39C352,276.41 352.3,276.44 352.6,276.46C352.9,276.49 353.21,276.51 353.51,276.54C353.81,276.57 354.11,276.61 354.41,276.64C354.71,276.67 355.02,276.71 355.32,276.74C355.62,276.77 355.92,276.81 356.22,276.83C356.52,276.85 356.82,276.87 357.12,276.88C357.42,276.89 357.73,276.89 358.03,276.87C358.33,276.85 358.63,276.83 358.93,276.79C359.23,276.75 359.54,276.71 359.84,276.65C360.14,276.59 360.44,276.52 360.74,276.42C361.04,276.32 361.35,276.2 361.64,276.05C361.95,275.89 362.26,275.71 362.55,275.48C362.86,275.24 363.16,274.95 363.45,274.62C363.77,274.25 364.07,273.83 364.36,273.37C364.68,272.85 364.98,272.26 365.26,271.62C365.58,270.89 365.88,270.09 366.16,269.23C366.48,268.25 366.78,267.17 367.07,266.06C367.39,264.85 367.68,263.55 367.97,262.24C368.28,260.87 368.58,259.45 368.88,258.03C369.19,256.57 369.48,255.08 369.78,253.58C370.08,252.05 370.38,250.51 370.68,248.96C370.98,247.4 371.29,245.82 371.59,244.25C371.89,242.68 372.19,241.1 372.49,239.53C372.79,237.96 373.1,236.4 373.4,234.84C373.7,233.3 374,231.76 374.3,230.24C374.6,228.74 374.91,227.25 375.21,225.77C375.51,224.32 375.81,222.89 376.11,221.47C376.41,220.08 376.7,218.71 377.01,217.35C377.31,216.02 377.61,214.71 377.92,213.42C378.22,212.16 378.51,210.91 378.82,209.68C379.12,208.48 379.42,207.29 379.73,206.12C380.03,204.97 380.33,203.84 380.63,202.72C380.93,201.63 381.23,200.55 381.53,199.48C381.83,198.43 382.14,197.39 382.44,196.37C382.74,195.37 383.04,194.37 383.34,193.39C383.64,192.42 383.95,191.46 384.25,190.51C384.55,189.57 384.85,188.64 385.15,187.72C385.45,186.82 385.74,185.91 386.05,185.04C386.35,184.21 386.65,183.38 386.96,182.6C387.25,181.87 387.54,181.16 387.86,180.51C388.15,179.92 388.45,179.35 388.77,178.87C389.05,178.45 389.34,178.03 389.67,177.74C389.95,177.49 390.26,177.26 390.58,177.16C390.87,177.07 391.19,177.05 391.48,177.13C391.79,177.21 392.1,177.43 392.38,177.68C392.71,177.97 393.01,178.37 393.29,178.8C393.62,179.29 393.9,179.87 394.19,180.48C394.51,181.16 394.81,181.92 395.1,182.71C395.42,183.58 395.71,184.51 396,185.47C396.31,186.51 396.61,187.61 396.9,188.74C397.21,189.94 397.52,191.2 397.81,192.48C398.12,193.83 398.41,195.23 398.71,196.66C399.02,198.15 399.32,199.68 399.62,201.23C399.93,202.84 400.22,204.49 400.52,206.16C400.82,207.88 401.12,209.63 401.42,211.39C401.73,213.19 402.03,215.03 402.33,216.87C402.63,218.74 402.93,220.63 403.23,222.52C403.53,224.43 403.84,226.35 404.14,228.27C404.44,230.2 404.74,232.13 405.04,234.06C405.34,235.98 405.65,237.89 405.95,239.8C406.25,241.7 406.55,243.59 406.85,245.47C407.15,247.33 407.45,249.19 407.75,251.03C408.05,252.85 408.36,254.66 408.66,256.46C408.96,258.24 409.26,260.01 409.56,261.76C409.86,263.48 410.17,265.19 410.47,266.88C410.77,268.53 411.07,270.17 411.37,271.78C411.67,273.34 411.96,274.89 412.27,276.4C412.57,277.85 412.87,279.27 413.18,280.65C413.47,281.96 413.77,283.24 414.08,284.47C414.37,285.63 414.68,286.75 414.99,287.83C415.28,288.83 415.58,289.81 415.89,290.73C416.18,291.58 416.47,292.41 416.79,293.17C417.08,293.86 417.38,294.53 417.7,295.11C417.98,295.63 418.28,296.1 418.6,296.51C418.89,296.87 419.19,297.2 419.51,297.44C419.8,297.65 420.1,297.82 420.41,297.92C420.7,298.01 421.02,298.04 421.32,298.04C421.62,298.04 421.92,297.98 422.22,297.91C422.52,297.84 422.82,297.74 423.12,297.62C423.43,297.5 423.74,297.36 424.03,297.18C424.34,296.99 424.64,296.76 424.93,296.51C425.24,296.24 425.54,295.92 425.84,295.6C426.15,295.28 426.44,294.93 426.74,294.59C427.04,294.26 427.34,293.92 427.64,293.59C427.94,293.27 428.24,292.95 428.55,292.65C428.85,292.35 429.15,292.06 429.45,291.78C429.75,291.5 430.06,291.24 430.36,290.98C430.66,290.72 430.96,290.47 431.26,290.23C431.56,289.99 431.86,289.75 432.16,289.52C432.46,289.29 432.77,289.07 433.07,288.85C433.37,288.63 433.67,288.42 433.97,288.21C434.27,287.99 434.58,287.78 434.88,287.56C435.18,287.34 435.48,287.12 435.78,286.91C436.08,286.71 436.37,286.5 436.68,286.32C436.98,286.14 437.28,285.98 437.59,285.84C437.89,285.7 438.19,285.58 438.49,285.49C438.79,285.4 439.1,285.33 439.4,285.28C439.7,285.23 440,285.21 440.3,285.2C440.6,285.19 440.91,285.21 441.21,285.25C441.51,285.29 441.81,285.36 442.11,285.44C442.41,285.52 442.71,285.63 443.01,285.75C443.32,285.87 443.62,286.01 443.92,286.17C444.22,286.33 444.52,286.51 444.82,286.7C445.13,286.9 445.43,287.11 445.73,287.33C446.03,287.56 446.33,287.8 446.63,288.05C446.93,288.3 447.23,288.57 447.53,288.84C447.83,289.12 448.14,289.4 448.44,289.69C448.74,289.99 449.04,290.29 449.34,290.6C449.64,290.91 449.95,291.23 450.25,291.55C450.55,291.87 450.85,292.19 451.15,292.52C451.45,292.85 451.75,293.18 452.05,293.51C452.35,293.84 452.66,294.18 452.96,294.51C453.26,294.84 453.56,295.17 453.86,295.49C454.16,295.81 454.46,296.14 454.77,296.45C455.07,296.75 455.36,297.06 455.67,297.31C455.96,297.55 456.28,297.72 456.58,297.92C456.88,298.12 457.18,298.31 457.48,298.5C457.78,298.69 458.08,298.87 458.38,299.04C458.68,299.21 458.99,299.37 459.29,299.52C459.59,299.67 459.89,299.82 460.19,299.94C460.49,300.06 460.8,300.16 461.1,300.25Q461.4,300.34 462,300.46" style="vector-effect: non-scaling-stroke; fill: none; stroke: rgb(0, 100, 80); stroke-opacity: 1; stroke-width: 2px; opacity: 1;"/></g><g class="points"/><g class="text"/></g><g class="trace scatter trace9b9cff" style="stroke-miterlimit: 2; opacity: 1;"><g class="fills"/><g class="errorbars"/><g class="lines"><path class="js-line" d="M0,228.73Q0.63,227.39 0.9,226.51C1.26,225.31 1.52,223.69 1.81,222.15C2.13,220.42 2.42,218.54 2.71,216.62C3.02,214.56 3.33,212.38 3.62,210.18C3.93,207.86 4.23,205.45 4.52,203.02C4.83,200.5 5.12,197.91 5.42,195.3C5.73,192.62 6.03,189.9 6.33,187.16C6.63,184.37 6.93,181.55 7.23,178.73C7.53,175.88 7.84,173 8.14,170.12C8.44,167.23 8.74,164.31 9.04,161.41C9.34,158.5 9.65,155.59 9.95,152.69C10.25,149.8 10.55,146.92 10.85,144.05C11.15,141.2 11.45,138.36 11.75,135.54C12.05,132.75 12.36,129.98 12.66,127.23C12.96,124.52 13.26,121.82 13.56,119.16C13.86,116.54 14.17,113.94 14.47,111.38C14.77,108.87 15.07,106.38 15.37,103.93C15.67,101.53 15.96,99.16 16.27,96.83C16.57,94.56 16.87,92.32 17.18,90.12C17.48,87.98 17.77,85.88 18.08,83.81C18.38,81.81 18.68,79.85 18.99,77.93C19.29,76.08 19.58,74.25 19.89,72.48C20.18,70.78 20.48,69.12 20.79,67.51C21.08,65.97 21.39,64.47 21.7,63.02C21.99,61.65 22.29,60.32 22.6,59.05C22.89,57.86 23.19,56.71 23.51,55.63C23.8,54.64 24.09,53.67 24.41,52.79C24.7,52 24.99,51.25 25.32,50.59C25.6,50.02 25.89,49.47 26.22,49.06C26.5,48.72 26.79,48.38 27.12,48.24C27.4,48.12 27.74,48.08 28.03,48.16C28.35,48.25 28.65,48.55 28.93,48.85C29.27,49.22 29.56,49.76 29.84,50.31C30.17,50.96 30.46,51.74 30.74,52.55C31.06,53.47 31.35,54.49 31.64,55.55C31.96,56.72 32.26,57.98 32.55,59.28C32.87,60.69 33.16,62.18 33.45,63.71C33.76,65.34 34.07,67.05 34.36,68.79C34.67,70.63 34.97,72.54 35.26,74.48C35.57,76.52 35.86,78.61 36.16,80.74C36.47,82.95 36.77,85.22 37.07,87.51C37.38,89.87 37.67,92.29 37.97,94.72C38.28,97.21 38.58,99.74 38.88,102.28C39.18,104.86 39.48,107.48 39.78,110.1C40.08,112.74 40.38,115.41 40.68,118.06C40.98,120.72 41.29,123.39 41.59,126.04C41.89,128.67 42.19,131.3 42.49,133.9C42.79,136.46 43.09,139.02 43.4,141.53C43.7,143.99 43.99,146.43 44.3,148.82C44.6,151.14 44.9,153.44 45.21,155.69C45.51,157.85 45.8,159.99 46.11,162.06C46.4,164.04 46.7,165.99 47.01,167.87C47.3,169.65 47.61,171.39 47.92,173.06C48.21,174.62 48.5,176.15 48.82,177.59C49.11,178.92 49.41,180.2 49.73,181.4C50.02,182.48 50.31,183.52 50.63,184.46C50.91,185.29 51.2,186.1 51.53,186.78C51.81,187.36 52.1,187.92 52.44,188.32C52.72,188.65 53.02,188.98 53.34,189.09C53.62,189.18 53.97,189.15 54.25,189.03C54.58,188.89 54.87,188.53 55.15,188.2C55.48,187.81 55.76,187.3 56.05,186.82C56.36,186.31 56.66,185.74 56.96,185.21C57.26,184.68 57.55,184.13 57.86,183.62C58.16,183.13 58.45,182.64 58.77,182.21C59.06,181.81 59.35,181.43 59.67,181.11C59.96,180.82 60.26,180.55 60.58,180.37C60.87,180.21 61.18,180.08 61.48,180.04C61.78,180 62.09,180.04 62.38,180.13C62.69,180.23 63,180.42 63.29,180.64C63.61,180.88 63.9,181.19 64.19,181.52C64.51,181.88 64.81,182.3 65.1,182.74C65.41,183.21 65.71,183.72 66,184.25C66.31,184.81 66.61,185.41 66.9,186.02C67.21,186.66 67.51,187.33 67.81,188.01C68.12,188.72 68.41,189.46 68.71,190.22C69.02,191.01 69.32,191.83 69.62,192.66C69.93,193.53 70.23,194.42 70.52,195.34C70.83,196.3 71.12,197.28 71.42,198.29C71.73,199.34 72.03,200.42 72.33,201.52C72.64,202.66 72.93,203.84 73.23,205.03C73.54,206.27 73.84,207.53 74.14,208.82C74.45,210.15 74.74,211.5 75.04,212.87C75.35,214.28 75.65,215.72 75.95,217.16C76.25,218.62 76.51,220.28 76.85,221.58C77.12,222.64 77.39,223.64 77.75,224.41C78.02,224.99 78.35,225.39 78.66,225.85C78.95,226.28 79.25,226.69 79.56,227.08C79.85,227.45 80.16,227.8 80.47,228.11C80.76,228.41 81.06,228.69 81.37,228.92C81.66,229.14 81.96,229.33 82.27,229.48C82.56,229.62 82.87,229.74 83.18,229.8C83.48,229.86 83.78,229.88 84.08,229.87C84.38,229.86 84.69,229.8 84.99,229.73C85.29,229.66 85.59,229.55 85.89,229.44C86.19,229.33 86.49,229.2 86.79,229.09C87.09,228.98 87.4,228.85 87.7,228.76C88,228.67 88.3,228.58 88.6,228.53C88.9,228.48 89.21,228.45 89.51,228.46C89.81,228.47 90.11,228.52 90.41,228.6C90.72,228.68 91.02,228.81 91.32,228.96C91.63,229.12 91.92,229.32 92.22,229.53C92.53,229.74 92.82,229.99 93.12,230.23C93.43,230.48 93.73,230.76 94.03,231.02C94.33,231.28 94.63,231.54 94.93,231.8C95.23,232.06 95.54,232.33 95.84,232.6C96.14,232.87 96.44,233.15 96.74,233.44C97.05,233.74 97.34,234.07 97.64,234.4C97.95,234.75 98.25,235.11 98.55,235.48C98.85,235.85 99.14,236.25 99.45,236.6C99.75,236.93 100.03,237.33 100.36,237.54C100.64,237.72 100.97,237.89 101.26,237.86C101.57,237.83 101.87,237.57 102.16,237.34C102.48,237.08 102.77,236.7 103.07,236.37C103.37,236.04 103.66,235.68 103.97,235.38C104.26,235.09 104.57,234.81 104.88,234.58C105.17,234.37 105.47,234.19 105.78,234.04C106.07,233.9 106.38,233.81 106.68,233.72C106.98,233.63 107.29,233.61 107.59,233.51C107.9,233.41 108.21,233.3 108.49,233.1C108.81,232.88 109.12,232.54 109.4,232.19C109.72,231.79 110.01,231.28 110.3,230.78C110.61,230.24 110.92,229.66 111.21,229.06C111.52,228.43 111.82,227.78 112.11,227.11C112.42,226.41 112.71,225.68 113.01,224.94C113.32,224.16 113.62,223.37 113.92,222.55C114.23,221.7 114.52,220.82 114.82,219.92C115.13,218.99 115.43,218.03 115.73,217.06C116.04,216.05 116.33,215.02 116.63,213.97C116.93,212.89 117.23,211.78 117.53,210.67C117.84,209.53 118.14,208.37 118.44,207.2C118.74,206.01 119.04,204.81 119.34,203.61C119.64,202.4 119.95,201.18 120.25,199.97C120.55,198.77 120.85,197.56 121.15,196.37C121.45,195.2 121.74,194.02 122.05,192.88C122.35,191.77 122.65,190.67 122.96,189.6C123.26,188.58 123.55,187.57 123.86,186.61C124.15,185.7 124.46,184.81 124.77,183.97C125.06,183.19 125.36,182.43 125.67,181.72C125.96,181.06 126.27,180.44 126.58,179.86C126.87,179.32 127.17,178.82 127.48,178.34C127.77,177.88 128.08,177.47 128.38,177.04C128.68,176.62 129,176.22 129.29,175.78C129.6,175.31 129.9,174.84 130.19,174.31C130.51,173.71 130.81,173.06 131.1,172.36C131.42,171.58 131.71,170.72 132,169.85C132.31,168.92 132.6,167.92 132.9,166.93C133.21,165.92 133.51,164.88 133.81,163.86C134.11,162.86 134.4,161.84 134.71,160.87C135,159.95 135.3,159.03 135.62,158.18C135.91,157.4 136.2,156.63 136.52,155.95C136.8,155.35 137.09,154.75 137.42,154.29C137.7,153.9 138,153.51 138.33,153.32C138.61,153.16 138.94,153.06 139.23,153.11C139.55,153.17 139.86,153.43 140.14,153.72C140.48,154.08 140.76,154.62 141.04,155.18C141.38,155.85 141.67,156.66 141.95,157.5C142.28,158.47 142.56,159.55 142.85,160.67C143.17,161.92 143.46,163.27 143.75,164.66C144.07,166.17 144.37,167.78 144.66,169.42C144.97,171.17 145.27,172.99 145.56,174.85C145.87,176.8 146.17,178.82 146.47,180.86C146.78,182.97 147.07,185.12 147.37,187.29C147.67,189.5 147.97,191.75 148.27,193.99C148.57,196.24 148.88,198.51 149.18,200.75C149.48,202.97 149.77,205.2 150.08,207.38C150.38,209.5 150.68,211.62 150.99,213.66C151.28,215.61 151.58,217.54 151.89,219.38C152.18,221.1 152.47,222.79 152.79,224.37C153.08,225.81 153.38,227.21 153.7,228.48C153.98,229.59 154.26,230.69 154.6,231.57C154.88,232.28 155.12,233.15 155.51,233.41C155.77,233.58 156.15,233.62 156.41,233.46C156.84,233.19 157.06,232.07 157.32,231.12C157.7,229.75 157.93,227.72 158.22,225.95C158.53,224.09 158.81,222.1 159.12,220.21C159.42,218.37 159.72,216.52 160.03,214.75C160.32,213.07 160.62,211.41 160.93,209.84C161.22,208.38 161.52,206.96 161.84,205.63C162.13,204.43 162.42,203.26 162.74,202.21C163.02,201.29 163.31,200.41 163.64,199.66C163.92,199.03 164.2,198.42 164.55,198C164.82,197.67 165.13,197.34 165.45,197.25C165.74,197.17 166.08,197.25 166.36,197.4C166.7,197.59 166.98,198 167.26,198.41C167.6,198.91 167.88,199.56 168.16,200.23C168.49,201 168.71,202.11 169.07,202.79C169.34,203.3 169.64,203.71 169.97,204.04C170.25,204.32 170.59,204.43 170.88,204.69C171.2,204.99 171.49,205.36 171.78,205.76C172.1,206.2 172.39,206.7 172.68,207.22C173,207.79 173.3,208.41 173.59,209.05C173.9,209.75 174.2,210.49 174.49,211.26C174.8,212.08 175.11,212.94 175.4,213.83C175.71,214.77 176.01,215.76 176.3,216.77C176.61,217.84 176.92,218.96 177.21,220.1C177.52,221.3 177.82,222.54 178.11,223.81C178.42,225.14 178.71,226.52 179.01,227.92C179.32,229.38 179.62,230.87 179.92,232.39C180.23,233.97 180.52,235.59 180.82,237.23C181.13,238.91 181.43,240.64 181.73,242.34C182.03,244.02 182.33,245.68 182.63,247.36C182.93,249.04 183.23,250.71 183.53,252.41C183.83,254.14 184.14,255.89 184.44,257.65C184.74,259.43 185.04,261.22 185.34,263.01C185.64,264.79 185.95,266.59 186.25,268.36C186.55,270.1 186.84,271.84 187.15,273.52C187.44,275.14 187.74,276.76 188.05,278.28C188.34,279.68 188.63,281.09 188.96,282.31C189.24,283.35 189.49,284.43 189.86,285.18C190.13,285.73 190.41,286.34 190.77,286.5C191.04,286.62 191.4,286.54 191.67,286.39C192.01,286.2 192.3,285.73 192.58,285.31C192.91,284.81 193.19,284.18 193.48,283.55C193.8,282.84 194.09,282.05 194.38,281.26C194.69,280.42 194.99,279.53 195.29,278.66C195.59,277.77 195.88,276.85 196.19,275.98C196.49,275.14 196.79,274.29 197.1,273.5C197.39,272.76 197.68,272.04 198,271.39C198.29,270.8 198.58,270.23 198.9,269.73C199.19,269.28 199.49,268.86 199.81,268.51C200.1,268.2 200.39,267.9 200.71,267.7C201,267.52 201.32,267.47 201.62,267.35C201.92,267.23 202.22,267.11 202.52,266.98C202.82,266.85 203.11,266.63 203.42,266.59C203.72,266.55 204.04,266.6 204.33,266.7C204.64,266.81 204.94,267.04 205.23,267.25C205.54,267.47 205.83,267.79 206.14,268.01C206.43,268.22 206.73,268.46 207.04,268.56C207.33,268.66 207.65,268.64 207.95,268.64C208.25,268.64 208.55,268.56 208.85,268.55C209.15,268.54 209.45,268.54 209.75,268.6C210.06,268.66 210.37,268.76 210.66,268.9C210.97,269.05 211.27,269.25 211.56,269.47C211.87,269.7 212.17,269.98 212.47,270.27C212.78,270.57 213.07,270.9 213.37,271.22C213.67,271.54 213.96,271.89 214.27,272.2C214.57,272.5 214.86,272.82 215.18,273.06C215.47,273.28 215.77,273.49 216.08,273.6C216.37,273.71 216.69,273.76 216.99,273.74C217.29,273.72 217.6,273.63 217.89,273.49C218.2,273.34 218.5,273.12 218.79,272.87C219.11,272.59 219.41,272.23 219.7,271.85C220.02,271.43 220.31,270.92 220.6,270.42C220.91,269.89 221.21,269.32 221.51,268.77C221.81,268.22 222.1,267.66 222.41,267.13C222.71,266.62 223.01,266.13 223.32,265.67C223.61,265.24 223.91,264.82 224.22,264.45C224.51,264.1 224.81,263.78 225.12,263.49C225.41,263.22 225.72,263 226.03,262.78C226.33,262.57 226.63,262.4 226.93,262.21C227.23,262.02 227.54,261.85 227.84,261.64C228.15,261.42 228.45,261.17 228.74,260.89C229.05,260.59 229.35,260.26 229.64,259.88C229.96,259.46 230.25,258.95 230.55,258.45C230.86,257.93 231.14,257.36 231.45,256.84C231.75,256.34 232.05,255.84 232.36,255.38C232.65,254.95 232.96,254.56 233.26,254.16C233.56,253.77 233.87,253.42 234.16,253C234.47,252.55 234.77,252.05 235.07,251.56C235.38,251.05 235.66,250.49 235.97,249.98C236.27,249.48 236.57,248.97 236.88,248.51C237.17,248.07 237.47,247.66 237.78,247.27C238.07,246.9 238.37,246.56 238.68,246.24C238.97,245.94 239.28,245.66 239.59,245.4C239.89,245.15 240.19,244.92 240.49,244.69C240.79,244.47 241.1,244.27 241.4,244.05C241.7,243.83 242,243.61 242.3,243.37C242.61,243.12 242.92,242.86 243.21,242.56C243.52,242.24 243.82,241.88 244.11,241.48C244.43,241.04 244.73,240.54 245.01,240C245.33,239.38 245.64,238.69 245.92,237.94C246.25,237.08 246.54,236.12 246.82,235.1C247.14,233.93 247.44,232.64 247.73,231.31C248.05,229.83 248.34,228.23 248.63,226.61C248.94,224.89 249.23,223.07 249.53,221.26C249.84,219.39 250.14,217.46 250.44,215.55C250.74,213.61 251.04,211.65 251.34,209.71C251.64,207.77 251.95,205.83 252.25,203.91C252.55,202.03 252.85,200.16 253.15,198.32C253.45,196.53 253.74,194.75 254.05,193.02C254.35,191.34 254.65,189.69 254.96,188.08C255.26,186.53 255.55,185.01 255.86,183.54C256.16,182.13 256.46,180.76 256.77,179.42C257.06,178.14 257.36,176.89 257.67,175.68C257.96,174.53 258.27,173.42 258.58,172.34C258.87,171.32 259.17,170.33 259.48,169.39C259.77,168.51 260.06,167.66 260.38,166.86C260.67,166.13 260.97,165.43 261.29,164.79C261.58,164.21 261.87,163.67 262.19,163.19C262.48,162.77 262.78,162.37 263.1,162.06C263.38,161.79 263.68,161.54 264,161.39C264.29,161.25 264.6,161.16 264.9,161.14C265.2,161.12 265.52,161.17 265.81,161.27C266.12,161.37 266.42,161.56 266.71,161.76C267.02,161.98 267.33,162.25 267.62,162.55C267.93,162.87 268.23,163.25 268.52,163.64C268.83,164.06 269.13,164.51 269.42,164.99C269.73,165.5 270.04,166.04 270.33,166.61C270.64,167.22 270.94,167.87 271.23,168.55C271.54,169.28 271.85,170.04 272.14,170.84C272.45,171.7 272.75,172.61 273.04,173.56C273.35,174.58 273.66,175.66 273.95,176.77C274.26,177.96 274.56,179.21 274.85,180.5C275.16,181.87 275.46,183.31 275.75,184.77C276.06,186.31 276.36,187.91 276.66,189.53C276.97,191.21 277.26,192.95 277.56,194.69C277.87,196.48 278.17,198.31 278.47,200.13C278.77,201.96 279.07,203.83 279.37,205.65C279.67,207.44 279.96,209.26 280.27,210.96C280.56,212.54 280.84,214.19 281.18,215.51C281.45,216.56 281.63,218.01 282.08,218.29C282.33,218.45 282.73,218.36 282.99,218.15C283.43,217.78 283.61,216.49 283.89,215.52C284.22,214.34 284.5,212.94 284.79,211.56C285.11,210.04 285.41,208.42 285.7,206.78C286.01,205.04 286.3,203.24 286.6,201.41C286.91,199.51 287.21,197.57 287.51,195.61C287.82,193.61 288.11,191.57 288.41,189.53C288.71,187.46 289.02,185.38 289.32,183.29C289.62,181.19 289.92,179.08 290.22,176.97C290.52,174.86 290.82,172.75 291.12,170.63C291.42,168.49 291.73,166.34 292.03,164.18C292.33,161.99 292.63,159.77 292.93,157.56C293.23,155.35 293.53,153.11 293.84,150.94C294.14,148.83 294.43,146.72 294.74,144.7C295.03,142.8 295.33,140.93 295.64,139.16C295.93,137.52 296.23,135.93 296.55,134.45C296.84,133.12 297.12,131.84 297.45,130.68C297.73,129.67 298.03,128.7 298.36,127.87C298.64,127.17 298.92,126.5 299.26,126C299.53,125.61 299.83,125.23 300.16,125.06C300.44,124.92 300.78,124.88 301.07,124.95C301.39,125.03 301.69,125.31 301.97,125.59C302.3,125.92 302.59,126.37 302.88,126.83C303.2,127.34 303.49,127.93 303.78,128.51C304.09,129.13 304.38,129.79 304.68,130.45C304.98,131.12 305.29,131.81 305.59,132.49C305.89,133.17 306.19,133.85 306.49,134.52C306.79,135.19 307.1,135.85 307.4,136.52C307.7,137.2 308,137.87 308.3,138.56C308.61,139.27 308.92,139.99 309.21,140.74C309.52,141.53 309.82,142.34 310.11,143.19C310.42,144.09 310.72,145.02 311.01,145.99C311.32,147.03 311.63,148.12 311.92,149.24C312.23,150.44 312.53,151.68 312.82,152.96C313.13,154.33 313.44,155.74 313.73,157.2C314.04,158.74 314.34,160.33 314.63,161.96C314.94,163.67 315.23,165.42 315.53,167.21C315.84,169.08 316.14,171 316.44,172.95C316.75,174.97 317.04,177.03 317.34,179.12C317.65,181.27 317.95,183.47 318.25,185.68C318.56,187.95 318.85,190.25 319.15,192.56C319.45,194.91 319.75,197.28 320.05,199.66C320.35,202.06 320.66,204.49 320.96,206.91C321.26,209.33 321.56,211.77 321.86,214.19C322.16,216.6 322.47,219.01 322.77,221.4C323.07,223.77 323.37,226.13 323.67,228.46C323.97,230.75 324.27,233.02 324.58,235.25C324.88,237.41 325.17,239.54 325.48,241.61C325.77,243.58 326.07,245.52 326.38,247.36C326.67,249.07 326.97,250.73 327.29,252.29C327.58,253.72 327.87,255.07 328.19,256.37C328.48,257.56 328.79,258.69 329.1,259.79C329.39,260.81 329.69,261.79 330,262.75C330.29,263.66 330.59,264.54 330.9,265.39C331.19,266.19 331.48,267 331.81,267.69C332.09,268.3 332.37,268.9 332.71,269.34C332.99,269.7 333.31,269.97 333.62,270.22C333.91,270.45 334.22,270.61 334.52,270.81C334.82,271.01 335.13,271.21 335.42,271.44C335.73,271.68 336.04,271.95 336.33,272.25C336.64,272.56 336.94,272.92 337.23,273.28C337.54,273.66 337.84,274.07 338.14,274.5C338.45,274.94 338.74,275.42 339.04,275.89C339.35,276.38 339.65,276.88 339.95,277.38C340.25,277.88 340.55,278.38 340.85,278.87C341.15,279.34 341.44,279.83 341.75,280.26C342.04,280.66 342.34,281.06 342.66,281.39C342.95,281.68 343.24,281.95 343.56,282.15C343.85,282.33 344.16,282.47 344.47,282.57C344.76,282.66 345.07,282.7 345.37,282.72C345.67,282.74 345.97,282.74 346.27,282.72C346.57,282.7 346.88,282.66 347.18,282.6C347.48,282.53 347.79,282.48 348.08,282.33C348.4,282.16 348.7,281.87 348.99,281.57C349.31,281.23 349.59,280.79 349.89,280.39C350.19,279.99 350.48,279.56 350.79,279.16C351.09,278.78 351.39,278.4 351.7,278.05C351.99,277.72 352.29,277.4 352.6,277.12C352.89,276.85 353.2,276.61 353.51,276.4C353.8,276.2 354.1,276.02 354.41,275.86C354.71,275.7 355.02,275.57 355.32,275.44C355.62,275.31 355.92,275.21 356.22,275.1C356.52,274.99 356.82,274.89 357.12,274.8C357.42,274.7 357.73,274.61 358.03,274.53C358.33,274.45 358.63,274.37 358.93,274.3C359.23,274.23 359.54,274.17 359.84,274.11C360.14,274.05 360.44,274.02 360.74,273.92C361.05,273.82 361.37,273.74 361.64,273.52C361.98,273.24 362.26,272.71 362.55,272.25C362.87,271.75 363.15,271.19 363.45,270.64C363.76,270.07 364.07,269.49 364.36,268.88C364.67,268.23 364.97,267.57 365.26,266.85C365.57,266.07 365.87,265.23 366.16,264.37C366.47,263.45 366.77,262.47 367.07,261.48C367.38,260.45 367.67,259.39 367.97,258.31C368.28,257.19 368.58,256.05 368.88,254.89C369.19,253.69 369.49,252.47 369.78,251.22C370.09,249.92 370.38,248.6 370.68,247.25C370.99,245.85 371.29,244.43 371.59,242.98C371.9,241.48 372.19,239.95 372.49,238.41C372.8,236.83 373.1,235.21 373.4,233.59C373.7,231.95 374,230.28 374.3,228.62C374.6,226.95 374.91,225.27 375.21,223.6C375.51,221.94 375.81,220.28 376.11,218.64C376.41,217.03 376.7,215.42 377.01,213.85C377.31,212.32 377.61,210.79 377.92,209.31C378.22,207.88 378.51,206.48 378.82,205.11C379.12,203.8 379.42,202.51 379.73,201.28C380.02,200.12 380.32,198.98 380.63,197.9C380.92,196.89 381.21,195.9 381.53,194.98C381.82,194.13 382.12,193.31 382.44,192.56C382.73,191.88 383.02,191.22 383.34,190.64C383.63,190.12 383.93,189.63 384.25,189.21C384.53,188.84 384.83,188.5 385.15,188.25C385.43,188.03 385.74,187.85 386.05,187.75C386.34,187.66 386.66,187.62 386.96,187.65C387.26,187.68 387.57,187.78 387.86,187.91C388.17,188.04 388.48,188.24 388.77,188.45C389.08,188.67 389.37,188.94 389.67,189.21C389.98,189.49 390.28,189.78 390.58,190.09C390.89,190.4 391.18,190.73 391.48,191.07C391.78,191.42 392.09,191.78 392.38,192.16C392.69,192.57 393,192.99 393.29,193.45C393.6,193.94 393.9,194.45 394.19,195C394.5,195.59 394.81,196.21 395.1,196.87C395.41,197.58 395.71,198.33 396,199.11C396.31,199.95 396.61,200.84 396.9,201.75C397.21,202.72 397.52,203.74 397.81,204.79C398.12,205.91 398.42,207.07 398.71,208.26C399.02,209.52 399.32,210.81 399.62,212.14C399.93,213.53 400.23,214.95 400.52,216.41C400.83,217.93 401.12,219.49 401.42,221.07C401.73,222.7 402.03,224.37 402.33,226.06C402.64,227.8 402.93,229.57 403.23,231.36C403.54,233.19 403.84,235.04 404.14,236.91C404.44,238.81 404.74,240.73 405.04,242.65C405.34,244.59 405.65,246.55 405.95,248.51C406.25,250.48 406.55,252.46 406.85,254.43C407.15,256.39 407.45,258.36 407.75,260.3C408.05,262.2 408.34,264.18 408.66,265.93C408.94,267.47 409.21,269.01 409.56,270.26C409.83,271.25 410.16,272.04 410.47,272.88C410.76,273.66 411.07,274.39 411.37,275.13C411.67,275.84 411.96,276.54 412.27,277.23C412.57,277.9 412.87,278.56 413.18,279.21C413.48,279.84 413.77,280.46 414.08,281.06C414.38,281.64 414.68,282.22 414.99,282.77C415.29,283.3 415.58,283.81 415.89,284.3C416.18,284.77 416.48,285.22 416.79,285.64C417.08,286.03 417.38,286.42 417.7,286.73C417.99,287.01 418.28,287.28 418.6,287.46C418.89,287.62 419.2,287.72 419.51,287.78C419.81,287.84 420.11,287.82 420.41,287.82C420.71,287.82 421.02,287.79 421.32,287.77C421.62,287.75 421.92,287.72 422.22,287.71C422.52,287.7 422.82,287.7 423.12,287.71C423.42,287.72 423.73,287.76 424.03,287.8C424.33,287.84 424.63,287.96 424.93,287.97C425.23,287.98 425.58,288.07 425.84,287.88C426.25,287.57 426.45,286.48 426.74,285.73C427.05,284.92 427.33,284.01 427.64,283.17C427.94,282.35 428.24,281.53 428.55,280.74C428.85,279.98 429.14,279.23 429.45,278.52C429.74,277.84 430.05,277.17 430.36,276.55C430.65,275.97 430.95,275.4 431.26,274.88C431.55,274.4 431.84,273.94 432.16,273.53C432.45,273.16 432.75,272.81 433.07,272.52C433.36,272.26 433.66,272.03 433.97,271.87C434.26,271.73 434.57,271.62 434.88,271.59C435.18,271.56 435.49,271.59 435.78,271.67C436.09,271.76 436.39,271.92 436.68,272.11C437,272.32 437.3,272.6 437.59,272.9C437.9,273.22 438.2,273.6 438.49,273.99C438.8,274.41 439.11,274.88 439.4,275.36C439.71,275.87 440,276.4 440.3,276.95C440.61,277.52 440.91,278.11 441.21,278.71C441.51,279.32 441.81,279.95 442.11,280.57C442.41,281.19 442.7,281.83 443.01,282.44C443.31,283.04 443.61,283.64 443.92,284.19C444.21,284.69 444.49,285.23 444.82,285.61C445.1,285.93 445.41,286.25 445.73,286.36C446.01,286.45 446.34,286.41 446.63,286.32C446.94,286.22 447.24,285.98 447.53,285.77C447.84,285.55 448.14,285.27 448.44,285.02C448.74,284.77 449.03,284.5 449.34,284.26C449.64,284.03 449.94,283.81 450.25,283.62C450.54,283.44 450.84,283.27 451.15,283.16C451.44,283.05 451.75,282.98 452.05,282.96C452.35,282.94 452.66,282.96 452.96,283.03C453.27,283.1 453.57,283.24 453.86,283.4C454.17,283.58 454.48,283.82 454.77,284.08C455.08,284.36 455.38,284.7 455.67,285.05C455.98,285.43 456.29,285.85 456.58,286.29C456.89,286.75 457.19,287.25 457.48,287.76C457.79,288.29 458.08,288.85 458.38,289.41C458.69,289.99 458.99,290.59 459.29,291.18C459.59,291.78 459.88,292.39 460.19,292.98C460.49,293.55 460.79,294.14 461.1,294.67Q461.39,295.16 462,296.04" style="vector-effect: non-scaling-stroke; fill: none; stroke: rgb(0, 176, 246); stroke-opacity: 1; stroke-width: 2px; opacity: 1;"/></g><g class="points"/><g class="text"/></g><g class="trace scatter trace8a6a23" style="stroke-miterlimit: 2; opacity: 1;"><g class="fills"/><g class="errorbars"/><g class="lines"><path class="js-line" d="M0,216.42Q0.63,214.8 0.9,213.78C1.26,212.42 1.53,210.67 1.81,208.95C2.13,206.98 2.42,204.81 2.71,202.61C3.02,200.24 3.33,197.74 3.62,195.21C3.93,192.56 4.22,189.82 4.52,187.06C4.82,184.21 5.12,181.3 5.42,178.37C5.72,175.38 6.03,172.35 6.33,169.31C6.63,166.23 6.93,163.12 7.23,160.01C7.53,156.88 7.84,153.73 8.14,150.58C8.44,147.43 8.74,144.27 9.04,141.12C9.34,137.99 9.65,134.85 9.95,131.74C10.25,128.65 10.55,125.57 10.85,122.51C11.15,119.5 11.45,116.49 11.75,113.53C12.05,110.62 12.35,107.73 12.66,104.88C12.96,102.09 13.25,99.33 13.56,96.62C13.86,93.99 14.16,91.39 14.47,88.84C14.77,86.38 15.06,83.95 15.37,81.59C15.66,79.33 15.96,77.1 16.27,74.95C16.56,72.91 16.87,70.91 17.18,68.98C17.47,67.17 17.77,65.4 18.08,63.71C18.37,62.15 18.67,60.63 18.99,59.21C19.28,57.91 19.57,56.65 19.89,55.5C20.17,54.48 20.46,53.49 20.79,52.63C21.07,51.89 21.36,51.18 21.7,50.62C21.98,50.17 22.26,49.7 22.6,49.48C22.88,49.3 23.22,49.19 23.51,49.24C23.82,49.3 24.14,49.58 24.41,49.88C24.76,50.26 25.04,50.84 25.32,51.42C25.65,52.12 25.94,52.95 26.22,53.82C26.54,54.81 26.83,55.92 27.12,57.07C27.44,58.34 27.74,59.72 28.03,61.13C28.35,62.67 28.64,64.29 28.93,65.95C29.24,67.73 29.55,69.58 29.84,71.48C30.15,73.48 30.45,75.55 30.74,77.65C31.05,79.84 31.34,82.09 31.64,84.36C31.95,86.7 32.25,89.1 32.55,91.51C32.86,93.97 33.15,96.48 33.45,98.98C33.75,101.51 34.06,104.08 34.36,106.63C34.66,109.18 34.96,111.75 35.26,114.3C35.56,116.83 35.86,119.36 36.16,121.86C36.46,124.32 36.77,126.77 37.07,129.19C37.37,131.56 37.66,133.9 37.97,136.21C38.27,138.46 38.57,140.68 38.88,142.87C39.18,144.99 39.48,147.09 39.78,149.15C40.08,151.16 40.37,153.14 40.68,155.08C40.98,156.96 41.28,158.82 41.59,160.64C41.89,162.41 42.18,164.16 42.49,165.87C42.79,167.53 43.09,169.17 43.4,170.77C43.7,172.32 43.99,173.85 44.3,175.35C44.6,176.8 44.9,178.22 45.21,179.61C45.51,180.94 45.8,182.25 46.11,183.52C46.4,184.73 46.7,185.91 47.01,187.05C47.3,188.12 47.61,189.16 47.92,190.15C48.21,191.07 48.5,191.96 48.82,192.79C49.11,193.55 49.41,194.28 49.73,194.94C50.02,195.54 50.31,196.1 50.63,196.6C50.91,197.04 51.21,197.46 51.53,197.8C51.82,198.11 52.12,198.37 52.44,198.59C52.73,198.79 53.03,198.94 53.34,199.06C53.64,199.17 53.95,199.23 54.25,199.29C54.55,199.34 54.85,199.36 55.15,199.39C55.45,199.42 55.75,199.43 56.05,199.45C56.35,199.48 56.66,199.5 56.96,199.54C57.26,199.59 57.56,199.64 57.86,199.72C58.16,199.8 58.47,199.89 58.77,200.01C59.07,200.13 59.37,200.27 59.67,200.42C59.98,200.57 60.28,200.74 60.58,200.92C60.88,201.1 61.18,201.29 61.48,201.49C61.78,201.69 62.08,201.9 62.38,202.11C62.68,202.32 62.99,202.55 63.29,202.77C63.59,202.99 63.89,203.22 64.19,203.44C64.49,203.66 64.8,203.89 65.1,204.11C65.4,204.33 65.7,204.55 66,204.78C66.3,205.01 66.6,205.23 66.9,205.47C67.2,205.71 67.51,205.95 67.81,206.21C68.12,206.47 68.41,206.75 68.71,207.04C69.02,207.34 69.32,207.65 69.62,207.98C69.93,208.32 70.23,208.68 70.52,209.05C70.83,209.44 71.12,209.85 71.42,210.27C71.73,210.71 72.03,211.16 72.33,211.64C72.64,212.14 72.93,212.66 73.23,213.19C73.54,213.74 73.84,214.32 74.14,214.9C74.45,215.5 74.74,216.12 75.04,216.74C75.35,217.38 75.65,218.04 75.95,218.7C76.25,219.37 76.55,220.04 76.85,220.72C77.15,221.4 77.45,222.09 77.75,222.77C78.05,223.44 78.36,224.11 78.66,224.77C78.96,225.42 79.25,226.06 79.56,226.68C79.86,227.28 80.16,227.87 80.47,228.44C80.76,228.98 81.06,229.51 81.37,230C81.66,230.46 81.96,230.91 82.27,231.31C82.56,231.68 82.86,232.03 83.18,232.33C83.47,232.6 83.77,232.85 84.08,233.03C84.37,233.2 84.68,233.34 84.99,233.41C85.29,233.48 85.59,233.49 85.89,233.46C86.19,233.43 86.5,233.33 86.79,233.21C87.1,233.09 87.4,232.91 87.7,232.73C88.01,232.54 88.3,232.32 88.6,232.09C88.91,231.86 89.21,231.6 89.51,231.35C89.81,231.1 90.11,230.84 90.41,230.59C90.71,230.34 91.01,230.09 91.32,229.86C91.62,229.63 91.92,229.41 92.22,229.2C92.52,229 92.82,228.8 93.12,228.63C93.42,228.46 93.72,228.3 94.03,228.16C94.33,228.03 94.63,227.92 94.93,227.82C95.23,227.72 95.54,227.64 95.84,227.58C96.14,227.52 96.44,227.47 96.74,227.45C97.04,227.43 97.34,227.43 97.64,227.44C97.94,227.45 98.25,227.48 98.55,227.52C98.85,227.57 99.15,227.63 99.45,227.71C99.75,227.79 100.06,227.88 100.36,227.98C100.66,228.09 100.96,228.21 101.26,228.34C101.56,228.47 101.86,228.62 102.16,228.77C102.46,228.92 102.77,229.09 103.07,229.26C103.37,229.43 103.67,229.61 103.97,229.78C104.27,229.96 104.58,230.13 104.88,230.31C105.18,230.49 105.48,230.67 105.78,230.84C106.08,231.01 106.38,231.18 106.68,231.34C106.98,231.49 107.29,231.64 107.59,231.77C107.89,231.9 108.19,232.02 108.49,232.12C108.79,232.21 109.1,232.29 109.4,232.34C109.7,232.39 110,232.42 110.3,232.42C110.6,232.42 110.91,232.39 111.21,232.32C111.51,232.25 111.82,232.14 112.11,232C112.42,231.85 112.72,231.66 113.01,231.44C113.32,231.2 113.63,230.93 113.92,230.62C114.23,230.29 114.53,229.91 114.82,229.52C115.13,229.1 115.44,228.63 115.73,228.15C116.04,227.63 116.34,227.08 116.63,226.5C116.94,225.89 117.24,225.24 117.53,224.58C117.84,223.88 118.14,223.15 118.44,222.4C118.75,221.62 119.04,220.8 119.34,219.97C119.65,219.11 119.95,218.22 120.25,217.32C120.56,216.39 120.85,215.43 121.15,214.47C121.45,213.48 121.75,212.48 122.05,211.47C122.35,210.45 122.66,209.41 122.96,208.37C123.26,207.32 123.56,206.26 123.86,205.21C124.16,204.15 124.47,203.1 124.77,202.04C125.07,200.98 125.37,199.92 125.67,198.87C125.97,197.82 126.28,196.77 126.58,195.73C126.88,194.69 127.18,193.66 127.48,192.63C127.78,191.61 128.08,190.6 128.38,189.6C128.68,188.61 128.98,187.63 129.29,186.66C129.59,185.72 129.88,184.79 130.19,183.88C130.49,183 130.79,182.14 131.1,181.3C131.4,180.5 131.69,179.72 132,178.97C132.29,178.27 132.59,177.58 132.9,176.94C133.19,176.34 133.49,175.76 133.81,175.23C134.1,174.75 134.39,174.29 134.71,173.89C135,173.53 135.3,173.19 135.62,172.93C135.91,172.7 136.21,172.48 136.52,172.37C136.81,172.26 137.12,172.22 137.42,172.24C137.73,172.26 138.04,172.37 138.33,172.52C138.65,172.69 138.94,172.95 139.23,173.23C139.55,173.55 139.85,173.94 140.14,174.36C140.46,174.82 140.75,175.34 141.04,175.89C141.36,176.49 141.66,177.14 141.95,177.81C142.26,178.53 142.56,179.3 142.85,180.09C143.16,180.93 143.46,181.81 143.75,182.7C144.06,183.64 144.36,184.61 144.66,185.59C144.97,186.61 145.26,187.66 145.56,188.71C145.87,189.79 146.17,190.89 146.47,192C146.77,193.12 147.07,194.26 147.37,195.39C147.67,196.52 147.97,197.66 148.27,198.78C148.57,199.89 148.87,201 149.18,202.08C149.48,203.12 149.77,204.16 150.08,205.15C150.37,206.08 150.67,207.01 150.99,207.85C151.28,208.61 151.56,209.36 151.89,210C152.17,210.55 152.45,211.08 152.79,211.46C153.07,211.77 153.38,212.06 153.7,212.18C153.98,212.29 154.31,212.29 154.6,212.23C154.91,212.16 155.22,211.96 155.51,211.76C155.83,211.54 156.12,211.24 156.41,210.95C156.72,210.64 157.02,210.28 157.32,209.93C157.63,209.57 157.92,209.19 158.22,208.82C158.52,208.45 158.82,208.08 159.12,207.73C159.42,207.38 159.72,207.04 160.03,206.72C160.32,206.42 160.62,206.12 160.93,205.87C161.22,205.63 161.53,205.4 161.84,205.22C162.13,205.05 162.43,204.9 162.74,204.81C163.03,204.72 163.34,204.67 163.64,204.67C163.94,204.67 164.26,204.73 164.55,204.83C164.86,204.94 165.16,205.1 165.45,205.3C165.77,205.52 166.07,205.79 166.36,206.09C166.68,206.41 166.97,206.79 167.26,207.19C167.57,207.63 167.87,208.12 168.16,208.62C168.47,209.16 168.78,209.74 169.07,210.34C169.38,210.98 169.67,211.66 169.97,212.34C170.28,213.05 170.58,213.8 170.88,214.54C171.18,215.29 171.47,216.1 171.78,216.81C172.07,217.47 172.37,218.08 172.68,218.67C172.97,219.23 173.29,219.71 173.59,220.26C173.9,220.82 174.19,221.41 174.49,222C174.8,222.6 175.1,223.21 175.4,223.84C175.71,224.49 176.01,225.15 176.3,225.85C176.61,226.59 176.92,227.36 177.21,228.15C177.52,228.98 177.82,229.85 178.11,230.73C178.42,231.65 178.71,232.61 179.01,233.58C179.32,234.59 179.62,235.62 179.92,236.67C180.23,237.75 180.52,238.85 180.82,239.96C181.12,241.09 181.43,242.25 181.73,243.4C182.03,244.57 182.33,245.75 182.63,246.93C182.93,248.12 183.23,249.32 183.53,250.52C183.83,251.71 184.14,252.91 184.44,254.1C184.74,255.28 185.04,256.46 185.34,257.62C185.64,258.77 185.94,259.91 186.25,261.03C186.55,262.11 186.84,263.19 187.15,264.22C187.44,265.2 187.73,266.17 188.05,267.06C188.34,267.88 188.63,268.68 188.96,269.38C189.24,269.99 189.53,270.58 189.86,271.04C190.14,271.43 190.44,271.79 190.77,272.01C191.05,272.19 191.37,272.31 191.67,272.33C191.97,272.35 192.29,272.24 192.58,272.11C192.9,271.96 193.19,271.71 193.48,271.45C193.79,271.17 194.09,270.83 194.38,270.49C194.69,270.13 194.99,269.72 195.29,269.32C195.59,268.91 195.89,268.49 196.19,268.07C196.49,267.65 196.79,267.21 197.1,266.8C197.4,266.39 197.69,265.99 198,265.61C198.29,265.25 198.59,264.9 198.9,264.59C199.19,264.3 199.5,264.02 199.81,263.8C200.1,263.6 200.4,263.41 200.71,263.3C201,263.19 201.32,263.13 201.62,263.12C201.92,263.11 202.22,263.15 202.52,263.22C202.82,263.29 203.13,263.4 203.42,263.54C203.73,263.69 204.04,263.87 204.33,264.1C204.65,264.35 204.94,264.65 205.23,264.99C205.55,265.36 205.85,265.79 206.14,266.25C206.46,266.75 206.75,267.3 207.04,267.88C207.35,268.5 207.66,269.18 207.95,269.87C208.26,270.61 208.55,271.39 208.85,272.18C209.15,272.99 209.45,273.83 209.75,274.66C210.05,275.48 210.36,276.3 210.66,277.13C210.96,277.97 211.26,278.8 211.56,279.65C211.86,280.51 212.17,281.39 212.47,282.27C212.77,283.15 213.07,284.04 213.37,284.91C213.67,285.77 213.96,286.65 214.27,287.48C214.57,288.28 214.86,289.08 215.18,289.82C215.47,290.5 215.75,291.18 216.08,291.75C216.36,292.25 216.65,292.74 216.99,293.08C217.27,293.36 217.57,293.62 217.89,293.7C218.18,293.77 218.51,293.71 218.79,293.59C219.11,293.45 219.42,293.14 219.7,292.83C220.03,292.46 220.32,291.98 220.6,291.48C220.92,290.92 221.22,290.26 221.51,289.6C221.83,288.88 222.12,288.1 222.41,287.31C222.72,286.49 223.02,285.62 223.32,284.76C223.62,283.9 223.92,283.01 224.22,282.15C224.52,281.3 224.81,280.44 225.12,279.62C225.42,278.82 225.72,278.04 226.03,277.28C226.32,276.56 226.62,275.85 226.93,275.18C227.22,274.55 227.53,273.95 227.84,273.38C228.13,272.85 228.43,272.34 228.74,271.88C229.03,271.45 229.33,271.06 229.64,270.7C229.93,270.37 230.24,270.07 230.55,269.8C230.84,269.54 231.14,269.3 231.45,269.1C231.75,268.9 232.05,268.72 232.36,268.59C232.65,268.47 232.96,268.38 233.26,268.32C233.56,268.26 233.86,268.23 234.16,268.22C234.46,268.21 234.77,268.2 235.07,268.27C235.38,268.34 235.68,268.49 235.97,268.64C236.28,268.8 236.59,269.01 236.88,269.23C237.19,269.46 237.49,269.72 237.78,270.02C238.09,270.35 238.39,270.73 238.68,271.12C238.99,271.54 239.29,272 239.59,272.46C239.9,272.94 240.18,273.47 240.49,273.93C240.78,274.35 241.08,274.76 241.4,275.11C241.69,275.43 241.99,275.71 242.3,275.96C242.59,276.2 242.9,276.43 243.21,276.58C243.5,276.72 243.81,276.82 244.11,276.85C244.41,276.88 244.72,276.87 245.01,276.79C245.32,276.71 245.64,276.56 245.92,276.34C246.25,276.08 246.55,275.72 246.82,275.26C247.18,274.63 247.45,273.72 247.73,272.83C248.06,271.78 248.34,270.54 248.63,269.32C248.94,268 249.23,266.59 249.53,265.18C249.84,263.71 250.14,262.18 250.44,260.65C250.75,259.08 251.04,257.49 251.34,255.89C251.64,254.28 251.95,252.65 252.25,251.03C252.55,249.42 252.85,247.8 253.15,246.2C253.45,244.61 253.75,243.03 254.05,241.47C254.35,239.94 254.65,238.41 254.96,236.91C255.26,235.45 255.55,234.01 255.86,232.6C256.16,231.23 256.46,229.89 256.77,228.57C257.07,227.3 257.36,226.05 257.67,224.84C257.97,223.68 258.27,222.54 258.58,221.44C258.87,220.39 259.17,219.36 259.48,218.37C259.77,217.43 260.07,216.51 260.38,215.63C260.67,214.8 260.98,214 261.29,213.24C261.58,212.53 261.87,211.84 262.19,211.2C262.48,210.62 262.78,210.06 263.1,209.56C263.39,209.11 263.68,208.68 264,208.33C264.28,208.02 264.58,207.74 264.9,207.55C265.19,207.38 265.5,207.24 265.81,207.2C266.11,207.16 266.42,207.21 266.71,207.3C267.02,207.4 267.33,207.59 267.62,207.8C267.94,208.03 268.23,208.34 268.52,208.66C268.83,209 269.13,209.4 269.42,209.8C269.73,210.22 270.03,210.68 270.33,211.12C270.63,211.57 270.92,212.04 271.23,212.48C271.53,212.91 271.83,213.34 272.14,213.75C272.44,214.15 272.74,214.53 273.04,214.9C273.34,215.27 273.65,215.62 273.95,215.97C274.25,216.32 274.55,216.67 274.85,217.01C275.15,217.35 275.45,217.68 275.75,218C276.05,218.31 276.35,218.62 276.66,218.91C276.96,219.18 277.25,219.46 277.56,219.68C277.85,219.89 278.16,220.09 278.47,220.21C278.76,220.32 279.07,220.42 279.37,220.4C279.67,220.38 279.99,220.26 280.27,220.07C280.61,219.84 280.91,219.44 281.18,219C281.53,218.44 281.81,217.72 282.08,216.94C282.42,215.96 282.7,214.74 282.99,213.53C283.31,212.16 283.6,210.63 283.89,209.11C284.2,207.49 284.49,205.81 284.79,204.1C285.1,202.32 285.4,200.48 285.7,198.63C286.01,196.72 286.3,194.76 286.6,192.8C286.9,190.79 287.21,188.76 287.51,186.71C287.81,184.64 288.11,182.53 288.41,180.44C288.71,178.34 289.02,176.22 289.32,174.11C289.62,172 289.92,169.89 290.22,167.79C290.52,165.71 290.82,163.63 291.12,161.58C291.42,159.56 291.72,157.54 292.03,155.56C292.33,153.62 292.62,151.7 292.93,149.82C293.23,147.99 293.53,146.18 293.84,144.42C294.14,142.72 294.43,141.05 294.74,139.42C295.03,137.87 295.33,136.35 295.64,134.88C295.93,133.5 296.24,132.15 296.55,130.86C296.84,129.66 297.13,128.49 297.45,127.39C297.74,126.38 298.04,125.41 298.36,124.52C298.65,123.72 298.94,122.94 299.26,122.26C299.54,121.67 299.83,121.1 300.16,120.65C300.44,120.27 300.74,119.9 301.07,119.69C301.35,119.51 301.67,119.38 301.97,119.39C302.27,119.4 302.6,119.56 302.88,119.76C303.21,119.99 303.5,120.38 303.78,120.78C304.11,121.25 304.4,121.83 304.68,122.44C305,123.13 305.3,123.91 305.59,124.71C305.91,125.6 306.2,126.56 306.49,127.55C306.8,128.63 307.11,129.77 307.4,130.94C307.71,132.19 308.01,133.5 308.3,134.83C308.61,136.23 308.91,137.68 309.21,139.16C309.52,140.7 309.82,142.28 310.11,143.88C310.42,145.54 310.71,147.23 311.01,148.95C311.32,150.72 311.62,152.51 311.92,154.33C312.23,156.19 312.52,158.07 312.82,159.97C313.12,161.91 313.43,163.87 313.73,165.84C314.03,167.84 314.33,169.86 314.63,171.89C314.93,173.94 315.23,176.02 315.53,178.09C315.83,180.18 316.14,182.28 316.44,184.39C316.74,186.51 317.04,188.64 317.34,190.77C317.64,192.91 317.95,195.06 318.25,197.2C318.55,199.35 318.85,201.49 319.15,203.64C319.45,205.79 319.75,207.94 320.05,210.08C320.35,212.22 320.66,214.37 320.96,216.5C321.26,218.62 321.56,220.75 321.86,222.86C322.16,224.96 322.47,227.06 322.77,229.15C323.07,231.22 323.37,233.28 323.67,235.32C323.97,237.34 324.28,239.35 324.58,241.34C324.88,243.29 325.18,245.24 325.48,247.15C325.78,249.01 326.07,250.86 326.38,252.65C326.68,254.37 326.98,256.06 327.29,257.68C327.58,259.19 327.87,260.67 328.19,262.05C328.48,263.31 328.78,264.54 329.1,265.65C329.38,266.63 329.64,267.67 330,268.39C330.27,268.92 330.55,269.38 330.9,269.66C331.17,269.88 331.51,270.04 331.81,270.04C332.11,270.04 332.42,269.84 332.71,269.66C333.03,269.46 333.32,269.15 333.62,268.89C333.92,268.63 334.21,268.34 334.52,268.1C334.81,267.87 335.11,267.64 335.42,267.46C335.72,267.29 336.02,267.13 336.33,267.03C336.62,266.93 336.93,266.87 337.23,266.86C337.53,266.85 337.84,266.87 338.14,266.94C338.45,267.01 338.75,267.13 339.04,267.27C339.35,267.42 339.66,267.62 339.95,267.84C340.26,268.07 340.56,268.35 340.85,268.64C341.16,268.94 341.46,269.28 341.75,269.63C342.06,270 342.36,270.39 342.66,270.8C342.97,271.22 343.26,271.66 343.56,272.12C343.87,272.59 344.17,273.09 344.47,273.59C344.78,274.11 345.07,274.65 345.37,275.19C345.67,275.75 345.97,276.33 346.27,276.9C346.57,277.48 346.88,278.07 347.18,278.65C347.48,279.22 347.77,279.8 348.08,280.35C348.38,280.89 348.68,281.41 348.99,281.92C349.29,282.41 349.59,282.87 349.89,283.34C350.19,283.8 350.49,284.25 350.79,284.7C351.09,285.15 351.4,285.61 351.7,286.06C352,286.52 352.3,286.98 352.6,287.43C352.9,287.87 353.2,288.31 353.51,288.72C353.8,289.11 354.1,289.48 354.41,289.82C354.7,290.14 355.01,290.45 355.32,290.71C355.61,290.96 355.91,291.18 356.22,291.36C356.51,291.53 356.81,291.66 357.12,291.76C357.42,291.85 357.73,291.91 358.03,291.94C358.33,291.97 358.63,291.94 358.93,291.92C359.23,291.9 359.54,291.86 359.84,291.82C360.14,291.78 360.46,291.8 360.74,291.66C361.07,291.5 361.36,291.14 361.64,290.81C361.97,290.43 362.26,289.95 362.55,289.46C362.87,288.91 363.15,288.25 363.45,287.64C363.75,287.02 364.06,286.39 364.36,285.75C364.66,285.1 364.96,284.45 365.26,283.78C365.56,283.1 365.86,282.42 366.16,281.72C366.47,281.01 366.77,280.29 367.07,279.55C367.38,278.8 367.67,278.03 367.97,277.25C368.28,276.45 368.58,275.64 368.88,274.81C369.19,273.95 369.49,273.07 369.78,272.17C370.09,271.24 370.38,270.29 370.68,269.31C370.99,268.29 371.29,267.25 371.59,266.18C371.9,265.07 372.19,263.93 372.49,262.77C372.8,261.57 373.1,260.34 373.4,259.09C373.71,257.81 374,256.5 374.3,255.17C374.61,253.81 374.91,252.42 375.21,251.03C375.51,249.61 375.81,248.17 376.11,246.72C376.41,245.25 376.71,243.77 377.01,242.29C377.31,240.8 377.62,239.31 377.92,237.82C378.22,236.34 378.52,234.84 378.82,233.37C379.12,231.91 379.43,230.46 379.73,229.02C380.03,227.61 380.33,226.2 380.63,224.82C380.93,223.47 381.22,222.14 381.53,220.83C381.83,219.56 382.13,218.31 382.44,217.09C382.74,215.92 383.03,214.76 383.34,213.64C383.63,212.57 383.94,211.53 384.25,210.53C384.54,209.58 384.84,208.65 385.15,207.77C385.44,206.95 385.74,206.15 386.05,205.41C386.34,204.72 386.64,204.06 386.96,203.46C387.25,202.91 387.54,202.39 387.86,201.94C388.15,201.54 388.45,201.16 388.77,200.87C389.05,200.61 389.35,200.38 389.67,200.26C389.96,200.15 390.28,200.09 390.58,200.12C390.88,200.15 391.19,200.27 391.48,200.44C391.8,200.63 392.1,200.91 392.38,201.22C392.7,201.57 393,202.01 393.29,202.47C393.61,202.98 393.9,203.57 394.19,204.17C394.51,204.83 394.81,205.55 395.1,206.3C395.41,207.11 395.71,207.97 396,208.86C396.31,209.81 396.61,210.8 396.9,211.81C397.21,212.88 397.51,213.99 397.81,215.13C398.12,216.32 398.41,217.55 398.71,218.8C399.02,220.1 399.32,221.42 399.62,222.77C399.93,224.16 400.22,225.58 400.52,227.02C400.82,228.49 401.12,229.99 401.42,231.5C401.72,233.04 402.03,234.59 402.33,236.16C402.63,237.75 402.93,239.35 403.23,240.96C403.53,242.58 403.84,244.22 404.14,245.85C404.44,247.49 404.74,249.14 405.04,250.78C405.34,252.42 405.65,254.07 405.95,255.71C406.25,257.34 406.55,258.98 406.85,260.6C407.15,262.21 407.45,263.82 407.75,265.41C408.05,266.98 408.36,268.54 408.66,270.09C408.96,271.61 409.25,273.13 409.56,274.62C409.86,276.08 410.16,277.52 410.47,278.94C410.77,280.32 411.06,281.68 411.37,283C411.66,284.27 411.95,285.55 412.27,286.73C412.56,287.82 412.83,288.97 413.18,289.85C413.45,290.53 413.75,291.09 414.08,291.6C414.36,292.04 414.66,292.45 414.99,292.77C415.27,293.05 415.57,293.35 415.89,293.44C416.18,293.52 416.5,293.43 416.79,293.35C417.1,293.26 417.41,293.09 417.7,292.9C418.01,292.7 418.31,292.45 418.6,292.17C418.92,291.86 419.22,291.49 419.51,291.09C419.83,290.65 420.11,290.15 420.41,289.65C420.72,289.13 421.02,288.57 421.32,288.03C421.62,287.49 421.92,286.94 422.22,286.41C422.52,285.89 422.81,285.37 423.12,284.88C423.42,284.4 423.72,283.94 424.03,283.5C424.32,283.08 424.62,282.68 424.93,282.31C425.22,281.96 425.53,281.62 425.84,281.32C426.13,281.04 426.43,280.77 426.74,280.55C427.03,280.34 427.33,280.15 427.64,280C427.94,279.85 428.24,279.74 428.55,279.65C428.85,279.56 429.15,279.5 429.45,279.47C429.75,279.44 430.06,279.44 430.36,279.45C430.66,279.46 430.96,279.5 431.26,279.54C431.56,279.58 431.86,279.64 432.16,279.7C432.46,279.76 432.77,279.83 433.07,279.89C433.37,279.95 433.67,280.02 433.97,280.08C434.27,280.14 434.58,280.2 434.88,280.25C435.18,280.3 435.48,280.35 435.78,280.4C436.08,280.45 436.38,280.48 436.68,280.53C436.98,280.58 437.29,280.62 437.59,280.68C437.89,280.74 438.19,280.8 438.49,280.87C438.79,280.94 439.1,281.02 439.4,281.12C439.7,281.22 440,281.33 440.3,281.46C440.61,281.59 440.91,281.73 441.21,281.89C441.51,282.05 441.81,282.23 442.11,282.42C442.41,282.62 442.71,282.83 443.01,283.05C443.32,283.28 443.62,283.52 443.92,283.77C444.22,284.03 444.52,284.3 444.82,284.57C445.12,284.84 445.43,285.12 445.73,285.39C446.03,285.66 446.33,285.94 446.63,286.19C446.93,286.44 447.23,286.67 447.53,286.89C447.83,287.11 448.14,287.3 448.44,287.5C448.74,287.7 449.04,287.9 449.34,288.11C449.65,288.33 449.95,288.55 450.25,288.79C450.55,289.03 450.85,289.28 451.15,289.55C451.45,289.82 451.75,290.11 452.05,290.41C452.36,290.72 452.66,291.05 452.96,291.38C453.26,291.72 453.56,292.07 453.86,292.43C454.17,292.8 454.47,293.19 454.77,293.58C455.07,293.98 455.37,294.39 455.67,294.81C455.97,295.24 456.28,295.67 456.58,296.11C456.88,296.56 457.18,297.01 457.48,297.47C457.78,297.93 458.08,298.4 458.38,298.86C458.68,299.33 458.99,299.8 459.29,300.26C459.59,300.72 459.88,301.19 460.19,301.64C460.49,302.08 460.79,302.52 461.1,302.92Q461.39,303.3 462,304" style="vector-effect: non-scaling-stroke; fill: none; stroke: rgb(231, 107, 243); stroke-opacity: 1; stroke-width: 2px; opacity: 1;"/></g><g class="points"/><g class="text"/></g></g></g><g class="overplot"/><path class="xlines-above crisp" d="M0,0" style="fill: none;"/><path class="ylines-above crisp" d="M0,0" style="fill: none;"/><g class="overlines-above"/><g class="xaxislayer-above"><g class="xtick"><text text-anchor="middle" x="0" y="433" transform="translate(80,0)" style="font-family: 'Open Sans', verdana, arial, sans-serif; font-size: 12px; fill: rgb(42, 63, 95); fill-opacity: 1; white-space: pre;">0</text></g><g class="xtick"><text text-anchor="middle" x="0" y="433" transform="translate(170.23000000000002,0)" style="font-family: 'Open Sans', verdana, arial, sans-serif; font-size: 12px; fill: rgb(42, 63, 95); fill-opacity: 1; white-space: pre;">100</text></g><g class="xtick"><text text-anchor="middle" x="0" y="433" transform="translate(260.47,0)" style="font-family: 'Open Sans', verdana, arial, sans-serif; font-size: 12px; fill: rgb(42, 63, 95); fill-opacity: 1; white-space: pre;">200</text></g><g class="xtick"><text text-anchor="middle" x="0" y="433" transform="translate(350.7,0)" style="font-family: 'Open Sans', verdana, arial, sans-serif; font-size: 12px; fill: rgb(42, 63, 95); fill-opacity: 1; white-space: pre;">300</text></g><g class="xtick"><text text-anchor="middle" x="0" y="433" transform="translate(440.94,0)" style="font-family: 'Open Sans', verdana, arial, sans-serif; font-size: 12px; fill: rgb(42, 63, 95); fill-opacity: 1; white-space: pre;">400</text></g><g class="xtick"><text text-anchor="middle" x="0" y="433" transform="translate(531.1700000000001,0)" style="font-family: 'Open Sans', verdana, arial, sans-serif; font-size: 12px; fill: rgb(42, 63, 95); fill-opacity: 1; white-space: pre;">500</text></g></g><g class="yaxislayer-above"><g class="ytick"><text text-anchor="end" x="79" y="4.199999999999999" transform="translate(0,377.68)" style="font-family: 'Open Sans', verdana, arial, sans-serif; font-size: 12px; fill: rgb(42, 63, 95); fill-opacity: 1; white-space: pre;">50</text></g><g class="ytick"><text text-anchor="end" x="79" y="4.199999999999999" transform="translate(0,320.65999999999997)" style="font-family: 'Open Sans', verdana, arial, sans-serif; font-size: 12px; fill: rgb(42, 63, 95); fill-opacity: 1; white-space: pre;">100</text></g><g class="ytick"><text text-anchor="end" x="79" y="4.199999999999999" transform="translate(0,263.65)" style="font-family: 'Open Sans', verdana, arial, sans-serif; font-size: 12px; fill: rgb(42, 63, 95); fill-opacity: 1; white-space: pre;">150</text></g><g class="ytick"><text text-anchor="end" x="79" y="4.199999999999999" transform="translate(0,206.64)" style="font-family: 'Open Sans', verdana, arial, sans-serif; font-size: 12px; fill: rgb(42, 63, 95); fill-opacity: 1; white-space: pre;">200</text></g><g class="ytick"><text text-anchor="end" x="79" y="4.199999999999999" transform="translate(0,149.62)" style="font-family: 'Open Sans', verdana, arial, sans-serif; font-size: 12px; fill: rgb(42, 63, 95); fill-opacity: 1; white-space: pre;">250</text></g></g><g class="overaxes-above"/></g></g><g class="polarlayer"/><g class="ternarylayer"/><g class="geolayer"/><g class="funnelarealayer"/><g class="pielayer"/><g class="treemaplayer"/><g class="sunburstlayer"/><g class="glimages"/><defs id="topdefs-a27438"><g class="clips"/><clipPath id="legenda27438"><rect width="137" height="67" x="0" y="0"/></clipPath></defs><g class="layer-above"><g class="imagelayer"/><g class="shapelayer"/></g><g class="infolayer"><g class="legend" pointer-events="all" transform="translate(551.24, 100)"><rect class="bg" shape-rendering="crispEdges" width="137" height="67" x="0" y="0" style="stroke: rgb(68, 68, 68); stroke-opacity: 1; fill: rgb(255, 255, 255); fill-opacity: 1; stroke-width: 0px;"/><g class="scrollbox" transform="translate(0, 0)" clip-path="url('#legenda27438')"><g class="groups"><g class="traces" transform="translate(0, 14.5)" style="opacity: 1;"><text class="legendtext" text-anchor="start" x="40" y="4.680000000000001" style="font-family: 'Open Sans', verdana, arial, sans-serif; font-size: 12px; fill: rgb(42, 63, 95); fill-opacity: 1; white-space: pre;">Average Class I</text><g class="layers" style="opacity: 1;"><g class="legendfill"/><g class="legendlines"><path class="js-line" d="M5,0h30" style="fill: none; stroke: rgb(0, 100, 80); stroke-opacity: 1; stroke-width: 2px;"/></g><g class="legendsymbols"><g class="legendpoints"/></g></g><rect class="legendtoggle" x="0" y="-9.5" width="131.15625" height="19" style="fill: rgb(0, 0, 0); fill-opacity: 0;"/></g><g class="traces" transform="translate(0, 33.5)" style="opacity: 1;"><text class="legendtext" text-anchor="start" x="40" y="4.680000000000001" style="font-family: 'Open Sans', verdana, arial, sans-serif; font-size: 12px; fill: rgb(42, 63, 95); fill-opacity: 1; white-space: pre;">Average Class II</text><g class="layers" style="opacity: 1;"><g class="legendfill"/><g class="legendlines"><path class="js-line" d="M5,0h30" style="fill: none; stroke: rgb(0, 176, 246); stroke-opacity: 1; stroke-width: 2px;"/></g><g class="legendsymbols"><g class="legendpoints"/></g></g><rect class="legendtoggle" x="0" y="-9.5" width="131.15625" height="19" style="fill: rgb(0, 0, 0); fill-opacity: 0;"/></g><g class="traces" transform="translate(0, 52.5)" style="opacity: 1;"><text class="legendtext" text-anchor="start" x="40" y="4.680000000000001" style="font-family: 'Open Sans', verdana, arial, sans-serif; font-size: 12px; fill: rgb(42, 63, 95); fill-opacity: 1; white-space: pre;">Average Class III</text><g class="layers" style="opacity: 1;"><g class="legendfill"/><g class="legendlines"><path class="js-line" d="M5,0h30" style="fill: none; stroke: rgb(231, 107, 243); stroke-opacity: 1; stroke-width: 2px;"/></g><g class="legendsymbols"><g class="legendpoints"/></g></g><rect class="legendtoggle" x="0" y="-9.5" width="131.15625" height="19" style="fill: rgb(0, 0, 0); fill-opacity: 0;"/></g></g></g><rect class="scrollbar" rx="20" ry="3" width="0" height="0" x="0" y="0" style="fill: rgb(128, 139, 164); fill-opacity: 1;"/></g><g class="g-gtitle"><text class="gtitle" x="35" y="50" text-anchor="start" dy="0em" style="font-family: 'Open Sans', verdana, arial, sans-serif; font-size: 17px; fill: rgb(42, 63, 95); opacity: 1; font-weight: normal; white-space: pre;">Average curve: hydrophobicity_group</text></g><g class="g-xtitle"><text class="xtitle" x="311" y="460.8" text-anchor="middle" style="font-family: 'Open Sans', verdana, arial, sans-serif; font-size: 14px; fill: rgb(42, 63, 95); opacity: 1; font-weight: normal; white-space: pre;">Domain</text></g><g class="g-ytitle"><text class="ytitle" transform="rotate(-90,34.16875,260)" x="34.16875" y="260" text-anchor="middle" style="font-family: 'Open Sans', verdana, arial, sans-serif; font-size: 14px; fill: rgb(42, 63, 95); opacity: 1; font-weight: normal; white-space: pre;">Frequency</text></g></g></svg>