<svg class="main-svg" xmlns="http://www.w3.org/2000/svg" xmlns:xlink="http://www.w3.org/1999/xlink" width="700" height="500" style="" viewBox="0 0 700 500"><rect x="0" y="0" width="700" height="500" style="fill: rgb(255, 255, 255); fill-opacity: 1;"/><defs id="defs-68f91a"><g class="clips"><clipPath id="clip68f91axyplot" class="plotclip"><rect width="462" height="320"/></clipPath><clipPath class="axesclip" id="clip68f91ax"><rect x="80" y="0" width="462" height="500"/></clipPath><clipPath class="axesclip" id="clip68f91ay"><rect x="0" y="100" width="700" height="320"/></clipPath><clipPath class="axesclip" id="clip68f91axy"><rect x="80" y="100" width="462" height="320"/></clipPath></g><g class="gradients"/></defs><g class="bglayer"><rect class="bg" x="80" y="100" width="462" height="320" style="fill: rgb(229, 236, 246); fill-opacity: 1; stroke-width: 0;"/></g><g class="layer-below"><g class="imagelayer"/><g class="shapelayer"/></g><g class="cartesianlayer"><g class="subplot xy"><g class="layer-subplot"><g class="shapelayer"/><g class="imagelayer"/></g><g class="gridlayer"><g class="x"><path class="xgrid crisp" transform="translate(170.23000000000002,0)" d="M0,100v320" style="stroke: rgb(255, 255, 255); stroke-opacity: 1; stroke-width: 1px;"/><path class="xgrid crisp" transform="translate(260.47,0)" d="M0,100v320" style="stroke: rgb(255, 255, 255); stroke-opacity: 1; stroke-width: 1px;"/><path class="xgrid crisp" transform="translate(350.7,0)" d="M0,100v320" style="stroke: rgb(255, 255, 255); stroke-opacity: 1; stroke-width: 1px;"/><path class="xgrid crisp" transform="translate(440.94,0)" d="M0,100v320" style="stroke: rgb(255, 255, 255); stroke-opacity: 1; stroke-width: 1px;"/><path class="xgrid crisp" transform="translate(531.1700000000001,0)" d="M0,100v320" style="stroke: rgb(255, 255, 255); stroke-opacity: 1; stroke-width: 1px;"/></g><g class="y"><path class="ygrid crisp" transform="translate(0,356.42)" d="M80,0h462" style="stroke: rgb(255, 255, 255); stroke-opacity: 1; stroke-width: 1px;"/><path class="ygrid crisp" transform="translate(0,278.32)" d="M80,0h462" style="stroke: rgb(255, 255, 255); stroke-opacity: 1; stroke-width: 1px;"/><path class="ygrid crisp" transform="translate(0,200.22)" d="M80,0h462" style="stroke: rgb(255, 255, 255); stroke-opacity: 1; stroke-width: 1px;"/><path class="ygrid crisp" transform="translate(0,122.12)" d="M80,0h462" style="stroke: rgb(255, 255, 255); stroke-opacity: 1; stroke-width: 1px;"/></g></g><g class="zerolinelayer"><path class="xzl zl crisp" transform="translate(80,0)" d="M0,100v320" style="stroke: rgb(255, 255, 255); stroke-opacity: 1; stroke-width: 2px;"/></g><path class="xlines-below"/><path class="ylines-below"/><g class="overlines-below"/><g class="xaxislayer-below"/><g class="yaxislayer-below"/><g class="overaxes-below"/><g class="plot" transform="translate(80, 100)" clip-path="url('#clip68f91axyplot')"><g class="scatterlayer mlayer"><g class="trace scatter trace07755d" style="stroke-miterlimit: 2; opacity: 1;"><g class="fills"/><g class="errorbars"/><g class="lines"><path class="js-line" d="M0,167.06Q0.63,166.71 0.9,166.37C1.27,165.9 1.53,165.11 1.81,164.34C2.15,163.38 2.43,162.23 2.71,161.04C3.04,159.67 3.33,158.15 3.62,156.59C3.94,154.87 4.23,153.02 4.52,151.13C4.83,149.1 5.13,146.98 5.42,144.82C5.73,142.55 6.03,140.2 6.33,137.82C6.64,135.36 6.93,132.83 7.23,130.29C7.54,127.68 7.84,125.03 8.14,122.37C8.44,119.67 8.74,116.93 9.04,114.19C9.34,111.43 9.65,108.65 9.95,105.88C10.25,103.11 10.55,100.33 10.85,97.56C11.15,94.8 11.45,92.04 11.75,89.3C12.05,86.59 12.36,83.89 12.66,81.22C12.96,78.58 13.26,75.96 13.56,73.37C13.86,70.83 14.16,68.32 14.47,65.84C14.77,63.42 15.07,61.02 15.37,58.67C15.67,56.39 15.96,54.13 16.27,51.93C16.57,49.8 16.87,47.71 17.18,45.67C17.48,43.71 17.77,41.79 18.08,39.92C18.37,38.14 18.68,36.39 18.99,34.71C19.28,33.12 19.58,31.57 19.89,30.09C20.18,28.7 20.47,27.36 20.79,26.08C21.08,24.9 21.38,23.77 21.7,22.71C21.99,21.75 22.28,20.82 22.6,19.99C22.89,19.26 23.18,18.55 23.51,17.96C23.79,17.45 24.07,16.96 24.41,16.62C24.69,16.34 25,16.08 25.32,16C25.61,15.93 25.94,15.97 26.22,16.1C26.55,16.25 26.84,16.59 27.12,16.94C27.46,17.37 27.75,17.94 28.03,18.53C28.36,19.22 28.65,20.03 28.93,20.87C29.25,21.83 29.55,22.89 29.84,24C30.16,25.24 30.45,26.57 30.74,27.95C31.06,29.46 31.35,31.07 31.64,32.73C31.95,34.53 32.26,36.43 32.55,38.38C32.86,40.47 33.16,42.66 33.45,44.9C33.76,47.28 34.07,49.75 34.36,52.28C34.67,54.95 34.97,57.7 35.26,60.51C35.57,63.45 35.86,66.47 36.16,69.54C36.47,72.74 36.77,76.02 37.07,79.34C37.38,82.78 37.67,86.29 37.97,89.84C38.28,93.49 38.58,97.21 38.88,100.96C39.19,104.8 39.48,108.68 39.78,112.6C40.08,116.59 40.38,120.62 40.68,124.67C40.98,128.76 41.29,132.89 41.59,137.02C41.89,141.17 42.19,145.34 42.49,149.5C42.79,153.65 43.1,157.82 43.4,161.94C43.7,166.02 43.99,170.22 44.3,174.12C44.59,177.72 44.9,181.12 45.21,184.51C45.51,187.75 45.8,190.97 46.11,194.02C46.4,196.84 46.69,199.62 47.01,202.16C47.3,204.4 47.59,206.54 47.92,208.49C48.2,210.18 48.48,211.81 48.82,213.19C49.1,214.31 49.35,215.43 49.73,216.19C49.99,216.72 50.33,217.42 50.63,217.41C50.93,217.4 51.27,216.63 51.53,216.07C51.9,215.27 52.16,214.09 52.44,212.96C52.77,211.62 53.05,210.1 53.34,208.55C53.66,206.85 53.96,205.01 54.25,203.17C54.56,201.23 54.85,199.2 55.15,197.18C55.45,195.11 55.75,192.98 56.05,190.88C56.35,188.78 56.66,186.65 56.96,184.57C57.26,182.53 57.55,180.49 57.86,178.5C58.16,176.58 58.46,174.69 58.77,172.86C59.06,171.13 59.36,169.42 59.67,167.8C59.96,166.3 60.26,164.83 60.58,163.46C60.87,162.22 61.16,161.02 61.48,159.93C61.76,158.97 62.05,158.05 62.38,157.27C62.66,156.61 62.94,155.97 63.29,155.52C63.56,155.16 63.86,154.81 64.19,154.69C64.47,154.59 64.82,154.62 65.1,154.75C65.43,154.9 65.72,155.28 66,155.65C66.34,156.1 66.62,156.7 66.9,157.31C67.23,158.01 67.52,158.81 67.81,159.62C68.13,160.51 68.42,161.47 68.71,162.46C69.02,163.53 69.33,164.65 69.62,165.8C69.93,167.03 70.23,168.32 70.52,169.64C70.83,171.05 71.13,172.5 71.42,174C71.73,175.58 72.04,177.21 72.33,178.88C72.64,180.63 72.93,182.44 73.23,184.28C73.54,186.19 73.84,188.15 74.14,190.14C74.45,192.2 74.74,194.3 75.04,196.43C75.35,198.61 75.65,200.84 75.95,203.07C76.25,205.34 76.55,207.65 76.85,209.96C77.15,212.28 77.45,214.63 77.75,216.96C78.05,219.27 78.36,221.6 78.66,223.88C78.96,226.11 79.25,228.35 79.56,230.51C79.86,232.58 80.16,234.64 80.47,236.58C80.76,238.38 81.05,240.16 81.37,241.77C81.65,243.19 81.93,244.6 82.27,245.75C82.54,246.67 82.78,247.67 83.18,248.18C83.44,248.51 83.8,248.85 84.08,248.8C84.41,248.74 84.72,248.08 84.99,247.55C85.36,246.81 85.61,245.72 85.89,244.67C86.22,243.43 86.5,242 86.79,240.58C87.1,239.05 87.4,237.41 87.7,235.78C88.01,234.1 88.3,232.38 88.6,230.67C88.9,228.95 89.21,227.21 89.51,225.5C89.81,223.81 90.1,222.13 90.41,220.48C90.71,218.88 91.01,217.28 91.32,215.74C91.62,214.26 91.91,212.8 92.22,211.4C92.51,210.07 92.81,208.76 93.12,207.52C93.41,206.36 93.72,205.23 94.03,204.17C94.32,203.19 94.61,202.24 94.93,201.36C95.22,200.57 95.52,199.82 95.84,199.14C96.12,198.54 96.42,197.98 96.74,197.5C97.02,197.09 97.31,196.7 97.64,196.42C97.92,196.17 98.24,195.98 98.55,195.85C98.84,195.73 99.15,195.66 99.45,195.63C99.75,195.6 100.07,195.59 100.36,195.67C100.67,195.75 100.98,195.92 101.26,196.14C101.59,196.4 101.88,196.77 102.16,197.17C102.49,197.63 102.78,198.18 103.07,198.76C103.39,199.41 103.68,200.14 103.97,200.9C104.29,201.73 104.59,202.62 104.88,203.54C105.19,204.52 105.49,205.56 105.78,206.62C106.09,207.74 106.38,208.9 106.68,210.08C106.99,211.31 107.29,212.57 107.59,213.84C107.9,215.14 108.19,216.47 108.49,217.8C108.79,219.15 109.1,220.52 109.4,221.88C109.7,223.24 110,224.61 110.3,225.96C110.6,227.3 110.91,228.63 111.21,229.95C111.51,231.24 111.81,232.53 112.11,233.79C112.41,235.03 112.7,236.25 113.01,237.45C113.31,238.62 113.61,239.79 113.92,240.92C114.22,242.02 114.51,243.1 114.82,244.15C115.12,245.17 115.42,246.16 115.73,247.13C116.03,248.06 116.32,248.97 116.63,249.85C116.92,250.69 117.22,251.5 117.53,252.29C117.83,253.04 118.13,253.78 118.44,254.48C118.73,255.15 119.03,255.8 119.34,256.42C119.64,257.02 119.94,257.59 120.25,258.15C120.55,258.69 120.84,259.21 121.15,259.71C121.44,260.19 121.74,260.66 122.05,261.11C122.35,261.55 122.65,261.97 122.96,262.38C123.26,262.77 123.55,263.15 123.86,263.51C124.16,263.86 124.46,264.2 124.77,264.51C125.06,264.8 125.36,265.09 125.67,265.32C125.96,265.54 126.27,265.75 126.58,265.88C126.87,266 127.18,266.09 127.48,266.09C127.78,266.09 128.09,266.02 128.38,265.9C128.7,265.76 129,265.53 129.29,265.27C129.61,264.98 129.9,264.61 130.19,264.22C130.51,263.79 130.81,263.3 131.1,262.79C131.42,262.23 131.71,261.62 132,260.99C132.31,260.31 132.61,259.59 132.9,258.86C133.21,258.08 133.51,257.27 133.81,256.45C134.12,255.59 134.41,254.7 134.71,253.8C135.02,252.87 135.32,251.92 135.62,250.96C135.92,249.98 136.22,248.99 136.52,247.99C136.82,246.98 137.12,245.96 137.42,244.95C137.72,243.94 138.03,242.92 138.33,241.91C138.63,240.91 138.93,239.92 139.23,238.94C139.53,237.98 139.83,237.02 140.14,236.09C140.44,235.19 140.73,234.29 141.04,233.43C141.34,232.6 141.64,231.78 141.95,231C142.24,230.27 142.54,229.55 142.85,228.88C143.14,228.25 143.43,227.64 143.75,227.08C144.04,226.57 144.34,226.08 144.66,225.65C144.95,225.26 145.24,224.9 145.56,224.61C145.85,224.35 146.15,224.11 146.47,223.96C146.76,223.82 147.07,223.72 147.37,223.72C147.67,223.72 147.98,223.8 148.27,223.94C148.59,224.1 148.9,224.36 149.18,224.65C149.51,224.99 149.8,225.42 150.08,225.88C150.4,226.41 150.7,227.01 150.99,227.65C151.31,228.36 151.6,229.14 151.89,229.95C152.2,230.84 152.5,231.79 152.79,232.77C153.1,233.82 153.41,234.93 153.7,236.07C154.01,237.27 154.3,238.52 154.6,239.79C154.91,241.11 155.21,242.48 155.51,243.86C155.82,245.27 156.11,246.72 156.41,248.15C156.71,249.59 157.02,251.06 157.32,252.49C157.62,253.9 157.91,255.32 158.22,256.67C158.51,257.94 158.8,259.2 159.12,260.35C159.41,261.38 159.7,262.39 160.03,263.26C160.31,264.01 160.58,264.75 160.93,265.29C161.2,265.72 161.5,266.19 161.84,266.33C162.12,266.45 162.47,266.42 162.74,266.28C163.09,266.09 163.37,265.57 163.64,265.08C163.99,264.45 164.27,263.6 164.55,262.74C164.88,261.73 165.16,260.56 165.45,259.37C165.77,258.04 166.07,256.59 166.36,255.11C166.67,253.52 166.97,251.85 167.26,250.15C167.57,248.37 167.86,246.53 168.16,244.68C168.47,242.78 168.77,240.83 169.07,238.88C169.37,236.91 169.67,234.92 169.97,232.94C170.27,230.96 170.58,228.98 170.88,227.02C171.18,225.09 171.48,223.17 171.78,221.28C172.08,219.44 172.37,217.61 172.68,215.83C172.98,214.12 173.28,212.44 173.59,210.81C173.88,209.27 174.18,207.75 174.49,206.3C174.78,204.94 175.08,203.62 175.4,202.37C175.69,201.22 175.98,200.11 176.3,199.09C176.59,198.17 176.88,197.28 177.21,196.49C177.49,195.8 177.78,195.15 178.11,194.61C178.39,194.15 178.67,193.71 179.01,193.43C179.29,193.2 179.61,193.01 179.92,192.97C180.21,192.93 180.54,193.03 180.82,193.18C181.15,193.35 181.45,193.68 181.73,194.02C182.06,194.41 182.35,194.92 182.63,195.44C182.95,196.02 183.24,196.68 183.53,197.36C183.84,198.09 184.15,198.88 184.44,199.68C184.75,200.52 185.04,201.41 185.34,202.3C185.65,203.21 185.95,204.15 186.25,205.09C186.55,206.03 186.85,207 187.15,207.94C187.45,208.87 187.74,209.8 188.05,210.69C188.35,211.55 188.65,212.41 188.96,213.21C189.25,213.96 189.54,214.69 189.86,215.35C190.15,215.94 190.43,216.53 190.77,216.97C191.05,217.33 191.36,217.83 191.67,217.84C191.97,217.85 192.31,217.44 192.58,217.11C192.93,216.7 193.19,216.07 193.48,215.49C193.8,214.84 194.09,214.12 194.38,213.4C194.69,212.63 194.99,211.81 195.29,210.99C195.6,210.15 195.89,209.27 196.19,208.41C196.49,207.54 196.8,206.65 197.1,205.79C197.4,204.95 197.69,204.1 198,203.29C198.29,202.52 198.59,201.76 198.9,201.05C199.19,200.39 199.49,199.75 199.81,199.18C200.1,198.68 200.38,198.18 200.71,197.8C200.99,197.48 201.29,197.16 201.62,197.02C201.9,196.9 202.23,196.84 202.52,196.91C202.84,196.99 203.14,197.25 203.42,197.54C203.76,197.9 204.05,198.42 204.33,198.97C204.66,199.62 204.95,200.4 205.23,201.22C205.56,202.16 205.85,203.21 206.14,204.3C206.46,205.52 206.75,206.84 207.04,208.2C207.36,209.69 207.66,211.27 207.95,212.89C208.26,214.63 208.56,216.45 208.85,218.31C209.16,220.27 209.45,222.31 209.75,224.38C210.06,226.53 210.36,228.75 210.66,230.98C210.97,233.27 211.26,235.62 211.56,237.96C211.86,240.33 212.17,242.74 212.47,245.12C212.77,247.49 213.07,249.88 213.37,252.2C213.67,254.45 213.96,256.71 214.27,258.85C214.56,260.86 214.86,262.86 215.18,264.67C215.46,266.27 215.73,267.86 216.08,269.16C216.35,270.19 216.58,271.3 216.99,271.87C217.25,272.23 217.61,272.61 217.89,272.56C218.23,272.5 218.53,271.76 218.79,271.12C219.2,270.09 219.42,268.39 219.7,266.82C220.03,264.94 220.31,262.76 220.6,260.58C220.92,258.19 221.21,255.63 221.51,253.07C221.82,250.39 222.11,247.6 222.41,244.82C222.71,241.98 223.02,239.09 223.32,236.22C223.62,233.34 223.92,230.43 224.22,227.56C224.52,224.72 224.82,221.88 225.12,219.09C225.42,216.35 225.72,213.63 226.03,210.96C226.33,208.36 226.62,205.79 226.93,203.27C227.23,200.84 227.53,198.45 227.84,196.11C228.14,193.87 228.43,191.68 228.74,189.52C229.03,187.44 229.33,185.41 229.64,183.39C229.94,181.42 230.24,179.45 230.55,177.54C230.85,175.71 231.14,173.88 231.45,172.16C231.74,170.57 232.04,169.02 232.36,167.59C232.65,166.31 232.93,165.06 233.26,163.97C233.54,163.04 233.81,162.13 234.16,161.42C234.43,160.85 234.71,160.25 235.07,159.97C235.34,159.76 235.69,159.62 235.97,159.69C236.3,159.77 236.61,160.19 236.88,160.59C237.24,161.12 237.5,161.9 237.78,162.68C238.12,163.63 238.4,164.76 238.68,165.93C239.01,167.27 239.3,168.76 239.59,170.3C239.91,172.01 240.2,173.84 240.49,175.72C240.8,177.75 241.11,179.9 241.4,182.08C241.71,184.39 242,186.79 242.3,189.22C242.61,191.74 242.91,194.34 243.21,196.93C243.51,199.57 243.81,202.27 244.11,204.93C244.41,207.57 244.7,210.25 245.01,212.83C245.31,215.31 245.6,217.82 245.92,220.14C246.21,222.26 246.48,224.4 246.82,226.23C247.1,227.75 247.34,229.35 247.73,230.39C247.99,231.08 248.32,231.99 248.63,232.01C248.92,232.03 249.27,231.32 249.53,230.74C249.95,229.78 250.17,228.13 250.44,226.56C250.79,224.58 251.06,222.21 251.34,219.8C251.66,217.04 251.96,214 252.25,210.92C252.56,207.58 252.86,204.04 253.15,200.47C253.46,196.72 253.75,192.84 254.05,188.95C254.36,184.95 254.66,180.86 254.96,176.77C255.26,172.63 255.56,168.44 255.86,164.28C256.16,160.12 256.47,155.93 256.77,151.79C257.07,147.68 257.37,143.58 257.67,139.53C257.97,135.56 258.27,131.61 258.58,127.73C258.88,123.96 259.17,120.23 259.48,116.59C259.77,113.09 260.07,109.63 260.38,106.28C260.67,103.09 260.98,99.96 261.29,96.96C261.58,94.15 261.87,91.4 262.19,88.79C262.48,86.39 262.78,84.06 263.1,81.89C263.39,79.94 263.67,78.05 264,76.35C264.28,74.88 264.56,73.45 264.9,72.25C265.18,71.28 265.44,70.31 265.81,69.65C266.08,69.18 266.38,68.64 266.71,68.57C266.99,68.51 267.36,68.76 267.62,69.04C268,69.44 268.25,70.25 268.52,71.02C268.87,72 269.14,73.23 269.42,74.49C269.75,75.97 270.04,77.64 270.33,79.37C270.65,81.31 270.94,83.42 271.23,85.59C271.55,87.96 271.85,90.46 272.14,93.03C272.45,95.77 272.75,98.64 273.04,101.56C273.35,104.62 273.65,107.79 273.95,110.99C274.26,114.31 274.55,117.71 274.85,121.12C275.15,124.6 275.45,128.15 275.75,131.66C276.05,135.15 276.35,138.76 276.66,142.12C276.95,145.24 277.24,148.32 277.56,151.15C277.85,153.67 278.15,156.02 278.47,158.28C278.76,160.34 279.05,162.32 279.37,164.18C279.66,165.87 279.94,167.55 280.27,169C280.55,170.21 280.7,171.81 281.18,172.3C281.43,172.56 281.81,172.66 282.08,172.57C282.43,172.46 282.72,171.88 282.99,171.38C283.35,170.7 283.61,169.75 283.89,168.78C284.23,167.6 284.51,166.21 284.79,164.79C285.11,163.16 285.41,161.37 285.7,159.54C286.02,157.53 286.31,155.38 286.6,153.2C286.91,150.88 287.21,148.46 287.51,146.02C287.82,143.48 288.11,140.86 288.41,138.24C288.71,135.57 289.02,132.85 289.32,130.14C289.62,127.42 289.92,124.68 290.22,121.97C290.52,119.28 290.82,116.58 291.12,113.93C291.42,111.33 291.72,108.75 292.03,106.22C292.33,103.77 292.62,101.34 292.93,98.98C293.23,96.71 293.53,94.48 293.84,92.32C294.13,90.26 294.43,88.25 294.74,86.31C295.03,84.48 295.33,82.69 295.64,80.98C295.93,79.38 296.24,77.82 296.55,76.33C296.84,74.94 297.14,73.6 297.45,72.31C297.74,71.11 298.05,69.97 298.36,68.86C298.65,67.82 298.95,66.82 299.26,65.85C299.55,64.94 299.85,64.06 300.16,63.2C300.46,62.38 300.76,61.58 301.07,60.8C301.36,60.06 301.66,59.34 301.97,58.64C302.27,57.98 302.57,57.32 302.88,56.71C303.17,56.14 303.46,55.58 303.78,55.08C304.07,54.62 304.36,54.18 304.68,53.82C304.97,53.49 305.27,53.19 305.59,52.98C305.88,52.8 306.18,52.64 306.49,52.61C306.79,52.58 307.11,52.63 307.4,52.76C307.72,52.9 308.02,53.17 308.3,53.46C308.63,53.8 308.93,54.24 309.21,54.71C309.54,55.25 309.83,55.88 310.11,56.53C310.43,57.26 310.72,58.07 311.01,58.91C311.33,59.83 311.63,60.83 311.92,61.85C312.23,62.96 312.53,64.12 312.82,65.32C313.13,66.6 313.44,67.94 313.73,69.31C314.04,70.76 314.34,72.27 314.63,73.81C314.94,75.43 315.23,77.09 315.53,78.79C315.84,80.56 316.14,82.38 316.44,84.23C316.75,86.15 317.04,88.1 317.34,90.09C317.65,92.15 317.95,94.24 318.25,96.37C318.56,98.56 318.85,100.79 319.15,103.04C319.45,105.35 319.75,107.69 320.05,110.06C320.36,112.48 320.66,114.93 320.96,117.41C321.26,119.94 321.56,122.5 321.86,125.08C322.16,127.7 322.47,130.35 322.77,133.02C323.07,135.73 323.37,138.46 323.67,141.2C323.97,143.98 324.28,146.78 324.58,149.59C324.88,152.43 325.18,155.29 325.48,158.15C325.78,161.04 326.08,163.94 326.38,166.84C326.68,169.75 326.99,172.68 327.29,175.6C327.59,178.52 327.89,181.46 328.19,184.38C328.49,187.3 328.8,190.22 329.1,193.13C329.4,196.02 329.7,198.91 330,201.78C330.3,204.63 330.6,207.47 330.9,210.29C331.2,213.08 331.51,215.85 331.81,218.6C332.11,221.31 332.41,224 332.71,226.67C333.01,229.29 333.32,231.89 333.62,234.46C333.92,236.98 334.22,239.47 334.52,241.93C334.82,244.33 335.11,246.72 335.42,249.06C335.72,251.34 336.02,253.59 336.33,255.79C336.63,257.92 336.92,260.02 337.23,262.06C337.53,264.01 337.83,265.94 338.14,267.79C338.43,269.53 338.73,271.24 339.04,272.85C339.33,274.34 339.63,275.79 339.95,277.14C340.24,278.35 340.53,279.52 340.85,280.57C341.13,281.48 341.38,282.45 341.75,283.07C342.02,283.51 342.37,284.1 342.66,284.07C342.98,284.04 343.28,283.15 343.56,282.59C343.89,281.92 344.18,281.07 344.47,280.28C344.78,279.45 345.07,278.57 345.37,277.7C345.67,276.81 345.97,275.91 346.27,275.01C346.57,274.1 346.88,273.18 347.18,272.28C347.48,271.39 347.77,270.49 348.08,269.62C348.38,268.78 348.68,267.95 348.99,267.16C349.28,266.41 349.58,265.68 349.89,264.98C350.18,264.33 350.48,263.7 350.79,263.1C351.08,262.53 351.39,262 351.7,261.47C352,260.96 352.3,260.47 352.6,259.98C352.9,259.5 353.2,259.02 353.51,258.56C353.81,258.12 354.1,257.68 354.41,257.28C354.7,256.9 355.01,256.54 355.32,256.22C355.61,255.92 355.91,255.64 356.22,255.39C356.51,255.16 356.81,254.96 357.12,254.77C357.42,254.59 357.73,254.43 358.03,254.28C358.33,254.13 358.63,254 358.93,253.85C359.23,253.7 359.55,253.57 359.84,253.37C360.15,253.16 360.46,252.92 360.74,252.62C361.06,252.27 361.36,251.83 361.64,251.35C361.97,250.79 362.26,250.12 362.55,249.44C362.87,248.69 363.16,247.86 363.45,247.03C363.76,246.15 364.06,245.22 364.36,244.28C364.67,243.31 364.96,242.31 365.26,241.31C365.56,240.29 365.86,239.24 366.16,238.2C366.46,237.15 366.77,236.09 367.07,235.03C367.37,233.97 367.67,232.9 367.97,231.85C368.27,230.81 368.58,229.77 368.88,228.75C369.18,227.75 369.48,226.74 369.78,225.77C370.08,224.83 370.37,223.89 370.68,222.99C370.98,222.13 371.28,221.28 371.59,220.47C371.88,219.71 372.18,218.96 372.49,218.26C372.78,217.61 373.08,216.99 373.4,216.42C373.69,215.91 373.98,215.42 374.3,215C374.59,214.63 374.89,214.28 375.21,214.03C375.49,213.81 375.8,213.62 376.11,213.55C376.4,213.48 376.72,213.49 377.01,213.57C377.33,213.66 377.64,213.88 377.92,214.12C378.25,214.4 378.54,214.78 378.82,215.19C379.14,215.65 379.44,216.2 379.73,216.77C380.05,217.41 380.34,218.11 380.63,218.84C380.94,219.63 381.24,220.48 381.53,221.34C381.84,222.26 382.14,223.25 382.44,224.19C382.74,225.11 383.02,226.09 383.34,226.93C383.63,227.67 383.95,228.31 384.25,228.99C384.55,229.66 384.85,230.34 385.15,231C385.45,231.65 385.74,232.32 386.05,232.94C386.34,233.52 386.64,234.11 386.96,234.61C387.24,235.05 387.54,235.45 387.86,235.79C388.15,236.09 388.46,236.33 388.77,236.55C389.06,236.76 389.36,236.93 389.67,237.08C389.97,237.23 390.27,237.36 390.58,237.45C390.88,237.54 391.18,237.61 391.48,237.64C391.78,237.67 392.08,237.67 392.38,237.63C392.69,237.59 393,237.5 393.29,237.37C393.6,237.24 393.9,237.05 394.19,236.83C394.51,236.59 394.81,236.3 395.1,235.99C395.41,235.65 395.71,235.26 396,234.85C396.31,234.42 396.61,233.95 396.9,233.47C397.21,232.96 397.51,232.42 397.81,231.88C398.12,231.32 398.41,230.75 398.71,230.17C399.01,229.59 399.32,228.99 399.62,228.4C399.92,227.81 400.22,227.22 400.52,226.65C400.82,226.09 401.11,225.53 401.42,224.99C401.72,224.47 402.02,223.96 402.33,223.48C402.62,223.03 402.92,222.58 403.23,222.18C403.52,221.8 403.83,221.44 404.14,221.13C404.43,220.84 404.73,220.57 405.04,220.36C405.33,220.17 405.64,220.01 405.95,219.92C406.24,219.84 406.55,219.8 406.85,219.83C407.15,219.86 407.46,219.95 407.75,220.09C408.07,220.24 408.37,220.48 408.66,220.74C408.98,221.03 409.27,221.39 409.56,221.77C409.88,222.2 410.18,222.69 410.47,223.21C410.79,223.78 411.08,224.4 411.37,225.04C411.68,225.74 411.98,226.48 412.27,227.26C412.58,228.1 412.89,228.98 413.18,229.89C413.49,230.85 413.79,231.86 414.08,232.89C414.39,233.98 414.69,235.11 414.99,236.27C415.3,237.48 415.6,238.73 415.89,240C416.2,241.33 416.49,242.69 416.79,244.07C417.1,245.5 417.4,246.97 417.7,248.45C418.01,249.98 418.3,251.53 418.6,253.1C418.91,254.71 419.21,256.36 419.51,258.01C419.81,259.69 420.11,261.4 420.41,263.11C420.71,264.85 421.02,266.61 421.32,268.37C421.62,270.14 421.92,271.93 422.22,273.7C422.52,275.47 422.82,277.26 423.12,279.01C423.42,280.74 423.72,282.47 424.03,284.14C424.33,285.74 424.62,287.32 424.93,288.82C425.22,290.21 425.52,291.55 425.84,292.81C426.13,293.95 426.43,295.02 426.74,296.05C427.03,296.99 427.32,297.89 427.64,298.74C427.93,299.51 428.23,300.26 428.55,300.93C428.84,301.53 429.12,302.11 429.45,302.59C429.73,303.01 430.02,303.46 430.36,303.69C430.64,303.88 430.98,304.06 431.26,304C431.58,303.94 431.88,303.53 432.16,303.21C432.49,302.83 432.79,302.34 433.07,301.82C433.4,301.22 433.68,300.49 433.97,299.78C434.28,299.02 434.58,298.19 434.88,297.38C435.19,296.54 435.48,295.69 435.78,294.83C436.08,293.97 436.38,293.09 436.68,292.22C436.98,291.36 437.28,290.5 437.59,289.66C437.89,288.85 438.18,288.05 438.49,287.29C438.78,286.56 439.09,285.85 439.4,285.17C439.69,284.54 439.99,283.92 440.3,283.35C440.59,282.82 440.89,282.32 441.21,281.87C441.5,281.46 441.79,281.06 442.11,280.73C442.4,280.43 442.7,280.15 443.01,279.93C443.3,279.73 443.61,279.56 443.92,279.45C444.21,279.35 444.52,279.28 444.82,279.27C445.12,279.26 445.43,279.29 445.73,279.37C446.04,279.45 446.34,279.59 446.63,279.75C446.94,279.92 447.24,280.16 447.53,280.4C447.84,280.66 448.15,280.97 448.44,281.28C448.75,281.61 449.04,281.98 449.34,282.34C449.65,282.71 449.95,283.1 450.25,283.49C450.55,283.88 450.85,284.27 451.15,284.66C451.45,285.05 451.75,285.45 452.05,285.85C452.35,286.26 452.66,286.68 452.96,287.11C453.27,287.55 453.56,288.01 453.86,288.48C454.17,288.96 454.47,289.46 454.77,289.97C455.08,290.49 455.37,291.03 455.67,291.57C455.98,292.13 456.28,292.7 456.58,293.27C456.88,293.85 457.18,294.45 457.48,295.04C457.78,295.64 458.08,296.24 458.38,296.84C458.68,297.44 458.99,298.03 459.29,298.62C459.59,299.2 459.88,299.78 460.19,300.33C460.49,300.86 460.78,301.38 461.1,301.85Q461.39,302.28 462,303.04" style="vector-effect: non-scaling-stroke; fill: none; stroke: rgb(0, 100, 80); stroke-opacity: 1; stroke-width: 2px; opacity: 1;"/></g><g class="points"/><g class="text"/></g><g class="trace scatter trace2b792c" style="stroke-miterlimit: 2; opacity: 1;"><g class="fills"/><g class="errorbars"/><g class="lines"><path class="js-line" d="M0,157.76Q0.64,157.27 0.9,156.85C1.29,156.23 1.53,155.2 1.81,154.21C2.15,152.99 2.43,151.52 2.71,150.04C3.03,148.36 3.33,146.51 3.62,144.63C3.93,142.6 4.23,140.45 4.52,138.27C4.83,135.98 5.12,133.61 5.42,131.22C5.73,128.76 6.03,126.23 6.33,123.71C6.63,121.14 6.93,118.54 7.23,115.95C7.53,113.34 7.84,110.71 8.14,108.1C8.44,105.5 8.74,102.88 9.04,100.3C9.34,97.74 9.65,95.2 9.95,92.68C10.25,90.21 10.55,87.75 10.85,85.33C11.15,82.97 11.44,80.63 11.75,78.33C12.05,76.1 12.35,73.9 12.66,71.75C12.96,69.67 13.25,67.63 13.56,65.64C13.86,63.73 14.16,61.85 14.47,60.03C14.76,58.29 15.06,56.59 15.37,54.94C15.66,53.38 15.96,51.86 16.27,50.4C16.56,49.02 16.87,47.69 17.18,46.41C17.47,45.22 17.76,44.06 18.08,42.97C18.37,41.96 18.67,40.99 18.99,40.09C19.28,39.27 19.57,38.49 19.89,37.78C20.17,37.15 20.46,36.55 20.79,36.04C21.07,35.6 21.37,35.19 21.7,34.9C21.98,34.65 22.29,34.42 22.6,34.35C22.89,34.28 23.22,34.32 23.51,34.44C23.83,34.57 24.13,34.86 24.41,35.16C24.74,35.52 25.04,36.02 25.32,36.53C25.65,37.12 25.94,37.82 26.22,38.54C26.54,39.36 26.83,40.26 27.12,41.2C27.44,42.23 27.74,43.32 28.03,44.46C28.34,45.69 28.64,46.98 28.93,48.31C29.24,49.72 29.55,51.2 29.84,52.7C30.15,54.28 30.45,55.91 30.74,57.56C31.05,59.28 31.34,61.05 31.64,62.83C31.95,64.67 32.25,66.54 32.55,68.43C32.86,70.37 33.15,72.33 33.45,74.31C33.75,76.32 34.06,78.36 34.36,80.4C34.66,82.47 34.96,84.56 35.26,86.66C35.56,88.79 35.86,90.93 36.16,93.08C36.46,95.26 36.77,97.45 37.07,99.65C37.37,101.87 37.67,104.11 37.97,106.36C38.27,108.63 38.58,110.92 38.88,113.21C39.18,115.52 39.48,117.84 39.78,120.16C40.08,122.49 40.38,124.83 40.68,127.16C40.98,129.49 41.29,131.83 41.59,134.15C41.89,136.46 42.19,138.77 42.49,141.06C42.79,143.33 43.1,145.6 43.4,147.84C43.7,150.05 44,152.25 44.3,154.42C44.6,156.55 44.9,158.66 45.21,160.73C45.51,162.75 45.8,164.75 46.11,166.7C46.4,168.58 46.7,170.43 47.01,172.22C47.3,173.92 47.61,175.6 47.92,177.19C48.21,178.67 48.5,180.13 48.82,181.48C49.11,182.71 49.41,183.9 49.73,184.97C50.01,185.91 50.3,186.82 50.63,187.59C50.91,188.23 51.19,188.85 51.53,189.3C51.81,189.66 52.11,190 52.44,190.16C52.72,190.29 53.05,190.33 53.34,190.28C53.65,190.22 53.96,190.01 54.25,189.8C54.57,189.56 54.86,189.22 55.15,188.87C55.47,188.49 55.76,188.05 56.05,187.59C56.37,187.08 56.67,186.53 56.96,185.93C57.28,185.27 57.57,184.53 57.86,183.79C58.17,183.01 58.46,182.17 58.77,181.38C59.07,180.61 59.35,179.83 59.67,179.12C59.96,178.47 60.26,177.82 60.58,177.27C60.86,176.78 61.15,176.31 61.48,175.95C61.76,175.64 62.06,175.36 62.38,175.2C62.67,175.06 62.99,174.98 63.29,175C63.59,175.02 63.9,175.16 64.19,175.33C64.51,175.52 64.81,175.81 65.1,176.12C65.42,176.46 65.71,176.88 66,177.32C66.32,177.8 66.61,178.34 66.9,178.89C67.21,179.49 67.52,180.12 67.81,180.78C68.12,181.48 68.42,182.21 68.71,182.97C69.02,183.77 69.33,184.61 69.62,185.47C69.93,186.39 70.23,187.34 70.52,188.32C70.83,189.36 71.13,190.44 71.42,191.56C71.73,192.76 72.04,194 72.33,195.29C72.64,196.66 72.94,198.09 73.23,199.56C73.54,201.13 73.85,202.75 74.14,204.42C74.45,206.19 74.75,208.01 75.04,209.88C75.35,211.84 75.65,213.85 75.95,215.9C76.26,218.03 76.55,220.22 76.85,222.43C77.15,224.7 77.45,227.02 77.75,229.33C78.05,231.67 78.36,234.06 78.66,236.4C78.96,238.7 79.25,241.03 79.56,243.24C79.85,245.33 80.15,247.39 80.47,249.31C80.76,251.05 81.05,252.73 81.37,254.28C81.65,255.66 81.94,257 82.27,258.18C82.55,259.19 82.82,260.22 83.18,260.96C83.45,261.52 83.77,262.3 84.08,262.32C84.37,262.34 84.73,261.73 84.99,261.23C85.39,260.45 85.61,259.11 85.89,257.91C86.22,256.53 86.5,254.95 86.79,253.4C87.1,251.75 87.4,250.02 87.7,248.3C88.01,246.53 88.3,244.72 88.6,242.91C88.9,241.09 89.21,239.25 89.51,237.42C89.81,235.59 90.11,233.75 90.41,231.93C90.71,230.12 91.02,228.32 91.32,226.53C91.62,224.77 91.92,223.02 92.22,221.29C92.52,219.6 92.81,217.91 93.12,216.26C93.42,214.66 93.72,213.07 94.03,211.52C94.33,210.03 94.62,208.55 94.93,207.12C95.23,205.75 95.53,204.4 95.84,203.09C96.13,201.85 96.43,200.63 96.74,199.46C97.03,198.35 97.33,197.27 97.64,196.23C97.93,195.26 98.24,194.31 98.55,193.42C98.84,192.6 99.13,191.8 99.45,191.07C99.74,190.4 100.04,189.76 100.36,189.2C100.64,188.71 100.93,188.24 101.26,187.89C101.54,187.59 101.84,187.3 102.16,187.19C102.45,187.09 102.78,187.08 103.07,187.17C103.39,187.27 103.69,187.56 103.97,187.86C104.31,188.23 104.6,188.76 104.88,189.31C105.21,189.96 105.5,190.72 105.78,191.52C106.1,192.43 106.39,193.43 106.68,194.48C107,195.64 107.29,196.91 107.59,198.17C107.9,199.48 108.15,201.02 108.49,202.19C108.77,203.13 109.1,203.84 109.4,204.7C109.71,205.6 110.01,206.53 110.3,207.49C110.61,208.51 110.92,209.57 111.21,210.66C111.52,211.8 111.82,212.98 112.11,214.17C112.42,215.41 112.71,216.68 113.01,217.97C113.32,219.29 113.62,220.64 113.92,222C114.22,223.38 114.52,224.78 114.82,226.19C115.12,227.61 115.43,229.05 115.73,230.48C116.03,231.91 116.33,233.35 116.63,234.77C116.93,236.17 117.22,237.58 117.53,238.92C117.82,240.19 118.1,241.51 118.44,242.6C118.72,243.5 118.98,244.38 119.34,245.01C119.61,245.48 119.92,245.83 120.25,246.13C120.53,246.39 120.84,246.57 121.15,246.74C121.44,246.9 121.74,247.03 122.05,247.13C122.35,247.23 122.66,247.3 122.96,247.36C123.26,247.42 123.56,247.45 123.86,247.51C124.16,247.57 124.47,247.63 124.77,247.72C125.07,247.82 125.37,247.94 125.67,248.08C125.98,248.23 126.28,248.41 126.58,248.6C126.88,248.79 127.18,249.02 127.48,249.22C127.78,249.41 128.07,249.66 128.38,249.76C128.67,249.85 129.01,249.94 129.29,249.82C129.63,249.68 129.92,249.23 130.19,248.79C130.55,248.19 130.82,247.3 131.1,246.45C131.43,245.46 131.71,244.32 132,243.17C132.31,241.92 132.61,240.58 132.9,239.21C133.21,237.74 133.52,236.19 133.81,234.61C134.12,232.93 134.41,231.17 134.71,229.4C135.02,227.57 135.32,225.67 135.62,223.79C135.92,221.9 136.22,219.98 136.52,218.09C136.82,216.23 137.11,214.37 137.42,212.56C137.72,210.82 138.02,209.09 138.33,207.43C138.62,205.86 138.92,204.31 139.23,202.85C139.52,201.5 139.82,200.18 140.14,198.96C140.43,197.87 140.71,196.81 141.04,195.87C141.32,195.06 141.61,194.28 141.95,193.66C142.23,193.16 142.5,192.65 142.85,192.39C143.12,192.19 143.46,192.04 143.75,192.08C144.07,192.13 144.39,192.44 144.66,192.75C145.01,193.15 145.28,193.77 145.56,194.39C145.9,195.14 146.19,196.04 146.47,196.96C146.79,198.01 147.08,199.18 147.37,200.39C147.69,201.72 147.98,203.15 148.27,204.62C148.58,206.2 148.89,207.86 149.18,209.56C149.49,211.35 149.78,213.21 150.08,215.1C150.39,217.07 150.69,219.1 150.99,221.15C151.3,223.26 151.59,225.41 151.89,227.57C152.19,229.76 152.49,231.99 152.79,234.19C153.09,236.38 153.4,238.57 153.7,240.73C154,242.86 154.29,244.99 154.6,247.09C154.9,249.14 155.2,251.2 155.51,253.17C155.8,255.05 156.09,256.92 156.41,258.66C156.7,260.25 156.77,262.88 157.32,263.19C157.57,263.33 157.96,263.1 158.22,262.87C158.59,262.55 158.82,261.76 159.12,261.2C159.42,260.65 159.73,260.09 160.03,259.54C160.33,258.99 160.63,258.45 160.93,257.91C161.23,257.37 161.54,256.84 161.84,256.3C162.14,255.76 162.44,255.22 162.74,254.68C163.04,254.14 163.34,253.61 163.64,253.07C163.94,252.54 164.25,252 164.55,251.47C164.85,250.95 165.15,250.44 165.45,249.94C165.75,249.45 166.06,248.97 166.36,248.49C166.66,248.02 166.96,247.57 167.26,247.1C167.56,246.62 167.87,246.16 168.16,245.64C168.47,245.08 168.78,244.5 169.07,243.87C169.39,243.18 169.68,242.42 169.97,241.65C170.28,240.83 170.58,239.95 170.88,239.08C171.18,238.19 171.48,237.28 171.78,236.39C172.08,235.51 172.37,234.63 172.68,233.77C172.98,232.94 173.28,232.11 173.59,231.31C173.89,230.54 174.18,229.79 174.49,229.06C174.79,228.36 175.09,227.69 175.4,227.03C175.7,226.4 175.99,225.8 176.3,225.21C176.6,224.65 176.9,224.11 177.21,223.59C177.51,223.09 177.8,222.61 178.11,222.14C178.4,221.69 178.7,221.25 179.01,220.83C179.31,220.43 179.61,220.04 179.92,219.67C180.21,219.32 180.51,218.97 180.82,218.67C181.11,218.39 181.42,218.12 181.73,217.92C182.02,217.73 182.32,217.57 182.63,217.47C182.92,217.37 183.23,217.32 183.53,217.32C183.83,217.32 184.14,217.39 184.44,217.49C184.75,217.59 185.05,217.75 185.34,217.92C185.65,218.11 185.95,218.34 186.25,218.58C186.56,218.83 186.85,219.1 187.15,219.38C187.45,219.66 187.75,219.97 188.05,220.26C188.35,220.54 188.65,220.84 188.96,221.09C189.25,221.33 189.54,221.6 189.86,221.73C190.15,221.85 190.49,221.96 190.77,221.88C191.09,221.79 191.4,221.43 191.67,221.08C192.02,220.64 192.29,219.96 192.58,219.35C192.89,218.69 193.18,217.94 193.48,217.24C193.78,216.54 194.07,215.83 194.38,215.16C194.68,214.52 194.97,213.88 195.29,213.3C195.58,212.77 195.87,212.26 196.19,211.83C196.48,211.45 196.77,211.08 197.1,210.83C197.38,210.62 197.69,210.43 198,210.39C198.29,210.35 198.62,210.41 198.9,210.55C199.23,210.71 199.53,211.03 199.81,211.37C200.14,211.77 200.43,212.3 200.71,212.85C201.04,213.49 201.33,214.22 201.62,214.99C201.94,215.85 202.23,216.8 202.52,217.77C202.83,218.83 203.13,219.95 203.42,221.1C203.73,222.32 204.03,223.6 204.33,224.88C204.64,226.19 204.93,227.54 205.23,228.87C205.53,230.19 205.83,231.52 206.14,232.82C206.44,234.08 206.73,235.33 207.04,236.56C207.34,237.76 207.65,238.94 207.95,240.13C208.25,241.31 208.55,242.49 208.85,243.68C209.15,244.88 209.45,246.09 209.75,247.31C210.05,248.55 210.36,249.81 210.66,251.07C210.96,252.34 211.26,253.63 211.56,254.91C211.86,256.18 212.16,257.48 212.47,258.72C212.77,259.92 213.05,261.14 213.37,262.25C213.66,263.26 213.92,264.31 214.27,265.12C214.54,265.75 214.81,266.62 215.18,266.74C215.45,266.83 215.82,266.61 216.08,266.35C216.47,265.97 216.71,265.12 216.99,264.36C217.33,263.42 217.61,262.29 217.89,261.12C218.22,259.77 218.5,258.27 218.79,256.72C219.11,255.01 219.41,253.17 219.7,251.3C220.01,249.32 220.3,247.23 220.6,245.15C220.91,243 221.21,240.8 221.51,238.61C221.81,236.41 222.11,234.18 222.41,231.98C222.71,229.8 223.01,227.61 223.32,225.47C223.62,223.37 223.92,221.29 224.22,219.25C224.52,217.27 224.81,215.32 225.12,213.42C225.42,211.6 225.72,209.81 226.03,208.08C226.32,206.43 226.62,204.82 226.93,203.27C227.22,201.81 227.53,200.39 227.84,199.03C228.13,197.77 228.43,196.55 228.74,195.4C229.03,194.35 229.32,193.34 229.64,192.4C229.93,191.56 230.23,190.75 230.55,190.03C230.83,189.4 231.12,188.8 231.45,188.3C231.73,187.86 232.03,187.46 232.36,187.15C232.64,186.88 232.95,186.66 233.26,186.52C233.55,186.39 233.86,186.33 234.16,186.32C234.46,186.31 234.78,186.37 235.07,186.47C235.38,186.58 235.68,186.76 235.97,186.98C236.29,187.23 236.6,187.54 236.88,187.9C237.2,188.31 237.5,188.79 237.78,189.31C238.1,189.9 238.39,190.56 238.68,191.25C239,192.02 239.3,192.87 239.59,193.75C239.91,194.7 240.2,195.73 240.49,196.77C240.8,197.89 241.1,199.06 241.4,200.25C241.71,201.5 242,202.8 242.3,204.09C242.6,205.41 242.91,206.76 243.21,208.09C243.51,209.41 243.8,210.75 244.11,212.02C244.4,213.22 244.68,214.45 245.01,215.51C245.29,216.43 245.53,217.45 245.92,218.03C246.18,218.42 246.54,218.89 246.82,218.85C247.15,218.81 247.47,218.06 247.73,217.46C248.12,216.57 248.36,215.22 248.63,213.89C248.97,212.24 249.25,210.3 249.53,208.31C249.85,206.04 250.15,203.55 250.44,201.02C250.75,198.28 251.04,195.38 251.34,192.47C251.65,189.43 251.95,186.29 252.25,183.16C252.55,179.98 252.85,176.74 253.15,173.53C253.45,170.32 253.75,167.09 254.05,163.9C254.35,160.76 254.65,157.63 254.96,154.55C255.26,151.55 255.55,148.56 255.86,145.65C256.16,142.84 256.46,140.07 256.77,137.37C257.07,134.79 257.36,132.26 257.67,129.82C257.96,127.51 258.27,125.26 258.58,123.1C258.87,121.09 259.17,119.14 259.48,117.29C259.77,115.6 260.06,113.96 260.38,112.43C260.67,111.06 260.97,109.74 261.29,108.54C261.57,107.49 261.86,106.49 262.19,105.63C262.47,104.9 262.76,104.2 263.1,103.67C263.37,103.24 263.66,102.82 264,102.62C264.28,102.45 264.61,102.36 264.9,102.41C265.21,102.46 265.53,102.7 265.81,102.95C266.14,103.25 266.43,103.69 266.71,104.14C267.03,104.65 267.33,105.25 267.62,105.86C267.94,106.53 268.23,107.25 268.52,108C268.83,108.8 269.13,109.66 269.42,110.53C269.73,111.46 270.04,112.42 270.33,113.43C270.64,114.51 270.94,115.64 271.23,116.81C271.54,118.07 271.85,119.38 272.14,120.75C272.45,122.22 272.75,123.76 273.04,125.35C273.35,127.05 273.66,128.82 273.95,130.64C274.26,132.57 274.56,134.58 274.85,136.62C275.16,138.76 275.45,140.97 275.75,143.21C276.06,145.53 276.36,147.92 276.66,150.32C276.97,152.77 277.26,155.27 277.56,157.76C277.86,160.27 278.17,162.81 278.47,165.31C278.77,167.78 279.06,170.28 279.37,172.69C279.66,175 279.95,177.32 280.27,179.49C280.56,181.48 280.85,183.49 281.18,185.22C281.46,186.66 281.61,188.42 282.08,189.17C282.33,189.57 282.73,189.96 282.99,189.88C283.39,189.76 283.62,188.32 283.89,187.36C284.24,186.15 284.5,184.64 284.79,183.15C285.11,181.47 285.41,179.65 285.7,177.78C286.01,175.76 286.31,173.63 286.6,171.45C286.91,169.14 287.22,166.73 287.51,164.28C287.82,161.71 288.11,159.07 288.41,156.39C288.72,153.61 289.02,150.75 289.32,147.89C289.63,144.96 289.92,141.98 290.22,139.01C290.52,136.02 290.82,133 291.12,130.02C291.42,127.07 291.72,124.1 292.03,121.2C292.33,118.37 292.62,115.56 292.93,112.82C293.23,110.19 293.53,107.58 293.84,105.07C294.13,102.68 294.43,100.34 294.74,98.1C295.03,96 295.32,93.96 295.64,92.02C295.93,90.24 296.23,88.51 296.55,86.89C296.84,85.43 297.13,84.03 297.45,82.75C297.74,81.62 298.03,80.54 298.36,79.58C298.64,78.76 298.93,77.97 299.26,77.33C299.54,76.8 299.82,76.3 300.16,75.95C300.44,75.66 300.75,75.42 301.07,75.32C301.36,75.23 301.68,75.24 301.97,75.31C302.28,75.38 302.59,75.58 302.88,75.78C303.19,75.99 303.49,76.28 303.78,76.57C304.09,76.87 304.38,77.22 304.68,77.55C304.98,77.89 305.29,78.25 305.59,78.6C305.89,78.95 306.19,79.3 306.49,79.66C306.79,80.02 307.1,80.37 307.4,80.74C307.7,81.11 308,81.49 308.3,81.88C308.61,82.29 308.92,82.7 309.21,83.15C309.52,83.62 309.82,84.11 310.11,84.63C310.42,85.19 310.72,85.79 311.01,86.42C311.32,87.1 311.63,87.82 311.92,88.57C312.23,89.39 312.53,90.25 312.82,91.15C313.13,92.12 313.44,93.14 313.73,94.2C314.04,95.34 314.34,96.53 314.63,97.76C314.94,99.08 315.24,100.45 315.53,101.86C315.84,103.36 316.15,104.91 316.44,106.5C316.75,108.18 317.05,109.92 317.34,111.7C317.65,113.57 317.95,115.49 318.25,117.45C318.56,119.49 318.86,121.59 319.15,123.72C319.46,125.93 319.75,128.2 320.05,130.49C320.36,132.86 320.66,135.27 320.96,137.71C321.27,140.21 321.56,142.76 321.86,145.32C322.16,147.94 322.47,150.6 322.77,153.27C323.07,155.98 323.37,158.72 323.67,161.47C323.97,164.24 324.28,167.04 324.58,169.83C324.88,172.63 325.18,175.45 325.48,178.26C325.78,181.06 326.08,183.87 326.38,186.66C326.68,189.43 326.99,192.19 327.29,194.92C327.59,197.61 327.88,200.3 328.19,202.94C328.49,205.53 328.79,208.09 329.1,210.61C329.4,213.06 329.69,215.48 330,217.84C330.29,220.11 330.59,222.33 330.9,224.5C331.2,226.57 331.5,228.58 331.81,230.56C332.11,232.45 332.4,234.3 332.71,236.12C333.01,237.89 333.32,239.63 333.62,241.35C333.92,243.04 334.22,244.7 334.52,246.36C334.82,247.99 335.12,249.61 335.42,251.21C335.72,252.78 336.02,254.34 336.33,255.88C336.63,257.38 336.92,258.86 337.23,260.31C337.53,261.71 337.83,263.1 338.14,264.44C338.43,265.71 338.73,266.97 339.04,268.16C339.33,269.27 339.63,270.36 339.95,271.35C340.24,272.24 340.52,273.12 340.85,273.85C341.13,274.47 341.39,275.12 341.75,275.49C342.02,275.77 342.39,276.11 342.66,276.04C343.02,275.95 343.29,275.05 343.56,274.43C343.9,273.65 344.18,272.63 344.47,271.66C344.78,270.61 345.07,269.48 345.37,268.37C345.67,267.25 345.97,266.1 346.27,264.97C346.57,263.85 346.88,262.72 347.18,261.62C347.48,260.54 347.77,259.47 348.08,258.41C348.38,257.38 348.68,256.35 348.99,255.35C349.29,254.38 349.58,253.41 349.89,252.48C350.18,251.58 350.48,250.7 350.79,249.85C351.08,249.04 351.39,248.26 351.7,247.51C351.99,246.81 352.29,246.12 352.6,245.49C352.89,244.9 353.19,244.34 353.51,243.83C353.8,243.36 354.09,242.91 354.41,242.52C354.7,242.16 355.01,241.84 355.32,241.56C355.61,241.3 355.91,241.08 356.22,240.89C356.51,240.71 356.82,240.58 357.12,240.44C357.42,240.3 357.73,240.2 358.03,240.07C358.33,239.94 358.63,239.82 358.93,239.67C359.24,239.51 359.56,239.39 359.84,239.15C360.17,238.88 360.46,238.48 360.74,238.07C361.06,237.61 361.34,237.03 361.64,236.5C361.94,235.97 362.25,235.42 362.55,234.89C362.85,234.36 363.15,233.84 363.45,233.31C363.75,232.79 364.06,232.27 364.36,231.74C364.66,231.2 364.96,230.67 365.26,230.11C365.56,229.54 365.86,228.96 366.16,228.36C366.47,227.74 366.77,227.1 367.07,226.45C367.38,225.78 367.67,225.08 367.97,224.38C368.27,223.67 368.58,222.94 368.88,222.21C369.18,221.48 369.48,220.74 369.78,220.01C370.08,219.3 370.37,218.58 370.68,217.89C370.98,217.22 371.28,216.55 371.59,215.91C371.88,215.31 372.18,214.71 372.49,214.16C372.78,213.64 373.08,213.15 373.4,212.7C373.69,212.29 373.98,211.9 374.3,211.58C374.59,211.29 374.89,211.01 375.21,210.83C375.5,210.67 375.81,210.54 376.11,210.5C376.41,210.46 376.72,210.5 377.01,210.6C377.32,210.71 377.63,210.91 377.92,211.14C378.24,211.4 378.53,211.76 378.82,212.13C379.14,212.55 379.44,213.04 379.73,213.56C380.05,214.13 380.34,214.76 380.63,215.42C380.94,216.13 381.24,216.9 381.53,217.69C381.84,218.54 382.15,219.43 382.44,220.34C382.75,221.3 383.04,222.3 383.34,223.31C383.65,224.35 383.95,225.43 384.25,226.49C384.55,227.56 384.84,228.65 385.15,229.7C385.44,230.71 385.73,231.72 386.05,232.66C386.34,233.52 386.63,234.38 386.96,235.13C387.24,235.78 387.52,236.42 387.86,236.91C388.14,237.31 388.44,237.69 388.77,237.9C389.05,238.08 389.37,238.18 389.67,238.19C389.97,238.2 390.29,238.1 390.58,237.98C390.89,237.86 391.19,237.65 391.48,237.45C391.79,237.23 392.08,236.97 392.38,236.71C392.69,236.44 392.99,236.13 393.29,235.83C393.59,235.52 393.89,235.19 394.19,234.87C394.49,234.55 394.8,234.21 395.1,233.89C395.4,233.57 395.7,233.25 396,232.95C396.3,232.66 396.59,232.36 396.9,232.1C397.2,231.85 397.5,231.61 397.81,231.41C398.1,231.22 398.4,231.05 398.71,230.94C399.01,230.83 399.32,230.75 399.62,230.74C399.92,230.73 400.23,230.78 400.52,230.88C400.83,230.98 401.13,231.16 401.42,231.37C401.74,231.6 402.04,231.91 402.33,232.24C402.65,232.61 402.94,233.04 403.23,233.49C403.55,233.99 403.85,234.56 404.14,235.14C404.45,235.77 404.75,236.46 405.04,237.16C405.35,237.91 405.66,238.71 405.95,239.53C406.26,240.39 406.56,241.29 406.85,242.21C407.16,243.17 407.45,244.17 407.75,245.16C408.05,246.17 408.33,247.29 408.66,248.22C408.94,249.03 409.15,250.04 409.56,250.44C409.82,250.7 410.17,250.68 410.47,250.79C410.77,250.89 411.08,250.93 411.37,251.07C411.68,251.22 411.98,251.44 412.27,251.7C412.59,251.99 412.89,252.36 413.18,252.76C413.5,253.2 413.79,253.72 414.08,254.26C414.4,254.85 414.7,255.5 414.99,256.18C415.31,256.91 415.6,257.7 415.89,258.51C416.2,259.37 416.5,260.28 416.79,261.2C417.1,262.17 417.4,263.18 417.7,264.2C418.01,265.26 418.3,266.36 418.6,267.44C418.9,268.52 419.2,269.61 419.51,270.67C419.81,271.69 420.11,272.66 420.41,273.67C420.71,274.69 421.02,275.71 421.32,276.74C421.62,277.77 421.92,278.81 422.22,279.85C422.52,280.89 422.82,281.94 423.12,282.98C423.42,284.02 423.72,285.08 424.03,286.09C424.33,287.06 424.47,288.64 424.93,288.94C425.18,289.11 425.56,288.97 425.84,288.84C426.17,288.7 426.44,288.32 426.74,288.04C427.04,287.76 427.35,287.48 427.64,287.16C427.95,286.81 428.25,286.39 428.55,286C428.85,285.61 429.14,285.19 429.45,284.84C429.74,284.51 430.04,284.2 430.36,283.94C430.65,283.71 430.96,283.56 431.26,283.35C431.56,283.13 431.89,282.95 432.16,282.64C432.5,282.25 432.77,281.63 433.07,281.11C433.37,280.58 433.67,280.05 433.97,279.5C434.28,278.93 434.56,278.29 434.88,277.76C435.17,277.29 435.45,276.83 435.78,276.47C436.06,276.16 436.36,275.87 436.68,275.71C436.97,275.56 437.29,275.47 437.59,275.48C437.89,275.49 438.2,275.6 438.49,275.75C438.81,275.92 439.11,276.18 439.4,276.47C439.72,276.79 440.01,277.18 440.3,277.59C440.62,278.03 440.91,278.54 441.21,279.04C441.52,279.57 441.81,280.15 442.11,280.69C442.41,281.23 442.67,281.88 443.01,282.28C443.29,282.6 443.62,283 443.92,283.01C444.22,283.02 444.54,282.62 444.82,282.34C445.15,282.02 445.43,281.56 445.73,281.15C446.03,280.74 446.33,280.3 446.63,279.88C446.93,279.46 447.23,279.04 447.53,278.61C447.83,278.18 448.14,277.73 448.44,277.3C448.74,276.87 449.03,276.41 449.34,276.01C449.63,275.63 449.93,275.24 450.25,274.93C450.54,274.65 450.83,274.39 451.15,274.23C451.44,274.09 451.75,273.99 452.05,273.99C452.35,273.99 452.67,274.09 452.96,274.25C453.28,274.43 453.58,274.72 453.86,275.04C454.19,275.41 454.48,275.87 454.77,276.35C455.09,276.89 455.38,277.51 455.67,278.15C455.99,278.85 456.29,279.62 456.58,280.41C456.89,281.26 457.19,282.16 457.48,283.07C457.79,284.03 458.08,285.04 458.38,286.05C458.69,287.1 458.99,288.18 459.29,289.25C459.59,290.33 459.89,291.44 460.19,292.52C460.49,293.58 460.78,294.67 461.1,295.67Q461.39,296.59 462,298.3" style="vector-effect: non-scaling-stroke; fill: none; stroke: rgb(0, 176, 246); stroke-opacity: 1; stroke-width: 2px; opacity: 1;"/></g><g class="points"/><g class="text"/></g><g class="trace scatter trace3de00e" style="stroke-miterlimit: 2; opacity: 1;"><g class="fills"/><g class="errorbars"/><g class="lines"><path class="js-line" d="M0,181.44Q0.64,179.8 0.9,178.69C1.28,177.08 1.52,174.79 1.81,172.65C2.13,170.23 2.42,167.56 2.71,164.89C3.02,162.04 3.32,159.05 3.62,156.04C3.93,152.92 4.22,149.7 4.52,146.48C4.82,143.19 5.12,139.85 5.42,136.51C5.72,133.14 6.03,129.74 6.33,126.35C6.63,122.97 6.93,119.57 7.23,116.2C7.53,112.85 7.84,109.51 8.14,106.2C8.44,102.94 8.74,99.7 9.04,96.5C9.34,93.37 9.64,90.26 9.95,87.2C10.25,84.23 10.54,81.29 10.85,78.42C11.14,75.64 11.44,72.91 11.75,70.24C12.05,67.68 12.35,65.17 12.66,62.74C12.95,60.43 13.25,58.17 13.56,55.99C13.85,53.94 14.16,51.94 14.47,50.03C14.76,48.26 15.06,46.55 15.37,44.93C15.66,43.45 15.95,42.03 16.27,40.71C16.56,39.54 16.85,38.41 17.18,37.41C17.46,36.55 17.74,35.71 18.08,35.04C18.36,34.49 18.64,33.94 18.99,33.62C19.26,33.37 19.59,33.15 19.89,33.15C20.19,33.15 20.52,33.38 20.79,33.63C21.14,33.95 21.42,34.51 21.7,35.06C22.04,35.73 22.32,36.55 22.6,37.4C22.93,38.39 23.22,39.5 23.51,40.65C23.83,41.94 24.12,43.33 24.41,44.77C24.73,46.34 25.03,48.01 25.32,49.72C25.63,51.56 25.93,53.49 26.22,55.46C26.53,57.55 26.83,59.72 27.12,61.93C27.43,64.25 27.73,66.64 28.03,69.07C28.34,71.6 28.63,74.19 28.93,76.82C29.24,79.53 29.54,82.3 29.84,85.09C30.15,87.95 30.44,90.86 30.74,93.79C31.04,96.77 31.34,99.78 31.64,102.8C31.94,105.85 32.25,108.92 32.55,111.98C32.85,115.04 33.15,118.12 33.45,121.17C33.75,124.19 34.05,127.2 34.36,130.17C34.66,133.07 34.95,135.96 35.26,138.78C35.56,141.5 35.85,144.2 36.16,146.81C36.46,149.31 36.76,151.76 37.07,154.14C37.36,156.39 37.66,158.59 37.97,160.72C38.26,162.74 38.57,164.71 38.88,166.62C39.17,168.43 39.47,170.19 39.78,171.91C40.07,173.55 40.37,175.15 40.68,176.72C40.98,178.23 41.28,179.69 41.59,181.14C41.89,182.54 42.18,183.91 42.49,185.26C42.79,186.58 43.09,187.87 43.4,189.15C43.7,190.39 43.99,191.62 44.3,192.82C44.6,193.98 44.9,195.13 45.21,196.25C45.51,197.32 45.8,198.37 46.11,199.38C46.4,200.33 46.69,201.28 47.01,202.15C47.3,202.95 47.6,203.73 47.92,204.44C48.21,205.07 48.49,205.69 48.82,206.2C49.1,206.64 49.4,207.06 49.73,207.36C50.01,207.61 50.32,207.83 50.63,207.93C50.92,208.02 51.24,208.03 51.53,207.97C51.84,207.91 52.15,207.74 52.44,207.57C52.75,207.38 53.05,207.12 53.34,206.87C53.65,206.6 53.95,206.3 54.25,206.01C54.55,205.72 54.85,205.41 55.15,205.13C55.45,204.85 55.74,204.57 56.05,204.33C56.35,204.1 56.65,203.88 56.96,203.71C57.25,203.55 57.55,203.4 57.86,203.32C58.16,203.24 58.47,203.2 58.77,203.2C59.07,203.2 59.37,203.25 59.67,203.33C59.98,203.41 60.28,203.55 60.58,203.69C60.89,203.83 61.18,204.01 61.48,204.18C61.78,204.35 62.07,204.55 62.38,204.7C62.68,204.85 62.98,205.02 63.29,205.07C63.59,205.12 63.9,205.11 64.19,205.02C64.5,204.93 64.81,204.69 65.1,204.49C65.41,204.28 65.7,204 66,203.76C66.3,203.52 66.6,203.27 66.9,203.03C67.2,202.8 67.5,202.56 67.81,202.35C68.11,202.15 68.4,201.94 68.71,201.79C69,201.65 69.31,201.52 69.62,201.47C69.92,201.42 70.23,201.4 70.52,201.47C70.83,201.54 71.14,201.7 71.42,201.9C71.74,202.13 72.04,202.45 72.33,202.8C72.65,203.2 72.94,203.68 73.23,204.18C73.55,204.75 73.85,205.39 74.14,206.05C74.46,206.78 74.75,207.57 75.04,208.39C75.35,209.27 75.66,210.2 75.95,211.15C76.26,212.16 76.56,213.21 76.85,214.27C77.16,215.38 77.45,216.52 77.75,217.67C78.06,218.85 78.36,220.06 78.66,221.26C78.96,222.47 79.26,223.7 79.56,224.9C79.86,226.08 80.16,227.28 80.47,228.42C80.76,229.51 81.05,230.59 81.37,231.59C81.66,232.49 81.93,233.42 82.27,234.15C82.55,234.74 82.81,235.5 83.18,235.69C83.44,235.82 83.81,235.76 84.08,235.6C84.44,235.38 84.72,234.76 84.99,234.19C85.34,233.45 85.61,232.47 85.89,231.48C86.22,230.3 86.5,228.9 86.79,227.55C87.1,226.11 87.4,224.59 87.7,223.08C88.01,221.54 88.3,219.96 88.6,218.39C88.9,216.81 89.21,215.21 89.51,213.63C89.81,212.06 90.11,210.48 90.41,208.92C90.71,207.38 91.02,205.85 91.32,204.34C91.62,202.86 91.92,201.4 92.22,199.96C92.52,198.56 92.81,197.18 93.12,195.83C93.42,194.53 93.72,193.25 94.03,192.01C94.33,190.82 94.62,189.65 94.93,188.53C95.22,187.46 95.53,186.42 95.84,185.43C96.13,184.5 96.43,183.6 96.74,182.75C97.03,181.97 97.32,181.21 97.64,180.52C97.93,179.89 98.23,179.29 98.55,178.76C98.84,178.29 99.13,177.84 99.45,177.48C99.73,177.17 100.04,176.88 100.36,176.7C100.65,176.54 100.96,176.42 101.26,176.41C101.56,176.4 101.87,176.49 102.16,176.63C102.48,176.79 102.79,177.05 103.07,177.34C103.39,177.67 103.68,178.1 103.97,178.54C104.29,179.04 104.59,179.61 104.88,180.2C105.2,180.85 105.49,181.57 105.78,182.31C106.09,183.11 106.39,183.97 106.68,184.85C106.99,185.79 107.3,186.76 107.59,187.77C107.9,188.83 108.19,189.94 108.49,191.06C108.8,192.24 109.1,193.45 109.4,194.68C109.71,195.95 110,197.26 110.3,198.58C110.61,199.94 110.91,201.33 111.21,202.73C111.52,204.16 111.81,205.62 112.11,207.09C112.41,208.59 112.71,210.1 113.01,211.62C113.31,213.16 113.62,214.71 113.92,216.26C114.22,217.83 114.52,219.41 114.82,220.99C115.12,222.58 115.43,224.17 115.73,225.76C116.03,227.35 116.33,228.94 116.63,230.52C116.93,232.09 117.22,233.68 117.53,235.21C117.83,236.68 118.12,238.2 118.44,239.54C118.72,240.72 119.03,241.77 119.34,242.84C119.63,243.85 119.94,244.84 120.25,245.78C120.54,246.66 120.83,247.54 121.15,248.31C121.43,248.99 121.72,249.63 122.05,250.18C122.33,250.66 122.62,251.16 122.96,251.45C123.24,251.69 123.56,251.92 123.86,251.91C124.16,251.9 124.48,251.62 124.77,251.4C125.09,251.16 125.38,250.86 125.67,250.53C125.99,250.16 126.3,249.75 126.58,249.28C126.91,248.74 127.19,248.11 127.48,247.46C127.8,246.73 128.09,245.91 128.38,245.09C128.69,244.22 128.99,243.32 129.29,242.4C129.6,241.45 129.89,240.47 130.19,239.48C130.5,238.47 130.8,237.45 131.1,236.41C131.4,235.36 131.7,234.28 132,233.21C132.3,232.13 132.6,231.03 132.9,229.94C133.2,228.84 133.51,227.73 133.81,226.63C134.11,225.53 134.41,224.44 134.71,223.35C135.01,222.27 135.32,221.19 135.62,220.12C135.92,219.07 136.22,218.03 136.52,217.01C136.82,216.01 137.11,215.02 137.42,214.05C137.72,213.11 138.02,212.19 138.33,211.29C138.63,210.43 138.92,209.58 139.23,208.76C139.52,207.98 139.83,207.23 140.14,206.51C140.43,205.83 140.73,205.17 141.04,204.56C141.33,203.99 141.63,203.44 141.95,202.94C142.24,202.48 142.53,202.04 142.85,201.67C143.14,201.33 143.43,201.02 143.75,200.78C144.04,200.56 144.35,200.38 144.66,200.28C144.95,200.19 145.26,200.15 145.56,200.18C145.87,200.21 146.18,200.33 146.47,200.49C146.79,200.66 147.08,200.92 147.37,201.2C147.69,201.51 147.98,201.89 148.27,202.3C148.59,202.75 148.89,203.26 149.18,203.79C149.5,204.37 149.79,204.99 150.08,205.64C150.39,206.33 150.7,207.06 150.99,207.81C151.3,208.61 151.6,209.44 151.89,210.29C152.2,211.18 152.49,212.11 152.79,213.05C153.1,214.03 153.4,215.04 153.7,216.06C154.01,217.12 154.3,218.2 154.6,219.29C154.91,220.41 155.21,221.56 155.51,222.71C155.81,223.89 156.11,225.08 156.41,226.28C156.71,227.49 157.02,228.71 157.32,229.92C157.62,231.12 157.92,232.34 158.22,233.52C158.52,234.68 158.81,235.84 159.12,236.95C159.41,237.99 159.71,239.03 160.03,239.98C160.32,240.84 160.61,241.68 160.93,242.43C161.22,243.1 161.51,243.73 161.84,244.27C162.12,244.74 162.41,245.19 162.74,245.52C163.02,245.81 163.32,246.06 163.64,246.2C163.93,246.33 164.25,246.4 164.55,246.39C164.85,246.38 165.16,246.29 165.45,246.17C165.76,246.04 166.07,245.85 166.36,245.64C166.67,245.42 166.97,245.14 167.26,244.86C167.57,244.57 167.86,244.25 168.16,243.92C168.47,243.58 168.77,243.23 169.07,242.86C169.38,242.48 169.67,242.09 169.97,241.68C170.28,241.25 170.58,240.81 170.88,240.35C171.19,239.87 171.49,239.37 171.78,238.86C172.09,238.33 172.38,237.78 172.68,237.22C172.99,236.64 173.29,236.06 173.59,235.45C173.9,234.81 174.19,234.14 174.49,233.48C174.79,232.82 175.09,232.14 175.4,231.5C175.7,230.88 175.99,230.27 176.3,229.68C176.6,229.12 176.9,228.57 177.21,228.04C177.51,227.54 177.8,227.05 178.11,226.58C178.4,226.13 178.7,225.68 179.01,225.27C179.3,224.88 179.61,224.51 179.92,224.17C180.21,223.85 180.51,223.55 180.82,223.27C181.12,223.01 181.42,222.77 181.73,222.55C182.03,222.34 182.33,222.15 182.63,221.97C182.93,221.8 183.23,221.64 183.53,221.49C183.83,221.34 184.14,221.21 184.44,221.08C184.74,220.95 185.04,220.84 185.34,220.73C185.64,220.62 185.95,220.53 186.25,220.43C186.55,220.34 186.85,220.25 187.15,220.16C187.45,220.07 187.75,219.99 188.05,219.9C188.35,219.81 188.66,219.73 188.96,219.63C189.26,219.54 189.56,219.44 189.86,219.33C190.16,219.22 190.47,219.11 190.77,218.99C191.07,218.87 191.37,218.74 191.67,218.61C191.97,218.48 192.28,218.35 192.58,218.22C192.88,218.09 193.18,217.96 193.48,217.85C193.78,217.74 194.08,217.63 194.38,217.54C194.68,217.46 194.99,217.38 195.29,217.34C195.59,217.3 195.89,217.27 196.19,217.29C196.49,217.31 196.8,217.35 197.1,217.44C197.41,217.53 197.71,217.67 198,217.84C198.31,218.03 198.61,218.27 198.9,218.54C199.22,218.84 199.52,219.2 199.81,219.58C200.13,220 200.42,220.48 200.71,220.98C201.03,221.53 201.33,222.14 201.62,222.77C201.94,223.46 202.23,224.21 202.52,224.98C202.83,225.81 203.13,226.7 203.42,227.61C203.73,228.59 204.04,229.61 204.33,230.66C204.64,231.77 204.94,232.93 205.23,234.12C205.54,235.37 205.84,236.66 206.14,237.97C206.45,239.34 206.74,240.74 207.04,242.17C207.35,243.65 207.65,245.17 207.95,246.7C208.26,248.28 208.55,249.89 208.85,251.5C209.15,253.14 209.45,254.81 209.75,256.47C210.05,258.14 210.36,259.83 210.66,261.5C210.96,263.15 211.25,264.82 211.56,266.43C211.86,267.99 212.15,269.59 212.47,271.04C212.76,272.35 213.03,273.68 213.37,274.78C213.65,275.68 213.94,276.47 214.27,277.19C214.55,277.8 214.85,278.36 215.18,278.84C215.46,279.26 215.75,279.69 216.08,279.95C216.36,280.17 216.69,280.39 216.99,280.38C217.29,280.37 217.62,280.17 217.89,279.91C218.25,279.57 218.52,278.97 218.79,278.37C219.13,277.62 219.42,276.69 219.7,275.74C220.03,274.64 220.31,273.42 220.6,272.16C220.92,270.78 221.22,269.3 221.51,267.8C221.82,266.22 222.11,264.55 222.41,262.9C222.72,261.21 223.02,259.47 223.32,257.75C223.62,256.03 223.92,254.3 224.22,252.57C224.52,250.84 224.82,249.09 225.12,247.37C225.42,245.67 225.72,243.97 226.03,242.3C226.33,240.68 226.62,239.06 226.93,237.5C227.23,236 227.53,234.51 227.84,233.09C228.13,231.75 228.43,230.44 228.74,229.19C229.03,228.03 229.32,226.91 229.64,225.86C229.93,224.89 230.23,223.96 230.55,223.1C230.84,222.33 231.12,221.59 231.45,220.95C231.73,220.4 232.02,219.87 232.36,219.47C232.64,219.14 232.94,218.83 233.26,218.69C233.54,218.57 233.87,218.54 234.16,218.61C234.48,218.69 234.79,218.94 235.07,219.2C235.4,219.51 235.69,219.96 235.97,220.41C236.29,220.93 236.59,221.54 236.88,222.16C237.2,222.84 237.49,223.59 237.78,224.34C238.09,225.13 238.38,225.96 238.68,226.77C238.98,227.58 239.28,228.39 239.59,229.19C239.89,229.97 240.19,230.72 240.49,231.49C240.79,232.26 241.1,233.03 241.4,233.81C241.7,234.59 242,235.39 242.3,236.17C242.6,236.95 242.9,237.74 243.21,238.51C243.51,239.26 243.8,240.02 244.11,240.73C244.4,241.4 244.69,242.08 245.01,242.67C245.3,243.21 245.58,243.76 245.92,244.15C246.2,244.47 246.5,244.85 246.82,244.92C247.11,244.99 247.46,244.89 247.73,244.68C248.1,244.39 248.36,243.73 248.63,243.09C248.99,242.23 249.25,241.08 249.53,239.92C249.86,238.52 250.15,236.9 250.44,235.26C250.76,233.42 251.05,231.42 251.34,229.41C251.65,227.27 251.95,225.02 252.25,222.77C252.56,220.45 252.85,218.07 253.15,215.7C253.45,213.3 253.75,210.87 254.05,208.46C254.35,206.06 254.66,203.64 254.96,201.26C255.26,198.91 255.55,196.57 255.86,194.27C256.16,192.02 256.46,189.79 256.77,187.61C257.07,185.5 257.36,183.41 257.67,181.38C257.97,179.43 258.27,177.52 258.58,175.66C258.87,173.9 259.17,172.17 259.48,170.51C259.77,168.95 260.07,167.43 260.38,165.98C260.67,164.64 260.97,163.34 261.29,162.12C261.58,161 261.87,159.92 262.19,158.93C262.48,158.05 262.77,157.2 263.1,156.45C263.38,155.8 263.67,155.18 264,154.69C264.28,154.28 264.57,153.88 264.9,153.65C265.18,153.46 265.51,153.31 265.81,153.32C266.11,153.33 266.43,153.5 266.71,153.7C267.04,153.94 267.34,154.33 267.62,154.74C267.95,155.21 268.24,155.8 268.52,156.4C268.84,157.08 269.13,157.83 269.42,158.61C269.73,159.45 270.04,160.35 270.33,161.27C270.64,162.24 270.93,163.25 271.23,164.27C271.54,165.32 271.84,166.4 272.14,167.47C272.44,168.55 272.74,169.65 273.04,170.74C273.34,171.82 273.65,172.91 273.95,173.98C274.25,175.03 274.55,176.07 274.85,177.1C275.15,178.1 275.44,179.1 275.75,180.07C276.05,181 276.35,181.93 276.66,182.81C276.95,183.65 277.24,184.48 277.56,185.24C277.85,185.94 278.14,186.64 278.47,187.23C278.75,187.74 279.03,188.27 279.37,188.59C279.64,188.85 279.97,189.11 280.27,189.11C280.57,189.11 280.91,188.85 281.18,188.56C281.55,188.15 281.81,187.41 282.08,186.68C282.43,185.73 282.71,184.51 282.99,183.28C283.32,181.84 283.6,180.21 283.89,178.56C284.2,176.77 284.5,174.85 284.79,172.92C285.1,170.88 285.4,168.76 285.7,166.62C286.01,164.4 286.3,162.13 286.6,159.84C286.91,157.5 287.21,155.11 287.51,152.72C287.81,150.3 288.11,147.87 288.41,145.43C288.71,142.98 289.02,140.52 289.32,138.07C289.62,135.63 289.92,133.2 290.22,130.78C290.52,128.39 290.82,126 291.12,123.65C291.42,121.34 291.72,119.05 292.03,116.79C292.33,114.59 292.62,112.41 292.93,110.27C293.23,108.2 293.53,106.17 293.84,104.18C294.14,102.27 294.43,100.38 294.74,98.56C295.03,96.83 295.33,95.13 295.64,93.49C295.93,91.94 296.24,90.43 296.55,88.99C296.84,87.64 297.13,86.34 297.45,85.1C297.74,83.96 298.04,82.87 298.36,81.85C298.65,80.93 298.94,80.05 299.26,79.25C299.54,78.55 299.83,77.88 300.16,77.31C300.44,76.82 300.74,76.35 301.07,76.01C301.35,75.72 301.65,75.46 301.97,75.35C302.26,75.25 302.59,75.23 302.88,75.3C303.19,75.38 303.5,75.59 303.78,75.83C304.11,76.11 304.4,76.5 304.68,76.91C305,77.38 305.3,77.93 305.59,78.5C305.91,79.13 306.2,79.83 306.49,80.55C306.8,81.33 307.11,82.17 307.4,83.02C307.71,83.93 308.01,84.88 308.3,85.85C308.61,86.87 308.91,87.92 309.21,88.99C309.52,90.1 309.81,91.25 310.11,92.41C310.41,93.6 310.71,94.82 311.01,96.05C311.31,97.3 311.62,98.58 311.92,99.86C312.22,101.17 312.52,102.49 312.82,103.82C313.12,105.16 313.43,106.52 313.73,107.88C314.03,109.26 314.33,110.64 314.63,112.03C314.93,113.43 315.23,114.84 315.53,116.25C315.83,117.68 316.14,119.12 316.44,120.56C316.74,122.02 317.04,123.48 317.34,124.96C317.64,126.46 317.95,127.96 318.25,129.48C318.55,131.02 318.85,132.57 319.15,134.14C319.45,135.73 319.75,137.33 320.05,138.95C320.35,140.6 320.66,142.26 320.96,143.94C321.26,145.65 321.56,147.37 321.86,149.11C322.16,150.88 322.47,152.67 322.77,154.48C323.07,156.32 323.37,158.17 323.67,160.04C323.97,161.94 324.28,163.86 324.58,165.79C324.88,167.75 325.18,169.73 325.48,171.72C325.78,173.74 326.08,175.77 326.38,177.81C326.68,179.88 326.99,181.96 327.29,184.05C327.59,186.16 327.89,188.28 328.19,190.41C328.49,192.55 328.8,194.69 329.1,196.84C329.4,199 329.7,201.16 330,203.32C330.3,205.48 330.6,207.64 330.9,209.79C331.2,211.93 331.51,214.08 331.81,216.21C332.11,218.32 332.41,220.43 332.71,222.52C333.01,224.58 333.32,226.64 333.62,228.67C333.92,230.67 334.22,232.66 334.52,234.62C334.82,236.54 335.11,238.45 335.42,240.32C335.72,242.15 336.02,243.95 336.33,245.72C336.63,247.43 336.92,249.11 337.23,250.75C337.53,252.32 337.83,253.86 338.14,255.36C338.43,256.79 338.73,258.19 339.04,259.53C339.33,260.79 339.64,262.02 339.95,263.19C340.24,264.28 340.53,265.34 340.85,266.32C341.14,267.21 341.42,268.11 341.75,268.85C342.03,269.47 342.29,270.16 342.66,270.49C342.93,270.73 343.27,270.91 343.56,270.86C343.88,270.81 344.19,270.4 344.47,270.06C344.81,269.63 345.08,269 345.37,268.43C345.68,267.83 345.97,267.19 346.27,266.56C346.57,265.92 346.88,265.27 347.18,264.64C347.48,264.02 347.77,263.39 348.08,262.79C348.38,262.2 348.68,261.63 348.99,261.07C349.29,260.52 349.59,259.99 349.89,259.44C350.19,258.89 350.48,258.31 350.79,257.77C351.09,257.25 351.39,256.74 351.7,256.27C351.99,255.84 352.28,255.42 352.6,255.06C352.89,254.73 353.2,254.42 353.51,254.16C353.8,253.92 354.1,253.71 354.41,253.54C354.7,253.38 355.01,253.27 355.32,253.18C355.62,253.09 355.92,253.05 356.22,253.01C356.52,252.97 356.82,252.95 357.12,252.92C357.42,252.89 357.73,252.85 358.03,252.82C358.33,252.79 358.63,252.76 358.93,252.73C359.23,252.7 359.54,252.69 359.84,252.64C360.14,252.59 360.45,252.52 360.74,252.41C361.05,252.3 361.34,252.12 361.64,251.96C361.95,251.79 362.25,251.61 362.55,251.42C362.85,251.23 363.16,251.05 363.45,250.83C363.76,250.6 364.07,250.33 364.36,250.04C364.67,249.73 364.96,249.38 365.26,249.03C365.56,248.67 365.87,248.34 366.16,247.93C366.48,247.48 366.79,246.99 367.07,246.44C367.4,245.81 367.67,245.05 367.97,244.34C368.28,243.6 368.58,242.85 368.88,242.09C369.18,241.31 369.48,240.52 369.78,239.73C370.08,238.93 370.38,238.11 370.68,237.3C370.98,236.48 371.29,235.67 371.59,234.85C371.89,234.04 372.19,233.22 372.49,232.42C372.79,231.62 373.1,230.83 373.4,230.05C373.7,229.28 373.99,228.52 374.3,227.77C374.6,227.04 374.9,226.32 375.21,225.61C375.51,224.93 375.81,224.26 376.11,223.6C376.41,222.96 376.7,222.33 377.01,221.72C377.31,221.13 377.61,220.56 377.92,219.99C378.22,219.44 378.52,218.89 378.82,218.36C379.12,217.83 379.43,217.32 379.73,216.81C380.03,216.31 380.32,215.82 380.63,215.34C380.93,214.88 381.22,214.43 381.53,214C381.83,213.59 382.13,213.2 382.44,212.84C382.73,212.51 383.03,212.2 383.34,211.93C383.63,211.68 383.94,211.44 384.25,211.27C384.54,211.11 384.84,210.98 385.15,210.9C385.44,210.83 385.75,210.79 386.05,210.81C386.35,210.83 386.66,210.91 386.96,211.01C387.27,211.12 387.57,211.28 387.86,211.46C388.17,211.66 388.48,211.9 388.77,212.16C389.08,212.44 389.38,212.75 389.67,213.08C389.98,213.42 390.28,213.8 390.58,214.18C390.89,214.57 391.18,214.99 391.48,215.41C391.78,215.84 392.08,216.28 392.38,216.72C392.68,217.17 392.99,217.63 393.29,218.08C393.59,218.53 393.89,218.99 394.19,219.44C394.49,219.88 394.8,220.33 395.1,220.76C395.4,221.19 395.7,221.6 396,222.02C396.3,222.43 396.6,222.84 396.9,223.25C397.2,223.65 397.51,224.04 397.81,224.44C398.11,224.84 398.41,225.24 398.71,225.64C399.01,226.05 399.32,226.45 399.62,226.87C399.92,227.29 400.22,227.72 400.52,228.16C400.82,228.61 401.12,229.08 401.42,229.56C401.73,230.05 402.03,230.54 402.33,231.06C402.64,231.59 402.93,232.15 403.23,232.71C403.54,233.29 403.84,233.9 404.14,234.51C404.45,235.14 404.74,235.79 405.04,236.46C405.35,237.15 405.65,237.86 405.95,238.58C406.26,239.32 406.55,240.07 406.85,240.84C407.15,241.63 407.45,242.44 407.75,243.25C408.06,244.08 408.36,244.93 408.66,245.78C408.96,246.64 409.26,247.52 409.56,248.4C409.86,249.29 410.17,250.18 410.47,251.07C410.77,251.96 411.07,252.85 411.37,253.73C411.67,254.6 411.97,255.48 412.27,256.34C412.57,257.18 412.87,258.02 413.18,258.84C413.48,259.64 413.77,260.42 414.08,261.19C414.38,261.94 414.69,262.67 414.99,263.39C415.29,264.1 415.59,264.8 415.89,265.49C416.19,266.16 416.48,266.83 416.79,267.45C417.08,268.03 417.39,268.58 417.7,269.11C417.99,269.62 418.3,270.09 418.6,270.57C418.9,271.04 419.21,271.49 419.51,271.94C419.81,272.39 420.11,272.82 420.41,273.26C420.71,273.69 421.02,274.12 421.32,274.55C421.62,274.98 421.92,275.41 422.22,275.85C422.52,276.29 422.82,276.73 423.12,277.18C423.42,277.63 423.73,278.1 424.03,278.56C424.33,279.03 424.63,279.5 424.93,279.97C425.23,280.43 425.54,280.89 425.84,281.35C426.14,281.8 426.44,282.25 426.74,282.69C427.04,283.13 427.33,283.58 427.64,283.99C427.94,284.38 428.25,284.74 428.55,285.11C428.85,285.48 429.15,285.85 429.45,286.23C429.75,286.62 430.05,287.04 430.36,287.41C430.65,287.76 430.93,288.17 431.26,288.38C431.54,288.55 431.86,288.66 432.16,288.65C432.46,288.64 432.78,288.46 433.07,288.29C433.39,288.1 433.67,287.79 433.97,287.54C434.27,287.3 434.58,287.06 434.88,286.82C435.18,286.58 435.49,286.37 435.78,286.12C436.09,285.86 436.38,285.56 436.68,285.27C436.99,284.97 437.29,284.65 437.59,284.34C437.89,284.03 438.19,283.73 438.49,283.43C438.79,283.13 439.1,282.84 439.4,282.55C439.7,282.26 440,281.97 440.3,281.69C440.6,281.41 440.91,281.13 441.21,280.86C441.51,280.59 441.81,280.32 442.11,280.07C442.41,279.82 442.7,279.58 443.01,279.36C443.31,279.14 443.61,278.94 443.92,278.75C444.22,278.57 444.52,278.41 444.82,278.26C445.12,278.12 445.42,277.99 445.73,277.88C446.03,277.77 446.33,277.68 446.63,277.6C446.93,277.52 447.23,277.45 447.53,277.38C447.83,277.32 448.14,277.26 448.44,277.21C448.74,277.16 449.04,277.11 449.34,277.06C449.64,277.01 449.95,276.97 450.25,276.92C450.55,276.87 450.85,276.83 451.15,276.77C451.45,276.71 451.75,276.62 452.05,276.56C452.35,276.5 452.66,276.44 452.96,276.42C453.26,276.4 453.56,276.39 453.86,276.41C454.16,276.43 454.47,276.47 454.77,276.53C455.07,276.6 455.37,276.69 455.67,276.8C455.98,276.91 456.28,277.06 456.58,277.21C456.89,277.37 457.18,277.55 457.48,277.74C457.78,277.94 458.08,278.16 458.38,278.39C458.69,278.62 458.99,278.87 459.29,279.12C459.59,279.37 459.89,279.64 460.19,279.89C460.49,280.14 460.79,280.41 461.1,280.64Q461.4,280.87 462,281.28" style="vector-effect: non-scaling-stroke; fill: none; stroke: rgb(231, 107, 243); stroke-opacity: 1; stroke-width: 2px; opacity: 1;"/></g><g class="points"/><g class="text"/></g></g></g><g class="overplot"/><path class="xlines-above crisp" d="M0,0" style="fill: none;"/><path class="ylines-above crisp" d="M0,0" style="fill: none;"/><g class="overlines-above"/><g class="xaxislayer-above"><g class="xtick"><text text-anchor="middle" x="0" y="433" transform="translate(80,0)" style="font-family: 'Open Sans', verdana, arial, sans-serif; font-size: 12px; fill: rgb(42, 63, 95); fill-opacity: 1; white-space: pre;">0</text></g><g class="xtick"><text text-anchor="middle" x="0" y="433" transform="translate(170.23000000000002,0)" style="font-family: 'Open Sans', verdana, arial, sans-serif; font-size: 12px; fill: rgb(42, 63, 95); fill-opacity: 1; white-space: pre;">100</text></g><g class="xtick"><text text-anchor="middle" x="0" y="433" transform="translate(260.47,0)" style="font-family: 'Open Sans', verdana, arial, sans-serif; font-size: 12px; fill: rgb(42, 63, 95); fill-opacity: 1; white-space: pre;">200</text></g><g class="xtick"><text text-anchor="middle" x="0" y="433" transform="translate(350.7,0)" style="font-family: 'Open Sans', verdana, arial, sans-serif; font-size: 12px; fill: rgb(42, 63, 95); fill-opacity: 1; white-space: pre;">300</text></g><g class="xtick"><text text-anchor="middle" x="0" y="433" transform="translate(440.94,0)" style="font-family: 'Open Sans', verdana, arial, sans-serif; font-size: 12px; fill: rgb(42, 63, 95); fill-opacity: 1; white-space: pre;">400</text></g><g class="xtick"><text text-anchor="middle" x="0" y="433" transform="translate(531.1700000000001,0)" style="font-family: 'Open Sans', verdana, arial, sans-serif; font-size: 12px; fill: rgb(42, 63, 95); fill-opacity: 1; white-space: pre;">500</text></g></g><g class="yaxislayer-above"><g class="ytick"><text text-anchor="end" x="79" y="4.199999999999999" transform="translate(0,356.42)" style="font-family: 'Open Sans', verdana, arial, sans-serif; font-size: 12px; fill: rgb(42, 63, 95); fill-opacity: 1; white-space: pre;">500</text></g><g class="ytick"><text text-anchor="end" x="79" y="4.199999999999999" transform="translate(0,278.32)" style="font-family: 'Open Sans', verdana, arial, sans-serif; font-size: 12px; fill: rgb(42, 63, 95); fill-opacity: 1; white-space: pre;">1000</text></g><g class="ytick"><text text-anchor="end" x="79" y="4.199999999999999" transform="translate(0,200.22)" style="font-family: 'Open Sans', verdana, arial, sans-serif; font-size: 12px; fill: rgb(42, 63, 95); fill-opacity: 1; white-space: pre;">1500</text></g><g class="ytick"><text text-anchor="end" x="79" y="4.199999999999999" transform="translate(0,122.12)" style="font-family: 'Open Sans', verdana, arial, sans-serif; font-size: 12px; fill: rgb(42, 63, 95); fill-opacity: 1; white-space: pre;">2000</text></g></g><g class="overaxes-above"/></g></g><g class="polarlayer"/><g class="ternarylayer"/><g class="geolayer"/><g class="funnelarealayer"/><g class="pielayer"/><g class="treemaplayer"/><g class="sunburstlayer"/><g class="glimages"/><defs id="topdefs-68f91a"><g class="clips"/><clipPath id="legend68f91a"><rect width="137" height="67" x="0" y="0"/></clipPath></defs><g class="layer-above"><g class="imagelayer"/><g class="shapelayer"/></g><g class="infolayer"><g class="legend" pointer-events="all" transform="translate(551.24, 100)"><rect class="bg" shape-rendering="crispEdges" width="137" height="67" x="0" y="0" style="stroke: rgb(68, 68, 68); stroke-opacity: 1; fill: rgb(255, 255, 255); fill-opacity: 1; stroke-width: 0px;"/><g class="scrollbox" transform="translate(0, 0)" clip-path="url('#legend68f91a')"><g class="groups"><g class="traces" transform="translate(0, 14.5)" style="opacity: 1;"><text class="legendtext" text-anchor="start" x="40" y="4.680000000000001" style="font-family: 'Open Sans', verdana, arial, sans-serif; font-size: 12px; fill: rgb(42, 63, 95); fill-opacity: 1; white-space: pre;">Average Class I</text><g class="layers" style="opacity: 1;"><g class="legendfill"/><g class="legendlines"><path class="js-line" d="M5,0h30" style="fill: none; stroke: rgb(0, 100, 80); stroke-opacity: 1; stroke-width: 2px;"/></g><g class="legendsymbols"><g class="legendpoints"/></g></g><rect class="legendtoggle" x="0" y="-9.5" width="131.15625" height="19" style="fill: rgb(0, 0, 0); fill-opacity: 0;"/></g><g class="traces" transform="translate(0, 33.5)" style="opacity: 1;"><text class="legendtext" text-anchor="start" x="40" y="4.680000000000001" style="font-family: 'Open Sans', verdana, arial, sans-serif; font-size: 12px; fill: rgb(42, 63, 95); fill-opacity: 1; white-space: pre;">Average Class II</text><g class="layers" style="opacity: 1;"><g class="legendfill"/><g class="legendlines"><path class="js-line" d="M5,0h30" style="fill: none; stroke: rgb(0, 176, 246); stroke-opacity: 1; stroke-width: 2px;"/></g><g class="legendsymbols"><g class="legendpoints"/></g></g><rect class="legendtoggle" x="0" y="-9.5" width="131.15625" height="19" style="fill: rgb(0, 0, 0); fill-opacity: 0;"/></g><g class="traces" transform="translate(0, 52.5)" style="opacity: 1;"><text class="legendtext" text-anchor="start" x="40" y="4.680000000000001" style="font-family: 'Open Sans', verdana, arial, sans-serif; font-size: 12px; fill: rgb(42, 63, 95); fill-opacity: 1; white-space: pre;">Average Class III</text><g class="layers" style="opacity: 1;"><g class="legendfill"/><g class="legendlines"><path class="js-line" d="M5,0h30" style="fill: none; stroke: rgb(231, 107, 243); stroke-opacity: 1; stroke-width: 2px;"/></g><g class="legendsymbols"><g class="legendpoints"/></g></g><rect class="legendtoggle" x="0" y="-9.5" width="131.15625" height="19" style="fill: rgb(0, 0, 0); fill-opacity: 0;"/></g></g></g><rect class="scrollbar" rx="20" ry="3" width="0" height="0" x="0" y="0" style="fill: rgb(128, 139, 164); fill-opacity: 1;"/></g><g class="g-gtitle"><text class="gtitle" x="35" y="50" text-anchor="start" dy="0em" style="font-family: 'Open Sans', verdana, arial, sans-serif; font-size: 17px; fill: rgb(42, 63, 95); opacity: 1; font-weight: normal; white-space: pre;">Average curve: secondary_structure_properties_group</text></g><g class="g-xtitle"><text class="xtitle" x="311" y="460.8" text-anchor="middle" style="font-family: 'Open Sans', verdana, arial, sans-serif; font-size: 14px; fill: rgb(42, 63, 95); opacity: 1; font-weight: normal; white-space: pre;">Domain</text></g><g class="g-ytitle"><text class="ytitle" transform="rotate(-90,27.496875000000003,260)" x="27.496875000000003" y="260" text-anchor="middle" style="font-family: 'Open Sans', verdana, arial, sans-serif; font-size: 14px; fill: rgb(42, 63, 95); opacity: 1; font-weight: normal; white-space: pre;">Frequency</text></g></g></svg>