<svg class="main-svg" xmlns="http://www.w3.org/2000/svg" xmlns:xlink="http://www.w3.org/1999/xlink" width="700" height="500" style="" viewBox="0 0 700 500"><rect x="0" y="0" width="700" height="500" style="fill: rgb(255, 255, 255); fill-opacity: 1;"/><defs id="defs-b8df91"><g class="clips"><clipPath id="clipb8df91xyplot" class="plotclip"><rect width="462" height="320"/></clipPath><clipPath class="axesclip" id="clipb8df91x"><rect x="80" y="0" width="462" height="500"/></clipPath><clipPath class="axesclip" id="clipb8df91y"><rect x="0" y="100" width="700" height="320"/></clipPath><clipPath class="axesclip" id="clipb8df91xy"><rect x="80" y="100" width="462" height="320"/></clipPath></g><g class="gradients"/></defs><g class="bglayer"><rect class="bg" x="80" y="100" width="462" height="320" style="fill: rgb(229, 236, 246); fill-opacity: 1; stroke-width: 0;"/></g><g class="layer-below"><g class="imagelayer"/><g class="shapelayer"/></g><g class="cartesianlayer"><g class="subplot xy"><g class="layer-subplot"><g class="shapelayer"/><g class="imagelayer"/></g><g class="gridlayer"><g class="x"><path class="xgrid crisp" transform="translate(170.23000000000002,0)" d="M0,100v320" style="stroke: rgb(255, 255, 255); stroke-opacity: 1; stroke-width: 1px;"/><path class="xgrid crisp" transform="translate(260.47,0)" d="M0,100v320" style="stroke: rgb(255, 255, 255); stroke-opacity: 1; stroke-width: 1px;"/><path class="xgrid crisp" transform="translate(350.7,0)" d="M0,100v320" style="stroke: rgb(255, 255, 255); stroke-opacity: 1; stroke-width: 1px;"/><path class="xgrid crisp" transform="translate(440.94,0)" d="M0,100v320" style="stroke: rgb(255, 255, 255); stroke-opacity: 1; stroke-width: 1px;"/><path class="xgrid crisp" transform="translate(531.1700000000001,0)" d="M0,100v320" style="stroke: rgb(255, 255, 255); stroke-opacity: 1; stroke-width: 1px;"/></g><g class="y"><path class="ygrid crisp" transform="translate(0,365.25)" d="M80,0h462" style="stroke: rgb(255, 255, 255); stroke-opacity: 1; stroke-width: 1px;"/><path class="ygrid crisp" transform="translate(0,324.41999999999996)" d="M80,0h462" style="stroke: rgb(255, 255, 255); stroke-opacity: 1; stroke-width: 1px;"/><path class="ygrid crisp" transform="translate(0,283.6)" d="M80,0h462" style="stroke: rgb(255, 255, 255); stroke-opacity: 1; stroke-width: 1px;"/><path class="ygrid crisp" transform="translate(0,242.77)" d="M80,0h462" style="stroke: rgb(255, 255, 255); stroke-opacity: 1; stroke-width: 1px;"/><path class="ygrid crisp" transform="translate(0,201.95)" d="M80,0h462" style="stroke: rgb(255, 255, 255); stroke-opacity: 1; stroke-width: 1px;"/><path class="ygrid crisp" transform="translate(0,161.12)" d="M80,0h462" style="stroke: rgb(255, 255, 255); stroke-opacity: 1; stroke-width: 1px;"/><path class="ygrid crisp" transform="translate(0,120.28999999999999)" d="M80,0h462" style="stroke: rgb(255, 255, 255); stroke-opacity: 1; stroke-width: 1px;"/></g></g><g class="zerolinelayer"><path class="xzl zl crisp" transform="translate(80,0)" d="M0,100v320" style="stroke: rgb(255, 255, 255); stroke-opacity: 1; stroke-width: 2px;"/><path class="yzl zl crisp" transform="translate(0,406.07)" d="M80,0h462" style="stroke: rgb(255, 255, 255); stroke-opacity: 1; stroke-width: 2px;"/></g><path class="xlines-below"/><path class="ylines-below"/><g class="overlines-below"/><g class="xaxislayer-below"/><g class="yaxislayer-below"/><g class="overaxes-below"/><g class="plot" transform="translate(80, 100)" clip-path="url('#clipb8df91xyplot')"><g class="scatterlayer mlayer"><g class="trace scatter tracec3c5bb" style="stroke-miterlimit: 2; opacity: 1;"><g class="fills"/><g class="errorbars"/><g class="lines"><path class="js-line" d="M0,277.83Q1.3,279.43 1.81,279.2C3.61,278.37 2.86,258.45 3.62,250.69C4.15,245.31 4.92,242.53 5.44,237.06C6.23,228.84 6.74,219.08 7.25,206.09C8.12,184.12 8.48,147.9 9.06,117.33C9.68,84.67 10.29,16 10.87,16C11.5,16 11.82,106.88 12.68,136.91C13.19,154.75 13.79,167.09 14.49,179.55C15.04,189.28 15.75,196.11 16.31,205.53C16.98,216.73 17.5,230.44 18.12,242.34C18.71,253.55 19.28,274.97 19.93,274.98C20.5,274.99 21.21,260.03 21.74,250.31C22.5,236.28 22.81,198.86 23.55,198.85C24.08,198.84 24.84,214.72 25.36,225.61C26.17,242.65 26.52,291.22 27.18,291.22C27.75,291.22 27.89,252.31 28.99,242.18C29.49,237.59 30.27,232.22 30.8,232.24C31.54,232.27 32,245.34 32.61,251.78C33.21,258.09 33.88,270.53 34.42,270.52C35.15,270.5 35.59,235.07 36.24,235.07C36.81,235.07 37.44,253.66 38.05,262.85C38.65,271.9 39.12,289.76 39.86,289.78C40.39,289.8 41.17,282.15 41.67,275.68C42.76,261.61 42.92,208.39 43.48,208.39C44.14,208.39 44.68,302.15 45.29,302.15C45.89,302.15 45.27,211.29 47.11,211.07C47.62,211.01 48.42,214.46 48.92,217.8C50.29,226.95 50.07,269.93 50.73,269.93C51.29,269.93 51.69,232.28 52.54,232.25C53.05,232.23 53.8,240.91 54.35,246.05C55.04,252.52 55.48,261.51 56.16,268.05C56.71,273.34 57.48,282.39 57.98,282.36C59.17,282.3 58.81,201.76 59.79,201.73C60.29,201.71 61.08,214.31 61.6,222.96C62.41,236.52 62.16,265.4 63.41,275.27C63.91,279.23 64.63,280.68 65.22,283.49C65.84,286.43 66.21,292.4 67.04,292.53C67.56,292.61 68.35,291.02 68.85,289.39C70.16,285.14 69.67,270.19 70.66,264.77C71.16,262.01 71.81,258.7 72.47,258.66C73.03,258.63 73.74,261.17 74.28,262.81C75.01,265.03 75.12,269.39 76.09,270.88C76.6,271.66 77.4,271.44 77.91,272.23C78.91,273.8 79.14,280.94 79.72,280.93C80.34,280.92 80.97,270.93 81.53,270.94C82.19,270.96 82.76,285.04 83.34,285.03C83.97,285.02 84.58,268.39 85.15,268.4C85.79,268.41 85.67,288.63 86.96,288.98C87.46,289.12 88.26,286.32 88.78,286.42C89.61,286.58 89.77,294.08 90.59,294.24C91.11,294.34 91.69,292.1 92.4,291.65C92.94,291.31 93.7,291.9 94.21,291.35C95.92,289.51 95.49,278.72 96.02,270.59C96.77,259.06 97.23,228.72 97.84,228.72C98.44,228.72 98.37,270.42 99.65,270.58C100.15,270.64 100.94,264.37 101.46,264.41C102.25,264.47 102.7,279.11 103.27,279.1C103.91,279.09 104.48,260.86 105.08,260.86C105.69,260.86 106,275.26 106.89,279.77C107.4,282.37 108.21,285.84 108.71,285.78C110.07,285.61 109.86,239.79 110.52,239.79C111.08,239.79 111.65,273.21 112.33,273.22C112.88,273.23 113.43,251.11 114.14,251.09C114.68,251.07 115.43,258.73 115.95,263.94C116.75,271.93 116.79,287.53 117.76,294.41C118.27,297.99 119.06,302.53 119.58,302.49C120.42,302.43 119.63,282.4 121.39,280.53C121.9,279.99 122.7,279.89 123.2,280.27C124.57,281.31 124.46,293.83 125.01,293.82C125.69,293.8 126.23,273.09 126.82,273.09C127.44,273.09 127.96,295.57 128.64,295.58C129.2,295.59 129.53,283.97 130.45,280.52C130.96,278.6 131.75,276.15 132.26,276.22C133.15,276.34 132.97,290.13 134.07,290.43C134.57,290.56 135.33,289.01 135.88,288.06C136.57,286.88 137.18,283.73 137.69,283.8C138.59,283.92 138.79,298.13 139.51,298.16C140.05,298.19 140.82,293.74 141.32,290.08C142.35,282.57 142.37,255.34 143.13,255.32C143.66,255.31 144.37,266.11 144.94,271.96C145.58,278.47 145.93,292.57 146.75,292.62C147.27,292.65 148.01,287.54 148.56,284.51C149.25,280.7 149.78,271.54 150.38,271.54C150.99,271.54 150.85,284.53 152.19,285.31C152.69,285.6 153.5,284.3 154,284.58C155.21,285.27 155.12,295.9 155.81,295.93C156.36,295.96 156.8,290.6 157.62,288.97C158.14,287.93 158.76,286.9 159.44,286.69C159.99,286.52 160.75,286.7 161.25,287.27C162.39,288.56 161.89,295.92 163.06,297C163.56,297.46 164.36,297.61 164.87,297.2C166.51,295.87 165.97,278.14 166.68,278.11C167.22,278.09 167.91,288.97 168.49,288.96C169.12,288.95 169.8,281.74 170.31,276.39C171.2,267.05 171.33,237.76 172.12,237.74C172.64,237.72 173.14,249.98 173.93,254.33C174.45,257.2 175.19,261.43 175.74,261.4C176.43,261.37 177.04,249.76 177.55,249.79C178.45,249.84 177.81,286.28 179.36,286.62C179.87,286.73 180.67,283.04 181.18,283.13C182.1,283.29 182.42,295.82 182.99,295.81C183.63,295.8 183.96,280.17 184.8,280.09C185.31,280.04 185.94,285.73 186.61,285.78C187.17,285.82 187.9,281.97 188.42,282.04C189.23,282.15 189.37,291.95 190.24,292.11C190.75,292.2 191.55,290.66 192.05,289.07C193.37,284.88 192.44,264.89 193.86,264.49C194.36,264.35 195.17,265.65 195.67,266.98C196.93,270.34 196.91,286.61 197.48,286.6C198.13,286.59 198.25,261.56 199.29,261.43C199.79,261.37 200.23,266.69 201.11,267.08C201.62,267.3 202.41,265.94 202.92,266.25C204.93,267.45 204.08,296.77 204.73,296.78C205.3,296.79 205.81,273.88 206.54,273.86C207.08,273.84 207.62,282.75 208.35,286.19C208.89,288.73 209.65,292.76 210.16,292.71C211.08,292.62 211.36,270.84 211.98,270.84C212.57,270.84 212.29,289.95 213.79,290.64C214.29,290.87 215.08,289.19 215.6,289.35C216.41,289.61 216.75,292.94 217.41,294.47C217.97,295.78 218.68,298.08 219.22,298.02C219.95,297.94 220.27,291.04 221.04,290.92C221.57,290.84 222.28,292.74 222.85,293.79C223.49,294.98 224.16,297.81 224.66,297.72C225.85,297.51 224.84,274.07 226.47,273.37C226.97,273.15 227.77,274.05 228.28,274.84C229.17,276.23 229.53,279.25 230.09,281.78C230.76,284.79 231.39,291.76 231.91,291.73C232.74,291.68 233.18,275.82 233.72,265.91C234.45,252.49 234.8,218.47 235.53,218.46C236.07,218.45 236.44,243.8 237.34,243.87C237.85,243.91 238.53,235.91 239.15,235.9C239.74,235.89 240.45,240 240.96,243.24C241.91,249.32 242.04,262.41 242.78,269.83C243.31,275.19 243.83,279.93 244.59,283.65C245.12,286.23 245.9,290.16 246.4,290.1C247.52,289.98 247.65,268.84 248.21,256.65C248.88,241.95 249.43,224.7 250.02,207.99C250.64,190.23 251.21,170.76 251.84,153.02C252.43,136.37 253.09,104.6 253.65,104.6C254.32,104.6 254.88,174.81 255.46,174.81C256.1,174.81 256.69,89.35 257.27,89.35C257.91,89.35 258.14,168.69 259.08,192.89C259.59,205.97 260.27,213.26 260.89,223.08C261.48,232.44 262.17,250.52 262.71,250.51C263.44,250.5 263.98,219.22 264.52,200.25C265.23,175.51 265.72,114.73 266.33,114.73C266.93,114.73 267.48,172.74 268.14,198.45C268.7,220.42 268.62,248.55 269.95,259.54C270.45,263.66 271.26,267.99 271.76,267.95C272.74,267.87 273.02,235.29 273.58,235.29C274.24,235.3 274.86,280.74 275.39,280.73C276.13,280.72 276.55,192.07 277.2,192.07C277.77,192.07 278.23,260.13 279.01,260.14C279.53,260.15 280.19,229.26 280.82,229.26C281.4,229.26 280.78,252.95 282.64,255.6C283.15,256.33 283.93,255.64 284.45,256.4C286.74,259.74 285.54,295.12 286.26,295.13C286.8,295.14 287.57,283.25 288.07,273.47C289.12,253.03 288.69,197.18 289.88,178.56C290.38,170.76 291.19,162 291.69,162.02C292.71,162.06 292.7,212.62 293.51,230.46C294.03,241.93 294.52,251.33 295.32,258.71C295.84,263.5 296.6,270.53 297.13,270.51C297.88,270.48 297.46,247.16 298.94,246.67C299.44,246.5 300.24,247.5 300.75,248.75C302.52,253.11 302.03,282.2 302.56,282.19C303.3,282.18 303.56,217.73 304.38,217.71C304.9,217.7 305.22,243.11 306.19,243.21C306.69,243.26 307.4,238.82 308,236.59C308.61,234.31 309.3,229.64 309.81,229.68C310.71,229.76 311.04,251.77 311.62,251.77C312.25,251.77 311.62,226.67 313.44,225.67C313.95,225.39 314.72,226.8 315.25,226.64C315.98,226.42 316.55,223.16 317.06,223.25C317.95,223.4 318.35,230.16 318.87,234.82C319.66,241.83 319.94,253.92 320.68,261.27C321.21,266.55 321.96,269.47 322.49,274.84C323.26,282.64 323.79,303.64 324.31,303.63C325.12,303.62 325.25,234.29 326.12,234.27C326.63,234.26 327.39,248.94 327.93,257.92C328.64,269.79 329.02,299.26 329.74,299.27C330.28,299.28 330.62,281.21 331.55,275.79C332.06,272.85 332.86,269.04 333.36,269.09C334.33,269.18 334.6,294.59 335.18,294.59C335.82,294.59 336.29,264.02 336.99,264.01C337.53,264 338.09,277.15 338.8,282.46C339.34,286.52 339.93,293.12 340.61,293.15C341.16,293.17 341.84,286.15 342.42,286.16C343.06,286.18 343.13,294.04 344.24,294.88C344.74,295.26 345.55,295.19 346.05,294.76C347.1,293.86 347.32,286.91 347.86,286.94C348.59,286.98 348.94,301.74 349.67,301.78C350.21,301.81 350.59,294.09 351.48,293.85C351.99,293.71 352.67,295.78 353.29,295.81C353.88,295.84 354.49,294.25 355.11,294.23C355.71,294.21 356.32,295.13 356.92,295.57C357.52,296.01 358.22,297.11 358.73,296.87C360.42,296.08 359.88,279.7 360.54,272.07C361.1,265.51 361.72,253.8 362.35,253.79C362.93,253.78 363.28,265.45 364.16,269.1C364.67,271.22 365.24,273.84 365.98,273.98C366.51,274.08 367.29,271.79 367.79,271.95C369.01,272.34 369.08,287.96 369.6,287.94C370.4,287.91 370.42,250.53 371.41,250.46C371.91,250.42 372.72,255.72 373.22,259.89C374.19,267.92 374.46,295.39 375.04,295.39C375.68,295.39 376.13,252.61 376.85,252.6C377.39,252.59 378.13,276.28 378.66,276.27C379.39,276.26 379.6,231.68 380.47,231.65C380.98,231.63 380.92,246.48 382.28,247.16C382.78,247.41 383.58,245.82 384.09,246.09C385.83,247 384.79,265.97 385.91,270.9C386.41,273.09 387.05,275.43 387.72,275.49C388.28,275.54 389.03,272.42 389.53,272.53C390.63,272.78 390.65,289.24 391.34,289.26C391.89,289.28 392.64,283.14 393.15,278.76C394,271.56 394.35,250.01 394.96,250.01C395.56,250.01 394.76,276.19 396.78,278.2C397.29,278.71 398.08,278.76 398.59,278.31C400.56,276.57 399.72,251.38 400.4,251.37C400.95,251.36 401.34,264.76 402.21,269.04C402.72,271.56 403.46,272.76 404.02,274.92C404.69,277.52 405.32,283.62 405.84,283.59C406.67,283.54 407.08,260.81 407.65,260.82C408.3,260.83 408.79,290.47 409.46,290.48C410.02,290.49 410.7,277.22 411.27,269.89C411.92,261.5 412.48,242.88 413.08,242.88C413.69,242.88 414.18,271.39 414.89,271.41C415.43,271.42 416.14,254.68 416.71,254.69C417.36,254.7 417.11,273.37 418.52,276.78C419.02,277.99 419.83,279.05 420.33,278.92C421.29,278.66 421.62,268.99 422.14,269.02C422.93,269.06 423.05,286.36 423.95,291.74C424.46,294.78 425.24,298.8 425.76,298.76C426.56,298.7 426.11,282.78 427.58,281.92C428.08,281.63 428.89,282 429.39,282.69C430.94,284.8 430.52,301.22 431.2,301.24C431.75,301.25 432.1,289.19 433.01,289.03C433.52,288.94 434.27,292.43 434.82,292.38C435.5,292.32 436.11,289.09 436.64,286.85C437.41,283.58 437.89,274.5 438.45,274.51C439.12,274.53 439.72,292.55 440.26,292.54C440.96,292.53 441.42,262.76 442.07,262.75C442.64,262.74 442.19,284.88 443.88,285.8C444.39,286.07 445.12,284.72 445.69,284.81C446.34,284.91 446.97,285.89 447.51,286.73C448.24,287.88 448.74,291.33 449.32,291.31C449.96,291.29 450.59,287.8 451.13,285.54C451.86,282.46 452.05,274.57 452.94,274.41C453.45,274.32 454.25,276.1 454.75,277.59C455.72,280.45 455.83,290.92 456.56,290.96C457.1,290.99 457.77,283.8 458.38,283.8C458.98,283.8 459.6,288.52 460.19,290.96Q460.8,293.48 462,298.69" style="vector-effect: non-scaling-stroke; fill: none; stroke: rgb(0, 100, 80); stroke-opacity: 1; stroke-width: 2px; opacity: 1;"/></g><g class="points"/><g class="text"/></g><g class="trace scatter tracebe33fc" style="stroke-miterlimit: 2; opacity: 1;"><g class="fills"/><g class="errorbars"/><g class="lines"><path class="js-line" d="M0,283.09Q1.3,284.41 1.81,284.14C3.51,283.25 2.86,267.06 3.62,260.64C4.15,256.14 4.91,253.8 5.44,249.22C6.22,242.38 6.74,234.27 7.25,223.49C8.11,205.29 8.48,175.33 9.06,150.03C9.68,122.99 10.29,66.1 10.87,66.1C11.5,66.1 11.82,141.28 12.68,166.07C13.19,180.77 13.79,190.96 14.49,201.16C15.04,209.06 15.75,214.52 16.31,222.16C16.98,231.33 17.5,242.63 18.12,252.46C18.71,261.78 19.29,279.69 19.93,279.7C20.5,279.71 21.21,266.79 21.74,258.37C22.5,246.19 22.8,213.61 23.55,213.6C24.08,213.59 24.84,226.92 25.36,236.15C26.18,250.8 26.53,293.08 27.18,293.08C27.75,293.08 27.89,258.86 28.99,250C29.49,245.99 30.27,241.31 30.8,241.34C31.55,241.38 32,253.01 32.61,258.74C33.21,264.33 33.88,275.3 34.42,275.29C35.15,275.27 35.6,245.04 36.24,245.04C36.81,245.04 37.44,261.29 38.05,269.25C38.65,276.99 39.13,292.12 39.86,292.14C40.4,292.16 41.17,285.45 41.67,279.75C42.77,267.29 42.92,219.85 43.48,219.85C44.14,219.85 44.69,302.54 45.29,302.54C45.9,302.54 45.17,219.57 47.11,219.28C47.62,219.2 48.42,221.99 48.92,224.78C50.36,232.82 50.07,272.74 50.73,272.74C51.29,272.74 51.71,238.47 52.54,238.43C53.06,238.41 53.8,246.68 54.35,251.52C55.03,257.52 55.47,265.75 56.16,271.72C56.71,276.5 57.48,284.61 57.98,284.58C59.18,284.51 58.78,210.41 59.79,210.37C60.29,210.35 61.09,221.04 61.6,228.56C62.44,240.78 62.15,267.77 63.41,276.75C63.91,280.3 64.63,281.54 65.22,284.08C65.85,286.79 66.27,292.44 67.04,292.54C67.57,292.61 68.35,290.75 68.85,288.9C70.14,284.11 69.78,268.36 70.66,261.76C71.17,257.92 71.65,252.86 72.47,252.73C72.99,252.65 73.76,254.51 74.28,255.89C75.11,258.11 75.16,263.14 76.09,265.07C76.6,266.13 77.4,266.13 77.91,267.22C78.9,269.34 79.12,277.82 79.72,277.82C80.32,277.82 80.98,267.15 81.53,267.17C82.21,267.19 82.75,283.06 83.34,283.06C83.96,283.06 84.58,265.52 85.15,265.53C85.8,265.54 85.56,287.54 86.96,287.97C87.46,288.12 88.27,285.57 88.78,285.69C89.66,285.9 89.72,293.88 90.59,294.08C91.1,294.2 91.7,292.12 92.4,291.77C92.95,291.5 93.7,292.21 94.21,291.74C95.88,290.19 95.49,279.73 96.02,272C96.77,261.02 97.24,232.09 97.84,232.09C98.45,232.09 98.43,272.01 99.65,272.15C100.15,272.21 100.93,265.57 101.46,265.61C102.21,265.66 102.71,278.99 103.27,278.98C103.94,278.97 104.47,259.12 105.08,259.12C105.68,259.12 106,273.47 106.89,277.96C107.4,280.54 108.21,283.99 108.71,283.92C110.16,283.73 109.86,232.22 110.52,232.22C111.08,232.22 111.66,269.06 112.33,269.07C112.89,269.08 113.43,244 114.14,243.98C114.68,243.97 115.43,252.64 115.95,258.52C116.75,267.54 116.79,285.13 117.76,292.9C118.27,296.93 119.06,302.04 119.58,302.01C120.43,301.96 119.58,279.32 121.39,276.66C121.9,275.91 122.7,275.51 123.2,275.79C124.59,276.55 124.47,291.15 125.01,291.14C125.73,291.12 126.22,263.9 126.82,263.9C127.43,263.9 127.98,292.08 128.64,292.09C129.21,292.1 129.52,276.06 130.45,271.29C130.96,268.71 131.75,265.39 132.26,265.44C133.17,265.54 132.85,284.8 134.07,285.1C134.57,285.22 135.33,283.43 135.88,282.33C136.58,280.92 137.18,277.14 137.69,277.2C138.63,277.32 138.77,296.01 139.51,296.04C140.04,296.06 140.82,290.77 141.32,286.43C142.34,277.58 142.39,245.76 143.13,245.74C143.66,245.73 144.36,259.34 144.94,266.53C145.57,274.28 145.92,290.63 146.75,290.68C147.27,290.71 148.01,284.93 148.56,281.47C149.26,277.07 149.78,266.38 150.38,266.38C150.99,266.38 150.91,281.28 152.19,281.78C152.69,281.98 153.5,280.06 154,280.25C155.18,280.7 155.16,293.39 155.81,293.4C156.38,293.41 156.89,286.28 157.62,283.56C158.16,281.55 158.59,279.39 159.44,278.45C159.95,277.88 160.75,277.32 161.25,277.59C162.6,278.33 161.66,290.45 163.06,291.95C163.56,292.49 164.36,292.7 164.87,292.3C166.88,290.74 165.99,263.88 166.68,263.87C167.23,263.86 167.87,281.41 168.49,281.41C169.08,281.41 169.8,272.34 170.31,265.66C171.2,254.1 171.39,218.14 172.12,218.13C172.66,218.12 173.17,236.7 173.93,243.64C174.46,248.46 175.09,255.81 175.74,255.83C176.31,255.84 177.05,246.62 177.55,246.66C178.59,246.74 177.5,286.03 179.36,286.6C179.87,286.76 180.68,284.05 181.18,284.18C182.21,284.44 182.4,296.66 182.99,296.66C183.61,296.66 183.99,282.96 184.8,282.88C185.32,282.83 185.93,288.15 186.61,288.21C187.16,288.26 187.9,284.8 188.42,284.88C189.22,285 189.38,293.57 190.24,293.74C190.75,293.84 191.55,292.47 192.05,291.04C193.34,287.36 192.55,269.85 193.86,269.49C194.36,269.35 195.17,270.72 195.67,272.05C196.85,275.18 196.91,289.33 197.48,289.32C198.12,289.31 198.29,268.13 199.29,268C199.8,267.93 200.24,272.64 201.11,273.12C201.62,273.4 202.41,272.32 202.92,272.69C204.81,274.08 204.08,298.29 204.73,298.3C205.3,298.31 205.8,278.84 206.54,278.81C207.07,278.79 207.62,285.93 208.35,288.64C208.89,290.63 209.66,293.77 210.16,293.7C211.2,293.56 211.34,270.86 211.98,270.85C212.55,270.84 212.8,288.74 213.79,288.89C214.29,288.96 214.99,284.53 215.6,284.52C216.2,284.51 216.82,287.25 217.41,288.66C218.02,290.12 218.69,293.18 219.22,293.12C219.99,293.04 220.34,282.98 221.04,282.94C221.59,282.91 222.26,286.86 222.85,288.87C223.46,290.95 224.16,295.26 224.66,295.21C225.71,295.1 225.17,266.34 226.47,266.09C226.97,266 227.76,268.36 228.28,269.99C229.07,272.43 229.51,276.18 230.09,279.53C230.73,283.23 231.38,291.26 231.91,291.24C232.67,291.21 233.18,276.05 233.72,266.81C234.43,254.74 234.84,225.01 235.53,225C236.08,224.99 236.12,251.25 237.34,251.46C237.84,251.55 238.61,247.31 239.15,247.36C239.87,247.43 240.45,251.87 240.96,255.13C241.81,260.52 242.04,270.8 242.78,276.8C243.31,281.09 243.83,284.87 244.59,287.8C245.12,289.83 245.9,292.91 246.4,292.84C247.56,292.68 247.66,274.69 248.21,264.14C248.89,251.18 249.44,235.77 250.02,220.79C250.65,204.68 251.22,186.85 251.84,170.64C252.43,155.37 253.09,126.17 253.65,126.17C254.31,126.17 254.88,188.61 255.46,188.61C256.1,188.61 256.69,112.48 257.27,112.48C257.91,112.48 258.14,183.64 259.08,205.31C259.59,217.01 260.27,223.56 260.89,232.31C261.48,240.59 262.17,256.5 262.71,256.49C263.45,256.48 263.98,228.13 264.52,210.84C265.23,188.12 265.72,131.96 266.33,131.96C266.93,131.96 267.48,183.73 268.14,206.84C268.7,226.77 268.59,252.68 269.95,262.5C270.45,266.11 271.26,269.84 271.76,269.79C272.8,269.69 273.01,237.72 273.58,237.72C274.24,237.73 274.86,281.43 275.39,281.42C276.13,281.41 276.56,195.73 277.2,195.73C277.77,195.73 278.18,262.95 279.01,262.97C279.53,262.98 280.21,237.2 280.82,237.2C281.42,237.2 280.94,259.72 282.64,262.89C283.15,263.84 283.94,263.32 284.45,264.29C286.38,267.96 285.54,296.84 286.26,296.86C286.8,296.87 287.57,286.8 288.07,278.5C289.12,261.1 288.74,213.92 289.88,197.56C290.38,190.41 291.19,182.18 291.69,182.2C292.67,182.24 292.7,225.04 293.51,240.06C294.03,249.66 294.51,257.52 295.32,263.63C295.84,267.56 296.61,273.27 297.13,273.24C297.94,273.2 297.11,250.92 298.94,249.51C299.45,249.12 300.24,249.26 300.75,249.84C302.9,252.27 302.03,281.84 302.56,281.83C303.33,281.82 303.54,214.03 304.38,214.01C304.9,214 305.23,239.68 306.19,239.77C306.69,239.82 307.36,235.01 308,232.83C308.58,230.86 309.31,227.21 309.81,227.27C310.83,227.39 311.01,251.47 311.62,251.47C312.22,251.47 312.1,227.66 313.44,227.33C313.94,227.21 314.57,230.07 315.25,230.2C315.8,230.3 316.56,228.65 317.06,228.86C318.24,229.35 318.34,236.36 318.87,241.21C319.62,248.08 319.94,259.3 320.68,266.22C321.21,271.15 321.96,273.91 322.49,278.85C323.24,285.79 323.79,303.98 324.31,303.97C325.11,303.95 325.25,244.95 326.12,244.92C326.63,244.91 327.39,257.57 327.93,265.27C328.64,275.37 329.03,300.3 329.74,300.31C330.28,300.32 330.69,285.04 331.55,280.09C332.06,277.15 332.85,273.13 333.36,273.17C334.26,273.25 334.62,295.33 335.18,295.32C335.84,295.31 336.27,264.67 336.99,264.65C337.53,264.64 338.11,276.52 338.8,281.44C339.35,285.34 339.98,291.85 340.61,291.86C341.19,291.87 341.83,283.21 342.42,283.22C343.04,283.23 343.07,292.07 344.24,292.94C344.74,293.32 345.55,293.22 346.05,292.76C347.19,291.72 347.32,283.43 347.86,283.45C348.59,283.48 348.94,300.98 349.67,301.01C350.2,301.03 350.59,291.96 351.48,291.76C351.99,291.65 352.64,294.14 353.29,294.22C353.86,294.29 354.51,292.69 355.11,292.71C355.72,292.73 356.31,293.84 356.92,294.38C357.52,294.9 358.22,296.11 358.73,295.89C360.46,295.15 359.89,277 360.54,268.47C361.11,261 361.71,247.48 362.35,247.47C362.92,247.46 363.28,260.27 364.16,264.3C364.67,266.64 365.23,269.59 365.98,269.73C366.51,269.83 367.29,267.36 367.79,267.51C369.05,267.89 369.08,285.74 369.6,285.73C370.39,285.71 370.42,244.14 371.41,244.08C371.91,244.05 372.71,250.08 373.22,254.79C374.18,263.78 374.46,294.22 375.04,294.22C375.68,294.22 376.13,246.72 376.85,246.71C377.39,246.7 378.12,273.26 378.66,273.25C379.39,273.24 379.61,224.6 380.47,224.57C380.98,224.55 380.86,241.2 382.28,241.88C382.78,242.12 383.58,240.45 384.09,240.7C385.88,241.59 384.73,262.3 385.91,267.4C386.41,269.56 387.08,271.8 387.72,271.83C388.29,271.86 389.03,268.32 389.53,268.42C390.64,268.64 390.63,287.27 391.34,287.29C391.88,287.31 392.64,280.82 393.15,276.23C393.99,268.76 394.36,246.61 394.96,246.61C395.57,246.61 394.84,274.2 396.78,277.49C397.29,278.35 398.08,278.89 398.59,278.63C400.31,277.76 399.74,253.97 400.4,253.96C400.96,253.95 401.36,267.59 402.21,272.07C402.72,274.78 403.45,276.19 404.02,278.48C404.67,281.07 405.31,286.87 405.84,286.84C406.61,286.8 407.09,268.62 407.65,268.63C408.31,268.64 408.77,293.55 409.46,293.56C410.01,293.57 410.7,283.24 411.27,277.54C411.92,271.02 412.49,256.54 413.08,256.54C413.69,256.54 414.19,278.84 414.89,278.86C415.44,278.87 416.14,265.31 416.71,265.32C417.35,265.33 417.07,280.26 418.52,282.46C419.02,283.22 419.83,283.71 420.33,283.48C421.42,282.97 421.61,273.72 422.14,273.74C422.88,273.77 423.06,288.39 423.95,292.97C424.46,295.59 425.25,299.08 425.76,299.03C426.62,298.95 426.02,283.06 427.58,281.27C428.08,280.69 428.88,280.47 429.39,280.83C431.04,282.01 430.53,300.7 431.2,300.71C431.76,300.72 432.11,287.35 433.01,287.21C433.52,287.13 434.26,291.15 434.82,291.11C435.49,291.07 436.11,287.66 436.64,285.32C437.41,281.9 437.9,272.42 438.45,272.43C439.13,272.45 439.71,291.89 440.26,291.88C440.95,291.87 441.43,261.47 442.07,261.46C442.64,261.46 442.17,284.64 443.88,285.52C444.39,285.78 445.1,284.38 445.69,284.43C446.32,284.49 446.98,285.28 447.51,286.04C448.27,287.12 448.75,290.64 449.32,290.61C449.97,290.58 450.59,286.85 451.13,284.44C451.86,281.16 452.05,272.79 452.94,272.64C453.45,272.56 454.25,274.5 454.75,276.11C455.72,279.19 455.81,290.28 456.56,290.33C457.09,290.36 457.78,283.22 458.38,283.23C459,283.24 459.59,288.28 460.19,290.85Q460.8,293.46 462,298.77" style="vector-effect: non-scaling-stroke; fill: none; stroke: rgb(0, 176, 246); stroke-opacity: 1; stroke-width: 2px; opacity: 1;"/></g><g class="points"/><g class="text"/></g><g class="trace scatter trace52c3d9" style="stroke-miterlimit: 2; opacity: 1;"><g class="fills"/><g class="errorbars"/><g class="lines"><path class="js-line" d="M0,287.35Q1.3,288.17 1.81,287.81C3.51,286.6 2.9,272.8 3.62,266.77C4.16,262.2 4.91,259.56 5.44,254.77C6.22,247.69 6.74,239.42 7.25,228.36C8.11,209.74 8.48,179.51 9.06,153.32C9.69,124.56 10.28,62.8 10.87,62.8C11.48,62.8 11.82,135.74 12.68,159.79C13.19,174.04 13.79,183.81 14.49,193.81C15.04,201.7 15.76,207.16 16.31,214.97C16.99,224.62 17.5,236.81 18.12,247.38C18.71,257.5 19.29,277.1 19.93,277.11C20.5,277.11 21.21,263 21.74,253.83C22.5,240.64 22.81,205.51 23.55,205.5C24.08,205.49 24.84,220.52 25.36,230.81C26.17,246.83 26.52,292.34 27.18,292.34C27.74,292.34 27.72,256.46 28.99,248.33C29.49,245.14 30.29,241.73 30.8,241.78C31.67,241.86 31.99,254.89 32.61,261.15C33.2,267.05 33.86,278.35 34.42,278.34C35.09,278.33 35.62,253.65 36.24,253.65C36.83,253.65 37.43,268.62 38.05,275.74C38.63,282.4 39.1,295.04 39.86,295.08C40.39,295.11 41.17,290.2 41.67,286.01C42.76,276.88 42.92,242.01 43.48,242.01C44.14,242.01 44.68,303.5 45.29,303.5C45.89,303.5 45.28,243.99 47.11,243.65C47.62,243.55 48.42,245.75 48.92,247.92C50.28,253.82 50.07,282.13 50.73,282.14C51.29,282.15 51.69,257.04 52.54,256.99C53.05,256.96 53.8,262.59 54.35,265.95C55.04,270.2 55.48,276.15 56.16,280.47C56.71,283.98 57.48,290.01 57.98,289.97C59.18,289.88 58.78,234.58 59.79,234.53C60.29,234.5 61.08,242.49 61.6,248.1C62.43,257.17 62.11,277.42 63.41,283.84C63.91,286.3 64.64,287.05 65.22,288.8C65.86,290.72 66.36,294.84 67.04,294.89C67.6,294.93 68.35,292.94 68.85,291.01C70.08,286.23 69.86,271.74 70.66,264.96C71.18,260.57 71.3,254.81 72.47,254.19C72.97,253.93 73.78,254.4 74.28,255.02C75.29,256.25 75.1,261.46 76.09,262.79C76.6,263.47 77.41,263.12 77.91,263.84C79.06,265.5 79.13,274.7 79.72,274.7C80.34,274.7 80.98,262.69 81.53,262.7C82.21,262.72 82.75,280.59 83.34,280.59C83.96,280.59 84.58,261.21 85.15,261.22C85.79,261.23 85.61,285.61 86.96,285.95C87.46,286.07 88.26,282.95 88.78,283.04C89.63,283.2 89.76,292.06 90.59,292.2C91.11,292.29 91.66,289.63 92.4,289.05C92.93,288.63 93.7,289.15 94.21,288.52C96.07,286.21 95.49,273.21 96.02,263.37C96.77,249.4 97.24,212.64 97.84,212.64C98.45,212.64 98.27,263.41 99.65,263.58C100.15,263.64 100.95,257.1 101.46,257.14C102.3,257.21 102.68,275.05 103.27,275.05C103.89,275.05 104.49,254.95 105.08,254.95C105.7,254.95 106,271.46 106.89,276.65C107.4,279.62 108.21,283.6 108.71,283.54C110.05,283.39 109.86,233.25 110.52,233.25C111.08,233.25 111.64,270.42 112.33,270.43C112.88,270.44 113.44,247.2 114.14,247.18C114.69,247.17 115.43,255.7 115.95,261.42C116.74,270.02 116.78,286.52 117.76,293.8C118.27,297.57 119.06,302.31 119.58,302.28C120.43,302.22 119.74,281.45 121.39,278.49C121.9,277.58 122.7,276.95 123.2,277.17C124.47,277.72 124.48,291.57 125.01,291.55C125.75,291.53 126.22,264.13 126.82,264.13C127.43,264.13 128,291.71 128.64,291.71C129.22,291.71 129.54,274.51 130.45,269.22C130.96,266.27 131.75,262.39 132.26,262.43C133.14,262.51 132.84,283.09 134.07,283.38C134.57,283.5 135.34,281.59 135.88,280.41C136.58,278.89 137.18,274.85 137.69,274.91C138.64,275.02 138.78,295.15 139.51,295.18C140.05,295.2 140.82,289.29 141.32,284.45C142.35,274.5 142.38,238.6 143.13,238.58C143.66,238.57 144.36,253.34 144.94,261.25C145.57,269.92 145.93,288.47 146.75,288.51C147.27,288.54 148.01,281.9 148.56,277.93C149.26,272.87 149.78,260.57 150.38,260.57C150.99,260.57 150.92,277.71 152.19,278.12C152.69,278.28 153.5,275.93 154,276.09C155.18,276.46 155.16,291.2 155.81,291.21C156.38,291.22 156.85,282.61 157.62,279.5C158.15,277.37 158.55,274.93 159.44,274.22C159.95,273.81 160.75,273.62 161.25,274.03C162.77,275.26 161.61,288.6 163.06,290.62C163.56,291.32 164.36,291.76 164.87,291.46C166.82,290.3 166,262.45 166.68,262.44C167.23,262.43 167.85,281.13 168.49,281.14C169.07,281.15 169.8,272.47 170.31,266.09C171.2,255.02 171.4,220.57 172.12,220.56C172.66,220.55 173.15,239.02 173.93,245.76C174.45,250.31 175.11,257.14 175.74,257.15C176.32,257.16 177.05,247.72 177.55,247.76C178.57,247.83 177.54,286.37 179.36,286.92C179.87,287.07 180.68,284.31 181.18,284.43C182.19,284.68 182.41,296.68 182.99,296.67C183.61,296.66 183.97,282.77 184.8,282.68C185.32,282.63 185.94,287.79 186.61,287.84C187.17,287.88 187.9,284.36 188.42,284.44C189.23,284.56 189.38,293.32 190.24,293.49C190.75,293.59 191.55,292.19 192.05,290.75C193.34,287.02 192.56,269.28 193.86,268.94C194.36,268.81 195.17,270.23 195.67,271.6C196.84,274.8 196.9,289.14 197.48,289.13C198.12,289.12 198.29,267.87 199.29,267.74C199.8,267.68 200.23,272.5 201.11,272.97C201.62,273.24 202.41,272.13 202.92,272.5C204.81,273.86 204.09,298.16 204.73,298.17C205.3,298.18 205.79,278.03 206.54,278C207.07,277.98 207.62,285.31 208.35,288.11C208.89,290.18 209.66,293.45 210.16,293.39C211.19,293.26 211.34,270.2 211.98,270.19C212.55,270.18 212.76,288.53 213.79,288.7C214.29,288.78 215.02,284.62 215.6,284.64C216.24,284.66 216.8,288.04 217.41,289.71C218.01,291.36 218.67,294.66 219.22,294.62C219.92,294.57 220.35,286.14 221.04,286.1C221.59,286.06 222.25,289.5 222.85,291.24C223.46,293.03 224.16,296.74 224.66,296.68C225.72,296.55 225.12,271.51 226.47,271.19C226.97,271.07 227.76,272.9 228.28,274.2C229.08,276.21 229.52,279.48 230.09,282.38C230.73,285.63 231.38,292.8 231.91,292.78C232.67,292.75 233.18,279.21 233.72,271.03C234.42,260.49 234.86,234.79 235.53,234.78C236.09,234.77 235.73,258.66 237.34,259.31C237.84,259.51 238.64,257.54 239.15,257.7C240.09,258.01 240.43,262.62 240.96,265.92C241.74,270.78 242.02,279.19 242.78,284.15C243.31,287.62 243.83,290.64 244.59,292.94C245.12,294.53 245.9,296.91 246.4,296.82C247.47,296.63 247.66,284.44 248.21,277.25C248.89,268.43 249.44,258.03 250.02,247.77C250.65,236.57 251.22,224.15 251.84,212.63C252.44,201.49 253.08,179.77 253.65,179.77C254.3,179.77 254.9,221.88 255.46,221.88C256.12,221.88 256.69,164.34 257.27,164.34C257.9,164.34 258.14,215.33 259.08,230.82C259.59,239.17 260.27,243.76 260.89,250.06C261.49,256.15 262.18,268.02 262.71,268.01C263.46,267.99 263.98,245.91 264.52,232.39C265.23,214.51 265.71,170.11 266.33,170.11C266.92,170.11 267.49,209.67 268.14,227.48C268.71,243.01 268.56,263.57 269.95,271.06C270.45,273.75 271.26,276.48 271.76,276.41C272.87,276.27 273.01,248.9 273.58,248.9C274.23,248.91 274.87,284.61 275.39,284.6C276.17,284.59 276.54,204.44 277.2,204.44C277.76,204.44 278.27,263.56 279.01,263.57C279.54,263.58 280.18,233.49 280.82,233.49C281.4,233.49 280.79,255.76 282.64,257.94C283.15,258.54 283.93,257.75 284.45,258.38C286.76,261.18 285.55,295.5 286.26,295.51C286.8,295.52 287.57,283.94 288.07,274.39C289.12,254.33 288.75,200.1 289.88,180.99C290.38,172.5 291.18,162.61 291.69,162.63C292.65,162.66 292.7,211.78 293.51,229.04C294.03,240.09 294.5,249.21 295.32,256.19C295.84,260.61 296.62,266.98 297.13,266.95C297.98,266.9 297.09,240.56 298.94,237.11C299.45,236.16 300.24,235.5 300.75,235.74C302.9,236.75 302.03,275.4 302.56,275.39C303.33,275.38 303.57,190.49 304.38,190.48C304.9,190.47 304.77,225.13 306.19,225.4C306.69,225.5 307.27,222.4 308,221.45C308.54,220.75 309.3,219.73 309.81,219.95C311.61,220.73 310.97,249.26 311.62,249.27C312.19,249.28 312.41,227.37 313.44,227.23C313.94,227.16 314.38,231.59 315.25,232.19C315.76,232.54 316.56,231.74 317.06,232.16C318.37,233.27 318.34,239.61 318.87,244.35C319.61,250.92 319.93,261.46 320.68,267.95C321.21,272.55 321.96,275.05 322.49,279.68C323.25,286.31 323.79,304.01 324.31,304C325.12,303.98 325.22,244.3 326.12,244.27C326.63,244.25 327.4,256.06 327.93,263.48C328.66,273.67 329.05,299.79 329.74,299.8C330.29,299.81 330.73,282.42 331.55,276.44C332.07,272.66 332.85,267.23 333.36,267.26C334.21,267.31 334.62,293.06 335.18,293.05C335.86,293.04 336.26,254.87 336.99,254.86C337.53,254.85 338.11,269.33 338.8,275.39C339.35,280.24 339.97,288.43 340.61,288.44C341.19,288.45 341.83,277.83 342.42,277.84C343.05,277.85 342.94,288.95 344.24,289.95C344.74,290.34 345.55,290.23 346.05,289.76C347.28,288.6 347.33,278.82 347.86,278.84C348.6,278.87 348.93,300.05 349.67,300.08C350.2,300.1 350.58,289.46 351.48,289.29C351.99,289.19 352.62,292.16 353.29,292.26C353.85,292.34 354.52,290.57 355.11,290.61C355.74,290.65 356.31,292.06 356.92,292.76C357.52,293.44 358.22,294.94 358.73,294.76C360.39,294.18 359.87,274.41 360.54,265.62C361.1,258.35 361.74,245.7 362.35,245.7C362.95,245.7 363.3,260.14 364.16,264.87C364.68,267.72 365.04,271.2 365.98,271.61C366.49,271.83 367.29,270.41 367.79,270.68C369.25,271.47 369.07,287.79 369.6,287.78C370.37,287.76 370.43,251 371.41,250.93C371.91,250.9 372.71,256.32 373.22,260.54C374.18,268.53 374.46,295.47 375.04,295.47C375.68,295.47 376.12,251.99 376.85,251.98C377.39,251.97 378.13,275.34 378.66,275.33C379.42,275.31 379.47,226.26 380.47,226.2C380.97,226.17 381.58,238.35 382.28,238.39C382.82,238.42 383.59,231.21 384.09,231.26C385.07,231.35 384.68,253.82 385.91,258.93C386.41,261 387.12,263.11 387.72,263.11C388.32,263.11 389.03,258.82 389.53,258.9C390.68,259.09 390.59,283.25 391.34,283.28C391.87,283.3 392.63,276.3 393.15,271.37C393.98,263.41 394.37,240.02 394.96,240.02C395.59,240.02 395.01,270.94 396.78,275.68C397.29,277.04 398.09,278.15 398.59,278C400.01,277.57 399.76,254.51 400.4,254.5C400.97,254.49 401.37,268.67 402.21,273.36C402.72,276.21 403.44,277.77 404.02,280.14C404.65,282.74 405.31,288.37 405.84,288.34C406.59,288.3 407.09,272.03 407.65,272.04C408.31,272.05 408.77,294.78 409.46,294.8C410.01,294.81 410.7,285.69 411.27,280.68C411.92,275.01 412.49,262.5 413.08,262.5C413.7,262.5 414.19,282.16 414.89,282.18C415.44,282.2 416.13,269.96 416.71,269.97C417.35,269.98 417.12,283.09 418.52,284.79C419.02,285.4 419.83,285.66 420.33,285.37C421.42,284.73 421.61,276.48 422.14,276.51C422.89,276.55 423.07,290.03 423.95,294.27C424.46,296.72 425.24,299.98 425.76,299.93C426.57,299.86 426.26,286.46 427.58,285.78C428.08,285.52 428.89,286.01 429.39,286.75C430.77,288.77 430.51,302.15 431.2,302.17C431.75,302.19 432.12,292.73 433.01,292.54C433.52,292.43 434.26,295.25 434.82,295.19C435.5,295.12 436.11,292.58 436.64,290.76C437.42,288.06 437.89,280.39 438.45,280.4C439.11,280.42 439.73,294.67 440.26,294.65C440.99,294.63 441.41,267.87 442.07,267.86C442.63,267.85 442.48,286.82 443.88,287.34C444.38,287.53 445.07,285.65 445.69,285.61C446.28,285.57 446.98,286.26 447.51,286.93C448.27,287.89 448.75,291.27 449.32,291.24C449.97,291.21 450.59,287.68 451.13,285.4C451.86,282.32 452.06,274.49 452.94,274.34C453.45,274.25 454.24,276.14 454.75,277.69C455.7,280.61 455.82,291.06 456.56,291.1C457.1,291.13 457.78,284.14 458.38,284.14C458.99,284.14 459.6,288.84 460.19,291.25Q460.8,293.74 462,298.84" style="vector-effect: non-scaling-stroke; fill: none; stroke: rgb(231, 107, 243); stroke-opacity: 1; stroke-width: 2px; opacity: 1;"/></g><g class="points"/><g class="text"/></g></g></g><g class="overplot"/><path class="xlines-above crisp" d="M0,0" style="fill: none;"/><path class="ylines-above crisp" d="M0,0" style="fill: none;"/><g class="overlines-above"/><g class="xaxislayer-above"><g class="xtick"><text text-anchor="middle" x="0" y="433" transform="translate(80,0)" style="font-family: 'Open Sans', verdana, arial, sans-serif; font-size: 12px; fill: rgb(42, 63, 95); fill-opacity: 1; white-space: pre;">0</text></g><g class="xtick"><text text-anchor="middle" x="0" y="433" transform="translate(170.23000000000002,0)" style="font-family: 'Open Sans', verdana, arial, sans-serif; font-size: 12px; fill: rgb(42, 63, 95); fill-opacity: 1; white-space: pre;">50</text></g><g class="xtick"><text text-anchor="middle" x="0" y="433" transform="translate(260.47,0)" style="font-family: 'Open Sans', verdana, arial, sans-serif; font-size: 12px; fill: rgb(42, 63, 95); fill-opacity: 1; white-space: pre;">100</text></g><g class="xtick"><text text-anchor="middle" x="0" y="433" transform="translate(350.7,0)" style="font-family: 'Open Sans', verdana, arial, sans-serif; font-size: 12px; fill: rgb(42, 63, 95); fill-opacity: 1; white-space: pre;">150</text></g><g class="xtick"><text text-anchor="middle" x="0" y="433" transform="translate(440.94,0)" style="font-family: 'Open Sans', verdana, arial, sans-serif; font-size: 12px; fill: rgb(42, 63, 95); fill-opacity: 1; white-space: pre;">200</text></g><g class="xtick"><text text-anchor="middle" x="0" y="433" transform="translate(531.1700000000001,0)" style="font-family: 'Open Sans', verdana, arial, sans-serif; font-size: 12px; fill: rgb(42, 63, 95); fill-opacity: 1; white-space: pre;">250</text></g></g><g class="yaxislayer-above"><g class="ytick"><text text-anchor="end" x="79" y="4.199999999999999" transform="translate(0,406.07)" style="font-family: 'Open Sans', verdana, arial, sans-serif; font-size: 12px; fill: rgb(42, 63, 95); fill-opacity: 1; white-space: pre;">0</text></g><g class="ytick"><text text-anchor="end" x="79" y="4.199999999999999" transform="translate(0,365.25)" style="font-family: 'Open Sans', verdana, arial, sans-serif; font-size: 12px; fill: rgb(42, 63, 95); fill-opacity: 1; white-space: pre;">2M</text></g><g class="ytick"><text text-anchor="end" x="79" y="4.199999999999999" transform="translate(0,324.41999999999996)" style="font-family: 'Open Sans', verdana, arial, sans-serif; font-size: 12px; fill: rgb(42, 63, 95); fill-opacity: 1; white-space: pre;">4M</text></g><g class="ytick"><text text-anchor="end" x="79" y="4.199999999999999" transform="translate(0,283.6)" style="font-family: 'Open Sans', verdana, arial, sans-serif; font-size: 12px; fill: rgb(42, 63, 95); fill-opacity: 1; white-space: pre;">6M</text></g><g class="ytick"><text text-anchor="end" x="79" y="4.199999999999999" transform="translate(0,242.77)" style="font-family: 'Open Sans', verdana, arial, sans-serif; font-size: 12px; fill: rgb(42, 63, 95); fill-opacity: 1; white-space: pre;">8M</text></g><g class="ytick"><text text-anchor="end" x="79" y="4.199999999999999" transform="translate(0,201.95)" style="font-family: 'Open Sans', verdana, arial, sans-serif; font-size: 12px; fill: rgb(42, 63, 95); fill-opacity: 1; white-space: pre;">10M</text></g><g class="ytick"><text text-anchor="end" x="79" y="4.199999999999999" transform="translate(0,161.12)" style="font-family: 'Open Sans', verdana, arial, sans-serif; font-size: 12px; fill: rgb(42, 63, 95); fill-opacity: 1; white-space: pre;">12M</text></g><g class="ytick"><text text-anchor="end" x="79" y="4.199999999999999" transform="translate(0,120.28999999999999)" style="font-family: 'Open Sans', verdana, arial, sans-serif; font-size: 12px; fill: rgb(42, 63, 95); fill-opacity: 1; white-space: pre;">14M</text></g></g><g class="overaxes-above"/></g></g><g class="polarlayer"/><g class="ternarylayer"/><g class="geolayer"/><g class="funnelarealayer"/><g class="pielayer"/><g class="treemaplayer"/><g class="sunburstlayer"/><g class="glimages"/><defs id="topdefs-b8df91"><g class="clips"/><clipPath id="legendb8df91"><rect width="137" height="67" x="0" y="0"/></clipPath></defs><g class="layer-above"><g class="imagelayer"/><g class="shapelayer"/></g><g class="infolayer"><g class="legend" pointer-events="all" transform="translate(551.24, 100)"><rect class="bg" shape-rendering="crispEdges" width="137" height="67" x="0" y="0" style="stroke: rgb(68, 68, 68); stroke-opacity: 1; fill: rgb(255, 255, 255); fill-opacity: 1; stroke-width: 0px;"/><g class="scrollbox" transform="translate(0, 0)" clip-path="url('#legendb8df91')"><g class="groups"><g class="traces" transform="translate(0, 14.5)" style="opacity: 1;"><text class="legendtext" text-anchor="start" x="40" y="4.680000000000001" style="font-family: 'Open Sans', verdana, arial, sans-serif; font-size: 12px; fill: rgb(42, 63, 95); fill-opacity: 1; white-space: pre;">Average Class I</text><g class="layers" style="opacity: 1;"><g class="legendfill"/><g class="legendlines"><path class="js-line" d="M5,0h30" style="fill: none; stroke: rgb(0, 100, 80); stroke-opacity: 1; stroke-width: 2px;"/></g><g class="legendsymbols"><g class="legendpoints"/></g></g><rect class="legendtoggle" x="0" y="-9.5" width="131.15625" height="19" style="fill: rgb(0, 0, 0); fill-opacity: 0;"/></g><g class="traces" transform="translate(0, 33.5)" style="opacity: 1;"><text class="legendtext" text-anchor="start" x="40" y="4.680000000000001" style="font-family: 'Open Sans', verdana, arial, sans-serif; font-size: 12px; fill: rgb(42, 63, 95); fill-opacity: 1; white-space: pre;">Average Class II</text><g class="layers" style="opacity: 1;"><g class="legendfill"/><g class="legendlines"><path class="js-line" d="M5,0h30" style="fill: none; stroke: rgb(0, 176, 246); stroke-opacity: 1; stroke-width: 2px;"/></g><g class="legendsymbols"><g class="legendpoints"/></g></g><rect class="legendtoggle" x="0" y="-9.5" width="131.15625" height="19" style="fill: rgb(0, 0, 0); fill-opacity: 0;"/></g><g class="traces" transform="translate(0, 52.5)" style="opacity: 1;"><text class="legendtext" text-anchor="start" x="40" y="4.680000000000001" style="font-family: 'Open Sans', verdana, arial, sans-serif; font-size: 12px; fill: rgb(42, 63, 95); fill-opacity: 1; white-space: pre;">Average Class III</text><g class="layers" style="opacity: 1;"><g class="legendfill"/><g class="legendlines"><path class="js-line" d="M5,0h30" style="fill: none; stroke: rgb(231, 107, 243); stroke-opacity: 1; stroke-width: 2px;"/></g><g class="legendsymbols"><g class="legendpoints"/></g></g><rect class="legendtoggle" x="0" y="-9.5" width="131.15625" height="19" style="fill: rgb(0, 0, 0); fill-opacity: 0;"/></g></g></g><rect class="scrollbar" rx="20" ry="3" width="0" height="0" x="0" y="0" style="fill: rgb(128, 139, 164); fill-opacity: 1;"/></g><g class="g-gtitle"><text class="gtitle" x="35" y="50" text-anchor="start" dy="0em" style="font-family: 'Open Sans', verdana, arial, sans-serif; font-size: 17px; fill: rgb(42, 63, 95); opacity: 1; font-weight: normal; white-space: pre;">Average curve comparisson: secondary_structure_properties_group</text></g><g class="g-xtitle"><text class="xtitle" x="311" y="460.8" text-anchor="middle" style="font-family: 'Open Sans', verdana, arial, sans-serif; font-size: 14px; fill: rgb(42, 63, 95); opacity: 1; font-weight: normal; white-space: pre;">Domain</text></g><g class="g-ytitle"><text class="ytitle" transform="rotate(-90,30.856250000000003,260)" x="30.856250000000003" y="260" text-anchor="middle" style="font-family: 'Open Sans', verdana, arial, sans-serif; font-size: 14px; fill: rgb(42, 63, 95); opacity: 1; font-weight: normal; white-space: pre;">Frequency</text></g></g></svg>