<svg class="main-svg" xmlns="http://www.w3.org/2000/svg" xmlns:xlink="http://www.w3.org/1999/xlink" width="700" height="500" style="" viewBox="0 0 700 500"><rect x="0" y="0" width="700" height="500" style="fill: rgb(255, 255, 255); fill-opacity: 1;"/><defs id="defs-b1e7a2"><g class="clips"><clipPath id="clipb1e7a2xyplot" class="plotclip"><rect width="462" height="320"/></clipPath><clipPath class="axesclip" id="clipb1e7a2x"><rect x="80" y="0" width="462" height="500"/></clipPath><clipPath class="axesclip" id="clipb1e7a2y"><rect x="0" y="100" width="700" height="320"/></clipPath><clipPath class="axesclip" id="clipb1e7a2xy"><rect x="80" y="100" width="462" height="320"/></clipPath></g><g class="gradients"/></defs><g class="bglayer"><rect class="bg" x="80" y="100" width="462" height="320" style="fill: rgb(229, 236, 246); fill-opacity: 1; stroke-width: 0;"/></g><g class="layer-below"><g class="imagelayer"/><g class="shapelayer"/></g><g class="cartesianlayer"><g class="subplot xy"><g class="layer-subplot"><g class="shapelayer"/><g class="imagelayer"/></g><g class="gridlayer"><g class="x"><path class="xgrid crisp" transform="translate(170.23000000000002,0)" d="M0,100v320" style="stroke: rgb(255, 255, 255); stroke-opacity: 1; stroke-width: 1px;"/><path class="xgrid crisp" transform="translate(260.47,0)" d="M0,100v320" style="stroke: rgb(255, 255, 255); stroke-opacity: 1; stroke-width: 1px;"/><path class="xgrid crisp" transform="translate(350.7,0)" d="M0,100v320" style="stroke: rgb(255, 255, 255); stroke-opacity: 1; stroke-width: 1px;"/><path class="xgrid crisp" transform="translate(440.94,0)" d="M0,100v320" style="stroke: rgb(255, 255, 255); stroke-opacity: 1; stroke-width: 1px;"/><path class="xgrid crisp" transform="translate(531.1700000000001,0)" d="M0,100v320" style="stroke: rgb(255, 255, 255); stroke-opacity: 1; stroke-width: 1px;"/></g><g class="y"><path class="ygrid crisp" transform="translate(0,399.25)" d="M80,0h462" style="stroke: rgb(255, 255, 255); stroke-opacity: 1; stroke-width: 1px;"/><path class="ygrid crisp" transform="translate(0,336.22)" d="M80,0h462" style="stroke: rgb(255, 255, 255); stroke-opacity: 1; stroke-width: 1px;"/><path class="ygrid crisp" transform="translate(0,273.19)" d="M80,0h462" style="stroke: rgb(255, 255, 255); stroke-opacity: 1; stroke-width: 1px;"/><path class="ygrid crisp" transform="translate(0,210.16)" d="M80,0h462" style="stroke: rgb(255, 255, 255); stroke-opacity: 1; stroke-width: 1px;"/><path class="ygrid crisp" transform="translate(0,147.14)" d="M80,0h462" style="stroke: rgb(255, 255, 255); stroke-opacity: 1; stroke-width: 1px;"/></g></g><g class="zerolinelayer"><path class="xzl zl crisp" transform="translate(80,0)" d="M0,100v320" style="stroke: rgb(255, 255, 255); stroke-opacity: 1; stroke-width: 2px;"/></g><path class="xlines-below"/><path class="ylines-below"/><g class="overlines-below"/><g class="xaxislayer-below"/><g class="yaxislayer-below"/><g class="overaxes-below"/><g class="plot" transform="translate(80, 100)" clip-path="url('#clipb1e7a2xyplot')"><g class="scatterlayer mlayer"><g class="trace scatter trace49c80e" style="stroke-miterlimit: 2; opacity: 1;"><g class="fills"/><g class="errorbars"/><g class="lines"><path class="js-line" d="M0,247.53Q0.62,247.35 0.9,247.14C1.24,246.89 1.53,246.46 1.81,246.03C2.14,245.52 2.43,244.9 2.71,244.25C3.03,243.52 3.33,242.7 3.62,241.86C3.94,240.94 4.23,239.95 4.52,238.94C4.83,237.85 5.13,236.7 5.42,235.53C5.73,234.29 6.03,233 6.33,231.69C6.64,230.32 6.93,228.92 7.23,227.49C7.54,226.01 7.84,224.49 8.14,222.96C8.45,221.38 8.74,219.77 9.04,218.15C9.34,216.49 9.65,214.82 9.95,213.13C10.25,211.41 10.55,209.67 10.85,207.92C11.15,206.15 11.45,204.37 11.75,202.58C12.05,200.78 12.36,198.97 12.66,197.15C12.96,195.32 13.26,193.48 13.56,191.65C13.86,189.81 14.17,187.97 14.47,186.13C14.77,184.29 15.07,182.45 15.37,180.62C15.67,178.79 15.97,176.95 16.27,175.13C16.57,173.32 16.88,171.51 17.18,169.71C17.48,167.92 17.78,166.14 18.08,164.37C18.38,162.62 18.69,160.88 18.99,159.15C19.29,157.44 19.59,155.74 19.89,154.06C20.19,152.4 20.49,150.76 20.79,149.13C21.09,147.53 21.4,145.95 21.7,144.38C22,142.85 22.29,141.33 22.6,139.83C22.9,138.37 23.2,136.92 23.51,135.5C23.81,134.11 24.1,132.74 24.41,131.4C24.71,130.09 25.01,128.81 25.32,127.54C25.62,126.31 25.91,125.1 26.22,123.92C26.52,122.78 26.81,121.65 27.12,120.55C27.42,119.49 27.72,118.45 28.03,117.43C28.33,116.45 28.62,115.49 28.93,114.56C29.23,113.66 29.53,112.78 29.84,111.93C30.14,111.11 30.43,110.31 30.74,109.53C31.03,108.79 31.33,108.07 31.64,107.38C31.93,106.72 32.24,106.08 32.55,105.47C32.84,104.89 33.14,104.33 33.45,103.8C33.74,103.3 34.05,102.82 34.36,102.37C34.65,101.95 34.95,101.55 35.26,101.18C35.55,100.84 35.85,100.52 36.16,100.24C36.45,99.97 36.76,99.73 37.07,99.52C37.36,99.33 37.66,99.16 37.97,99.03C38.27,98.91 38.57,98.82 38.88,98.76C39.18,98.7 39.48,98.68 39.78,98.69C40.08,98.7 40.38,98.74 40.68,98.81C40.99,98.88 41.29,98.98 41.59,99.1C41.9,99.22 42.19,99.37 42.49,99.54C42.8,99.71 43.1,99.91 43.4,100.12C43.71,100.34 44,100.59 44.3,100.84C44.61,101.1 44.91,101.38 45.21,101.67C45.52,101.97 45.82,102.29 46.11,102.62C46.42,102.96 46.71,103.32 47.01,103.7C47.32,104.09 47.62,104.51 47.92,104.94C48.23,105.39 48.53,105.85 48.82,106.34C49.13,106.86 49.44,107.4 49.73,107.96C50.04,108.55 50.34,109.17 50.63,109.82C50.94,110.51 51.24,111.23 51.53,111.98C51.84,112.78 52.15,113.61 52.44,114.47C52.75,115.39 53.05,116.36 53.34,117.36C53.65,118.42 53.96,119.53 54.25,120.67C54.56,121.89 54.86,123.15 55.15,124.45C55.46,125.83 55.76,127.25 56.05,128.71C56.36,130.26 56.67,131.85 56.96,133.49C57.27,135.21 57.56,136.98 57.86,138.78C58.17,140.67 58.47,142.61 58.77,144.58C59.08,146.63 59.37,148.74 59.67,150.87C59.98,153.08 60.28,155.33 60.58,157.62C60.89,159.98 61.18,162.38 61.48,164.8C61.78,167.28 62.08,169.8 62.38,172.34C62.68,174.93 62.99,177.54 63.29,180.17C63.59,182.84 63.89,185.54 64.19,188.24C64.49,190.96 64.8,193.71 65.1,196.45C65.4,199.2 65.7,201.97 66,204.71C66.3,207.42 66.59,210.12 66.9,212.78C67.2,215.38 67.51,217.95 67.81,220.5C68.11,223.01 68.41,225.51 68.71,227.98C69.01,230.4 69.31,232.8 69.62,235.16C69.92,237.46 70.21,239.74 70.52,241.97C70.82,244.12 71.11,246.25 71.42,248.32C71.72,250.29 72.02,252.24 72.33,254.1C72.62,255.83 72.91,257.53 73.23,259.11C73.52,260.54 73.81,261.94 74.14,263.18C74.42,264.25 74.69,265.29 75.04,266.12C75.31,266.77 75.6,267.39 75.95,267.79C76.22,268.09 76.53,268.32 76.85,268.43C77.14,268.53 77.45,268.52 77.75,268.49C78.06,268.46 78.36,268.33 78.66,268.22C78.96,268.11 79.26,267.94 79.56,267.81C79.86,267.68 80.17,267.54 80.47,267.42C80.77,267.31 81.07,267.2 81.37,267.12C81.67,267.05 81.97,267.01 82.27,266.97C82.57,266.93 82.88,266.9 83.18,266.88C83.48,266.86 83.78,266.84 84.08,266.85C84.38,266.86 84.69,266.9 84.99,266.93C85.29,266.96 85.59,266.98 85.89,267.02C86.19,267.06 86.49,267.1 86.79,267.17C87.09,267.24 87.4,267.34 87.7,267.45C88,267.56 88.3,267.7 88.6,267.84C88.91,267.99 89.21,268.15 89.51,268.32C89.81,268.49 90.11,268.68 90.41,268.86C90.71,269.05 91.01,269.27 91.32,269.43C91.61,269.58 91.91,269.73 92.22,269.8C92.51,269.87 92.82,269.87 93.12,269.85C93.42,269.83 93.74,269.8 94.03,269.69C94.34,269.57 94.65,269.38 94.93,269.14C95.26,268.86 95.56,268.49 95.84,268.09C96.16,267.63 96.46,267.1 96.74,266.53C97.06,265.88 97.35,265.12 97.64,264.38C97.95,263.61 98.26,262.82 98.55,261.99C98.86,261.1 99.15,260.14 99.45,259.2C99.75,258.24 100.06,257.26 100.36,256.3C100.66,255.35 100.96,254.39 101.26,253.45C101.56,252.53 101.86,251.61 102.16,250.71C102.46,249.82 102.77,248.95 103.07,248.08C103.37,247.22 103.67,246.36 103.97,245.5C104.27,244.64 104.58,243.8 104.88,242.93C105.19,242.04 105.47,241.11 105.78,240.23C106.07,239.39 106.37,238.55 106.68,237.76C106.97,237.01 107.28,236.28 107.59,235.6C107.88,234.96 108.17,234.35 108.49,233.78C108.78,233.26 109.08,232.76 109.4,232.32C109.69,231.92 109.98,231.54 110.3,231.22C110.59,230.93 110.89,230.67 111.21,230.48C111.5,230.3 111.8,230.16 112.11,230.09C112.4,230.02 112.71,230 113.01,230.03C113.31,230.06 113.63,230.15 113.92,230.27C114.23,230.4 114.53,230.59 114.82,230.8C115.13,231.02 115.44,231.28 115.73,231.56C116.04,231.86 116.34,232.2 116.63,232.54C116.94,232.89 117.23,233.27 117.53,233.65C117.84,234.04 118.14,234.45 118.44,234.85C118.74,235.25 119.03,235.65 119.34,236.03C119.64,236.4 119.94,236.76 120.25,237.08C120.54,237.37 120.84,237.66 121.15,237.87C121.44,238.07 121.74,238.25 122.05,238.34C122.34,238.42 122.67,238.45 122.96,238.39C123.27,238.33 123.58,238.16 123.86,237.95C124.19,237.7 124.49,237.35 124.77,236.95C125.1,236.48 125.39,235.88 125.67,235.27C125.99,234.57 126.29,233.76 126.58,232.95C126.9,232.07 127.19,231.13 127.48,230.16C127.79,229.1 128.09,227.99 128.38,226.84C128.69,225.62 128.99,224.32 129.29,223.03C129.6,221.69 129.89,220.32 130.19,218.94C130.49,217.53 130.8,216.12 131.1,214.68C131.4,213.22 131.7,211.74 132,210.24C132.3,208.71 132.6,207.15 132.9,205.59C133.2,204.02 133.5,202.41 133.81,200.85C134.11,199.33 134.4,197.81 134.71,196.35C135.01,194.95 135.31,193.57 135.62,192.24C135.91,190.99 136.21,189.76 136.52,188.59C136.81,187.5 137.1,186.45 137.42,185.46C137.71,184.55 138.01,183.67 138.33,182.87C138.62,182.15 138.9,181.46 139.23,180.86C139.51,180.34 139.81,179.84 140.14,179.46C140.42,179.14 140.72,178.83 141.04,178.67C141.32,178.53 141.65,178.46 141.95,178.5C142.26,178.55 142.57,178.74 142.85,178.97C143.18,179.24 143.47,179.65 143.75,180.08C144.08,180.58 144.37,181.18 144.66,181.81C144.98,182.52 145.27,183.33 145.56,184.16C145.88,185.08 146.18,186.09 146.47,187.12C146.79,188.24 147.08,189.43 147.37,190.66C147.68,191.97 147.98,193.35 148.27,194.76C148.58,196.25 148.89,197.81 149.18,199.39C149.49,201.05 149.78,202.77 150.08,204.51C150.39,206.33 150.69,208.19 150.99,210.08C151.3,212.03 151.59,214.03 151.89,216.04C152.19,218.11 152.49,220.21 152.79,222.32C153.09,224.48 153.4,226.66 153.7,228.85C154,231.07 154.3,233.3 154.6,235.54C154.9,237.79 155.21,240.06 155.51,242.31C155.81,244.56 156.11,246.81 156.41,249.04C156.71,251.25 157.02,253.45 157.32,255.63C157.62,257.77 157.92,259.9 158.22,261.99C158.52,264.02 158.81,266.06 159.12,267.99C159.41,269.79 159.71,271.57 160.03,273.2C160.32,274.66 160.61,276.04 160.93,277.32C161.22,278.46 161.51,279.58 161.84,280.53C162.12,281.32 162.39,282.1 162.74,282.65C163.01,283.06 163.31,283.51 163.64,283.62C163.92,283.71 164.28,283.63 164.55,283.46C164.9,283.25 165.17,282.75 165.45,282.29C165.79,281.73 166.07,281.02 166.36,280.31C166.68,279.51 166.97,278.61 167.26,277.71C167.57,276.74 167.87,275.71 168.16,274.67C168.47,273.58 168.77,272.45 169.07,271.31C169.38,270.14 169.67,268.94 169.97,267.75C170.27,266.54 170.58,265.32 170.88,264.11C171.18,262.9 171.48,261.69 171.78,260.5C172.08,259.33 172.37,258.16 172.68,257.02C172.98,255.91 173.28,254.81 173.59,253.74C173.89,252.72 174.18,251.71 174.49,250.74C174.78,249.81 175.09,248.91 175.4,248.04C175.69,247.22 175.99,246.43 176.3,245.67C176.59,244.96 176.9,244.27 177.21,243.63C177.5,243.03 177.8,242.46 178.11,241.94C178.4,241.46 178.69,241 179.01,240.59C179.3,240.21 179.61,239.87 179.92,239.56C180.21,239.28 180.51,239.02 180.82,238.8C181.11,238.59 181.42,238.42 181.73,238.26C182.03,238.11 182.33,237.99 182.63,237.87C182.93,237.75 183.23,237.66 183.53,237.56C183.83,237.46 184.14,237.37 184.44,237.27C184.74,237.16 185.04,237.05 185.34,236.93C185.64,236.81 185.95,236.68 186.25,236.53C186.55,236.38 186.85,236.22 187.15,236.04C187.45,235.86 187.75,235.65 188.05,235.44C188.36,235.22 188.66,234.99 188.96,234.75C189.26,234.5 189.56,234.24 189.86,233.97C190.16,233.7 190.47,233.42 190.77,233.13C191.07,232.84 191.37,232.55 191.67,232.25C191.97,231.95 192.28,231.65 192.58,231.35C192.88,231.05 193.18,230.76 193.48,230.47C193.78,230.18 194.08,229.88 194.38,229.6C194.68,229.32 194.99,229.05 195.29,228.78C195.59,228.52 195.89,228.26 196.19,228.01C196.49,227.77 196.79,227.53 197.1,227.3C197.4,227.08 197.7,226.86 198,226.66C198.3,226.46 198.59,226.27 198.9,226.11C199.2,225.95 199.5,225.8 199.81,225.69C200.11,225.59 200.41,225.51 200.71,225.48C201.01,225.45 201.32,225.46 201.62,225.53C201.93,225.6 202.23,225.73 202.52,225.9C202.84,226.09 203.13,226.35 203.42,226.65C203.74,226.98 204.04,227.39 204.33,227.82C204.65,228.3 204.94,228.85 205.23,229.43C205.55,230.06 205.85,230.76 206.14,231.47C206.45,232.23 206.74,233.03 207.04,233.84C207.35,234.69 207.65,235.57 207.95,236.45C208.25,237.35 208.55,238.26 208.85,239.17C209.15,240.1 209.45,241.03 209.75,241.97C210.05,242.92 210.36,243.88 210.66,244.85C210.96,245.82 211.26,246.82 211.56,247.79C211.86,248.75 212.16,249.72 212.47,250.64C212.76,251.51 213.06,252.36 213.37,253.16C213.66,253.91 213.94,254.69 214.27,255.33C214.55,255.87 214.82,256.5 215.18,256.77C215.45,256.97 215.81,257.11 216.08,257.02C216.43,256.9 216.72,256.32 216.99,255.8C217.37,255.05 217.62,253.96 217.89,252.85C218.23,251.44 218.51,249.74 218.79,247.98C219.12,245.9 219.41,243.55 219.7,241.14C220.02,238.44 220.31,235.51 220.6,232.54C220.91,229.36 221.21,226.01 221.51,222.65C221.82,219.15 222.11,215.55 222.41,211.94C222.71,208.25 223.02,204.51 223.32,200.76C223.62,196.97 223.92,193.14 224.22,189.33C224.52,185.51 224.82,181.67 225.12,177.85C225.42,174.05 225.73,170.24 226.03,166.46C226.33,162.72 226.63,158.98 226.93,155.28C227.23,151.63 227.54,148 227.84,144.42C228.14,140.91 228.44,137.42 228.74,133.98C229.04,130.62 229.33,127.3 229.64,124.03C229.94,120.86 230.24,117.73 230.55,114.66C230.85,111.69 231.14,108.76 231.45,105.91C231.75,103.17 232.05,100.48 232.36,97.87C232.65,95.38 232.95,92.94 233.26,90.58C233.55,88.36 233.85,86.19 234.16,84.12C234.45,82.19 234.75,80.31 235.07,78.54C235.36,76.91 235.65,75.34 235.97,73.88C236.26,72.57 236.55,71.32 236.88,70.18C237.16,69.19 237.45,68.24 237.78,67.44C238.06,66.78 238.33,66.12 238.68,65.68C238.95,65.34 239.27,64.99 239.59,64.91C239.87,64.84 240.22,64.93 240.49,65.1C240.83,65.31 241.12,65.78 241.4,66.23C241.74,66.8 242.02,67.53 242.3,68.29C242.63,69.17 242.92,70.18 243.21,71.22C243.53,72.39 243.82,73.66 244.11,74.97C244.42,76.4 244.72,77.91 245.01,79.46C245.32,81.11 245.62,82.83 245.92,84.58C246.23,86.4 246.52,88.29 246.82,90.18C247.13,92.11 247.43,94.09 247.73,96.04C248.03,97.98 248.32,99.96 248.63,101.85C248.92,103.66 249.21,105.51 249.53,107.17C249.82,108.65 250.08,110.18 250.44,111.35C250.71,112.24 250.92,113.44 251.34,113.64C251.6,113.76 252,113.61 252.25,113.36C252.71,112.9 252.88,111.55 253.15,110.43C253.5,108.97 253.77,107.12 254.05,105.29C254.37,103.22 254.67,100.92 254.96,98.64C255.27,96.23 255.56,93.7 255.86,91.2C256.16,88.66 256.47,86.06 256.77,83.51C257.07,80.99 257.36,78.45 257.67,75.99C257.97,73.6 258.27,71.24 258.58,68.95C258.87,66.78 259.17,64.63 259.48,62.59C259.77,60.68 260.06,58.82 260.38,57.06C260.67,55.45 260.97,53.89 261.29,52.46C261.58,51.19 261.86,49.95 262.19,48.87C262.47,47.95 262.75,47.05 263.1,46.34C263.37,45.78 263.64,45.2 264,44.91C264.27,44.69 264.61,44.53 264.9,44.58C265.22,44.64 265.54,45.01 265.81,45.36C266.17,45.83 266.43,46.53 266.71,47.24C267.05,48.1 267.34,49.13 267.62,50.19C267.95,51.41 268.23,52.77 268.52,54.18C268.84,55.74 269.13,57.43 269.42,59.16C269.74,61.05 270.04,63.04 270.33,65.08C270.64,67.27 270.94,69.56 271.23,71.89C271.54,74.36 271.84,76.91 272.14,79.51C272.45,82.23 272.74,85.03 273.04,87.88C273.35,90.84 273.65,93.87 273.95,96.94C274.26,100.11 274.55,103.33 274.85,106.59C275.15,109.94 275.45,113.34 275.75,116.77C276.05,120.27 276.36,123.81 276.66,127.37C276.96,130.99 277.26,134.64 277.56,138.31C277.86,142.01 278.17,145.75 278.47,149.48C278.77,153.23 279.07,157 279.37,160.75C279.67,164.49 279.97,168.24 280.27,171.94C280.57,175.59 280.87,179.25 281.18,182.82C281.48,186.28 281.77,189.75 282.08,193.05C282.37,196.15 282.67,199.24 282.99,202.07C283.28,204.58 283.55,207.07 283.89,209.17C284.16,210.87 284.37,212.66 284.79,213.76C285.05,214.44 285.41,215.32 285.7,215.31C286.02,215.29 286.34,214.17 286.6,213.37C286.98,212.21 287.23,210.52 287.51,208.91C287.84,207.04 288.12,204.92 288.41,202.83C288.72,200.63 289.02,198.3 289.32,196.02C289.62,193.73 289.92,191.39 290.22,189.11C290.52,186.87 290.81,184.64 291.12,182.47C291.42,180.39 291.72,178.34 292.03,176.36C292.32,174.49 292.62,172.66 292.93,170.92C293.22,169.3 293.52,167.73 293.84,166.26C294.13,164.92 294.42,163.63 294.74,162.45C295.02,161.4 295.31,160.39 295.64,159.51C295.92,158.76 296.21,158.03 296.55,157.46C296.83,156.99 297.11,156.53 297.45,156.27C297.73,156.06 298.06,155.9 298.36,155.91C298.66,155.92 298.98,156.11 299.26,156.32C299.59,156.57 299.88,156.99 300.16,157.41C300.49,157.9 300.78,158.49 301.07,159.1C301.39,159.78 301.68,160.53 301.97,161.3C302.28,162.13 302.59,163.01 302.88,163.91C303.19,164.85 303.48,165.84 303.78,166.82C304.08,167.83 304.38,168.87 304.68,169.9C304.98,170.93 305.28,171.98 305.59,173C305.89,174 306.18,174.99 306.49,175.95C306.79,176.88 307.09,177.79 307.4,178.67C307.7,179.51 307.99,180.33 308.3,181.13C308.6,181.89 308.9,182.64 309.21,183.36C309.51,184.05 309.8,184.73 310.11,185.38C310.4,186 310.7,186.61 311.01,187.19C311.31,187.75 311.61,188.29 311.92,188.8C312.21,189.28 312.51,189.75 312.82,190.17C313.11,190.56 313.41,190.95 313.73,191.26C314.02,191.54 314.32,191.77 314.63,191.99C314.92,192.21 315.23,192.39 315.53,192.58C315.83,192.78 316.14,192.96 316.44,193.16C316.74,193.36 317.04,193.57 317.34,193.79C317.64,194.01 317.95,194.23 318.25,194.47C318.55,194.71 318.85,194.95 319.15,195.21C319.45,195.47 319.75,195.75 320.05,196.04C320.36,196.34 320.66,196.64 320.96,196.97C321.27,197.31 321.57,197.67 321.86,198.04C322.17,198.43 322.48,198.84 322.77,199.28C323.08,199.74 323.38,200.23 323.67,200.74C323.98,201.28 324.29,201.85 324.58,202.44C324.89,203.07 325.19,203.74 325.48,204.43C325.79,205.17 326.09,205.93 326.38,206.73C326.69,207.57 327,208.45 327.29,209.36C327.6,210.32 327.9,211.31 328.19,212.33C328.5,213.4 328.8,214.5 329.1,215.63C329.41,216.81 329.71,218.02 330,219.25C330.31,220.53 330.6,221.85 330.9,223.18C331.21,224.55 331.51,225.94 331.81,227.35C332.12,228.79 332.41,230.25 332.71,231.72C333.01,233.2 333.32,234.7 333.62,236.2C333.92,237.7 334.22,239.2 334.52,240.7C334.82,242.19 335.12,243.69 335.42,245.17C335.72,246.64 336.03,248.09 336.33,249.54C336.63,250.97 336.93,252.39 337.23,253.79C337.53,255.17 337.83,256.54 338.14,257.88C338.44,259.18 338.73,260.46 339.04,261.72C339.34,262.94 339.64,264.14 339.95,265.3C340.24,266.4 340.54,267.49 340.85,268.51C341.14,269.46 341.43,270.37 341.75,271.22C342.04,271.99 342.34,272.72 342.66,273.39C342.95,273.99 343.24,274.57 343.56,275.07C343.85,275.51 344.15,275.92 344.47,276.24C344.75,276.52 345.06,276.75 345.37,276.93C345.66,277.1 345.96,277.22 346.27,277.32C346.57,277.42 346.88,277.47 347.18,277.52C347.48,277.57 347.78,277.63 348.08,277.64C348.38,277.65 348.69,277.6 348.99,277.58C349.29,277.56 349.59,277.51 349.89,277.52C350.19,277.53 350.49,277.55 350.79,277.62C351.1,277.69 351.41,277.8 351.7,277.95C352.01,278.11 352.31,278.31 352.6,278.55C352.92,278.81 353.22,279.13 353.51,279.46C353.82,279.81 354.11,280.22 354.41,280.62C354.72,281.03 355.02,281.46 355.32,281.87C355.62,282.28 355.91,282.72 356.22,283.1C356.51,283.46 356.81,283.81 357.12,284.11C357.41,284.39 357.71,284.7 358.03,284.87C358.32,285.02 358.63,285.14 358.93,285.12C359.24,285.1 359.55,284.91 359.84,284.73C360.16,284.54 360.45,284.27 360.74,283.99C361.05,283.69 361.35,283.34 361.64,282.97C361.96,282.56 362.26,282.11 362.55,281.64C362.86,281.13 363.16,280.57 363.45,280C363.76,279.39 364.07,278.75 364.36,278.09C364.67,277.39 364.97,276.65 365.26,275.89C365.57,275.09 365.86,274.26 366.16,273.42C366.47,272.54 366.77,271.64 367.07,270.72C367.38,269.77 367.67,268.79 367.97,267.81C368.28,266.8 368.58,265.78 368.88,264.74C369.19,263.68 369.49,262.63 369.78,261.52C370.09,260.34 370.38,259.05 370.68,257.84C370.98,256.65 371.28,255.45 371.59,254.3C371.89,253.19 372.18,252.09 372.49,251.04C372.78,250.04 373.09,249.06 373.4,248.13C373.69,247.26 373.99,246.42 374.3,245.62C374.59,244.87 374.9,244.18 375.21,243.48C375.51,242.81 375.83,242.22 376.11,241.52C376.43,240.73 376.72,239.83 377.01,238.95C377.32,238.02 377.61,237 377.92,236.07C378.21,235.18 378.5,234.3 378.82,233.49C379.11,232.74 379.41,232.02 379.73,231.37C380.02,230.79 380.31,230.24 380.63,229.77C380.91,229.36 381.21,228.97 381.53,228.68C381.81,228.42 382.12,228.2 382.44,228.08C382.73,227.97 383.04,227.93 383.34,227.95C383.65,227.97 383.96,228.09 384.25,228.23C384.56,228.38 384.86,228.61 385.15,228.83C385.46,229.06 385.74,229.34 386.05,229.57C386.35,229.8 386.66,230 386.96,230.2C387.26,230.4 387.56,230.6 387.86,230.79C388.16,230.97 388.46,231.17 388.77,231.31C389.07,231.45 389.36,231.58 389.67,231.64C389.97,231.7 390.28,231.72 390.58,231.69C390.88,231.66 391.18,231.55 391.48,231.46C391.78,231.36 392.08,231.25 392.38,231.12C392.69,230.99 392.99,230.85 393.29,230.68C393.6,230.51 393.89,230.31 394.19,230.1C394.5,229.88 394.8,229.63 395.1,229.37C395.41,229.09 395.71,228.79 396,228.47C396.31,228.14 396.6,227.79 396.9,227.42C397.21,227.04 397.51,226.64 397.81,226.23C398.12,225.81 398.41,225.37 398.71,224.92C399.02,224.46 399.32,223.99 399.62,223.51C399.92,223.02 400.22,222.52 400.52,222.02C400.82,221.51 401.12,220.98 401.42,220.46C401.72,219.93 402.03,219.4 402.33,218.87C402.63,218.34 402.93,217.81 403.23,217.3C403.53,216.8 403.83,216.3 404.14,215.82C404.44,215.36 404.73,214.91 405.04,214.5C405.33,214.11 405.64,213.74 405.95,213.41C406.24,213.1 406.54,212.81 406.85,212.58C407.14,212.37 407.44,212.18 407.75,212.05C408.04,211.93 408.36,211.85 408.66,211.83C408.96,211.81 409.26,211.85 409.56,211.91C409.87,211.97 410.17,212.09 410.47,212.19C410.77,212.29 411.07,212.39 411.37,212.51C411.67,212.64 411.97,212.77 412.27,212.94C412.58,213.11 412.88,213.32 413.18,213.53C413.49,213.75 413.78,214 414.08,214.24C414.38,214.48 414.68,214.73 414.99,214.96C415.29,215.19 415.58,215.42 415.89,215.61C416.18,215.8 416.48,215.97 416.79,216.11C417.09,216.24 417.39,216.36 417.7,216.42C418,216.48 418.3,216.53 418.6,216.49C418.91,216.45 419.23,216.36 419.51,216.17C419.84,215.95 420.13,215.57 420.41,215.16C420.75,214.65 421.02,213.94 421.32,213.3C421.63,212.63 421.92,211.92 422.22,211.24C422.52,210.56 422.81,209.87 423.12,209.21C423.42,208.56 423.72,207.92 424.03,207.3C424.33,206.71 424.62,206.13 424.93,205.58C425.22,205.06 425.53,204.55 425.84,204.08C426.13,203.64 426.43,203.22 426.74,202.83C427.03,202.47 427.33,202.13 427.64,201.83C427.93,201.55 428.24,201.3 428.55,201.09C428.84,200.9 429.14,200.73 429.45,200.62C429.75,200.51 430.06,200.44 430.36,200.43C430.66,200.42 430.97,200.45 431.26,200.53C431.57,200.61 431.87,200.76 432.16,200.94C432.48,201.14 432.78,201.4 433.07,201.68C433.39,201.99 433.68,202.36 433.97,202.75C434.29,203.18 434.59,203.66 434.88,204.16C435.19,204.7 435.49,205.3 435.78,205.91C436.09,206.57 436.39,207.27 436.68,208C436.99,208.78 437.3,209.59 437.59,210.43C437.9,211.32 438.2,212.25 438.49,213.2C438.8,214.2 439.1,215.23 439.4,216.28C439.71,217.38 440,218.52 440.3,219.67C440.61,220.87 440.91,222.09 441.21,223.34C441.52,224.63 441.81,225.94 442.11,227.27C442.41,228.64 442.71,230.03 443.01,231.44C443.31,232.88 443.62,234.33 443.92,235.8C444.22,237.29 444.52,238.81 444.82,240.33C445.12,241.86 445.43,243.41 445.73,244.96C446.03,246.51 446.33,248.08 446.63,249.62C446.93,251.14 447.21,252.74 447.53,254.16C447.82,255.44 448.12,256.67 448.44,257.78C448.72,258.75 449.01,259.69 449.34,260.49C449.62,261.16 449.93,261.73 450.25,262.29C450.54,262.8 450.84,263.25 451.15,263.71C451.44,264.15 451.75,264.57 452.05,264.99C452.35,265.4 452.65,265.81 452.96,266.2C453.26,266.58 453.55,266.96 453.86,267.31C454.16,267.65 454.47,267.97 454.77,268.3C455.07,268.63 455.37,268.96 455.67,269.3C455.97,269.64 456.28,269.98 456.58,270.33C456.88,270.68 457.18,271.03 457.48,271.38C457.78,271.73 458.08,272.09 458.38,272.45C458.68,272.81 458.99,273.17 459.29,273.52C459.59,273.87 459.88,274.21 460.19,274.54C460.49,274.86 460.79,275.18 461.1,275.46Q461.39,275.72 462,276.15" style="vector-effect: non-scaling-stroke; fill: none; stroke: rgb(0, 100, 80); stroke-opacity: 1; stroke-width: 2px; opacity: 1;"/></g><g class="points"/><g class="text"/></g><g class="trace scatter trace900286" style="stroke-miterlimit: 2; opacity: 1;"><g class="fills"/><g class="errorbars"/><g class="lines"><path class="js-line" d="M0,219.82Q0.63,219.25 0.9,218.82C1.26,218.24 1.52,217.37 1.81,216.57C2.13,215.67 2.42,214.68 2.71,213.68C3.02,212.62 3.32,211.51 3.62,210.39C3.93,209.23 4.22,208.04 4.52,206.85C4.82,205.63 5.12,204.38 5.42,203.14C5.72,201.88 6.03,200.62 6.33,199.35C6.63,198.08 6.93,196.8 7.23,195.53C7.53,194.26 7.84,193 8.14,191.74C8.44,190.49 8.74,189.25 9.04,188.02C9.34,186.81 9.65,185.61 9.95,184.42C10.25,183.25 10.55,182.1 10.85,180.96C11.15,179.85 11.45,178.75 11.75,177.66C12.05,176.59 12.36,175.54 12.66,174.5C12.96,173.48 13.26,172.47 13.56,171.47C13.86,170.48 14.17,169.5 14.47,168.53C14.77,167.58 15.07,166.63 15.37,165.7C15.67,164.79 15.96,163.88 16.27,162.99C16.57,162.12 16.88,161.26 17.18,160.41C17.48,159.58 17.78,158.76 18.08,157.95C18.38,157.15 18.69,156.36 18.99,155.57C19.29,154.78 19.59,154.01 19.89,153.22C20.19,152.43 20.49,151.65 20.79,150.85C21.09,150.05 21.4,149.24 21.7,148.42C22,147.59 22.3,146.76 22.6,145.91C22.9,145.05 23.21,144.18 23.51,143.3C23.81,142.41 24.11,141.51 24.41,140.61C24.71,139.7 25.02,138.78 25.32,137.86C25.62,136.93 25.92,136 26.22,135.07C26.52,134.13 26.82,133.19 27.12,132.25C27.42,131.31 27.73,130.37 28.03,129.42C28.33,128.47 28.63,127.52 28.93,126.57C29.23,125.62 29.54,124.68 29.84,123.73C30.14,122.78 30.44,121.83 30.74,120.88C31.04,119.93 31.34,118.99 31.64,118.04C31.94,117.09 32.25,116.13 32.55,115.18C32.85,114.22 33.15,113.27 33.45,112.31C33.75,111.34 34.06,110.36 34.36,109.38C34.66,108.38 34.96,107.38 35.26,106.37C35.56,105.34 35.86,104.3 36.16,103.25C36.46,102.18 36.77,101.1 37.07,100.01C37.37,98.91 37.67,97.78 37.97,96.67C38.27,95.55 38.58,94.43 38.88,93.31C39.18,92.2 39.48,91.09 39.78,90C40.08,88.93 40.37,87.87 40.68,86.84C40.98,85.85 41.28,84.86 41.59,83.92C41.88,83.02 42.18,82.14 42.49,81.31C42.78,80.53 43.08,79.78 43.4,79.08C43.69,78.44 43.98,77.83 44.3,77.29C44.59,76.81 44.88,76.35 45.21,75.99C45.49,75.68 45.79,75.38 46.11,75.22C46.39,75.08 46.71,74.99 47.01,75.02C47.32,75.05 47.64,75.21 47.92,75.42C48.25,75.66 48.54,76.05 48.82,76.45C49.15,76.92 49.45,77.5 49.73,78.11C50.06,78.81 50.35,79.61 50.63,80.44C50.95,81.37 51.24,82.39 51.53,83.44C51.85,84.6 52.15,85.84 52.44,87.12C52.75,88.51 53.05,89.96 53.34,91.47C53.65,93.09 53.96,94.78 54.25,96.51C54.56,98.35 54.86,100.25 55.15,102.2C55.46,104.26 55.76,106.38 56.05,108.54C56.36,110.81 56.66,113.13 56.96,115.5C57.27,117.96 57.56,120.48 57.86,123.04C58.17,125.69 58.47,128.39 58.77,131.12C59.08,133.93 59.37,136.78 59.67,139.66C59.97,142.6 60.28,145.58 60.58,148.58C60.88,151.63 61.18,154.71 61.48,157.8C61.78,160.92 62.08,164.05 62.38,167.19C62.68,170.34 62.99,173.5 63.29,176.65C63.59,179.79 63.89,182.94 64.19,186.07C64.49,189.19 64.8,192.29 65.1,195.39C65.4,198.46 65.7,201.53 66,204.58C66.3,207.6 66.6,210.61 66.9,213.59C67.2,216.54 67.5,219.49 67.81,222.37C68.11,225.17 68.4,228.01 68.71,230.66C69,233.11 69.31,235.42 69.62,237.72C69.92,239.92 70.22,242.04 70.52,244.16C70.82,246.22 71.11,248.24 71.42,250.24C71.72,252.18 72.02,254.11 72.33,255.99C72.63,257.8 72.91,259.65 73.23,261.3C73.51,262.75 73.82,264.1 74.14,265.36C74.42,266.47 74.72,267.51 75.04,268.46C75.32,269.29 75.61,270.1 75.95,270.76C76.23,271.31 76.53,271.77 76.85,272.19C77.13,272.56 77.44,272.87 77.75,273.15C78.04,273.41 78.35,273.63 78.66,273.82C78.95,274 79.25,274.16 79.56,274.29C79.86,274.42 80.17,274.51 80.47,274.61C80.77,274.7 81.07,274.78 81.37,274.86C81.67,274.94 81.97,275.01 82.27,275.11C82.57,275.21 82.88,275.32 83.18,275.44C83.48,275.57 83.78,275.71 84.08,275.86C84.38,276.01 84.68,276.2 84.99,276.35C85.29,276.49 85.58,276.67 85.89,276.74C86.18,276.81 86.49,276.8 86.79,276.78C87.09,276.76 87.4,276.64 87.7,276.59C88,276.54 88.3,276.48 88.6,276.47C88.9,276.46 89.21,276.49 89.51,276.55C89.81,276.61 90.11,276.72 90.41,276.85C90.72,276.98 91.02,277.17 91.32,277.34C91.62,277.5 91.91,277.78 92.22,277.84C92.51,277.9 92.86,277.91 93.12,277.73C93.5,277.48 93.75,276.74 94.03,276.11C94.37,275.33 94.65,274.35 94.93,273.37C95.25,272.25 95.55,271.01 95.84,269.76C96.15,268.42 96.45,267 96.74,265.57C97.05,264.08 97.34,262.54 97.64,261C97.95,259.42 98.25,257.8 98.55,256.19C98.85,254.56 99.15,252.92 99.45,251.29C99.75,249.67 100.06,248.05 100.36,246.46C100.66,244.9 100.95,243.35 101.26,241.83C101.56,240.36 101.85,238.91 102.16,237.51C102.45,236.18 102.76,234.87 103.07,233.62C103.36,232.45 103.65,231.3 103.97,230.22C104.26,229.22 104.56,228.26 104.88,227.37C105.17,226.56 105.46,225.78 105.78,225.09C106.06,224.48 106.35,223.9 106.68,223.4C106.96,222.97 107.27,222.57 107.59,222.26C107.87,221.99 108.17,221.76 108.49,221.61C108.78,221.47 109.09,221.4 109.4,221.36C109.7,221.32 110,221.35 110.3,221.38C110.6,221.41 110.91,221.48 111.21,221.54C111.51,221.6 111.81,221.67 112.11,221.73C112.41,221.79 112.71,221.85 113.01,221.9C113.31,221.96 113.62,222.01 113.92,222.06C114.22,222.11 114.52,222.16 114.82,222.21C115.12,222.26 115.43,222.32 115.73,222.37C116.03,222.42 116.33,222.47 116.63,222.52C116.93,222.58 117.23,222.62 117.53,222.7C117.83,222.78 118.14,222.87 118.44,222.98C118.74,223.1 119.04,223.24 119.34,223.4C119.65,223.57 119.95,223.76 120.25,223.97C120.56,224.18 120.85,224.42 121.15,224.65C121.45,224.89 121.74,225.15 122.05,225.38C122.35,225.6 122.64,225.91 122.96,226C123.25,226.08 123.58,226.08 123.86,225.97C124.18,225.85 124.49,225.55 124.77,225.23C125.11,224.85 125.38,224.3 125.67,223.79C125.98,223.24 126.29,222.64 126.58,222.02C126.89,221.36 127.19,220.66 127.48,219.93C127.79,219.16 128.09,218.34 128.38,217.51C128.69,216.63 128.99,215.73 129.29,214.8C129.6,213.84 129.89,212.85 130.19,211.84C130.5,210.79 130.81,209.74 131.1,208.63C131.41,207.44 131.72,206.23 132,204.9C132.32,203.4 132.61,201.77 132.9,200.09C133.22,198.26 133.51,196.26 133.81,194.32C134.11,192.34 134.41,190.3 134.71,188.3C135.01,186.32 135.31,184.34 135.62,182.4C135.92,180.51 136.21,178.63 136.52,176.8C136.81,175.05 137.11,173.32 137.42,171.66C137.71,170.1 138.01,168.56 138.33,167.11C138.62,165.78 138.91,164.49 139.23,163.3C139.52,162.23 139.81,161.2 140.14,160.29C140.42,159.51 140.7,158.76 141.04,158.17C141.32,157.69 141.6,157.21 141.95,156.96C142.22,156.77 142.56,156.62 142.85,156.67C143.16,156.72 143.48,157.03 143.75,157.33C144.1,157.72 144.38,158.3 144.66,158.9C145,159.62 145.28,160.49 145.56,161.38C145.88,162.4 146.18,163.54 146.47,164.72C146.79,166.02 147.08,167.43 147.37,168.87C147.68,170.44 147.98,172.09 148.27,173.78C148.58,175.58 148.89,177.45 149.18,179.36C149.49,181.36 149.78,183.44 150.08,185.53C150.39,187.7 150.69,189.92 150.99,192.15C151.29,194.43 151.59,196.75 151.89,199.05C152.19,201.36 152.48,203.7 152.79,205.99C153.09,208.23 153.39,210.46 153.7,212.62C153.99,214.68 154.29,216.68 154.6,218.65C154.9,220.55 155.21,222.39 155.51,224.23C155.81,226.03 156.11,227.81 156.41,229.59C156.71,231.34 157.01,233.12 157.32,234.82C157.62,236.45 157.91,238.06 158.22,239.61C158.51,241.09 158.81,242.53 159.12,243.94C159.42,245.3 159.72,246.66 160.03,247.94C160.32,249.12 160.61,250.29 160.93,251.34C161.21,252.26 161.51,253.14 161.84,253.89C162.12,254.53 162.42,255.09 162.74,255.59C163.02,256.02 163.33,256.39 163.64,256.74C163.93,257.06 164.24,257.33 164.55,257.6C164.85,257.86 165.14,258.1 165.45,258.33C165.75,258.55 166.05,258.78 166.36,258.96C166.65,259.13 166.95,259.3 167.26,259.41C167.55,259.51 167.86,259.59 168.16,259.61C168.46,259.63 168.78,259.62 169.07,259.52C169.38,259.41 169.69,259.23 169.97,258.97C170.31,258.66 170.6,258.2 170.88,257.73C171.21,257.19 171.49,256.53 171.78,255.87C172.1,255.13 172.39,254.33 172.68,253.5C173,252.6 173.3,251.64 173.59,250.65C173.9,249.59 174.19,248.48 174.49,247.35C174.8,246.18 175.1,244.95 175.4,243.74C175.7,242.53 176,241.29 176.3,240.09C176.6,238.91 176.9,237.73 177.21,236.58C177.51,235.46 177.8,234.36 178.11,233.29C178.4,232.26 178.7,231.25 179.01,230.28C179.3,229.37 179.6,228.48 179.92,227.65C180.21,226.89 180.5,226.15 180.82,225.48C181.11,224.88 181.41,224.31 181.73,223.81C182.01,223.37 182.31,222.96 182.63,222.64C182.91,222.36 183.21,222.1 183.53,221.94C183.82,221.8 184.14,221.71 184.44,221.7C184.74,221.69 185.05,221.76 185.34,221.87C185.65,221.99 185.96,222.2 186.25,222.43C186.57,222.68 186.86,223 187.15,223.33C187.46,223.69 187.76,224.1 188.05,224.52C188.36,224.97 188.66,225.47 188.96,225.97C189.27,226.5 189.56,227.05 189.86,227.61C190.17,228.18 190.47,228.77 190.77,229.36C191.07,229.95 191.36,230.55 191.67,231.13C191.97,231.7 192.27,232.26 192.58,232.8C192.88,233.32 193.17,233.83 193.48,234.32C193.77,234.79 194.07,235.25 194.38,235.68C194.68,236.1 194.98,236.5 195.29,236.87C195.58,237.23 195.88,237.57 196.19,237.88C196.48,238.17 196.79,238.44 197.1,238.66C197.39,238.86 197.69,239.05 198,239.17C198.29,239.28 198.6,239.4 198.9,239.37C199.21,239.34 199.51,239.13 199.81,238.99C200.11,238.85 200.4,238.67 200.71,238.54C201.01,238.42 201.31,238.31 201.62,238.23C201.92,238.15 202.22,238.1 202.52,238.07C202.82,238.04 203.12,238.05 203.42,238.07C203.72,238.09 204.03,238.15 204.33,238.21C204.63,238.27 204.93,238.37 205.23,238.45C205.53,238.53 205.84,238.64 206.14,238.71C206.44,238.78 206.74,238.86 207.04,238.87C207.34,238.88 207.65,238.86 207.95,238.78C208.26,238.69 208.56,238.54 208.85,238.35C209.16,238.15 209.46,237.87 209.75,237.59C210.06,237.29 210.36,236.93 210.66,236.58C210.97,236.22 211.26,235.83 211.56,235.45C211.86,235.06 212.17,234.67 212.47,234.28C212.77,233.88 213.08,233.49 213.37,233.07C213.68,232.63 213.98,232.18 214.27,231.69C214.59,231.15 214.9,230.58 215.18,229.94C215.51,229.2 215.8,228.38 216.08,227.48C216.41,226.41 216.71,225.2 216.99,223.92C217.32,222.44 217.6,220.79 217.89,219.08C218.21,217.18 218.5,215.13 218.79,213.03C219.1,210.76 219.41,208.36 219.7,205.94C220.01,203.39 220.3,200.75 220.6,198.1C220.91,195.37 221.21,192.57 221.51,189.79C221.81,186.98 222.11,184.14 222.41,181.32C222.71,178.51 223.02,175.68 223.32,172.89C223.62,170.14 223.92,167.41 224.22,164.71C224.52,162.07 224.81,159.45 225.12,156.88C225.42,154.39 225.72,151.93 226.03,149.52C226.33,147.2 226.62,144.91 226.93,142.68C227.23,140.54 227.53,138.45 227.84,136.41C228.13,134.47 228.43,132.57 228.74,130.74C229.03,129.01 229.33,127.32 229.64,125.69C229.93,124.16 230.24,122.66 230.55,121.23C230.84,119.89 231.14,118.6 231.45,117.36C231.74,116.21 232.05,115.09 232.36,114.03C232.65,113.04 232.95,112.08 233.26,111.17C233.55,110.32 233.85,109.5 234.16,108.72C234.45,107.99 234.76,107.3 235.07,106.64C235.36,106.02 235.66,105.43 235.97,104.87C236.26,104.34 236.57,103.84 236.88,103.35C237.18,102.88 237.48,102.44 237.78,102C238.08,101.57 238.38,101.16 238.68,100.73C238.98,100.29 239.29,99.86 239.59,99.4C239.9,98.92 240.2,98.43 240.49,97.92C240.8,97.38 241.1,96.82 241.4,96.24C241.71,95.64 242,95.02 242.3,94.4C242.6,93.77 242.91,93.13 243.21,92.51C243.51,91.89 243.8,91.27 244.11,90.68C244.4,90.11 244.7,89.55 245.01,89.02C245.3,88.52 245.61,88.03 245.92,87.58C246.21,87.16 246.51,86.77 246.82,86.4C247.11,86.06 247.42,85.75 247.73,85.44C248.03,85.14 248.34,84.87 248.63,84.56C248.94,84.23 249.25,83.91 249.53,83.5C249.86,83.01 250.16,82.44 250.44,81.77C250.78,80.93 251.06,79.92 251.34,78.84C251.68,77.53 251.96,76 252.25,74.43C252.57,72.65 252.86,70.68 253.15,68.72C253.46,66.66 253.75,64.48 254.05,62.36C254.35,60.23 254.65,58.07 254.96,55.98C255.26,53.95 255.55,51.94 255.86,50C256.15,48.16 256.46,46.35 256.77,44.61C257.06,42.97 257.36,41.4 257.67,39.85C257.97,38.37 258.27,36.95 258.58,35.53C258.88,34.15 259.17,32.77 259.48,31.44C259.77,30.16 260.07,28.89 260.38,27.69C260.67,26.58 260.97,25.5 261.29,24.51C261.58,23.61 261.87,22.76 262.19,21.98C262.48,21.28 262.79,20.67 263.1,20.04C263.4,19.43 263.69,18.83 264,18.25C264.29,17.7 264.55,17.05 264.9,16.66C265.17,16.35 265.51,16.01 265.81,16C266.11,15.99 266.45,16.28 266.71,16.59C267.08,17.02 267.35,17.79 267.62,18.54C267.97,19.49 268.24,20.67 268.52,21.89C268.85,23.33 269.14,24.95 269.42,26.64C269.74,28.55 270.04,30.62 270.33,32.77C270.65,35.13 270.94,37.64 271.23,40.23C271.54,43.03 271.85,45.97 272.14,48.98C272.45,52.19 272.75,55.52 273.04,58.92C273.35,62.5 273.65,66.2 273.95,69.96C274.26,73.88 274.55,77.9 274.85,81.98C275.16,86.2 275.45,90.51 275.75,94.86C276.06,99.33 276.36,103.87 276.66,108.44C276.96,113.1 277.26,117.82 277.56,122.55C277.86,127.34 278.17,132.17 278.47,136.99C278.77,141.83 279.07,146.7 279.37,151.54C279.67,156.35 279.97,161.17 280.27,165.92C280.57,170.59 280.87,175.25 281.18,179.8C281.48,184.19 281.77,188.57 282.08,192.74C282.37,196.65 282.66,200.65 282.99,204.11C283.27,207.01 283.5,210.01 283.89,212.11C284.15,213.51 284.33,215.38 284.79,215.56C285.04,215.66 285.45,215.35 285.7,214.99C286.2,214.29 286.33,212.45 286.6,210.93C286.95,209.01 287.22,206.66 287.51,204.38C287.83,201.88 288.11,199.18 288.41,196.53C288.72,193.81 289.02,191.02 289.32,188.28C289.62,185.56 289.92,182.82 290.22,180.15C290.52,177.56 290.81,174.98 291.12,172.49C291.42,170.11 291.72,167.76 292.03,165.51C292.32,163.4 292.61,161.33 292.93,159.38C293.22,157.58 293.52,155.84 293.84,154.22C294.13,152.77 294.42,151.36 294.74,150.1C295.02,149.01 295.3,147.96 295.64,147.07C295.92,146.34 296.2,145.62 296.55,145.12C296.82,144.73 297.12,144.34 297.45,144.22C297.73,144.12 298.08,144.17 298.36,144.3C298.69,144.46 298.98,144.87 299.26,145.25C299.59,145.71 299.87,146.31 300.16,146.92C300.48,147.61 300.78,148.38 301.07,149.17C301.38,150.02 301.67,150.92 301.97,151.83C302.28,152.78 302.58,153.77 302.88,154.76C303.19,155.77 303.48,156.81 303.78,157.85C304.08,158.89 304.38,159.95 304.68,161C304.98,162.04 305.29,163.08 305.59,164.11C305.89,165.12 306.18,166.12 306.49,167.1C306.79,168.05 307.09,168.99 307.4,169.89C307.69,170.74 307.98,171.59 308.3,172.37C308.59,173.09 308.86,173.85 309.21,174.4C309.48,174.84 309.78,175.24 310.11,175.47C310.39,175.66 310.7,175.72 311.01,175.79C311.31,175.86 311.62,175.87 311.92,175.88C312.22,175.89 312.52,175.88 312.82,175.88C313.12,175.88 313.43,175.87 313.73,175.86C314.03,175.86 314.33,175.85 314.63,175.85C314.93,175.85 315.23,175.84 315.53,175.85C315.83,175.86 316.14,175.87 316.44,175.91C316.74,175.95 317.04,176 317.34,176.08C317.65,176.16 317.95,176.26 318.25,176.4C318.56,176.54 318.86,176.73 319.15,176.94C319.46,177.17 319.76,177.44 320.05,177.74C320.37,178.07 320.67,178.45 320.96,178.86C321.28,179.3 321.57,179.79 321.86,180.31C322.18,180.87 322.48,181.48 322.77,182.12C323.08,182.81 323.38,183.54 323.67,184.29C323.98,185.1 324.29,185.95 324.58,186.82C324.89,187.75 325.19,188.71 325.48,189.7C325.79,190.73 326.08,191.8 326.38,192.88C326.69,194.01 326.99,195.16 327.29,196.33C327.6,197.53 327.89,198.75 328.19,199.99C328.5,201.25 328.8,202.54 329.1,203.83C329.4,205.14 329.7,206.46 330,207.78C330.3,209.12 330.6,210.46 330.9,211.81C331.2,213.17 331.51,214.53 331.81,215.9C332.11,217.27 332.41,218.65 332.71,220.02C333.01,221.4 333.32,222.78 333.62,224.16C333.92,225.53 334.22,226.91 334.52,228.27C334.82,229.61 335.11,230.96 335.42,232.26C335.72,233.51 336.01,234.79 336.33,235.94C336.62,236.97 336.92,237.93 337.23,238.86C337.52,239.73 337.81,240.6 338.14,241.35C338.42,242 338.73,242.56 339.04,243.13C339.33,243.67 339.64,244.18 339.95,244.69C340.25,245.19 340.55,245.67 340.85,246.15C341.15,246.63 341.45,247.09 341.75,247.57C342.05,248.05 342.36,248.53 342.66,249.02C342.96,249.52 343.26,250.03 343.56,250.56C343.87,251.1 344.17,251.66 344.47,252.22C344.77,252.79 345.07,253.38 345.37,253.97C345.67,254.57 345.97,255.17 346.27,255.78C346.57,256.39 346.88,257.01 347.18,257.62C347.48,258.23 347.78,258.84 348.08,259.44C348.38,260.03 348.69,260.61 348.99,261.19C349.29,261.76 349.59,262.31 349.89,262.89C350.19,263.48 350.5,264.07 350.79,264.7C351.1,265.36 351.4,266.05 351.7,266.75C352.01,267.48 352.3,268.25 352.6,269.01C352.9,269.77 353.2,270.56 353.51,271.31C353.81,272.04 354.1,272.77 354.41,273.46C354.7,274.12 354.99,274.82 355.32,275.37C355.6,275.83 355.9,276.24 356.22,276.56C356.5,276.84 356.81,277.07 357.12,277.24C357.41,277.4 357.72,277.52 358.03,277.57C358.33,277.62 358.64,277.61 358.93,277.54C359.24,277.46 359.56,277.31 359.84,277.1C360.17,276.86 360.46,276.53 360.74,276.13C361.08,275.64 361.37,275.04 361.64,274.35C361.98,273.49 362.27,272.42 362.55,271.33C362.88,270.06 363.16,268.62 363.45,267.18C363.76,265.63 364.06,263.98 364.36,262.35C364.67,260.67 364.96,258.95 365.26,257.23C365.56,255.49 365.86,253.73 366.16,251.96C366.46,250.16 366.77,248.33 367.07,246.5C367.37,244.64 367.67,242.75 367.97,240.89C368.27,239.05 368.57,237.2 368.88,235.39C369.18,233.63 369.47,231.88 369.78,230.19C370.07,228.58 370.37,226.99 370.68,225.48C370.97,224.07 371.27,222.69 371.59,221.39C371.88,220.2 372.17,219.05 372.49,218C372.78,217.06 373.07,216.16 373.4,215.37C373.68,214.69 373.96,214.03 374.3,213.53C374.58,213.12 374.87,212.71 375.21,212.51C375.49,212.35 375.82,212.25 376.11,212.31C376.42,212.37 376.73,212.64 377.01,212.92C377.35,213.26 377.64,213.78 377.92,214.3C378.25,214.92 378.53,215.65 378.82,216.41C379.14,217.26 379.44,218.2 379.73,219.15C380.04,220.16 380.33,221.25 380.63,222.32C380.93,223.43 381.23,224.55 381.53,225.7C381.84,226.89 382.14,228.1 382.44,229.33C382.75,230.61 383.04,231.92 383.34,233.24C383.65,234.6 383.95,236 384.25,237.37C384.55,238.72 384.83,240.15 385.15,241.4C385.43,242.5 385.69,243.65 386.05,244.48C386.32,245.1 386.59,245.83 386.96,246.03C387.22,246.17 387.58,246.12 387.86,245.99C388.2,245.83 388.49,245.36 388.77,244.96C389.1,244.51 389.38,243.94 389.67,243.39C389.98,242.81 390.28,242.19 390.58,241.57C390.88,240.94 391.18,240.3 391.48,239.66C391.78,239.03 392.08,238.38 392.38,237.76C392.68,237.15 392.98,236.54 393.29,235.95C393.59,235.38 393.88,234.82 394.19,234.28C394.49,233.77 394.79,233.27 395.1,232.8C395.39,232.36 395.69,231.93 396,231.54C396.29,231.17 396.59,230.83 396.9,230.52C397.19,230.23 397.5,229.96 397.81,229.74C398.1,229.53 398.4,229.35 398.71,229.21C399.01,229.07 399.31,228.97 399.62,228.9C399.92,228.84 400.22,228.8 400.52,228.81C400.82,228.82 401.12,228.87 401.42,228.95C401.73,229.04 402.04,229.17 402.33,229.34C402.64,229.51 402.94,229.73 403.23,229.98C403.54,230.25 403.85,230.56 404.14,230.89C404.45,231.25 404.75,231.65 405.04,232.07C405.35,232.52 405.66,233 405.95,233.5C406.26,234.03 406.55,234.59 406.85,235.15C407.15,235.72 407.43,236.36 407.75,236.87C408.04,237.33 408.32,237.81 408.66,238.1C408.94,238.33 409.25,238.42 409.56,238.55C409.86,238.67 410.17,238.77 410.47,238.86C410.77,238.95 411.07,239.05 411.37,239.09C411.67,239.13 411.97,239.16 412.27,239.11C412.58,239.05 412.92,238.99 413.18,238.75C413.56,238.4 413.79,237.61 414.08,236.97C414.4,236.26 414.7,235.47 414.99,234.67C415.3,233.81 415.6,232.89 415.89,231.96C416.2,230.97 416.49,229.92 416.79,228.88C417.1,227.81 417.4,226.71 417.7,225.62C418,224.51 418.3,223.4 418.6,222.28C418.9,221.16 419.21,220.03 419.51,218.9C419.81,217.76 420.11,216.62 420.41,215.48C420.71,214.33 421.02,213.17 421.32,212.01C421.62,210.83 421.92,209.65 422.22,208.45C422.52,207.24 422.82,206.01 423.12,204.78C423.42,203.53 423.73,202.26 424.03,200.99C424.33,199.7 424.63,198.4 424.93,197.1C425.23,195.79 425.54,194.47 425.84,193.17C426.14,191.88 426.44,190.58 426.74,189.31C427.04,188.07 427.33,186.83 427.64,185.63C427.94,184.48 428.24,183.34 428.55,182.25C428.84,181.23 429.13,180.22 429.45,179.28C429.74,178.42 430.04,177.58 430.36,176.83C430.65,176.16 430.93,175.5 431.26,174.96C431.54,174.5 431.83,174.05 432.16,173.75C432.44,173.5 432.76,173.27 433.07,173.23C433.36,173.19 433.69,173.29 433.97,173.45C434.3,173.64 434.6,174.02 434.88,174.41C435.22,174.88 435.5,175.49 435.78,176.12C436.11,176.85 436.39,177.68 436.68,178.55C437,179.53 437.3,180.6 437.59,181.7C437.91,182.91 438.2,184.19 438.49,185.51C438.8,186.93 439.11,188.41 439.4,189.93C439.71,191.54 440,193.21 440.3,194.91C440.61,196.69 440.91,198.52 441.21,200.38C441.52,202.31 441.81,204.28 442.11,206.27C442.41,208.32 442.71,210.4 443.01,212.5C443.31,214.64 443.62,216.8 443.92,218.98C444.22,221.18 444.52,223.41 444.82,225.64C445.12,227.88 445.43,230.13 445.73,232.38C446.03,234.62 446.33,236.88 446.63,239.1C446.93,241.29 447.2,243.64 447.53,245.63C447.81,247.32 448.09,248.95 448.44,250.28C448.71,251.32 449.02,252.16 449.34,253C449.63,253.76 449.94,254.45 450.25,255.12C450.54,255.74 450.84,256.33 451.15,256.88C451.44,257.38 451.74,257.85 452.05,258.29C452.34,258.71 452.65,259.09 452.96,259.47C453.26,259.84 453.56,260.19 453.86,260.55C454.16,260.91 454.47,261.26 454.77,261.61C455.07,261.97 455.37,262.32 455.67,262.68C455.97,263.05 456.28,263.42 456.58,263.81C456.89,264.21 457.18,264.61 457.48,265.03C457.78,265.45 458.08,265.89 458.38,266.33C458.68,266.77 458.99,267.23 459.29,267.68C459.59,268.12 459.88,268.58 460.19,269C460.49,269.41 460.78,269.82 461.1,270.17Q461.39,270.48 462,271" style="vector-effect: non-scaling-stroke; fill: none; stroke: rgb(0, 176, 246); stroke-opacity: 1; stroke-width: 2px; opacity: 1;"/></g><g class="points"/><g class="text"/></g><g class="trace scatter trace9746bf" style="stroke-miterlimit: 2; opacity: 1;"><g class="fills"/><g class="errorbars"/><g class="lines"><path class="js-line" d="M0,260.48Q0.64,258.18 0.9,256.67C1.28,254.52 1.52,251.54 1.81,248.75C2.13,245.62 2.42,242.21 2.71,238.8C3.02,235.18 3.32,231.42 3.62,227.63C3.93,223.72 4.22,219.72 4.52,215.7C4.82,211.6 5.12,207.45 5.42,203.29C5.72,199.09 6.03,194.86 6.33,190.63C6.63,186.39 6.93,182.14 7.23,177.9C7.53,173.68 7.84,169.45 8.14,165.25C8.44,161.09 8.74,156.93 9.04,152.81C9.34,148.75 9.65,144.71 9.95,140.72C10.25,136.8 10.55,132.91 10.85,129.08C11.15,125.34 11.44,121.64 11.75,118.01C12.05,114.49 12.35,111.01 12.66,107.61C12.96,104.34 13.25,101.11 13.56,97.97C13.86,94.97 14.16,92.03 14.47,89.18C14.76,86.48 15.06,83.84 15.37,81.3C15.66,78.93 15.96,76.61 16.27,74.41C16.56,72.38 16.86,70.41 17.18,68.56C17.47,66.89 17.76,65.27 18.08,63.8C18.36,62.5 18.66,61.26 18.99,60.17C19.27,59.26 19.54,58.36 19.89,57.69C20.16,57.17 20.43,56.62 20.79,56.4C21.06,56.24 21.42,56.17 21.7,56.28C22.04,56.41 22.33,56.89 22.6,57.33C22.96,57.91 23.23,58.72 23.51,59.54C23.85,60.53 24.13,61.68 24.41,62.88C24.73,64.25 25.03,65.75 25.32,67.31C25.64,69.03 25.93,70.87 26.22,72.76C26.53,74.81 26.83,76.96 27.12,79.17C27.43,81.52 27.74,83.96 28.03,86.44C28.34,89.05 28.63,91.74 28.93,94.46C29.24,97.28 29.54,100.17 29.84,103.07C30.14,106.03 30.44,109.06 30.74,112.05C31.04,115.03 31.32,118.12 31.64,120.96C31.93,123.57 32.16,126.5 32.55,128.47C32.81,129.79 32.96,131.34 33.45,131.71C33.7,131.9 34.09,131.86 34.36,131.71C34.72,131.51 34.98,130.83 35.26,130.31C35.58,129.71 35.86,128.97 36.16,128.28C36.47,127.56 36.77,126.79 37.07,126.06C37.37,125.34 37.66,124.62 37.97,123.93C38.27,123.28 38.57,122.63 38.88,122.03C39.17,121.47 39.47,120.93 39.78,120.44C40.07,119.99 40.36,119.57 40.68,119.2C40.97,118.87 41.27,118.56 41.59,118.31C41.88,118.09 42.18,117.9 42.49,117.77C42.78,117.65 43.1,117.58 43.4,117.56C43.7,117.54 44.01,117.59 44.3,117.67C44.61,117.76 44.92,117.9 45.21,118.08C45.52,118.27 45.82,118.52 46.11,118.79C46.42,119.08 46.72,119.43 47.01,119.79C47.33,120.19 47.63,120.62 47.92,121.09C48.23,121.59 48.53,122.15 48.82,122.72C49.13,123.34 49.44,123.99 49.73,124.68C50.04,125.42 50.34,126.19 50.63,127C50.94,127.87 51.24,128.78 51.53,129.72C51.84,130.73 52.15,131.78 52.44,132.86C52.75,134.01 53.05,135.21 53.34,136.45C53.65,137.76 53.96,139.12 54.25,140.51C54.56,141.98 54.86,143.5 55.15,145.05C55.46,146.68 55.75,148.36 56.05,150.08C56.36,151.88 56.66,153.72 56.96,155.6C57.27,157.55 57.56,159.56 57.86,161.59C58.17,163.69 58.47,165.84 58.77,168.02C59.08,170.26 59.37,172.55 59.67,174.85C59.98,177.21 60.28,179.6 60.58,182C60.88,184.43 61.17,186.97 61.48,189.34C61.77,191.58 62.03,193.98 62.38,195.88C62.65,197.36 62.94,198.7 63.29,199.81C63.56,200.66 63.81,201.5 64.19,201.99C64.45,202.33 64.79,202.63 65.1,202.67C65.39,202.71 65.71,202.48 66,202.3C66.32,202.1 66.6,201.76 66.9,201.5C67.2,201.23 67.5,200.93 67.81,200.71C68.1,200.51 68.4,200.31 68.71,200.21C69,200.12 69.32,200.07 69.62,200.11C69.93,200.15 70.24,200.28 70.52,200.46C70.84,200.66 71.14,200.96 71.42,201.28C71.74,201.65 72.04,202.1 72.33,202.57C72.65,203.1 72.94,203.7 73.23,204.33C73.55,205.02 73.85,205.77 74.14,206.54C74.45,207.38 74.75,208.27 75.04,209.19C75.35,210.17 75.66,211.2 75.95,212.25C76.26,213.36 76.56,214.51 76.85,215.69C77.16,216.92 77.45,218.2 77.75,219.49C78.06,220.83 78.36,222.21 78.66,223.61C78.97,225.05 79.26,226.52 79.56,228.01C79.87,229.53 80.17,231.08 80.47,232.63C80.77,234.21 81.07,235.81 81.37,237.42C81.67,239.04 81.97,240.68 82.27,242.31C82.57,243.95 82.88,245.61 83.18,247.26C83.48,248.9 83.78,250.54 84.08,252.16C84.38,253.76 84.67,255.45 84.99,256.93C85.27,258.23 85.56,259.5 85.89,260.59C86.17,261.51 86.45,262.37 86.79,263.07C87.07,263.63 87.38,264.09 87.7,264.52C87.99,264.9 88.28,265.24 88.6,265.54C88.89,265.81 89.2,266.05 89.51,266.24C89.8,266.42 90.1,266.57 90.41,266.67C90.71,266.76 91.02,266.82 91.32,266.83C91.62,266.84 91.92,266.8 92.22,266.73C92.52,266.66 92.83,266.54 93.12,266.38C93.44,266.2 93.76,266.01 94.03,265.67C94.4,265.2 94.63,264.36 94.93,263.67C95.24,262.95 95.54,262.21 95.84,261.46C96.15,260.7 96.44,259.91 96.74,259.13C97.04,258.34 97.34,257.55 97.64,256.76C97.94,255.97 98.25,255.17 98.55,254.39C98.85,253.62 99.14,252.86 99.45,252.12C99.75,251.4 100.05,250.69 100.36,250.01C100.65,249.36 100.95,248.72 101.26,248.12C101.55,247.56 101.85,247.02 102.16,246.52C102.45,246.06 102.75,245.61 103.07,245.22C103.36,244.86 103.65,244.52 103.97,244.24C104.26,243.98 104.57,243.75 104.88,243.58C105.17,243.42 105.47,243.29 105.78,243.21C106.07,243.13 106.38,243.1 106.68,243.1C106.98,243.1 107.29,243.14 107.59,243.19C107.89,243.24 108.19,243.32 108.49,243.4C108.79,243.48 109.1,243.58 109.4,243.66C109.7,243.74 110,243.83 110.3,243.89C110.6,243.94 110.91,243.99 111.21,243.99C111.51,243.99 111.82,243.96 112.11,243.88C112.42,243.79 112.72,243.66 113.01,243.47C113.33,243.26 113.64,242.97 113.92,242.63C114.25,242.24 114.54,241.77 114.82,241.24C115.15,240.62 115.45,239.89 115.73,239.12C116.06,238.24 116.34,237.24 116.63,236.22C116.95,235.08 117.24,233.85 117.53,232.6C117.84,231.26 118.14,229.85 118.44,228.44C118.75,226.97 119.04,225.46 119.34,223.95C119.64,222.41 119.95,220.84 120.25,219.28C120.55,217.7 120.85,216.12 121.15,214.53C121.45,212.94 121.75,211.33 122.05,209.74C122.35,208.15 122.66,206.56 122.96,204.97C123.26,203.39 123.56,201.81 123.86,200.24C124.16,198.69 124.47,197.13 124.77,195.6C125.07,194.09 125.36,192.59 125.67,191.12C125.97,189.68 126.27,188.25 126.58,186.85C126.88,185.48 127.17,184.13 127.48,182.81C127.77,181.54 128.07,180.28 128.38,179.06C128.68,177.88 128.98,176.73 129.29,175.61C129.58,174.54 129.88,173.5 130.19,172.49C130.48,171.54 130.79,170.61 131.1,169.73C131.39,168.9 131.69,168.1 132,167.35C132.29,166.66 132.58,165.99 132.9,165.38C133.19,164.83 133.49,164.31 133.81,163.86C134.1,163.46 134.39,163.08 134.71,162.8C135,162.55 135.3,162.32 135.62,162.21C135.91,162.1 136.23,162.06 136.52,162.1C136.83,162.14 137.14,162.3 137.42,162.49C137.74,162.7 138.05,163.02 138.33,163.36C138.65,163.75 138.94,164.23 139.23,164.73C139.55,165.29 139.85,165.91 140.14,166.57C140.46,167.29 140.75,168.08 141.04,168.9C141.35,169.78 141.66,170.72 141.95,171.69C142.26,172.73 142.56,173.83 142.85,174.95C143.16,176.14 143.46,177.38 143.75,178.65C144.06,179.99 144.36,181.38 144.66,182.8C144.97,184.28 145.26,185.81 145.56,187.36C145.87,188.98 146.17,190.65 146.47,192.34C146.78,194.09 147.07,195.88 147.37,197.7C147.68,199.58 147.97,201.49 148.27,203.43C148.58,205.42 148.88,207.44 149.18,209.49C149.49,211.59 149.78,213.71 150.08,215.86C150.38,218.05 150.69,220.27 150.99,222.5C151.29,224.77 151.59,227.06 151.89,229.37C152.19,231.7 152.49,234.06 152.79,236.42C153.09,238.8 153.4,241.2 153.7,243.6C154,246.01 154.3,248.43 154.6,250.85C154.9,253.27 155.21,255.7 155.51,258.12C155.81,260.53 156.11,262.95 156.41,265.35C156.71,267.74 157.02,270.12 157.32,272.48C157.62,274.8 157.92,277.12 158.22,279.4C158.52,281.62 158.81,283.83 159.12,285.97C159.42,288.02 159.72,290.05 160.03,291.98C160.32,293.77 160.61,295.54 160.93,297.16C161.22,298.59 161.48,300.09 161.84,301.2C162.11,302.03 162.37,302.82 162.74,303.3C163,303.64 163.32,303.95 163.64,304C163.93,304.05 164.28,303.88 164.55,303.67C164.89,303.41 165.18,302.95 165.45,302.44C165.81,301.77 166.09,300.9 166.36,299.92C166.72,298.61 166.97,296.87 167.26,295.21C167.58,293.35 167.86,291.27 168.16,289.28C168.46,287.27 168.77,285.22 169.07,283.22C169.37,281.25 169.66,279.27 169.97,277.34C170.27,275.46 170.57,273.59 170.88,271.77C171.18,270.02 171.47,268.29 171.78,266.62C172.07,265.02 172.37,263.46 172.68,261.95C172.97,260.51 173.28,259.11 173.59,257.76C173.88,256.48 174.18,255.24 174.49,254.05C174.78,252.93 175.09,251.85 175.4,250.8C175.69,249.82 175.99,248.86 176.3,247.95C176.59,247.09 176.9,246.26 177.21,245.48C177.5,244.75 177.8,244.05 178.11,243.39C178.4,242.79 178.69,242.21 179.01,241.68C179.3,241.2 179.6,240.74 179.92,240.34C180.21,239.97 180.51,239.63 180.82,239.34C181.11,239.07 181.42,238.83 181.73,238.62C182.02,238.42 182.33,238.25 182.63,238.09C182.93,237.93 183.23,237.8 183.53,237.64C183.83,237.48 184.15,237.32 184.44,237.12C184.75,236.91 185.05,236.67 185.34,236.39C185.66,236.08 185.96,235.71 186.25,235.31C186.57,234.87 186.86,234.36 187.15,233.83C187.46,233.26 187.76,232.63 188.05,231.99C188.36,231.31 188.66,230.6 188.96,229.87C189.27,229.11 189.56,228.31 189.86,227.51C190.17,226.69 190.47,225.84 190.77,224.99C191.07,224.12 191.37,223.24 191.67,222.36C191.97,221.47 192.28,220.57 192.58,219.67C192.88,218.78 193.18,217.88 193.48,216.99C193.78,216.11 194.08,215.24 194.38,214.38C194.68,213.54 194.98,212.7 195.29,211.89C195.59,211.11 195.88,210.34 196.19,209.6C196.48,208.9 196.79,208.21 197.1,207.57C197.39,206.97 197.68,206.38 198,205.86C198.29,205.38 198.58,204.92 198.9,204.54C199.19,204.21 199.49,203.89 199.81,203.69C200.09,203.52 200.41,203.37 200.71,203.36C201.01,203.35 201.34,203.46 201.62,203.63C201.95,203.83 202.24,204.18 202.52,204.56C202.85,205.01 203.14,205.59 203.42,206.2C203.75,206.91 204.04,207.73 204.33,208.59C204.65,209.57 204.94,210.64 205.23,211.76C205.55,213 205.85,214.33 206.14,215.7C206.46,217.2 206.75,218.79 207.04,220.41C207.35,222.14 207.65,223.96 207.95,225.79C208.26,227.69 208.55,229.68 208.85,231.62C209.15,233.56 209.45,235.5 209.75,237.42C210.05,239.32 210.36,241.19 210.66,243.08C210.96,244.98 211.26,246.89 211.56,248.8C211.86,250.73 212.17,252.67 212.47,254.6C212.77,256.52 213.07,258.47 213.37,260.36C213.67,262.21 213.96,264.07 214.27,265.83C214.56,267.49 214.86,269.14 215.18,270.64C215.47,271.96 215.73,273.3 216.08,274.36C216.35,275.19 216.58,276.2 216.99,276.51C217.25,276.7 217.64,276.77 217.89,276.61C218.32,276.35 218.53,275.19 218.79,274.25C219.16,272.92 219.42,271.14 219.7,269.34C220.04,267.16 220.31,264.65 220.6,262.09C220.92,259.22 221.22,256.11 221.51,252.96C221.82,249.59 222.11,246.03 222.41,242.47C222.72,238.77 223.02,234.97 223.32,231.17C223.62,227.31 223.92,223.39 224.22,219.49C224.52,215.58 224.82,211.65 225.12,207.76C225.42,203.89 225.73,200.03 226.03,196.21C226.33,192.46 226.62,188.73 226.93,185.07C227.23,181.51 227.53,177.99 227.84,174.55C228.14,171.24 228.43,167.98 228.74,164.82C229.03,161.81 229.33,158.86 229.64,156.02C229.93,153.35 230.24,150.73 230.55,148.24C230.84,145.93 231.13,143.68 231.45,141.56C231.74,139.63 232.04,137.76 232.36,136.03C232.65,134.5 232.93,133.02 233.26,131.7C233.54,130.57 233.82,129.47 234.16,128.57C234.44,127.84 234.71,127.11 235.07,126.65C235.34,126.31 235.66,125.97 235.97,125.94C236.26,125.91 236.61,126.15 236.88,126.41C237.25,126.77 237.51,127.43 237.78,128.08C238.12,128.89 238.4,129.9 238.68,130.95C239.01,132.18 239.3,133.57 239.59,135.01C239.91,136.63 240.2,138.39 240.49,140.18C240.8,142.11 241.11,144.14 241.4,146.22C241.71,148.44 242.01,150.75 242.3,153.13C242.61,155.67 242.92,158.31 243.21,161C243.52,163.83 243.82,166.75 244.11,169.7C244.42,172.76 244.71,175.91 245.01,179.05C245.31,182.25 245.62,185.5 245.92,188.74C246.22,192 246.52,195.28 246.82,198.54C247.12,201.78 247.43,205.03 247.73,208.23C248.03,211.38 248.32,214.54 248.63,217.59C248.92,220.52 249.21,223.47 249.53,226.19C249.82,228.66 250.09,231.19 250.44,233.26C250.71,234.9 250.8,237.03 251.34,237.63C251.59,237.91 252,238.07 252.25,237.92C252.78,237.61 252.88,235.34 253.15,233.74C253.51,231.61 253.76,228.89 254.05,226.25C254.37,223.29 254.67,220.05 254.96,216.84C255.27,213.47 255.56,209.95 255.86,206.46C256.16,202.91 256.47,199.29 256.77,195.7C257.07,192.11 257.37,188.5 257.67,184.93C257.97,181.4 258.28,177.89 258.58,174.41C258.88,170.99 259.18,167.62 259.48,164.25C259.78,160.91 260.08,157.61 260.38,154.29C260.68,150.95 260.99,147.58 261.29,144.27C261.59,141.03 261.88,137.78 262.19,134.64C262.49,131.63 262.79,128.66 263.1,125.79C263.39,123.08 263.69,120.43 264,117.89C264.29,115.52 264.58,113.22 264.9,111.04C265.19,109.05 265.49,107.12 265.81,105.33C266.1,103.73 266.38,102.18 266.71,100.8C266.99,99.61 267.28,98.47 267.62,97.52C267.9,96.76 268.15,95.98 268.52,95.51C268.79,95.17 269.11,94.81 269.42,94.79C269.72,94.78 270.06,95.08 270.33,95.38C270.7,95.8 270.96,96.55 271.23,97.27C271.57,98.18 271.86,99.29 272.14,100.44C272.47,101.78 272.75,103.29 273.04,104.85C273.36,106.6 273.66,108.5 273.95,110.45C274.27,112.59 274.56,114.85 274.85,117.18C275.16,119.68 275.46,122.29 275.75,124.95C276.06,127.77 276.36,130.68 276.66,133.65C276.97,136.75 277.26,139.94 277.56,143.16C277.87,146.49 278.17,149.88 278.47,153.3C278.77,156.79 279.07,160.34 279.37,163.88C279.67,167.44 279.97,171.04 280.27,174.59C280.57,178.09 280.87,181.62 281.18,185.01C281.47,188.25 281.76,191.52 282.08,194.51C282.37,197.19 282.63,199.96 282.99,202.13C283.26,203.78 283.41,206.28 283.89,206.44C284.14,206.53 284.54,206.11 284.79,205.67C285.33,204.71 285.43,202.21 285.7,200.13C286.05,197.48 286.31,194.23 286.6,191.03C286.92,187.47 287.21,183.6 287.51,179.75C287.82,175.72 288.11,171.54 288.41,167.38C288.71,163.16 289.02,158.86 289.32,154.61C289.62,150.36 289.92,146.09 290.22,141.87C290.52,137.69 290.82,133.52 291.12,129.4C291.42,125.36 291.72,121.35 292.03,117.4C292.33,113.55 292.62,109.73 292.93,105.98C293.23,102.35 293.53,98.76 293.84,95.25C294.14,91.87 294.43,88.54 294.74,85.29C295.03,82.18 295.33,79.13 295.64,76.17C295.93,73.36 296.24,70.6 296.55,67.95C296.84,65.45 297.14,63.02 297.45,60.69C297.74,58.53 298.04,56.43 298.36,54.45C298.65,52.64 298.94,50.89 299.26,49.27C299.54,47.83 299.83,46.44 300.16,45.19C300.44,44.12 300.73,43.08 301.07,42.23C301.35,41.54 301.61,40.85 301.97,40.43C302.24,40.11 302.57,39.8 302.88,39.78C303.18,39.76 303.51,40.01 303.78,40.28C304.14,40.64 304.4,41.27 304.68,41.89C305.02,42.66 305.31,43.61 305.59,44.59C305.92,45.72 306.2,47 306.49,48.31C306.81,49.77 307.11,51.35 307.4,52.97C307.72,54.73 308.01,56.59 308.3,58.49C308.61,60.51 308.92,62.62 309.21,64.77C309.52,67.02 309.81,69.34 310.11,71.69C310.42,74.11 310.71,76.6 311.01,79.09C311.31,81.64 311.62,84.23 311.92,86.82C312.22,89.43 312.52,92.07 312.82,94.69C313.12,97.29 313.43,99.91 313.73,102.48C314.03,105.01 314.33,107.54 314.63,110.01C314.93,112.42 315.22,114.8 315.53,117.13C315.83,119.39 316.13,121.62 316.44,123.81C316.74,125.94 317.03,128.02 317.34,130.09C317.64,132.1 317.95,134.08 318.25,136.05C318.55,137.97 318.85,139.87 319.15,141.76C319.45,143.62 319.75,145.46 320.05,147.3C320.35,149.12 320.66,150.92 320.96,152.73C321.26,154.53 321.56,156.32 321.86,158.11C322.16,159.91 322.47,161.7 322.77,163.5C323.07,165.31 323.37,167.13 323.67,168.96C323.97,170.81 324.28,172.67 324.58,174.55C324.88,176.46 325.18,178.38 325.48,180.32C325.78,182.3 326.08,184.3 326.38,186.32C326.68,188.39 326.99,190.48 327.29,192.59C327.6,194.75 327.89,196.94 328.19,199.15C328.5,201.41 328.8,203.7 329.1,206.01C329.4,208.37 329.7,210.76 330,213.16C330.3,215.61 330.6,218.08 330.9,220.56C331.2,223.07 331.51,225.6 331.81,228.13C332.11,230.66 332.41,233.22 332.71,235.74C333.01,238.23 333.31,240.73 333.62,243.16C333.92,245.51 334.21,247.86 334.52,250.09C334.81,252.18 335.11,254.19 335.42,256.16C335.71,258.02 336.02,259.81 336.33,261.59C336.63,263.31 336.92,265.03 337.23,266.65C337.52,268.15 337.79,269.75 338.14,270.97C338.41,271.91 338.71,272.67 339.04,273.4C339.32,274.02 339.63,274.57 339.95,275.08C340.24,275.55 340.54,275.96 340.85,276.37C341.14,276.76 341.45,277.11 341.75,277.47C342.05,277.82 342.36,278.16 342.66,278.5C342.96,278.83 343.26,279.17 343.56,279.49C343.86,279.81 344.17,280.13 344.47,280.44C344.77,280.75 345.07,281.05 345.37,281.35C345.67,281.64 345.97,281.93 346.27,282.21C346.57,282.48 346.87,282.75 347.18,283C347.48,283.24 347.76,283.53 348.08,283.68C348.37,283.82 348.72,284.02 348.99,283.92C349.34,283.8 349.62,283.18 349.89,282.7C350.23,282.1 350.49,281.28 350.79,280.57C351.09,279.85 351.39,279.11 351.7,278.4C352,277.72 352.29,277.04 352.6,276.4C352.9,275.78 353.2,275.18 353.51,274.61C353.8,274.07 354.1,273.55 354.41,273.05C354.7,272.58 355.01,272.13 355.32,271.7C355.61,271.3 355.91,270.92 356.22,270.56C356.51,270.22 356.81,269.89 357.12,269.58C357.42,269.28 357.72,269 358.03,268.73C358.33,268.46 358.63,268.22 358.93,267.96C359.23,267.7 359.54,267.45 359.84,267.19C360.14,266.92 360.45,266.66 360.74,266.37C361.05,266.07 361.35,265.76 361.64,265.42C361.95,265.06 362.26,264.67 362.55,264.25C362.86,263.8 363.16,263.32 363.45,262.81C363.76,262.26 364.07,261.67 364.36,261.06C364.67,260.4 364.97,259.7 365.26,258.98C365.57,258.22 365.87,257.42 366.16,256.6C366.47,255.75 366.77,254.86 367.07,253.96C367.38,253.03 367.67,252.08 367.97,251.12C368.28,250.14 368.58,249.14 368.88,248.14C369.18,247.13 369.48,246.1 369.78,245.08C370.08,244.06 370.38,243.03 370.68,242.01C370.98,241 371.29,239.98 371.59,238.98C371.89,237.99 372.18,237.01 372.49,236.04C372.79,235.1 373.09,234.16 373.4,233.25C373.7,232.37 373.99,231.5 374.3,230.65C374.6,229.83 374.9,229.03 375.21,228.26C375.5,227.53 375.8,226.82 376.11,226.14C376.4,225.5 376.7,224.87 377.01,224.29C377.3,223.75 377.61,223.23 377.92,222.76C378.21,222.32 378.5,221.9 378.82,221.54C379.11,221.21 379.41,220.9 379.73,220.66C380.02,220.44 380.32,220.24 380.63,220.12C380.92,220 381.23,219.93 381.53,219.92C381.83,219.91 382.15,219.96 382.44,220.05C382.75,220.15 383.05,220.32 383.34,220.51C383.66,220.72 383.96,220.99 384.25,221.28C384.56,221.59 384.83,222.04 385.15,222.33C385.43,222.59 385.75,222.74 386.05,222.96C386.36,223.19 386.67,223.41 386.96,223.67C387.27,223.95 387.57,224.27 387.86,224.61C388.17,224.97 388.47,225.36 388.77,225.76C389.08,226.18 389.37,226.63 389.67,227.09C389.98,227.56 390.28,228.06 390.58,228.56C390.89,229.07 391.18,229.61 391.48,230.14C391.78,230.68 392.08,231.23 392.38,231.78C392.68,232.33 392.99,232.9 393.29,233.45C393.59,234 393.89,234.55 394.19,235.1C394.49,235.64 394.79,236.18 395.1,236.71C395.4,237.23 395.7,237.74 396,238.23C396.3,238.71 396.59,239.18 396.9,239.63C397.2,240.06 397.5,240.48 397.81,240.87C398.1,241.23 398.4,241.59 398.71,241.89C399,242.17 399.3,242.44 399.62,242.64C399.91,242.82 400.21,242.97 400.52,243.07C400.81,243.16 401.12,243.21 401.42,243.23C401.72,243.25 402.03,243.21 402.33,243.17C402.63,243.13 402.93,243.06 403.23,242.99C403.53,242.92 403.84,242.84 404.14,242.77C404.44,242.71 404.74,242.64 405.04,242.6C405.34,242.56 405.65,242.52 405.95,242.52C406.25,242.52 406.55,242.54 406.85,242.6C407.15,242.66 407.46,242.74 407.75,242.86C408.06,242.99 408.37,243.16 408.66,243.35C408.97,243.55 409.27,243.8 409.56,244.06C409.87,244.34 410.17,244.65 410.47,244.98C410.78,245.32 411.07,245.71 411.37,246.06C411.67,246.4 411.96,246.75 412.27,247.04C412.56,247.31 412.87,247.53 413.18,247.76C413.48,247.99 413.78,248.2 414.08,248.41C414.38,248.62 414.69,248.83 414.99,249.03C415.29,249.23 415.59,249.42 415.89,249.61C416.19,249.8 416.49,249.98 416.79,250.15C417.09,250.31 417.39,250.47 417.7,250.6C418,250.73 418.29,250.88 418.6,250.93C418.9,250.98 419.24,251.05 419.51,250.91C419.86,250.74 420.13,250.21 420.41,249.78C420.74,249.27 421.04,248.67 421.32,248.03C421.65,247.28 421.93,246.43 422.22,245.55C422.54,244.57 422.83,243.5 423.12,242.42C423.43,241.29 423.73,240.09 424.03,238.91C424.33,237.71 424.63,236.47 424.93,235.26C425.23,234.05 425.54,232.83 425.84,231.63C426.14,230.45 426.44,229.28 426.74,228.13C427.04,227.01 427.33,225.89 427.64,224.81C427.94,223.76 428.24,222.74 428.55,221.74C428.85,220.78 429.14,219.84 429.45,218.94C429.74,218.08 430.05,217.25 430.36,216.45C430.65,215.71 430.95,214.99 431.26,214.31C431.55,213.68 431.84,213.08 432.16,212.53C432.45,212.03 432.75,211.55 433.07,211.14C433.36,210.77 433.65,210.43 433.97,210.16C434.26,209.92 434.57,209.71 434.88,209.59C435.17,209.48 435.48,209.43 435.78,209.45C436.08,209.47 436.39,209.59 436.68,209.74C437,209.91 437.3,210.17 437.59,210.46C437.91,210.78 438.2,211.18 438.49,211.6C438.81,212.07 439.11,212.61 439.4,213.17C439.72,213.78 440.01,214.44 440.3,215.13C440.61,215.87 440.92,216.66 441.21,217.47C441.52,218.34 441.82,219.25 442.11,220.18C442.42,221.16 442.71,222.18 443.01,223.21C443.32,224.29 443.62,225.4 443.92,226.53C444.23,227.7 444.52,228.89 444.82,230.1C445.13,231.34 445.43,232.6 445.73,233.87C446.03,235.16 446.33,236.47 446.63,237.77C446.93,239.08 447.23,240.41 447.53,241.72C447.83,243.03 448.14,244.35 448.44,245.65C448.74,246.94 449.04,248.23 449.34,249.5C449.64,250.75 449.95,252 450.25,253.23C450.55,254.44 450.85,255.64 451.15,256.84C451.45,258.02 451.75,259.19 452.05,260.36C452.35,261.52 452.66,262.67 452.96,263.83C453.26,264.98 453.56,266.13 453.86,267.28C454.16,268.43 454.47,269.57 454.77,270.72C455.07,271.87 455.37,273.01 455.67,274.16C455.97,275.3 456.28,276.45 456.58,277.59C456.88,278.72 457.18,279.85 457.48,280.97C457.78,282.07 458.08,283.17 458.38,284.25C458.68,285.31 458.98,286.36 459.29,287.38C459.59,288.36 459.88,289.35 460.19,290.27C460.48,291.14 460.78,292 461.1,292.77Q461.39,293.45 462,294.67" style="vector-effect: non-scaling-stroke; fill: none; stroke: rgb(231, 107, 243); stroke-opacity: 1; stroke-width: 2px; opacity: 1;"/></g><g class="points"/><g class="text"/></g></g></g><g class="overplot"/><path class="xlines-above crisp" d="M0,0" style="fill: none;"/><path class="ylines-above crisp" d="M0,0" style="fill: none;"/><g class="overlines-above"/><g class="xaxislayer-above"><g class="xtick"><text text-anchor="middle" x="0" y="433" transform="translate(80,0)" style="font-family: 'Open Sans', verdana, arial, sans-serif; font-size: 12px; fill: rgb(42, 63, 95); fill-opacity: 1; white-space: pre;">0</text></g><g class="xtick"><text text-anchor="middle" x="0" y="433" transform="translate(170.23000000000002,0)" style="font-family: 'Open Sans', verdana, arial, sans-serif; font-size: 12px; fill: rgb(42, 63, 95); fill-opacity: 1; white-space: pre;">100</text></g><g class="xtick"><text text-anchor="middle" x="0" y="433" transform="translate(260.47,0)" style="font-family: 'Open Sans', verdana, arial, sans-serif; font-size: 12px; fill: rgb(42, 63, 95); fill-opacity: 1; white-space: pre;">200</text></g><g class="xtick"><text text-anchor="middle" x="0" y="433" transform="translate(350.7,0)" style="font-family: 'Open Sans', verdana, arial, sans-serif; font-size: 12px; fill: rgb(42, 63, 95); fill-opacity: 1; white-space: pre;">300</text></g><g class="xtick"><text text-anchor="middle" x="0" y="433" transform="translate(440.94,0)" style="font-family: 'Open Sans', verdana, arial, sans-serif; font-size: 12px; fill: rgb(42, 63, 95); fill-opacity: 1; white-space: pre;">400</text></g><g class="xtick"><text text-anchor="middle" x="0" y="433" transform="translate(531.1700000000001,0)" style="font-family: 'Open Sans', verdana, arial, sans-serif; font-size: 12px; fill: rgb(42, 63, 95); fill-opacity: 1; white-space: pre;">500</text></g></g><g class="yaxislayer-above"><g class="ytick"><text text-anchor="end" x="79" y="4.199999999999999" transform="translate(0,399.25)" style="font-family: 'Open Sans', verdana, arial, sans-serif; font-size: 12px; fill: rgb(42, 63, 95); fill-opacity: 1; white-space: pre;">5</text></g><g class="ytick"><text text-anchor="end" x="79" y="4.199999999999999" transform="translate(0,336.22)" style="font-family: 'Open Sans', verdana, arial, sans-serif; font-size: 12px; fill: rgb(42, 63, 95); fill-opacity: 1; white-space: pre;">10</text></g><g class="ytick"><text text-anchor="end" x="79" y="4.199999999999999" transform="translate(0,273.19)" style="font-family: 'Open Sans', verdana, arial, sans-serif; font-size: 12px; fill: rgb(42, 63, 95); fill-opacity: 1; white-space: pre;">15</text></g><g class="ytick"><text text-anchor="end" x="79" y="4.199999999999999" transform="translate(0,210.16)" style="font-family: 'Open Sans', verdana, arial, sans-serif; font-size: 12px; fill: rgb(42, 63, 95); fill-opacity: 1; white-space: pre;">20</text></g><g class="ytick"><text text-anchor="end" x="79" y="4.199999999999999" transform="translate(0,147.14)" style="font-family: 'Open Sans', verdana, arial, sans-serif; font-size: 12px; fill: rgb(42, 63, 95); fill-opacity: 1; white-space: pre;">25</text></g></g><g class="overaxes-above"/></g></g><g class="polarlayer"/><g class="ternarylayer"/><g class="geolayer"/><g class="funnelarealayer"/><g class="pielayer"/><g class="treemaplayer"/><g class="sunburstlayer"/><g class="glimages"/><defs id="topdefs-b1e7a2"><g class="clips"/><clipPath id="legendb1e7a2"><rect width="137" height="67" x="0" y="0"/></clipPath></defs><g class="layer-above"><g class="imagelayer"/><g class="shapelayer"/></g><g class="infolayer"><g class="legend" pointer-events="all" transform="translate(551.24, 100)"><rect class="bg" shape-rendering="crispEdges" width="137" height="67" x="0" y="0" style="stroke: rgb(68, 68, 68); stroke-opacity: 1; fill: rgb(255, 255, 255); fill-opacity: 1; stroke-width: 0px;"/><g class="scrollbox" transform="translate(0, 0)" clip-path="url('#legendb1e7a2')"><g class="groups"><g class="traces" transform="translate(0, 14.5)" style="opacity: 1;"><text class="legendtext" text-anchor="start" x="40" y="4.680000000000001" style="font-family: 'Open Sans', verdana, arial, sans-serif; font-size: 12px; fill: rgb(42, 63, 95); fill-opacity: 1; white-space: pre;">Average Class I</text><g class="layers" style="opacity: 1;"><g class="legendfill"/><g class="legendlines"><path class="js-line" d="M5,0h30" style="fill: none; stroke: rgb(0, 100, 80); stroke-opacity: 1; stroke-width: 2px;"/></g><g class="legendsymbols"><g class="legendpoints"/></g></g><rect class="legendtoggle" x="0" y="-9.5" width="131.15625" height="19" style="fill: rgb(0, 0, 0); fill-opacity: 0;"/></g><g class="traces" transform="translate(0, 33.5)" style="opacity: 1;"><text class="legendtext" text-anchor="start" x="40" y="4.680000000000001" style="font-family: 'Open Sans', verdana, arial, sans-serif; font-size: 12px; fill: rgb(42, 63, 95); fill-opacity: 1; white-space: pre;">Average Class II</text><g class="layers" style="opacity: 1;"><g class="legendfill"/><g class="legendlines"><path class="js-line" d="M5,0h30" style="fill: none; stroke: rgb(0, 176, 246); stroke-opacity: 1; stroke-width: 2px;"/></g><g class="legendsymbols"><g class="legendpoints"/></g></g><rect class="legendtoggle" x="0" y="-9.5" width="131.15625" height="19" style="fill: rgb(0, 0, 0); fill-opacity: 0;"/></g><g class="traces" transform="translate(0, 52.5)" style="opacity: 1;"><text class="legendtext" text-anchor="start" x="40" y="4.680000000000001" style="font-family: 'Open Sans', verdana, arial, sans-serif; font-size: 12px; fill: rgb(42, 63, 95); fill-opacity: 1; white-space: pre;">Average Class III</text><g class="layers" style="opacity: 1;"><g class="legendfill"/><g class="legendlines"><path class="js-line" d="M5,0h30" style="fill: none; stroke: rgb(231, 107, 243); stroke-opacity: 1; stroke-width: 2px;"/></g><g class="legendsymbols"><g class="legendpoints"/></g></g><rect class="legendtoggle" x="0" y="-9.5" width="131.15625" height="19" style="fill: rgb(0, 0, 0); fill-opacity: 0;"/></g></g></g><rect class="scrollbar" rx="20" ry="3" width="0" height="0" x="0" y="0" style="fill: rgb(128, 139, 164); fill-opacity: 1;"/></g><g class="g-gtitle"><text class="gtitle" x="35" y="50" text-anchor="start" dy="0em" style="font-family: 'Open Sans', verdana, arial, sans-serif; font-size: 17px; fill: rgb(42, 63, 95); opacity: 1; font-weight: normal; white-space: pre;">Average curve: betha-structure_group</text></g><g class="g-xtitle"><text class="xtitle" x="311" y="460.8" text-anchor="middle" style="font-family: 'Open Sans', verdana, arial, sans-serif; font-size: 14px; fill: rgb(42, 63, 95); opacity: 1; font-weight: normal; white-space: pre;">Domain</text></g><g class="g-ytitle"><text class="ytitle" transform="rotate(-90,40.840625,260)" x="40.840625" y="260" text-anchor="middle" style="font-family: 'Open Sans', verdana, arial, sans-serif; font-size: 14px; fill: rgb(42, 63, 95); opacity: 1; font-weight: normal; white-space: pre;">Frequency</text></g></g></svg>