<svg class="main-svg" xmlns="http://www.w3.org/2000/svg" xmlns:xlink="http://www.w3.org/1999/xlink" width="700" height="500" style="" viewBox="0 0 700 500"><rect x="0" y="0" width="700" height="500" style="fill: rgb(255, 255, 255); fill-opacity: 1;"/><defs id="defs-684361"><g class="clips"><clipPath id="clip684361xyplot" class="plotclip"><rect width="462" height="320"/></clipPath><clipPath class="axesclip" id="clip684361x"><rect x="80" y="0" width="462" height="500"/></clipPath><clipPath class="axesclip" id="clip684361y"><rect x="0" y="100" width="700" height="320"/></clipPath><clipPath class="axesclip" id="clip684361xy"><rect x="80" y="100" width="462" height="320"/></clipPath></g><g class="gradients"/></defs><g class="bglayer"><rect class="bg" x="80" y="100" width="462" height="320" style="fill: rgb(229, 236, 246); fill-opacity: 1; stroke-width: 0;"/></g><g class="layer-below"><g class="imagelayer"/><g class="shapelayer"/></g><g class="cartesianlayer"><g class="subplot xy"><g class="layer-subplot"><g class="shapelayer"/><g class="imagelayer"/></g><g class="gridlayer"><g class="x"><path class="xgrid crisp" transform="translate(170.23000000000002,0)" d="M0,100v320" style="stroke: rgb(255, 255, 255); stroke-opacity: 1; stroke-width: 1px;"/><path class="xgrid crisp" transform="translate(260.47,0)" d="M0,100v320" style="stroke: rgb(255, 255, 255); stroke-opacity: 1; stroke-width: 1px;"/><path class="xgrid crisp" transform="translate(350.7,0)" d="M0,100v320" style="stroke: rgb(255, 255, 255); stroke-opacity: 1; stroke-width: 1px;"/><path class="xgrid crisp" transform="translate(440.94,0)" d="M0,100v320" style="stroke: rgb(255, 255, 255); stroke-opacity: 1; stroke-width: 1px;"/><path class="xgrid crisp" transform="translate(531.1700000000001,0)" d="M0,100v320" style="stroke: rgb(255, 255, 255); stroke-opacity: 1; stroke-width: 1px;"/></g><g class="y"><path class="ygrid crisp" transform="translate(0,379.41)" d="M80,0h462" style="stroke: rgb(255, 255, 255); stroke-opacity: 1; stroke-width: 1px;"/><path class="ygrid crisp" transform="translate(0,315.12)" d="M80,0h462" style="stroke: rgb(255, 255, 255); stroke-opacity: 1; stroke-width: 1px;"/><path class="ygrid crisp" transform="translate(0,250.82)" d="M80,0h462" style="stroke: rgb(255, 255, 255); stroke-opacity: 1; stroke-width: 1px;"/><path class="ygrid crisp" transform="translate(0,186.51999999999998)" d="M80,0h462" style="stroke: rgb(255, 255, 255); stroke-opacity: 1; stroke-width: 1px;"/><path class="ygrid crisp" transform="translate(0,122.23)" d="M80,0h462" style="stroke: rgb(255, 255, 255); stroke-opacity: 1; stroke-width: 1px;"/></g></g><g class="zerolinelayer"><path class="xzl zl crisp" transform="translate(80,0)" d="M0,100v320" style="stroke: rgb(255, 255, 255); stroke-opacity: 1; stroke-width: 2px;"/></g><path class="xlines-below"/><path class="ylines-below"/><g class="overlines-below"/><g class="xaxislayer-below"/><g class="yaxislayer-below"/><g class="overaxes-below"/><g class="plot" transform="translate(80, 100)" clip-path="url('#clip684361xyplot')"><g class="scatterlayer mlayer"><g class="trace scatter trace1bf206" style="stroke-miterlimit: 2; opacity: 1;"><g class="fills"/><g class="errorbars"/><g class="lines"><path class="js-line" d="M0,138.15Q0.61,138.11 0.9,138.02C1.21,137.93 1.52,137.78 1.81,137.61C2.12,137.43 2.42,137.21 2.71,136.96C3.02,136.7 3.33,136.39 3.62,136.07C3.93,135.73 4.23,135.36 4.52,134.98C4.83,134.58 5.12,134.14 5.42,133.7C5.73,133.24 6.03,132.76 6.33,132.27C6.64,131.77 6.93,131.25 7.23,130.73C7.54,130.2 7.84,129.65 8.14,129.1C8.44,128.55 8.74,127.99 9.04,127.43C9.34,126.87 9.65,126.3 9.95,125.74C10.25,125.18 10.55,124.62 10.85,124.07C11.15,123.52 11.45,122.98 11.75,122.44C12.05,121.91 12.35,121.38 12.66,120.87C12.96,120.37 13.25,119.87 13.56,119.39C13.86,118.92 14.16,118.47 14.47,118.02C14.77,117.58 15.07,117.15 15.37,116.74C15.67,116.34 15.96,115.95 16.27,115.57C16.57,115.2 16.87,114.85 17.18,114.5C17.48,114.16 17.78,113.84 18.08,113.52C18.38,113.21 18.68,112.91 18.99,112.62C19.29,112.34 19.59,112.06 19.89,111.79C20.19,111.53 20.49,111.27 20.79,111.02C21.09,110.77 21.4,110.53 21.7,110.29C22,110.05 22.3,109.82 22.6,109.58C22.9,109.34 23.21,109.11 23.51,108.86C23.81,108.61 24.11,108.36 24.41,108.08C24.72,107.79 25.03,107.49 25.32,107.17C25.63,106.83 25.93,106.47 26.22,106.08C26.53,105.67 26.83,105.23 27.12,104.77C27.43,104.29 27.74,103.78 28.03,103.25C28.34,102.69 28.64,102.11 28.93,101.5C29.24,100.86 29.55,100.2 29.84,99.5C30.15,98.74 30.45,97.94 30.74,97.11C31.05,96.23 31.34,95.29 31.64,94.38C31.94,93.46 32.25,92.55 32.55,91.6C32.86,90.62 33.14,89.56 33.45,88.58C33.75,87.64 34.04,86.69 34.36,85.84C34.65,85.07 34.94,84.33 35.26,83.68C35.54,83.11 35.83,82.56 36.16,82.14C36.44,81.78 36.74,81.44 37.07,81.26C37.35,81.1 37.67,81.01 37.97,81.04C38.28,81.07 38.6,81.26 38.88,81.47C39.21,81.72 39.5,82.11 39.78,82.52C40.11,83 40.39,83.58 40.68,84.18C41,84.86 41.3,85.62 41.59,86.4C41.91,87.26 42.2,88.18 42.49,89.13C42.8,90.14 43.11,91.21 43.4,92.3C43.71,93.45 44,94.65 44.3,95.86C44.61,97.12 44.91,98.41 45.21,99.71C45.52,101.04 45.81,102.41 46.11,103.77C46.41,105.15 46.71,106.56 47.01,107.95C47.31,109.35 47.62,110.76 47.92,112.15C48.22,113.53 48.52,114.92 48.82,116.28C49.12,117.62 49.42,118.96 49.73,120.27C50.03,121.56 50.33,122.83 50.63,124.08C50.93,125.3 51.22,126.5 51.53,127.69C51.83,128.85 52.14,129.99 52.44,131.12C52.74,132.23 53.04,133.33 53.34,134.43C53.64,135.53 53.95,136.61 54.25,137.71C54.55,138.82 54.85,139.94 55.15,141.07C55.45,142.23 55.75,143.39 56.05,144.59C56.36,145.83 56.66,147.09 56.96,148.38C57.27,149.73 57.56,151.1 57.86,152.51C58.17,153.98 58.47,155.49 58.77,157.04C59.08,158.66 59.37,160.32 59.67,162.02C59.98,163.79 60.28,165.6 60.58,167.45C60.89,169.37 61.19,171.33 61.48,173.33C61.79,175.4 62.08,177.51 62.38,179.64C62.69,181.84 62.99,184.07 63.29,186.33C63.6,188.64 63.89,190.98 64.19,193.34C64.49,195.74 64.8,198.16 65.1,200.59C65.4,203.04 65.7,205.53 66,207.99C66.3,210.44 66.6,212.91 66.9,215.34C67.2,217.73 67.5,220.13 67.81,222.46C68.11,224.72 68.39,227.01 68.71,229.14C69,231.11 69.3,233.05 69.62,234.8C69.9,236.33 70.18,237.83 70.52,239.09C70.79,240.12 71.03,241.18 71.42,241.84C71.68,242.29 72,242.77 72.33,242.83C72.61,242.88 72.96,242.63 73.23,242.4C73.57,242.11 73.86,241.63 74.14,241.14C74.47,240.55 74.76,239.83 75.04,239.09C75.36,238.24 75.65,237.26 75.95,236.3C76.26,235.3 76.55,234.25 76.85,233.21C77.15,232.15 77.45,231.08 77.75,230.01C78.05,228.94 78.36,227.86 78.66,226.79C78.96,225.73 79.26,224.66 79.56,223.61C79.86,222.57 80.17,221.54 80.47,220.52C80.77,219.52 81.07,218.53 81.37,217.56C81.67,216.61 81.96,215.68 82.27,214.77C82.57,213.89 82.87,213.01 83.18,212.17C83.48,211.36 83.77,210.56 84.08,209.8C84.37,209.08 84.68,208.37 84.99,207.71C85.28,207.09 85.58,206.49 85.89,205.94C86.18,205.44 86.47,204.95 86.79,204.53C87.08,204.15 87.38,203.78 87.7,203.5C87.99,203.25 88.29,203.02 88.6,202.89C88.89,202.77 89.21,202.69 89.51,202.7C89.81,202.71 90.12,202.82 90.41,202.96C90.73,203.12 91.03,203.37 91.32,203.65C91.64,203.96 91.93,204.35 92.22,204.76C92.54,205.21 92.83,205.72 93.12,206.25C93.43,206.82 93.74,207.44 94.03,208.07C94.34,208.74 94.63,209.45 94.93,210.16C95.24,210.9 95.54,211.66 95.84,212.42C96.14,213.19 96.44,213.98 96.74,214.75C97.04,215.52 97.33,216.29 97.64,217.04C97.94,217.76 98.24,218.48 98.55,219.15C98.84,219.79 99.13,220.42 99.45,220.98C99.74,221.49 100.03,222 100.36,222.4C100.64,222.74 100.94,223.07 101.26,223.27C101.54,223.44 101.86,223.55 102.16,223.57C102.46,223.59 102.77,223.5 103.07,223.4C103.38,223.29 103.68,223.12 103.97,222.94C104.28,222.75 104.58,222.51 104.88,222.26C105.19,222 105.49,221.72 105.78,221.43C106.09,221.13 106.38,220.8 106.68,220.47C106.99,220.12 107.29,219.76 107.59,219.38C107.9,218.99 108.19,218.57 108.49,218.15C108.8,217.72 109.1,217.27 109.4,216.82C109.7,216.36 110,215.89 110.3,215.43C110.6,214.97 110.91,214.5 111.21,214.04C111.51,213.58 111.81,213.12 112.11,212.68C112.41,212.25 112.7,211.82 113.01,211.41C113.31,211.01 113.61,210.61 113.92,210.24C114.22,209.88 114.51,209.53 114.82,209.21C115.12,208.9 115.42,208.61 115.73,208.34C116.02,208.09 116.32,207.85 116.63,207.65C116.92,207.46 117.22,207.29 117.53,207.17C117.83,207.05 118.13,206.96 118.44,206.91C118.74,206.86 119.04,206.85 119.34,206.88C119.64,206.91 119.95,206.98 120.25,207.09C120.56,207.2 120.86,207.36 121.15,207.55C121.46,207.75 121.76,208 122.05,208.26C122.36,208.54 122.67,208.86 122.96,209.2C123.27,209.55 123.56,209.95 123.86,210.33C124.16,210.72 124.47,211.14 124.77,211.53C125.07,211.92 125.36,212.31 125.67,212.67C125.97,213.02 126.26,213.38 126.58,213.67C126.87,213.94 127.16,214.2 127.48,214.36C127.77,214.5 128.09,214.67 128.38,214.62C128.7,214.56 129.02,214.24 129.29,213.93C129.64,213.54 129.9,212.92 130.19,212.36C130.51,211.74 130.8,211.04 131.1,210.35C131.41,209.63 131.7,208.88 132,208.14C132.3,207.4 132.59,206.63 132.9,205.9C133.2,205.19 133.5,204.48 133.81,203.8C134.11,203.15 134.4,202.51 134.71,201.91C135,201.34 135.31,200.79 135.62,200.29C135.91,199.83 136.21,199.38 136.52,198.99C136.81,198.63 137.1,198.29 137.42,198.01C137.71,197.76 138.02,197.53 138.33,197.38C138.62,197.24 138.93,197.13 139.23,197.1C139.53,197.07 139.85,197.1 140.14,197.19C140.45,197.29 140.75,197.47 141.04,197.68C141.36,197.91 141.66,198.22 141.95,198.56C142.27,198.94 142.56,199.38 142.85,199.85C143.17,200.36 143.46,200.93 143.75,201.52C144.06,202.16 144.37,202.85 144.66,203.56C144.97,204.32 145.27,205.12 145.56,205.94C145.87,206.8 146.17,207.7 146.47,208.62C146.78,209.58 147.07,210.56 147.37,211.56C147.67,212.59 147.97,213.64 148.27,214.69C148.57,215.77 148.88,216.86 149.18,217.95C149.48,219.06 149.78,220.18 150.08,221.29C150.38,222.41 150.69,223.53 150.99,224.64C151.29,225.74 151.59,226.84 151.89,227.93C152.19,229 152.48,230.07 152.79,231.12C153.09,232.15 153.39,233.16 153.7,234.16C154,235.13 154.29,236.09 154.6,237.02C154.9,237.92 155.2,238.82 155.51,239.68C155.8,240.5 156.1,241.31 156.41,242.08C156.7,242.8 157,243.52 157.32,244.17C157.61,244.75 157.87,245.41 158.22,245.79C158.49,246.07 158.82,246.36 159.12,246.36C159.42,246.36 159.75,246.08 160.03,245.82C160.37,245.51 160.65,245.02 160.93,244.54C161.26,243.99 161.55,243.35 161.84,242.69C162.16,241.97 162.45,241.19 162.74,240.4C163.05,239.56 163.34,238.68 163.64,237.8C163.95,236.89 164.25,235.95 164.55,235.01C164.85,234.05 165.15,233.08 165.45,232.11C165.75,231.14 166.06,230.16 166.36,229.19C166.66,228.24 166.96,227.28 167.26,226.35C167.56,225.44 167.85,224.54 168.16,223.66C168.46,222.81 168.76,221.97 169.07,221.16C169.37,220.38 169.66,219.62 169.97,218.88C170.27,218.17 170.57,217.48 170.88,216.81C171.18,216.17 171.47,215.55 171.78,214.95C172.07,214.38 172.37,213.82 172.68,213.29C172.97,212.79 173.28,212.31 173.59,211.86C173.88,211.44 174.17,211.02 174.49,210.66C174.78,210.33 175.08,210.01 175.4,209.77C175.69,209.55 175.99,209.35 176.3,209.24C176.59,209.14 176.91,209.1 177.21,209.13C177.51,209.16 177.82,209.29 178.11,209.45C178.43,209.63 178.72,209.9 179.01,210.2C179.33,210.53 179.63,210.95 179.92,211.38C180.24,211.86 180.53,212.41 180.82,212.98C181.14,213.6 181.44,214.28 181.73,214.98C182.04,215.73 182.34,216.53 182.63,217.35C182.94,218.22 183.23,219.12 183.53,220.04C183.84,221 184.14,222 184.44,223C184.75,224.03 185.04,225.09 185.34,226.15C185.64,227.22 185.95,228.32 186.25,229.39C186.55,230.45 186.84,231.53 187.15,232.56C187.44,233.54 187.73,234.53 188.05,235.44C188.34,236.27 188.64,237.07 188.96,237.79C189.24,238.42 189.53,239.01 189.86,239.52C190.14,239.96 190.45,240.35 190.77,240.68C191.06,240.97 191.36,241.21 191.67,241.42C191.96,241.61 192.27,241.75 192.58,241.89C192.88,242.02 193.18,242.12 193.48,242.24C193.78,242.36 194.08,242.47 194.38,242.61C194.69,242.75 194.99,242.91 195.29,243.1C195.6,243.29 195.9,243.51 196.19,243.75C196.5,244.01 196.81,244.29 197.1,244.6C197.41,244.93 197.71,245.29 198,245.68C198.31,246.1 198.61,246.55 198.9,247.02C199.21,247.53 199.52,248.07 199.81,248.64C200.12,249.24 200.42,249.88 200.71,250.54C201.02,251.23 201.32,251.95 201.62,252.69C201.93,253.45 202.22,254.25 202.52,255.04C202.82,255.85 203.12,256.69 203.42,257.5C203.72,258.3 204.02,259.09 204.33,259.86C204.63,260.61 204.93,261.33 205.23,262.05C205.53,262.77 205.84,263.48 206.14,264.18C206.44,264.88 206.74,265.55 207.04,266.25C207.34,266.96 207.65,267.69 207.95,268.42C208.25,269.17 208.55,269.93 208.85,270.7C209.15,271.48 209.45,272.28 209.75,273.08C210.05,273.88 210.35,274.71 210.66,275.49C210.95,276.23 211.25,276.95 211.56,277.64C211.85,278.28 212.16,278.9 212.47,279.49C212.76,280.04 213.05,280.59 213.37,281.07C213.66,281.5 213.94,281.95 214.27,282.26C214.55,282.52 214.86,282.78 215.18,282.84C215.47,282.9 215.8,282.83 216.08,282.68C216.41,282.5 216.71,282.1 216.99,281.72C217.32,281.27 217.62,280.72 217.89,280.09C218.23,279.31 218.51,278.36 218.79,277.36C219.12,276.17 219.4,274.76 219.7,273.41C220.01,272 220.3,270.54 220.6,269.09C220.9,267.61 221.21,266.11 221.51,264.61C221.81,263.1 222.11,261.58 222.41,260.07C222.71,258.56 223.02,257.04 223.32,255.53C223.62,254.04 223.92,252.55 224.22,251.08C224.52,249.64 224.81,248.21 225.12,246.8C225.42,245.43 225.72,244.06 226.03,242.73C226.33,241.44 226.62,240.16 226.93,238.91C227.23,237.7 227.53,236.51 227.84,235.34C228.14,234.21 228.44,233.11 228.74,232.02C229.04,230.95 229.34,229.91 229.64,228.84C229.94,227.77 230.25,226.7 230.55,225.6C230.86,224.46 231.16,223.3 231.45,222.1C231.76,220.83 232.06,219.49 232.36,218.15C232.67,216.77 232.96,215.33 233.26,213.93C233.56,212.55 233.86,211.17 234.16,209.8C234.46,208.45 234.77,207.11 235.07,205.78C235.37,204.46 235.67,203.16 235.97,201.86C236.27,200.58 236.58,199.31 236.88,198.05C237.18,196.81 237.48,195.58 237.78,194.36C238.08,193.16 238.38,191.98 238.68,190.81C238.98,189.66 239.29,188.52 239.59,187.38C239.89,186.25 240.19,185.14 240.49,184.02C240.79,182.91 241.1,181.81 241.4,180.7C241.7,179.59 242,178.48 242.3,177.36C242.6,176.23 242.91,175.1 243.21,173.95C243.51,172.79 243.81,171.62 244.11,170.43C244.41,169.22 244.71,168 245.01,166.75C245.32,165.47 245.62,164.17 245.92,162.84C246.23,161.46 246.52,160.06 246.82,158.63C247.13,157.14 247.43,155.62 247.73,154.07C248.04,152.46 248.33,150.8 248.63,149.13C248.93,147.4 249.23,145.64 249.53,143.86C249.84,142.04 250.14,140.19 250.44,138.34C250.74,136.47 251.04,134.57 251.34,132.69C251.64,130.81 251.95,128.91 252.25,127.04C252.55,125.19 252.85,123.34 253.15,121.53C253.45,119.76 253.74,118 254.05,116.28C254.35,114.62 254.65,112.98 254.96,111.39C255.25,109.88 255.55,108.39 255.86,106.96C256.15,105.62 256.46,104.31 256.77,103.07C257.06,101.93 257.35,100.82 257.67,99.79C257.96,98.87 258.25,97.97 258.58,97.18C258.86,96.49 259.15,95.82 259.48,95.28C259.76,94.83 260.04,94.39 260.38,94.13C260.66,93.92 260.99,93.75 261.29,93.76C261.59,93.77 261.91,93.96 262.19,94.18C262.53,94.46 262.82,94.92 263.1,95.39C263.44,95.96 263.72,96.67 264,97.41C264.32,98.26 264.61,99.21 264.9,100.2C265.22,101.31 265.52,102.51 265.81,103.76C266.13,105.12 266.42,106.57 266.71,108.05C267.02,109.64 267.33,111.3 267.62,113.01C267.93,114.82 268.23,116.7 268.52,118.61C268.83,120.62 269.12,122.68 269.42,124.78C269.73,126.95 270.03,129.17 270.33,131.42C270.64,133.73 270.93,136.1 271.23,138.47C271.53,140.89 271.84,143.34 272.14,145.79C272.44,148.26 272.74,150.79 273.04,153.25C273.34,155.66 273.64,158.05 273.95,160.4C274.25,162.69 274.55,164.93 274.85,167.17C275.15,169.37 275.44,171.57 275.75,173.73C276.05,175.84 276.35,177.94 276.66,179.99C276.96,181.96 277.25,183.93 277.56,185.8C277.85,187.55 278.15,189.28 278.47,190.86C278.76,192.26 279.05,193.57 279.37,194.82C279.66,195.96 279.95,197.05 280.27,198.06C280.56,198.97 280.86,199.86 281.18,200.64C281.46,201.32 281.75,201.99 282.08,202.52C282.36,202.97 282.65,203.4 282.99,203.66C283.27,203.87 283.59,204.05 283.89,204.05C284.19,204.05 284.51,203.88 284.79,203.67C285.12,203.42 285.42,203.01 285.7,202.59C286.03,202.1 286.31,201.51 286.6,200.9C286.92,200.23 287.22,199.48 287.51,198.72C287.82,197.92 288.11,197.07 288.41,196.22C288.72,195.34 289.02,194.43 289.32,193.53C289.62,192.63 289.92,191.71 290.22,190.81C290.52,189.93 290.81,189.04 291.12,188.19C291.42,187.36 291.72,186.54 292.03,185.76C292.32,185.02 292.62,184.29 292.93,183.62C293.22,182.99 293.52,182.39 293.84,181.84C294.13,181.35 294.42,180.87 294.74,180.47C295.02,180.12 295.32,179.78 295.64,179.55C295.93,179.34 296.24,179.17 296.55,179.1C296.84,179.03 297.16,179.04 297.45,179.11C297.76,179.19 298.07,179.37 298.36,179.58C298.68,179.82 298.97,180.15 299.26,180.5C299.58,180.89 299.87,181.35 300.16,181.82C300.48,182.34 300.78,182.91 301.07,183.49C301.38,184.11 301.67,184.77 301.97,185.44C302.28,186.13 302.58,186.85 302.88,187.56C303.18,188.28 303.48,189.02 303.78,189.75C304.08,190.47 304.36,191.23 304.68,191.9C304.97,192.51 305.26,193.14 305.59,193.63C305.87,194.04 306.15,194.49 306.49,194.66C306.77,194.8 307.1,194.77 307.4,194.72C307.71,194.67 308.02,194.56 308.3,194.37C308.63,194.14 308.93,193.76 309.21,193.38C309.54,192.94 309.81,192.35 310.11,191.85C310.41,191.35 310.71,190.87 311.01,190.37C311.32,189.85 311.62,189.32 311.92,188.79C312.22,188.27 312.51,187.72 312.82,187.22C313.11,186.75 313.42,186.29 313.73,185.88C314.02,185.5 314.32,185.14 314.63,184.84C314.92,184.56 315.22,184.3 315.53,184.11C315.82,183.93 316.13,183.79 316.44,183.72C316.73,183.66 317.04,183.65 317.34,183.71C317.65,183.77 317.96,183.91 318.25,184.08C318.57,184.27 318.86,184.54 319.15,184.84C319.47,185.17 319.76,185.57 320.05,186C320.37,186.47 320.67,187 320.96,187.56C321.28,188.17 321.57,188.83 321.86,189.51C322.17,190.25 322.48,191.04 322.77,191.85C323.08,192.72 323.38,193.64 323.67,194.58C323.98,195.58 324.29,196.62 324.58,197.69C324.89,198.81 325.19,199.97 325.48,201.16C325.79,202.4 326.08,203.68 326.38,204.99C326.69,206.35 326.99,207.74 327.29,209.16C327.6,210.63 327.89,212.13 328.19,213.65C328.5,215.22 328.8,216.83 329.1,218.45C329.41,220.12 329.7,221.81 330,223.52C330.3,225.27 330.6,227.06 330.9,228.85C331.2,230.68 331.51,232.52 331.81,234.38C332.11,236.27 332.41,238.17 332.71,240.08C333.01,242 333.32,243.95 333.62,245.88C333.92,247.81 334.22,249.75 334.52,251.67C334.82,253.57 335.12,255.47 335.42,257.35C335.72,259.2 336.02,261.06 336.33,262.87C336.63,264.63 336.92,266.39 337.23,268.06C337.52,269.62 337.83,271.13 338.14,272.59C338.43,273.97 338.73,275.32 339.04,276.62C339.33,277.84 339.63,279.03 339.95,280.15C340.24,281.17 340.53,282.16 340.85,283.05C341.13,283.83 341.42,284.57 341.75,285.2C342.03,285.74 342.32,286.26 342.66,286.62C342.94,286.91 343.24,287.18 343.56,287.26C343.85,287.33 344.18,287.25 344.47,287.12C344.79,286.97 345.09,286.68 345.37,286.37C345.7,286 345.99,285.49 346.27,284.97C346.6,284.36 346.89,283.62 347.18,282.9C347.49,282.13 347.78,281.29 348.08,280.47C348.38,279.64 348.69,278.78 348.99,277.95C349.29,277.13 349.59,276.32 349.89,275.51C350.19,274.7 350.48,273.88 350.79,273.1C351.09,272.34 351.39,271.6 351.7,270.88C351.99,270.2 352.29,269.53 352.6,268.9C352.89,268.3 353.2,267.72 353.51,267.18C353.8,266.68 354.1,266.19 354.41,265.75C354.7,265.34 355.01,264.95 355.32,264.6C355.61,264.27 355.91,263.97 356.22,263.71C356.51,263.47 356.81,263.26 357.12,263.08C357.41,262.91 357.72,262.78 358.03,262.67C358.33,262.57 358.63,262.5 358.93,262.45C359.23,262.4 359.54,262.37 359.84,262.35C360.14,262.33 360.44,262.34 360.74,262.34C361.04,262.34 361.34,262.38 361.64,262.38C361.94,262.38 362.25,262.38 362.55,262.34C362.85,262.3 363.15,262.23 363.45,262.13C363.76,262.02 364.07,261.88 364.36,261.69C364.67,261.49 364.97,261.25 365.26,260.96C365.58,260.64 365.87,260.27 366.16,259.85C366.48,259.38 366.78,258.83 367.07,258.27C367.39,257.66 367.67,256.99 367.97,256.32C368.28,255.63 368.58,254.91 368.88,254.2C369.18,253.48 369.48,252.74 369.78,252.01C370.08,251.28 370.38,250.54 370.68,249.81C370.98,249.09 371.29,248.37 371.59,247.65C371.89,246.94 372.19,246.24 372.49,245.54C372.79,244.86 373.1,244.18 373.4,243.51C373.7,242.85 374,242.19 374.3,241.54C374.6,240.89 374.91,240.26 375.21,239.62C375.51,238.98 375.81,238.35 376.11,237.71C376.41,237.07 376.71,236.42 377.01,235.77C377.31,235.12 377.62,234.47 377.92,233.81C378.22,233.15 378.52,232.48 378.82,231.83C379.12,231.18 379.43,230.53 379.73,229.9C380.03,229.28 380.33,228.66 380.63,228.06C380.93,227.47 381.22,226.9 381.53,226.34C381.83,225.79 382.13,225.26 382.44,224.74C382.74,224.23 383.04,223.73 383.34,223.23C383.64,222.74 383.95,222.26 384.25,221.76C384.55,221.26 384.85,220.75 385.15,220.24C385.45,219.73 385.75,219.21 386.05,218.69C386.35,218.16 386.66,217.63 386.96,217.09C387.26,216.54 387.56,215.98 387.86,215.41C388.17,214.82 388.47,214.21 388.77,213.59C389.08,212.94 389.37,212.27 389.67,211.6C389.97,210.92 390.28,210.22 390.58,209.52C390.88,208.82 391.18,208.1 391.48,207.39C391.78,206.68 392.08,205.97 392.38,205.27C392.68,204.58 392.98,203.89 393.29,203.21C393.59,202.55 393.88,201.89 394.19,201.26C394.49,200.65 394.79,200.05 395.1,199.49C395.39,198.96 395.69,198.44 396,197.96C396.29,197.52 396.58,197.09 396.9,196.72C397.19,196.38 397.49,196.06 397.81,195.82C398.1,195.6 398.4,195.41 398.71,195.3C399,195.2 399.32,195.15 399.62,195.17C399.92,195.19 400.23,195.3 400.52,195.45C400.84,195.62 401.13,195.88 401.42,196.17C401.74,196.49 402.04,196.89 402.33,197.32C402.65,197.8 402.94,198.34 403.23,198.91C403.55,199.54 403.85,200.22 404.14,200.93C404.46,201.7 404.75,202.53 405.04,203.38C405.35,204.29 405.66,205.25 405.95,206.24C406.26,207.29 406.56,208.38 406.85,209.49C407.16,210.66 407.45,211.87 407.75,213.1C408.06,214.39 408.36,215.72 408.66,217.06C408.97,218.45 409.26,219.87 409.56,221.31C409.87,222.79 410.17,224.3 410.47,225.82C410.77,227.37 411.07,228.95 411.37,230.53C411.67,232.13 411.97,233.76 412.27,235.38C412.57,237.01 412.88,238.66 413.18,240.3C413.48,241.93 413.78,243.57 414.08,245.2C414.38,246.81 414.69,248.43 414.99,250.02C415.29,251.58 415.59,253.14 415.89,254.66C416.19,256.14 416.48,257.61 416.79,259.04C417.09,260.41 417.39,261.75 417.7,263.05C417.99,264.28 418.29,265.49 418.6,266.65C418.89,267.75 419.2,268.81 419.51,269.83C419.8,270.78 420.09,271.72 420.41,272.57C420.7,273.33 420.98,274.09 421.32,274.68C421.6,275.17 421.87,275.71 422.22,275.92C422.49,276.08 422.83,276.1 423.12,276.05C423.43,276 423.73,275.76 424.03,275.59C424.34,275.42 424.63,275.21 424.93,275.02C425.23,274.84 425.53,274.65 425.84,274.48C426.14,274.32 426.44,274.16 426.74,274.02C427.04,273.89 427.34,273.76 427.64,273.66C427.94,273.56 428.25,273.47 428.55,273.4C428.85,273.33 429.15,273.28 429.45,273.22C429.75,273.16 430.06,273.11 430.36,273.03C430.66,272.95 430.96,272.86 431.26,272.75C431.56,272.63 431.87,272.5 432.16,272.34C432.47,272.17 432.77,271.95 433.07,271.74C433.37,271.53 433.67,271.28 433.97,271.06C434.27,270.84 434.57,270.63 434.88,270.44C435.18,270.25 435.47,270.07 435.78,269.92C436.07,269.78 436.37,269.65 436.68,269.57C436.98,269.49 437.29,269.44 437.59,269.43C437.89,269.42 438.19,269.45 438.49,269.52C438.8,269.59 439.1,269.7 439.4,269.84C439.71,269.99 440.01,270.18 440.3,270.39C440.61,270.61 440.92,270.87 441.21,271.15C441.52,271.44 441.82,271.76 442.11,272.1C442.42,272.45 442.71,272.84 443.01,273.23C443.32,273.64 443.62,274.07 443.92,274.51C444.23,274.96 444.52,275.43 444.82,275.9C445.12,276.38 445.43,276.88 445.73,277.36C446.03,277.83 446.32,278.32 446.63,278.75C446.92,279.14 447.21,279.53 447.53,279.84C447.82,280.12 448.12,280.42 448.44,280.57C448.73,280.71 449.04,280.72 449.34,280.77C449.64,280.81 449.95,280.81 450.25,280.84C450.55,280.87 450.85,280.9 451.15,280.94C451.45,280.98 451.75,281.03 452.05,281.09C452.35,281.15 452.66,281.23 452.96,281.31C453.26,281.4 453.56,281.49 453.86,281.6C454.16,281.71 454.47,281.83 454.77,281.96C455.07,282.09 455.37,282.24 455.67,282.38C455.97,282.52 456.28,282.63 456.58,282.78C456.88,282.93 457.18,283.1 457.48,283.29C457.78,283.48 458.08,283.69 458.38,283.91C458.69,284.13 458.99,284.38 459.29,284.62C459.59,284.87 459.89,285.14 460.19,285.39C460.49,285.65 460.79,285.91 461.1,286.15Q461.4,286.38 462,286.79" style="vector-effect: non-scaling-stroke; fill: none; stroke: rgb(0, 100, 80); stroke-opacity: 1; stroke-width: 2px; opacity: 1;"/></g><g class="points"/><g class="text"/></g><g class="trace scatter tracec49f34" style="stroke-miterlimit: 2; opacity: 1;"><g class="fills"/><g class="errorbars"/><g class="lines"><path class="js-line" d="M0,163.94Q0.62,163.32 0.9,162.9C1.24,162.38 1.52,161.65 1.81,160.98C2.12,160.25 2.41,159.47 2.71,158.68C3.02,157.86 3.32,157.01 3.62,156.16C3.93,155.28 4.22,154.38 4.52,153.49C4.82,152.59 5.12,151.68 5.42,150.78C5.72,149.88 6.03,148.97 6.33,148.08C6.63,147.2 6.92,146.32 7.23,145.46C7.53,144.62 7.83,143.78 8.14,142.97C8.44,142.18 8.73,141.4 9.04,140.64C9.34,139.91 9.64,139.2 9.95,138.51C10.25,137.85 10.54,137.21 10.85,136.59C11.14,136 11.44,135.43 11.75,134.88C12.04,134.36 12.35,133.87 12.66,133.39C12.95,132.94 13.25,132.5 13.56,132.08C13.86,131.68 14.16,131.3 14.47,130.93C14.77,130.57 15.07,130.22 15.37,129.87C15.67,129.53 15.97,129.2 16.27,128.86C16.57,128.51 16.88,128.16 17.18,127.79C17.49,127.41 17.79,127.02 18.08,126.61C18.39,126.17 18.7,125.71 18.99,125.22C19.3,124.7 19.6,124.15 19.89,123.56C20.2,122.93 20.5,122.25 20.79,121.55C21.1,120.79 21.41,119.98 21.7,119.15C22.01,118.26 22.31,117.32 22.6,116.35C22.91,115.32 23.21,114.25 23.51,113.15C23.82,112 24.11,110.81 24.41,109.61C24.72,108.36 25.02,107.07 25.32,105.78C25.63,104.46 25.92,103.12 26.22,101.77C26.52,100.41 26.82,99.03 27.12,97.66C27.42,96.29 27.73,94.91 28.03,93.55C28.33,92.2 28.63,90.85 28.93,89.52C29.23,88.21 29.53,86.91 29.84,85.63C30.14,84.39 30.43,83.16 30.74,81.96C31.04,80.8 31.33,79.66 31.64,78.55C31.94,77.48 32.24,76.44 32.55,75.43C32.84,74.47 33.14,73.54 33.45,72.65C33.74,71.81 34.05,70.99 34.36,70.23C34.65,69.52 34.95,68.85 35.26,68.22C35.55,67.65 35.84,67.1 36.16,66.62C36.45,66.2 36.75,65.8 37.07,65.48C37.35,65.2 37.65,64.94 37.97,64.79C38.26,64.65 38.58,64.56 38.88,64.57C39.18,64.58 39.49,64.68 39.78,64.82C40.1,64.98 40.39,65.22 40.68,65.5C41,65.81 41.3,66.21 41.59,66.62C41.91,67.08 42.2,67.59 42.49,68.13C42.81,68.72 43.11,69.36 43.4,70.02C43.71,70.73 44.01,71.49 44.3,72.27C44.61,73.1 44.92,73.96 45.21,74.85C45.52,75.79 45.82,76.76 46.11,77.75C46.42,78.79 46.71,79.86 47.01,80.95C47.32,82.09 47.62,83.25 47.92,84.44C48.23,85.67 48.52,86.92 48.82,88.19C49.13,89.5 49.43,90.84 49.73,92.19C50.04,93.58 50.33,94.99 50.63,96.42C50.93,97.88 51.23,99.36 51.53,100.86C51.84,102.39 52.14,103.94 52.44,105.51C52.74,107.1 53.04,108.72 53.34,110.34C53.64,111.98 53.95,113.64 54.25,115.31C54.55,117 54.85,118.7 55.15,120.42C55.45,122.18 55.75,123.96 56.05,125.77C56.36,127.64 56.66,129.54 56.96,131.49C57.27,133.51 57.56,135.58 57.86,137.68C58.17,139.87 58.47,142.1 58.77,144.38C59.08,146.75 59.37,149.17 59.67,151.62C59.98,154.16 60.28,156.75 60.58,159.37C60.89,162.07 61.18,164.82 61.48,167.6C61.78,170.45 62.08,173.35 62.38,176.26C62.68,179.23 62.99,182.23 63.29,185.24C63.59,188.29 63.89,191.37 64.19,194.43C64.49,197.49 64.8,200.57 65.1,203.6C65.4,206.57 65.69,209.54 66,212.42C66.29,215.18 66.59,217.9 66.9,220.52C67.19,223 67.5,225.43 67.81,227.77C68.1,229.98 68.39,232.15 68.71,234.19C69,236.06 69.28,237.97 69.62,239.56C69.9,240.85 70.13,242.17 70.52,243.02C70.78,243.59 71.07,244.22 71.42,244.33C71.69,244.41 72.07,244.21 72.33,243.97C72.71,243.62 72.95,242.85 73.23,242.17C73.56,241.36 73.85,240.35 74.14,239.4C74.45,238.39 74.74,237.31 75.04,236.28C75.34,235.25 75.64,234.21 75.95,233.22C76.25,232.27 76.56,231.41 76.85,230.44C77.16,229.4 77.45,228.31 77.75,227.2C78.06,226.05 78.35,224.81 78.66,223.66C78.95,222.57 79.25,221.5 79.56,220.48C79.85,219.52 80.16,218.58 80.47,217.69C80.76,216.85 81.06,216.04 81.37,215.27C81.66,214.55 81.96,213.86 82.27,213.22C82.56,212.62 82.86,212.05 83.18,211.53C83.47,211.05 83.76,210.59 84.08,210.19C84.37,209.83 84.67,209.48 84.99,209.21C85.28,208.97 85.58,208.74 85.89,208.61C86.18,208.49 86.49,208.42 86.79,208.44C87.09,208.46 87.41,208.56 87.7,208.71C88.02,208.88 88.32,209.15 88.6,209.45C88.92,209.78 89.22,210.2 89.51,210.64C89.83,211.13 90.12,211.7 90.41,212.28C90.73,212.91 91.03,213.6 91.32,214.31C91.63,215.07 91.93,215.87 92.22,216.69C92.53,217.54 92.82,218.43 93.12,219.32C93.43,220.24 93.73,221.19 94.03,222.14C94.33,223.1 94.63,224.08 94.93,225.06C95.23,226.05 95.54,227.05 95.84,228.04C96.14,229.03 96.44,230.03 96.74,231.01C97.04,231.97 97.29,233.08 97.64,233.87C97.91,234.48 98.18,235.17 98.55,235.42C98.81,235.6 99.15,235.58 99.45,235.55C99.76,235.52 100.08,235.42 100.36,235.23C100.69,235.01 100.99,234.66 101.26,234.24C101.61,233.69 101.88,232.9 102.16,232.11C102.49,231.17 102.78,230.04 103.07,228.96C103.38,227.83 103.67,226.63 103.97,225.47C104.27,224.33 104.57,223.18 104.88,222.06C105.18,220.98 105.47,219.91 105.78,218.87C106.07,217.88 106.37,216.91 106.68,215.97C106.98,215.07 107.28,214.21 107.59,213.35C107.89,212.52 108.19,211.72 108.49,210.91C108.79,210.1 109.1,209.29 109.4,208.48C109.7,207.67 110,206.85 110.3,206.04C110.6,205.22 110.91,204.4 111.21,203.58C111.51,202.76 111.81,201.93 112.11,201.13C112.41,200.35 112.7,199.58 113.01,198.85C113.3,198.16 113.61,197.48 113.92,196.84C114.21,196.24 114.5,195.67 114.82,195.14C115.11,194.66 115.41,194.2 115.73,193.79C116.02,193.42 116.31,193.07 116.63,192.78C116.92,192.52 117.22,192.28 117.53,192.12C117.82,191.97 118.13,191.85 118.44,191.81C118.74,191.77 119.05,191.78 119.34,191.85C119.65,191.92 119.96,192.08 120.25,192.26C120.57,192.46 120.86,192.73 121.15,193.02C121.47,193.35 121.76,193.74 122.05,194.15C122.37,194.61 122.67,195.11 122.96,195.65C123.28,196.23 123.57,196.87 123.86,197.53C124.17,198.24 124.48,198.99 124.77,199.76C125.08,200.58 125.38,201.46 125.67,202.34C125.98,203.27 126.26,204.31 126.58,205.2C126.87,206 127.17,206.72 127.48,207.46C127.77,208.17 128.05,208.94 128.38,209.54C128.66,210.05 128.93,210.72 129.29,210.86C129.56,210.96 129.91,210.8 130.19,210.64C130.52,210.45 130.82,210.1 131.1,209.73C131.43,209.29 131.72,208.73 132,208.13C132.33,207.43 132.61,206.61 132.9,205.77C133.22,204.83 133.51,203.78 133.81,202.76C134.12,201.72 134.4,200.63 134.71,199.59C135.01,198.57 135.31,197.56 135.62,196.59C135.91,195.68 136.21,194.78 136.52,193.95C136.81,193.19 137.1,192.45 137.42,191.8C137.71,191.22 138,190.66 138.33,190.21C138.61,189.83 138.9,189.47 139.23,189.25C139.51,189.06 139.83,188.93 140.14,188.88C140.44,188.83 140.75,188.85 141.04,188.93C141.35,189.01 141.66,189.19 141.95,189.4C142.27,189.64 142.57,189.98 142.85,190.35C143.18,190.78 143.47,191.3 143.75,191.86C144.08,192.51 144.37,193.25 144.66,194.02C144.98,194.88 145.27,195.83 145.56,196.8C145.88,197.86 146.18,199 146.47,200.16C146.78,201.4 147.08,202.69 147.37,204.01C147.68,205.39 147.97,206.81 148.27,208.24C148.58,209.71 148.88,211.22 149.18,212.73C149.48,214.26 149.78,215.82 150.08,217.36C150.38,218.91 150.69,220.47 150.99,222.01C151.29,223.54 151.59,225.08 151.89,226.58C152.19,228.04 152.48,229.5 152.79,230.91C153.08,232.25 153.39,233.57 153.7,234.83C153.99,236.01 154.28,237.16 154.6,238.24C154.89,239.24 155.18,240.23 155.51,241.09C155.79,241.83 156.05,242.6 156.41,243.1C156.68,243.47 157.01,243.91 157.32,243.92C157.62,243.93 157.94,243.51 158.22,243.21C158.55,242.86 158.85,242.44 159.12,241.93C159.46,241.3 159.76,240.55 160.03,239.67C160.39,238.52 160.63,236.95 160.93,235.57C161.24,234.15 161.54,232.69 161.84,231.27C162.14,229.87 162.44,228.46 162.74,227.09C163.04,225.76 163.33,224.44 163.64,223.17C163.94,221.95 164.24,220.75 164.55,219.6C164.84,218.52 165.14,217.46 165.45,216.46C165.74,215.53 166.05,214.62 166.36,213.77C166.65,212.98 166.95,212.22 167.26,211.51C167.55,210.86 167.84,210.24 168.16,209.66C168.45,209.13 168.79,208.73 169.07,208.18C169.4,207.54 169.68,206.76 169.97,206.01C170.28,205.22 170.57,204.36 170.88,203.55C171.18,202.76 171.48,202.01 171.78,201.23C172.08,200.44 172.38,199.62 172.68,198.83C172.98,198.06 173.28,197.27 173.59,196.54C173.88,195.85 174.18,195.17 174.49,194.54C174.78,193.95 175.08,193.39 175.4,192.88C175.69,192.42 175.98,191.99 176.3,191.62C176.59,191.29 176.89,190.98 177.21,190.77C177.5,190.58 177.8,190.43 178.11,190.38C178.4,190.33 178.72,190.37 179.01,190.47C179.33,190.58 179.64,190.8 179.92,191.05C180.25,191.34 180.54,191.73 180.82,192.14C181.14,192.61 181.44,193.15 181.73,193.73C182.05,194.38 182.34,195.09 182.63,195.84C182.94,196.66 183.24,197.53 183.53,198.44C183.84,199.42 184.15,200.44 184.44,201.5C184.75,202.62 185.04,203.79 185.34,204.98C185.65,206.22 185.95,207.51 186.25,208.8C186.56,210.13 186.85,211.49 187.15,212.85C187.45,214.22 187.75,215.63 188.05,217C188.35,218.36 188.65,219.73 188.96,221.05C189.26,222.31 189.54,223.57 189.86,224.74C190.15,225.82 190.45,226.85 190.77,227.82C191.06,228.7 191.36,229.52 191.67,230.31C191.96,231.04 192.27,231.73 192.58,232.39C192.87,233.01 193.17,233.61 193.48,234.18C193.77,234.72 194.07,235.23 194.38,235.74C194.68,236.24 194.99,236.71 195.29,237.2C195.59,237.69 195.9,238.17 196.19,238.69C196.5,239.23 196.81,239.79 197.1,240.37C197.41,240.99 197.71,241.64 198,242.31C198.31,243.02 198.6,243.77 198.9,244.53C199.21,245.32 199.51,246.14 199.81,246.95C200.11,247.77 200.41,248.59 200.71,249.41C201.01,250.23 201.31,251.09 201.62,251.88C201.91,252.63 202.21,253.36 202.52,254.06C202.81,254.71 203.12,255.32 203.42,255.94C203.72,256.56 204.03,257.17 204.33,257.78C204.63,258.38 204.92,258.97 205.23,259.55C205.53,260.11 205.83,260.68 206.14,261.2C206.43,261.69 206.72,262.17 207.04,262.58C207.33,262.95 207.64,263.27 207.95,263.58C208.24,263.87 208.54,264.13 208.85,264.38C209.14,264.62 209.43,264.9 209.75,265.04C210.04,265.17 210.36,265.2 210.66,265.21C210.96,265.22 211.26,265.15 211.56,265.12C211.86,265.09 212.17,265.06 212.47,265.03C212.77,265 213.07,264.98 213.37,264.94C213.67,264.9 213.97,264.88 214.27,264.81C214.57,264.74 214.89,264.68 215.18,264.54C215.5,264.38 215.8,264.16 216.08,263.88C216.41,263.56 216.7,263.11 216.99,262.68C217.3,262.22 217.6,261.71 217.89,261.2C218.2,260.66 218.51,260.13 218.79,259.51C219.12,258.79 219.41,257.94 219.7,257.11C220.01,256.23 220.3,255.3 220.6,254.39C220.9,253.49 221.2,252.56 221.51,251.68C221.81,250.84 222.1,249.99 222.41,249.21C222.7,248.49 223,247.78 223.32,247.16C223.61,246.61 223.89,246.07 224.22,245.64C224.5,245.27 224.79,244.91 225.12,244.68C225.4,244.48 225.72,244.33 226.03,244.29C226.33,244.25 226.64,244.32 226.93,244.43C227.24,244.54 227.55,244.77 227.84,244.98C228.15,245.2 228.43,245.53 228.74,245.75C229.03,245.96 229.33,246.21 229.64,246.28C229.93,246.35 230.25,246.29 230.55,246.21C230.86,246.13 231.15,245.92 231.45,245.8C231.75,245.68 232.05,245.55 232.36,245.48C232.66,245.41 232.96,245.39 233.26,245.36C233.56,245.33 233.86,245.35 234.16,245.29C234.47,245.23 234.78,245.14 235.07,245.01C235.38,244.87 235.68,244.67 235.97,244.45C236.28,244.22 236.59,243.95 236.88,243.65C237.2,243.32 237.5,242.95 237.78,242.53C238.1,242.05 238.4,241.52 238.68,240.91C239.01,240.18 239.31,239.34 239.59,238.4C239.93,237.26 240.21,235.93 240.49,234.54C240.82,232.94 241.11,231.17 241.4,229.36C241.72,227.38 242.01,225.26 242.3,223.11C242.61,220.82 242.91,218.41 243.21,215.99C243.52,213.47 243.81,210.88 244.11,208.27C244.41,205.58 244.71,202.85 245.01,200.09C245.32,197.27 245.62,194.41 245.92,191.53C246.22,188.59 246.52,185.62 246.82,182.62C247.12,179.56 247.43,176.47 247.73,173.36C248.03,170.22 248.33,167.04 248.63,163.88C248.93,160.72 249.23,157.53 249.53,154.38C249.83,151.26 250.14,148.15 250.44,145.08C250.74,142.08 251.03,139.09 251.34,136.16C251.64,133.32 251.94,130.51 252.25,127.77C252.55,125.14 252.84,122.55 253.15,120.04C253.44,117.65 253.74,115.31 254.05,113.06C254.34,110.94 254.65,108.87 254.96,106.9C255.25,105.07 255.54,103.29 255.86,101.61C256.15,100.08 256.45,98.59 256.77,97.22C257.06,95.99 257.34,94.81 257.67,93.75C257.95,92.83 258.24,91.93 258.58,91.19C258.86,90.58 259.13,89.97 259.48,89.57C259.75,89.26 260.06,88.95 260.38,88.9C260.67,88.85 261.02,88.98 261.29,89.18C261.64,89.43 261.91,89.92 262.19,90.41C262.53,91.01 262.82,91.78 263.1,92.57C263.43,93.49 263.72,94.54 264,95.63C264.32,96.84 264.61,98.16 264.9,99.52C265.22,101.01 265.52,102.58 265.81,104.2C266.12,105.93 266.42,107.75 266.71,109.6C267.02,111.55 267.32,113.57 267.62,115.63C267.93,117.78 268.23,119.98 268.52,122.22C268.83,124.53 269.12,126.9 269.42,129.29C269.73,131.75 270.03,134.26 270.33,136.78C270.64,139.36 270.93,141.98 271.23,144.61C271.53,147.29 271.84,150.01 272.14,152.74C272.44,155.51 272.74,158.3 273.04,161.11C273.34,163.95 273.65,166.81 273.95,169.68C274.25,172.57 274.55,175.49 274.85,178.4C275.15,181.32 275.45,184.26 275.75,187.19C276.05,190.12 276.36,193.06 276.66,195.97C276.96,198.84 277.24,201.81 277.56,204.54C277.85,207.05 278.14,209.54 278.47,211.77C278.75,213.7 279.06,215.44 279.37,217.16C279.66,218.76 279.95,220.34 280.27,221.76C280.55,223.01 280.82,224.29 281.18,225.24C281.45,225.94 281.78,227 282.08,227C282.38,227 282.72,225.99 282.99,225.29C283.36,224.3 283.6,222.87 283.89,221.55C284.21,220.09 284.49,218.48 284.79,216.91C285.1,215.28 285.4,213.6 285.7,211.93C286,210.26 286.3,208.56 286.6,206.89C286.9,205.24 287.2,203.59 287.51,201.98C287.81,200.41 288.1,198.86 288.41,197.35C288.71,195.9 289.01,194.48 289.32,193.11C289.61,191.82 289.91,190.56 290.22,189.36C290.51,188.24 290.81,187.16 291.12,186.13C291.41,185.18 291.72,184.26 292.03,183.39C292.32,182.59 292.61,181.81 292.93,181.1C293.22,180.46 293.51,179.82 293.84,179.31C294.12,178.88 294.4,178.44 294.74,178.2C295.02,178 295.34,177.85 295.64,177.86C295.94,177.87 296.27,178.05 296.55,178.27C296.88,178.53 297.17,178.95 297.45,179.38C297.78,179.89 298.07,180.52 298.36,181.16C298.68,181.89 298.97,182.71 299.26,183.54C299.57,184.45 299.87,185.43 300.16,186.41C300.47,187.44 300.77,188.53 301.07,189.59C301.37,190.65 301.66,191.76 301.97,192.79C302.26,193.75 302.55,194.74 302.88,195.58C303.16,196.3 303.44,197.01 303.78,197.53C304.05,197.95 304.34,198.35 304.68,198.54C304.96,198.69 305.3,198.76 305.59,198.69C305.91,198.61 306.22,198.34 306.49,198.01C306.86,197.54 307.13,196.76 307.4,195.98C307.75,194.97 308.01,193.66 308.3,192.42C308.62,191.06 308.91,189.58 309.21,188.13C309.52,186.64 309.81,185.1 310.11,183.61C310.41,182.14 310.7,180.67 311.01,179.24C311.31,177.86 311.61,176.5 311.92,175.19C312.21,173.96 312.51,172.75 312.82,171.6C313.11,170.54 313.41,169.5 313.73,168.54C314.02,167.67 314.31,166.83 314.63,166.08C314.91,165.42 315.2,164.79 315.53,164.28C315.81,163.85 316.1,163.43 316.44,163.18C316.72,162.97 317.04,162.8 317.34,162.8C317.64,162.8 317.97,162.95 318.25,163.15C318.58,163.39 318.87,163.8 319.15,164.22C319.48,164.72 319.77,165.36 320.05,166.01C320.37,166.76 320.67,167.6 320.96,168.48C321.28,169.46 321.57,170.52 321.86,171.61C322.17,172.8 322.48,174.05 322.77,175.34C323.08,176.71 323.38,178.15 323.67,179.61C323.98,181.15 324.28,182.73 324.58,184.34C324.89,186 325.18,187.71 325.48,189.42C325.78,191.17 326.08,192.95 326.38,194.72C326.68,196.51 326.99,198.3 327.29,200.1C327.59,201.9 327.89,203.7 328.19,205.51C328.49,207.33 328.8,209.15 329.1,210.99C329.4,212.86 329.7,214.74 330,216.63C330.3,218.55 330.6,220.49 330.9,222.43C331.2,224.39 331.51,226.38 331.81,228.34C332.11,230.28 332.41,232.23 332.71,234.14C333.01,236.01 333.32,237.84 333.62,239.69C333.92,241.53 334.22,243.35 334.52,245.19C334.82,247.04 335.12,248.89 335.42,250.74C335.72,252.6 336.03,254.46 336.33,256.32C336.63,258.17 336.93,260.03 337.23,261.87C337.53,263.69 337.84,265.51 338.14,267.3C338.44,269.06 338.73,270.81 339.04,272.52C339.34,274.19 339.64,275.84 339.95,277.45C340.25,279 340.54,280.53 340.85,282C341.14,283.4 341.44,284.77 341.75,286.08C342.04,287.29 342.34,288.48 342.66,289.58C342.95,290.57 343.23,291.55 343.56,292.39C343.84,293.1 344.12,293.8 344.47,294.29C344.74,294.66 345.04,294.99 345.37,295.15C345.65,295.29 345.98,295.36 346.27,295.3C346.59,295.24 346.9,294.98 347.18,294.72C347.51,294.41 347.8,293.96 348.08,293.5C348.4,292.98 348.7,292.36 348.99,291.75C349.3,291.1 349.59,290.39 349.89,289.72C350.19,289.05 350.48,288.38 350.79,287.72C351.09,287.08 351.4,286.46 351.7,285.83C352,285.21 352.29,284.57 352.6,283.99C352.89,283.44 353.2,282.92 353.51,282.42C353.8,281.95 354.1,281.51 354.41,281.08C354.71,280.66 355.02,280.28 355.32,279.85C355.63,279.41 355.92,278.93 356.22,278.46C356.52,277.99 356.82,277.5 357.12,277.03C357.42,276.57 357.72,276.12 358.03,275.68C358.33,275.26 358.62,274.85 358.93,274.45C359.23,274.07 359.53,273.7 359.84,273.34C360.14,272.99 360.44,272.67 360.74,272.33C361.04,271.99 361.35,271.69 361.64,271.32C361.96,270.91 362.25,270.41 362.55,269.94C362.85,269.46 363.15,268.97 363.45,268.49C363.75,268.01 364.06,267.54 364.36,267.05C364.66,266.56 364.96,266.07 365.26,265.56C365.57,265.03 365.86,264.48 366.16,263.93C366.47,263.36 366.77,262.77 367.07,262.18C367.37,261.58 367.67,260.97 367.97,260.36C368.27,259.74 368.58,259.13 368.88,258.5C369.18,257.87 369.48,257.24 369.78,256.59C370.08,255.93 370.38,255.27 370.68,254.59C370.99,253.89 371.29,253.19 371.59,252.47C371.9,251.73 372.19,250.98 372.49,250.22C372.79,249.45 373.1,248.66 373.4,247.87C373.7,247.07 374,246.26 374.3,245.45C374.6,244.64 374.91,243.83 375.21,243.03C375.51,242.24 375.81,241.44 376.11,240.66C376.41,239.89 376.7,239.13 377.01,238.38C377.31,237.65 377.61,236.94 377.92,236.24C378.22,235.56 378.51,234.89 378.82,234.24C379.12,233.61 379.42,233 379.73,232.4C380.03,231.82 380.33,231.26 380.63,230.71C380.93,230.18 381.22,229.66 381.53,229.15C381.83,228.65 382.13,228.17 382.44,227.7C382.74,227.24 383.04,226.79 383.34,226.34C383.64,225.9 383.95,225.46 384.25,225.02C384.55,224.58 384.85,224.15 385.15,223.71C385.45,223.26 385.75,222.81 386.05,222.35C386.36,221.87 386.66,221.39 386.96,220.89C387.27,220.37 387.56,219.84 387.86,219.29C388.17,218.72 388.47,218.12 388.77,217.51C389.08,216.88 389.37,216.22 389.67,215.56C389.98,214.88 390.28,214.18 390.58,213.47C390.88,212.75 391.18,212.01 391.48,211.28C391.78,210.55 392.08,209.8 392.38,209.07C392.68,208.35 392.98,207.63 393.29,206.93C393.59,206.26 393.88,205.59 394.19,204.96C394.48,204.36 394.79,203.77 395.1,203.23C395.39,202.73 395.68,202.24 396,201.82C396.29,201.44 396.58,201.08 396.9,200.8C397.19,200.55 397.49,200.32 397.81,200.2C398.1,200.09 398.41,200.04 398.71,200.08C399.02,200.12 399.34,200.27 399.62,200.46C399.94,200.68 400.24,201.01 400.52,201.36C400.84,201.76 401.13,202.26 401.42,202.78C401.74,203.37 402.04,204.03 402.33,204.72C402.65,205.48 402.94,206.31 403.23,207.17C403.55,208.1 403.85,209.1 404.14,210.12C404.45,211.21 404.75,212.35 405.04,213.52C405.35,214.75 405.65,216.04 405.95,217.34C406.26,218.7 406.55,220.11 406.85,221.53C407.16,223 407.45,224.51 407.75,226.03C408.05,227.58 408.35,229.2 408.66,230.73C408.96,232.2 409.25,233.66 409.56,235.04C409.85,236.32 410.17,237.5 410.47,238.73C410.77,239.97 411.07,241.21 411.37,242.47C411.67,243.75 411.97,245.04 412.27,246.34C412.57,247.66 412.88,248.99 413.18,250.32C413.48,251.66 413.78,253 414.08,254.34C414.38,255.68 414.69,257.02 414.99,258.34C415.29,259.64 415.59,260.94 415.89,262.21C416.19,263.44 416.48,264.68 416.79,265.84C417.08,266.92 417.38,267.96 417.7,268.94C417.99,269.83 418.27,270.7 418.6,271.46C418.88,272.12 419.17,272.77 419.51,273.26C419.79,273.66 420.09,273.98 420.41,274.23C420.7,274.46 421.01,274.6 421.32,274.74C421.62,274.88 421.92,274.98 422.22,275.07C422.52,275.16 422.82,275.22 423.12,275.26C423.42,275.3 423.73,275.32 424.03,275.33C424.33,275.34 424.63,275.36 424.93,275.31C425.24,275.26 425.57,275.25 425.84,275.05C426.2,274.79 426.45,274.16 426.74,273.67C427.05,273.15 427.34,272.56 427.64,272.02C427.94,271.48 428.24,270.94 428.55,270.42C428.85,269.91 429.14,269.41 429.45,268.93C429.75,268.47 430.05,268.01 430.36,267.59C430.65,267.19 430.95,266.8 431.26,266.44C431.55,266.1 431.85,265.78 432.16,265.49C432.46,265.21 432.76,264.95 433.07,264.72C433.36,264.5 433.66,264.3 433.97,264.15C434.27,264 434.57,263.88 434.88,263.81C435.18,263.75 435.48,263.72 435.78,263.75C436.08,263.78 436.39,263.88 436.68,264.01C436.99,264.15 437.3,264.35 437.59,264.57C437.9,264.81 438.2,265.11 438.49,265.43C438.8,265.78 439.11,266.17 439.4,266.58C439.71,267.01 440.01,267.49 440.3,267.97C440.61,268.48 440.91,269.02 441.21,269.57C441.52,270.14 441.81,270.73 442.11,271.33C442.41,271.94 442.71,272.57 443.01,273.19C443.31,273.81 443.61,274.45 443.92,275.05C444.22,275.63 444.5,276.24 444.82,276.75C445.11,277.21 445.4,277.66 445.73,278C446.01,278.29 446.32,278.53 446.63,278.7C446.92,278.86 447.23,278.95 447.53,279.03C447.83,279.11 448.14,279.15 448.44,279.2C448.74,279.25 449.04,279.29 449.34,279.33C449.64,279.37 449.95,279.41 450.25,279.46C450.55,279.51 450.85,279.56 451.15,279.61C451.45,279.67 451.75,279.73 452.05,279.79C452.35,279.85 452.66,279.92 452.96,279.98C453.26,280.04 453.56,280.09 453.86,280.14C454.16,280.2 454.47,280.25 454.77,280.31C455.07,280.38 455.37,280.44 455.67,280.53C455.98,280.62 456.28,280.73 456.58,280.86C456.88,280.99 457.18,281.13 457.48,281.3C457.78,281.47 458.08,281.67 458.38,281.87C458.69,282.08 458.99,282.31 459.29,282.55C459.59,282.79 459.89,283.05 460.19,283.3C460.49,283.55 460.79,283.82 461.1,284.06Q461.4,284.29 462,284.71" style="vector-effect: non-scaling-stroke; fill: none; stroke: rgb(0, 176, 246); stroke-opacity: 1; stroke-width: 2px; opacity: 1;"/></g><g class="points"/><g class="text"/></g><g class="trace scatter trace595b78" style="stroke-miterlimit: 2; opacity: 1;"><g class="fills"/><g class="errorbars"/><g class="lines"><path class="js-line" d="M0,215.91Q0.63,213.99 0.9,212.78C1.26,211.17 1.53,209.1 1.81,207.06C2.14,204.73 2.42,202.14 2.71,199.53C3.02,196.71 3.33,193.74 3.62,190.74C3.93,187.59 4.22,184.33 4.52,181.05C4.82,177.66 5.12,174.19 5.42,170.71C5.72,167.15 6.03,163.55 6.33,159.93C6.63,156.26 6.93,152.56 7.23,148.86C7.53,145.13 7.84,141.37 8.14,137.62C8.44,133.87 8.74,130.11 9.04,126.36C9.34,122.62 9.65,118.88 9.95,115.17C10.25,111.49 10.55,107.81 10.85,104.16C11.15,100.56 11.45,96.98 11.75,93.44C12.05,89.96 12.35,86.51 12.66,83.1C12.96,79.77 13.25,76.47 13.56,73.23C13.86,70.08 14.16,66.97 14.47,63.92C14.77,60.98 15.06,58.07 15.37,55.24C15.66,52.53 15.96,49.86 16.27,47.28C16.56,44.82 16.87,42.42 17.18,40.1C17.47,37.92 17.77,35.79 18.08,33.76C18.37,31.88 18.67,30.04 18.99,28.32C19.28,26.75 19.57,25.23 19.89,23.83C20.17,22.58 20.46,21.38 20.79,20.32C21.07,19.41 21.36,18.54 21.7,17.84C21.97,17.28 22.24,16.7 22.6,16.39C22.87,16.16 23.22,15.97 23.51,16C23.82,16.04 24.14,16.35 24.41,16.66C24.77,17.07 25.04,17.72 25.32,18.37C25.66,19.16 25.94,20.11 26.22,21.1C26.54,22.24 26.83,23.5 27.12,24.81C27.44,26.27 27.74,27.84 28.03,29.45C28.34,31.19 28.64,33.04 28.93,34.91C29.24,36.88 29.54,38.93 29.84,40.99C30.15,43.11 30.44,45.27 30.74,47.45C31.04,49.68 31.34,51.94 31.64,54.24C31.95,56.6 32.25,59 32.55,61.42C32.86,63.9 33.15,66.43 33.45,68.96C33.75,71.53 34.06,74.13 34.36,76.73C34.66,79.34 34.96,81.97 35.26,84.58C35.56,87.18 35.86,89.78 36.16,92.36C36.46,94.91 36.77,97.44 37.07,99.95C37.37,102.41 37.66,104.85 37.97,107.26C38.27,109.62 38.57,111.95 38.88,114.25C39.18,116.49 39.48,118.71 39.78,120.9C40.08,123.03 40.37,125.14 40.68,127.22C40.98,129.25 41.28,131.26 41.59,133.24C41.89,135.17 42.18,137.08 42.49,138.96C42.79,140.79 43.09,142.61 43.4,144.39C43.7,146.13 43.99,147.84 44.3,149.53C44.6,151.17 44.9,152.78 45.21,154.36C45.51,155.88 45.8,157.39 46.11,158.85C46.4,160.24 46.7,161.61 47.01,162.93C47.3,164.17 47.61,165.39 47.92,166.55C48.21,167.63 48.5,168.68 48.82,169.66C49.11,170.56 49.41,171.43 49.73,172.23C50.02,172.95 50.31,173.63 50.63,174.24C50.91,174.78 51.21,175.29 51.53,175.72C51.82,176.11 52.12,176.45 52.44,176.74C52.73,177 53.03,177.22 53.34,177.39C53.63,177.55 53.94,177.66 54.25,177.77C54.55,177.87 54.85,177.94 55.15,178.02C55.45,178.09 55.75,178.14 56.05,178.22C56.35,178.3 56.66,178.38 56.96,178.48C57.26,178.59 57.56,178.71 57.86,178.85C58.17,179 58.47,179.18 58.77,179.37C59.08,179.57 59.37,179.79 59.67,180.03C59.98,180.28 60.28,180.54 60.58,180.82C60.89,181.1 61.18,181.4 61.48,181.7C61.78,182.01 62.08,182.33 62.38,182.65C62.68,182.98 62.99,183.3 63.29,183.64C63.59,183.98 63.89,184.33 64.19,184.68C64.49,185.03 64.8,185.37 65.1,185.72C65.4,186.07 65.7,186.41 66,186.76C66.3,187.11 66.6,187.47 66.9,187.83C67.2,188.2 67.51,188.58 67.81,188.97C68.12,189.38 68.41,189.8 68.71,190.23C69.02,190.68 69.32,191.14 69.62,191.61C69.93,192.1 70.23,192.61 70.52,193.13C70.83,193.67 71.12,194.24 71.42,194.81C71.73,195.4 72.03,196.02 72.33,196.64C72.64,197.28 72.93,197.95 73.23,198.62C73.53,199.3 73.84,200 74.14,200.7C74.44,201.41 74.74,202.12 75.04,202.84C75.34,203.56 75.65,204.29 75.95,205.01C76.25,205.73 76.55,206.46 76.85,207.18C77.15,207.9 77.45,208.62 77.75,209.33C78.05,210.03 78.36,210.73 78.66,211.42C78.96,212.09 79.25,212.76 79.56,213.41C79.86,214.04 80.16,214.65 80.47,215.24C80.76,215.8 81.06,216.35 81.37,216.87C81.66,217.35 81.96,217.82 82.27,218.25C82.56,218.65 82.86,219.03 83.18,219.35C83.47,219.64 83.77,219.91 84.08,220.12C84.37,220.31 84.68,220.48 84.99,220.57C85.28,220.66 85.59,220.69 85.89,220.68C86.19,220.67 86.49,220.59 86.79,220.5C87.1,220.4 87.4,220.25 87.7,220.1C88.01,219.94 88.3,219.75 88.6,219.56C88.9,219.37 89.21,219.16 89.51,218.96C89.81,218.76 90.11,218.56 90.41,218.38C90.71,218.2 91.01,218.03 91.32,217.88C91.62,217.74 91.92,217.6 92.22,217.5C92.52,217.4 92.82,217.32 93.12,217.27C93.42,217.22 93.73,217.2 94.03,217.21C94.33,217.22 94.63,217.24 94.93,217.3C95.24,217.36 95.54,217.46 95.84,217.57C96.14,217.68 96.45,217.82 96.74,217.98C97.05,218.14 97.34,218.33 97.64,218.54C97.95,218.75 98.25,218.99 98.55,219.24C98.86,219.5 99.15,219.77 99.45,220.06C99.76,220.36 100.06,220.67 100.36,220.99C100.67,221.32 100.96,221.67 101.26,222.02C101.56,222.38 101.86,222.75 102.16,223.12C102.46,223.5 102.77,223.88 103.07,224.27C103.37,224.66 103.67,225.05 103.97,225.44C104.27,225.83 104.58,226.23 104.88,226.61C105.18,226.99 105.48,227.37 105.78,227.73C106.08,228.09 106.37,228.44 106.68,228.78C106.98,229.11 107.28,229.42 107.59,229.72C107.89,230.01 108.18,230.28 108.49,230.53C108.79,230.77 109.09,230.99 109.4,231.17C109.69,231.34 109.99,231.49 110.3,231.6C110.6,231.7 110.91,231.78 111.21,231.8C111.51,231.82 111.82,231.8 112.11,231.73C112.42,231.66 112.72,231.52 113.01,231.35C113.33,231.16 113.63,230.92 113.92,230.64C114.24,230.34 114.53,229.97 114.82,229.59C115.14,229.17 115.44,228.7 115.73,228.2C116.04,227.66 116.34,227.08 116.63,226.47C116.94,225.82 117.24,225.13 117.53,224.41C117.84,223.65 118.15,222.85 118.44,222.03C118.75,221.16 119.05,220.26 119.34,219.34C119.65,218.37 119.95,217.37 120.25,216.36C120.56,215.31 120.85,214.24 121.15,213.15C121.45,212.03 121.75,210.89 122.05,209.74C122.35,208.57 122.66,207.39 122.96,206.21C123.26,205.01 123.56,203.81 123.86,202.6C124.16,201.39 124.47,200.17 124.77,198.96C125.07,197.75 125.37,196.54 125.67,195.33C125.97,194.13 126.28,192.93 126.58,191.73C126.88,190.54 127.18,189.35 127.48,188.17C127.78,187 128.08,185.84 128.38,184.69C128.68,183.56 128.98,182.44 129.29,181.34C129.59,180.27 129.88,179.21 130.19,178.18C130.49,177.19 130.79,176.2 131.1,175.26C131.39,174.36 131.69,173.48 132,172.65C132.29,171.87 132.58,171.11 132.9,170.41C133.19,169.76 133.49,169.13 133.81,168.57C134.1,168.06 134.39,167.57 134.71,167.17C135,166.81 135.3,166.48 135.62,166.25C135.9,166.05 136.21,165.88 136.52,165.82C136.81,165.77 137.13,165.79 137.42,165.89C137.74,166 138.05,166.23 138.33,166.49C138.66,166.78 138.95,167.18 139.23,167.6C139.55,168.08 139.85,168.64 140.14,169.23C140.46,169.88 140.75,170.6 141.04,171.34C141.36,172.15 141.66,173.03 141.95,173.93C142.26,174.89 142.56,175.91 142.85,176.95C143.16,178.05 143.45,179.2 143.75,180.37C144.06,181.59 144.36,182.85 144.66,184.12C144.97,185.44 145.26,186.79 145.56,188.14C145.86,189.52 146.17,190.93 146.47,192.33C146.77,193.73 147.07,195.15 147.37,196.54C147.67,197.9 147.96,199.25 148.27,200.56C148.57,201.82 148.87,203.05 149.18,204.25C149.47,205.39 149.77,206.51 150.08,207.57C150.37,208.55 150.67,209.53 150.99,210.4C151.28,211.17 151.56,211.94 151.89,212.56C152.17,213.07 152.44,213.58 152.79,213.88C153.06,214.12 153.4,214.31 153.7,214.32C154,214.33 154.32,214.15 154.6,213.95C154.93,213.72 155.22,213.33 155.51,212.96C155.83,212.55 156.12,212.05 156.41,211.56C156.72,211.04 157.02,210.46 157.32,209.9C157.63,209.32 157.92,208.72 158.22,208.13C158.52,207.54 158.82,206.95 159.12,206.37C159.42,205.8 159.72,205.24 160.03,204.7C160.33,204.18 160.62,203.67 160.93,203.2C161.22,202.76 161.53,202.33 161.84,201.94C162.13,201.58 162.43,201.24 162.74,200.95C163.03,200.69 163.33,200.45 163.64,200.28C163.93,200.12 164.24,199.99 164.55,199.94C164.85,199.89 165.15,199.9 165.45,199.96C165.76,200.03 166.07,200.16 166.36,200.34C166.68,200.53 166.97,200.81 167.26,201.1C167.58,201.43 167.87,201.82 168.16,202.23C168.48,202.68 168.78,203.19 169.07,203.72C169.38,204.29 169.68,204.91 169.97,205.54C170.28,206.2 170.58,206.91 170.88,207.61C171.18,208.32 171.46,209.11 171.78,209.78C172.07,210.39 172.37,210.95 172.68,211.48C172.97,211.98 173.3,212.39 173.59,212.88C173.9,213.4 174.19,213.96 174.49,214.51C174.8,215.08 175.11,215.65 175.4,216.26C175.71,216.9 176.01,217.56 176.3,218.26C176.61,219.01 176.92,219.81 177.21,220.63C177.52,221.51 177.82,222.43 178.11,223.38C178.42,224.38 178.72,225.42 179.01,226.48C179.32,227.59 179.62,228.74 179.92,229.9C180.23,231.11 180.52,232.35 180.82,233.6C181.13,234.88 181.43,236.19 181.73,237.51C182.03,238.85 182.33,240.22 182.63,241.59C182.93,242.97 183.23,244.37 183.53,245.76C183.83,247.16 184.14,248.56 184.44,249.96C184.74,251.35 185.04,252.75 185.34,254.13C185.64,255.5 185.94,256.86 186.25,258.2C186.55,259.5 186.84,260.81 187.15,262.06C187.44,263.25 187.73,264.44 188.05,265.54C188.34,266.55 188.64,267.55 188.96,268.43C189.24,269.2 189.53,269.95 189.86,270.57C190.14,271.09 190.43,271.58 190.77,271.93C191.05,272.21 191.35,272.46 191.67,272.56C191.96,272.65 192.29,272.64 192.58,272.57C192.89,272.49 193.19,272.29 193.48,272.09C193.79,271.87 194.09,271.56 194.38,271.26C194.69,270.94 194.99,270.59 195.29,270.23C195.6,269.87 195.89,269.48 196.19,269.1C196.49,268.73 196.79,268.34 197.1,267.98C197.4,267.63 197.69,267.28 198,266.97C198.29,266.68 198.59,266.39 198.9,266.16C199.19,265.95 199.5,265.75 199.81,265.63C200.1,265.52 200.41,265.44 200.71,265.43C201.01,265.42 201.32,265.49 201.62,265.59C201.93,265.69 202.23,265.87 202.52,266.05C202.83,266.24 203.13,266.47 203.42,266.72C203.73,266.98 204.04,267.26 204.33,267.58C204.64,267.92 204.94,268.29 205.23,268.7C205.55,269.14 205.85,269.63 206.14,270.14C206.45,270.69 206.75,271.29 207.04,271.91C207.35,272.58 207.66,273.29 207.95,274.02C208.26,274.8 208.55,275.62 208.85,276.44C209.15,277.28 209.45,278.16 209.75,279.02C210.05,279.87 210.36,280.72 210.66,281.57C210.96,282.42 211.26,283.28 211.56,284.14C211.86,285.02 212.17,285.91 212.47,286.8C212.77,287.68 213.07,288.58 213.37,289.45C213.67,290.29 213.96,291.15 214.27,291.93C214.56,292.65 214.85,293.39 215.18,293.99C215.46,294.5 215.73,295.04 216.08,295.35C216.35,295.59 216.69,295.82 216.99,295.81C217.29,295.8 217.62,295.57 217.89,295.31C218.24,294.98 218.51,294.43 218.79,293.89C219.12,293.25 219.41,292.47 219.7,291.67C220.02,290.77 220.31,289.77 220.6,288.74C220.92,287.61 221.22,286.39 221.51,285.16C221.82,283.85 222.11,282.49 222.41,281.11C222.72,279.69 223.02,278.22 223.32,276.76C223.62,275.29 223.92,273.8 224.22,272.33C224.52,270.89 224.81,269.44 225.12,268.03C225.42,266.65 225.72,265.28 226.03,263.95C226.33,262.67 226.62,261.41 226.93,260.19C227.22,259.03 227.53,257.89 227.84,256.8C228.13,255.77 228.43,254.76 228.74,253.8C229.03,252.9 229.33,252.02 229.64,251.19C229.93,250.41 230.24,249.68 230.55,248.96C230.84,248.28 231.14,247.62 231.45,247C231.74,246.41 232.04,245.84 232.36,245.32C232.65,244.85 232.94,244.39 233.26,244.01C233.54,243.68 233.84,243.36 234.16,243.15C234.45,242.96 234.76,242.81 235.07,242.77C235.37,242.73 235.68,242.78 235.97,242.89C236.29,243.01 236.59,243.24 236.88,243.49C237.2,243.77 237.49,244.15 237.78,244.54C238.1,244.97 238.39,245.47 238.68,245.98C238.99,246.53 239.29,247.14 239.59,247.75C239.9,248.38 240.18,249.09 240.49,249.71C240.78,250.29 241.08,250.85 241.4,251.36C241.69,251.83 241.99,252.26 242.3,252.66C242.59,253.04 242.89,253.42 243.21,253.72C243.5,253.99 243.8,254.22 244.11,254.39C244.4,254.54 244.71,254.68 245.01,254.71C245.31,254.74 245.64,254.73 245.92,254.6C246.25,254.45 246.56,254.15 246.82,253.76C247.2,253.19 247.45,252.25 247.73,251.36C248.07,250.28 248.34,248.98 248.63,247.71C248.94,246.32 249.24,244.83 249.53,243.34C249.84,241.78 250.14,240.15 250.44,238.53C250.75,236.87 251.04,235.16 251.34,233.47C251.64,231.76 251.95,230.04 252.25,228.33C252.55,226.62 252.85,224.91 253.15,223.22C253.45,221.56 253.74,219.9 254.05,218.27C254.35,216.67 254.65,215.09 254.96,213.54C255.26,212.04 255.55,210.55 255.86,209.11C256.16,207.72 256.46,206.36 256.77,205.03C257.07,203.76 257.36,202.52 257.67,201.32C257.96,200.19 258.27,199.08 258.58,198.02C258.87,197.02 259.17,196.04 259.48,195.11C259.77,194.24 260.07,193.4 260.38,192.61C260.67,191.88 260.97,191.17 261.29,190.52C261.58,189.93 261.87,189.36 262.19,188.87C262.48,188.43 262.77,188.01 263.1,187.68C263.38,187.4 263.68,187.13 264,186.99C264.29,186.86 264.6,186.79 264.9,186.82C265.21,186.85 265.52,187 265.81,187.18C266.13,187.39 266.43,187.71 266.71,188.05C267.03,188.44 267.33,188.91 267.62,189.4C267.94,189.94 268.23,190.54 268.52,191.16C268.83,191.82 269.12,192.54 269.42,193.25C269.73,193.99 270.03,194.77 270.33,195.54C270.63,196.31 270.92,197.1 271.23,197.86C271.53,198.6 271.83,199.34 272.14,200.06C272.44,200.75 272.73,201.42 273.04,202.08C273.34,202.72 273.65,203.35 273.95,203.97C274.25,204.58 274.55,205.19 274.85,205.78C275.15,206.36 275.44,206.94 275.75,207.49C276.05,208.02 276.35,208.55 276.66,209.04C276.95,209.5 277.24,209.96 277.56,210.35C277.85,210.71 278.15,211.06 278.47,211.3C278.75,211.51 279.06,211.72 279.37,211.75C279.66,211.78 280,211.7 280.27,211.52C280.62,211.29 280.91,210.83 281.18,210.35C281.54,209.71 281.81,208.86 282.08,207.94C282.43,206.77 282.71,205.33 282.99,203.88C283.31,202.23 283.6,200.41 283.89,198.58C284.2,196.63 284.49,194.6 284.79,192.54C285.1,190.38 285.4,188.16 285.7,185.92C286.01,183.6 286.3,181.23 286.6,178.84C286.91,176.4 287.21,173.91 287.51,171.42C287.81,168.89 288.11,166.32 288.41,163.76C288.71,161.17 289.02,158.57 289.32,155.97C289.62,153.37 289.92,150.76 290.22,148.17C290.52,145.59 290.82,143.01 291.12,140.46C291.42,137.94 291.73,135.42 292.03,132.94C292.33,130.5 292.62,128.08 292.93,125.69C293.23,123.36 293.53,121.06 293.84,118.8C294.14,116.61 294.43,114.46 294.74,112.35C295.03,110.32 295.33,108.33 295.64,106.39C295.93,104.54 296.24,102.73 296.55,100.99C296.84,99.35 297.14,97.74 297.45,96.21C297.74,94.78 298.04,93.39 298.36,92.08C298.65,90.88 298.94,89.72 299.26,88.65C299.55,87.69 299.83,86.77 300.16,85.95C300.44,85.24 300.73,84.56 301.07,84.01C301.35,83.55 301.63,83.1 301.97,82.84C302.25,82.63 302.58,82.45 302.88,82.46C303.18,82.47 303.51,82.66 303.78,82.88C304.12,83.15 304.4,83.61 304.68,84.08C305.02,84.64 305.31,85.34 305.59,86.06C305.92,86.89 306.2,87.83 306.49,88.8C306.81,89.89 307.11,91.06 307.4,92.28C307.72,93.6 308.01,95.01 308.3,96.45C308.61,98 308.92,99.63 309.21,101.29C309.52,103.05 309.82,104.87 310.11,106.73C310.42,108.68 310.71,110.7 311.01,112.74C311.32,114.87 311.62,117.04 311.92,119.25C312.23,121.53 312.52,123.85 312.82,126.19C313.13,128.6 313.43,131.04 313.73,133.51C314.03,136.03 314.33,138.58 314.63,141.14C314.93,143.75 315.23,146.38 315.53,149.02C315.83,151.7 316.14,154.39 316.44,157.1C316.74,159.83 317.04,162.57 317.34,165.32C317.64,168.08 317.95,170.86 318.25,173.64C318.55,176.43 318.85,179.23 319.15,182.03C319.45,184.83 319.75,187.64 320.05,190.44C320.35,193.24 320.66,196.05 320.96,198.85C321.26,201.65 321.56,204.44 321.86,207.23C322.16,210 322.47,212.77 322.77,215.53C323.07,218.27 323.37,221 323.67,223.72C323.97,226.41 324.28,229.09 324.58,231.74C324.88,234.35 325.18,236.95 325.48,239.51C325.78,242.01 326.07,244.51 326.38,246.93C326.68,249.26 326.98,251.58 327.29,253.79C327.58,255.87 327.88,257.91 328.19,259.85C328.48,261.64 328.78,263.39 329.1,265.01C329.39,266.46 329.65,267.96 330,269.13C330.27,270.04 330.55,270.84 330.9,271.49C331.17,272.01 331.46,272.51 331.81,272.79C332.08,273.01 332.4,273.11 332.71,273.15C333.01,273.19 333.32,273.08 333.62,273.03C333.92,272.98 334.22,272.89 334.52,272.85C334.82,272.81 335.12,272.79 335.42,272.81C335.72,272.83 336.03,272.88 336.33,272.96C336.63,273.04 336.93,273.18 337.23,273.29C337.53,273.4 337.84,273.53 338.14,273.64C338.44,273.75 338.74,273.84 339.04,273.97C339.35,274.11 339.65,274.26 339.95,274.45C340.26,274.64 340.56,274.87 340.85,275.12C341.16,275.38 341.46,275.67 341.75,275.98C342.06,276.3 342.36,276.66 342.66,277.02C342.97,277.4 343.26,277.8 343.56,278.21C343.87,278.64 344.17,279.08 344.47,279.54C344.78,280.01 345.07,280.5 345.37,281C345.67,281.51 345.97,282.04 346.27,282.56C346.57,283.09 346.88,283.63 347.18,284.15C347.48,284.67 347.77,285.19 348.08,285.68C348.38,286.15 348.68,286.59 348.99,287.02C349.28,287.43 349.59,287.8 349.89,288.18C350.19,288.55 350.49,288.9 350.79,289.26C351.09,289.62 351.4,289.97 351.7,290.33C352,290.69 352.29,291.06 352.6,291.41C352.9,291.75 353.2,292.1 353.51,292.4C353.8,292.68 354.1,292.94 354.41,293.16C354.7,293.37 355.01,293.56 355.32,293.69C355.61,293.82 355.92,293.91 356.22,293.95C356.52,293.99 356.82,293.98 357.12,293.93C357.43,293.88 357.73,293.78 358.03,293.66C358.34,293.54 358.63,293.36 358.93,293.19C359.23,293.02 359.54,292.84 359.84,292.65C360.14,292.46 360.47,292.34 360.74,292.07C361.08,291.74 361.36,291.21 361.64,290.71C361.96,290.14 362.26,289.49 362.55,288.81C362.87,288.06 363.15,287.21 363.45,286.4C363.75,285.59 364.06,284.78 364.36,283.96C364.66,283.14 364.96,282.32 365.26,281.5C365.56,280.67 365.86,279.83 366.16,278.99C366.46,278.14 366.77,277.28 367.07,276.42C367.37,275.55 367.67,274.68 367.97,273.79C368.27,272.89 368.58,271.98 368.88,271.05C369.19,270.1 369.48,269.15 369.78,268.17C370.08,267.16 370.38,266.14 370.68,265.09C370.99,264 371.29,262.89 371.59,261.76C371.9,260.58 372.19,259.37 372.49,258.14C372.8,256.86 373.1,255.55 373.4,254.22C373.71,252.84 374,251.43 374.3,249.99C374.61,248.49 374.91,246.97 375.21,245.41C375.52,243.8 375.81,242.15 376.11,240.49C376.41,238.79 376.71,237.06 377.01,235.32C377.31,233.56 377.62,231.78 377.92,230C378.22,228.22 378.52,226.43 378.82,224.66C379.12,222.9 379.43,221.13 379.73,219.39C380.03,217.67 380.33,215.96 380.63,214.28C380.93,212.63 381.22,210.99 381.53,209.38C381.83,207.82 382.13,206.28 382.44,204.77C382.74,203.31 383.03,201.87 383.34,200.47C383.64,199.13 383.94,197.82 384.25,196.55C384.54,195.34 384.84,194.16 385.15,193.03C385.44,191.97 385.74,190.94 386.05,189.96C386.34,189.05 386.64,188.18 386.96,187.36C387.25,186.61 387.54,185.9 387.86,185.25C388.15,184.67 388.44,184.12 388.77,183.65C389.05,183.24 389.34,182.85 389.67,182.58C389.95,182.34 390.27,182.13 390.58,182.05C390.87,181.97 391.19,181.98 391.48,182.06C391.79,182.15 392.1,182.37 392.38,182.61C392.71,182.89 393.01,183.29 393.29,183.7C393.61,184.17 393.9,184.74 394.19,185.32C394.51,185.97 394.81,186.69 395.1,187.44C395.42,188.26 395.71,189.15 396,190.07C396.31,191.06 396.61,192.09 396.9,193.16C397.21,194.3 397.52,195.49 397.81,196.7C398.12,197.98 398.41,199.3 398.71,200.65C399.02,202.06 399.32,203.5 399.62,204.97C399.93,206.49 400.22,208.05 400.52,209.62C400.82,211.24 401.12,212.89 401.42,214.55C401.73,216.25 402.03,217.97 402.33,219.71C402.63,221.48 402.93,223.27 403.23,225.06C403.53,226.87 403.84,228.69 404.14,230.52C404.44,232.36 404.74,234.21 405.04,236.06C405.34,237.91 405.65,239.77 405.95,241.62C406.25,243.47 406.55,245.32 406.85,247.16C407.15,248.99 407.45,250.81 407.75,252.62C408.05,254.41 408.36,256.2 408.66,257.97C408.96,259.71 409.26,261.45 409.56,263.16C409.86,264.84 410.16,266.51 410.47,268.15C410.77,269.75 411.06,271.33 411.37,272.87C411.66,274.35 411.96,275.84 412.27,277.23C412.56,278.51 412.83,279.87 413.18,280.91C413.45,281.72 413.75,282.38 414.08,283.01C414.36,283.55 414.66,284.05 414.99,284.47C415.27,284.83 415.56,285.24 415.89,285.39C416.17,285.52 416.49,285.5 416.79,285.46C417.1,285.42 417.41,285.29 417.7,285.15C418.01,285 418.31,284.8 418.6,284.56C418.92,284.3 419.22,283.97 419.51,283.61C419.83,283.21 420.11,282.73 420.41,282.27C420.72,281.79 421.02,281.27 421.32,280.77C421.62,280.28 421.91,279.77 422.22,279.3C422.51,278.84 422.81,278.39 423.12,277.97C423.41,277.58 423.72,277.2 424.03,276.86C424.32,276.54 424.62,276.24 424.93,275.99C425.22,275.76 425.53,275.55 425.84,275.39C426.13,275.24 426.44,275.12 426.74,275.05C427.04,274.98 427.34,274.96 427.64,274.97C427.94,274.98 428.25,275.04 428.55,275.13C428.86,275.22 429.15,275.35 429.45,275.5C429.76,275.65 430.06,275.85 430.36,276.04C430.66,276.24 430.96,276.46 431.26,276.68C431.56,276.91 431.86,277.15 432.16,277.39C432.46,277.63 432.77,277.88 433.07,278.11C433.37,278.34 433.67,278.57 433.97,278.79C434.27,279.01 434.58,279.22 434.88,279.42C435.18,279.62 435.48,279.8 435.78,279.98C436.08,280.16 436.38,280.32 436.68,280.48C436.98,280.64 437.29,280.8 437.59,280.96C437.89,281.12 438.19,281.28 438.49,281.44C438.79,281.61 439.1,281.77 439.4,281.95C439.7,282.13 440,282.31 440.3,282.51C440.6,282.71 440.91,282.92 441.21,283.14C441.51,283.36 441.81,283.6 442.11,283.84C442.41,284.09 442.71,284.34 443.01,284.6C443.32,284.87 443.62,285.15 443.92,285.43C444.22,285.71 444.52,286 444.82,286.28C445.12,286.56 445.42,286.86 445.73,287.13C446.03,287.39 446.32,287.66 446.63,287.89C446.92,288.11 447.22,288.31 447.53,288.49C447.83,288.66 448.14,288.8 448.44,288.95C448.74,289.1 449.04,289.22 449.34,289.37C449.64,289.52 449.95,289.67 450.25,289.84C450.55,290.01 450.85,290.19 451.15,290.39C451.45,290.59 451.75,290.82 452.05,291.05C452.36,291.29 452.66,291.54 452.96,291.81C453.27,292.09 453.56,292.38 453.86,292.69C454.17,293.01 454.47,293.34 454.77,293.68C455.08,294.03 455.37,294.4 455.67,294.77C455.98,295.16 456.28,295.55 456.58,295.96C456.89,296.38 457.18,296.81 457.48,297.25C457.78,297.7 458.08,298.15 458.38,298.61C458.68,299.07 458.99,299.55 459.29,300.02C459.59,300.49 459.89,300.98 460.19,301.45C460.49,301.91 460.79,302.39 461.1,302.82Q461.39,303.23 462,304" style="vector-effect: non-scaling-stroke; fill: none; stroke: rgb(231, 107, 243); stroke-opacity: 1; stroke-width: 2px; opacity: 1;"/></g><g class="points"/><g class="text"/></g></g></g><g class="overplot"/><path class="xlines-above crisp" d="M0,0" style="fill: none;"/><path class="ylines-above crisp" d="M0,0" style="fill: none;"/><g class="overlines-above"/><g class="xaxislayer-above"><g class="xtick"><text text-anchor="middle" x="0" y="433" transform="translate(80,0)" style="font-family: 'Open Sans', verdana, arial, sans-serif; font-size: 12px; fill: rgb(42, 63, 95); fill-opacity: 1; white-space: pre;">0</text></g><g class="xtick"><text text-anchor="middle" x="0" y="433" transform="translate(170.23000000000002,0)" style="font-family: 'Open Sans', verdana, arial, sans-serif; font-size: 12px; fill: rgb(42, 63, 95); fill-opacity: 1; white-space: pre;">100</text></g><g class="xtick"><text text-anchor="middle" x="0" y="433" transform="translate(260.47,0)" style="font-family: 'Open Sans', verdana, arial, sans-serif; font-size: 12px; fill: rgb(42, 63, 95); fill-opacity: 1; white-space: pre;">200</text></g><g class="xtick"><text text-anchor="middle" x="0" y="433" transform="translate(350.7,0)" style="font-family: 'Open Sans', verdana, arial, sans-serif; font-size: 12px; fill: rgb(42, 63, 95); fill-opacity: 1; white-space: pre;">300</text></g><g class="xtick"><text text-anchor="middle" x="0" y="433" transform="translate(440.94,0)" style="font-family: 'Open Sans', verdana, arial, sans-serif; font-size: 12px; fill: rgb(42, 63, 95); fill-opacity: 1; white-space: pre;">400</text></g><g class="xtick"><text text-anchor="middle" x="0" y="433" transform="translate(531.1700000000001,0)" style="font-family: 'Open Sans', verdana, arial, sans-serif; font-size: 12px; fill: rgb(42, 63, 95); fill-opacity: 1; white-space: pre;">500</text></g></g><g class="yaxislayer-above"><g class="ytick"><text text-anchor="end" x="79" y="4.199999999999999" transform="translate(0,379.41)" style="font-family: 'Open Sans', verdana, arial, sans-serif; font-size: 12px; fill: rgb(42, 63, 95); fill-opacity: 1; white-space: pre;">50</text></g><g class="ytick"><text text-anchor="end" x="79" y="4.199999999999999" transform="translate(0,315.12)" style="font-family: 'Open Sans', verdana, arial, sans-serif; font-size: 12px; fill: rgb(42, 63, 95); fill-opacity: 1; white-space: pre;">100</text></g><g class="ytick"><text text-anchor="end" x="79" y="4.199999999999999" transform="translate(0,250.82)" style="font-family: 'Open Sans', verdana, arial, sans-serif; font-size: 12px; fill: rgb(42, 63, 95); fill-opacity: 1; white-space: pre;">150</text></g><g class="ytick"><text text-anchor="end" x="79" y="4.199999999999999" transform="translate(0,186.51999999999998)" style="font-family: 'Open Sans', verdana, arial, sans-serif; font-size: 12px; fill: rgb(42, 63, 95); fill-opacity: 1; white-space: pre;">200</text></g><g class="ytick"><text text-anchor="end" x="79" y="4.199999999999999" transform="translate(0,122.23)" style="font-family: 'Open Sans', verdana, arial, sans-serif; font-size: 12px; fill: rgb(42, 63, 95); fill-opacity: 1; white-space: pre;">250</text></g></g><g class="overaxes-above"/></g></g><g class="polarlayer"/><g class="ternarylayer"/><g class="geolayer"/><g class="funnelarealayer"/><g class="pielayer"/><g class="treemaplayer"/><g class="sunburstlayer"/><g class="glimages"/><defs id="topdefs-684361"><g class="clips"/><clipPath id="legend684361"><rect width="137" height="67" x="0" y="0"/></clipPath></defs><g class="layer-above"><g class="imagelayer"/><g class="shapelayer"/></g><g class="infolayer"><g class="legend" pointer-events="all" transform="translate(551.24, 100)"><rect class="bg" shape-rendering="crispEdges" width="137" height="67" x="0" y="0" style="stroke: rgb(68, 68, 68); stroke-opacity: 1; fill: rgb(255, 255, 255); fill-opacity: 1; stroke-width: 0px;"/><g class="scrollbox" transform="translate(0, 0)" clip-path="url('#legend684361')"><g class="groups"><g class="traces" transform="translate(0, 14.5)" style="opacity: 1;"><text class="legendtext" text-anchor="start" x="40" y="4.680000000000001" style="font-family: 'Open Sans', verdana, arial, sans-serif; font-size: 12px; fill: rgb(42, 63, 95); fill-opacity: 1; white-space: pre;">Average Class I</text><g class="layers" style="opacity: 1;"><g class="legendfill"/><g class="legendlines"><path class="js-line" d="M5,0h30" style="fill: none; stroke: rgb(0, 100, 80); stroke-opacity: 1; stroke-width: 2px;"/></g><g class="legendsymbols"><g class="legendpoints"/></g></g><rect class="legendtoggle" x="0" y="-9.5" width="131.15625" height="19" style="fill: rgb(0, 0, 0); fill-opacity: 0;"/></g><g class="traces" transform="translate(0, 33.5)" style="opacity: 1;"><text class="legendtext" text-anchor="start" x="40" y="4.680000000000001" style="font-family: 'Open Sans', verdana, arial, sans-serif; font-size: 12px; fill: rgb(42, 63, 95); fill-opacity: 1; white-space: pre;">Average Class II</text><g class="layers" style="opacity: 1;"><g class="legendfill"/><g class="legendlines"><path class="js-line" d="M5,0h30" style="fill: none; stroke: rgb(0, 176, 246); stroke-opacity: 1; stroke-width: 2px;"/></g><g class="legendsymbols"><g class="legendpoints"/></g></g><rect class="legendtoggle" x="0" y="-9.5" width="131.15625" height="19" style="fill: rgb(0, 0, 0); fill-opacity: 0;"/></g><g class="traces" transform="translate(0, 52.5)" style="opacity: 1;"><text class="legendtext" text-anchor="start" x="40" y="4.680000000000001" style="font-family: 'Open Sans', verdana, arial, sans-serif; font-size: 12px; fill: rgb(42, 63, 95); fill-opacity: 1; white-space: pre;">Average Class III</text><g class="layers" style="opacity: 1;"><g class="legendfill"/><g class="legendlines"><path class="js-line" d="M5,0h30" style="fill: none; stroke: rgb(231, 107, 243); stroke-opacity: 1; stroke-width: 2px;"/></g><g class="legendsymbols"><g class="legendpoints"/></g></g><rect class="legendtoggle" x="0" y="-9.5" width="131.15625" height="19" style="fill: rgb(0, 0, 0); fill-opacity: 0;"/></g></g></g><rect class="scrollbar" rx="20" ry="3" width="0" height="0" x="0" y="0" style="fill: rgb(128, 139, 164); fill-opacity: 1;"/></g><g class="g-gtitle"><text class="gtitle" x="35" y="50" text-anchor="start" dy="0em" style="font-family: 'Open Sans', verdana, arial, sans-serif; font-size: 17px; fill: rgb(42, 63, 95); opacity: 1; font-weight: normal; white-space: pre;">Average curve: hydrophobicity_group</text></g><g class="g-xtitle"><text class="xtitle" x="311" y="460.8" text-anchor="middle" style="font-family: 'Open Sans', verdana, arial, sans-serif; font-size: 14px; fill: rgb(42, 63, 95); opacity: 1; font-weight: normal; white-space: pre;">Domain</text></g><g class="g-ytitle"><text class="ytitle" transform="rotate(-90,34.16875,260)" x="34.16875" y="260" text-anchor="middle" style="font-family: 'Open Sans', verdana, arial, sans-serif; font-size: 14px; fill: rgb(42, 63, 95); opacity: 1; font-weight: normal; white-space: pre;">Frequency</text></g></g></svg>