<svg class="main-svg" xmlns="http://www.w3.org/2000/svg" xmlns:xlink="http://www.w3.org/1999/xlink" width="700" height="500" style="" viewBox="0 0 700 500"><rect x="0" y="0" width="700" height="500" style="fill: rgb(255, 255, 255); fill-opacity: 1;"/><defs id="defs-c1c5f1"><g class="clips"><clipPath id="clipc1c5f1xyplot" class="plotclip"><rect width="462" height="320"/></clipPath><clipPath class="axesclip" id="clipc1c5f1x"><rect x="80" y="0" width="462" height="500"/></clipPath><clipPath class="axesclip" id="clipc1c5f1y"><rect x="0" y="100" width="700" height="320"/></clipPath><clipPath class="axesclip" id="clipc1c5f1xy"><rect x="80" y="100" width="462" height="320"/></clipPath></g><g class="gradients"/></defs><g class="bglayer"><rect class="bg" x="80" y="100" width="462" height="320" style="fill: rgb(229, 236, 246); fill-opacity: 1; stroke-width: 0;"/></g><g class="layer-below"><g class="imagelayer"/><g class="shapelayer"/></g><g class="cartesianlayer"><g class="subplot xy"><g class="layer-subplot"><g class="shapelayer"/><g class="imagelayer"/></g><g class="gridlayer"><g class="x"><path class="xgrid crisp" transform="translate(170.23000000000002,0)" d="M0,100v320" style="stroke: rgb(255, 255, 255); stroke-opacity: 1; stroke-width: 1px;"/><path class="xgrid crisp" transform="translate(260.47,0)" d="M0,100v320" style="stroke: rgb(255, 255, 255); stroke-opacity: 1; stroke-width: 1px;"/><path class="xgrid crisp" transform="translate(350.7,0)" d="M0,100v320" style="stroke: rgb(255, 255, 255); stroke-opacity: 1; stroke-width: 1px;"/><path class="xgrid crisp" transform="translate(440.94,0)" d="M0,100v320" style="stroke: rgb(255, 255, 255); stroke-opacity: 1; stroke-width: 1px;"/><path class="xgrid crisp" transform="translate(531.1700000000001,0)" d="M0,100v320" style="stroke: rgb(255, 255, 255); stroke-opacity: 1; stroke-width: 1px;"/></g><g class="y"><path class="ygrid crisp" transform="translate(0,390.57)" d="M80,0h462" style="stroke: rgb(255, 255, 255); stroke-opacity: 1; stroke-width: 1px;"/><path class="ygrid crisp" transform="translate(0,346.99)" d="M80,0h462" style="stroke: rgb(255, 255, 255); stroke-opacity: 1; stroke-width: 1px;"/><path class="ygrid crisp" transform="translate(0,303.40999999999997)" d="M80,0h462" style="stroke: rgb(255, 255, 255); stroke-opacity: 1; stroke-width: 1px;"/><path class="ygrid crisp" transform="translate(0,259.83000000000004)" d="M80,0h462" style="stroke: rgb(255, 255, 255); stroke-opacity: 1; stroke-width: 1px;"/><path class="ygrid crisp" transform="translate(0,216.26)" d="M80,0h462" style="stroke: rgb(255, 255, 255); stroke-opacity: 1; stroke-width: 1px;"/><path class="ygrid crisp" transform="translate(0,172.68)" d="M80,0h462" style="stroke: rgb(255, 255, 255); stroke-opacity: 1; stroke-width: 1px;"/><path class="ygrid crisp" transform="translate(0,129.1)" d="M80,0h462" style="stroke: rgb(255, 255, 255); stroke-opacity: 1; stroke-width: 1px;"/></g></g><g class="zerolinelayer"><path class="xzl zl crisp" transform="translate(80,0)" d="M0,100v320" style="stroke: rgb(255, 255, 255); stroke-opacity: 1; stroke-width: 2px;"/></g><path class="xlines-below"/><path class="ylines-below"/><g class="overlines-below"/><g class="xaxislayer-below"/><g class="yaxislayer-below"/><g class="overaxes-below"/><g class="plot" transform="translate(80, 100)" clip-path="url('#clipc1c5f1xyplot')"><g class="scatterlayer mlayer"><g class="trace scatter trace330f3c" style="stroke-miterlimit: 2; opacity: 1;"><g class="fills"/><g class="errorbars"/><g class="lines"><path class="js-line" d="M0,271.55Q0.64,269.62 0.9,268.29C1.3,266.27 1.53,263.31 1.81,260.55C2.14,257.38 2.42,253.85 2.71,250.33C3.02,246.57 3.32,242.62 3.62,238.68C3.93,234.61 4.22,230.44 4.52,226.28C4.82,222.08 5.12,217.82 5.42,213.6C5.72,209.39 6.03,205.17 6.33,201C6.63,196.89 6.92,192.8 7.23,188.77C7.53,184.84 7.83,180.93 8.14,177.12C8.44,173.44 8.73,169.8 9.04,166.26C9.34,162.87 9.64,159.54 9.95,156.32C10.24,153.28 10.54,150.3 10.85,147.45C11.14,144.79 11.43,142.2 11.75,139.74C12.04,137.49 12.34,135.3 12.66,133.27C12.95,131.45 13.23,129.7 13.56,128.11C13.84,126.74 14.13,125.42 14.47,124.29C14.75,123.37 15.01,122.46 15.37,121.82C15.64,121.35 15.93,120.83 16.27,120.72C16.55,120.63 16.91,120.75 17.18,120.95C17.55,121.22 17.81,121.87 18.08,122.47C18.43,123.23 18.71,124.21 18.99,125.21C19.32,126.38 19.6,127.71 19.89,129.08C20.21,130.6 20.5,132.25 20.79,133.94C21.1,135.77 21.41,137.7 21.7,139.66C22.01,141.72 22.3,143.87 22.6,146.03C22.91,148.26 23.21,150.54 23.51,152.82C23.81,155.12 24.11,157.46 24.41,159.76C24.71,162.05 25.01,164.35 25.32,166.6C25.62,168.78 25.91,170.97 26.22,173.06C26.51,175.04 26.8,177 27.12,178.82C27.41,180.48 27.7,182.11 28.03,183.55C28.31,184.78 28.57,185.99 28.93,186.93C29.2,187.65 29.45,188.44 29.84,188.75C30.1,188.96 30.47,189.07 30.74,188.97C31.09,188.85 31.37,188.25 31.64,187.76C31.99,187.12 32.27,186.25 32.55,185.39C32.87,184.41 33.16,183.3 33.45,182.2C33.76,181.02 34.06,179.77 34.36,178.53C34.67,177.26 34.96,175.94 35.26,174.65C35.56,173.36 35.85,172.06 36.16,170.8C36.46,169.58 36.76,168.36 37.07,167.2C37.36,166.1 37.65,165.02 37.97,164.01C38.26,163.08 38.56,162.17 38.88,161.36C39.17,160.64 39.45,159.94 39.78,159.36C40.06,158.87 40.34,158.38 40.68,158.08C40.96,157.83 41.28,157.61 41.59,157.58C41.88,157.55 42.21,157.68 42.49,157.87C42.83,158.1 43.12,158.53 43.4,158.96C43.74,159.49 44.02,160.16 44.3,160.85C44.63,161.65 44.92,162.57 45.21,163.52C45.53,164.58 45.82,165.74 46.11,166.93C46.42,168.23 46.72,169.6 47.01,171.01C47.32,172.52 47.63,174.09 47.92,175.7C48.23,177.4 48.52,179.16 48.82,180.95C49.13,182.81 49.43,184.73 49.73,186.67C50.04,188.68 50.33,190.73 50.63,192.8C50.93,194.92 51.23,197.08 51.53,199.24C51.83,201.44 52.14,203.66 52.44,205.88C52.74,208.1 53.04,210.34 53.34,212.56C53.64,214.75 53.94,216.96 54.25,219.11C54.55,221.21 54.84,223.3 55.15,225.31C55.44,227.23 55.73,229.14 56.05,230.92C56.34,232.55 56.62,234.2 56.96,235.58C57.24,236.72 57.49,237.86 57.86,238.65C58.13,239.21 58.42,239.87 58.77,239.98C59.04,240.07 59.41,239.88 59.67,239.64C60.06,239.28 60.3,238.44 60.58,237.7C60.92,236.78 61.2,235.63 61.48,234.49C61.8,233.2 62.09,231.78 62.38,230.34C62.69,228.8 62.99,227.17 63.29,225.53C63.6,223.83 63.89,222.08 64.19,220.32C64.5,218.51 64.8,216.67 65.1,214.82C65.4,212.95 65.7,211.04 66,209.18C66.3,207.36 66.59,205.52 66.9,203.77C67.19,202.11 67.5,200.46 67.81,198.91C68.1,197.48 68.39,196.08 68.71,194.79C69,193.64 69.29,192.51 69.62,191.53C69.9,190.69 70.18,189.87 70.52,189.24C70.79,188.74 71.07,188.21 71.42,187.99C71.69,187.82 72.05,187.74 72.33,187.84C72.67,187.96 72.96,188.42 73.23,188.84C73.59,189.4 73.86,190.19 74.14,191C74.48,191.98 74.76,193.13 75.04,194.33C75.37,195.71 75.66,197.23 75.95,198.81C76.27,200.57 76.56,202.45 76.85,204.4C77.16,206.52 77.46,208.76 77.75,211.05C78.06,213.5 78.37,216.06 78.66,218.67C78.97,221.42 79.26,224.26 79.56,227.15C79.87,230.16 80.17,233.25 80.47,236.37C80.78,239.58 81.07,242.87 81.37,246.15C81.67,249.48 81.97,252.87 82.27,256.23C82.57,259.59 82.87,262.99 83.18,266.31C83.48,269.54 83.77,272.78 84.08,275.87C84.37,278.77 84.67,281.69 84.99,284.31C85.27,286.6 85.55,288.84 85.89,290.72C86.16,292.22 86.4,293.72 86.79,294.75C87.05,295.44 87.36,296.35 87.7,296.4C87.98,296.44 88.34,295.93 88.6,295.48C89.03,294.73 89.24,293.32 89.51,292.02C89.85,290.39 90.12,288.42 90.41,286.46C90.73,284.27 91.03,281.89 91.32,279.49C91.63,276.94 91.92,274.26 92.22,271.59C92.52,268.84 92.82,266.01 93.12,263.2C93.42,260.36 93.73,257.49 94.03,254.65C94.33,251.83 94.63,248.99 94.93,246.2C95.23,243.46 95.53,240.73 95.84,238.07C96.14,235.49 96.43,232.94 96.74,230.47C97.03,228.11 97.33,225.78 97.64,223.54C97.93,221.42 98.24,219.34 98.55,217.35C98.84,215.48 99.14,213.67 99.45,211.93C99.74,210.32 100.04,208.75 100.36,207.27C100.65,205.92 100.94,204.61 101.26,203.41C101.54,202.33 101.83,201.29 102.16,200.38C102.44,199.6 102.73,198.84 103.07,198.24C103.35,197.75 103.62,197.26 103.97,197C104.24,196.79 104.58,196.64 104.88,196.67C105.19,196.7 105.51,196.94 105.78,197.2C106.12,197.52 106.4,198.02 106.68,198.51C107.01,199.09 107.3,199.78 107.59,200.47C107.91,201.23 108.19,202.07 108.49,202.9C108.8,203.77 109.1,204.68 109.4,205.58C109.7,206.49 110,207.44 110.3,208.35C110.6,209.25 110.9,210.17 111.21,211.03C111.5,211.85 111.79,212.67 112.11,213.4C112.39,214.05 112.67,214.71 113.01,215.19C113.29,215.58 113.59,216.03 113.92,216.13C114.2,216.22 114.56,216.13 114.82,215.94C115.19,215.67 115.46,214.97 115.73,214.33C116.09,213.48 116.35,212.34 116.63,211.2C116.96,209.86 117.24,208.33 117.53,206.77C117.85,205.05 118.15,203.19 118.44,201.31C118.75,199.3 119.04,197.19 119.34,195.07C119.65,192.86 119.95,190.59 120.25,188.31C120.55,185.99 120.85,183.63 121.15,181.27C121.45,178.89 121.75,176.49 122.05,174.11C122.35,171.74 122.66,169.37 122.96,167.02C123.26,164.71 123.55,162.39 123.86,160.13C124.16,157.94 124.46,155.77 124.77,153.66C125.07,151.65 125.36,149.66 125.67,147.76C125.96,145.98 126.26,144.23 126.58,142.58C126.87,141.07 127.16,139.61 127.48,138.26C127.76,137.06 128.05,135.9 128.38,134.88C128.66,134.01 128.94,133.16 129.29,132.51C129.56,132 129.84,131.45 130.19,131.22C130.46,131.04 130.82,130.95 131.1,131.04C131.43,131.15 131.73,131.58 132,131.99C132.35,132.52 132.62,133.29 132.9,134.06C133.24,135 133.53,136.1 133.81,137.24C134.14,138.55 134.42,139.99 134.71,141.49C135.03,143.15 135.33,144.94 135.62,146.76C135.93,148.69 136.23,150.7 136.52,152.76C136.83,154.95 137.13,157.23 137.42,159.55C137.73,161.99 138.03,164.5 138.33,167.05C138.64,169.69 138.93,172.4 139.23,175.13C139.54,177.92 139.84,180.76 140.14,183.6C140.44,186.46 140.74,189.36 141.04,192.23C141.34,195.07 141.64,197.93 141.95,200.73C142.25,203.46 142.54,206.18 142.85,208.8C143.14,211.3 143.43,213.79 143.75,216.12C144.04,218.25 144.33,220.37 144.66,222.24C144.94,223.83 145.2,225.41 145.56,226.65C145.83,227.59 146.06,228.6 146.47,229.07C146.73,229.37 147.1,229.62 147.37,229.56C147.71,229.48 148,228.83 148.27,228.29C148.64,227.54 148.9,226.44 149.18,225.37C149.51,224.08 149.79,222.58 150.08,221.07C150.4,219.41 150.7,217.62 150.99,215.83C151.3,213.94 151.59,211.96 151.89,210.02C152.19,208.06 152.49,206.07 152.79,204.12C153.09,202.2 153.39,200.28 153.7,198.41C154,196.59 154.29,194.79 154.6,193.04C154.9,191.37 155.2,189.73 155.51,188.15C155.8,186.65 156.1,185.2 156.41,183.78C156.7,182.43 157.01,181.12 157.32,179.84C157.61,178.62 157.91,177.42 158.22,176.29C158.51,175.25 158.8,174.22 159.12,173.3C159.41,172.48 159.7,171.69 160.03,171.01C160.31,170.43 160.59,169.87 160.93,169.46C161.21,169.13 161.51,168.81 161.84,168.68C162.12,168.57 162.45,168.55 162.74,168.64C163.06,168.74 163.36,169.01 163.64,169.3C163.98,169.65 164.27,170.15 164.55,170.65C164.88,171.23 165.16,171.91 165.45,172.61C165.77,173.39 166.07,174.25 166.36,175.12C166.67,176.06 166.97,177.06 167.26,178.07C167.57,179.14 167.86,180.25 168.16,181.37C168.47,182.54 168.77,183.74 169.07,184.95C169.38,186.2 169.67,187.48 169.97,188.75C170.27,190.02 170.57,191.32 170.88,192.58C171.18,193.81 171.47,195.03 171.78,196.21C172.07,197.33 172.37,198.45 172.68,199.49C172.97,200.46 173.26,201.42 173.59,202.26C173.87,202.98 174.13,203.74 174.49,204.24C174.76,204.62 175.08,205.07 175.4,205.1C175.69,205.13 176.04,204.86 176.3,204.56C176.69,204.12 176.94,203.27 177.21,202.46C177.56,201.42 177.83,200.13 178.11,198.82C178.44,197.3 178.72,195.59 179.01,193.85C179.33,191.95 179.63,189.91 179.92,187.85C180.23,185.68 180.52,183.42 180.82,181.15C181.13,178.82 181.43,176.43 181.73,174.06C182.03,171.67 182.33,169.25 182.63,166.85C182.93,164.47 183.23,162.08 183.53,159.73C183.83,157.42 184.13,155.12 184.44,152.86C184.74,150.67 185.03,148.49 185.34,146.38C185.64,144.35 185.94,142.35 186.25,140.42C186.54,138.59 186.84,136.8 187.15,135.09C187.44,133.49 187.73,131.93 188.05,130.45C188.34,129.09 188.64,127.78 188.96,126.56C189.25,125.46 189.54,124.4 189.86,123.44C190.14,122.6 190.44,121.79 190.77,121.12C191.05,120.56 191.32,120 191.67,119.64C191.94,119.36 192.27,119.09 192.58,119.04C192.87,119 193.21,119.12 193.48,119.31C193.82,119.54 194.1,120 194.38,120.46C194.72,121.02 195.01,121.73 195.29,122.47C195.62,123.33 195.9,124.3 196.19,125.31C196.51,126.45 196.81,127.68 197.1,128.96C197.42,130.36 197.71,131.86 198,133.39C198.31,135.04 198.61,136.77 198.9,138.52C199.21,140.36 199.51,142.28 199.81,144.19C200.12,146.14 200.41,148.11 200.71,150.12C201.02,152.21 201.32,154.33 201.62,156.5C201.93,158.74 202.22,161.04 202.52,163.36C202.82,165.76 203.12,168.2 203.42,170.68C203.73,173.23 204.03,175.82 204.33,178.43C204.64,181.11 204.93,183.82 205.23,186.56C205.53,189.35 205.84,192.17 206.14,195C206.44,197.86 206.74,200.75 207.04,203.63C207.34,206.52 207.65,209.4 207.95,212.3C208.25,215.21 208.55,218.14 208.85,221.07C209.15,224.03 209.45,227 209.75,229.97C210.05,232.96 210.36,235.97 210.66,238.97C210.96,241.97 211.26,244.99 211.56,247.98C211.86,250.93 212.17,253.88 212.47,256.78C212.77,259.62 213.06,262.45 213.37,265.21C213.67,267.88 213.96,270.57 214.27,273.1C214.56,275.45 214.84,277.86 215.18,279.91C215.46,281.6 215.57,283.71 216.08,284.53C216.33,284.93 216.73,285.3 216.99,285.22C217.42,285.08 217.62,283.4 217.89,282.24C218.25,280.69 218.51,278.73 218.79,276.7C219.13,274.23 219.41,271.35 219.7,268.48C220.02,265.34 220.3,261.94 220.6,258.62C220.9,255.23 221.21,251.78 221.51,248.34C221.81,244.89 222.11,241.42 222.41,237.96C222.71,234.51 223.02,231.05 223.32,227.61C223.62,224.2 223.92,220.79 224.22,217.41C224.52,214.07 224.82,210.74 225.12,207.44C225.42,204.18 225.73,200.94 226.03,197.74C226.33,194.59 226.62,191.47 226.93,188.38C227.23,185.36 227.53,182.37 227.84,179.42C228.14,176.55 228.44,173.7 228.74,170.91C229.04,168.2 229.33,165.53 229.64,162.9C229.94,160.36 230.25,157.88 230.55,155.39C230.85,152.94 231.14,150.46 231.45,148.08C231.75,145.8 232.05,143.57 232.36,141.41C232.65,139.37 232.95,137.37 233.26,135.46C233.55,133.67 233.84,131.92 234.16,130.27C234.45,128.75 234.75,127.27 235.07,125.89C235.36,124.64 235.65,123.44 235.97,122.35C236.25,121.39 236.55,120.47 236.88,119.68C237.16,119.02 237.44,118.38 237.78,117.92C238.05,117.56 238.35,117.18 238.68,117.07C238.96,116.97 239.31,117.02 239.59,117.16C239.93,117.33 240.22,117.75 240.49,118.17C240.83,118.69 241.12,119.39 241.4,120.11C241.73,120.96 242.02,121.94 242.3,122.96C242.62,124.11 242.92,125.38 243.21,126.69C243.53,128.14 243.82,129.69 244.11,131.29C244.42,133.02 244.72,134.84 245.01,136.7C245.32,138.69 245.63,140.76 245.92,142.88C246.23,145.12 246.52,147.43 246.82,149.78C247.13,152.24 247.43,154.77 247.73,157.34C248.04,160 248.33,162.73 248.63,165.49C248.93,168.33 249.23,171.22 249.53,174.14C249.84,177.12 250.14,180.15 250.44,183.19C250.74,186.28 251.04,189.41 251.34,192.54C251.64,195.69 251.95,198.86 252.25,202.01C252.55,205.15 252.85,208.31 253.15,211.42C253.45,214.48 253.74,217.53 254.05,220.53C254.35,223.46 254.65,226.36 254.96,229.2C255.26,231.94 255.55,234.65 255.86,237.27C256.15,239.76 256.46,242.21 256.77,244.56C257.06,246.76 257.35,248.91 257.67,250.94C257.96,252.81 258.26,254.63 258.58,256.31C258.87,257.81 259.15,259.25 259.48,260.54C259.76,261.64 260.03,262.73 260.38,263.57C260.65,264.21 260.92,264.9 261.29,265.2C261.55,265.41 261.9,265.52 262.19,265.46C262.51,265.4 262.82,265.06 263.1,264.74C263.44,264.34 263.71,263.72 264,263.16C264.32,262.54 264.6,261.84 264.9,261.16C265.21,260.46 265.51,259.73 265.81,259.01C266.11,258.29 266.41,257.56 266.71,256.85C267.01,256.15 267.31,255.44 267.62,254.76C267.92,254.09 268.22,253.44 268.52,252.8C268.82,252.18 269.12,251.57 269.42,250.97C269.72,250.37 270.03,249.8 270.33,249.2C270.63,248.59 270.93,247.96 271.23,247.34C271.53,246.73 271.84,246.11 272.14,245.51C272.44,244.92 272.74,244.35 273.04,243.77C273.34,243.2 273.66,242.66 273.95,242.06C274.26,241.41 274.55,240.69 274.85,239.98C275.15,239.25 275.45,238.52 275.75,237.76C276.06,236.98 276.36,236.18 276.66,235.37C276.97,234.53 277.26,233.68 277.56,232.8C277.87,231.89 278.17,230.96 278.47,230.02C278.78,229.05 279.07,228.05 279.37,227.04C279.67,226 279.97,224.94 280.27,223.87C280.58,222.77 280.88,221.66 281.18,220.54C281.48,219.41 281.78,218.26 282.08,217.12C282.38,215.97 282.69,214.82 282.99,213.67C283.29,212.53 283.59,211.4 283.89,210.27C284.19,209.16 284.49,208.04 284.79,206.95C285.09,205.88 285.39,204.81 285.7,203.77C286,202.75 286.29,201.74 286.6,200.76C286.9,199.81 287.2,198.87 287.51,197.97C287.8,197.11 288.1,196.26 288.41,195.45C288.7,194.69 289.01,193.95 289.32,193.26C289.61,192.62 289.9,191.99 290.22,191.43C290.51,190.92 290.8,190.42 291.12,190C291.41,189.63 291.71,189.27 292.03,189.02C292.31,188.8 292.62,188.6 292.93,188.52C293.22,188.44 293.55,188.44 293.84,188.52C294.15,188.6 294.46,188.8 294.74,189.03C295.06,189.3 295.36,189.67 295.64,190.07C295.97,190.53 296.26,191.07 296.55,191.64C296.87,192.28 297.16,193 297.45,193.74C297.77,194.56 298.07,195.44 298.36,196.35C298.67,197.34 298.97,198.39 299.26,199.47C299.57,200.63 299.87,201.84 300.16,203.08C300.47,204.39 300.77,205.74 301.07,207.12C301.38,208.57 301.67,210.06 301.97,211.57C302.28,213.13 302.58,214.72 302.88,216.32C303.18,217.95 303.48,219.61 303.78,221.27C304.08,222.95 304.38,224.65 304.68,226.36C304.98,228.1 305.29,229.86 305.59,231.63C305.89,233.42 306.19,235.23 306.49,237.02C306.79,238.81 307.09,240.66 307.4,242.38C307.69,243.97 307.99,245.48 308.3,246.97C308.59,248.38 308.9,249.78 309.21,251.09C309.5,252.3 309.78,253.52 310.11,254.58C310.39,255.48 310.65,256.41 311.01,257.05C311.28,257.53 311.57,258.03 311.92,258.19C312.19,258.32 312.54,258.29 312.82,258.16C313.16,258.01 313.45,257.58 313.73,257.19C314.06,256.73 314.34,256.14 314.63,255.55C314.95,254.9 315.24,254.18 315.53,253.46C315.84,252.7 316.14,251.9 316.44,251.11C316.74,250.31 317.04,249.5 317.34,248.7C317.64,247.92 317.94,247.13 318.25,246.37C318.55,245.64 318.84,244.92 319.15,244.24C319.44,243.6 319.74,242.98 320.05,242.41C320.34,241.88 320.64,241.38 320.96,240.93C321.25,240.52 321.55,240.16 321.86,239.81C322.15,239.48 322.46,239.17 322.77,238.89C323.06,238.63 323.37,238.4 323.67,238.17C323.97,237.95 324.28,237.76 324.58,237.54C324.88,237.32 325.19,237.11 325.48,236.85C325.79,236.57 326.1,236.26 326.38,235.88C326.71,235.42 327.01,234.86 327.29,234.25C327.62,233.54 327.9,232.7 328.19,231.86C328.51,230.93 328.8,229.88 329.1,228.89C329.4,227.89 329.7,226.87 330,225.88C330.3,224.91 330.59,223.94 330.9,223.01C331.2,222.12 331.5,221.24 331.81,220.4C332.1,219.62 332.4,218.85 332.71,218.14C333,217.48 333.3,216.85 333.62,216.27C333.91,215.75 334.2,215.25 334.52,214.81C334.81,214.42 335.1,214.05 335.42,213.75C335.71,213.47 336.02,213.23 336.33,213.04C336.62,212.86 336.93,212.75 337.23,212.63C337.53,212.52 337.84,212.44 338.14,212.35C338.44,212.26 338.74,212.16 339.04,212.1C339.34,212.04 339.65,212.03 339.95,212.01C340.25,211.99 340.55,211.97 340.85,211.96C341.15,211.95 341.45,211.96 341.75,211.93C342.05,211.9 342.36,211.84 342.66,211.75C342.97,211.66 343.27,211.53 343.56,211.38C343.87,211.22 344.18,211.04 344.47,210.8C344.79,210.54 345.09,210.24 345.37,209.87C345.7,209.45 345.99,208.92 346.27,208.37C346.6,207.73 346.89,207 347.18,206.25C347.5,205.43 347.8,204.57 348.08,203.62C348.41,202.51 348.69,201.22 348.99,199.98C349.3,198.68 349.59,197.31 349.89,195.97C350.19,194.62 350.48,193.21 350.79,191.9C351.08,190.67 351.38,189.46 351.7,188.33C351.99,187.29 352.28,186.29 352.6,185.37C352.89,184.55 353.18,183.75 353.51,183.07C353.79,182.49 354.07,181.91 354.41,181.5C354.69,181.16 354.99,180.83 355.32,180.7C355.6,180.59 355.94,180.58 356.22,180.68C356.54,180.8 356.84,181.13 357.12,181.47C357.46,181.89 357.75,182.47 358.03,183.07C358.36,183.78 358.65,184.61 358.93,185.48C359.25,186.47 359.55,187.55 359.84,188.68C360.16,189.92 360.45,191.26 360.74,192.63C361.05,194.12 361.35,195.69 361.64,197.3C361.95,199.01 362.26,200.8 362.55,202.62C362.86,204.53 363.15,206.51 363.45,208.52C363.76,210.61 364.06,212.75 364.36,214.92C364.67,217.15 364.96,219.42 365.26,221.71C365.56,224.04 365.86,226.41 366.16,228.77C366.46,231.14 366.77,233.53 367.07,235.89C367.37,238.22 367.67,240.55 367.97,242.84C368.27,245.09 368.57,247.33 368.88,249.53C369.18,251.67 369.47,253.81 369.78,255.88C370.07,257.87 370.37,259.86 370.68,261.73C370.97,263.47 371.28,265.15 371.59,266.76C371.88,268.25 372.17,269.7 372.49,271.05C372.78,272.27 373.07,273.47 373.4,274.53C373.68,275.44 373.94,276.38 374.3,277.03C374.57,277.51 374.88,278.08 375.21,278.15C375.49,278.21 375.84,277.95 376.11,277.71C376.46,277.41 376.73,276.88 377.01,276.37C377.34,275.78 377.63,275.07 377.92,274.35C378.24,273.55 378.53,272.68 378.82,271.76C379.14,270.75 379.43,269.63 379.73,268.53C380.04,267.4 380.33,266.24 380.63,265.07C380.93,263.86 381.23,262.63 381.53,261.37C381.84,260.06 382.15,258.74 382.44,257.37C382.75,255.93 383.04,254.45 383.34,252.94C383.65,251.38 383.95,249.78 384.25,248.15C384.56,246.47 384.86,244.76 385.15,243.01C385.46,241.18 385.75,239.28 386.05,237.38C386.36,235.44 386.66,233.46 386.96,231.49C387.26,229.51 387.56,227.52 387.86,225.54C388.16,223.56 388.47,221.57 388.77,219.6C389.07,217.65 389.37,215.69 389.67,213.76C389.97,211.86 390.27,209.97 390.58,208.12C390.88,206.31 391.17,204.52 391.48,202.77C391.78,201.08 392.07,199.41 392.38,197.78C392.68,196.21 392.98,194.67 393.29,193.18C393.58,191.76 393.88,190.36 394.19,189.02C394.48,187.75 394.79,186.5 395.1,185.31C395.39,184.2 395.69,183.12 396,182.1C396.29,181.16 396.59,180.29 396.9,179.42C397.19,178.6 397.49,177.76 397.81,177.02C398.1,176.35 398.38,175.7 398.71,175.15C398.99,174.67 399.29,174.21 399.62,173.86C399.9,173.56 400.21,173.34 400.52,173.13C400.81,172.93 401.11,172.7 401.42,172.62C401.71,172.55 402.04,172.56 402.33,172.64C402.64,172.73 402.94,172.93 403.23,173.15C403.55,173.4 403.85,173.73 404.14,174.08C404.46,174.47 404.75,174.93 405.04,175.41C405.36,175.93 405.66,176.51 405.95,177.11C406.26,177.75 406.56,178.44 406.85,179.15C407.16,179.9 407.45,180.69 407.75,181.48C408.06,182.3 408.36,183.17 408.66,184C408.96,184.82 409.26,185.61 409.56,186.44C409.87,187.29 410.17,188.15 410.47,189.02C410.77,189.9 411.07,190.8 411.37,191.67C411.67,192.51 411.97,193.32 412.27,194.16C412.57,195.01 412.88,195.87 413.18,196.74C413.49,197.63 413.78,198.54 414.08,199.46C414.38,200.39 414.69,201.35 414.99,202.28C415.29,203.2 415.59,204.1 415.89,205C416.19,205.89 416.49,206.77 416.79,207.65C417.09,208.52 417.4,209.39 417.7,210.25C418,211.1 418.3,211.95 418.6,212.78C418.9,213.6 419.2,214.42 419.51,215.22C419.81,216 420.1,216.77 420.41,217.51C420.71,218.23 421.01,218.93 421.32,219.6C421.61,220.23 421.91,220.85 422.22,221.42C422.51,221.94 422.8,222.44 423.12,222.87C423.41,223.25 423.71,223.59 424.03,223.87C424.32,224.12 424.62,224.34 424.93,224.5C425.22,224.65 425.53,224.75 425.84,224.8C426.14,224.85 426.44,224.85 426.74,224.82C427.04,224.79 427.34,224.71 427.64,224.62C427.95,224.53 428.25,224.4 428.55,224.26C428.85,224.12 429.15,223.95 429.45,223.78C429.75,223.61 430.06,223.43 430.36,223.24C430.66,223.05 430.96,222.85 431.26,222.64C431.56,222.42 431.86,222.18 432.16,221.95C432.46,221.72 432.77,221.47 433.07,221.24C433.37,221.01 433.67,220.79 433.97,220.58C434.27,220.37 434.58,220.17 434.88,219.98C435.18,219.79 435.48,219.62 435.78,219.45C436.08,219.28 436.38,219.12 436.68,218.95C436.98,218.78 437.3,218.62 437.59,218.41C437.9,218.19 438.2,217.93 438.49,217.63C438.81,217.31 439.13,216.98 439.4,216.53C439.75,215.95 440,215.12 440.3,214.39C440.61,213.64 440.91,212.85 441.21,212.08C441.51,211.31 441.81,210.53 442.11,209.75C442.41,208.96 442.71,208.17 443.01,207.38C443.31,206.58 443.62,205.78 443.92,204.97C444.22,204.16 444.52,203.35 444.82,202.54C445.12,201.72 445.43,200.9 445.73,200.08C446.03,199.26 446.33,198.44 446.63,197.62C446.93,196.81 447.23,196 447.53,195.2C447.83,194.41 448.14,193.63 448.44,192.86C448.74,192.1 449.04,191.35 449.34,190.6C449.64,189.85 449.95,189.09 450.25,188.34C450.55,187.59 450.85,186.83 451.15,186.1C451.45,185.39 451.74,184.69 452.05,184.01C452.35,183.36 452.65,182.73 452.96,182.12C453.25,181.54 453.55,180.98 453.86,180.45C454.15,179.95 454.46,179.48 454.77,179.03C455.06,178.61 455.36,178.2 455.67,177.84C455.96,177.5 456.27,177.19 456.58,176.91C456.87,176.65 457.17,176.41 457.48,176.22C457.77,176.04 458.07,175.89 458.38,175.77C458.68,175.66 458.99,175.58 459.29,175.53C459.59,175.48 459.89,175.47 460.19,175.48C460.49,175.49 460.8,175.54 461.1,175.58Q461.4,175.63 462,175.75" style="vector-effect: non-scaling-stroke; fill: none; stroke: rgb(0, 100, 80); stroke-opacity: 1; stroke-width: 2px; opacity: 1;"/></g><g class="points"/><g class="text"/></g><g class="trace scatter trace108339" style="stroke-miterlimit: 2; opacity: 1;"><g class="fills"/><g class="errorbars"/><g class="lines"><path class="js-line" d="M0,226.48Q0.63,224.66 0.9,223.49C1.26,221.89 1.52,219.74 1.81,217.73C2.13,215.53 2.41,213.15 2.71,210.82C3.02,208.43 3.32,205.98 3.62,203.56C3.92,201.15 4.22,198.73 4.52,196.35C4.82,194.01 5.12,191.7 5.42,189.4C5.72,187.13 6.03,184.91 6.33,182.62C6.64,180.26 6.93,177.87 7.23,175.44C7.54,172.93 7.84,170.32 8.14,167.8C8.44,165.33 8.73,162.85 9.04,160.47C9.33,158.21 9.64,155.98 9.95,153.86C10.24,151.89 10.53,149.97 10.85,148.17C11.14,146.54 11.42,144.97 11.75,143.54C12.03,142.29 12.32,141.08 12.66,140.05C12.94,139.2 13.2,138.36 13.56,137.77C13.83,137.33 14.13,136.85 14.47,136.75C14.75,136.67 15.1,136.8 15.37,137.01C15.74,137.29 16,137.94 16.27,138.54C16.62,139.32 16.9,140.31 17.18,141.33C17.51,142.53 17.79,143.91 18.08,145.32C18.4,146.91 18.7,148.64 18.99,150.42C19.31,152.36 19.6,154.41 19.89,156.51C20.2,158.75 20.49,161.08 20.79,163.45C21.1,165.93 21.4,168.48 21.7,171.05C22.01,173.69 22.3,176.39 22.6,179.08C22.9,181.8 23.21,184.57 23.51,187.3C23.81,190.01 24.1,192.75 24.41,195.42C24.71,198.02 25.01,200.61 25.32,203.1C25.61,205.47 25.91,207.8 26.22,210.03C26.51,212.11 26.8,214.15 27.12,216.05C27.41,217.76 27.69,219.45 28.03,220.9C28.31,222.1 28.48,223.53 28.93,224.14C29.19,224.49 29.58,224.82 29.84,224.73C30.24,224.59 30.47,223.2 30.74,222.27C31.08,221.1 31.35,219.66 31.64,218.23C31.96,216.64 32.26,214.92 32.55,213.17C32.86,211.29 33.16,209.32 33.45,207.31C33.76,205.19 34.06,202.98 34.36,200.77C34.67,198.5 34.96,196.16 35.26,193.85C35.56,191.54 35.85,189.2 36.16,186.92C36.46,184.7 36.76,182.48 37.07,180.35C37.36,178.33 37.66,176.33 37.97,174.44C38.26,172.69 38.56,170.97 38.88,169.38C39.17,167.95 39.45,166.57 39.78,165.34C40.06,164.29 40.33,163.27 40.68,162.46C40.95,161.82 41.22,161.14 41.59,160.82C41.86,160.59 42.21,160.41 42.49,160.48C42.82,160.56 43.13,161.03 43.4,161.46C43.77,162.04 44.02,162.91 44.3,163.77C44.64,164.83 44.93,166.08 45.21,167.37C45.54,168.86 45.82,170.51 46.11,172.21C46.43,174.09 46.72,176.11 47.01,178.17C47.32,180.39 47.63,182.73 47.92,185.11C48.23,187.61 48.52,190.22 48.82,192.83C49.13,195.53 49.43,198.3 49.73,201.06C50.03,203.85 50.33,206.69 50.63,209.49C50.93,212.26 51.22,215.05 51.53,217.77C51.83,220.42 52.13,223.03 52.44,225.61C52.74,228.12 53.04,230.58 53.34,233.02C53.64,235.42 53.95,237.79 54.25,240.14C54.55,242.44 54.85,244.73 55.15,246.97C55.45,249.15 55.74,251.32 56.05,253.4C56.34,255.38 56.64,257.35 56.96,259.18C57.25,260.84 57.53,262.49 57.86,263.92C58.14,265.11 58.38,266.38 58.77,267.18C59.03,267.72 59.37,268.4 59.67,268.4C59.97,268.4 60.32,267.74 60.58,267.2C60.99,266.33 61.19,264.81 61.48,263.51C61.8,262.06 62.09,260.47 62.38,258.89C62.69,257.22 62.99,255.47 63.29,253.72C63.6,251.9 63.89,250.05 64.19,248.17C64.5,246.24 64.8,244.28 65.1,242.3C65.41,240.28 65.7,238.22 66,236.16C66.3,234.08 66.6,231.97 66.9,229.9C67.2,227.86 67.5,225.81 67.81,223.83C68.11,221.93 68.4,220.04 68.71,218.24C69,216.55 69.3,214.89 69.62,213.33C69.91,211.91 70.2,210.52 70.52,209.26C70.8,208.14 71.09,207.06 71.42,206.13C71.7,205.36 71.98,204.59 72.33,204.05C72.6,203.64 72.9,203.2 73.23,203.09C73.51,203 73.87,203.1 74.14,203.28C74.5,203.52 74.77,204.1 75.04,204.64C75.39,205.34 75.67,206.26 75.95,207.2C76.28,208.31 76.57,209.59 76.85,210.91C77.17,212.41 77.46,214.04 77.75,215.73C78.07,217.59 78.37,219.57 78.66,221.6C78.97,223.78 79.26,226.07 79.56,228.39C79.87,230.81 80.16,233.39 80.47,235.83C80.77,238.2 81.06,240.56 81.37,242.83C81.66,244.98 81.97,247.01 82.27,249.12C82.57,251.25 82.88,253.39 83.18,255.54C83.48,257.7 83.78,259.89 84.08,262.05C84.38,264.18 84.68,266.34 84.99,268.4C85.28,270.36 85.57,272.34 85.89,274.14C86.17,275.75 86.46,277.31 86.79,278.69C87.07,279.85 87.36,280.95 87.7,281.88C87.98,282.64 88.24,283.39 88.6,283.88C88.87,284.24 89.18,284.57 89.51,284.68C89.79,284.77 90.13,284.73 90.41,284.61C90.74,284.46 91.04,284.11 91.32,283.75C91.66,283.31 91.94,282.73 92.22,282.12C92.55,281.41 92.83,280.58 93.12,279.72C93.44,278.76 93.74,277.69 94.03,276.61C94.34,275.44 94.64,274.19 94.93,272.94C95.24,271.62 95.54,270.25 95.84,268.89C96.14,267.51 96.44,266.12 96.74,264.71C97.04,263.27 97.35,261.84 97.64,260.34C97.95,258.75 98.25,257.08 98.55,255.41C98.86,253.68 99.15,251.87 99.45,250.13C99.75,248.41 100.05,246.68 100.36,245.03C100.65,243.46 100.95,241.91 101.26,240.44C101.55,239.08 101.84,237.75 102.16,236.52C102.45,235.41 102.74,234.33 103.07,233.37C103.35,232.54 103.63,231.73 103.97,231.07C104.25,230.52 104.53,229.99 104.88,229.65C105.15,229.38 105.47,229.17 105.78,229.11C106.07,229.06 106.39,229.17 106.68,229.28C106.99,229.39 107.31,229.55 107.59,229.78C107.92,230.05 108.19,230.51 108.49,230.86C108.79,231.21 109.11,231.51 109.4,231.87C109.71,232.25 110,232.68 110.3,233.08C110.6,233.49 110.9,233.93 111.21,234.3C111.5,234.64 111.8,234.95 112.11,235.23C112.4,235.49 112.7,235.74 113.01,235.91C113.3,236.07 113.62,236.22 113.92,236.23C114.22,236.24 114.55,236.16 114.82,235.97C115.16,235.74 115.46,235.28 115.73,234.8C116.08,234.19 116.35,233.38 116.63,232.55C116.96,231.56 117.25,230.41 117.53,229.22C117.85,227.86 118.15,226.38 118.44,224.84C118.76,223.15 119.05,221.32 119.34,219.48C119.65,217.52 119.95,215.46 120.25,213.41C120.56,211.3 120.85,209.12 121.15,206.97C121.45,204.81 121.75,202.62 122.05,200.46C122.35,198.33 122.65,196.2 122.96,194.12C123.26,192.1 123.55,190.1 123.86,188.17C124.16,186.32 124.46,184.5 124.77,182.76C125.06,181.14 125.35,179.55 125.67,178.06C125.96,176.7 126.26,175.37 126.58,174.17C126.86,173.11 127.15,172.09 127.48,171.21C127.76,170.48 128.03,169.75 128.38,169.25C128.65,168.86 128.96,168.45 129.29,168.35C129.57,168.27 129.92,168.37 130.19,168.55C130.54,168.78 130.83,169.32 131.1,169.83C131.45,170.48 131.72,171.33 132,172.2C132.33,173.22 132.61,174.38 132.9,175.59C133.22,176.95 133.52,178.43 133.81,179.95C134.13,181.62 134.42,183.39 134.71,185.2C135.02,187.14 135.33,189.17 135.62,191.23C135.93,193.4 136.23,195.64 136.52,197.91C136.83,200.26 137.12,202.67 137.42,205.09C137.72,207.55 138.03,210.06 138.33,212.55C138.63,215.04 138.93,217.54 139.23,220.01C139.53,222.45 139.83,224.89 140.14,227.27C140.44,229.57 140.73,231.87 141.04,234.07C141.33,236.14 141.63,238.19 141.95,240.11C142.24,241.88 142.53,243.61 142.85,245.18C143.13,246.57 143.4,247.96 143.75,249.07C144.02,249.94 144.24,251.08 144.66,251.35C144.92,251.52 145.3,251.49 145.56,251.31C145.98,251.01 146.19,249.9 146.47,249.04C146.81,247.96 147.09,246.64 147.37,245.32C147.69,243.83 147.98,242.2 148.27,240.56C148.58,238.8 148.88,236.94 149.18,235.08C149.49,233.15 149.78,231.15 150.08,229.17C150.38,227.16 150.69,225.11 150.99,223.08C151.29,221.06 151.59,219.02 151.89,217.02C152.19,215.05 152.48,213.09 152.79,211.16C153.09,209.29 153.39,207.43 153.7,205.62C154,203.87 154.29,202.15 154.6,200.48C154.9,198.88 155.2,197.32 155.51,195.81C155.8,194.38 156.1,192.99 156.41,191.65C156.7,190.4 157.01,189.18 157.32,188.02C157.61,186.95 157.9,185.91 158.22,184.94C158.51,184.06 158.8,183.21 159.12,182.44C159.41,181.75 159.7,181.08 160.03,180.51C160.31,180.01 160.6,179.54 160.93,179.18C161.21,178.87 161.52,178.59 161.84,178.43C162.12,178.29 162.44,178.22 162.74,178.24C163.04,178.26 163.35,178.4 163.64,178.56C163.96,178.74 164.26,179.02 164.55,179.31C164.87,179.62 165.16,180 165.45,180.38C165.76,180.79 166.07,181.24 166.36,181.71C166.67,182.2 166.97,182.72 167.26,183.26C167.57,183.82 167.86,184.4 168.16,185C168.47,185.62 168.77,186.27 169.07,186.92C169.38,187.59 169.67,188.29 169.97,188.98C170.27,189.68 170.58,190.4 170.88,191.11C171.18,191.82 171.48,192.54 171.78,193.23C172.08,193.91 172.37,194.59 172.68,195.23C172.97,195.83 173.27,196.43 173.59,196.96C173.88,197.44 174.16,197.92 174.49,198.27C174.77,198.57 175.08,198.88 175.4,198.98C175.69,199.07 176.03,199.05 176.3,198.91C176.64,198.74 176.94,198.3 177.21,197.85C177.57,197.26 177.84,196.45 178.11,195.61C178.45,194.57 178.73,193.35 179.01,192.07C179.34,190.57 179.63,188.9 179.92,187.16C180.24,185.2 180.53,183.06 180.82,180.87C181.14,178.48 181.44,175.95 181.73,173.37C182.04,170.63 182.34,167.78 182.63,164.9C182.94,161.91 183.23,158.84 183.53,155.75C183.84,152.58 184.14,149.33 184.44,146.1C184.74,142.83 185.04,139.51 185.34,136.24C185.64,133 185.94,129.75 186.25,126.57C186.55,123.47 186.84,120.38 187.15,117.38C187.44,114.49 187.74,111.63 188.05,108.87C188.34,106.24 188.65,103.66 188.96,101.18C189.25,98.85 189.55,96.58 189.86,94.42C190.15,92.42 190.45,90.48 190.77,88.66C191.06,87.01 191.35,85.42 191.67,83.96C191.95,82.68 192.25,81.44 192.58,80.37C192.86,79.47 193.13,78.59 193.48,77.92C193.75,77.4 194.03,76.85 194.38,76.64C194.65,76.48 195.02,76.43 195.29,76.55C195.63,76.69 195.92,77.2 196.19,77.67C196.55,78.28 196.82,79.12 197.1,79.98C197.44,81.02 197.72,82.23 198,83.48C198.32,84.92 198.61,86.5 198.9,88.14C199.22,89.96 199.52,91.9 199.81,93.91C200.13,96.09 200.42,98.39 200.71,100.75C201.02,103.28 201.33,105.91 201.62,108.6C201.93,111.44 202.23,114.39 202.52,117.38C202.83,120.52 203.12,123.74 203.42,127.01C203.73,130.41 204.03,133.88 204.33,137.4C204.64,141.03 204.93,144.72 205.23,148.45C205.54,152.27 205.84,156.15 206.14,160.06C206.44,164.04 206.74,168.07 207.04,172.11C207.34,176.21 207.65,180.34 207.95,184.48C208.25,188.66 208.55,192.86 208.85,197.07C209.15,201.29 209.45,205.54 209.75,209.77C210.05,214.01 210.36,218.25 210.66,222.48C210.96,226.7 211.26,230.92 211.56,235.11C211.86,239.27 212.17,243.43 212.47,247.54C212.77,251.6 213.07,255.64 213.37,259.62C213.67,263.5 213.96,267.41 214.27,271.1C214.56,274.55 214.85,278.03 215.18,281.11C215.46,283.75 215.67,286.58 216.08,288.46C216.34,289.67 216.68,291.37 216.99,291.37C217.28,291.37 217.63,289.82 217.89,288.75C218.28,287.14 218.51,284.78 218.79,282.55C219.12,279.96 219.41,277.03 219.7,274.11C220.01,270.95 220.3,267.62 220.6,264.26C220.91,260.74 221.21,257.12 221.51,253.46C221.82,249.68 222.11,245.83 222.41,241.95C222.72,237.98 223.02,233.94 223.32,229.89C223.62,225.78 223.92,221.62 224.22,217.47C224.52,213.3 224.82,209.1 225.12,204.93C225.42,200.76 225.73,196.59 226.03,192.45C226.33,188.34 226.63,184.24 226.93,180.18C227.23,176.17 227.54,172.18 227.84,168.24C228.14,164.37 228.44,160.52 228.74,156.73C229.04,153.02 229.33,149.36 229.64,145.74C229.94,142.22 230.24,138.73 230.55,135.31C230.85,131.99 231.14,128.72 231.45,125.52C231.75,122.43 232.05,119.37 232.36,116.4C232.66,113.55 232.95,110.75 233.26,108.03C233.55,105.45 233.85,102.92 234.16,100.48C234.45,98.19 234.76,95.95 235.07,93.82C235.36,91.84 235.65,89.93 235.97,88.12C236.26,86.46 236.56,84.88 236.88,83.38C237.17,82 237.47,80.71 237.78,79.44C238.07,78.24 238.36,77.06 238.68,75.95C238.97,74.93 239.25,73.89 239.59,73.04C239.87,72.34 240.12,71.59 240.49,71.17C240.76,70.87 241.11,70.57 241.4,70.59C241.71,70.62 242.04,71.02 242.3,71.4C242.68,71.94 242.94,72.8 243.21,73.66C243.56,74.74 243.83,76.05 244.11,77.4C244.44,78.99 244.72,80.76 245.01,82.61C245.33,84.69 245.63,86.95 245.92,89.28C246.24,91.84 246.53,94.56 246.82,97.36C247.13,100.38 247.44,103.55 247.73,106.79C248.04,110.24 248.34,113.82 248.63,117.47C248.94,121.31 249.23,125.28 249.53,129.31C249.84,133.5 250.14,137.8 250.44,142.15C250.75,146.63 251.04,151.2 251.34,155.8C251.64,160.5 251.95,165.27 252.25,170.04C252.55,174.85 252.85,179.71 253.15,184.52C253.45,189.28 253.74,194.11 254.05,198.75C254.35,203.2 254.64,207.68 254.96,211.83C255.25,215.6 255.54,219.26 255.86,222.61C256.14,225.54 256.45,228.29 256.77,230.84C257.05,233.07 257.34,235.17 257.67,237.09C257.95,238.76 258.25,240.33 258.58,241.73C258.86,242.9 259.13,244.03 259.48,244.94C259.75,245.66 260.01,246.4 260.38,246.8C260.65,247.09 261,247.37 261.29,247.33C261.61,247.28 261.93,246.8 262.19,246.36C262.58,245.71 262.82,244.65 263.1,243.64C263.44,242.42 263.71,240.97 264,239.55C264.31,238 264.6,236.33 264.9,234.69C265.21,233.01 265.51,231.27 265.81,229.57C266.11,227.88 266.4,226.18 266.71,224.52C267.01,222.9 267.31,221.29 267.62,219.72C267.92,218.21 268.21,216.7 268.52,215.26C268.81,213.89 269.11,212.54 269.42,211.27C269.71,210.1 270.01,208.96 270.33,207.91C270.62,206.97 270.9,206.07 271.23,205.28C271.51,204.61 271.8,203.96 272.14,203.46C272.42,203.05 272.71,202.65 273.04,202.43C273.32,202.24 273.65,202.13 273.95,202.12C274.25,202.11 274.55,202.26 274.85,202.36C275.15,202.46 275.45,202.71 275.75,202.71C276.05,202.71 276.37,202.53 276.66,202.38C276.97,202.22 277.25,201.93 277.56,201.75C277.86,201.57 278.16,201.42 278.47,201.29C278.77,201.17 279.07,201.08 279.37,200.99C279.67,200.9 279.97,200.84 280.27,200.74C280.57,200.64 280.88,200.53 281.18,200.39C281.49,200.25 281.79,200.09 282.08,199.89C282.39,199.68 282.7,199.43 282.99,199.15C283.31,198.84 283.6,198.48 283.89,198.09C284.21,197.66 284.5,197.17 284.79,196.66C285.11,196.11 285.41,195.5 285.7,194.88C286.01,194.22 286.3,193.52 286.6,192.82C286.91,192.09 287.21,191.33 287.51,190.57C287.81,189.79 288.11,189 288.41,188.21C288.71,187.43 289.02,186.63 289.32,185.86C289.62,185.1 289.91,184.33 290.22,183.6C290.51,182.89 290.81,182.2 291.12,181.54C291.41,180.92 291.71,180.31 292.03,179.75C292.32,179.24 292.61,178.74 292.93,178.31C293.22,177.93 293.52,177.56 293.84,177.3C294.12,177.07 294.43,176.86 294.74,176.77C295.03,176.69 295.35,176.69 295.64,176.77C295.96,176.86 296.27,177.07 296.55,177.32C296.88,177.61 297.17,178.02 297.45,178.45C297.78,178.95 298.07,179.55 298.36,180.18C298.68,180.89 298.97,181.69 299.26,182.52C299.58,183.44 299.87,184.44 300.16,185.48C300.48,186.62 300.78,187.82 301.07,189.07C301.38,190.42 301.68,191.83 301.97,193.29C302.28,194.84 302.59,196.46 302.88,198.11C303.19,199.85 303.49,201.65 303.78,203.47C304.09,205.36 304.38,207.3 304.68,209.24C304.98,211.21 305.29,213.24 305.59,215.21C305.89,217.15 306.18,219.11 306.49,220.99C306.78,222.78 307.09,224.52 307.4,226.22C307.7,227.85 307.99,229.42 308.3,230.98C308.6,232.49 308.9,233.99 309.21,235.45C309.51,236.87 309.8,238.27 310.11,239.62C310.4,240.9 310.67,242.24 311.01,243.35C311.29,244.27 311.57,245.17 311.92,245.84C312.19,246.36 312.47,246.98 312.82,247.12C313.09,247.23 313.46,247.12 313.73,246.93C314.09,246.68 314.35,246.05 314.63,245.51C314.96,244.88 315.24,244.1 315.53,243.35C315.84,242.55 316.14,241.69 316.44,240.84C316.74,239.98 317.04,239.1 317.34,238.24C317.64,237.4 317.94,236.56 318.25,235.75C318.55,234.98 318.84,234.21 319.15,233.49C319.44,232.82 319.73,232.16 320.05,231.57C320.34,231.04 320.64,230.53 320.96,230.1C321.24,229.73 321.53,229.36 321.86,229.12C322.14,228.91 322.46,228.74 322.77,228.69C323.06,228.65 323.38,228.71 323.67,228.82C323.99,228.94 324.29,229.2 324.58,229.45C324.89,229.72 325.17,230.09 325.48,230.38C325.77,230.66 326.07,231.14 326.38,231.16C326.68,231.18 327.03,230.87 327.29,230.53C327.7,229.98 327.9,228.79 328.19,227.87C328.5,226.88 328.8,225.8 329.1,224.76C329.4,223.72 329.69,222.66 330,221.65C330.29,220.68 330.59,219.71 330.9,218.81C331.19,217.97 331.49,217.15 331.81,216.42C332.1,215.77 332.38,215.13 332.71,214.61C332.99,214.17 333.29,213.74 333.62,213.46C333.9,213.23 334.21,213.1 334.52,212.99C334.81,212.89 335.12,212.84 335.42,212.81C335.72,212.78 336.04,212.73 336.33,212.83C336.65,212.94 336.95,213.19 337.23,213.47C337.56,213.79 337.85,214.25 338.14,214.7C338.46,215.2 338.74,215.8 339.04,216.37C339.35,216.97 339.64,217.64 339.95,218.22C340.24,218.76 340.5,219.41 340.85,219.77C341.12,220.04 341.47,220.36 341.75,220.31C342.08,220.25 342.39,219.66 342.66,219.16C343.04,218.45 343.28,217.38 343.56,216.35C343.89,215.14 344.18,213.75 344.47,212.35C344.79,210.82 345.08,209.19 345.37,207.54C345.68,205.79 345.98,203.98 346.27,202.13C346.58,200.18 346.88,198.16 347.18,196.1C347.49,193.95 347.78,191.7 348.08,189.48C348.38,187.22 348.69,184.91 348.99,182.66C349.29,180.45 349.58,178.24 349.89,176.1C350.18,174.05 350.48,172.03 350.79,170.1C351.08,168.29 351.38,166.52 351.7,164.85C351.99,163.33 352.28,161.85 352.6,160.5C352.89,159.31 353.18,158.15 353.51,157.15C353.79,156.31 354.06,155.49 354.41,154.88C354.68,154.41 354.97,153.9 355.32,153.73C355.59,153.6 355.95,153.59 356.22,153.72C356.56,153.88 356.85,154.39 357.12,154.85C357.47,155.45 357.75,156.27 358.03,157.1C358.36,158.1 358.65,159.26 358.93,160.46C359.25,161.83 359.55,163.34 359.84,164.91C360.16,166.65 360.45,168.53 360.74,170.46C361.05,172.57 361.35,174.81 361.64,177.1C361.95,179.56 362.26,182.14 362.55,184.77C362.86,187.55 363.15,190.44 363.45,193.37C363.76,196.43 364.06,199.58 364.36,202.75C364.67,206 364.96,209.34 365.26,212.62C365.56,215.9 365.85,219.21 366.16,222.43C366.46,225.56 366.76,228.62 367.07,231.67C367.37,234.65 367.67,237.59 367.97,240.51C368.27,243.37 368.57,246.25 368.88,249C369.17,251.61 369.47,254.19 369.78,256.64C370.07,258.92 370.36,261.13 370.68,263.22C370.97,265.12 371.26,266.98 371.59,268.66C371.87,270.12 372.15,271.54 372.49,272.74C372.77,273.71 373.03,274.67 373.4,275.33C373.67,275.8 373.96,276.32 374.3,276.43C374.58,276.52 374.94,276.37 375.21,276.17C375.57,275.91 375.83,275.33 376.11,274.81C376.44,274.18 376.72,273.4 377.01,272.62C377.33,271.75 377.64,270.84 377.92,269.83C378.25,268.67 378.54,267.45 378.82,266.05C379.16,264.33 379.44,262.24 379.73,260.25C380.04,258.14 380.33,255.9 380.63,253.71C380.93,251.51 381.23,249.28 381.53,247.08C381.83,244.89 382.14,242.7 382.44,240.53C382.74,238.39 383.04,236.27 383.34,234.15C383.64,232.03 383.96,230.04 384.25,227.79C384.57,225.26 384.86,222.55 385.15,219.73C385.47,216.61 385.75,213.14 386.05,209.85C386.35,206.55 386.66,203.24 386.96,199.95C387.26,196.67 387.56,193.37 387.86,190.13C388.16,186.94 388.46,183.77 388.77,180.66C389.07,177.64 389.36,174.66 389.67,171.75C389.97,168.96 390.27,166.21 390.58,163.54C390.87,161 391.17,158.51 391.48,156.11C391.77,153.85 392.07,151.64 392.38,149.52C392.67,147.55 392.97,145.63 393.29,143.81C393.58,142.14 393.87,140.53 394.19,139.03C394.48,137.68 394.78,136.37 395.1,135.19C395.38,134.15 395.67,133.16 396,132.3C396.28,131.58 396.55,130.87 396.9,130.35C397.17,129.94 397.47,129.52 397.81,129.35C398.09,129.21 398.43,129.16 398.71,129.25C399.04,129.35 399.34,129.69 399.62,130.02C399.96,130.43 400.24,131.01 400.52,131.6C400.85,132.28 401.13,133.08 401.42,133.9C401.74,134.82 402.04,135.82 402.33,136.85C402.64,137.96 402.94,139.13 403.23,140.32C403.54,141.58 403.84,142.89 404.14,144.21C404.45,145.58 404.74,146.99 405.04,148.4C405.35,149.85 405.65,151.32 405.95,152.79C406.25,154.29 406.55,155.8 406.85,157.31C407.15,158.83 407.45,160.36 407.75,161.88C408.05,163.41 408.36,164.93 408.66,166.47C408.96,168.01 409.26,169.56 409.56,171.12C409.86,172.7 410.17,174.29 410.47,175.89C410.77,177.52 411.07,179.16 411.37,180.81C411.67,182.49 411.97,184.19 412.27,185.89C412.57,187.61 412.88,189.35 413.18,191.08C413.48,192.82 413.78,194.58 414.08,196.32C414.38,198.06 414.69,199.8 414.99,201.53C415.29,203.24 415.59,204.94 415.89,206.62C416.19,208.26 416.48,209.89 416.79,211.49C417.09,213.04 417.39,214.57 417.7,216.07C418,217.52 418.29,218.97 418.6,220.36C418.9,221.69 419.2,223.01 419.51,224.26C419.8,225.43 420.09,226.57 420.41,227.63C420.7,228.59 420.99,229.53 421.32,230.36C421.6,231.08 421.89,231.77 422.22,232.33C422.5,232.8 422.78,233.26 423.12,233.53C423.4,233.75 423.73,233.93 424.03,233.94C424.33,233.95 424.65,233.8 424.93,233.61C425.26,233.38 425.56,232.98 425.84,232.58C426.17,232.11 426.46,231.53 426.74,230.93C427.06,230.26 427.35,229.51 427.64,228.74C427.95,227.91 428.26,227.01 428.55,226.11C428.86,225.16 429.15,224.16 429.45,223.16C429.76,222.13 430.06,221.06 430.36,220C430.66,218.92 430.96,217.81 431.26,216.71C431.56,215.6 431.86,214.49 432.16,213.37C432.46,212.25 432.77,211.12 433.07,209.99C433.37,208.85 433.67,207.7 433.97,206.55C434.27,205.38 434.58,204.2 434.88,203.02C435.18,201.83 435.48,200.63 435.78,199.43C436.08,198.23 436.38,197.02 436.68,195.83C436.98,194.65 437.29,193.47 437.59,192.3C437.89,191.16 438.18,190.02 438.49,188.9C438.79,187.81 439.09,186.73 439.4,185.68C439.7,184.66 439.99,183.66 440.3,182.68C440.6,181.74 440.9,180.82 441.21,179.93C441.5,179.08 441.8,178.25 442.11,177.45C442.4,176.7 442.7,175.97 443.01,175.27C443.3,174.62 443.61,173.98 443.92,173.39C444.21,172.84 444.51,172.31 444.82,171.83C445.11,171.38 445.41,170.96 445.73,170.59C446.02,170.25 446.32,169.93 446.63,169.67C446.92,169.43 447.22,169.21 447.53,169.05C447.82,168.9 448.13,168.78 448.44,168.71C448.74,168.64 449.05,168.71 449.34,168.6C449.66,168.48 449.97,168.26 450.25,167.97C450.59,167.62 450.85,167.06 451.15,166.59C451.46,166.1 451.75,165.58 452.05,165.08C452.35,164.59 452.65,164.1 452.96,163.64C453.25,163.2 453.55,162.78 453.86,162.39C454.15,162.02 454.46,161.68 454.77,161.37C455.06,161.08 455.36,160.82 455.67,160.6C455.96,160.39 456.27,160.21 456.58,160.07C456.87,159.94 457.18,159.84 457.48,159.78C457.78,159.72 458.08,159.7 458.38,159.7C458.68,159.7 458.99,159.75 459.29,159.81C459.59,159.87 459.89,159.95 460.19,160.04C460.49,160.13 460.8,160.25 461.1,160.35Q461.4,160.45 462,160.64" style="vector-effect: non-scaling-stroke; fill: none; stroke: rgb(0, 176, 246); stroke-opacity: 1; stroke-width: 2px; opacity: 1;"/></g><g class="points"/><g class="text"/></g><g class="trace scatter tracee24fa5" style="stroke-miterlimit: 2; opacity: 1;"><g class="fills"/><g class="errorbars"/><g class="lines"><path class="js-line" d="M0,279.37Q0.64,278.49 0.9,277.82C1.3,276.79 1.53,275.17 1.81,273.66C2.14,271.87 2.42,269.81 2.71,267.76C3.02,265.54 3.32,263.16 3.62,260.79C3.93,258.33 4.22,255.79 4.52,253.26C4.82,250.69 5.12,248.07 5.42,245.48C5.72,242.89 6.03,240.29 6.33,237.72C6.63,235.18 6.92,232.65 7.23,230.16C7.53,227.73 7.83,225.32 8.14,222.96C8.44,220.68 8.73,218.44 9.04,216.25C9.34,214.16 9.64,212.1 9.95,210.11C10.24,208.23 10.54,206.4 10.85,204.64C11.14,203 11.43,201.41 11.75,199.9C12.04,198.52 12.34,197.18 12.66,195.94C12.95,194.83 13.23,193.76 13.56,192.8C13.84,191.97 14.14,191.17 14.47,190.5C14.75,189.94 15.03,189.4 15.37,189.04C15.64,188.75 15.95,188.48 16.27,188.41C16.56,188.35 16.9,188.44 17.18,188.59C17.51,188.77 17.8,189.15 18.08,189.53C18.41,189.98 18.7,190.56 18.99,191.15C19.31,191.82 19.6,192.58 19.89,193.35C20.2,194.19 20.5,195.1 20.79,196.01C21.1,196.96 21.4,197.96 21.7,198.95C22,199.94 22.29,200.97 22.6,201.95C22.9,202.9 23.19,203.87 23.51,204.76C23.8,205.58 24.08,206.4 24.41,207.09C24.69,207.69 24.97,208.31 25.32,208.7C25.59,209.01 25.91,209.33 26.22,209.36C26.51,209.39 26.85,209.19 27.12,208.96C27.47,208.67 27.75,208.14 28.03,207.64C28.36,207.04 28.64,206.31 28.93,205.57C29.25,204.74 29.55,203.83 29.84,202.9C30.15,201.89 30.45,200.82 30.74,199.74C31.05,198.6 31.34,197.41 31.64,196.21C31.95,194.97 32.25,193.7 32.55,192.43C32.85,191.14 33.15,189.84 33.45,188.54C33.75,187.25 34.06,185.94 34.36,184.66C34.66,183.4 34.95,182.14 35.26,180.91C35.56,179.72 35.85,178.54 36.16,177.41C36.45,176.33 36.76,175.27 37.07,174.26C37.36,173.32 37.65,172.4 37.97,171.55C38.26,170.78 38.56,170.03 38.88,169.37C39.16,168.79 39.45,168.23 39.78,167.78C40.06,167.4 40.35,167.02 40.68,166.82C40.96,166.65 41.29,166.53 41.59,166.56C41.9,166.59 42.21,166.79 42.49,167.03C42.83,167.32 43.12,167.78 43.4,168.26C43.73,168.83 44.02,169.52 44.3,170.25C44.63,171.09 44.92,172.03 45.21,173.01C45.53,174.1 45.82,175.29 46.11,176.52C46.42,177.85 46.72,179.27 47.01,180.72C47.32,182.26 47.63,183.87 47.92,185.51C48.23,187.23 48.52,189 48.82,190.8C49.13,192.67 49.43,194.58 49.73,196.52C50.04,198.54 50.34,200.6 50.63,202.7C50.94,204.88 51.23,207.1 51.53,209.36C51.84,211.69 52.14,214.07 52.44,216.47C52.75,218.92 53.04,221.42 53.34,223.92C53.64,226.45 53.95,229.02 54.25,231.54C54.55,234.01 54.84,236.5 55.15,238.89C55.44,241.18 55.74,243.42 56.05,245.61C56.35,247.7 56.65,249.77 56.96,251.74C57.25,253.58 57.53,255.42 57.86,257.06C58.14,258.5 58.41,259.97 58.77,261.07C59.04,261.88 59.27,262.93 59.67,263.1C59.93,263.21 60.32,263.02 60.58,262.77C60.99,262.36 61.21,261.32 61.48,260.45C61.82,259.38 62.09,258.07 62.38,256.79C62.7,255.39 62.99,253.89 63.29,252.39C63.6,250.84 63.89,249.23 64.19,247.64C64.49,246.04 64.8,244.41 65.1,242.81C65.4,241.22 65.7,239.62 66,238.06C66.3,236.54 66.59,235.02 66.9,233.55C67.2,232.13 67.5,230.73 67.81,229.38C68.1,228.1 68.4,226.84 68.71,225.65C69,224.54 69.3,223.45 69.62,222.44C69.91,221.52 70.2,220.62 70.52,219.82C70.8,219.11 71.09,218.42 71.42,217.85C71.7,217.36 71.99,216.89 72.33,216.58C72.61,216.32 72.92,216.09 73.23,216.04C73.52,216 73.86,216.1 74.14,216.27C74.48,216.47 74.76,216.88 75.04,217.29C75.38,217.79 75.67,218.43 75.95,219.1C76.28,219.88 76.57,220.79 76.85,221.72C77.17,222.77 77.46,223.92 77.75,225.11C78.07,226.42 78.37,227.82 78.66,229.25C78.97,230.79 79.27,232.4 79.56,234.05C79.87,235.79 80.17,237.59 80.47,239.41C80.78,241.31 81.07,243.26 81.37,245.22C81.67,247.24 81.97,249.3 82.27,251.37C82.58,253.49 82.88,255.64 83.18,257.8C83.48,259.99 83.78,262.2 84.08,264.4C84.38,266.61 84.69,268.84 84.99,271.03C85.29,273.19 85.58,275.36 85.89,277.46C86.18,279.49 86.48,281.52 86.79,283.44C87.08,285.24 87.38,287.02 87.7,288.64C87.99,290.07 88.26,291.5 88.6,292.67C88.88,293.6 89.11,294.62 89.51,295.14C89.77,295.47 90.13,295.81 90.41,295.76C90.75,295.69 91.06,294.95 91.32,294.36C91.7,293.51 91.94,292.26 92.22,291.04C92.55,289.57 92.83,287.85 93.12,286.12C93.44,284.2 93.74,282.12 94.03,280.03C94.34,277.82 94.63,275.5 94.93,273.19C95.24,270.82 95.54,268.39 95.84,265.97C96.14,263.54 96.44,261.08 96.74,258.64C97.04,256.21 97.34,253.77 97.64,251.36C97.94,248.98 98.24,246.61 98.55,244.28C98.85,242.01 99.14,239.76 99.45,237.56C99.75,235.45 100.05,233.36 100.36,231.34C100.65,229.41 100.95,227.52 101.26,225.7C101.55,223.99 101.85,222.32 102.16,220.73C102.45,219.25 102.75,217.8 103.07,216.44C103.36,215.19 103.65,213.99 103.97,212.86C104.26,211.84 104.56,210.85 104.88,209.95C105.17,209.15 105.46,208.39 105.78,207.7C106.06,207.09 106.36,206.52 106.68,206.03C106.96,205.6 107.27,205.21 107.59,204.88C107.88,204.58 108.18,204.34 108.49,204.12C108.78,203.92 109.09,203.76 109.4,203.61C109.7,203.46 110,203.35 110.3,203.2C110.61,203.05 110.92,202.9 111.21,202.7C111.52,202.48 111.83,202.22 112.11,201.91C112.43,201.56 112.73,201.13 113.01,200.66C113.34,200.11 113.64,199.48 113.92,198.8C114.25,198.01 114.54,197.11 114.82,196.17C115.14,195.1 115.44,193.94 115.73,192.72C116.05,191.37 116.34,189.92 116.63,188.43C116.94,186.82 117.24,185.13 117.53,183.4C117.84,181.58 118.14,179.67 118.44,177.76C118.75,175.78 119.04,173.74 119.34,171.7C119.64,169.61 119.95,167.49 120.25,165.37C120.55,163.24 120.85,161.1 121.15,158.97C121.45,156.85 121.75,154.73 122.05,152.63C122.35,150.57 122.65,148.51 122.96,146.5C123.26,144.54 123.55,142.6 123.86,140.71C124.16,138.88 124.46,137.08 124.77,135.33C125.06,133.67 125.36,132.03 125.67,130.46C125.96,128.98 126.27,127.52 126.58,126.15C126.87,124.88 127.16,123.65 127.48,122.51C127.77,121.49 128.05,120.5 128.38,119.62C128.66,118.86 128.95,118.12 129.29,117.54C129.57,117.06 129.85,116.59 130.19,116.33C130.47,116.13 130.81,115.97 131.1,116C131.41,116.03 131.73,116.29 132,116.57C132.35,116.92 132.62,117.48 132.9,118.05C133.24,118.73 133.53,119.56 133.81,120.42C134.14,121.42 134.42,122.53 134.71,123.69C135.03,124.99 135.33,126.39 135.62,127.84C135.94,129.43 136.23,131.11 136.52,132.84C136.83,134.71 137.13,136.67 137.42,138.68C137.73,140.81 138.04,143.02 138.33,145.28C138.64,147.65 138.93,150.11 139.23,152.59C139.54,155.17 139.84,157.81 140.14,160.47C140.45,163.2 140.74,165.98 141.04,168.76C141.34,171.57 141.65,174.42 141.95,177.23C142.25,180.02 142.54,182.83 142.85,185.55C143.14,188.16 143.43,190.79 143.75,193.21C144.04,195.41 144.32,197.63 144.66,199.48C144.93,200.96 145.14,202.53 145.56,203.46C145.82,204.04 146.15,204.73 146.47,204.75C146.76,204.77 147.11,204.22 147.37,203.78C147.75,203.14 147.99,202.08 148.27,201.1C148.6,199.94 148.89,198.59 149.18,197.25C149.5,195.79 149.78,194.22 150.08,192.67C150.39,191.06 150.69,189.39 150.99,187.75C151.29,186.1 151.59,184.42 151.89,182.79C152.19,181.19 152.48,179.6 152.79,178.06C153.09,176.59 153.39,175.13 153.7,173.74C153.99,172.45 154.28,171.18 154.6,170C154.89,168.92 155.19,167.88 155.51,166.94C155.79,166.12 156.08,165.32 156.41,164.66C156.69,164.11 156.97,163.55 157.32,163.21C157.59,162.94 157.91,162.68 158.22,162.66C158.51,162.64 158.85,162.81 159.12,163.03C159.47,163.31 159.75,163.83 160.03,164.34C160.37,164.98 160.65,165.77 160.93,166.6C161.26,167.56 161.55,168.65 161.84,169.79C162.16,171.07 162.45,172.46 162.74,173.9C163.06,175.48 163.35,177.16 163.64,178.89C163.95,180.75 164.26,182.7 164.55,184.7C164.86,186.82 165.15,189.04 165.45,191.27C165.76,193.59 166.06,195.99 166.36,198.38C166.66,200.8 166.96,203.24 167.26,205.69C167.56,208.17 167.85,210.76 168.16,213.18C168.45,215.46 168.76,217.66 169.07,219.8C169.36,221.82 169.66,223.81 169.97,225.7C170.26,227.44 170.58,229.02 170.88,230.72C171.19,232.49 171.48,234.3 171.78,236.12C172.08,237.99 172.38,239.92 172.68,241.82C172.98,243.73 173.28,245.68 173.59,247.57C173.89,249.41 174.18,251.27 174.49,253.02C174.78,254.65 175.07,256.29 175.4,257.73C175.68,258.96 175.93,260.24 176.3,261.13C176.57,261.76 176.87,262.59 177.21,262.65C177.49,262.7 177.85,262.31 178.11,261.94C178.53,261.33 178.74,260.11 179.01,258.99C179.36,257.55 179.64,255.79 179.92,254C180.25,251.93 180.53,249.63 180.82,247.29C181.14,244.72 181.44,241.97 181.73,239.19C182.04,236.25 182.33,233.17 182.63,230.09C182.94,226.9 183.23,223.63 183.53,220.37C183.83,217.06 184.14,213.69 184.44,210.35C184.74,207.01 185.04,203.65 185.34,200.32C185.64,197.03 185.95,193.73 186.25,190.49C186.55,187.31 186.85,184.15 187.15,181.04C187.45,178.02 187.74,175.02 188.05,172.1C188.35,169.28 188.65,166.5 188.96,163.79C189.26,161.2 189.55,158.66 189.86,156.2C190.15,153.87 190.46,151.6 190.77,149.41C191.06,147.37 191.36,145.37 191.67,143.48C191.96,141.73 192.26,140.04 192.58,138.45C192.87,137.02 193.16,135.64 193.48,134.38C193.76,133.27 194.05,132.21 194.38,131.28C194.66,130.5 194.94,129.73 195.29,129.16C195.56,128.71 195.85,128.24 196.19,128.05C196.47,127.9 196.82,127.84 197.1,127.93C197.43,128.04 197.73,128.44 198,128.82C198.35,129.31 198.62,129.99 198.9,130.69C199.23,131.53 199.53,132.52 199.81,133.55C200.14,134.73 200.42,136.03 200.71,137.38C201.03,138.88 201.33,140.49 201.62,142.16C201.94,143.98 202.23,145.9 202.52,147.88C202.83,150.01 203.13,152.23 203.42,154.51C203.73,156.93 204.04,159.44 204.33,162.01C204.64,164.72 204.93,167.51 205.23,170.35C205.54,173.32 205.84,176.37 206.14,179.47C206.45,182.69 206.74,185.98 207.04,189.31C207.35,192.75 207.65,196.26 207.95,199.81C208.26,203.46 208.55,207.16 208.85,210.9C209.15,214.72 209.45,218.58 209.75,222.47C210.05,226.43 210.36,230.43 210.66,234.44C210.96,238.5 211.26,242.59 211.56,246.68C211.86,250.79 212.17,254.93 212.47,259.05C212.77,263.16 213.07,267.28 213.37,271.35C213.67,275.37 213.96,279.42 214.27,283.32C214.57,287.05 214.86,290.84 215.18,294.27C215.47,297.32 215.46,301.44 216.08,302.91C216.33,303.5 216.74,304.07 216.99,304C217.54,303.84 217.61,299.76 217.89,297.32C218.22,294.37 218.5,290.9 218.79,287.52C219.1,283.91 219.4,280.11 219.7,276.32C220.01,272.4 220.3,268.39 220.6,264.37C220.9,260.28 221.21,256.12 221.51,251.97C221.81,247.78 222.11,243.56 222.41,239.35C222.71,235.13 223.02,230.89 223.32,226.67C223.62,222.46 223.92,218.25 224.22,214.07C224.52,209.92 224.82,205.78 225.12,201.67C225.42,197.62 225.73,193.58 226.03,189.59C226.33,185.67 226.62,181.77 226.93,177.93C227.23,174.17 227.53,170.45 227.84,166.78C228.14,163.21 228.43,159.68 228.74,156.22C229.04,152.87 229.33,149.57 229.64,146.35C229.94,143.25 230.24,140.2 230.55,137.23C230.84,134.39 231.14,131.61 231.45,128.92C231.74,126.38 232.05,123.89 232.36,121.5C232.65,119.26 232.95,117.08 233.26,115.01C233.55,113.1 233.84,111.25 234.16,109.51C234.45,107.94 234.75,106.42 235.07,105.03C235.35,103.81 235.64,102.63 235.97,101.6C236.25,100.73 236.53,99.89 236.88,99.25C237.15,98.75 237.43,98.22 237.78,98C238.05,97.83 238.4,97.76 238.68,97.86C239.02,97.98 239.32,98.42 239.59,98.83C239.94,99.37 240.21,100.13 240.49,100.91C240.83,101.85 241.12,102.94 241.4,104.08C241.73,105.38 242.01,106.82 242.3,108.31C242.62,109.97 242.92,111.74 243.21,113.58C243.53,115.58 243.82,117.68 244.11,119.85C244.42,122.17 244.72,124.59 245.01,127.07C245.32,129.69 245.63,132.41 245.92,135.18C246.23,138.09 246.52,141.08 246.82,144.12C247.13,147.28 247.43,150.52 247.73,153.8C248.04,157.19 248.33,160.65 248.63,164.15C248.93,167.74 249.23,171.39 249.53,175.06C249.83,178.81 250.14,182.61 250.44,186.43C250.74,190.3 251.04,194.22 251.34,198.13C251.64,202.07 251.95,206.05 252.25,210C252.55,213.95 252.85,217.91 253.15,221.83C253.45,225.69 253.74,229.57 254.05,233.34C254.35,236.99 254.65,240.64 254.96,244.1C255.25,247.33 255.54,250.54 255.86,253.48C256.15,256.08 256.43,258.64 256.77,260.84C257.05,262.65 257.3,264.41 257.67,265.76C257.94,266.73 258.16,267.8 258.58,268.22C258.84,268.47 259.21,268.63 259.48,268.54C259.83,268.43 260.11,267.76 260.38,267.23C260.73,266.55 261.01,265.63 261.29,264.72C261.62,263.67 261.9,262.48 262.19,261.28C262.5,259.99 262.8,258.6 263.1,257.23C263.41,255.82 263.7,254.36 264,252.93C264.3,251.5 264.6,250.05 264.9,248.63C265.2,247.23 265.5,245.84 265.81,244.48C266.11,243.16 266.4,241.85 266.71,240.57C267.01,239.33 267.31,238.12 267.62,236.93C267.92,235.79 268.21,234.68 268.52,233.59C268.81,232.55 269.11,231.53 269.42,230.54C269.72,229.59 270.02,228.67 270.33,227.77C270.63,226.91 270.92,226.07 271.23,225.26C271.53,224.48 271.83,223.72 272.14,222.98C272.43,222.28 272.73,221.6 273.04,220.94C273.34,220.31 273.64,219.68 273.95,219.09C274.24,218.52 274.54,217.98 274.85,217.45C275.14,216.94 275.44,216.45 275.75,215.98C276.05,215.53 276.35,215.1 276.66,214.69C276.96,214.29 277.25,213.9 277.56,213.54C277.86,213.19 278.16,212.86 278.47,212.54C278.77,212.23 279.07,211.95 279.37,211.67C279.67,211.4 279.96,211.14 280.27,210.9C280.57,210.67 280.87,210.45 281.18,210.24C281.48,210.04 281.78,209.85 282.08,209.67C282.38,209.49 282.69,209.33 282.99,209.18C283.29,209.03 283.59,208.89 283.89,208.76C284.19,208.63 284.49,208.51 284.79,208.4C285.09,208.29 285.4,208.2 285.7,208.11C286,208.03 286.3,207.95 286.6,207.89C286.9,207.83 287.21,207.77 287.51,207.73C287.81,207.69 288.11,207.66 288.41,207.65C288.71,207.64 289.02,207.63 289.32,207.65C289.62,207.67 289.92,207.69 290.22,207.74C290.52,207.79 290.82,207.86 291.12,207.94C291.42,208.03 291.73,208.13 292.03,208.25C292.33,208.38 292.63,208.53 292.93,208.69C293.24,208.86 293.54,209.05 293.84,209.26C294.15,209.48 294.45,209.71 294.74,209.97C295.05,210.24 295.34,210.53 295.64,210.83C295.95,211.15 296.25,211.49 296.55,211.84C296.86,212.21 297.15,212.59 297.45,212.99C297.76,213.4 298.06,213.84 298.36,214.28C298.67,214.74 298.96,215.21 299.26,215.69C299.56,216.19 299.86,216.7 300.16,217.22C300.47,217.75 300.77,218.3 301.07,218.85C301.37,219.41 301.67,219.99 301.97,220.57C302.28,221.17 302.58,221.78 302.88,222.39C303.18,223.01 303.48,223.64 303.78,224.28C304.08,224.93 304.38,225.59 304.68,226.25C304.98,226.92 305.28,227.64 305.59,228.27C305.88,228.86 306.17,229.43 306.49,229.93C306.78,230.37 307.1,230.73 307.4,231.13C307.7,231.54 308,231.95 308.3,232.37C308.61,232.81 308.91,233.26 309.21,233.72C309.52,234.2 309.82,234.7 310.11,235.21C310.42,235.75 310.72,236.3 311.01,236.88C311.32,237.48 311.63,238.11 311.92,238.76C312.23,239.44 312.53,240.15 312.82,240.89C313.13,241.67 313.44,242.48 313.73,243.32C314.04,244.21 314.34,245.13 314.63,246.08C314.94,247.09 315.24,248.13 315.53,249.2C315.84,250.33 316.15,251.5 316.44,252.7C316.75,253.97 317.04,255.28 317.34,256.61C317.65,258 317.95,259.45 318.25,260.88C318.55,262.33 318.85,263.8 319.15,265.26C319.45,266.72 319.75,268.15 320.05,269.62C320.36,271.13 320.66,272.66 320.96,274.2C321.26,275.76 321.56,277.34 321.86,278.91C322.16,280.48 322.46,282.07 322.77,283.6C323.07,285.08 323.35,286.58 323.67,287.97C323.96,289.24 324.24,290.55 324.58,291.61C324.86,292.47 325.07,293.48 325.48,293.89C325.74,294.15 326.11,294.33 326.38,294.24C326.75,294.11 327.02,293.29 327.29,292.63C327.66,291.71 327.92,290.45 328.19,289.14C328.53,287.5 328.82,285.56 329.1,283.55C329.43,281.2 329.71,278.57 330,275.89C330.32,272.94 330.61,269.77 330.9,266.58C331.21,263.2 331.51,259.67 331.81,256.13C332.12,252.47 332.41,248.72 332.71,244.97C333.01,241.16 333.32,237.29 333.62,233.43C333.92,229.55 334.22,225.65 334.52,221.76C334.82,217.88 335.12,213.98 335.42,210.12C335.72,206.29 336.03,202.46 336.33,198.67C336.63,194.93 336.93,191.2 337.23,187.51C337.53,183.89 337.83,180.29 338.14,176.75C338.44,173.29 338.73,169.85 339.04,166.48C339.34,163.21 339.64,159.97 339.95,156.8C340.25,153.74 340.54,150.72 340.85,147.78C341.14,144.96 341.44,142.2 341.75,139.51C342.04,136.96 342.35,134.45 342.66,132.04C342.95,129.77 343.25,127.56 343.56,125.45C343.85,123.49 344.15,121.58 344.47,119.78C344.76,118.14 345.05,116.55 345.37,115.09C345.65,113.79 345.94,112.53 346.27,111.41C346.55,110.44 346.84,109.51 347.18,108.75C347.46,108.14 347.72,107.52 348.08,107.16C348.35,106.88 348.69,106.62 348.99,106.62C349.29,106.62 349.62,106.87 349.89,107.14C350.24,107.5 350.51,108.11 350.79,108.71C351.13,109.45 351.42,110.37 351.7,111.31C352.03,112.4 352.31,113.63 352.6,114.9C352.92,116.32 353.22,117.86 353.51,119.45C353.83,121.19 354.12,123.03 354.41,124.92C354.72,126.95 355.03,129.06 355.32,131.23C355.63,133.53 355.93,135.91 356.22,138.34C356.53,140.88 356.82,143.5 357.12,146.16C357.43,148.93 357.73,151.76 358.03,154.63C358.34,157.59 358.63,160.6 358.93,163.65C359.24,166.77 359.54,169.95 359.84,173.14C360.14,176.39 360.44,179.69 360.74,182.99C361.04,186.34 361.34,189.71 361.64,193.09C361.94,196.5 362.25,199.93 362.55,203.35C362.85,206.77 363.15,210.21 363.45,213.63C363.75,217.03 364.06,220.42 364.36,223.79C364.66,227.12 364.96,230.44 365.26,233.72C365.56,236.94 365.85,240.14 366.16,243.28C366.46,246.34 366.76,249.42 367.07,252.32C367.36,255.01 367.66,257.6 367.97,260.1C368.26,262.43 368.57,264.65 368.88,266.86C369.18,268.98 369.47,271.07 369.78,273.1C370.07,275.04 370.37,276.96 370.68,278.8C370.97,280.54 371.28,282.24 371.59,283.86C371.88,285.36 372.17,286.83 372.49,288.2C372.78,289.44 373.08,290.63 373.4,291.71C373.68,292.66 373.97,293.56 374.3,294.34C374.58,294.99 374.87,295.61 375.21,296.09C375.49,296.48 375.78,296.87 376.11,297.04C376.39,297.18 376.73,297.25 377.01,297.17C377.34,297.07 377.64,296.71 377.92,296.36C378.26,295.93 378.55,295.38 378.82,294.73C379.18,293.85 379.45,292.64 379.73,291.48C380.05,290.16 380.34,288.68 380.63,287.2C380.94,285.62 381.24,283.97 381.53,282.28C381.84,280.49 382.15,278.63 382.44,276.73C382.75,274.74 383.04,272.68 383.34,270.59C383.65,268.41 383.95,266.17 384.25,263.9C384.56,261.55 384.86,259.17 385.15,256.73C385.46,254.18 385.76,251.61 386.05,248.92C386.36,246.04 386.67,243.03 386.96,239.97C387.27,236.74 387.56,233.37 387.86,230C388.17,226.53 388.47,222.97 388.77,219.42C389.07,215.84 389.37,212.22 389.67,208.62C389.97,205 390.28,201.37 390.58,197.76C390.88,194.16 391.18,190.55 391.48,186.97C391.78,183.42 392.08,179.88 392.38,176.37C392.68,172.91 392.99,169.47 393.29,166.07C393.59,162.74 393.88,159.44 394.19,156.19C394.49,153.03 394.79,149.9 395.1,146.84C395.4,143.88 395.69,140.97 396,138.13C396.29,135.41 396.59,132.73 396.9,130.14C397.19,127.68 397.5,125.27 397.81,122.96C398.1,120.8 398.4,118.69 398.71,116.68C399,114.83 399.3,113.03 399.62,111.35C399.91,109.83 400.2,108.36 400.52,107.02C400.8,105.85 401.09,104.73 401.42,103.76C401.7,102.95 401.98,102.16 402.33,101.58C402.6,101.14 402.89,100.67 403.23,100.52C403.51,100.4 403.87,100.43 404.14,100.57C404.49,100.75 404.77,101.27 405.04,101.75C405.39,102.37 405.67,103.19 405.95,104.03C406.28,105.04 406.57,106.2 406.85,107.4C407.17,108.76 407.46,110.26 407.75,111.8C408.07,113.51 408.37,115.33 408.66,117.2C408.97,119.22 409.27,121.35 409.56,123.53C409.87,125.85 410.18,128.26 410.47,130.72C410.78,133.3 411.08,135.96 411.37,138.66C411.68,141.47 411.97,144.36 412.27,147.27C412.58,150.27 412.88,153.33 413.18,156.41C413.48,159.56 413.78,162.75 414.08,165.95C414.38,169.19 414.69,172.47 414.99,175.74C415.29,179.02 415.59,182.32 415.89,185.6C416.19,188.85 416.49,192.12 416.79,195.33C417.09,198.49 417.39,201.64 417.7,204.72C418,207.7 418.29,210.67 418.6,213.53C418.89,216.26 419.2,218.95 419.51,221.51C419.8,223.9 420.09,226.24 420.41,228.42C420.7,230.38 420.99,232.31 421.32,234.01C421.6,235.46 421.86,236.91 422.22,238.02C422.49,238.85 422.72,239.96 423.12,240.12C423.38,240.23 423.78,240.04 424.03,239.75C424.52,239.19 424.66,237.57 424.93,236.24C425.28,234.54 425.55,232.4 425.84,230.35C426.16,228.12 426.45,225.72 426.74,223.34C427.05,220.86 427.34,218.3 427.64,215.75C427.94,213.15 428.25,210.52 428.55,207.89C428.85,205.25 429.15,202.58 429.45,199.93C429.75,197.29 430.06,194.64 430.36,192.01C430.66,189.4 430.96,186.79 431.26,184.21C431.56,181.66 431.86,179.12 432.16,176.61C432.46,174.14 432.77,171.69 433.07,169.26C433.37,166.87 433.67,164.5 433.97,162.16C434.27,159.86 434.58,157.58 434.88,155.33C435.18,153.12 435.48,150.93 435.78,148.76C436.08,146.63 436.38,144.52 436.68,142.43C436.98,140.37 437.29,138.34 437.59,136.31C437.89,134.31 438.19,132.33 438.49,130.36C438.79,128.41 439.1,126.48 439.4,124.55C439.7,122.64 440,120.74 440.3,118.84C440.6,116.96 440.91,115.08 441.21,113.21C441.51,111.34 441.81,109.48 442.11,107.62C442.41,105.76 442.71,103.91 443.01,102.06C443.31,100.21 443.62,98.36 443.92,96.51C444.22,94.66 444.52,92.81 444.82,90.96C445.12,89.11 445.43,87.25 445.73,85.4C446.03,83.55 446.33,81.71 446.63,79.86C446.93,78.02 447.23,76.17 447.53,74.33C447.83,72.5 448.14,70.67 448.44,68.84C448.74,67.02 449.04,65.2 449.34,63.4C449.64,61.61 449.95,59.84 450.25,58.07C450.55,56.32 450.85,54.58 451.15,52.86C451.45,51.17 451.74,49.48 452.05,47.82C452.35,46.19 452.65,44.58 452.96,43C453.26,41.46 453.55,39.93 453.86,38.44C454.16,37 454.46,35.57 454.77,34.19C455.07,32.86 455.36,31.56 455.67,30.3C455.96,29.1 456.27,27.93 456.58,26.81C456.87,25.76 457.17,24.74 457.48,23.77C457.77,22.87 458.06,22 458.38,21.2C458.67,20.47 458.97,19.76 459.29,19.13C459.58,18.57 459.87,18.04 460.19,17.59C460.47,17.19 460.78,16.82 461.1,16.55Q461.38,16.31 462,16" style="vector-effect: non-scaling-stroke; fill: none; stroke: rgb(231, 107, 243); stroke-opacity: 1; stroke-width: 2px; opacity: 1;"/></g><g class="points"/><g class="text"/></g></g></g><g class="overplot"/><path class="xlines-above crisp" d="M0,0" style="fill: none;"/><path class="ylines-above crisp" d="M0,0" style="fill: none;"/><g class="overlines-above"/><g class="xaxislayer-above"><g class="xtick"><text text-anchor="middle" x="0" y="433" transform="translate(80,0)" style="font-family: 'Open Sans', verdana, arial, sans-serif; font-size: 12px; fill: rgb(42, 63, 95); fill-opacity: 1; white-space: pre;">0</text></g><g class="xtick"><text text-anchor="middle" x="0" y="433" transform="translate(170.23000000000002,0)" style="font-family: 'Open Sans', verdana, arial, sans-serif; font-size: 12px; fill: rgb(42, 63, 95); fill-opacity: 1; white-space: pre;">100</text></g><g class="xtick"><text text-anchor="middle" x="0" y="433" transform="translate(260.47,0)" style="font-family: 'Open Sans', verdana, arial, sans-serif; font-size: 12px; fill: rgb(42, 63, 95); fill-opacity: 1; white-space: pre;">200</text></g><g class="xtick"><text text-anchor="middle" x="0" y="433" transform="translate(350.7,0)" style="font-family: 'Open Sans', verdana, arial, sans-serif; font-size: 12px; fill: rgb(42, 63, 95); fill-opacity: 1; white-space: pre;">300</text></g><g class="xtick"><text text-anchor="middle" x="0" y="433" transform="translate(440.94,0)" style="font-family: 'Open Sans', verdana, arial, sans-serif; font-size: 12px; fill: rgb(42, 63, 95); fill-opacity: 1; white-space: pre;">400</text></g><g class="xtick"><text text-anchor="middle" x="0" y="433" transform="translate(531.1700000000001,0)" style="font-family: 'Open Sans', verdana, arial, sans-serif; font-size: 12px; fill: rgb(42, 63, 95); fill-opacity: 1; white-space: pre;">500</text></g></g><g class="yaxislayer-above"><g class="ytick"><text text-anchor="end" x="79" y="4.199999999999999" transform="translate(0,390.57)" style="font-family: 'Open Sans', verdana, arial, sans-serif; font-size: 12px; fill: rgb(42, 63, 95); fill-opacity: 1; white-space: pre;">400</text></g><g class="ytick"><text text-anchor="end" x="79" y="4.199999999999999" transform="translate(0,346.99)" style="font-family: 'Open Sans', verdana, arial, sans-serif; font-size: 12px; fill: rgb(42, 63, 95); fill-opacity: 1; white-space: pre;">600</text></g><g class="ytick"><text text-anchor="end" x="79" y="4.199999999999999" transform="translate(0,303.40999999999997)" style="font-family: 'Open Sans', verdana, arial, sans-serif; font-size: 12px; fill: rgb(42, 63, 95); fill-opacity: 1; white-space: pre;">800</text></g><g class="ytick"><text text-anchor="end" x="79" y="4.199999999999999" transform="translate(0,259.83000000000004)" style="font-family: 'Open Sans', verdana, arial, sans-serif; font-size: 12px; fill: rgb(42, 63, 95); fill-opacity: 1; white-space: pre;">1000</text></g><g class="ytick"><text text-anchor="end" x="79" y="4.199999999999999" transform="translate(0,216.26)" style="font-family: 'Open Sans', verdana, arial, sans-serif; font-size: 12px; fill: rgb(42, 63, 95); fill-opacity: 1; white-space: pre;">1200</text></g><g class="ytick"><text text-anchor="end" x="79" y="4.199999999999999" transform="translate(0,172.68)" style="font-family: 'Open Sans', verdana, arial, sans-serif; font-size: 12px; fill: rgb(42, 63, 95); fill-opacity: 1; white-space: pre;">1400</text></g><g class="ytick"><text text-anchor="end" x="79" y="4.199999999999999" transform="translate(0,129.1)" style="font-family: 'Open Sans', verdana, arial, sans-serif; font-size: 12px; fill: rgb(42, 63, 95); fill-opacity: 1; white-space: pre;">1600</text></g></g><g class="overaxes-above"/></g></g><g class="polarlayer"/><g class="ternarylayer"/><g class="geolayer"/><g class="funnelarealayer"/><g class="pielayer"/><g class="treemaplayer"/><g class="sunburstlayer"/><g class="glimages"/><defs id="topdefs-c1c5f1"><g class="clips"/><clipPath id="legendc1c5f1"><rect width="137" height="67" x="0" y="0"/></clipPath></defs><g class="layer-above"><g class="imagelayer"/><g class="shapelayer"/></g><g class="infolayer"><g class="legend" pointer-events="all" transform="translate(551.24, 100)"><rect class="bg" shape-rendering="crispEdges" width="137" height="67" x="0" y="0" style="stroke: rgb(68, 68, 68); stroke-opacity: 1; fill: rgb(255, 255, 255); fill-opacity: 1; stroke-width: 0px;"/><g class="scrollbox" transform="translate(0, 0)" clip-path="url('#legendc1c5f1')"><g class="groups"><g class="traces" transform="translate(0, 14.5)" style="opacity: 1;"><text class="legendtext" text-anchor="start" x="40" y="4.680000000000001" style="font-family: 'Open Sans', verdana, arial, sans-serif; font-size: 12px; fill: rgb(42, 63, 95); fill-opacity: 1; white-space: pre;">Average Class I</text><g class="layers" style="opacity: 1;"><g class="legendfill"/><g class="legendlines"><path class="js-line" d="M5,0h30" style="fill: none; stroke: rgb(0, 100, 80); stroke-opacity: 1; stroke-width: 2px;"/></g><g class="legendsymbols"><g class="legendpoints"/></g></g><rect class="legendtoggle" x="0" y="-9.5" width="131.15625" height="19" style="fill: rgb(0, 0, 0); fill-opacity: 0;"/></g><g class="traces" transform="translate(0, 33.5)" style="opacity: 1;"><text class="legendtext" text-anchor="start" x="40" y="4.680000000000001" style="font-family: 'Open Sans', verdana, arial, sans-serif; font-size: 12px; fill: rgb(42, 63, 95); fill-opacity: 1; white-space: pre;">Average Class II</text><g class="layers" style="opacity: 1;"><g class="legendfill"/><g class="legendlines"><path class="js-line" d="M5,0h30" style="fill: none; stroke: rgb(0, 176, 246); stroke-opacity: 1; stroke-width: 2px;"/></g><g class="legendsymbols"><g class="legendpoints"/></g></g><rect class="legendtoggle" x="0" y="-9.5" width="131.15625" height="19" style="fill: rgb(0, 0, 0); fill-opacity: 0;"/></g><g class="traces" transform="translate(0, 52.5)" style="opacity: 1;"><text class="legendtext" text-anchor="start" x="40" y="4.680000000000001" style="font-family: 'Open Sans', verdana, arial, sans-serif; font-size: 12px; fill: rgb(42, 63, 95); fill-opacity: 1; white-space: pre;">Average Class III</text><g class="layers" style="opacity: 1;"><g class="legendfill"/><g class="legendlines"><path class="js-line" d="M5,0h30" style="fill: none; stroke: rgb(231, 107, 243); stroke-opacity: 1; stroke-width: 2px;"/></g><g class="legendsymbols"><g class="legendpoints"/></g></g><rect class="legendtoggle" x="0" y="-9.5" width="131.15625" height="19" style="fill: rgb(0, 0, 0); fill-opacity: 0;"/></g></g></g><rect class="scrollbar" rx="20" ry="3" width="0" height="0" x="0" y="0" style="fill: rgb(128, 139, 164); fill-opacity: 1;"/></g><g class="g-gtitle"><text class="gtitle" x="35" y="50" text-anchor="start" dy="0em" style="font-family: 'Open Sans', verdana, arial, sans-serif; font-size: 17px; fill: rgb(42, 63, 95); opacity: 1; font-weight: normal; white-space: pre;">Average curve: index_group</text></g><g class="g-xtitle"><text class="xtitle" x="311" y="460.8" text-anchor="middle" style="font-family: 'Open Sans', verdana, arial, sans-serif; font-size: 14px; fill: rgb(42, 63, 95); opacity: 1; font-weight: normal; white-space: pre;">Domain</text></g><g class="g-ytitle"><text class="ytitle" transform="rotate(-90,27.496875000000003,260)" x="27.496875000000003" y="260" text-anchor="middle" style="font-family: 'Open Sans', verdana, arial, sans-serif; font-size: 14px; fill: rgb(42, 63, 95); opacity: 1; font-weight: normal; white-space: pre;">Frequency</text></g></g></svg>