<svg class="main-svg" xmlns="http://www.w3.org/2000/svg" xmlns:xlink="http://www.w3.org/1999/xlink" width="700" height="500" style="" viewBox="0 0 700 500"><rect x="0" y="0" width="700" height="500" style="fill: rgb(255, 255, 255); fill-opacity: 1;"/><defs id="defs-c47371"><g class="clips"><clipPath id="clipc47371xyplot" class="plotclip"><rect width="462" height="320"/></clipPath><clipPath class="axesclip" id="clipc47371x"><rect x="80" y="0" width="462" height="500"/></clipPath><clipPath class="axesclip" id="clipc47371y"><rect x="0" y="100" width="700" height="320"/></clipPath><clipPath class="axesclip" id="clipc47371xy"><rect x="80" y="100" width="462" height="320"/></clipPath></g><g class="gradients"/></defs><g class="bglayer"><rect class="bg" x="80" y="100" width="462" height="320" style="fill: rgb(229, 236, 246); fill-opacity: 1; stroke-width: 0;"/></g><g class="layer-below"><g class="imagelayer"/><g class="shapelayer"/></g><g class="cartesianlayer"><g class="subplot xy"><g class="layer-subplot"><g class="shapelayer"/><g class="imagelayer"/></g><g class="gridlayer"><g class="x"><path class="xgrid crisp" transform="translate(170.23000000000002,0)" d="M0,100v320" style="stroke: rgb(255, 255, 255); stroke-opacity: 1; stroke-width: 1px;"/><path class="xgrid crisp" transform="translate(260.47,0)" d="M0,100v320" style="stroke: rgb(255, 255, 255); stroke-opacity: 1; stroke-width: 1px;"/><path class="xgrid crisp" transform="translate(350.7,0)" d="M0,100v320" style="stroke: rgb(255, 255, 255); stroke-opacity: 1; stroke-width: 1px;"/><path class="xgrid crisp" transform="translate(440.94,0)" d="M0,100v320" style="stroke: rgb(255, 255, 255); stroke-opacity: 1; stroke-width: 1px;"/><path class="xgrid crisp" transform="translate(531.1700000000001,0)" d="M0,100v320" style="stroke: rgb(255, 255, 255); stroke-opacity: 1; stroke-width: 1px;"/></g><g class="y"><path class="ygrid crisp" transform="translate(0,365.22)" d="M80,0h462" style="stroke: rgb(255, 255, 255); stroke-opacity: 1; stroke-width: 1px;"/><path class="ygrid crisp" transform="translate(0,284.58000000000004)" d="M80,0h462" style="stroke: rgb(255, 255, 255); stroke-opacity: 1; stroke-width: 1px;"/><path class="ygrid crisp" transform="translate(0,203.94)" d="M80,0h462" style="stroke: rgb(255, 255, 255); stroke-opacity: 1; stroke-width: 1px;"/><path class="ygrid crisp" transform="translate(0,123.31)" d="M80,0h462" style="stroke: rgb(255, 255, 255); stroke-opacity: 1; stroke-width: 1px;"/></g></g><g class="zerolinelayer"><path class="xzl zl crisp" transform="translate(80,0)" d="M0,100v320" style="stroke: rgb(255, 255, 255); stroke-opacity: 1; stroke-width: 2px;"/></g><path class="xlines-below"/><path class="ylines-below"/><g class="overlines-below"/><g class="xaxislayer-below"/><g class="yaxislayer-below"/><g class="overaxes-below"/><g class="plot" transform="translate(80, 100)" clip-path="url('#clipc47371xyplot')"><g class="scatterlayer mlayer"><g class="trace scatter trace219b24" style="stroke-miterlimit: 2; opacity: 1;"><g class="fills"/><g class="errorbars"/><g class="lines"><path class="js-line" d="M0,86.45Q0.61,86.36 0.9,86.22C1.22,86.07 1.52,85.81 1.81,85.54C2.13,85.24 2.42,84.86 2.71,84.46C3.03,84.02 3.33,83.53 3.62,83.02C3.93,82.48 4.23,81.89 4.52,81.3C4.83,80.68 5.12,80.02 5.42,79.37C5.73,78.7 6.03,78.02 6.33,77.33C6.63,76.64 6.93,75.93 7.23,75.23C7.53,74.54 7.83,73.85 8.14,73.17C8.44,72.51 8.73,71.85 9.04,71.22C9.34,70.61 9.64,70 9.95,69.42C10.24,68.87 10.54,68.34 10.85,67.85C11.14,67.39 11.43,66.94 11.75,66.55C12.04,66.19 12.34,65.84 12.66,65.56C12.95,65.31 13.25,65.08 13.56,64.93C13.85,64.79 14.17,64.69 14.47,64.68C14.77,64.67 15.08,64.73 15.37,64.84C15.68,64.96 15.98,65.18 16.27,65.43C16.59,65.71 16.89,66.07 17.18,66.46C17.5,66.89 17.79,67.4 18.08,67.93C18.4,68.52 18.7,69.17 18.99,69.85C19.31,70.59 19.6,71.38 19.89,72.2C20.2,73.08 20.5,74.02 20.79,74.98C21.1,76 21.41,77.08 21.7,78.17C22.01,79.32 22.3,80.51 22.6,81.73C22.91,83 23.21,84.31 23.51,85.64C23.82,87.02 24.11,88.43 24.41,89.85C24.72,91.31 25.02,92.81 25.32,94.31C25.62,95.84 25.92,97.39 26.22,98.95C26.52,100.52 26.82,102.11 27.12,103.69C27.42,105.28 27.73,106.88 28.03,108.47C28.33,110.04 28.62,111.62 28.93,113.17C29.23,114.68 29.53,116.2 29.84,117.66C30.14,119.06 30.43,120.45 30.74,121.78C31.03,123.04 31.33,124.25 31.64,125.43C31.93,126.54 32.24,127.62 32.55,128.67C32.84,129.67 33.14,130.65 33.45,131.6C33.75,132.52 34.05,133.42 34.36,134.3C34.66,135.16 34.95,136.03 35.26,136.83C35.55,137.57 35.84,138.3 36.16,138.94C36.45,139.51 36.73,140.09 37.07,140.5C37.35,140.83 37.67,141 37.97,141.26C38.27,141.52 38.59,141.77 38.88,142.06C39.19,142.37 39.49,142.71 39.78,143.07C40.09,143.46 40.39,143.89 40.68,144.34C40.99,144.82 41.3,145.35 41.59,145.89C41.9,146.46 42.2,147.06 42.49,147.68C42.8,148.33 43.1,149 43.4,149.69C43.71,150.4 44,151.13 44.3,151.86C44.6,152.61 44.91,153.37 45.21,154.13C45.51,154.89 45.81,155.66 46.11,156.42C46.41,157.16 46.7,157.91 47.01,158.63C47.31,159.32 47.61,160 47.92,160.64C48.21,161.24 48.5,161.82 48.82,162.35C49.11,162.83 49.41,163.29 49.73,163.68C50.02,164.02 50.31,164.34 50.63,164.57C50.92,164.78 51.22,164.95 51.53,165.04C51.82,165.13 52.14,165.15 52.44,165.14C52.74,165.13 53.04,165.06 53.34,165C53.64,164.94 53.95,164.84 54.25,164.76C54.55,164.69 54.85,164.59 55.15,164.55C55.45,164.51 55.75,164.48 56.05,164.52C56.36,164.56 56.67,164.64 56.96,164.78C57.27,164.93 57.58,165.15 57.86,165.41C58.18,165.71 58.48,166.09 58.77,166.5C59.09,166.97 59.38,167.51 59.67,168.09C59.99,168.74 60.29,169.46 60.58,170.22C60.9,171.06 61.19,171.96 61.48,172.9C61.79,173.92 62.09,175.01 62.38,176.13C62.69,177.33 63,178.59 63.29,179.89C63.6,181.27 63.9,182.7 64.19,184.16C64.5,185.7 64.8,187.29 65.1,188.9C65.41,190.58 65.71,192.3 66,194.05C66.31,195.86 66.6,197.71 66.9,199.58C67.21,201.5 67.51,203.46 67.81,205.43C68.11,207.44 68.41,209.48 68.71,211.53C69.01,213.61 69.32,215.71 69.62,217.82C69.92,219.94 70.22,222.09 70.52,224.22C70.82,226.35 71.12,228.5 71.42,230.62C71.72,232.72 72.02,234.83 72.33,236.88C72.63,238.85 72.91,240.83 73.23,242.67C73.52,244.35 73.83,245.95 74.14,247.49C74.43,248.91 74.73,250.26 75.04,251.57C75.33,252.79 75.63,254 75.95,255.11C76.24,256.11 76.54,257.03 76.85,257.94C77.14,258.79 77.44,259.62 77.75,260.41C78.04,261.15 78.35,261.87 78.66,262.55C78.95,263.19 79.24,263.81 79.56,264.37C79.85,264.88 80.14,265.4 80.47,265.79C80.75,266.12 81.04,266.47 81.37,266.62C81.65,266.75 81.98,266.8 82.27,266.73C82.59,266.65 82.9,266.38 83.18,266.08C83.52,265.71 83.8,265.17 84.08,264.62C84.41,263.96 84.7,263.17 84.99,262.37C85.31,261.47 85.6,260.48 85.89,259.46C86.2,258.34 86.49,257.12 86.79,255.93C87.1,254.71 87.4,253.45 87.7,252.21C88,250.97 88.29,249.72 88.6,248.5C88.9,247.31 89.2,246.12 89.51,244.96C89.81,243.84 90.1,242.74 90.41,241.68C90.71,240.66 91.01,239.67 91.32,238.71C91.61,237.81 91.91,236.93 92.22,236.09C92.51,235.3 92.81,234.53 93.12,233.8C93.41,233.1 93.72,232.43 94.03,231.79C94.32,231.18 94.62,230.6 94.93,230.04C95.22,229.51 95.53,229 95.84,228.5C96.14,228.01 96.44,227.54 96.74,227.06C97.04,226.58 97.34,226.09 97.64,225.6C97.94,225.09 98.25,224.58 98.55,224.06C98.85,223.54 99.15,223.01 99.45,222.5C99.75,222 100.05,221.5 100.36,221.03C100.66,220.57 100.95,220.12 101.26,219.71C101.55,219.32 101.85,218.96 102.16,218.63C102.45,218.32 102.76,218.03 103.07,217.8C103.36,217.58 103.66,217.4 103.97,217.26C104.26,217.13 104.57,217.04 104.88,216.99C105.18,216.95 105.48,216.95 105.78,216.98C106.08,217.01 106.38,217.09 106.68,217.19C106.99,217.3 107.29,217.44 107.59,217.61C107.9,217.78 108.2,217.99 108.49,218.22C108.8,218.46 109.11,218.74 109.4,219.04C109.71,219.36 110.01,219.72 110.3,220.1C110.61,220.5 110.92,220.93 111.21,221.38C111.52,221.86 111.82,222.37 112.11,222.9C112.42,223.46 112.72,224.04 113.01,224.64C113.32,225.27 113.62,225.93 113.92,226.6C114.23,227.3 114.52,228.03 114.82,228.77C115.13,229.54 115.43,230.32 115.73,231.12C116.04,231.95 116.33,232.79 116.63,233.65C116.93,234.53 117.23,235.43 117.53,236.34C117.84,237.27 118.14,238.22 118.44,239.18C118.75,240.16 119.04,241.16 119.34,242.17C119.64,243.2 119.95,244.23 120.25,245.28C120.55,246.34 120.85,247.42 121.15,248.5C121.45,249.6 121.75,250.71 122.05,251.82C122.35,252.94 122.66,254.06 122.96,255.19C123.26,256.32 123.56,257.46 123.86,258.59C124.16,259.71 124.47,260.84 124.77,261.95C125.07,263.04 125.36,264.13 125.67,265.19C125.97,266.22 126.27,267.24 126.58,268.22C126.87,269.15 127.16,270.07 127.48,270.91C127.77,271.68 128.05,272.45 128.38,273.09C128.66,273.64 128.93,274.26 129.29,274.56C129.56,274.79 129.89,274.94 130.19,274.93C130.49,274.92 130.82,274.72 131.1,274.5C131.43,274.24 131.72,273.83 132,273.39C132.33,272.86 132.61,272.19 132.9,271.52C133.22,270.77 133.52,269.93 133.81,269.08C134.12,268.17 134.41,267.18 134.71,266.22C135.01,265.24 135.32,264.25 135.62,263.26C135.92,262.28 136.22,261.29 136.52,260.31C136.82,259.35 137.12,258.39 137.42,257.44C137.72,256.51 138.02,255.59 138.33,254.68C138.63,253.8 138.92,252.93 139.23,252.07C139.53,251.23 139.83,250.4 140.14,249.6C140.43,248.84 140.73,248.09 141.04,247.38C141.33,246.71 141.64,246.07 141.95,245.47C142.24,244.92 142.53,244.38 142.85,243.91C143.14,243.49 143.43,243.09 143.75,242.76C144.04,242.47 144.34,242.2 144.66,242.02C144.95,241.86 145.26,241.74 145.56,241.72C145.86,241.7 146.18,241.76 146.47,241.87C146.78,241.99 147.09,242.22 147.37,242.47C147.69,242.75 147.99,243.12 148.27,243.52C148.59,243.97 148.89,244.5 149.18,245.05C149.5,245.67 149.79,246.36 150.08,247.07C150.4,247.85 150.7,248.69 150.99,249.56C151.3,250.5 151.6,251.48 151.89,252.5C152.2,253.58 152.5,254.71 152.79,255.86C153.1,257.07 153.4,258.31 153.7,259.58C154.01,260.89 154.3,262.25 154.6,263.61C154.91,265.01 155.21,266.43 155.51,267.86C155.81,269.3 156.11,270.76 156.41,272.21C156.71,273.65 157.01,275.11 157.32,276.53C157.62,277.92 157.91,279.32 158.22,280.65C158.51,281.92 158.8,283.18 159.12,284.35C159.41,285.42 159.7,286.48 160.03,287.41C160.31,288.21 160.58,289 160.93,289.59C161.2,290.05 161.49,290.53 161.84,290.71C162.11,290.86 162.46,290.88 162.74,290.79C163.06,290.69 163.36,290.36 163.64,290.03C163.98,289.63 164.27,289.07 164.55,288.5C164.88,287.84 165.16,287.07 165.45,286.28C165.77,285.4 166.07,284.43 166.36,283.45C166.67,282.39 166.97,281.28 167.26,280.13C167.57,278.89 167.87,277.6 168.16,276.27C168.47,274.85 168.77,273.34 169.07,271.86C169.37,270.35 169.67,268.83 169.97,267.3C170.27,265.76 170.58,264.21 170.88,262.67C171.18,261.13 171.48,259.59 171.78,258.07C172.08,256.57 172.38,255.07 172.68,253.6C172.98,252.16 173.28,250.73 173.59,249.32C173.89,247.95 174.19,246.6 174.49,245.27C174.79,243.96 175.09,242.67 175.4,241.4C175.7,240.16 176,238.94 176.3,237.72C176.6,236.52 176.9,235.32 177.21,234.15C177.51,233.03 177.8,231.92 178.11,230.85C178.4,229.83 178.7,228.83 179.01,227.87C179.3,226.96 179.61,226.07 179.92,225.22C180.21,224.41 180.51,223.63 180.82,222.88C181.11,222.18 181.42,221.5 181.73,220.85C182.02,220.24 182.32,219.65 182.63,219.1C182.92,218.58 183.22,218.08 183.53,217.61C183.82,217.16 184.13,216.74 184.44,216.34C184.73,215.96 185.03,215.61 185.34,215.27C185.64,214.95 185.94,214.64 186.25,214.35C186.55,214.07 186.85,213.8 187.15,213.55C187.45,213.3 187.75,213.07 188.05,212.85C188.35,212.63 188.66,212.42 188.96,212.21C189.26,212 189.56,211.8 189.86,211.6C190.16,211.4 190.47,211.21 190.77,211.02C191.07,210.83 191.37,210.65 191.67,210.47C191.97,210.29 192.28,210.11 192.58,209.94C192.88,209.78 193.18,209.62 193.48,209.48C193.78,209.34 194.08,209.2 194.38,209.1C194.68,209 194.99,208.91 195.29,208.86C195.59,208.81 195.89,208.77 196.19,208.79C196.49,208.81 196.8,208.86 197.1,208.96C197.41,209.06 197.71,209.22 198,209.41C198.31,209.62 198.61,209.89 198.9,210.19C199.22,210.52 199.52,210.92 199.81,211.34C200.13,211.81 200.42,212.34 200.71,212.9C201.03,213.52 201.33,214.2 201.62,214.91C201.94,215.69 202.23,216.53 202.52,217.4C202.83,218.34 203.13,219.34 203.42,220.37C203.73,221.48 204.04,222.65 204.33,223.85C204.64,225.13 204.94,226.47 205.23,227.84C205.54,229.29 205.84,230.79 206.14,232.31C206.45,233.9 206.74,235.54 207.04,237.2C207.35,238.92 207.65,240.67 207.95,242.45C208.26,244.29 208.55,246.17 208.85,248.08C209.15,250.05 209.45,252.06 209.75,254.09C210.06,256.17 210.36,258.28 210.66,260.4C210.96,262.55 211.26,264.74 211.56,266.91C211.86,269.09 212.17,271.28 212.47,273.44C212.77,275.57 213.06,277.7 213.37,279.77C213.66,281.76 213.96,283.74 214.27,285.61C214.56,287.36 214.86,289.09 215.18,290.66C215.47,292.05 215.74,293.43 216.08,294.58C216.36,295.52 216.62,296.45 216.99,297.08C217.26,297.53 217.58,298.09 217.89,298.12C218.18,298.15 218.53,297.77 218.79,297.39C219.21,296.77 219.43,295.56 219.7,294.45C220.05,293.05 220.31,291.32 220.6,289.63C220.92,287.75 221.22,285.72 221.51,283.68C221.82,281.54 222.11,279.31 222.41,277.07C222.72,274.75 223.02,272.36 223.32,270C223.62,267.62 223.92,265.23 224.22,262.85C224.52,260.49 224.82,258.13 225.12,255.79C225.42,253.48 225.73,251.19 226.03,248.92C226.33,246.69 226.63,244.48 226.93,242.28C227.23,240.09 227.53,237.89 227.84,235.74C228.14,233.65 228.44,231.57 228.74,229.54C229.04,227.57 229.33,225.63 229.64,223.73C229.94,221.89 230.24,220.09 230.55,218.32C230.85,216.61 231.14,214.93 231.45,213.28C231.75,211.68 232.05,210.12 232.36,208.58C232.66,207.1 232.95,205.64 233.26,204.21C233.55,202.83 233.85,201.48 234.16,200.16C234.46,198.88 234.76,197.64 235.07,196.41C235.37,195.22 235.66,194.05 235.97,192.9C236.27,191.77 236.57,190.66 236.88,189.57C237.18,188.5 237.48,187.46 237.78,186.41C238.08,185.38 238.38,184.35 238.68,183.33C238.98,182.32 239.28,181.3 239.59,180.32C239.89,179.37 240.18,178.43 240.49,177.51C240.79,176.62 241.09,175.75 241.4,174.9C241.7,174.08 241.99,173.28 242.3,172.49C242.6,171.72 242.91,170.98 243.21,170.23C243.51,169.49 243.81,168.76 244.11,168.02C244.41,167.26 244.72,166.52 245.01,165.73C245.32,164.9 245.63,164.07 245.92,163.17C246.24,162.2 246.53,161.18 246.82,160.09C247.14,158.88 247.44,157.6 247.73,156.23C248.05,154.7 248.34,153.07 248.63,151.36C248.95,149.48 249.24,147.48 249.53,145.42C249.84,143.2 250.15,140.85 250.44,138.48C250.75,135.98 251.04,133.39 251.34,130.79C251.65,128.11 251.95,125.37 252.25,122.63C252.55,119.87 252.85,117.06 253.15,114.29C253.45,111.53 253.75,108.77 254.05,106.05C254.35,103.38 254.65,100.71 254.96,98.11C255.26,95.58 255.55,93.08 255.86,90.65C256.16,88.32 256.46,86.02 256.77,83.81C257.06,81.72 257.36,79.67 257.67,77.71C257.96,75.89 258.26,74.11 258.58,72.44C258.87,70.92 259.16,69.44 259.48,68.08C259.76,66.87 260.05,65.71 260.38,64.68C260.66,63.8 260.95,62.95 261.29,62.28C261.56,61.74 261.84,61.19 262.19,60.92C262.46,60.71 262.81,60.56 263.1,60.61C263.42,60.67 263.73,61.02 264,61.36C264.35,61.8 264.62,62.48 264.9,63.15C265.24,63.97 265.53,64.94 265.81,65.95C266.14,67.11 266.42,68.4 266.71,69.73C267.03,71.21 267.33,72.8 267.62,74.43C267.94,76.2 268.23,78.08 268.52,79.99C268.83,82.03 269.13,84.15 269.42,86.31C269.73,88.58 270.03,90.93 270.33,93.3C270.64,95.76 270.93,98.29 271.23,100.84C271.54,103.46 271.84,106.12 272.14,108.8C272.44,111.52 272.74,114.28 273.04,117.03C273.34,119.8 273.65,122.59 273.95,125.37C274.25,128.14 274.55,130.93 274.85,133.68C275.15,136.4 275.44,139.12 275.75,141.79C276.05,144.4 276.35,147.01 276.66,149.54C276.96,151.98 277.25,154.39 277.56,156.71C277.85,158.9 278.15,161.06 278.47,163.08C278.76,164.93 279.05,166.73 279.37,168.39C279.65,169.86 279.95,171.25 280.27,172.53C280.55,173.65 280.85,174.71 281.18,175.66C281.46,176.47 281.74,177.25 282.08,177.87C282.36,178.38 282.65,178.87 282.99,179.16C283.26,179.39 283.59,179.58 283.89,179.59C284.19,179.6 284.51,179.41 284.79,179.21C285.12,178.97 285.42,178.56 285.7,178.15C286.03,177.69 286.31,177.12 286.6,176.55C286.91,175.94 287.21,175.26 287.51,174.59C287.82,173.9 288.11,173.16 288.41,172.45C288.71,171.73 289.01,171 289.32,170.3C289.62,169.62 289.91,168.94 290.22,168.31C290.51,167.72 290.8,167.13 291.12,166.62C291.41,166.15 291.7,165.7 292.03,165.34C292.31,165.03 292.61,164.73 292.93,164.57C293.22,164.43 293.54,164.35 293.84,164.39C294.15,164.43 294.46,164.61 294.74,164.83C295.07,165.09 295.36,165.5 295.64,165.93C295.97,166.44 296.27,167.06 296.55,167.71C296.87,168.45 297.16,169.28 297.45,170.14C297.77,171.09 298.07,172.13 298.36,173.19C298.67,174.34 298.97,175.56 299.26,176.81C299.57,178.13 299.86,179.52 300.16,180.9C300.47,182.32 300.77,183.78 301.07,185.23C301.37,186.68 301.66,188.19 301.97,189.58C302.26,190.86 302.56,192.11 302.88,193.27C303.17,194.32 303.43,195.42 303.78,196.24C304.05,196.87 304.33,197.46 304.68,197.84C304.95,198.13 305.29,198.44 305.59,198.43C305.9,198.42 306.22,198.05 306.49,197.72C306.84,197.29 307.12,196.65 307.4,195.98C307.74,195.15 308.01,194.08 308.3,193.06C308.61,191.96 308.91,190.76 309.21,189.59C309.51,188.41 309.81,187.21 310.11,186.02C310.41,184.84 310.71,183.65 311.01,182.49C311.31,181.35 311.61,180.22 311.92,179.12C312.22,178.06 312.51,177.01 312.82,176.01C313.11,175.06 313.42,174.14 313.73,173.27C314.02,172.46 314.31,171.67 314.63,170.95C314.92,170.29 315.21,169.65 315.53,169.09C315.82,168.6 316.11,168.12 316.44,167.75C316.72,167.43 317.02,167.11 317.34,166.94C317.63,166.79 317.95,166.68 318.25,166.7C318.55,166.72 318.87,166.85 319.15,167.04C319.48,167.26 319.77,167.61 320.05,167.98C320.38,168.42 320.68,168.96 320.96,169.53C321.28,170.18 321.57,170.92 321.86,171.69C322.18,172.55 322.48,173.49 322.77,174.46C323.09,175.53 323.38,176.67 323.67,177.85C323.98,179.12 324.29,180.46 324.58,181.83C324.89,183.29 325.19,184.82 325.48,186.38C325.79,188.03 326.09,189.74 326.38,191.49C326.69,193.32 326.99,195.2 327.29,197.12C327.6,199.12 327.89,201.17 328.19,203.24C328.5,205.38 328.8,207.57 329.1,209.78C329.41,212.05 329.7,214.37 330,216.7C330.3,219.09 330.6,221.51 330.9,223.94C331.2,226.41 331.51,228.91 331.81,231.42C332.11,233.95 332.41,236.5 332.71,239.05C333.01,241.6 333.32,244.17 333.62,246.71C333.92,249.22 334.22,251.71 334.52,254.19C334.82,256.64 335.11,259.09 335.42,261.48C335.72,263.8 336.02,266.1 336.33,268.34C336.63,270.49 336.92,272.6 337.23,274.65C337.52,276.61 337.82,278.56 338.14,280.38C338.43,282.05 338.71,283.7 339.04,285.18C339.32,286.46 339.63,287.63 339.95,288.74C340.24,289.73 340.53,290.68 340.85,291.53C341.13,292.27 341.4,293.02 341.75,293.56C342.02,293.99 342.33,294.53 342.66,294.59C342.94,294.64 343.28,294.34 343.56,294.1C343.9,293.8 344.18,293.31 344.47,292.85C344.79,292.33 345.08,291.73 345.37,291.11C345.69,290.43 345.97,289.67 346.27,288.92C346.58,288.14 346.88,287.31 347.18,286.5C347.48,285.68 347.78,284.85 348.08,284.04C348.38,283.23 348.69,282.43 348.99,281.64C349.29,280.87 349.59,280.1 349.89,279.35C350.19,278.62 350.49,277.9 350.79,277.18C351.09,276.45 351.4,275.73 351.7,274.99C352,274.25 352.29,273.48 352.6,272.75C352.9,272.03 353.2,271.33 353.51,270.64C353.81,269.97 354.11,269.3 354.41,268.65C354.71,268.01 355.02,267.38 355.32,266.75C355.62,266.13 355.92,265.52 356.22,264.92C356.52,264.32 356.82,263.73 357.12,263.14C357.42,262.55 357.73,261.96 358.03,261.36C358.33,260.74 358.63,260.11 358.93,259.48C359.23,258.85 359.54,258.22 359.84,257.59C360.14,256.97 360.44,256.35 360.74,255.73C361.04,255.11 361.34,254.49 361.64,253.85C361.95,253.2 362.26,252.55 362.55,251.86C362.86,251.14 363.15,250.38 363.45,249.63C363.75,248.86 364.06,248.08 364.36,247.3C364.66,246.52 364.96,245.73 365.26,244.95C365.56,244.16 365.86,243.4 366.16,242.59C366.47,241.75 366.77,240.87 367.07,239.99C367.38,239.08 367.66,238.13 367.97,237.22C368.27,236.34 368.57,235.47 368.88,234.64C369.17,233.85 369.47,233.07 369.78,232.34C370.07,231.66 370.36,230.99 370.68,230.38C370.97,229.82 371.27,229.28 371.59,228.81C371.88,228.39 372.17,227.99 372.49,227.68C372.78,227.41 373.08,227.15 373.4,227.01C373.69,226.88 374,226.8 374.3,226.82C374.6,226.84 374.91,227.02 375.21,227.11C375.51,227.2 375.81,227.35 376.11,227.35C376.41,227.35 376.71,227.12 377.01,227.08C377.31,227.04 377.62,227.05 377.92,227.11C378.23,227.18 378.53,227.3 378.82,227.48C379.14,227.68 379.44,227.96 379.73,228.27C380.05,228.62 380.34,229.06 380.63,229.51C380.95,230.02 381.24,230.59 381.53,231.18C381.84,231.82 382.15,232.51 382.44,233.22C382.75,233.97 383.04,234.77 383.34,235.57C383.65,236.39 383.95,237.25 384.25,238.09C384.55,238.92 384.84,239.77 385.15,240.56C385.44,241.31 385.73,242.06 386.05,242.73C386.34,243.33 386.61,243.96 386.96,244.39C387.23,244.73 387.54,245.12 387.86,245.17C388.15,245.22 388.49,245.01 388.77,244.81C389.1,244.58 389.39,244.17 389.67,243.78C389.99,243.33 390.3,242.81 390.58,242.24C390.91,241.58 391.19,240.83 391.48,240.05C391.8,239.18 392.08,238.2 392.38,237.24C392.69,236.23 392.99,235.2 393.29,234.14C393.6,233.04 393.89,231.92 394.19,230.78C394.5,229.61 394.8,228.43 395.1,227.23C395.4,226.01 395.7,224.77 396,223.54C396.3,222.3 396.6,221.04 396.9,219.8C397.2,218.57 397.51,217.33 397.81,216.11C398.11,214.91 398.4,213.72 398.71,212.55C399.01,211.42 399.31,210.3 399.62,209.22C399.92,208.18 400.21,207.16 400.52,206.19C400.81,205.28 401.1,204.38 401.42,203.55C401.71,202.78 402.01,202.04 402.33,201.36C402.62,200.75 402.9,200.16 403.23,199.66C403.51,199.22 403.81,198.8 404.14,198.51C404.42,198.26 404.73,198.03 405.04,197.95C405.33,197.87 405.66,197.88 405.95,197.98C406.27,198.09 406.57,198.36 406.85,198.65C407.18,198.99 407.47,199.45 407.75,199.94C408.08,200.5 408.37,201.17 408.66,201.86C408.98,202.64 409.27,203.5 409.56,204.4C409.88,205.39 410.18,206.45 410.47,207.54C410.78,208.72 411.08,209.98 411.37,211.26C411.68,212.63 411.98,214.05 412.27,215.51C412.58,217.05 412.88,218.64 413.18,220.25C413.49,221.93 413.78,223.66 414.08,225.41C414.39,227.22 414.69,229.07 414.99,230.92C415.29,232.8 415.59,234.73 415.89,236.59C416.19,238.39 416.49,240.14 416.79,241.91C417.09,243.66 417.4,245.41 417.7,247.14C418,248.84 418.29,250.52 418.6,252.18C418.9,253.79 419.2,255.4 419.51,256.94C419.8,258.41 420.09,259.88 420.41,261.23C420.7,262.44 421,263.58 421.32,264.67C421.61,265.66 421.91,266.6 422.22,267.5C422.51,268.35 422.81,269.16 423.12,269.94C423.41,270.67 423.72,271.38 424.03,272.04C424.32,272.65 424.61,273.26 424.93,273.79C425.22,274.27 425.52,274.72 425.84,275.11C426.13,275.46 426.43,275.77 426.74,276.03C427.03,276.27 427.33,276.49 427.64,276.65C427.93,276.8 428.24,276.92 428.55,276.98C428.85,277.04 429.15,277.06 429.45,277.02C429.76,276.98 430.07,276.88 430.36,276.72C430.68,276.55 430.98,276.29 431.26,276C431.58,275.66 431.87,275.21 432.16,274.78C432.47,274.33 432.77,273.85 433.07,273.37C433.38,272.87 433.67,272.34 433.97,271.84C434.27,271.35 434.57,270.85 434.88,270.4C435.17,269.98 435.47,269.57 435.78,269.21C436.07,268.88 436.37,268.57 436.68,268.31C436.97,268.07 437.28,267.86 437.59,267.69C437.88,267.53 438.18,267.4 438.49,267.31C438.79,267.22 439.1,267.17 439.4,267.16C439.7,267.15 440,267.19 440.3,267.26C440.61,267.33 440.91,267.46 441.21,267.61C441.52,267.77 441.82,267.97 442.11,268.18C442.42,268.4 442.71,268.67 443.01,268.93C443.32,269.2 443.62,269.5 443.92,269.78C444.22,270.06 444.51,270.35 444.82,270.61C445.12,270.86 445.42,271.1 445.73,271.32C446.03,271.53 446.32,271.73 446.63,271.89C446.92,272.04 447.23,272.14 447.53,272.25C447.83,272.35 448.13,272.47 448.44,272.52C448.74,272.57 449.04,272.58 449.34,272.58C449.64,272.58 449.95,272.55 450.25,272.52C450.55,272.5 450.85,272.46 451.15,272.43C451.45,272.4 451.75,272.37 452.05,272.35C452.35,272.33 452.66,272.31 452.96,272.31C453.26,272.31 453.56,272.33 453.86,272.37C454.16,272.41 454.47,272.46 454.77,272.54C455.07,272.62 455.37,272.71 455.67,272.83C455.98,272.95 456.28,273.1 456.58,273.26C456.89,273.43 457.18,273.62 457.48,273.82C457.78,274.03 458.08,274.25 458.38,274.49C458.69,274.74 458.99,275 459.29,275.27C459.59,275.54 459.89,275.83 460.19,276.12C460.49,276.41 460.8,276.71 461.1,277Q461.4,277.28 462,277.83" style="vector-effect: non-scaling-stroke; fill: none; stroke: rgb(0, 100, 80); stroke-opacity: 1; stroke-width: 2px; opacity: 1;"/></g><g class="points"/><g class="text"/></g><g class="trace scatter trace6b1607" style="stroke-miterlimit: 2; opacity: 1;"><g class="fills"/><g class="errorbars"/><g class="lines"><path class="js-line" d="M0,110.88Q0.63,110.53 0.9,110.23C1.25,109.84 1.53,109.22 1.81,108.63C2.14,107.95 2.42,107.16 2.71,106.37C3.03,105.51 3.33,104.58 3.62,103.64C3.93,102.66 4.22,101.63 4.52,100.6C4.82,99.54 5.12,98.46 5.42,97.38C5.72,96.3 6.03,95.21 6.33,94.13C6.63,93.07 6.92,92 7.23,90.96C7.53,89.94 7.83,88.93 8.14,87.95C8.44,87.01 8.73,86.07 9.04,85.18C9.33,84.34 9.64,83.51 9.95,82.73C10.24,82 10.54,81.3 10.85,80.65C11.14,80.05 11.43,79.48 11.75,78.97C12.04,78.51 12.34,78.08 12.66,77.73C12.94,77.42 13.24,77.13 13.56,76.95C13.85,76.79 14.16,76.66 14.47,76.64C14.77,76.62 15.08,76.68 15.37,76.8C15.68,76.93 15.98,77.16 16.27,77.41C16.59,77.7 16.89,78.07 17.18,78.46C17.5,78.9 17.79,79.4 18.08,79.92C18.4,80.49 18.7,81.12 18.99,81.76C19.3,82.45 19.6,83.19 19.89,83.94C20.2,84.74 20.49,85.58 20.79,86.43C21.1,87.32 21.4,88.24 21.7,89.17C22.01,90.14 22.3,91.13 22.6,92.13C22.91,93.15 23.21,94.2 23.51,95.24C23.81,96.3 24.11,97.37 24.41,98.44C24.71,99.52 25.02,100.6 25.32,101.68C25.62,102.75 25.92,103.82 26.22,104.87C26.52,105.91 26.81,106.94 27.12,107.95C27.42,108.93 27.72,109.9 28.03,110.84C28.33,111.75 28.62,112.64 28.93,113.5C29.22,114.31 29.53,115.11 29.84,115.86C30.13,116.57 30.43,117.25 30.74,117.89C31.03,118.48 31.32,119.05 31.64,119.57C31.93,120.05 32.23,120.49 32.55,120.89C32.84,121.25 33.13,121.59 33.45,121.87C33.74,122.13 34.05,122.34 34.36,122.52C34.65,122.69 34.95,122.81 35.26,122.91C35.56,123 35.86,123.05 36.16,123.09C36.46,123.13 36.77,123.13 37.07,123.13C37.37,123.13 37.67,123.12 37.97,123.11C38.27,123.1 38.58,123.08 38.88,123.08C39.18,123.08 39.48,123.09 39.78,123.11C40.08,123.13 40.38,123.16 40.68,123.22C40.98,123.28 41.29,123.35 41.59,123.45C41.89,123.55 42.19,123.67 42.49,123.81C42.8,123.96 43.1,124.13 43.4,124.33C43.71,124.53 44.01,124.76 44.3,125.01C44.61,125.28 44.92,125.57 45.21,125.89C45.52,126.22 45.82,126.58 46.11,126.96C46.42,127.36 46.72,127.78 47.01,128.22C47.32,128.68 47.62,129.17 47.92,129.67C48.23,130.18 48.52,130.72 48.82,131.26C49.13,131.82 49.43,132.4 49.73,132.98C50.03,133.58 50.33,134.19 50.63,134.8C50.93,135.43 51.23,136.06 51.53,136.7C51.84,137.36 52.14,138.03 52.44,138.72C52.75,139.43 53.04,140.14 53.34,140.88C53.65,141.65 53.95,142.44 54.25,143.25C54.56,144.1 54.86,144.98 55.15,145.88C55.46,146.82 55.75,147.79 56.05,148.77C56.36,149.79 56.66,150.84 56.96,151.9C57.26,152.98 57.56,154.06 57.86,155.17C58.17,156.31 58.48,157.46 58.77,158.66C59.08,159.92 59.38,161.21 59.67,162.54C59.98,163.95 60.29,165.42 60.58,166.92C60.89,168.5 61.19,170.14 61.48,171.81C61.79,173.56 62.08,175.36 62.38,177.19C62.69,179.09 62.99,181.05 63.29,183.02C63.6,185.05 63.89,187.13 64.19,189.22C64.5,191.36 64.8,193.53 65.1,195.71C65.4,197.93 65.7,200.17 66,202.42C66.3,204.69 66.6,206.97 66.9,209.25C67.2,211.53 67.51,213.82 67.81,216.09C68.11,218.34 68.4,220.61 68.71,222.8C69.01,224.89 69.3,226.99 69.62,228.93C69.91,230.7 70.21,232.34 70.52,233.98C70.81,235.55 71.11,237.06 71.42,238.57C71.72,240.04 72.02,241.49 72.33,242.91C72.63,244.27 72.92,245.62 73.23,246.9C73.52,248.1 73.82,249.26 74.14,250.36C74.43,251.37 74.73,252.32 75.04,253.24C75.33,254.11 75.64,254.93 75.95,255.76C76.25,256.57 76.55,257.35 76.85,258.15C77.15,258.95 77.45,259.76 77.75,260.56C78.05,261.37 78.35,262.2 78.66,262.99C78.96,263.76 79.24,264.54 79.56,265.24C79.85,265.87 80.14,266.49 80.47,267C80.75,267.44 81.05,267.84 81.37,268.16C81.65,268.44 81.95,268.69 82.27,268.85C82.56,269 82.88,269.12 83.18,269.11C83.48,269.1 83.81,269.02 84.08,268.82C84.43,268.55 84.71,268 84.99,267.47C85.33,266.82 85.6,265.98 85.89,265.18C86.2,264.32 86.49,263.4 86.79,262.49C87.09,261.56 87.4,260.61 87.7,259.67C88,258.74 88.3,257.79 88.6,256.87C88.9,255.96 89.21,255.05 89.51,254.16C89.81,253.28 90.11,252.41 90.41,251.55C90.71,250.71 91.02,249.88 91.32,249.06C91.62,248.25 91.92,247.46 92.22,246.67C92.52,245.89 92.82,245.12 93.12,244.35C93.42,243.59 93.73,242.83 94.03,242.07C94.33,241.31 94.63,240.54 94.93,239.77C95.23,238.98 95.54,238.2 95.84,237.39C96.15,236.56 96.44,235.72 96.74,234.86C97.04,233.97 97.34,233.07 97.64,232.15C97.95,231.21 98.25,230.24 98.55,229.28C98.85,228.3 99.15,227.31 99.45,226.33C99.75,225.34 100.06,224.35 100.36,223.37C100.66,222.4 100.96,221.43 101.26,220.48C101.56,219.54 101.85,218.6 102.16,217.69C102.46,216.8 102.76,215.92 103.07,215.08C103.36,214.29 103.65,213.52 103.97,212.81C104.26,212.17 104.56,211.54 104.88,211C105.16,210.53 105.45,210.07 105.78,209.73C106.06,209.44 106.36,209.17 106.68,209.04C106.97,208.93 107.29,208.91 107.59,208.95C107.9,208.99 108.18,209.27 108.49,209.3C108.79,209.33 109.1,209.12 109.4,209.14C109.7,209.16 110.02,209.28 110.3,209.44C110.62,209.63 110.93,209.93 111.21,210.25C111.53,210.62 111.83,211.08 112.11,211.56C112.43,212.1 112.72,212.71 113.01,213.35C113.33,214.05 113.63,214.81 113.92,215.6C114.23,216.45 114.52,217.39 114.82,218.27C115.12,219.15 115.43,219.99 115.73,220.88C116.04,221.79 116.34,222.72 116.63,223.67C116.94,224.66 117.23,225.68 117.53,226.7C117.83,227.73 118.13,228.81 118.44,229.81C118.73,230.76 119.03,231.68 119.34,232.56C119.63,233.38 119.95,234.14 120.25,234.93C120.55,235.72 120.85,236.51 121.15,237.32C121.45,238.15 121.75,238.99 122.05,239.85C122.36,240.73 122.66,241.63 122.96,242.55C123.27,243.49 123.56,244.45 123.86,245.43C124.17,246.45 124.47,247.48 124.77,248.54C125.08,249.64 125.37,250.77 125.67,251.91C125.98,253.09 126.28,254.29 126.58,255.5C126.88,256.73 127.18,257.98 127.48,259.22C127.78,260.45 128.07,261.72 128.38,262.91C128.67,264.04 128.93,265.3 129.29,266.18C129.56,266.83 129.82,267.65 130.19,267.78C130.46,267.87 130.82,267.61 131.1,267.41C131.43,267.16 131.72,266.74 132,266.32C132.33,265.83 132.62,265.25 132.9,264.64C133.22,263.94 133.53,263.18 133.81,262.35C134.14,261.4 134.42,260.34 134.71,259.25C135.03,258.05 135.32,256.72 135.62,255.43C135.93,254.11 136.22,252.76 136.52,251.43C136.82,250.11 137.11,248.78 137.42,247.49C137.72,246.23 138.02,244.97 138.33,243.76C138.63,242.6 138.92,241.46 139.23,240.36C139.52,239.33 139.83,238.32 140.14,237.36C140.43,236.47 140.73,235.6 141.04,234.79C141.33,234.04 141.63,233.31 141.95,232.65C142.24,232.06 142.52,231.48 142.85,231.01C143.13,230.6 143.42,230.21 143.75,229.96C144.03,229.75 144.35,229.58 144.66,229.56C144.96,229.54 145.28,229.65 145.56,229.82C145.89,230.02 146.19,230.38 146.47,230.76C146.8,231.21 147.09,231.77 147.37,232.36C147.69,233.03 147.98,233.79 148.27,234.58C148.59,235.46 148.89,236.42 149.18,237.4C149.49,238.47 149.79,239.6 150.08,240.76C150.39,242 150.7,243.29 150.99,244.61C151.3,245.99 151.59,247.43 151.89,248.88C152.2,250.38 152.49,251.92 152.79,253.46C153.09,255.03 153.4,256.62 153.7,258.21C154,259.82 154.3,261.44 154.6,263.06C154.9,264.68 155.21,266.31 155.51,267.92C155.81,269.5 156.1,271.09 156.41,272.62C156.71,274.09 156.94,275.81 157.32,276.93C157.58,277.7 157.89,278.26 158.22,278.79C158.5,279.24 158.81,279.57 159.12,279.94C159.42,280.3 159.7,280.7 160.03,280.97C160.31,281.2 160.63,281.49 160.93,281.49C161.23,281.49 161.55,281.21 161.84,280.99C162.16,280.74 162.47,280.42 162.74,280.01C163.08,279.5 163.35,278.76 163.64,278.11C163.95,277.43 164.25,276.7 164.55,275.99C164.85,275.27 165.15,274.55 165.45,273.83C165.75,273.11 166.06,272.38 166.36,271.66C166.66,270.94 166.96,270.22 167.26,269.5C167.56,268.77 167.86,268.05 168.16,267.3C168.47,266.53 168.77,265.74 169.07,264.93C169.38,264.08 169.67,263.2 169.97,262.31C170.28,261.39 170.58,260.45 170.88,259.5C171.18,258.54 171.48,257.56 171.78,256.59C172.08,255.62 172.38,254.64 172.68,253.67C172.98,252.71 173.29,251.75 173.59,250.8C173.89,249.87 174.18,248.93 174.49,248.02C174.79,247.13 175.09,246.24 175.4,245.38C175.7,244.54 175.99,243.72 176.3,242.91C176.6,242.13 176.9,241.37 177.21,240.62C177.51,239.89 177.81,239.17 178.11,238.45C178.41,237.72 178.71,236.99 179.01,236.27C179.31,235.56 179.61,234.86 179.92,234.18C180.22,233.51 180.51,232.86 180.82,232.22C181.12,231.6 181.42,231 181.73,230.41C182.03,229.84 182.32,229.29 182.63,228.76C182.92,228.24 183.22,227.74 183.53,227.26C183.83,226.8 184.13,226.35 184.44,225.92C184.74,225.51 185.03,225.11 185.34,224.74C185.64,224.38 185.94,224.03 186.25,223.71C186.54,223.4 186.84,223.11 187.15,222.84C187.44,222.58 187.74,222.33 188.05,222.11C188.35,221.89 188.66,221.7 188.96,221.51C189.26,221.32 189.56,221.15 189.86,220.96C190.16,220.77 190.48,220.6 190.77,220.37C191.08,220.12 191.38,219.82 191.67,219.51C191.98,219.17 192.28,218.77 192.58,218.41C192.88,218.06 193.17,217.69 193.48,217.38C193.77,217.1 194.06,216.81 194.38,216.62C194.67,216.45 194.98,216.29 195.29,216.25C195.59,216.21 195.9,216.24 196.19,216.34C196.51,216.45 196.82,216.67 197.1,216.93C197.43,217.23 197.72,217.63 198,218.06C198.32,218.55 198.61,219.14 198.9,219.75C199.22,220.44 199.52,221.2 199.81,222C200.13,222.88 200.42,223.84 200.71,224.82C201.02,225.89 201.33,227.01 201.62,228.17C201.93,229.41 202.23,230.71 202.52,232.04C202.83,233.44 203.12,234.88 203.42,236.35C203.73,237.88 204.03,239.46 204.33,241.05C204.64,242.68 204.93,244.35 205.23,246.01C205.53,247.69 205.84,249.38 206.14,251.07C206.44,252.75 206.74,254.44 207.04,256.12C207.34,257.8 207.65,259.49 207.95,261.17C208.25,262.85 208.55,264.54 208.85,266.22C209.15,267.9 209.45,269.6 209.75,271.27C210.05,272.93 210.36,274.59 210.66,276.22C210.96,277.82 211.25,279.43 211.56,280.98C211.86,282.48 212.15,284.01 212.47,285.38C212.76,286.6 213.04,287.8 213.37,288.82C213.65,289.66 213.9,290.54 214.27,291.08C214.54,291.47 214.89,291.94 215.18,291.92C215.49,291.9 215.82,291.34 216.08,290.89C216.45,290.25 216.71,289.27 216.99,288.34C217.32,287.24 217.6,285.97 217.89,284.68C218.21,283.24 218.5,281.7 218.79,280.11C219.1,278.39 219.41,276.58 219.7,274.73C220.01,272.78 220.3,270.73 220.6,268.7C220.91,266.62 221.21,264.48 221.51,262.37C221.81,260.27 222.1,258.15 222.41,256.08C222.71,254.06 223.01,252.04 223.32,250.08C223.62,248.19 223.91,246.32 224.22,244.51C224.51,242.79 224.81,241.09 225.12,239.47C225.41,237.94 225.72,236.45 226.03,235.03C226.32,233.71 226.61,232.42 226.93,231.21C227.22,230.1 227.52,229.02 227.84,228.02C228.13,227.11 228.42,226.25 228.74,225.45C229.03,224.72 229.32,224.04 229.64,223.41C229.93,222.85 230.23,222.31 230.55,221.85C230.83,221.44 231.13,221.07 231.45,220.77C231.74,220.51 232.04,220.29 232.36,220.13C232.65,219.99 232.96,219.91 233.26,219.85C233.56,219.79 233.86,219.79 234.16,219.79C234.46,219.79 234.77,219.83 235.07,219.83C235.37,219.83 235.67,219.85 235.97,219.82C236.27,219.79 236.58,219.76 236.88,219.66C237.19,219.56 237.5,219.41 237.78,219.21C238.1,218.98 238.4,218.67 238.68,218.31C239.01,217.87 239.31,217.32 239.59,216.73C239.92,216.04 240.21,215.26 240.49,214.39C240.82,213.35 241.12,212.15 241.4,210.88C241.73,209.39 242.01,207.68 242.3,206.01C242.61,204.26 242.91,202.45 243.21,200.62C243.52,198.71 243.82,196.77 244.11,194.78C244.42,192.71 244.71,190.61 245.01,188.45C245.32,186.2 245.63,183.9 245.92,181.53C246.23,179.02 246.53,176.43 246.82,173.76C247.13,170.93 247.43,168 247.73,165.02C248.04,161.91 248.33,158.7 248.63,155.47C248.93,152.13 249.23,148.72 249.53,145.3C249.83,141.81 250.14,138.26 250.44,134.73C250.74,131.18 251.04,127.6 251.34,124.06C251.64,120.55 251.95,117.02 252.25,113.56C252.55,110.17 252.85,106.79 253.15,103.49C253.45,100.29 253.74,97.13 254.05,94.05C254.35,91.11 254.65,88.21 254.96,85.41C255.25,82.76 255.55,80.17 255.86,77.69C256.15,75.38 256.45,73.12 256.77,70.99C257.06,69.04 257.35,67.16 257.67,65.41C257.96,63.85 258.25,62.35 258.58,61.01C258.86,59.86 259.14,58.75 259.48,57.83C259.75,57.09 260.01,56.35 260.38,55.9C260.65,55.57 260.98,55.24 261.29,55.23C261.59,55.22 261.92,55.51 262.19,55.8C262.56,56.2 262.82,56.91 263.1,57.6C263.44,58.45 263.72,59.49 264,60.56C264.33,61.8 264.61,63.19 264.9,64.62C265.22,66.22 265.52,67.94 265.81,69.7C266.12,71.61 266.42,73.62 266.71,75.68C267.02,77.87 267.33,80.14 267.62,82.46C267.93,84.89 268.23,87.39 268.52,89.92C268.83,92.55 269.12,95.24 269.42,97.96C269.73,100.77 270.03,103.62 270.33,106.51C270.64,109.48 270.93,112.49 271.23,115.53C271.54,118.65 271.84,121.81 272.14,125C272.44,128.25 272.74,131.55 273.04,134.86C273.34,138.23 273.65,141.64 273.95,145.06C274.25,148.52 274.55,152 274.85,155.49C275.15,159 275.45,162.54 275.75,166.06C276.05,169.58 276.36,173.11 276.66,176.61C276.96,180.08 277.26,183.57 277.56,186.99C277.86,190.35 278.15,193.81 278.47,196.96C278.76,199.8 279.05,202.5 279.37,205.06C279.66,207.36 279.94,209.62 280.27,211.62C280.55,213.32 280.8,215.08 281.18,216.32C281.44,217.18 281.74,218.38 282.08,218.43C282.36,218.47 282.73,217.81 282.99,217.27C283.41,216.39 283.61,214.78 283.89,213.4C284.21,211.85 284.49,210.11 284.79,208.41C285.1,206.65 285.4,204.82 285.7,203.02C286,201.2 286.3,199.37 286.6,197.55C286.9,195.75 287.21,193.95 287.51,192.17C287.81,190.43 288.1,188.69 288.41,187C288.71,185.36 289.01,183.73 289.32,182.16C289.61,180.66 289.91,179.19 290.22,177.79C290.51,176.48 290.8,175.2 291.12,174.02C291.41,172.96 291.7,171.92 292.03,171.02C292.31,170.25 292.59,169.49 292.93,168.91C293.21,168.44 293.49,167.95 293.84,167.75C294.11,167.59 294.46,167.52 294.74,167.61C295.07,167.72 295.37,168.11 295.64,168.49C295.99,168.97 296.27,169.66 296.55,170.35C296.88,171.18 297.16,172.15 297.45,173.14C297.77,174.25 298.07,175.47 298.36,176.7C298.67,178.01 298.96,179.41 299.26,180.76C299.56,182.11 299.84,183.52 300.16,184.81C300.45,185.99 300.75,187.15 301.07,188.2C301.36,189.13 301.63,190.07 301.97,190.82C302.25,191.43 302.5,192.19 302.88,192.41C303.14,192.56 303.51,192.54 303.78,192.4C304.14,192.21 304.41,191.62 304.68,191.08C305.04,190.36 305.31,189.38 305.59,188.4C305.92,187.23 306.2,185.87 306.49,184.51C306.81,183.02 307.1,181.39 307.4,179.79C307.71,178.13 308,176.41 308.3,174.72C308.6,173.02 308.91,171.3 309.21,169.61C309.51,167.95 309.8,166.28 310.11,164.66C310.41,163.09 310.7,161.54 311.01,160.04C311.3,158.61 311.61,157.21 311.92,155.87C312.21,154.62 312.5,153.4 312.82,152.25C313.11,151.2 313.41,150.19 313.73,149.26C314.02,148.44 314.3,147.64 314.63,146.96C314.91,146.38 315.19,145.81 315.53,145.4C315.81,145.07 316.11,144.75 316.44,144.64C316.72,144.55 317.06,144.57 317.34,144.69C317.67,144.84 317.97,145.21 318.25,145.58C318.59,146.04 318.87,146.67 319.15,147.32C319.48,148.08 319.77,148.97 320.05,149.89C320.37,150.93 320.67,152.08 320.96,153.27C321.28,154.58 321.57,155.99 321.86,157.44C322.17,159.01 322.48,160.65 322.77,162.34C323.08,164.13 323.38,166 323.67,167.9C323.98,169.9 324.28,171.97 324.58,174.07C324.89,176.25 325.18,178.48 325.48,180.74C325.78,183.07 326.08,185.45 326.38,187.84C326.68,190.29 326.99,192.77 327.29,195.26C327.59,197.79 327.89,200.34 328.19,202.9C328.49,205.48 328.8,208.07 329.1,210.66C329.4,213.24 329.7,215.84 330,218.41C330.3,220.96 330.6,223.51 330.9,226.03C331.2,228.52 331.51,230.99 331.81,233.44C332.11,235.84 332.41,238.23 332.71,240.59C333.01,242.91 333.31,245.2 333.62,247.47C333.92,249.68 334.21,251.88 334.52,254.03C334.81,256.1 335.11,258.14 335.42,260.13C335.72,262.04 336.02,263.9 336.33,265.72C336.62,267.45 336.92,269.14 337.23,270.78C337.52,272.33 337.83,273.84 338.14,275.29C338.43,276.65 338.73,277.97 339.04,279.22C339.33,280.38 339.63,281.49 339.95,282.54C340.24,283.5 340.53,284.42 340.85,285.27C341.14,286.03 341.42,286.77 341.75,287.4C342.03,287.95 342.3,288.6 342.66,288.88C342.93,289.09 343.26,289.18 343.56,289.16C343.87,289.14 344.18,288.93 344.47,288.74C344.79,288.53 345.09,288.25 345.37,287.93C345.69,287.56 345.98,287.07 346.27,286.59C346.59,286.06 346.88,285.47 347.18,284.89C347.49,284.29 347.78,283.66 348.08,283.04C348.38,282.41 348.69,281.77 348.99,281.14C349.29,280.52 349.59,279.89 349.89,279.28C350.19,278.67 350.49,278.06 350.79,277.47C351.09,276.89 351.4,276.32 351.7,275.76C352,275.21 352.3,274.67 352.6,274.13C352.9,273.6 353.21,273.09 353.51,272.55C353.81,272 354.12,271.47 354.41,270.88C354.72,270.25 355.03,269.58 355.32,268.88C355.63,268.14 355.93,267.34 356.22,266.54C356.53,265.71 356.82,264.85 357.12,263.98C357.43,263.07 357.74,262.14 358.03,261.18C358.34,260.17 358.64,259.15 358.93,258.06C359.24,256.89 359.55,255.67 359.84,254.38C360.16,252.97 360.44,251.44 360.74,249.93C361.04,248.38 361.34,246.76 361.64,245.19C361.94,243.63 362.24,242.08 362.55,240.55C362.85,239.06 363.14,237.57 363.45,236.12C363.75,234.71 364.05,233.31 364.36,231.95C364.66,230.63 364.95,229.34 365.26,228.08C365.55,226.87 365.85,225.68 366.16,224.52C366.46,223.42 366.76,222.33 367.07,221.29C367.36,220.31 367.66,219.34 367.97,218.43C368.26,217.58 368.56,216.76 368.88,216C369.17,215.31 369.46,214.64 369.78,214.05C370.06,213.53 370.35,213.03 370.68,212.65C370.96,212.32 371.26,212.01 371.59,211.85C371.87,211.71 372.2,211.64 372.49,211.69C372.8,211.74 373.12,211.95 373.4,212.19C373.73,212.48 374.02,212.92 374.3,213.37C374.63,213.9 374.93,214.55 375.21,215.22C375.53,215.99 375.82,216.85 376.11,217.74C376.43,218.72 376.72,219.79 377.01,220.88C377.32,222.06 377.63,223.32 377.92,224.6C378.23,225.96 378.52,227.39 378.82,228.84C379.13,230.35 379.43,231.91 379.73,233.47C380.04,235.07 380.33,236.72 380.63,238.34C380.93,239.96 381.22,241.59 381.53,243.19C381.83,244.75 382.13,246.3 382.44,247.8C382.74,249.25 383.02,250.7 383.34,252.05C383.63,253.29 383.91,254.57 384.25,255.61C384.53,256.46 384.78,257.32 385.15,257.86C385.41,258.25 385.73,258.64 386.05,258.71C386.34,258.77 386.69,258.59 386.96,258.37C387.31,258.09 387.59,257.53 387.86,256.99C388.21,256.3 388.49,255.45 388.77,254.52C389.11,253.38 389.38,251.99 389.67,250.64C389.98,249.18 390.28,247.61 390.58,246.07C390.89,244.49 391.18,242.86 391.48,241.25C391.78,239.62 392.08,237.98 392.38,236.35C392.68,234.73 392.99,233.11 393.29,231.52C393.59,229.95 393.88,228.39 394.19,226.87C394.49,225.39 394.79,223.92 395.1,222.5C395.4,221.14 395.69,219.8 396,218.51C396.29,217.3 396.59,216.11 396.9,214.99C397.19,213.95 397.49,212.94 397.81,212C398.1,211.15 398.39,210.33 398.71,209.61C398.99,208.98 399.29,208.37 399.62,207.88C399.9,207.47 400.19,207.07 400.52,206.84C400.8,206.65 401.12,206.5 401.42,206.51C401.72,206.52 402.05,206.7 402.33,206.92C402.67,207.18 402.95,207.62 403.23,208.06C403.56,208.59 403.86,209.25 404.14,209.93C404.46,210.71 404.75,211.58 405.04,212.49C405.36,213.5 405.66,214.59 405.95,215.72C406.27,216.95 406.56,218.25 406.85,219.58C407.16,221 407.46,222.49 407.75,224C408.06,225.58 408.36,227.25 408.66,228.86C408.96,230.46 409.25,232.11 409.56,233.64C409.85,235.06 410.17,236.36 410.47,237.74C410.77,239.15 411.07,240.56 411.37,242.01C411.67,243.5 411.97,245.03 412.27,246.57C412.57,248.13 412.88,249.73 413.18,251.31C413.48,252.89 413.78,254.49 414.08,256.07C414.38,257.64 414.69,259.2 414.99,260.78C415.29,262.37 415.59,263.98 415.89,265.57C416.19,267.14 416.47,268.75 416.79,270.24C417.08,271.61 417.39,272.9 417.7,274.18C417.99,275.4 418.29,276.6 418.6,277.74C418.89,278.8 419.18,279.86 419.51,280.78C419.79,281.57 420.08,282.32 420.41,282.96C420.69,283.5 421,283.97 421.32,284.4C421.61,284.78 421.9,285.13 422.22,285.42C422.51,285.68 422.8,285.96 423.12,286.09C423.41,286.21 423.75,286.31 424.03,286.22C424.36,286.12 424.67,285.77 424.93,285.37C425.31,284.8 425.55,283.79 425.84,282.96C426.15,282.08 426.44,281.13 426.74,280.22C427.04,279.31 427.34,278.42 427.64,277.51C427.94,276.59 428.25,275.65 428.55,274.74C428.85,273.85 429.14,272.94 429.45,272.09C429.74,271.28 430.05,270.48 430.36,269.73C430.65,269.04 430.95,268.37 431.26,267.75C431.55,267.17 431.86,266.66 432.16,266.11C432.46,265.55 432.76,264.97 433.07,264.43C433.36,263.91 433.66,263.42 433.97,262.94C434.27,262.47 434.56,261.98 434.88,261.58C435.17,261.22 435.46,260.88 435.78,260.63C436.06,260.41 436.37,260.22 436.68,260.13C436.97,260.04 437.29,260.02 437.59,260.06C437.9,260.11 438.2,260.24 438.49,260.41C438.81,260.59 439.11,260.85 439.4,261.13C439.72,261.44 440.01,261.81 440.3,262.19C440.61,262.6 440.92,263.07 441.21,263.54C441.52,264.03 441.81,264.57 442.11,265.09C442.41,265.62 442.69,266.2 443.01,266.68C443.3,267.11 443.59,267.57 443.92,267.86C444.2,268.1 444.51,268.24 444.82,268.36C445.12,268.48 445.43,268.52 445.73,268.6C446.03,268.68 446.33,268.75 446.63,268.83C446.93,268.91 447.23,269 447.53,269.07C447.83,269.14 448.14,269.21 448.44,269.24C448.74,269.27 449.04,269.26 449.34,269.26C449.64,269.27 449.95,269.24 450.25,269.27C450.55,269.3 450.86,269.34 451.15,269.43C451.46,269.52 451.76,269.66 452.05,269.83C452.36,270.01 452.67,270.24 452.96,270.5C453.27,270.78 453.57,271.1 453.86,271.45C454.17,271.82 454.48,272.23 454.77,272.67C455.08,273.14 455.38,273.65 455.67,274.17C455.98,274.72 456.28,275.31 456.58,275.91C456.89,276.54 457.18,277.19 457.48,277.85C457.79,278.53 458.08,279.24 458.38,279.95C458.68,280.67 458.99,281.41 459.29,282.14C459.59,282.86 459.88,283.6 460.19,284.31C460.49,285 460.79,285.7 461.1,286.34Q461.39,286.93 462,288.01" style="vector-effect: non-scaling-stroke; fill: none; stroke: rgb(0, 176, 246); stroke-opacity: 1; stroke-width: 2px; opacity: 1;"/></g><g class="points"/><g class="text"/></g><g class="trace scatter trace1a8e6a" style="stroke-miterlimit: 2; opacity: 1;"><g class="fills"/><g class="errorbars"/><g class="lines"><path class="js-line" d="M0,177.05Q0.64,175.33 0.9,174.17C1.28,172.48 1.52,170.07 1.81,167.82C2.13,165.26 2.42,162.45 2.71,159.62C3.02,156.59 3.32,153.42 3.62,150.22C3.93,146.89 4.22,143.47 4.52,140.03C4.82,136.52 5.12,132.94 5.42,129.37C5.72,125.76 6.03,122.11 6.33,118.48C6.63,114.84 6.93,111.18 7.23,107.55C7.53,103.94 7.84,100.33 8.14,96.76C8.44,93.24 8.74,89.72 9.04,86.26C9.34,82.86 9.64,79.49 9.95,76.17C10.25,72.94 10.54,69.74 10.85,66.61C11.15,63.58 11.44,60.6 11.75,57.68C12.05,54.88 12.35,52.12 12.66,49.45C12.95,46.91 13.25,44.41 13.56,42.01C13.85,39.75 14.16,37.53 14.47,35.42C14.76,33.45 15.06,31.54 15.37,29.73C15.66,28.08 15.95,26.48 16.27,24.99C16.56,23.66 16.85,22.37 17.18,21.22C17.46,20.22 17.74,19.26 18.08,18.46C18.36,17.8 18.64,17.14 18.99,16.71C19.26,16.38 19.58,16.05 19.89,16C20.18,15.95 20.52,16.11 20.79,16.32C21.14,16.59 21.42,17.13 21.7,17.65C22.04,18.31 22.32,19.14 22.6,20C22.93,21.01 23.22,22.15 23.51,23.33C23.83,24.67 24.12,26.12 24.41,27.62C24.73,29.27 25.03,31.02 25.32,32.82C25.63,34.77 25.93,36.81 26.22,38.9C26.53,41.13 26.83,43.44 27.12,45.8C27.43,48.29 27.73,50.85 28.03,53.46C28.34,56.18 28.63,58.98 28.93,61.81C29.24,64.74 29.54,67.74 29.84,70.76C30.15,73.87 30.44,77.03 30.74,80.21C31.04,83.45 31.34,86.74 31.64,90.04C31.94,93.37 32.25,96.74 32.55,100.1C32.85,103.46 33.15,106.85 33.45,110.2C33.75,113.51 34.05,116.83 34.36,120.06C34.66,123.18 34.95,126.27 35.26,129.24C35.55,132.05 35.85,134.79 36.16,137.45C36.45,139.98 36.76,142.43 37.07,144.83C37.36,147.11 37.66,149.34 37.97,151.51C38.26,153.58 38.57,155.58 38.88,157.55C39.18,159.44 39.47,161.28 39.78,163.09C40.07,164.83 40.37,166.53 40.68,168.21C40.98,169.84 41.28,171.43 41.59,173.01C41.89,174.55 42.19,176.07 42.49,177.58C42.79,179.05 43.09,180.51 43.4,181.95C43.7,183.36 43.99,184.75 44.3,186.12C44.6,187.45 44.9,188.77 45.21,190.05C45.51,191.28 45.8,192.49 46.11,193.65C46.4,194.74 46.69,195.82 47.01,196.82C47.3,197.74 47.6,198.63 47.92,199.43C48.2,200.13 48.49,200.82 48.82,201.38C49.1,201.85 49.39,202.31 49.73,202.61C50.01,202.85 50.32,203.06 50.63,203.11C50.92,203.16 51.24,203.08 51.53,202.95C51.85,202.81 52.15,202.51 52.44,202.23C52.76,201.92 53.05,201.52 53.34,201.13C53.65,200.72 53.95,200.26 54.25,199.81C54.55,199.36 54.85,198.89 55.15,198.44C55.45,198 55.74,197.56 56.05,197.15C56.34,196.76 56.65,196.39 56.96,196.06C57.25,195.75 57.55,195.46 57.86,195.23C58.15,195.02 58.46,194.83 58.77,194.71C59.06,194.6 59.37,194.53 59.67,194.52C59.97,194.51 60.28,194.56 60.58,194.63C60.88,194.7 61.18,194.83 61.48,194.95C61.78,195.08 62.08,195.25 62.38,195.38C62.68,195.51 62.98,195.68 63.29,195.74C63.59,195.8 63.9,195.83 64.19,195.77C64.5,195.71 64.8,195.53 65.1,195.38C65.4,195.23 65.7,195.04 66,194.89C66.3,194.74 66.6,194.6 66.9,194.49C67.2,194.38 67.5,194.29 67.81,194.24C68.11,194.19 68.41,194.17 68.71,194.21C69.02,194.25 69.33,194.34 69.62,194.49C69.94,194.66 70.24,194.91 70.52,195.2C70.84,195.53 71.14,195.96 71.42,196.41C71.74,196.93 72.04,197.53 72.33,198.17C72.65,198.88 72.94,199.67 73.23,200.49C73.55,201.39 73.85,202.35 74.14,203.34C74.45,204.41 74.75,205.54 75.04,206.69C75.35,207.91 75.65,209.19 75.95,210.49C76.26,211.85 76.55,213.25 76.85,214.66C77.15,216.12 77.45,217.61 77.75,219.1C78.05,220.62 78.36,222.16 78.66,223.69C78.96,225.22 79.26,226.77 79.56,228.28C79.86,229.76 80.16,231.25 80.47,232.67C80.76,234.03 81.05,235.39 81.37,236.63C81.66,237.75 81.93,238.89 82.27,239.82C82.55,240.58 82.78,241.51 83.18,241.82C83.44,242.02 83.81,242.1 84.08,241.99C84.44,241.84 84.72,241.21 84.99,240.66C85.35,239.92 85.61,238.9 85.89,237.87C86.22,236.63 86.5,235.15 86.79,233.72C87.1,232.19 87.4,230.58 87.7,228.98C88.01,227.34 88.3,225.66 88.6,223.99C88.9,222.31 89.21,220.61 89.51,218.93C89.81,217.26 90.11,215.6 90.41,213.95C90.71,212.33 91.01,210.71 91.32,209.13C91.62,207.59 91.91,206.06 92.22,204.56C92.52,203.11 92.81,201.68 93.12,200.29C93.42,198.96 93.72,197.65 94.03,196.39C94.32,195.2 94.62,194.03 94.93,192.91C95.22,191.86 95.53,190.85 95.84,189.89C96.13,189.01 96.42,188.15 96.74,187.36C97.03,186.65 97.32,185.96 97.64,185.36C97.93,184.82 98.22,184.31 98.55,183.9C98.83,183.55 99.12,183.21 99.45,183C99.73,182.82 100.06,182.68 100.36,182.67C100.66,182.66 100.98,182.76 101.26,182.92C101.58,183.1 101.88,183.42 102.16,183.75C102.49,184.14 102.79,184.62 103.07,185.13C103.39,185.71 103.68,186.38 103.97,187.07C104.29,187.84 104.59,188.67 104.88,189.53C105.2,190.47 105.49,191.46 105.78,192.49C106.09,193.59 106.39,194.75 106.68,195.93C106.99,197.18 107.29,198.48 107.59,199.8C107.9,201.19 108.19,202.62 108.49,204.07C108.8,205.58 109.1,207.13 109.4,208.7C109.71,210.32 110,211.96 110.3,213.63C110.61,215.34 110.91,217.08 111.21,218.83C111.51,220.61 111.81,222.42 112.11,224.24C112.41,226.08 112.71,227.94 113.01,229.81C113.31,231.7 113.62,233.6 113.92,235.5C114.22,237.41 114.52,239.33 114.82,241.25C115.12,243.17 115.43,245.1 115.73,247.02C116.03,248.93 116.33,250.85 116.63,252.75C116.93,254.64 117.22,256.54 117.53,258.38C117.83,260.15 118.12,261.95 118.44,263.58C118.73,265.03 119.03,266.35 119.34,267.68C119.63,268.94 119.94,270.17 120.25,271.35C120.54,272.46 120.83,273.56 121.15,274.55C121.43,275.43 121.73,276.28 122.05,277.03C122.33,277.69 122.62,278.35 122.96,278.84C123.23,279.23 123.53,279.65 123.86,279.78C124.14,279.89 124.48,279.79 124.77,279.7C125.08,279.6 125.38,279.42 125.67,279.2C125.99,278.96 126.3,278.65 126.58,278.29C126.91,277.86 127.2,277.31 127.48,276.75C127.8,276.11 128.09,275.36 128.38,274.62C128.69,273.82 128.99,272.97 129.29,272.11C129.6,271.21 129.89,270.29 130.19,269.35C130.5,268.38 130.8,267.38 131.1,266.37C131.41,265.34 131.7,264.29 132,263.23C132.3,262.16 132.6,261.07 132.9,259.98C133.2,258.87 133.51,257.75 133.81,256.64C134.11,255.52 134.41,254.4 134.71,253.29C135.01,252.18 135.32,251.07 135.62,249.97C135.92,248.88 136.22,247.79 136.52,246.72C136.82,245.67 137.11,244.62 137.42,243.6C137.72,242.6 138.02,241.62 138.33,240.66C138.63,239.73 138.92,238.81 139.23,237.92C139.53,237.07 139.83,236.24 140.14,235.44C140.43,234.68 140.73,233.94 141.04,233.23C141.33,232.57 141.64,231.92 141.95,231.32C142.24,230.76 142.54,230.22 142.85,229.73C143.14,229.28 143.43,228.85 143.75,228.49C144.04,228.16 144.34,227.85 144.66,227.62C144.95,227.41 145.25,227.23 145.56,227.13C145.85,227.04 146.17,227 146.47,227.04C146.78,227.08 147.08,227.2 147.37,227.36C147.68,227.53 147.98,227.79 148.27,228.07C148.59,228.38 148.89,228.77 149.18,229.18C149.5,229.63 149.79,230.13 150.08,230.65C150.4,231.22 150.7,231.84 150.99,232.48C151.3,233.16 151.6,233.88 151.89,234.62C152.2,235.4 152.49,236.22 152.79,237.06C153.1,237.94 153.4,238.84 153.7,239.76C154.01,240.72 154.3,241.71 154.6,242.71C154.91,243.74 155.21,244.8 155.51,245.86C155.81,246.95 156.11,248.05 156.41,249.16C156.71,250.28 157.02,251.42 157.32,252.54C157.62,253.65 157.92,254.78 158.22,255.87C158.52,256.93 158.81,258.01 159.12,259.01C159.41,259.94 159.71,260.87 160.03,261.7C160.32,262.44 160.6,263.16 160.93,263.76C161.21,264.28 161.5,264.78 161.84,265.13C162.12,265.42 162.42,265.69 162.74,265.8C163.03,265.9 163.35,265.91 163.64,265.83C163.96,265.75 164.26,265.51 164.55,265.27C164.87,265 165.16,264.61 165.45,264.23C165.77,263.8 166.07,263.31 166.36,262.81C166.67,262.27 166.97,261.7 167.26,261.11C167.57,260.5 167.86,259.85 168.16,259.2C168.47,258.53 168.77,257.83 169.07,257.13C169.38,256.41 169.67,255.66 169.97,254.91C170.28,254.13 170.58,253.35 170.88,252.54C171.19,251.71 171.48,250.85 171.78,249.99C172.08,249.11 172.38,248.21 172.68,247.31C172.98,246.39 173.29,245.47 173.59,244.53C173.9,243.57 174.19,242.57 174.49,241.6C174.79,240.64 175.09,239.67 175.4,238.73C175.7,237.83 175.99,236.94 176.3,236.08C176.59,235.26 176.9,234.47 177.21,233.7C177.5,232.97 177.8,232.26 178.11,231.57C178.4,230.92 178.7,230.28 179.01,229.68C179.3,229.12 179.61,228.57 179.92,228.07C180.21,227.6 180.51,227.16 180.82,226.75C181.11,226.37 181.42,226.01 181.73,225.68C182.02,225.37 182.32,225.08 182.63,224.82C182.92,224.57 183.22,224.33 183.53,224.12C183.83,223.91 184.13,223.73 184.44,223.55C184.74,223.38 185.04,223.22 185.34,223.08C185.64,222.94 185.95,222.82 186.25,222.7C186.55,222.59 186.85,222.49 187.15,222.39C187.45,222.29 187.75,222.2 188.05,222.1C188.35,222 188.66,221.91 188.96,221.81C189.26,221.71 189.56,221.61 189.86,221.5C190.16,221.39 190.47,221.27 190.77,221.14C191.07,221.01 191.37,220.87 191.67,220.74C191.97,220.6 192.28,220.46 192.58,220.33C192.88,220.2 193.18,220.06 193.48,219.94C193.78,219.82 194.08,219.69 194.38,219.6C194.68,219.51 194.99,219.43 195.29,219.38C195.59,219.33 195.89,219.3 196.19,219.32C196.49,219.34 196.8,219.38 197.1,219.48C197.41,219.58 197.71,219.73 198,219.92C198.31,220.13 198.61,220.39 198.9,220.69C199.22,221.02 199.52,221.41 199.81,221.83C200.13,222.3 200.42,222.83 200.71,223.39C201.03,224.01 201.33,224.68 201.62,225.39C201.94,226.16 202.23,227 202.52,227.86C202.83,228.8 203.13,229.79 203.42,230.82C203.73,231.92 204.04,233.07 204.33,234.25C204.64,235.51 204.94,236.82 205.23,238.16C205.54,239.57 205.84,241.04 206.14,242.53C206.45,244.09 206.74,245.69 207.04,247.31C207.35,249 207.65,250.72 207.95,252.47C208.26,254.27 208.55,256.1 208.85,257.94C209.15,259.82 209.45,261.73 209.75,263.63C210.05,265.55 210.36,267.49 210.66,269.4C210.96,271.3 211.25,273.21 211.56,275.06C211.86,276.85 212.15,278.68 212.47,280.34C212.76,281.84 213.03,283.35 213.37,284.61C213.64,285.63 213.94,286.54 214.27,287.35C214.55,288.03 214.85,288.65 215.18,289.16C215.46,289.59 215.74,290.05 216.08,290.27C216.36,290.45 216.71,290.58 216.99,290.5C217.32,290.4 217.63,289.97 217.89,289.55C218.26,288.96 218.52,288.06 218.79,287.16C219.13,286.03 219.42,284.65 219.7,283.25C220.03,281.63 220.31,279.82 220.6,277.99C220.92,275.99 221.22,273.85 221.51,271.69C221.82,269.42 222.11,267.05 222.41,264.69C222.72,262.28 223.02,259.8 223.32,257.36C223.62,254.91 223.92,252.45 224.22,250.02C224.52,247.63 224.81,245.24 225.12,242.9C225.42,240.62 225.72,238.36 226.03,236.15C226.33,234.02 226.62,231.92 226.93,229.89C227.22,227.95 227.53,226.04 227.84,224.21C228.13,222.49 228.43,220.81 228.74,219.2C229.03,217.71 229.32,216.25 229.64,214.89C229.93,213.65 230.23,212.46 230.55,211.36C230.84,210.38 231.12,209.44 231.45,208.61C231.73,207.9 232.02,207.22 232.36,206.69C232.64,206.25 232.92,205.82 233.26,205.59C233.54,205.4 233.87,205.27 234.16,205.3C234.47,205.33 234.79,205.55 235.07,205.8C235.41,206.1 235.69,206.57 235.97,207.04C236.3,207.59 236.59,208.25 236.88,208.93C237.2,209.68 237.49,210.51 237.78,211.34C238.09,212.23 238.38,213.17 238.68,214.1C238.98,215.04 239.29,215.99 239.59,216.93C239.89,217.86 240.19,218.77 240.49,219.7C240.79,220.65 241.1,221.61 241.4,222.57C241.7,223.55 242,224.54 242.3,225.53C242.6,226.53 242.91,227.55 243.21,228.54C243.51,229.52 243.8,230.5 244.11,231.44C244.4,232.35 244.69,233.26 245.01,234.09C245.3,234.85 245.59,235.61 245.92,236.23C246.2,236.75 246.46,237.35 246.82,237.6C247.09,237.79 247.46,237.92 247.73,237.81C248.09,237.67 248.37,237.03 248.63,236.46C249,235.65 249.25,234.48 249.53,233.3C249.87,231.85 250.15,230.12 250.44,228.38C250.76,226.42 251.05,224.26 251.34,222.09C251.65,219.77 251.95,217.33 252.25,214.88C252.56,212.35 252.85,209.75 253.15,207.16C253.45,204.53 253.75,201.87 254.05,199.23C254.35,196.6 254.66,193.96 254.96,191.35C255.26,188.78 255.55,186.21 255.86,183.69C256.16,181.23 256.46,178.79 256.77,176.41C257.07,174.1 257.36,171.83 257.67,169.61C257.97,167.49 258.27,165.4 258.58,163.38C258.87,161.47 259.17,159.6 259.48,157.81C259.77,156.13 260.07,154.49 260.38,152.93C260.67,151.49 260.97,150.1 261.29,148.8C261.58,147.62 261.87,146.48 262.19,145.45C262.48,144.54 262.77,143.66 263.1,142.9C263.38,142.26 263.66,141.63 264,141.17C264.27,140.79 264.57,140.42 264.9,140.26C265.18,140.13 265.52,140.09 265.81,140.17C266.13,140.26 266.43,140.56 266.71,140.87C267.05,141.25 267.34,141.79 267.62,142.34C267.95,142.99 268.23,143.75 268.52,144.53C268.84,145.4 269.13,146.36 269.42,147.34C269.73,148.4 270.04,149.54 270.33,150.69C270.64,151.9 270.93,153.17 271.23,154.44C271.54,155.75 271.84,157.1 272.14,158.45C272.44,159.82 272.74,161.2 273.04,162.58C273.34,163.95 273.65,165.33 273.95,166.7C274.25,168.05 274.55,169.4 274.85,170.73C275.15,172.04 275.44,173.34 275.75,174.61C276.05,175.84 276.35,177.07 276.66,178.25C276.96,179.38 277.25,180.51 277.56,181.56C277.85,182.54 278.15,183.5 278.47,184.36C278.75,185.12 279.03,185.88 279.37,186.46C279.64,186.92 279.92,187.46 280.27,187.62C280.54,187.75 280.91,187.74 281.18,187.58C281.55,187.36 281.81,186.69 282.08,186.08C282.45,185.23 282.71,184.06 282.99,182.89C283.32,181.49 283.6,179.86 283.89,178.22C284.21,176.41 284.5,174.47 284.79,172.5C285.1,170.4 285.4,168.21 285.7,165.99C286.01,163.68 286.3,161.29 286.6,158.89C286.91,156.42 287.21,153.9 287.51,151.37C287.81,148.8 288.11,146.19 288.41,143.59C288.71,140.97 289.02,138.33 289.32,135.7C289.62,133.07 289.92,130.43 290.22,127.82C290.52,125.23 290.82,122.65 291.12,120.09C291.42,117.58 291.72,115.07 292.03,112.61C292.33,110.2 292.62,107.82 292.93,105.48C293.23,103.21 293.53,100.96 293.84,98.77C294.14,96.66 294.43,94.59 294.74,92.57C295.03,90.64 295.33,88.75 295.64,86.92C295.93,85.19 296.24,83.51 296.55,81.89C296.84,80.37 297.14,78.89 297.45,77.48C297.74,76.17 298.04,74.91 298.36,73.72C298.65,72.62 298.95,71.57 299.26,70.58C299.55,69.68 299.84,68.81 300.16,68.01C300.45,67.29 300.75,66.59 301.07,65.98C301.35,65.45 301.64,64.93 301.97,64.54C302.25,64.21 302.55,63.88 302.88,63.73C303.16,63.6 303.49,63.54 303.78,63.59C304.09,63.65 304.4,63.87 304.68,64.11C305.01,64.4 305.31,64.82 305.59,65.26C305.92,65.77 306.2,66.39 306.49,67.03C306.81,67.75 307.11,68.54 307.4,69.36C307.72,70.26 308.01,71.22 308.3,72.21C308.61,73.27 308.92,74.38 309.21,75.52C309.52,76.72 309.82,77.96 310.11,79.23C310.42,80.55 310.71,81.91 311.01,83.29C311.32,84.71 311.62,86.17 311.92,87.64C312.23,89.15 312.52,90.68 312.82,92.23C313.12,93.81 313.43,95.41 313.73,97.02C314.03,98.66 314.33,100.31 314.63,101.98C314.93,103.67 315.23,105.37 315.53,107.08C315.83,108.82 316.14,110.57 316.44,112.33C316.74,114.12 317.04,115.92 317.34,117.74C317.64,119.59 317.95,121.44 318.25,123.32C318.55,125.23 318.85,127.16 319.15,129.1C319.45,131.07 319.75,133.06 320.05,135.07C320.35,137.12 320.66,139.18 320.96,141.27C321.26,143.39 321.56,145.53 321.86,147.69C322.16,149.89 322.47,152.11 322.77,154.35C323.07,156.62 323.37,158.92 323.67,161.23C323.97,163.58 324.28,165.95 324.58,168.34C324.88,170.76 325.18,173.2 325.48,175.66C325.78,178.15 326.08,180.65 326.38,183.17C326.68,185.71 326.99,188.27 327.29,190.84C327.59,193.43 327.89,196.04 328.19,198.65C328.49,201.28 328.8,203.91 329.1,206.55C329.4,209.2 329.7,211.85 330,214.5C330.3,217.15 330.6,219.79 330.9,222.43C331.2,225.06 331.51,227.69 331.81,230.3C332.11,232.89 332.41,235.48 332.71,238.05C333.01,240.59 333.32,243.11 333.62,245.61C333.92,248.07 334.22,250.52 334.52,252.94C334.82,255.31 335.11,257.65 335.42,259.96C335.72,262.21 336.02,264.44 336.33,266.62C336.63,268.73 336.92,270.81 337.23,272.84C337.53,274.79 337.83,276.7 338.14,278.55C338.43,280.31 338.73,282.04 339.04,283.7C339.33,285.26 339.64,286.79 339.95,288.24C340.24,289.58 340.53,290.89 340.85,292.1C341.14,293.19 341.41,294.31 341.75,295.2C342.03,295.92 342.27,296.77 342.66,297.08C342.92,297.28 343.29,297.37 343.56,297.27C343.91,297.14 344.19,296.57 344.47,296.1C344.81,295.52 345.08,294.72 345.37,293.99C345.68,293.21 345.97,292.38 346.27,291.56C346.58,290.72 346.88,289.85 347.18,288.99C347.48,288.12 347.78,287.24 348.08,286.38C348.38,285.52 348.69,284.67 348.99,283.83C349.29,282.99 349.59,282.18 349.89,281.34C350.19,280.5 350.48,279.62 350.79,278.79C351.09,277.99 351.39,277.18 351.7,276.43C351.99,275.72 352.29,275.04 352.6,274.4C352.89,273.8 353.19,273.23 353.51,272.71C353.8,272.23 354.1,271.77 354.41,271.36C354.7,270.98 355.01,270.63 355.32,270.32C355.61,270.03 355.91,269.78 356.22,269.53C356.52,269.29 356.82,269.08 357.12,268.86C357.42,268.65 357.73,268.44 358.03,268.24C358.33,268.04 358.63,267.84 358.93,267.66C359.23,267.48 359.54,267.33 359.84,267.14C360.14,266.95 360.45,266.75 360.74,266.52C361.05,266.28 361.34,265.99 361.64,265.71C361.94,265.43 362.25,265.14 362.55,264.85C362.85,264.56 363.16,264.3 363.45,263.99C363.76,263.67 364.07,263.32 364.36,262.95C364.67,262.56 364.96,262.14 365.26,261.72C365.56,261.29 365.87,260.89 366.16,260.42C366.48,259.91 366.79,259.37 367.07,258.76C367.39,258.07 367.67,257.25 367.97,256.48C368.28,255.69 368.58,254.88 368.88,254.06C369.18,253.23 369.48,252.39 369.78,251.55C370.08,250.7 370.38,249.83 370.68,248.97C370.98,248.1 371.29,247.24 371.59,246.37C371.89,245.51 372.19,244.65 372.49,243.79C372.79,242.94 373.1,242.09 373.4,241.26C373.7,240.44 374,239.63 374.3,238.83C374.6,238.04 374.9,237.26 375.21,236.5C375.51,235.76 375.81,235.03 376.11,234.32C376.41,233.62 376.7,232.94 377.01,232.27C377.31,231.62 377.61,230.99 377.92,230.36C378.22,229.75 378.52,229.14 378.82,228.55C379.12,227.97 379.43,227.4 379.73,226.83C380.03,226.27 380.33,225.72 380.63,225.18C380.93,224.66 381.22,224.14 381.53,223.65C381.83,223.18 382.13,222.73 382.44,222.31C382.73,221.92 383.03,221.55 383.34,221.22C383.63,220.91 383.94,220.62 384.25,220.39C384.54,220.17 384.84,219.99 385.15,219.85C385.44,219.72 385.75,219.62 386.05,219.58C386.35,219.54 386.66,219.54 386.96,219.59C387.26,219.64 387.57,219.74 387.86,219.86C388.17,219.99 388.47,220.17 388.77,220.36C389.08,220.56 389.37,220.81 389.67,221.06C389.98,221.32 390.28,221.61 390.58,221.91C390.89,222.21 391.18,222.54 391.48,222.86C391.78,223.19 392.08,223.53 392.38,223.86C392.68,224.2 392.99,224.54 393.29,224.87C393.59,225.19 393.89,225.51 394.19,225.82C394.49,226.12 394.79,226.42 395.1,226.7C395.4,226.97 395.7,227.22 396,227.47C396.3,227.71 396.6,227.94 396.9,228.16C397.2,228.38 397.51,228.59 397.81,228.79C398.11,228.99 398.41,229.18 398.71,229.38C399.01,229.58 399.32,229.79 399.62,230C399.92,230.22 400.22,230.43 400.52,230.67C400.82,230.91 401.12,231.16 401.42,231.43C401.73,231.71 402.03,232 402.33,232.32C402.64,232.65 402.94,233 403.23,233.37C403.54,233.76 403.85,234.16 404.14,234.59C404.45,235.04 404.75,235.51 405.04,236C405.35,236.51 405.65,237.05 405.95,237.6C406.26,238.18 406.56,238.79 406.85,239.41C407.16,240.05 407.45,240.72 407.75,241.4C408.06,242.11 408.36,242.83 408.66,243.57C408.97,244.33 409.26,245.11 409.56,245.89C409.87,246.69 410.17,247.51 410.47,248.33C410.77,249.16 411.07,250 411.37,250.84C411.67,251.68 411.97,252.52 412.27,253.36C412.57,254.19 412.88,255.03 413.18,255.85C413.48,256.67 413.78,257.47 414.08,258.28C414.38,259.08 414.69,259.88 414.99,260.67C415.29,261.46 415.59,262.25 415.89,263.03C416.19,263.81 416.48,264.6 416.79,265.36C417.09,266.09 417.39,266.79 417.7,267.49C418,268.17 418.3,268.84 418.6,269.51C418.9,270.19 419.21,270.87 419.51,271.55C419.81,272.24 420.11,272.93 420.41,273.63C420.71,274.34 421.02,275.06 421.32,275.78C421.62,276.52 421.92,277.26 422.22,278.01C422.52,278.78 422.82,279.57 423.12,280.36C423.42,281.17 423.73,281.99 424.03,282.82C424.33,283.66 424.63,284.51 424.93,285.36C425.23,286.21 425.54,287.05 425.84,287.9C426.14,288.75 426.44,289.6 426.74,290.45C427.04,291.29 427.33,292.15 427.64,292.97C427.94,293.76 428.25,294.52 428.55,295.3C428.85,296.08 429.15,296.85 429.45,297.64C429.75,298.43 430.05,299.27 430.36,300.04C430.65,300.78 430.92,301.59 431.26,302.18C431.53,302.65 431.82,303.11 432.16,303.35C432.44,303.54 432.76,303.62 433.07,303.64C433.37,303.66 433.67,303.54 433.97,303.49C434.27,303.44 434.58,303.4 434.88,303.35C435.18,303.31 435.48,303.29 435.78,303.22C436.08,303.14 436.38,303.02 436.68,302.9C436.99,302.78 437.29,302.62 437.59,302.48C437.89,302.34 438.19,302.19 438.49,302.04C438.79,301.89 439.1,301.74 439.4,301.59C439.7,301.43 440,301.27 440.3,301.11C440.6,300.95 440.91,300.78 441.21,300.61C441.51,300.44 441.81,300.26 442.11,300.09C442.41,299.92 442.71,299.75 443.01,299.59C443.31,299.43 443.62,299.28 443.92,299.15C444.22,299.02 444.52,298.9 444.82,298.79C445.12,298.68 445.43,298.59 445.73,298.51C446.03,298.43 446.33,298.36 446.63,298.3C446.93,298.24 447.23,298.19 447.53,298.15C447.83,298.1 448.14,298.07 448.44,298.03C448.74,297.99 449.04,297.96 449.34,297.93C449.64,297.9 449.95,297.88 450.25,297.85C450.55,297.82 450.85,297.79 451.15,297.75C451.45,297.71 451.75,297.64 452.05,297.6C452.35,297.57 452.66,297.54 452.96,297.54C453.26,297.54 453.56,297.57 453.86,297.62C454.16,297.67 454.47,297.75 454.77,297.85C455.08,297.95 455.37,298.09 455.67,298.24C455.98,298.4 456.28,298.59 456.58,298.8C456.89,299.01 457.18,299.25 457.48,299.5C457.79,299.76 458.08,300.03 458.38,300.32C458.69,300.62 458.99,300.93 459.29,301.25C459.59,301.57 459.89,301.9 460.19,302.22C460.49,302.54 460.79,302.88 461.1,303.18Q461.4,303.47 462,304" style="vector-effect: non-scaling-stroke; fill: none; stroke: rgb(231, 107, 243); stroke-opacity: 1; stroke-width: 2px; opacity: 1;"/></g><g class="points"/><g class="text"/></g></g></g><g class="overplot"/><path class="xlines-above crisp" d="M0,0" style="fill: none;"/><path class="ylines-above crisp" d="M0,0" style="fill: none;"/><g class="overlines-above"/><g class="xaxislayer-above"><g class="xtick"><text text-anchor="middle" x="0" y="433" transform="translate(80,0)" style="font-family: 'Open Sans', verdana, arial, sans-serif; font-size: 12px; fill: rgb(42, 63, 95); fill-opacity: 1; white-space: pre;">0</text></g><g class="xtick"><text text-anchor="middle" x="0" y="433" transform="translate(170.23000000000002,0)" style="font-family: 'Open Sans', verdana, arial, sans-serif; font-size: 12px; fill: rgb(42, 63, 95); fill-opacity: 1; white-space: pre;">100</text></g><g class="xtick"><text text-anchor="middle" x="0" y="433" transform="translate(260.47,0)" style="font-family: 'Open Sans', verdana, arial, sans-serif; font-size: 12px; fill: rgb(42, 63, 95); fill-opacity: 1; white-space: pre;">200</text></g><g class="xtick"><text text-anchor="middle" x="0" y="433" transform="translate(350.7,0)" style="font-family: 'Open Sans', verdana, arial, sans-serif; font-size: 12px; fill: rgb(42, 63, 95); fill-opacity: 1; white-space: pre;">300</text></g><g class="xtick"><text text-anchor="middle" x="0" y="433" transform="translate(440.94,0)" style="font-family: 'Open Sans', verdana, arial, sans-serif; font-size: 12px; fill: rgb(42, 63, 95); fill-opacity: 1; white-space: pre;">400</text></g><g class="xtick"><text text-anchor="middle" x="0" y="433" transform="translate(531.1700000000001,0)" style="font-family: 'Open Sans', verdana, arial, sans-serif; font-size: 12px; fill: rgb(42, 63, 95); fill-opacity: 1; white-space: pre;">500</text></g></g><g class="yaxislayer-above"><g class="ytick"><text text-anchor="end" x="79" y="4.199999999999999" transform="translate(0,365.22)" style="font-family: 'Open Sans', verdana, arial, sans-serif; font-size: 12px; fill: rgb(42, 63, 95); fill-opacity: 1; white-space: pre;">500</text></g><g class="ytick"><text text-anchor="end" x="79" y="4.199999999999999" transform="translate(0,284.58000000000004)" style="font-family: 'Open Sans', verdana, arial, sans-serif; font-size: 12px; fill: rgb(42, 63, 95); fill-opacity: 1; white-space: pre;">1000</text></g><g class="ytick"><text text-anchor="end" x="79" y="4.199999999999999" transform="translate(0,203.94)" style="font-family: 'Open Sans', verdana, arial, sans-serif; font-size: 12px; fill: rgb(42, 63, 95); fill-opacity: 1; white-space: pre;">1500</text></g><g class="ytick"><text text-anchor="end" x="79" y="4.199999999999999" transform="translate(0,123.31)" style="font-family: 'Open Sans', verdana, arial, sans-serif; font-size: 12px; fill: rgb(42, 63, 95); fill-opacity: 1; white-space: pre;">2000</text></g></g><g class="overaxes-above"/></g></g><g class="polarlayer"/><g class="ternarylayer"/><g class="geolayer"/><g class="funnelarealayer"/><g class="pielayer"/><g class="treemaplayer"/><g class="sunburstlayer"/><g class="glimages"/><defs id="topdefs-c47371"><g class="clips"/><clipPath id="legendc47371"><rect width="137" height="67" x="0" y="0"/></clipPath></defs><g class="layer-above"><g class="imagelayer"/><g class="shapelayer"/></g><g class="infolayer"><g class="legend" pointer-events="all" transform="translate(551.24, 100)"><rect class="bg" shape-rendering="crispEdges" width="137" height="67" x="0" y="0" style="stroke: rgb(68, 68, 68); stroke-opacity: 1; fill: rgb(255, 255, 255); fill-opacity: 1; stroke-width: 0px;"/><g class="scrollbox" transform="translate(0, 0)" clip-path="url('#legendc47371')"><g class="groups"><g class="traces" transform="translate(0, 14.5)" style="opacity: 1;"><text class="legendtext" text-anchor="start" x="40" y="4.680000000000001" style="font-family: 'Open Sans', verdana, arial, sans-serif; font-size: 12px; fill: rgb(42, 63, 95); fill-opacity: 1; white-space: pre;">Average Class I</text><g class="layers" style="opacity: 1;"><g class="legendfill"/><g class="legendlines"><path class="js-line" d="M5,0h30" style="fill: none; stroke: rgb(0, 100, 80); stroke-opacity: 1; stroke-width: 2px;"/></g><g class="legendsymbols"><g class="legendpoints"/></g></g><rect class="legendtoggle" x="0" y="-9.5" width="131.15625" height="19" style="fill: rgb(0, 0, 0); fill-opacity: 0;"/></g><g class="traces" transform="translate(0, 33.5)" style="opacity: 1;"><text class="legendtext" text-anchor="start" x="40" y="4.680000000000001" style="font-family: 'Open Sans', verdana, arial, sans-serif; font-size: 12px; fill: rgb(42, 63, 95); fill-opacity: 1; white-space: pre;">Average Class II</text><g class="layers" style="opacity: 1;"><g class="legendfill"/><g class="legendlines"><path class="js-line" d="M5,0h30" style="fill: none; stroke: rgb(0, 176, 246); stroke-opacity: 1; stroke-width: 2px;"/></g><g class="legendsymbols"><g class="legendpoints"/></g></g><rect class="legendtoggle" x="0" y="-9.5" width="131.15625" height="19" style="fill: rgb(0, 0, 0); fill-opacity: 0;"/></g><g class="traces" transform="translate(0, 52.5)" style="opacity: 1;"><text class="legendtext" text-anchor="start" x="40" y="4.680000000000001" style="font-family: 'Open Sans', verdana, arial, sans-serif; font-size: 12px; fill: rgb(42, 63, 95); fill-opacity: 1; white-space: pre;">Average Class III</text><g class="layers" style="opacity: 1;"><g class="legendfill"/><g class="legendlines"><path class="js-line" d="M5,0h30" style="fill: none; stroke: rgb(231, 107, 243); stroke-opacity: 1; stroke-width: 2px;"/></g><g class="legendsymbols"><g class="legendpoints"/></g></g><rect class="legendtoggle" x="0" y="-9.5" width="131.15625" height="19" style="fill: rgb(0, 0, 0); fill-opacity: 0;"/></g></g></g><rect class="scrollbar" rx="20" ry="3" width="0" height="0" x="0" y="0" style="fill: rgb(128, 139, 164); fill-opacity: 1;"/></g><g class="g-gtitle"><text class="gtitle" x="35" y="50" text-anchor="start" dy="0em" style="font-family: 'Open Sans', verdana, arial, sans-serif; font-size: 17px; fill: rgb(42, 63, 95); opacity: 1; font-weight: normal; white-space: pre;">Average curve: secondary_structure_properties_group</text></g><g class="g-xtitle"><text class="xtitle" x="311" y="460.8" text-anchor="middle" style="font-family: 'Open Sans', verdana, arial, sans-serif; font-size: 14px; fill: rgb(42, 63, 95); opacity: 1; font-weight: normal; white-space: pre;">Domain</text></g><g class="g-ytitle"><text class="ytitle" transform="rotate(-90,27.496875000000003,260)" x="27.496875000000003" y="260" text-anchor="middle" style="font-family: 'Open Sans', verdana, arial, sans-serif; font-size: 14px; fill: rgb(42, 63, 95); opacity: 1; font-weight: normal; white-space: pre;">Frequency</text></g></g></svg>