<svg xmlns="http://www.w3.org/2000/svg" xmlns:xlink="http://www.w3.org/1999/xlink" version="1.1" width="824" height="2712" name="tree_result.svg" y="0" viewBox="0 0 824 2712">
<polyline points="824,2712 0,2712 0,0 824,0 824,2712" fill="white" />
<text x="432" y="37" fill="#000000" font-size="15" font-family="default" > seq 126:SC35EK:0.39:Class I</text>
<polyline points="417,44 417,32 430,32" fill="none" stroke="#000000" stroke-width="1" stroke-linecap="square"/>
<text x="432" y="61" fill="#000000" font-size="15" font-family="default" > seq 132:SC29EK:0.7:Class I</text>
<polyline points="417,45 417,56 430,56" fill="none" stroke="#000000" stroke-width="1" stroke-linecap="square"/>
<polyline points="404,62 404,44 417,44" fill="none" stroke="#000000" stroke-width="1" stroke-linecap="square"/>
<text x="432" y="85" fill="#000000" font-size="15" font-family="default" > seq 61:MT-SC29:0.43:Class I</text>
<polyline points="404,63 404,80 430,80" fill="none" stroke="#000000" stroke-width="1" stroke-linecap="square"/>
<polyline points="391,92 391,62 404,62" fill="none" stroke="#000000" stroke-width="1" stroke-linecap="square"/>
<text x="432" y="109" fill="#000000" font-size="15" font-family="default" > seq 110:MT-SC22:1.32:Class I</text>
<polyline points="404,122 404,104 430,104" fill="none" stroke="#000000" stroke-width="1" stroke-linecap="square"/>
<text x="432" y="133" fill="#000000" font-size="15" font-family="default" > seq 80:SC22:54.58:Class II</text>
<polyline points="417,140 417,128 430,128" fill="none" stroke="#000000" stroke-width="1" stroke-linecap="square"/>
<text x="432" y="157" fill="#000000" font-size="15" font-family="default" > seq 88:SC22EK:51.3:Class II</text>
<polyline points="417,141 417,152 430,152" fill="none" stroke="#000000" stroke-width="1" stroke-linecap="square"/>
<polyline points="404,123 404,140 417,140" fill="none" stroke="#000000" stroke-width="1" stroke-linecap="square"/>
<polyline points="391,93 391,122 404,122" fill="none" stroke="#000000" stroke-width="1" stroke-linecap="square"/>
<polyline points="378,140 378,92 391,92" fill="none" stroke="#000000" stroke-width="1" stroke-linecap="square"/>
<text x="432" y="181" fill="#000000" font-size="15" font-family="default" > seq 26:MT-SC20EK:3.0:Class I</text>
<polyline points="417,188 417,176 430,176" fill="none" stroke="#000000" stroke-width="1" stroke-linecap="square"/>
<text x="432" y="205" fill="#000000" font-size="15" font-family="default" > seq 131:MT-SC21EK:2.7:Class I</text>
<polyline points="417,189 417,200 430,200" fill="none" stroke="#000000" stroke-width="1" stroke-linecap="square"/>
<polyline points="378,141 378,188 417,188" fill="none" stroke="#000000" stroke-width="1" stroke-linecap="square"/>
<polyline points="365,182 365,140 378,140" fill="none" stroke="#000000" stroke-width="1" stroke-linecap="square"/>
<text x="432" y="229" fill="#000000" font-size="15" font-family="default" > seq 113:MT-SC19EK:4.8:Class I</text>
<polyline points="365,183 365,224 430,224" fill="none" stroke="#000000" stroke-width="1" stroke-linecap="square"/>
<polyline points="352,224 352,182 365,182" fill="none" stroke="#000000" stroke-width="1" stroke-linecap="square"/>
<text x="432" y="253" fill="#000000" font-size="15" font-family="default" > seq 90:4HR-LBD-VIRIP:91.0:Class II</text>
<polyline points="404,266 404,248 430,248" fill="none" stroke="#000000" stroke-width="1" stroke-linecap="square"/>
<text x="432" y="277" fill="#000000" font-size="15" font-family="default" > seq 1:2P23:0.69:Class I</text>
<polyline points="417,284 417,272 430,272" fill="none" stroke="#000000" stroke-width="1" stroke-linecap="square"/>
<text x="432" y="301" fill="#000000" font-size="15" font-family="default" > seq 143:HP23:0.19:Class I</text>
<polyline points="417,285 417,296 430,296" fill="none" stroke="#000000" stroke-width="1" stroke-linecap="square"/>
<polyline points="404,267 404,284 417,284" fill="none" stroke="#000000" stroke-width="1" stroke-linecap="square"/>
<polyline points="352,225 352,266 404,266" fill="none" stroke="#000000" stroke-width="1" stroke-linecap="square"/>
<polyline points="339,296 339,224 352,224" fill="none" stroke="#000000" stroke-width="1" stroke-linecap="square"/>
<text x="432" y="325" fill="#000000" font-size="15" font-family="default" > seq 146:MT-WQ:8.8:Class I</text>
<polyline points="417,332 417,320 430,320" fill="none" stroke="#000000" stroke-width="1" stroke-linecap="square"/>
<text x="432" y="349" fill="#000000" font-size="15" font-family="default" > seq 148:WQ:123.4:Class III</text>
<polyline points="417,333 417,344 430,344" fill="none" stroke="#000000" stroke-width="1" stroke-linecap="square"/>
<polyline points="378,369 378,332 417,332" fill="none" stroke="#000000" stroke-width="1" stroke-linecap="square"/>
<text x="432" y="373" fill="#000000" font-size="15" font-family="default" > seq 145:WQ-IDI:3.7:Class I</text>
<polyline points="417,380 417,368 430,368" fill="none" stroke="#000000" stroke-width="1" stroke-linecap="square"/>
<text x="432" y="397" fill="#000000" font-size="15" font-family="default" > seq 153:WQ-LDI:3.6:Class I</text>
<polyline points="417,381 417,392 430,392" fill="none" stroke="#000000" stroke-width="1" stroke-linecap="square"/>
<polyline points="391,407 391,380 417,380" fill="none" stroke="#000000" stroke-width="1" stroke-linecap="square"/>
<text x="432" y="421" fill="#000000" font-size="15" font-family="default" > seq 124:WQ-LDL:3.7:Class I</text>
<polyline points="404,434 404,416 430,416" fill="none" stroke="#000000" stroke-width="1" stroke-linecap="square"/>
<text x="432" y="445" fill="#000000" font-size="15" font-family="default" > seq 53:MT-WQ-IDL:0.6:Class I</text>
<polyline points="417,452 417,440 430,440" fill="none" stroke="#000000" stroke-width="1" stroke-linecap="square"/>
<text x="432" y="469" fill="#000000" font-size="15" font-family="default" > seq 177:WQ-IDL:1.6:Class I</text>
<polyline points="417,453 417,464 430,464" fill="none" stroke="#000000" stroke-width="1" stroke-linecap="square"/>
<polyline points="404,435 404,452 417,452" fill="none" stroke="#000000" stroke-width="1" stroke-linecap="square"/>
<polyline points="391,408 391,434 404,434" fill="none" stroke="#000000" stroke-width="1" stroke-linecap="square"/>
<polyline points="378,370 378,407 391,407" fill="none" stroke="#000000" stroke-width="1" stroke-linecap="square"/>
<polyline points="339,297 339,369 378,369" fill="none" stroke="#000000" stroke-width="1" stroke-linecap="square"/>
<polyline points="326,401 326,296 339,296" fill="none" stroke="#000000" stroke-width="1" stroke-linecap="square"/>
<text x="432" y="493" fill="#000000" font-size="15" font-family="default" > seq 68:SC34EK:1.6:Class I</text>
<polyline points="404,506 404,488 430,488" fill="none" stroke="#000000" stroke-width="1" stroke-linecap="square"/>
<text x="432" y="517" fill="#000000" font-size="15" font-family="default" > seq 158:SC34:0.39:Class I</text>
<polyline points="417,524 417,512 430,512" fill="none" stroke="#000000" stroke-width="1" stroke-linecap="square"/>
<text x="432" y="541" fill="#000000" font-size="15" font-family="default" > seq 166:SC34:1.4:Class I</text>
<polyline points="417,525 417,536 430,536" fill="none" stroke="#000000" stroke-width="1" stroke-linecap="square"/>
<polyline points="404,507 404,524 417,524" fill="none" stroke="#000000" stroke-width="1" stroke-linecap="square"/>
<polyline points="326,402 326,506 404,506" fill="none" stroke="#000000" stroke-width="1" stroke-linecap="square"/>
<polyline points="313,491 313,401 326,401" fill="none" stroke="#000000" stroke-width="1" stroke-linecap="square"/>
<text x="432" y="565" fill="#000000" font-size="15" font-family="default" > seq 20:CT105:2.88:Class I</text>
<polyline points="391,581 391,560 430,560" fill="none" stroke="#000000" stroke-width="1" stroke-linecap="square"/>
<text x="432" y="589" fill="#000000" font-size="15" font-family="default" > seq 89:2638:18.3213471524:Class II</text>
<polyline points="404,602 404,584 430,584" fill="none" stroke="#000000" stroke-width="1" stroke-linecap="square"/>
<text x="432" y="613" fill="#000000" font-size="15" font-family="default" > seq 100:2544:5.8493346382:Class I</text>
<polyline points="417,620 417,608 430,608" fill="none" stroke="#000000" stroke-width="1" stroke-linecap="square"/>
<text x="432" y="637" fill="#000000" font-size="15" font-family="default" > seq 104:291022:11.031166422:Class II</text>
<polyline points="417,621 417,632 430,632" fill="none" stroke="#000000" stroke-width="1" stroke-linecap="square"/>
<polyline points="404,603 404,620 417,620" fill="none" stroke="#000000" stroke-width="1" stroke-linecap="square"/>
<polyline points="391,582 391,602 404,602" fill="none" stroke="#000000" stroke-width="1" stroke-linecap="square"/>
<polyline points="313,492 313,581 391,581" fill="none" stroke="#000000" stroke-width="1" stroke-linecap="square"/>
<polyline points="300,573 300,491 313,491" fill="none" stroke="#000000" stroke-width="1" stroke-linecap="square"/>
<text x="432" y="661" fill="#000000" font-size="15" font-family="default" > seq 162:T628:216.4872348302:Class III</text>
<polyline points="300,574 300,656 430,656" fill="none" stroke="#000000" stroke-width="1" stroke-linecap="square"/>
<polyline points="287,726 287,573 300,573" fill="none" stroke="#000000" stroke-width="1" stroke-linecap="square"/>
<text x="432" y="685" fill="#000000" font-size="15" font-family="default" > seq 35:C34S138T:2.6:Class I</text>
<polyline points="417,692 417,680 430,680" fill="none" stroke="#000000" stroke-width="1" stroke-linecap="square"/>
<text x="432" y="709" fill="#000000" font-size="15" font-family="default" > seq 117:T-20S138T:0.9:Class I</text>
<polyline points="417,693 417,704 430,704" fill="none" stroke="#000000" stroke-width="1" stroke-linecap="square"/>
<polyline points="404,716 404,692 417,692" fill="none" stroke="#000000" stroke-width="1" stroke-linecap="square"/>
<text x="432" y="733" fill="#000000" font-size="15" font-family="default" > seq 157:C34S138P:46.0:Class II</text>
<polyline points="417,740 417,728 430,728" fill="none" stroke="#000000" stroke-width="1" stroke-linecap="square"/>
<text x="432" y="757" fill="#000000" font-size="15" font-family="default" > seq 170:T-20S138P:446.0:Class III</text>
<polyline points="417,741 417,752 430,752" fill="none" stroke="#000000" stroke-width="1" stroke-linecap="square"/>
<polyline points="404,717 404,740 417,740" fill="none" stroke="#000000" stroke-width="1" stroke-linecap="square"/>
<polyline points="391,752 391,716 404,716" fill="none" stroke="#000000" stroke-width="1" stroke-linecap="square"/>
<text x="432" y="781" fill="#000000" font-size="15" font-family="default" > seq 134:C34S138A:2.0:Class I</text>
<polyline points="417,788 417,776 430,776" fill="none" stroke="#000000" stroke-width="1" stroke-linecap="square"/>
<text x="432" y="805" fill="#000000" font-size="15" font-family="default" > seq 149:T-20S138A:0.6:Class I</text>
<polyline points="417,789 417,800 430,800" fill="none" stroke="#000000" stroke-width="1" stroke-linecap="square"/>
<polyline points="391,753 391,788 417,788" fill="none" stroke="#000000" stroke-width="1" stroke-linecap="square"/>
<polyline points="378,794 378,752 391,752" fill="none" stroke="#000000" stroke-width="1" stroke-linecap="square"/>
<text x="432" y="829" fill="#000000" font-size="15" font-family="default" > seq 43:T-20S138L:0.7:Class I</text>
<polyline points="417,836 417,824 430,824" fill="none" stroke="#000000" stroke-width="1" stroke-linecap="square"/>
<text x="432" y="853" fill="#000000" font-size="15" font-family="default" > seq 48:C34S138L:1.5:Class I</text>
<polyline points="417,837 417,848 430,848" fill="none" stroke="#000000" stroke-width="1" stroke-linecap="square"/>
<polyline points="378,795 378,836 417,836" fill="none" stroke="#000000" stroke-width="1" stroke-linecap="square"/>
<polyline points="339,880 339,794 378,794" fill="none" stroke="#000000" stroke-width="1" stroke-linecap="square"/>
<text x="432" y="877" fill="#000000" font-size="15" font-family="default" > seq 8:T-20S138E:283.0:Class III</text>
<polyline points="417,884 417,872 430,872" fill="none" stroke="#000000" stroke-width="1" stroke-linecap="square"/>
<text x="432" y="901" fill="#000000" font-size="15" font-family="default" > seq 55:T-20S138T:25.0:Class II</text>
<polyline points="417,885 417,896 430,896" fill="none" stroke="#000000" stroke-width="1" stroke-linecap="square"/>
<polyline points="404,908 404,884 417,884" fill="none" stroke="#000000" stroke-width="1" stroke-linecap="square"/>
<text x="432" y="925" fill="#000000" font-size="15" font-family="default" > seq 32:T-20S138N:19.0:Class II</text>
<polyline points="417,932 417,920 430,920" fill="none" stroke="#000000" stroke-width="1" stroke-linecap="square"/>
<text x="432" y="949" fill="#000000" font-size="15" font-family="default" > seq 121:T-20S138W:29.0:Class II</text>
<polyline points="417,933 417,944 430,944" fill="none" stroke="#000000" stroke-width="1" stroke-linecap="square"/>
<polyline points="404,909 404,932 417,932" fill="none" stroke="#000000" stroke-width="1" stroke-linecap="square"/>
<polyline points="352,966 352,908 404,908" fill="none" stroke="#000000" stroke-width="1" stroke-linecap="square"/>
<text x="432" y="973" fill="#000000" font-size="15" font-family="default" > seq 85:T-20S138:34.0:Class II</text>
<polyline points="417,980 417,968 430,968" fill="none" stroke="#000000" stroke-width="1" stroke-linecap="square"/>
<text x="432" y="997" fill="#000000" font-size="15" font-family="default" > seq 103:T-20S138D:210.0:Class III</text>
<polyline points="417,981 417,992 430,992" fill="none" stroke="#000000" stroke-width="1" stroke-linecap="square"/>
<polyline points="365,1025 365,980 417,980" fill="none" stroke="#000000" stroke-width="1" stroke-linecap="square"/>
<text x="432" y="1021" fill="#000000" font-size="15" font-family="default" > seq 39:T-20S138Q:362.0:Class III</text>
<polyline points="417,1028 417,1016 430,1016" fill="none" stroke="#000000" stroke-width="1" stroke-linecap="square"/>
<text x="432" y="1045" fill="#000000" font-size="15" font-family="default" > seq 46:T-20S138V:0.4:Class I</text>
<polyline points="417,1029 417,1040 430,1040" fill="none" stroke="#000000" stroke-width="1" stroke-linecap="square"/>
<polyline points="378,1070 378,1028 417,1028" fill="none" stroke="#000000" stroke-width="1" stroke-linecap="square"/>
<text x="432" y="1069" fill="#000000" font-size="15" font-family="default" > seq 2:T-20S138K:708.0:Class III</text>
<polyline points="417,1076 417,1064 430,1064" fill="none" stroke="#000000" stroke-width="1" stroke-linecap="square"/>
<text x="432" y="1093" fill="#000000" font-size="15" font-family="default" > seq 81:T-20S138M:0.7:Class I</text>
<polyline points="417,1077 417,1088 430,1088" fill="none" stroke="#000000" stroke-width="1" stroke-linecap="square"/>
<polyline points="391,1112 391,1076 417,1076" fill="none" stroke="#000000" stroke-width="1" stroke-linecap="square"/>
<text x="432" y="1117" fill="#000000" font-size="15" font-family="default" > seq 9:T-20S138F:9.4:Class I</text>
<polyline points="417,1124 417,1112 430,1112" fill="none" stroke="#000000" stroke-width="1" stroke-linecap="square"/>
<text x="432" y="1141" fill="#000000" font-size="15" font-family="default" > seq 63:T-20S138H:210.0:Class III</text>
<polyline points="417,1125 417,1136 430,1136" fill="none" stroke="#000000" stroke-width="1" stroke-linecap="square"/>
<polyline points="404,1148 404,1124 417,1124" fill="none" stroke="#000000" stroke-width="1" stroke-linecap="square"/>
<text x="432" y="1165" fill="#000000" font-size="15" font-family="default" > seq 31:T-20S138G:1.3:Class I</text>
<polyline points="417,1172 417,1160 430,1160" fill="none" stroke="#000000" stroke-width="1" stroke-linecap="square"/>
<text x="432" y="1189" fill="#000000" font-size="15" font-family="default" > seq 161:T-20S138I:0.5:Class I</text>
<polyline points="417,1173 417,1184 430,1184" fill="none" stroke="#000000" stroke-width="1" stroke-linecap="square"/>
<polyline points="404,1149 404,1172 417,1172" fill="none" stroke="#000000" stroke-width="1" stroke-linecap="square"/>
<polyline points="391,1113 391,1148 404,1148" fill="none" stroke="#000000" stroke-width="1" stroke-linecap="square"/>
<polyline points="378,1071 378,1112 391,1112" fill="none" stroke="#000000" stroke-width="1" stroke-linecap="square"/>
<polyline points="365,1026 365,1070 378,1070" fill="none" stroke="#000000" stroke-width="1" stroke-linecap="square"/>
<polyline points="352,967 352,1025 365,1025" fill="none" stroke="#000000" stroke-width="1" stroke-linecap="square"/>
<polyline points="339,881 339,966 352,966" fill="none" stroke="#000000" stroke-width="1" stroke-linecap="square"/>
<polyline points="287,727 287,880 339,880" fill="none" stroke="#000000" stroke-width="1" stroke-linecap="square"/>
<polyline points="274,976 274,726 287,726" fill="none" stroke="#000000" stroke-width="1" stroke-linecap="square"/>
<text x="432" y="1213" fill="#000000" font-size="15" font-family="default" > seq 3:T645:19.5057920728:Class II</text>
<polyline points="404,1226 404,1208 430,1208" fill="none" stroke="#000000" stroke-width="1" stroke-linecap="square"/>
<text x="432" y="1237" fill="#000000" font-size="15" font-family="default" > seq 65:TM-C34:1.4:Class I</text>
<polyline points="417,1244 417,1232 430,1232" fill="none" stroke="#000000" stroke-width="1" stroke-linecap="square"/>
<text x="432" y="1261" fill="#000000" font-size="15" font-family="default" > seq 69:T379:0.0686217773:Class I</text>
<polyline points="417,1245 417,1256 430,1256" fill="none" stroke="#000000" stroke-width="1" stroke-linecap="square"/>
<polyline points="404,1227 404,1244 417,1244" fill="none" stroke="#000000" stroke-width="1" stroke-linecap="square"/>
<polyline points="274,977 274,1226 404,1226" fill="none" stroke="#000000" stroke-width="1" stroke-linecap="square"/>
<polyline points="261,1137 261,976 274,976" fill="none" stroke="#000000" stroke-width="1" stroke-linecap="square"/>
<text x="432" y="1285" fill="#000000" font-size="15" font-family="default" > seq 176:T648:8.1471372996:Class I</text>
<polyline points="404,1298 404,1280 430,1280" fill="none" stroke="#000000" stroke-width="1" stroke-linecap="square"/>
<text x="432" y="1309" fill="#000000" font-size="15" font-family="default" > seq 5:T704:116.9520909199:Class III</text>
<polyline points="417,1316 417,1304 430,1304" fill="none" stroke="#000000" stroke-width="1" stroke-linecap="square"/>
<text x="432" y="1333" fill="#000000" font-size="15" font-family="default" > seq 115:T647:9.9644224825:Class I</text>
<polyline points="417,1317 417,1328 430,1328" fill="none" stroke="#000000" stroke-width="1" stroke-linecap="square"/>
<polyline points="404,1299 404,1316 417,1316" fill="none" stroke="#000000" stroke-width="1" stroke-linecap="square"/>
<polyline points="261,1138 261,1298 404,1298" fill="none" stroke="#000000" stroke-width="1" stroke-linecap="square"/>
<polyline points="248,1274 248,1137 261,1137" fill="none" stroke="#000000" stroke-width="1" stroke-linecap="square"/>
<text x="432" y="1357" fill="#000000" font-size="15" font-family="default" > seq 6:C36M1A:18.5:Class II</text>
<polyline points="417,1364 417,1352 430,1352" fill="none" stroke="#000000" stroke-width="1" stroke-linecap="square"/>
<text x="432" y="1381" fill="#000000" font-size="15" font-family="default" > seq 108:C36M2A:18.2:Class II</text>
<polyline points="417,1365 417,1376 430,1376" fill="none" stroke="#000000" stroke-width="1" stroke-linecap="square"/>
<polyline points="404,1382 404,1364 417,1364" fill="none" stroke="#000000" stroke-width="1" stroke-linecap="square"/>
<text x="432" y="1405" fill="#000000" font-size="15" font-family="default" > seq 13:T701:0.6764542074:Class I</text>
<polyline points="404,1383 404,1400 430,1400" fill="none" stroke="#000000" stroke-width="1" stroke-linecap="square"/>
<polyline points="391,1412 391,1382 404,1382" fill="none" stroke="#000000" stroke-width="1" stroke-linecap="square"/>
<text x="432" y="1429" fill="#000000" font-size="15" font-family="default" > seq 14:P5:60.0:Class II</text>
<polyline points="404,1442 404,1424 430,1424" fill="none" stroke="#000000" stroke-width="1" stroke-linecap="square"/>
<text x="432" y="1453" fill="#000000" font-size="15" font-family="default" > seq 47:T702:8.0918696939:Class I</text>
<polyline points="417,1460 417,1448 430,1448" fill="none" stroke="#000000" stroke-width="1" stroke-linecap="square"/>
<text x="432" y="1477" fill="#000000" font-size="15" font-family="default" > seq 94:C36M3A:8.62:Class I</text>
<polyline points="417,1461 417,1472 430,1472" fill="none" stroke="#000000" stroke-width="1" stroke-linecap="square"/>
<polyline points="404,1443 404,1460 417,1460" fill="none" stroke="#000000" stroke-width="1" stroke-linecap="square"/>
<polyline points="391,1413 391,1442 404,1442" fill="none" stroke="#000000" stroke-width="1" stroke-linecap="square"/>
<polyline points="248,1275 248,1412 391,1412" fill="none" stroke="#000000" stroke-width="1" stroke-linecap="square"/>
<polyline points="235,1405 235,1274 248,1274" fill="none" stroke="#000000" stroke-width="1" stroke-linecap="square"/>
<text x="432" y="1501" fill="#000000" font-size="15" font-family="default" > seq 86:T213:5.619404478:Class I</text>
<polyline points="417,1508 417,1496 430,1496" fill="none" stroke="#000000" stroke-width="1" stroke-linecap="square"/>
<text x="432" y="1525" fill="#000000" font-size="15" font-family="default" > seq 147:2410:6.776559879400001:Class I</text>
<polyline points="417,1509 417,1520 430,1520" fill="none" stroke="#000000" stroke-width="1" stroke-linecap="square"/>
<polyline points="378,1536 378,1508 417,1508" fill="none" stroke="#000000" stroke-width="1" stroke-linecap="square"/>
<text x="432" y="1549" fill="#000000" font-size="15" font-family="default" > seq 18:T652:0.8926917557999999:Class I</text>
<polyline points="391,1565 391,1544 430,1544" fill="none" stroke="#000000" stroke-width="1" stroke-linecap="square"/>
<text x="432" y="1573" fill="#000000" font-size="15" font-family="default" > seq 12:T98:2.2477617912:Class I</text>
<polyline points="404,1586 404,1568 430,1568" fill="none" stroke="#000000" stroke-width="1" stroke-linecap="square"/>
<text x="432" y="1597" fill="#000000" font-size="15" font-family="default" > seq 10:T99:12.590239416900001:Class II</text>
<polyline points="417,1604 417,1592 430,1592" fill="none" stroke="#000000" stroke-width="1" stroke-linecap="square"/>
<text x="432" y="1621" fill="#000000" font-size="15" font-family="default" > seq 24:T216:225.025034035:Class III</text>
<polyline points="417,1605 417,1616 430,1616" fill="none" stroke="#000000" stroke-width="1" stroke-linecap="square"/>
<polyline points="404,1587 404,1604 417,1604" fill="none" stroke="#000000" stroke-width="1" stroke-linecap="square"/>
<polyline points="391,1566 391,1586 404,1586" fill="none" stroke="#000000" stroke-width="1" stroke-linecap="square"/>
<polyline points="378,1537 378,1565 391,1565" fill="none" stroke="#000000" stroke-width="1" stroke-linecap="square"/>
<polyline points="235,1406 235,1536 378,1536" fill="none" stroke="#000000" stroke-width="1" stroke-linecap="square"/>
<polyline points="222,1534 222,1405 235,1405" fill="none" stroke="#000000" stroke-width="1" stroke-linecap="square"/>
<text x="432" y="1645" fill="#000000" font-size="15" font-family="default" > seq 62:T212:0.6720595714:Class I</text>
<polyline points="352,1663 352,1640 430,1640" fill="none" stroke="#000000" stroke-width="1" stroke-linecap="square"/>
<text x="432" y="1669" fill="#000000" font-size="15" font-family="default" > seq 17:T636:24.842981067399997:Class II</text>
<polyline points="365,1687 365,1664 430,1664" fill="none" stroke="#000000" stroke-width="1" stroke-linecap="square"/>
<text x="432" y="1693" fill="#000000" font-size="15" font-family="default" > seq 167:C36M1:28.5:Class II</text>
<polyline points="378,1710 378,1688 430,1688" fill="none" stroke="#000000" stroke-width="1" stroke-linecap="square"/>
<text x="432" y="1717" fill="#000000" font-size="15" font-family="default" > seq 136:C36M0:39.8:Class II</text>
<polyline points="391,1733 391,1712 430,1712" fill="none" stroke="#000000" stroke-width="1" stroke-linecap="square"/>
<text x="432" y="1741" fill="#000000" font-size="15" font-family="default" > seq 79:C36M4:15.9:Class II</text>
<polyline points="404,1754 404,1736 430,1736" fill="none" stroke="#000000" stroke-width="1" stroke-linecap="square"/>
<text x="432" y="1765" fill="#000000" font-size="15" font-family="default" > seq 36:C36M3:30.5:Class II</text>
<polyline points="417,1772 417,1760 430,1760" fill="none" stroke="#000000" stroke-width="1" stroke-linecap="square"/>
<text x="432" y="1789" fill="#000000" font-size="15" font-family="default" > seq 169:C36M2:42.0:Class II</text>
<polyline points="417,1773 417,1784 430,1784" fill="none" stroke="#000000" stroke-width="1" stroke-linecap="square"/>
<polyline points="404,1755 404,1772 417,1772" fill="none" stroke="#000000" stroke-width="1" stroke-linecap="square"/>
<polyline points="391,1734 391,1754 404,1754" fill="none" stroke="#000000" stroke-width="1" stroke-linecap="square"/>
<polyline points="378,1711 378,1733 391,1733" fill="none" stroke="#000000" stroke-width="1" stroke-linecap="square"/>
<polyline points="365,1688 365,1710 378,1710" fill="none" stroke="#000000" stroke-width="1" stroke-linecap="square"/>
<polyline points="352,1664 352,1687 365,1687" fill="none" stroke="#000000" stroke-width="1" stroke-linecap="square"/>
<polyline points="222,1535 222,1663 352,1663" fill="none" stroke="#000000" stroke-width="1" stroke-linecap="square"/>
<polyline points="209,1677 209,1534 222,1534" fill="none" stroke="#000000" stroke-width="1" stroke-linecap="square"/>
<text x="432" y="1813" fill="#000000" font-size="15" font-family="default" > seq 19:T643:394.2481757274:Class III</text>
<polyline points="417,1820 417,1808 430,1808" fill="none" stroke="#000000" stroke-width="1" stroke-linecap="square"/>
<text x="432" y="1837" fill="#000000" font-size="15" font-family="default" > seq 42:WT:1.5:Class I</text>
<polyline points="417,1821 417,1832 430,1832" fill="none" stroke="#000000" stroke-width="1" stroke-linecap="square"/>
<polyline points="209,1678 209,1820 417,1820" fill="none" stroke="#000000" stroke-width="1" stroke-linecap="square"/>
<polyline points="196,1772 196,1677 209,1677" fill="none" stroke="#000000" stroke-width="1" stroke-linecap="square"/>
<text x="432" y="1861" fill="#000000" font-size="15" font-family="default" > seq 25:T630:218.57589064209998:Class III</text>
<polyline points="417,1868 417,1856 430,1856" fill="none" stroke="#000000" stroke-width="1" stroke-linecap="square"/>
<text x="432" y="1885" fill="#000000" font-size="15" font-family="default" > seq 29:T215:5.1698521198:Class I</text>
<polyline points="417,1869 417,1880 430,1880" fill="none" stroke="#000000" stroke-width="1" stroke-linecap="square"/>
<polyline points="196,1773 196,1868 417,1868" fill="none" stroke="#000000" stroke-width="1" stroke-linecap="square"/>
<polyline points="183,1844 183,1772 196,1772" fill="none" stroke="#000000" stroke-width="1" stroke-linecap="square"/>
<text x="432" y="1909" fill="#000000" font-size="15" font-family="default" > seq 33:FB006:1.4:Class I</text>
<polyline points="417,1916 417,1904 430,1904" fill="none" stroke="#000000" stroke-width="1" stroke-linecap="square"/>
<text x="432" y="1933" fill="#000000" font-size="15" font-family="default" > seq 106:T629:219.3405744968:Class III</text>
<polyline points="417,1917 417,1928 430,1928" fill="none" stroke="#000000" stroke-width="1" stroke-linecap="square"/>
<polyline points="183,1845 183,1916 417,1916" fill="none" stroke="#000000" stroke-width="1" stroke-linecap="square"/>
<polyline points="170,1909 170,1844 183,1844" fill="none" stroke="#000000" stroke-width="1" stroke-linecap="square"/>
<text x="432" y="1957" fill="#000000" font-size="15" font-family="default" > seq 64:T633:40.646764320900004:Class II</text>
<polyline points="352,1975 352,1952 430,1952" fill="none" stroke="#000000" stroke-width="1" stroke-linecap="square"/>
<text x="432" y="1981" fill="#000000" font-size="15" font-family="default" > seq 41:T631:218.5309909725:Class III</text>
<polyline points="365,1999 365,1976 430,1976" fill="none" stroke="#000000" stroke-width="1" stroke-linecap="square"/>
<text x="432" y="2005" fill="#000000" font-size="15" font-family="default" > seq 37:T627:217.1911108022:Class III</text>
<polyline points="378,2022 378,2000 430,2000" fill="none" stroke="#000000" stroke-width="1" stroke-linecap="square"/>
<text x="432" y="2029" fill="#000000" font-size="15" font-family="default" > seq 151:P21 ROD:571.8:Class III</text>
<polyline points="391,2045 391,2024 430,2024" fill="none" stroke="#000000" stroke-width="1" stroke-linecap="square"/>
<text x="432" y="2053" fill="#000000" font-size="15" font-family="default" > seq 59:P21 P3:534.45:Class III</text>
<polyline points="404,2066 404,2048 430,2048" fill="none" stroke="#000000" stroke-width="1" stroke-linecap="square"/>
<text x="432" y="2077" fill="#000000" font-size="15" font-family="default" > seq 76:MT-P3:1.38:Class I</text>
<polyline points="417,2084 417,2072 430,2072" fill="none" stroke="#000000" stroke-width="1" stroke-linecap="square"/>
<text x="432" y="2101" fill="#000000" font-size="15" font-family="default" > seq 175:P3:6.34:Class I</text>
<polyline points="417,2085 417,2096 430,2096" fill="none" stroke="#000000" stroke-width="1" stroke-linecap="square"/>
<polyline points="404,2067 404,2084 417,2084" fill="none" stroke="#000000" stroke-width="1" stroke-linecap="square"/>
<polyline points="391,2046 391,2066 404,2066" fill="none" stroke="#000000" stroke-width="1" stroke-linecap="square"/>
<polyline points="378,2023 378,2045 391,2045" fill="none" stroke="#000000" stroke-width="1" stroke-linecap="square"/>
<polyline points="365,2000 365,2022 378,2022" fill="none" stroke="#000000" stroke-width="1" stroke-linecap="square"/>
<polyline points="352,1976 352,1999 365,1999" fill="none" stroke="#000000" stroke-width="1" stroke-linecap="square"/>
<polyline points="170,1910 170,1975 352,1975" fill="none" stroke="#000000" stroke-width="1" stroke-linecap="square"/>
<polyline points="157,2020 157,1909 170,1909" fill="none" stroke="#000000" stroke-width="1" stroke-linecap="square"/>
<text x="432" y="2125" fill="#000000" font-size="15" font-family="default" > seq 38:T638:1.1330571695:Class I</text>
<polyline points="417,2132 417,2120 430,2120" fill="none" stroke="#000000" stroke-width="1" stroke-linecap="square"/>
<text x="432" y="2149" fill="#000000" font-size="15" font-family="default" > seq 130:T637:2.7107188601:Class I</text>
<polyline points="417,2133 417,2144 430,2144" fill="none" stroke="#000000" stroke-width="1" stroke-linecap="square"/>
<polyline points="157,2021 157,2132 417,2132" fill="none" stroke="#000000" stroke-width="1" stroke-linecap="square"/>
<polyline points="144,2103 144,2020 157,2020" fill="none" stroke="#000000" stroke-width="1" stroke-linecap="square"/>
<text x="432" y="2173" fill="#000000" font-size="15" font-family="default" > seq 174:C36M4A:6.84:Class I</text>
<polyline points="404,2186 404,2168 430,2168" fill="none" stroke="#000000" stroke-width="1" stroke-linecap="square"/>
<text x="432" y="2197" fill="#000000" font-size="15" font-family="default" > seq 44:T97:0.4495523582:Class I</text>
<polyline points="417,2204 417,2192 430,2192" fill="none" stroke="#000000" stroke-width="1" stroke-linecap="square"/>
<text x="432" y="2221" fill="#000000" font-size="15" font-family="default" > seq 144:T231:0.9009293086:Class I</text>
<polyline points="417,2205 417,2216 430,2216" fill="none" stroke="#000000" stroke-width="1" stroke-linecap="square"/>
<polyline points="404,2187 404,2204 417,2204" fill="none" stroke="#000000" stroke-width="1" stroke-linecap="square"/>
<polyline points="144,2104 144,2186 404,2186" fill="none" stroke="#000000" stroke-width="1" stroke-linecap="square"/>
<polyline points="131,2180 131,2103 144,2103" fill="none" stroke="#000000" stroke-width="1" stroke-linecap="square"/>
<polyline points="131,2181 131,2258 404,2258" fill="none" stroke="#000000" stroke-width="1" stroke-linecap="square"/>
<polyline points="118,2255 118,2180 131,2180" fill="none" stroke="#000000" stroke-width="1" stroke-linecap="square"/>
<polyline points="105,2328 105,2255 118,2255" fill="none" stroke="#000000" stroke-width="1" stroke-linecap="square"/>
<polyline points="92,2398 92,2328 105,2328" fill="none" stroke="#000000" stroke-width="1" stroke-linecap="square"/>
<text x="397" y="637" fill="#212121" font-size="11" font-family="MS Sans Serif" >97</text>
<text x="397" y="541" fill="#212121" font-size="11" font-family="MS Sans Serif" >80</text>
<text x="397" y="686" fill="#212121" font-size="11" font-family="MS Sans Serif" >58</text>
<text x="397" y="757" fill="#212121" font-size="11" font-family="MS Sans Serif" >57</text>
<text x="397" y="469" fill="#212121" font-size="11" font-family="MS Sans Serif" >51</text>
<text x="397" y="1358" fill="#212121" font-size="11" font-family="MS Sans Serif" >50</text>
<text x="397" y="2101" fill="#212121" font-size="11" font-family="MS Sans Serif" >48</text>
<text x="397" y="805" fill="#212121" font-size="11" font-family="MS Sans Serif" >47</text>
<text x="384" y="619" fill="#212121" font-size="11" font-family="MS Sans Serif" >46</text>
<text x="397" y="301" fill="#212121" font-size="11" font-family="MS Sans Serif" >46</text>
<text x="384" y="451" fill="#212121" font-size="11" font-family="MS Sans Serif" >42</text>
<text x="384" y="2083" fill="#212121" font-size="11" font-family="MS Sans Serif" >39</text>
<text x="371" y="2062" fill="#212121" font-size="11" font-family="MS Sans Serif" >51</text>
<text x="397" y="1621" fill="#212121" font-size="11" font-family="MS Sans Serif" >38</text>
<text x="384" y="283" fill="#212121" font-size="11" font-family="MS Sans Serif" >37</text>
<text x="397" y="374" fill="#212121" font-size="11" font-family="MS Sans Serif" >33</text>
<text x="384" y="1603" fill="#212121" font-size="11" font-family="MS Sans Serif" >32</text>
<text x="397" y="1789" fill="#212121" font-size="11" font-family="MS Sans Serif" >31</text>
<text x="397" y="853" fill="#212121" font-size="11" font-family="MS Sans Serif" >29</text>
<text x="397" y="2221" fill="#212121" font-size="11" font-family="MS Sans Serif" >29</text>
<text x="384" y="1376" fill="#212121" font-size="11" font-family="MS Sans Serif" >28</text>
<text x="397" y="38" fill="#212121" font-size="11" font-family="MS Sans Serif" >28</text>
<text x="384" y="56" fill="#212121" font-size="11" font-family="MS Sans Serif" >34</text>
<text x="397" y="1477" fill="#212121" font-size="11" font-family="MS Sans Serif" >27</text>
<text x="371" y="598" fill="#212121" font-size="11" font-family="MS Sans Serif" >26</text>
<text x="384" y="1771" fill="#212121" font-size="11" font-family="MS Sans Serif" >22</text>
<text x="371" y="1750" fill="#212121" font-size="11" font-family="MS Sans Serif" >33</text>
<text x="358" y="1727" fill="#212121" font-size="11" font-family="MS Sans Serif" >50</text>
<text x="384" y="710" fill="#212121" font-size="11" font-family="MS Sans Serif" >20</text>
<text x="371" y="424" fill="#212121" font-size="11" font-family="MS Sans Serif" >19</text>
<text x="384" y="523" fill="#212121" font-size="11" font-family="MS Sans Serif" >18</text>
<text x="371" y="746" fill="#212121" font-size="11" font-family="MS Sans Serif" >17</text>
<text x="397" y="1261" fill="#212121" font-size="11" font-family="MS Sans Serif" >16</text>
<text x="397" y="326" fill="#212121" font-size="11" font-family="MS Sans Serif" >16</text>
<text x="358" y="788" fill="#212121" font-size="11" font-family="MS Sans Serif" >15</text>
<text x="358" y="2039" fill="#212121" font-size="11" font-family="MS Sans Serif" >13</text>
<text x="384" y="1459" fill="#212121" font-size="11" font-family="MS Sans Serif" >12</text>
<text x="384" y="2203" fill="#212121" font-size="11" font-family="MS Sans Serif" >12</text>
<text x="397" y="1502" fill="#212121" font-size="11" font-family="MS Sans Serif" >11</text>
<text x="358" y="386" fill="#212121" font-size="11" font-family="MS Sans Serif" >11</text>
<text x="404" y="157" fill="#212121" font-size="11" font-family="MS Sans Serif" >9</text>
<text x="352" y="1704" fill="#212121" font-size="11" font-family="MS Sans Serif" >9</text>
<text x="404" y="205" fill="#212121" font-size="11" font-family="MS Sans Serif" >8</text>
<text x="404" y="949" fill="#212121" font-size="11" font-family="MS Sans Serif" >8</text>
<text x="404" y="1333" fill="#212121" font-size="11" font-family="MS Sans Serif" >8</text>
<text x="391" y="139" fill="#212121" font-size="11" font-family="MS Sans Serif" >7</text>
<text x="404" y="974" fill="#212121" font-size="11" font-family="MS Sans Serif" >7</text>
<text x="404" y="1118" fill="#212121" font-size="11" font-family="MS Sans Serif" >7</text>
<text x="404" y="1933" fill="#212121" font-size="11" font-family="MS Sans Serif" >6</text>
<text x="378" y="1582" fill="#212121" font-size="11" font-family="MS Sans Serif" >6</text>
<text x="404" y="1070" fill="#212121" font-size="11" font-family="MS Sans Serif" >5</text>
<text x="404" y="1189" fill="#212121" font-size="11" font-family="MS Sans Serif" >5</text>
<text x="378" y="1429" fill="#212121" font-size="11" font-family="MS Sans Serif" >5</text>
<text x="404" y="2149" fill="#212121" font-size="11" font-family="MS Sans Serif" >5</text>
<text x="378" y="86" fill="#212121" font-size="11" font-family="MS Sans Serif" >5</text>
<text x="365" y="134" fill="#212121" font-size="11" font-family="MS Sans Serif" >5</text>
<text x="352" y="176" fill="#212121" font-size="11" font-family="MS Sans Serif" >6</text>
<text x="339" y="218" fill="#212121" font-size="11" font-family="MS Sans Serif" >7</text>
<text x="319" y="290" fill="#212121" font-size="11" font-family="MS Sans Serif" >19</text>
<text x="306" y="395" fill="#212121" font-size="11" font-family="MS Sans Serif" >16</text>
<text x="404" y="878" fill="#212121" font-size="11" font-family="MS Sans Serif" >5</text>
<text x="391" y="1315" fill="#212121" font-size="11" font-family="MS Sans Serif" >5</text>
<text x="404" y="1885" fill="#212121" font-size="11" font-family="MS Sans Serif" >4</text>
<text x="300" y="485" fill="#212121" font-size="11" font-family="MS Sans Serif" >4</text>
<text x="287" y="567" fill="#212121" font-size="11" font-family="MS Sans Serif" >4</text>
<text x="352" y="2016" fill="#212121" font-size="11" font-family="MS Sans Serif" >4</text>
<text x="339" y="1992" fill="#212121" font-size="11" font-family="MS Sans Serif" >3</text>
<text x="404" y="1022" fill="#212121" font-size="11" font-family="MS Sans Serif" >3</text>
<text x="404" y="1837" fill="#212121" font-size="11" font-family="MS Sans Serif" >2</text>
<text x="391" y="2275" fill="#212121" font-size="11" font-family="MS Sans Serif" >2</text>
<text x="391" y="902" fill="#212121" font-size="11" font-family="MS Sans Serif" >1</text>
<text x="365" y="1553" fill="#212121" font-size="11" font-family="MS Sans Serif" >1</text>
<text x="391" y="1243" fill="#212121" font-size="11" font-family="MS Sans Serif" >1</text>
<text x="339" y="1680" fill="#212121" font-size="11" font-family="MS Sans Serif" >1</text>
<text x="391" y="1165" fill="#212121" font-size="11" font-family="MS Sans Serif" >1</text>
<text x="378" y="1129" fill="#212121" font-size="11" font-family="MS Sans Serif" >1</text>
<text x="365" y="1087" fill="#212121" font-size="11" font-family="MS Sans Serif" >1</text>
<text x="352" y="1042" fill="#212121" font-size="11" font-family="MS Sans Serif" >1</text>
<text x="332" y="983" fill="#212121" font-size="11" font-family="MS Sans Serif" >31</text>
<text x="319" y="897" fill="#212121" font-size="11" font-family="MS Sans Serif" >12</text>
<text x="267" y="720" fill="#212121" font-size="11" font-family="MS Sans Serif" >12</text>
<text x="254" y="970" fill="#212121" font-size="11" font-family="MS Sans Serif" >12</text>
<text x="241" y="1131" fill="#212121" font-size="11" font-family="MS Sans Serif" >12</text>
<text x="228" y="1268" fill="#212121" font-size="11" font-family="MS Sans Serif" >12</text>
<text x="215" y="1399" fill="#212121" font-size="11" font-family="MS Sans Serif" >12</text>
<text x="202" y="1528" fill="#212121" font-size="11" font-family="MS Sans Serif" >12</text>
<text x="189" y="1671" fill="#212121" font-size="11" font-family="MS Sans Serif" >12</text>
<text x="176" y="1766" fill="#212121" font-size="11" font-family="MS Sans Serif" >12</text>
<text x="163" y="1838" fill="#212121" font-size="11" font-family="MS Sans Serif" >12</text>
<text x="150" y="1903" fill="#212121" font-size="11" font-family="MS Sans Serif" >12</text>
<text x="137" y="2014" fill="#212121" font-size="11" font-family="MS Sans Serif" >12</text>
<text x="124" y="2097" fill="#212121" font-size="11" font-family="MS Sans Serif" >12</text>
<text x="111" y="2174" fill="#212121" font-size="11" font-family="MS Sans Serif" >12</text>
<text x="98" y="2249" fill="#212121" font-size="11" font-family="MS Sans Serif" >12</text>
<text x="85" y="2322" fill="#212121" font-size="11" font-family="MS Sans Serif" >12</text>
</svg>
