<svg class="main-svg" xmlns="http://www.w3.org/2000/svg" xmlns:xlink="http://www.w3.org/1999/xlink" width="700" height="500" style="" viewBox="0 0 700 500"><rect x="0" y="0" width="700" height="500" style="fill: rgb(255, 255, 255); fill-opacity: 1;"/><defs id="defs-f4583d"><g class="clips"><clipPath id="clipf4583dxyplot" class="plotclip"><rect width="462" height="320"/></clipPath><clipPath class="axesclip" id="clipf4583dx"><rect x="80" y="0" width="462" height="500"/></clipPath><clipPath class="axesclip" id="clipf4583dy"><rect x="0" y="100" width="700" height="320"/></clipPath><clipPath class="axesclip" id="clipf4583dxy"><rect x="80" y="100" width="462" height="320"/></clipPath></g><g class="gradients"/></defs><g class="bglayer"><rect class="bg" x="80" y="100" width="462" height="320" style="fill: rgb(229, 236, 246); fill-opacity: 1; stroke-width: 0;"/></g><g class="layer-below"><g class="imagelayer"/><g class="shapelayer"/></g><g class="cartesianlayer"><g class="subplot xy"><g class="layer-subplot"><g class="shapelayer"/><g class="imagelayer"/></g><g class="gridlayer"><g class="x"><path class="xgrid crisp" transform="translate(170.23000000000002,0)" d="M0,100v320" style="stroke: rgb(255, 255, 255); stroke-opacity: 1; stroke-width: 1px;"/><path class="xgrid crisp" transform="translate(260.47,0)" d="M0,100v320" style="stroke: rgb(255, 255, 255); stroke-opacity: 1; stroke-width: 1px;"/><path class="xgrid crisp" transform="translate(350.7,0)" d="M0,100v320" style="stroke: rgb(255, 255, 255); stroke-opacity: 1; stroke-width: 1px;"/><path class="xgrid crisp" transform="translate(440.94,0)" d="M0,100v320" style="stroke: rgb(255, 255, 255); stroke-opacity: 1; stroke-width: 1px;"/><path class="xgrid crisp" transform="translate(531.1700000000001,0)" d="M0,100v320" style="stroke: rgb(255, 255, 255); stroke-opacity: 1; stroke-width: 1px;"/></g><g class="y"><path class="ygrid crisp" transform="translate(0,397.67)" d="M80,0h462" style="stroke: rgb(255, 255, 255); stroke-opacity: 1; stroke-width: 1px;"/><path class="ygrid crisp" transform="translate(0,359.86)" d="M80,0h462" style="stroke: rgb(255, 255, 255); stroke-opacity: 1; stroke-width: 1px;"/><path class="ygrid crisp" transform="translate(0,322.05)" d="M80,0h462" style="stroke: rgb(255, 255, 255); stroke-opacity: 1; stroke-width: 1px;"/><path class="ygrid crisp" transform="translate(0,284.24)" d="M80,0h462" style="stroke: rgb(255, 255, 255); stroke-opacity: 1; stroke-width: 1px;"/><path class="ygrid crisp" transform="translate(0,246.43)" d="M80,0h462" style="stroke: rgb(255, 255, 255); stroke-opacity: 1; stroke-width: 1px;"/><path class="ygrid crisp" transform="translate(0,208.62)" d="M80,0h462" style="stroke: rgb(255, 255, 255); stroke-opacity: 1; stroke-width: 1px;"/><path class="ygrid crisp" transform="translate(0,170.81)" d="M80,0h462" style="stroke: rgb(255, 255, 255); stroke-opacity: 1; stroke-width: 1px;"/><path class="ygrid crisp" transform="translate(0,133)" d="M80,0h462" style="stroke: rgb(255, 255, 255); stroke-opacity: 1; stroke-width: 1px;"/></g></g><g class="zerolinelayer"><path class="xzl zl crisp" transform="translate(80,0)" d="M0,100v320" style="stroke: rgb(255, 255, 255); stroke-opacity: 1; stroke-width: 2px;"/></g><path class="xlines-below"/><path class="ylines-below"/><g class="overlines-below"/><g class="xaxislayer-below"/><g class="yaxislayer-below"/><g class="overaxes-below"/><g class="plot" transform="translate(80, 100)" clip-path="url('#clipf4583dxyplot')"><g class="scatterlayer mlayer"><g class="trace scatter traceda56f7" style="stroke-miterlimit: 2; opacity: 1;"><g class="fills"/><g class="errorbars"/><g class="lines"><path class="js-line" d="M0,89.05Q0.62,89.2 0.9,89.4C1.23,89.64 1.53,90.04 1.81,90.46C2.14,90.96 2.43,91.58 2.71,92.22C3.03,92.95 3.33,93.77 3.62,94.63C3.94,95.58 4.23,96.61 4.52,97.67C4.83,98.82 5.13,100.03 5.42,101.27C5.73,102.59 6.03,103.96 6.33,105.36C6.64,106.82 6.93,108.32 7.23,109.84C7.54,111.4 7.84,113.01 8.14,114.61C8.44,116.24 8.74,117.89 9.04,119.53C9.34,121.18 9.65,122.84 9.95,124.47C10.25,126.08 10.54,127.7 10.85,129.27C11.14,130.78 11.43,132.3 11.75,133.7C12.04,134.98 12.34,136.21 12.66,137.35C12.95,138.37 13.24,139.32 13.56,140.21C13.85,141 14.14,141.76 14.47,142.42C14.75,143 15.04,143.54 15.37,143.98C15.65,144.36 15.94,144.72 16.27,144.96C16.55,145.17 16.87,145.33 17.18,145.41C17.47,145.49 17.78,145.48 18.08,145.45C18.38,145.42 18.69,145.32 18.99,145.22C19.29,145.12 19.59,144.98 19.89,144.87C20.19,144.76 20.49,144.62 20.79,144.54C21.09,144.46 21.4,144.39 21.7,144.39C22,144.39 22.31,144.43 22.6,144.54C22.92,144.66 23.23,144.87 23.51,145.12C23.84,145.41 24.13,145.81 24.41,146.25C24.74,146.76 25.04,147.38 25.32,148.03C25.65,148.79 25.94,149.64 26.22,150.54C26.54,151.56 26.83,152.68 27.12,153.85C27.44,155.15 27.74,156.53 28.03,157.98C28.35,159.56 28.64,161.25 28.93,162.98C29.24,164.85 29.55,166.81 29.84,168.83C30.15,170.99 30.45,173.24 30.74,175.54C31.05,177.97 31.35,180.49 31.64,183.06C31.95,185.75 32.25,188.52 32.55,191.34C32.86,194.27 33.15,197.28 33.45,200.33C33.76,203.48 34.06,206.69 34.36,209.93C34.67,213.25 34.96,216.64 35.26,220.03C35.56,223.47 35.86,226.96 36.16,230.43C36.46,233.92 36.77,237.43 37.07,240.93C37.37,244.44 37.67,247.96 37.97,251.46C38.27,254.95 38.57,258.46 38.88,261.89C39.18,265.24 39.47,268.62 39.78,271.83C40.07,274.84 40.37,277.78 40.68,280.58C40.97,283.16 41.26,285.74 41.59,288.02C41.87,289.96 42.15,291.79 42.49,293.4C42.77,294.73 43.03,296.05 43.4,297.01C43.67,297.7 43.97,298.65 44.3,298.69C44.58,298.72 44.95,298.1 45.21,297.62C45.59,296.93 45.84,295.85 46.11,294.8C46.45,293.5 46.73,291.94 47.01,290.36C47.33,288.57 47.63,286.58 47.92,284.59C48.23,282.47 48.52,280.23 48.82,277.99C49.13,275.66 49.43,273.24 49.73,270.85C50.03,268.44 50.33,265.99 50.63,263.58C50.93,261.19 51.23,258.81 51.53,256.45C51.83,254.13 52.14,251.84 52.44,249.54C52.74,247.26 53.04,244.99 53.34,242.72C53.64,240.45 53.94,238.15 54.25,235.91C54.55,233.74 54.84,231.59 55.15,229.5C55.44,227.49 55.74,225.51 56.05,223.59C56.35,221.76 56.65,219.96 56.96,218.22C57.25,216.56 57.55,214.94 57.86,213.38C58.15,211.9 58.46,210.46 58.77,209.07C59.06,207.76 59.36,206.49 59.67,205.28C59.96,204.15 60.27,203.05 60.58,202.01C60.87,201.05 61.16,200.13 61.48,199.27C61.77,198.49 62.06,197.73 62.38,197.05C62.67,196.44 62.97,195.85 63.29,195.35C63.57,194.91 63.87,194.49 64.19,194.17C64.47,193.89 64.78,193.63 65.1,193.49C65.39,193.37 65.7,193.3 66,193.33C66.3,193.36 66.62,193.5 66.9,193.68C67.23,193.89 67.53,194.22 67.81,194.58C68.14,194.99 68.43,195.5 68.71,196.04C69.03,196.65 69.33,197.35 69.62,198.08C69.94,198.9 70.23,199.79 70.52,200.72C70.83,201.74 71.13,202.82 71.42,203.94C71.73,205.15 72.04,206.43 72.33,207.74C72.64,209.14 72.94,210.61 73.23,212.1C73.54,213.67 73.84,215.3 74.14,216.96C74.45,218.69 74.74,220.48 75.04,222.29C75.35,224.16 75.65,226.08 75.95,228.02C76.26,230.01 76.55,232.04 76.85,234.07C77.15,236.13 77.45,238.22 77.75,240.29C78.05,242.35 78.36,244.41 78.66,246.47C78.96,248.52 79.26,250.58 79.56,252.62C79.86,254.65 80.17,256.69 80.47,258.7C80.77,260.69 81.07,262.69 81.37,264.64C81.67,266.55 81.96,268.45 82.27,270.29C82.57,272.06 82.87,273.8 83.18,275.47C83.47,277.03 83.76,278.58 84.08,279.99C84.37,281.25 84.65,282.52 84.99,283.56C85.26,284.39 85.49,285.33 85.89,285.76C86.15,286.04 86.51,286.28 86.79,286.23C87.12,286.17 87.43,285.63 87.7,285.2C88.05,284.64 88.32,283.88 88.6,283.1C88.93,282.17 89.23,281.09 89.51,279.97C89.83,278.69 90.12,277.27 90.41,275.83C90.72,274.27 91.03,272.64 91.32,270.96C91.63,269.15 91.93,267.25 92.22,265.32C92.53,263.3 92.82,261.21 93.12,259.1C93.43,256.93 93.73,254.72 94.03,252.48C94.34,250.18 94.63,247.85 94.93,245.47C95.24,243.01 95.54,240.49 95.84,237.97C96.14,235.4 96.44,232.77 96.74,230.17C97.04,227.57 97.34,224.94 97.64,222.37C97.94,219.85 98.24,217.33 98.55,214.87C98.85,212.48 99.14,210.12 99.45,207.81C99.75,205.59 100.05,203.4 100.36,201.28C100.65,199.26 100.95,197.27 101.26,195.36C101.55,193.55 101.85,191.79 102.16,190.09C102.45,188.5 102.76,186.96 103.07,185.49C103.36,184.14 103.65,182.82 103.97,181.6C104.26,180.49 104.56,179.43 104.88,178.46C105.16,177.61 105.45,176.78 105.78,176.09C106.06,175.51 106.33,174.94 106.68,174.56C106.95,174.26 107.27,173.96 107.59,173.9C107.88,173.85 108.22,173.97 108.49,174.15C108.83,174.38 109.12,174.85 109.4,175.32C109.74,175.9 110.02,176.64 110.3,177.41C110.63,178.31 110.92,179.33 111.21,180.4C111.53,181.6 111.82,182.91 112.11,184.27C112.43,185.76 112.72,187.34 113.01,188.97C113.32,190.72 113.63,192.57 113.92,194.45C114.23,196.45 114.53,198.53 114.82,200.64C115.13,202.86 115.43,205.15 115.73,207.46C116.04,209.86 116.33,212.31 116.63,214.78C116.93,217.32 117.23,219.9 117.53,222.49C117.83,225.12 118.14,227.78 118.44,230.43C118.74,233.09 119.04,235.78 119.34,238.44C119.64,241.08 119.94,243.73 120.25,246.32C120.55,248.85 120.84,251.39 121.15,253.82C121.44,256.11 121.73,258.41 122.05,260.49C122.34,262.34 122.62,264.15 122.96,265.7C123.24,266.98 123.52,268.16 123.86,269.17C124.14,269.99 124.43,270.73 124.77,271.35C125.05,271.86 125.33,272.32 125.67,272.65C125.95,272.92 126.26,273.16 126.58,273.26C126.87,273.35 127.19,273.37 127.48,273.3C127.79,273.23 128.1,273.04 128.38,272.82C128.71,272.57 129.01,272.21 129.29,271.82C129.62,271.36 129.91,270.8 130.19,270.21C130.52,269.53 130.81,268.75 131.1,267.94C131.42,267.05 131.71,266.05 132,265.07C132.31,264.05 132.6,262.98 132.9,261.92C133.2,260.85 133.51,259.76 133.81,258.69C134.11,257.63 134.41,256.56 134.71,255.51C135.01,254.48 135.31,253.46 135.62,252.46C135.92,251.49 136.21,250.54 136.52,249.61C136.81,248.71 137.11,247.84 137.42,246.98C137.72,246.15 138.02,245.35 138.33,244.56C138.63,243.79 138.93,243.04 139.23,242.29C139.53,241.55 139.84,240.83 140.14,240.09C140.44,239.35 140.74,238.61 141.04,237.85C141.35,237.07 141.65,236.28 141.95,235.47C142.26,234.63 142.55,233.77 142.85,232.9C143.16,232 143.45,231.07 143.75,230.13C144.06,229.16 144.36,228.17 144.66,227.17C144.97,226.14 145.26,225.1 145.56,224.05C145.86,222.99 146.17,221.91 146.47,220.83C146.77,219.74 147.07,218.64 147.37,217.55C147.67,216.46 147.97,215.37 148.27,214.3C148.57,213.24 148.87,212.18 149.18,211.15C149.48,210.15 149.77,209.15 150.08,208.19C150.38,207.27 150.68,206.37 150.99,205.51C151.28,204.71 151.58,203.92 151.89,203.19C152.18,202.52 152.47,201.88 152.79,201.31C153.08,200.8 153.38,200.33 153.7,199.93C153.98,199.58 154.28,199.28 154.6,199.04C154.89,198.82 155.2,198.62 155.51,198.51C155.8,198.41 156.12,198.34 156.41,198.4C156.72,198.46 157.04,198.67 157.32,198.91C157.65,199.19 157.94,199.62 158.22,200.06C158.55,200.58 158.84,201.21 159.12,201.87C159.44,202.62 159.74,203.46 160.03,204.34C160.35,205.31 160.64,206.37 160.93,207.46C161.25,208.65 161.55,209.91 161.84,211.2C162.15,212.58 162.45,214.03 162.74,215.51C163.05,217.07 163.34,218.7 163.64,220.35C163.95,222.06 164.25,223.84 164.55,225.6C164.85,227.38 165.15,229.16 165.45,230.98C165.76,232.85 166.06,234.73 166.36,236.66C166.67,238.65 166.96,240.68 167.26,242.74C167.56,244.86 167.86,247.02 168.16,249.2C168.47,251.43 168.77,253.7 169.07,255.98C169.37,258.29 169.67,260.63 169.97,262.96C170.27,265.3 170.58,267.67 170.88,270.01C171.18,272.34 171.48,274.68 171.78,276.97C172.08,279.19 172.37,281.39 172.68,283.55C172.98,285.66 173.28,287.74 173.59,289.78C173.89,291.74 174.18,293.69 174.49,295.54C174.78,297.28 175.07,299.07 175.4,300.58C175.68,301.84 175.81,303.71 176.3,304C176.55,304.15 176.96,304.03 177.21,303.77C177.76,303.19 177.83,300.95 178.11,299.34C178.44,297.42 178.72,295.2 179.01,292.98C179.33,290.56 179.63,288 179.92,285.36C180.23,282.52 180.53,279.53 180.82,276.49C181.13,273.28 181.43,269.94 181.73,266.58C182.04,263.12 182.33,259.57 182.63,256.03C182.93,252.45 183.23,248.83 183.53,245.22C183.83,241.61 184.14,237.98 184.44,234.37C184.74,230.78 185.04,227.2 185.34,223.64C185.64,220.11 185.95,216.6 186.25,213.11C186.55,209.67 186.85,206.25 187.15,202.86C187.45,199.53 187.75,196.22 188.05,192.95C188.35,189.75 188.65,186.58 188.96,183.45C189.26,180.4 189.55,177.38 189.86,174.42C190.16,171.54 190.46,168.7 190.77,165.91C191.07,163.22 191.36,160.57 191.67,157.98C191.97,155.49 192.27,153.05 192.58,150.67C192.87,148.4 193.17,146.18 193.48,144.03C193.77,141.99 194.07,140 194.38,138.09C194.67,136.3 194.98,134.56 195.29,132.9C195.58,131.37 195.87,129.88 196.19,128.49C196.48,127.23 196.78,126.01 197.1,124.89C197.39,123.9 197.67,122.95 198,122.13C198.28,121.44 198.56,120.76 198.9,120.26C199.17,119.86 199.47,119.45 199.81,119.3C200.09,119.18 200.43,119.17 200.71,119.29C201.05,119.43 201.35,119.84 201.62,120.24C201.97,120.75 202.24,121.46 202.52,122.19C202.85,123.06 203.14,124.08 203.42,125.14C203.75,126.36 204.04,127.7 204.33,129.1C204.65,130.66 204.94,132.35 205.23,134.09C205.55,136 205.85,138.01 206.14,140.09C206.45,142.33 206.75,144.69 207.04,147.1C207.35,149.67 207.66,152.34 207.95,155.07C208.26,157.96 208.56,160.95 208.85,163.99C209.16,167.18 209.45,170.46 209.75,173.79C210.06,177.26 210.36,180.82 210.66,184.42C210.97,188.14 211.26,191.94 211.56,195.78C211.87,199.72 212.17,203.73 212.47,207.76C212.77,211.85 213.07,216.01 213.37,220.14C213.67,224.28 213.96,228.5 214.27,232.59C214.57,236.57 214.86,240.64 215.18,244.36C215.47,247.73 215.73,251.16 216.08,253.97C216.35,256.17 216.45,258.77 216.99,259.85C217.24,260.35 217.64,260.85 217.89,260.78C218.35,260.65 218.52,258.13 218.79,256.48C219.15,254.3 219.41,251.52 219.7,248.82C220.02,245.81 220.31,242.53 220.6,239.27C220.91,235.86 221.21,232.32 221.51,228.79C221.82,225.18 222.11,221.49 222.41,217.82C222.71,214.11 223.02,210.37 223.32,206.64C223.62,202.91 223.92,199.16 224.22,195.43C224.52,191.72 224.82,188.02 225.12,184.34C225.42,180.71 225.73,177.08 226.03,173.5C226.33,169.98 226.62,166.49 226.93,163.05C227.23,159.69 227.53,156.36 227.84,153.1C228.14,149.93 228.43,146.81 228.74,143.75C229.03,140.81 229.33,137.91 229.64,135.1C229.93,132.42 230.24,129.78 230.55,127.24C230.84,124.85 231.14,122.5 231.45,120.27C231.74,118.19 232.04,116.17 232.36,114.27C232.65,112.54 232.94,110.85 233.26,109.31C233.54,107.95 233.83,106.63 234.16,105.48C234.44,104.51 234.72,103.56 235.07,102.84C235.34,102.28 235.61,101.68 235.97,101.45C236.24,101.28 236.61,101.22 236.88,101.34C237.23,101.49 237.51,102.04 237.78,102.53C238.14,103.19 238.4,104.09 238.68,105.01C239.02,106.13 239.31,107.43 239.59,108.78C239.92,110.33 240.2,112.03 240.49,113.8C240.81,115.76 241.11,117.86 241.4,120.03C241.72,122.38 242.01,124.86 242.3,127.4C242.61,130.12 242.92,132.96 243.21,135.85C243.52,138.91 243.82,142.07 244.11,145.28C244.42,148.63 244.71,152.08 245.01,155.57C245.32,159.17 245.62,162.86 245.92,166.56C246.23,170.34 246.52,174.2 246.82,178.04C247.12,181.92 247.43,185.85 247.73,189.73C248.03,193.57 248.32,197.45 248.63,201.21C248.92,204.84 249.21,208.51 249.53,211.91C249.82,215.01 250.07,218.33 250.44,220.79C250.71,222.56 250.77,224.87 251.34,225.32C251.59,225.52 252,225.51 252.25,225.3C252.8,224.84 252.88,222.61 253.15,220.95C253.5,218.77 253.77,216.04 254.05,213.31C254.38,210.18 254.67,206.71 254.96,203.22C255.27,199.45 255.56,195.47 255.86,191.47C256.17,187.3 256.47,182.98 256.77,178.69C257.07,174.34 257.37,169.92 257.67,165.53C257.97,161.14 258.28,156.73 258.58,152.37C258.88,148.06 259.18,143.76 259.48,139.53C259.78,135.39 260.07,131.28 260.38,127.25C260.68,123.35 260.98,119.5 261.29,115.75C261.59,112.14 261.88,108.59 262.19,105.15C262.48,101.88 262.79,98.67 263.1,95.58C263.39,92.67 263.69,89.84 264,87.13C264.29,84.61 264.58,82.16 264.9,79.85C265.19,77.74 265.49,75.69 265.81,73.79C266.1,72.09 266.38,70.46 266.71,68.98C266.99,67.7 267.28,66.46 267.62,65.41C267.9,64.55 268.16,63.71 268.52,63.1C268.79,62.64 269.08,62.14 269.42,62.01C269.7,61.9 270.06,61.98 270.33,62.15C270.69,62.38 270.96,62.96 271.23,63.5C271.58,64.2 271.86,65.12 272.14,66.06C272.47,67.18 272.76,68.46 273.04,69.79C273.36,71.3 273.66,72.95 273.95,74.65C274.27,76.53 274.56,78.53 274.85,80.58C275.16,82.8 275.46,85.13 275.75,87.5C276.06,90.01 276.36,92.62 276.66,95.27C276.97,98.03 277.26,100.88 277.56,103.74C277.87,106.68 278.17,109.69 278.47,112.69C278.77,115.71 279.06,118.81 279.37,121.78C279.66,124.64 279.96,127.5 280.27,130.2C280.56,132.71 280.86,135.17 281.18,137.46C281.47,139.53 281.74,141.59 282.08,143.36C282.36,144.82 282.61,146.31 282.99,147.34C283.25,148.04 283.53,148.94 283.89,149.03C284.16,149.1 284.53,148.78 284.79,148.46C285.19,147.96 285.42,146.94 285.7,146.04C286.04,144.94 286.31,143.62 286.6,142.33C286.92,140.93 287.21,139.41 287.51,137.92C287.82,136.4 288.11,134.82 288.41,133.3C288.71,131.81 289.01,130.3 289.32,128.87C289.61,127.52 289.9,126.19 290.22,124.96C290.51,123.84 290.79,122.75 291.12,121.78C291.4,120.94 291.69,120.12 292.03,119.48C292.3,118.96 292.58,118.42 292.93,118.17C293.2,117.97 293.55,117.85 293.84,117.91C294.16,117.98 294.47,118.35 294.74,118.7C295.09,119.16 295.36,119.84 295.64,120.53C295.97,121.35 296.26,122.33 296.55,123.33C296.87,124.45 297.16,125.69 297.45,126.95C297.77,128.33 298.07,129.79 298.36,131.28C298.67,132.86 298.97,134.5 299.26,136.16C299.57,137.89 299.86,139.67 300.16,141.46C300.47,143.29 300.77,145.14 301.07,147.01C301.37,148.9 301.67,150.82 301.97,152.74C302.27,154.68 302.58,156.63 302.88,158.58C303.18,160.54 303.48,162.5 303.78,164.47C304.08,166.44 304.38,168.42 304.68,170.38C304.98,172.33 305.29,174.28 305.59,176.22C305.89,178.14 306.19,180.05 306.49,181.95C306.79,183.82 307.1,185.67 307.4,187.51C307.7,189.31 307.99,191.1 308.3,192.86C308.6,194.58 308.9,196.28 309.21,197.94C309.51,199.54 309.8,201.12 310.11,202.63C310.4,204.04 310.69,205.42 311.01,206.7C311.3,207.86 311.6,208.98 311.92,209.99C312.2,210.87 312.49,211.71 312.82,212.44C313.1,213.06 313.39,213.65 313.73,214.09C314.01,214.45 314.3,214.79 314.63,214.97C314.91,215.12 315.23,215.19 315.53,215.17C315.84,215.15 316.15,214.98 316.44,214.81C316.76,214.62 317.05,214.33 317.34,214.05C317.65,213.75 317.95,213.4 318.25,213.07C318.55,212.74 318.84,212.37 319.15,212.05C319.44,211.74 319.74,211.42 320.05,211.16C320.34,210.92 320.65,210.69 320.96,210.54C321.25,210.4 321.56,210.3 321.86,210.28C322.16,210.26 322.48,210.32 322.77,210.43C323.08,210.55 323.38,210.76 323.67,210.98C323.99,211.22 324.29,211.53 324.58,211.84C324.89,212.17 325.19,212.53 325.48,212.91C325.79,213.31 326.08,213.75 326.38,214.19C326.69,214.65 326.99,215.16 327.29,215.63C327.59,216.09 327.89,216.54 328.19,216.99C328.49,217.43 328.79,217.87 329.1,218.29C329.4,218.7 329.7,219.1 330,219.5C330.3,219.9 330.61,220.27 330.9,220.69C331.21,221.13 331.52,221.6 331.81,222.09C332.12,222.61 332.42,223.15 332.71,223.71C333.02,224.3 333.32,224.92 333.62,225.55C333.93,226.2 334.22,226.86 334.52,227.54C334.83,228.24 335.13,228.95 335.42,229.69C335.73,230.47 336.04,231.27 336.33,232.1C336.64,232.97 336.93,233.88 337.23,234.81C337.54,235.78 337.84,236.78 338.14,237.79C338.45,238.83 338.74,239.9 339.04,240.96C339.34,242.03 339.65,243.12 339.95,244.19C340.25,245.25 340.54,246.34 340.85,247.37C341.14,248.35 341.43,249.35 341.75,250.24C342.04,251.03 342.32,251.8 342.66,252.43C342.94,252.95 343.22,253.46 343.56,253.78C343.84,254.04 344.16,254.2 344.47,254.31C344.76,254.42 345.07,254.46 345.37,254.47C345.67,254.48 345.97,254.42 346.27,254.4C346.57,254.38 346.88,254.33 347.18,254.33C347.48,254.33 347.79,254.34 348.08,254.42C348.39,254.5 348.7,254.64 348.99,254.82C349.3,255.01 349.6,255.28 349.89,255.53C350.2,255.79 350.49,256.09 350.79,256.38C351.09,256.68 351.4,256.99 351.7,257.29C352,257.59 352.29,257.93 352.6,258.19C352.89,258.44 353.19,258.74 353.51,258.84C353.8,258.93 354.14,258.96 354.41,258.81C354.77,258.6 355.05,257.98 355.32,257.41C355.68,256.67 355.94,255.68 356.22,254.67C356.55,253.46 356.84,252.06 357.12,250.61C357.45,248.94 357.74,247.09 358.03,245.19C358.35,243.08 358.64,240.84 358.93,238.5C359.25,235.91 359.55,233.15 359.84,230.32C360.15,227.26 360.45,224.02 360.74,220.75C361.05,217.31 361.34,213.73 361.64,210.14C361.95,206.44 362.25,202.64 362.55,198.85C362.85,194.99 363.15,191.1 363.45,187.19C363.75,183.24 364.06,179.28 364.36,175.26C364.66,171.16 364.96,167 365.26,162.83C365.56,158.62 365.86,154.34 366.16,150.12C366.46,145.93 366.77,141.74 367.07,137.6C367.37,133.53 367.66,129.48 367.97,125.49C368.27,121.6 368.57,117.73 368.88,113.95C369.18,110.28 369.47,106.66 369.78,103.13C370.07,99.74 370.37,96.4 370.68,93.16C370.97,90.07 371.28,87.04 371.59,84.12C371.88,81.37 372.18,78.69 372.49,76.12C372.78,73.74 373.08,71.42 373.4,69.23C373.69,67.23 373.98,65.29 374.3,63.5C374.59,61.9 374.88,60.37 375.21,58.99C375.49,57.81 375.77,56.68 376.11,55.74C376.38,54.98 376.64,54.21 377.01,53.75C377.28,53.42 377.61,53.07 377.92,53.06C378.22,53.05 378.55,53.36 378.82,53.66C379.19,54.08 379.45,54.81 379.73,55.53C380.07,56.43 380.35,57.53 380.63,58.66C380.96,59.99 381.24,61.47 381.53,63.01C381.85,64.74 382.15,66.61 382.44,68.53C382.76,70.63 383.05,72.86 383.34,75.14C383.65,77.59 383.96,80.16 384.25,82.77C384.56,85.53 384.86,88.38 385.15,91.28C385.46,94.3 385.75,97.4 386.05,100.53C386.36,103.76 386.66,107.05 386.96,110.36C387.27,113.75 387.56,117.18 387.86,120.63C388.16,124.13 388.47,127.68 388.77,131.22C389.07,134.78 389.37,138.39 389.67,141.94C389.97,145.45 390.27,149.04 390.58,152.41C390.87,155.56 391.15,158.78 391.48,161.56C391.76,163.89 392.02,166.17 392.38,167.98C392.65,169.33 392.84,170.77 393.29,171.47C393.54,171.87 393.91,172.25 394.19,172.21C394.52,172.17 394.82,171.42 395.1,170.91C395.44,170.29 395.71,169.47 396,168.71C396.31,167.9 396.6,167.02 396.9,166.17C397.2,165.33 397.5,164.46 397.81,163.64C398.1,162.86 398.39,162.08 398.71,161.37C399,160.71 399.3,160.07 399.62,159.51C399.9,159.02 400.19,158.53 400.52,158.17C400.8,157.86 401.1,157.57 401.42,157.43C401.71,157.31 402.04,157.26 402.33,157.32C402.64,157.39 402.95,157.62 403.23,157.87C403.56,158.17 403.86,158.62 404.14,159.08C404.47,159.62 404.75,160.26 405.04,160.92C405.36,161.67 405.66,162.51 405.95,163.37C406.27,164.31 406.56,165.32 406.85,166.36C407.16,167.48 407.46,168.65 407.75,169.85C408.06,171.11 408.36,172.42 408.66,173.74C408.97,175.11 409.26,176.52 409.56,177.92C409.86,179.34 410.17,180.79 410.47,182.22C410.77,183.64 411.06,185.09 411.37,186.46C411.66,187.77 411.97,189 412.27,190.27C412.57,191.54 412.88,192.8 413.18,194.08C413.48,195.38 413.78,196.69 414.08,198C414.38,199.32 414.69,200.65 414.99,201.99C415.29,203.35 415.59,204.72 415.89,206.11C416.19,207.53 416.49,208.99 416.79,210.44C417.09,211.91 417.39,213.46 417.7,214.89C417.99,216.23 418.3,217.48 418.6,218.77C418.9,220.05 419.21,221.33 419.51,222.58C419.81,223.81 420.1,225.03 420.41,226.22C420.71,227.38 421.01,228.53 421.32,229.66C421.62,230.76 421.91,231.85 422.22,232.91C422.52,233.94 422.81,234.96 423.12,235.93C423.41,236.85 423.71,237.74 424.03,238.58C424.32,239.35 424.61,240.09 424.93,240.76C425.22,241.36 425.52,241.92 425.84,242.42C426.13,242.86 426.42,243.27 426.74,243.62C427.03,243.93 427.33,244.21 427.64,244.43C427.93,244.64 428.24,244.81 428.55,244.94C428.84,245.06 429.15,245.14 429.45,245.21C429.75,245.27 430.06,245.3 430.36,245.33C430.66,245.36 430.96,245.38 431.26,245.4C431.56,245.42 431.86,245.44 432.16,245.45C432.46,245.46 432.77,245.45 433.07,245.44C433.37,245.43 433.67,245.38 433.97,245.37C434.27,245.36 434.58,245.33 434.88,245.37C435.18,245.41 435.49,245.48 435.78,245.59C436.09,245.7 436.39,245.87 436.68,246.05C436.99,246.24 437.29,246.48 437.59,246.72C437.9,246.97 438.19,247.26 438.49,247.55C438.8,247.85 439.1,248.17 439.4,248.5C439.71,248.84 440,249.19 440.3,249.55C440.61,249.92 440.91,250.3 441.21,250.7C441.52,251.11 441.81,251.54 442.11,251.97C442.41,252.4 442.71,252.85 443.01,253.28C443.31,253.7 443.62,254.1 443.92,254.51C444.22,254.92 444.52,255.34 444.82,255.75C445.12,256.15 445.42,256.55 445.73,256.93C446.03,257.29 446.32,257.65 446.63,257.97C446.92,258.27 447.21,258.56 447.53,258.78C447.82,258.98 448.13,259.16 448.44,259.26C448.73,259.36 449.04,259.4 449.34,259.4C449.64,259.4 449.95,259.34 450.25,259.26C450.56,259.18 450.85,259.04 451.15,258.9C451.46,258.75 451.75,258.57 452.05,258.39C452.36,258.2 452.66,258 452.96,257.79C453.26,257.58 453.56,257.35 453.86,257.13C454.16,256.91 454.47,256.69 454.77,256.48C455.07,256.27 455.37,256.06 455.67,255.88C455.97,255.7 456.27,255.52 456.58,255.38C456.88,255.24 457.18,255.12 457.48,255.03C457.78,254.95 458.08,254.88 458.38,254.86C458.68,254.84 458.99,254.84 459.29,254.88C459.59,254.92 459.89,255 460.19,255.09C460.5,255.19 460.8,255.32 461.1,255.45Q461.4,255.58 462,255.87" style="vector-effect: non-scaling-stroke; fill: none; stroke: rgb(0, 100, 80); stroke-opacity: 1; stroke-width: 2px; opacity: 1;"/></g><g class="points"/><g class="text"/></g><g class="trace scatter trace8a0aaa" style="stroke-miterlimit: 2; opacity: 1;"><g class="fills"/><g class="errorbars"/><g class="lines"><path class="js-line" d="M0,147.64Q0.63,147.69 0.9,147.86C1.24,148.08 1.53,148.52 1.81,148.97C2.15,149.53 2.43,150.25 2.71,151C3.04,151.88 3.33,152.89 3.62,153.94C3.94,155.12 4.23,156.43 4.52,157.76C4.83,159.22 5.13,160.77 5.42,162.35C5.73,164.03 6.03,165.78 6.33,167.55C6.64,169.38 6.93,171.27 7.23,173.14C7.53,175.02 7.83,176.93 8.14,178.78C8.44,180.56 8.72,182.37 9.04,184.04C9.33,185.57 9.62,187.08 9.95,188.41C10.23,189.54 10.5,190.63 10.85,191.51C11.12,192.2 11.38,192.92 11.75,193.29C12.02,193.56 12.37,193.79 12.66,193.75C12.98,193.71 13.29,193.28 13.56,192.92C13.91,192.46 14.19,191.78 14.47,191.13C14.79,190.39 15.08,189.55 15.37,188.7C15.68,187.79 15.97,186.81 16.27,185.83C16.58,184.81 16.88,183.75 17.18,182.7C17.48,181.63 17.78,180.53 18.08,179.46C18.38,178.4 18.68,177.34 18.99,176.31C19.29,175.31 19.58,174.31 19.89,173.36C20.18,172.45 20.48,171.57 20.79,170.72C21.08,169.93 21.38,169.15 21.7,168.43C21.99,167.77 22.28,167.12 22.6,166.56C22.88,166.07 23.17,165.58 23.51,165.24C23.79,164.96 24.09,164.67 24.41,164.61C24.7,164.55 25.04,164.63 25.32,164.8C25.66,165.01 25.95,165.45 26.22,165.89C26.56,166.44 26.84,167.17 27.12,167.91C27.45,168.79 27.74,169.8 28.03,170.83C28.35,171.97 28.61,173.32 28.93,174.47C29.22,175.52 29.48,176.66 29.84,177.47C30.11,178.07 30.46,178.4 30.74,178.94C31.06,179.56 31.36,180.24 31.64,181.01C31.97,181.92 32.27,182.98 32.55,184.08C32.88,185.34 33.16,186.74 33.45,188.18C33.77,189.78 34.07,191.49 34.36,193.25C34.67,195.15 34.97,197.15 35.26,199.18C35.57,201.33 35.86,203.56 36.16,205.81C36.47,208.14 36.77,210.53 37.07,212.93C37.37,215.37 37.67,217.85 37.97,220.33C38.27,222.82 38.58,225.33 38.88,227.84C39.18,230.35 39.48,232.88 39.78,235.38C40.08,237.86 40.37,240.36 40.68,242.8C40.98,245.18 41.28,247.57 41.59,249.86C41.88,252.04 42.17,254.19 42.49,256.22C42.78,258.08 43.07,259.91 43.4,261.56C43.68,262.99 43.95,264.43 44.3,265.56C44.57,266.44 44.79,267.47 45.21,267.83C45.47,268.05 45.86,268.19 46.11,268.05C46.54,267.82 46.74,266.51 47.01,265.51C47.38,264.13 47.63,262.24 47.92,260.51C48.23,258.64 48.52,256.62 48.82,254.65C49.12,252.63 49.43,250.56 49.73,248.53C50.03,246.51 50.33,244.47 50.63,242.49C50.93,240.56 51.22,238.65 51.53,236.8C51.82,235.04 52.13,233.3 52.44,231.65C52.73,230.11 53.02,228.6 53.34,227.19C53.63,225.9 53.93,224.66 54.25,223.52C54.54,222.51 54.83,221.54 55.15,220.67C55.43,219.92 55.72,219.22 56.05,218.61C56.33,218.09 56.64,217.63 56.96,217.23C57.24,216.88 57.54,216.58 57.86,216.33C58.15,216.1 58.46,215.9 58.77,215.78C59.06,215.67 59.37,215.61 59.67,215.62C59.97,215.63 60.29,215.71 60.58,215.83C60.89,215.95 61.18,216.17 61.48,216.35C61.78,216.53 62.07,216.78 62.38,216.93C62.67,217.07 62.99,217.22 63.29,217.23C63.59,217.24 63.9,217.12 64.19,216.99C64.51,216.85 64.8,216.59 65.1,216.37C65.41,216.14 65.7,215.86 66,215.62C66.3,215.38 66.59,215.13 66.9,214.92C67.2,214.72 67.5,214.53 67.81,214.39C68.1,214.26 68.41,214.15 68.71,214.11C69.01,214.07 69.33,214.08 69.62,214.16C69.93,214.24 70.24,214.41 70.52,214.62C70.84,214.85 71.14,215.18 71.42,215.53C71.74,215.93 72.04,216.41 72.33,216.91C72.65,217.47 72.94,218.11 73.23,218.77C73.55,219.48 73.85,220.25 74.14,221.04C74.45,221.88 74.75,222.77 75.04,223.67C75.35,224.61 75.65,225.58 75.95,226.58C76.26,227.62 76.56,228.7 76.85,229.79C77.16,230.92 77.45,232.11 77.75,233.26C78.05,234.41 78.36,235.56 78.66,236.71C78.96,237.86 79.26,239.01 79.56,240.16C79.86,241.32 80.17,242.5 80.47,243.65C80.77,244.78 81.06,245.91 81.37,247C81.66,248.05 81.96,249.08 82.27,250.09C82.57,251.06 82.87,252 83.18,252.93C83.48,253.83 83.77,254.71 84.08,255.57C84.38,256.4 84.68,257.22 84.99,258.01C85.28,258.75 85.58,259.49 85.89,260.17C86.18,260.79 86.47,261.39 86.79,261.92C87.08,262.4 87.38,262.84 87.7,263.22C87.99,263.55 88.28,263.85 88.6,264.08C88.89,264.28 89.2,264.46 89.51,264.54C89.8,264.62 90.12,264.64 90.41,264.58C90.72,264.52 91.03,264.37 91.32,264.18C91.64,263.96 91.94,263.64 92.22,263.29C92.55,262.88 92.84,262.39 93.12,261.84C93.45,261.19 93.75,260.44 94.03,259.61C94.36,258.62 94.65,257.47 94.93,256.29C95.25,254.95 95.55,253.47 95.84,251.96C96.16,250.3 96.45,248.52 96.74,246.72C97.05,244.81 97.34,242.81 97.64,240.79C97.95,238.68 98.25,236.52 98.55,234.33C98.86,232.08 99.15,229.77 99.45,227.47C99.75,225.14 100.06,222.76 100.36,220.42C100.66,218.09 100.96,215.74 101.26,213.44C101.56,211.19 101.85,208.95 102.16,206.78C102.46,204.69 102.76,202.63 103.07,200.65C103.36,198.78 103.66,196.95 103.97,195.22C104.26,193.62 104.56,192.05 104.88,190.6C105.17,189.29 105.46,188.02 105.78,186.88C106.06,185.89 106.34,184.93 106.68,184.13C106.96,183.47 107.24,182.82 107.59,182.4C107.86,182.08 108.18,181.76 108.49,181.71C108.78,181.67 109.13,181.84 109.4,182.06C109.75,182.35 110.02,182.9 110.3,183.44C110.64,184.11 110.93,184.95 111.21,185.82C111.54,186.83 111.82,187.97 112.11,189.15C112.43,190.46 112.72,191.88 113.01,193.34C113.32,194.91 113.63,196.58 113.92,198.27C114.23,200.06 114.52,201.92 114.82,203.8C115.13,205.76 115.43,207.78 115.73,209.81C116.04,211.9 116.33,214.02 116.63,216.16C116.93,218.33 117.23,220.53 117.53,222.73C117.83,224.94 118.14,227.17 118.44,229.38C118.74,231.57 119.04,233.77 119.34,235.93C119.64,238.05 119.94,240.16 120.25,242.22C120.55,244.21 120.84,246.19 121.15,248.1C121.44,249.93 121.74,251.73 122.05,253.46C122.34,255.08 122.65,256.67 122.96,258.17C123.25,259.55 123.54,260.89 123.86,262.14C124.15,263.28 124.45,264.37 124.77,265.39C125.06,266.3 125.35,267.18 125.67,267.96C125.95,268.64 126.25,269.3 126.58,269.84C126.86,270.3 127.15,270.73 127.48,271.02C127.76,271.26 128.07,271.47 128.38,271.53C128.67,271.59 129,271.54 129.29,271.41C129.61,271.27 129.91,270.97 130.19,270.65C130.52,270.27 130.82,269.77 131.1,269.25C131.43,268.66 131.71,267.97 132,267.26C132.32,266.48 132.61,265.61 132.9,264.74C133.21,263.83 133.51,262.86 133.81,261.91C134.11,260.95 134.41,259.98 134.71,259.03C135.01,258.09 135.31,257.15 135.62,256.23C135.92,255.34 136.21,254.45 136.52,253.59C136.81,252.76 137.11,251.95 137.42,251.16C137.72,250.41 138.02,249.67 138.33,248.96C138.63,248.28 138.93,247.62 139.23,246.96C139.53,246.32 139.84,245.71 140.14,245.06C140.45,244.39 140.75,243.7 141.04,242.98C141.35,242.2 141.65,241.37 141.95,240.54C142.26,239.67 142.55,238.77 142.85,237.88C143.15,236.99 143.45,236.09 143.75,235.2C144.05,234.33 144.36,233.46 144.66,232.6C144.96,231.76 145.25,230.93 145.56,230.12C145.86,229.33 146.16,228.55 146.47,227.8C146.77,227.08 147.06,226.36 147.37,225.68C147.66,225.03 147.96,224.38 148.27,223.78C148.56,223.22 148.87,222.67 149.18,222.17C149.47,221.71 149.76,221.26 150.08,220.88C150.37,220.53 150.67,220.2 150.99,219.95C151.28,219.73 151.58,219.53 151.89,219.42C152.18,219.32 152.49,219.27 152.79,219.29C153.09,219.31 153.41,219.4 153.7,219.54C154.01,219.69 154.31,219.91 154.6,220.16C154.92,220.43 155.22,220.77 155.51,221.13C155.83,221.53 156.12,221.98 156.41,222.45C156.72,222.96 157.01,223.56 157.32,224.08C157.61,224.58 157.9,225.08 158.22,225.52C158.51,225.92 158.82,226.22 159.12,226.6C159.43,226.99 159.73,227.41 160.03,227.83C160.33,228.25 160.63,228.71 160.93,229.13C161.23,229.55 161.54,229.95 161.84,230.36C162.14,230.77 162.44,231.17 162.74,231.59C163.04,232.02 163.34,232.45 163.64,232.9C163.95,233.37 164.26,233.85 164.55,234.36C164.86,234.89 165.16,235.45 165.45,236.03C165.76,236.65 166.07,237.3 166.36,237.99C166.67,238.73 166.97,239.5 167.26,240.31C167.57,241.18 167.87,242.1 168.16,243.05C168.47,244.07 168.78,245.15 169.07,246.25C169.38,247.42 169.68,248.64 169.97,249.88C170.28,251.18 170.58,252.52 170.88,253.88C171.19,255.28 171.48,256.72 171.78,258.14C172.08,259.55 172.35,261.07 172.68,262.37C172.96,263.51 173.26,264.58 173.59,265.53C173.87,266.34 174.19,267.01 174.49,267.74C174.79,268.45 175.1,269.14 175.4,269.84C175.7,270.53 175.99,271.23 176.3,271.89C176.6,272.53 176.85,273.29 177.21,273.75C177.48,274.1 177.82,274.57 178.11,274.54C178.43,274.51 178.75,273.89 179.01,273.39C179.39,272.67 179.64,271.55 179.92,270.48C180.26,269.19 180.54,267.73 180.82,266.17C181.15,264.35 181.45,262.36 181.73,260.22C182.06,257.72 182.34,254.94 182.63,252.08C182.95,248.9 183.24,245.45 183.53,242.01C183.84,238.41 184.14,234.67 184.44,230.95C184.74,227.16 185.04,223.3 185.34,219.47C185.64,215.62 185.95,211.75 186.25,207.9C186.55,204.07 186.85,200.24 187.15,196.44C187.45,192.69 187.75,188.95 188.05,185.25C188.35,181.61 188.66,178 188.96,174.43C189.26,170.92 189.56,167.44 189.86,164C190.16,160.63 190.47,157.29 190.77,153.99C191.07,150.76 191.36,147.55 191.67,144.39C191.97,141.3 192.27,138.25 192.58,135.24C192.88,132.32 193.17,129.44 193.48,126.61C193.77,123.88 194.07,121.19 194.38,118.57C194.68,116.06 194.98,113.6 195.29,111.22C195.58,108.96 195.88,106.74 196.19,104.62C196.48,102.64 196.78,100.7 197.1,98.87C197.39,97.19 197.68,95.57 198,94.06C198.29,92.71 198.57,91.41 198.9,90.25C199.18,89.26 199.46,88.3 199.81,87.54C200.08,86.94 200.35,86.3 200.71,85.99C200.98,85.76 201.34,85.58 201.62,85.64C201.94,85.71 202.25,86.14 202.52,86.54C202.88,87.08 203.14,87.89 203.42,88.71C203.76,89.72 204.05,90.91 204.33,92.16C204.66,93.61 204.94,95.22 205.23,96.89C205.55,98.77 205.85,100.79 206.14,102.88C206.46,105.17 206.75,107.59 207.04,110.08C207.35,112.76 207.66,115.57 207.95,118.45C208.26,121.51 208.56,124.68 208.85,127.91C209.16,131.31 209.45,134.81 209.75,138.36C210.06,142.06 210.36,145.85 210.66,149.68C210.97,153.63 211.26,157.66 211.56,161.72C211.86,165.87 212.17,170.08 212.47,174.3C212.77,178.57 213.07,182.92 213.37,187.18C213.67,191.39 213.95,195.81 214.27,199.72C214.56,203.17 214.85,206.45 215.18,209.45C215.46,212.04 215.65,214.91 216.08,216.66C216.34,217.71 216.72,219.14 216.99,219.12C217.34,219.1 217.62,216.59 217.89,215.01C218.25,212.9 218.5,210.19 218.79,207.58C219.11,204.69 219.41,201.55 219.7,198.41C220.01,195.11 220.3,191.68 220.6,188.24C220.91,184.71 221.21,181.1 221.51,177.5C221.81,173.85 222.11,170.16 222.41,166.47C222.71,162.77 223.02,159.04 223.32,155.33C223.62,151.63 223.92,147.93 224.22,144.26C224.52,140.63 224.82,136.99 225.12,133.41C225.42,129.89 225.72,126.39 226.03,122.94C226.33,119.58 226.62,116.24 226.93,112.97C227.23,109.81 227.53,106.68 227.84,103.64C228.14,100.72 228.43,97.85 228.74,95.07C229.03,92.43 229.33,89.84 229.64,87.35C229.93,85.02 230.24,82.73 230.55,80.57C230.84,78.58 231.13,76.64 231.45,74.83C231.74,73.2 232.04,71.62 232.36,70.19C232.64,68.94 232.93,67.73 233.26,66.7C233.54,65.85 233.8,65.01 234.16,64.42C234.43,63.98 234.73,63.49 235.07,63.38C235.35,63.29 235.7,63.4 235.97,63.59C236.34,63.85 236.61,64.48 236.88,65.07C237.23,65.83 237.5,66.8 237.78,67.8C238.11,68.99 238.4,70.34 238.68,71.74C239,73.33 239.3,75.06 239.59,76.84C239.91,78.8 240.2,80.89 240.49,83.03C240.8,85.34 241.11,87.75 241.4,90.22C241.71,92.84 242,95.55 242.3,98.31C242.61,101.2 242.91,104.17 243.21,107.17C243.52,110.28 243.81,113.46 244.11,116.66C244.41,119.94 244.71,123.29 245.01,126.64C245.31,130.04 245.62,133.48 245.92,136.91C246.22,140.35 246.52,143.82 246.82,147.25C247.12,150.65 247.42,154.06 247.73,157.4C248.03,160.65 248.32,163.9 248.63,167.01C248.92,169.95 249.21,172.89 249.53,175.6C249.82,178.04 250.09,180.53 250.44,182.53C250.71,184.08 251.02,186.62 251.34,186.63C251.63,186.64 251.99,184.77 252.25,183.41C252.68,181.16 252.88,177.68 253.15,174.29C253.49,170.03 253.75,164.72 254.05,159.83C254.36,154.79 254.66,149.6 254.96,144.48C255.26,139.35 255.56,134.18 255.86,129.08C256.16,124.04 256.46,119 256.77,114.05C257.07,109.2 257.36,104.39 257.67,99.67C257.97,95.09 258.27,90.56 258.58,86.14C258.88,81.89 259.17,77.7 259.48,73.64C259.77,69.77 260.07,65.97 260.38,62.3C260.67,58.85 260.98,55.47 261.29,52.24C261.58,49.24 261.87,46.32 262.19,43.56C262.48,41.04 262.78,38.6 263.1,36.33C263.39,34.31 263.67,32.36 264,30.61C264.28,29.11 264.56,27.66 264.9,26.44C265.18,25.46 265.43,24.48 265.81,23.83C266.07,23.38 266.38,22.86 266.71,22.8C266.99,22.75 267.36,23.02 267.62,23.31C268,23.73 268.25,24.56 268.52,25.34C268.87,26.33 269.14,27.56 269.42,28.82C269.75,30.3 270.04,31.95 270.33,33.66C270.65,35.58 270.94,37.65 271.23,39.78C271.55,42.1 271.85,44.55 272.14,47.05C272.45,49.72 272.75,52.51 273.04,55.35C273.35,58.34 273.65,61.42 273.95,64.55C274.26,67.81 274.55,71.15 274.85,74.52C275.15,78 275.45,81.55 275.75,85.12C276.06,88.78 276.36,92.49 276.66,96.22C276.96,100.01 277.26,103.84 277.56,107.67C277.86,111.52 278.17,115.4 278.47,119.25C278.77,123.09 279.07,126.95 279.37,130.74C279.67,134.46 279.96,138.19 280.27,141.81C280.57,145.3 280.87,148.78 281.18,152.08C281.47,155.15 281.71,158.49 282.08,160.95C282.35,162.73 282.62,164.29 282.99,165.52C283.26,166.4 283.51,167.22 283.89,167.72C284.15,168.07 284.52,168.5 284.79,168.44C285.16,168.35 285.42,167.15 285.7,166.4C286.03,165.52 286.31,164.52 286.6,163.49C286.92,162.34 287.22,161.07 287.51,159.79C287.82,158.42 288.11,156.94 288.41,155.53C288.71,154.14 289.01,152.74 289.32,151.41C289.61,150.16 289.9,148.92 290.22,147.79C290.51,146.77 290.79,145.77 291.12,144.91C291.4,144.18 291.68,143.46 292.03,142.95C292.3,142.56 292.6,142.13 292.93,142.03C293.21,141.94 293.57,142.04 293.84,142.22C294.19,142.45 294.47,143 294.74,143.52C295.09,144.18 295.36,145.04 295.64,145.91C295.97,146.93 296.26,148.08 296.55,149.26C296.87,150.56 297.16,151.96 297.45,153.39C297.76,154.91 298.06,156.51 298.36,158.13C298.67,159.82 298.96,161.57 299.26,163.33C299.56,165.13 299.86,166.98 300.16,168.8C300.46,170.61 300.76,172.47 301.07,174.23C301.36,175.91 301.65,177.61 301.97,179.13C302.25,180.46 302.53,181.79 302.88,182.86C303.15,183.71 303.42,184.51 303.78,185.09C304.05,185.53 304.34,185.95 304.68,186.12C304.96,186.26 305.3,186.27 305.59,186.2C305.9,186.13 306.2,185.88 306.49,185.67C306.8,185.44 307.1,185.14 307.4,184.86C307.71,184.57 308,184.25 308.3,183.94C308.6,183.63 308.9,183.31 309.21,183.01C309.51,182.72 309.8,182.42 310.11,182.15C310.4,181.89 310.7,181.64 311.01,181.42C311.31,181.21 311.61,181.01 311.92,180.85C312.22,180.69 312.51,180.56 312.82,180.46C313.12,180.36 313.43,180.28 313.73,180.24C314.03,180.2 314.33,180.17 314.63,180.19C314.93,180.21 315.24,180.24 315.53,180.34C315.84,180.44 316.15,180.6 316.44,180.81C316.76,181.04 317.06,181.36 317.34,181.71C317.67,182.12 317.97,182.63 318.25,183.17C318.58,183.8 318.87,184.52 319.15,185.29C319.47,186.16 319.76,187.13 320.05,188.13C320.37,189.24 320.67,190.43 320.96,191.66C321.27,192.98 321.57,194.38 321.86,195.79C322.17,197.27 322.47,198.8 322.77,200.34C323.08,201.91 323.37,203.52 323.67,205.11C323.97,206.69 324.27,208.3 324.58,209.85C324.88,211.35 325.17,212.85 325.48,214.28C325.77,215.62 326.06,216.95 326.38,218.18C326.67,219.29 326.96,220.38 327.29,221.32C327.57,222.11 327.83,222.89 328.19,223.44C328.46,223.86 328.76,224.29 329.1,224.42C329.38,224.52 329.73,224.47 330,224.32C330.34,224.13 330.62,223.65 330.9,223.21C331.24,222.68 331.52,221.99 331.81,221.32C332.13,220.58 332.41,219.77 332.71,218.96C333.02,218.12 333.32,217.23 333.62,216.36C333.92,215.49 334.21,214.6 334.52,213.76C334.81,212.95 335.1,212.15 335.42,211.41C335.71,210.74 336,210.07 336.33,209.51C336.61,209.02 336.89,208.54 337.23,208.21C337.51,207.94 337.82,207.67 338.14,207.6C338.43,207.53 338.76,207.59 339.04,207.72C339.37,207.87 339.67,208.21 339.95,208.56C340.28,208.97 340.57,209.52 340.85,210.08C341.17,210.71 341.46,211.43 341.75,212.16C342.06,212.94 342.36,213.8 342.66,214.63C342.96,215.46 343.17,216.58 343.56,217.14C343.82,217.51 344.15,217.78 344.47,217.89C344.75,217.99 345.08,217.79 345.37,217.86C345.68,217.93 345.99,218.12 346.27,218.35C346.6,218.62 346.89,219.05 347.18,219.46C347.5,219.91 347.78,220.45 348.08,220.96C348.39,221.48 348.7,221.98 348.99,222.55C349.31,223.18 349.6,223.88 349.89,224.57C350.2,225.29 350.48,226.07 350.79,226.8C351.09,227.51 351.38,228.23 351.7,228.89C351.99,229.49 352.28,230.09 352.6,230.59C352.88,231.03 353.18,231.47 353.51,231.76C353.79,232 354.13,232.31 354.41,232.26C354.74,232.2 355.04,231.62 355.32,231.19C355.66,230.66 355.94,229.95 356.22,229.24C356.54,228.42 356.84,227.51 357.12,226.53C357.45,225.39 357.75,224.14 358.03,222.8C358.36,221.27 358.64,219.59 358.93,217.85C359.25,215.93 359.55,213.89 359.84,211.79C360.15,209.54 360.46,207.31 360.74,204.78C361.07,201.82 361.36,198.61 361.64,195.11C361.97,190.95 362.26,186.12 362.55,181.44C362.86,176.51 363.15,171.37 363.45,166.26C363.75,161.04 364.06,155.71 364.36,150.43C364.66,145.13 364.96,139.8 365.26,134.51C365.56,129.24 365.86,123.97 366.16,118.75C366.46,113.61 366.76,108.48 367.07,103.43C367.37,98.49 367.66,93.58 367.97,88.78C368.27,84.13 368.57,79.53 368.88,75.05C369.18,70.75 369.47,66.52 369.78,62.43C370.07,58.55 370.37,54.74 370.68,51.08C370.97,47.66 371.27,44.33 371.59,41.16C371.88,38.25 372.17,35.42 372.49,32.78C372.78,30.4 373.07,28.11 373.4,26.02C373.68,24.21 373.96,22.46 374.3,20.95C374.58,19.71 374.84,18.5 375.21,17.61C375.48,16.96 375.73,16.19 376.11,16C376.37,15.87 376.75,15.93 377.01,16.11C377.4,16.38 377.65,17.19 377.92,17.9C378.28,18.84 378.54,20.06 378.82,21.31C379.15,22.8 379.44,24.49 379.73,26.24C380.05,28.22 380.34,30.36 380.63,32.57C380.94,34.98 381.24,37.54 381.53,40.15C381.84,42.94 382.14,45.85 382.44,48.8C382.75,51.89 383.04,55.08 383.34,58.28C383.65,61.57 383.95,64.95 384.25,68.3C384.55,71.68 384.85,75.1 385.15,78.47C385.45,81.8 385.74,85.14 386.05,88.39C386.35,91.53 386.65,94.66 386.96,97.65C387.25,100.46 387.54,103.23 387.86,105.82C388.15,108.17 388.45,110.41 388.77,112.52C389.06,114.41 389.34,116.24 389.67,117.9C389.95,119.34 390.17,120.96 390.58,121.92C390.84,122.53 391.12,123.12 391.48,123.29C391.75,123.42 392.1,123.32 392.38,123.19C392.71,123.04 393,122.68 393.29,122.38C393.6,122.05 393.88,121.63 394.19,121.28C394.49,120.95 394.78,120.57 395.1,120.33C395.38,120.11 395.69,119.89 396,119.85C396.29,119.81 396.62,119.9 396.9,120.06C397.24,120.26 397.53,120.66 397.81,121.08C398.15,121.6 398.43,122.27 398.71,122.98C399.04,123.82 399.34,124.78 399.62,125.79C399.94,126.94 400.23,128.19 400.52,129.5C400.84,130.95 401.13,132.51 401.42,134.11C401.73,135.85 402.04,137.69 402.33,139.57C402.64,141.58 402.94,143.68 403.23,145.82C403.54,148.07 403.84,150.41 404.14,152.77C404.45,155.23 404.74,157.76 405.04,160.31C405.35,162.93 405.65,165.61 405.95,168.29C406.25,171.02 406.55,173.78 406.85,176.54C407.15,179.31 407.45,182.1 407.75,184.86C408.05,187.6 408.36,190.35 408.66,193.06C408.96,195.73 409.25,198.38 409.56,200.99C409.86,203.52 410.16,206.05 410.47,208.48C410.76,210.8 411.06,213.08 411.37,215.26C411.66,217.31 411.94,219.36 412.27,221.2C412.55,222.81 412.87,224.26 413.18,225.7C413.47,227.03 413.74,228.39 414.08,229.51C414.36,230.41 414.67,231.18 414.99,231.92C415.27,232.57 415.58,233.14 415.89,233.71C416.18,234.25 416.48,234.76 416.79,235.26C417.09,235.73 417.39,236.18 417.7,236.62C418,237.04 418.29,237.43 418.6,237.82C418.9,238.19 419.2,238.55 419.51,238.9C419.81,239.24 420.1,239.57 420.41,239.87C420.7,240.15 421,240.44 421.32,240.64C421.61,240.82 421.92,241.02 422.22,241.05C422.52,241.08 422.84,240.98 423.12,240.82C423.45,240.63 423.75,240.24 424.03,239.87C424.36,239.45 424.64,238.91 424.93,238.39C425.24,237.83 425.54,237.2 425.84,236.59C426.15,235.96 426.44,235.29 426.74,234.64C427.04,234 427.33,233.35 427.64,232.74C427.94,232.15 428.24,231.57 428.55,231.03C428.84,230.53 429.13,230.04 429.45,229.62C429.74,229.24 430.04,228.87 430.36,228.61C430.64,228.38 430.95,228.17 431.26,228.08C431.55,228 431.87,227.99 432.16,228.07C432.48,228.16 432.79,228.37 433.07,228.62C433.4,228.91 433.69,229.31 433.97,229.74C434.3,230.23 434.59,230.81 434.88,231.42C435.2,232.09 435.49,232.84 435.78,233.61C436.09,234.44 436.38,235.34 436.68,236.23C436.99,237.15 437.26,238.18 437.59,239.04C437.87,239.78 438.16,240.5 438.49,241.09C438.77,241.59 439.07,242.04 439.4,242.39C439.68,242.69 439.99,242.9 440.3,243.12C440.6,243.33 440.91,243.52 441.21,243.7C441.51,243.88 441.81,244.06 442.11,244.22C442.41,244.38 442.7,244.54 443.01,244.65C443.31,244.75 443.62,244.81 443.92,244.85C444.22,244.89 444.52,244.88 444.82,244.87C445.12,244.86 445.43,244.84 445.73,244.81C446.03,244.79 446.33,244.75 446.63,244.72C446.93,244.69 447.23,244.65 447.53,244.62C447.83,244.59 448.14,244.56 448.44,244.55C448.74,244.54 449.04,244.53 449.34,244.55C449.64,244.57 449.95,244.59 450.25,244.65C450.55,244.71 450.85,244.79 451.15,244.9C451.46,245.01 451.76,245.16 452.05,245.33C452.36,245.51 452.67,245.73 452.96,245.97C453.27,246.23 453.57,246.54 453.86,246.86C454.17,247.21 454.48,247.59 454.77,248C455.08,248.44 455.38,248.92 455.67,249.42C455.98,249.95 456.29,250.52 456.58,251.1C456.89,251.72 457.19,252.37 457.48,253.03C457.79,253.72 458.08,254.44 458.38,255.17C458.69,255.92 458.99,256.7 459.29,257.48C459.59,258.27 459.89,259.09 460.19,259.88C460.49,260.67 460.79,261.47 461.1,262.23Q461.39,262.94 462,264.3" style="vector-effect: non-scaling-stroke; fill: none; stroke: rgb(0, 176, 246); stroke-opacity: 1; stroke-width: 2px; opacity: 1;"/></g><g class="points"/><g class="text"/></g><g class="trace scatter trace8128bd" style="stroke-miterlimit: 2; opacity: 1;"><g class="fills"/><g class="errorbars"/><g class="lines"><path class="js-line" d="M0,84.13Q0.6,84.16 0.9,84.21C1.2,84.26 1.51,84.35 1.81,84.46C2.12,84.57 2.42,84.71 2.71,84.88C3.02,85.05 3.32,85.26 3.62,85.49C3.93,85.73 4.23,85.99 4.52,86.27C4.83,86.57 5.13,86.9 5.42,87.25C5.73,87.62 6.04,88.02 6.33,88.43C6.64,88.87 6.94,89.33 7.23,89.81C7.54,90.31 7.85,90.84 8.14,91.39C8.45,91.96 8.74,92.56 9.04,93.18C9.35,93.82 9.65,94.49 9.95,95.17C10.26,95.88 10.56,96.62 10.85,97.37C11.16,98.15 11.45,98.95 11.75,99.77C12.06,100.62 12.36,101.48 12.66,102.37C12.97,103.29 13.26,104.23 13.56,105.19C13.87,106.18 14.17,107.18 14.47,108.21C14.78,109.27 15.07,110.36 15.37,111.47C15.67,112.61 15.97,113.78 16.27,114.96C16.58,116.18 16.88,117.43 17.18,118.7C17.49,120.02 17.78,121.36 18.08,122.73C18.39,124.15 18.69,125.59 18.99,127.06C19.3,128.58 19.6,130.14 19.89,131.72C20.2,133.36 20.49,135.04 20.79,136.75C21.1,138.52 21.4,140.33 21.7,142.17C22.01,144.08 22.3,146.02 22.6,148C22.91,150.05 23.21,152.15 23.51,154.27C23.82,156.46 24.11,158.69 24.41,160.96C24.72,163.3 25.02,165.67 25.32,168.08C25.63,170.55 25.92,173.06 26.22,175.59C26.52,178.17 26.82,180.79 27.12,183.43C27.42,186.11 27.73,188.82 28.03,191.54C28.33,194.28 28.63,197.05 28.93,199.8C29.23,202.56 29.54,205.34 29.84,208.08C30.14,210.79 30.44,213.51 30.74,216.16C31.04,218.74 31.33,221.31 31.64,223.78C31.93,226.13 32.24,228.44 32.55,230.63C32.84,232.66 33.13,234.63 33.45,236.49C33.74,238.18 34.04,239.8 34.36,241.33C34.65,242.71 34.94,244.03 35.26,245.27C35.55,246.38 35.84,247.45 36.16,248.42C36.45,249.28 36.74,250.09 37.07,250.81C37.35,251.43 37.65,251.98 37.97,252.48C38.26,252.92 38.56,253.31 38.88,253.66C39.17,253.97 39.46,254.27 39.78,254.49C40.07,254.69 40.37,254.91 40.68,254.95C40.98,254.99 41.31,254.95 41.59,254.78C41.93,254.57 42.21,254.1 42.49,253.65C42.83,253.09 43.12,252.4 43.4,251.63C43.74,250.68 44,249.43 44.3,248.33C44.6,247.23 44.9,246.09 45.21,245.03C45.5,244.03 45.8,243.04 46.11,242.12C46.4,241.28 46.69,240.47 47.01,239.74C47.3,239.1 47.59,238.47 47.92,237.96C48.2,237.53 48.49,237.11 48.82,236.84C49.1,236.61 49.42,236.42 49.73,236.38C50.02,236.34 50.35,236.44 50.63,236.59C50.96,236.76 51.25,237.1 51.53,237.44C51.86,237.84 52.15,238.35 52.44,238.87C52.76,239.46 53.05,240.13 53.34,240.82C53.65,241.56 53.96,242.37 54.25,243.18C54.56,244.03 54.85,244.92 55.15,245.81C55.45,246.72 55.75,247.66 56.05,248.57C56.35,249.47 56.65,250.38 56.96,251.25C57.25,252.07 57.54,252.9 57.86,253.65C58.15,254.33 58.44,255.03 58.77,255.57C59.05,256.02 59.36,256.72 59.67,256.73C59.97,256.74 60.32,256.17 60.58,255.71C60.97,255.02 61.2,253.9 61.48,252.84C61.81,251.57 62.09,250.07 62.38,248.58C62.7,246.94 62.99,245.15 63.29,243.38C63.6,241.53 63.89,239.61 64.19,237.72C64.49,235.83 64.8,233.91 65.1,232.03C65.4,230.17 65.7,228.31 66,226.48C66.3,224.69 66.59,222.92 66.9,221.19C67.2,219.51 67.5,217.85 67.81,216.24C68.1,214.7 68.4,213.19 68.71,211.74C69,210.37 69.31,209.02 69.62,207.75C69.91,206.57 70.2,205.42 70.52,204.35C70.81,203.38 71.1,202.44 71.42,201.6C71.7,200.86 72,200.14 72.33,199.55C72.61,199.06 72.89,198.57 73.23,198.26C73.51,198.01 73.83,197.78 74.14,197.75C74.43,197.72 74.76,197.86 75.04,198.05C75.38,198.28 75.67,198.72 75.95,199.16C76.29,199.69 76.57,200.36 76.85,201.05C77.17,201.84 77.46,202.74 77.75,203.64C78.06,204.6 78.37,205.62 78.66,206.65C78.97,207.74 79.27,208.86 79.56,210.02C79.87,211.25 80.18,212.54 80.47,213.85C80.78,215.24 81.07,216.68 81.37,218.13C81.68,219.63 81.97,221.18 82.27,222.72C82.57,224.28 82.88,225.87 83.18,227.43C83.48,228.98 83.77,230.55 84.08,232.05C84.38,233.49 84.66,234.97 84.99,236.26C85.27,237.37 85.52,238.53 85.89,239.34C86.16,239.93 86.43,240.61 86.79,240.77C87.06,240.89 87.44,240.79 87.7,240.59C88.08,240.31 88.33,239.56 88.6,238.89C88.96,238 89.23,236.86 89.51,235.68C89.85,234.26 90.13,232.62 90.41,230.93C90.73,228.99 91.03,226.88 91.32,224.69C91.64,222.28 91.93,219.71 92.22,217.08C92.53,214.26 92.83,211.3 93.12,208.31C93.43,205.17 93.73,201.93 94.03,198.67C94.34,195.32 94.63,191.89 94.93,188.47C95.23,185.01 95.54,181.51 95.84,178.04C96.14,174.57 96.44,171.09 96.74,167.65C97.04,164.26 97.33,160.87 97.64,157.55C97.94,154.31 98.24,151.1 98.55,147.96C98.85,144.93 99.14,141.93 99.45,139.02C99.74,136.24 100.05,133.52 100.36,130.89C100.65,128.41 100.95,125.99 101.26,123.68C101.55,121.53 101.84,119.44 102.16,117.48C102.45,115.69 102.75,113.96 103.07,112.37C103.36,110.96 103.64,109.61 103.97,108.41C104.25,107.4 104.53,106.41 104.88,105.64C105.15,105.04 105.42,104.4 105.78,104.1C106.05,103.88 106.4,103.72 106.68,103.78C107.01,103.85 107.32,104.29 107.59,104.69C107.95,105.22 108.21,106.01 108.49,106.81C108.83,107.78 109.12,108.93 109.4,110.12C109.73,111.49 110.01,113 110.3,114.56C110.62,116.29 110.92,118.15 111.21,120.07C111.53,122.15 111.82,124.34 112.11,126.58C112.42,128.97 112.72,131.47 113.01,134.01C113.32,136.68 113.62,139.44 113.92,142.24C114.23,145.15 114.52,148.14 114.82,151.16C115.13,154.27 115.43,157.45 115.73,160.65C116.03,163.91 116.33,167.22 116.63,170.53C116.93,173.88 117.23,177.27 117.53,180.65C117.83,184.03 118.14,187.44 118.44,190.81C118.74,194.15 119.03,197.49 119.34,200.77C119.64,203.97 119.94,207.17 120.25,210.26C120.55,213.22 120.84,216.15 121.15,218.93C121.44,221.5 121.73,224.03 122.05,226.35C122.34,228.4 122.63,230.39 122.96,232.14C123.24,233.6 123.51,235 123.86,236.15C124.13,237.06 124.4,237.94 124.77,238.54C125.04,238.97 125.34,239.41 125.67,239.52C125.95,239.61 126.31,239.52 126.58,239.35C126.92,239.14 127.2,238.66 127.48,238.21C127.82,237.66 128.1,236.94 128.38,236.22C128.7,235.39 129,234.45 129.29,233.5C129.61,232.46 129.89,231.34 130.19,230.22C130.5,229.05 130.8,227.82 131.1,226.61C131.4,225.38 131.7,224.14 132,222.91C132.3,221.68 132.6,220.44 132.9,219.23C133.2,218.04 133.5,216.84 133.81,215.68C134.11,214.55 134.4,213.43 134.71,212.35C135.01,211.32 135.31,210.3 135.62,209.33C135.91,208.41 136.21,207.52 136.52,206.66C136.81,205.85 137.11,205.08 137.42,204.32C137.72,203.6 138.03,202.9 138.33,202.21C138.63,201.53 138.93,200.88 139.23,200.2C139.53,199.51 139.85,198.82 140.14,198.09C140.45,197.32 140.75,196.53 141.04,195.7C141.35,194.8 141.66,193.85 141.95,192.86C142.26,191.79 142.56,190.65 142.85,189.49C143.16,188.25 143.46,186.95 143.75,185.63C144.06,184.24 144.36,182.8 144.66,181.35C144.97,179.85 145.26,178.3 145.56,176.75C145.86,175.17 146.17,173.56 146.47,171.96C146.77,170.35 147.07,168.72 147.37,167.1C147.67,165.49 147.97,163.88 148.27,162.29C148.57,160.73 148.87,159.18 149.18,157.66C149.48,156.19 149.77,154.73 150.08,153.32C150.37,151.98 150.68,150.65 150.99,149.39C151.28,148.21 151.58,147.05 151.89,145.96C152.18,144.96 152.47,144 152.79,143.12C153.08,142.34 153.37,141.58 153.7,140.94C153.98,140.39 154.26,139.85 154.6,139.48C154.88,139.17 155.19,138.87 155.51,138.79C155.8,138.71 156.13,138.77 156.41,138.91C156.74,139.08 157.04,139.46 157.32,139.85C157.66,140.33 157.94,140.97 158.22,141.64C158.55,142.42 158.84,143.34 159.12,144.28C159.44,145.35 159.74,146.52 160.03,147.74C160.35,149.09 160.64,150.53 160.93,152.02C161.24,153.63 161.55,155.33 161.84,157.07C162.15,158.93 162.45,160.87 162.74,162.85C163.05,164.94 163.34,167.09 163.64,169.28C163.95,171.56 164.25,173.9 164.55,176.27C164.86,178.71 165.15,181.2 165.45,183.71C165.75,186.27 166.06,188.87 166.36,191.48C166.66,194.11 166.96,196.77 167.26,199.43C167.56,202.1 167.86,204.78 168.16,207.46C168.46,210.14 168.77,212.82 169.07,215.49C169.37,218.16 169.67,220.82 169.97,223.49C170.27,226.16 170.58,228.82 170.88,231.49C171.18,234.16 171.48,236.82 171.78,239.5C172.08,242.18 172.38,244.88 172.68,247.57C172.98,250.28 173.29,252.99 173.59,255.7C173.89,258.41 174.19,261.13 174.49,263.83C174.79,266.51 175.09,269.21 175.4,271.85C175.7,274.43 175.98,277.09 176.3,279.5C176.59,281.67 176.8,284.14 177.21,285.69C177.47,286.67 177.78,287.99 178.11,288.01C178.39,288.03 178.75,287.12 179.01,286.43C179.42,285.33 179.65,283.62 179.92,281.91C180.27,279.71 180.54,277 180.82,274.29C181.14,271.2 181.44,267.76 181.73,264.34C182.04,260.69 182.33,256.86 182.63,253.03C182.93,249.09 183.23,245.06 183.53,241.04C183.83,236.97 184.14,232.86 184.44,228.75C184.74,224.63 185.04,220.48 185.34,216.36C185.64,212.25 185.95,208.13 186.25,204.04C186.55,199.98 186.85,195.92 187.15,191.9C187.45,187.93 187.75,183.97 188.05,180.06C188.35,176.22 188.66,172.4 188.96,168.63C189.26,164.94 189.55,161.28 189.86,157.68C190.16,154.17 190.46,150.7 190.77,147.3C191.07,144 191.36,140.75 191.67,137.57C191.97,134.51 192.27,131.49 192.58,128.55C192.88,125.74 193.17,122.98 193.48,120.31C193.77,117.78 194.07,115.3 194.38,112.92C194.67,110.69 194.98,108.51 195.29,106.44C195.58,104.53 195.87,102.68 196.19,100.94C196.48,99.37 196.78,97.85 197.1,96.46C197.38,95.24 197.67,94.07 198,93.06C198.28,92.22 198.54,91.39 198.9,90.8C199.17,90.35 199.47,89.85 199.81,89.72C200.08,89.62 200.44,89.68 200.71,89.85C201.07,90.08 201.35,90.68 201.62,91.24C201.97,91.97 202.24,92.92 202.52,93.9C202.85,95.08 203.14,96.45 203.42,97.87C203.75,99.5 204.04,101.29 204.33,103.15C204.65,105.22 204.94,107.44 205.23,109.73C205.55,112.24 205.85,114.89 206.14,117.62C206.45,120.56 206.75,123.62 207.04,126.77C207.35,130.12 207.66,133.6 207.95,137.16C208.26,140.91 208.56,144.78 208.85,148.73C209.16,152.86 209.45,157.1 209.75,161.41C210.06,165.89 210.36,170.47 210.66,175.11C210.97,179.89 211.26,184.77 211.56,189.69C211.87,194.73 212.17,199.86 212.47,205.01C212.77,210.24 213.07,215.55 213.37,220.83C213.67,226.13 213.96,231.54 214.27,236.77C214.57,241.84 214.85,247.17 215.18,251.76C215.46,255.66 215.6,260.17 216.08,262.59C216.33,263.85 216.72,265.43 216.99,265.41C217.34,265.39 217.63,262.39 217.89,260.45C218.26,257.76 218.51,254.19 218.79,250.74C219.11,246.8 219.41,242.43 219.7,238.08C220.01,233.44 220.3,228.59 220.6,223.71C220.91,218.64 221.21,213.45 221.51,208.22C221.82,202.87 222.11,197.42 222.41,191.96C222.71,186.43 223.02,180.83 223.32,175.26C223.62,169.69 223.92,164.08 224.22,158.53C224.52,153.03 224.82,147.52 225.12,142.09C225.42,136.75 225.72,131.43 226.03,126.2C226.33,121.1 226.62,116.04 226.93,111.09C227.23,106.3 227.53,101.56 227.84,96.94C228.14,92.5 228.43,88.13 228.74,83.9C229.03,79.88 229.33,75.93 229.64,72.13C229.93,68.56 230.24,65.07 230.55,61.74C230.84,58.65 231.13,55.66 231.45,52.83C231.74,50.26 232.04,47.78 232.36,45.48C232.65,43.45 232.93,41.49 233.26,39.74C233.54,38.25 233.81,36.81 234.16,35.64C234.43,34.72 234.67,33.75 235.07,33.24C235.33,32.9 235.69,32.56 235.97,32.6C236.3,32.65 236.62,33.25 236.88,33.76C237.26,34.49 237.51,35.61 237.78,36.72C238.12,38.11 238.4,39.75 238.68,41.46C239.01,43.45 239.3,45.67 239.59,47.96C239.91,50.53 240.2,53.3 240.49,56.16C240.81,59.29 241.11,62.61 241.4,66.01C241.71,69.67 242.01,73.5 242.3,77.42C242.61,81.58 242.92,85.89 243.21,90.28C243.52,94.89 243.82,99.64 244.11,104.46C244.42,109.47 244.71,114.61 245.01,119.81C245.32,125.17 245.62,130.64 245.92,136.14C246.23,141.77 246.52,147.49 246.82,153.21C247.12,159 247.43,164.87 247.73,170.7C248.03,176.52 248.33,182.41 248.63,188.16C248.93,193.78 249.22,199.46 249.53,204.82C249.82,209.82 250.1,214.98 250.44,219.31C250.72,222.83 250.72,227.22 251.34,228.89C251.59,229.57 252,230.24 252.25,230.17C252.83,230.02 252.88,224.97 253.15,221.85C253.5,217.87 253.76,212.96 254.05,208.23C254.37,203.09 254.66,197.57 254.96,192.12C255.27,186.49 255.56,180.7 255.86,174.97C256.16,169.21 256.47,163.39 256.77,157.65C257.07,151.96 257.37,146.28 257.67,140.68C257.97,135.2 258.27,129.75 258.58,124.4C258.88,119.21 259.17,114.07 259.48,109.06C259.77,104.23 260.07,99.48 260.38,94.86C260.67,90.45 260.98,86.13 261.29,81.95C261.58,78.01 261.88,74.16 262.19,70.47C262.48,67.03 262.78,63.68 263.1,60.51C263.39,57.61 263.68,54.79 264,52.17C264.29,49.82 264.57,47.56 264.9,45.51C265.18,43.74 265.47,42.03 265.81,40.57C266.09,39.38 266.34,38.21 266.71,37.38C266.98,36.79 267.26,36.08 267.62,35.96C267.89,35.87 268.26,36.05 268.52,36.29C268.92,36.66 269.15,37.54 269.42,38.34C269.77,39.39 270.05,40.71 270.33,42.07C270.66,43.69 270.95,45.52 271.23,47.42C271.55,49.57 271.85,51.9 272.14,54.31C272.46,56.95 272.75,59.75 273.04,62.63C273.35,65.73 273.66,68.97 273.95,72.28C274.26,75.79 274.56,79.42 274.85,83.11C275.16,86.98 275.45,90.96 275.75,94.99C276.06,99.16 276.36,103.44 276.66,107.74C276.97,112.15 277.26,116.64 277.56,121.15C277.86,125.73 278.17,130.36 278.47,134.99C278.77,139.64 279.07,144.33 279.37,148.97C279.67,153.57 279.96,158.2 280.27,162.73C280.57,167.14 280.87,171.55 281.18,175.79C281.47,179.81 281.73,184.09 282.08,187.52C282.35,190.22 282.56,192.97 282.99,194.73C283.25,195.79 283.56,197.18 283.89,197.2C284.17,197.22 284.54,196.3 284.79,195.53C285.27,194.07 285.42,191.2 285.7,188.8C286.03,186.03 286.31,182.96 286.6,179.86C286.91,176.51 287.21,172.96 287.51,169.41C287.82,165.71 288.11,161.89 288.41,158.09C288.71,154.25 289.02,150.34 289.32,146.49C289.62,142.67 289.92,138.83 290.22,135.06C290.52,131.38 290.81,127.71 291.12,124.14C291.42,120.69 291.72,117.29 292.03,113.99C292.32,110.85 292.62,107.76 292.93,104.8C293.22,102.02 293.53,99.3 293.84,96.72C294.13,94.34 294.42,92.03 294.74,89.86C295.03,87.9 295.32,86.01 295.64,84.29C295.92,82.78 296.22,81.33 296.55,80.07C296.83,79.02 297.09,77.99 297.45,77.21C297.72,76.61 297.99,75.98 298.36,75.72C298.63,75.53 298.99,75.44 299.26,75.54C299.6,75.66 299.89,76.16 300.16,76.6C300.51,77.17 300.79,77.97 301.07,78.77C301.4,79.72 301.68,80.81 301.97,81.94C302.29,83.22 302.59,84.61 302.88,86.05C303.2,87.64 303.49,89.33 303.78,91.07C304.09,92.94 304.39,94.91 304.68,96.91C304.99,99.03 305.29,101.23 305.59,103.46C305.9,105.77 306.19,108.15 306.49,110.54C306.8,112.99 307.1,115.49 307.4,117.98C307.7,120.49 308,123.03 308.3,125.55C308.6,128.05 308.9,130.57 309.21,133.04C309.51,135.45 309.8,137.87 310.11,140.2C310.4,142.44 310.7,144.65 311.01,146.76C311.3,148.73 311.6,150.68 311.92,152.48C312.21,154.1 312.49,155.7 312.82,157.1C313.1,158.3 313.38,159.47 313.73,160.39C314,161.1 314.25,161.88 314.63,162.21C314.89,162.44 315.25,162.59 315.53,162.51C315.87,162.41 316.17,161.87 316.44,161.42C316.79,160.84 317.06,160.04 317.34,159.27C317.66,158.39 317.96,157.4 318.25,156.42C318.56,155.39 318.85,154.29 319.15,153.22C319.45,152.14 319.74,151.03 320.05,149.96C320.35,148.92 320.65,147.88 320.96,146.89C321.25,145.96 321.54,145.04 321.86,144.2C322.15,143.43 322.44,142.69 322.77,142.04C323.05,141.48 323.33,140.93 323.67,140.53C323.95,140.19 324.25,139.86 324.58,139.73C324.86,139.62 325.2,139.62 325.48,139.72C325.8,139.84 326.1,140.17 326.38,140.51C326.72,140.93 327.01,141.52 327.29,142.12C327.62,142.84 327.91,143.68 328.19,144.56C328.51,145.56 328.81,146.67 329.1,147.82C329.42,149.1 329.71,150.47 330,151.89C330.31,153.44 330.61,155.08 330.9,156.77C331.21,158.58 331.52,160.48 331.81,162.42C332.12,164.49 332.42,166.63 332.71,168.82C333.02,171.12 333.32,173.5 333.62,175.91C333.93,178.42 334.22,180.99 334.52,183.58C334.82,186.24 335.12,188.95 335.42,191.66C335.72,194.39 336.03,197.15 336.33,199.9C336.63,202.65 336.93,205.4 337.23,208.16C337.53,210.93 337.84,213.7 338.14,216.47C338.44,219.25 338.74,222.04 339.04,224.81C339.34,227.57 339.65,230.33 339.95,233.06C340.25,235.74 340.54,238.43 340.85,241.03C341.14,243.54 341.43,246.05 341.75,248.4C342.04,250.57 342.33,252.75 342.66,254.63C342.94,256.21 343.22,257.67 343.56,258.96C343.84,260.03 344.14,260.98 344.47,261.87C344.75,262.64 345.05,263.34 345.37,263.99C345.66,264.57 345.95,265.11 346.27,265.6C346.56,266.04 346.83,266.62 347.18,266.79C347.45,266.92 347.8,266.91 348.08,266.79C348.42,266.64 348.7,266.18 348.99,265.81C349.31,265.4 349.61,264.93 349.89,264.43C350.21,263.86 350.51,263.24 350.79,262.56C351.12,261.77 351.41,260.88 351.7,259.94C352.02,258.87 352.3,257.67 352.6,256.49C352.91,255.26 353.21,253.98 353.51,252.72C353.81,251.45 354.11,250.18 354.41,248.91C354.71,247.64 355.02,246.38 355.32,245.09C355.62,243.78 355.93,242.48 356.22,241.13C356.53,239.71 356.83,238.28 357.12,236.77C357.43,235.15 357.74,233.51 358.03,231.73C358.35,229.75 358.65,227.68 358.93,225.44C359.25,222.89 359.55,220.09 359.84,217.23C360.16,214.1 360.45,210.8 360.74,207.39C361.05,203.7 361.34,199.72 361.64,195.87C361.94,192.01 362.25,188.1 362.55,184.26C362.85,180.47 363.15,176.69 363.45,172.96C363.75,169.31 364.05,165.69 364.36,162.13C364.66,158.67 364.95,155.24 365.26,151.89C365.55,148.66 365.85,145.48 366.16,142.38C366.46,139.42 366.76,136.51 367.07,133.7C367.36,131.04 367.66,128.43 367.97,125.94C368.26,123.61 368.56,121.35 368.88,119.2C369.17,117.23 369.46,115.32 369.78,113.54C370.07,111.95 370.35,110.42 370.68,109.04C370.96,107.85 371.25,106.7 371.59,105.74C371.87,104.96 372.12,104.18 372.49,103.68C372.76,103.32 373.09,102.92 373.4,102.89C373.69,102.86 374.03,103.11 374.3,103.38C374.67,103.76 374.94,104.46 375.21,105.14C375.56,106 375.83,107.06 376.11,108.16C376.44,109.45 376.72,110.9 377.01,112.41C377.33,114.1 377.63,115.93 377.92,117.83C378.24,119.91 378.53,122.12 378.82,124.39C379.13,126.83 379.44,129.39 379.73,132.01C380.04,134.79 380.34,137.69 380.63,140.63C380.94,143.72 381.23,146.9 381.53,150.14C381.84,153.51 382.14,156.97 382.44,160.47C382.75,164.08 383.04,167.77 383.34,171.48C383.64,175.27 383.95,179.17 384.25,182.96C384.55,186.68 384.85,190.36 385.15,194.03C385.45,197.65 385.75,201.23 386.05,204.84C386.35,208.45 386.66,212.08 386.96,215.68C387.26,219.26 387.55,222.86 387.86,226.38C388.16,229.82 388.44,233.42 388.77,236.56C389.05,239.28 389.36,241.72 389.67,244.15C389.96,246.4 390.23,248.78 390.58,250.66C390.85,252.11 391.04,254.37 391.48,254.48C391.73,254.55 392.13,253.99 392.38,253.5C392.85,252.58 393.01,250.67 393.29,249.02C393.63,246.99 393.9,244.58 394.19,242.2C394.51,239.58 394.8,236.77 395.1,233.96C395.41,231.02 395.71,227.99 396,224.92C396.31,221.74 396.6,218.5 396.9,215.21C397.21,211.82 397.51,208.32 397.81,204.88C398.11,201.45 398.4,197.98 398.71,194.6C399.01,191.32 399.31,188.06 399.62,184.9C399.92,181.88 400.21,178.91 400.52,176.05C400.81,173.35 401.11,170.71 401.42,168.18C401.71,165.83 402.01,163.55 402.33,161.39C402.62,159.42 402.91,157.51 403.23,155.75C403.52,154.18 403.81,152.67 404.14,151.31C404.42,150.14 404.7,149.02 405.04,148.08C405.32,147.32 405.59,146.56 405.95,146.07C406.22,145.71 406.53,145.33 406.85,145.28C407.14,145.24 407.48,145.44 407.75,145.68C408.11,146 408.38,146.62 408.66,147.22C409,147.96 409.28,148.89 409.56,149.84C409.89,150.95 410.18,152.19 410.47,153.47C410.79,154.89 411.08,156.42 411.37,157.99C411.68,159.68 411.98,161.47 412.27,163.29C412.58,165.21 412.88,167.2 413.18,169.21C413.49,171.29 413.78,173.43 414.08,175.58C414.39,177.77 414.69,180.01 414.99,182.24C415.29,184.5 415.59,186.78 415.89,189.05C416.19,191.33 416.49,193.63 416.79,195.91C417.09,198.19 417.4,200.48 417.7,202.75C418,205 418.3,207.24 418.6,209.46C418.9,211.64 419.2,213.82 419.51,215.96C419.81,218.04 420.1,220.1 420.41,222.11C420.71,224.04 421.01,225.95 421.32,227.78C421.61,229.49 421.9,231.18 422.22,232.75C422.51,234.17 422.79,235.57 423.12,236.8C423.4,237.85 423.68,238.87 424.03,239.67C424.3,240.3 424.56,240.95 424.93,241.27C425.2,241.5 425.55,241.66 425.84,241.62C426.15,241.57 426.47,241.24 426.74,240.93C427.08,240.54 427.36,239.96 427.64,239.4C427.96,238.76 428.26,238.03 428.55,237.29C428.86,236.5 429.15,235.65 429.45,234.8C429.76,233.93 430.06,233.02 430.36,232.13C430.66,231.24 430.96,230.32 431.26,229.44C431.56,228.58 431.85,227.72 432.16,226.89C432.46,226.1 432.76,225.31 433.07,224.57C433.36,223.88 433.65,223.2 433.97,222.58C434.26,222.01 434.56,221.46 434.88,220.98C435.17,220.55 435.46,220.14 435.78,219.82C436.06,219.54 436.36,219.28 436.68,219.13C436.97,219 437.29,218.92 437.59,218.93C437.89,218.94 438.2,219.06 438.49,219.21C438.81,219.38 439.11,219.66 439.4,219.95C439.72,220.28 440.01,220.69 440.3,221.12C440.62,221.59 440.92,222.12 441.21,222.67C441.52,223.26 441.82,223.91 442.11,224.56C442.42,225.25 442.71,225.98 443.01,226.72C443.32,227.49 443.62,228.29 443.92,229.09C444.23,229.92 444.52,230.77 444.82,231.62C445.12,232.49 445.43,233.36 445.73,234.24C446.03,235.12 446.33,236.01 446.63,236.89C446.93,237.77 447.23,238.66 447.53,239.53C447.83,240.4 448.14,241.26 448.44,242.11C448.74,242.95 449.04,243.78 449.34,244.6C449.64,245.4 449.95,246.19 450.25,246.97C450.55,247.73 450.85,248.49 451.15,249.23C451.45,249.95 451.74,250.66 452.05,251.35C452.35,252.03 452.65,252.7 452.96,253.35C453.26,253.99 453.55,254.61 453.86,255.23C454.16,255.83 454.47,256.42 454.77,257C455.07,257.57 455.37,258.14 455.67,258.69C455.97,259.24 456.28,259.77 456.58,260.3C456.88,260.82 457.18,261.34 457.48,261.86C457.78,262.37 458.08,262.88 458.38,263.38C458.68,263.88 458.99,264.37 459.29,264.85C459.59,265.32 459.88,265.8 460.19,266.25C460.49,266.69 460.79,267.13 461.1,267.54Q461.39,267.92 462,268.62" style="vector-effect: non-scaling-stroke; fill: none; stroke: rgb(231, 107, 243); stroke-opacity: 1; stroke-width: 2px; opacity: 1;"/></g><g class="points"/><g class="text"/></g></g></g><g class="overplot"/><path class="xlines-above crisp" d="M0,0" style="fill: none;"/><path class="ylines-above crisp" d="M0,0" style="fill: none;"/><g class="overlines-above"/><g class="xaxislayer-above"><g class="xtick"><text text-anchor="middle" x="0" y="433" transform="translate(80,0)" style="font-family: 'Open Sans', verdana, arial, sans-serif; font-size: 12px; fill: rgb(42, 63, 95); fill-opacity: 1; white-space: pre;">0</text></g><g class="xtick"><text text-anchor="middle" x="0" y="433" transform="translate(170.23000000000002,0)" style="font-family: 'Open Sans', verdana, arial, sans-serif; font-size: 12px; fill: rgb(42, 63, 95); fill-opacity: 1; white-space: pre;">100</text></g><g class="xtick"><text text-anchor="middle" x="0" y="433" transform="translate(260.47,0)" style="font-family: 'Open Sans', verdana, arial, sans-serif; font-size: 12px; fill: rgb(42, 63, 95); fill-opacity: 1; white-space: pre;">200</text></g><g class="xtick"><text text-anchor="middle" x="0" y="433" transform="translate(350.7,0)" style="font-family: 'Open Sans', verdana, arial, sans-serif; font-size: 12px; fill: rgb(42, 63, 95); fill-opacity: 1; white-space: pre;">300</text></g><g class="xtick"><text text-anchor="middle" x="0" y="433" transform="translate(440.94,0)" style="font-family: 'Open Sans', verdana, arial, sans-serif; font-size: 12px; fill: rgb(42, 63, 95); fill-opacity: 1; white-space: pre;">400</text></g><g class="xtick"><text text-anchor="middle" x="0" y="433" transform="translate(531.1700000000001,0)" style="font-family: 'Open Sans', verdana, arial, sans-serif; font-size: 12px; fill: rgb(42, 63, 95); fill-opacity: 1; white-space: pre;">500</text></g></g><g class="yaxislayer-above"><g class="ytick"><text text-anchor="end" x="79" y="4.199999999999999" transform="translate(0,397.67)" style="font-family: 'Open Sans', verdana, arial, sans-serif; font-size: 12px; fill: rgb(42, 63, 95); fill-opacity: 1; white-space: pre;">200</text></g><g class="ytick"><text text-anchor="end" x="79" y="4.199999999999999" transform="translate(0,359.86)" style="font-family: 'Open Sans', verdana, arial, sans-serif; font-size: 12px; fill: rgb(42, 63, 95); fill-opacity: 1; white-space: pre;">300</text></g><g class="ytick"><text text-anchor="end" x="79" y="4.199999999999999" transform="translate(0,322.05)" style="font-family: 'Open Sans', verdana, arial, sans-serif; font-size: 12px; fill: rgb(42, 63, 95); fill-opacity: 1; white-space: pre;">400</text></g><g class="ytick"><text text-anchor="end" x="79" y="4.199999999999999" transform="translate(0,284.24)" style="font-family: 'Open Sans', verdana, arial, sans-serif; font-size: 12px; fill: rgb(42, 63, 95); fill-opacity: 1; white-space: pre;">500</text></g><g class="ytick"><text text-anchor="end" x="79" y="4.199999999999999" transform="translate(0,246.43)" style="font-family: 'Open Sans', verdana, arial, sans-serif; font-size: 12px; fill: rgb(42, 63, 95); fill-opacity: 1; white-space: pre;">600</text></g><g class="ytick"><text text-anchor="end" x="79" y="4.199999999999999" transform="translate(0,208.62)" style="font-family: 'Open Sans', verdana, arial, sans-serif; font-size: 12px; fill: rgb(42, 63, 95); fill-opacity: 1; white-space: pre;">700</text></g><g class="ytick"><text text-anchor="end" x="79" y="4.199999999999999" transform="translate(0,170.81)" style="font-family: 'Open Sans', verdana, arial, sans-serif; font-size: 12px; fill: rgb(42, 63, 95); fill-opacity: 1; white-space: pre;">800</text></g><g class="ytick"><text text-anchor="end" x="79" y="4.199999999999999" transform="translate(0,133)" style="font-family: 'Open Sans', verdana, arial, sans-serif; font-size: 12px; fill: rgb(42, 63, 95); fill-opacity: 1; white-space: pre;">900</text></g></g><g class="overaxes-above"/></g></g><g class="polarlayer"/><g class="ternarylayer"/><g class="geolayer"/><g class="funnelarealayer"/><g class="pielayer"/><g class="treemaplayer"/><g class="sunburstlayer"/><g class="glimages"/><defs id="topdefs-f4583d"><g class="clips"/><clipPath id="legendf4583d"><rect width="137" height="67" x="0" y="0"/></clipPath></defs><g class="layer-above"><g class="imagelayer"/><g class="shapelayer"/></g><g class="infolayer"><g class="legend" pointer-events="all" transform="translate(551.24, 100)"><rect class="bg" shape-rendering="crispEdges" width="137" height="67" x="0" y="0" style="stroke: rgb(68, 68, 68); stroke-opacity: 1; fill: rgb(255, 255, 255); fill-opacity: 1; stroke-width: 0px;"/><g class="scrollbox" transform="translate(0, 0)" clip-path="url('#legendf4583d')"><g class="groups"><g class="traces" transform="translate(0, 14.5)" style="opacity: 1;"><text class="legendtext" text-anchor="start" x="40" y="4.680000000000001" style="font-family: 'Open Sans', verdana, arial, sans-serif; font-size: 12px; fill: rgb(42, 63, 95); fill-opacity: 1; white-space: pre;">Average Class I</text><g class="layers" style="opacity: 1;"><g class="legendfill"/><g class="legendlines"><path class="js-line" d="M5,0h30" style="fill: none; stroke: rgb(0, 100, 80); stroke-opacity: 1; stroke-width: 2px;"/></g><g class="legendsymbols"><g class="legendpoints"/></g></g><rect class="legendtoggle" x="0" y="-9.5" width="131.15625" height="19" style="fill: rgb(0, 0, 0); fill-opacity: 0;"/></g><g class="traces" transform="translate(0, 33.5)" style="opacity: 1;"><text class="legendtext" text-anchor="start" x="40" y="4.680000000000001" style="font-family: 'Open Sans', verdana, arial, sans-serif; font-size: 12px; fill: rgb(42, 63, 95); fill-opacity: 1; white-space: pre;">Average Class II</text><g class="layers" style="opacity: 1;"><g class="legendfill"/><g class="legendlines"><path class="js-line" d="M5,0h30" style="fill: none; stroke: rgb(0, 176, 246); stroke-opacity: 1; stroke-width: 2px;"/></g><g class="legendsymbols"><g class="legendpoints"/></g></g><rect class="legendtoggle" x="0" y="-9.5" width="131.15625" height="19" style="fill: rgb(0, 0, 0); fill-opacity: 0;"/></g><g class="traces" transform="translate(0, 52.5)" style="opacity: 1;"><text class="legendtext" text-anchor="start" x="40" y="4.680000000000001" style="font-family: 'Open Sans', verdana, arial, sans-serif; font-size: 12px; fill: rgb(42, 63, 95); fill-opacity: 1; white-space: pre;">Average Class III</text><g class="layers" style="opacity: 1;"><g class="legendfill"/><g class="legendlines"><path class="js-line" d="M5,0h30" style="fill: none; stroke: rgb(231, 107, 243); stroke-opacity: 1; stroke-width: 2px;"/></g><g class="legendsymbols"><g class="legendpoints"/></g></g><rect class="legendtoggle" x="0" y="-9.5" width="131.15625" height="19" style="fill: rgb(0, 0, 0); fill-opacity: 0;"/></g></g></g><rect class="scrollbar" rx="20" ry="3" width="0" height="0" x="0" y="0" style="fill: rgb(128, 139, 164); fill-opacity: 1;"/></g><g class="g-gtitle"><text class="gtitle" x="35" y="50" text-anchor="start" dy="0em" style="font-family: 'Open Sans', verdana, arial, sans-serif; font-size: 17px; fill: rgb(42, 63, 95); opacity: 1; font-weight: normal; white-space: pre;">Average curve: volume_group</text></g><g class="g-xtitle"><text class="xtitle" x="311" y="460.8" text-anchor="middle" style="font-family: 'Open Sans', verdana, arial, sans-serif; font-size: 14px; fill: rgb(42, 63, 95); opacity: 1; font-weight: normal; white-space: pre;">Domain</text></g><g class="g-ytitle"><text class="ytitle" transform="rotate(-90,34.16875,260)" x="34.16875" y="260" text-anchor="middle" style="font-family: 'Open Sans', verdana, arial, sans-serif; font-size: 14px; fill: rgb(42, 63, 95); opacity: 1; font-weight: normal; white-space: pre;">Frequency</text></g></g></svg>