<svg class="main-svg" xmlns="http://www.w3.org/2000/svg" xmlns:xlink="http://www.w3.org/1999/xlink" width="700" height="500" style="" viewBox="0 0 700 500"><rect x="0" y="0" width="700" height="500" style="fill: rgb(255, 255, 255); fill-opacity: 1;"/><defs id="defs-728849"><g class="clips"><clipPath id="clip728849xyplot" class="plotclip"><rect width="462" height="320"/></clipPath><clipPath class="axesclip" id="clip728849x"><rect x="80" y="0" width="462" height="500"/></clipPath><clipPath class="axesclip" id="clip728849y"><rect x="0" y="100" width="700" height="320"/></clipPath><clipPath class="axesclip" id="clip728849xy"><rect x="80" y="100" width="462" height="320"/></clipPath></g><g class="gradients"/></defs><g class="bglayer"><rect class="bg" x="80" y="100" width="462" height="320" style="fill: rgb(229, 236, 246); fill-opacity: 1; stroke-width: 0;"/></g><g class="layer-below"><g class="imagelayer"/><g class="shapelayer"/></g><g class="cartesianlayer"><g class="subplot xy"><g class="layer-subplot"><g class="shapelayer"/><g class="imagelayer"/></g><g class="gridlayer"><g class="x"><path class="xgrid crisp" transform="translate(170.23000000000002,0)" d="M0,100v320" style="stroke: rgb(255, 255, 255); stroke-opacity: 1; stroke-width: 1px;"/><path class="xgrid crisp" transform="translate(260.47,0)" d="M0,100v320" style="stroke: rgb(255, 255, 255); stroke-opacity: 1; stroke-width: 1px;"/><path class="xgrid crisp" transform="translate(350.7,0)" d="M0,100v320" style="stroke: rgb(255, 255, 255); stroke-opacity: 1; stroke-width: 1px;"/><path class="xgrid crisp" transform="translate(440.94,0)" d="M0,100v320" style="stroke: rgb(255, 255, 255); stroke-opacity: 1; stroke-width: 1px;"/><path class="xgrid crisp" transform="translate(531.1700000000001,0)" d="M0,100v320" style="stroke: rgb(255, 255, 255); stroke-opacity: 1; stroke-width: 1px;"/></g><g class="y"><path class="ygrid crisp" transform="translate(0,397.22)" d="M80,0h462" style="stroke: rgb(255, 255, 255); stroke-opacity: 1; stroke-width: 1px;"/><path class="ygrid crisp" transform="translate(0,360.2)" d="M80,0h462" style="stroke: rgb(255, 255, 255); stroke-opacity: 1; stroke-width: 1px;"/><path class="ygrid crisp" transform="translate(0,323.16999999999996)" d="M80,0h462" style="stroke: rgb(255, 255, 255); stroke-opacity: 1; stroke-width: 1px;"/><path class="ygrid crisp" transform="translate(0,286.15)" d="M80,0h462" style="stroke: rgb(255, 255, 255); stroke-opacity: 1; stroke-width: 1px;"/><path class="ygrid crisp" transform="translate(0,249.13)" d="M80,0h462" style="stroke: rgb(255, 255, 255); stroke-opacity: 1; stroke-width: 1px;"/><path class="ygrid crisp" transform="translate(0,212.1)" d="M80,0h462" style="stroke: rgb(255, 255, 255); stroke-opacity: 1; stroke-width: 1px;"/><path class="ygrid crisp" transform="translate(0,175.07999999999998)" d="M80,0h462" style="stroke: rgb(255, 255, 255); stroke-opacity: 1; stroke-width: 1px;"/><path class="ygrid crisp" transform="translate(0,138.05)" d="M80,0h462" style="stroke: rgb(255, 255, 255); stroke-opacity: 1; stroke-width: 1px;"/><path class="ygrid crisp" transform="translate(0,101.03)" d="M80,0h462" style="stroke: rgb(255, 255, 255); stroke-opacity: 1; stroke-width: 1px;"/></g></g><g class="zerolinelayer"><path class="xzl zl crisp" transform="translate(80,0)" d="M0,100v320" style="stroke: rgb(255, 255, 255); stroke-opacity: 1; stroke-width: 2px;"/></g><path class="xlines-below"/><path class="ylines-below"/><g class="overlines-below"/><g class="xaxislayer-below"/><g class="yaxislayer-below"/><g class="overaxes-below"/><g class="plot" transform="translate(80, 100)" clip-path="url('#clip728849xyplot')"><g class="scatterlayer mlayer"><g class="trace scatter trace3e2aea" style="stroke-miterlimit: 2; opacity: 1;"><g class="fills"/><g class="errorbars"/><g class="lines"><path class="js-line" d="M0,95.05Q0.62,95.2 0.9,95.4C1.23,95.64 1.53,96.04 1.81,96.45C2.14,96.94 2.43,97.56 2.71,98.19C3.03,98.92 3.33,99.73 3.62,100.58C3.94,101.52 4.23,102.54 4.52,103.59C4.83,104.72 5.13,105.92 5.42,107.14C5.73,108.44 6.03,109.8 6.33,111.17C6.64,112.6 6.93,114.08 7.23,115.57C7.54,117.1 7.84,118.67 8.14,120.23C8.44,121.82 8.74,123.42 9.04,125.02C9.34,126.62 9.65,128.23 9.95,129.81C10.25,131.36 10.54,132.93 10.85,134.43C11.14,135.87 11.43,137.32 11.75,138.65C12.04,139.86 12.34,141.02 12.66,142.08C12.95,143.02 13.24,143.91 13.56,144.72C13.84,145.43 14.14,146.1 14.47,146.68C14.75,147.17 15.04,147.64 15.37,147.99C15.65,148.29 15.95,148.54 16.27,148.69C16.56,148.82 16.88,148.88 17.18,148.87C17.48,148.86 17.79,148.76 18.08,148.64C18.39,148.52 18.69,148.32 18.99,148.13C19.3,147.94 19.59,147.71 19.89,147.5C20.19,147.3 20.48,147.07 20.79,146.9C21.09,146.73 21.39,146.57 21.7,146.48C21.99,146.39 22.3,146.33 22.6,146.36C22.91,146.39 23.23,146.5 23.51,146.68C23.83,146.88 24.13,147.21 24.41,147.56C24.74,147.98 25.04,148.51 25.32,149.08C25.65,149.75 25.94,150.52 26.22,151.33C26.54,152.26 26.83,153.3 27.12,154.38C27.44,155.59 27.74,156.9 28.03,158.26C28.35,159.76 28.64,161.35 28.93,163C29.24,164.79 29.55,166.67 29.84,168.61C30.15,170.69 30.45,172.85 30.74,175.07C31.05,177.42 31.35,179.86 31.64,182.35C31.95,184.97 32.25,187.67 32.55,190.41C32.86,193.27 33.15,196.21 33.45,199.18C33.76,202.26 34.06,205.4 34.36,208.58C34.67,211.84 34.96,215.16 35.26,218.49C35.56,221.88 35.86,225.31 36.16,228.73C36.46,232.17 36.77,235.63 37.07,239.09C37.37,242.56 37.67,246.04 37.97,249.51C38.27,252.97 38.58,256.45 38.88,259.86C39.18,263.2 39.47,266.57 39.78,269.77C40.07,272.79 40.37,275.74 40.68,278.55C40.97,281.16 41.26,283.77 41.59,286.09C41.87,288.09 42.16,289.97 42.49,291.65C42.77,293.06 43.04,294.45 43.4,295.5C43.67,296.28 43.94,297.38 44.3,297.46C44.57,297.52 44.95,297.09 45.21,296.72C45.61,296.16 45.84,295.15 46.11,294.19C46.45,292.97 46.73,291.48 47.01,289.97C47.34,288.23 47.63,286.29 47.92,284.35C48.23,282.26 48.52,280.05 48.82,277.83C49.13,275.51 49.43,273.1 49.73,270.72C50.03,268.31 50.33,265.86 50.63,263.45C50.93,261.05 51.23,258.65 51.53,256.28C51.83,253.94 52.14,251.64 52.44,249.33C52.74,247.04 53.04,244.75 53.34,242.47C53.64,240.19 53.94,237.89 54.25,235.65C54.55,233.47 54.84,231.31 55.15,229.21C55.44,227.2 55.74,225.22 56.05,223.3C56.35,221.47 56.65,219.67 56.96,217.93C57.25,216.28 57.55,214.66 57.86,213.1C58.15,211.63 58.46,210.19 58.77,208.81C59.06,207.51 59.36,206.25 59.67,205.05C59.96,203.93 60.26,202.85 60.58,201.83C60.87,200.89 61.16,199.99 61.48,199.15C61.77,198.39 62.06,197.67 62.38,197.02C62.67,196.44 62.96,195.88 63.29,195.41C63.57,195 63.86,194.62 64.19,194.34C64.47,194.1 64.78,193.89 65.1,193.79C65.39,193.7 65.71,193.68 66,193.75C66.31,193.82 66.62,194.01 66.9,194.24C67.23,194.5 67.53,194.88 67.81,195.28C68.14,195.74 68.43,196.3 68.71,196.88C69.03,197.54 69.33,198.28 69.62,199.05C69.94,199.91 70.23,200.84 70.52,201.81C70.83,202.87 71.13,203.99 71.42,205.15C71.73,206.39 72.04,207.7 72.33,209.04C72.64,210.47 72.94,211.95 73.23,213.47C73.54,215.06 73.84,216.71 74.14,218.38C74.45,220.13 74.74,221.92 75.04,223.74C75.35,225.62 75.65,227.54 75.95,229.48C76.26,231.47 76.55,233.49 76.85,235.52C77.15,237.57 77.45,239.64 77.75,241.7C78.05,243.75 78.36,245.8 78.66,247.84C78.96,249.87 79.26,251.91 79.56,253.93C79.86,255.94 80.17,257.95 80.47,259.94C80.77,261.91 81.07,263.87 81.37,265.8C81.67,267.68 81.96,269.55 82.27,271.36C82.57,273.1 82.87,274.83 83.18,276.47C83.47,278.01 83.76,279.53 84.08,280.92C84.37,282.17 84.65,283.43 84.99,284.46C85.27,285.3 85.5,286.22 85.89,286.69C86.15,287 86.5,287.3 86.79,287.27C87.1,287.24 87.43,286.8 87.7,286.43C88.05,285.96 88.32,285.27 88.6,284.57C88.93,283.73 89.23,282.75 89.51,281.73C89.83,280.56 90.12,279.26 90.41,277.94C90.72,276.51 91.03,275.02 91.32,273.47C91.63,271.8 91.93,270.04 92.22,268.25C92.53,266.37 92.82,264.43 93.12,262.46C93.43,260.42 93.73,258.34 94.03,256.22C94.34,254.01 94.63,251.75 94.93,249.45C95.24,247.06 95.54,244.61 95.84,242.15C96.15,239.64 96.44,237.07 96.74,234.52C97.04,231.97 97.34,229.4 97.64,226.87C97.94,224.38 98.24,221.91 98.55,219.48C98.85,217.12 99.14,214.79 99.45,212.51C99.75,210.31 100.05,208.14 100.36,206.03C100.65,204.02 100.95,202.04 101.26,200.13C101.55,198.32 101.85,196.54 102.16,194.84C102.45,193.24 102.76,191.68 103.07,190.2C103.36,188.83 103.65,187.49 103.97,186.24C104.26,185.1 104.56,183.99 104.88,182.98C105.17,182.09 105.45,181.23 105.78,180.49C106.06,179.86 106.34,179.24 106.68,178.8C106.96,178.44 107.26,178.08 107.59,177.96C107.87,177.86 108.21,177.88 108.49,178C108.82,178.15 109.12,178.54 109.4,178.93C109.74,179.42 110.02,180.08 110.3,180.76C110.63,181.57 110.92,182.51 111.21,183.48C111.53,184.58 111.82,185.79 112.11,187.05C112.43,188.44 112.72,189.92 113.01,191.45C113.32,193.1 113.63,194.84 113.92,196.62C114.23,198.51 114.53,200.48 114.82,202.48C115.13,204.59 115.43,206.76 115.73,208.97C116.04,211.26 116.33,213.61 116.63,215.98C116.93,218.41 117.23,220.89 117.53,223.38C117.83,225.91 118.14,228.46 118.44,231.02C118.74,233.59 119.04,236.19 119.34,238.76C119.64,241.32 119.94,243.89 120.25,246.41C120.55,248.87 120.84,251.34 121.15,253.71C121.44,255.95 121.73,258.2 122.05,260.25C122.34,262.07 122.63,263.86 122.96,265.41C123.24,266.7 123.52,267.9 123.86,268.94C124.14,269.8 124.44,270.58 124.77,271.25C125.05,271.81 125.34,272.32 125.67,272.72C125.95,273.05 126.26,273.36 126.58,273.53C126.86,273.68 127.18,273.77 127.48,273.77C127.78,273.77 128.1,273.66 128.38,273.5C128.7,273.32 129.01,273.01 129.29,272.67C129.62,272.27 129.91,271.76 130.19,271.21C130.52,270.57 130.81,269.83 131.1,269.06C131.42,268.2 131.71,267.24 132,266.28C132.31,265.27 132.6,264.22 132.9,263.17C133.2,262.11 133.51,261.02 133.81,259.95C134.11,258.88 134.41,257.81 134.71,256.75C135.01,255.71 135.31,254.67 135.62,253.66C135.92,252.67 136.21,251.69 136.52,250.74C136.82,249.82 137.11,248.91 137.42,248.03C137.72,247.18 138.02,246.35 138.33,245.53C138.63,244.74 138.93,243.96 139.23,243.19C139.53,242.43 139.84,241.68 140.14,240.92C140.44,240.16 140.74,239.4 141.04,238.63C141.34,237.84 141.65,237.05 141.95,236.24C142.26,235.41 142.55,234.56 142.85,233.69C143.15,232.8 143.45,231.89 143.75,230.97C144.06,230.03 144.36,229.07 144.66,228.1C144.96,227.11 145.26,226.11 145.56,225.1C145.86,224.08 146.17,223.05 146.47,222.03C146.77,221 147.07,219.97 147.37,218.95C147.67,217.93 147.97,216.9 148.27,215.9C148.57,214.91 148.87,213.93 149.18,212.98C149.48,212.06 149.77,211.15 150.08,210.27C150.37,209.44 150.68,208.61 150.99,207.84C151.28,207.12 151.57,206.42 151.89,205.78C152.18,205.2 152.47,204.64 152.79,204.16C153.08,203.74 153.38,203.34 153.7,203.03C153.98,202.76 154.29,202.54 154.6,202.38C154.89,202.23 155.2,202.11 155.51,202.08C155.81,202.05 156.12,202.07 156.41,202.19C156.73,202.32 157.04,202.59 157.32,202.89C157.65,203.24 157.94,203.71 158.22,204.21C158.55,204.78 158.83,205.46 159.12,206.16C159.44,206.95 159.74,207.82 160.03,208.73C160.35,209.73 160.64,210.8 160.93,211.91C161.24,213.11 161.55,214.37 161.84,215.66C162.15,217.04 162.45,218.47 162.74,219.94C163.05,221.48 163.34,223.08 163.64,224.7C163.95,226.37 164.25,228.11 164.55,229.82C164.85,231.55 165.15,233.27 165.45,235.02C165.76,236.81 166.06,238.63 166.36,240.47C166.67,242.37 166.96,244.3 167.26,246.26C167.56,248.27 167.86,250.32 168.16,252.39C168.47,254.5 168.77,256.65 169.07,258.81C169.37,260.99 169.67,263.21 169.97,265.41C170.27,267.62 170.58,269.85 170.88,272.06C171.18,274.26 171.48,276.47 171.78,278.63C172.08,280.73 172.37,282.79 172.68,284.83C172.98,286.81 173.28,288.78 173.59,290.69C173.89,292.53 174.18,294.37 174.49,296.11C174.78,297.74 175.06,299.42 175.4,300.83C175.68,302 175.83,303.75 176.3,304C176.55,304.13 176.96,303.97 177.21,303.69C177.75,303.08 177.83,300.94 178.11,299.37C178.44,297.5 178.72,295.36 179.01,293.21C179.33,290.86 179.63,288.38 179.92,285.82C180.23,283.06 180.53,280.17 180.82,277.22C181.13,274.11 181.43,270.86 181.73,267.61C182.04,264.25 182.33,260.81 182.63,257.38C182.93,253.9 183.23,250.38 183.53,246.87C183.83,243.35 184.14,239.82 184.44,236.31C184.74,232.82 185.04,229.32 185.34,225.85C185.64,222.41 185.95,218.98 186.25,215.57C186.55,212.21 186.85,208.86 187.15,205.54C187.45,202.28 187.75,199.03 188.05,195.83C188.35,192.69 188.65,189.58 188.96,186.51C189.26,183.51 189.55,180.54 189.86,177.62C190.16,174.78 190.46,171.99 190.77,169.24C191.07,166.59 191.36,163.97 191.67,161.41C191.97,158.95 192.27,156.53 192.58,154.18C192.88,151.93 193.17,149.72 193.48,147.58C193.77,145.55 194.07,143.58 194.38,141.67C194.67,139.88 194.98,138.13 195.29,136.47C195.58,134.93 195.87,133.43 196.19,132.03C196.48,130.75 196.78,129.51 197.1,128.38C197.39,127.37 197.67,126.4 198,125.55C198.28,124.82 198.56,124.12 198.9,123.58C199.18,123.14 199.47,122.69 199.81,122.49C200.08,122.33 200.43,122.25 200.71,122.32C201.03,122.41 201.35,122.75 201.62,123.09C201.97,123.53 202.24,124.17 202.52,124.82C202.85,125.61 203.14,126.55 203.42,127.53C203.75,128.66 204.04,129.91 204.33,131.22C204.65,132.69 204.94,134.27 205.23,135.91C205.55,137.71 205.85,139.61 206.14,141.58C206.45,143.7 206.75,145.93 207.04,148.22C207.35,150.66 207.66,153.2 207.95,155.8C208.26,158.55 208.56,161.39 208.85,164.29C209.16,167.33 209.45,170.46 209.75,173.64C210.06,176.95 210.36,180.35 210.66,183.79C210.97,187.35 211.26,190.99 211.56,194.66C211.87,198.43 212.17,202.26 212.47,206.11C212.77,210.03 213.07,214.01 213.37,217.97C213.67,221.94 213.96,225.97 214.27,229.89C214.57,233.7 214.86,237.61 215.18,241.18C215.47,244.42 215.73,247.71 216.08,250.42C216.35,252.56 216.47,255.04 216.99,256.13C217.24,256.66 217.64,257.21 217.89,257.14C218.33,257.03 218.52,254.7 218.79,253.18C219.15,251.15 219.41,248.55 219.7,246.03C220.02,243.22 220.31,240.14 220.6,237.09C220.91,233.89 221.21,230.57 221.51,227.25C221.82,223.86 222.11,220.4 222.41,216.95C222.71,213.47 223.02,209.96 223.32,206.45C223.62,202.94 223.92,199.4 224.22,195.89C224.52,192.4 224.82,188.9 225.12,185.44C225.42,182.02 225.73,178.6 226.03,175.23C226.33,171.91 226.62,168.62 226.93,165.37C227.23,162.2 227.53,159.05 227.84,155.97C228.14,152.98 228.43,150.02 228.74,147.13C229.03,144.35 229.33,141.6 229.64,138.94C229.94,136.4 230.24,133.9 230.55,131.49C230.84,129.22 231.14,127 231.45,124.88C231.74,122.91 232.04,120.98 232.36,119.17C232.65,117.52 232.94,115.91 233.26,114.44C233.54,113.14 233.83,111.87 234.16,110.77C234.44,109.83 234.72,108.92 235.07,108.22C235.34,107.68 235.61,107.1 235.97,106.86C236.24,106.68 236.6,106.6 236.88,106.7C237.22,106.82 237.51,107.31 237.78,107.76C238.14,108.36 238.4,109.2 238.68,110.06C239.02,111.1 239.31,112.31 239.59,113.57C239.92,115.02 240.2,116.62 240.49,118.27C240.81,120.11 241.11,122.08 241.4,124.11C241.72,126.32 242.01,128.66 242.3,131.05C242.61,133.61 242.92,136.28 243.21,139.01C243.52,141.89 243.82,144.87 244.11,147.9C244.42,151.07 244.71,154.33 245.01,157.62C245.32,161.03 245.62,164.51 245.92,168.01C246.23,171.59 246.52,175.23 246.82,178.87C247.12,182.54 247.43,186.26 247.73,189.93C248.03,193.57 248.32,197.25 248.63,200.82C248.92,204.26 249.21,207.75 249.53,210.97C249.82,213.91 250.07,217.06 250.44,219.4C250.71,221.08 250.79,223.26 251.34,223.71C251.59,223.92 252,223.92 252.25,223.72C252.79,223.29 252.88,221.19 253.15,219.63C253.5,217.57 253.77,214.98 254.05,212.41C254.38,209.46 254.67,206.19 254.96,202.89C255.27,199.33 255.56,195.57 255.86,191.79C256.17,187.85 256.47,183.77 256.77,179.72C257.07,175.6 257.37,171.43 257.67,167.28C257.97,163.13 258.28,158.96 258.58,154.84C258.88,150.77 259.18,146.7 259.48,142.7C259.78,138.79 260.07,134.9 260.38,131.09C260.68,127.4 260.98,123.76 261.29,120.2C261.59,116.78 261.88,113.42 262.19,110.16C262.48,107.06 262.79,104.01 263.1,101.08C263.39,98.32 263.69,95.62 264,93.04C264.29,90.64 264.58,88.3 264.9,86.09C265.19,84.07 265.49,82.11 265.81,80.29C266.1,78.65 266.38,77.08 266.71,75.65C266.99,74.4 267.28,73.2 267.62,72.17C267.9,71.32 268.17,70.49 268.52,69.87C268.79,69.4 269.07,68.89 269.42,68.72C269.69,68.59 270.06,68.59 270.33,68.72C270.68,68.89 270.96,69.39 271.23,69.86C271.58,70.47 271.86,71.3 272.14,72.15C272.47,73.16 272.76,74.33 273.04,75.54C273.36,76.92 273.66,78.45 273.95,80.02C274.27,81.76 274.56,83.61 274.85,85.52C275.16,87.58 275.46,89.75 275.75,91.97C276.06,94.32 276.36,96.76 276.66,99.24C276.97,101.83 277.26,104.51 277.56,107.2C277.87,109.97 278.17,112.8 278.47,115.62C278.77,118.47 279.06,121.4 279.37,124.21C279.66,126.92 279.96,129.63 280.27,132.19C280.56,134.58 280.86,136.91 281.18,139.09C281.47,141.07 281.74,143.03 282.08,144.73C282.36,146.14 282.61,147.57 282.99,148.58C283.25,149.28 283.52,150.16 283.89,150.29C284.15,150.38 284.53,150.15 284.79,149.89C285.19,149.49 285.42,148.56 285.7,147.76C286.04,146.79 286.31,145.6 286.6,144.44C286.92,143.18 287.21,141.81 287.51,140.48C287.81,139.12 288.1,137.71 288.41,136.36C288.71,135.04 289.01,133.71 289.32,132.45C289.61,131.27 289.9,130.11 290.22,129.05C290.51,128.1 290.79,127.17 291.12,126.37C291.4,125.7 291.68,125.03 292.03,124.56C292.3,124.19 292.6,123.8 292.93,123.7C293.21,123.61 293.57,123.69 293.84,123.85C294.19,124.06 294.47,124.56 294.74,125.03C295.08,125.62 295.36,126.4 295.64,127.19C295.97,128.12 296.26,129.19 296.55,130.28C296.87,131.5 297.16,132.81 297.45,134.16C297.76,135.61 298.07,137.14 298.36,138.69C298.67,140.33 298.96,142.03 299.26,143.75C299.57,145.53 299.86,147.35 300.16,149.18C300.46,151.04 300.77,152.92 301.07,154.8C301.37,156.7 301.67,158.61 301.97,160.51C302.27,162.41 302.58,164.32 302.88,166.21C303.18,168.09 303.48,169.97 303.78,171.83C304.08,173.67 304.38,175.51 304.68,177.33C304.98,179.13 305.29,180.93 305.59,182.71C305.89,184.46 306.19,186.2 306.49,187.92C306.79,189.61 307.1,191.3 307.4,192.96C307.7,194.59 307.99,196.21 308.3,197.8C308.6,199.35 308.9,200.9 309.21,202.4C309.51,203.84 309.8,205.28 310.11,206.64C310.4,207.91 310.69,209.16 311.01,210.32C311.3,211.36 311.6,212.37 311.92,213.28C312.2,214.08 312.49,214.84 312.82,215.49C313.1,216.04 313.4,216.56 313.73,216.95C314.01,217.28 314.31,217.58 314.63,217.73C314.91,217.86 315.23,217.91 315.53,217.88C315.84,217.85 316.15,217.69 316.44,217.53C316.75,217.35 317.05,217.09 317.34,216.83C317.65,216.56 317.95,216.25 318.25,215.95C318.55,215.65 318.84,215.33 319.15,215.05C319.44,214.78 319.74,214.5 320.05,214.29C320.34,214.09 320.65,213.91 320.96,213.8C321.25,213.7 321.56,213.64 321.86,213.65C322.16,213.66 322.48,213.76 322.77,213.89C323.08,214.03 323.38,214.27 323.67,214.51C323.98,214.77 324.29,215.08 324.58,215.39C324.89,215.72 325.19,216.08 325.48,216.45C325.79,216.84 326.08,217.25 326.38,217.67C326.69,218.1 326.98,218.57 327.29,219C327.59,219.42 327.88,219.83 328.19,220.22C328.49,220.6 328.79,220.98 329.1,221.34C329.4,221.69 329.7,222.01 330,222.34C330.3,222.66 330.61,222.96 330.9,223.3C331.21,223.65 331.52,224.02 331.81,224.42C332.12,224.84 332.42,225.29 332.71,225.75C333.02,226.24 333.32,226.75 333.62,227.27C333.93,227.81 334.23,228.37 334.52,228.94C334.83,229.53 335.13,230.14 335.42,230.77C335.73,231.44 336.04,232.14 336.33,232.86C336.64,233.62 336.94,234.42 337.23,235.24C337.54,236.1 337.84,237 338.14,237.9C338.45,238.83 338.74,239.79 339.04,240.75C339.34,241.72 339.65,242.72 339.95,243.7C340.25,244.68 340.54,245.67 340.85,246.62C341.14,247.52 341.43,248.44 341.75,249.26C342.04,249.99 342.33,250.72 342.66,251.3C342.94,251.79 343.22,252.26 343.56,252.56C343.84,252.81 344.16,252.95 344.47,253.07C344.76,253.18 345.07,253.22 345.37,253.25C345.67,253.28 345.97,253.23 346.27,253.23C346.57,253.23 346.88,253.2 347.18,253.23C347.48,253.26 347.79,253.31 348.08,253.41C348.39,253.52 348.7,253.68 348.99,253.88C349.3,254.09 349.6,254.38 349.89,254.65C350.2,254.93 350.49,255.24 350.79,255.55C351.09,255.86 351.4,256.19 351.7,256.5C352,256.81 352.29,257.14 352.6,257.4C352.89,257.65 353.19,257.95 353.51,258.04C353.8,258.12 354.14,258.15 354.41,258C354.77,257.79 355.05,257.17 355.32,256.61C355.68,255.87 355.94,254.89 356.22,253.89C356.55,252.69 356.84,251.3 357.12,249.86C357.45,248.2 357.74,246.38 358.03,244.49C358.35,242.4 358.64,240.18 358.93,237.86C359.25,235.3 359.55,232.57 359.84,229.77C360.15,226.74 360.45,223.55 360.74,220.32C361.05,216.92 361.34,213.39 361.64,209.85C361.95,206.2 362.25,202.46 362.55,198.72C362.85,194.92 363.15,191.07 363.45,187.21C363.75,183.31 364.06,179.4 364.36,175.44C364.66,171.39 364.96,167.28 365.26,163.17C365.56,159.02 365.86,154.8 366.16,150.64C366.46,146.51 366.77,142.38 367.07,138.3C367.37,134.28 367.66,130.29 367.97,126.35C368.27,122.51 368.57,118.7 368.88,114.96C369.18,111.34 369.47,107.76 369.78,104.27C370.07,100.91 370.37,97.6 370.68,94.39C370.97,91.33 371.28,88.33 371.59,85.43C371.88,82.7 372.18,80.03 372.49,77.48C372.78,75.1 373.08,72.79 373.4,70.6C373.69,68.6 373.98,66.66 374.3,64.86C374.59,63.25 374.88,61.7 375.21,60.31C375.49,59.11 375.77,57.94 376.11,56.97C376.38,56.18 376.65,55.4 377.01,54.89C377.28,54.51 377.6,54.11 377.92,54.06C378.21,54.02 378.55,54.24 378.82,54.49C379.19,54.84 379.46,55.52 379.73,56.17C380.08,57 380.35,58.03 380.63,59.09C380.96,60.33 381.24,61.73 381.53,63.19C381.85,64.83 382.15,66.61 382.44,68.45C382.76,70.46 383.05,72.59 383.34,74.78C383.65,77.13 383.96,79.6 384.25,82.12C384.56,84.78 384.86,87.54 385.15,90.34C385.46,93.26 385.75,96.26 386.05,99.29C386.36,102.42 386.66,105.61 386.96,108.83C387.27,112.12 387.56,115.46 387.86,118.82C388.16,122.24 388.47,125.7 388.77,129.16C389.07,132.64 389.37,136.17 389.67,139.65C389.97,143.09 390.27,146.61 390.58,149.93C390.87,153.05 391.15,156.23 391.48,159C391.76,161.35 392.03,163.64 392.38,165.5C392.65,166.93 392.87,168.38 393.29,169.25C393.55,169.79 393.87,170.38 394.19,170.42C394.48,170.45 394.82,170.01 395.1,169.68C395.44,169.27 395.71,168.65 396,168.09C396.31,167.49 396.6,166.83 396.9,166.21C397.2,165.59 397.5,164.95 397.81,164.36C398.1,163.81 398.39,163.25 398.71,162.77C399,162.33 399.29,161.9 399.62,161.57C399.9,161.29 400.2,161.01 400.52,160.88C400.81,160.76 401.13,160.71 401.42,160.76C401.73,160.82 402.05,161.02 402.33,161.25C402.66,161.52 402.95,161.93 403.23,162.35C403.56,162.85 403.85,163.45 404.14,164.08C404.46,164.79 404.75,165.58 405.04,166.4C405.36,167.3 405.66,168.27 405.95,169.26C406.26,170.33 406.56,171.46 406.85,172.61C407.16,173.83 407.45,175.09 407.75,176.37C408.06,177.69 408.36,179.06 408.66,180.42C408.96,181.8 409.26,183.21 409.56,184.6C409.86,185.98 410.16,187.38 410.47,188.73C410.77,190.03 411.06,191.34 411.37,192.57C411.66,193.71 411.97,194.77 412.27,195.86C412.57,196.94 412.88,198 413.18,199.09C413.48,200.19 413.78,201.31 414.08,202.43C414.38,203.56 414.69,204.69 414.99,205.84C415.29,207.01 415.59,208.19 415.89,209.4C416.19,210.64 416.49,211.91 416.79,213.18C417.09,214.47 417.39,215.84 417.7,217.1C417.99,218.28 418.3,219.38 418.6,220.51C418.9,221.64 419.21,222.77 419.51,223.88C419.81,224.97 420.1,226.05 420.41,227.12C420.71,228.16 421.02,229.19 421.32,230.2C421.62,231.19 421.91,232.19 422.22,233.15C422.52,234.08 422.81,235.01 423.12,235.89C423.41,236.73 423.72,237.56 424.03,238.33C424.32,239.04 424.61,239.73 424.93,240.35C425.22,240.91 425.52,241.44 425.84,241.91C426.13,242.33 426.42,242.72 426.74,243.06C427.03,243.37 427.33,243.64 427.64,243.87C427.93,244.08 428.24,244.26 428.55,244.41C428.84,244.55 429.15,244.65 429.45,244.75C429.75,244.84 430.06,244.91 430.36,244.98C430.66,245.05 430.96,245.11 431.26,245.18C431.56,245.25 431.86,245.32 432.16,245.38C432.46,245.44 432.77,245.49 433.07,245.53C433.37,245.57 433.67,245.59 433.97,245.64C434.27,245.69 434.58,245.73 434.88,245.82C435.19,245.92 435.49,246.05 435.78,246.21C436.09,246.38 436.39,246.61 436.68,246.84C436.99,247.09 437.29,247.38 437.59,247.67C437.9,247.97 438.19,248.31 438.49,248.64C438.8,248.98 439.1,249.34 439.4,249.71C439.71,250.09 440,250.47 440.3,250.87C440.61,251.27 440.91,251.69 441.21,252.11C441.51,252.54 441.81,252.98 442.11,253.42C442.41,253.87 442.7,254.33 443.01,254.77C443.31,255.2 443.62,255.6 443.92,256.01C444.22,256.42 444.52,256.83 444.82,257.23C445.12,257.62 445.42,258.01 445.73,258.37C446.03,258.72 446.32,259.07 446.63,259.37C446.92,259.65 447.22,259.92 447.53,260.12C447.82,260.31 448.13,260.46 448.44,260.55C448.73,260.63 449.04,260.66 449.34,260.64C449.64,260.62 449.95,260.54 450.25,260.45C450.56,260.35 450.85,260.21 451.15,260.06C451.46,259.9 451.75,259.71 452.05,259.52C452.36,259.32 452.66,259.11 452.96,258.89C453.26,258.67 453.56,258.43 453.86,258.21C454.16,257.99 454.47,257.76 454.77,257.55C455.07,257.34 455.37,257.13 455.67,256.94C455.97,256.76 456.27,256.58 456.58,256.43C456.88,256.29 457.18,256.16 457.48,256.07C457.78,255.98 458.08,255.91 458.38,255.88C458.68,255.85 458.99,255.85 459.29,255.88C459.59,255.91 459.89,255.98 460.19,256.06C460.5,256.15 460.8,256.27 461.1,256.39Q461.4,256.51 462,256.79" style="vector-effect: non-scaling-stroke; fill: none; stroke: rgb(0, 100, 80); stroke-opacity: 1; stroke-width: 2px; opacity: 1;"/></g><g class="points"/><g class="text"/></g><g class="trace scatter trace9e23ff" style="stroke-miterlimit: 2; opacity: 1;"><g class="fills"/><g class="errorbars"/><g class="lines"><path class="js-line" d="M0,149.29Q0.62,149.33 0.9,149.49C1.24,149.69 1.53,150.1 1.81,150.52C2.15,151.04 2.43,151.72 2.71,152.42C3.04,153.25 3.33,154.21 3.62,155.21C3.94,156.33 4.23,157.56 4.52,158.82C4.83,160.2 5.13,161.69 5.42,163.19C5.73,164.79 6.03,166.47 6.33,168.15C6.64,169.9 6.93,171.7 7.23,173.49C7.53,175.29 7.83,177.13 8.14,178.9C8.44,180.61 8.72,182.35 9.04,183.95C9.33,185.41 9.62,186.86 9.95,188.13C10.23,189.22 10.5,190.27 10.85,191.12C11.12,191.79 11.38,192.47 11.75,192.84C12.02,193.11 12.37,193.35 12.66,193.32C12.97,193.29 13.29,192.93 13.56,192.61C13.91,192.21 14.18,191.6 14.47,191.03C14.79,190.38 15.08,189.65 15.37,188.91C15.68,188.12 15.97,187.28 16.27,186.44C16.58,185.57 16.88,184.67 17.18,183.78C17.48,182.88 17.78,181.97 18.08,181.08C18.38,180.21 18.68,179.33 18.99,178.49C19.28,177.69 19.58,176.91 19.89,176.16C20.18,175.46 20.48,174.77 20.79,174.14C21.08,173.55 21.38,172.99 21.7,172.48C21.99,172.02 22.27,171.57 22.6,171.23C22.88,170.93 23.19,170.62 23.51,170.5C23.79,170.39 24.13,170.36 24.41,170.45C24.73,170.56 25.04,170.86 25.32,171.19C25.66,171.6 25.94,172.19 26.22,172.79C26.55,173.51 26.84,174.38 27.12,175.27C27.44,176.29 27.74,177.44 28.03,178.6C28.35,179.87 28.61,181.33 28.93,182.59C29.22,183.74 29.48,184.97 29.84,185.86C30.11,186.52 30.46,186.91 30.74,187.5C31.06,188.16 31.36,188.87 31.64,189.67C31.97,190.61 32.26,191.68 32.55,192.79C32.87,194.05 33.16,195.43 33.45,196.86C33.77,198.43 34.07,200.11 34.36,201.83C34.67,203.68 34.97,205.63 35.26,207.61C35.57,209.69 35.86,211.86 36.16,214.03C36.47,216.27 36.77,218.57 37.07,220.87C37.37,223.2 37.67,225.56 37.97,227.91C38.27,230.27 38.58,232.65 38.88,235.01C39.18,237.36 39.48,239.73 39.78,242.06C40.08,244.35 40.37,246.65 40.68,248.87C40.98,251 41.27,253.13 41.59,255.13C41.88,256.96 42.17,258.76 42.49,260.4C42.78,261.85 43.07,263.25 43.4,264.47C43.68,265.49 43.93,266.53 44.3,267.23C44.57,267.73 44.88,268.35 45.21,268.41C45.49,268.46 45.86,268.16 46.11,267.82C46.55,267.23 46.74,265.94 47.01,264.79C47.36,263.31 47.63,261.4 47.92,259.64C48.23,257.78 48.52,255.82 48.82,253.9C49.12,251.97 49.43,250.02 49.73,248.11C50.03,246.24 50.32,244.37 50.63,242.55C50.92,240.8 51.22,239.08 51.53,237.42C51.82,235.86 52.13,234.33 52.44,232.88C52.73,231.55 53.02,230.25 53.34,229.05C53.63,227.97 53.92,226.94 54.25,226.01C54.53,225.2 54.82,224.43 55.15,223.77C55.43,223.21 55.72,222.69 56.05,222.28C56.33,221.93 56.64,221.64 56.96,221.42C57.25,221.22 57.55,221.07 57.86,220.97C58.16,220.87 58.47,220.81 58.77,220.8C59.07,220.79 59.38,220.84 59.67,220.93C59.98,221.02 60.28,221.19 60.58,221.36C60.89,221.54 61.18,221.78 61.48,221.99C61.78,222.2 62.07,222.46 62.38,222.6C62.67,222.73 62.99,222.84 63.29,222.81C63.6,222.78 63.91,222.59 64.19,222.39C64.51,222.17 64.81,221.82 65.1,221.49C65.41,221.15 65.7,220.75 66,220.37C66.3,219.99 66.59,219.59 66.9,219.22C67.2,218.86 67.5,218.49 67.81,218.17C68.1,217.86 68.4,217.56 68.71,217.32C69,217.1 69.31,216.89 69.62,216.77C69.91,216.66 70.22,216.58 70.52,216.59C70.82,216.6 71.13,216.7 71.42,216.85C71.74,217.02 72.04,217.29 72.33,217.59C72.65,217.93 72.94,218.35 73.23,218.8C73.55,219.3 73.85,219.88 74.14,220.47C74.46,221.11 74.75,221.81 75.04,222.52C75.35,223.28 75.66,224.08 75.95,224.9C76.26,225.78 76.56,226.7 76.85,227.64C77.16,228.63 77.45,229.68 77.75,230.7C78.05,231.73 78.36,232.76 78.66,233.8C78.96,234.85 79.26,235.91 79.56,236.98C79.86,238.06 80.17,239.17 80.47,240.26C80.77,241.34 81.07,242.42 81.37,243.47C81.67,244.49 81.96,245.49 82.27,246.47C82.57,247.42 82.87,248.34 83.18,249.25C83.48,250.13 83.77,251.01 84.08,251.85C84.38,252.66 84.68,253.46 84.99,254.22C85.28,254.93 85.57,255.64 85.89,256.26C86.17,256.82 86.46,257.36 86.79,257.79C87.07,258.16 87.37,258.51 87.7,258.73C87.98,258.92 88.29,259.07 88.6,259.1C88.9,259.13 89.22,259.06 89.51,258.93C89.83,258.78 90.13,258.51 90.41,258.22C90.74,257.88 91.03,257.44 91.32,256.98C91.64,256.46 91.94,255.86 92.22,255.22C92.54,254.51 92.83,253.72 93.12,252.9C93.44,251.99 93.74,251.01 94.03,249.97C94.35,248.82 94.64,247.6 94.93,246.31C95.25,244.89 95.55,243.37 95.84,241.8C96.15,240.11 96.45,238.32 96.74,236.5C97.05,234.58 97.34,232.59 97.64,230.58C97.95,228.49 98.25,226.35 98.55,224.19C98.86,221.98 99.15,219.72 99.45,217.47C99.75,215.2 100.06,212.91 100.36,210.64C100.66,208.39 100.96,206.13 101.26,203.93C101.56,201.79 101.85,199.66 102.16,197.61C102.45,195.65 102.76,193.73 103.07,191.89C103.36,190.18 103.65,188.5 103.97,186.93C104.26,185.5 104.56,184.11 104.88,182.84C105.16,181.72 105.45,180.63 105.78,179.7C106.06,178.92 106.33,178.15 106.68,177.59C106.95,177.15 107.25,176.68 107.59,176.53C107.86,176.41 108.22,176.42 108.49,176.55C108.83,176.72 109.13,177.19 109.4,177.64C109.75,178.21 110.02,178.99 110.3,179.78C110.63,180.72 110.92,181.81 111.21,182.93C111.53,184.2 111.82,185.6 112.11,187.03C112.42,188.6 112.72,190.27 113.01,191.98C113.32,193.81 113.63,195.72 113.92,197.66C114.23,199.69 114.52,201.8 114.82,203.92C115.13,206.11 115.43,208.36 115.73,210.61C116.04,212.91 116.33,215.26 116.63,217.6C116.93,219.97 117.23,222.37 117.53,224.76C117.83,227.15 118.14,229.56 118.44,231.93C118.74,234.27 119.03,236.62 119.34,238.92C119.64,241.16 119.94,243.38 120.25,245.54C120.55,247.61 120.84,249.66 121.15,251.62C121.44,253.47 121.73,255.29 122.05,257C122.34,258.56 122.64,260.08 122.96,261.47C123.24,262.69 123.53,263.86 123.86,264.9C124.14,265.8 124.44,266.63 124.77,267.36C125.05,267.98 125.33,268.56 125.67,269.01C125.95,269.38 126.25,269.74 126.58,269.93C126.86,270.09 127.18,270.18 127.48,270.17C127.78,270.15 128.1,270.01 128.38,269.83C128.7,269.63 129,269.32 129.29,268.99C129.61,268.62 129.9,268.16 130.19,267.68C130.51,267.15 130.81,266.54 131.1,265.92C131.42,265.24 131.71,264.5 132,263.75C132.31,262.94 132.6,262.08 132.9,261.22C133.21,260.34 133.51,259.42 133.81,258.53C134.11,257.65 134.4,256.76 134.71,255.9C135.01,255.06 135.31,254.23 135.62,253.43C135.92,252.66 136.21,251.91 136.52,251.18C136.81,250.49 137.11,249.81 137.42,249.16C137.71,248.54 138.02,247.95 138.33,247.38C138.62,246.83 138.93,246.32 139.23,245.8C139.53,245.28 139.85,244.8 140.14,244.27C140.45,243.71 140.75,243.14 141.04,242.52C141.36,241.84 141.66,241.09 141.95,240.33C142.26,239.53 142.55,238.68 142.85,237.84C143.15,236.98 143.45,236.1 143.75,235.23C144.05,234.35 144.36,233.48 144.66,232.6C144.96,231.73 145.26,230.85 145.56,229.99C145.86,229.14 146.17,228.29 146.47,227.45C146.77,226.63 147.07,225.8 147.37,225C147.67,224.22 147.96,223.45 148.27,222.7C148.57,221.98 148.87,221.27 149.18,220.6C149.47,219.96 149.77,219.33 150.08,218.75C150.37,218.21 150.67,217.7 150.99,217.23C151.28,216.8 151.57,216.39 151.89,216.05C152.18,215.74 152.47,215.45 152.79,215.24C153.08,215.05 153.39,214.88 153.7,214.8C153.99,214.72 154.3,214.7 154.6,214.73C154.91,214.77 155.22,214.87 155.51,215.02C155.82,215.18 156.12,215.41 156.41,215.67C156.73,215.96 157.01,216.37 157.32,216.68C157.61,216.98 157.91,217.29 158.22,217.52C158.51,217.74 158.83,217.84 159.12,218.05C159.43,218.27 159.73,218.54 160.03,218.81C160.34,219.09 160.63,219.39 160.93,219.69C161.23,219.99 161.54,220.28 161.84,220.6C162.15,220.92 162.45,221.25 162.74,221.61C163.05,221.99 163.35,222.38 163.64,222.81C163.95,223.27 164.26,223.77 164.55,224.3C164.87,224.88 165.16,225.49 165.45,226.15C165.77,226.87 166.07,227.63 166.36,228.44C166.68,229.32 166.97,230.26 167.26,231.24C167.57,232.3 167.87,233.42 168.16,234.57C168.47,235.81 168.78,237.11 169.07,238.44C169.38,239.85 169.67,241.32 169.97,242.82C170.28,244.38 170.58,246 170.88,247.63C171.19,249.31 171.48,251.04 171.78,252.75C172.08,254.46 172.36,256.27 172.68,257.88C172.97,259.32 173.27,260.68 173.59,261.94C173.88,263.06 174.19,264.05 174.49,265.09C174.79,266.12 175.1,267.14 175.4,268.16C175.7,269.18 175.99,270.24 176.3,271.21C176.59,272.11 176.78,273.34 177.21,273.79C177.47,274.06 177.85,274.25 178.11,274.16C178.48,274.03 178.74,273.18 179.01,272.52C179.38,271.61 179.64,270.37 179.92,269.14C180.25,267.7 180.54,266.1 180.82,264.4C181.15,262.45 181.45,260.34 181.73,258.07C182.06,255.45 182.34,252.55 182.63,249.58C182.95,246.29 183.23,242.73 183.53,239.19C183.84,235.5 184.14,231.67 184.44,227.86C184.74,223.99 185.04,220.07 185.34,216.17C185.64,212.26 185.95,208.34 186.25,204.44C186.55,200.57 186.85,196.7 187.15,192.87C187.45,189.1 187.75,185.34 188.05,181.63C188.35,177.98 188.66,174.36 188.96,170.79C189.26,167.29 189.55,163.83 189.86,160.41C190.16,157.06 190.46,153.75 190.77,150.47C191.07,147.27 191.36,144.09 191.67,140.97C191.97,137.93 192.27,134.92 192.58,131.96C192.88,129.1 193.17,126.26 193.48,123.5C193.77,120.84 194.07,118.22 194.38,115.67C194.68,113.24 194.98,110.85 195.29,108.54C195.58,106.36 195.88,104.23 196.19,102.19C196.48,100.3 196.78,98.45 197.1,96.72C197.39,95.14 197.68,93.61 198,92.21C198.28,90.97 198.57,89.78 198.9,88.74C199.18,87.87 199.46,87.01 199.81,86.38C200.08,85.9 200.36,85.37 200.71,85.21C200.98,85.09 201.35,85.12 201.62,85.28C201.98,85.49 202.25,86.08 202.52,86.62C202.87,87.34 203.14,88.29 203.42,89.27C203.76,90.45 204.05,91.82 204.33,93.24C204.66,94.87 204.94,96.67 205.23,98.53C205.55,100.6 205.85,102.82 206.14,105.11C206.46,107.6 206.75,110.24 207.04,112.94C207.35,115.84 207.66,118.88 207.95,121.98C208.26,125.27 208.56,128.68 208.85,132.15C209.16,135.79 209.45,139.54 209.75,143.35C210.06,147.31 210.36,151.35 210.66,155.45C210.97,159.67 211.26,163.98 211.56,168.31C211.86,172.74 212.17,177.24 212.47,181.74C212.77,186.29 213.07,190.92 213.37,195.47C213.67,199.96 213.95,204.67 214.27,208.86C214.56,212.58 214.85,216.13 215.18,219.38C215.46,222.2 215.66,225.3 216.08,227.26C216.34,228.47 216.71,230.13 216.99,230.12C217.32,230.1 217.62,227.54 217.89,225.89C218.26,223.62 218.5,220.63 218.79,217.75C219.11,214.51 219.41,210.95 219.7,207.41C220.01,203.66 220.3,199.75 220.6,195.84C220.91,191.82 221.21,187.71 221.51,183.61C221.81,179.45 222.11,175.25 222.41,171.06C222.71,166.85 223.02,162.62 223.32,158.41C223.62,154.22 223.92,150.03 224.22,145.87C224.52,141.76 224.82,137.66 225.12,133.61C225.42,129.64 225.72,125.69 226.03,121.8C226.33,118.01 226.62,114.26 226.93,110.58C227.23,107.02 227.53,103.51 227.84,100.09C228.14,96.81 228.43,93.59 228.74,90.47C229.03,87.51 229.33,84.61 229.64,81.83C229.93,79.22 230.24,76.68 230.55,74.27C230.84,72.05 231.13,69.88 231.45,67.87C231.74,66.06 232.03,64.31 232.36,62.72C232.64,61.34 232.92,60 233.26,58.86C233.54,57.93 233.8,57 234.16,56.36C234.43,55.89 234.73,55.35 235.07,55.25C235.35,55.17 235.71,55.33 235.97,55.55C236.35,55.87 236.61,56.6 236.88,57.27C237.23,58.14 237.5,59.24 237.78,60.37C238.11,61.72 238.39,63.25 238.68,64.83C239,66.62 239.3,68.57 239.59,70.58C239.91,72.79 240.2,75.13 240.49,77.54C240.8,80.13 241.11,82.85 241.4,85.62C241.71,88.56 242,91.61 242.3,94.7C242.61,97.94 242.91,101.26 243.21,104.63C243.52,108.12 243.81,111.69 244.11,115.28C244.41,118.96 244.71,122.71 245.01,126.46C245.31,130.27 245.62,134.13 245.92,137.97C246.22,141.83 246.52,145.72 246.82,149.56C247.12,153.37 247.42,157.19 247.73,160.92C248.03,164.55 248.32,168.19 248.63,171.67C248.92,174.96 249.21,178.24 249.53,181.26C249.82,183.97 250.09,186.74 250.44,188.96C250.71,190.68 251.01,193.48 251.34,193.49C251.62,193.5 251.99,191.62 252.25,190.23C252.68,187.88 252.88,184.19 253.15,180.6C253.49,176.08 253.75,170.45 254.05,165.24C254.36,159.84 254.66,154.25 254.96,148.74C255.26,143.2 255.56,137.61 255.86,132.08C256.16,126.6 256.47,121.13 256.77,115.73C257.07,110.44 257.36,105.18 257.67,100.02C257.97,95.01 258.27,90.04 258.58,85.2C258.88,80.54 259.17,75.95 259.48,71.49C259.77,67.24 260.07,63.06 260.38,59.03C260.67,55.24 260.98,51.53 261.29,47.98C261.58,44.68 261.87,41.48 262.19,38.45C262.48,35.69 262.78,33.01 263.1,30.53C263.39,28.32 263.67,26.2 264,24.29C264.28,22.66 264.55,21.08 264.9,19.77C265.17,18.73 265.43,17.68 265.81,17.01C266.07,16.56 266.4,16.03 266.71,16C267,15.98 267.36,16.37 267.62,16.73C268.01,17.27 268.25,18.22 268.52,19.14C268.87,20.3 269.14,21.72 269.42,23.18C269.75,24.88 270.04,26.78 270.33,28.74C270.65,30.93 270.94,33.29 271.23,35.72C271.55,38.36 271.85,41.14 272.14,43.99C272.45,47.02 272.75,50.18 273.04,53.39C273.35,56.77 273.65,60.26 273.95,63.79C274.26,67.46 274.55,71.22 274.85,75.02C275.15,78.93 275.45,82.92 275.75,86.93C276.05,91.03 276.36,95.2 276.66,99.37C276.96,103.6 277.26,107.87 277.56,112.13C277.86,116.41 278.17,120.73 278.47,125C278.77,129.24 279.07,133.51 279.37,137.69C279.67,141.78 279.96,145.87 280.27,149.82C280.57,153.61 280.86,157.39 281.18,160.94C281.47,164.21 281.71,167.77 282.08,170.36C282.35,172.21 282.6,173.86 282.99,175.07C283.25,175.87 283.49,176.73 283.89,176.99C284.15,177.16 284.54,177.2 284.79,177.02C285.26,176.68 285.42,175.07 285.7,173.97C286.03,172.69 286.31,171.26 286.6,169.8C286.92,168.18 287.22,166.44 287.51,164.68C287.82,162.81 288.11,160.82 288.41,158.9C288.71,156.99 289.01,155.05 289.32,153.19C289.62,151.41 289.91,149.63 290.22,147.96C290.51,146.4 290.8,144.87 291.12,143.47C291.41,142.22 291.7,141 292.03,139.93C292.31,139.03 292.58,138.13 292.93,137.46C293.2,136.94 293.48,136.37 293.84,136.16C294.11,136 294.47,135.94 294.74,136.05C295.08,136.18 295.37,136.66 295.64,137.1C295.99,137.66 296.27,138.44 296.55,139.21C296.88,140.11 297.16,141.15 297.45,142.21C297.77,143.38 298.07,144.63 298.36,145.92C298.67,147.3 298.97,148.76 299.26,150.23C299.57,151.77 299.86,153.37 300.16,154.96C300.46,156.57 300.76,158.24 301.07,159.84C301.37,161.4 301.65,162.99 301.97,164.45C302.26,165.77 302.55,167.08 302.88,168.22C303.16,169.19 303.45,170.1 303.78,170.89C304.06,171.55 304.35,172.16 304.68,172.65C304.96,173.06 305.27,173.42 305.59,173.7C305.87,173.94 306.18,174.11 306.49,174.27C306.79,174.42 307.1,174.53 307.4,174.63C307.7,174.73 308,174.81 308.3,174.89C308.6,174.97 308.91,175.03 309.21,175.11C309.51,175.18 309.81,175.26 310.11,175.34C310.41,175.42 310.71,175.51 311.01,175.61C311.31,175.71 311.62,175.81 311.92,175.92C312.22,176.03 312.52,176.14 312.82,176.26C313.12,176.38 313.43,176.5 313.73,176.62C314.03,176.74 314.33,176.86 314.63,176.98C314.93,177.11 315.23,177.22 315.53,177.37C315.84,177.53 316.15,177.69 316.44,177.9C316.75,178.13 317.06,178.4 317.34,178.72C317.66,179.08 317.97,179.51 318.25,179.99C318.58,180.53 318.87,181.16 319.15,181.83C319.47,182.59 319.76,183.45 320.05,184.34C320.37,185.33 320.67,186.4 320.96,187.51C321.28,188.71 321.57,189.98 321.86,191.28C322.17,192.65 322.47,194.09 322.77,195.53C323.08,197.01 323.37,198.54 323.67,200.05C323.97,201.57 324.28,203.12 324.58,204.63C324.88,206.11 325.17,207.59 325.48,209.02C325.77,210.38 326.06,211.73 326.38,213C326.67,214.17 326.97,215.32 327.29,216.35C327.57,217.25 327.85,218.13 328.19,218.84C328.47,219.41 328.75,219.97 329.1,220.31C329.37,220.57 329.7,220.82 330,220.83C330.3,220.84 330.62,220.63 330.9,220.42C331.23,220.17 331.52,219.73 331.81,219.33C332.13,218.88 332.42,218.35 332.71,217.83C333.02,217.29 333.32,216.7 333.62,216.14C333.92,215.58 334.21,215 334.52,214.48C334.81,213.99 335.1,213.49 335.42,213.08C335.71,212.72 336,212.35 336.33,212.13C336.61,211.94 336.93,211.78 337.23,211.77C337.53,211.76 337.86,211.88 338.14,212.06C338.47,212.27 338.76,212.65 339.04,213.04C339.37,213.5 339.66,214.08 339.95,214.68C340.27,215.36 340.56,216.13 340.85,216.92C341.16,217.77 341.45,218.71 341.75,219.62C342.06,220.56 342.35,221.56 342.66,222.48C342.95,223.34 343.14,224.49 343.56,224.96C343.82,225.25 344.16,225.41 344.47,225.42C344.77,225.43 345.06,225.09 345.37,225.05C345.66,225.01 345.99,225.05 346.27,225.17C346.59,225.31 346.89,225.63 347.18,225.93C347.5,226.26 347.78,226.69 348.08,227.09C348.39,227.5 348.7,227.9 348.99,228.37C349.31,228.9 349.6,229.53 349.89,230.14C350.2,230.79 350.49,231.49 350.79,232.16C351.09,232.82 351.39,233.51 351.7,234.13C351.99,234.7 352.28,235.27 352.6,235.76C352.89,236.2 353.18,236.64 353.51,236.95C353.79,237.21 354.12,237.56 354.41,237.53C354.73,237.49 355.04,236.98 355.32,236.59C355.66,236.11 355.94,235.44 356.22,234.78C356.54,234.01 356.84,233.16 357.12,232.24C357.45,231.16 357.75,229.96 358.03,228.69C358.36,227.22 358.64,225.6 358.93,223.93C359.25,222.09 359.55,220.11 359.84,218.09C360.15,215.92 360.46,213.77 360.74,211.33C361.07,208.45 361.36,205.32 361.64,201.9C361.97,197.82 362.26,193.05 362.55,188.45C362.86,183.6 363.15,178.54 363.45,173.5C363.75,168.36 364.06,163.11 364.36,157.9C364.66,152.68 364.96,147.44 365.26,142.23C365.56,137.05 365.86,131.87 366.16,126.75C366.46,121.7 366.76,116.66 367.07,111.71C367.37,106.87 367.66,102.07 367.97,97.37C368.27,92.82 368.57,88.33 368.88,83.96C369.18,79.78 369.47,75.66 369.78,71.68C370.07,67.92 370.37,64.23 370.68,60.7C370.97,57.41 371.27,54.2 371.59,51.17C371.88,48.39 372.17,45.69 372.49,43.19C372.78,40.96 373.07,38.8 373.4,36.86C373.68,35.2 373.96,33.59 374.3,32.24C374.58,31.16 374.83,30.07 375.21,29.36C375.47,28.87 375.79,28.29 376.11,28.24C376.39,28.2 376.75,28.52 377.01,28.85C377.4,29.34 377.65,30.28 377.92,31.16C378.27,32.29 378.54,33.67 378.82,35.09C379.15,36.76 379.44,38.62 379.73,40.55C380.05,42.7 380.34,45.03 380.63,47.41C380.94,50 381.24,52.73 381.53,55.52C381.84,58.48 382.14,61.57 382.44,64.69C382.75,67.95 383.04,71.3 383.34,74.67C383.65,78.12 383.95,81.65 384.25,85.15C384.55,88.67 384.85,92.24 385.15,95.75C385.45,99.21 385.74,102.67 386.05,106.04C386.35,109.29 386.65,112.52 386.96,115.6C387.25,118.49 387.54,121.33 387.86,123.98C388.15,126.37 388.45,128.65 388.77,130.78C389.06,132.67 389.34,134.5 389.67,136.13C389.95,137.52 390.14,139.14 390.58,139.95C390.83,140.41 391.17,140.87 391.48,140.88C391.77,140.89 392.11,140.43 392.38,140.08C392.73,139.62 393,138.92 393.29,138.26C393.61,137.51 393.89,136.64 394.19,135.82C394.49,134.98 394.79,134.1 395.1,133.28C395.39,132.51 395.68,131.73 396,131.04C396.28,130.43 396.56,129.82 396.9,129.36C397.18,128.98 397.48,128.59 397.81,128.43C398.09,128.3 398.43,128.25 398.71,128.34C399.04,128.45 399.35,128.8 399.62,129.16C399.97,129.61 400.24,130.25 400.52,130.91C400.85,131.7 401.14,132.63 401.42,133.59C401.74,134.69 402.04,135.92 402.33,137.18C402.65,138.58 402.94,140.08 403.23,141.62C403.54,143.29 403.85,145.05 404.14,146.85C404.45,148.76 404.74,150.75 405.04,152.77C405.35,154.88 405.65,157.06 405.95,159.26C406.26,161.53 406.55,163.84 406.85,166.17C407.15,168.54 407.45,170.95 407.75,173.36C408.05,175.8 408.36,178.27 408.66,180.74C408.96,183.23 409.26,185.73 409.56,188.23C409.86,190.74 410.17,193.26 410.47,195.76C410.77,198.24 411.07,200.73 411.37,203.16C411.67,205.52 411.95,207.94 412.27,210.15C412.56,212.15 412.87,214 413.18,215.84C413.47,217.58 413.75,219.35 414.08,220.9C414.36,222.23 414.67,223.41 414.99,224.57C415.28,225.63 415.58,226.61 415.89,227.6C416.18,228.55 416.48,229.47 416.79,230.37C417.09,231.23 417.39,232.08 417.7,232.9C418,233.69 418.29,234.46 418.6,235.22C418.9,235.95 419.2,236.67 419.51,237.37C419.81,238.04 420.1,238.7 420.41,239.32C420.7,239.91 421,240.5 421.32,241C421.61,241.45 421.88,241.92 422.22,242.2C422.5,242.43 422.82,242.64 423.12,242.65C423.42,242.66 423.75,242.47 424.03,242.26C424.36,242.01 424.64,241.6 424.93,241.2C425.25,240.75 425.55,240.21 425.84,239.68C426.15,239.11 426.44,238.49 426.74,237.88C427.04,237.26 427.34,236.61 427.64,235.98C427.94,235.36 428.24,234.74 428.55,234.15C428.85,233.59 429.14,233.02 429.45,232.51C429.74,232.03 430.04,231.57 430.36,231.17C430.65,230.81 430.94,230.46 431.26,230.22C431.54,230.01 431.85,229.82 432.16,229.75C432.45,229.69 432.78,229.7 433.07,229.8C433.39,229.91 433.69,230.15 433.97,230.41C434.3,230.71 434.6,231.13 434.88,231.56C435.2,232.05 435.49,232.64 435.78,233.24C436.1,233.9 436.38,234.65 436.68,235.38C436.99,236.15 437.26,237.05 437.59,237.75C437.87,238.35 438.16,238.92 438.49,239.37C438.77,239.74 439.07,240.07 439.4,240.3C439.68,240.5 440,240.59 440.3,240.71C440.6,240.83 440.91,240.93 441.21,241.04C441.51,241.15 441.81,241.27 442.11,241.38C442.41,241.49 442.71,241.62 443.01,241.71C443.31,241.79 443.62,241.85 443.92,241.89C444.22,241.93 444.52,241.93 444.82,241.95C445.12,241.97 445.43,241.99 445.73,242.01C446.03,242.03 446.33,242.05 446.63,242.08C446.93,242.11 447.23,242.15 447.53,242.2C447.83,242.25 448.14,242.3 448.44,242.37C448.74,242.44 449.04,242.51 449.34,242.61C449.65,242.71 449.95,242.82 450.25,242.96C450.56,243.1 450.86,243.26 451.15,243.44C451.46,243.63 451.76,243.84 452.05,244.08C452.36,244.33 452.67,244.61 452.96,244.91C453.27,245.23 453.57,245.58 453.86,245.95C454.17,246.35 454.48,246.77 454.77,247.22C455.08,247.69 455.38,248.2 455.67,248.72C455.98,249.28 456.29,249.86 456.58,250.47C456.89,251.11 457.19,251.77 457.48,252.45C457.79,253.16 458.08,253.89 458.38,254.63C458.69,255.39 458.99,256.18 459.29,256.97C459.59,257.77 459.89,258.59 460.19,259.39C460.49,260.18 460.79,261 461.1,261.76Q461.39,262.48 462,263.85" style="vector-effect: non-scaling-stroke; fill: none; stroke: rgb(0, 176, 246); stroke-opacity: 1; stroke-width: 2px; opacity: 1;"/></g><g class="points"/><g class="text"/></g><g class="trace scatter trace0c14c1" style="stroke-miterlimit: 2; opacity: 1;"><g class="fills"/><g class="errorbars"/><g class="lines"><path class="js-line" d="M0,85.08Q0.6,85.11 0.9,85.16C1.2,85.21 1.51,85.3 1.81,85.4C2.12,85.51 2.41,85.64 2.71,85.8C3.02,85.97 3.32,86.16 3.62,86.38C3.93,86.61 4.23,86.87 4.52,87.15C4.83,87.45 5.13,87.77 5.42,88.12C5.73,88.49 6.04,88.88 6.33,89.29C6.64,89.73 6.94,90.2 7.23,90.68C7.54,91.19 7.85,91.73 8.14,92.29C8.45,92.88 8.75,93.5 9.04,94.13C9.35,94.79 9.65,95.48 9.95,96.19C10.26,96.93 10.56,97.7 10.85,98.49C11.16,99.31 11.45,100.16 11.75,101.02C12.06,101.92 12.36,102.84 12.66,103.78C12.97,104.76 13.26,105.76 13.56,106.78C13.87,107.84 14.17,108.91 14.47,110.01C14.78,111.15 15.07,112.31 15.37,113.49C15.67,114.71 15.97,115.95 16.27,117.21C16.58,118.51 16.88,119.84 17.18,121.19C17.49,122.59 17.78,124.01 18.08,125.46C18.39,126.95 18.69,128.47 18.99,130.01C19.3,131.61 19.59,133.23 19.89,134.89C20.2,136.6 20.49,138.35 20.79,140.12C21.1,141.95 21.4,143.82 21.7,145.71C22.01,147.67 22.3,149.66 22.6,151.68C22.91,153.77 23.21,155.89 23.51,158.05C23.82,160.27 24.11,162.53 24.41,164.82C24.72,167.17 25.02,169.55 25.32,171.96C25.63,174.42 25.92,176.92 26.22,179.44C26.52,182.01 26.82,184.6 27.12,187.21C27.42,189.85 27.73,192.53 28.03,195.2C28.33,197.89 28.63,200.6 28.93,203.29C29.23,205.97 29.54,208.67 29.84,211.33C30.14,213.94 30.43,216.56 30.74,219.11C31.04,221.57 31.33,224.03 31.64,226.37C31.93,228.57 32.23,230.74 32.55,232.78C32.84,234.64 33.13,236.44 33.45,238.12C33.74,239.62 34.04,241.05 34.36,242.38C34.65,243.55 34.94,244.67 35.26,245.68C35.54,246.56 35.83,247.4 36.16,248.13C36.44,248.75 36.73,249.34 37.07,249.79C37.35,250.16 37.65,250.48 37.97,250.71C38.26,250.91 38.57,251.04 38.88,251.13C39.17,251.22 39.48,251.25 39.78,251.25C40.08,251.25 40.39,251.21 40.68,251.11C40.99,251 41.31,250.83 41.59,250.6C41.92,250.33 42.21,249.95 42.49,249.55C42.82,249.08 43.13,248.57 43.4,247.94C43.75,247.15 44,246.08 44.3,245.15C44.6,244.23 44.9,243.28 45.21,242.41C45.5,241.6 45.79,240.8 46.11,240.08C46.4,239.43 46.68,238.79 47.01,238.26C47.29,237.8 47.59,237.34 47.92,237.03C48.2,236.77 48.5,236.52 48.82,236.44C49.11,236.36 49.44,236.38 49.73,236.49C50.05,236.61 50.35,236.89 50.63,237.18C50.96,237.53 51.25,238 51.53,238.48C51.85,239.03 52.15,239.67 52.44,240.33C52.76,241.06 53.05,241.86 53.34,242.67C53.65,243.54 53.95,244.45 54.25,245.38C54.56,246.34 54.85,247.35 55.15,248.34C55.45,249.35 55.75,250.38 56.05,251.39C56.35,252.38 56.65,253.38 56.96,254.33C57.25,255.23 57.54,256.13 57.86,256.95C58.15,257.7 58.43,258.46 58.77,259.06C59.05,259.56 59.35,260.33 59.67,260.36C59.96,260.38 60.32,259.85 60.58,259.41C60.98,258.74 61.2,257.61 61.48,256.55C61.81,255.27 62.09,253.76 62.38,252.25C62.7,250.59 62.99,248.78 63.29,246.98C63.6,245.11 63.89,243.16 64.19,241.24C64.49,239.32 64.8,237.38 65.1,235.47C65.4,233.58 65.7,231.69 66,229.84C66.3,228.03 66.59,226.24 66.9,224.48C67.2,222.78 67.5,221.1 67.81,219.47C68.11,217.91 68.4,216.38 68.71,214.9C69,213.5 69.31,212.14 69.62,210.84C69.91,209.64 70.2,208.46 70.52,207.37C70.81,206.38 71.1,205.42 71.42,204.55C71.71,203.78 72,203.04 72.33,202.41C72.61,201.88 72.89,201.36 73.23,201.01C73.51,200.72 73.82,200.44 74.14,200.37C74.43,200.3 74.76,200.37 75.04,200.52C75.37,200.69 75.67,201.07 75.95,201.45C76.29,201.91 76.57,202.53 76.85,203.15C77.17,203.86 77.46,204.68 77.75,205.5C78.06,206.38 78.37,207.31 78.66,208.25C78.97,209.24 79.27,210.25 79.56,211.31C79.87,212.44 80.18,213.61 80.47,214.82C80.78,216.09 81.08,217.41 81.37,218.75C81.68,220.14 81.97,221.56 82.27,222.99C82.57,224.44 82.88,225.92 83.18,227.37C83.48,228.81 83.77,230.28 84.08,231.68C84.38,233.03 84.66,234.43 84.99,235.64C85.27,236.69 85.53,237.78 85.89,238.55C86.16,239.11 86.43,239.74 86.79,239.91C87.06,240.03 87.43,239.97 87.7,239.8C88.07,239.56 88.33,238.91 88.6,238.32C88.96,237.54 89.23,236.51 89.51,235.45C89.85,234.17 90.13,232.68 90.41,231.14C90.74,229.36 91.03,227.41 91.32,225.39C91.64,223.15 91.93,220.75 92.22,218.3C92.53,215.66 92.83,212.88 93.12,210.06C93.43,207.1 93.73,204.03 94.03,200.94C94.34,197.75 94.63,194.49 94.93,191.23C95.23,187.93 95.54,184.59 95.84,181.27C96.14,177.95 96.44,174.62 96.74,171.32C97.04,168.07 97.33,164.81 97.64,161.62C97.94,158.5 98.24,155.41 98.55,152.38C98.85,149.45 99.14,146.56 99.45,143.75C99.75,141.06 100.05,138.42 100.36,135.87C100.65,133.46 100.95,131.11 101.26,128.86C101.55,126.77 101.84,124.73 102.16,122.81C102.45,121.06 102.75,119.36 103.07,117.79C103.36,116.39 103.64,115.04 103.97,113.85C104.25,112.83 104.54,111.85 104.88,111.05C105.15,110.41 105.42,109.76 105.78,109.4C106.05,109.14 106.39,108.9 106.68,108.92C106.99,108.94 107.32,109.28 107.59,109.61C107.95,110.05 108.21,110.75 108.49,111.45C108.83,112.31 109.12,113.35 109.4,114.42C109.73,115.66 110.01,117.03 110.3,118.46C110.62,120.05 110.92,121.77 111.21,123.53C111.53,125.45 111.82,127.47 112.11,129.55C112.42,131.77 112.72,134.07 113.01,136.43C113.32,138.91 113.62,141.48 113.92,144.09C114.23,146.81 114.52,149.59 114.82,152.41C115.13,155.31 115.43,158.28 115.73,161.26C116.03,164.31 116.33,167.4 116.63,170.5C116.93,173.63 117.23,176.8 117.53,179.95C117.83,183.11 118.14,186.3 118.44,189.45C118.74,192.57 119.03,195.7 119.34,198.77C119.64,201.77 119.94,204.75 120.25,207.65C120.55,210.42 120.84,213.18 121.15,215.79C121.44,218.23 121.73,220.62 122.05,222.84C122.34,224.83 122.63,226.75 122.96,228.49C123.24,230 123.52,231.44 123.86,232.69C124.14,233.73 124.42,234.72 124.77,235.51C125.04,236.13 125.31,236.74 125.67,237.08C125.94,237.33 126.28,237.54 126.58,237.53C126.88,237.52 127.21,237.26 127.48,237C127.83,236.67 128.1,236.12 128.38,235.58C128.71,234.93 129,234.15 129.29,233.35C129.61,232.46 129.9,231.48 130.19,230.5C130.5,229.46 130.8,228.36 131.1,227.26C131.41,226.14 131.7,224.98 132,223.84C132.3,222.7 132.6,221.54 132.9,220.4C133.2,219.27 133.5,218.12 133.81,217.01C134.11,215.92 134.4,214.84 134.71,213.79C135.01,212.79 135.31,211.8 135.62,210.85C135.91,209.94 136.21,209.06 136.52,208.21C136.81,207.4 137.11,206.63 137.42,205.87C137.72,205.14 138.03,204.44 138.33,203.74C138.63,203.05 138.93,202.38 139.23,201.69C139.53,200.99 139.85,200.29 140.14,199.55C140.45,198.77 140.75,197.97 141.04,197.12C141.35,196.21 141.66,195.25 141.95,194.25C142.26,193.18 142.56,192.05 142.85,190.89C143.16,189.66 143.45,188.36 143.75,187.05C144.06,185.68 144.36,184.26 144.66,182.83C144.97,181.36 145.26,179.84 145.56,178.33C145.86,176.8 146.17,175.24 146.47,173.69C146.77,172.14 147.07,170.57 147.37,169.02C147.67,167.49 147.96,165.95 148.27,164.45C148.57,162.98 148.87,161.51 149.18,160.09C149.48,158.72 149.77,157.36 150.08,156.05C150.37,154.81 150.68,153.59 150.99,152.43C151.28,151.35 151.57,150.3 151.89,149.32C152.18,148.43 152.47,147.57 152.79,146.8C153.08,146.12 153.37,145.46 153.7,144.93C153.98,144.48 154.26,144.04 154.6,143.77C154.88,143.55 155.21,143.36 155.51,143.35C155.81,143.34 156.13,143.5 156.41,143.7C156.75,143.95 157.04,144.39 157.32,144.84C157.66,145.38 157.94,146.07 158.22,146.78C158.55,147.61 158.83,148.54 159.12,149.52C159.44,150.62 159.74,151.81 160.03,153.04C160.35,154.39 160.64,155.83 160.93,157.31C161.24,158.91 161.55,160.58 161.84,162.3C162.15,164.12 162.45,166.02 162.74,167.95C163.05,169.98 163.34,172.07 163.64,174.19C163.95,176.39 164.25,178.65 164.55,180.93C164.86,183.27 165.15,185.66 165.45,188.06C165.75,190.5 166.06,192.96 166.36,195.43C166.66,197.92 166.96,200.43 167.26,202.93C167.56,205.43 167.86,207.94 168.16,210.44C168.46,212.93 168.77,215.41 169.07,217.88C169.37,220.34 169.67,222.79 169.97,225.24C170.27,227.68 170.58,230.11 170.88,232.54C171.18,234.97 171.48,237.39 171.78,239.81C172.08,242.24 172.38,244.66 172.68,247.09C172.98,249.52 173.29,251.96 173.59,254.4C173.89,256.83 174.19,259.27 174.49,261.69C174.79,264.09 175.09,266.5 175.4,268.85C175.7,271.14 175.98,273.45 176.3,275.61C176.59,277.6 176.86,279.67 177.21,281.32C177.48,282.61 177.64,284.52 178.11,284.72C178.36,284.83 178.76,284.55 179.01,284.22C179.48,283.61 179.65,282.06 179.92,280.69C180.29,278.81 180.54,276.38 180.82,273.96C181.15,271.15 181.44,267.98 181.73,264.82C182.04,261.42 182.33,257.82 182.63,254.24C182.93,250.54 183.23,246.74 183.53,242.95C183.83,239.1 184.14,235.2 184.44,231.31C184.74,227.4 185.04,223.46 185.34,219.54C185.64,215.62 185.95,211.69 186.25,207.79C186.55,203.91 186.85,200.04 187.15,196.2C187.45,192.4 187.75,188.62 188.05,184.88C188.35,181.2 188.66,177.53 188.96,173.92C189.26,170.38 189.55,166.87 189.86,163.42C190.16,160.05 190.46,156.72 190.77,153.45C191.07,150.28 191.36,147.15 191.67,144.09C191.97,141.14 192.27,138.25 192.58,135.42C192.88,132.71 193.17,130.05 193.48,127.48C193.77,125.04 194.07,122.65 194.38,120.36C194.67,118.21 194.98,116.11 195.29,114.11C195.58,112.26 195.87,110.47 196.19,108.79C196.48,107.27 196.78,105.8 197.1,104.46C197.38,103.28 197.67,102.15 198,101.17C198.28,100.35 198.55,99.54 198.9,98.96C199.17,98.51 199.47,98.02 199.81,97.88C200.08,97.77 200.44,97.81 200.71,97.97C201.07,98.18 201.35,98.74 201.62,99.27C201.97,99.95 202.24,100.86 202.52,101.79C202.85,102.91 203.14,104.21 203.42,105.56C203.75,107.11 204.04,108.81 204.33,110.58C204.65,112.55 204.94,114.66 205.23,116.85C205.55,119.24 205.85,121.76 206.14,124.36C206.45,127.16 206.75,130.08 207.04,133.08C207.35,136.27 207.66,139.59 207.95,142.98C208.26,146.56 208.56,150.25 208.85,154.01C209.16,157.94 209.45,161.98 209.75,166.08C210.06,170.34 210.36,174.7 210.66,179.11C210.97,183.66 211.26,188.3 211.56,192.98C211.87,197.77 212.17,202.65 212.47,207.54C212.77,212.51 213.07,217.55 213.37,222.57C213.67,227.6 213.96,232.73 214.27,237.69C214.57,242.49 214.85,247.54 215.18,251.84C215.46,255.45 215.54,259.78 216.08,261.8C216.33,262.74 216.73,263.81 216.99,263.77C217.4,263.71 217.62,260.38 217.89,258.29C218.24,255.54 218.5,252.08 218.79,248.71C219.11,244.93 219.41,240.82 219.7,236.7C220.01,232.34 220.3,227.8 220.6,223.23C220.91,218.49 221.21,213.64 221.51,208.76C221.82,203.75 222.11,198.65 222.41,193.54C222.71,188.36 223.02,183.11 223.32,177.89C223.62,172.66 223.92,167.39 224.22,162.18C224.52,157.01 224.82,151.84 225.12,146.73C225.42,141.71 225.72,136.71 226.03,131.79C226.33,126.99 226.62,122.24 226.93,117.58C227.23,113.07 227.53,108.61 227.84,104.27C228.14,100.1 228.43,96 228.74,92.02C229.03,88.23 229.33,84.52 229.64,80.94C229.93,77.58 230.24,74.31 230.55,71.18C230.84,68.28 231.13,65.46 231.45,62.81C231.74,60.39 232.04,58.06 232.36,55.9C232.65,53.99 232.93,52.14 233.26,50.5C233.54,49.1 233.81,47.74 234.16,46.64C234.43,45.78 234.68,44.87 235.07,44.39C235.33,44.07 235.69,43.74 235.97,43.78C236.29,43.82 236.62,44.38 236.88,44.86C237.26,45.55 237.51,46.6 237.78,47.64C238.12,48.94 238.4,50.49 238.68,52.1C239.01,53.97 239.3,56.05 239.59,58.21C239.91,60.63 240.2,63.25 240.49,65.94C240.81,68.89 241.11,72.01 241.4,75.21C241.71,78.66 242.01,82.26 242.3,85.95C242.61,89.87 242.92,93.93 243.21,98.07C243.52,102.42 243.82,106.9 244.11,111.45C244.42,116.19 244.71,121.04 245.01,125.95C245.32,131.02 245.62,136.18 245.92,141.39C246.23,146.72 246.52,152.13 246.82,157.56C247.12,163.06 247.43,168.64 247.73,174.18C248.03,179.72 248.33,185.32 248.63,190.81C248.93,196.19 249.22,201.63 249.53,206.78C249.82,211.6 250.1,216.58 250.44,220.76C250.72,224.17 250.72,228.43 251.34,230.04C251.59,230.69 252,231.34 252.25,231.27C252.83,231.11 252.88,226.15 253.15,223.1C253.5,219.23 253.76,214.47 254.05,209.89C254.36,204.93 254.66,199.64 254.96,194.4C255.27,189.01 255.56,183.47 255.86,178C256.16,172.51 256.47,166.98 256.77,161.51C257.07,156.11 257.36,150.7 257.67,145.39C257.97,140.19 258.27,135.02 258.58,129.96C258.88,125.05 259.17,120.19 259.48,115.44C259.77,110.87 260.07,106.37 260.38,102C260.67,97.83 260.98,93.73 261.29,89.78C261.58,86.05 261.88,82.4 262.19,78.91C262.48,75.65 262.78,72.48 263.1,69.47C263.39,66.71 263.68,64.04 264,61.55C264.29,59.31 264.57,57.16 264.9,55.2C265.18,53.5 265.47,51.87 265.81,50.47C266.09,49.32 266.34,48.2 266.71,47.38C266.98,46.78 267.26,46.08 267.62,45.93C267.89,45.82 268.26,45.93 268.52,46.13C268.91,46.43 269.15,47.23 269.42,47.94C269.78,48.88 270.05,50.08 270.33,51.32C270.66,52.79 270.95,54.47 271.23,56.21C271.55,58.18 271.85,60.33 272.14,62.54C272.46,64.97 272.75,67.56 273.04,70.22C273.35,73.08 273.66,76.07 273.95,79.13C274.26,82.38 274.56,85.75 274.85,89.17C275.16,92.75 275.45,96.44 275.75,100.18C276.06,104.06 276.36,108.03 276.66,112.03C276.97,116.14 277.26,120.31 277.56,124.51C277.86,128.78 278.17,133.11 278.47,137.43C278.77,141.78 279.07,146.17 279.37,150.53C279.67,154.86 279.97,159.22 280.27,163.5C280.57,167.69 280.87,171.89 281.18,175.94C281.47,179.81 281.73,183.94 282.08,187.28C282.35,189.93 282.58,192.6 282.99,194.38C283.25,195.49 283.53,196.96 283.89,197.02C284.16,197.06 284.54,196.42 284.79,195.82C285.3,194.61 285.42,191.91 285.7,189.72C286.03,187.2 286.31,184.38 286.6,181.54C286.91,178.46 287.21,175.18 287.51,171.9C287.82,168.48 288.11,164.95 288.41,161.43C288.71,157.86 289.02,154.23 289.32,150.64C289.62,147.08 289.92,143.49 290.22,139.98C290.52,136.54 290.81,133.11 291.12,129.77C291.42,126.55 291.72,123.36 292.03,120.27C292.32,117.33 292.62,114.43 292.93,111.65C293.22,109.04 293.53,106.49 293.84,104.06C294.13,101.82 294.42,99.64 294.74,97.6C295.03,95.76 295.32,93.98 295.64,92.35C295.92,90.92 296.22,89.54 296.55,88.34C296.83,87.34 297.1,86.36 297.45,85.61C297.72,85.03 298,84.41 298.36,84.14C298.63,83.94 298.98,83.82 299.26,83.9C299.59,83.99 299.89,84.42 300.16,84.81C300.51,85.31 300.79,86.02 301.07,86.74C301.4,87.59 301.69,88.57 301.97,89.58C302.29,90.73 302.59,91.99 302.88,93.29C303.2,94.73 303.49,96.26 303.78,97.84C304.09,99.54 304.39,101.33 304.68,103.16C304.99,105.09 305.29,107.1 305.59,109.13C305.9,111.24 306.19,113.42 306.49,115.6C306.8,117.84 307.1,120.12 307.4,122.4C307.7,124.7 308,127.03 308.3,129.33C308.6,131.62 308.9,133.92 309.21,136.17C309.51,138.37 309.8,140.57 310.11,142.69C310.4,144.72 310.7,146.74 311.01,148.65C311.3,150.44 311.6,152.2 311.92,153.82C312.21,155.28 312.49,156.7 312.82,157.95C313.1,159.01 313.38,160.05 313.73,160.85C314,161.46 314.26,162.13 314.63,162.37C314.89,162.54 315.26,162.59 315.53,162.47C315.88,162.32 316.16,161.76 316.44,161.28C316.78,160.68 317.05,159.89 317.34,159.12C317.66,158.26 317.96,157.29 318.25,156.34C318.56,155.34 318.85,154.28 319.15,153.25C319.45,152.22 319.74,151.16 320.05,150.14C320.35,149.15 320.65,148.16 320.96,147.23C321.25,146.35 321.54,145.49 321.86,144.7C322.15,143.98 322.44,143.28 322.77,142.68C323.05,142.16 323.34,141.64 323.67,141.27C323.95,140.96 324.26,140.65 324.58,140.54C324.86,140.44 325.2,140.44 325.48,140.54C325.8,140.66 326.1,140.97 326.38,141.3C326.72,141.7 327.01,142.26 327.29,142.83C327.62,143.51 327.91,144.3 328.19,145.13C328.51,146.07 328.81,147.12 329.1,148.2C329.42,149.4 329.71,150.7 330,152.04C330.31,153.5 330.61,155.04 330.9,156.63C331.21,158.34 331.52,160.13 331.81,161.96C332.12,163.91 332.42,165.94 332.71,168.01C333.02,170.19 333.32,172.43 333.62,174.71C333.93,177.08 334.22,179.53 334.52,181.98C334.82,184.5 335.12,187.07 335.42,189.63C335.72,192.22 336.03,194.83 336.33,197.43C336.63,200.03 336.93,202.63 337.23,205.23C337.53,207.84 337.84,210.46 338.14,213.08C338.44,215.71 338.74,218.35 339.04,220.97C339.34,223.59 339.65,226.21 339.95,228.8C340.25,231.34 340.54,233.89 340.85,236.36C341.14,238.75 341.44,241.14 341.75,243.39C342.04,245.49 342.34,247.57 342.66,249.45C342.94,251.1 343.23,252.67 343.56,254.09C343.84,255.32 344.15,256.45 344.47,257.5C344.75,258.43 345.05,259.29 345.37,260.09C345.66,260.81 345.95,261.48 346.27,262.09C346.56,262.64 346.81,263.34 347.18,263.61C347.45,263.81 347.8,263.9 348.08,263.83C348.41,263.74 348.71,263.31 348.99,262.97C349.31,262.59 349.61,262.12 349.89,261.62C350.21,261.05 350.51,260.41 350.79,259.71C351.12,258.89 351.42,257.95 351.7,256.97C352.02,255.85 352.3,254.58 352.6,253.34C352.91,252.05 353.21,250.69 353.51,249.36C353.81,248.04 354.11,246.71 354.41,245.39C354.71,244.08 355.02,242.79 355.32,241.48C355.62,240.17 355.92,238.87 356.22,237.54C356.52,236.17 356.83,234.79 357.12,233.35C357.43,231.82 357.74,230.27 358.03,228.6C358.35,226.74 358.65,224.79 358.93,222.68C359.25,220.26 359.55,217.6 359.84,214.88C360.16,211.9 360.45,208.75 360.74,205.49C361.05,201.95 361.34,198.11 361.64,194.41C361.94,190.71 362.25,186.97 362.55,183.29C362.85,179.67 363.14,176.05 363.45,172.5C363.75,169.03 364.05,165.59 364.36,162.21C364.66,158.93 364.95,155.69 365.26,152.53C365.55,149.49 365.85,146.49 366.16,143.58C366.45,140.81 366.76,138.08 367.07,135.46C367.36,132.99 367.66,130.57 367.97,128.26C368.26,126.11 368.56,124.03 368.88,122.06C369.17,120.26 369.46,118.52 369.78,116.92C370.06,115.5 370.35,114.13 370.68,112.91C370.96,111.87 371.24,110.87 371.59,110.06C371.86,109.42 372.12,108.75 372.49,108.41C372.76,108.16 373.11,107.95 373.4,107.99C373.72,108.04 374.03,108.43 374.3,108.79C374.66,109.28 374.93,110.04 375.21,110.8C375.55,111.73 375.83,112.85 376.11,114.01C376.44,115.35 376.72,116.84 377.01,118.38C377.33,120.1 377.63,121.96 377.92,123.87C378.24,125.95 378.53,128.16 378.82,130.42C379.13,132.84 379.44,135.37 379.73,137.96C380.04,140.7 380.34,143.53 380.63,146.41C380.94,149.44 381.23,152.55 381.53,155.71C381.84,158.99 382.14,162.35 382.44,165.74C382.75,169.24 383.04,172.81 383.34,176.39C383.64,180.04 383.94,183.81 384.25,187.45C384.55,191.01 384.85,194.52 385.15,198.02C385.45,201.46 385.75,204.85 386.05,208.26C386.35,211.67 386.66,215.09 386.96,218.49C387.26,221.86 387.55,225.24 387.86,228.55C388.16,231.77 388.44,235.16 388.77,238.08C389.05,240.57 389.36,242.78 389.67,244.99C389.96,247.03 390.22,249.2 390.58,250.87C390.85,252.13 391.1,254.09 391.48,254.15C391.74,254.19 392.12,253.38 392.38,252.74C392.81,251.66 393.01,249.75 393.29,248.04C393.62,246 393.9,243.63 394.19,241.29C394.5,238.76 394.8,236.06 395.1,233.37C395.41,230.57 395.7,227.71 396,224.81C396.31,221.81 396.6,218.76 396.9,215.67C397.21,212.48 397.51,209.19 397.81,205.96C398.11,202.74 398.4,199.47 398.71,196.3C399.01,193.23 399.31,190.18 399.62,187.23C399.91,184.42 400.21,181.66 400.52,179C400.81,176.5 401.11,174.06 401.42,171.73C401.71,169.57 402.01,167.47 402.33,165.5C402.62,163.71 402.91,161.98 403.23,160.39C403.52,158.98 403.81,157.63 404.14,156.43C404.42,155.41 404.7,154.42 405.04,153.63C405.31,153 405.59,152.35 405.95,152C406.22,151.74 406.56,151.51 406.85,151.53C407.16,151.55 407.48,151.87 407.75,152.18C408.11,152.59 408.38,153.26 408.66,153.92C409,154.72 409.28,155.69 409.56,156.68C409.88,157.82 410.18,159.07 410.47,160.37C410.79,161.8 411.08,163.33 411.37,164.9C411.68,166.58 411.98,168.35 412.27,170.14C412.58,172.02 412.88,173.97 413.18,175.94C413.49,177.97 413.78,180.05 414.08,182.13C414.38,184.25 414.69,186.4 414.99,188.55C415.29,190.71 415.59,192.89 415.89,195.06C416.19,197.23 416.49,199.41 416.79,201.57C417.09,203.73 417.4,205.88 417.7,208.02C418,210.13 418.3,212.23 418.6,214.3C418.9,216.34 419.2,218.37 419.51,220.35C419.81,222.27 420.1,224.18 420.41,226.03C420.71,227.8 421.01,229.55 421.32,231.22C421.61,232.78 421.9,234.31 422.22,235.72C422.51,236.99 422.79,238.23 423.12,239.3C423.4,240.2 423.67,241.09 424.03,241.74C424.3,242.23 424.58,242.75 424.93,242.92C425.2,243.05 425.56,243.04 425.84,242.91C426.18,242.76 426.46,242.31 426.74,241.91C427.07,241.43 427.35,240.79 427.64,240.16C427.96,239.46 428.26,238.67 428.55,237.89C428.86,237.06 429.15,236.19 429.45,235.32C429.75,234.44 430.06,233.53 430.36,232.64C430.66,231.75 430.96,230.86 431.26,229.99C431.56,229.15 431.85,228.31 432.16,227.51C432.46,226.74 432.76,225.99 433.07,225.28C433.36,224.62 433.65,223.98 433.97,223.39C434.26,222.85 434.56,222.34 434.88,221.89C435.17,221.49 435.46,221.12 435.78,220.83C436.06,220.57 436.36,220.34 436.68,220.21C436.97,220.09 437.29,220.04 437.59,220.06C437.89,220.08 438.2,220.2 438.49,220.36C438.81,220.53 439.11,220.8 439.4,221.09C439.72,221.41 440.01,221.82 440.3,222.23C440.62,222.68 440.92,223.19 441.21,223.72C441.52,224.29 441.82,224.9 442.11,225.52C442.42,226.18 442.71,226.86 443.01,227.56C443.32,228.29 443.62,229.04 443.92,229.8C444.23,230.58 444.52,231.37 444.82,232.17C445.12,232.98 445.43,233.81 445.73,234.63C446.03,235.46 446.33,236.29 446.63,237.12C446.93,237.95 447.23,238.77 447.53,239.59C447.83,240.4 448.14,241.22 448.44,242.02C448.74,242.81 449.04,243.59 449.34,244.37C449.64,245.13 449.95,245.89 450.25,246.64C450.55,247.37 450.85,248.09 451.15,248.81C451.45,249.51 451.75,250.21 452.05,250.9C452.35,251.58 452.66,252.24 452.96,252.9C453.26,253.55 453.56,254.19 453.86,254.82C454.16,255.44 454.47,256.06 454.77,256.67C455.07,257.27 455.37,257.86 455.67,258.45C455.97,259.03 456.28,259.62 456.58,260.19C456.88,260.76 457.18,261.31 457.48,261.87C457.78,262.42 458.08,262.98 458.38,263.52C458.68,264.06 458.98,264.6 459.29,265.12C459.59,265.63 459.88,266.14 460.19,266.63C460.49,267.11 460.79,267.58 461.1,268.02Q461.39,268.43 462,269.17" style="vector-effect: non-scaling-stroke; fill: none; stroke: rgb(231, 107, 243); stroke-opacity: 1; stroke-width: 2px; opacity: 1;"/></g><g class="points"/><g class="text"/></g></g></g><g class="overplot"/><path class="xlines-above crisp" d="M0,0" style="fill: none;"/><path class="ylines-above crisp" d="M0,0" style="fill: none;"/><g class="overlines-above"/><g class="xaxislayer-above"><g class="xtick"><text text-anchor="middle" x="0" y="433" transform="translate(80,0)" style="font-family: 'Open Sans', verdana, arial, sans-serif; font-size: 12px; fill: rgb(42, 63, 95); fill-opacity: 1; white-space: pre;">0</text></g><g class="xtick"><text text-anchor="middle" x="0" y="433" transform="translate(170.23000000000002,0)" style="font-family: 'Open Sans', verdana, arial, sans-serif; font-size: 12px; fill: rgb(42, 63, 95); fill-opacity: 1; white-space: pre;">100</text></g><g class="xtick"><text text-anchor="middle" x="0" y="433" transform="translate(260.47,0)" style="font-family: 'Open Sans', verdana, arial, sans-serif; font-size: 12px; fill: rgb(42, 63, 95); fill-opacity: 1; white-space: pre;">200</text></g><g class="xtick"><text text-anchor="middle" x="0" y="433" transform="translate(350.7,0)" style="font-family: 'Open Sans', verdana, arial, sans-serif; font-size: 12px; fill: rgb(42, 63, 95); fill-opacity: 1; white-space: pre;">300</text></g><g class="xtick"><text text-anchor="middle" x="0" y="433" transform="translate(440.94,0)" style="font-family: 'Open Sans', verdana, arial, sans-serif; font-size: 12px; fill: rgb(42, 63, 95); fill-opacity: 1; white-space: pre;">400</text></g><g class="xtick"><text text-anchor="middle" x="0" y="433" transform="translate(531.1700000000001,0)" style="font-family: 'Open Sans', verdana, arial, sans-serif; font-size: 12px; fill: rgb(42, 63, 95); fill-opacity: 1; white-space: pre;">500</text></g></g><g class="yaxislayer-above"><g class="ytick"><text text-anchor="end" x="79" y="4.199999999999999" transform="translate(0,397.22)" style="font-family: 'Open Sans', verdana, arial, sans-serif; font-size: 12px; fill: rgb(42, 63, 95); fill-opacity: 1; white-space: pre;">200</text></g><g class="ytick"><text text-anchor="end" x="79" y="4.199999999999999" transform="translate(0,360.2)" style="font-family: 'Open Sans', verdana, arial, sans-serif; font-size: 12px; fill: rgb(42, 63, 95); fill-opacity: 1; white-space: pre;">300</text></g><g class="ytick"><text text-anchor="end" x="79" y="4.199999999999999" transform="translate(0,323.16999999999996)" style="font-family: 'Open Sans', verdana, arial, sans-serif; font-size: 12px; fill: rgb(42, 63, 95); fill-opacity: 1; white-space: pre;">400</text></g><g class="ytick"><text text-anchor="end" x="79" y="4.199999999999999" transform="translate(0,286.15)" style="font-family: 'Open Sans', verdana, arial, sans-serif; font-size: 12px; fill: rgb(42, 63, 95); fill-opacity: 1; white-space: pre;">500</text></g><g class="ytick"><text text-anchor="end" x="79" y="4.199999999999999" transform="translate(0,249.13)" style="font-family: 'Open Sans', verdana, arial, sans-serif; font-size: 12px; fill: rgb(42, 63, 95); fill-opacity: 1; white-space: pre;">600</text></g><g class="ytick"><text text-anchor="end" x="79" y="4.199999999999999" transform="translate(0,212.1)" style="font-family: 'Open Sans', verdana, arial, sans-serif; font-size: 12px; fill: rgb(42, 63, 95); fill-opacity: 1; white-space: pre;">700</text></g><g class="ytick"><text text-anchor="end" x="79" y="4.199999999999999" transform="translate(0,175.07999999999998)" style="font-family: 'Open Sans', verdana, arial, sans-serif; font-size: 12px; fill: rgb(42, 63, 95); fill-opacity: 1; white-space: pre;">800</text></g><g class="ytick"><text text-anchor="end" x="79" y="4.199999999999999" transform="translate(0,138.05)" style="font-family: 'Open Sans', verdana, arial, sans-serif; font-size: 12px; fill: rgb(42, 63, 95); fill-opacity: 1; white-space: pre;">900</text></g><g class="ytick"><text text-anchor="end" x="79" y="4.199999999999999" transform="translate(0,101.03)" style="font-family: 'Open Sans', verdana, arial, sans-serif; font-size: 12px; fill: rgb(42, 63, 95); fill-opacity: 1; white-space: pre;">1000</text></g></g><g class="overaxes-above"/></g></g><g class="polarlayer"/><g class="ternarylayer"/><g class="geolayer"/><g class="funnelarealayer"/><g class="pielayer"/><g class="treemaplayer"/><g class="sunburstlayer"/><g class="glimages"/><defs id="topdefs-728849"><g class="clips"/><clipPath id="legend728849"><rect width="137" height="67" x="0" y="0"/></clipPath></defs><g class="layer-above"><g class="imagelayer"/><g class="shapelayer"/></g><g class="infolayer"><g class="legend" pointer-events="all" transform="translate(551.24, 100)"><rect class="bg" shape-rendering="crispEdges" width="137" height="67" x="0" y="0" style="stroke: rgb(68, 68, 68); stroke-opacity: 1; fill: rgb(255, 255, 255); fill-opacity: 1; stroke-width: 0px;"/><g class="scrollbox" transform="translate(0, 0)" clip-path="url('#legend728849')"><g class="groups"><g class="traces" transform="translate(0, 14.5)" style="opacity: 1;"><text class="legendtext" text-anchor="start" x="40" y="4.680000000000001" style="font-family: 'Open Sans', verdana, arial, sans-serif; font-size: 12px; fill: rgb(42, 63, 95); fill-opacity: 1; white-space: pre;">Average Class I</text><g class="layers" style="opacity: 1;"><g class="legendfill"/><g class="legendlines"><path class="js-line" d="M5,0h30" style="fill: none; stroke: rgb(0, 100, 80); stroke-opacity: 1; stroke-width: 2px;"/></g><g class="legendsymbols"><g class="legendpoints"/></g></g><rect class="legendtoggle" x="0" y="-9.5" width="131.15625" height="19" style="fill: rgb(0, 0, 0); fill-opacity: 0;"/></g><g class="traces" transform="translate(0, 33.5)" style="opacity: 1;"><text class="legendtext" text-anchor="start" x="40" y="4.680000000000001" style="font-family: 'Open Sans', verdana, arial, sans-serif; font-size: 12px; fill: rgb(42, 63, 95); fill-opacity: 1; white-space: pre;">Average Class II</text><g class="layers" style="opacity: 1;"><g class="legendfill"/><g class="legendlines"><path class="js-line" d="M5,0h30" style="fill: none; stroke: rgb(0, 176, 246); stroke-opacity: 1; stroke-width: 2px;"/></g><g class="legendsymbols"><g class="legendpoints"/></g></g><rect class="legendtoggle" x="0" y="-9.5" width="131.15625" height="19" style="fill: rgb(0, 0, 0); fill-opacity: 0;"/></g><g class="traces" transform="translate(0, 52.5)" style="opacity: 1;"><text class="legendtext" text-anchor="start" x="40" y="4.680000000000001" style="font-family: 'Open Sans', verdana, arial, sans-serif; font-size: 12px; fill: rgb(42, 63, 95); fill-opacity: 1; white-space: pre;">Average Class III</text><g class="layers" style="opacity: 1;"><g class="legendfill"/><g class="legendlines"><path class="js-line" d="M5,0h30" style="fill: none; stroke: rgb(231, 107, 243); stroke-opacity: 1; stroke-width: 2px;"/></g><g class="legendsymbols"><g class="legendpoints"/></g></g><rect class="legendtoggle" x="0" y="-9.5" width="131.15625" height="19" style="fill: rgb(0, 0, 0); fill-opacity: 0;"/></g></g></g><rect class="scrollbar" rx="20" ry="3" width="0" height="0" x="0" y="0" style="fill: rgb(128, 139, 164); fill-opacity: 1;"/></g><g class="g-gtitle"><text class="gtitle" x="35" y="50" text-anchor="start" dy="0em" style="font-family: 'Open Sans', verdana, arial, sans-serif; font-size: 17px; fill: rgb(42, 63, 95); opacity: 1; font-weight: normal; white-space: pre;">Average curve: volume_group</text></g><g class="g-xtitle"><text class="xtitle" x="311" y="460.8" text-anchor="middle" style="font-family: 'Open Sans', verdana, arial, sans-serif; font-size: 14px; fill: rgb(42, 63, 95); opacity: 1; font-weight: normal; white-space: pre;">Domain</text></g><g class="g-ytitle"><text class="ytitle" transform="rotate(-90,27.496875000000003,260)" x="27.496875000000003" y="260" text-anchor="middle" style="font-family: 'Open Sans', verdana, arial, sans-serif; font-size: 14px; fill: rgb(42, 63, 95); opacity: 1; font-weight: normal; white-space: pre;">Frequency</text></g></g></svg>