<svg class="main-svg" xmlns="http://www.w3.org/2000/svg" xmlns:xlink="http://www.w3.org/1999/xlink" width="700" height="500" style="" viewBox="0 0 700 500"><rect x="0" y="0" width="700" height="500" style="fill: rgb(255, 255, 255); fill-opacity: 1;"/><defs id="defs-d9f7b3"><g class="clips"><clipPath id="clipd9f7b3xyplot" class="plotclip"><rect width="540" height="320"/></clipPath><clipPath class="axesclip" id="clipd9f7b3x"><rect x="80" y="0" width="540" height="500"/></clipPath><clipPath class="axesclip" id="clipd9f7b3y"><rect x="0" y="100" width="700" height="320"/></clipPath><clipPath class="axesclip" id="clipd9f7b3xy"><rect x="80" y="100" width="540" height="320"/></clipPath></g><g class="gradients"/></defs><g class="bglayer"><rect class="bg" x="80" y="100" width="540" height="320" style="fill: rgb(229, 236, 246); fill-opacity: 1; stroke-width: 0;"/></g><g class="layer-below"><g class="imagelayer"/><g class="shapelayer"/></g><g class="cartesianlayer"><g class="subplot xy"><g class="layer-subplot"><g class="shapelayer"/><g class="imagelayer"/></g><g class="gridlayer"><g class="x"><path class="xgrid crisp" transform="translate(185.47,0)" d="M0,100v320" style="stroke: rgb(255, 255, 255); stroke-opacity: 1; stroke-width: 1px;"/><path class="xgrid crisp" transform="translate(290.94,0)" d="M0,100v320" style="stroke: rgb(255, 255, 255); stroke-opacity: 1; stroke-width: 1px;"/><path class="xgrid crisp" transform="translate(396.41,0)" d="M0,100v320" style="stroke: rgb(255, 255, 255); stroke-opacity: 1; stroke-width: 1px;"/><path class="xgrid crisp" transform="translate(501.88,0)" d="M0,100v320" style="stroke: rgb(255, 255, 255); stroke-opacity: 1; stroke-width: 1px;"/><path class="xgrid crisp" transform="translate(607.34,0)" d="M0,100v320" style="stroke: rgb(255, 255, 255); stroke-opacity: 1; stroke-width: 1px;"/></g><g class="y"><path class="ygrid crisp" transform="translate(0,352.7)" d="M80,0h540" style="stroke: rgb(255, 255, 255); stroke-opacity: 1; stroke-width: 1px;"/><path class="ygrid crisp" transform="translate(0,300.74)" d="M80,0h540" style="stroke: rgb(255, 255, 255); stroke-opacity: 1; stroke-width: 1px;"/><path class="ygrid crisp" transform="translate(0,248.79)" d="M80,0h540" style="stroke: rgb(255, 255, 255); stroke-opacity: 1; stroke-width: 1px;"/><path class="ygrid crisp" transform="translate(0,196.82999999999998)" d="M80,0h540" style="stroke: rgb(255, 255, 255); stroke-opacity: 1; stroke-width: 1px;"/><path class="ygrid crisp" transform="translate(0,144.88)" d="M80,0h540" style="stroke: rgb(255, 255, 255); stroke-opacity: 1; stroke-width: 1px;"/></g></g><g class="zerolinelayer"><path class="xzl zl crisp" transform="translate(80,0)" d="M0,100v320" style="stroke: rgb(255, 255, 255); stroke-opacity: 1; stroke-width: 2px;"/><path class="yzl zl crisp" transform="translate(0,404.65)" d="M80,0h540" style="stroke: rgb(255, 255, 255); stroke-opacity: 1; stroke-width: 2px;"/></g><path class="xlines-below"/><path class="ylines-below"/><g class="overlines-below"/><g class="xaxislayer-below"/><g class="yaxislayer-below"/><g class="overaxes-below"/><g class="plot" transform="translate(80, 100)" clip-path="url('#clipd9f7b3xyplot')"><g class="scatterlayer mlayer"><g class="trace scatter trace8f8576" style="stroke-miterlimit: 2; opacity: 1;"><g class="fills"/><g class="errorbars"/><g class="lines"><path class="js-line" d="M0,16Q1.3,232.9 2.12,232.9C2.76,232.9 3.57,101.55 4.24,101.55C4.99,101.55 5.59,266.83 6.35,266.83C7.02,266.83 7.66,138.52 8.47,138.52C9.11,138.52 9.61,199.68 10.59,220.54C11.19,233.43 12.02,241.08 12.71,251.8C13.44,263.15 14.15,286.87 14.82,286.87C15.57,286.87 15.91,253.02 16.94,242.15C17.54,235.87 18.43,227.32 19.06,227.34C19.9,227.37 19.93,253.84 21.18,254.02C21.76,254.11 22.54,250.23 23.29,248.55C23.96,247.06 24.8,246.2 25.41,244.42C26.37,241.58 26.93,232.78 27.53,232.81C28.52,232.87 28.82,264.8 29.65,264.82C30.28,264.84 30.89,246.49 31.76,246.44C32.38,246.4 33.29,251.31 33.88,255.55C35.18,264.95 33.42,300.19 36,301.52C36.6,301.83 37.53,301.07 38.12,300.16C39.55,297.93 39.13,288.49 40.24,285.25C40.83,283.53 41.76,283.3 42.35,281.56C43.5,278.15 43.45,265.59 44.47,265.46C45.07,265.38 46,268.17 46.59,270.7C47.93,276.5 48.09,300.42 48.71,300.41C49.6,300.39 50.1,239.19 50.82,239.19C51.51,239.19 52.3,294.6 52.94,294.6C53.74,294.59 54.15,208.47 55.06,208.46C55.67,208.45 56.18,237.74 57.18,247.43C57.78,253.24 58.62,261.31 59.29,261.3C60.04,261.29 60.5,248.22 61.41,243.51C62.02,240.34 62.93,235.61 63.53,235.66C64.57,235.75 64.92,252.44 65.65,260.45C66.33,267.99 67.16,282.41 67.76,282.39C68.72,282.36 68.73,226.8 69.88,226.74C70.47,226.71 71.36,235.91 72,241.31C72.8,248.04 73.44,264.06 74.12,264.06C74.85,264.06 75.46,237.82 76.24,237.81C76.89,237.8 77.52,256.19 78.35,256.23C78.98,256.26 79.63,245.74 80.47,245.68C81.1,245.63 82,251.56 82.59,251.48C83.7,251.34 84.08,229.76 84.71,229.77C85.55,229.79 85.67,259.83 86.82,268.5C87.41,272.95 88.06,278.41 88.94,278.51C89.56,278.58 90.28,275.27 91.06,273.96C91.72,272.85 92.59,270.9 93.18,271.07C94.92,271.57 94.66,302.29 95.29,302.28C96.13,302.27 95.89,256.35 97.41,246.09C98,242.13 98.94,237.93 99.53,237.99C100.82,238.12 100.78,267.44 101.65,278.71C102.27,286.73 103.08,299.28 103.76,299.27C104.5,299.26 105.24,284.03 105.88,275.06C106.68,263.86 107.26,237.24 108,237.24C108.68,237.24 109.42,268.87 110.12,268.87C110.83,268.87 110.32,237.48 112.24,236.77C112.83,236.55 113.77,239.13 114.35,238.94C115.65,238.51 115.84,223.96 116.47,223.98C117.31,224.01 117.85,250.46 118.59,250.47C119.27,250.48 120.08,228.49 120.71,228.5C121.56,228.52 120.37,264.79 122.82,268.74C123.42,269.71 124.34,270.27 124.94,269.94C127.27,268.67 126.16,243.08 127.06,233.08C127.68,226.19 128.44,221.18 129.18,215.67C129.85,210.68 130.7,201.38 131.29,201.41C132.47,201.48 132.6,259.65 133.41,259.66C134.05,259.67 133.65,223.33 135.53,222.79C136.12,222.62 137.06,224.28 137.65,225.78C138.89,228.96 138.23,239.88 139.76,242.08C140.35,242.92 141.29,242.3 141.88,243.19C143.81,246.09 143.38,268.51 144,268.5C144.89,268.48 145.41,216.65 146.12,216.65C146.83,216.65 147.53,268.84 148.24,268.84C148.94,268.84 149.69,217.57 150.35,217.57C151.11,217.57 151.7,285.23 152.47,285.23C153.13,285.23 153.86,235.96 154.59,235.96C155.28,235.96 155.2,280.15 156.71,280.36C157.29,280.44 158.23,277.25 158.82,274.03C160.51,264.75 160.06,218.62 160.94,218.6C161.56,218.59 161.98,246.34 163.06,246.44C163.65,246.49 164.59,238.15 165.18,238.21C166.41,238.33 166.68,275.76 167.29,275.75C168.19,275.74 168.15,195.62 169.41,195.56C170,195.53 170.92,205.81 171.53,212.81C172.47,223.64 172.54,254.21 173.65,254.28C174.24,254.32 175.13,242.61 175.76,242.64C176.6,242.67 177.25,255.78 177.88,263.89C178.72,274.71 179.26,301.83 180,301.83C180.68,301.83 180.97,277.07 182.12,269.96C182.71,266.3 183.65,265.39 184.24,261.78C185.35,255.01 185.72,232.15 186.35,232.16C187.17,232.17 187.82,282.23 188.47,282.23C189.26,282.22 189.26,209.5 190.59,209.42C191.18,209.38 192.12,217.38 192.71,223.4C193.78,234.22 193.78,268.97 194.82,269.02C195.42,269.05 196.3,253.99 196.94,254.01C197.74,254.03 198.44,277.41 199.06,277.4C199.93,277.38 199.94,231.98 201.18,231.88C201.76,231.83 202.7,237.44 203.29,241.86C204.42,250.33 204.39,279.21 205.41,279.27C206.01,279.3 206.84,266.59 207.53,266.6C208.26,266.61 209.05,280.81 209.65,280.78C210.67,280.73 211.06,252.76 211.76,238.69C212.47,224.54 213.24,196.09 213.88,196.1C214.69,196.11 215.19,263.58 216,263.59C216.64,263.6 217.2,221.85 218.12,221.82C218.73,221.8 219.6,233.34 220.24,240.21C221.05,248.91 221.64,260.09 222.35,269.86C223.05,279.42 223.82,298.25 224.47,298.24C225.26,298.23 225.81,268.78 226.59,255.87C227.25,244.99 227.94,225.81 228.71,225.8C229.37,225.79 230.2,238.98 230.82,247.43C231.69,259.33 230.44,286.21 232.94,290.48C233.54,291.51 234.47,292.05 235.06,291.81C236.17,291.36 236.58,286.79 237.18,283.19C238.16,277.36 238.48,259.98 239.29,259.96C239.93,259.94 240.48,274.23 241.41,274.32C242.02,274.38 242.51,269.17 243.53,268.49C244.13,268.09 244.95,268.63 245.65,268.59C246.36,268.55 247.17,267.78 247.76,268.23C249.59,269.62 249.23,288.98 249.88,288.97C250.66,288.96 251.26,259.46 252,259.46C252.68,259.46 253.45,284.46 254.12,284.45C254.87,284.44 255.6,265.09 256.24,253.78C257.04,239.79 257.61,206.8 258.35,206.8C259.03,206.8 259.63,234.94 260.47,246.15C261.1,254.54 261.57,268.01 262.59,268.11C263.19,268.17 264.1,260.82 264.71,260.87C265.62,260.94 266.04,277.46 266.82,277.48C267.48,277.5 268.17,265.75 268.94,265.72C269.6,265.7 270.46,274.12 271.06,274.07C272.03,274 272.04,252.33 273.18,252.17C273.77,252.09 274.71,254.84 275.29,257.62C276.94,265.45 276.76,304 277.41,304C278.2,303.99 278.8,235.17 279.53,235.17C280.22,235.17 280.7,295.78 281.65,295.8C282.26,295.82 282.68,276.81 283.76,271.1C284.35,267.97 285.29,267.54 285.88,263.98C287.49,254.2 287.32,207.82 288,207.82C288.74,207.82 289.35,275.91 290.12,275.91C290.78,275.91 291.44,226.36 292.24,226.35C292.88,226.34 292.47,258.23 294.35,258.87C294.94,259.07 295.87,256.32 296.47,256.46C297.45,256.7 298,264.81 298.59,264.76C299.67,264.67 300.09,236.59 300.71,236.6C301.59,236.62 302.12,293.82 302.82,293.82C303.53,293.82 304.16,234.06 304.94,234.05C305.6,234.05 305.01,270.63 307.06,276.33C307.65,277.98 308.59,279.34 309.18,279.17C310.75,278.72 310.61,253.77 311.29,253.77C312.03,253.78 312.73,284.35 313.41,284.35C314.15,284.35 314.88,247.17 315.53,247.18C316.31,247.19 316.87,300.44 317.65,300.45C318.3,300.46 319.04,262.52 319.76,262.52C320.45,262.52 321.16,297.53 321.88,297.53C322.58,297.53 323.1,273.34 324,264.38C324.62,258.23 325.5,248.86 326.12,248.88C326.99,248.91 327.52,279.19 328.24,279.19C328.93,279.19 329.38,258.62 330.35,251.66C330.95,247.35 331.86,241.24 332.47,241.28C333.4,241.33 333.88,257.61 334.59,265.75C335.3,273.86 336.12,290.05 336.71,290.03C337.87,289.99 337.99,195.83 338.82,195.82C339.45,195.81 339.47,239.73 340.94,249.81C341.53,253.81 342.12,257.88 343.06,258.07C343.67,258.19 344.42,256 345.18,255.23C345.84,254.56 346.71,253.39 347.29,253.63C348.7,254.21 348.78,268.9 349.41,268.88C350.25,268.86 349.68,242.91 351.53,242.12C352.12,241.87 353.06,242.72 353.65,243.86C355.59,247.6 354.44,273.02 355.76,273.22C356.35,273.31 357.25,269.92 357.88,267.82C358.71,265.05 359.3,257.96 360,257.96C360.71,257.96 361.49,264.15 362.12,268.04C362.97,273.31 363.54,286.76 364.24,286.76C364.95,286.76 365.37,272.2 366.35,267.35C366.95,264.35 367.87,263.28 368.47,260.21C369.5,254.9 369.57,238.17 370.59,238.08C371.19,238.03 372.12,241.96 372.71,245.51C374.09,253.87 374.19,288.43 374.82,288.42C375.65,288.41 376.18,213.45 376.94,213.45C377.61,213.45 378.26,271.85 379.06,271.86C379.71,271.87 380.38,244.77 381.18,233.37C381.82,224.25 382.64,208.75 383.29,208.76C384.07,208.77 384.74,231.38 385.41,243.67C386.16,257.4 386.48,287.26 387.53,287.31C388.13,287.34 388.8,273.56 389.65,273.5C390.27,273.46 391.14,280.7 391.76,280.65C392.64,280.59 393.19,265.62 393.88,265.62C394.6,265.62 395.33,281.95 396,281.94C396.76,281.93 396.76,264.72 398.12,260.79C398.71,259.1 399.63,258.91 400.24,257.45C401.18,255.18 401.75,248.09 402.35,248.13C403.38,248.21 403.64,276.6 404.47,276.62C405.11,276.64 405.82,259.82 406.59,259.8C407.25,259.79 408.11,272.22 408.71,272.19C409.76,272.13 409.89,233.2 410.82,233.17C411.43,233.15 412.33,249.63 412.94,249.61C413.85,249.58 414.35,213.08 415.06,213.08C415.76,213.08 416.38,237.88 417.18,248.36C417.82,256.81 418.69,271.23 419.29,271.21C420.31,271.18 420.69,204.02 421.41,204.02C422.1,204.02 422.28,266.48 423.53,266.55C424.12,266.59 425.06,258.86 425.65,252.84C426.77,241.43 427.05,202.99 427.76,202.99C428.46,202.99 429.21,250.84 429.88,250.84C430.64,250.84 431.19,188.81 432,188.8C432.64,188.79 432.52,227.66 434.12,227.95C434.71,228.06 435.65,223.03 436.24,223.14C437.86,223.44 436.81,263.15 438.35,263.4C438.94,263.49 439.71,259.61 440.47,257.96C441.14,256.52 442,256.05 442.59,254.02C444.14,248.63 444.07,222.69 444.71,222.7C445.51,222.71 446.09,271.21 446.82,271.21C447.5,271.21 448.01,229.06 448.94,229.03C449.55,229.01 450.24,241.94 451.06,247.2C451.7,251.27 451.86,257.06 453.18,257.98C453.76,258.38 454.71,257.22 455.29,257.63C456.64,258.58 456.77,268.97 457.41,268.95C458.23,268.92 458.6,250.07 459.53,250C460.14,249.95 461.06,254.13 461.65,257.89C463.04,266.8 462.96,303.64 463.76,303.65C464.4,303.66 464.55,280.11 465.88,274.36C466.47,271.83 467.3,270.87 468,269.1C468.71,267.31 469.53,263.61 470.12,263.69C471.19,263.83 471.12,278.43 472.24,282.59C472.83,284.77 473.77,287.46 474.35,287.36C475.74,287.12 475.82,257.68 476.47,257.69C477.26,257.7 477.89,300.83 478.59,300.83C479.31,300.83 478.46,261.03 480.71,255.5C481.31,254.04 482.06,253.25 482.82,253.12C483.48,253 484.34,253.57 484.94,254.27C485.91,255.4 486.47,260.22 487.06,260.13C488.47,259.92 488.5,223.82 489.18,223.82C489.91,223.82 490.48,264.99 491.29,265C491.93,265.01 492.7,239.46 493.41,239.46C494.11,239.46 494.67,264.71 495.53,264.74C496.16,264.76 497.06,257.55 497.65,251.33C498.96,237.36 499.13,182.93 499.76,182.93C500.58,182.94 500.95,297.59 501.88,297.6C502.49,297.61 501.71,249.03 504,248.28C504.6,248.08 505.52,251.05 506.12,250.91C507.11,250.68 507.65,241.87 508.24,241.92C509.37,242.02 509.5,275.43 510.35,275.45C510.98,275.47 511.75,257.03 512.47,257.03C513.17,257.03 513.99,274.28 514.59,274.26C515.61,274.22 515.84,238.15 516.71,224.25C517.33,214.29 518.21,198.64 518.82,198.65C519.76,198.67 519.96,245.14 520.94,260.88C521.54,270.53 522.41,284.19 523.06,284.18C523.84,284.17 523.59,256.51 525.18,250.9C525.76,248.84 526.71,246.82 527.29,246.94C528.74,247.24 528.33,274.34 529.41,274.44C530,274.49 530.78,266.39 531.53,266.37C532.2,266.35 533.06,272.92 533.65,272.85C534.71,272.73 534.99,251.34 535.76,251.33C536.42,251.32 537.15,266.77 537.88,266.78Q538.56,266.79 540,253.49" style="vector-effect: non-scaling-stroke; fill: none; stroke: rgb(0, 100, 80); stroke-opacity: 1; stroke-width: 2px; opacity: 1;"/></g><g class="points"/><g class="text"/></g></g></g><g class="overplot"/><path class="xlines-above crisp" d="M0,0" style="fill: none;"/><path class="ylines-above crisp" d="M0,0" style="fill: none;"/><g class="overlines-above"/><g class="xaxislayer-above"><g class="xtick"><text text-anchor="middle" x="0" y="433" transform="translate(80,0)" style="font-family: 'Open Sans', verdana, arial, sans-serif; font-size: 12px; fill: rgb(42, 63, 95); fill-opacity: 1; white-space: pre;">0</text></g><g class="xtick"><text text-anchor="middle" x="0" y="433" transform="translate(185.47,0)" style="font-family: 'Open Sans', verdana, arial, sans-serif; font-size: 12px; fill: rgb(42, 63, 95); fill-opacity: 1; white-space: pre;">50</text></g><g class="xtick"><text text-anchor="middle" x="0" y="433" transform="translate(290.94,0)" style="font-family: 'Open Sans', verdana, arial, sans-serif; font-size: 12px; fill: rgb(42, 63, 95); fill-opacity: 1; white-space: pre;">100</text></g><g class="xtick"><text text-anchor="middle" x="0" y="433" transform="translate(396.41,0)" style="font-family: 'Open Sans', verdana, arial, sans-serif; font-size: 12px; fill: rgb(42, 63, 95); fill-opacity: 1; white-space: pre;">150</text></g><g class="xtick"><text text-anchor="middle" x="0" y="433" transform="translate(501.88,0)" style="font-family: 'Open Sans', verdana, arial, sans-serif; font-size: 12px; fill: rgb(42, 63, 95); fill-opacity: 1; white-space: pre;">200</text></g><g class="xtick"><text text-anchor="middle" x="0" y="433" transform="translate(607.34,0)" style="font-family: 'Open Sans', verdana, arial, sans-serif; font-size: 12px; fill: rgb(42, 63, 95); fill-opacity: 1; white-space: pre;">250</text></g></g><g class="yaxislayer-above"><g class="ytick"><text text-anchor="end" x="79" y="4.199999999999999" transform="translate(0,404.65)" style="font-family: 'Open Sans', verdana, arial, sans-serif; font-size: 12px; fill: rgb(42, 63, 95); fill-opacity: 1; white-space: pre;">0</text></g><g class="ytick"><text text-anchor="end" x="79" y="4.199999999999999" transform="translate(0,352.7)" style="font-family: 'Open Sans', verdana, arial, sans-serif; font-size: 12px; fill: rgb(42, 63, 95); fill-opacity: 1; white-space: pre;">100</text></g><g class="ytick"><text text-anchor="end" x="79" y="4.199999999999999" transform="translate(0,300.74)" style="font-family: 'Open Sans', verdana, arial, sans-serif; font-size: 12px; fill: rgb(42, 63, 95); fill-opacity: 1; white-space: pre;">200</text></g><g class="ytick"><text text-anchor="end" x="79" y="4.199999999999999" transform="translate(0,248.79)" style="font-family: 'Open Sans', verdana, arial, sans-serif; font-size: 12px; fill: rgb(42, 63, 95); fill-opacity: 1; white-space: pre;">300</text></g><g class="ytick"><text text-anchor="end" x="79" y="4.199999999999999" transform="translate(0,196.82999999999998)" style="font-family: 'Open Sans', verdana, arial, sans-serif; font-size: 12px; fill: rgb(42, 63, 95); fill-opacity: 1; white-space: pre;">400</text></g><g class="ytick"><text text-anchor="end" x="79" y="4.199999999999999" transform="translate(0,144.88)" style="font-family: 'Open Sans', verdana, arial, sans-serif; font-size: 12px; fill: rgb(42, 63, 95); fill-opacity: 1; white-space: pre;">500</text></g></g><g class="overaxes-above"/></g></g><g class="polarlayer"/><g class="ternarylayer"/><g class="geolayer"/><g class="funnelarealayer"/><g class="pielayer"/><g class="treemaplayer"/><g class="sunburstlayer"/><g class="glimages"/><defs id="topdefs-d9f7b3"><g class="clips"/></defs><g class="layer-above"><g class="imagelayer"/><g class="shapelayer"/></g><g class="infolayer"><g class="g-gtitle"><text class="gtitle" x="35" y="50" text-anchor="start" dy="0em" style="font-family: 'Open Sans', verdana, arial, sans-serif; font-size: 17px; fill: rgb(42, 63, 95); opacity: 1; font-weight: normal; white-space: pre;">GP41 curve: alpha-structure_group</text></g><g class="g-xtitle"><text class="xtitle" x="350" y="460.8" text-anchor="middle" style="font-family: 'Open Sans', verdana, arial, sans-serif; font-size: 14px; fill: rgb(42, 63, 95); opacity: 1; font-weight: normal; white-space: pre;">Domain</text></g><g class="g-ytitle"><text class="ytitle" transform="rotate(-90,34.16875,260)" x="34.16875" y="260" text-anchor="middle" style="font-family: 'Open Sans', verdana, arial, sans-serif; font-size: 14px; fill: rgb(42, 63, 95); opacity: 1; font-weight: normal; white-space: pre;">Frequency</text></g></g></svg>