<svg class="main-svg" xmlns="http://www.w3.org/2000/svg" xmlns:xlink="http://www.w3.org/1999/xlink" width="700" height="500" style="" viewBox="0 0 700 500"><rect x="0" y="0" width="700" height="500" style="fill: rgb(255, 255, 255); fill-opacity: 1;"/><defs id="defs-582536"><g class="clips"><clipPath id="clip582536xyplot" class="plotclip"><rect width="497" height="320"/></clipPath><clipPath class="axesclip" id="clip582536x"><rect x="80" y="0" width="497" height="500"/></clipPath><clipPath class="axesclip" id="clip582536y"><rect x="0" y="100" width="700" height="320"/></clipPath><clipPath class="axesclip" id="clip582536xy"><rect x="80" y="100" width="497" height="320"/></clipPath></g><g class="gradients"/></defs><g class="bglayer"><rect class="bg" x="80" y="100" width="497" height="320" style="fill: rgb(229, 236, 246); fill-opacity: 1; stroke-width: 0;"/></g><g class="layer-below"><g class="imagelayer"/><g class="shapelayer"/></g><g class="cartesianlayer"><g class="subplot xy"><g class="layer-subplot"><g class="shapelayer"/><g class="imagelayer"/></g><g class="gridlayer"><g class="x"><path class="xgrid crisp" transform="translate(157.66,0)" d="M0,100v320" style="stroke: rgb(255, 255, 255); stroke-opacity: 1; stroke-width: 1px;"/><path class="xgrid crisp" transform="translate(235.31,0)" d="M0,100v320" style="stroke: rgb(255, 255, 255); stroke-opacity: 1; stroke-width: 1px;"/><path class="xgrid crisp" transform="translate(312.97,0)" d="M0,100v320" style="stroke: rgb(255, 255, 255); stroke-opacity: 1; stroke-width: 1px;"/><path class="xgrid crisp" transform="translate(390.63,0)" d="M0,100v320" style="stroke: rgb(255, 255, 255); stroke-opacity: 1; stroke-width: 1px;"/><path class="xgrid crisp" transform="translate(468.28,0)" d="M0,100v320" style="stroke: rgb(255, 255, 255); stroke-opacity: 1; stroke-width: 1px;"/><path class="xgrid crisp" transform="translate(545.94,0)" d="M0,100v320" style="stroke: rgb(255, 255, 255); stroke-opacity: 1; stroke-width: 1px;"/></g><g class="y"><path class="ygrid crisp" transform="translate(0,365.82)" d="M80,0h497" style="stroke: rgb(255, 255, 255); stroke-opacity: 1; stroke-width: 1px;"/><path class="ygrid crisp" transform="translate(0,322.90999999999997)" d="M80,0h497" style="stroke: rgb(255, 255, 255); stroke-opacity: 1; stroke-width: 1px;"/><path class="ygrid crisp" transform="translate(0,279.99)" d="M80,0h497" style="stroke: rgb(255, 255, 255); stroke-opacity: 1; stroke-width: 1px;"/><path class="ygrid crisp" transform="translate(0,237.08)" d="M80,0h497" style="stroke: rgb(255, 255, 255); stroke-opacity: 1; stroke-width: 1px;"/><path class="ygrid crisp" transform="translate(0,194.16)" d="M80,0h497" style="stroke: rgb(255, 255, 255); stroke-opacity: 1; stroke-width: 1px;"/><path class="ygrid crisp" transform="translate(0,151.25)" d="M80,0h497" style="stroke: rgb(255, 255, 255); stroke-opacity: 1; stroke-width: 1px;"/><path class="ygrid crisp" transform="translate(0,108.33)" d="M80,0h497" style="stroke: rgb(255, 255, 255); stroke-opacity: 1; stroke-width: 1px;"/></g></g><g class="zerolinelayer"><path class="xzl zl crisp" transform="translate(80,0)" d="M0,100v320" style="stroke: rgb(255, 255, 255); stroke-opacity: 1; stroke-width: 2px;"/><path class="yzl zl crisp" transform="translate(0,408.74)" d="M80,0h497" style="stroke: rgb(255, 255, 255); stroke-opacity: 1; stroke-width: 2px;"/></g><path class="xlines-below"/><path class="ylines-below"/><g class="overlines-below"/><g class="xaxislayer-below"/><g class="yaxislayer-below"/><g class="overaxes-below"/><g class="plot" transform="translate(80, 100)" clip-path="url('#clip582536xyplot')"><g class="scatterlayer mlayer"><g class="trace scatter tracefb1137" style="stroke-miterlimit: 2; opacity: 1;"><g class="fills"/><g class="errorbars"/><g class="lines"><path class="js-line" d="M0,117.91Q10.94,49.14 16.03,49.25C21.68,49.37 27.27,102.14 32.06,134.63C38.35,177.26 41.66,283.03 48.1,283.32C52.85,283.54 58.81,203.63 64.13,203.64C69.5,203.65 75.17,285.03 80.16,284.9C85.99,284.75 88.26,198.66 96.19,172.8C100.7,158.09 107.7,139.16 112.23,139.85C119.94,141.02 118.06,227.71 128.26,244.68C132.69,252.04 139.82,258.25 144.29,256.61C152.72,253.52 153.88,206.37 160.32,187.44C165.07,173.47 171.71,151.73 176.35,152.28C183.23,153.1 184.78,216.18 192.39,235.5C196.93,247.03 202.48,260.11 208.42,261.08C213.35,261.88 219.31,252.9 224.45,247.89C230.03,242.45 235.87,237.9 240.48,229.41C247.58,216.31 248.35,177.28 256.52,173.47C261.01,171.38 268.12,174.98 272.55,180.63C282.57,193.41 278.39,257.17 288.58,269.06C293.01,274.22 300.14,276.98 304.61,274.59C313.23,269.98 315.4,213.46 320.65,213.51C326.1,213.56 331.73,279.93 336.68,279.75C342.59,279.54 342.33,197.62 352.71,184.04C357.14,178.25 363.93,180.86 368.74,176.66C374.99,171.2 380.24,162.95 384.77,151.49C392.5,131.9 395.28,65.89 400.81,65.82C405.99,65.75 410.11,120.99 416.84,140.64C421.52,154.3 427.96,161.38 432.87,173.97C438.86,189.35 443.9,226.96 448.9,226.76C454.71,226.53 457.7,155.22 464.94,153.94C469.52,153.13 476.52,166.99 480.97,179.15Q489.84,203.37 497,296.55" style="vector-effect: non-scaling-stroke; fill: none; stroke: rgb(0, 100, 80); stroke-opacity: 1; stroke-width: 2px; opacity: 1;"/></g><g class="points"/><g class="text"/></g><g class="trace scatter trace329620" style="stroke-miterlimit: 2; opacity: 1;"><g class="fills"/><g class="errorbars"/><g class="lines"><path class="js-line" d="M0,85.19Q11.24,15.77 16.03,16C22.34,16.31 26.29,100.64 32.06,138.51C37.08,171.46 40.49,229.36 48.1,230.63C52.64,231.39 59.28,200.98 64.13,201.46C70.26,202.07 74.76,252.22 80.16,252.26C85.45,252.3 90.32,218.21 96.19,203.78C101.16,191.56 105.68,178.19 112.23,170.86C116.95,165.58 123.07,160.29 128.26,160.7C133.77,161.13 138.58,171.66 144.29,174.82C149.34,177.62 155.14,177.21 160.32,179.58C165.85,182.11 170.79,188.84 176.35,189.86C181.51,190.8 187.96,183.52 192.39,186.47C202.55,193.24 201.63,270.42 208.42,271.17C213.08,271.68 217.68,242 224.45,233.85C229.12,228.23 235.95,229.22 240.48,223.11C248.14,212.78 250.85,170.63 256.52,170.42C261.6,170.23 266.53,199.96 272.55,211.65C277.45,221.16 283.64,226.75 288.58,236.11C294.51,247.35 299.93,275.54 304.61,275.06C311.34,274.37 314.15,189.97 320.65,189.42C325.38,189.02 332.1,233.19 336.68,232.69C343.94,231.9 342.66,121.32 352.71,117.91C357.14,116.41 363.92,126.93 368.74,133.7C374.94,142.41 378.86,166.66 384.77,167.3C389.72,167.84 395.74,154.34 400.81,146.67C406.51,138.05 411.76,128.21 416.84,117.79C422.51,106.18 428.42,79.33 432.87,80.01C441.81,81.38 443.27,244.5 448.9,244.56C454.01,244.61 457.5,142.87 464.94,109.4C469.5,88.9 476.41,60.47 480.97,60.93Q488.36,61.67 497,193.94" style="vector-effect: non-scaling-stroke; fill: none; stroke: rgb(0, 176, 246); stroke-opacity: 1; stroke-width: 2px; opacity: 1;"/></g><g class="points"/><g class="text"/></g><g class="trace scatter tracebdea0b" style="stroke-miterlimit: 2; opacity: 1;"><g class="fills"/><g class="errorbars"/><g class="lines"><path class="js-line" d="M0,77.35Q11.3,24.66 16.03,25C22.54,25.46 26.74,93.28 32.06,127.64C37.43,162.28 40.91,231.18 48.1,232.01C52.69,232.54 58.97,191.94 64.13,192.08C69.69,192.23 74.52,239.22 80.16,239.43C85.26,239.62 90.53,213.36 96.19,201.78C101.28,191.37 105.64,178.34 112.23,172.89C116.94,169 122.85,168.71 128.26,167.62C133.54,166.55 139.44,164.21 144.29,166.32C150.43,168.99 154.84,180.23 160.32,186.58C165.54,192.63 170.79,203.18 176.35,203.64C181.51,204.06 187.96,189.61 192.39,191.38C202.32,195.34 202.68,291.3 208.42,291.44C213.46,291.56 215.07,220.13 224.45,215.25C228.89,212.94 235.81,223.83 240.48,222.1C247.23,219.59 250.64,190.02 256.52,189.4C261.48,188.88 266.42,206.13 272.55,209.81C277.4,212.72 284.15,208.22 288.58,212.66C299.14,223.25 299.42,304.05 304.61,304C310.13,303.94 312.91,201.66 320.65,200.45C325.18,199.74 332.04,233.15 336.68,232.54C343.59,231.63 346.3,176.06 352.71,154.42C357.47,138.35 363.74,113.24 368.74,113.49C374.54,113.78 377.1,158.77 384.77,170.45C389.3,177.35 396.36,185.13 400.81,183.5C409.96,180.14 407.19,111 416.84,97.4C421.27,91.15 428.42,85.93 432.87,88.21C445.81,94.85 443.24,243.81 448.9,243.88C453.99,243.94 458.35,152.54 464.94,117.96C469.65,93.25 476.3,54.86 480.97,55.17Q487.74,55.62 497,190.65" style="vector-effect: non-scaling-stroke; fill: none; stroke: rgb(231, 107, 243); stroke-opacity: 1; stroke-width: 2px; opacity: 1;"/></g><g class="points"/><g class="text"/></g></g></g><g class="overplot"/><path class="xlines-above crisp" d="M0,0" style="fill: none;"/><path class="ylines-above crisp" d="M0,0" style="fill: none;"/><g class="overlines-above"/><g class="xaxislayer-above"><g class="xtick"><text text-anchor="middle" x="0" y="433" transform="translate(80,0)" style="font-family: 'Open Sans', verdana, arial, sans-serif; font-size: 12px; fill: rgb(42, 63, 95); fill-opacity: 1; white-space: pre;">0</text></g><g class="xtick"><text text-anchor="middle" x="0" y="433" transform="translate(157.66,0)" style="font-family: 'Open Sans', verdana, arial, sans-serif; font-size: 12px; fill: rgb(42, 63, 95); fill-opacity: 1; white-space: pre;">5</text></g><g class="xtick"><text text-anchor="middle" x="0" y="433" transform="translate(235.31,0)" style="font-family: 'Open Sans', verdana, arial, sans-serif; font-size: 12px; fill: rgb(42, 63, 95); fill-opacity: 1; white-space: pre;">10</text></g><g class="xtick"><text text-anchor="middle" x="0" y="433" transform="translate(312.97,0)" style="font-family: 'Open Sans', verdana, arial, sans-serif; font-size: 12px; fill: rgb(42, 63, 95); fill-opacity: 1; white-space: pre;">15</text></g><g class="xtick"><text text-anchor="middle" x="0" y="433" transform="translate(390.63,0)" style="font-family: 'Open Sans', verdana, arial, sans-serif; font-size: 12px; fill: rgb(42, 63, 95); fill-opacity: 1; white-space: pre;">20</text></g><g class="xtick"><text text-anchor="middle" x="0" y="433" transform="translate(468.28,0)" style="font-family: 'Open Sans', verdana, arial, sans-serif; font-size: 12px; fill: rgb(42, 63, 95); fill-opacity: 1; white-space: pre;">25</text></g><g class="xtick"><text text-anchor="middle" x="0" y="433" transform="translate(545.94,0)" style="font-family: 'Open Sans', verdana, arial, sans-serif; font-size: 12px; fill: rgb(42, 63, 95); fill-opacity: 1; white-space: pre;">30</text></g></g><g class="yaxislayer-above"><g class="ytick"><text text-anchor="end" x="79" y="4.199999999999999" transform="translate(0,408.74)" style="font-family: 'Open Sans', verdana, arial, sans-serif; font-size: 12px; fill: rgb(42, 63, 95); fill-opacity: 1; white-space: pre;">0</text></g><g class="ytick"><text text-anchor="end" x="79" y="4.199999999999999" transform="translate(0,365.82)" style="font-family: 'Open Sans', verdana, arial, sans-serif; font-size: 12px; fill: rgb(42, 63, 95); fill-opacity: 1; white-space: pre;">10</text></g><g class="ytick"><text text-anchor="end" x="79" y="4.199999999999999" transform="translate(0,322.90999999999997)" style="font-family: 'Open Sans', verdana, arial, sans-serif; font-size: 12px; fill: rgb(42, 63, 95); fill-opacity: 1; white-space: pre;">20</text></g><g class="ytick"><text text-anchor="end" x="79" y="4.199999999999999" transform="translate(0,279.99)" style="font-family: 'Open Sans', verdana, arial, sans-serif; font-size: 12px; fill: rgb(42, 63, 95); fill-opacity: 1; white-space: pre;">30</text></g><g class="ytick"><text text-anchor="end" x="79" y="4.199999999999999" transform="translate(0,237.08)" style="font-family: 'Open Sans', verdana, arial, sans-serif; font-size: 12px; fill: rgb(42, 63, 95); fill-opacity: 1; white-space: pre;">40</text></g><g class="ytick"><text text-anchor="end" x="79" y="4.199999999999999" transform="translate(0,194.16)" style="font-family: 'Open Sans', verdana, arial, sans-serif; font-size: 12px; fill: rgb(42, 63, 95); fill-opacity: 1; white-space: pre;">50</text></g><g class="ytick"><text text-anchor="end" x="79" y="4.199999999999999" transform="translate(0,151.25)" style="font-family: 'Open Sans', verdana, arial, sans-serif; font-size: 12px; fill: rgb(42, 63, 95); fill-opacity: 1; white-space: pre;">60</text></g><g class="ytick"><text text-anchor="end" x="79" y="4.199999999999999" transform="translate(0,108.33)" style="font-family: 'Open Sans', verdana, arial, sans-serif; font-size: 12px; fill: rgb(42, 63, 95); fill-opacity: 1; white-space: pre;">70</text></g></g><g class="overaxes-above"/></g></g><g class="polarlayer"/><g class="ternarylayer"/><g class="geolayer"/><g class="funnelarealayer"/><g class="pielayer"/><g class="treemaplayer"/><g class="sunburstlayer"/><g class="glimages"/><defs id="topdefs-582536"><g class="clips"/><clipPath id="legend582536"><rect width="101" height="67" x="0" y="0"/></clipPath></defs><g class="layer-above"><g class="imagelayer"/><g class="shapelayer"/></g><g class="infolayer"><g class="legend" pointer-events="all" transform="translate(586.94, 100)"><rect class="bg" shape-rendering="crispEdges" style="stroke: rgb(68, 68, 68); stroke-opacity: 1; fill: rgb(255, 255, 255); fill-opacity: 1; stroke-width: 0px;" width="101" height="67" x="0" y="0"/><g class="scrollbox" transform="translate(0, 0)" clip-path="url('#legend582536')"><g class="groups"><g class="traces" transform="translate(0, 14.5)" style="opacity: 1;"><text class="legendtext" text-anchor="start" x="40" y="4.680000000000001" style="font-family: 'Open Sans', verdana, arial, sans-serif; font-size: 12px; fill: rgb(42, 63, 95); fill-opacity: 1; white-space: pre;">PBD-CHR</text><g class="layers" style="opacity: 1;"><g class="legendfill"/><g class="legendlines"><path class="js-line" d="M5,0h30" style="fill: none; stroke: rgb(0, 100, 80); stroke-opacity: 1; stroke-width: 2px;"/></g><g class="legendsymbols"><g class="legendpoints"/></g></g><rect class="legendtoggle" x="0" y="-9.5" width="95.015625" height="19" style="fill: rgb(0, 0, 0); fill-opacity: 0;"/></g><g class="traces" transform="translate(0, 33.5)" style="opacity: 1;"><text class="legendtext" text-anchor="start" x="40" y="4.680000000000001" style="font-family: 'Open Sans', verdana, arial, sans-serif; font-size: 12px; fill: rgb(42, 63, 95); fill-opacity: 1; white-space: pre;">CHR-full</text><g class="layers" style="opacity: 1;"><g class="legendfill"/><g class="legendlines"><path class="js-line" d="M5,0h30" style="fill: none; stroke: rgb(0, 176, 246); stroke-opacity: 1; stroke-width: 2px;"/></g><g class="legendsymbols"><g class="legendpoints"/></g></g><rect class="legendtoggle" x="0" y="-9.5" width="95.015625" height="19" style="fill: rgb(0, 0, 0); fill-opacity: 0;"/></g><g class="traces" transform="translate(0, 52.5)" style="opacity: 1;"><text class="legendtext" text-anchor="start" x="40" y="4.680000000000001" style="font-family: 'Open Sans', verdana, arial, sans-serif; font-size: 12px; fill: rgb(42, 63, 95); fill-opacity: 1; white-space: pre;">CHR-LPB</text><g class="layers" style="opacity: 1;"><g class="legendfill"/><g class="legendlines"><path class="js-line" d="M5,0h30" style="fill: none; stroke: rgb(231, 107, 243); stroke-opacity: 1; stroke-width: 2px;"/></g><g class="legendsymbols"><g class="legendpoints"/></g></g><rect class="legendtoggle" x="0" y="-9.5" width="95.015625" height="19" style="fill: rgb(0, 0, 0); fill-opacity: 0;"/></g></g></g><rect class="scrollbar" rx="20" ry="3" width="0" height="0" style="fill: rgb(128, 139, 164); fill-opacity: 1;" x="0" y="0"/></g><g class="g-gtitle"><text class="gtitle" x="35" y="50" text-anchor="start" dy="0em" style="font-family: 'Open Sans', verdana, arial, sans-serif; font-size: 17px; fill: rgb(42, 63, 95); opacity: 1; font-weight: normal; white-space: pre;">Comparison domains curves for : alpha-structure_group</text></g><g class="g-xtitle"><text class="xtitle" x="328.5" y="460.8" text-anchor="middle" style="font-family: 'Open Sans', verdana, arial, sans-serif; font-size: 14px; fill: rgb(42, 63, 95); opacity: 1; font-weight: normal; white-space: pre;">Domain</text></g><g class="g-ytitle"><text class="ytitle" transform="rotate(-90,40.840625,260)" x="40.840625" y="260" text-anchor="middle" style="font-family: 'Open Sans', verdana, arial, sans-serif; font-size: 14px; fill: rgb(42, 63, 95); opacity: 1; font-weight: normal; white-space: pre;">Frequency</text></g></g></svg>