<svg class="main-svg" xmlns="http://www.w3.org/2000/svg" xmlns:xlink="http://www.w3.org/1999/xlink" width="700" height="500" style="" viewBox="0 0 700 500"><rect x="0" y="0" width="700" height="500" style="fill: rgb(255, 255, 255); fill-opacity: 1;"/><defs id="defs-5c4360"><g class="clips"><clipPath id="clip5c4360xyplot" class="plotclip"><rect width="462" height="320"/></clipPath><clipPath class="axesclip" id="clip5c4360x"><rect x="80" y="0" width="462" height="500"/></clipPath><clipPath class="axesclip" id="clip5c4360y"><rect x="0" y="100" width="700" height="320"/></clipPath><clipPath class="axesclip" id="clip5c4360xy"><rect x="80" y="100" width="462" height="320"/></clipPath></g><g class="gradients"/></defs><g class="bglayer"><rect class="bg" x="80" y="100" width="462" height="320" style="fill: rgb(229, 236, 246); fill-opacity: 1; stroke-width: 0;"/></g><g class="layer-below"><g class="imagelayer"/><g class="shapelayer"/></g><g class="cartesianlayer"><g class="subplot xy"><g class="layer-subplot"><g class="shapelayer"/><g class="imagelayer"/></g><g class="gridlayer"><g class="x"><path class="xgrid crisp" transform="translate(170.23000000000002,0)" d="M0,100v320" style="stroke: rgb(255, 255, 255); stroke-opacity: 1; stroke-width: 1px;"/><path class="xgrid crisp" transform="translate(260.47,0)" d="M0,100v320" style="stroke: rgb(255, 255, 255); stroke-opacity: 1; stroke-width: 1px;"/><path class="xgrid crisp" transform="translate(350.7,0)" d="M0,100v320" style="stroke: rgb(255, 255, 255); stroke-opacity: 1; stroke-width: 1px;"/><path class="xgrid crisp" transform="translate(440.94,0)" d="M0,100v320" style="stroke: rgb(255, 255, 255); stroke-opacity: 1; stroke-width: 1px;"/><path class="xgrid crisp" transform="translate(531.1700000000001,0)" d="M0,100v320" style="stroke: rgb(255, 255, 255); stroke-opacity: 1; stroke-width: 1px;"/></g><g class="y"><path class="ygrid crisp" transform="translate(0,394.17)" d="M80,0h462" style="stroke: rgb(255, 255, 255); stroke-opacity: 1; stroke-width: 1px;"/><path class="ygrid crisp" transform="translate(0,335.26)" d="M80,0h462" style="stroke: rgb(255, 255, 255); stroke-opacity: 1; stroke-width: 1px;"/><path class="ygrid crisp" transform="translate(0,276.34000000000003)" d="M80,0h462" style="stroke: rgb(255, 255, 255); stroke-opacity: 1; stroke-width: 1px;"/><path class="ygrid crisp" transform="translate(0,217.43)" d="M80,0h462" style="stroke: rgb(255, 255, 255); stroke-opacity: 1; stroke-width: 1px;"/><path class="ygrid crisp" transform="translate(0,158.52)" d="M80,0h462" style="stroke: rgb(255, 255, 255); stroke-opacity: 1; stroke-width: 1px;"/></g></g><g class="zerolinelayer"><path class="xzl zl crisp" transform="translate(80,0)" d="M0,100v320" style="stroke: rgb(255, 255, 255); stroke-opacity: 1; stroke-width: 2px;"/></g><path class="xlines-below"/><path class="ylines-below"/><g class="overlines-below"/><g class="xaxislayer-below"/><g class="yaxislayer-below"/><g class="overaxes-below"/><g class="plot" transform="translate(80, 100)" clip-path="url('#clip5c4360xyplot')"><g class="scatterlayer mlayer"><g class="trace scatter trace63aa0e" style="stroke-miterlimit: 2; opacity: 1;"><g class="fills"/><g class="errorbars"/><g class="lines"><path class="js-line" d="M0,272.53Q0.63,272.2 0.9,271.88C1.27,271.45 1.53,270.72 1.81,270.01C2.15,269.14 2.43,268.09 2.71,267.02C3.03,265.79 3.33,264.43 3.62,263.02C3.94,261.46 4.23,259.8 4.52,258.08C4.83,256.22 5.13,254.27 5.42,252.27C5.73,250.14 6.04,247.93 6.33,245.67C6.64,243.3 6.93,240.85 7.23,238.36C7.54,235.76 7.84,233.09 8.14,230.39C8.45,227.59 8.74,224.74 9.04,221.85C9.35,218.88 9.65,215.86 9.95,212.82C10.26,209.71 10.55,206.55 10.85,203.38C11.15,200.15 11.45,196.88 11.75,193.6C12.05,190.28 12.36,186.92 12.66,183.56C12.96,180.17 13.26,176.77 13.56,173.36C13.86,169.94 14.17,166.49 14.47,163.06C14.77,159.62 15.07,156.18 15.37,152.75C15.67,149.33 15.97,145.91 16.27,142.52C16.57,139.15 16.88,135.8 17.18,132.47C17.48,129.18 17.78,125.91 18.08,122.67C18.38,119.49 18.68,116.34 18.99,113.23C19.29,110.19 19.59,107.18 19.89,104.22C20.19,101.35 20.48,98.52 20.79,95.75C21.09,93.08 21.39,90.45 21.7,87.89C22,85.44 22.29,83.04 22.6,80.71C22.89,78.51 23.2,76.35 23.51,74.28C23.8,72.34 24.1,70.45 24.41,68.66C24.7,67.01 25,65.4 25.32,63.9C25.61,62.55 25.9,61.24 26.22,60.05C26.5,59.01 26.79,58 27.12,57.14C27.4,56.41 27.68,55.7 28.03,55.18C28.3,54.77 28.59,54.35 28.93,54.2C29.21,54.07 29.56,54.06 29.84,54.18C30.17,54.32 30.47,54.73 30.74,55.12C31.08,55.62 31.36,56.3 31.64,57C31.97,57.82 32.26,58.77 32.55,59.76C32.87,60.88 33.16,62.11 33.45,63.37C33.77,64.76 34.07,66.23 34.36,67.75C34.67,69.38 34.97,71.08 35.26,72.82C35.57,74.66 35.86,76.57 36.16,78.51C36.47,80.53 36.77,82.6 37.07,84.69C37.38,86.85 37.67,89.06 37.97,91.27C38.27,93.53 38.58,95.82 38.88,98.11C39.18,100.42 39.48,102.76 39.78,105.08C40.08,107.39 40.38,109.72 40.68,112.01C40.98,114.26 41.28,116.51 41.59,118.7C41.89,120.8 42.18,122.88 42.49,124.88C42.78,126.77 43.09,128.61 43.4,130.38C43.69,132.04 43.99,133.66 44.3,135.21C44.59,136.65 44.89,138.06 45.21,139.38C45.5,140.6 45.79,141.77 46.11,142.86C46.4,143.85 46.69,144.8 47.01,145.67C47.3,146.44 47.6,147.17 47.92,147.82C48.2,148.39 48.5,148.93 48.82,149.39C49.11,149.8 49.41,150.16 49.73,150.46C50.02,150.73 50.32,150.96 50.63,151.14C50.92,151.31 51.22,151.43 51.53,151.53C51.83,151.63 52.14,151.69 52.44,151.75C52.74,151.81 53.04,151.84 53.34,151.9C53.64,151.96 53.95,152.01 54.25,152.09C54.55,152.17 54.85,152.26 55.15,152.39C55.46,152.52 55.76,152.68 56.05,152.86C56.36,153.05 56.67,153.27 56.96,153.51C57.27,153.76 57.57,154.04 57.86,154.35C58.17,154.68 58.48,155.03 58.77,155.42C59.08,155.84 59.38,156.31 59.67,156.8C59.99,157.34 60.29,157.93 60.58,158.55C60.89,159.22 61.19,159.94 61.48,160.68C61.79,161.47 62.09,162.31 62.38,163.17C62.69,164.08 63,165.03 63.29,166.01C63.6,167.04 63.89,168.1 64.19,169.18C64.5,170.31 64.8,171.46 65.1,172.64C65.41,173.86 65.7,175.12 66,176.39C66.31,177.71 66.6,179.05 66.9,180.41C67.21,181.81 67.51,183.24 67.81,184.69C68.12,186.18 68.41,187.69 68.71,189.22C69.02,190.78 69.32,192.36 69.62,193.96C69.92,195.59 70.22,197.24 70.52,198.9C70.82,200.59 71.12,202.29 71.42,204C71.72,205.73 72.03,207.49 72.33,209.24C72.63,211.01 72.93,212.78 73.23,214.56C73.53,216.34 73.84,218.13 74.14,219.92C74.44,221.71 74.74,223.5 75.04,225.29C75.34,227.07 75.65,228.85 75.95,230.62C76.25,232.38 76.55,234.13 76.85,235.87C77.15,237.6 77.45,239.32 77.75,241.03C78.05,242.73 78.36,244.41 78.66,246.09C78.96,247.75 79.26,249.4 79.56,251.04C79.86,252.66 80.17,254.27 80.47,255.87C80.77,257.45 81.07,259.02 81.37,260.58C81.67,262.12 81.96,263.66 82.27,265.15C82.57,266.58 82.87,267.99 83.18,269.35C83.47,270.64 83.77,271.88 84.08,273.1C84.38,274.27 84.67,275.43 84.99,276.52C85.28,277.52 85.58,278.47 85.89,279.38C86.18,280.22 86.48,281.02 86.79,281.79C87.08,282.52 87.39,283.22 87.7,283.88C87.99,284.5 88.29,285.1 88.6,285.65C88.89,286.16 89.19,286.64 89.51,287.08C89.8,287.48 90.09,287.86 90.41,288.18C90.7,288.48 91,288.75 91.32,288.96C91.61,289.15 91.91,289.32 92.22,289.4C92.51,289.48 92.83,289.51 93.12,289.46C93.43,289.41 93.75,289.27 94.03,289.07C94.36,288.84 94.65,288.48 94.93,288.11C95.25,287.69 95.55,287.18 95.84,286.67C96.16,286.11 96.45,285.5 96.74,284.88C97.05,284.23 97.34,283.54 97.64,282.85C97.95,282.13 98.25,281.38 98.55,280.62C98.86,279.83 99.15,279.03 99.45,278.21C99.76,277.36 100.06,276.5 100.36,275.62C100.67,274.72 100.96,273.81 101.26,272.88C101.56,271.93 101.86,270.96 102.16,269.98C102.47,268.98 102.77,267.97 103.07,266.94C103.38,265.89 103.67,264.82 103.97,263.75C104.27,262.66 104.58,261.56 104.88,260.45C105.18,259.32 105.48,258.18 105.78,257.04C106.08,255.89 106.38,254.74 106.68,253.58C106.98,252.42 107.29,251.26 107.59,250.09C107.89,248.92 108.19,247.74 108.49,246.57C108.79,245.39 109.1,244.22 109.4,243.04C109.7,241.86 110,240.67 110.3,239.48C110.6,238.29 110.91,237.09 111.21,235.89C111.51,234.68 111.81,233.47 112.11,232.25C112.41,231.02 112.71,229.8 113.01,228.56C113.31,227.31 113.62,226.06 113.92,224.8C114.22,223.53 114.52,222.25 114.82,220.96C115.12,219.66 115.43,218.36 115.73,217.05C116.03,215.73 116.33,214.4 116.63,213.07C116.93,211.73 117.23,210.37 117.53,209.02C117.83,207.66 118.14,206.3 118.44,204.93C118.74,203.56 119.04,202.18 119.34,200.81C119.64,199.44 119.95,198.07 120.25,196.7C120.55,195.34 120.85,193.97 121.15,192.62C121.45,191.27 121.75,189.93 122.05,188.6C122.35,187.28 122.66,185.98 122.96,184.68C123.26,183.41 123.56,182.14 123.86,180.89C124.16,179.67 124.46,178.45 124.77,177.26C125.07,176.1 125.36,174.95 125.67,173.82C125.97,172.73 126.27,171.66 126.58,170.61C126.88,169.6 127.17,168.62 127.48,167.66C127.77,166.75 128.07,165.85 128.38,164.99C128.67,164.18 128.98,163.38 129.29,162.63C129.58,161.92 129.88,161.24 130.19,160.6C130.48,160.01 130.78,159.45 131.1,158.93C131.39,158.46 131.68,158.01 132,157.62C132.29,157.27 132.58,156.95 132.9,156.7C133.19,156.48 133.5,156.29 133.81,156.18C134.1,156.08 134.41,156.04 134.71,156.06C135.02,156.09 135.33,156.19 135.62,156.34C135.94,156.5 136.24,156.76 136.52,157.04C136.84,157.35 137.13,157.74 137.42,158.15C137.74,158.61 138.04,159.13 138.33,159.67C138.65,160.27 138.94,160.92 139.23,161.59C139.54,162.32 139.85,163.1 140.14,163.89C140.45,164.72 140.74,165.6 141.04,166.47C141.34,167.34 141.65,168.21 141.95,169.11C142.26,170.04 142.56,170.99 142.85,171.97C143.16,173 143.46,174.07 143.75,175.16C144.06,176.31 144.36,177.49 144.66,178.7C144.97,179.96 145.26,181.26 145.56,182.58C145.87,183.96 146.17,185.37 146.47,186.81C146.78,188.3 147.07,189.83 147.37,191.38C147.68,192.98 147.97,194.62 148.27,196.28C148.58,198 148.88,199.75 149.18,201.52C149.49,203.35 149.78,205.21 150.08,207.09C150.39,209.02 150.69,210.99 150.99,212.97C151.3,215 151.59,217.06 151.89,219.14C152.19,221.27 152.49,223.42 152.79,225.59C153.09,227.8 153.4,230.03 153.7,232.28C154,234.56 154.3,236.87 154.6,239.18C154.9,241.52 155.21,243.88 155.51,246.24C155.81,248.62 156.11,251.01 156.41,253.4C156.71,255.79 157.02,258.2 157.32,260.59C157.62,262.97 157.92,265.36 158.22,267.72C158.52,270.04 158.81,272.42 159.12,274.63C159.41,276.68 159.7,278.75 160.03,280.54C160.31,282.05 160.61,283.39 160.93,284.68C161.22,285.82 161.51,286.93 161.84,287.88C162.12,288.68 162.39,289.49 162.74,290.05C163.01,290.48 163.3,290.96 163.64,291.06C163.92,291.15 164.28,291.03 164.55,290.84C164.91,290.58 165.17,289.98 165.45,289.44C165.79,288.77 166.07,287.92 166.36,287.07C166.68,286.12 166.97,285.07 167.26,284.01C167.57,282.87 167.86,281.67 168.16,280.46C168.47,279.19 168.77,277.88 169.07,276.57C169.37,275.23 169.67,273.87 169.97,272.51C170.27,271.14 170.58,269.75 170.88,268.38C171.18,267.02 171.48,265.66 171.78,264.32C172.08,263.01 172.37,261.7 172.68,260.43C172.98,259.2 173.28,257.98 173.59,256.8C173.88,255.68 174.18,254.58 174.49,253.53C174.78,252.54 175.09,251.58 175.4,250.67C175.69,249.83 175.98,249.01 176.3,248.25C176.59,247.56 176.89,246.89 177.21,246.29C177.5,245.75 177.79,245.24 178.11,244.79C178.4,244.38 178.69,244.01 179.01,243.69C179.3,243.4 179.61,243.15 179.92,242.93C180.21,242.72 180.51,242.56 180.82,242.4C181.12,242.25 181.43,242.14 181.73,242C182.03,241.86 182.34,241.74 182.63,241.58C182.94,241.41 183.24,241.24 183.53,241.01C183.84,240.77 184.15,240.48 184.44,240.15C184.76,239.78 185.06,239.35 185.34,238.88C185.66,238.35 185.96,237.75 186.25,237.1C186.57,236.37 186.87,235.56 187.15,234.71C187.47,233.75 187.76,232.71 188.05,231.61C188.37,230.38 188.67,229.07 188.96,227.68C189.28,226.14 189.57,224.47 189.86,222.76C190.18,220.89 190.48,218.91 190.77,216.9C191.08,214.78 191.37,212.57 191.67,210.36C191.98,208.09 192.28,205.76 192.58,203.45C192.88,201.11 193.18,198.75 193.48,196.41C193.78,194.08 194.08,191.73 194.38,189.42C194.68,187.15 194.98,184.88 195.29,182.66C195.59,180.5 195.88,178.36 196.19,176.28C196.49,174.28 196.79,172.32 197.1,170.42C197.39,168.63 197.69,166.87 198,165.2C198.29,163.65 198.58,162.14 198.9,160.73C199.19,159.46 199.49,158.23 199.81,157.12C200.09,156.15 200.37,155.21 200.71,154.43C200.99,153.79 201.26,153.14 201.62,152.73C201.89,152.42 202.21,152.11 202.52,152.08C202.81,152.05 203.15,152.26 203.42,152.51C203.78,152.84 204.05,153.45 204.33,154.05C204.67,154.8 204.95,155.73 205.23,156.69C205.56,157.82 205.85,159.1 206.14,160.43C206.46,161.93 206.75,163.56 207.04,165.25C207.36,167.11 207.66,169.09 207.95,171.12C208.26,173.31 208.56,175.61 208.85,177.97C209.16,180.48 209.46,183.09 209.75,185.74C210.06,188.52 210.36,191.39 210.66,194.3C210.97,197.31 211.26,200.4 211.56,203.51C211.87,206.69 212.17,209.93 212.47,213.15C212.77,216.4 213.07,219.69 213.37,222.92C213.67,226.1 213.96,229.3 214.27,232.38C214.56,235.32 214.86,238.26 215.18,240.98C215.47,243.44 215.74,245.91 216.08,248C216.36,249.71 216.57,251.53 216.99,252.64C217.25,253.33 217.6,254.22 217.89,254.21C218.2,254.2 218.53,253.11 218.79,252.27C219.21,250.91 219.43,248.76 219.7,246.68C220.05,244.06 220.31,240.93 220.6,237.78C220.92,234.24 221.22,230.36 221.51,226.47C221.82,222.34 222.11,218.01 222.41,213.67C222.72,209.19 223.02,204.6 223.32,200.01C223.62,195.34 223.92,190.62 224.22,185.9C224.52,181.15 224.82,176.38 225.12,171.62C225.42,166.86 225.73,162.1 226.03,157.36C226.33,152.65 226.63,147.95 226.93,143.28C227.23,138.66 227.54,134.06 227.84,129.51C228.14,125.04 228.44,120.59 228.74,116.22C229.04,111.96 229.33,107.72 229.64,103.59C229.94,99.6 230.24,95.67 230.55,91.84C230.84,88.19 231.14,84.59 231.45,81.13C231.74,77.88 232.05,74.69 232.36,71.66C232.65,68.86 232.94,66.13 233.26,63.59C233.55,61.3 233.83,59.08 234.16,57.08C234.44,55.35 234.73,53.67 235.07,52.26C235.34,51.13 235.58,49.97 235.97,49.23C236.23,48.72 236.56,48.11 236.88,48.08C237.17,48.05 237.52,48.48 237.78,48.88C238.18,49.5 238.41,50.61 238.68,51.67C239.03,53.04 239.31,54.71 239.59,56.45C239.92,58.51 240.21,60.83 240.49,63.24C240.81,65.97 241.11,68.92 241.4,71.97C241.72,75.34 242.01,78.91 242.3,82.59C242.61,86.56 242.92,90.72 243.21,94.98C243.52,99.51 243.82,104.23 244.11,109.02C244.42,114.05 244.71,119.24 245.01,124.5C245.32,129.95 245.62,135.54 245.92,141.16C246.23,146.92 246.52,152.8 246.82,158.66C247.12,164.58 247.43,170.59 247.73,176.52C248.03,182.4 248.32,188.33 248.63,194.08C248.92,199.62 249.21,205.19 249.53,210.4C249.82,215.18 250.11,219.98 250.44,224.16C250.72,227.65 250.94,231.26 251.34,233.78C251.6,235.43 251.87,237.8 252.25,237.84C252.51,237.87 252.9,236.84 253.15,235.99C253.62,234.4 253.78,231.54 254.05,228.78C254.41,225.07 254.67,220.33 254.96,215.71C255.28,210.49 255.57,204.76 255.86,199.04C256.17,192.98 256.47,186.64 256.77,180.3C257.08,173.78 257.37,167.09 257.67,160.45C257.97,153.77 258.28,147.01 258.58,140.34C258.88,133.74 259.18,127.13 259.48,120.65C259.78,114.32 260.07,108.03 260.38,101.89C260.68,95.97 260.98,90.11 261.29,84.43C261.58,79.01 261.88,73.69 262.19,68.56C262.48,63.73 262.79,59.01 263.1,54.5C263.39,50.32 263.68,46.26 264,42.43C264.29,38.96 264.58,35.6 264.9,32.5C265.19,29.77 265.48,27.15 265.81,24.82C266.09,22.87 266.35,20.98 266.71,19.47C266.98,18.33 267.18,17.07 267.62,16.52C267.87,16.2 268.26,15.92 268.52,16C268.89,16.12 269.16,17.12 269.42,17.9C269.8,19.03 270.05,20.62 270.33,22.22C270.67,24.2 270.95,26.5 271.23,28.89C271.56,31.66 271.85,34.71 272.14,37.86C272.46,41.38 272.75,45.14 273.04,49.02C273.36,53.24 273.66,57.69 273.95,62.25C274.26,67.13 274.56,72.21 274.85,77.4C275.16,82.88 275.45,88.54 275.75,94.29C276.06,100.29 276.36,106.46 276.66,112.69C276.97,119.13 277.26,125.71 277.56,132.33C277.86,139.09 278.17,145.98 278.47,152.84C278.77,159.76 279.06,166.84 279.37,173.67C279.67,180.28 279.96,186.81 280.27,193.19C280.57,199.33 280.87,205.32 281.18,211.25C281.48,217.01 281.77,222.79 282.08,228.29C282.37,233.45 282.67,238.63 282.99,243.29C283.27,247.35 283.53,251.47 283.89,254.7C284.16,257.1 284.15,260.57 284.79,260.94C285.04,261.09 285.45,260.91 285.7,260.59C286.4,259.7 286.33,255.98 286.6,253.18C286.95,249.54 287.22,245.04 287.51,240.59C287.83,235.57 288.12,230.04 288.41,224.56C288.72,218.79 289.02,212.77 289.32,206.81C289.62,200.77 289.92,194.62 290.22,188.56C290.52,182.53 290.82,176.48 291.12,170.53C291.42,164.69 291.72,158.88 292.03,153.18C292.33,147.65 292.62,142.17 292.93,136.82C293.23,131.67 293.53,126.6 293.84,121.66C294.13,116.95 294.43,112.33 294.74,107.85C295.03,103.62 295.33,99.48 295.64,95.49C295.93,91.75 296.24,88.11 296.55,84.63C296.84,81.4 297.13,78.27 297.45,75.3C297.74,72.58 298.04,69.95 298.36,67.48C298.65,65.25 298.94,63.11 299.26,61.13C299.54,59.38 299.83,57.71 300.16,56.2C300.44,54.9 300.73,53.67 301.07,52.61C301.35,51.74 301.62,50.9 301.97,50.27C302.24,49.78 302.53,49.29 302.88,49.08C303.15,48.92 303.5,48.85 303.78,48.93C304.1,49.02 304.41,49.38 304.68,49.73C305.03,50.18 305.31,50.82 305.59,51.48C305.92,52.27 306.21,53.2 306.49,54.16C306.81,55.26 307.11,56.47 307.4,57.73C307.72,59.12 308.01,60.6 308.3,62.13C308.61,63.78 308.92,65.51 309.21,67.28C309.52,69.15 309.82,71.1 310.11,73.08C310.42,75.15 310.71,77.28 311.01,79.43C311.32,81.65 311.62,83.93 311.92,86.21C312.22,88.54 312.52,90.91 312.82,93.29C313.12,95.7 313.43,98.14 313.73,100.57C314.03,103.01 314.33,105.46 314.63,107.89C314.93,110.32 315.23,112.75 315.53,115.15C315.83,117.52 316.14,119.89 316.44,122.22C316.74,124.5 317.03,126.77 317.34,128.99C317.64,131.15 317.94,133.3 318.25,135.39C318.55,137.41 318.84,139.41 319.15,141.35C319.44,143.22 319.74,145.05 320.05,146.84C320.35,148.55 320.65,150.23 320.96,151.86C321.26,153.42 321.55,154.94 321.86,156.43C322.16,157.86 322.46,159.25 322.77,160.61C323.07,161.92 323.36,163.21 323.67,164.47C323.97,165.69 324.28,166.89 324.58,168.08C324.88,169.25 325.18,170.39 325.48,171.54C325.78,172.68 326.08,173.8 326.38,174.93C326.68,176.06 326.99,177.18 327.29,178.31C327.59,179.45 327.89,180.59 328.19,181.75C328.49,182.93 328.8,184.11 329.1,185.31C329.4,186.53 329.7,187.77 330,189.02C330.3,190.3 330.6,191.6 330.9,192.92C331.21,194.27 331.51,195.63 331.81,197.01C332.12,198.42 332.41,199.86 332.71,201.31C333.01,202.79 333.32,204.29 333.62,205.8C333.92,207.34 334.22,208.9 334.52,210.48C334.82,212.08 335.12,213.71 335.42,215.34C335.72,216.99 336.03,218.66 336.33,220.34C336.63,222.03 336.93,223.74 337.23,225.44C337.53,227.15 337.84,228.88 338.14,230.6C338.44,232.32 338.74,234.05 339.04,235.77C339.34,237.48 339.65,239.19 339.95,240.88C340.25,242.55 340.55,244.21 340.85,245.84C341.15,247.44 341.44,249.02 341.75,250.57C342.05,252.06 342.35,253.54 342.66,254.96C342.95,256.3 343.24,257.62 343.56,258.85C343.85,259.97 344.15,261.05 344.47,262.03C344.75,262.9 345.05,263.7 345.37,264.45C345.66,265.12 345.95,265.75 346.27,266.33C346.56,266.86 346.87,267.36 347.18,267.82C347.47,268.25 347.77,268.65 348.08,269.03C348.38,269.4 348.69,269.73 348.99,270.07C349.29,270.4 349.59,270.72 349.89,271.05C350.19,271.39 350.49,271.72 350.79,272.08C351.1,272.45 351.41,272.84 351.7,273.25C352.01,273.68 352.31,274.14 352.6,274.62C352.91,275.13 353.21,275.66 353.51,276.21C353.82,276.77 354.11,277.37 354.41,277.95C354.71,278.52 355,279.14 355.32,279.66C355.61,280.12 355.87,280.7 356.22,280.91C356.49,281.07 356.83,281.07 357.12,281.01C357.43,280.95 357.73,280.69 358.03,280.52C358.33,280.36 358.63,280.19 358.93,280.02C359.23,279.85 359.54,279.68 359.84,279.49C360.14,279.3 360.45,279.1 360.74,278.87C361.05,278.63 361.35,278.37 361.64,278.08C361.95,277.77 362.26,277.43 362.55,277.06C362.86,276.66 363.16,276.22 363.45,275.75C363.77,275.23 364.07,274.68 364.36,274.08C364.68,273.42 364.97,272.7 365.26,271.94C365.58,271.11 365.87,270.22 366.16,269.3C366.47,268.32 366.78,267.29 367.07,266.23C367.38,265.11 367.68,263.94 367.97,262.74C368.28,261.48 368.58,260.19 368.88,258.86C369.19,257.47 369.49,256.09 369.78,254.58C370.1,252.9 370.38,251.01 370.68,249.23C370.98,247.46 371.28,245.68 371.59,243.94C371.89,242.25 372.18,240.56 372.49,238.93C372.79,237.36 373.09,235.81 373.4,234.32C373.69,232.91 373.99,231.52 374.3,230.2C374.59,228.96 374.89,227.76 375.21,226.63C375.5,225.59 375.79,224.59 376.11,223.67C376.39,222.85 376.68,222.06 377.01,221.38C377.29,220.79 377.58,220.22 377.92,219.78C378.2,219.42 378.49,219.07 378.82,218.89C379.1,218.74 379.43,218.65 379.73,218.69C380.04,218.73 380.35,218.93 380.63,219.14C380.95,219.38 381.24,219.75 381.53,220.11C381.85,220.5 382.15,220.94 382.44,221.4C382.75,221.89 383.05,222.4 383.34,222.96C383.66,223.57 383.96,224.22 384.25,224.91C384.57,225.66 384.86,226.49 385.15,227.32C385.46,228.19 385.74,229.14 386.05,230.02C386.35,230.86 386.61,231.8 386.96,232.49C387.23,233.03 387.5,233.6 387.86,233.86C388.13,234.06 388.47,234 388.77,234.12C389.08,234.24 389.38,234.4 389.67,234.59C389.98,234.79 390.28,235.04 390.58,235.3C390.89,235.57 391.18,235.88 391.48,236.18C391.78,236.49 392.08,236.81 392.38,237.13C392.68,237.45 392.99,237.77 393.29,238.09C393.59,238.41 393.89,238.74 394.19,239.06C394.49,239.38 394.8,239.71 395.1,240.03C395.4,240.34 395.69,240.67 396,240.96C396.3,241.24 396.59,241.53 396.9,241.77C397.19,242 397.5,242.22 397.81,242.39C398.1,242.55 398.4,242.68 398.71,242.75C399.01,242.82 399.32,242.85 399.62,242.82C399.92,242.79 400.23,242.7 400.52,242.57C400.83,242.43 401.13,242.21 401.42,241.97C401.74,241.71 402.04,241.38 402.33,241.03C402.64,240.66 402.94,240.23 403.23,239.8C403.54,239.34 403.84,238.85 404.14,238.36C404.45,237.86 404.74,237.33 405.04,236.81C405.34,236.29 405.65,235.75 405.95,235.23C406.25,234.71 406.55,234.19 406.85,233.69C407.15,233.2 407.44,232.73 407.75,232.27C408.05,231.83 408.35,231.39 408.66,230.99C408.95,230.61 409.25,230.24 409.56,229.91C409.85,229.6 410.16,229.3 410.47,229.04C410.76,228.8 411.06,228.57 411.37,228.4C411.66,228.24 411.96,228.11 412.27,228.02C412.57,227.94 412.88,227.89 413.18,227.88C413.48,227.87 413.78,227.9 414.08,227.97C414.39,228.04 414.69,228.15 414.99,228.29C415.3,228.43 415.6,228.61 415.89,228.81C416.2,229.01 416.49,229.25 416.79,229.49C417.1,229.74 417.4,230.01 417.7,230.29C418.01,230.57 418.3,230.88 418.6,231.18C418.9,231.49 419.21,231.8 419.51,232.11C419.81,232.42 420.11,232.72 420.41,233.02C420.71,233.31 421.01,233.6 421.32,233.88C421.62,234.15 421.92,234.41 422.22,234.65C422.52,234.88 422.81,235.11 423.12,235.31C423.42,235.51 423.72,235.69 424.03,235.85C424.33,236.01 424.63,236.15 424.93,236.27C425.23,236.39 425.54,236.49 425.84,236.58C426.14,236.67 426.44,236.74 426.74,236.8C427.04,236.86 427.34,236.9 427.64,236.93C427.94,236.96 428.25,236.97 428.55,236.96C428.85,236.95 429.15,236.94 429.45,236.88C429.76,236.82 430.07,236.74 430.36,236.59C430.68,236.43 430.97,236.16 431.26,235.9C431.57,235.62 431.86,235.27 432.16,234.96C432.46,234.65 432.76,234.33 433.07,234.04C433.37,233.76 433.66,233.49 433.97,233.25C434.27,233.02 434.57,232.8 434.88,232.62C435.17,232.45 435.47,232.3 435.78,232.19C436.07,232.09 436.38,232.01 436.68,231.99C436.98,231.97 437.29,231.98 437.59,232.04C437.9,232.1 438.2,232.21 438.49,232.35C438.8,232.5 439.11,232.7 439.4,232.93C439.71,233.18 440.01,233.47 440.3,233.79C440.61,234.13 440.92,234.52 441.21,234.92C441.52,235.35 441.82,235.82 442.11,236.31C442.42,236.82 442.72,237.36 443.01,237.92C443.32,238.5 443.62,239.11 443.92,239.73C444.23,240.37 444.52,241.04 444.82,241.71C445.13,242.41 445.43,243.12 445.73,243.85C446.04,244.59 446.33,245.35 446.63,246.12C446.93,246.91 447.23,247.72 447.53,248.53C447.84,249.36 448.14,250.21 448.44,251.07C448.74,251.94 449.04,252.83 449.34,253.72C449.64,254.63 449.95,255.54 450.25,256.46C450.55,257.39 450.85,258.33 451.15,259.28C451.45,260.23 451.75,261.2 452.05,262.16C452.35,263.12 452.65,264.09 452.96,265.04C453.26,265.97 453.55,266.89 453.86,267.78C454.16,268.64 454.47,269.46 454.77,270.29C455.07,271.1 455.37,271.91 455.67,272.71C455.97,273.5 456.27,274.29 456.58,275.06C456.88,275.81 457.18,276.56 457.48,277.28C457.78,277.98 458.07,278.68 458.38,279.34C458.68,279.98 458.98,280.6 459.29,281.19C459.58,281.75 459.88,282.29 460.19,282.79C460.48,283.25 460.78,283.7 461.1,284.07Q461.39,284.41 462,284.95" style="vector-effect: non-scaling-stroke; fill: none; stroke: rgb(0, 100, 80); stroke-opacity: 1; stroke-width: 2px; opacity: 1;"/></g><g class="points"/><g class="text"/></g><g class="trace scatter trace492aba" style="stroke-miterlimit: 2; opacity: 1;"><g class="fills"/><g class="errorbars"/><g class="lines"><path class="js-line" d="M0,257.95Q0.64,257.28 0.9,256.77C1.28,256.03 1.53,254.87 1.81,253.78C2.14,252.51 2.42,251.07 2.71,249.62C3.03,248.04 3.33,246.35 3.62,244.64C3.93,242.82 4.23,240.93 4.52,239.02C4.83,237.02 5.12,234.97 5.42,232.9C5.73,230.77 6.03,228.6 6.33,226.41C6.63,224.18 6.93,221.91 7.23,219.64C7.53,217.33 7.84,215 8.14,212.66C8.44,210.31 8.74,207.94 9.04,205.57C9.34,203.19 9.65,200.8 9.95,198.42C10.25,196.04 10.55,193.65 10.85,191.27C11.15,188.9 11.45,186.53 11.75,184.18C12.05,181.84 12.36,179.51 12.66,177.19C12.96,174.9 13.26,172.61 13.56,170.34C13.86,168.1 14.17,165.88 14.47,163.67C14.77,161.5 15.07,159.34 15.37,157.21C15.67,155.11 15.97,153.03 16.27,150.97C16.57,148.95 16.88,146.94 17.18,144.96C17.48,143.02 17.78,141.09 18.08,139.19C18.38,137.33 18.69,135.49 18.99,133.66C19.29,131.87 19.59,130.09 19.89,128.33C20.19,126.6 20.49,124.89 20.79,123.2C21.09,121.53 21.39,119.88 21.7,118.25C22,116.65 22.29,115.07 22.6,113.52C22.9,112.02 23.2,110.53 23.51,109.09C23.81,107.71 24.1,106.34 24.41,105.04C24.7,103.81 25.01,102.61 25.32,101.48C25.61,100.43 25.9,99.41 26.22,98.47C26.51,97.62 26.8,96.81 27.12,96.08C27.41,95.44 27.7,94.82 28.03,94.31C28.31,93.87 28.6,93.45 28.93,93.17C29.21,92.93 29.53,92.72 29.84,92.65C30.13,92.58 30.45,92.62 30.74,92.72C31.05,92.83 31.36,93.06 31.64,93.32C31.97,93.61 32.26,94.01 32.55,94.42C32.87,94.88 33.16,95.41 33.45,95.95C33.77,96.54 34.07,97.19 34.36,97.85C34.67,98.56 34.97,99.31 35.26,100.08C35.57,100.88 35.86,101.72 36.16,102.57C36.47,103.45 36.77,104.36 37.07,105.28C37.38,106.22 37.67,107.19 37.97,108.16C38.27,109.15 38.58,110.16 38.88,111.17C39.18,112.2 39.48,113.24 39.78,114.29C40.08,115.35 40.38,116.41 40.68,117.48C40.98,118.56 41.29,119.64 41.59,120.73C41.89,121.82 42.19,122.92 42.49,124.01C42.79,125.11 43.1,126.21 43.4,127.31C43.7,128.4 44,129.5 44.3,130.59C44.6,131.68 44.91,132.76 45.21,133.84C45.51,134.91 45.81,135.97 46.11,137.03C46.41,138.07 46.71,139.11 47.01,140.13C47.31,141.14 47.62,142.14 47.92,143.13C48.22,144.1 48.52,145.06 48.82,146C49.12,146.93 49.42,147.84 49.73,148.74C50.03,149.62 50.33,150.49 50.63,151.34C50.93,152.17 51.22,152.99 51.53,153.79C51.83,154.57 52.13,155.33 52.44,156.07C52.74,156.79 53.03,157.49 53.34,158.17C53.64,158.82 53.94,159.46 54.25,160.07C54.55,160.66 54.85,161.22 55.15,161.78C55.45,162.32 55.75,162.84 56.05,163.36C56.35,163.88 56.66,164.38 56.96,164.89C57.26,165.4 57.56,165.9 57.86,166.42C58.16,166.95 58.47,167.48 58.77,168.02C59.08,168.58 59.37,169.14 59.67,169.72C59.98,170.31 60.28,170.92 60.58,171.54C60.89,172.18 61.19,172.84 61.48,173.51C61.79,174.21 62.08,174.93 62.38,175.67C62.69,176.44 62.99,177.23 63.29,178.04C63.6,178.88 63.89,179.75 64.19,180.63C64.5,181.55 64.8,182.49 65.1,183.45C65.41,184.44 65.7,185.45 66,186.48C66.3,187.54 66.6,188.62 66.9,189.71C67.21,190.83 67.51,191.96 67.81,193.11C68.11,194.28 68.41,195.47 68.71,196.67C69.01,197.89 69.32,199.11 69.62,200.35C69.92,201.61 70.22,202.87 70.52,204.15C70.82,205.44 71.12,206.75 71.42,208.06C71.72,209.39 72.03,210.73 72.33,212.08C72.63,213.44 72.93,214.82 73.23,216.2C73.53,217.6 73.84,219.01 74.14,220.43C74.44,221.87 74.74,223.31 75.04,224.77C75.34,226.24 75.65,227.72 75.95,229.21C76.25,230.71 76.55,232.22 76.85,233.74C77.15,235.27 77.45,236.81 77.75,238.35C78.05,239.9 78.36,241.46 78.66,243.02C78.96,244.59 79.26,246.16 79.56,247.74C79.86,249.32 80.17,250.91 80.47,252.5C80.77,254.09 81.07,255.69 81.37,257.28C81.67,258.87 81.97,260.46 82.27,262.04C82.57,263.6 82.88,265.17 83.18,266.71C83.48,268.22 83.77,269.73 84.08,271.18C84.37,272.56 84.67,273.95 84.99,275.22C85.28,276.37 85.55,277.56 85.89,278.49C86.16,279.23 86.43,279.93 86.79,280.4C87.06,280.75 87.38,281.01 87.7,281.18C87.98,281.33 88.3,281.38 88.6,281.42C88.9,281.46 89.21,281.45 89.51,281.44C89.81,281.43 90.11,281.39 90.41,281.36C90.71,281.32 91.02,281.29 91.32,281.23C91.62,281.17 91.94,281.15 92.22,280.98C92.55,280.78 92.85,280.44 93.12,280.02C93.49,279.44 93.74,278.51 94.03,277.7C94.35,276.82 94.63,275.85 94.93,274.9C95.24,273.92 95.54,272.93 95.84,271.92C96.14,270.9 96.44,269.85 96.74,268.81C97.04,267.75 97.34,266.69 97.64,265.62C97.94,264.54 98.25,263.45 98.55,262.36C98.85,261.27 99.15,260.17 99.45,259.07C99.75,257.97 100.06,256.87 100.36,255.78C100.66,254.7 100.96,253.62 101.26,252.55C101.56,251.5 101.85,250.45 102.16,249.42C102.46,248.42 102.76,247.43 103.07,246.47C103.37,245.54 103.66,244.62 103.97,243.73C104.27,242.88 104.57,242.05 104.88,241.25C105.18,240.48 105.47,239.73 105.78,239.01C106.07,238.32 106.37,237.65 106.68,237C106.98,236.37 107.29,235.77 107.59,235.16C107.89,234.56 108.19,233.98 108.49,233.37C108.8,232.75 109.11,232.13 109.4,231.47C109.71,230.76 110.01,230.02 110.3,229.23C110.62,228.35 110.92,227.42 111.21,226.43C111.53,225.33 111.82,224.13 112.11,222.9C112.42,221.55 112.72,220.12 113.01,218.65C113.32,217.09 113.62,215.45 113.92,213.8C114.23,212.08 114.52,210.3 114.82,208.52C115.13,206.69 115.43,204.81 115.73,202.94C116.03,201.04 116.33,199.12 116.63,197.2C116.93,195.27 117.23,193.33 117.53,191.41C117.83,189.49 118.14,187.58 118.44,185.68C118.74,183.8 119.04,181.93 119.34,180.08C119.64,178.27 119.94,176.48 120.25,174.72C120.55,173.01 120.84,171.31 121.15,169.66C121.44,168.07 121.74,166.5 122.05,164.98C122.34,163.53 122.65,162.11 122.96,160.75C123.25,159.46 123.55,158.2 123.86,157.01C124.15,155.9 124.45,154.82 124.77,153.82C125.06,152.9 125.35,152.02 125.67,151.22C125.96,150.51 126.25,149.83 126.58,149.24C126.86,148.73 127.15,148.24 127.48,147.88C127.76,147.57 128.06,147.29 128.38,147.15C128.67,147.02 128.99,146.98 129.29,147.01C129.6,147.04 129.9,147.21 130.19,147.37C130.5,147.54 130.79,147.86 131.1,148.04C131.39,148.2 131.72,148.48 132,148.41C132.34,148.32 132.63,147.77 132.9,147.29C133.27,146.63 133.52,145.61 133.81,144.73C134.12,143.8 134.4,142.78 134.71,141.84C135.01,140.93 135.3,140.01 135.62,139.17C135.91,138.4 136.2,137.64 136.52,136.98C136.8,136.4 137.08,135.82 137.42,135.39C137.7,135.03 138,134.66 138.33,134.51C138.61,134.38 138.95,134.33 139.23,134.42C139.55,134.52 139.87,134.83 140.14,135.16C140.49,135.57 140.76,136.17 141.04,136.79C141.37,137.53 141.67,138.4 141.95,139.32C142.28,140.38 142.56,141.56 142.85,142.78C143.17,144.15 143.46,145.62 143.75,147.15C144.07,148.82 144.37,150.6 144.66,152.42C144.97,154.38 145.27,156.44 145.56,158.55C145.87,160.79 146.18,163.12 146.47,165.5C146.78,168 147.08,170.57 147.37,173.18C147.68,175.9 147.97,178.69 148.27,181.51C148.58,184.42 148.88,187.4 149.18,190.4C149.49,193.47 149.78,196.59 150.08,199.72C150.38,202.9 150.69,206.12 150.99,209.34C151.29,212.58 151.59,215.86 151.89,219.11C152.19,222.35 152.49,225.62 152.79,228.83C153.09,231.99 153.39,235.16 153.7,238.23C154,241.19 154.29,244.11 154.6,246.94C154.89,249.64 155.2,252.27 155.51,254.85C155.81,257.33 156.1,259.75 156.41,262.12C156.71,264.38 157,266.66 157.32,268.76C157.61,270.67 157.9,272.5 158.22,274.21C158.51,275.74 158.81,277.15 159.12,278.54C159.41,279.83 159.71,281.11 160.03,282.28C160.32,283.32 160.58,284.41 160.93,285.22C161.2,285.84 161.46,286.57 161.84,286.79C162.1,286.94 162.47,286.92 162.74,286.79C163.08,286.63 163.36,286.11 163.64,285.69C163.97,285.19 164.26,284.56 164.55,283.96C164.86,283.32 165.15,282.62 165.45,281.94C165.75,281.25 166.06,280.55 166.36,279.85C166.66,279.16 166.96,278.46 167.26,277.78C167.56,277.11 167.85,276.45 168.16,275.8C168.46,275.17 168.76,274.54 169.07,273.93C169.37,273.33 169.67,272.75 169.97,272.16C170.27,271.58 170.58,271.01 170.88,270.42C171.18,269.82 171.49,269.22 171.78,268.59C172.09,267.92 172.39,267.23 172.68,266.49C173,265.67 173.3,264.8 173.59,263.86C173.91,262.8 174.2,261.65 174.49,260.46C174.81,259.16 175.1,257.75 175.4,256.35C175.71,254.9 176,253.39 176.3,251.9C176.6,250.41 176.91,248.9 177.21,247.42C177.51,245.97 177.81,244.53 178.11,243.12C178.41,241.75 178.7,240.39 179.01,239.06C179.31,237.77 179.61,236.51 179.92,235.27C180.22,234.07 180.51,232.9 180.82,231.74C181.12,230.62 181.42,229.52 181.73,228.43C182.03,227.37 182.33,226.34 182.63,225.31C182.93,224.3 183.23,223.31 183.53,222.33C183.83,221.36 184.14,220.41 184.44,219.46C184.74,218.52 185.04,217.59 185.34,216.67C185.64,215.75 185.95,214.85 186.25,213.94C186.55,213.04 186.85,212.13 187.15,211.23C187.45,210.33 187.75,209.43 188.05,208.53C188.35,207.63 188.66,206.74 188.96,205.84C189.26,204.94 189.56,204.03 189.86,203.12C190.16,202.2 190.47,201.29 190.77,200.35C191.08,199.39 191.37,198.43 191.67,197.44C191.98,196.42 192.28,195.38 192.58,194.32C192.89,193.24 193.18,192.13 193.48,191.03C193.78,189.93 194.07,188.81 194.38,187.74C194.68,186.7 194.98,185.66 195.29,184.69C195.58,183.78 195.87,182.88 196.19,182.07C196.48,181.34 196.77,180.63 197.1,180.04C197.38,179.54 197.66,179.04 198,178.71C198.27,178.45 198.59,178.19 198.9,178.15C199.19,178.11 199.53,178.23 199.81,178.42C200.15,178.65 200.43,179.11 200.71,179.56C201.05,180.12 201.34,180.84 201.62,181.58C201.95,182.45 202.24,183.45 202.52,184.48C202.84,185.65 203.13,186.92 203.42,188.24C203.74,189.68 204.04,191.22 204.33,192.79C204.64,194.47 204.93,196.23 205.23,198.01C205.54,199.87 205.84,201.79 206.14,203.71C206.44,205.66 206.74,207.65 207.04,209.61C207.34,211.54 207.64,213.48 207.95,215.38C208.25,217.23 208.55,219.06 208.85,220.87C209.15,222.65 209.45,224.4 209.75,226.16C210.05,227.9 210.36,229.62 210.66,231.36C210.96,233.1 211.26,234.84 211.56,236.59C211.86,238.35 212.17,240.13 212.47,241.89C212.77,243.64 213.07,245.42 213.37,247.14C213.67,248.81 213.95,250.5 214.27,252.07C214.56,253.51 214.84,254.99 215.18,256.21C215.46,257.2 215.65,258.38 216.08,258.87C216.34,259.17 216.73,259.43 216.99,259.33C217.38,259.18 217.63,258.06 217.89,257.19C218.26,255.96 218.51,254.26 218.79,252.57C219.13,250.53 219.41,248.18 219.7,245.79C220.02,243.12 220.31,240.23 220.6,237.31C220.91,234.21 221.21,230.95 221.51,227.69C221.82,224.33 222.11,220.87 222.41,217.43C222.71,213.96 223.02,210.45 223.32,206.97C223.62,203.51 223.92,200.05 224.22,196.62C224.52,193.22 224.82,189.86 225.12,186.45C225.42,182.99 225.73,179.46 226.03,175.98C226.33,172.52 226.63,169.06 226.93,165.64C227.23,162.26 227.54,158.89 227.84,155.56C228.14,152.28 228.44,149.01 228.74,145.81C229.04,142.7 229.33,139.63 229.64,136.63C229.94,133.75 230.24,130.92 230.55,128.16C230.84,125.53 231.14,122.96 231.45,120.45C231.74,118.06 232.05,115.74 232.36,113.47C232.65,111.31 232.95,109.2 233.26,107.16C233.55,105.22 233.85,103.33 234.16,101.5C234.45,99.78 234.76,98.1 235.07,96.51C235.36,95.03 235.65,93.59 235.97,92.26C236.26,91.06 236.55,89.9 236.88,88.87C237.16,87.98 237.44,87.11 237.78,86.42C238.05,85.87 238.32,85.29 238.68,85.01C238.95,84.8 239.31,84.64 239.59,84.71C239.92,84.79 240.22,85.21 240.49,85.6C240.85,86.13 241.12,86.92 241.4,87.72C241.74,88.7 242.02,89.87 242.3,91.09C242.63,92.51 242.92,94.08 243.21,95.72C243.53,97.56 243.82,99.54 244.11,101.58C244.42,103.81 244.72,106.17 245.01,108.58C245.32,111.16 245.63,113.87 245.92,116.61C246.23,119.49 246.52,122.47 246.82,125.46C247.13,128.54 247.43,131.71 247.73,134.84C248.03,137.98 248.32,141.19 248.63,144.27C248.92,147.23 249.21,150.26 249.53,152.99C249.82,155.41 250.08,157.9 250.44,159.84C250.71,161.29 250.82,163.2 251.34,163.6C251.59,163.79 252,163.78 252.25,163.58C252.76,163.17 252.88,161.34 253.15,159.98C253.5,158.25 253.76,156.1 254.05,154.03C254.37,151.77 254.66,149.34 254.96,146.94C255.27,144.48 255.56,141.95 255.86,139.46C256.16,136.97 256.47,134.49 256.77,132.01C257.07,129.55 257.37,127.11 257.67,124.64C257.97,122.13 258.28,119.64 258.58,117.07C258.89,114.41 259.18,111.67 259.48,108.95C259.78,106.2 260.07,103.38 260.38,100.64C260.68,97.97 260.98,95.3 261.29,92.71C261.59,90.23 261.88,87.81 262.19,85.44C262.49,83.16 262.8,81.01 263.1,78.75C263.41,76.44 263.7,74.11 264,71.75C264.3,69.35 264.58,66.79 264.9,64.46C265.19,62.32 265.48,60.18 265.81,58.3C266.09,56.7 266.36,55.12 266.71,53.86C266.98,52.89 267.21,51.84 267.62,51.34C267.88,51.03 268.25,50.73 268.52,50.8C268.87,50.89 269.16,51.65 269.42,52.27C269.8,53.16 270.05,54.45 270.33,55.74C270.67,57.34 270.95,59.23 271.23,61.18C271.56,63.44 271.85,65.94 272.14,68.52C272.46,71.4 272.75,74.49 273.04,77.67C273.36,81.13 273.66,84.78 273.95,88.52C274.26,92.52 274.56,96.68 274.85,100.93C275.16,105.4 275.45,110.03 275.75,114.72C276.06,119.61 276.36,124.63 276.66,129.71C276.97,134.95 277.26,140.29 277.56,145.67C277.87,151.17 278.17,156.75 278.47,162.35C278.77,168.02 279.07,173.75 279.37,179.46C279.67,185.18 279.97,190.94 280.27,196.63C280.57,202.26 280.87,207.91 281.18,213.41C281.48,218.74 281.77,224.1 282.08,229.16C282.37,233.87 282.62,239.02 282.99,242.79C283.26,245.48 283.26,248.68 283.89,249.69C284.14,250.09 284.54,250.39 284.79,250.29C285.26,250.11 285.43,248.14 285.7,246.73C286.07,244.75 286.32,242.11 286.6,239.49C286.93,236.41 287.22,232.9 287.51,229.41C287.82,225.64 288.11,221.62 288.41,217.63C288.72,213.52 289.02,209.3 289.32,205.11C289.62,200.89 289.92,196.64 290.22,192.42C290.52,188.23 290.82,184.03 291.12,179.89C291.42,175.82 291.72,171.76 292.03,167.77C292.33,163.89 292.62,160.04 292.93,156.27C293.23,152.63 293.53,149.04 293.84,145.55C294.14,142.21 294.43,138.92 294.74,135.74C295.03,132.73 295.33,129.78 295.64,126.95C295.93,124.3 296.24,121.72 296.55,119.26C296.84,116.99 297.13,114.78 297.45,112.71C297.74,110.83 298.04,109.01 298.36,107.33C298.65,105.84 298.93,104.41 299.26,103.13C299.54,102.03 299.82,100.98 300.16,100.1C300.44,99.39 300.71,98.68 301.07,98.23C301.34,97.89 301.68,97.78 301.97,97.5C302.29,97.2 302.54,96.62 302.88,96.47C303.16,96.35 303.51,96.35 303.78,96.48C304.12,96.64 304.41,97.1 304.68,97.53C305.03,98.07 305.31,98.81 305.59,99.54C305.91,100.37 306.19,101.33 306.49,102.25C306.8,103.2 307.11,104.15 307.4,105.16C307.71,106.24 308.01,107.37 308.3,108.55C308.61,109.83 308.92,111.18 309.21,112.57C309.52,114.05 309.82,115.59 310.11,117.16C310.42,118.8 310.71,120.5 311.01,122.21C311.32,123.97 311.62,125.77 311.92,127.57C312.22,129.39 312.52,131.24 312.82,133.08C313.12,134.92 313.43,136.77 313.73,138.59C314.03,140.39 314.33,142.19 314.63,143.96C314.93,145.69 315.22,147.4 315.53,149.09C315.83,150.73 316.13,152.35 316.44,153.94C316.74,155.49 317.03,157.03 317.34,158.54C317.64,160.02 317.95,161.47 318.25,162.91C318.55,164.33 318.85,165.73 319.15,167.12C319.45,168.5 319.75,169.86 320.05,171.22C320.35,172.57 320.66,173.9 320.96,175.24C321.26,176.57 321.56,177.9 321.86,179.23C322.16,180.56 322.47,181.89 322.77,183.23C323.07,184.57 323.37,185.92 323.67,187.27C323.97,188.63 324.28,189.99 324.58,191.35C324.88,192.72 325.18,194.1 325.48,195.48C325.78,196.87 326.08,198.26 326.38,199.65C326.68,201.04 326.99,202.42 327.29,203.8C327.59,205.17 327.89,206.55 328.19,207.9C328.49,209.23 328.8,210.56 329.1,211.87C329.4,213.16 329.7,214.44 330,215.7C330.3,216.94 330.6,218.16 330.9,219.38C331.2,220.59 331.51,221.78 331.81,222.98C332.11,224.18 332.41,225.37 332.71,226.57C333.01,227.78 333.32,229 333.62,230.23C333.92,231.47 334.22,232.72 334.52,233.96C334.82,235.21 335.12,236.46 335.42,237.7C335.72,238.92 336.03,240.14 336.33,241.34C336.63,242.52 336.93,243.68 337.23,244.85C337.53,246.01 337.81,247.27 338.14,248.31C338.42,249.19 338.73,249.91 339.04,250.69C339.34,251.45 339.65,252.18 339.95,252.93C340.25,253.68 340.55,254.44 340.85,255.19C341.15,255.95 341.45,256.71 341.75,257.46C342.05,258.21 342.36,258.97 342.66,259.71C342.96,260.45 343.25,261.18 343.56,261.9C343.86,262.6 344.16,263.29 344.47,263.96C344.77,264.6 345.06,265.25 345.37,265.84C345.66,266.39 345.95,266.94 346.27,267.42C346.56,267.86 346.86,268.29 347.18,268.62C347.46,268.91 347.76,269.21 348.08,269.33C348.37,269.44 348.7,269.47 348.99,269.39C349.31,269.3 349.6,269.02 349.89,268.78C350.2,268.52 350.49,268.17 350.79,267.87C351.09,267.57 351.39,267.25 351.7,266.98C351.99,266.73 352.29,266.48 352.6,266.29C352.89,266.11 353.2,265.96 353.51,265.86C353.8,265.77 354.11,265.72 354.41,265.71C354.71,265.7 355.02,265.75 355.32,265.78C355.62,265.81 355.92,265.9 356.22,265.91C356.52,265.92 356.82,265.91 357.12,265.87C357.42,265.83 357.73,265.77 358.03,265.66C358.34,265.55 358.64,265.4 358.93,265.2C359.25,264.98 359.55,264.7 359.84,264.37C360.16,264 360.45,263.55 360.74,263.08C361.06,262.55 361.35,261.96 361.64,261.34C361.96,260.67 362.26,259.94 362.55,259.19C362.86,258.39 363.15,257.54 363.45,256.68C363.76,255.78 364.06,254.85 364.36,253.91C364.67,252.93 364.96,251.93 365.26,250.91C365.56,249.87 365.86,248.81 366.16,247.73C366.47,246.62 366.77,245.49 367.07,244.34C367.38,243.14 367.67,241.92 367.97,240.68C368.28,239.4 368.58,238.08 368.88,236.77C369.18,235.45 369.48,234.1 369.78,232.79C370.08,231.5 370.37,230.21 370.68,228.97C370.98,227.78 371.28,226.6 371.59,225.48C371.88,224.43 372.17,223.39 372.49,222.43C372.78,221.55 373.08,220.7 373.4,219.92C373.69,219.22 373.97,218.55 374.3,217.97C374.58,217.47 374.88,216.99 375.21,216.64C375.49,216.34 375.79,216.06 376.11,215.94C376.39,215.83 376.72,215.8 377.01,215.87C377.33,215.95 377.64,216.18 377.92,216.43C378.25,216.73 378.54,217.17 378.82,217.62C379.15,218.14 379.44,218.76 379.73,219.41C380.05,220.14 380.34,220.94 380.63,221.78C380.95,222.7 381.24,223.68 381.53,224.7C381.84,225.79 382.15,226.95 382.44,228.13C382.75,229.39 383.05,230.7 383.34,232.03C383.65,233.43 383.95,234.87 384.25,236.33C384.56,237.84 384.85,239.4 385.15,240.93C385.45,242.46 385.72,244.12 386.05,245.53C386.33,246.76 386.62,247.93 386.96,248.94C387.24,249.77 387.55,250.44 387.86,251.17C388.16,251.88 388.47,252.58 388.77,253.28C389.07,253.98 389.37,254.7 389.67,255.39C389.97,256.07 390.27,256.76 390.58,257.41C390.87,258.03 391.17,258.65 391.48,259.22C391.77,259.75 392.06,260.27 392.38,260.73C392.67,261.15 392.97,261.55 393.29,261.88C393.58,262.18 393.87,262.45 394.19,262.65C394.48,262.83 394.79,262.97 395.1,263.05C395.39,263.12 395.7,263.15 396,263.11C396.3,263.07 396.61,262.96 396.9,262.82C397.21,262.67 397.52,262.45 397.81,262.21C398.13,261.95 398.42,261.63 398.71,261.28C399.03,260.9 399.33,260.46 399.62,260.01C399.93,259.52 400.23,258.98 400.52,258.43C400.83,257.84 401.12,257.21 401.42,256.58C401.73,255.93 402.03,255.25 402.33,254.57C402.63,253.88 402.93,253.17 403.23,252.47C403.53,251.77 403.84,251.06 404.14,250.36C404.44,249.67 404.74,248.98 405.04,248.31C405.34,247.65 405.64,247 405.95,246.36C406.25,245.74 406.54,245.13 406.85,244.54C407.14,243.97 407.44,243.42 407.75,242.88C408.05,242.36 408.35,241.85 408.66,241.37C408.95,240.91 409.25,240.47 409.56,240.06C409.85,239.67 410.16,239.31 410.47,238.98C410.76,238.68 411.06,238.4 411.37,238.16C411.66,237.94 411.96,237.75 412.27,237.6C412.57,237.45 412.87,237.35 413.18,237.26C413.48,237.17 413.78,237.11 414.08,237.05C414.38,236.99 414.69,236.94 414.99,236.89C415.29,236.84 415.59,236.78 415.89,236.73C416.19,236.69 416.49,236.65 416.79,236.62C417.09,236.59 417.4,236.57 417.7,236.55C418,236.53 418.3,236.53 418.6,236.51C418.9,236.49 419.21,236.48 419.51,236.44C419.81,236.41 420.11,236.36 420.41,236.3C420.71,236.23 421.02,236.16 421.32,236.05C421.62,235.94 421.93,235.81 422.22,235.66C422.53,235.5 422.82,235.31 423.12,235.11C423.43,234.9 423.73,234.67 424.03,234.43C424.33,234.19 424.63,233.92 424.93,233.66C425.23,233.39 425.54,233.12 425.84,232.85C426.14,232.58 426.44,232.31 426.74,232.05C427.04,231.8 427.33,231.54 427.64,231.31C427.94,231.08 428.24,230.87 428.55,230.68C428.85,230.5 429.15,230.33 429.45,230.18C429.75,230.03 430.06,229.92 430.36,229.77C430.66,229.61 430.97,229.47 431.26,229.25C431.58,229.01 431.87,228.68 432.16,228.37C432.47,228.04 432.81,227.77 433.07,227.3C433.45,226.62 433.68,225.52 433.97,224.56C434.29,223.51 434.57,222.3 434.88,221.23C435.17,220.22 435.47,219.24 435.78,218.31C436.07,217.44 436.36,216.61 436.68,215.82C436.97,215.1 437.27,214.4 437.59,213.76C437.88,213.18 438.17,212.62 438.49,212.12C438.78,211.67 439.08,211.25 439.4,210.88C439.69,210.55 439.98,210.24 440.3,210C440.59,209.78 440.9,209.58 441.21,209.45C441.5,209.32 441.81,209.24 442.11,209.2C442.41,209.16 442.71,209.18 443.01,209.23C443.32,209.28 443.62,209.38 443.92,209.5C444.23,209.63 444.53,209.81 444.82,210C445.13,210.21 445.44,210.45 445.73,210.71C446.04,210.99 446.34,211.3 446.63,211.62C446.94,211.96 447.24,212.33 447.53,212.71C447.84,213.11 448.14,213.54 448.44,213.98C448.75,214.44 449.04,214.92 449.34,215.41C449.65,215.92 449.95,216.45 450.25,217C450.56,217.57 450.85,218.15 451.15,218.75C451.46,219.37 451.75,220 452.05,220.65C452.36,221.33 452.66,222.02 452.96,222.73C453.27,223.46 453.56,224.2 453.86,224.96C454.17,225.74 454.47,226.54 454.77,227.35C455.08,228.18 455.37,229.02 455.67,229.87C455.97,230.73 456.28,231.59 456.58,232.46C456.88,233.33 457.18,234.21 457.48,235.08C457.78,235.94 458.07,236.81 458.38,237.65C458.68,238.47 458.98,239.29 459.29,240.07C459.58,240.81 459.87,241.55 460.19,242.22C460.48,242.84 460.77,243.46 461.1,243.97Q461.38,244.41 462,245.13" style="vector-effect: non-scaling-stroke; fill: none; stroke: rgb(0, 176, 246); stroke-opacity: 1; stroke-width: 2px; opacity: 1;"/></g><g class="points"/><g class="text"/></g><g class="trace scatter trace8fc2b8" style="stroke-miterlimit: 2; opacity: 1;"><g class="fills"/><g class="errorbars"/><g class="lines"><path class="js-line" d="M0,253.52Q0.64,251.13 0.9,249.57C1.28,247.33 1.52,244.23 1.81,241.33C2.13,238.08 2.42,234.53 2.71,230.98C3.02,227.22 3.32,223.3 3.62,219.36C3.93,215.29 4.22,211.12 4.52,206.94C4.82,202.68 5.12,198.36 5.42,194.03C5.72,189.66 6.03,185.25 6.33,180.85C6.63,176.44 6.93,172 7.23,167.59C7.53,163.19 7.84,158.78 8.14,154.41C8.44,150.07 8.74,145.75 9.04,141.46C9.34,137.23 9.65,133.03 9.95,128.87C10.25,124.79 10.55,120.74 10.85,116.76C11.15,112.88 11.44,109.03 11.75,105.26C12.05,101.6 12.35,97.98 12.66,94.45C12.96,91.05 13.25,87.71 13.56,84.46C13.86,81.36 14.16,78.31 14.47,75.36C14.76,72.57 15.06,69.85 15.37,67.23C15.66,64.79 15.95,62.41 16.27,60.15C16.56,58.07 16.86,56.06 17.18,54.18C17.47,52.49 17.75,50.85 18.08,49.37C18.36,48.08 18.65,46.83 18.99,45.76C19.27,44.87 19.53,44 19.89,43.37C20.16,42.9 20.44,42.37 20.79,42.23C21.06,42.12 21.43,42.17 21.7,42.33C22.06,42.55 22.33,43.14 22.6,43.68C22.95,44.38 23.23,45.3 23.51,46.24C23.84,47.36 24.13,48.65 24.41,49.99C24.73,51.51 25.03,53.16 25.32,54.87C25.64,56.75 25.93,58.76 26.22,60.83C26.53,63.06 26.83,65.4 27.12,67.79C27.43,70.33 27.73,72.96 28.03,75.64C28.34,78.45 28.63,81.34 28.93,84.27C29.24,87.3 29.54,90.41 29.84,93.52C30.14,96.69 30.44,99.93 30.74,103.13C31.04,106.32 31.32,109.63 31.64,112.68C31.93,115.48 32.16,118.6 32.55,120.75C32.81,122.21 32.95,123.86 33.45,124.38C33.7,124.64 34.09,124.73 34.36,124.64C34.71,124.52 34.98,123.89 35.26,123.43C35.59,122.89 35.86,122.21 36.16,121.57C36.47,120.9 36.77,120.19 37.07,119.51C37.37,118.85 37.66,118.18 37.97,117.55C38.26,116.96 38.57,116.37 38.88,115.84C39.17,115.35 39.46,114.88 39.78,114.46C40.07,114.08 40.36,113.73 40.68,113.44C40.97,113.18 41.28,112.95 41.59,112.79C41.88,112.64 42.19,112.53 42.49,112.49C42.79,112.45 43.1,112.47 43.4,112.53C43.71,112.59 44.01,112.71 44.3,112.87C44.61,113.04 44.92,113.27 45.21,113.52C45.52,113.79 45.82,114.11 46.11,114.45C46.42,114.82 46.72,115.23 47.01,115.67C47.32,116.14 47.63,116.65 47.92,117.18C48.23,117.75 48.53,118.36 48.82,119C49.13,119.68 49.44,120.4 49.73,121.15C50.04,121.95 50.34,122.79 50.63,123.66C50.94,124.59 51.24,125.55 51.53,126.55C51.84,127.61 52.15,128.72 52.44,129.86C52.75,131.07 53.05,132.32 53.34,133.61C53.65,134.97 53.96,136.38 54.25,137.83C54.56,139.35 54.86,140.92 55.15,142.53C55.46,144.22 55.75,145.95 56.05,147.72C56.36,149.57 56.66,151.46 56.96,153.39C57.27,155.4 57.56,157.45 57.86,159.54C58.17,161.7 58.47,163.9 58.77,166.13C59.08,168.42 59.37,170.76 59.67,173.12C59.98,175.53 60.28,177.98 60.58,180.44C60.88,182.92 61.17,185.51 61.48,187.94C61.77,190.23 62.03,192.68 62.38,194.61C62.65,196.11 62.93,197.47 63.29,198.58C63.56,199.42 63.81,200.25 64.19,200.72C64.45,201.04 64.79,201.31 65.1,201.33C65.4,201.34 65.71,201.06 66,200.85C66.32,200.62 66.6,200.25 66.9,199.96C67.2,199.67 67.49,199.34 67.81,199.11C68.1,198.9 68.4,198.68 68.71,198.59C69,198.5 69.33,198.47 69.62,198.53C69.93,198.59 70.24,198.77 70.52,198.99C70.84,199.24 71.14,199.6 71.42,199.99C71.75,200.43 72.04,200.97 72.33,201.53C72.65,202.16 72.94,202.87 73.23,203.61C73.55,204.42 73.85,205.3 74.14,206.2C74.45,207.18 74.75,208.21 75.04,209.28C75.35,210.42 75.66,211.61 75.95,212.83C76.26,214.11 76.56,215.44 76.85,216.8C77.16,218.22 77.45,219.68 77.75,221.16C78.06,222.7 78.36,224.27 78.66,225.86C78.97,227.5 79.26,229.17 79.56,230.85C79.87,232.57 80.17,234.32 80.47,236.07C80.77,237.85 81.07,239.65 81.37,241.45C81.67,243.27 81.97,245.1 82.27,246.93C82.57,248.76 82.88,250.6 83.18,252.43C83.48,254.25 83.78,256.07 84.08,257.87C84.38,259.64 84.67,261.5 84.99,263.14C85.28,264.59 85.56,265.99 85.89,267.22C86.17,268.25 86.45,269.23 86.79,270.04C87.07,270.7 87.38,271.25 87.7,271.77C87.98,272.22 88.28,272.63 88.6,272.99C88.89,273.32 89.19,273.62 89.51,273.86C89.8,274.08 90.1,274.27 90.41,274.39C90.7,274.51 91.02,274.58 91.32,274.6C91.62,274.62 91.93,274.58 92.22,274.5C92.53,274.42 92.83,274.29 93.12,274.1C93.44,273.89 93.76,273.65 94.03,273.27C94.4,272.74 94.64,271.83 94.93,271.07C95.24,270.27 95.54,269.43 95.84,268.59C96.15,267.73 96.44,266.85 96.74,265.96C97.04,265.06 97.34,264.14 97.64,263.23C97.94,262.31 98.25,261.39 98.55,260.47C98.85,259.56 99.14,258.65 99.45,257.76C99.75,256.89 100.05,256.02 100.36,255.18C100.66,254.37 100.95,253.57 101.26,252.8C101.55,252.07 101.85,251.35 102.16,250.67C102.45,250.03 102.76,249.41 103.07,248.83C103.36,248.29 103.66,247.76 103.97,247.28C104.26,246.84 104.57,246.42 104.88,246.04C105.17,245.69 105.47,245.36 105.78,245.07C106.07,244.8 106.37,244.56 106.68,244.34C106.98,244.13 107.28,243.96 107.59,243.8C107.89,243.64 108.19,243.51 108.49,243.37C108.79,243.23 109.1,243.11 109.4,242.97C109.7,242.83 110,242.68 110.3,242.51C110.61,242.33 110.92,242.15 111.21,241.92C111.52,241.68 111.82,241.41 112.11,241.1C112.42,240.76 112.72,240.39 113.01,239.97C113.33,239.5 113.63,238.97 113.92,238.39C114.24,237.74 114.54,237.02 114.82,236.24C115.14,235.35 115.44,234.37 115.73,233.34C116.05,232.19 116.34,230.93 116.63,229.64C116.94,228.23 117.24,226.73 117.53,225.21C117.84,223.61 118.14,221.94 118.44,220.26C118.75,218.53 119.04,216.76 119.34,214.99C119.64,213.2 119.95,211.39 120.25,209.59C120.55,207.78 120.85,205.96 121.15,204.16C121.45,202.37 121.75,200.58 122.05,198.8C122.35,197.05 122.66,195.3 122.96,193.57C123.26,191.87 123.55,190.18 123.86,188.52C124.16,186.89 124.46,185.28 124.77,183.7C125.07,182.16 125.36,180.63 125.67,179.13C125.97,177.68 126.27,176.24 126.58,174.84C126.88,173.48 127.17,172.15 127.48,170.85C127.77,169.6 128.07,168.37 128.38,167.17C128.68,166.03 128.98,164.9 129.29,163.82C129.58,162.79 129.88,161.78 130.19,160.81C130.48,159.9 130.79,159.02 131.1,158.18C131.39,157.4 131.69,156.64 132,155.94C132.29,155.3 132.58,154.67 132.9,154.12C133.19,153.62 133.49,153.15 133.81,152.75C134.09,152.4 134.39,152.07 134.71,151.85C135,151.65 135.31,151.49 135.62,151.43C135.91,151.38 136.23,151.4 136.52,151.5C136.83,151.6 137.14,151.82 137.42,152.07C137.75,152.35 138.04,152.74 138.33,153.14C138.65,153.6 138.94,154.14 139.23,154.7C139.55,155.33 139.85,156.03 140.14,156.76C140.46,157.56 140.75,158.43 141.04,159.32C141.35,160.28 141.66,161.3 141.95,162.35C142.26,163.48 142.56,164.66 142.85,165.87C143.16,167.15 143.46,168.49 143.75,169.85C144.06,171.29 144.36,172.77 144.66,174.29C144.97,175.88 145.26,177.51 145.56,179.17C145.87,180.9 146.17,182.67 146.47,184.47C146.78,186.34 147.07,188.25 147.37,190.18C147.67,192.18 147.97,194.21 148.27,196.27C148.58,198.39 148.88,200.54 149.18,202.71C149.49,204.94 149.78,207.2 150.08,209.48C150.38,211.81 150.69,214.16 150.99,216.53C151.29,218.94 151.59,221.38 151.89,223.83C152.19,226.31 152.49,228.8 152.79,231.31C153.09,233.84 153.4,236.39 153.7,238.94C154,241.5 154.3,244.08 154.6,246.65C154.9,249.23 155.21,251.8 155.51,254.38C155.81,256.95 156.11,259.53 156.41,262.09C156.71,264.63 157.02,267.17 157.32,269.69C157.62,272.17 157.92,274.65 158.22,277.09C158.52,279.47 158.81,281.83 159.12,284.13C159.42,286.33 159.72,288.52 160.03,290.59C160.32,292.52 160.61,294.44 160.93,296.19C161.22,297.75 161.48,299.37 161.84,300.61C162.11,301.55 162.37,302.44 162.74,303.04C163,303.47 163.31,303.88 163.64,304C163.92,304.1 164.27,304.05 164.55,303.9C164.89,303.72 165.18,303.31 165.45,302.86C165.81,302.25 166.09,301.41 166.36,300.47C166.73,299.19 166.98,297.47 167.26,295.82C167.58,293.97 167.86,291.88 168.16,289.89C168.46,287.88 168.77,285.83 169.07,283.82C169.37,281.84 169.66,279.87 169.97,277.93C170.27,276.04 170.57,274.17 170.88,272.35C171.18,270.6 171.47,268.87 171.78,267.2C172.07,265.6 172.37,264.03 172.68,262.52C172.97,261.09 173.28,259.69 173.59,258.34C173.88,257.07 174.18,255.84 174.49,254.65C174.78,253.53 175.09,252.44 175.4,251.4C175.69,250.42 175.99,249.47 176.3,248.56C176.59,247.7 176.9,246.88 177.21,246.09C177.5,245.36 177.8,244.65 178.11,243.99C178.4,243.38 178.69,242.81 179.01,242.28C179.3,241.79 179.6,241.33 179.92,240.92C180.21,240.55 180.51,240.2 180.82,239.9C181.11,239.62 181.42,239.37 181.73,239.14C182.02,238.92 182.33,238.75 182.63,238.56C182.93,238.38 183.23,238.22 183.53,238.03C183.84,237.84 184.15,237.65 184.44,237.41C184.75,237.16 185.05,236.87 185.34,236.54C185.66,236.17 185.96,235.74 186.25,235.28C186.57,234.77 186.86,234.18 187.15,233.58C187.46,232.93 187.76,232.22 188.05,231.49C188.36,230.72 188.66,229.9 188.96,229.07C189.27,228.2 189.56,227.3 189.86,226.39C190.17,225.45 190.47,224.48 190.77,223.5C191.07,222.5 191.37,221.49 191.67,220.47C191.97,219.44 192.28,218.4 192.58,217.36C192.88,216.32 193.18,215.27 193.48,214.23C193.78,213.2 194.08,212.17 194.38,211.15C194.68,210.15 194.98,209.15 195.29,208.17C195.59,207.22 195.88,206.28 196.19,205.37C196.49,204.5 196.79,203.64 197.1,202.82C197.39,202.05 197.69,201.29 198,200.58C198.29,199.93 198.58,199.29 198.9,198.72C199.19,198.21 199.48,197.72 199.81,197.33C200.09,196.99 200.38,196.65 200.71,196.47C200.99,196.31 201.32,196.19 201.62,196.22C201.93,196.25 202.24,196.43 202.52,196.65C202.86,196.92 203.14,197.36 203.42,197.82C203.76,198.37 204.05,199.06 204.33,199.78C204.66,200.62 204.94,201.57 205.23,202.56C205.55,203.68 205.85,204.91 206.14,206.18C206.46,207.58 206.75,209.09 207.04,210.63C207.35,212.3 207.66,214.06 207.95,215.84C208.26,217.72 208.55,219.69 208.85,221.62C209.15,223.56 209.45,225.52 209.75,227.47C210.05,229.43 210.36,231.38 210.66,233.37C210.97,235.41 211.26,237.47 211.56,239.55C211.87,241.68 212.17,243.86 212.47,246.03C212.77,248.22 213.07,250.44 213.37,252.62C213.67,254.77 213.96,256.94 214.27,259.02C214.56,260.99 214.86,262.97 215.18,264.79C215.47,266.43 215.74,268.07 216.08,269.46C216.36,270.6 216.59,271.84 216.99,272.55C217.25,273 217.61,273.55 217.89,273.52C218.22,273.48 218.53,272.63 218.79,271.95C219.19,270.91 219.42,269.31 219.7,267.74C220.04,265.79 220.32,263.46 220.6,261.11C220.92,258.44 221.22,255.5 221.51,252.53C221.82,249.33 222.11,245.93 222.41,242.53C222.72,238.99 223.02,235.34 223.32,231.69C223.62,227.98 223.92,224.19 224.22,220.44C224.52,216.68 224.82,212.89 225.12,209.14C225.42,205.42 225.73,201.69 226.03,198.01C226.33,194.4 226.62,190.81 226.93,187.29C227.23,183.88 227.53,180.49 227.84,177.2C228.14,174.04 228.43,170.92 228.74,167.91C229.03,165.05 229.33,162.25 229.64,159.56C229.93,157.04 230.24,154.59 230.55,152.26C230.84,150.11 231.13,148.02 231.45,146.07C231.74,144.31 232.04,142.61 232.36,141.06C232.64,139.7 232.93,138.39 233.26,137.25C233.54,136.3 233.81,135.38 234.16,134.68C234.43,134.14 234.71,133.56 235.07,133.33C235.34,133.16 235.69,133.09 235.97,133.19C236.31,133.32 236.61,133.81 236.88,134.26C237.24,134.86 237.5,135.69 237.78,136.54C238.12,137.57 238.4,138.78 238.68,140.04C239.01,141.48 239.3,143.08 239.59,144.73C239.91,146.56 240.2,148.54 240.49,150.55C240.8,152.7 241.11,154.93 241.4,157.23C241.71,159.67 242.01,162.2 242.3,164.79C242.61,167.54 242.92,170.39 243.21,173.29C243.52,176.33 243.81,179.47 244.11,182.64C244.42,185.91 244.71,189.27 245.01,192.62C245.31,196.03 245.62,199.48 245.92,202.92C246.22,206.37 246.52,209.85 246.82,213.29C247.12,216.71 247.43,220.14 247.73,223.52C248.03,226.83 248.32,230.16 248.63,233.37C248.92,236.44 249.21,239.53 249.53,242.39C249.82,244.98 250.09,247.63 250.44,249.8C250.71,251.51 250.79,253.74 251.34,254.36C251.59,254.64 252,254.8 252.25,254.65C252.79,254.33 252.88,251.94 253.15,250.26C253.51,248.03 253.76,245.19 254.05,242.42C254.37,239.32 254.67,235.92 254.96,232.54C255.27,228.99 255.56,225.3 255.86,221.62C256.16,217.87 256.47,214.06 256.77,210.27C257.07,206.48 257.37,202.66 257.67,198.89C257.97,195.15 258.28,191.42 258.58,187.73C258.88,184.1 259.18,180.51 259.48,176.92C259.78,173.36 260.08,169.84 260.38,166.29C260.68,162.72 260.99,159.11 261.29,155.57C261.59,152.09 261.88,148.61 262.19,145.23C262.49,141.98 262.79,138.77 263.1,135.67C263.39,132.72 263.69,129.83 264,127.06C264.29,124.46 264.59,121.94 264.9,119.53C265.19,117.31 265.49,115.15 265.81,113.14C266.1,111.32 266.39,109.57 266.71,107.97C266.99,106.57 267.28,105.22 267.62,104.06C267.9,103.09 268.16,102.15 268.52,101.45C268.79,100.92 269.06,100.33 269.42,100.16C269.69,100.03 270.06,100.06 270.33,100.21C270.69,100.42 270.96,101.03 271.23,101.58C271.58,102.31 271.86,103.27 272.14,104.26C272.47,105.44 272.76,106.8 273.04,108.21C273.36,109.81 273.66,111.56 273.95,113.37C274.27,115.37 274.56,117.5 274.85,119.69C275.16,122.05 275.46,124.53 275.75,127.06C276.06,129.75 276.36,132.55 276.66,135.4C276.97,138.38 277.26,141.45 277.56,144.55C277.87,147.76 278.17,151.05 278.47,154.35C278.77,157.72 279.07,161.16 279.37,164.58C279.67,168.02 279.97,171.51 280.27,174.94C280.57,178.32 280.87,181.73 281.18,184.99C281.47,188.09 281.76,191.23 282.08,194.07C282.37,196.59 282.62,199.22 282.99,201.2C283.26,202.64 283.51,204.83 283.89,204.88C284.15,204.92 284.54,204.03 284.79,203.28C285.27,201.86 285.42,199.15 285.7,196.72C286.04,193.69 286.31,190.06 286.6,186.48C286.92,182.52 287.21,178.24 287.51,173.98C287.82,169.54 288.11,164.93 288.41,160.35C288.71,155.71 289.02,151 289.32,146.33C289.62,141.67 289.92,136.98 290.22,132.35C290.52,127.77 290.82,123.21 291.12,118.7C291.42,114.28 291.72,109.89 292.03,105.57C292.33,101.36 292.62,97.2 292.93,93.11C293.23,89.15 293.53,85.25 293.84,81.43C294.14,77.76 294.43,74.14 294.74,70.63C295.03,67.28 295.33,63.98 295.64,60.8C295.93,57.79 296.24,54.85 296.55,52.03C296.84,49.39 297.13,46.81 297.45,44.37C297.74,42.12 298.04,39.94 298.36,37.89C298.65,36.04 298.94,34.26 299.26,32.62C299.54,31.18 299.83,29.8 300.16,28.59C300.44,27.58 300.72,26.6 301.07,25.83C301.34,25.23 301.6,24.6 301.97,24.32C302.24,24.11 302.6,23.98 302.88,24.06C303.21,24.15 303.51,24.61 303.78,25.02C304.14,25.57 304.4,26.36 304.68,27.15C305.02,28.11 305.31,29.24 305.59,30.4C305.91,31.73 306.2,33.18 306.49,34.69C306.81,36.35 307.11,38.13 307.4,39.96C307.71,41.93 308.01,43.99 308.3,46.1C308.61,48.33 308.91,50.65 309.21,53C309.52,55.46 309.81,57.99 310.11,60.54C310.41,63.17 310.71,65.85 311.01,68.55C311.31,71.3 311.62,74.1 311.92,76.88C312.22,79.68 312.52,82.5 312.82,85.3C313.12,88.08 313.43,90.88 313.73,93.63C314.03,96.33 314.33,99.01 314.63,101.64C314.93,104.19 315.22,106.72 315.53,109.19C315.83,111.58 316.13,113.94 316.44,116.25C316.74,118.49 317.03,120.69 317.34,122.86C317.64,124.97 317.94,127.05 318.25,129.1C318.55,131.11 318.85,133.08 319.15,135.05C319.45,136.98 319.75,138.89 320.05,140.79C320.35,142.66 320.66,144.52 320.96,146.37C321.26,148.21 321.56,150.05 321.86,151.88C322.16,153.71 322.47,155.53 322.77,157.36C323.07,159.2 323.37,161.03 323.67,162.88C323.97,164.75 324.28,166.62 324.58,168.51C324.88,170.43 325.18,172.35 325.48,174.3C325.78,176.28 326.08,178.28 326.38,180.3C326.68,182.36 326.99,184.45 327.29,186.56C327.59,188.72 327.89,190.9 328.19,193.1C328.49,195.35 328.8,197.63 329.1,199.93C329.4,202.28 329.7,204.65 330,207.04C330.3,209.47 330.6,211.93 330.9,214.4C331.2,216.9 331.51,219.42 331.81,221.93C332.11,224.45 332.41,226.99 332.71,229.49C333.01,231.96 333.31,234.45 333.62,236.86C333.92,239.19 334.21,241.52 334.52,243.73C334.81,245.79 335.11,247.77 335.42,249.71C335.71,251.54 336.02,253.31 336.33,255.06C336.63,256.76 336.92,258.46 337.23,260.06C337.52,261.55 337.79,263.14 338.14,264.36C338.41,265.29 338.71,266.05 339.04,266.77C339.32,267.4 339.63,267.94 339.95,268.47C340.24,268.95 340.54,269.38 340.85,269.81C341.14,270.22 341.45,270.61 341.75,271C342.05,271.39 342.36,271.76 342.66,272.14C342.96,272.52 343.26,272.89 343.56,273.26C343.86,273.63 344.17,273.98 344.47,274.34C344.77,274.69 345.07,275.05 345.37,275.39C345.67,275.73 345.97,276.06 346.27,276.39C346.57,276.71 346.87,277.03 347.18,277.33C347.48,277.62 347.76,277.95 348.08,278.15C348.37,278.33 348.71,278.59 348.99,278.52C349.33,278.43 349.62,277.82 349.89,277.36C350.23,276.78 350.49,275.97 350.79,275.27C351.09,274.57 351.39,273.84 351.7,273.15C352,272.48 352.29,271.83 352.6,271.2C352.89,270.6 353.2,270.02 353.51,269.47C353.8,268.95 354.1,268.45 354.41,267.98C354.7,267.54 355.01,267.11 355.32,266.72C355.61,266.35 355.91,266 356.22,265.68C356.51,265.37 356.81,265.08 357.12,264.81C357.42,264.55 357.72,264.31 358.03,264.08C358.33,263.85 358.63,263.64 358.93,263.43C359.23,263.22 359.54,263.03 359.84,262.81C360.14,262.59 360.45,262.37 360.74,262.13C361.05,261.88 361.35,261.61 361.64,261.32C361.95,261.01 362.26,260.67 362.55,260.3C362.86,259.9 363.16,259.47 363.45,259.01C363.76,258.51 364.07,257.97 364.36,257.41C364.67,256.8 364.97,256.16 365.26,255.49C365.57,254.78 365.86,254.02 366.16,253.26C366.47,252.46 366.77,251.63 367.07,250.79C367.38,249.92 367.67,249.02 367.97,248.12C368.27,247.2 368.58,246.27 368.88,245.33C369.18,244.38 369.48,243.42 369.78,242.47C370.08,241.52 370.38,240.56 370.68,239.62C370.98,238.68 371.29,237.75 371.59,236.83C371.89,235.93 372.18,235.03 372.49,234.15C372.79,233.3 373.09,232.46 373.4,231.64C373.7,230.85 373.99,230.08 374.3,229.33C374.6,228.62 374.9,227.92 375.21,227.26C375.5,226.64 375.8,226.03 376.11,225.47C376.4,224.94 376.7,224.44 377.01,223.98C377.3,223.56 377.6,223.16 377.92,222.81C378.21,222.5 378.5,222.21 378.82,221.98C379.11,221.77 379.42,221.59 379.73,221.49C380.02,221.39 380.33,221.35 380.63,221.36C380.93,221.37 381.24,221.45 381.53,221.57C381.84,221.7 382.15,221.9 382.44,222.13C382.76,222.38 383.05,222.69 383.34,223.02C383.66,223.38 383.96,223.79 384.25,224.22C384.56,224.68 384.83,225.27 385.15,225.71C385.43,226.1 385.75,226.38 386.05,226.73C386.36,227.09 386.67,227.44 386.96,227.83C387.27,228.25 387.57,228.7 387.86,229.16C388.17,229.65 388.47,230.16 388.77,230.69C389.08,231.24 389.37,231.8 389.67,232.38C389.98,232.98 390.28,233.59 390.58,234.21C390.88,234.84 391.18,235.48 391.48,236.12C391.78,236.77 392.08,237.43 392.38,238.09C392.68,238.75 392.99,239.41 393.29,240.06C393.59,240.71 393.89,241.35 394.19,241.99C394.49,242.62 394.79,243.24 395.1,243.85C395.4,244.45 395.69,245.04 396,245.61C396.29,246.16 396.59,246.7 396.9,247.22C397.2,247.71 397.5,248.2 397.81,248.64C398.1,249.06 398.4,249.46 398.71,249.81C399,250.13 399.3,250.44 399.62,250.68C399.91,250.9 400.21,251.09 400.52,251.21C400.81,251.33 401.12,251.39 401.42,251.42C401.72,251.45 402.03,251.43 402.33,251.4C402.63,251.37 402.93,251.3 403.23,251.24C403.53,251.18 403.84,251.09 404.14,251.02C404.44,250.95 404.74,250.88 405.04,250.83C405.34,250.78 405.65,250.73 405.95,250.72C406.25,250.71 406.55,250.73 406.85,250.77C407.15,250.81 407.45,250.88 407.75,250.99C408.06,251.1 408.37,251.25 408.66,251.43C408.97,251.62 409.27,251.85 409.56,252.1C409.87,252.36 410.17,252.67 410.47,252.98C410.78,253.3 411.07,253.67 411.37,254C411.67,254.32 411.96,254.65 412.27,254.92C412.56,255.17 412.87,255.37 413.18,255.57C413.48,255.77 413.78,255.94 414.08,256.12C414.38,256.3 414.69,256.47 414.99,256.64C415.29,256.8 415.59,256.96 415.89,257.11C416.19,257.25 416.49,257.39 416.79,257.51C417.09,257.63 417.39,257.76 417.7,257.84C418,257.92 418.3,258.01 418.6,258.01C418.9,258.01 419.24,258 419.51,257.82C419.87,257.58 420.13,256.97 420.41,256.46C420.74,255.86 421.04,255.18 421.32,254.44C421.65,253.6 421.93,252.64 422.22,251.66C422.54,250.57 422.83,249.37 423.12,248.18C423.43,246.92 423.73,245.61 424.03,244.3C424.33,242.97 424.63,241.61 424.93,240.26C425.23,238.92 425.54,237.56 425.84,236.23C426.14,234.92 426.44,233.61 426.74,232.32C427.04,231.06 427.33,229.8 427.64,228.58C427.94,227.4 428.24,226.23 428.55,225.09C428.85,223.99 429.14,222.91 429.45,221.86C429.74,220.86 430.05,219.89 430.36,218.95C430.65,218.06 430.95,217.2 431.26,216.38C431.55,215.61 431.84,214.87 432.16,214.18C432.45,213.54 432.75,212.93 433.07,212.38C433.36,211.88 433.65,211.39 433.97,210.98C434.26,210.61 434.56,210.27 434.88,210.01C435.17,209.78 435.47,209.58 435.78,209.48C436.07,209.39 436.38,209.35 436.68,209.39C436.99,209.43 437.3,209.56 437.59,209.74C437.91,209.93 438.2,210.23 438.49,210.54C438.81,210.89 439.11,211.31 439.4,211.76C439.72,212.26 440.01,212.82 440.3,213.41C440.62,214.05 440.92,214.74 441.21,215.46C441.52,216.23 441.82,217.06 442.11,217.9C442.42,218.79 442.72,219.73 443.01,220.68C443.32,221.68 443.62,222.72 443.92,223.77C444.23,224.87 444.52,226 444.82,227.14C445.13,228.31 445.43,229.51 445.73,230.72C446.03,231.95 446.33,233.2 446.63,234.45C446.93,235.71 447.23,236.98 447.53,238.25C447.83,239.51 448.14,240.78 448.44,242.04C448.74,243.28 449.04,244.52 449.34,245.75C449.64,246.96 449.95,248.15 450.25,249.34C450.55,250.51 450.85,251.67 451.15,252.82C451.45,253.96 451.75,255.08 452.05,256.21C452.35,257.33 452.66,258.44 452.96,259.55C453.26,260.66 453.56,261.76 453.86,262.87C454.16,263.97 454.47,265.08 454.77,266.18C455.07,267.29 455.37,268.4 455.67,269.5C455.97,270.6 456.28,271.7 456.58,272.8C456.88,273.89 457.18,274.97 457.48,276.05C457.78,277.11 458.08,278.17 458.38,279.21C458.68,280.23 458.98,281.25 459.29,282.23C459.59,283.18 459.88,284.12 460.19,285.01C460.48,285.85 460.78,286.69 461.1,287.44Q461.39,288.11 462,289.29" style="vector-effect: non-scaling-stroke; fill: none; stroke: rgb(231, 107, 243); stroke-opacity: 1; stroke-width: 2px; opacity: 1;"/></g><g class="points"/><g class="text"/></g></g></g><g class="overplot"/><path class="xlines-above crisp" d="M0,0" style="fill: none;"/><path class="ylines-above crisp" d="M0,0" style="fill: none;"/><g class="overlines-above"/><g class="xaxislayer-above"><g class="xtick"><text text-anchor="middle" x="0" y="433" transform="translate(80,0)" style="font-family: 'Open Sans', verdana, arial, sans-serif; font-size: 12px; fill: rgb(42, 63, 95); fill-opacity: 1; white-space: pre;">0</text></g><g class="xtick"><text text-anchor="middle" x="0" y="433" transform="translate(170.23000000000002,0)" style="font-family: 'Open Sans', verdana, arial, sans-serif; font-size: 12px; fill: rgb(42, 63, 95); fill-opacity: 1; white-space: pre;">100</text></g><g class="xtick"><text text-anchor="middle" x="0" y="433" transform="translate(260.47,0)" style="font-family: 'Open Sans', verdana, arial, sans-serif; font-size: 12px; fill: rgb(42, 63, 95); fill-opacity: 1; white-space: pre;">200</text></g><g class="xtick"><text text-anchor="middle" x="0" y="433" transform="translate(350.7,0)" style="font-family: 'Open Sans', verdana, arial, sans-serif; font-size: 12px; fill: rgb(42, 63, 95); fill-opacity: 1; white-space: pre;">300</text></g><g class="xtick"><text text-anchor="middle" x="0" y="433" transform="translate(440.94,0)" style="font-family: 'Open Sans', verdana, arial, sans-serif; font-size: 12px; fill: rgb(42, 63, 95); fill-opacity: 1; white-space: pre;">400</text></g><g class="xtick"><text text-anchor="middle" x="0" y="433" transform="translate(531.1700000000001,0)" style="font-family: 'Open Sans', verdana, arial, sans-serif; font-size: 12px; fill: rgb(42, 63, 95); fill-opacity: 1; white-space: pre;">500</text></g></g><g class="yaxislayer-above"><g class="ytick"><text text-anchor="end" x="79" y="4.199999999999999" transform="translate(0,394.17)" style="font-family: 'Open Sans', verdana, arial, sans-serif; font-size: 12px; fill: rgb(42, 63, 95); fill-opacity: 1; white-space: pre;">5</text></g><g class="ytick"><text text-anchor="end" x="79" y="4.199999999999999" transform="translate(0,335.26)" style="font-family: 'Open Sans', verdana, arial, sans-serif; font-size: 12px; fill: rgb(42, 63, 95); fill-opacity: 1; white-space: pre;">10</text></g><g class="ytick"><text text-anchor="end" x="79" y="4.199999999999999" transform="translate(0,276.34000000000003)" style="font-family: 'Open Sans', verdana, arial, sans-serif; font-size: 12px; fill: rgb(42, 63, 95); fill-opacity: 1; white-space: pre;">15</text></g><g class="ytick"><text text-anchor="end" x="79" y="4.199999999999999" transform="translate(0,217.43)" style="font-family: 'Open Sans', verdana, arial, sans-serif; font-size: 12px; fill: rgb(42, 63, 95); fill-opacity: 1; white-space: pre;">20</text></g><g class="ytick"><text text-anchor="end" x="79" y="4.199999999999999" transform="translate(0,158.52)" style="font-family: 'Open Sans', verdana, arial, sans-serif; font-size: 12px; fill: rgb(42, 63, 95); fill-opacity: 1; white-space: pre;">25</text></g></g><g class="overaxes-above"/></g></g><g class="polarlayer"/><g class="ternarylayer"/><g class="geolayer"/><g class="funnelarealayer"/><g class="pielayer"/><g class="treemaplayer"/><g class="sunburstlayer"/><g class="glimages"/><defs id="topdefs-5c4360"><g class="clips"/><clipPath id="legend5c4360"><rect width="137" height="67" x="0" y="0"/></clipPath></defs><g class="layer-above"><g class="imagelayer"/><g class="shapelayer"/></g><g class="infolayer"><g class="legend" pointer-events="all" transform="translate(551.24, 100)"><rect class="bg" shape-rendering="crispEdges" width="137" height="67" x="0" y="0" style="stroke: rgb(68, 68, 68); stroke-opacity: 1; fill: rgb(255, 255, 255); fill-opacity: 1; stroke-width: 0px;"/><g class="scrollbox" transform="translate(0, 0)" clip-path="url('#legend5c4360')"><g class="groups"><g class="traces" transform="translate(0, 14.5)" style="opacity: 1;"><text class="legendtext" text-anchor="start" x="40" y="4.680000000000001" style="font-family: 'Open Sans', verdana, arial, sans-serif; font-size: 12px; fill: rgb(42, 63, 95); fill-opacity: 1; white-space: pre;">Average Class I</text><g class="layers" style="opacity: 1;"><g class="legendfill"/><g class="legendlines"><path class="js-line" d="M5,0h30" style="fill: none; stroke: rgb(0, 100, 80); stroke-opacity: 1; stroke-width: 2px;"/></g><g class="legendsymbols"><g class="legendpoints"/></g></g><rect class="legendtoggle" x="0" y="-9.5" width="131.15625" height="19" style="fill: rgb(0, 0, 0); fill-opacity: 0;"/></g><g class="traces" transform="translate(0, 33.5)" style="opacity: 1;"><text class="legendtext" text-anchor="start" x="40" y="4.680000000000001" style="font-family: 'Open Sans', verdana, arial, sans-serif; font-size: 12px; fill: rgb(42, 63, 95); fill-opacity: 1; white-space: pre;">Average Class II</text><g class="layers" style="opacity: 1;"><g class="legendfill"/><g class="legendlines"><path class="js-line" d="M5,0h30" style="fill: none; stroke: rgb(0, 176, 246); stroke-opacity: 1; stroke-width: 2px;"/></g><g class="legendsymbols"><g class="legendpoints"/></g></g><rect class="legendtoggle" x="0" y="-9.5" width="131.15625" height="19" style="fill: rgb(0, 0, 0); fill-opacity: 0;"/></g><g class="traces" transform="translate(0, 52.5)" style="opacity: 1;"><text class="legendtext" text-anchor="start" x="40" y="4.680000000000001" style="font-family: 'Open Sans', verdana, arial, sans-serif; font-size: 12px; fill: rgb(42, 63, 95); fill-opacity: 1; white-space: pre;">Average Class III</text><g class="layers" style="opacity: 1;"><g class="legendfill"/><g class="legendlines"><path class="js-line" d="M5,0h30" style="fill: none; stroke: rgb(231, 107, 243); stroke-opacity: 1; stroke-width: 2px;"/></g><g class="legendsymbols"><g class="legendpoints"/></g></g><rect class="legendtoggle" x="0" y="-9.5" width="131.15625" height="19" style="fill: rgb(0, 0, 0); fill-opacity: 0;"/></g></g></g><rect class="scrollbar" rx="20" ry="3" width="0" height="0" x="0" y="0" style="fill: rgb(128, 139, 164); fill-opacity: 1;"/></g><g class="g-gtitle"><text class="gtitle" x="35" y="50" text-anchor="start" dy="0em" style="font-family: 'Open Sans', verdana, arial, sans-serif; font-size: 17px; fill: rgb(42, 63, 95); opacity: 1; font-weight: normal; white-space: pre;">Average curve: betha-structure_group</text></g><g class="g-xtitle"><text class="xtitle" x="311" y="460.8" text-anchor="middle" style="font-family: 'Open Sans', verdana, arial, sans-serif; font-size: 14px; fill: rgb(42, 63, 95); opacity: 1; font-weight: normal; white-space: pre;">Domain</text></g><g class="g-ytitle"><text class="ytitle" transform="rotate(-90,40.840625,260)" x="40.840625" y="260" text-anchor="middle" style="font-family: 'Open Sans', verdana, arial, sans-serif; font-size: 14px; fill: rgb(42, 63, 95); opacity: 1; font-weight: normal; white-space: pre;">Frequency</text></g></g></svg>