<svg class="main-svg" xmlns="http://www.w3.org/2000/svg" xmlns:xlink="http://www.w3.org/1999/xlink" width="700" height="500" style="" viewBox="0 0 700 500"><rect x="0" y="0" width="700" height="500" style="fill: rgb(255, 255, 255); fill-opacity: 1;"/><defs id="defs-13682d"><g class="clips"><clipPath id="clip13682dxyplot" class="plotclip"><rect width="462" height="320"/></clipPath><clipPath class="axesclip" id="clip13682dx"><rect x="80" y="0" width="462" height="500"/></clipPath><clipPath class="axesclip" id="clip13682dy"><rect x="0" y="100" width="700" height="320"/></clipPath><clipPath class="axesclip" id="clip13682dxy"><rect x="80" y="100" width="462" height="320"/></clipPath></g><g class="gradients"/></defs><g class="bglayer"><rect class="bg" x="80" y="100" width="462" height="320" style="fill: rgb(229, 236, 246); fill-opacity: 1; stroke-width: 0;"/></g><g class="layer-below"><g class="imagelayer"/><g class="shapelayer"/></g><g class="cartesianlayer"><g class="subplot xy"><g class="layer-subplot"><g class="shapelayer"/><g class="imagelayer"/></g><g class="gridlayer"><g class="x"><path class="xgrid crisp" transform="translate(170.23000000000002,0)" d="M0,100v320" style="stroke: rgb(255, 255, 255); stroke-opacity: 1; stroke-width: 1px;"/><path class="xgrid crisp" transform="translate(260.47,0)" d="M0,100v320" style="stroke: rgb(255, 255, 255); stroke-opacity: 1; stroke-width: 1px;"/><path class="xgrid crisp" transform="translate(350.7,0)" d="M0,100v320" style="stroke: rgb(255, 255, 255); stroke-opacity: 1; stroke-width: 1px;"/><path class="xgrid crisp" transform="translate(440.94,0)" d="M0,100v320" style="stroke: rgb(255, 255, 255); stroke-opacity: 1; stroke-width: 1px;"/><path class="xgrid crisp" transform="translate(531.1700000000001,0)" d="M0,100v320" style="stroke: rgb(255, 255, 255); stroke-opacity: 1; stroke-width: 1px;"/></g><g class="y"><path class="ygrid crisp" transform="translate(0,370.3)" d="M80,0h462" style="stroke: rgb(255, 255, 255); stroke-opacity: 1; stroke-width: 1px;"/><path class="ygrid crisp" transform="translate(0,309.81)" d="M80,0h462" style="stroke: rgb(255, 255, 255); stroke-opacity: 1; stroke-width: 1px;"/><path class="ygrid crisp" transform="translate(0,249.32)" d="M80,0h462" style="stroke: rgb(255, 255, 255); stroke-opacity: 1; stroke-width: 1px;"/><path class="ygrid crisp" transform="translate(0,188.82999999999998)" d="M80,0h462" style="stroke: rgb(255, 255, 255); stroke-opacity: 1; stroke-width: 1px;"/><path class="ygrid crisp" transform="translate(0,128.34)" d="M80,0h462" style="stroke: rgb(255, 255, 255); stroke-opacity: 1; stroke-width: 1px;"/></g></g><g class="zerolinelayer"><path class="xzl zl crisp" transform="translate(80,0)" d="M0,100v320" style="stroke: rgb(255, 255, 255); stroke-opacity: 1; stroke-width: 2px;"/></g><path class="xlines-below"/><path class="ylines-below"/><g class="overlines-below"/><g class="xaxislayer-below"/><g class="yaxislayer-below"/><g class="overaxes-below"/><g class="plot" transform="translate(80, 100)" clip-path="url('#clip13682dxyplot')"><g class="scatterlayer mlayer"><g class="trace scatter trace8fbadd" style="stroke-miterlimit: 2; opacity: 1;"><g class="fills"/><g class="errorbars"/><g class="lines"><path class="js-line" d="M0,177.1Q0.62,176.97 0.9,176.8C1.23,176.6 1.53,176.27 1.81,175.92C2.14,175.51 2.42,175 2.71,174.47C3.03,173.87 3.33,173.19 3.62,172.49C3.94,171.72 4.23,170.88 4.52,170.01C4.83,169.08 5.13,168.08 5.42,167.07C5.73,166 6.03,164.88 6.33,163.74C6.64,162.55 6.93,161.32 7.23,160.07C7.54,158.78 7.84,157.45 8.14,156.11C8.45,154.74 8.74,153.34 9.04,151.93C9.34,150.5 9.65,149.05 9.95,147.59C10.25,146.12 10.55,144.63 10.85,143.15C11.15,141.66 11.45,140.16 11.75,138.67C12.05,137.19 12.36,135.7 12.66,134.23C12.96,132.77 13.26,131.31 13.56,129.87C13.86,128.45 14.16,127.04 14.47,125.65C14.77,124.3 15.07,122.96 15.37,121.64C15.67,120.36 15.96,119.1 16.27,117.87C16.57,116.69 16.87,115.52 17.18,114.39C17.48,113.31 17.77,112.25 18.08,111.23C18.37,110.26 18.68,109.32 18.99,108.4C19.29,107.52 19.59,106.68 19.89,105.84C20.19,105.02 20.5,104.27 20.79,103.41C21.11,102.46 21.42,101.5 21.7,100.38C22.04,99.01 22.3,97.3 22.6,95.78C22.9,94.29 23.2,92.78 23.51,91.34C23.8,89.98 24.1,88.65 24.41,87.38C24.7,86.2 25.01,85.07 25.32,83.96C25.61,82.91 25.92,81.92 26.22,80.91C26.52,79.92 26.81,78.9 27.12,77.96C27.41,77.08 27.7,76.18 28.03,75.42C28.31,74.77 28.58,74.11 28.93,73.66C29.2,73.3 29.51,72.93 29.84,72.83C30.12,72.75 30.47,72.81 30.74,72.97C31.08,73.17 31.37,73.65 31.64,74.11C31.99,74.7 32.27,75.47 32.55,76.26C32.88,77.2 33.17,78.28 33.45,79.41C33.77,80.69 34.07,82.1 34.36,83.55C34.68,85.16 34.97,86.87 35.26,88.64C35.57,90.56 35.87,92.58 36.16,94.66C36.47,96.88 36.78,99.19 37.07,101.55C37.38,104.05 37.68,106.64 37.97,109.27C38.28,112.03 38.58,114.87 38.88,117.75C39.19,120.75 39.48,123.82 39.78,126.93C40.08,130.14 40.38,133.41 40.68,136.72C40.99,140.12 41.29,143.58 41.59,147.06C41.89,150.62 42.19,154.22 42.49,157.84C42.79,161.52 43.1,165.24 43.4,168.97C43.7,172.74 44,176.55 44.3,180.35C44.6,184.18 44.91,188.03 45.21,191.87C45.51,195.72 45.81,199.58 46.11,203.42C46.41,207.25 46.71,211.07 47.01,214.87C47.31,218.63 47.62,222.39 47.92,226.1C48.22,229.75 48.51,233.39 48.82,236.97C49.12,240.47 49.42,243.95 49.73,247.35C50.03,250.65 50.32,253.9 50.63,257.08C50.92,260.13 51.22,263.17 51.53,266.05C51.82,268.74 52.12,271.37 52.44,273.85C52.73,276.12 53.02,278.32 53.34,280.35C53.63,282.15 53.92,283.86 54.25,285.42C54.53,286.78 54.83,288.04 55.15,289.21C55.43,290.23 55.72,291.19 56.05,292.04C56.33,292.77 56.6,293.53 56.96,294.01C57.23,294.37 57.56,294.8 57.86,294.8C58.16,294.8 58.49,294.34 58.77,294.03C59.1,293.67 59.37,293.17 59.67,292.73C59.98,292.27 60.28,291.8 60.58,291.32C60.88,290.83 61.17,290.32 61.48,289.84C61.77,289.38 62.07,288.91 62.38,288.51C62.67,288.14 62.97,287.76 63.29,287.49C63.57,287.25 63.88,287.04 64.19,286.95C64.48,286.86 64.8,286.86 65.1,286.92C65.41,286.98 65.71,287.16 66,287.35C66.32,287.56 66.61,287.87 66.9,288.18C67.21,288.51 67.51,288.91 67.81,289.29C68.12,289.68 68.4,290.14 68.71,290.5C69,290.84 69.3,291.19 69.62,291.41C69.9,291.6 70.21,291.78 70.52,291.81C70.82,291.84 71.15,291.79 71.42,291.61C71.77,291.38 72.05,290.86 72.33,290.38C72.67,289.8 72.95,289.07 73.23,288.31C73.56,287.42 73.85,286.41 74.14,285.36C74.46,284.17 74.75,282.87 75.04,281.54C75.36,280.09 75.66,278.56 75.95,276.99C76.26,275.32 76.56,273.58 76.85,271.8C77.16,269.92 77.45,267.98 77.75,266.01C78.06,263.96 78.36,261.84 78.66,259.71C78.97,257.53 79.26,255.3 79.56,253.08C79.86,250.83 80.17,248.55 80.47,246.28C80.77,244 81.07,241.72 81.37,239.44C81.67,237.17 81.97,234.9 82.27,232.65C82.57,230.42 82.88,228.19 83.18,225.98C83.48,223.8 83.78,221.63 84.08,219.49C84.38,217.39 84.68,215.3 84.99,213.25C85.29,211.25 85.59,209.26 85.89,207.31C86.19,205.42 86.48,203.54 86.79,201.71C87.09,199.93 87.39,198.18 87.7,196.47C88,194.83 88.29,193.22 88.6,191.65C88.9,190.15 89.2,188.67 89.51,187.24C89.8,185.89 90.1,184.56 90.41,183.29C90.7,182.09 91.01,180.91 91.32,179.79C91.61,178.74 91.91,177.72 92.22,176.76C92.51,175.87 92.8,175 93.12,174.2C93.41,173.46 93.71,172.76 94.03,172.11C94.32,171.52 94.61,170.96 94.93,170.47C95.22,170.03 95.52,169.61 95.84,169.27C96.13,168.97 96.42,168.7 96.74,168.51C97.03,168.34 97.33,168.2 97.64,168.14C97.94,168.08 98.25,168.1 98.55,168.16C98.86,168.22 99.16,168.36 99.45,168.52C99.76,168.7 100.07,168.94 100.36,169.2C100.67,169.48 100.97,169.81 101.26,170.15C101.57,170.52 101.87,170.92 102.16,171.34C102.47,171.78 102.77,172.24 103.07,172.71C103.37,173.18 103.66,173.69 103.97,174.16C104.27,174.62 104.57,175.08 104.88,175.49C105.17,175.88 105.47,176.24 105.78,176.57C106.07,176.88 106.36,177.19 106.68,177.41C106.97,177.61 107.28,177.75 107.59,177.86C107.88,177.97 108.19,178.01 108.49,178.07C108.79,178.12 109.1,178.16 109.4,178.19C109.7,178.22 110,178.23 110.3,178.24C110.6,178.25 110.91,178.25 111.21,178.23C111.51,178.21 111.81,178.18 112.11,178.13C112.41,178.08 112.71,178.03 113.01,177.95C113.31,177.87 113.62,177.78 113.92,177.67C114.22,177.56 114.52,177.44 114.82,177.31C115.12,177.18 115.43,177.03 115.73,176.89C116.03,176.75 116.33,176.6 116.63,176.47C116.93,176.34 117.23,176.22 117.53,176.13C117.83,176.04 118.14,175.96 118.44,175.93C118.74,175.9 119.04,175.89 119.34,175.94C119.65,175.99 119.96,176.09 120.25,176.23C120.56,176.38 120.86,176.6 121.15,176.85C121.47,177.13 121.76,177.47 122.05,177.84C122.37,178.26 122.67,178.74 122.96,179.25C123.28,179.82 123.57,180.46 123.86,181.12C124.18,181.85 124.48,182.64 124.77,183.47C125.09,184.37 125.38,185.34 125.67,186.34C125.98,187.42 126.29,188.56 126.58,189.74C126.89,191 127.19,192.33 127.48,193.69C127.79,195.14 128.09,196.65 128.38,198.2C128.69,199.84 129,201.54 129.29,203.28C129.6,205.11 129.89,207 130.19,208.93C130.5,210.95 130.8,213.02 131.1,215.13C131.41,217.33 131.71,219.59 132,221.88C132.31,224.26 132.6,226.69 132.9,229.15C133.21,231.69 133.51,234.27 133.81,236.89C134.12,239.58 134.41,242.32 134.71,245.07C135.01,247.88 135.32,250.73 135.62,253.59C135.92,256.48 136.22,259.42 136.52,262.32C136.82,265.19 137.11,268.1 137.42,270.89C137.72,273.56 138.02,276.19 138.33,278.73C138.62,281.14 138.91,283.58 139.23,285.78C139.52,287.74 139.75,289.87 140.14,291.3C140.4,292.25 140.75,293.63 141.04,293.62C141.35,293.61 141.69,292.09 141.95,291.01C142.35,289.32 142.57,286.74 142.85,284.4C143.17,281.76 143.45,278.83 143.75,275.96C144.06,272.97 144.36,269.9 144.66,266.81C144.97,263.64 145.26,260.38 145.56,257.16C145.86,253.93 146.17,250.69 146.47,247.47C146.77,244.27 147.07,241.07 147.37,237.89C147.67,234.74 147.97,231.61 148.27,228.5C148.57,225.42 148.88,222.37 149.18,219.32C149.48,216.3 149.78,213.29 150.08,210.29C150.38,207.29 150.69,204.29 150.99,201.32C151.29,198.39 151.59,195.46 151.89,192.58C152.19,189.77 152.48,186.98 152.79,184.24C153.09,181.59 153.39,178.96 153.7,176.4C154,173.93 154.29,171.5 154.6,169.13C154.9,166.86 155.2,164.63 155.51,162.46C155.8,160.4 156.1,158.38 156.41,156.42C156.7,154.55 157.01,152.74 157.32,150.96C157.62,149.26 157.91,147.6 158.22,145.97C158.51,144.41 158.81,142.86 159.12,141.39C159.41,140.01 159.71,138.66 160.03,137.4C160.32,136.26 160.6,135.16 160.93,134.17C161.21,133.31 161.5,132.49 161.84,131.81C162.12,131.25 162.39,130.7 162.74,130.36C163.01,130.1 163.34,129.85 163.64,129.84C163.94,129.83 164.28,130.02 164.55,130.26C164.9,130.56 165.17,131.1 165.45,131.64C165.79,132.3 166.08,133.11 166.36,133.96C166.69,134.95 166.98,136.06 167.26,137.22C167.58,138.52 167.87,139.94 168.16,141.4C168.48,143.01 168.78,144.71 169.07,146.47C169.38,148.37 169.68,150.37 169.97,152.41C170.28,154.59 170.59,156.85 170.88,159.16C171.19,161.6 171.49,164.12 171.78,166.69C172.09,169.38 172.38,172.14 172.68,174.95C172.99,177.87 173.29,180.85 173.59,183.88C173.9,187 174.19,190.19 174.49,193.41C174.8,196.72 175.1,200.08 175.4,203.47C175.71,206.94 176,210.45 176.3,213.99C176.6,217.59 176.91,221.23 177.21,224.88C177.51,228.58 177.81,232.31 178.11,236.05C178.41,239.81 178.71,243.6 179.01,247.38C179.31,251.16 179.62,254.97 179.92,258.74C180.22,262.49 180.51,266.28 180.82,269.94C181.12,273.47 181.41,277.03 181.73,280.35C182.02,283.39 182.31,286.36 182.63,289.1C182.91,291.53 183.18,294.01 183.53,295.98C183.8,297.49 183.91,299.45 184.44,299.96C184.69,300.2 185.09,300.3 185.34,300.14C185.88,299.79 185.98,297.55 186.25,295.93C186.61,293.78 186.86,290.96 187.15,288.33C187.46,285.51 187.75,282.5 188.05,279.55C188.35,276.55 188.66,273.5 188.96,270.49C189.26,267.5 189.56,264.5 189.86,261.54C190.16,258.63 190.46,255.74 190.77,252.9C191.07,250.13 191.36,247.39 191.67,244.71C191.97,242.12 192.27,239.56 192.58,237.06C192.88,234.66 193.17,232.31 193.48,230.02C193.77,227.85 194.07,225.71 194.38,223.66C194.67,221.72 194.98,219.83 195.29,218.02C195.58,216.33 195.87,214.68 196.19,213.12C196.48,211.68 196.78,210.29 197.1,208.99C197.39,207.81 197.68,206.67 198,205.64C198.28,204.73 198.57,203.86 198.9,203.1C199.18,202.45 199.47,201.83 199.81,201.35C200.09,200.96 200.38,200.57 200.71,200.39C200.99,200.24 201.33,200.16 201.62,200.22C201.93,200.28 202.24,200.55 202.52,200.82C202.86,201.16 203.14,201.65 203.42,202.16C203.75,202.76 204.04,203.48 204.33,204.23C204.65,205.07 204.94,206.01 205.23,206.98C205.55,208.05 205.85,209.2 206.14,210.39C206.45,211.67 206.75,213.03 207.04,214.42C207.35,215.9 207.66,217.44 207.95,219.01C208.26,220.67 208.56,222.39 208.85,224.14C209.16,225.97 209.45,227.84 209.75,229.75C210.06,231.73 210.36,233.75 210.66,235.8C210.97,237.92 211.26,240.08 211.56,242.26C211.87,244.49 212.17,246.78 212.47,249.03C212.77,251.28 213.06,253.62 213.37,255.77C213.66,257.75 213.96,259.61 214.27,261.46C214.57,263.24 214.88,264.91 215.18,266.67C215.48,268.46 215.78,270.27 216.08,272.1C216.39,273.98 216.69,275.9 216.99,277.82C217.29,279.78 217.59,281.76 217.89,283.74C218.19,285.72 218.47,287.79 218.79,289.68C219.08,291.4 219.36,293.14 219.7,294.62C219.98,295.85 220.19,297.18 220.6,297.96C220.86,298.46 221.24,299.09 221.51,299.04C221.88,298.97 222.15,297.51 222.41,296.49C222.78,295.06 223.04,293.1 223.32,291.19C223.65,288.95 223.93,286.36 224.22,283.86C224.53,281.25 224.82,278.55 225.12,275.86C225.42,273.11 225.73,270.32 226.03,267.53C226.33,264.7 226.63,261.85 226.93,258.99C227.23,256.11 227.54,253.21 227.84,250.31C228.14,247.4 228.44,244.48 228.74,241.56C229.04,238.63 229.34,235.7 229.64,232.77C229.94,229.83 230.25,226.9 230.55,223.96C230.85,221.02 231.15,218.08 231.45,215.14C231.75,212.2 232.06,209.26 232.36,206.33C232.66,203.41 232.96,200.48 233.26,197.57C233.56,194.66 233.86,191.76 234.16,188.87C234.46,185.99 234.77,183.14 235.07,180.27C235.37,177.4 235.67,174.56 235.97,171.67C236.27,168.74 236.58,165.79 236.88,162.83C237.18,159.83 237.48,156.79 237.78,153.79C238.08,150.8 238.38,147.82 238.68,144.86C238.98,141.94 239.29,139.03 239.59,136.16C239.89,133.34 240.19,130.53 240.49,127.76C240.79,125.05 241.09,122.35 241.4,119.7C241.7,117.11 241.99,114.54 242.3,112.01C242.6,109.55 242.9,107.13 243.21,104.74C243.51,102.43 243.8,100.15 244.11,97.91C244.4,95.75 244.7,93.63 245.01,91.55C245.31,89.56 245.61,87.6 245.92,85.69C246.21,83.87 246.51,82.09 246.82,80.36C247.11,78.72 247.42,77.12 247.73,75.58C248.02,74.13 248.32,72.72 248.63,71.37C248.92,70.12 249.21,68.91 249.53,67.77C249.82,66.72 250.12,65.71 250.44,64.78C250.73,63.94 251.01,63.14 251.34,62.43C251.62,61.81 251.92,61.22 252.25,60.75C252.53,60.35 252.82,59.95 253.15,59.73C253.43,59.54 253.75,59.4 254.05,59.41C254.35,59.42 254.68,59.58 254.96,59.78C255.29,60.02 255.58,60.43 255.86,60.85C256.19,61.35 256.49,61.98 256.77,62.63C257.1,63.38 257.38,64.23 257.67,65.11C257.99,66.1 258.29,67.17 258.58,68.28C258.9,69.5 259.19,70.79 259.48,72.13C259.79,73.57 260.09,75.08 260.38,76.63C260.69,78.28 261,80 261.29,81.76C261.6,83.61 261.89,85.52 262.19,87.47C262.5,89.51 262.8,91.6 263.1,93.73C263.41,95.94 263.7,98.2 264,100.49C264.3,102.85 264.6,105.25 264.9,107.67C265.21,110.15 265.51,112.67 265.81,115.2C266.11,117.78 266.41,120.39 266.71,123.01C267.01,125.65 267.32,128.32 267.62,130.98C267.92,133.66 268.22,136.35 268.52,139.03C268.82,141.7 269.12,144.37 269.42,147.02C269.72,149.64 270.02,152.25 270.33,154.82C270.63,157.33 270.92,159.84 271.23,162.28C271.53,164.64 271.83,166.98 272.14,169.24C272.43,171.39 272.73,173.51 273.04,175.52C273.33,177.39 273.63,179.22 273.95,180.92C274.24,182.45 274.53,183.93 274.85,185.26C275.13,186.41 275.41,187.52 275.75,188.46C276.03,189.24 276.31,189.98 276.66,190.53C276.93,190.96 277.22,191.38 277.56,191.58C277.84,191.75 278.17,191.83 278.47,191.79C278.78,191.75 279.09,191.53 279.37,191.3C279.7,191.04 279.98,190.65 280.27,190.26C280.59,189.82 280.89,189.3 281.18,188.78C281.49,188.22 281.79,187.61 282.08,186.99C282.39,186.34 282.69,185.66 282.99,184.98C283.29,184.29 283.59,183.57 283.89,182.88C284.19,182.2 284.48,181.51 284.79,180.85C285.09,180.22 285.39,179.59 285.7,179.01C285.99,178.47 286.28,177.94 286.6,177.48C286.89,177.06 287.19,176.65 287.51,176.33C287.8,176.04 288.09,175.78 288.41,175.61C288.7,175.46 289.01,175.35 289.32,175.32C289.62,175.3 289.93,175.35 290.22,175.45C290.53,175.56 290.83,175.77 291.12,176C291.44,176.26 291.74,176.59 292.03,176.96C292.35,177.37 292.64,177.85 292.93,178.36C293.25,178.92 293.55,179.54 293.84,180.18C294.16,180.88 294.45,181.65 294.74,182.42C295.05,183.24 295.34,184.11 295.64,184.98C295.95,185.87 296.24,186.81 296.55,187.68C296.84,188.5 297.11,189.37 297.45,190.04C297.73,190.58 298.02,191.09 298.36,191.44C298.64,191.72 298.95,191.91 299.26,192.06C299.55,192.2 299.86,192.27 300.16,192.32C300.46,192.37 300.77,192.37 301.07,192.34C301.37,192.31 301.68,192.25 301.97,192.14C302.28,192.03 302.59,191.86 302.88,191.66C303.2,191.44 303.49,191.16 303.78,190.85C304.1,190.5 304.39,190.1 304.68,189.66C305,189.17 305.3,188.62 305.59,188.04C305.91,187.41 306.2,186.72 306.49,186C306.8,185.22 307.11,184.39 307.4,183.54C307.71,182.63 308.01,181.67 308.3,180.7C308.61,179.67 308.91,178.61 309.21,177.53C309.52,176.42 309.81,175.27 310.11,174.12C310.41,172.94 310.71,171.74 311.01,170.55C311.31,169.35 311.62,168.14 311.92,166.94C312.22,165.74 312.52,164.54 312.82,163.36C313.12,162.2 313.42,161.05 313.73,159.93C314.03,158.84 314.32,157.76 314.63,156.72C314.92,155.73 315.22,154.76 315.53,153.83C315.82,152.96 316.12,152.11 316.44,151.32C316.73,150.59 317.02,149.89 317.34,149.25C317.63,148.68 317.92,148.13 318.25,147.67C318.53,147.27 318.82,146.89 319.15,146.62C319.43,146.39 319.74,146.2 320.05,146.12C320.34,146.05 320.66,146.07 320.96,146.13C321.27,146.2 321.58,146.33 321.86,146.53C322.19,146.76 322.49,147.09 322.77,147.46C323.1,147.89 323.39,148.43 323.67,149C323.99,149.65 324.29,150.38 324.58,151.14C324.9,151.99 325.19,152.92 325.48,153.88C325.79,154.93 326.09,156.04 326.38,157.18C326.69,158.41 327,159.7 327.29,161.02C327.6,162.41 327.9,163.86 328.19,165.33C328.5,166.88 328.8,168.47 329.1,170.09C329.41,171.77 329.7,173.48 330,175.22C330.3,177.01 330.6,178.83 330.9,180.66C331.2,182.53 331.51,184.43 331.81,186.34C332.11,188.28 332.41,190.23 332.71,192.19C333.01,194.16 333.32,196.14 333.62,198.11C333.92,200.09 334.22,202.07 334.52,204.04C334.82,206 335.12,207.95 335.42,209.89C335.72,211.8 336.03,213.71 336.33,215.59C336.63,217.43 336.92,219.27 337.23,221.07C337.53,222.83 337.83,224.57 338.14,226.27C338.44,227.92 338.73,229.55 339.04,231.13C339.34,232.64 339.64,234.12 339.95,235.55C340.24,236.9 340.54,238.22 340.85,239.47C341.14,240.62 341.43,241.74 341.75,242.77C342.04,243.69 342.33,244.59 342.66,245.37C342.94,246.03 343.22,246.69 343.56,247.17C343.84,247.56 344.13,247.96 344.47,248.12C344.75,248.25 345.09,248.29 345.37,248.2C345.69,248.1 345.99,247.77 346.27,247.44C346.61,247.04 346.9,246.48 347.18,245.91C347.51,245.26 347.79,244.5 348.08,243.74C348.4,242.91 348.7,242.01 348.99,241.1C349.3,240.14 349.59,239.13 349.89,238.11C350.2,237.06 350.49,235.98 350.79,234.9C351.09,233.8 351.4,232.69 351.7,231.58C352,230.47 352.3,229.35 352.6,228.24C352.9,227.14 353.21,226.04 353.51,224.95C353.81,223.88 354.1,222.81 354.41,221.77C354.71,220.75 355.01,219.74 355.32,218.76C355.62,217.81 355.91,216.86 356.22,215.95C356.51,215.07 356.81,214.2 357.12,213.37C357.41,212.58 357.72,211.8 358.03,211.06C358.32,210.35 358.62,209.66 358.93,209.01C359.22,208.4 359.53,207.81 359.84,207.26C360.13,206.75 360.43,206.26 360.74,205.81C361.03,205.4 361.33,205.01 361.64,204.66C361.93,204.34 362.23,204.04 362.55,203.8C362.84,203.58 363.14,203.39 363.45,203.25C363.74,203.12 364.05,203.02 364.36,202.98C364.66,202.94 364.96,202.95 365.26,203C365.56,203.05 365.87,203.14 366.16,203.27C366.47,203.4 366.78,203.59 367.07,203.79C367.38,204 367.68,204.25 367.97,204.52C368.28,204.8 368.58,205.11 368.88,205.43C369.19,205.76 369.48,206.12 369.78,206.48C370.08,206.84 370.38,207.22 370.68,207.6C370.98,207.98 371.29,208.37 371.59,208.75C371.89,209.13 372.19,209.5 372.49,209.87C372.79,210.24 373.1,210.59 373.4,210.95C373.7,211.31 374,211.66 374.3,212.02C374.6,212.38 374.91,212.74 375.21,213.11C375.51,213.48 375.81,213.86 376.11,214.24C376.41,214.63 376.71,215.03 377.01,215.44C377.31,215.86 377.62,216.28 377.92,216.71C378.22,217.15 378.52,217.6 378.82,218.05C379.13,218.51 379.43,218.99 379.73,219.47C380.03,219.96 380.33,220.45 380.63,220.95C380.93,221.45 381.23,221.97 381.53,222.48C381.83,223 382.14,223.52 382.44,224.05C382.74,224.58 383.04,225.12 383.34,225.66C383.64,226.2 383.95,226.74 384.25,227.28C384.55,227.82 384.85,228.36 385.15,228.9C385.45,229.44 385.75,229.98 386.05,230.52C386.35,231.05 386.66,231.58 386.96,232.11C387.26,232.63 387.56,233.16 387.86,233.67C388.16,234.18 388.47,234.68 388.77,235.17C389.07,235.65 389.37,236.13 389.67,236.59C389.97,237.04 390.27,237.49 390.58,237.92C390.88,238.34 391.17,238.74 391.48,239.13C391.77,239.5 392.07,239.87 392.38,240.21C392.68,240.53 392.98,240.84 393.29,241.12C393.58,241.39 393.88,241.64 394.19,241.85C394.48,242.05 394.79,242.23 395.1,242.36C395.39,242.49 395.7,242.59 396,242.64C396.3,242.69 396.6,242.7 396.9,242.66C397.21,242.62 397.52,242.52 397.81,242.39C398.12,242.25 398.42,242.05 398.71,241.83C399.03,241.59 399.33,241.29 399.62,240.97C399.93,240.62 400.23,240.23 400.52,239.81C400.83,239.36 401.13,238.88 401.42,238.37C401.73,237.83 402.04,237.26 402.33,236.67C402.64,236.05 402.93,235.4 403.23,234.74C403.54,234.05 403.84,233.35 404.14,232.63C404.45,231.89 404.74,231.13 405.04,230.36C405.34,229.58 405.65,228.79 405.95,227.99C406.25,227.19 406.55,226.37 406.85,225.56C407.15,224.75 407.45,223.92 407.75,223.11C408.05,222.3 408.36,221.49 408.66,220.69C408.96,219.9 409.26,219.11 409.56,218.34C409.86,217.58 410.16,216.83 410.47,216.1C410.77,215.39 411.06,214.68 411.37,214C411.66,213.34 411.96,212.7 412.27,212.08C412.57,211.49 412.87,210.92 413.18,210.37C413.47,209.85 413.77,209.35 414.08,208.89C414.37,208.46 414.68,208.04 414.99,207.67C415.28,207.33 415.58,207 415.89,206.73C416.18,206.48 416.48,206.24 416.79,206.07C417.08,205.91 417.39,205.78 417.7,205.72C418,205.66 418.3,205.64 418.6,205.68C418.91,205.72 419.22,205.81 419.51,205.95C419.82,206.09 420.12,206.3 420.41,206.54C420.73,206.8 421.03,207.11 421.32,207.45C421.63,207.81 421.93,208.23 422.22,208.66C422.53,209.13 422.83,209.65 423.12,210.18C423.43,210.75 423.74,211.37 424.03,212C424.34,212.67 424.64,213.38 424.93,214.11C425.24,214.88 425.54,215.67 425.84,216.49C426.15,217.34 426.45,218.23 426.74,219.13C427.05,220.07 427.34,221.03 427.64,222.01C427.95,223.02 428.25,224.06 428.55,225.11C428.86,226.19 429.15,227.29 429.45,228.4C429.75,229.53 430.06,230.68 430.36,231.84C430.66,233.02 430.96,234.21 431.26,235.41C431.56,236.62 431.86,237.84 432.16,239.06C432.46,240.28 432.77,241.52 433.07,242.74C433.37,243.96 433.67,245.18 433.97,246.39C434.27,247.59 434.58,248.8 434.88,249.98C435.18,251.14 435.48,252.3 435.78,253.43C436.08,254.54 436.37,255.64 436.68,256.71C436.98,257.74 437.28,258.76 437.59,259.75C437.89,260.7 438.18,261.63 438.49,262.53C438.78,263.38 439.09,264.21 439.4,265.01C439.69,265.76 439.99,266.49 440.3,267.18C440.59,267.83 440.9,268.45 441.21,269.04C441.5,269.59 441.8,270.12 442.11,270.61C442.4,271.07 442.7,271.5 443.01,271.91C443.3,272.29 443.61,272.65 443.92,272.98C444.21,273.29 444.51,273.58 444.82,273.85C445.12,274.11 445.42,274.34 445.73,274.55C446.03,274.76 446.33,274.94 446.63,275.11C446.93,275.28 447.23,275.43 447.53,275.59C447.83,275.75 448.14,275.89 448.44,276.06C448.74,276.23 449.04,276.4 449.34,276.59C449.65,276.79 449.95,276.99 450.25,277.22C450.56,277.45 450.86,277.7 451.15,277.97C451.46,278.25 451.76,278.55 452.05,278.87C452.36,279.2 452.66,279.56 452.96,279.93C453.27,280.32 453.56,280.73 453.86,281.16C454.17,281.61 454.47,282.07 454.77,282.55C455.08,283.05 455.37,283.58 455.67,284.11C455.98,284.66 456.28,285.24 456.58,285.82C456.89,286.42 457.18,287.03 457.48,287.65C457.78,288.28 458.08,288.92 458.38,289.56C458.68,290.2 458.99,290.85 459.29,291.49C459.59,292.12 459.88,292.76 460.19,293.37C460.49,293.96 460.78,294.55 461.1,295.08Q461.39,295.56 462,296.42" style="vector-effect: non-scaling-stroke; fill: none; stroke: rgb(0, 100, 80); stroke-opacity: 1; stroke-width: 2px; opacity: 1;"/></g><g class="points"/><g class="text"/></g><g class="trace scatter tracedc00f0" style="stroke-miterlimit: 2; opacity: 1;"><g class="fills"/><g class="errorbars"/><g class="lines"><path class="js-line" d="M0,91.33Q0.6,91.3 0.9,91.24C1.21,91.18 1.51,91.08 1.81,90.96C2.12,90.84 2.41,90.69 2.71,90.52C3.02,90.34 3.32,90.14 3.62,89.92C3.93,89.69 4.22,89.44 4.52,89.18C4.82,88.91 5.12,88.63 5.42,88.33C5.73,88.03 6.03,87.7 6.33,87.38C6.63,87.05 6.93,86.72 7.23,86.38C7.53,86.04 7.84,85.68 8.14,85.33C8.44,84.98 8.74,84.63 9.04,84.28C9.34,83.93 9.65,83.58 9.95,83.24C10.25,82.91 10.55,82.58 10.85,82.26C11.15,81.95 11.44,81.64 11.75,81.35C12.05,81.07 12.35,80.8 12.66,80.55C12.96,80.31 13.25,80.08 13.56,79.89C13.86,79.7 14.16,79.53 14.47,79.4C14.76,79.28 15.07,79.17 15.37,79.12C15.67,79.07 15.97,79.05 16.27,79.08C16.57,79.11 16.89,79.19 17.18,79.31C17.49,79.44 17.79,79.63 18.08,79.85C18.4,80.09 18.7,80.4 18.99,80.73C19.31,81.09 19.6,81.51 19.89,81.96C20.21,82.45 20.5,82.99 20.79,83.56C21.11,84.18 21.41,84.85 21.7,85.55C22.01,86.3 22.31,87.09 22.6,87.9C22.91,88.76 23.21,89.67 23.51,90.58C23.82,91.52 24.1,92.51 24.41,93.44C24.71,94.34 24.98,95.32 25.32,96.1C25.6,96.74 25.86,97.43 26.22,97.81C26.49,98.09 26.81,98.31 27.12,98.36C27.41,98.41 27.74,98.26 28.03,98.15C28.34,98.03 28.62,97.77 28.93,97.64C29.23,97.51 29.54,97.37 29.84,97.37C30.14,97.37 30.46,97.46 30.74,97.62C31.06,97.8 31.36,98.13 31.64,98.47C31.97,98.88 32.27,99.39 32.55,99.94C32.88,100.57 33.16,101.3 33.45,102.06C33.77,102.92 34.07,103.85 34.36,104.83C34.68,105.91 34.97,107.08 35.26,108.29C35.57,109.61 35.87,111.01 36.16,112.46C36.47,114.03 36.78,115.69 37.07,117.39C37.38,119.22 37.68,121.13 37.97,123.09C38.28,125.17 38.59,127.33 38.88,129.54C39.19,131.88 39.49,134.29 39.78,136.75C40.09,139.33 40.38,141.99 40.68,144.69C40.99,147.5 41.29,150.38 41.59,153.3C41.9,156.32 42.19,159.41 42.49,162.53C42.8,165.75 43.1,169.02 43.4,172.33C43.71,175.72 44,179.15 44.3,182.61C44.6,186.14 44.91,189.71 45.21,193.3C45.51,196.94 45.81,200.62 46.11,204.31C46.41,208.03 46.71,211.77 47.01,215.52C47.31,219.28 47.62,223.07 47.92,226.84C48.22,230.61 48.52,234.39 48.82,238.14C49.12,241.86 49.42,245.59 49.73,249.24C50.03,252.79 50.32,256.38 50.63,259.75C50.92,262.89 51.21,265.94 51.53,268.83C51.82,271.48 52.13,273.99 52.44,276.43C52.73,278.7 53.02,280.92 53.34,283.01C53.63,284.93 53.93,286.8 54.25,288.52C54.54,290.05 54.82,291.54 55.15,292.84C55.43,293.93 55.69,295 56.05,295.81C56.32,296.42 56.59,297.07 56.96,297.33C57.23,297.52 57.6,297.64 57.86,297.51C58.25,297.32 58.49,296.37 58.77,295.7C59.1,294.92 59.37,293.96 59.67,293.08C59.97,292.2 60.27,291.27 60.58,290.42C60.87,289.62 61.16,288.84 61.48,288.13C61.77,287.49 62.06,286.88 62.38,286.34C62.67,285.87 62.96,285.42 63.29,285.06C63.57,284.75 63.87,284.47 64.19,284.29C64.48,284.13 64.79,284.02 65.1,283.98C65.4,283.94 65.71,283.99 66,284.06C66.31,284.13 66.61,284.27 66.9,284.42C67.21,284.57 67.51,284.78 67.81,284.97C68.11,285.17 68.41,285.39 68.71,285.59C69.01,285.79 69.31,286.01 69.62,286.19C69.92,286.37 70.21,286.54 70.52,286.67C70.81,286.79 71.12,286.9 71.42,286.96C71.72,287.02 72.03,287.05 72.33,287.03C72.63,287.01 72.94,286.93 73.23,286.81C73.54,286.68 73.85,286.48 74.14,286.25C74.46,285.99 74.75,285.67 75.04,285.32C75.36,284.93 75.66,284.47 75.95,283.98C76.27,283.43 76.57,282.84 76.85,282.15C77.19,281.3 77.46,280.24 77.75,279.21C78.07,278.1 78.36,276.89 78.66,275.7C78.97,274.46 79.27,273.2 79.56,271.9C79.87,270.53 80.18,269.12 80.47,267.67C80.78,266.15 81.07,264.56 81.37,262.98C81.67,261.37 81.97,259.74 82.27,258.12C82.57,256.5 82.88,254.88 83.18,253.28C83.48,251.69 83.78,250.11 84.08,248.54C84.38,246.99 84.69,245.46 84.99,243.94C85.29,242.45 85.59,240.97 85.89,239.51C86.19,238.08 86.48,236.66 86.79,235.27C87.09,233.91 87.39,232.56 87.7,231.24C88,229.95 88.29,228.67 88.6,227.42C88.9,226.21 89.2,225.01 89.51,223.84C89.81,222.71 90.1,221.59 90.41,220.5C90.71,219.45 91.01,218.42 91.32,217.42C91.62,216.46 91.91,215.51 92.22,214.59C92.51,213.71 92.82,212.89 93.12,212.03C93.42,211.17 93.74,210.34 94.03,209.44C94.34,208.48 94.62,207.4 94.93,206.43C95.22,205.5 95.53,204.6 95.84,203.73C96.13,202.92 96.43,202.13 96.74,201.38C97.03,200.68 97.33,200 97.64,199.36C97.93,198.76 98.24,198.19 98.55,197.65C98.84,197.15 99.14,196.67 99.45,196.23C99.74,195.82 100.05,195.43 100.36,195.08C100.65,194.76 100.95,194.46 101.26,194.2C101.55,193.96 101.85,193.74 102.16,193.56C102.45,193.39 102.76,193.26 103.07,193.16C103.37,193.06 103.67,192.99 103.97,192.94C104.27,192.89 104.59,192.94 104.88,192.85C105.19,192.76 105.5,192.61 105.78,192.39C106.11,192.13 106.39,191.7 106.68,191.32C106.99,190.92 107.3,190.48 107.59,190.03C107.9,189.55 108.19,189.05 108.49,188.53C108.8,187.99 109.1,187.43 109.4,186.87C109.7,186.3 110,185.71 110.3,185.12C110.6,184.52 110.91,183.91 111.21,183.3C111.51,182.68 111.81,182.05 112.11,181.42C112.41,180.77 112.71,180.12 113.01,179.46C113.31,178.78 113.62,178.1 113.92,177.4C114.22,176.69 114.52,175.97 114.82,175.25C115.12,174.52 115.43,173.77 115.73,173.03C116.03,172.29 116.33,171.54 116.63,170.8C116.93,170.07 117.22,169.33 117.53,168.62C117.83,167.93 118.13,167.24 118.44,166.58C118.73,165.96 119.03,165.34 119.34,164.77C119.63,164.24 119.93,163.72 120.25,163.26C120.54,162.84 120.83,162.44 121.15,162.12C121.43,161.84 121.73,161.58 122.05,161.43C122.34,161.3 122.66,161.22 122.96,161.24C123.26,161.27 123.58,161.4 123.86,161.59C124.19,161.81 124.49,162.17 124.77,162.54C125.1,162.98 125.39,163.52 125.67,164.09C125.99,164.74 126.29,165.48 126.58,166.25C126.9,167.11 127.19,168.05 127.48,169.03C127.79,170.1 128.09,171.24 128.38,172.41C128.69,173.67 129,174.99 129.29,176.34C129.6,177.78 129.9,179.27 130.19,180.8C130.5,182.4 130.8,184.05 131.1,185.73C131.41,187.48 131.71,189.28 132,191.11C132.31,193 132.6,194.94 132.9,196.9C133.21,198.93 133.51,201 133.81,203.1C134.12,205.27 134.41,207.47 134.71,209.71C135.02,212.02 135.32,214.36 135.62,216.74C135.93,219.18 136.22,221.67 136.52,224.18C136.82,226.75 137.12,229.39 137.42,231.99C137.72,234.6 138.02,237.3 138.33,239.81C138.62,242.14 138.9,244.48 139.23,246.56C139.51,248.37 139.68,250.53 140.14,251.62C140.39,252.22 140.77,252.92 141.04,252.88C141.41,252.82 141.69,251.27 141.95,250.07C142.38,248.09 142.55,244.69 142.85,241.98C143.15,239.24 143.44,236.44 143.75,233.72C144.05,231.06 144.35,228.41 144.66,225.82C144.96,223.3 145.25,220.82 145.56,218.38C145.86,216.03 146.16,213.7 146.47,211.44C146.77,209.27 147.06,207.14 147.37,205.06C147.66,203.07 147.96,201.13 148.27,199.24C148.56,197.45 148.87,195.7 149.18,194.01C149.47,192.42 149.77,190.87 150.08,189.38C150.37,187.98 150.68,186.63 150.99,185.33C151.28,184.13 151.58,182.96 151.89,181.86C152.18,180.84 152.47,179.86 152.79,178.94C153.08,178.1 153.38,177.3 153.7,176.55C153.99,175.87 154.28,175.22 154.6,174.63C154.89,174.09 155.2,173.6 155.51,173.14C155.8,172.72 156.1,172.34 156.41,171.96C156.71,171.59 157.04,171.29 157.32,170.87C157.65,170.38 157.95,169.84 158.22,169.16C158.57,168.27 158.83,167.08 159.12,165.96C159.43,164.75 159.72,163.39 160.03,162.16C160.32,161 160.61,159.82 160.93,158.78C161.22,157.86 161.5,156.95 161.84,156.2C162.12,155.58 162.39,154.96 162.74,154.57C163.01,154.27 163.33,153.98 163.64,153.96C163.94,153.94 164.28,154.15 164.55,154.39C164.9,154.7 165.17,155.27 165.45,155.81C165.78,156.46 166.07,157.28 166.36,158.07C166.67,158.93 166.96,159.87 167.26,160.77C167.56,161.66 167.86,162.53 168.16,163.42C168.47,164.33 168.78,165.24 169.07,166.2C169.38,167.23 169.68,168.3 169.97,169.42C170.28,170.62 170.59,171.89 170.88,173.19C171.19,174.58 171.49,176.03 171.78,177.53C172.09,179.12 172.39,180.78 172.68,182.48C172.99,184.28 173.3,186.14 173.59,188.04C173.9,190.04 174.19,192.09 174.49,194.19C174.8,196.38 175.1,198.64 175.4,200.93C175.71,203.32 176,205.76 176.3,208.24C176.61,210.81 176.91,213.43 177.21,216.09C177.52,218.82 177.81,221.61 178.11,224.42C178.41,227.31 178.71,230.24 179.01,233.19C179.31,236.2 179.62,239.26 179.92,242.32C180.22,245.43 180.52,248.57 180.82,251.71C181.12,254.87 181.43,258.05 181.73,261.21C182.03,264.35 182.33,267.51 182.63,270.59C182.93,273.57 183.21,276.58 183.53,279.38C183.82,281.94 184.09,284.61 184.44,286.71C184.71,288.31 184.8,290.59 185.34,290.92C185.59,291.07 185.99,290.91 186.25,290.67C186.7,290.24 186.87,288.92 187.15,287.88C187.49,286.62 187.76,285.09 188.05,283.61C188.36,282.03 188.66,280.36 188.96,278.69C189.27,276.97 189.56,275.22 189.86,273.44C190.17,271.61 190.48,269.77 190.77,267.85C191.08,265.83 191.38,263.74 191.67,261.61C191.98,259.36 192.28,257 192.58,254.69C192.88,252.37 193.18,250 193.48,247.71C193.78,245.48 194.07,243.25 194.38,241.11C194.67,239.07 194.98,237.06 195.29,235.13C195.58,233.32 195.88,231.55 196.19,229.87C196.48,228.32 196.78,226.81 197.1,225.4C197.39,224.13 197.68,222.9 198,221.78C198.28,220.79 198.57,219.85 198.9,219.03C199.18,218.34 199.47,217.67 199.81,217.16C200.09,216.75 200.37,216.34 200.71,216.15C200.99,215.99 201.33,215.92 201.62,215.98C201.94,216.05 202.24,216.32 202.52,216.6C202.85,216.94 203.14,217.43 203.42,217.92C203.74,218.48 204.04,219.14 204.33,219.8C204.64,220.5 204.93,221.26 205.23,221.99C205.53,222.72 205.83,223.47 206.14,224.19C206.44,224.89 206.74,225.57 207.04,226.25C207.34,226.93 207.65,227.59 207.95,228.28C208.26,229 208.56,229.72 208.85,230.49C209.16,231.3 209.46,232.15 209.75,233.03C210.06,233.97 210.37,234.96 210.66,235.98C210.97,237.07 211.27,238.21 211.56,239.38C211.87,240.62 212.17,241.91 212.47,243.22C212.78,244.59 213.07,246.03 213.37,247.45C213.67,248.89 213.96,250.37 214.27,251.8C214.57,253.2 214.88,254.55 215.18,255.94C215.48,257.34 215.78,258.73 216.08,260.18C216.39,261.69 216.7,263.23 216.99,264.82C217.3,266.48 217.6,268.2 217.89,269.94C218.2,271.76 218.49,273.63 218.79,275.52C219.1,277.47 219.4,279.47 219.7,281.46C220,283.47 220.28,285.61 220.6,287.54C220.89,289.29 220.92,292.13 221.51,292.54C221.76,292.71 222.16,292.6 222.41,292.38C222.87,291.98 223.05,290.61 223.32,289.5C223.68,288.04 223.93,286.13 224.22,284.36C224.53,282.47 224.82,280.47 225.12,278.51C225.42,276.52 225.73,274.53 226.03,272.51C226.33,270.47 226.63,268.43 226.93,266.33C227.24,264.14 227.55,261.94 227.84,259.63C228.15,257.16 228.44,254.55 228.74,251.96C229.04,249.29 229.34,246.53 229.64,243.83C229.94,241.16 230.24,238.48 230.55,235.86C230.85,233.3 231.14,230.76 231.45,228.28C231.75,225.88 232.05,223.52 232.36,221.21C232.66,218.98 232.95,216.79 233.26,214.66C233.55,212.62 233.85,210.62 234.16,208.66C234.46,206.78 234.78,205.05 235.07,203.14C235.38,201.09 235.68,199 235.97,196.76C236.29,194.26 236.59,191.58 236.88,188.83C237.19,185.85 237.49,182.67 237.78,179.51C238.09,176.23 238.38,172.86 238.68,169.49C238.98,166.06 239.29,162.59 239.59,159.1C239.89,155.57 240.19,152.01 240.49,148.44C240.79,144.83 241.1,141.2 241.4,137.57C241.7,133.92 242,130.26 242.3,126.61C242.6,122.96 242.91,119.3 243.21,115.66C243.51,112.04 243.81,108.41 244.11,104.82C244.41,101.26 244.71,97.72 245.01,94.21C245.31,90.75 245.62,87.31 245.92,83.92C246.22,80.6 246.51,77.3 246.82,74.06C247.12,70.9 247.42,67.78 247.73,64.72C248.03,61.76 248.32,58.83 248.63,55.98C248.92,53.24 249.22,50.55 249.53,47.94C249.82,45.46 250.13,43.03 250.44,40.68C250.73,38.47 251.03,36.31 251.34,34.25C251.63,32.34 251.93,30.48 252.25,28.73C252.54,27.13 252.83,25.58 253.15,24.15C253.43,22.88 253.72,21.66 254.05,20.57C254.33,19.64 254.62,18.74 254.96,18.01C255.24,17.42 255.51,16.83 255.86,16.49C256.13,16.23 256.47,15.99 256.77,16C257.07,16.01 257.4,16.27 257.67,16.54C258.02,16.9 258.3,17.5 258.58,18.09C258.92,18.81 259.2,19.69 259.48,20.6C259.8,21.65 260.09,22.82 260.38,24.03C260.7,25.37 261,26.82 261.29,28.3C261.6,29.91 261.9,31.61 262.19,33.34C262.5,35.18 262.8,37.11 263.1,39.06C263.41,41.1 263.71,43.21 264,45.34C264.31,47.55 264.6,49.81 264.9,52.08C265.21,54.41 265.51,56.78 265.81,59.16C266.11,61.57 266.41,64.02 266.71,66.46C267.01,68.92 267.32,71.39 267.62,73.85C267.92,76.31 268.22,78.77 268.52,81.22C268.82,83.64 269.12,86.07 269.42,88.46C269.72,90.82 270.02,93.16 270.33,95.47C270.63,97.73 270.92,99.97 271.23,102.17C271.53,104.31 271.83,106.43 272.14,108.51C272.44,110.52 272.73,112.49 273.04,114.43C273.34,116.3 273.64,118.13 273.95,119.92C274.25,121.63 274.54,123.31 274.85,124.95C275.14,126.52 275.44,128.06 275.75,129.56C276.05,131 276.35,132.4 276.66,133.77C276.96,135.09 277.25,136.37 277.56,137.63C277.86,138.85 278.16,140.04 278.47,141.21C278.77,142.35 279.07,143.46 279.37,144.57C279.67,145.66 279.97,146.72 280.27,147.79C280.57,148.84 280.88,149.89 281.18,150.93C281.48,151.97 281.78,153 282.08,154.04C282.38,155.08 282.69,156.11 282.99,157.15C283.29,158.19 283.59,159.23 283.89,160.28C284.19,161.33 284.49,162.38 284.79,163.43C285.09,164.48 285.4,165.53 285.7,166.57C286,167.6 286.29,168.63 286.6,169.64C286.9,170.63 287.2,171.61 287.51,172.56C287.8,173.46 288.1,174.36 288.41,175.2C288.7,175.98 289,176.75 289.32,177.43C289.61,178.04 289.9,178.63 290.22,179.12C290.5,179.55 290.8,179.93 291.12,180.24C291.41,180.52 291.72,180.73 292.03,180.92C292.32,181.09 292.63,181.21 292.93,181.34C293.23,181.47 293.54,181.57 293.84,181.7C294.14,181.83 294.45,181.96 294.74,182.14C295.05,182.32 295.35,182.54 295.64,182.79C295.95,183.06 296.26,183.37 296.55,183.72C296.87,184.1 297.16,184.54 297.45,185.01C297.77,185.52 298.07,186.09 298.36,186.68C298.67,187.32 298.97,188.01 299.26,188.71C299.57,189.45 299.86,190.23 300.16,191C300.46,191.79 300.76,192.61 301.07,193.4C301.37,194.17 301.65,194.96 301.97,195.67C302.26,196.33 302.55,196.98 302.88,197.53C303.16,198 303.45,198.46 303.78,198.78C304.06,199.05 304.36,199.29 304.68,199.4C304.97,199.5 305.3,199.52 305.59,199.46C305.9,199.4 306.21,199.21 306.49,199C306.81,198.76 307.11,198.42 307.4,198.07C307.72,197.68 308.01,197.21 308.3,196.73C308.62,196.2 308.92,195.62 309.21,195.03C309.52,194.4 309.82,193.73 310.11,193.06C310.42,192.36 310.71,191.63 311.01,190.9C311.31,190.16 311.62,189.39 311.92,188.64C312.22,187.88 312.52,187.12 312.82,186.37C313.12,185.63 313.42,184.9 313.73,184.18C314.03,183.49 314.32,182.8 314.63,182.14C314.92,181.5 315.22,180.88 315.53,180.28C315.82,179.71 316.13,179.17 316.44,178.65C316.73,178.17 317.03,177.7 317.34,177.27C317.63,176.87 317.93,176.49 318.25,176.17C318.54,175.88 318.83,175.6 319.15,175.4C319.44,175.22 319.74,175.07 320.05,175.01C320.35,174.95 320.66,174.96 320.96,175.01C321.26,175.06 321.56,175.18 321.86,175.3C322.17,175.42 322.48,175.55 322.77,175.75C323.09,175.96 323.38,176.24 323.67,176.55C323.99,176.9 324.29,177.34 324.58,177.79C324.9,178.29 325.19,178.86 325.48,179.44C325.79,180.07 326.09,180.75 326.38,181.44C326.69,182.17 326.99,182.94 327.29,183.72C327.6,184.54 327.89,185.39 328.19,186.24C328.5,187.12 328.8,188.01 329.1,188.92C329.41,189.85 329.7,190.8 330,191.75C330.3,192.72 330.6,193.71 330.9,194.71C331.2,195.73 331.51,196.76 331.81,197.81C332.12,198.88 332.41,199.97 332.71,201.07C333.02,202.2 333.32,203.35 333.62,204.51C333.93,205.7 334.22,206.91 334.52,208.13C334.82,209.38 335.12,210.65 335.42,211.93C335.72,213.23 336.03,214.55 336.33,215.87C336.63,217.21 336.93,218.56 337.23,219.91C337.53,221.27 337.84,222.63 338.14,223.99C338.44,225.34 338.74,226.71 339.04,228.05C339.34,229.37 339.64,230.69 339.95,231.98C340.25,233.24 340.54,234.48 340.85,235.69C341.14,236.84 341.44,237.98 341.75,239.06C342.04,240.07 342.34,241.06 342.66,241.98C342.95,242.82 343.24,243.63 343.56,244.35C343.85,244.99 344.14,245.6 344.47,246.1C344.75,246.53 345.04,246.94 345.37,247.2C345.65,247.42 345.96,247.61 346.27,247.64C346.57,247.67 346.9,247.58 347.18,247.41C347.51,247.21 347.81,246.84 348.08,246.44C348.42,245.94 348.71,245.28 348.99,244.58C349.32,243.75 349.6,242.75 349.89,241.75C350.21,240.64 350.5,239.41 350.79,238.19C351.1,236.91 351.4,235.58 351.7,234.26C352,232.93 352.3,231.59 352.6,230.26C352.9,228.95 353.2,227.63 353.51,226.35C353.81,225.1 354.1,223.86 354.41,222.66C354.71,221.51 355.01,220.37 355.32,219.28C355.61,218.24 355.91,217.22 356.22,216.26C356.51,215.36 356.81,214.49 357.12,213.67C357.41,212.91 357.71,212.18 358.03,211.52C358.32,210.92 358.61,210.35 358.93,209.85C359.22,209.41 359.52,209 359.84,208.67C360.12,208.39 360.42,208.13 360.74,207.97C361.03,207.83 361.34,207.74 361.64,207.74C361.94,207.74 362.26,207.83 362.55,207.96C362.86,208.1 363.16,208.33 363.45,208.58C363.77,208.85 364.07,209.19 364.36,209.53C364.67,209.89 364.96,210.31 365.26,210.71C365.56,211.12 365.85,211.56 366.16,211.96C366.46,212.34 366.75,212.74 367.07,213.06C367.36,213.35 367.65,213.62 367.97,213.82C368.26,214 368.57,214.12 368.88,214.21C369.18,214.3 369.48,214.33 369.78,214.38C370.08,214.43 370.38,214.45 370.68,214.49C370.98,214.53 371.29,214.57 371.59,214.64C371.89,214.71 372.19,214.79 372.49,214.9C372.8,215.01 373.1,215.14 373.4,215.3C373.71,215.47 374.01,215.67 374.3,215.89C374.61,216.12 374.92,216.39 375.21,216.68C375.52,216.99 375.82,217.33 376.11,217.7C376.42,218.1 376.72,218.54 377.01,219C377.32,219.49 377.63,220.01 377.92,220.56C378.23,221.14 378.53,221.77 378.82,222.41C379.13,223.09 379.44,223.81 379.73,224.54C380.04,225.31 380.34,226.12 380.63,226.94C380.94,227.79 381.23,228.68 381.53,229.57C381.84,230.5 382.14,231.45 382.44,232.41C382.75,233.39 383.04,234.4 383.34,235.41C383.64,236.43 383.95,237.47 384.25,238.49C384.55,239.51 384.84,240.54 385.15,241.54C385.44,242.5 385.73,243.47 386.05,244.36C386.34,245.17 386.62,245.99 386.96,246.65C387.24,247.19 387.51,247.75 387.86,248.06C388.13,248.3 388.47,248.48 388.77,248.49C389.07,248.5 389.39,248.3 389.67,248.11C390,247.89 390.29,247.53 390.58,247.18C390.9,246.8 391.19,246.35 391.48,245.9C391.79,245.42 392.08,244.89 392.38,244.36C392.69,243.81 392.99,243.23 393.29,242.64C393.6,242.03 393.89,241.41 394.19,240.78C394.5,240.14 394.8,239.48 395.1,238.82C395.41,238.14 395.7,237.45 396,236.75C396.3,236.04 396.6,235.32 396.9,234.6C397.2,233.86 397.51,233.12 397.81,232.37C398.11,231.61 398.41,230.85 398.71,230.08C399.01,229.3 399.32,228.52 399.62,227.73C399.92,226.94 400.22,226.15 400.52,225.36C400.82,224.57 401.12,223.78 401.42,223C401.72,222.23 402.03,221.47 402.33,220.72C402.63,219.98 402.92,219.25 403.23,218.54C403.53,217.85 403.83,217.17 404.14,216.52C404.44,215.89 404.73,215.28 405.04,214.69C405.33,214.13 405.64,213.6 405.95,213.09C406.24,212.61 406.54,212.15 406.85,211.73C407.14,211.34 407.44,210.96 407.75,210.63C408.04,210.32 408.35,210.04 408.66,209.81C408.95,209.59 409.25,209.4 409.56,209.27C409.85,209.14 410.16,209.05 410.47,209.01C410.77,208.97 411.07,208.97 411.37,209.02C411.67,209.07 411.98,209.16 412.27,209.29C412.58,209.42 412.89,209.61 413.18,209.81C413.49,210.02 413.79,210.28 414.08,210.55C414.39,210.84 414.69,211.16 414.99,211.5C415.3,211.85 415.6,212.22 415.89,212.61C416.2,213.01 416.49,213.44 416.79,213.87C417.1,214.31 417.4,214.78 417.7,215.24C418,215.71 418.3,216.19 418.6,216.67C418.9,217.15 419.21,217.64 419.51,218.13C419.81,218.62 420.11,219.11 420.41,219.6C420.71,220.09 421.02,220.58 421.32,221.08C421.62,221.58 421.92,222.08 422.22,222.59C422.52,223.11 422.82,223.63 423.12,224.17C423.43,224.73 423.73,225.29 424.03,225.88C424.34,226.49 424.63,227.11 424.93,227.75C425.24,228.42 425.54,229.12 425.84,229.83C426.15,230.57 426.45,231.34 426.74,232.12C427.05,232.94 427.34,233.78 427.64,234.64C427.95,235.53 428.25,236.44 428.55,237.37C428.86,238.32 429.15,239.3 429.45,240.28C429.76,241.29 430.06,242.32 430.36,243.36C430.66,244.42 430.96,245.49 431.26,246.56C431.56,247.64 431.86,248.74 432.16,249.83C432.46,250.93 432.77,252.03 433.07,253.13C433.37,254.22 433.67,255.32 433.97,256.41C434.27,257.49 434.58,258.56 434.88,259.62C435.18,260.66 435.48,261.69 435.78,262.7C436.08,263.68 436.37,264.66 436.68,265.61C436.98,266.53 437.28,267.43 437.59,268.31C437.89,269.15 438.18,269.97 438.49,270.76C438.79,271.52 439.09,272.25 439.4,272.96C439.69,273.63 439.99,274.27 440.3,274.89C440.59,275.48 440.9,276.04 441.21,276.58C441.5,277.09 441.75,277.74 442.11,278.04C442.38,278.27 442.7,278.36 443.01,278.41C443.31,278.46 443.62,278.38 443.92,278.37C444.22,278.36 444.52,278.35 444.82,278.36C445.12,278.37 445.43,278.38 445.73,278.43C446.03,278.48 446.33,278.55 446.63,278.64C446.93,278.74 447.24,278.86 447.53,279.01C447.84,279.17 448.15,279.36 448.44,279.58C448.75,279.81 449.05,280.07 449.34,280.36C449.65,280.66 449.96,281 450.25,281.36C450.56,281.74 450.86,282.14 451.15,282.57C451.46,283.02 451.75,283.5 452.05,283.99C452.36,284.5 452.66,285.03 452.96,285.58C453.27,286.15 453.56,286.74 453.86,287.34C454.17,287.96 454.47,288.59 454.77,289.23C455.08,289.89 455.37,290.56 455.67,291.23C455.97,291.91 456.28,292.61 456.58,293.3C456.88,294 457.18,294.71 457.48,295.41C457.78,296.11 458.08,296.81 458.38,297.5C458.68,298.18 458.98,298.86 459.29,299.52C459.59,300.15 459.88,300.79 460.19,301.37C460.48,301.92 460.78,302.46 461.1,302.92Q461.39,303.33 462,304" style="vector-effect: non-scaling-stroke; fill: none; stroke: rgb(0, 176, 246); stroke-opacity: 1; stroke-width: 2px; opacity: 1;"/></g><g class="points"/><g class="text"/></g><g class="trace scatter trace618807" style="stroke-miterlimit: 2; opacity: 1;"><g class="fills"/><g class="errorbars"/><g class="lines"><path class="js-line" d="M0,177.71Q0.61,177.63 0.9,177.51C1.22,177.37 1.52,177.15 1.81,176.9C2.13,176.63 2.42,176.28 2.71,175.91C3.03,175.5 3.33,175.02 3.62,174.53C3.94,173.99 4.23,173.41 4.52,172.8C4.83,172.14 5.13,171.45 5.42,170.71C5.74,169.9 6.04,169.04 6.33,168.11C6.65,167.07 6.94,165.9 7.23,164.75C7.54,163.53 7.84,162.26 8.14,160.97C8.45,159.63 8.74,158.26 9.04,156.86C9.35,155.42 9.65,153.94 9.95,152.45C10.26,150.91 10.55,149.35 10.85,147.77C11.15,146.15 11.45,144.51 11.75,142.86C12.05,141.18 12.36,139.47 12.66,137.76C12.96,136.02 13.26,134.27 13.56,132.51C13.86,130.74 14.17,128.95 14.47,127.17C14.77,125.38 15.07,123.57 15.37,121.78C15.67,119.99 15.97,118.2 16.27,116.42C16.57,114.66 16.88,112.89 17.18,111.15C17.48,109.43 17.78,107.72 18.08,106.03C18.38,104.38 18.68,102.73 18.99,101.12C19.29,99.55 19.58,98 19.89,96.49C20.18,95.03 20.48,93.6 20.79,92.21C21.09,90.88 21.39,89.58 21.7,88.33C21.99,87.15 22.29,86 22.6,84.91C22.89,83.89 23.19,82.91 23.51,81.99C23.8,81.16 24.09,80.35 24.41,79.63C24.7,78.99 24.99,78.37 25.32,77.85C25.6,77.41 25.89,76.98 26.22,76.69C26.5,76.45 26.81,76.23 27.12,76.18C27.41,76.13 27.75,76.21 28.03,76.35C28.36,76.52 28.65,76.85 28.93,77.2C29.26,77.62 29.56,78.17 29.84,78.74C30.17,79.41 30.46,80.18 30.74,80.98C31.06,81.88 31.35,82.87 31.64,83.9C31.96,85.04 32.26,86.25 32.55,87.51C32.86,88.87 33.16,90.31 33.45,91.78C33.76,93.36 34.07,95 34.36,96.69C34.67,98.47 34.97,100.32 35.26,102.21C35.57,104.19 35.86,106.24 36.16,108.32C36.47,110.49 36.77,112.71 37.07,114.96C37.38,117.3 37.67,119.68 37.97,122.1C38.28,124.59 38.58,127.13 38.88,129.7C39.19,132.33 39.48,135 39.78,137.7C40.08,140.45 40.38,143.24 40.68,146.05C40.98,148.9 41.29,151.78 41.59,154.68C41.89,157.61 42.19,160.57 42.49,163.54C42.79,166.53 43.1,169.54 43.4,172.55C43.7,175.57 44,178.61 44.3,181.64C44.6,184.67 44.91,187.71 45.21,190.73C45.51,193.74 45.81,196.75 46.11,199.73C46.41,202.69 46.71,205.63 47.01,208.55C47.31,211.42 47.61,214.27 47.92,217.08C48.22,219.83 48.51,222.56 48.82,225.23C49.12,227.82 49.42,230.39 49.73,232.89C50.03,235.3 50.32,237.68 50.63,239.99C50.92,242.2 51.22,244.37 51.53,246.46C51.82,248.44 52.13,250.38 52.44,252.24C52.73,253.99 53.03,255.69 53.34,257.31C53.63,258.82 53.93,260.27 54.25,261.65C54.54,262.91 54.83,264.14 55.15,265.27C55.44,266.28 55.72,267.26 56.05,268.12C56.33,268.86 56.6,269.63 56.96,270.13C57.23,270.5 57.57,270.97 57.86,270.95C58.17,270.93 58.49,270.33 58.77,269.93C59.1,269.46 59.37,268.83 59.67,268.28C59.97,267.72 60.27,267.13 60.58,266.59C60.87,266.08 61.17,265.58 61.48,265.13C61.77,264.72 62.06,264.32 62.38,264C62.67,263.71 62.97,263.45 63.29,263.28C63.58,263.13 63.89,263.01 64.19,262.99C64.49,262.97 64.81,263.03 65.1,263.15C65.41,263.28 65.72,263.5 66,263.75C66.32,264.03 66.61,264.4 66.9,264.78C67.22,265.21 67.52,265.7 67.81,266.21C68.13,266.77 68.42,267.38 68.71,268C69.02,268.66 69.32,269.37 69.62,270.08C69.93,270.81 70.22,271.58 70.52,272.33C70.82,273.09 71.12,273.86 71.42,274.63C71.72,275.41 72.03,276.2 72.33,276.98C72.63,277.76 72.92,278.55 73.23,279.32C73.53,280.06 73.82,280.82 74.14,281.51C74.43,282.14 74.69,282.83 75.04,283.28C75.31,283.64 75.62,283.98 75.95,284.1C76.23,284.2 76.57,284.19 76.85,284.06C77.18,283.91 77.48,283.54 77.75,283.12C78.12,282.55 78.39,281.7 78.66,280.81C79.01,279.67 79.27,278.22 79.56,276.82C79.88,275.29 80.18,273.64 80.47,271.98C80.78,270.22 81.08,268.38 81.37,266.52C81.68,264.59 81.97,262.61 82.27,260.61C82.58,258.56 82.88,256.48 83.18,254.39C83.48,252.27 83.78,250.13 84.08,247.99C84.38,245.84 84.69,243.67 84.99,241.51C85.29,239.36 85.59,237.2 85.89,235.06C86.19,232.93 86.49,230.81 86.79,228.7C87.09,226.62 87.4,224.55 87.7,222.5C88,220.49 88.29,218.5 88.6,216.53C88.9,214.61 89.2,212.7 89.51,210.83C89.81,209.01 90.1,207.21 90.41,205.45C90.71,203.74 91.01,202.06 91.32,200.41C91.62,198.83 91.91,197.27 92.22,195.76C92.51,194.31 92.81,192.89 93.12,191.51C93.41,190.2 93.72,188.92 94.03,187.69C94.32,186.52 94.62,185.38 94.93,184.29C95.22,183.27 95.53,182.27 95.84,181.33C96.13,180.45 96.43,179.6 96.74,178.81C97.03,178.08 97.32,177.38 97.64,176.73C97.93,176.14 98.23,175.58 98.55,175.07C98.84,174.61 99.13,174.18 99.45,173.81C99.74,173.48 100.04,173.18 100.36,172.94C100.65,172.73 100.95,172.55 101.26,172.43C101.55,172.32 101.86,172.25 102.16,172.24C102.46,172.23 102.77,172.27 103.07,172.35C103.38,172.43 103.68,172.57 103.97,172.72C104.28,172.88 104.58,173.08 104.88,173.3C105.19,173.53 105.49,173.78 105.78,174.05C106.09,174.33 106.38,174.64 106.68,174.95C106.99,175.27 107.29,175.6 107.59,175.94C107.89,176.28 108.19,176.64 108.49,176.99C108.79,177.35 109.1,177.71 109.4,178.07C109.7,178.43 110,178.81 110.3,179.17C110.6,179.53 110.91,179.88 111.21,180.24C111.51,180.59 111.81,180.95 112.11,181.3C112.41,181.64 112.71,181.99 113.01,182.32C113.31,182.65 113.62,182.98 113.92,183.3C114.22,183.62 114.52,183.93 114.82,184.24C115.12,184.54 115.43,184.84 115.73,185.13C116.03,185.41 116.33,185.7 116.63,185.96C116.93,186.22 117.22,186.46 117.53,186.69C117.83,186.91 118.13,187.12 118.44,187.3C118.74,187.48 119.03,187.64 119.34,187.78C119.64,187.91 119.95,188.02 120.25,188.11C120.55,188.2 120.85,188.27 121.15,188.34C121.45,188.41 121.75,188.46 122.05,188.53C122.35,188.61 122.66,188.68 122.96,188.79C123.27,188.91 123.57,189.05 123.86,189.23C124.17,189.43 124.48,189.67 124.77,189.96C125.09,190.28 125.38,190.66 125.67,191.07C125.99,191.53 126.29,192.06 126.58,192.63C126.9,193.26 127.19,193.96 127.48,194.7C127.8,195.51 128.09,196.39 128.38,197.3C128.7,198.3 129,199.35 129.29,200.45C129.6,201.64 129.9,202.89 130.19,204.17C130.5,205.54 130.81,206.96 131.1,208.43C131.41,209.98 131.71,211.6 132,213.24C132.31,214.96 132.6,216.74 132.9,218.55C133.21,220.43 133.51,222.36 133.81,224.32C134.12,226.34 134.41,228.41 134.71,230.49C135.02,232.63 135.32,234.81 135.62,236.99C135.92,239.21 136.22,241.46 136.52,243.7C136.82,245.95 137.12,248.22 137.42,250.46C137.72,252.67 138.02,254.88 138.33,257.03C138.63,259.1 138.9,261.24 139.23,263.12C139.51,264.76 139.77,266.47 140.14,267.71C140.41,268.6 140.71,269.92 141.04,269.94C141.32,269.96 141.69,269.06 141.95,268.38C142.36,267.3 142.57,265.51 142.85,263.9C143.18,262.03 143.46,259.94 143.75,257.82C144.07,255.52 144.37,253.07 144.66,250.6C144.97,248 145.26,245.3 145.56,242.59C145.87,239.81 146.17,236.97 146.47,234.13C146.77,231.26 147.07,228.35 147.37,225.46C147.67,222.57 147.97,219.67 148.27,216.8C148.57,213.95 148.88,211.1 149.18,208.28C149.48,205.51 149.78,202.75 150.08,200.03C150.38,197.37 150.68,194.72 150.99,192.12C151.29,189.59 151.58,187.1 151.89,184.65C152.19,182.28 152.48,179.95 152.79,177.67C153.09,175.48 153.39,173.33 153.7,171.24C153.99,169.25 154.29,167.29 154.6,165.4C154.89,163.62 155.2,161.88 155.51,160.21C155.8,158.65 156.1,157.13 156.41,155.69C156.7,154.36 157,153.07 157.32,151.87C157.61,150.78 157.9,149.73 158.22,148.77C158.5,147.93 158.79,147.12 159.12,146.42C159.4,145.82 159.69,145.25 160.03,144.82C160.31,144.47 160.6,144.12 160.93,143.97C161.21,143.84 161.55,143.8 161.84,143.88C162.16,143.97 162.46,144.25 162.74,144.54C163.08,144.9 163.36,145.41 163.64,145.94C163.97,146.56 164.26,147.29 164.55,148.05C164.87,148.91 165.16,149.88 165.45,150.87C165.77,151.97 166.07,153.15 166.36,154.37C166.67,155.69 166.97,157.08 167.26,158.51C167.57,160.04 167.87,161.63 168.16,163.26C168.47,164.99 168.77,166.78 169.07,168.6C169.38,170.51 169.67,172.47 169.97,174.47C170.28,176.55 170.58,178.68 170.88,180.84C171.19,183.08 171.48,185.36 171.78,187.67C172.08,190.04 172.38,192.45 172.68,194.88C172.99,197.37 173.29,199.9 173.59,202.45C173.89,205.04 174.19,207.66 174.49,210.29C174.79,212.96 175.1,215.65 175.4,218.35C175.7,221.07 176,223.81 176.3,226.54C176.6,229.28 176.91,232.03 177.21,234.77C177.51,237.49 177.81,240.22 178.11,242.92C178.41,245.58 178.7,248.23 179.01,250.84C179.31,253.38 179.61,255.91 179.92,258.37C180.22,260.73 180.51,263.06 180.82,265.3C181.11,267.4 181.42,269.46 181.73,271.42C182.02,273.23 182.31,274.98 182.63,276.63C182.92,278.13 183.21,279.59 183.53,280.92C183.82,282.1 184.09,283.29 184.44,284.22C184.71,284.95 184.95,285.93 185.34,286.09C185.6,286.2 185.98,285.98 186.25,285.77C186.6,285.5 186.87,284.96 187.15,284.47C187.48,283.9 187.77,283.26 188.05,282.54C188.38,281.67 188.67,280.63 188.96,279.59C189.28,278.45 189.56,277.19 189.86,275.97C190.17,274.71 190.48,273.46 190.77,272.14C191.08,270.74 191.37,269.29 191.67,267.81C191.98,266.27 192.28,264.67 192.58,263.07C192.89,261.43 193.18,259.73 193.48,258.09C193.78,256.48 194.07,254.87 194.38,253.31C194.68,251.81 194.98,250.34 195.29,248.91C195.58,247.55 195.88,246.21 196.19,244.92C196.48,243.7 196.79,242.52 197.1,241.38C197.39,240.31 197.69,239.28 198,238.29C198.29,237.37 198.58,236.49 198.9,235.66C199.19,234.89 199.49,234.16 199.81,233.48C200.1,232.87 200.39,232.28 200.71,231.76C201,231.29 201.3,230.85 201.62,230.48C201.91,230.15 202.2,229.85 202.52,229.63C202.81,229.43 203.11,229.27 203.42,229.19C203.72,229.11 204.03,229.09 204.33,229.12C204.63,229.15 204.94,229.26 205.23,229.39C205.54,229.53 205.85,229.74 206.14,229.97C206.45,230.22 206.75,230.52 207.04,230.84C207.35,231.18 207.66,231.57 207.95,231.97C208.26,232.4 208.56,232.87 208.85,233.35C209.16,233.86 209.46,234.4 209.75,234.96C210.06,235.55 210.36,236.17 210.66,236.81C210.97,237.48 211.27,238.17 211.56,238.88C211.87,239.63 212.17,240.4 212.47,241.19C212.78,242.01 213.08,242.86 213.37,243.72C213.68,244.62 213.97,245.54 214.27,246.48C214.58,247.46 214.88,248.46 215.18,249.48C215.49,250.53 215.78,251.6 216.08,252.69C216.39,253.81 216.69,254.96 216.99,256.11C217.29,257.29 217.59,258.48 217.89,259.68C218.19,260.89 218.49,262.12 218.79,263.34C219.09,264.55 219.39,265.78 219.7,266.96C220,268.09 220.27,269.28 220.6,270.26C220.88,271.08 221.1,272.26 221.51,272.48C221.77,272.61 222.15,272.5 222.41,272.28C222.84,271.91 223.05,270.82 223.32,269.89C223.68,268.67 223.93,267.05 224.22,265.54C224.53,263.92 224.82,262.19 225.12,260.48C225.43,258.71 225.73,256.89 226.03,255.08C226.33,253.24 226.63,251.38 226.93,249.52C227.23,247.65 227.54,245.78 227.84,243.91C228.14,242.05 228.44,240.18 228.74,238.32C229.04,236.48 229.34,234.64 229.64,232.82C229.94,231.02 230.25,229.23 230.55,227.45C230.85,225.7 231.15,223.96 231.45,222.24C231.75,220.55 232.06,218.88 232.36,217.22C232.66,215.59 232.96,213.98 233.26,212.39C233.56,210.83 233.86,209.29 234.16,207.76C234.46,206.26 234.77,204.79 235.07,203.32C235.37,201.88 235.67,200.45 235.97,199.03C236.27,197.62 236.58,196.23 236.88,194.84C237.18,193.46 237.48,192.08 237.78,190.7C238.08,189.31 238.38,187.93 238.68,186.53C238.98,185.11 239.29,183.67 239.59,182.22C239.89,180.74 240.19,179.24 240.49,177.72C240.8,176.16 241.1,174.58 241.4,172.98C241.71,171.35 242,169.69 242.3,168.02C242.6,166.33 242.91,164.62 243.21,162.91C243.51,161.19 243.81,159.45 244.11,157.73C244.41,156.01 244.71,154.28 245.01,152.57C245.31,150.88 245.62,149.19 245.92,147.53C246.22,145.89 246.51,144.27 246.82,142.67C247.12,141.11 247.42,139.57 247.73,138.07C248.03,136.62 248.32,135.18 248.63,133.79C248.92,132.45 249.22,131.14 249.53,129.87C249.82,128.67 250.13,127.49 250.44,126.36C250.73,125.3 251.03,124.27 251.34,123.3C251.63,122.4 251.93,121.53 252.25,120.72C252.54,119.98 252.83,119.27 253.15,118.64C253.43,118.08 253.72,117.54 254.05,117.1C254.33,116.72 254.63,116.35 254.96,116.11C255.24,115.9 255.55,115.72 255.86,115.67C256.16,115.63 256.48,115.69 256.77,115.81C257.09,115.95 257.39,116.22 257.67,116.51C258,116.85 258.3,117.3 258.58,117.77C258.9,118.31 259.19,118.93 259.48,119.58C259.8,120.3 260.09,121.1 260.38,121.92C260.7,122.82 261,123.77 261.29,124.76C261.6,125.82 261.9,126.93 262.19,128.07C262.5,129.27 262.8,130.53 263.1,131.8C263.41,133.13 263.71,134.5 264,135.89C264.31,137.33 264.6,138.81 264.9,140.3C265.21,141.83 265.51,143.39 265.81,144.95C266.11,146.54 266.41,148.16 266.71,149.77C267.01,151.4 267.32,153.04 267.62,154.68C267.92,156.32 268.22,157.97 268.52,159.6C268.82,161.22 269.12,162.83 269.42,164.43C269.72,166 270.02,167.57 270.33,169.11C270.63,170.61 270.92,172.09 271.23,173.54C271.53,174.94 271.83,176.31 272.14,177.65C272.43,178.92 272.73,180.18 273.04,181.38C273.33,182.51 273.64,183.62 273.95,184.67C274.24,185.64 274.53,186.59 274.85,187.46C275.14,188.26 275.43,189.02 275.75,189.71C276.04,190.32 276.33,190.91 276.66,191.39C276.94,191.8 277.23,192.2 277.56,192.46C277.84,192.68 278.16,192.87 278.47,192.91C278.76,192.95 279.09,192.87 279.37,192.72C279.7,192.55 279.99,192.21 280.27,191.87C280.6,191.46 280.9,190.94 281.18,190.4C281.5,189.79 281.79,189.08 282.08,188.36C282.4,187.57 282.7,186.71 282.99,185.84C283.3,184.91 283.6,183.93 283.89,182.95C284.2,181.93 284.49,180.88 284.79,179.83C285.09,178.76 285.4,177.68 285.7,176.6C286,175.53 286.3,174.45 286.6,173.39C286.9,172.34 287.2,171.3 287.51,170.28C287.81,169.3 288.1,168.32 288.41,167.38C288.71,166.48 289.01,165.6 289.32,164.75C289.61,163.95 289.91,163.17 290.22,162.44C290.51,161.76 290.8,161.09 291.12,160.48C291.41,159.92 291.71,159.38 292.03,158.91C292.32,158.48 292.61,158.08 292.93,157.75C293.22,157.45 293.52,157.18 293.84,156.99C294.13,156.82 294.43,156.68 294.74,156.63C295.03,156.58 295.35,156.6 295.64,156.67C295.95,156.75 296.26,156.91 296.55,157.09C296.87,157.29 297.16,157.56 297.45,157.85C297.77,158.17 298.07,158.55 298.36,158.94C298.67,159.36 298.97,159.82 299.26,160.29C299.57,160.79 299.86,161.33 300.16,161.88C300.47,162.45 300.77,163.04 301.07,163.64C301.38,164.26 301.67,164.9 301.97,165.53C302.27,166.17 302.58,166.82 302.88,167.46C303.18,168.1 303.48,168.75 303.78,169.38C304.08,170 304.37,170.62 304.68,171.21C304.98,171.78 305.28,172.35 305.59,172.88C305.88,173.38 306.17,173.88 306.49,174.32C306.78,174.72 307.08,175.11 307.4,175.43C307.69,175.72 307.98,175.99 308.3,176.16C308.59,176.31 308.91,176.42 309.21,176.43C309.51,176.44 309.83,176.35 310.11,176.21C310.43,176.05 310.73,175.76 311.01,175.46C311.33,175.12 311.63,174.69 311.92,174.24C312.24,173.74 312.53,173.17 312.82,172.6C313.13,171.99 313.43,171.33 313.73,170.67C314.04,169.99 314.33,169.29 314.63,168.6C314.93,167.91 315.22,167.21 315.53,166.53C315.83,165.87 316.13,165.21 316.44,164.59C316.73,164 317.03,163.43 317.34,162.9C317.63,162.41 317.93,161.94 318.25,161.53C318.54,161.17 318.83,160.82 319.15,160.56C319.43,160.33 319.74,160.13 320.05,160.04C320.34,159.95 320.67,159.93 320.96,160C321.27,160.07 321.58,160.26 321.86,160.48C322.19,160.73 322.49,161.09 322.77,161.48C323.1,161.92 323.38,162.46 323.67,163.02C323.99,163.65 324.29,164.36 324.58,165.09C324.9,165.9 325.19,166.77 325.48,167.67C325.79,168.65 326.09,169.69 326.38,170.76C326.69,171.9 327,173.09 327.29,174.31C327.6,175.6 327.9,176.94 328.19,178.31C328.5,179.74 328.8,181.21 329.1,182.71C329.41,184.26 329.7,185.85 330,187.45C330.3,189.1 330.6,190.78 330.9,192.48C331.2,194.21 331.51,195.97 331.81,197.73C332.11,199.51 332.41,201.32 332.71,203.11C333.01,204.9 333.32,206.71 333.62,208.49C333.92,210.25 334.21,212.01 334.52,213.72C334.81,215.37 335.11,217.02 335.42,218.58C335.71,220.04 336.01,221.48 336.33,222.8C336.62,223.99 336.9,225.14 337.23,226.16C337.51,227.03 337.8,227.85 338.14,228.54C338.42,229.11 338.7,229.64 339.04,230.03C339.32,230.35 339.63,230.63 339.95,230.77C340.23,230.89 340.56,230.94 340.85,230.9C341.16,230.85 341.47,230.68 341.75,230.47C342.08,230.23 342.38,229.86 342.66,229.47C342.99,229.01 343.28,228.46 343.56,227.87C343.88,227.2 344.18,226.44 344.47,225.65C344.79,224.78 345.08,223.82 345.37,222.85C345.68,221.81 345.97,220.71 346.27,219.6C346.58,218.44 346.88,217.23 347.18,216.02C347.49,214.77 347.78,213.49 348.08,212.21C348.38,210.91 348.69,209.59 348.99,208.28C349.29,206.96 349.59,205.62 349.89,204.3C350.19,202.98 350.49,201.67 350.79,200.36C351.09,199.07 351.4,197.78 351.7,196.51C352,195.27 352.29,194.03 352.6,192.82C352.9,191.64 353.2,190.48 353.51,189.34C353.81,188.24 354.1,187.15 354.41,186.1C354.71,185.09 355.01,184.1 355.32,183.15C355.61,182.25 355.91,181.36 356.22,180.52C356.51,179.73 356.81,178.97 357.12,178.25C357.41,177.59 357.71,176.95 358.03,176.36C358.32,175.83 358.61,175.31 358.93,174.87C359.22,174.47 359.52,174.1 359.84,173.81C360.13,173.55 360.43,173.31 360.74,173.18C361.03,173.06 361.34,172.98 361.64,173C361.94,173.02 362.26,173.12 362.55,173.28C362.87,173.45 363.17,173.73 363.45,174.03C363.77,174.37 364.07,174.79 364.36,175.24C364.68,175.74 364.97,176.31 365.26,176.91C365.58,177.57 365.87,178.28 366.16,179.03C366.48,179.84 366.78,180.71 367.07,181.6C367.38,182.55 367.68,183.55 367.97,184.58C368.28,185.67 368.59,186.81 368.88,187.97C369.19,189.19 369.49,190.45 369.78,191.74C370.09,193.08 370.38,194.45 370.68,195.85C370.99,197.3 371.29,198.78 371.59,200.28C371.9,201.82 372.19,203.39 372.49,204.97C372.8,206.59 373.1,208.23 373.4,209.88C373.7,211.56 374,213.25 374.3,214.95C374.6,216.66 374.91,218.4 375.21,220.12C375.51,221.85 375.81,223.58 376.11,225.3C376.41,227 376.7,228.71 377.01,230.38C377.31,232.01 377.61,233.64 377.92,235.22C378.22,236.73 378.51,238.23 378.82,239.65C379.11,240.98 379.41,242.27 379.73,243.48C380.02,244.57 380.31,245.63 380.63,246.58C380.91,247.42 381.2,248.21 381.53,248.91C381.81,249.52 382.11,250.08 382.44,250.55C382.72,250.96 383.02,251.32 383.34,251.62C383.63,251.89 383.94,252.12 384.25,252.29C384.54,252.45 384.85,252.57 385.15,252.65C385.45,252.73 385.75,252.77 386.05,252.79C386.35,252.81 386.66,252.78 386.96,252.75C387.26,252.72 387.56,252.66 387.86,252.59C388.16,252.52 388.47,252.43 388.77,252.33C389.07,252.23 389.37,252.11 389.67,251.99C389.97,251.87 390.28,251.74 390.58,251.61C390.88,251.48 391.18,251.35 391.48,251.22C391.78,251.09 392.08,250.95 392.38,250.83C392.68,250.71 392.99,250.59 393.29,250.48C393.59,250.38 393.89,250.28 394.19,250.2C394.49,250.12 394.8,250.04 395.1,249.99C395.4,249.94 395.7,249.9 396,249.88C396.3,249.86 396.6,249.86 396.9,249.87C397.2,249.88 397.51,249.91 397.81,249.96C398.11,250.01 398.41,250.09 398.71,250.17C399.01,250.26 399.32,250.36 399.62,250.47C399.92,250.58 400.22,250.71 400.52,250.85C400.82,250.99 401.12,251.14 401.42,251.29C401.72,251.45 402.03,251.61 402.33,251.78C402.63,251.95 402.93,252.12 403.23,252.29C403.53,252.45 403.84,252.62 404.14,252.77C404.44,252.92 404.74,253.07 405.04,253.2C405.34,253.33 405.64,253.45 405.95,253.55C406.25,253.65 406.55,253.74 406.85,253.79C407.15,253.84 407.45,253.86 407.75,253.84C408.05,253.82 408.37,253.76 408.66,253.64C408.97,253.51 409.28,253.31 409.56,253.07C409.88,252.79 410.18,252.42 410.47,252.03C410.79,251.59 411.08,251.06 411.37,250.52C411.69,249.92 411.98,249.26 412.27,248.59C412.58,247.89 412.88,247.15 413.18,246.41C413.49,245.65 413.78,244.86 414.08,244.09C414.38,243.32 414.69,242.54 414.99,241.77C415.29,241.01 415.59,240.26 415.89,239.52C416.19,238.8 416.48,238.09 416.79,237.4C417.09,236.74 417.39,236.08 417.7,235.46C417.99,234.87 418.29,234.29 418.6,233.74C418.89,233.22 419.2,232.71 419.51,232.24C419.8,231.8 420.1,231.37 420.41,230.99C420.7,230.63 421.01,230.3 421.32,230.01C421.61,229.74 421.91,229.48 422.22,229.28C422.51,229.09 422.81,228.93 423.12,228.82C423.42,228.71 423.73,228.64 424.03,228.61C424.33,228.58 424.63,228.59 424.93,228.64C425.24,228.69 425.54,228.78 425.84,228.9C426.15,229.02 426.45,229.19 426.74,229.37C427.05,229.56 427.35,229.79 427.64,230.03C427.95,230.28 428.25,230.56 428.55,230.86C428.86,231.17 429.15,231.5 429.45,231.85C429.76,232.21 430.06,232.6 430.36,232.99C430.67,233.4 430.96,233.82 431.26,234.25C431.56,234.7 431.86,235.16 432.16,235.63C432.47,236.11 432.77,236.6 433.07,237.1C433.37,237.61 433.67,238.12 433.97,238.64C434.27,239.17 434.58,239.7 434.88,240.23C435.18,240.77 435.48,241.32 435.78,241.86C436.08,242.4 436.38,242.95 436.68,243.49C436.98,244.03 437.29,244.58 437.59,245.12C437.89,245.66 438.19,246.2 438.49,246.73C438.79,247.26 439.1,247.79 439.4,248.32C439.7,248.85 440,249.37 440.3,249.89C440.6,250.41 440.91,250.92 441.21,251.44C441.51,251.96 441.81,252.48 442.11,253C442.41,253.52 442.71,254.05 443.01,254.58C443.31,255.12 443.62,255.65 443.92,256.2C444.22,256.75 444.52,257.31 444.82,257.88C445.12,258.46 445.43,259.04 445.73,259.63C446.03,260.23 446.33,260.85 446.63,261.46C446.93,262.08 447.22,262.72 447.53,263.32C447.83,263.9 448.14,264.45 448.44,265.01C448.74,265.56 449.04,266.09 449.34,266.65C449.65,267.23 449.95,267.84 450.25,268.45C450.56,269.08 450.85,269.74 451.15,270.4C451.45,271.08 451.75,271.79 452.05,272.5C452.36,273.23 452.66,273.97 452.96,274.71C453.26,275.46 453.56,276.23 453.86,276.99C454.16,277.76 454.47,278.53 454.77,279.3C455.07,280.07 455.37,280.85 455.67,281.62C455.97,282.39 456.28,283.16 456.58,283.93C456.88,284.69 457.18,285.46 457.48,286.21C457.78,286.95 458.07,287.69 458.38,288.4C458.68,289.09 458.98,289.77 459.29,290.42C459.58,291.03 459.87,291.63 460.19,292.18C460.48,292.68 460.78,293.18 461.1,293.59Q461.38,293.95 462,294.52" style="vector-effect: non-scaling-stroke; fill: none; stroke: rgb(231, 107, 243); stroke-opacity: 1; stroke-width: 2px; opacity: 1;"/></g><g class="points"/><g class="text"/></g></g></g><g class="overplot"/><path class="xlines-above crisp" d="M0,0" style="fill: none;"/><path class="ylines-above crisp" d="M0,0" style="fill: none;"/><g class="overlines-above"/><g class="xaxislayer-above"><g class="xtick"><text text-anchor="middle" x="0" y="433" transform="translate(80,0)" style="font-family: 'Open Sans', verdana, arial, sans-serif; font-size: 12px; fill: rgb(42, 63, 95); fill-opacity: 1; white-space: pre;">0</text></g><g class="xtick"><text text-anchor="middle" x="0" y="433" transform="translate(170.23000000000002,0)" style="font-family: 'Open Sans', verdana, arial, sans-serif; font-size: 12px; fill: rgb(42, 63, 95); fill-opacity: 1; white-space: pre;">100</text></g><g class="xtick"><text text-anchor="middle" x="0" y="433" transform="translate(260.47,0)" style="font-family: 'Open Sans', verdana, arial, sans-serif; font-size: 12px; fill: rgb(42, 63, 95); fill-opacity: 1; white-space: pre;">200</text></g><g class="xtick"><text text-anchor="middle" x="0" y="433" transform="translate(350.7,0)" style="font-family: 'Open Sans', verdana, arial, sans-serif; font-size: 12px; fill: rgb(42, 63, 95); fill-opacity: 1; white-space: pre;">300</text></g><g class="xtick"><text text-anchor="middle" x="0" y="433" transform="translate(440.94,0)" style="font-family: 'Open Sans', verdana, arial, sans-serif; font-size: 12px; fill: rgb(42, 63, 95); fill-opacity: 1; white-space: pre;">400</text></g><g class="xtick"><text text-anchor="middle" x="0" y="433" transform="translate(531.1700000000001,0)" style="font-family: 'Open Sans', verdana, arial, sans-serif; font-size: 12px; fill: rgb(42, 63, 95); fill-opacity: 1; white-space: pre;">500</text></g></g><g class="yaxislayer-above"><g class="ytick"><text text-anchor="end" x="79" y="4.199999999999999" transform="translate(0,370.3)" style="font-family: 'Open Sans', verdana, arial, sans-serif; font-size: 12px; fill: rgb(42, 63, 95); fill-opacity: 1; white-space: pre;">100</text></g><g class="ytick"><text text-anchor="end" x="79" y="4.199999999999999" transform="translate(0,309.81)" style="font-family: 'Open Sans', verdana, arial, sans-serif; font-size: 12px; fill: rgb(42, 63, 95); fill-opacity: 1; white-space: pre;">200</text></g><g class="ytick"><text text-anchor="end" x="79" y="4.199999999999999" transform="translate(0,249.32)" style="font-family: 'Open Sans', verdana, arial, sans-serif; font-size: 12px; fill: rgb(42, 63, 95); fill-opacity: 1; white-space: pre;">300</text></g><g class="ytick"><text text-anchor="end" x="79" y="4.199999999999999" transform="translate(0,188.82999999999998)" style="font-family: 'Open Sans', verdana, arial, sans-serif; font-size: 12px; fill: rgb(42, 63, 95); fill-opacity: 1; white-space: pre;">400</text></g><g class="ytick"><text text-anchor="end" x="79" y="4.199999999999999" transform="translate(0,128.34)" style="font-family: 'Open Sans', verdana, arial, sans-serif; font-size: 12px; fill: rgb(42, 63, 95); fill-opacity: 1; white-space: pre;">500</text></g></g><g class="overaxes-above"/></g></g><g class="polarlayer"/><g class="ternarylayer"/><g class="geolayer"/><g class="funnelarealayer"/><g class="pielayer"/><g class="treemaplayer"/><g class="sunburstlayer"/><g class="glimages"/><defs id="topdefs-13682d"><g class="clips"/><clipPath id="legend13682d"><rect width="137" height="67" x="0" y="0"/></clipPath></defs><g class="layer-above"><g class="imagelayer"/><g class="shapelayer"/></g><g class="infolayer"><g class="legend" pointer-events="all" transform="translate(551.24, 100)"><rect class="bg" shape-rendering="crispEdges" width="137" height="67" x="0" y="0" style="stroke: rgb(68, 68, 68); stroke-opacity: 1; fill: rgb(255, 255, 255); fill-opacity: 1; stroke-width: 0px;"/><g class="scrollbox" transform="translate(0, 0)" clip-path="url('#legend13682d')"><g class="groups"><g class="traces" transform="translate(0, 14.5)" style="opacity: 1;"><text class="legendtext" text-anchor="start" x="40" y="4.680000000000001" style="font-family: 'Open Sans', verdana, arial, sans-serif; font-size: 12px; fill: rgb(42, 63, 95); fill-opacity: 1; white-space: pre;">Average Class I</text><g class="layers" style="opacity: 1;"><g class="legendfill"/><g class="legendlines"><path class="js-line" d="M5,0h30" style="fill: none; stroke: rgb(0, 100, 80); stroke-opacity: 1; stroke-width: 2px;"/></g><g class="legendsymbols"><g class="legendpoints"/></g></g><rect class="legendtoggle" x="0" y="-9.5" width="131.15625" height="19" style="fill: rgb(0, 0, 0); fill-opacity: 0;"/></g><g class="traces" transform="translate(0, 33.5)" style="opacity: 1;"><text class="legendtext" text-anchor="start" x="40" y="4.680000000000001" style="font-family: 'Open Sans', verdana, arial, sans-serif; font-size: 12px; fill: rgb(42, 63, 95); fill-opacity: 1; white-space: pre;">Average Class II</text><g class="layers" style="opacity: 1;"><g class="legendfill"/><g class="legendlines"><path class="js-line" d="M5,0h30" style="fill: none; stroke: rgb(0, 176, 246); stroke-opacity: 1; stroke-width: 2px;"/></g><g class="legendsymbols"><g class="legendpoints"/></g></g><rect class="legendtoggle" x="0" y="-9.5" width="131.15625" height="19" style="fill: rgb(0, 0, 0); fill-opacity: 0;"/></g><g class="traces" transform="translate(0, 52.5)" style="opacity: 1;"><text class="legendtext" text-anchor="start" x="40" y="4.680000000000001" style="font-family: 'Open Sans', verdana, arial, sans-serif; font-size: 12px; fill: rgb(42, 63, 95); fill-opacity: 1; white-space: pre;">Average Class III</text><g class="layers" style="opacity: 1;"><g class="legendfill"/><g class="legendlines"><path class="js-line" d="M5,0h30" style="fill: none; stroke: rgb(231, 107, 243); stroke-opacity: 1; stroke-width: 2px;"/></g><g class="legendsymbols"><g class="legendpoints"/></g></g><rect class="legendtoggle" x="0" y="-9.5" width="131.15625" height="19" style="fill: rgb(0, 0, 0); fill-opacity: 0;"/></g></g></g><rect class="scrollbar" rx="20" ry="3" width="0" height="0" x="0" y="0" style="fill: rgb(128, 139, 164); fill-opacity: 1;"/></g><g class="g-gtitle"><text class="gtitle" x="35" y="50" text-anchor="start" dy="0em" style="font-family: 'Open Sans', verdana, arial, sans-serif; font-size: 17px; fill: rgb(42, 63, 95); opacity: 1; font-weight: normal; white-space: pre;">Average curve: energetic_group</text></g><g class="g-xtitle"><text class="xtitle" x="311" y="460.8" text-anchor="middle" style="font-family: 'Open Sans', verdana, arial, sans-serif; font-size: 14px; fill: rgb(42, 63, 95); opacity: 1; font-weight: normal; white-space: pre;">Domain</text></g><g class="g-ytitle"><text class="ytitle" transform="rotate(-90,34.16875,260)" x="34.16875" y="260" text-anchor="middle" style="font-family: 'Open Sans', verdana, arial, sans-serif; font-size: 14px; fill: rgb(42, 63, 95); opacity: 1; font-weight: normal; white-space: pre;">Frequency</text></g></g></svg>