<svg class="main-svg" xmlns="http://www.w3.org/2000/svg" xmlns:xlink="http://www.w3.org/1999/xlink" width="700" height="500" style="" viewBox="0 0 700 500"><rect x="0" y="0" width="700" height="500" style="fill: rgb(255, 255, 255); fill-opacity: 1;"/><defs id="defs-cac8e6"><g class="clips"><clipPath id="clipcac8e6xyplot" class="plotclip"><rect width="462" height="320"/></clipPath><clipPath class="axesclip" id="clipcac8e6x"><rect x="80" y="0" width="462" height="500"/></clipPath><clipPath class="axesclip" id="clipcac8e6y"><rect x="0" y="100" width="700" height="320"/></clipPath><clipPath class="axesclip" id="clipcac8e6xy"><rect x="80" y="100" width="462" height="320"/></clipPath></g><g class="gradients"/></defs><g class="bglayer"><rect class="bg" x="80" y="100" width="462" height="320" style="fill: rgb(229, 236, 246); fill-opacity: 1; stroke-width: 0;"/></g><g class="layer-below"><g class="imagelayer"/><g class="shapelayer"/></g><g class="cartesianlayer"><g class="subplot xy"><g class="layer-subplot"><g class="shapelayer"/><g class="imagelayer"/></g><g class="gridlayer"><g class="x"><path class="xgrid crisp" transform="translate(170.23000000000002,0)" d="M0,100v320" style="stroke: rgb(255, 255, 255); stroke-opacity: 1; stroke-width: 1px;"/><path class="xgrid crisp" transform="translate(260.47,0)" d="M0,100v320" style="stroke: rgb(255, 255, 255); stroke-opacity: 1; stroke-width: 1px;"/><path class="xgrid crisp" transform="translate(350.7,0)" d="M0,100v320" style="stroke: rgb(255, 255, 255); stroke-opacity: 1; stroke-width: 1px;"/><path class="xgrid crisp" transform="translate(440.94,0)" d="M0,100v320" style="stroke: rgb(255, 255, 255); stroke-opacity: 1; stroke-width: 1px;"/><path class="xgrid crisp" transform="translate(531.1700000000001,0)" d="M0,100v320" style="stroke: rgb(255, 255, 255); stroke-opacity: 1; stroke-width: 1px;"/></g><g class="y"><path class="ygrid crisp" transform="translate(0,378.12)" d="M80,0h462" style="stroke: rgb(255, 255, 255); stroke-opacity: 1; stroke-width: 1px;"/><path class="ygrid crisp" transform="translate(0,319.3)" d="M80,0h462" style="stroke: rgb(255, 255, 255); stroke-opacity: 1; stroke-width: 1px;"/><path class="ygrid crisp" transform="translate(0,260.49)" d="M80,0h462" style="stroke: rgb(255, 255, 255); stroke-opacity: 1; stroke-width: 1px;"/><path class="ygrid crisp" transform="translate(0,201.68)" d="M80,0h462" style="stroke: rgb(255, 255, 255); stroke-opacity: 1; stroke-width: 1px;"/><path class="ygrid crisp" transform="translate(0,142.86)" d="M80,0h462" style="stroke: rgb(255, 255, 255); stroke-opacity: 1; stroke-width: 1px;"/></g></g><g class="zerolinelayer"><path class="xzl zl crisp" transform="translate(80,0)" d="M0,100v320" style="stroke: rgb(255, 255, 255); stroke-opacity: 1; stroke-width: 2px;"/></g><path class="xlines-below"/><path class="ylines-below"/><g class="overlines-below"/><g class="xaxislayer-below"/><g class="yaxislayer-below"/><g class="overaxes-below"/><g class="plot" transform="translate(80, 100)" clip-path="url('#clipcac8e6xyplot')"><g class="scatterlayer mlayer"><g class="trace scatter trace31beac" style="stroke-miterlimit: 2; opacity: 1;"><g class="fills"/><g class="errorbars"/><g class="lines"><path class="js-line" d="M0,226.51Q0.63,226.25 0.9,225.98C1.26,225.62 1.53,225.01 1.81,224.4C2.15,223.65 2.43,222.74 2.71,221.8C3.04,220.71 3.33,219.48 3.62,218.22C3.94,216.81 4.23,215.29 4.52,213.73C4.83,212.03 5.13,210.22 5.42,208.38C5.73,206.41 6.04,204.36 6.33,202.26C6.64,200.05 6.93,197.77 7.23,195.45C7.54,193.04 7.84,190.56 8.14,188.05C8.45,185.46 8.74,182.81 9.04,180.14C9.35,177.4 9.65,174.63 9.95,171.83C10.25,168.98 10.55,166.09 10.85,163.2C11.15,160.27 11.45,157.32 11.75,154.37C12.05,151.4 12.36,148.41 12.66,145.42C12.96,142.43 13.26,139.43 13.56,136.45C13.86,133.48 14.17,130.5 14.47,127.55C14.77,124.62 15.07,121.7 15.37,118.81C15.67,115.95 15.97,113.11 16.27,110.3C16.57,107.54 16.88,104.8 17.18,102.09C17.48,99.43 17.78,96.8 18.08,94.2C18.38,91.65 18.69,89.13 18.99,86.62C19.29,84.14 19.59,81.7 19.89,79.23C20.19,76.75 20.49,74.28 20.79,71.76C21.09,69.19 21.4,66.58 21.7,63.97C22,61.33 22.3,58.65 22.6,56.01C22.9,53.41 23.2,50.79 23.51,48.25C23.81,45.8 24.1,43.37 24.41,41.03C24.7,38.81 25.01,36.62 25.32,34.53C25.61,32.57 25.91,30.65 26.22,28.84C26.51,27.17 26.8,25.55 27.12,24.05C27.41,22.71 27.7,21.41 28.03,20.26C28.31,19.29 28.58,18.33 28.93,17.6C29.2,17.03 29.48,16.4 29.84,16.16C30.11,15.98 30.47,15.9 30.74,16C31.08,16.13 31.37,16.66 31.64,17.14C32,17.78 32.27,18.69 32.55,19.61C32.89,20.72 33.17,22.02 33.45,23.37C33.78,24.92 34.07,26.63 34.36,28.4C34.68,30.37 34.97,32.48 35.26,34.66C35.57,37.03 35.87,39.52 36.16,42.08C36.47,44.82 36.78,47.67 37.07,50.58C37.38,53.65 37.67,56.83 37.97,60.06C38.28,63.43 38.58,66.9 38.88,70.41C39.19,74.04 39.48,77.75 39.78,81.5C40.08,85.35 40.38,89.26 40.68,93.19C40.98,97.19 41.29,101.24 41.59,105.29C41.89,109.38 42.19,113.52 42.49,117.63C42.79,121.75 43.1,125.88 43.4,129.98C43.7,134.04 44,138.12 44.3,142.12C44.6,146.04 44.9,149.94 45.21,153.75C45.51,157.42 45.8,161.06 46.11,164.57C46.4,167.89 46.7,171.17 47.01,174.27C47.3,177.14 47.6,179.94 47.92,182.54C48.21,184.87 48.49,187.12 48.82,189.15C49.1,190.9 49.39,192.57 49.73,194C50.01,195.16 50.27,196.29 50.63,197.12C50.9,197.73 51.16,198.39 51.53,198.62C51.8,198.79 52.17,198.81 52.44,198.69C52.79,198.54 53.07,198.01 53.34,197.56C53.68,196.99 53.96,196.24 54.25,195.5C54.57,194.66 54.86,193.72 55.15,192.78C55.46,191.78 55.75,190.72 56.05,189.67C56.35,188.6 56.66,187.5 56.96,186.43C57.26,185.36 57.55,184.28 57.86,183.25C58.16,182.26 58.46,181.27 58.77,180.34C59.06,179.47 59.35,178.6 59.67,177.82C59.96,177.11 60.25,176.42 60.58,175.83C60.86,175.31 61.15,174.81 61.48,174.44C61.76,174.13 62.06,173.84 62.38,173.72C62.67,173.62 63,173.61 63.29,173.7C63.61,173.81 63.91,174.1 64.19,174.4C64.53,174.77 64.82,175.28 65.1,175.8C65.43,176.41 65.72,177.12 66,177.85C66.32,178.67 66.61,179.58 66.9,180.51C67.21,181.52 67.52,182.6 67.81,183.69C68.12,184.85 68.41,186.05 68.71,187.27C69.02,188.53 69.32,189.82 69.62,191.11C69.92,192.42 70.22,193.76 70.52,195.08C70.82,196.39 71.12,197.71 71.42,199.01C71.72,200.28 72.02,201.54 72.33,202.78C72.63,203.98 72.92,205.18 73.23,206.34C73.53,207.46 73.83,208.56 74.14,209.62C74.43,210.62 74.73,211.61 75.04,212.54C75.33,213.4 75.63,214.23 75.95,215.01C76.24,215.72 76.53,216.4 76.85,217.03C77.14,217.6 77.43,218.14 77.75,218.63C78.04,219.08 78.34,219.5 78.66,219.86C78.95,220.19 79.24,220.49 79.56,220.74C79.85,220.97 80.16,221.16 80.47,221.3C80.76,221.43 81.07,221.52 81.37,221.56C81.67,221.6 81.97,221.59 82.27,221.54C82.58,221.49 82.88,221.39 83.18,221.28C83.49,221.16 83.78,221 84.08,220.84C84.39,220.67 84.69,220.47 84.99,220.28C85.29,220.08 85.59,219.87 85.89,219.67C86.19,219.47 86.49,219.26 86.79,219.07C87.09,218.88 87.39,218.7 87.7,218.55C88,218.4 88.29,218.26 88.6,218.16C88.9,218.07 89.21,217.99 89.51,217.97C89.81,217.95 90.11,217.95 90.41,218.01C90.72,218.07 91.03,218.17 91.32,218.32C91.63,218.48 91.93,218.69 92.22,218.93C92.53,219.19 92.83,219.5 93.12,219.84C93.44,220.21 93.74,220.63 94.03,221.07C94.34,221.54 94.64,222.06 94.93,222.6C95.24,223.18 95.55,223.79 95.84,224.42C96.15,225.09 96.45,225.79 96.74,226.51C97.05,227.26 97.34,228.05 97.64,228.84C97.95,229.66 98.25,230.51 98.55,231.37C98.86,232.25 99.15,233.15 99.45,234.05C99.75,234.97 100.06,235.9 100.36,236.83C100.66,237.76 100.96,238.7 101.26,239.63C101.56,240.55 101.85,241.48 102.16,242.38C102.46,243.26 102.76,244.14 103.07,244.98C103.37,245.79 103.66,246.58 103.97,247.33C104.26,248.03 104.56,248.71 104.88,249.34C105.17,249.91 105.46,250.47 105.78,250.95C106.06,251.38 106.36,251.78 106.68,252.1C106.97,252.38 107.27,252.63 107.59,252.78C107.88,252.92 108.19,253.01 108.49,253.01C108.79,253.01 109.11,252.91 109.4,252.77C109.72,252.61 110.02,252.36 110.3,252.08C110.62,251.76 110.92,251.36 111.21,250.94C111.53,250.47 111.82,249.93 112.11,249.36C112.43,248.73 112.72,248.05 113.01,247.33C113.33,246.55 113.63,245.72 113.92,244.85C114.24,243.9 114.53,242.89 114.82,241.85C115.13,240.73 115.43,239.55 115.73,238.35C116.04,237.1 116.33,235.81 116.63,234.5C116.93,233.15 117.23,231.78 117.53,230.39C117.83,228.98 118.14,227.54 118.44,226.1C118.74,224.64 119.04,223.16 119.34,221.68C119.64,220.19 119.95,218.7 120.25,217.21C120.55,215.72 120.85,214.21 121.15,212.72C121.45,211.23 121.75,209.74 122.05,208.27C122.35,206.81 122.66,205.36 122.96,203.92C123.26,202.5 123.55,201.08 123.86,199.69C124.16,198.33 124.46,196.98 124.77,195.65C125.07,194.36 125.36,193.07 125.67,191.82C125.97,190.61 126.27,189.42 126.58,188.26C126.88,187.15 127.17,186.06 127.48,185C127.77,183.99 128.07,183 128.38,182.06C128.67,181.17 128.98,180.31 129.29,179.49C129.58,178.73 129.87,177.99 130.19,177.3C130.48,176.67 130.78,176.06 131.1,175.51C131.39,175.02 131.68,174.55 132,174.15C132.28,173.79 132.58,173.46 132.9,173.21C133.19,172.99 133.5,172.79 133.81,172.69C134.1,172.6 134.41,172.56 134.71,172.6C135.02,172.64 135.33,172.76 135.62,172.92C135.94,173.1 136.23,173.36 136.52,173.65C136.84,173.97 137.13,174.35 137.42,174.76C137.74,175.21 138.04,175.72 138.33,176.25C138.64,176.82 138.94,177.43 139.23,178.07C139.54,178.75 139.85,179.48 140.14,180.22C140.45,181 140.75,181.82 141.04,182.66C141.35,183.54 141.65,184.45 141.95,185.38C142.26,186.35 142.55,187.35 142.85,188.36C143.16,189.41 143.45,190.48 143.75,191.56C144.06,192.67 144.36,193.8 144.66,194.93C144.96,196.08 145.26,197.25 145.56,198.42C145.86,199.59 146.17,200.77 146.47,201.94C146.77,203.1 147.07,204.27 147.37,205.42C147.67,206.55 147.96,207.68 148.27,208.78C148.57,209.84 148.87,210.89 149.18,211.9C149.47,212.86 149.77,213.8 150.08,214.69C150.37,215.51 150.67,216.32 150.99,217.05C151.28,217.71 151.57,218.35 151.89,218.89C152.17,219.36 152.46,219.82 152.79,220.15C153.07,220.43 153.38,220.68 153.7,220.78C153.99,220.87 154.31,220.87 154.6,220.77C154.92,220.66 155.23,220.39 155.51,220.1C155.85,219.75 156.13,219.25 156.41,218.74C156.74,218.14 157.03,217.41 157.32,216.68C157.64,215.87 157.93,214.97 158.22,214.07C158.53,213.11 158.82,212.1 159.12,211.09C159.43,210.06 159.73,209 160.03,207.94C160.33,206.87 160.63,205.77 160.93,204.69C161.23,203.61 161.54,202.52 161.84,201.44C162.14,200.36 162.44,199.27 162.74,198.19C163.04,197.12 163.34,196.05 163.64,194.99C163.94,193.94 164.24,192.88 164.55,191.84C164.85,190.83 165.14,189.82 165.45,188.84C165.75,187.9 166.05,186.96 166.36,186.08C166.65,185.25 166.94,184.44 167.26,183.7C167.55,183.02 167.84,182.36 168.16,181.79C168.44,181.29 168.74,180.81 169.07,180.45C169.35,180.15 169.65,179.85 169.97,179.73C170.26,179.62 170.59,179.6 170.88,179.69C171.2,179.79 171.5,180.06 171.78,180.35C172.12,180.71 172.4,181.22 172.68,181.75C173.01,182.38 173.31,183.12 173.59,183.89C173.91,184.77 174.2,185.74 174.49,186.76C174.81,187.89 175.11,189.11 175.4,190.37C175.72,191.74 176.01,193.19 176.3,194.68C176.61,196.28 176.92,197.96 177.21,199.67C177.52,201.48 177.82,203.36 178.11,205.28C178.42,207.29 178.71,209.37 179.01,211.48C179.32,213.68 179.62,215.93 179.92,218.21C180.23,220.56 180.52,222.96 180.82,225.39C181.13,227.88 181.43,230.41 181.73,232.96C182.03,235.56 182.33,238.19 182.63,240.83C182.93,243.5 183.23,246.2 183.53,248.9C183.83,251.61 184.14,254.34 184.44,257.05C184.74,259.74 185.04,262.45 185.34,265.11C185.64,267.71 185.94,270.33 186.25,272.84C186.54,275.23 186.83,277.64 187.15,279.83C187.43,281.79 187.71,283.73 188.05,285.37C188.33,286.71 188.6,288.01 188.96,288.99C189.23,289.71 189.47,290.49 189.86,290.79C190.12,290.99 190.5,291.09 190.77,290.99C191.12,290.86 191.4,290.31 191.67,289.82C192.03,289.18 192.3,288.28 192.58,287.38C192.91,286.32 193.19,285.07 193.48,283.83C193.79,282.48 194.08,281.02 194.38,279.57C194.69,278.08 194.99,276.53 195.29,275.01C195.59,273.48 195.89,271.93 196.19,270.42C196.49,268.93 196.79,267.45 197.1,266.01C197.4,264.63 197.69,263.25 198,261.94C198.29,260.7 198.58,259.49 198.9,258.35C199.19,257.3 199.49,256.29 199.81,255.36C200.1,254.53 200.38,253.72 200.71,253.02C200.99,252.42 201.28,251.83 201.62,251.39C201.9,251.02 202.19,250.66 202.52,250.49C202.8,250.34 203.13,250.28 203.42,250.33C203.73,250.39 204.05,250.62 204.33,250.88C204.66,251.19 204.95,251.64 205.23,252.11C205.56,252.65 205.85,253.3 206.14,253.97C206.46,254.72 206.75,255.54 207.04,256.39C207.35,257.3 207.66,258.28 207.95,259.27C208.26,260.32 208.56,261.42 208.85,262.53C209.16,263.68 209.45,264.87 209.75,266.07C210.06,267.3 210.36,268.55 210.66,269.8C210.96,271.05 211.26,272.33 211.56,273.57C211.86,274.79 212.16,276.02 212.47,277.2C212.76,278.32 213.05,279.44 213.37,280.46C213.66,281.38 213.94,282.29 214.27,283.06C214.55,283.72 214.83,284.38 215.18,284.84C215.45,285.2 215.76,285.63 216.08,285.67C216.37,285.71 216.72,285.47 216.99,285.21C217.35,284.87 217.61,284.24 217.89,283.63C218.23,282.89 218.51,281.97 218.79,281.05C219.11,280 219.41,278.83 219.7,277.65C220.01,276.37 220.3,275 220.6,273.63C220.91,272.19 221.21,270.7 221.51,269.21C221.82,267.68 222.11,266.12 222.41,264.56C222.71,262.99 223.02,261.4 223.32,259.82C223.62,258.25 223.92,256.67 224.22,255.1C224.52,253.55 224.82,252 225.12,250.47C225.42,248.97 225.73,247.48 226.03,246C226.33,244.55 226.63,243.12 226.93,241.7C227.23,240.31 227.54,238.95 227.84,237.59C228.14,236.26 228.44,234.95 228.74,233.65C229.04,232.38 229.33,231.13 229.64,229.9C229.94,228.71 230.24,227.53 230.55,226.39C230.85,225.29 231.14,224.21 231.45,223.18C231.74,222.2 232.05,221.25 232.36,220.35C232.65,219.52 232.94,218.71 233.26,217.97C233.55,217.3 233.84,216.64 234.16,216.08C234.44,215.58 234.74,215.11 235.07,214.74C235.35,214.43 235.65,214.13 235.97,213.98C236.26,213.84 236.58,213.77 236.88,213.81C237.19,213.85 237.5,214.03 237.78,214.24C238.11,214.49 238.4,214.87 238.68,215.26C239.01,215.71 239.3,216.26 239.59,216.83C239.91,217.46 240.2,218.18 240.49,218.9C240.8,219.68 241.11,220.52 241.4,221.37C241.71,222.26 242,223.2 242.3,224.14C242.61,225.1 242.91,226.09 243.21,227.05C243.51,228.01 243.8,228.98 244.11,229.9C244.4,230.78 244.69,231.66 245.01,232.45C245.3,233.16 245.58,233.88 245.92,234.43C246.2,234.88 246.47,235.39 246.82,235.57C247.09,235.71 247.46,235.75 247.73,235.62C248.08,235.45 248.36,234.9 248.63,234.39C248.99,233.71 249.25,232.78 249.53,231.83C249.87,230.68 250.16,229.34 250.44,227.96C250.76,226.39 251.05,224.67 251.34,222.91C251.66,220.98 251.96,218.93 252.25,216.85C252.56,214.63 252.86,212.32 253.15,209.98C253.46,207.54 253.75,205.03 254.05,202.51C254.36,199.92 254.66,197.28 254.96,194.64C255.26,191.96 255.56,189.25 255.86,186.55C256.16,183.85 256.47,181.13 256.77,178.44C257.07,175.77 257.37,173.1 257.67,170.47C257.97,167.89 258.27,165.31 258.58,162.79C258.88,160.34 259.17,157.92 259.48,155.56C259.77,153.3 260.07,151.06 260.38,148.91C260.67,146.87 260.98,144.87 261.29,142.96C261.58,141.18 261.87,139.44 262.19,137.81C262.48,136.32 262.78,134.88 263.1,133.56C263.39,132.39 263.67,131.26 264,130.28C264.28,129.45 264.55,128.64 264.9,128.03C265.17,127.55 265.46,127.04 265.81,126.85C266.08,126.7 266.43,126.67 266.71,126.78C267.05,126.92 267.35,127.38 267.62,127.82C267.97,128.39 268.24,129.18 268.52,129.98C268.85,130.95 269.14,132.07 269.42,133.24C269.74,134.57 270.04,136.03 270.33,137.55C270.65,139.23 270.94,141.03 271.23,142.88C271.54,144.88 271.85,146.99 272.14,149.14C272.45,151.43 272.75,153.82 273.04,156.25C273.35,158.8 273.65,161.44 273.95,164.1C274.26,166.86 274.55,169.69 274.85,172.53C275.15,175.44 275.45,178.41 275.75,181.35C276.05,184.29 276.35,187.31 276.66,190.16C276.95,192.86 277.22,195.67 277.56,198.03C277.84,199.97 278.16,201.62 278.47,203.31C278.76,204.88 279.05,206.4 279.37,207.83C279.66,209.14 279.92,210.49 280.27,211.56C280.54,212.41 280.8,213.28 281.18,213.8C281.44,214.17 281.76,214.52 282.08,214.57C282.37,214.62 282.72,214.43 282.99,214.19C283.35,213.87 283.62,213.25 283.89,212.65C284.23,211.89 284.51,210.93 284.79,209.94C285.12,208.78 285.41,207.47 285.7,206.11C286.02,204.59 286.31,202.94 286.6,201.26C286.91,199.44 287.22,197.53 287.51,195.57C287.82,193.47 288.12,191.29 288.41,189.06C288.72,186.69 289.02,184.2 289.32,181.75C289.62,179.28 289.92,176.78 290.22,174.3C290.52,171.84 290.82,169.36 291.12,166.93C291.42,164.54 291.72,162.17 292.03,159.84C292.33,157.58 292.62,155.33 292.93,153.15C293.23,151.05 293.53,148.97 293.84,146.97C294.13,145.07 294.43,143.2 294.74,141.41C295.03,139.73 295.33,138.09 295.64,136.53C295.93,135.09 296.23,133.69 296.55,132.37C296.84,131.17 297.13,130.01 297.45,128.94C297.74,127.99 298.04,127.09 298.36,126.27C298.64,125.56 298.93,124.88 299.26,124.3C299.54,123.8 299.84,123.35 300.16,122.97C300.44,122.64 300.76,122.38 301.07,122.14C301.36,121.91 301.67,121.76 301.97,121.55C302.28,121.33 302.59,121.12 302.88,120.86C303.19,120.58 303.48,120.23 303.78,119.91C304.08,119.59 304.37,119.22 304.68,118.93C304.97,118.65 305.27,118.37 305.59,118.19C305.88,118.03 306.19,117.89 306.49,117.87C306.79,117.85 307.11,117.93 307.4,118.07C307.72,118.23 308.02,118.53 308.3,118.84C308.63,119.21 308.93,119.68 309.21,120.18C309.54,120.75 309.82,121.41 310.11,122.1C310.43,122.87 310.72,123.71 311.01,124.58C311.33,125.53 311.63,126.55 311.92,127.6C312.23,128.73 312.53,129.91 312.82,131.13C313.13,132.42 313.44,133.77 313.73,135.14C314.04,136.58 314.34,138.07 314.63,139.58C314.94,141.15 315.23,142.77 315.53,144.41C315.84,146.11 316.14,147.84 316.44,149.59C316.75,151.39 317.04,153.22 317.34,155.07C317.64,156.96 317.95,158.87 318.25,160.79C318.55,162.74 318.85,164.72 319.15,166.7C319.45,168.7 319.75,170.73 320.05,172.75C320.35,174.79 320.66,176.85 320.96,178.9C321.26,180.96 321.56,183.02 321.86,185.08C322.16,187.14 322.47,189.21 322.77,191.27C323.07,193.32 323.37,195.38 323.67,197.42C323.97,199.45 324.28,201.48 324.58,203.5C324.88,205.5 325.18,207.5 325.48,209.48C325.78,211.44 326.08,213.4 326.38,215.34C326.68,217.26 326.99,219.17 327.29,221.06C327.59,222.93 327.89,224.78 328.19,226.62C328.49,228.44 328.8,230.24 329.1,232.03C329.4,233.79 329.7,235.54 330,237.28C330.3,238.99 330.6,240.68 330.9,242.36C331.2,244.01 331.51,245.65 331.81,247.27C332.11,248.87 332.41,250.45 332.71,252.02C333.01,253.55 333.32,255.07 333.62,256.57C333.92,258.04 334.21,259.5 334.52,260.92C334.81,262.28 335.11,263.63 335.42,264.91C335.71,266.12 336.02,267.3 336.33,268.41C336.62,269.44 336.9,270.47 337.23,271.35C337.51,272.1 337.82,272.77 338.14,273.39C338.43,273.95 338.73,274.45 339.04,274.93C339.33,275.37 339.63,275.78 339.95,276.15C340.24,276.49 340.54,276.8 340.85,277.06C341.14,277.3 341.44,277.51 341.75,277.67C342.04,277.82 342.35,277.93 342.66,278C342.96,278.07 343.26,278.1 343.56,278.11C343.86,278.12 344.17,278.09 344.47,278.05C344.77,278.01 345.07,277.95 345.37,277.88C345.67,277.81 345.97,277.71 346.27,277.62C346.57,277.53 346.88,277.42 347.18,277.33C347.48,277.24 347.78,277.14 348.08,277.06C348.38,276.98 348.69,276.9 348.99,276.85C349.29,276.8 349.59,276.77 349.89,276.75C350.19,276.73 350.49,276.74 350.79,276.75C351.09,276.76 351.4,276.8 351.7,276.84C352,276.88 352.3,276.94 352.6,277C352.9,277.06 353.21,277.12 353.51,277.19C353.81,277.26 354.11,277.34 354.41,277.41C354.71,277.49 355.02,277.56 355.32,277.64C355.62,277.71 355.92,277.8 356.22,277.86C356.52,277.92 356.82,277.97 357.12,278.01C357.42,278.05 357.73,278.08 358.03,278.08C358.33,278.08 358.63,278.07 358.93,278.03C359.23,277.99 359.54,277.94 359.84,277.86C360.14,277.78 360.45,277.67 360.74,277.54C361.05,277.4 361.35,277.23 361.64,277.03C361.95,276.82 362.26,276.57 362.55,276.29C362.87,275.98 363.16,275.62 363.45,275.22C363.77,274.78 364.07,274.29 364.36,273.76C364.68,273.16 364.98,272.5 365.26,271.79C365.58,270.99 365.87,270.11 366.16,269.18C366.48,268.13 366.78,266.98 367.07,265.8C367.38,264.52 367.67,263.16 367.97,261.79C368.28,260.36 368.58,258.88 368.88,257.4C369.19,255.88 369.48,254.34 369.78,252.79C370.08,251.22 370.38,249.62 370.68,248.03C370.98,246.43 371.29,244.82 371.59,243.22C371.89,241.61 372.19,240 372.49,238.4C372.79,236.81 373.1,235.22 373.4,233.65C373.7,232.1 374,230.56 374.3,229.03C374.6,227.53 374.9,226.03 375.21,224.56C375.51,223.12 375.81,221.69 376.11,220.29C376.41,218.92 376.7,217.57 377.01,216.24C377.31,214.94 377.61,213.67 377.92,212.41C378.22,211.19 378.51,209.99 378.82,208.81C379.12,207.66 379.42,206.53 379.73,205.41C380.03,204.33 380.33,203.26 380.63,202.21C380.93,201.19 381.22,200.18 381.53,199.19C381.83,198.22 382.13,197.28 382.44,196.34C382.74,195.43 383.04,194.54 383.34,193.65C383.64,192.78 383.95,191.93 384.25,191.08C384.55,190.25 384.85,189.42 385.15,188.61C385.45,187.82 385.74,187.03 386.05,186.28C386.35,185.56 386.65,184.85 386.96,184.19C387.25,183.58 387.54,182.98 387.86,182.44C388.15,181.94 388.46,181.49 388.77,181.05C389.06,180.64 389.36,180.23 389.67,179.88C389.96,179.55 390.26,179.21 390.58,178.99C390.86,178.79 391.17,178.63 391.48,178.58C391.77,178.54 392.09,178.58 392.38,178.7C392.7,178.83 393.01,179.1 393.29,179.39C393.62,179.72 393.91,180.17 394.19,180.63C394.52,181.16 394.81,181.78 395.1,182.43C395.42,183.15 395.71,183.94 396,184.76C396.31,185.66 396.61,186.61 396.9,187.6C397.21,188.66 397.52,189.78 397.81,190.93C398.12,192.15 398.42,193.42 398.71,194.72C399.02,196.08 399.32,197.48 399.62,198.91C399.93,200.4 400.22,201.93 400.52,203.48C400.83,205.08 401.12,206.73 401.42,208.38C401.73,210.08 402.03,211.8 402.33,213.54C402.63,215.31 402.93,217.1 403.23,218.9C403.53,220.72 403.84,222.55 404.14,224.39C404.44,226.24 404.74,228.1 405.04,229.95C405.34,231.8 405.65,233.65 405.95,235.49C406.25,237.33 406.55,239.16 406.85,240.99C407.15,242.8 407.45,244.61 407.75,246.41C408.05,248.19 408.36,249.97 408.66,251.74C408.96,253.49 409.26,255.23 409.56,256.96C409.86,258.67 410.17,260.36 410.47,262.04C410.77,263.69 411.07,265.32 411.37,266.93C411.67,268.5 411.96,270.05 412.27,271.57C412.57,273.03 412.87,274.47 413.18,275.87C413.48,277.21 413.77,278.52 414.08,279.78C414.37,280.97 414.68,282.13 414.99,283.25C415.28,284.3 415.58,285.31 415.89,286.28C416.18,287.19 416.47,288.07 416.79,288.89C417.08,289.64 417.38,290.37 417.7,291.02C417.99,291.6 418.28,292.16 418.6,292.64C418.89,293.07 419.19,293.47 419.51,293.8C419.8,294.09 420.1,294.35 420.41,294.54C420.7,294.72 421.01,294.85 421.32,294.94C421.62,295.03 421.92,295.07 422.22,295.1C422.52,295.13 422.82,295.14 423.12,295.12C423.42,295.1 423.73,295.07 424.03,295C424.34,294.92 424.64,294.81 424.93,294.66C425.24,294.51 425.54,294.29 425.84,294.09C426.15,293.88 426.44,293.64 426.74,293.42C427.04,293.2 427.34,292.99 427.64,292.78C427.94,292.58 428.25,292.38 428.55,292.19C428.85,292.01 429.15,291.83 429.45,291.66C429.75,291.5 430.06,291.35 430.36,291.2C430.66,291.05 430.96,290.92 431.26,290.78C431.56,290.65 431.86,290.52 432.16,290.39C432.46,290.26 432.77,290.14 433.07,290.01C433.37,289.88 433.67,289.75 433.97,289.6C434.28,289.45 434.58,289.29 434.88,289.1C435.19,288.91 435.48,288.69 435.78,288.47C436.08,288.25 436.38,288 436.68,287.77C436.98,287.54 437.28,287.3 437.59,287.09C437.89,286.88 438.18,286.69 438.49,286.51C438.79,286.34 439.09,286.18 439.4,286.04C439.7,285.91 440,285.79 440.3,285.7C440.6,285.61 440.91,285.54 441.21,285.5C441.51,285.46 441.81,285.44 442.11,285.44C442.41,285.44 442.71,285.46 443.01,285.5C443.31,285.54 443.62,285.62 443.92,285.7C444.22,285.79 444.52,285.89 444.82,286.01C445.13,286.13 445.43,286.28 445.73,286.43C446.03,286.59 446.33,286.76 446.63,286.95C446.93,287.14 447.23,287.35 447.53,287.56C447.84,287.78 448.14,288.01 448.44,288.25C448.74,288.49 449.04,288.74 449.34,289C449.64,289.26 449.95,289.53 450.25,289.8C450.55,290.07 450.85,290.35 451.15,290.64C451.45,290.93 451.75,291.23 452.05,291.52C452.35,291.81 452.66,292.1 452.96,292.4C453.26,292.69 453.56,293 453.86,293.29C454.16,293.58 454.46,293.88 454.77,294.16C455.07,294.43 455.36,294.72 455.67,294.95C455.96,295.16 456.28,295.32 456.58,295.5C456.88,295.68 457.18,295.85 457.48,296.02C457.78,296.19 458.08,296.36 458.38,296.52C458.68,296.68 458.99,296.82 459.29,296.96C459.59,297.1 459.89,297.23 460.19,297.34C460.49,297.45 460.8,297.56 461.1,297.64Q461.4,297.72 462,297.83" style="vector-effect: non-scaling-stroke; fill: none; stroke: rgb(0, 100, 80); stroke-opacity: 1; stroke-width: 2px; opacity: 1;"/></g><g class="points"/><g class="text"/></g><g class="trace scatter trace8ef894" style="stroke-miterlimit: 2; opacity: 1;"><g class="fills"/><g class="errorbars"/><g class="lines"><path class="js-line" d="M0,193.68Q0.63,192.48 0.9,191.71C1.26,190.69 1.52,189.32 1.81,188.03C2.13,186.6 2.42,185.05 2.71,183.49C3.02,181.82 3.32,180.08 3.62,178.31C3.93,176.46 4.22,174.55 4.52,172.62C4.83,170.63 5.12,168.58 5.42,166.53C5.73,164.43 6.03,162.29 6.33,160.14C6.63,157.96 6.93,155.75 7.23,153.54C7.53,151.31 7.84,149.05 8.14,146.8C8.44,144.54 8.74,142.26 9.04,140C9.34,137.74 9.65,135.47 9.95,133.22C10.25,130.98 10.55,128.73 10.85,126.5C11.15,124.29 11.45,122.09 11.75,119.91C12.05,117.76 12.36,115.62 12.66,113.5C12.96,111.42 13.25,109.36 13.56,107.32C13.86,105.33 14.16,103.35 14.47,101.41C14.77,99.52 15.07,97.65 15.37,95.81C15.67,94.03 15.96,92.26 16.27,90.54C16.57,88.87 16.87,87.23 17.18,85.63C17.48,84.09 17.77,82.58 18.08,81.11C18.38,79.7 18.68,78.32 18.99,76.98C19.28,75.7 19.58,74.46 19.89,73.25C20.18,72.1 20.48,70.98 20.79,69.9C21.08,68.87 21.39,67.87 21.7,66.89C21.99,65.96 22.29,65.06 22.6,64.17C22.9,63.32 23.2,62.48 23.51,61.67C23.81,60.89 24.1,60.12 24.41,59.37C24.71,58.65 25.01,57.94 25.32,57.28C25.61,56.66 25.9,56.05 26.22,55.5C26.51,55 26.8,54.51 27.12,54.12C27.4,53.77 27.7,53.44 28.03,53.23C28.31,53.05 28.63,52.9 28.93,52.9C29.23,52.9 29.56,53.03 29.84,53.22C30.17,53.44 30.46,53.83 30.74,54.23C31.07,54.71 31.36,55.32 31.64,55.95C31.97,56.68 32.26,57.52 32.55,58.39C32.87,59.37 33.16,60.44 33.45,61.55C33.77,62.77 34.07,64.07 34.36,65.41C34.67,66.86 34.97,68.38 35.26,69.95C35.57,71.62 35.87,73.36 36.16,75.14C36.47,77.03 36.77,78.98 37.07,80.97C37.38,83.05 37.67,85.2 37.97,87.38C38.28,89.65 38.58,91.98 38.88,94.34C39.19,96.78 39.48,99.26 39.78,101.77C40.08,104.35 40.38,106.98 40.68,109.62C40.98,112.32 41.29,115.05 41.59,117.79C41.89,120.57 42.19,123.37 42.49,126.18C42.79,129.01 43.1,131.85 43.4,134.69C43.7,137.53 44,140.39 44.3,143.22C44.6,146.04 44.91,148.85 45.21,151.64C45.51,154.39 45.81,157.12 46.11,159.82C46.41,162.46 46.7,165.08 47.01,167.64C47.31,170.12 47.61,172.56 47.92,174.94C48.22,177.21 48.51,179.46 48.82,181.61C49.11,183.64 49.42,185.62 49.73,187.51C50.02,189.26 50.31,190.97 50.63,192.56C50.92,194.01 51.21,195.41 51.53,196.68C51.81,197.8 52.11,198.88 52.44,199.81C52.72,200.59 52.99,201.36 53.34,201.92C53.61,202.35 53.91,202.8 54.25,202.95C54.53,203.07 54.87,203.05 55.15,202.94C55.48,202.81 55.77,202.44 56.05,202.11C56.38,201.73 56.67,201.23 56.96,200.75C57.27,200.24 57.56,199.67 57.86,199.12C58.17,198.55 58.47,197.96 58.77,197.38C59.07,196.81 59.36,196.23 59.67,195.68C59.97,195.14 60.27,194.61 60.58,194.11C60.87,193.64 61.17,193.17 61.48,192.76C61.77,192.38 62.06,192.01 62.38,191.7C62.67,191.42 62.97,191.16 63.29,190.98C63.58,190.82 63.88,190.69 64.19,190.65C64.49,190.61 64.81,190.64 65.1,190.72C65.41,190.81 65.71,190.98 66,191.19C66.32,191.42 66.61,191.73 66.9,192.05C67.22,192.41 67.52,192.82 67.81,193.25C68.12,193.72 68.42,194.24 68.71,194.77C69.02,195.33 69.32,195.93 69.62,196.54C69.93,197.18 70.22,197.85 70.52,198.52C70.82,199.22 71.12,199.93 71.42,200.65C71.73,201.39 72.03,202.14 72.33,202.89C72.63,203.65 72.93,204.43 73.23,205.2C73.53,205.98 73.84,206.77 74.14,207.55C74.44,208.34 74.74,209.12 75.04,209.91C75.34,210.69 75.65,211.48 75.95,212.26C76.25,213.03 76.55,213.81 76.85,214.57C77.15,215.33 77.45,216.08 77.75,216.82C78.05,217.55 78.35,218.27 78.66,218.98C78.96,219.67 79.25,220.35 79.56,221.01C79.86,221.65 80.16,222.28 80.47,222.88C80.76,223.45 81.06,224.01 81.37,224.53C81.66,225.02 81.96,225.51 82.27,225.94C82.56,226.34 82.86,226.73 83.18,227.06C83.47,227.37 83.77,227.65 84.08,227.88C84.37,228.09 84.68,228.27 84.99,228.41C85.28,228.54 85.59,228.62 85.89,228.69C86.19,228.75 86.49,228.78 86.79,228.8C87.09,228.82 87.4,228.8 87.7,228.79C88,228.78 88.3,228.76 88.6,228.75C88.9,228.74 89.21,228.72 89.51,228.72C89.81,228.72 90.11,228.73 90.41,228.75C90.71,228.77 91.02,228.81 91.32,228.86C91.62,228.91 91.92,228.97 92.22,229.03C92.52,229.09 92.82,229.16 93.12,229.22C93.42,229.28 93.73,229.35 94.03,229.4C94.33,229.45 94.63,229.48 94.93,229.5C95.23,229.53 95.54,229.53 95.84,229.55C96.14,229.57 96.44,229.59 96.74,229.64C97.04,229.69 97.34,229.76 97.64,229.86C97.95,229.97 98.26,230.1 98.55,230.27C98.86,230.45 99.16,230.66 99.45,230.9C99.76,231.16 100.07,231.46 100.36,231.77C100.67,232.1 100.97,232.47 101.26,232.84C101.57,233.23 101.86,233.65 102.16,234.06C102.46,234.48 102.77,234.92 103.07,235.34C103.37,235.76 103.66,236.18 103.97,236.57C104.26,236.94 104.56,237.3 104.88,237.6C105.17,237.87 105.46,238.14 105.78,238.31C106.07,238.46 106.38,238.59 106.68,238.6C106.98,238.61 107.31,238.52 107.59,238.34C107.93,238.13 108.22,237.74 108.49,237.31C108.84,236.77 109.12,236.04 109.4,235.29C109.73,234.41 110.01,233.39 110.3,232.36C110.62,231.23 110.92,230.01 111.21,228.77C111.52,227.45 111.82,226.07 112.11,224.67C112.42,223.2 112.71,221.68 113.01,220.14C113.32,218.54 113.62,216.91 113.92,215.25C114.23,213.54 114.52,211.8 114.82,210.05C115.13,208.26 115.43,206.43 115.73,204.6C116.03,202.74 116.33,200.87 116.63,198.99C116.93,197.1 117.23,195.2 117.53,193.3C117.83,191.41 118.14,189.5 118.44,187.62C118.74,185.75 119.04,183.88 119.34,182.04C119.64,180.23 119.94,178.43 120.25,176.66C120.55,174.94 120.84,173.23 121.15,171.56C121.45,169.95 121.74,168.36 122.05,166.81C122.35,165.33 122.65,163.88 122.96,162.48C123.25,161.15 123.55,159.85 123.86,158.6C124.15,157.43 124.46,156.3 124.77,155.22C125.06,154.22 125.35,153.25 125.67,152.34C125.96,151.5 126.26,150.69 126.58,149.94C126.87,149.25 127.17,148.6 127.48,148C127.77,147.45 128.07,146.93 128.38,146.45C128.67,146.01 128.98,145.59 129.29,145.21C129.58,144.85 129.88,144.52 130.19,144.21C130.48,143.91 130.79,143.64 131.1,143.39C131.39,143.16 131.69,142.93 132,142.76C132.29,142.6 132.59,142.45 132.9,142.37C133.2,142.3 133.51,142.26 133.81,142.3C134.12,142.35 134.43,142.47 134.71,142.65C135.03,142.85 135.34,143.16 135.62,143.5C135.95,143.89 136.24,144.39 136.52,144.91C136.84,145.51 137.13,146.19 137.42,146.91C137.74,147.72 138.04,148.6 138.33,149.53C138.65,150.55 138.94,151.65 139.23,152.78C139.54,154.01 139.85,155.31 140.14,156.64C140.45,158.06 140.75,159.55 141.04,161.06C141.35,162.66 141.65,164.31 141.95,165.99C142.26,167.74 142.55,169.54 142.85,171.36C143.15,173.23 143.45,175.14 143.75,177.06C144.05,179.01 144.36,180.99 144.66,182.97C144.96,184.97 145.26,186.99 145.56,189C145.86,191.01 146.17,193.03 146.47,195.03C146.77,197.02 147.07,199.01 147.37,200.97C147.67,202.9 147.96,204.83 148.27,206.71C148.57,208.54 148.87,210.36 149.18,212.12C149.48,213.81 149.77,215.48 150.08,217.07C150.37,218.56 150.67,220.03 150.99,221.4C151.28,222.65 151.57,223.87 151.89,224.98C152.17,225.96 152.46,226.9 152.79,227.71C153.07,228.39 153.36,229.04 153.7,229.52C153.97,229.91 154.27,230.28 154.6,230.45C154.88,230.6 155.22,230.66 155.51,230.6C155.82,230.54 156.14,230.33 156.41,230.05C156.77,229.67 157.06,229.08 157.32,228.4C157.7,227.42 157.93,225.94 158.22,224.66C158.53,223.32 158.81,221.9 159.12,220.55C159.42,219.25 159.72,217.95 160.03,216.71C160.32,215.54 160.61,214.39 160.93,213.31C161.22,212.31 161.52,211.35 161.84,210.46C162.13,209.67 162.41,208.9 162.74,208.23C163.02,207.65 163.31,207.09 163.64,206.67C163.92,206.32 164.22,205.98 164.55,205.81C164.83,205.67 165.16,205.59 165.45,205.64C165.76,205.69 166.08,205.9 166.36,206.13C166.69,206.39 166.97,206.78 167.26,207.15C167.57,207.55 167.86,208.01 168.16,208.46C168.47,208.92 168.71,209.73 169.07,209.86C169.34,209.96 169.69,209.75 169.97,209.57C170.3,209.35 170.56,208.84 170.88,208.55C171.17,208.29 171.46,208.04 171.78,207.89C172.07,207.76 172.38,207.67 172.68,207.68C172.98,207.69 173.3,207.78 173.59,207.93C173.91,208.1 174.21,208.38 174.49,208.69C174.82,209.04 175.11,209.49 175.4,209.96C175.72,210.49 176.01,211.1 176.3,211.74C176.62,212.45 176.92,213.22 177.21,214.02C177.53,214.89 177.82,215.82 178.11,216.77C178.42,217.79 178.72,218.86 179.01,219.96C179.32,221.12 179.62,222.32 179.92,223.54C180.23,224.82 180.52,226.13 180.82,227.47C181.13,228.86 181.43,230.27 181.73,231.71C182.04,233.19 182.33,234.7 182.63,236.22C182.93,237.78 183.23,239.36 183.53,240.95C183.83,242.56 184.14,244.2 184.44,245.83C184.74,247.47 185.04,249.13 185.34,250.77C185.64,252.4 185.94,254.04 186.25,255.64C186.55,257.2 186.84,258.77 187.15,260.27C187.44,261.7 187.73,263.13 188.05,264.44C188.34,265.63 188.62,266.83 188.96,267.82C189.24,268.63 189.47,269.51 189.86,269.98C190.12,270.3 190.47,270.6 190.77,270.59C191.08,270.58 191.39,270.18 191.67,269.87C192.01,269.48 192.29,268.91 192.58,268.38C192.89,267.81 193.18,267.18 193.48,266.58C193.78,265.97 194.07,265.33 194.38,264.74C194.68,264.17 194.97,263.6 195.29,263.09C195.58,262.62 195.87,262.16 196.19,261.78C196.48,261.45 196.78,261.12 197.1,260.92C197.38,260.74 197.7,260.61 198,260.59C198.3,260.57 198.61,260.66 198.9,260.79C199.22,260.93 199.52,261.19 199.81,261.46C200.13,261.76 200.42,262.15 200.71,262.55C201.03,263 201.32,263.56 201.62,264.06C201.92,264.56 202.22,265.05 202.52,265.54C202.82,266.02 203.13,266.45 203.42,266.96C203.74,267.53 204.04,268.17 204.33,268.82C204.64,269.52 204.93,270.29 205.23,271.04C205.54,271.82 205.83,272.65 206.14,273.41C206.43,274.13 206.72,274.87 207.04,275.51C207.33,276.08 207.64,276.59 207.95,277.08C208.24,277.54 208.55,277.96 208.85,278.39C209.15,278.81 209.44,279.26 209.75,279.64C210.04,280 210.35,280.34 210.66,280.63C210.95,280.9 211.26,281.1 211.56,281.34C211.86,281.59 212.17,281.83 212.47,282.1C212.78,282.38 213.07,282.68 213.37,282.98C213.67,283.29 213.94,283.74 214.27,283.92C214.55,284.07 214.89,284.15 215.18,284.08C215.5,284.01 215.79,283.66 216.08,283.42C216.39,283.16 216.7,282.89 216.99,282.58C217.3,282.25 217.6,281.88 217.89,281.48C218.2,281.04 218.5,280.56 218.79,280.05C219.11,279.48 219.41,278.86 219.7,278.21C220.02,277.5 220.31,276.73 220.6,275.96C220.91,275.15 221.21,274.29 221.51,273.46C221.81,272.63 222.1,271.78 222.41,270.96C222.71,270.17 223.01,269.38 223.32,268.62C223.61,267.9 223.91,267.2 224.22,266.53C224.51,265.9 224.81,265.29 225.12,264.71C225.41,264.17 225.72,263.65 226.03,263.16C226.32,262.7 226.62,262.27 226.93,261.86C227.22,261.47 227.53,261.11 227.84,260.76C228.14,260.42 228.44,260.11 228.74,259.77C229.04,259.43 229.35,259.11 229.64,258.73C229.96,258.31 230.26,257.82 230.55,257.33C230.86,256.81 231.15,256.24 231.45,255.69C231.75,255.15 232.06,254.6 232.36,254.06C232.66,253.53 232.97,253.02 233.26,252.47C233.57,251.9 233.87,251.34 234.16,250.71C234.48,250.01 234.78,249.24 235.07,248.45C235.38,247.61 235.67,246.7 235.97,245.81C236.27,244.9 236.58,243.98 236.88,243.06C237.18,242.14 237.48,241.22 237.78,240.31C238.08,239.4 238.38,238.5 238.68,237.6C238.98,236.7 239.29,235.81 239.59,234.92C239.89,234.04 240.19,233.16 240.49,232.28C240.79,231.4 241.1,230.53 241.4,229.65C241.7,228.76 242,227.88 242.3,226.98C242.6,226.07 242.91,225.15 243.21,224.21C243.52,223.24 243.82,222.27 244.11,221.26C244.42,220.2 244.72,219.12 245.01,217.99C245.32,216.79 245.63,215.55 245.92,214.24C246.24,212.82 246.53,211.34 246.82,209.79C247.14,208.09 247.44,206.29 247.73,204.44C248.04,202.45 248.34,200.35 248.63,198.23C248.94,196 249.23,193.69 249.53,191.38C249.84,189.01 250.14,186.6 250.44,184.19C250.74,181.76 251.04,179.3 251.34,176.87C251.64,174.45 251.95,172.02 252.25,169.63C252.55,167.27 252.85,164.92 253.15,162.61C253.45,160.36 253.74,158.13 254.05,155.94C254.35,153.82 254.65,151.72 254.96,149.67C255.26,147.7 255.55,145.77 255.86,143.88C256.16,142.07 256.46,140.3 256.77,138.58C257.06,136.94 257.36,135.34 257.67,133.79C257.96,132.32 258.27,130.89 258.58,129.52C258.87,128.24 259.17,126.99 259.48,125.82C259.77,124.74 260.06,123.69 260.38,122.74C260.67,121.89 260.96,121.07 261.29,120.36C261.57,119.76 261.85,119.17 262.19,118.74C262.47,118.39 262.77,118.04 263.1,117.91C263.38,117.8 263.72,117.78 264,117.88C264.32,117.99 264.62,118.32 264.9,118.65C265.24,119.05 265.53,119.62 265.81,120.19C266.14,120.86 266.42,121.64 266.71,122.44C267.03,123.34 267.33,124.33 267.62,125.34C267.94,126.44 268.23,127.62 268.52,128.82C268.83,130.1 269.13,131.44 269.42,132.8C269.73,134.23 270.03,135.71 270.33,137.22C270.64,138.79 270.93,140.39 271.23,142.03C271.54,143.73 271.84,145.47 272.14,147.24C272.45,149.07 272.74,150.94 273.04,152.83C273.35,154.79 273.65,156.78 273.95,158.8C274.26,160.88 274.55,163 274.85,165.14C275.15,167.33 275.45,169.57 275.75,171.81C276.05,174.1 276.36,176.42 276.66,178.74C276.96,181.08 277.26,183.45 277.56,185.8C277.86,188.15 278.17,190.52 278.47,192.85C278.77,195.15 279.06,197.46 279.37,199.7C279.67,201.87 279.96,204.05 280.27,206.1C280.56,208.02 280.86,209.92 281.18,211.64C281.46,213.14 281.74,214.59 282.08,215.84C282.36,216.88 282.65,217.84 282.99,218.64C283.26,219.28 283.53,219.92 283.89,220.29C284.16,220.56 284.5,220.83 284.79,220.8C285.1,220.77 285.44,220.42 285.7,220.04C286.09,219.47 286.33,218.49 286.6,217.5C286.96,216.17 287.22,214.35 287.51,212.71C287.82,210.98 288.11,209.19 288.41,207.39C288.72,205.54 289.02,203.65 289.32,201.76C289.62,199.84 289.92,197.9 290.22,195.95C290.52,193.97 290.82,191.99 291.12,189.98C291.42,187.94 291.73,185.89 292.03,183.8C292.34,181.66 292.63,179.48 292.93,177.3C293.23,175.1 293.54,172.85 293.84,170.65C294.14,168.49 294.43,166.32 294.74,164.23C295.03,162.22 295.33,160.23 295.64,158.33C295.93,156.54 296.24,154.78 296.55,153.11C296.84,151.57 297.13,150.06 297.45,148.66C297.74,147.38 298.04,146.15 298.36,145.03C298.65,144.04 298.93,143.08 299.26,142.25C299.54,141.54 299.82,140.85 300.16,140.31C300.44,139.87 300.73,139.43 301.07,139.19C301.35,138.99 301.67,138.85 301.97,138.85C302.27,138.85 302.6,139.01 302.88,139.2C303.21,139.42 303.5,139.79 303.78,140.15C304.1,140.56 304.39,141.07 304.68,141.58C305,142.14 305.3,142.76 305.59,143.39C305.9,144.06 306.2,144.77 306.49,145.5C306.8,146.26 307.1,147.06 307.4,147.87C307.71,148.71 308,149.6 308.3,150.46C308.6,151.32 308.9,152.21 309.21,153.05C309.5,153.85 309.81,154.6 310.11,155.38C310.41,156.18 310.72,156.96 311.01,157.79C311.32,158.67 311.63,159.57 311.92,160.51C312.23,161.5 312.53,162.54 312.82,163.6C313.13,164.72 313.43,165.87 313.73,167.05C314.04,168.29 314.34,169.56 314.63,170.86C314.94,172.21 315.23,173.61 315.53,175.02C315.84,176.49 316.14,177.99 316.44,179.51C316.75,181.08 317.04,182.69 317.34,184.31C317.65,185.98 317.95,187.67 318.25,189.38C318.56,191.14 318.85,192.92 319.15,194.72C319.45,196.55 319.75,198.4 320.05,200.27C320.35,202.17 320.66,204.09 320.96,206.02C321.26,207.97 321.56,209.94 321.86,211.92C322.16,213.91 322.47,215.92 322.77,217.93C323.07,219.95 323.37,221.98 323.67,224.01C323.97,226.04 324.28,228.08 324.58,230.11C324.88,232.13 325.18,234.15 325.48,236.16C325.78,238.16 326.08,240.15 326.38,242.13C326.68,244.08 326.99,246.03 327.29,247.95C327.59,249.84 327.89,251.72 328.19,253.57C328.49,255.39 328.79,257.19 329.1,258.97C329.4,260.71 329.7,262.43 330,264.12C330.3,265.76 330.59,267.38 330.9,268.96C331.2,270.47 331.49,271.99 331.81,273.39C332.1,274.66 332.37,275.96 332.71,277C332.99,277.84 333.28,278.59 333.62,279.2C333.89,279.69 334.21,280.05 334.52,280.44C334.81,280.81 335.12,281.14 335.42,281.49C335.72,281.84 336.03,282.18 336.33,282.52C336.63,282.87 336.93,283.21 337.23,283.56C337.53,283.91 337.84,284.26 338.14,284.6C338.44,284.94 338.73,285.28 339.04,285.6C339.34,285.91 339.64,286.22 339.95,286.5C340.25,286.77 340.55,287.03 340.85,287.27C341.15,287.5 341.45,287.72 341.75,287.93C342.05,288.13 342.35,288.33 342.66,288.5C342.96,288.67 343.26,288.82 343.56,288.96C343.86,289.1 344.17,289.23 344.47,289.35C344.77,289.47 345.07,289.58 345.37,289.68C345.67,289.78 345.97,289.87 346.27,289.95C346.57,290.03 346.88,290.11 347.18,290.15C347.48,290.19 347.79,290.26 348.08,290.21C348.39,290.15 348.7,289.99 348.99,289.8C349.31,289.59 349.59,289.26 349.89,288.98C350.19,288.7 350.48,288.38 350.79,288.11C351.09,287.85 351.39,287.59 351.7,287.37C351.99,287.17 352.29,286.98 352.6,286.84C352.9,286.71 353.2,286.61 353.51,286.56C353.81,286.51 354.11,286.5 354.41,286.54C354.72,286.58 355.02,286.67 355.32,286.78C355.63,286.9 355.93,287.06 356.22,287.23C356.53,287.41 356.82,287.62 357.12,287.83C357.43,288.05 357.73,288.29 358.03,288.53C358.33,288.77 358.63,289.02 358.93,289.25C359.23,289.48 359.53,289.71 359.84,289.92C360.14,290.12 360.43,290.34 360.74,290.47C361.03,290.59 361.36,290.75 361.64,290.67C361.97,290.58 362.27,290.17 362.55,289.83C362.88,289.44 363.16,288.94 363.45,288.43C363.77,287.86 364.07,287.25 364.36,286.58C364.68,285.83 364.98,285 365.26,284.13C365.58,283.15 365.87,282.07 366.16,280.96C366.48,279.75 366.78,278.46 367.07,277.16C367.38,275.79 367.67,274.38 367.97,272.95C368.28,271.48 368.58,269.97 368.88,268.45C369.19,266.9 369.48,265.32 369.78,263.74C370.08,262.13 370.38,260.5 370.68,258.87C370.98,257.22 371.29,255.56 371.59,253.89C371.89,252.21 372.19,250.52 372.49,248.83C372.79,247.14 373.1,245.45 373.4,243.77C373.7,242.1 374,240.42 374.3,238.77C374.6,237.14 374.91,235.51 375.21,233.91C375.51,232.34 375.81,230.78 376.11,229.25C376.41,227.76 376.7,226.29 377.01,224.85C377.31,223.46 377.61,222.1 377.92,220.77C378.21,219.51 378.51,218.26 378.82,217.07C379.11,215.94 379.42,214.83 379.73,213.78C380.02,212.8 380.32,211.84 380.63,210.94C380.92,210.11 381.21,209.31 381.53,208.57C381.82,207.9 382.12,207.26 382.44,206.69C382.73,206.19 383.02,205.71 383.34,205.32C383.62,204.98 383.93,204.66 384.25,204.45C384.53,204.26 384.84,204.12 385.15,204.07C385.44,204.02 385.76,204.06 386.05,204.14C386.36,204.22 386.66,204.4 386.96,204.56C387.27,204.73 387.56,204.95 387.86,205.14C388.16,205.33 388.47,205.52 388.77,205.71C389.07,205.89 389.37,206.07 389.67,206.25C389.97,206.44 390.28,206.62 390.58,206.82C390.88,207.02 391.18,207.23 391.48,207.45C391.78,207.68 392.08,207.91 392.38,208.17C392.69,208.44 392.99,208.72 393.29,209.03C393.6,209.35 393.9,209.69 394.19,210.05C394.5,210.43 394.81,210.85 395.1,211.28C395.41,211.73 395.71,212.21 396,212.71C396.31,213.23 396.61,213.78 396.9,214.35C397.21,214.94 397.52,215.55 397.81,216.19C398.12,216.86 398.41,217.55 398.71,218.26C399.02,219 399.32,219.75 399.62,220.53C399.93,221.34 400.22,222.17 400.52,223.02C400.83,223.9 401.12,224.8 401.42,225.71C401.73,226.65 402.03,227.61 402.33,228.58C402.64,229.58 402.93,230.6 403.23,231.63C403.54,232.68 403.84,233.75 404.14,234.83C404.44,235.93 404.74,237.04 405.04,238.16C405.34,239.29 405.65,240.43 405.95,241.58C406.25,242.74 406.55,243.9 406.85,245.07C407.15,246.24 407.45,247.42 407.75,248.6C408.05,249.77 408.36,250.95 408.66,252.12C408.96,253.28 409.26,254.45 409.56,255.6C409.86,256.74 410.17,257.88 410.47,259.01C410.77,260.12 411.07,261.22 411.37,262.31C411.67,263.37 411.96,264.43 412.27,265.46C412.57,266.46 412.87,267.45 413.18,268.41C413.48,269.33 413.77,270.25 414.08,271.12C414.37,271.95 414.68,272.77 414.99,273.54C415.28,274.26 415.58,274.96 415.89,275.61C416.18,276.21 416.47,276.8 416.79,277.31C417.08,277.77 417.37,278.22 417.7,278.56C417.98,278.85 418.28,279.13 418.6,279.27C418.89,279.39 419.21,279.42 419.51,279.39C419.81,279.36 420.12,279.23 420.41,279.09C420.72,278.95 421.02,278.74 421.32,278.54C421.63,278.34 421.92,278.11 422.22,277.88C422.52,277.65 422.82,277.41 423.12,277.18C423.42,276.95 423.72,276.73 424.03,276.52C424.33,276.32 424.62,276.12 424.93,275.95C425.23,275.78 425.53,275.62 425.84,275.5C426.14,275.38 426.44,275.28 426.74,275.22C427.04,275.16 427.34,275.12 427.64,275.12C427.94,275.12 428.25,275.16 428.55,275.22C428.85,275.28 429.15,275.38 429.45,275.5C429.76,275.63 430.06,275.79 430.36,275.98C430.67,276.17 430.97,276.4 431.26,276.64C431.57,276.89 431.87,277.17 432.16,277.46C432.47,277.77 432.77,278.1 433.07,278.44C433.38,278.79 433.67,279.16 433.97,279.53C434.27,279.91 434.58,280.3 434.88,280.69C435.18,281.08 435.48,281.48 435.78,281.86C436.08,282.23 436.37,282.61 436.68,282.95C436.98,283.28 437.28,283.59 437.59,283.87C437.88,284.13 438.18,284.38 438.49,284.59C438.79,284.79 439.09,284.97 439.4,285.12C439.69,285.26 439.99,285.37 440.3,285.45C440.6,285.52 440.91,285.56 441.21,285.57C441.51,285.58 441.81,285.55 442.11,285.51C442.41,285.47 442.71,285.39 443.01,285.31C443.31,285.22 443.62,285.12 443.92,285C444.22,284.88 444.52,284.74 444.82,284.6C445.12,284.46 445.43,284.3 445.73,284.14C446.03,283.98 446.33,283.8 446.63,283.62C446.93,283.44 447.23,283.25 447.53,283.06C447.83,282.87 448.14,282.66 448.44,282.47C448.74,282.28 449.04,282.08 449.34,281.9C449.64,281.72 449.95,281.54 450.25,281.37C450.55,281.21 450.85,281.05 451.15,280.91C451.45,280.78 451.75,280.65 452.05,280.55C452.35,280.45 452.66,280.37 452.96,280.31C453.26,280.25 453.56,280.2 453.86,280.18C454.16,280.16 454.47,280.16 454.77,280.18C455.07,280.2 455.37,280.24 455.67,280.3C455.97,280.36 456.28,280.43 456.58,280.52C456.88,280.61 457.18,280.72 457.48,280.83C457.78,280.95 458.08,281.08 458.38,281.21C458.68,281.34 458.99,281.49 459.29,281.63C459.59,281.77 459.89,281.91 460.19,282.04C460.49,282.17 460.8,282.31 461.1,282.42Q461.4,282.53 462,282.72" style="vector-effect: non-scaling-stroke; fill: none; stroke: rgb(0, 176, 246); stroke-opacity: 1; stroke-width: 2px; opacity: 1;"/></g><g class="points"/><g class="text"/></g><g class="trace scatter trace519a23" style="stroke-miterlimit: 2; opacity: 1;"><g class="fills"/><g class="errorbars"/><g class="lines"><path class="js-line" d="M0,231.23Q0.63,229.17 0.9,227.87C1.26,226.14 1.53,223.94 1.81,221.76C2.14,219.27 2.42,216.5 2.71,213.72C3.02,210.72 3.33,207.56 3.62,204.36C3.93,201 4.22,197.53 4.52,194.04C4.82,190.44 5.12,186.76 5.42,183.06C5.72,179.28 6.03,175.45 6.33,171.61C6.63,167.72 6.93,163.78 7.23,159.85C7.53,155.89 7.84,151.91 8.14,147.94C8.44,143.96 8.74,139.97 9.04,135.99C9.34,132.03 9.65,128.07 9.95,124.13C10.25,120.22 10.55,116.33 10.85,112.46C11.15,108.64 11.45,104.84 11.75,101.08C12.05,97.38 12.35,93.71 12.66,90.09C12.96,86.55 13.25,83.04 13.56,79.59C13.86,76.23 14.16,72.91 14.47,69.66C14.77,66.51 15.06,63.41 15.37,60.38C15.66,57.47 15.96,54.6 16.27,51.82C16.56,49.17 16.87,46.58 17.18,44.07C17.47,41.7 17.77,39.39 18.08,37.17C18.37,35.1 18.67,33.09 18.99,31.18C19.28,29.43 19.57,27.74 19.89,26.16C20.18,24.74 20.46,23.37 20.79,22.13C21.07,21.05 21.36,20.02 21.7,19.14C21.98,18.41 22.25,17.69 22.6,17.19C22.87,16.81 23.18,16.4 23.51,16.31C23.79,16.23 24.14,16.32 24.41,16.5C24.76,16.73 25.05,17.24 25.32,17.74C25.67,18.37 25.94,19.18 26.22,20.02C26.55,21.01 26.83,22.13 27.12,23.3C27.44,24.62 27.74,26.07 28.03,27.56C28.35,29.19 28.64,30.93 28.93,32.72C29.24,34.65 29.55,36.67 29.84,38.73C30.15,40.91 30.45,43.18 30.74,45.48C31.05,47.89 31.34,50.38 31.64,52.89C31.95,55.49 32.25,58.15 32.55,60.82C32.86,63.55 33.15,66.34 33.45,69.12C33.75,71.94 34.06,74.79 34.36,77.63C34.66,80.47 34.96,83.34 35.26,86.17C35.56,88.98 35.86,91.79 36.16,94.56C36.46,97.29 36.77,100 37.07,102.68C37.37,105.3 37.66,107.9 37.97,110.45C38.27,112.94 38.57,115.39 38.88,117.81C39.18,120.16 39.48,122.48 39.78,124.76C40.08,126.98 40.37,129.17 40.68,131.33C40.98,133.43 41.28,135.49 41.59,137.53C41.89,139.51 42.18,141.47 42.49,143.4C42.79,145.28 43.09,147.13 43.4,148.95C43.7,150.72 43.99,152.48 44.3,154.2C44.6,155.87 44.9,157.51 45.21,159.12C45.51,160.67 45.8,162.21 46.11,163.7C46.4,165.13 46.7,166.53 47.01,167.88C47.3,169.16 47.61,170.42 47.92,171.62C48.21,172.74 48.51,173.83 48.82,174.86C49.11,175.81 49.41,176.73 49.73,177.58C50.02,178.35 50.31,179.09 50.63,179.77C50.92,180.38 51.21,180.95 51.53,181.46C51.82,181.92 52.12,182.33 52.44,182.7C52.73,183.03 53.03,183.33 53.34,183.59C53.63,183.83 53.94,184.04 54.25,184.23C54.55,184.42 54.85,184.57 55.15,184.73C55.45,184.89 55.75,185.03 56.05,185.18C56.35,185.34 56.66,185.49 56.96,185.66C57.26,185.84 57.56,186.03 57.86,186.23C58.17,186.44 58.47,186.67 58.77,186.91C59.08,187.16 59.37,187.42 59.67,187.69C59.98,187.96 60.28,188.25 60.58,188.54C60.88,188.83 61.18,189.13 61.48,189.43C61.78,189.72 62.08,190.02 62.38,190.31C62.68,190.6 62.99,190.89 63.29,191.17C63.59,191.45 63.89,191.73 64.19,192C64.49,192.26 64.79,192.52 65.1,192.77C65.4,193.01 65.7,193.24 66,193.47C66.3,193.7 66.6,193.91 66.9,194.14C67.2,194.37 67.51,194.59 67.81,194.83C68.11,195.08 68.41,195.33 68.71,195.6C69.02,195.88 69.32,196.16 69.62,196.47C69.93,196.79 70.23,197.12 70.52,197.48C70.83,197.85 71.13,198.25 71.42,198.66C71.73,199.1 72.04,199.56 72.33,200.04C72.64,200.55 72.94,201.08 73.23,201.63C73.54,202.21 73.84,202.82 74.14,203.44C74.45,204.09 74.74,204.76 75.04,205.44C75.35,206.15 75.65,206.88 75.95,207.62C76.26,208.37 76.55,209.15 76.85,209.92C77.15,210.7 77.45,211.5 77.75,212.29C78.05,213.08 78.36,213.87 78.66,214.66C78.96,215.44 79.25,216.22 79.56,216.98C79.86,217.72 80.16,218.46 80.47,219.17C80.77,219.85 81.06,220.53 81.37,221.17C81.66,221.77 81.96,222.36 82.27,222.9C82.56,223.41 82.86,223.9 83.18,224.34C83.47,224.74 83.76,225.12 84.08,225.43C84.37,225.71 84.67,225.96 84.99,226.14C85.28,226.3 85.58,226.43 85.89,226.49C86.18,226.55 86.49,226.54 86.79,226.5C87.1,226.46 87.4,226.35 87.7,226.23C88.01,226.11 88.3,225.94 88.6,225.78C88.91,225.61 89.21,225.42 89.51,225.23C89.81,225.04 90.11,224.84 90.41,224.65C90.71,224.47 91.02,224.29 91.32,224.12C91.62,223.96 91.92,223.79 92.22,223.66C92.52,223.53 92.82,223.41 93.12,223.32C93.42,223.23 93.73,223.16 94.03,223.11C94.33,223.06 94.63,223.04 94.93,223.03C95.23,223.02 95.54,223.03 95.84,223.07C96.14,223.11 96.44,223.17 96.74,223.25C97.04,223.33 97.34,223.43 97.64,223.54C97.95,223.66 98.25,223.8 98.55,223.95C98.85,224.11 99.15,224.28 99.45,224.47C99.76,224.66 100.06,224.87 100.36,225.09C100.66,225.31 100.96,225.55 101.26,225.8C101.56,226.05 101.86,226.32 102.16,226.59C102.47,226.87 102.77,227.16 103.07,227.45C103.37,227.74 103.67,228.04 103.97,228.34C104.27,228.64 104.58,228.96 104.88,229.26C105.18,229.56 105.48,229.86 105.78,230.16C106.08,230.45 106.38,230.75 106.68,231.03C106.98,231.31 107.28,231.58 107.59,231.83C107.89,232.08 108.18,232.32 108.49,232.53C108.79,232.74 109.09,232.93 109.4,233.09C109.7,233.24 109.99,233.38 110.3,233.48C110.6,233.57 110.91,233.64 111.21,233.66C111.51,233.68 111.82,233.66 112.11,233.59C112.42,233.52 112.72,233.39 113.01,233.23C113.32,233.05 113.63,232.81 113.92,232.55C114.24,232.26 114.53,231.92 114.82,231.55C115.14,231.14 115.44,230.68 115.73,230.2C116.04,229.68 116.34,229.11 116.63,228.52C116.94,227.88 117.24,227.2 117.53,226.5C117.84,225.75 118.15,224.97 118.44,224.16C118.75,223.31 119.05,222.42 119.34,221.51C119.65,220.56 119.95,219.57 120.25,218.57C120.56,217.53 120.85,216.45 121.15,215.37C121.45,214.26 121.75,213.13 122.05,211.99C122.35,210.83 122.66,209.64 122.96,208.46C123.26,207.27 123.56,206.06 123.86,204.86C124.16,203.65 124.47,202.43 124.77,201.22C125.07,200 125.37,198.79 125.67,197.57C125.97,196.36 126.28,195.14 126.58,193.93C126.88,192.73 127.18,191.53 127.48,190.33C127.78,189.14 128.08,187.95 128.38,186.77C128.68,185.61 128.98,184.46 129.29,183.32C129.59,182.21 129.88,181.11 130.19,180.03C130.49,178.99 130.79,177.96 131.1,176.97C131.4,176.02 131.69,175.08 132,174.19C132.29,173.35 132.59,172.52 132.9,171.75C133.19,171.03 133.49,170.33 133.81,169.69C134.1,169.11 134.39,168.54 134.71,168.05C135,167.61 135.3,167.19 135.62,166.86C135.9,166.57 136.2,166.31 136.52,166.15C136.81,166.01 137.12,165.91 137.42,165.92C137.72,165.93 138.04,166.03 138.33,166.19C138.65,166.36 138.95,166.65 139.23,166.96C139.56,167.31 139.85,167.76 140.14,168.23C140.46,168.75 140.75,169.35 141.04,169.97C141.36,170.66 141.66,171.41 141.95,172.18C142.26,173.01 142.56,173.9 142.85,174.81C143.16,175.78 143.46,176.79 143.75,177.83C144.06,178.92 144.36,180.05 144.66,181.19C144.97,182.38 145.26,183.59 145.56,184.82C145.87,186.08 146.17,187.37 146.47,188.66C146.77,189.97 147.07,191.3 147.37,192.62C147.67,193.94 147.97,195.28 148.27,196.59C148.57,197.88 148.87,199.18 149.18,200.44C149.48,201.66 149.77,202.87 150.08,204.02C150.37,205.1 150.67,206.17 150.99,207.15C151.28,208.02 151.56,208.89 151.89,209.61C152.17,210.22 152.44,210.82 152.79,211.22C153.06,211.54 153.38,211.83 153.7,211.92C153.99,212 154.32,211.92 154.6,211.8C154.92,211.66 155.22,211.35 155.51,211.06C155.83,210.73 156.12,210.31 156.41,209.9C156.72,209.46 157.02,208.99 157.32,208.51C157.63,208.02 157.92,207.51 158.22,207.01C158.52,206.52 158.81,206.02 159.12,205.54C159.42,205.08 159.72,204.62 160.03,204.19C160.32,203.78 160.62,203.38 160.93,203.03C161.22,202.7 161.53,202.39 161.84,202.13C162.13,201.89 162.43,201.67 162.74,201.52C163.03,201.38 163.34,201.27 163.64,201.24C163.94,201.21 164.26,201.23 164.55,201.31C164.86,201.4 165.16,201.56 165.45,201.76C165.77,201.98 166.07,202.26 166.36,202.58C166.68,202.93 166.97,203.35 167.26,203.79C167.57,204.27 167.87,204.8 168.16,205.36C168.48,205.97 168.78,206.62 169.07,207.3C169.38,208.02 169.67,208.78 169.97,209.55C170.28,210.36 170.58,211.21 170.88,212.04C171.18,212.88 171.46,213.79 171.78,214.58C172.07,215.29 172.36,215.95 172.68,216.58C172.97,217.16 173.29,217.64 173.59,218.2C173.9,218.78 174.19,219.39 174.49,220C174.8,220.62 175.1,221.25 175.4,221.9C175.71,222.58 176.01,223.26 176.3,223.99C176.61,224.77 176.92,225.59 177.21,226.43C177.52,227.33 177.82,228.26 178.11,229.22C178.42,230.23 178.71,231.28 179.01,232.34C179.32,233.45 179.62,234.59 179.92,235.75C180.23,236.94 180.52,238.17 180.82,239.4C181.13,240.67 181.43,241.96 181.73,243.25C182.03,244.56 182.33,245.88 182.63,247.21C182.93,248.55 183.23,249.9 183.53,251.25C183.83,252.59 184.14,253.94 184.44,255.28C184.74,256.61 185.04,257.94 185.34,259.26C185.64,260.56 185.94,261.85 186.25,263.12C186.55,264.35 186.84,265.58 187.15,266.75C187.44,267.87 187.73,268.97 188.05,270C188.34,270.94 188.64,271.87 188.96,272.69C189.24,273.41 189.53,274.11 189.86,274.68C190.14,275.16 190.43,275.62 190.77,275.94C191.05,276.2 191.36,276.43 191.67,276.51C191.96,276.58 192.29,276.54 192.58,276.44C192.89,276.33 193.19,276.1 193.48,275.86C193.8,275.59 194.09,275.24 194.38,274.88C194.69,274.5 194.99,274.06 195.29,273.63C195.6,273.18 195.89,272.7 196.19,272.23C196.49,271.75 196.8,271.26 197.1,270.78C197.4,270.31 197.69,269.83 198,269.39C198.29,268.96 198.59,268.54 198.9,268.16C199.19,267.81 199.49,267.46 199.81,267.18C200.1,266.92 200.4,266.68 200.71,266.51C201,266.35 201.31,266.24 201.62,266.18C201.92,266.13 202.22,266.14 202.52,266.17C202.82,266.2 203.13,266.27 203.42,266.38C203.73,266.49 204.04,266.63 204.33,266.83C204.65,267.05 204.94,267.33 205.23,267.65C205.55,268.01 205.85,268.43 206.14,268.88C206.46,269.38 206.75,269.95 207.04,270.54C207.36,271.18 207.66,271.88 207.95,272.6C208.26,273.37 208.55,274.2 208.85,275.02C209.15,275.87 209.45,276.76 209.75,277.62C210.05,278.48 210.36,279.32 210.66,280.18C210.96,281.04 211.26,281.9 211.56,282.78C211.86,283.67 212.17,284.58 212.47,285.48C212.77,286.39 213.07,287.31 213.37,288.22C213.67,289.11 213.96,290.02 214.27,290.88C214.57,291.71 214.86,292.53 215.18,293.29C215.47,293.98 215.75,294.68 216.08,295.25C216.36,295.73 216.65,296.23 216.99,296.52C217.26,296.75 217.59,296.95 217.89,296.95C218.19,296.95 218.51,296.76 218.79,296.54C219.13,296.27 219.42,295.81 219.7,295.35C220.03,294.8 220.32,294.13 220.6,293.44C220.92,292.65 221.22,291.77 221.51,290.87C221.83,289.89 222.12,288.85 222.41,287.79C222.72,286.68 223.02,285.52 223.32,284.37C223.62,283.21 223.92,282.02 224.22,280.86C224.52,279.71 224.81,278.56 225.12,277.44C225.42,276.35 225.72,275.28 226.03,274.24C226.33,273.24 226.62,272.26 226.93,271.32C227.22,270.43 227.53,269.56 227.84,268.74C228.13,267.97 228.43,267.22 228.74,266.52C229.03,265.87 229.33,265.24 229.64,264.66C229.93,264.12 230.24,263.61 230.55,263.13C230.84,262.67 231.14,262.24 231.45,261.83C231.74,261.45 232.04,261.07 232.36,260.75C232.65,260.46 232.94,260.17 233.26,259.98C233.55,259.81 233.85,259.67 234.16,259.62C234.46,259.58 234.78,259.61 235.07,259.7C235.38,259.8 235.68,260 235.97,260.23C236.29,260.49 236.59,260.83 236.88,261.19C237.2,261.59 237.49,262.07 237.78,262.56C238.09,263.09 238.39,263.68 238.68,264.28C238.99,264.92 239.29,265.59 239.59,266.27C239.9,266.97 240.17,267.73 240.49,268.4C240.78,269.02 241.08,269.61 241.4,270.14C241.69,270.62 241.99,271.05 242.3,271.45C242.59,271.82 242.89,272.19 243.21,272.46C243.5,272.7 243.8,272.91 244.11,273.04C244.4,273.16 244.71,273.24 245.01,273.23C245.31,273.22 245.64,273.15 245.92,272.98C246.25,272.78 246.56,272.44 246.82,272C247.2,271.37 247.45,270.37 247.73,269.41C248.07,268.26 248.34,266.88 248.63,265.54C248.94,264.09 249.23,262.54 249.53,260.99C249.84,259.37 250.14,257.69 250.44,256.01C250.74,254.3 251.04,252.56 251.34,250.82C251.64,249.07 251.95,247.31 252.25,245.56C252.55,243.82 252.85,242.07 253.15,240.35C253.45,238.65 253.74,236.96 254.05,235.29C254.35,233.66 254.65,232.04 254.96,230.46C255.26,228.92 255.55,227.4 255.86,225.92C256.16,224.49 256.46,223.09 256.77,221.72C257.07,220.41 257.36,219.13 257.67,217.89C257.96,216.71 258.27,215.56 258.58,214.44C258.87,213.38 259.17,212.35 259.48,211.36C259.77,210.43 260.07,209.52 260.38,208.66C260.67,207.86 260.97,207.08 261.29,206.35C261.58,205.68 261.87,205.03 262.19,204.45C262.48,203.92 262.78,203.41 263.1,202.98C263.39,202.6 263.68,202.23 264,201.97C264.28,201.74 264.59,201.54 264.9,201.46C265.19,201.38 265.52,201.38 265.81,201.45C266.12,201.53 266.42,201.72 266.71,201.93C267.03,202.17 267.33,202.5 267.62,202.85C267.94,203.24 268.23,203.7 268.52,204.16C268.83,204.66 269.12,205.2 269.42,205.75C269.73,206.32 270.03,206.92 270.33,207.5C270.63,208.08 270.92,208.68 271.23,209.24C271.53,209.78 271.83,210.3 272.14,210.8C272.43,211.27 272.73,211.71 273.04,212.14C273.34,212.55 273.64,212.94 273.95,213.32C274.25,213.69 274.55,214.05 274.85,214.4C275.15,214.74 275.44,215.07 275.75,215.38C276.05,215.68 276.35,215.98 276.66,216.23C276.95,216.47 277.25,216.7 277.56,216.86C277.85,217.01 278.16,217.15 278.47,217.18C278.77,217.21 279.09,217.19 279.37,217.06C279.69,216.91 280,216.62 280.27,216.28C280.62,215.85 280.91,215.25 281.18,214.6C281.53,213.78 281.8,212.78 282.08,211.69C282.42,210.34 282.7,208.72 282.99,207.1C283.31,205.28 283.6,203.28 283.89,201.29C284.2,199.18 284.49,196.99 284.79,194.78C285.1,192.48 285.4,190.13 285.7,187.75C286.01,185.31 286.3,182.81 286.6,180.31C286.9,177.76 287.21,175.17 287.51,172.57C287.81,169.94 288.11,167.29 288.41,164.64C288.71,161.97 289.02,159.29 289.32,156.62C289.62,153.95 289.92,151.28 290.22,148.62C290.52,145.99 290.82,143.35 291.12,140.75C291.42,138.18 291.73,135.62 292.03,133.1C292.33,130.63 292.62,128.18 292.93,125.77C293.23,123.42 293.53,121.1 293.84,118.83C294.14,116.64 294.43,114.48 294.74,112.37C295.03,110.35 295.33,108.37 295.64,106.45C295.93,104.63 296.24,102.84 296.55,101.13C296.84,99.52 297.14,97.96 297.45,96.47C297.74,95.09 298.04,93.76 298.36,92.51C298.65,91.38 298.94,90.29 299.26,89.29C299.54,88.41 299.83,87.56 300.16,86.83C300.44,86.21 300.73,85.61 301.07,85.17C301.35,84.81 301.64,84.45 301.97,84.31C302.25,84.19 302.6,84.16 302.88,84.26C303.2,84.37 303.51,84.69 303.78,85.02C304.12,85.43 304.4,85.99 304.68,86.58C305.01,87.27 305.3,88.09 305.59,88.93C305.91,89.89 306.2,90.95 306.49,92.04C306.81,93.25 307.11,94.54 307.4,95.88C307.71,97.32 308.01,98.85 308.3,100.41C308.61,102.08 308.92,103.81 309.21,105.59C309.52,107.46 309.82,109.4 310.11,111.37C310.42,113.43 310.71,115.54 311.01,117.69C311.32,119.91 311.62,122.19 311.92,124.49C312.23,126.86 312.52,129.27 312.82,131.7C313.13,134.19 313.43,136.72 313.73,139.27C314.03,141.86 314.33,144.48 314.63,147.11C314.93,149.78 315.23,152.47 315.53,155.17C315.83,157.9 316.14,160.65 316.44,163.4C316.74,166.17 317.04,168.95 317.34,171.73C317.64,174.53 317.95,177.33 318.25,180.14C318.55,182.95 318.85,185.76 319.15,188.57C319.45,191.38 319.75,194.19 320.05,197C320.35,199.8 320.66,202.6 320.96,205.39C321.26,208.17 321.56,210.95 321.86,213.71C322.16,216.46 322.47,219.2 322.77,221.93C323.07,224.63 323.37,227.33 323.67,230C323.97,232.64 324.28,235.27 324.58,237.87C324.88,240.43 325.18,242.97 325.48,245.47C325.78,247.9 326.07,250.31 326.38,252.65C326.68,254.89 326.98,257.11 327.29,259.23C327.58,261.2 327.87,263.14 328.19,264.95C328.48,266.6 328.78,268.21 329.1,269.67C329.38,270.96 329.63,272.32 330,273.28C330.26,273.97 330.54,274.6 330.9,274.99C331.17,275.28 331.5,275.53 331.81,275.55C332.11,275.57 332.43,275.33 332.71,275.12C333.04,274.88 333.32,274.48 333.62,274.16C333.92,273.83 334.21,273.48 334.52,273.17C334.81,272.87 335.11,272.58 335.42,272.34C335.71,272.11 336.02,271.9 336.33,271.76C336.62,271.63 336.93,271.53 337.23,271.49C337.53,271.45 337.84,271.46 338.14,271.52C338.45,271.58 338.75,271.71 339.04,271.86C339.35,272.03 339.66,272.25 339.95,272.5C340.26,272.77 340.56,273.09 340.85,273.42C341.16,273.78 341.46,274.17 341.75,274.58C342.06,275.01 342.36,275.47 342.66,275.95C342.97,276.45 343.26,276.97 343.56,277.51C343.87,278.07 344.17,278.66 344.47,279.25C344.78,279.86 345.07,280.49 345.37,281.13C345.67,281.78 345.97,282.45 346.27,283.12C346.57,283.79 346.88,284.47 347.18,285.14C347.48,285.79 347.77,286.46 348.08,287.08C348.37,287.67 348.68,288.25 348.99,288.8C349.28,289.32 349.59,289.81 349.89,290.3C350.19,290.77 350.49,291.23 350.79,291.69C351.09,292.15 351.4,292.6 351.7,293.05C352,293.49 352.29,293.94 352.6,294.37C352.9,294.78 353.2,295.21 353.51,295.57C353.8,295.91 354.1,296.22 354.41,296.49C354.7,296.74 355.01,296.96 355.32,297.12C355.61,297.27 355.92,297.38 356.22,297.42C356.52,297.46 356.82,297.45 357.12,297.39C357.43,297.33 357.74,297.21 358.03,297.06C358.34,296.91 358.63,296.69 358.93,296.48C359.24,296.27 359.54,296.03 359.84,295.8C360.14,295.56 360.47,295.39 360.74,295.07C361.08,294.66 361.36,294.06 361.64,293.48C361.96,292.82 362.26,292.08 362.55,291.31C362.87,290.46 363.15,289.49 363.45,288.58C363.75,287.67 364.06,286.76 364.36,285.85C364.66,284.93 364.96,284.01 365.26,283.08C365.56,282.15 365.86,281.22 366.16,280.29C366.46,279.35 366.77,278.41 367.07,277.46C367.37,276.5 367.67,275.53 367.97,274.56C368.27,273.57 368.58,272.58 368.88,271.57C369.19,270.54 369.48,269.49 369.78,268.43C370.08,267.34 370.38,266.23 370.68,265.1C370.99,263.93 371.29,262.73 371.59,261.51C371.9,260.24 372.19,258.95 372.49,257.63C372.8,256.27 373.1,254.89 373.4,253.48C373.71,252.03 374,250.56 374.3,249.07C374.61,247.54 374.91,245.99 375.21,244.42C375.51,242.82 375.81,241.2 376.11,239.57C376.41,237.92 376.71,236.25 377.01,234.58C377.31,232.9 377.62,231.22 377.92,229.54C378.22,227.87 378.52,226.19 378.82,224.53C379.12,222.88 379.43,221.23 379.73,219.61C380.03,218.01 380.33,216.43 380.63,214.87C380.93,213.35 381.22,211.84 381.53,210.36C381.83,208.93 382.13,207.51 382.44,206.13C382.74,204.81 383.03,203.5 383.34,202.24C383.64,201.04 383.94,199.85 384.25,198.72C384.54,197.65 384.84,196.6 385.15,195.61C385.44,194.69 385.73,193.79 386.05,192.95C386.34,192.18 386.64,191.44 386.96,190.76C387.25,190.15 387.54,189.56 387.86,189.06C388.14,188.62 388.44,188.2 388.77,187.88C389.05,187.6 389.35,187.35 389.67,187.22C389.96,187.1 390.28,187.06 390.58,187.1C390.89,187.15 391.2,187.31 391.48,187.51C391.8,187.74 392.1,188.09 392.38,188.46C392.71,188.88 393,189.39 393.29,189.93C393.61,190.54 393.9,191.22 394.19,191.93C394.51,192.71 394.81,193.56 395.1,194.43C395.41,195.38 395.71,196.38 396,197.41C396.31,198.51 396.61,199.67 396.9,200.85C397.21,202.1 397.51,203.4 397.81,204.72C398.12,206.1 398.41,207.52 398.71,208.97C399.02,210.48 399.32,212.02 399.62,213.59C399.93,215.2 400.22,216.85 400.52,218.51C400.82,220.21 401.12,221.94 401.42,223.68C401.72,225.46 402.03,227.26 402.33,229.07C402.63,230.9 402.93,232.76 403.23,234.61C403.53,236.48 403.84,238.36 404.14,240.24C404.44,242.13 404.74,244.02 405.04,245.91C405.34,247.8 405.65,249.68 405.95,251.56C406.25,253.43 406.55,255.3 406.85,257.16C407.15,259 407.45,260.83 407.75,262.65C408.05,264.44 408.36,266.23 408.66,267.99C408.96,269.72 409.25,271.44 409.56,273.14C409.86,274.8 410.16,276.45 410.47,278.06C410.77,279.62 411.06,281.17 411.37,282.67C411.66,284.11 411.95,285.55 412.27,286.88C412.56,288.1 412.82,289.41 413.18,290.37C413.45,291.08 413.75,291.65 414.08,292.16C414.36,292.59 414.66,292.99 414.99,293.27C415.27,293.51 415.58,293.78 415.89,293.81C416.18,293.84 416.5,293.63 416.79,293.47C417.11,293.29 417.41,293.02 417.7,292.74C418.01,292.44 418.31,292.11 418.6,291.73C418.92,291.31 419.22,290.84 419.51,290.34C419.83,289.79 420.11,289.16 420.41,288.55C420.72,287.91 421.02,287.23 421.32,286.58C421.62,285.93 421.91,285.27 422.22,284.64C422.52,284.03 422.81,283.42 423.12,282.85C423.41,282.3 423.72,281.77 424.03,281.27C424.32,280.8 424.62,280.36 424.93,279.95C425.22,279.57 425.53,279.22 425.84,278.91C426.13,278.62 426.43,278.35 426.74,278.14C427.03,277.94 427.33,277.77 427.64,277.65C427.94,277.53 428.24,277.44 428.55,277.4C428.85,277.36 429.15,277.36 429.45,277.38C429.75,277.4 430.06,277.47 430.36,277.54C430.66,277.61 430.96,277.72 431.26,277.82C431.56,277.93 431.86,278.05 432.16,278.17C432.46,278.29 432.77,278.42 433.07,278.54C433.37,278.66 433.67,278.78 433.97,278.89C434.27,279 434.58,279.1 434.88,279.19C435.18,279.28 435.48,279.36 435.78,279.43C436.08,279.5 436.38,279.56 436.68,279.63C436.98,279.7 437.29,279.76 437.59,279.83C437.89,279.9 438.19,279.97 438.49,280.05C438.79,280.13 439.1,280.22 439.4,280.33C439.7,280.44 440,280.56 440.3,280.69C440.61,280.83 440.91,280.98 441.21,281.15C441.51,281.32 441.81,281.51 442.11,281.71C442.41,281.92 442.71,282.14 443.01,282.37C443.32,282.61 443.62,282.87 443.92,283.13C444.22,283.39 444.52,283.67 444.82,283.95C445.12,284.23 445.43,284.51 445.73,284.79C446.03,285.06 446.32,285.35 446.63,285.59C446.92,285.82 447.22,286.03 447.53,286.23C447.83,286.42 448.14,286.58 448.44,286.75C448.74,286.92 449.04,287.07 449.34,287.25C449.64,287.43 449.95,287.61 450.25,287.82C450.56,288.03 450.85,288.26 451.15,288.5C451.45,288.75 451.75,289.01 452.05,289.29C452.36,289.58 452.66,289.89 452.96,290.21C453.27,290.54 453.56,290.89 453.86,291.25C454.17,291.62 454.47,292.01 454.77,292.41C455.08,292.82 455.37,293.25 455.67,293.68C455.98,294.13 456.28,294.58 456.58,295.05C456.88,295.53 457.18,296.02 457.48,296.51C457.78,297.01 458.08,297.53 458.38,298.04C458.68,298.56 458.99,299.09 459.29,299.62C459.59,300.15 459.89,300.68 460.19,301.2C460.49,301.71 460.79,302.23 461.1,302.71Q461.39,303.16 462,304" style="vector-effect: non-scaling-stroke; fill: none; stroke: rgb(231, 107, 243); stroke-opacity: 1; stroke-width: 2px; opacity: 1;"/></g><g class="points"/><g class="text"/></g></g></g><g class="overplot"/><path class="xlines-above crisp" d="M0,0" style="fill: none;"/><path class="ylines-above crisp" d="M0,0" style="fill: none;"/><g class="overlines-above"/><g class="xaxislayer-above"><g class="xtick"><text text-anchor="middle" x="0" y="433" transform="translate(80,0)" style="font-family: 'Open Sans', verdana, arial, sans-serif; font-size: 12px; fill: rgb(42, 63, 95); fill-opacity: 1; white-space: pre;">0</text></g><g class="xtick"><text text-anchor="middle" x="0" y="433" transform="translate(170.23000000000002,0)" style="font-family: 'Open Sans', verdana, arial, sans-serif; font-size: 12px; fill: rgb(42, 63, 95); fill-opacity: 1; white-space: pre;">100</text></g><g class="xtick"><text text-anchor="middle" x="0" y="433" transform="translate(260.47,0)" style="font-family: 'Open Sans', verdana, arial, sans-serif; font-size: 12px; fill: rgb(42, 63, 95); fill-opacity: 1; white-space: pre;">200</text></g><g class="xtick"><text text-anchor="middle" x="0" y="433" transform="translate(350.7,0)" style="font-family: 'Open Sans', verdana, arial, sans-serif; font-size: 12px; fill: rgb(42, 63, 95); fill-opacity: 1; white-space: pre;">300</text></g><g class="xtick"><text text-anchor="middle" x="0" y="433" transform="translate(440.94,0)" style="font-family: 'Open Sans', verdana, arial, sans-serif; font-size: 12px; fill: rgb(42, 63, 95); fill-opacity: 1; white-space: pre;">400</text></g><g class="xtick"><text text-anchor="middle" x="0" y="433" transform="translate(531.1700000000001,0)" style="font-family: 'Open Sans', verdana, arial, sans-serif; font-size: 12px; fill: rgb(42, 63, 95); fill-opacity: 1; white-space: pre;">500</text></g></g><g class="yaxislayer-above"><g class="ytick"><text text-anchor="end" x="79" y="4.199999999999999" transform="translate(0,378.12)" style="font-family: 'Open Sans', verdana, arial, sans-serif; font-size: 12px; fill: rgb(42, 63, 95); fill-opacity: 1; white-space: pre;">50</text></g><g class="ytick"><text text-anchor="end" x="79" y="4.199999999999999" transform="translate(0,319.3)" style="font-family: 'Open Sans', verdana, arial, sans-serif; font-size: 12px; fill: rgb(42, 63, 95); fill-opacity: 1; white-space: pre;">100</text></g><g class="ytick"><text text-anchor="end" x="79" y="4.199999999999999" transform="translate(0,260.49)" style="font-family: 'Open Sans', verdana, arial, sans-serif; font-size: 12px; fill: rgb(42, 63, 95); fill-opacity: 1; white-space: pre;">150</text></g><g class="ytick"><text text-anchor="end" x="79" y="4.199999999999999" transform="translate(0,201.68)" style="font-family: 'Open Sans', verdana, arial, sans-serif; font-size: 12px; fill: rgb(42, 63, 95); fill-opacity: 1; white-space: pre;">200</text></g><g class="ytick"><text text-anchor="end" x="79" y="4.199999999999999" transform="translate(0,142.86)" style="font-family: 'Open Sans', verdana, arial, sans-serif; font-size: 12px; fill: rgb(42, 63, 95); fill-opacity: 1; white-space: pre;">250</text></g></g><g class="overaxes-above"/></g></g><g class="polarlayer"/><g class="ternarylayer"/><g class="geolayer"/><g class="funnelarealayer"/><g class="pielayer"/><g class="treemaplayer"/><g class="sunburstlayer"/><g class="glimages"/><defs id="topdefs-cac8e6"><g class="clips"/><clipPath id="legendcac8e6"><rect width="137" height="67" x="0" y="0"/></clipPath></defs><g class="layer-above"><g class="imagelayer"/><g class="shapelayer"/></g><g class="infolayer"><g class="legend" pointer-events="all" transform="translate(551.24, 100)"><rect class="bg" shape-rendering="crispEdges" width="137" height="67" x="0" y="0" style="stroke: rgb(68, 68, 68); stroke-opacity: 1; fill: rgb(255, 255, 255); fill-opacity: 1; stroke-width: 0px;"/><g class="scrollbox" transform="translate(0, 0)" clip-path="url('#legendcac8e6')"><g class="groups"><g class="traces" transform="translate(0, 14.5)" style="opacity: 1;"><text class="legendtext" text-anchor="start" x="40" y="4.680000000000001" style="font-family: 'Open Sans', verdana, arial, sans-serif; font-size: 12px; fill: rgb(42, 63, 95); fill-opacity: 1; white-space: pre;">Average Class I</text><g class="layers" style="opacity: 1;"><g class="legendfill"/><g class="legendlines"><path class="js-line" d="M5,0h30" style="fill: none; stroke: rgb(0, 100, 80); stroke-opacity: 1; stroke-width: 2px;"/></g><g class="legendsymbols"><g class="legendpoints"/></g></g><rect class="legendtoggle" x="0" y="-9.5" width="131.15625" height="19" style="fill: rgb(0, 0, 0); fill-opacity: 0;"/></g><g class="traces" transform="translate(0, 33.5)" style="opacity: 1;"><text class="legendtext" text-anchor="start" x="40" y="4.680000000000001" style="font-family: 'Open Sans', verdana, arial, sans-serif; font-size: 12px; fill: rgb(42, 63, 95); fill-opacity: 1; white-space: pre;">Average Class II</text><g class="layers" style="opacity: 1;"><g class="legendfill"/><g class="legendlines"><path class="js-line" d="M5,0h30" style="fill: none; stroke: rgb(0, 176, 246); stroke-opacity: 1; stroke-width: 2px;"/></g><g class="legendsymbols"><g class="legendpoints"/></g></g><rect class="legendtoggle" x="0" y="-9.5" width="131.15625" height="19" style="fill: rgb(0, 0, 0); fill-opacity: 0;"/></g><g class="traces" transform="translate(0, 52.5)" style="opacity: 1;"><text class="legendtext" text-anchor="start" x="40" y="4.680000000000001" style="font-family: 'Open Sans', verdana, arial, sans-serif; font-size: 12px; fill: rgb(42, 63, 95); fill-opacity: 1; white-space: pre;">Average Class III</text><g class="layers" style="opacity: 1;"><g class="legendfill"/><g class="legendlines"><path class="js-line" d="M5,0h30" style="fill: none; stroke: rgb(231, 107, 243); stroke-opacity: 1; stroke-width: 2px;"/></g><g class="legendsymbols"><g class="legendpoints"/></g></g><rect class="legendtoggle" x="0" y="-9.5" width="131.15625" height="19" style="fill: rgb(0, 0, 0); fill-opacity: 0;"/></g></g></g><rect class="scrollbar" rx="20" ry="3" width="0" height="0" x="0" y="0" style="fill: rgb(128, 139, 164); fill-opacity: 1;"/></g><g class="g-gtitle"><text class="gtitle" x="35" y="50" text-anchor="start" dy="0em" style="font-family: 'Open Sans', verdana, arial, sans-serif; font-size: 17px; fill: rgb(42, 63, 95); opacity: 1; font-weight: normal; white-space: pre;">Average curve: hydrophobicity_group</text></g><g class="g-xtitle"><text class="xtitle" x="311" y="460.8" text-anchor="middle" style="font-family: 'Open Sans', verdana, arial, sans-serif; font-size: 14px; fill: rgb(42, 63, 95); opacity: 1; font-weight: normal; white-space: pre;">Domain</text></g><g class="g-ytitle"><text class="ytitle" transform="rotate(-90,34.16875,260)" x="34.16875" y="260" text-anchor="middle" style="font-family: 'Open Sans', verdana, arial, sans-serif; font-size: 14px; fill: rgb(42, 63, 95); opacity: 1; font-weight: normal; white-space: pre;">Frequency</text></g></g></svg>