<svg class="main-svg" xmlns="http://www.w3.org/2000/svg" xmlns:xlink="http://www.w3.org/1999/xlink" width="700" height="500" style="" viewBox="0 0 700 500"><rect x="0" y="0" width="700" height="500" style="fill: rgb(255, 255, 255); fill-opacity: 1;"/><defs id="defs-c59a66"><g class="clips"><clipPath id="clipc59a66xyplot" class="plotclip"><rect width="462" height="320"/></clipPath><clipPath class="axesclip" id="clipc59a66x"><rect x="80" y="0" width="462" height="500"/></clipPath><clipPath class="axesclip" id="clipc59a66y"><rect x="0" y="100" width="700" height="320"/></clipPath><clipPath class="axesclip" id="clipc59a66xy"><rect x="80" y="100" width="462" height="320"/></clipPath></g><g class="gradients"/></defs><g class="bglayer"><rect class="bg" x="80" y="100" width="462" height="320" style="fill: rgb(229, 236, 246); fill-opacity: 1; stroke-width: 0;"/></g><g class="layer-below"><g class="imagelayer"/><g class="shapelayer"/></g><g class="cartesianlayer"><g class="subplot xy"><g class="layer-subplot"><g class="shapelayer"/><g class="imagelayer"/></g><g class="gridlayer"><g class="x"><path class="xgrid crisp" transform="translate(170.23000000000002,0)" d="M0,100v320" style="stroke: rgb(255, 255, 255); stroke-opacity: 1; stroke-width: 1px;"/><path class="xgrid crisp" transform="translate(260.47,0)" d="M0,100v320" style="stroke: rgb(255, 255, 255); stroke-opacity: 1; stroke-width: 1px;"/><path class="xgrid crisp" transform="translate(350.7,0)" d="M0,100v320" style="stroke: rgb(255, 255, 255); stroke-opacity: 1; stroke-width: 1px;"/><path class="xgrid crisp" transform="translate(440.94,0)" d="M0,100v320" style="stroke: rgb(255, 255, 255); stroke-opacity: 1; stroke-width: 1px;"/><path class="xgrid crisp" transform="translate(531.1700000000001,0)" d="M0,100v320" style="stroke: rgb(255, 255, 255); stroke-opacity: 1; stroke-width: 1px;"/></g><g class="y"><path class="ygrid crisp" transform="translate(0,378.74)" d="M80,0h462" style="stroke: rgb(255, 255, 255); stroke-opacity: 1; stroke-width: 1px;"/><path class="ygrid crisp" transform="translate(0,322.85)" d="M80,0h462" style="stroke: rgb(255, 255, 255); stroke-opacity: 1; stroke-width: 1px;"/><path class="ygrid crisp" transform="translate(0,266.96000000000004)" d="M80,0h462" style="stroke: rgb(255, 255, 255); stroke-opacity: 1; stroke-width: 1px;"/><path class="ygrid crisp" transform="translate(0,211.07)" d="M80,0h462" style="stroke: rgb(255, 255, 255); stroke-opacity: 1; stroke-width: 1px;"/><path class="ygrid crisp" transform="translate(0,155.19)" d="M80,0h462" style="stroke: rgb(255, 255, 255); stroke-opacity: 1; stroke-width: 1px;"/></g></g><g class="zerolinelayer"><path class="xzl zl crisp" transform="translate(80,0)" d="M0,100v320" style="stroke: rgb(255, 255, 255); stroke-opacity: 1; stroke-width: 2px;"/></g><path class="xlines-below"/><path class="ylines-below"/><g class="overlines-below"/><g class="xaxislayer-below"/><g class="yaxislayer-below"/><g class="overaxes-below"/><g class="plot" transform="translate(80, 100)" clip-path="url('#clipc59a66xyplot')"><g class="scatterlayer mlayer"><g class="trace scatter trace2a51a4" style="stroke-miterlimit: 2; opacity: 1;"><g class="fills"/><g class="errorbars"/><g class="lines"><path class="js-line" d="M0,160.69Q0.63,160.42 0.9,160.14C1.26,159.77 1.53,159.13 1.81,158.5C2.15,157.73 2.43,156.79 2.71,155.82C3.04,154.71 3.33,153.47 3.62,152.2C3.94,150.8 4.23,149.29 4.52,147.75C4.83,146.09 5.13,144.35 5.42,142.58C5.73,140.71 6.03,138.78 6.33,136.82C6.64,134.79 6.93,132.71 7.23,130.61C7.54,128.45 7.84,126.26 8.14,124.05C8.44,121.81 8.74,119.54 9.04,117.27C9.34,114.98 9.65,112.67 9.95,110.37C10.25,108.07 10.55,105.75 10.85,103.45C11.15,101.16 11.45,98.87 11.75,96.6C12.05,94.35 12.36,92.11 12.66,89.9C12.96,87.72 13.25,85.55 13.56,83.42C13.86,81.33 14.16,79.26 14.47,77.23C14.77,75.25 15.06,73.3 15.37,71.38C15.67,69.53 15.96,67.7 16.27,65.92C16.57,64.21 16.87,62.53 17.18,60.9C17.47,59.35 17.77,57.83 18.08,56.36C18.37,54.97 18.68,53.62 18.99,52.33C19.28,51.12 19.58,49.94 19.89,48.83C20.18,47.8 20.47,46.81 20.79,45.89C21.08,45.06 21.38,44.26 21.7,43.55C21.98,42.92 22.27,42.31 22.6,41.81C22.88,41.38 23.18,40.97 23.51,40.7C23.79,40.47 24.1,40.27 24.41,40.23C24.71,40.19 25.04,40.28 25.32,40.43C25.65,40.6 25.94,40.93 26.22,41.28C26.55,41.69 26.84,42.23 27.12,42.78C27.45,43.42 27.74,44.14 28.03,44.9C28.35,45.74 28.64,46.65 28.93,47.59C29.25,48.62 29.55,49.71 29.84,50.85C30.16,52.09 30.45,53.39 30.74,54.74C31.05,56.2 31.35,57.72 31.64,59.3C31.95,60.99 32.26,62.76 32.55,64.57C32.86,66.5 33.16,68.51 33.45,70.56C33.76,72.73 34.07,74.97 34.36,77.26C34.67,79.66 34.97,82.13 35.26,84.64C35.57,87.26 35.86,89.94 36.16,92.67C36.47,95.5 36.77,98.39 37.07,101.31C37.38,104.32 37.67,107.39 37.97,110.49C38.28,113.67 38.58,116.9 38.88,120.15C39.18,123.47 39.48,126.84 39.78,130.22C40.08,133.66 40.38,137.13 40.68,140.61C40.98,144.13 41.29,147.67 41.59,151.22C41.89,154.79 42.19,158.38 42.49,161.95C42.79,165.52 43.1,169.1 43.4,172.66C43.7,176.19 44,179.72 44.3,183.2C44.6,186.63 44.9,190.04 45.21,193.39C45.51,196.64 45.8,199.87 46.11,203.01C46.4,206.03 46.7,209.01 47.01,211.89C47.3,214.63 47.61,217.32 47.92,219.9C48.21,222.33 48.51,224.7 48.82,226.95C49.11,229.03 49.41,231.05 49.73,232.94C50.02,234.64 50.31,236.28 50.63,237.78C50.91,239.1 51.2,240.37 51.53,241.49C51.81,242.45 52.1,243.36 52.44,244.13C52.72,244.77 53,245.37 53.34,245.83C53.62,246.21 53.92,246.54 54.25,246.74C54.53,246.92 54.85,247.02 55.15,247.05C55.45,247.08 55.75,247.01 56.05,246.93C56.36,246.85 56.66,246.7 56.96,246.56C57.26,246.42 57.56,246.25 57.86,246.09C58.16,245.93 58.46,245.76 58.77,245.62C59.07,245.48 59.36,245.35 59.67,245.26C59.97,245.18 60.28,245.1 60.58,245.1C60.88,245.1 61.19,245.15 61.48,245.26C61.79,245.38 62.1,245.59 62.38,245.83C62.7,246.11 63,246.48 63.29,246.88C63.61,247.33 63.9,247.86 64.19,248.41C64.51,249.03 64.81,249.72 65.1,250.44C65.42,251.22 65.71,252.07 66,252.94C66.31,253.87 66.61,254.86 66.9,255.86C67.21,256.92 67.51,258.03 67.81,259.14C68.12,260.29 68.41,261.48 68.71,262.65C69.01,263.83 69.31,265.03 69.62,266.18C69.92,267.28 70.2,268.39 70.52,269.4C70.81,270.31 71.1,271.18 71.42,271.97C71.71,272.66 72.01,273.3 72.33,273.89C72.62,274.42 72.91,274.93 73.23,275.36C73.52,275.74 73.81,276.11 74.14,276.35C74.42,276.56 74.73,276.74 75.04,276.79C75.34,276.83 75.66,276.77 75.95,276.64C76.27,276.5 76.57,276.22 76.85,275.93C77.18,275.59 77.47,275.14 77.75,274.67C78.07,274.14 78.37,273.53 78.66,272.89C78.98,272.18 79.27,271.4 79.56,270.59C79.87,269.72 80.18,268.78 80.47,267.83C80.78,266.83 81.08,265.8 81.37,264.75C81.68,263.66 81.97,262.54 82.27,261.42C82.57,260.28 82.88,259.11 83.18,257.97C83.48,256.85 83.77,255.72 84.08,254.63C84.38,253.57 84.68,252.51 84.99,251.49C85.29,250.51 85.58,249.55 85.89,248.62C86.18,247.74 86.48,246.88 86.79,246.06C87.08,245.29 87.39,244.55 87.7,243.85C87.99,243.2 88.28,242.57 88.6,241.99C88.89,241.46 89.19,240.95 89.51,240.5C89.8,240.09 90.09,239.71 90.41,239.39C90.7,239.1 91,238.84 91.32,238.65C91.61,238.47 91.91,238.33 92.22,238.26C92.51,238.19 92.82,238.17 93.12,238.21C93.43,238.25 93.74,238.35 94.03,238.49C94.34,238.63 94.64,238.85 94.93,239.07C95.24,239.31 95.55,239.6 95.84,239.9C96.15,240.22 96.44,240.59 96.74,240.93C97.04,241.27 97.34,241.62 97.64,241.95C97.94,242.27 98.25,242.56 98.55,242.89C98.86,243.23 99.16,243.57 99.45,243.94C99.76,244.33 100.07,244.75 100.36,245.2C100.67,245.67 100.97,246.19 101.26,246.71C101.57,247.26 101.86,247.84 102.16,248.44C102.47,249.06 102.77,249.71 103.07,250.37C103.38,251.05 103.67,251.75 103.97,252.46C104.28,253.19 104.58,253.93 104.88,254.68C105.18,255.44 105.48,256.21 105.78,256.97C106.08,257.73 106.38,258.49 106.68,259.24C106.98,259.98 107.28,260.71 107.59,261.42C107.89,262.1 108.18,262.78 108.49,263.42C108.78,264.03 109.09,264.62 109.4,265.17C109.69,265.68 109.98,266.17 110.3,266.61C110.59,267.01 110.89,267.4 111.21,267.72C111.5,268.01 111.8,268.27 112.11,268.47C112.4,268.65 112.7,268.8 113.01,268.87C113.31,268.93 113.62,268.94 113.92,268.88C114.23,268.81 114.53,268.66 114.82,268.46C115.14,268.24 115.44,267.92 115.73,267.59C116.05,267.22 116.34,266.79 116.63,266.34C116.94,265.85 117.24,265.31 117.53,264.76C117.84,264.17 118.15,263.54 118.44,262.89C118.75,262.21 119.04,261.5 119.34,260.78C119.65,260.03 119.95,259.25 120.25,258.46C120.56,257.65 120.85,256.82 121.15,255.99C121.45,255.14 121.75,254.28 122.05,253.41C122.35,252.53 122.66,251.64 122.96,250.76C123.26,249.87 123.56,248.98 123.86,248.1C124.16,247.22 124.47,246.33 124.77,245.46C125.07,244.59 125.37,243.73 125.67,242.88C125.97,242.04 126.27,241.21 126.58,240.4C126.88,239.61 127.17,238.82 127.48,238.06C127.78,237.32 128.07,236.6 128.38,235.9C128.68,235.23 128.98,234.56 129.29,233.93C129.58,233.33 129.88,232.74 130.19,232.19C130.48,231.67 130.79,231.17 131.1,230.71C131.39,230.28 131.69,229.87 132,229.5C132.29,229.16 132.59,228.84 132.9,228.58C133.19,228.34 133.5,228.12 133.81,227.97C134.1,227.83 134.41,227.71 134.71,227.67C135.01,227.63 135.32,227.64 135.62,227.7C135.93,227.76 136.23,227.9 136.52,228.06C136.83,228.24 137.13,228.48 137.42,228.74C137.74,229.02 138.03,229.37 138.33,229.71C138.64,230.07 138.93,230.45 139.23,230.84C139.54,231.24 139.85,231.63 140.14,232.06C140.45,232.51 140.75,232.98 141.04,233.49C141.35,234.04 141.66,234.64 141.95,235.26C142.26,235.94 142.56,236.66 142.85,237.41C143.16,238.21 143.46,239.07 143.75,239.94C144.06,240.87 144.37,241.84 144.66,242.84C144.97,243.89 145.26,244.99 145.56,246.11C145.87,247.28 146.17,248.48 146.47,249.7C146.78,250.97 147.07,252.28 147.37,253.6C147.67,254.96 147.97,256.35 148.27,257.75C148.58,259.18 148.88,260.65 149.18,262.11C149.48,263.6 149.78,265.1 150.08,266.6C150.38,268.11 150.69,269.63 150.99,271.13C151.29,272.63 151.59,274.13 151.89,275.6C152.19,277.03 152.48,278.47 152.79,279.84C153.08,281.14 153.38,282.43 153.7,283.62C153.99,284.69 154.26,285.75 154.6,286.64C154.88,287.38 155.14,288.15 155.51,288.61C155.78,288.95 156.11,289.31 156.41,289.31C156.71,289.31 157.05,288.95 157.32,288.61C157.69,288.13 157.94,287.32 158.22,286.56C158.55,285.64 158.84,284.57 159.12,283.45C159.45,282.16 159.74,280.7 160.03,279.27C160.34,277.77 160.63,276.2 160.93,274.63C161.24,273.03 161.54,271.39 161.84,269.76C162.14,268.12 162.44,266.47 162.74,264.83C163.04,263.2 163.34,261.57 163.64,259.96C163.94,258.37 164.24,256.79 164.55,255.23C164.85,253.71 165.14,252.21 165.45,250.74C165.75,249.31 166.05,247.9 166.36,246.53C166.66,245.21 166.95,243.92 167.26,242.67C167.55,241.48 167.85,240.31 168.16,239.19C168.45,238.13 168.76,237.11 169.07,236.13C169.36,235.22 169.65,234.34 169.97,233.52C170.26,232.77 170.56,232.05 170.88,231.39C171.17,230.8 171.46,230.23 171.78,229.74C172.06,229.31 172.36,228.9 172.68,228.59C172.96,228.32 173.27,228.07 173.59,227.93C173.88,227.81 174.19,227.74 174.49,227.76C174.79,227.78 175.11,227.88 175.4,228.03C175.72,228.19 176.01,228.45 176.3,228.72C176.62,229.02 176.92,229.39 177.21,229.77C177.52,230.18 177.82,230.64 178.11,231.11C178.42,231.6 178.71,232.13 179.01,232.66C179.32,233.2 179.62,233.77 179.92,234.32C180.22,234.88 180.51,235.45 180.82,235.99C181.12,236.52 181.42,237.05 181.73,237.54C182.02,238.01 182.32,238.47 182.63,238.88C182.92,239.25 183.21,239.62 183.53,239.9C183.82,240.15 184.12,240.37 184.44,240.49C184.73,240.6 185.05,240.65 185.34,240.61C185.65,240.56 185.97,240.4 186.25,240.19C186.58,239.95 186.88,239.58 187.15,239.17C187.49,238.66 187.78,238.01 188.05,237.29C188.4,236.37 188.67,235.21 188.96,234.06C189.28,232.76 189.57,231.31 189.86,229.88C190.17,228.38 190.47,226.8 190.77,225.24C191.07,223.64 191.37,222.01 191.67,220.39C191.97,218.76 192.28,217.11 192.58,215.49C192.88,213.88 193.18,212.27 193.48,210.69C193.78,209.14 194.07,207.6 194.38,206.1C194.68,204.65 194.98,203.22 195.29,201.83C195.58,200.51 195.88,199.22 196.19,197.98C196.48,196.82 196.78,195.69 197.1,194.63C197.39,193.66 197.68,192.73 198,191.88C198.28,191.13 198.57,190.4 198.9,189.79C199.18,189.27 199.47,188.76 199.81,188.42C200.09,188.15 200.4,187.88 200.71,187.83C201,187.78 201.34,187.88 201.62,188.05C201.96,188.26 202.25,188.69 202.52,189.12C202.86,189.65 203.14,190.34 203.42,191.05C203.75,191.89 204.04,192.84 204.33,193.84C204.65,194.97 204.94,196.21 205.23,197.49C205.55,198.9 205.85,200.41 206.14,201.96C206.45,203.64 206.75,205.4 207.04,207.21C207.35,209.13 207.66,211.13 207.95,213.17C208.26,215.31 208.56,217.52 208.85,219.76C209.16,222.08 209.45,224.46 209.75,226.85C210.06,229.31 210.36,231.81 210.66,234.32C210.96,236.87 211.26,239.46 211.56,242.05C211.86,244.66 212.17,247.3 212.47,249.93C212.77,252.56 213.07,255.2 213.37,257.81C213.67,260.39 213.96,262.98 214.27,265.49C214.57,267.9 214.86,270.33 215.18,272.59C215.47,274.67 215.74,276.78 216.08,278.58C216.36,280.08 216.59,281.68 216.99,282.68C217.25,283.33 217.6,284.18 217.89,284.17C218.2,284.16 218.53,283.17 218.79,282.42C219.2,281.23 219.42,279.35 219.7,277.58C220.04,275.44 220.31,272.95 220.6,270.48C220.92,267.8 221.21,264.93 221.51,262.08C221.82,259.13 222.11,256.1 222.41,253.09C222.71,250.05 223.02,246.98 223.32,243.94C223.62,240.91 223.92,237.87 224.22,234.87C224.52,231.9 224.82,228.95 225.12,226.02C225.42,223.12 225.73,220.24 226.03,217.39C226.33,214.58 226.62,211.79 226.93,209.04C227.23,206.36 227.53,203.71 227.84,201.09C228.14,198.54 228.44,196.02 228.74,193.52C229.04,191.06 229.34,188.62 229.64,186.2C229.94,183.81 230.24,181.42 230.55,179.09C230.85,176.83 231.14,174.58 231.45,172.41C231.74,170.35 232.05,168.32 232.36,166.38C232.65,164.56 232.95,162.78 233.26,161.09C233.55,159.53 233.84,158.01 234.16,156.59C234.45,155.31 234.75,154.06 235.07,152.94C235.35,151.96 235.63,151 235.97,150.21C236.25,149.56 236.52,148.92 236.88,148.51C237.15,148.2 237.47,147.89 237.78,147.86C238.07,147.83 238.41,148.05 238.68,148.3C239.04,148.63 239.31,149.23 239.59,149.81C239.93,150.53 240.21,151.43 240.49,152.35C240.82,153.42 241.11,154.61 241.4,155.85C241.72,157.22 242.01,158.7 242.3,160.22C242.61,161.85 242.92,163.58 243.21,165.33C243.52,167.17 243.81,169.08 244.11,170.99C244.41,172.96 244.71,174.99 245.01,176.99C245.31,179 245.61,181.05 245.92,183.04C246.22,184.98 246.51,186.94 246.82,188.79C247.11,190.53 247.41,192.27 247.73,193.85C248.02,195.24 248.29,196.64 248.63,197.77C248.9,198.67 249.12,199.69 249.53,200.14C249.79,200.43 250.17,200.68 250.44,200.6C250.8,200.49 251.08,199.66 251.34,199C251.72,198.05 251.97,196.7 252.25,195.35C252.59,193.71 252.87,191.79 253.15,189.83C253.47,187.61 253.76,185.18 254.05,182.71C254.36,180.03 254.67,177.19 254.96,174.31C255.27,171.28 255.56,168.12 255.86,164.95C256.17,161.68 256.47,158.33 256.77,154.98C257.07,151.58 257.37,148.12 257.67,144.69C257.97,141.26 258.28,137.81 258.58,134.41C258.88,131.05 259.18,127.69 259.48,124.39C259.78,121.18 260.07,117.99 260.38,114.89C260.68,111.91 260.98,108.97 261.29,106.14C261.58,103.46 261.88,100.83 262.19,98.33C262.48,96 262.78,93.73 263.1,91.61C263.39,89.69 263.68,87.82 264,86.13C264.28,84.65 264.56,83.23 264.9,82.01C265.18,81.01 265.44,80.01 265.81,79.32C266.08,78.82 266.37,78.23 266.71,78.14C266.99,78.06 267.36,78.26 267.62,78.51C268.01,78.88 268.25,79.69 268.52,80.44C268.87,81.42 269.14,82.67 269.42,83.95C269.75,85.48 270.05,87.21 270.33,89.01C270.65,91.06 270.94,93.29 271.23,95.59C271.55,98.13 271.85,100.83 272.14,103.61C272.45,106.62 272.75,109.77 273.04,113C273.35,116.44 273.66,120.01 273.95,123.65C274.26,127.47 274.56,131.42 274.85,135.41C275.16,139.56 275.45,143.83 275.75,148.09C276.05,152.42 276.35,156.93 276.66,161.17C276.95,165.17 277.26,168.99 277.56,172.84C277.86,176.62 278.17,180.35 278.47,184.07C278.77,187.75 279.07,191.41 279.37,195.04C279.67,198.61 279.96,202.19 280.27,205.68C280.57,209.06 280.87,212.47 281.18,215.66C281.47,218.61 281.74,221.63 282.08,224.18C282.36,226.28 282.63,228.28 282.99,229.9C283.26,231.11 283.41,232.63 283.89,233.05C284.14,233.27 284.54,233.36 284.79,233.2C285.27,232.9 285.43,231.29 285.7,230.05C286.07,228.34 286.32,226.08 286.6,223.83C286.93,221.18 287.22,218.19 287.51,215.17C287.83,211.88 288.11,208.36 288.41,204.84C288.72,201.16 289.02,197.34 289.32,193.55C289.62,189.7 289.92,185.78 290.22,181.9C290.52,178.03 290.82,174.15 291.12,170.32C291.42,166.55 291.72,162.8 292.03,159.11C292.33,155.52 292.62,151.96 292.93,148.49C293.23,145.14 293.53,141.84 293.84,138.63C294.14,135.56 294.43,132.54 294.74,129.61C295.03,126.83 295.33,124.11 295.64,121.48C295.93,119 296.24,116.58 296.55,114.24C296.84,112.03 297.14,109.89 297.45,107.82C297.74,105.86 298.05,103.97 298.36,102.12C298.65,100.37 298.95,98.66 299.26,97C299.55,95.42 299.85,93.88 300.16,92.38C300.45,90.96 300.76,89.56 301.07,88.23C301.36,86.99 301.65,85.77 301.97,84.64C302.26,83.6 302.56,82.6 302.88,81.69C303.16,80.89 303.45,80.12 303.78,79.48C304.06,78.94 304.34,78.41 304.68,78.05C304.96,77.76 305.27,77.49 305.59,77.42C305.88,77.36 306.21,77.43 306.49,77.58C306.82,77.75 307.12,78.12 307.4,78.48C307.73,78.91 308.02,79.47 308.3,80.04C308.62,80.7 308.92,81.45 309.21,82.22C309.53,83.07 309.82,83.99 310.11,84.94C310.42,85.97 310.72,87.06 311.01,88.17C311.32,89.35 311.62,90.57 311.92,91.81C312.23,93.11 312.52,94.45 312.82,95.8C313.13,97.19 313.43,98.61 313.73,100.03C314.03,101.47 314.33,102.93 314.63,104.39C314.93,105.85 315.23,107.33 315.53,108.79C315.83,110.24 316.14,111.7 316.44,113.14C316.74,114.55 317.03,115.96 317.34,117.34C317.64,118.69 317.94,120.03 318.25,121.34C318.55,122.61 318.84,123.87 319.15,125.1C319.44,126.28 319.74,127.44 320.05,128.58C320.35,129.68 320.65,130.75 320.96,131.8C321.26,132.81 321.55,133.79 321.86,134.76C322.16,135.7 322.46,136.62 322.77,137.52C323.07,138.4 323.37,139.25 323.67,140.1C323.97,140.93 324.28,141.75 324.58,142.56C324.88,143.37 325.18,144.16 325.48,144.96C325.78,145.75 326.08,146.54 326.38,147.33C326.68,148.13 326.99,148.93 327.29,149.74C327.59,150.56 327.89,151.37 328.19,152.2C328.49,153.05 328.8,153.9 329.1,154.77C329.41,155.66 329.7,156.56 330,157.47C330.3,158.41 330.6,159.36 330.9,160.33C331.21,161.33 331.51,162.36 331.81,163.4C332.12,164.48 332.41,165.57 332.71,166.69C333.02,167.85 333.32,169.03 333.62,170.23C333.93,171.47 334.22,172.74 334.52,174.02C334.82,175.34 335.12,176.68 335.42,178.05C335.73,179.46 336.03,180.89 336.33,182.35C336.64,183.87 336.93,185.41 337.23,186.99C337.54,188.63 337.84,190.32 338.14,192.03C338.45,193.81 338.74,195.64 339.04,197.49C339.35,199.41 339.65,201.37 339.95,203.36C340.26,205.41 340.55,207.5 340.85,209.61C341.15,211.77 341.45,213.98 341.75,216.19C342.05,218.45 342.36,220.73 342.66,223.03C342.96,225.35 343.26,227.7 343.56,230.05C343.86,232.42 344.17,234.81 344.47,237.2C344.77,239.59 345.07,241.99 345.37,244.38C345.67,246.76 345.97,249.14 346.27,251.51C346.57,253.86 346.88,256.2 347.18,258.52C347.48,260.8 347.78,263.08 348.08,265.32C348.38,267.52 348.68,269.7 348.99,271.84C349.29,273.92 349.58,275.99 349.89,278C350.18,279.94 350.48,281.85 350.79,283.7C351.08,285.45 351.38,287.2 351.7,288.81C351.99,290.26 352.28,291.64 352.6,292.94C352.89,294.12 353.19,295.23 353.51,296.28C353.8,297.23 354.09,298.13 354.41,298.96C354.7,299.7 355,300.4 355.32,301.03C355.61,301.6 355.9,302.14 356.22,302.59C356.5,302.98 356.79,303.38 357.12,303.62C357.4,303.82 357.72,303.98 358.03,304C358.33,304.02 358.64,303.88 358.93,303.73C359.25,303.56 359.55,303.28 359.84,302.99C360.16,302.67 360.46,302.28 360.74,301.85C361.06,301.37 361.35,300.81 361.64,300.22C361.96,299.57 362.26,298.85 362.55,298.11C362.87,297.31 363.16,296.45 363.45,295.56C363.76,294.6 364.07,293.6 364.36,292.56C364.67,291.45 364.97,290.28 365.26,289.09C365.57,287.82 365.87,286.5 366.16,285.16C366.47,283.75 366.77,282.29 367.07,280.81C367.38,279.27 367.67,277.7 367.97,276.11C368.28,274.47 368.58,272.8 368.88,271.12C369.19,269.4 369.48,267.65 369.78,265.9C370.08,264.13 370.38,262.34 370.68,260.55C370.98,258.76 371.29,256.96 371.59,255.17C371.89,253.39 372.19,251.6 372.49,249.83C372.79,248.09 373.1,246.35 373.4,244.64C373.7,242.96 373.99,241.3 374.3,239.67C374.6,238.09 374.9,236.52 375.21,234.99C375.51,233.52 375.8,232.08 376.11,230.68C376.4,229.35 376.7,228.04 377.01,226.79C377.3,225.61 377.61,224.45 377.92,223.36C378.21,222.35 378.5,221.37 378.82,220.46C379.11,219.63 379.41,218.82 379.73,218.1C380.02,217.46 380.3,216.85 380.63,216.33C380.91,215.88 381.2,215.45 381.53,215.15C381.81,214.89 382.12,214.67 382.44,214.58C382.73,214.5 383.05,214.51 383.34,214.6C383.66,214.7 383.96,214.94 384.25,215.18C384.57,215.45 384.86,215.83 385.15,216.19C385.46,216.57 385.75,217.01 386.05,217.43C386.35,217.85 386.64,218.35 386.96,218.71C387.24,219.03 387.54,219.35 387.86,219.53C388.14,219.69 388.47,219.66 388.77,219.77C389.08,219.88 389.37,220.04 389.67,220.2C389.98,220.37 390.29,220.53 390.58,220.77C390.9,221.04 391.2,221.37 391.48,221.75C391.8,222.18 392.09,222.68 392.38,223.22C392.7,223.82 393,224.5 393.29,225.2C393.61,225.97 393.9,226.81 394.19,227.67C394.5,228.6 394.81,229.58 395.1,230.58C395.41,231.65 395.71,232.76 396,233.9C396.31,235.09 396.6,236.32 396.9,237.57C397.21,238.86 397.51,240.17 397.81,241.5C398.12,242.86 398.41,244.25 398.71,245.63C399.01,247.03 399.32,248.44 399.62,249.84C399.92,251.24 400.22,252.64 400.52,254.02C400.82,255.37 401.11,256.73 401.42,258.04C401.72,259.3 402.02,260.56 402.33,261.74C402.62,262.84 402.91,263.93 403.23,264.91C403.52,265.79 403.81,266.65 404.14,267.37C404.42,267.97 404.69,268.56 405.04,268.96C405.31,269.28 405.63,269.57 405.95,269.66C406.24,269.74 406.56,269.67 406.85,269.55C407.17,269.42 407.46,269.13 407.75,268.86C408.07,268.56 408.37,268.18 408.66,267.8C408.97,267.4 409.26,266.95 409.56,266.51C409.87,266.06 410.17,265.58 410.47,265.12C410.77,264.65 411.07,264.18 411.37,263.72C411.67,263.27 411.96,262.82 412.27,262.4C412.57,262 412.87,261.6 413.18,261.24C413.47,260.9 413.77,260.57 414.08,260.29C414.37,260.03 414.68,259.78 414.99,259.6C415.28,259.43 415.58,259.3 415.89,259.23C416.18,259.17 416.49,259.15 416.79,259.2C417.1,259.25 417.41,259.38 417.7,259.54C418.02,259.72 418.31,259.98 418.6,260.26C418.92,260.58 419.22,260.96 419.51,261.37C419.83,261.82 420.12,262.34 420.41,262.87C420.73,263.45 421.03,264.08 421.32,264.74C421.63,265.45 421.93,266.2 422.22,266.97C422.53,267.79 422.83,268.65 423.12,269.53C423.43,270.46 423.73,271.42 424.03,272.4C424.34,273.41 424.63,274.46 424.93,275.51C425.24,276.59 425.54,277.69 425.84,278.8C426.14,279.92 426.44,281.06 426.74,282.19C427.04,283.31 427.33,284.43 427.64,285.53C427.94,286.6 428.24,287.65 428.55,288.68C428.85,289.68 429.14,290.66 429.45,291.61C429.75,292.53 430.05,293.42 430.36,294.29C430.65,295.12 430.95,295.93 431.26,296.71C431.55,297.44 431.85,298.16 432.16,298.83C432.45,299.45 432.75,300.05 433.07,300.59C433.36,301.07 433.64,301.55 433.97,301.92C434.25,302.24 434.55,302.56 434.88,302.72C435.16,302.86 435.49,302.93 435.78,302.89C436.09,302.85 436.4,302.68 436.68,302.48C437,302.26 437.31,301.93 437.59,301.57C437.92,301.15 438.21,300.64 438.49,300.08C438.82,299.43 439.11,298.64 439.4,297.88C439.71,297.09 440,296.24 440.3,295.42C440.6,294.6 440.91,293.77 441.21,292.96C441.51,292.17 441.8,291.37 442.11,290.61C442.4,289.88 442.7,289.16 443.01,288.47C443.3,287.82 443.61,287.18 443.92,286.58C444.21,286.03 444.51,285.5 444.82,285.01C445.11,284.56 445.41,284.13 445.73,283.76C446.02,283.43 446.32,283.12 446.63,282.87C446.92,282.64 447.22,282.44 447.53,282.31C447.82,282.19 448.14,282.11 448.44,282.09C448.74,282.07 449.05,282.11 449.34,282.2C449.65,282.29 449.96,282.45 450.25,282.63C450.56,282.82 450.86,283.07 451.15,283.34C451.46,283.63 451.76,283.98 452.05,284.34C452.36,284.72 452.67,285.14 452.96,285.58C453.27,286.05 453.57,286.55 453.86,287.06C454.17,287.6 454.47,288.16 454.77,288.73C455.08,289.33 455.37,289.95 455.67,290.57C455.98,291.21 456.28,291.86 456.58,292.52C456.88,293.19 457.18,293.88 457.48,294.57C457.78,295.26 458.08,295.97 458.38,296.66C458.68,297.35 458.99,298.05 459.29,298.73C459.59,299.4 459.88,300.07 460.19,300.7C460.48,301.3 460.78,301.91 461.1,302.44Q461.39,302.92 462,303.78" style="vector-effect: non-scaling-stroke; fill: none; stroke: rgb(0, 100, 80); stroke-opacity: 1; stroke-width: 2px; opacity: 1;"/></g><g class="points"/><g class="text"/></g><g class="trace scatter trace85f45c" style="stroke-miterlimit: 2; opacity: 1;"><g class="fills"/><g class="errorbars"/><g class="lines"><path class="js-line" d="M0,111.09Q0.63,110.9 0.9,110.67C1.24,110.39 1.53,109.91 1.81,109.43C2.14,108.86 2.42,108.17 2.71,107.46C3.03,106.67 3.33,105.79 3.62,104.9C3.93,103.94 4.23,102.91 4.52,101.87C4.83,100.78 5.12,99.64 5.42,98.5C5.73,97.33 6.03,96.13 6.33,94.93C6.63,93.72 6.93,92.49 7.23,91.27C7.53,90.05 7.84,88.82 8.14,87.61C8.44,86.41 8.74,85.22 9.04,84.04C9.34,82.89 9.64,81.74 9.95,80.62C10.25,79.53 10.54,78.45 10.85,77.39C11.15,76.37 11.44,75.37 11.75,74.39C12.05,73.45 12.35,72.53 12.66,71.64C12.96,70.79 13.25,69.96 13.56,69.15C13.86,68.38 14.16,67.62 14.47,66.9C14.76,66.21 15.06,65.55 15.37,64.91C15.66,64.3 15.96,63.71 16.27,63.16C16.56,62.64 16.87,62.14 17.18,61.68C17.47,61.25 17.76,60.84 18.08,60.48C18.37,60.15 18.67,59.84 18.99,59.6C19.28,59.39 19.58,59.2 19.89,59.1C20.18,59.01 20.49,58.97 20.79,59.02C21.1,59.07 21.41,59.22 21.7,59.41C22.02,59.63 22.32,59.95 22.6,60.3C22.93,60.7 23.22,61.19 23.51,61.7C23.83,62.28 24.12,62.93 24.41,63.6C24.73,64.34 25.03,65.15 25.32,65.98C25.63,66.87 25.93,67.81 26.22,68.77C26.53,69.79 26.82,70.85 27.12,71.93C27.43,73.05 27.73,74.21 28.03,75.37C28.33,76.56 28.63,77.77 28.93,78.97C29.23,80.17 29.54,81.37 29.84,82.55C30.14,83.72 30.44,84.87 30.74,86.03C31.04,87.19 31.34,88.35 31.64,89.53C31.94,90.73 32.25,91.95 32.55,93.18C32.86,94.45 33.15,95.73 33.45,97.03C33.76,98.37 34.06,99.73 34.36,101.1C34.67,102.51 34.96,103.93 35.26,105.37C35.56,106.85 35.86,108.34 36.16,109.86C36.47,111.41 36.77,112.98 37.07,114.58C37.38,116.22 37.67,117.88 37.97,119.57C38.28,121.3 38.58,123.05 38.88,124.83C39.19,126.65 39.48,128.5 39.78,130.38C40.08,132.31 40.38,134.26 40.68,136.24C40.99,138.27 41.29,140.32 41.59,142.4C41.9,144.53 42.19,146.69 42.49,148.87C42.79,151.09 43.1,153.34 43.4,155.61C43.7,157.92 44,160.25 44.3,162.6C44.6,164.98 44.91,167.39 45.21,169.8C45.51,172.24 45.81,174.69 46.11,177.15C46.41,179.61 46.71,182.09 47.01,184.56C47.31,187.03 47.62,189.51 47.92,191.97C48.22,194.41 48.52,196.85 48.82,199.26C49.12,201.64 49.42,204.01 49.73,206.34C50.03,208.62 50.33,210.88 50.63,213.1C50.93,215.25 51.22,217.38 51.53,219.45C51.83,221.44 52.13,223.4 52.44,225.3C52.73,227.11 53.03,228.89 53.34,230.6C53.63,232.21 53.94,233.78 54.25,235.28C54.54,236.67 54.83,238.02 55.15,239.28C55.44,240.43 55.73,241.53 56.05,242.54C56.34,243.45 56.64,244.29 56.96,245.08C57.25,245.8 57.55,246.45 57.86,247.1C58.15,247.72 58.47,248.29 58.77,248.88C59.07,249.47 59.37,250.04 59.67,250.64C59.98,251.25 60.28,251.88 60.58,252.52C60.89,253.19 61.19,253.88 61.48,254.59C61.79,255.34 62.08,256.12 62.38,256.9C62.69,257.7 62.96,258.64 63.29,259.35C63.57,259.94 63.89,260.39 64.19,260.92C64.49,261.45 64.8,261.98 65.1,262.53C65.41,263.1 65.7,263.69 66,264.28C66.3,264.87 66.59,265.48 66.9,266.06C67.2,266.63 67.5,267.19 67.81,267.73C68.1,268.24 68.4,268.74 68.71,269.2C69,269.63 69.31,270.03 69.62,270.42C69.92,270.79 70.22,271.14 70.52,271.48C70.82,271.82 71.12,272.14 71.42,272.47C71.72,272.8 72.03,273.13 72.33,273.46C72.63,273.79 72.93,274.13 73.23,274.47C73.53,274.81 73.83,275.16 74.14,275.48C74.44,275.79 74.73,276.12 75.04,276.37C75.33,276.6 75.64,276.81 75.95,276.95C76.24,277.08 76.55,277.17 76.85,277.2C77.15,277.23 77.45,277.21 77.75,277.15C78.06,277.08 78.37,276.96 78.66,276.8C78.97,276.63 79.27,276.41 79.56,276.17C79.87,275.92 80.18,275.62 80.47,275.31C80.78,274.98 81.08,274.63 81.37,274.26C81.68,273.88 81.97,273.48 82.27,273.07C82.58,272.64 82.88,272.19 83.18,271.72C83.49,271.23 83.79,270.72 84.08,270.19C84.39,269.62 84.7,269.03 84.99,268.4C85.3,267.72 85.6,266.99 85.89,266.24C86.2,265.43 86.5,264.57 86.79,263.69C87.1,262.76 87.4,261.78 87.7,260.79C88.01,259.77 88.3,258.7 88.6,257.65C88.9,256.59 89.21,255.51 89.51,254.44C89.81,253.38 90.1,252.32 90.41,251.28C90.71,250.27 91.01,249.27 91.32,248.29C91.62,247.35 91.91,246.41 92.22,245.52C92.51,244.67 92.81,243.84 93.12,243.05C93.41,242.3 93.72,241.57 94.03,240.88C94.32,240.24 94.62,239.62 94.93,239.04C95.22,238.51 95.53,238 95.84,237.53C96.13,237.1 96.43,236.68 96.74,236.32C97.03,235.98 97.33,235.67 97.64,235.41C97.93,235.16 98.24,234.95 98.55,234.77C98.84,234.6 99.14,234.46 99.45,234.36C99.75,234.27 100.06,234.21 100.36,234.19C100.66,234.17 100.96,234.19 101.26,234.25C101.56,234.31 101.87,234.41 102.16,234.55C102.47,234.7 102.78,234.89 103.07,235.11C103.38,235.35 103.68,235.64 103.97,235.95C104.29,236.29 104.59,236.68 104.88,237.09C105.19,237.53 105.49,238.02 105.78,238.53C106.09,239.07 106.39,239.65 106.68,240.25C106.99,240.89 107.29,241.57 107.59,242.26C107.9,242.98 108.19,243.74 108.49,244.5C108.8,245.29 109.1,246.11 109.4,246.92C109.7,247.74 109.99,248.6 110.3,249.41C110.6,250.2 110.88,251.04 111.21,251.72C111.49,252.29 111.75,252.9 112.11,253.22C112.38,253.46 112.71,253.6 113.01,253.62C113.31,253.64 113.63,253.49 113.92,253.33C114.24,253.15 114.53,252.84 114.82,252.53C115.14,252.18 115.44,251.74 115.73,251.29C116.05,250.79 116.34,250.22 116.63,249.63C116.94,248.99 117.24,248.31 117.53,247.6C117.84,246.84 118.15,246.04 118.44,245.22C118.75,244.36 119.04,243.47 119.34,242.56C119.65,241.61 119.95,240.63 120.25,239.64C120.56,238.63 120.85,237.59 121.15,236.55C121.45,235.49 121.75,234.42 122.05,233.35C122.35,232.29 122.66,231.21 122.96,230.16C123.26,229.13 123.55,228.1 123.86,227.11C124.16,226.16 124.46,225.22 124.77,224.33C125.06,223.49 125.35,222.67 125.67,221.91C125.96,221.22 126.26,220.55 126.58,219.95C126.87,219.42 127.15,218.9 127.48,218.49C127.76,218.13 128.05,217.79 128.38,217.58C128.66,217.4 128.98,217.26 129.29,217.24C129.59,217.22 129.9,217.31 130.19,217.45C130.51,217.6 130.81,217.89 131.1,218.17C131.41,218.47 131.67,218.98 132,219.19C132.28,219.37 132.64,219.58 132.9,219.46C133.29,219.28 133.53,218.23 133.81,217.53C134.13,216.73 134.4,215.77 134.71,214.91C135.01,214.08 135.31,213.24 135.62,212.47C135.91,211.76 136.2,211.06 136.52,210.45C136.8,209.9 137.09,209.37 137.42,208.95C137.7,208.59 138,208.24 138.33,208.04C138.61,207.87 138.93,207.75 139.23,207.77C139.54,207.79 139.86,207.97 140.14,208.19C140.48,208.45 140.76,208.89 141.04,209.33C141.37,209.86 141.67,210.52 141.95,211.2C142.28,211.99 142.56,212.88 142.85,213.8C143.17,214.83 143.46,215.96 143.75,217.12C144.07,218.39 144.37,219.73 144.66,221.11C144.97,222.59 145.27,224.15 145.56,225.73C145.87,227.4 146.17,229.13 146.47,230.89C146.78,232.72 147.07,234.6 147.37,236.49C147.67,238.44 147.97,240.42 148.27,242.41C148.57,244.43 148.88,246.48 149.18,248.53C149.48,250.59 149.78,252.66 150.08,254.72C150.38,256.76 150.68,258.82 150.99,260.83C151.29,262.78 151.58,264.75 151.89,266.6C152.18,268.33 152.48,270.01 152.79,271.62C153.08,273.12 153.39,274.58 153.7,275.97C153.99,277.26 154.28,278.54 154.6,279.7C154.89,280.72 155.15,281.78 155.51,282.56C155.78,283.15 156.04,283.83 156.41,284.03C156.68,284.17 157.05,284.15 157.32,283.99C157.69,283.77 157.95,283.1 158.22,282.51C158.57,281.73 158.84,280.68 159.12,279.66C159.44,278.51 159.73,277.2 160.03,275.94C160.34,274.64 160.63,273.29 160.93,271.99C161.23,270.71 161.55,269.54 161.84,268.2C162.16,266.71 162.43,265.01 162.74,263.46C163.03,261.96 163.33,260.47 163.64,259.05C163.93,257.73 164.24,256.44 164.55,255.22C164.84,254.1 165.13,253.01 165.45,252C165.74,251.08 166.04,250.2 166.36,249.39C166.65,248.67 166.94,247.99 167.26,247.38C167.54,246.84 167.84,246.33 168.16,245.89C168.45,245.49 168.76,245.15 169.07,244.83C169.36,244.53 169.67,244.29 169.97,244.02C170.27,243.75 170.59,243.52 170.88,243.23C171.19,242.92 171.49,242.57 171.78,242.19C172.1,241.77 172.39,241.29 172.68,240.8C172.99,240.27 173.29,239.7 173.59,239.13C173.9,238.54 174.19,237.92 174.49,237.3C174.79,236.67 175.1,236.04 175.4,235.4C175.7,234.76 176,234.1 176.3,233.46C176.6,232.82 176.91,232.19 177.21,231.57C177.51,230.96 177.8,230.35 178.11,229.77C178.41,229.21 178.7,228.65 179.01,228.12C179.31,227.61 179.61,227.13 179.92,226.66C180.21,226.22 180.51,225.78 180.82,225.38C181.12,224.99 181.42,224.63 181.73,224.28C182.03,223.94 182.32,223.62 182.63,223.31C182.93,223.01 183.23,222.74 183.53,222.46C183.83,222.19 184.14,221.92 184.44,221.66C184.74,221.4 185.04,221.15 185.34,220.9C185.64,220.64 185.95,220.39 186.25,220.13C186.55,219.87 186.85,219.61 187.15,219.34C187.45,219.07 187.75,218.8 188.05,218.52C188.35,218.24 188.66,217.96 188.96,217.67C189.26,217.38 189.56,217.08 189.86,216.78C190.16,216.47 190.47,216.16 190.77,215.83C191.08,215.48 191.38,215.13 191.67,214.74C191.98,214.32 192.29,213.88 192.58,213.39C192.9,212.86 193.19,212.26 193.48,211.66C193.79,211.03 194.08,210.34 194.38,209.7C194.68,209.07 194.97,208.42 195.29,207.84C195.58,207.31 195.87,206.79 196.19,206.36C196.47,205.99 196.77,205.61 197.1,205.39C197.38,205.2 197.7,205.04 198,205.04C198.3,205.04 198.62,205.19 198.9,205.38C199.23,205.61 199.53,206.01 199.81,206.43C200.15,206.93 200.43,207.56 200.71,208.22C201.04,208.98 201.33,209.85 201.62,210.76C201.94,211.77 202.23,212.88 202.52,214.02C202.84,215.28 203.13,216.62 203.42,218C203.73,219.49 204.04,221.06 204.33,222.66C204.64,224.36 204.94,226.13 205.23,227.93C205.54,229.82 205.84,231.8 206.14,233.76C206.44,235.76 206.72,237.9 207.04,239.81C207.33,241.54 207.63,243.21 207.95,244.74C208.23,246.08 208.55,247.22 208.85,248.48C209.15,249.75 209.45,251.01 209.75,252.32C210.06,253.69 210.36,255.1 210.66,256.53C210.97,258.01 211.26,259.54 211.56,261.07C211.87,262.64 212.17,264.25 212.47,265.85C212.77,267.47 213.07,269.12 213.37,270.75C213.67,272.37 213.96,274.01 214.27,275.58C214.56,277.07 214.83,278.67 215.18,279.92C215.45,280.91 215.64,282.11 216.08,282.52C216.34,282.76 216.73,282.9 216.99,282.78C217.38,282.61 217.63,281.69 217.89,280.94C218.26,279.89 218.51,278.43 218.79,276.98C219.13,275.23 219.41,273.19 219.7,271.16C220.02,268.94 220.3,266.55 220.6,264.18C220.91,261.73 221.21,259.21 221.51,256.71C221.81,254.2 222.11,251.65 222.41,249.14C222.71,246.64 223.02,244.14 223.32,241.68C223.62,239.26 223.92,236.85 224.22,234.48C224.52,232.16 224.81,229.86 225.12,227.61C225.42,225.43 225.72,223.27 226.03,221.16C226.33,219.12 226.62,217.12 226.93,215.16C227.23,213.28 227.53,211.43 227.84,209.64C228.13,207.94 228.43,206.27 228.74,204.67C229.03,203.16 229.33,201.69 229.64,200.29C229.93,199 230.23,197.75 230.55,196.59C230.84,195.54 231.13,194.53 231.45,193.61C231.74,192.8 232.04,192.04 232.36,191.35C232.64,190.74 232.95,190.2 233.26,189.68C233.55,189.2 233.87,188.82 234.16,188.33C234.48,187.77 234.79,187.2 235.07,186.49C235.41,185.61 235.67,184.44 235.97,183.4C236.28,182.33 236.58,181.23 236.88,180.15C237.18,179.09 237.47,178.02 237.78,176.99C238.08,175.99 238.37,175 238.68,174.05C238.97,173.15 239.28,172.26 239.59,171.42C239.88,170.64 240.17,169.88 240.49,169.17C240.78,168.52 241.08,167.9 241.4,167.33C241.69,166.82 241.98,166.33 242.3,165.9C242.59,165.51 242.89,165.15 243.21,164.84C243.5,164.55 243.8,164.31 244.11,164.09C244.4,163.88 244.71,163.71 245.01,163.53C245.31,163.35 245.62,163.21 245.92,163.01C246.23,162.8 246.53,162.58 246.82,162.3C247.14,161.98 247.45,161.6 247.73,161.16C248.06,160.65 248.35,160.04 248.63,159.38C248.96,158.61 249.25,157.72 249.53,156.79C249.86,155.72 250.15,154.53 250.44,153.3C250.76,151.93 251.05,150.45 251.34,148.94C251.65,147.31 251.96,145.58 252.25,143.83C252.56,141.99 252.85,140.08 253.15,138.16C253.45,136.19 253.75,134.17 254.05,132.17C254.35,130.15 254.66,128.1 254.96,126.08C255.26,124.07 255.56,122.05 255.86,120.06C256.16,118.1 256.47,116.14 256.77,114.21C257.07,112.31 257.37,110.43 257.67,108.57C257.97,106.74 258.27,104.93 258.58,103.14C258.88,101.39 259.17,99.65 259.48,97.96C259.77,96.33 260.07,94.71 260.38,93.16C260.67,91.7 260.97,90.26 261.29,88.92C261.58,87.69 261.87,86.49 262.19,85.4C262.48,84.43 262.77,83.5 263.1,82.69C263.38,82 263.66,81.34 264,80.84C264.27,80.44 264.56,80.04 264.9,79.88C265.18,79.75 265.53,79.72 265.81,79.82C266.14,79.94 266.44,80.29 266.71,80.65C267.06,81.1 267.34,81.72 267.62,82.37C267.95,83.14 268.24,84.04 268.52,84.99C268.84,86.08 269.13,87.29 269.42,88.56C269.74,89.99 270.04,91.53 270.33,93.13C270.65,94.9 270.94,96.78 271.23,98.73C271.55,100.85 271.85,103.09 272.14,105.39C272.45,107.87 272.75,110.46 273.04,113.11C273.35,115.93 273.66,118.85 273.95,121.84C274.26,124.98 274.56,128.22 274.85,131.51C275.16,134.94 275.45,138.47 275.75,142.03C276.06,145.71 276.36,149.46 276.66,153.24C276.97,157.11 277.26,161.04 277.56,164.97C277.86,168.95 278.17,172.98 278.47,176.98C278.77,180.98 279.07,185.01 279.37,188.96C279.67,192.84 279.96,196.74 280.27,200.47C280.56,204.01 280.86,207.58 281.18,210.8C281.46,213.64 281.74,216.44 282.08,218.79C282.35,220.67 282.61,222.48 282.99,223.83C283.25,224.78 283.47,225.97 283.89,226.2C284.15,226.34 284.54,226.23 284.79,226.01C285.23,225.62 285.43,224.39 285.7,223.36C286.06,221.99 286.32,220.24 286.6,218.48C286.93,216.43 287.22,214.12 287.51,211.78C287.83,209.22 288.12,206.49 288.41,203.74C288.72,200.85 289.02,197.85 289.32,194.85C289.63,191.78 289.92,188.63 290.22,185.51C290.52,182.37 290.82,179.2 291.12,176.06C291.42,172.95 291.73,169.84 292.03,166.77C292.33,163.76 292.62,160.76 292.93,157.83C293.23,154.98 293.53,152.17 293.84,149.42C294.14,146.78 294.43,144.19 294.74,141.67C295.03,139.28 295.33,136.94 295.64,134.68C295.93,132.56 296.24,130.49 296.55,128.51C296.84,126.68 297.13,124.9 297.45,123.22C297.74,121.68 298.04,120.19 298.36,118.81C298.65,117.57 298.94,116.38 299.26,115.3C299.54,114.35 299.83,113.45 300.16,112.66C300.44,111.99 300.73,111.34 301.07,110.84C301.35,110.43 301.64,110.04 301.97,109.82C302.25,109.64 302.58,109.52 302.88,109.54C303.18,109.56 303.5,109.73 303.78,109.94C304.11,110.18 304.4,110.58 304.68,110.97C305.01,111.42 305.3,111.98 305.59,112.54C305.91,113.16 306.2,113.85 306.49,114.55C306.8,115.3 307.1,116.09 307.4,116.89C307.71,117.73 308,118.61 308.3,119.49C308.61,120.4 308.91,121.34 309.21,122.28C309.52,123.25 309.81,124.23 310.11,125.22C310.41,126.22 310.71,127.23 311.01,128.25C311.31,129.27 311.62,130.31 311.92,131.34C312.22,132.37 312.52,133.4 312.82,134.42C313.12,135.44 313.43,136.45 313.73,137.46C314.03,138.46 314.33,139.46 314.63,140.45C314.93,141.42 315.23,142.39 315.53,143.34C315.83,144.28 316.14,145.21 316.44,146.13C316.74,147.03 317.04,147.92 317.34,148.8C317.64,149.66 317.94,150.51 318.25,151.35C318.55,152.17 318.85,152.97 319.15,153.77C319.45,154.55 319.75,155.31 320.05,156.07C320.35,156.81 320.66,157.54 320.96,158.26C321.26,158.97 321.56,159.67 321.86,160.36C322.16,161.05 322.47,161.72 322.77,162.4C323.07,163.07 323.37,163.73 323.67,164.39C323.97,165.05 324.28,165.7 324.58,166.36C324.88,167.02 325.18,167.68 325.48,168.34C325.78,169.01 326.08,169.67 326.38,170.35C326.68,171.03 326.99,171.72 327.29,172.42C327.6,173.14 327.89,173.86 328.19,174.61C328.5,175.39 328.8,176.18 329.1,177C329.41,177.86 329.71,178.73 330,179.64C330.31,180.59 330.61,181.58 330.9,182.59C331.21,183.65 331.51,184.75 331.81,185.87C332.12,187.03 332.41,188.22 332.71,189.41C333.01,190.63 333.32,191.86 333.62,193.1C333.92,194.36 334.22,195.62 334.52,196.9C334.82,198.22 335.12,199.54 335.42,200.9C335.73,202.3 336.03,203.72 336.33,205.16C336.64,206.64 336.93,208.14 337.23,209.65C337.54,211.2 337.84,212.77 338.14,214.35C338.44,215.95 338.74,217.56 339.04,219.18C339.34,220.81 339.65,222.46 339.95,224.11C340.25,225.76 340.55,227.43 340.85,229.06C341.15,230.65 341.44,232.23 341.75,233.76C342.05,235.22 342.36,236.62 342.66,238.05C342.96,239.47 343.26,240.89 343.56,242.31C343.86,243.74 344.17,245.16 344.47,246.59C344.77,248.02 345.07,249.45 345.37,250.88C345.67,252.31 345.97,253.74 346.27,255.16C346.57,256.57 346.88,257.98 347.18,259.37C347.48,260.74 347.77,262.11 348.08,263.45C348.38,264.76 348.68,266.07 348.99,267.33C349.29,268.54 349.58,269.72 349.89,270.86C350.18,271.93 350.48,272.97 350.79,273.96C351.08,274.88 351.38,275.77 351.7,276.6C351.99,277.36 352.28,278.09 352.6,278.75C352.89,279.34 353.19,279.9 353.51,280.39C353.8,280.82 354.09,281.22 354.41,281.56C354.7,281.87 355.01,282.13 355.32,282.36C355.61,282.57 355.91,282.75 356.22,282.88C356.51,283.01 356.82,283.11 357.12,283.16C357.42,283.21 357.73,283.23 358.03,283.21C358.33,283.19 358.64,283.14 358.93,283.05C359.24,282.95 359.55,282.81 359.84,282.62C360.16,282.41 360.46,282.14 360.74,281.82C361.06,281.45 361.35,281 361.64,280.52C361.96,279.98 362.26,279.37 362.55,278.75C362.86,278.08 363.16,277.37 363.45,276.64C363.76,275.87 364.07,275.06 364.36,274.23C364.67,273.36 364.97,272.45 365.26,271.53C365.57,270.57 365.86,269.57 366.16,268.57C366.47,267.54 366.77,266.48 367.07,265.42C367.37,264.34 367.67,263.23 367.97,262.13C368.27,261.02 368.58,259.89 368.88,258.77C369.18,257.65 369.48,256.53 369.78,255.42C370.08,254.32 370.38,253.21 370.68,252.12C370.98,251.05 371.28,249.98 371.59,248.93C371.89,247.9 372.18,246.89 372.49,245.89C372.79,244.92 373.09,243.97 373.4,243.04C373.7,242.15 373.99,241.27 374.3,240.43C374.59,239.63 374.9,238.84 375.21,238.09C375.5,237.38 375.8,236.69 376.11,236.04C376.4,235.44 376.69,234.86 377.01,234.33C377.3,233.84 377.6,233.38 377.92,232.98C378.21,232.62 378.5,232.28 378.82,232.02C379.11,231.79 379.42,231.57 379.73,231.46C380.02,231.35 380.33,231.3 380.63,231.33C380.93,231.36 381.24,231.48 381.53,231.64C381.85,231.82 382.15,232.1 382.44,232.39C382.76,232.71 383.05,233.12 383.34,233.52C383.65,233.95 383.94,234.46 384.25,234.92C384.55,235.37 384.84,235.82 385.15,236.24C385.44,236.65 385.75,237 386.05,237.41C386.36,237.83 386.67,238.26 386.96,238.73C387.28,239.25 387.57,239.82 387.86,240.4C388.17,241.01 388.43,241.76 388.77,242.3C389.05,242.74 389.38,243.04 389.67,243.43C389.98,243.84 390.29,244.26 390.58,244.73C390.89,245.23 391.19,245.79 391.48,246.36C391.79,246.96 392.08,247.6 392.38,248.22C392.68,248.85 392.99,249.49 393.29,250.13C393.59,250.77 393.89,251.39 394.19,252.04C394.5,252.7 394.8,253.36 395.1,254.05C395.41,254.76 395.71,255.49 396,256.24C396.31,257.02 396.6,257.82 396.9,258.64C397.21,259.48 397.51,260.35 397.81,261.22C398.12,262.11 398.41,263.03 398.71,263.94C399.01,264.87 399.32,265.81 399.62,266.75C399.92,267.68 400.21,268.64 400.52,269.55C400.82,270.43 401.1,271.33 401.42,272.15C401.71,272.9 402.01,273.62 402.33,274.26C402.62,274.83 402.9,275.4 403.23,275.84C403.51,276.22 403.81,276.6 404.14,276.79C404.42,276.95 404.75,277.02 405.04,276.98C405.35,276.94 405.66,276.74 405.95,276.54C406.27,276.32 406.56,276 406.85,275.69C407.16,275.36 407.45,274.99 407.75,274.62C408.06,274.24 408.36,273.83 408.66,273.43C408.96,273.03 409.26,272.64 409.56,272.23C409.86,271.82 410.17,271.41 410.47,270.97C410.78,270.51 411.06,269.98 411.37,269.52C411.66,269.08 411.96,268.65 412.27,268.27C412.56,267.92 412.86,267.59 413.18,267.32C413.47,267.08 413.77,266.86 414.08,266.72C414.37,266.58 414.68,266.49 414.99,266.46C415.29,266.43 415.59,266.46 415.89,266.51C416.19,266.56 416.49,266.67 416.79,266.76C417.09,266.85 417.4,266.95 417.7,267.07C418,267.19 418.3,267.33 418.6,267.49C418.91,267.65 419.21,267.84 419.51,268.04C419.82,268.25 420.11,268.48 420.41,268.72C420.72,268.97 421.02,269.23 421.32,269.51C421.63,269.79 421.92,270.09 422.22,270.4C422.52,270.72 422.82,271.05 423.12,271.4C423.43,271.76 423.73,272.13 424.03,272.51C424.34,272.9 424.63,273.3 424.93,273.71C425.23,274.13 425.54,274.55 425.84,274.98C426.14,275.41 426.44,275.85 426.74,276.29C427.04,276.73 427.34,277.17 427.64,277.6C427.94,278.02 428.25,278.44 428.55,278.85C428.85,279.25 429.15,279.64 429.45,280.04C429.75,280.44 430.06,280.84 430.36,281.24C430.66,281.65 430.96,282.06 431.26,282.48C431.56,282.91 431.86,283.35 432.16,283.8C432.46,284.25 432.76,284.73 433.07,285.17C433.36,285.59 433.63,286.09 433.97,286.36C434.25,286.58 434.57,286.67 434.88,286.77C435.18,286.87 435.48,286.93 435.78,286.97C436.08,287.01 436.38,287.05 436.68,287.03C436.98,287.01 437.3,286.95 437.59,286.82C437.9,286.68 438.21,286.49 438.49,286.21C438.83,285.87 439.11,285.34 439.4,284.85C439.72,284.32 440,283.7 440.3,283.14C440.6,282.59 440.9,282.03 441.21,281.5C441.51,280.99 441.8,280.48 442.11,280C442.4,279.54 442.7,279.09 443.01,278.67C443.3,278.27 443.61,277.89 443.92,277.53C444.21,277.19 444.51,276.86 444.82,276.57C445.11,276.29 445.42,276.04 445.73,275.81C446.02,275.59 446.32,275.39 446.63,275.23C446.92,275.07 447.22,274.94 447.53,274.84C447.83,274.74 448.14,274.67 448.44,274.61C448.74,274.55 449.04,274.54 449.34,274.49C449.64,274.44 449.95,274.4 450.25,274.33C450.55,274.26 450.85,274.16 451.15,274.08C451.45,274 451.75,273.9 452.05,273.83C452.35,273.76 452.66,273.69 452.96,273.66C453.26,273.63 453.56,273.63 453.86,273.67C454.16,273.71 454.47,273.79 454.77,273.9C455.08,274.02 455.38,274.18 455.67,274.36C455.98,274.55 456.28,274.78 456.58,275.03C456.89,275.29 457.18,275.58 457.48,275.88C457.78,276.19 458.08,276.51 458.38,276.84C458.68,277.17 458.99,277.52 459.29,277.86C459.59,278.2 459.88,278.55 460.19,278.87C460.49,279.18 460.79,279.5 461.1,279.77Q461.39,280.03 462,280.46" style="vector-effect: non-scaling-stroke; fill: none; stroke: rgb(0, 176, 246); stroke-opacity: 1; stroke-width: 2px; opacity: 1;"/></g><g class="points"/><g class="text"/></g><g class="trace scatter traceb42590" style="stroke-miterlimit: 2; opacity: 1;"><g class="fills"/><g class="errorbars"/><g class="lines"><path class="js-line" d="M0,180.95Q0.64,179 0.9,177.71C1.28,175.87 1.52,173.33 1.81,170.93C2.13,168.24 2.42,165.3 2.71,162.35C3.02,159.2 3.32,155.91 3.62,152.59C3.93,149.15 4.22,145.61 4.52,142.06C4.82,138.44 5.12,134.76 5.42,131.08C5.72,127.37 6.03,123.62 6.33,119.89C6.63,116.15 6.93,112.4 7.23,108.67C7.53,104.97 7.84,101.27 8.14,97.61C8.44,94 8.74,90.41 9.04,86.86C9.34,83.38 9.64,79.93 9.95,76.54C10.25,73.24 10.54,69.98 10.85,66.78C11.15,63.69 11.44,60.63 11.75,57.66C12.05,54.81 12.35,52.01 12.66,49.3C12.95,46.72 13.25,44.19 13.56,41.75C13.85,39.46 14.16,37.22 14.47,35.08C14.76,33.1 15.06,31.17 15.37,29.36C15.66,27.7 15.95,26.1 16.27,24.62C16.56,23.3 16.85,22.03 17.18,20.9C17.46,19.92 17.74,18.98 18.08,18.21C18.36,17.58 18.63,16.96 18.99,16.58C19.26,16.29 19.59,16.01 19.89,16C20.19,15.99 20.52,16.22 20.79,16.47C21.15,16.8 21.42,17.39 21.7,17.97C22.04,18.69 22.32,19.58 22.6,20.49C22.93,21.55 23.22,22.74 23.51,23.97C23.83,25.35 24.12,26.85 24.41,28.39C24.73,30.07 25.03,31.86 25.32,33.69C25.63,35.65 25.93,37.71 26.22,39.81C26.53,42.04 26.83,44.34 27.12,46.69C27.43,49.15 27.73,51.68 28.03,54.24C28.34,56.9 28.63,59.61 28.93,62.36C29.24,65.19 29.54,68.07 29.84,70.96C30.14,73.91 30.44,76.9 30.74,79.9C31.04,82.93 31.34,85.99 31.64,89.04C31.94,92.09 32.25,95.15 32.55,98.18C32.85,101.18 33.14,104.18 33.45,107.12C33.75,109.99 34.05,112.85 34.36,115.63C34.66,118.31 34.95,120.95 35.26,123.51C35.55,125.95 35.85,128.33 36.16,130.64C36.45,132.82 36.76,134.94 37.07,137C37.36,138.95 37.66,140.83 37.97,142.67C38.26,144.41 38.57,146.1 38.88,147.76C39.18,149.35 39.48,150.91 39.78,152.44C40.08,153.93 40.38,155.38 40.68,156.83C40.98,158.25 41.29,159.65 41.59,161.05C41.89,162.44 42.19,163.81 42.49,165.19C42.79,166.57 43.1,167.94 43.4,169.31C43.7,170.69 44,172.06 44.3,173.44C44.6,174.82 44.91,176.19 45.21,177.57C45.51,178.94 45.81,180.31 46.11,181.68C46.41,183.04 46.71,184.4 47.01,185.75C47.31,187.08 47.62,188.41 47.92,189.72C48.22,191.01 48.52,192.3 48.82,193.57C49.12,194.81 49.42,196.04 49.73,197.25C50.03,198.43 50.33,199.61 50.63,200.76C50.93,201.89 51.22,203 51.53,204.09C51.83,205.16 52.14,206.2 52.44,207.24C52.74,208.26 53.04,209.27 53.34,210.27C53.64,211.26 53.95,212.24 54.25,213.23C54.55,214.22 54.85,215.2 55.15,216.19C55.45,217.19 55.75,218.19 56.05,219.2C56.35,220.23 56.66,221.28 56.96,222.34C57.26,223.42 57.56,224.52 57.86,225.63C58.17,226.78 58.47,227.94 58.77,229.12C59.08,230.33 59.37,231.56 59.67,232.8C59.98,234.07 60.28,235.37 60.58,236.67C60.88,237.99 61.18,239.33 61.48,240.68C61.78,242.04 62.08,243.42 62.38,244.79C62.68,246.16 62.99,247.54 63.29,248.9C63.59,250.24 63.88,251.57 64.19,252.87C64.49,254.13 64.79,255.39 65.1,256.59C65.39,257.73 65.69,258.85 66,259.91C66.29,260.9 66.58,261.86 66.9,262.75C67.19,263.56 67.49,264.36 67.81,265.06C68.09,265.67 68.37,266.3 68.71,266.73C68.98,267.07 69.3,267.33 69.62,267.52C69.91,267.69 70.22,267.75 70.52,267.86C70.82,267.97 71.12,268.06 71.42,268.18C71.73,268.3 72.03,268.44 72.33,268.6C72.64,268.77 72.93,268.96 73.23,269.16C73.54,269.36 73.84,269.59 74.14,269.8C74.44,270.01 74.73,270.24 75.04,270.44C75.34,270.63 75.64,270.83 75.95,270.96C76.24,271.08 76.55,271.19 76.85,271.19C77.15,271.19 77.47,271.11 77.75,270.96C78.07,270.79 78.38,270.49 78.66,270.17C78.99,269.8 79.27,269.32 79.56,268.83C79.88,268.29 80.18,267.68 80.47,267.05C80.78,266.37 81.08,265.64 81.37,264.88C81.68,264.07 81.98,263.2 82.27,262.32C82.58,261.39 82.88,260.41 83.18,259.43C83.49,258.41 83.78,257.36 84.08,256.31C84.38,255.25 84.69,254.17 84.99,253.09C85.29,252 85.59,250.9 85.89,249.81C86.19,248.72 86.49,247.63 86.79,246.54C87.09,245.46 87.4,244.38 87.7,243.31C88,242.26 88.3,241.2 88.6,240.17C88.9,239.16 89.2,238.15 89.51,237.17C89.81,236.21 90.1,235.26 90.41,234.34C90.71,233.45 91.01,232.58 91.32,231.73C91.62,230.92 91.91,230.12 92.22,229.35C92.51,228.62 92.81,227.91 93.12,227.23C93.41,226.59 93.72,225.98 94.03,225.4C94.32,224.86 94.62,224.34 94.93,223.86C95.22,223.42 95.52,223 95.84,222.64C96.13,222.31 96.43,222 96.74,221.75C97.03,221.52 97.33,221.33 97.64,221.2C97.93,221.08 98.25,221 98.55,220.99C98.85,220.98 99.16,221.03 99.45,221.13C99.76,221.23 100.07,221.41 100.36,221.62C100.68,221.85 100.97,222.13 101.26,222.45C101.58,222.8 101.87,223.2 102.16,223.63C102.48,224.09 102.78,224.6 103.07,225.13C103.38,225.7 103.68,226.31 103.97,226.94C104.28,227.61 104.59,228.32 104.88,229.04C105.19,229.8 105.49,230.6 105.78,231.41C106.09,232.26 106.38,233.13 106.68,234.02C106.99,234.94 107.29,235.89 107.59,236.84C107.9,237.82 108.19,238.81 108.49,239.82C108.79,240.85 109.1,241.89 109.4,242.94C109.7,244 110,245.06 110.3,246.13C110.6,247.2 110.91,248.28 111.21,249.36C111.51,250.43 111.81,251.51 112.11,252.58C112.41,253.64 112.71,254.7 113.01,255.74C113.31,256.76 113.61,257.78 113.92,258.77C114.22,259.73 114.51,260.69 114.82,261.6C115.11,262.46 115.41,263.33 115.73,264.11C116.02,264.81 116.3,265.49 116.63,266.06C116.91,266.56 117.21,267 117.53,267.38C117.82,267.72 118.13,268 118.44,268.25C118.73,268.48 119.04,268.82 119.34,268.83C119.64,268.84 119.97,268.56 120.25,268.31C120.59,268 120.86,267.47 121.15,267.02C121.46,266.54 121.77,266.06 122.05,265.5C122.37,264.86 122.67,264.11 122.96,263.37C123.27,262.58 123.56,261.73 123.86,260.91C124.16,260.08 124.47,259.25 124.77,258.42C125.07,257.59 125.37,256.78 125.67,255.94C125.98,255.07 126.29,254.22 126.58,253.28C126.9,252.25 127.18,251.1 127.48,250.01C127.78,248.91 128.08,247.8 128.38,246.71C128.68,245.63 128.98,244.55 129.29,243.49C129.59,242.46 129.88,241.43 130.19,240.43C130.49,239.46 130.79,238.5 131.1,237.57C131.4,236.68 131.69,235.8 132,234.96C132.29,234.17 132.59,233.4 132.9,232.67C133.19,231.99 133.49,231.32 133.81,230.71C134.1,230.15 134.39,229.6 134.71,229.12C135,228.68 135.3,228.27 135.62,227.92C135.91,227.61 136.2,227.32 136.52,227.12C136.81,226.94 137.11,226.8 137.42,226.74C137.72,226.69 138.04,226.7 138.33,226.78C138.64,226.86 138.94,227.04 139.23,227.24C139.55,227.47 139.85,227.78 140.14,228.12C140.46,228.49 140.75,228.94 141.04,229.4C141.36,229.91 141.66,230.48 141.95,231.08C142.27,231.73 142.56,232.43 142.85,233.15C143.16,233.93 143.46,234.75 143.75,235.59C144.06,236.49 144.37,237.43 144.66,238.39C144.97,239.41 145.27,240.46 145.56,241.54C145.87,242.67 146.17,243.84 146.47,245.02C146.78,246.25 147.07,247.51 147.37,248.79C147.67,250.11 147.97,251.46 148.27,252.81C148.57,254.18 148.88,255.58 149.18,256.95C149.48,258.32 149.78,259.67 150.08,261.03C150.38,262.38 150.69,263.72 150.99,265.07C151.29,266.41 151.59,267.76 151.89,269.1C152.19,270.44 152.49,271.77 152.79,273.1C153.09,274.41 153.39,275.73 153.7,277.01C154,278.26 154.29,279.53 154.6,280.71C154.89,281.8 155.1,283.11 155.51,283.82C155.77,284.27 156.09,284.72 156.41,284.77C156.7,284.81 157.04,284.48 157.32,284.24C157.64,283.97 157.93,283.58 158.22,283.2C158.53,282.78 158.83,282.3 159.12,281.82C159.43,281.31 159.73,280.75 160.03,280.21C160.33,279.66 160.63,279.1 160.93,278.54C161.23,277.99 161.54,277.43 161.84,276.88C162.14,276.34 162.44,275.8 162.74,275.26C163.04,274.72 163.34,274.19 163.64,273.64C163.95,273.08 164.25,272.52 164.55,271.93C164.86,271.32 165.16,270.7 165.45,270.04C165.76,269.34 166.07,268.61 166.36,267.85C166.67,267.05 166.97,266.22 167.26,265.37C167.57,264.49 167.86,263.57 168.16,262.65C168.46,261.71 168.77,260.76 169.07,259.8C169.37,258.84 169.67,257.86 169.97,256.89C170.27,255.92 170.58,254.94 170.88,253.98C171.18,253.04 171.47,252.1 171.78,251.2C172.07,250.34 172.37,249.49 172.68,248.69C172.97,247.93 173.28,247.19 173.59,246.5C173.88,245.86 174.18,245.23 174.49,244.66C174.78,244.13 175.08,243.63 175.4,243.17C175.69,242.75 175.99,242.36 176.3,242.01C176.59,241.69 176.9,241.4 177.21,241.14C177.5,240.9 177.8,240.7 178.11,240.51C178.4,240.33 178.71,240.18 179.01,240.04C179.31,239.91 179.62,239.8 179.92,239.69C180.22,239.58 180.52,239.49 180.82,239.37C181.12,239.25 181.43,239.14 181.73,238.98C182.04,238.82 182.34,238.63 182.63,238.4C182.94,238.16 183.24,237.87 183.53,237.56C183.84,237.22 184.15,236.84 184.44,236.44C184.75,236.02 185.05,235.55 185.34,235.08C185.65,234.58 185.95,234.06 186.25,233.53C186.56,232.98 186.85,232.4 187.15,231.82C187.45,231.22 187.75,230.61 188.05,229.99C188.35,229.36 188.66,228.73 188.96,228.09C189.26,227.45 189.56,226.81 189.86,226.17C190.16,225.54 190.47,224.91 190.77,224.29C191.07,223.68 191.36,223.08 191.67,222.5C191.97,221.94 192.27,221.39 192.58,220.86C192.87,220.36 193.17,219.86 193.48,219.41C193.77,218.99 194.07,218.58 194.38,218.22C194.67,217.89 194.97,217.56 195.29,217.31C195.58,217.08 195.88,216.87 196.19,216.74C196.48,216.62 196.8,216.53 197.1,216.53C197.4,216.53 197.71,216.6 198,216.72C198.31,216.85 198.61,217.08 198.9,217.33C199.22,217.62 199.52,217.98 199.81,218.38C200.13,218.82 200.42,219.34 200.71,219.88C201.03,220.48 201.33,221.15 201.62,221.85C201.94,222.61 202.23,223.43 202.52,224.28C202.83,225.2 203.13,226.18 203.42,227.18C203.73,228.26 204.04,229.38 204.33,230.54C204.64,231.77 204.94,233.05 205.23,234.36C205.54,235.74 205.84,237.16 206.14,238.61C206.45,240.13 206.74,241.69 207.04,243.28C207.35,244.93 207.65,246.63 207.95,248.35C208.26,250.12 208.55,251.93 208.85,253.75C209.15,255.62 209.45,257.53 209.75,259.44C210.05,261.37 210.36,263.34 210.66,265.27C210.96,267.18 211.24,269.19 211.56,270.96C211.85,272.53 212.16,273.96 212.47,275.38C212.76,276.7 213.07,277.93 213.37,279.18C213.67,280.39 213.96,281.61 214.27,282.77C214.56,283.87 214.87,284.94 215.18,285.96C215.47,286.92 215.76,287.86 216.08,288.72C216.37,289.49 216.64,290.31 216.99,290.89C217.26,291.33 217.58,291.93 217.89,291.96C218.18,291.99 218.53,291.6 218.79,291.22C219.21,290.59 219.42,289.35 219.7,288.22C220.04,286.82 220.31,285.11 220.6,283.42C220.92,281.54 221.23,279.59 221.51,277.45C221.84,274.99 222.11,272.15 222.41,269.5C222.71,266.85 223.02,264.19 223.32,261.56C223.62,258.96 223.92,256.37 224.22,253.81C224.52,251.3 224.81,248.81 225.12,246.37C225.42,243.99 225.72,241.64 226.03,239.34C226.33,237.11 226.62,234.92 226.93,232.78C227.23,230.73 227.53,228.71 227.84,226.75C228.13,224.88 228.43,223.05 228.74,221.28C229.03,219.61 229.33,217.98 229.64,216.42C229.93,214.96 230.24,213.54 230.55,212.19C230.84,210.94 231.13,209.74 231.45,208.61C231.74,207.58 232.04,206.59 232.36,205.68C232.65,204.87 232.93,204.09 233.26,203.41C233.54,202.82 233.83,202.26 234.16,201.82C234.44,201.45 234.74,201.09 235.07,200.9C235.35,200.74 235.67,200.65 235.97,200.68C236.28,200.71 236.6,200.9 236.88,201.13C237.21,201.4 237.5,201.83 237.78,202.27C238.11,202.79 238.4,203.41 238.68,204.06C239,204.8 239.3,205.62 239.59,206.47C239.91,207.41 240.2,208.42 240.49,209.45C240.8,210.56 241.11,211.73 241.4,212.93C241.71,214.19 242,215.51 242.3,216.84C242.61,218.22 242.91,219.65 243.21,221.08C243.51,222.54 243.81,224.04 244.11,225.5C244.41,226.95 244.68,228.5 245.01,229.82C245.29,230.95 245.6,231.97 245.92,232.93C246.21,233.78 246.5,234.58 246.82,235.32C247.11,236 247.39,236.69 247.73,237.22C248.01,237.65 248.29,238.14 248.63,238.3C248.9,238.43 249.26,238.43 249.53,238.3C249.88,238.13 250.17,237.63 250.44,237.16C250.79,236.54 251.06,235.69 251.34,234.83C251.67,233.81 251.96,232.62 252.25,231.41C252.57,230.06 252.86,228.59 253.15,227.1C253.46,225.51 253.75,223.84 254.05,222.17C254.36,220.44 254.66,218.66 254.96,216.89C255.26,215.1 255.56,213.28 255.86,211.48C256.16,209.68 256.47,207.88 256.77,206.1C257.07,204.35 257.36,202.61 257.67,200.9C257.97,199.23 258.27,197.57 258.58,195.95C258.88,194.38 259.17,192.82 259.48,191.3C259.78,189.83 260.07,188.38 260.38,186.96C260.68,185.59 260.98,184.24 261.29,182.93C261.59,181.67 261.88,180.44 262.19,179.25C262.48,178.13 262.79,177.02 263.1,175.98C263.39,175.01 263.69,174.06 264,173.18C264.29,172.37 264.58,171.59 264.9,170.89C265.19,170.26 265.49,169.66 265.81,169.14C266.09,168.68 266.38,168.25 266.71,167.91C266.99,167.62 267.3,167.35 267.62,167.19C267.91,167.05 268.22,166.96 268.52,166.97C268.82,166.98 269.14,167.09 269.42,167.25C269.74,167.44 270.05,167.75 270.33,168.08C270.66,168.47 270.95,168.95 271.23,169.47C271.56,170.06 271.85,170.75 272.14,171.46C272.46,172.26 272.75,173.13 273.04,174.04C273.36,175.04 273.66,176.11 273.95,177.22C274.26,178.41 274.56,179.67 274.85,180.95C275.16,182.31 275.45,183.74 275.75,185.18C276.06,186.69 276.36,188.26 276.66,189.83C276.97,191.45 277.26,193.11 277.56,194.77C277.86,196.45 278.17,198.16 278.47,199.85C278.77,201.53 279.06,203.22 279.37,204.86C279.66,206.44 279.94,208.1 280.27,209.5C280.55,210.69 280.7,212.32 281.18,212.75C281.43,212.97 281.82,213.02 282.08,212.89C282.46,212.7 282.72,211.9 282.99,211.21C283.37,210.23 283.61,208.84 283.89,207.46C284.22,205.79 284.5,203.84 284.79,201.86C285.11,199.64 285.41,197.21 285.7,194.76C286.01,192.12 286.3,189.35 286.6,186.55C286.91,183.63 287.21,180.61 287.51,177.58C287.82,174.48 288.11,171.32 288.41,168.17C288.71,164.98 289.02,161.76 289.32,158.55C289.62,155.34 289.92,152.11 290.22,148.91C290.52,145.73 290.82,142.56 291.12,139.41C291.42,136.31 291.73,133.21 292.03,130.16C292.33,127.16 292.62,124.19 292.93,121.26C293.23,118.4 293.53,115.57 293.84,112.8C294.14,110.11 294.43,107.46 294.74,104.87C295.03,102.37 295.33,99.91 295.64,97.52C295.94,95.23 296.24,92.99 296.55,90.82C296.84,88.76 297.14,86.75 297.45,84.82C297.74,83 298.05,81.23 298.36,79.55C298.65,77.99 298.94,76.48 299.26,75.06C299.55,73.76 299.84,72.51 300.16,71.36C300.45,70.33 300.74,69.34 301.07,68.46C301.35,67.7 301.63,66.97 301.97,66.38C302.25,65.88 302.54,65.4 302.88,65.1C303.16,64.86 303.47,64.64 303.78,64.61C304.07,64.58 304.4,64.7 304.68,64.88C305.01,65.09 305.31,65.48 305.59,65.88C305.92,66.35 306.21,66.95 306.49,67.56C306.81,68.26 307.11,69.04 307.4,69.85C307.72,70.74 308.01,71.71 308.3,72.7C308.61,73.76 308.92,74.88 309.21,76.01C309.52,77.2 309.81,78.44 310.11,79.69C310.42,80.98 310.71,82.31 311.01,83.64C311.31,84.99 311.62,86.36 311.92,87.72C312.22,89.09 312.52,90.48 312.82,91.84C313.12,93.19 313.43,94.54 313.73,95.86C314.03,97.16 314.33,98.45 314.63,99.71C314.93,100.94 315.22,102.16 315.53,103.35C315.83,104.51 316.13,105.64 316.44,106.76C316.74,107.84 317.03,108.91 317.34,109.96C317.64,110.98 317.94,111.98 318.25,112.97C318.55,113.93 318.85,114.87 319.15,115.81C319.45,116.73 319.75,117.63 320.05,118.53C320.35,119.42 320.66,120.29 320.96,121.16C321.26,122.02 321.56,122.88 321.86,123.74C322.16,124.6 322.47,125.46 322.77,126.33C323.07,127.21 323.37,128.09 323.67,128.99C323.98,129.91 324.28,130.84 324.58,131.79C324.89,132.77 325.19,133.76 325.48,134.77C325.79,135.82 326.08,136.89 326.38,137.99C326.69,139.13 326.99,140.3 327.29,141.5C327.6,142.75 327.89,144.02 328.19,145.33C328.5,146.69 328.8,148.09 329.1,149.51C329.41,150.99 329.71,152.51 330,154.06C330.31,155.67 330.6,157.32 330.9,158.99C331.21,160.72 331.51,162.49 331.81,164.29C332.12,166.15 332.41,168.04 332.71,169.96C333.02,171.93 333.32,173.94 333.62,175.97C333.93,178.05 334.22,180.17 334.52,182.3C334.82,184.48 335.12,186.7 335.42,188.93C335.72,191.2 336.03,193.49 336.33,195.8C336.63,198.14 336.93,200.51 337.23,202.89C337.53,205.29 337.84,207.71 338.14,210.13C338.44,212.57 338.74,215.03 339.04,217.48C339.34,219.94 339.65,222.4 339.95,224.86C340.25,227.31 340.55,229.77 340.85,232.2C341.15,234.61 341.45,237.02 341.75,239.4C342.05,241.74 342.35,244.08 342.66,246.36C342.96,248.57 343.25,250.77 343.56,252.9C343.86,254.94 344.16,256.95 344.47,258.88C344.76,260.71 345.06,262.49 345.37,264.21C345.66,265.83 345.96,267.4 346.27,268.91C346.56,270.33 346.87,271.71 347.18,273.02C347.47,274.24 347.76,275.44 348.08,276.53C348.37,277.51 348.66,278.46 348.99,279.29C349.27,280.01 349.56,280.69 349.89,281.24C350.17,281.69 350.44,282.23 350.79,282.4C351.06,282.53 351.4,282.45 351.7,282.38C352.01,282.31 352.31,282.12 352.6,281.95C352.91,281.77 353.22,281.56 353.51,281.32C353.82,281.07 354.12,280.8 354.41,280.49C354.72,280.16 355.02,279.77 355.32,279.39C355.63,278.99 355.92,278.56 356.22,278.13C356.52,277.7 356.82,277.26 357.12,276.82C357.42,276.38 357.73,275.93 358.03,275.49C358.33,275.05 358.63,274.61 358.93,274.17C359.23,273.73 359.54,273.28 359.84,272.83C360.14,272.38 360.44,271.93 360.74,271.48C361.04,271.02 361.34,270.56 361.64,270.1C361.94,269.63 362.25,269.16 362.55,268.68C362.85,268.2 363.15,267.7 363.45,267.21C363.75,266.71 364.06,266.21 364.36,265.7C364.66,265.18 364.96,264.65 365.26,264.12C365.56,263.58 365.87,263.05 366.16,262.47C366.47,261.86 366.78,261.22 367.07,260.55C367.38,259.84 367.67,259.08 367.97,258.33C368.28,257.56 368.58,256.77 368.88,255.98C369.18,255.17 369.48,254.35 369.78,253.53C370.08,252.7 370.38,251.85 370.68,251.01C370.98,250.16 371.29,249.31 371.59,248.45C371.89,247.59 372.19,246.73 372.49,245.87C372.79,245.01 373.1,244.15 373.4,243.3C373.7,242.46 374,241.61 374.3,240.78C374.6,239.96 374.91,239.14 375.21,238.33C375.51,237.53 375.81,236.74 376.11,235.96C376.41,235.19 376.71,234.43 377.01,233.68C377.31,232.94 377.62,232.22 377.92,231.5C378.22,230.79 378.52,230.08 378.82,229.38C379.12,228.68 379.43,227.99 379.73,227.31C380.03,226.64 380.32,225.97 380.63,225.33C380.92,224.72 381.22,224.11 381.53,223.55C381.82,223.03 382.12,222.52 382.44,222.06C382.73,221.64 383.02,221.24 383.34,220.91C383.63,220.61 383.93,220.34 384.25,220.14C384.54,219.96 384.84,219.81 385.15,219.76C385.44,219.71 385.76,219.72 386.05,219.8C386.36,219.88 386.67,220.05 386.96,220.25C387.28,220.48 387.57,220.79 387.86,221.13C388.18,221.5 388.48,221.94 388.77,222.41C389.09,222.92 389.38,223.5 389.67,224.1C389.99,224.75 390.29,225.45 390.58,226.18C390.89,226.96 391.19,227.78 391.48,228.62C391.79,229.52 392.09,230.45 392.38,231.41C392.69,232.42 392.99,233.46 393.29,234.52C393.6,235.63 393.89,236.77 394.19,237.92C394.5,239.11 394.8,240.33 395.1,241.57C395.41,242.84 395.7,244.14 396,245.45C396.3,246.78 396.6,248.14 396.9,249.5C397.2,250.89 397.51,252.29 397.81,253.7C398.11,255.12 398.41,256.55 398.71,257.98C399.01,259.41 399.32,260.85 399.62,262.27C399.92,263.68 400.22,265.1 400.52,266.48C400.82,267.83 401.11,269.17 401.42,270.46C401.71,271.68 402.01,272.9 402.33,274.01C402.62,275.01 402.9,276 403.23,276.83C403.51,277.53 403.8,278.2 404.14,278.71C404.41,279.12 404.71,279.49 405.04,279.71C405.32,279.9 405.64,280.01 405.95,280.04C406.25,280.07 406.56,280.01 406.85,279.93C407.16,279.84 407.46,279.68 407.75,279.51C408.06,279.33 408.36,279.11 408.66,278.88C408.97,278.64 409.27,278.37 409.56,278.08C409.87,277.78 410.18,277.46 410.47,277.11C410.78,276.74 411.08,276.33 411.37,275.89C411.68,275.42 411.97,274.9 412.27,274.39C412.57,273.87 412.87,273.33 413.18,272.81C413.48,272.31 413.77,271.81 414.08,271.34C414.38,270.89 414.68,270.46 414.99,270.06C415.28,269.68 415.58,269.32 415.89,268.99C416.18,268.68 416.48,268.4 416.79,268.14C417.09,267.89 417.39,267.67 417.7,267.47C418,267.28 418.3,267.11 418.6,266.95C418.9,266.79 419.21,266.65 419.51,266.52C419.81,266.39 420.11,266.27 420.41,266.17C420.71,266.07 421.02,265.98 421.32,265.93C421.62,265.88 421.92,265.84 422.22,265.85C422.52,265.86 422.82,265.89 423.12,265.97C423.43,266.05 423.74,266.17 424.03,266.33C424.34,266.49 424.64,266.7 424.93,266.94C425.24,267.19 425.55,267.5 425.84,267.82C426.15,268.17 426.45,268.56 426.74,268.97C427.05,269.41 427.35,269.89 427.64,270.39C427.95,270.92 428.26,271.49 428.55,272.07C428.86,272.68 429.15,273.32 429.45,273.98C429.76,274.66 430.06,275.37 430.36,276.09C430.67,276.84 430.96,277.61 431.26,278.38C431.56,279.17 431.86,279.98 432.16,280.79C432.46,281.61 432.77,282.44 433.07,283.26C433.37,284.08 433.67,284.9 433.97,285.71C434.27,286.51 434.57,287.3 434.88,288.07C435.18,288.82 435.47,289.55 435.78,290.26C436.07,290.93 436.37,291.6 436.68,292.22C436.97,292.79 437.26,293.36 437.59,293.83C437.87,294.23 438.15,294.7 438.49,294.88C438.77,295.02 439.12,295.07 439.4,294.97C439.73,294.86 440.01,294.41 440.3,294.1C440.61,293.77 440.91,293.39 441.21,293.05C441.51,292.72 441.81,292.38 442.11,292.07C442.41,291.77 442.7,291.47 443.01,291.2C443.31,290.93 443.61,290.68 443.92,290.45C444.22,290.22 444.52,290.02 444.82,289.82C445.12,289.63 445.42,289.45 445.73,289.28C446.03,289.12 446.33,288.96 446.63,288.82C446.93,288.68 447.23,288.55 447.53,288.42C447.83,288.29 448.14,288.17 448.44,288.05C448.74,287.93 449.04,287.82 449.34,287.7C449.64,287.58 449.95,287.47 450.25,287.35C450.55,287.24 450.85,287.12 451.15,287.01C451.45,286.9 451.75,286.8 452.05,286.71C452.35,286.62 452.66,286.55 452.96,286.49C453.26,286.43 453.56,286.38 453.86,286.36C454.16,286.34 454.47,286.34 454.77,286.36C455.07,286.38 455.37,286.42 455.67,286.48C455.97,286.54 456.28,286.62 456.58,286.72C456.88,286.82 457.18,286.94 457.48,287.07C457.78,287.2 458.08,287.35 458.38,287.5C458.68,287.65 458.99,287.83 459.29,287.99C459.59,288.15 459.89,288.32 460.19,288.47C460.49,288.62 460.79,288.77 461.1,288.9Q461.4,289.02 462,289.22" style="vector-effect: non-scaling-stroke; fill: none; stroke: rgb(231, 107, 243); stroke-opacity: 1; stroke-width: 2px; opacity: 1;"/></g><g class="points"/><g class="text"/></g></g></g><g class="overplot"/><path class="xlines-above crisp" d="M0,0" style="fill: none;"/><path class="ylines-above crisp" d="M0,0" style="fill: none;"/><g class="overlines-above"/><g class="xaxislayer-above"><g class="xtick"><text text-anchor="middle" x="0" y="433" transform="translate(80,0)" style="font-family: 'Open Sans', verdana, arial, sans-serif; font-size: 12px; fill: rgb(42, 63, 95); fill-opacity: 1; white-space: pre;">0</text></g><g class="xtick"><text text-anchor="middle" x="0" y="433" transform="translate(170.23000000000002,0)" style="font-family: 'Open Sans', verdana, arial, sans-serif; font-size: 12px; fill: rgb(42, 63, 95); fill-opacity: 1; white-space: pre;">100</text></g><g class="xtick"><text text-anchor="middle" x="0" y="433" transform="translate(260.47,0)" style="font-family: 'Open Sans', verdana, arial, sans-serif; font-size: 12px; fill: rgb(42, 63, 95); fill-opacity: 1; white-space: pre;">200</text></g><g class="xtick"><text text-anchor="middle" x="0" y="433" transform="translate(350.7,0)" style="font-family: 'Open Sans', verdana, arial, sans-serif; font-size: 12px; fill: rgb(42, 63, 95); fill-opacity: 1; white-space: pre;">300</text></g><g class="xtick"><text text-anchor="middle" x="0" y="433" transform="translate(440.94,0)" style="font-family: 'Open Sans', verdana, arial, sans-serif; font-size: 12px; fill: rgb(42, 63, 95); fill-opacity: 1; white-space: pre;">400</text></g><g class="xtick"><text text-anchor="middle" x="0" y="433" transform="translate(531.1700000000001,0)" style="font-family: 'Open Sans', verdana, arial, sans-serif; font-size: 12px; fill: rgb(42, 63, 95); fill-opacity: 1; white-space: pre;">500</text></g></g><g class="yaxislayer-above"><g class="ytick"><text text-anchor="end" x="79" y="4.199999999999999" transform="translate(0,378.74)" style="font-family: 'Open Sans', verdana, arial, sans-serif; font-size: 12px; fill: rgb(42, 63, 95); fill-opacity: 1; white-space: pre;">500</text></g><g class="ytick"><text text-anchor="end" x="79" y="4.199999999999999" transform="translate(0,322.85)" style="font-family: 'Open Sans', verdana, arial, sans-serif; font-size: 12px; fill: rgb(42, 63, 95); fill-opacity: 1; white-space: pre;">1000</text></g><g class="ytick"><text text-anchor="end" x="79" y="4.199999999999999" transform="translate(0,266.96000000000004)" style="font-family: 'Open Sans', verdana, arial, sans-serif; font-size: 12px; fill: rgb(42, 63, 95); fill-opacity: 1; white-space: pre;">1500</text></g><g class="ytick"><text text-anchor="end" x="79" y="4.199999999999999" transform="translate(0,211.07)" style="font-family: 'Open Sans', verdana, arial, sans-serif; font-size: 12px; fill: rgb(42, 63, 95); fill-opacity: 1; white-space: pre;">2000</text></g><g class="ytick"><text text-anchor="end" x="79" y="4.199999999999999" transform="translate(0,155.19)" style="font-family: 'Open Sans', verdana, arial, sans-serif; font-size: 12px; fill: rgb(42, 63, 95); fill-opacity: 1; white-space: pre;">2500</text></g></g><g class="overaxes-above"/></g></g><g class="polarlayer"/><g class="ternarylayer"/><g class="geolayer"/><g class="funnelarealayer"/><g class="pielayer"/><g class="treemaplayer"/><g class="sunburstlayer"/><g class="glimages"/><defs id="topdefs-c59a66"><g class="clips"/><clipPath id="legendc59a66"><rect width="137" height="67" x="0" y="0"/></clipPath></defs><g class="layer-above"><g class="imagelayer"/><g class="shapelayer"/></g><g class="infolayer"><g class="legend" pointer-events="all" transform="translate(551.24, 100)"><rect class="bg" shape-rendering="crispEdges" width="137" height="67" x="0" y="0" style="stroke: rgb(68, 68, 68); stroke-opacity: 1; fill: rgb(255, 255, 255); fill-opacity: 1; stroke-width: 0px;"/><g class="scrollbox" transform="translate(0, 0)" clip-path="url('#legendc59a66')"><g class="groups"><g class="traces" transform="translate(0, 14.5)" style="opacity: 1;"><text class="legendtext" text-anchor="start" x="40" y="4.680000000000001" style="font-family: 'Open Sans', verdana, arial, sans-serif; font-size: 12px; fill: rgb(42, 63, 95); fill-opacity: 1; white-space: pre;">Average Class I</text><g class="layers" style="opacity: 1;"><g class="legendfill"/><g class="legendlines"><path class="js-line" d="M5,0h30" style="fill: none; stroke: rgb(0, 100, 80); stroke-opacity: 1; stroke-width: 2px;"/></g><g class="legendsymbols"><g class="legendpoints"/></g></g><rect class="legendtoggle" x="0" y="-9.5" width="131.15625" height="19" style="fill: rgb(0, 0, 0); fill-opacity: 0;"/></g><g class="traces" transform="translate(0, 33.5)" style="opacity: 1;"><text class="legendtext" text-anchor="start" x="40" y="4.680000000000001" style="font-family: 'Open Sans', verdana, arial, sans-serif; font-size: 12px; fill: rgb(42, 63, 95); fill-opacity: 1; white-space: pre;">Average Class II</text><g class="layers" style="opacity: 1;"><g class="legendfill"/><g class="legendlines"><path class="js-line" d="M5,0h30" style="fill: none; stroke: rgb(0, 176, 246); stroke-opacity: 1; stroke-width: 2px;"/></g><g class="legendsymbols"><g class="legendpoints"/></g></g><rect class="legendtoggle" x="0" y="-9.5" width="131.15625" height="19" style="fill: rgb(0, 0, 0); fill-opacity: 0;"/></g><g class="traces" transform="translate(0, 52.5)" style="opacity: 1;"><text class="legendtext" text-anchor="start" x="40" y="4.680000000000001" style="font-family: 'Open Sans', verdana, arial, sans-serif; font-size: 12px; fill: rgb(42, 63, 95); fill-opacity: 1; white-space: pre;">Average Class III</text><g class="layers" style="opacity: 1;"><g class="legendfill"/><g class="legendlines"><path class="js-line" d="M5,0h30" style="fill: none; stroke: rgb(231, 107, 243); stroke-opacity: 1; stroke-width: 2px;"/></g><g class="legendsymbols"><g class="legendpoints"/></g></g><rect class="legendtoggle" x="0" y="-9.5" width="131.15625" height="19" style="fill: rgb(0, 0, 0); fill-opacity: 0;"/></g></g></g><rect class="scrollbar" rx="20" ry="3" width="0" height="0" x="0" y="0" style="fill: rgb(128, 139, 164); fill-opacity: 1;"/></g><g class="g-gtitle"><text class="gtitle" x="35" y="50" text-anchor="start" dy="0em" style="font-family: 'Open Sans', verdana, arial, sans-serif; font-size: 17px; fill: rgb(42, 63, 95); opacity: 1; font-weight: normal; white-space: pre;">Average curve: hydropathy_group</text></g><g class="g-xtitle"><text class="xtitle" x="311" y="460.8" text-anchor="middle" style="font-family: 'Open Sans', verdana, arial, sans-serif; font-size: 14px; fill: rgb(42, 63, 95); opacity: 1; font-weight: normal; white-space: pre;">Domain</text></g><g class="g-ytitle"><text class="ytitle" transform="rotate(-90,27.496875000000003,260)" x="27.496875000000003" y="260" text-anchor="middle" style="font-family: 'Open Sans', verdana, arial, sans-serif; font-size: 14px; fill: rgb(42, 63, 95); opacity: 1; font-weight: normal; white-space: pre;">Frequency</text></g></g></svg>