<svg class="main-svg" xmlns="http://www.w3.org/2000/svg" xmlns:xlink="http://www.w3.org/1999/xlink" width="700" height="500" style="" viewBox="0 0 700 500"><rect x="0" y="0" width="700" height="500" style="fill: rgb(255, 255, 255); fill-opacity: 1;"/><defs id="defs-ff704f"><g class="clips"><clipPath id="clipff704fxyplot" class="plotclip"><rect width="462" height="320"/></clipPath><clipPath class="axesclip" id="clipff704fx"><rect x="80" y="0" width="462" height="500"/></clipPath><clipPath class="axesclip" id="clipff704fy"><rect x="0" y="100" width="700" height="320"/></clipPath><clipPath class="axesclip" id="clipff704fxy"><rect x="80" y="100" width="462" height="320"/></clipPath></g><g class="gradients"/></defs><g class="bglayer"><rect class="bg" x="80" y="100" width="462" height="320" style="fill: rgb(229, 236, 246); fill-opacity: 1; stroke-width: 0;"/></g><g class="layer-below"><g class="imagelayer"/><g class="shapelayer"/></g><g class="cartesianlayer"><g class="subplot xy"><g class="layer-subplot"><g class="shapelayer"/><g class="imagelayer"/></g><g class="gridlayer"><g class="x"><path class="xgrid crisp" transform="translate(170.23000000000002,0)" d="M0,100v320" style="stroke: rgb(255, 255, 255); stroke-opacity: 1; stroke-width: 1px;"/><path class="xgrid crisp" transform="translate(260.47,0)" d="M0,100v320" style="stroke: rgb(255, 255, 255); stroke-opacity: 1; stroke-width: 1px;"/><path class="xgrid crisp" transform="translate(350.7,0)" d="M0,100v320" style="stroke: rgb(255, 255, 255); stroke-opacity: 1; stroke-width: 1px;"/><path class="xgrid crisp" transform="translate(440.94,0)" d="M0,100v320" style="stroke: rgb(255, 255, 255); stroke-opacity: 1; stroke-width: 1px;"/><path class="xgrid crisp" transform="translate(531.1700000000001,0)" d="M0,100v320" style="stroke: rgb(255, 255, 255); stroke-opacity: 1; stroke-width: 1px;"/></g><g class="y"><path class="ygrid crisp" transform="translate(0,418.59)" d="M80,0h462" style="stroke: rgb(255, 255, 255); stroke-opacity: 1; stroke-width: 1px;"/><path class="ygrid crisp" transform="translate(0,380.98)" d="M80,0h462" style="stroke: rgb(255, 255, 255); stroke-opacity: 1; stroke-width: 1px;"/><path class="ygrid crisp" transform="translate(0,343.37)" d="M80,0h462" style="stroke: rgb(255, 255, 255); stroke-opacity: 1; stroke-width: 1px;"/><path class="ygrid crisp" transform="translate(0,305.77)" d="M80,0h462" style="stroke: rgb(255, 255, 255); stroke-opacity: 1; stroke-width: 1px;"/><path class="ygrid crisp" transform="translate(0,268.15999999999997)" d="M80,0h462" style="stroke: rgb(255, 255, 255); stroke-opacity: 1; stroke-width: 1px;"/><path class="ygrid crisp" transform="translate(0,230.55)" d="M80,0h462" style="stroke: rgb(255, 255, 255); stroke-opacity: 1; stroke-width: 1px;"/><path class="ygrid crisp" transform="translate(0,192.94)" d="M80,0h462" style="stroke: rgb(255, 255, 255); stroke-opacity: 1; stroke-width: 1px;"/><path class="ygrid crisp" transform="translate(0,155.32999999999998)" d="M80,0h462" style="stroke: rgb(255, 255, 255); stroke-opacity: 1; stroke-width: 1px;"/><path class="ygrid crisp" transform="translate(0,117.73)" d="M80,0h462" style="stroke: rgb(255, 255, 255); stroke-opacity: 1; stroke-width: 1px;"/></g></g><g class="zerolinelayer"><path class="xzl zl crisp" transform="translate(80,0)" d="M0,100v320" style="stroke: rgb(255, 255, 255); stroke-opacity: 1; stroke-width: 2px;"/></g><path class="xlines-below"/><path class="ylines-below"/><g class="overlines-below"/><g class="xaxislayer-below"/><g class="yaxislayer-below"/><g class="overaxes-below"/><g class="plot" transform="translate(80, 100)" clip-path="url('#clipff704fxyplot')"><g class="scatterlayer mlayer"><g class="trace scatter traceeefcdf" style="stroke-miterlimit: 2; opacity: 1;"><g class="fills"/><g class="errorbars"/><g class="lines"><path class="js-line" d="M0,241.53Q0.64,241.06 0.9,240.66C1.28,240.07 1.53,239.08 1.81,238.15C2.15,237.01 2.42,235.67 2.71,234.31C3.03,232.78 3.33,231.11 3.62,229.42C3.93,227.61 4.23,225.71 4.52,223.8C4.83,221.82 5.12,219.77 5.42,217.73C5.72,215.65 6.03,213.54 6.33,211.45C6.63,209.37 6.93,207.27 7.23,205.21C7.53,203.19 7.83,201.17 8.14,199.2C8.44,197.3 8.73,195.42 9.04,193.61C9.33,191.89 9.64,190.2 9.95,188.6C10.24,187.11 10.53,185.66 10.85,184.31C11.14,183.1 11.42,181.92 11.75,180.87C12.03,179.96 12.32,179.07 12.66,178.36C12.93,177.79 13.2,177.2 13.56,176.89C13.83,176.66 14.18,176.46 14.47,176.5C14.79,176.54 15.1,176.9 15.37,177.24C15.73,177.7 15.99,178.41 16.27,179.12C16.61,180 16.9,181.06 17.18,182.15C17.51,183.41 17.79,184.82 18.08,186.28C18.4,187.9 18.7,189.65 18.99,191.44C19.31,193.39 19.6,195.45 19.89,197.55C20.2,199.78 20.49,202.1 20.79,204.45C21.1,206.9 21.4,209.43 21.7,211.97C22.01,214.56 22.3,217.21 22.6,219.84C22.9,222.48 23.21,225.15 23.51,227.76C23.81,230.32 24.1,232.88 24.41,235.35C24.71,237.71 25.01,240.06 25.32,242.27C25.61,244.31 25.9,246.33 26.22,248.15C26.5,249.74 26.77,251.32 27.12,252.59C27.39,253.58 27.6,254.73 28.03,255.19C28.29,255.46 28.67,255.67 28.93,255.57C29.32,255.42 29.57,254.37 29.84,253.56C30.22,252.41 30.46,250.82 30.74,249.23C31.07,247.32 31.35,245.11 31.64,242.87C31.96,240.37 32.26,237.66 32.55,234.93C32.86,232.02 33.15,228.96 33.45,225.9C33.76,222.74 34.06,219.49 34.36,216.26C34.66,212.99 34.96,209.68 35.26,206.41C35.56,203.17 35.85,199.91 36.16,196.72C36.46,193.61 36.76,190.5 37.07,187.49C37.37,184.59 37.66,181.73 37.97,178.97C38.26,176.36 38.57,173.8 38.88,171.36C39.17,169.1 39.46,166.89 39.78,164.83C40.07,162.97 40.35,161.16 40.68,159.52C40.96,158.09 41.25,156.7 41.59,155.52C41.87,154.55 42.13,153.58 42.49,152.9C42.76,152.4 43.05,151.82 43.4,151.71C43.67,151.62 44.04,151.76 44.3,151.97C44.68,152.28 44.94,153 45.21,153.67C45.56,154.54 45.83,155.64 46.11,156.78C46.44,158.12 46.72,159.65 47.01,161.23C47.33,163.01 47.63,164.95 47.92,166.94C48.24,169.12 48.53,171.44 48.82,173.8C49.13,176.32 49.43,178.96 49.73,181.63C50.04,184.43 50.33,187.33 50.63,190.24C50.93,193.24 51.23,196.31 51.53,199.37C51.83,202.46 52.14,205.6 52.44,208.68C52.74,211.72 53.03,214.79 53.34,217.75C53.64,220.59 53.94,223.41 54.25,226.09C54.54,228.59 54.83,231.05 55.15,233.34C55.44,235.42 55.73,237.43 56.05,239.27C56.33,240.88 56.61,242.47 56.96,243.78C57.23,244.81 57.46,245.9 57.86,246.5C58.12,246.89 58.49,247.31 58.77,247.27C59.1,247.22 59.41,246.51 59.67,245.93C60.06,245.06 60.3,243.69 60.58,242.39C60.92,240.82 61.19,239 61.48,237.17C61.8,235.15 62.09,232.97 62.38,230.79C62.69,228.49 62.99,226.09 63.29,223.71C63.59,221.28 63.89,218.79 64.19,216.34C64.49,213.91 64.79,211.47 65.1,209.09C65.4,206.77 65.69,204.46 66,202.24C66.29,200.13 66.59,198.04 66.9,196.06C67.19,194.21 67.49,192.4 67.81,190.71C68.1,189.18 68.38,187.7 68.71,186.36C68.99,185.19 69.28,184.06 69.62,183.1C69.9,182.32 70.16,181.54 70.52,181.02C70.79,180.63 71.1,180.21 71.42,180.15C71.71,180.09 72.06,180.28 72.33,180.51C72.7,180.83 72.96,181.47 73.23,182.09C73.58,182.87 73.86,183.85 74.14,184.86C74.47,186.04 74.75,187.36 75.04,188.73C75.36,190.26 75.66,191.91 75.95,193.6C76.26,195.43 76.56,197.36 76.85,199.33C77.16,201.41 77.45,203.58 77.75,205.77C78.06,208.06 78.36,210.4 78.66,212.78C78.97,215.24 79.26,217.75 79.56,220.29C79.87,222.91 80.17,225.57 80.47,228.26C80.78,231.02 81.07,233.83 81.37,236.64C81.67,239.49 81.97,242.38 82.27,245.23C82.57,248.06 82.88,250.89 83.18,253.7C83.48,256.49 83.78,259.28 84.08,262.02C84.38,264.71 84.67,267.45 84.99,269.99C85.28,272.31 85.56,274.61 85.89,276.66C86.17,278.43 86.43,280.21 86.79,281.6C87.06,282.65 87.25,284.04 87.7,284.32C87.95,284.48 88.35,284.42 88.6,284.21C89.08,283.8 89.24,282.27 89.51,281.06C89.87,279.46 90.13,277.41 90.41,275.4C90.73,273.12 91.03,270.6 91.32,268.09C91.63,265.44 91.92,262.67 92.22,259.92C92.52,257.11 92.82,254.24 93.12,251.4C93.42,248.56 93.73,245.7 94.03,242.88C94.33,240.1 94.62,237.32 94.93,234.6C95.23,231.96 95.53,229.35 95.84,226.81C96.13,224.39 96.44,222.05 96.74,219.71C97.04,217.41 97.34,215.18 97.64,212.88C97.94,210.54 98.24,208.11 98.55,205.81C98.84,203.62 99.14,201.47 99.45,199.4C99.74,197.46 100.04,195.55 100.36,193.76C100.65,192.14 100.94,190.55 101.26,189.12C101.54,187.87 101.82,186.67 102.16,185.65C102.44,184.81 102.71,183.99 103.07,183.42C103.34,182.99 103.64,182.53 103.97,182.43C104.25,182.34 104.61,182.46 104.88,182.65C105.24,182.9 105.51,183.47 105.78,184C106.12,184.66 106.4,185.5 106.68,186.35C107,187.32 107.3,188.41 107.59,189.51C107.9,190.7 108.19,191.97 108.49,193.24C108.8,194.57 109.1,195.95 109.4,197.34C109.71,198.76 110,200.22 110.3,201.66C110.6,203.11 110.9,204.57 111.21,206C111.51,207.39 111.8,208.79 112.11,210.1C112.4,211.32 112.68,212.55 113.01,213.63C113.29,214.57 113.57,215.53 113.92,216.25C114.19,216.8 114.46,217.51 114.82,217.63C115.09,217.72 115.47,217.56 115.73,217.32C116.13,216.95 116.36,216.05 116.63,215.24C116.98,214.2 117.25,212.88 117.53,211.54C117.86,209.97 118.15,208.2 118.44,206.39C118.76,204.38 119.05,202.21 119.34,200.01C119.65,197.66 119.95,195.18 120.25,192.69C120.56,190.09 120.85,187.41 121.15,184.73C121.45,181.99 121.75,179.2 122.05,176.43C122.35,173.64 122.66,170.83 122.96,168.05C123.26,165.3 123.55,162.55 123.86,159.86C124.16,157.23 124.46,154.62 124.77,152.08C125.07,149.64 125.36,147.23 125.67,144.92C125.96,142.74 126.27,140.6 126.58,138.57C126.87,136.69 127.16,134.86 127.48,133.16C127.77,131.63 128.05,130.15 128.38,128.83C128.66,127.69 128.95,126.58 129.29,125.67C129.56,124.94 129.82,124.18 130.19,123.75C130.46,123.44 130.8,123.13 131.1,123.14C131.41,123.15 131.74,123.52 132,123.86C132.37,124.34 132.63,125.13 132.9,125.91C133.24,126.88 133.53,128.06 133.81,129.28C134.14,130.7 134.42,132.28 134.71,133.92C135.03,135.75 135.33,137.73 135.62,139.76C135.94,141.98 136.23,144.32 136.52,146.72C136.83,149.28 137.13,151.95 137.42,154.66C137.73,157.51 138.03,160.46 138.33,163.44C138.64,166.52 138.93,169.69 139.23,172.86C139.53,176.1 139.84,179.4 140.14,182.69C140.44,185.99 140.74,189.34 141.04,192.63C141.34,195.89 141.64,199.16 141.95,202.34C142.25,205.41 142.54,208.48 142.85,211.39C143.14,214.1 143.43,216.8 143.75,219.24C144.03,221.37 144.3,223.53 144.66,225.23C144.93,226.52 145.09,228.03 145.56,228.58C145.81,228.88 146.21,229.09 146.47,228.98C146.88,228.81 147.1,227.59 147.37,226.68C147.74,225.43 147.99,223.75 148.27,222.09C148.6,220.13 148.89,217.91 149.18,215.66C149.5,213.19 149.79,210.53 150.08,207.86C150.39,205.04 150.69,202.11 150.99,199.18C151.3,196.17 151.59,193.09 151.89,190.04C152.19,186.97 152.49,183.87 152.79,180.81C153.09,177.79 153.39,174.76 153.7,171.8C154,168.92 154.29,166.05 154.6,163.27C154.9,160.6 155.2,157.95 155.51,155.41C155.8,153.01 156.1,150.65 156.41,148.41C156.7,146.33 157,144.31 157.32,142.42C157.61,140.71 157.9,139.06 158.22,137.56C158.5,136.26 158.78,135 159.12,133.93C159.4,133.05 159.67,132.19 160.03,131.57C160.3,131.1 160.58,130.59 160.93,130.44C161.2,130.32 161.57,130.35 161.84,130.51C162.2,130.73 162.47,131.34 162.74,131.91C163.1,132.67 163.36,133.69 163.64,134.73C163.98,136 164.27,137.47 164.55,138.99C164.87,140.73 165.16,142.64 165.45,144.6C165.77,146.77 166.07,149.08 166.36,151.44C166.67,153.97 166.97,156.62 167.26,159.31C167.57,162.13 167.86,165.05 168.16,168C168.47,171.05 168.77,174.19 169.07,177.33C169.37,180.54 169.67,183.82 169.97,187.06C170.27,190.31 170.57,193.6 170.88,196.81C171.18,199.95 171.47,203.08 171.78,206.11C172.07,209.01 172.37,211.88 172.68,214.61C172.97,217.15 173.27,219.68 173.59,221.97C173.87,223.99 174.14,226.01 174.49,227.64C174.76,228.91 174.94,230.4 175.4,230.99C175.65,231.31 176.04,231.59 176.3,231.49C176.72,231.33 176.95,229.92 177.21,228.86C177.59,227.33 177.83,225.24 178.11,223.15C178.44,220.63 178.72,217.72 179.01,214.78C179.33,211.5 179.63,207.94 179.92,204.35C180.23,200.52 180.52,196.51 180.82,192.48C181.13,188.3 181.43,184.01 181.73,179.72C182.03,175.36 182.33,170.93 182.63,166.52C182.93,162.1 183.23,157.64 183.53,153.22C183.83,148.82 184.14,144.42 184.44,140.07C184.74,135.79 185.03,131.54 185.34,127.35C185.64,123.27 185.94,119.21 186.25,115.26C186.55,111.45 186.84,107.69 187.15,104.04C187.44,100.56 187.74,97.14 188.05,93.84C188.34,90.73 188.65,87.7 188.96,84.8C189.25,82.11 189.54,79.5 189.86,77.03C190.15,74.78 190.45,72.61 190.77,70.6C191.06,68.82 191.34,67.1 191.67,65.57C191.95,64.27 192.23,63.01 192.58,61.98C192.85,61.17 193.1,60.33 193.48,59.85C193.74,59.52 194.08,59.17 194.38,59.18C194.69,59.19 195.02,59.59 195.29,59.96C195.66,60.48 195.92,61.33 196.19,62.17C196.53,63.21 196.82,64.47 197.1,65.77C197.43,67.28 197.72,68.95 198,70.69C198.32,72.63 198.61,74.73 198.9,76.89C199.22,79.24 199.52,81.73 199.81,84.27C200.12,86.99 200.42,89.82 200.71,92.71C201.02,95.75 201.32,98.89 201.62,102.07C201.93,105.38 202.22,108.77 202.52,112.2C202.83,115.75 203.12,119.37 203.42,123.04C203.73,126.83 204.03,130.69 204.33,134.6C204.64,138.62 204.93,142.71 205.23,146.83C205.53,151.04 205.84,155.31 206.14,159.58C206.44,163.88 206.73,168.3 207.04,172.53C207.34,176.59 207.65,180.47 207.95,184.46C208.25,188.49 208.55,192.52 208.85,196.6C209.15,200.74 209.45,204.92 209.75,209.13C210.05,213.41 210.36,217.72 210.66,222.06C210.96,226.46 211.26,230.9 211.56,235.34C211.86,239.81 212.17,244.32 212.47,248.81C212.77,253.28 213.07,257.8 213.37,262.22C213.67,266.56 213.96,270.93 214.27,275.1C214.56,279.03 214.85,283.08 215.18,286.55C215.46,289.44 215.43,293.28 216.08,294.49C216.33,294.96 216.74,295.34 216.99,295.25C217.55,295.04 217.62,291.63 217.89,289.41C218.24,286.51 218.5,282.89 218.79,279.34C219.11,275.38 219.41,271.07 219.7,266.74C220.01,262.12 220.3,257.24 220.6,252.43C220.9,247.55 221.21,242.59 221.51,237.69C221.81,232.81 222.11,227.92 222.41,223.08C222.71,218.31 223.02,213.55 223.32,208.85C223.62,204.24 223.92,199.67 224.22,195.17C224.52,190.77 224.81,186.42 225.12,182.14C225.42,177.98 225.72,173.87 226.03,169.83C226.33,165.92 226.62,162.07 226.93,158.3C227.23,154.66 227.53,151.07 227.84,147.56C228.14,144.17 228.43,140.85 228.74,137.58C229.03,134.43 229.33,131.35 229.64,128.3C229.94,125.35 230.24,122.44 230.55,119.57C230.85,116.77 231.14,114 231.45,111.29C231.75,108.66 232.05,106.06 232.36,103.54C232.65,101.15 232.95,98.8 233.26,96.55C233.55,94.45 233.85,92.41 234.16,90.46C234.45,88.66 234.76,86.96 235.07,85.28C235.36,83.69 235.66,82.14 235.97,80.63C236.26,79.2 236.56,77.75 236.88,76.46C237.17,75.32 237.45,74.19 237.78,73.25C238.06,72.47 238.32,71.69 238.68,71.17C238.95,70.78 239.27,70.36 239.59,70.3C239.87,70.25 240.22,70.43 240.49,70.67C240.86,71 241.13,71.66 241.4,72.3C241.75,73.12 242.02,74.16 242.3,75.23C242.63,76.5 242.93,77.94 243.21,79.44C243.53,81.15 243.82,83.01 244.11,84.94C244.43,87.07 244.72,89.35 245.01,91.7C245.32,94.25 245.63,96.92 245.92,99.67C246.23,102.61 246.53,105.67 246.82,108.8C247.13,112.11 247.43,115.53 247.73,119.01C248.04,122.66 248.34,126.41 248.63,130.22C248.94,134.18 249.23,138.23 249.53,142.32C249.84,146.54 250.14,150.84 250.44,155.17C250.75,159.6 251.04,164.1 251.34,168.62C251.64,173.21 251.95,177.85 252.25,182.49C252.55,187.16 252.85,191.87 253.15,196.54C253.45,201.2 253.75,205.88 254.05,210.49C254.35,215.01 254.65,219.54 254.96,223.93C255.26,228.15 255.55,232.33 255.86,236.33C256.15,240.07 256.45,243.75 256.77,247.19C257.06,250.32 257.34,253.37 257.67,256.13C257.95,258.51 258.23,260.84 258.58,262.78C258.85,264.3 259.06,265.9 259.48,266.82C259.74,267.37 260.09,268.04 260.38,268.02C260.7,268 261.03,267.11 261.29,266.44C261.68,265.42 261.91,263.88 262.19,262.39C262.53,260.57 262.81,258.44 263.1,256.28C263.42,253.84 263.71,251.13 264,248.46C264.31,245.67 264.6,242.76 264.9,239.9C265.2,237.03 265.51,234.12 265.81,231.27C266.11,228.46 266.4,225.66 266.71,222.92C267.01,220.27 267.31,217.65 267.62,215.1C267.92,212.67 268.21,210.28 268.52,207.97C268.81,205.79 269.11,203.66 269.42,201.63C269.71,199.74 270.01,197.9 270.33,196.16C270.62,194.56 270.91,193.01 271.23,191.56C271.52,190.25 271.82,188.99 272.14,187.83C272.43,186.79 272.72,185.8 273.04,184.9C273.33,184.11 273.63,183.37 273.95,182.7C274.23,182.11 274.53,181.58 274.85,181.09C275.14,180.65 275.44,180.27 275.75,179.88C276.05,179.5 276.36,179.16 276.66,178.79C276.97,178.41 277.26,178.01 277.56,177.61C277.87,177.19 278.17,176.77 278.47,176.33C278.78,175.88 279.07,175.42 279.37,174.95C279.67,174.47 279.97,173.98 280.27,173.48C280.58,172.97 280.88,172.44 281.18,171.91C281.48,171.37 281.78,170.81 282.08,170.26C282.38,169.7 282.69,169.13 282.99,168.58C283.29,168.04 283.58,167.49 283.89,166.97C284.19,166.47 284.48,165.96 284.79,165.5C285.08,165.06 285.39,164.64 285.7,164.26C285.99,163.91 286.28,163.56 286.6,163.29C286.89,163.04 287.19,162.81 287.51,162.67C287.8,162.54 288.11,162.44 288.41,162.43C288.71,162.42 289.03,162.49 289.32,162.62C289.64,162.76 289.94,163 290.22,163.27C290.54,163.58 290.84,163.97 291.12,164.39C291.44,164.87 291.74,165.42 292.03,166.01C292.35,166.66 292.64,167.39 292.93,168.14C293.25,168.96 293.55,169.84 293.84,170.75C294.15,171.73 294.45,172.77 294.74,173.84C295.05,174.98 295.35,176.17 295.64,177.38C295.95,178.65 296.25,179.97 296.55,181.31C296.86,182.7 297.15,184.13 297.45,185.57C297.76,187.05 298.06,188.57 298.36,190.09C298.66,191.63 298.96,193.2 299.26,194.76C299.56,196.32 299.86,197.9 300.16,199.45C300.46,200.98 300.76,202.52 301.07,204.02C301.37,205.47 301.66,206.9 301.97,208.28C302.26,209.58 302.57,210.86 302.88,212.08C303.17,213.21 303.47,214.3 303.78,215.34C304.07,216.3 304.37,217.22 304.68,218.09C304.97,218.9 305.28,219.68 305.59,220.41C305.88,221.09 306.18,221.73 306.49,222.35C306.78,222.93 307.09,223.48 307.4,224.03C307.7,224.56 308,225.07 308.3,225.59C308.6,226.1 308.91,226.61 309.21,227.12C309.51,227.63 309.82,228.13 310.11,228.66C310.42,229.21 310.72,229.77 311.01,230.37C311.32,231.01 311.63,231.67 311.92,232.37C312.23,233.11 312.53,233.9 312.82,234.71C313.13,235.58 313.44,236.5 313.73,237.45C314.04,238.46 314.34,239.51 314.63,240.6C314.94,241.75 315.24,242.95 315.53,244.17C315.84,245.46 316.14,246.79 316.44,248.15C316.75,249.57 317.04,251.04 317.34,252.52C317.65,254.06 317.95,255.63 318.25,257.23C318.56,258.88 318.85,260.56 319.15,262.25C319.45,263.98 319.75,265.75 320.05,267.52C320.35,269.32 320.66,271.14 320.96,272.96C321.26,274.78 321.55,276.64 321.86,278.43C322.16,280.16 322.46,281.86 322.77,283.51C323.06,285.07 323.35,286.62 323.67,288.07C323.96,289.39 324.25,290.71 324.58,291.85C324.86,292.81 325.1,293.84 325.48,294.47C325.74,294.9 326.1,295.45 326.38,295.42C326.71,295.38 327.03,294.52 327.29,293.84C327.7,292.77 327.91,291.1 328.19,289.48C328.53,287.48 328.81,285.06 329.1,282.71C329.42,280.15 329.71,277.42 330,274.69C330.31,271.83 330.6,268.87 330.9,265.91C331.21,262.87 331.51,259.78 331.81,256.68C332.11,253.55 332.41,250.38 332.71,247.22C333.01,244.04 333.32,240.84 333.62,237.65C333.92,234.45 334.22,231.23 334.52,228.03C334.82,224.84 335.12,221.64 335.42,218.46C335.72,215.3 336.03,212.14 336.33,209.02C336.63,205.95 336.92,202.89 337.23,199.9C337.53,197 337.83,194.11 338.14,191.32C338.44,188.65 338.73,186.02 339.04,183.48C339.33,181.07 339.64,178.72 339.95,176.46C340.24,174.35 340.54,172.29 340.85,170.34C341.14,168.54 341.43,166.8 341.75,165.17C342.04,163.7 342.34,162.28 342.66,160.99C342.94,159.86 343.23,158.77 343.56,157.82C343.84,157.02 344.13,156.25 344.47,155.65C344.74,155.18 345.03,154.72 345.37,154.47C345.64,154.27 345.97,154.19 346.27,154.16C346.57,154.13 346.88,154.28 347.18,154.31C347.48,154.34 347.78,154.29 348.08,154.34C348.39,154.4 348.7,154.48 348.99,154.65C349.31,154.84 349.61,155.15 349.89,155.49C350.22,155.9 350.51,156.43 350.79,156.99C351.12,157.65 351.41,158.43 351.7,159.22C352.02,160.08 352.3,161.03 352.6,161.95C352.9,162.89 353.22,163.81 353.51,164.8C353.82,165.87 354.12,166.97 354.41,168.14C354.73,169.43 355.03,170.81 355.32,172.24C355.64,173.8 355.93,175.44 356.22,177.14C356.53,178.96 356.83,180.87 357.12,182.82C357.43,184.89 357.74,187.04 358.03,189.23C358.34,191.53 358.63,193.9 358.93,196.31C359.24,198.81 359.54,201.38 359.84,203.97C360.15,206.65 360.44,209.38 360.74,212.13C361.04,214.95 361.34,217.81 361.64,220.69C361.94,223.61 362.25,226.57 362.55,229.53C362.85,232.52 363.15,235.53 363.45,238.53C363.75,241.54 364.06,244.57 364.36,247.58C364.66,250.57 364.96,253.57 365.26,256.53C365.56,259.45 365.85,262.37 366.16,265.22C366.46,267.97 366.76,270.71 367.07,273.34C367.36,275.82 367.66,278.25 367.97,280.58C368.26,282.76 368.57,284.89 368.88,286.92C369.17,288.79 369.46,290.61 369.78,292.31C370.07,293.85 370.35,295.38 370.68,296.71C370.96,297.83 371.26,298.84 371.59,299.76C371.87,300.54 372.16,301.28 372.49,301.9C372.77,302.41 373.04,303 373.4,303.24C373.67,303.42 374,303.38 374.3,303.43C374.6,303.48 374.91,303.48 375.21,303.53C375.51,303.59 375.81,303.68 376.11,303.76C376.41,303.84 376.71,303.96 377.01,304C377.31,304.04 377.62,304.04 377.92,304C378.22,303.96 378.52,303.85 378.82,303.73C379.13,303.61 379.43,303.45 379.73,303.28C380.04,303.1 380.34,302.92 380.63,302.69C380.94,302.44 381.25,302.17 381.53,301.8C381.87,301.35 382.16,300.76 382.44,300.11C382.78,299.3 383.06,298.28 383.34,297.25C383.67,296.06 383.96,294.74 384.25,293.36C384.57,291.81 384.87,290.15 385.15,288.38C385.47,286.37 385.76,284.16 386.05,281.92C386.36,279.49 386.67,276.93 386.96,274.33C387.27,271.58 387.56,268.74 387.86,265.85C388.17,262.83 388.47,259.72 388.77,256.57C389.08,253.32 389.37,249.99 389.67,246.64C389.98,243.2 390.28,239.72 390.58,236.2C390.88,232.61 391.18,228.97 391.48,225.32C391.78,221.63 392.08,217.89 392.38,214.18C392.68,210.47 392.99,206.74 393.29,203.04C393.59,199.38 393.89,195.72 394.19,192.11C394.49,188.56 394.79,185.02 395.1,181.54C395.4,178.14 395.7,174.77 396,171.46C396.3,168.25 396.59,165.07 396.9,161.97C397.2,158.98 397.5,156.03 397.81,153.15C398.11,150.39 398.4,147.69 398.71,145.06C399,142.56 399.31,140.12 399.62,137.75C399.91,135.52 400.21,133.33 400.52,131.24C400.81,129.28 401.11,127.38 401.42,125.57C401.71,123.89 402.01,122.26 402.33,120.72C402.62,119.32 402.91,117.96 403.23,116.71C403.52,115.59 403.81,114.51 404.14,113.54C404.42,112.7 404.7,111.89 405.04,111.22C405.32,110.66 405.61,110.12 405.95,109.76C406.22,109.47 406.53,109.2 406.85,109.12C407.14,109.05 407.47,109.12 407.75,109.25C408.08,109.4 408.38,109.7 408.66,110.03C408.99,110.42 409.28,110.93 409.56,111.48C409.89,112.13 410.19,112.89 410.47,113.7C410.8,114.63 411.08,115.67 411.37,116.74C411.69,117.93 411.98,119.22 412.27,120.55C412.59,121.99 412.89,123.52 413.18,125.08C413.49,126.74 413.79,128.48 414.08,130.24C414.39,132.09 414.69,134 414.99,135.93C415.3,137.92 415.59,139.96 415.89,142C416.19,144.08 416.49,146.2 416.79,148.3C417.09,150.41 417.4,152.54 417.7,154.65C418,156.74 418.29,158.83 418.6,160.88C418.9,162.87 419.2,164.86 419.51,166.78C419.81,168.62 420.1,170.45 420.41,172.19C420.7,173.82 421,175.42 421.32,176.93C421.61,178.31 421.9,179.66 422.22,180.89C422.5,181.99 422.79,183.05 423.12,183.99C423.4,184.79 423.69,185.57 424.03,186.19C424.31,186.7 424.59,187.2 424.93,187.5C425.21,187.74 425.53,187.94 425.84,187.96C426.14,187.98 426.46,187.83 426.74,187.64C427.07,187.42 427.36,187.02 427.64,186.62C427.97,186.15 428.26,185.58 428.55,184.98C428.87,184.31 429.16,183.57 429.45,182.79C429.77,181.93 430.07,181.01 430.36,180.05C430.68,179 430.97,177.89 431.26,176.71C431.58,175.41 431.87,174.04 432.16,172.57C432.48,170.92 432.78,169.12 433.07,167.31C433.38,165.39 433.67,163.34 433.97,161.35C434.27,159.34 434.58,157.3 434.88,155.3C435.18,153.33 435.48,151.36 435.78,149.43C436.08,147.55 436.37,145.69 436.68,143.86C436.98,142.09 437.28,140.34 437.59,138.64C437.89,137 438.18,135.4 438.49,133.83C438.79,132.32 439.09,130.85 439.4,129.41C439.7,128.04 439.99,126.69 440.3,125.39C440.6,124.14 440.9,122.93 441.21,121.75C441.51,120.62 441.8,119.51 442.11,118.44C442.4,117.41 442.7,116.42 443.01,115.44C443.31,114.5 443.61,113.59 443.92,112.69C444.22,111.83 444.51,110.99 444.82,110.16C445.12,109.36 445.42,108.57 445.73,107.8C446.03,107.04 446.33,106.3 446.63,105.57C446.93,104.85 447.23,104.14 447.53,103.44C447.83,102.75 448.14,102.06 448.44,101.38C448.74,100.71 449.04,100.04 449.34,99.37C449.64,98.71 449.95,98.06 450.25,97.4C450.55,96.75 450.85,96.09 451.15,95.44C451.45,94.79 451.75,94.15 452.05,93.5C452.35,92.85 452.66,92.21 452.96,91.56C453.26,90.91 453.56,90.25 453.86,89.59C454.16,88.93 454.47,88.26 454.77,87.6C455.07,86.94 455.37,86.27 455.67,85.62C455.97,84.98 456.27,84.33 456.58,83.71C456.88,83.1 457.17,82.5 457.48,81.93C457.77,81.38 458.07,80.85 458.38,80.35C458.67,79.88 458.98,79.42 459.29,79C459.58,78.61 459.88,78.23 460.19,77.91C460.48,77.61 460.78,77.33 461.1,77.11Q461.39,76.91 462,76.62" style="vector-effect: non-scaling-stroke; fill: none; stroke: rgb(0, 100, 80); stroke-opacity: 1; stroke-width: 2px; opacity: 1;"/></g><g class="points"/><g class="text"/></g><g class="trace scatter traced6515e" style="stroke-miterlimit: 2; opacity: 1;"><g class="fills"/><g class="errorbars"/><g class="lines"><path class="js-line" d="M0,202.1Q0.64,201.09 0.9,200.38C1.28,199.37 1.52,197.88 1.81,196.54C2.13,195.07 2.41,193.46 2.71,191.89C3.02,190.27 3.32,188.6 3.62,186.96C3.92,185.32 4.22,183.67 4.52,182.05C4.82,180.47 5.11,178.89 5.42,177.36C5.72,175.89 6.02,174.44 6.33,173.05C6.62,171.75 6.91,170.47 7.23,169.27C7.52,168.17 7.82,167.09 8.14,166.11C8.43,165.24 8.71,164.39 9.04,163.66C9.32,163.04 9.61,162.43 9.95,161.99C10.23,161.63 10.52,161.26 10.85,161.13C11.13,161.02 11.47,161.02 11.75,161.13C12.08,161.26 12.38,161.63 12.66,162C13,162.46 13.28,163.09 13.56,163.74C13.89,164.51 14.18,165.41 14.47,166.34C14.79,167.4 15.08,168.56 15.37,169.77C15.69,171.1 15.98,172.52 16.27,173.98C16.58,175.55 16.89,177.21 17.18,178.9C17.49,180.69 17.78,182.56 18.08,184.45C18.39,186.42 18.69,188.45 18.99,190.5C19.3,192.61 19.59,194.76 19.89,196.91C20.19,199.09 20.49,201.3 20.79,203.48C21.09,205.66 21.39,207.85 21.7,209.99C22,212.08 22.29,214.17 22.6,216.19C22.9,218.12 23.2,220.04 23.51,221.84C23.8,223.5 24.08,225.15 24.41,226.62C24.69,227.9 24.97,229.16 25.32,230.18C25.59,230.98 25.85,231.78 26.22,232.28C26.49,232.64 26.8,232.99 27.12,233.06C27.41,233.12 27.76,232.97 28.03,232.77C28.38,232.52 28.65,232.02 28.93,231.54C29.27,230.95 29.56,230.21 29.84,229.45C30.17,228.57 30.45,227.59 30.74,226.57C31.06,225.44 31.35,224.22 31.64,222.96C31.96,221.59 32.26,220.14 32.55,218.63C32.87,216.99 33.16,215.28 33.45,213.5C33.76,211.57 34.07,209.54 34.36,207.47C34.67,205.29 34.96,203 35.26,200.74C35.56,198.43 35.86,196.07 36.16,193.75C36.46,191.46 36.76,189.16 37.07,186.92C37.37,184.76 37.66,182.61 37.97,180.54C38.26,178.58 38.57,176.65 38.88,174.82C39.17,173.12 39.46,171.45 39.78,169.9C40.07,168.5 40.35,167.14 40.68,165.92C40.96,164.85 41.25,163.82 41.59,162.95C41.87,162.24 42.13,161.53 42.49,161.07C42.76,160.73 43.09,160.37 43.4,160.33C43.69,160.3 44.03,160.52 44.3,160.77C44.66,161.12 44.94,161.77 45.21,162.4C45.56,163.2 45.83,164.18 46.11,165.21C46.44,166.42 46.72,167.78 47.01,169.2C47.33,170.8 47.63,172.53 47.92,174.32C48.24,176.28 48.53,178.36 48.82,180.5C49.13,182.8 49.44,185.2 49.73,187.66C50.04,190.26 50.34,192.97 50.63,195.71C50.94,198.58 51.23,201.54 51.53,204.52C51.84,207.6 52.14,210.75 52.44,213.91C52.74,217.14 53.04,220.43 53.34,223.7C53.64,227 53.95,230.33 54.25,233.63C54.55,236.91 54.85,240.2 55.15,243.44C55.45,246.62 55.74,249.8 56.05,252.89C56.35,255.88 56.65,258.85 56.96,261.7C57.25,264.38 57.54,267.05 57.86,269.49C58.15,271.67 58.41,273.91 58.77,275.66C59.04,276.98 59.18,278.83 59.67,279.1C59.92,279.24 60.32,279.06 60.58,278.82C61.01,278.41 61.21,277.28 61.48,276.36C61.82,275.22 62.09,273.85 62.38,272.49C62.7,270.97 63,269.32 63.29,267.66C63.6,265.91 63.89,264.08 64.19,262.24C64.5,260.33 64.8,258.38 65.1,256.4C65.41,254.35 65.7,252.25 66,250.13C66.3,247.94 66.6,245.69 66.9,243.47C67.2,241.24 67.5,238.98 67.81,236.77C68.11,234.61 68.4,232.46 68.71,230.37C69.01,228.37 69.31,226.4 69.62,224.51C69.91,222.73 70.21,220.98 70.52,219.33C70.81,217.8 71.1,216.32 71.42,214.94C71.71,213.7 72,212.5 72.33,211.42C72.61,210.48 72.89,209.58 73.23,208.82C73.51,208.19 73.79,207.57 74.14,207.17C74.41,206.86 74.73,206.56 75.04,206.52C75.33,206.48 75.68,206.64 75.95,206.85C76.3,207.12 76.58,207.65 76.85,208.16C77.19,208.8 77.47,209.6 77.75,210.43C78.08,211.39 78.37,212.47 78.66,213.59C78.98,214.83 79.27,216.19 79.56,217.56C79.87,219.04 80.17,220.6 80.47,222.17C80.78,223.81 81.07,225.51 81.37,227.21C81.67,228.95 81.97,230.73 82.27,232.51C82.57,234.33 82.88,236.18 83.18,238.03C83.48,239.9 83.78,241.8 84.08,243.68C84.38,245.56 84.69,247.47 84.99,249.33C85.29,251.16 85.58,252.99 85.89,254.76C86.18,256.46 86.48,258.15 86.79,259.75C87.08,261.24 87.38,262.71 87.7,264.05C87.99,265.24 88.26,266.41 88.6,267.4C88.88,268.23 89.15,269.06 89.51,269.62C89.78,270.03 90.09,270.49 90.41,270.55C90.69,270.6 91.05,270.39 91.32,270.14C91.69,269.79 91.95,269.07 92.22,268.4C92.56,267.56 92.84,266.51 93.12,265.44C93.45,264.2 93.74,262.81 94.03,261.38C94.35,259.79 94.64,258.08 94.93,256.34C95.24,254.49 95.54,252.53 95.84,250.6C96.14,248.63 96.44,246.6 96.74,244.63C97.04,242.69 97.33,240.75 97.64,238.88C97.94,237.08 98.24,235.3 98.55,233.6C98.84,232.01 99.13,230.46 99.45,228.99C99.74,227.64 100.04,226.33 100.36,225.12C100.65,224.04 100.94,223 101.26,222.07C101.54,221.27 101.82,220.49 102.16,219.86C102.44,219.33 102.73,218.82 103.07,218.49C103.34,218.23 103.66,217.99 103.97,217.94C104.26,217.89 104.6,217.99 104.88,218.14C105.21,218.31 105.5,218.66 105.78,218.99C106.1,219.36 106.38,219.85 106.68,220.27C106.98,220.69 107.26,221.2 107.59,221.52C107.87,221.79 108.17,222.07 108.49,222.14C108.78,222.2 109.12,222.12 109.4,221.98C109.72,221.82 110.02,221.5 110.3,221.18C110.63,220.8 110.92,220.31 111.21,219.81C111.53,219.25 111.82,218.61 112.11,217.94C112.43,217.19 112.72,216.38 113.01,215.53C113.33,214.58 113.63,213.57 113.92,212.5C114.24,211.31 114.53,210.05 114.82,208.72C115.14,207.25 115.44,205.68 115.73,204.05C116.05,202.27 116.34,200.38 116.63,198.46C116.94,196.41 117.23,194.27 117.53,192.1C117.84,189.84 118.14,187.51 118.44,185.16C118.75,182.75 119.04,180.29 119.34,177.82C119.64,175.3 119.95,172.76 120.25,170.2C120.55,167.62 120.85,165.01 121.15,162.4C121.45,159.78 121.75,157.15 122.05,154.53C122.35,151.93 122.66,149.32 122.96,146.74C123.26,144.2 123.55,141.66 123.86,139.17C124.16,136.75 124.46,134.36 124.77,132.03C125.07,129.8 125.36,127.59 125.67,125.47C125.96,123.47 126.27,121.5 126.58,119.64C126.87,117.92 127.16,116.23 127.48,114.67C127.77,113.26 128.05,111.89 128.38,110.66C128.66,109.59 128.95,108.56 129.29,107.7C129.57,106.99 129.83,106.28 130.19,105.83C130.46,105.49 130.79,105.15 131.1,105.11C131.39,105.08 131.73,105.29 132,105.54C132.36,105.88 132.63,106.52 132.9,107.14C133.24,107.92 133.53,108.89 133.81,109.89C134.14,111.07 134.42,112.39 134.71,113.77C135.03,115.32 135.33,117 135.62,118.73C135.94,120.63 136.23,122.64 136.52,124.71C136.83,126.94 137.13,129.27 137.42,131.65C137.73,134.18 138.03,136.8 138.33,139.46C138.64,142.25 138.93,145.12 139.23,148.03C139.54,151.04 139.84,154.12 140.14,157.22C140.45,160.4 140.74,163.64 141.04,166.88C141.34,170.15 141.65,173.48 141.95,176.76C142.25,180.03 142.55,183.33 142.85,186.54C143.15,189.65 143.43,192.8 143.75,195.74C144.04,198.45 144.31,201.27 144.66,203.54C144.93,205.32 145.13,207.18 145.56,208.26C145.82,208.9 146.14,209.62 146.47,209.66C146.75,209.69 147.11,209.22 147.37,208.82C147.76,208.23 147.99,207.23 148.27,206.29C148.61,205.15 148.89,203.8 149.18,202.44C149.5,200.93 149.79,199.28 150.08,197.63C150.39,195.88 150.69,194.04 150.99,192.21C151.3,190.32 151.59,188.39 151.89,186.47C152.19,184.54 152.49,182.59 152.79,180.66C153.09,178.75 153.39,176.84 153.7,174.97C154,173.15 154.29,171.33 154.6,169.57C154.9,167.88 155.2,166.2 155.51,164.59C155.8,163.06 156.1,161.55 156.41,160.11C156.7,158.76 157.01,157.45 157.32,156.21C157.61,155.06 157.91,153.95 158.22,152.9C158.51,151.94 158.8,151.02 159.12,150.17C159.41,149.4 159.7,148.65 160.03,148C160.31,147.43 160.59,146.86 160.93,146.46C161.21,146.14 161.52,145.79 161.84,145.72C162.13,145.65 162.47,145.75 162.74,145.93C163.09,146.16 163.37,146.68 163.64,147.19C163.99,147.83 164.27,148.67 164.55,149.54C164.88,150.57 165.17,151.76 165.45,153C165.77,154.41 166.07,155.96 166.36,157.57C166.68,159.35 166.97,161.24 167.26,163.2C167.57,165.32 167.87,167.55 168.16,169.84C168.47,172.27 168.78,174.81 169.07,177.39C169.38,180.1 169.67,182.9 169.97,185.72C170.28,188.64 170.58,191.63 170.88,194.64C171.19,197.71 171.48,200.84 171.78,203.96C172.08,207.09 172.38,210.26 172.68,213.39C172.98,216.49 173.28,219.61 173.59,222.65C173.89,225.61 174.18,228.56 174.49,231.41C174.78,234.12 175.09,236.81 175.4,239.34C175.69,241.68 175.98,243.98 176.3,246.07C176.58,247.9 176.87,249.7 177.21,251.21C177.48,252.42 177.71,253.67 178.11,254.43C178.37,254.93 178.71,255.53 179.01,255.53C179.31,255.53 179.66,254.96 179.92,254.48C180.32,253.75 180.55,252.54 180.82,251.38C181.16,249.93 181.45,248.21 181.73,246.45C182.06,244.43 182.34,242.2 182.63,239.91C182.95,237.4 183.24,234.73 183.53,231.99C183.84,229.05 184.14,225.97 184.44,222.85C184.75,219.58 185.04,216.19 185.34,212.81C185.64,209.38 185.95,205.88 186.25,202.42C186.55,198.98 186.85,195.52 187.15,192.11C187.45,188.75 187.74,185.41 188.05,182.12C188.35,178.91 188.65,175.73 188.96,172.61C189.26,169.58 189.55,166.59 189.86,163.67C190.16,160.86 190.46,158.09 190.77,155.39C191.07,152.81 191.36,150.27 191.67,147.82C191.96,145.49 192.27,143.21 192.58,141.02C192.87,138.96 193.17,136.95 193.48,135.04C193.77,133.27 194.06,131.55 194.38,129.94C194.67,128.48 194.97,127.06 195.29,125.77C195.57,124.63 195.86,123.54 196.19,122.59C196.47,121.79 196.75,121.01 197.1,120.44C197.37,119.99 197.66,119.52 198,119.36C198.27,119.23 198.63,119.24 198.9,119.37C199.25,119.54 199.54,120.03 199.81,120.49C200.16,121.09 200.43,121.9 200.71,122.73C201.04,123.73 201.34,124.89 201.62,126.09C201.94,127.47 202.23,128.98 202.52,130.55C202.84,132.29 203.13,134.16 203.42,136.09C203.74,138.19 204.04,140.41 204.33,142.69C204.64,145.13 204.94,147.69 205.23,150.3C205.54,153.07 205.85,155.93 206.14,158.85C206.45,161.92 206.74,165.08 207.04,168.3C207.35,171.65 207.65,175.08 207.95,178.56C208.26,182.16 208.55,185.83 208.85,189.55C209.15,193.37 209.45,197.26 209.75,201.18C210.06,205.19 210.36,209.25 210.66,213.34C210.96,217.49 211.26,221.69 211.56,225.9C211.86,230.15 212.17,234.44 212.47,238.72C212.77,243 213.07,247.31 213.37,251.57C213.67,255.78 213.96,260.02 214.27,264.13C214.57,268.11 214.86,272.14 215.18,275.86C215.47,279.24 215.65,283.14 216.08,285.53C216.34,286.97 216.71,288.95 216.99,288.94C217.32,288.93 217.63,286.09 217.89,284.24C218.26,281.63 218.5,278.11 218.79,274.75C219.11,270.95 219.41,266.75 219.7,262.59C220.01,258.21 220.3,253.64 220.6,249.1C220.9,244.47 221.21,239.77 221.51,235.09C221.81,230.4 222.11,225.67 222.41,220.98C222.71,216.33 223.02,211.67 223.32,207.07C223.62,202.54 223.92,198.02 224.22,193.57C224.52,189.22 224.81,184.89 225.12,180.65C225.42,176.53 225.72,172.45 226.03,168.46C226.33,164.61 226.62,160.82 226.93,157.12C227.23,153.58 227.53,150.11 227.84,146.74C228.13,143.55 228.43,140.43 228.74,137.42C229.03,134.6 229.33,131.85 229.64,129.22C229.93,126.79 230.23,124.43 230.55,122.2C230.84,120.17 231.13,118.21 231.45,116.4C231.74,114.79 232.03,113.25 232.36,111.86C232.64,110.66 232.92,109.51 233.26,108.55C233.53,107.77 233.8,107 234.16,106.48C234.43,106.09 234.74,105.69 235.07,105.59C235.35,105.51 235.69,105.61 235.97,105.77C236.31,105.97 236.59,106.44 236.88,106.84C237.2,107.28 237.46,107.86 237.78,108.29C238.06,108.67 238.36,109.03 238.68,109.3C238.97,109.54 239.3,109.65 239.59,109.86C239.9,110.09 240.21,110.32 240.49,110.63C240.82,110.99 241.12,111.44 241.4,111.94C241.73,112.53 242.02,113.23 242.3,113.97C242.63,114.84 242.93,115.81 243.21,116.84C243.53,118.01 243.82,119.29 244.11,120.63C244.43,122.13 244.72,123.74 245.01,125.41C245.33,127.25 245.63,129.19 245.92,131.2C246.23,133.37 246.53,135.64 246.82,137.98C247.13,140.47 247.44,143.07 247.73,145.72C248.04,148.52 248.34,151.42 248.63,154.37C248.94,157.45 249.23,160.63 249.53,163.84C249.84,167.17 250.14,170.57 250.44,174C250.75,177.52 251.04,181.1 251.34,184.69C251.64,188.33 251.95,192.02 252.25,195.68C252.55,199.34 252.85,203.03 253.15,206.64C253.45,210.16 253.74,213.72 254.05,217.08C254.34,220.22 254.63,223.38 254.96,226.2C255.24,228.64 255.51,231.02 255.86,233.02C256.13,234.6 256.38,236.17 256.77,237.25C257.03,237.97 257.31,238.87 257.67,238.96C257.94,239.03 258.32,238.67 258.58,238.32C258.99,237.76 259.21,236.64 259.48,235.62C259.82,234.35 260.09,232.81 260.38,231.27C260.7,229.56 260.99,227.67 261.29,225.81C261.6,223.86 261.89,221.84 262.19,219.82C262.49,217.77 262.8,215.68 263.1,213.6C263.4,211.51 263.7,209.4 264,207.3C264.3,205.2 264.6,203.08 264.9,201C265.2,198.95 265.5,196.91 265.81,194.92C266.11,193 266.4,191.09 266.71,189.25C267,187.51 267.31,185.8 267.62,184.17C267.91,182.64 268.21,181.15 268.52,179.75C268.81,178.47 269.1,177.23 269.42,176.08C269.71,175.05 270,174.06 270.33,173.17C270.61,172.4 270.9,171.67 271.23,171.04C271.51,170.51 271.81,170.01 272.14,169.62C272.42,169.29 272.72,169.01 273.04,168.83C273.33,168.67 273.64,168.58 273.95,168.55C274.25,168.52 274.56,168.57 274.85,168.65C275.16,168.73 275.46,168.87 275.75,169.03C276.06,169.2 276.37,169.4 276.66,169.63C276.97,169.87 277.26,170.15 277.56,170.43C277.87,170.73 278.17,171.04 278.47,171.37C278.78,171.71 279.07,172.07 279.37,172.42C279.67,172.78 279.97,173.15 280.27,173.51C280.57,173.87 280.88,174.24 281.18,174.6C281.48,174.95 281.78,175.3 282.08,175.64C282.38,175.98 282.69,176.3 282.99,176.63C283.29,176.96 283.59,177.28 283.89,177.61C284.19,177.95 284.49,178.28 284.79,178.63C285.1,178.99 285.4,179.36 285.7,179.76C286.01,180.17 286.31,180.6 286.6,181.06C286.91,181.54 287.22,182.06 287.51,182.59C287.82,183.16 288.12,183.75 288.41,184.37C288.72,185.03 289.03,185.72 289.32,186.44C289.63,187.19 289.93,187.98 290.22,188.79C290.53,189.63 290.82,190.5 291.12,191.39C291.43,192.31 291.73,193.26 292.03,194.21C292.34,195.19 292.63,196.19 292.93,197.19C293.23,198.21 293.54,199.24 293.84,200.27C294.14,201.3 294.44,202.33 294.74,203.35C295.04,204.35 295.33,205.36 295.64,206.34C295.94,207.29 296.24,208.23 296.55,209.14C296.84,210 297.14,210.86 297.45,211.66C297.74,212.41 298.04,213.14 298.36,213.81C298.65,214.42 298.94,215.01 299.26,215.53C299.54,215.99 299.84,216.43 300.16,216.78C300.44,217.09 300.75,217.36 301.07,217.55C301.36,217.72 301.66,217.84 301.97,217.89C302.27,217.94 302.58,217.92 302.88,217.87C303.18,217.82 303.48,217.71 303.78,217.6C304.08,217.49 304.38,217.33 304.68,217.19C304.98,217.05 305.29,216.88 305.59,216.74C305.89,216.6 306.18,216.46 306.49,216.36C306.79,216.26 307.1,216.18 307.4,216.15C307.7,216.12 308,216.14 308.3,216.2C308.61,216.27 308.92,216.39 309.21,216.56C309.53,216.75 309.83,217.01 310.11,217.3C310.43,217.63 310.69,218.14 311.01,218.47C311.3,218.77 311.63,218.93 311.92,219.23C312.24,219.57 312.54,219.97 312.82,220.42C313.14,220.93 313.44,221.51 313.73,222.13C314.05,222.81 314.34,223.57 314.63,224.35C314.94,225.21 315.24,226.12 315.53,227.07C315.84,228.09 316.15,229.17 316.44,230.27C316.75,231.44 317.05,232.67 317.34,233.92C317.65,235.24 317.95,236.6 318.25,237.98C318.56,239.42 318.85,240.9 319.15,242.4C319.46,243.95 319.75,245.53 320.05,247.13C320.36,248.77 320.66,250.43 320.96,252.11C321.26,253.82 321.56,255.54 321.86,257.28C322.16,259.04 322.47,260.81 322.77,262.59C323.07,264.37 323.37,266.17 323.67,267.96C323.97,269.74 324.28,271.53 324.58,273.29C324.88,275.01 325.17,276.76 325.48,278.41C325.77,279.95 326.05,281.52 326.38,282.88C326.66,284.04 326.92,285.22 327.29,286.07C327.56,286.69 327.82,287.42 328.19,287.59C328.46,287.71 328.83,287.61 329.1,287.43C329.47,287.18 329.73,286.52 330,285.94C330.34,285.21 330.63,284.34 330.9,283.35C331.25,282.08 331.53,280.58 331.81,278.94C332.15,276.9 332.42,274.42 332.71,272.04C333.02,269.49 333.32,266.81 333.62,264.11C333.93,261.31 334.23,258.47 334.52,255.54C334.83,252.44 335.12,249.24 335.42,245.99C335.73,242.6 336.03,239.04 336.33,235.58C336.63,232.13 336.93,228.66 337.23,225.25C337.53,221.89 337.83,218.56 338.14,215.27C338.44,212.06 338.73,208.87 339.04,205.75C339.34,202.73 339.64,199.74 339.95,196.82C340.25,194.01 340.54,191.25 340.85,188.56C341.14,186 341.44,183.49 341.75,181.07C342.04,178.79 342.35,176.55 342.66,174.42C342.95,172.43 343.24,170.5 343.56,168.68C343.85,167.01 344.15,165.39 344.47,163.89C344.76,162.55 345.04,161.26 345.37,160.1C345.65,159.1 345.93,158.14 346.27,157.34C346.55,156.69 346.82,156.03 347.18,155.62C347.45,155.31 347.77,154.99 348.08,154.95C348.37,154.91 348.72,155.09 348.99,155.31C349.34,155.6 349.62,156.15 349.89,156.68C350.23,157.34 350.51,158.16 350.79,159C351.12,159.98 351.41,161.08 351.7,162.22C352.02,163.49 352.31,164.86 352.6,166.27C352.91,167.8 353.22,169.41 353.51,171.05C353.82,172.8 354.11,174.62 354.41,176.46C354.72,178.39 355.02,180.37 355.32,182.37C355.63,184.43 355.92,186.53 356.22,188.64C356.52,190.79 356.82,192.97 357.12,195.14C357.42,197.32 357.73,199.53 358.03,201.71C358.33,203.88 358.63,206.06 358.93,208.22C359.23,210.36 359.54,212.48 359.84,214.59C360.14,216.67 360.44,218.74 360.74,220.8C361.04,222.83 361.34,224.85 361.64,226.85C361.94,228.82 362.25,230.78 362.55,232.73C362.85,234.65 363.15,236.55 363.45,238.44C363.75,240.31 364.06,242.17 364.36,244.01C364.66,245.83 364.96,247.64 365.26,249.44C365.56,251.22 365.86,252.98 366.16,254.73C366.46,256.45 366.76,258.16 367.07,259.85C367.37,261.5 367.66,263.15 367.97,264.74C368.27,266.27 368.56,267.84 368.88,269.24C369.17,270.49 369.46,271.66 369.78,272.75C370.06,273.71 370.37,274.58 370.68,275.44C370.97,276.25 371.28,277.02 371.59,277.77C371.88,278.48 372.18,279.17 372.49,279.82C372.78,280.44 373.09,281.03 373.4,281.6C373.69,282.13 373.99,282.64 374.3,283.12C374.59,283.57 374.9,283.98 375.21,284.38C375.5,284.76 375.8,285.12 376.11,285.45C376.4,285.77 376.7,286.07 377.01,286.33C377.3,286.58 377.61,286.81 377.92,286.99C378.21,287.16 378.52,287.4 378.82,287.38C379.13,287.36 379.46,287.13 379.73,286.83C380.11,286.41 380.34,285.57 380.63,284.87C380.95,284.1 381.24,283.27 381.53,282.41C381.84,281.48 382.15,280.5 382.44,279.49C382.75,278.41 383.05,277.31 383.34,276.12C383.66,274.8 383.96,273.41 384.25,271.92C384.57,270.24 384.86,268.41 385.15,266.53C385.46,264.48 385.76,262.33 386.05,260.1C386.36,257.7 386.67,255.19 386.96,252.6C387.27,249.83 387.56,246.93 387.86,244C388.17,240.95 388.47,237.8 388.77,234.65C389.08,231.42 389.37,228.14 389.67,224.84C389.97,221.49 390.28,218.11 390.58,214.72C390.88,211.3 391.18,207.86 391.48,204.42C391.78,200.97 392.08,197.5 392.38,194.05C392.68,190.6 392.99,187.14 393.29,183.71C393.59,180.3 393.89,176.89 394.19,173.52C394.49,170.19 394.8,166.87 395.1,163.59C395.4,160.37 395.7,157.17 396,154.02C396.3,150.95 396.59,147.92 396.9,144.94C397.2,142.06 397.5,139.21 397.81,136.44C398.11,133.78 398.4,131.17 398.71,128.64C399,126.25 399.31,123.9 399.62,121.65C399.91,119.54 400.21,117.49 400.52,115.54C400.81,113.75 401.1,112.02 401.42,110.41C401.71,108.97 402,107.58 402.33,106.34C402.61,105.27 402.89,104.23 403.23,103.37C403.51,102.68 403.78,101.97 404.14,101.55C404.41,101.24 404.74,100.92 405.04,100.91C405.34,100.9 405.68,101.17 405.95,101.46C406.31,101.85 406.58,102.53 406.85,103.2C407.19,104.03 407.47,105.05 407.75,106.1C408.08,107.32 408.37,108.7 408.66,110.12C408.98,111.71 409.27,113.42 409.56,115.19C409.88,117.12 410.18,119.17 410.47,121.26C410.78,123.49 411.08,125.82 411.37,128.2C411.68,130.7 411.97,133.3 412.27,135.92C412.58,138.65 412.88,141.45 413.18,144.27C413.49,147.17 413.78,150.13 414.08,153.09C414.38,156.1 414.69,159.15 414.99,162.18C415.29,165.22 415.59,168.29 415.89,171.32C416.19,174.32 416.48,177.33 416.79,180.28C417.09,183.15 417.39,186.01 417.7,188.77C418,191.41 418.29,194.03 418.6,196.52C418.89,198.84 419.19,201.12 419.51,203.25C419.8,205.18 420.08,207.06 420.41,208.76C420.69,210.23 420.98,211.66 421.32,212.87C421.6,213.85 421.85,214.83 422.22,215.49C422.48,215.96 422.79,216.51 423.12,216.59C423.4,216.65 423.77,216.43 424.03,216.17C424.41,215.8 424.66,215.04 424.93,214.34C425.28,213.45 425.56,212.35 425.84,211.23C426.17,209.94 426.45,208.5 426.74,207.04C427.05,205.44 427.35,203.72 427.64,201.99C427.95,200.15 428.25,198.24 428.55,196.31C428.86,194.31 429.15,192.26 429.45,190.21C429.75,188.12 430.06,186 430.36,183.88C430.66,181.75 430.96,179.61 431.26,177.48C431.56,175.37 431.86,173.25 432.16,171.16C432.46,169.1 432.76,167.05 433.07,165.04C433.37,163.08 433.66,161.13 433.97,159.22C434.27,157.37 434.57,155.54 434.88,153.76C435.18,152.05 435.47,150.36 435.78,148.72C436.07,147.15 436.37,145.62 436.68,144.13C436.97,142.72 437.28,141.34 437.59,140.01C437.88,138.75 438.18,137.53 438.49,136.35C438.78,135.24 439.09,134.16 439.4,133.13C439.69,132.16 439.99,131.23 440.3,130.34C440.59,129.51 440.9,128.71 441.21,127.95C441.5,127.24 441.8,126.56 442.11,125.92C442.4,125.33 442.7,124.76 443.01,124.23C443.3,123.74 443.61,123.27 443.92,122.84C444.21,122.44 444.51,122.06 444.82,121.72C445.11,121.4 445.42,121.12 445.73,120.86C446.02,120.62 446.32,120.4 446.63,120.22C446.92,120.05 447.22,119.9 447.53,119.79C447.83,119.68 448.14,119.6 448.44,119.54C448.74,119.48 449.04,119.46 449.34,119.45C449.64,119.44 449.95,119.47 450.25,119.51C450.55,119.55 450.85,119.62 451.15,119.7C451.45,119.78 451.75,119.89 452.05,120C452.36,120.12 452.66,120.25 452.96,120.4C453.26,120.55 453.56,120.73 453.86,120.91C454.16,121.09 454.47,121.28 454.77,121.49C455.07,121.7 455.37,121.93 455.67,122.16C455.98,122.4 456.28,122.64 456.58,122.9C456.88,123.16 457.18,123.43 457.48,123.71C457.78,123.99 458.08,124.28 458.38,124.57C458.68,124.86 458.99,125.16 459.29,125.46C459.59,125.76 459.89,126.07 460.19,126.36C460.49,126.65 460.79,126.94 461.1,127.19Q461.39,127.43 462,127.85" style="vector-effect: non-scaling-stroke; fill: none; stroke: rgb(0, 176, 246); stroke-opacity: 1; stroke-width: 2px; opacity: 1;"/></g><g class="points"/><g class="text"/></g><g class="trace scatter traceab1f2c" style="stroke-miterlimit: 2; opacity: 1;"><g class="fills"/><g class="errorbars"/><g class="lines"><path class="js-line" d="M0,265.19Q0.64,264.51 0.9,263.98C1.29,263.19 1.53,261.92 1.81,260.74C2.14,259.34 2.42,257.72 2.71,256.11C3.02,254.36 3.32,252.5 3.62,250.64C3.93,248.7 4.22,246.69 4.52,244.69C4.82,242.66 5.12,240.59 5.42,238.54C5.72,236.5 6.03,234.44 6.33,232.42C6.63,230.43 6.92,228.44 7.23,226.49C7.53,224.6 7.83,222.72 8.14,220.89C8.44,219.13 8.73,217.4 9.04,215.73C9.33,214.14 9.64,212.59 9.95,211.1C10.24,209.71 10.54,208.36 10.85,207.08C11.14,205.91 11.43,204.77 11.75,203.73C12.04,202.79 12.33,201.9 12.66,201.1C12.94,200.41 13.22,199.74 13.56,199.21C13.84,198.77 14.13,198.34 14.47,198.09C14.75,197.89 15.07,197.73 15.37,197.74C15.67,197.75 15.99,197.93 16.27,198.14C16.61,198.4 16.9,198.83 17.18,199.27C17.51,199.79 17.79,200.43 18.08,201.08C18.4,201.82 18.7,202.65 18.99,203.5C19.31,204.43 19.6,205.42 19.89,206.43C20.2,207.5 20.49,208.62 20.79,209.74C21.1,210.89 21.4,212.08 21.7,213.26C22,214.44 22.29,215.64 22.6,216.8C22.9,217.92 23.2,219.05 23.51,220.1C23.8,221.07 24.08,222.04 24.41,222.89C24.69,223.63 24.97,224.37 25.32,224.91C25.59,225.34 25.88,225.81 26.22,225.95C26.49,226.06 26.85,226.01 27.12,225.87C27.47,225.69 27.75,225.21 28.03,224.76C28.37,224.21 28.65,223.5 28.93,222.77C29.26,221.93 29.55,220.98 29.84,220C30.16,218.92 30.45,217.76 30.74,216.57C31.05,215.3 31.34,213.96 31.64,212.61C31.95,211.2 32.25,209.74 32.55,208.27C32.86,206.76 33.15,205.22 33.45,203.69C33.75,202.14 34.06,200.58 34.36,199.03C34.66,197.49 34.96,195.94 35.26,194.42C35.56,192.93 35.85,191.43 36.16,189.98C36.46,188.57 36.76,187.18 37.07,185.83C37.36,184.54 37.66,183.28 37.97,182.07C38.26,180.93 38.56,179.82 38.88,178.78C39.17,177.82 39.46,176.89 39.78,176.04C40.07,175.28 40.35,174.54 40.68,173.9C40.96,173.35 41.25,172.81 41.59,172.42C41.87,172.1 42.17,171.78 42.49,171.66C42.77,171.55 43.11,171.53 43.4,171.63C43.72,171.74 44.02,172.05 44.3,172.37C44.64,172.76 44.93,173.32 45.21,173.89C45.54,174.57 45.83,175.37 46.11,176.21C46.43,177.16 46.72,178.22 47.01,179.32C47.33,180.54 47.63,181.84 47.92,183.19C48.24,184.66 48.53,186.22 48.82,187.82C49.13,189.53 49.44,191.31 49.73,193.14C50.04,195.07 50.34,197.08 50.63,199.12C50.94,201.25 51.23,203.45 51.53,205.67C51.84,207.97 52.14,210.34 52.44,212.71C52.75,215.14 53.04,217.62 53.34,220.09C53.64,222.59 53.95,225.15 54.25,227.64C54.55,230.09 54.84,232.55 55.15,234.92C55.44,237.19 55.74,239.41 56.05,241.57C56.35,243.64 56.65,245.68 56.96,247.62C57.25,249.43 57.53,251.23 57.86,252.84C58.14,254.24 58.41,255.69 58.77,256.76C59.04,257.55 59.27,258.58 59.67,258.76C59.93,258.88 60.32,258.72 60.58,258.49C60.99,258.12 61.21,257.13 61.48,256.3C61.82,255.28 62.09,254.02 62.38,252.79C62.7,251.44 62.99,249.98 63.29,248.53C63.6,247.02 63.89,245.45 64.19,243.9C64.49,242.33 64.8,240.73 65.1,239.16C65.4,237.6 65.7,236.03 66,234.49C66.3,232.99 66.59,231.49 66.9,230.03C67.2,228.63 67.5,227.24 67.81,225.91C68.1,224.64 68.4,223.39 68.71,222.21C69,221.1 69.3,220.03 69.62,219.02C69.91,218.1 70.2,217.21 70.52,216.41C70.8,215.7 71.09,215.02 71.42,214.44C71.7,213.95 71.99,213.46 72.33,213.14C72.61,212.88 72.92,212.63 73.23,212.57C73.52,212.51 73.86,212.59 74.14,212.74C74.47,212.92 74.76,213.29 75.04,213.67C75.38,214.13 75.67,214.74 75.95,215.37C76.28,216.11 76.57,216.96 76.85,217.84C77.17,218.84 77.46,219.93 77.75,221.06C78.07,222.3 78.37,223.63 78.66,224.99C78.97,226.45 79.27,227.99 79.56,229.56C79.87,231.21 80.17,232.92 80.47,234.66C80.78,236.46 81.07,238.32 81.37,240.19C81.67,242.11 81.97,244.08 82.27,246.05C82.57,248.07 82.88,250.11 83.18,252.16C83.48,254.24 83.78,256.34 84.08,258.43C84.38,260.51 84.69,262.61 84.99,264.67C85.29,266.69 85.58,268.72 85.89,270.68C86.18,272.55 86.47,274.42 86.79,276.16C87.08,277.75 87.37,279.33 87.7,280.71C87.98,281.88 88.23,283.06 88.6,283.91C88.87,284.53 89.14,285.3 89.51,285.44C89.78,285.54 90.15,285.39 90.41,285.16C90.81,284.8 91.05,283.87 91.32,283.06C91.67,282.01 91.94,280.67 92.22,279.33C92.54,277.78 92.83,276.04 93.12,274.29C93.43,272.39 93.73,270.37 94.03,268.34C94.34,266.22 94.63,264.01 94.93,261.82C95.23,259.59 95.54,257.31 95.84,255.06C96.14,252.8 96.44,250.54 96.74,248.29C97.04,246.07 97.34,243.84 97.64,241.65C97.94,239.5 98.24,237.35 98.55,235.26C98.85,233.23 99.14,231.23 99.45,229.28C99.75,227.42 100.05,225.59 100.36,223.83C100.65,222.17 100.95,220.54 101.26,218.99C101.55,217.55 101.84,216.14 102.16,214.82C102.45,213.6 102.75,212.43 103.07,211.34C103.36,210.36 103.65,209.43 103.97,208.58C104.26,207.83 104.55,207.12 104.88,206.5C105.16,205.96 105.45,205.46 105.78,205.06C106.06,204.72 106.36,204.42 106.68,204.22C106.97,204.04 107.28,203.93 107.59,203.88C107.89,203.84 108.19,203.88 108.49,203.94C108.8,204 109.1,204.12 109.4,204.24C109.7,204.36 110,204.52 110.3,204.64C110.6,204.75 110.9,204.88 111.21,204.93C111.51,204.98 111.82,205 112.11,204.93C112.42,204.85 112.73,204.67 113.01,204.44C113.34,204.16 113.64,203.75 113.92,203.3C114.26,202.76 114.54,202.08 114.82,201.36C115.15,200.51 115.45,199.54 115.73,198.52C116.05,197.36 116.34,196.09 116.63,194.78C116.95,193.34 117.24,191.79 117.53,190.21C117.84,188.52 118.14,186.74 118.44,184.95C118.75,183.07 119.04,181.14 119.34,179.19C119.65,177.19 119.95,175.15 120.25,173.11C120.55,171.05 120.85,168.95 121.15,166.88C121.45,164.81 121.75,162.73 122.05,160.67C122.35,158.64 122.65,156.62 122.96,154.63C123.26,152.69 123.55,150.77 123.86,148.89C124.16,147.07 124.46,145.28 124.77,143.54C125.06,141.88 125.36,140.25 125.67,138.68C125.96,137.2 126.27,135.74 126.58,134.36C126.87,133.09 127.16,131.85 127.48,130.7C127.77,129.67 128.05,128.67 128.38,127.78C128.66,127.01 128.95,126.25 129.29,125.65C129.57,125.16 129.85,124.66 130.19,124.38C130.47,124.16 130.8,123.97 131.1,123.98C131.4,123.99 131.73,124.23 132,124.48C132.34,124.8 132.62,125.33 132.9,125.86C133.24,126.51 133.53,127.31 133.81,128.14C134.14,129.1 134.42,130.18 134.71,131.3C135.03,132.56 135.33,133.91 135.62,135.32C135.94,136.86 136.23,138.5 136.52,140.19C136.83,142.01 137.13,143.91 137.42,145.86C137.73,147.93 138.04,150.09 138.33,152.28C138.64,154.58 138.93,156.96 139.23,159.36C139.54,161.85 139.84,164.41 140.14,166.98C140.45,169.61 140.74,172.3 141.04,174.97C141.34,177.67 141.65,180.41 141.95,183.1C142.25,185.76 142.54,188.45 142.85,191.03C143.14,193.5 143.43,195.99 143.75,198.27C144.04,200.33 144.31,202.42 144.66,204.13C144.93,205.49 145.13,206.94 145.56,207.74C145.82,208.22 146.18,208.76 146.47,208.74C146.78,208.72 147.11,208.01 147.37,207.48C147.74,206.73 147.99,205.6 148.27,204.53C148.6,203.27 148.89,201.81 149.18,200.36C149.49,198.79 149.78,197.11 150.08,195.44C150.39,193.71 150.69,191.91 150.99,190.14C151.29,188.36 151.59,186.55 151.89,184.78C152.19,183.04 152.48,181.3 152.79,179.62C153.09,178 153.39,176.4 153.7,174.86C153.99,173.41 154.28,171.99 154.6,170.65C154.89,169.42 155.19,168.21 155.51,167.11C155.8,166.13 156.08,165.18 156.41,164.35C156.69,163.64 156.98,162.95 157.32,162.43C157.6,162.01 157.88,161.57 158.22,161.39C158.49,161.25 158.84,161.2 159.12,161.29C159.45,161.4 159.76,161.77 160.03,162.14C160.38,162.61 160.65,163.26 160.93,163.94C161.26,164.75 161.56,165.71 161.84,166.7C162.16,167.83 162.45,169.09 162.74,170.39C163.06,171.83 163.35,173.38 163.64,174.98C163.96,176.72 164.26,178.55 164.55,180.43C164.86,182.43 165.15,184.53 165.45,186.65C165.76,188.87 166.06,191.17 166.36,193.46C166.66,195.8 166.96,198.16 167.26,200.54C167.56,202.96 167.85,205.49 168.16,207.86C168.45,210.12 168.76,212.31 169.07,214.45C169.36,216.5 169.66,218.51 169.97,220.44C170.26,222.24 170.58,223.89 170.88,225.66C171.19,227.49 171.48,229.36 171.78,231.24C172.08,233.16 172.38,235.13 172.68,237.07C172.98,239.01 173.28,240.98 173.59,242.88C173.89,244.72 174.17,246.59 174.49,248.32C174.78,249.92 175.07,251.52 175.4,252.91C175.68,254.08 175.91,255.31 176.3,256.1C176.56,256.64 176.9,257.33 177.21,257.34C177.5,257.35 177.85,256.79 178.11,256.31C178.52,255.56 178.74,254.27 179.01,253.04C179.35,251.5 179.64,249.66 179.92,247.78C180.25,245.63 180.53,243.26 180.82,240.84C181.14,238.21 181.44,235.41 181.73,232.58C182.04,229.6 182.33,226.5 182.63,223.39C182.93,220.18 183.23,216.9 183.53,213.62C183.83,210.3 184.14,206.94 184.44,203.6C184.74,200.26 185.04,196.91 185.34,193.59C185.64,190.31 185.95,187.03 186.25,183.8C186.55,180.63 186.85,177.49 187.15,174.4C187.45,171.4 187.74,168.43 188.05,165.53C188.35,162.73 188.65,159.97 188.96,157.29C189.26,154.73 189.55,152.21 189.86,149.77C190.15,147.47 190.46,145.21 190.77,143.05C191.06,141.03 191.35,139.05 191.67,137.18C191.96,135.45 192.26,133.78 192.58,132.21C192.87,130.79 193.16,129.42 193.48,128.17C193.76,127.07 194.05,126.01 194.38,125.09C194.66,124.31 194.95,123.56 195.29,122.99C195.56,122.53 195.85,122.06 196.19,121.86C196.46,121.7 196.82,121.63 197.1,121.72C197.43,121.82 197.73,122.18 198,122.54C198.35,123 198.62,123.67 198.9,124.34C199.23,125.15 199.53,126.1 199.81,127.09C200.14,128.22 200.42,129.48 200.71,130.78C201.03,132.23 201.33,133.78 201.62,135.39C201.94,137.14 202.23,138.99 202.52,140.9C202.83,142.95 203.13,145.09 203.42,147.28C203.73,149.61 204.04,152.03 204.33,154.5C204.64,157.1 204.93,159.78 205.23,162.51C205.54,165.36 205.84,168.29 206.14,171.27C206.45,174.36 206.74,177.51 207.04,180.71C207.35,184.01 207.65,187.37 207.95,190.77C208.26,194.26 208.55,197.81 208.85,201.38C209.15,205.03 209.45,208.73 209.75,212.45C210.05,216.23 210.36,220.04 210.66,223.87C210.96,227.74 211.26,231.64 211.56,235.54C211.86,239.45 212.17,243.39 212.47,247.31C212.77,251.21 213.07,255.13 213.37,259C213.67,262.8 213.96,266.62 214.27,270.32C214.57,273.88 214.86,277.47 215.18,280.8C215.47,283.83 215.52,287.83 216.08,289.48C216.33,290.22 216.74,291 216.99,290.95C217.47,290.85 217.62,287.11 217.89,284.86C218.23,282.1 218.5,278.79 218.79,275.59C219.1,272.15 219.4,268.51 219.7,264.87C220.01,261.11 220.3,257.25 220.6,253.38C220.9,249.44 221.21,245.44 221.51,241.45C221.81,237.42 222.11,233.36 222.41,229.31C222.71,225.25 223.02,221.18 223.32,217.12C223.62,213.08 223.92,209.04 224.22,205.02C224.52,201.04 224.82,197.07 225.12,193.13C225.42,189.25 225.73,185.38 226.03,181.56C226.33,177.81 226.62,174.08 226.93,170.4C227.23,166.81 227.53,163.25 227.84,159.75C228.14,156.35 228.43,152.98 228.74,149.68C229.04,146.49 229.33,143.35 229.64,140.28C229.94,137.33 230.24,134.44 230.55,131.62C230.84,128.94 231.14,126.3 231.45,123.76C231.74,121.36 232.05,119.01 232.36,116.76C232.65,114.66 232.95,112.62 233.26,110.68C233.55,108.89 233.84,107.16 234.16,105.54C234.45,104.08 234.75,102.68 235.07,101.41C235.35,100.29 235.64,99.22 235.97,98.3C236.25,97.53 236.53,96.77 236.88,96.23C237.15,95.81 237.44,95.37 237.78,95.24C238.06,95.13 238.41,95.17 238.68,95.32C239.03,95.51 239.32,96.01 239.59,96.48C239.94,97.08 240.21,97.88 240.49,98.7C240.82,99.68 241.12,100.81 241.4,101.98C241.72,103.31 242.01,104.77 242.3,106.28C242.62,107.95 242.92,109.74 243.21,111.58C243.53,113.58 243.82,115.68 244.11,117.84C244.42,120.15 244.72,122.54 245.01,125C245.32,127.6 245.62,130.28 245.92,133.02C246.23,135.89 246.52,138.84 246.82,141.83C247.13,144.94 247.43,148.13 247.73,151.35C248.04,154.68 248.33,158.07 248.63,161.5C248.93,165.01 249.23,168.58 249.53,172.18C249.83,175.85 250.14,179.56 250.44,183.29C250.74,187.07 251.04,190.89 251.34,194.71C251.64,198.55 251.95,202.43 252.25,206.28C252.55,210.12 252.85,213.99 253.15,217.8C253.45,221.56 253.74,225.34 254.05,229.01C254.35,232.57 254.65,236.12 254.96,239.5C255.25,242.66 255.54,245.8 255.86,248.68C256.15,251.24 256.43,253.75 256.77,255.93C257.05,257.74 257.31,259.5 257.67,260.86C257.94,261.86 258.16,262.94 258.58,263.41C258.84,263.69 259.21,263.91 259.48,263.84C259.82,263.75 260.11,263.12 260.38,262.61C260.74,261.94 261.01,261.02 261.29,260.11C261.62,259.05 261.9,257.84 262.19,256.63C262.51,255.31 262.8,253.89 263.1,252.49C263.41,251.04 263.7,249.55 264,248.07C264.3,246.59 264.6,245.09 264.9,243.62C265.2,242.17 265.5,240.72 265.81,239.3C266.11,237.92 266.4,236.56 266.71,235.23C267.01,233.95 267.31,232.68 267.62,231.45C267.92,230.27 268.21,229.1 268.52,227.98C268.81,226.91 269.11,225.86 269.42,224.85C269.72,223.88 270.02,222.93 270.33,222.02C270.62,221.15 270.92,220.31 271.23,219.5C271.52,218.73 271.83,217.98 272.14,217.26C272.43,216.58 272.73,215.91 273.04,215.28C273.33,214.68 273.64,214.1 273.95,213.55C274.24,213.03 274.54,212.53 274.85,212.05C275.14,211.6 275.44,211.17 275.75,210.76C276.04,210.37 276.35,210.01 276.66,209.66C276.95,209.33 277.25,209.02 277.56,208.73C277.86,208.45 278.16,208.19 278.47,207.95C278.77,207.71 279.07,207.49 279.37,207.29C279.67,207.09 279.97,206.92 280.27,206.75C280.57,206.58 280.88,206.43 281.18,206.29C281.48,206.15 281.78,206.02 282.08,205.9C282.38,205.78 282.69,205.68 282.99,205.58C283.29,205.48 283.59,205.39 283.89,205.3C284.19,205.21 284.49,205.13 284.79,205.06C285.09,204.98 285.4,204.91 285.7,204.85C286,204.79 286.3,204.73 286.6,204.68C286.9,204.63 287.21,204.58 287.51,204.54C287.81,204.5 288.11,204.47 288.41,204.45C288.71,204.43 289.02,204.41 289.32,204.41C289.62,204.41 289.92,204.4 290.22,204.42C290.52,204.44 290.82,204.47 291.12,204.51C291.42,204.56 291.73,204.62 292.03,204.69C292.33,204.77 292.63,204.85 292.93,204.96C293.24,205.07 293.54,205.19 293.84,205.33C294.14,205.47 294.44,205.64 294.74,205.82C295.04,206.01 295.34,206.21 295.64,206.43C295.95,206.66 296.25,206.91 296.55,207.17C296.86,207.44 297.15,207.72 297.45,208.02C297.76,208.33 298.06,208.65 298.36,208.98C298.67,209.32 298.96,209.68 299.26,210.05C299.56,210.43 299.86,210.81 300.16,211.21C300.47,211.62 300.77,212.03 301.07,212.46C301.37,212.89 301.67,213.34 301.97,213.79C302.27,214.25 302.58,214.71 302.88,215.18C303.18,215.66 303.48,216.15 303.78,216.64C304.08,217.14 304.38,217.65 304.68,218.16C304.98,218.68 305.29,219.21 305.59,219.75C305.89,220.29 306.19,220.84 306.49,221.4C306.79,221.97 307.1,222.54 307.4,223.12C307.7,223.71 308,224.32 308.3,224.93C308.61,225.56 308.91,226.2 309.21,226.85C309.52,227.52 309.81,228.2 310.11,228.9C310.41,229.62 310.71,230.36 311.01,231.11C311.32,231.89 311.62,232.7 311.92,233.52C312.23,234.38 312.52,235.26 312.82,236.16C313.13,237.1 313.43,238.07 313.73,239.07C314.04,240.11 314.34,241.19 314.63,242.29C314.94,243.44 315.24,244.62 315.53,245.83C315.84,247.1 316.14,248.41 316.44,249.74C316.75,251.13 317.04,252.56 317.34,254.01C317.65,255.52 317.95,257.08 318.25,258.63C318.55,260.19 318.85,261.78 319.15,263.35C319.45,264.93 319.75,266.49 320.05,268.08C320.35,269.71 320.66,271.35 320.96,273.01C321.26,274.69 321.56,276.39 321.86,278.08C322.16,279.76 322.46,281.46 322.77,283.12C323.07,284.73 323.35,286.36 323.67,287.88C323.96,289.28 324.24,290.71 324.58,291.89C324.86,292.84 325.06,293.98 325.48,294.44C325.74,294.72 326.11,294.95 326.38,294.86C326.74,294.74 327.02,293.91 327.29,293.26C327.66,292.36 327.92,291.13 328.19,289.86C328.53,288.28 328.82,286.42 329.1,284.49C329.43,282.25 329.71,279.75 330,277.2C330.32,274.4 330.61,271.4 330.9,268.38C331.21,265.18 331.51,261.85 331.81,258.5C332.12,255.04 332.41,251.5 332.71,247.96C333.01,244.36 333.32,240.72 333.62,237.08C333.92,233.42 334.22,229.74 334.52,226.07C334.82,222.41 335.12,218.75 335.42,215.11C335.72,211.5 336.03,207.89 336.33,204.32C336.63,200.79 336.93,197.28 337.23,193.81C337.53,190.4 337.83,187.02 338.14,183.69C338.44,180.43 338.73,177.21 339.04,174.04C339.34,170.96 339.64,167.92 339.95,164.95C340.25,162.08 340.54,159.26 340.85,156.5C341.14,153.86 341.44,151.26 341.75,148.74C342.04,146.35 342.35,144.01 342.66,141.76C342.95,139.64 343.25,137.58 343.56,135.61C343.85,133.78 344.15,132 344.47,130.33C344.76,128.8 345.05,127.33 345.37,125.97C345.65,124.76 345.94,123.6 346.27,122.57C346.55,121.68 346.84,120.83 347.18,120.14C347.46,119.58 347.73,119.02 348.08,118.71C348.35,118.47 348.69,118.26 348.99,118.28C349.3,118.3 349.62,118.57 349.89,118.85C350.24,119.22 350.51,119.81 350.79,120.41C351.13,121.14 351.42,122.02 351.7,122.93C352.03,123.99 352.31,125.17 352.6,126.39C352.92,127.76 353.22,129.23 353.51,130.75C353.83,132.41 354.12,134.17 354.41,135.97C354.72,137.9 355.03,139.92 355.32,141.98C355.63,144.16 355.93,146.42 356.22,148.72C356.53,151.13 356.82,153.62 357.12,156.14C357.43,158.76 357.73,161.43 358.03,164.14C358.34,166.93 358.63,169.77 358.93,172.64C359.24,175.58 359.54,178.57 359.84,181.57C360.14,184.62 360.44,187.71 360.74,190.81C361.04,193.95 361.34,197.12 361.64,200.28C361.94,203.46 362.25,206.66 362.55,209.85C362.85,213.04 363.15,216.24 363.45,219.41C363.75,222.56 364.06,225.71 364.36,228.83C364.66,231.9 364.96,234.96 365.26,237.98C365.56,240.93 365.85,243.87 366.16,246.74C366.46,249.52 366.76,252.33 367.07,254.95C367.36,257.37 367.66,259.69 367.97,261.91C368.26,263.96 368.57,265.91 368.88,267.83C369.17,269.65 369.47,271.43 369.78,273.14C370.07,274.75 370.37,276.32 370.68,277.81C370.97,279.19 371.27,280.54 371.59,281.79C371.88,282.92 372.17,284.02 372.49,285.01C372.78,285.89 373.07,286.73 373.4,287.45C373.68,288.05 373.96,288.63 374.3,289.06C374.58,289.41 374.88,289.74 375.21,289.9C375.49,290.03 375.82,290.09 376.11,290.03C376.42,289.96 376.73,289.72 377.01,289.45C377.35,289.11 377.64,288.59 377.92,288.07C378.25,287.46 378.55,286.79 378.82,286C379.17,285 379.44,283.74 379.73,282.51C380.05,281.14 380.34,279.65 380.63,278.16C380.94,276.58 381.24,274.95 381.53,273.28C381.84,271.53 382.14,269.74 382.44,267.91C382.75,266 383.04,264.04 383.34,262.05C383.65,259.98 383.95,257.86 384.25,255.71C384.56,253.48 384.86,251.22 385.15,248.9C385.46,246.48 385.76,244.04 386.05,241.48C386.36,238.74 386.67,235.88 386.96,232.97C387.27,229.89 387.56,226.69 387.86,223.48C388.17,220.17 388.47,216.77 388.77,213.39C389.07,209.97 389.37,206.52 389.67,203.08C389.97,199.62 390.28,196.15 390.58,192.69C390.88,189.24 391.18,185.79 391.48,182.36C391.78,178.96 392.08,175.56 392.38,172.2C392.68,168.89 392.99,165.6 393.29,162.35C393.59,159.17 393.88,156 394.19,152.9C394.49,149.88 394.79,146.9 395.1,143.98C395.4,141.16 395.69,138.38 396,135.68C396.29,133.09 396.59,130.55 396.9,128.09C397.19,125.76 397.5,123.48 397.81,121.29C398.1,119.24 398.39,117.24 398.71,115.35C399,113.61 399.3,111.92 399.62,110.34C399.91,108.92 400.2,107.54 400.52,106.3C400.8,105.21 401.08,104.16 401.42,103.27C401.7,102.53 401.98,101.81 402.33,101.3C402.6,100.91 402.9,100.49 403.23,100.39C403.51,100.3 403.87,100.39 404.14,100.56C404.49,100.78 404.77,101.31 405.04,101.81C405.39,102.45 405.67,103.27 405.95,104.12C406.28,105.13 406.57,106.28 406.85,107.48C407.17,108.83 407.46,110.31 407.75,111.84C408.07,113.52 408.37,115.31 408.66,117.15C408.97,119.14 409.27,121.22 409.56,123.36C409.87,125.63 410.18,127.99 410.47,130.39C410.78,132.91 411.08,135.52 411.37,138.16C411.68,140.9 411.97,143.72 412.27,146.56C412.58,149.49 412.88,152.48 413.18,155.48C413.48,158.55 413.78,161.66 414.08,164.78C414.38,167.94 414.69,171.13 414.99,174.32C415.29,177.52 415.59,180.74 415.89,183.93C416.19,187.1 416.49,190.28 416.79,193.41C417.09,196.49 417.39,199.56 417.7,202.56C418,205.47 418.29,208.35 418.6,211.14C418.89,213.8 419.2,216.43 419.51,218.94C419.8,221.28 420.09,223.57 420.41,225.7C420.7,227.63 420.99,229.51 421.32,231.19C421.6,232.62 421.87,234.05 422.22,235.16C422.49,236 422.71,237.1 423.12,237.31C423.38,237.44 423.78,237.35 424.03,237.11C424.51,236.66 424.66,235.15 424.93,233.95C425.28,232.4 425.55,230.44 425.84,228.55C426.16,226.48 426.45,224.25 426.74,222.02C427.05,219.7 427.34,217.29 427.64,214.89C427.94,212.44 428.25,209.94 428.55,207.45C428.85,204.93 429.15,202.38 429.45,199.85C429.75,197.31 430.06,194.77 430.36,192.24C430.66,189.72 430.96,187.21 431.26,184.71C431.56,182.24 431.86,179.78 432.16,177.34C432.46,174.93 432.77,172.53 433.07,170.16C433.37,167.83 433.67,165.51 433.97,163.22C434.27,160.97 434.58,158.73 434.88,156.52C435.18,154.35 435.48,152.19 435.78,150.06C436.08,147.96 436.38,145.89 436.68,143.83C436.98,141.8 437.29,139.8 437.59,137.8C437.89,135.83 438.19,133.88 438.49,131.94C438.79,130.02 439.1,128.12 439.4,126.22C439.7,124.34 440,122.48 440.3,120.62C440.6,118.77 440.91,116.93 441.21,115.09C441.51,113.26 441.81,111.43 442.11,109.61C442.41,107.79 442.71,105.98 443.01,104.17C443.31,102.36 443.62,100.54 443.92,98.73C444.22,96.92 444.52,95.1 444.82,93.29C445.12,91.48 445.43,89.66 445.73,87.85C446.03,86.03 446.33,84.22 446.63,82.4C446.93,80.58 447.23,78.76 447.53,76.95C447.83,75.14 448.14,73.33 448.44,71.52C448.74,69.72 449.04,67.92 449.34,66.13C449.64,64.35 449.95,62.57 450.25,60.8C450.55,59.05 450.85,57.3 451.15,55.57C451.45,53.86 451.75,52.16 452.05,50.48C452.35,48.83 452.66,47.19 452.96,45.58C453.26,44 453.55,42.43 453.86,40.89C454.16,39.4 454.46,37.93 454.77,36.49C455.07,35.1 455.36,33.73 455.67,32.4C455.97,31.13 456.27,29.88 456.58,28.67C456.87,27.53 457.17,26.41 457.48,25.35C457.77,24.36 458.07,23.39 458.38,22.48C458.67,21.64 458.97,20.83 459.29,20.08C459.58,19.41 459.87,18.76 460.19,18.19C460.48,17.69 460.77,17.21 461.1,16.83Q461.38,16.5 462,16" style="vector-effect: non-scaling-stroke; fill: none; stroke: rgb(231, 107, 243); stroke-opacity: 1; stroke-width: 2px; opacity: 1;"/></g><g class="points"/><g class="text"/></g></g></g><g class="overplot"/><path class="xlines-above crisp" d="M0,0" style="fill: none;"/><path class="ylines-above crisp" d="M0,0" style="fill: none;"/><g class="overlines-above"/><g class="xaxislayer-above"><g class="xtick"><text text-anchor="middle" x="0" y="433" transform="translate(80,0)" style="font-family: 'Open Sans', verdana, arial, sans-serif; font-size: 12px; fill: rgb(42, 63, 95); fill-opacity: 1; white-space: pre;">0</text></g><g class="xtick"><text text-anchor="middle" x="0" y="433" transform="translate(170.23000000000002,0)" style="font-family: 'Open Sans', verdana, arial, sans-serif; font-size: 12px; fill: rgb(42, 63, 95); fill-opacity: 1; white-space: pre;">100</text></g><g class="xtick"><text text-anchor="middle" x="0" y="433" transform="translate(260.47,0)" style="font-family: 'Open Sans', verdana, arial, sans-serif; font-size: 12px; fill: rgb(42, 63, 95); fill-opacity: 1; white-space: pre;">200</text></g><g class="xtick"><text text-anchor="middle" x="0" y="433" transform="translate(350.7,0)" style="font-family: 'Open Sans', verdana, arial, sans-serif; font-size: 12px; fill: rgb(42, 63, 95); fill-opacity: 1; white-space: pre;">300</text></g><g class="xtick"><text text-anchor="middle" x="0" y="433" transform="translate(440.94,0)" style="font-family: 'Open Sans', verdana, arial, sans-serif; font-size: 12px; fill: rgb(42, 63, 95); fill-opacity: 1; white-space: pre;">400</text></g><g class="xtick"><text text-anchor="middle" x="0" y="433" transform="translate(531.1700000000001,0)" style="font-family: 'Open Sans', verdana, arial, sans-serif; font-size: 12px; fill: rgb(42, 63, 95); fill-opacity: 1; white-space: pre;">500</text></g></g><g class="yaxislayer-above"><g class="ytick"><text text-anchor="end" x="79" y="4.199999999999999" transform="translate(0,418.59)" style="font-family: 'Open Sans', verdana, arial, sans-serif; font-size: 12px; fill: rgb(42, 63, 95); fill-opacity: 1; white-space: pre;">200</text></g><g class="ytick"><text text-anchor="end" x="79" y="4.199999999999999" transform="translate(0,380.98)" style="font-family: 'Open Sans', verdana, arial, sans-serif; font-size: 12px; fill: rgb(42, 63, 95); fill-opacity: 1; white-space: pre;">400</text></g><g class="ytick"><text text-anchor="end" x="79" y="4.199999999999999" transform="translate(0,343.37)" style="font-family: 'Open Sans', verdana, arial, sans-serif; font-size: 12px; fill: rgb(42, 63, 95); fill-opacity: 1; white-space: pre;">600</text></g><g class="ytick"><text text-anchor="end" x="79" y="4.199999999999999" transform="translate(0,305.77)" style="font-family: 'Open Sans', verdana, arial, sans-serif; font-size: 12px; fill: rgb(42, 63, 95); fill-opacity: 1; white-space: pre;">800</text></g><g class="ytick"><text text-anchor="end" x="79" y="4.199999999999999" transform="translate(0,268.15999999999997)" style="font-family: 'Open Sans', verdana, arial, sans-serif; font-size: 12px; fill: rgb(42, 63, 95); fill-opacity: 1; white-space: pre;">1000</text></g><g class="ytick"><text text-anchor="end" x="79" y="4.199999999999999" transform="translate(0,230.55)" style="font-family: 'Open Sans', verdana, arial, sans-serif; font-size: 12px; fill: rgb(42, 63, 95); fill-opacity: 1; white-space: pre;">1200</text></g><g class="ytick"><text text-anchor="end" x="79" y="4.199999999999999" transform="translate(0,192.94)" style="font-family: 'Open Sans', verdana, arial, sans-serif; font-size: 12px; fill: rgb(42, 63, 95); fill-opacity: 1; white-space: pre;">1400</text></g><g class="ytick"><text text-anchor="end" x="79" y="4.199999999999999" transform="translate(0,155.32999999999998)" style="font-family: 'Open Sans', verdana, arial, sans-serif; font-size: 12px; fill: rgb(42, 63, 95); fill-opacity: 1; white-space: pre;">1600</text></g><g class="ytick"><text text-anchor="end" x="79" y="4.199999999999999" transform="translate(0,117.73)" style="font-family: 'Open Sans', verdana, arial, sans-serif; font-size: 12px; fill: rgb(42, 63, 95); fill-opacity: 1; white-space: pre;">1800</text></g></g><g class="overaxes-above"/></g></g><g class="polarlayer"/><g class="ternarylayer"/><g class="geolayer"/><g class="funnelarealayer"/><g class="pielayer"/><g class="treemaplayer"/><g class="sunburstlayer"/><g class="glimages"/><defs id="topdefs-ff704f"><g class="clips"/><clipPath id="legendff704f"><rect width="137" height="67" x="0" y="0"/></clipPath></defs><g class="layer-above"><g class="imagelayer"/><g class="shapelayer"/></g><g class="infolayer"><g class="legend" pointer-events="all" transform="translate(551.24, 100)"><rect class="bg" shape-rendering="crispEdges" width="137" height="67" x="0" y="0" style="stroke: rgb(68, 68, 68); stroke-opacity: 1; fill: rgb(255, 255, 255); fill-opacity: 1; stroke-width: 0px;"/><g class="scrollbox" transform="translate(0, 0)" clip-path="url('#legendff704f')"><g class="groups"><g class="traces" transform="translate(0, 14.5)" style="opacity: 1;"><text class="legendtext" text-anchor="start" x="40" y="4.680000000000001" style="font-family: 'Open Sans', verdana, arial, sans-serif; font-size: 12px; fill: rgb(42, 63, 95); fill-opacity: 1; white-space: pre;">Average Class I</text><g class="layers" style="opacity: 1;"><g class="legendfill"/><g class="legendlines"><path class="js-line" d="M5,0h30" style="fill: none; stroke: rgb(0, 100, 80); stroke-opacity: 1; stroke-width: 2px;"/></g><g class="legendsymbols"><g class="legendpoints"/></g></g><rect class="legendtoggle" x="0" y="-9.5" width="131.15625" height="19" style="fill: rgb(0, 0, 0); fill-opacity: 0;"/></g><g class="traces" transform="translate(0, 33.5)" style="opacity: 1;"><text class="legendtext" text-anchor="start" x="40" y="4.680000000000001" style="font-family: 'Open Sans', verdana, arial, sans-serif; font-size: 12px; fill: rgb(42, 63, 95); fill-opacity: 1; white-space: pre;">Average Class II</text><g class="layers" style="opacity: 1;"><g class="legendfill"/><g class="legendlines"><path class="js-line" d="M5,0h30" style="fill: none; stroke: rgb(0, 176, 246); stroke-opacity: 1; stroke-width: 2px;"/></g><g class="legendsymbols"><g class="legendpoints"/></g></g><rect class="legendtoggle" x="0" y="-9.5" width="131.15625" height="19" style="fill: rgb(0, 0, 0); fill-opacity: 0;"/></g><g class="traces" transform="translate(0, 52.5)" style="opacity: 1;"><text class="legendtext" text-anchor="start" x="40" y="4.680000000000001" style="font-family: 'Open Sans', verdana, arial, sans-serif; font-size: 12px; fill: rgb(42, 63, 95); fill-opacity: 1; white-space: pre;">Average Class III</text><g class="layers" style="opacity: 1;"><g class="legendfill"/><g class="legendlines"><path class="js-line" d="M5,0h30" style="fill: none; stroke: rgb(231, 107, 243); stroke-opacity: 1; stroke-width: 2px;"/></g><g class="legendsymbols"><g class="legendpoints"/></g></g><rect class="legendtoggle" x="0" y="-9.5" width="131.15625" height="19" style="fill: rgb(0, 0, 0); fill-opacity: 0;"/></g></g></g><rect class="scrollbar" rx="20" ry="3" width="0" height="0" x="0" y="0" style="fill: rgb(128, 139, 164); fill-opacity: 1;"/></g><g class="g-gtitle"><text class="gtitle" x="35" y="50" text-anchor="start" dy="0em" style="font-family: 'Open Sans', verdana, arial, sans-serif; font-size: 17px; fill: rgb(42, 63, 95); opacity: 1; font-weight: normal; white-space: pre;">Average curve: index_group</text></g><g class="g-xtitle"><text class="xtitle" x="311" y="460.8" text-anchor="middle" style="font-family: 'Open Sans', verdana, arial, sans-serif; font-size: 14px; fill: rgb(42, 63, 95); opacity: 1; font-weight: normal; white-space: pre;">Domain</text></g><g class="g-ytitle"><text class="ytitle" transform="rotate(-90,27.496875000000003,260)" x="27.496875000000003" y="260" text-anchor="middle" style="font-family: 'Open Sans', verdana, arial, sans-serif; font-size: 14px; fill: rgb(42, 63, 95); opacity: 1; font-weight: normal; white-space: pre;">Frequency</text></g></g></svg>