<svg class="main-svg" xmlns="http://www.w3.org/2000/svg" xmlns:xlink="http://www.w3.org/1999/xlink" width="700" height="500" style="" viewBox="0 0 700 500"><rect x="0" y="0" width="700" height="500" style="fill: rgb(255, 255, 255); fill-opacity: 1;"/><defs id="defs-32167e"><g class="clips"><clipPath id="clip32167exyplot" class="plotclip"><rect width="462" height="320"/></clipPath><clipPath class="axesclip" id="clip32167ex"><rect x="80" y="0" width="462" height="500"/></clipPath><clipPath class="axesclip" id="clip32167ey"><rect x="0" y="100" width="700" height="320"/></clipPath><clipPath class="axesclip" id="clip32167exy"><rect x="80" y="100" width="462" height="320"/></clipPath></g><g class="gradients"/></defs><g class="bglayer"><rect class="bg" x="80" y="100" width="462" height="320" style="fill: rgb(229, 236, 246); fill-opacity: 1; stroke-width: 0;"/></g><g class="layer-below"><g class="imagelayer"/><g class="shapelayer"/></g><g class="cartesianlayer"><g class="subplot xy"><g class="layer-subplot"><g class="shapelayer"/><g class="imagelayer"/></g><g class="gridlayer"><g class="x"><path class="xgrid crisp" transform="translate(170.23000000000002,0)" d="M0,100v320" style="stroke: rgb(255, 255, 255); stroke-opacity: 1; stroke-width: 1px;"/><path class="xgrid crisp" transform="translate(260.47,0)" d="M0,100v320" style="stroke: rgb(255, 255, 255); stroke-opacity: 1; stroke-width: 1px;"/><path class="xgrid crisp" transform="translate(350.7,0)" d="M0,100v320" style="stroke: rgb(255, 255, 255); stroke-opacity: 1; stroke-width: 1px;"/><path class="xgrid crisp" transform="translate(440.94,0)" d="M0,100v320" style="stroke: rgb(255, 255, 255); stroke-opacity: 1; stroke-width: 1px;"/><path class="xgrid crisp" transform="translate(531.1700000000001,0)" d="M0,100v320" style="stroke: rgb(255, 255, 255); stroke-opacity: 1; stroke-width: 1px;"/></g><g class="y"><path class="ygrid crisp" transform="translate(0,359.8)" d="M80,0h462" style="stroke: rgb(255, 255, 255); stroke-opacity: 1; stroke-width: 1px;"/><path class="ygrid crisp" transform="translate(0,286.48)" d="M80,0h462" style="stroke: rgb(255, 255, 255); stroke-opacity: 1; stroke-width: 1px;"/><path class="ygrid crisp" transform="translate(0,213.16)" d="M80,0h462" style="stroke: rgb(255, 255, 255); stroke-opacity: 1; stroke-width: 1px;"/><path class="ygrid crisp" transform="translate(0,139.85)" d="M80,0h462" style="stroke: rgb(255, 255, 255); stroke-opacity: 1; stroke-width: 1px;"/></g></g><g class="zerolinelayer"><path class="xzl zl crisp" transform="translate(80,0)" d="M0,100v320" style="stroke: rgb(255, 255, 255); stroke-opacity: 1; stroke-width: 2px;"/></g><path class="xlines-below"/><path class="ylines-below"/><g class="overlines-below"/><g class="xaxislayer-below"/><g class="yaxislayer-below"/><g class="overaxes-below"/><g class="plot" transform="translate(80, 100)" clip-path="url('#clip32167exyplot')"><g class="scatterlayer mlayer"><g class="trace scatter trace1c39aa" style="stroke-miterlimit: 2; opacity: 1;"><g class="fills"/><g class="errorbars"/><g class="lines"><path class="js-line" d="M0,165.66Q0.63,165.36 0.9,165.06C1.26,164.65 1.53,163.96 1.81,163.28C2.15,162.45 2.43,161.43 2.71,160.39C3.04,159.2 3.33,157.87 3.62,156.51C3.94,155.01 4.23,153.39 4.52,151.75C4.83,149.99 5.13,148.14 5.42,146.27C5.73,144.3 6.03,142.26 6.33,140.2C6.64,138.07 6.93,135.89 7.23,133.69C7.54,131.44 7.84,129.15 8.14,126.86C8.44,124.54 8.74,122.19 9.04,119.85C9.34,117.49 9.65,115.12 9.95,112.75C10.25,110.39 10.55,108.02 10.85,105.67C11.15,103.33 11.45,101 11.75,98.69C12.05,96.41 12.36,94.14 12.66,91.89C12.96,89.69 13.25,87.5 13.56,85.34C13.86,83.23 14.16,81.15 14.47,79.1C14.77,77.11 15.06,75.14 15.37,73.22C15.66,71.36 15.96,69.53 16.27,67.75C16.57,66.04 16.87,64.35 17.18,62.72C17.47,61.16 17.77,59.64 18.08,58.17C18.37,56.78 18.68,55.43 18.99,54.13C19.28,52.91 19.58,51.73 19.89,50.61C20.18,49.58 20.47,48.58 20.79,47.65C21.08,46.8 21.38,45.99 21.7,45.25C21.99,44.59 22.27,43.97 22.6,43.43C22.88,42.96 23.18,42.52 23.51,42.19C23.79,41.91 24.09,41.65 24.41,41.52C24.7,41.4 25.02,41.36 25.32,41.41C25.63,41.46 25.94,41.63 26.22,41.83C26.54,42.05 26.84,42.38 27.12,42.73C27.44,43.13 27.74,43.61 28.03,44.13C28.35,44.71 28.64,45.37 28.93,46.06C29.25,46.84 29.55,47.69 29.84,48.59C30.16,49.59 30.45,50.68 30.74,51.81C31.06,53.06 31.35,54.39 31.64,55.77C31.96,57.28 32.26,58.87 32.55,60.52C32.86,62.3 33.16,64.16 33.45,66.08C33.76,68.13 34.07,70.26 34.36,72.45C34.67,74.77 34.97,77.17 35.26,79.62C35.57,82.2 35.86,84.86 36.16,87.57C36.47,90.4 36.77,93.3 37.07,96.25C37.38,99.31 37.67,102.44 37.97,105.61C38.28,108.88 38.58,112.21 38.88,115.58C39.19,119.03 39.48,122.54 39.78,126.07C40.08,129.67 40.38,133.33 40.68,136.99C40.98,140.7 41.29,144.46 41.59,148.21C41.89,151.99 42.19,155.8 42.49,159.6C42.79,163.4 43.1,167.21 43.4,170.99C43.7,174.74 43.99,178.61 44.3,182.2C44.59,185.53 44.9,188.68 45.21,191.82C45.51,194.83 45.8,197.82 46.11,200.66C46.4,203.3 46.69,205.91 47.01,208.31C47.3,210.44 47.6,212.47 47.92,214.34C48.2,215.97 48.48,217.55 48.82,218.92C49.1,220.05 49.37,221.16 49.73,221.98C50,222.58 50.3,223.41 50.63,223.45C50.91,223.49 51.27,223 51.53,222.6C51.91,222.02 52.16,221.06 52.44,220.16C52.77,219.08 53.05,217.82 53.34,216.55C53.66,215.14 53.96,213.6 54.25,212.06C54.56,210.43 54.85,208.71 55.15,207C55.45,205.24 55.75,203.44 56.05,201.66C56.35,199.87 56.66,198.06 56.96,196.27C57.26,194.5 57.56,192.74 57.86,191C58.16,189.29 58.46,187.59 58.77,185.92C59.07,184.3 59.36,182.69 59.67,181.15C59.96,179.7 60.26,178.27 60.58,176.94C60.87,175.72 61.16,174.54 61.48,173.46C61.76,172.5 62.05,171.58 62.38,170.78C62.66,170.1 62.95,169.44 63.29,168.94C63.57,168.54 63.85,168.14 64.19,167.96C64.47,167.81 64.81,167.74 65.1,167.81C65.42,167.88 65.72,168.17 66,168.45C66.33,168.79 66.62,169.29 66.9,169.79C67.23,170.37 67.52,171.05 67.81,171.75C68.13,172.52 68.42,173.36 68.71,174.22C69.02,175.15 69.33,176.13 69.62,177.15C69.93,178.24 70.23,179.38 70.52,180.56C70.83,181.81 71.13,183.11 71.42,184.45C71.73,185.87 72.04,187.33 72.33,188.83C72.64,190.4 72.93,192.02 73.23,193.67C73.54,195.39 73.84,197.16 74.14,198.95C74.45,200.81 74.74,202.71 75.04,204.62C75.35,206.58 75.65,208.58 75.95,210.59C76.25,212.64 76.55,214.72 76.85,216.79C77.15,218.88 77.45,220.98 77.75,223.07C78.05,225.15 78.35,227.23 78.66,229.28C78.96,231.28 79.25,233.28 79.56,235.21C79.86,237.06 80.16,238.89 80.47,240.62C80.76,242.22 81.05,243.8 81.37,245.23C81.65,246.48 81.92,247.72 82.27,248.73C82.54,249.53 82.79,250.41 83.18,250.82C83.44,251.09 83.8,251.33 84.08,251.26C84.42,251.18 84.72,250.54 84.99,250.02C85.36,249.31 85.61,248.28 85.89,247.29C86.22,246.13 86.5,244.8 86.79,243.48C87.1,242.06 87.4,240.54 87.7,239.04C88.01,237.49 88.3,235.9 88.6,234.32C88.9,232.74 89.21,231.14 89.51,229.57C89.81,228.02 90.1,226.48 90.41,224.97C90.71,223.51 91.01,222.06 91.32,220.65C91.62,219.3 91.91,217.97 92.22,216.7C92.51,215.5 92.81,214.32 93.12,213.2C93.41,212.16 93.71,211.14 94.03,210.19C94.32,209.32 94.61,208.47 94.93,207.7C95.22,207 95.52,206.34 95.84,205.75C96.12,205.23 96.42,204.75 96.74,204.35C97.02,204 97.32,203.69 97.64,203.47C97.93,203.28 98.24,203.15 98.55,203.07C98.84,202.99 99.15,202.98 99.45,202.99C99.75,203 100.07,203.04 100.36,203.15C100.67,203.27 100.98,203.46 101.26,203.7C101.58,203.98 101.88,204.36 102.16,204.76C102.48,205.22 102.78,205.76 103.07,206.32C103.39,206.95 103.68,207.64 103.97,208.36C104.29,209.14 104.59,209.97 104.88,210.83C105.19,211.74 105.49,212.71 105.78,213.69C106.09,214.72 106.38,215.78 106.68,216.85C106.99,217.96 107.29,219.11 107.59,220.26C107.89,221.43 108.19,222.63 108.49,223.82C108.79,225.03 109.1,226.25 109.4,227.46C109.7,228.66 110,229.87 110.3,231.06C110.6,232.24 110.9,233.41 111.21,234.56C111.51,235.69 111.81,236.8 112.11,237.9C112.41,238.97 112.7,240.03 113.01,241.07C113.31,242.08 113.61,243.06 113.92,244.03C114.22,244.96 114.51,245.89 114.82,246.78C115.12,247.64 115.42,248.48 115.73,249.29C116.02,250.07 116.32,250.82 116.63,251.55C116.92,252.25 117.22,252.92 117.53,253.57C117.82,254.18 118.13,254.77 118.44,255.34C118.73,255.88 119.03,256.4 119.34,256.9C119.64,257.38 119.94,257.84 120.25,258.28C120.54,258.7 120.84,259.1 121.15,259.49C121.44,259.86 121.74,260.23 122.05,260.57C122.35,260.9 122.65,261.22 122.96,261.53C123.26,261.83 123.55,262.11 123.86,262.38C124.16,262.64 124.46,262.89 124.77,263.11C125.07,263.32 125.36,263.52 125.67,263.68C125.97,263.83 126.27,263.97 126.58,264.03C126.88,264.09 127.18,264.11 127.48,264.07C127.78,264.03 128.09,263.91 128.38,263.76C128.7,263.59 129,263.34 129.29,263.07C129.61,262.77 129.9,262.4 130.19,262.01C130.51,261.59 130.81,261.11 131.1,260.62C131.41,260.09 131.71,259.51 132,258.91C132.31,258.28 132.61,257.61 132.9,256.93C133.21,256.21 133.51,255.46 133.81,254.7C134.12,253.91 134.41,253.1 134.71,252.28C135.02,251.44 135.32,250.58 135.62,249.71C135.92,248.83 136.22,247.94 136.52,247.05C136.82,246.16 137.12,245.25 137.42,244.36C137.72,243.47 138.03,242.57 138.33,241.69C138.63,240.82 138.92,239.95 139.23,239.1C139.53,238.27 139.83,237.46 140.14,236.66C140.44,235.89 140.73,235.13 141.04,234.41C141.33,233.72 141.64,233.05 141.95,232.42C142.24,231.82 142.54,231.24 142.85,230.71C143.14,230.22 143.43,229.75 143.75,229.34C144.04,228.96 144.34,228.61 144.66,228.32C144.95,228.06 145.25,227.83 145.56,227.68C145.85,227.54 146.17,227.44 146.47,227.42C146.77,227.4 147.08,227.45 147.37,227.56C147.68,227.68 147.99,227.89 148.27,228.13C148.59,228.41 148.89,228.77 149.18,229.16C149.5,229.6 149.79,230.13 150.08,230.68C150.4,231.3 150.7,231.98 150.99,232.7C151.31,233.49 151.6,234.33 151.89,235.21C152.2,236.16 152.5,237.17 152.79,238.2C153.1,239.3 153.41,240.45 153.7,241.62C154.01,242.85 154.3,244.14 154.6,245.43C154.91,246.77 155.21,248.15 155.51,249.53C155.81,250.94 156.11,252.38 156.41,253.81C156.71,255.24 157.01,256.69 157.32,258.09C157.62,259.43 157.9,260.79 158.22,262.03C158.51,263.15 158.79,264.24 159.12,265.21C159.4,266.06 159.7,266.86 160.03,267.55C160.31,268.13 160.58,268.7 160.93,269.08C161.2,269.38 161.53,269.68 161.84,269.72C162.13,269.76 162.47,269.59 162.74,269.38C163.09,269.1 163.37,268.56 163.64,268.03C163.98,267.37 164.27,266.54 164.55,265.68C164.88,264.69 165.16,263.56 165.45,262.41C165.77,261.14 166.07,259.77 166.36,258.38C166.67,256.89 166.97,255.32 167.26,253.73C167.57,252.08 167.86,250.37 168.16,248.65C168.47,246.89 168.77,245.09 169.07,243.3C169.37,241.49 169.67,239.66 169.97,237.85C170.27,236.05 170.58,234.24 170.88,232.45C171.18,230.69 171.48,228.94 171.78,227.22C172.08,225.55 172.37,223.9 172.68,222.29C172.98,220.74 173.28,219.22 173.59,217.75C173.88,216.35 174.18,214.99 174.49,213.68C174.78,212.46 175.08,211.26 175.4,210.14C175.69,209.11 175.98,208.1 176.3,207.18C176.59,206.35 176.89,205.55 177.21,204.83C177.49,204.2 177.78,203.6 178.11,203.1C178.39,202.67 178.68,202.26 179.01,201.99C179.29,201.76 179.61,201.56 179.92,201.5C180.21,201.44 180.53,201.48 180.82,201.58C181.14,201.7 181.45,201.94 181.73,202.21C182.05,202.51 182.34,202.92 182.63,203.34C182.95,203.81 183.24,204.34 183.53,204.89C183.84,205.49 184.15,206.13 184.44,206.79C184.75,207.49 185.04,208.22 185.34,208.96C185.65,209.72 185.95,210.5 186.25,211.28C186.55,212.06 186.85,212.86 187.15,213.64C187.45,214.41 187.74,215.19 188.05,215.93C188.35,216.64 188.65,217.35 188.96,218.01C189.25,218.63 189.54,219.24 189.86,219.77C190.15,220.25 190.44,220.73 190.77,221.07C191.05,221.36 191.37,221.74 191.67,221.73C191.98,221.72 192.3,221.28 192.58,220.95C192.92,220.54 193.19,219.95 193.48,219.39C193.79,218.78 194.09,218.11 194.38,217.43C194.69,216.72 194.99,215.97 195.29,215.22C195.6,214.45 195.89,213.66 196.19,212.88C196.49,212.1 196.79,211.31 197.1,210.55C197.4,209.8 197.69,209.06 198,208.35C198.29,207.68 198.58,207.01 198.9,206.41C199.19,205.85 199.49,205.31 199.81,204.85C200.1,204.44 200.38,204.04 200.71,203.76C200.99,203.52 201.31,203.3 201.62,203.24C201.91,203.18 202.24,203.23 202.52,203.36C202.84,203.51 203.14,203.83 203.42,204.17C203.76,204.58 204.05,205.13 204.33,205.71C204.66,206.39 204.95,207.19 205.23,208.02C205.55,208.96 205.85,210.01 206.14,211.09C206.46,212.29 206.75,213.57 207.04,214.9C207.36,216.34 207.66,217.87 207.95,219.43C208.26,221.09 208.56,222.83 208.85,224.6C209.16,226.46 209.45,228.39 209.75,230.34C210.06,232.36 210.36,234.44 210.66,236.53C210.97,238.67 211.26,240.85 211.56,243.03C211.86,245.22 212.17,247.45 212.47,249.64C212.77,251.81 213.06,254 213.37,256.12C213.67,258.17 213.96,260.23 214.27,262.17C214.56,263.98 214.86,265.78 215.18,267.41C215.46,268.84 215.73,270.27 216.08,271.42C216.35,272.32 216.59,273.31 216.99,273.79C217.25,274.1 217.62,274.39 217.89,274.33C218.23,274.25 218.53,273.54 218.79,272.93C219.19,271.97 219.42,270.4 219.7,268.95C220.03,267.22 220.31,265.22 220.6,263.23C220.92,261.05 221.21,258.71 221.51,256.38C221.82,253.94 222.11,251.42 222.41,248.9C222.71,246.33 223.02,243.71 223.32,241.12C223.62,238.52 223.92,235.91 224.22,233.33C224.52,230.78 224.81,228.24 225.12,225.74C225.42,223.3 225.72,220.87 226.03,218.49C226.33,216.19 226.62,213.91 226.93,211.69C227.23,209.55 227.53,207.44 227.84,205.39C228.14,203.42 228.43,201.51 228.74,199.62C229.03,197.8 229.34,196.04 229.64,194.28C229.94,192.55 230.24,190.83 230.55,189.16C230.85,187.54 231.14,185.93 231.45,184.4C231.74,182.96 232.04,181.56 232.36,180.24C232.65,179.03 232.94,177.85 233.26,176.78C233.54,175.83 233.83,174.92 234.16,174.14C234.44,173.49 234.72,172.85 235.07,172.41C235.34,172.07 235.65,171.72 235.97,171.65C236.26,171.59 236.61,171.71 236.88,171.9C237.23,172.15 237.51,172.69 237.78,173.2C238.12,173.85 238.4,174.67 238.68,175.52C239.01,176.52 239.3,177.65 239.59,178.83C239.91,180.15 240.2,181.6 240.49,183.08C240.81,184.7 241.11,186.42 241.4,188.17C241.71,190.04 242,191.99 242.3,193.96C242.61,196.02 242.91,198.14 243.21,200.27C243.51,202.44 243.81,204.66 244.11,206.85C244.41,209.02 244.7,211.23 245.01,213.35C245.31,215.38 245.6,217.43 245.92,219.32C246.21,221.03 246.48,222.76 246.82,224.2C247.1,225.37 247.31,226.66 247.73,227.36C247.99,227.79 248.36,228.28 248.63,228.24C248.97,228.19 249.27,227.25 249.53,226.52C249.92,225.43 250.16,223.81 250.44,222.21C250.78,220.24 251.05,217.93 251.34,215.58C251.66,212.92 251.96,210.02 252.25,207.08C252.56,203.91 252.86,200.57 253.15,197.2C253.46,193.68 253.75,190.04 254.05,186.39C254.36,182.65 254.66,178.84 254.96,175.03C255.26,171.19 255.56,167.31 255.86,163.45C256.16,159.6 256.47,155.74 256.77,151.92C257.07,148.14 257.37,144.37 257.67,140.66C257.97,137.02 258.27,133.41 258.58,129.87C258.88,126.44 259.17,123.04 259.48,119.73C259.77,116.56 260.07,113.43 260.38,110.41C260.67,107.55 260.98,104.74 261.29,102.06C261.58,99.55 261.87,97.11 262.19,94.8C262.48,92.69 262.78,90.64 263.1,88.74C263.39,87.05 263.67,85.43 264,83.98C264.28,82.75 264.55,81.55 264.9,80.58C265.17,79.81 265.43,79.02 265.81,78.59C266.07,78.29 266.42,78.01 266.71,78.04C267.03,78.08 267.35,78.53 267.62,78.94C267.99,79.51 268.25,80.39 268.52,81.26C268.86,82.34 269.14,83.63 269.42,84.96C269.75,86.51 270.04,88.23 270.33,90C270.65,91.97 270.94,94.09 271.23,96.27C271.55,98.64 271.85,101.14 272.14,103.69C272.45,106.41 272.75,109.24 273.04,112.11C273.35,115.12 273.65,118.23 273.95,121.37C274.26,124.62 274.55,127.94 274.85,131.28C275.15,134.68 275.45,138.15 275.75,141.58C276.05,145 276.35,148.52 276.66,151.81C276.95,154.89 277.24,157.93 277.56,160.74C277.85,163.27 278.15,165.64 278.47,167.93C278.76,170.04 279.06,172.06 279.37,173.98C279.66,175.74 279.94,177.5 280.27,179.04C280.55,180.35 280.74,181.91 281.18,182.66C281.43,183.09 281.77,183.46 282.08,183.49C282.37,183.51 282.72,183.21 282.99,182.9C283.37,182.46 283.62,181.66 283.89,180.89C284.24,179.91 284.51,178.69 284.79,177.44C285.12,175.98 285.41,174.34 285.7,172.65C286.02,170.78 286.31,168.76 286.6,166.71C286.91,164.52 287.21,162.23 287.51,159.92C287.82,157.52 288.11,155.04 288.41,152.56C288.71,150.04 289.02,147.47 289.32,144.92C289.62,142.36 289.92,139.78 290.22,137.23C290.52,134.71 290.81,132.19 291.12,129.71C291.42,127.29 291.72,124.88 292.03,122.52C292.33,120.24 292.62,117.99 292.93,115.8C293.23,113.71 293.53,111.65 293.84,109.66C294.13,107.78 294.43,105.93 294.74,104.16C295.03,102.5 295.33,100.88 295.64,99.33C295.93,97.89 296.24,96.49 296.55,95.16C296.84,93.93 297.14,92.74 297.45,91.61C297.74,90.56 298.05,89.56 298.36,88.61C298.65,87.72 298.95,86.88 299.26,86.07C299.55,85.31 299.85,84.58 300.16,83.88C300.45,83.21 300.76,82.57 301.07,81.96C301.36,81.38 301.66,80.81 301.97,80.28C302.26,79.78 302.57,79.29 302.88,78.85C303.17,78.44 303.46,78.04 303.78,77.7C304.07,77.39 304.36,77.11 304.68,76.9C304.97,76.71 305.28,76.55 305.59,76.48C305.88,76.41 306.19,76.41 306.49,76.46C306.8,76.51 307.11,76.65 307.4,76.8C307.71,76.96 308.01,77.16 308.3,77.4C308.62,77.66 308.92,77.96 309.21,78.31C309.53,78.7 309.83,79.15 310.11,79.64C310.43,80.19 310.72,80.81 311.01,81.46C311.33,82.18 311.63,82.96 311.92,83.78C312.24,84.67 312.53,85.61 312.82,86.59C313.13,87.65 313.44,88.76 313.73,89.91C314.04,91.13 314.34,92.4 314.63,93.7C314.94,95.07 315.24,96.5 315.53,97.95C315.84,99.48 316.14,101.06 316.44,102.66C316.75,104.33 317.04,106.05 317.34,107.79C317.65,109.6 317.95,111.45 318.25,113.33C318.56,115.27 318.85,117.25 319.15,119.26C319.45,121.33 319.75,123.43 320.05,125.56C320.36,127.74 320.66,129.96 320.96,132.2C321.27,134.49 321.56,136.82 321.86,139.16C322.16,141.55 322.47,143.98 322.77,146.42C323.07,148.9 323.37,151.42 323.67,153.94C323.97,156.5 324.28,159.08 324.58,161.68C324.88,164.31 325.18,166.96 325.48,169.62C325.78,172.3 326.08,175.01 326.38,177.71C326.68,180.43 326.99,183.17 327.29,185.9C327.59,188.64 327.89,191.39 328.19,194.14C328.49,196.89 328.8,199.64 329.1,202.38C329.4,205.11 329.7,207.84 330,210.56C330.3,213.26 330.6,215.95 330.9,218.62C331.2,221.27 331.51,223.91 331.81,226.53C332.11,229.11 332.41,231.68 332.71,234.22C333.01,236.72 333.32,239.21 333.62,241.67C333.92,244.08 334.21,246.5 334.52,248.83C334.81,251.06 335.11,253.25 335.42,255.36C335.71,257.34 336.02,259.23 336.33,261.11C336.63,262.92 336.92,264.7 337.23,266.43C337.53,268.08 337.83,269.71 338.14,271.27C338.43,272.73 338.72,274.16 339.04,275.51C339.33,276.75 339.63,277.97 339.95,279.08C340.24,280.08 340.52,281.04 340.85,281.89C341.13,282.62 341.38,283.43 341.75,283.89C342.02,284.22 342.39,284.61 342.66,284.55C343.01,284.48 343.28,283.58 343.56,283.01C343.89,282.34 344.17,281.52 344.47,280.74C344.78,279.93 345.07,279.09 345.37,278.26C345.67,277.42 345.97,276.57 346.27,275.72C346.57,274.87 346.88,274.02 347.18,273.18C347.48,272.36 347.77,271.54 348.08,270.75C348.38,269.99 348.68,269.25 348.99,268.54C349.28,267.87 349.58,267.23 349.89,266.62C350.18,266.05 350.48,265.51 350.79,265C351.08,264.52 351.39,264.08 351.7,263.65C352,263.23 352.29,262.83 352.6,262.44C352.9,262.06 353.2,261.68 353.51,261.33C353.81,260.99 354.1,260.65 354.41,260.35C354.7,260.07 355.01,259.81 355.32,259.58C355.61,259.36 355.91,259.16 356.22,258.99C356.51,258.82 356.82,258.69 357.12,258.56C357.42,258.43 357.73,258.32 358.03,258.2C358.33,258.08 358.63,257.97 358.93,257.82C359.24,257.67 359.55,257.51 359.84,257.3C360.15,257.07 360.46,256.8 360.74,256.47C361.07,256.08 361.36,255.61 361.64,255.09C361.97,254.49 362.26,253.79 362.55,253.08C362.87,252.3 363.16,251.45 363.45,250.59C363.76,249.68 364.06,248.73 364.36,247.77C364.67,246.78 364.96,245.76 365.26,244.74C365.56,243.7 365.86,242.64 366.16,241.58C366.46,240.52 366.77,239.45 367.07,238.38C367.37,237.32 367.67,236.25 367.97,235.2C368.27,234.16 368.57,233.12 368.88,232.1C369.18,231.11 369.48,230.12 369.78,229.16C370.08,228.23 370.37,227.31 370.68,226.42C370.98,225.57 371.28,224.74 371.59,223.95C371.88,223.21 372.18,222.48 372.49,221.81C372.78,221.19 373.08,220.59 373.4,220.05C373.69,219.56 373.98,219.1 374.3,218.71C374.59,218.37 374.89,218.05 375.21,217.83C375.49,217.64 375.8,217.47 376.11,217.43C376.4,217.39 376.72,217.44 377.01,217.55C377.33,217.67 377.64,217.92 377.92,218.19C378.25,218.5 378.54,218.92 378.82,219.36C379.14,219.86 379.44,220.43 379.73,221.03C380.05,221.7 380.34,222.43 380.63,223.19C380.94,224.01 381.24,224.89 381.53,225.79C381.84,226.74 382.14,227.76 382.44,228.74C382.74,229.71 383.02,230.73 383.34,231.64C383.63,232.46 383.95,233.18 384.25,233.95C384.55,234.72 384.85,235.49 385.15,236.26C385.45,237.02 385.74,237.79 386.05,238.52C386.35,239.22 386.64,239.93 386.96,240.57C387.25,241.15 387.54,241.69 387.86,242.19C388.15,242.65 388.46,243.06 388.77,243.45C389.06,243.82 389.33,244.31 389.67,244.49C389.95,244.64 390.28,244.64 390.58,244.59C390.89,244.54 391.19,244.35 391.48,244.19C391.79,244.02 392.09,243.82 392.38,243.59C392.69,243.35 393,243.07 393.29,242.77C393.6,242.45 393.9,242.08 394.19,241.7C394.5,241.29 394.81,240.84 395.1,240.38C395.41,239.89 395.71,239.36 396,238.82C396.31,238.25 396.6,237.65 396.9,237.04C397.21,236.41 397.51,235.77 397.81,235.12C398.11,234.46 398.41,233.78 398.71,233.11C399.01,232.43 399.32,231.75 399.62,231.08C399.92,230.42 400.22,229.75 400.52,229.11C400.82,228.48 401.11,227.86 401.42,227.26C401.72,226.68 402.02,226.11 402.33,225.58C402.62,225.08 402.92,224.59 403.23,224.14C403.52,223.72 403.82,223.33 404.14,222.98C404.43,222.66 404.72,222.36 405.04,222.12C405.33,221.9 405.64,221.71 405.95,221.6C406.24,221.49 406.55,221.43 406.85,221.44C407.15,221.45 407.46,221.53 407.75,221.66C408.06,221.8 408.37,222.01 408.66,222.26C408.98,222.54 409.27,222.89 409.56,223.27C409.88,223.69 410.18,224.17 410.47,224.68C410.79,225.24 411.08,225.86 411.37,226.5C411.68,227.2 411.98,227.95 412.27,228.72C412.58,229.55 412.89,230.43 413.18,231.33C413.49,232.29 413.79,233.3 414.08,234.33C414.39,235.42 414.69,236.55 414.99,237.71C415.3,238.92 415.6,240.16 415.89,241.43C416.2,242.75 416.49,244.11 416.79,245.49C417.1,246.92 417.4,248.38 417.7,249.86C418.01,251.38 418.3,252.93 418.6,254.5C418.91,256.11 419.21,257.74 419.51,259.38C419.81,261.06 420.11,262.75 420.41,264.46C420.71,266.19 421.02,267.94 421.32,269.69C421.62,271.45 421.92,273.23 422.22,275C422.52,276.77 422.82,278.54 423.12,280.29C423.42,282.01 423.72,283.74 424.03,285.41C424.33,287.02 424.62,288.62 424.93,290.13C425.22,291.54 425.52,292.92 425.84,294.22C426.13,295.41 426.43,296.54 426.74,297.62C427.03,298.63 427.3,299.67 427.64,300.51C427.92,301.2 428.22,301.81 428.55,302.32C428.83,302.75 429.13,303.12 429.45,303.41C429.73,303.66 430.04,303.93 430.36,304C430.65,304.07 430.99,304.05 431.26,303.9C431.6,303.72 431.88,303.23 432.16,302.82C432.48,302.35 432.78,301.8 433.07,301.22C433.39,300.56 433.68,299.8 433.97,299.05C434.28,298.26 434.58,297.42 434.88,296.59C435.18,295.74 435.48,294.87 435.78,294.01C436.08,293.15 436.38,292.27 436.68,291.41C436.98,290.56 437.28,289.71 437.59,288.88C437.89,288.08 438.18,287.29 438.49,286.53C438.78,285.81 439.09,285.11 439.4,284.45C439.69,283.83 439.99,283.23 440.3,282.67C440.59,282.15 440.89,281.66 441.21,281.22C441.5,280.81 441.79,280.43 442.11,280.1C442.4,279.8 442.7,279.53 443.01,279.32C443.3,279.12 443.61,278.95 443.92,278.84C444.21,278.74 444.52,278.67 444.82,278.66C445.12,278.65 445.43,278.68 445.73,278.75C446.04,278.83 446.34,278.96 446.63,279.12C446.94,279.29 447.24,279.51 447.53,279.75C447.84,280 448.14,280.3 448.44,280.6C448.75,280.92 449.04,281.27 449.34,281.62C449.65,281.98 449.95,282.37 450.25,282.75C450.55,283.13 450.85,283.51 451.15,283.9C451.45,284.29 451.75,284.67 452.05,285.07C452.35,285.48 452.66,285.89 452.96,286.31C453.27,286.74 453.56,287.19 453.86,287.65C454.17,288.12 454.47,288.6 454.77,289.1C455.08,289.61 455.37,290.13 455.67,290.66C455.97,291.2 456.28,291.74 456.58,292.29C456.88,292.85 457.18,293.42 457.48,293.99C457.78,294.56 458.08,295.13 458.38,295.7C458.68,296.27 458.98,296.84 459.29,297.39C459.59,297.93 459.88,298.48 460.19,298.99C460.49,299.48 460.78,299.97 461.1,300.41Q461.39,300.81 462,301.52" style="vector-effect: non-scaling-stroke; fill: none; stroke: rgb(0, 100, 80); stroke-opacity: 1; stroke-width: 2px; opacity: 1;"/></g><g class="points"/><g class="text"/></g><g class="trace scatter trace3f8870" style="stroke-miterlimit: 2; opacity: 1;"><g class="fills"/><g class="errorbars"/><g class="lines"><path class="js-line" d="M0,113.77Q0.63,113.46 0.9,113.15C1.26,112.73 1.53,112.02 1.81,111.34C2.15,110.51 2.42,109.52 2.71,108.51C3.03,107.38 3.33,106.14 3.62,104.89C3.93,103.55 4.23,102.13 4.52,100.7C4.83,99.22 5.12,97.68 5.42,96.15C5.72,94.59 6.03,93.01 6.33,91.43C6.63,89.85 6.93,88.25 7.23,86.67C7.53,85.11 7.83,83.55 8.14,82.02C8.44,80.52 8.73,79.03 9.04,77.58C9.34,76.17 9.64,74.79 9.95,73.44C10.25,72.15 10.54,70.88 10.85,69.65C11.14,68.49 11.44,67.36 11.75,66.27C12.04,65.25 12.35,64.26 12.66,63.32C12.95,62.45 13.24,61.6 13.56,60.82C13.85,60.1 14.15,59.42 14.47,58.79C14.76,58.22 15.05,57.68 15.37,57.21C15.65,56.79 15.95,56.39 16.27,56.07C16.56,55.79 16.86,55.54 17.18,55.37C17.47,55.22 17.78,55.11 18.08,55.08C18.38,55.05 18.7,55.1 18.99,55.19C19.3,55.29 19.6,55.47 19.89,55.68C20.21,55.91 20.5,56.23 20.79,56.56C21.11,56.93 21.41,57.36 21.7,57.82C22.02,58.32 22.31,58.87 22.6,59.45C22.91,60.07 23.22,60.75 23.51,61.44C23.82,62.18 24.12,62.97 24.41,63.77C24.72,64.62 25.02,65.49 25.32,66.39C25.63,67.32 25.92,68.29 26.22,69.26C26.52,70.26 26.82,71.28 27.12,72.32C27.43,73.39 27.73,74.47 28.03,75.58C28.34,76.72 28.63,77.88 28.93,79.06C29.24,80.27 29.54,81.5 29.84,82.74C30.14,84 30.44,85.28 30.74,86.55C31.04,87.81 31.34,89.07 31.64,90.31C31.94,91.52 32.25,92.72 32.55,93.91C32.85,95.08 33.15,96.23 33.45,97.39C33.75,98.56 34.06,99.71 34.36,100.89C34.66,102.08 34.96,103.28 35.26,104.5C35.56,105.75 35.86,107.01 36.16,108.3C36.47,109.62 36.77,110.96 37.07,112.33C37.38,113.74 37.67,115.17 37.97,116.63C38.28,118.14 38.58,119.68 38.88,121.24C39.19,122.85 39.48,124.5 39.78,126.17C40.08,127.89 40.38,129.64 40.68,131.42C40.99,133.25 41.29,135.11 41.59,136.99C41.9,138.92 42.19,140.87 42.49,142.85C42.8,144.87 43.1,146.92 43.4,148.98C43.7,151.08 44,153.2 44.3,155.32C44.6,157.47 44.91,159.64 45.21,161.8C45.51,163.97 45.81,166.15 46.11,168.32C46.41,170.47 46.71,172.63 47.01,174.75C47.31,176.83 47.61,178.91 47.92,180.94C48.22,182.9 48.51,184.84 48.82,186.72C49.11,188.51 49.42,190.26 49.73,191.94C50.02,193.5 50.32,195.03 50.63,196.46C50.92,197.77 51.21,199.03 51.53,200.2C51.82,201.24 52.12,202.24 52.44,203.14C52.72,203.93 53.01,204.67 53.34,205.32C53.62,205.88 53.92,206.4 54.25,206.83C54.53,207.2 54.83,207.54 55.15,207.76C55.43,207.95 55.75,208.12 56.05,208.13C56.35,208.14 56.68,208.04 56.96,207.85C57.3,207.62 57.58,207.18 57.86,206.76C58.19,206.26 58.48,205.61 58.77,204.99C59.08,204.33 59.37,203.61 59.67,202.93C59.97,202.25 60.27,201.56 60.58,200.92C60.87,200.32 61.16,199.71 61.48,199.18C61.77,198.7 62.06,198.23 62.38,197.85C62.67,197.51 62.97,197.2 63.29,196.98C63.58,196.78 63.88,196.63 64.19,196.54C64.49,196.45 64.8,196.42 65.1,196.43C65.4,196.44 65.71,196.48 66,196.58C66.31,196.68 66.61,196.85 66.9,197.06C67.22,197.29 67.52,197.6 67.81,197.94C68.13,198.31 68.42,198.76 68.71,199.22C69.03,199.73 69.33,200.28 69.62,200.86C69.93,201.48 70.23,202.14 70.52,202.83C70.83,203.57 71.13,204.34 71.42,205.14C71.73,205.99 72.04,206.89 72.33,207.81C72.64,208.79 72.94,209.81 73.23,210.86C73.54,211.97 73.85,213.13 74.14,214.32C74.45,215.56 74.74,216.85 75.04,218.16C75.35,219.53 75.65,220.95 75.95,222.38C76.26,223.86 76.55,225.39 76.85,226.92C77.15,228.49 77.45,230.1 77.75,231.71C78.05,233.35 78.36,235.01 78.66,236.67C78.96,238.34 79.26,240.02 79.56,241.68C79.86,243.33 80.16,244.98 80.47,246.59C80.77,248.16 81.06,249.72 81.37,251.22C81.66,252.63 81.95,254.04 82.27,255.33C82.56,256.49 82.84,257.66 83.18,258.62C83.46,259.39 83.68,260.49 84.08,260.67C84.34,260.79 84.73,260.63 84.99,260.39C85.42,259.98 85.61,258.83 85.89,257.92C86.22,256.82 86.5,255.52 86.79,254.24C87.1,252.85 87.4,251.37 87.7,249.89C88.01,248.35 88.3,246.75 88.6,245.15C88.91,243.51 89.21,241.83 89.51,240.16C89.81,238.46 90.11,236.75 90.41,235.04C90.71,233.32 91.02,231.58 91.32,229.86C91.62,228.14 91.92,226.42 92.22,224.71C92.52,223.03 92.81,221.34 93.12,219.69C93.42,218.07 93.72,216.47 94.03,214.9C94.33,213.39 94.62,211.9 94.93,210.46C95.22,209.09 95.53,207.74 95.84,206.45C96.13,205.24 96.43,204.07 96.74,202.96C97.03,201.94 97.32,200.96 97.64,200.06C97.93,199.25 98.22,198.47 98.55,197.79C98.83,197.2 99.12,196.63 99.45,196.18C99.73,195.81 100.03,195.45 100.36,195.25C100.64,195.08 100.96,194.97 101.26,194.99C101.56,195.01 101.88,195.18 102.16,195.38C102.49,195.62 102.79,196 103.07,196.4C103.4,196.86 103.68,197.42 103.97,198C104.29,198.65 104.59,199.38 104.88,200.14C105.2,200.97 105.49,201.86 105.78,202.77C106.09,203.74 106.39,204.76 106.68,205.8C106.99,206.89 107.29,208.06 107.59,209.18C107.89,210.29 108.11,211.65 108.49,212.49C108.75,213.07 109.09,213.42 109.4,213.86C109.7,214.28 110,214.68 110.3,215.09C110.6,215.5 110.91,215.92 111.21,216.34C111.51,216.76 111.81,217.17 112.11,217.59C112.41,218.01 112.71,218.43 113.01,218.85C113.31,219.27 113.62,219.69 113.92,220.11C114.22,220.53 114.52,220.96 114.82,221.39C115.12,221.82 115.43,222.24 115.73,222.67C116.03,223.1 116.33,223.53 116.63,223.97C116.93,224.41 117.23,224.85 117.53,225.29C117.83,225.73 118.14,226.18 118.44,226.62C118.74,227.07 119.04,227.52 119.34,227.96C119.64,228.4 119.94,228.85 120.25,229.28C120.55,229.7 120.84,230.13 121.15,230.52C121.44,230.9 121.74,231.26 122.05,231.59C122.34,231.9 122.65,232.19 122.96,232.45C123.25,232.7 123.56,232.92 123.86,233.13C124.16,233.34 124.47,233.52 124.77,233.72C125.07,233.91 125.37,234.11 125.67,234.3C125.97,234.49 126.28,234.7 126.58,234.88C126.88,235.06 127.17,235.26 127.48,235.4C127.77,235.53 128.08,235.69 128.38,235.69C128.68,235.69 129.02,235.6 129.29,235.39C129.65,235.1 129.92,234.5 130.19,233.91C130.54,233.14 130.81,232.11 131.1,231.12C131.42,230 131.71,228.75 132,227.52C132.31,226.24 132.6,224.9 132.9,223.58C133.2,222.24 133.51,220.89 133.81,219.55C134.11,218.22 134.4,216.89 134.71,215.59C135.01,214.32 135.31,213.05 135.62,211.82C135.92,210.63 136.21,209.46 136.52,208.33C136.81,207.26 137.11,206.21 137.42,205.22C137.71,204.3 138.01,203.39 138.33,202.56C138.62,201.8 138.91,201.07 139.23,200.42C139.52,199.85 139.81,199.3 140.14,198.86C140.42,198.49 140.71,198.13 141.04,197.93C141.32,197.76 141.65,197.64 141.95,197.66C142.26,197.68 142.57,197.86 142.85,198.08C143.18,198.34 143.47,198.77 143.75,199.21C144.08,199.73 144.38,200.37 144.66,201.03C144.99,201.79 145.27,202.65 145.56,203.54C145.88,204.53 146.18,205.6 146.47,206.7C146.79,207.9 147.08,209.16 147.37,210.46C147.68,211.85 147.98,213.29 148.27,214.77C148.58,216.32 148.88,217.93 149.18,219.56C149.49,221.26 149.78,223.01 150.08,224.78C150.39,226.6 150.69,228.46 150.99,230.34C151.3,232.26 151.59,234.22 151.89,236.18C152.19,238.16 152.49,240.17 152.79,242.16C153.09,244.14 153.4,246.11 153.7,248.08C154,250.04 154.3,251.99 154.6,253.95C154.9,255.91 155.21,257.88 155.51,259.84C155.81,261.8 156.11,263.76 156.41,265.7C156.71,267.61 156.86,270.15 157.32,271.39C157.57,272.06 157.86,272.55 158.22,272.83C158.49,273.04 158.82,273.11 159.12,273.11C159.42,273.11 159.75,273 160.03,272.83C160.36,272.63 160.64,272.26 160.93,271.93C161.24,271.58 161.55,271.21 161.84,270.8C162.15,270.36 162.45,269.89 162.74,269.38C163.05,268.82 163.35,268.22 163.64,267.58C163.96,266.89 164.25,266.13 164.55,265.37C164.86,264.57 165.15,263.74 165.45,262.91C165.76,262.06 166.06,261.19 166.36,260.32C166.66,259.43 166.96,258.54 167.26,257.62C167.56,256.68 167.87,255.73 168.16,254.74C168.47,253.69 168.78,252.61 169.07,251.48C169.38,250.27 169.67,249 169.97,247.71C170.28,246.36 170.58,244.96 170.88,243.57C171.18,242.17 171.48,240.73 171.78,239.33C172.08,237.95 172.37,236.57 172.68,235.22C172.98,233.92 173.28,232.63 173.59,231.38C173.88,230.19 174.18,229.03 174.49,227.91C174.78,226.86 175.09,225.83 175.4,224.86C175.69,223.95 175.99,223.07 176.3,222.24C176.59,221.47 176.9,220.74 177.21,220.05C177.5,219.41 177.8,218.81 178.11,218.24C178.4,217.71 178.7,217.21 179.01,216.74C179.3,216.3 179.61,215.88 179.92,215.5C180.21,215.15 180.51,214.81 180.82,214.52C181.11,214.25 181.42,214 181.73,213.82C182.02,213.65 182.32,213.51 182.63,213.44C182.92,213.37 183.23,213.35 183.53,213.38C183.83,213.41 184.14,213.5 184.44,213.62C184.75,213.74 185.05,213.92 185.34,214.12C185.65,214.33 185.95,214.58 186.25,214.84C186.56,215.11 186.85,215.41 187.15,215.71C187.45,216.01 187.75,216.34 188.05,216.65C188.35,216.96 188.65,217.29 188.96,217.57C189.25,217.84 189.54,218.14 189.86,218.32C190.15,218.48 190.48,218.66 190.77,218.62C191.08,218.58 191.4,218.31 191.67,218.03C192.02,217.68 192.29,217.09 192.58,216.57C192.89,216.01 193.18,215.38 193.48,214.8C193.78,214.23 194.07,213.63 194.38,213.1C194.67,212.6 194.97,212.11 195.29,211.69C195.58,211.32 195.87,210.95 196.19,210.69C196.47,210.46 196.79,210.25 197.1,210.18C197.39,210.11 197.72,210.13 198,210.24C198.32,210.36 198.62,210.63 198.9,210.93C199.23,211.28 199.53,211.76 199.81,212.27C200.14,212.86 200.43,213.57 200.71,214.3C201.03,215.13 201.33,216.05 201.62,217C201.94,218.05 202.23,219.18 202.52,220.34C202.83,221.59 203.13,222.92 203.42,224.27C203.73,225.69 204.03,227.16 204.33,228.64C204.64,230.15 204.93,231.71 205.23,233.24C205.53,234.76 205.83,236.28 206.14,237.77C206.44,239.22 206.73,240.65 207.04,242.06C207.34,243.44 207.65,244.8 207.95,246.15C208.25,247.49 208.55,248.81 208.85,250.14C209.15,251.47 209.45,252.79 209.75,254.12C210.05,255.45 210.36,256.78 210.66,258.11C210.96,259.44 211.26,260.78 211.56,262.09C211.86,263.37 212.16,264.67 212.47,265.9C212.76,267.07 213.05,268.25 213.37,269.32C213.66,270.28 213.92,271.28 214.27,272.02C214.54,272.59 214.84,273.4 215.18,273.46C215.46,273.51 215.82,273.15 216.08,272.8C216.48,272.27 216.71,271.22 216.99,270.31C217.32,269.25 217.6,268.04 217.89,266.8C218.21,265.43 218.5,263.95 218.79,262.43C219.1,260.8 219.4,259.06 219.7,257.32C220.01,255.5 220.3,253.6 220.6,251.72C220.9,249.8 221.21,247.84 221.51,245.9C221.81,243.97 222.1,242.03 222.41,240.13C222.71,238.27 223.01,236.42 223.32,234.61C223.62,232.87 223.91,231.14 224.22,229.48C224.51,227.9 224.81,226.34 225.12,224.85C225.41,223.45 225.72,222.09 226.03,220.8C226.32,219.61 226.61,218.46 226.93,217.39C227.22,216.42 227.52,215.49 227.84,214.65C228.12,213.91 228.42,213.21 228.74,212.59C229.02,212.04 229.33,211.55 229.64,211.08C229.93,210.64 230.24,210.23 230.55,209.85C230.84,209.49 231.14,209.15 231.45,208.84C231.74,208.55 232.06,208.31 232.36,208.04C232.66,207.78 232.97,207.54 233.26,207.25C233.57,206.95 233.87,206.63 234.16,206.27C234.47,205.89 234.78,205.46 235.07,205.02C235.38,204.56 235.67,204.06 235.97,203.57C236.27,203.08 236.58,202.56 236.88,202.07C237.18,201.58 237.47,201.09 237.78,200.63C238.07,200.19 238.37,199.75 238.68,199.35C238.97,198.97 239.28,198.6 239.59,198.27C239.88,197.96 240.18,197.67 240.49,197.42C240.78,197.18 241.09,196.96 241.4,196.77C241.69,196.59 242,196.45 242.3,196.3C242.6,196.15 242.91,196.04 243.21,195.89C243.51,195.74 243.82,195.61 244.11,195.42C244.42,195.21 244.73,194.98 245.01,194.66C245.34,194.28 245.65,193.79 245.92,193.22C246.27,192.48 246.55,191.53 246.82,190.51C247.16,189.23 247.45,187.69 247.73,186.11C248.06,184.28 248.34,182.24 248.63,180.14C248.95,177.81 249.24,175.31 249.53,172.76C249.84,170.02 250.14,167.13 250.44,164.22C250.75,161.18 251.04,158.03 251.34,154.89C251.64,151.68 251.95,148.41 252.25,145.16C252.55,141.91 252.85,138.63 253.15,135.39C253.45,132.19 253.74,128.98 254.05,125.83C254.35,122.75 254.65,119.69 254.96,116.69C255.26,113.79 255.55,110.93 255.86,108.14C256.16,105.47 256.46,102.84 256.77,100.3C257.06,97.89 257.36,95.53 257.67,93.27C257.96,91.16 258.26,89.1 258.58,87.15C258.87,85.36 259.16,83.63 259.48,82.01C259.77,80.56 260.05,79.15 260.38,77.89C260.66,76.79 260.95,75.74 261.29,74.85C261.57,74.11 261.84,73.39 262.19,72.89C262.46,72.51 262.77,72.11 263.1,72.01C263.38,71.93 263.73,72.02 264,72.19C264.35,72.41 264.63,72.9 264.9,73.37C265.24,73.96 265.53,74.72 265.81,75.49C266.14,76.39 266.42,77.41 266.71,78.45C267.03,79.6 267.33,80.84 267.62,82.11C267.93,83.48 268.23,84.92 268.52,86.38C268.83,87.92 269.13,89.52 269.42,91.15C269.73,92.86 270.03,94.62 270.33,96.42C270.64,98.3 270.94,100.23 271.23,102.2C271.54,104.27 271.84,106.4 272.14,108.57C272.45,110.84 272.74,113.17 273.04,115.55C273.35,118.03 273.65,120.57 273.95,123.14C274.26,125.8 274.55,128.52 274.85,131.27C275.15,134.09 275.45,136.97 275.75,139.86C276.05,142.8 276.36,145.78 276.66,148.75C276.96,151.74 277.26,154.77 277.56,157.76C277.86,160.73 278.16,163.72 278.47,166.65C278.77,169.51 279.06,172.37 279.37,175.13C279.66,177.76 279.95,180.37 280.27,182.82C280.56,185.07 280.85,187.28 281.18,189.28C281.46,191.02 281.74,192.71 282.08,194.16C282.36,195.34 282.61,196.53 282.99,197.35C283.25,197.92 283.55,198.64 283.89,198.71C284.17,198.77 284.53,198.44 284.79,198.11C285.19,197.61 285.42,196.63 285.7,195.73C286.04,194.61 286.32,193.24 286.6,191.86C286.92,190.3 287.22,188.59 287.51,186.85C287.82,184.96 288.12,182.96 288.41,180.94C288.72,178.8 289.02,176.59 289.32,174.35C289.63,172.04 289.92,169.65 290.22,167.28C290.52,164.87 290.82,162.42 291.12,160C291.42,157.59 291.73,155.16 292.03,152.78C292.33,150.44 292.62,148.11 292.93,145.84C293.23,143.64 293.53,141.47 293.84,139.37C294.13,137.36 294.43,135.39 294.74,133.49C295.03,131.7 295.33,129.96 295.64,128.3C295.93,126.77 296.23,125.28 296.55,123.88C296.84,122.61 297.13,121.39 297.45,120.26C297.74,119.26 298.03,118.3 298.36,117.45C298.64,116.72 298.93,116.02 299.26,115.45C299.54,114.97 299.82,114.51 300.16,114.21C300.44,113.96 300.76,113.75 301.07,113.7C301.36,113.65 301.69,113.72 301.97,113.85C302.29,114 302.6,114.29 302.88,114.59C303.21,114.94 303.49,115.38 303.78,115.84C304.1,116.35 304.39,116.94 304.68,117.52C304.99,118.13 305.26,118.88 305.59,119.43C305.87,119.9 306.18,120.26 306.49,120.66C306.79,121.05 307.09,121.42 307.4,121.78C307.7,122.13 307.96,122.59 308.3,122.78C308.58,122.94 308.91,122.86 309.21,122.96C309.52,123.06 309.82,123.2 310.11,123.38C310.42,123.58 310.72,123.83 311.01,124.12C311.33,124.44 311.63,124.82 311.92,125.22C312.24,125.66 312.53,126.16 312.82,126.68C313.14,127.25 313.44,127.87 313.73,128.52C314.04,129.22 314.34,129.97 314.63,130.75C314.94,131.59 315.24,132.47 315.53,133.39C315.84,134.37 316.15,135.39 316.44,136.45C316.75,137.58 317.05,138.75 317.34,139.96C317.65,141.24 317.96,142.56 318.25,143.91C318.56,145.33 318.86,146.8 319.15,148.3C319.46,149.87 319.75,151.49 320.05,153.14C320.36,154.86 320.66,156.62 320.96,158.41C321.27,160.26 321.56,162.16 321.86,164.08C322.17,166.06 322.47,168.08 322.77,170.12C323.08,172.21 323.37,174.35 323.67,176.49C323.97,178.68 324.28,180.89 324.58,183.12C324.88,185.38 325.18,187.66 325.48,189.95C325.78,192.26 326.08,194.59 326.38,196.91C326.68,199.25 326.99,201.59 327.29,203.93C327.59,206.27 327.89,208.62 328.19,210.95C328.49,213.27 328.8,215.59 329.1,217.89C329.4,220.18 329.7,222.46 330,224.72C330.3,226.95 330.59,229.17 330.9,231.35C331.2,233.48 331.5,235.6 331.81,237.66C332.11,239.65 332.4,241.61 332.71,243.51C333.01,245.33 333.31,247.1 333.62,248.84C333.92,250.51 334.21,252.15 334.52,253.75C334.81,255.29 335.11,256.8 335.42,258.26C335.71,259.64 336.02,261 336.33,262.29C336.62,263.49 336.92,264.65 337.23,265.76C337.52,266.79 337.83,267.78 338.14,268.73C338.43,269.61 338.72,270.46 339.04,271.25C339.33,271.97 339.63,272.68 339.95,273.29C340.23,273.83 340.51,274.37 340.85,274.76C341.13,275.08 341.43,275.43 341.75,275.51C342.04,275.58 342.4,275.54 342.66,275.32C343.07,274.97 343.28,273.92 343.56,273.11C343.89,272.15 344.18,270.99 344.47,269.89C344.78,268.73 345.07,267.5 345.37,266.32C345.67,265.15 345.96,263.96 346.27,262.82C346.57,261.72 346.87,260.63 347.18,259.59C347.47,258.61 347.77,257.65 348.08,256.75C348.37,255.91 348.67,255.1 348.99,254.36C349.28,253.69 349.57,253.04 349.89,252.47C350.17,251.96 350.46,251.48 350.79,251.08C351.07,250.73 351.38,250.42 351.7,250.2C351.98,250.01 352.29,249.86 352.6,249.8C352.9,249.74 353.21,249.76 353.51,249.83C353.82,249.9 354.12,250.07 354.41,250.24C354.72,250.43 355.02,250.68 355.32,250.93C355.63,251.19 355.92,251.49 356.22,251.76C356.52,252.03 356.81,252.33 357.12,252.56C357.41,252.77 357.72,252.99 358.03,253.09C358.32,253.18 358.64,253.23 358.93,253.16C359.24,253.09 359.57,252.9 359.84,252.62C360.2,252.26 360.46,251.63 360.74,251.03C361.07,250.3 361.35,249.4 361.64,248.54C361.95,247.63 362.25,246.68 362.55,245.73C362.85,244.77 363.15,243.78 363.45,242.81C363.75,241.84 364.06,240.86 364.36,239.89C364.66,238.93 364.96,237.96 365.26,237.01C365.56,236.08 365.85,235.16 366.16,234.25C366.46,233.37 366.76,232.49 367.07,231.64C367.37,230.82 367.66,230 367.97,229.22C368.27,228.47 368.57,227.73 368.88,227.03C369.17,226.37 369.47,225.72 369.78,225.11C370.07,224.54 370.37,223.99 370.68,223.48C370.97,223.01 371.27,222.56 371.59,222.16C371.88,221.8 372.17,221.46 372.49,221.18C372.78,220.93 373.08,220.7 373.4,220.54C373.69,220.4 374,220.29 374.3,220.26C374.6,220.23 374.91,220.25 375.21,220.33C375.52,220.41 375.82,220.56 376.11,220.75C376.42,220.95 376.72,221.23 377.01,221.52C377.33,221.84 377.63,222.21 377.92,222.61C378.24,223.04 378.53,223.53 378.82,224.03C379.13,224.57 379.44,225.16 379.73,225.76C380.04,226.4 380.34,227.08 380.63,227.78C380.94,228.52 381.24,229.3 381.53,230.09C381.84,230.92 382.14,231.78 382.44,232.66C382.75,233.58 383.04,234.52 383.34,235.48C383.65,236.47 383.95,237.48 384.25,238.49C384.55,239.51 384.85,240.56 385.15,241.58C385.45,242.59 385.75,243.6 386.05,244.59C386.35,245.56 386.65,246.52 386.96,247.46C387.26,248.37 387.55,249.28 387.86,250.15C388.15,250.97 388.45,251.79 388.77,252.52C389.06,253.18 389.34,253.81 389.67,254.35C389.95,254.82 390.25,255.25 390.58,255.59C390.86,255.89 391.16,256.16 391.48,256.33C391.77,256.48 392.08,256.59 392.38,256.58C392.68,256.57 393.01,256.45 393.29,256.27C393.62,256.07 393.91,255.72 394.19,255.37C394.52,254.96 394.81,254.45 395.1,253.94C395.42,253.38 395.71,252.77 396,252.15C396.31,251.5 396.6,250.81 396.9,250.12C397.21,249.41 397.51,248.68 397.81,247.96C398.11,247.23 398.41,246.5 398.71,245.77C399.01,245.05 399.32,244.32 399.62,243.61C399.92,242.91 400.21,242.22 400.52,241.55C400.81,240.9 401.11,240.27 401.42,239.66C401.72,239.08 402.02,238.51 402.33,237.98C402.62,237.48 402.92,236.99 403.23,236.55C403.52,236.14 403.82,235.75 404.14,235.41C404.43,235.1 404.72,234.82 405.04,234.6C405.33,234.4 405.64,234.22 405.95,234.13C406.24,234.04 406.55,234 406.85,234.03C407.15,234.06 407.46,234.17 407.75,234.32C408.07,234.48 408.37,234.72 408.66,234.99C408.98,235.29 409.27,235.67 409.56,236.07C409.88,236.51 410.18,237.01 410.47,237.53C410.79,238.1 411.08,238.72 411.37,239.37C411.68,240.07 411.98,240.82 412.27,241.58C412.58,242.39 412.89,243.24 413.18,244.11C413.49,245.02 413.78,245.98 414.08,246.94C414.39,247.94 414.69,248.97 414.99,250.01C415.3,251.09 415.59,252.19 415.89,253.3C416.19,254.43 416.49,255.57 416.79,256.72C417.09,257.88 417.4,259.06 417.7,260.23C418,261.4 418.29,262.61 418.6,263.76C418.9,264.88 419.2,266 419.51,267.05C419.8,268.03 420.11,268.95 420.41,269.89C420.71,270.81 421.01,271.72 421.32,272.62C421.62,273.5 421.92,274.36 422.22,275.22C422.52,276.06 422.82,276.88 423.12,277.7C423.42,278.5 423.72,279.29 424.03,280.07C424.33,280.83 424.62,281.57 424.93,282.3C425.23,283.01 425.54,283.7 425.84,284.39C426.14,285.06 426.44,285.73 426.74,286.38C427.04,287.01 427.32,287.67 427.64,288.24C427.93,288.75 428.24,289.21 428.55,289.64C428.84,290.04 429.14,290.41 429.45,290.76C429.75,291.1 430.05,291.43 430.36,291.73C430.65,292.02 430.95,292.3 431.26,292.53C431.55,292.75 431.85,293.06 432.16,293.08C432.46,293.1 432.78,292.88 433.07,292.69C433.39,292.47 433.7,292.19 433.97,291.8C434.33,291.29 434.59,290.51 434.88,289.78C435.2,288.97 435.48,288.01 435.78,287.14C436.08,286.29 436.37,285.44 436.68,284.63C436.98,283.85 437.28,283.1 437.59,282.37C437.88,281.68 438.18,281.02 438.49,280.38C438.78,279.77 439.09,279.19 439.4,278.63C439.69,278.11 439.99,277.6 440.3,277.13C440.59,276.68 440.9,276.25 441.21,275.85C441.5,275.47 441.8,275.1 442.11,274.77C442.4,274.45 442.7,274.16 443.01,273.89C443.31,273.63 443.61,273.4 443.92,273.18C444.22,272.97 444.51,272.79 444.82,272.62C445.12,272.46 445.43,272.33 445.73,272.2C446.03,272.07 446.33,271.98 446.63,271.86C446.93,271.74 447.23,271.63 447.53,271.49C447.84,271.34 448.14,271.17 448.44,270.98C448.75,270.78 449.04,270.54 449.34,270.33C449.64,270.12 449.94,269.89 450.25,269.7C450.55,269.52 450.84,269.34 451.15,269.21C451.44,269.08 451.75,268.98 452.05,268.92C452.35,268.86 452.66,268.85 452.96,268.87C453.26,268.89 453.57,268.97 453.86,269.07C454.17,269.18 454.48,269.33 454.77,269.51C455.08,269.7 455.38,269.93 455.67,270.17C455.98,270.43 456.28,270.72 456.58,271.02C456.89,271.34 457.18,271.69 457.48,272.04C457.79,272.41 458.08,272.79 458.38,273.18C458.68,273.57 458.99,273.98 459.29,274.37C459.59,274.76 459.88,275.16 460.19,275.54C460.49,275.91 460.79,276.29 461.1,276.61Q461.39,276.91 462,277.42" style="vector-effect: non-scaling-stroke; fill: none; stroke: rgb(0, 176, 246); stroke-opacity: 1; stroke-width: 2px; opacity: 1;"/></g><g class="points"/><g class="text"/></g><g class="trace scatter trace23b088" style="stroke-miterlimit: 2; opacity: 1;"><g class="fills"/><g class="errorbars"/><g class="lines"><path class="js-line" d="M0,187.24Q0.64,185.49 0.9,184.31C1.28,182.59 1.53,180.15 1.81,177.85C2.13,175.24 2.42,172.36 2.71,169.47C3.02,166.37 3.32,163.12 3.62,159.85C3.93,156.44 4.22,152.93 4.52,149.4C4.82,145.79 5.12,142.11 5.42,138.43C5.72,134.71 6.03,130.95 6.33,127.2C6.63,123.44 6.93,119.65 7.23,115.89C7.53,112.15 7.84,108.41 8.14,104.7C8.44,101.03 8.74,97.37 9.04,93.75C9.34,90.2 9.64,86.67 9.95,83.19C10.25,79.8 10.55,76.44 10.85,73.14C11.15,69.94 11.44,66.77 11.75,63.68C12.05,60.7 12.35,57.77 12.66,54.91C12.96,52.18 13.25,49.5 13.56,46.9C13.85,44.44 14.16,42.03 14.47,39.72C14.76,37.55 15.06,35.44 15.37,33.42C15.66,31.55 15.95,29.74 16.27,28.04C16.56,26.49 16.86,25 17.18,23.63C17.47,22.41 17.75,21.24 18.08,20.21C18.36,19.33 18.65,18.47 18.99,17.79C19.27,17.24 19.54,16.68 19.89,16.38C20.16,16.15 20.5,15.97 20.79,16C21.1,16.03 21.43,16.33 21.7,16.63C22.05,17.02 22.32,17.63 22.6,18.25C22.94,19 23.23,19.92 23.51,20.86C23.84,21.95 24.12,23.16 24.41,24.42C24.73,25.82 25.03,27.33 25.32,28.89C25.64,30.59 25.93,32.38 26.22,34.23C26.53,36.21 26.83,38.28 27.12,40.39C27.43,42.63 27.73,44.95 28.03,47.31C28.34,49.79 28.63,52.33 28.93,54.92C29.24,57.61 29.54,60.36 29.84,63.14C30.15,66.01 30.44,68.93 30.74,71.87C31.04,74.88 31.34,77.94 31.64,81C31.94,84.11 32.25,87.25 32.55,90.38C32.85,93.53 33.15,96.7 33.45,99.85C33.75,102.98 34.06,106.11 34.36,109.2C34.66,112.24 34.96,115.26 35.26,118.23C35.56,121.11 35.85,123.97 36.16,126.75C36.46,129.43 36.76,132.06 37.07,134.63C37.37,137.09 37.66,139.49 37.97,141.84C38.27,144.09 38.57,146.28 38.88,148.43C39.18,150.49 39.47,152.5 39.78,154.48C40.07,156.39 40.37,158.26 40.68,160.11C40.98,161.9 41.28,163.66 41.59,165.4C41.89,167.1 42.18,168.78 42.49,170.44C42.79,172.07 43.1,173.67 43.4,175.26C43.7,176.81 43.99,178.36 44.3,179.87C44.6,181.34 44.9,182.79 45.21,184.21C45.51,185.57 45.8,186.92 46.11,188.21C46.4,189.43 46.69,190.63 47.01,191.76C47.3,192.8 47.6,193.82 47.92,194.74C48.21,195.56 48.49,196.37 48.82,197.05C49.1,197.63 49.39,198.19 49.73,198.61C50.01,198.95 50.3,199.28 50.63,199.43C50.91,199.56 51.24,199.6 51.53,199.56C51.84,199.51 52.15,199.33 52.44,199.13C52.76,198.91 53.05,198.59 53.34,198.28C53.65,197.95 53.95,197.56 54.25,197.19C54.55,196.81 54.85,196.4 55.15,196.02C55.45,195.64 55.74,195.25 56.05,194.9C56.35,194.57 56.65,194.24 56.96,193.96C57.25,193.7 57.55,193.45 57.86,193.26C58.15,193.08 58.46,192.93 58.77,192.84C59.06,192.76 59.37,192.72 59.67,192.73C59.97,192.74 60.28,192.8 60.58,192.88C60.89,192.96 61.18,193.1 61.48,193.23C61.78,193.36 62.08,193.52 62.38,193.65C62.68,193.77 62.98,193.93 63.29,193.98C63.59,194.03 63.9,194.02 64.19,193.94C64.5,193.86 64.8,193.65 65.1,193.47C65.41,193.29 65.7,193.06 66,192.87C66.3,192.68 66.59,192.5 66.9,192.34C67.2,192.19 67.5,192.04 67.81,191.94C68.11,191.85 68.41,191.77 68.71,191.76C69.01,191.75 69.33,191.78 69.62,191.88C69.93,191.99 70.24,192.19 70.52,192.43C70.84,192.71 71.14,193.08 71.42,193.48C71.75,193.95 72.04,194.5 72.33,195.09C72.65,195.75 72.94,196.5 73.23,197.27C73.55,198.13 73.85,199.06 74.14,200.02C74.45,201.06 74.75,202.16 75.04,203.29C75.35,204.5 75.66,205.76 75.95,207.05C76.26,208.4 76.56,209.8 76.85,211.21C77.16,212.67 77.45,214.18 77.75,215.69C78.05,217.23 78.36,218.8 78.66,220.36C78.96,221.93 79.26,223.52 79.56,225.08C79.86,226.61 80.16,228.15 80.47,229.63C80.77,231.04 81.05,232.46 81.37,233.77C81.66,234.96 81.93,236.17 82.27,237.17C82.55,238 82.77,238.98 83.18,239.39C83.44,239.65 83.8,239.84 84.08,239.77C84.42,239.68 84.72,239.12 84.99,238.63C85.36,237.96 85.61,236.99 85.89,236.02C86.23,234.84 86.5,233.41 86.79,232.03C87.1,230.55 87.4,228.98 87.7,227.42C88.01,225.82 88.3,224.18 88.6,222.55C88.9,220.91 89.21,219.25 89.51,217.6C89.81,215.96 90.11,214.32 90.41,212.7C90.71,211.1 91.01,209.51 91.32,207.94C91.62,206.41 91.92,204.89 92.22,203.41C92.52,201.97 92.81,200.54 93.12,199.16C93.42,197.83 93.72,196.52 94.03,195.26C94.32,194.06 94.62,192.88 94.93,191.75C95.22,190.69 95.53,189.65 95.84,188.67C96.13,187.76 96.42,186.89 96.74,186.07C97.03,185.33 97.32,184.61 97.64,183.97C97.93,183.4 98.22,182.85 98.55,182.39C98.83,181.99 99.12,181.61 99.45,181.35C99.73,181.12 100.05,180.92 100.36,180.86C100.65,180.8 100.97,180.84 101.26,180.94C101.58,181.05 101.88,181.29 102.16,181.56C102.49,181.87 102.79,182.3 103.07,182.74C103.39,183.24 103.68,183.83 103.97,184.44C104.29,185.13 104.59,185.89 104.88,186.67C105.2,187.52 105.49,188.44 105.78,189.38C106.09,190.39 106.39,191.46 106.68,192.55C106.99,193.71 107.3,194.92 107.59,196.15C107.9,197.44 108.19,198.78 108.49,200.14C108.8,201.56 109.1,203.01 109.4,204.48C109.71,206 110,207.56 110.3,209.13C110.61,210.74 110.91,212.38 111.21,214.03C111.52,215.72 111.81,217.44 112.11,219.16C112.41,220.91 112.71,222.67 113.01,224.44C113.31,226.23 113.62,228.04 113.92,229.85C114.22,231.67 114.52,233.5 114.82,235.33C115.12,237.16 115.43,239 115.73,240.84C116.03,242.67 116.33,244.51 116.63,246.33C116.93,248.14 117.22,249.97 117.53,251.73C117.83,253.43 118.12,255.17 118.44,256.73C118.73,258.12 119.03,259.37 119.34,260.64C119.63,261.84 119.94,263.02 120.25,264.15C120.54,265.21 120.83,266.26 121.15,267.21C121.43,268.06 121.72,268.86 122.05,269.58C122.33,270.21 122.62,270.84 122.96,271.29C123.23,271.65 123.53,272.03 123.86,272.13C124.14,272.21 124.48,272.08 124.77,271.96C125.08,271.83 125.38,271.61 125.67,271.37C125.99,271.1 126.3,270.76 126.58,270.37C126.91,269.91 127.2,269.34 127.48,268.74C127.8,268.06 128.09,267.29 128.38,266.51C128.69,265.68 128.99,264.8 129.29,263.91C129.6,262.98 129.89,262.01 130.19,261.04C130.5,260.03 130.8,259 131.1,257.96C131.41,256.89 131.7,255.8 132,254.71C132.3,253.6 132.6,252.46 132.9,251.33C133.2,250.19 133.51,249.03 133.81,247.88C134.11,246.72 134.41,245.56 134.71,244.4C135.01,243.25 135.32,242.09 135.62,240.95C135.92,239.82 136.22,238.68 136.52,237.57C136.82,236.48 137.11,235.39 137.42,234.32C137.72,233.28 138.02,232.25 138.33,231.24C138.63,230.27 138.92,229.32 139.23,228.39C139.53,227.5 139.83,226.63 140.14,225.79C140.43,225 140.73,224.22 141.04,223.49C141.33,222.8 141.64,222.14 141.95,221.52C142.24,220.95 142.53,220.4 142.85,219.91C143.14,219.46 143.43,219.04 143.75,218.68C144.04,218.36 144.34,218.06 144.66,217.85C144.95,217.66 145.25,217.51 145.56,217.45C145.86,217.39 146.18,217.39 146.47,217.46C146.78,217.53 147.08,217.71 147.37,217.91C147.69,218.13 147.98,218.44 148.27,218.77C148.59,219.14 148.89,219.58 149.18,220.04C149.5,220.54 149.79,221.1 150.08,221.68C150.4,222.31 150.7,222.99 150.99,223.69C151.3,224.43 151.6,225.22 151.89,226.02C152.2,226.87 152.49,227.75 152.79,228.65C153.1,229.59 153.4,230.55 153.7,231.54C154.01,232.56 154.3,233.62 154.6,234.68C154.91,235.78 155.21,236.89 155.51,238.02C155.81,239.17 156.11,240.34 156.41,241.51C156.71,242.69 157.02,243.88 157.32,245.06C157.62,246.23 157.92,247.42 158.22,248.57C158.52,249.69 158.81,250.81 159.12,251.86C159.41,252.84 159.71,253.82 160.03,254.7C160.32,255.48 160.6,256.24 160.93,256.89C161.21,257.44 161.5,257.98 161.84,258.37C162.12,258.69 162.42,259 162.74,259.14C163.02,259.26 163.35,259.3 163.64,259.24C163.95,259.18 164.27,258.98 164.55,258.76C164.87,258.51 165.16,258.14 165.45,257.78C165.77,257.38 166.07,256.91 166.36,256.43C166.67,255.92 166.97,255.37 167.26,254.81C167.57,254.23 167.86,253.63 168.16,253.02C168.47,252.39 168.77,251.75 169.07,251.1C169.37,250.44 169.67,249.77 169.97,249.09C170.28,248.39 170.58,247.69 170.88,246.97C171.19,246.23 171.48,245.48 171.78,244.72C172.08,243.95 172.38,243.16 172.68,242.37C172.98,241.56 173.29,240.76 173.59,239.93C173.9,239.09 174.19,238.21 174.49,237.36C174.79,236.52 175.09,235.66 175.4,234.84C175.7,234.06 175.99,233.29 176.3,232.56C176.59,231.86 176.9,231.19 177.21,230.54C177.5,229.93 177.8,229.34 178.11,228.77C178.4,228.23 178.7,227.71 179.01,227.23C179.3,226.78 179.61,226.36 179.92,225.97C180.21,225.61 180.51,225.27 180.82,224.97C181.11,224.69 181.42,224.44 181.73,224.22C182.02,224.01 182.32,223.83 182.63,223.66C182.93,223.5 183.23,223.36 183.53,223.24C183.83,223.12 184.14,223.01 184.44,222.92C184.74,222.83 185.04,222.76 185.34,222.69C185.64,222.62 185.95,222.57 186.25,222.52C186.55,222.47 186.85,222.43 187.15,222.38C187.45,222.34 187.75,222.3 188.05,222.25C188.35,222.2 188.66,222.15 188.96,222.08C189.26,222.01 189.56,221.94 189.86,221.85C190.16,221.76 190.47,221.65 190.77,221.54C191.07,221.43 191.37,221.3 191.67,221.17C191.97,221.04 192.28,220.89 192.58,220.74C192.88,220.59 193.18,220.44 193.48,220.29C193.78,220.14 194.08,219.99 194.38,219.86C194.68,219.73 194.98,219.61 195.29,219.51C195.59,219.41 195.89,219.32 196.19,219.28C196.49,219.24 196.8,219.21 197.1,219.24C197.4,219.27 197.71,219.33 198,219.44C198.31,219.56 198.61,219.72 198.9,219.93C199.22,220.16 199.52,220.44 199.81,220.76C200.13,221.11 200.42,221.53 200.71,221.97C201.03,222.46 201.33,223.02 201.62,223.6C201.94,224.24 202.23,224.94 202.52,225.66C202.83,226.45 203.13,227.29 203.42,228.16C203.73,229.1 204.04,230.1 204.33,231.12C204.64,232.21 204.94,233.36 205.23,234.53C205.54,235.77 205.84,237.05 206.14,238.36C206.45,239.73 206.74,241.14 207.04,242.58C207.35,244.07 207.65,245.61 207.95,247.16C208.26,248.76 208.55,250.39 208.85,252.03C209.15,253.7 209.45,255.41 209.75,257.11C210.05,258.82 210.36,260.55 210.66,262.26C210.96,263.95 211.25,265.66 211.56,267.32C211.86,268.92 212.15,270.56 212.47,272.05C212.76,273.39 213.03,274.75 213.37,275.87C213.64,276.77 213.94,277.57 214.27,278.27C214.55,278.86 214.85,279.41 215.18,279.85C215.46,280.22 215.75,280.61 216.08,280.78C216.36,280.92 216.71,281 216.99,280.9C217.33,280.78 217.62,280.35 217.89,279.92C218.25,279.34 218.51,278.5 218.79,277.64C219.13,276.59 219.42,275.33 219.7,274.04C220.02,272.57 220.31,270.95 220.6,269.3C220.92,267.5 221.22,265.58 221.51,263.65C221.82,261.62 222.11,259.49 222.41,257.38C222.71,255.22 223.02,253.01 223.32,250.83C223.62,248.65 223.92,246.45 224.22,244.29C224.52,242.17 224.81,240.05 225.12,237.98C225.42,235.97 225.72,233.98 226.03,232.05C226.33,230.2 226.62,228.38 226.93,226.62C227.22,224.95 227.53,223.32 227.84,221.76C228.13,220.31 228.43,218.9 228.74,217.57C229.03,216.35 229.32,215.17 229.64,214.08C229.93,213.11 230.22,212.17 230.55,211.34C230.83,210.63 231.11,209.94 231.45,209.39C231.73,208.94 232.02,208.5 232.36,208.25C232.64,208.05 232.96,207.9 233.26,207.92C233.56,207.94 233.88,208.15 234.16,208.38C234.5,208.67 234.79,209.14 235.07,209.62C235.4,210.18 235.68,210.87 235.97,211.58C236.29,212.37 236.59,213.26 236.88,214.16C237.19,215.14 237.49,216.19 237.78,217.24C238.09,218.35 238.38,219.51 238.68,220.65C238.98,221.79 239.29,222.95 239.59,224.09C239.89,225.22 240.19,226.32 240.49,227.45C240.79,228.58 241.1,229.72 241.4,230.87C241.7,232.03 242,233.2 242.3,234.36C242.6,235.52 242.91,236.7 243.21,237.85C243.51,238.98 243.8,240.13 244.11,241.22C244.4,242.27 244.69,243.31 245.01,244.28C245.3,245.17 245.59,246.06 245.92,246.81C246.2,247.45 246.45,248.15 246.82,248.52C247.09,248.8 247.45,249.08 247.73,249.03C248.06,248.97 248.37,248.43 248.63,247.94C249.02,247.22 249.26,246.08 249.53,244.97C249.87,243.58 250.15,241.9 250.44,240.21C250.76,238.29 251.05,236.17 251.34,234.03C251.65,231.73 251.95,229.31 252.25,226.88C252.56,224.36 252.85,221.77 253.15,219.19C253.45,216.57 253.75,213.91 254.05,211.27C254.35,208.63 254.66,205.98 254.96,203.36C255.26,200.77 255.55,198.19 255.86,195.65C256.16,193.17 256.46,190.7 256.77,188.29C257.07,185.95 257.36,183.64 257.67,181.39C257.97,179.23 258.27,177.1 258.58,175.04C258.87,173.08 259.17,171.16 259.48,169.32C259.77,167.59 260.07,165.89 260.38,164.28C260.67,162.79 260.97,161.34 261.29,159.98C261.58,158.74 261.87,157.53 262.19,156.43C262.48,155.45 262.77,154.5 263.1,153.67C263.38,152.95 263.66,152.25 264,151.7C264.28,151.24 264.56,150.79 264.9,150.54C265.18,150.33 265.51,150.18 265.81,150.19C266.11,150.2 266.43,150.39 266.71,150.61C267.05,150.88 267.34,151.33 267.62,151.78C267.95,152.32 268.24,152.97 268.52,153.65C268.84,154.41 269.13,155.27 269.42,156.14C269.74,157.09 270.04,158.1 270.33,159.13C270.64,160.22 270.93,161.37 271.23,162.52C271.54,163.71 271.84,164.92 272.14,166.14C272.44,167.37 272.74,168.62 273.04,169.86C273.34,171.1 273.65,172.34 273.95,173.56C274.25,174.76 274.55,175.96 274.85,177.14C275.15,178.29 275.44,179.44 275.75,180.55C276.05,181.62 276.35,182.68 276.66,183.7C276.95,184.66 277.24,185.61 277.56,186.49C277.85,187.29 278.14,188.09 278.47,188.76C278.75,189.34 279.02,189.94 279.37,190.31C279.64,190.6 279.97,190.9 280.27,190.9C280.57,190.9 280.92,190.6 281.18,190.28C281.56,189.81 281.81,188.98 282.08,188.16C282.43,187.08 282.71,185.72 282.99,184.33C283.32,182.71 283.6,180.87 283.89,179.02C284.2,176.99 284.5,174.83 284.79,172.64C285.1,170.32 285.4,167.91 285.7,165.47C286.01,162.93 286.3,160.32 286.6,157.7C286.91,155.01 287.21,152.28 287.51,149.53C287.81,146.74 288.11,143.92 288.41,141.1C288.71,138.27 289.02,135.41 289.32,132.57C289.62,129.73 289.92,126.89 290.22,124.07C290.52,121.28 290.82,118.49 291.12,115.74C291.42,113.03 291.72,110.33 292.03,107.68C292.33,105.09 292.62,102.51 292.93,99.99C293.23,97.54 293.53,95.12 293.84,92.75C294.14,90.47 294.43,88.22 294.74,86.04C295.03,83.95 295.33,81.9 295.64,79.92C295.93,78.04 296.24,76.21 296.55,74.45C296.84,72.8 297.14,71.2 297.45,69.67C297.74,68.26 298.04,66.88 298.36,65.6C298.65,64.43 298.94,63.31 299.26,62.28C299.54,61.36 299.83,60.48 300.16,59.7C300.44,59.03 300.73,58.39 301.07,57.88C301.35,57.46 301.64,57.05 301.97,56.81C302.25,56.61 302.58,56.47 302.88,56.47C303.18,56.47 303.5,56.64 303.78,56.84C304.11,57.08 304.4,57.48 304.68,57.89C305.01,58.37 305.3,58.97 305.59,59.59C305.91,60.29 306.2,61.06 306.49,61.87C306.81,62.76 307.11,63.72 307.4,64.71C307.71,65.77 308.01,66.89 308.3,68.04C308.61,69.26 308.91,70.52 309.21,71.81C309.52,73.16 309.82,74.54 310.11,75.95C310.42,77.41 310.71,78.89 311.01,80.4C311.32,81.95 311.62,83.52 311.92,85.11C312.22,86.73 312.52,88.38 312.82,90.03C313.12,91.71 313.43,93.4 313.73,95.1C314.03,96.82 314.33,98.55 314.63,100.29C314.93,102.05 315.23,103.82 315.53,105.6C315.83,107.39 316.14,109.2 316.44,111.01C316.74,112.84 317.04,114.68 317.34,116.53C317.64,118.4 317.95,120.28 318.25,122.18C318.55,124.1 318.85,126.03 319.15,127.98C319.45,129.95 319.75,131.94 320.05,133.94C320.35,135.97 320.66,138.02 320.96,140.08C321.26,142.17 321.56,144.28 321.86,146.41C322.16,148.57 322.47,150.74 322.77,152.93C323.07,155.15 323.37,157.39 323.67,159.64C323.97,161.92 324.28,164.23 324.58,166.54C324.88,168.88 325.18,171.24 325.48,173.61C325.78,176 326.08,178.41 326.38,180.83C326.68,183.27 326.99,185.73 327.29,188.19C327.59,190.67 327.89,193.16 328.19,195.65C328.49,198.15 328.8,200.65 329.1,203.16C329.4,205.67 329.7,208.19 330,210.7C330.3,213.2 330.6,215.71 330.9,218.2C331.2,220.68 331.51,223.15 331.81,225.61C332.11,228.04 332.41,230.47 332.71,232.87C333.01,235.24 333.32,237.6 333.62,239.93C333.92,242.22 334.22,244.48 334.52,246.72C334.82,248.91 335.11,251.07 335.42,253.2C335.72,255.26 336.02,257.31 336.33,259.3C336.63,261.22 336.92,263.11 337.23,264.95C337.53,266.7 337.83,268.42 338.14,270.08C338.43,271.65 338.73,273.18 339.04,274.64C339.33,276.01 339.63,277.34 339.95,278.59C340.24,279.74 340.53,280.85 340.85,281.87C341.13,282.78 341.41,283.69 341.75,284.42C342.03,285.01 342.29,285.7 342.66,285.95C342.93,286.13 343.29,286.2 343.56,286.09C343.91,285.96 344.19,285.41 344.47,284.95C344.81,284.38 345.08,283.61 345.37,282.9C345.68,282.15 345.97,281.34 346.27,280.56C346.57,279.77 346.88,278.96 347.18,278.17C347.48,277.39 347.77,276.6 348.08,275.83C348.38,275.08 348.68,274.35 348.99,273.62C349.29,272.91 349.59,272.22 349.89,271.52C350.19,270.81 350.48,270.07 350.79,269.38C351.09,268.71 351.39,268.05 351.7,267.43C351.99,266.86 352.29,266.3 352.6,265.8C352.89,265.33 353.19,264.89 353.51,264.5C353.8,264.14 354.1,263.81 354.41,263.52C354.7,263.26 355.01,263.03 355.32,262.83C355.61,262.64 355.92,262.5 356.22,262.36C356.52,262.22 356.82,262.11 357.12,261.99C357.42,261.87 357.73,261.75 358.03,261.64C358.33,261.53 358.63,261.42 358.93,261.32C359.23,261.22 359.54,261.14 359.84,261.02C360.14,260.9 360.45,260.77 360.74,260.6C361.05,260.42 361.34,260.19 361.64,259.97C361.95,259.74 362.25,259.5 362.55,259.26C362.85,259.02 363.16,258.8 363.45,258.53C363.76,258.25 364.07,257.93 364.36,257.6C364.67,257.25 364.96,256.85 365.26,256.46C365.56,256.06 365.87,255.69 366.16,255.25C366.48,254.77 366.79,254.25 367.07,253.67C367.4,253 367.67,252.21 367.97,251.46C368.28,250.69 368.58,249.91 368.88,249.12C369.18,248.32 369.48,247.5 369.78,246.69C370.08,245.87 370.38,245.04 370.68,244.21C370.98,243.38 371.29,242.55 371.59,241.73C371.89,240.92 372.19,240.1 372.49,239.3C372.79,238.51 373.09,237.72 373.4,236.95C373.7,236.2 373.99,235.45 374.3,234.72C374.6,234.01 374.9,233.32 375.21,232.64C375.51,231.99 375.8,231.34 376.11,230.72C376.4,230.12 376.7,229.53 377.01,228.96C377.31,228.41 377.61,227.89 377.92,227.37C378.22,226.87 378.52,226.38 378.82,225.9C379.12,225.43 379.42,224.97 379.73,224.52C380.03,224.08 380.32,223.64 380.63,223.23C380.93,222.83 381.22,222.43 381.53,222.07C381.82,221.73 382.13,221.4 382.44,221.11C382.73,220.84 383.03,220.59 383.34,220.39C383.63,220.21 383.94,220.05 384.25,219.95C384.54,219.85 384.85,219.79 385.15,219.78C385.45,219.77 385.75,219.81 386.05,219.89C386.36,219.97 386.67,220.11 386.96,220.27C387.27,220.44 387.57,220.66 387.86,220.9C388.17,221.15 388.47,221.45 388.77,221.76C389.08,222.08 389.37,222.43 389.67,222.79C389.98,223.17 390.28,223.57 390.58,223.97C390.89,224.38 391.18,224.81 391.48,225.24C391.78,225.67 392.08,226.11 392.38,226.54C392.68,226.97 392.98,227.41 393.29,227.83C393.59,228.24 393.88,228.65 394.19,229.04C394.49,229.42 394.79,229.79 395.1,230.15C395.4,230.49 395.69,230.83 396,231.14C396.3,231.44 396.6,231.73 396.9,232.01C397.2,232.28 397.51,232.54 397.81,232.8C398.11,233.05 398.41,233.3 398.71,233.54C399.01,233.79 399.32,234.02 399.62,234.27C399.92,234.52 400.22,234.78 400.52,235.04C400.82,235.31 401.12,235.58 401.42,235.87C401.73,236.17 402.03,236.47 402.33,236.8C402.64,237.14 402.93,237.5 403.23,237.87C403.54,238.26 403.84,238.66 404.14,239.08C404.45,239.52 404.75,239.98 405.04,240.46C405.35,240.96 405.65,241.48 405.95,242.02C406.26,242.58 406.56,243.16 406.85,243.75C407.16,244.37 407.45,245 407.75,245.65C408.06,246.32 408.36,247 408.66,247.7C408.97,248.41 409.26,249.14 409.56,249.88C409.86,250.63 410.17,251.4 410.47,252.16C410.77,252.93 411.07,253.71 411.37,254.48C411.67,255.25 411.97,256.03 412.27,256.8C412.57,257.56 412.88,258.32 413.18,259.07C413.48,259.81 413.78,260.54 414.08,261.26C414.38,261.97 414.69,262.68 414.99,263.38C415.29,264.08 415.59,264.77 415.89,265.46C416.19,266.14 416.48,266.84 416.79,267.49C417.09,268.12 417.39,268.72 417.7,269.31C418,269.89 418.3,270.44 418.6,271C418.9,271.56 419.21,272.12 419.51,272.69C419.81,273.26 420.11,273.84 420.41,274.42C420.71,275.01 421.02,275.6 421.32,276.2C421.62,276.81 421.92,277.43 422.22,278.06C422.52,278.7 422.82,279.35 423.12,280.01C423.43,280.69 423.73,281.38 424.03,282.08C424.33,282.79 424.63,283.51 424.93,284.22C425.23,284.93 425.54,285.64 425.84,286.35C426.14,287.06 426.44,287.78 426.74,288.49C427.04,289.19 427.33,289.91 427.64,290.59C427.94,291.24 428.25,291.86 428.55,292.5C428.85,293.14 429.15,293.77 429.45,294.41C429.75,295.06 430.05,295.76 430.36,296.39C430.65,296.98 430.91,297.68 431.26,298.1C431.53,298.43 431.84,298.74 432.16,298.82C432.45,298.89 432.78,298.78 433.07,298.67C433.38,298.55 433.67,298.27 433.97,298.08C434.27,297.89 434.58,297.7 434.88,297.51C435.18,297.33 435.49,297.17 435.78,296.97C436.09,296.76 436.38,296.5 436.68,296.25C436.99,296 437.29,295.72 437.59,295.46C437.89,295.2 438.19,294.94 438.49,294.68C438.79,294.42 439.1,294.17 439.4,293.92C439.7,293.67 440,293.42 440.3,293.18C440.6,292.94 440.91,292.7 441.21,292.47C441.51,292.24 441.81,292.01 442.11,291.8C442.41,291.59 442.71,291.39 443.01,291.21C443.31,291.03 443.61,290.86 443.92,290.72C444.22,290.58 444.52,290.46 444.82,290.36C445.12,290.26 445.43,290.17 445.73,290.1C446.03,290.03 446.33,289.99 446.63,289.95C446.93,289.91 447.23,289.89 447.53,289.87C447.83,289.85 448.14,289.83 448.44,289.82C448.74,289.81 449.04,289.81 449.34,289.81C449.64,289.81 449.95,289.82 450.25,289.82C450.55,289.82 450.85,289.81 451.15,289.8C451.45,289.79 451.75,289.74 452.05,289.73C452.35,289.72 452.66,289.71 452.96,289.74C453.26,289.77 453.56,289.82 453.86,289.89C454.17,289.96 454.47,290.06 454.77,290.18C455.08,290.3 455.37,290.45 455.67,290.62C455.98,290.79 456.28,290.99 456.58,291.21C456.89,291.43 457.18,291.68 457.48,291.94C457.78,292.21 458.08,292.49 458.38,292.78C458.69,293.08 458.99,293.4 459.29,293.72C459.59,294.04 459.89,294.37 460.19,294.69C460.49,295.01 460.79,295.34 461.1,295.64Q461.4,295.93 462,296.45" style="vector-effect: non-scaling-stroke; fill: none; stroke: rgb(231, 107, 243); stroke-opacity: 1; stroke-width: 2px; opacity: 1;"/></g><g class="points"/><g class="text"/></g></g></g><g class="overplot"/><path class="xlines-above crisp" d="M0,0" style="fill: none;"/><path class="ylines-above crisp" d="M0,0" style="fill: none;"/><g class="overlines-above"/><g class="xaxislayer-above"><g class="xtick"><text text-anchor="middle" x="0" y="433" transform="translate(80,0)" style="font-family: 'Open Sans', verdana, arial, sans-serif; font-size: 12px; fill: rgb(42, 63, 95); fill-opacity: 1; white-space: pre;">0</text></g><g class="xtick"><text text-anchor="middle" x="0" y="433" transform="translate(170.23000000000002,0)" style="font-family: 'Open Sans', verdana, arial, sans-serif; font-size: 12px; fill: rgb(42, 63, 95); fill-opacity: 1; white-space: pre;">100</text></g><g class="xtick"><text text-anchor="middle" x="0" y="433" transform="translate(260.47,0)" style="font-family: 'Open Sans', verdana, arial, sans-serif; font-size: 12px; fill: rgb(42, 63, 95); fill-opacity: 1; white-space: pre;">200</text></g><g class="xtick"><text text-anchor="middle" x="0" y="433" transform="translate(350.7,0)" style="font-family: 'Open Sans', verdana, arial, sans-serif; font-size: 12px; fill: rgb(42, 63, 95); fill-opacity: 1; white-space: pre;">300</text></g><g class="xtick"><text text-anchor="middle" x="0" y="433" transform="translate(440.94,0)" style="font-family: 'Open Sans', verdana, arial, sans-serif; font-size: 12px; fill: rgb(42, 63, 95); fill-opacity: 1; white-space: pre;">400</text></g><g class="xtick"><text text-anchor="middle" x="0" y="433" transform="translate(531.1700000000001,0)" style="font-family: 'Open Sans', verdana, arial, sans-serif; font-size: 12px; fill: rgb(42, 63, 95); fill-opacity: 1; white-space: pre;">500</text></g></g><g class="yaxislayer-above"><g class="ytick"><text text-anchor="end" x="79" y="4.199999999999999" transform="translate(0,359.8)" style="font-family: 'Open Sans', verdana, arial, sans-serif; font-size: 12px; fill: rgb(42, 63, 95); fill-opacity: 1; white-space: pre;">500</text></g><g class="ytick"><text text-anchor="end" x="79" y="4.199999999999999" transform="translate(0,286.48)" style="font-family: 'Open Sans', verdana, arial, sans-serif; font-size: 12px; fill: rgb(42, 63, 95); fill-opacity: 1; white-space: pre;">1000</text></g><g class="ytick"><text text-anchor="end" x="79" y="4.199999999999999" transform="translate(0,213.16)" style="font-family: 'Open Sans', verdana, arial, sans-serif; font-size: 12px; fill: rgb(42, 63, 95); fill-opacity: 1; white-space: pre;">1500</text></g><g class="ytick"><text text-anchor="end" x="79" y="4.199999999999999" transform="translate(0,139.85)" style="font-family: 'Open Sans', verdana, arial, sans-serif; font-size: 12px; fill: rgb(42, 63, 95); fill-opacity: 1; white-space: pre;">2000</text></g></g><g class="overaxes-above"/></g></g><g class="polarlayer"/><g class="ternarylayer"/><g class="geolayer"/><g class="funnelarealayer"/><g class="pielayer"/><g class="treemaplayer"/><g class="sunburstlayer"/><g class="glimages"/><defs id="topdefs-32167e"><g class="clips"/><clipPath id="legend32167e"><rect width="137" height="67" x="0" y="0"/></clipPath></defs><g class="layer-above"><g class="imagelayer"/><g class="shapelayer"/></g><g class="infolayer"><g class="legend" pointer-events="all" transform="translate(551.24, 100)"><rect class="bg" shape-rendering="crispEdges" width="137" height="67" x="0" y="0" style="stroke: rgb(68, 68, 68); stroke-opacity: 1; fill: rgb(255, 255, 255); fill-opacity: 1; stroke-width: 0px;"/><g class="scrollbox" transform="translate(0, 0)" clip-path="url('#legend32167e')"><g class="groups"><g class="traces" transform="translate(0, 14.5)" style="opacity: 1;"><text class="legendtext" text-anchor="start" x="40" y="4.680000000000001" style="font-family: 'Open Sans', verdana, arial, sans-serif; font-size: 12px; fill: rgb(42, 63, 95); fill-opacity: 1; white-space: pre;">Average Class I</text><g class="layers" style="opacity: 1;"><g class="legendfill"/><g class="legendlines"><path class="js-line" d="M5,0h30" style="fill: none; stroke: rgb(0, 100, 80); stroke-opacity: 1; stroke-width: 2px;"/></g><g class="legendsymbols"><g class="legendpoints"/></g></g><rect class="legendtoggle" x="0" y="-9.5" width="131.15625" height="19" style="fill: rgb(0, 0, 0); fill-opacity: 0;"/></g><g class="traces" transform="translate(0, 33.5)" style="opacity: 1;"><text class="legendtext" text-anchor="start" x="40" y="4.680000000000001" style="font-family: 'Open Sans', verdana, arial, sans-serif; font-size: 12px; fill: rgb(42, 63, 95); fill-opacity: 1; white-space: pre;">Average Class II</text><g class="layers" style="opacity: 1;"><g class="legendfill"/><g class="legendlines"><path class="js-line" d="M5,0h30" style="fill: none; stroke: rgb(0, 176, 246); stroke-opacity: 1; stroke-width: 2px;"/></g><g class="legendsymbols"><g class="legendpoints"/></g></g><rect class="legendtoggle" x="0" y="-9.5" width="131.15625" height="19" style="fill: rgb(0, 0, 0); fill-opacity: 0;"/></g><g class="traces" transform="translate(0, 52.5)" style="opacity: 1;"><text class="legendtext" text-anchor="start" x="40" y="4.680000000000001" style="font-family: 'Open Sans', verdana, arial, sans-serif; font-size: 12px; fill: rgb(42, 63, 95); fill-opacity: 1; white-space: pre;">Average Class III</text><g class="layers" style="opacity: 1;"><g class="legendfill"/><g class="legendlines"><path class="js-line" d="M5,0h30" style="fill: none; stroke: rgb(231, 107, 243); stroke-opacity: 1; stroke-width: 2px;"/></g><g class="legendsymbols"><g class="legendpoints"/></g></g><rect class="legendtoggle" x="0" y="-9.5" width="131.15625" height="19" style="fill: rgb(0, 0, 0); fill-opacity: 0;"/></g></g></g><rect class="scrollbar" rx="20" ry="3" width="0" height="0" x="0" y="0" style="fill: rgb(128, 139, 164); fill-opacity: 1;"/></g><g class="g-gtitle"><text class="gtitle" x="35" y="50" text-anchor="start" dy="0em" style="font-family: 'Open Sans', verdana, arial, sans-serif; font-size: 17px; fill: rgb(42, 63, 95); opacity: 1; font-weight: normal; white-space: pre;">Average curve: secondary_structure_properties_group</text></g><g class="g-xtitle"><text class="xtitle" x="311" y="460.8" text-anchor="middle" style="font-family: 'Open Sans', verdana, arial, sans-serif; font-size: 14px; fill: rgb(42, 63, 95); opacity: 1; font-weight: normal; white-space: pre;">Domain</text></g><g class="g-ytitle"><text class="ytitle" transform="rotate(-90,27.496875000000003,260)" x="27.496875000000003" y="260" text-anchor="middle" style="font-family: 'Open Sans', verdana, arial, sans-serif; font-size: 14px; fill: rgb(42, 63, 95); opacity: 1; font-weight: normal; white-space: pre;">Frequency</text></g></g></svg>