<svg xmlns="http://www.w3.org/2000/svg" xmlns:xlink="http://www.w3.org/1999/xlink" version="1.1" width="728" height="3620" name="tree_full.svg" y="0" viewBox="0 0 728 3620">
<polyline points="728,3620 0,3620 0,0 728,0 728,3620" fill="white" />
<text x="213" y="37" fill="#000000" font-size="15" font-family="default" > sequence 34</text>
<polyline points="177,44 177,32 211,32" fill="none" stroke="#000000" stroke-width="1" stroke-linecap="square"/>
<text x="179" y="61" fill="#000000" font-size="15" font-family="default" > sequence 80</text>
<polyline points="177,45 177,56 177,56" fill="none" stroke="#000000" stroke-width="1" stroke-linecap="square"/>
<polyline points="169,62 169,44 177,44" fill="none" stroke="#000000" stroke-width="1" stroke-linecap="square"/>
<text x="171" y="85" fill="#000000" font-size="15" font-family="default" > sequence 37</text>
<polyline points="169,63 169,80 169,80" fill="none" stroke="#000000" stroke-width="1" stroke-linecap="square"/>
<polyline points="161,83 161,62 169,62" fill="none" stroke="#000000" stroke-width="1" stroke-linecap="square"/>
<text x="163" y="109" fill="#000000" font-size="15" font-family="default" > sequence 77</text>
<polyline points="161,84 161,104 161,104" fill="none" stroke="#000000" stroke-width="1" stroke-linecap="square"/>
<text x="163" y="133" fill="#000000" font-size="15" font-family="default" > sequence 12</text>
<polyline points="161,96 161,128 161,128" fill="none" stroke="#000000" stroke-width="1" stroke-linecap="square"/>
<text x="171" y="157" fill="#000000" font-size="15" font-family="default" > sequence 40</text>
<polyline points="161,108 161,152 169,152" fill="none" stroke="#000000" stroke-width="1" stroke-linecap="square"/>
<text x="171" y="181" fill="#000000" font-size="15" font-family="default" > sequence 69</text>
<polyline points="161,120 161,176 169,176" fill="none" stroke="#000000" stroke-width="1" stroke-linecap="square"/>
<text x="163" y="205" fill="#000000" font-size="15" font-family="default" > sequence 58</text>
<polyline points="161,132 161,200 161,200" fill="none" stroke="#000000" stroke-width="1" stroke-linecap="square"/>
<text x="163" y="229" fill="#000000" font-size="15" font-family="default" > sequence 57</text>
<polyline points="161,144 161,224 161,224" fill="none" stroke="#000000" stroke-width="1" stroke-linecap="square"/>
<text x="171" y="253" fill="#000000" font-size="15" font-family="default" > sequence 14</text>
<polyline points="161,260 161,248 169,248" fill="none" stroke="#000000" stroke-width="1" stroke-linecap="square"/>
<text x="163" y="277" fill="#000000" font-size="15" font-family="default" > sequence 59</text>
<polyline points="161,261 161,272 161,272" fill="none" stroke="#000000" stroke-width="1" stroke-linecap="square"/>
<text x="163" y="301" fill="#000000" font-size="15" font-family="default" > sequence 121</text>
<polyline points="161,326 161,296 161,296" fill="none" stroke="#000000" stroke-width="1" stroke-linecap="square"/>
<text x="163" y="325" fill="#000000" font-size="15" font-family="default" > sequence 42</text>
<polyline points="161,338 161,320 161,320" fill="none" stroke="#000000" stroke-width="1" stroke-linecap="square"/>
<text x="173" y="349" fill="#000000" font-size="15" font-family="default" > sequence 1</text>
<polyline points="166,356 166,344 171,344" fill="none" stroke="#000000" stroke-width="1" stroke-linecap="square"/>
<text x="173" y="373" fill="#000000" font-size="15" font-family="default" > sequence 25</text>
<polyline points="166,357 166,368 171,368" fill="none" stroke="#000000" stroke-width="1" stroke-linecap="square"/>
<polyline points="161,339 161,356 166,356" fill="none" stroke="#000000" stroke-width="1" stroke-linecap="square"/>
<text x="171" y="397" fill="#000000" font-size="15" font-family="default" > sequence 7</text>
<polyline points="161,404 161,392 169,392" fill="none" stroke="#000000" stroke-width="1" stroke-linecap="square"/>
<text x="163" y="421" fill="#000000" font-size="15" font-family="default" > sequence 141</text>
<polyline points="161,405 161,416 161,416" fill="none" stroke="#000000" stroke-width="1" stroke-linecap="square"/>
<text x="163" y="445" fill="#000000" font-size="15" font-family="default" > sequence 16</text>
<polyline points="161,560 161,440 161,440" fill="none" stroke="#000000" stroke-width="1" stroke-linecap="square"/>
<text x="171" y="469" fill="#000000" font-size="15" font-family="default" > sequence 49</text>
<polyline points="169,476 169,464 169,464" fill="none" stroke="#000000" stroke-width="1" stroke-linecap="square"/>
<text x="179" y="493" fill="#000000" font-size="15" font-family="default" > sequence 102</text>
<polyline points="169,477 169,488 177,488" fill="none" stroke="#000000" stroke-width="1" stroke-linecap="square"/>
<polyline points="163,494 163,476 169,476" fill="none" stroke="#000000" stroke-width="1" stroke-linecap="square"/>
<text x="165" y="517" fill="#000000" font-size="15" font-family="default" > sequence 23</text>
<polyline points="163,495 163,512 163,512" fill="none" stroke="#000000" stroke-width="1" stroke-linecap="square"/>
<text x="171" y="541" fill="#000000" font-size="15" font-family="default" > sequence 46</text>
<polyline points="163,548 163,536 169,536" fill="none" stroke="#000000" stroke-width="1" stroke-linecap="square"/>
<text x="165" y="565" fill="#000000" font-size="15" font-family="default" > sequence 61</text>
<polyline points="163,549 163,560 163,560" fill="none" stroke="#000000" stroke-width="1" stroke-linecap="square"/>
<line x1="163" y1="477" x2="163" y2="520" stroke="#000000" stroke-width="1" stroke-linecap="square"/>
<line x1="163" y1="518" x2="163" y2="560" stroke="#000000" stroke-width="1" stroke-linecap="square"/>
<polyline points="161,599 161,518 163,518" fill="none" stroke="#000000" stroke-width="1" stroke-linecap="square"/>
<text x="199" y="589" fill="#000000" font-size="15" font-family="default" > sequence 2</text>
<polyline points="161,596 161,584 197,584" fill="none" stroke="#000000" stroke-width="1" stroke-linecap="square"/>
<text x="163" y="613" fill="#000000" font-size="15" font-family="default" > sequence 67</text>
<polyline points="161,597 161,608 161,608" fill="none" stroke="#000000" stroke-width="1" stroke-linecap="square"/>
<text x="179" y="637" fill="#000000" font-size="15" font-family="default" > sequence 5</text>
<polyline points="161,609 161,632 177,632" fill="none" stroke="#000000" stroke-width="1" stroke-linecap="square"/>
<text x="172" y="661" fill="#000000" font-size="15" font-family="default" > sequence 89</text>
<polyline points="163,680 163,656 170,656" fill="none" stroke="#000000" stroke-width="1" stroke-linecap="square"/>
<text x="165" y="685" fill="#000000" font-size="15" font-family="default" > sequence 119</text>
<polyline points="163,692 163,680 163,680" fill="none" stroke="#000000" stroke-width="1" stroke-linecap="square"/>
<text x="172" y="709" fill="#000000" font-size="15" font-family="default" > sequence 139</text>
<polyline points="163,693 163,704 170,704" fill="none" stroke="#000000" stroke-width="1" stroke-linecap="square"/>
<line x1="163" y1="680" x2="163" y2="704" stroke="#000000" stroke-width="1" stroke-linecap="square"/>
<polyline points="161,633 161,680 163,680" fill="none" stroke="#000000" stroke-width="1" stroke-linecap="square"/>
<text x="163" y="733" fill="#000000" font-size="15" font-family="default" > sequence 4</text>
<polyline points="161,758 161,728 161,728" fill="none" stroke="#000000" stroke-width="1" stroke-linecap="square"/>
<text x="163" y="757" fill="#000000" font-size="15" font-family="default" > sequence 103</text>
<polyline points="161,770 161,752 161,752" fill="none" stroke="#000000" stroke-width="1" stroke-linecap="square"/>
<text x="188" y="781" fill="#000000" font-size="15" font-family="default" > sequence 107</text>
<polyline points="186,788 186,776 186,776" fill="none" stroke="#000000" stroke-width="1" stroke-linecap="square"/>
<text x="188" y="805" fill="#000000" font-size="15" font-family="default" > sequence 111</text>
<polyline points="186,789 186,800 186,800" fill="none" stroke="#000000" stroke-width="1" stroke-linecap="square"/>
<polyline points="161,771 161,788 186,788" fill="none" stroke="#000000" stroke-width="1" stroke-linecap="square"/>
<text x="163" y="829" fill="#000000" font-size="15" font-family="default" > sequence 140</text>
<polyline points="161,444 161,824 161,824" fill="none" stroke="#000000" stroke-width="1" stroke-linecap="square"/>
<text x="171" y="853" fill="#000000" font-size="15" font-family="default" > sequence 55</text>
<polyline points="161,456 161,848 169,848" fill="none" stroke="#000000" stroke-width="1" stroke-linecap="square"/>
<text x="181" y="877" fill="#000000" font-size="15" font-family="default" > sequence 17</text>
<polyline points="179,884 179,872 179,872" fill="none" stroke="#000000" stroke-width="1" stroke-linecap="square"/>
<text x="181" y="901" fill="#000000" font-size="15" font-family="default" > sequence 100</text>
<polyline points="179,885 179,896 179,896" fill="none" stroke="#000000" stroke-width="1" stroke-linecap="square"/>
<polyline points="161,914 161,884 179,884" fill="none" stroke="#000000" stroke-width="1" stroke-linecap="square"/>
<text x="163" y="925" fill="#000000" font-size="15" font-family="default" > sequence 52</text>
<polyline points="161,932 161,920 161,920" fill="none" stroke="#000000" stroke-width="1" stroke-linecap="square"/>
<text x="171" y="949" fill="#000000" font-size="15" font-family="default" > sequence 60</text>
<polyline points="161,933 161,944 169,944" fill="none" stroke="#000000" stroke-width="1" stroke-linecap="square"/>
<text x="163" y="973" fill="#000000" font-size="15" font-family="default" > sequence 28</text>
<polyline points="161,516 161,968 161,968" fill="none" stroke="#000000" stroke-width="1" stroke-linecap="square"/>
<text x="171" y="997" fill="#000000" font-size="15" font-family="default" > sequence 130</text>
<polyline points="161,528 161,992 169,992" fill="none" stroke="#000000" stroke-width="1" stroke-linecap="square"/>
<text x="171" y="1021" fill="#000000" font-size="15" font-family="default" > sequence 115</text>
<polyline points="161,540 161,1016 169,1016" fill="none" stroke="#000000" stroke-width="1" stroke-linecap="square"/>
<text x="192" y="1045" fill="#000000" font-size="15" font-family="default" > sequence 45</text>
<polyline points="185,1052 185,1040 190,1040" fill="none" stroke="#000000" stroke-width="1" stroke-linecap="square"/>
<text x="192" y="1069" fill="#000000" font-size="15" font-family="default" > sequence 53</text>
<polyline points="185,1053 185,1064 190,1064" fill="none" stroke="#000000" stroke-width="1" stroke-linecap="square"/>
<polyline points="182,1070 182,1052 185,1052" fill="none" stroke="#000000" stroke-width="1" stroke-linecap="square"/>
<text x="189" y="1093" fill="#000000" font-size="15" font-family="default" > sequence 63</text>
<polyline points="182,1071 182,1088 187,1088" fill="none" stroke="#000000" stroke-width="1" stroke-linecap="square"/>
<polyline points="179,1091 179,1070 182,1070" fill="none" stroke="#000000" stroke-width="1" stroke-linecap="square"/>
<text x="186" y="1117" fill="#000000" font-size="15" font-family="default" > sequence 50</text>
<polyline points="179,1092 179,1112 184,1112" fill="none" stroke="#000000" stroke-width="1" stroke-linecap="square"/>
<polyline points="176,1119 176,1091 179,1091" fill="none" stroke="#000000" stroke-width="1" stroke-linecap="square"/>
<text x="186" y="1141" fill="#000000" font-size="15" font-family="default" > sequence 96</text>
<polyline points="179,1148 179,1136 184,1136" fill="none" stroke="#000000" stroke-width="1" stroke-linecap="square"/>
<text x="186" y="1165" fill="#000000" font-size="15" font-family="default" > sequence 129</text>
<polyline points="179,1149 179,1160 184,1160" fill="none" stroke="#000000" stroke-width="1" stroke-linecap="square"/>
<polyline points="176,1120 176,1148 179,1148" fill="none" stroke="#000000" stroke-width="1" stroke-linecap="square"/>
<polyline points="173,1151 173,1119 176,1119" fill="none" stroke="#000000" stroke-width="1" stroke-linecap="square"/>
<text x="180" y="1189" fill="#000000" font-size="15" font-family="default" > sequence 11</text>
<polyline points="173,1152 173,1184 178,1184" fill="none" stroke="#000000" stroke-width="1" stroke-linecap="square"/>
<polyline points="170,1185 170,1151 173,1151" fill="none" stroke="#000000" stroke-width="1" stroke-linecap="square"/>
<text x="180" y="1213" fill="#000000" font-size="15" font-family="default" > sequence 22</text>
<polyline points="173,1220 173,1208 178,1208" fill="none" stroke="#000000" stroke-width="1" stroke-linecap="square"/>
<text x="180" y="1237" fill="#000000" font-size="15" font-family="default" > sequence 64</text>
<polyline points="173,1221 173,1232 178,1232" fill="none" stroke="#000000" stroke-width="1" stroke-linecap="square"/>
<polyline points="170,1186 170,1220 173,1220" fill="none" stroke="#000000" stroke-width="1" stroke-linecap="square"/>
<polyline points="167,1226 167,1185 170,1185" fill="none" stroke="#000000" stroke-width="1" stroke-linecap="square"/>
<text x="173" y="1261" fill="#000000" font-size="15" font-family="default" > sequence 19</text>
<polyline points="171,1268 171,1256 171,1256" fill="none" stroke="#000000" stroke-width="1" stroke-linecap="square"/>
<text x="173" y="1285" fill="#000000" font-size="15" font-family="default" > sequence 126</text>
<polyline points="171,1269 171,1280 171,1280" fill="none" stroke="#000000" stroke-width="1" stroke-linecap="square"/>
<polyline points="167,1227 167,1268 171,1268" fill="none" stroke="#000000" stroke-width="1" stroke-linecap="square"/>
<polyline points="165,1289 165,1226 167,1226" fill="none" stroke="#000000" stroke-width="1" stroke-linecap="square"/>
<text x="173" y="1309" fill="#000000" font-size="15" font-family="default" > sequence 3</text>
<polyline points="171,1316 171,1304 171,1304" fill="none" stroke="#000000" stroke-width="1" stroke-linecap="square"/>
<text x="173" y="1333" fill="#000000" font-size="15" font-family="default" > sequence 62</text>
<polyline points="171,1317 171,1328 171,1328" fill="none" stroke="#000000" stroke-width="1" stroke-linecap="square"/>
<polyline points="167,1352 167,1316 171,1316" fill="none" stroke="#000000" stroke-width="1" stroke-linecap="square"/>
<text x="175" y="1357" fill="#000000" font-size="15" font-family="default" > sequence 94</text>
<polyline points="173,1364 173,1352 173,1352" fill="none" stroke="#000000" stroke-width="1" stroke-linecap="square"/>
<text x="175" y="1381" fill="#000000" font-size="15" font-family="default" > sequence 112</text>
<polyline points="173,1365 173,1376 173,1376" fill="none" stroke="#000000" stroke-width="1" stroke-linecap="square"/>
<polyline points="169,1388 169,1364 173,1364" fill="none" stroke="#000000" stroke-width="1" stroke-linecap="square"/>
<text x="175" y="1405" fill="#000000" font-size="15" font-family="default" > sequence 101</text>
<polyline points="173,1412 173,1400 173,1400" fill="none" stroke="#000000" stroke-width="1" stroke-linecap="square"/>
<text x="175" y="1429" fill="#000000" font-size="15" font-family="default" > sequence 143</text>
<polyline points="173,1413 173,1424 173,1424" fill="none" stroke="#000000" stroke-width="1" stroke-linecap="square"/>
<polyline points="169,1389 169,1412 173,1412" fill="none" stroke="#000000" stroke-width="1" stroke-linecap="square"/>
<polyline points="167,1353 167,1388 169,1388" fill="none" stroke="#000000" stroke-width="1" stroke-linecap="square"/>
<polyline points="165,1290 165,1352 167,1352" fill="none" stroke="#000000" stroke-width="1" stroke-linecap="square"/>
<polyline points="161,1548 161,1289 165,1289" fill="none" stroke="#000000" stroke-width="1" stroke-linecap="square"/>
<text x="172" y="1453" fill="#000000" font-size="15" font-family="default" > sequence 18</text>
<polyline points="170,1460 170,1448 170,1448" fill="none" stroke="#000000" stroke-width="1" stroke-linecap="square"/>
<text x="180" y="1477" fill="#000000" font-size="15" font-family="default" > sequence 43</text>
<polyline points="170,1461 170,1472 178,1472" fill="none" stroke="#000000" stroke-width="1" stroke-linecap="square"/>
<polyline points="164,1478 164,1460 170,1460" fill="none" stroke="#000000" stroke-width="1" stroke-linecap="square"/>
<text x="172" y="1501" fill="#000000" font-size="15" font-family="default" > sequence 47</text>
<polyline points="164,1479 164,1496 170,1496" fill="none" stroke="#000000" stroke-width="1" stroke-linecap="square"/>
<polyline points="161,1499 161,1478 164,1478" fill="none" stroke="#000000" stroke-width="1" stroke-linecap="square"/>
<text x="163" y="1525" fill="#000000" font-size="15" font-family="default" > sequence 137</text>
<polyline points="161,1500 161,1520 161,1520" fill="none" stroke="#000000" stroke-width="1" stroke-linecap="square"/>
<text x="163" y="1549" fill="#000000" font-size="15" font-family="default" > sequence 116</text>
<polyline points="161,1676 161,1544 161,1544" fill="none" stroke="#000000" stroke-width="1" stroke-linecap="square"/>
<text x="163" y="1573" fill="#000000" font-size="15" font-family="default" > sequence 108</text>
<polyline points="161,1688 161,1568 161,1568" fill="none" stroke="#000000" stroke-width="1" stroke-linecap="square"/>
<text x="163" y="1597" fill="#000000" font-size="15" font-family="default" > sequence 65</text>
<polyline points="161,1700 161,1592 161,1592" fill="none" stroke="#000000" stroke-width="1" stroke-linecap="square"/>
<text x="163" y="1621" fill="#000000" font-size="15" font-family="default" > sequence 10</text>
<polyline points="161,1628 161,1616 161,1616" fill="none" stroke="#000000" stroke-width="1" stroke-linecap="square"/>
<text x="163" y="1645" fill="#000000" font-size="15" font-family="default" > sequence 124</text>
<polyline points="161,1629 161,1640 161,1640" fill="none" stroke="#000000" stroke-width="1" stroke-linecap="square"/>
<text x="163" y="1669" fill="#000000" font-size="15" font-family="default" > sequence 136</text>
<polyline points="161,1641 161,1664 161,1664" fill="none" stroke="#000000" stroke-width="1" stroke-linecap="square"/>
<text x="163" y="1693" fill="#000000" font-size="15" font-family="default" > sequence 134</text>
<polyline points="161,1748 161,1688 161,1688" fill="none" stroke="#000000" stroke-width="1" stroke-linecap="square"/>
<text x="163" y="1717" fill="#000000" font-size="15" font-family="default" > sequence 120</text>
<polyline points="161,1760 161,1712 161,1712" fill="none" stroke="#000000" stroke-width="1" stroke-linecap="square"/>
<text x="163" y="1741" fill="#000000" font-size="15" font-family="default" > sequence 33</text>
<polyline points="161,1772 161,1736 161,1736" fill="none" stroke="#000000" stroke-width="1" stroke-linecap="square"/>
<text x="196" y="1765" fill="#000000" font-size="15" font-family="default" > sequence 110</text>
<polyline points="186,1808 186,1760 194,1760" fill="none" stroke="#000000" stroke-width="1" stroke-linecap="square"/>
<text x="188" y="1789" fill="#000000" font-size="15" font-family="default" > sequence 92</text>
<polyline points="186,1820 186,1784 186,1784" fill="none" stroke="#000000" stroke-width="1" stroke-linecap="square"/>
<text x="196" y="1813" fill="#000000" font-size="15" font-family="default" > sequence 68</text>
<polyline points="186,1832 186,1808 194,1808" fill="none" stroke="#000000" stroke-width="1" stroke-linecap="square"/>
<text x="196" y="1837" fill="#000000" font-size="15" font-family="default" > sequence 21</text>
<polyline points="186,1844 186,1832 194,1832" fill="none" stroke="#000000" stroke-width="1" stroke-linecap="square"/>
<text x="196" y="1861" fill="#000000" font-size="15" font-family="default" > sequence 117</text>
<polyline points="186,1845 186,1856 194,1856" fill="none" stroke="#000000" stroke-width="1" stroke-linecap="square"/>
<line x1="186" y1="1808" x2="186" y2="1856" stroke="#000000" stroke-width="1" stroke-linecap="square"/>
<polyline points="161,1773 161,1808 186,1808" fill="none" stroke="#000000" stroke-width="1" stroke-linecap="square"/>
<text x="176" y="1885" fill="#000000" font-size="15" font-family="default" > sequence 29</text>
<polyline points="169,1892 169,1880 174,1880" fill="none" stroke="#000000" stroke-width="1" stroke-linecap="square"/>
<text x="176" y="1909" fill="#000000" font-size="15" font-family="default" > sequence 133</text>
<polyline points="169,1893 169,1904 174,1904" fill="none" stroke="#000000" stroke-width="1" stroke-linecap="square"/>
<polyline points="166,1916 166,1892 169,1892" fill="none" stroke="#000000" stroke-width="1" stroke-linecap="square"/>
<text x="176" y="1933" fill="#000000" font-size="15" font-family="default" > sequence 74</text>
<polyline points="169,1940 169,1928 174,1928" fill="none" stroke="#000000" stroke-width="1" stroke-linecap="square"/>
<text x="176" y="1957" fill="#000000" font-size="15" font-family="default" > sequence 145</text>
<polyline points="169,1941 169,1952 174,1952" fill="none" stroke="#000000" stroke-width="1" stroke-linecap="square"/>
<polyline points="166,1917 166,1940 169,1940" fill="none" stroke="#000000" stroke-width="1" stroke-linecap="square"/>
<polyline points="161,990 161,1916 166,1916" fill="none" stroke="#000000" stroke-width="1" stroke-linecap="square"/>
<text x="171" y="1981" fill="#000000" font-size="15" font-family="default" > sequence 48</text>
<polyline points="161,1020 161,1976 169,1976" fill="none" stroke="#000000" stroke-width="1" stroke-linecap="square"/>
<line x1="161" y1="63" x2="161" y2="1021" stroke="#000000" stroke-width="1" stroke-linecap="square"/>
<polyline points="160,1509 160,1019 161,1019" fill="none" stroke="#000000" stroke-width="1" stroke-linecap="square"/>
<text x="250" y="2005" fill="#000000" font-size="15" font-family="default" > sequence 95</text>
<polyline points="160,1510 160,2000 248,2000" fill="none" stroke="#000000" stroke-width="1" stroke-linecap="square"/>
<polyline points="134,1805 134,1509 160,1509" fill="none" stroke="#000000" stroke-width="1" stroke-linecap="square"/>
<text x="270" y="2029" fill="#000000" font-size="15" font-family="default" > sequence 81</text>
<polyline points="260,2036 260,2024 268,2024" fill="none" stroke="#000000" stroke-width="1" stroke-linecap="square"/>
<text x="262" y="2053" fill="#000000" font-size="15" font-family="default" > sequence 84</text>
<polyline points="260,2037 260,2048 260,2048" fill="none" stroke="#000000" stroke-width="1" stroke-linecap="square"/>
<polyline points="192,2054 192,2036 260,2036" fill="none" stroke="#000000" stroke-width="1" stroke-linecap="square"/>
<text x="194" y="2077" fill="#000000" font-size="15" font-family="default" > sequence 54</text>
<polyline points="192,2055 192,2072 192,2072" fill="none" stroke="#000000" stroke-width="1" stroke-linecap="square"/>
<polyline points="161,2102 161,2054 192,2054" fill="none" stroke="#000000" stroke-width="1" stroke-linecap="square"/>
<text x="356" y="2101" fill="#000000" font-size="15" font-family="default" > sequence 13</text>
<polyline points="249,2151 249,2096 354,2096" fill="none" stroke="#000000" stroke-width="1" stroke-linecap="square"/>
<text x="324" y="2125" fill="#000000" font-size="15" font-family="default" > sequence 20</text>
<polyline points="322,2132 322,2120 322,2120" fill="none" stroke="#000000" stroke-width="1" stroke-linecap="square"/>
<text x="324" y="2149" fill="#000000" font-size="15" font-family="default" > sequence 128</text>
<polyline points="322,2133 322,2144 322,2144" fill="none" stroke="#000000" stroke-width="1" stroke-linecap="square"/>
<polyline points="297,2162 297,2132 322,2132" fill="none" stroke="#000000" stroke-width="1" stroke-linecap="square"/>
<text x="299" y="2173" fill="#000000" font-size="15" font-family="default" > sequence 83</text>
<polyline points="297,2180 297,2168 297,2168" fill="none" stroke="#000000" stroke-width="1" stroke-linecap="square"/>
<text x="299" y="2197" fill="#000000" font-size="15" font-family="default" > sequence 127</text>
<polyline points="297,2181 297,2192 297,2192" fill="none" stroke="#000000" stroke-width="1" stroke-linecap="square"/>
<line x1="297" y1="2162" x2="297" y2="2192" stroke="#000000" stroke-width="1" stroke-linecap="square"/>
<polyline points="256,2207 256,2162 297,2162" fill="none" stroke="#000000" stroke-width="1" stroke-linecap="square"/>
<text x="280" y="2221" fill="#000000" font-size="15" font-family="default" > sequence 73</text>
<polyline points="278,2252 278,2216 278,2216" fill="none" stroke="#000000" stroke-width="1" stroke-linecap="square"/>
<line x1="278" y1="2252" x2="278" y2="2288" stroke="#000000" stroke-width="1" stroke-linecap="square"/>
<polyline points="256,2208 256,2252 278,2252" fill="none" stroke="#000000" stroke-width="1" stroke-linecap="square"/>
<polyline points="249,2152 249,2207 256,2207" fill="none" stroke="#000000" stroke-width="1" stroke-linecap="square"/>
<polyline points="161,2103 161,2151 249,2151" fill="none" stroke="#000000" stroke-width="1" stroke-linecap="square"/>
<polyline points="134,1806 134,2102 161,2102" fill="none" stroke="#000000" stroke-width="1" stroke-linecap="square"/>
<polyline points="105,2156 105,1805 134,1805" fill="none" stroke="#000000" stroke-width="1" stroke-linecap="square"/>
<line x1="111" y1="2507" x2="111" y2="2703" stroke="#000000" stroke-width="1" stroke-linecap="square"/>
<polyline points="105,2157 105,2507 111,2507" fill="none" stroke="#000000" stroke-width="1" stroke-linecap="square"/>
<polyline points="90,2603 90,2156 105,2156" fill="none" stroke="#000000" stroke-width="1" stroke-linecap="square"/>
<polyline points="76,2921 76,2603 90,2603" fill="none" stroke="#000000" stroke-width="1" stroke-linecap="square"/>
<polyline points="40,3198 40,2921 76,2921" fill="none" stroke="#000000" stroke-width="1" stroke-linecap="square"/>
<text x="302" y="2126" fill="#212121" font-size="11" font-family="MS Sans Serif" >97</text>
<text x="277" y="2156" fill="#212121" font-size="11" font-family="MS Sans Serif" >97</text>
<text x="258" y="2269" fill="#212121" font-size="11" font-family="MS Sans Serif" >80</text>
<text x="240" y="2030" fill="#212121" font-size="11" font-family="MS Sans Serif" >96</text>
<text x="229" y="2168" fill="#212121" font-size="11" font-family="MS Sans Serif" >71</text>
<text x="77" y="2597" fill="#212121" font-size="11" font-family="MS Sans Serif" >0</text>
<text x="172" y="2048" fill="#212121" font-size="11" font-family="MS Sans Serif" >58</text>
<text x="236" y="2224" fill="#212121" font-size="11" font-family="MS Sans Serif" >31</text>
<text x="92" y="2150" fill="#212121" font-size="11" font-family="MS Sans Serif" >0</text>
<text x="121" y="1799" fill="#212121" font-size="11" font-family="MS Sans Serif" >0</text>
<text x="141" y="2119" fill="#212121" font-size="11" font-family="MS Sans Serif" >11</text>
<text x="166" y="1825" fill="#212121" font-size="11" font-family="MS Sans Serif" >56</text>
<text x="157" y="38" fill="#212121" font-size="11" font-family="MS Sans Serif" >29</text>
<text x="147" y="1503" fill="#212121" font-size="11" font-family="MS Sans Serif" >1</text>
<text x="98" y="2524" fill="#212121" font-size="11" font-family="MS Sans Serif" >0</text>
<text x="150" y="1454" fill="#212121" font-size="11" font-family="MS Sans Serif" >41</text>
<text x="149" y="470" fill="#212121" font-size="11" font-family="MS Sans Serif" >41</text>
<text x="153" y="1429" fill="#212121" font-size="11" font-family="MS Sans Serif" >64</text>
<text x="151" y="1310" fill="#212121" font-size="11" font-family="MS Sans Serif" >64</text>
<text x="153" y="1358" fill="#212121" font-size="11" font-family="MS Sans Serif" >32</text>
<text x="151" y="1285" fill="#212121" font-size="11" font-family="MS Sans Serif" >50</text>
<text x="152" y="1013" fill="#212121" font-size="11" font-family="MS Sans Serif" >0</text>
<text x="166" y="805" fill="#212121" font-size="11" font-family="MS Sans Serif" >11</text>
<text x="156" y="56" fill="#212121" font-size="11" font-family="MS Sans Serif" >6</text>
<text x="153" y="697" fill="#212121" font-size="11" font-family="MS Sans Serif" >1</text>
<text x="159" y="878" fill="#212121" font-size="11" font-family="MS Sans Serif" >12</text>
<text x="153" y="512" fill="#212121" font-size="11" font-family="MS Sans Serif" >0</text>
<text x="146" y="1472" fill="#212121" font-size="11" font-family="MS Sans Serif" >14</text>
<text x="153" y="373" fill="#212121" font-size="11" font-family="MS Sans Serif" >0</text>
<text x="158" y="1886" fill="#212121" font-size="11" font-family="MS Sans Serif" >3</text>
<text x="159" y="1405" fill="#212121" font-size="11" font-family="MS Sans Serif" >5</text>
<text x="157" y="1369" fill="#212121" font-size="11" font-family="MS Sans Serif" >8</text>
<text x="152" y="1283" fill="#212121" font-size="11" font-family="MS Sans Serif" >0</text>
<text x="153" y="1933" fill="#212121" font-size="11" font-family="MS Sans Serif" >0</text>
<text x="157" y="1220" fill="#212121" font-size="11" font-family="MS Sans Serif" >0</text>
<text x="159" y="1179" fill="#212121" font-size="11" font-family="MS Sans Serif" >0</text>
<text x="158" y="1957" fill="#212121" font-size="11" font-family="MS Sans Serif" >1</text>
<text x="168" y="1165" fill="#212121" font-size="11" font-family="MS Sans Serif" >2</text>
<text x="165" y="1113" fill="#212121" font-size="11" font-family="MS Sans Serif" >0</text>
<text x="171" y="1064" fill="#212121" font-size="11" font-family="MS Sans Serif" >0</text>
<text x="174" y="1046" fill="#212121" font-size="11" font-family="MS Sans Serif" >5</text>
<text x="168" y="1085" fill="#212121" font-size="11" font-family="MS Sans Serif" >0</text>
<text x="162" y="1237" fill="#212121" font-size="11" font-family="MS Sans Serif" >3</text>
<text x="162" y="1145" fill="#212121" font-size="11" font-family="MS Sans Serif" >0</text>
<line x1="60" y1="3536" x2="202" y2="3536" stroke="#000000" stroke-width="1" stroke-linecap="square"/>
<line x1="60" y1="3532" x2="60" y2="3540" stroke="#000000" stroke-width="1" stroke-linecap="square"/>
<line x1="202" y1="3532" x2="202" y2="3540" stroke="#000000" stroke-width="1" stroke-linecap="square"/>
<text x="118" y="3566" fill="#212121" font-size="11" font-family="MS Sans Serif" >0.50</text>
</svg>
