<svg class="main-svg" xmlns="http://www.w3.org/2000/svg" xmlns:xlink="http://www.w3.org/1999/xlink" width="700" height="500" style="" viewBox="0 0 700 500"><rect x="0" y="0" width="700" height="500" style="fill: rgb(255, 255, 255); fill-opacity: 1;"/><defs id="defs-aa5e63"><g class="clips"><clipPath id="clipaa5e63xyplot" class="plotclip"><rect width="497" height="320"/></clipPath><clipPath class="axesclip" id="clipaa5e63x"><rect x="80" y="0" width="497" height="500"/></clipPath><clipPath class="axesclip" id="clipaa5e63y"><rect x="0" y="100" width="700" height="320"/></clipPath><clipPath class="axesclip" id="clipaa5e63xy"><rect x="80" y="100" width="497" height="320"/></clipPath></g><g class="gradients"/></defs><g class="bglayer"><rect class="bg" x="80" y="100" width="497" height="320" style="fill: rgb(229, 236, 246); fill-opacity: 1; stroke-width: 0;"/></g><g class="layer-below"><g class="imagelayer"/><g class="shapelayer"/></g><g class="cartesianlayer"><g class="subplot xy"><g class="layer-subplot"><g class="shapelayer"/><g class="imagelayer"/></g><g class="gridlayer"><g class="x"><path class="xgrid crisp" transform="translate(157.66,0)" d="M0,100v320" style="stroke: rgb(255, 255, 255); stroke-opacity: 1; stroke-width: 1px;"/><path class="xgrid crisp" transform="translate(235.31,0)" d="M0,100v320" style="stroke: rgb(255, 255, 255); stroke-opacity: 1; stroke-width: 1px;"/><path class="xgrid crisp" transform="translate(312.97,0)" d="M0,100v320" style="stroke: rgb(255, 255, 255); stroke-opacity: 1; stroke-width: 1px;"/><path class="xgrid crisp" transform="translate(390.63,0)" d="M0,100v320" style="stroke: rgb(255, 255, 255); stroke-opacity: 1; stroke-width: 1px;"/><path class="xgrid crisp" transform="translate(468.28,0)" d="M0,100v320" style="stroke: rgb(255, 255, 255); stroke-opacity: 1; stroke-width: 1px;"/><path class="xgrid crisp" transform="translate(545.94,0)" d="M0,100v320" style="stroke: rgb(255, 255, 255); stroke-opacity: 1; stroke-width: 1px;"/></g><g class="y"><path class="ygrid crisp" transform="translate(0,390.73)" d="M80,0h497" style="stroke: rgb(255, 255, 255); stroke-opacity: 1; stroke-width: 1px;"/><path class="ygrid crisp" transform="translate(0,342.56)" d="M80,0h497" style="stroke: rgb(255, 255, 255); stroke-opacity: 1; stroke-width: 1px;"/><path class="ygrid crisp" transform="translate(0,294.38)" d="M80,0h497" style="stroke: rgb(255, 255, 255); stroke-opacity: 1; stroke-width: 1px;"/><path class="ygrid crisp" transform="translate(0,246.21)" d="M80,0h497" style="stroke: rgb(255, 255, 255); stroke-opacity: 1; stroke-width: 1px;"/><path class="ygrid crisp" transform="translate(0,198.04000000000002)" d="M80,0h497" style="stroke: rgb(255, 255, 255); stroke-opacity: 1; stroke-width: 1px;"/><path class="ygrid crisp" transform="translate(0,149.87)" d="M80,0h497" style="stroke: rgb(255, 255, 255); stroke-opacity: 1; stroke-width: 1px;"/><path class="ygrid crisp" transform="translate(0,101.69)" d="M80,0h497" style="stroke: rgb(255, 255, 255); stroke-opacity: 1; stroke-width: 1px;"/></g></g><g class="zerolinelayer"><path class="xzl zl crisp" transform="translate(80,0)" d="M0,100v320" style="stroke: rgb(255, 255, 255); stroke-opacity: 1; stroke-width: 2px;"/></g><path class="xlines-below"/><path class="ylines-below"/><g class="overlines-below"/><g class="xaxislayer-below"/><g class="yaxislayer-below"/><g class="overaxes-below"/><g class="plot" transform="translate(80, 100)" clip-path="url('#clipaa5e63xyplot')"><g class="scatterlayer mlayer"><g class="trace scatter tracec9cc00" style="stroke-miterlimit: 2; opacity: 1;"><g class="fills"/><g class="errorbars"/><g class="lines"><path class="js-line" d="M0,133Q10.96,268.36 16.03,268.3C21.71,268.23 26.89,98 32.06,98.03C37.61,98.06 41.37,293.99 48.1,294.29C52.78,294.5 55.81,202.38 64.13,200.47C68.61,199.44 75.55,212.99 80.16,222.94C87.25,238.24 89.95,285.73 96.19,286.29C101,286.72 106.12,251.81 112.23,250.93C117.09,250.23 122.22,266.51 128.26,269.51C133.15,271.93 139.86,273.94 144.29,270.5C154.49,262.58 154.87,186.81 160.32,186.77C165.57,186.73 168.71,246.49 176.35,264.13C180.89,274.61 187.92,287.98 192.39,286.95C200.85,285.01 201.04,212.52 208.42,188.42C212.98,173.5 219.77,153.17 224.45,153.71C231.17,154.48 235.35,231.14 240.48,231.05C246.09,230.96 250.47,138.24 256.52,137.96C261.41,137.73 266.64,197.22 272.55,197.57C277.5,197.86 281.19,161.28 288.58,157.46C293.14,155.1 300.04,157.39 304.61,161.32C311.95,167.62 315.92,185 320.65,200.64C327.17,222.23 331.32,279.88 336.68,279.89C342.01,279.9 347.33,201.72 352.71,201.71C358.02,201.7 363.56,278.01 368.74,277.94C374.27,277.87 374.51,201.43 384.77,190.33C389.2,185.54 396.38,191.08 400.81,186.07C412.56,172.8 410.17,71.14 416.84,70.66C421.53,70.32 428.14,104.27 432.87,125.92C439.38,155.72 437.57,220.82 448.9,233.68C453.33,238.71 460,235.12 464.94,238.19C470.86,241.86 475.56,250.22 480.97,255.95Q486.25,261.54 497,272.16" style="vector-effect: non-scaling-stroke; fill: none; stroke: rgb(0, 100, 80); stroke-opacity: 1; stroke-width: 2px; opacity: 1;"/></g><g class="points"/><g class="text"/></g><g class="trace scatter trace2a34d9" style="stroke-miterlimit: 2; opacity: 1;"><g class="fills"/><g class="errorbars"/><g class="lines"><path class="js-line" d="M0,66.76Q9.58,214.62 16.03,214.92C20.77,215.14 26.11,136.21 32.06,135.93C36.99,135.7 41.15,176.15 48.1,188.75C52.73,197.15 58.37,206.35 64.13,207.28C69.16,208.09 74.78,197.82 80.16,197.7C85.47,197.59 91.38,207.67 96.19,206.37C102.45,204.68 107.38,179.46 112.23,179.98C118.36,180.64 122.33,212.93 128.26,226.56C133.2,237.9 139.67,257.29 144.29,256.63C151.32,255.62 153.16,180.49 160.32,179.37C164.92,178.65 171.39,197.03 176.35,207.65C182.23,220.24 186.85,250.3 192.39,250.45C197.57,250.59 203.9,230.01 208.42,213.92C216.26,185.97 219.66,94.52 224.45,94.66C230.75,94.84 235.14,302.08 240.48,302.08C245.83,302.08 240.65,104.54 256.52,93.76C261.02,90.7 267.23,98.85 272.55,98.73C277.91,98.61 283.59,91.77 288.58,92.95C294.4,94.32 299.28,109.77 304.61,109.75C309.97,109.73 316.21,91.3 320.65,92.7C330.36,95.76 327.76,201.53 336.68,203.66C341.13,204.72 347.67,180.44 352.71,180.82C358.44,181.25 363.6,201.65 368.74,213.03C374.33,225.41 378.09,250.8 384.77,252.46C389.46,253.62 396.33,247.77 400.81,239C415.44,210.36 411.12,16.06 416.84,16C421.89,15.95 421.26,185.64 432.87,189.18C437.3,190.53 442.94,171.1 448.9,169.55C453.82,168.27 460.51,170.56 464.94,175.94C474.86,187.98 475.19,260.69 480.97,260.87Q485.99,261.03 497,197.67" style="vector-effect: non-scaling-stroke; fill: none; stroke: rgb(0, 176, 246); stroke-opacity: 1; stroke-width: 2px; opacity: 1;"/></g><g class="points"/><g class="text"/></g><g class="trace scatter tracec2a58f" style="stroke-miterlimit: 2; opacity: 1;"><g class="fills"/><g class="errorbars"/><g class="lines"><path class="js-line" d="M0,218.29Q10.93,165.24 16.03,165.38C21.67,165.53 26.82,208.54 32.06,230.87C37.52,254.13 42.92,302.35 48.1,302.28C53.64,302.2 54.24,231.08 64.13,219.97C68.56,214.99 75.6,212.67 80.16,214.86C87.58,218.42 91.45,256.86 96.19,256.45C102.65,255.89 105.74,176.02 112.23,175.44C116.96,175.02 123.33,201.14 128.26,216.34C134.2,234.67 139.21,278.31 144.29,278.18C149.96,278.04 151.97,215.99 160.32,200.35C164.8,191.97 171.9,182.7 176.35,184.09C185.39,186.92 186.74,276.98 192.39,277.09C197.49,277.19 203.3,228.11 208.42,201.81C214.02,173.04 219.71,110.97 224.45,111.16C230.91,111.42 235.43,281.24 240.48,281.19C246.21,281.13 249.24,61.92 256.52,61.51C261.1,61.25 265.39,146.11 272.55,147.11C277.14,147.75 281.77,117.95 288.58,115.04C293.24,113.05 300.1,115.53 304.61,119.97C312.55,127.8 315.32,169.56 320.65,169.55C326.01,169.54 332.03,118.94 336.68,119.33C343.51,119.9 341.65,215.91 352.71,231.73C357.14,238.06 364.27,234.6 368.74,240.33C377.23,251.22 378.97,303.74 384.77,304C389.78,304.22 396.23,277.23 400.81,257.86C408.1,227 411.58,134.89 416.84,134.91C422.27,134.93 427.21,265.72 432.87,265.8C437.96,265.88 441.8,161.48 448.9,160.71C453.51,160.21 459.63,188.46 464.94,202.51C470.32,216.74 474.61,234.27 480.97,245.56Q485.74,254.02 497,265.78" style="vector-effect: non-scaling-stroke; fill: none; stroke: rgb(231, 107, 243); stroke-opacity: 1; stroke-width: 2px; opacity: 1;"/></g><g class="points"/><g class="text"/></g></g></g><g class="overplot"/><path class="xlines-above crisp" d="M0,0" style="fill: none;"/><path class="ylines-above crisp" d="M0,0" style="fill: none;"/><g class="overlines-above"/><g class="xaxislayer-above"><g class="xtick"><text text-anchor="middle" x="0" y="433" transform="translate(80,0)" style="font-family: 'Open Sans', verdana, arial, sans-serif; font-size: 12px; fill: rgb(42, 63, 95); fill-opacity: 1; white-space: pre;">0</text></g><g class="xtick"><text text-anchor="middle" x="0" y="433" transform="translate(157.66,0)" style="font-family: 'Open Sans', verdana, arial, sans-serif; font-size: 12px; fill: rgb(42, 63, 95); fill-opacity: 1; white-space: pre;">5</text></g><g class="xtick"><text text-anchor="middle" x="0" y="433" transform="translate(235.31,0)" style="font-family: 'Open Sans', verdana, arial, sans-serif; font-size: 12px; fill: rgb(42, 63, 95); fill-opacity: 1; white-space: pre;">10</text></g><g class="xtick"><text text-anchor="middle" x="0" y="433" transform="translate(312.97,0)" style="font-family: 'Open Sans', verdana, arial, sans-serif; font-size: 12px; fill: rgb(42, 63, 95); fill-opacity: 1; white-space: pre;">15</text></g><g class="xtick"><text text-anchor="middle" x="0" y="433" transform="translate(390.63,0)" style="font-family: 'Open Sans', verdana, arial, sans-serif; font-size: 12px; fill: rgb(42, 63, 95); fill-opacity: 1; white-space: pre;">20</text></g><g class="xtick"><text text-anchor="middle" x="0" y="433" transform="translate(468.28,0)" style="font-family: 'Open Sans', verdana, arial, sans-serif; font-size: 12px; fill: rgb(42, 63, 95); fill-opacity: 1; white-space: pre;">25</text></g><g class="xtick"><text text-anchor="middle" x="0" y="433" transform="translate(545.94,0)" style="font-family: 'Open Sans', verdana, arial, sans-serif; font-size: 12px; fill: rgb(42, 63, 95); fill-opacity: 1; white-space: pre;">30</text></g></g><g class="yaxislayer-above"><g class="ytick"><text text-anchor="end" x="79" y="4.199999999999999" transform="translate(0,390.73)" style="font-family: 'Open Sans', verdana, arial, sans-serif; font-size: 12px; fill: rgb(42, 63, 95); fill-opacity: 1; white-space: pre;">200</text></g><g class="ytick"><text text-anchor="end" x="79" y="4.199999999999999" transform="translate(0,342.56)" style="font-family: 'Open Sans', verdana, arial, sans-serif; font-size: 12px; fill: rgb(42, 63, 95); fill-opacity: 1; white-space: pre;">400</text></g><g class="ytick"><text text-anchor="end" x="79" y="4.199999999999999" transform="translate(0,294.38)" style="font-family: 'Open Sans', verdana, arial, sans-serif; font-size: 12px; fill: rgb(42, 63, 95); fill-opacity: 1; white-space: pre;">600</text></g><g class="ytick"><text text-anchor="end" x="79" y="4.199999999999999" transform="translate(0,246.21)" style="font-family: 'Open Sans', verdana, arial, sans-serif; font-size: 12px; fill: rgb(42, 63, 95); fill-opacity: 1; white-space: pre;">800</text></g><g class="ytick"><text text-anchor="end" x="79" y="4.199999999999999" transform="translate(0,198.04000000000002)" style="font-family: 'Open Sans', verdana, arial, sans-serif; font-size: 12px; fill: rgb(42, 63, 95); fill-opacity: 1; white-space: pre;">1000</text></g><g class="ytick"><text text-anchor="end" x="79" y="4.199999999999999" transform="translate(0,149.87)" style="font-family: 'Open Sans', verdana, arial, sans-serif; font-size: 12px; fill: rgb(42, 63, 95); fill-opacity: 1; white-space: pre;">1200</text></g><g class="ytick"><text text-anchor="end" x="79" y="4.199999999999999" transform="translate(0,101.69)" style="font-family: 'Open Sans', verdana, arial, sans-serif; font-size: 12px; fill: rgb(42, 63, 95); fill-opacity: 1; white-space: pre;">1400</text></g></g><g class="overaxes-above"/></g></g><g class="polarlayer"/><g class="ternarylayer"/><g class="geolayer"/><g class="funnelarealayer"/><g class="pielayer"/><g class="treemaplayer"/><g class="sunburstlayer"/><g class="glimages"/><defs id="topdefs-aa5e63"><g class="clips"/><clipPath id="legendaa5e63"><rect width="101" height="67" x="0" y="0"/></clipPath></defs><g class="layer-above"><g class="imagelayer"/><g class="shapelayer"/></g><g class="infolayer"><g class="legend" pointer-events="all" transform="translate(586.94, 100)"><rect class="bg" shape-rendering="crispEdges" width="101" height="67" x="0" y="0" style="stroke: rgb(68, 68, 68); stroke-opacity: 1; fill: rgb(255, 255, 255); fill-opacity: 1; stroke-width: 0px;"/><g class="scrollbox" transform="translate(0, 0)" clip-path="url('#legendaa5e63')"><g class="groups"><g class="traces" transform="translate(0, 14.5)" style="opacity: 1;"><text class="legendtext" text-anchor="start" x="40" y="4.680000000000001" style="font-family: 'Open Sans', verdana, arial, sans-serif; font-size: 12px; fill: rgb(42, 63, 95); fill-opacity: 1; white-space: pre;">PBD-CHR</text><g class="layers" style="opacity: 1;"><g class="legendfill"/><g class="legendlines"><path class="js-line" d="M5,0h30" style="fill: none; stroke: rgb(0, 100, 80); stroke-opacity: 1; stroke-width: 2px;"/></g><g class="legendsymbols"><g class="legendpoints"/></g></g><rect class="legendtoggle" x="0" y="-9.5" width="95.015625" height="19" style="fill: rgb(0, 0, 0); fill-opacity: 0;"/></g><g class="traces" transform="translate(0, 33.5)" style="opacity: 1;"><text class="legendtext" text-anchor="start" x="40" y="4.680000000000001" style="font-family: 'Open Sans', verdana, arial, sans-serif; font-size: 12px; fill: rgb(42, 63, 95); fill-opacity: 1; white-space: pre;">CHR-full</text><g class="layers" style="opacity: 1;"><g class="legendfill"/><g class="legendlines"><path class="js-line" d="M5,0h30" style="fill: none; stroke: rgb(0, 176, 246); stroke-opacity: 1; stroke-width: 2px;"/></g><g class="legendsymbols"><g class="legendpoints"/></g></g><rect class="legendtoggle" x="0" y="-9.5" width="95.015625" height="19" style="fill: rgb(0, 0, 0); fill-opacity: 0;"/></g><g class="traces" transform="translate(0, 52.5)" style="opacity: 1;"><text class="legendtext" text-anchor="start" x="40" y="4.680000000000001" style="font-family: 'Open Sans', verdana, arial, sans-serif; font-size: 12px; fill: rgb(42, 63, 95); fill-opacity: 1; white-space: pre;">CHR-LPB</text><g class="layers" style="opacity: 1;"><g class="legendfill"/><g class="legendlines"><path class="js-line" d="M5,0h30" style="fill: none; stroke: rgb(231, 107, 243); stroke-opacity: 1; stroke-width: 2px;"/></g><g class="legendsymbols"><g class="legendpoints"/></g></g><rect class="legendtoggle" x="0" y="-9.5" width="95.015625" height="19" style="fill: rgb(0, 0, 0); fill-opacity: 0;"/></g></g></g><rect class="scrollbar" rx="20" ry="3" width="0" height="0" x="0" y="0" style="fill: rgb(128, 139, 164); fill-opacity: 1;"/></g><g class="g-gtitle"><text class="gtitle" x="35" y="50" text-anchor="start" dy="0em" style="font-family: 'Open Sans', verdana, arial, sans-serif; font-size: 17px; fill: rgb(42, 63, 95); opacity: 1; font-weight: normal; white-space: pre;">Comparison domains curves for : volume_group</text></g><g class="g-xtitle"><text class="xtitle" x="328.5" y="460.8" text-anchor="middle" style="font-family: 'Open Sans', verdana, arial, sans-serif; font-size: 14px; fill: rgb(42, 63, 95); opacity: 1; font-weight: normal; white-space: pre;">Domain</text></g><g class="g-ytitle"><text class="ytitle" transform="rotate(-90,27.496875000000003,260)" x="27.496875000000003" y="260" text-anchor="middle" style="font-family: 'Open Sans', verdana, arial, sans-serif; font-size: 14px; fill: rgb(42, 63, 95); opacity: 1; font-weight: normal; white-space: pre;">Frequency</text></g></g></svg>