<svg class="main-svg" xmlns="http://www.w3.org/2000/svg" xmlns:xlink="http://www.w3.org/1999/xlink" width="700" height="500" style="" viewBox="0 0 700 500"><rect x="0" y="0" width="700" height="500" style="fill: rgb(255, 255, 255); fill-opacity: 1;"/><defs id="defs-808d48"><g class="clips"><clipPath id="clip808d48xyplot" class="plotclip"><rect width="462" height="320"/></clipPath><clipPath class="axesclip" id="clip808d48x"><rect x="80" y="0" width="462" height="500"/></clipPath><clipPath class="axesclip" id="clip808d48y"><rect x="0" y="100" width="700" height="320"/></clipPath><clipPath class="axesclip" id="clip808d48xy"><rect x="80" y="100" width="462" height="320"/></clipPath></g><g class="gradients"/></defs><g class="bglayer"><rect class="bg" x="80" y="100" width="462" height="320" style="fill: rgb(229, 236, 246); fill-opacity: 1; stroke-width: 0;"/></g><g class="layer-below"><g class="imagelayer"/><g class="shapelayer"/></g><g class="cartesianlayer"><g class="subplot xy"><g class="layer-subplot"><g class="shapelayer"/><g class="imagelayer"/></g><g class="gridlayer"><g class="x"><path class="xgrid crisp" transform="translate(170.23000000000002,0)" d="M0,100v320" style="stroke: rgb(255, 255, 255); stroke-opacity: 1; stroke-width: 1px;"/><path class="xgrid crisp" transform="translate(260.47,0)" d="M0,100v320" style="stroke: rgb(255, 255, 255); stroke-opacity: 1; stroke-width: 1px;"/><path class="xgrid crisp" transform="translate(350.7,0)" d="M0,100v320" style="stroke: rgb(255, 255, 255); stroke-opacity: 1; stroke-width: 1px;"/><path class="xgrid crisp" transform="translate(440.94,0)" d="M0,100v320" style="stroke: rgb(255, 255, 255); stroke-opacity: 1; stroke-width: 1px;"/><path class="xgrid crisp" transform="translate(531.1700000000001,0)" d="M0,100v320" style="stroke: rgb(255, 255, 255); stroke-opacity: 1; stroke-width: 1px;"/></g><g class="y"><path class="ygrid crisp" transform="translate(0,402.08)" d="M80,0h462" style="stroke: rgb(255, 255, 255); stroke-opacity: 1; stroke-width: 1px;"/><path class="ygrid crisp" transform="translate(0,363.33)" d="M80,0h462" style="stroke: rgb(255, 255, 255); stroke-opacity: 1; stroke-width: 1px;"/><path class="ygrid crisp" transform="translate(0,324.59000000000003)" d="M80,0h462" style="stroke: rgb(255, 255, 255); stroke-opacity: 1; stroke-width: 1px;"/><path class="ygrid crisp" transform="translate(0,285.85)" d="M80,0h462" style="stroke: rgb(255, 255, 255); stroke-opacity: 1; stroke-width: 1px;"/><path class="ygrid crisp" transform="translate(0,247.11)" d="M80,0h462" style="stroke: rgb(255, 255, 255); stroke-opacity: 1; stroke-width: 1px;"/><path class="ygrid crisp" transform="translate(0,208.36)" d="M80,0h462" style="stroke: rgb(255, 255, 255); stroke-opacity: 1; stroke-width: 1px;"/><path class="ygrid crisp" transform="translate(0,169.62)" d="M80,0h462" style="stroke: rgb(255, 255, 255); stroke-opacity: 1; stroke-width: 1px;"/><path class="ygrid crisp" transform="translate(0,130.88)" d="M80,0h462" style="stroke: rgb(255, 255, 255); stroke-opacity: 1; stroke-width: 1px;"/></g></g><g class="zerolinelayer"><path class="xzl zl crisp" transform="translate(80,0)" d="M0,100v320" style="stroke: rgb(255, 255, 255); stroke-opacity: 1; stroke-width: 2px;"/></g><path class="xlines-below"/><path class="ylines-below"/><g class="overlines-below"/><g class="xaxislayer-below"/><g class="yaxislayer-below"/><g class="overaxes-below"/><g class="plot" transform="translate(80, 100)" clip-path="url('#clip808d48xyplot')"><g class="scatterlayer mlayer"><g class="trace scatter tracee8dbdb" style="stroke-miterlimit: 2; opacity: 1;"><g class="fills"/><g class="errorbars"/><g class="lines"><path class="js-line" d="M0,16Q0.6,15.99 0.9,16.03C1.21,16.07 1.52,16.13 1.81,16.27C2.13,16.42 2.43,16.67 2.71,16.95C3.04,17.28 3.34,17.71 3.62,18.18C3.95,18.73 4.24,19.38 4.52,20.06C4.84,20.84 5.13,21.71 5.42,22.63C5.74,23.66 6.04,24.78 6.33,25.94C6.65,27.22 6.94,28.58 7.23,29.99C7.55,31.52 7.85,33.14 8.14,34.81C8.45,36.6 8.75,38.46 9.04,40.37C9.35,42.4 9.66,44.5 9.95,46.65C10.26,48.91 10.56,51.25 10.85,53.62C11.16,56.1 11.45,58.64 11.75,61.21C12.06,63.88 12.36,66.6 12.66,69.35C12.97,72.18 13.26,75.06 13.56,77.96C13.86,80.92 14.17,83.91 14.47,86.93C14.77,90 15.07,93.09 15.37,96.21C15.67,99.38 15.97,102.57 16.27,105.78C16.57,109.04 16.88,112.32 17.18,115.62C17.48,118.96 17.78,122.33 18.08,125.72C18.38,129.15 18.69,132.6 18.99,136.07C19.29,139.57 19.59,143.1 19.89,146.63C20.19,150.19 20.49,153.77 20.79,157.35C21.09,160.94 21.4,164.55 21.7,168.15C22,171.76 22.3,175.38 22.6,178.98C22.9,182.58 23.21,186.17 23.51,189.75C23.81,193.3 24.11,196.85 24.41,200.36C24.71,203.83 25.02,207.3 25.32,210.71C25.62,214.05 25.91,217.38 26.22,220.63C26.52,223.77 26.81,226.89 27.12,229.9C27.41,232.76 27.72,235.56 28.03,238.25C28.32,240.76 28.61,243.22 28.93,245.53C29.22,247.63 29.51,249.68 29.84,251.54C30.12,253.15 30.41,254.68 30.74,256.05C31.02,257.23 31.32,258.29 31.64,259.3C31.93,260.2 32.23,261.05 32.55,261.82C32.84,262.51 33.12,263.16 33.45,263.72C33.73,264.21 34.04,264.63 34.36,265.02C34.65,265.38 34.95,265.7 35.26,266C35.55,266.28 35.85,266.52 36.16,266.75C36.46,266.97 36.76,267.17 37.07,267.35C37.37,267.52 37.66,267.71 37.97,267.81C38.27,267.91 38.58,267.96 38.88,267.95C39.18,267.94 39.48,267.84 39.78,267.74C40.08,267.64 40.38,267.49 40.68,267.34C40.99,267.19 41.29,267.01 41.59,266.83C41.89,266.65 42.19,266.46 42.49,266.27C42.79,266.07 43.1,265.87 43.4,265.66C43.7,265.45 44,265.24 44.3,265.03C44.6,264.82 44.91,264.59 45.21,264.38C45.51,264.17 45.81,263.95 46.11,263.75C46.41,263.55 46.71,263.35 47.01,263.16C47.31,262.97 47.62,262.8 47.92,262.63C48.22,262.46 48.52,262.31 48.82,262.15C49.12,262 49.43,261.86 49.73,261.7C50.03,261.54 50.33,261.38 50.63,261.2C50.93,261.02 51.24,260.83 51.53,260.61C51.84,260.38 52.15,260.14 52.44,259.84C52.76,259.51 53.06,259.14 53.34,258.72C53.66,258.24 53.96,257.68 54.25,257.09C54.57,256.42 54.86,255.65 55.15,254.91C55.46,254.14 55.75,253.32 56.05,252.53C56.35,251.75 56.65,250.97 56.96,250.21C57.26,249.48 57.55,248.74 57.86,248.05C58.15,247.39 58.46,246.75 58.77,246.14C59.06,245.57 59.36,245.01 59.67,244.49C59.96,244 60.27,243.54 60.58,243.11C60.87,242.7 61.17,242.31 61.48,241.96C61.77,241.64 62.06,241.33 62.38,241.09C62.67,240.87 62.98,240.67 63.29,240.54C63.58,240.42 63.89,240.35 64.19,240.32C64.49,240.29 64.8,240.32 65.1,240.37C65.4,240.42 65.7,240.54 66,240.65C66.3,240.76 66.6,240.91 66.9,241.04C67.2,241.18 67.51,241.32 67.81,241.46C68.11,241.59 68.41,241.72 68.71,241.85C69.01,241.98 69.31,242.17 69.62,242.24C69.91,242.3 70.22,242.24 70.52,242.25C70.82,242.26 71.12,242.25 71.42,242.28C71.72,242.31 72.03,242.36 72.33,242.43C72.63,242.5 72.93,242.59 73.23,242.7C73.54,242.81 73.84,242.95 74.14,243.11C74.45,243.27 74.74,243.47 75.04,243.67C75.35,243.88 75.65,244.11 75.95,244.33C76.25,244.55 76.55,244.79 76.85,245.01C77.15,245.22 77.44,245.44 77.75,245.63C78.05,245.81 78.35,245.98 78.66,246.12C78.96,246.25 79.26,246.36 79.56,246.44C79.86,246.52 80.17,246.58 80.47,246.58C80.77,246.58 81.09,246.55 81.37,246.42C81.69,246.27 81.98,245.93 82.27,245.65C82.58,245.35 82.88,245 83.18,244.65C83.49,244.29 83.78,243.92 84.08,243.54C84.38,243.15 84.69,242.75 84.99,242.36C85.29,241.97 85.59,241.57 85.89,241.19C86.19,240.81 86.48,240.43 86.79,240.07C87.09,239.72 87.39,239.37 87.7,239.05C87.99,238.74 88.29,238.45 88.6,238.19C88.89,237.95 89.2,237.72 89.51,237.54C89.8,237.36 90.12,237.27 90.41,237.1C90.72,236.92 91.03,236.7 91.32,236.47C91.63,236.22 91.91,235.88 92.22,235.65C92.51,235.44 92.81,235.23 93.12,235.12C93.41,235.02 93.73,234.96 94.03,234.98C94.33,235 94.64,235.12 94.93,235.27C95.25,235.44 95.55,235.69 95.84,235.98C96.16,236.31 96.45,236.72 96.74,237.15C97.06,237.63 97.35,238.19 97.64,238.76C97.96,239.39 98.26,240.08 98.55,240.79C98.86,241.56 99.16,242.39 99.45,243.23C99.76,244.13 100.07,245.07 100.36,246.03C100.67,247.04 100.96,248.09 101.26,249.14C101.56,250.23 101.86,251.35 102.16,252.46C102.46,253.59 102.77,254.74 103.07,255.86C103.37,256.96 103.66,258.06 103.97,259.11C104.26,260.1 104.56,261.07 104.88,261.97C105.17,262.79 105.45,263.62 105.78,264.3C106.06,264.87 106.34,265.44 106.68,265.82C106.96,266.13 107.27,266.35 107.59,266.51C107.88,266.66 108.19,266.75 108.49,266.78C108.79,266.81 109.1,266.78 109.4,266.7C109.71,266.62 110,266.44 110.3,266.28C110.61,266.11 110.91,265.91 111.21,265.69C111.52,265.47 111.82,265.23 112.11,264.96C112.42,264.68 112.72,264.39 113.01,264.04C113.33,263.64 113.64,263.19 113.92,262.67C114.25,262.07 114.52,261.32 114.82,260.62C115.13,259.89 115.43,259.12 115.73,258.37C116.03,257.62 116.33,256.86 116.63,256.12C116.93,255.4 117.22,254.68 117.53,253.99C117.83,253.32 118.13,252.67 118.44,252.04C118.74,251.44 119.03,250.85 119.34,250.29C119.63,249.76 119.94,249.26 120.25,248.78C120.54,248.33 120.84,247.9 121.15,247.5C121.44,247.13 121.74,246.78 122.05,246.46C122.34,246.15 122.65,245.88 122.96,245.61C123.26,245.35 123.56,245.12 123.86,244.86C124.17,244.59 124.47,244.32 124.77,244.03C125.08,243.73 125.37,243.38 125.67,243.06C125.97,242.74 126.27,242.42 126.58,242.12C126.88,241.82 127.18,241.54 127.48,241.26C127.78,240.99 128.08,240.74 128.38,240.47C128.68,240.2 129,239.98 129.29,239.66C129.61,239.31 129.88,238.82 130.19,238.43C130.49,238.06 130.78,237.68 131.1,237.37C131.39,237.08 131.69,236.81 132,236.6C132.29,236.4 132.59,236.23 132.9,236.12C133.19,236.01 133.51,235.95 133.81,235.94C134.11,235.93 134.41,235.97 134.71,236.05C135.02,236.13 135.33,236.27 135.62,236.43C135.93,236.6 136.23,236.82 136.52,237.06C136.83,237.31 137.13,237.6 137.42,237.91C137.73,238.23 138.03,238.59 138.33,238.95C138.64,239.33 138.93,239.73 139.23,240.13C139.53,240.54 139.83,240.97 140.14,241.37C140.44,241.77 140.73,242.18 141.04,242.53C141.33,242.85 141.63,243.2 141.95,243.41C142.23,243.59 142.55,243.74 142.85,243.77C143.15,243.8 143.45,243.7 143.75,243.63C144.06,243.56 144.36,243.43 144.66,243.33C144.96,243.24 145.26,243.13 145.56,243.06C145.86,242.99 146.17,242.93 146.47,242.9C146.77,242.87 147.07,242.87 147.37,242.88C147.67,242.89 147.97,242.97 148.27,242.95C148.57,242.93 148.88,242.82 149.18,242.73C149.48,242.64 149.78,242.52 150.08,242.42C150.38,242.33 150.69,242.28 150.99,242.16C151.3,242.03 151.6,241.86 151.89,241.65C152.2,241.42 152.49,241.09 152.79,240.81C153.09,240.52 153.39,240.21 153.7,239.93C154,239.65 154.3,239.39 154.6,239.13C154.9,238.87 155.21,238.63 155.51,238.36C155.82,238.08 156.12,237.79 156.41,237.45C156.73,237.08 157.04,236.68 157.32,236.22C157.65,235.69 157.93,235.06 158.22,234.42C158.53,233.73 158.82,232.97 159.12,232.23C159.42,231.48 159.73,230.73 160.03,229.97C160.33,229.21 160.63,228.44 160.93,227.69C161.23,226.95 161.53,226.19 161.84,225.48C162.13,224.81 162.43,224.15 162.74,223.54C163.03,222.98 163.32,222.43 163.64,221.94C163.93,221.49 164.23,221.06 164.55,220.69C164.84,220.36 165.13,220.05 165.45,219.81C165.74,219.59 166.05,219.41 166.36,219.3C166.65,219.2 166.96,219.14 167.26,219.15C167.56,219.16 167.87,219.24 168.16,219.34C168.47,219.45 168.77,219.63 169.07,219.79C169.37,219.95 169.66,220.23 169.97,220.31C170.26,220.38 170.6,220.41 170.88,220.27C171.22,220.1 171.51,219.61 171.78,219.17C172.12,218.63 172.39,217.92 172.68,217.22C173,216.44 173.3,215.57 173.59,214.71C173.9,213.8 174.19,212.84 174.49,211.88C174.8,210.89 175.1,209.87 175.4,208.84C175.7,207.8 176,206.73 176.3,205.67C176.6,204.6 176.91,203.51 177.21,202.43C177.51,201.35 177.81,200.26 178.11,199.19C178.41,198.12 178.71,197.06 179.01,196.01C179.31,194.97 179.62,193.94 179.92,192.92C180.22,191.92 180.51,190.93 180.82,189.96C181.12,189.02 181.42,188.09 181.73,187.19C182.02,186.34 182.32,185.5 182.63,184.71C182.92,183.97 183.22,183.26 183.53,182.59C183.82,181.98 184.12,181.38 184.44,180.85C184.73,180.37 185.02,179.92 185.34,179.53C185.63,179.18 185.93,178.87 186.25,178.62C186.54,178.39 186.84,178.2 187.15,178.07C187.44,177.95 187.75,177.87 188.05,177.84C188.35,177.81 188.66,177.84 188.96,177.9C189.27,177.97 189.57,178.08 189.86,178.24C190.17,178.41 190.48,178.64 190.77,178.9C191.09,179.18 191.38,179.53 191.67,179.9C191.99,180.3 192.29,180.74 192.58,181.21C192.89,181.71 193.19,182.26 193.48,182.82C193.79,183.42 194.09,184.05 194.38,184.7C194.69,185.39 195,186.12 195.29,186.87C195.6,187.66 195.9,188.49 196.19,189.33C196.5,190.21 196.8,191.13 197.1,192.06C197.41,193.03 197.7,194.03 198,195.05C198.31,196.1 198.6,197.19 198.9,198.26C199.2,199.33 199.51,200.39 199.81,201.47C200.11,202.55 200.41,203.64 200.71,204.74C201.01,205.86 201.32,207 201.62,208.14C201.92,209.3 202.22,210.48 202.52,211.67C202.82,212.87 203.12,214.08 203.42,215.3C203.72,216.52 204.03,217.76 204.33,218.99C204.63,220.23 204.93,221.47 205.23,222.71C205.53,223.96 205.84,225.21 206.14,226.47C206.44,227.74 206.74,229.02 207.04,230.31C207.34,231.61 207.65,232.93 207.95,234.25C208.25,235.59 208.55,236.95 208.85,238.32C209.15,239.71 209.45,241.12 209.75,242.51C210.05,243.89 210.34,245.33 210.66,246.65C210.95,247.86 211.26,248.96 211.56,250.13C211.86,251.32 212.17,252.53 212.47,253.74C212.77,254.97 213.07,256.22 213.37,257.46C213.67,258.71 213.97,259.97 214.27,261.22C214.57,262.46 214.88,263.71 215.18,264.94C215.48,266.15 215.78,267.36 216.08,268.55C216.38,269.72 216.68,270.9 216.99,272.04C217.29,273.15 217.58,274.27 217.89,275.3C218.18,276.25 218.39,277.41 218.79,278C219.05,278.38 219.42,278.79 219.7,278.75C220.03,278.71 220.33,278.02 220.6,277.49C220.97,276.74 221.23,275.63 221.51,274.57C221.84,273.32 222.12,271.87 222.41,270.43C222.72,268.88 223.02,267.23 223.32,265.59C223.63,263.88 223.92,262.12 224.22,260.37C224.52,258.59 224.82,256.78 225.12,254.98C225.42,253.18 225.73,251.36 226.03,249.56C226.33,247.77 226.63,245.97 226.93,244.2C227.23,242.45 227.54,240.7 227.84,238.98C228.14,237.29 228.44,235.61 228.74,233.96C229.04,232.35 229.33,230.77 229.64,229.21C229.94,227.7 230.24,226.21 230.55,224.75C230.85,223.35 231.14,221.98 231.45,220.64C231.75,219.36 232.05,218.1 232.36,216.89C232.65,215.74 232.95,214.62 233.26,213.55C233.55,212.54 233.85,211.55 234.16,210.62C234.45,209.76 234.75,208.93 235.07,208.15C235.36,207.44 235.65,206.75 235.97,206.13C236.26,205.57 236.56,205.04 236.88,204.59C237.16,204.19 237.46,203.81 237.78,203.53C238.06,203.29 238.37,203.07 238.68,202.97C238.97,202.87 239.29,202.85 239.59,202.9C239.9,202.96 240.21,203.12 240.49,203.32C240.81,203.55 241.11,203.88 241.4,204.24C241.72,204.64 242.01,205.13 242.3,205.64C242.62,206.21 242.92,206.86 243.21,207.53C243.53,208.26 243.82,209.05 244.11,209.87C244.42,210.75 244.72,211.69 245.01,212.65C245.32,213.67 245.63,214.74 245.92,215.84C246.23,216.99 246.52,218.19 246.82,219.41C247.13,220.68 247.43,221.99 247.73,223.32C248.04,224.7 248.33,226.11 248.63,227.53C248.93,228.99 249.23,230.48 249.53,231.98C249.83,233.51 250.14,235.07 250.44,236.63C250.74,238.21 251.04,239.81 251.34,241.41C251.64,243.02 251.95,244.63 252.25,246.24C252.55,247.85 252.85,249.47 253.15,251.06C253.45,252.63 253.74,254.2 254.05,255.73C254.35,257.21 254.65,258.68 254.96,260.09C255.25,261.42 255.54,262.72 255.86,263.94C256.15,265.05 256.45,266.12 256.77,267.09C257.05,267.95 257.35,268.75 257.67,269.48C257.96,270.12 258.25,270.74 258.58,271.25C258.86,271.69 259.15,272.1 259.48,272.4C259.76,272.66 260.06,272.88 260.38,273C260.67,273.11 260.99,273.14 261.29,273.12C261.59,273.1 261.9,272.99 262.19,272.86C262.5,272.72 262.81,272.52 263.1,272.31C263.41,272.09 263.71,271.82 264,271.54C264.31,271.25 264.6,270.92 264.9,270.59C265.21,270.25 265.51,269.89 265.81,269.53C266.11,269.17 266.41,268.8 266.71,268.42C267.02,268.03 267.34,267.67 267.62,267.21C267.95,266.68 268.23,266.05 268.52,265.41C268.83,264.71 269.12,263.93 269.42,263.19C269.72,262.44 270.02,261.67 270.33,260.93C270.63,260.22 270.92,259.5 271.23,258.83C271.52,258.19 271.83,257.57 272.14,256.99C272.43,256.46 272.72,255.94 273.04,255.49C273.33,255.08 273.63,254.68 273.95,254.36C274.24,254.07 274.53,253.8 274.85,253.61C275.14,253.44 275.44,253.32 275.75,253.26C276.05,253.21 276.36,253.21 276.66,253.27C276.97,253.33 277.26,253.47 277.56,253.61C277.87,253.76 278.17,253.95 278.47,254.13C278.77,254.31 279.07,254.51 279.37,254.7C279.67,254.89 279.96,255.09 280.27,255.25C280.57,255.41 280.87,255.54 281.18,255.66C281.48,255.78 281.78,255.84 282.08,255.97C282.39,256.1 282.69,256.27 282.99,256.45C283.3,256.64 283.59,256.85 283.89,257.07C284.19,257.3 284.49,257.54 284.79,257.79C285.1,258.05 285.4,258.32 285.7,258.59C286,258.87 286.3,259.16 286.6,259.45C286.9,259.75 287.21,260.06 287.51,260.36C287.81,260.66 288.11,260.97 288.41,261.27C288.71,261.57 289.01,261.88 289.32,262.16C289.62,262.43 289.91,262.72 290.22,262.92C290.51,263.11 290.81,263.29 291.12,263.35C291.42,263.4 291.73,263.35 292.03,263.27C292.34,263.19 292.63,263.02 292.93,262.88C293.23,262.74 293.54,262.57 293.84,262.42C294.14,262.28 294.44,262.14 294.74,262.01C295.04,261.88 295.34,261.77 295.64,261.66C295.94,261.55 296.25,261.47 296.55,261.37C296.85,261.28 297.15,261.2 297.45,261.09C297.76,260.98 298.07,260.87 298.36,260.7C298.67,260.53 298.97,260.3 299.26,260.06C299.57,259.81 299.87,259.52 300.16,259.21C300.47,258.88 300.78,258.51 301.07,258.12C301.38,257.71 301.68,257.25 301.97,256.79C302.28,256.3 302.58,255.79 302.88,255.26C303.19,254.71 303.48,254.15 303.78,253.57C304.09,252.97 304.38,252.36 304.68,251.73C304.99,251.09 305.29,250.43 305.59,249.76C305.9,249.07 306.19,248.37 306.49,247.66C306.8,246.93 307.1,246.19 307.4,245.44C307.7,244.68 308,243.91 308.3,243.14C308.6,242.36 308.91,241.57 309.21,240.79C309.51,240.02 309.81,239.24 310.11,238.48C310.41,237.73 310.7,236.99 311.01,236.26C311.31,235.55 311.61,234.85 311.92,234.18C312.22,233.54 312.51,232.91 312.82,232.31C313.11,231.74 313.42,231.19 313.73,230.67C314.02,230.19 314.32,229.73 314.63,229.31C314.92,228.93 315.21,228.57 315.53,228.26C315.82,227.98 316.12,227.72 316.44,227.53C316.73,227.36 317.03,227.23 317.34,227.16C317.64,227.09 317.95,227.08 318.25,227.12C318.55,227.16 318.86,227.28 319.15,227.42C319.46,227.57 319.76,227.79 320.05,228.03C320.36,228.28 320.67,228.59 320.96,228.9C321.27,229.23 321.56,229.6 321.86,229.95C322.16,230.31 322.46,230.7 322.77,231.04C323.06,231.36 323.36,231.69 323.67,231.95C323.96,232.2 324.27,232.39 324.58,232.59C324.88,232.79 325.18,232.94 325.48,233.14C325.78,233.34 326.09,233.55 326.38,233.79C326.69,234.04 327,234.32 327.29,234.62C327.6,234.94 327.9,235.3 328.19,235.68C328.5,236.09 328.81,236.53 329.1,237C329.41,237.49 329.71,238.02 330,238.57C330.31,239.15 330.61,239.78 330.9,240.41C331.21,241.08 331.51,241.77 331.81,242.48C332.12,243.21 332.41,243.97 332.71,244.74C333.02,245.53 333.32,246.34 333.62,247.15C333.92,247.97 334.22,248.8 334.52,249.62C334.82,250.43 335.11,251.26 335.42,252.04C335.71,252.78 336.01,253.54 336.33,254.2C336.62,254.79 336.9,255.38 337.23,255.85C337.51,256.24 337.81,256.6 338.14,256.85C338.42,257.07 338.73,257.22 339.04,257.31C339.33,257.4 339.65,257.42 339.95,257.42C340.25,257.42 340.55,257.37 340.85,257.29C341.15,257.21 341.46,257.1 341.75,256.95C342.06,256.79 342.37,256.59 342.66,256.34C342.98,256.06 343.28,255.71 343.56,255.32C343.88,254.87 344.19,254.37 344.47,253.79C344.8,253.11 345.08,252.27 345.37,251.48C345.68,250.67 345.98,249.85 346.27,248.98C346.58,248.05 346.88,247.05 347.18,246.08C347.48,245.12 347.77,244.13 348.08,243.19C348.38,242.28 348.68,241.39 348.99,240.53C349.28,239.71 349.58,238.91 349.89,238.14C350.18,237.41 350.48,236.7 350.79,236.02C351.08,235.38 351.39,234.77 351.7,234.17C351.99,233.6 352.29,233.05 352.6,232.52C352.9,232.01 353.2,231.52 353.51,231.04C353.81,230.58 354.1,230.12 354.41,229.69C354.71,229.27 355.01,228.86 355.32,228.48C355.61,228.11 355.91,227.76 356.22,227.44C356.51,227.14 356.81,226.85 357.12,226.62C357.41,226.4 357.72,226.21 358.03,226.08C358.32,225.96 358.63,225.87 358.93,225.85C359.23,225.83 359.55,225.87 359.84,225.97C360.15,226.07 360.45,226.25 360.74,226.46C361.06,226.69 361.35,227 361.64,227.33C361.96,227.7 362.26,228.13 362.55,228.59C362.87,229.09 363.16,229.65 363.45,230.23C363.76,230.86 364.07,231.53 364.36,232.22C364.67,232.95 364.97,233.73 365.26,234.52C365.57,235.35 365.86,236.21 366.16,237.08C366.47,237.98 366.77,238.9 367.07,239.83C367.38,240.78 367.67,241.75 367.97,242.73C368.28,243.73 368.58,244.75 368.88,245.77C369.18,246.81 369.48,247.87 369.78,248.93C370.08,250.01 370.38,251.09 370.68,252.18C370.98,253.28 371.29,254.38 371.59,255.48C371.89,256.57 372.19,257.68 372.49,258.76C372.79,259.83 373.09,260.9 373.4,261.93C373.69,262.91 373.98,263.9 374.3,264.8C374.59,265.62 374.87,266.48 375.21,267.13C375.48,267.65 375.75,268.28 376.11,268.44C376.38,268.56 376.73,268.46 377.01,268.32C377.34,268.16 377.63,267.77 377.92,267.42C378.24,267.03 378.53,266.55 378.82,266.07C379.13,265.56 379.43,265.01 379.73,264.45C380.04,263.87 380.33,263.25 380.63,262.64C380.93,262.02 381.23,261.38 381.53,260.74C381.83,260.1 382.14,259.45 382.44,258.8C382.74,258.16 383.04,257.51 383.34,256.87C383.64,256.24 383.95,255.61 384.25,254.99C384.55,254.38 384.85,253.78 385.15,253.19C385.45,252.61 385.74,252.03 386.05,251.47C386.35,250.92 386.65,250.38 386.96,249.86C387.26,249.35 387.55,248.85 387.86,248.37C388.16,247.91 388.46,247.45 388.77,247.02C389.07,246.61 389.36,246.2 389.67,245.83C389.96,245.48 390.27,245.15 390.58,244.85C390.87,244.57 391.17,244.3 391.48,244.08C391.77,243.87 392.07,243.68 392.38,243.54C392.67,243.41 392.98,243.31 393.29,243.26C393.59,243.21 393.89,243.19 394.19,243.22C394.49,243.25 394.8,243.32 395.1,243.42C395.41,243.53 395.71,243.69 396,243.86C396.31,244.04 396.61,244.26 396.9,244.5C397.21,244.75 397.51,245.03 397.81,245.32C398.12,245.62 398.41,245.95 398.71,246.28C399.01,246.62 399.32,246.96 399.62,247.31C399.92,247.66 400.22,248.02 400.52,248.37C400.82,248.72 401.12,249.07 401.42,249.4C401.72,249.73 402.02,250.06 402.33,250.36C402.63,250.65 402.92,250.93 403.23,251.19C403.53,251.44 403.83,251.67 404.14,251.87C404.43,252.06 404.73,252.23 405.04,252.35C405.34,252.46 405.65,252.54 405.95,252.58C406.25,252.62 406.55,252.61 406.85,252.57C407.15,252.53 407.45,252.43 407.75,252.31C408.06,252.19 408.36,252.02 408.66,251.84C408.97,251.65 409.27,251.43 409.56,251.19C409.87,250.94 410.17,250.67 410.47,250.38C410.78,250.08 411.07,249.76 411.37,249.43C411.67,249.09 411.97,248.73 412.27,248.37C412.58,247.99 412.88,247.6 413.18,247.21C413.48,246.82 413.78,246.41 414.08,246.01C414.38,245.61 414.69,245.22 414.99,244.83C415.29,244.45 415.58,244.07 415.89,243.72C416.18,243.38 416.48,243.05 416.79,242.76C417.08,242.48 417.39,242.21 417.7,241.99C417.99,241.78 418.29,241.59 418.6,241.46C418.89,241.33 419.2,241.24 419.51,241.2C419.81,241.16 420.11,241.17 420.41,241.23C420.72,241.29 421.03,241.41 421.32,241.56C421.63,241.72 421.93,241.95 422.22,242.2C422.53,242.47 422.83,242.8 423.12,243.14C423.43,243.51 423.73,243.92 424.03,244.34C424.34,244.78 424.63,245.25 424.93,245.71C425.23,246.17 425.53,246.65 425.84,247.09C426.13,247.51 426.42,247.95 426.74,248.28C427.02,248.57 427.34,248.98 427.64,248.98C427.94,248.98 428.29,248.62 428.55,248.27C428.93,247.77 429.16,246.83 429.45,246.05C429.77,245.19 430.06,244.25 430.36,243.32C430.67,242.37 430.96,241.39 431.26,240.42C431.56,239.44 431.86,238.46 432.16,237.47C432.46,236.47 432.77,235.48 433.07,234.46C433.38,233.42 433.67,232.36 433.97,231.3C434.27,230.22 434.58,229.11 434.88,228.02C435.18,226.93 435.48,225.83 435.78,224.74C436.08,223.67 436.37,222.6 436.68,221.55C436.98,220.53 437.28,219.51 437.59,218.52C437.89,217.55 438.18,216.6 438.49,215.67C438.79,214.78 439.09,213.9 439.4,213.05C439.69,212.24 439.99,211.45 440.3,210.69C440.59,209.97 440.9,209.27 441.21,208.61C441.5,207.99 441.8,207.4 442.11,206.84C442.4,206.32 442.69,205.83 443.01,205.38C443.3,204.97 443.6,204.57 443.92,204.24C444.21,203.94 444.51,203.66 444.82,203.44C445.11,203.24 445.42,203.07 445.73,202.96C446.02,202.86 446.33,202.8 446.63,202.8C446.93,202.8 447.24,202.86 447.53,202.96C447.84,203.06 448.15,203.23 448.44,203.42C448.75,203.63 449.05,203.89 449.34,204.17C449.66,204.48 449.96,204.83 450.25,205.21C450.56,205.62 450.86,206.07 451.15,206.54C451.46,207.04 451.76,207.57 452.05,208.13C452.36,208.72 452.66,209.35 452.96,209.99C453.27,210.66 453.56,211.36 453.86,212.07C454.17,212.81 454.47,213.58 454.77,214.35C455.08,215.15 455.37,215.96 455.67,216.78C455.97,217.61 456.28,218.46 456.58,219.3C456.88,220.15 457.18,221 457.48,221.85C457.78,222.69 458.08,223.54 458.38,224.37C458.68,225.19 458.98,226 459.29,226.79C459.59,227.54 459.88,228.3 460.19,228.99C460.48,229.63 460.77,230.27 461.1,230.81Q461.38,231.28 462,232.05" style="vector-effect: non-scaling-stroke; fill: none; stroke: rgb(0, 100, 80); stroke-opacity: 1; stroke-width: 2px; opacity: 1;"/></g><g class="points"/><g class="text"/></g><g class="trace scatter trace8244d3" style="stroke-miterlimit: 2; opacity: 1;"><g class="fills"/><g class="errorbars"/><g class="lines"><path class="js-line" d="M0,193.35Q0.61,193.27 0.9,193.17C1.21,193.06 1.51,192.88 1.81,192.71C2.11,192.54 2.41,192.33 2.71,192.15C3.01,191.96 3.32,191.77 3.62,191.6C3.92,191.43 4.22,191.27 4.52,191.12C4.82,190.97 5.12,190.83 5.42,190.68C5.72,190.53 6.03,190.38 6.33,190.2C6.64,190.01 6.94,189.79 7.23,189.56C7.54,189.31 7.84,189.04 8.14,188.75C8.45,188.46 8.74,188.13 9.04,187.82C9.34,187.5 9.65,187.18 9.95,186.86C10.25,186.54 10.55,186.22 10.85,185.91C11.15,185.61 11.44,185.3 11.75,185.03C12.05,184.77 12.35,184.52 12.66,184.3C12.95,184.09 13.25,183.89 13.56,183.74C13.86,183.6 14.16,183.48 14.47,183.41C14.77,183.35 15.07,183.32 15.37,183.34C15.67,183.36 15.98,183.44 16.27,183.56C16.58,183.69 16.89,183.88 17.18,184.1C17.5,184.34 17.79,184.66 18.08,184.99C18.4,185.36 18.7,185.78 18.99,186.23C19.31,186.72 19.6,187.28 19.89,187.85C20.2,188.48 20.5,189.15 20.79,189.85C21.1,190.61 21.41,191.42 21.7,192.25C22.01,193.14 22.31,194.08 22.6,195.04C22.91,196.07 23.22,197.13 23.51,198.23C23.82,199.38 24.12,200.58 24.41,201.8C24.72,203.08 25.02,204.4 25.32,205.75C25.63,207.15 25.93,208.59 26.22,210.06C26.53,211.58 26.82,213.13 27.12,214.71C27.43,216.34 27.73,218 28.03,219.68C28.34,221.4 28.63,223.15 28.93,224.92C29.24,226.73 29.54,228.56 29.84,230.4C30.14,232.27 30.44,234.17 30.74,236.06C31.04,237.97 31.34,239.9 31.64,241.81C31.94,243.7 32.24,245.62 32.55,247.47C32.85,249.24 33.14,250.98 33.45,252.68C33.75,254.31 34.05,255.88 34.36,257.45C34.66,258.99 34.96,260.5 35.26,262C35.56,263.47 35.85,264.93 36.16,266.35C36.46,267.71 36.76,269.06 37.07,270.35C37.36,271.57 37.66,272.74 37.97,273.89C38.26,274.98 38.57,276.03 38.88,277.07C39.18,278.07 39.47,279.04 39.78,279.99C40.07,280.9 40.37,281.81 40.68,282.67C40.97,283.49 41.28,284.29 41.59,285.05C41.88,285.76 42.17,286.46 42.49,287.09C42.78,287.67 43.07,288.25 43.4,288.72C43.68,289.13 43.96,289.58 44.3,289.8C44.58,289.98 44.91,290.09 45.21,290.07C45.51,290.05 45.84,289.93 46.11,289.7C46.47,289.38 46.73,288.7 47.01,288.12C47.34,287.45 47.61,286.6 47.92,285.87C48.22,285.17 48.51,284.48 48.82,283.82C49.11,283.2 49.42,282.59 49.73,282.02C50.02,281.48 50.33,280.98 50.63,280.46C50.93,279.94 51.24,279.46 51.53,278.91C51.84,278.32 52.14,277.65 52.44,277.02C52.74,276.4 53.03,275.76 53.34,275.18C53.63,274.63 53.94,274.1 54.25,273.61C54.54,273.15 54.84,272.72 55.15,272.33C55.44,271.97 55.74,271.63 56.05,271.33C56.34,271.05 56.65,270.8 56.96,270.58C57.25,270.37 57.55,270.19 57.86,270.02C58.16,269.86 58.46,269.73 58.77,269.6C59.07,269.48 59.37,269.37 59.67,269.27C59.97,269.17 60.28,269.09 60.58,269.01C60.88,268.93 61.18,268.87 61.48,268.8C61.78,268.73 62.08,268.67 62.38,268.58C62.68,268.49 63,268.41 63.29,268.26C63.6,268.1 63.91,267.91 64.19,267.65C64.52,267.35 64.82,266.96 65.1,266.53C65.43,266.03 65.71,265.41 66,264.78C66.32,264.08 66.61,263.28 66.9,262.49C67.21,261.64 67.51,260.74 67.81,259.84C68.12,258.91 68.41,257.94 68.71,256.98C69.01,256 69.32,255.01 69.62,254.02C69.92,253.03 70.22,252.03 70.52,251.04C70.82,250.06 71.12,249.07 71.42,248.11C71.72,247.16 72.02,246.23 72.33,245.31C72.63,244.42 72.92,243.54 73.23,242.68C73.53,241.86 73.83,241.05 74.14,240.27C74.43,239.53 74.73,238.81 75.04,238.12C75.33,237.47 75.64,236.84 75.95,236.24C76.24,235.68 76.54,235.14 76.85,234.64C77.14,234.17 77.44,233.74 77.75,233.33C78.04,232.95 78.35,232.59 78.66,232.27C78.95,231.97 79.25,231.7 79.56,231.47C79.85,231.26 80.16,231.06 80.47,230.93C80.76,230.81 81.07,230.71 81.37,230.69C81.67,230.67 81.98,230.71 82.27,230.8C82.58,230.9 82.89,231.08 83.18,231.29C83.5,231.52 83.79,231.83 84.08,232.16C84.4,232.53 84.69,232.98 84.99,233.4C85.29,233.82 85.59,234.26 85.89,234.68C86.19,235.1 86.5,235.48 86.79,235.92C87.1,236.4 87.41,236.92 87.7,237.47C88.01,238.06 88.31,238.68 88.6,239.33C88.91,240.02 89.21,240.75 89.51,241.49C89.82,242.27 90.11,243.07 90.41,243.89C90.72,244.74 91.02,245.61 91.32,246.49C91.62,247.39 91.92,248.3 92.22,249.21C92.52,250.12 92.82,251.05 93.12,251.95C93.42,252.84 93.72,253.73 94.03,254.58C94.33,255.4 94.62,256.21 94.93,256.98C95.22,257.72 95.53,258.43 95.84,259.12C96.13,259.78 96.43,260.42 96.74,261.04C97.04,261.64 97.33,262.24 97.64,262.81C97.94,263.37 98.24,263.91 98.55,264.44C98.85,264.94 99.14,265.44 99.45,265.9C99.74,266.33 100.04,266.77 100.36,267.1C100.64,267.39 100.94,267.72 101.26,267.82C101.54,267.91 101.88,267.88 102.16,267.74C102.5,267.56 102.8,267.12 103.07,266.68C103.42,266.12 103.69,265.37 103.97,264.61C104.3,263.73 104.59,262.7 104.88,261.69C105.19,260.61 105.48,259.46 105.78,258.32C106.08,257.16 106.38,255.96 106.68,254.78C106.98,253.59 107.29,252.39 107.59,251.2C107.89,250.02 108.19,248.85 108.49,247.69C108.79,246.55 109.09,245.42 109.4,244.32C109.7,243.25 109.99,242.2 110.3,241.18C110.6,240.2 110.9,239.23 111.21,238.31C111.5,237.43 111.8,236.58 112.11,235.77C112.4,235.01 112.7,234.28 113.01,233.59C113.3,232.96 113.6,232.35 113.92,231.8C114.21,231.3 114.5,230.83 114.82,230.42C115.11,230.05 115.41,229.71 115.73,229.45C116.02,229.22 116.32,229.02 116.63,228.91C116.92,228.8 117.23,228.75 117.53,228.76C117.83,228.77 118.15,228.87 118.44,229C118.75,229.14 119.05,229.35 119.34,229.58C119.66,229.83 119.96,230.14 120.25,230.46C120.56,230.8 120.86,231.18 121.15,231.57C121.46,231.98 121.75,232.43 122.05,232.87C122.36,233.33 122.66,233.8 122.96,234.28C123.26,234.77 123.56,235.27 123.86,235.76C124.16,236.25 124.46,236.75 124.77,237.23C125.07,237.7 125.36,238.17 125.67,238.6C125.96,239.01 126.26,239.41 126.58,239.75C126.87,240.06 127.16,240.35 127.48,240.56C127.77,240.75 128.07,240.91 128.38,240.96C128.68,241.01 129,240.99 129.29,240.89C129.61,240.78 129.91,240.54 130.19,240.27C130.52,239.96 130.81,239.52 131.1,239.09C131.42,238.62 131.7,238.08 132,237.56C132.3,237.02 132.6,236.46 132.9,235.91C133.2,235.36 133.51,234.8 133.81,234.25C134.11,233.71 134.4,233.17 134.71,232.64C135.01,232.13 135.31,231.62 135.62,231.13C135.92,230.66 136.21,230.2 136.52,229.76C136.81,229.34 137.11,228.94 137.42,228.57C137.71,228.22 138.02,227.88 138.33,227.58C138.62,227.3 138.92,227.04 139.23,226.82C139.52,226.61 139.83,226.42 140.14,226.29C140.43,226.16 140.74,226.07 141.04,226.03C141.34,225.99 141.65,225.99 141.95,226.03C142.25,226.07 142.56,226.17 142.85,226.3C143.16,226.43 143.46,226.63 143.75,226.83C144.06,227.04 144.36,227.3 144.66,227.56C144.97,227.83 145.25,228.14 145.56,228.41C145.86,228.67 146.16,228.93 146.47,229.13C146.76,229.31 147.07,229.44 147.37,229.57C147.67,229.7 147.97,229.79 148.27,229.93C148.58,230.07 148.89,230.23 149.18,230.42C149.49,230.62 149.79,230.85 150.08,231.12C150.39,231.41 150.7,231.74 150.99,232.1C151.3,232.48 151.6,232.91 151.89,233.36C152.2,233.84 152.5,234.36 152.79,234.9C153.1,235.48 153.41,236.09 153.7,236.72C154.01,237.38 154.3,238.07 154.6,238.77C154.91,239.5 155.21,240.27 155.51,241.04C155.82,241.83 156.11,242.64 156.41,243.46C156.72,244.3 157.02,245.15 157.32,246C157.62,246.85 157.92,247.72 158.22,248.57C158.52,249.41 158.81,250.26 159.12,251.09C159.42,251.9 159.72,252.7 160.03,253.47C160.32,254.19 160.61,254.91 160.93,255.57C161.22,256.17 161.52,256.76 161.84,257.27C162.13,257.72 162.41,258.15 162.74,258.48C163.02,258.76 163.32,259.01 163.64,259.15C163.93,259.28 164.25,259.34 164.55,259.32C164.85,259.3 165.16,259.17 165.45,259.02C165.77,258.85 166.07,258.6 166.36,258.34C166.67,258.06 166.97,257.72 167.26,257.38C167.57,257.03 167.86,256.64 168.16,256.26C168.46,255.88 168.77,255.48 169.07,255.1C169.37,254.72 169.66,254.34 169.97,253.98C170.27,253.63 170.57,253.29 170.88,252.98C171.17,252.68 171.47,252.4 171.78,252.15C172.07,251.92 172.37,251.7 172.68,251.53C172.97,251.37 173.28,251.23 173.59,251.15C173.89,251.07 174.19,251.02 174.49,251.03C174.79,251.04 175.1,251.09 175.4,251.19C175.71,251.29 176.01,251.45 176.3,251.64C176.61,251.84 176.92,252.1 177.21,252.38C177.52,252.68 177.82,253.04 178.11,253.41C178.42,253.81 178.72,254.26 179.01,254.73C179.32,255.23 179.63,255.76 179.92,256.32C180.23,256.91 180.53,257.53 180.82,258.17C181.13,258.84 181.43,259.54 181.73,260.26C182.04,261 182.33,261.77 182.63,262.55C182.93,263.35 183.23,264.18 183.53,265.01C183.83,265.85 184.14,266.71 184.44,267.56C184.74,268.41 185.03,269.28 185.34,270.12C185.64,270.93 185.94,271.75 186.25,272.51C186.54,273.21 186.83,273.91 187.15,274.51C187.43,275.04 187.73,275.53 188.05,275.94C188.33,276.3 188.64,276.61 188.96,276.86C189.25,277.09 189.55,277.34 189.86,277.4C190.15,277.46 190.47,277.34 190.77,277.26C191.08,277.18 191.37,277.05 191.67,276.92C191.97,276.79 192.28,276.64 192.58,276.5C192.88,276.36 193.18,276.21 193.48,276.07C193.78,275.93 194.08,275.78 194.38,275.65C194.68,275.52 194.99,275.4 195.29,275.28C195.59,275.17 195.89,275.06 196.19,274.96C196.49,274.86 196.8,274.78 197.1,274.7C197.4,274.62 197.7,274.56 198,274.5C198.3,274.45 198.6,274.4 198.9,274.37C199.2,274.34 199.51,274.32 199.81,274.32C200.11,274.32 200.41,274.34 200.71,274.39C201.01,274.44 201.32,274.5 201.62,274.6C201.92,274.7 202.23,274.82 202.52,274.97C202.83,275.13 203.12,275.32 203.42,275.53C203.73,275.75 204.03,276 204.33,276.25C204.63,276.51 204.91,276.88 205.23,277.06C205.52,277.22 205.84,277.29 206.14,277.31C206.44,277.33 206.74,277.24 207.04,277.2C207.34,277.15 207.65,277.12 207.95,277.04C208.25,276.96 208.56,276.89 208.85,276.74C209.16,276.58 209.47,276.35 209.75,276.08C210.08,275.76 210.37,275.35 210.66,274.92C210.98,274.43 211.27,273.86 211.56,273.28C211.87,272.66 212.17,271.98 212.47,271.31C212.78,270.61 213.07,269.89 213.37,269.16C213.67,268.42 213.97,267.67 214.27,266.92C214.57,266.16 214.88,265.4 215.18,264.63C215.48,263.86 215.78,263.08 216.08,262.3C216.38,261.52 216.69,260.74 216.99,259.95C217.29,259.16 217.59,258.36 217.89,257.56C218.19,256.76 218.49,255.96 218.79,255.15C219.09,254.33 219.4,253.51 219.7,252.68C220,251.84 220.3,251.01 220.6,250.16C220.9,249.3 221.21,248.44 221.51,247.57C221.81,246.7 222.11,245.82 222.41,244.94C222.71,244.06 223.02,243.17 223.32,242.29C223.62,241.41 223.92,240.53 224.22,239.66C224.52,238.8 224.82,237.93 225.12,237.08C225.42,236.24 225.73,235.41 226.03,234.59C226.33,233.78 226.62,232.98 226.93,232.2C227.23,231.43 227.53,230.67 227.84,229.93C228.14,229.21 228.43,228.5 228.74,227.81C229.03,227.15 229.33,226.49 229.64,225.87C229.93,225.28 230.24,224.69 230.55,224.15C230.84,223.64 231.14,223.14 231.45,222.69C231.74,222.27 232.04,221.86 232.36,221.5C232.65,221.17 232.95,220.86 233.26,220.61C233.55,220.38 233.85,220.17 234.16,220.02C234.45,219.88 234.76,219.78 235.07,219.73C235.37,219.69 235.67,219.69 235.97,219.74C236.28,219.79 236.59,219.89 236.88,220.03C237.19,220.17 237.49,220.37 237.78,220.59C238.09,220.82 238.39,221.1 238.68,221.4C238.99,221.72 239.3,222.07 239.59,222.44C239.9,222.83 240.2,223.26 240.49,223.7C240.8,224.16 241.1,224.65 241.4,225.15C241.71,225.67 242,226.22 242.3,226.78C242.61,227.36 242.91,227.95 243.21,228.56C243.52,229.19 243.81,229.84 244.11,230.49C244.41,231.16 244.71,231.84 245.01,232.53C245.31,233.23 245.62,233.95 245.92,234.67C246.22,235.4 246.52,236.14 246.82,236.88C247.12,237.63 247.43,238.38 247.73,239.14C248.03,239.9 248.33,240.66 248.63,241.42C248.93,242.17 249.23,242.93 249.53,243.67C249.83,244.41 250.13,245.14 250.44,245.86C250.74,246.56 251.03,247.27 251.34,247.94C251.64,248.59 251.94,249.23 252.25,249.83C252.54,250.4 252.84,250.96 253.15,251.46C253.44,251.92 253.73,252.36 254.05,252.74C254.34,253.08 254.64,253.4 254.96,253.65C255.25,253.88 255.55,254.07 255.86,254.2C256.15,254.33 256.46,254.41 256.77,254.45C257.07,254.49 257.37,254.48 257.67,254.44C257.97,254.4 258.28,254.31 258.58,254.21C258.88,254.11 259.18,253.98 259.48,253.84C259.78,253.7 260.08,253.54 260.38,253.39C260.68,253.25 260.99,253.1 261.29,252.97C261.59,252.84 261.89,252.72 262.19,252.62C262.49,252.53 262.8,252.45 263.1,252.4C263.4,252.35 263.7,252.33 264,252.33C264.3,252.33 264.6,252.37 264.9,252.42C265.2,252.47 265.51,252.55 265.81,252.62C266.11,252.69 266.41,252.79 266.71,252.84C267.01,252.89 267.32,252.91 267.62,252.93C267.92,252.95 268.22,252.93 268.52,252.94C268.82,252.95 269.12,252.95 269.42,252.98C269.72,253.01 270.03,253.06 270.33,253.12C270.63,253.18 270.93,253.26 271.23,253.36C271.54,253.46 271.84,253.58 272.14,253.72C272.44,253.86 272.74,254.02 273.04,254.2C273.35,254.38 273.65,254.58 273.95,254.79C274.26,255.01 274.55,255.24 274.85,255.49C275.15,255.75 275.45,256.02 275.75,256.3C276.06,256.59 276.36,256.89 276.66,257.21C276.97,257.53 277.26,257.87 277.56,258.22C277.87,258.57 278.17,258.94 278.47,259.31C278.77,259.69 279.07,260.08 279.37,260.48C279.67,260.89 279.97,261.3 280.27,261.72C280.58,262.15 280.88,262.59 281.18,263.04C281.48,263.49 281.78,263.95 282.08,264.41C282.38,264.88 282.69,265.35 282.99,265.83C283.29,266.31 283.59,266.81 283.89,267.3C284.19,267.79 284.49,268.29 284.79,268.78C285.09,269.27 285.4,269.77 285.7,270.26C286,270.75 286.3,271.24 286.6,271.72C286.9,272.19 287.2,272.66 287.51,273.12C287.81,273.57 288.1,274.01 288.41,274.44C288.71,274.86 289.01,275.27 289.32,275.67C289.62,276.06 289.92,276.44 290.22,276.8C290.52,277.15 290.81,277.5 291.12,277.83C291.42,278.15 291.72,278.47 292.03,278.77C292.33,279.06 292.62,279.33 292.93,279.59C293.23,279.84 293.53,280.07 293.84,280.29C294.14,280.5 294.44,280.7 294.74,280.88C295.04,281.06 295.34,281.22 295.64,281.38C295.94,281.53 296.24,281.68 296.55,281.81C296.85,281.93 297.15,282.04 297.45,282.13C297.75,282.22 298.06,282.29 298.36,282.33C298.66,282.37 298.96,282.39 299.26,282.35C299.56,282.31 299.87,282.23 300.16,282.11C300.47,281.98 300.78,281.8 301.07,281.58C301.39,281.34 301.69,281.05 301.97,280.68C302.31,280.24 302.59,279.63 302.88,279.05C303.2,278.42 303.48,277.71 303.78,277.02C304.08,276.32 304.38,275.59 304.68,274.87C304.98,274.14 305.29,273.41 305.59,272.68C305.89,271.95 306.19,271.21 306.49,270.49C306.79,269.78 307.1,269.07 307.4,268.37C307.7,267.69 307.99,267 308.3,266.34C308.6,265.69 308.9,265.06 309.21,264.44C309.51,263.84 309.8,263.26 310.11,262.7C310.4,262.16 310.7,261.63 311.01,261.13C311.31,260.65 311.61,260.18 311.92,259.75C312.21,259.34 312.51,258.95 312.82,258.59C313.11,258.25 313.42,257.94 313.73,257.66C314.02,257.4 314.32,257.17 314.63,256.98C314.92,256.8 315.22,256.64 315.53,256.54C315.83,256.44 316.14,256.38 316.44,256.37C316.74,256.36 317.04,256.39 317.34,256.46C317.65,256.53 317.96,256.66 318.25,256.81C318.56,256.97 318.86,257.19 319.15,257.43C319.46,257.69 319.76,257.99 320.05,258.31C320.36,258.66 320.67,259.04 320.96,259.45C321.27,259.88 321.57,260.35 321.86,260.83C322.17,261.34 322.47,261.88 322.77,262.44C323.08,263.02 323.37,263.63 323.67,264.25C323.98,264.89 324.28,265.54 324.58,266.21C324.89,266.89 325.18,267.59 325.48,268.29C325.78,269.01 326.08,269.74 326.38,270.49C326.69,271.26 326.99,272.04 327.29,272.83C327.59,273.64 327.89,274.46 328.19,275.29C328.49,276.13 328.8,276.98 329.1,277.84C329.4,278.7 329.7,279.58 330,280.45C330.3,281.32 330.6,282.2 330.9,283.07C331.2,283.94 331.51,284.81 331.81,285.67C332.11,286.52 332.41,287.37 332.71,288.21C333.01,289.03 333.31,289.85 333.62,290.64C333.92,291.4 334.21,292.17 334.52,292.87C334.81,293.52 335.09,294.19 335.42,294.72C335.7,295.17 335.99,295.66 336.33,295.9C336.6,296.09 336.95,296.24 337.23,296.17C337.56,296.09 337.86,295.66 338.14,295.28C338.48,294.81 338.75,294.12 339.04,293.5C339.35,292.83 339.65,292.1 339.95,291.37C340.26,290.61 340.56,289.85 340.85,289.04C341.16,288.18 341.47,287.33 341.75,286.37C342.07,285.28 342.37,284.05 342.66,282.83C342.97,281.55 343.26,280.19 343.56,278.86C343.86,277.53 344.17,276.19 344.47,274.86C344.77,273.54 345.07,272.21 345.37,270.9C345.67,269.61 345.97,268.33 346.27,267.06C346.57,265.82 346.87,264.58 347.18,263.37C347.48,262.19 347.77,261.03 348.08,259.89C348.38,258.79 348.68,257.7 348.99,256.65C349.29,255.64 349.58,254.65 349.89,253.69C350.18,252.78 350.48,251.89 350.79,251.04C351.08,250.24 351.39,249.47 351.7,248.74C351.99,248.07 352.28,247.42 352.6,246.82C352.89,246.27 353.19,245.74 353.51,245.28C353.8,244.87 354.09,244.48 354.41,244.17C354.7,243.89 355,243.64 355.32,243.48C355.61,243.34 355.92,243.25 356.22,243.24C356.52,243.23 356.83,243.31 357.12,243.43C357.44,243.57 357.74,243.8 358.03,244.06C358.35,244.35 358.64,244.72 358.93,245.11C359.25,245.54 359.55,246.04 359.84,246.56C360.16,247.12 360.45,247.74 360.74,248.38C361.05,249.06 361.35,249.78 361.64,250.52C361.95,251.3 362.25,252.11 362.55,252.93C362.86,253.78 363.15,254.65 363.45,255.52C363.75,256.41 364.06,257.32 364.36,258.22C364.66,259.13 364.96,260.05 365.26,260.96C365.56,261.87 365.86,262.78 366.16,263.68C366.46,264.57 366.77,265.46 367.07,266.34C367.37,267.2 367.66,268.05 367.97,268.88C368.27,269.68 368.57,270.48 368.88,271.23C369.17,271.93 369.46,272.64 369.78,273.25C370.06,273.79 370.35,274.33 370.68,274.74C370.96,275.09 371.27,275.38 371.59,275.59C371.88,275.78 372.18,275.9 372.49,275.98C372.79,276.06 373.14,276.23 373.4,276.08C373.82,275.83 374.03,274.74 374.3,273.87C374.66,272.69 374.92,271.07 375.21,269.59C375.52,268 375.81,266.27 376.11,264.61C376.41,262.95 376.71,261.27 377.01,259.61C377.31,257.97 377.62,256.34 377.92,254.73C378.22,253.16 378.51,251.59 378.82,250.06C379.12,248.57 379.42,247.09 379.73,245.65C380.03,244.25 380.32,242.88 380.63,241.54C380.92,240.25 381.22,238.99 381.53,237.77C381.82,236.61 382.13,235.47 382.44,234.38C382.73,233.35 383.03,232.34 383.34,231.39C383.63,230.5 383.93,229.64 384.25,228.83C384.54,228.09 384.83,227.37 385.15,226.71C385.44,226.12 385.73,225.55 386.05,225.06C386.34,224.62 386.64,224.21 386.96,223.88C387.24,223.6 387.54,223.34 387.86,223.18C388.15,223.04 388.47,222.95 388.77,222.95C389.07,222.95 389.38,223.04 389.67,223.18C389.99,223.33 390.29,223.58 390.58,223.86C390.9,224.17 391.19,224.56 391.48,224.97C391.8,225.43 392.09,225.95 392.38,226.49C392.7,227.08 393,227.72 393.29,228.38C393.6,229.08 393.9,229.83 394.19,230.59C394.5,231.39 394.8,232.24 395.1,233.09C395.41,233.98 395.7,234.89 396,235.81C396.3,236.76 396.6,237.73 396.9,238.7C397.2,239.69 397.51,240.69 397.81,241.69C398.11,242.69 398.41,243.7 398.71,244.69C399.01,245.67 399.31,246.65 399.62,247.61C399.92,248.54 400.21,249.47 400.52,250.35C400.81,251.18 401.1,252 401.42,252.76C401.71,253.45 402,254.14 402.33,254.72C402.61,255.23 402.88,255.79 403.23,256.08C403.5,256.31 403.88,256.57 404.14,256.46C404.54,256.29 404.77,255.14 405.04,254.3C405.39,253.2 405.66,251.74 405.95,250.4C406.26,248.97 406.55,247.46 406.85,245.97C407.15,244.46 407.45,242.91 407.75,241.39C408.05,239.87 408.36,238.34 408.66,236.83C408.96,235.35 409.25,233.88 409.56,232.43C409.86,231.02 410.16,229.63 410.47,228.27C410.77,226.96 411.06,225.67 411.37,224.42C411.66,223.22 411.96,222.05 412.27,220.92C412.56,219.86 412.87,218.82 413.18,217.83C413.47,216.91 413.76,216.01 414.08,215.18C414.37,214.42 414.67,213.68 414.99,213.01C415.28,212.41 415.57,211.83 415.89,211.33C416.17,210.89 416.46,210.48 416.79,210.17C417.07,209.9 417.38,209.66 417.7,209.54C417.99,209.43 418.31,209.4 418.6,209.45C418.91,209.51 419.23,209.69 419.51,209.91C419.84,210.16 420.13,210.52 420.41,210.9C420.74,211.34 421.03,211.87 421.32,212.42C421.64,213.04 421.93,213.74 422.22,214.46C422.54,215.25 422.83,216.11 423.12,216.99C423.43,217.94 423.74,218.95 424.03,219.99C424.34,221.09 424.64,222.24 424.93,223.42C425.24,224.66 425.54,225.94 425.84,227.24C426.15,228.6 426.44,229.99 426.74,231.4C427.05,232.86 427.34,234.35 427.64,235.85C427.95,237.38 428.25,238.94 428.55,240.51C428.85,242.1 429.15,243.7 429.45,245.31C429.75,246.93 430.06,248.56 430.36,250.19C430.66,251.82 430.96,253.46 431.26,255.1C431.56,256.73 431.86,258.37 432.16,260C432.46,261.62 432.77,263.25 433.07,264.86C433.37,266.46 433.67,268.06 433.97,269.64C434.27,271.2 434.57,272.77 434.88,274.3C435.18,275.8 435.47,277.29 435.78,278.74C436.07,280.13 436.37,281.52 436.68,282.82C436.97,284.02 437.26,285.23 437.59,286.26C437.87,287.13 438.09,288.13 438.49,288.61C438.75,288.92 439.12,289.21 439.4,289.16C439.73,289.1 440.02,288.41 440.3,287.96C440.63,287.44 440.91,286.78 441.21,286.17C441.52,285.54 441.81,284.88 442.11,284.24C442.41,283.61 442.7,282.98 443.01,282.37C443.31,281.78 443.61,281.2 443.92,280.65C444.21,280.13 444.51,279.63 444.82,279.17C445.11,278.74 445.41,278.33 445.73,277.97C446.02,277.64 446.31,277.33 446.63,277.09C446.92,276.87 447.22,276.68 447.53,276.56C447.82,276.45 448.14,276.38 448.44,276.39C448.74,276.4 449.05,276.48 449.34,276.6C449.65,276.73 449.96,276.94 450.25,277.18C450.57,277.44 450.86,277.78 451.15,278.13C451.47,278.52 451.76,278.96 452.05,279.43C452.37,279.94 452.67,280.49 452.96,281.06C453.27,281.67 453.57,282.32 453.86,282.99C454.17,283.7 454.47,284.44 454.77,285.19C455.08,285.97 455.37,286.78 455.67,287.6C455.98,288.44 456.28,289.3 456.58,290.17C456.88,291.05 457.18,291.95 457.48,292.84C457.78,293.73 458.08,294.64 458.38,295.53C458.68,296.4 458.98,297.28 459.29,298.12C459.59,298.93 459.88,299.75 460.19,300.51C460.48,301.22 460.78,301.93 461.1,302.54Q461.38,303.08 462,304" style="vector-effect: non-scaling-stroke; fill: none; stroke: rgb(0, 176, 246); stroke-opacity: 1; stroke-width: 2px; opacity: 1;"/></g><g class="points"/><g class="text"/></g><g class="trace scatter trace4cb2e0" style="stroke-miterlimit: 2; opacity: 1;"><g class="fills"/><g class="errorbars"/><g class="lines"><path class="js-line" d="M0,280.39Q0.62,279.6 0.9,279.12C1.23,278.57 1.51,277.89 1.81,277.25C2.12,276.59 2.41,275.91 2.71,275.22C3.02,274.51 3.32,273.79 3.62,273.06C3.93,272.31 4.22,271.55 4.52,270.78C4.82,269.99 5.12,269.2 5.42,268.39C5.73,267.56 6.03,266.73 6.33,265.88C6.63,265.02 6.93,264.15 7.23,263.27C7.53,262.38 7.84,261.48 8.14,260.57C8.44,259.66 8.74,258.73 9.04,257.81C9.34,256.88 9.65,255.94 9.95,255C10.25,254.06 10.55,253.11 10.85,252.17C11.15,251.23 11.45,250.28 11.75,249.34C12.05,248.4 12.36,247.47 12.66,246.54C12.96,245.62 13.26,244.69 13.56,243.78C13.86,242.88 14.17,241.98 14.47,241.09C14.77,240.22 15.07,239.35 15.37,238.49C15.67,237.65 15.97,236.82 16.27,236C16.57,235.2 16.87,234.41 17.18,233.63C17.48,232.87 17.77,232.13 18.08,231.4C18.38,230.69 18.68,230 18.99,229.33C19.29,228.68 19.58,228.04 19.89,227.42C20.18,226.83 20.48,226.25 20.79,225.7C21.09,225.17 21.39,224.66 21.7,224.17C21.99,223.71 22.29,223.26 22.6,222.84C22.89,222.45 23.2,222.07 23.51,221.73C23.8,221.41 24.1,221.1 24.41,220.84C24.7,220.59 25.01,220.37 25.32,220.18C25.61,220.01 25.91,219.86 26.22,219.75C26.51,219.65 26.82,219.58 27.12,219.55C27.42,219.52 27.73,219.53 28.03,219.57C28.33,219.61 28.63,219.71 28.93,219.82C29.24,219.94 29.54,220.09 29.84,220.27C30.15,220.46 30.45,220.68 30.74,220.92C31.05,221.17 31.34,221.46 31.64,221.75C31.95,222.06 32.25,222.39 32.55,222.73C32.86,223.08 33.15,223.46 33.45,223.84C33.76,224.23 34.06,224.64 34.36,225.05C34.66,225.47 34.96,225.9 35.26,226.33C35.56,226.76 35.86,227.2 36.16,227.64C36.46,228.08 36.77,228.52 37.07,228.95C37.37,229.38 37.67,229.81 37.97,230.23C38.27,230.65 38.57,231.06 38.88,231.46C39.18,231.85 39.48,232.24 39.78,232.61C40.08,232.97 40.37,233.33 40.68,233.67C40.98,234 41.28,234.31 41.59,234.6C41.88,234.88 42.18,235.15 42.49,235.37C42.78,235.58 43.09,235.79 43.4,235.91C43.69,236.02 44,236.11 44.3,236.1C44.6,236.09 44.92,235.99 45.21,235.83C45.53,235.65 45.83,235.34 46.11,235.03C46.43,234.67 46.72,234.23 47.01,233.78C47.32,233.3 47.62,232.77 47.92,232.24C48.23,231.7 48.52,231.13 48.82,230.57C49.12,230.01 49.43,229.45 49.73,228.9C50.03,228.36 50.33,227.81 50.63,227.28C50.93,226.77 51.22,226.26 51.53,225.78C51.83,225.31 52.13,224.86 52.44,224.43C52.73,224.02 53.03,223.63 53.34,223.27C53.63,222.92 53.94,222.59 54.25,222.3C54.54,222.02 54.84,221.77 55.15,221.55C55.44,221.34 55.74,221.16 56.05,221.02C56.35,220.89 56.65,220.78 56.96,220.72C57.26,220.66 57.56,220.63 57.86,220.64C58.16,220.65 58.47,220.69 58.77,220.76C59.07,220.83 59.37,220.95 59.67,221.08C59.98,221.21 60.28,221.38 60.58,221.55C60.88,221.72 61.18,221.93 61.48,222.12C61.78,222.31 62.07,222.53 62.38,222.7C62.68,222.87 62.98,223.05 63.29,223.15C63.58,223.24 63.89,223.32 64.19,223.29C64.5,223.26 64.81,223.12 65.1,222.94C65.42,222.73 65.72,222.41 66,222.07C66.32,221.69 66.61,221.22 66.9,220.73C67.22,220.19 67.52,219.58 67.81,218.96C68.12,218.29 68.42,217.58 68.71,216.85C69.02,216.08 69.32,215.28 69.62,214.47C69.93,213.64 70.22,212.78 70.52,211.92C70.82,211.04 71.12,210.15 71.42,209.26C71.72,208.36 72.03,207.46 72.33,206.56C72.63,205.67 72.93,204.77 73.23,203.88C73.53,203 73.84,202.11 74.14,201.24C74.44,200.38 74.74,199.52 75.04,198.68C75.34,197.85 75.64,197.03 75.95,196.22C76.25,195.43 76.55,194.66 76.85,193.89C77.15,193.14 77.44,192.4 77.75,191.68C78.05,190.98 78.35,190.3 78.66,189.63C78.96,188.98 79.25,188.34 79.56,187.73C79.86,187.14 80.16,186.57 80.47,186.02C80.76,185.49 81.06,184.98 81.37,184.5C81.66,184.05 81.96,183.61 82.27,183.21C82.56,182.84 82.87,182.48 83.18,182.17C83.47,181.88 83.77,181.61 84.08,181.4C84.37,181.2 84.68,181.04 84.99,180.93C85.28,180.83 85.59,180.77 85.89,180.77C86.19,180.77 86.5,180.83 86.79,180.94C87.1,181.05 87.41,181.24 87.7,181.45C88.02,181.68 88.31,181.98 88.6,182.3C88.92,182.66 89.22,183.07 89.51,183.51C89.83,183.98 90.12,184.51 90.41,185.05C90.72,185.64 91.03,186.27 91.32,186.93C91.63,187.63 91.93,188.37 92.22,189.13C92.53,189.93 92.83,190.77 93.12,191.63C93.43,192.53 93.73,193.46 94.03,194.41C94.34,195.4 94.63,196.41 94.93,197.44C95.24,198.51 95.54,199.6 95.84,200.7C96.15,201.83 96.44,202.99 96.74,204.15C97.04,205.34 97.34,206.54 97.64,207.75C97.94,208.98 98.25,210.22 98.55,211.46C98.85,212.71 99.15,213.98 99.45,215.24C99.75,216.5 100.06,217.76 100.36,219C100.66,220.23 100.95,221.46 101.26,222.65C101.55,223.79 101.84,224.94 102.16,225.98C102.45,226.91 102.74,227.84 103.07,228.61C103.35,229.25 103.64,229.82 103.97,230.31C104.25,230.73 104.57,231.06 104.88,231.39C105.17,231.7 105.48,231.96 105.78,232.25C106.08,232.54 106.38,232.81 106.68,233.11C106.99,233.42 107.29,233.72 107.59,234.06C107.9,234.41 108.2,234.78 108.49,235.17C108.8,235.58 109.11,236.02 109.4,236.48C109.71,236.97 110.01,237.48 110.3,238.02C110.61,238.59 110.92,239.19 111.21,239.81C111.52,240.47 111.82,241.16 112.11,241.88C112.42,242.64 112.72,243.43 113.01,244.24C113.32,245.1 113.63,245.98 113.92,246.89C114.23,247.85 114.52,248.84 114.82,249.85C115.13,250.91 115.43,251.99 115.73,253.1C116.04,254.26 116.33,255.44 116.63,256.65C116.94,257.9 117.23,259.17 117.53,260.46C117.84,261.79 118.14,263.15 118.44,264.52C118.75,265.92 119.04,267.35 119.34,268.79C119.64,270.25 119.95,271.74 120.25,273.22C120.55,274.72 120.85,276.23 121.15,277.74C121.45,279.25 121.75,280.76 122.05,282.26C122.35,283.73 122.65,285.21 122.96,286.65C123.26,288.04 123.54,289.45 123.86,290.74C124.15,291.9 124.42,293.1 124.77,294.04C125.04,294.78 125.28,295.63 125.67,295.97C125.93,296.19 126.32,296.35 126.58,296.23C126.98,296.05 127.2,294.97 127.48,294.24C127.81,293.38 128.09,292.39 128.38,291.37C128.7,290.24 129,289.02 129.29,287.76C129.6,286.4 129.9,284.97 130.19,283.51C130.5,281.97 130.8,280.36 131.1,278.74C131.41,277.05 131.7,275.32 132,273.58C132.3,271.8 132.6,269.98 132.9,268.16C133.2,266.31 133.51,264.43 133.81,262.55C134.11,260.66 134.41,258.75 134.71,256.85C135.01,254.94 135.32,253.03 135.62,251.12C135.92,249.22 136.22,247.31 136.52,245.42C136.82,243.54 137.12,241.66 137.42,239.8C137.72,237.96 138.03,236.12 138.33,234.31C138.63,232.53 138.93,230.76 139.23,229.01C139.53,227.3 139.83,225.6 140.14,223.93C140.44,222.3 140.73,220.68 141.04,219.1C141.34,217.57 141.64,216.06 141.95,214.58C142.25,213.15 142.54,211.74 142.85,210.37C143.14,209.06 143.44,207.77 143.75,206.52C144.05,205.33 144.35,204.16 144.66,203.03C144.95,201.96 145.25,200.92 145.56,199.93C145.85,199 146.16,198.09 146.47,197.23C146.76,196.43 147.06,195.65 147.37,194.93C147.66,194.26 147.95,193.62 148.27,193.03C148.56,192.49 148.86,191.99 149.18,191.54C149.47,191.13 149.76,190.75 150.08,190.44C150.37,190.16 150.67,189.91 150.99,189.73C151.28,189.57 151.59,189.45 151.89,189.4C152.19,189.35 152.49,189.35 152.79,189.41C153.1,189.47 153.41,189.6 153.7,189.76C154.01,189.93 154.31,190.15 154.6,190.4C154.91,190.67 155.22,190.98 155.51,191.31C155.82,191.66 156.12,192.04 156.41,192.44C156.72,192.86 157.02,193.3 157.32,193.75C157.63,194.21 157.92,194.69 158.22,195.16C158.52,195.64 158.82,196.13 159.12,196.61C159.42,197.08 159.72,197.55 160.03,198C160.33,198.43 160.62,198.87 160.93,199.26C161.22,199.63 161.53,199.98 161.84,200.3C162.13,200.59 162.43,200.87 162.74,201.1C163.03,201.32 163.33,201.51 163.64,201.68C163.94,201.84 164.24,201.97 164.55,202.09C164.85,202.21 165.15,202.3 165.45,202.39C165.75,202.48 166.06,202.56 166.36,202.64C166.66,202.72 166.96,202.78 167.26,202.86C167.56,202.94 167.86,203.02 168.16,203.1C168.46,203.18 168.77,203.26 169.07,203.35C169.37,203.44 169.67,203.53 169.97,203.63C170.27,203.73 170.58,203.83 170.88,203.94C171.18,204.05 171.48,204.16 171.78,204.28C172.08,204.4 172.38,204.53 172.68,204.67C172.98,204.81 173.29,204.95 173.59,205.11C173.89,205.27 174.19,205.44 174.49,205.63C174.8,205.82 175.1,206.02 175.4,206.24C175.71,206.46 176,206.71 176.3,206.96C176.61,207.22 176.91,207.5 177.21,207.8C177.52,208.11 177.82,208.44 178.11,208.78C178.42,209.14 178.71,209.51 179.01,209.9C179.32,210.3 179.62,210.73 179.92,211.16C180.23,211.61 180.52,212.07 180.82,212.54C181.13,213.03 181.43,213.54 181.73,214.05C182.04,214.58 182.33,215.12 182.63,215.66C182.93,216.21 183.23,216.78 183.53,217.35C183.83,217.93 184.14,218.51 184.44,219.1C184.74,219.69 185.04,220.3 185.34,220.9C185.64,221.5 185.95,222.11 186.25,222.71C186.55,223.32 186.85,223.93 187.15,224.53C187.45,225.13 187.75,225.73 188.05,226.32C188.35,226.91 188.66,227.49 188.96,228.07C189.26,228.64 189.56,229.2 189.86,229.76C190.16,230.31 190.46,230.86 190.77,231.39C191.07,231.91 191.37,232.43 191.67,232.93C191.97,233.42 192.28,233.91 192.58,234.38C192.88,234.84 193.18,235.3 193.48,235.75C193.78,236.19 194.08,236.61 194.38,237.03C194.68,237.44 194.99,237.84 195.29,238.23C195.59,238.61 195.89,238.99 196.19,239.36C196.49,239.73 196.8,240.09 197.1,240.45C197.4,240.8 197.7,241.15 198,241.5C198.3,241.85 198.6,242.19 198.9,242.53C199.2,242.88 199.51,243.22 199.81,243.57C200.11,243.92 200.41,244.27 200.71,244.63C201.01,244.99 201.32,245.35 201.62,245.72C201.92,246.09 202.22,246.47 202.52,246.86C202.82,247.26 203.12,247.66 203.42,248.07C203.72,248.48 204.03,248.9 204.33,249.33C204.63,249.77 204.93,250.22 205.23,250.67C205.53,251.13 205.84,251.6 206.14,252.07C206.44,252.55 206.74,253.03 207.04,253.52C207.34,254.01 207.64,254.52 207.95,254.99C208.25,255.45 208.5,256.06 208.85,256.31C209.12,256.5 209.45,256.55 209.75,256.54C210.05,256.53 210.36,256.37 210.66,256.24C210.97,256.1 211.27,255.93 211.56,255.73C211.87,255.52 212.18,255.28 212.47,255.02C212.78,254.74 213.08,254.43 213.37,254.11C213.68,253.77 213.97,253.41 214.27,253.04C214.58,252.66 214.88,252.26 215.18,251.86C215.48,251.45 215.78,251.02 216.08,250.6C216.38,250.17 216.69,249.74 216.99,249.31C217.29,248.88 217.59,248.44 217.89,248.01C218.19,247.58 218.49,247.16 218.79,246.74C219.09,246.33 219.4,245.91 219.7,245.51C220,245.12 220.3,244.73 220.6,244.35C220.9,243.98 221.2,243.6 221.51,243.25C221.81,242.91 222.11,242.57 222.41,242.25C222.71,241.93 223.02,241.63 223.32,241.33C223.62,241.03 223.93,240.79 224.22,240.45C224.54,240.08 224.83,239.64 225.12,239.17C225.44,238.65 225.73,238.02 226.03,237.45C226.33,236.89 226.62,236.33 226.93,235.79C227.23,235.26 227.53,234.74 227.84,234.25C228.14,233.78 228.43,233.32 228.74,232.88C229.03,232.46 229.33,232.06 229.64,231.68C229.94,231.32 230.24,230.97 230.55,230.65C230.84,230.35 231.14,230.06 231.45,229.81C231.75,229.57 232.05,229.34 232.36,229.15C232.65,228.97 232.95,228.81 233.26,228.69C233.55,228.57 233.86,228.47 234.16,228.41C234.46,228.35 234.77,228.33 235.07,228.34C235.37,228.35 235.67,228.39 235.97,228.46C236.28,228.53 236.58,228.65 236.88,228.78C237.19,228.92 237.49,229.09 237.78,229.29C238.09,229.5 238.39,229.74 238.68,230C238.99,230.27 239.3,230.58 239.59,230.9C239.9,231.24 240.2,231.61 240.49,232C240.8,232.41 241.1,232.84 241.4,233.29C241.71,233.76 242.01,234.26 242.3,234.77C242.61,235.31 242.91,235.86 243.21,236.44C243.52,237.04 243.82,237.66 244.11,238.3C244.42,238.96 244.71,239.64 245.01,240.34C245.32,241.06 245.62,241.81 245.92,242.57C246.23,243.35 246.52,244.15 246.82,244.97C247.13,245.81 247.43,246.67 247.73,247.55C248.04,248.45 248.33,249.37 248.63,250.3C248.93,251.26 249.23,252.23 249.53,253.22C249.84,254.23 250.14,255.25 250.44,256.29C250.74,257.35 251.04,258.42 251.34,259.5C251.64,260.6 251.95,261.72 252.25,262.85C252.55,263.99 252.85,265.15 253.15,266.31C253.45,267.49 253.75,268.67 254.05,269.86C254.35,271.06 254.66,272.27 254.96,273.48C255.26,274.69 255.56,275.91 255.86,277.13C256.16,278.34 256.47,279.57 256.77,280.77C257.07,281.96 257.36,283.15 257.67,284.31C257.97,285.45 258.27,286.58 258.58,287.67C258.88,288.72 259.17,289.76 259.48,290.75C259.77,291.68 260.06,292.59 260.38,293.44C260.67,294.22 260.97,294.97 261.29,295.65C261.58,296.25 261.82,296.97 262.19,297.32C262.46,297.58 262.81,297.8 263.1,297.77C263.41,297.74 263.71,297.37 264,297.11C264.32,296.82 264.6,296.45 264.9,296.1C265.21,295.74 265.51,295.37 265.81,295C266.11,294.63 266.41,294.25 266.71,293.89C267.01,293.53 267.34,293.25 267.62,292.82C267.96,292.3 268.23,291.58 268.52,290.92C268.83,290.23 269.11,289.47 269.42,288.77C269.72,288.08 270.02,287.4 270.33,286.74C270.63,286.09 270.92,285.46 271.23,284.84C271.53,284.24 271.84,283.66 272.14,283.08C272.44,282.51 272.75,282.01 273.04,281.4C273.36,280.72 273.66,279.96 273.95,279.19C274.26,278.38 274.55,277.49 274.85,276.66C275.15,275.85 275.44,275.04 275.75,274.25C276.05,273.49 276.35,272.74 276.66,272.01C276.96,271.3 277.25,270.61 277.56,269.93C277.86,269.27 278.16,268.63 278.47,268.01C278.77,267.41 279.06,266.82 279.37,266.25C279.66,265.7 279.96,265.16 280.27,264.64C280.57,264.14 280.87,263.66 281.18,263.19C281.48,262.74 281.77,262.3 282.08,261.88C282.38,261.47 282.68,261.08 282.99,260.7C283.29,260.33 283.59,259.98 283.89,259.64C284.19,259.31 284.49,258.99 284.79,258.67C285.09,258.36 285.4,258.06 285.7,257.76C286,257.47 286.3,257.18 286.6,256.89C286.9,256.6 287.21,256.31 287.51,256.01C287.81,255.71 288.11,255.4 288.41,255.08C288.72,254.75 289.02,254.42 289.32,254.07C289.62,253.72 289.92,253.35 290.22,252.98C290.52,252.6 290.82,252.2 291.12,251.8C291.42,251.4 291.73,250.99 292.03,250.58C292.33,250.17 292.63,249.75 292.93,249.34C293.23,248.93 293.54,248.51 293.84,248.11C294.14,247.71 294.44,247.32 294.74,246.94C295.04,246.56 295.33,246.18 295.64,245.82C295.94,245.47 296.24,245.12 296.55,244.79C296.85,244.47 297.14,244.15 297.45,243.85C297.75,243.56 298.05,243.28 298.36,243.02C298.66,242.77 298.96,242.52 299.26,242.3C299.56,242.08 299.86,241.88 300.16,241.69C300.46,241.51 300.76,241.33 301.07,241.18C301.37,241.03 301.67,240.9 301.97,240.78C302.27,240.66 302.58,240.56 302.88,240.46C303.18,240.36 303.48,240.28 303.78,240.2C304.08,240.12 304.38,240.05 304.68,239.98C304.98,239.92 305.29,239.86 305.59,239.81C305.89,239.76 306.19,239.71 306.49,239.68C306.79,239.65 307.1,239.62 307.4,239.61C307.7,239.6 308,239.61 308.3,239.63C308.6,239.65 308.91,239.7 309.21,239.76C309.51,239.82 309.81,239.9 310.11,240C310.41,240.1 310.71,240.23 311.01,240.37C311.32,240.52 311.62,240.69 311.92,240.88C312.23,241.08 312.52,241.29 312.82,241.53C313.13,241.78 313.43,242.05 313.73,242.33C314.04,242.62 314.34,242.94 314.63,243.27C314.94,243.62 315.23,243.99 315.53,244.38C315.84,244.78 316.14,245.21 316.44,245.65C316.75,246.11 317.04,246.59 317.34,247.09C317.65,247.61 317.95,248.15 318.25,248.71C318.56,249.29 318.86,249.9 319.15,250.52C319.46,251.17 319.75,251.84 320.05,252.53C320.36,253.25 320.66,254 320.96,254.76C321.27,255.55 321.56,256.36 321.86,257.19C322.17,258.05 322.47,258.94 322.77,259.84C323.08,260.77 323.37,261.72 323.67,262.69C323.98,263.69 324.28,264.71 324.58,265.75C324.89,266.82 325.18,267.9 325.48,269C325.78,270.12 326.08,271.25 326.38,272.4C326.68,273.57 326.99,274.75 327.29,275.94C327.59,277.14 327.89,278.35 328.19,279.56C328.49,280.77 328.8,281.99 329.1,283.19C329.4,284.37 329.69,285.57 330,286.71C330.29,287.81 330.58,288.92 330.9,289.92C331.19,290.81 331.48,291.68 331.81,292.41C332.09,293.03 332.38,293.58 332.71,294.05C332.99,294.45 333.29,294.82 333.62,295.09C333.9,295.32 334.21,295.51 334.52,295.61C334.81,295.7 335.13,295.73 335.42,295.68C335.73,295.63 336.04,295.48 336.33,295.29C336.65,295.08 336.95,294.77 337.23,294.42C337.56,294 337.86,293.5 338.14,292.91C338.48,292.18 338.76,291.3 339.04,290.35C339.38,289.21 339.66,287.86 339.95,286.51C340.27,285.02 340.56,283.39 340.85,281.77C341.16,280.07 341.45,278.3 341.75,276.53C342.06,274.71 342.36,272.85 342.66,270.98C342.96,269.09 343.26,267.17 343.56,265.25C343.86,263.32 344.17,261.37 344.47,259.43C344.77,257.49 345.07,255.53 345.37,253.59C345.67,251.66 345.97,249.72 346.27,247.8C346.57,245.9 346.88,244 347.18,242.12C347.48,240.27 347.78,238.42 348.08,236.6C348.38,234.81 348.68,233.02 348.99,231.27C349.29,229.56 349.59,227.86 349.89,226.19C350.19,224.57 350.48,222.96 350.79,221.39C351.09,219.87 351.39,218.37 351.7,216.9C352,215.49 352.29,214.09 352.6,212.74C352.9,211.45 353.2,210.19 353.51,208.96C353.8,207.79 354.1,206.65 354.41,205.55C354.7,204.52 355.01,203.51 355.32,202.55C355.61,201.65 355.91,200.79 356.22,199.97C356.51,199.21 356.8,198.48 357.12,197.81C357.41,197.2 357.71,196.61 358.03,196.09C358.32,195.62 358.61,195.18 358.93,194.81C359.22,194.48 359.52,194.18 359.84,193.97C360.13,193.78 360.43,193.62 360.74,193.56C361.03,193.5 361.35,193.52 361.64,193.59C361.95,193.67 362.26,193.82 362.55,194.02C362.87,194.24 363.16,194.54 363.45,194.86C363.77,195.22 364.07,195.64 364.36,196.08C364.68,196.56 364.97,197.1 365.26,197.66C365.57,198.26 365.87,198.91 366.16,199.57C366.47,200.27 366.77,201.01 367.07,201.77C367.38,202.56 367.67,203.38 367.97,204.21C368.28,205.07 368.58,205.95 368.88,206.83C369.18,207.72 369.48,208.64 369.78,209.52C370.08,210.37 370.35,211.28 370.68,212.03C370.96,212.68 371.22,213.42 371.59,213.78C371.86,214.04 372.19,214.21 372.49,214.22C372.79,214.23 373.11,213.99 373.4,213.82C373.71,213.64 374,213.37 374.3,213.13C374.61,212.88 374.91,212.6 375.21,212.33C375.51,212.06 375.81,211.78 376.11,211.5C376.41,211.22 376.71,210.94 377.01,210.66C377.31,210.38 377.62,210.11 377.92,209.84C378.22,209.58 378.52,209.32 378.82,209.08C379.12,208.84 379.42,208.6 379.73,208.39C380.03,208.19 380.32,207.99 380.63,207.83C380.92,207.67 381.22,207.53 381.53,207.43C381.83,207.33 382.14,207.26 382.44,207.24C382.74,207.22 383.04,207.24 383.34,207.3C383.65,207.37 383.96,207.48 384.25,207.64C384.56,207.81 384.86,208.03 385.15,208.28C385.46,208.56 385.76,208.89 386.05,209.25C386.37,209.65 386.67,210.09 386.96,210.57C387.28,211.09 387.57,211.66 387.86,212.26C388.17,212.91 388.48,213.59 388.77,214.31C389.08,215.08 389.38,215.88 389.67,216.72C389.98,217.61 390.29,218.55 390.58,219.51C390.89,220.52 391.19,221.57 391.48,222.65C391.79,223.78 392.08,224.95 392.38,226.14C392.69,227.38 392.99,228.65 393.29,229.95C393.6,231.29 393.89,232.67 394.19,234.06C394.5,235.5 394.8,236.97 395.1,238.45C395.41,239.97 395.7,241.51 396,243.06C396.3,244.64 396.6,246.24 396.9,247.85C397.2,249.47 397.51,251.12 397.81,252.75C398.11,254.38 398.41,256.03 398.71,257.65C399.01,259.25 399.31,260.87 399.62,262.43C399.92,263.94 400.21,265.46 400.52,266.89C400.81,268.23 401.1,269.56 401.42,270.75C401.7,271.8 401.99,272.83 402.33,273.67C402.61,274.35 402.88,275.01 403.23,275.46C403.5,275.81 403.81,276.12 404.14,276.24C404.42,276.35 404.75,276.34 405.04,276.26C405.36,276.18 405.66,275.95 405.95,275.71C406.27,275.44 406.56,275.08 406.85,274.7C407.17,274.28 407.46,273.78 407.75,273.27C408.07,272.71 408.37,272.09 408.66,271.45C408.98,270.75 409.27,270 409.56,269.22C409.87,268.38 410.18,267.49 410.47,266.57C410.78,265.6 411.08,264.58 411.37,263.55C411.68,262.48 411.97,261.36 412.27,260.25C412.57,259.12 412.88,257.96 413.18,256.81C413.48,255.66 413.78,254.49 414.08,253.34C414.38,252.2 414.69,251.05 414.99,249.92C415.29,248.81 415.59,247.71 415.89,246.63C416.19,245.58 416.48,244.53 416.79,243.51C417.09,242.52 417.39,241.56 417.7,240.61C418,239.7 418.29,238.8 418.6,237.94C418.89,237.12 419.2,236.32 419.51,235.55C419.8,234.82 420.1,234.12 420.41,233.45C420.7,232.82 421.01,232.22 421.32,231.66C421.61,231.14 421.91,230.63 422.22,230.18C422.51,229.77 422.8,229.37 423.12,229.04C423.41,228.73 423.71,228.46 424.03,228.24C424.32,228.04 424.62,227.88 424.93,227.78C425.22,227.69 425.54,227.65 425.84,227.66C426.14,227.67 426.45,227.75 426.74,227.87C427.05,227.99 427.35,228.18 427.64,228.4C427.96,228.64 428.26,228.94 428.55,229.26C428.86,229.61 429.16,230 429.45,230.41C429.76,230.86 430.07,231.34 430.36,231.85C430.67,232.39 430.97,232.96 431.26,233.55C431.57,234.17 431.87,234.82 432.16,235.49C432.47,236.19 432.77,236.91 433.07,237.65C433.38,238.41 433.67,239.2 433.97,239.99C434.28,240.81 434.58,241.64 434.88,242.48C435.18,243.33 435.48,244.2 435.78,245.06C436.08,245.92 436.38,246.8 436.68,247.66C436.98,248.5 437.27,249.36 437.59,250.14C437.88,250.86 438.16,251.59 438.49,252.18C438.77,252.67 439.07,253.11 439.4,253.45C439.68,253.74 439.99,253.93 440.3,254.13C440.6,254.32 440.91,254.46 441.21,254.62C441.51,254.78 441.81,254.94 442.11,255.11C442.41,255.29 442.71,255.48 443.01,255.68C443.32,255.89 443.62,256.11 443.92,256.35C444.23,256.6 444.52,256.87 444.82,257.15C445.13,257.45 445.43,257.76 445.73,258.09C446.04,258.43 446.34,258.79 446.63,259.16C446.94,259.55 447.23,259.96 447.53,260.38C447.84,260.82 448.14,261.28 448.44,261.76C448.75,262.25 449.04,262.76 449.34,263.29C449.65,263.84 449.95,264.4 450.25,264.98C450.56,265.58 450.85,266.19 451.15,266.82C451.46,267.47 451.75,268.14 452.05,268.82C452.36,269.52 452.66,270.23 452.96,270.96C453.27,271.7 453.56,272.46 453.86,273.23C454.16,274.01 454.47,274.81 454.77,275.61C455.07,276.42 455.37,277.25 455.67,278.07C455.97,278.9 456.28,279.74 456.58,280.58C456.88,281.42 457.18,282.27 457.48,283.1C457.78,283.93 458.08,284.75 458.38,285.56C458.68,286.35 458.98,287.15 459.29,287.91C459.59,288.64 459.88,289.37 460.19,290.05C460.48,290.68 460.78,291.32 461.1,291.86Q461.38,292.34 462,293.16" style="vector-effect: non-scaling-stroke; fill: none; stroke: rgb(231, 107, 243); stroke-opacity: 1; stroke-width: 2px; opacity: 1;"/></g><g class="points"/><g class="text"/></g></g></g><g class="overplot"/><path class="xlines-above crisp" d="M0,0" style="fill: none;"/><path class="ylines-above crisp" d="M0,0" style="fill: none;"/><g class="overlines-above"/><g class="xaxislayer-above"><g class="xtick"><text text-anchor="middle" x="0" y="433" transform="translate(80,0)" style="font-family: 'Open Sans', verdana, arial, sans-serif; font-size: 12px; fill: rgb(42, 63, 95); fill-opacity: 1; white-space: pre;">0</text></g><g class="xtick"><text text-anchor="middle" x="0" y="433" transform="translate(170.23000000000002,0)" style="font-family: 'Open Sans', verdana, arial, sans-serif; font-size: 12px; fill: rgb(42, 63, 95); fill-opacity: 1; white-space: pre;">100</text></g><g class="xtick"><text text-anchor="middle" x="0" y="433" transform="translate(260.47,0)" style="font-family: 'Open Sans', verdana, arial, sans-serif; font-size: 12px; fill: rgb(42, 63, 95); fill-opacity: 1; white-space: pre;">200</text></g><g class="xtick"><text text-anchor="middle" x="0" y="433" transform="translate(350.7,0)" style="font-family: 'Open Sans', verdana, arial, sans-serif; font-size: 12px; fill: rgb(42, 63, 95); fill-opacity: 1; white-space: pre;">300</text></g><g class="xtick"><text text-anchor="middle" x="0" y="433" transform="translate(440.94,0)" style="font-family: 'Open Sans', verdana, arial, sans-serif; font-size: 12px; fill: rgb(42, 63, 95); fill-opacity: 1; white-space: pre;">400</text></g><g class="xtick"><text text-anchor="middle" x="0" y="433" transform="translate(531.1700000000001,0)" style="font-family: 'Open Sans', verdana, arial, sans-serif; font-size: 12px; fill: rgb(42, 63, 95); fill-opacity: 1; white-space: pre;">500</text></g></g><g class="yaxislayer-above"><g class="ytick"><text text-anchor="end" x="79" y="4.199999999999999" transform="translate(0,402.08)" style="font-family: 'Open Sans', verdana, arial, sans-serif; font-size: 12px; fill: rgb(42, 63, 95); fill-opacity: 1; white-space: pre;">10</text></g><g class="ytick"><text text-anchor="end" x="79" y="4.199999999999999" transform="translate(0,363.33)" style="font-family: 'Open Sans', verdana, arial, sans-serif; font-size: 12px; fill: rgb(42, 63, 95); fill-opacity: 1; white-space: pre;">20</text></g><g class="ytick"><text text-anchor="end" x="79" y="4.199999999999999" transform="translate(0,324.59000000000003)" style="font-family: 'Open Sans', verdana, arial, sans-serif; font-size: 12px; fill: rgb(42, 63, 95); fill-opacity: 1; white-space: pre;">30</text></g><g class="ytick"><text text-anchor="end" x="79" y="4.199999999999999" transform="translate(0,285.85)" style="font-family: 'Open Sans', verdana, arial, sans-serif; font-size: 12px; fill: rgb(42, 63, 95); fill-opacity: 1; white-space: pre;">40</text></g><g class="ytick"><text text-anchor="end" x="79" y="4.199999999999999" transform="translate(0,247.11)" style="font-family: 'Open Sans', verdana, arial, sans-serif; font-size: 12px; fill: rgb(42, 63, 95); fill-opacity: 1; white-space: pre;">50</text></g><g class="ytick"><text text-anchor="end" x="79" y="4.199999999999999" transform="translate(0,208.36)" style="font-family: 'Open Sans', verdana, arial, sans-serif; font-size: 12px; fill: rgb(42, 63, 95); fill-opacity: 1; white-space: pre;">60</text></g><g class="ytick"><text text-anchor="end" x="79" y="4.199999999999999" transform="translate(0,169.62)" style="font-family: 'Open Sans', verdana, arial, sans-serif; font-size: 12px; fill: rgb(42, 63, 95); fill-opacity: 1; white-space: pre;">70</text></g><g class="ytick"><text text-anchor="end" x="79" y="4.199999999999999" transform="translate(0,130.88)" style="font-family: 'Open Sans', verdana, arial, sans-serif; font-size: 12px; fill: rgb(42, 63, 95); fill-opacity: 1; white-space: pre;">80</text></g></g><g class="overaxes-above"/></g></g><g class="polarlayer"/><g class="ternarylayer"/><g class="geolayer"/><g class="funnelarealayer"/><g class="pielayer"/><g class="treemaplayer"/><g class="sunburstlayer"/><g class="glimages"/><defs id="topdefs-808d48"><g class="clips"/><clipPath id="legend808d48"><rect width="137" height="67" x="0" y="0"/></clipPath></defs><g class="layer-above"><g class="imagelayer"/><g class="shapelayer"/></g><g class="infolayer"><g class="legend" pointer-events="all" transform="translate(551.24, 100)"><rect class="bg" shape-rendering="crispEdges" style="stroke: rgb(68, 68, 68); stroke-opacity: 1; fill: rgb(255, 255, 255); fill-opacity: 1; stroke-width: 0px;" width="137" height="67" x="0" y="0"/><g class="scrollbox" transform="translate(0, 0)" clip-path="url('#legend808d48')"><g class="groups"><g class="traces" transform="translate(0, 14.5)" style="opacity: 1;"><text class="legendtext" text-anchor="start" x="40" y="4.680000000000001" style="font-family: 'Open Sans', verdana, arial, sans-serif; font-size: 12px; fill: rgb(42, 63, 95); fill-opacity: 1; white-space: pre;">Average Class I</text><g class="layers" style="opacity: 1;"><g class="legendfill"/><g class="legendlines"><path class="js-line" d="M5,0h30" style="fill: none; stroke: rgb(0, 100, 80); stroke-opacity: 1; stroke-width: 2px;"/></g><g class="legendsymbols"><g class="legendpoints"/></g></g><rect class="legendtoggle" x="0" y="-9.5" width="131.15625" height="19" style="fill: rgb(0, 0, 0); fill-opacity: 0;"/></g><g class="traces" transform="translate(0, 33.5)" style="opacity: 1;"><text class="legendtext" text-anchor="start" x="40" y="4.680000000000001" style="font-family: 'Open Sans', verdana, arial, sans-serif; font-size: 12px; fill: rgb(42, 63, 95); fill-opacity: 1; white-space: pre;">Average Class II</text><g class="layers" style="opacity: 1;"><g class="legendfill"/><g class="legendlines"><path class="js-line" d="M5,0h30" style="fill: none; stroke: rgb(0, 176, 246); stroke-opacity: 1; stroke-width: 2px;"/></g><g class="legendsymbols"><g class="legendpoints"/></g></g><rect class="legendtoggle" x="0" y="-9.5" width="131.15625" height="19" style="fill: rgb(0, 0, 0); fill-opacity: 0;"/></g><g class="traces" transform="translate(0, 52.5)" style="opacity: 1;"><text class="legendtext" text-anchor="start" x="40" y="4.680000000000001" style="font-family: 'Open Sans', verdana, arial, sans-serif; font-size: 12px; fill: rgb(42, 63, 95); fill-opacity: 1; white-space: pre;">Average Class III</text><g class="layers" style="opacity: 1;"><g class="legendfill"/><g class="legendlines"><path class="js-line" d="M5,0h30" style="fill: none; stroke: rgb(231, 107, 243); stroke-opacity: 1; stroke-width: 2px;"/></g><g class="legendsymbols"><g class="legendpoints"/></g></g><rect class="legendtoggle" x="0" y="-9.5" width="131.15625" height="19" style="fill: rgb(0, 0, 0); fill-opacity: 0;"/></g></g></g><rect class="scrollbar" rx="20" ry="3" width="0" height="0" style="fill: rgb(128, 139, 164); fill-opacity: 1;" x="0" y="0"/></g><g class="g-gtitle"><text class="gtitle" x="35" y="50" text-anchor="start" dy="0em" style="font-family: 'Open Sans', verdana, arial, sans-serif; font-size: 17px; fill: rgb(42, 63, 95); opacity: 1; font-weight: normal; white-space: pre;">Average curve: alpha-structure_group</text></g><g class="g-xtitle"><text class="xtitle" x="311" y="460.8" text-anchor="middle" style="font-family: 'Open Sans', verdana, arial, sans-serif; font-size: 14px; fill: rgb(42, 63, 95); opacity: 1; font-weight: normal; white-space: pre;">Domain</text></g><g class="g-ytitle"><text class="ytitle" transform="rotate(-90,40.840625,260)" x="40.840625" y="260" text-anchor="middle" style="font-family: 'Open Sans', verdana, arial, sans-serif; font-size: 14px; fill: rgb(42, 63, 95); opacity: 1; font-weight: normal; white-space: pre;">Frequency</text></g></g></svg>