<svg class="main-svg" xmlns="http://www.w3.org/2000/svg" xmlns:xlink="http://www.w3.org/1999/xlink" width="700" height="500" style="" viewBox="0 0 700 500"><rect x="0" y="0" width="700" height="500" style="fill: rgb(255, 255, 255); fill-opacity: 1;"/><defs id="defs-61aa2f"><g class="clips"><clipPath id="clip61aa2fxyplot" class="plotclip"><rect width="462" height="320"/></clipPath><clipPath class="axesclip" id="clip61aa2fx"><rect x="80" y="0" width="462" height="500"/></clipPath><clipPath class="axesclip" id="clip61aa2fy"><rect x="0" y="100" width="700" height="320"/></clipPath><clipPath class="axesclip" id="clip61aa2fxy"><rect x="80" y="100" width="462" height="320"/></clipPath></g><g class="gradients"/></defs><g class="bglayer"><rect class="bg" x="80" y="100" width="462" height="320" style="fill: rgb(229, 236, 246); fill-opacity: 1; stroke-width: 0;"/></g><g class="layer-below"><g class="imagelayer"/><g class="shapelayer"/></g><g class="cartesianlayer"><g class="subplot xy"><g class="layer-subplot"><g class="shapelayer"/><g class="imagelayer"/></g><g class="gridlayer"><g class="x"><path class="xgrid crisp" transform="translate(170.23000000000002,0)" d="M0,100v320" style="stroke: rgb(255, 255, 255); stroke-opacity: 1; stroke-width: 1px;"/><path class="xgrid crisp" transform="translate(260.47,0)" d="M0,100v320" style="stroke: rgb(255, 255, 255); stroke-opacity: 1; stroke-width: 1px;"/><path class="xgrid crisp" transform="translate(350.7,0)" d="M0,100v320" style="stroke: rgb(255, 255, 255); stroke-opacity: 1; stroke-width: 1px;"/><path class="xgrid crisp" transform="translate(440.94,0)" d="M0,100v320" style="stroke: rgb(255, 255, 255); stroke-opacity: 1; stroke-width: 1px;"/><path class="xgrid crisp" transform="translate(531.1700000000001,0)" d="M0,100v320" style="stroke: rgb(255, 255, 255); stroke-opacity: 1; stroke-width: 1px;"/></g><g class="y"><path class="ygrid crisp" transform="translate(0,385.12)" d="M80,0h462" style="stroke: rgb(255, 255, 255); stroke-opacity: 1; stroke-width: 1px;"/><path class="ygrid crisp" transform="translate(0,320.31)" d="M80,0h462" style="stroke: rgb(255, 255, 255); stroke-opacity: 1; stroke-width: 1px;"/><path class="ygrid crisp" transform="translate(0,255.51)" d="M80,0h462" style="stroke: rgb(255, 255, 255); stroke-opacity: 1; stroke-width: 1px;"/><path class="ygrid crisp" transform="translate(0,190.70999999999998)" d="M80,0h462" style="stroke: rgb(255, 255, 255); stroke-opacity: 1; stroke-width: 1px;"/><path class="ygrid crisp" transform="translate(0,125.9)" d="M80,0h462" style="stroke: rgb(255, 255, 255); stroke-opacity: 1; stroke-width: 1px;"/></g></g><g class="zerolinelayer"><path class="xzl zl crisp" transform="translate(80,0)" d="M0,100v320" style="stroke: rgb(255, 255, 255); stroke-opacity: 1; stroke-width: 2px;"/></g><path class="xlines-below"/><path class="ylines-below"/><g class="overlines-below"/><g class="xaxislayer-below"/><g class="yaxislayer-below"/><g class="overaxes-below"/><g class="plot" transform="translate(80, 100)" clip-path="url('#clip61aa2fxyplot')"><g class="scatterlayer mlayer"><g class="trace scatter tracef4c0df" style="stroke-miterlimit: 2; opacity: 1;"><g class="fills"/><g class="errorbars"/><g class="lines"><path class="js-line" d="M0,247.74Q0.62,247.34 0.9,247.05C1.23,246.7 1.52,246.2 1.81,245.72C2.13,245.18 2.42,244.57 2.71,243.96C3.02,243.31 3.32,242.61 3.62,241.92C3.93,241.21 4.22,240.47 4.52,239.73C4.82,238.98 5.12,238.21 5.42,237.45C5.72,236.68 6.03,235.91 6.33,235.15C6.63,234.39 6.93,233.63 7.23,232.88C7.53,232.14 7.84,231.39 8.14,230.66C8.44,229.94 8.74,229.23 9.04,228.52C9.34,227.82 9.65,227.13 9.95,226.45C10.25,225.78 10.55,225.12 10.85,224.47C11.15,223.83 11.45,223.19 11.75,222.56C12.05,221.93 12.36,221.3 12.66,220.68C12.96,220.06 13.26,219.45 13.56,218.83C13.86,218.21 14.17,217.59 14.47,216.96C14.77,216.33 15.07,215.69 15.37,215.05C15.67,214.4 15.97,213.74 16.27,213.08C16.57,212.41 16.88,211.73 17.18,211.05C17.48,210.35 17.78,209.65 18.08,208.94C18.38,208.22 18.69,207.49 18.99,206.75C19.29,206 19.59,205.25 19.89,204.49C20.19,203.72 20.49,202.94 20.79,202.16C21.09,201.36 21.4,200.55 21.7,199.74C22,198.91 22.3,198.08 22.6,197.24C22.9,196.38 23.21,195.52 23.51,194.64C23.81,193.75 24.11,192.86 24.41,191.95C24.71,191.03 25.02,190.09 25.32,189.15C25.62,188.2 25.92,187.23 26.22,186.26C26.52,185.27 26.82,184.27 27.12,183.27C27.42,182.25 27.73,181.23 28.03,180.2C28.33,179.16 28.63,178.12 28.93,177.08C29.23,176.03 29.54,174.97 29.84,173.91C30.14,172.85 30.44,171.79 30.74,170.74C31.04,169.69 31.34,168.64 31.64,167.6C31.94,166.57 32.25,165.53 32.55,164.51C32.85,163.5 33.15,162.5 33.45,161.52C33.75,160.55 34.05,159.6 34.36,158.66C34.66,157.75 34.95,156.85 35.26,155.97C35.56,155.12 35.85,154.28 36.16,153.47C36.46,152.69 36.76,151.93 37.07,151.2C37.36,150.5 37.66,149.83 37.97,149.18C38.26,148.57 38.57,147.98 38.88,147.42C39.17,146.9 39.47,146.4 39.78,145.93C40.07,145.49 40.37,145.09 40.68,144.69C40.98,144.31 41.29,143.96 41.59,143.59C41.89,143.22 42.19,142.85 42.49,142.47C42.8,142.08 43.1,141.66 43.4,141.27C43.7,140.88 43.99,140.49 44.3,140.13C44.59,139.79 44.9,139.46 45.21,139.18C45.5,138.92 45.8,138.68 46.11,138.5C46.4,138.33 46.7,138.19 47.01,138.13C47.31,138.07 47.63,138.06 47.92,138.13C48.23,138.2 48.54,138.36 48.82,138.57C49.14,138.81 49.45,139.14 49.73,139.51C50.06,139.94 50.35,140.46 50.63,141.01C50.95,141.64 51.24,142.35 51.53,143.1C51.85,143.93 52.15,144.84 52.44,145.79C52.76,146.83 53.05,147.94 53.34,149.09C53.65,150.33 53.96,151.64 54.25,152.98C54.56,154.41 54.86,155.9 55.15,157.41C55.46,159 55.75,160.64 56.05,162.3C56.36,164.01 56.66,165.77 56.96,167.53C57.26,169.32 57.56,171.13 57.86,172.95C58.16,174.78 58.47,176.63 58.77,178.48C59.07,180.34 59.37,182.22 59.67,184.09C59.97,185.96 60.28,187.84 60.58,189.69C60.88,191.52 61.18,193.35 61.48,195.14C61.78,196.87 62.07,198.6 62.38,200.26C62.67,201.85 62.98,203.41 63.29,204.9C63.58,206.3 63.88,207.67 64.19,208.97C64.48,210.17 64.78,211.33 65.1,212.41C65.39,213.4 65.68,214.34 66,215.21C66.29,215.99 66.58,216.74 66.9,217.41C67.19,218.01 67.49,218.59 67.81,219.08C68.09,219.51 68.38,219.94 68.71,220.24C68.99,220.49 69.3,220.71 69.62,220.81C69.91,220.9 70.22,220.9 70.52,220.86C70.82,220.81 71.13,220.68 71.42,220.53C71.73,220.37 72.04,220.16 72.33,219.92C72.64,219.66 72.94,219.33 73.23,219C73.54,218.65 73.84,218.26 74.14,217.88C74.44,217.5 74.74,217.13 75.04,216.74C75.34,216.35 75.66,215.98 75.95,215.54C76.27,215.06 76.55,214.51 76.85,213.98C77.15,213.44 77.44,212.85 77.75,212.32C78.04,211.82 78.34,211.33 78.66,210.9C78.95,210.51 79.24,210.13 79.56,209.82C79.85,209.54 80.15,209.28 80.47,209.12C80.76,208.97 81.07,208.87 81.37,208.85C81.67,208.83 81.98,208.9 82.27,209.02C82.59,209.15 82.89,209.38 83.18,209.63C83.5,209.91 83.79,210.28 84.08,210.65C84.4,211.06 84.68,211.59 84.99,212.01C85.28,212.4 85.6,212.7 85.89,213.08C86.2,213.48 86.5,213.89 86.79,214.34C87.1,214.82 87.41,215.35 87.7,215.89C88.01,216.46 88.3,217.05 88.6,217.66C88.91,218.3 89.21,218.96 89.51,219.63C89.82,220.32 90.11,221.02 90.41,221.73C90.71,222.45 91.02,223.19 91.32,223.91C91.62,224.63 91.91,225.36 92.22,226.05C92.51,226.71 92.8,227.39 93.12,227.97C93.41,228.48 93.68,229.02 94.03,229.34C94.3,229.59 94.62,229.82 94.93,229.84C95.23,229.86 95.55,229.68 95.84,229.5C96.16,229.3 96.45,228.97 96.74,228.66C97.05,228.33 97.34,227.94 97.64,227.55C97.95,227.15 98.25,226.72 98.55,226.28C98.86,225.82 99.16,225.34 99.45,224.84C99.76,224.31 100.07,223.77 100.36,223.19C100.67,222.57 100.97,221.93 101.26,221.25C101.57,220.51 101.88,219.74 102.16,218.89C102.48,217.92 102.78,216.85 103.07,215.72C103.39,214.44 103.67,212.97 103.97,211.59C104.27,210.21 104.58,208.8 104.88,207.43C105.18,206.08 105.48,204.73 105.78,203.42C106.08,202.15 106.37,200.88 106.68,199.66C106.97,198.5 107.28,197.35 107.59,196.26C107.88,195.23 108.18,194.23 108.49,193.28C108.78,192.4 109.08,191.55 109.4,190.76C109.69,190.05 109.98,189.36 110.3,188.75C110.59,188.21 110.88,187.7 111.21,187.28C111.49,186.92 111.79,186.57 112.11,186.36C112.39,186.17 112.71,186.03 113.01,186.01C113.31,185.99 113.63,186.07 113.92,186.21C114.24,186.37 114.54,186.67 114.82,186.98C115.15,187.34 115.44,187.8 115.73,188.28C116.05,188.82 116.34,189.45 116.63,190.1C116.95,190.82 117.24,191.6 117.53,192.41C117.84,193.28 118.15,194.2 118.44,195.14C118.75,196.14 119.04,197.19 119.34,198.26C119.65,199.37 119.95,200.52 120.25,201.68C120.56,202.88 120.85,204.11 121.15,205.34C121.45,206.6 121.75,207.88 122.05,209.16C122.35,210.45 122.66,211.75 122.96,213.05C123.26,214.34 123.55,215.65 123.86,216.92C124.16,218.16 124.46,219.41 124.77,220.58C125.06,221.68 125.35,222.76 125.67,223.76C125.96,224.66 126.26,225.52 126.58,226.32C126.87,227.05 127.17,227.73 127.48,228.37C127.77,228.95 128.06,229.5 128.38,230.01C128.67,230.48 128.97,230.91 129.29,231.31C129.58,231.67 129.88,232.02 130.19,232.31C130.48,232.58 130.78,232.88 131.1,233.03C131.39,233.17 131.7,233.25 132,233.23C132.3,233.21 132.61,233.07 132.9,232.9C133.22,232.72 133.53,232.46 133.81,232.14C134.15,231.75 134.42,231.19 134.71,230.65C135.03,230.04 135.32,229.33 135.62,228.65C135.93,227.95 136.22,227.22 136.52,226.5C136.82,225.78 137.12,225.05 137.42,224.33C137.72,223.61 138.03,222.89 138.33,222.16C138.63,221.42 138.93,220.65 139.23,219.9C139.53,219.16 139.83,218.42 140.14,217.69C140.44,216.98 140.74,216.3 141.04,215.6C141.34,214.89 141.64,214.14 141.95,213.44C142.25,212.77 142.54,212.09 142.85,211.48C143.14,210.92 143.43,210.37 143.75,209.89C144.04,209.46 144.34,209.05 144.66,208.73C144.94,208.45 145.24,208.19 145.56,208.03C145.85,207.88 146.17,207.79 146.47,207.77C146.77,207.75 147.08,207.81 147.37,207.92C147.68,208.04 147.99,208.25 148.27,208.5C148.59,208.78 148.9,209.16 149.18,209.57C149.5,210.04 149.79,210.59 150.08,211.17C150.4,211.83 150.7,212.56 150.99,213.33C151.31,214.18 151.6,215.09 151.89,216.04C152.2,217.07 152.5,218.15 152.79,219.27C153.1,220.47 153.41,221.73 153.7,223.01C154.01,224.36 154.3,225.77 154.6,227.2C154.91,228.69 155.21,230.22 155.51,231.77C155.82,233.36 156.11,235 156.41,236.63C156.71,238.28 157.02,239.96 157.32,241.61C157.62,243.24 157.91,244.89 158.22,246.45C158.51,247.91 158.78,249.43 159.12,250.7C159.4,251.76 159.66,252.84 160.03,253.57C160.29,254.08 160.59,254.49 160.93,254.77C161.21,255 161.53,255.16 161.84,255.22C162.13,255.27 162.45,255.23 162.74,255.14C163.05,255.04 163.35,254.85 163.64,254.64C163.96,254.41 164.26,254.12 164.55,253.82C164.86,253.51 165.15,253.15 165.45,252.8C165.76,252.44 166.06,252.06 166.36,251.68C166.66,251.3 166.96,250.91 167.26,250.52C167.56,250.13 167.86,249.74 168.16,249.35C168.46,248.96 168.77,248.57 169.07,248.16C169.38,247.74 169.67,247.3 169.97,246.85C170.28,246.38 170.58,245.87 170.88,245.38C171.18,244.89 171.48,244.4 171.78,243.92C172.08,243.44 172.39,243 172.68,242.49C173,241.93 173.3,241.33 173.59,240.69C173.9,240 174.19,239.24 174.49,238.5C174.8,237.73 175.1,236.95 175.4,236.15C175.71,235.34 176,234.5 176.3,233.67C176.6,232.85 176.9,232.01 177.21,231.2C177.51,230.41 177.81,229.62 178.11,228.85C178.41,228.11 178.7,227.37 179.01,226.66C179.31,225.97 179.61,225.29 179.92,224.63C180.22,223.99 180.51,223.37 180.82,222.76C181.12,222.17 181.42,221.6 181.73,221.04C182.03,220.51 182.32,219.99 182.63,219.49C182.92,219.02 183.22,218.55 183.53,218.12C183.82,217.71 184.13,217.32 184.44,216.95C184.73,216.6 185.03,216.28 185.34,215.98C185.64,215.69 185.94,215.43 186.25,215.17C186.55,214.92 186.85,214.7 187.15,214.46C187.45,214.22 187.76,214.01 188.05,213.74C188.36,213.46 188.67,213.17 188.96,212.81C189.28,212.41 189.57,211.93 189.86,211.42C190.18,210.85 190.48,210.18 190.77,209.52C191.08,208.83 191.37,208.08 191.67,207.36C191.97,206.64 192.27,205.9 192.58,205.2C192.88,204.52 193.17,203.85 193.48,203.21C193.77,202.6 194.07,202.01 194.38,201.46C194.67,200.95 194.97,200.47 195.29,200.03C195.58,199.63 195.87,199.24 196.19,198.93C196.48,198.65 196.78,198.38 197.1,198.21C197.39,198.05 197.7,197.94 198,197.91C198.3,197.89 198.61,197.94 198.9,198.05C199.21,198.17 199.52,198.37 199.81,198.61C200.13,198.88 200.43,199.24 200.71,199.63C201.03,200.07 201.33,200.59 201.62,201.15C201.94,201.78 202.23,202.48 202.52,203.22C202.84,204.04 203.13,204.94 203.42,205.86C203.74,206.87 204.04,207.94 204.33,209.04C204.64,210.21 204.93,211.45 205.23,212.7C205.54,214.01 205.84,215.36 206.14,216.72C206.45,218.11 206.74,219.55 207.04,220.96C207.34,222.37 207.64,223.8 207.95,225.19C208.25,226.55 208.54,227.91 208.85,229.23C209.14,230.5 209.44,231.75 209.75,232.95C210.04,234.08 210.34,235.19 210.66,236.22C210.95,237.15 211.23,238.08 211.56,238.87C211.84,239.54 212.12,240.21 212.47,240.69C212.74,241.07 213.05,241.54 213.37,241.59C213.65,241.64 214.01,241.43 214.27,241.16C214.66,240.77 214.9,239.94 215.18,239.19C215.52,238.26 215.79,237.12 216.08,235.99C216.4,234.72 216.7,233.33 216.99,231.93C217.3,230.44 217.6,228.88 217.89,227.29C218.2,225.61 218.5,223.88 218.79,222.1C219.1,220.21 219.4,218.24 219.7,216.26C220.01,214.21 220.3,212.09 220.6,210C220.9,207.89 221.21,205.76 221.51,203.64C221.81,201.53 222.11,199.41 222.41,197.3C222.71,195.2 223.02,193.11 223.32,191.03C223.62,188.96 223.92,186.9 224.22,184.84C224.52,182.78 224.82,180.73 225.12,178.67C225.42,176.6 225.73,174.53 226.03,172.44C226.33,170.32 226.63,168.2 226.93,166.05C227.23,163.86 227.54,161.65 227.84,159.41C228.14,157.13 228.44,154.82 228.74,152.49C229.04,150.12 229.34,147.73 229.64,145.32C229.94,142.88 230.25,140.42 230.55,137.95C230.85,135.46 231.15,132.95 231.45,130.45C231.75,127.94 232.06,125.42 232.36,122.91C232.66,120.41 232.96,117.9 233.26,115.42C233.56,112.96 233.86,110.5 234.16,108.07C234.46,105.67 234.77,103.28 235.07,100.91C235.37,98.59 235.67,96.28 235.97,94C236.27,91.76 236.58,89.55 236.88,87.36C237.18,85.22 237.48,83.09 237.78,81C238.08,78.95 238.37,76.93 238.68,74.93C238.98,72.97 239.28,71.04 239.59,69.13C239.89,67.26 240.18,65.42 240.49,63.6C240.79,61.83 241.09,60.08 241.4,58.37C241.7,56.71 241.99,55.07 242.3,53.47C242.6,51.93 242.9,50.41 243.21,48.94C243.5,47.55 243.8,46.18 244.11,44.88C244.4,43.66 244.69,42.46 245.01,41.35C245.3,40.33 245.6,39.35 245.92,38.46C246.2,37.68 246.49,36.91 246.82,36.28C247.1,35.75 247.39,35.23 247.73,34.89C248,34.62 248.32,34.37 248.63,34.33C248.92,34.3 249.26,34.44 249.53,34.63C249.87,34.87 250.16,35.34 250.44,35.81C250.78,36.38 251.06,37.09 251.34,37.83C251.67,38.68 251.96,39.64 252.25,40.63C252.57,41.72 252.85,42.92 253.15,44.1C253.45,45.31 253.66,46.86 254.05,47.8C254.31,48.44 254.6,48.97 254.96,49.31C255.23,49.57 255.55,49.7 255.86,49.79C256.15,49.87 256.47,49.86 256.77,49.84C257.07,49.82 257.37,49.71 257.67,49.65C257.97,49.59 258.28,49.47 258.58,49.46C258.88,49.45 259.19,49.46 259.48,49.57C259.8,49.69 260.1,49.92 260.38,50.19C260.71,50.51 261.01,50.96 261.29,51.43C261.62,51.98 261.91,52.64 262.19,53.32C262.51,54.1 262.81,54.97 263.1,55.87C263.42,56.87 263.71,57.95 264,59.07C264.31,60.28 264.61,61.56 264.9,62.87C265.21,64.27 265.52,65.74 265.81,67.24C266.12,68.82 266.41,70.45 266.71,72.11C267.02,73.84 267.32,75.62 267.62,77.43C267.93,79.3 268.22,81.22 268.52,83.15C268.82,85.14 269.12,87.17 269.42,89.21C269.73,91.3 270.03,93.43 270.33,95.56C270.63,97.73 270.93,99.92 271.23,102.12C271.53,104.35 271.84,106.6 272.14,108.85C272.44,111.12 272.74,113.39 273.04,115.67C273.34,117.96 273.65,120.25 273.95,122.54C274.25,124.82 274.55,127.1 274.85,129.36C275.15,131.61 275.45,133.86 275.75,136.08C276.05,138.27 276.35,140.45 276.66,142.6C276.96,144.69 277.25,146.78 277.56,148.8C277.86,150.73 278.16,152.66 278.47,154.47C278.76,156.14 279,157.98 279.37,159.27C279.63,160.18 279.85,161.2 280.27,161.52C280.53,161.72 280.88,161.68 281.18,161.63C281.49,161.58 281.79,161.38 282.08,161.19C282.4,160.98 282.7,160.69 282.99,160.39C283.3,160.07 283.6,159.71 283.89,159.31C284.21,158.86 284.51,158.36 284.79,157.8C285.12,157.16 285.39,156.35 285.7,155.66C286,154.99 286.28,154.32 286.6,153.71C286.89,153.15 287.18,152.59 287.51,152.13C287.79,151.73 288.08,151.33 288.41,151.09C288.69,150.88 289.01,150.7 289.32,150.69C289.62,150.68 289.94,150.81 290.22,150.99C290.55,151.21 290.84,151.61 291.12,152.02C291.45,152.51 291.75,153.13 292.03,153.78C292.36,154.52 292.64,155.37 292.93,156.24C293.25,157.2 293.55,158.24 293.84,159.3C294.15,160.44 294.45,161.65 294.74,162.88C295.05,164.17 295.34,165.5 295.64,166.84C295.95,168.21 296.25,169.62 296.55,171.02C296.85,172.43 297.15,173.85 297.45,175.25C297.75,176.62 298.05,178 298.36,179.33C298.66,180.6 298.95,181.86 299.26,183.05C299.55,184.15 299.84,185.23 300.16,186.21C300.45,187.08 300.74,187.94 301.07,188.65C301.35,189.24 301.62,189.83 301.97,190.21C302.24,190.51 302.57,190.8 302.88,190.84C303.17,190.87 303.51,190.7 303.78,190.49C304.13,190.22 304.4,189.71 304.68,189.22C305.01,188.63 305.3,187.91 305.59,187.18C305.91,186.37 306.2,185.47 306.49,184.55C306.8,183.56 307.11,182.52 307.4,181.46C307.71,180.34 308,179.17 308.3,177.98C308.61,176.75 308.91,175.47 309.21,174.2C309.51,172.91 309.81,171.59 310.11,170.3C310.41,169.01 310.71,167.72 311.01,166.46C311.31,165.22 311.61,163.98 311.92,162.79C312.22,161.64 312.51,160.51 312.82,159.43C313.11,158.41 313.42,157.41 313.73,156.47C314.02,155.6 314.31,154.75 314.63,153.97C314.92,153.27 315.21,152.59 315.53,152C315.81,151.48 316.11,150.99 316.44,150.61C316.72,150.29 317.02,149.99 317.34,149.85C317.63,149.73 317.96,149.68 318.25,149.75C318.56,149.82 318.87,150.05 319.15,150.31C319.48,150.62 319.77,151.07 320.05,151.53C320.38,152.07 320.67,152.72 320.96,153.39C321.28,154.15 321.57,155 321.86,155.87C322.18,156.83 322.48,157.85 322.77,158.91C323.08,160.04 323.38,161.24 323.67,162.46C323.98,163.75 324.28,165.1 324.58,166.46C324.89,167.88 325.18,169.34 325.48,170.82C325.78,172.34 326.08,173.91 326.38,175.47C326.68,177.06 326.99,178.67 327.29,180.28C327.59,181.9 327.89,183.53 328.19,185.14C328.49,186.74 328.79,188.34 329.1,189.91C329.4,191.45 329.69,192.98 330,194.46C330.29,195.89 330.59,197.3 330.9,198.65C331.19,199.93 331.5,201.18 331.81,202.37C332.1,203.48 332.39,204.58 332.71,205.58C333,206.48 333.26,207.44 333.62,208.1C333.89,208.58 334.2,208.92 334.52,209.25C334.81,209.55 335.11,209.78 335.42,210.01C335.72,210.23 336.03,210.4 336.33,210.59C336.63,210.78 336.93,210.94 337.23,211.14C337.54,211.35 337.85,211.56 338.14,211.81C338.45,212.08 338.75,212.38 339.04,212.72C339.36,213.09 339.66,213.51 339.95,213.97C340.27,214.47 340.53,215.15 340.85,215.63C341.13,216.05 341.47,216.32 341.75,216.74C342.07,217.21 342.37,217.76 342.66,218.34C342.98,219 343.27,219.74 343.56,220.51C343.88,221.37 344.18,222.3 344.47,223.27C344.79,224.33 345.08,225.46 345.37,226.63C345.68,227.89 345.98,229.21 346.27,230.56C346.58,232 346.88,233.5 347.18,235.02C347.49,236.62 347.78,238.27 348.08,239.93C348.39,241.65 348.69,243.4 348.99,245.16C349.29,246.95 349.59,248.76 349.89,250.56C350.19,252.36 350.48,254.19 350.79,255.97C351.09,257.71 351.39,259.47 351.7,261.14C351.99,262.72 352.29,264.27 352.6,265.76C352.89,267.17 353.2,268.54 353.51,269.87C353.8,271.12 354.09,272.37 354.41,273.5C354.7,274.52 354.96,275.6 355.32,276.37C355.59,276.94 355.92,277.78 356.22,277.78C356.52,277.78 356.86,276.99 357.12,276.4C357.51,275.52 357.75,274.15 358.03,272.88C358.36,271.4 358.65,269.77 358.93,268.03C359.26,266 359.55,263.75 359.84,261.43C360.16,258.87 360.45,256.08 360.74,253.32C361.05,250.44 361.34,247.45 361.64,244.47C361.94,241.43 362.25,238.34 362.55,235.27C362.85,232.21 363.15,229.12 363.45,226.08C363.75,223.07 364.05,220.07 364.36,217.11C364.66,214.22 364.95,211.35 365.26,208.54C365.56,205.82 365.85,203.14 366.16,200.52C366.46,198.01 366.76,195.54 367.07,193.15C367.36,190.89 367.66,188.67 367.97,186.55C368.26,184.57 368.56,182.63 368.88,180.8C369.17,179.12 369.46,177.49 369.78,175.98C370.07,174.62 370.35,173.31 370.68,172.14C370.96,171.13 371.25,170.15 371.59,169.34C371.87,168.67 372.14,168.01 372.49,167.58C372.76,167.25 373.08,166.93 373.4,166.86C373.69,166.8 374.02,166.92 374.3,167.07C374.63,167.25 374.93,167.6 375.21,167.95C375.54,168.35 375.83,168.84 376.11,169.37C376.44,169.99 376.73,170.72 377.01,171.48C377.33,172.35 377.63,173.32 377.92,174.33C378.24,175.45 378.53,176.65 378.82,177.89C379.13,179.23 379.44,180.65 379.73,182.09C380.04,183.61 380.33,185.2 380.63,186.78C380.93,188.4 381.23,190.07 381.53,191.7C381.83,193.31 382.13,194.93 382.44,196.49C382.74,198 383.03,199.47 383.34,200.92C383.64,202.31 383.94,203.7 384.25,205.02C384.54,206.27 384.83,207.53 385.15,208.66C385.43,209.66 385.67,210.75 386.05,211.45C386.32,211.95 386.68,212.63 386.96,212.6C387.29,212.57 387.6,211.6 387.86,210.85C388.26,209.68 388.48,207.8 388.77,206.14C389.09,204.28 389.38,202.27 389.67,200.22C389.98,198 390.29,195.67 390.58,193.29C390.89,190.77 391.19,188.16 391.48,185.51C391.79,182.75 392.08,179.91 392.38,177.05C392.69,174.12 392.99,171.13 393.29,168.16C393.59,165.16 393.89,162.14 394.19,159.14C394.49,156.16 394.8,153.17 395.1,150.23C395.4,147.35 395.7,144.48 396,141.67C396.3,138.94 396.59,136.24 396.9,133.6C397.2,131.07 397.5,128.57 397.81,126.15C398.1,123.84 398.4,121.58 398.71,119.4C399,117.34 399.31,115.33 399.62,113.4C399.91,111.6 400.21,109.85 400.52,108.18C400.81,106.64 401.1,105.15 401.42,103.74C401.71,102.46 402.01,101.22 402.33,100.07C402.62,99.04 402.91,98.05 403.23,97.15C403.52,96.36 403.81,95.59 404.14,94.94C404.42,94.38 404.71,93.85 405.04,93.45C405.32,93.11 405.62,92.79 405.95,92.64C406.23,92.51 406.56,92.47 406.85,92.53C407.16,92.6 407.47,92.83 407.75,93.09C408.09,93.4 408.38,93.86 408.66,94.34C408.99,94.89 409.28,95.55 409.56,96.24C409.88,97.02 410.18,97.9 410.47,98.8C410.79,99.8 411.08,100.87 411.37,101.97C411.68,103.17 411.98,104.43 412.27,105.73C412.58,107.11 412.89,108.55 413.18,110.02C413.49,111.57 413.78,113.17 414.08,114.79C414.39,116.47 414.69,118.19 414.99,119.93C415.3,121.71 415.59,123.54 415.89,125.35C416.19,127.15 416.47,129.07 416.79,130.76C417.08,132.27 417.4,133.6 417.7,135.02C418,136.43 418.29,137.9 418.6,139.25C418.89,140.51 419.2,141.69 419.51,142.89C419.81,144.05 420.11,145.17 420.41,146.33C420.72,147.52 421.02,148.73 421.32,149.96C421.63,151.23 421.92,152.51 422.22,153.82C422.52,155.16 422.82,156.53 423.12,157.91C423.43,159.33 423.73,160.77 424.03,162.23C424.34,163.73 424.63,165.24 424.93,166.78C425.24,168.35 425.54,169.94 425.84,171.55C426.15,173.19 426.44,174.86 426.74,176.54C427.04,178.26 427.34,180 427.64,181.76C427.94,183.55 428.25,185.36 428.55,187.18C428.85,189.02 429.15,190.89 429.45,192.73C429.75,194.56 430.05,196.42 430.36,198.21C430.66,199.93 430.95,201.61 431.26,203.26C431.55,204.85 431.86,206.4 432.16,207.95C432.46,209.48 432.77,211 433.07,212.52C433.37,214.03 433.67,215.52 433.97,217.02C434.27,218.51 434.58,219.99 434.88,221.47C435.18,222.94 435.48,224.41 435.78,225.87C436.08,227.31 436.38,228.75 436.68,230.17C436.98,231.56 437.28,232.95 437.59,234.31C437.89,235.63 438.18,236.95 438.49,238.22C438.79,239.44 439.09,240.65 439.4,241.81C439.69,242.91 439.98,244.01 440.3,245.02C440.59,245.95 440.89,246.85 441.21,247.66C441.5,248.38 441.8,249.03 442.11,249.67C442.4,250.27 442.7,250.83 443.01,251.38C443.31,251.91 443.61,252.43 443.92,252.93C444.22,253.41 444.51,253.88 444.82,254.32C445.12,254.75 445.42,255.16 445.73,255.55C446.02,255.92 446.32,256.28 446.63,256.6C446.92,256.9 447.21,257.2 447.53,257.4C447.82,257.59 448.13,257.69 448.44,257.8C448.74,257.9 449.04,257.98 449.34,258.03C449.64,258.08 449.95,258.11 450.25,258.12C450.55,258.13 450.85,258.13 451.15,258.11C451.45,258.09 451.75,258.06 452.05,258.02C452.35,257.98 452.66,257.94 452.96,257.89C453.26,257.85 453.56,257.79 453.86,257.75C454.16,257.71 454.47,257.66 454.77,257.63C455.07,257.6 455.37,257.58 455.67,257.57C455.97,257.56 456.28,257.57 456.58,257.59C456.88,257.61 457.18,257.65 457.48,257.7C457.78,257.76 458.08,257.83 458.38,257.92C458.68,258.01 458.99,258.11 459.29,258.23C459.59,258.35 459.89,258.49 460.19,258.63C460.49,258.77 460.8,258.92 461.1,259.05Q461.4,259.18 462,259.4" style="vector-effect: non-scaling-stroke; fill: none; stroke: rgb(0, 100, 80); stroke-opacity: 1; stroke-width: 2px; opacity: 1;"/></g><g class="points"/><g class="text"/></g><g class="trace scatter trace2cf1d2" style="stroke-miterlimit: 2; opacity: 1;"><g class="fills"/><g class="errorbars"/><g class="lines"><path class="js-line" d="M0,228.96Q0.6,228.98 0.9,229.03C1.2,229.08 1.51,229.15 1.81,229.26C2.12,229.38 2.42,229.54 2.71,229.74C3.02,229.95 3.33,230.21 3.62,230.5C3.93,230.81 4.23,231.17 4.52,231.55C4.83,231.96 5.13,232.42 5.42,232.9C5.73,233.41 6.04,233.95 6.33,234.51C6.64,235.1 6.93,235.72 7.23,236.35C7.54,237 7.84,237.68 8.14,238.36C8.44,239.05 8.74,239.77 9.04,240.47C9.34,241.17 9.64,241.88 9.95,242.57C10.25,243.24 10.53,243.92 10.85,244.53C11.14,245.08 11.41,245.68 11.75,246.06C12.03,246.37 12.35,246.7 12.66,246.74C12.95,246.78 13.28,246.59 13.56,246.39C13.9,246.15 14.18,245.72 14.47,245.31C14.79,244.85 15.08,244.29 15.37,243.73C15.69,243.11 15.98,242.43 16.27,241.74C16.58,241 16.88,240.22 17.18,239.43C17.49,238.61 17.78,237.75 18.08,236.89C18.39,236 18.69,235.09 18.99,234.18C19.29,233.26 19.59,232.32 19.89,231.38C20.19,230.44 20.49,229.49 20.79,228.55C21.09,227.61 21.4,226.66 21.7,225.72C22,224.79 22.3,223.87 22.6,222.95C22.9,222.05 23.21,221.15 23.51,220.26C23.81,219.39 24.1,218.52 24.41,217.67C24.71,216.84 25.01,216.02 25.32,215.21C25.62,214.42 25.91,213.65 26.22,212.89C26.51,212.16 26.81,211.44 27.12,210.75C27.42,210.08 27.72,209.43 28.03,208.8C28.33,208.2 28.62,207.6 28.93,207.04C29.23,206.5 29.53,205.98 29.84,205.48C30.13,205 30.43,204.55 30.74,204.11C31.03,203.69 31.33,203.29 31.64,202.9C31.94,202.52 32.25,202.17 32.55,201.81C32.85,201.45 33.15,201.11 33.45,200.75C33.75,200.39 34.06,200.03 34.36,199.64C34.67,199.24 34.97,198.82 35.26,198.38C35.57,197.91 35.87,197.41 36.16,196.89C36.47,196.34 36.77,195.75 37.07,195.15C37.38,194.52 37.67,193.87 37.97,193.21C38.28,192.53 38.58,191.83 38.88,191.13C39.18,190.42 39.48,189.69 39.78,188.96C40.08,188.22 40.38,187.48 40.68,186.74C40.98,185.99 41.29,185.24 41.59,184.49C41.89,183.74 42.19,182.98 42.49,182.23C42.79,181.47 43.1,180.72 43.4,179.96C43.7,179.21 44,178.45 44.3,177.7C44.6,176.96 44.91,176.21 45.21,175.48C45.51,174.76 45.81,174.03 46.11,173.33C46.41,172.64 46.7,171.96 47.01,171.3C47.31,170.66 47.61,170.03 47.92,169.43C48.21,168.86 48.51,168.3 48.82,167.78C49.11,167.28 49.42,166.8 49.73,166.36C50.02,165.94 50.32,165.55 50.63,165.19C50.92,164.86 51.22,164.54 51.53,164.27C51.82,164.01 52.13,163.79 52.44,163.59C52.73,163.4 53.03,163.24 53.34,163.1C53.64,162.96 53.95,162.84 54.25,162.74C54.55,162.64 54.85,162.55 55.15,162.48C55.45,162.41 55.75,162.36 56.05,162.33C56.35,162.3 56.66,162.3 56.96,162.32C57.26,162.34 57.56,162.39 57.86,162.47C58.17,162.55 58.47,162.66 58.77,162.78C59.07,162.91 59.37,163.06 59.67,163.22C59.98,163.39 60.28,163.57 60.58,163.76C60.88,163.96 61.18,164.17 61.48,164.39C61.78,164.62 62.08,164.87 62.38,165.12C62.69,165.38 62.99,165.65 63.29,165.93C63.59,166.22 63.89,166.51 64.19,166.82C64.5,167.14 64.8,167.47 65.1,167.81C65.4,168.15 65.7,168.5 66,168.86C66.3,169.22 66.6,169.59 66.9,169.96C67.2,170.34 67.51,170.72 67.81,171.1C68.11,171.49 68.41,171.88 68.71,172.27C69.01,172.66 69.32,173.04 69.62,173.43C69.92,173.82 70.22,174.22 70.52,174.61C70.82,175.01 71.12,175.4 71.42,175.8C71.72,176.21 72.03,176.62 72.33,177.04C72.63,177.47 72.93,177.9 73.23,178.35C73.54,178.81 73.84,179.29 74.14,179.78C74.45,180.29 74.75,180.83 75.04,181.38C75.35,181.96 75.66,182.56 75.95,183.19C76.26,183.85 76.56,184.55 76.85,185.27C77.16,186.03 77.46,186.83 77.75,187.65C78.06,188.52 78.37,189.43 78.66,190.37C78.97,191.36 79.27,192.39 79.56,193.44C79.87,194.55 80.17,195.7 80.47,196.88C80.78,198.11 81.08,199.38 81.37,200.67C81.68,202.01 81.97,203.39 82.27,204.79C82.58,206.23 82.88,207.69 83.18,209.17C83.48,210.67 83.78,212.21 84.08,213.73C84.38,215.25 84.68,216.8 84.99,218.3C85.29,219.75 85.58,221.22 85.89,222.57C86.18,223.81 86.47,224.98 86.79,226.1C87.08,227.12 87.39,228.07 87.7,229.01C87.99,229.91 88.29,230.78 88.6,231.64C88.9,232.47 89.2,233.29 89.51,234.06C89.8,234.79 90.09,235.51 90.41,236.16C90.7,236.74 90.99,237.3 91.32,237.77C91.6,238.18 91.89,238.57 92.22,238.83C92.5,239.05 92.85,239.37 93.12,239.3C93.47,239.21 93.77,238.47 94.03,237.87C94.41,237.01 94.63,235.67 94.93,234.53C95.24,233.34 95.54,232.1 95.84,230.87C96.14,229.63 96.44,228.38 96.74,227.13C97.04,225.88 97.34,224.61 97.64,223.36C97.94,222.11 98.25,220.87 98.55,219.62C98.85,218.38 99.15,217.14 99.45,215.9C99.75,214.65 100.06,213.42 100.36,212.14C100.67,210.82 100.97,209.49 101.26,208.11C101.57,206.67 101.86,205.16 102.16,203.67C102.46,202.17 102.76,200.63 103.07,199.14C103.37,197.69 103.66,196.25 103.97,194.87C104.26,193.56 104.57,192.28 104.88,191.07C105.17,189.94 105.46,188.84 105.78,187.83C106.07,186.92 106.36,186.04 106.68,185.25C106.96,184.56 107.26,183.89 107.59,183.35C107.87,182.9 108.15,182.45 108.49,182.19C108.77,181.97 109.1,181.79 109.4,181.79C109.7,181.79 110.02,181.95 110.3,182.16C110.64,182.42 110.93,182.86 111.21,183.31C111.55,183.85 111.83,184.53 112.11,185.24C112.43,186.05 112.72,186.97 113.01,187.93C113.33,189 113.63,190.16 113.92,191.36C114.24,192.67 114.53,194.06 114.82,195.49C115.13,197.02 115.44,198.63 115.73,200.27C116.04,202.01 116.34,203.81 116.63,205.64C116.94,207.55 117.23,209.52 117.53,211.51C117.84,213.56 118.14,215.65 118.44,217.75C118.74,219.88 119.04,222.05 119.34,224.19C119.64,226.32 119.94,228.47 120.25,230.56C120.55,232.59 120.84,234.62 121.15,236.55C121.44,238.36 121.73,240.17 122.05,241.82C122.34,243.29 122.61,244.78 122.96,245.97C123.23,246.9 123.43,248.01 123.86,248.39C124.12,248.62 124.51,248.72 124.77,248.6C125.16,248.42 125.4,247.51 125.67,246.8C126.02,245.88 126.3,244.67 126.58,243.49C126.9,242.14 127.19,240.64 127.48,239.13C127.79,237.5 128.09,235.78 128.38,234.04C128.69,232.21 128.99,230.33 129.29,228.41C129.6,226.42 129.89,224.36 130.19,222.3C130.5,220.19 130.8,218.04 131.1,215.89C131.4,213.72 131.7,211.52 132,209.33C132.3,207.13 132.6,204.93 132.9,202.73C133.2,200.54 133.51,198.34 133.81,196.16C134.11,194 134.41,191.84 134.71,189.7C135.01,187.58 135.32,185.47 135.62,183.38C135.92,181.33 136.22,179.28 136.52,177.27C136.82,175.3 137.11,173.34 137.42,171.42C137.72,169.55 138.02,167.69 138.33,165.88C138.63,164.12 138.92,162.39 139.23,160.7C139.53,159.08 139.83,157.48 140.14,155.93C140.43,154.45 140.73,153 141.04,151.6C141.33,150.28 141.64,148.99 141.95,147.76C142.24,146.61 142.54,145.48 142.85,144.42C143.14,143.44 143.43,142.49 143.75,141.61C144.04,140.81 144.34,140.04 144.66,139.34C144.95,138.72 145.23,138.13 145.56,137.63C145.84,137.19 146.14,136.77 146.47,136.47C146.75,136.21 147.06,135.98 147.37,135.88C147.66,135.79 147.98,135.77 148.27,135.84C148.58,135.91 148.9,136.11 149.18,136.34C149.51,136.6 149.8,136.98 150.08,137.37C150.4,137.82 150.7,138.36 150.99,138.92C151.31,139.55 151.6,140.25 151.89,140.97C152.2,141.76 152.5,142.61 152.79,143.49C153.1,144.44 153.41,145.45 153.7,146.48C154.01,147.58 154.31,148.73 154.6,149.9C154.91,151.14 155.21,152.43 155.51,153.74C155.82,155.11 156.11,156.53 156.41,157.97C156.72,159.47 157.02,161 157.32,162.55C157.63,164.15 157.92,165.79 158.22,167.45C158.52,169.15 158.82,170.88 159.12,172.61C159.42,174.37 159.73,176.17 160.03,177.94C160.33,179.69 160.62,181.5 160.93,183.18C161.22,184.74 161.51,186.3 161.84,187.69C162.12,188.89 162.42,190 162.74,191.03C163.02,191.94 163.32,192.78 163.64,193.58C163.93,194.31 164.24,194.98 164.55,195.66C164.85,196.31 165.15,196.93 165.45,197.58C165.75,198.23 166.06,198.88 166.36,199.56C166.67,200.26 166.97,200.97 167.26,201.71C167.57,202.49 167.87,203.29 168.16,204.11C168.47,204.97 168.77,205.87 169.07,206.78C169.38,207.74 169.67,208.72 169.97,209.73C170.28,210.78 170.58,211.87 170.88,212.97C171.19,214.11 171.48,215.28 171.78,216.47C172.09,217.7 172.38,218.96 172.68,220.23C172.99,221.53 173.29,222.86 173.59,224.2C173.89,225.56 174.19,226.94 174.49,228.33C174.79,229.73 175.1,231.15 175.4,232.56C175.7,233.97 176,235.39 176.3,236.8C176.6,238.19 176.9,239.59 177.21,240.95C177.51,242.27 177.79,243.61 178.11,244.83C178.4,245.92 178.65,247.09 179.01,247.92C179.28,248.53 179.55,249.15 179.92,249.41C180.19,249.6 180.55,249.71 180.82,249.59C181.19,249.43 181.47,248.72 181.73,248.06C182.13,247.04 182.33,245.31 182.63,243.91C182.93,242.47 183.23,240.98 183.53,239.52C183.83,238.07 184.13,236.62 184.44,235.2C184.74,233.81 185.03,232.44 185.34,231.1C185.64,229.81 185.94,228.54 186.25,227.31C186.54,226.14 186.84,224.99 187.15,223.88C187.44,222.83 187.74,221.81 188.05,220.84C188.34,219.93 188.65,219.04 188.96,218.2C189.25,217.42 189.55,216.67 189.86,215.97C190.15,215.32 190.45,214.7 190.77,214.13C191.06,213.61 191.35,213.11 191.67,212.66C191.96,212.25 192.26,211.87 192.58,211.54C192.87,211.24 193.17,210.97 193.48,210.74C193.77,210.53 194.07,210.35 194.38,210.22C194.67,210.1 194.98,210.02 195.29,209.98C195.59,209.94 195.89,209.95 196.19,209.99C196.5,210.03 196.8,210.12 197.1,210.24C197.41,210.36 197.71,210.53 198,210.72C198.31,210.92 198.61,211.15 198.9,211.4C199.21,211.67 199.52,211.97 199.81,212.29C200.12,212.63 200.42,212.99 200.71,213.37C201.02,213.78 201.33,214.21 201.62,214.66C201.93,215.14 202.23,215.65 202.52,216.18C202.83,216.74 203.13,217.33 203.42,217.94C203.73,218.59 204.04,219.26 204.33,219.96C204.64,220.7 204.94,221.46 205.23,222.25C205.54,223.07 205.84,223.92 206.14,224.79C206.45,225.69 206.74,226.62 207.04,227.56C207.35,228.53 207.65,229.53 207.95,230.52C208.25,231.52 208.54,232.56 208.85,233.54C209.14,234.48 209.4,235.51 209.75,236.28C210.02,236.89 210.3,237.48 210.66,237.83C210.93,238.1 211.25,238.32 211.56,238.35C211.86,238.38 212.2,238.27 212.47,238.07C212.82,237.82 213.1,237.32 213.37,236.81C213.72,236.15 213.99,235.27 214.27,234.36C214.6,233.27 214.9,232.02 215.18,230.72C215.5,229.23 215.79,227.6 216.08,225.92C216.4,224.07 216.7,222.08 216.99,220.06C217.3,217.9 217.6,215.63 217.89,213.34C218.2,210.96 218.49,208.5 218.79,206.04C219.09,203.53 219.4,200.97 219.7,198.42C220,195.85 220.3,193.26 220.6,190.68C220.9,188.11 221.21,185.53 221.51,182.98C221.81,180.45 222.11,177.92 222.41,175.42C222.71,172.95 223.02,170.5 223.32,168.08C223.62,165.71 223.92,163.37 224.22,161.03C224.52,158.7 224.83,156.46 225.12,154.08C225.43,151.58 225.73,148.97 226.03,146.38C226.33,143.73 226.63,141.06 226.93,138.36C227.23,135.62 227.54,132.85 227.84,130.06C228.14,127.23 228.44,124.35 228.74,121.49C229.04,118.63 229.34,115.76 229.64,112.92C229.94,110.11 230.25,107.31 230.55,104.55C230.85,101.84 231.14,99.15 231.45,96.49C231.75,93.89 232.05,91.32 232.36,88.78C232.66,86.31 232.96,83.87 233.26,81.47C233.56,79.15 233.85,76.86 234.16,74.61C234.46,72.44 234.76,70.3 235.07,68.21C235.37,66.2 235.66,64.23 235.97,62.31C236.27,60.46 236.57,58.66 236.88,56.89C237.18,55.19 237.48,53.54 237.78,51.89C238.08,50.27 238.38,48.69 238.68,47.07C238.98,45.41 239.29,43.74 239.59,42.05C239.89,40.32 240.19,38.54 240.49,36.81C240.79,35.1 241.09,33.37 241.4,31.72C241.69,30.15 241.99,28.6 242.3,27.14C242.59,25.79 242.89,24.46 243.21,23.24C243.5,22.14 243.79,21.09 244.11,20.14C244.39,19.32 244.67,18.52 245.01,17.87C245.29,17.34 245.57,16.81 245.92,16.49C246.19,16.24 246.52,16.01 246.82,16C247.12,15.99 247.46,16.19 247.73,16.42C248.08,16.71 248.35,17.23 248.63,17.75C248.97,18.38 249.25,19.17 249.53,19.98C249.86,20.92 250.15,21.98 250.44,23.08C250.76,24.31 251.05,25.65 251.34,27.03C251.66,28.54 251.96,30.14 252.25,31.78C252.56,33.54 252.86,35.38 253.15,37.26C253.46,39.25 253.75,41.33 254.05,43.43C254.36,45.63 254.66,47.88 254.96,50.17C255.27,52.53 255.56,54.96 255.86,57.39C256.17,59.88 256.47,62.41 256.77,64.94C257.07,67.51 257.37,70.11 257.67,72.69C257.97,75.27 258.28,77.86 258.58,80.42C258.88,82.94 259.18,85.47 259.48,87.94C259.78,90.33 260.07,92.7 260.38,94.99C260.67,97.16 260.98,99.31 261.29,101.34C261.58,103.22 261.87,105.06 262.19,106.76C262.48,108.29 262.77,109.76 263.1,111.09C263.38,112.24 263.67,113.34 264,114.28C264.28,115.07 264.56,115.81 264.9,116.39C265.18,116.86 265.47,117.3 265.81,117.57C266.09,117.79 266.4,117.95 266.71,118C267.01,118.05 267.33,117.98 267.62,117.88C267.93,117.78 268.23,117.57 268.52,117.37C268.83,117.16 269.12,116.88 269.42,116.62C269.73,116.35 270.03,116.04 270.33,115.75C270.63,115.46 270.92,115.15 271.23,114.87C271.53,114.59 271.83,114.32 272.14,114.08C272.43,113.85 272.73,113.63 273.04,113.47C273.33,113.31 273.64,113.18 273.95,113.11C274.25,113.05 274.55,113.02 274.85,113.06C275.15,113.1 275.46,113.2 275.75,113.35C276.07,113.51 276.37,113.75 276.66,114.01C276.98,114.3 277.27,114.66 277.56,115.04C277.88,115.46 278.18,115.93 278.47,116.43C278.79,116.97 279.08,117.57 279.37,118.19C279.68,118.85 279.98,119.56 280.27,120.29C280.58,121.07 280.89,121.88 281.18,122.72C281.49,123.6 281.78,124.53 282.08,125.44C282.38,126.35 282.58,127.61 282.99,128.19C283.25,128.56 283.59,128.66 283.89,128.9C284.19,129.13 284.49,129.36 284.79,129.6C285.09,129.84 285.4,130.08 285.7,130.34C286.01,130.61 286.31,130.89 286.6,131.22C286.92,131.58 287.22,131.98 287.51,132.41C287.82,132.88 288.12,133.39 288.41,133.92C288.72,134.49 289.02,135.1 289.32,135.72C289.63,136.36 289.92,137.02 290.22,137.69C290.53,138.38 290.82,139.09 291.12,139.82C291.43,140.58 291.74,141.36 292.03,142.17C292.34,143.04 292.64,143.93 292.93,144.87C293.24,145.87 293.55,146.91 293.84,147.99C294.15,149.15 294.45,150.36 294.74,151.6C295.05,152.92 295.35,154.29 295.64,155.69C295.95,157.17 296.25,158.69 296.55,160.25C296.86,161.88 297.15,163.55 297.45,165.25C297.76,167.01 298.06,168.81 298.36,170.64C298.67,172.52 298.96,174.45 299.26,176.39C299.56,178.38 299.86,180.4 300.16,182.43C300.46,184.5 300.77,186.6 301.07,188.71C301.37,190.85 301.64,193.18 301.97,195.17C302.25,196.88 302.58,198.34 302.88,199.93C303.18,201.53 303.48,203.13 303.78,204.73C304.08,206.33 304.38,207.95 304.68,209.55C304.98,211.14 305.28,212.76 305.59,214.32C305.89,215.83 306.17,217.37 306.49,218.76C306.78,220.01 307.09,221.16 307.4,222.29C307.69,223.34 307.99,224.33 308.3,225.32C308.6,226.29 308.9,227.24 309.21,228.17C309.51,229.08 309.8,229.98 310.11,230.85C310.4,231.69 310.7,232.52 311.01,233.32C311.31,234.09 311.61,234.84 311.92,235.56C312.21,236.23 312.5,236.9 312.82,237.5C313.11,238.05 313.41,238.59 313.73,239.05C314.01,239.45 314.31,239.83 314.63,240.11C314.91,240.36 315.22,240.54 315.53,240.68C315.82,240.82 316.14,240.87 316.44,240.96C316.74,241.05 317.04,241.11 317.34,241.21C317.65,241.32 317.96,241.43 318.25,241.59C318.56,241.76 318.86,241.97 319.15,242.22C319.46,242.49 319.76,242.8 320.05,243.15C320.37,243.53 320.67,243.96 320.96,244.42C321.27,244.91 321.57,245.46 321.86,246.02C322.17,246.63 322.48,247.29 322.77,247.96C323.08,248.67 323.38,249.42 323.67,250.19C323.98,250.99 324.28,251.83 324.58,252.67C324.89,253.54 325.18,254.45 325.48,255.35C325.78,256.27 326.08,257.21 326.38,258.13C326.68,259.05 326.98,259.97 327.29,260.87C327.59,261.74 327.88,262.61 328.19,263.42C328.48,264.17 328.77,264.91 329.1,265.55C329.38,266.1 329.66,266.66 330,267.05C330.28,267.37 330.58,267.67 330.9,267.8C331.19,267.91 331.52,267.92 331.81,267.85C332.12,267.78 332.43,267.57 332.71,267.35C333.03,267.1 333.33,266.75 333.62,266.38C333.94,265.97 334.23,265.49 334.52,264.99C334.83,264.44 335.13,263.84 335.42,263.22C335.73,262.56 336.03,261.85 336.33,261.14C336.64,260.4 336.93,259.63 337.23,258.86C337.54,258.07 337.84,257.26 338.14,256.44C338.45,255.6 338.74,254.75 339.04,253.88C339.35,252.98 339.65,252.07 339.95,251.14C340.26,250.17 340.55,249.18 340.85,248.18C341.15,247.17 341.45,246.13 341.75,245.11C342.05,244.1 342.35,243.08 342.66,242.1C342.96,241.15 343.25,240.21 343.56,239.3C343.86,238.43 344.16,237.58 344.47,236.77C344.76,236.01 345.06,235.27 345.37,234.57C345.66,233.92 345.96,233.29 346.27,232.71C346.56,232.17 346.87,231.66 347.18,231.18C347.47,230.74 347.77,230.33 348.08,229.94C348.37,229.58 348.68,229.24 348.99,228.92C349.29,228.61 349.59,228.32 349.89,228.03C350.19,227.74 350.49,227.47 350.79,227.19C351.09,226.91 351.4,226.63 351.7,226.36C352,226.09 352.3,225.82 352.6,225.56C352.9,225.31 353.2,225.05 353.51,224.82C353.81,224.6 354.1,224.38 354.41,224.19C354.71,224 355.01,223.84 355.32,223.68C355.62,223.53 355.92,223.4 356.22,223.26C356.52,223.12 356.82,223.01 357.12,222.86C357.43,222.71 357.74,222.56 358.03,222.36C358.34,222.15 358.64,221.92 358.93,221.64C359.25,221.34 359.55,220.99 359.84,220.61C360.16,220.19 360.45,219.71 360.74,219.21C361.05,218.67 361.35,218.08 361.64,217.47C361.95,216.82 362.25,216.14 362.55,215.44C362.86,214.72 363.15,213.97 363.45,213.21C363.76,212.43 364.06,211.62 364.36,210.81C364.66,209.98 364.96,209.14 365.26,208.29C365.56,207.43 365.86,206.56 366.16,205.69C366.46,204.81 366.77,203.92 367.07,203.03C367.37,202.14 367.67,201.24 367.97,200.34C368.27,199.44 368.58,198.55 368.88,197.65C369.18,196.75 369.48,195.86 369.78,194.96C370.08,194.06 370.38,193.15 370.68,192.24C370.98,191.32 371.29,190.39 371.59,189.45C371.89,188.49 372.19,187.53 372.49,186.55C372.79,185.56 373.1,184.55 373.4,183.54C373.7,182.52 374,181.5 374.3,180.47C374.6,179.44 374.91,178.39 375.21,177.36C375.51,176.33 375.81,175.3 376.11,174.29C376.41,173.29 376.7,172.3 377.01,171.33C377.31,170.39 377.61,169.46 377.92,168.57C378.21,167.72 378.51,166.88 378.82,166.09C379.11,165.34 379.42,164.62 379.73,163.94C380.02,163.32 380.31,162.71 380.63,162.17C380.92,161.68 381.21,161.21 381.53,160.82C381.82,160.47 382.12,160.14 382.44,159.9C382.73,159.69 383.03,159.5 383.34,159.42C383.63,159.34 383.95,159.33 384.25,159.38C384.56,159.43 384.86,159.58 385.15,159.75C385.47,159.94 385.76,160.22 386.05,160.51C386.37,160.83 386.67,161.22 386.96,161.61C387.27,162.03 387.57,162.5 387.86,162.97C388.17,163.46 388.47,163.99 388.77,164.51C389.07,165.03 389.36,165.57 389.67,166.08C389.97,166.57 390.27,167.07 390.58,167.51C390.87,167.92 391.16,168.33 391.48,168.65C391.76,168.94 392.06,169.2 392.38,169.37C392.67,169.52 392.99,169.62 393.29,169.64C393.59,169.66 393.9,169.58 394.19,169.47C394.5,169.35 394.81,169.12 395.1,168.89C395.41,168.64 395.71,168.32 396,168C396.31,167.65 396.61,167.26 396.9,166.87C397.21,166.46 397.51,166.02 397.81,165.57C398.12,165.11 398.41,164.64 398.71,164.16C399.01,163.67 399.32,163.18 399.62,162.68C399.92,162.18 400.22,161.66 400.52,161.15C400.82,160.63 401.12,160.11 401.42,159.58C401.72,159.05 402.03,158.52 402.33,157.99C402.63,157.46 402.93,156.93 403.23,156.41C403.53,155.89 403.84,155.37 404.14,154.86C404.44,154.36 404.73,153.86 405.04,153.38C405.34,152.91 405.64,152.45 405.95,152.01C406.25,151.59 406.54,151.17 406.85,150.78C407.14,150.41 407.44,150.06 407.75,149.75C408.04,149.45 408.35,149.17 408.66,148.94C408.95,148.73 409.25,148.53 409.56,148.4C409.85,148.27 410.17,148.18 410.47,148.15C410.77,148.12 411.08,148.15 411.37,148.23C411.68,148.31 411.98,148.46 412.27,148.65C412.59,148.86 412.89,149.14 413.18,149.45C413.5,149.79 413.79,150.21 414.08,150.64C414.4,151.12 414.7,151.66 414.99,152.22C415.31,152.84 415.6,153.51 415.89,154.21C416.2,154.96 416.5,155.76 416.79,156.59C417.1,157.48 417.41,158.41 417.7,159.36C418.01,160.37 418.31,161.42 418.6,162.49C418.91,163.62 419.21,164.78 419.51,165.96C419.82,167.19 420.11,168.45 420.41,169.73C420.72,171.05 421.02,172.39 421.32,173.75C421.63,175.14 421.92,176.55 422.22,177.97C422.52,179.41 422.82,180.86 423.12,182.32C423.42,183.79 423.73,185.28 424.03,186.77C424.33,188.27 424.63,189.79 424.93,191.3C425.23,192.82 425.54,194.35 425.84,195.89C426.14,197.44 426.44,199 426.74,200.56C427.04,202.13 427.34,203.71 427.64,205.3C427.94,206.9 428.25,208.5 428.55,210.11C428.85,211.72 429.15,213.34 429.45,214.94C429.75,216.52 430.05,218.12 430.36,219.66C430.66,221.13 430.94,222.6 431.26,223.96C431.55,225.19 431.84,226.36 432.16,227.46C432.45,228.46 432.62,229.87 433.07,230.29C433.32,230.52 433.69,230.59 433.97,230.5C434.31,230.39 434.58,229.82 434.88,229.48C435.18,229.15 435.48,228.81 435.78,228.49C436.08,228.17 436.38,227.85 436.68,227.55C436.98,227.25 437.28,226.97 437.59,226.69C437.89,226.42 438.18,226.16 438.49,225.92C438.79,225.69 439.09,225.47 439.4,225.27C439.7,225.08 439.99,224.89 440.3,224.74C440.6,224.59 440.9,224.47 441.21,224.37C441.51,224.28 441.81,224.2 442.11,224.16C442.41,224.12 442.71,224.11 443.01,224.13C443.31,224.15 443.62,224.21 443.92,224.29C444.23,224.38 444.53,224.5 444.82,224.65C445.13,224.81 445.44,225 445.73,225.21C446.04,225.43 446.34,225.69 446.63,225.97C446.94,226.26 447.24,226.58 447.53,226.92C447.84,227.28 448.14,227.66 448.44,228.06C448.75,228.48 449.04,228.92 449.34,229.38C449.65,229.86 449.95,230.35 450.25,230.86C450.56,231.39 450.85,231.94 451.15,232.5C451.45,233.08 451.75,233.67 452.05,234.27C452.36,234.89 452.66,235.52 452.96,236.16C453.26,236.81 453.56,237.47 453.86,238.14C454.16,238.82 454.47,239.5 454.77,240.19C455.07,240.88 455.37,241.58 455.67,242.27C455.97,242.96 456.28,243.66 456.58,244.35C456.88,245.03 457.18,245.71 457.48,246.37C457.78,247.02 458.07,247.67 458.38,248.3C458.68,248.91 458.98,249.51 459.29,250.07C459.58,250.6 459.88,251.13 460.19,251.6C460.48,252.04 460.78,252.46 461.1,252.81Q461.39,253.12 462,253.6" style="vector-effect: non-scaling-stroke; fill: none; stroke: rgb(0, 176, 246); stroke-opacity: 1; stroke-width: 2px; opacity: 1;"/></g><g class="points"/><g class="text"/></g><g class="trace scatter tracedfce48" style="stroke-miterlimit: 2; opacity: 1;"><g class="fills"/><g class="errorbars"/><g class="lines"><path class="js-line" d="M0,184.06Q0.6,184.1 0.9,184.18C1.21,184.26 1.52,184.4 1.81,184.56C2.12,184.73 2.42,184.95 2.71,185.19C3.02,185.46 3.33,185.77 3.62,186.11C3.93,186.48 4.23,186.89 4.52,187.33C4.83,187.81 5.13,188.33 5.42,188.87C5.73,189.46 6.04,190.09 6.33,190.75C6.64,191.45 6.94,192.2 7.23,192.97C7.54,193.79 7.85,194.64 8.14,195.52C8.45,196.45 8.75,197.42 9.04,198.41C9.35,199.45 9.65,200.52 9.95,201.61C10.26,202.74 10.55,203.91 10.85,205.09C11.16,206.31 11.45,207.56 11.75,208.82C12.06,210.11 12.36,211.42 12.66,212.74C12.96,214.08 13.26,215.43 13.56,216.79C13.86,218.15 14.17,219.53 14.47,220.9C14.77,222.26 15.07,223.64 15.37,224.99C15.67,226.33 15.96,227.66 16.27,228.97C16.57,230.25 16.87,231.52 17.18,232.75C17.48,233.94 17.77,235.11 18.08,236.25C18.38,237.34 18.68,238.41 18.99,239.45C19.28,240.43 19.58,241.39 19.89,242.32C20.18,243.2 20.48,244.06 20.79,244.88C21.08,245.66 21.39,246.41 21.7,247.12C21.99,247.79 22.29,248.43 22.6,249.03C22.89,249.58 23.19,250.11 23.51,250.58C23.8,251 24.09,251.4 24.41,251.72C24.7,252 25,252.26 25.32,252.41C25.61,252.54 25.92,252.62 26.22,252.61C26.52,252.6 26.83,252.48 27.12,252.32C27.44,252.14 27.74,251.86 28.03,251.55C28.35,251.2 28.64,250.77 28.93,250.32C29.25,249.82 29.55,249.26 29.84,248.68C30.15,248.06 30.45,247.39 30.74,246.7C31.05,245.97 31.34,245.21 31.64,244.43C31.95,243.62 32.25,242.79 32.55,241.95C32.86,241.09 33.15,240.2 33.45,239.32C33.75,238.42 34.06,237.51 34.36,236.6C34.66,235.69 34.96,234.78 35.26,233.87C35.56,232.96 35.86,232.06 36.16,231.16C36.46,230.27 36.77,229.39 37.07,228.52C37.37,227.67 37.67,226.82 37.97,225.99C38.27,225.17 38.58,224.38 38.88,223.56C39.18,222.73 39.5,221.95 39.78,221.04C40.1,219.99 40.39,218.81 40.68,217.59C41,216.23 41.29,214.71 41.59,213.27C41.89,211.84 42.18,210.38 42.49,208.97C42.79,207.61 43.09,206.27 43.4,204.97C43.69,203.73 43.99,202.52 44.3,201.36C44.59,200.26 44.9,199.19 45.21,198.17C45.5,197.22 45.8,196.3 46.11,195.44C46.4,194.65 46.69,193.89 47.01,193.19C47.3,192.56 47.6,191.96 47.92,191.44C48.2,190.98 48.5,190.55 48.82,190.21C49.1,189.91 49.41,189.64 49.73,189.48C50.02,189.34 50.33,189.25 50.63,189.26C50.93,189.27 51.24,189.39 51.53,189.55C51.85,189.73 52.16,190.01 52.44,190.31C52.76,190.66 53.05,191.1 53.34,191.55C53.66,192.06 53.96,192.63 54.25,193.22C54.57,193.87 54.86,194.57 55.15,195.3C55.46,196.08 55.76,196.91 56.05,197.76C56.36,198.66 56.66,199.6 56.96,200.56C57.27,201.56 57.56,202.6 57.86,203.66C58.17,204.76 58.47,205.89 58.77,207.03C59.08,208.21 59.37,209.41 59.67,210.62C59.98,211.86 60.28,213.13 60.58,214.4C60.88,215.7 61.18,217.01 61.48,218.33C61.78,219.67 62.08,221.02 62.38,222.38C62.68,223.75 62.99,225.14 63.29,226.53C63.59,227.93 63.89,229.34 64.19,230.75C64.49,232.17 64.8,233.6 65.1,235.03C65.4,236.47 65.7,237.91 66,239.36C66.3,240.82 66.6,242.28 66.9,243.74C67.2,245.2 67.51,246.67 67.81,248.13C68.11,249.59 68.4,251.08 68.71,252.49C69,253.84 69.26,255.33 69.62,256.43C69.89,257.26 70.17,257.97 70.52,258.54C70.79,258.99 71.11,259.3 71.42,259.63C71.71,259.94 72.02,260.22 72.33,260.48C72.63,260.73 72.92,260.97 73.23,261.19C73.53,261.41 73.83,261.61 74.14,261.79C74.44,261.97 74.74,262.12 75.04,262.27C75.34,262.42 75.65,262.56 75.95,262.68C76.25,262.8 76.55,262.91 76.85,263.01C77.15,263.11 77.45,263.2 77.75,263.29C78.05,263.37 78.36,263.45 78.66,263.52C78.96,263.58 79.26,263.64 79.56,263.68C79.86,263.72 80.17,263.75 80.47,263.75C80.77,263.75 81.07,263.75 81.37,263.7C81.67,263.65 81.98,263.57 82.27,263.45C82.58,263.32 82.89,263.14 83.18,262.92C83.5,262.67 83.8,262.36 84.08,262.01C84.41,261.6 84.71,261.12 84.99,260.59C85.32,259.98 85.61,259.27 85.89,258.52C86.21,257.66 86.51,256.7 86.79,255.68C87.11,254.53 87.41,253.26 87.7,251.95C88.02,250.5 88.31,248.93 88.6,247.33C88.91,245.61 89.21,243.79 89.51,241.95C89.82,240.03 90.11,238.03 90.41,236.04C90.72,234 91.02,231.92 91.32,229.85C91.62,227.76 91.92,225.65 92.22,223.55C92.52,221.46 92.82,219.36 93.12,217.29C93.42,215.24 93.73,213.19 94.03,211.17C94.33,209.18 94.62,207.21 94.93,205.26C95.23,203.35 95.53,201.47 95.84,199.61C96.14,197.8 96.43,196.02 96.74,194.27C97.04,192.58 97.33,190.91 97.64,189.28C97.94,187.71 98.24,186.16 98.55,184.65C98.85,183.2 99.14,181.78 99.45,180.41C99.74,179.1 100.05,177.82 100.36,176.59C100.65,175.42 100.95,174.28 101.26,173.19C101.55,172.17 101.85,171.17 102.16,170.23C102.45,169.35 102.75,168.51 103.07,167.72C103.36,166.99 103.65,166.3 103.97,165.66C104.26,165.08 104.56,164.54 104.88,164.06C105.17,163.64 105.46,163.24 105.78,162.92C106.06,162.64 106.36,162.39 106.68,162.23C106.97,162.09 107.29,162 107.59,161.99C107.89,161.98 108.2,162.06 108.49,162.18C108.8,162.31 109.11,162.52 109.4,162.76C109.72,163.02 110.01,163.35 110.3,163.69C110.61,164.06 110.91,164.48 111.21,164.9C111.52,165.34 111.81,165.82 112.11,166.27C112.41,166.72 112.7,167.2 113.01,167.62C113.3,168.01 113.6,168.42 113.92,168.71C114.2,168.96 114.5,169.2 114.82,169.31C115.11,169.41 115.43,169.43 115.73,169.4C116.03,169.37 116.33,169.26 116.63,169.15C116.93,169.04 117.23,168.88 117.53,168.75C117.83,168.62 118.14,168.47 118.44,168.35C118.74,168.23 119.04,168.12 119.34,168.01C119.64,167.9 119.95,167.82 120.25,167.71C120.55,167.6 120.86,167.51 121.15,167.35C121.46,167.18 121.77,166.97 122.05,166.68C122.38,166.34 122.68,165.87 122.96,165.37C123.29,164.76 123.57,164.01 123.86,163.26C124.18,162.42 124.48,161.49 124.77,160.56C125.08,159.57 125.37,158.52 125.67,157.47C125.98,156.37 126.28,155.25 126.58,154.11C126.89,152.92 127.19,151.71 127.48,150.46C127.79,149.16 128.08,147.83 128.38,146.47C128.69,145.06 128.99,143.61 129.29,142.14C129.6,140.62 129.89,139.07 130.19,137.51C130.49,135.92 130.8,134.31 131.1,132.7C131.4,131.08 131.7,129.45 132,127.83C132.3,126.22 132.6,124.62 132.9,123.03C133.2,121.47 133.5,119.91 133.81,118.38C134.11,116.89 134.4,115.41 134.71,113.96C135.01,112.56 135.31,111.17 135.62,109.82C135.92,108.52 136.21,107.25 136.52,106.01C136.81,104.83 137.11,103.68 137.42,102.56C137.71,101.5 138.02,100.46 138.33,99.47C138.62,98.54 138.92,97.64 139.23,96.78C139.52,95.97 139.83,95.19 140.14,94.46C140.43,93.78 140.73,93.13 141.04,92.52C141.33,91.96 141.63,91.42 141.95,90.93C142.24,90.48 142.54,90.06 142.85,89.67C143.14,89.31 143.44,88.98 143.75,88.68C144.04,88.4 144.35,88.15 144.66,87.92C144.95,87.7 145.25,87.51 145.56,87.33C145.86,87.15 146.16,87 146.47,86.85C146.77,86.71 147.07,86.57 147.37,86.46C147.67,86.35 147.97,86.25 148.27,86.18C148.57,86.11 148.88,86.06 149.18,86.06C149.48,86.06 149.79,86.08 150.08,86.16C150.39,86.24 150.7,86.39 150.99,86.57C151.31,86.77 151.6,87.03 151.89,87.33C152.21,87.66 152.5,88.06 152.79,88.49C153.11,88.97 153.41,89.51 153.7,90.08C154.02,90.7 154.31,91.38 154.6,92.09C154.92,92.86 155.22,93.69 155.51,94.54C155.82,95.45 156.12,96.42 156.41,97.41C156.72,98.46 157.03,99.57 157.32,100.69C157.63,101.87 157.93,103.09 158.22,104.34C158.53,105.64 158.82,106.98 159.12,108.34C159.43,109.75 159.73,111.2 160.03,112.66C160.34,114.17 160.63,115.7 160.93,117.25C161.24,118.84 161.54,120.45 161.84,122.08C162.14,123.73 162.44,125.41 162.74,127.09C163.04,128.8 163.34,130.52 163.64,132.25C163.94,133.99 164.25,135.75 164.55,137.5C164.85,139.26 165.15,141.02 165.45,142.78C165.75,144.54 166.06,146.31 166.36,148.06C166.66,149.8 166.96,151.54 167.26,153.27C167.56,154.98 167.86,156.7 168.16,158.39C168.46,160.06 168.77,161.72 169.07,163.36C169.37,164.97 169.67,166.58 169.97,168.16C170.27,169.72 170.58,171.26 170.88,172.79C171.18,174.29 171.48,175.77 171.78,177.24C172.08,178.69 172.38,180.12 172.68,181.54C172.98,182.95 173.29,184.34 173.59,185.73C173.89,187.11 174.19,188.49 174.49,189.87C174.79,191.25 175.1,192.63 175.4,194.01C175.7,195.4 176,196.79 176.3,198.19C176.6,199.6 176.91,201.02 177.21,202.45C177.51,203.89 177.81,205.33 178.11,206.79C178.41,208.26 178.71,209.75 179.01,211.23C179.31,212.72 179.62,214.22 179.92,215.71C180.22,217.2 180.51,218.75 180.82,220.17C181.11,221.48 181.29,223.16 181.73,223.95C181.98,224.4 182.31,224.62 182.63,224.84C182.91,225.04 183.23,225.13 183.53,225.25C183.83,225.37 184.14,225.46 184.44,225.55C184.74,225.64 185.04,225.71 185.34,225.79C185.64,225.87 185.95,225.95 186.25,226.03C186.55,226.11 186.85,226.19 187.15,226.29C187.45,226.39 187.75,226.5 188.05,226.63C188.36,226.76 188.66,226.9 188.96,227.07C189.27,227.24 189.56,227.45 189.86,227.65C190.16,227.86 190.47,228.31 190.77,228.3C191.07,228.29 191.4,227.93 191.67,227.59C192.03,227.13 192.27,226.3 192.58,225.68C192.88,225.08 193.17,224.48 193.48,223.92C193.77,223.4 194.06,222.89 194.38,222.43C194.67,222.01 194.97,221.6 195.29,221.27C195.58,220.97 195.87,220.69 196.19,220.5C196.48,220.33 196.79,220.18 197.1,220.14C197.4,220.1 197.71,220.14 198,220.24C198.31,220.35 198.62,220.58 198.9,220.83C199.22,221.12 199.53,221.5 199.81,221.91C200.13,222.38 200.42,222.93 200.71,223.51C201.03,224.16 201.33,224.88 201.62,225.63C201.94,226.45 202.23,227.34 202.52,228.25C202.83,229.24 203.13,230.29 203.42,231.36C203.73,232.5 204.04,233.7 204.33,234.92C204.64,236.2 204.93,237.53 205.23,238.88C205.54,240.29 205.84,241.73 206.14,243.19C206.45,244.69 206.74,246.22 207.04,247.76C207.34,249.33 207.65,250.92 207.95,252.51C208.25,254.11 208.55,255.73 208.85,257.33C209.15,258.93 209.45,260.53 209.75,262.11C210.05,263.66 210.35,265.21 210.66,266.72C210.96,268.17 211.24,269.64 211.56,271C211.85,272.25 212.1,273.63 212.47,274.58C212.74,275.26 213.09,276.28 213.37,276.26C213.7,276.24 214.01,274.86 214.27,273.86C214.67,272.33 214.9,270.01 215.18,267.86C215.51,265.37 215.79,262.55 216.08,259.76C216.39,256.79 216.69,253.66 216.99,250.54C217.3,247.32 217.59,244.02 217.89,240.71C218.19,237.34 218.49,233.91 218.79,230.49C219.09,227.03 219.4,223.54 219.7,220.05C220,216.54 220.3,213.01 220.6,209.49C220.9,205.97 221.21,202.44 221.51,198.92C221.81,195.41 222.11,191.91 222.41,188.42C222.71,184.96 223.02,181.51 223.32,178.09C223.62,174.7 223.92,171.32 224.22,167.98C224.52,164.69 224.82,161.41 225.12,158.17C225.42,154.99 225.73,151.83 226.03,148.71C226.33,145.65 226.62,142.63 226.93,139.64C227.23,136.72 227.53,133.84 227.84,131C228.14,128.23 228.44,125.49 228.74,122.8C229.04,120.18 229.33,117.6 229.64,115.06C229.94,112.59 230.24,110.15 230.55,107.75C230.85,105.42 231.14,103.12 231.45,100.86C231.75,98.66 232.05,96.49 232.36,94.35C232.66,92.27 232.96,90.21 233.26,88.18C233.56,86.2 233.85,84.24 234.16,82.3C234.46,80.4 234.76,78.53 235.07,76.68C235.37,74.87 235.66,73.08 235.97,71.31C236.27,69.58 236.57,67.87 236.88,66.19C237.18,64.55 237.48,62.92 237.78,61.33C238.08,59.78 238.37,58.25 238.68,56.76C238.98,55.32 239.28,53.9 239.59,52.52C239.89,51.2 240.18,49.9 240.49,48.65C240.78,47.46 241.09,46.29 241.4,45.17C241.69,44.12 241.99,43.1 242.3,42.13C242.59,41.23 242.89,40.37 243.21,39.56C243.5,38.82 243.79,38.11 244.11,37.47C244.39,36.9 244.68,36.36 245.01,35.9C245.29,35.5 245.59,35.12 245.92,34.86C246.2,34.63 246.51,34.43 246.82,34.36C247.11,34.29 247.44,34.32 247.73,34.42C248.05,34.53 248.35,34.78 248.63,35.05C248.96,35.37 249.25,35.8 249.53,36.25C249.86,36.77 250.15,37.37 250.44,38.01C250.76,38.72 251.05,39.52 251.34,40.34C251.66,41.24 251.96,42.22 252.25,43.22C252.56,44.31 252.86,45.46 253.15,46.64C253.46,47.91 253.76,49.23 254.05,50.59C254.36,52.03 254.67,53.51 254.96,55.03C255.27,56.62 255.56,58.26 255.86,59.93C256.17,61.67 256.47,63.45 256.77,65.25C257.08,67.11 257.37,69.02 257.67,70.94C257.98,72.91 258.28,74.9 258.58,76.91C258.88,78.95 259.18,81.03 259.48,83.1C259.78,85.19 260.08,87.29 260.38,89.39C260.68,91.48 260.99,93.59 261.29,95.67C261.59,97.72 261.88,99.77 262.19,101.78C262.49,103.74 262.79,105.7 263.1,107.6C263.4,109.43 263.69,111.24 264,112.99C264.29,114.66 264.59,116.3 264.9,117.89C265.19,119.4 265.5,120.87 265.81,122.31C266.1,123.68 266.4,125.01 266.71,126.32C267.01,127.58 267.31,128.81 267.62,130.02C267.92,131.2 268.22,132.35 268.52,133.5C268.82,134.62 269.12,135.73 269.42,136.83C269.72,137.92 270.03,138.99 270.33,140.06C270.63,141.12 270.93,142.17 271.23,143.22C271.53,144.26 271.84,145.29 272.14,146.31C272.44,147.32 272.74,148.33 273.04,149.32C273.34,150.3 273.64,151.27 273.95,152.22C274.25,153.15 274.54,154.07 274.85,154.97C275.14,155.84 275.44,156.69 275.75,157.51C276.05,158.29 276.35,159.06 276.66,159.79C276.95,160.47 277.25,161.13 277.56,161.74C277.85,162.3 278.15,162.84 278.47,163.33C278.76,163.77 279.06,164.18 279.37,164.55C279.66,164.88 279.96,165.19 280.27,165.45C280.56,165.7 280.87,165.9 281.18,166.1C281.48,166.29 281.78,166.45 282.08,166.62C282.38,166.79 282.69,166.94 282.99,167.12C283.29,167.3 283.6,167.5 283.89,167.72C284.2,167.96 284.5,168.22 284.79,168.51C285.1,168.83 285.41,169.18 285.7,169.56C286.02,169.98 286.31,170.44 286.6,170.93C286.92,171.47 287.22,172.06 287.51,172.68C287.83,173.35 288.12,174.08 288.41,174.83C288.72,175.65 289.03,176.52 289.32,177.42C289.63,178.39 289.93,179.4 290.22,180.45C290.53,181.57 290.83,182.73 291.12,183.93C291.43,185.2 291.74,186.51 292.03,187.86C292.34,189.27 292.63,190.73 292.93,192.22C293.24,193.77 293.54,195.36 293.84,196.97C294.15,198.64 294.44,200.36 294.74,202.09C295.04,203.87 295.34,205.68 295.64,207.51C295.94,209.38 296.25,211.27 296.55,213.17C296.85,215.09 297.15,217.04 297.45,218.98C297.75,220.92 298.06,222.88 298.36,224.81C298.66,226.72 298.96,228.64 299.26,230.51C299.56,232.33 299.85,234.14 300.16,235.88C300.45,237.53 300.76,239.16 301.07,240.7C301.36,242.12 301.65,243.49 301.97,244.77C302.26,245.92 302.56,247.01 302.88,248.01C303.16,248.89 303.46,249.73 303.78,250.47C304.06,251.12 304.35,251.72 304.68,252.23C304.96,252.67 305.27,253.08 305.59,253.4C305.87,253.68 306.17,253.92 306.49,254.08C306.78,254.23 307.09,254.3 307.4,254.35C307.7,254.39 308,254.38 308.3,254.36C308.6,254.34 308.91,254.27 309.21,254.23C309.51,254.19 309.81,254.13 310.11,254.11C310.41,254.09 310.71,254.08 311.01,254.13C311.32,254.18 311.63,254.27 311.92,254.41C312.23,254.56 312.54,254.78 312.82,255.04C313.14,255.34 313.44,255.71 313.73,256.12C314.05,256.58 314.35,257.11 314.63,257.68C314.95,258.32 315.24,259.04 315.53,259.78C315.85,260.6 316.15,261.49 316.44,262.41C316.76,263.41 317.05,264.48 317.34,265.57C317.65,266.73 317.95,267.94 318.25,269.16C318.56,270.43 318.85,271.75 319.15,273.07C319.45,274.42 319.75,275.79 320.05,277.16C320.35,278.56 320.66,279.98 320.96,281.38C321.26,282.78 321.56,284.19 321.86,285.57C322.16,286.93 322.47,288.26 322.77,289.6C323.07,290.92 323.37,292.24 323.67,293.55C323.97,294.85 324.27,296.18 324.58,297.43C324.87,298.6 325.14,299.81 325.48,300.8C325.76,301.6 326.02,302.39 326.38,302.94C326.65,303.36 326.95,303.75 327.29,303.92C327.57,304.06 327.91,304.11 328.19,304C328.53,303.87 328.83,303.45 329.1,303.04C329.45,302.51 329.72,301.75 330,301C330.33,300.11 330.61,299.07 330.9,298.01C331.22,296.81 331.52,295.51 331.81,294.16C332.13,292.69 332.42,291.13 332.71,289.52C333.02,287.79 333.33,285.99 333.62,284.12C333.93,282.1 334.23,279.98 334.52,277.82C334.83,275.53 335.12,273.12 335.42,270.74C335.72,268.31 336.03,265.82 336.33,263.37C336.63,260.93 336.93,258.48 337.23,256.07C337.53,253.7 337.83,251.34 338.14,249.02C338.44,246.76 338.73,244.52 339.04,242.32C339.34,240.19 339.64,238.09 339.95,236.03C340.25,234.05 340.54,232.09 340.85,230.19C341.14,228.37 341.44,226.58 341.75,224.85C342.04,223.2 342.35,221.58 342.66,220.01C342.95,218.53 343.25,217.09 343.56,215.7C343.85,214.4 344.16,213.13 344.47,211.92C344.76,210.79 345.06,209.7 345.37,208.67C345.66,207.72 345.95,206.8 346.27,205.94C346.56,205.16 346.86,204.41 347.18,203.73C347.47,203.11 347.76,202.53 348.08,202.01C348.37,201.55 348.67,201.12 348.99,200.77C349.28,200.46 349.57,200.17 349.89,199.97C350.18,199.79 350.48,199.65 350.79,199.58C351.09,199.52 351.4,199.52 351.7,199.56C352,199.6 352.31,199.72 352.6,199.85C352.91,199.99 353.21,200.2 353.51,200.4C353.82,200.61 354.1,200.87 354.41,201.08C354.71,201.28 355.01,201.59 355.32,201.63C355.61,201.67 355.95,201.58 356.22,201.38C356.58,201.11 356.83,200.44 357.12,199.9C357.44,199.3 357.73,198.59 358.03,197.93C358.33,197.27 358.63,196.59 358.93,195.93C359.23,195.28 359.53,194.64 359.84,194.01C360.14,193.4 360.44,192.8 360.74,192.22C361.04,191.65 361.33,191.1 361.64,190.56C361.94,190.03 362.24,189.52 362.55,189.01C362.85,188.52 363.15,188.03 363.45,187.56C363.75,187.09 364.05,186.64 364.36,186.19C364.66,185.75 364.96,185.32 365.26,184.9C365.56,184.49 365.85,184.08 366.16,183.7C366.46,183.33 366.76,182.97 367.07,182.64C367.36,182.33 367.66,182.03 367.97,181.77C368.26,181.53 368.57,181.31 368.88,181.14C369.17,180.98 369.47,180.85 369.78,180.79C370.07,180.73 370.38,180.72 370.68,180.76C370.99,180.8 371.3,180.9 371.59,181.04C371.9,181.19 372.2,181.42 372.49,181.66C372.81,181.92 373.11,182.24 373.4,182.58C373.71,182.94 374.01,183.36 374.3,183.78C374.61,184.22 374.91,184.71 375.21,185.17C375.51,185.63 375.79,186.14 376.11,186.54C376.39,186.89 376.68,187.35 377.01,187.46C377.29,187.56 377.64,187.49 377.92,187.34C378.26,187.15 378.54,186.65 378.82,186.24C379.14,185.77 379.43,185.2 379.73,184.66C380.04,184.09 380.33,183.49 380.63,182.9C380.93,182.31 381.23,181.71 381.53,181.12C381.83,180.54 382.13,179.96 382.44,179.39C382.74,178.83 383.03,178.28 383.34,177.75C383.64,177.24 383.94,176.74 384.25,176.26C384.55,175.8 384.84,175.35 385.15,174.93C385.44,174.53 385.74,174.15 386.05,173.81C386.34,173.49 386.65,173.18 386.96,172.92C387.25,172.67 387.55,172.44 387.86,172.27C388.15,172.11 388.46,171.97 388.77,171.9C389.07,171.83 389.37,171.8 389.67,171.82C389.97,171.84 390.29,171.92 390.58,172.04C390.89,172.17 391.19,172.35 391.48,172.57C391.79,172.8 392.09,173.09 392.38,173.41C392.7,173.75 393,174.15 393.29,174.57C393.6,175.02 393.9,175.52 394.19,176.04C394.5,176.59 394.81,177.18 395.1,177.79C395.41,178.44 395.71,179.12 396,179.82C396.31,180.55 396.6,181.32 396.9,182.09C397.21,182.89 397.51,183.72 397.81,184.56C398.12,185.43 398.41,186.32 398.71,187.21C399.01,188.12 399.32,189.04 399.62,189.97C399.92,190.9 400.22,191.85 400.52,192.79C400.82,193.73 401.12,194.69 401.42,195.63C401.72,196.57 402.03,197.51 402.33,198.43C402.63,199.34 402.92,200.25 403.23,201.13C403.53,201.99 403.83,202.84 404.14,203.67C404.44,204.47 404.73,205.26 405.04,206.01C405.33,206.73 405.64,207.43 405.95,208.1C406.24,208.73 406.54,209.34 406.85,209.9C407.14,210.42 407.43,210.92 407.75,211.37C408.04,211.78 408.34,212.18 408.66,212.51C408.95,212.81 409.24,213.09 409.56,213.3C409.85,213.49 410.16,213.65 410.47,213.74C410.76,213.82 411.07,213.86 411.37,213.84C411.67,213.82 411.98,213.74 412.27,213.63C412.58,213.51 412.89,213.33 413.18,213.13C413.49,212.92 413.79,212.65 414.08,212.37C414.39,212.07 414.7,211.73 414.99,211.38C415.3,211.01 415.6,210.6 415.89,210.18C416.2,209.75 416.49,209.29 416.79,208.82C417.1,208.33 417.4,207.82 417.7,207.3C418.01,206.76 418.3,206.21 418.6,205.65C418.91,205.07 419.21,204.48 419.51,203.88C419.82,203.26 420.11,202.63 420.41,201.99C420.72,201.33 421.02,200.65 421.32,199.96C421.63,199.25 421.92,198.53 422.22,197.8C422.52,197.04 422.82,196.27 423.12,195.48C423.43,194.67 423.73,193.83 424.03,192.99C424.34,192.12 424.63,191.24 424.93,190.35C425.24,189.43 425.54,188.5 425.84,187.56C426.14,186.61 426.44,185.64 426.74,184.67C427.04,183.7 427.34,182.72 427.64,181.75C427.94,180.78 428.25,179.8 428.55,178.84C428.85,177.89 429.15,176.94 429.45,176.01C429.75,175.09 430.05,174.17 430.36,173.27C430.66,172.39 430.96,171.53 431.26,170.68C431.56,169.85 431.85,169.03 432.16,168.23C432.46,167.45 432.76,166.69 433.07,165.94C433.37,165.22 433.66,164.5 433.97,163.81C434.27,163.14 434.57,162.48 434.88,161.84C435.18,161.22 435.48,160.62 435.78,160.03C436.08,159.46 436.37,158.9 436.68,158.36C436.98,157.84 437.28,157.33 437.59,156.84C437.89,156.37 438.18,155.9 438.49,155.46C438.79,155.03 439.09,154.61 439.4,154.21C439.7,153.82 439.99,153.45 440.3,153.09C440.6,152.74 440.9,152.41 441.21,152.09C441.51,151.78 441.8,151.49 442.11,151.21C442.4,150.94 442.7,150.7 443.01,150.46C443.31,150.23 443.61,150.01 443.92,149.81C444.22,149.62 444.52,149.45 444.82,149.29C445.12,149.14 445.42,148.99 445.73,148.87C446.03,148.75 446.33,148.65 446.63,148.57C446.93,148.49 447.23,148.42 447.53,148.37C447.83,148.32 448.14,148.29 448.44,148.28C448.74,148.27 449.04,148.27 449.34,148.29C449.64,148.31 449.95,148.35 450.25,148.4C450.55,148.45 450.85,148.52 451.15,148.6C451.45,148.68 451.75,148.78 452.05,148.89C452.35,149 452.66,149.13 452.96,149.26C453.26,149.4 453.56,149.54 453.86,149.7C454.16,149.86 454.47,150.03 454.77,150.2C455.07,150.37 455.37,150.56 455.67,150.74C455.97,150.93 456.28,151.12 456.58,151.31C456.88,151.5 457.18,151.69 457.48,151.88C457.78,152.07 458.08,152.26 458.38,152.44C458.68,152.62 458.98,152.8 459.29,152.96C459.59,153.12 459.89,153.27 460.19,153.4C460.49,153.53 460.79,153.65 461.1,153.75Q461.4,153.84 462,153.97" style="vector-effect: non-scaling-stroke; fill: none; stroke: rgb(231, 107, 243); stroke-opacity: 1; stroke-width: 2px; opacity: 1;"/></g><g class="points"/><g class="text"/></g></g></g><g class="overplot"/><path class="xlines-above crisp" d="M0,0" style="fill: none;"/><path class="ylines-above crisp" d="M0,0" style="fill: none;"/><g class="overlines-above"/><g class="xaxislayer-above"><g class="xtick"><text text-anchor="middle" x="0" y="433" transform="translate(80,0)" style="font-family: 'Open Sans', verdana, arial, sans-serif; font-size: 12px; fill: rgb(42, 63, 95); fill-opacity: 1; white-space: pre;">0</text></g><g class="xtick"><text text-anchor="middle" x="0" y="433" transform="translate(170.23000000000002,0)" style="font-family: 'Open Sans', verdana, arial, sans-serif; font-size: 12px; fill: rgb(42, 63, 95); fill-opacity: 1; white-space: pre;">100</text></g><g class="xtick"><text text-anchor="middle" x="0" y="433" transform="translate(260.47,0)" style="font-family: 'Open Sans', verdana, arial, sans-serif; font-size: 12px; fill: rgb(42, 63, 95); fill-opacity: 1; white-space: pre;">200</text></g><g class="xtick"><text text-anchor="middle" x="0" y="433" transform="translate(350.7,0)" style="font-family: 'Open Sans', verdana, arial, sans-serif; font-size: 12px; fill: rgb(42, 63, 95); fill-opacity: 1; white-space: pre;">300</text></g><g class="xtick"><text text-anchor="middle" x="0" y="433" transform="translate(440.94,0)" style="font-family: 'Open Sans', verdana, arial, sans-serif; font-size: 12px; fill: rgb(42, 63, 95); fill-opacity: 1; white-space: pre;">400</text></g><g class="xtick"><text text-anchor="middle" x="0" y="433" transform="translate(531.1700000000001,0)" style="font-family: 'Open Sans', verdana, arial, sans-serif; font-size: 12px; fill: rgb(42, 63, 95); fill-opacity: 1; white-space: pre;">500</text></g></g><g class="yaxislayer-above"><g class="ytick"><text text-anchor="end" x="79" y="4.199999999999999" transform="translate(0,385.12)" style="font-family: 'Open Sans', verdana, arial, sans-serif; font-size: 12px; fill: rgb(42, 63, 95); fill-opacity: 1; white-space: pre;">5</text></g><g class="ytick"><text text-anchor="end" x="79" y="4.199999999999999" transform="translate(0,320.31)" style="font-family: 'Open Sans', verdana, arial, sans-serif; font-size: 12px; fill: rgb(42, 63, 95); fill-opacity: 1; white-space: pre;">10</text></g><g class="ytick"><text text-anchor="end" x="79" y="4.199999999999999" transform="translate(0,255.51)" style="font-family: 'Open Sans', verdana, arial, sans-serif; font-size: 12px; fill: rgb(42, 63, 95); fill-opacity: 1; white-space: pre;">15</text></g><g class="ytick"><text text-anchor="end" x="79" y="4.199999999999999" transform="translate(0,190.70999999999998)" style="font-family: 'Open Sans', verdana, arial, sans-serif; font-size: 12px; fill: rgb(42, 63, 95); fill-opacity: 1; white-space: pre;">20</text></g><g class="ytick"><text text-anchor="end" x="79" y="4.199999999999999" transform="translate(0,125.9)" style="font-family: 'Open Sans', verdana, arial, sans-serif; font-size: 12px; fill: rgb(42, 63, 95); fill-opacity: 1; white-space: pre;">25</text></g></g><g class="overaxes-above"/></g></g><g class="polarlayer"/><g class="ternarylayer"/><g class="geolayer"/><g class="funnelarealayer"/><g class="pielayer"/><g class="treemaplayer"/><g class="sunburstlayer"/><g class="glimages"/><defs id="topdefs-61aa2f"><g class="clips"/><clipPath id="legend61aa2f"><rect width="137" height="67" x="0" y="0"/></clipPath></defs><g class="layer-above"><g class="imagelayer"/><g class="shapelayer"/></g><g class="infolayer"><g class="legend" pointer-events="all" transform="translate(551.24, 100)"><rect class="bg" shape-rendering="crispEdges" width="137" height="67" x="0" y="0" style="stroke: rgb(68, 68, 68); stroke-opacity: 1; fill: rgb(255, 255, 255); fill-opacity: 1; stroke-width: 0px;"/><g class="scrollbox" transform="translate(0, 0)" clip-path="url('#legend61aa2f')"><g class="groups"><g class="traces" transform="translate(0, 14.5)" style="opacity: 1;"><text class="legendtext" text-anchor="start" x="40" y="4.680000000000001" style="font-family: 'Open Sans', verdana, arial, sans-serif; font-size: 12px; fill: rgb(42, 63, 95); fill-opacity: 1; white-space: pre;">Average Class I</text><g class="layers" style="opacity: 1;"><g class="legendfill"/><g class="legendlines"><path class="js-line" d="M5,0h30" style="fill: none; stroke: rgb(0, 100, 80); stroke-opacity: 1; stroke-width: 2px;"/></g><g class="legendsymbols"><g class="legendpoints"/></g></g><rect class="legendtoggle" x="0" y="-9.5" width="131.15625" height="19" style="fill: rgb(0, 0, 0); fill-opacity: 0;"/></g><g class="traces" transform="translate(0, 33.5)" style="opacity: 1;"><text class="legendtext" text-anchor="start" x="40" y="4.680000000000001" style="font-family: 'Open Sans', verdana, arial, sans-serif; font-size: 12px; fill: rgb(42, 63, 95); fill-opacity: 1; white-space: pre;">Average Class II</text><g class="layers" style="opacity: 1;"><g class="legendfill"/><g class="legendlines"><path class="js-line" d="M5,0h30" style="fill: none; stroke: rgb(0, 176, 246); stroke-opacity: 1; stroke-width: 2px;"/></g><g class="legendsymbols"><g class="legendpoints"/></g></g><rect class="legendtoggle" x="0" y="-9.5" width="131.15625" height="19" style="fill: rgb(0, 0, 0); fill-opacity: 0;"/></g><g class="traces" transform="translate(0, 52.5)" style="opacity: 1;"><text class="legendtext" text-anchor="start" x="40" y="4.680000000000001" style="font-family: 'Open Sans', verdana, arial, sans-serif; font-size: 12px; fill: rgb(42, 63, 95); fill-opacity: 1; white-space: pre;">Average Class III</text><g class="layers" style="opacity: 1;"><g class="legendfill"/><g class="legendlines"><path class="js-line" d="M5,0h30" style="fill: none; stroke: rgb(231, 107, 243); stroke-opacity: 1; stroke-width: 2px;"/></g><g class="legendsymbols"><g class="legendpoints"/></g></g><rect class="legendtoggle" x="0" y="-9.5" width="131.15625" height="19" style="fill: rgb(0, 0, 0); fill-opacity: 0;"/></g></g></g><rect class="scrollbar" rx="20" ry="3" width="0" height="0" x="0" y="0" style="fill: rgb(128, 139, 164); fill-opacity: 1;"/></g><g class="g-gtitle"><text class="gtitle" x="35" y="50" text-anchor="start" dy="0em" style="font-family: 'Open Sans', verdana, arial, sans-serif; font-size: 17px; fill: rgb(42, 63, 95); opacity: 1; font-weight: normal; white-space: pre;">Average curve: betha-structure_group</text></g><g class="g-xtitle"><text class="xtitle" x="311" y="460.8" text-anchor="middle" style="font-family: 'Open Sans', verdana, arial, sans-serif; font-size: 14px; fill: rgb(42, 63, 95); opacity: 1; font-weight: normal; white-space: pre;">Domain</text></g><g class="g-ytitle"><text class="ytitle" transform="rotate(-90,40.840625,260)" x="40.840625" y="260" text-anchor="middle" style="font-family: 'Open Sans', verdana, arial, sans-serif; font-size: 14px; fill: rgb(42, 63, 95); opacity: 1; font-weight: normal; white-space: pre;">Frequency</text></g></g></svg>