<svg class="main-svg" xmlns="http://www.w3.org/2000/svg" xmlns:xlink="http://www.w3.org/1999/xlink" width="700" height="500" style="" viewBox="0 0 700 500"><rect x="0" y="0" width="700" height="500" style="fill: rgb(255, 255, 255); fill-opacity: 1;"/><defs id="defs-fc8a82"><g class="clips"><clipPath id="clipfc8a82xyplot" class="plotclip"><rect width="462" height="320"/></clipPath><clipPath class="axesclip" id="clipfc8a82x"><rect x="80" y="0" width="462" height="500"/></clipPath><clipPath class="axesclip" id="clipfc8a82y"><rect x="0" y="100" width="700" height="320"/></clipPath><clipPath class="axesclip" id="clipfc8a82xy"><rect x="80" y="100" width="462" height="320"/></clipPath></g><g class="gradients"/></defs><g class="bglayer"><rect class="bg" x="80" y="100" width="462" height="320" style="fill: rgb(229, 236, 246); fill-opacity: 1; stroke-width: 0;"/></g><g class="layer-below"><g class="imagelayer"/><g class="shapelayer"/></g><g class="cartesianlayer"><g class="subplot xy"><g class="layer-subplot"><g class="shapelayer"/><g class="imagelayer"/></g><g class="gridlayer"><g class="x"><path class="xgrid crisp" transform="translate(170.23000000000002,0)" d="M0,100v320" style="stroke: rgb(255, 255, 255); stroke-opacity: 1; stroke-width: 1px;"/><path class="xgrid crisp" transform="translate(260.47,0)" d="M0,100v320" style="stroke: rgb(255, 255, 255); stroke-opacity: 1; stroke-width: 1px;"/><path class="xgrid crisp" transform="translate(350.7,0)" d="M0,100v320" style="stroke: rgb(255, 255, 255); stroke-opacity: 1; stroke-width: 1px;"/><path class="xgrid crisp" transform="translate(440.94,0)" d="M0,100v320" style="stroke: rgb(255, 255, 255); stroke-opacity: 1; stroke-width: 1px;"/><path class="xgrid crisp" transform="translate(531.1700000000001,0)" d="M0,100v320" style="stroke: rgb(255, 255, 255); stroke-opacity: 1; stroke-width: 1px;"/></g><g class="y"><path class="ygrid crisp" transform="translate(0,376.83)" d="M80,0h462" style="stroke: rgb(255, 255, 255); stroke-opacity: 1; stroke-width: 1px;"/><path class="ygrid crisp" transform="translate(0,321.03999999999996)" d="M80,0h462" style="stroke: rgb(255, 255, 255); stroke-opacity: 1; stroke-width: 1px;"/><path class="ygrid crisp" transform="translate(0,265.25)" d="M80,0h462" style="stroke: rgb(255, 255, 255); stroke-opacity: 1; stroke-width: 1px;"/><path class="ygrid crisp" transform="translate(0,209.45999999999998)" d="M80,0h462" style="stroke: rgb(255, 255, 255); stroke-opacity: 1; stroke-width: 1px;"/><path class="ygrid crisp" transform="translate(0,153.66)" d="M80,0h462" style="stroke: rgb(255, 255, 255); stroke-opacity: 1; stroke-width: 1px;"/></g></g><g class="zerolinelayer"><path class="xzl zl crisp" transform="translate(80,0)" d="M0,100v320" style="stroke: rgb(255, 255, 255); stroke-opacity: 1; stroke-width: 2px;"/></g><path class="xlines-below"/><path class="ylines-below"/><g class="overlines-below"/><g class="xaxislayer-below"/><g class="yaxislayer-below"/><g class="overaxes-below"/><g class="plot" transform="translate(80, 100)" clip-path="url('#clipfc8a82xyplot')"><g class="scatterlayer mlayer"><g class="trace scatter trace0214a2" style="stroke-miterlimit: 2; opacity: 1;"><g class="fills"/><g class="errorbars"/><g class="lines"><path class="js-line" d="M0,16Q0.62,16.11 0.9,16.28C1.23,16.47 1.53,16.8 1.81,17.15C2.14,17.56 2.43,18.07 2.71,18.61C3.04,19.23 3.33,19.94 3.62,20.69C3.94,21.53 4.23,22.45 4.52,23.42C4.84,24.49 5.13,25.64 5.42,26.84C5.74,28.15 6.04,29.54 6.33,30.97C6.64,32.52 6.94,34.14 7.23,35.82C7.54,37.62 7.85,39.49 8.14,41.41C8.45,43.45 8.75,45.57 9.04,47.74C9.35,50.03 9.66,52.4 9.95,54.82C10.26,57.36 10.56,59.97 10.85,62.63C11.16,65.41 11.45,68.26 11.75,71.15C12.06,74.15 12.36,77.22 12.66,80.34C12.97,83.56 13.26,86.85 13.56,90.17C13.87,93.59 14.17,97.07 14.47,100.58C14.78,104.18 15.07,107.83 15.37,111.5C15.67,115.24 15.97,119.04 16.27,122.84C16.57,126.69 16.88,130.59 17.18,134.48C17.48,138.4 17.78,142.35 18.08,146.27C18.38,150.18 18.69,154.1 18.99,157.97C19.29,161.77 19.58,165.58 19.89,169.26C20.18,172.79 20.47,176.37 20.79,179.62C21.08,182.51 21.34,185.48 21.7,187.81C21.97,189.56 22.26,191.04 22.6,192.39C22.88,193.49 23.18,194.47 23.51,195.35C23.79,196.09 24.07,196.79 24.41,197.34C24.69,197.79 25.02,198.47 25.32,198.46C25.63,198.45 25.96,197.76 26.22,197.2C26.63,196.31 26.83,194.76 27.12,193.47C27.43,192.1 27.73,190.62 28.03,189.2C28.33,187.78 28.62,186.35 28.93,184.96C29.23,183.61 29.53,182.27 29.84,180.98C30.13,179.75 30.43,178.53 30.74,177.37C31.03,176.28 31.32,175.22 31.64,174.22C31.93,173.3 32.23,172.42 32.55,171.61C32.84,170.89 33.12,170.18 33.45,169.59C33.73,169.08 34.03,168.59 34.36,168.23C34.64,167.93 34.94,167.64 35.26,167.54C35.54,167.45 35.87,167.46 36.16,167.56C36.48,167.67 36.79,167.96 37.07,168.26C37.41,168.62 37.69,169.13 37.97,169.65C38.3,170.24 38.59,170.94 38.88,171.63C39.19,172.37 39.48,173.2 39.78,173.96C40.08,174.7 40.38,175.41 40.68,176.15C40.99,176.91 41.3,177.66 41.59,178.48C41.91,179.37 42.2,180.31 42.49,181.29C42.81,182.36 43.11,183.49 43.4,184.65C43.71,185.89 44.01,187.19 44.3,188.52C44.61,189.92 44.91,191.38 45.21,192.85C45.52,194.38 45.81,195.95 46.11,197.54C46.41,199.17 46.71,200.84 47.01,202.51C47.31,204.2 47.62,205.92 47.92,207.63C48.22,209.34 48.52,211.07 48.82,212.77C49.12,214.45 49.42,216.14 49.73,217.79C50.03,219.39 50.32,220.97 50.63,222.5C50.92,223.95 51.22,225.39 51.53,226.75C51.82,228.02 52.12,229.28 52.44,230.42C52.73,231.43 53.01,232.41 53.34,233.26C53.62,233.99 53.93,234.62 54.25,235.24C54.54,235.81 54.84,236.33 55.15,236.85C55.44,237.35 55.75,237.82 56.05,238.31C56.35,238.79 56.66,239.28 56.96,239.76C57.26,240.23 57.54,240.74 57.86,241.16C58.15,241.55 58.43,242.03 58.77,242.22C59.05,242.37 59.38,242.43 59.67,242.36C59.99,242.28 60.29,241.97 60.58,241.71C60.9,241.41 61.19,241.03 61.48,240.64C61.8,240.21 62.09,239.72 62.38,239.21C62.69,238.66 63,238.07 63.29,237.45C63.6,236.79 63.9,236.08 64.19,235.36C64.5,234.6 64.8,233.81 65.1,233.01C65.41,232.18 65.7,231.32 66,230.45C66.3,229.57 66.6,228.66 66.9,227.76C67.2,226.84 67.51,225.91 67.81,224.98C68.11,224.04 68.41,223.1 68.71,222.15C69.01,221.19 69.32,220.23 69.62,219.26C69.92,218.28 70.22,217.3 70.52,216.31C70.82,215.3 71.12,214.29 71.42,213.27C71.72,212.23 72.03,211.19 72.33,210.14C72.63,209.08 72.93,208 73.23,206.93C73.53,205.85 73.84,204.76 74.14,203.67C74.44,202.57 74.74,201.46 75.04,200.36C75.34,199.25 75.65,198.14 75.95,197.03C76.25,195.91 76.55,194.79 76.85,193.65C77.15,192.5 77.45,191.34 77.75,190.17C78.05,188.99 78.36,187.79 78.66,186.6C78.96,185.41 79.26,184.22 79.56,183.04C79.86,181.88 80.16,180.72 80.47,179.58C80.77,178.47 81.07,177.36 81.37,176.28C81.67,175.23 81.96,174.2 82.27,173.19C82.57,172.22 82.87,171.27 83.18,170.36C83.47,169.5 83.77,168.66 84.08,167.88C84.37,167.16 84.67,166.45 84.99,165.82C85.28,165.25 85.57,164.7 85.89,164.25C86.17,163.85 86.46,163.48 86.79,163.22C87.07,163 87.39,162.8 87.7,162.74C87.99,162.69 88.31,162.74 88.6,162.86C88.92,163 89.23,163.27 89.51,163.57C89.84,163.92 90.13,164.39 90.41,164.88C90.74,165.45 91.03,166.1 91.32,166.79C91.64,167.56 91.93,168.4 92.22,169.28C92.54,170.24 92.83,171.27 93.12,172.33C93.43,173.48 93.74,174.68 94.03,175.92C94.34,177.23 94.63,178.61 94.93,180C95.24,181.46 95.54,182.98 95.84,184.48C96.14,185.99 96.42,187.6 96.74,189.03C97.03,190.33 97.31,191.58 97.64,192.71C97.92,193.69 98.25,194.52 98.55,195.44C98.85,196.36 99.15,197.28 99.45,198.23C99.76,199.23 100.06,200.25 100.36,201.3C100.67,202.39 100.96,203.53 101.26,204.66C101.56,205.8 101.85,206.98 102.16,208.11C102.46,209.2 102.77,210.25 103.07,211.31C103.37,212.36 103.66,213.43 103.97,214.43C104.26,215.36 104.56,216.26 104.88,217.1C105.17,217.87 105.47,218.59 105.78,219.29C106.07,219.95 106.36,220.61 106.68,221.2C106.97,221.75 107.28,222.25 107.59,222.73C107.88,223.18 108.18,223.61 108.49,224.02C108.79,224.41 109.09,224.8 109.4,225.15C109.69,225.48 109.99,225.8 110.3,226.06C110.59,226.3 110.89,226.53 111.21,226.67C111.5,226.8 111.81,226.89 112.11,226.88C112.41,226.87 112.73,226.77 113.01,226.6C113.34,226.4 113.64,226.07 113.92,225.71C114.25,225.28 114.54,224.74 114.82,224.17C115.14,223.52 115.44,222.78 115.73,222.03C116.04,221.22 116.34,220.34 116.63,219.46C116.94,218.54 117.23,217.58 117.53,216.62C117.83,215.64 118.14,214.64 118.44,213.65C118.74,212.66 119.04,211.65 119.34,210.66C119.64,209.68 119.94,208.69 120.25,207.73C120.55,206.79 120.85,205.85 121.15,204.94C121.45,204.06 121.74,203.18 122.05,202.34C122.35,201.53 122.65,200.73 122.96,199.97C123.25,199.24 123.55,198.54 123.86,197.86C124.15,197.22 124.46,196.6 124.77,196.02C125.06,195.48 125.36,194.95 125.67,194.47C125.96,194.02 126.26,193.59 126.58,193.21C126.87,192.86 127.17,192.53 127.48,192.25C127.77,191.99 128.07,191.76 128.38,191.58C128.67,191.41 128.98,191.27 129.29,191.19C129.59,191.11 129.89,191.08 130.19,191.1C130.49,191.12 130.8,191.18 131.1,191.29C131.41,191.4 131.71,191.57 132,191.77C132.31,191.98 132.61,192.25 132.9,192.53C133.21,192.84 133.52,193.19 133.81,193.56C134.12,193.96 134.42,194.39 134.71,194.84C135.02,195.31 135.32,195.82 135.62,196.33C135.93,196.86 136.22,197.43 136.52,197.99C136.82,198.56 137.12,199.15 137.42,199.74C137.72,200.34 138.02,200.96 138.33,201.55C138.63,202.13 138.87,202.85 139.23,203.26C139.5,203.57 139.82,203.83 140.14,203.91C140.43,203.98 140.74,203.82 141.04,203.78C141.34,203.74 141.65,203.68 141.95,203.67C142.25,203.66 142.55,203.66 142.85,203.7C143.15,203.74 143.45,203.8 143.75,203.89C144.06,203.98 144.36,204.11 144.66,204.26C144.97,204.41 145.26,204.6 145.56,204.8C145.87,205.01 146.17,205.25 146.47,205.5C146.78,205.76 147.07,206.06 147.37,206.36C147.67,206.67 147.97,207 148.27,207.33C148.57,207.66 148.87,208.02 149.18,208.35C149.48,208.66 149.77,208.99 150.08,209.25C150.37,209.49 150.68,209.69 150.99,209.87C151.28,210.04 151.59,210.17 151.89,210.3C152.19,210.43 152.49,210.54 152.79,210.66C153.09,210.77 153.4,210.88 153.7,210.99C154,211.09 154.3,211.2 154.6,211.29C154.9,211.38 155.21,211.46 155.51,211.54C155.81,211.61 156.11,211.69 156.41,211.74C156.71,211.79 157.02,211.83 157.32,211.82C157.62,211.81 157.93,211.76 158.22,211.66C158.53,211.55 158.82,211.35 159.12,211.18C159.43,211 159.72,210.77 160.03,210.6C160.33,210.43 160.62,210.27 160.93,210.16C161.23,210.06 161.54,209.98 161.84,209.97C162.14,209.96 162.45,210 162.74,210.1C163.05,210.2 163.35,210.39 163.64,210.6C163.96,210.83 164.26,211.14 164.55,211.47C164.87,211.84 165.16,212.27 165.45,212.73C165.77,213.24 166.07,213.8 166.36,214.39C166.67,215.02 166.97,215.71 167.26,216.41C167.57,217.16 167.86,217.96 168.16,218.77C168.47,219.61 168.77,220.49 169.07,221.35C169.37,222.22 169.66,223.13 169.97,223.96C170.26,224.74 170.55,225.54 170.88,226.2C171.16,226.75 171.46,227.24 171.78,227.67C172.06,228.05 172.37,228.35 172.68,228.65C172.97,228.93 173.28,229.18 173.59,229.42C173.89,229.65 174.18,229.87 174.49,230.07C174.79,230.26 175.09,230.44 175.4,230.6C175.7,230.75 175.99,230.9 176.3,231.01C176.6,231.11 176.91,231.23 177.21,231.24C177.51,231.25 177.83,231.25 178.11,231.1C178.44,230.92 178.74,230.56 179.01,230.13C179.38,229.52 179.63,228.55 179.92,227.68C180.24,226.7 180.52,225.61 180.82,224.54C181.13,223.42 181.43,222.25 181.73,221.08C182.04,219.87 182.34,218.65 182.63,217.38C182.94,216.05 183.24,214.75 183.53,213.3C183.85,211.67 184.15,209.93 184.44,208.09C184.76,206.03 185.05,203.8 185.34,201.54C185.65,199.14 185.95,196.58 186.25,194.08C186.55,191.57 186.85,189.01 187.15,186.51C187.45,184.06 187.74,181.62 188.05,179.23C188.35,176.9 188.65,174.6 188.96,172.35C189.26,170.18 189.55,168.04 189.86,165.95C190.16,163.95 190.46,161.98 190.77,160.07C191.06,158.25 191.36,156.47 191.67,154.75C191.96,153.12 192.27,151.54 192.58,150.01C192.87,148.57 193.17,147.16 193.48,145.82C193.77,144.57 194.06,143.34 194.38,142.21C194.67,141.19 194.96,140.2 195.29,139.33C195.57,138.58 195.85,137.84 196.19,137.26C196.47,136.78 196.76,136.3 197.1,136.03C197.37,135.81 197.7,135.63 198,135.64C198.3,135.65 198.62,135.84 198.9,136.07C199.24,136.35 199.53,136.83 199.81,137.31C200.14,137.88 200.43,138.57 200.71,139.29C201.03,140.1 201.33,141.01 201.62,141.95C201.94,142.98 202.23,144.09 202.52,145.23C202.83,146.45 203.13,147.74 203.42,149.05C203.73,150.43 204.03,151.87 204.33,153.33C204.64,154.85 204.93,156.42 205.23,158C205.54,159.64 205.84,161.31 206.14,163.01C206.45,164.75 206.74,166.53 207.04,168.32C207.35,170.15 207.65,172.02 207.95,173.89C208.25,175.79 208.55,177.72 208.85,179.65C209.15,181.61 209.45,183.59 209.75,185.57C210.05,187.57 210.36,189.58 210.66,191.58C210.96,193.59 211.26,195.6 211.56,197.6C211.86,199.58 212.16,201.59 212.47,203.52C212.77,205.36 213.04,207.3 213.37,208.92C213.65,210.28 213.93,211.53 214.27,212.62C214.55,213.52 214.79,214.48 215.18,215.03C215.44,215.4 215.76,215.61 216.08,215.79C216.37,215.96 216.68,216.05 216.99,216.12C217.29,216.19 217.59,216.23 217.89,216.23C218.19,216.23 218.49,216.19 218.79,216.12C219.1,216.05 219.4,215.93 219.7,215.79C220.01,215.65 220.31,215.47 220.6,215.26C220.91,215.04 221.23,214.81 221.51,214.48C221.85,214.08 222.13,213.55 222.41,212.98C222.75,212.29 223.02,211.4 223.32,210.6C223.62,209.79 223.92,208.95 224.22,208.13C224.52,207.31 224.82,206.49 225.12,205.68C225.42,204.88 225.73,204.08 226.03,203.29C226.33,202.5 226.63,201.71 226.93,200.93C227.23,200.15 227.54,199.38 227.84,198.61C228.14,197.84 228.44,197.08 228.74,196.31C229.04,195.55 229.34,194.79 229.64,194.02C229.94,193.25 230.25,192.48 230.55,191.7C230.85,190.91 231.15,190.11 231.45,189.31C231.75,188.49 232.06,187.67 232.36,186.83C232.66,185.98 232.96,185.13 233.26,184.26C233.56,183.38 233.86,182.48 234.16,181.58C234.46,180.66 234.77,179.75 235.07,178.81C235.38,177.84 235.68,176.88 235.97,175.86C236.28,174.77 236.59,173.62 236.88,172.45C237.19,171.22 237.48,169.92 237.78,168.63C238.08,167.32 238.38,165.99 238.68,164.64C238.99,163.26 239.3,161.91 239.59,160.45C239.91,158.86 240.21,157.28 240.49,155.45C240.83,153.22 241.11,150.65 241.4,148.03C241.72,145.1 242.01,141.89 242.3,138.7C242.61,135.35 242.91,131.87 243.21,128.41C243.51,124.88 243.81,121.28 244.11,117.72C244.41,114.16 244.71,110.58 245.01,107.04C245.31,103.55 245.61,100.07 245.92,96.65C246.22,93.3 246.51,89.98 246.82,86.73C247.12,83.57 247.42,80.45 247.73,77.41C248.03,74.48 248.32,71.6 248.63,68.8C248.92,66.12 249.22,63.5 249.53,60.96C249.82,58.56 250.13,56.21 250.44,53.96C250.73,51.85 251.03,49.8 251.34,47.85C251.63,46.05 251.93,44.3 252.25,42.67C252.54,41.19 252.83,39.76 253.15,38.46C253.43,37.31 253.72,36.21 254.05,35.24C254.33,34.42 254.61,33.63 254.96,33.02C255.23,32.54 255.51,32.05 255.86,31.83C256.13,31.66 256.49,31.58 256.77,31.66C257.1,31.76 257.4,32.14 257.67,32.51C258.02,32.99 258.3,33.67 258.58,34.37C258.91,35.21 259.2,36.19 259.48,37.21C259.8,38.38 260.09,39.66 260.38,41C260.7,42.48 261,44.07 261.29,45.71C261.61,47.49 261.9,49.37 262.19,51.3C262.5,53.36 262.81,55.5 263.1,57.7C263.41,60.02 263.71,62.43 264,64.88C264.31,67.44 264.6,70.08 264.9,72.75C265.21,75.53 265.51,78.37 265.81,81.24C266.12,84.21 266.41,87.23 266.71,90.28C267.02,93.4 267.32,96.58 267.62,99.77C267.92,103.02 268.22,106.32 268.52,109.63C268.82,112.98 269.12,116.36 269.42,119.74C269.72,123.14 270.03,126.57 270.33,129.99C270.63,133.41 270.93,136.84 271.23,140.25C271.53,143.63 271.84,147.02 272.14,150.36C272.44,153.64 272.73,156.92 273.04,160.13C273.34,163.25 273.64,166.35 273.95,169.35C274.25,172.22 274.54,175.06 274.85,177.78C275.14,180.34 275.44,182.84 275.75,185.24C276.04,187.48 276.35,189.65 276.66,191.73C276.95,193.66 277.25,195.54 277.56,197.32C277.85,198.97 278.15,200.58 278.47,202.06C278.76,203.38 279.05,204.62 279.37,205.79C279.66,206.84 279.96,207.8 280.27,208.75C280.56,209.63 280.87,210.47 281.18,211.29C281.47,212.06 281.77,212.81 282.08,213.52C282.37,214.2 282.68,214.84 282.99,215.47C283.29,216.07 283.59,216.65 283.89,217.22C284.19,217.78 284.49,218.31 284.79,218.86C285.09,219.41 285.4,219.95 285.7,220.5C286,221.06 286.3,221.63 286.6,222.19C286.9,222.74 287.17,223.41 287.51,223.83C287.78,224.17 288.11,224.33 288.41,224.6C288.72,224.88 289.02,225.17 289.32,225.48C289.63,225.79 289.92,226.13 290.22,226.46C290.52,226.8 290.82,227.14 291.12,227.49C291.42,227.84 291.73,228.19 292.03,228.55C292.33,228.91 292.63,229.28 292.93,229.65C293.23,230.03 293.54,230.41 293.84,230.79C294.14,231.17 294.44,231.55 294.74,231.92C295.04,232.28 295.33,232.66 295.64,232.98C295.93,233.27 296.22,233.64 296.55,233.77C296.83,233.88 297.18,233.94 297.45,233.8C297.81,233.61 298.09,232.98 298.36,232.44C298.71,231.75 298.97,230.83 299.26,229.94C299.58,228.95 299.87,227.86 300.16,226.76C300.47,225.57 300.77,224.32 301.07,223.05C301.38,221.73 301.67,220.36 301.97,218.99C302.27,217.59 302.58,216.18 302.88,214.76C303.18,213.34 303.48,211.9 303.78,210.47C304.08,209.04 304.38,207.61 304.68,206.19C304.98,204.78 305.29,203.37 305.59,201.98C305.89,200.61 306.19,199.25 306.49,197.9C306.79,196.58 307.09,195.27 307.4,193.98C307.7,192.72 308,191.47 308.3,190.24C308.6,189.03 308.91,187.84 309.21,186.65C309.51,185.47 309.81,184.3 310.11,183.13C310.41,181.97 310.7,180.79 311.01,179.66C311.31,178.56 311.61,177.47 311.92,176.43C312.21,175.45 312.51,174.49 312.82,173.59C313.11,172.75 313.41,171.95 313.73,171.2C314.02,170.51 314.32,169.87 314.63,169.25C314.92,168.67 315.22,168.12 315.53,167.61C315.82,167.13 316.12,166.66 316.44,166.26C316.73,165.9 317.02,165.59 317.34,165.32C317.63,165.08 317.94,164.87 318.25,164.71C318.54,164.56 318.84,164.43 319.15,164.37C319.45,164.31 319.75,164.3 320.05,164.34C320.36,164.38 320.66,164.5 320.96,164.63C321.27,164.77 321.57,164.93 321.86,165.15C322.18,165.39 322.48,165.69 322.77,166.03C323.09,166.41 323.38,166.86 323.67,167.34C323.99,167.87 324.29,168.46 324.58,169.08C324.9,169.75 325.19,170.47 325.48,171.21C325.79,172 326.09,172.84 326.38,173.69C326.69,174.59 326.99,175.52 327.29,176.47C327.6,177.46 327.89,178.49 328.19,179.52C328.5,180.59 328.8,181.68 329.1,182.78C329.41,183.91 329.7,185.05 330,186.2C330.3,187.36 330.6,188.54 330.9,189.71C331.2,190.89 331.51,192.08 331.81,193.26C332.11,194.43 332.41,195.61 332.71,196.77C333.01,197.91 333.31,199.05 333.62,200.16C333.92,201.24 334.21,202.31 334.52,203.35C334.81,204.35 335.11,205.34 335.42,206.29C335.72,207.2 336.02,208.1 336.33,208.96C336.62,209.78 336.92,210.58 337.23,211.35C337.53,212.09 337.83,212.8 338.14,213.49C338.43,214.15 338.73,214.78 339.04,215.39C339.34,215.98 339.64,216.55 339.95,217.11C340.25,217.65 340.54,218.17 340.85,218.67C341.14,219.15 341.44,219.63 341.75,220.07C342.04,220.49 342.34,220.91 342.66,221.27C342.95,221.6 343.24,221.92 343.56,222.14C343.85,222.34 344.16,222.47 344.47,222.58C344.77,222.68 345.07,222.74 345.37,222.79C345.67,222.84 345.97,222.87 346.27,222.9C346.57,222.93 346.88,222.96 347.18,222.97C347.48,222.98 347.78,222.99 348.08,222.99C348.38,222.99 348.69,222.98 348.99,222.97C349.29,222.96 349.59,222.93 349.89,222.91C350.19,222.89 350.49,222.86 350.79,222.85C351.09,222.84 351.4,222.83 351.7,222.83C352,222.83 352.3,222.84 352.6,222.87C352.9,222.9 353.21,222.95 353.51,223.01C353.81,223.08 354.11,223.16 354.41,223.26C354.72,223.36 355.02,223.49 355.32,223.62C355.62,223.76 355.92,223.91 356.22,224.07C356.52,224.23 356.82,224.41 357.12,224.59C357.42,224.77 357.73,224.97 358.03,225.16C358.33,225.35 358.63,225.54 358.93,225.72C359.23,225.89 359.54,226.03 359.84,226.21C360.15,226.39 360.45,226.58 360.74,226.81C361.05,227.05 361.35,227.34 361.64,227.64C361.95,227.97 362.26,228.33 362.55,228.72C362.86,229.13 363.16,229.57 363.45,230.03C363.76,230.51 364.06,231.03 364.36,231.55C364.67,232.09 364.97,232.66 365.26,233.24C365.57,233.85 365.86,234.48 366.16,235.13C366.47,235.8 366.77,236.5 367.07,237.21C367.38,237.95 367.67,238.71 367.97,239.48C368.28,240.27 368.58,241.07 368.88,241.87C369.18,242.68 369.48,243.51 369.78,244.31C370.08,245.1 370.37,245.91 370.68,246.64C370.97,247.32 371.24,248.06 371.59,248.57C371.86,248.97 372.16,249.4 372.49,249.52C372.77,249.62 373.12,249.54 373.4,249.41C373.73,249.26 374.02,248.89 374.3,248.56C374.62,248.18 374.92,247.71 375.21,247.24C375.52,246.73 375.82,246.17 376.11,245.61C376.42,245.03 376.71,244.42 377.01,243.82C377.31,243.21 377.62,242.58 377.92,241.96C378.22,241.33 378.52,240.7 378.82,240.06C379.12,239.41 379.43,238.75 379.73,238.09C380.03,237.42 380.33,236.73 380.63,236.06C380.93,235.39 381.23,234.71 381.53,234.05C381.83,233.4 382.14,232.79 382.44,232.13C382.75,231.44 383.05,230.76 383.34,230C383.66,229.15 383.94,228.17 384.25,227.27C384.55,226.4 384.85,225.54 385.15,224.7C385.45,223.89 385.74,223.09 386.05,222.31C386.35,221.56 386.65,220.82 386.96,220.1C387.26,219.4 387.55,218.7 387.86,218.04C388.16,217.4 388.46,216.78 388.77,216.19C389.06,215.64 389.36,215.1 389.67,214.6C389.96,214.14 390.26,213.7 390.58,213.31C390.87,212.95 391.17,212.62 391.48,212.34C391.77,212.09 392.07,211.87 392.38,211.7C392.67,211.54 392.98,211.42 393.29,211.35C393.59,211.28 393.89,211.26 394.19,211.26C394.49,211.26 394.8,211.32 395.1,211.38C395.4,211.45 395.7,211.55 396,211.65C396.3,211.75 396.6,211.9 396.9,212C397.2,212.1 397.51,212.24 397.81,212.24C398.11,212.24 398.41,212.08 398.71,211.98C399.02,211.87 399.32,211.74 399.62,211.61C399.92,211.48 400.22,211.33 400.52,211.2C400.82,211.07 401.12,210.93 401.42,210.82C401.72,210.71 402.02,210.6 402.33,210.53C402.63,210.46 402.93,210.4 403.23,210.38C403.53,210.36 403.84,210.38 404.14,210.43C404.44,210.48 404.75,210.57 405.04,210.7C405.35,210.83 405.66,211.02 405.95,211.22C406.26,211.44 406.56,211.69 406.85,211.97C407.16,212.26 407.45,212.59 407.75,212.93C408.06,213.28 408.35,213.7 408.66,214.04C408.95,214.37 409.23,214.87 409.56,214.95C409.84,215.02 410.2,214.85 410.47,214.63C410.83,214.34 411.1,213.74 411.37,213.16C411.72,212.42 411.98,211.41 412.27,210.48C412.58,209.49 412.88,208.41 413.18,207.38C413.48,206.35 413.77,205.3 414.08,204.3C414.38,203.33 414.68,202.37 414.99,201.46C415.28,200.6 415.58,199.75 415.89,198.96C416.18,198.23 416.47,197.51 416.79,196.86C417.08,196.26 417.38,195.69 417.7,195.19C417.99,194.74 418.28,194.31 418.6,193.97C418.89,193.66 419.19,193.39 419.51,193.2C419.8,193.03 420.11,192.9 420.41,192.87C420.71,192.84 421.03,192.89 421.32,193C421.63,193.11 421.94,193.32 422.22,193.56C422.54,193.83 422.83,194.19 423.12,194.56C423.44,194.98 423.74,195.46 424.03,195.97C424.35,196.53 424.64,197.15 424.93,197.79C425.24,198.48 425.55,199.23 425.84,199.99C426.15,200.8 426.45,201.66 426.74,202.53C427.05,203.45 427.34,204.41 427.64,205.39C427.95,206.41 428.25,207.45 428.55,208.51C428.86,209.6 429.15,210.71 429.45,211.82C429.75,212.95 430.06,214.1 430.36,215.24C430.66,216.39 430.96,217.55 431.26,218.7C431.56,219.84 431.85,220.99 432.16,222.11C432.46,223.21 432.76,224.3 433.07,225.36C433.37,226.37 433.66,227.38 433.97,228.33C434.26,229.21 434.56,230.09 434.88,230.86C435.16,231.54 435.44,232.23 435.78,232.75C436.05,233.17 436.34,233.63 436.68,233.79C436.96,233.92 437.31,233.94 437.59,233.83C437.93,233.69 438.22,233.27 438.49,232.87C438.83,232.37 439.12,231.7 439.4,231.02C439.73,230.24 440.01,229.34 440.3,228.42C440.62,227.41 440.92,226.32 441.21,225.2C441.52,224.01 441.82,222.75 442.11,221.47C442.42,220.12 442.72,218.73 443.01,217.3C443.32,215.78 443.62,214.19 443.92,212.58C444.23,210.91 444.52,209.19 444.82,207.47C445.12,205.71 445.43,203.92 445.73,202.13C446.03,200.32 446.33,198.48 446.63,196.65C446.93,194.8 447.23,192.94 447.53,191.08C447.83,189.22 448.14,187.35 448.44,185.5C448.74,183.66 449.04,181.81 449.34,179.98C449.64,178.17 449.95,176.37 450.25,174.58C450.55,172.82 450.85,171.07 451.15,169.35C451.45,167.67 451.74,166 452.05,164.37C452.35,162.78 452.65,161.22 452.96,159.69C453.26,158.22 453.55,156.77 453.86,155.37C454.16,154.03 454.46,152.71 454.77,151.45C455.06,150.26 455.36,149.1 455.67,147.99C455.96,146.96 456.26,145.96 456.58,145.02C456.87,144.16 457.16,143.32 457.48,142.56C457.77,141.87 458.06,141.21 458.38,140.63C458.67,140.11 458.96,139.63 459.29,139.23C459.57,138.88 459.87,138.56 460.19,138.34C460.48,138.14 460.79,138 461.1,137.92Q461.39,137.84 462,137.85" style="vector-effect: non-scaling-stroke; fill: none; stroke: rgb(0, 100, 80); stroke-opacity: 1; stroke-width: 2px; opacity: 1;"/></g><g class="points"/><g class="text"/></g><g class="trace scatter tracef01d0d" style="stroke-miterlimit: 2; opacity: 1;"><g class="fills"/><g class="errorbars"/><g class="lines"><path class="js-line" d="M0,29.81Q0.63,30.07 0.9,30.34C1.26,30.7 1.53,31.31 1.81,31.92C2.15,32.67 2.43,33.6 2.71,34.56C3.04,35.67 3.33,36.92 3.62,38.21C3.94,39.66 4.23,41.23 4.52,42.85C4.83,44.63 5.13,46.51 5.42,48.45C5.73,50.53 6.04,52.72 6.33,54.95C6.64,57.32 6.94,59.78 7.23,62.29C7.54,64.93 7.84,67.65 8.14,70.41C8.45,73.29 8.74,76.24 9.04,79.23C9.35,82.32 9.65,85.48 9.95,88.67C10.26,91.95 10.55,95.28 10.85,98.64C11.15,102.07 11.45,105.54 11.75,109.03C12.05,112.57 12.36,116.15 12.66,119.74C12.96,123.36 13.26,127.02 13.56,130.67C13.86,134.34 14.17,138.02 14.47,141.69C14.77,145.35 15.07,149.02 15.37,152.66C15.67,156.26 15.96,159.88 16.27,163.42C16.57,166.88 16.87,170.34 17.18,173.68C17.47,176.87 17.77,180.01 18.08,183.02C18.37,185.83 18.68,188.57 18.99,191.18C19.28,193.6 19.57,195.98 19.89,198.17C20.17,200.11 20.47,201.95 20.79,203.66C21.08,205.17 21.39,206.55 21.7,207.9C21.99,209.15 22.29,210.35 22.6,211.51C22.89,212.6 23.19,213.65 23.51,214.65C23.8,215.57 24.08,216.5 24.41,217.27C24.69,217.92 24.93,218.77 25.32,219.02C25.58,219.19 25.96,219.23 26.22,219.08C26.61,218.86 26.85,217.98 27.12,217.29C27.47,216.41 27.74,215.27 28.03,214.18C28.35,212.98 28.63,211.63 28.93,210.36C29.23,209.08 29.53,207.77 29.84,206.52C30.13,205.33 30.43,204.15 30.74,203.04C31.03,202 31.32,200.99 31.64,200.05C31.93,199.19 32.23,198.37 32.55,197.61C32.84,196.92 33.13,196.27 33.45,195.67C33.74,195.13 34.04,194.63 34.36,194.18C34.65,193.77 34.95,193.4 35.26,193.06C35.55,192.75 35.85,192.47 36.16,192.22C36.45,191.98 36.76,191.78 37.07,191.58C37.37,191.39 37.67,191.22 37.97,191.05C38.27,190.88 38.58,190.72 38.88,190.54C39.18,190.36 39.48,190.18 39.78,189.98C40.08,189.78 40.38,189.56 40.68,189.34C40.99,189.11 41.29,188.86 41.59,188.62C41.89,188.38 42.18,188.14 42.49,187.92C42.79,187.71 43.09,187.5 43.4,187.33C43.69,187.17 43.99,187.02 44.3,186.93C44.6,186.84 44.91,186.78 45.21,186.78C45.51,186.78 45.82,186.81 46.11,186.9C46.42,186.99 46.72,187.15 47.01,187.33C47.32,187.53 47.63,187.78 47.92,188.06C48.23,188.36 48.53,188.71 48.82,189.08C49.13,189.48 49.44,189.92 49.73,190.37C50.04,190.85 50.34,191.37 50.63,191.9C50.94,192.45 51.23,193.03 51.53,193.61C51.83,194.19 52.13,194.8 52.44,195.38C52.74,195.94 53.02,196.52 53.34,197.01C53.63,197.46 53.93,197.89 54.25,198.23C54.53,198.53 54.83,198.78 55.15,198.96C55.44,199.12 55.74,199.23 56.05,199.28C56.35,199.33 56.66,199.31 56.96,199.29C57.26,199.27 57.56,199.2 57.86,199.16C58.16,199.12 58.47,199.07 58.77,199.04C59.07,199.01 59.37,198.99 59.67,198.97C59.97,198.95 60.28,198.94 60.58,198.95C60.88,198.96 61.18,198.97 61.48,199C61.78,199.03 62.08,199.07 62.38,199.13C62.68,199.2 62.99,199.28 63.29,199.39C63.6,199.5 63.9,199.65 64.19,199.81C64.5,199.98 64.8,200.19 65.1,200.41C65.41,200.64 65.71,200.91 66,201.19C66.31,201.48 66.6,201.8 66.9,202.13C67.21,202.47 67.51,202.83 67.81,203.19C68.12,203.56 68.41,203.95 68.71,204.34C69.01,204.73 69.32,205.12 69.62,205.52C69.92,205.92 70.22,206.32 70.52,206.72C70.82,207.12 71.12,207.51 71.42,207.9C71.72,208.29 72.03,208.69 72.33,209.08C72.63,209.48 72.93,209.87 73.23,210.27C73.53,210.68 73.84,211.09 74.14,211.51C74.45,211.94 74.74,212.39 75.04,212.84C75.35,213.31 75.65,213.8 75.95,214.27C76.25,214.74 76.51,215.33 76.85,215.68C77.12,215.96 77.44,216.13 77.75,216.29C78.04,216.45 78.36,216.52 78.66,216.65C78.96,216.78 79.25,216.95 79.56,217.05C79.86,217.14 80.17,217.22 80.47,217.23C80.77,217.24 81.07,217.16 81.37,217.13C81.67,217.1 81.97,217.04 82.27,217.05C82.57,217.06 82.88,217.09 83.18,217.18C83.49,217.27 83.79,217.43 84.08,217.61C84.39,217.81 84.7,218.06 84.99,218.35C85.31,218.67 85.6,219.05 85.89,219.45C86.21,219.89 86.5,220.38 86.79,220.9C87.11,221.46 87.41,222.07 87.7,222.71C88.01,223.4 88.31,224.13 88.6,224.89C88.91,225.7 89.22,226.55 89.51,227.43C89.82,228.36 90.12,229.33 90.41,230.32C90.72,231.36 91.02,232.44 91.32,233.54C91.63,234.69 91.92,235.87 92.22,237.07C92.53,238.31 92.82,239.58 93.12,240.86C93.43,242.18 93.73,243.53 94.03,244.89C94.34,246.28 94.63,247.69 94.93,249.11C95.23,250.55 95.54,252 95.84,253.46C96.14,254.93 96.44,256.41 96.74,257.88C97.04,259.35 97.34,260.83 97.64,262.29C97.94,263.73 98.24,265.18 98.55,266.58C98.85,267.93 99.13,269.33 99.45,270.56C99.73,271.64 99.97,272.82 100.36,273.56C100.62,274.06 100.92,274.6 101.26,274.7C101.53,274.78 101.89,274.6 102.16,274.38C102.52,274.09 102.79,273.48 103.07,272.93C103.4,272.29 103.68,271.52 103.97,270.75C104.29,269.91 104.59,269.04 104.88,268.08C105.2,266.99 105.5,265.81 105.78,264.56C106.1,263.14 106.38,261.56 106.68,260.01C106.99,258.39 107.29,256.71 107.59,255.02C107.9,253.27 108.19,251.47 108.49,249.67C108.79,247.83 109.1,245.97 109.4,244.11C109.7,242.24 110,240.35 110.3,238.48C110.6,236.61 110.91,234.74 111.21,232.89C111.51,231.05 111.81,229.22 112.11,227.41C112.41,225.62 112.71,223.85 113.01,222.09C113.31,220.36 113.62,218.64 113.92,216.94C114.22,215.27 114.52,213.62 114.82,211.98C115.12,210.38 115.43,208.79 115.73,207.22C116.03,205.68 116.33,204.16 116.63,202.66C116.93,201.19 117.22,199.73 117.53,198.3C117.83,196.9 118.13,195.52 118.44,194.16C118.74,192.83 119.03,191.52 119.34,190.24C119.64,189 119.94,187.77 120.25,186.57C120.55,185.41 120.84,184.26 121.15,183.14C121.44,182.07 121.74,181.01 122.05,179.99C122.35,179.01 122.65,178.05 122.96,177.12C123.25,176.24 123.55,175.37 123.86,174.55C124.15,173.77 124.46,173.02 124.77,172.3C125.06,171.63 125.36,170.97 125.67,170.36C125.96,169.78 126.27,169.24 126.58,168.72C126.87,168.24 127.17,167.79 127.48,167.36C127.77,166.95 128.07,166.57 128.38,166.2C128.68,165.84 128.98,165.5 129.29,165.17C129.59,164.85 129.88,164.53 130.19,164.24C130.49,163.97 130.79,163.7 131.1,163.48C131.39,163.27 131.69,163.08 132,162.93C132.29,162.79 132.59,162.67 132.9,162.6C133.2,162.53 133.51,162.5 133.81,162.51C134.11,162.52 134.42,162.58 134.71,162.68C135.02,162.78 135.33,162.93 135.62,163.12C135.93,163.32 136.23,163.58 136.52,163.87C136.84,164.19 137.13,164.56 137.42,164.96C137.74,165.4 138.04,165.88 138.33,166.4C138.65,166.96 138.94,167.58 139.23,168.22C139.55,168.92 139.85,169.67 140.14,170.44C140.45,171.27 140.75,172.15 141.04,173.05C141.35,174.01 141.66,175.02 141.95,176.06C142.26,177.15 142.56,178.29 142.85,179.45C143.16,180.67 143.45,181.93 143.75,183.21C144.06,184.55 144.36,185.92 144.66,187.32C144.97,188.77 145.26,190.24 145.56,191.74C145.87,193.29 146.17,194.87 146.47,196.46C146.78,198.09 147.07,199.76 147.37,201.43C147.67,203.14 147.97,204.87 148.27,206.61C148.57,208.37 148.88,210.15 149.18,211.94C149.48,213.74 149.78,215.56 150.08,217.38C150.38,219.2 150.69,221.03 150.99,222.86C151.29,224.69 151.59,226.52 151.89,228.34C152.19,230.15 152.49,231.96 152.79,233.76C153.09,235.54 153.4,237.31 153.7,239.07C154,240.8 154.3,242.52 154.6,244.22C154.9,245.88 155.2,247.54 155.51,249.16C155.81,250.72 156.1,252.29 156.41,253.77C156.7,255.15 156.91,256.8 157.32,257.74C157.58,258.32 157.92,259.04 158.22,259.04C158.52,259.04 158.84,258.25 159.12,257.75C159.45,257.15 159.73,256.38 160.03,255.67C160.34,254.93 160.63,254.15 160.93,253.39C161.23,252.62 161.54,251.85 161.84,251.08C162.14,250.3 162.44,249.53 162.74,248.74C163.04,247.93 163.35,247.12 163.64,246.26C163.95,245.34 164.26,244.39 164.55,243.38C164.87,242.29 165.15,241.11 165.45,239.93C165.76,238.7 166.06,237.4 166.36,236.15C166.66,234.91 166.95,233.65 167.26,232.44C167.56,231.27 167.85,230.1 168.16,228.98C168.46,227.91 168.76,226.85 169.07,225.84C169.36,224.89 169.66,223.95 169.97,223.07C170.26,222.24 170.57,221.44 170.88,220.69C171.17,219.99 171.47,219.32 171.78,218.7C172.07,218.13 172.36,217.59 172.68,217.11C172.97,216.67 173.27,216.25 173.59,215.9C173.88,215.58 174.17,215.29 174.49,215.07C174.78,214.87 175.09,214.69 175.4,214.59C175.69,214.49 176,214.45 176.3,214.45C176.6,214.45 176.91,214.52 177.21,214.62C177.52,214.73 177.82,214.9 178.11,215.09C178.42,215.3 178.72,215.56 179.01,215.84C179.32,216.14 179.63,216.49 179.92,216.85C180.23,217.23 180.53,217.66 180.82,218.09C181.13,218.55 181.43,219.03 181.73,219.53C182.04,220.04 182.33,220.58 182.63,221.12C182.93,221.68 183.23,222.25 183.53,222.82C183.83,223.39 184.13,223.97 184.44,224.52C184.73,225.04 185.01,225.61 185.34,226.02C185.62,226.37 185.92,226.73 186.25,226.87C186.53,226.99 186.86,226.96 187.15,226.9C187.46,226.83 187.76,226.64 188.05,226.46C188.36,226.27 188.67,226.03 188.96,225.77C189.27,225.5 189.57,225.19 189.86,224.86C190.17,224.51 190.48,224.12 190.77,223.71C191.08,223.27 191.38,222.79 191.67,222.29C191.98,221.75 192.29,221.18 192.58,220.59C192.89,219.97 193.19,219.32 193.48,218.65C193.79,217.95 194.08,217.22 194.38,216.49C194.69,215.73 194.99,214.96 195.29,214.18C195.59,213.39 195.89,212.58 196.19,211.77C196.49,210.95 196.8,210.13 197.1,209.31C197.4,208.49 197.7,207.66 198,206.84C198.3,206.03 198.6,205.23 198.9,204.43C199.2,203.64 199.5,202.86 199.81,202.09C200.11,201.34 200.4,200.6 200.71,199.87C201.01,199.16 201.31,198.47 201.62,197.79C201.92,197.14 202.21,196.5 202.52,195.89C202.81,195.3 203.11,194.73 203.42,194.19C203.71,193.67 204.02,193.18 204.33,192.71C204.62,192.27 204.92,191.85 205.23,191.47C205.52,191.11 205.83,190.78 206.14,190.49C206.43,190.22 206.73,189.98 207.04,189.78C207.33,189.6 207.64,189.44 207.95,189.34C208.24,189.24 208.55,189.18 208.85,189.17C209.15,189.16 209.45,189.21 209.75,189.29C210.06,189.37 210.37,189.51 210.66,189.68C210.97,189.86 211.27,190.09 211.56,190.33C211.87,190.59 212.17,190.89 212.47,191.2C212.78,191.52 213.06,191.9 213.37,192.22C213.66,192.52 213.95,192.88 214.27,193.07C214.55,193.24 214.87,193.29 215.18,193.36C215.48,193.43 215.78,193.4 216.08,193.47C216.39,193.54 216.7,193.64 216.99,193.8C217.3,193.97 217.6,194.22 217.89,194.49C218.21,194.8 218.5,195.17 218.79,195.57C219.11,196.02 219.41,196.54 219.7,197.09C220.02,197.69 220.31,198.35 220.6,199.04C220.92,199.79 221.22,200.59 221.51,201.42C221.82,202.31 222.12,203.25 222.41,204.22C222.72,205.25 223.03,206.32 223.32,207.41C223.63,208.56 223.93,209.75 224.22,210.95C224.53,212.2 224.82,213.48 225.12,214.77C225.43,216.09 225.73,217.45 226.03,218.8C226.33,220.17 226.63,221.55 226.93,222.92C227.23,224.28 227.53,225.66 227.84,227C228.14,228.3 228.43,229.6 228.74,230.84C229.03,232.02 229.32,233.18 229.64,234.26C229.93,235.25 230.23,236.21 230.55,237.1C230.84,237.9 231.13,238.65 231.45,239.34C231.74,239.96 232.04,240.53 232.36,241.05C232.65,241.52 232.91,242.1 233.26,242.34C233.53,242.53 233.86,242.6 234.16,242.57C234.47,242.54 234.81,242.4 235.07,242.13C235.46,241.73 235.7,240.95 235.97,240.15C236.34,239.04 236.6,237.52 236.88,236.01C237.21,234.22 237.49,232.14 237.78,230.11C238.09,227.95 238.38,225.67 238.68,223.42C238.98,221.13 239.29,218.79 239.59,216.47C239.89,214.13 240.19,211.78 240.49,209.44C240.79,207.1 241.1,204.76 241.4,202.43C241.7,200.12 242,197.8 242.3,195.51C242.6,193.25 242.91,190.99 243.21,188.76C243.51,186.57 243.81,184.39 244.11,182.24C244.41,180.13 244.7,178.05 245.01,175.99C245.31,173.98 245.61,171.99 245.92,170.04C246.22,168.14 246.51,166.26 246.82,164.42C247.12,162.63 247.42,160.87 247.73,159.15C248.03,157.48 248.32,155.84 248.63,154.24C248.92,152.69 249.22,151.17 249.53,149.69C249.83,148.27 250.13,146.87 250.44,145.51C250.74,144.2 251.03,142.93 251.34,141.68C251.64,140.49 251.94,139.32 252.25,138.19C252.55,137.11 252.84,136.05 253.15,135.02C253.44,134.03 253.75,133.07 254.05,132.11C254.35,131.17 254.67,130.28 254.96,129.32C255.27,128.31 255.58,127.34 255.86,126.21C256.19,124.89 256.48,123.4 256.77,121.87C257.09,120.16 257.37,118.24 257.67,116.4C257.98,114.52 258.28,112.57 258.58,110.68C258.88,108.83 259.17,106.97 259.48,105.17C259.77,103.43 260.07,101.71 260.38,100.04C260.67,98.45 260.98,96.9 261.29,95.4C261.58,93.99 261.88,92.61 262.19,91.3C262.48,90.09 262.78,88.92 263.1,87.82C263.39,86.82 263.68,85.85 264,84.97C264.28,84.19 264.57,83.45 264.9,82.81C265.18,82.27 265.47,81.74 265.81,81.36C266.09,81.04 266.39,80.74 266.71,80.62C267,80.52 267.33,80.52 267.62,80.62C267.94,80.74 268.24,81.04 268.52,81.36C268.86,81.75 269.14,82.28 269.42,82.83C269.75,83.48 270.04,84.23 270.33,85.02C270.65,85.91 270.94,86.91 271.23,87.93C271.55,89.06 271.85,90.26 272.14,91.51C272.45,92.86 272.75,94.29 273.04,95.75C273.35,97.31 273.66,98.94 273.95,100.61C274.26,102.37 274.56,104.19 274.85,106.05C275.16,107.99 275.45,109.98 275.75,112.01C276.06,114.11 276.36,116.27 276.66,118.45C276.97,120.69 277.26,122.98 277.56,125.29C277.87,127.66 278.17,130.06 278.47,132.48C278.77,134.94 279.07,137.44 279.37,139.94C279.67,142.47 279.97,145.03 280.27,147.59C280.57,150.17 280.88,152.76 281.18,155.35C281.48,157.94 281.78,160.54 282.08,163.12C282.38,165.69 282.69,168.26 282.99,170.81C283.29,173.33 283.59,175.84 283.89,178.31C284.19,180.73 284.48,183.13 284.79,185.48C285.09,187.76 285.39,190.02 285.7,192.21C286,194.3 286.29,196.36 286.6,198.35C286.89,200.22 287.2,202.06 287.51,203.81C287.8,205.43 288.09,207 288.41,208.47C288.7,209.8 288.99,211.09 289.32,212.25C289.6,213.26 289.89,214.23 290.22,215.06C290.5,215.76 290.79,216.41 291.12,216.94C291.4,217.39 291.71,217.77 292.03,218.08C292.31,218.35 292.62,218.56 292.93,218.74C293.22,218.91 293.53,219.04 293.84,219.16C294.14,219.28 294.44,219.38 294.74,219.48C295.04,219.58 295.34,219.69 295.64,219.76C295.94,219.83 296.25,219.93 296.55,219.9C296.86,219.87 297.15,219.69 297.45,219.56C297.76,219.42 298.05,219.22 298.36,219.09C298.66,218.97 298.96,218.86 299.26,218.81C299.56,218.76 299.86,218.76 300.16,218.81C300.47,218.86 300.78,218.98 301.07,219.13C301.38,219.29 301.68,219.52 301.97,219.78C302.29,220.06 302.59,220.4 302.88,220.77C303.2,221.17 303.49,221.63 303.78,222.1C304.09,222.61 304.39,223.17 304.68,223.75C304.99,224.37 305.3,225.03 305.59,225.7C305.9,226.41 306.19,227.15 306.49,227.91C306.8,228.7 307.1,229.51 307.4,230.33C307.71,231.17 308,232.04 308.3,232.9C308.6,233.77 308.91,234.65 309.21,235.51C309.51,236.36 309.8,237.2 310.11,238.02C310.4,238.81 310.7,239.58 311.01,240.33C311.31,241.05 311.61,241.75 311.92,242.42C312.21,243.06 312.51,243.69 312.82,244.28C313.11,244.83 313.41,245.36 313.73,245.83C314.02,246.25 314.31,246.67 314.63,246.98C314.91,247.26 315.21,247.51 315.53,247.65C315.82,247.77 316.14,247.83 316.44,247.8C316.75,247.77 317.06,247.62 317.34,247.44C317.66,247.23 317.96,246.92 318.25,246.59C318.57,246.23 318.86,245.79 319.15,245.35C319.46,244.87 319.76,244.35 320.05,243.81C320.36,243.24 320.67,242.66 320.96,242.03C321.27,241.36 321.57,240.66 321.86,239.9C322.18,239.05 322.48,238.1 322.77,237.14C323.08,236.1 323.37,234.96 323.67,233.87C323.97,232.78 324.28,231.67 324.58,230.59C324.88,229.53 325.18,228.48 325.48,227.45C325.78,226.45 326.07,225.46 326.38,224.49C326.68,223.56 326.98,222.64 327.29,221.75C327.59,220.9 327.88,220.06 328.19,219.25C328.48,218.48 328.79,217.73 329.1,217.01C329.39,216.33 329.69,215.67 330,215.05C330.29,214.46 330.59,213.9 330.9,213.37C331.19,212.88 331.5,212.4 331.81,211.97C332.1,211.57 332.4,211.18 332.71,210.84C333,210.52 333.31,210.23 333.62,209.97C333.91,209.73 334.21,209.52 334.52,209.33C334.81,209.15 335.12,209 335.42,208.85C335.72,208.71 336.03,208.59 336.33,208.46C336.63,208.33 336.93,208.19 337.23,208.07C337.53,207.95 337.84,207.82 338.14,207.72C338.44,207.62 338.74,207.53 339.04,207.47C339.34,207.41 339.65,207.38 339.95,207.38C340.25,207.38 340.55,207.4 340.85,207.46C341.15,207.52 341.45,207.61 341.75,207.72C342.06,207.83 342.36,207.97 342.66,208.13C342.97,208.3 343.26,208.5 343.56,208.71C343.87,208.93 344.17,209.16 344.47,209.42C344.78,209.69 345.07,209.98 345.37,210.28C345.67,210.59 345.97,210.91 346.27,211.25C346.58,211.6 346.88,211.96 347.18,212.34C347.49,212.73 347.78,213.13 348.08,213.54C348.39,213.96 348.69,214.4 348.99,214.84C349.29,215.29 349.59,215.75 349.89,216.22C350.19,216.7 350.49,217.2 350.79,217.7C351.09,218.21 351.4,218.72 351.7,219.25C352,219.78 352.3,220.33 352.6,220.88C352.9,221.44 353.21,222.01 353.51,222.58C353.81,223.16 354.11,223.74 354.41,224.32C354.71,224.9 355.02,225.49 355.32,226.08C355.62,226.66 355.92,227.25 356.22,227.83C356.52,228.4 356.82,228.96 357.12,229.51C357.42,230.05 357.73,230.58 358.03,231.11C358.33,231.62 358.63,232.13 358.93,232.63C359.23,233.12 359.54,233.61 359.84,234.09C360.14,234.56 360.44,235.04 360.74,235.5C361.04,235.95 361.33,236.39 361.64,236.81C361.94,237.21 362.24,237.61 362.55,237.97C362.84,238.32 363.14,238.65 363.45,238.95C363.75,239.24 364.04,239.54 364.36,239.75C364.65,239.94 364.96,240.18 365.26,240.2C365.56,240.22 365.9,240.1 366.16,239.86C366.55,239.5 366.78,238.63 367.07,237.96C367.39,237.23 367.67,236.41 367.97,235.64C368.27,234.87 368.58,234.08 368.88,233.32C369.18,232.57 369.48,231.83 369.78,231.1C370.08,230.39 370.37,229.69 370.68,229C370.98,228.33 371.28,227.68 371.59,227.04C371.89,226.42 372.18,225.81 372.49,225.22C372.79,224.65 373.09,224.1 373.4,223.56C373.7,223.05 373.99,222.55 374.3,222.07C374.6,221.61 374.9,221.17 375.21,220.76C375.5,220.37 375.8,220 376.11,219.66C376.4,219.34 376.7,219.04 377.01,218.79C377.3,218.55 377.61,218.34 377.92,218.17C378.21,218.01 378.51,217.89 378.82,217.81C379.12,217.74 379.43,217.7 379.73,217.71C380.03,217.72 380.33,217.77 380.63,217.86C380.94,217.95 381.23,218.09 381.53,218.24C381.84,218.4 382.14,218.59 382.44,218.79C382.75,218.99 383.04,219.23 383.34,219.44C383.64,219.64 383.94,219.86 384.25,220.02C384.54,220.17 384.85,220.29 385.15,220.37C385.45,220.45 385.75,220.45 386.05,220.49C386.35,220.53 386.66,220.53 386.96,220.59C387.26,220.65 387.57,220.72 387.86,220.83C388.17,220.95 388.48,221.11 388.77,221.3C389.08,221.5 389.38,221.75 389.67,222.02C389.98,222.31 390.29,222.64 390.58,222.99C390.89,223.35 391.19,223.75 391.48,224.16C391.79,224.58 392.08,225.03 392.38,225.48C392.69,225.94 392.99,226.42 393.29,226.89C393.59,227.36 393.89,227.84 394.19,228.32C394.49,228.81 394.8,229.3 395.1,229.79C395.4,230.29 395.7,230.79 396,231.29C396.3,231.79 396.59,232.33 396.9,232.8C397.19,233.23 397.48,233.68 397.81,234C398.09,234.27 398.4,234.43 398.71,234.62C399.01,234.8 399.32,234.95 399.62,235.11C399.92,235.26 400.22,235.41 400.52,235.55C400.82,235.69 401.12,235.81 401.42,235.93C401.72,236.05 402.03,236.15 402.33,236.25C402.63,236.35 402.93,236.45 403.23,236.53C403.53,236.61 403.84,236.68 404.14,236.74C404.44,236.8 404.74,236.85 405.04,236.88C405.34,236.91 405.65,236.92 405.95,236.92C406.25,236.92 406.55,236.9 406.85,236.88C407.15,236.86 407.45,236.81 407.75,236.78C408.05,236.74 408.36,236.7 408.66,236.67C408.96,236.64 409.26,236.61 409.56,236.59C409.86,236.57 410.17,236.56 410.47,236.57C410.77,236.58 411.07,236.59 411.37,236.63C411.67,236.67 411.97,236.72 412.27,236.79C412.57,236.86 412.88,236.95 413.18,237.05C413.48,237.15 413.78,237.28 414.08,237.41C414.38,237.54 414.69,237.7 414.99,237.84C415.29,237.98 415.59,238.13 415.89,238.25C416.19,238.36 416.49,238.47 416.79,238.54C417.09,238.6 417.4,238.62 417.7,238.64C418,238.66 418.3,238.65 418.6,238.66C418.9,238.67 419.21,238.68 419.51,238.7C419.81,238.72 420.11,238.75 420.41,238.79C420.71,238.84 421.02,238.89 421.32,238.97C421.62,239.05 421.92,239.15 422.22,239.26C422.52,239.37 422.82,239.5 423.12,239.65C423.43,239.8 423.73,239.97 424.03,240.16C424.34,240.35 424.63,240.56 424.93,240.78C425.24,241.01 425.54,241.25 425.84,241.5C426.15,241.76 426.44,242.04 426.74,242.32C427.04,242.61 427.34,242.9 427.64,243.2C427.94,243.5 428.25,243.81 428.55,244.12C428.85,244.43 429.15,244.74 429.45,245.04C429.75,245.34 430.06,245.65 430.36,245.94C430.66,246.23 430.96,246.51 431.26,246.79C431.56,247.07 431.86,247.34 432.16,247.61C432.46,247.88 432.77,248.15 433.07,248.43C433.37,248.71 433.67,248.98 433.97,249.27C434.27,249.56 434.58,249.86 434.88,250.17C435.18,250.48 435.48,250.8 435.78,251.12C436.08,251.44 436.38,251.77 436.68,252.1C436.98,252.43 437.28,252.76 437.59,253.08C437.89,253.39 438.18,253.71 438.49,253.99C438.79,254.26 439.09,254.53 439.4,254.76C439.69,254.97 439.99,255.17 440.3,255.32C440.6,255.47 440.9,255.58 441.21,255.66C441.51,255.74 441.81,255.78 442.11,255.81C442.41,255.84 442.71,255.84 443.01,255.85C443.31,255.86 443.62,255.85 443.92,255.86C444.22,255.87 444.52,255.87 444.82,255.9C445.12,255.93 445.43,255.96 445.73,256.03C446.03,256.1 446.33,256.19 446.63,256.3C446.93,256.42 447.23,256.56 447.53,256.72C447.84,256.89 448.14,257.09 448.44,257.31C448.75,257.54 449.05,257.81 449.34,258.09C449.65,258.38 449.95,258.71 450.25,259.04C450.56,259.38 450.85,259.76 451.15,260.1C451.45,260.43 451.73,260.8 452.05,261.06C452.34,261.29 452.65,261.44 452.96,261.59C453.26,261.74 453.56,261.82 453.86,261.96C454.17,262.1 454.47,262.25 454.77,262.43C455.08,262.61 455.37,262.81 455.67,263.03C455.98,263.26 456.28,263.51 456.58,263.77C456.89,264.04 457.18,264.32 457.48,264.61C457.78,264.9 458.08,265.21 458.38,265.52C458.68,265.83 458.99,266.14 459.29,266.45C459.59,266.75 459.88,267.06 460.19,267.34C460.49,267.61 460.79,267.88 461.1,268.1Q461.39,268.31 462,268.63" style="vector-effect: non-scaling-stroke; fill: none; stroke: rgb(0, 176, 246); stroke-opacity: 1; stroke-width: 2px; opacity: 1;"/></g><g class="points"/><g class="text"/></g><g class="trace scatter trace146b47" style="stroke-miterlimit: 2; opacity: 1;"><g class="fills"/><g class="errorbars"/><g class="lines"><path class="js-line" d="M0,180.37Q0.61,180.43 0.9,180.54C1.21,180.65 1.52,180.83 1.81,181.04C2.13,181.27 2.42,181.57 2.71,181.89C3.03,182.24 3.33,182.64 3.62,183.06C3.94,183.52 4.23,184.04 4.52,184.57C4.83,185.15 5.13,185.77 5.42,186.41C5.73,187.1 6.04,187.83 6.33,188.58C6.64,189.38 6.94,190.21 7.23,191.06C7.54,191.96 7.84,192.9 8.14,193.86C8.45,194.86 8.74,195.9 9.04,196.96C9.35,198.07 9.65,199.2 9.95,200.36C10.26,201.56 10.55,202.79 10.85,204.04C11.16,205.33 11.45,206.65 11.75,207.98C12.06,209.35 12.36,210.76 12.66,212.17C12.97,213.62 13.26,215.09 13.56,216.57C13.86,218.08 14.17,219.62 14.47,221.16C14.77,222.72 15.07,224.31 15.37,225.89C15.67,227.49 15.97,229.1 16.27,230.71C16.57,232.32 16.88,233.93 17.18,235.53C17.48,237.12 17.77,238.71 18.08,240.27C18.38,241.8 18.68,243.32 18.99,244.8C19.29,246.22 19.58,247.64 19.89,248.99C20.18,250.27 20.48,251.53 20.79,252.72C21.08,253.83 21.38,254.9 21.7,255.91C21.99,256.84 22.28,257.73 22.6,258.56C22.89,259.32 23.2,260.05 23.51,260.73C23.8,261.36 24.09,261.96 24.41,262.52C24.7,263.03 25,263.54 25.32,263.96C25.61,264.33 25.9,264.69 26.22,264.94C26.5,265.15 26.81,265.31 27.12,265.4C27.41,265.49 27.73,265.46 28.03,265.49C28.33,265.51 28.63,265.53 28.93,265.55C29.23,265.58 29.54,265.6 29.84,265.64C30.14,265.68 30.44,265.73 30.74,265.79C31.04,265.85 31.34,265.92 31.64,265.99C31.94,266.07 32.25,266.16 32.55,266.24C32.85,266.32 33.15,266.42 33.45,266.49C33.75,266.56 34.06,266.64 34.36,266.67C34.66,266.7 34.96,266.73 35.26,266.69C35.56,266.65 35.88,266.58 36.16,266.42C36.48,266.24 36.8,265.98 37.07,265.63C37.42,265.19 37.69,264.56 37.97,263.91C38.31,263.11 38.59,262.13 38.88,261.17C39.2,260.13 39.48,258.99 39.78,257.88C40.08,256.76 40.38,255.6 40.68,254.48C40.98,253.38 41.28,252.28 41.59,251.21C41.89,250.18 42.18,249.16 42.49,248.17C42.79,247.23 43.09,246.3 43.4,245.42C43.69,244.58 43.99,243.77 44.3,243C44.59,242.28 44.9,241.58 45.21,240.92C45.5,240.31 45.8,239.73 46.11,239.2C46.4,238.71 46.69,238.25 47.01,237.85C47.3,237.48 47.6,237.14 47.92,236.87C48.21,236.62 48.51,236.4 48.82,236.26C49.11,236.13 49.43,236.04 49.73,236.02C50.03,236 50.34,236.04 50.63,236.14C50.94,236.24 51.24,236.42 51.53,236.63C51.85,236.86 52.15,237.14 52.44,237.46C52.76,237.81 53.05,238.22 53.34,238.65C53.66,239.12 53.96,239.63 54.25,240.16C54.56,240.73 54.86,241.35 55.15,241.98C55.46,242.66 55.76,243.37 56.05,244.1C56.36,244.87 56.66,245.68 56.96,246.5C57.27,247.35 57.56,248.24 57.86,249.13C58.17,250.06 58.47,251.01 58.77,251.97C59.08,252.95 59.37,253.96 59.67,254.97C59.97,256 60.28,257.04 60.58,258.08C60.88,259.12 61.18,260.18 61.48,261.22C61.78,262.25 62.08,263.29 62.38,264.3C62.68,265.3 62.98,266.29 63.29,267.25C63.59,268.17 63.88,269.09 64.19,269.95C64.48,270.76 64.78,271.56 65.1,272.28C65.39,272.93 65.68,273.56 66,274.1C66.28,274.58 66.58,275 66.9,275.38C67.19,275.72 67.5,276.01 67.81,276.27C68.1,276.52 68.4,276.74 68.71,276.92C69,277.1 69.31,277.27 69.62,277.36C69.91,277.45 70.24,277.57 70.52,277.49C70.84,277.4 71.16,277.11 71.42,276.74C71.81,276.18 72.05,275.15 72.33,274.26C72.65,273.24 72.93,272.06 73.23,270.93C73.54,269.77 73.84,268.59 74.14,267.41C74.44,266.23 74.74,265.05 75.04,263.87C75.34,262.7 75.65,261.53 75.95,260.38C76.25,259.25 76.55,258.13 76.85,257.02C77.15,255.93 77.44,254.85 77.75,253.79C78.05,252.76 78.35,251.74 78.66,250.75C78.96,249.79 79.25,248.84 79.56,247.91C79.86,247.02 80.16,246.14 80.47,245.29C80.77,244.47 81.06,243.67 81.37,242.9C81.66,242.16 81.96,241.45 82.27,240.76C82.56,240.11 82.87,239.47 83.18,238.87C83.47,238.3 83.77,237.75 84.08,237.24C84.37,236.76 84.68,236.29 84.99,235.87C85.28,235.48 85.58,235.1 85.89,234.77C86.18,234.46 86.48,234.17 86.79,233.93C87.08,233.71 87.39,233.52 87.7,233.37C87.99,233.23 88.3,233.13 88.6,233.07C88.9,233.01 89.21,233 89.51,233.03C89.81,233.06 90.12,233.15 90.41,233.26C90.72,233.38 91.03,233.55 91.32,233.75C91.63,233.96 91.93,234.21 92.22,234.49C92.53,234.79 92.83,235.13 93.12,235.49C93.43,235.87 93.74,236.28 94.03,236.72C94.34,237.18 94.64,237.69 94.93,238.2C95.24,238.74 95.54,239.31 95.84,239.9C96.15,240.51 96.45,241.15 96.74,241.81C97.05,242.5 97.34,243.21 97.64,243.93C97.95,244.68 98.25,245.45 98.55,246.23C98.86,247.03 99.15,247.85 99.45,248.68C99.75,249.53 100.06,250.39 100.36,251.25C100.66,252.11 100.95,253 101.26,253.84C101.55,254.64 101.81,255.55 102.16,256.18C102.43,256.67 102.75,257.34 103.07,257.38C103.35,257.41 103.7,257 103.97,256.65C104.34,256.16 104.6,255.32 104.88,254.55C105.21,253.65 105.49,252.6 105.78,251.57C106.09,250.48 106.38,249.33 106.68,248.19C106.98,247.04 107.29,245.87 107.59,244.71C107.89,243.56 108.19,242.4 108.49,241.26C108.79,240.13 109.1,239.02 109.4,237.91C109.7,236.83 109.99,235.75 110.3,234.69C110.6,233.66 110.9,232.63 111.21,231.63C111.51,230.66 111.81,229.7 112.11,228.76C112.41,227.85 112.7,226.95 113.01,226.07C113.31,225.22 113.61,224.39 113.92,223.58C114.22,222.8 114.51,222.03 114.82,221.28C115.12,220.56 115.42,219.86 115.73,219.17C116.03,218.51 116.32,217.87 116.63,217.24C116.92,216.64 117.22,216.05 117.53,215.48C117.83,214.93 118.13,214.4 118.44,213.88C118.74,213.38 119.03,212.89 119.34,212.42C119.64,211.96 119.94,211.52 120.25,211.09C120.55,210.68 120.84,210.28 121.15,209.9C121.45,209.53 121.74,209.17 122.05,208.83C122.35,208.5 122.65,208.19 122.96,207.89C123.26,207.61 123.55,207.34 123.86,207.09C124.16,206.85 124.46,206.63 124.77,206.43C125.07,206.24 125.36,206.07 125.67,205.92C125.97,205.77 126.27,205.64 126.58,205.54C126.88,205.44 127.18,205.36 127.48,205.3C127.78,205.24 128.08,205.21 128.38,205.2C128.68,205.19 128.99,205.2 129.29,205.23C129.59,205.26 129.89,205.31 130.19,205.37C130.49,205.44 130.8,205.52 131.1,205.62C131.4,205.72 131.7,205.84 132,205.97C132.3,206.1 132.6,206.25 132.9,206.41C133.2,206.57 133.51,206.73 133.81,206.91C134.11,207.09 134.41,207.28 134.71,207.48C135.01,207.68 135.32,207.89 135.62,208.1C135.92,208.31 136.22,208.53 136.52,208.75C136.82,208.97 137.12,209.21 137.42,209.44C137.72,209.67 138.03,209.91 138.33,210.15C138.63,210.39 138.93,210.64 139.23,210.88C139.53,211.13 139.84,211.37 140.14,211.62C140.44,211.87 140.74,212.13 141.04,212.38C141.34,212.63 141.65,212.88 141.95,213.14C142.25,213.39 142.55,213.65 142.85,213.91C143.15,214.17 143.45,214.44 143.75,214.7C144.05,214.97 144.36,215.23 144.66,215.5C144.96,215.77 145.26,216.05 145.56,216.33C145.86,216.61 146.17,216.89 146.47,217.18C146.77,217.47 147.07,217.77 147.37,218.07C147.67,218.37 147.97,218.69 148.27,219C148.57,219.32 148.88,219.64 149.18,219.97C149.48,220.3 149.78,220.64 150.08,220.98C150.38,221.33 150.69,221.68 150.99,222.04C151.29,222.4 151.59,222.77 151.89,223.15C152.19,223.53 152.49,223.92 152.79,224.31C153.09,224.7 153.4,225.1 153.7,225.5C154,225.91 154.3,226.32 154.6,226.73C154.9,227.14 155.21,227.56 155.51,227.97C155.81,228.38 156.11,228.8 156.41,229.2C156.71,229.6 157.01,230 157.32,230.37C157.61,230.72 157.9,231.09 158.22,231.37C158.51,231.63 158.8,231.9 159.12,232.02C159.41,232.13 159.73,232.17 160.03,232.13C160.34,232.09 160.64,231.91 160.93,231.74C161.24,231.55 161.54,231.3 161.84,231.04C162.15,230.77 162.45,230.47 162.74,230.16C163.05,229.84 163.35,229.49 163.64,229.13C163.95,228.75 164.25,228.34 164.55,227.91C164.86,227.46 165.16,227 165.45,226.51C165.76,226 166.06,225.46 166.36,224.91C166.67,224.34 166.96,223.75 167.26,223.15C167.56,222.53 167.86,221.89 168.16,221.25C168.47,220.59 168.77,219.91 169.07,219.23C169.37,218.54 169.67,217.83 169.97,217.12C170.27,216.4 170.58,215.68 170.88,214.96C171.18,214.24 171.48,213.5 171.78,212.78C172.08,212.06 172.38,211.34 172.68,210.63C172.98,209.93 173.28,209.23 173.59,208.55C173.89,207.89 174.18,207.23 174.49,206.59C174.79,205.97 175.09,205.36 175.4,204.77C175.7,204.2 175.99,203.65 176.3,203.11C176.6,202.59 176.9,202.09 177.21,201.61C177.51,201.14 177.8,200.69 178.11,200.26C178.4,199.84 178.7,199.44 179.01,199.05C179.31,198.67 179.61,198.31 179.92,197.96C180.22,197.62 180.52,197.29 180.82,196.96C181.12,196.63 181.43,196.32 181.73,196C182.03,195.68 182.33,195.37 182.63,195.05C182.93,194.73 183.23,194.41 183.53,194.08C183.83,193.75 184.14,193.42 184.44,193.08C184.74,192.74 185.04,192.39 185.34,192.04C185.64,191.69 185.95,191.33 186.25,190.98C186.55,190.62 186.85,190.26 187.15,189.91C187.45,189.56 187.75,189.21 188.05,188.87C188.35,188.53 188.65,188.2 188.96,187.88C189.26,187.57 189.55,187.25 189.86,186.96C190.16,186.67 190.46,186.39 190.77,186.13C191.07,185.88 191.36,185.63 191.67,185.41C191.97,185.19 192.27,184.99 192.58,184.81C192.88,184.64 193.18,184.47 193.48,184.34C193.78,184.21 194.08,184.1 194.38,184.01C194.68,183.93 194.99,183.87 195.29,183.83C195.59,183.79 195.89,183.78 196.19,183.79C196.49,183.8 196.8,183.84 197.1,183.9C197.4,183.96 197.7,184.06 198,184.17C198.3,184.28 198.6,184.42 198.9,184.58C199.21,184.74 199.51,184.93 199.81,185.13C200.12,185.34 200.41,185.57 200.71,185.82C201.02,186.08 201.32,186.36 201.62,186.65C201.93,186.95 202.23,187.28 202.52,187.62C202.83,187.97 203.13,188.35 203.42,188.74C203.73,189.15 204.03,189.58 204.33,190.03C204.64,190.49 204.94,190.98 205.23,191.48C205.54,192.01 205.84,192.55 206.14,193.12C206.45,193.71 206.74,194.33 207.04,194.96C207.35,195.62 207.65,196.3 207.95,197C208.26,197.73 208.56,198.48 208.85,199.25C209.16,200.05 209.45,200.87 209.75,201.71C210.06,202.58 210.36,203.48 210.66,204.39C210.97,205.33 211.26,206.3 211.56,207.28C211.87,208.29 212.17,209.33 212.47,210.38C212.78,211.46 213.07,212.56 213.37,213.68C213.67,214.83 213.97,216 214.27,217.19C214.58,218.41 214.88,219.65 215.18,220.9C215.49,222.18 215.78,223.48 216.08,224.79C216.39,226.13 216.69,227.5 216.99,228.87C217.29,230.27 217.59,231.69 217.89,233.12C218.19,234.58 218.49,236.05 218.79,237.54C219.09,239.05 219.4,240.57 219.7,242.11C220,243.67 220.3,245.25 220.6,246.84C220.9,248.45 221.21,250.06 221.51,251.69C221.81,253.34 222.11,255 222.41,256.67C222.71,258.36 223.02,260.06 223.32,261.76C223.62,263.48 223.92,265.2 224.22,266.93C224.52,268.67 224.82,270.41 225.12,272.15C225.42,273.9 225.73,275.66 226.03,277.4C226.33,279.13 226.63,280.87 226.93,282.58C227.23,284.26 227.53,285.96 227.84,287.58C228.13,289.13 228.42,290.67 228.74,292.1C229.03,293.41 229.32,294.67 229.64,295.83C229.93,296.87 230.23,297.84 230.55,298.75C230.84,299.56 231.13,300.32 231.45,301.01C231.74,301.62 232.03,302.2 232.36,302.68C232.64,303.09 232.92,303.52 233.26,303.74C233.54,303.92 233.88,304.07 234.16,304C234.49,303.92 234.79,303.51 235.07,303.15C235.41,302.72 235.68,302.11 235.97,301.53C236.29,300.9 236.59,300.21 236.88,299.51C237.19,298.76 237.49,297.98 237.78,297.15C238.09,296.25 238.39,295.3 238.68,294.3C239,293.2 239.3,292.02 239.59,290.8C239.91,289.46 240.2,288.02 240.49,286.58C240.8,285.07 241.1,283.49 241.4,281.92C241.7,280.32 242,278.69 242.3,277.07C242.6,275.44 242.91,273.8 243.21,272.17C243.51,270.54 243.81,268.92 244.11,267.3C244.41,265.69 244.71,264.09 245.01,262.5C245.31,260.92 245.62,259.35 245.92,257.79C246.22,256.25 246.52,254.71 246.82,253.19C247.12,251.68 247.43,250.19 247.73,248.7C248.03,247.23 248.33,245.76 248.63,244.31C248.93,242.87 249.23,241.45 249.53,240.02C249.83,238.6 250.14,237.19 250.44,235.78C250.74,234.37 251.04,232.97 251.34,231.57C251.64,230.17 251.95,228.77 252.25,227.37C252.55,225.96 252.85,224.55 253.15,223.14C253.45,221.73 253.75,220.32 254.05,218.91C254.35,217.5 254.66,216.09 254.96,214.69C255.26,213.3 255.56,211.91 255.86,210.53C256.16,209.17 256.47,207.82 256.77,206.49C257.07,205.18 257.36,203.87 257.67,202.59C257.97,201.33 258.27,200.09 258.58,198.87C258.88,197.68 259.17,196.51 259.48,195.37C259.78,194.26 260.07,193.17 260.38,192.11C260.68,191.08 260.98,190.08 261.29,189.1C261.58,188.17 261.88,187.26 262.19,186.38C262.48,185.54 262.79,184.72 263.1,183.94C263.39,183.2 263.69,182.48 264,181.8C264.29,181.16 264.59,180.54 264.9,179.97C265.19,179.44 265.49,178.93 265.81,178.46C266.1,178.03 266.39,177.62 266.71,177.27C267,176.95 267.3,176.65 267.62,176.41C267.91,176.19 268.21,176 268.52,175.87C268.81,175.75 269.12,175.67 269.42,175.66C269.72,175.65 270.03,175.69 270.33,175.78C270.64,175.87 270.94,176.04 271.23,176.23C271.55,176.44 271.85,176.71 272.14,177C272.46,177.32 272.75,177.69 273.04,178.08C273.36,178.51 273.66,178.98 273.95,179.48C274.26,180.01 274.56,180.59 274.85,181.19C275.16,181.83 275.46,182.5 275.75,183.19C276.06,183.92 276.37,184.69 276.66,185.48C276.97,186.31 277.26,187.17 277.56,188.05C277.87,188.97 278.17,189.91 278.47,190.88C278.78,191.89 279.07,192.92 279.37,193.97C279.67,195.05 279.97,196.16 280.27,197.28C280.58,198.44 280.88,199.62 281.18,200.81C281.49,202.03 281.78,203.28 282.08,204.53C282.38,205.81 282.69,207.1 282.99,208.41C283.29,209.74 283.59,211.08 283.89,212.43C284.19,213.79 284.49,215.16 284.79,216.53C285.09,217.91 285.4,219.3 285.7,220.69C286,222.08 286.3,223.47 286.6,224.86C286.9,226.24 287.21,227.61 287.51,228.98C287.81,230.33 288.11,231.68 288.41,233.01C288.71,234.32 289.02,235.62 289.32,236.9C289.62,238.16 289.92,239.4 290.22,240.63C290.52,241.82 290.81,243 291.12,244.16C291.42,245.29 291.72,246.4 292.03,247.5C292.33,248.56 292.62,249.61 292.93,250.64C293.23,251.64 293.53,252.62 293.84,253.58C294.14,254.51 294.43,255.43 294.74,256.32C295.03,257.18 295.33,258.03 295.64,258.84C295.93,259.62 296.24,260.38 296.55,261.1C296.84,261.78 297.13,262.46 297.45,263.06C297.74,263.59 298.01,264.18 298.36,264.52C298.63,264.78 298.98,265.07 299.26,265.03C299.58,264.98 299.89,264.47 300.16,264.06C300.51,263.53 300.78,262.74 301.07,262.02C301.39,261.24 301.67,260.38 301.97,259.54C302.28,258.67 302.58,257.76 302.88,256.86C303.18,255.95 303.48,255.04 303.78,254.12C304.08,253.2 304.38,252.28 304.68,251.36C304.98,250.45 305.29,249.55 305.59,248.65C305.89,247.77 306.19,246.89 306.49,246.02C306.79,245.17 307.09,244.33 307.4,243.51C307.7,242.71 307.99,241.91 308.3,241.13C308.6,240.38 308.9,239.64 309.21,238.92C309.51,238.23 309.8,237.55 310.11,236.89C310.4,236.26 310.7,235.66 311.01,235.07C311.31,234.51 311.61,233.96 311.92,233.45C312.21,232.96 312.51,232.5 312.82,232.06C313.11,231.65 313.42,231.25 313.73,230.89C314.02,230.55 314.32,230.22 314.63,229.94C314.92,229.67 315.22,229.43 315.53,229.23C315.82,229.04 316.13,228.87 316.44,228.74C316.73,228.62 317.04,228.52 317.34,228.46C317.64,228.4 317.95,228.38 318.25,228.39C318.55,228.4 318.85,228.45 319.15,228.53C319.45,228.61 319.75,228.72 320.05,228.85C320.36,228.99 320.66,229.15 320.96,229.34C321.27,229.53 321.56,229.76 321.86,229.99C322.17,230.23 322.47,230.5 322.77,230.78C323.08,231.07 323.37,231.38 323.67,231.69C323.98,232.01 324.28,232.35 324.58,232.7C324.88,233.05 325.18,233.42 325.48,233.78C325.78,234.15 326.08,234.52 326.38,234.9C326.68,235.28 326.99,235.67 327.29,236.05C327.59,236.43 327.89,236.81 328.19,237.19C328.49,237.57 328.8,237.94 329.1,238.31C329.4,238.67 329.69,239.04 330,239.38C330.29,239.71 330.59,240.04 330.9,240.32C331.19,240.59 331.49,240.87 331.81,241.05C332.1,241.21 332.41,241.35 332.71,241.37C333.01,241.39 333.33,241.3 333.62,241.18C333.93,241.05 334.22,240.82 334.52,240.61C334.83,240.4 335.12,240.13 335.42,239.91C335.72,239.69 336.02,239.46 336.33,239.27C336.62,239.09 336.92,238.92 337.23,238.81C337.53,238.7 337.84,238.62 338.14,238.59C338.44,238.56 338.74,238.58 339.04,238.64C339.35,238.71 339.66,238.83 339.95,238.99C340.26,239.16 340.56,239.39 340.85,239.65C341.16,239.93 341.46,240.28 341.75,240.64C342.07,241.03 342.37,241.48 342.66,241.94C342.97,242.44 343.27,242.99 343.56,243.55C343.87,244.15 344.18,244.79 344.47,245.45C344.78,246.15 345.08,246.88 345.37,247.63C345.68,248.42 345.97,249.23 346.27,250.06C346.58,250.92 346.88,251.81 347.18,252.7C347.49,253.62 347.78,254.56 348.08,255.5C348.38,256.46 348.69,257.45 348.99,258.43C349.29,259.42 349.59,260.41 349.89,261.4C350.19,262.39 350.49,263.39 350.79,264.37C351.09,265.34 351.39,266.31 351.7,267.26C352,268.19 352.29,269.11 352.6,270C352.9,270.86 353.2,271.71 353.51,272.53C353.8,273.31 354.1,274.07 354.41,274.79C354.7,275.47 355.01,276.12 355.32,276.73C355.61,277.29 355.9,277.84 356.22,278.33C356.51,278.77 356.8,279.2 357.12,279.55C357.41,279.86 357.71,280.17 358.03,280.36C358.31,280.52 358.64,280.7 358.93,280.66C359.24,280.62 359.57,280.36 359.84,280.05C360.21,279.61 360.46,278.82 360.74,278.1C361.07,277.26 361.35,276.25 361.64,275.28C361.95,274.25 362.25,273.17 362.55,272.08C362.86,270.96 363.15,269.81 363.45,268.66C363.75,267.48 364.06,266.28 364.36,265.08C364.66,263.86 364.96,262.63 365.26,261.4C365.56,260.16 365.86,258.91 366.16,257.66C366.46,256.4 366.77,255.13 367.07,253.87C367.37,252.61 367.67,251.34 367.97,250.08C368.27,248.82 368.58,247.56 368.88,246.31C369.18,245.07 369.48,243.83 369.78,242.6C370.08,241.39 370.38,240.18 370.68,238.99C370.98,237.82 371.28,236.65 371.59,235.51C371.89,234.39 372.18,233.29 372.49,232.21C372.79,231.16 373.09,230.12 373.4,229.1C373.7,228.12 373.99,227.16 374.3,226.22C374.6,225.32 374.9,224.43 375.21,223.58C375.5,222.77 375.8,221.97 376.11,221.21C376.4,220.48 376.7,219.77 377.01,219.1C377.3,218.47 377.61,217.86 377.92,217.28C378.21,216.74 378.51,216.22 378.82,215.74C379.11,215.29 379.42,214.87 379.73,214.49C380.02,214.14 380.32,213.8 380.63,213.52C380.92,213.26 381.22,213.02 381.53,212.83C381.82,212.66 382.13,212.51 382.44,212.42C382.74,212.33 383.04,212.28 383.34,212.27C383.64,212.26 383.95,212.31 384.25,212.39C384.56,212.47 384.86,212.6 385.15,212.75C385.46,212.91 385.76,213.11 386.05,213.34C386.36,213.58 386.67,213.86 386.96,214.16C387.27,214.47 387.57,214.82 387.86,215.18C388.17,215.56 388.47,215.97 388.77,216.39C389.08,216.83 389.37,217.29 389.67,217.76C389.98,218.25 390.28,218.76 390.58,219.27C390.89,219.8 391.18,220.34 391.48,220.88C391.78,221.42 392.07,221.99 392.38,222.51C392.67,223 392.97,223.49 393.29,223.9C393.58,224.26 393.88,224.55 394.19,224.84C394.49,225.12 394.8,225.36 395.1,225.61C395.4,225.86 395.7,226.12 396,226.36C396.3,226.6 396.59,226.84 396.9,227.05C397.2,227.26 397.5,227.45 397.81,227.62C398.11,227.78 398.4,227.92 398.71,228.03C399.01,228.14 399.32,228.22 399.62,228.29C399.92,228.36 400.22,228.39 400.52,228.44C400.82,228.48 401.12,228.52 401.42,228.56C401.72,228.6 402.03,228.64 402.33,228.69C402.63,228.74 402.93,228.8 403.23,228.87C403.53,228.94 403.84,229.03 404.14,229.13C404.44,229.23 404.74,229.36 405.04,229.49C405.35,229.63 405.65,229.77 405.95,229.94C406.26,230.11 406.55,230.3 406.85,230.5C407.15,230.7 407.45,230.92 407.75,231.14C408.06,231.37 408.36,231.61 408.66,231.85C408.96,232.09 409.26,232.35 409.56,232.6C409.86,232.85 410.17,233.1 410.47,233.35C410.77,233.59 411.07,233.83 411.37,234.07C411.67,234.31 411.97,234.54 412.27,234.77C412.57,235 412.88,235.23 413.18,235.46C413.48,235.69 413.78,235.91 414.08,236.14C414.38,236.37 414.69,236.61 414.99,236.85C415.29,237.09 415.59,237.35 415.89,237.6C416.19,237.86 416.49,238.12 416.79,238.38C417.09,238.65 417.4,238.92 417.7,239.2C418,239.48 418.3,239.77 418.6,240.06C418.9,240.35 419.21,240.64 419.51,240.94C419.81,241.23 420.11,241.53 420.41,241.83C420.71,242.13 421.02,242.44 421.32,242.74C421.62,243.04 421.92,243.34 422.22,243.63C422.52,243.92 422.82,244.21 423.12,244.5C423.42,244.78 423.73,245.06 424.03,245.34C424.33,245.61 424.63,245.88 424.93,246.14C425.23,246.39 425.54,246.64 425.84,246.88C426.14,247.12 426.44,247.35 426.74,247.57C427.04,247.79 427.34,248 427.64,248.2C427.94,248.4 428.25,248.59 428.55,248.77C428.85,248.95 429.15,249.12 429.45,249.29C429.75,249.45 430.06,249.61 430.36,249.76C430.66,249.91 430.96,250.04 431.26,250.18C431.56,250.31 431.86,250.44 432.16,250.57C432.46,250.69 432.77,250.81 433.07,250.93C433.37,251.04 433.67,251.15 433.97,251.26C434.27,251.37 434.58,251.48 434.88,251.59C435.18,251.7 435.48,251.8 435.78,251.9C436.08,252 436.38,252.1 436.68,252.2C436.98,252.3 437.29,252.39 437.59,252.48C437.89,252.57 438.19,252.66 438.49,252.74C438.79,252.82 439.1,252.9 439.4,252.97C439.7,253.03 440,253.1 440.3,253.13C440.6,253.16 440.91,253.19 441.21,253.18C441.51,253.17 441.82,253.15 442.11,253.07C442.42,252.99 442.72,252.87 443.01,252.7C443.33,252.51 443.63,252.26 443.92,251.97C444.24,251.65 444.53,251.25 444.82,250.84C445.13,250.4 445.43,249.92 445.73,249.43C446.04,248.92 446.33,248.38 446.63,247.84C446.93,247.28 447.23,246.71 447.53,246.14C447.83,245.56 448.14,244.97 448.44,244.38C448.74,243.79 449.04,243.2 449.34,242.61C449.64,242.02 449.95,241.44 450.25,240.86C450.55,240.28 450.85,239.7 451.15,239.13C451.45,238.56 451.75,238 452.05,237.44C452.35,236.89 452.66,236.34 452.96,235.8C453.26,235.26 453.56,234.72 453.86,234.19C454.16,233.66 454.47,233.14 454.77,232.62C455.07,232.1 455.37,231.58 455.67,231.07C455.97,230.57 456.27,230.07 456.58,229.59C456.88,229.12 457.17,228.65 457.48,228.21C457.77,227.79 458.07,227.37 458.38,226.99C458.67,226.63 458.98,226.28 459.29,225.96C459.58,225.66 459.88,225.38 460.19,225.14C460.48,224.91 460.79,224.7 461.1,224.54Q461.39,224.39 462,224.18" style="vector-effect: non-scaling-stroke; fill: none; stroke: rgb(231, 107, 243); stroke-opacity: 1; stroke-width: 2px; opacity: 1;"/></g><g class="points"/><g class="text"/></g></g></g><g class="overplot"/><path class="xlines-above crisp" d="M0,0" style="fill: none;"/><path class="ylines-above crisp" d="M0,0" style="fill: none;"/><g class="overlines-above"/><g class="xaxislayer-above"><g class="xtick"><text text-anchor="middle" x="0" y="433" transform="translate(80,0)" style="font-family: 'Open Sans', verdana, arial, sans-serif; font-size: 12px; fill: rgb(42, 63, 95); fill-opacity: 1; white-space: pre;">0</text></g><g class="xtick"><text text-anchor="middle" x="0" y="433" transform="translate(170.23000000000002,0)" style="font-family: 'Open Sans', verdana, arial, sans-serif; font-size: 12px; fill: rgb(42, 63, 95); fill-opacity: 1; white-space: pre;">100</text></g><g class="xtick"><text text-anchor="middle" x="0" y="433" transform="translate(260.47,0)" style="font-family: 'Open Sans', verdana, arial, sans-serif; font-size: 12px; fill: rgb(42, 63, 95); fill-opacity: 1; white-space: pre;">200</text></g><g class="xtick"><text text-anchor="middle" x="0" y="433" transform="translate(350.7,0)" style="font-family: 'Open Sans', verdana, arial, sans-serif; font-size: 12px; fill: rgb(42, 63, 95); fill-opacity: 1; white-space: pre;">300</text></g><g class="xtick"><text text-anchor="middle" x="0" y="433" transform="translate(440.94,0)" style="font-family: 'Open Sans', verdana, arial, sans-serif; font-size: 12px; fill: rgb(42, 63, 95); fill-opacity: 1; white-space: pre;">400</text></g><g class="xtick"><text text-anchor="middle" x="0" y="433" transform="translate(531.1700000000001,0)" style="font-family: 'Open Sans', verdana, arial, sans-serif; font-size: 12px; fill: rgb(42, 63, 95); fill-opacity: 1; white-space: pre;">500</text></g></g><g class="yaxislayer-above"><g class="ytick"><text text-anchor="end" x="79" y="4.199999999999999" transform="translate(0,376.83)" style="font-family: 'Open Sans', verdana, arial, sans-serif; font-size: 12px; fill: rgb(42, 63, 95); fill-opacity: 1; white-space: pre;">100</text></g><g class="ytick"><text text-anchor="end" x="79" y="4.199999999999999" transform="translate(0,321.03999999999996)" style="font-family: 'Open Sans', verdana, arial, sans-serif; font-size: 12px; fill: rgb(42, 63, 95); fill-opacity: 1; white-space: pre;">200</text></g><g class="ytick"><text text-anchor="end" x="79" y="4.199999999999999" transform="translate(0,265.25)" style="font-family: 'Open Sans', verdana, arial, sans-serif; font-size: 12px; fill: rgb(42, 63, 95); fill-opacity: 1; white-space: pre;">300</text></g><g class="ytick"><text text-anchor="end" x="79" y="4.199999999999999" transform="translate(0,209.45999999999998)" style="font-family: 'Open Sans', verdana, arial, sans-serif; font-size: 12px; fill: rgb(42, 63, 95); fill-opacity: 1; white-space: pre;">400</text></g><g class="ytick"><text text-anchor="end" x="79" y="4.199999999999999" transform="translate(0,153.66)" style="font-family: 'Open Sans', verdana, arial, sans-serif; font-size: 12px; fill: rgb(42, 63, 95); fill-opacity: 1; white-space: pre;">500</text></g></g><g class="overaxes-above"/></g></g><g class="polarlayer"/><g class="ternarylayer"/><g class="geolayer"/><g class="funnelarealayer"/><g class="pielayer"/><g class="treemaplayer"/><g class="sunburstlayer"/><g class="glimages"/><defs id="topdefs-fc8a82"><g class="clips"/><clipPath id="legendfc8a82"><rect width="137" height="67" x="0" y="0"/></clipPath></defs><g class="layer-above"><g class="imagelayer"/><g class="shapelayer"/></g><g class="infolayer"><g class="legend" pointer-events="all" transform="translate(551.24, 100)"><rect class="bg" shape-rendering="crispEdges" width="137" height="67" x="0" y="0" style="stroke: rgb(68, 68, 68); stroke-opacity: 1; fill: rgb(255, 255, 255); fill-opacity: 1; stroke-width: 0px;"/><g class="scrollbox" transform="translate(0, 0)" clip-path="url('#legendfc8a82')"><g class="groups"><g class="traces" transform="translate(0, 14.5)" style="opacity: 1;"><text class="legendtext" text-anchor="start" x="40" y="4.680000000000001" style="font-family: 'Open Sans', verdana, arial, sans-serif; font-size: 12px; fill: rgb(42, 63, 95); fill-opacity: 1; white-space: pre;">Average Class I</text><g class="layers" style="opacity: 1;"><g class="legendfill"/><g class="legendlines"><path class="js-line" d="M5,0h30" style="fill: none; stroke: rgb(0, 100, 80); stroke-opacity: 1; stroke-width: 2px;"/></g><g class="legendsymbols"><g class="legendpoints"/></g></g><rect class="legendtoggle" x="0" y="-9.5" width="131.15625" height="19" style="fill: rgb(0, 0, 0); fill-opacity: 0;"/></g><g class="traces" transform="translate(0, 33.5)" style="opacity: 1;"><text class="legendtext" text-anchor="start" x="40" y="4.680000000000001" style="font-family: 'Open Sans', verdana, arial, sans-serif; font-size: 12px; fill: rgb(42, 63, 95); fill-opacity: 1; white-space: pre;">Average Class II</text><g class="layers" style="opacity: 1;"><g class="legendfill"/><g class="legendlines"><path class="js-line" d="M5,0h30" style="fill: none; stroke: rgb(0, 176, 246); stroke-opacity: 1; stroke-width: 2px;"/></g><g class="legendsymbols"><g class="legendpoints"/></g></g><rect class="legendtoggle" x="0" y="-9.5" width="131.15625" height="19" style="fill: rgb(0, 0, 0); fill-opacity: 0;"/></g><g class="traces" transform="translate(0, 52.5)" style="opacity: 1;"><text class="legendtext" text-anchor="start" x="40" y="4.680000000000001" style="font-family: 'Open Sans', verdana, arial, sans-serif; font-size: 12px; fill: rgb(42, 63, 95); fill-opacity: 1; white-space: pre;">Average Class III</text><g class="layers" style="opacity: 1;"><g class="legendfill"/><g class="legendlines"><path class="js-line" d="M5,0h30" style="fill: none; stroke: rgb(231, 107, 243); stroke-opacity: 1; stroke-width: 2px;"/></g><g class="legendsymbols"><g class="legendpoints"/></g></g><rect class="legendtoggle" x="0" y="-9.5" width="131.15625" height="19" style="fill: rgb(0, 0, 0); fill-opacity: 0;"/></g></g></g><rect class="scrollbar" rx="20" ry="3" width="0" height="0" x="0" y="0" style="fill: rgb(128, 139, 164); fill-opacity: 1;"/></g><g class="g-gtitle"><text class="gtitle" x="35" y="50" text-anchor="start" dy="0em" style="font-family: 'Open Sans', verdana, arial, sans-serif; font-size: 17px; fill: rgb(42, 63, 95); opacity: 1; font-weight: normal; white-space: pre;">Average curve: energetic_group</text></g><g class="g-xtitle"><text class="xtitle" x="311" y="460.8" text-anchor="middle" style="font-family: 'Open Sans', verdana, arial, sans-serif; font-size: 14px; fill: rgb(42, 63, 95); opacity: 1; font-weight: normal; white-space: pre;">Domain</text></g><g class="g-ytitle"><text class="ytitle" transform="rotate(-90,34.16875,260)" x="34.16875" y="260" text-anchor="middle" style="font-family: 'Open Sans', verdana, arial, sans-serif; font-size: 14px; fill: rgb(42, 63, 95); opacity: 1; font-weight: normal; white-space: pre;">Frequency</text></g></g></svg>