<svg class="main-svg" xmlns="http://www.w3.org/2000/svg" xmlns:xlink="http://www.w3.org/1999/xlink" width="700" height="500" style="" viewBox="0 0 700 500"><rect x="0" y="0" width="700" height="500" style="fill: rgb(255, 255, 255); fill-opacity: 1;"/><defs id="defs-b08863"><g class="clips"><clipPath id="clipb08863xyplot" class="plotclip"><rect width="462" height="320"/></clipPath><clipPath class="axesclip" id="clipb08863x"><rect x="80" y="0" width="462" height="500"/></clipPath><clipPath class="axesclip" id="clipb08863y"><rect x="0" y="100" width="700" height="320"/></clipPath><clipPath class="axesclip" id="clipb08863xy"><rect x="80" y="100" width="462" height="320"/></clipPath></g><g class="gradients"/></defs><g class="bglayer"><rect class="bg" x="80" y="100" width="462" height="320" style="fill: rgb(229, 236, 246); fill-opacity: 1; stroke-width: 0;"/></g><g class="layer-below"><g class="imagelayer"/><g class="shapelayer"/></g><g class="cartesianlayer"><g class="subplot xy"><g class="layer-subplot"><g class="shapelayer"/><g class="imagelayer"/></g><g class="gridlayer"><g class="x"><path class="xgrid crisp" transform="translate(170.23000000000002,0)" d="M0,100v320" style="stroke: rgb(255, 255, 255); stroke-opacity: 1; stroke-width: 1px;"/><path class="xgrid crisp" transform="translate(260.47,0)" d="M0,100v320" style="stroke: rgb(255, 255, 255); stroke-opacity: 1; stroke-width: 1px;"/><path class="xgrid crisp" transform="translate(350.7,0)" d="M0,100v320" style="stroke: rgb(255, 255, 255); stroke-opacity: 1; stroke-width: 1px;"/><path class="xgrid crisp" transform="translate(440.94,0)" d="M0,100v320" style="stroke: rgb(255, 255, 255); stroke-opacity: 1; stroke-width: 1px;"/><path class="xgrid crisp" transform="translate(531.1700000000001,0)" d="M0,100v320" style="stroke: rgb(255, 255, 255); stroke-opacity: 1; stroke-width: 1px;"/></g><g class="y"><path class="ygrid crisp" transform="translate(0,392.92)" d="M80,0h462" style="stroke: rgb(255, 255, 255); stroke-opacity: 1; stroke-width: 1px;"/><path class="ygrid crisp" transform="translate(0,328.31)" d="M80,0h462" style="stroke: rgb(255, 255, 255); stroke-opacity: 1; stroke-width: 1px;"/><path class="ygrid crisp" transform="translate(0,263.7)" d="M80,0h462" style="stroke: rgb(255, 255, 255); stroke-opacity: 1; stroke-width: 1px;"/><path class="ygrid crisp" transform="translate(0,199.09)" d="M80,0h462" style="stroke: rgb(255, 255, 255); stroke-opacity: 1; stroke-width: 1px;"/><path class="ygrid crisp" transform="translate(0,134.48)" d="M80,0h462" style="stroke: rgb(255, 255, 255); stroke-opacity: 1; stroke-width: 1px;"/></g></g><g class="zerolinelayer"><path class="xzl zl crisp" transform="translate(80,0)" d="M0,100v320" style="stroke: rgb(255, 255, 255); stroke-opacity: 1; stroke-width: 2px;"/></g><path class="xlines-below"/><path class="ylines-below"/><g class="overlines-below"/><g class="xaxislayer-below"/><g class="yaxislayer-below"/><g class="overaxes-below"/><g class="plot" transform="translate(80, 100)" clip-path="url('#clipb08863xyplot')"><g class="scatterlayer mlayer"><g class="trace scatter tracee78843" style="stroke-miterlimit: 2; opacity: 1;"><g class="fills"/><g class="errorbars"/><g class="lines"><path class="js-line" d="M0,68.3Q0.6,68.32 0.9,68.37C1.2,68.42 1.51,68.5 1.81,68.61C2.12,68.72 2.42,68.85 2.71,69.02C3.02,69.2 3.33,69.41 3.62,69.65C3.93,69.91 4.23,70.21 4.52,70.54C4.83,70.9 5.13,71.29 5.42,71.72C5.74,72.19 6.04,72.7 6.33,73.25C6.65,73.85 6.94,74.5 7.23,75.18C7.55,75.92 7.85,76.72 8.14,77.55C8.46,78.45 8.75,79.41 9.04,80.4C9.35,81.47 9.66,82.6 9.95,83.76C10.26,85.01 10.56,86.31 10.85,87.66C11.16,89.09 11.46,90.59 11.75,92.12C12.06,93.74 12.37,95.41 12.66,97.13C12.97,98.94 13.27,100.81 13.56,102.71C13.87,104.7 14.17,106.75 14.47,108.84C14.78,111.01 15.08,113.23 15.37,115.48C15.68,117.81 15.97,120.2 16.27,122.61C16.58,125.09 16.88,127.62 17.18,130.17C17.49,132.78 17.78,135.44 18.08,138.11C18.38,140.83 18.69,143.58 18.99,146.35C19.29,149.15 19.59,151.99 19.89,154.82C20.19,157.68 20.49,160.55 20.79,163.42C21.09,166.3 21.4,169.19 21.7,172.07C22,174.94 22.3,177.8 22.6,180.65C22.9,183.47 23.21,186.28 23.51,189.06C23.81,191.78 24.1,194.49 24.41,197.14C24.71,199.72 25.01,202.27 25.32,204.75C25.62,207.13 25.91,209.48 26.22,211.72C26.51,213.82 26.8,215.89 27.12,217.81C27.41,219.55 27.7,221.27 28.03,222.78C28.31,224.07 28.58,225.34 28.93,226.34C29.2,227.11 29.45,227.92 29.84,228.32C30.1,228.59 30.45,228.81 30.74,228.77C31.06,228.73 31.37,228.31 31.64,227.95C31.99,227.49 32.27,226.82 32.55,226.16C32.88,225.4 33.16,224.52 33.45,223.63C33.77,222.64 34.07,221.57 34.36,220.47C34.67,219.28 34.97,218.02 35.26,216.74C35.57,215.38 35.86,213.94 36.16,212.51C36.46,211.06 36.77,209.56 37.07,208.1C37.37,206.66 37.66,205.22 37.97,203.82C38.27,202.47 38.57,201.13 38.88,199.84C39.17,198.62 39.47,197.42 39.78,196.28C40.07,195.22 40.36,194.18 40.68,193.21C40.97,192.32 41.27,191.47 41.59,190.69C41.88,189.99 42.17,189.32 42.49,188.73C42.77,188.22 43.07,187.74 43.4,187.35C43.68,187.01 43.98,186.71 44.3,186.49C44.59,186.29 44.9,186.16 45.21,186.07C45.5,185.99 45.81,185.96 46.11,185.96C46.41,185.96 46.71,186 47.01,186.08C47.32,186.16 47.63,186.28 47.92,186.43C48.23,186.59 48.53,186.8 48.82,187.03C49.13,187.27 49.44,187.54 49.73,187.84C50.04,188.15 50.34,188.5 50.63,188.87C50.94,189.27 51.24,189.7 51.53,190.16C51.85,190.67 52.15,191.21 52.44,191.8C52.76,192.44 53.05,193.14 53.34,193.88C53.66,194.69 53.96,195.55 54.25,196.45C54.57,197.43 54.86,198.48 55.15,199.56C55.46,200.72 55.76,201.94 56.05,203.19C56.36,204.52 56.67,205.91 56.96,207.32C57.27,208.81 57.56,210.35 57.86,211.9C58.17,213.51 58.47,215.16 58.77,216.82C59.07,218.51 59.37,220.24 59.67,221.96C59.97,223.7 60.28,225.46 60.58,227.2C60.88,228.93 61.18,230.66 61.48,232.37C61.78,234.06 62.08,235.74 62.38,237.42C62.68,239.09 62.99,240.76 63.29,242.42C63.59,244.07 63.89,245.72 64.19,247.36C64.49,248.98 64.8,250.6 65.1,252.2C65.4,253.78 65.7,255.36 66,256.91C66.3,258.43 66.59,259.94 66.9,261.4C67.2,262.81 67.5,264.2 67.81,265.53C68.1,266.79 68.39,268.02 68.71,269.18C69,270.24 69.28,271.32 69.62,272.21C69.9,272.94 70.14,273.76 70.52,274.16C70.78,274.43 71.13,274.66 71.42,274.63C71.74,274.59 72.05,274.17 72.33,273.84C72.67,273.43 72.95,272.87 73.23,272.31C73.55,271.68 73.85,270.96 74.14,270.22C74.46,269.42 74.74,268.54 75.04,267.67C75.35,266.76 75.65,265.8 75.95,264.86C76.25,263.9 76.55,262.93 76.85,261.97C77.15,261.03 77.45,260.08 77.75,259.16C78.05,258.25 78.35,257.35 78.66,256.48C78.96,255.64 79.25,254.8 79.56,254C79.86,253.23 80.16,252.47 80.47,251.75C80.76,251.07 81.06,250.4 81.37,249.78C81.66,249.2 81.97,248.69 82.27,248.14C82.57,247.57 82.87,246.96 83.18,246.42C83.47,245.92 83.76,245.42 84.08,245.01C84.37,244.65 84.67,244.3 84.99,244.06C85.27,243.85 85.58,243.67 85.89,243.6C86.18,243.54 86.5,243.55 86.79,243.64C87.1,243.73 87.41,243.94 87.7,244.17C88.02,244.43 88.31,244.79 88.6,245.16C88.92,245.57 89.22,246.05 89.51,246.54C89.82,247.07 90.12,247.66 90.41,248.25C90.72,248.88 91.03,249.54 91.32,250.23C91.63,250.96 91.93,251.72 92.22,252.51C92.53,253.34 92.82,254.22 93.12,255.08C93.42,255.94 93.72,256.82 94.03,257.67C94.33,258.49 94.63,259.26 94.93,260.07C95.24,260.9 95.54,261.75 95.84,262.6C96.14,263.46 96.43,264.34 96.74,265.18C97.03,265.98 97.33,266.78 97.64,267.52C97.93,268.2 98.24,268.83 98.55,269.45C98.85,270.05 99.14,270.62 99.45,271.18C99.75,271.72 100.05,272.27 100.36,272.76C100.65,273.21 100.93,273.69 101.26,274.03C101.54,274.32 101.84,274.62 102.16,274.7C102.45,274.77 102.78,274.65 103.07,274.54C103.38,274.42 103.68,274.19 103.97,273.96C104.29,273.7 104.59,273.4 104.88,273.05C105.2,272.66 105.5,272.21 105.78,271.71C106.1,271.14 106.39,270.49 106.68,269.82C107,269.09 107.3,268.29 107.59,267.48C107.9,266.62 108.19,265.71 108.49,264.79C108.8,263.84 109.1,262.86 109.4,261.88C109.7,260.89 110,259.87 110.3,258.87C110.6,257.86 110.91,256.84 111.21,255.84C111.51,254.85 111.81,253.85 112.11,252.88C112.41,251.93 112.7,250.97 113.01,250.05C113.31,249.16 113.61,248.28 113.92,247.42C114.22,246.59 114.51,245.78 114.82,245C115.11,244.26 115.42,243.53 115.73,242.84C116.02,242.19 116.32,241.55 116.63,240.95C116.92,240.39 117.22,239.85 117.53,239.34C117.82,238.86 118.13,238.4 118.44,237.98C118.73,237.59 119.03,237.22 119.34,236.88C119.63,236.56 119.94,236.27 120.25,236.01C120.54,235.76 120.84,235.54 121.15,235.35C121.44,235.17 121.74,235 122.05,234.87C122.35,234.74 122.65,234.65 122.96,234.58C123.26,234.51 123.56,234.48 123.86,234.47C124.16,234.46 124.47,234.48 124.77,234.52C125.07,234.56 125.37,234.63 125.67,234.73C125.98,234.83 126.28,234.97 126.58,235.11C126.89,235.26 127.18,235.43 127.48,235.61C127.78,235.8 128.08,236.01 128.38,236.23C128.69,236.45 128.99,236.68 129.29,236.92C129.59,237.16 129.89,237.41 130.19,237.66C130.49,237.92 130.78,238.25 131.1,238.45C131.39,238.63 131.7,238.81 132,238.83C132.3,238.85 132.6,238.66 132.9,238.58C133.2,238.51 133.51,238.44 133.81,238.38C134.11,238.32 134.41,238.27 134.71,238.23C135.01,238.18 135.32,238.16 135.62,238.11C135.92,238.07 136.23,238.06 136.52,237.96C136.83,237.86 137.13,237.69 137.42,237.48C137.74,237.25 138.04,236.93 138.33,236.61C138.64,236.26 138.94,235.87 139.23,235.46C139.54,235.01 139.84,234.5 140.14,234C140.45,233.49 140.74,232.94 141.04,232.43C141.34,231.93 141.64,231.42 141.95,230.95C142.24,230.5 142.54,230.06 142.85,229.67C143.14,229.3 143.44,228.95 143.75,228.66C144.04,228.39 144.34,228.13 144.66,227.95C144.95,227.78 145.25,227.64 145.56,227.58C145.86,227.52 146.17,227.51 146.47,227.56C146.78,227.61 147.08,227.75 147.37,227.91C147.68,228.09 147.98,228.34 148.27,228.62C148.59,228.92 148.89,229.29 149.18,229.67C149.5,230.09 149.79,230.56 150.08,231.05C150.39,231.57 150.7,232.14 150.99,232.72C151.3,233.34 151.6,234 151.89,234.66C152.2,235.35 152.49,236.07 152.79,236.79C153.1,237.53 153.4,238.29 153.7,239.05C154,239.82 154.3,240.61 154.6,241.38C154.9,242.15 155.21,242.92 155.51,243.67C155.81,244.41 156.1,245.15 156.41,245.86C156.71,246.54 157.01,247.22 157.32,247.86C157.61,248.47 157.91,249.05 158.22,249.62C158.51,250.17 158.82,250.69 159.12,251.21C159.42,251.72 159.73,252.22 160.03,252.72C160.33,253.23 160.63,253.73 160.93,254.24C161.23,254.76 161.54,255.28 161.84,255.81C162.14,256.35 162.44,256.9 162.74,257.46C163.04,258.02 163.34,258.6 163.64,259.17C163.94,259.75 164.25,260.33 164.55,260.92C164.85,261.51 165.15,262.11 165.45,262.71C165.75,263.31 166.06,263.92 166.36,264.53C166.66,265.15 166.96,265.78 167.26,266.41C167.56,267.05 167.86,267.7 168.16,268.36C168.46,269.03 168.77,269.7 169.07,270.38C169.37,271.06 169.67,271.75 169.97,272.42C170.27,273.09 170.57,273.76 170.88,274.41C171.18,275.05 171.47,275.68 171.78,276.29C172.07,276.87 172.37,277.46 172.68,277.99C172.97,278.49 173.28,278.96 173.59,279.4C173.88,279.82 174.17,280.24 174.49,280.58C174.78,280.89 175.1,281.38 175.4,281.38C175.7,281.38 176.03,280.96 176.3,280.6C176.67,280.09 176.92,279.24 177.21,278.48C177.53,277.62 177.83,276.69 178.11,275.69C178.43,274.55 178.72,273.3 179.01,272.01C179.33,270.58 179.63,269.04 179.92,267.49C180.23,265.85 180.52,264.14 180.82,262.43C181.13,260.68 181.43,258.9 181.73,257.12C182.03,255.32 182.33,253.51 182.63,251.7C182.93,249.89 183.23,248.07 183.53,246.27C183.83,244.48 184.14,242.69 184.44,240.91C184.74,239.15 185.04,237.38 185.34,235.64C185.64,233.92 185.95,232.21 186.25,230.51C186.55,228.82 186.85,227.17 187.15,225.47C187.45,223.73 187.76,222.03 188.05,220.2C188.36,218.22 188.66,216.09 188.96,213.99C189.27,211.82 189.56,209.55 189.86,207.36C190.16,205.2 190.46,203.04 190.77,200.95C191.07,198.93 191.36,196.94 191.67,195.02C191.96,193.21 192.27,191.44 192.58,189.75C192.87,188.18 193.16,186.65 193.48,185.22C193.77,183.92 194.06,182.67 194.38,181.53C194.66,180.53 194.96,179.57 195.29,178.75C195.57,178.07 195.84,177.39 196.19,176.92C196.46,176.55 196.77,176.17 197.1,176.07C197.38,175.99 197.73,176.07 198,176.24C198.35,176.46 198.63,176.96 198.9,177.44C199.25,178.05 199.53,178.85 199.81,179.67C200.14,180.64 200.43,181.75 200.71,182.91C201.03,184.22 201.33,185.65 201.62,187.13C201.94,188.76 202.23,190.5 202.52,192.29C202.83,194.22 203.13,196.25 203.42,198.32C203.73,200.52 204.03,202.82 204.33,205.15C204.64,207.59 204.93,210.11 205.23,212.65C205.54,215.28 205.84,217.98 206.14,220.69C206.44,223.46 206.74,226.29 207.04,229.08C207.34,231.87 207.64,234.73 207.95,237.43C208.24,239.99 208.55,242.43 208.85,244.89C209.15,247.31 209.44,249.73 209.75,252.09C210.05,254.39 210.35,256.68 210.66,258.88C210.95,260.96 211.25,262.98 211.56,264.96C211.86,266.85 212.16,268.71 212.47,270.5C212.76,272.19 213.05,273.87 213.37,275.43C213.66,276.85 213.94,278.28 214.27,279.5C214.55,280.53 214.8,281.6 215.18,282.3C215.44,282.79 215.76,283.38 216.08,283.43C216.36,283.47 216.72,283.12 216.99,282.8C217.36,282.35 217.61,281.56 217.89,280.81C218.22,279.91 218.51,278.84 218.79,277.74C219.11,276.49 219.41,275.09 219.7,273.7C220.01,272.22 220.3,270.65 220.6,269.1C220.91,267.51 221.21,265.88 221.51,264.26C221.81,262.62 222.11,260.96 222.41,259.32C222.71,257.68 223.02,256.04 223.32,254.42C223.62,252.81 223.92,251.22 224.22,249.63C224.52,248.05 224.82,246.48 225.12,244.9C225.42,243.31 225.73,241.71 226.03,240.11C226.33,238.5 226.63,236.88 226.93,235.27C227.23,233.66 227.54,232.06 227.84,230.45C228.14,228.82 228.45,227.21 228.74,225.54C229.05,223.8 229.35,222.04 229.64,220.22C229.95,218.31 230.25,216.32 230.55,214.32C230.86,212.24 231.15,210.11 231.45,207.97C231.75,205.78 232.06,203.57 232.36,201.34C232.66,199.08 232.96,196.81 233.26,194.52C233.56,192.21 233.86,189.88 234.16,187.55C234.46,185.21 234.77,182.86 235.07,180.51C235.37,178.17 235.67,175.81 235.97,173.48C236.27,171.16 236.58,168.85 236.88,166.55C237.18,164.27 237.48,161.99 237.78,159.72C238.08,157.45 238.38,155.19 238.68,152.91C238.98,150.61 239.29,148.32 239.59,145.97C239.9,143.55 240.2,141.13 240.49,138.6C240.8,135.93 241.11,133.19 241.4,130.34C241.71,127.29 242,124.09 242.3,120.87C242.61,117.53 242.91,114.07 243.21,110.64C243.51,107.17 243.81,103.65 244.11,100.18C244.41,96.74 244.71,93.28 245.01,89.89C245.31,86.56 245.61,83.25 245.92,80.01C246.22,76.87 246.51,73.76 246.82,70.72C247.12,67.79 247.42,64.91 247.73,62.11C248.03,59.43 248.32,56.8 248.63,54.25C248.92,51.82 249.22,49.45 249.53,47.15C249.82,44.98 250.13,42.87 250.44,40.83C250.73,38.92 251.03,37.06 251.34,35.27C251.63,33.6 251.94,31.98 252.25,30.43C252.54,29 252.84,27.61 253.15,26.3C253.44,25.1 253.73,23.93 254.05,22.85C254.34,21.87 254.64,20.93 254.96,20.08C255.24,19.33 255.53,18.61 255.86,18C256.14,17.48 256.43,16.97 256.77,16.62C257.05,16.34 257.35,16.07 257.67,16C257.96,15.94 258.3,16.02 258.58,16.18C258.92,16.38 259.21,16.8 259.48,17.22C259.82,17.75 260.1,18.45 260.38,19.18C260.71,20.05 261.01,21.06 261.29,22.12C261.62,23.33 261.9,24.68 262.19,26.07C262.51,27.63 262.81,29.3 263.1,31.03C263.42,32.93 263.71,34.94 264,37.01C264.31,39.24 264.61,41.58 264.9,43.98C265.21,46.53 265.52,49.19 265.81,51.9C266.12,54.76 266.41,57.7 266.71,60.7C267.02,63.83 267.32,67.04 267.62,70.3C267.93,73.67 268.22,77.12 268.52,80.6C268.82,84.18 269.12,87.82 269.42,91.49C269.72,95.23 270.03,99.03 270.33,102.84C270.63,106.71 270.93,110.61 271.23,114.52C271.53,118.46 271.84,122.42 272.14,126.38C272.44,130.35 272.74,134.33 273.04,138.29C273.34,142.24 273.65,146.19 273.95,150.12C274.25,154.01 274.55,157.9 274.85,161.74C275.15,165.52 275.44,169.31 275.75,172.98C276.05,176.49 276.33,180.18 276.66,183.3C276.94,185.89 277.24,188.18 277.56,190.39C277.85,192.34 278.15,194.14 278.47,195.88C278.76,197.46 279.06,198.94 279.37,200.39C279.66,201.74 279.96,203.04 280.27,204.3C280.56,205.49 280.86,206.68 281.18,207.75C281.47,208.7 281.69,209.77 282.08,210.4C282.34,210.83 282.67,211.08 282.99,211.34C283.28,211.57 283.59,211.72 283.89,211.91C284.19,212.11 284.49,212.29 284.79,212.51C285.1,212.74 285.41,212.98 285.7,213.26C286.01,213.56 286.31,213.89 286.6,214.25C286.92,214.65 287.22,215.08 287.51,215.56C287.83,216.09 288.12,216.68 288.41,217.31C288.73,218.01 289.03,218.78 289.32,219.59C289.64,220.49 289.93,221.47 290.22,222.48C290.53,223.59 290.83,224.78 291.12,226C291.43,227.32 291.74,228.72 292.03,230.14C292.34,231.65 292.63,233.22 292.93,234.81C293.24,236.47 293.54,238.18 293.84,239.9C294.15,241.66 294.44,243.46 294.74,245.24C295.04,247.02 295.33,248.84 295.64,250.6C295.94,252.32 296.24,254.06 296.55,255.71C296.84,257.26 297.11,258.86 297.45,260.21C297.73,261.33 297.92,262.67 298.36,263.24C298.61,263.57 298.98,263.84 299.26,263.79C299.58,263.74 299.9,263.19 300.16,262.71C300.55,261.99 300.8,260.86 301.07,259.73C301.42,258.28 301.68,256.49 301.97,254.72C302.29,252.74 302.59,250.57 302.88,248.4C303.19,246.1 303.49,243.69 303.78,241.27C304.09,238.76 304.38,236.18 304.68,233.59C304.99,230.94 305.29,228.24 305.59,225.55C305.89,222.83 306.19,220.08 306.49,217.34C306.79,214.61 307.1,211.87 307.4,209.14C307.7,206.41 308,203.68 308.3,200.97C308.6,198.27 308.91,195.58 309.21,192.9C309.51,190.23 309.8,187.51 310.11,184.91C310.4,182.42 310.7,179.97 311.01,177.61C311.3,175.38 311.61,173.2 311.92,171.12C312.21,169.19 312.5,167.32 312.82,165.56C313.11,163.96 313.41,162.41 313.73,161C314.01,159.75 314.3,158.56 314.63,157.51C314.91,156.63 315.18,155.77 315.53,155.11C315.8,154.6 316.09,154.06 316.44,153.83C316.71,153.66 317.06,153.57 317.34,153.66C317.67,153.77 317.98,154.2 318.25,154.61C318.6,155.14 318.87,155.88 319.15,156.64C319.48,157.55 319.77,158.6 320.05,159.7C320.37,160.95 320.67,162.33 320.96,163.75C321.28,165.32 321.57,167 321.86,168.72C322.17,170.58 322.48,172.53 322.77,174.52C323.08,176.63 323.37,178.83 323.67,181.06C323.98,183.39 324.28,185.8 324.58,188.23C324.89,190.75 325.18,193.33 325.48,195.93C325.78,198.59 326.08,201.3 326.38,204.02C326.68,206.78 326.99,209.58 327.29,212.37C327.59,215.18 327.89,218.02 328.19,220.84C328.49,223.65 328.8,226.48 329.1,229.26C329.4,232 329.69,234.76 330,237.41C330.29,239.93 330.57,242.52 330.9,244.78C331.18,246.73 331.47,248.62 331.81,250.2C332.08,251.46 332.35,252.62 332.71,253.55C332.98,254.25 333.26,254.89 333.62,255.33C333.89,255.66 334.2,255.94 334.52,256.05C334.8,256.15 335.13,256.12 335.42,256.03C335.74,255.94 336.04,255.69 336.33,255.47C336.64,255.24 336.93,254.94 337.23,254.69C337.53,254.45 337.83,254.19 338.14,254C338.43,253.82 338.73,253.66 339.04,253.58C339.34,253.5 339.65,253.47 339.95,253.52C340.26,253.57 340.56,253.7 340.85,253.87C341.17,254.06 341.46,254.34 341.75,254.65C342.07,255 342.37,255.42 342.66,255.87C342.98,256.36 343.27,256.92 343.56,257.5C343.88,258.13 344.18,258.81 344.47,259.51C344.78,260.26 345.08,261.05 345.37,261.85C345.68,262.69 345.97,263.57 346.27,264.45C346.58,265.36 346.88,266.31 347.18,267.25C347.48,268.2 347.78,269.17 348.08,270.13C348.38,271.09 348.68,272.09 348.99,273.02C349.28,273.91 349.58,274.78 349.89,275.61C350.18,276.4 350.49,277.14 350.79,277.89C351.09,278.63 351.39,279.38 351.7,280.09C351.99,280.76 352.28,281.43 352.6,282.04C352.89,282.6 353.2,283.11 353.51,283.62C353.8,284.1 354.1,284.57 354.41,285.01C354.7,285.42 355,285.84 355.32,286.18C355.61,286.49 355.9,286.82 356.22,287C356.5,287.15 356.84,287.31 357.12,287.24C357.44,287.16 357.76,286.81 358.03,286.44C358.4,285.93 358.65,285.13 358.93,284.34C359.27,283.37 359.55,282.21 359.84,281.03C360.16,279.69 360.45,278.2 360.74,276.7C361.05,275.09 361.34,273.37 361.64,271.66C361.95,269.88 362.26,268.08 362.55,266.21C362.86,264.22 363.15,262.12 363.45,260.06C363.75,257.97 364.06,255.84 364.36,253.75C364.66,251.7 364.96,249.65 365.26,247.64C365.56,245.69 365.85,243.75 366.16,241.87C366.46,240.06 366.76,238.29 367.07,236.57C367.36,234.94 367.66,233.35 367.97,231.83C368.26,230.41 368.56,229.03 368.88,227.74C369.17,226.56 369.46,225.42 369.78,224.38C370.06,223.46 370.35,222.56 370.68,221.8C370.96,221.15 371.25,220.52 371.59,220.06C371.86,219.69 372.16,219.31 372.49,219.18C372.77,219.07 373.12,219.07 373.4,219.18C373.73,219.31 374.02,219.67 374.3,220.03C374.64,220.47 374.93,221.08 375.21,221.69C375.54,222.4 375.82,223.23 376.11,224.08C376.43,225.02 376.72,226.05 377.01,227.1C377.32,228.22 377.63,229.4 377.92,230.6C378.23,231.86 378.52,233.15 378.82,234.47C379.13,235.83 379.43,237.22 379.73,238.64C380.04,240.11 380.33,241.6 380.63,243.12C380.93,244.68 381.23,246.28 381.53,247.89C381.84,249.54 382.12,251.3 382.44,252.89C382.73,254.35 383.03,255.74 383.34,257.08C383.63,258.33 383.92,259.61 384.25,260.68C384.53,261.57 384.82,262.37 385.15,263.08C385.43,263.68 385.68,264.39 386.05,264.7C386.32,264.93 386.7,265.14 386.96,265.03C387.34,264.88 387.59,263.94 387.86,263.2C388.23,262.16 388.48,260.68 388.77,259.3C389.09,257.76 389.38,256.11 389.67,254.39C389.99,252.48 390.29,250.43 390.58,248.35C390.89,246.14 391.18,243.83 391.48,241.51C391.79,239.11 392.08,236.64 392.38,234.19C392.68,231.71 392.99,229.19 393.29,226.7C393.59,224.21 393.89,221.73 394.19,219.25C394.49,216.79 394.8,214.32 395.1,211.89C395.4,209.51 395.69,207.14 396,204.83C396.29,202.61 396.59,200.41 396.9,198.29C397.19,196.27 397.5,194.3 397.81,192.4C398.1,190.62 398.4,188.88 398.71,187.23C399,185.7 399.3,184.22 399.62,182.82C399.91,181.55 400.2,180.32 400.52,179.18C400.81,178.15 401.1,177.17 401.42,176.28C401.7,175.5 402,174.76 402.33,174.13C402.61,173.59 402.89,173.06 403.23,172.7C403.51,172.4 403.82,172.12 404.14,172.03C404.43,171.95 404.76,171.98 405.04,172.1C405.37,172.24 405.67,172.57 405.95,172.9C406.28,173.3 406.57,173.83 406.85,174.38C407.17,175.01 407.46,175.73 407.75,176.47C408.07,177.28 408.37,178.16 408.66,179.05C408.97,179.98 409.26,180.97 409.56,181.93C409.86,182.89 410.16,183.86 410.47,184.79C410.77,185.69 411.07,186.55 411.37,187.43C411.67,188.3 411.97,189.15 412.27,190.03C412.58,190.94 412.88,191.85 413.18,192.79C413.49,193.76 413.78,194.76 414.08,195.77C414.39,196.81 414.69,197.88 414.99,198.96C415.3,200.07 415.59,201.21 415.89,202.35C416.19,203.52 416.49,204.7 416.79,205.89C417.09,207.09 417.4,208.31 417.7,209.53C418,210.76 418.3,211.99 418.6,213.22C418.9,214.46 419.21,215.69 419.51,216.93C419.81,218.17 420.11,219.41 420.41,220.66C420.71,221.91 421.02,223.16 421.32,224.42C421.62,225.69 421.92,226.96 422.22,228.24C422.52,229.53 422.82,230.83 423.12,232.14C423.42,233.45 423.73,234.78 424.03,236.1C424.33,237.43 424.63,238.77 424.93,240.1C425.23,241.43 425.54,242.77 425.84,244.09C426.14,245.4 426.44,246.7 426.74,247.98C427.04,249.22 427.33,250.46 427.64,251.65C427.94,252.8 428.24,253.91 428.55,255.01C428.85,256.07 429.14,257.1 429.45,258.11C429.75,259.09 430.05,260.07 430.36,261C430.65,261.88 430.94,262.77 431.26,263.55C431.54,264.25 431.83,264.93 432.16,265.48C432.44,265.94 432.74,266.34 433.07,266.65C433.35,266.92 433.66,267.12 433.97,267.28C434.26,267.43 434.57,267.53 434.88,267.58C435.18,267.63 435.48,267.62 435.78,267.58C436.08,267.54 436.38,267.43 436.68,267.32C436.99,267.2 437.3,267.07 437.59,266.87C437.91,266.65 438.21,266.36 438.49,266.02C438.82,265.63 439.1,265.1 439.4,264.61C439.71,264.1 440,263.57 440.3,263.04C440.61,262.49 440.91,261.93 441.21,261.36C441.51,260.78 441.81,260.19 442.11,259.59C442.41,258.99 442.71,258.38 443.01,257.76C443.31,257.13 443.62,256.5 443.92,255.86C444.22,255.22 444.52,254.56 444.82,253.91C445.12,253.25 445.43,252.58 445.73,251.91C446.03,251.24 446.33,250.57 446.63,249.91C446.93,249.26 447.22,248.61 447.53,247.98C447.83,247.36 448.13,246.75 448.44,246.16C448.74,245.59 449.03,245.03 449.34,244.49C449.64,243.97 449.95,243.48 450.25,242.99C450.55,242.51 450.85,242.04 451.15,241.56C451.45,241.07 451.74,240.57 452.05,240.09C452.35,239.63 452.65,239.18 452.96,238.75C453.25,238.34 453.55,237.95 453.86,237.59C454.15,237.24 454.46,236.92 454.77,236.62C455.06,236.34 455.36,236.07 455.67,235.84C455.96,235.62 456.27,235.43 456.58,235.27C456.88,235.11 457.18,234.98 457.48,234.87C457.78,234.77 458.08,234.7 458.38,234.64C458.68,234.59 458.99,234.56 459.29,234.54C459.59,234.52 459.89,234.53 460.19,234.54C460.49,234.55 460.8,234.56 461.1,234.58Q461.4,234.59 462,234.63" style="vector-effect: non-scaling-stroke; fill: none; stroke: rgb(0, 100, 80); stroke-opacity: 1; stroke-width: 2px; opacity: 1;"/></g><g class="points"/><g class="text"/></g><g class="trace scatter trace412ba2" style="stroke-miterlimit: 2; opacity: 1;"><g class="fills"/><g class="errorbars"/><g class="lines"><path class="js-line" d="M0,95.28Q0.63,95.5 0.9,95.74C1.25,96.05 1.53,96.59 1.81,97.13C2.15,97.78 2.43,98.59 2.71,99.42C3.04,100.39 3.33,101.47 3.62,102.6C3.94,103.86 4.23,105.23 4.52,106.64C4.83,108.18 5.13,109.81 5.42,111.48C5.73,113.28 6.04,115.16 6.33,117.09C6.64,119.13 6.94,121.24 7.23,123.39C7.54,125.64 7.84,127.97 8.14,130.32C8.45,132.76 8.74,135.27 9.04,137.79C9.35,140.38 9.65,143.03 9.95,145.68C10.25,148.38 10.55,151.12 10.85,153.86C11.15,156.61 11.45,159.39 11.75,162.14C12.05,164.88 12.36,167.63 12.66,170.35C12.96,173.04 13.26,175.73 13.56,178.38C13.86,180.99 14.16,183.58 14.47,186.13C14.77,188.61 15.06,191.07 15.37,193.45C15.66,195.72 15.96,197.97 16.27,200.11C16.56,202.12 16.87,204.06 17.18,205.93C17.47,207.67 17.77,209.33 18.08,210.95C18.37,212.47 18.68,213.94 18.99,215.38C19.29,216.76 19.59,218.09 19.89,219.42C20.19,220.71 20.49,221.97 20.79,223.22C21.09,224.45 21.4,225.67 21.7,226.89C22,228.1 22.3,229.29 22.6,230.49C22.9,231.68 23.21,232.87 23.51,234.05C23.81,235.23 24.11,236.41 24.41,237.58C24.71,238.74 25.02,239.91 25.32,241.06C25.62,242.2 25.92,243.33 26.22,244.45C26.52,245.54 26.81,246.63 27.12,247.69C27.42,248.72 27.72,249.75 28.03,250.73C28.32,251.66 28.61,252.58 28.93,253.43C29.22,254.2 29.52,254.94 29.84,255.6C30.12,256.18 30.43,256.7 30.74,257.18C31.03,257.62 31.33,258.01 31.64,258.4C31.94,258.77 32.24,259.12 32.55,259.46C32.85,259.78 33.14,260.1 33.45,260.39C33.75,260.66 34.05,260.92 34.36,261.15C34.65,261.37 34.96,261.56 35.26,261.75C35.56,261.93 35.85,262.11 36.16,262.25C36.46,262.38 36.77,262.56 37.07,262.56C37.37,262.56 37.71,262.47 37.97,262.24C38.35,261.91 38.61,261.18 38.88,260.46C39.25,259.48 39.5,258.11 39.78,256.82C40.1,255.37 40.38,253.76 40.68,252.19C40.99,250.56 41.29,248.86 41.59,247.19C41.89,245.51 42.19,243.8 42.49,242.12C42.79,240.45 43.1,238.78 43.4,237.13C43.7,235.51 43.99,233.89 44.3,232.31C44.6,230.77 44.9,229.24 45.21,227.74C45.51,226.29 45.8,224.86 46.11,223.47C46.4,222.14 46.7,220.83 47.01,219.56C47.31,218.35 47.61,217.17 47.92,216.01C48.22,214.88 48.51,213.76 48.82,212.68C49.12,211.64 49.42,210.61 49.73,209.62C50.02,208.68 50.32,207.77 50.63,206.89C50.92,206.06 51.22,205.26 51.53,204.49C51.82,203.76 52.13,203.05 52.44,202.39C52.73,201.78 53.02,201.18 53.34,200.64C53.63,200.14 53.93,199.67 54.25,199.26C54.54,198.9 54.83,198.55 55.15,198.29C55.44,198.05 55.74,197.85 56.05,197.73C56.34,197.62 56.66,197.57 56.96,197.59C57.26,197.61 57.57,197.72 57.86,197.86C58.18,198.02 58.48,198.26 58.77,198.53C59.09,198.83 59.38,199.21 59.67,199.61C59.99,200.06 60.29,200.57 60.58,201.1C60.9,201.68 61.19,202.31 61.48,202.97C61.79,203.68 62.08,204.45 62.38,205.22C62.69,206.02 62.93,207.03 63.29,207.67C63.56,208.15 63.89,208.42 64.19,208.81C64.5,209.21 64.81,209.59 65.1,210.03C65.41,210.5 65.71,211.01 66,211.54C66.31,212.1 66.6,212.69 66.9,213.3C67.21,213.93 67.51,214.59 67.81,215.26C68.12,215.95 68.41,216.67 68.71,217.39C69.02,218.13 69.32,218.89 69.62,219.65C69.92,220.43 70.22,221.22 70.52,222.02C70.82,222.83 71.12,223.66 71.42,224.49C71.72,225.33 72.03,226.18 72.33,227.03C72.63,227.89 72.93,228.76 73.23,229.63C73.53,230.51 73.84,231.39 74.14,232.27C74.44,233.15 74.74,234.05 75.04,234.93C75.34,235.81 75.65,236.69 75.95,237.57C76.25,238.44 76.55,239.32 76.85,240.19C77.15,241.05 77.45,241.91 77.75,242.76C78.05,243.6 78.36,244.44 78.66,245.26C78.96,246.07 79.26,246.86 79.56,247.65C79.86,248.42 80.16,249.18 80.47,249.93C80.77,250.66 81.07,251.37 81.37,252.07C81.67,252.75 81.97,253.42 82.27,254.08C82.57,254.73 82.88,255.36 83.18,255.99C83.48,256.61 83.78,257.22 84.08,257.83C84.38,258.43 84.69,259.02 84.99,259.61C85.29,260.2 85.59,260.79 85.89,261.39C86.19,262 86.49,262.62 86.79,263.25C87.1,263.91 87.4,264.57 87.7,265.26C88.01,265.98 88.3,266.72 88.6,267.48C88.91,268.28 89.21,269.1 89.51,269.94C89.82,270.82 90.11,271.73 90.41,272.65C90.72,273.61 91.02,274.6 91.32,275.6C91.63,276.63 91.92,277.68 92.22,278.74C92.52,279.82 92.82,280.92 93.12,282.01C93.42,283.1 93.69,284.33 94.03,285.28C94.31,286.06 94.59,286.78 94.93,287.34C95.21,287.79 95.5,288.23 95.84,288.45C96.12,288.63 96.46,288.77 96.74,288.69C97.07,288.6 97.37,288.14 97.64,287.73C98,287.19 98.27,286.4 98.55,285.64C98.88,284.77 99.16,283.77 99.45,282.77C99.76,281.69 100.06,280.55 100.36,279.4C100.67,278.2 100.96,276.97 101.26,275.73C101.56,274.46 101.86,273.16 102.16,271.87C102.46,270.57 102.77,269.25 103.07,267.94C103.37,266.63 103.67,265.32 103.97,264.02C104.27,262.74 104.57,261.46 104.88,260.21C105.18,258.98 105.48,257.77 105.78,256.58C106.08,255.43 106.37,254.29 106.68,253.18C106.98,252.12 107.28,251.07 107.59,250.06C107.88,249.09 108.18,248.15 108.49,247.24C108.78,246.38 109.09,245.55 109.4,244.75C109.69,244 109.99,243.28 110.3,242.6C110.59,241.96 110.9,241.35 111.21,240.77C111.5,240.23 111.8,239.72 112.11,239.25C112.4,238.81 112.7,238.4 113.01,238.02C113.3,237.67 113.61,237.33 113.92,237.04C114.21,236.77 114.51,236.53 114.82,236.32C115.11,236.13 115.42,235.96 115.73,235.83C116.02,235.71 116.33,235.62 116.63,235.57C116.93,235.52 117.23,235.51 117.53,235.54C117.83,235.57 118.14,235.65 118.44,235.76C118.75,235.87 119.05,236.02 119.34,236.2C119.65,236.39 119.96,236.62 120.25,236.87C120.56,237.14 120.86,237.44 121.15,237.76C121.46,238.1 121.76,238.48 122.05,238.87C122.36,239.28 122.66,239.71 122.96,240.16C123.27,240.63 123.56,241.12 123.86,241.62C124.17,242.13 124.47,242.66 124.77,243.18C125.07,243.7 125.36,244.25 125.67,244.74C125.96,245.21 126.25,245.72 126.58,246.08C126.86,246.39 127.16,246.71 127.48,246.83C127.76,246.94 128.09,246.95 128.38,246.87C128.7,246.78 129.01,246.53 129.29,246.25C129.63,245.92 129.91,245.43 130.19,244.94C130.52,244.37 130.81,243.67 131.1,242.99C131.41,242.26 131.7,241.46 132,240.68C132.3,239.89 132.6,239.07 132.9,238.27C133.2,237.49 133.5,236.7 133.81,235.94C134.11,235.21 134.4,234.48 134.71,233.79C135.01,233.13 135.31,232.48 135.62,231.87C135.91,231.29 136.21,230.73 136.52,230.2C136.81,229.7 137.11,229.23 137.42,228.79C137.71,228.37 138.02,227.99 138.33,227.62C138.63,227.27 138.93,226.94 139.23,226.61C139.53,226.29 139.84,225.99 140.14,225.67C140.44,225.34 140.74,225.01 141.04,224.66C141.35,224.29 141.65,223.89 141.95,223.49C142.26,223.07 142.55,222.63 142.85,222.19C143.15,221.74 143.45,221.27 143.75,220.82C144.05,220.37 144.35,219.91 144.66,219.47C144.96,219.04 145.25,218.62 145.56,218.22C145.86,217.83 146.16,217.45 146.47,217.1C146.76,216.77 147.06,216.45 147.37,216.17C147.66,215.9 147.96,215.66 148.27,215.45C148.56,215.25 148.87,215.07 149.18,214.94C149.47,214.82 149.78,214.73 150.08,214.68C150.38,214.63 150.69,214.62 150.99,214.65C151.29,214.68 151.6,214.77 151.89,214.89C152.2,215.01 152.5,215.18 152.79,215.38C153.1,215.59 153.41,215.86 153.7,216.14C154.01,216.44 154.31,216.79 154.6,217.16C154.91,217.55 155.22,217.98 155.51,218.43C155.82,218.9 156.11,219.42 156.41,219.93C156.72,220.46 157.01,221.03 157.32,221.56C157.62,222.08 157.9,222.63 158.22,223.09C158.51,223.51 158.81,223.89 159.12,224.24C159.41,224.57 159.73,224.84 160.03,225.16C160.34,225.49 160.64,225.82 160.93,226.19C161.24,226.6 161.48,227.39 161.84,227.52C162.11,227.62 162.44,227.34 162.74,227.28C163.04,227.22 163.34,227.14 163.64,227.18C163.95,227.22 164.26,227.37 164.55,227.55C164.87,227.75 165.17,228.05 165.45,228.38C165.77,228.75 166.07,229.21 166.36,229.69C166.68,230.23 166.97,230.85 167.26,231.49C167.58,232.19 167.87,232.96 168.16,233.75C168.47,234.61 168.78,235.51 169.07,236.45C169.38,237.45 169.68,238.5 169.97,239.57C170.28,240.7 170.58,241.87 170.88,243.06C171.19,244.3 171.48,245.57 171.78,246.86C172.08,248.18 172.38,249.53 172.68,250.89C172.98,252.27 173.29,253.67 173.59,255.07C173.89,256.49 174.19,257.92 174.49,259.35C174.79,260.8 175.1,262.26 175.4,263.72C175.7,265.2 176,266.7 176.3,268.18C176.6,269.65 176.83,271.41 177.21,272.58C177.47,273.41 177.78,274.02 178.11,274.62C178.39,275.14 178.67,275.66 179.01,276C179.29,276.27 179.64,276.63 179.92,276.57C180.26,276.5 180.56,275.81 180.82,275.21C181.23,274.25 181.44,272.61 181.73,271.19C182.05,269.62 182.33,267.86 182.63,266.19C182.93,264.51 183.23,262.81 183.53,261.12C183.83,259.44 184.14,257.76 184.44,256.1C184.74,254.45 185.04,252.81 185.34,251.18C185.64,249.57 185.95,247.98 186.25,246.39C186.55,244.83 186.85,243.27 187.15,241.73C187.45,240.22 187.75,238.73 188.05,237.25C188.35,235.8 188.65,234.37 188.96,232.96C189.26,231.59 189.55,230.24 189.86,228.91C190.16,227.62 190.46,226.36 190.77,225.12C191.07,223.93 191.36,222.76 191.67,221.62C191.97,220.53 192.27,219.47 192.58,218.44C192.87,217.46 193.17,216.51 193.48,215.59C193.77,214.72 194.07,213.87 194.38,213.07C194.67,212.32 194.98,211.59 195.29,210.9C195.58,210.25 195.88,209.63 196.19,209.04C196.48,208.48 196.79,207.96 197.1,207.45C197.39,206.97 197.69,206.52 198,206.08C198.29,205.66 198.59,205.26 198.9,204.87C199.2,204.5 199.5,204.13 199.81,203.8C200.1,203.48 200.4,203.17 200.71,202.91C201,202.67 201.31,202.44 201.62,202.28C201.91,202.13 202.22,202.02 202.52,201.98C202.82,201.94 203.13,201.96 203.42,202.03C203.73,202.11 204.04,202.26 204.33,202.45C204.65,202.66 204.94,202.94 205.23,203.24C205.55,203.58 205.85,203.98 206.14,204.41C206.46,204.87 206.75,205.39 207.04,205.93C207.35,206.51 207.66,207.14 207.95,207.79C208.26,208.48 208.56,209.21 208.85,209.95C209.16,210.73 209.45,211.55 209.75,212.38C210.06,213.24 210.36,214.14 210.66,215.04C210.97,215.96 211.26,216.91 211.56,217.86C211.86,218.83 212.17,219.81 212.47,220.8C212.77,221.79 213.07,222.8 213.37,223.8C213.67,224.81 213.97,225.83 214.27,226.85C214.57,227.87 214.88,228.89 215.18,229.92C215.48,230.95 215.78,231.98 216.08,233.02C216.38,234.07 216.69,235.12 216.99,236.17C217.29,237.23 217.59,238.3 217.89,239.36C218.19,240.43 218.49,241.5 218.79,242.56C219.09,243.62 219.4,244.68 219.7,245.72C220,246.74 220.29,247.77 220.6,248.76C220.9,249.71 221.2,250.66 221.51,251.55C221.8,252.37 222.09,253.19 222.41,253.9C222.69,254.53 222.97,255.17 223.32,255.62C223.59,255.98 223.9,256.39 224.22,256.45C224.5,256.51 224.85,256.34 225.12,256.11C225.49,255.79 225.75,255.1 226.03,254.48C226.37,253.73 226.64,252.8 226.93,251.89C227.25,250.89 227.54,249.81 227.84,248.73C228.15,247.6 228.44,246.43 228.74,245.27C229.04,244.09 229.34,242.89 229.64,241.71C229.94,240.53 230.25,239.35 230.55,238.19C230.85,237.05 231.14,235.92 231.45,234.81C231.75,233.72 232.06,232.66 232.36,231.59C232.66,230.53 232.96,229.51 233.26,228.44C233.56,227.34 233.88,226.3 234.16,225.09C234.49,223.68 234.79,222.17 235.07,220.48C235.41,218.42 235.67,215.96 235.97,213.62C236.28,211.18 236.58,208.66 236.88,206.14C237.18,203.58 237.48,200.99 237.78,198.4C238.08,195.8 238.38,193.19 238.68,190.59C238.98,188 239.29,185.41 239.59,182.85C239.89,180.33 240.19,177.81 240.49,175.33C240.79,172.9 241.09,170.49 241.4,168.13C241.7,165.84 241.99,163.57 242.3,161.35C242.6,159.21 242.9,157.1 243.21,155.05C243.51,153.09 243.8,151.16 244.11,149.3C244.4,147.53 244.7,145.8 245.01,144.14C245.3,142.58 245.61,141.05 245.92,139.6C246.21,138.25 246.5,136.94 246.82,135.71C247.11,134.58 247.41,133.49 247.73,132.48C248.02,131.57 248.31,130.7 248.63,129.91C248.91,129.21 249.2,128.55 249.53,127.98C249.81,127.49 250.11,127.04 250.44,126.69C250.72,126.39 251.02,126.13 251.34,125.98C251.63,125.85 251.95,125.79 252.25,125.81C252.55,125.83 252.86,125.96 253.15,126.11C253.46,126.28 253.76,126.53 254.05,126.79C254.36,127.07 254.66,127.41 254.96,127.74C255.27,128.09 255.56,128.47 255.86,128.84C256.16,129.2 256.46,129.58 256.77,129.93C257.07,130.26 257.36,130.61 257.67,130.88C257.96,131.13 258.26,131.38 258.58,131.53C258.87,131.67 259.18,131.77 259.48,131.77C259.78,131.77 260.1,131.68 260.38,131.51C260.71,131.31 261.01,130.97 261.29,130.58C261.63,130.1 261.91,129.45 262.19,128.8C262.51,128.06 262.8,127.2 263.1,126.37C263.41,125.5 263.7,124.58 264,123.68C264.3,122.78 264.59,121.87 264.9,120.98C265.2,120.11 265.5,119.25 265.81,118.42C266.1,117.64 266.4,116.87 266.71,116.15C267,115.48 267.3,114.83 267.62,114.25C267.91,113.73 268.2,113.22 268.52,112.81C268.8,112.45 269.09,112.1 269.42,111.88C269.7,111.69 270.02,111.53 270.33,111.5C270.63,111.47 270.95,111.56 271.23,111.7C271.56,111.87 271.86,112.17 272.14,112.5C272.47,112.88 272.76,113.38 273.04,113.9C273.37,114.49 273.66,115.18 273.95,115.89C274.27,116.68 274.56,117.55 274.85,118.45C275.16,119.43 275.46,120.48 275.75,121.55C276.06,122.69 276.36,123.89 276.66,125.1C276.97,126.36 277.26,127.65 277.56,128.96C277.87,130.31 278.17,131.67 278.47,133.06C278.78,134.5 279.07,135.98 279.37,137.47C279.67,139.01 279.97,140.57 280.27,142.15C280.57,143.75 280.88,145.38 281.18,147.01C281.48,148.65 281.78,150.31 282.08,151.96C282.38,153.61 282.69,155.26 282.99,156.89C283.29,158.5 283.59,160.1 283.89,161.67C284.19,163.2 284.48,164.71 284.79,166.18C285.09,167.6 285.39,168.99 285.7,170.35C286,171.66 286.29,172.93 286.6,174.19C286.9,175.41 287.21,176.59 287.51,177.77C287.81,178.93 288.11,180.08 288.41,181.23C288.71,182.37 289.02,183.5 289.32,184.64C289.62,185.78 289.92,186.93 290.22,188.08C290.52,189.24 290.82,190.4 291.12,191.57C291.42,192.74 291.73,193.93 292.03,195.1C292.33,196.26 292.62,197.42 292.93,198.55C293.23,199.64 293.53,200.72 293.84,201.75C294.13,202.73 294.44,203.67 294.74,204.6C295.04,205.5 295.34,206.38 295.64,207.26C295.94,208.14 296.25,209.02 296.55,209.9C296.85,210.79 297.15,211.69 297.45,212.59C297.75,213.5 298.06,214.42 298.36,215.35C298.66,216.28 298.96,217.23 299.26,218.17C299.56,219.12 299.86,220.08 300.16,221.04C300.46,222.01 300.77,222.98 301.07,223.95C301.37,224.92 301.67,225.9 301.97,226.88C302.27,227.85 302.58,228.83 302.88,229.8C303.18,230.76 303.48,231.72 303.78,232.67C304.08,233.6 304.37,234.53 304.68,235.44C304.98,236.32 305.28,237.2 305.59,238.05C305.89,238.86 306.18,239.66 306.49,240.41C306.78,241.12 307.09,241.81 307.4,242.46C307.69,243.06 307.99,243.62 308.3,244.15C308.59,244.64 308.9,245.11 309.21,245.54C309.5,245.94 309.8,246.31 310.11,246.66C310.4,246.99 310.7,247.3 311.01,247.59C311.31,247.87 311.61,248.12 311.92,248.37C312.22,248.61 312.52,248.83 312.82,249.06C313.12,249.29 313.43,249.5 313.73,249.73C314.03,249.96 314.33,250.19 314.63,250.43C314.93,250.68 315.23,250.94 315.53,251.21C315.84,251.49 316.14,251.79 316.44,252.11C316.75,252.44 317.05,252.8 317.34,253.17C317.65,253.56 317.96,253.98 318.25,254.42C318.56,254.88 318.86,255.37 319.15,255.88C319.46,256.41 319.76,256.97 320.05,257.55C320.36,258.16 320.66,258.8 320.96,259.46C321.27,260.15 321.56,260.85 321.86,261.58C322.17,262.34 322.47,263.13 322.77,263.93C323.08,264.76 323.37,265.6 323.67,266.46C323.98,267.35 324.28,268.26 324.58,269.18C324.89,270.12 325.18,271.09 325.48,272.06C325.78,273.05 326.08,274.06 326.38,275.07C326.68,276.1 326.99,277.13 327.29,278.17C327.59,279.22 327.89,280.28 328.19,281.33C328.49,282.39 328.8,283.45 329.1,284.51C329.4,285.56 329.7,286.61 330,287.65C330.3,288.67 330.59,289.68 330.9,290.67C331.2,291.62 331.5,292.58 331.81,293.47C332.1,294.3 332.39,295.14 332.71,295.86C332.99,296.5 333.28,297.12 333.62,297.6C333.9,298 334.19,298.36 334.52,298.6C334.8,298.81 335.11,298.96 335.42,299.02C335.72,299.08 336.04,299.04 336.33,298.96C336.64,298.87 336.94,298.69 337.23,298.49C337.55,298.27 337.85,297.99 338.14,297.7C338.45,297.39 338.74,297.04 339.04,296.69C339.35,296.32 339.65,295.94 339.95,295.54C340.26,295.13 340.56,294.74 340.85,294.27C341.17,293.75 341.47,293.17 341.75,292.55C342.07,291.84 342.36,291 342.66,290.23C342.96,289.46 343.25,288.67 343.56,287.91C343.86,287.17 344.16,286.44 344.47,285.73C344.77,285.04 345.06,284.37 345.37,283.71C345.66,283.08 345.96,282.46 346.27,281.86C346.57,281.29 346.87,280.73 347.18,280.19C347.48,279.67 347.77,279.16 348.08,278.67C348.38,278.2 348.68,277.75 348.99,277.31C349.29,276.89 349.58,276.48 349.89,276.09C350.19,275.71 350.48,275.34 350.79,274.99C351.09,274.64 351.39,274.31 351.7,273.99C352,273.68 352.3,273.38 352.6,273.09C352.9,272.8 353.21,272.53 353.51,272.26C353.81,271.99 354.11,271.73 354.41,271.47C354.71,271.21 355.02,270.96 355.32,270.71C355.62,270.46 355.92,270.21 356.22,269.95C356.52,269.68 356.82,269.41 357.12,269.13C357.43,268.84 357.73,268.55 358.03,268.24C358.34,267.92 358.64,267.58 358.93,267.22C359.24,266.84 359.55,266.45 359.84,266.01C360.16,265.54 360.45,265.03 360.74,264.47C361.06,263.85 361.35,263.15 361.64,262.44C361.95,261.67 362.25,260.84 362.55,260C362.86,259.12 363.15,258.21 363.45,257.29C363.76,256.34 364.06,255.37 364.36,254.39C364.66,253.4 364.96,252.39 365.26,251.38C365.56,250.37 365.86,249.36 366.16,248.35C366.46,247.35 366.77,246.35 367.07,245.37C367.37,244.4 367.66,243.44 367.97,242.5C368.27,241.58 368.57,240.68 368.88,239.79C369.18,238.93 369.48,238.08 369.78,237.25C370.08,236.44 370.38,235.66 370.68,234.87C370.98,234.09 371.29,233.32 371.59,232.54C371.89,231.75 372.19,230.96 372.49,230.17C372.79,229.38 373.09,228.58 373.4,227.81C373.7,227.06 373.99,226.32 374.3,225.61C374.59,224.94 374.9,224.28 375.21,223.66C375.5,223.08 375.8,222.53 376.11,222.02C376.4,221.56 376.69,221.11 377.01,220.73C377.3,220.38 377.6,220.06 377.92,219.81C378.21,219.58 378.51,219.38 378.82,219.26C379.11,219.15 379.43,219.08 379.73,219.09C380.03,219.1 380.34,219.17 380.63,219.29C380.94,219.42 381.24,219.63 381.53,219.87C381.85,220.13 382.15,220.45 382.44,220.8C382.76,221.18 383.05,221.62 383.34,222.07C383.65,222.56 383.96,223.1 384.25,223.66C384.56,224.25 384.86,224.88 385.15,225.53C385.46,226.21 385.75,226.92 386.05,227.65C386.36,228.41 386.66,229.2 386.96,229.99C387.27,230.81 387.55,231.66 387.86,232.48C388.16,233.28 388.38,234.32 388.77,234.84C389.03,235.18 389.36,235.34 389.67,235.51C389.96,235.67 390.27,235.77 390.58,235.87C390.88,235.96 391.18,236.07 391.48,236.09C391.78,236.11 392.1,236.11 392.38,235.99C392.71,235.85 393.02,235.56 393.29,235.21C393.64,234.76 393.91,234.09 394.19,233.42C394.52,232.63 394.81,231.68 395.1,230.75C395.41,229.75 395.7,228.69 396,227.63C396.3,226.54 396.6,225.43 396.9,224.32C397.2,223.2 397.51,222.08 397.81,220.96C398.11,219.85 398.41,218.72 398.71,217.62C399.01,216.53 399.31,215.45 399.62,214.38C399.92,213.34 400.21,212.31 400.52,211.3C400.82,210.33 401.11,209.37 401.42,208.44C401.72,207.55 402.02,206.68 402.33,205.85C402.62,205.07 402.92,204.3 403.23,203.58C403.52,202.91 403.82,202.26 404.14,201.66C404.43,201.11 404.72,200.58 405.04,200.12C405.33,199.7 405.63,199.31 405.95,198.99C406.24,198.71 406.53,198.45 406.85,198.28C407.14,198.13 407.45,198.02 407.75,198C408.05,197.98 408.37,198.06 408.66,198.18C408.98,198.31 409.28,198.55 409.56,198.81C409.88,199.11 410.18,199.49 410.47,199.9C410.79,200.36 411.08,200.88 411.37,201.43C411.69,202.04 411.98,202.72 412.27,203.42C412.59,204.18 412.89,204.99 413.18,205.83C413.49,206.73 413.79,207.69 414.08,208.67C414.39,209.71 414.7,210.8 414.99,211.91C415.3,213.08 415.6,214.29 415.89,215.52C416.2,216.81 416.49,218.13 416.79,219.48C417.1,220.88 417.4,222.3 417.7,223.75C418.01,225.24 418.3,226.77 418.6,228.31C418.91,229.89 419.21,231.49 419.51,233.1C419.81,234.75 420.11,236.41 420.41,238.09C420.71,239.79 421.02,241.5 421.32,243.22C421.62,244.95 421.92,246.69 422.22,248.42C422.52,250.16 422.82,251.9 423.12,253.63C423.42,255.34 423.73,257.06 424.03,258.75C424.33,260.4 424.62,262.06 424.93,263.66C425.23,265.19 425.53,266.72 425.84,268.16C426.13,269.49 426.42,270.8 426.74,272C427.02,273.07 427.31,274.09 427.64,275.01C427.92,275.81 428.22,276.55 428.55,277.2C428.83,277.76 429.13,278.28 429.45,278.72C429.74,279.11 430.04,279.46 430.36,279.75C430.65,280.01 430.95,280.24 431.26,280.42C431.55,280.59 431.85,280.71 432.16,280.8C432.46,280.88 432.77,280.97 433.07,280.93C433.38,280.89 433.7,280.78 433.97,280.53C434.34,280.19 434.59,279.44 434.88,278.84C435.19,278.2 435.48,277.49 435.78,276.81C436.08,276.12 436.38,275.42 436.68,274.73C436.98,274.04 437.29,273.36 437.59,272.68C437.89,272.02 438.19,271.36 438.49,270.71C438.79,270.08 439.09,269.45 439.4,268.84C439.7,268.25 439.99,267.67 440.3,267.11C440.6,266.57 440.9,266.04 441.21,265.54C441.5,265.06 441.8,264.59 442.11,264.15C442.4,263.73 442.7,263.33 443.01,262.95C443.3,262.59 443.61,262.25 443.92,261.94C444.21,261.64 444.51,261.36 444.82,261.12C445.11,260.89 445.42,260.69 445.73,260.52C446.02,260.36 446.32,260.21 446.63,260.11C446.92,260.01 447.23,259.94 447.53,259.91C447.83,259.88 448.14,259.88 448.44,259.91C448.74,259.94 449.04,260.01 449.34,260.11C449.65,260.21 449.95,260.35 450.25,260.51C450.56,260.68 450.86,260.87 451.15,261.09C451.46,261.32 451.76,261.58 452.05,261.86C452.36,262.15 452.66,262.46 452.96,262.79C453.27,263.13 453.56,263.49 453.86,263.87C454.17,264.26 454.47,264.67 454.77,265.09C455.08,265.52 455.37,265.97 455.67,266.43C455.98,266.9 456.28,267.38 456.58,267.86C456.88,268.35 457.18,268.84 457.48,269.34C457.78,269.84 458.08,270.36 458.38,270.86C458.68,271.36 458.99,271.86 459.29,272.34C459.59,272.81 459.88,273.3 460.19,273.74C460.48,274.16 460.78,274.59 461.1,274.95Q461.39,275.28 462,275.82" style="vector-effect: non-scaling-stroke; fill: none; stroke: rgb(0, 176, 246); stroke-opacity: 1; stroke-width: 2px; opacity: 1;"/></g><g class="points"/><g class="text"/></g><g class="trace scatter trace3bdd0b" style="stroke-miterlimit: 2; opacity: 1;"><g class="fills"/><g class="errorbars"/><g class="lines"><path class="js-line" d="M0,176.98Q0.6,176.96 0.9,176.92C1.2,176.88 1.51,176.81 1.81,176.74C2.11,176.67 2.41,176.58 2.71,176.49C3.01,176.39 3.32,176.28 3.62,176.17C3.92,176.06 4.22,175.95 4.52,175.85C4.82,175.75 5.12,175.65 5.42,175.57C5.72,175.49 6.03,175.41 6.33,175.36C6.63,175.31 6.93,175.29 7.23,175.29C7.53,175.29 7.84,175.32 8.14,175.38C8.44,175.44 8.75,175.54 9.04,175.67C9.35,175.81 9.66,175.98 9.95,176.19C10.26,176.41 10.56,176.68 10.85,176.97C11.16,177.28 11.46,177.64 11.75,178.02C12.06,178.43 12.37,178.89 12.66,179.37C12.97,179.88 13.27,180.43 13.56,181.01C13.87,181.63 14.18,182.28 14.47,182.96C14.78,183.68 15.08,184.44 15.37,185.22C15.68,186.05 15.98,186.91 16.27,187.79C16.58,188.72 16.88,189.69 17.18,190.68C17.49,191.72 17.78,192.79 18.08,193.88C18.39,195.02 18.69,196.19 18.99,197.39C19.3,198.63 19.6,199.9 19.89,201.2C20.2,202.55 20.49,203.92 20.79,205.32C21.1,206.76 21.4,208.24 21.7,209.73C22.01,211.27 22.3,212.83 22.6,214.41C22.91,216.03 23.21,217.67 23.51,219.33C23.81,221.02 24.11,222.74 24.41,224.47C24.71,226.22 25.02,227.99 25.32,229.76C25.62,231.54 25.92,233.34 26.22,235.13C26.52,236.92 26.82,238.72 27.12,240.51C27.42,242.28 27.73,244.05 28.03,245.8C28.33,247.52 28.62,249.24 28.93,250.92C29.23,252.56 29.53,254.19 29.84,255.79C30.14,257.34 30.44,258.87 30.74,260.37C31.04,261.83 31.33,263.26 31.64,264.67C31.94,266.03 32.24,267.37 32.55,268.69C32.85,269.97 33.14,271.22 33.45,272.45C33.75,273.64 34.05,274.82 34.36,275.96C34.66,277.06 34.95,278.15 35.26,279.19C35.55,280.18 35.85,281.16 36.16,282.08C36.45,282.94 36.75,283.79 37.07,284.56C37.36,285.25 37.64,285.94 37.97,286.5C38.25,286.97 38.53,287.51 38.88,287.72C39.15,287.88 39.51,287.97 39.78,287.85C40.14,287.69 40.41,287.07 40.68,286.54C41.04,285.83 41.3,284.85 41.59,283.91C41.91,282.84 42.2,281.64 42.49,280.46C42.8,279.21 43.1,277.89 43.4,276.59C43.7,275.26 44,273.9 44.3,272.55C44.6,271.21 44.91,269.85 45.21,268.52C45.51,267.22 45.81,265.92 46.11,264.65C46.41,263.42 46.7,262.2 47.01,261.02C47.31,259.88 47.61,258.78 47.92,257.69C48.22,256.64 48.52,255.62 48.82,254.59C49.12,253.58 49.42,252.55 49.73,251.57C50.03,250.62 50.32,249.69 50.63,248.79C50.92,247.93 51.22,247.09 51.53,246.27C51.83,245.48 52.13,244.7 52.44,243.97C52.73,243.29 53.02,242.63 53.34,242.03C53.63,241.49 53.93,240.98 54.25,240.54C54.53,240.15 54.83,239.79 55.15,239.52C55.43,239.28 55.74,239.07 56.05,238.96C56.34,238.86 56.66,238.82 56.96,238.86C57.27,238.9 57.57,239.03 57.86,239.19C58.18,239.37 58.48,239.63 58.77,239.92C59.09,240.24 59.38,240.63 59.67,241.04C59.99,241.49 60.29,241.99 60.58,242.51C60.89,243.07 61.19,243.67 61.48,244.29C61.79,244.95 62.09,245.65 62.38,246.36C62.69,247.11 62.99,247.88 63.29,248.67C63.6,249.48 63.89,250.32 64.19,251.17C64.5,252.04 64.8,252.93 65.1,253.83C65.4,254.74 65.7,255.66 66,256.58C66.3,257.5 66.6,258.44 66.9,259.36C67.2,260.28 67.51,261.21 67.81,262.12C68.11,263.01 68.4,263.91 68.71,264.77C69.01,265.6 69.31,266.43 69.62,267.22C69.91,267.97 70.21,268.71 70.52,269.39C70.81,270.02 71.1,270.64 71.42,271.19C71.71,271.69 72.01,272.17 72.33,272.57C72.62,272.93 72.91,273.26 73.23,273.52C73.52,273.75 73.83,273.95 74.14,274.08C74.43,274.2 74.74,274.26 75.04,274.28C75.34,274.3 75.65,274.26 75.95,274.2C76.25,274.14 76.55,274.02 76.85,273.9C77.15,273.77 77.45,273.61 77.75,273.45C78.06,273.28 78.36,273.09 78.66,272.9C78.96,272.71 79.26,272.51 79.56,272.31C79.86,272.11 80.17,271.89 80.47,271.69C80.77,271.49 81.07,271.29 81.37,271.09C81.67,270.89 81.97,270.69 82.27,270.5C82.57,270.31 82.88,270.12 83.18,269.93C83.48,269.74 83.78,269.56 84.08,269.38C84.38,269.2 84.69,269.02 84.99,268.84C85.29,268.66 85.59,268.47 85.89,268.28C86.19,268.09 86.49,267.89 86.79,267.69C87.09,267.48 87.41,267.29 87.7,267.04C88.01,266.77 88.34,266.53 88.6,266.1C88.98,265.48 89.22,264.4 89.51,263.49C89.82,262.52 90.11,261.47 90.41,260.46C90.71,259.45 91.02,258.45 91.32,257.45C91.62,256.46 91.92,255.46 92.22,254.48C92.52,253.51 92.82,252.54 93.12,251.58C93.42,250.63 93.73,249.68 94.03,248.75C94.33,247.83 94.63,246.93 94.93,246.03C95.23,245.15 95.54,244.28 95.84,243.42C96.14,242.58 96.44,241.75 96.74,240.93C97.04,240.13 97.33,239.34 97.64,238.57C97.94,237.81 98.24,237.06 98.55,236.33C98.85,235.61 99.15,234.91 99.45,234.22C99.75,233.54 100.06,232.88 100.36,232.21C100.66,231.55 100.96,230.91 101.26,230.25C101.56,229.59 101.86,228.93 102.16,228.25C102.47,227.54 102.78,226.84 103.07,226.08C103.38,225.27 103.68,224.43 103.97,223.55C104.28,222.59 104.59,221.57 104.88,220.53C105.19,219.42 105.48,218.24 105.78,217.06C106.08,215.85 106.38,214.59 106.68,213.35C106.98,212.09 107.29,210.82 107.59,209.56C107.89,208.31 108.19,207.06 108.49,205.83C108.79,204.62 109.09,203.41 109.4,202.23C109.7,201.08 109.99,199.94 110.3,198.82C110.6,197.74 110.9,196.67 111.21,195.63C111.51,194.63 111.8,193.64 112.11,192.68C112.4,191.76 112.7,190.86 113.01,189.99C113.31,189.16 113.61,188.35 113.92,187.57C114.21,186.83 114.51,186.11 114.82,185.42C115.11,184.77 115.42,184.14 115.73,183.54C116.02,182.98 116.32,182.43 116.63,181.92C116.92,181.43 117.22,180.97 117.53,180.53C117.83,180.11 118.13,179.71 118.44,179.32C118.74,178.94 119.04,178.58 119.34,178.21C119.64,177.84 119.95,177.49 120.25,177.11C120.56,176.72 120.85,176.31 121.15,175.89C121.45,175.46 121.75,175 122.05,174.56C122.35,174.11 122.65,173.65 122.96,173.22C123.26,172.8 123.55,172.39 123.86,172.01C124.15,171.65 124.46,171.3 124.77,170.99C125.06,170.7 125.36,170.43 125.67,170.2C125.96,169.99 126.27,169.8 126.58,169.65C126.87,169.5 127.18,169.38 127.48,169.29C127.78,169.2 128.08,169.15 128.38,169.11C128.68,169.07 128.99,169.06 129.29,169.07C129.59,169.08 129.89,169.11 130.19,169.17C130.49,169.23 130.8,169.31 131.1,169.41C131.4,169.51 131.7,169.65 132,169.77C132.3,169.89 132.59,170.1 132.9,170.13C133.2,170.16 133.54,170.16 133.81,169.98C134.18,169.73 134.43,169.05 134.71,168.48C135.05,167.78 135.32,166.89 135.62,166.07C135.93,165.23 136.22,164.36 136.52,163.52C136.82,162.7 137.11,161.89 137.42,161.1C137.72,160.34 138.02,159.61 138.33,158.89C138.63,158.2 138.92,157.54 139.23,156.89C139.53,156.26 139.84,155.66 140.14,155.05C140.44,154.46 140.74,153.88 141.04,153.29C141.34,152.7 141.65,152.1 141.95,151.5C142.25,150.89 142.55,150.25 142.85,149.63C143.15,149.01 143.44,148.38 143.75,147.77C144.05,147.18 144.35,146.59 144.66,146.04C144.95,145.51 145.25,144.99 145.56,144.52C145.85,144.08 146.15,143.66 146.47,143.3C146.76,142.97 147.05,142.66 147.37,142.42C147.66,142.2 147.96,142.01 148.27,141.9C148.56,141.8 148.88,141.75 149.18,141.77C149.48,141.79 149.79,141.9 150.08,142.05C150.4,142.21 150.7,142.46 150.99,142.73C151.31,143.04 151.6,143.42 151.89,143.83C152.21,144.29 152.5,144.81 152.79,145.35C153.11,145.95 153.41,146.61 153.7,147.29C154.01,148.03 154.31,148.82 154.6,149.64C154.91,150.52 155.22,151.44 155.51,152.39C155.82,153.4 156.12,154.46 156.41,155.54C156.72,156.68 157.03,157.85 157.32,159.06C157.63,160.32 157.93,161.63 158.22,162.96C158.53,164.34 158.82,165.76 159.12,167.2C159.43,168.7 159.73,170.23 160.03,171.78C160.34,173.38 160.63,175.01 160.93,176.66C161.24,178.36 161.54,180.08 161.84,181.83C162.15,183.62 162.44,185.43 162.74,187.26C163.04,189.13 163.34,191.02 163.64,192.92C163.94,194.86 164.25,196.82 164.55,198.79C164.85,200.79 165.15,202.81 165.45,204.84C165.75,206.9 166.06,208.97 166.36,211.05C166.66,213.15 166.96,215.26 167.26,217.38C167.56,219.52 167.86,221.67 168.16,223.82C168.46,225.98 168.77,228.15 169.07,230.32C169.37,232.5 169.67,234.69 169.97,236.88C170.27,239.07 170.58,241.27 170.88,243.46C171.18,245.65 171.48,247.85 171.78,250.04C172.08,252.23 172.38,254.41 172.68,256.59C172.98,258.76 173.29,260.93 173.59,263.08C173.89,265.21 174.19,267.34 174.49,269.45C174.79,271.53 175.09,273.61 175.4,275.65C175.7,277.65 175.99,279.64 176.3,281.58C176.6,283.47 176.9,285.33 177.21,287.15C177.51,288.9 177.8,290.62 178.11,292.31C178.4,293.94 178.7,295.54 179.01,297.11C179.31,298.63 179.56,300.35 179.92,301.6C180.19,302.54 180.41,303.84 180.82,304C181.08,304.1 181.44,303.72 181.73,303.52C182.04,303.31 182.34,303.03 182.63,302.74C182.94,302.43 183.24,302.07 183.53,301.69C183.84,301.29 184.15,300.85 184.44,300.4C184.75,299.92 185.05,299.41 185.34,298.89C185.65,298.34 185.95,297.76 186.25,297.16C186.56,296.54 186.86,295.9 187.15,295.24C187.46,294.55 187.75,293.83 188.05,293.1C188.36,292.34 188.66,291.56 188.96,290.76C189.27,289.93 189.56,289.07 189.86,288.2C190.17,287.29 190.47,286.37 190.77,285.42C191.08,284.44 191.37,283.44 191.67,282.43C191.97,281.4 192.28,280.35 192.58,279.3C192.88,278.24 193.18,277.18 193.48,276.12C193.78,275.07 194.08,274.02 194.38,272.99C194.68,271.98 194.98,270.97 195.29,269.99C195.59,269.05 195.88,268.12 196.19,267.22C196.49,266.36 196.79,265.51 197.1,264.71C197.39,263.95 197.69,263.22 198,262.53C198.29,261.89 198.58,261.27 198.9,260.7C199.19,260.18 199.49,259.68 199.81,259.24C200.1,258.84 200.39,258.46 200.71,258.15C201,257.87 201.3,257.61 201.62,257.42C201.91,257.24 202.21,257.11 202.52,257.01C202.81,256.92 203.12,256.87 203.42,256.85C203.72,256.83 204.03,256.86 204.33,256.89C204.63,256.92 204.93,256.99 205.23,257.06C205.53,257.13 205.84,257.21 206.14,257.31C206.44,257.41 206.74,257.52 207.04,257.64C207.35,257.77 207.65,257.91 207.95,258.06C208.25,258.22 208.55,258.39 208.85,258.58C209.15,258.77 209.45,258.98 209.75,259.21C210.06,259.44 210.36,259.69 210.66,259.96C210.97,260.24 211.26,260.53 211.56,260.84C211.87,261.16 212.17,261.49 212.47,261.84C212.78,262.2 213.07,262.57 213.37,262.95C213.67,263.34 213.97,263.75 214.27,264.16C214.57,264.58 214.88,265.01 215.18,265.44C215.48,265.88 215.78,266.33 216.08,266.78C216.38,267.22 216.68,267.68 216.99,268.11C217.29,268.53 217.58,268.96 217.89,269.35C218.18,269.71 218.47,270.1 218.79,270.37C219.08,270.61 219.39,270.9 219.7,270.95C219.99,270.99 220.33,270.91 220.6,270.7C220.97,270.41 221.24,269.75 221.51,269.11C221.87,268.26 222.13,267.1 222.41,265.96C222.74,264.62 223.03,263.09 223.32,261.57C223.63,259.93 223.92,258.17 224.22,256.43C224.53,254.63 224.82,252.77 225.12,250.93C225.42,249.07 225.73,247.19 226.03,245.33C226.33,243.49 226.63,241.64 226.93,239.82C227.23,238.03 227.53,236.25 227.84,234.51C228.14,232.82 228.43,231.14 228.74,229.5C229.04,227.91 229.33,226.35 229.64,224.82C229.94,223.34 230.24,221.9 230.55,220.48C230.85,219.12 231.14,217.79 231.45,216.49C231.75,215.23 232.05,214 232.36,212.78C232.66,211.59 232.96,210.44 233.26,209.27C233.56,208.11 233.86,206.97 234.16,205.81C234.46,204.63 234.77,203.45 235.07,202.23C235.38,200.96 235.68,199.67 235.97,198.34C236.28,196.95 236.58,195.52 236.88,194.06C237.19,192.54 237.48,190.97 237.78,189.39C238.08,187.77 238.38,186.11 238.68,184.45C238.98,182.77 239.29,181.06 239.59,179.37C239.89,177.67 240.19,175.97 240.49,174.28C240.79,172.61 241.1,170.93 241.4,169.28C241.7,167.66 241.99,166.04 242.3,164.45C242.6,162.89 242.9,161.35 243.21,159.84C243.51,158.38 243.8,156.93 244.11,155.52C244.41,154.15 244.7,152.81 245.01,151.5C245.31,150.25 245.61,149.02 245.92,147.83C246.21,146.7 246.51,145.59 246.82,144.53C247.11,143.53 247.42,142.55 247.73,141.62C248.02,140.75 248.32,139.91 248.63,139.12C248.92,138.39 249.21,137.69 249.53,137.04C249.82,136.45 250.12,135.87 250.44,135.37C250.73,134.92 251.02,134.49 251.34,134.14C251.63,133.82 251.93,133.53 252.25,133.32C252.54,133.13 252.84,132.98 253.15,132.91C253.44,132.84 253.75,132.84 254.05,132.89C254.36,132.94 254.67,133.08 254.96,133.24C255.27,133.41 255.57,133.65 255.86,133.91C256.17,134.19 256.48,134.52 256.77,134.87C257.08,135.24 257.38,135.65 257.67,136.07C257.98,136.51 258.28,136.97 258.58,137.44C258.89,137.93 259.18,138.44 259.48,138.95C259.78,139.47 260.08,139.99 260.38,140.52C260.68,141.06 260.99,141.6 261.29,142.14C261.59,142.68 261.89,143.23 262.19,143.78C262.49,144.33 262.8,144.87 263.1,145.42C263.4,145.97 263.7,146.53 264,147.09C264.3,147.66 264.6,148.23 264.9,148.81C265.2,149.4 265.51,150 265.81,150.61C266.11,151.23 266.41,151.86 266.71,152.5C267.02,153.16 267.32,153.83 267.62,154.51C267.93,155.21 268.22,155.92 268.52,156.64C268.82,157.38 269.12,158.14 269.42,158.91C269.73,159.7 270.03,160.51 270.33,161.32C270.63,162.15 270.93,162.99 271.23,163.84C271.53,164.71 271.84,165.59 272.14,166.47C272.44,167.36 272.74,168.26 273.04,169.16C273.34,170.07 273.65,170.98 273.95,171.89C274.25,172.79 274.55,173.71 274.85,174.6C275.15,175.48 275.44,176.36 275.75,177.22C276.05,178.06 276.35,178.89 276.66,179.7C276.96,180.48 277.25,181.24 277.56,181.97C277.85,182.67 278.16,183.34 278.47,183.99C278.76,184.6 279.06,185.18 279.37,185.74C279.66,186.27 279.96,186.77 280.27,187.26C280.57,187.73 280.88,188.18 281.18,188.63C281.48,189.08 281.78,189.52 282.08,189.97C282.39,190.43 282.7,190.9 282.99,191.39C283.3,191.91 283.6,192.44 283.89,193.01C284.2,193.62 284.5,194.26 284.79,194.93C285.1,195.66 285.41,196.42 285.7,197.22C286.01,198.08 286.31,198.99 286.6,199.93C286.91,200.94 287.22,202 287.51,203.1C287.82,204.27 288.12,205.49 288.41,206.74C288.72,208.07 289.03,209.45 289.32,210.86C289.63,212.34 289.93,213.88 290.22,215.44C290.53,217.07 290.82,218.75 291.12,220.46C291.43,222.23 291.73,224.04 292.03,225.88C292.34,227.77 292.63,229.7 292.93,231.65C293.24,233.65 293.54,235.68 293.84,237.72C294.14,239.8 294.44,241.91 294.74,244.02C295.04,246.15 295.34,248.31 295.64,250.46C295.94,252.62 296.25,254.8 296.55,256.96C296.85,259.12 297.15,261.28 297.45,263.42C297.75,265.53 298.05,267.64 298.36,269.72C298.66,271.75 298.95,273.77 299.26,275.74C299.56,277.64 299.85,279.53 300.16,281.35C300.45,283.08 300.76,284.79 301.07,286.4C301.36,287.9 301.64,289.38 301.97,290.71C302.25,291.87 302.51,293.11 302.88,293.95C303.14,294.55 303.48,295.39 303.78,295.39C304.08,295.39 304.42,294.61 304.68,294C305.09,293.04 305.3,291.42 305.59,290.03C305.91,288.5 306.19,286.82 306.49,285.17C306.8,283.46 307.1,281.69 307.4,279.93C307.7,278.16 308,276.36 308.3,274.58C308.6,272.8 308.91,271.02 309.21,269.25C309.51,267.5 309.81,265.75 310.11,264.03C310.41,262.34 310.7,260.67 311.01,259.02C311.31,257.42 311.61,255.83 311.92,254.28C312.22,252.78 312.51,251.3 312.82,249.86C313.12,248.48 313.42,247.12 313.73,245.81C314.02,244.56 314.32,243.34 314.63,242.16C314.92,241.05 315.22,239.96 315.53,238.93C315.82,237.97 316.13,237.04 316.44,236.16C316.73,235.35 317.02,234.56 317.34,233.84C317.63,233.18 317.93,232.55 318.25,231.99C318.54,231.48 318.83,231.01 319.15,230.6C319.43,230.24 319.73,229.9 320.05,229.65C320.34,229.42 320.65,229.24 320.96,229.13C321.25,229.03 321.56,228.99 321.86,229.01C322.16,229.03 322.48,229.14 322.77,229.27C323.08,229.41 323.38,229.63 323.67,229.86C323.98,230.11 324.29,230.42 324.58,230.74C324.89,231.08 325.19,231.47 325.48,231.86C325.79,232.27 326.08,232.71 326.38,233.16C326.69,233.62 326.99,234.1 327.29,234.58C327.59,235.06 327.89,235.54 328.19,236.02C328.49,236.49 328.79,236.97 329.1,237.42C329.4,237.85 329.69,238.28 330,238.67C330.29,239.03 330.58,239.4 330.9,239.67C331.19,239.91 331.49,240.17 331.81,240.24C332.1,240.3 332.44,240.28 332.71,240.12C333.06,239.91 333.35,239.37 333.62,238.85C333.97,238.18 334.24,237.24 334.52,236.35C334.84,235.35 335.12,234.22 335.42,233.12C335.73,231.98 336.03,230.79 336.33,229.62C336.63,228.44 336.93,227.24 337.23,226.05C337.53,224.87 337.84,223.69 338.14,222.52C338.44,221.36 338.74,220.21 339.04,219.04C339.34,217.84 339.65,216.61 339.95,215.4C340.25,214.19 340.54,212.94 340.85,211.76C341.14,210.62 341.44,209.5 341.75,208.43C342.04,207.42 342.35,206.43 342.66,205.49C342.95,204.61 343.25,203.76 343.56,202.95C343.85,202.2 344.15,201.48 344.47,200.81C344.76,200.19 345.06,199.61 345.37,199.06C345.66,198.56 345.96,198.08 346.27,197.65C346.56,197.25 346.87,196.88 347.18,196.55C347.47,196.24 347.77,195.96 348.08,195.71C348.37,195.47 348.68,195.26 348.99,195.07C349.29,194.89 349.59,194.73 349.89,194.59C350.19,194.46 350.49,194.35 350.79,194.26C351.09,194.17 351.4,194.1 351.7,194.05C352,194 352.3,193.96 352.6,193.94C352.9,193.92 353.21,193.91 353.51,193.91C353.81,193.91 354.11,193.92 354.41,193.93C354.71,193.94 355.02,193.96 355.32,193.97C355.62,193.98 355.92,193.98 356.22,193.98C356.52,193.98 356.82,193.97 357.12,193.94C357.42,193.91 357.73,193.87 358.03,193.81C358.33,193.75 358.63,193.68 358.93,193.59C359.23,193.5 359.54,193.4 359.84,193.27C360.14,193.14 360.48,193.1 360.74,192.82C361.15,192.37 361.36,191.31 361.64,190.43C361.97,189.38 362.25,188.07 362.55,186.9C362.85,185.75 363.14,184.59 363.45,183.46C363.75,182.36 364.05,181.27 364.36,180.2C364.66,179.16 364.95,178.14 365.26,177.14C365.55,176.18 365.85,175.24 366.16,174.33C366.46,173.46 366.76,172.61 367.07,171.8C367.36,171.03 367.66,170.29 367.97,169.58C368.26,168.92 368.57,168.28 368.88,167.69C369.17,167.14 369.46,166.61 369.78,166.13C370.07,165.69 370.36,165.28 370.68,164.93C370.97,164.61 371.27,164.32 371.59,164.09C371.88,163.88 372.18,163.71 372.49,163.6C372.78,163.5 373.1,163.44 373.4,163.45C373.7,163.46 374.01,163.53 374.3,163.64C374.61,163.75 374.92,163.93 375.21,164.13C375.52,164.35 375.82,164.62 376.11,164.91C376.42,165.22 376.72,165.57 377.01,165.94C377.32,166.33 377.62,166.75 377.92,167.18C378.23,167.63 378.52,168.1 378.82,168.57C379.13,169.06 379.43,169.56 379.73,170.07C380.03,170.58 380.33,171.1 380.63,171.62C380.93,172.14 381.23,172.66 381.53,173.17C381.83,173.68 382.14,174.18 382.44,174.68C382.74,175.17 383.04,175.66 383.34,176.14C383.64,176.61 383.95,177.06 384.25,177.52C384.55,177.97 384.85,178.42 385.15,178.86C385.45,179.3 385.75,179.73 386.05,180.16C386.35,180.59 386.66,181.02 386.96,181.45C387.26,181.88 387.56,182.32 387.86,182.76C388.16,183.2 388.47,183.65 388.77,184.1C389.07,184.55 389.37,185.01 389.67,185.47C389.97,185.92 390.28,186.38 390.58,186.83C390.88,187.27 391.17,187.71 391.48,188.12C391.77,188.52 392.07,188.89 392.38,189.26C392.68,189.62 392.99,189.95 393.29,190.3C393.59,190.65 393.89,190.99 394.19,191.36C394.5,191.75 394.81,192.14 395.1,192.57C395.41,193.02 395.71,193.49 396,193.99C396.31,194.52 396.61,195.08 396.9,195.66C397.21,196.28 397.52,196.93 397.81,197.6C398.12,198.31 398.42,199.06 398.71,199.83C399.02,200.64 399.32,201.49 399.62,202.35C399.93,203.26 400.23,204.19 400.52,205.15C400.83,206.15 401.12,207.19 401.42,208.24C401.73,209.33 402.03,210.45 402.33,211.59C402.64,212.77 402.93,213.97 403.23,215.19C403.54,216.45 403.84,217.72 404.14,219.02C404.45,220.35 404.74,221.71 405.04,223.07C405.34,224.46 405.65,225.87 405.95,227.29C406.25,228.74 406.55,230.21 406.85,231.68C407.15,233.17 407.45,234.67 407.75,236.18C408.05,237.7 408.36,239.24 408.66,240.78C408.96,242.33 409.26,243.89 409.56,245.44C409.86,246.99 410.17,248.55 410.47,250.1C410.77,251.65 411.07,253.2 411.37,254.74C411.67,256.26 411.97,257.79 412.27,259.29C412.57,260.77 412.87,262.25 413.18,263.7C413.48,265.12 413.77,266.53 414.08,267.91C414.38,269.24 414.68,270.56 414.99,271.83C415.29,273.05 415.58,274.25 415.89,275.4C416.18,276.48 416.47,277.54 416.79,278.53C417.08,279.44 417.38,280.33 417.7,281.14C417.99,281.87 418.27,282.57 418.6,283.18C418.88,283.71 419.18,284.21 419.51,284.6C419.79,284.93 420.09,285.23 420.41,285.39C420.69,285.53 421.02,285.6 421.32,285.57C421.63,285.54 421.94,285.38 422.22,285.19C422.54,284.97 422.83,284.64 423.12,284.3C423.44,283.92 423.74,283.46 424.03,282.99C424.35,282.48 424.64,281.92 424.93,281.34C425.24,280.73 425.54,280.08 425.84,279.42C426.15,278.74 426.44,278.03 426.74,277.32C427.04,276.58 427.34,275.83 427.64,275.07C427.94,274.3 428.25,273.52 428.55,272.73C428.85,271.93 429.15,271.13 429.45,270.32C429.75,269.5 430.06,268.68 430.36,267.85C430.66,267.01 430.96,266.17 431.26,265.32C431.56,264.46 431.86,263.6 432.16,262.74C432.46,261.87 432.77,260.99 433.07,260.11C433.37,259.23 433.67,258.34 433.97,257.46C434.27,256.58 434.58,255.69 434.88,254.81C435.18,253.93 435.48,253.06 435.78,252.19C436.08,251.33 436.38,250.48 436.68,249.64C436.98,248.82 437.28,248 437.59,247.2C437.89,246.42 438.18,245.65 438.49,244.89C438.79,244.15 439.09,243.42 439.4,242.71C439.7,242.02 439.99,241.35 440.3,240.69C440.6,240.05 440.9,239.44 441.21,238.83C441.51,238.24 441.81,237.66 442.11,237.1C442.41,236.55 442.71,236.02 443.01,235.49C443.31,234.97 443.62,234.47 443.92,233.97C444.22,233.48 444.52,232.99 444.82,232.5C445.12,232.01 445.43,231.52 445.73,231.03C446.03,230.53 446.33,230.03 446.63,229.53C446.93,229.03 447.23,228.52 447.53,228.02C447.83,227.51 448.14,227 448.44,226.5C448.74,226.01 449.04,225.51 449.34,225.03C449.64,224.55 449.94,224.08 450.25,223.62C450.55,223.18 450.84,222.74 451.15,222.32C451.45,221.92 451.74,221.52 452.05,221.15C452.35,220.79 452.65,220.44 452.96,220.11C453.26,219.8 453.55,219.5 453.86,219.22C454.16,218.95 454.46,218.7 454.77,218.47C455.07,218.25 455.36,218.04 455.67,217.85C455.97,217.67 456.27,217.5 456.58,217.35C456.88,217.2 457.18,217.07 457.48,216.96C457.78,216.85 458.08,216.75 458.38,216.67C458.68,216.59 458.99,216.52 459.29,216.46C459.59,216.4 459.89,216.35 460.19,216.31C460.49,216.27 460.8,216.24 461.1,216.22Q461.4,216.2 462,216.17" style="vector-effect: non-scaling-stroke; fill: none; stroke: rgb(231, 107, 243); stroke-opacity: 1; stroke-width: 2px; opacity: 1;"/></g><g class="points"/><g class="text"/></g></g></g><g class="overplot"/><path class="xlines-above crisp" d="M0,0" style="fill: none;"/><path class="ylines-above crisp" d="M0,0" style="fill: none;"/><g class="overlines-above"/><g class="xaxislayer-above"><g class="xtick"><text text-anchor="middle" x="0" y="433" transform="translate(80,0)" style="font-family: 'Open Sans', verdana, arial, sans-serif; font-size: 12px; fill: rgb(42, 63, 95); fill-opacity: 1; white-space: pre;">0</text></g><g class="xtick"><text text-anchor="middle" x="0" y="433" transform="translate(170.23000000000002,0)" style="font-family: 'Open Sans', verdana, arial, sans-serif; font-size: 12px; fill: rgb(42, 63, 95); fill-opacity: 1; white-space: pre;">100</text></g><g class="xtick"><text text-anchor="middle" x="0" y="433" transform="translate(260.47,0)" style="font-family: 'Open Sans', verdana, arial, sans-serif; font-size: 12px; fill: rgb(42, 63, 95); fill-opacity: 1; white-space: pre;">200</text></g><g class="xtick"><text text-anchor="middle" x="0" y="433" transform="translate(350.7,0)" style="font-family: 'Open Sans', verdana, arial, sans-serif; font-size: 12px; fill: rgb(42, 63, 95); fill-opacity: 1; white-space: pre;">300</text></g><g class="xtick"><text text-anchor="middle" x="0" y="433" transform="translate(440.94,0)" style="font-family: 'Open Sans', verdana, arial, sans-serif; font-size: 12px; fill: rgb(42, 63, 95); fill-opacity: 1; white-space: pre;">400</text></g><g class="xtick"><text text-anchor="middle" x="0" y="433" transform="translate(531.1700000000001,0)" style="font-family: 'Open Sans', verdana, arial, sans-serif; font-size: 12px; fill: rgb(42, 63, 95); fill-opacity: 1; white-space: pre;">500</text></g></g><g class="yaxislayer-above"><g class="ytick"><text text-anchor="end" x="79" y="4.199999999999999" transform="translate(0,392.92)" style="font-family: 'Open Sans', verdana, arial, sans-serif; font-size: 12px; fill: rgb(42, 63, 95); fill-opacity: 1; white-space: pre;">500</text></g><g class="ytick"><text text-anchor="end" x="79" y="4.199999999999999" transform="translate(0,328.31)" style="font-family: 'Open Sans', verdana, arial, sans-serif; font-size: 12px; fill: rgb(42, 63, 95); fill-opacity: 1; white-space: pre;">1000</text></g><g class="ytick"><text text-anchor="end" x="79" y="4.199999999999999" transform="translate(0,263.7)" style="font-family: 'Open Sans', verdana, arial, sans-serif; font-size: 12px; fill: rgb(42, 63, 95); fill-opacity: 1; white-space: pre;">1500</text></g><g class="ytick"><text text-anchor="end" x="79" y="4.199999999999999" transform="translate(0,199.09)" style="font-family: 'Open Sans', verdana, arial, sans-serif; font-size: 12px; fill: rgb(42, 63, 95); fill-opacity: 1; white-space: pre;">2000</text></g><g class="ytick"><text text-anchor="end" x="79" y="4.199999999999999" transform="translate(0,134.48)" style="font-family: 'Open Sans', verdana, arial, sans-serif; font-size: 12px; fill: rgb(42, 63, 95); fill-opacity: 1; white-space: pre;">2500</text></g></g><g class="overaxes-above"/></g></g><g class="polarlayer"/><g class="ternarylayer"/><g class="geolayer"/><g class="funnelarealayer"/><g class="pielayer"/><g class="treemaplayer"/><g class="sunburstlayer"/><g class="glimages"/><defs id="topdefs-b08863"><g class="clips"/><clipPath id="legendb08863"><rect width="137" height="67" x="0" y="0"/></clipPath></defs><g class="layer-above"><g class="imagelayer"/><g class="shapelayer"/></g><g class="infolayer"><g class="legend" pointer-events="all" transform="translate(551.24, 100)"><rect class="bg" shape-rendering="crispEdges" width="137" height="67" x="0" y="0" style="stroke: rgb(68, 68, 68); stroke-opacity: 1; fill: rgb(255, 255, 255); fill-opacity: 1; stroke-width: 0px;"/><g class="scrollbox" transform="translate(0, 0)" clip-path="url('#legendb08863')"><g class="groups"><g class="traces" transform="translate(0, 14.5)" style="opacity: 1;"><text class="legendtext" text-anchor="start" x="40" y="4.680000000000001" style="font-family: 'Open Sans', verdana, arial, sans-serif; font-size: 12px; fill: rgb(42, 63, 95); fill-opacity: 1; white-space: pre;">Average Class I</text><g class="layers" style="opacity: 1;"><g class="legendfill"/><g class="legendlines"><path class="js-line" d="M5,0h30" style="fill: none; stroke: rgb(0, 100, 80); stroke-opacity: 1; stroke-width: 2px;"/></g><g class="legendsymbols"><g class="legendpoints"/></g></g><rect class="legendtoggle" x="0" y="-9.5" width="131.15625" height="19" style="fill: rgb(0, 0, 0); fill-opacity: 0;"/></g><g class="traces" transform="translate(0, 33.5)" style="opacity: 1;"><text class="legendtext" text-anchor="start" x="40" y="4.680000000000001" style="font-family: 'Open Sans', verdana, arial, sans-serif; font-size: 12px; fill: rgb(42, 63, 95); fill-opacity: 1; white-space: pre;">Average Class II</text><g class="layers" style="opacity: 1;"><g class="legendfill"/><g class="legendlines"><path class="js-line" d="M5,0h30" style="fill: none; stroke: rgb(0, 176, 246); stroke-opacity: 1; stroke-width: 2px;"/></g><g class="legendsymbols"><g class="legendpoints"/></g></g><rect class="legendtoggle" x="0" y="-9.5" width="131.15625" height="19" style="fill: rgb(0, 0, 0); fill-opacity: 0;"/></g><g class="traces" transform="translate(0, 52.5)" style="opacity: 1;"><text class="legendtext" text-anchor="start" x="40" y="4.680000000000001" style="font-family: 'Open Sans', verdana, arial, sans-serif; font-size: 12px; fill: rgb(42, 63, 95); fill-opacity: 1; white-space: pre;">Average Class III</text><g class="layers" style="opacity: 1;"><g class="legendfill"/><g class="legendlines"><path class="js-line" d="M5,0h30" style="fill: none; stroke: rgb(231, 107, 243); stroke-opacity: 1; stroke-width: 2px;"/></g><g class="legendsymbols"><g class="legendpoints"/></g></g><rect class="legendtoggle" x="0" y="-9.5" width="131.15625" height="19" style="fill: rgb(0, 0, 0); fill-opacity: 0;"/></g></g></g><rect class="scrollbar" rx="20" ry="3" width="0" height="0" x="0" y="0" style="fill: rgb(128, 139, 164); fill-opacity: 1;"/></g><g class="g-gtitle"><text class="gtitle" x="35" y="50" text-anchor="start" dy="0em" style="font-family: 'Open Sans', verdana, arial, sans-serif; font-size: 17px; fill: rgb(42, 63, 95); opacity: 1; font-weight: normal; white-space: pre;">Average curve: hydropathy_group</text></g><g class="g-xtitle"><text class="xtitle" x="311" y="460.8" text-anchor="middle" style="font-family: 'Open Sans', verdana, arial, sans-serif; font-size: 14px; fill: rgb(42, 63, 95); opacity: 1; font-weight: normal; white-space: pre;">Domain</text></g><g class="g-ytitle"><text class="ytitle" transform="rotate(-90,27.496875000000003,260)" x="27.496875000000003" y="260" text-anchor="middle" style="font-family: 'Open Sans', verdana, arial, sans-serif; font-size: 14px; fill: rgb(42, 63, 95); opacity: 1; font-weight: normal; white-space: pre;">Frequency</text></g></g></svg>