<svg class="main-svg" xmlns="http://www.w3.org/2000/svg" xmlns:xlink="http://www.w3.org/1999/xlink" width="700" height="500" style="" viewBox="0 0 700 500"><rect x="0" y="0" width="700" height="500" style="fill: rgb(255, 255, 255); fill-opacity: 1;"/><defs id="defs-fe449c"><g class="clips"><clipPath id="clipfe449cxyplot" class="plotclip"><rect width="462" height="320"/></clipPath><clipPath class="axesclip" id="clipfe449cx"><rect x="80" y="0" width="462" height="500"/></clipPath><clipPath class="axesclip" id="clipfe449cy"><rect x="0" y="100" width="700" height="320"/></clipPath><clipPath class="axesclip" id="clipfe449cxy"><rect x="80" y="100" width="462" height="320"/></clipPath></g><g class="gradients"/></defs><g class="bglayer"><rect class="bg" x="80" y="100" width="462" height="320" style="fill: rgb(229, 236, 246); fill-opacity: 1; stroke-width: 0;"/></g><g class="layer-below"><g class="imagelayer"/><g class="shapelayer"/></g><g class="cartesianlayer"><g class="subplot xy"><g class="layer-subplot"><g class="shapelayer"/><g class="imagelayer"/></g><g class="gridlayer"><g class="x"><path class="xgrid crisp" transform="translate(170.23000000000002,0)" d="M0,100v320" style="stroke: rgb(255, 255, 255); stroke-opacity: 1; stroke-width: 1px;"/><path class="xgrid crisp" transform="translate(260.47,0)" d="M0,100v320" style="stroke: rgb(255, 255, 255); stroke-opacity: 1; stroke-width: 1px;"/><path class="xgrid crisp" transform="translate(350.7,0)" d="M0,100v320" style="stroke: rgb(255, 255, 255); stroke-opacity: 1; stroke-width: 1px;"/><path class="xgrid crisp" transform="translate(440.94,0)" d="M0,100v320" style="stroke: rgb(255, 255, 255); stroke-opacity: 1; stroke-width: 1px;"/><path class="xgrid crisp" transform="translate(531.1700000000001,0)" d="M0,100v320" style="stroke: rgb(255, 255, 255); stroke-opacity: 1; stroke-width: 1px;"/></g><g class="y"><path class="ygrid crisp" transform="translate(0,373.22)" d="M80,0h462" style="stroke: rgb(255, 255, 255); stroke-opacity: 1; stroke-width: 1px;"/><path class="ygrid crisp" transform="translate(0,306.13)" d="M80,0h462" style="stroke: rgb(255, 255, 255); stroke-opacity: 1; stroke-width: 1px;"/><path class="ygrid crisp" transform="translate(0,239.03)" d="M80,0h462" style="stroke: rgb(255, 255, 255); stroke-opacity: 1; stroke-width: 1px;"/><path class="ygrid crisp" transform="translate(0,171.94)" d="M80,0h462" style="stroke: rgb(255, 255, 255); stroke-opacity: 1; stroke-width: 1px;"/><path class="ygrid crisp" transform="translate(0,104.85)" d="M80,0h462" style="stroke: rgb(255, 255, 255); stroke-opacity: 1; stroke-width: 1px;"/></g></g><g class="zerolinelayer"><path class="xzl zl crisp" transform="translate(80,0)" d="M0,100v320" style="stroke: rgb(255, 255, 255); stroke-opacity: 1; stroke-width: 2px;"/></g><path class="xlines-below"/><path class="ylines-below"/><g class="overlines-below"/><g class="xaxislayer-below"/><g class="yaxislayer-below"/><g class="overaxes-below"/><g class="plot" transform="translate(80, 100)" clip-path="url('#clipfe449cxyplot')"><g class="scatterlayer mlayer"><g class="trace scatter trace1c1dca" style="stroke-miterlimit: 2; opacity: 1;"><g class="fills"/><g class="errorbars"/><g class="lines"><path class="js-line" d="M0,65.83Q0.6,65.88 0.9,65.96C1.21,66.04 1.52,66.17 1.81,66.33C2.12,66.5 2.42,66.73 2.71,66.99C3.03,67.27 3.33,67.6 3.62,67.96C3.94,68.36 4.23,68.8 4.52,69.28C4.84,69.81 5.13,70.39 5.42,71C5.74,71.68 6.04,72.41 6.33,73.18C6.65,74.02 6.94,74.93 7.23,75.87C7.55,76.9 7.85,77.99 8.14,79.12C8.45,80.35 8.75,81.64 9.04,82.98C9.35,84.42 9.66,85.93 9.95,87.48C10.26,89.14 10.56,90.87 10.85,92.65C11.16,94.54 11.46,96.49 11.75,98.5C12.06,100.62 12.37,102.81 12.66,105.05C12.97,107.4 13.26,109.82 13.56,112.28C13.87,114.85 14.17,117.49 14.47,120.17C14.78,122.95 15.07,125.79 15.37,128.67C15.67,131.64 15.97,134.67 16.27,137.73C16.58,140.86 16.88,144.04 17.18,147.24C17.48,150.49 17.78,153.79 18.08,157.08C18.38,160.38 18.69,163.73 18.99,167.02C19.29,170.27 19.58,173.55 19.89,176.69C20.18,179.67 20.47,182.68 20.79,185.39C21.07,187.77 21.36,190.09 21.7,192.1C21.98,193.75 22.23,195.36 22.6,196.59C22.87,197.49 23.11,198.4 23.51,198.86C23.77,199.16 24.11,199.37 24.41,199.38C24.71,199.39 25.05,199.17 25.32,198.92C25.67,198.61 25.94,198.07 26.22,197.53C26.56,196.87 26.84,196.05 27.12,195.22C27.44,194.27 27.74,193.21 28.03,192.13C28.35,190.95 28.64,189.7 28.93,188.42C29.24,187.07 29.54,185.66 29.84,184.23C30.15,182.73 30.45,181.22 30.74,179.61C31.05,177.85 31.35,175.98 31.64,174.09C31.95,172.1 32.25,170.02 32.55,167.95C32.86,165.83 33.15,163.68 33.45,161.52C33.75,159.33 34.06,157.12 34.36,154.92C34.66,152.72 34.96,150.49 35.26,148.31C35.56,146.16 35.85,144.01 36.16,141.92C36.46,139.89 36.76,137.88 37.07,135.94C37.36,134.09 37.66,132.26 37.97,130.51C38.26,128.86 38.57,127.24 38.88,125.71C39.17,124.29 39.46,122.92 39.78,121.63C40.07,120.45 40.36,119.32 40.68,118.28C40.97,117.36 41.26,116.48 41.59,115.7C41.87,115.03 42.16,114.39 42.49,113.87C42.77,113.44 43.07,113.03 43.4,112.76C43.68,112.54 43.99,112.36 44.3,112.31C44.6,112.26 44.92,112.32 45.21,112.42C45.52,112.53 45.82,112.74 46.11,112.95C46.42,113.18 46.71,113.47 47.01,113.75C47.32,114.04 47.62,114.35 47.92,114.66C48.22,114.97 48.52,115.29 48.82,115.62C49.13,115.96 49.44,116.29 49.73,116.67C50.04,117.07 50.34,117.48 50.63,117.95C50.95,118.46 51.24,119.02 51.53,119.63C51.85,120.31 52.15,121.05 52.44,121.84C52.76,122.72 53.05,123.68 53.34,124.68C53.66,125.79 53.96,126.98 54.25,128.22C54.57,129.58 54.86,131.01 55.15,132.5C55.46,134.1 55.76,135.79 56.05,137.52C56.36,139.37 56.67,141.3 56.96,143.28C57.27,145.37 57.57,147.53 57.86,149.74C58.17,152.06 58.47,154.45 58.77,156.88C59.08,159.41 59.37,162.01 59.67,164.64C59.98,167.36 60.28,170.15 60.58,172.96C60.89,175.85 61.18,178.8 61.48,181.77C61.78,184.81 62.08,187.89 62.38,190.98C62.68,194.12 62.99,197.3 63.29,200.48C63.59,203.69 63.89,206.93 64.19,210.16C64.49,213.39 64.8,216.65 65.1,219.87C65.4,223.07 65.7,226.28 66,229.43C66.3,232.52 66.59,235.67 66.9,238.62C67.19,241.36 67.49,244.01 67.81,246.53C68.1,248.83 68.38,251.13 68.71,253.14C68.99,254.83 69.25,256.53 69.62,257.79C69.89,258.69 70.11,259.62 70.52,260.03C70.78,260.29 71.15,260.48 71.42,260.4C71.77,260.3 72.06,259.65 72.33,259.11C72.69,258.38 72.95,257.37 73.23,256.35C73.56,255.13 73.85,253.71 74.14,252.26C74.46,250.62 74.75,248.83 75.04,246.99C75.36,244.99 75.66,242.86 75.95,240.7C76.26,238.41 76.55,236.01 76.85,233.6C77.15,231.12 77.45,228.56 77.75,226.02C78.05,223.46 78.36,220.86 78.66,218.3C78.96,215.76 79.26,213.22 79.56,210.72C79.86,208.27 80.16,205.84 80.47,203.45C80.77,201.13 81.06,198.83 81.37,196.58C81.67,194.4 81.96,192.26 82.27,190.15C82.57,188.11 82.87,186.08 83.18,184.12C83.48,182.24 83.77,180.38 84.08,178.6C84.37,176.92 84.68,175.28 84.99,173.72C85.28,172.28 85.57,170.89 85.89,169.59C86.18,168.41 86.47,167.28 86.79,166.25C87.07,165.34 87.37,164.47 87.7,163.73C87.98,163.1 88.26,162.5 88.6,162.05C88.88,161.69 89.18,161.33 89.51,161.19C89.79,161.07 90.13,161.06 90.41,161.15C90.73,161.26 91.04,161.57 91.32,161.88C91.66,162.26 91.94,162.8 92.22,163.34C92.55,163.97 92.83,164.71 93.12,165.47C93.44,166.32 93.74,167.25 94.03,168.21C94.34,169.24 94.64,170.34 94.93,171.46C95.24,172.64 95.54,173.88 95.84,175.13C96.15,176.43 96.44,177.77 96.74,179.12C97.04,180.51 97.34,181.93 97.64,183.35C97.94,184.8 98.25,186.27 98.55,187.75C98.85,189.24 99.15,190.74 99.45,192.25C99.75,193.77 100.06,195.31 100.36,196.84C100.66,198.38 100.96,199.94 101.26,201.48C101.56,203.02 101.86,204.57 102.16,206.1C102.46,207.61 102.76,209.12 103.07,210.6C103.37,212.04 103.66,213.48 103.97,214.87C104.27,216.2 104.57,217.52 104.88,218.76C105.17,219.92 105.46,221.06 105.78,222.09C106.06,222.99 106.34,223.89 106.68,224.6C106.96,225.18 107.23,225.77 107.59,226.09C107.86,226.33 108.19,226.53 108.49,226.51C108.8,226.49 109.12,226.2 109.4,225.92C109.74,225.57 110.02,225.02 110.3,224.49C110.62,223.89 110.92,223.18 111.21,222.48C111.52,221.74 111.81,220.94 112.11,220.15C112.41,219.34 112.71,218.51 113.01,217.69C113.31,216.86 113.62,216.03 113.92,215.19C114.22,214.35 114.52,213.51 114.82,212.67C115.12,211.83 115.42,210.98 115.73,210.16C116.03,209.38 116.32,208.6 116.63,207.87C116.92,207.18 117.21,206.51 117.53,205.9C117.82,205.34 118.12,204.8 118.44,204.33C118.73,203.9 119.02,203.5 119.34,203.17C119.63,202.88 119.93,202.61 120.25,202.43C120.54,202.27 120.85,202.14 121.15,202.1C121.45,202.06 121.76,202.08 122.05,202.16C122.36,202.24 122.67,202.4 122.96,202.59C123.28,202.8 123.57,203.07 123.86,203.37C124.18,203.69 124.48,204.07 124.77,204.47C125.08,204.9 125.38,205.39 125.67,205.88C125.98,206.41 126.27,207 126.58,207.54C126.88,208.07 127.15,208.68 127.48,209.11C127.76,209.47 128.08,209.7 128.38,210.01C128.69,210.33 128.99,210.65 129.29,210.99C129.59,211.33 129.89,211.69 130.19,212.04C130.49,212.39 130.79,212.75 131.1,213.07C131.39,213.37 131.69,213.66 132,213.91C132.29,214.14 132.59,214.33 132.9,214.51C133.2,214.69 133.51,214.83 133.81,214.98C134.11,215.13 134.41,215.27 134.71,215.42C135.01,215.57 135.32,215.72 135.62,215.88C135.92,216.04 136.22,216.21 136.52,216.38C136.82,216.55 137.12,216.72 137.42,216.9C137.72,217.08 138.03,217.27 138.33,217.45C138.63,217.63 138.93,217.82 139.23,218C139.53,218.18 139.84,218.37 140.14,218.55C140.44,218.73 140.74,218.91 141.04,219.09C141.34,219.27 141.65,219.46 141.95,219.65C142.25,219.84 142.55,220.02 142.85,220.21C143.15,220.39 143.45,220.58 143.75,220.76C144.05,220.94 144.35,221.13 144.66,221.29C144.96,221.45 145.26,221.6 145.56,221.73C145.86,221.86 146.16,221.97 146.47,222.06C146.77,222.15 147.07,222.2 147.37,222.26C147.67,222.31 147.97,222.34 148.27,222.39C148.57,222.44 148.88,222.47 149.18,222.56C149.48,222.65 149.79,222.75 150.08,222.91C150.39,223.08 150.7,223.29 150.99,223.55C151.31,223.84 151.61,224.19 151.89,224.58C152.21,225.01 152.5,225.52 152.79,226.05C153.11,226.64 153.41,227.29 153.7,227.96C154.02,228.69 154.31,229.48 154.6,230.28C154.91,231.13 155.21,232.02 155.51,232.91C155.82,233.82 156.11,234.77 156.41,235.7C156.71,236.63 157.02,237.55 157.32,238.47C157.62,239.38 157.92,240.29 158.22,241.19C158.52,242.08 158.81,242.99 159.12,243.83C159.41,244.6 159.71,245.36 160.03,246.04C160.32,246.64 160.61,247.2 160.93,247.7C161.22,248.14 161.52,248.54 161.84,248.89C162.13,249.21 162.42,249.53 162.74,249.73C163.02,249.91 163.34,250.06 163.64,250.09C163.94,250.12 164.25,250.01 164.55,249.9C164.86,249.79 165.16,249.62 165.45,249.43C165.76,249.23 166.07,249.01 166.36,248.72C166.68,248.4 166.96,247.95 167.26,247.56C167.56,247.16 167.88,246.8 168.16,246.33C168.49,245.78 168.77,245.07 169.07,244.45C169.37,243.84 169.66,243.24 169.97,242.66C170.27,242.11 170.58,241.6 170.88,241.06C171.18,240.52 171.49,240 171.78,239.42C172.09,238.78 172.4,238.12 172.68,237.37C173.01,236.5 173.3,235.52 173.59,234.5C173.91,233.36 174.19,232.09 174.49,230.84C174.8,229.54 175.11,228.25 175.4,226.86C175.72,225.34 176.01,223.74 176.3,222.07C176.62,220.23 176.91,218.23 177.21,216.28C177.51,214.3 177.81,212.27 178.11,210.29C178.41,208.33 178.7,206.37 179.01,204.45C179.31,202.57 179.61,200.7 179.92,198.87C180.22,197.09 180.51,195.33 180.82,193.6C181.12,191.93 181.42,190.29 181.73,188.68C182.03,187.13 182.32,185.61 182.63,184.13C182.92,182.71 183.22,181.33 183.53,179.98C183.82,178.7 184.13,177.44 184.44,176.23C184.73,175.09 185.03,173.98 185.34,172.91C185.63,171.91 185.94,170.94 186.25,170C186.54,169.1 186.85,168.27 187.15,167.39C187.45,166.49 187.75,165.59 188.05,164.67C188.35,163.73 188.65,162.74 188.96,161.82C189.25,160.95 189.54,160.09 189.86,159.29C190.15,158.55 190.46,157.86 190.77,157.2C191.06,156.59 191.36,156.03 191.67,155.46C191.97,154.91 192.28,154.39 192.58,153.83C192.89,153.26 193.18,152.66 193.48,152.08C193.78,151.5 194.07,150.89 194.38,150.35C194.67,149.85 194.96,149.34 195.29,148.94C195.57,148.59 195.86,148.23 196.19,148.05C196.47,147.89 196.81,147.79 197.1,147.83C197.41,147.87 197.72,148.09 198,148.33C198.34,148.63 198.62,149.09 198.9,149.57C199.23,150.14 199.52,150.82 199.81,151.53C200.13,152.33 200.42,153.22 200.71,154.14C201.03,155.15 201.33,156.23 201.62,157.35C201.93,158.56 202.23,159.83 202.52,161.14C202.83,162.54 203.13,164 203.42,165.5C203.73,167.09 204.04,168.74 204.33,170.43C204.64,172.21 204.93,174.04 205.23,175.91C205.54,177.86 205.84,179.87 206.14,181.91C206.45,184.02 206.74,186.18 207.04,188.37C207.35,190.62 207.65,192.91 207.95,195.22C208.25,197.57 208.55,199.97 208.85,202.36C209.15,204.78 209.45,207.23 209.75,209.67C210.05,212.12 210.36,214.6 210.66,217.05C210.96,219.48 211.25,221.92 211.56,224.3C211.86,226.6 212.15,228.93 212.47,231.09C212.76,233.07 213.05,235.01 213.37,236.77C213.65,238.3 213.93,239.8 214.27,241.05C214.55,242.05 214.79,243.07 215.18,243.7C215.44,244.12 215.76,244.57 216.08,244.62C216.37,244.67 216.72,244.42 216.99,244.17C217.35,243.83 217.62,243.22 217.89,242.62C218.23,241.88 218.5,240.97 218.79,240.05C219.11,239.02 219.41,237.89 219.7,236.74C220.01,235.51 220.31,234.21 220.6,232.89C220.91,231.49 221.21,230.02 221.51,228.55C221.82,227.03 222.11,225.45 222.41,223.89C222.71,222.31 223.02,220.71 223.32,219.14C223.62,217.58 223.92,216.02 224.22,214.49C224.52,212.99 224.81,211.5 225.12,210.03C225.42,208.6 225.73,207.19 226.03,205.79C226.33,204.42 226.63,203.07 226.93,201.72C227.23,200.38 227.54,199.06 227.84,197.72C228.14,196.37 228.45,195.03 228.74,193.64C229.05,192.2 229.35,190.78 229.64,189.24C229.96,187.54 230.26,185.71 230.55,183.87C230.86,181.94 231.15,179.92 231.45,177.92C231.75,175.88 232.06,173.8 232.36,171.73C232.66,169.65 232.96,167.55 233.26,165.46C233.56,163.38 233.86,161.29 234.16,159.23C234.46,157.2 234.77,155.17 235.07,153.17C235.37,151.2 235.66,149.25 235.97,147.32C236.27,145.43 236.58,143.57 236.88,141.73C237.18,139.93 237.48,138.15 237.78,136.38C238.08,134.64 238.38,132.92 238.68,131.19C238.98,129.47 239.29,127.77 239.59,126.04C239.89,124.28 240.2,122.54 240.49,120.71C240.8,118.79 241.11,116.84 241.4,114.78C241.71,112.55 242.01,110.2 242.3,107.81C242.61,105.28 242.91,102.63 243.21,99.99C243.52,97.27 243.81,94.49 244.11,91.72C244.41,88.94 244.71,86.12 245.01,83.34C245.31,80.58 245.62,77.81 245.92,75.09C246.22,72.43 246.51,69.78 246.82,67.18C247.12,64.66 247.42,62.16 247.73,59.72C248.03,57.36 248.32,55.04 248.63,52.77C248.92,50.59 249.22,48.44 249.53,46.35C249.83,44.35 250.13,42.38 250.44,40.47C250.73,38.65 251.03,36.87 251.34,35.14C251.63,33.5 251.94,31.9 252.25,30.36C252.54,28.92 252.84,27.51 253.15,26.17C253.44,24.94 253.73,23.74 254.05,22.63C254.34,21.62 254.63,20.65 254.96,19.78C255.24,19.02 255.52,18.29 255.86,17.69C256.14,17.19 256.43,16.69 256.77,16.41C257.04,16.18 257.37,15.99 257.67,16C257.98,16.01 258.31,16.25 258.58,16.51C258.93,16.85 259.21,17.42 259.48,17.99C259.82,18.69 260.1,19.55 260.38,20.45C260.71,21.5 261,22.69 261.29,23.93C261.61,25.33 261.9,26.85 262.19,28.43C262.51,30.17 262.81,32.02 263.1,33.93C263.41,36 263.71,38.18 264,40.41C264.31,42.8 264.61,45.29 264.9,47.83C265.21,50.52 265.51,53.3 265.81,56.13C266.12,59.1 266.41,62.15 266.71,65.25C267.02,68.47 267.32,71.77 267.62,75.11C267.93,78.55 268.22,82.07 268.52,85.61C268.82,89.25 269.12,92.94 269.42,96.66C269.72,100.45 270.03,104.29 270.33,108.14C270.63,112.04 270.93,115.98 271.23,119.91C271.53,123.87 271.84,127.85 272.14,131.82C272.44,135.79 272.74,139.77 273.04,143.72C273.34,147.64 273.65,151.55 273.95,155.42C274.25,159.23 274.55,163.03 274.85,166.76C275.15,170.4 275.44,174.03 275.75,177.53C276.05,180.87 276.34,184.25 276.66,187.33C276.95,190.07 277.18,192.99 277.56,195.1C277.82,196.58 278.14,197.72 278.47,198.83C278.75,199.76 279.04,200.62 279.37,201.35C279.65,201.95 279.89,202.7 280.27,202.94C280.54,203.11 280.9,203.13 281.18,203.01C281.52,202.86 281.8,202.32 282.08,201.91C282.4,201.44 282.71,200.9 282.99,200.31C283.32,199.63 283.6,198.81 283.89,198.02C284.2,197.18 284.48,196.26 284.79,195.4C285.09,194.57 285.39,193.74 285.7,192.96C285.99,192.24 286.28,191.53 286.6,190.89C286.89,190.31 287.2,189.79 287.51,189.29C287.8,188.83 288.11,188.43 288.41,188.01C288.71,187.6 288.99,187.1 289.32,186.8C289.6,186.55 289.91,186.32 290.22,186.27C290.51,186.22 290.84,186.32 291.12,186.46C291.45,186.63 291.75,186.95 292.03,187.29C292.36,187.68 292.64,188.2 292.93,188.72C293.25,189.31 293.55,189.97 293.84,190.66C294.16,191.41 294.45,192.23 294.74,193.07C295.05,193.97 295.35,194.93 295.64,195.91C295.95,196.95 296.25,198.03 296.55,199.13C296.86,200.28 297.15,201.48 297.45,202.68C297.76,203.92 298.06,205.2 298.36,206.47C298.66,207.76 298.96,209.09 299.26,210.39C299.56,211.68 299.85,212.99 300.16,214.24C300.45,215.43 300.73,216.7 301.07,217.72C301.35,218.55 301.61,219.87 301.97,219.93C302.24,219.98 302.62,219.4 302.88,218.9C303.32,218.04 303.51,216.4 303.78,214.93C304.12,213.11 304.39,210.9 304.68,208.76C304.99,206.46 305.29,204.02 305.59,201.59C305.9,199.08 306.19,196.5 306.49,193.93C306.79,191.32 307.1,188.71 307.4,186.05C307.71,183.32 308,180.55 308.3,177.74C308.61,174.83 308.91,171.82 309.21,168.88C309.51,165.96 309.81,163.04 310.11,160.14C310.41,157.27 310.71,154.41 311.01,151.57C311.31,148.77 311.62,145.99 311.92,143.23C312.22,140.52 312.52,137.82 312.82,135.15C313.12,132.53 313.42,129.94 313.73,127.38C314.03,124.88 314.32,122.4 314.63,119.98C314.93,117.64 315.22,115.32 315.53,113.07C315.83,110.92 316.13,108.8 316.44,106.76C316.73,104.83 317.03,102.94 317.34,101.13C317.63,99.44 317.93,97.8 318.25,96.25C318.54,94.83 318.83,93.47 319.15,92.2C319.44,91.06 319.72,89.97 320.05,88.99C320.33,88.14 320.62,87.33 320.96,86.66C321.24,86.11 321.51,85.57 321.86,85.23C322.13,84.96 322.46,84.71 322.77,84.68C323.06,84.65 323.4,84.81 323.67,85.01C324.01,85.26 324.3,85.73 324.58,86.2C324.92,86.77 325.2,87.49 325.48,88.23C325.81,89.09 326.09,90.06 326.38,91.06C326.7,92.18 327,93.39 327.29,94.65C327.61,96.02 327.9,97.48 328.19,98.97C328.5,100.57 328.81,102.25 329.1,103.97C329.41,105.79 329.71,107.68 330,109.61C330.31,111.63 330.6,113.71 330.9,115.83C331.21,118.04 331.51,120.3 331.81,122.59C332.12,124.96 332.41,127.39 332.71,129.84C333.02,132.36 333.32,134.93 333.62,137.52C333.93,140.17 334.22,142.87 334.52,145.56C334.82,148.28 335.12,151.03 335.42,153.76C335.72,156.49 336.03,159.21 336.33,161.96C336.63,164.73 336.93,167.51 337.23,170.3C337.53,173.12 337.84,175.96 338.14,178.8C338.44,181.66 338.74,184.54 339.04,187.41C339.34,190.28 339.65,193.16 339.95,196.03C340.25,198.89 340.55,201.75 340.85,204.59C341.15,207.39 341.44,210.23 341.75,212.94C342.04,215.52 342.35,218.05 342.66,220.5C342.95,222.83 343.25,225.09 343.56,227.29C343.85,229.38 344.16,231.4 344.47,233.38C344.76,235.27 345.06,237.12 345.37,238.91C345.66,240.6 345.94,242.33 346.27,243.85C346.55,245.18 346.85,246.42 347.18,247.56C347.46,248.55 347.77,249.44 348.08,250.32C348.37,251.14 348.68,251.91 348.99,252.66C349.28,253.37 349.58,254.06 349.89,254.73C350.18,255.36 350.48,255.98 350.79,256.56C351.08,257.11 351.39,257.64 351.7,258.13C351.99,258.58 352.28,259.02 352.6,259.4C352.89,259.75 353.19,260.08 353.51,260.34C353.8,260.58 354.1,260.79 354.41,260.94C354.7,261.08 355.01,261.18 355.32,261.22C355.62,261.25 355.93,261.24 356.22,261.16C356.53,261.08 356.83,260.91 357.12,260.71C357.44,260.49 357.74,260.18 358.03,259.85C358.35,259.47 358.64,259.02 358.93,258.54C359.25,258 359.55,257.39 359.84,256.75C360.16,256.05 360.45,255.28 360.74,254.5C361.05,253.67 361.34,252.79 361.64,251.9C361.95,250.97 362.25,250.01 362.55,249.04C362.86,248.05 363.15,247.04 363.45,246.03C363.75,245.01 364.06,243.97 364.36,242.95C364.66,241.93 364.96,240.9 365.26,239.9C365.56,238.92 365.85,237.93 366.16,236.98C366.46,236.08 366.76,235.18 367.07,234.34C367.36,233.55 367.65,232.78 367.97,232.07C368.26,231.42 368.56,230.8 368.88,230.25C369.17,229.77 369.45,229.3 369.78,228.94C370.06,228.63 370.36,228.33 370.68,228.18C370.97,228.04 371.29,227.97 371.59,228C371.9,228.04 372.21,228.2 372.49,228.41C372.82,228.65 373.12,229.03 373.4,229.42C373.73,229.87 374.01,230.42 374.3,230.96C374.61,231.54 374.92,232.15 375.21,232.78C375.52,233.45 375.82,234.14 376.11,234.87C376.42,235.65 376.71,236.47 377.01,237.3C377.32,238.16 377.62,239.05 377.92,239.93C378.22,240.81 378.51,241.71 378.82,242.57C379.12,243.41 379.42,244.25 379.73,245.03C380.02,245.76 380.31,246.48 380.63,247.12C380.91,247.69 381.2,248.26 381.53,248.68C381.81,249.03 382.11,249.39 382.44,249.54C382.72,249.66 383.06,249.7 383.34,249.61C383.67,249.5 383.98,249.18 384.25,248.84C384.6,248.42 384.87,247.81 385.15,247.19C385.48,246.46 385.76,245.61 386.05,244.74C386.37,243.76 386.67,242.69 386.96,241.6C387.27,240.42 387.57,239.19 387.86,237.91C388.17,236.54 388.48,235.12 388.77,233.63C389.08,232.02 389.38,230.32 389.67,228.57C389.98,226.69 390.28,224.71 390.58,222.72C390.89,220.65 391.18,218.52 391.48,216.39C391.78,214.22 392.08,212.03 392.38,209.83C392.68,207.61 392.99,205.36 393.29,203.12C393.59,200.89 393.89,198.64 394.19,196.42C394.49,194.23 394.79,192.04 395.1,189.9C395.4,187.81 395.69,185.75 396,183.73C396.29,181.78 396.59,179.86 396.9,178C397.19,176.23 397.5,174.49 397.81,172.81C398.1,171.23 398.4,169.68 398.71,168.21C399,166.84 399.3,165.5 399.62,164.24C399.91,163.09 400.2,161.97 400.52,160.94C400.81,160.01 401.1,159.12 401.42,158.32C401.7,157.62 402,156.94 402.33,156.38C402.61,155.9 402.9,155.45 403.23,155.12C403.51,154.84 403.82,154.6 404.14,154.49C404.43,154.39 404.75,154.38 405.04,154.45C405.35,154.53 405.67,154.73 405.95,154.97C406.28,155.24 406.57,155.62 406.85,156.03C407.17,156.5 407.46,157.06 407.75,157.65C408.07,158.32 408.37,159.06 408.66,159.84C408.98,160.7 409.27,161.64 409.56,162.59C409.87,163.6 410.17,164.66 410.47,165.73C410.78,166.85 411.08,167.99 411.37,169.17C411.68,170.41 411.97,171.7 412.27,172.99C412.57,174.3 412.88,175.61 413.18,176.95C413.49,178.34 413.78,179.75 414.08,181.19C414.39,182.69 414.69,184.23 414.99,185.8C415.3,187.42 415.59,189.09 415.89,190.77C416.19,192.51 416.49,194.28 416.79,196.07C417.1,197.9 417.4,199.76 417.7,201.63C418,203.53 418.3,205.46 418.6,207.36C418.9,209.25 419.2,211.16 419.51,212.99C419.8,214.73 420.1,216.43 420.41,218.06C420.7,219.57 421.01,220.99 421.32,222.43C421.62,223.84 421.92,225.22 422.22,226.6C422.52,227.97 422.81,229.35 423.12,230.7C423.42,232.02 423.72,233.35 424.03,234.61C424.32,235.81 424.61,236.98 424.93,238.09C425.22,239.11 425.52,240.09 425.84,241.01C426.13,241.86 426.43,242.67 426.74,243.43C427.03,244.13 427.32,244.8 427.64,245.4C427.93,245.94 428.23,246.44 428.55,246.87C428.83,247.25 429.13,247.6 429.45,247.86C429.74,248.09 430.05,248.28 430.36,248.39C430.65,248.49 430.96,248.54 431.26,248.52C431.56,248.5 431.87,248.41 432.16,248.28C432.47,248.14 432.78,247.94 433.07,247.71C433.38,247.46 433.68,247.16 433.97,246.83C434.29,246.47 434.59,246.05 434.88,245.61C435.2,245.12 435.49,244.58 435.78,244.02C436.09,243.42 436.38,242.78 436.68,242.13C436.99,241.45 437.29,240.75 437.59,240.04C437.89,239.32 438.19,238.58 438.49,237.85C438.79,237.11 439.1,236.36 439.4,235.61C439.7,234.86 440,234.1 440.3,233.34C440.6,232.58 440.91,231.82 441.21,231.06C441.51,230.3 441.81,229.54 442.11,228.78C442.41,228.02 442.71,227.27 443.01,226.52C443.31,225.78 443.62,225.05 443.92,224.32C444.22,223.6 444.52,222.89 444.82,222.19C445.12,221.5 445.43,220.82 445.73,220.15C446.03,219.49 446.33,218.85 446.63,218.21C446.93,217.59 447.23,216.97 447.53,216.37C447.83,215.78 448.13,215.2 448.44,214.63C448.74,214.07 449.03,213.52 449.34,212.99C449.64,212.47 449.94,211.96 450.25,211.46C450.55,210.97 450.85,210.49 451.15,210.02C451.45,209.57 451.74,209.12 452.05,208.69C452.35,208.27 452.65,207.85 452.96,207.45C453.26,207.07 453.55,206.7 453.86,206.34C454.16,205.99 454.46,205.66 454.77,205.34C455.07,205.04 455.36,204.75 455.67,204.48C455.97,204.22 456.27,203.99 456.58,203.77C456.88,203.56 457.17,203.37 457.48,203.2C457.77,203.04 458.08,202.9 458.38,202.79C458.68,202.68 458.99,202.59 459.29,202.52C459.59,202.45 459.89,202.41 460.19,202.38C460.49,202.35 460.8,202.35 461.1,202.34Q461.4,202.33 462,202.34" style="vector-effect: non-scaling-stroke; fill: none; stroke: rgb(0, 100, 80); stroke-opacity: 1; stroke-width: 2px; opacity: 1;"/></g><g class="points"/><g class="text"/></g><g class="trace scatter tracef11bbb" style="stroke-miterlimit: 2; opacity: 1;"><g class="fills"/><g class="errorbars"/><g class="lines"><path class="js-line" d="M0,132.07Q0.62,132.19 0.9,132.36C1.23,132.55 1.53,132.88 1.81,133.23C2.14,133.63 2.43,134.14 2.71,134.67C3.03,135.27 3.33,135.95 3.62,136.66C3.94,137.44 4.23,138.3 4.52,139.18C4.83,140.13 5.13,141.15 5.42,142.19C5.73,143.31 6.04,144.48 6.33,145.67C6.64,146.93 6.93,148.23 7.23,149.55C7.54,150.93 7.84,152.35 8.14,153.79C8.45,155.27 8.74,156.78 9.04,158.3C9.34,159.85 9.65,161.43 9.95,163C10.25,164.59 10.55,166.2 10.85,167.79C11.15,169.38 11.45,170.99 11.75,172.56C12.05,174.1 12.35,175.65 12.66,177.14C12.96,178.57 13.25,179.98 13.56,181.33C13.85,182.59 14.16,183.81 14.47,184.99C14.76,186.11 15.06,187.18 15.37,188.24C15.67,189.27 15.96,190.27 16.27,191.26C16.57,192.23 16.88,193.18 17.18,194.13C17.48,195.06 17.78,195.97 18.08,196.88C18.38,197.77 18.68,198.66 18.99,199.53C19.29,200.38 19.59,201.23 19.89,202.05C20.19,202.85 20.48,203.64 20.79,204.4C21.08,205.12 21.38,205.83 21.7,206.49C21.99,207.09 22.28,207.69 22.6,208.2C22.89,208.65 23.18,209.09 23.51,209.4C23.79,209.66 24.09,209.89 24.41,209.98C24.7,210.06 25.03,210.04 25.32,209.95C25.63,209.85 25.94,209.62 26.22,209.38C26.54,209.1 26.83,208.73 27.12,208.35C27.44,207.93 27.74,207.45 28.03,206.95C28.34,206.42 28.64,205.83 28.93,205.24C29.24,204.61 29.55,203.94 29.84,203.26C30.15,202.54 30.45,201.79 30.74,201.01C31.05,200.19 31.35,199.34 31.64,198.46C31.95,197.53 32.25,196.57 32.55,195.59C32.86,194.56 33.15,193.5 33.45,192.42C33.76,191.3 34.06,190.14 34.36,188.98C34.67,187.79 34.96,186.58 35.26,185.36C35.56,184.12 35.86,182.87 36.16,181.62C36.46,180.36 36.77,179.1 37.07,177.84C37.37,176.58 37.67,175.32 37.97,174.07C38.27,172.83 38.58,171.59 38.88,170.36C39.18,169.15 39.48,167.94 39.78,166.74C40.08,165.56 40.38,164.39 40.68,163.24C40.98,162.11 41.29,160.99 41.59,159.88C41.89,158.8 42.18,157.73 42.49,156.67C42.79,155.64 43.09,154.62 43.4,153.62C43.7,152.64 43.99,151.68 44.3,150.73C44.6,149.81 44.9,148.9 45.21,148.01C45.51,147.15 45.8,146.3 46.11,145.48C46.4,144.69 46.7,143.92 47.01,143.17C47.31,142.46 47.61,141.75 47.92,141.09C48.21,140.46 48.51,139.86 48.82,139.29C49.11,138.76 49.41,138.25 49.73,137.8C50.02,137.39 50.31,136.99 50.63,136.66C50.92,136.37 51.21,136.09 51.53,135.91C51.82,135.74 52.13,135.62 52.44,135.58C52.74,135.54 53.05,135.58 53.34,135.68C53.66,135.79 53.96,136.01 54.25,136.25C54.57,136.52 54.87,136.89 55.15,137.27C55.47,137.7 55.76,138.21 56.05,138.74C56.37,139.33 56.67,139.97 56.96,140.64C57.27,141.36 57.57,142.13 57.86,142.92C58.17,143.76 58.47,144.63 58.77,145.52C59.08,146.45 59.37,147.4 59.67,148.37C59.98,149.37 60.28,150.38 60.58,151.42C60.89,152.49 61.18,153.58 61.48,154.69C61.78,155.83 62.08,157 62.38,158.18C62.69,159.4 62.99,160.64 63.29,161.9C63.6,163.19 63.89,164.51 64.19,165.84C64.5,167.2 64.8,168.59 65.1,169.98C65.4,171.4 65.7,172.84 66,174.29C66.3,175.75 66.6,177.23 66.9,178.71C67.2,180.19 67.51,181.68 67.81,183.17C68.11,184.65 68.41,186.14 68.71,187.61C69.01,189.07 69.32,190.53 69.62,191.96C69.92,193.37 70.22,194.76 70.52,196.13C70.82,197.46 71.11,198.78 71.42,200.07C71.72,201.31 72.02,202.55 72.33,203.73C72.62,204.86 72.92,205.96 73.23,207.01C73.52,207.98 73.82,208.94 74.14,209.81C74.43,210.59 74.71,211.35 75.04,211.98C75.32,212.52 75.61,213.03 75.95,213.4C76.23,213.7 76.53,213.97 76.85,214.08C77.13,214.18 77.46,214.19 77.75,214.11C78.07,214.02 78.38,213.76 78.66,213.48C78.99,213.15 79.27,212.69 79.56,212.22C79.88,211.69 80.18,211.08 80.47,210.47C80.78,209.82 81.08,209.12 81.37,208.42C81.68,207.69 81.97,206.93 82.27,206.15C82.58,205.34 82.88,204.49 83.18,203.66C83.48,202.83 83.77,201.98 84.08,201.16C84.38,200.37 84.68,199.58 84.99,198.83C85.28,198.12 85.58,197.44 85.89,196.79C86.18,196.18 86.48,195.59 86.79,195.04C87.08,194.53 87.39,194.04 87.7,193.59C87.99,193.18 88.28,192.78 88.6,192.45C88.89,192.15 89.19,191.88 89.51,191.68C89.8,191.5 90.1,191.35 90.41,191.3C90.71,191.25 91.03,191.27 91.32,191.35C91.63,191.43 91.93,191.61 92.22,191.81C92.54,192.04 92.83,192.35 93.12,192.68C93.44,193.05 93.74,193.49 94.03,193.94C94.35,194.44 94.64,194.98 94.93,195.55C95.24,196.16 95.55,196.81 95.84,197.48C96.15,198.19 96.45,198.93 96.74,199.68C97.05,200.46 97.34,201.27 97.64,202.08C97.95,202.92 98.25,203.77 98.55,204.63C98.85,205.5 99.15,206.38 99.45,207.26C99.75,208.14 100.06,209.03 100.36,209.9C100.66,210.76 100.95,211.65 101.26,212.47C101.55,213.23 101.79,214.13 102.16,214.65C102.43,215.02 102.75,215.35 103.07,215.43C103.35,215.5 103.68,215.36 103.97,215.23C104.29,215.09 104.59,214.85 104.88,214.58C105.2,214.28 105.5,213.89 105.78,213.48C106.1,213.02 106.39,212.49 106.68,211.94C106.99,211.35 107.3,210.7 107.59,210.05C107.9,209.36 108.19,208.63 108.49,207.91C108.8,207.17 109.1,206.41 109.4,205.66C109.7,204.91 110,204.15 110.3,203.4C110.6,202.66 110.9,201.91 111.21,201.18C111.51,200.47 111.81,199.76 112.11,199.07C112.41,198.39 112.7,197.72 113.01,197.07C113.31,196.43 113.61,195.81 113.92,195.2C114.22,194.61 114.51,194.03 114.82,193.46C115.12,192.91 115.42,192.38 115.73,191.85C116.03,191.34 116.33,190.84 116.63,190.35C116.93,189.86 117.23,189.38 117.53,188.9C117.83,188.41 118.14,187.93 118.44,187.44C118.74,186.95 119.04,186.46 119.34,185.97C119.64,185.48 119.95,185 120.25,184.52C120.55,184.05 120.85,183.59 121.15,183.14C121.45,182.69 121.75,182.26 122.05,181.82C122.35,181.38 122.66,180.95 122.96,180.51C123.26,180.06 123.56,179.61 123.86,179.15C124.17,178.68 124.47,178.19 124.77,177.7C125.07,177.2 125.37,176.68 125.67,176.16C125.97,175.64 126.28,175.1 126.58,174.58C126.88,174.06 127.18,173.54 127.48,173.04C127.78,172.55 128.07,172.05 128.38,171.59C128.68,171.15 128.98,170.72 129.29,170.33C129.58,169.97 129.87,169.62 130.19,169.33C130.48,169.07 130.78,168.81 131.1,168.65C131.39,168.5 131.7,168.39 132,168.36C132.3,168.33 132.61,168.38 132.9,168.48C133.21,168.59 133.52,168.8 133.81,169.04C134.13,169.31 134.42,169.67 134.71,170.05C135.03,170.47 135.33,170.97 135.62,171.48C135.94,172.04 136.23,172.67 136.52,173.31C136.83,174 137.13,174.74 137.42,175.5C137.73,176.3 138.03,177.14 138.33,178C138.64,178.89 138.93,179.82 139.23,180.76C139.54,181.72 139.84,182.71 140.14,183.7C140.44,184.71 140.74,185.73 141.04,186.75C141.34,187.77 141.65,188.8 141.95,189.82C142.25,190.83 142.55,191.84 142.85,192.82C143.15,193.78 143.44,194.73 143.75,195.65C144.05,196.53 144.35,197.39 144.66,198.22C144.95,199 145.25,199.76 145.56,200.48C145.85,201.15 146.16,201.79 146.47,202.4C146.76,202.96 147.06,203.5 147.37,204C147.66,204.47 147.96,204.92 148.27,205.34C148.56,205.73 148.87,206.1 149.18,206.44C149.47,206.76 149.77,207.07 150.08,207.35C150.38,207.62 150.68,207.87 150.99,208.09C151.29,208.3 151.58,208.5 151.89,208.67C152.18,208.83 152.48,208.98 152.79,209.1C153.09,209.22 153.4,209.31 153.7,209.38C154,209.45 154.3,209.5 154.6,209.53C154.9,209.56 155.21,209.56 155.51,209.54C155.81,209.52 156.11,209.49 156.41,209.44C156.71,209.39 157.02,209.33 157.32,209.26C157.62,209.19 157.92,209.09 158.22,209C158.52,208.91 158.82,208.81 159.12,208.7C159.42,208.59 159.73,208.47 160.03,208.35C160.33,208.23 160.63,208.11 160.93,207.98C161.23,207.85 161.54,207.72 161.84,207.59C162.14,207.47 162.44,207.34 162.74,207.23C163.04,207.12 163.34,207.02 163.64,206.95C163.94,206.88 164.25,206.82 164.55,206.8C164.85,206.78 165.15,206.78 165.45,206.81C165.75,206.84 166.06,206.91 166.36,206.96C166.66,207.01 166.96,207.12 167.26,207.13C167.56,207.14 167.87,207.12 168.16,207C168.48,206.87 168.78,206.59 169.07,206.34C169.38,206.07 169.67,205.71 169.97,205.4C170.27,205.09 170.57,204.75 170.88,204.46C171.17,204.18 171.47,203.91 171.78,203.69C172.07,203.48 172.37,203.29 172.68,203.15C172.97,203.02 173.28,202.92 173.59,202.87C173.89,202.82 174.19,202.82 174.49,202.86C174.8,202.9 175.11,203 175.4,203.14C175.71,203.28 176.01,203.48 176.3,203.71C176.61,203.95 176.92,204.25 177.21,204.57C177.52,204.91 177.82,205.3 178.11,205.71C178.42,206.15 178.72,206.63 179.01,207.12C179.32,207.64 179.62,208.2 179.92,208.77C180.23,209.37 180.52,210 180.82,210.62C181.12,211.25 181.38,212.04 181.73,212.54C182,212.93 182.3,213.29 182.63,213.47C182.91,213.62 183.23,213.6 183.53,213.65C183.83,213.7 184.14,213.74 184.44,213.79C184.74,213.84 185.04,213.89 185.34,213.93C185.64,213.98 185.95,214.01 186.25,214.06C186.55,214.1 186.85,214.15 187.15,214.2C187.45,214.24 187.75,214.28 188.05,214.33C188.35,214.38 188.66,214.43 188.96,214.48C189.26,214.53 189.56,214.58 189.86,214.61C190.16,214.64 190.47,214.7 190.77,214.68C191.07,214.66 191.4,214.65 191.67,214.46C192.03,214.21 192.3,213.63 192.58,213.11C192.92,212.47 193.19,211.63 193.48,210.86C193.79,210.05 194.08,209.19 194.38,208.35C194.68,207.5 194.99,206.63 195.29,205.77C195.59,204.91 195.89,204.05 196.19,203.2C196.49,202.36 196.79,201.52 197.1,200.7C197.4,199.9 197.69,199.11 198,198.35C198.29,197.61 198.59,196.89 198.9,196.19C199.2,195.52 199.5,194.87 199.81,194.25C200.1,193.66 200.4,193.09 200.71,192.56C201,192.07 201.31,191.6 201.62,191.17C201.91,190.78 202.21,190.4 202.52,190.08C202.81,189.79 203.1,189.52 203.42,189.32C203.71,189.14 204.02,188.99 204.33,188.91C204.62,188.84 204.93,188.81 205.23,188.85C205.54,188.89 205.85,189.01 206.14,189.16C206.45,189.33 206.75,189.57 207.04,189.84C207.36,190.14 207.66,190.5 207.95,190.88C208.26,191.29 208.56,191.76 208.85,192.23C209.16,192.72 209.44,193.28 209.75,193.75C210.04,194.19 210.34,194.62 210.66,194.98C210.95,195.31 211.26,195.54 211.56,195.85C211.87,196.17 212.18,196.5 212.47,196.87C212.79,197.28 213.08,197.73 213.37,198.21C213.68,198.73 213.93,199.44 214.27,199.89C214.55,200.26 214.85,200.61 215.18,200.79C215.46,200.94 215.79,200.88 216.08,200.99C216.39,201.11 216.7,201.29 216.99,201.49C217.3,201.7 217.6,201.98 217.89,202.25C218.2,202.53 218.49,202.85 218.79,203.16C219.09,203.47 219.39,203.81 219.7,204.12C220,204.42 220.29,204.73 220.6,205.01C220.9,205.28 221.2,205.53 221.51,205.75C221.8,205.95 222.1,206.14 222.41,206.28C222.71,206.41 223.01,206.52 223.32,206.56C223.62,206.59 223.93,206.58 224.22,206.5C224.53,206.41 224.84,206.23 225.12,206.01C225.45,205.75 225.75,205.39 226.03,205C226.36,204.55 226.65,204 226.93,203.42C227.26,202.75 227.55,202 227.84,201.2C228.16,200.3 228.45,199.32 228.74,198.29C229.06,197.16 229.35,195.94 229.64,194.68C229.96,193.31 230.26,191.85 230.55,190.36C230.86,188.76 231.16,187.09 231.45,185.39C231.76,183.6 232.06,181.74 232.36,179.86C232.67,177.9 232.96,175.9 233.26,173.87C233.56,171.79 233.86,169.66 234.16,167.53C234.46,165.36 234.77,163.15 235.07,160.95C235.37,158.72 235.67,156.48 235.97,154.24C236.27,152 236.58,149.74 236.88,147.5C237.18,145.27 237.48,143.04 237.78,140.83C238.08,138.65 238.38,136.47 238.68,134.33C238.98,132.23 239.28,130.13 239.59,128.08C239.89,126.08 240.18,124.1 240.49,122.17C240.79,120.3 241.09,118.46 241.4,116.66C241.7,114.94 241.99,113.24 242.3,111.6C242.59,110.05 242.9,108.53 243.21,107.07C243.5,105.7 243.8,104.37 244.11,103.1C244.4,101.93 244.69,100.79 245.01,99.73C245.3,98.77 245.6,97.84 245.92,97C246.21,96.26 246.49,95.54 246.82,94.93C247.1,94.41 247.39,93.91 247.73,93.55C248.01,93.25 248.31,92.96 248.63,92.86C248.91,92.77 249.25,92.78 249.53,92.88C249.85,93 250.16,93.29 250.44,93.6C250.78,93.97 251.06,94.48 251.34,95.01C251.67,95.63 251.96,96.36 252.25,97.11C252.57,97.96 252.86,98.89 253.15,99.86C253.47,100.93 253.76,102.07 254.05,103.25C254.36,104.52 254.67,105.86 254.96,107.23C255.27,108.69 255.57,110.21 255.86,111.76C256.17,113.39 256.47,115.07 256.77,116.77C257.08,118.54 257.37,120.35 257.67,122.18C257.98,124.05 258.28,125.97 258.58,127.88C258.88,129.81 259.18,131.77 259.48,133.7C259.78,135.61 260.07,137.54 260.38,139.38C260.67,141.13 260.97,142.92 261.29,144.5C261.57,145.88 261.83,147.29 262.19,148.37C262.46,149.19 262.73,149.97 263.1,150.46C263.36,150.81 263.68,151.08 264,151.18C264.28,151.27 264.61,151.21 264.9,151.13C265.21,151.04 265.52,150.83 265.81,150.63C266.12,150.42 266.41,150.16 266.71,149.91C267.01,149.66 267.31,149.39 267.62,149.14C267.92,148.9 268.21,148.65 268.52,148.45C268.81,148.26 269.11,148.08 269.42,147.96C269.72,147.85 270.03,147.76 270.33,147.75C270.63,147.74 270.94,147.78 271.23,147.88C271.54,147.98 271.85,148.16 272.14,148.38C272.46,148.62 272.75,148.93 273.04,149.27C273.36,149.65 273.66,150.1 273.95,150.57C274.27,151.09 274.56,151.66 274.85,152.26C275.16,152.91 275.46,153.61 275.75,154.34C276.06,155.12 276.37,155.95 276.66,156.8C276.97,157.7 277.27,158.65 277.56,159.61C277.87,160.62 278.17,161.67 278.47,162.74C278.78,163.86 279.07,165.01 279.37,166.18C279.68,167.39 279.97,168.63 280.27,169.88C280.58,171.17 280.88,172.49 281.18,173.82C281.49,175.18 281.78,176.56 282.08,177.95C282.38,179.36 282.69,180.79 282.99,182.22C283.29,183.65 283.59,185.1 283.89,186.53C284.19,187.94 284.48,189.38 284.79,190.73C285.08,192 285.36,193.35 285.7,194.43C285.98,195.31 286.17,196.44 286.6,196.76C286.86,196.95 287.21,196.8 287.51,196.83C287.81,196.86 288.11,196.89 288.41,196.95C288.72,197.02 289.02,197.11 289.32,197.22C289.63,197.34 289.93,197.48 290.22,197.65C290.53,197.83 290.83,198.03 291.12,198.26C291.43,198.51 291.74,198.79 292.03,199.11C292.34,199.45 292.64,199.84 292.93,200.25C293.25,200.7 293.55,201.19 293.84,201.71C294.15,202.27 294.45,202.88 294.74,203.51C295.05,204.18 295.35,204.89 295.64,205.62C295.95,206.39 296.25,207.19 296.55,208C296.86,208.85 297.15,209.72 297.45,210.6C297.76,211.51 298.06,212.44 298.36,213.37C298.66,214.32 298.96,215.28 299.26,216.24C299.56,217.21 299.86,218.18 300.16,219.15C300.46,220.12 300.77,221.09 301.07,222.05C301.37,223 301.67,223.95 301.97,224.89C302.27,225.81 302.57,226.72 302.88,227.61C303.18,228.47 303.48,229.33 303.78,230.16C304.08,230.97 304.37,231.76 304.68,232.53C304.98,233.27 305.28,233.98 305.59,234.68C305.89,235.35 306.18,236.01 306.49,236.63C306.78,237.22 307.09,237.8 307.4,238.33C307.69,238.82 307.96,239.35 308.3,239.71C308.58,240.01 308.9,240.38 309.21,240.4C309.5,240.42 309.84,240.16 310.11,239.92C310.45,239.62 310.72,239.12 311.01,238.65C311.33,238.13 311.63,237.52 311.92,236.92C312.23,236.28 312.52,235.59 312.82,234.92C313.12,234.23 313.43,233.52 313.73,232.83C314.03,232.15 314.32,231.46 314.63,230.8C314.92,230.17 315.22,229.54 315.53,228.95C315.82,228.39 316.13,227.85 316.44,227.35C316.73,226.88 317.02,226.44 317.34,226.04C317.63,225.68 317.93,225.34 318.25,225.05C318.54,224.79 318.84,224.55 319.15,224.36C319.44,224.18 319.74,224.04 320.05,223.93C320.35,223.83 320.66,223.76 320.96,223.72C321.26,223.68 321.56,223.66 321.86,223.67C322.16,223.68 322.47,223.72 322.77,223.79C323.07,223.86 323.38,223.95 323.67,224.09C323.98,224.23 324.29,224.42 324.58,224.64C324.89,224.88 325.19,225.17 325.48,225.48C325.79,225.82 326.09,226.21 326.38,226.62C326.69,227.06 327,227.55 327.29,228.06C327.6,228.61 327.9,229.2 328.19,229.81C328.5,230.46 328.81,231.15 329.1,231.85C329.41,232.59 329.71,233.37 330,234.16C330.31,234.99 330.6,235.85 330.9,236.72C331.21,237.63 331.51,238.57 331.81,239.51C332.11,240.47 332.39,241.51 332.71,242.43C333,243.27 333.3,244.07 333.62,244.8C333.91,245.46 334.22,246.02 334.52,246.64C334.82,247.27 335.12,247.91 335.42,248.56C335.73,249.23 336.03,249.91 336.33,250.6C336.63,251.29 336.93,252 337.23,252.7C337.53,253.39 337.83,254.1 338.14,254.77C338.43,255.4 338.72,256.04 339.04,256.61C339.33,257.12 339.63,257.6 339.95,258.03C340.24,258.42 340.54,258.77 340.85,259.09C341.14,259.39 341.44,259.68 341.75,259.92C342.04,260.15 342.34,260.4 342.66,260.53C342.95,260.65 343.26,260.74 343.56,260.72C343.87,260.7 344.18,260.54 344.47,260.37C344.79,260.18 345.08,259.91 345.37,259.61C345.69,259.28 346,258.92 346.27,258.46C346.61,257.89 346.9,257.14 347.18,256.38C347.51,255.5 347.78,254.46 348.08,253.49C348.38,252.5 348.69,251.49 348.99,250.5C349.29,249.52 349.59,248.54 349.89,247.56C350.19,246.59 350.49,245.62 350.79,244.65C351.09,243.69 351.4,242.73 351.7,241.77C352,240.82 352.3,239.86 352.6,238.91C352.9,237.97 353.21,237.04 353.51,236.11C353.81,235.2 354.11,234.29 354.41,233.39C354.71,232.51 355.02,231.64 355.32,230.77C355.62,229.91 355.92,229.06 356.22,228.22C356.52,227.39 356.82,226.56 357.12,225.74C357.42,224.92 357.73,224.11 358.03,223.3C358.33,222.49 358.63,221.68 358.93,220.87C359.23,220.07 359.54,219.26 359.84,218.47C360.14,217.68 360.44,216.9 360.74,216.13C361.04,215.37 361.34,214.61 361.64,213.86C361.94,213.12 362.25,212.4 362.55,211.68C362.85,210.97 363.15,210.27 363.45,209.57C363.75,208.87 364.06,208.18 364.36,207.48C364.66,206.78 364.96,206.08 365.26,205.39C365.56,204.7 365.85,204.01 366.16,203.34C366.46,202.69 366.76,202.03 367.07,201.42C367.36,200.84 367.66,200.27 367.97,199.75C368.26,199.26 368.56,198.79 368.88,198.38C369.17,198.01 369.46,197.65 369.78,197.37C370.07,197.12 370.37,196.9 370.68,196.77C370.97,196.65 371.29,196.58 371.59,196.59C371.89,196.6 372.2,196.71 372.49,196.86C372.81,197.03 373.12,197.29 373.4,197.58C373.72,197.91 374.01,198.34 374.3,198.78C374.62,199.28 374.92,199.84 375.21,200.44C375.53,201.1 375.82,201.82 376.11,202.57C376.42,203.38 376.72,204.25 377.01,205.15C377.32,206.11 377.63,207.13 377.92,208.17C378.23,209.27 378.52,210.42 378.82,211.59C379.13,212.8 379.42,214.1 379.73,215.31C380.03,216.48 380.33,217.62 380.63,218.75C380.93,219.84 381.23,220.88 381.53,221.96C381.83,223.06 382.14,224.18 382.44,225.31C382.74,226.45 383.04,227.61 383.34,228.76C383.64,229.91 383.94,231.08 384.25,232.22C384.55,233.33 384.84,234.44 385.15,235.5C385.44,236.5 385.73,237.49 386.05,238.41C386.34,239.25 386.63,240.07 386.96,240.79C387.24,241.41 387.52,242.04 387.86,242.48C388.14,242.84 388.44,243.19 388.77,243.32C389.05,243.43 389.39,243.42 389.67,243.31C390,243.18 390.31,242.82 390.58,242.44C390.93,241.94 391.2,241.21 391.48,240.49C391.81,239.63 392.09,238.6 392.38,237.59C392.69,236.5 392.99,235.35 393.29,234.19C393.6,232.99 393.89,231.75 394.19,230.52C394.49,229.27 394.8,228 395.1,226.73C395.4,225.45 395.7,224.16 396,222.88C396.3,221.6 396.6,220.32 396.9,219.04C397.2,217.77 397.51,216.5 397.81,215.25C398.11,214.01 398.41,212.78 398.71,211.56C399.01,210.36 399.31,209.16 399.62,207.99C399.92,206.84 400.22,205.71 400.52,204.59C400.82,203.5 401.11,202.43 401.42,201.38C401.72,200.36 402.02,199.36 402.33,198.39C402.63,197.45 402.92,196.53 403.23,195.64C403.53,194.79 403.83,193.95 404.14,193.15C404.43,192.39 404.73,191.64 405.04,190.94C405.33,190.28 405.64,189.65 405.95,189.05C406.24,188.49 406.54,187.96 406.85,187.47C407.14,187.03 407.43,186.6 407.75,186.24C408.04,185.91 408.34,185.6 408.66,185.36C408.95,185.15 409.25,184.96 409.56,184.86C409.85,184.76 410.17,184.72 410.47,184.74C410.77,184.76 411.08,184.86 411.37,185C411.68,185.15 411.98,185.39 412.27,185.65C412.59,185.94 412.89,186.3 413.18,186.69C413.5,187.12 413.79,187.6 414.08,188.11C414.4,188.67 414.7,189.28 414.99,189.92C415.3,190.6 415.6,191.33 415.89,192.08C416.2,192.88 416.5,193.73 416.79,194.6C417.1,195.52 417.4,196.48 417.7,197.46C418.01,198.48 418.3,199.54 418.6,200.62C418.91,201.74 419.21,202.89 419.51,204.06C419.82,205.27 420.11,206.51 420.41,207.76C420.72,209.04 421.02,210.35 421.32,211.67C421.62,213.02 421.92,214.39 422.22,215.76C422.52,217.15 422.82,218.56 423.12,219.97C423.42,221.4 423.73,222.84 424.03,224.28C424.33,225.72 424.63,227.17 424.93,228.61C425.23,230.05 425.54,231.49 425.84,232.92C426.14,234.34 426.44,235.76 426.74,237.16C427.04,238.54 427.34,239.92 427.64,241.28C427.94,242.62 428.25,243.94 428.55,245.25C428.85,246.53 429.14,247.8 429.45,249.05C429.75,250.27 430.05,251.47 430.36,252.65C430.66,253.8 430.96,254.94 431.26,256.06C431.56,257.15 431.85,258.22 432.16,259.27C432.46,260.29 432.76,261.29 433.07,262.26C433.37,263.19 433.66,264.12 433.97,265C434.26,265.84 434.56,266.66 434.88,267.43C435.17,268.13 435.46,268.83 435.78,269.43C436.06,269.96 436.34,270.49 436.68,270.86C436.96,271.17 437.27,271.46 437.59,271.57C437.87,271.66 438.2,271.65 438.49,271.55C438.81,271.44 439.12,271.15 439.4,270.86C439.73,270.52 440.01,270.04 440.3,269.57C440.62,269.04 440.92,268.43 441.21,267.81C441.52,267.15 441.82,266.43 442.11,265.71C442.42,264.97 442.71,264.19 443.01,263.42C443.31,262.64 443.62,261.85 443.92,261.07C444.22,260.3 444.52,259.52 444.82,258.76C445.12,258.01 445.42,257.27 445.73,256.55C446.03,255.85 446.32,255.16 446.63,254.5C446.92,253.86 447.22,253.24 447.53,252.64C447.83,252.07 448.13,251.51 448.44,250.98C448.73,250.48 449.03,250 449.34,249.55C449.63,249.13 449.94,248.72 450.25,248.35C450.54,248 450.84,247.67 451.15,247.38C451.44,247.11 451.74,246.85 452.05,246.64C452.34,246.44 452.65,246.26 452.96,246.13C453.25,246 453.56,245.9 453.86,245.84C454.16,245.78 454.47,245.75 454.77,245.75C455.07,245.75 455.37,245.78 455.67,245.84C455.97,245.9 456.28,245.99 456.58,246.09C456.88,246.2 457.18,246.33 457.48,246.47C457.78,246.61 458.08,246.78 458.38,246.95C458.68,247.12 458.99,247.31 459.29,247.49C459.59,247.67 459.89,247.86 460.19,248.03C460.49,248.2 460.79,248.37 461.1,248.5Q461.4,248.63 462,248.83" style="vector-effect: non-scaling-stroke; fill: none; stroke: rgb(0, 176, 246); stroke-opacity: 1; stroke-width: 2px; opacity: 1;"/></g><g class="points"/><g class="text"/></g><g class="trace scatter trace8ffe18" style="stroke-miterlimit: 2; opacity: 1;"><g class="fills"/><g class="errorbars"/><g class="lines"><path class="js-line" d="M0,131.06Q0.61,131 0.9,130.89C1.21,130.78 1.52,130.59 1.81,130.39C2.12,130.17 2.42,129.89 2.71,129.61C3.02,129.31 3.32,128.97 3.62,128.63C3.93,128.28 4.22,127.91 4.52,127.54C4.82,127.17 5.11,126.79 5.42,126.43C5.72,126.08 6.02,125.73 6.33,125.41C6.62,125.1 6.92,124.8 7.23,124.55C7.52,124.32 7.83,124.1 8.14,123.95C8.43,123.81 8.74,123.7 9.04,123.68C9.34,123.66 9.66,123.7 9.95,123.8C10.26,123.91 10.57,124.12 10.85,124.36C11.17,124.64 11.47,125 11.75,125.4C12.07,125.85 12.37,126.39 12.66,126.96C12.98,127.6 13.27,128.31 13.56,129.05C13.88,129.88 14.18,130.77 14.47,131.7C14.79,132.71 15.08,133.77 15.37,134.88C15.68,136.07 15.98,137.33 16.27,138.61C16.58,139.97 16.89,141.39 17.18,142.84C17.49,144.36 17.78,145.93 18.08,147.53C18.39,149.2 18.69,150.91 18.99,152.64C19.3,154.42 19.59,156.25 19.89,158.08C20.19,159.95 20.49,161.84 20.79,163.74C21.09,165.65 21.4,167.58 21.7,169.5C22,171.41 22.3,173.33 22.6,175.22C22.9,177.08 23.2,178.93 23.51,180.74C23.81,182.5 24.1,184.25 24.41,185.94C24.71,187.56 25.01,189.15 25.32,190.69C25.61,192.15 25.91,193.58 26.22,194.96C26.51,196.26 26.81,197.51 27.12,198.72C27.41,199.85 27.72,200.95 28.03,202C28.32,202.99 28.62,203.94 28.93,204.85C29.22,205.71 29.53,206.53 29.84,207.32C30.13,208.07 30.43,208.79 30.74,209.49C31.03,210.15 31.33,210.78 31.64,211.39C31.93,211.97 32.24,212.52 32.55,213.05C32.84,213.55 33.14,214.04 33.45,214.49C33.74,214.91 34.04,215.31 34.36,215.66C34.65,215.98 34.94,216.31 35.26,216.52C35.54,216.71 35.85,216.9 36.16,216.92C36.46,216.94 36.79,216.86 37.07,216.68C37.41,216.46 37.7,216.03 37.97,215.58C38.32,215.02 38.6,214.27 38.88,213.51C39.21,212.63 39.49,211.62 39.78,210.6C40.09,209.49 40.39,208.3 40.68,207.11C40.99,205.86 41.29,204.56 41.59,203.26C41.9,201.93 42.19,200.58 42.49,199.23C42.79,197.87 43.1,196.5 43.4,195.15C43.7,193.8 44,192.45 44.3,191.13C44.6,189.83 44.9,188.54 45.21,187.28C45.51,186.06 45.8,184.85 46.11,183.68C46.4,182.56 46.7,181.46 47.01,180.41C47.3,179.42 47.61,178.44 47.92,177.53C48.21,176.68 48.5,175.86 48.82,175.11C49.11,174.42 49.41,173.76 49.73,173.18C50.01,172.67 50.3,172.17 50.63,171.78C50.91,171.44 51.21,171.13 51.53,170.94C51.81,170.78 52.14,170.66 52.44,170.66C52.74,170.66 53.06,170.79 53.34,170.96C53.67,171.16 53.97,171.49 54.25,171.84C54.58,172.25 54.87,172.76 55.15,173.29C55.47,173.9 55.76,174.58 56.05,175.3C56.37,176.1 56.67,176.97 56.96,177.87C57.28,178.85 57.57,179.89 57.86,180.96C58.17,182.11 58.48,183.32 58.77,184.56C59.08,185.88 59.38,187.25 59.67,188.65C59.98,190.12 60.28,191.63 60.58,193.18C60.89,194.79 61.19,196.46 61.48,198.14C61.79,199.88 62.08,201.66 62.38,203.47C62.69,205.34 62.99,207.24 63.29,209.16C63.6,211.13 63.89,213.13 64.19,215.14C64.49,217.2 64.8,219.28 65.1,221.38C65.4,223.51 65.7,225.66 66,227.81C66.3,229.98 66.6,232.17 66.9,234.35C67.2,236.52 67.5,238.72 67.81,240.86C68.11,242.94 68.39,245.06 68.71,247C69,248.75 69.29,250.46 69.62,251.99C69.9,253.31 70.21,254.5 70.52,255.67C70.81,256.74 71.11,257.74 71.42,258.72C71.71,259.65 72.01,260.57 72.33,261.42C72.62,262.2 72.9,263 73.23,263.64C73.51,264.18 73.79,264.73 74.14,265.05C74.41,265.3 74.73,265.47 75.04,265.51C75.34,265.55 75.66,265.43 75.95,265.31C76.26,265.18 76.56,264.97 76.85,264.75C77.16,264.51 77.46,264.23 77.75,263.91C78.07,263.55 78.38,263.14 78.66,262.68C78.99,262.15 79.28,261.54 79.56,260.88C79.89,260.11 80.18,259.23 80.47,258.32C80.79,257.29 81.08,256.15 81.37,255C81.68,253.77 81.97,252.46 82.27,251.15C82.58,249.8 82.88,248.41 83.18,247.03C83.48,245.64 83.78,244.23 84.08,242.83C84.38,241.44 84.69,240.05 84.99,238.68C85.29,237.33 85.59,235.98 85.89,234.65C86.19,233.35 86.48,232.06 86.79,230.8C87.09,229.57 87.39,228.36 87.7,227.17C88,226.02 88.29,224.89 88.6,223.79C88.9,222.73 89.2,221.69 89.51,220.68C89.81,219.72 90.1,218.77 90.41,217.86C90.7,216.99 91.01,216.15 91.32,215.34C91.61,214.58 91.91,213.83 92.22,213.13C92.51,212.47 92.81,211.83 93.12,211.24C93.41,210.69 93.72,210.16 94.03,209.68C94.32,209.23 94.61,208.81 94.93,208.43C95.22,208.08 95.52,207.76 95.84,207.49C96.13,207.24 96.43,207.02 96.74,206.85C97.03,206.69 97.33,206.57 97.64,206.5C97.94,206.43 98.25,206.4 98.55,206.41C98.85,206.42 99.15,206.47 99.45,206.55C99.76,206.63 100.06,206.76 100.36,206.89C100.67,207.03 100.96,207.2 101.26,207.37C101.56,207.55 101.86,207.74 102.16,207.94C102.46,208.14 102.77,208.35 103.07,208.55C103.37,208.74 103.67,208.94 103.97,209.11C104.27,209.28 104.57,209.44 104.88,209.57C105.18,209.69 105.48,209.81 105.78,209.87C106.08,209.93 106.38,209.96 106.68,209.95C106.98,209.94 107.29,209.89 107.59,209.8C107.9,209.71 108.2,209.56 108.49,209.39C108.8,209.21 109.11,208.98 109.4,208.73C109.71,208.47 110.01,208.16 110.3,207.84C110.61,207.5 110.91,207.13 111.21,206.75C111.52,206.35 111.81,205.92 112.11,205.49C112.42,205.04 112.71,204.57 113.01,204.1C113.32,203.61 113.62,203.11 113.92,202.61C114.22,202.1 114.52,201.57 114.82,201.05C115.12,200.52 115.43,199.98 115.73,199.44C116.03,198.9 116.33,198.35 116.63,197.8C116.93,197.24 117.23,196.69 117.53,196.11C117.84,195.51 118.15,194.91 118.44,194.27C118.75,193.59 119.05,192.88 119.34,192.12C119.66,191.3 119.95,190.41 120.25,189.52C120.56,188.59 120.85,187.62 121.15,186.67C121.45,185.73 121.74,184.77 122.05,183.85C122.35,182.95 122.65,182.06 122.96,181.2C123.25,180.38 123.55,179.58 123.86,178.81C124.15,178.08 124.46,177.38 124.77,176.71C125.06,176.08 125.36,175.48 125.67,174.91C125.96,174.38 126.27,173.88 126.58,173.42C126.87,172.99 127.17,172.59 127.48,172.23C127.77,171.9 128.07,171.6 128.38,171.34C128.67,171.1 128.98,170.89 129.29,170.72C129.58,170.56 129.88,170.44 130.19,170.36C130.49,170.28 130.8,170.24 131.1,170.24C131.4,170.24 131.7,170.28 132,170.34C132.3,170.4 132.6,170.5 132.9,170.62C133.21,170.74 133.51,170.91 133.81,171.08C134.12,171.26 134.41,171.46 134.71,171.67C135.02,171.89 135.32,172.14 135.62,172.4C135.93,172.66 136.22,172.95 136.52,173.24C136.82,173.54 137.12,173.86 137.42,174.19C137.73,174.53 138.03,174.88 138.33,175.25C138.64,175.63 138.93,176.02 139.23,176.43C139.54,176.85 139.84,177.29 140.14,177.74C140.45,178.2 140.74,178.68 141.04,179.17C141.35,179.68 141.65,180.2 141.95,180.74C142.26,181.29 142.55,181.87 142.85,182.45C143.15,183.05 143.45,183.67 143.75,184.29C144.06,184.93 144.36,185.58 144.66,186.24C144.96,186.91 145.26,187.59 145.56,188.27C145.86,188.95 146.16,189.64 146.47,190.31C146.77,190.96 147.06,191.63 147.37,192.23C147.66,192.79 147.94,193.37 148.27,193.8C148.55,194.16 148.85,194.53 149.18,194.68C149.46,194.81 149.79,194.81 150.08,194.75C150.39,194.69 150.69,194.46 150.99,194.27C151.3,194.07 151.59,193.81 151.89,193.59C152.19,193.37 152.48,193.14 152.79,192.94C153.09,192.75 153.39,192.56 153.7,192.41C154,192.27 154.3,192.15 154.6,192.06C154.9,191.97 155.21,191.91 155.51,191.89C155.81,191.87 156.11,191.87 156.41,191.91C156.71,191.95 157.02,192.02 157.32,192.12C157.63,192.22 157.93,192.35 158.22,192.51C158.53,192.67 158.83,192.87 159.12,193.08C159.43,193.3 159.73,193.56 160.03,193.83C160.34,194.11 160.64,194.42 160.93,194.75C161.24,195.09 161.54,195.46 161.84,195.84C162.15,196.24 162.45,196.67 162.74,197.11C163.05,197.57 163.34,198.05 163.64,198.55C163.95,199.07 164.25,199.61 164.55,200.17C164.86,200.75 165.15,201.34 165.45,201.95C165.76,202.58 166.06,203.23 166.36,203.89C166.67,204.57 166.96,205.27 167.26,205.98C167.56,206.71 167.86,207.46 168.16,208.22C168.47,209 168.77,209.78 169.07,210.58C169.37,211.39 169.67,212.23 169.97,213.06C170.27,213.91 170.58,214.76 170.88,215.62C171.18,216.49 171.48,217.37 171.78,218.25C172.08,219.13 172.38,220.02 172.68,220.9C172.98,221.78 173.29,222.67 173.59,223.55C173.89,224.42 174.19,225.29 174.49,226.15C174.79,226.99 175.09,227.83 175.4,228.65C175.7,229.44 175.99,230.22 176.3,230.97C176.6,231.69 176.9,232.39 177.21,233.05C177.5,233.67 177.8,234.28 178.11,234.84C178.4,235.36 178.69,235.85 179.01,236.3C179.3,236.71 179.6,237.09 179.92,237.42C180.21,237.73 180.51,238.01 180.82,238.24C181.11,238.46 181.42,238.64 181.73,238.78C182.02,238.92 182.33,239.03 182.63,239.09C182.93,239.15 183.23,239.18 183.53,239.17C183.83,239.16 184.14,239.11 184.44,239.02C184.75,238.92 185.05,238.78 185.34,238.6C185.65,238.4 185.96,238.15 186.25,237.87C186.57,237.56 186.86,237.18 187.15,236.78C187.47,236.34 187.76,235.85 188.05,235.33C188.37,234.77 188.67,234.16 188.96,233.53C189.27,232.87 189.56,232.17 189.86,231.46C190.17,230.73 190.47,229.96 190.77,229.2C191.07,228.43 191.37,227.64 191.67,226.85C191.97,226.06 192.28,225.26 192.58,224.47C192.88,223.69 193.18,222.9 193.48,222.13C193.78,221.37 194.07,220.62 194.38,219.88C194.68,219.16 194.98,218.45 195.29,217.76C195.59,217.09 195.88,216.42 196.19,215.78C196.49,215.16 196.79,214.56 197.1,213.98C197.4,213.42 197.69,212.87 198,212.35C198.29,211.86 198.59,211.38 198.9,210.93C199.19,210.5 199.5,210.09 199.81,209.71C200.1,209.36 200.4,209.02 200.71,208.73C201,208.46 201.31,208.21 201.62,208.01C201.91,207.83 202.21,207.66 202.52,207.57C202.81,207.48 203.12,207.43 203.42,207.44C203.72,207.45 204.04,207.52 204.33,207.63C204.64,207.75 204.94,207.94 205.23,208.16C205.55,208.41 205.85,208.72 206.14,209.06C206.46,209.43 206.75,209.86 207.04,210.31C207.36,210.81 207.66,211.36 207.95,211.93C208.26,212.55 208.56,213.21 208.85,213.9C209.16,214.64 209.46,215.42 209.75,216.22C210.06,217.07 210.36,217.96 210.66,218.87C210.97,219.82 211.26,220.8 211.56,221.8C211.87,222.84 212.17,223.91 212.47,225C212.78,226.12 213.07,227.26 213.37,228.41C213.67,229.59 213.97,230.78 214.27,231.98C214.57,233.19 214.88,234.42 215.18,235.64C215.48,236.86 215.78,238.1 216.08,239.32C216.38,240.53 216.69,241.74 216.99,242.93C217.29,244.1 217.58,245.26 217.89,246.39C218.19,247.48 218.48,248.57 218.79,249.61C219.08,250.6 219.39,251.58 219.7,252.51C219.99,253.38 220.29,254.22 220.6,255.02C220.89,255.76 221.19,256.47 221.51,257.13C221.8,257.74 222.1,258.31 222.41,258.85C222.7,259.35 223.01,259.8 223.32,260.24C223.61,260.65 223.91,261.04 224.22,261.42C224.51,261.78 224.82,262.12 225.12,262.47C225.42,262.82 225.73,263.16 226.03,263.51C226.33,263.87 226.63,264.22 226.93,264.6C227.24,264.99 227.54,265.39 227.84,265.81C228.15,266.24 228.44,266.7 228.74,267.16C229.04,267.62 229.32,268.17 229.64,268.57C229.92,268.92 230.26,269.49 230.55,269.47C230.86,269.45 231.18,268.82 231.45,268.35C231.81,267.73 232.07,266.81 232.36,265.99C232.67,265.11 232.97,264.21 233.26,263.25C233.57,262.2 233.87,261.1 234.16,259.94C234.48,258.66 234.77,257.25 235.07,255.89C235.37,254.52 235.67,253.18 235.97,251.77C236.28,250.3 236.58,248.78 236.88,247.24C237.19,245.63 237.49,244.01 237.78,242.31C238.09,240.49 238.38,238.53 238.68,236.66C238.98,234.83 239.28,233.01 239.59,231.21C239.89,229.45 240.18,227.72 240.49,226C240.79,224.32 241.09,222.66 241.4,221.03C241.7,219.44 241.99,217.87 242.3,216.33C242.6,214.83 242.9,213.35 243.21,211.9C243.51,210.49 243.8,209.11 244.11,207.75C244.4,206.44 244.7,205.16 245.01,203.9C245.31,202.69 245.61,201.5 245.92,200.34C246.22,199.23 246.51,198.15 246.82,197.1C247.12,196.09 247.42,195.11 247.73,194.16C248.02,193.26 248.32,192.39 248.63,191.55C248.92,190.76 249.22,189.99 249.53,189.26C249.82,188.58 250.13,187.92 250.44,187.3C250.73,186.72 251.02,186.17 251.34,185.66C251.63,185.19 251.93,184.75 252.25,184.36C252.54,184 252.84,183.67 253.15,183.39C253.44,183.14 253.74,182.91 254.05,182.75C254.34,182.6 254.65,182.48 254.96,182.42C255.26,182.37 255.56,182.37 255.86,182.41C256.17,182.45 256.48,182.56 256.77,182.69C257.08,182.83 257.38,183.03 257.67,183.25C257.98,183.49 258.29,183.77 258.58,184.07C258.89,184.39 259.19,184.74 259.48,185.1C259.79,185.48 260.08,185.88 260.38,186.29C260.69,186.71 260.99,187.15 261.29,187.58C261.59,188.01 261.88,188.45 262.19,188.87C262.49,189.27 262.79,189.68 263.1,190.04C263.39,190.37 263.68,190.7 264,190.96C264.29,191.19 264.59,191.4 264.9,191.54C265.19,191.67 265.5,191.76 265.81,191.8C266.11,191.84 266.41,191.82 266.71,191.79C267.01,191.76 267.32,191.69 267.62,191.63C267.92,191.56 268.22,191.48 268.52,191.4C268.82,191.32 269.12,191.24 269.42,191.17C269.72,191.1 270.03,191.03 270.33,190.98C270.63,190.93 270.93,190.89 271.23,190.87C271.53,190.85 271.84,190.85 272.14,190.86C272.44,190.87 272.74,190.9 273.04,190.95C273.34,191 273.65,191.07 273.95,191.16C274.25,191.25 274.55,191.36 274.85,191.49C275.15,191.62 275.45,191.77 275.75,191.94C276.06,192.11 276.36,192.31 276.66,192.52C276.97,192.73 277.26,192.97 277.56,193.21C277.87,193.46 278.17,193.74 278.47,194.02C278.78,194.31 279.07,194.62 279.37,194.94C279.67,195.27 279.97,195.6 280.27,195.95C280.58,196.31 280.88,196.67 281.18,197.05C281.49,197.44 281.78,197.83 282.08,198.24C282.39,198.65 282.69,199.08 282.99,199.51C283.3,199.95 283.59,200.4 283.89,200.87C284.19,201.35 284.49,201.84 284.79,202.35C285.1,202.88 285.4,203.43 285.7,203.99C286.01,204.58 286.31,205.18 286.6,205.81C286.91,206.48 287.22,207.17 287.51,207.89C287.82,208.65 288.12,209.44 288.41,210.26C288.72,211.13 289.03,212.04 289.32,212.98C289.63,213.97 289.93,215.01 290.22,216.07C290.53,217.19 290.83,218.36 291.12,219.55C291.43,220.81 291.73,222.1 292.03,223.43C292.34,224.82 292.63,226.25 292.93,227.71C293.24,229.22 293.54,230.77 293.84,232.35C294.15,233.98 294.44,235.65 294.74,237.34C295.04,239.08 295.34,240.85 295.64,242.64C295.95,244.47 296.25,246.33 296.55,248.2C296.85,250.1 297.15,252.02 297.45,253.95C297.75,255.9 298.03,258.02 298.36,259.84C298.64,261.42 298.93,262.93 299.26,264.26C299.54,265.37 299.85,266.29 300.16,267.27C300.46,268.22 300.76,269.16 301.07,270.06C301.36,270.92 301.66,271.77 301.97,272.57C302.26,273.32 302.56,274.05 302.88,274.71C303.17,275.31 303.46,275.9 303.78,276.4C304.06,276.85 304.35,277.28 304.68,277.6C304.96,277.88 305.27,278.13 305.59,278.25C305.88,278.36 306.2,278.4 306.49,278.34C306.8,278.28 307.12,278.08 307.4,277.85C307.73,277.58 308.02,277.2 308.3,276.79C308.63,276.32 308.92,275.75 309.21,275.16C309.53,274.5 309.82,273.77 310.11,273.01C310.42,272.18 310.72,271.29 311.01,270.38C311.32,269.41 311.62,268.4 311.92,267.37C312.23,266.3 312.52,265.19 312.82,264.09C313.12,262.97 313.43,261.82 313.73,260.69C314.03,259.56 314.33,258.41 314.63,257.29C314.93,256.18 315.22,255.08 315.53,254C315.83,252.95 316.13,251.92 316.44,250.91C316.74,249.94 317.03,248.99 317.34,248.07C317.63,247.2 317.94,246.35 318.25,245.54C318.54,244.78 318.84,244.04 319.15,243.35C319.44,242.71 319.73,242.09 320.05,241.52C320.34,241 320.64,240.51 320.96,240.08C321.25,239.69 321.54,239.32 321.86,239.02C322.15,238.75 322.45,238.5 322.77,238.33C323.06,238.18 323.36,238.06 323.67,238.02C323.97,237.98 324.28,238 324.58,238.06C324.89,238.12 325.19,238.25 325.48,238.4C325.79,238.56 326.08,238.78 326.38,238.98C326.69,239.19 326.98,239.45 327.29,239.64C327.58,239.81 327.88,240.03 328.19,240.07C328.49,240.1 328.81,240.01 329.1,239.87C329.42,239.71 329.71,239.38 330,239.11C330.31,238.82 330.59,238.48 330.9,238.19C331.2,237.9 331.5,237.61 331.81,237.36C332.1,237.12 332.4,236.9 332.71,236.72C333,236.55 333.31,236.41 333.62,236.32C333.92,236.23 334.22,236.17 334.52,236.16C334.82,236.15 335.12,236.19 335.42,236.26C335.73,236.34 336.04,236.47 336.33,236.62C336.64,236.78 336.94,236.99 337.23,237.21C337.54,237.45 337.84,237.72 338.14,238.01C338.45,238.31 338.74,238.65 339.04,238.99C339.35,239.35 339.65,239.72 339.95,240.11C340.26,240.51 340.55,240.92 340.85,241.35C341.15,241.79 341.45,242.24 341.75,242.7C342.06,243.18 342.36,243.67 342.66,244.19C342.97,244.73 343.27,245.29 343.56,245.88C343.87,246.5 344.18,247.14 344.47,247.81C344.78,248.51 345.07,249.26 345.37,249.99C345.67,250.73 345.87,251.8 346.27,252.23C346.53,252.51 346.87,252.57 347.18,252.67C347.47,252.76 347.78,252.73 348.08,252.82C348.39,252.91 348.7,253.04 348.99,253.21C349.3,253.39 349.6,253.61 349.89,253.86C350.2,254.12 350.5,254.43 350.79,254.75C351.1,255.09 351.4,255.46 351.7,255.85C352.01,256.25 352.3,256.69 352.6,257.13C352.91,257.59 353.21,258.07 353.51,258.56C353.81,259.06 354.11,259.57 354.41,260.08C354.71,260.59 355.02,261.11 355.32,261.62C355.62,262.12 355.91,262.63 356.22,263.09C356.51,263.52 356.79,263.97 357.12,264.3C357.4,264.59 357.71,264.88 358.03,265C358.32,265.11 358.64,265.11 358.93,265.05C359.24,264.98 359.55,264.77 359.84,264.57C360.15,264.36 360.45,264.07 360.74,263.8C361.05,263.52 361.34,263.2 361.64,262.9C361.94,262.59 362.25,262.28 362.55,261.97C362.85,261.66 363.15,261.34 363.45,261.03C363.75,260.72 364.06,260.42 364.36,260.12C364.66,259.82 364.96,259.53 365.26,259.24C365.56,258.95 365.86,258.66 366.16,258.38C366.46,258.1 366.77,257.83 367.07,257.56C367.37,257.29 367.67,257.03 367.97,256.77C368.27,256.51 368.58,256.26 368.88,256.01C369.18,255.77 369.48,255.52 369.78,255.29C370.08,255.06 370.38,254.83 370.68,254.62C370.98,254.41 371.28,254.21 371.59,254.02C371.89,253.84 372.18,253.66 372.49,253.51C372.79,253.36 373.09,253.23 373.4,253.12C373.7,253.02 374,252.92 374.3,252.87C374.6,252.82 374.91,252.79 375.21,252.79C375.51,252.79 375.81,252.82 376.11,252.89C376.41,252.96 376.72,253.07 377.01,253.2C377.32,253.34 377.63,253.52 377.92,253.72C378.23,253.93 378.53,254.18 378.82,254.44C379.13,254.72 379.44,255.03 379.73,255.36C380.04,255.7 380.34,256.07 380.63,256.46C380.94,256.86 381.23,257.29 381.53,257.73C381.84,258.18 382.14,258.64 382.44,259.12C382.75,259.61 383.04,260.12 383.34,260.62C383.64,261.13 383.95,261.65 384.25,262.16C384.55,262.67 384.85,263.19 385.15,263.7C385.45,264.2 385.74,264.69 386.05,265.17C386.35,265.63 386.65,266.09 386.96,266.51C387.25,266.91 387.55,267.3 387.86,267.63C388.15,267.94 388.44,268.3 388.77,268.45C389.05,268.58 389.41,268.72 389.67,268.58C390.07,268.36 390.3,267.3 390.58,266.58C390.9,265.76 391.18,264.8 391.48,263.89C391.78,262.96 392.08,262 392.38,261.06C392.68,260.11 392.99,259.16 393.29,258.21C393.59,257.27 393.89,256.33 394.19,255.4C394.49,254.49 394.79,253.59 395.1,252.7C395.4,251.84 395.7,250.98 396,250.15C396.3,249.34 396.59,248.55 396.9,247.78C397.2,247.05 397.5,246.33 397.81,245.64C398.1,244.99 398.4,244.35 398.71,243.75C399,243.18 399.31,242.63 399.62,242.12C399.91,241.64 400.21,241.18 400.52,240.77C400.81,240.39 401.11,240.02 401.42,239.71C401.71,239.42 402.02,239.16 402.33,238.95C402.62,238.76 402.92,238.59 403.23,238.48C403.52,238.38 403.84,238.32 404.14,238.32C404.44,238.32 404.75,238.36 405.04,238.45C405.35,238.54 405.66,238.69 405.95,238.87C406.26,239.06 406.56,239.31 406.85,239.57C407.16,239.85 407.46,240.18 407.75,240.53C408.06,240.9 408.37,241.31 408.66,241.73C408.97,242.18 409.27,242.66 409.56,243.16C409.87,243.68 410.17,244.23 410.47,244.8C410.78,245.39 411.07,246.01 411.37,246.63C411.67,247.27 411.97,247.94 412.27,248.61C412.58,249.3 412.88,250.01 413.18,250.72C413.48,251.45 413.78,252.19 414.08,252.93C414.38,253.69 414.69,254.45 414.99,255.22C415.29,255.99 415.59,256.77 415.89,257.55C416.19,258.33 416.49,259.12 416.79,259.9C417.09,260.68 417.4,261.46 417.7,262.23C418,263 418.3,263.76 418.6,264.52C418.9,265.27 419.21,266.02 419.51,266.75C419.81,267.47 420.11,268.19 420.41,268.89C420.71,269.58 421.01,270.26 421.32,270.92C421.62,271.57 421.91,272.2 422.22,272.82C422.52,273.42 422.81,274 423.12,274.57C423.42,275.12 423.72,275.65 424.03,276.17C424.33,276.66 424.62,277.15 424.93,277.6C425.22,278.03 425.53,278.45 425.84,278.84C426.13,279.21 426.43,279.57 426.74,279.9C427.03,280.21 427.33,280.49 427.64,280.75C427.93,280.99 428.24,281.22 428.55,281.41C428.84,281.59 429.14,281.75 429.45,281.88C429.75,282.01 430.05,282.11 430.36,282.19C430.66,282.27 430.96,282.32 431.26,282.36C431.56,282.4 431.86,282.41 432.16,282.42C432.46,282.43 432.77,282.42 433.07,282.4C433.37,282.38 433.67,282.35 433.97,282.32C434.27,282.29 434.58,282.26 434.88,282.23C435.18,282.2 435.48,282.15 435.78,282.12C436.08,282.09 436.38,282.05 436.68,282.03C436.98,282 437.29,281.98 437.59,281.97C437.89,281.96 438.19,281.95 438.49,281.95C438.79,281.95 439.1,281.96 439.4,281.98C439.7,282 440,282.04 440.3,282.08C440.6,282.12 440.91,282.17 441.21,282.24C441.51,282.31 441.81,282.39 442.11,282.49C442.41,282.59 442.71,282.7 443.01,282.82C443.32,282.95 443.62,283.09 443.92,283.25C444.22,283.41 444.52,283.59 444.82,283.78C445.13,283.98 445.43,284.18 445.73,284.41C446.04,284.64 446.33,284.89 446.63,285.15C446.93,285.42 447.23,285.7 447.53,285.99C447.84,286.29 448.14,286.6 448.44,286.93C448.75,287.26 449.04,287.61 449.34,287.97C449.65,288.34 449.95,288.72 450.25,289.1C450.55,289.49 450.85,289.89 451.15,290.3C451.45,290.72 451.75,291.15 452.05,291.58C452.35,292.02 452.66,292.47 452.96,292.92C453.26,293.37 453.56,293.83 453.86,294.29C454.16,294.75 454.47,295.22 454.77,295.68C455.07,296.14 455.37,296.61 455.67,297.07C455.97,297.52 456.28,297.98 456.58,298.42C456.88,298.86 457.18,299.3 457.48,299.72C457.78,300.13 458.07,300.54 458.38,300.92C458.68,301.29 458.98,301.65 459.29,301.99C459.58,302.31 459.88,302.62 460.19,302.89C460.48,303.14 460.79,303.38 461.1,303.57Q461.39,303.75 462,304" style="vector-effect: non-scaling-stroke; fill: none; stroke: rgb(231, 107, 243); stroke-opacity: 1; stroke-width: 2px; opacity: 1;"/></g><g class="points"/><g class="text"/></g></g></g><g class="overplot"/><path class="xlines-above crisp" d="M0,0" style="fill: none;"/><path class="ylines-above crisp" d="M0,0" style="fill: none;"/><g class="overlines-above"/><g class="xaxislayer-above"><g class="xtick"><text text-anchor="middle" x="0" y="433" transform="translate(80,0)" style="font-family: 'Open Sans', verdana, arial, sans-serif; font-size: 12px; fill: rgb(42, 63, 95); fill-opacity: 1; white-space: pre;">0</text></g><g class="xtick"><text text-anchor="middle" x="0" y="433" transform="translate(170.23000000000002,0)" style="font-family: 'Open Sans', verdana, arial, sans-serif; font-size: 12px; fill: rgb(42, 63, 95); fill-opacity: 1; white-space: pre;">100</text></g><g class="xtick"><text text-anchor="middle" x="0" y="433" transform="translate(260.47,0)" style="font-family: 'Open Sans', verdana, arial, sans-serif; font-size: 12px; fill: rgb(42, 63, 95); fill-opacity: 1; white-space: pre;">200</text></g><g class="xtick"><text text-anchor="middle" x="0" y="433" transform="translate(350.7,0)" style="font-family: 'Open Sans', verdana, arial, sans-serif; font-size: 12px; fill: rgb(42, 63, 95); fill-opacity: 1; white-space: pre;">300</text></g><g class="xtick"><text text-anchor="middle" x="0" y="433" transform="translate(440.94,0)" style="font-family: 'Open Sans', verdana, arial, sans-serif; font-size: 12px; fill: rgb(42, 63, 95); fill-opacity: 1; white-space: pre;">400</text></g><g class="xtick"><text text-anchor="middle" x="0" y="433" transform="translate(531.1700000000001,0)" style="font-family: 'Open Sans', verdana, arial, sans-serif; font-size: 12px; fill: rgb(42, 63, 95); fill-opacity: 1; white-space: pre;">500</text></g></g><g class="yaxislayer-above"><g class="ytick"><text text-anchor="end" x="79" y="4.199999999999999" transform="translate(0,373.22)" style="font-family: 'Open Sans', verdana, arial, sans-serif; font-size: 12px; fill: rgb(42, 63, 95); fill-opacity: 1; white-space: pre;">50</text></g><g class="ytick"><text text-anchor="end" x="79" y="4.199999999999999" transform="translate(0,306.13)" style="font-family: 'Open Sans', verdana, arial, sans-serif; font-size: 12px; fill: rgb(42, 63, 95); fill-opacity: 1; white-space: pre;">100</text></g><g class="ytick"><text text-anchor="end" x="79" y="4.199999999999999" transform="translate(0,239.03)" style="font-family: 'Open Sans', verdana, arial, sans-serif; font-size: 12px; fill: rgb(42, 63, 95); fill-opacity: 1; white-space: pre;">150</text></g><g class="ytick"><text text-anchor="end" x="79" y="4.199999999999999" transform="translate(0,171.94)" style="font-family: 'Open Sans', verdana, arial, sans-serif; font-size: 12px; fill: rgb(42, 63, 95); fill-opacity: 1; white-space: pre;">200</text></g><g class="ytick"><text text-anchor="end" x="79" y="4.199999999999999" transform="translate(0,104.85)" style="font-family: 'Open Sans', verdana, arial, sans-serif; font-size: 12px; fill: rgb(42, 63, 95); fill-opacity: 1; white-space: pre;">250</text></g></g><g class="overaxes-above"/></g></g><g class="polarlayer"/><g class="ternarylayer"/><g class="geolayer"/><g class="funnelarealayer"/><g class="pielayer"/><g class="treemaplayer"/><g class="sunburstlayer"/><g class="glimages"/><defs id="topdefs-fe449c"><g class="clips"/><clipPath id="legendfe449c"><rect width="137" height="67" x="0" y="0"/></clipPath></defs><g class="layer-above"><g class="imagelayer"/><g class="shapelayer"/></g><g class="infolayer"><g class="legend" pointer-events="all" transform="translate(551.24, 100)"><rect class="bg" shape-rendering="crispEdges" width="137" height="67" x="0" y="0" style="stroke: rgb(68, 68, 68); stroke-opacity: 1; fill: rgb(255, 255, 255); fill-opacity: 1; stroke-width: 0px;"/><g class="scrollbox" transform="translate(0, 0)" clip-path="url('#legendfe449c')"><g class="groups"><g class="traces" transform="translate(0, 14.5)" style="opacity: 1;"><text class="legendtext" text-anchor="start" x="40" y="4.680000000000001" style="font-family: 'Open Sans', verdana, arial, sans-serif; font-size: 12px; fill: rgb(42, 63, 95); fill-opacity: 1; white-space: pre;">Average Class I</text><g class="layers" style="opacity: 1;"><g class="legendfill"/><g class="legendlines"><path class="js-line" d="M5,0h30" style="fill: none; stroke: rgb(0, 100, 80); stroke-opacity: 1; stroke-width: 2px;"/></g><g class="legendsymbols"><g class="legendpoints"/></g></g><rect class="legendtoggle" x="0" y="-9.5" width="131.15625" height="19" style="fill: rgb(0, 0, 0); fill-opacity: 0;"/></g><g class="traces" transform="translate(0, 33.5)" style="opacity: 1;"><text class="legendtext" text-anchor="start" x="40" y="4.680000000000001" style="font-family: 'Open Sans', verdana, arial, sans-serif; font-size: 12px; fill: rgb(42, 63, 95); fill-opacity: 1; white-space: pre;">Average Class II</text><g class="layers" style="opacity: 1;"><g class="legendfill"/><g class="legendlines"><path class="js-line" d="M5,0h30" style="fill: none; stroke: rgb(0, 176, 246); stroke-opacity: 1; stroke-width: 2px;"/></g><g class="legendsymbols"><g class="legendpoints"/></g></g><rect class="legendtoggle" x="0" y="-9.5" width="131.15625" height="19" style="fill: rgb(0, 0, 0); fill-opacity: 0;"/></g><g class="traces" transform="translate(0, 52.5)" style="opacity: 1;"><text class="legendtext" text-anchor="start" x="40" y="4.680000000000001" style="font-family: 'Open Sans', verdana, arial, sans-serif; font-size: 12px; fill: rgb(42, 63, 95); fill-opacity: 1; white-space: pre;">Average Class III</text><g class="layers" style="opacity: 1;"><g class="legendfill"/><g class="legendlines"><path class="js-line" d="M5,0h30" style="fill: none; stroke: rgb(231, 107, 243); stroke-opacity: 1; stroke-width: 2px;"/></g><g class="legendsymbols"><g class="legendpoints"/></g></g><rect class="legendtoggle" x="0" y="-9.5" width="131.15625" height="19" style="fill: rgb(0, 0, 0); fill-opacity: 0;"/></g></g></g><rect class="scrollbar" rx="20" ry="3" width="0" height="0" x="0" y="0" style="fill: rgb(128, 139, 164); fill-opacity: 1;"/></g><g class="g-gtitle"><text class="gtitle" x="35" y="50" text-anchor="start" dy="0em" style="font-family: 'Open Sans', verdana, arial, sans-serif; font-size: 17px; fill: rgb(42, 63, 95); opacity: 1; font-weight: normal; white-space: pre;">Average curve: hydrophobicity_group</text></g><g class="g-xtitle"><text class="xtitle" x="311" y="460.8" text-anchor="middle" style="font-family: 'Open Sans', verdana, arial, sans-serif; font-size: 14px; fill: rgb(42, 63, 95); opacity: 1; font-weight: normal; white-space: pre;">Domain</text></g><g class="g-ytitle"><text class="ytitle" transform="rotate(-90,34.16875,260)" x="34.16875" y="260" text-anchor="middle" style="font-family: 'Open Sans', verdana, arial, sans-serif; font-size: 14px; fill: rgb(42, 63, 95); opacity: 1; font-weight: normal; white-space: pre;">Frequency</text></g></g></svg>