<svg class="main-svg" xmlns="http://www.w3.org/2000/svg" xmlns:xlink="http://www.w3.org/1999/xlink" width="700" height="500" style="" viewBox="0 0 700 500"><rect x="0" y="0" width="700" height="500" style="fill: rgb(255, 255, 255); fill-opacity: 1;"/><defs id="defs-e3df09"><g class="clips"><clipPath id="clipe3df09xyplot" class="plotclip"><rect width="497" height="320"/></clipPath><clipPath class="axesclip" id="clipe3df09x"><rect x="80" y="0" width="497" height="500"/></clipPath><clipPath class="axesclip" id="clipe3df09y"><rect x="0" y="100" width="700" height="320"/></clipPath><clipPath class="axesclip" id="clipe3df09xy"><rect x="80" y="100" width="497" height="320"/></clipPath></g><g class="gradients"/></defs><g class="bglayer"><rect class="bg" x="80" y="100" width="497" height="320" style="fill: rgb(229, 236, 246); fill-opacity: 1; stroke-width: 0;"/></g><g class="layer-below"><g class="imagelayer"/><g class="shapelayer"/></g><g class="cartesianlayer"><g class="subplot xy"><g class="layer-subplot"><g class="shapelayer"/><g class="imagelayer"/></g><g class="gridlayer"><g class="x"><path class="xgrid crisp" transform="translate(157.66,0)" d="M0,100v320" style="stroke: rgb(255, 255, 255); stroke-opacity: 1; stroke-width: 1px;"/><path class="xgrid crisp" transform="translate(235.31,0)" d="M0,100v320" style="stroke: rgb(255, 255, 255); stroke-opacity: 1; stroke-width: 1px;"/><path class="xgrid crisp" transform="translate(312.97,0)" d="M0,100v320" style="stroke: rgb(255, 255, 255); stroke-opacity: 1; stroke-width: 1px;"/><path class="xgrid crisp" transform="translate(390.63,0)" d="M0,100v320" style="stroke: rgb(255, 255, 255); stroke-opacity: 1; stroke-width: 1px;"/><path class="xgrid crisp" transform="translate(468.28,0)" d="M0,100v320" style="stroke: rgb(255, 255, 255); stroke-opacity: 1; stroke-width: 1px;"/><path class="xgrid crisp" transform="translate(545.94,0)" d="M0,100v320" style="stroke: rgb(255, 255, 255); stroke-opacity: 1; stroke-width: 1px;"/></g><g class="y"><path class="ygrid crisp" transform="translate(0,371.84)" d="M80,0h497" style="stroke: rgb(255, 255, 255); stroke-opacity: 1; stroke-width: 1px;"/><path class="ygrid crisp" transform="translate(0,322.7)" d="M80,0h497" style="stroke: rgb(255, 255, 255); stroke-opacity: 1; stroke-width: 1px;"/><path class="ygrid crisp" transform="translate(0,273.55)" d="M80,0h497" style="stroke: rgb(255, 255, 255); stroke-opacity: 1; stroke-width: 1px;"/><path class="ygrid crisp" transform="translate(0,224.4)" d="M80,0h497" style="stroke: rgb(255, 255, 255); stroke-opacity: 1; stroke-width: 1px;"/><path class="ygrid crisp" transform="translate(0,175.26)" d="M80,0h497" style="stroke: rgb(255, 255, 255); stroke-opacity: 1; stroke-width: 1px;"/><path class="ygrid crisp" transform="translate(0,126.11)" d="M80,0h497" style="stroke: rgb(255, 255, 255); stroke-opacity: 1; stroke-width: 1px;"/></g></g><g class="zerolinelayer"><path class="xzl zl crisp" transform="translate(80,0)" d="M0,100v320" style="stroke: rgb(255, 255, 255); stroke-opacity: 1; stroke-width: 2px;"/></g><path class="xlines-below"/><path class="ylines-below"/><g class="overlines-below"/><g class="xaxislayer-below"/><g class="yaxislayer-below"/><g class="overaxes-below"/><g class="plot" transform="translate(80, 100)" clip-path="url('#clipe3df09xyplot')"><g class="scatterlayer mlayer"><g class="trace scatter trace1cb5d5" style="stroke-miterlimit: 2; opacity: 1;"><g class="fills"/><g class="errorbars"/><g class="lines"><path class="js-line" d="M0,160.32Q10.81,154.01 16.03,150.23C21.5,146.27 27.61,144.51 32.06,137C41.07,121.81 39.97,55.34 48.1,53.37C52.59,52.28 59.7,62.68 64.13,73.86C75.69,103.02 67.81,223.47 80.16,250.12C84.6,259.7 90.53,262.06 96.19,266.42C101.28,270.34 107.8,277.68 112.23,275.58C122.32,270.8 118.79,184.55 128.26,181.11C132.7,179.5 139.86,196.43 144.29,194.76C154.45,190.94 155.48,85.01 160.32,85.15C166.49,85.32 170.4,264.39 176.35,264.51C181.28,264.61 186.56,142.12 192.39,141.98C197.38,141.86 201.89,206.85 208.42,231.29C213.14,248.97 219.17,276.01 224.45,275.96C229.86,275.91 235.84,247.96 240.48,228.68C247.39,199.98 247.23,140.23 256.52,119.2C260.96,109.15 268.06,109.23 272.55,99.65C280.78,82.07 283.45,15.92 288.58,16C294.17,16.08 296.93,92.23 304.61,115.69C309.14,129.54 315.45,136.14 320.65,147.03C326.16,158.58 329.65,176.61 336.68,183.18C341.3,187.5 347.79,190.38 352.71,189.04C358.68,187.41 363.72,169.11 368.74,169.58C374.51,170.12 379.87,187.57 384.77,198.69C390.78,212.32 395.88,246.23 400.81,245.97C406.77,245.65 411.75,174.6 416.84,174.71C422.5,174.83 426.86,263.18 432.87,263.46C437.77,263.68 440.36,213.72 448.9,205.6C453.37,201.35 460.51,206.6 464.94,202.02C475.1,191.52 476.25,116.88 480.97,117.09Q487.52,117.38 497,282.62" style="vector-effect: non-scaling-stroke; fill: none; stroke: rgb(0, 100, 80); stroke-opacity: 1; stroke-width: 2px; opacity: 1;"/></g><g class="points"/><g class="text"/></g><g class="trace scatter traced23f37" style="stroke-miterlimit: 2; opacity: 1;"><g class="fills"/><g class="errorbars"/><g class="lines"><path class="js-line" d="M0,197.72Q10.02,155.78 16.03,138.47C20.93,124.37 26.04,111.54 32.06,101.03C36.96,92.47 42.46,85.68 48.1,79.28C53.2,73.48 59.69,62.32 64.13,63.98C76.44,68.58 66.78,212.16 80.16,233.8C84.61,241 90.86,240.4 96.19,243.79C101.55,247.2 107.73,255.95 112.23,254.22C120.35,251.1 119.5,199.71 128.26,193.89C132.72,190.93 139.85,199.49 144.29,196.12C156.42,186.9 155.45,76.1 160.32,76.22C166.41,76.37 169.84,264.83 176.35,265.08C181.08,265.26 186.45,166.45 192.39,166.23C197.32,166.05 199.58,228.95 208.42,233.32C212.88,235.52 219.37,225.35 224.45,226.21C230.13,227.17 236.05,242.86 240.48,241.22C251.96,236.97 247.53,125.34 256.52,94.56C260.97,79.32 267.38,73.49 272.55,62.15C278.09,50.01 282.61,24.51 288.58,23.88C293.5,23.36 299.86,37.45 304.61,47.04C311.06,60.06 313.09,86.91 320.65,96.46C325.19,102.19 331.82,101.45 336.68,106.17C342.78,112.09 348.15,119.85 352.71,130.9C360.12,148.86 362.86,184.07 368.74,207.06C373.7,226.47 379.17,243.37 384.77,260.15C389.9,275.54 396.31,304.55 400.81,304C408.84,303.02 411.47,156.37 416.84,156.37C422.16,156.37 427.31,301.53 432.87,301.58C438.03,301.63 439.97,178.64 448.9,176.78C453.35,175.85 460.43,204.51 464.94,203.67C472.83,202.2 476.21,109.28 480.97,109.46Q487.35,109.7 497,280.28" style="vector-effect: non-scaling-stroke; fill: none; stroke: rgb(0, 176, 246); stroke-opacity: 1; stroke-width: 2px; opacity: 1;"/></g><g class="points"/><g class="text"/></g><g class="trace scatter traced8df7c" style="stroke-miterlimit: 2; opacity: 1;"><g class="fills"/><g class="errorbars"/><g class="lines"><path class="js-line" d="M0,178.42Q11.14,159.21 16.03,147.33C22.07,132.64 24.03,104.32 32.06,96.3C36.56,91.81 43.06,94.2 48.1,91.29C53.84,87.98 59.7,74.97 64.13,76.53C73.95,79.98 74.04,151.34 80.16,182.23C85.01,206.72 87.08,240.35 96.19,247.5C100.64,250.99 106.92,248.16 112.23,247.52C117.61,246.87 123.81,248.66 128.26,243.6C141.43,228.62 136.97,100.59 144.29,99.94C148.86,99.53 155.64,132.37 160.32,153.95C167.04,184.95 167.76,267.37 176.35,269.09C180.82,269.99 187.22,241.81 192.39,242.01C197.94,242.22 203.88,275.24 208.42,274.56C215.97,273.43 218.19,175.97 224.45,175.61C229.25,175.34 235.95,232.88 240.48,232.47C248.12,231.78 248.62,66.22 256.52,65.42C261.03,64.96 266.83,117.48 272.55,117.73C277.6,117.95 281.41,81.16 288.58,78.26C293.17,76.4 300.17,79.81 304.61,85.32C314.12,97.11 315.59,164.22 320.65,164.11C326.36,163.99 331.39,62.96 336.68,62.98C342.08,63 343.52,147.92 352.71,168.2C357.15,178.01 364.27,177.7 368.74,187.25C377.32,205.6 375,263.27 384.77,277.77C389.2,284.35 396.35,289.67 400.81,287.82C409.53,284.2 410.45,217.95 416.84,217.35C421.6,216.9 425.7,248.15 432.87,254.19C437.46,258.06 444.12,259.97 448.9,258.11C455.22,255.65 459.79,242.69 464.94,234.15C470.51,224.91 475.91,204.18 480.97,204.46Q486.67,204.78 497,244.2" style="vector-effect: non-scaling-stroke; fill: none; stroke: rgb(231, 107, 243); stroke-opacity: 1; stroke-width: 2px; opacity: 1;"/></g><g class="points"/><g class="text"/></g></g></g><g class="overplot"/><path class="xlines-above crisp" d="M0,0" style="fill: none;"/><path class="ylines-above crisp" d="M0,0" style="fill: none;"/><g class="overlines-above"/><g class="xaxislayer-above"><g class="xtick"><text text-anchor="middle" x="0" y="433" transform="translate(80,0)" style="font-family: 'Open Sans', verdana, arial, sans-serif; font-size: 12px; fill: rgb(42, 63, 95); fill-opacity: 1; white-space: pre;">0</text></g><g class="xtick"><text text-anchor="middle" x="0" y="433" transform="translate(157.66,0)" style="font-family: 'Open Sans', verdana, arial, sans-serif; font-size: 12px; fill: rgb(42, 63, 95); fill-opacity: 1; white-space: pre;">5</text></g><g class="xtick"><text text-anchor="middle" x="0" y="433" transform="translate(235.31,0)" style="font-family: 'Open Sans', verdana, arial, sans-serif; font-size: 12px; fill: rgb(42, 63, 95); fill-opacity: 1; white-space: pre;">10</text></g><g class="xtick"><text text-anchor="middle" x="0" y="433" transform="translate(312.97,0)" style="font-family: 'Open Sans', verdana, arial, sans-serif; font-size: 12px; fill: rgb(42, 63, 95); fill-opacity: 1; white-space: pre;">15</text></g><g class="xtick"><text text-anchor="middle" x="0" y="433" transform="translate(390.63,0)" style="font-family: 'Open Sans', verdana, arial, sans-serif; font-size: 12px; fill: rgb(42, 63, 95); fill-opacity: 1; white-space: pre;">20</text></g><g class="xtick"><text text-anchor="middle" x="0" y="433" transform="translate(468.28,0)" style="font-family: 'Open Sans', verdana, arial, sans-serif; font-size: 12px; fill: rgb(42, 63, 95); fill-opacity: 1; white-space: pre;">25</text></g><g class="xtick"><text text-anchor="middle" x="0" y="433" transform="translate(545.94,0)" style="font-family: 'Open Sans', verdana, arial, sans-serif; font-size: 12px; fill: rgb(42, 63, 95); fill-opacity: 1; white-space: pre;">30</text></g></g><g class="yaxislayer-above"><g class="ytick"><text text-anchor="end" x="79" y="4.199999999999999" transform="translate(0,371.84)" style="font-family: 'Open Sans', verdana, arial, sans-serif; font-size: 12px; fill: rgb(42, 63, 95); fill-opacity: 1; white-space: pre;">5</text></g><g class="ytick"><text text-anchor="end" x="79" y="4.199999999999999" transform="translate(0,322.7)" style="font-family: 'Open Sans', verdana, arial, sans-serif; font-size: 12px; fill: rgb(42, 63, 95); fill-opacity: 1; white-space: pre;">10</text></g><g class="ytick"><text text-anchor="end" x="79" y="4.199999999999999" transform="translate(0,273.55)" style="font-family: 'Open Sans', verdana, arial, sans-serif; font-size: 12px; fill: rgb(42, 63, 95); fill-opacity: 1; white-space: pre;">15</text></g><g class="ytick"><text text-anchor="end" x="79" y="4.199999999999999" transform="translate(0,224.4)" style="font-family: 'Open Sans', verdana, arial, sans-serif; font-size: 12px; fill: rgb(42, 63, 95); fill-opacity: 1; white-space: pre;">20</text></g><g class="ytick"><text text-anchor="end" x="79" y="4.199999999999999" transform="translate(0,175.26)" style="font-family: 'Open Sans', verdana, arial, sans-serif; font-size: 12px; fill: rgb(42, 63, 95); fill-opacity: 1; white-space: pre;">25</text></g><g class="ytick"><text text-anchor="end" x="79" y="4.199999999999999" transform="translate(0,126.11)" style="font-family: 'Open Sans', verdana, arial, sans-serif; font-size: 12px; fill: rgb(42, 63, 95); fill-opacity: 1; white-space: pre;">30</text></g></g><g class="overaxes-above"/></g></g><g class="polarlayer"/><g class="ternarylayer"/><g class="geolayer"/><g class="funnelarealayer"/><g class="pielayer"/><g class="treemaplayer"/><g class="sunburstlayer"/><g class="glimages"/><defs id="topdefs-e3df09"><g class="clips"/><clipPath id="legende3df09"><rect width="101" height="67" x="0" y="0"/></clipPath></defs><g class="layer-above"><g class="imagelayer"/><g class="shapelayer"/></g><g class="infolayer"><g class="legend" pointer-events="all" transform="translate(586.94, 100)"><rect class="bg" shape-rendering="crispEdges" width="101" height="67" x="0" y="0" style="stroke: rgb(68, 68, 68); stroke-opacity: 1; fill: rgb(255, 255, 255); fill-opacity: 1; stroke-width: 0px;"/><g class="scrollbox" transform="translate(0, 0)" clip-path="url('#legende3df09')"><g class="groups"><g class="traces" transform="translate(0, 14.5)" style="opacity: 1;"><text class="legendtext" text-anchor="start" x="40" y="4.680000000000001" style="font-family: 'Open Sans', verdana, arial, sans-serif; font-size: 12px; fill: rgb(42, 63, 95); fill-opacity: 1; white-space: pre;">PBD-CHR</text><g class="layers" style="opacity: 1;"><g class="legendfill"/><g class="legendlines"><path class="js-line" d="M5,0h30" style="fill: none; stroke: rgb(0, 100, 80); stroke-opacity: 1; stroke-width: 2px;"/></g><g class="legendsymbols"><g class="legendpoints"/></g></g><rect class="legendtoggle" x="0" y="-9.5" width="95.015625" height="19" style="fill: rgb(0, 0, 0); fill-opacity: 0;"/></g><g class="traces" transform="translate(0, 33.5)" style="opacity: 1;"><text class="legendtext" text-anchor="start" x="40" y="4.680000000000001" style="font-family: 'Open Sans', verdana, arial, sans-serif; font-size: 12px; fill: rgb(42, 63, 95); fill-opacity: 1; white-space: pre;">CHR-full</text><g class="layers" style="opacity: 1;"><g class="legendfill"/><g class="legendlines"><path class="js-line" d="M5,0h30" style="fill: none; stroke: rgb(0, 176, 246); stroke-opacity: 1; stroke-width: 2px;"/></g><g class="legendsymbols"><g class="legendpoints"/></g></g><rect class="legendtoggle" x="0" y="-9.5" width="95.015625" height="19" style="fill: rgb(0, 0, 0); fill-opacity: 0;"/></g><g class="traces" transform="translate(0, 52.5)" style="opacity: 1;"><text class="legendtext" text-anchor="start" x="40" y="4.680000000000001" style="font-family: 'Open Sans', verdana, arial, sans-serif; font-size: 12px; fill: rgb(42, 63, 95); fill-opacity: 1; white-space: pre;">CHR-LPB</text><g class="layers" style="opacity: 1;"><g class="legendfill"/><g class="legendlines"><path class="js-line" d="M5,0h30" style="fill: none; stroke: rgb(231, 107, 243); stroke-opacity: 1; stroke-width: 2px;"/></g><g class="legendsymbols"><g class="legendpoints"/></g></g><rect class="legendtoggle" x="0" y="-9.5" width="95.015625" height="19" style="fill: rgb(0, 0, 0); fill-opacity: 0;"/></g></g></g><rect class="scrollbar" rx="20" ry="3" width="0" height="0" x="0" y="0" style="fill: rgb(128, 139, 164); fill-opacity: 1;"/></g><g class="g-gtitle"><text class="gtitle" x="35" y="50" text-anchor="start" dy="0em" style="font-family: 'Open Sans', verdana, arial, sans-serif; font-size: 17px; fill: rgb(42, 63, 95); opacity: 1; font-weight: normal; white-space: pre;">Comparison domains curves for : betha-structure_group</text></g><g class="g-xtitle"><text class="xtitle" x="328.5" y="460.8" text-anchor="middle" style="font-family: 'Open Sans', verdana, arial, sans-serif; font-size: 14px; fill: rgb(42, 63, 95); opacity: 1; font-weight: normal; white-space: pre;">Domain</text></g><g class="g-ytitle"><text class="ytitle" transform="rotate(-90,40.840625,260)" x="40.840625" y="260" text-anchor="middle" style="font-family: 'Open Sans', verdana, arial, sans-serif; font-size: 14px; fill: rgb(42, 63, 95); opacity: 1; font-weight: normal; white-space: pre;">Frequency</text></g></g></svg>