<svg class="main-svg" xmlns="http://www.w3.org/2000/svg" xmlns:xlink="http://www.w3.org/1999/xlink" width="700" height="500" style="" viewBox="0 0 700 500"><rect x="0" y="0" width="700" height="500" style="fill: rgb(255, 255, 255); fill-opacity: 1;"/><defs id="defs-6a6ece"><g class="clips"><clipPath id="clip6a6ecexyplot" class="plotclip"><rect width="462" height="320"/></clipPath><clipPath class="axesclip" id="clip6a6ecex"><rect x="80" y="0" width="462" height="500"/></clipPath><clipPath class="axesclip" id="clip6a6ecey"><rect x="0" y="100" width="700" height="320"/></clipPath><clipPath class="axesclip" id="clip6a6ecexy"><rect x="80" y="100" width="462" height="320"/></clipPath></g><g class="gradients"/></defs><g class="bglayer"><rect class="bg" x="80" y="100" width="462" height="320" style="fill: rgb(229, 236, 246); fill-opacity: 1; stroke-width: 0;"/></g><g class="layer-below"><g class="imagelayer"/><g class="shapelayer"/></g><g class="cartesianlayer"><g class="subplot xy"><g class="layer-subplot"><g class="shapelayer"/><g class="imagelayer"/></g><g class="gridlayer"><g class="x"><path class="xgrid crisp" transform="translate(170.23000000000002,0)" d="M0,100v320" style="stroke: rgb(255, 255, 255); stroke-opacity: 1; stroke-width: 1px;"/><path class="xgrid crisp" transform="translate(260.47,0)" d="M0,100v320" style="stroke: rgb(255, 255, 255); stroke-opacity: 1; stroke-width: 1px;"/><path class="xgrid crisp" transform="translate(350.7,0)" d="M0,100v320" style="stroke: rgb(255, 255, 255); stroke-opacity: 1; stroke-width: 1px;"/><path class="xgrid crisp" transform="translate(440.94,0)" d="M0,100v320" style="stroke: rgb(255, 255, 255); stroke-opacity: 1; stroke-width: 1px;"/><path class="xgrid crisp" transform="translate(531.1700000000001,0)" d="M0,100v320" style="stroke: rgb(255, 255, 255); stroke-opacity: 1; stroke-width: 1px;"/></g><g class="y"><path class="ygrid crisp" transform="translate(0,364.5)" d="M80,0h462" style="stroke: rgb(255, 255, 255); stroke-opacity: 1; stroke-width: 1px;"/><path class="ygrid crisp" transform="translate(0,321.78)" d="M80,0h462" style="stroke: rgb(255, 255, 255); stroke-opacity: 1; stroke-width: 1px;"/><path class="ygrid crisp" transform="translate(0,279.07)" d="M80,0h462" style="stroke: rgb(255, 255, 255); stroke-opacity: 1; stroke-width: 1px;"/><path class="ygrid crisp" transform="translate(0,236.35)" d="M80,0h462" style="stroke: rgb(255, 255, 255); stroke-opacity: 1; stroke-width: 1px;"/><path class="ygrid crisp" transform="translate(0,193.64)" d="M80,0h462" style="stroke: rgb(255, 255, 255); stroke-opacity: 1; stroke-width: 1px;"/><path class="ygrid crisp" transform="translate(0,150.92000000000002)" d="M80,0h462" style="stroke: rgb(255, 255, 255); stroke-opacity: 1; stroke-width: 1px;"/><path class="ygrid crisp" transform="translate(0,108.21000000000001)" d="M80,0h462" style="stroke: rgb(255, 255, 255); stroke-opacity: 1; stroke-width: 1px;"/></g></g><g class="zerolinelayer"><path class="xzl zl crisp" transform="translate(80,0)" d="M0,100v320" style="stroke: rgb(255, 255, 255); stroke-opacity: 1; stroke-width: 2px;"/><path class="yzl zl crisp" transform="translate(0,407.21)" d="M80,0h462" style="stroke: rgb(255, 255, 255); stroke-opacity: 1; stroke-width: 2px;"/></g><path class="xlines-below"/><path class="ylines-below"/><g class="overlines-below"/><g class="xaxislayer-below"/><g class="yaxislayer-below"/><g class="overaxes-below"/><g class="plot" transform="translate(80, 100)" clip-path="url('#clip6a6ecexyplot')"><g class="scatterlayer mlayer"><g class="trace scatter trace90c93f" style="stroke-miterlimit: 2; opacity: 1;"><g class="fills"/><g class="errorbars"/><g class="lines"><path class="js-line" d="M0,248.34Q0.53,290.56 1.81,290.71C2.31,290.77 3.07,286.81 3.62,284.47C4.31,281.53 4.93,278.88 5.44,274.42C6.43,265.71 6.61,247.77 7.25,235.55C7.82,224.63 8.41,214.24 9.06,204.54C9.63,195.96 10.3,180.31 10.87,180.31C11.52,180.32 10.85,207.7 12.68,211.47C13.19,212.52 13.98,212.02 14.49,213.08C16.37,216.98 15.69,235.32 16.31,246.05C16.9,256.28 17.03,269.87 18.12,276.02C18.62,278.84 19.34,279.97 19.93,282.06C20.55,284.28 21.19,288.98 21.74,288.96C22.42,288.93 23.04,282.79 23.55,278.39C24.39,271.18 24.17,249.86 25.36,249.68C25.86,249.6 26.47,254.39 27.18,254.49C27.72,254.56 28.43,252.96 28.99,252.02C29.65,250.93 30.29,249.94 30.8,248.31C31.66,245.57 32.07,236.72 32.61,236.74C33.33,236.76 33.81,257.4 34.42,257.4C35.02,257.4 35.71,236.84 36.24,236.85C36.99,236.87 36.67,277.99 38.05,278.2C38.55,278.27 39.14,274.43 39.86,273.09C40.4,272.09 41.15,272.19 41.67,270.68C44.37,262.89 42.84,190.93 43.48,190.93C44.05,190.93 44.73,255.46 45.29,255.46C45.97,255.46 45.03,160.32 47.11,160.01C47.62,159.93 48.41,162.55 48.92,165.56C50.89,177.15 49.9,251.93 50.73,251.94C51.25,251.95 51.94,218.29 52.54,218.29C53.14,218.29 53.7,252.05 54.35,252.05C54.92,252.05 55.49,225.78 56.16,225.77C56.72,225.76 57.45,244.39 57.98,244.38C58.73,244.36 58.91,207.67 59.79,207.63C60.3,207.61 61.1,214.27 61.6,220.03C62.73,233 62.2,271.32 63.41,283.65C63.91,288.75 64.23,292.25 65.22,294.4C65.73,295.49 66.51,296.66 67.04,296.56C67.79,296.42 68.35,293.74 68.85,291.3C69.9,286.22 70.01,267.16 70.66,267.15C71.23,267.14 71.94,285.15 72.47,285.14C73.23,285.12 73.61,247.24 74.28,247.23C74.84,247.22 75.27,273.89 76.09,273.93C76.61,273.96 77.18,263.39 77.91,263.34C78.45,263.3 79.2,268.91 79.72,268.86C80.54,268.78 81.02,254.21 81.53,254.23C82.38,254.26 82.74,294.35 83.34,294.35C83.95,294.35 84.54,251.94 85.15,251.94C85.74,251.94 85.86,291.32 86.96,291.42C87.46,291.46 88.25,283.31 88.78,283.34C89.54,283.38 89.48,296.96 90.59,300.19C91.09,301.64 91.9,303.22 92.4,303.09C93.92,302.7 93.52,271.78 94.21,271.77C94.76,271.76 95.5,291.21 96.02,291.2C96.86,291.18 97.14,239.38 97.84,239.37C98.39,239.36 98.97,270.88 99.65,270.89C100.2,270.9 100.87,250.43 101.46,250.43C102.08,250.43 102.63,273.45 103.27,273.46C103.85,273.47 104.53,254.68 105.08,254.69C105.77,254.7 104.99,281.03 106.89,284.24C107.4,285.11 108.18,285.67 108.71,285.39C111.31,284.01 109.87,232.65 110.52,232.65C111.09,232.65 111.58,271.99 112.33,272.01C112.86,272.02 113.57,252.29 114.14,252.3C114.78,252.31 115.12,270.71 115.95,276.98C116.47,280.88 117.08,286.37 117.76,286.41C118.31,286.44 119.06,282.93 119.58,280.39C120.42,276.25 120.39,263.89 121.39,263.73C121.89,263.65 122.7,265.81 123.2,267.61C124.19,271.15 124.48,284.09 125.01,284.08C125.75,284.06 126.1,252.31 126.82,252.29C127.36,252.28 127.77,265.96 128.64,270.33C129.15,272.91 129.66,276.18 130.45,276.35C130.97,276.46 131.76,274.12 132.26,274.29C133.72,274.78 133.42,297.38 134.07,297.39C134.64,297.4 135.35,286.7 135.88,279.94C136.62,270.6 136.92,255.52 137.69,246.51C138.22,240.37 138.98,231.04 139.51,231.06C140.3,231.09 140.66,265.86 141.32,265.87C141.88,265.88 142.45,241.07 143.13,241.06C143.68,241.05 144.42,250.54 144.94,257.06C145.75,267.24 145.28,295.99 146.75,296.26C147.25,296.35 148.06,294.17 148.56,292.04C149.89,286.4 149.69,259.94 150.38,259.93C150.93,259.92 151.52,279.94 152.19,279.95C152.75,279.96 153.25,266.11 154,266.06C154.53,266.02 155.31,269.72 155.81,272.8C156.84,279.13 156.74,302.28 157.62,302.33C158.13,302.36 158.86,295.86 159.44,292.34C160.08,288.41 160.69,279.8 161.25,279.81C161.92,279.83 162.26,298.06 163.06,298.11C163.58,298.15 164.13,292.57 164.87,290.56C165.4,289.12 166.16,286.94 166.68,287.01C167.47,287.12 167.87,295.81 168.49,295.82C169.08,295.83 169.8,291.16 170.31,287.76C171.17,282.08 170.52,267.72 172.12,264.75C172.62,263.81 173.42,264.31 173.93,263.34C175.76,259.87 174.98,233.74 175.74,233.72C176.27,233.7 177.04,242.07 177.55,248C178.39,257.68 178.62,286.34 179.36,286.36C179.9,286.37 180.62,266.09 181.18,266.1C181.85,266.11 181.64,294.27 182.99,294.56C183.49,294.67 184.3,292.76 184.8,291.09C185.87,287.5 185.99,273.17 186.61,273.17C187.2,273.17 187.49,288.9 188.42,289.03C188.93,289.1 189.68,286.26 190.24,284.65C190.9,282.76 191.53,280.98 192.05,278.35C192.88,274.15 193.29,261.69 193.86,261.7C194.51,261.71 194.43,279.99 195.67,284C196.17,285.62 196.98,287.28 197.48,287.18C198.44,287 198.42,274.26 199.29,274.14C199.8,274.07 200.41,278.3 201.11,278.41C201.66,278.49 202.42,276.15 202.92,276.29C203.93,276.57 204.15,287.32 204.73,287.31C205.36,287.3 205.99,274.4 206.54,274.41C207.22,274.43 207.72,294.33 208.35,294.34C208.93,294.34 208.76,279.84 210.16,277.53C210.66,276.7 211.46,277.01 211.98,276.32C212.84,275.18 213.05,270.65 213.79,270.54C214.32,270.46 214.88,272.78 215.6,273.17C216.14,273.46 216.91,272.82 217.41,273.22C218.41,274.01 218.7,277.24 219.22,280.07C220.03,284.51 219.68,296.87 221.04,297.41C221.54,297.61 222.34,296.88 222.85,295.86C224.63,292.28 224.1,277.17 224.66,266.56C225.32,253.95 225.69,225.18 226.47,225.16C226.99,225.15 227.75,236.55 228.28,243.87C229.03,254.22 228.53,275.63 230.09,281.4C230.6,283.27 231.39,285.01 231.91,284.89C234.27,284.34 233.12,231.22 233.72,204.23C234.33,177.02 234.44,122.33 235.53,122.29C236.03,122.27 236.74,133.72 237.34,139.52C237.95,145.42 238.64,149.9 239.15,157.39C240.01,169.97 240.28,192.94 240.96,208.07C241.51,220.36 241.82,233.83 242.78,241.45C243.29,245.47 243.77,248.37 244.59,250.59C245.11,251.99 245.9,253.92 246.4,253.81C247.77,253.5 247.66,236.44 248.21,226.36C248.89,214.03 249.4,198.6 250.02,185.2C250.61,172.41 251.33,163.56 251.84,147.69C252.73,120.16 253.09,34.68 253.65,34.68C254.31,34.68 254.79,193.18 255.46,193.18C256.02,193.18 256.71,83.7 257.27,83.7C257.93,83.7 258.22,232.03 259.08,232.04C259.59,232.05 260.36,179.3 260.89,179.3C261.64,179.31 260.31,271.11 262.71,282.97C263.23,285.54 263.99,287.58 264.52,287.48C267.59,286.9 262.86,138.06 266.33,124.35C266.87,122.23 267.61,120.78 268.14,120.91C271.54,121.73 269.19,278.64 269.95,278.64C270.48,278.64 271.05,201.59 271.76,201.58C272.3,201.58 272.83,233.76 273.58,246.1C274.11,254.89 274.89,268.69 275.39,268.67C276.55,268.63 276.13,147.7 277.2,147.67C277.7,147.66 278.45,164.43 279.01,173.94C279.67,185.21 280.28,196.84 280.82,210.9C281.54,229.57 281.27,276.02 282.64,276.14C283.14,276.19 283.58,267.81 284.45,267.62C284.96,267.51 285.76,268.78 286.26,270.05C287.43,273.03 287.57,286.64 288.07,286.62C289.42,286.56 285.66,167.38 289.88,164.79C290.42,164.46 291.15,164.84 291.69,165.68C295.24,171.25 292.64,254 293.51,254.02C294.02,254.03 294.65,223.57 295.32,223.56C295.88,223.55 296.54,244.44 297.13,244.44C297.75,244.44 298.04,226.51 298.94,220.91C299.45,217.74 300.25,213.5 300.75,213.55C302.32,213.72 301.98,287.22 302.56,287.22C303.2,287.22 303.6,198.67 304.38,198.66C304.9,198.65 305.31,228.59 306.19,238.21C306.7,243.77 306.65,250.27 308,251.33C308.5,251.72 309.3,250.71 309.81,251.14C311.84,252.85 311.08,279.55 311.62,279.54C312.32,279.53 312.53,232.13 313.44,232.09C313.95,232.07 314.64,241.95 315.25,246.84C315.85,251.69 316.52,261.33 317.06,261.31C317.78,261.29 318.14,234.86 318.87,234.84C319.41,234.82 320.17,243.15 320.68,249.17C321.54,259.32 321.49,281.07 322.49,290.19C323,294.8 323.81,300.56 324.31,300.52C325.43,300.44 325.22,248.6 326.12,248.57C326.63,248.55 327.39,258.82 327.93,265.06C328.64,273.23 329.02,293.38 329.74,293.4C330.28,293.41 330.99,283.12 331.55,277.35C332.21,270.61 332.81,255.41 333.36,255.42C334.05,255.43 334.59,290.15 335.18,290.15C335.81,290.15 336.4,250.29 336.99,250.29C337.61,250.29 337.98,294.72 338.8,294.75C339.32,294.77 339.33,277.65 340.61,277.23C341.11,277.07 341.88,278.39 342.42,279.23C343.13,280.33 343.73,281.59 344.24,283.42C345.12,286.56 345.52,296.71 346.05,296.69C346.8,296.66 347.24,269.59 347.86,269.59C348.45,269.59 348.65,294.02 349.67,294.14C350.17,294.2 350.85,290.21 351.48,288.4C352.06,286.75 352.79,283.63 353.29,283.7C354.29,283.84 354.37,303.57 355.11,303.6C355.65,303.62 355.72,293.99 356.92,293.17C357.42,292.83 358.22,293.83 358.73,293.53C359.64,293 360.01,290.13 360.54,287.91C361.28,284.81 361.27,278.59 362.35,276.56C362.85,275.62 363.57,274.85 364.16,274.87C364.78,274.9 365.37,276.87 365.98,276.87C366.58,276.87 367.28,274.77 367.79,274.91C368.71,275.16 369.1,283.45 369.6,283.41C370.8,283.31 370.68,233.31 371.41,233.3C371.94,233.29 372.61,251.14 373.22,259.97C373.82,268.69 374.48,285.98 375.04,285.97C375.71,285.96 376.29,249.13 376.85,249.13C377.51,249.13 378.11,300.45 378.66,300.45C379.35,300.45 379.38,219.72 380.47,219.67C380.97,219.65 381.61,231.44 382.28,236.51C382.84,240.72 383.41,244.58 384.09,248.03C384.65,250.88 385.4,252.35 385.91,255.77C386.87,262.24 387.01,276.06 387.72,284.2C388.26,290.36 388.99,300.39 389.53,300.38C390.26,300.36 390.73,270.24 391.34,270.24C391.93,270.24 392.51,298.21 393.15,298.21C393.73,298.21 394.15,275.55 394.96,275.5C395.48,275.47 396.19,284.73 396.78,284.72C397.4,284.71 398.08,279.03 398.59,274.63C399.53,266.47 399.04,245.52 400.4,239.44C400.9,237.21 401.71,234.94 402.21,235.03C403.59,235.27 402.91,271 404.02,271.11C404.52,271.16 405.32,266.9 405.84,263.96C406.65,259.39 407.13,246.17 407.65,246.19C408.47,246.22 407.92,284.1 409.46,291.24C409.96,293.58 410.77,295.8 411.27,295.72C412.36,295.55 412.42,279.84 413.08,272.84C413.64,266.88 414.36,262.83 414.89,256.3C415.65,246.87 416.07,221.66 416.71,221.66C417.29,221.66 417.97,239.79 418.52,250.43C419.2,263.66 419.7,294.96 420.33,294.96C420.91,294.96 421.29,257.89 422.14,257.85C422.65,257.83 423.33,266.86 423.95,271.22C424.54,275.41 425.22,283.57 425.76,283.55C426.48,283.53 426.58,261.89 427.58,261.77C428.08,261.71 428.88,264.76 429.39,267.06C430.28,271.11 430.69,284.22 431.2,284.2C432.1,284.17 432.11,230.44 433.01,230.41C433.52,230.39 433.83,243.82 434.82,247.54C435.33,249.45 436.12,251.75 436.64,251.69C437.44,251.59 437.95,241.36 438.45,241.39C439.49,241.46 439.65,286.42 440.26,286.42C440.86,286.42 441.5,242.4 442.07,242.4C442.71,242.4 442.63,296.68 443.88,296.79C444.38,296.83 444.98,290.73 445.69,288.33C446.23,286.49 446.88,285.07 447.51,283.56C448.09,282.17 448.76,281.07 449.32,279.6C449.98,277.87 450.61,273.74 451.13,273.79C451.94,273.86 451.92,288.1 452.94,288.31C453.44,288.41 454.25,285.14 454.75,285.25C455.9,285.51 456.02,304.01 456.56,304C457.28,303.98 457.53,270.65 458.38,270.61C458.89,270.59 459.53,278.97 460.19,282.65Q460.75,285.8 462,291.37" style="vector-effect: non-scaling-stroke; fill: none; stroke: rgb(0, 100, 80); stroke-opacity: 1; stroke-width: 2px; opacity: 1;"/></g><g class="points"/><g class="text"/></g><g class="trace scatter trace8e92aa" style="stroke-miterlimit: 2; opacity: 1;"><g class="fills"/><g class="errorbars"/><g class="lines"><path class="js-line" d="M0,234.69Q0.48,286.8 1.81,286.94C2.31,286.99 3.06,282.38 3.62,279.71C4.3,276.44 4.93,273.59 5.44,268.71C6.43,259.19 6.59,239.23 7.25,226.3C7.81,215.4 8.39,205.31 9.06,196.18C9.62,188.55 10.33,175.17 10.87,175.18C11.58,175.19 11.24,204.92 12.68,210.75C13.18,212.78 13.99,212.64 14.49,214.65C15.89,220.28 15.68,237.42 16.31,248.25C16.9,258.39 17.04,271.58 18.12,277.68C18.62,280.52 19.34,281.7 19.93,283.79C20.55,285.97 21.18,290.5 21.74,290.48C22.4,290.46 23.04,285.05 23.55,281.16C24.39,274.81 24.25,256.04 25.36,255.88C25.86,255.81 26.41,260.57 27.18,260.76C27.71,260.89 28.42,259.8 28.99,259.16C29.64,258.42 30.29,257.72 30.8,256.49C31.68,254.37 32.08,247.09 32.61,247.11C33.34,247.14 33.81,264.97 34.42,264.97C35.02,264.97 35.71,247.48 36.24,247.49C36.99,247.51 36.73,282.22 38.05,282.43C38.55,282.51 39.16,279.03 39.86,277.75C40.41,276.74 41.15,276.79 41.67,275.24C44.17,267.83 42.84,204.06 43.48,204.06C44.05,204.06 44.74,260.82 45.29,260.82C45.97,260.82 44.95,174.73 47.11,174.34C47.62,174.25 48.41,176.39 48.92,178.92C50.96,189.01 49.91,257.1 50.73,257.11C51.25,257.12 51.94,226.51 52.54,226.51C53.14,226.51 53.71,257.02 54.35,257.02C54.92,257.02 55.48,232.64 56.16,232.63C56.72,232.62 57.45,249.03 57.98,249.01C58.76,248.99 58.8,212.96 59.79,212.89C60.29,212.85 61.1,217.6 61.6,222.02C62.88,233.37 62.2,271.43 63.41,283.29C63.91,288.19 64.19,291.68 65.22,293.61C65.72,294.55 66.52,295.49 67.04,295.35C67.89,295.11 68.35,291.74 68.85,288.68C69.9,282.24 69.99,258.21 70.66,258.2C71.22,258.19 71.95,279.09 72.47,279.08C73.27,279.06 73.61,228.91 74.28,228.9C74.84,228.9 75.2,264.04 76.09,264.09C76.6,264.12 77.25,252.61 77.91,252.59C78.47,252.57 79.19,260.88 79.72,260.85C80.47,260.81 81.02,244 81.53,244.02C82.39,244.05 82.74,292 83.34,292C83.95,292 84.54,242.14 85.15,242.14C85.74,242.14 85.88,288.52 86.96,288.6C87.46,288.64 88.25,278.68 88.78,278.7C89.53,278.73 89.45,294.85 90.59,298.7C91.09,300.4 91.9,302.26 92.4,302.15C94,301.8 93.51,263.21 94.21,263.2C94.76,263.19 95.5,287.19 96.02,287.18C96.86,287.16 97.14,222.98 97.84,222.97C98.39,222.97 98.96,262.5 99.65,262.51C100.2,262.52 100.88,237.92 101.46,237.92C102.09,237.92 102.62,266.43 103.27,266.44C103.84,266.45 104.54,244.85 105.08,244.86C105.78,244.87 104.98,276.2 106.89,280.51C107.4,281.67 108.19,282.55 108.71,282.34C111.2,281.36 109.87,223.85 110.52,223.85C111.09,223.85 111.56,268.43 112.33,268.45C112.86,268.46 113.57,247.39 114.14,247.4C114.79,247.41 115.12,267.64 115.95,274.52C116.47,278.79 117.07,284.78 117.76,284.82C118.31,284.85 119.06,281.14 119.58,278.48C120.42,274.15 120.46,261.26 121.39,261.14C121.9,261.08 122.69,263.84 123.2,266C124.13,269.97 124.48,283.42 125.01,283.41C125.74,283.39 126.1,250.55 126.82,250.53C127.36,250.52 127.77,264.32 128.64,268.71C129.15,271.28 129.68,274.56 130.45,274.7C130.98,274.8 131.76,272.22 132.26,272.37C133.7,272.81 133.42,296.74 134.07,296.75C134.64,296.76 135.35,285.25 135.88,277.96C136.62,267.84 136.92,251.49 137.69,241.63C138.22,234.84 138.98,224.45 139.51,224.47C140.29,224.49 140.66,262.19 141.32,262.2C141.88,262.21 142.44,235.26 143.13,235.25C143.68,235.24 144.42,245.52 144.94,252.59C145.75,263.64 145.32,294.97 146.75,295.19C147.25,295.27 148.06,292.73 148.56,290.27C149.89,283.72 149.67,253.2 150.38,253.19C150.92,253.18 151.56,275.07 152.19,275.07C152.77,275.07 153.08,256.57 154,256.47C154.51,256.41 155.31,259.23 155.81,261.91C157.1,268.86 156.81,300.23 157.62,300.26C158.14,300.28 158.87,290 159.44,284.26C160.1,277.61 160.69,262.67 161.25,262.68C161.91,262.69 162.25,292.1 163.06,292.14C163.58,292.16 164.02,283.05 164.87,280.16C165.38,278.42 166.17,276.06 166.68,276.14C167.61,276.28 167.81,290.81 168.49,290.83C169.05,290.85 169.8,285.12 170.31,280.98C171.17,274.07 170.2,254.27 172.12,253.09C172.63,252.78 173.42,254.18 173.93,253.86C176.02,252.56 175.03,221.25 175.74,221.24C176.28,221.23 177.03,232.49 177.55,240.1C178.34,251.7 178.61,284.09 179.36,284.11C179.89,284.12 180.62,262.14 181.18,262.15C181.85,262.16 181.64,293.08 182.99,293.34C183.49,293.44 184.3,291.31 184.8,289.45C185.88,285.45 185.99,269.68 186.61,269.68C187.2,269.68 187.44,287.17 188.42,287.31C188.93,287.38 189.67,284.51 190.24,282.91C190.89,281.08 191.53,279.42 192.05,276.91C192.88,272.87 193.3,260.83 193.86,260.84C194.53,260.85 194.47,279.81 195.67,284.15C196.17,285.96 196.97,287.87 197.48,287.79C198.36,287.65 198.47,275.96 199.29,275.86C199.81,275.8 200.36,280.14 201.11,280.31C201.64,280.43 202.42,278.51 202.92,278.68C203.96,279.04 204.15,288.94 204.73,288.93C205.36,288.92 205.98,276.73 206.54,276.74C207.21,276.76 207.74,294.86 208.35,294.86C208.95,294.86 209.07,280.8 210.16,277.33C210.66,275.72 211.46,275.45 211.98,274.03C212.79,271.84 212.74,265.67 213.79,265.18C214.29,264.95 215,266.17 215.6,266.17C216.2,266.17 216.91,264.98 217.41,265.21C218.45,265.69 218.7,270.23 219.22,273.75C220.04,279.32 219.45,294.75 221.04,295.51C221.54,295.75 222.34,295.18 222.85,294.28C224.78,290.87 224.09,274.16 224.66,263.02C225.31,250.24 225.74,221.87 226.47,221.86C227.01,221.85 227.74,235.58 228.28,243.96C228.99,255 228.61,276.15 230.09,282.39C230.59,284.52 231.39,286.58 231.91,286.48C233.98,286.07 233.11,238.33 233.72,214.6C234.32,191.31 234.55,145.41 235.53,145.37C236.03,145.35 236.73,157.68 237.34,163.69C237.93,169.51 238.63,173.85 239.15,180.88C239.97,191.96 240.27,211.09 240.96,223.79C241.51,233.94 241.77,245.21 242.78,251.17C243.28,254.13 243.67,256.56 244.59,257.71C245.1,258.34 245.89,258.95 246.4,258.66C248.3,257.59 247.66,240.86 248.21,230.36C248.9,217.19 249.41,200.63 250.02,185.82C250.62,171.09 251.33,160.2 251.84,141.73C252.71,110.56 253.08,16 253.65,16C254.3,16 254.79,184.24 255.46,184.24C256.02,184.24 256.71,68.51 257.27,68.51C257.93,68.51 258.2,228.21 259.08,228.22C259.59,228.23 260.36,174.61 260.89,174.61C261.64,174.62 260.3,270.01 262.71,282.29C263.23,284.93 263.99,287.04 264.52,286.94C267.61,286.38 263.68,135.49 266.33,117.21C266.85,113.6 267.62,110.79 268.14,110.86C270.76,111.21 269.2,276.67 269.95,276.67C270.48,276.67 271.04,192.95 271.76,192.94C272.3,192.94 272.84,227.27 273.58,240.49C274.11,249.97 274.89,264.91 275.39,264.89C276.56,264.85 276.13,131.62 277.2,131.59C277.7,131.58 278.45,150.07 279.01,160.61C279.68,173.2 280.28,186.38 280.82,202.1C281.53,222.79 281.18,273.85 282.64,273.99C283.14,274.04 283.63,265.85 284.45,265.7C284.97,265.61 285.76,267.09 286.26,268.52C287.41,271.79 287.57,286.06 288.07,286.04C289.39,285.98 286.64,164.01 289.88,163.08C290.41,162.93 291.17,164.16 291.69,165.87C294.4,174.69 292.63,254.52 293.51,254.54C294.02,254.55 294.65,224.77 295.32,224.76C295.88,224.75 296.54,245.36 297.13,245.36C297.75,245.36 298.06,227.58 298.94,221.94C299.45,218.69 300.25,214.3 300.75,214.35C302.29,214.51 301.98,287.3 302.56,287.3C303.2,287.3 303.59,198.18 304.38,198.17C304.9,198.16 305.31,227.98 306.19,237.57C306.7,243.12 306.66,249.74 308,250.66C308.5,251.01 309.3,249.87 309.81,250.25C311.84,251.77 311.07,279.2 311.62,279.19C312.32,279.18 312.55,231.63 313.44,231.59C313.95,231.57 314.64,241.91 315.25,247.01C315.85,252.03 316.52,261.95 317.06,261.94C317.77,261.92 318.16,236.62 318.87,236.6C319.41,236.59 320.17,245.2 320.68,251.31C321.52,261.32 321.49,282.27 322.49,291.07C323,295.5 323.81,301.01 324.31,300.97C325.4,300.89 325.23,253.53 326.12,253.5C326.63,253.48 327.38,263.22 327.93,269.06C328.63,276.53 329.04,294.65 329.74,294.67C330.28,294.68 330.99,285.06 331.55,279.54C332.22,272.91 332.8,257.61 333.36,257.62C334.04,257.63 334.61,290.27 335.18,290.27C335.83,290.27 336.4,248.42 336.99,248.42C337.61,248.42 338.03,293.65 338.8,293.67C339.33,293.68 338.91,273.81 340.61,272.59C341.12,272.23 341.9,272.61 342.42,273.04C343.21,273.69 343.73,275.1 344.24,276.89C345.24,280.42 345.53,293.43 346.05,293.41C346.83,293.39 347.24,256.88 347.86,256.88C348.45,256.88 348.68,289.36 349.67,289.44C350.17,289.48 350.85,283.84 351.48,281.22C352.06,278.79 352.79,274.18 353.29,274.23C354.28,274.32 354.39,302.03 355.11,302.05C355.65,302.06 355.5,287.6 356.92,286.71C357.42,286.4 358.23,287.62 358.73,287.35C359.72,286.82 360.01,282.98 360.54,280.18C361.27,276.35 361.04,268.26 362.35,266.4C362.85,265.69 363.62,265.3 364.16,265.46C364.88,265.67 365.33,268.53 365.98,268.58C366.55,268.63 367.29,266.26 367.79,266.4C368.78,266.67 369.1,277.21 369.6,277.18C370.8,277.1 370.68,214.47 371.41,214.46C371.95,214.45 372.61,237.19 373.22,248.38C373.82,259.33 374.48,280.89 375.04,280.89C375.7,280.88 376.29,235.71 376.85,235.71C377.51,235.71 378.11,299.07 378.66,299.07C379.34,299.07 379.43,204.74 380.47,204.71C380.97,204.69 381.6,219.91 382.28,226.4C382.83,231.7 383.4,236.54 384.09,240.8C384.64,244.24 385.4,246.03 385.91,250.06C386.84,257.43 387.01,272.55 387.72,281.59C388.26,288.43 388.99,299.61 389.53,299.6C390.26,299.58 390.73,266.4 391.34,266.4C391.93,266.4 392.5,297.46 393.15,297.47C393.72,297.48 394.17,273.83 394.96,273.79C395.49,273.76 396.16,284.2 396.78,284.21C397.37,284.22 398.08,279 398.59,274.94C399.53,267.38 398.71,246.65 400.4,242.16C400.91,240.82 401.7,239.7 402.21,239.86C403.95,240.41 402.78,274.28 404.02,274.45C404.52,274.52 405.32,271.31 405.84,269.05C406.66,265.47 407.14,254.84 407.65,254.86C408.5,254.89 407.94,287.68 409.46,293.83C409.96,295.86 410.77,297.78 411.27,297.69C412.32,297.51 412.42,284.73 413.08,278.97C413.64,274.01 414.36,270.65 414.89,265.16C415.66,257.09 416.06,235.21 416.71,235.2C417.28,235.19 417.98,249.49 418.52,258.1C419.22,269.21 419.71,296.29 420.33,296.29C420.92,296.29 421.27,262.29 422.14,262.25C422.65,262.22 423.34,270.04 423.95,273.85C424.55,277.56 425.23,284.84 425.76,284.82C426.5,284.79 426.48,263.37 427.58,263.19C428.08,263.11 428.89,265.45 429.39,267.35C430.35,270.98 430.69,283.86 431.2,283.84C432.13,283.8 432.08,227.7 433.01,227.66C433.52,227.64 433.74,240.83 434.82,244.07C435.32,245.58 436.13,247.24 436.64,247.14C437.59,246.95 437.95,234.8 438.45,234.83C439.45,234.88 439.66,284.14 440.26,284.14C440.86,284.14 441.49,234.44 442.07,234.44C442.71,234.44 442.65,295.25 443.88,295.34C444.38,295.38 444.98,288.31 445.69,285.52C446.23,283.38 446.87,281.7 447.51,279.95C448.09,278.35 448.76,277.09 449.32,275.42C449.98,273.46 450.61,268.84 451.13,268.88C451.95,268.95 451.86,285.63 452.94,285.85C453.44,285.95 454.25,282.55 454.75,282.66C455.95,282.92 456.02,303.67 456.56,303.66C457.27,303.65 457.54,267.32 458.38,267.29C458.9,267.27 459.53,276.71 460.19,280.83Q460.75,284.32 462,290.44" style="vector-effect: non-scaling-stroke; fill: none; stroke: rgb(0, 176, 246); stroke-opacity: 1; stroke-width: 2px; opacity: 1;"/></g><g class="points"/><g class="text"/></g><g class="trace scatter trace60f6da" style="stroke-miterlimit: 2; opacity: 1;"><g class="fills"/><g class="errorbars"/><g class="lines"><path class="js-line" d="M0,234.63Q0.62,286.13 1.81,286.23C2.31,286.27 3.07,280.6 3.62,277.26C4.31,273.08 4.93,269.33 5.44,263.08C6.42,251.05 6.6,226.64 7.25,210.09C7.82,195.5 8.4,181.53 9.06,168.92C9.62,158.2 10.32,139.18 10.87,139.19C11.55,139.2 11.36,175.74 12.68,183.74C13.18,186.77 13.99,186.85 14.49,189.88C15.81,197.83 15.68,219.91 16.31,234.03C16.89,247.06 17.07,263.6 18.12,271.6C18.62,275.42 19.33,277.15 19.93,279.96C20.54,282.81 21.14,288.57 21.74,288.57C22.35,288.57 23.03,283.35 23.55,279.65C24.38,273.67 24.47,256.06 25.36,255.99C25.87,255.95 26.23,262.21 27.18,263.62C27.69,264.37 28.36,264.61 28.99,264.91C29.57,265.19 30.29,265.69 30.8,265.43C31.66,264.99 32.1,260.43 32.61,260.49C33.46,260.59 33.81,274.71 34.42,274.71C35.02,274.71 35.7,260.57 36.24,260.59C36.98,260.61 36.84,287.22 38.05,287.43C38.55,287.52 39.18,284.42 39.86,283.23C40.41,282.25 41.15,282.25 41.67,280.73C43.95,274.03 42.84,220.64 43.48,220.64C44.05,220.64 44.74,267.89 45.29,267.89C45.98,267.89 44.81,194.31 47.11,193.75C47.63,193.62 48.4,195.14 48.92,197.04C51.1,205.06 49.91,264.02 50.73,264.04C51.25,264.05 51.94,237.74 52.54,237.74C53.14,237.74 53.7,264.21 54.35,264.22C54.92,264.23 55.5,244.02 56.16,244.01C56.73,244 57.44,258.78 57.98,258.76C58.71,258.74 58.95,231.13 59.79,231.08C60.3,231.05 61.1,236.56 61.6,241.21C62.68,251.26 62.18,280.07 63.41,289.19C63.91,292.9 64.24,295.57 65.22,296.91C65.73,297.6 66.53,298.19 67.04,298C67.9,297.68 68.35,294.96 68.85,292.35C69.9,286.92 69.97,266.65 70.66,266.64C71.21,266.63 71.96,282.96 72.47,282.94C73.33,282.91 73.6,236.86 74.28,236.85C74.83,236.84 75.28,266.99 76.09,267.02C76.61,267.04 77.21,254.66 77.91,254.63C78.46,254.61 79.19,262.23 79.72,262.2C80.48,262.15 81.02,246.33 81.53,246.35C82.4,246.38 82.74,292.7 83.34,292.7C83.95,292.7 84.54,245.52 85.15,245.52C85.74,245.52 85.91,289.39 86.96,289.46C87.46,289.5 88.24,279.52 88.78,279.54C89.52,279.57 89.45,295.04 90.59,298.71C91.09,300.33 91.89,302.1 92.4,301.98C94.08,301.58 93.51,260.57 94.21,260.56C94.76,260.55 95.51,285.71 96.02,285.7C96.87,285.68 97.14,216.4 97.84,216.39C98.39,216.39 98.94,259.45 99.65,259.46C100.19,259.47 100.89,234.52 101.46,234.52C102.1,234.52 102.59,265.34 103.27,265.35C103.82,265.36 104.54,244.56 105.08,244.57C105.79,244.58 105.05,276.26 106.89,280.9C107.4,282.19 108.19,283.22 108.71,283.04C111.04,282.23 109.87,226.73 110.52,226.73C111.09,226.73 111.57,269.79 112.33,269.81C112.86,269.82 113.57,249.05 114.14,249.05C114.78,249.06 115.11,268.3 115.95,274.73C116.46,278.65 117.13,284.11 117.76,284.12C118.34,284.13 119.06,279.43 119.58,276.06C120.42,270.56 120.01,254.53 121.39,254.11C121.89,253.96 122.7,255.13 123.2,256.37C124.51,259.63 124.49,276.27 125.01,276.26C125.79,276.24 126.1,232.26 126.82,232.25C127.36,232.24 127.79,250.73 128.64,256.87C129.15,260.59 129.48,265.44 130.45,265.76C130.95,265.93 131.75,263.93 132.26,264.14C134.07,264.89 133.39,294.82 134.07,294.83C134.62,294.84 135.34,282.13 135.88,274.23C136.6,263.58 136.87,246.37 137.69,236.65C138.21,230.46 138.99,221.47 139.51,221.49C140.35,221.52 140.63,261.87 141.32,261.88C141.87,261.89 142.47,236.37 143.13,236.36C143.69,236.35 144.42,247.16 144.94,254.42C145.73,265.38 145.27,295.52 146.75,295.78C147.25,295.87 148.06,293.61 148.56,291.39C149.9,285.47 149.68,257.53 150.38,257.52C150.93,257.51 151.55,277.96 152.19,277.97C152.77,277.98 153.11,261.48 154,261.38C154.51,261.32 155.31,264.01 155.81,266.55C157.06,272.91 156.81,300.97 157.62,301C158.14,301.02 158.87,291.86 159.44,286.73C160.1,280.74 160.69,267.23 161.25,267.24C161.91,267.25 162.27,293.49 163.06,293.53C163.58,293.55 164.07,285.06 164.87,282.14C165.39,280.23 166.17,277.48 166.68,277.54C167.53,277.64 167.85,290.83 168.49,290.84C169.07,290.85 169.79,284.55 170.31,280.03C171.17,272.52 170.03,251.59 172.12,249.88C172.63,249.46 173.41,250.56 173.93,250.13C176.19,248.26 175.03,215.23 175.74,215.22C176.28,215.21 177.03,227.53 177.55,235.79C178.34,248.28 178.59,282.88 179.36,282.9C179.89,282.91 180.62,260.75 181.18,260.76C181.86,260.77 181.54,292.96 182.99,293.27C183.49,293.38 184.3,291.49 184.8,289.8C185.9,286.11 185.99,271.12 186.61,271.12C187.2,271.12 187.43,288.12 188.42,288.28C188.93,288.36 189.67,285.69 190.24,284.19C190.9,282.44 191.53,280.83 192.05,278.39C192.89,274.43 193.3,262.48 193.86,262.49C194.52,262.5 194.44,280.65 195.67,284.67C196.17,286.31 196.97,287.99 197.48,287.9C198.41,287.73 198.45,275.71 199.29,275.61C199.81,275.55 200.37,279.84 201.11,280C201.64,280.11 202.42,278.11 202.92,278.28C203.95,278.62 204.15,288.61 204.73,288.6C205.36,288.59 205.99,276.28 206.54,276.29C207.22,276.31 207.72,294.99 208.35,295C208.93,295 208.79,281.22 210.16,279.02C210.66,278.21 211.46,278.52 211.98,277.86C212.83,276.77 213.05,272.48 213.79,272.35C214.32,272.26 214.9,274.31 215.6,274.71C216.15,275.02 216.91,274.48 217.41,274.92C218.41,275.79 218.7,279.02 219.22,281.84C220.01,286.12 219.68,297.62 221.04,298.22C221.54,298.44 222.34,297.82 222.85,296.91C224.6,293.76 224.1,280.03 224.66,270.46C225.32,259.13 225.71,233.35 226.47,233.33C227,233.32 227.75,244.06 228.28,250.86C229.02,260.3 228.63,279.25 230.09,284.73C230.59,286.62 231.39,288.45 231.91,288.33C233.98,287.87 233.11,244.52 233.72,223.16C234.31,202.5 234.62,162.24 235.53,162.21C236.04,162.19 236.72,175.01 237.34,181.14C237.93,186.95 238.63,191.3 239.15,198.09C239.93,208.27 240.27,225.06 240.96,236.33C241.51,245.27 241.81,254.95 242.78,260.35C243.29,263.17 243.78,265.21 244.59,266.67C245.11,267.61 245.9,268.87 246.4,268.7C247.79,268.24 247.66,255.52 248.21,247.74C248.9,238.01 249.41,225.73 250.02,214.83C250.62,204.06 251.33,196.27 251.84,182.7C252.72,159.3 253.08,87 253.65,87C254.3,87 254.81,212.34 255.46,212.34C256.03,212.34 256.7,118.42 257.27,118.42C257.92,118.42 258.23,243.25 259.08,243.26C259.59,243.27 260.36,197.86 260.89,197.87C261.63,197.88 260.31,276.35 262.71,286.32C263.23,288.48 263.99,290.17 264.52,290.05C267.64,289.35 263.47,160.99 266.33,146.66C266.86,144.02 267.61,142.05 268.14,142.15C270.96,142.68 269.2,281.67 269.95,281.67C270.48,281.67 271.04,211.75 271.76,211.74C272.3,211.73 272.84,240.3 273.58,251.29C274.11,259.17 274.89,271.57 275.39,271.55C276.57,271.51 276.09,158.14 277.2,158.11C277.7,158.09 278.45,172.83 279.01,181.27C279.68,191.43 280.28,201.97 280.82,214.89C281.55,232.46 281.33,276.99 282.64,277.1C283.14,277.14 283.45,268.58 284.45,268.22C284.95,268.04 285.76,268.75 286.26,269.66C287.6,272.09 287.57,286.21 288.07,286.19C289.44,286.13 285.92,164.16 289.88,162.29C290.42,162.03 291.16,162.65 291.69,163.73C295.01,170.43 292.65,253.19 293.51,253.21C294.02,253.22 294.64,221.6 295.32,221.59C295.87,221.58 296.56,242.07 297.13,242.06C297.77,242.05 298.1,222.59 298.94,216.09C299.45,212.13 300.25,206.58 300.75,206.62C302.18,206.74 301.99,285.35 302.56,285.35C303.2,285.35 303.59,186.08 304.38,186.07C304.9,186.06 305.32,218.43 306.19,229C306.7,235.22 306.61,241.99 308,243.77C308.5,244.41 309.3,243.76 309.81,244.47C311.92,247.37 311.06,277.16 311.62,277.16C312.3,277.15 312.6,228.74 313.44,228.71C313.96,228.69 314.63,240.99 315.25,246.91C315.84,252.56 316.5,263.46 317.06,263.45C317.72,263.44 318.19,241.03 318.87,241.02C319.42,241.01 320.16,249.88 320.68,255.98C321.49,265.49 321.48,284.56 322.49,292.62C322.99,296.65 323.81,301.64 324.31,301.6C325.39,301.51 325.23,259.08 326.12,259.04C326.63,259.02 327.38,267.75 327.93,272.98C328.63,279.69 329.03,295.99 329.74,296.01C330.28,296.03 330.99,287.6 331.55,282.82C332.21,277.16 332.81,264.23 333.36,264.24C334.04,264.25 334.61,292.66 335.18,292.66C335.83,292.66 336.4,256.4 336.99,256.4C337.6,256.4 338.04,295.43 338.8,295.45C339.33,295.46 338.98,278.18 340.61,276.67C341.11,276.2 341.89,276.33 342.42,276.63C343.17,277.05 343.74,278.25 344.24,279.75C345.26,282.79 345.53,294.55 346.05,294.53C346.84,294.5 347.23,260.14 347.86,260.14C348.44,260.14 348.76,290.1 349.67,290.16C350.18,290.19 350.87,284.07 351.48,281.04C352.08,278.03 352.78,272.01 353.29,272.04C354.2,272.1 354.42,301.39 355.11,301.4C355.66,301.41 355.31,284.64 356.92,283.12C357.42,282.64 358.23,283.47 358.73,283.04C359.89,282.04 360,277.15 360.54,273.47C361.26,268.51 360.78,257.3 362.35,255.92C362.85,255.48 363.65,255.59 364.16,255.97C365.09,256.67 365.06,261.24 365.98,261.78C366.49,262.08 367.29,261.05 367.79,261.41C369.16,262.39 369.1,275.18 369.6,275.15C370.67,275.1 370.7,212.45 371.41,212.44C371.95,212.43 372.6,237.29 373.22,249.18C373.81,260.41 374.47,281.94 375.04,281.94C375.69,281.94 376.29,239.81 376.85,239.81C377.52,239.81 378.11,299.6 378.66,299.6C379.34,299.6 379.37,210.7 380.47,210.66C380.97,210.64 381.59,223.53 382.28,228.88C382.83,233.12 383.39,236.93 384.09,240.22C384.64,242.79 385.41,243.88 385.91,247.03C386.99,253.79 387.02,270.03 387.72,279.47C388.26,286.79 388.99,298.95 389.53,298.94C390.26,298.92 390.73,263.23 391.34,263.23C391.93,263.23 392.49,296.84 393.15,296.85C393.71,296.86 394.19,272.3 394.96,272.27C395.49,272.25 396.13,283.62 396.78,283.63C397.35,283.64 398.08,278.68 398.59,274.81C399.54,267.57 398.35,246.26 400.4,243.3C400.91,242.56 401.7,242.18 402.21,242.5C404.34,243.81 402.7,276.14 404.02,276.36C404.52,276.44 405.32,273.75 405.84,271.82C406.68,268.7 407.14,259.14 407.65,259.16C408.51,259.2 407.97,289.32 409.46,295.03C409.96,296.95 410.77,298.77 411.27,298.68C412.28,298.5 412.42,287.22 413.08,282.2C413.64,277.96 414.36,275.15 414.89,270.51C415.66,263.78 416.07,245.65 416.71,245.65C417.29,245.65 417.97,258.69 418.52,266.34C419.2,275.85 419.7,298.37 420.33,298.37C420.91,298.37 421.26,271.21 422.14,271.15C422.65,271.12 423.34,277.25 423.95,280.23C424.54,283.12 425.23,288.81 425.76,288.78C426.53,288.74 426.38,270.57 427.58,270.27C428.08,270.14 428.89,271.64 429.39,272.97C430.42,275.7 430.7,286.61 431.2,286.59C432.17,286.54 432.03,235.3 433.01,235.25C433.51,235.23 433.55,246.8 434.82,248.73C435.32,249.49 436.14,250.07 436.64,249.82C437.96,249.18 437.94,235.25 438.45,235.27C439.37,235.31 439.68,283.18 440.26,283.18C440.89,283.18 441.49,228.16 442.07,228.16C442.7,228.16 442.72,293.78 443.88,293.85C444.38,293.88 445.01,285.37 445.69,281.77C446.25,278.82 446.89,276.35 447.51,273.78C448.1,271.36 448.75,269.24 449.32,266.75C449.96,263.97 450.61,257.83 451.13,257.86C451.93,257.91 451.83,279.36 452.94,279.55C453.44,279.64 454.25,275.44 454.75,275.53C455.99,275.75 456.02,302.68 456.56,302.67C457.27,302.66 457.54,256.5 458.38,256.47C458.9,256.45 459.52,268.51 460.19,273.76Q460.75,278.18 462,285.92" style="vector-effect: non-scaling-stroke; fill: none; stroke: rgb(231, 107, 243); stroke-opacity: 1; stroke-width: 2px; opacity: 1;"/></g><g class="points"/><g class="text"/></g></g></g><g class="overplot"/><path class="xlines-above crisp" d="M0,0" style="fill: none;"/><path class="ylines-above crisp" d="M0,0" style="fill: none;"/><g class="overlines-above"/><g class="xaxislayer-above"><g class="xtick"><text text-anchor="middle" x="0" y="433" transform="translate(80,0)" style="font-family: 'Open Sans', verdana, arial, sans-serif; font-size: 12px; fill: rgb(42, 63, 95); fill-opacity: 1; white-space: pre;">0</text></g><g class="xtick"><text text-anchor="middle" x="0" y="433" transform="translate(170.23000000000002,0)" style="font-family: 'Open Sans', verdana, arial, sans-serif; font-size: 12px; fill: rgb(42, 63, 95); fill-opacity: 1; white-space: pre;">50</text></g><g class="xtick"><text text-anchor="middle" x="0" y="433" transform="translate(260.47,0)" style="font-family: 'Open Sans', verdana, arial, sans-serif; font-size: 12px; fill: rgb(42, 63, 95); fill-opacity: 1; white-space: pre;">100</text></g><g class="xtick"><text text-anchor="middle" x="0" y="433" transform="translate(350.7,0)" style="font-family: 'Open Sans', verdana, arial, sans-serif; font-size: 12px; fill: rgb(42, 63, 95); fill-opacity: 1; white-space: pre;">150</text></g><g class="xtick"><text text-anchor="middle" x="0" y="433" transform="translate(440.94,0)" style="font-family: 'Open Sans', verdana, arial, sans-serif; font-size: 12px; fill: rgb(42, 63, 95); fill-opacity: 1; white-space: pre;">200</text></g><g class="xtick"><text text-anchor="middle" x="0" y="433" transform="translate(531.1700000000001,0)" style="font-family: 'Open Sans', verdana, arial, sans-serif; font-size: 12px; fill: rgb(42, 63, 95); fill-opacity: 1; white-space: pre;">250</text></g></g><g class="yaxislayer-above"><g class="ytick"><text text-anchor="end" x="79" y="4.199999999999999" transform="translate(0,407.21)" style="font-family: 'Open Sans', verdana, arial, sans-serif; font-size: 12px; fill: rgb(42, 63, 95); fill-opacity: 1; white-space: pre;">0</text></g><g class="ytick"><text text-anchor="end" x="79" y="4.199999999999999" transform="translate(0,364.5)" style="font-family: 'Open Sans', verdana, arial, sans-serif; font-size: 12px; fill: rgb(42, 63, 95); fill-opacity: 1; white-space: pre;">500</text></g><g class="ytick"><text text-anchor="end" x="79" y="4.199999999999999" transform="translate(0,321.78)" style="font-family: 'Open Sans', verdana, arial, sans-serif; font-size: 12px; fill: rgb(42, 63, 95); fill-opacity: 1; white-space: pre;">1000</text></g><g class="ytick"><text text-anchor="end" x="79" y="4.199999999999999" transform="translate(0,279.07)" style="font-family: 'Open Sans', verdana, arial, sans-serif; font-size: 12px; fill: rgb(42, 63, 95); fill-opacity: 1; white-space: pre;">1500</text></g><g class="ytick"><text text-anchor="end" x="79" y="4.199999999999999" transform="translate(0,236.35)" style="font-family: 'Open Sans', verdana, arial, sans-serif; font-size: 12px; fill: rgb(42, 63, 95); fill-opacity: 1; white-space: pre;">2000</text></g><g class="ytick"><text text-anchor="end" x="79" y="4.199999999999999" transform="translate(0,193.64)" style="font-family: 'Open Sans', verdana, arial, sans-serif; font-size: 12px; fill: rgb(42, 63, 95); fill-opacity: 1; white-space: pre;">2500</text></g><g class="ytick"><text text-anchor="end" x="79" y="4.199999999999999" transform="translate(0,150.92000000000002)" style="font-family: 'Open Sans', verdana, arial, sans-serif; font-size: 12px; fill: rgb(42, 63, 95); fill-opacity: 1; white-space: pre;">3000</text></g><g class="ytick"><text text-anchor="end" x="79" y="4.199999999999999" transform="translate(0,108.21000000000001)" style="font-family: 'Open Sans', verdana, arial, sans-serif; font-size: 12px; fill: rgb(42, 63, 95); fill-opacity: 1; white-space: pre;">3500</text></g></g><g class="overaxes-above"/></g></g><g class="polarlayer"/><g class="ternarylayer"/><g class="geolayer"/><g class="funnelarealayer"/><g class="pielayer"/><g class="treemaplayer"/><g class="sunburstlayer"/><g class="glimages"/><defs id="topdefs-6a6ece"><g class="clips"/><clipPath id="legend6a6ece"><rect width="137" height="67" x="0" y="0"/></clipPath></defs><g class="layer-above"><g class="imagelayer"/><g class="shapelayer"/></g><g class="infolayer"><g class="legend" pointer-events="all" transform="translate(551.24, 100)"><rect class="bg" shape-rendering="crispEdges" width="137" height="67" x="0" y="0" style="stroke: rgb(68, 68, 68); stroke-opacity: 1; fill: rgb(255, 255, 255); fill-opacity: 1; stroke-width: 0px;"/><g class="scrollbox" transform="translate(0, 0)" clip-path="url('#legend6a6ece')"><g class="groups"><g class="traces" transform="translate(0, 14.5)" style="opacity: 1;"><text class="legendtext" text-anchor="start" x="40" y="4.680000000000001" style="font-family: 'Open Sans', verdana, arial, sans-serif; font-size: 12px; fill: rgb(42, 63, 95); fill-opacity: 1; white-space: pre;">Average Class I</text><g class="layers" style="opacity: 1;"><g class="legendfill"/><g class="legendlines"><path class="js-line" d="M5,0h30" style="fill: none; stroke: rgb(0, 100, 80); stroke-opacity: 1; stroke-width: 2px;"/></g><g class="legendsymbols"><g class="legendpoints"/></g></g><rect class="legendtoggle" x="0" y="-9.5" width="131.15625" height="19" style="fill: rgb(0, 0, 0); fill-opacity: 0;"/></g><g class="traces" transform="translate(0, 33.5)" style="opacity: 1;"><text class="legendtext" text-anchor="start" x="40" y="4.680000000000001" style="font-family: 'Open Sans', verdana, arial, sans-serif; font-size: 12px; fill: rgb(42, 63, 95); fill-opacity: 1; white-space: pre;">Average Class II</text><g class="layers" style="opacity: 1;"><g class="legendfill"/><g class="legendlines"><path class="js-line" d="M5,0h30" style="fill: none; stroke: rgb(0, 176, 246); stroke-opacity: 1; stroke-width: 2px;"/></g><g class="legendsymbols"><g class="legendpoints"/></g></g><rect class="legendtoggle" x="0" y="-9.5" width="131.15625" height="19" style="fill: rgb(0, 0, 0); fill-opacity: 0;"/></g><g class="traces" transform="translate(0, 52.5)" style="opacity: 1;"><text class="legendtext" text-anchor="start" x="40" y="4.680000000000001" style="font-family: 'Open Sans', verdana, arial, sans-serif; font-size: 12px; fill: rgb(42, 63, 95); fill-opacity: 1; white-space: pre;">Average Class III</text><g class="layers" style="opacity: 1;"><g class="legendfill"/><g class="legendlines"><path class="js-line" d="M5,0h30" style="fill: none; stroke: rgb(231, 107, 243); stroke-opacity: 1; stroke-width: 2px;"/></g><g class="legendsymbols"><g class="legendpoints"/></g></g><rect class="legendtoggle" x="0" y="-9.5" width="131.15625" height="19" style="fill: rgb(0, 0, 0); fill-opacity: 0;"/></g></g></g><rect class="scrollbar" rx="20" ry="3" width="0" height="0" x="0" y="0" style="fill: rgb(128, 139, 164); fill-opacity: 1;"/></g><g class="g-gtitle"><text class="gtitle" x="35" y="50" text-anchor="start" dy="0em" style="font-family: 'Open Sans', verdana, arial, sans-serif; font-size: 17px; fill: rgb(42, 63, 95); opacity: 1; font-weight: normal; white-space: pre;">Average curve comparisson: betha-structure_group</text></g><g class="g-xtitle"><text class="xtitle" x="311" y="460.8" text-anchor="middle" style="font-family: 'Open Sans', verdana, arial, sans-serif; font-size: 14px; fill: rgb(42, 63, 95); opacity: 1; font-weight: normal; white-space: pre;">Domain</text></g><g class="g-ytitle"><text class="ytitle" transform="rotate(-90,27.496875000000003,260)" x="27.496875000000003" y="260" text-anchor="middle" style="font-family: 'Open Sans', verdana, arial, sans-serif; font-size: 14px; fill: rgb(42, 63, 95); opacity: 1; font-weight: normal; white-space: pre;">Frequency</text></g></g></svg>