<svg class="main-svg" xmlns="http://www.w3.org/2000/svg" xmlns:xlink="http://www.w3.org/1999/xlink" width="700" height="500" style="" viewBox="0 0 700 500"><rect x="0" y="0" width="700" height="500" style="fill: rgb(255, 255, 255); fill-opacity: 1;"/><defs id="defs-0d7874"><g class="clips"><clipPath id="clip0d7874xyplot" class="plotclip"><rect width="540" height="320"/></clipPath><clipPath class="axesclip" id="clip0d7874x"><rect x="80" y="0" width="540" height="500"/></clipPath><clipPath class="axesclip" id="clip0d7874y"><rect x="0" y="100" width="700" height="320"/></clipPath><clipPath class="axesclip" id="clip0d7874xy"><rect x="80" y="100" width="540" height="320"/></clipPath></g><g class="gradients"/></defs><g class="bglayer"><rect class="bg" x="80" y="100" width="540" height="320" style="fill: rgb(229, 236, 246); fill-opacity: 1; stroke-width: 0;"/></g><g class="layer-below"><g class="imagelayer"/><g class="shapelayer"/></g><g class="cartesianlayer"><g class="subplot xy"><g class="layer-subplot"><g class="shapelayer"/><g class="imagelayer"/></g><g class="gridlayer"><g class="x"><path class="xgrid crisp" transform="translate(185.47,0)" d="M0,100v320" style="stroke: rgb(255, 255, 255); stroke-opacity: 1; stroke-width: 1px;"/><path class="xgrid crisp" transform="translate(290.94,0)" d="M0,100v320" style="stroke: rgb(255, 255, 255); stroke-opacity: 1; stroke-width: 1px;"/><path class="xgrid crisp" transform="translate(396.41,0)" d="M0,100v320" style="stroke: rgb(255, 255, 255); stroke-opacity: 1; stroke-width: 1px;"/><path class="xgrid crisp" transform="translate(501.88,0)" d="M0,100v320" style="stroke: rgb(255, 255, 255); stroke-opacity: 1; stroke-width: 1px;"/><path class="xgrid crisp" transform="translate(607.34,0)" d="M0,100v320" style="stroke: rgb(255, 255, 255); stroke-opacity: 1; stroke-width: 1px;"/></g><g class="y"><path class="ygrid crisp" transform="translate(0,365.22)" d="M80,0h540" style="stroke: rgb(255, 255, 255); stroke-opacity: 1; stroke-width: 1px;"/><path class="ygrid crisp" transform="translate(0,323.21000000000004)" d="M80,0h540" style="stroke: rgb(255, 255, 255); stroke-opacity: 1; stroke-width: 1px;"/><path class="ygrid crisp" transform="translate(0,281.19)" d="M80,0h540" style="stroke: rgb(255, 255, 255); stroke-opacity: 1; stroke-width: 1px;"/><path class="ygrid crisp" transform="translate(0,239.18)" d="M80,0h540" style="stroke: rgb(255, 255, 255); stroke-opacity: 1; stroke-width: 1px;"/><path class="ygrid crisp" transform="translate(0,197.17000000000002)" d="M80,0h540" style="stroke: rgb(255, 255, 255); stroke-opacity: 1; stroke-width: 1px;"/><path class="ygrid crisp" transform="translate(0,155.16)" d="M80,0h540" style="stroke: rgb(255, 255, 255); stroke-opacity: 1; stroke-width: 1px;"/><path class="ygrid crisp" transform="translate(0,113.14)" d="M80,0h540" style="stroke: rgb(255, 255, 255); stroke-opacity: 1; stroke-width: 1px;"/></g></g><g class="zerolinelayer"><path class="xzl zl crisp" transform="translate(80,0)" d="M0,100v320" style="stroke: rgb(255, 255, 255); stroke-opacity: 1; stroke-width: 2px;"/><path class="yzl zl crisp" transform="translate(0,407.23)" d="M80,0h540" style="stroke: rgb(255, 255, 255); stroke-opacity: 1; stroke-width: 2px;"/></g><path class="xlines-below"/><path class="ylines-below"/><g class="overlines-below"/><g class="xaxislayer-below"/><g class="yaxislayer-below"/><g class="overaxes-below"/><g class="plot" transform="translate(80, 100)" clip-path="url('#clip0d7874xyplot')"><g class="scatterlayer mlayer"><g class="trace scatter trace2ba9e9" style="stroke-miterlimit: 2; opacity: 1;"><g class="fills"/><g class="errorbars"/><g class="lines"><path class="js-line" d="M0,260.84Q1.45,223.4 2.12,223.4C2.88,223.4 3.57,271.62 4.24,271.62C4.99,271.62 5.14,223.54 6.35,210.23C6.94,203.77 7.88,202.21 8.47,195.91C9.6,183.88 9.9,161.18 10.59,143.16C11.32,124.23 12.04,84.91 12.71,84.91C13.46,84.91 14.12,133.14 14.82,157.67C15.53,182.77 16.05,233.82 16.94,233.83C17.56,233.84 18.24,196.89 19.06,196.87C19.7,196.86 20.52,211.2 21.18,219.2C21.94,228.46 22.65,249.2 23.29,249.19C24.09,249.18 24.2,212.33 25.41,202.16C26,197.21 26.93,195.88 27.53,191.23C28.56,183.19 29.06,158.08 29.65,158.09C30.86,158.12 30.92,297.93 31.76,297.93C32.39,297.93 32.04,231.36 33.88,218.77C34.47,214.73 35.39,210.87 36,210.91C36.91,210.98 36.45,226.79 38.12,228.83C38.71,229.55 39.62,229 40.24,229.52C41.12,230.27 41.74,231.83 42.35,233.56C43.29,236.25 43.86,240.06 44.47,244.39C45.38,250.77 45.96,268.26 46.59,268.25C47.42,268.23 48.04,241.83 48.71,227.45C49.46,211.32 50.18,176.09 50.82,176.09C51.62,176.1 52.19,255.4 52.94,255.4C53.61,255.4 53.79,205.96 55.06,192.86C55.65,186.81 56.59,179.63 57.18,179.67C58.54,179.76 58.56,251.63 59.29,251.63C59.97,251.63 59.46,199.15 61.41,189.93C62,187.13 62.94,184.57 63.53,184.67C65.08,184.93 63.1,221.02 65.65,224.26C66.25,225.02 67.13,225.35 67.76,224.89C72.54,221.39 68.59,98.92 69.88,98.88C70.47,98.86 71.41,113.03 72,124.96C73.28,150.93 72.91,221.93 74.12,248.92C74.71,262.03 75.53,278.11 76.24,278.11C76.94,278.11 77.71,250.36 78.35,250.37C79.16,250.38 79.86,295.71 80.47,295.7C81.38,295.69 80.78,212.66 82.59,196.57C83.18,191.32 84.12,186.19 84.71,186.24C86.41,186.39 86.09,274.23 86.82,274.23C87.5,274.23 87.96,216.5 88.94,196.85C89.54,184.73 90.44,167.49 91.06,167.5C91.93,167.52 92.33,224.55 93.18,224.56C93.81,224.57 94.5,193.66 95.29,193.65C95.94,193.64 96.82,214.61 97.41,214.59C98.6,214.54 98.83,128.35 99.53,128.35C100.24,128.35 97.77,215.47 101.65,217.95C102.27,218.35 103.18,216.71 103.76,217.03C105.2,217.82 105.26,225.42 105.88,230.91C106.77,238.85 107.39,260.17 108,260.16C108.92,260.14 109.3,193.35 110.12,193.34C110.76,193.33 111.6,233.8 112.24,233.79C113.06,233.78 113.72,166.32 114.35,166.32C115.19,166.33 115.73,285.05 116.47,285.05C117.15,285.05 117.78,184 118.59,184C119.23,184 119.74,248.28 120.71,248.31C121.31,248.33 121.58,223.68 122.82,223.49C123.41,223.4 124.35,226.08 124.94,228.62C126.41,235.02 126.42,263.65 127.06,263.64C127.87,263.63 128.34,206.89 129.18,206.88C129.81,206.87 130.52,238.38 131.29,238.39C131.95,238.4 132.79,215.73 133.41,215.74C134.29,215.76 133.88,260.96 135.53,261.23C136.12,261.33 137.05,258.14 137.65,255.84C138.63,252.08 139.08,245.81 139.76,240.52C140.49,234.86 141.24,222.9 141.88,222.91C142.68,222.93 143.27,250.37 144,250.37C144.69,250.37 145.25,225.63 146.12,225.59C146.74,225.56 147.32,234.95 148.24,238.21C148.85,240.38 149.77,240.9 150.35,243.46C151.74,249.57 151.58,275.57 152.47,275.6C153.09,275.62 153.93,260.37 154.59,260.38C155.35,260.39 156.08,280.62 156.71,280.61C157.54,280.59 158.05,256.07 158.82,245.22C159.48,235.96 160.3,219.49 160.94,219.5C161.75,219.51 162.44,261.22 163.06,261.21C163.94,261.2 163.66,176.99 165.18,176.88C165.76,176.84 166.71,183.37 167.29,189.12C168.65,202.53 168.27,256.57 169.41,256.62C170,256.65 170.13,239.01 171.53,238.56C172.12,238.37 173.05,239.46 173.65,240.9C175.84,246.19 175.08,283.45 175.76,283.45C176.5,283.45 176.96,232.71 177.88,232.69C178.49,232.67 179.32,247.41 180,255.32C180.74,264.03 181.42,282.78 182.12,282.78C182.83,282.78 183.64,266.57 184.24,255.01C185.24,235.85 185.17,178.61 186.35,178.56C186.94,178.54 187.88,188.85 188.47,197.56C189.75,216.51 189.66,288.11 190.59,288.12C191.2,288.13 191.83,260.25 192.71,249.66C193.33,242.17 194.19,230.51 194.82,230.53C195.66,230.55 196.22,265.06 196.94,265.06C197.64,265.06 198.47,246.6 199.06,232.58C200.15,206.88 200.29,123.26 201.18,123.25C201.79,123.24 201.98,164.5 203.29,175.04C203.88,179.74 204.82,180.76 205.41,185.14C206.48,193.05 206.45,210.91 207.53,218.79C208.12,223.13 209.06,223.99 209.65,228.78C211.09,240.58 209,284.36 211.76,290.73C212.37,292.13 213.28,293.09 213.88,292.86C216.07,292.02 215.04,252.6 216,252.56C216.61,252.54 217.51,268.57 218.12,268.55C219.03,268.52 219.57,233.04 220.24,233.04C220.98,233.04 221.54,276.17 222.35,276.18C222.99,276.19 223.66,257.26 224.47,249.37C225.11,243.1 225.97,232.51 226.59,232.53C227.46,232.56 227.47,265.64 228.71,265.78C229.29,265.85 230.13,258.65 230.82,258.66C231.54,258.67 232.16,264.07 232.94,266.35C233.59,268.25 234.31,269.87 235.06,271.45C235.73,272.87 236.59,275.55 237.18,275.41C239.25,274.93 237.69,230.41 239.29,220.87C239.88,217.37 240.82,213.78 241.41,213.86C243.3,214.11 242.82,288.62 243.53,288.62C244.24,288.62 244.72,214.04 245.65,214.02C246.26,214.01 246.72,237.97 247.76,245.58C248.36,249.96 249.27,251.7 249.88,255.83C250.8,262.02 250.81,279.06 252,279.23C252.59,279.32 253.43,275.75 254.12,273.9C254.85,271.93 255.47,267.79 256.24,267.74C256.9,267.7 257.76,272.15 258.35,272.02C260.34,271.6 259.77,218 260.47,218C261.19,218 261.91,275.09 262.59,275.09C263.33,275.09 263.79,206.18 264.71,206.16C265.32,206.15 266.09,226.48 266.82,236.09C267.5,245.04 268.08,261.96 268.94,261.99C269.57,262.01 270.47,248.45 271.06,248.48C272.25,248.55 272.55,304.01 273.18,304C274.02,303.99 274.47,204.25 275.29,204.24C275.93,204.24 276.75,263.77 277.41,263.77C278.19,263.77 278.79,180.83 279.53,180.83C280.21,180.83 280.66,249.13 281.65,249.16C282.25,249.18 283.12,224.42 283.76,224.43C284.58,224.44 284.97,265.11 285.88,265.14C286.49,265.16 286.36,247.69 288,246.8C288.59,246.48 289.52,248.2 290.12,247.86C292.39,246.56 291.65,228.44 292.24,213.92C293.3,187.96 293.61,139.7 294.35,105.26C295.02,74.04 295.79,16 296.47,16C297.2,16 297.71,118.45 298.59,118.46C299.21,118.47 300.12,67.07 300.71,67.08C301.77,67.1 301.56,231.75 302.82,231.78C303.41,231.79 304.33,196.06 304.94,196.07C305.87,196.09 306.16,279.26 307.06,279.27C307.68,279.28 308.55,254.99 309.18,239.87C310.03,219.37 310.54,167.38 311.29,167.38C311.96,167.38 312.03,225.84 313.41,225.95C314,226 314.93,215.53 315.53,215.57C316.58,215.64 317.04,248.28 317.65,248.27C318.57,248.25 319.08,173.83 319.76,173.83C320.5,173.83 321.2,263.41 321.88,263.41C322.62,263.41 323.29,154.41 324,154.41C324.71,154.41 325.15,263.65 326.12,263.67C326.72,263.68 327.42,221.54 328.24,221.53C328.88,221.52 329.69,237.96 330.35,247.12C331.11,257.73 331.79,281.51 332.47,281.51C333.21,281.51 333.9,240.64 334.59,240.64C335.31,240.64 336.11,284.46 336.71,284.45C337.73,284.43 337.51,183.4 338.82,157.17C339.41,145.4 340.31,131.63 340.94,131.64C341.78,131.66 342.37,161.94 343.06,177.65C343.78,194.13 344.47,211.53 345.18,228.33C345.88,244.93 346.16,266.6 347.29,277.86C347.88,283.73 348.81,291.22 349.41,291.19C350.4,291.14 350.23,254.74 351.53,254.59C352.12,254.52 353.06,261.8 353.65,261.73C355.25,261.53 354.29,206.18 355.76,206.03C356.35,205.97 357.06,214.48 357.88,214.55C358.52,214.61 359.41,211.9 360,209.77C361.07,205.94 361.53,193.02 362.12,193.05C363.24,193.1 363.33,237.52 364.24,253.84C364.85,264.86 365.55,281.49 366.35,281.51C367,281.52 367.87,270.97 368.47,263.37C369.48,250.6 369.38,211.99 370.59,211.91C371.18,211.87 372.12,218.32 372.71,223.82C374,235.95 374.05,282.52 374.82,282.52C375.48,282.52 376.24,239.09 376.94,239.09C377.65,239.09 378.42,284.44 379.06,284.43C379.87,284.42 379.93,213 381.18,212.93C381.76,212.9 382.7,221.8 383.29,228.43C384.34,240.17 384.72,277.43 385.41,277.43C386.14,277.43 386.54,222.52 387.53,222.49C388.13,222.47 387.91,241.87 389.65,242.85C390.24,243.18 391.16,242.73 391.76,241.85C394.08,238.41 392.95,206.6 393.88,206.56C394.49,206.54 395.36,221.58 396,221.56C396.82,221.54 396.12,198.44 398.12,196.97C398.71,196.53 399.65,196.76 400.24,197.44C402.33,199.85 401.73,213.93 402.35,224.28C403.2,238.42 403.45,274.51 404.47,274.55C405.07,274.57 405.59,261.44 406.59,257.21C407.19,254.66 408.12,253.97 408.71,251.25C409.88,245.82 410.14,226.17 410.82,226.17C411.55,226.17 411.85,248.41 412.94,255.1C413.53,258.73 414.46,263.43 415.06,263.38C416.04,263.3 416.51,241.13 417.18,241.14C417.93,241.15 417.31,267.94 419.29,268.94C419.88,269.24 420.81,268.64 421.41,267.61C423.99,263.19 422.64,222.04 423.53,222.02C424.15,222 425.05,244.13 425.65,244.11C426.61,244.08 427.12,187.88 427.76,187.88C428.56,187.89 429.09,276.13 429.88,276.13C430.53,276.13 431.3,215.95 432,215.95C432.71,215.95 433.38,276.88 434.12,276.88C434.8,276.88 435.33,224.72 436.24,224.7C436.85,224.68 437.66,248.01 438.35,248.01C439.07,248.01 439.53,229.08 440.47,222.4C441.08,218.04 441.96,215.81 442.59,211.69C443.44,206.16 444.04,199.03 444.71,192.15C445.46,184.47 446.2,167.72 446.82,167.73C447.69,167.75 448.15,200.91 448.94,215.23C449.59,227.07 449.82,240.86 451.06,247.65C451.65,250.86 452.34,252.7 453.18,254.58C453.81,256 454.71,258.24 455.29,258.11C456.58,257.83 456.8,246.08 457.41,238.12C458.32,226.37 457.2,199.4 459.53,194.37C460.13,193.07 461.04,192.13 461.65,192.38C464.36,193.5 462.9,234.2 463.76,250.48C464.38,262.3 465.12,281.05 465.88,281.06C466.54,281.07 466.5,261.78 468,257.85C468.59,256.31 469.3,255.32 470.12,254.99C470.76,254.73 471.65,254.7 472.24,255.33C474.11,257.31 473.65,276.66 474.35,276.66C475.06,276.66 475.84,255.15 476.47,255.16C477.31,255.18 477.85,293.53 478.59,293.53C479.27,293.53 480.07,273.82 480.71,261.94C481.53,246.58 481.78,209.14 482.82,209.1C483.42,209.08 484.07,226.18 484.94,226.23C485.56,226.27 486.28,217.66 487.06,217.62C487.71,217.58 488.2,223 489.18,223.41C489.78,223.66 490.71,222.13 491.29,222.45C492.76,223.25 492.65,232.52 493.41,237.07C494.08,241.09 494.17,247.15 495.53,248.39C496.12,248.92 497.04,249.12 497.65,248.58C500.7,245.9 499.06,195.73 499.76,195.73C500.47,195.73 500.49,240.43 501.88,251.26C502.47,255.81 503.41,260.9 504,260.85C505.13,260.76 505.48,224.9 506.12,224.91C506.95,224.92 507.32,285.81 508.24,285.83C508.85,285.84 509.47,266.33 510.35,258.97C510.97,253.8 511.81,245.82 512.47,245.83C513.23,245.85 513.87,257.63 514.59,263.4C515.29,268.99 516.02,279.93 516.71,279.92C517.44,279.91 518.09,261.25 518.82,261.25C519.51,261.25 520.26,277.99 520.94,277.98C521.68,277.97 522.4,258.43 523.06,258.44C523.83,258.45 524.43,285.64 525.18,285.65C525.85,285.66 526.52,270.35 527.29,263.61C527.95,257.87 528.3,251.2 529.41,247.72C530,245.87 530.66,244.01 531.53,243.71C532.15,243.5 533.04,244.05 533.65,244.66C534.56,245.56 535.16,247.29 535.76,249.26C536.73,252.43 537.12,262.14 537.88,262.16Q538.55,262.18 540,252.34" style="vector-effect: non-scaling-stroke; fill: none; stroke: rgb(0, 100, 80); stroke-opacity: 1; stroke-width: 2px; opacity: 1;"/></g><g class="points"/><g class="text"/></g></g></g><g class="overplot"/><path class="xlines-above crisp" d="M0,0" style="fill: none;"/><path class="ylines-above crisp" d="M0,0" style="fill: none;"/><g class="overlines-above"/><g class="xaxislayer-above"><g class="xtick"><text text-anchor="middle" x="0" y="433" transform="translate(80,0)" style="font-family: 'Open Sans', verdana, arial, sans-serif; font-size: 12px; fill: rgb(42, 63, 95); fill-opacity: 1; white-space: pre;">0</text></g><g class="xtick"><text text-anchor="middle" x="0" y="433" transform="translate(185.47,0)" style="font-family: 'Open Sans', verdana, arial, sans-serif; font-size: 12px; fill: rgb(42, 63, 95); fill-opacity: 1; white-space: pre;">50</text></g><g class="xtick"><text text-anchor="middle" x="0" y="433" transform="translate(290.94,0)" style="font-family: 'Open Sans', verdana, arial, sans-serif; font-size: 12px; fill: rgb(42, 63, 95); fill-opacity: 1; white-space: pre;">100</text></g><g class="xtick"><text text-anchor="middle" x="0" y="433" transform="translate(396.41,0)" style="font-family: 'Open Sans', verdana, arial, sans-serif; font-size: 12px; fill: rgb(42, 63, 95); fill-opacity: 1; white-space: pre;">150</text></g><g class="xtick"><text text-anchor="middle" x="0" y="433" transform="translate(501.88,0)" style="font-family: 'Open Sans', verdana, arial, sans-serif; font-size: 12px; fill: rgb(42, 63, 95); fill-opacity: 1; white-space: pre;">200</text></g><g class="xtick"><text text-anchor="middle" x="0" y="433" transform="translate(607.34,0)" style="font-family: 'Open Sans', verdana, arial, sans-serif; font-size: 12px; fill: rgb(42, 63, 95); fill-opacity: 1; white-space: pre;">250</text></g></g><g class="yaxislayer-above"><g class="ytick"><text text-anchor="end" x="79" y="4.199999999999999" transform="translate(0,407.23)" style="font-family: 'Open Sans', verdana, arial, sans-serif; font-size: 12px; fill: rgb(42, 63, 95); fill-opacity: 1; white-space: pre;">0</text></g><g class="ytick"><text text-anchor="end" x="79" y="4.199999999999999" transform="translate(0,365.22)" style="font-family: 'Open Sans', verdana, arial, sans-serif; font-size: 12px; fill: rgb(42, 63, 95); fill-opacity: 1; white-space: pre;">200</text></g><g class="ytick"><text text-anchor="end" x="79" y="4.199999999999999" transform="translate(0,323.21000000000004)" style="font-family: 'Open Sans', verdana, arial, sans-serif; font-size: 12px; fill: rgb(42, 63, 95); fill-opacity: 1; white-space: pre;">400</text></g><g class="ytick"><text text-anchor="end" x="79" y="4.199999999999999" transform="translate(0,281.19)" style="font-family: 'Open Sans', verdana, arial, sans-serif; font-size: 12px; fill: rgb(42, 63, 95); fill-opacity: 1; white-space: pre;">600</text></g><g class="ytick"><text text-anchor="end" x="79" y="4.199999999999999" transform="translate(0,239.18)" style="font-family: 'Open Sans', verdana, arial, sans-serif; font-size: 12px; fill: rgb(42, 63, 95); fill-opacity: 1; white-space: pre;">800</text></g><g class="ytick"><text text-anchor="end" x="79" y="4.199999999999999" transform="translate(0,197.17000000000002)" style="font-family: 'Open Sans', verdana, arial, sans-serif; font-size: 12px; fill: rgb(42, 63, 95); fill-opacity: 1; white-space: pre;">1000</text></g><g class="ytick"><text text-anchor="end" x="79" y="4.199999999999999" transform="translate(0,155.16)" style="font-family: 'Open Sans', verdana, arial, sans-serif; font-size: 12px; fill: rgb(42, 63, 95); fill-opacity: 1; white-space: pre;">1200</text></g><g class="ytick"><text text-anchor="end" x="79" y="4.199999999999999" transform="translate(0,113.14)" style="font-family: 'Open Sans', verdana, arial, sans-serif; font-size: 12px; fill: rgb(42, 63, 95); fill-opacity: 1; white-space: pre;">1400</text></g></g><g class="overaxes-above"/></g></g><g class="polarlayer"/><g class="ternarylayer"/><g class="geolayer"/><g class="funnelarealayer"/><g class="pielayer"/><g class="treemaplayer"/><g class="sunburstlayer"/><g class="glimages"/><defs id="topdefs-0d7874"><g class="clips"/></defs><g class="layer-above"><g class="imagelayer"/><g class="shapelayer"/></g><g class="infolayer"><g class="g-gtitle"><text class="gtitle" x="35" y="50" text-anchor="start" dy="0em" style="font-family: 'Open Sans', verdana, arial, sans-serif; font-size: 17px; fill: rgb(42, 63, 95); opacity: 1; font-weight: normal; white-space: pre;">GP41 curve: hydrophobicity_group</text></g><g class="g-xtitle"><text class="xtitle" x="350" y="460.8" text-anchor="middle" style="font-family: 'Open Sans', verdana, arial, sans-serif; font-size: 14px; fill: rgb(42, 63, 95); opacity: 1; font-weight: normal; white-space: pre;">Domain</text></g><g class="g-ytitle"><text class="ytitle" transform="rotate(-90,27.496875000000003,260)" x="27.496875000000003" y="260" text-anchor="middle" style="font-family: 'Open Sans', verdana, arial, sans-serif; font-size: 14px; fill: rgb(42, 63, 95); opacity: 1; font-weight: normal; white-space: pre;">Frequency</text></g></g></svg>