<svg class="main-svg" xmlns="http://www.w3.org/2000/svg" xmlns:xlink="http://www.w3.org/1999/xlink" width="700" height="500" style="" viewBox="0 0 700 500"><rect x="0" y="0" width="700" height="500" style="fill: rgb(255, 255, 255); fill-opacity: 1;"/><defs id="defs-58586a"><g class="clips"><clipPath id="clip58586axyplot" class="plotclip"><rect width="462" height="320"/></clipPath><clipPath class="axesclip" id="clip58586ax"><rect x="80" y="0" width="462" height="500"/></clipPath><clipPath class="axesclip" id="clip58586ay"><rect x="0" y="100" width="700" height="320"/></clipPath><clipPath class="axesclip" id="clip58586axy"><rect x="80" y="100" width="462" height="320"/></clipPath></g><g class="gradients"/></defs><g class="bglayer"><rect class="bg" x="80" y="100" width="462" height="320" style="fill: rgb(229, 236, 246); fill-opacity: 1; stroke-width: 0;"/></g><g class="layer-below"><g class="imagelayer"/><g class="shapelayer"/></g><g class="cartesianlayer"><g class="subplot xy"><g class="layer-subplot"><g class="shapelayer"/><g class="imagelayer"/></g><g class="gridlayer"><g class="x"><path class="xgrid crisp" transform="translate(170.23000000000002,0)" d="M0,100v320" style="stroke: rgb(255, 255, 255); stroke-opacity: 1; stroke-width: 1px;"/><path class="xgrid crisp" transform="translate(260.47,0)" d="M0,100v320" style="stroke: rgb(255, 255, 255); stroke-opacity: 1; stroke-width: 1px;"/><path class="xgrid crisp" transform="translate(350.7,0)" d="M0,100v320" style="stroke: rgb(255, 255, 255); stroke-opacity: 1; stroke-width: 1px;"/><path class="xgrid crisp" transform="translate(440.94,0)" d="M0,100v320" style="stroke: rgb(255, 255, 255); stroke-opacity: 1; stroke-width: 1px;"/><path class="xgrid crisp" transform="translate(531.1700000000001,0)" d="M0,100v320" style="stroke: rgb(255, 255, 255); stroke-opacity: 1; stroke-width: 1px;"/></g><g class="y"><path class="ygrid crisp" transform="translate(0,384)" d="M80,0h462" style="stroke: rgb(255, 255, 255); stroke-opacity: 1; stroke-width: 1px;"/><path class="ygrid crisp" transform="translate(0,347.51)" d="M80,0h462" style="stroke: rgb(255, 255, 255); stroke-opacity: 1; stroke-width: 1px;"/><path class="ygrid crisp" transform="translate(0,311.03)" d="M80,0h462" style="stroke: rgb(255, 255, 255); stroke-opacity: 1; stroke-width: 1px;"/><path class="ygrid crisp" transform="translate(0,274.53999999999996)" d="M80,0h462" style="stroke: rgb(255, 255, 255); stroke-opacity: 1; stroke-width: 1px;"/><path class="ygrid crisp" transform="translate(0,238.05)" d="M80,0h462" style="stroke: rgb(255, 255, 255); stroke-opacity: 1; stroke-width: 1px;"/><path class="ygrid crisp" transform="translate(0,201.56)" d="M80,0h462" style="stroke: rgb(255, 255, 255); stroke-opacity: 1; stroke-width: 1px;"/><path class="ygrid crisp" transform="translate(0,165.07)" d="M80,0h462" style="stroke: rgb(255, 255, 255); stroke-opacity: 1; stroke-width: 1px;"/><path class="ygrid crisp" transform="translate(0,128.57999999999998)" d="M80,0h462" style="stroke: rgb(255, 255, 255); stroke-opacity: 1; stroke-width: 1px;"/></g></g><g class="zerolinelayer"><path class="xzl zl crisp" transform="translate(80,0)" d="M0,100v320" style="stroke: rgb(255, 255, 255); stroke-opacity: 1; stroke-width: 2px;"/></g><path class="xlines-below"/><path class="ylines-below"/><g class="overlines-below"/><g class="xaxislayer-below"/><g class="yaxislayer-below"/><g class="overaxes-below"/><g class="plot" transform="translate(80, 100)" clip-path="url('#clip58586axyplot')"><g class="scatterlayer mlayer"><g class="trace scatter traced42e00" style="stroke-miterlimit: 2; opacity: 1;"><g class="fills"/><g class="errorbars"/><g class="lines"><path class="js-line" d="M0,154.36Q0.6,154.4 0.9,154.47C1.21,154.54 1.51,154.65 1.81,154.79C2.12,154.93 2.42,155.12 2.71,155.32C3.02,155.53 3.32,155.77 3.62,156.03C3.93,156.3 4.23,156.61 4.52,156.92C4.83,157.24 5.12,157.59 5.42,157.94C5.73,158.3 6.03,158.67 6.33,159.05C6.63,159.43 6.93,159.82 7.23,160.21C7.53,160.59 7.83,160.99 8.14,161.36C8.44,161.72 8.73,162.09 9.04,162.42C9.34,162.74 9.64,163.05 9.95,163.32C10.24,163.57 10.54,163.81 10.85,163.98C11.14,164.14 11.44,164.28 11.75,164.33C12.05,164.38 12.36,164.38 12.66,164.31C12.97,164.24 13.27,164.09 13.56,163.9C13.88,163.69 14.18,163.4 14.47,163.09C14.79,162.75 15.08,162.35 15.37,161.93C15.68,161.47 15.98,160.97 16.27,160.45C16.58,159.9 16.88,159.31 17.18,158.71C17.49,158.08 17.78,157.43 18.08,156.77C18.39,156.09 18.69,155.4 18.99,154.7C19.29,153.99 19.59,153.28 19.89,152.56C20.19,151.84 20.49,151.11 20.79,150.39C21.09,149.67 21.4,148.94 21.7,148.23C22,147.53 22.3,146.83 22.6,146.14C22.9,145.47 23.2,144.8 23.51,144.15C23.81,143.52 24.1,142.9 24.41,142.3C24.71,141.72 25.01,141.15 25.32,140.61C25.61,140.09 25.91,139.59 26.22,139.12C26.51,138.67 26.81,138.24 27.12,137.85C27.41,137.48 27.72,137.12 28.03,136.81C28.32,136.52 28.62,136.25 28.93,136.04C29.22,135.84 29.53,135.67 29.84,135.55C30.13,135.44 30.44,135.36 30.74,135.35C31.04,135.34 31.35,135.38 31.64,135.46C31.95,135.55 32.26,135.7 32.55,135.88C32.86,136.08 33.16,136.34 33.45,136.62C33.77,136.93 34.07,137.3 34.36,137.69C34.68,138.11 34.97,138.58 35.26,139.08C35.57,139.62 35.87,140.2 36.16,140.8C36.47,141.45 36.78,142.13 37.07,142.84C37.38,143.59 37.68,144.38 37.97,145.19C38.28,146.04 38.58,146.93 38.88,147.84C39.19,148.79 39.49,149.78 39.78,150.78C40.09,151.82 40.38,152.89 40.68,153.98C40.99,155.11 41.29,156.26 41.59,157.43C41.9,158.63 42.19,159.86 42.49,161.1C42.8,162.37 43.1,163.65 43.4,164.95C43.7,166.27 44,167.61 44.3,168.96C44.6,170.32 44.91,171.7 45.21,173.08C45.51,174.47 45.81,175.87 46.11,177.27C46.41,178.67 46.71,180.07 47.01,181.47C47.31,182.86 47.62,184.25 47.92,185.63C48.22,186.99 48.52,188.34 48.82,189.68C49.12,190.99 49.42,192.29 49.73,193.57C50.03,194.81 50.32,196.03 50.63,197.22C50.92,198.36 51.22,199.48 51.53,200.56C51.82,201.58 52.13,202.59 52.44,203.54C52.73,204.42 53.02,205.28 53.34,206.08C53.63,206.81 53.93,207.52 54.25,208.15C54.54,208.71 54.83,209.25 55.15,209.69C55.43,210.07 55.72,210.44 56.05,210.68C56.33,210.89 56.65,211.07 56.96,211.11C57.25,211.15 57.57,211.09 57.86,210.97C58.18,210.84 58.49,210.58 58.77,210.3C59.09,209.98 59.38,209.57 59.67,209.14C59.99,208.67 60.29,208.13 60.58,207.57C60.89,206.97 61.19,206.32 61.48,205.66C61.79,204.97 62.08,204.23 62.38,203.5C62.69,202.74 62.99,201.96 63.29,201.18C63.59,200.39 63.89,199.58 64.19,198.78C64.49,197.97 64.8,197.16 65.1,196.35C65.4,195.55 65.7,194.74 66,193.95C66.3,193.17 66.6,192.4 66.9,191.64C67.2,190.9 67.5,190.16 67.81,189.44C68.11,188.74 68.4,188.05 68.71,187.38C69.01,186.74 69.31,186.11 69.62,185.5C69.92,184.92 70.21,184.35 70.52,183.81C70.81,183.3 71.11,182.8 71.42,182.33C71.71,181.88 72.02,181.46 72.33,181.06C72.62,180.69 72.92,180.33 73.23,180.01C73.52,179.71 73.83,179.43 74.14,179.19C74.43,178.96 74.73,178.76 75.04,178.59C75.34,178.43 75.64,178.29 75.95,178.2C76.25,178.11 76.55,178.05 76.85,178.03C77.15,178.01 77.45,178.02 77.75,178.06C78.05,178.1 78.36,178.19 78.66,178.29C78.97,178.4 79.26,178.54 79.56,178.7C79.87,178.87 80.17,179.07 80.47,179.28C80.78,179.5 81.08,179.75 81.37,180.02C81.68,180.3 81.97,180.61 82.27,180.92C82.58,181.25 82.88,181.59 83.18,181.95C83.49,182.32 83.78,182.72 84.08,183.12C84.39,183.53 84.69,183.96 84.99,184.4C85.3,184.85 85.59,185.31 85.89,185.78C86.19,186.26 86.49,186.76 86.79,187.26C87.09,187.77 87.4,188.29 87.7,188.82C88,189.35 88.3,189.9 88.6,190.44C88.9,190.99 89.21,191.54 89.51,192.1C89.81,192.66 90.11,193.22 90.41,193.78C90.71,194.34 91.02,194.9 91.32,195.45C91.62,196 91.92,196.56 92.22,197.1C92.52,197.64 92.81,198.18 93.12,198.7C93.42,199.21 93.72,199.71 94.03,200.2C94.33,200.67 94.62,201.13 94.93,201.57C95.23,201.99 95.53,202.41 95.84,202.79C96.13,203.15 96.43,203.5 96.74,203.81C97.03,204.1 97.33,204.38 97.64,204.6C97.93,204.81 98.24,205 98.55,205.13C98.84,205.25 99.15,205.34 99.45,205.38C99.75,205.42 100.06,205.4 100.36,205.35C100.66,205.3 100.97,205.19 101.26,205.06C101.57,204.92 101.87,204.73 102.16,204.53C102.47,204.32 102.77,204.07 103.07,203.82C103.38,203.56 103.67,203.27 103.97,202.98C104.28,202.69 104.58,202.37 104.88,202.07C105.18,201.76 105.48,201.45 105.78,201.15C106.08,200.85 106.37,200.55 106.68,200.27C106.98,199.99 107.28,199.73 107.59,199.48C107.89,199.24 108.18,199.02 108.49,198.82C108.79,198.63 109.09,198.46 109.4,198.32C109.7,198.19 110,198.07 110.3,198C110.6,197.93 110.91,197.89 111.21,197.89C111.51,197.89 111.81,197.92 112.11,197.99C112.41,198.06 112.72,198.17 113.01,198.31C113.32,198.46 113.63,198.65 113.92,198.86C114.23,199.09 114.53,199.35 114.82,199.64C115.13,199.95 115.44,200.29 115.73,200.65C116.04,201.03 116.34,201.45 116.63,201.89C116.94,202.35 117.24,202.84 117.53,203.35C117.84,203.88 118.14,204.44 118.44,205.01C118.75,205.61 119.04,206.23 119.34,206.87C119.65,207.54 119.95,208.23 120.25,208.93C120.56,209.65 120.85,210.4 121.15,211.15C121.45,211.93 121.75,212.73 122.05,213.53C122.36,214.35 122.66,215.19 122.96,216.04C123.26,216.9 123.56,217.78 123.86,218.66C124.16,219.55 124.47,220.45 124.77,221.35C125.07,222.25 125.37,223.16 125.67,224.06C125.97,224.94 126.27,225.84 126.58,226.69C126.88,227.51 127.16,228.34 127.48,229.07C127.76,229.71 128.03,230.39 128.38,230.84C128.65,231.19 128.96,231.55 129.29,231.64C129.57,231.72 129.91,231.61 130.19,231.47C130.52,231.31 130.81,230.97 131.1,230.67C131.42,230.34 131.71,229.94 132,229.55C132.31,229.13 132.6,228.68 132.9,228.23C133.21,227.76 133.51,227.27 133.81,226.78C134.11,226.28 134.41,225.76 134.71,225.24C135.02,224.7 135.32,224.15 135.62,223.6C135.92,223.04 136.22,222.47 136.52,221.89C136.82,221.3 137.12,220.69 137.42,220.08C137.73,219.45 138.03,218.82 138.33,218.17C138.64,217.51 138.93,216.83 139.23,216.15C139.54,215.45 139.84,214.73 140.14,214.01C140.45,213.27 140.74,212.52 141.04,211.75C141.35,210.96 141.65,210.16 141.95,209.34C142.26,208.5 142.55,207.65 142.85,206.79C143.15,205.9 143.45,205 143.75,204.09C144.06,203.15 144.36,202.2 144.66,201.24C144.97,200.25 145.26,199.25 145.56,198.23C145.87,197.19 146.17,196.14 146.47,195.07C146.77,193.98 147.07,192.88 147.37,191.77C147.67,190.64 147.97,189.49 148.27,188.33C148.57,187.15 148.88,185.96 149.18,184.76C149.48,183.54 149.78,182.31 150.08,181.07C150.38,179.81 150.69,178.55 150.99,177.27C151.29,175.98 151.59,174.68 151.89,173.37C152.19,172.05 152.49,170.72 152.79,169.39C153.09,168.05 153.4,166.7 153.7,165.35C154,163.99 154.3,162.62 154.6,161.25C154.9,159.87 155.21,158.49 155.51,157.11C155.81,155.73 156.11,154.34 156.41,152.96C156.71,151.57 157.02,150.18 157.32,148.8C157.62,147.42 157.92,146.04 158.22,144.67C158.52,143.3 158.82,141.92 159.12,140.56C159.42,139.2 159.73,137.85 160.03,136.51C160.33,135.18 160.63,133.86 160.93,132.54C161.23,131.24 161.54,129.94 161.84,128.65C162.14,127.38 162.44,126.13 162.74,124.88C163.04,123.66 163.34,122.44 163.64,121.24C163.94,120.06 164.24,118.9 164.55,117.75C164.85,116.63 165.14,115.51 165.45,114.42C165.75,113.36 166.05,112.31 166.36,111.28C166.66,110.28 166.95,109.3 167.26,108.34C167.55,107.41 167.85,106.51 168.16,105.62C168.46,104.77 168.76,103.93 169.07,103.12C169.36,102.35 169.66,101.59 169.97,100.87C170.26,100.18 170.57,99.52 170.88,98.88C171.17,98.28 171.47,97.7 171.78,97.15C172.07,96.64 172.37,96.14 172.68,95.69C172.97,95.27 173.28,94.87 173.59,94.52C173.88,94.19 174.18,93.89 174.49,93.63C174.78,93.39 175.09,93.18 175.4,93.02C175.69,92.87 175.99,92.76 176.3,92.7C176.6,92.64 176.91,92.64 177.21,92.67C177.51,92.7 177.82,92.79 178.11,92.91C178.42,93.04 178.72,93.22 179.01,93.43C179.32,93.65 179.63,93.92 179.92,94.21C180.23,94.52 180.53,94.87 180.82,95.24C181.13,95.63 181.44,96.06 181.73,96.5C182.04,96.97 182.34,97.47 182.63,97.99C182.94,98.53 183.23,99.1 183.53,99.68C183.84,100.29 184.14,100.92 184.44,101.56C184.75,102.23 185.04,102.91 185.34,103.61C185.65,104.33 185.95,105.06 186.25,105.8C186.56,106.56 186.85,107.34 187.15,108.12C187.45,108.92 187.75,109.73 188.05,110.55C188.35,111.38 188.66,112.22 188.96,113.06C189.26,113.92 189.56,114.78 189.86,115.65C190.16,116.52 190.47,117.4 190.77,118.28C191.07,119.16 191.37,120.05 191.67,120.93C191.97,121.82 192.28,122.7 192.58,123.59C192.88,124.47 193.18,125.35 193.48,126.23C193.78,127.1 194.08,127.96 194.38,128.82C194.68,129.66 194.99,130.5 195.29,131.33C195.59,132.14 195.88,132.96 196.19,133.75C196.49,134.53 196.79,135.29 197.1,136.04C197.4,136.76 197.69,137.47 198,138.16C198.29,138.82 198.59,139.47 198.9,140.09C199.19,140.68 199.5,141.26 199.81,141.8C200.1,142.31 200.4,142.8 200.71,143.25C201,143.67 201.3,144.07 201.62,144.42C201.91,144.74 202.21,145.03 202.52,145.27C202.81,145.49 203.11,145.68 203.42,145.8C203.71,145.91 204.03,145.98 204.33,145.98C204.63,145.98 204.94,145.92 205.23,145.81C205.54,145.69 205.85,145.51 206.14,145.29C206.46,145.05 206.75,144.74 207.04,144.42C207.36,144.06 207.66,143.66 207.95,143.23C208.26,142.77 208.56,142.26 208.85,141.73C209.16,141.17 209.46,140.57 209.75,139.96C210.06,139.32 210.36,138.65 210.66,137.96C210.97,137.24 211.26,136.5 211.56,135.75C211.87,134.98 212.17,134.19 212.47,133.39C212.77,132.58 213.07,131.75 213.37,130.92C213.67,130.08 213.97,129.22 214.27,128.37C214.57,127.51 214.88,126.64 215.18,125.78C215.48,124.92 215.78,124.06 216.08,123.2C216.38,122.34 216.69,121.49 216.99,120.64C217.29,119.8 217.59,118.97 217.89,118.15C218.19,117.34 218.49,116.53 218.79,115.74C219.09,114.96 219.39,114.2 219.7,113.44C220,112.7 220.29,111.97 220.6,111.26C220.9,110.56 221.2,109.88 221.51,109.21C221.81,108.56 222.1,107.93 222.41,107.31C222.71,106.71 223.01,106.13 223.32,105.56C223.62,105.01 223.91,104.47 224.22,103.95C224.51,103.45 224.81,102.96 225.12,102.49C225.42,102.03 225.72,101.58 226.03,101.15C226.33,100.73 226.63,100.33 226.93,99.94C227.23,99.55 227.53,99.18 227.84,98.81C228.14,98.45 228.44,98.11 228.74,97.76C229.04,97.42 229.34,97.09 229.64,96.75C229.94,96.41 230.25,96.08 230.55,95.74C230.85,95.4 231.15,95.05 231.45,94.69C231.76,94.32 232.06,93.94 232.36,93.55C232.67,93.14 232.97,92.72 233.26,92.28C233.57,91.81 233.87,91.33 234.16,90.82C234.47,90.28 234.78,89.73 235.07,89.14C235.38,88.52 235.68,87.87 235.97,87.19C236.28,86.47 236.59,85.72 236.88,84.94C237.19,84.12 237.49,83.27 237.78,82.39C238.09,81.46 238.38,80.5 238.68,79.52C238.99,78.49 239.29,77.44 239.59,76.36C239.9,75.24 240.19,74.1 240.49,72.94C240.8,71.74 241.1,70.51 241.4,69.28C241.7,68.02 242,66.74 242.3,65.45C242.6,64.14 242.91,62.82 243.21,61.49C243.51,60.15 243.81,58.79 244.11,57.44C244.41,56.09 244.71,54.72 245.01,53.37C245.31,52.02 245.62,50.67 245.92,49.33C246.22,48 246.52,46.67 246.82,45.35C247.12,44.05 247.43,42.76 247.73,41.49C248.03,40.24 248.33,39.01 248.63,37.79C248.93,36.6 249.22,35.43 249.53,34.28C249.83,33.16 250.13,32.06 250.44,30.99C250.74,29.96 251.03,28.95 251.34,27.97C251.64,27.03 251.94,26.11 252.25,25.23C252.54,24.4 252.84,23.58 253.15,22.81C253.44,22.08 253.74,21.38 254.05,20.72C254.34,20.11 254.64,19.53 254.96,19C255.25,18.51 255.54,18.05 255.86,17.65C256.15,17.29 256.45,16.95 256.77,16.69C257.06,16.46 257.36,16.25 257.67,16.14C257.96,16.03 258.28,15.98 258.58,16C258.88,16.02 259.19,16.14 259.48,16.29C259.8,16.46 260.09,16.72 260.38,17.01C260.7,17.33 261,17.73 261.29,18.16C261.61,18.64 261.9,19.18 262.19,19.75C262.51,20.38 262.81,21.07 263.1,21.78C263.42,22.56 263.71,23.38 264,24.24C264.31,25.16 264.61,26.13 264.9,27.13C265.21,28.19 265.52,29.3 265.81,30.44C266.12,31.64 266.42,32.89 266.71,34.16C267.02,35.5 267.32,36.88 267.62,38.29C267.93,39.76 268.23,41.27 268.52,42.81C268.83,44.41 269.12,46.04 269.42,47.7C269.73,49.42 270.03,51.16 270.33,52.94C270.64,54.77 270.93,56.64 271.23,58.53C271.54,60.47 271.84,62.44 272.14,64.43C272.45,66.47 272.74,68.54 273.04,70.63C273.34,72.76 273.65,74.92 273.95,77.09C274.25,79.3 274.55,81.55 274.85,83.8C275.15,86.09 275.45,88.4 275.75,90.72C276.05,93.07 276.36,95.44 276.66,97.82C276.96,100.22 277.26,102.64 277.56,105.06C277.86,107.5 278.17,109.95 278.47,112.4C278.77,114.86 279.07,117.34 279.37,119.81C279.67,122.28 279.97,124.75 280.27,127.21C280.57,129.66 280.88,132.12 281.18,134.55C281.48,136.96 281.78,139.36 282.08,141.73C282.38,144.05 282.68,146.37 282.99,148.63C283.29,150.82 283.58,152.99 283.89,155.08C284.18,157.07 284.48,159.03 284.79,160.89C285.08,162.6 285.38,164.27 285.7,165.82C285.99,167.2 286.28,168.53 286.6,169.74C286.88,170.8 287.19,171.78 287.51,172.68C287.79,173.47 288.09,174.19 288.41,174.86C288.7,175.47 289.01,176.02 289.32,176.56C289.61,177.07 289.92,177.53 290.22,178.01C290.52,178.48 290.82,178.94 291.12,179.41C291.42,179.89 291.73,180.36 292.03,180.86C292.34,181.37 292.63,181.9 292.93,182.45C293.24,183.02 293.54,183.62 293.84,184.23C294.15,184.87 294.45,185.54 294.74,186.23C295.05,186.95 295.35,187.7 295.64,188.47C295.95,189.28 296.25,190.12 296.55,190.98C296.86,191.88 297.15,192.8 297.45,193.74C297.76,194.72 298.06,195.73 298.36,196.76C298.67,197.82 298.96,198.91 299.26,200.02C299.56,201.16 299.86,202.33 300.16,203.51C300.47,204.72 300.77,205.95 301.07,207.19C301.37,208.46 301.67,209.75 301.97,211.04C302.27,212.35 302.58,213.67 302.88,215C303.18,216.34 303.48,217.69 303.78,219.03C304.08,220.37 304.38,221.72 304.68,223.06C304.98,224.38 305.29,225.7 305.59,227C305.89,228.27 306.18,229.54 306.49,230.77C306.79,231.95 307.09,233.13 307.4,234.24C307.69,235.27 307.97,236.31 308.3,237.21C308.58,238 308.85,238.83 309.21,239.37C309.48,239.77 309.79,240.24 310.11,240.29C310.39,240.34 310.74,240.07 311.01,239.82C311.37,239.48 311.64,238.86 311.92,238.29C312.25,237.63 312.53,236.84 312.82,236.05C313.14,235.18 313.44,234.23 313.73,233.27C314.04,232.24 314.34,231.16 314.63,230.06C314.94,228.9 315.23,227.7 315.53,226.48C315.84,225.21 316.14,223.91 316.44,222.6C316.75,221.25 317.04,219.86 317.34,218.47C317.64,217.05 317.95,215.6 318.25,214.15C318.55,212.67 318.85,211.17 319.15,209.67C319.45,208.15 319.75,206.62 320.05,205.09C320.35,203.54 320.66,201.99 320.96,200.42C321.26,198.81 321.57,197.26 321.86,195.55C322.18,193.67 322.49,191.72 322.77,189.59C323.1,187.15 323.37,184.37 323.67,181.72C323.98,179 324.28,176.21 324.58,173.47C324.88,170.74 325.18,168.01 325.48,165.3C325.78,162.62 326.08,159.95 326.38,157.3C326.68,154.69 326.99,152.1 327.29,149.53C327.59,147.01 327.89,144.5 328.19,142.03C328.49,139.6 328.79,137.19 329.1,134.82C329.4,132.5 329.7,130.21 330,127.95C330.3,125.75 330.59,123.56 330.9,121.42C331.2,119.34 331.5,117.29 331.81,115.28C332.11,113.33 332.4,111.41 332.71,109.53C333.01,107.72 333.31,105.94 333.62,104.2C333.92,102.53 334.21,100.9 334.52,99.31C334.81,97.79 335.11,96.31 335.42,94.87C335.71,93.51 336.02,92.17 336.33,90.89C336.62,89.68 336.92,88.51 337.23,87.39C337.52,86.34 337.83,85.33 338.14,84.37C338.43,83.49 338.72,82.63 339.04,81.84C339.33,81.11 339.63,80.42 339.95,79.79C340.24,79.23 340.53,78.7 340.85,78.24C341.13,77.84 341.43,77.46 341.75,77.18C342.04,76.93 342.34,76.71 342.66,76.6C342.95,76.5 343.26,76.46 343.56,76.5C343.87,76.54 344.18,76.69 344.47,76.87C344.79,77.07 345.09,77.38 345.37,77.7C345.69,78.07 345.98,78.51 346.27,78.98C346.59,79.5 346.89,80.09 347.18,80.7C347.5,81.37 347.79,82.09 348.08,82.83C348.39,83.63 348.7,84.48 348.99,85.35C349.3,86.28 349.6,87.26 349.89,88.26C350.2,89.31 350.5,90.4 350.79,91.52C351.1,92.69 351.4,93.89 351.7,95.12C352.01,96.39 352.3,97.7 352.6,99.03C352.91,100.4 353.21,101.8 353.51,103.22C353.82,104.68 354.11,106.16 354.41,107.66C354.72,109.2 355.02,110.76 355.32,112.34C355.62,113.95 355.92,115.57 356.22,117.21C356.52,118.88 356.82,120.56 357.12,122.25C357.42,123.96 357.73,125.69 358.03,127.42C358.33,129.17 358.63,130.93 358.93,132.69C359.23,134.46 359.54,136.24 359.84,138.02C360.14,139.8 360.44,141.59 360.74,143.36C361.04,145.13 361.34,146.89 361.64,148.64C361.94,150.37 362.24,152.1 362.55,153.78C362.85,155.41 363.13,157.05 363.45,158.58C363.74,159.99 364.01,161.48 364.36,162.62C364.63,163.49 364.91,164.81 365.26,164.86C365.53,164.9 365.91,164.25 366.16,163.7C366.6,162.77 366.79,161 367.07,159.5C367.39,157.8 367.67,155.87 367.97,154.02C368.28,152.11 368.58,150.14 368.88,148.2C369.18,146.26 369.48,144.31 369.78,142.39C370.08,140.5 370.37,138.61 370.68,136.76C370.98,134.95 371.28,133.15 371.59,131.38C371.89,129.66 372.18,127.96 372.49,126.29C372.79,124.67 373.09,123.08 373.4,121.52C373.7,120.02 373.99,118.54 374.3,117.1C374.6,115.72 374.9,114.36 375.21,113.04C375.51,111.78 375.8,110.54 376.11,109.35C376.4,108.21 376.7,107.11 377.01,106.04C377.3,105.03 377.61,104.04 377.92,103.1C378.21,102.22 378.51,101.36 378.82,100.55C379.11,99.79 379.42,99.06 379.73,98.38C380.02,97.75 380.32,97.14 380.63,96.58C380.92,96.07 381.21,95.59 381.53,95.16C381.82,94.77 382.12,94.4 382.44,94.1C382.73,93.83 383.03,93.58 383.34,93.4C383.63,93.23 383.94,93.1 384.25,93.04C384.55,92.98 384.85,92.98 385.15,93.02C385.45,93.06 385.76,93.17 386.05,93.31C386.36,93.46 386.67,93.67 386.96,93.91C387.27,94.16 387.57,94.47 387.86,94.79C388.17,95.14 388.48,95.53 388.77,95.94C389.08,96.37 389.38,96.84 389.67,97.33C389.98,97.85 390.28,98.4 390.58,98.96C390.89,99.55 391.19,100.16 391.48,100.79C391.79,101.44 392.08,102.12 392.38,102.81C392.69,103.52 392.99,104.26 393.29,105C393.6,105.76 393.89,106.54 394.19,107.33C394.5,108.14 394.8,108.96 395.1,109.79C395.4,110.63 395.7,111.48 396,112.34C396.3,113.21 396.6,114.09 396.9,114.98C397.2,115.87 397.51,116.78 397.81,117.68C398.11,118.59 398.41,119.51 398.71,120.42C399.01,121.34 399.32,122.26 399.62,123.18C399.92,124.1 400.22,125.02 400.52,125.94C400.82,126.86 401.12,127.78 401.42,128.7C401.72,129.61 402.03,130.52 402.33,131.42C402.63,132.32 402.93,133.21 403.23,134.1C403.53,134.98 403.84,135.85 404.14,136.72C404.44,137.58 404.74,138.43 405.04,139.27C405.34,140.1 405.65,140.93 405.95,141.74C406.25,142.54 406.55,143.33 406.85,144.11C407.15,144.87 407.45,145.63 407.75,146.37C408.05,147.1 408.35,147.82 408.66,148.52C408.96,149.21 409.25,149.88 409.56,150.54C409.86,151.18 410.16,151.8 410.47,152.41C410.77,153 411.06,153.57 411.37,154.12C411.66,154.65 411.96,155.18 412.27,155.67C412.56,156.14 412.87,156.59 413.18,157.02C413.47,157.43 413.77,157.83 414.08,158.19C414.37,158.53 414.68,158.84 414.99,159.13C415.28,159.4 415.58,159.65 415.89,159.86C416.18,160.06 416.48,160.23 416.79,160.35C417.09,160.47 417.39,160.56 417.7,160.6C418,160.64 418.3,160.65 418.6,160.61C418.9,160.57 419.21,160.49 419.51,160.38C419.82,160.26 420.12,160.1 420.41,159.91C420.72,159.71 421.03,159.47 421.32,159.21C421.63,158.93 421.93,158.62 422.22,158.29C422.53,157.94 422.83,157.56 423.12,157.17C423.43,156.76 423.73,156.31 424.03,155.86C424.34,155.39 424.63,154.89 424.93,154.39C425.24,153.87 425.54,153.32 425.84,152.77C426.15,152.2 426.44,151.61 426.74,151.02C427.04,150.41 427.34,149.79 427.64,149.16C427.94,148.52 428.25,147.88 428.55,147.23C428.85,146.57 429.15,145.9 429.45,145.23C429.75,144.55 430.06,143.87 430.36,143.19C430.66,142.51 430.96,141.82 431.26,141.13C431.56,140.44 431.86,139.75 432.16,139.07C432.46,138.39 432.77,137.71 433.07,137.04C433.37,136.37 433.67,135.71 433.97,135.05C434.27,134.4 434.58,133.76 434.88,133.12C435.18,132.5 435.48,131.88 435.78,131.27C436.08,130.67 436.37,130.08 436.68,129.51C436.98,128.95 437.28,128.4 437.59,127.87C437.89,127.35 438.18,126.85 438.49,126.36C438.79,125.89 439.09,125.43 439.4,124.99C439.7,124.57 439.99,124.15 440.3,123.76C440.6,123.39 440.9,123.03 441.21,122.7C441.5,122.38 441.8,122.08 442.11,121.81C442.4,121.55 442.7,121.3 443.01,121.09C443.31,120.88 443.61,120.69 443.92,120.54C444.21,120.39 444.51,120.27 444.82,120.18C445.12,120.09 445.43,120.03 445.73,120C446.03,119.97 446.33,119.96 446.63,119.99C446.93,120.02 447.23,120.08 447.53,120.16C447.84,120.24 448.14,120.35 448.44,120.48C448.75,120.61 449.04,120.78 449.34,120.96C449.65,121.15 449.95,121.36 450.25,121.58C450.56,121.81 450.85,122.05 451.15,122.31C451.46,122.58 451.75,122.87 452.05,123.16C452.36,123.46 452.66,123.77 452.96,124.08C453.26,124.4 453.56,124.73 453.86,125.06C454.16,125.4 454.47,125.74 454.77,126.08C455.07,126.42 455.37,126.76 455.67,127.1C455.97,127.44 456.28,127.77 456.58,128.1C456.88,128.42 457.18,128.74 457.48,129.04C457.78,129.34 458.07,129.63 458.38,129.9C458.68,130.16 458.98,130.42 459.29,130.65C459.59,130.87 459.88,131.08 460.19,131.26C460.49,131.43 460.79,131.6 461.1,131.72Q461.4,131.84 462,132" style="vector-effect: non-scaling-stroke; fill: none; stroke: rgb(0, 176, 246); stroke-opacity: 1; stroke-width: 2px; opacity: 1;"/></g><g class="points"/><g class="text"/></g><g class="trace scatter traceb9f266" style="stroke-miterlimit: 2; opacity: 1;"><g class="fills"/><g class="errorbars"/><g class="lines"><path class="js-line" d="M0,243.81Q0.6,243.84 0.9,243.9C1.21,243.96 1.51,244.05 1.81,244.17C2.12,244.29 2.41,244.45 2.71,244.63C3.02,244.81 3.32,245.03 3.62,245.26C3.93,245.5 4.23,245.77 4.52,246.06C4.83,246.36 5.13,246.69 5.42,247.04C5.73,247.4 6.03,247.8 6.33,248.2C6.64,248.62 6.93,249.06 7.23,249.52C7.54,250 7.84,250.49 8.14,251C8.45,251.53 8.74,252.08 9.04,252.64C9.35,253.22 9.65,253.82 9.95,254.43C10.26,255.06 10.55,255.72 10.85,256.38C11.15,257.06 11.45,257.75 11.75,258.46C12.06,259.19 12.36,259.93 12.66,260.68C12.97,261.45 13.26,262.23 13.56,263.02C13.87,263.83 14.17,264.66 14.47,265.49C14.77,266.34 15.07,267.2 15.37,268.07C15.67,268.95 15.97,269.85 16.27,270.75C16.57,271.67 16.88,272.6 17.18,273.53C17.48,274.48 17.78,275.43 18.08,276.39C18.38,277.36 18.69,278.34 18.99,279.33C19.29,280.32 19.59,281.32 19.89,282.33C20.19,283.34 20.49,284.37 20.79,285.39C21.09,286.42 21.4,287.45 21.7,288.49C22,289.53 22.3,290.58 22.6,291.62C22.9,292.66 23.21,293.7 23.51,294.74C23.81,295.77 24.1,296.82 24.41,297.82C24.71,298.78 25,299.78 25.32,300.64C25.6,301.4 25.87,302.18 26.22,302.74C26.49,303.17 26.78,303.58 27.12,303.78C27.4,303.95 27.73,303.94 28.03,303.98C28.33,304.02 28.63,304 28.93,304C29.23,304 29.54,303.98 29.84,303.95C30.14,303.92 30.44,303.88 30.74,303.83C31.04,303.78 31.34,303.72 31.64,303.64C31.95,303.55 32.25,303.45 32.55,303.32C32.86,303.18 33.16,303.03 33.45,302.83C33.76,302.62 34.07,302.36 34.36,302.06C34.68,301.74 34.97,301.36 35.26,300.95C35.57,300.51 35.87,300 36.16,299.49C36.47,298.95 36.77,298.36 37.07,297.78C37.38,297.18 37.67,296.56 37.97,295.94C38.27,295.32 38.58,294.68 38.88,294.06C39.18,293.44 39.48,292.82 39.78,292.21C40.08,291.61 40.37,291.01 40.68,290.43C40.98,289.86 41.28,289.31 41.59,288.77C41.89,288.24 42.18,287.73 42.49,287.23C42.79,286.75 43.09,286.28 43.4,285.83C43.7,285.4 43.99,284.98 44.3,284.58C44.6,284.2 44.9,283.83 45.21,283.49C45.5,283.16 45.8,282.85 46.11,282.57C46.4,282.3 46.7,282.04 47.01,281.82C47.31,281.61 47.61,281.41 47.92,281.25C48.22,281.09 48.51,280.96 48.82,280.86C49.12,280.76 49.43,280.69 49.73,280.65C50.03,280.61 50.33,280.61 50.63,280.63C50.93,280.65 51.23,280.71 51.53,280.79C51.84,280.88 52.14,281 52.44,281.14C52.75,281.29 53.05,281.47 53.34,281.67C53.65,281.88 53.95,282.13 54.25,282.39C54.56,282.67 54.86,282.97 55.15,283.29C55.46,283.63 55.75,284 56.05,284.38C56.36,284.78 56.66,285.19 56.96,285.63C57.27,286.09 57.56,286.57 57.86,287.06C58.17,287.57 58.47,288.1 58.77,288.65C59.08,289.21 59.37,289.8 59.67,290.39C59.98,291 60.28,291.64 60.58,292.28C60.89,292.94 61.18,293.61 61.48,294.29C61.78,294.98 62.08,295.69 62.38,296.4C62.68,297.11 62.99,297.84 63.29,298.55C63.59,299.25 63.88,299.98 64.19,300.65C64.48,301.28 64.77,301.94 65.1,302.46C65.38,302.9 65.66,303.37 66,303.61C66.27,303.81 66.6,303.92 66.9,303.93C67.2,303.94 67.52,303.82 67.81,303.68C68.12,303.53 68.42,303.31 68.71,303.06C69.03,302.79 69.33,302.46 69.62,302.11C69.94,301.72 70.23,301.28 70.52,300.81C70.84,300.29 71.13,299.71 71.42,299.11C71.74,298.45 72.04,297.74 72.33,297C72.64,296.2 72.94,295.36 73.23,294.49C73.54,293.57 73.84,292.62 74.14,291.64C74.45,290.62 74.74,289.57 75.04,288.5C75.35,287.4 75.65,286.26 75.95,285.12C76.26,283.95 76.55,282.77 76.85,281.57C77.15,280.35 77.45,279.12 77.75,277.88C78.05,276.62 78.36,275.35 78.66,274.08C78.96,272.8 79.26,271.51 79.56,270.22C79.86,268.92 80.17,267.61 80.47,266.3C80.77,264.99 81.07,263.67 81.37,262.35C81.67,261.03 81.97,259.71 82.27,258.39C82.57,257.07 82.88,255.75 83.18,254.43C83.48,253.12 83.78,251.8 84.08,250.49C84.38,249.18 84.69,247.88 84.99,246.58C85.29,245.29 85.59,244 85.89,242.71C86.19,241.43 86.49,240.15 86.79,238.88C87.09,237.62 87.4,236.37 87.7,235.12C88,233.89 88.3,232.66 88.6,231.44C88.9,230.23 89.21,229.03 89.51,227.83C89.81,226.65 90.11,225.47 90.41,224.31C90.71,223.16 91.02,222.02 91.32,220.89C91.62,219.78 91.92,218.67 92.22,217.58C92.52,216.5 92.82,215.44 93.12,214.38C93.42,213.34 93.73,212.31 94.03,211.3C94.33,210.31 94.63,209.32 94.93,208.35C95.23,207.4 95.53,206.45 95.84,205.52C96.14,204.61 96.44,203.72 96.74,202.84C97.04,201.98 97.33,201.13 97.64,200.3C97.94,199.49 98.24,198.69 98.55,197.91C98.85,197.15 99.14,196.4 99.45,195.67C99.75,194.96 100.05,194.27 100.36,193.59C100.66,192.94 100.95,192.29 101.26,191.67C101.56,191.07 101.85,190.47 102.16,189.9C102.46,189.35 102.76,188.82 103.07,188.31C103.37,187.82 103.66,187.33 103.97,186.87C104.27,186.43 104.57,186.01 104.88,185.61C105.18,185.23 105.47,184.86 105.78,184.51C106.07,184.18 106.37,183.87 106.68,183.58C106.98,183.3 107.28,183.04 107.59,182.81C107.88,182.59 108.18,182.39 108.49,182.22C108.79,182.05 109.09,181.9 109.4,181.78C109.7,181.66 110,181.57 110.3,181.51C110.6,181.45 110.91,181.41 111.21,181.4C111.51,181.39 111.81,181.4 112.11,181.44C112.41,181.48 112.71,181.55 113.01,181.64C113.32,181.73 113.62,181.84 113.92,181.98C114.23,182.12 114.52,182.29 114.82,182.47C115.13,182.66 115.43,182.87 115.73,183.09C116.04,183.32 116.33,183.57 116.63,183.84C116.94,184.11 117.23,184.41 117.53,184.71C117.84,185.02 118.14,185.35 118.44,185.69C118.75,186.04 119.04,186.41 119.34,186.78C119.65,187.17 119.95,187.57 120.25,187.97C120.55,188.38 120.85,188.8 121.15,189.23C121.45,189.67 121.75,190.13 122.05,190.58C122.35,191.04 122.66,191.51 122.96,191.98C123.26,192.46 123.56,192.94 123.86,193.43C124.16,193.92 124.47,194.41 124.77,194.91C125.07,195.41 125.37,195.92 125.67,196.42C125.97,196.92 126.28,197.42 126.58,197.92C126.88,198.42 127.18,198.92 127.48,199.41C127.78,199.9 128.08,200.39 128.38,200.87C128.68,201.35 128.99,201.82 129.29,202.28C129.59,202.74 129.88,203.19 130.19,203.63C130.49,204.06 130.79,204.48 131.1,204.88C131.4,205.27 131.69,205.65 132,206.02C132.3,206.37 132.59,206.72 132.9,207.04C133.2,207.35 133.5,207.63 133.81,207.9C134.1,208.15 134.4,208.39 134.71,208.6C135.01,208.8 135.31,208.98 135.62,209.12C135.91,209.25 136.22,209.36 136.52,209.43C136.82,209.49 137.12,209.53 137.42,209.52C137.72,209.51 138.03,209.46 138.33,209.38C138.64,209.29 138.94,209.16 139.23,209C139.54,208.83 139.85,208.61 140.14,208.37C140.45,208.11 140.75,207.81 141.04,207.49C141.35,207.14 141.66,206.76 141.95,206.35C142.26,205.92 142.56,205.45 142.85,204.96C143.16,204.44 143.46,203.9 143.75,203.33C144.06,202.73 144.36,202.1 144.66,201.45C144.97,200.77 145.26,200.07 145.56,199.35C145.87,198.6 146.17,197.81 146.47,197.02C146.78,196.2 147.07,195.36 147.37,194.5C147.68,193.61 147.97,192.7 148.27,191.78C148.58,190.83 148.88,189.87 149.18,188.89C149.49,187.89 149.78,186.87 150.08,185.84C150.38,184.79 150.69,183.72 150.99,182.65C151.29,181.56 151.59,180.45 151.89,179.33C152.19,178.2 152.49,177.05 152.79,175.9C153.09,174.73 153.4,173.56 153.7,172.38C154,171.19 154.3,169.99 154.6,168.78C154.9,167.57 155.21,166.34 155.51,165.12C155.81,163.89 156.11,162.66 156.41,161.42C156.71,160.17 157.02,158.92 157.32,157.67C157.62,156.42 157.92,155.16 158.22,153.91C158.52,152.66 158.82,151.4 159.12,150.15C159.42,148.9 159.73,147.64 160.03,146.39C160.33,145.14 160.63,143.89 160.93,142.64C161.23,141.4 161.54,140.16 161.84,138.93C162.14,137.7 162.44,136.48 162.74,135.26C163.04,134.05 163.34,132.85 163.64,131.65C163.94,130.46 164.25,129.28 164.55,128.1C164.85,126.93 165.15,125.77 165.45,124.62C165.75,123.48 166.06,122.34 166.36,121.22C166.66,120.11 166.96,119.01 167.26,117.92C167.56,116.84 167.86,115.77 168.16,114.71C168.46,113.67 168.77,112.64 169.07,111.62C169.37,110.62 169.67,109.62 169.97,108.64C170.27,107.68 170.57,106.73 170.88,105.79C171.18,104.87 171.48,103.97 171.78,103.08C172.08,102.21 172.37,101.35 172.68,100.5C172.98,99.68 173.28,98.87 173.59,98.07C173.89,97.3 174.18,96.53 174.49,95.79C174.79,95.07 175.09,94.36 175.4,93.67C175.7,93 175.99,92.35 176.3,91.72C176.6,91.11 176.9,90.52 177.21,89.94C177.51,89.39 177.8,88.85 178.11,88.33C178.4,87.84 178.7,87.36 179.01,86.9C179.31,86.46 179.61,86.04 179.92,85.65C180.21,85.28 180.51,84.93 180.82,84.6C181.11,84.29 181.42,83.99 181.73,83.73C182.02,83.48 182.32,83.25 182.63,83.06C182.92,82.87 183.22,82.71 183.53,82.58C183.83,82.46 184.13,82.37 184.44,82.31C184.74,82.25 185.04,82.23 185.34,82.24C185.64,82.25 185.95,82.29 186.25,82.37C186.55,82.45 186.86,82.56 187.15,82.7C187.46,82.85 187.76,83.03 188.05,83.24C188.36,83.46 188.67,83.72 188.96,83.99C189.27,84.28 189.57,84.6 189.86,84.94C190.17,85.3 190.48,85.68 190.77,86.09C191.08,86.52 191.38,86.98 191.67,87.46C191.98,87.96 192.29,88.48 192.58,89.02C192.89,89.59 193.19,90.18 193.48,90.79C193.79,91.43 194.08,92.09 194.38,92.76C194.69,93.46 194.99,94.19 195.29,94.93C195.6,95.7 195.89,96.49 196.19,97.3C196.5,98.13 196.8,98.98 197.1,99.85C197.41,100.75 197.7,101.67 198,102.6C198.3,103.56 198.6,104.54 198.9,105.54C199.21,106.56 199.51,107.6 199.81,108.66C200.12,109.74 200.41,110.84 200.71,111.95C201.02,113.09 201.32,114.26 201.62,115.43C201.92,116.63 202.22,117.84 202.52,119.07C202.82,120.32 203.12,121.59 203.42,122.87C203.72,124.18 204.03,125.5 204.33,126.84C204.63,128.2 204.93,129.57 205.23,130.96C205.53,132.37 205.84,133.79 206.14,135.22C206.44,136.68 206.74,138.15 207.04,139.63C207.34,141.13 207.65,142.65 207.95,144.18C208.25,145.73 208.55,147.28 208.85,148.85C209.15,150.44 209.45,152.04 209.75,153.65C210.05,155.28 210.36,156.91 210.66,158.56C210.96,160.23 211.26,161.91 211.56,163.59C211.86,165.29 212.17,166.99 212.47,168.71C212.77,170.44 213.07,172.18 213.37,173.93C213.67,175.69 213.97,177.46 214.27,179.24C214.57,181.03 214.88,182.83 215.18,184.63C215.48,186.44 215.78,188.26 216.08,190.09C216.38,191.93 216.69,193.77 216.99,195.62C217.29,197.48 217.59,199.34 217.89,201.21C218.19,203.08 218.49,204.96 218.79,206.84C219.09,208.73 219.4,210.63 219.7,212.53C220,214.43 220.3,216.33 220.6,218.24C220.9,220.15 221.21,222.07 221.51,223.99C221.81,225.91 222.11,227.84 222.41,229.76C222.71,231.69 223.02,233.61 223.32,235.54C223.62,237.47 223.92,239.4 224.22,241.33C224.52,243.26 224.82,245.19 225.12,247.12C225.42,249.05 225.73,250.97 226.03,252.9C226.33,254.82 226.63,256.74 226.93,258.66C227.23,260.57 227.54,262.48 227.84,264.39C228.14,266.29 228.44,268.19 228.74,270.09C229.04,271.98 229.34,273.86 229.64,275.74C229.94,277.61 230.25,279.47 230.55,281.32C230.85,283.16 231.15,284.99 231.45,286.81C231.75,288.6 232.05,290.4 232.36,292.14C232.66,293.82 232.94,295.54 233.26,297.08C233.54,298.44 233.79,299.88 234.16,300.9C234.43,301.64 234.7,302.33 235.07,302.72C235.33,302.99 235.66,303.12 235.97,303.21C236.26,303.29 236.58,303.3 236.88,303.26C237.19,303.22 237.5,303.12 237.78,302.95C238.1,302.75 238.41,302.46 238.68,302.09C239.03,301.61 239.31,300.92 239.59,300.2C239.93,299.3 240.2,298.18 240.49,297.07C240.81,295.84 241.1,294.49 241.4,293.16C241.71,291.78 242,290.34 242.3,288.92C242.6,287.48 242.91,286.03 243.21,284.59C243.51,283.14 243.81,281.69 244.11,280.25C244.41,278.82 244.71,277.39 245.01,275.97C245.31,274.56 245.62,273.16 245.92,271.77C246.22,270.39 246.52,269.01 246.82,267.65C247.12,266.31 247.43,264.97 247.73,263.65C248.03,262.34 248.33,261.04 248.63,259.75C248.93,258.48 249.23,257.22 249.53,255.97C249.83,254.74 250.14,253.53 250.44,252.32C250.74,251.13 251.04,249.95 251.34,248.79C251.64,247.65 251.95,246.52 252.25,245.4C252.55,244.3 252.85,243.21 253.15,242.14C253.45,241.09 253.74,240.05 254.05,239.02C254.35,238.02 254.65,237.03 254.96,236.05C255.26,235.09 255.55,234.15 255.86,233.22C256.16,232.31 256.46,231.42 256.77,230.54C257.07,229.68 257.36,228.84 257.67,228.01C257.97,227.2 258.27,226.41 258.58,225.63C258.88,224.88 259.18,224.13 259.48,223.41C259.78,222.71 260.07,222.02 260.38,221.35C260.68,220.7 260.98,220.06 261.29,219.44C261.59,218.84 261.88,218.26 262.19,217.7C262.49,217.16 262.79,216.64 263.1,216.13C263.4,215.64 263.69,215.17 264,214.72C264.29,214.29 264.59,213.87 264.9,213.48C265.2,213.1 265.5,212.75 265.81,212.41C266.1,212.09 266.4,211.78 266.71,211.5C267.01,211.23 267.31,210.99 267.62,210.77C267.91,210.56 268.21,210.37 268.52,210.21C268.81,210.06 269.12,209.93 269.42,209.83C269.72,209.73 270.03,209.65 270.33,209.61C270.63,209.57 270.93,209.56 271.23,209.57C271.53,209.58 271.84,209.63 272.14,209.7C272.44,209.77 272.74,209.88 273.04,210C273.35,210.13 273.65,210.29 273.95,210.47C274.26,210.66 274.56,210.87 274.85,211.11C275.16,211.36 275.45,211.63 275.75,211.92C276.06,212.22 276.36,212.54 276.66,212.88C276.97,213.24 277.26,213.62 277.56,214.01C277.87,214.42 278.17,214.85 278.47,215.29C278.78,215.75 279.07,216.24 279.37,216.73C279.68,217.24 279.97,217.77 280.27,218.31C280.58,218.87 280.88,219.44 281.18,220.03C281.49,220.63 281.78,221.25 282.08,221.88C282.39,222.53 282.69,223.19 282.99,223.86C283.3,224.55 283.59,225.25 283.89,225.96C284.19,226.68 284.49,227.41 284.79,228.15C285.09,228.9 285.4,229.67 285.7,230.44C286,231.22 286.3,232.01 286.6,232.81C286.9,233.61 287.21,234.43 287.51,235.24C287.81,236.06 288.11,236.89 288.41,237.72C288.71,238.55 289.02,239.39 289.32,240.22C289.62,241.05 289.92,241.89 290.22,242.72C290.52,243.55 290.82,244.37 291.12,245.19C291.42,246 291.73,246.81 292.03,247.6C292.33,248.38 292.62,249.15 292.93,249.91C293.23,250.65 293.53,251.38 293.84,252.09C294.14,252.77 294.43,253.45 294.74,254.09C295.03,254.7 295.33,255.29 295.64,255.85C295.93,256.37 296.23,256.88 296.55,257.33C296.84,257.75 297.13,258.15 297.45,258.48C297.74,258.78 298.04,259.06 298.36,259.26C298.65,259.44 298.95,259.59 299.26,259.65C299.55,259.71 299.87,259.71 300.16,259.64C300.47,259.57 300.78,259.4 301.07,259.21C301.39,259 301.68,258.72 301.97,258.41C302.29,258.07 302.59,257.66 302.88,257.24C303.2,256.78 303.49,256.27 303.78,255.74C304.09,255.18 304.39,254.58 304.68,253.96C304.99,253.3 305.29,252.61 305.59,251.91C305.9,251.18 306.19,250.42 306.49,249.65C306.8,248.85 307.1,248.02 307.4,247.19C307.71,246.34 308,245.47 308.3,244.59C308.61,243.69 308.91,242.77 309.21,241.85C309.51,240.92 309.81,239.98 310.11,239.03C310.41,238.07 310.71,237.1 311.01,236.13C311.31,235.16 311.62,234.18 311.92,233.2C312.22,232.22 312.52,231.23 312.82,230.25C313.12,229.27 313.43,228.3 313.73,227.32C314.03,226.35 314.33,225.38 314.63,224.41C314.93,223.45 315.23,222.5 315.53,221.55C315.83,220.62 316.14,219.69 316.44,218.77C316.74,217.87 317.04,216.97 317.34,216.08C317.64,215.21 317.95,214.35 318.25,213.5C318.55,212.67 318.85,211.85 319.15,211.04C319.45,210.25 319.74,209.48 320.05,208.72C320.35,207.98 320.65,207.26 320.96,206.56C321.26,205.88 321.55,205.21 321.86,204.56C322.16,203.94 322.46,203.33 322.77,202.74C323.06,202.18 323.36,201.64 323.67,201.12C323.97,200.62 324.27,200.14 324.58,199.69C324.87,199.26 325.17,198.86 325.48,198.48C325.77,198.13 326.07,197.79 326.38,197.49C326.67,197.21 326.98,196.94 327.29,196.72C327.58,196.51 327.88,196.33 328.19,196.19C328.49,196.06 328.79,195.96 329.1,195.9C329.4,195.85 329.7,195.83 330,195.85C330.3,195.87 330.61,195.94 330.9,196.05C331.21,196.16 331.52,196.32 331.81,196.51C332.12,196.71 332.42,196.95 332.71,197.21C333.02,197.49 333.33,197.82 333.62,198.17C333.93,198.54 334.23,198.96 334.52,199.39C334.83,199.85 335.13,200.35 335.42,200.86C335.73,201.41 336.04,201.98 336.33,202.58C336.64,203.21 336.94,203.87 337.23,204.55C337.54,205.26 337.84,206.01 338.14,206.77C338.45,207.56 338.74,208.38 339.04,209.22C339.35,210.09 339.65,210.98 339.95,211.89C340.26,212.83 340.55,213.8 340.85,214.79C341.15,215.81 341.45,216.85 341.75,217.9C342.06,218.98 342.36,220.08 342.66,221.2C342.97,222.34 343.26,223.51 343.56,224.68C343.86,225.88 344.17,227.09 344.47,228.31C344.77,229.55 345.07,230.81 345.37,232.08C345.67,233.36 345.97,234.65 346.27,235.95C346.57,237.26 346.88,238.58 347.18,239.9C347.48,241.22 347.78,242.55 348.08,243.87C348.38,245.19 348.69,246.5 348.99,247.81C349.29,249.1 349.59,250.4 349.89,251.67C350.19,252.91 350.48,254.15 350.79,255.36C351.09,256.53 351.39,257.68 351.7,258.79C351.99,259.84 352.29,260.89 352.6,261.86C352.89,262.76 353.19,263.64 353.51,264.44C353.8,265.15 354.08,265.85 354.41,266.43C354.69,266.92 354.98,267.41 355.32,267.71C355.6,267.96 355.91,268.18 356.22,268.21C356.51,268.24 356.84,268.09 357.12,267.9C357.46,267.66 357.75,267.21 358.03,266.76C358.37,266.22 358.65,265.53 358.93,264.83C359.26,264.02 359.55,263.1 359.84,262.16C360.16,261.11 360.45,259.98 360.74,258.82C361.05,257.57 361.35,256.25 361.64,254.9C361.95,253.47 362.25,251.99 362.55,250.48C362.86,248.91 363.15,247.29 363.45,245.65C363.76,243.96 364.06,242.24 364.36,240.5C364.67,238.72 364.96,236.91 365.26,235.09C365.56,233.24 365.86,231.38 366.16,229.5C366.46,227.6 366.77,225.69 367.07,223.77C367.37,221.84 367.67,219.89 367.97,217.95C368.27,216 368.58,214.04 368.88,212.09C369.18,210.14 369.48,208.18 369.78,206.23C370.08,204.28 370.38,202.32 370.68,200.38C370.98,198.44 371.29,196.51 371.59,194.59C371.89,192.68 372.19,190.77 372.49,188.87C372.79,186.99 373.1,185.11 373.4,183.25C373.7,181.41 374,179.58 374.3,177.76C374.6,175.96 374.91,174.17 375.21,172.4C375.51,170.65 375.81,168.92 376.11,167.2C376.41,165.51 376.71,163.83 377.01,162.17C377.31,160.54 377.62,158.93 377.92,157.33C378.22,155.77 378.51,154.22 378.82,152.69C379.12,151.2 379.42,149.72 379.73,148.27C380.03,146.85 380.33,145.45 380.63,144.07C380.93,142.73 381.22,141.4 381.53,140.1C381.83,138.84 382.13,137.6 382.44,136.39C382.74,135.22 383.03,134.06 383.34,132.93C383.64,131.84 383.94,130.77 384.25,129.73C384.55,128.73 384.84,127.75 385.15,126.8C385.44,125.89 385.74,125 386.05,124.14C386.34,123.32 386.65,122.53 386.96,121.77C387.25,121.05 387.55,120.35 387.86,119.68C388.15,119.05 388.46,118.45 388.77,117.88C389.06,117.35 389.36,116.84 389.67,116.37C389.96,115.94 390.27,115.53 390.58,115.16C390.87,114.82 391.17,114.51 391.48,114.24C391.77,113.99 392.07,113.77 392.38,113.61C392.67,113.46 392.98,113.34 393.29,113.28C393.59,113.22 393.89,113.21 394.19,113.24C394.5,113.27 394.81,113.36 395.1,113.49C395.41,113.62 395.71,113.82 396,114.03C396.31,114.26 396.61,114.54 396.9,114.84C397.21,115.17 397.52,115.54 397.81,115.93C398.12,116.35 398.42,116.82 398.71,117.3C399.02,117.81 399.33,118.35 399.62,118.92C399.93,119.52 400.23,120.16 400.52,120.81C400.83,121.49 401.13,122.2 401.42,122.93C401.73,123.7 402.03,124.49 402.33,125.3C402.64,126.14 402.93,127.01 403.23,127.89C403.54,128.81 403.84,129.75 404.14,130.7C404.45,131.68 404.74,132.69 405.04,133.71C405.35,134.76 405.65,135.82 405.95,136.9C406.26,138.01 406.55,139.13 406.85,140.27C407.15,141.43 407.45,142.61 407.75,143.8C408.05,145.01 408.36,146.24 408.66,147.47C408.96,148.72 409.26,149.99 409.56,151.26C409.86,152.55 410.17,153.85 410.47,155.16C410.77,156.48 411.07,157.8 411.37,159.13C411.67,160.47 411.97,161.82 412.27,163.17C412.57,164.52 412.88,165.88 413.18,167.24C413.48,168.6 413.78,169.96 414.08,171.32C414.38,172.68 414.69,174.03 414.99,175.38C415.29,176.72 415.59,178.06 415.89,179.39C416.19,180.7 416.49,182.01 416.79,183.31C417.09,184.59 417.4,185.87 417.7,187.13C418,188.36 418.29,189.59 418.6,190.79C418.9,191.96 419.2,193.12 419.51,194.26C419.81,195.36 420.1,196.45 420.41,197.51C420.71,198.53 421.01,199.53 421.32,200.49C421.61,201.41 421.91,202.3 422.22,203.16C422.51,203.97 422.81,204.76 423.12,205.5C423.41,206.19 423.71,206.86 424.03,207.47C424.32,208.03 424.61,208.56 424.93,209.03C425.22,209.45 425.52,209.86 425.84,210.18C426.13,210.47 426.42,210.73 426.74,210.9C427.03,211.05 427.34,211.16 427.64,211.19C427.94,211.22 428.26,211.17 428.55,211.06C428.86,210.95 429.16,210.74 429.45,210.51C429.77,210.26 430.07,209.93 430.36,209.58C430.68,209.19 430.97,208.75 431.26,208.28C431.57,207.77 431.87,207.22 432.16,206.65C432.47,206.04 432.78,205.39 433.07,204.72C433.38,204.01 433.67,203.27 433.97,202.52C434.28,201.73 434.58,200.92 434.88,200.09C435.19,199.23 435.48,198.35 435.78,197.46C436.08,196.54 436.38,195.6 436.68,194.66C436.98,193.7 437.29,192.72 437.59,191.73C437.89,190.73 438.19,189.71 438.49,188.69C438.79,187.66 439.1,186.61 439.4,185.57C439.7,184.52 440,183.46 440.3,182.4C440.6,181.34 440.91,180.27 441.21,179.2C441.51,178.13 441.81,177.07 442.11,176C442.41,174.94 442.71,173.87 443.01,172.81C443.31,171.76 443.62,170.71 443.92,169.66C444.22,168.62 444.52,167.59 444.82,166.56C445.12,165.54 445.43,164.53 445.73,163.53C446.03,162.54 446.33,161.56 446.63,160.58C446.93,159.62 447.23,158.66 447.53,157.72C447.83,156.79 448.14,155.88 448.44,154.97C448.74,154.08 449.03,153.2 449.34,152.34C449.64,151.49 449.94,150.66 450.25,149.84C450.55,149.04 450.85,148.25 451.15,147.48C451.45,146.73 451.74,145.98 452.05,145.26C452.35,144.56 452.65,143.87 452.96,143.2C453.26,142.55 453.55,141.92 453.86,141.3C454.16,140.7 454.46,140.12 454.77,139.56C455.07,139.02 455.36,138.49 455.67,137.99C455.97,137.51 456.27,137.04 456.58,136.59C456.87,136.17 457.17,135.76 457.48,135.38C457.77,135.01 458.07,134.66 458.38,134.34C458.67,134.03 458.98,133.75 459.29,133.49C459.58,133.25 459.88,133.02 460.19,132.83C460.49,132.64 460.79,132.48 461.1,132.35Q461.4,132.23 462,132.07" style="vector-effect: non-scaling-stroke; fill: none; stroke: rgb(231, 107, 243); stroke-opacity: 1; stroke-width: 2px; opacity: 1;"/></g><g class="points"/><g class="text"/></g></g></g><g class="overplot"/><path class="xlines-above crisp" d="M0,0" style="fill: none;"/><path class="ylines-above crisp" d="M0,0" style="fill: none;"/><g class="overlines-above"/><g class="xaxislayer-above"><g class="xtick"><text text-anchor="middle" x="0" y="433" transform="translate(80,0)" style="font-family: 'Open Sans', verdana, arial, sans-serif; font-size: 12px; fill: rgb(42, 63, 95); fill-opacity: 1; white-space: pre;">0</text></g><g class="xtick"><text text-anchor="middle" x="0" y="433" transform="translate(170.23000000000002,0)" style="font-family: 'Open Sans', verdana, arial, sans-serif; font-size: 12px; fill: rgb(42, 63, 95); fill-opacity: 1; white-space: pre;">100</text></g><g class="xtick"><text text-anchor="middle" x="0" y="433" transform="translate(260.47,0)" style="font-family: 'Open Sans', verdana, arial, sans-serif; font-size: 12px; fill: rgb(42, 63, 95); fill-opacity: 1; white-space: pre;">200</text></g><g class="xtick"><text text-anchor="middle" x="0" y="433" transform="translate(350.7,0)" style="font-family: 'Open Sans', verdana, arial, sans-serif; font-size: 12px; fill: rgb(42, 63, 95); fill-opacity: 1; white-space: pre;">300</text></g><g class="xtick"><text text-anchor="middle" x="0" y="433" transform="translate(440.94,0)" style="font-family: 'Open Sans', verdana, arial, sans-serif; font-size: 12px; fill: rgb(42, 63, 95); fill-opacity: 1; white-space: pre;">400</text></g><g class="xtick"><text text-anchor="middle" x="0" y="433" transform="translate(531.1700000000001,0)" style="font-family: 'Open Sans', verdana, arial, sans-serif; font-size: 12px; fill: rgb(42, 63, 95); fill-opacity: 1; white-space: pre;">500</text></g></g><g class="yaxislayer-above"><g class="ytick"><text text-anchor="end" x="79" y="4.199999999999999" transform="translate(0,384)" style="font-family: 'Open Sans', verdana, arial, sans-serif; font-size: 12px; fill: rgb(42, 63, 95); fill-opacity: 1; white-space: pre;">50</text></g><g class="ytick"><text text-anchor="end" x="79" y="4.199999999999999" transform="translate(0,347.51)" style="font-family: 'Open Sans', verdana, arial, sans-serif; font-size: 12px; fill: rgb(42, 63, 95); fill-opacity: 1; white-space: pre;">100</text></g><g class="ytick"><text text-anchor="end" x="79" y="4.199999999999999" transform="translate(0,311.03)" style="font-family: 'Open Sans', verdana, arial, sans-serif; font-size: 12px; fill: rgb(42, 63, 95); fill-opacity: 1; white-space: pre;">150</text></g><g class="ytick"><text text-anchor="end" x="79" y="4.199999999999999" transform="translate(0,274.53999999999996)" style="font-family: 'Open Sans', verdana, arial, sans-serif; font-size: 12px; fill: rgb(42, 63, 95); fill-opacity: 1; white-space: pre;">200</text></g><g class="ytick"><text text-anchor="end" x="79" y="4.199999999999999" transform="translate(0,238.05)" style="font-family: 'Open Sans', verdana, arial, sans-serif; font-size: 12px; fill: rgb(42, 63, 95); fill-opacity: 1; white-space: pre;">250</text></g><g class="ytick"><text text-anchor="end" x="79" y="4.199999999999999" transform="translate(0,201.56)" style="font-family: 'Open Sans', verdana, arial, sans-serif; font-size: 12px; fill: rgb(42, 63, 95); fill-opacity: 1; white-space: pre;">300</text></g><g class="ytick"><text text-anchor="end" x="79" y="4.199999999999999" transform="translate(0,165.07)" style="font-family: 'Open Sans', verdana, arial, sans-serif; font-size: 12px; fill: rgb(42, 63, 95); fill-opacity: 1; white-space: pre;">350</text></g><g class="ytick"><text text-anchor="end" x="79" y="4.199999999999999" transform="translate(0,128.57999999999998)" style="font-family: 'Open Sans', verdana, arial, sans-serif; font-size: 12px; fill: rgb(42, 63, 95); fill-opacity: 1; white-space: pre;">400</text></g></g><g class="overaxes-above"/></g></g><g class="polarlayer"/><g class="ternarylayer"/><g class="geolayer"/><g class="funnelarealayer"/><g class="pielayer"/><g class="treemaplayer"/><g class="sunburstlayer"/><g class="glimages"/><defs id="topdefs-58586a"><g class="clips"/><clipPath id="legend58586a"><rect width="137" height="48" x="0" y="0"/></clipPath></defs><g class="layer-above"><g class="imagelayer"/><g class="shapelayer"/></g><g class="infolayer"><g class="legend" pointer-events="all" transform="translate(551.24, 100)"><rect class="bg" shape-rendering="crispEdges" width="137" height="48" x="0" y="0" style="stroke: rgb(68, 68, 68); stroke-opacity: 1; fill: rgb(255, 255, 255); fill-opacity: 1; stroke-width: 0px;"/><g class="scrollbox" transform="translate(0, 0)" clip-path="url('#legend58586a')"><g class="groups"><g class="traces" transform="translate(0, 14.5)" style="opacity: 1;"><text class="legendtext" text-anchor="start" x="40" y="4.680000000000001" style="font-family: 'Open Sans', verdana, arial, sans-serif; font-size: 12px; fill: rgb(42, 63, 95); fill-opacity: 1; white-space: pre;">Average Class II</text><g class="layers" style="opacity: 1;"><g class="legendfill"/><g class="legendlines"><path class="js-line" d="M5,0h30" style="fill: none; stroke: rgb(0, 176, 246); stroke-opacity: 1; stroke-width: 2px;"/></g><g class="legendsymbols"><g class="legendpoints"/></g></g><rect class="legendtoggle" x="0" y="-9.5" width="131.15625" height="19" style="fill: rgb(0, 0, 0); fill-opacity: 0;"/></g><g class="traces" transform="translate(0, 33.5)" style="opacity: 1;"><text class="legendtext" text-anchor="start" x="40" y="4.680000000000001" style="font-family: 'Open Sans', verdana, arial, sans-serif; font-size: 12px; fill: rgb(42, 63, 95); fill-opacity: 1; white-space: pre;">Average Class III</text><g class="layers" style="opacity: 1;"><g class="legendfill"/><g class="legendlines"><path class="js-line" d="M5,0h30" style="fill: none; stroke: rgb(231, 107, 243); stroke-opacity: 1; stroke-width: 2px;"/></g><g class="legendsymbols"><g class="legendpoints"/></g></g><rect class="legendtoggle" x="0" y="-9.5" width="131.15625" height="19" style="fill: rgb(0, 0, 0); fill-opacity: 0;"/></g></g></g><rect class="scrollbar" rx="20" ry="3" width="0" height="0" x="0" y="0" style="fill: rgb(128, 139, 164); fill-opacity: 1;"/></g><g class="g-gtitle"><text class="gtitle" x="35" y="50" text-anchor="start" dy="0em" style="font-family: 'Open Sans', verdana, arial, sans-serif; font-size: 17px; fill: rgb(42, 63, 95); opacity: 1; font-weight: normal; white-space: pre;">Average curve: energetic_group</text></g><g class="g-xtitle"><text class="xtitle" x="311" y="460.8" text-anchor="middle" style="font-family: 'Open Sans', verdana, arial, sans-serif; font-size: 14px; fill: rgb(42, 63, 95); opacity: 1; font-weight: normal; white-space: pre;">Domain</text></g><g class="g-ytitle"><text class="ytitle" transform="rotate(-90,34.16875,260)" x="34.16875" y="260" text-anchor="middle" style="font-family: 'Open Sans', verdana, arial, sans-serif; font-size: 14px; fill: rgb(42, 63, 95); opacity: 1; font-weight: normal; white-space: pre;">Frequency</text></g></g></svg>