<svg class="main-svg" xmlns="http://www.w3.org/2000/svg" xmlns:xlink="http://www.w3.org/1999/xlink" width="700" height="500" style="" viewBox="0 0 700 500"><rect x="0" y="0" width="700" height="500" style="fill: rgb(255, 255, 255); fill-opacity: 1;"/><defs id="defs-73c9dc"><g class="clips"><clipPath id="clip73c9dcxyplot" class="plotclip"><rect width="462" height="320"/></clipPath><clipPath class="axesclip" id="clip73c9dcx"><rect x="80" y="0" width="462" height="500"/></clipPath><clipPath class="axesclip" id="clip73c9dcy"><rect x="0" y="100" width="700" height="320"/></clipPath><clipPath class="axesclip" id="clip73c9dcxy"><rect x="80" y="100" width="462" height="320"/></clipPath></g><g class="gradients"/></defs><g class="bglayer"><rect class="bg" x="80" y="100" width="462" height="320" style="fill: rgb(229, 236, 246); fill-opacity: 1; stroke-width: 0;"/></g><g class="layer-below"><g class="imagelayer"/><g class="shapelayer"/></g><g class="cartesianlayer"><g class="subplot xy"><g class="layer-subplot"><g class="shapelayer"/><g class="imagelayer"/></g><g class="gridlayer"><g class="x"><path class="xgrid crisp" transform="translate(170.23000000000002,0)" d="M0,100v320" style="stroke: rgb(255, 255, 255); stroke-opacity: 1; stroke-width: 1px;"/><path class="xgrid crisp" transform="translate(260.47,0)" d="M0,100v320" style="stroke: rgb(255, 255, 255); stroke-opacity: 1; stroke-width: 1px;"/><path class="xgrid crisp" transform="translate(350.7,0)" d="M0,100v320" style="stroke: rgb(255, 255, 255); stroke-opacity: 1; stroke-width: 1px;"/><path class="xgrid crisp" transform="translate(440.94,0)" d="M0,100v320" style="stroke: rgb(255, 255, 255); stroke-opacity: 1; stroke-width: 1px;"/><path class="xgrid crisp" transform="translate(531.1700000000001,0)" d="M0,100v320" style="stroke: rgb(255, 255, 255); stroke-opacity: 1; stroke-width: 1px;"/></g><g class="y"><path class="ygrid crisp" transform="translate(0,351.82)" d="M80,0h462" style="stroke: rgb(255, 255, 255); stroke-opacity: 1; stroke-width: 1px;"/><path class="ygrid crisp" transform="translate(0,286.48)" d="M80,0h462" style="stroke: rgb(255, 255, 255); stroke-opacity: 1; stroke-width: 1px;"/><path class="ygrid crisp" transform="translate(0,221.14)" d="M80,0h462" style="stroke: rgb(255, 255, 255); stroke-opacity: 1; stroke-width: 1px;"/><path class="ygrid crisp" transform="translate(0,155.8)" d="M80,0h462" style="stroke: rgb(255, 255, 255); stroke-opacity: 1; stroke-width: 1px;"/></g></g><g class="zerolinelayer"><path class="xzl zl crisp" transform="translate(80,0)" d="M0,100v320" style="stroke: rgb(255, 255, 255); stroke-opacity: 1; stroke-width: 2px;"/><path class="yzl zl crisp" transform="translate(0,417.17)" d="M80,0h462" style="stroke: rgb(255, 255, 255); stroke-opacity: 1; stroke-width: 2px;"/></g><path class="xlines-below"/><path class="ylines-below"/><g class="overlines-below"/><g class="xaxislayer-below"/><g class="yaxislayer-below"/><g class="overaxes-below"/><g class="plot" transform="translate(80, 100)" clip-path="url('#clip73c9dcxyplot')"><g class="scatterlayer mlayer"><g class="trace scatter trace39c4cb" style="stroke-miterlimit: 2; opacity: 1;"><g class="fills"/><g class="errorbars"/><g class="lines"><path class="js-line" d="M0,253.17Q0.6,253.2 0.9,253.27C1.21,253.34 1.51,253.45 1.81,253.58C2.12,253.72 2.42,253.89 2.71,254.09C3.02,254.3 3.32,254.55 3.62,254.81C3.93,255.09 4.23,255.39 4.52,255.71C4.83,256.05 5.13,256.41 5.42,256.79C5.73,257.19 6.03,257.61 6.33,258.05C6.64,258.5 6.93,258.97 7.23,259.45C7.54,259.94 7.84,260.46 8.14,260.97C8.44,261.49 8.74,262.03 9.04,262.55C9.34,263.07 9.64,263.61 9.95,264.1C10.24,264.56 10.53,265.05 10.85,265.42C11.13,265.74 11.42,266.09 11.75,266.22C12.03,266.34 12.37,266.35 12.66,266.27C12.97,266.19 13.27,265.93 13.56,265.69C13.88,265.43 14.18,265.07 14.47,264.73C14.78,264.37 15.07,263.98 15.37,263.58C15.67,263.17 15.97,262.75 16.27,262.32C16.57,261.89 16.88,261.45 17.18,261.01C17.48,260.57 17.78,260.14 18.08,259.7C18.38,259.27 18.69,258.83 18.99,258.4C19.29,257.98 19.59,257.56 19.89,257.15C20.19,256.74 20.48,256.34 20.79,255.95C21.09,255.57 21.39,255.2 21.7,254.84C22,254.49 22.29,254.14 22.6,253.81C22.9,253.49 23.2,253.18 23.51,252.89C23.81,252.61 24.1,252.34 24.41,252.09C24.71,251.85 25.01,251.62 25.32,251.42C25.62,251.22 25.91,251.04 26.22,250.89C26.51,250.75 26.82,250.62 27.12,250.53C27.42,250.44 27.73,250.37 28.03,250.33C28.33,250.29 28.63,250.29 28.93,250.31C29.23,250.33 29.54,250.39 29.84,250.47C30.15,250.56 30.45,250.67 30.74,250.82C31.05,250.97 31.35,251.16 31.64,251.37C31.95,251.59 32.26,251.85 32.55,252.13C32.86,252.42 33.16,252.75 33.45,253.09C33.76,253.45 34.07,253.85 34.36,254.26C34.67,254.69 34.97,255.16 35.26,255.64C35.57,256.14 35.87,256.67 36.16,257.22C36.47,257.8 36.77,258.4 37.07,259.02C37.38,259.66 37.67,260.33 37.97,261.01C38.28,261.72 38.58,262.44 38.88,263.19C39.19,263.96 39.48,264.76 39.78,265.57C40.08,266.4 40.38,267.25 40.68,268.11C40.99,269 41.29,269.9 41.59,270.81C41.9,271.74 42.19,272.69 42.49,273.65C42.79,274.62 43.1,275.61 43.4,276.6C43.7,277.6 44,278.62 44.3,279.63C44.6,280.65 44.91,281.68 45.21,282.7C45.51,283.72 45.81,284.75 46.11,285.76C46.41,286.76 46.7,287.76 47.01,288.73C47.31,289.66 47.59,290.67 47.92,291.47C48.2,292.14 48.48,292.78 48.82,293.25C49.1,293.63 49.4,293.97 49.73,294.14C50.01,294.28 50.35,294.37 50.63,294.3C50.95,294.22 51.26,293.9 51.53,293.58C51.88,293.17 52.16,292.55 52.44,291.94C52.77,291.22 53.05,290.37 53.34,289.5C53.66,288.54 53.96,287.48 54.25,286.42C54.56,285.29 54.86,284.1 55.15,282.9C55.46,281.65 55.75,280.36 56.05,279.06C56.36,277.73 56.66,276.38 56.96,275.02C57.26,273.64 57.56,272.25 57.86,270.86C58.16,269.46 58.47,268.04 58.77,266.63C59.07,265.22 59.37,263.79 59.67,262.38C59.97,260.97 60.28,259.56 60.58,258.15C60.88,256.75 61.18,255.36 61.48,253.97C61.78,252.6 62.08,251.24 62.38,249.88C62.68,248.54 62.99,247.2 63.29,245.88C63.59,244.58 63.89,243.29 64.19,242.02C64.49,240.77 64.79,239.52 65.1,238.3C65.4,237.1 65.7,235.92 66,234.75C66.3,233.61 66.59,232.48 66.9,231.38C67.2,230.31 67.5,229.25 67.81,228.21C68.11,227.21 68.4,226.21 68.71,225.25C69.01,224.32 69.31,223.41 69.62,222.52C69.92,221.67 70.21,220.83 70.52,220.02C70.81,219.25 71.11,218.49 71.42,217.76C71.71,217.07 72.02,216.39 72.33,215.75C72.62,215.14 72.92,214.55 73.23,214C73.52,213.48 73.83,212.98 74.14,212.52C74.43,212.08 74.73,211.66 75.04,211.29C75.33,210.94 75.64,210.62 75.95,210.34C76.24,210.08 76.54,209.83 76.85,209.64C77.14,209.46 77.44,209.32 77.75,209.22C78.05,209.12 78.36,209.06 78.66,209.05C78.96,209.04 79.26,209.07 79.56,209.14C79.87,209.21 80.18,209.33 80.47,209.48C80.78,209.64 81.08,209.84 81.37,210.07C81.68,210.31 81.98,210.59 82.27,210.89C82.58,211.21 82.89,211.56 83.18,211.93C83.49,212.32 83.79,212.74 84.08,213.17C84.39,213.63 84.69,214.12 84.99,214.62C85.3,215.14 85.59,215.69 85.89,216.25C86.2,216.83 86.49,217.42 86.79,218.03C87.1,218.66 87.4,219.31 87.7,219.97C88.01,220.64 88.3,221.33 88.6,222.02C88.91,222.73 89.21,223.45 89.51,224.18C89.81,224.92 90.11,225.66 90.41,226.41C90.71,227.17 91.02,227.93 91.32,228.69C91.62,229.45 91.92,230.22 92.22,230.98C92.52,231.74 92.82,232.49 93.12,233.24C93.42,233.98 93.72,234.72 94.03,235.44C94.33,236.14 94.62,236.85 94.93,237.52C95.23,238.17 95.53,238.81 95.84,239.42C96.13,239.99 96.43,240.55 96.74,241.06C97.03,241.53 97.32,241.99 97.64,242.37C97.93,242.71 98.23,243.05 98.55,243.26C98.83,243.45 99.14,243.6 99.45,243.63C99.75,243.66 100.07,243.58 100.36,243.44C100.68,243.28 100.98,242.98 101.26,242.67C101.58,242.31 101.87,241.85 102.16,241.38C102.48,240.85 102.78,240.26 103.07,239.65C103.38,239 103.67,238.29 103.97,237.58C104.28,236.84 104.58,236.07 104.88,235.29C105.19,234.49 105.48,233.68 105.78,232.86C106.08,232.04 106.38,231.2 106.68,230.37C106.98,229.54 107.29,228.71 107.59,227.88C107.89,227.06 108.19,226.23 108.49,225.42C108.79,224.62 109.1,223.83 109.4,223.05C109.7,222.28 109.99,221.52 110.3,220.77C110.6,220.04 110.9,219.32 111.21,218.62C111.51,217.94 111.81,217.27 112.11,216.62C112.41,215.99 112.7,215.36 113.01,214.76C113.31,214.18 113.61,213.62 113.92,213.07C114.22,212.55 114.51,212.04 114.82,211.55C115.12,211.08 115.42,210.64 115.73,210.21C116.03,209.8 116.32,209.4 116.63,209.03C116.92,208.68 117.22,208.35 117.53,208.04C117.83,207.74 118.13,207.46 118.44,207.21C118.73,206.97 119.03,206.75 119.34,206.56C119.64,206.37 119.94,206.2 120.25,206.06C120.55,205.92 120.85,205.81 121.15,205.71C121.45,205.62 121.75,205.54 122.05,205.49C122.35,205.44 122.66,205.41 122.96,205.4C123.26,205.39 123.56,205.4 123.86,205.41C124.16,205.42 124.47,205.45 124.77,205.49C125.07,205.53 125.37,205.58 125.67,205.63C125.97,205.68 126.28,205.74 126.58,205.79C126.88,205.84 127.18,205.89 127.48,205.93C127.78,205.97 128.08,206 128.38,206.01C128.68,206.02 128.99,206.02 129.29,205.99C129.59,205.96 129.89,205.9 130.19,205.81C130.5,205.72 130.81,205.6 131.1,205.44C131.41,205.27 131.71,205.06 132,204.82C132.31,204.56 132.61,204.26 132.9,203.93C133.21,203.57 133.52,203.17 133.81,202.75C134.12,202.3 134.42,201.8 134.71,201.29C135.02,200.74 135.33,200.16 135.62,199.56C135.93,198.93 136.23,198.27 136.52,197.6C136.83,196.9 137.12,196.17 137.42,195.44C137.73,194.69 138.03,193.92 138.33,193.14C138.63,192.35 138.93,191.54 139.23,190.73C139.53,189.91 139.84,189.09 140.14,188.26C140.44,187.43 140.74,186.59 141.04,185.76C141.34,184.93 141.65,184.09 141.95,183.26C142.25,182.44 142.55,181.61 142.85,180.8C143.15,179.99 143.45,179.19 143.75,178.4C144.05,177.62 144.36,176.84 144.66,176.08C144.96,175.33 145.25,174.58 145.56,173.85C145.86,173.14 146.16,172.43 146.47,171.74C146.77,171.07 147.07,170.41 147.37,169.76C147.67,169.13 147.96,168.51 148.27,167.91C148.57,167.33 148.87,166.77 149.18,166.22C149.48,165.69 149.77,165.17 150.08,164.67C150.38,164.19 150.68,163.72 150.99,163.28C151.28,162.86 151.58,162.45 151.89,162.06C152.18,161.69 152.48,161.33 152.79,161C153.09,160.68 153.39,160.39 153.7,160.11C153.99,159.85 154.29,159.6 154.6,159.38C154.9,159.17 155.2,158.97 155.51,158.81C155.81,158.65 156.1,158.52 156.41,158.41C156.71,158.31 157.02,158.23 157.32,158.17C157.62,158.12 157.92,158.08 158.22,158.08C158.52,158.08 158.82,158.1 159.12,158.15C159.42,158.2 159.73,158.27 160.03,158.36C160.33,158.46 160.63,158.58 160.93,158.72C161.24,158.87 161.54,159.03 161.84,159.22C162.15,159.41 162.45,159.62 162.74,159.85C163.05,160.09 163.34,160.34 163.64,160.61C163.95,160.89 164.25,161.19 164.55,161.5C164.86,161.82 165.15,162.16 165.45,162.51C165.76,162.87 166.06,163.25 166.36,163.64C166.67,164.04 166.96,164.45 167.26,164.88C167.56,165.32 167.86,165.77 168.16,166.24C168.47,166.72 168.77,167.22 169.07,167.72C169.38,168.24 169.67,168.77 169.97,169.31C170.28,169.87 170.58,170.43 170.88,171.01C171.19,171.6 171.48,172.21 171.78,172.82C172.08,173.45 172.38,174.1 172.68,174.75C172.99,175.42 173.29,176.11 173.59,176.8C173.89,177.51 174.19,178.23 174.49,178.96C174.8,179.71 175.1,180.47 175.4,181.24C175.71,182.03 176,182.83 176.3,183.64C176.61,184.47 176.91,185.31 177.21,186.16C177.52,187.03 177.81,187.92 178.11,188.81C178.41,189.72 178.71,190.65 179.01,191.59C179.31,192.55 179.62,193.51 179.92,194.49C180.22,195.49 180.52,196.5 180.82,197.52C181.12,198.56 181.43,199.61 181.73,200.67C182.03,201.75 182.33,202.85 182.63,203.95C182.93,205.07 183.23,206.21 183.53,207.35C183.83,208.52 184.14,209.69 184.44,210.88C184.74,212.08 185.04,213.3 185.34,214.52C185.64,215.76 185.95,217.01 186.25,218.27C186.55,219.54 186.85,220.83 187.15,222.12C187.45,223.43 187.75,224.75 188.05,226.07C188.35,227.41 188.66,228.75 188.96,230.1C189.26,231.46 189.56,232.83 189.86,234.2C190.16,235.58 190.47,236.97 190.77,238.36C191.07,239.75 191.37,241.15 191.67,242.54C191.97,243.94 192.28,245.33 192.58,246.73C192.88,248.12 193.18,249.52 193.48,250.9C193.78,252.27 194.08,253.63 194.38,254.97C194.68,256.29 194.98,257.61 195.29,258.89C195.59,260.12 195.88,261.35 196.19,262.52C196.48,263.62 196.78,264.71 197.1,265.71C197.39,266.61 197.67,267.5 198,268.24C198.28,268.86 198.55,269.49 198.9,269.89C199.17,270.2 199.49,270.49 199.81,270.57C200.1,270.64 200.42,270.54 200.71,270.42C201.03,270.28 201.33,270.01 201.62,269.74C201.94,269.45 202.23,269.08 202.52,268.71C202.83,268.32 203.13,267.88 203.42,267.44C203.73,266.97 204.03,266.47 204.33,265.96C204.64,265.43 204.93,264.88 205.23,264.32C205.54,263.74 205.84,263.15 206.14,262.54C206.45,261.92 206.74,261.28 207.04,260.63C207.35,259.97 207.65,259.3 207.95,258.62C208.25,257.93 208.55,257.23 208.85,256.52C209.15,255.81 209.45,255.08 209.75,254.36C210.05,253.63 210.36,252.89 210.66,252.16C210.96,251.43 211.26,250.69 211.56,249.96C211.86,249.23 212.17,248.49 212.47,247.76C212.77,247.04 213.07,246.31 213.37,245.6C213.67,244.89 213.97,244.19 214.27,243.5C214.57,242.82 214.88,242.14 215.18,241.48C215.48,240.83 215.77,240.18 216.08,239.55C216.38,238.93 216.68,238.33 216.99,237.74C217.29,237.17 217.59,236.6 217.89,236.05C218.19,235.52 218.48,235 218.79,234.49C219.09,234 219.39,233.52 219.7,233.06C220,232.62 220.29,232.2 220.6,231.79C220.9,231.4 221.2,231.02 221.51,230.66C221.81,230.31 222.1,229.98 222.41,229.67C222.71,229.37 223.01,229.09 223.32,228.82C223.62,228.56 223.91,228.32 224.22,228.1C224.52,227.89 224.82,227.69 225.12,227.51C225.42,227.33 225.72,227.17 226.03,227.02C226.33,226.88 226.63,226.76 226.93,226.64C227.23,226.53 227.54,226.42 227.84,226.33C228.14,226.24 228.44,226.16 228.74,226.08C229.04,226 229.34,225.94 229.64,225.87C229.94,225.8 230.25,225.74 230.55,225.68C230.85,225.62 231.15,225.56 231.45,225.49C231.75,225.42 232.06,225.36 232.36,225.28C232.66,225.2 232.96,225.12 233.26,225.03C233.56,224.94 233.86,224.85 234.16,224.75C234.46,224.65 234.77,224.54 235.07,224.43C235.37,224.32 235.67,224.2 235.97,224.08C236.27,223.96 236.58,223.83 236.88,223.7C237.18,223.58 237.48,223.45 237.78,223.33C238.08,223.21 238.38,223.08 238.68,222.97C238.98,222.86 239.29,222.76 239.59,222.67C239.89,222.58 240.19,222.5 240.49,222.43C240.79,222.37 241.1,222.31 241.4,222.28C241.7,222.25 242,222.24 242.3,222.26C242.6,222.28 242.91,222.31 243.21,222.38C243.51,222.45 243.82,222.54 244.11,222.66C244.42,222.79 244.72,222.95 245.01,223.13C245.32,223.32 245.63,223.54 245.92,223.79C246.23,224.05 246.53,224.34 246.82,224.66C247.13,225 247.44,225.37 247.73,225.76C248.04,226.18 248.34,226.62 248.63,227.09C248.94,227.59 249.24,228.12 249.53,228.67C249.84,229.25 250.15,229.87 250.44,230.5C250.75,231.17 251.05,231.86 251.34,232.58C251.65,233.33 251.95,234.12 252.25,234.92C252.56,235.76 252.86,236.63 253.15,237.52C253.46,238.45 253.75,239.4 254.05,240.37C254.36,241.38 254.66,242.42 254.96,243.48C255.27,244.57 255.56,245.69 255.86,246.83C256.17,248 256.47,249.21 256.77,250.42C257.08,251.67 257.37,252.93 257.67,254.21C257.98,255.52 258.28,256.85 258.58,258.18C258.88,259.53 259.18,260.9 259.48,262.24C259.78,263.56 260.06,264.94 260.38,266.18C260.67,267.29 260.91,268.53 261.29,269.33C261.55,269.88 261.84,270.49 262.19,270.62C262.46,270.72 262.82,270.54 263.1,270.38C263.43,270.19 263.71,269.81 264,269.48C264.31,269.12 264.6,268.69 264.9,268.27C265.21,267.83 265.51,267.37 265.81,266.9C266.12,266.41 266.41,265.91 266.71,265.4C267.01,264.88 267.32,264.35 267.62,263.82C267.92,263.28 268.22,262.73 268.52,262.17C268.82,261.61 269.12,261.03 269.42,260.46C269.72,259.89 270.03,259.31 270.33,258.73C270.63,258.15 270.93,257.56 271.23,256.97C271.53,256.38 271.84,255.8 272.14,255.21C272.44,254.62 272.74,254.03 273.04,253.44C273.34,252.85 273.65,252.26 273.95,251.67C274.25,251.08 274.55,250.5 274.85,249.91C275.15,249.31 275.45,248.72 275.75,248.1C276.06,247.45 276.37,246.83 276.66,246.11C276.98,245.31 277.27,244.42 277.56,243.5C277.88,242.49 278.17,241.38 278.47,240.3C278.78,239.19 279.07,238.05 279.37,236.92C279.67,235.79 279.97,234.65 280.27,233.52C280.57,232.39 280.88,231.25 281.18,230.12C281.48,229 281.78,227.87 282.08,226.76C282.38,225.65 282.69,224.55 282.99,223.46C283.29,222.38 283.59,221.31 283.89,220.26C284.19,219.23 284.48,218.2 284.79,217.2C285.09,216.22 285.39,215.26 285.7,214.32C286,213.42 286.29,212.53 286.6,211.67C286.9,210.85 287.2,210.04 287.51,209.26C287.8,208.52 288.1,207.8 288.41,207.12C288.7,206.48 289.01,205.86 289.32,205.28C289.61,204.74 289.91,204.21 290.22,203.73C290.51,203.29 290.8,202.88 291.12,202.51C291.41,202.17 291.71,201.86 292.03,201.6C292.32,201.37 292.62,201.16 292.93,201.02C293.22,200.89 293.53,200.79 293.84,200.76C294.14,200.73 294.45,200.76 294.74,200.83C295.05,200.9 295.35,201.04 295.64,201.21C295.95,201.39 296.26,201.64 296.55,201.91C296.86,202.2 297.16,202.54 297.45,202.9C297.77,203.29 298.07,203.73 298.36,204.19C298.67,204.68 298.97,205.21 299.26,205.75C299.57,206.33 299.87,206.93 300.16,207.56C300.47,208.22 300.77,208.91 301.07,209.62C301.38,210.35 301.67,211.11 301.97,211.88C302.28,212.68 302.58,213.5 302.88,214.33C303.19,215.18 303.48,216.06 303.78,216.94C304.08,217.84 304.38,218.75 304.68,219.67C304.98,220.6 305.29,221.55 305.59,222.49C305.89,223.44 306.19,224.39 306.49,225.34C306.79,226.29 307.1,227.23 307.4,228.17C307.7,229.1 308,230.03 308.3,230.94C308.6,231.83 308.9,232.72 309.21,233.58C309.51,234.41 309.8,235.23 310.11,236.01C310.4,236.76 310.7,237.49 311.01,238.18C311.3,238.82 311.6,239.44 311.92,240C312.21,240.51 312.5,241 312.82,241.42C313.11,241.79 313.41,242.14 313.73,242.39C314.01,242.61 314.32,242.8 314.63,242.89C314.92,242.97 315.24,242.98 315.53,242.92C315.84,242.86 316.15,242.7 316.44,242.52C316.76,242.32 317.05,242.04 317.34,241.74C317.66,241.41 317.96,241.03 318.25,240.63C318.56,240.2 318.86,239.74 319.15,239.26C319.46,238.76 319.75,238.22 320.05,237.68C320.36,237.12 320.66,236.54 320.96,235.95C321.27,235.35 321.56,234.73 321.86,234.11C322.16,233.48 322.47,232.83 322.77,232.18C323.07,231.53 323.37,230.87 323.67,230.21C323.97,229.55 324.28,228.88 324.58,228.21C324.88,227.54 325.18,226.88 325.48,226.21C325.78,225.54 326.08,224.87 326.38,224.21C326.68,223.55 326.99,222.89 327.29,222.24C327.59,221.59 327.89,220.94 328.19,220.3C328.49,219.66 328.8,219.03 329.1,218.4C329.4,217.78 329.7,217.17 330,216.57C330.3,215.97 330.6,215.38 330.9,214.8C331.2,214.23 331.51,213.66 331.81,213.1C332.11,212.55 332.41,212.01 332.71,211.48C333.01,210.96 333.32,210.45 333.62,209.94C333.92,209.45 334.22,208.96 334.52,208.48C334.82,208.01 335.12,207.55 335.42,207.1C335.72,206.66 336.03,206.23 336.33,205.8C336.63,205.38 336.93,204.96 337.23,204.56C337.53,204.16 337.84,203.78 338.14,203.39C338.44,203.01 338.74,202.63 339.04,202.26C339.34,201.89 339.65,201.53 339.95,201.17C340.25,200.81 340.55,200.45 340.85,200.09C341.15,199.73 341.45,199.37 341.75,199C342.05,198.63 342.36,198.26 342.66,197.88C342.96,197.5 343.26,197.11 343.56,196.71C343.87,196.3 344.17,195.88 344.47,195.44C344.78,194.99 345.08,194.52 345.37,194.04C345.68,193.54 345.98,193.02 346.27,192.48C346.58,191.91 346.89,191.32 347.18,190.71C347.49,190.07 347.79,189.4 348.08,188.71C348.39,187.98 348.7,187.22 348.99,186.43C349.3,185.6 349.6,184.75 349.89,183.87C350.2,182.94 350.5,181.98 350.79,180.99C351.1,179.96 351.4,178.89 351.7,177.8C352.01,176.67 352.3,175.5 352.6,174.32C352.91,173.09 353.21,171.84 353.51,170.57C353.82,169.26 354.11,167.93 354.41,166.58C354.72,165.2 355.02,163.8 355.32,162.39C355.62,160.96 355.92,159.51 356.22,158.06C356.52,156.59 356.82,155.1 357.12,153.61C357.42,152.11 357.73,150.61 358.03,149.11C358.33,147.61 358.63,146.09 358.93,144.59C359.23,143.09 359.54,141.59 359.84,140.1C360.14,138.62 360.44,137.13 360.74,135.66C361.04,134.2 361.34,132.75 361.64,131.31C361.94,129.89 362.25,128.47 362.55,127.07C362.85,125.69 363.15,124.33 363.45,122.98C363.75,121.65 364.05,120.34 364.36,119.04C364.66,117.77 364.96,116.52 365.26,115.29C365.56,114.09 365.85,112.9 366.16,111.74C366.46,110.61 366.76,109.49 367.07,108.39C367.37,107.33 367.66,106.29 367.97,105.27C368.27,104.28 368.57,103.32 368.88,102.37C369.18,101.46 369.47,100.57 369.78,99.7C370.07,98.87 370.37,98.06 370.68,97.28C370.98,96.53 371.28,95.79 371.59,95.09C371.88,94.42 372.18,93.77 372.49,93.15C372.78,92.56 373.09,91.99 373.4,91.44C373.69,90.92 373.99,90.43 374.3,89.96C374.59,89.52 374.9,89.11 375.21,88.72C375.5,88.35 375.8,88 376.11,87.69C376.4,87.39 376.7,87.12 377.01,86.88C377.3,86.65 377.61,86.45 377.92,86.28C378.21,86.12 378.51,85.97 378.82,85.86C379.12,85.75 379.43,85.67 379.73,85.62C380.03,85.57 380.33,85.55 380.63,85.55C380.93,85.55 381.23,85.58 381.53,85.63C381.83,85.68 382.14,85.76 382.44,85.85C382.74,85.94 383.04,86.06 383.34,86.18C383.65,86.31 383.95,86.45 384.25,86.61C384.55,86.77 384.85,86.95 385.15,87.13C385.45,87.31 385.75,87.51 386.05,87.71C386.35,87.92 386.66,88.13 386.96,88.35C387.26,88.57 387.56,88.79 387.86,89.02C388.16,89.25 388.47,89.49 388.77,89.73C389.07,89.97 389.37,90.2 389.67,90.44C389.97,90.68 390.28,90.92 390.58,91.16C390.88,91.4 391.18,91.65 391.48,91.89C391.78,92.13 392.08,92.37 392.38,92.61C392.68,92.85 392.99,93.09 393.29,93.33C393.59,93.57 393.89,93.81 394.19,94.05C394.49,94.29 394.8,94.53 395.1,94.78C395.4,95.03 395.7,95.28 396,95.53C396.3,95.79 396.6,96.05 396.9,96.31C397.2,96.58 397.51,96.84 397.81,97.12C398.11,97.4 398.41,97.69 398.71,97.99C399.01,98.29 399.32,98.6 399.62,98.92C399.92,99.24 400.22,99.58 400.52,99.92C400.82,100.27 401.12,100.64 401.42,101.02C401.73,101.41 402.03,101.81 402.33,102.22C402.64,102.64 402.93,103.08 403.23,103.53C403.54,103.99 403.84,104.47 404.14,104.96C404.45,105.47 404.74,105.99 405.04,106.52C405.35,107.07 405.65,107.64 405.95,108.22C406.26,108.82 406.55,109.44 406.85,110.07C407.15,110.72 407.45,111.38 407.75,112.06C408.06,112.76 408.36,113.47 408.66,114.2C408.97,114.95 409.26,115.72 409.56,116.5C409.87,117.3 410.17,118.12 410.47,118.95C410.78,119.8 411.07,120.68 411.37,121.56C411.67,122.47 411.97,123.39 412.27,124.32C412.58,125.27 412.88,126.24 413.18,127.22C413.49,128.22 413.78,129.25 414.08,130.28C414.38,131.33 414.69,132.39 414.99,133.47C415.29,134.57 415.59,135.68 415.89,136.8C416.19,137.94 416.49,139.1 416.79,140.27C417.09,141.45 417.4,142.65 417.7,143.85C418,145.07 418.3,146.31 418.6,147.55C418.9,148.81 419.21,150.08 419.51,151.36C419.81,152.65 420.11,153.95 420.41,155.26C420.71,156.58 421.02,157.92 421.32,159.26C421.62,160.61 421.92,161.97 422.22,163.34C422.52,164.71 422.82,166.09 423.12,167.48C423.42,168.88 423.73,170.28 424.03,171.69C424.33,173.11 424.63,174.53 424.93,175.95C425.23,177.38 425.54,178.82 425.84,180.26C426.14,181.7 426.44,183.14 426.74,184.59C427.04,186.04 427.34,187.5 427.64,188.95C427.94,190.4 428.25,191.86 428.55,193.31C428.85,194.77 429.15,196.22 429.45,197.68C429.75,199.14 430.06,200.6 430.36,202.05C430.66,203.5 430.96,204.95 431.26,206.39C431.56,207.83 431.86,209.27 432.16,210.71C432.46,212.14 432.77,213.57 433.07,214.99C433.37,216.41 433.67,217.82 433.97,219.23C434.27,220.63 434.58,222.03 434.88,223.42C435.18,224.8 435.48,226.18 435.78,227.55C436.08,228.91 436.38,230.26 436.68,231.61C436.98,232.95 437.29,234.28 437.59,235.6C437.89,236.91 438.19,238.21 438.49,239.51C438.79,240.79 439.1,242.07 439.4,243.34C439.7,244.59 440,245.83 440.3,247.07C440.6,248.29 440.91,249.5 441.21,250.71C441.51,251.9 441.81,253.09 442.11,254.26C442.41,255.42 442.71,256.56 443.01,257.7C443.31,258.82 443.62,259.93 443.92,261.03C444.22,262.12 444.52,263.19 444.82,264.26C445.12,265.31 445.43,266.35 445.73,267.38C446.03,268.39 446.33,269.4 446.63,270.39C446.93,271.36 447.23,272.33 447.53,273.28C447.83,274.22 448.14,275.15 448.44,276.07C448.74,276.97 449.04,277.87 449.34,278.75C449.64,279.62 449.95,280.47 450.25,281.32C450.55,282.15 450.85,282.97 451.15,283.78C451.45,284.58 451.75,285.36 452.05,286.14C452.35,286.9 452.65,287.66 452.96,288.4C453.26,289.13 453.56,289.84 453.86,290.55C454.16,291.24 454.47,291.93 454.77,292.6C455.07,293.26 455.36,293.91 455.67,294.55C455.97,295.17 456.27,295.79 456.58,296.39C456.88,296.97 457.18,297.55 457.48,298.11C457.78,298.65 458.07,299.19 458.38,299.7C458.68,300.19 458.98,300.67 459.29,301.12C459.58,301.55 459.88,301.97 460.19,302.35C460.48,302.7 460.78,303.05 461.1,303.32Q461.39,303.57 462,303.95" style="vector-effect: non-scaling-stroke; fill: none; stroke: rgb(0, 176, 246); stroke-opacity: 1; stroke-width: 2px; opacity: 1;"/></g><g class="points"/><g class="text"/></g><g class="trace scatter trace35213b" style="stroke-miterlimit: 2; opacity: 1;"><g class="fills"/><g class="errorbars"/><g class="lines"><path class="js-line" d="M0,175.53Q0.6,175.57 0.9,175.63C1.21,175.69 1.51,175.79 1.81,175.91C2.12,176.03 2.42,176.19 2.71,176.37C3.02,176.56 3.33,176.78 3.62,177.02C3.93,177.27 4.23,177.56 4.52,177.86C4.83,178.17 5.13,178.51 5.42,178.87C5.73,179.24 6.03,179.64 6.33,180.06C6.64,180.5 6.93,180.96 7.23,181.43C7.54,181.92 7.84,182.44 8.14,182.97C8.45,183.52 8.74,184.09 9.04,184.67C9.35,185.28 9.65,185.9 9.95,186.54C10.26,187.2 10.55,187.87 10.85,188.56C11.15,189.27 11.45,189.99 11.75,190.73C12.06,191.49 12.36,192.26 12.66,193.05C12.97,193.86 13.26,194.68 13.56,195.51C13.87,196.36 14.17,197.22 14.47,198.1C14.77,198.99 15.07,199.9 15.37,200.82C15.67,201.75 15.97,202.7 16.27,203.65C16.57,204.62 16.88,205.61 17.18,206.6C17.48,207.61 17.78,208.62 18.08,209.65C18.38,210.69 18.69,211.74 18.99,212.8C19.29,213.87 19.59,214.95 19.89,216.04C20.19,217.14 20.49,218.24 20.79,219.35C21.09,220.47 21.4,221.6 21.7,222.74C22,223.88 22.3,225.03 22.6,226.19C22.9,227.35 23.21,228.53 23.51,229.7C23.81,230.88 24.11,232.06 24.41,233.25C24.71,234.44 25.02,235.64 25.32,236.84C25.62,238.04 25.92,239.25 26.22,240.46C26.52,241.67 26.82,242.89 27.12,244.1C27.42,245.32 27.73,246.54 28.03,247.76C28.33,248.98 28.63,250.2 28.93,251.42C29.23,252.64 29.54,253.85 29.84,255.07C30.14,256.29 30.44,257.51 30.74,258.72C31.04,259.93 31.34,261.14 31.64,262.34C31.94,263.54 32.25,264.74 32.55,265.94C32.85,267.13 33.15,268.32 33.45,269.5C33.75,270.67 34.06,271.84 34.36,273.01C34.66,274.17 34.96,275.32 35.26,276.47C35.56,277.6 35.86,278.73 36.16,279.85C36.46,280.96 36.77,282.07 37.07,283.16C37.37,284.24 37.67,285.3 37.97,286.36C38.27,287.4 38.57,288.43 38.88,289.44C39.18,290.42 39.47,291.4 39.78,292.34C40.07,293.25 40.37,294.15 40.68,295.01C40.97,295.83 41.28,296.63 41.59,297.38C41.88,298.07 42.17,298.75 42.49,299.36C42.78,299.91 43.08,300.43 43.4,300.89C43.69,301.3 43.98,301.67 44.3,302C44.59,302.3 44.9,302.57 45.21,302.8C45.5,303.02 45.8,303.2 46.11,303.36C46.4,303.52 46.7,303.65 47.01,303.76C47.31,303.86 47.62,303.98 47.92,304C48.22,304.02 48.54,304.02 48.82,303.9C49.14,303.77 49.44,303.46 49.73,303.17C50.05,302.85 50.34,302.46 50.63,302.05C50.95,301.6 51.24,301.1 51.53,300.56C51.85,299.96 52.14,299.28 52.44,298.61C52.75,297.91 53.04,297.18 53.34,296.46C53.64,295.73 53.95,294.99 54.25,294.26C54.55,293.53 54.85,292.8 55.15,292.07C55.45,291.34 55.75,290.61 56.05,289.89C56.35,289.17 56.66,288.46 56.96,287.75C57.26,287.04 57.56,286.33 57.86,285.62C58.16,284.92 58.47,284.22 58.77,283.52C59.07,282.82 59.37,282.12 59.67,281.43C59.97,280.74 60.28,280.06 60.58,279.37C60.88,278.69 61.18,278 61.48,277.32C61.78,276.64 62.08,275.97 62.38,275.29C62.68,274.61 62.99,273.94 63.29,273.26C63.59,272.59 63.89,271.92 64.19,271.25C64.49,270.58 64.8,269.9 65.1,269.23C65.4,268.56 65.7,267.89 66,267.22C66.3,266.55 66.6,265.88 66.9,265.21C67.2,264.54 67.51,263.87 67.81,263.2C68.11,262.53 68.41,261.85 68.71,261.18C69.01,260.51 69.32,259.84 69.62,259.16C69.92,258.48 70.22,257.8 70.52,257.12C70.82,256.44 71.12,255.76 71.42,255.08C71.72,254.39 72.03,253.71 72.33,253.02C72.63,252.33 72.93,251.64 73.23,250.95C73.53,250.25 73.84,249.56 74.14,248.86C74.44,248.16 74.74,247.45 75.04,246.75C75.34,246.04 75.65,245.33 75.95,244.62C76.25,243.9 76.55,243.18 76.85,242.46C77.15,241.74 77.45,241.01 77.75,240.28C78.05,239.54 78.36,238.8 78.66,238.06C78.96,237.31 79.26,236.56 79.56,235.81C79.86,235.05 80.17,234.29 80.47,233.52C80.77,232.75 81.07,231.98 81.37,231.2C81.67,230.41 81.97,229.62 82.27,228.82C82.57,228.02 82.88,227.21 83.18,226.4C83.48,225.58 83.78,224.76 84.08,223.93C84.38,223.09 84.69,222.24 84.99,221.39C85.29,220.53 85.59,219.67 85.89,218.8C86.19,217.92 86.49,217.03 86.79,216.14C87.09,215.24 87.4,214.33 87.7,213.41C88,212.48 88.3,211.54 88.6,210.6C88.9,209.64 89.21,208.68 89.51,207.71C89.81,206.73 90.11,205.73 90.41,204.73C90.71,203.72 91.02,202.7 91.32,201.67C91.62,200.63 91.92,199.58 92.22,198.52C92.52,197.45 92.82,196.36 93.12,195.27C93.42,194.16 93.73,193.05 94.03,191.92C94.33,190.78 94.63,189.63 94.93,188.47C95.23,187.3 95.54,186.12 95.84,184.93C96.14,183.72 96.44,182.51 96.74,181.28C97.04,180.04 97.34,178.78 97.64,177.52C97.94,176.24 98.25,174.96 98.55,173.67C98.85,172.36 99.15,171.04 99.45,169.71C99.75,168.37 100.06,167.01 100.36,165.65C100.66,164.27 100.96,162.89 101.26,161.5C101.56,160.09 101.86,158.68 102.16,157.26C102.46,155.82 102.77,154.37 103.07,152.92C103.37,151.46 103.67,149.99 103.97,148.51C104.27,147.02 104.58,145.52 104.88,144.01C105.18,142.5 105.48,140.98 105.78,139.45C106.08,137.91 106.38,136.37 106.68,134.82C106.98,133.26 107.29,131.7 107.59,130.14C107.89,128.57 108.19,126.99 108.49,125.41C108.79,123.82 109.1,122.23 109.4,120.64C109.7,119.05 110,117.45 110.3,115.85C110.6,114.25 110.91,112.64 111.21,111.03C111.51,109.42 111.81,107.82 112.11,106.21C112.41,104.61 112.71,103 113.01,101.4C113.31,99.8 113.62,98.2 113.92,96.6C114.22,95.01 114.52,93.41 114.82,91.82C115.12,90.24 115.43,88.66 115.73,87.09C116.03,85.52 116.33,83.96 116.63,82.4C116.93,80.85 117.23,79.31 117.53,77.78C117.83,76.26 118.14,74.75 118.44,73.24C118.74,71.75 119.04,70.26 119.34,68.78C119.64,67.32 119.95,65.87 120.25,64.43C120.55,63.01 120.85,61.59 121.15,60.19C121.45,58.81 121.75,57.43 122.05,56.07C122.35,54.73 122.66,53.41 122.96,52.1C123.26,50.81 123.56,49.53 123.86,48.27C124.16,47.04 124.46,45.81 124.77,44.61C125.07,43.43 125.36,42.27 125.67,41.12C125.97,40 126.27,38.9 126.58,37.81C126.88,36.76 127.18,35.72 127.48,34.7C127.78,33.71 128.07,32.75 128.38,31.8C128.68,30.88 128.98,29.98 129.29,29.11C129.59,28.27 129.88,27.45 130.19,26.65C130.49,25.89 130.79,25.15 131.1,24.43C131.39,23.75 131.69,23.07 132,22.44C132.29,21.84 132.59,21.27 132.9,20.72C133.19,20.21 133.5,19.71 133.81,19.25C134.1,18.82 134.4,18.41 134.71,18.04C135,17.7 135.31,17.38 135.62,17.11C135.91,16.86 136.21,16.63 136.52,16.46C136.81,16.3 137.11,16.16 137.42,16.08C137.72,16.01 138.03,15.98 138.33,16C138.63,16.02 138.94,16.1 139.23,16.21C139.54,16.33 139.85,16.5 140.14,16.7C140.45,16.92 140.75,17.19 141.04,17.49C141.36,17.81 141.66,18.19 141.95,18.58C142.26,19 142.56,19.47 142.85,19.96C143.16,20.49 143.46,21.05 143.75,21.64C144.06,22.27 144.37,22.93 144.66,23.61C144.97,24.33 145.27,25.09 145.56,25.87C145.87,26.69 146.18,27.54 146.47,28.42C146.78,29.34 147.08,30.29 147.37,31.26C147.68,32.27 147.97,33.32 148.27,34.38C148.58,35.49 148.88,36.62 149.18,37.77C149.49,38.97 149.78,40.19 150.08,41.43C150.39,42.71 150.69,44.02 150.99,45.35C151.3,46.72 151.59,48.12 151.89,49.53C152.19,50.98 152.49,52.46 152.79,53.96C153.1,55.49 153.4,57.05 153.7,58.62C154.01,60.23 154.3,61.86 154.6,63.51C154.9,65.19 155.21,66.9 155.51,68.62C155.81,70.37 156.11,72.15 156.41,73.94C156.71,75.76 157.02,77.6 157.32,79.46C157.62,81.34 157.92,83.25 158.22,85.16C158.52,87.1 158.82,89.06 159.12,91.03C159.42,93.03 159.73,95.04 160.03,97.06C160.33,99.11 160.63,101.17 160.93,103.24C161.23,105.33 161.54,107.44 161.84,109.55C162.14,111.68 162.44,113.83 162.74,115.98C163.04,118.15 163.34,120.33 163.64,122.52C163.94,124.72 164.25,126.93 164.55,129.14C164.85,131.37 165.15,133.6 165.45,135.84C165.75,138.09 166.06,140.34 166.36,142.6C166.66,144.87 166.96,147.14 167.26,149.41C167.56,151.68 167.86,153.96 168.16,156.24C168.46,158.52 168.77,160.81 169.07,163.09C169.37,165.37 169.67,167.65 169.97,169.93C170.27,172.21 170.58,174.49 170.88,176.76C171.18,179.03 171.48,181.29 171.78,183.55C172.08,185.8 172.38,188.06 172.68,190.3C172.98,192.54 173.29,194.77 173.59,196.99C173.89,199.2 174.19,201.4 174.49,203.59C174.79,205.77 175.1,207.94 175.4,210.1C175.7,212.24 176,214.38 176.3,216.51C176.6,218.61 176.91,220.71 177.21,222.79C177.51,224.85 177.81,226.9 178.11,228.93C178.41,230.94 178.71,232.95 179.01,234.93C179.31,236.89 179.62,238.82 179.92,240.75C180.22,242.65 180.52,244.53 180.82,246.4C181.12,248.23 181.43,250.05 181.73,251.85C182.03,253.61 182.33,255.36 182.63,257.09C182.93,258.78 183.22,260.46 183.53,262.11C183.83,263.72 184.13,265.31 184.44,266.88C184.74,268.41 185.03,269.91 185.34,271.39C185.64,272.82 185.94,274.23 186.25,275.61C186.55,276.93 186.84,278.24 187.15,279.5C187.44,280.71 187.74,281.89 188.05,283.03C188.34,284.1 188.65,285.15 188.96,286.14C189.25,287.05 189.54,287.94 189.86,288.76C190.15,289.5 190.45,290.21 190.77,290.83C191.05,291.37 191.34,291.89 191.67,292.31C191.95,292.68 192.26,293.01 192.58,293.25C192.86,293.46 193.17,293.63 193.48,293.73C193.77,293.83 194.08,293.86 194.38,293.87C194.68,293.88 194.99,293.83 195.29,293.77C195.59,293.71 195.89,293.6 196.19,293.49C196.5,293.37 196.8,293.23 197.1,293.08C197.4,292.93 197.7,292.76 198,292.58C198.3,292.4 198.6,292.2 198.9,292C199.2,291.8 199.51,291.59 199.81,291.37C200.11,291.15 200.41,290.91 200.71,290.67C201.01,290.42 201.32,290.17 201.62,289.91C201.92,289.64 202.22,289.37 202.52,289.08C202.82,288.78 203.12,288.48 203.42,288.16C203.73,287.83 204.03,287.49 204.33,287.13C204.64,286.76 204.93,286.38 205.23,285.98C205.54,285.56 205.84,285.13 206.14,284.68C206.45,284.21 206.75,283.72 207.04,283.21C207.35,282.68 207.65,282.12 207.95,281.55C208.26,280.96 208.56,280.34 208.85,279.71C209.16,279.05 209.45,278.37 209.75,277.68C210.06,276.96 210.36,276.22 210.66,275.46C210.97,274.68 211.26,273.88 211.56,273.06C211.87,272.22 212.17,271.36 212.47,270.49C212.78,269.59 213.07,268.68 213.37,267.75C213.67,266.8 213.97,265.84 214.27,264.86C214.58,263.86 214.88,262.85 215.18,261.83C215.48,260.79 215.78,259.73 216.08,258.67C216.38,257.59 216.69,256.49 216.99,255.39C217.29,254.27 217.59,253.14 217.89,252C218.19,250.85 218.49,249.69 218.79,248.52C219.09,247.34 219.4,246.15 219.7,244.96C220,243.76 220.3,242.54 220.6,241.33C220.9,240.11 221.21,238.88 221.51,237.65C221.81,236.41 222.11,235.17 222.41,233.93C222.71,232.68 223.02,231.43 223.32,230.18C223.62,228.93 223.92,227.67 224.22,226.42C224.52,225.17 224.82,223.91 225.12,222.66C225.42,221.41 225.73,220.16 226.03,218.91C226.33,217.67 226.63,216.43 226.93,215.19C227.23,213.96 227.54,212.73 227.84,211.5C228.14,210.28 228.44,209.07 228.74,207.86C229.04,206.66 229.34,205.47 229.64,204.29C229.94,203.11 230.25,201.94 230.55,200.78C230.85,199.63 231.15,198.49 231.45,197.36C231.75,196.24 232.06,195.14 232.36,194.04C232.66,192.96 232.96,191.88 233.26,190.81C233.56,189.76 233.86,188.73 234.16,187.7C234.46,186.69 234.77,185.69 235.07,184.71C235.37,183.75 235.67,182.79 235.97,181.85C236.27,180.93 236.57,180.02 236.88,179.12C237.18,178.25 237.48,177.39 237.78,176.54C238.08,175.72 238.37,174.91 238.68,174.11C238.98,173.34 239.28,172.57 239.59,171.83C239.89,171.11 240.18,170.41 240.49,169.72C240.79,169.05 241.09,168.4 241.4,167.77C241.7,167.16 241.99,166.56 242.3,165.98C242.6,165.43 242.9,164.89 243.21,164.37C243.51,163.87 243.8,163.39 244.11,162.93C244.4,162.49 244.7,162.07 245.01,161.67C245.31,161.29 245.61,160.92 245.92,160.58C246.21,160.26 246.51,159.95 246.82,159.67C247.12,159.4 247.42,159.15 247.73,158.93C248.02,158.72 248.32,158.53 248.63,158.37C248.92,158.22 249.22,158.08 249.53,157.98C249.83,157.88 250.14,157.81 250.44,157.77C250.74,157.73 251.04,157.71 251.34,157.72C251.64,157.73 251.95,157.77 252.25,157.84C252.55,157.91 252.85,158 253.15,158.12C253.45,158.24 253.75,158.39 254.05,158.56C254.36,158.74 254.66,158.94 254.96,159.16C255.27,159.39 255.56,159.64 255.86,159.9C256.17,160.18 256.47,160.48 256.77,160.79C257.08,161.12 257.37,161.46 257.67,161.82C257.98,162.19 258.28,162.58 258.58,162.98C258.89,163.39 259.18,163.83 259.48,164.27C259.79,164.73 260.08,165.21 260.38,165.69C260.69,166.19 260.99,166.7 261.29,167.22C261.6,167.75 261.89,168.3 262.19,168.86C262.5,169.43 262.8,170.01 263.1,170.6C263.4,171.2 263.7,171.82 264,172.44C264.3,173.08 264.6,173.73 264.9,174.38C265.2,175.05 265.51,175.73 265.81,176.41C266.11,177.1 266.41,177.8 266.71,178.51C267.01,179.23 267.32,179.96 267.62,180.7C267.92,181.45 268.22,182.2 268.52,182.96C268.82,183.73 269.12,184.51 269.42,185.29C269.72,186.08 270.03,186.88 270.33,187.68C270.63,188.49 270.93,189.32 271.23,190.14C271.53,190.97 271.84,191.81 272.14,192.65C272.44,193.5 272.74,194.36 273.04,195.22C273.34,196.09 273.65,196.97 273.95,197.85C274.25,198.74 274.55,199.63 274.85,200.53C275.15,201.44 275.45,202.34 275.75,203.26C276.05,204.18 276.36,205.12 276.66,206.05C276.96,206.99 277.26,207.93 277.56,208.88C277.86,209.84 278.17,210.8 278.47,211.77C278.77,212.75 279.07,213.73 279.37,214.71C279.67,215.7 279.97,216.7 280.27,217.7C280.57,218.71 280.88,219.73 281.18,220.75C281.48,221.78 281.78,222.81 282.08,223.85C282.38,224.9 282.69,225.95 282.99,227.01C283.29,228.08 283.59,229.16 283.89,230.24C284.19,231.33 284.49,232.42 284.79,233.52C285.09,234.63 285.4,235.75 285.7,236.87C286,238 286.3,239.14 286.6,240.28C286.9,241.43 287.21,242.59 287.51,243.75C287.81,244.92 288.11,246.1 288.41,247.29C288.71,248.49 289.02,249.69 289.32,250.9C289.62,252.12 289.92,253.34 290.22,254.57C290.52,255.81 290.82,257.05 291.12,258.3C291.42,259.56 291.73,260.82 292.03,262.09C292.33,263.37 292.63,264.65 292.93,265.93C293.23,267.22 293.54,268.51 293.84,269.81C294.14,271.11 294.44,272.42 294.74,273.72C295.04,275.02 295.34,276.33 295.64,277.63C295.94,278.93 296.25,280.22 296.55,281.51C296.85,282.78 297.15,284.06 297.45,285.31C297.75,286.54 298.05,287.77 298.36,288.97C298.66,290.13 298.95,291.28 299.26,292.39C299.55,293.44 299.85,294.47 300.16,295.44C300.45,296.33 300.75,297.21 301.07,297.99C301.35,298.67 301.63,299.37 301.97,299.88C302.25,300.29 302.55,300.8 302.88,300.89C303.16,300.97 303.52,300.85 303.78,300.62C304.19,300.25 304.41,299.3 304.68,298.45C305.04,297.31 305.29,295.73 305.59,294.32C305.9,292.84 306.19,291.31 306.49,289.78C306.8,288.21 307.1,286.61 307.4,285.01C307.7,283.38 308,281.73 308.3,280.07C308.6,278.39 308.91,276.7 309.21,275C309.51,273.29 309.81,271.57 310.11,269.84C310.41,268.1 310.71,266.36 311.01,264.61C311.31,262.85 311.62,261.09 311.92,259.32C312.22,257.55 312.52,255.78 312.82,254C313.12,252.22 313.43,250.43 313.73,248.64C314.03,246.85 314.33,245.06 314.63,243.27C314.93,241.48 315.23,239.69 315.53,237.9C315.83,236.11 316.14,234.33 316.44,232.54C316.74,230.76 317.04,228.97 317.34,227.19C317.64,225.41 317.95,223.63 318.25,221.86C318.55,220.09 318.85,218.33 319.15,216.57C319.45,214.82 319.75,213.07 320.05,211.32C320.35,209.58 320.66,207.84 320.96,206.11C321.26,204.39 321.56,202.68 321.86,200.97C322.16,199.27 322.47,197.57 322.77,195.88C323.07,194.2 323.37,192.53 323.67,190.86C323.97,189.21 324.28,187.56 324.58,185.92C324.88,184.29 325.18,182.67 325.48,181.06C325.78,179.46 326.08,177.86 326.38,176.28C326.68,174.71 326.99,173.15 327.29,171.6C327.59,170.06 327.89,168.52 328.19,167C328.49,165.49 328.8,163.99 329.1,162.5C329.4,161.02 329.7,159.56 330,158.1C330.3,156.66 330.6,155.23 330.9,153.81C331.2,152.4 331.51,151 331.81,149.61C332.11,148.24 332.41,146.87 332.71,145.52C333.01,144.18 333.32,142.86 333.62,141.54C333.92,140.24 334.22,138.95 334.52,137.67C334.82,136.4 335.12,135.14 335.42,133.89C335.72,132.66 336.03,131.44 336.33,130.23C336.63,129.03 336.93,127.85 337.23,126.67C337.53,125.51 337.84,124.36 338.14,123.21C338.44,122.08 338.74,120.95 339.04,119.84C339.34,118.74 339.65,117.66 339.95,116.58C340.25,115.52 340.55,114.46 340.85,113.41C341.15,112.38 341.45,111.35 341.75,110.33C342.05,109.33 342.36,108.34 342.66,107.35C342.96,106.37 343.26,105.4 343.56,104.44C343.86,103.49 344.17,102.55 344.47,101.62C344.77,100.7 345.07,99.78 345.37,98.87C345.67,97.97 345.97,97.08 346.27,96.2C346.57,95.32 346.88,94.45 347.18,93.59C347.48,92.74 347.78,91.9 348.08,91.06C348.38,90.23 348.69,89.4 348.99,88.58C349.29,87.77 349.59,86.97 349.89,86.17C350.19,85.38 350.49,84.59 350.79,83.81C351.09,83.04 351.4,82.27 351.7,81.51C352,80.76 352.3,80.01 352.6,79.27C352.9,78.53 353.21,77.8 353.51,77.07C353.81,76.35 354.11,75.63 354.41,74.92C354.71,74.22 355.02,73.52 355.32,72.83C355.62,72.15 355.92,71.47 356.22,70.79C356.52,70.12 356.82,69.46 357.12,68.8C357.42,68.15 357.73,67.5 358.03,66.86C358.33,66.23 358.63,65.6 358.93,64.98C359.23,64.36 359.54,63.75 359.84,63.15C360.14,62.56 360.44,61.97 360.74,61.39C361.04,60.82 361.34,60.25 361.64,59.69C361.94,59.14 362.25,58.6 362.55,58.07C362.85,57.55 363.15,57.03 363.45,56.52C363.75,56.02 364.06,55.54 364.36,55.06C364.66,54.59 364.96,54.13 365.26,53.68C365.56,53.24 365.85,52.81 366.16,52.4C366.46,52 366.76,51.6 367.07,51.22C367.37,50.85 367.66,50.49 367.97,50.15C368.27,49.82 368.57,49.51 368.88,49.21C369.18,48.92 369.47,48.64 369.78,48.38C370.07,48.13 370.37,47.91 370.68,47.7C370.98,47.5 371.28,47.32 371.59,47.16C371.89,47.01 372.18,46.87 372.49,46.77C372.79,46.67 373.1,46.59 373.4,46.54C373.7,46.49 374,46.47 374.3,46.48C374.6,46.49 374.91,46.52 375.21,46.59C375.51,46.66 375.82,46.77 376.11,46.9C376.42,47.03 376.72,47.2 377.01,47.39C377.32,47.59 377.63,47.83 377.92,48.09C378.23,48.36 378.53,48.67 378.82,48.99C379.13,49.34 379.44,49.71 379.73,50.11C380.04,50.53 380.34,50.98 380.63,51.45C380.94,51.95 381.24,52.47 381.53,53.01C381.84,53.58 382.15,54.19 382.44,54.81C382.75,55.46 383.05,56.14 383.34,56.84C383.65,57.57 383.95,58.33 384.25,59.11C384.56,59.92 384.86,60.76 385.15,61.62C385.46,62.51 385.75,63.43 386.05,64.37C386.36,65.35 386.66,66.35 386.96,67.37C387.27,68.43 387.56,69.51 387.86,70.61C388.17,71.75 388.47,72.92 388.77,74.1C389.08,75.32 389.37,76.57 389.67,77.84C389.98,79.14 390.28,80.47 390.58,81.81C390.89,83.19 391.18,84.6 391.48,86.03C391.78,87.49 392.08,88.98 392.38,90.48C392.69,92.02 392.99,93.59 393.29,95.17C393.6,96.79 393.89,98.42 394.19,100.08C394.49,101.77 394.8,103.48 395.1,105.21C395.4,106.97 395.7,108.75 396,110.55C396.3,112.38 396.6,114.23 396.9,116.1C397.2,118 397.51,119.92 397.81,121.85C398.11,123.81 398.41,125.78 398.71,127.77C399.01,129.79 399.32,131.83 399.62,133.88C399.92,135.95 400.22,138.04 400.52,140.14C400.82,142.26 401.12,144.4 401.42,146.55C401.72,148.72 402.03,150.9 402.33,153.09C402.63,155.3 402.93,157.52 403.23,159.75C403.53,161.99 403.84,164.25 404.14,166.51C404.44,168.78 404.74,171.07 405.04,173.35C405.34,175.65 405.65,177.95 405.95,180.25C406.25,182.55 406.55,184.86 406.85,187.17C407.15,189.48 407.45,191.8 407.75,194.11C408.05,196.42 408.36,198.72 408.66,201.02C408.96,203.31 409.26,205.6 409.56,207.87C409.86,210.13 410.17,212.38 410.47,214.61C410.77,216.82 411.07,219.03 411.37,221.21C411.67,223.36 411.97,225.49 412.27,227.59C412.57,229.65 412.87,231.69 413.18,233.7C413.48,235.65 413.77,237.57 414.08,239.45C414.38,241.25 414.68,243.03 414.99,244.75C415.28,246.38 415.58,247.97 415.89,249.49C416.18,250.9 416.47,252.27 416.79,253.55C417.08,254.71 417.37,255.83 417.7,256.83C417.98,257.7 418.26,258.54 418.6,259.23C418.88,259.79 419.16,260.36 419.51,260.69C419.78,260.95 420.11,261.18 420.41,261.18C420.71,261.18 421.05,260.96 421.32,260.71C421.67,260.4 421.94,259.88 422.22,259.36C422.55,258.74 422.83,257.97 423.12,257.19C423.44,256.31 423.74,255.34 424.03,254.34C424.35,253.25 424.64,252.09 424.93,250.91C425.24,249.66 425.54,248.37 425.84,247.05C426.15,245.68 426.44,244.27 426.74,242.85C427.04,241.39 427.34,239.91 427.64,238.42C427.94,236.91 428.25,235.38 428.55,233.85C428.85,232.31 429.15,230.75 429.45,229.2C429.75,227.64 430.06,226.08 430.36,224.53C430.66,222.98 430.96,221.43 431.26,219.89C431.56,218.36 431.86,216.83 432.16,215.31C432.46,213.81 432.77,212.31 433.07,210.83C433.37,209.36 433.67,207.9 433.97,206.45C434.27,205.02 434.58,203.61 434.88,202.21C435.18,200.83 435.48,199.47 435.78,198.12C436.08,196.79 436.38,195.48 436.68,194.18C436.98,192.91 437.28,191.65 437.59,190.41C437.89,189.2 438.18,188 438.49,186.82C438.79,185.67 439.09,184.53 439.4,183.41C439.7,182.32 439.99,181.23 440.3,180.17C440.6,179.14 440.9,178.12 441.21,177.12C441.51,176.15 441.81,175.19 442.11,174.25C442.41,173.34 442.7,172.45 443.01,171.57C443.31,170.72 443.61,169.88 443.92,169.06C444.22,168.27 444.51,167.49 444.82,166.73C445.12,165.99 445.42,165.27 445.73,164.56C446.03,163.88 446.33,163.22 446.63,162.57C446.93,161.94 447.22,161.33 447.53,160.73C447.83,160.15 448.13,159.59 448.44,159.05C448.74,158.53 449.03,158.01 449.34,157.52C449.64,157.04 449.94,156.59 450.25,156.14C450.55,155.71 450.84,155.28 451.15,154.88C451.44,154.49 451.74,154.12 452.05,153.76C452.35,153.41 452.65,153.07 452.96,152.75C453.26,152.44 453.55,152.14 453.86,151.86C454.16,151.59 454.46,151.33 454.77,151.08C455.07,150.84 455.36,150.61 455.67,150.4C455.97,150.19 456.27,150 456.58,149.82C456.88,149.64 457.18,149.47 457.48,149.32C457.78,149.17 458.08,149.03 458.38,148.91C458.68,148.79 458.99,148.68 459.29,148.58C459.59,148.48 459.89,148.4 460.19,148.33C460.49,148.26 460.8,148.2 461.1,148.15Q461.4,148.1 462,148.05" style="vector-effect: non-scaling-stroke; fill: none; stroke: rgb(231, 107, 243); stroke-opacity: 1; stroke-width: 2px; opacity: 1;"/></g><g class="points"/><g class="text"/></g></g></g><g class="overplot"/><path class="xlines-above crisp" d="M0,0" style="fill: none;"/><path class="ylines-above crisp" d="M0,0" style="fill: none;"/><g class="overlines-above"/><g class="xaxislayer-above"><g class="xtick"><text text-anchor="middle" x="0" y="433" transform="translate(80,0)" style="font-family: 'Open Sans', verdana, arial, sans-serif; font-size: 12px; fill: rgb(42, 63, 95); fill-opacity: 1; white-space: pre;">0</text></g><g class="xtick"><text text-anchor="middle" x="0" y="433" transform="translate(170.23000000000002,0)" style="font-family: 'Open Sans', verdana, arial, sans-serif; font-size: 12px; fill: rgb(42, 63, 95); fill-opacity: 1; white-space: pre;">100</text></g><g class="xtick"><text text-anchor="middle" x="0" y="433" transform="translate(260.47,0)" style="font-family: 'Open Sans', verdana, arial, sans-serif; font-size: 12px; fill: rgb(42, 63, 95); fill-opacity: 1; white-space: pre;">200</text></g><g class="xtick"><text text-anchor="middle" x="0" y="433" transform="translate(350.7,0)" style="font-family: 'Open Sans', verdana, arial, sans-serif; font-size: 12px; fill: rgb(42, 63, 95); fill-opacity: 1; white-space: pre;">300</text></g><g class="xtick"><text text-anchor="middle" x="0" y="433" transform="translate(440.94,0)" style="font-family: 'Open Sans', verdana, arial, sans-serif; font-size: 12px; fill: rgb(42, 63, 95); fill-opacity: 1; white-space: pre;">400</text></g><g class="xtick"><text text-anchor="middle" x="0" y="433" transform="translate(531.1700000000001,0)" style="font-family: 'Open Sans', verdana, arial, sans-serif; font-size: 12px; fill: rgb(42, 63, 95); fill-opacity: 1; white-space: pre;">500</text></g></g><g class="yaxislayer-above"><g class="ytick"><text text-anchor="end" x="79" y="4.199999999999999" transform="translate(0,417.17)" style="font-family: 'Open Sans', verdana, arial, sans-serif; font-size: 12px; fill: rgb(42, 63, 95); fill-opacity: 1; white-space: pre;">0</text></g><g class="ytick"><text text-anchor="end" x="79" y="4.199999999999999" transform="translate(0,351.82)" style="font-family: 'Open Sans', verdana, arial, sans-serif; font-size: 12px; fill: rgb(42, 63, 95); fill-opacity: 1; white-space: pre;">500</text></g><g class="ytick"><text text-anchor="end" x="79" y="4.199999999999999" transform="translate(0,286.48)" style="font-family: 'Open Sans', verdana, arial, sans-serif; font-size: 12px; fill: rgb(42, 63, 95); fill-opacity: 1; white-space: pre;">1000</text></g><g class="ytick"><text text-anchor="end" x="79" y="4.199999999999999" transform="translate(0,221.14)" style="font-family: 'Open Sans', verdana, arial, sans-serif; font-size: 12px; fill: rgb(42, 63, 95); fill-opacity: 1; white-space: pre;">1500</text></g><g class="ytick"><text text-anchor="end" x="79" y="4.199999999999999" transform="translate(0,155.8)" style="font-family: 'Open Sans', verdana, arial, sans-serif; font-size: 12px; fill: rgb(42, 63, 95); fill-opacity: 1; white-space: pre;">2000</text></g></g><g class="overaxes-above"/></g></g><g class="polarlayer"/><g class="ternarylayer"/><g class="geolayer"/><g class="funnelarealayer"/><g class="pielayer"/><g class="treemaplayer"/><g class="sunburstlayer"/><g class="glimages"/><defs id="topdefs-73c9dc"><g class="clips"/><clipPath id="legend73c9dc"><rect width="137" height="48" x="0" y="0"/></clipPath></defs><g class="layer-above"><g class="imagelayer"/><g class="shapelayer"/></g><g class="infolayer"><g class="legend" pointer-events="all" transform="translate(551.24, 100)"><rect class="bg" shape-rendering="crispEdges" width="137" height="48" x="0" y="0" style="stroke: rgb(68, 68, 68); stroke-opacity: 1; fill: rgb(255, 255, 255); fill-opacity: 1; stroke-width: 0px;"/><g class="scrollbox" transform="translate(0, 0)" clip-path="url('#legend73c9dc')"><g class="groups"><g class="traces" transform="translate(0, 14.5)" style="opacity: 1;"><text class="legendtext" text-anchor="start" x="40" y="4.680000000000001" style="font-family: 'Open Sans', verdana, arial, sans-serif; font-size: 12px; fill: rgb(42, 63, 95); fill-opacity: 1; white-space: pre;">Average Class II</text><g class="layers" style="opacity: 1;"><g class="legendfill"/><g class="legendlines"><path class="js-line" d="M5,0h30" style="fill: none; stroke: rgb(0, 176, 246); stroke-opacity: 1; stroke-width: 2px;"/></g><g class="legendsymbols"><g class="legendpoints"/></g></g><rect class="legendtoggle" x="0" y="-9.5" width="131.15625" height="19" style="fill: rgb(0, 0, 0); fill-opacity: 0;"/></g><g class="traces" transform="translate(0, 33.5)" style="opacity: 1;"><text class="legendtext" text-anchor="start" x="40" y="4.680000000000001" style="font-family: 'Open Sans', verdana, arial, sans-serif; font-size: 12px; fill: rgb(42, 63, 95); fill-opacity: 1; white-space: pre;">Average Class III</text><g class="layers" style="opacity: 1;"><g class="legendfill"/><g class="legendlines"><path class="js-line" d="M5,0h30" style="fill: none; stroke: rgb(231, 107, 243); stroke-opacity: 1; stroke-width: 2px;"/></g><g class="legendsymbols"><g class="legendpoints"/></g></g><rect class="legendtoggle" x="0" y="-9.5" width="131.15625" height="19" style="fill: rgb(0, 0, 0); fill-opacity: 0;"/></g></g></g><rect class="scrollbar" rx="20" ry="3" width="0" height="0" x="0" y="0" style="fill: rgb(128, 139, 164); fill-opacity: 1;"/></g><g class="g-gtitle"><text class="gtitle" x="35" y="50" text-anchor="start" dy="0em" style="font-family: 'Open Sans', verdana, arial, sans-serif; font-size: 17px; fill: rgb(42, 63, 95); opacity: 1; font-weight: normal; white-space: pre;">Average curve: hydropathy_group</text></g><g class="g-xtitle"><text class="xtitle" x="311" y="460.8" text-anchor="middle" style="font-family: 'Open Sans', verdana, arial, sans-serif; font-size: 14px; fill: rgb(42, 63, 95); opacity: 1; font-weight: normal; white-space: pre;">Domain</text></g><g class="g-ytitle"><text class="ytitle" transform="rotate(-90,27.496875000000003,260)" x="27.496875000000003" y="260" text-anchor="middle" style="font-family: 'Open Sans', verdana, arial, sans-serif; font-size: 14px; fill: rgb(42, 63, 95); opacity: 1; font-weight: normal; white-space: pre;">Frequency</text></g></g></svg>