<svg xmlns="http://www.w3.org/2000/svg" xmlns:xlink="http://www.w3.org/1999/xlink" version="1.1" width="724" height="4524" name="tree.svg" y="0" viewBox="0 0 724 4524">
<polyline points="724,4524 0,4524 0,0 724,0 724,4524" fill="white" />
<text x="360" y="37" fill="#000000" font-size="15" font-family="default" > sequence 26</text>
<polyline points="302,44 302,32 358,32" fill="none" stroke="#000000" stroke-width="1" stroke-linecap="square"/>
<text x="307" y="61" fill="#000000" font-size="15" font-family="default" > sequence 121</text>
<polyline points="302,45 302,56 305,56" fill="none" stroke="#000000" stroke-width="1" stroke-linecap="square"/>
<polyline points="266,62 266,44 302,44" fill="none" stroke="#000000" stroke-width="1" stroke-linecap="square"/>
<text x="268" y="85" fill="#000000" font-size="15" font-family="default" > sequence 43</text>
<polyline points="266,63 266,80 266,80" fill="none" stroke="#000000" stroke-width="1" stroke-linecap="square"/>
<polyline points="248,83 248,62 266,62" fill="none" stroke="#000000" stroke-width="1" stroke-linecap="square"/>
<text x="265" y="109" fill="#000000" font-size="15" font-family="default" > sequence 104</text>
<polyline points="248,84 248,104 263,104" fill="none" stroke="#000000" stroke-width="1" stroke-linecap="square"/>
<polyline points="239,117 239,83 248,83" fill="none" stroke="#000000" stroke-width="1" stroke-linecap="square"/>
<text x="251" y="133" fill="#000000" font-size="15" font-family="default" > sequence 63</text>
<polyline points="239,140 239,128 249,128" fill="none" stroke="#000000" stroke-width="1" stroke-linecap="square"/>
<text x="255" y="157" fill="#000000" font-size="15" font-family="default" > sequence 105</text>
<polyline points="239,141 239,152 253,152" fill="none" stroke="#000000" stroke-width="1" stroke-linecap="square"/>
<text x="245" y="181" fill="#000000" font-size="15" font-family="default" > sequence 177</text>
<polyline points="239,130 239,176 243,176" fill="none" stroke="#000000" stroke-width="1" stroke-linecap="square"/>
<text x="255" y="205" fill="#000000" font-size="15" font-family="default" > sequence 137</text>
<polyline points="253,224 253,200 253,200" fill="none" stroke="#000000" stroke-width="1" stroke-linecap="square"/>
<text x="259" y="229" fill="#000000" font-size="15" font-family="default" > sequence 58</text>
<polyline points="253,236 253,224 257,224" fill="none" stroke="#000000" stroke-width="1" stroke-linecap="square"/>
<text x="255" y="253" fill="#000000" font-size="15" font-family="default" > sequence 128</text>
<polyline points="253,237 253,248 253,248" fill="none" stroke="#000000" stroke-width="1" stroke-linecap="square"/>
<line x1="253" y1="224" x2="253" y2="248" stroke="#000000" stroke-width="1" stroke-linecap="square"/>
<polyline points="239,154 239,224 253,224" fill="none" stroke="#000000" stroke-width="1" stroke-linecap="square"/>
<text x="249" y="277" fill="#000000" font-size="15" font-family="default" > sequence 79</text>
<polyline points="247,284 247,272 247,272" fill="none" stroke="#000000" stroke-width="1" stroke-linecap="square"/>
<text x="258" y="301" fill="#000000" font-size="15" font-family="default" > sequence 141</text>
<polyline points="247,285 247,296 256,296" fill="none" stroke="#000000" stroke-width="1" stroke-linecap="square"/>
<polyline points="239,184 239,284 247,284" fill="none" stroke="#000000" stroke-width="1" stroke-linecap="square"/>
<text x="245" y="325" fill="#000000" font-size="15" font-family="default" > sequence 62</text>
<polyline points="243,332 243,320 243,320" fill="none" stroke="#000000" stroke-width="1" stroke-linecap="square"/>
<text x="249" y="349" fill="#000000" font-size="15" font-family="default" > sequence 130</text>
<polyline points="243,333 243,344 247,344" fill="none" stroke="#000000" stroke-width="1" stroke-linecap="square"/>
<polyline points="239,208 239,332 243,332" fill="none" stroke="#000000" stroke-width="1" stroke-linecap="square"/>
<text x="245" y="373" fill="#000000" font-size="15" font-family="default" > sequence 20</text>
<polyline points="239,226 239,368 243,368" fill="none" stroke="#000000" stroke-width="1" stroke-linecap="square"/>
<text x="245" y="397" fill="#000000" font-size="15" font-family="default" > sequence 52</text>
<polyline points="239,238 239,392 243,392" fill="none" stroke="#000000" stroke-width="1" stroke-linecap="square"/>
<text x="246" y="421" fill="#000000" font-size="15" font-family="default" > sequence 32</text>
<polyline points="239,250 239,416 244,416" fill="none" stroke="#000000" stroke-width="1" stroke-linecap="square"/>
<text x="246" y="445" fill="#000000" font-size="15" font-family="default" > sequence 153</text>
<polyline points="239,262 239,440 244,440" fill="none" stroke="#000000" stroke-width="1" stroke-linecap="square"/>
<text x="245" y="469" fill="#000000" font-size="15" font-family="default" > sequence 89</text>
<polyline points="239,476 239,464 243,464" fill="none" stroke="#000000" stroke-width="1" stroke-linecap="square"/>
<text x="241" y="493" fill="#000000" font-size="15" font-family="default" > sequence 131</text>
<polyline points="239,477 239,488 239,488" fill="none" stroke="#000000" stroke-width="1" stroke-linecap="square"/>
<text x="245" y="517" fill="#000000" font-size="15" font-family="default" > sequence 24</text>
<polyline points="239,298 239,512 243,512" fill="none" stroke="#000000" stroke-width="1" stroke-linecap="square"/>
<text x="245" y="541" fill="#000000" font-size="15" font-family="default" > sequence 9</text>
<polyline points="239,310 239,536 243,536" fill="none" stroke="#000000" stroke-width="1" stroke-linecap="square"/>
<text x="241" y="565" fill="#000000" font-size="15" font-family="default" > sequence 5</text>
<polyline points="239,322 239,560 239,560" fill="none" stroke="#000000" stroke-width="1" stroke-linecap="square"/>
<text x="241" y="589" fill="#000000" font-size="15" font-family="default" > sequence 179</text>
<polyline points="239,334 239,584 239,584" fill="none" stroke="#000000" stroke-width="1" stroke-linecap="square"/>
<text x="246" y="613" fill="#000000" font-size="15" font-family="default" > sequence 22</text>
<polyline points="244,680 244,608 244,608" fill="none" stroke="#000000" stroke-width="1" stroke-linecap="square"/>
<text x="248" y="637" fill="#000000" font-size="15" font-family="default" > sequence 54</text>
<polyline points="244,692 244,632 246,632" fill="none" stroke="#000000" stroke-width="1" stroke-linecap="square"/>
<text x="246" y="661" fill="#000000" font-size="15" font-family="default" > sequence 77</text>
<polyline points="244,704 244,656 244,656" fill="none" stroke="#000000" stroke-width="1" stroke-linecap="square"/>
<text x="250" y="685" fill="#000000" font-size="15" font-family="default" > sequence 34</text>
<polyline points="244,716 244,680 248,680" fill="none" stroke="#000000" stroke-width="1" stroke-linecap="square"/>
<text x="250" y="709" fill="#000000" font-size="15" font-family="default" > sequence 49</text>
<polyline points="244,728 244,704 248,704" fill="none" stroke="#000000" stroke-width="1" stroke-linecap="square"/>
<text x="246" y="733" fill="#000000" font-size="15" font-family="default" > sequence 100</text>
<polyline points="244,740 244,728 244,728" fill="none" stroke="#000000" stroke-width="1" stroke-linecap="square"/>
<text x="246" y="757" fill="#000000" font-size="15" font-family="default" > sequence 133</text>
<polyline points="244,741 244,752 244,752" fill="none" stroke="#000000" stroke-width="1" stroke-linecap="square"/>
<line x1="244" y1="680" x2="244" y2="752" stroke="#000000" stroke-width="1" stroke-linecap="square"/>
<polyline points="239,382 239,680 244,680" fill="none" stroke="#000000" stroke-width="1" stroke-linecap="square"/>
<text x="241" y="781" fill="#000000" font-size="15" font-family="default" > sequence 157</text>
<polyline points="239,430 239,776 239,776" fill="none" stroke="#000000" stroke-width="1" stroke-linecap="square"/>
<line x1="239" y1="84" x2="239" y2="431" stroke="#000000" stroke-width="1" stroke-linecap="square"/>
<polyline points="228,854 228,429 239,429" fill="none" stroke="#000000" stroke-width="1" stroke-linecap="square"/>
<text x="238" y="805" fill="#000000" font-size="15" font-family="default" > sequence 87</text>
<polyline points="228,1040 228,800 236,800" fill="none" stroke="#000000" stroke-width="1" stroke-linecap="square"/>
<text x="248" y="829" fill="#000000" font-size="15" font-family="default" > sequence 30</text>
<polyline points="242,836 242,824 246,824" fill="none" stroke="#000000" stroke-width="1" stroke-linecap="square"/>
<text x="248" y="853" fill="#000000" font-size="15" font-family="default" > sequence 151</text>
<polyline points="242,837 242,848 246,848" fill="none" stroke="#000000" stroke-width="1" stroke-linecap="square"/>
<text x="248" y="877" fill="#000000" font-size="15" font-family="default" > sequence 88</text>
<polyline points="242,849 242,872 246,872" fill="none" stroke="#000000" stroke-width="1" stroke-linecap="square"/>
<text x="244" y="901" fill="#000000" font-size="15" font-family="default" > sequence 119</text>
<polyline points="242,861 242,896 242,896" fill="none" stroke="#000000" stroke-width="1" stroke-linecap="square"/>
<text x="248" y="925" fill="#000000" font-size="15" font-family="default" > sequence 140</text>
<polyline points="242,873 242,920 246,920" fill="none" stroke="#000000" stroke-width="1" stroke-linecap="square"/>
<line x1="242" y1="825" x2="242" y2="874" stroke="#000000" stroke-width="1" stroke-linecap="square"/>
<polyline points="228,908 228,872 242,872" fill="none" stroke="#000000" stroke-width="1" stroke-linecap="square"/>
<text x="230" y="949" fill="#000000" font-size="15" font-family="default" > sequence 42</text>
<polyline points="228,909 228,944 228,944" fill="none" stroke="#000000" stroke-width="1" stroke-linecap="square"/>
<text x="251" y="973" fill="#000000" font-size="15" font-family="default" > sequence 8</text>
<polyline points="249,980 249,968 249,968" fill="none" stroke="#000000" stroke-width="1" stroke-linecap="square"/>
<text x="251" y="997" fill="#000000" font-size="15" font-family="default" > sequence 78</text>
<polyline points="249,981 249,992 249,992" fill="none" stroke="#000000" stroke-width="1" stroke-linecap="square"/>
<polyline points="244,998 244,980 249,980" fill="none" stroke="#000000" stroke-width="1" stroke-linecap="square"/>
<text x="246" y="1021" fill="#000000" font-size="15" font-family="default" > sequence 68</text>
<polyline points="244,999 244,1016 244,1016" fill="none" stroke="#000000" stroke-width="1" stroke-linecap="square"/>
<text x="246" y="1045" fill="#000000" font-size="15" font-family="default" > sequence 75</text>
<polyline points="244,1011 244,1040 244,1040" fill="none" stroke="#000000" stroke-width="1" stroke-linecap="square"/>
<line x1="244" y1="981" x2="244" y2="1012" stroke="#000000" stroke-width="1" stroke-linecap="square"/>
<polyline points="228,1145 228,1010 244,1010" fill="none" stroke="#000000" stroke-width="1" stroke-linecap="square"/>
<text x="235" y="1069" fill="#000000" font-size="15" font-family="default" > sequence 25</text>
<polyline points="233,1076 233,1064 233,1064" fill="none" stroke="#000000" stroke-width="1" stroke-linecap="square"/>
<text x="239" y="1093" fill="#000000" font-size="15" font-family="default" > sequence 55</text>
<polyline points="233,1077 233,1088 237,1088" fill="none" stroke="#000000" stroke-width="1" stroke-linecap="square"/>
<polyline points="230,1094 230,1076 233,1076" fill="none" stroke="#000000" stroke-width="1" stroke-linecap="square"/>
<text x="235" y="1117" fill="#000000" font-size="15" font-family="default" > sequence 59</text>
<polyline points="230,1095 230,1112 233,1112" fill="none" stroke="#000000" stroke-width="1" stroke-linecap="square"/>
<polyline points="228,1187 228,1094 230,1094" fill="none" stroke="#000000" stroke-width="1" stroke-linecap="square"/>
<text x="233" y="1141" fill="#000000" font-size="15" font-family="default" > sequence 175</text>
<polyline points="228,1208 228,1136 231,1136" fill="none" stroke="#000000" stroke-width="1" stroke-linecap="square"/>
<text x="245" y="1165" fill="#000000" font-size="15" font-family="default" > sequence 180</text>
<polyline points="228,1220 228,1160 243,1160" fill="none" stroke="#000000" stroke-width="1" stroke-linecap="square"/>
<text x="245" y="1189" fill="#000000" font-size="15" font-family="default" > sequence 103</text>
<polyline points="228,1232 228,1184 243,1184" fill="none" stroke="#000000" stroke-width="1" stroke-linecap="square"/>
<text x="245" y="1213" fill="#000000" font-size="15" font-family="default" > sequence 111</text>
<polyline points="228,1244 228,1208 243,1208" fill="none" stroke="#000000" stroke-width="1" stroke-linecap="square"/>
<text x="260" y="1237" fill="#000000" font-size="15" font-family="default" > sequence 12</text>
<polyline points="228,1256 228,1232 258,1232" fill="none" stroke="#000000" stroke-width="1" stroke-linecap="square"/>
<text x="364" y="1261" fill="#000000" font-size="15" font-family="default" > sequence 90</text>
<polyline points="362,1280 362,1256 362,1256" fill="none" stroke="#000000" stroke-width="1" stroke-linecap="square"/>
<text x="371" y="1285" fill="#000000" font-size="15" font-family="default" > sequence 152</text>
<polyline points="362,1292 362,1280 369,1280" fill="none" stroke="#000000" stroke-width="1" stroke-linecap="square"/>
<text x="364" y="1309" fill="#000000" font-size="15" font-family="default" > sequence 159</text>
<polyline points="362,1293 362,1304 362,1304" fill="none" stroke="#000000" stroke-width="1" stroke-linecap="square"/>
<line x1="362" y1="1280" x2="362" y2="1304" stroke="#000000" stroke-width="1" stroke-linecap="square"/>
<polyline points="228,1257 228,1280 362,1280" fill="none" stroke="#000000" stroke-width="1" stroke-linecap="square"/>
<text x="236" y="1333" fill="#000000" font-size="15" font-family="default" > sequence 155</text>
<polyline points="228,879 228,1328 234,1328" fill="none" stroke="#000000" stroke-width="1" stroke-linecap="square"/>
<text x="236" y="1357" fill="#000000" font-size="15" font-family="default" > sequence 172</text>
<polyline points="228,891 228,1352 234,1352" fill="none" stroke="#000000" stroke-width="1" stroke-linecap="square"/>
<text x="239" y="1381" fill="#000000" font-size="15" font-family="default" > sequence 160</text>
<polyline points="237,1448 237,1376 237,1376" fill="none" stroke="#000000" stroke-width="1" stroke-linecap="square"/>
<text x="239" y="1405" fill="#000000" font-size="15" font-family="default" > sequence 16</text>
<polyline points="237,1460 237,1400 237,1400" fill="none" stroke="#000000" stroke-width="1" stroke-linecap="square"/>
<text x="239" y="1429" fill="#000000" font-size="15" font-family="default" > sequence 37</text>
<polyline points="237,1472 237,1424 237,1424" fill="none" stroke="#000000" stroke-width="1" stroke-linecap="square"/>
<text x="239" y="1453" fill="#000000" font-size="15" font-family="default" > sequence 150</text>
<polyline points="237,1484 237,1448 237,1448" fill="none" stroke="#000000" stroke-width="1" stroke-linecap="square"/>
<text x="239" y="1477" fill="#000000" font-size="15" font-family="default" > sequence 72</text>
<polyline points="237,1496 237,1472 237,1472" fill="none" stroke="#000000" stroke-width="1" stroke-linecap="square"/>
<text x="239" y="1501" fill="#000000" font-size="15" font-family="default" > sequence 76</text>
<polyline points="237,1508 237,1496 237,1496" fill="none" stroke="#000000" stroke-width="1" stroke-linecap="square"/>
<text x="239" y="1525" fill="#000000" font-size="15" font-family="default" > sequence 178</text>
<polyline points="237,1509 237,1520 237,1520" fill="none" stroke="#000000" stroke-width="1" stroke-linecap="square"/>
<line x1="237" y1="1448" x2="237" y2="1520" stroke="#000000" stroke-width="1" stroke-linecap="square"/>
<polyline points="228,939 228,1448 237,1448" fill="none" stroke="#000000" stroke-width="1" stroke-linecap="square"/>
<text x="240" y="1549" fill="#000000" font-size="15" font-family="default" > sequence 84</text>
<polyline points="228,987 228,1544 238,1544" fill="none" stroke="#000000" stroke-width="1" stroke-linecap="square"/>
<text x="237" y="1573" fill="#000000" font-size="15" font-family="default" > sequence 138</text>
<polyline points="228,999 228,1568 235,1568" fill="none" stroke="#000000" stroke-width="1" stroke-linecap="square"/>
<text x="230" y="1597" fill="#000000" font-size="15" font-family="default" > sequence 148</text>
<polyline points="228,1011 228,1592 228,1592" fill="none" stroke="#000000" stroke-width="1" stroke-linecap="square"/>
<text x="250" y="1621" fill="#000000" font-size="15" font-family="default" > sequence 2</text>
<polyline points="228,1628 228,1616 248,1616" fill="none" stroke="#000000" stroke-width="1" stroke-linecap="square"/>
<text x="230" y="1645" fill="#000000" font-size="15" font-family="default" > sequence 169</text>
<polyline points="228,1629 228,1640 228,1640" fill="none" stroke="#000000" stroke-width="1" stroke-linecap="square"/>
<text x="230" y="1669" fill="#000000" font-size="15" font-family="default" > sequence 143</text>
<polyline points="228,1641 228,1664 228,1664" fill="none" stroke="#000000" stroke-width="1" stroke-linecap="square"/>
<text x="234" y="1693" fill="#000000" font-size="15" font-family="default" > sequence 166</text>
<polyline points="228,1653 228,1688 232,1688" fill="none" stroke="#000000" stroke-width="1" stroke-linecap="square"/>
<text x="234" y="1717" fill="#000000" font-size="15" font-family="default" > sequence 147</text>
<polyline points="228,1665 228,1712 232,1712" fill="none" stroke="#000000" stroke-width="1" stroke-linecap="square"/>
<text x="234" y="1741" fill="#000000" font-size="15" font-family="default" > sequence 129</text>
<polyline points="232,1748 232,1736 232,1736" fill="none" stroke="#000000" stroke-width="1" stroke-linecap="square"/>
<text x="234" y="1765" fill="#000000" font-size="15" font-family="default" > sequence 181</text>
<polyline points="232,1749 232,1760 232,1760" fill="none" stroke="#000000" stroke-width="1" stroke-linecap="square"/>
<polyline points="230,1794 230,1748 232,1748" fill="none" stroke="#000000" stroke-width="1" stroke-linecap="square"/>
<text x="235" y="1789" fill="#000000" font-size="15" font-family="default" > sequence 81</text>
<polyline points="233,1796 233,1784 233,1784" fill="none" stroke="#000000" stroke-width="1" stroke-linecap="square"/>
<text x="235" y="1813" fill="#000000" font-size="15" font-family="default" > sequence 95</text>
<polyline points="233,1797 233,1808 233,1808" fill="none" stroke="#000000" stroke-width="1" stroke-linecap="square"/>
<polyline points="231,1841 231,1796 233,1796" fill="none" stroke="#000000" stroke-width="1" stroke-linecap="square"/>
<text x="236" y="1837" fill="#000000" font-size="15" font-family="default" > sequence 122</text>
<polyline points="234,1844 234,1832 234,1832" fill="none" stroke="#000000" stroke-width="1" stroke-linecap="square"/>
<text x="236" y="1861" fill="#000000" font-size="15" font-family="default" > sequence 142</text>
<polyline points="234,1845 234,1856 234,1856" fill="none" stroke="#000000" stroke-width="1" stroke-linecap="square"/>
<polyline points="232,1887 232,1844 234,1844" fill="none" stroke="#000000" stroke-width="1" stroke-linecap="square"/>
<text x="237" y="1885" fill="#000000" font-size="15" font-family="default" > sequence 4</text>
<polyline points="235,1892 235,1880 235,1880" fill="none" stroke="#000000" stroke-width="1" stroke-linecap="square"/>
<text x="237" y="1909" fill="#000000" font-size="15" font-family="default" > sequence 80</text>
<polyline points="235,1893 235,1904 235,1904" fill="none" stroke="#000000" stroke-width="1" stroke-linecap="square"/>
<polyline points="233,1930 233,1892 235,1892" fill="none" stroke="#000000" stroke-width="1" stroke-linecap="square"/>
<text x="238" y="1933" fill="#000000" font-size="15" font-family="default" > sequence 28</text>
<polyline points="236,1940 236,1928 236,1928" fill="none" stroke="#000000" stroke-width="1" stroke-linecap="square"/>
<text x="238" y="1957" fill="#000000" font-size="15" font-family="default" > sequence 162</text>
<polyline points="236,1941 236,1952 236,1952" fill="none" stroke="#000000" stroke-width="1" stroke-linecap="square"/>
<polyline points="234,1969 234,1940 236,1940" fill="none" stroke="#000000" stroke-width="1" stroke-linecap="square"/>
<text x="241" y="1981" fill="#000000" font-size="15" font-family="default" > sequence 183</text>
<polyline points="236,1999 236,1976 239,1976" fill="none" stroke="#000000" stroke-width="1" stroke-linecap="square"/>
<text x="242" y="2005" fill="#000000" font-size="15" font-family="default" > sequence 170</text>
<polyline points="237,2023 237,2000 240,2000" fill="none" stroke="#000000" stroke-width="1" stroke-linecap="square"/>
<text x="243" y="2029" fill="#000000" font-size="15" font-family="default" > sequence 146</text>
<polyline points="238,2047 238,2024 241,2024" fill="none" stroke="#000000" stroke-width="1" stroke-linecap="square"/>
<text x="244" y="2053" fill="#000000" font-size="15" font-family="default" > sequence 83</text>
<polyline points="239,2071 239,2048 242,2048" fill="none" stroke="#000000" stroke-width="1" stroke-linecap="square"/>
<text x="245" y="2077" fill="#000000" font-size="15" font-family="default" > sequence 82</text>
<polyline points="240,2095 240,2072 243,2072" fill="none" stroke="#000000" stroke-width="1" stroke-linecap="square"/>
<text x="246" y="2101" fill="#000000" font-size="15" font-family="default" > sequence 65</text>
<polyline points="241,2119 241,2096 244,2096" fill="none" stroke="#000000" stroke-width="1" stroke-linecap="square"/>
<text x="247" y="2125" fill="#000000" font-size="15" font-family="default" > sequence 31</text>
<polyline points="242,2143 242,2120 245,2120" fill="none" stroke="#000000" stroke-width="1" stroke-linecap="square"/>
<text x="248" y="2149" fill="#000000" font-size="15" font-family="default" > sequence 17</text>
<polyline points="243,2167 243,2144 246,2144" fill="none" stroke="#000000" stroke-width="1" stroke-linecap="square"/>
<text x="249" y="2173" fill="#000000" font-size="15" font-family="default" > sequence 69</text>
<polyline points="244,2190 244,2168 247,2168" fill="none" stroke="#000000" stroke-width="1" stroke-linecap="square"/>
<text x="250" y="2197" fill="#000000" font-size="15" font-family="default" > sequence 124</text>
<polyline points="245,2213 245,2192 248,2192" fill="none" stroke="#000000" stroke-width="1" stroke-linecap="square"/>
<text x="251" y="2221" fill="#000000" font-size="15" font-family="default" > sequence 38</text>
<polyline points="246,2234 246,2216 249,2216" fill="none" stroke="#000000" stroke-width="1" stroke-linecap="square"/>
<polyline points="245,2214 245,2234 246,2234" fill="none" stroke="#000000" stroke-width="1" stroke-linecap="square"/>
<polyline points="244,2191 244,2213 245,2213" fill="none" stroke="#000000" stroke-width="1" stroke-linecap="square"/>
<polyline points="243,2168 243,2190 244,2190" fill="none" stroke="#000000" stroke-width="1" stroke-linecap="square"/>
<polyline points="242,2144 242,2167 243,2167" fill="none" stroke="#000000" stroke-width="1" stroke-linecap="square"/>
<polyline points="241,2120 241,2143 242,2143" fill="none" stroke="#000000" stroke-width="1" stroke-linecap="square"/>
<polyline points="240,2096 240,2119 241,2119" fill="none" stroke="#000000" stroke-width="1" stroke-linecap="square"/>
<polyline points="239,2072 239,2095 240,2095" fill="none" stroke="#000000" stroke-width="1" stroke-linecap="square"/>
<polyline points="238,2048 238,2071 239,2071" fill="none" stroke="#000000" stroke-width="1" stroke-linecap="square"/>
<polyline points="237,2024 237,2047 238,2047" fill="none" stroke="#000000" stroke-width="1" stroke-linecap="square"/>
<polyline points="236,2000 236,2023 237,2023" fill="none" stroke="#000000" stroke-width="1" stroke-linecap="square"/>
<polyline points="234,1970 234,1999 236,1999" fill="none" stroke="#000000" stroke-width="1" stroke-linecap="square"/>
<polyline points="233,1931 233,1969 234,1969" fill="none" stroke="#000000" stroke-width="1" stroke-linecap="square"/>
<polyline points="232,1888 232,1930 233,1930" fill="none" stroke="#000000" stroke-width="1" stroke-linecap="square"/>
<polyline points="231,1842 231,1887 232,1887" fill="none" stroke="#000000" stroke-width="1" stroke-linecap="square"/>
<polyline points="230,1795 230,1841 231,1841" fill="none" stroke="#000000" stroke-width="1" stroke-linecap="square"/>
<polyline points="228,1706 228,1794 230,1794" fill="none" stroke="#000000" stroke-width="1" stroke-linecap="square"/>
<text x="234" y="2293" fill="#000000" font-size="15" font-family="default" > sequence 115</text>
<polyline points="228,1359 228,2288 232,2288" fill="none" stroke="#000000" stroke-width="1" stroke-linecap="square"/>
<text x="236" y="2317" fill="#000000" font-size="15" font-family="default" > sequence 174</text>
<polyline points="228,1371 228,2312 234,2312" fill="none" stroke="#000000" stroke-width="1" stroke-linecap="square"/>
<text x="234" y="2341" fill="#000000" font-size="15" font-family="default" > sequence 61</text>
<polyline points="228,1383 228,2336 232,2336" fill="none" stroke="#000000" stroke-width="1" stroke-linecap="square"/>
<text x="234" y="2365" fill="#000000" font-size="15" font-family="default" > sequence 1</text>
<polyline points="228,1395 228,2360 232,2360" fill="none" stroke="#000000" stroke-width="1" stroke-linecap="square"/>
<text x="241" y="2389" fill="#000000" font-size="15" font-family="default" > sequence 11</text>
<polyline points="228,1407 228,2384 239,2384" fill="none" stroke="#000000" stroke-width="1" stroke-linecap="square"/>
<line x1="228" y1="430" x2="228" y2="1444" stroke="#000000" stroke-width="1" stroke-linecap="square"/>
<line x1="228" y1="1442" x2="228" y2="2456" stroke="#000000" stroke-width="1" stroke-linecap="square"/>
<polyline points="212,1961 212,1442 228,1442" fill="none" stroke="#000000" stroke-width="1" stroke-linecap="square"/>
<text x="235" y="2485" fill="#000000" font-size="15" font-family="default" > sequence 46</text>
<polyline points="212,1962 212,2480 233,2480" fill="none" stroke="#000000" stroke-width="1" stroke-linecap="square"/>
<polyline points="194,2278 194,1961 212,1961" fill="none" stroke="#000000" stroke-width="1" stroke-linecap="square"/>
<polyline points="176,2565 176,2278 194,2278" fill="none" stroke="#000000" stroke-width="1" stroke-linecap="square"/>
<polyline points="164,2752 164,2565 176,2565" fill="none" stroke="#000000" stroke-width="1" stroke-linecap="square"/>
<text x="342" y="1297" fill="#212121" font-size="11" font-family="MS Sans Serif" >34</text>
<text x="282" y="38" fill="#212121" font-size="11" font-family="MS Sans Serif" >55</text>
<text x="163" y="2559" fill="#212121" font-size="11" font-family="MS Sans Serif" >0</text>
<text x="181" y="2272" fill="#212121" font-size="11" font-family="MS Sans Serif" >0</text>
<text x="246" y="56" fill="#212121" font-size="11" font-family="MS Sans Serif" >23</text>
<text x="222" y="866" fill="#212121" font-size="11" font-family="MS Sans Serif" >53</text>
<text x="199" y="1955" fill="#212121" font-size="11" font-family="MS Sans Serif" >0</text>
<text x="215" y="1070" fill="#212121" font-size="11" font-family="MS Sans Serif" >35</text>
<text x="235" y="77" fill="#212121" font-size="11" font-family="MS Sans Serif" >5</text>
<text x="215" y="1436" fill="#212121" font-size="11" font-family="MS Sans Serif" >0</text>
<text x="229" y="974" fill="#212121" font-size="11" font-family="MS Sans Serif" >57</text>
<text x="223" y="349" fill="#212121" font-size="11" font-family="MS Sans Serif" >47</text>
<text x="240" y="241" fill="#212121" font-size="11" font-family="MS Sans Serif" >0</text>
<text x="234" y="301" fill="#212121" font-size="11" font-family="MS Sans Serif" >0</text>
<text x="219" y="1934" fill="#212121" font-size="11" font-family="MS Sans Serif" >47</text>
<text x="218" y="1886" fill="#212121" font-size="11" font-family="MS Sans Serif" >59</text>
<text x="215" y="1742" fill="#212121" font-size="11" font-family="MS Sans Serif" >58</text>
<text x="216" y="1790" fill="#212121" font-size="11" font-family="MS Sans Serif" >58</text>
<text x="217" y="1838" fill="#212121" font-size="11" font-family="MS Sans Serif" >32</text>
<text x="220" y="1088" fill="#212121" font-size="11" font-family="MS Sans Serif" >9</text>
<text x="231" y="697" fill="#212121" font-size="11" font-family="MS Sans Serif" >0</text>
<text x="231" y="1004" fill="#212121" font-size="11" font-family="MS Sans Serif" >0</text>
<text x="226" y="423" fill="#212121" font-size="11" font-family="MS Sans Serif" >0</text>
<text x="224" y="1465" fill="#212121" font-size="11" font-family="MS Sans Serif" >0</text>
<text x="213" y="1811" fill="#212121" font-size="11" font-family="MS Sans Serif" >11</text>
<text x="222" y="1858" fill="#212121" font-size="11" font-family="MS Sans Serif" >0</text>
<text x="223" y="1904" fill="#212121" font-size="11" font-family="MS Sans Serif" >0</text>
<text x="224" y="1947" fill="#212121" font-size="11" font-family="MS Sans Serif" >0</text>
<text x="225" y="1986" fill="#212121" font-size="11" font-family="MS Sans Serif" >2</text>
<text x="219" y="2016" fill="#212121" font-size="11" font-family="MS Sans Serif" >38</text>
<text x="228" y="2040" fill="#212121" font-size="11" font-family="MS Sans Serif" >1</text>
<text x="229" y="2064" fill="#212121" font-size="11" font-family="MS Sans Serif" >0</text>
<text x="230" y="2088" fill="#212121" font-size="11" font-family="MS Sans Serif" >0</text>
<text x="231" y="2112" fill="#212121" font-size="11" font-family="MS Sans Serif" >0</text>
<text x="232" y="2136" fill="#212121" font-size="11" font-family="MS Sans Serif" >0</text>
<text x="233" y="2160" fill="#212121" font-size="11" font-family="MS Sans Serif" >0</text>
<text x="234" y="2184" fill="#212121" font-size="11" font-family="MS Sans Serif" >1</text>
<text x="228" y="2207" fill="#212121" font-size="11" font-family="MS Sans Serif" >11</text>
<text x="236" y="2230" fill="#212121" font-size="11" font-family="MS Sans Serif" >7</text>
<text x="237" y="2251" fill="#212121" font-size="11" font-family="MS Sans Serif" >8</text>
<line x1="60" y1="4440" x2="138" y2="4440" stroke="#000000" stroke-width="1" stroke-linecap="square"/>
<line x1="60" y1="4436" x2="60" y2="4444" stroke="#000000" stroke-width="1" stroke-linecap="square"/>
<line x1="138" y1="4436" x2="138" y2="4444" stroke="#000000" stroke-width="1" stroke-linecap="square"/>
<text x="86" y="4470" fill="#212121" font-size="11" font-family="MS Sans Serif" >0.50</text>
</svg>
