<svg class="main-svg" xmlns="http://www.w3.org/2000/svg" xmlns:xlink="http://www.w3.org/1999/xlink" width="700" height="500" style="" viewBox="0 0 700 500"><rect x="0" y="0" width="700" height="500" style="fill: rgb(255, 255, 255); fill-opacity: 1;"/><defs id="defs-429466"><g class="clips"><clipPath id="clip429466xyplot" class="plotclip"><rect width="540" height="320"/></clipPath><clipPath class="axesclip" id="clip429466x"><rect x="80" y="0" width="540" height="500"/></clipPath><clipPath class="axesclip" id="clip429466y"><rect x="0" y="100" width="700" height="320"/></clipPath><clipPath class="axesclip" id="clip429466xy"><rect x="80" y="100" width="540" height="320"/></clipPath></g><g class="gradients"/></defs><g class="bglayer"><rect class="bg" x="80" y="100" width="540" height="320" style="fill: rgb(229, 236, 246); fill-opacity: 1; stroke-width: 0;"/></g><g class="layer-below"><g class="imagelayer"/><g class="shapelayer"/></g><g class="cartesianlayer"><g class="subplot xy"><g class="layer-subplot"><g class="shapelayer"/><g class="imagelayer"/></g><g class="gridlayer"><g class="x"><path class="xgrid crisp" transform="translate(185.47,0)" d="M0,100v320" style="stroke: rgb(255, 255, 255); stroke-opacity: 1; stroke-width: 1px;"/><path class="xgrid crisp" transform="translate(290.94,0)" d="M0,100v320" style="stroke: rgb(255, 255, 255); stroke-opacity: 1; stroke-width: 1px;"/><path class="xgrid crisp" transform="translate(396.41,0)" d="M0,100v320" style="stroke: rgb(255, 255, 255); stroke-opacity: 1; stroke-width: 1px;"/><path class="xgrid crisp" transform="translate(501.88,0)" d="M0,100v320" style="stroke: rgb(255, 255, 255); stroke-opacity: 1; stroke-width: 1px;"/><path class="xgrid crisp" transform="translate(607.34,0)" d="M0,100v320" style="stroke: rgb(255, 255, 255); stroke-opacity: 1; stroke-width: 1px;"/></g><g class="y"><path class="ygrid crisp" transform="translate(0,335.05)" d="M80,0h540" style="stroke: rgb(255, 255, 255); stroke-opacity: 1; stroke-width: 1px;"/><path class="ygrid crisp" transform="translate(0,262.81)" d="M80,0h540" style="stroke: rgb(255, 255, 255); stroke-opacity: 1; stroke-width: 1px;"/><path class="ygrid crisp" transform="translate(0,190.56)" d="M80,0h540" style="stroke: rgb(255, 255, 255); stroke-opacity: 1; stroke-width: 1px;"/><path class="ygrid crisp" transform="translate(0,118.32)" d="M80,0h540" style="stroke: rgb(255, 255, 255); stroke-opacity: 1; stroke-width: 1px;"/></g></g><g class="zerolinelayer"><path class="xzl zl crisp" transform="translate(80,0)" d="M0,100v320" style="stroke: rgb(255, 255, 255); stroke-opacity: 1; stroke-width: 2px;"/><path class="yzl zl crisp" transform="translate(0,407.29)" d="M80,0h540" style="stroke: rgb(255, 255, 255); stroke-opacity: 1; stroke-width: 2px;"/></g><path class="xlines-below"/><path class="ylines-below"/><g class="overlines-below"/><g class="xaxislayer-below"/><g class="yaxislayer-below"/><g class="overaxes-below"/><g class="plot" transform="translate(80, 100)" clip-path="url('#clip429466xyplot')"><g class="scatterlayer mlayer"><g class="trace scatter trace78ddc5" style="stroke-miterlimit: 2; opacity: 1;"><g class="fills"/><g class="errorbars"/><g class="lines"><path class="js-line" d="M0,16Q1.2,255.34 2.12,255.35C2.73,255.35 3.48,149.06 4.24,149.06C4.9,149.06 4.22,217.79 6.35,229.1C6.95,232.26 7.81,232.82 8.47,234.98C9.25,237.54 10,239.61 10.59,243.52C11.82,251.7 12.04,281.99 12.71,281.99C13.46,281.99 13.87,233.44 14.82,233.41C15.43,233.39 16.33,253.32 16.94,253.3C17.86,253.27 18.4,208.33 19.06,208.33C19.83,208.33 19.73,269.95 21.18,270.08C21.76,270.13 22.71,264.93 23.29,260.25C24.69,249.04 24.71,202.51 25.41,202.51C26.12,202.51 26.14,250.74 27.53,262.46C28.12,267.39 29.02,272.89 29.65,272.86C30.49,272.82 31.07,254.21 31.76,254.21C32.49,254.21 33.22,275.12 33.88,275.11C34.66,275.1 34.25,245.98 36,245.43C36.59,245.24 37.53,246.52 38.12,248.03C40.02,252.9 39.12,274.88 40.24,282.77C40.83,286.92 41.76,292.21 42.35,292.16C43.54,292.06 43.28,252.62 44.47,252.52C45.06,252.47 45.98,258.11 46.59,261.91C47.51,267.65 48.03,283.75 48.71,283.75C49.44,283.74 50.16,258.39 50.82,258.4C51.59,258.41 52.18,293.64 52.94,293.65C53.6,293.66 54.14,267.05 55.06,267C55.67,266.97 56.07,278.5 57.18,278.78C57.77,278.93 58.71,275.99 59.29,276.15C60.55,276.5 60.71,291.61 61.41,291.61C62.12,291.61 62.86,275.76 63.53,275.77C64.29,275.78 64.82,296.53 65.65,296.56C66.28,296.58 67.09,288.74 67.76,284.53C68.5,279.9 69.23,269.89 69.88,269.9C70.66,269.92 71.38,290.96 72,290.94C72.88,290.92 73.31,249.08 74.12,249.07C74.76,249.06 74.46,271.3 76.24,274.84C76.83,276.01 77.77,275.6 78.35,276.69C79.74,279.28 79.5,288.52 80.47,292.43C81.07,294.86 81.64,297.02 82.59,298.18C83.2,298.92 84.1,299.81 84.71,299.49C87.53,297.99 85.78,259.02 86.82,246.07C87.42,238.63 88.19,228.58 88.94,228.57C89.61,228.56 90.47,236.39 91.06,242.43C92.16,253.63 92.27,290.61 93.18,290.63C93.79,290.65 93.8,272.61 95.29,269.01C95.88,267.6 96.82,266.26 97.41,266.44C98.89,266.89 97.86,284.68 99.53,287.59C100.12,288.61 101.06,289.4 101.65,289.13C103.4,288.33 101.8,267.7 103.76,265.97C104.35,265.45 105.29,265.49 105.88,266.04C107.78,267.82 107.25,287.79 108,287.8C108.67,287.81 109.33,270.74 110.12,270.72C110.77,270.7 111,281.56 112.24,282.07C112.82,282.31 113.65,281.1 114.35,280.61C115.06,280.12 115.88,280.03 116.47,279.12C117.72,277.18 117.87,267.66 118.59,267.65C119.28,267.64 120.08,274.01 120.71,278.04C121.56,283.53 122.05,297.62 122.82,297.64C123.48,297.65 124.32,289.08 124.94,283.43C125.84,275.19 126.37,263.28 127.06,252.92C127.78,242.16 128.51,220.03 129.18,220.03C129.92,220.03 130.55,247.33 131.29,260.1C131.97,271.81 132.62,293.74 133.41,293.75C134.06,293.76 134.85,278.78 135.53,270.87C136.26,262.35 136.67,244.4 137.65,244.33C138.25,244.29 138.95,254.05 139.76,254.11C140.4,254.15 141.29,248.25 141.88,248.34C143.28,248.55 141.57,281.64 144,283.53C144.6,284 145.53,282.7 146.12,283.13C147.77,284.33 147.65,299.97 148.24,299.94C149.31,299.89 149.48,244.41 150.35,244.39C150.97,244.38 151.65,272.81 152.47,272.83C153.11,272.85 153.95,262.08 154.59,255.73C155.39,247.8 155.61,235.03 156.71,228.91C157.3,225.64 158.24,221.45 158.82,221.52C160.33,221.7 160.19,273.03 160.94,273.03C161.61,273.03 162.41,231.98 163.06,231.99C163.84,232 164.35,290.65 165.18,290.66C165.81,290.67 166.37,265.62 167.29,256.55C167.9,250.49 168.81,241.43 169.41,241.46C170.38,241.5 170.89,281.02 171.53,281.01C172.34,281 172.76,218.63 173.65,218.61C174.27,218.6 175.04,238.94 175.76,248.71C176.45,257.99 177.06,275.81 177.88,275.83C178.52,275.85 179.36,259.29 180,259.31C180.83,259.33 181.02,280.94 182.12,287.37C182.71,290.83 183.56,295.22 184.24,295.21C184.97,295.2 185.66,289.22 186.35,286.11C187.07,282.84 187.88,280.82 188.47,276.03C189.87,264.59 189.92,217.28 190.59,217.28C191.34,217.28 192,291.45 192.71,291.45C193.41,291.45 193.91,220.71 194.82,220.69C195.43,220.68 196.23,242.33 196.94,253.02C197.64,263.55 198.32,284.35 199.06,284.35C199.74,284.35 200.46,258.05 201.18,258.05C201.87,258.05 202.53,274.86 203.29,282.36C203.95,288.85 204.73,300.5 205.41,300.49C206.15,300.48 206.86,286.6 207.53,279.1C208.28,270.8 207.95,256.75 209.65,252.86C210.24,251.52 211.16,250.42 211.76,250.57C212.74,250.81 213.19,255.86 213.88,258.58C214.6,261.4 215.37,267.25 216,267.21C216.86,267.16 217.47,250.71 218.12,250.72C218.92,250.74 219.49,276.18 220.24,276.19C220.91,276.2 221.51,256.15 222.35,256.12C222.98,256.09 223.86,267.34 224.47,267.31C225.4,267.26 225.38,241.48 226.59,241.31C227.18,241.23 228.07,244.88 228.71,247.06C229.51,249.79 230.13,256.47 230.82,256.46C231.54,256.45 232.35,246.1 232.94,246.15C234.26,246.26 233.91,299.54 235.06,299.6C235.65,299.63 236.5,290.57 237.18,285.75C237.92,280.5 238.62,269.26 239.29,269.27C240.04,269.28 239.87,289.07 241.41,289.62C242,289.83 242.94,288.64 243.53,287.53C244.7,285.31 245.03,275.85 245.65,275.88C246.53,275.92 247.01,299.34 247.76,299.35C248.43,299.36 248.78,285 249.88,280.85C250.47,278.62 251.27,277.48 252,275.92C252.68,274.46 253.52,271.65 254.12,271.74C255.11,271.89 255.61,284.26 256.24,284.24C257.06,284.21 257.63,262.94 258.35,262.94C259.04,262.94 259.8,282.29 260.47,282.28C261.22,282.27 261.03,258.82 262.59,258.34C263.18,258.16 264.12,259.45 264.71,260.97C266.58,265.79 266.1,294.83 266.82,294.83C267.51,294.83 268.13,263.57 268.94,263.55C269.58,263.54 270.39,283.15 271.06,283.14C271.82,283.13 272.35,257.47 273.18,257.45C273.81,257.43 274.23,272.11 275.29,272.28C275.88,272.38 276.76,268.02 277.41,268.07C278.19,268.13 278.84,274.47 279.53,274.46C280.25,274.45 281.01,267.37 281.65,267.4C282.45,267.44 283.17,278.83 283.76,278.79C284.98,278.7 285.12,228.4 285.88,228.39C286.54,228.39 287.08,256.21 288,266.28C288.61,272.99 289.08,282.86 290.12,283C290.72,283.08 291.65,280.57 292.24,277.86C294.11,269.27 292.16,222.64 294.35,222.08C294.95,221.93 295.88,223.69 296.47,225.64C298.34,231.83 296.57,266.67 298.59,267.27C299.18,267.45 300.12,264.21 300.71,264.36C301.94,264.67 302.23,279.96 302.82,279.93C303.88,279.88 304.23,229.27 304.94,229.27C305.64,229.27 306.14,278.71 307.06,278.73C307.67,278.75 308.57,256.75 309.18,256.77C310.08,256.79 310.45,303.99 311.29,304C311.92,304.01 311.53,280.85 313.41,277.49C314,276.43 314.94,275.69 315.53,275.94C316.99,276.57 317.05,292.21 317.65,292.19C318.63,292.15 319.03,248.68 319.76,248.68C320.44,248.68 321.2,287 321.88,287C322.62,287 323.24,242.34 324,242.33C324.67,242.33 325.16,267.84 326.12,276.68C326.73,282.28 327.42,286.41 328.24,290.33C328.87,293.35 329.74,298.31 330.35,298.27C331.27,298.2 331.78,279.92 332.47,279.92C333.2,279.92 333.9,300.73 334.59,300.73C335.32,300.73 335.37,281.67 336.71,277.16C337.29,275.19 338.22,274.92 338.82,273.17C339.81,270.27 340.31,260.96 340.94,260.98C341.78,261.01 342.41,282.59 343.06,282.58C343.85,282.57 344.43,250.99 345.18,250.98C345.85,250.97 346.65,275.69 347.29,275.68C348.09,275.67 348.72,237.51 349.41,237.51C350.13,237.51 350.76,279 351.53,279.01C352.19,279.02 352.9,257.87 353.65,248.23C354.32,239.67 355.16,223.98 355.76,224C356.77,224.03 356.9,293.9 357.88,293.92C358.48,293.94 359.14,267.59 360,267.56C360.62,267.54 361.12,281.03 362.12,281.17C362.72,281.26 363.65,278.79 364.24,276.65C365.47,272.14 365.12,259.18 366.35,254.66C366.94,252.51 367.88,250.01 368.47,250.12C370.16,250.45 369.34,291.56 370.59,291.67C371.18,291.72 372.11,286.51 372.71,282.67C373.74,276.08 374.15,255.48 374.82,255.49C375.57,255.5 375.84,289.51 376.94,289.6C377.53,289.65 378.27,280.01 379.06,279.97C379.71,279.94 380.45,286.31 381.18,286.33C381.86,286.35 382.64,280.84 383.29,280.88C384.08,280.93 384.77,286.22 385.41,289.45C386.22,293.54 386.88,303.53 387.53,303.51C388.32,303.49 388.93,289.49 389.65,282.63C390.35,275.96 391.12,270.28 391.76,262.92C392.57,253.61 393.23,231.19 393.88,231.2C394.67,231.21 395.14,277.89 396,277.91C396.63,277.92 396.47,256.93 398.12,253.17C398.71,251.83 399.65,250.67 400.24,250.86C401.6,251.29 401.63,267.66 402.35,267.66C403.04,267.66 403.83,252 404.47,252.02C405.28,252.04 405.88,277.5 406.59,277.5C407.29,277.5 407.96,260.64 408.71,252.86C409.38,245.84 409.09,233.83 410.82,232.85C411.41,232.52 412.34,232.96 412.94,233.83C415.2,237.13 414.07,267.03 415.06,267.09C415.66,267.12 416.58,255.04 417.18,255.08C418.22,255.14 418.32,292.23 419.29,292.27C419.89,292.3 420.63,278.04 421.41,278.02C422.07,278 422.82,284.75 423.53,288.08C424.23,291.37 425.06,297.95 425.65,297.9C426.84,297.8 425.63,261.9 427.76,256.64C428.36,255.17 429.29,254.02 429.88,254.22C431.91,254.92 430.79,291.64 432,291.75C432.59,291.8 433.45,283.09 434.12,283.11C434.87,283.13 435.62,294.26 436.24,294.23C437.13,294.19 437.75,280.56 438.35,270.88C439.33,255.05 439.67,208.21 440.47,208.2C441.12,208.19 441.62,238.91 442.59,249.45C443.19,256.04 443.1,263.92 444.71,265.46C445.29,266.02 446.24,265.1 446.82,265.64C448.28,267 448.18,274.74 448.94,278.8C449.6,282.33 450.01,286.55 451.06,288.65C451.66,289.84 452.59,291.26 453.18,291.07C454.72,290.57 454.47,268.88 455.29,268.85C455.93,268.83 456.39,279 457.41,282.12C458.01,283.96 458.94,286.39 459.53,286.28C460.83,286.03 459.83,264.24 461.65,263.26C462.24,262.95 463.18,264.7 463.76,264.4C465.25,263.64 465.18,248.82 465.88,248.82C466.59,248.82 467.37,258.58 468,264.67C468.85,272.89 468.22,289.9 470.12,293.74C470.71,294.94 471.65,295.84 472.24,295.62C473.75,295.04 472.65,277.89 474.35,276.82C474.94,276.45 475.87,277.97 476.47,277.57C478.83,276.01 477.59,242.87 478.59,242.82C479.19,242.79 479.44,254.63 480.71,255.14C481.29,255.37 482.21,253.39 482.82,253.57C483.75,253.85 484.35,256.79 484.94,259.35C486.01,263.97 485.86,279.18 487.06,279.39C487.65,279.49 488.58,274.91 489.18,275C490.2,275.16 490.65,289.17 491.29,289.15C492.1,289.13 492.65,266.22 493.41,266.21C494.08,266.2 494.87,283.77 495.53,283.76C496.3,283.75 496.87,266.72 497.65,259.36C498.3,253.25 499.02,242.63 499.76,242.62C500.43,242.61 501.23,251.27 501.88,256.32C502.67,262.51 503.25,277.04 504,277.05C504.67,277.06 505.47,260.52 506.12,260.53C506.92,260.55 506.32,282.7 508.24,285.53C508.83,286.4 509.75,286.93 510.35,286.58C512.7,285.22 511.67,250.17 512.47,250.16C513.12,250.15 513.86,266.43 514.59,274.26C515.28,281.7 515.81,295.96 516.71,296.01C517.32,296.04 518.23,290.4 518.82,286.08C519.9,278.17 520.26,263.93 520.94,252.19C521.68,239.48 522.37,212.5 523.06,212.5C523.79,212.5 524.37,256.44 525.18,256.45C525.82,256.46 526.68,229.19 527.29,229.2C528.19,229.22 527.13,288.18 529.41,288.77C530.01,288.92 530.75,286.22 531.53,285.25C532.19,284.44 533.06,284.42 533.65,283.25C535.11,280.33 534.97,265.14 535.76,265.12C536.41,265.1 536.5,276.67 537.88,277.46Q538.47,277.8 540,276.67" style="vector-effect: non-scaling-stroke; fill: none; stroke: rgb(0, 100, 80); stroke-opacity: 1; stroke-width: 2px; opacity: 1;"/></g><g class="points"/><g class="text"/></g></g></g><g class="overplot"/><path class="xlines-above crisp" d="M0,0" style="fill: none;"/><path class="ylines-above crisp" d="M0,0" style="fill: none;"/><g class="overlines-above"/><g class="xaxislayer-above"><g class="xtick"><text text-anchor="middle" x="0" y="433" transform="translate(80,0)" style="font-family: 'Open Sans', verdana, arial, sans-serif; font-size: 12px; fill: rgb(42, 63, 95); fill-opacity: 1; white-space: pre;">0</text></g><g class="xtick"><text text-anchor="middle" x="0" y="433" transform="translate(185.47,0)" style="font-family: 'Open Sans', verdana, arial, sans-serif; font-size: 12px; fill: rgb(42, 63, 95); fill-opacity: 1; white-space: pre;">50</text></g><g class="xtick"><text text-anchor="middle" x="0" y="433" transform="translate(290.94,0)" style="font-family: 'Open Sans', verdana, arial, sans-serif; font-size: 12px; fill: rgb(42, 63, 95); fill-opacity: 1; white-space: pre;">100</text></g><g class="xtick"><text text-anchor="middle" x="0" y="433" transform="translate(396.41,0)" style="font-family: 'Open Sans', verdana, arial, sans-serif; font-size: 12px; fill: rgb(42, 63, 95); fill-opacity: 1; white-space: pre;">150</text></g><g class="xtick"><text text-anchor="middle" x="0" y="433" transform="translate(501.88,0)" style="font-family: 'Open Sans', verdana, arial, sans-serif; font-size: 12px; fill: rgb(42, 63, 95); fill-opacity: 1; white-space: pre;">200</text></g><g class="xtick"><text text-anchor="middle" x="0" y="433" transform="translate(607.34,0)" style="font-family: 'Open Sans', verdana, arial, sans-serif; font-size: 12px; fill: rgb(42, 63, 95); fill-opacity: 1; white-space: pre;">250</text></g></g><g class="yaxislayer-above"><g class="ytick"><text text-anchor="end" x="79" y="4.199999999999999" transform="translate(0,407.29)" style="font-family: 'Open Sans', verdana, arial, sans-serif; font-size: 12px; fill: rgb(42, 63, 95); fill-opacity: 1; white-space: pre;">0</text></g><g class="ytick"><text text-anchor="end" x="79" y="4.199999999999999" transform="translate(0,335.05)" style="font-family: 'Open Sans', verdana, arial, sans-serif; font-size: 12px; fill: rgb(42, 63, 95); fill-opacity: 1; white-space: pre;">5k</text></g><g class="ytick"><text text-anchor="end" x="79" y="4.199999999999999" transform="translate(0,262.81)" style="font-family: 'Open Sans', verdana, arial, sans-serif; font-size: 12px; fill: rgb(42, 63, 95); fill-opacity: 1; white-space: pre;">10k</text></g><g class="ytick"><text text-anchor="end" x="79" y="4.199999999999999" transform="translate(0,190.56)" style="font-family: 'Open Sans', verdana, arial, sans-serif; font-size: 12px; fill: rgb(42, 63, 95); fill-opacity: 1; white-space: pre;">15k</text></g><g class="ytick"><text text-anchor="end" x="79" y="4.199999999999999" transform="translate(0,118.32)" style="font-family: 'Open Sans', verdana, arial, sans-serif; font-size: 12px; fill: rgb(42, 63, 95); fill-opacity: 1; white-space: pre;">20k</text></g></g><g class="overaxes-above"/></g></g><g class="polarlayer"/><g class="ternarylayer"/><g class="geolayer"/><g class="funnelarealayer"/><g class="pielayer"/><g class="treemaplayer"/><g class="sunburstlayer"/><g class="glimages"/><defs id="topdefs-429466"><g class="clips"/></defs><g class="layer-above"><g class="imagelayer"/><g class="shapelayer"/></g><g class="infolayer"><g class="g-gtitle"><text class="gtitle" x="35" y="50" text-anchor="start" dy="0em" style="font-family: 'Open Sans', verdana, arial, sans-serif; font-size: 17px; fill: rgb(42, 63, 95); opacity: 1; font-weight: normal; white-space: pre;">GP41 curve: index_group</text></g><g class="g-xtitle"><text class="xtitle" x="350" y="460.8" text-anchor="middle" style="font-family: 'Open Sans', verdana, arial, sans-serif; font-size: 14px; fill: rgb(42, 63, 95); opacity: 1; font-weight: normal; white-space: pre;">Domain</text></g><g class="g-ytitle"><text class="ytitle" transform="rotate(-90,34.840625,260)" x="34.840625" y="260" text-anchor="middle" style="font-family: 'Open Sans', verdana, arial, sans-serif; font-size: 14px; fill: rgb(42, 63, 95); opacity: 1; font-weight: normal; white-space: pre;">Frequency</text></g></g></svg>