<svg class="main-svg" xmlns="http://www.w3.org/2000/svg" xmlns:xlink="http://www.w3.org/1999/xlink" width="700" height="500" style="" viewBox="0 0 700 500"><rect x="0" y="0" width="700" height="500" style="fill: rgb(255, 255, 255); fill-opacity: 1;"/><defs id="defs-61e595"><g class="clips"><clipPath id="clip61e595xyplot" class="plotclip"><rect width="497" height="320"/></clipPath><clipPath class="axesclip" id="clip61e595x"><rect x="80" y="0" width="497" height="500"/></clipPath><clipPath class="axesclip" id="clip61e595y"><rect x="0" y="100" width="700" height="320"/></clipPath><clipPath class="axesclip" id="clip61e595xy"><rect x="80" y="100" width="497" height="320"/></clipPath></g><g class="gradients"/></defs><g class="bglayer"><rect class="bg" x="80" y="100" width="497" height="320" style="fill: rgb(229, 236, 246); fill-opacity: 1; stroke-width: 0;"/></g><g class="layer-below"><g class="imagelayer"/><g class="shapelayer"/></g><g class="cartesianlayer"><g class="subplot xy"><g class="layer-subplot"><g class="shapelayer"/><g class="imagelayer"/></g><g class="gridlayer"><g class="x"><path class="xgrid crisp" transform="translate(157.66,0)" d="M0,100v320" style="stroke: rgb(255, 255, 255); stroke-opacity: 1; stroke-width: 1px;"/><path class="xgrid crisp" transform="translate(235.31,0)" d="M0,100v320" style="stroke: rgb(255, 255, 255); stroke-opacity: 1; stroke-width: 1px;"/><path class="xgrid crisp" transform="translate(312.97,0)" d="M0,100v320" style="stroke: rgb(255, 255, 255); stroke-opacity: 1; stroke-width: 1px;"/><path class="xgrid crisp" transform="translate(390.63,0)" d="M0,100v320" style="stroke: rgb(255, 255, 255); stroke-opacity: 1; stroke-width: 1px;"/><path class="xgrid crisp" transform="translate(468.28,0)" d="M0,100v320" style="stroke: rgb(255, 255, 255); stroke-opacity: 1; stroke-width: 1px;"/><path class="xgrid crisp" transform="translate(545.94,0)" d="M0,100v320" style="stroke: rgb(255, 255, 255); stroke-opacity: 1; stroke-width: 1px;"/></g><g class="y"><path class="ygrid crisp" transform="translate(0,367.62)" d="M80,0h497" style="stroke: rgb(255, 255, 255); stroke-opacity: 1; stroke-width: 1px;"/><path class="ygrid crisp" transform="translate(0,320.37)" d="M80,0h497" style="stroke: rgb(255, 255, 255); stroke-opacity: 1; stroke-width: 1px;"/><path class="ygrid crisp" transform="translate(0,273.11)" d="M80,0h497" style="stroke: rgb(255, 255, 255); stroke-opacity: 1; stroke-width: 1px;"/><path class="ygrid crisp" transform="translate(0,225.85)" d="M80,0h497" style="stroke: rgb(255, 255, 255); stroke-opacity: 1; stroke-width: 1px;"/><path class="ygrid crisp" transform="translate(0,178.59)" d="M80,0h497" style="stroke: rgb(255, 255, 255); stroke-opacity: 1; stroke-width: 1px;"/><path class="ygrid crisp" transform="translate(0,131.34)" d="M80,0h497" style="stroke: rgb(255, 255, 255); stroke-opacity: 1; stroke-width: 1px;"/></g></g><g class="zerolinelayer"><path class="xzl zl crisp" transform="translate(80,0)" d="M0,100v320" style="stroke: rgb(255, 255, 255); stroke-opacity: 1; stroke-width: 2px;"/><path class="yzl zl crisp" transform="translate(0,414.88)" d="M80,0h497" style="stroke: rgb(255, 255, 255); stroke-opacity: 1; stroke-width: 2px;"/></g><path class="xlines-below"/><path class="ylines-below"/><g class="overlines-below"/><g class="xaxislayer-below"/><g class="yaxislayer-below"/><g class="overaxes-below"/><g class="plot" transform="translate(80, 100)" clip-path="url('#clip61e595xyplot')"><g class="scatterlayer mlayer"><g class="trace scatter trace23ae79" style="stroke-miterlimit: 2; opacity: 1;"><g class="fills"/><g class="errorbars"/><g class="lines"><path class="js-line" d="M0,54.44Q11.44,72.04 16.03,85.22C23.21,105.82 26.51,168.33 32.06,168.41C37.23,168.49 42.33,96.87 48.1,96.66C53.12,96.48 59.3,129.69 64.13,149.95C70.33,175.97 71.59,238.07 80.16,240.36C84.63,241.56 91.69,220.14 96.19,221.27C104.17,223.27 106.94,297.92 112.23,297.9C117.64,297.87 121.37,218.44 128.26,217.57C132.9,216.99 138.43,250.46 144.29,251.04C149.26,251.53 155.7,228.78 160.32,229.67C167.34,231.02 171.35,289.41 176.35,289.24C182.15,289.04 183.2,221.8 192.39,207.89C196.83,201.16 203.57,195.92 208.42,196.97C214.54,198.3 219.35,213.83 224.45,223.36C230.1,233.92 235.41,245.38 240.48,257.73C246.17,271.57 251.95,303.1 256.52,302.61C263.85,301.83 267.56,224.95 272.55,181.36C278.37,130.55 282.95,16.06 288.58,16C293.69,15.95 296.07,150.45 304.61,151.85C309.08,152.58 316.16,117.22 320.65,117.93C328.91,119.24 330.99,244.14 336.68,244.24C341.75,244.32 346.9,144.87 352.71,144.71C357.71,144.57 362.6,217.18 368.74,217.6C373.59,217.93 379.89,173.68 384.77,173.99C390.84,174.38 394.9,243.96 400.81,244.25C405.76,244.49 412.03,196.02 416.84,196.34C423.1,196.76 423.84,277.18 432.87,280.44C437.32,282.05 444.02,272.99 448.9,267.23C454.96,260.07 458.38,242.2 464.94,239.45C469.66,237.47 475.97,244.92 480.97,243.6Q486.78,242.07 497,228.07" style="vector-effect: non-scaling-stroke; fill: none; stroke: rgb(0, 100, 80); stroke-opacity: 1; stroke-width: 2px; opacity: 1;"/></g><g class="points"/><g class="text"/></g><g class="trace scatter tracee75948" style="stroke-miterlimit: 2; opacity: 1;"><g class="fills"/><g class="errorbars"/><g class="lines"><path class="js-line" d="M0,114.92Q10.67,53.95 16.03,53.94C21.35,53.93 23.54,109.54 32.06,113.96C36.53,116.28 43.55,105.93 48.1,108.04C55.62,111.52 59.54,133.59 64.13,151.87C71.29,180.36 74.25,263.93 80.16,264.11C85.11,264.26 91.01,186.26 96.19,186.33C101.72,186.4 105.46,274.73 112.23,275.42C116.9,275.9 121.72,236.93 128.26,235.54C132.98,234.54 139.48,251.99 144.29,251.12C150.53,249.99 155.54,216.66 160.32,217.13C166.66,217.75 171.09,281.42 176.35,281.38C181.79,281.34 183.27,217.61 192.39,212.41C196.84,209.88 203.83,219.59 208.42,217.48C215.59,214.18 219.85,179.16 224.45,179.71C231.6,180.57 231.36,274.83 240.48,277.57C244.93,278.91 252.08,269.51 256.52,260.25C266.08,240.3 267.21,188.04 272.55,151.87C277.9,115.61 281.82,43.5 288.58,42.95C293.25,42.57 298.08,92.01 304.61,93.03C309.34,93.77 316.19,69.54 320.65,70.61C329.41,72.71 331.28,175.74 336.68,175.76C341.97,175.78 347.72,74.75 352.71,74.86C358.54,74.98 357.05,193.27 368.74,213.7C373.17,221.44 380.32,218.74 384.77,225.79C393.65,239.85 395.69,304.09 400.81,304C406.42,303.9 410.75,209.99 416.84,209.7C421.71,209.46 426.73,268.25 432.87,268.77C437.72,269.18 441.97,237.05 448.9,234.15C453.54,232.21 459.51,239 464.94,239.92C470.21,240.81 476.11,242.09 480.97,239.77Q487.07,236.85 497,220.28" style="vector-effect: non-scaling-stroke; fill: none; stroke: rgb(0, 176, 246); stroke-opacity: 1; stroke-width: 2px; opacity: 1;"/></g><g class="points"/><g class="text"/></g><g class="trace scatter trace86756a" style="stroke-miterlimit: 2; opacity: 1;"><g class="fills"/><g class="errorbars"/><g class="lines"><path class="js-line" d="M0,118.47Q9.2,67.92 16.03,66.57C20.68,65.65 27.46,77.11 32.06,85.97C39.2,99.73 42.63,125.56 48.1,144.57C53.33,162.72 58.83,179.72 64.13,197.57C69.52,215.73 74.5,252.43 80.16,252.63C85.25,252.81 89.52,210.71 96.19,209.27C100.88,208.26 107.73,217.25 112.23,225.52C120.35,240.47 123.13,298.46 128.26,298.37C133.86,298.27 133.9,218.35 144.29,210.75C148.72,207.51 155.77,209.25 160.32,212.8C167.83,218.66 171,253.77 176.35,253.78C181.69,253.79 186.69,213.44 192.39,213.14C197.46,212.87 203,243.65 208.42,243.73C213.69,243.81 219.7,214.63 224.45,215.21C230.9,216 235.66,273.7 240.48,273.44C246.71,273.1 245.94,179.34 256.52,173.73C260.95,171.38 268.08,183.32 272.55,181.21C281.09,177.17 282.28,119.16 288.58,118.55C293.37,118.09 298.56,143.1 304.61,152.31C309.5,159.75 316.13,171.79 320.65,170.64C328.47,168.66 330.71,99.89 336.68,99.57C341.6,99.3 345.78,135.6 352.71,146.43C357.34,153.68 364.3,153.32 368.74,161.75C378.17,179.66 376.19,240.04 384.77,260.53C389.24,271.2 395.99,283.07 400.81,282.41C407.04,281.56 409.83,249.06 416.84,239.96C421.46,233.96 428.34,226.99 432.87,228.54C440.5,231.16 442.42,281.07 448.9,281.97C453.64,282.63 459.92,256.38 464.94,256.76C470.72,257.2 474.29,291.27 480.97,293.13Q485.66,294.44 497,281.9" style="vector-effect: non-scaling-stroke; fill: none; stroke: rgb(231, 107, 243); stroke-opacity: 1; stroke-width: 2px; opacity: 1;"/></g><g class="points"/><g class="text"/></g></g></g><g class="overplot"/><path class="xlines-above crisp" d="M0,0" style="fill: none;"/><path class="ylines-above crisp" d="M0,0" style="fill: none;"/><g class="overlines-above"/><g class="xaxislayer-above"><g class="xtick"><text text-anchor="middle" x="0" y="433" transform="translate(80,0)" style="font-family: 'Open Sans', verdana, arial, sans-serif; font-size: 12px; fill: rgb(42, 63, 95); fill-opacity: 1; white-space: pre;">0</text></g><g class="xtick"><text text-anchor="middle" x="0" y="433" transform="translate(157.66,0)" style="font-family: 'Open Sans', verdana, arial, sans-serif; font-size: 12px; fill: rgb(42, 63, 95); fill-opacity: 1; white-space: pre;">5</text></g><g class="xtick"><text text-anchor="middle" x="0" y="433" transform="translate(235.31,0)" style="font-family: 'Open Sans', verdana, arial, sans-serif; font-size: 12px; fill: rgb(42, 63, 95); fill-opacity: 1; white-space: pre;">10</text></g><g class="xtick"><text text-anchor="middle" x="0" y="433" transform="translate(312.97,0)" style="font-family: 'Open Sans', verdana, arial, sans-serif; font-size: 12px; fill: rgb(42, 63, 95); fill-opacity: 1; white-space: pre;">15</text></g><g class="xtick"><text text-anchor="middle" x="0" y="433" transform="translate(390.63,0)" style="font-family: 'Open Sans', verdana, arial, sans-serif; font-size: 12px; fill: rgb(42, 63, 95); fill-opacity: 1; white-space: pre;">20</text></g><g class="xtick"><text text-anchor="middle" x="0" y="433" transform="translate(468.28,0)" style="font-family: 'Open Sans', verdana, arial, sans-serif; font-size: 12px; fill: rgb(42, 63, 95); fill-opacity: 1; white-space: pre;">25</text></g><g class="xtick"><text text-anchor="middle" x="0" y="433" transform="translate(545.94,0)" style="font-family: 'Open Sans', verdana, arial, sans-serif; font-size: 12px; fill: rgb(42, 63, 95); fill-opacity: 1; white-space: pre;">30</text></g></g><g class="yaxislayer-above"><g class="ytick"><text text-anchor="end" x="79" y="4.199999999999999" transform="translate(0,414.88)" style="font-family: 'Open Sans', verdana, arial, sans-serif; font-size: 12px; fill: rgb(42, 63, 95); fill-opacity: 1; white-space: pre;">0</text></g><g class="ytick"><text text-anchor="end" x="79" y="4.199999999999999" transform="translate(0,367.62)" style="font-family: 'Open Sans', verdana, arial, sans-serif; font-size: 12px; fill: rgb(42, 63, 95); fill-opacity: 1; white-space: pre;">500</text></g><g class="ytick"><text text-anchor="end" x="79" y="4.199999999999999" transform="translate(0,320.37)" style="font-family: 'Open Sans', verdana, arial, sans-serif; font-size: 12px; fill: rgb(42, 63, 95); fill-opacity: 1; white-space: pre;">1000</text></g><g class="ytick"><text text-anchor="end" x="79" y="4.199999999999999" transform="translate(0,273.11)" style="font-family: 'Open Sans', verdana, arial, sans-serif; font-size: 12px; fill: rgb(42, 63, 95); fill-opacity: 1; white-space: pre;">1500</text></g><g class="ytick"><text text-anchor="end" x="79" y="4.199999999999999" transform="translate(0,225.85)" style="font-family: 'Open Sans', verdana, arial, sans-serif; font-size: 12px; fill: rgb(42, 63, 95); fill-opacity: 1; white-space: pre;">2000</text></g><g class="ytick"><text text-anchor="end" x="79" y="4.199999999999999" transform="translate(0,178.59)" style="font-family: 'Open Sans', verdana, arial, sans-serif; font-size: 12px; fill: rgb(42, 63, 95); fill-opacity: 1; white-space: pre;">2500</text></g><g class="ytick"><text text-anchor="end" x="79" y="4.199999999999999" transform="translate(0,131.34)" style="font-family: 'Open Sans', verdana, arial, sans-serif; font-size: 12px; fill: rgb(42, 63, 95); fill-opacity: 1; white-space: pre;">3000</text></g></g><g class="overaxes-above"/></g></g><g class="polarlayer"/><g class="ternarylayer"/><g class="geolayer"/><g class="funnelarealayer"/><g class="pielayer"/><g class="treemaplayer"/><g class="sunburstlayer"/><g class="glimages"/><defs id="topdefs-61e595"><g class="clips"/><clipPath id="legend61e595"><rect width="101" height="67" x="0" y="0"/></clipPath></defs><g class="layer-above"><g class="imagelayer"/><g class="shapelayer"/></g><g class="infolayer"><g class="legend" pointer-events="all" transform="translate(586.94, 100)"><rect class="bg" shape-rendering="crispEdges" width="101" height="67" x="0" y="0" style="stroke: rgb(68, 68, 68); stroke-opacity: 1; fill: rgb(255, 255, 255); fill-opacity: 1; stroke-width: 0px;"/><g class="scrollbox" transform="translate(0, 0)" clip-path="url('#legend61e595')"><g class="groups"><g class="traces" transform="translate(0, 14.5)" style="opacity: 1;"><text class="legendtext" text-anchor="start" x="40" y="4.680000000000001" style="font-family: 'Open Sans', verdana, arial, sans-serif; font-size: 12px; fill: rgb(42, 63, 95); fill-opacity: 1; white-space: pre;">PBD-CHR</text><g class="layers" style="opacity: 1;"><g class="legendfill"/><g class="legendlines"><path class="js-line" d="M5,0h30" style="fill: none; stroke: rgb(0, 100, 80); stroke-opacity: 1; stroke-width: 2px;"/></g><g class="legendsymbols"><g class="legendpoints"/></g></g><rect class="legendtoggle" x="0" y="-9.5" width="95.015625" height="19" style="fill: rgb(0, 0, 0); fill-opacity: 0;"/></g><g class="traces" transform="translate(0, 33.5)" style="opacity: 1;"><text class="legendtext" text-anchor="start" x="40" y="4.680000000000001" style="font-family: 'Open Sans', verdana, arial, sans-serif; font-size: 12px; fill: rgb(42, 63, 95); fill-opacity: 1; white-space: pre;">CHR-full</text><g class="layers" style="opacity: 1;"><g class="legendfill"/><g class="legendlines"><path class="js-line" d="M5,0h30" style="fill: none; stroke: rgb(0, 176, 246); stroke-opacity: 1; stroke-width: 2px;"/></g><g class="legendsymbols"><g class="legendpoints"/></g></g><rect class="legendtoggle" x="0" y="-9.5" width="95.015625" height="19" style="fill: rgb(0, 0, 0); fill-opacity: 0;"/></g><g class="traces" transform="translate(0, 52.5)" style="opacity: 1;"><text class="legendtext" text-anchor="start" x="40" y="4.680000000000001" style="font-family: 'Open Sans', verdana, arial, sans-serif; font-size: 12px; fill: rgb(42, 63, 95); fill-opacity: 1; white-space: pre;">CHR-LPB</text><g class="layers" style="opacity: 1;"><g class="legendfill"/><g class="legendlines"><path class="js-line" d="M5,0h30" style="fill: none; stroke: rgb(231, 107, 243); stroke-opacity: 1; stroke-width: 2px;"/></g><g class="legendsymbols"><g class="legendpoints"/></g></g><rect class="legendtoggle" x="0" y="-9.5" width="95.015625" height="19" style="fill: rgb(0, 0, 0); fill-opacity: 0;"/></g></g></g><rect class="scrollbar" rx="20" ry="3" width="0" height="0" x="0" y="0" style="fill: rgb(128, 139, 164); fill-opacity: 1;"/></g><g class="g-gtitle"><text class="gtitle" x="35" y="50" text-anchor="start" dy="0em" style="font-family: 'Open Sans', verdana, arial, sans-serif; font-size: 17px; fill: rgb(42, 63, 95); opacity: 1; font-weight: normal; white-space: pre;">Comparison domains curves for : hydropathy_group</text></g><g class="g-xtitle"><text class="xtitle" x="328.5" y="460.8" text-anchor="middle" style="font-family: 'Open Sans', verdana, arial, sans-serif; font-size: 14px; fill: rgb(42, 63, 95); opacity: 1; font-weight: normal; white-space: pre;">Domain</text></g><g class="g-ytitle"><text class="ytitle" transform="rotate(-90,27.496875000000003,260)" x="27.496875000000003" y="260" text-anchor="middle" style="font-family: 'Open Sans', verdana, arial, sans-serif; font-size: 14px; fill: rgb(42, 63, 95); opacity: 1; font-weight: normal; white-space: pre;">Frequency</text></g></g></svg>