<svg class="main-svg" xmlns="http://www.w3.org/2000/svg" xmlns:xlink="http://www.w3.org/1999/xlink" width="700" height="500" style="" viewBox="0 0 700 500"><rect x="0" y="0" width="700" height="500" style="fill: rgb(255, 255, 255); fill-opacity: 1;"/><defs id="defs-58a32d"><g class="clips"><clipPath id="clip58a32dxyplot" class="plotclip"><rect width="462" height="320"/></clipPath><clipPath class="axesclip" id="clip58a32dx"><rect x="80" y="0" width="462" height="500"/></clipPath><clipPath class="axesclip" id="clip58a32dy"><rect x="0" y="100" width="700" height="320"/></clipPath><clipPath class="axesclip" id="clip58a32dxy"><rect x="80" y="100" width="462" height="320"/></clipPath></g><g class="gradients"/></defs><g class="bglayer"><rect class="bg" x="80" y="100" width="462" height="320" style="fill: rgb(229, 236, 246); fill-opacity: 1; stroke-width: 0;"/></g><g class="layer-below"><g class="imagelayer"/><g class="shapelayer"/></g><g class="cartesianlayer"><g class="subplot xy"><g class="layer-subplot"><g class="shapelayer"/><g class="imagelayer"/></g><g class="gridlayer"><g class="x"><path class="xgrid crisp" transform="translate(170.23000000000002,0)" d="M0,100v320" style="stroke: rgb(255, 255, 255); stroke-opacity: 1; stroke-width: 1px;"/><path class="xgrid crisp" transform="translate(260.47,0)" d="M0,100v320" style="stroke: rgb(255, 255, 255); stroke-opacity: 1; stroke-width: 1px;"/><path class="xgrid crisp" transform="translate(350.7,0)" d="M0,100v320" style="stroke: rgb(255, 255, 255); stroke-opacity: 1; stroke-width: 1px;"/><path class="xgrid crisp" transform="translate(440.94,0)" d="M0,100v320" style="stroke: rgb(255, 255, 255); stroke-opacity: 1; stroke-width: 1px;"/><path class="xgrid crisp" transform="translate(531.1700000000001,0)" d="M0,100v320" style="stroke: rgb(255, 255, 255); stroke-opacity: 1; stroke-width: 1px;"/></g><g class="y"><path class="ygrid crisp" transform="translate(0,390.35)" d="M80,0h462" style="stroke: rgb(255, 255, 255); stroke-opacity: 1; stroke-width: 1px;"/><path class="ygrid crisp" transform="translate(0,335.03)" d="M80,0h462" style="stroke: rgb(255, 255, 255); stroke-opacity: 1; stroke-width: 1px;"/><path class="ygrid crisp" transform="translate(0,279.71000000000004)" d="M80,0h462" style="stroke: rgb(255, 255, 255); stroke-opacity: 1; stroke-width: 1px;"/><path class="ygrid crisp" transform="translate(0,224.39)" d="M80,0h462" style="stroke: rgb(255, 255, 255); stroke-opacity: 1; stroke-width: 1px;"/><path class="ygrid crisp" transform="translate(0,169.07)" d="M80,0h462" style="stroke: rgb(255, 255, 255); stroke-opacity: 1; stroke-width: 1px;"/><path class="ygrid crisp" transform="translate(0,113.75)" d="M80,0h462" style="stroke: rgb(255, 255, 255); stroke-opacity: 1; stroke-width: 1px;"/></g></g><g class="zerolinelayer"><path class="xzl zl crisp" transform="translate(80,0)" d="M0,100v320" style="stroke: rgb(255, 255, 255); stroke-opacity: 1; stroke-width: 2px;"/></g><path class="xlines-below"/><path class="ylines-below"/><g class="overlines-below"/><g class="xaxislayer-below"/><g class="yaxislayer-below"/><g class="overaxes-below"/><g class="plot" transform="translate(80, 100)" clip-path="url('#clip58a32dxyplot')"><g class="scatterlayer mlayer"><g class="trace scatter tracedda5e7" style="stroke-miterlimit: 2; opacity: 1;"><g class="fills"/><g class="errorbars"/><g class="lines"><path class="js-line" d="M0,236.5Q0.61,236.34 0.9,236.19C1.22,236.03 1.52,235.78 1.81,235.53C2.12,235.26 2.42,234.94 2.71,234.61C3.02,234.26 3.32,233.88 3.62,233.49C3.93,233.09 4.22,232.67 4.52,232.24C4.82,231.81 5.12,231.36 5.42,230.91C5.72,230.46 6.03,230 6.33,229.54C6.63,229.08 6.93,228.62 7.23,228.17C7.53,227.72 7.84,227.26 8.14,226.82C8.44,226.38 8.74,225.95 9.04,225.52C9.34,225.1 9.65,224.68 9.95,224.27C10.25,223.87 10.55,223.48 10.85,223.09C11.15,222.71 11.45,222.34 11.75,221.98C12.05,221.62 12.36,221.27 12.66,220.92C12.96,220.58 13.26,220.24 13.56,219.9C13.86,219.57 14.17,219.24 14.47,218.91C14.77,218.58 15.07,218.26 15.37,217.93C15.67,217.6 15.97,217.27 16.27,216.94C16.57,216.6 16.88,216.26 17.18,215.91C17.48,215.55 17.78,215.19 18.08,214.82C18.38,214.44 18.69,214.06 18.99,213.66C19.3,213.25 19.59,212.83 19.89,212.39C20.19,211.94 20.49,211.49 20.79,211.01C21.1,210.52 21.4,210.01 21.7,209.48C22.01,208.93 22.3,208.37 22.6,207.79C22.91,207.18 23.21,206.56 23.51,205.91C23.82,205.24 24.12,204.54 24.41,203.83C24.72,203.08 25.02,202.31 25.32,201.51C25.63,200.68 25.93,199.83 26.22,198.95C26.53,198.03 26.82,197.09 27.12,196.12C27.43,195.11 27.73,194.07 28.03,193.01C28.34,191.91 28.63,190.77 28.93,189.62C29.24,188.42 29.54,187.2 29.84,185.96C30.15,184.68 30.44,183.37 30.74,182.04C31.04,180.67 31.34,179.28 31.64,177.88C31.95,176.44 32.25,174.98 32.55,173.51C32.85,172.01 33.15,170.49 33.45,168.97C33.75,167.43 34.06,165.87 34.36,164.31C34.66,162.74 34.96,161.16 35.26,159.58C35.56,158 35.86,156.42 36.16,154.84C36.46,153.27 36.77,151.7 37.07,150.15C37.37,148.61 37.67,147.07 37.97,145.56C38.27,144.07 38.57,142.59 38.88,141.14C39.18,139.72 39.47,138.32 39.78,136.95C40.08,135.63 40.37,134.32 40.68,133.05C40.98,131.83 41.28,130.63 41.59,129.48C41.88,128.39 42.18,127.32 42.49,126.31C42.78,125.36 43.08,124.44 43.4,123.57C43.69,122.78 43.98,122.01 44.3,121.31C44.59,120.69 44.88,120.09 45.21,119.58C45.49,119.14 45.78,118.7 46.11,118.4C46.39,118.14 46.69,117.91 47.01,117.82C47.3,117.74 47.63,117.74 47.92,117.84C48.24,117.95 48.54,118.21 48.82,118.5C49.15,118.84 49.45,119.31 49.73,119.8C50.06,120.37 50.35,121.05 50.63,121.76C50.95,122.56 51.24,123.45 51.53,124.37C51.85,125.4 52.15,126.5 52.44,127.65C52.76,128.9 53.05,130.21 53.34,131.57C53.65,133.03 53.96,134.55 54.25,136.12C54.56,137.78 54.86,139.51 55.15,141.28C55.46,143.14 55.75,145.06 56.05,147.02C56.36,149.07 56.66,151.17 56.96,153.31C57.27,155.53 57.56,157.79 57.86,160.09C58.17,162.46 58.47,164.87 58.77,167.31C59.08,169.81 59.37,172.34 59.67,174.89C59.97,177.49 60.28,180.12 60.58,182.76C60.88,185.43 61.18,188.12 61.48,190.81C61.78,193.51 62.08,196.23 62.38,198.93C62.68,201.63 62.99,204.34 63.29,207.02C63.59,209.68 63.89,212.34 64.19,214.97C64.49,217.57 64.8,220.16 65.1,222.71C65.4,225.21 65.69,227.71 66,230.14C66.29,232.49 66.59,234.81 66.9,237.06C67.2,239.21 67.5,241.3 67.81,243.35C68.11,245.31 68.4,247.24 68.71,249.11C69,250.88 69.31,252.61 69.62,254.27C69.91,255.83 70.21,257.34 70.52,258.79C70.81,260.14 71.1,261.45 71.42,262.67C71.71,263.78 72,264.87 72.33,265.83C72.61,266.65 72.88,267.47 73.23,268.08C73.5,268.55 73.79,269.1 74.14,269.24C74.41,269.35 74.77,269.3 75.04,269.13C75.41,268.89 75.68,268.24 75.95,267.66C76.3,266.91 76.56,265.91 76.85,264.96C77.16,263.93 77.45,262.8 77.75,261.7C78.05,260.58 78.36,259.42 78.66,258.29C78.96,257.18 79.25,256.05 79.56,254.97C79.86,253.92 80.16,252.88 80.47,251.89C80.76,250.95 81.06,250.03 81.37,249.16C81.66,248.35 81.95,247.55 82.27,246.82C82.56,246.15 82.86,245.5 83.18,244.92C83.47,244.4 83.76,243.9 84.08,243.47C84.37,243.09 84.68,242.76 84.99,242.45C85.28,242.16 85.57,241.85 85.89,241.64C86.18,241.45 86.48,241.28 86.79,241.2C87.08,241.13 87.4,241.13 87.7,241.18C88.01,241.23 88.31,241.36 88.6,241.52C88.92,241.69 89.22,241.95 89.51,242.21C89.82,242.49 90.12,242.83 90.41,243.18C90.72,243.55 91.02,243.99 91.32,244.39C91.62,244.79 91.91,245.21 92.22,245.57C92.51,245.91 92.8,246.24 93.12,246.5C93.41,246.73 93.71,246.98 94.03,247.07C94.32,247.15 94.64,247.15 94.93,247.05C95.25,246.94 95.56,246.64 95.84,246.35C96.17,246.01 96.46,245.56 96.74,245.09C97.06,244.56 97.34,243.92 97.64,243.31C97.95,242.67 98.26,242.02 98.55,241.33C98.86,240.59 99.15,239.79 99.45,239.01C99.75,238.21 100.06,237.4 100.36,236.6C100.66,235.81 100.96,235.02 101.26,234.23C101.56,233.45 101.86,232.69 102.16,231.9C102.46,231.1 102.77,230.3 103.07,229.47C103.38,228.61 103.67,227.71 103.97,226.84C104.27,225.98 104.58,225.14 104.88,224.29C105.18,223.44 105.47,222.56 105.78,221.75C106.07,220.99 106.36,220.25 106.68,219.57C106.97,218.96 107.27,218.37 107.59,217.86C107.87,217.41 108.16,216.97 108.49,216.65C108.77,216.37 109.08,216.11 109.4,215.99C109.69,215.88 110.01,215.84 110.3,215.9C110.61,215.96 110.93,216.15 111.21,216.38C111.54,216.64 111.83,217.03 112.11,217.44C112.43,217.91 112.72,218.47 113.01,219.06C113.33,219.72 113.63,220.47 113.92,221.24C114.24,222.09 114.53,223.01 114.82,223.95C115.13,224.97 115.44,226.04 115.73,227.14C116.04,228.31 116.34,229.52 116.63,230.76C116.94,232.05 117.23,233.39 117.53,234.74C117.84,236.13 118.14,237.55 118.44,238.98C118.74,240.43 119.04,241.9 119.34,243.36C119.64,244.81 119.95,246.28 120.25,247.71C120.55,249.12 120.84,250.52 121.15,251.88C121.44,253.19 121.74,254.49 122.05,255.73C122.34,256.9 122.64,258.05 122.96,259.12C123.25,260.1 123.53,261.06 123.86,261.91C124.14,262.65 124.42,263.4 124.77,263.95C125.04,264.39 125.33,264.84 125.67,265.02C125.95,265.16 126.29,265.19 126.58,265.1C126.9,265 127.21,264.7 127.48,264.38C127.82,263.99 128.1,263.42 128.38,262.85C128.71,262.17 129,261.36 129.29,260.55C129.61,259.66 129.9,258.7 130.19,257.72C130.5,256.67 130.81,255.59 131.1,254.46C131.41,253.25 131.71,251.99 132,250.69C132.31,249.29 132.6,247.82 132.9,246.34C133.21,244.79 133.51,243.2 133.81,241.6C134.12,239.97 134.41,238.29 134.71,236.64C135.01,234.99 135.31,233.32 135.62,231.69C135.92,230.09 136.22,228.51 136.52,226.96C136.82,225.46 137.11,223.98 137.42,222.53C137.72,221.14 138.02,219.77 138.33,218.44C138.63,217.17 138.92,215.91 139.23,214.71C139.52,213.57 139.83,212.46 140.14,211.41C140.43,210.44 140.72,209.49 141.04,208.62C141.33,207.83 141.63,207.07 141.95,206.4C142.23,205.81 142.52,205.23 142.85,204.77C143.13,204.37 143.42,203.99 143.75,203.75C144.03,203.54 144.35,203.36 144.66,203.33C144.96,203.3 145.28,203.39 145.56,203.53C145.88,203.69 146.19,204 146.47,204.32C146.8,204.69 147.09,205.17 147.37,205.67C147.69,206.24 147.98,206.88 148.27,207.56C148.59,208.31 148.89,209.14 149.18,210C149.5,210.93 149.79,211.93 150.08,212.95C150.39,214.05 150.7,215.21 150.99,216.39C151.3,217.64 151.6,218.94 151.89,220.27C152.2,221.66 152.49,223.08 152.79,224.53C153.1,226.03 153.4,227.56 153.7,229.1C154.01,230.68 154.3,232.29 154.6,233.9C154.9,235.53 155.21,237.19 155.51,238.83C155.81,240.48 156.11,242.13 156.41,243.77C156.71,245.39 157.01,247.02 157.32,248.61C157.62,250.16 157.91,251.71 158.22,253.19C158.51,254.6 158.8,256.02 159.12,257.31C159.41,258.48 159.71,259.6 160.03,260.62C160.31,261.51 160.6,262.36 160.93,263.1C161.21,263.74 161.5,264.36 161.84,264.83C162.12,265.21 162.41,265.58 162.74,265.76C163.02,265.91 163.35,265.97 163.64,265.92C163.95,265.87 164.27,265.66 164.55,265.44C164.87,265.19 165.16,264.83 165.45,264.46C165.77,264.05 166.07,263.58 166.36,263.1C166.67,262.59 166.97,262.02 167.26,261.46C167.57,260.87 167.86,260.26 168.16,259.64C168.47,259 168.77,258.34 169.07,257.67C169.38,256.98 169.67,256.28 169.97,255.57C170.27,254.85 170.58,254.11 170.88,253.38C171.18,252.66 171.48,251.93 171.78,251.21C172.08,250.5 172.38,249.81 172.68,249.11C172.98,248.4 173.29,247.69 173.59,246.97C173.89,246.25 174.19,245.52 174.49,244.8C174.79,244.09 175.1,243.39 175.4,242.69C175.7,242 175.99,241.32 176.3,240.65C176.6,240 176.9,239.36 177.21,238.74C177.51,238.14 177.8,237.56 178.11,237C178.4,236.47 178.7,235.95 179.01,235.47C179.3,235.01 179.61,234.57 179.92,234.16C180.21,233.78 180.51,233.41 180.82,233.08C181.11,232.77 181.42,232.47 181.73,232.22C182.02,231.98 182.32,231.76 182.63,231.59C182.92,231.43 183.22,231.29 183.53,231.2C183.83,231.11 184.14,231.06 184.44,231.05C184.74,231.04 185.04,231.08 185.34,231.15C185.65,231.22 185.96,231.35 186.25,231.5C186.56,231.66 186.86,231.88 187.15,232.11C187.46,232.36 187.76,232.65 188.05,232.96C188.36,233.29 188.67,233.66 188.96,234.05C189.27,234.46 189.57,234.91 189.86,235.37C190.17,235.86 190.47,236.37 190.77,236.9C191.08,237.45 191.37,238.02 191.67,238.61C191.98,239.22 192.28,239.85 192.58,240.49C192.88,241.14 193.18,241.8 193.48,242.47C193.78,243.15 194.08,243.84 194.38,244.53C194.68,245.22 194.99,245.92 195.29,246.61C195.59,247.29 195.89,247.98 196.19,248.65C196.49,249.31 196.79,249.96 197.1,250.6C197.4,251.22 197.7,251.83 198,252.43C198.3,253.01 198.59,253.58 198.9,254.12C199.2,254.64 199.5,255.15 199.81,255.64C200.11,256.12 200.41,256.58 200.71,257.04C201.01,257.49 201.32,257.93 201.62,258.37C201.92,258.81 202.22,259.23 202.52,259.67C202.82,260.11 203.12,260.55 203.42,261C203.72,261.45 204.03,261.91 204.33,262.37C204.63,262.84 204.93,263.32 205.23,263.8C205.53,264.27 205.83,264.76 206.14,265.22C206.44,265.67 206.73,266.13 207.04,266.53C207.33,266.91 207.63,267.29 207.95,267.57C208.24,267.82 208.54,268.05 208.85,268.18C209.14,268.3 209.45,268.36 209.75,268.34C210.05,268.32 210.37,268.22 210.66,268.06C210.98,267.89 211.28,267.62 211.56,267.31C211.89,266.95 212.19,266.5 212.47,266C212.8,265.42 213.09,264.73 213.37,264.01C213.69,263.2 213.98,262.31 214.27,261.37C214.59,260.3 214.89,259.14 215.18,257.93C215.5,256.59 215.79,255.15 216.08,253.69C216.39,252.15 216.69,250.55 216.99,248.93C217.3,247.25 217.59,245.54 217.89,243.8C218.19,242.01 218.49,240.19 218.79,238.35C219.1,236.45 219.4,234.51 219.7,232.56C220,230.57 220.3,228.56 220.6,226.54C220.9,224.51 221.21,222.46 221.51,220.41C221.81,218.35 222.11,216.29 222.41,214.22C222.71,212.15 223.02,210.07 223.32,207.99C223.62,205.92 223.92,203.84 224.22,201.77C224.52,199.7 224.82,197.62 225.12,195.55C225.42,193.48 225.73,191.41 226.03,189.35C226.33,187.29 226.63,185.23 226.93,183.18C227.23,181.13 227.54,179.09 227.84,177.05C228.14,175.01 228.44,172.98 228.74,170.95C229.04,168.92 229.34,166.9 229.64,164.88C229.94,162.87 230.25,160.86 230.55,158.85C230.85,156.85 231.15,154.85 231.45,152.85C231.75,150.86 232.06,148.86 232.36,146.88C232.66,144.91 232.96,142.93 233.26,140.97C233.56,139.01 233.86,137.06 234.16,135.12C234.46,133.19 234.77,131.28 235.07,129.37C235.37,127.47 235.67,125.58 235.97,123.7C236.27,121.83 236.58,119.98 236.88,118.13C237.18,116.3 237.48,114.47 237.78,112.65C238.08,110.84 238.38,109.04 238.68,107.25C238.98,105.47 239.29,103.69 239.59,101.92C239.89,100.16 240.19,98.41 240.49,96.66C240.79,94.92 241.1,93.19 241.4,91.47C241.7,89.76 242,88.06 242.3,86.37C242.6,84.7 242.91,83.05 243.21,81.41C243.51,79.8 243.81,78.19 244.11,76.61C244.41,75.07 244.7,73.54 245.01,72.04C245.31,70.58 245.61,69.14 245.92,67.74C246.22,66.39 246.51,65.06 246.82,63.77C247.12,62.54 247.42,61.33 247.73,60.17C248.02,59.08 248.32,58.01 248.63,57C248.92,56.06 249.21,55.14 249.53,54.28C249.82,53.5 250.12,52.74 250.44,52.06C250.73,51.45 251.01,50.87 251.34,50.37C251.62,49.94 251.92,49.52 252.25,49.23C252.53,48.98 252.84,48.75 253.15,48.67C253.44,48.59 253.76,48.61 254.05,48.71C254.37,48.82 254.68,49.08 254.96,49.36C255.29,49.69 255.58,50.15 255.86,50.63C256.19,51.19 256.48,51.84 256.77,52.52C257.09,53.29 257.38,54.13 257.67,55.01C257.99,55.98 258.29,57.01 258.58,58.08C258.89,59.24 259.19,60.46 259.48,61.71C259.79,63.05 260.09,64.44 260.38,65.87C260.69,67.37 260.99,68.92 261.29,70.5C261.6,72.15 261.89,73.84 262.19,75.56C262.5,77.34 262.8,79.16 263.1,80.99C263.41,82.87 263.7,84.78 264,86.71C264.3,88.68 264.6,90.67 264.9,92.67C265.2,94.69 265.51,96.74 265.81,98.78C266.11,100.84 266.41,102.91 266.71,104.98C267.01,107.05 267.32,109.13 267.62,111.19C267.92,113.24 268.22,115.29 268.52,117.33C268.82,119.35 269.12,121.36 269.42,123.35C269.72,125.31 270.03,127.26 270.33,129.18C270.63,131.06 270.92,132.92 271.23,134.76C271.53,136.55 271.83,138.32 272.14,140.06C272.44,141.74 272.73,143.4 273.04,145.02C273.34,146.58 273.64,148.12 273.95,149.62C274.25,151.06 274.54,152.46 274.85,153.83C275.14,155.13 275.44,156.41 275.75,157.64C276.04,158.81 276.35,159.96 276.66,161.06C276.95,162.1 277.25,163.11 277.56,164.07C277.85,164.97 278.16,165.85 278.47,166.68C278.76,167.46 279.06,168.21 279.37,168.92C279.66,169.58 279.96,170.2 280.27,170.79C280.56,171.33 280.86,171.85 281.18,172.32C281.47,172.75 281.77,173.15 282.08,173.52C282.37,173.86 282.68,174.17 282.99,174.46C283.28,174.74 283.59,174.98 283.89,175.23C284.19,175.48 284.49,175.72 284.79,175.98C285.1,176.25 285.41,176.52 285.7,176.82C286.01,177.14 286.31,177.47 286.6,177.84C286.91,178.24 287.22,178.67 287.51,179.14C287.82,179.64 288.12,180.19 288.41,180.77C288.73,181.4 289.03,182.08 289.32,182.79C289.63,183.56 289.93,184.38 290.22,185.23C290.53,186.15 290.83,187.12 291.12,188.12C291.43,189.19 291.74,190.3 292.03,191.45C292.34,192.66 292.64,193.92 292.93,195.21C293.24,196.56 293.54,197.95 293.84,199.37C294.15,200.84 294.44,202.35 294.74,203.88C295.04,205.45 295.34,207.06 295.64,208.68C295.94,210.33 296.25,212.02 296.55,213.7C296.85,215.4 297.15,217.12 297.45,218.83C297.75,220.55 298.06,222.27 298.36,223.98C298.66,225.67 298.96,227.37 299.26,229.03C299.56,230.66 299.85,232.28 300.16,233.86C300.46,235.39 300.76,236.9 301.07,238.37C301.36,239.77 301.66,241.15 301.97,242.47C302.26,243.71 302.57,244.91 302.88,246.06C303.17,247.12 303.46,248.16 303.78,249.11C304.07,249.97 304.35,250.8 304.68,251.53C304.96,252.16 305.25,252.78 305.59,253.24C305.87,253.62 306.16,253.99 306.49,254.15C306.77,254.28 307.11,254.32 307.4,254.23C307.72,254.13 308.02,253.81 308.3,253.49C308.64,253.1 308.93,252.54 309.21,251.97C309.54,251.29 309.82,250.46 310.11,249.63C310.43,248.7 310.72,247.68 311.01,246.66C311.32,245.59 311.62,244.47 311.92,243.35C312.23,242.19 312.52,240.99 312.82,239.79C313.13,238.56 313.43,237.3 313.73,236.04C314.03,234.75 314.33,233.42 314.63,232.12C314.93,230.84 315.22,229.55 315.53,228.31C315.83,227.12 316.13,225.94 316.44,224.82C316.73,223.76 317.03,222.72 317.34,221.75C317.63,220.85 317.93,219.98 318.25,219.17C318.54,218.44 318.83,217.74 319.15,217.12C319.43,216.57 319.72,216.04 320.05,215.62C320.33,215.26 320.63,214.91 320.96,214.7C321.24,214.51 321.56,214.37 321.86,214.35C322.16,214.33 322.48,214.42 322.77,214.57C323.09,214.74 323.39,215.04 323.67,215.35C324,215.71 324.29,216.17 324.58,216.65C324.9,217.19 325.19,217.81 325.48,218.44C325.79,219.13 326.09,219.89 326.38,220.66C326.69,221.49 327,222.37 327.29,223.26C327.6,224.2 327.89,225.18 328.19,226.17C328.5,227.2 328.8,228.25 329.1,229.31C329.41,230.4 329.7,231.5 330,232.61C330.3,233.72 330.6,234.85 330.9,235.97C331.2,237.08 331.51,238.2 331.81,239.3C332.11,240.39 332.4,241.48 332.71,242.54C333.01,243.56 333.3,244.59 333.62,245.53C333.91,246.38 334.21,247.17 334.52,247.95C334.81,248.69 335.11,249.41 335.42,250.11C335.72,250.77 336.02,251.41 336.33,252.04C336.63,252.64 336.92,253.22 337.23,253.79C337.53,254.34 337.83,254.87 338.14,255.39C338.44,255.89 338.73,256.37 339.04,256.84C339.34,257.3 339.64,257.74 339.95,258.17C340.25,258.59 340.52,259.06 340.85,259.38C341.13,259.65 341.44,259.83 341.75,260.02C342.05,260.2 342.36,260.35 342.66,260.51C342.96,260.67 343.26,260.81 343.56,260.98C343.87,261.15 344.17,261.33 344.47,261.53C344.78,261.74 345.08,261.96 345.37,262.21C345.68,262.47 345.98,262.77 346.27,263.08C346.58,263.41 346.89,263.78 347.18,264.16C347.49,264.57 347.78,265.02 348.08,265.46C348.38,265.9 348.69,266.35 348.99,266.81C349.3,267.28 349.59,267.76 349.89,268.26C350.2,268.77 350.49,269.31 350.79,269.85C351.09,270.4 351.4,270.96 351.7,271.51C352,272.06 352.3,272.6 352.6,273.15C352.9,273.7 353.21,274.24 353.51,274.79C353.81,275.34 354.1,275.9 354.41,276.43C354.71,276.94 355,277.45 355.32,277.9C355.61,278.32 355.89,278.77 356.22,279.05C356.5,279.28 356.81,279.49 357.12,279.53C357.42,279.56 357.76,279.47 358.03,279.29C358.38,279.06 358.66,278.58 358.93,278.09C359.28,277.44 359.56,276.54 359.84,275.67C360.17,274.67 360.45,273.53 360.74,272.4C361.05,271.2 361.34,269.93 361.64,268.65C361.95,267.32 362.25,265.95 362.55,264.57C362.85,263.17 363.15,261.73 363.45,260.31C363.75,258.88 364.06,257.44 364.36,256.01C364.66,254.6 364.96,253.19 365.26,251.8C365.56,250.44 365.85,249.08 366.16,247.75C366.46,246.45 366.76,245.16 367.07,243.9C367.37,242.69 367.66,241.49 367.97,240.33C368.27,239.22 368.57,238.13 368.88,237.09C369.17,236.11 369.47,235.15 369.78,234.24C370.07,233.4 370.36,232.58 370.68,231.83C370.97,231.14 371.27,230.47 371.59,229.88C371.88,229.35 372.16,228.85 372.49,228.44C372.77,228.08 373.08,227.75 373.4,227.52C373.68,227.32 373.99,227.17 374.3,227.08C374.6,226.99 374.91,226.99 375.21,226.97C375.51,226.95 375.82,227.04 376.11,226.94C376.43,226.83 376.72,226.56 377.01,226.31C377.33,226.04 377.61,225.64 377.92,225.34C378.21,225.06 378.5,224.78 378.82,224.58C379.11,224.4 379.42,224.25 379.73,224.17C380.02,224.1 380.33,224.07 380.63,224.11C380.93,224.15 381.24,224.26 381.53,224.39C381.84,224.53 382.15,224.72 382.44,224.93C382.75,225.15 383.04,225.41 383.34,225.67C383.65,225.93 383.95,226.22 384.25,226.49C384.55,226.75 384.84,227.04 385.15,227.25C385.44,227.44 385.74,227.66 386.05,227.72C386.34,227.77 386.67,227.72 386.96,227.61C387.28,227.49 387.58,227.25 387.86,226.97C388.19,226.65 388.49,226.21 388.77,225.74C389.1,225.19 389.39,224.52 389.67,223.82C390,223.02 390.29,222.11 390.58,221.18C390.9,220.15 391.19,219.02 391.48,217.9C391.79,216.72 392.08,215.49 392.38,214.25C392.69,212.97 392.99,211.66 393.29,210.34C393.59,209 393.89,207.64 394.19,206.27C394.49,204.88 394.8,203.48 395.1,202.08C395.4,200.68 395.7,199.27 396,197.88C396.3,196.5 396.6,195.12 396.9,193.76C397.2,192.43 397.5,191.1 397.81,189.81C398.11,188.56 398.4,187.32 398.71,186.11C399.01,184.95 399.31,183.81 399.62,182.7C399.91,181.65 400.21,180.61 400.52,179.62C400.81,178.68 401.11,177.76 401.42,176.89C401.71,176.07 402.02,175.28 402.33,174.54C402.62,173.85 402.91,173.19 403.23,172.59C403.52,172.04 403.82,171.51 404.14,171.05C404.43,170.64 404.72,170.25 405.04,169.94C405.33,169.67 405.63,169.43 405.95,169.28C406.24,169.15 406.55,169.06 406.85,169.06C407.15,169.06 407.46,169.15 407.75,169.29C408.07,169.44 408.37,169.7 408.66,169.97C408.98,170.27 409.27,170.66 409.56,171.05C409.88,171.48 410.17,171.97 410.47,172.45C410.78,172.95 411.08,173.46 411.37,173.99C411.68,174.54 411.98,175.11 412.27,175.71C412.58,176.34 412.88,177 413.18,177.67C413.49,178.36 413.78,179.07 414.08,179.78C414.38,180.5 414.69,181.23 414.99,181.95C415.29,182.66 415.58,183.37 415.89,184.05C416.18,184.7 416.46,185.39 416.79,185.95C417.07,186.43 417.39,186.83 417.7,187.22C417.99,187.58 418.27,187.98 418.6,188.23C418.88,188.44 419.2,188.64 419.51,188.66C419.81,188.68 420.13,188.56 420.41,188.39C420.74,188.19 421.02,187.78 421.32,187.47C421.62,187.15 421.91,186.79 422.22,186.49C422.51,186.2 422.81,185.91 423.12,185.68C423.41,185.47 423.72,185.27 424.03,185.15C424.32,185.03 424.63,184.95 424.93,184.94C425.23,184.93 425.55,184.99 425.84,185.09C426.15,185.2 426.45,185.38 426.74,185.6C427.06,185.84 427.35,186.15 427.64,186.48C427.96,186.85 428.26,187.28 428.55,187.74C428.87,188.24 429.16,188.79 429.45,189.36C429.76,189.98 430.07,190.65 430.36,191.34C430.67,192.07 430.97,192.84 431.26,193.63C431.57,194.46 431.86,195.33 432.16,196.21C432.47,197.13 432.77,198.08 433.07,199.05C433.38,200.06 433.67,201.09 433.97,202.14C434.28,203.22 434.58,204.33 434.88,205.45C435.19,206.61 435.48,207.79 435.78,208.98C436.08,210.2 436.38,211.44 436.68,212.69C436.98,213.96 437.29,215.25 437.59,216.54C437.89,217.85 438.19,219.18 438.49,220.5C438.79,221.83 439.1,223.17 439.4,224.51C439.7,225.85 440,227.21 440.3,228.55C440.6,229.88 440.91,231.2 441.21,232.51C441.51,233.8 441.81,235.08 442.11,236.36C442.41,237.64 442.71,238.93 443.01,240.21C443.31,241.5 443.62,242.79 443.92,244.08C444.22,245.37 444.52,246.67 444.82,247.96C445.12,249.24 445.43,250.52 445.73,251.78C446.03,253.03 446.32,254.28 446.63,255.49C446.92,256.65 447.2,257.88 447.53,258.91C447.81,259.78 448.1,260.59 448.44,261.26C448.72,261.8 448.99,262.35 449.34,262.65C449.61,262.89 449.94,263 450.25,263.07C450.54,263.13 450.85,263.1 451.15,263.06C451.45,263.02 451.75,262.93 452.05,262.85C452.35,262.76 452.66,262.66 452.96,262.55C453.26,262.44 453.56,262.31 453.86,262.2C454.16,262.08 454.47,261.97 454.77,261.86C455.07,261.76 455.37,261.65 455.67,261.57C455.97,261.49 456.28,261.43 456.58,261.38C456.88,261.34 457.18,261.3 457.48,261.3C457.78,261.3 458.08,261.32 458.38,261.36C458.68,261.4 458.99,261.46 459.29,261.54C459.59,261.62 459.89,261.74 460.19,261.85C460.49,261.96 460.8,262.09 461.1,262.21Q461.4,262.33 462,262.55" style="vector-effect: non-scaling-stroke; fill: none; stroke: rgb(0, 100, 80); stroke-opacity: 1; stroke-width: 2px; opacity: 1;"/></g><g class="points"/><g class="text"/></g><g class="trace scatter trace3f50c6" style="stroke-miterlimit: 2; opacity: 1;"><g class="fills"/><g class="errorbars"/><g class="lines"><path class="js-line" d="M0,206.25Q0.61,206 0.9,205.81C1.21,205.61 1.5,205.3 1.81,205.07C2.11,204.84 2.4,204.61 2.71,204.43C3.01,204.26 3.31,204.09 3.62,203.99C3.91,203.89 4.22,203.83 4.52,203.81C4.82,203.79 5.12,203.82 5.42,203.89C5.73,203.96 6.04,204.08 6.33,204.23C6.64,204.39 6.94,204.6 7.23,204.83C7.54,205.08 7.85,205.37 8.14,205.67C8.45,205.99 8.74,206.35 9.04,206.71C9.35,207.09 9.65,207.5 9.95,207.91C10.25,208.32 10.55,208.76 10.85,209.17C11.15,209.58 11.43,210.01 11.75,210.37C12.04,210.7 12.34,211.03 12.66,211.25C12.95,211.45 13.25,211.59 13.56,211.67C13.86,211.74 14.17,211.75 14.47,211.72C14.77,211.69 15.08,211.59 15.37,211.48C15.68,211.37 15.98,211.21 16.27,211.04C16.58,210.86 16.88,210.65 17.18,210.42C17.49,210.19 17.78,209.93 18.08,209.66C18.39,209.38 18.69,209.07 18.99,208.75C19.3,208.42 19.6,208.06 19.89,207.69C20.2,207.3 20.5,206.89 20.79,206.46C21.1,206.01 21.41,205.53 21.7,205.04C22.01,204.52 22.31,203.98 22.6,203.41C22.91,202.81 23.22,202.19 23.51,201.55C23.82,200.87 24.12,200.16 24.41,199.43C24.72,198.66 25.02,197.86 25.32,197.04C25.63,196.18 25.93,195.3 26.22,194.39C26.53,193.44 26.82,192.46 27.12,191.47C27.43,190.44 27.73,189.38 28.03,188.31C28.34,187.2 28.63,186.07 28.93,184.93C29.24,183.75 29.54,182.56 29.84,181.35C30.15,180.12 30.44,178.86 30.74,177.6C31.04,176.31 31.34,175 31.64,173.68C31.94,172.33 32.25,170.97 32.55,169.59C32.86,168.18 33.15,166.74 33.45,165.29C33.76,163.8 34.06,162.29 34.36,160.75C34.67,159.16 34.97,157.53 35.26,155.88C35.57,154.17 35.86,152.42 36.16,150.64C36.47,148.8 36.77,146.91 37.07,145.01C37.38,143.06 37.67,141.07 37.97,139.08C38.27,137.05 38.58,135 38.88,132.95C39.18,130.89 39.48,128.82 39.78,126.77C40.08,124.73 40.38,122.69 40.68,120.68C40.98,118.7 41.28,116.72 41.59,114.79C41.89,112.91 42.18,111.05 42.49,109.24C42.79,107.5 43.09,105.77 43.4,104.11C43.69,102.53 43.99,100.99 44.3,99.51C44.59,98.13 44.89,96.78 45.21,95.51C45.5,94.35 45.79,93.22 46.11,92.18C46.39,91.26 46.68,90.36 47.01,89.59C47.29,88.93 47.58,88.28 47.92,87.8C48.2,87.41 48.49,87.01 48.82,86.85C49.1,86.72 49.45,86.68 49.73,86.78C50.06,86.89 50.36,87.25 50.63,87.61C50.97,88.06 51.25,88.7 51.53,89.36C51.86,90.15 52.16,91.07 52.44,92.03C52.77,93.13 53.05,94.35 53.34,95.61C53.66,97.01 53.96,98.52 54.25,100.07C54.57,101.76 54.86,103.55 55.15,105.38C55.46,107.35 55.76,109.4 56.05,111.5C56.36,113.72 56.66,116.02 56.96,118.36C57.27,120.81 57.56,123.33 57.86,125.89C58.17,128.55 58.47,131.26 58.77,134.01C59.08,136.83 59.37,139.71 59.67,142.61C59.97,145.57 60.28,148.57 60.58,151.58C60.88,154.63 61.18,157.7 61.48,160.78C61.78,163.87 62.08,166.99 62.38,170.08C62.68,173.17 62.99,176.25 63.29,179.32C63.59,182.36 63.89,185.39 64.19,188.39C64.49,191.36 64.8,194.31 65.1,197.23C65.4,200.11 65.7,202.97 66,205.8C66.3,208.58 66.59,211.33 66.9,214.05C67.2,216.71 67.5,219.37 67.81,221.94C68.11,224.41 68.39,226.92 68.71,229.18C69,231.19 69.31,233.04 69.62,234.86C69.91,236.55 70.21,238.15 70.52,239.73C70.81,241.24 71.11,242.72 71.42,244.16C71.72,245.55 72.02,246.92 72.33,248.23C72.62,249.47 72.9,250.77 73.23,251.84C73.51,252.74 73.82,253.51 74.14,254.26C74.43,254.94 74.72,255.57 75.04,256.15C75.33,256.68 75.63,257.19 75.95,257.62C76.24,258.01 76.53,258.37 76.85,258.65C77.13,258.9 77.44,259.09 77.75,259.23C78.04,259.36 78.36,259.43 78.66,259.46C78.96,259.49 79.26,259.47 79.56,259.42C79.86,259.37 80.17,259.28 80.47,259.18C80.77,259.08 81.07,258.94 81.37,258.82C81.67,258.7 81.97,258.56 82.27,258.45C82.57,258.34 82.87,258.23 83.18,258.16C83.48,258.09 83.78,258.04 84.08,258.02C84.38,258 84.69,258.03 84.99,258.04C85.29,258.05 85.59,258.1 85.89,258.1C86.19,258.1 86.49,258.07 86.79,258.04C87.09,258.01 87.4,257.95 87.7,257.93C88,257.91 88.3,257.91 88.6,257.93C88.9,257.95 89.21,258.01 89.51,258.07C89.81,258.13 90.11,258.22 90.41,258.28C90.71,258.33 91.02,258.4 91.32,258.4C91.62,258.4 91.93,258.39 92.22,258.28C92.53,258.16 92.86,257.99 93.12,257.68C93.5,257.24 93.76,256.46 94.03,255.7C94.38,254.72 94.64,253.45 94.93,252.25C95.25,250.94 95.55,249.54 95.84,248.12C96.15,246.62 96.45,245.05 96.74,243.47C97.05,241.83 97.34,240.14 97.64,238.45C97.95,236.72 98.25,234.95 98.55,233.19C98.85,231.43 99.15,229.65 99.45,227.89C99.75,226.15 100.05,224.41 100.36,222.71C100.66,221.06 100.95,219.41 101.26,217.82C101.55,216.3 101.85,214.79 102.16,213.35C102.45,211.99 102.76,210.66 103.07,209.4C103.36,208.24 103.65,207.11 103.97,206.06C104.26,205.12 104.56,204.2 104.88,203.39C105.16,202.68 105.45,202 105.78,201.44C106.06,200.97 106.34,200.52 106.68,200.24C106.96,200.01 107.28,199.81 107.59,199.8C107.89,199.79 108.21,199.94 108.49,200.14C108.83,200.38 109.12,200.81 109.4,201.24C109.73,201.76 110.02,202.41 110.3,203.09C110.63,203.87 110.92,204.75 111.21,205.66C111.53,206.67 111.82,207.78 112.11,208.91C112.42,210.14 112.72,211.45 113.01,212.79C113.32,214.21 113.63,215.7 113.92,217.21C114.23,218.79 114.52,220.44 114.82,222.09C115.13,223.8 115.43,225.55 115.73,227.31C116.04,229.11 116.33,230.95 116.63,232.79C116.93,234.67 117.23,236.56 117.53,238.47C117.83,240.41 118.14,242.37 118.44,244.34C118.74,246.33 119.04,248.33 119.34,250.33C119.64,252.33 119.95,254.34 120.25,256.33C120.55,258.29 120.84,260.25 121.15,262.16C121.44,264 121.74,265.83 122.05,267.56C122.34,269.17 122.62,270.84 122.96,272.2C123.24,273.3 123.46,274.46 123.86,275.14C124.12,275.58 124.47,276.09 124.77,276.09C125.07,276.09 125.4,275.54 125.67,275.12C126.03,274.55 126.3,273.72 126.58,272.89C126.91,271.91 127.2,270.76 127.48,269.59C127.8,268.27 128.09,266.83 128.38,265.36C128.69,263.76 129,262.07 129.29,260.35C129.6,258.52 129.89,256.62 130.19,254.7C130.5,252.69 130.8,250.63 131.1,248.54C131.41,246.38 131.7,244.19 132,241.96C132.3,239.67 132.6,237.33 132.9,234.98C133.2,232.59 133.51,230.15 133.81,227.73C134.11,225.3 134.41,222.84 134.71,220.41C135.01,217.98 135.32,215.56 135.62,213.15C135.92,210.77 136.22,208.39 136.52,206.04C136.82,203.73 137.11,201.42 137.42,199.17C137.72,196.98 138.02,194.81 138.33,192.7C138.63,190.67 138.92,188.67 139.23,186.74C139.52,184.9 139.83,183.11 140.14,181.38C140.43,179.76 140.73,178.17 141.04,176.66C141.33,175.26 141.63,173.91 141.95,172.64C142.24,171.47 142.53,170.35 142.85,169.31C143.14,168.38 143.42,167.49 143.75,166.7C144.03,166.01 144.33,165.35 144.66,164.81C144.94,164.35 145.23,163.91 145.56,163.62C145.84,163.38 146.16,163.17 146.47,163.12C146.76,163.07 147.09,163.16 147.37,163.3C147.69,163.47 147.99,163.79 148.27,164.13C148.6,164.53 148.89,165.05 149.18,165.58C149.5,166.19 149.79,166.88 150.08,167.59C150.4,168.37 150.7,169.23 150.99,170.1C151.3,171.02 151.59,172 151.89,172.98C152.19,173.99 152.49,175.04 152.79,176.05C153.09,177.05 153.39,178.05 153.7,179.03C154,179.98 154.3,180.91 154.6,181.85C154.9,182.8 155.21,183.73 155.51,184.7C155.82,185.71 156.12,186.75 156.41,187.82C156.72,188.94 157.02,190.1 157.32,191.29C157.63,192.53 157.93,193.81 158.22,195.11C158.53,196.45 158.82,197.84 159.12,199.22C159.42,200.62 159.73,202.05 160.03,203.45C160.33,204.83 160.62,206.23 160.93,207.56C161.23,208.84 161.53,210.08 161.84,211.29C162.13,212.44 162.44,213.54 162.74,214.64C163.04,215.71 163.34,216.75 163.64,217.81C163.94,218.87 164.25,219.93 164.55,221C164.85,222.08 165.15,223.16 165.45,224.25C165.75,225.34 166.06,226.45 166.36,227.53C166.66,228.59 166.95,229.65 167.26,230.68C167.55,231.67 167.85,232.65 168.16,233.58C168.45,234.47 168.75,235.35 169.07,236.15C169.36,236.87 169.64,237.59 169.97,238.17C170.25,238.65 170.55,239.1 170.88,239.41C171.16,239.67 171.47,239.87 171.78,239.99C172.07,240.11 172.38,240.14 172.68,240.16C172.98,240.18 173.29,240.13 173.59,240.09C173.89,240.05 174.19,239.98 174.49,239.94C174.79,239.9 175.1,239.85 175.4,239.83C175.7,239.81 176,239.81 176.3,239.82C176.6,239.83 176.91,239.87 177.21,239.9C177.51,239.93 177.81,240 178.11,239.99C178.41,239.98 178.72,239.96 179.01,239.84C179.33,239.71 179.63,239.43 179.92,239.18C180.23,238.91 180.53,238.61 180.82,238.26C181.14,237.87 181.45,237.45 181.73,236.94C182.07,236.33 182.32,235.48 182.63,234.8C182.92,234.16 183.21,233.53 183.53,232.97C183.82,232.46 184.12,231.96 184.44,231.56C184.72,231.21 185.02,230.87 185.34,230.65C185.63,230.45 185.94,230.3 186.25,230.25C186.54,230.2 186.86,230.25 187.15,230.35C187.46,230.46 187.77,230.69 188.05,230.94C188.37,231.22 188.67,231.61 188.96,232C189.28,232.44 189.57,232.94 189.86,233.47C190.18,234.04 190.48,234.67 190.77,235.32C191.08,236.01 191.38,236.74 191.67,237.49C191.98,238.27 192.28,239.09 192.58,239.91C192.89,240.76 193.18,241.64 193.48,242.51C193.78,243.4 194.08,244.31 194.38,245.2C194.68,246.08 194.98,246.98 195.29,247.84C195.59,248.67 195.88,249.5 196.19,250.29C196.48,251.04 196.78,251.78 197.1,252.45C197.39,253.06 197.68,253.67 198,254.18C198.28,254.63 198.56,255.13 198.9,255.39C199.18,255.6 199.5,255.67 199.81,255.73C200.11,255.79 200.41,255.77 200.71,255.77C201.01,255.77 201.32,255.76 201.62,255.74C201.92,255.72 202.22,255.7 202.52,255.66C202.82,255.62 203.12,255.57 203.42,255.5C203.72,255.43 204.03,255.35 204.33,255.25C204.63,255.15 204.93,255.04 205.23,254.91C205.54,254.78 205.84,254.62 206.14,254.45C206.45,254.27 206.75,254.08 207.04,253.86C207.35,253.63 207.66,253.38 207.95,253.1C208.26,252.8 208.57,252.47 208.85,252.09C209.17,251.65 209.47,251.17 209.75,250.6C210.09,249.91 210.37,249.08 210.66,248.23C210.98,247.27 211.27,246.21 211.56,245.13C211.87,243.97 212.18,242.74 212.47,241.48C212.78,240.12 213.08,238.71 213.37,237.25C213.68,235.68 213.98,234.05 214.27,232.37C214.58,230.59 214.89,228.73 215.18,226.84C215.49,224.85 215.78,222.79 216.08,220.7C216.39,218.51 216.69,216.26 216.99,213.98C217.3,211.62 217.59,209.2 217.89,206.77C218.19,204.29 218.49,201.76 218.79,199.23C219.09,196.68 219.4,194.1 219.7,191.53C220,188.96 220.3,186.37 220.6,183.81C220.9,181.26 221.21,178.72 221.51,176.2C221.81,173.71 222.11,171.23 222.41,168.78C222.71,166.38 223.01,163.99 223.32,161.64C223.62,159.35 223.92,157.08 224.22,154.84C224.52,152.66 224.81,150.51 225.12,148.4C225.42,146.35 225.72,144.34 226.03,142.36C226.33,140.45 226.62,138.58 226.93,136.74C227.23,134.97 227.53,133.22 227.84,131.52C228.14,129.89 228.43,128.28 228.74,126.72C229.03,125.23 229.33,123.76 229.64,122.34C229.94,120.98 230.24,119.66 230.55,118.37C230.84,117.15 231.14,115.96 231.45,114.81C231.74,113.72 232.05,112.66 232.36,111.64C232.65,110.68 232.95,109.76 233.26,108.86C233.55,108.01 233.85,107.19 234.16,106.4C234.45,105.65 234.76,104.93 235.07,104.22C235.37,103.54 235.67,102.88 235.97,102.22C236.27,101.57 236.58,100.94 236.88,100.28C237.18,99.61 237.49,98.94 237.78,98.24C238.09,97.5 238.39,96.74 238.68,95.94C238.99,95.07 239.3,94.16 239.59,93.2C239.91,92.14 240.2,91.02 240.49,89.84C240.81,88.56 241.11,87.19 241.4,85.79C241.71,84.28 242.01,82.7 242.3,81.09C242.61,79.4 242.91,77.64 243.21,75.87C243.52,74.04 243.81,72.17 244.11,70.29C244.41,68.38 244.71,66.44 245.01,64.51C245.31,62.57 245.62,60.62 245.92,58.69C246.22,56.78 246.52,54.86 246.82,52.98C247.12,51.14 247.42,49.3 247.73,47.51C248.03,45.77 248.32,44.05 248.63,42.39C248.92,40.8 249.22,39.24 249.53,37.74C249.82,36.33 250.13,34.95 250.44,33.64C250.73,32.44 251.02,31.26 251.34,30.18C251.63,29.2 251.93,28.25 252.25,27.41C252.53,26.67 252.82,25.96 253.15,25.38C253.43,24.9 253.71,24.43 254.05,24.13C254.33,23.89 254.65,23.67 254.96,23.64C255.25,23.61 255.58,23.74 255.86,23.91C256.19,24.12 256.49,24.5 256.77,24.88C257.1,25.33 257.38,25.91 257.67,26.49C257.99,27.14 258.29,27.86 258.58,28.6C258.89,29.39 259.19,30.23 259.48,31.07C259.79,31.94 260.08,32.85 260.38,33.74C260.68,34.63 260.98,35.54 261.29,36.42C261.59,37.28 261.88,38.13 262.19,38.96C262.49,39.76 262.79,40.55 263.1,41.31C263.4,42.04 263.7,42.75 264,43.46C264.3,44.16 264.6,44.83 264.9,45.53C265.2,46.23 265.51,46.93 265.81,47.66C266.12,48.42 266.42,49.2 266.71,50.01C267.02,50.88 267.33,51.78 267.62,52.72C267.93,53.73 268.23,54.79 268.52,55.9C268.83,57.09 269.13,58.34 269.42,59.63C269.73,61.01 270.04,62.45 270.33,63.94C270.64,65.53 270.94,67.18 271.23,68.87C271.54,70.66 271.85,72.52 272.14,74.41C272.45,76.4 272.74,78.45 273.04,80.54C273.35,82.72 273.65,84.95 273.95,87.22C274.26,89.57 274.55,91.98 274.85,94.41C275.15,96.92 275.45,99.47 275.75,102.04C276.06,104.67 276.36,107.35 276.66,110.04C276.96,112.78 277.26,115.55 277.56,118.32C277.86,121.12 278.17,123.94 278.47,126.76C278.77,129.59 279.07,132.43 279.37,135.25C279.67,138.06 279.97,140.87 280.27,143.65C280.57,146.38 280.87,149.11 281.18,151.78C281.48,154.38 281.77,156.97 282.08,159.47C282.38,161.86 282.68,164.25 282.99,166.49C283.28,168.56 283.56,170.64 283.89,172.44C284.17,173.94 284.4,175.51 284.79,176.55C285.05,177.24 285.33,178.07 285.7,178.19C285.97,178.28 286.33,178.03 286.6,177.79C286.97,177.46 287.22,176.74 287.51,176.16C287.83,175.52 288.1,174.77 288.41,174.09C288.71,173.43 289,172.74 289.32,172.14C289.61,171.59 289.89,171.05 290.22,170.62C290.5,170.26 290.79,169.89 291.12,169.71C291.4,169.56 291.74,169.47 292.03,169.53C292.35,169.6 292.66,169.86 292.93,170.15C293.27,170.51 293.56,171.03 293.84,171.58C294.17,172.23 294.46,173.02 294.74,173.83C295.06,174.76 295.35,175.8 295.64,176.87C295.96,178.05 296.26,179.33 296.55,180.63C296.86,182.03 297.16,183.51 297.45,185.01C297.76,186.59 298.06,188.24 298.36,189.9C298.67,191.62 298.96,193.38 299.26,195.14C299.56,196.92 299.86,198.74 300.16,200.53C300.46,202.32 300.77,204.12 301.07,205.88C301.37,207.61 301.66,209.33 301.97,211C302.27,212.6 302.57,214.19 302.88,215.71C303.17,217.14 303.47,218.55 303.78,219.88C304.07,221.11 304.36,222.3 304.68,223.4C304.97,224.39 305.26,225.35 305.59,226.2C305.87,226.94 306.16,227.65 306.49,228.23C306.77,228.72 307.06,229.19 307.4,229.49C307.68,229.73 307.99,229.95 308.3,229.98C308.6,230.01 308.93,229.87 309.21,229.68C309.55,229.45 309.83,229.02 310.11,228.6C310.44,228.09 310.72,227.44 311.01,226.8C311.33,226.08 311.63,225.29 311.92,224.49C312.23,223.65 312.52,222.77 312.82,221.9C313.12,221.02 313.43,220.12 313.73,219.24C314.03,218.37 314.33,217.49 314.63,216.64C314.93,215.82 315.22,215 315.53,214.22C315.82,213.48 316.13,212.75 316.44,212.07C316.73,211.43 317.02,210.81 317.34,210.24C317.63,209.72 317.93,209.22 318.25,208.79C318.54,208.41 318.83,208.05 319.15,207.78C319.43,207.54 319.74,207.33 320.05,207.23C320.34,207.14 320.67,207.12 320.96,207.18C321.27,207.25 321.58,207.43 321.86,207.64C322.19,207.88 322.48,208.24 322.77,208.61C323.09,209.03 323.38,209.53 323.67,210.06C323.99,210.64 324.29,211.3 324.58,211.97C324.9,212.7 325.19,213.49 325.48,214.29C325.79,215.15 326.08,216.05 326.38,216.96C326.69,217.92 326.99,218.91 327.29,219.91C327.6,220.93 327.89,221.99 328.19,223.03C328.49,224.08 328.8,225.15 329.1,226.2C329.4,227.24 329.7,228.28 330,229.3C330.3,230.29 330.59,231.27 330.9,232.23C331.2,233.16 331.5,234.08 331.81,234.97C332.11,235.83 332.4,236.68 332.71,237.5C333.01,238.3 333.31,239.08 333.62,239.84C333.91,240.56 334.21,241.27 334.52,241.94C334.81,242.57 335.1,243.2 335.42,243.76C335.71,244.26 335.98,244.83 336.33,245.15C336.6,245.4 336.92,245.56 337.23,245.63C337.52,245.7 337.84,245.65 338.14,245.6C338.44,245.55 338.75,245.44 339.04,245.31C339.35,245.17 339.66,244.98 339.95,244.77C340.26,244.55 340.55,244.27 340.85,244C341.15,243.73 341.45,243.42 341.75,243.14C342.05,242.87 342.35,242.59 342.66,242.36C342.95,242.15 343.25,241.94 343.56,241.81C343.85,241.69 344.17,241.59 344.47,241.58C344.77,241.57 345.08,241.62 345.37,241.73C345.68,241.85 345.98,242.06 346.27,242.29C346.59,242.55 346.89,242.89 347.18,243.26C347.5,243.67 347.79,244.16 348.08,244.67C348.4,245.24 348.7,245.88 348.99,246.55C349.31,247.29 349.6,248.09 349.89,248.92C350.2,249.82 350.5,250.78 350.79,251.77C351.1,252.82 351.4,253.93 351.7,255.04C352.01,256.19 352.3,257.4 352.6,258.58C352.9,259.76 353.2,260.97 353.51,262.13C353.81,263.25 354.1,264.36 354.41,265.43C354.7,266.44 354.99,267.48 355.32,268.37C355.6,269.13 355.9,269.81 356.22,270.44C356.5,271 356.8,271.51 357.12,271.98C357.41,272.41 357.71,272.82 358.03,273.16C358.32,273.47 358.61,273.75 358.93,273.95C359.22,274.13 359.53,274.3 359.84,274.34C360.14,274.38 360.46,274.35 360.74,274.2C361.07,274.02 361.37,273.64 361.64,273.21C362.01,272.61 362.27,271.72 362.55,270.84C362.89,269.77 363.16,268.48 363.45,267.21C363.77,265.82 364.06,264.32 364.36,262.83C364.67,261.29 364.96,259.72 365.26,258.14C365.56,256.54 365.86,254.93 366.16,253.3C366.46,251.64 366.77,249.97 367.07,248.29C367.37,246.59 367.67,244.86 367.97,243.17C368.27,241.51 368.57,239.86 368.88,238.25C369.18,236.7 369.47,235.17 369.78,233.69C370.07,232.28 370.37,230.89 370.68,229.55C370.97,228.29 371.28,227.06 371.59,225.88C371.88,224.78 372.17,223.71 372.49,222.7C372.78,221.78 373.08,220.88 373.4,220.07C373.69,219.35 373.97,218.65 374.3,218.06C374.58,217.55 374.88,217.06 375.21,216.7C375.49,216.4 375.79,216.12 376.11,216.01C376.39,215.91 376.72,215.91 377.01,216C377.33,216.1 377.64,216.36 377.92,216.64C378.25,216.97 378.54,217.43 378.82,217.9C379.14,218.43 379.44,219.05 379.73,219.67C380.04,220.33 380.33,221.05 380.63,221.74C380.93,222.44 381.23,223.14 381.53,223.86C381.83,224.59 382.14,225.32 382.44,226.08C382.75,226.87 383.04,227.68 383.34,228.5C383.65,229.34 383.94,230.22 384.25,231.05C384.55,231.85 384.8,232.76 385.15,233.41C385.42,233.92 385.7,234.45 386.05,234.68C386.32,234.86 386.68,234.97 386.96,234.88C387.3,234.77 387.59,234.29 387.86,233.86C388.21,233.3 388.49,232.49 388.77,231.72C389.09,230.84 389.38,229.83 389.67,228.84C389.98,227.78 390.28,226.67 390.58,225.56C390.89,224.42 391.18,223.25 391.48,222.09C391.78,220.92 392.08,219.73 392.38,218.56C392.68,217.4 392.99,216.23 393.29,215.08C393.59,213.95 393.88,212.82 394.19,211.73C394.49,210.67 394.79,209.63 395.1,208.62C395.4,207.66 395.69,206.7 396,205.8C396.29,204.95 396.59,204.12 396.9,203.34C397.19,202.62 397.49,201.93 397.81,201.3C398.1,200.73 398.39,200.18 398.71,199.7C399,199.28 399.3,198.88 399.62,198.57C399.9,198.29 400.2,198.04 400.52,197.89C400.81,197.76 401.12,197.68 401.42,197.68C401.72,197.68 402.04,197.77 402.33,197.9C402.65,198.04 402.94,198.28 403.23,198.54C403.55,198.83 403.85,199.19 404.14,199.58C404.46,200.01 404.75,200.49 405.04,201C405.35,201.55 405.66,202.15 405.95,202.76C406.26,203.41 406.55,204.12 406.85,204.82C407.15,205.54 407.43,206.35 407.75,207.02C408.04,207.61 408.31,208.24 408.66,208.64C408.93,208.95 409.25,209.12 409.56,209.33C409.86,209.53 410.16,209.7 410.47,209.86C410.77,210.02 411.06,210.2 411.37,210.3C411.66,210.4 411.97,210.49 412.27,210.48C412.57,210.47 412.92,210.45 413.18,210.23C413.57,209.9 413.79,209.01 414.08,208.34C414.4,207.6 414.7,206.78 414.99,205.96C415.3,205.08 415.6,204.16 415.89,203.22C416.2,202.24 416.49,201.21 416.79,200.19C417.09,199.16 417.4,198.11 417.7,197.08C418,196.06 418.3,195.04 418.6,194.03C418.9,193.04 419.2,192.06 419.51,191.1C419.81,190.16 420.1,189.23 420.41,188.32C420.71,187.43 421.02,186.56 421.32,185.69C421.62,184.84 421.92,184.01 422.22,183.18C422.52,182.36 422.82,181.55 423.12,180.75C423.42,179.95 423.73,179.16 424.03,178.37C424.33,177.59 424.63,176.8 424.93,176.03C425.23,175.26 425.53,174.49 425.84,173.74C426.14,173.01 426.43,172.29 426.74,171.6C427.03,170.94 427.33,170.28 427.64,169.68C427.93,169.12 428.23,168.57 428.55,168.09C428.84,167.66 429.13,167.24 429.45,166.91C429.73,166.62 430.04,166.35 430.36,166.21C430.65,166.08 430.97,166.01 431.26,166.05C431.57,166.09 431.88,166.27 432.16,166.48C432.49,166.73 432.79,167.11 433.07,167.51C433.4,167.98 433.69,168.56 433.97,169.17C434.29,169.86 434.59,170.64 434.88,171.46C435.2,172.37 435.49,173.35 435.78,174.37C436.09,175.48 436.39,176.67 436.68,177.89C436.99,179.2 437.3,180.58 437.59,181.99C437.9,183.49 438.2,185.05 438.49,186.65C438.8,188.33 439.1,190.07 439.4,191.84C439.71,193.69 440,195.58 440.3,197.51C440.61,199.51 440.91,201.55 441.21,203.62C441.52,205.75 441.81,207.93 442.11,210.12C442.41,212.37 442.71,214.65 443.01,216.94C443.31,219.28 443.62,221.65 443.92,224.02C444.22,226.42 444.52,228.85 444.82,231.27C445.12,233.71 445.43,236.17 445.73,238.61C446.03,241.05 446.33,243.5 446.63,245.91C446.93,248.29 447.19,250.86 447.53,252.99C447.81,254.75 448.07,256.46 448.44,257.78C448.71,258.74 449.01,259.48 449.34,260.22C449.62,260.86 449.93,261.43 450.25,261.96C450.54,262.43 450.83,262.88 451.15,263.26C451.43,263.6 451.74,263.89 452.05,264.14C452.34,264.37 452.65,264.54 452.96,264.71C453.26,264.87 453.56,265 453.86,265.13C454.16,265.26 454.47,265.36 454.77,265.47C455.07,265.58 455.37,265.68 455.67,265.79C455.97,265.9 456.28,266.02 456.58,266.15C456.88,266.28 457.18,266.42 457.48,266.58C457.78,266.74 458.08,266.93 458.38,267.12C458.69,267.32 458.99,267.54 459.29,267.76C459.59,267.98 459.89,268.23 460.19,268.45C460.49,268.67 460.79,268.91 461.1,269.1Q461.4,269.29 462,269.6" style="vector-effect: non-scaling-stroke; fill: none; stroke: rgb(0, 176, 246); stroke-opacity: 1; stroke-width: 2px; opacity: 1;"/></g><g class="points"/><g class="text"/></g><g class="trace scatter tracedc5480" style="stroke-miterlimit: 2; opacity: 1;"><g class="fills"/><g class="errorbars"/><g class="lines"><path class="js-line" d="M0,203.92Q0.6,203.95 0.9,203.99C1.2,204.04 1.51,204.1 1.81,204.19C2.11,204.28 2.41,204.4 2.71,204.55C3.02,204.7 3.33,204.88 3.62,205.09C3.93,205.31 4.23,205.56 4.52,205.84C4.83,206.14 5.13,206.48 5.42,206.84C5.73,207.23 6.04,207.64 6.33,208.09C6.64,208.57 6.94,209.08 7.23,209.62C7.54,210.19 7.85,210.8 8.14,211.42C8.45,212.08 8.74,212.77 9.04,213.48C9.35,214.22 9.65,214.98 9.95,215.76C10.26,216.56 10.55,217.39 10.85,218.22C11.15,219.07 11.45,219.94 11.75,220.81C12.05,221.69 12.36,222.57 12.66,223.45C12.96,224.32 13.25,225.2 13.56,226.05C13.86,226.88 14.16,227.71 14.47,228.51C14.77,229.27 15.06,230.03 15.37,230.73C15.66,231.38 15.95,232.01 16.27,232.57C16.56,233.07 16.85,233.55 17.18,233.93C17.46,234.25 17.76,234.56 18.08,234.73C18.37,234.88 18.69,234.96 18.99,234.94C19.29,234.92 19.61,234.78 19.89,234.6C20.21,234.4 20.5,234.09 20.79,233.77C21.11,233.41 21.41,232.97 21.7,232.52C22.02,232.02 22.31,231.46 22.6,230.89C22.91,230.27 23.22,229.61 23.51,228.92C23.82,228.19 24.12,227.41 24.41,226.61C24.72,225.76 25.03,224.89 25.32,223.98C25.63,223.02 25.93,222.03 26.22,221.01C26.53,219.95 26.82,218.85 27.12,217.74C27.43,216.58 27.73,215.39 28.03,214.19C28.34,212.95 28.63,211.69 28.93,210.42C29.23,209.12 29.54,207.81 29.84,206.49C30.14,205.16 30.44,203.81 30.74,202.47C31.04,201.13 31.34,199.79 31.64,198.45C31.94,197.12 32.25,195.79 32.55,194.48C32.85,193.19 33.15,191.9 33.45,190.64C33.75,189.4 34.05,188.17 34.36,186.97C34.66,185.8 34.95,184.65 35.26,183.53C35.55,182.45 35.85,181.38 36.16,180.34C36.46,179.35 36.76,178.37 37.07,177.43C37.36,176.53 37.66,175.66 37.97,174.81C38.27,173.99 38.58,173.22 38.88,172.42C39.18,171.61 39.5,170.88 39.78,169.96C40.12,168.84 40.4,167.51 40.68,166.14C41.01,164.56 41.29,162.7 41.59,160.99C41.89,159.28 42.18,157.54 42.49,155.87C42.79,154.26 43.09,152.67 43.4,151.14C43.69,149.69 43.99,148.26 44.3,146.9C44.59,145.63 44.9,144.39 45.21,143.22C45.5,142.14 45.79,141.1 46.11,140.13C46.4,139.25 46.69,138.41 47.01,137.65C47.3,136.98 47.59,136.34 47.92,135.8C48.2,135.34 48.49,134.9 48.82,134.59C49.1,134.33 49.41,134.09 49.73,134C50.02,133.92 50.34,133.94 50.63,134.03C50.95,134.13 51.25,134.38 51.53,134.65C51.86,134.97 52.16,135.4 52.44,135.85C52.76,136.36 53.05,136.97 53.34,137.59C53.66,138.28 53.96,139.04 54.25,139.82C54.56,140.67 54.86,141.57 55.15,142.5C55.46,143.49 55.76,144.52 56.05,145.57C56.36,146.68 56.66,147.83 56.96,148.99C57.27,150.2 57.56,151.43 57.86,152.68C58.17,153.96 58.47,155.27 58.77,156.59C59.07,157.93 59.37,159.3 59.67,160.67C59.97,162.05 60.28,163.44 60.58,164.83C60.88,166.23 61.18,167.64 61.48,169.04C61.78,170.44 62.08,171.85 62.38,173.25C62.68,174.64 62.99,176.02 63.29,177.4C63.59,178.77 63.89,180.13 64.19,181.48C64.49,182.81 64.8,184.14 65.1,185.45C65.4,186.75 65.7,188.03 66,189.31C66.3,190.57 66.6,191.82 66.9,193.05C67.2,194.26 67.51,195.47 67.81,196.66C68.11,197.84 68.41,199.01 68.71,200.17C69.01,201.31 69.32,202.44 69.62,203.57C69.92,204.68 70.22,205.79 70.52,206.89C70.82,207.98 71.12,209.07 71.42,210.15C71.72,211.22 72.03,212.29 72.33,213.36C72.63,214.43 72.93,215.49 73.23,216.56C73.53,217.63 73.84,218.7 74.14,219.78C74.44,220.87 74.74,221.95 75.04,223.05C75.34,224.15 75.65,225.26 75.95,226.38C76.25,227.51 76.55,228.65 76.85,229.8C77.15,230.96 77.45,232.13 77.75,233.3C78.05,234.48 78.36,235.68 78.66,236.87C78.96,238.07 79.26,239.29 79.56,240.49C79.86,241.69 80.17,242.89 80.47,244.08C80.77,245.25 81.07,246.42 81.37,247.57C81.67,248.68 81.96,249.8 82.27,250.86C82.56,251.87 82.86,252.86 83.18,253.79C83.47,254.64 83.75,255.48 84.08,256.21C84.36,256.84 84.64,257.48 84.99,257.91C85.26,258.25 85.57,258.64 85.89,258.69C86.18,258.74 86.52,258.56 86.79,258.32C87.16,257.99 87.43,257.3 87.7,256.65C88.05,255.81 88.32,254.74 88.6,253.66C88.93,252.4 89.22,250.97 89.51,249.54C89.83,247.98 90.11,246.32 90.41,244.65C90.72,242.91 91.02,241.11 91.32,239.32C91.62,237.51 91.92,235.66 92.22,233.84C92.52,232.02 92.82,230.2 93.12,228.4C93.42,226.63 93.72,224.87 94.03,223.14C94.33,221.46 94.62,219.81 94.93,218.19C95.23,216.63 95.53,215.1 95.84,213.61C96.13,212.19 96.43,210.8 96.74,209.47C97.03,208.21 97.33,206.99 97.64,205.82C97.93,204.73 98.23,203.68 98.55,202.69C98.84,201.79 99.13,200.92 99.45,200.13C99.74,199.42 100.03,198.73 100.36,198.14C100.64,197.63 100.93,197.14 101.26,196.77C101.54,196.46 101.84,196.17 102.16,196.03C102.45,195.91 102.78,195.86 103.07,195.92C103.38,195.99 103.69,196.22 103.97,196.47C104.3,196.77 104.6,197.22 104.88,197.68C105.21,198.22 105.5,198.87 105.78,199.55C106.1,200.32 106.39,201.18 106.68,202.07C107,203.06 107.3,204.13 107.59,205.24C107.91,206.44 108.2,207.71 108.49,209.02C108.8,210.42 109.11,211.88 109.4,213.38C109.71,214.96 110,216.59 110.3,218.25C110.61,219.97 110.91,221.74 111.21,223.51C111.51,225.32 111.81,227.17 112.11,229C112.41,230.82 112.7,232.67 113.01,234.45C113.31,236.16 113.61,237.88 113.92,239.49C114.21,240.98 114.5,242.43 114.82,243.79C115.11,245.02 115.42,246.18 115.73,247.3C116.02,248.33 116.32,249.3 116.63,250.27C116.92,251.2 117.23,252.08 117.53,252.98C117.83,253.87 118.14,254.75 118.44,255.63C118.74,256.51 119.04,257.4 119.34,258.27C119.64,259.13 119.94,260.01 120.25,260.84C120.54,261.62 120.82,262.44 121.15,263.11C121.43,263.67 121.68,264.36 122.05,264.6C122.32,264.77 122.69,264.84 122.96,264.71C123.33,264.53 123.59,263.78 123.86,263.17C124.21,262.37 124.48,261.31 124.77,260.28C125.09,259.12 125.38,257.83 125.67,256.53C125.98,255.13 126.29,253.67 126.58,252.17C126.89,250.59 127.19,248.95 127.48,247.28C127.79,245.52 128.08,243.71 128.38,241.87C128.69,239.94 128.99,237.96 129.29,235.96C129.6,233.89 129.89,231.77 130.19,229.65C130.49,227.49 130.8,225.3 131.1,223.12C131.4,220.94 131.7,218.73 132,216.56C132.3,214.41 132.59,212.26 132.9,210.15C133.2,208.09 133.5,206.04 133.81,204.03C134.11,202.09 134.4,200.17 134.71,198.3C135.01,196.51 135.31,194.74 135.62,193.03C135.91,191.4 136.21,189.81 136.52,188.28C136.81,186.84 137.11,185.43 137.42,184.08C137.71,182.83 138.02,181.61 138.33,180.46C138.62,179.4 138.91,178.37 139.23,177.41C139.52,176.53 139.82,175.69 140.14,174.92C140.43,174.22 140.72,173.56 141.04,172.97C141.33,172.44 141.63,171.94 141.95,171.51C142.24,171.13 142.53,170.78 142.85,170.49C143.14,170.23 143.44,170.02 143.75,169.84C144.04,169.67 144.35,169.54 144.66,169.44C144.96,169.34 145.26,169.28 145.56,169.22C145.86,169.16 146.17,169.11 146.47,169.07C146.77,169.03 147.07,168.99 147.37,168.96C147.67,168.93 147.97,168.9 148.27,168.9C148.57,168.9 148.88,168.91 149.18,168.96C149.48,169.01 149.79,169.09 150.08,169.22C150.39,169.36 150.7,169.56 150.99,169.8C151.31,170.06 151.61,170.4 151.89,170.76C152.21,171.17 152.5,171.65 152.79,172.16C153.11,172.73 153.41,173.37 153.7,174.04C154.02,174.78 154.31,175.57 154.6,176.4C154.92,177.3 155.22,178.25 155.51,179.24C155.82,180.3 156.12,181.4 156.41,182.54C156.72,183.74 157.03,184.99 157.32,186.27C157.63,187.61 157.93,188.99 158.22,190.4C158.53,191.86 158.82,193.36 159.12,194.88C159.43,196.45 159.73,198.05 160.03,199.67C160.34,201.33 160.63,203.01 160.93,204.7C161.23,206.42 161.54,208.17 161.84,209.92C162.14,211.69 162.44,213.48 162.74,215.27C163.04,217.07 163.34,218.88 163.64,220.68C163.94,222.48 164.25,224.29 164.55,226.09C164.85,227.88 165.15,229.67 165.45,231.44C165.75,233.19 166.06,234.93 166.36,236.65C166.66,238.34 166.96,240.01 167.26,241.66C167.56,243.27 167.85,244.86 168.16,246.42C168.46,247.93 168.76,249.43 169.07,250.89C169.37,252.29 169.66,253.67 169.97,255.02C170.27,256.32 170.57,257.59 170.88,258.83C171.18,260.02 171.47,261.17 171.78,262.31C172.07,263.41 172.37,264.48 172.68,265.53C172.98,266.55 173.29,267.55 173.59,268.54C173.89,269.52 174.19,270.48 174.49,271.45C174.79,272.41 175.1,273.37 175.4,274.33C175.7,275.3 176,276.27 176.3,277.26C176.6,278.26 176.91,279.27 177.21,280.29C177.51,281.33 177.81,282.39 178.11,283.45C178.41,284.53 178.71,285.64 179.01,286.74C179.31,287.85 179.62,288.98 179.92,290.1C180.22,291.22 180.49,292.44 180.82,293.45C181.1,294.3 181.42,295.76 181.73,295.77C182.02,295.78 182.35,294.5 182.63,293.78C182.95,292.96 183.23,292 183.53,291.09C183.84,290.15 184.14,289.2 184.44,288.24C184.74,287.27 185.04,286.29 185.34,285.31C185.64,284.33 185.95,283.35 186.25,282.38C186.55,281.41 186.85,280.44 187.15,279.49C187.45,278.56 187.74,277.63 188.05,276.72C188.35,275.84 188.65,274.96 188.96,274.11C189.26,273.29 189.56,272.49 189.86,271.7C190.16,270.92 190.5,270.3 190.77,269.4C191.13,268.2 191.39,266.66 191.67,265.09C192,263.23 192.28,260.98 192.58,258.96C192.88,256.97 193.17,254.99 193.48,253.06C193.77,251.2 194.07,249.35 194.38,247.57C194.68,245.87 194.98,244.19 195.29,242.58C195.58,241.06 195.88,239.58 196.19,238.17C196.48,236.86 196.78,235.59 197.1,234.4C197.39,233.32 197.68,232.28 198,231.33C198.28,230.49 198.57,229.68 198.9,229C199.18,228.42 199.47,227.86 199.81,227.46C200.09,227.14 200.39,226.82 200.71,226.73C201,226.65 201.34,226.7 201.62,226.84C201.95,227.01 202.25,227.39 202.52,227.78C202.86,228.26 203.14,228.89 203.42,229.54C203.75,230.31 204.04,231.19 204.33,232.11C204.65,233.14 204.94,234.27 205.23,235.44C205.55,236.72 205.85,238.08 206.14,239.48C206.45,240.98 206.75,242.55 207.04,244.16C207.35,245.86 207.65,247.62 207.95,249.41C208.26,251.28 208.55,253.2 208.85,255.15C209.15,257.16 209.45,259.21 209.75,261.28C210.05,263.39 210.36,265.54 210.66,267.68C210.96,269.83 211.25,272.03 211.56,274.14C211.86,276.17 212.12,278.37 212.47,280.11C212.74,281.47 213.02,283.7 213.37,283.73C213.64,283.75 214.02,282.62 214.27,281.72C214.72,280.12 214.9,277.26 215.18,274.73C215.51,271.74 215.79,268.3 216.08,264.93C216.39,261.33 216.69,257.54 216.99,253.76C217.3,249.87 217.59,245.88 217.89,241.9C218.19,237.86 218.49,233.78 218.79,229.69C219.09,225.57 219.4,221.43 219.7,217.29C220,213.15 220.3,209 220.6,204.87C220.9,200.75 221.21,196.63 221.51,192.53C221.81,188.47 222.11,184.41 222.41,180.39C222.71,176.41 223.02,172.45 223.32,168.53C223.62,164.67 223.92,160.84 224.22,157.05C224.52,153.33 224.81,149.64 225.12,146.01C225.42,142.46 225.72,138.96 226.03,135.5C226.33,132.14 226.62,128.81 226.93,125.54C227.23,122.37 227.53,119.25 227.84,116.18C228.14,113.21 228.43,110.3 228.74,107.43C229.03,104.66 229.33,101.94 229.64,99.27C229.94,96.7 230.24,94.18 230.55,91.7C230.85,89.31 231.14,86.95 231.45,84.64C231.75,82.4 232.05,80.21 232.36,78.04C232.66,75.94 232.96,73.87 233.26,71.83C233.56,69.84 233.86,67.88 234.16,65.93C234.46,64.02 234.77,62.14 235.07,60.27C235.37,58.44 235.67,56.62 235.97,54.83C236.27,53.07 236.58,51.32 236.88,49.6C237.18,47.91 237.48,46.24 237.78,44.59C238.08,42.98 238.37,41.4 238.68,39.84C238.98,38.33 239.28,36.84 239.59,35.39C239.89,34 240.18,32.63 240.49,31.3C240.78,30.04 241.09,28.8 241.4,27.61C241.69,26.49 241.99,25.4 242.3,24.36C242.59,23.4 242.89,22.47 243.21,21.6C243.5,20.81 243.79,20.04 244.11,19.35C244.39,18.74 244.68,18.15 245.01,17.66C245.29,17.23 245.59,16.82 245.92,16.53C246.2,16.29 246.51,16.07 246.82,16C247.11,15.93 247.44,15.96 247.73,16.07C248.05,16.19 248.35,16.47 248.63,16.76C248.96,17.11 249.25,17.58 249.53,18.07C249.86,18.64 250.15,19.31 250.44,20.01C250.76,20.79 251.05,21.66 251.34,22.56C251.66,23.55 251.96,24.61 252.25,25.71C252.57,26.9 252.86,28.16 253.15,29.46C253.46,30.84 253.76,32.29 254.05,33.77C254.36,35.34 254.66,36.96 254.96,38.61C255.27,40.34 255.56,42.12 255.86,43.93C256.17,45.81 256.47,47.73 256.77,49.68C257.08,51.68 257.37,53.73 257.67,55.78C257.97,57.88 258.28,60.01 258.58,62.14C258.88,64.29 259.18,66.47 259.48,68.64C259.78,70.8 260.08,72.98 260.38,75.13C260.68,77.25 260.98,79.38 261.29,81.45C261.59,83.46 261.88,85.46 262.19,87.39C262.48,89.23 262.79,91.04 263.1,92.76C263.39,94.36 263.68,95.92 264,97.38C264.29,98.71 264.58,99.99 264.9,101.18C265.19,102.24 265.49,103.25 265.81,104.18C266.1,105.01 266.39,105.79 266.71,106.51C267,107.16 267.3,107.76 267.62,108.32C267.91,108.84 268.21,109.32 268.52,109.78C268.81,110.21 269.11,110.62 269.42,111.01C269.72,111.39 270.02,111.75 270.33,112.1C270.63,112.45 270.93,112.78 271.23,113.11C271.53,113.44 271.84,113.76 272.14,114.08C272.44,114.39 272.74,114.71 273.04,115.01C273.34,115.31 273.64,115.6 273.95,115.88C274.25,116.15 274.54,116.41 274.85,116.64C275.14,116.86 275.44,117.08 275.75,117.25C276.05,117.41 276.35,117.56 276.66,117.64C276.96,117.72 277.26,117.76 277.56,117.74C277.86,117.72 278.18,117.65 278.47,117.54C278.78,117.42 279.08,117.24 279.37,117.05C279.68,116.85 279.97,116.6 280.27,116.36C280.57,116.12 280.87,115.84 281.18,115.61C281.48,115.39 281.77,115.15 282.08,115C282.37,114.86 282.69,114.72 282.99,114.71C283.29,114.7 283.61,114.77 283.89,114.92C284.22,115.1 284.51,115.42 284.79,115.78C285.13,116.21 285.42,116.79 285.7,117.39C286.03,118.11 286.32,118.95 286.6,119.83C286.93,120.85 287.22,121.98 287.51,123.16C287.83,124.48 288.12,125.9 288.41,127.38C288.73,129 289.03,130.73 289.32,132.51C289.63,134.43 289.93,136.44 290.22,138.51C290.53,140.71 290.83,143 291.12,145.34C291.43,147.8 291.73,150.35 292.03,152.94C292.34,155.64 292.63,158.42 292.93,161.23C293.24,164.14 293.54,167.11 293.84,170.11C294.15,173.18 294.44,176.3 294.74,179.44C295.04,182.63 295.34,185.86 295.64,189.08C295.94,192.32 296.25,195.6 296.55,198.84C296.85,202.07 297.15,205.31 297.45,208.5C297.75,211.63 298.05,214.76 298.36,217.8C298.66,220.74 298.95,223.66 299.26,226.46C299.55,229.11 299.84,231.72 300.16,234.17C300.45,236.42 300.75,238.61 301.07,240.61C301.35,242.37 301.64,244.07 301.97,245.55C302.25,246.79 302.53,247.97 302.88,248.93C303.15,249.67 303.41,250.41 303.78,250.85C304.05,251.17 304.37,251.47 304.68,251.5C304.97,251.53 305.32,251.3 305.59,251.06C305.94,250.75 306.21,250.21 306.49,249.69C306.82,249.07 307.11,248.31 307.4,247.55C307.72,246.71 308.01,245.77 308.3,244.84C308.61,243.86 308.91,242.82 309.21,241.79C309.51,240.74 309.81,239.67 310.11,238.62C310.41,237.58 310.7,236.53 311.01,235.53C311.31,234.57 311.61,233.61 311.92,232.71C312.21,231.88 312.5,231.06 312.82,230.32C313.11,229.66 313.4,229.02 313.73,228.49C314.01,228.04 314.29,227.59 314.63,227.31C314.91,227.08 315.23,226.88 315.53,226.87C315.83,226.86 316.16,227.01 316.44,227.21C316.78,227.46 317.06,227.92 317.34,228.38C317.68,228.94 317.97,229.65 318.25,230.38C318.58,231.23 318.87,232.2 319.15,233.21C319.47,234.34 319.76,235.57 320.05,236.85C320.37,238.25 320.67,239.74 320.96,241.27C321.27,242.92 321.57,244.64 321.86,246.41C322.17,248.28 322.47,250.22 322.77,252.2C323.08,254.27 323.37,256.4 323.67,258.56C323.98,260.79 324.28,263.08 324.58,265.38C324.88,267.72 325.18,270.11 325.48,272.49C325.78,274.88 326.08,277.3 326.38,279.67C326.68,282 326.98,284.35 327.29,286.58C327.58,288.69 327.87,290.79 328.19,292.72C328.48,294.44 328.77,296.12 329.1,297.6C329.38,298.85 329.66,300.03 330,301.02C330.27,301.81 330.54,302.58 330.9,303.11C331.17,303.5 331.48,303.92 331.81,304C332.09,304.07 332.44,303.94 332.71,303.74C333.07,303.47 333.35,302.89 333.62,302.32C333.98,301.56 334.24,300.55 334.52,299.52C334.85,298.3 335.13,296.85 335.42,295.45C335.73,293.95 336.03,292.35 336.33,290.79C336.63,289.2 336.93,287.59 337.23,286C337.53,284.42 337.84,282.84 338.14,281.28C338.44,279.75 338.73,278.22 339.04,276.73C339.34,275.28 339.64,273.84 339.95,272.44C340.25,271.1 340.54,269.78 340.85,268.52C341.14,267.34 341.43,266.18 341.75,265.09C342.04,264.09 342.34,263.12 342.66,262.23C342.95,261.43 343.23,260.67 343.56,260C343.84,259.42 344.14,258.86 344.47,258.43C344.75,258.07 345.04,257.73 345.37,257.55C345.65,257.4 345.98,257.3 346.27,257.34C346.58,257.38 346.9,257.57 347.18,257.8C347.51,258.07 347.8,258.48 348.08,258.9C348.41,259.39 348.7,259.99 348.99,260.61C349.31,261.3 349.6,262.07 349.89,262.87C350.2,263.74 350.5,264.68 350.79,265.64C351.1,266.67 351.41,267.74 351.7,268.84C352.01,269.99 352.3,271.19 352.6,272.4C352.91,273.65 353.21,274.94 353.51,276.22C353.81,277.51 354.1,278.84 354.41,280.11C354.71,281.33 354.98,282.64 355.32,283.68C355.6,284.52 355.81,285.54 356.22,285.9C356.48,286.13 356.83,286.19 357.12,286.14C357.44,286.08 357.74,285.73 358.03,285.48C358.34,285.22 358.63,284.9 358.93,284.6C359.23,284.3 359.54,283.98 359.84,283.67C360.14,283.36 360.44,283.05 360.74,282.74C361.04,282.43 361.34,282.12 361.64,281.8C361.94,281.48 362.25,281.16 362.55,280.82C362.85,280.48 363.15,280.13 363.45,279.76C363.76,279.38 364.06,278.99 364.36,278.59C364.67,278.17 364.96,277.73 365.26,277.29C365.56,276.83 365.86,276.36 366.16,275.89C366.46,275.41 366.77,274.91 367.07,274.43C367.37,273.95 367.67,273.47 367.97,273C368.27,272.54 368.57,272.08 368.88,271.65C369.18,271.24 369.47,270.83 369.78,270.46C370.07,270.11 370.37,269.77 370.68,269.47C370.97,269.19 371.28,268.92 371.59,268.7C371.88,268.49 372.18,268.31 372.49,268.16C372.79,268.02 373.09,267.91 373.4,267.83C373.7,267.75 374,267.71 374.3,267.67C374.6,267.62 374.91,267.64 375.21,267.56C375.52,267.48 375.84,267.41 376.11,267.2C376.45,266.93 376.75,266.48 377.01,265.94C377.39,265.17 377.64,264.04 377.92,262.92C378.26,261.54 378.53,259.88 378.82,258.25C379.14,256.48 379.43,254.57 379.73,252.68C380.04,250.72 380.33,248.69 380.63,246.67C380.93,244.62 381.23,242.54 381.53,240.46C381.83,238.37 382.14,236.27 382.44,234.18C382.74,232.09 383.04,229.99 383.34,227.9C383.64,225.83 383.95,223.75 384.25,221.7C384.55,219.67 384.85,217.64 385.15,215.64C385.45,213.67 385.75,211.71 386.05,209.77C386.35,207.87 386.65,205.99 386.96,204.14C387.26,202.34 387.55,200.55 387.86,198.8C388.16,197.1 388.46,195.43 388.77,193.79C389.07,192.21 389.36,190.66 389.67,189.15C389.97,187.7 390.27,186.28 390.58,184.91C390.87,183.6 391.17,182.32 391.48,181.09C391.77,179.93 392.07,178.79 392.38,177.71C392.67,176.7 392.98,175.71 393.29,174.78C393.58,173.92 393.87,173.09 394.19,172.31C394.48,171.6 394.78,170.92 395.1,170.29C395.39,169.72 395.68,169.19 396,168.71C396.29,168.28 396.58,167.88 396.9,167.54C397.19,167.24 397.49,166.97 397.81,166.76C398.1,166.57 398.4,166.41 398.71,166.32C399.01,166.23 399.32,166.19 399.62,166.2C399.92,166.21 400.23,166.26 400.52,166.35C400.83,166.44 401.12,166.58 401.42,166.74C401.73,166.9 402.03,167.1 402.33,167.31C402.64,167.53 402.93,167.79 403.23,168.05C403.54,168.32 403.84,168.62 404.14,168.93C404.45,169.25 404.74,169.59 405.04,169.94C405.35,170.3 405.65,170.67 405.95,171.05C406.26,171.44 406.55,171.85 406.85,172.26C407.15,172.69 407.45,173.13 407.75,173.57C408.05,174.02 408.36,174.48 408.66,174.95C408.96,175.43 409.26,175.92 409.56,176.41C409.86,176.91 410.17,177.42 410.47,177.93C410.77,178.45 411.07,178.98 411.37,179.52C411.67,180.06 411.97,180.62 412.27,181.17C412.57,181.73 412.88,182.29 413.18,182.86C413.48,183.43 413.78,184.01 414.08,184.59C414.38,185.18 414.69,185.77 414.99,186.36C415.29,186.96 415.59,187.57 415.89,188.17C416.19,188.78 416.49,189.38 416.79,189.99C417.09,190.6 417.4,191.21 417.7,191.82C418,192.43 418.3,193.04 418.6,193.64C418.9,194.24 419.21,194.84 419.51,195.43C419.81,196.01 420.11,196.59 420.41,197.16C420.71,197.72 421.01,198.27 421.32,198.8C421.62,199.31 421.91,199.82 422.22,200.3C422.51,200.76 422.81,201.21 423.12,201.62C423.41,202.01 423.72,202.39 424.03,202.73C424.32,203.05 424.62,203.34 424.93,203.61C425.22,203.86 425.53,204.08 425.84,204.29C426.14,204.49 426.44,204.66 426.74,204.83C427.04,204.99 427.34,205.14 427.64,205.29C427.94,205.45 428.25,205.59 428.55,205.76C428.85,205.93 429.15,206.11 429.45,206.31C429.76,206.51 430.06,206.73 430.36,206.97C430.67,207.22 430.97,207.5 431.26,207.79C431.57,208.1 431.87,208.44 432.16,208.79C432.47,209.16 432.77,209.56 433.07,209.98C433.38,210.42 433.68,210.88 433.97,211.35C434.28,211.85 434.58,212.37 434.88,212.9C435.19,213.45 435.49,214.03 435.78,214.62C436.09,215.23 436.38,215.86 436.68,216.5C436.99,217.16 437.29,217.83 437.59,218.52C437.9,219.23 438.19,219.95 438.49,220.68C438.8,221.43 439.1,222.19 439.4,222.96C439.71,223.75 440,224.55 440.3,225.36C440.6,226.18 440.91,227.02 441.21,227.86C441.51,228.72 441.81,229.59 442.11,230.46C442.41,231.35 442.71,232.25 443.01,233.15C443.31,234.07 443.62,235 443.92,235.93C444.22,236.88 444.52,237.83 444.82,238.79C445.12,239.76 445.43,240.74 445.73,241.73C446.03,242.73 446.33,243.73 446.63,244.74C446.93,245.76 447.23,246.79 447.53,247.82C447.83,248.86 448.14,249.91 448.44,250.96C448.74,252.02 449.04,253.08 449.34,254.15C449.64,255.23 449.95,256.31 450.25,257.39C450.55,258.48 450.85,259.58 451.15,260.67C451.45,261.77 451.75,262.86 452.05,263.96C452.35,265.06 452.66,266.17 452.96,267.27C453.26,268.37 453.56,269.47 453.86,270.56C454.16,271.65 454.47,272.74 454.77,273.82C455.07,274.89 455.37,275.96 455.67,277.01C455.97,278.05 456.27,279.09 456.58,280.11C456.88,281.11 457.18,282.1 457.48,283.06C457.78,283.99 458.07,284.92 458.38,285.81C458.68,286.66 458.98,287.51 459.29,288.3C459.58,289.04 459.87,289.76 460.19,290.42C460.48,291.01 460.77,291.6 461.1,292.08Q461.38,292.49 462,293.14" style="vector-effect: non-scaling-stroke; fill: none; stroke: rgb(231, 107, 243); stroke-opacity: 1; stroke-width: 2px; opacity: 1;"/></g><g class="points"/><g class="text"/></g></g></g><g class="overplot"/><path class="xlines-above crisp" d="M0,0" style="fill: none;"/><path class="ylines-above crisp" d="M0,0" style="fill: none;"/><g class="overlines-above"/><g class="xaxislayer-above"><g class="xtick"><text text-anchor="middle" x="0" y="433" transform="translate(80,0)" style="font-family: 'Open Sans', verdana, arial, sans-serif; font-size: 12px; fill: rgb(42, 63, 95); fill-opacity: 1; white-space: pre;">0</text></g><g class="xtick"><text text-anchor="middle" x="0" y="433" transform="translate(170.23000000000002,0)" style="font-family: 'Open Sans', verdana, arial, sans-serif; font-size: 12px; fill: rgb(42, 63, 95); fill-opacity: 1; white-space: pre;">100</text></g><g class="xtick"><text text-anchor="middle" x="0" y="433" transform="translate(260.47,0)" style="font-family: 'Open Sans', verdana, arial, sans-serif; font-size: 12px; fill: rgb(42, 63, 95); fill-opacity: 1; white-space: pre;">200</text></g><g class="xtick"><text text-anchor="middle" x="0" y="433" transform="translate(350.7,0)" style="font-family: 'Open Sans', verdana, arial, sans-serif; font-size: 12px; fill: rgb(42, 63, 95); fill-opacity: 1; white-space: pre;">300</text></g><g class="xtick"><text text-anchor="middle" x="0" y="433" transform="translate(440.94,0)" style="font-family: 'Open Sans', verdana, arial, sans-serif; font-size: 12px; fill: rgb(42, 63, 95); fill-opacity: 1; white-space: pre;">400</text></g><g class="xtick"><text text-anchor="middle" x="0" y="433" transform="translate(531.1700000000001,0)" style="font-family: 'Open Sans', verdana, arial, sans-serif; font-size: 12px; fill: rgb(42, 63, 95); fill-opacity: 1; white-space: pre;">500</text></g></g><g class="yaxislayer-above"><g class="ytick"><text text-anchor="end" x="79" y="4.199999999999999" transform="translate(0,390.35)" style="font-family: 'Open Sans', verdana, arial, sans-serif; font-size: 12px; fill: rgb(42, 63, 95); fill-opacity: 1; white-space: pre;">5</text></g><g class="ytick"><text text-anchor="end" x="79" y="4.199999999999999" transform="translate(0,335.03)" style="font-family: 'Open Sans', verdana, arial, sans-serif; font-size: 12px; fill: rgb(42, 63, 95); fill-opacity: 1; white-space: pre;">10</text></g><g class="ytick"><text text-anchor="end" x="79" y="4.199999999999999" transform="translate(0,279.71000000000004)" style="font-family: 'Open Sans', verdana, arial, sans-serif; font-size: 12px; fill: rgb(42, 63, 95); fill-opacity: 1; white-space: pre;">15</text></g><g class="ytick"><text text-anchor="end" x="79" y="4.199999999999999" transform="translate(0,224.39)" style="font-family: 'Open Sans', verdana, arial, sans-serif; font-size: 12px; fill: rgb(42, 63, 95); fill-opacity: 1; white-space: pre;">20</text></g><g class="ytick"><text text-anchor="end" x="79" y="4.199999999999999" transform="translate(0,169.07)" style="font-family: 'Open Sans', verdana, arial, sans-serif; font-size: 12px; fill: rgb(42, 63, 95); fill-opacity: 1; white-space: pre;">25</text></g><g class="ytick"><text text-anchor="end" x="79" y="4.199999999999999" transform="translate(0,113.75)" style="font-family: 'Open Sans', verdana, arial, sans-serif; font-size: 12px; fill: rgb(42, 63, 95); fill-opacity: 1; white-space: pre;">30</text></g></g><g class="overaxes-above"/></g></g><g class="polarlayer"/><g class="ternarylayer"/><g class="geolayer"/><g class="funnelarealayer"/><g class="pielayer"/><g class="treemaplayer"/><g class="sunburstlayer"/><g class="glimages"/><defs id="topdefs-58a32d"><g class="clips"/><clipPath id="legend58a32d"><rect width="137" height="67" x="0" y="0"/></clipPath></defs><g class="layer-above"><g class="imagelayer"/><g class="shapelayer"/></g><g class="infolayer"><g class="legend" pointer-events="all" transform="translate(551.24, 100)"><rect class="bg" shape-rendering="crispEdges" width="137" height="67" x="0" y="0" style="stroke: rgb(68, 68, 68); stroke-opacity: 1; fill: rgb(255, 255, 255); fill-opacity: 1; stroke-width: 0px;"/><g class="scrollbox" transform="translate(0, 0)" clip-path="url('#legend58a32d')"><g class="groups"><g class="traces" transform="translate(0, 14.5)" style="opacity: 1;"><text class="legendtext" text-anchor="start" x="40" y="4.680000000000001" style="font-family: 'Open Sans', verdana, arial, sans-serif; font-size: 12px; fill: rgb(42, 63, 95); fill-opacity: 1; white-space: pre;">Average Class I</text><g class="layers" style="opacity: 1;"><g class="legendfill"/><g class="legendlines"><path class="js-line" d="M5,0h30" style="fill: none; stroke: rgb(0, 100, 80); stroke-opacity: 1; stroke-width: 2px;"/></g><g class="legendsymbols"><g class="legendpoints"/></g></g><rect class="legendtoggle" x="0" y="-9.5" width="131.15625" height="19" style="fill: rgb(0, 0, 0); fill-opacity: 0;"/></g><g class="traces" transform="translate(0, 33.5)" style="opacity: 1;"><text class="legendtext" text-anchor="start" x="40" y="4.680000000000001" style="font-family: 'Open Sans', verdana, arial, sans-serif; font-size: 12px; fill: rgb(42, 63, 95); fill-opacity: 1; white-space: pre;">Average Class II</text><g class="layers" style="opacity: 1;"><g class="legendfill"/><g class="legendlines"><path class="js-line" d="M5,0h30" style="fill: none; stroke: rgb(0, 176, 246); stroke-opacity: 1; stroke-width: 2px;"/></g><g class="legendsymbols"><g class="legendpoints"/></g></g><rect class="legendtoggle" x="0" y="-9.5" width="131.15625" height="19" style="fill: rgb(0, 0, 0); fill-opacity: 0;"/></g><g class="traces" transform="translate(0, 52.5)" style="opacity: 1;"><text class="legendtext" text-anchor="start" x="40" y="4.680000000000001" style="font-family: 'Open Sans', verdana, arial, sans-serif; font-size: 12px; fill: rgb(42, 63, 95); fill-opacity: 1; white-space: pre;">Average Class III</text><g class="layers" style="opacity: 1;"><g class="legendfill"/><g class="legendlines"><path class="js-line" d="M5,0h30" style="fill: none; stroke: rgb(231, 107, 243); stroke-opacity: 1; stroke-width: 2px;"/></g><g class="legendsymbols"><g class="legendpoints"/></g></g><rect class="legendtoggle" x="0" y="-9.5" width="131.15625" height="19" style="fill: rgb(0, 0, 0); fill-opacity: 0;"/></g></g></g><rect class="scrollbar" rx="20" ry="3" width="0" height="0" x="0" y="0" style="fill: rgb(128, 139, 164); fill-opacity: 1;"/></g><g class="g-gtitle"><text class="gtitle" x="35" y="50" text-anchor="start" dy="0em" style="font-family: 'Open Sans', verdana, arial, sans-serif; font-size: 17px; fill: rgb(42, 63, 95); opacity: 1; font-weight: normal; white-space: pre;">Average curve: betha-structure_group</text></g><g class="g-xtitle"><text class="xtitle" x="311" y="460.8" text-anchor="middle" style="font-family: 'Open Sans', verdana, arial, sans-serif; font-size: 14px; fill: rgb(42, 63, 95); opacity: 1; font-weight: normal; white-space: pre;">Domain</text></g><g class="g-ytitle"><text class="ytitle" transform="rotate(-90,40.840625,260)" x="40.840625" y="260" text-anchor="middle" style="font-family: 'Open Sans', verdana, arial, sans-serif; font-size: 14px; fill: rgb(42, 63, 95); opacity: 1; font-weight: normal; white-space: pre;">Frequency</text></g></g></svg>