<svg class="main-svg" xmlns="http://www.w3.org/2000/svg" xmlns:xlink="http://www.w3.org/1999/xlink" width="700" height="500" style="" viewBox="0 0 700 500"><rect x="0" y="0" width="700" height="500" style="fill: rgb(255, 255, 255); fill-opacity: 1;"/><defs id="defs-79eb94"><g class="clips"><clipPath id="clip79eb94xyplot" class="plotclip"><rect width="462" height="320"/></clipPath><clipPath class="axesclip" id="clip79eb94x"><rect x="80" y="0" width="462" height="500"/></clipPath><clipPath class="axesclip" id="clip79eb94y"><rect x="0" y="100" width="700" height="320"/></clipPath><clipPath class="axesclip" id="clip79eb94xy"><rect x="80" y="100" width="462" height="320"/></clipPath></g><g class="gradients"/></defs><g class="bglayer"><rect class="bg" x="80" y="100" width="462" height="320" style="fill: rgb(229, 236, 246); fill-opacity: 1; stroke-width: 0;"/></g><g class="layer-below"><g class="imagelayer"/><g class="shapelayer"/></g><g class="cartesianlayer"><g class="subplot xy"><g class="layer-subplot"><g class="shapelayer"/><g class="imagelayer"/></g><g class="gridlayer"><g class="x"><path class="xgrid crisp" transform="translate(170.23000000000002,0)" d="M0,100v320" style="stroke: rgb(255, 255, 255); stroke-opacity: 1; stroke-width: 1px;"/><path class="xgrid crisp" transform="translate(260.47,0)" d="M0,100v320" style="stroke: rgb(255, 255, 255); stroke-opacity: 1; stroke-width: 1px;"/><path class="xgrid crisp" transform="translate(350.7,0)" d="M0,100v320" style="stroke: rgb(255, 255, 255); stroke-opacity: 1; stroke-width: 1px;"/><path class="xgrid crisp" transform="translate(440.94,0)" d="M0,100v320" style="stroke: rgb(255, 255, 255); stroke-opacity: 1; stroke-width: 1px;"/><path class="xgrid crisp" transform="translate(531.1700000000001,0)" d="M0,100v320" style="stroke: rgb(255, 255, 255); stroke-opacity: 1; stroke-width: 1px;"/></g><g class="y"><path class="ygrid crisp" transform="translate(0,385.17)" d="M80,0h462" style="stroke: rgb(255, 255, 255); stroke-opacity: 1; stroke-width: 1px;"/><path class="ygrid crisp" transform="translate(0,335.7)" d="M80,0h462" style="stroke: rgb(255, 255, 255); stroke-opacity: 1; stroke-width: 1px;"/><path class="ygrid crisp" transform="translate(0,286.23)" d="M80,0h462" style="stroke: rgb(255, 255, 255); stroke-opacity: 1; stroke-width: 1px;"/><path class="ygrid crisp" transform="translate(0,236.76)" d="M80,0h462" style="stroke: rgb(255, 255, 255); stroke-opacity: 1; stroke-width: 1px;"/><path class="ygrid crisp" transform="translate(0,187.29000000000002)" d="M80,0h462" style="stroke: rgb(255, 255, 255); stroke-opacity: 1; stroke-width: 1px;"/><path class="ygrid crisp" transform="translate(0,137.82)" d="M80,0h462" style="stroke: rgb(255, 255, 255); stroke-opacity: 1; stroke-width: 1px;"/></g></g><g class="zerolinelayer"><path class="xzl zl crisp" transform="translate(80,0)" d="M0,100v320" style="stroke: rgb(255, 255, 255); stroke-opacity: 1; stroke-width: 2px;"/></g><path class="xlines-below"/><path class="ylines-below"/><g class="overlines-below"/><g class="xaxislayer-below"/><g class="yaxislayer-below"/><g class="overaxes-below"/><g class="plot" transform="translate(80, 100)" clip-path="url('#clip79eb94xyplot')"><g class="scatterlayer mlayer"><g class="trace scatter trace7f74b0" style="stroke-miterlimit: 2; opacity: 1;"><g class="fills"/><g class="errorbars"/><g class="lines"><path class="js-line" d="M0,16Q0.62,16.17 0.9,16.38C1.24,16.63 1.53,17.06 1.81,17.5C2.15,18.03 2.43,18.7 2.71,19.39C3.04,20.19 3.33,21.09 3.62,22.03C3.94,23.09 4.23,24.24 4.52,25.44C4.84,26.76 5.13,28.16 5.42,29.61C5.73,31.18 6.04,32.84 6.33,34.54C6.64,36.36 6.94,38.26 7.23,40.2C7.54,42.26 7.85,44.39 8.14,46.57C8.45,48.86 8.74,51.23 9.04,53.64C9.35,56.16 9.65,58.74 9.95,61.36C10.26,64.08 10.55,66.87 10.85,69.69C11.15,72.6 11.45,75.57 11.75,78.57C12.06,81.66 12.36,84.8 12.66,87.96C12.96,91.19 13.26,94.47 13.56,97.76C13.86,101.11 14.17,104.5 14.47,107.9C14.77,111.33 15.07,114.8 15.37,118.26C15.67,121.74 15.97,125.23 16.27,128.71C16.57,132.17 16.88,135.64 17.18,139.08C17.48,142.47 17.77,145.87 18.08,149.2C18.38,152.45 18.68,155.68 18.99,158.83C19.29,161.86 19.58,164.86 19.89,167.76C20.18,170.51 20.48,173.22 20.79,175.8C21.08,178.21 21.38,180.56 21.7,182.79C21.99,184.83 22.28,186.8 22.6,188.66C22.89,190.35 23.19,191.99 23.51,193.49C23.79,194.8 24.08,196.07 24.41,197.16C24.69,198.07 24.92,199.1 25.32,199.62C25.58,199.96 25.93,200.28 26.22,200.25C26.53,200.22 26.85,199.73 27.12,199.34C27.47,198.83 27.73,198.02 28.03,197.34C28.34,196.63 28.62,195.88 28.93,195.17C29.23,194.48 29.53,193.79 29.84,193.13C30.14,192.49 30.44,191.88 30.74,191.26C31.04,190.64 31.34,190.03 31.64,189.41C31.94,188.78 32.24,188.12 32.55,187.52C32.84,186.95 33.13,186.38 33.45,185.9C33.74,185.47 34.03,185.06 34.36,184.75C34.64,184.48 34.94,184.23 35.26,184.11C35.55,184 35.87,183.96 36.16,184.01C36.47,184.06 36.79,184.24 37.07,184.45C37.4,184.69 37.69,185.05 37.97,185.43C38.29,185.86 38.59,186.38 38.88,186.91C39.2,187.49 39.48,188.13 39.78,188.76C40.08,189.41 40.38,190.09 40.68,190.75C40.98,191.39 41.28,192.05 41.59,192.66C41.88,193.24 42.19,193.78 42.49,194.32C42.79,194.86 43.11,195.34 43.4,195.9C43.71,196.5 44.01,197.14 44.3,197.81C44.61,198.53 44.92,199.29 45.21,200.08C45.52,200.93 45.82,201.83 46.11,202.76C46.42,203.75 46.72,204.79 47.01,205.86C47.32,206.99 47.62,208.17 47.92,209.37C48.23,210.63 48.52,211.92 48.82,213.24C49.13,214.61 49.43,216.01 49.73,217.43C50.04,218.88 50.33,220.36 50.63,221.85C50.93,223.36 51.23,224.9 51.53,226.43C51.83,227.97 52.14,229.53 52.44,231.07C52.74,232.59 53.03,234.11 53.34,235.6C53.64,237.05 53.94,238.49 54.25,239.9C54.55,241.28 54.85,242.63 55.15,243.99C55.45,245.33 55.75,246.67 56.05,247.99C56.35,249.3 56.65,250.61 56.96,251.88C57.26,253.1 57.54,254.33 57.86,255.47C58.15,256.51 58.43,257.57 58.77,258.45C59.05,259.17 59.33,259.85 59.67,260.38C59.95,260.81 60.24,261.22 60.58,261.45C60.86,261.63 61.19,261.78 61.48,261.74C61.79,261.7 62.11,261.43 62.38,261.15C62.73,260.79 63.01,260.2 63.29,259.63C63.62,258.95 63.9,258.14 64.19,257.32C64.51,256.4 64.81,255.41 65.1,254.38C65.41,253.27 65.71,252.09 66,250.89C66.31,249.63 66.6,248.31 66.9,247C67.2,245.67 67.51,244.31 67.81,242.96C68.11,241.62 68.41,240.26 68.71,238.93C69.01,237.61 69.31,236.3 69.62,235.01C69.92,233.75 70.22,232.5 70.52,231.27C70.82,230.08 71.11,228.9 71.42,227.76C71.72,226.66 72.02,225.58 72.33,224.53C72.62,223.53 72.92,222.55 73.23,221.61C73.52,220.71 73.83,219.84 74.14,219C74.43,218.22 74.73,217.46 75.04,216.74C75.33,216.07 75.64,215.42 75.95,214.81C76.24,214.25 76.54,213.71 76.85,213.21C77.14,212.75 77.44,212.32 77.75,211.91C78.04,211.53 78.35,211.18 78.66,210.83C78.96,210.49 79.26,210.17 79.56,209.85C79.86,209.54 80.16,209.23 80.47,208.95C80.77,208.68 81.06,208.42 81.37,208.18C81.66,207.95 81.96,207.72 82.27,207.56C82.56,207.41 82.87,207.29 83.18,207.24C83.48,207.19 83.78,207.2 84.08,207.26C84.39,207.32 84.7,207.45 84.99,207.62C85.31,207.8 85.6,208.07 85.89,208.35C86.21,208.66 86.5,209.04 86.79,209.43C87.11,209.86 87.41,210.34 87.7,210.85C88.01,211.4 88.31,211.99 88.6,212.61C88.91,213.27 89.22,213.97 89.51,214.69C89.82,215.46 90.12,216.26 90.41,217.08C90.72,217.94 91.02,218.83 91.32,219.74C91.63,220.69 91.92,221.66 92.22,222.65C92.52,223.67 92.82,224.71 93.12,225.77C93.43,226.86 93.73,227.97 94.03,229.09C94.34,230.24 94.63,231.41 94.93,232.58C95.23,233.77 95.54,234.99 95.84,236.19C96.14,237.39 96.43,238.62 96.74,239.77C97.03,240.86 97.33,241.93 97.64,242.93C97.93,243.86 98.24,244.72 98.55,245.59C98.85,246.43 99.14,247.26 99.45,248.06C99.74,248.82 100.04,249.59 100.36,250.26C100.65,250.86 100.92,251.48 101.26,251.9C101.53,252.24 101.84,252.58 102.16,252.67C102.45,252.75 102.79,252.65 103.07,252.5C103.4,252.33 103.69,251.97 103.97,251.62C104.3,251.22 104.59,250.72 104.88,250.22C105.19,249.69 105.48,249.1 105.78,248.53C106.08,247.96 106.38,247.37 106.68,246.79C106.98,246.21 107.29,245.63 107.59,245.05C107.89,244.48 108.19,243.92 108.49,243.35C108.79,242.79 109.1,242.23 109.4,241.66C109.7,241.09 110,240.52 110.3,239.94C110.6,239.36 110.91,238.77 111.21,238.18C111.51,237.58 111.81,236.98 112.11,236.37C112.41,235.76 112.71,235.14 113.01,234.52C113.31,233.88 113.62,233.24 113.92,232.59C114.22,231.93 114.52,231.25 114.82,230.57C115.12,229.88 115.43,229.18 115.73,228.49C116.03,227.8 116.33,227.1 116.63,226.41C116.93,225.73 117.23,225.04 117.53,224.37C117.83,223.71 118.13,223.05 118.44,222.4C118.74,221.77 119.03,221.15 119.34,220.54C119.64,219.95 119.94,219.36 120.25,218.8C120.55,218.26 120.84,217.72 121.15,217.21C121.45,216.71 121.74,216.22 122.05,215.76C122.35,215.32 122.65,214.89 122.96,214.48C123.25,214.09 123.55,213.72 123.86,213.37C124.16,213.03 124.46,212.72 124.77,212.42C125.06,212.14 125.36,211.87 125.67,211.63C125.97,211.4 126.27,211.19 126.58,211.01C126.88,210.83 127.18,210.68 127.48,210.55C127.78,210.42 128.08,210.31 128.38,210.23C128.68,210.15 128.99,210.1 129.29,210.07C129.59,210.04 129.89,210.03 130.19,210.04C130.49,210.05 130.8,210.09 131.1,210.14C131.4,210.2 131.7,210.27 132,210.37C132.3,210.47 132.6,210.59 132.9,210.73C133.21,210.87 133.51,211.03 133.81,211.2C134.12,211.38 134.41,211.58 134.71,211.78C135.02,211.99 135.32,212.21 135.62,212.44C135.92,212.67 136.22,212.92 136.52,213.16C136.82,213.4 137.12,213.64 137.42,213.88C137.72,214.12 138.03,214.35 138.33,214.58C138.63,214.8 138.91,215.09 139.23,215.23C139.52,215.36 139.84,215.43 140.14,215.44C140.44,215.45 140.74,215.33 141.04,215.28C141.34,215.22 141.65,215.15 141.95,215.11C142.25,215.07 142.55,215.03 142.85,215.02C143.15,215.01 143.45,215.02 143.75,215.06C144.05,215.1 144.36,215.17 144.66,215.26C144.97,215.36 145.27,215.48 145.56,215.63C145.87,215.79 146.17,215.98 146.47,216.19C146.78,216.41 147.08,216.66 147.37,216.93C147.68,217.21 147.98,217.53 148.27,217.86C148.58,218.21 148.88,218.58 149.18,218.97C149.49,219.38 149.78,219.81 150.08,220.26C150.39,220.73 150.69,221.22 150.99,221.72C151.3,222.24 151.6,222.78 151.89,223.33C152.2,223.9 152.49,224.49 152.79,225.09C153.1,225.7 153.4,226.33 153.7,226.96C154,227.61 154.3,228.27 154.6,228.93C154.9,229.61 155.21,230.3 155.51,230.99C155.81,231.69 156.11,232.39 156.41,233.09C156.71,233.8 157.02,234.52 157.32,235.24C157.62,235.96 157.92,236.69 158.22,237.41C158.52,238.14 158.82,238.86 159.12,239.59C159.42,240.32 159.73,241.06 160.03,241.8C160.33,242.55 160.63,243.3 160.93,244.05C161.23,244.81 161.54,245.57 161.84,246.34C162.14,247.11 162.44,247.89 162.74,248.67C163.04,249.45 163.34,250.24 163.64,251.02C163.94,251.81 164.25,252.6 164.55,253.38C164.85,254.16 165.15,254.94 165.45,255.71C165.75,256.47 166.05,257.23 166.36,257.97C166.66,258.69 166.95,259.42 167.26,260.11C167.55,260.77 167.85,261.42 168.16,262.01C168.45,262.56 168.75,263.08 169.07,263.56C169.36,263.99 169.65,264.42 169.97,264.76C170.26,265.06 170.56,265.34 170.88,265.5C171.17,265.64 171.48,265.7 171.78,265.7C172.08,265.7 172.38,265.62 172.68,265.53C172.99,265.43 173.29,265.28 173.59,265.11C173.9,264.93 174.2,264.73 174.49,264.49C174.8,264.24 175.11,263.95 175.4,263.64C175.71,263.31 176.01,262.96 176.3,262.57C176.61,262.15 176.92,261.72 177.21,261.22C177.53,260.66 177.83,260.06 178.11,259.38C178.44,258.57 178.73,257.65 179.01,256.65C179.34,255.48 179.63,254.1 179.92,252.77C180.23,251.38 180.52,249.92 180.82,248.47C181.12,246.99 181.43,245.48 181.73,243.98C182.03,242.47 182.33,240.95 182.63,239.44C182.93,237.92 183.23,236.41 183.53,234.89C183.83,233.35 184.14,231.78 184.44,230.25C184.74,228.74 185.03,227.23 185.34,225.75C185.64,224.3 185.94,222.87 186.25,221.47C186.55,220.11 186.84,218.76 187.15,217.45C187.44,216.18 187.74,214.94 188.05,213.73C188.35,212.56 188.65,211.41 188.96,210.3C189.25,209.24 189.55,208.2 189.86,207.2C190.15,206.25 190.46,205.32 190.77,204.44C191.06,203.61 191.36,202.81 191.67,202.05C191.96,201.35 192.26,200.67 192.58,200.05C192.87,199.48 193.16,198.93 193.48,198.44C193.77,198 194.06,197.57 194.38,197.23C194.67,196.93 194.97,196.65 195.29,196.46C195.58,196.29 195.88,196.17 196.19,196.13C196.49,196.09 196.81,196.13 197.1,196.22C197.41,196.31 197.71,196.48 198,196.68C198.32,196.9 198.61,197.19 198.9,197.51C199.22,197.86 199.52,198.29 199.81,198.73C200.13,199.22 200.42,199.77 200.71,200.33C201.02,200.94 201.33,201.59 201.62,202.26C201.93,202.97 202.23,203.72 202.52,204.48C202.83,205.27 203.12,206.09 203.42,206.92C203.73,207.77 204.03,208.64 204.33,209.51C204.63,210.39 204.93,211.29 205.23,212.19C205.53,213.1 205.84,214.02 206.14,214.94C206.44,215.87 206.74,216.81 207.04,217.75C207.34,218.7 207.65,219.67 207.95,220.63C208.25,221.6 208.55,222.57 208.85,223.54C209.15,224.52 209.45,225.51 209.75,226.49C210.05,227.48 210.36,228.48 210.66,229.45C210.96,230.4 211.25,231.38 211.56,232.28C211.85,233.12 212.16,233.92 212.47,234.71C212.77,235.47 213.06,236.22 213.37,236.95C213.66,237.65 213.96,238.33 214.27,238.99C214.56,239.62 214.85,240.29 215.18,240.8C215.46,241.23 215.76,241.58 216.08,241.91C216.37,242.21 216.68,242.47 216.99,242.7C217.28,242.92 217.58,243.11 217.89,243.26C218.18,243.4 218.49,243.57 218.79,243.59C219.09,243.61 219.42,243.55 219.7,243.4C220.03,243.23 220.32,242.92 220.6,242.58C220.93,242.18 221.23,241.65 221.51,241.11C221.83,240.5 222.12,239.79 222.41,239.07C222.73,238.29 223.02,237.42 223.32,236.59C223.62,235.76 223.92,234.92 224.22,234.11C224.52,233.32 224.81,232.53 225.12,231.78C225.41,231.06 225.72,230.36 226.03,229.7C226.32,229.07 226.62,228.47 226.93,227.9C227.22,227.37 227.53,226.88 227.84,226.41C228.13,225.97 228.44,225.57 228.74,225.16C229.04,224.75 229.34,224.37 229.64,223.96C229.94,223.55 230.25,223.13 230.55,222.71C230.85,222.29 231.15,221.89 231.45,221.46C231.76,221.02 232.06,220.56 232.36,220.09C232.67,219.61 232.96,219.11 233.26,218.61C233.56,218.11 233.86,217.6 234.16,217.09C234.46,216.56 234.78,216.04 235.07,215.49C235.38,214.91 235.68,214.31 235.97,213.67C236.28,212.98 236.59,212.24 236.88,211.48C237.19,210.67 237.49,209.83 237.78,208.96C238.09,208.03 238.39,207.07 238.68,206.06C238.99,204.97 239.3,203.84 239.59,202.63C239.91,201.28 240.21,199.86 240.49,198.31C240.82,196.51 241.11,194.51 241.4,192.45C241.72,190.18 242.01,187.72 242.3,185.26C242.61,182.66 242.91,179.95 243.21,177.23C243.52,174.43 243.81,171.55 244.11,168.69C244.41,165.79 244.71,162.85 245.01,159.93C245.31,157.01 245.62,154.08 245.92,151.18C246.22,148.3 246.52,145.42 246.82,142.58C247.12,139.79 247.42,137.01 247.73,134.27C248.03,131.6 248.33,128.95 248.63,126.35C248.93,123.83 249.22,121.34 249.53,118.9C249.83,116.55 250.13,114.23 250.44,111.98C250.74,109.82 251.03,107.71 251.34,105.66C251.63,103.71 251.94,101.81 252.25,99.98C252.54,98.26 252.84,96.59 253.15,94.99C253.44,93.51 253.73,92.07 254.05,90.72C254.34,89.49 254.64,88.3 254.96,87.2C255.25,86.22 255.53,85.27 255.86,84.44C256.14,83.72 256.43,83.03 256.77,82.47C257.05,82.01 257.33,81.55 257.67,81.29C257.95,81.07 258.28,80.9 258.58,80.9C258.88,80.9 259.2,81.08 259.48,81.29C259.82,81.55 260.1,82 260.38,82.45C260.71,82.99 261.01,83.67 261.29,84.37C261.62,85.17 261.9,86.07 262.19,87.01C262.51,88.05 262.81,89.18 263.1,90.34C263.42,91.6 263.71,92.95 264,94.32C264.31,95.79 264.61,97.32 264.9,98.89C265.21,100.54 265.51,102.25 265.81,103.99C266.12,105.8 266.41,107.67 266.71,109.56C267.02,111.51 267.32,113.51 267.62,115.53C267.93,117.61 268.22,119.72 268.52,121.85C268.82,124.03 269.12,126.24 269.42,128.47C269.72,130.74 270.03,133.03 270.33,135.34C270.63,137.68 270.93,140.04 271.23,142.4C271.53,144.79 271.84,147.19 272.14,149.59C272.44,151.99 272.74,154.4 273.04,156.8C273.34,159.19 273.65,161.59 273.95,163.96C274.25,166.3 274.55,168.63 274.85,170.92C275.15,173.16 275.44,175.4 275.75,177.57C276.05,179.66 276.34,181.81 276.66,183.71C276.94,185.37 277.24,186.89 277.56,188.36C277.85,189.69 278.15,190.95 278.47,192.14C278.76,193.22 279.06,194.25 279.37,195.22C279.66,196.11 279.96,196.95 280.27,197.76C280.56,198.52 280.87,199.25 281.18,199.96C281.47,200.64 281.77,201.28 282.08,201.92C282.38,202.54 282.69,203.13 282.99,203.72C283.29,204.3 283.59,204.87 283.89,205.43C284.19,205.99 284.49,206.54 284.79,207.09C285.09,207.63 285.4,208.16 285.7,208.69C286,209.21 286.29,209.74 286.6,210.24C286.9,210.72 287.19,211.24 287.51,211.65C287.79,212.01 288.11,212.29 288.41,212.59C288.71,212.89 289.02,213.17 289.32,213.46C289.62,213.76 289.92,214.05 290.22,214.36C290.52,214.68 290.82,215 291.12,215.35C291.43,215.71 291.74,216.09 292.03,216.49C292.34,216.91 292.64,217.36 292.93,217.82C293.24,218.31 293.54,218.82 293.84,219.35C294.15,219.9 294.45,220.48 294.74,221.07C295.05,221.68 295.34,222.31 295.64,222.95C295.95,223.61 296.25,224.28 296.55,224.96C296.85,225.65 297.15,226.36 297.45,227.07C297.75,227.79 298.06,228.51 298.36,229.23C298.66,229.95 298.96,230.67 299.26,231.38C299.56,232.08 299.85,232.79 300.16,233.46C300.46,234.11 300.76,234.74 301.07,235.36C301.37,235.96 301.66,236.54 301.97,237.1C302.27,237.64 302.57,238.16 302.88,238.66C303.18,239.14 303.47,239.61 303.78,240.05C304.07,240.46 304.34,240.94 304.68,241.21C304.96,241.43 305.29,241.64 305.59,241.64C305.89,241.64 306.2,241.42 306.49,241.23C306.81,241.02 307.11,240.71 307.4,240.41C307.71,240.09 308.01,239.73 308.3,239.36C308.61,238.97 308.91,238.55 309.21,238.12C309.52,237.67 309.82,237.2 310.11,236.7C310.42,236.16 310.71,235.58 311.01,235C311.32,234.41 311.62,233.8 311.92,233.2C312.22,232.6 312.52,231.99 312.82,231.39C313.12,230.8 313.43,230.21 313.73,229.63C314.03,229.06 314.33,228.5 314.63,227.95C314.93,227.41 315.23,226.87 315.53,226.34C315.83,225.81 316.13,225.26 316.44,224.76C316.73,224.28 317.03,223.83 317.34,223.39C317.64,222.96 317.95,222.56 318.25,222.13C318.56,221.69 318.85,221.22 319.15,220.77C319.45,220.32 319.74,219.84 320.05,219.42C320.34,219.03 320.64,218.64 320.96,218.32C321.25,218.03 321.54,217.76 321.86,217.58C322.15,217.42 322.46,217.29 322.77,217.25C323.07,217.21 323.38,217.25 323.67,217.34C323.98,217.44 324.29,217.64 324.58,217.87C324.9,218.12 325.19,218.47 325.48,218.82C325.8,219.21 326.09,219.66 326.38,220.13C326.7,220.64 327,221.2 327.29,221.78C327.6,222.41 327.9,223.09 328.19,223.79C328.5,224.53 328.81,225.32 329.1,226.12C329.41,226.97 329.71,227.86 330,228.76C330.31,229.7 330.6,230.67 330.9,231.65C331.21,232.66 331.51,233.7 331.81,234.75C332.12,235.82 332.41,236.91 332.71,238C333.01,239.1 333.32,240.22 333.62,241.32C333.92,242.42 334.22,243.53 334.52,244.61C334.82,245.66 335.11,246.73 335.42,247.72C335.71,248.65 336.01,249.56 336.33,250.4C336.62,251.17 336.91,251.92 337.23,252.58C337.52,253.16 337.81,253.72 338.14,254.17C338.42,254.56 338.72,254.9 339.04,255.16C339.33,255.4 339.64,255.56 339.95,255.71C340.24,255.85 340.55,255.93 340.85,256.02C341.15,256.11 341.45,256.17 341.75,256.24C342.05,256.31 342.36,256.38 342.66,256.44C342.96,256.5 343.26,256.56 343.56,256.61C343.86,256.66 344.17,256.7 344.47,256.75C344.77,256.8 345.07,256.86 345.37,256.93C345.67,257 345.97,257.09 346.27,257.19C346.57,257.29 346.88,257.41 347.18,257.53C347.48,257.65 347.78,257.79 348.08,257.9C348.38,258.01 348.68,258.14 348.99,258.2C349.29,258.26 349.59,258.25 349.89,258.27C350.19,258.29 350.49,258.28 350.79,258.32C351.09,258.36 351.4,258.41 351.7,258.5C352.01,258.59 352.31,258.71 352.6,258.86C352.91,259.02 353.21,259.21 353.51,259.42C353.82,259.64 354.12,259.89 354.41,260.16C354.72,260.44 355.02,260.76 355.32,261.09C355.63,261.43 355.92,261.79 356.22,262.16C356.53,262.54 356.82,262.94 357.12,263.35C357.43,263.77 357.73,264.2 358.03,264.63C358.33,265.06 358.62,265.52 358.93,265.94C359.23,266.35 359.54,266.74 359.84,267.15C360.14,267.56 360.44,267.98 360.74,268.39C361.04,268.8 361.33,269.23 361.64,269.62C361.94,270 362.23,270.41 362.55,270.72C362.84,271 363.13,271.3 363.45,271.43C363.74,271.55 364.08,271.62 364.36,271.53C364.69,271.42 364.98,271.04 365.26,270.7C365.59,270.28 365.87,269.7 366.16,269.16C366.47,268.58 366.77,267.94 367.07,267.33C367.37,266.71 367.67,266.07 367.97,265.46C368.27,264.86 368.58,264.26 368.88,263.67C369.18,263.09 369.48,262.53 369.78,261.95C370.08,261.36 370.38,260.74 370.68,260.14C370.98,259.55 371.29,258.97 371.59,258.37C371.89,257.76 372.19,257.14 372.49,256.5C372.8,255.85 373.1,255.17 373.4,254.5C373.7,253.84 374,253.17 374.3,252.52C374.6,251.88 374.9,251.24 375.21,250.63C375.51,250.04 375.8,249.47 376.11,248.92C376.4,248.4 376.7,247.89 377.01,247.41C377.3,246.96 377.61,246.55 377.92,246.14C378.22,245.74 378.52,245.36 378.82,244.99C379.12,244.62 379.42,244.25 379.73,243.91C380.02,243.59 380.32,243.28 380.63,242.99C380.92,242.71 381.22,242.45 381.53,242.21C381.83,241.98 382.14,241.78 382.44,241.56C382.74,241.34 383.04,241.14 383.34,240.9C383.65,240.65 383.94,240.34 384.25,240.1C384.54,239.87 384.84,239.66 385.15,239.47C385.44,239.29 385.74,239.12 386.05,239C386.35,238.88 386.65,238.79 386.96,238.74C387.26,238.69 387.56,238.67 387.86,238.68C388.16,238.69 388.47,238.74 388.77,238.81C389.07,238.88 389.37,238.97 389.67,239.08C389.98,239.19 390.28,239.32 390.58,239.48C390.89,239.64 391.19,239.83 391.48,240.04C391.79,240.26 392.09,240.52 392.38,240.79C392.69,241.07 392.99,241.39 393.29,241.71C393.6,242.05 393.89,242.41 394.19,242.78C394.5,243.16 394.8,243.56 395.1,243.95C395.4,244.35 395.7,244.76 396,245.15C396.3,245.54 396.59,245.95 396.9,246.3C397.19,246.63 397.48,246.99 397.81,247.2C398.09,247.38 398.4,247.5 398.71,247.55C399.01,247.6 399.32,247.58 399.62,247.52C399.93,247.46 400.23,247.32 400.52,247.17C400.83,247.01 401.13,246.78 401.42,246.55C401.73,246.31 402.03,246.03 402.33,245.74C402.64,245.45 402.93,245.12 403.23,244.81C403.53,244.5 403.84,244.18 404.14,243.86C404.44,243.54 404.74,243.23 405.04,242.91C405.34,242.58 405.64,242.23 405.95,241.92C406.25,241.62 406.54,241.33 406.85,241.07C407.14,240.83 407.44,240.6 407.75,240.41C408.05,240.23 408.36,240.09 408.66,239.94C408.96,239.8 409.27,239.72 409.56,239.54C409.88,239.35 410.18,239.09 410.47,238.8C410.79,238.48 411.09,238.09 411.37,237.67C411.69,237.2 411.97,236.61 412.27,236.08C412.57,235.54 412.87,234.98 413.18,234.46C413.47,233.96 413.77,233.47 414.08,233.03C414.37,232.62 414.67,232.23 414.99,231.89C415.28,231.58 415.58,231.3 415.89,231.08C416.18,230.88 416.48,230.71 416.79,230.61C417.08,230.52 417.4,230.48 417.7,230.5C418,230.52 418.31,230.6 418.6,230.72C418.91,230.85 419.22,231.06 419.51,231.28C419.82,231.52 420.12,231.82 420.41,232.14C420.72,232.48 421.03,232.87 421.32,233.27C421.63,233.7 421.93,234.16 422.22,234.64C422.53,235.15 422.83,235.69 423.12,236.25C423.43,236.84 423.73,237.46 424.03,238.09C424.34,238.75 424.63,239.45 424.93,240.15C425.24,240.88 425.54,241.64 425.84,242.41C426.15,243.21 426.44,244.03 426.74,244.87C427.04,245.73 427.34,246.62 427.64,247.51C427.95,248.42 428.25,249.35 428.55,250.29C428.85,251.24 429.15,252.21 429.45,253.17C429.75,254.14 430.06,255.11 430.36,256.08C430.66,257.04 430.96,258 431.26,258.94C431.56,259.85 431.85,260.74 432.16,261.61C432.46,262.45 432.76,263.28 433.07,264.09C433.37,264.86 433.66,265.63 433.97,266.35C434.26,267.04 434.56,267.72 434.88,268.33C435.17,268.89 435.46,269.43 435.78,269.88C436.06,270.27 436.35,270.67 436.68,270.89C436.96,271.08 437.29,271.22 437.59,271.2C437.9,271.18 438.21,270.95 438.49,270.73C438.82,270.47 439.11,270.08 439.4,269.69C439.72,269.25 440.01,268.74 440.3,268.22C440.61,267.65 440.92,267.04 441.21,266.41C441.52,265.75 441.82,265.05 442.11,264.34C442.42,263.6 442.71,262.85 443.01,262.07C443.32,261.26 443.62,260.42 443.92,259.58C444.23,258.72 444.52,257.83 444.82,256.95C445.12,256.05 445.43,255.14 445.73,254.24C446.03,253.33 446.33,252.43 446.63,251.52C446.93,250.62 447.23,249.71 447.53,248.81C447.83,247.92 448.14,247.04 448.44,246.17C448.74,245.32 449.03,244.47 449.34,243.64C449.64,242.83 449.94,242.03 450.25,241.25C450.55,240.5 450.84,239.76 451.15,239.04C451.44,238.35 451.74,237.67 452.05,237.02C452.34,236.4 452.65,235.81 452.96,235.24C453.25,234.7 453.55,234.18 453.86,233.7C454.15,233.24 454.46,232.81 454.77,232.41C455.06,232.04 455.36,231.69 455.67,231.38C455.96,231.09 456.27,230.83 456.58,230.61C456.87,230.4 457.17,230.22 457.48,230.08C457.77,229.95 458.08,229.85 458.38,229.79C458.68,229.73 458.99,229.7 459.29,229.7C459.59,229.7 459.89,229.74 460.19,229.79C460.49,229.84 460.8,229.92 461.1,230Q461.4,230.07 462,230.24" style="vector-effect: non-scaling-stroke; fill: none; stroke: rgb(0, 100, 80); stroke-opacity: 1; stroke-width: 2px; opacity: 1;"/></g><g class="points"/><g class="text"/></g><g class="trace scatter tracef45280" style="stroke-miterlimit: 2; opacity: 1;"><g class="fills"/><g class="errorbars"/><g class="lines"><path class="js-line" d="M0,95.85Q0.63,96.07 0.9,96.31C1.25,96.62 1.53,97.15 1.81,97.69C2.15,98.34 2.43,99.15 2.71,99.99C3.04,100.96 3.33,102.05 3.62,103.18C3.94,104.45 4.23,105.82 4.52,107.24C4.83,108.79 5.13,110.44 5.42,112.14C5.73,113.97 6.04,115.88 6.33,117.84C6.64,119.92 6.94,122.09 7.23,124.29C7.54,126.61 7.84,128.99 8.14,131.42C8.45,133.95 8.74,136.55 9.04,139.18C9.35,141.9 9.65,144.69 9.95,147.5C10.26,150.39 10.55,153.33 10.85,156.29C11.15,159.31 11.45,162.38 11.75,165.46C12.05,168.59 12.36,171.75 12.66,174.91C12.96,178.1 13.26,181.32 13.56,184.53C13.86,187.74 14.17,190.97 14.47,194.17C14.77,197.34 15.07,200.52 15.37,203.64C15.67,206.7 15.96,209.75 16.27,212.71C16.57,215.54 16.87,218.37 17.18,221.03C17.47,223.49 17.75,225.94 18.08,228.14C18.36,230.07 18.64,231.97 18.99,233.54C19.26,234.79 19.46,236.17 19.89,236.86C20.14,237.27 20.52,237.71 20.79,237.66C21.13,237.6 21.43,236.69 21.7,236.01C22.07,235.07 22.32,233.73 22.6,232.44C22.93,230.93 23.22,229.2 23.51,227.47C23.83,225.59 24.11,223.57 24.41,221.56C24.72,219.46 25.02,217.28 25.32,215.11C25.62,212.9 25.92,210.65 26.22,208.42C26.52,206.19 26.82,203.94 27.12,201.72C27.42,199.53 27.72,197.34 28.03,195.19C28.33,193.09 28.62,191.01 28.93,188.97C29.23,187 29.53,185.05 29.84,183.15C30.14,181.33 30.43,179.55 30.74,177.82C31.03,176.18 31.33,174.59 31.64,173.05C31.93,171.6 32.24,170.19 32.55,168.85C32.84,167.6 33.13,166.4 33.45,165.26C33.74,164.22 34.04,163.21 34.36,162.28C34.65,161.44 34.94,160.63 35.26,159.9C35.54,159.25 35.83,158.63 36.16,158.1C36.44,157.64 36.74,157.21 37.07,156.89C37.35,156.61 37.65,156.36 37.97,156.24C38.26,156.13 38.59,156.1 38.88,156.16C39.19,156.22 39.5,156.4 39.78,156.62C40.1,156.87 40.4,157.24 40.68,157.62C41,158.06 41.3,158.59 41.59,159.13C41.91,159.73 42.19,160.42 42.49,161.09C42.8,161.79 43.09,162.55 43.4,163.24C43.69,163.9 44,164.5 44.3,165.15C44.61,165.83 44.92,166.5 45.21,167.23C45.52,168.01 45.82,168.84 46.11,169.7C46.42,170.62 46.72,171.59 47.01,172.58C47.32,173.63 47.63,174.73 47.92,175.85C48.23,177.04 48.53,178.27 48.82,179.53C49.13,180.85 49.43,182.2 49.73,183.59C50.04,185.04 50.34,186.53 50.63,188.05C50.94,189.63 51.23,191.24 51.53,192.88C51.84,194.58 52.14,196.31 52.44,198.06C52.75,199.86 53.04,201.7 53.34,203.56C53.65,205.46 53.95,207.39 54.25,209.34C54.55,211.32 54.85,213.33 55.15,215.34C55.45,217.37 55.75,219.43 56.05,221.47C56.35,223.5 56.66,225.55 56.96,227.56C57.26,229.53 57.55,231.51 57.86,233.41C58.15,235.22 58.45,237.03 58.77,238.72C59.06,240.27 59.34,241.81 59.67,243.18C59.95,244.37 60.24,245.54 60.58,246.49C60.85,247.25 61.1,248.06 61.48,248.47C61.74,248.75 62.1,249 62.38,248.95C62.71,248.89 63.02,248.37 63.29,247.93C63.65,247.33 63.91,246.44 64.19,245.59C64.52,244.59 64.81,243.44 65.1,242.29C65.42,241.04 65.71,239.69 66,238.34C66.31,236.92 66.6,235.46 66.9,233.98C67.21,232.46 67.51,230.9 67.81,229.35C68.11,227.78 68.41,226.19 68.71,224.61C69.01,223.03 69.32,221.45 69.62,219.89C69.92,218.36 70.22,216.83 70.52,215.33C70.82,213.87 71.11,212.43 71.42,211.03C71.72,209.69 72.02,208.36 72.33,207.09C72.62,205.88 72.92,204.7 73.23,203.57C73.52,202.51 73.83,201.48 74.14,200.51C74.43,199.61 74.72,198.75 75.04,197.95C75.33,197.22 75.63,196.53 75.95,195.9C76.24,195.34 76.53,194.81 76.85,194.36C77.13,193.96 77.43,193.6 77.75,193.32C78.04,193.08 78.35,192.87 78.66,192.75C78.95,192.64 79.26,192.6 79.56,192.61C79.86,192.62 80.18,192.71 80.47,192.83C80.78,192.95 81.08,193.13 81.37,193.34C81.68,193.56 81.98,193.83 82.27,194.13C82.58,194.45 82.89,194.81 83.18,195.2C83.5,195.62 83.79,196.09 84.08,196.59C84.4,197.14 84.7,197.74 84.99,198.37C85.31,199.06 85.6,199.79 85.89,200.56C86.2,201.39 86.5,202.26 86.79,203.16C87.1,204.13 87.41,205.14 87.7,206.18C88.01,207.28 88.31,208.43 88.6,209.6C88.91,210.84 89.22,212.11 89.51,213.42C89.82,214.8 90.11,216.22 90.41,217.67C90.72,219.19 91.02,220.74 91.32,222.33C91.63,223.99 91.93,225.69 92.22,227.42C92.53,229.21 92.82,231.04 93.12,232.89C93.43,234.8 93.73,236.74 94.03,238.7C94.34,240.71 94.63,242.76 94.93,244.82C95.23,246.91 95.54,249.03 95.84,251.15C96.14,253.3 96.44,255.47 96.74,257.63C97.04,259.79 97.34,261.97 97.64,264.13C97.94,266.26 98.24,268.41 98.55,270.5C98.85,272.52 99.13,274.56 99.45,276.44C99.74,278.15 100.01,279.92 100.36,281.34C100.63,282.46 100.88,283.57 101.26,284.29C101.52,284.78 101.84,285.36 102.16,285.41C102.44,285.45 102.81,285.11 103.07,284.78C103.46,284.29 103.69,283.36 103.97,282.52C104.3,281.52 104.59,280.33 104.88,279.16C105.2,277.88 105.49,276.51 105.78,275.14C106.09,273.71 106.38,272.22 106.68,270.73C106.98,269.21 107.29,267.67 107.59,266.13C107.89,264.58 108.19,263.03 108.49,261.48C108.79,259.94 109.1,258.39 109.4,256.86C109.7,255.34 110,253.82 110.3,252.31C110.6,250.82 110.91,249.33 111.21,247.86C111.51,246.4 111.81,244.95 112.11,243.52C112.41,242.11 112.71,240.71 113.01,239.32C113.31,237.96 113.62,236.61 113.92,235.28C114.22,233.97 114.52,232.67 114.82,231.39C115.12,230.14 115.42,228.89 115.73,227.67C116.03,226.47 116.33,225.29 116.63,224.12C116.93,222.98 117.22,221.86 117.53,220.75C117.83,219.67 118.13,218.61 118.44,217.57C118.74,216.55 119.03,215.55 119.34,214.57C119.64,213.62 119.94,212.69 120.25,211.79C120.55,210.92 120.84,210.07 121.15,209.24C121.44,208.45 121.74,207.68 122.05,206.94C122.34,206.24 122.65,205.57 122.96,204.93C123.25,204.33 123.54,203.76 123.86,203.23C124.15,202.74 124.45,202.28 124.77,201.87C125.06,201.5 125.35,201.15 125.67,200.87C125.96,200.61 126.26,200.37 126.58,200.22C126.87,200.08 127.18,199.98 127.48,199.95C127.78,199.92 128.09,199.95 128.38,200.03C128.69,200.12 129,200.28 129.29,200.47C129.6,200.67 129.9,200.94 130.19,201.23C130.51,201.54 130.81,201.91 131.1,202.29C131.41,202.7 131.71,203.15 132,203.61C132.31,204.1 132.6,204.63 132.9,205.17C133.21,205.73 133.51,206.32 133.81,206.92C134.12,207.54 134.41,208.19 134.71,208.84C135.02,209.51 135.32,210.2 135.62,210.9C135.92,211.61 136.22,212.33 136.52,213.06C136.82,213.8 137.12,214.55 137.42,215.29C137.72,216.04 138.02,216.8 138.33,217.53C138.63,218.24 138.91,218.98 139.23,219.62C139.52,220.19 139.82,220.73 140.14,221.2C140.43,221.62 140.74,221.96 141.04,222.32C141.34,222.68 141.65,223.01 141.95,223.37C142.25,223.73 142.55,224.1 142.85,224.49C143.15,224.89 143.45,225.3 143.75,225.72C144.05,226.14 144.36,226.57 144.66,227C144.96,227.44 145.26,227.87 145.56,228.32C145.87,228.78 146.18,229.25 146.47,229.75C146.78,230.27 147.08,230.81 147.37,231.38C147.68,231.98 147.98,232.6 148.27,233.25C148.58,233.93 148.89,234.65 149.18,235.38C149.49,236.15 149.78,236.95 150.08,237.76C150.39,238.61 150.69,239.49 150.99,240.38C151.3,241.3 151.59,242.25 151.89,243.21C152.19,244.2 152.49,245.2 152.79,246.22C153.1,247.26 153.4,248.32 153.7,249.39C154,250.47 154.3,251.56 154.6,252.66C154.9,253.76 155.21,254.88 155.51,255.99C155.81,257.1 156.11,258.23 156.41,259.34C156.71,260.44 157.02,261.54 157.32,262.63C157.62,263.7 157.92,264.77 158.22,265.81C158.52,266.82 158.81,267.82 159.12,268.79C159.42,269.72 159.72,270.64 160.03,271.51C160.32,272.33 160.62,273.13 160.93,273.88C161.22,274.57 161.53,275.23 161.84,275.85C162.13,276.42 162.42,276.97 162.74,277.46C163.03,277.9 163.32,278.33 163.64,278.67C163.92,278.97 164.23,279.25 164.55,279.4C164.84,279.53 165.15,279.58 165.45,279.57C165.75,279.56 166.06,279.44 166.36,279.32C166.67,279.19 166.97,279 167.26,278.81C167.57,278.61 167.86,278.37 168.16,278.13C168.47,277.88 168.77,277.6 169.07,277.32C169.38,277.03 169.67,276.72 169.97,276.4C170.28,276.07 170.58,275.74 170.88,275.39C171.18,275.04 171.5,274.73 171.78,274.31C172.11,273.82 172.4,273.24 172.68,272.6C173.01,271.83 173.29,270.87 173.59,269.99C173.9,269.08 174.19,268.15 174.49,267.22C174.79,266.27 175.1,265.3 175.4,264.33C175.7,263.34 176,262.34 176.3,261.33C176.6,260.31 176.91,259.28 177.21,258.25C177.51,257.2 177.82,256.16 178.11,255.08C178.42,253.96 178.72,252.84 179.01,251.66C179.32,250.39 179.62,249.03 179.92,247.69C180.22,246.33 180.52,244.92 180.82,243.55C181.12,242.2 181.42,240.86 181.73,239.54C182.03,238.26 182.32,237 182.63,235.76C182.93,234.56 183.22,233.38 183.53,232.24C183.83,231.14 184.13,230.07 184.44,229.03C184.73,228.04 185.03,227.07 185.34,226.13C185.63,225.24 185.94,224.37 186.25,223.54C186.54,222.75 186.84,221.99 187.15,221.26C187.44,220.57 187.74,219.9 188.05,219.25C188.35,218.63 188.65,218.04 188.96,217.46C189.26,216.9 189.55,216.37 189.86,215.84C190.16,215.33 190.47,214.83 190.77,214.33C191.07,213.84 191.37,213.37 191.67,212.88C191.97,212.39 192.28,211.9 192.58,211.39C192.89,210.86 193.19,210.31 193.48,209.74C193.79,209.14 194.08,208.51 194.38,207.88C194.68,207.25 194.98,206.59 195.29,205.96C195.59,205.35 195.88,204.74 196.19,204.16C196.49,203.61 196.79,203.06 197.1,202.56C197.39,202.09 197.69,201.63 198,201.22C198.29,200.84 198.59,200.48 198.9,200.17C199.19,199.88 199.5,199.62 199.81,199.41C200.1,199.21 200.4,199.04 200.71,198.93C201.01,198.82 201.32,198.76 201.62,198.74C201.92,198.72 202.22,198.74 202.52,198.8C202.82,198.86 203.13,198.97 203.42,199.1C203.73,199.24 204.03,199.41 204.33,199.61C204.64,199.81 204.94,200.05 205.23,200.31C205.54,200.58 205.84,200.88 206.14,201.19C206.45,201.51 206.74,201.86 207.04,202.22C207.35,202.59 207.65,202.99 207.95,203.39C208.26,203.8 208.55,204.23 208.85,204.66C209.15,205.1 209.45,205.55 209.75,206.01C210.05,206.48 210.36,206.96 210.66,207.44C210.96,207.93 211.26,208.43 211.56,208.93C211.86,209.44 212.17,209.96 212.47,210.48C212.77,211.01 213.07,211.54 213.37,212.08C213.67,212.62 213.97,213.18 214.27,213.73C214.57,214.29 214.88,214.85 215.18,215.42C215.48,215.99 215.78,216.57 216.08,217.14C216.38,217.71 216.65,218.4 216.99,218.85C217.26,219.2 217.56,219.58 217.89,219.68C218.17,219.77 218.49,219.59 218.79,219.55C219.09,219.51 219.4,219.47 219.7,219.44C220,219.41 220.3,219.4 220.6,219.38C220.9,219.36 221.21,219.34 221.51,219.3C221.81,219.26 222.11,219.18 222.41,219.14C222.71,219.09 223.02,219.02 223.32,219.03C223.62,219.04 223.93,219.07 224.22,219.18C224.53,219.3 224.84,219.51 225.12,219.75C225.44,220.03 225.74,220.4 226.03,220.79C226.35,221.23 226.64,221.76 226.93,222.3C227.25,222.9 227.55,223.57 227.84,224.26C228.15,225 228.45,225.79 228.74,226.59C229.05,227.43 229.34,228.31 229.64,229.2C229.95,230.12 230.25,231.06 230.55,232.01C230.86,232.98 231.15,233.96 231.45,234.96C231.76,235.98 232.06,237.02 232.36,238.06C232.66,239.12 232.95,240.22 233.26,241.26C233.55,242.27 233.85,243.25 234.16,244.22C234.46,245.16 234.77,246.08 235.07,247C235.37,247.92 235.66,248.84 235.97,249.74C236.27,250.61 236.57,251.5 236.88,252.32C237.17,253.09 237.46,253.86 237.78,254.52C238.06,255.1 238.33,255.73 238.68,256.1C238.95,256.39 239.3,256.71 239.59,256.69C239.9,256.67 240.23,256.27 240.49,255.88C240.88,255.3 241.13,254.31 241.4,253.34C241.75,252.1 242.02,250.56 242.3,249.01C242.63,247.22 242.92,245.21 243.21,243.19C243.52,241 243.82,238.68 244.11,236.35C244.42,233.91 244.71,231.39 245.01,228.87C245.31,226.3 245.62,223.68 245.92,221.06C246.22,218.42 246.52,215.76 246.82,213.11C247.12,210.46 247.43,207.81 247.73,205.18C248.03,202.57 248.33,199.97 248.63,197.39C248.93,194.86 249.22,192.33 249.53,189.85C249.83,187.42 250.13,185.01 250.44,182.64C250.74,180.34 251.03,178.07 251.34,175.85C251.64,173.7 251.94,171.59 252.25,169.53C252.55,167.56 252.84,165.62 253.15,163.74C253.44,161.96 253.74,160.22 254.05,158.53C254.34,156.93 254.65,155.39 254.96,153.87C255.26,152.42 255.56,151.03 255.86,149.62C256.16,148.21 256.47,146.8 256.77,145.41C257.07,144.04 257.36,142.64 257.67,141.33C257.96,140.11 258.26,138.9 258.58,137.79C258.87,136.8 259.15,135.84 259.48,135C259.76,134.29 260.04,133.59 260.38,133.06C260.66,132.63 260.95,132.19 261.29,132C261.57,131.84 261.91,131.77 262.19,131.85C262.51,131.94 262.83,132.27 263.1,132.61C263.45,133.03 263.72,133.65 264,134.28C264.33,135.03 264.62,135.91 264.9,136.83C265.22,137.88 265.52,139.03 265.81,140.23C266.13,141.55 266.42,142.97 266.71,144.43C267.02,146.01 267.33,147.68 267.62,149.39C267.93,151.21 268.23,153.1 268.52,155.03C268.83,157.06 269.12,159.15 269.42,161.27C269.73,163.48 270.03,165.74 270.33,168.03C270.64,170.39 270.93,172.79 271.23,175.21C271.53,177.68 271.84,180.18 272.14,182.69C272.44,185.22 272.74,187.79 273.04,190.33C273.34,192.87 273.64,195.44 273.95,197.95C274.25,200.41 274.54,202.89 274.85,205.24C275.14,207.45 275.43,209.64 275.75,211.65C276.04,213.44 276.32,215.19 276.66,216.7C276.94,217.94 277.22,219.09 277.56,220.06C277.84,220.85 278.13,221.54 278.47,222.13C278.75,222.62 279.03,223.1 279.37,223.39C279.64,223.62 279.97,223.83 280.27,223.83C280.57,223.83 280.91,223.61 281.18,223.36C281.53,223.05 281.8,222.51 282.08,221.99C282.41,221.38 282.7,220.64 282.99,219.9C283.31,219.1 283.6,218.22 283.89,217.35C284.2,216.45 284.49,215.5 284.79,214.58C285.09,213.66 285.39,212.73 285.7,211.82C286,210.93 286.29,210.04 286.6,209.19C286.89,208.38 287.2,207.58 287.51,206.83C287.8,206.13 288.09,205.44 288.41,204.81C288.7,204.24 289,203.69 289.32,203.22C289.61,202.8 289.89,202.4 290.22,202.1C290.5,201.84 290.8,201.61 291.12,201.51C291.41,201.42 291.74,201.41 292.03,201.49C292.34,201.58 292.65,201.8 292.93,202.05C293.26,202.35 293.56,202.77 293.84,203.22C294.17,203.74 294.46,204.35 294.74,204.99C295.06,205.71 295.35,206.52 295.64,207.36C295.96,208.28 296.26,209.27 296.55,210.3C296.86,211.41 297.16,212.59 297.45,213.8C297.76,215.09 298.07,216.43 298.36,217.8C298.67,219.24 298.97,220.73 299.26,222.25C299.57,223.83 299.86,225.45 300.16,227.09C300.47,228.78 300.77,230.51 301.07,232.24C301.37,234 301.67,235.79 301.97,237.57C302.27,239.35 302.58,241.16 302.88,242.93C303.18,244.66 303.47,246.42 303.78,248.07C304.07,249.62 304.35,251.2 304.68,252.56C304.96,253.72 305.2,254.97 305.59,255.76C305.85,256.29 306.19,256.98 306.49,256.98C306.79,256.98 307.13,256.31 307.4,255.82C307.76,255.17 308.02,254.24 308.3,253.34C308.63,252.31 308.92,251.15 309.21,249.98C309.52,248.72 309.82,247.37 310.11,246.02C310.42,244.6 310.71,243.13 311.01,241.66C311.31,240.16 311.62,238.62 311.92,237.1C312.22,235.57 312.52,234.02 312.82,232.5C313.12,230.99 313.42,229.48 313.73,228C314.03,226.55 314.32,225.12 314.63,223.72C314.92,222.37 315.22,221.04 315.53,219.76C315.82,218.54 316.13,217.35 316.44,216.21C316.73,215.15 317.02,214.11 317.34,213.15C317.63,212.27 317.93,211.42 318.25,210.66C318.53,209.99 318.82,209.34 319.15,208.8C319.43,208.35 319.72,207.91 320.05,207.62C320.33,207.38 320.65,207.17 320.96,207.13C321.25,207.09 321.58,207.19 321.86,207.35C322.19,207.54 322.49,207.9 322.77,208.27C323.1,208.71 323.39,209.29 323.67,209.88C324,210.56 324.29,211.35 324.58,212.16C324.9,213.06 325.19,214.05 325.48,215.06C325.79,216.16 326.09,217.33 326.38,218.53C326.69,219.81 327,221.15 327.29,222.51C327.6,223.94 327.89,225.43 328.19,226.91C328.49,228.4 328.8,229.92 329.1,231.42C329.4,232.9 329.7,234.39 330,235.84C330.3,237.26 330.59,238.68 330.9,240.05C331.2,241.37 331.51,242.64 331.81,243.93C332.11,245.22 332.41,246.5 332.71,247.81C333.01,249.14 333.32,250.48 333.62,251.83C333.92,253.19 334.22,254.57 334.52,255.93C334.82,257.29 335.11,258.66 335.42,259.99C335.72,261.28 336.02,262.58 336.33,263.8C336.62,264.94 336.91,266.07 337.23,267.08C337.51,267.97 337.79,268.88 338.14,269.55C338.41,270.07 338.7,270.76 339.04,270.84C339.32,270.91 339.69,270.65 339.95,270.37C340.35,269.94 340.57,269 340.85,268.19C341.18,267.23 341.46,266.09 341.75,264.97C342.06,263.75 342.36,262.44 342.66,261.15C342.97,259.82 343.26,258.44 343.56,257.09C343.86,255.75 344.16,254.4 344.47,253.08C344.77,251.8 345.06,250.51 345.37,249.28C345.66,248.1 345.96,246.94 346.27,245.84C346.56,244.8 346.86,243.79 347.18,242.84C347.47,241.97 347.76,241.12 348.08,240.36C348.37,239.68 348.66,239.02 348.99,238.46C349.27,237.98 349.56,237.51 349.89,237.18C350.17,236.9 350.47,236.64 350.79,236.54C351.08,236.45 351.41,236.47 351.7,236.57C352.02,236.69 352.32,236.97 352.6,237.27C352.93,237.63 353.23,238.13 353.51,238.64C353.84,239.23 354.12,239.93 354.41,240.65C354.73,241.46 355.03,242.34 355.32,243.26C355.64,244.26 355.93,245.33 356.22,246.43C356.53,247.6 356.83,248.82 357.12,250.07C357.43,251.38 357.73,252.74 358.03,254.11C358.34,255.53 358.63,256.99 358.93,258.45C359.23,259.94 359.54,261.46 359.84,262.97C360.14,264.48 360.44,266 360.74,267.49C361.04,268.94 361.33,270.39 361.64,271.78C361.93,273.1 362.23,274.41 362.55,275.64C362.84,276.77 363.12,277.89 363.45,278.86C363.73,279.69 363.99,280.56 364.36,281.11C364.63,281.5 364.96,281.97 365.26,281.97C365.56,281.97 365.9,281.54 366.16,281.15C366.55,280.58 366.79,279.59 367.07,278.68C367.4,277.61 367.69,276.42 367.97,275.12C368.3,273.58 368.59,271.78 368.88,270.02C369.19,268.14 369.48,266.13 369.78,264.17C370.08,262.18 370.38,260.17 370.68,258.17C370.98,256.16 371.29,254.14 371.59,252.14C371.89,250.17 372.18,248.2 372.49,246.27C372.79,244.39 373.09,242.53 373.4,240.72C373.7,238.98 373.99,237.26 374.3,235.6C374.6,234.01 374.9,232.45 375.21,230.95C375.5,229.53 375.8,228.13 376.11,226.8C376.4,225.55 376.7,224.34 377.01,223.18C377.3,222.1 377.61,221.06 377.92,220.07C378.21,219.16 378.5,218.29 378.82,217.47C379.11,216.72 379.41,216.01 379.73,215.36C380.02,214.77 380.31,214.21 380.63,213.71C380.91,213.27 381.21,212.85 381.53,212.51C381.82,212.21 382.12,211.95 382.44,211.77C382.73,211.61 383.04,211.5 383.34,211.47C383.64,211.44 383.96,211.48 384.25,211.57C384.56,211.67 384.86,211.84 385.15,212.05C385.47,212.28 385.77,212.57 386.05,212.9C386.37,213.28 386.68,213.74 386.96,214.24C387.28,214.8 387.57,215.45 387.86,216.13C388.18,216.89 388.48,217.72 388.77,218.58C389.09,219.52 389.38,220.53 389.67,221.57C389.98,222.68 390.29,223.85 390.58,225.05C390.89,226.32 391.19,227.64 391.48,228.97C391.79,230.35 392.08,231.78 392.38,233.21C392.69,234.68 392.99,236.19 393.29,237.69C393.59,239.21 393.89,240.74 394.19,242.27C394.49,243.8 394.8,245.35 395.1,246.87C395.4,248.38 395.7,249.88 396,251.36C396.3,252.8 396.59,254.24 396.9,255.61C397.19,256.9 397.49,258.17 397.81,259.34C398.1,260.4 398.39,261.4 398.71,262.33C399,263.17 399.29,263.97 399.62,264.68C399.9,265.3 400.19,265.89 400.52,266.36C400.8,266.76 401.09,267.15 401.42,267.38C401.7,267.58 402.03,267.73 402.33,267.73C402.63,267.73 402.95,267.58 403.23,267.37C403.57,267.11 403.86,266.64 404.14,266.19C404.47,265.66 404.75,265 405.04,264.36C405.35,263.67 405.65,262.93 405.95,262.18C406.26,261.41 406.55,260.6 406.85,259.8C407.15,258.99 407.45,258.16 407.75,257.33C408.05,256.49 408.36,255.66 408.66,254.81C408.96,253.96 409.26,253.1 409.56,252.23C409.86,251.34 410.17,250.45 410.47,249.54C410.77,248.62 411.07,247.68 411.37,246.75C411.67,245.82 411.97,244.88 412.27,243.97C412.57,243.07 412.87,242.18 413.18,241.32C413.48,240.49 413.77,239.67 414.08,238.89C414.37,238.15 414.68,237.44 414.99,236.76C415.28,236.13 415.58,235.52 415.89,234.96C416.18,234.44 416.47,233.93 416.79,233.48C417.08,233.07 417.38,232.67 417.7,232.34C417.99,232.05 418.28,231.77 418.6,231.6C418.89,231.45 419.21,231.34 419.51,231.33C419.81,231.32 420.12,231.41 420.41,231.55C420.73,231.71 421.04,231.99 421.32,232.29C421.64,232.63 421.94,233.07 422.22,233.53C422.54,234.05 422.83,234.66 423.12,235.29C423.44,235.99 423.74,236.75 424.03,237.54C424.35,238.4 424.64,239.31 424.93,240.26C425.24,241.28 425.55,242.35 425.84,243.44C426.15,244.6 426.45,245.8 426.74,247.02C427.05,248.3 427.34,249.63 427.64,250.97C427.95,252.36 428.25,253.79 428.55,255.23C428.86,256.71 429.15,258.21 429.45,259.72C429.75,261.26 430.06,262.82 430.36,264.37C430.66,265.93 430.96,267.51 431.26,269.07C431.56,270.62 431.86,272.19 432.16,273.72C432.46,275.22 432.76,276.72 433.07,278.18C433.37,279.59 433.66,281 433.97,282.35C434.26,283.63 434.56,284.89 434.88,286.07C435.17,287.15 435.45,288.24 435.78,289.17C436.06,289.96 436.3,290.83 436.68,291.33C436.95,291.68 437.27,291.99 437.59,292.06C437.88,292.12 438.21,291.98 438.49,291.82C438.82,291.63 439.11,291.25 439.4,290.89C439.72,290.48 440.01,289.98 440.3,289.48C440.62,288.93 440.92,288.32 441.21,287.7C441.52,287.04 441.82,286.34 442.11,285.63C442.42,284.88 442.71,284.09 443.01,283.3C443.32,282.49 443.62,281.66 443.92,280.84C444.22,280.03 444.51,279.21 444.82,278.41C445.12,277.63 445.42,276.86 445.73,276.11C446.03,275.38 446.34,274.71 446.63,273.95C446.95,273.11 447.22,272.14 447.53,271.26C447.83,270.4 448.13,269.55 448.44,268.73C448.73,267.95 449.03,267.18 449.34,266.45C449.63,265.75 449.94,265.07 450.25,264.42C450.54,263.8 450.85,263.21 451.15,262.62C451.45,262.05 451.75,261.51 452.05,260.95C452.35,260.39 452.65,259.81 452.96,259.25C453.26,258.7 453.55,258.15 453.86,257.64C454.15,257.15 454.46,256.68 454.77,256.23C455.06,255.81 455.36,255.4 455.67,255.02C455.96,254.66 456.27,254.33 456.58,254.02C456.87,253.73 457.17,253.47 457.48,253.23C457.77,253.01 458.07,252.8 458.38,252.63C458.68,252.47 458.98,252.33 459.29,252.22C459.59,252.11 459.89,252.03 460.19,251.97C460.49,251.91 460.8,251.88 461.1,251.86Q461.4,251.84 462,251.86" style="vector-effect: non-scaling-stroke; fill: none; stroke: rgb(0, 176, 246); stroke-opacity: 1; stroke-width: 2px; opacity: 1;"/></g><g class="points"/><g class="text"/></g><g class="trace scatter tracec51b93" style="stroke-miterlimit: 2; opacity: 1;"><g class="fills"/><g class="errorbars"/><g class="lines"><path class="js-line" d="M0,46.32Q0.62,46.44 0.9,46.61C1.23,46.8 1.53,47.13 1.81,47.47C2.14,47.87 2.43,48.38 2.71,48.91C3.03,49.52 3.33,50.21 3.62,50.93C3.94,51.73 4.23,52.6 4.52,53.51C4.83,54.5 5.13,55.56 5.42,56.66C5.73,57.84 6.04,59.08 6.33,60.36C6.64,61.72 6.94,63.14 7.23,64.6C7.54,66.15 7.85,67.75 8.14,69.39C8.45,71.11 8.74,72.88 9.04,74.69C9.35,76.58 9.65,78.52 9.95,80.49C10.26,82.54 10.56,84.64 10.85,86.77C11.16,88.98 11.45,91.23 11.75,93.51C12.06,95.86 12.36,98.25 12.66,100.66C12.97,103.14 13.26,105.65 13.56,108.19C13.86,110.78 14.17,113.4 14.47,116.04C14.77,118.72 15.07,121.43 15.37,124.14C15.67,126.88 15.97,129.65 16.27,132.41C16.57,135.18 16.88,137.96 17.18,140.72C17.48,143.46 17.78,146.2 18.08,148.91C18.38,151.57 18.68,154.22 18.99,156.81C19.29,159.32 19.58,161.81 19.89,164.21C20.18,166.5 20.48,168.75 20.79,170.91C21.08,172.94 21.39,174.91 21.7,176.8C21.99,178.56 22.29,180.24 22.6,181.87C22.89,183.38 23.2,184.83 23.51,186.24C23.8,187.56 24.1,188.82 24.41,190.06C24.71,191.24 25.01,192.39 25.32,193.52C25.62,194.62 25.92,195.7 26.22,196.77C26.52,197.83 26.82,198.87 27.12,199.92C27.42,200.97 27.73,202 28.03,203.05C28.33,204.1 28.63,205.16 28.93,206.22C29.23,207.3 29.54,208.38 29.84,209.47C30.14,210.57 30.44,211.68 30.74,212.8C31.04,213.93 31.34,215.08 31.64,216.23C31.94,217.39 32.25,218.57 32.55,219.74C32.85,220.92 33.15,222.11 33.45,223.3C33.75,224.49 34.06,225.68 34.36,226.86C34.66,228.02 34.95,229.19 35.26,230.31C35.55,231.38 35.84,232.47 36.16,233.42C36.44,234.26 36.69,235.2 37.07,235.74C37.33,236.11 37.68,236.55 37.97,236.53C38.28,236.51 38.61,235.93 38.88,235.48C39.25,234.86 39.5,233.92 39.78,233.02C40.11,231.95 40.39,230.73 40.68,229.48C41,228.09 41.29,226.56 41.59,225.05C41.9,223.48 42.19,221.84 42.49,220.24C42.79,218.66 43.09,217.06 43.4,215.52C43.7,214.03 43.99,212.56 44.3,211.14C44.59,209.79 44.9,208.47 45.21,207.2C45.5,206.01 45.8,204.86 46.11,203.77C46.4,202.76 46.69,201.79 47.01,200.88C47.3,200.05 47.6,199.26 47.92,198.54C48.21,197.9 48.49,197.29 48.82,196.76C49.1,196.3 49.4,195.87 49.73,195.54C50.01,195.26 50.31,195 50.63,194.87C50.92,194.75 51.23,194.7 51.53,194.74C51.84,194.78 52.16,194.94 52.44,195.14C52.76,195.36 53.06,195.7 53.34,196.06C53.66,196.47 53.96,196.96 54.25,197.48C54.57,198.05 54.86,198.69 55.15,199.36C55.46,200.09 55.76,200.87 56.05,201.68C56.36,202.55 56.67,203.46 56.96,204.4C57.27,205.39 57.56,206.43 57.86,207.48C58.17,208.58 58.47,209.71 58.77,210.85C59.08,212.03 59.37,213.24 59.67,214.46C59.97,215.7 60.28,216.96 60.58,218.21C60.88,219.47 61.18,220.74 61.48,222C61.78,223.25 62.07,224.5 62.38,225.73C62.68,226.92 62.98,228.11 63.29,229.26C63.59,230.37 63.88,231.46 64.19,232.52C64.48,233.53 64.79,234.5 65.1,235.45C65.39,236.35 65.69,237.23 66,238.08C66.29,238.9 66.59,239.7 66.9,240.48C67.2,241.24 67.5,241.98 67.81,242.71C68.11,243.43 68.41,244.13 68.71,244.83C69.01,245.52 69.31,246.21 69.62,246.87C69.91,247.5 70.17,248.24 70.52,248.69C70.79,249.03 71.15,249.49 71.42,249.44C71.77,249.37 72.05,248.41 72.33,247.77C72.67,246.98 72.93,245.96 73.23,245.04C73.53,244.11 73.83,243.15 74.14,242.23C74.44,241.33 74.73,240.44 75.04,239.57C75.34,238.73 75.64,237.9 75.95,237.11C76.24,236.35 76.54,235.62 76.85,234.91C77.14,234.24 77.44,233.59 77.75,232.97C78.04,232.39 78.35,231.83 78.66,231.3C78.95,230.81 79.25,230.34 79.56,229.91C79.85,229.51 80.16,229.13 80.47,228.8C80.76,228.49 81.06,228.2 81.37,227.96C81.66,227.74 81.96,227.55 82.27,227.41C82.56,227.28 82.87,227.19 83.18,227.15C83.48,227.11 83.78,227.13 84.08,227.19C84.39,227.25 84.7,227.37 84.99,227.53C85.3,227.7 85.6,227.94 85.89,228.2C86.2,228.49 86.5,228.83 86.79,229.2C87.11,229.6 87.41,230.06 87.7,230.54C88.02,231.06 88.31,231.63 88.6,232.22C88.91,232.86 89.22,233.54 89.51,234.24C89.82,234.99 90.12,235.79 90.41,236.61C90.72,237.48 91.03,238.38 91.32,239.31C91.63,240.29 91.93,241.3 92.22,242.34C92.53,243.43 92.82,244.55 93.12,245.69C93.43,246.88 93.73,248.11 94.03,249.36C94.34,250.65 94.63,251.97 94.93,253.31C95.24,254.7 95.54,256.12 95.84,257.55C96.15,259.02 96.44,260.52 96.74,262.03C97.04,263.58 97.34,265.16 97.64,266.75C97.94,268.37 98.25,270.01 98.55,271.66C98.85,273.33 99.15,275.03 99.45,276.72C99.75,278.43 100.06,280.15 100.36,281.86C100.66,283.56 100.95,285.28 101.26,286.93C101.55,288.5 101.81,290.2 102.16,291.52C102.43,292.55 102.64,294.02 103.07,294.21C103.33,294.32 103.71,294.08 103.97,293.8C104.4,293.33 104.6,292.13 104.88,291.14C105.22,289.92 105.49,288.43 105.78,286.99C106.09,285.43 106.38,283.75 106.68,282.09C106.99,280.39 107.29,278.65 107.59,276.91C107.89,275.16 108.19,273.39 108.49,271.63C108.79,269.87 109.1,268.11 109.4,266.36C109.7,264.62 110,262.89 110.3,261.17C110.6,259.47 110.91,257.77 111.21,256.09C111.51,254.43 111.81,252.78 112.11,251.14C112.41,249.53 112.71,247.93 113.01,246.35C113.31,244.79 113.62,243.25 113.92,241.72C114.22,240.22 114.52,238.73 114.82,237.25C115.12,235.8 115.43,234.36 115.73,232.94C116.03,231.54 116.33,230.15 116.63,228.78C116.93,227.43 117.23,226.09 117.53,224.76C117.83,223.45 118.14,222.15 118.44,220.86C118.74,219.59 119.04,218.32 119.34,217.07C119.64,215.83 119.95,214.61 120.25,213.39C120.55,212.19 120.85,211 121.15,209.82C121.45,208.66 121.75,207.51 122.05,206.37C122.35,205.25 122.66,204.14 122.96,203.05C123.26,201.98 123.55,200.92 123.86,199.88C124.16,198.86 124.46,197.86 124.77,196.88C125.07,195.93 125.36,195 125.67,194.08C125.97,193.19 126.27,192.32 126.58,191.47C126.88,190.65 127.17,189.85 127.48,189.08C127.77,188.34 128.07,187.62 128.38,186.92C128.68,186.25 128.98,185.6 129.29,184.98C129.58,184.39 129.88,183.81 130.19,183.27C130.48,182.76 130.79,182.26 131.1,181.8C131.39,181.36 131.69,180.94 132,180.56C132.29,180.2 132.59,179.85 132.9,179.55C133.19,179.26 133.5,179 133.81,178.78C134.1,178.57 134.4,178.39 134.71,178.25C135.01,178.11 135.31,178 135.62,177.94C135.92,177.88 136.22,177.85 136.52,177.87C136.82,177.89 137.12,177.95 137.42,178.04C137.73,178.14 138.04,178.27 138.33,178.44C138.64,178.62 138.94,178.84 139.23,179.08C139.54,179.34 139.85,179.64 140.14,179.96C140.45,180.3 140.75,180.68 141.04,181.08C141.35,181.51 141.66,181.98 141.95,182.46C142.26,182.97 142.56,183.52 142.85,184.08C143.16,184.68 143.46,185.31 143.75,185.96C144.06,186.65 144.37,187.37 144.66,188.11C144.97,188.89 145.27,189.69 145.56,190.52C145.87,191.39 146.17,192.28 146.47,193.2C146.78,194.16 147.08,195.14 147.37,196.15C147.68,197.2 147.97,198.27 148.27,199.37C148.58,200.51 148.88,201.67 149.18,202.86C149.49,204.09 149.78,205.35 150.08,206.62C150.39,207.93 150.69,209.27 150.99,210.63C151.3,212.03 151.59,213.46 151.89,214.9C152.19,216.38 152.49,217.89 152.79,219.41C153.1,220.96 153.4,222.54 153.7,224.13C154,225.75 154.3,227.4 154.6,229.05C154.9,230.73 155.21,232.43 155.51,234.13C155.81,235.85 156.11,237.58 156.41,239.31C156.71,241.04 157.02,242.79 157.32,244.51C157.62,246.21 157.91,247.92 158.22,249.56C158.51,251.13 158.8,252.7 159.12,254.16C159.41,255.5 159.71,256.79 160.03,258C160.32,259.1 160.62,260.13 160.93,261.14C161.22,262.09 161.53,262.98 161.84,263.87C162.14,264.72 162.43,265.55 162.74,266.36C163.03,267.14 163.33,267.91 163.64,268.65C163.94,269.36 164.24,270.04 164.55,270.7C164.84,271.32 165.14,271.92 165.45,272.48C165.74,273 166.05,273.5 166.36,273.96C166.65,274.39 166.95,274.8 167.26,275.18C167.55,275.54 167.85,275.87 168.16,276.18C168.45,276.47 168.76,276.73 169.07,276.97C169.36,277.2 169.66,277.4 169.97,277.58C170.27,277.76 170.58,277.91 170.88,278.06C171.18,278.2 171.48,278.33 171.78,278.46C172.08,278.59 172.38,278.71 172.68,278.84C172.98,278.97 173.29,279.1 173.59,279.25C173.89,279.4 174.19,279.55 174.49,279.73C174.8,279.91 175.1,280.11 175.4,280.32C175.71,280.54 176,280.77 176.3,281.01C176.6,281.25 176.91,281.52 177.21,281.76C177.51,282 177.8,282.3 178.11,282.47C178.4,282.63 178.72,282.84 179.01,282.79C179.33,282.73 179.65,282.39 179.92,282.04C180.28,281.57 180.53,280.81 180.82,280.12C181.14,279.35 181.43,278.49 181.73,277.64C182.04,276.75 182.33,275.83 182.63,274.9C182.93,273.94 183.23,272.96 183.53,271.97C183.84,270.95 184.14,269.91 184.44,268.86C184.74,267.79 185.04,266.7 185.34,265.6C185.64,264.48 185.95,263.35 186.25,262.21C186.55,261.06 186.85,259.9 187.15,258.74C187.45,257.58 187.75,256.41 188.05,255.24C188.35,254.08 188.66,252.91 188.96,251.75C189.26,250.6 189.56,249.46 189.86,248.32C190.16,247.2 190.47,246.08 190.77,244.97C191.07,243.88 191.36,242.8 191.67,241.74C191.97,240.7 192.27,239.67 192.58,238.66C192.88,237.67 193.18,236.7 193.48,235.74C193.78,234.81 194.07,233.9 194.38,233.01C194.68,232.15 194.98,231.3 195.29,230.48C195.59,229.69 195.88,228.91 196.19,228.16C196.49,227.44 196.79,226.73 197.1,226.05C197.39,225.4 197.69,224.77 198,224.16C198.29,223.58 198.59,223.02 198.9,222.49C199.19,221.98 199.5,221.49 199.81,221.03C200.1,220.59 200.4,220.17 200.71,219.78C201,219.41 201.31,219.06 201.62,218.75C201.91,218.46 202.21,218.18 202.52,217.95C202.81,217.73 203.11,217.54 203.42,217.39C203.71,217.25 204.02,217.13 204.33,217.08C204.63,217.03 204.93,217.02 205.23,217.06C205.54,217.1 205.85,217.2 206.14,217.34C206.45,217.49 206.75,217.71 207.04,217.95C207.36,218.22 207.66,218.54 207.95,218.89C208.27,219.27 208.56,219.71 208.85,220.17C209.16,220.67 209.46,221.23 209.75,221.81C210.06,222.44 210.37,223.1 210.66,223.8C210.97,224.55 211.27,225.34 211.56,226.15C211.87,227.02 212.18,227.92 212.47,228.85C212.78,229.83 213.08,230.85 213.37,231.89C213.68,232.98 213.97,234.11 214.27,235.26C214.58,236.46 214.88,237.7 215.18,238.96C215.49,240.27 215.78,241.6 216.08,242.96C216.39,244.36 216.69,245.79 216.99,247.24C217.3,248.73 217.59,250.25 217.89,251.78C218.19,253.34 218.49,254.93 218.79,256.51C219.09,258.11 219.4,259.73 219.7,261.33C220,262.9 220.29,264.5 220.6,266.02C220.89,267.46 221.19,268.89 221.51,270.2C221.8,271.37 222.09,272.47 222.41,273.51C222.7,274.45 223.01,275.31 223.32,276.16C223.61,276.96 223.92,277.72 224.22,278.48C224.52,279.22 224.82,279.95 225.12,280.67C225.42,281.38 225.72,282.08 226.03,282.76C226.33,283.42 226.62,284.1 226.93,284.71C227.22,285.28 227.5,285.88 227.84,286.32C228.12,286.68 228.42,287.12 228.74,287.19C229.02,287.25 229.37,287.08 229.64,286.85C230,286.54 230.27,285.89 230.55,285.3C230.89,284.58 231.17,283.69 231.45,282.79C231.77,281.77 232.07,280.64 232.36,279.48C232.68,278.22 232.97,276.86 233.26,275.5C233.57,274.06 233.86,272.57 234.16,271.06C234.47,269.49 234.77,267.89 235.07,266.27C235.38,264.61 235.67,262.93 235.97,261.23C236.28,259.48 236.58,257.71 236.88,255.92C237.19,254.08 237.48,252.23 237.78,250.34C238.08,248.4 238.38,246.44 238.68,244.45C238.99,242.42 239.29,240.35 239.59,238.28C239.89,236.17 240.19,234.03 240.49,231.9C240.79,229.75 241.1,227.58 241.4,225.42C241.7,223.26 242,221.08 242.3,218.92C242.6,216.77 242.91,214.62 243.21,212.49C243.51,210.37 243.81,208.26 244.11,206.17C244.41,204.1 244.71,202.03 245.01,199.99C245.31,197.97 245.62,195.98 245.92,193.99C246.22,192.03 246.52,190.09 246.82,188.16C247.12,186.26 247.43,184.39 247.73,182.52C248.03,180.68 248.33,178.85 248.63,177.04C248.93,175.25 249.23,173.47 249.53,171.7C249.83,169.94 250.14,168.2 250.44,166.46C250.74,164.73 251.04,163 251.34,161.27C251.64,159.54 251.95,157.81 252.25,156.07C252.55,154.33 252.85,152.59 253.15,150.84C253.45,149.09 253.75,147.34 254.05,145.59C254.35,143.85 254.66,142.1 254.96,140.37C255.26,138.65 255.56,136.93 255.86,135.23C256.16,133.56 256.46,131.89 256.77,130.25C257.07,128.64 257.36,127.05 257.67,125.49C257.97,123.97 258.27,122.47 258.58,121C258.88,119.58 259.17,118.19 259.48,116.83C259.77,115.53 260.07,114.25 260.38,113.01C260.67,111.83 260.98,110.68 261.29,109.57C261.58,108.53 261.88,107.51 262.19,106.54C262.48,105.64 262.79,104.76 263.1,103.94C263.39,103.18 263.68,102.45 264,101.78C264.29,101.17 264.58,100.59 264.9,100.07C265.19,99.61 265.49,99.17 265.81,98.82C266.09,98.51 266.39,98.23 266.71,98.04C267,97.87 267.31,97.74 267.62,97.72C267.92,97.7 268.23,97.76 268.52,97.88C268.84,98.01 269.14,98.25 269.42,98.51C269.74,98.81 270.04,99.2 270.33,99.61C270.65,100.07 270.94,100.61 271.23,101.17C271.55,101.79 271.85,102.47 272.14,103.18C272.46,103.95 272.75,104.78 273.04,105.64C273.35,106.56 273.66,107.54 273.95,108.54C274.26,109.61 274.56,110.72 274.85,111.86C275.16,113.06 275.46,114.31 275.75,115.58C276.06,116.92 276.36,118.3 276.66,119.71C276.97,121.18 277.26,122.68 277.56,124.21C277.87,125.8 278.17,127.42 278.47,129.07C278.78,130.77 279.07,132.5 279.37,134.26C279.67,136.07 279.97,137.9 280.27,139.76C280.58,141.66 280.88,143.59 281.18,145.54C281.48,147.53 281.78,149.54 282.08,151.57C282.38,153.63 282.69,155.71 282.99,157.8C283.29,159.91 283.59,162.04 283.89,164.18C284.19,166.34 284.49,168.51 284.79,170.68C285.09,172.86 285.4,175.04 285.7,177.22C286,179.39 286.3,181.58 286.6,183.74C286.9,185.89 287.21,188.03 287.51,190.16C287.81,192.26 288.11,194.36 288.41,196.43C288.71,198.47 289.02,200.49 289.32,202.49C289.62,204.44 289.92,206.38 290.22,208.29C290.52,210.16 290.81,212.01 291.12,213.83C291.42,215.61 291.72,217.37 292.03,219.11C292.33,220.81 292.63,222.48 292.93,224.14C293.23,225.76 293.54,227.37 293.84,228.96C294.14,230.51 294.44,232.05 294.74,233.57C295.04,235.06 295.33,236.53 295.64,237.99C295.94,239.41 296.24,240.83 296.55,242.21C296.85,243.54 297.14,244.87 297.45,246.13C297.74,247.31 298.02,248.54 298.36,249.54C298.64,250.36 298.85,251.39 299.26,251.71C299.52,251.91 299.89,251.95 300.16,251.83C300.52,251.68 300.78,251.02 301.07,250.55C301.39,250.02 301.67,249.39 301.97,248.8C302.27,248.2 302.58,247.57 302.88,246.97C303.18,246.38 303.47,245.79 303.78,245.22C304.07,244.67 304.37,244.13 304.68,243.62C304.97,243.13 305.28,242.66 305.59,242.22C305.88,241.81 306.18,241.41 306.49,241.05C306.78,240.72 307.09,240.41 307.4,240.14C307.69,239.89 307.99,239.67 308.3,239.5C308.59,239.34 308.9,239.22 309.21,239.15C309.51,239.08 309.81,239.06 310.11,239.06C310.41,239.06 310.71,239.18 311.01,239.17C311.31,239.16 311.64,239.16 311.92,239.02C312.25,238.86 312.52,238.47 312.82,238.21C313.12,237.96 313.41,237.67 313.73,237.48C314.02,237.3 314.32,237.15 314.63,237.07C314.92,236.99 315.23,236.97 315.53,237C315.84,237.03 316.15,237.13 316.44,237.27C316.75,237.41 317.05,237.63 317.34,237.86C317.66,238.11 317.96,238.42 318.25,238.75C318.56,239.1 318.86,239.5 319.15,239.91C319.46,240.35 319.76,240.83 320.05,241.32C320.36,241.84 320.66,242.38 320.96,242.94C321.27,243.52 321.56,244.13 321.86,244.74C322.17,245.37 322.47,246.03 322.77,246.69C323.07,247.36 323.37,248.04 323.67,248.73C323.97,249.43 324.28,250.14 324.58,250.84C324.88,251.55 325.18,252.26 325.48,252.96C325.78,253.66 326.08,254.36 326.38,255.05C326.68,255.73 326.98,256.41 327.29,257.07C327.59,257.71 327.88,258.35 328.19,258.97C328.49,259.57 328.79,260.15 329.1,260.71C329.39,261.24 329.69,261.77 330,262.24C330.29,262.68 330.58,263.13 330.9,263.47C331.18,263.77 331.49,264.11 331.81,264.22C332.09,264.32 332.43,264.33 332.71,264.21C333.05,264.06 333.34,263.64 333.62,263.26C333.96,262.8 334.23,262.18 334.52,261.59C334.83,260.96 335.12,260.26 335.42,259.59C335.72,258.92 336.02,258.22 336.33,257.56C336.63,256.91 336.92,256.27 337.23,255.66C337.52,255.08 337.83,254.51 338.14,253.99C338.43,253.51 338.72,253.04 339.04,252.63C339.33,252.25 339.63,251.89 339.95,251.6C340.24,251.34 340.54,251.1 340.85,250.94C341.14,250.8 341.45,250.7 341.75,250.67C342.05,250.64 342.37,250.68 342.66,250.78C342.97,250.88 343.27,251.07 343.56,251.28C343.88,251.52 344.18,251.83 344.47,252.16C344.79,252.53 345.08,252.95 345.37,253.4C345.68,253.88 345.98,254.42 346.27,254.97C346.58,255.56 346.89,256.2 347.18,256.85C347.49,257.54 347.78,258.26 348.08,258.99C348.39,259.75 348.69,260.54 348.99,261.34C349.3,262.16 349.59,263 349.89,263.85C350.19,264.72 350.49,265.6 350.79,266.48C351.09,267.37 351.4,268.27 351.7,269.17C352,270.07 352.3,270.98 352.6,271.89C352.9,272.8 353.21,273.7 353.51,274.61C353.81,275.51 354.11,276.41 354.41,277.31C354.71,278.2 355.02,279.09 355.32,279.97C355.62,280.84 355.92,281.72 356.22,282.58C356.52,283.43 356.81,284.27 357.12,285.09C357.42,285.88 357.71,286.68 358.03,287.41C358.32,288.08 358.57,288.83 358.93,289.3C359.2,289.66 359.55,290.11 359.84,290.09C360.15,290.07 360.47,289.48 360.74,289.04C361.09,288.48 361.35,287.66 361.64,286.92C361.95,286.13 362.25,285.28 362.55,284.44C362.86,283.58 363.15,282.69 363.45,281.81C363.75,280.92 364.06,280.02 364.36,279.13C364.66,278.23 364.96,277.34 365.26,276.44C365.56,275.54 365.86,274.64 366.16,273.75C366.46,272.86 366.77,271.97 367.07,271.09C367.37,270.21 367.67,269.33 367.97,268.46C368.27,267.6 368.58,266.75 368.88,265.91C369.18,265.08 369.48,264.26 369.78,263.45C370.08,262.67 370.37,261.89 370.68,261.14C370.98,260.42 371.28,259.7 371.59,259.02C371.88,258.37 372.18,257.73 372.49,257.12C372.78,256.55 373.09,256 373.4,255.48C373.69,255 373.99,254.53 374.3,254.12C374.59,253.74 374.89,253.38 375.21,253.07C375.5,252.79 375.8,252.53 376.11,252.34C376.4,252.16 376.7,252.01 377.01,251.93C377.31,251.85 377.62,251.83 377.92,251.86C378.22,251.89 378.53,251.99 378.82,252.12C379.13,252.26 379.44,252.47 379.73,252.71C380.05,252.97 380.34,253.28 380.63,253.62C380.94,253.98 381.24,254.4 381.53,254.83C381.84,255.3 382.15,255.81 382.44,256.34C382.75,256.9 383.05,257.5 383.34,258.12C383.65,258.78 383.95,259.47 384.25,260.17C384.56,260.91 384.86,261.67 385.15,262.45C385.46,263.26 385.75,264.09 386.05,264.94C386.36,265.82 386.66,266.72 386.96,267.63C387.27,268.56 387.56,269.52 387.86,270.48C388.16,271.46 388.47,272.46 388.77,273.46C389.07,274.47 389.37,275.5 389.67,276.53C389.97,277.57 390.28,278.62 390.58,279.66C390.88,280.7 391.18,281.76 391.48,282.79C391.78,283.8 392.06,284.83 392.38,285.78C392.67,286.65 392.96,287.54 393.29,288.26C393.57,288.86 393.87,289.37 394.19,289.85C394.48,290.29 394.79,290.68 395.1,291.05C395.39,291.4 395.69,291.74 396,292.04C396.29,292.32 396.59,292.59 396.9,292.79C397.19,292.97 397.5,293.13 397.81,293.2C398.1,293.26 398.41,293.27 398.71,293.21C399.02,293.15 399.33,293 399.62,292.83C399.93,292.65 400.23,292.41 400.52,292.16C400.83,291.9 401.12,291.59 401.42,291.29C401.73,290.97 402.03,290.64 402.33,290.3C402.63,289.96 402.93,289.61 403.23,289.27C403.53,288.93 403.84,288.58 404.14,288.24C404.44,287.9 404.74,287.57 405.04,287.24C405.34,286.91 405.65,286.59 405.95,286.28C406.25,285.97 406.55,285.67 406.85,285.37C407.15,285.08 407.45,284.79 407.75,284.5C408.05,284.21 408.36,283.94 408.66,283.65C408.96,283.36 409.26,283.08 409.56,282.78C409.87,282.48 410.17,282.16 410.47,281.84C410.78,281.51 411.07,281.16 411.37,280.81C411.67,280.45 411.97,280.06 412.27,279.68C412.57,279.29 412.88,278.9 413.18,278.5C413.48,278.1 413.78,277.69 414.08,277.29C414.38,276.89 414.69,276.5 414.99,276.11C415.29,275.73 415.59,275.35 415.89,274.98C416.19,274.62 416.48,274.27 416.79,273.93C417.09,273.6 417.39,273.28 417.7,272.97C418,272.67 418.29,272.39 418.6,272.12C418.9,271.86 419.2,271.6 419.51,271.37C419.81,271.14 420.1,270.93 420.41,270.74C420.71,270.55 421.01,270.39 421.32,270.24C421.62,270.1 421.92,269.96 422.22,269.86C422.52,269.76 422.82,269.68 423.12,269.63C423.42,269.58 423.73,269.54 424.03,269.54C424.33,269.54 424.63,269.56 424.93,269.61C425.23,269.66 425.54,269.74 425.84,269.85C426.15,269.96 426.45,270.1 426.74,270.26C427.05,270.43 427.35,270.63 427.64,270.85C427.95,271.08 428.26,271.34 428.55,271.62C428.86,271.91 429.16,272.24 429.45,272.58C429.76,272.94 430.06,273.33 430.36,273.73C430.67,274.15 430.97,274.6 431.26,275.06C431.57,275.54 431.86,276.05 432.16,276.57C432.47,277.11 432.77,277.68 433.07,278.26C433.38,278.86 433.67,279.49 433.97,280.12C434.28,280.78 434.58,281.45 434.88,282.13C435.19,282.83 435.48,283.55 435.78,284.28C436.08,285.02 436.38,285.79 436.68,286.55C436.98,287.33 437.29,288.12 437.59,288.91C437.89,289.71 438.19,290.53 438.49,291.34C438.79,292.16 439.1,292.98 439.4,293.79C439.7,294.6 440,295.41 440.3,296.2C440.6,296.98 440.9,297.75 441.21,298.5C441.51,299.22 441.8,299.94 442.11,300.59C442.4,301.19 442.68,301.79 443.01,302.28C443.29,302.71 443.59,303.12 443.92,303.41C444.2,303.65 444.51,303.84 444.82,303.94C445.11,304.03 445.43,304.03 445.73,304C446.03,303.97 446.34,303.86 446.63,303.75C446.94,303.63 447.23,303.47 447.53,303.3C447.84,303.13 448.14,302.92 448.44,302.72C448.74,302.51 449.04,302.29 449.34,302.06C449.64,301.83 449.95,301.59 450.25,301.35C450.55,301.11 450.85,300.87 451.15,300.62C451.45,300.37 451.75,300.12 452.05,299.87C452.35,299.62 452.66,299.36 452.96,299.1C453.26,298.84 453.56,298.58 453.86,298.31C454.16,298.03 454.47,297.75 454.77,297.46C455.07,297.17 455.37,296.86 455.67,296.56C455.97,296.26 456.28,295.94 456.58,295.64C456.88,295.34 457.17,295.04 457.48,294.77C457.78,294.5 458.07,294.25 458.38,294.02C458.68,293.8 458.98,293.59 459.29,293.42C459.59,293.25 459.88,293.1 460.19,292.99C460.49,292.88 460.8,292.8 461.1,292.74Q461.4,292.68 462,292.62" style="vector-effect: non-scaling-stroke; fill: none; stroke: rgb(231, 107, 243); stroke-opacity: 1; stroke-width: 2px; opacity: 1;"/></g><g class="points"/><g class="text"/></g></g></g><g class="overplot"/><path class="xlines-above crisp" d="M0,0" style="fill: none;"/><path class="ylines-above crisp" d="M0,0" style="fill: none;"/><g class="overlines-above"/><g class="xaxislayer-above"><g class="xtick"><text text-anchor="middle" x="0" y="433" transform="translate(80,0)" style="font-family: 'Open Sans', verdana, arial, sans-serif; font-size: 12px; fill: rgb(42, 63, 95); fill-opacity: 1; white-space: pre;">0</text></g><g class="xtick"><text text-anchor="middle" x="0" y="433" transform="translate(170.23000000000002,0)" style="font-family: 'Open Sans', verdana, arial, sans-serif; font-size: 12px; fill: rgb(42, 63, 95); fill-opacity: 1; white-space: pre;">100</text></g><g class="xtick"><text text-anchor="middle" x="0" y="433" transform="translate(260.47,0)" style="font-family: 'Open Sans', verdana, arial, sans-serif; font-size: 12px; fill: rgb(42, 63, 95); fill-opacity: 1; white-space: pre;">200</text></g><g class="xtick"><text text-anchor="middle" x="0" y="433" transform="translate(350.7,0)" style="font-family: 'Open Sans', verdana, arial, sans-serif; font-size: 12px; fill: rgb(42, 63, 95); fill-opacity: 1; white-space: pre;">300</text></g><g class="xtick"><text text-anchor="middle" x="0" y="433" transform="translate(440.94,0)" style="font-family: 'Open Sans', verdana, arial, sans-serif; font-size: 12px; fill: rgb(42, 63, 95); fill-opacity: 1; white-space: pre;">400</text></g><g class="xtick"><text text-anchor="middle" x="0" y="433" transform="translate(531.1700000000001,0)" style="font-family: 'Open Sans', verdana, arial, sans-serif; font-size: 12px; fill: rgb(42, 63, 95); fill-opacity: 1; white-space: pre;">500</text></g></g><g class="yaxislayer-above"><g class="ytick"><text text-anchor="end" x="79" y="4.199999999999999" transform="translate(0,385.17)" style="font-family: 'Open Sans', verdana, arial, sans-serif; font-size: 12px; fill: rgb(42, 63, 95); fill-opacity: 1; white-space: pre;">100</text></g><g class="ytick"><text text-anchor="end" x="79" y="4.199999999999999" transform="translate(0,335.7)" style="font-family: 'Open Sans', verdana, arial, sans-serif; font-size: 12px; fill: rgb(42, 63, 95); fill-opacity: 1; white-space: pre;">200</text></g><g class="ytick"><text text-anchor="end" x="79" y="4.199999999999999" transform="translate(0,286.23)" style="font-family: 'Open Sans', verdana, arial, sans-serif; font-size: 12px; fill: rgb(42, 63, 95); fill-opacity: 1; white-space: pre;">300</text></g><g class="ytick"><text text-anchor="end" x="79" y="4.199999999999999" transform="translate(0,236.76)" style="font-family: 'Open Sans', verdana, arial, sans-serif; font-size: 12px; fill: rgb(42, 63, 95); fill-opacity: 1; white-space: pre;">400</text></g><g class="ytick"><text text-anchor="end" x="79" y="4.199999999999999" transform="translate(0,187.29000000000002)" style="font-family: 'Open Sans', verdana, arial, sans-serif; font-size: 12px; fill: rgb(42, 63, 95); fill-opacity: 1; white-space: pre;">500</text></g><g class="ytick"><text text-anchor="end" x="79" y="4.199999999999999" transform="translate(0,137.82)" style="font-family: 'Open Sans', verdana, arial, sans-serif; font-size: 12px; fill: rgb(42, 63, 95); fill-opacity: 1; white-space: pre;">600</text></g></g><g class="overaxes-above"/></g></g><g class="polarlayer"/><g class="ternarylayer"/><g class="geolayer"/><g class="funnelarealayer"/><g class="pielayer"/><g class="treemaplayer"/><g class="sunburstlayer"/><g class="glimages"/><defs id="topdefs-79eb94"><g class="clips"/><clipPath id="legend79eb94"><rect width="137" height="67" x="0" y="0"/></clipPath></defs><g class="layer-above"><g class="imagelayer"/><g class="shapelayer"/></g><g class="infolayer"><g class="legend" pointer-events="all" transform="translate(551.24, 100)"><rect class="bg" shape-rendering="crispEdges" width="137" height="67" x="0" y="0" style="stroke: rgb(68, 68, 68); stroke-opacity: 1; fill: rgb(255, 255, 255); fill-opacity: 1; stroke-width: 0px;"/><g class="scrollbox" transform="translate(0, 0)" clip-path="url('#legend79eb94')"><g class="groups"><g class="traces" transform="translate(0, 14.5)" style="opacity: 1;"><text class="legendtext" text-anchor="start" x="40" y="4.680000000000001" style="font-family: 'Open Sans', verdana, arial, sans-serif; font-size: 12px; fill: rgb(42, 63, 95); fill-opacity: 1; white-space: pre;">Average Class I</text><g class="layers" style="opacity: 1;"><g class="legendfill"/><g class="legendlines"><path class="js-line" d="M5,0h30" style="fill: none; stroke: rgb(0, 100, 80); stroke-opacity: 1; stroke-width: 2px;"/></g><g class="legendsymbols"><g class="legendpoints"/></g></g><rect class="legendtoggle" x="0" y="-9.5" width="131.15625" height="19" style="fill: rgb(0, 0, 0); fill-opacity: 0;"/></g><g class="traces" transform="translate(0, 33.5)" style="opacity: 1;"><text class="legendtext" text-anchor="start" x="40" y="4.680000000000001" style="font-family: 'Open Sans', verdana, arial, sans-serif; font-size: 12px; fill: rgb(42, 63, 95); fill-opacity: 1; white-space: pre;">Average Class II</text><g class="layers" style="opacity: 1;"><g class="legendfill"/><g class="legendlines"><path class="js-line" d="M5,0h30" style="fill: none; stroke: rgb(0, 176, 246); stroke-opacity: 1; stroke-width: 2px;"/></g><g class="legendsymbols"><g class="legendpoints"/></g></g><rect class="legendtoggle" x="0" y="-9.5" width="131.15625" height="19" style="fill: rgb(0, 0, 0); fill-opacity: 0;"/></g><g class="traces" transform="translate(0, 52.5)" style="opacity: 1;"><text class="legendtext" text-anchor="start" x="40" y="4.680000000000001" style="font-family: 'Open Sans', verdana, arial, sans-serif; font-size: 12px; fill: rgb(42, 63, 95); fill-opacity: 1; white-space: pre;">Average Class III</text><g class="layers" style="opacity: 1;"><g class="legendfill"/><g class="legendlines"><path class="js-line" d="M5,0h30" style="fill: none; stroke: rgb(231, 107, 243); stroke-opacity: 1; stroke-width: 2px;"/></g><g class="legendsymbols"><g class="legendpoints"/></g></g><rect class="legendtoggle" x="0" y="-9.5" width="131.15625" height="19" style="fill: rgb(0, 0, 0); fill-opacity: 0;"/></g></g></g><rect class="scrollbar" rx="20" ry="3" width="0" height="0" x="0" y="0" style="fill: rgb(128, 139, 164); fill-opacity: 1;"/></g><g class="g-gtitle"><text class="gtitle" x="35" y="50" text-anchor="start" dy="0em" style="font-family: 'Open Sans', verdana, arial, sans-serif; font-size: 17px; fill: rgb(42, 63, 95); opacity: 1; font-weight: normal; white-space: pre;">Average curve: energetic_group</text></g><g class="g-xtitle"><text class="xtitle" x="311" y="460.8" text-anchor="middle" style="font-family: 'Open Sans', verdana, arial, sans-serif; font-size: 14px; fill: rgb(42, 63, 95); opacity: 1; font-weight: normal; white-space: pre;">Domain</text></g><g class="g-ytitle"><text class="ytitle" transform="rotate(-90,34.16875,260)" x="34.16875" y="260" text-anchor="middle" style="font-family: 'Open Sans', verdana, arial, sans-serif; font-size: 14px; fill: rgb(42, 63, 95); opacity: 1; font-weight: normal; white-space: pre;">Frequency</text></g></g></svg>