<svg class="main-svg" xmlns="http://www.w3.org/2000/svg" xmlns:xlink="http://www.w3.org/1999/xlink" width="700" height="500" style="" viewBox="0 0 700 500"><rect x="0" y="0" width="700" height="500" style="fill: rgb(255, 255, 255); fill-opacity: 1;"/><defs id="defs-1ad0ac"><g class="clips"><clipPath id="clip1ad0acxyplot" class="plotclip"><rect width="462" height="320"/></clipPath><clipPath class="axesclip" id="clip1ad0acx"><rect x="80" y="0" width="462" height="500"/></clipPath><clipPath class="axesclip" id="clip1ad0acy"><rect x="0" y="100" width="700" height="320"/></clipPath><clipPath class="axesclip" id="clip1ad0acxy"><rect x="80" y="100" width="462" height="320"/></clipPath></g><g class="gradients"/></defs><g class="bglayer"><rect class="bg" x="80" y="100" width="462" height="320" style="fill: rgb(229, 236, 246); fill-opacity: 1; stroke-width: 0;"/></g><g class="layer-below"><g class="imagelayer"/><g class="shapelayer"/></g><g class="cartesianlayer"><g class="subplot xy"><g class="layer-subplot"><g class="shapelayer"/><g class="imagelayer"/></g><g class="gridlayer"><g class="x"><path class="xgrid crisp" transform="translate(170.23000000000002,0)" d="M0,100v320" style="stroke: rgb(255, 255, 255); stroke-opacity: 1; stroke-width: 1px;"/><path class="xgrid crisp" transform="translate(260.47,0)" d="M0,100v320" style="stroke: rgb(255, 255, 255); stroke-opacity: 1; stroke-width: 1px;"/><path class="xgrid crisp" transform="translate(350.7,0)" d="M0,100v320" style="stroke: rgb(255, 255, 255); stroke-opacity: 1; stroke-width: 1px;"/><path class="xgrid crisp" transform="translate(440.94,0)" d="M0,100v320" style="stroke: rgb(255, 255, 255); stroke-opacity: 1; stroke-width: 1px;"/><path class="xgrid crisp" transform="translate(531.1700000000001,0)" d="M0,100v320" style="stroke: rgb(255, 255, 255); stroke-opacity: 1; stroke-width: 1px;"/></g><g class="y"><path class="ygrid crisp" transform="translate(0,384.96)" d="M80,0h462" style="stroke: rgb(255, 255, 255); stroke-opacity: 1; stroke-width: 1px;"/><path class="ygrid crisp" transform="translate(0,340.6)" d="M80,0h462" style="stroke: rgb(255, 255, 255); stroke-opacity: 1; stroke-width: 1px;"/><path class="ygrid crisp" transform="translate(0,296.23)" d="M80,0h462" style="stroke: rgb(255, 255, 255); stroke-opacity: 1; stroke-width: 1px;"/><path class="ygrid crisp" transform="translate(0,251.87)" d="M80,0h462" style="stroke: rgb(255, 255, 255); stroke-opacity: 1; stroke-width: 1px;"/><path class="ygrid crisp" transform="translate(0,207.5)" d="M80,0h462" style="stroke: rgb(255, 255, 255); stroke-opacity: 1; stroke-width: 1px;"/><path class="ygrid crisp" transform="translate(0,163.14)" d="M80,0h462" style="stroke: rgb(255, 255, 255); stroke-opacity: 1; stroke-width: 1px;"/><path class="ygrid crisp" transform="translate(0,118.78)" d="M80,0h462" style="stroke: rgb(255, 255, 255); stroke-opacity: 1; stroke-width: 1px;"/></g></g><g class="zerolinelayer"><path class="xzl zl crisp" transform="translate(80,0)" d="M0,100v320" style="stroke: rgb(255, 255, 255); stroke-opacity: 1; stroke-width: 2px;"/></g><path class="xlines-below"/><path class="ylines-below"/><g class="overlines-below"/><g class="xaxislayer-below"/><g class="yaxislayer-below"/><g class="overaxes-below"/><g class="plot" transform="translate(80, 100)" clip-path="url('#clip1ad0acxyplot')"><g class="scatterlayer mlayer"><g class="trace scatter trace5a63cc" style="stroke-miterlimit: 2; opacity: 1;"><g class="fills"/><g class="errorbars"/><g class="lines"><path class="js-line" d="M0,252.64Q0.64,250.11 0.9,248.42C1.29,245.93 1.52,242.41 1.81,239.11C2.13,235.37 2.42,231.25 2.71,227.15C3.02,222.81 3.32,218.28 3.62,213.75C3.93,209.11 4.22,204.36 4.52,199.63C4.82,194.86 5.12,190.05 5.42,185.27C5.72,180.51 6.03,175.74 6.33,171.02C6.63,166.36 6.93,161.7 7.23,157.11C7.53,152.62 7.83,148.15 8.14,143.77C8.44,139.5 8.73,135.28 9.04,131.15C9.34,127.16 9.64,123.22 9.95,119.38C10.25,115.7 10.54,112.09 10.85,108.59C11.14,105.26 11.44,102 11.75,98.86C12.04,95.9 12.35,93.01 12.66,90.25C12.95,87.69 13.24,85.2 13.56,82.84C13.85,80.68 14.15,78.6 14.47,76.66C14.76,74.92 15.05,73.25 15.37,71.73C15.65,70.41 15.93,69.15 16.27,68.07C16.55,67.17 16.82,66.3 17.18,65.66C17.45,65.18 17.73,64.65 18.08,64.49C18.35,64.36 18.72,64.38 18.99,64.52C19.34,64.7 19.62,65.22 19.89,65.7C20.24,66.31 20.51,67.12 20.79,67.95C21.12,68.92 21.41,70.04 21.7,71.19C22.02,72.48 22.31,73.88 22.6,75.32C22.92,76.88 23.22,78.54 23.51,80.22C23.82,82 24.11,83.86 24.41,85.74C24.72,87.69 25.02,89.7 25.32,91.72C25.62,93.78 25.92,95.88 26.22,97.96C26.52,100.05 26.82,102.16 27.12,104.24C27.42,106.28 27.72,108.33 28.03,110.32C28.33,112.23 28.62,114.12 28.93,115.93C29.22,117.63 29.52,119.29 29.84,120.85C30.13,122.29 30.42,123.67 30.74,124.97C31.03,126.14 31.32,127.26 31.64,128.29C31.93,129.22 32.23,130.08 32.55,130.89C32.84,131.62 33.14,132.29 33.45,132.94C33.74,133.54 34.05,134.09 34.36,134.64C34.66,135.17 34.96,135.67 35.26,136.18C35.56,136.69 35.86,137.18 36.16,137.7C36.47,138.23 36.78,138.76 37.07,139.33C37.38,139.93 37.68,140.55 37.97,141.2C38.28,141.89 38.59,142.61 38.88,143.37C39.19,144.18 39.49,145.03 39.78,145.92C40.09,146.87 40.39,147.86 40.68,148.88C40.99,149.97 41.3,151.1 41.59,152.26C41.9,153.49 42.19,154.76 42.49,156.06C42.8,157.42 43.1,158.82 43.4,160.24C43.71,161.72 44,163.23 44.3,164.77C44.61,166.36 44.91,167.97 45.21,169.61C45.52,171.29 45.81,173 46.11,174.73C46.41,176.5 46.71,178.29 47.01,180.1C47.31,181.94 47.62,183.8 47.92,185.67C48.22,187.57 48.52,189.5 48.82,191.43C49.12,193.38 49.43,195.36 49.73,197.33C50.03,199.32 50.33,201.32 50.63,203.32C50.93,205.32 51.23,207.35 51.53,209.34C51.83,211.31 52.13,213.3 52.44,215.21C52.73,217.03 53.03,218.81 53.34,220.54C53.63,222.18 53.93,223.81 54.25,225.32C54.54,226.7 54.84,228 55.15,229.26C55.44,230.42 55.73,231.56 56.05,232.6C56.34,233.52 56.61,234.48 56.96,235.19C57.23,235.75 57.5,236.35 57.86,236.59C58.13,236.76 58.49,236.83 58.77,236.73C59.11,236.6 59.4,236.13 59.67,235.68C60.04,235.06 60.29,234.1 60.58,233.22C60.9,232.22 61.19,231.11 61.48,229.99C61.79,228.8 62.08,227.54 62.38,226.28C62.69,224.98 62.99,223.65 63.29,222.33C63.59,220.99 63.89,219.64 64.19,218.29C64.49,216.92 64.8,215.54 65.1,214.16C65.4,212.77 65.7,211.35 66,209.98C66.3,208.64 66.59,207.29 66.9,206.02C67.19,204.83 67.49,203.67 67.81,202.59C68.1,201.61 68.39,200.65 68.71,199.8C68.99,199.05 69.29,198.33 69.62,197.74C69.9,197.25 70.18,196.76 70.52,196.47C70.79,196.24 71.12,196.03 71.42,196.03C71.72,196.03 72.06,196.23 72.33,196.46C72.68,196.76 72.95,197.27 73.23,197.78C73.57,198.41 73.86,199.18 74.14,199.99C74.47,200.93 74.75,201.99 75.04,203.09C75.36,204.33 75.66,205.67 75.95,207.05C76.27,208.56 76.56,210.16 76.85,211.81C77.16,213.57 77.46,215.42 77.75,217.3C78.06,219.28 78.36,221.34 78.66,223.42C78.97,225.57 79.26,227.77 79.56,229.98C79.87,232.24 80.17,234.55 80.47,236.85C80.77,239.17 81.07,241.53 81.37,243.86C81.67,246.18 81.97,248.51 82.27,250.81C82.57,253.07 82.87,255.36 83.18,257.54C83.47,259.61 83.76,261.68 84.08,263.57C84.37,265.26 84.66,266.91 84.99,268.36C85.27,269.58 85.54,270.75 85.89,271.69C86.16,272.41 86.43,273.11 86.79,273.55C87.06,273.88 87.38,274.18 87.7,274.24C87.99,274.29 88.32,274.15 88.6,273.96C88.94,273.73 89.23,273.27 89.51,272.83C89.84,272.31 90.12,271.67 90.41,271.03C90.73,270.33 91.03,269.59 91.32,268.79C91.64,267.91 91.93,266.96 92.22,265.96C92.54,264.87 92.82,263.67 93.12,262.49C93.43,261.28 93.73,260.03 94.03,258.79C94.33,257.54 94.63,256.29 94.93,255.04C95.23,253.79 95.54,252.54 95.84,251.31C96.14,250.1 96.44,248.9 96.74,247.72C97.04,246.57 97.33,245.43 97.64,244.32C97.94,243.24 98.24,242.18 98.55,241.13C98.85,240.11 99.15,239.11 99.45,238.11C99.75,237.13 100.06,236.16 100.36,235.18C100.66,234.2 100.96,233.23 101.26,232.24C101.56,231.24 101.85,230.2 102.16,229.21C102.46,228.24 102.76,227.27 103.07,226.35C103.36,225.49 103.65,224.65 103.97,223.87C104.26,223.15 104.56,222.46 104.88,221.84C105.17,221.28 105.46,220.75 105.78,220.3C106.06,219.9 106.36,219.53 106.68,219.23C106.97,218.96 107.28,218.74 107.59,218.56C107.88,218.39 108.19,218.28 108.49,218.18C108.79,218.08 109.1,218.01 109.4,217.95C109.7,217.89 110,217.86 110.3,217.81C110.6,217.76 110.92,217.74 111.21,217.63C111.52,217.52 111.82,217.32 112.11,217.13C112.42,216.93 112.72,216.72 113.01,216.46C113.32,216.18 113.63,215.87 113.92,215.51C114.24,215.11 114.54,214.66 114.82,214.16C115.14,213.6 115.44,212.97 115.73,212.29C116.05,211.53 116.34,210.68 116.63,209.8C116.95,208.83 117.24,207.79 117.53,206.72C117.84,205.56 118.15,204.36 118.44,203.1C118.76,201.73 119.04,200.24 119.34,198.78C119.65,197.27 119.95,195.71 120.25,194.18C120.55,192.64 120.85,191.1 121.15,189.57C121.45,188.06 121.75,186.55 122.05,185.06C122.35,183.6 122.65,182.14 122.96,180.71C123.26,179.31 123.55,177.92 123.86,176.56C124.16,175.25 124.46,173.96 124.77,172.72C125.06,171.54 125.36,170.38 125.67,169.28C125.96,168.25 126.27,167.24 126.58,166.29C126.87,165.42 127.17,164.57 127.48,163.79C127.77,163.07 128.06,162.39 128.38,161.76C128.67,161.19 128.97,160.66 129.29,160.19C129.58,159.77 129.86,159.37 130.19,159.07C130.47,158.81 130.78,158.57 131.1,158.46C131.39,158.36 131.71,158.34 132,158.41C132.31,158.49 132.62,158.71 132.9,158.96C133.23,159.25 133.53,159.67 133.81,160.11C134.14,160.62 134.42,161.23 134.71,161.86C135.03,162.57 135.33,163.37 135.62,164.17C135.93,165.02 136.23,165.9 136.52,166.81C136.83,167.79 137.13,168.81 137.42,169.86C137.73,170.98 138.04,172.16 138.33,173.36C138.64,174.62 138.93,175.92 139.23,177.24C139.54,178.62 139.84,180.03 140.14,181.46C140.45,182.92 140.74,184.41 141.04,185.9C141.34,187.41 141.65,188.93 141.95,190.46C142.25,191.99 142.55,193.54 142.85,195.08C143.15,196.61 143.45,198.15 143.75,199.67C144.05,201.17 144.35,202.68 144.66,204.15C144.96,205.58 145.25,207 145.56,208.38C145.86,209.7 146.16,210.99 146.47,212.23C146.76,213.4 147.06,214.54 147.37,215.61C147.66,216.59 147.95,217.55 148.27,218.41C148.55,219.16 148.85,219.88 149.18,220.48C149.46,220.98 149.75,221.44 150.08,221.79C150.36,222.09 150.67,222.34 150.99,222.5C151.28,222.64 151.59,222.68 151.89,222.74C152.19,222.79 152.49,222.82 152.79,222.83C153.09,222.84 153.4,222.83 153.7,222.77C154,222.71 154.31,222.61 154.6,222.48C154.91,222.34 155.22,222.16 155.51,221.95C155.82,221.73 156.12,221.46 156.41,221.18C156.72,220.89 157.03,220.56 157.32,220.22C157.63,219.86 157.92,219.45 158.22,219.05C158.52,218.65 158.82,218.23 159.12,217.83C159.42,217.44 159.72,217.05 160.03,216.68C160.33,216.32 160.63,215.98 160.93,215.65C161.23,215.32 161.54,215.03 161.84,214.69C162.15,214.33 162.44,213.95 162.74,213.56C163.04,213.17 163.34,212.76 163.64,212.35C163.94,211.94 164.25,211.53 164.55,211.12C164.85,210.7 165.15,210.29 165.45,209.85C165.76,209.4 166.07,208.94 166.36,208.45C166.67,207.93 166.97,207.4 167.26,206.83C167.57,206.22 167.88,205.59 168.16,204.88C168.49,204.06 168.78,203.14 169.07,202.18C169.39,201.11 169.67,199.93 169.97,198.76C170.28,197.54 170.58,196.28 170.88,195C171.19,193.68 171.48,192.33 171.78,190.97C172.08,189.58 172.38,188.16 172.68,186.74C172.98,185.29 173.29,183.82 173.59,182.35C173.89,180.86 174.19,179.36 174.49,177.85C174.79,176.33 175.1,174.8 175.4,173.27C175.7,171.75 176,170.22 176.3,168.7C176.6,167.19 176.91,165.69 177.21,164.2C177.51,162.73 177.81,161.27 178.11,159.83C178.41,158.42 178.7,157.02 179.01,155.65C179.31,154.31 179.61,152.99 179.92,151.7C180.22,150.45 180.51,149.22 180.82,148.03C181.12,146.89 181.42,145.78 181.73,144.71C182.02,143.71 182.32,142.73 182.63,141.81C182.92,140.97 183.21,140.15 183.53,139.4C183.82,138.73 184.12,138.08 184.44,137.52C184.72,137.03 185.01,136.56 185.34,136.2C185.62,135.89 185.93,135.61 186.25,135.46C186.53,135.33 186.86,135.26 187.15,135.3C187.46,135.34 187.77,135.51 188.05,135.71C188.38,135.95 188.68,136.31 188.96,136.69C189.29,137.13 189.57,137.66 189.86,138.21C190.18,138.84 190.48,139.54 190.77,140.27C191.09,141.08 191.38,141.96 191.67,142.87C191.99,143.86 192.29,144.91 192.58,146C192.89,147.17 193.19,148.4 193.48,149.66C193.79,151 194.09,152.39 194.38,153.82C194.69,155.33 194.99,156.88 195.29,158.47C195.6,160.13 195.89,161.83 196.19,163.57C196.5,165.38 196.8,167.23 197.1,169.1C197.41,171.03 197.7,173 198,174.98C198.3,177.01 198.6,179.1 198.9,181.16C199.2,183.23 199.51,185.34 199.81,187.4C200.11,189.42 200.41,191.41 200.71,193.39C201.01,195.34 201.31,197.31 201.62,199.2C201.91,201 202.22,202.74 202.52,204.48C202.82,206.18 203.12,207.85 203.42,209.51C203.72,211.14 204.02,212.76 204.33,214.36C204.63,215.92 204.92,217.47 205.23,218.97C205.53,220.41 205.83,221.8 206.14,223.18C206.44,224.51 206.73,225.82 207.04,227.09C207.34,228.3 207.64,229.48 207.95,230.64C208.25,231.77 208.55,232.87 208.85,233.96C209.15,235.03 209.45,236.08 209.75,237.12C210.05,238.14 210.35,239.15 210.66,240.14C210.96,241.1 211.25,242.06 211.56,242.96C211.85,243.81 212.16,244.64 212.47,245.42C212.76,246.14 213.06,246.83 213.37,247.48C213.66,248.09 213.95,248.68 214.27,249.21C214.56,249.69 214.86,250.15 215.18,250.52C215.46,250.84 215.77,251.11 216.08,251.34C216.37,251.56 216.68,251.75 216.99,251.89C217.28,252.02 217.59,252.15 217.89,252.18C218.19,252.21 218.52,252.25 218.79,252.08C219.16,251.84 219.42,251.12 219.7,250.55C220.03,249.88 220.3,249.07 220.6,248.3C220.91,247.5 221.21,246.67 221.51,245.83C221.82,244.95 222.11,244.04 222.41,243.13C222.71,242.21 223.02,241.27 223.32,240.34C223.62,239.41 223.92,238.48 224.22,237.55C224.52,236.62 224.82,235.72 225.12,234.78C225.43,233.82 225.73,232.85 226.03,231.86C226.34,230.83 226.63,229.76 226.93,228.7C227.23,227.63 227.54,226.57 227.84,225.49C228.14,224.39 228.44,223.29 228.74,222.16C229.04,221 229.34,219.83 229.64,218.62C229.95,217.36 230.26,216.1 230.55,214.77C230.86,213.34 231.15,211.8 231.45,210.29C231.75,208.75 232.06,207.18 232.36,205.61C232.66,204.02 232.96,202.42 233.26,200.82C233.56,199.21 233.86,197.58 234.16,195.97C234.46,194.37 234.77,192.76 235.07,191.17C235.37,189.61 235.66,188.06 235.97,186.53C236.27,185.04 236.57,183.57 236.88,182.13C237.18,180.75 237.47,179.39 237.78,178.08C238.07,176.83 238.37,175.61 238.68,174.44C238.97,173.35 239.28,172.28 239.59,171.28C239.88,170.36 240.17,169.46 240.49,168.64C240.78,167.9 241.08,167.19 241.4,166.56C241.68,166.01 241.97,165.48 242.3,165.07C242.58,164.72 242.88,164.38 243.21,164.2C243.49,164.04 243.81,163.94 244.11,163.96C244.41,163.98 244.73,164.15 245.01,164.36C245.34,164.6 245.64,164.99 245.92,165.4C246.25,165.87 246.54,166.45 246.82,167.06C247.14,167.75 247.44,168.54 247.73,169.35C248.05,170.25 248.34,171.22 248.63,172.23C248.94,173.32 249.23,174.49 249.53,175.66C249.84,176.88 250.14,178.13 250.44,179.41C250.75,180.73 251.04,182.08 251.34,183.47C251.65,184.92 251.95,186.42 252.25,187.92C252.56,189.46 252.85,191.04 253.15,192.62C253.45,194.22 253.75,195.83 254.05,197.46C254.35,199.11 254.66,200.77 254.96,202.46C255.26,204.18 255.56,205.92 255.86,207.68C256.16,209.47 256.47,211.29 256.77,213.12C257.07,214.99 257.37,216.88 257.67,218.78C257.97,220.71 258.28,222.65 258.58,224.6C258.88,226.57 259.18,228.55 259.48,230.53C259.78,232.5 260.07,234.52 260.38,236.45C260.68,238.29 260.97,240.12 261.29,241.84C261.58,243.42 261.88,244.9 262.19,246.37C262.48,247.77 262.78,249.17 263.1,250.46C263.39,251.62 263.69,252.71 264,253.75C264.29,254.71 264.59,255.6 264.9,256.48C265.19,257.31 265.5,258.13 265.81,258.9C266.1,259.63 266.4,260.34 266.71,261C267,261.61 267.3,262.21 267.62,262.73C267.91,263.2 268.19,263.68 268.52,264.01C268.8,264.29 269.1,264.58 269.42,264.66C269.71,264.73 270.05,264.69 270.33,264.55C270.66,264.39 270.95,264 271.23,263.64C271.56,263.23 271.85,262.7 272.14,262.18C272.45,261.62 272.75,261.01 273.04,260.37C273.35,259.68 273.66,258.97 273.95,258.19C274.27,257.31 274.56,256.32 274.85,255.34C275.16,254.29 275.46,253.2 275.75,252.09C276.06,250.92 276.36,249.72 276.66,248.5C276.97,247.23 277.26,245.92 277.56,244.59C277.87,243.21 278.17,241.81 278.47,240.38C278.78,238.91 279.07,237.41 279.37,235.89C279.67,234.34 279.97,232.77 280.27,231.18C280.58,229.55 280.88,227.91 281.18,226.22C281.49,224.47 281.78,222.67 282.08,220.86C282.39,218.99 282.69,217.06 282.99,215.16C283.29,213.26 283.59,211.35 283.89,209.46C284.19,207.6 284.49,205.74 284.79,203.91C285.09,202.11 285.39,200.33 285.7,198.58C286,196.88 286.29,195.19 286.6,193.54C286.9,191.95 287.2,190.38 287.51,188.85C287.81,187.39 288.1,185.95 288.41,184.56C288.7,183.25 289.01,181.96 289.32,180.73C289.61,179.58 289.91,178.46 290.22,177.41C290.51,176.44 290.8,175.51 291.12,174.65C291.41,173.87 291.7,173.13 292.03,172.47C292.31,171.9 292.6,171.35 292.93,170.92C293.21,170.56 293.51,170.21 293.84,170.04C294.12,169.9 294.45,169.82 294.74,169.88C295.05,169.94 295.36,170.2 295.64,170.47C295.98,170.81 296.27,171.32 296.55,171.84C296.88,172.47 297.17,173.22 297.45,174.01C297.78,174.92 298.07,175.93 298.36,176.99C298.68,178.17 298.97,179.44 299.26,180.75C299.57,182.19 299.87,183.71 300.16,185.28C300.47,186.97 300.78,188.74 301.07,190.55C301.38,192.46 301.67,194.45 301.97,196.46C302.28,198.56 302.58,200.73 302.88,202.9C303.18,205.11 303.48,207.37 303.78,209.61C304.08,211.87 304.38,214.14 304.68,216.4C304.98,218.65 305.29,220.91 305.59,223.15C305.89,225.37 306.19,227.58 306.49,229.77C306.79,231.92 307.08,234.13 307.4,236.15C307.69,237.99 307.98,239.74 308.3,241.41C308.59,242.95 308.88,244.46 309.21,245.82C309.49,247 309.75,248.2 310.11,249.09C310.38,249.76 310.64,250.62 311.01,250.76C311.28,250.86 311.66,250.67 311.92,250.41C312.33,250.01 312.55,249.05 312.82,248.19C313.17,247.09 313.45,245.7 313.73,244.3C314.06,242.69 314.34,240.9 314.63,239.07C314.94,237.07 315.24,234.94 315.53,232.77C315.84,230.46 316.14,228.05 316.44,225.6C316.75,223.04 317.04,220.41 317.34,217.74C317.65,214.98 317.95,212.15 318.25,209.32C318.55,206.43 318.85,203.49 319.15,200.57C319.45,197.64 319.75,194.68 320.05,191.77C320.35,188.9 320.65,186.02 320.96,183.21C321.26,180.47 321.55,177.75 321.86,175.1C322.16,172.56 322.46,170.05 322.77,167.63C323.06,165.33 323.36,163.08 323.67,160.92C323.96,158.91 324.26,156.94 324.58,155.09C324.87,153.39 325.16,151.74 325.48,150.22C325.76,148.86 326.05,147.55 326.38,146.39C326.66,145.39 326.95,144.42 327.29,143.64C327.56,143.01 327.83,142.37 328.19,142.01C328.46,141.74 328.8,141.48 329.1,141.49C329.4,141.5 329.73,141.79 330,142.08C330.36,142.47 330.62,143.12 330.9,143.77C331.24,144.57 331.53,145.54 331.81,146.55C332.14,147.72 332.42,149.02 332.71,150.37C333.03,151.87 333.33,153.49 333.62,155.16C333.94,156.97 334.23,158.89 334.52,160.85C334.83,162.94 335.13,165.13 335.42,167.35C335.73,169.69 336.03,172.12 336.33,174.57C336.64,177.12 336.93,179.75 337.23,182.36C337.53,185 337.84,187.69 338.14,190.34C338.44,192.98 338.74,195.61 339.04,198.23C339.34,200.83 339.64,203.45 339.95,206.01C340.25,208.51 340.54,211 340.85,213.42C341.14,215.74 341.44,218.04 341.75,220.22C342.04,222.26 342.34,224.26 342.66,226.11C342.95,227.77 343.23,229.39 343.56,230.81C343.84,232.02 344.11,233.22 344.47,234.13C344.74,234.81 344.99,235.63 345.37,235.85C345.63,236 346.01,235.98 346.27,235.81C346.66,235.56 346.91,234.72 347.18,234.02C347.53,233.1 347.81,231.95 348.08,230.7C348.42,229.13 348.7,227.22 348.99,225.34C349.31,223.26 349.6,221 349.89,218.74C350.2,216.35 350.49,213.83 350.79,211.36C351.09,208.88 351.4,206.38 351.7,203.91C352,201.47 352.29,199.02 352.6,196.62C352.9,194.28 353.2,191.96 353.51,189.69C353.81,187.51 354.1,185.35 354.41,183.27C354.7,181.29 355.01,179.35 355.32,177.49C355.61,175.75 355.91,174.06 356.22,172.46C356.51,171 356.8,169.57 357.12,168.27C357.41,167.11 357.7,165.99 358.03,165.01C358.31,164.17 358.59,163.36 358.93,162.73C359.2,162.23 359.49,161.7 359.84,161.46C360.11,161.27 360.46,161.16 360.74,161.23C361.06,161.31 361.37,161.67 361.64,162.02C361.99,162.47 362.27,163.13 362.55,163.8C362.88,164.6 363.17,165.55 363.45,166.53C363.77,167.65 364.07,168.89 364.36,170.16C364.68,171.56 364.97,173.06 365.26,174.6C365.57,176.26 365.87,178.01 366.16,179.79C366.47,181.67 366.77,183.63 367.07,185.61C367.38,187.68 367.67,189.82 367.97,191.97C368.28,194.19 368.58,196.46 368.88,198.74C369.18,201.06 369.48,203.42 369.78,205.77C370.08,208.13 370.38,210.52 370.68,212.87C370.98,215.19 371.28,217.53 371.59,219.8C371.89,221.99 372.18,224.18 372.49,226.24C372.78,228.14 373.05,230.12 373.4,231.72C373.67,232.98 373.84,234.48 374.3,235.07C374.55,235.39 374.94,235.65 375.21,235.57C375.57,235.46 375.84,234.56 376.11,233.92C376.46,233.1 376.73,232.05 377.01,231.01C377.33,229.83 377.63,228.51 377.92,227.18C378.24,225.73 378.53,224.21 378.82,222.64C379.13,220.94 379.43,219.12 379.73,217.33C380.04,215.49 380.33,213.61 380.63,211.73C380.93,209.83 381.23,207.89 381.53,205.98C381.83,204.07 382.13,202.14 382.44,200.26C382.74,198.43 383.03,196.61 383.34,194.85C383.64,193.17 383.94,191.51 384.25,189.93C384.54,188.45 384.84,187 385.15,185.64C385.44,184.38 385.73,183.17 386.05,182.04C386.34,181.03 386.63,180.06 386.96,179.19C387.24,178.43 387.53,177.71 387.86,177.11C388.14,176.61 388.43,176.11 388.77,175.8C389.05,175.55 389.36,175.32 389.67,175.29C389.97,175.26 390.3,175.39 390.58,175.58C390.92,175.81 391.2,176.26 391.48,176.71C391.82,177.25 392.1,177.93 392.38,178.64C392.71,179.46 393,180.39 393.29,181.35C393.61,182.42 393.9,183.58 394.19,184.78C394.5,186.08 394.81,187.45 395.1,188.86C395.41,190.36 395.71,191.93 396,193.52C396.31,195.19 396.6,196.93 396.9,198.65C397.2,200.38 397.51,202.1 397.81,203.86C398.12,205.66 398.41,207.49 398.71,209.33C399.02,211.22 399.32,213.14 399.62,215.06C399.92,216.99 400.21,218.97 400.52,220.88C400.82,222.72 401.12,224.51 401.42,226.31C401.72,228.09 402.02,229.87 402.33,231.61C402.63,233.31 402.92,235.01 403.23,236.63C403.52,238.15 403.83,239.63 404.14,241.04C404.43,242.34 404.73,243.57 405.04,244.77C405.33,245.89 405.64,246.98 405.95,248.01C406.24,248.96 406.53,249.88 406.85,250.72C407.14,251.47 407.42,252.22 407.75,252.83C408.03,253.35 408.31,253.92 408.66,254.18C408.93,254.38 409.27,254.49 409.56,254.46C409.87,254.42 410.19,254.18 410.47,253.93C410.81,253.62 411.09,253.15 411.37,252.66C411.7,252.07 411.98,251.33 412.27,250.62C412.58,249.87 412.88,249.07 413.18,248.29C413.48,247.5 413.78,246.7 414.08,245.92C414.38,245.15 414.69,244.39 414.99,243.62C415.29,242.85 415.59,242.06 415.89,241.3C416.19,240.56 416.48,239.82 416.79,239.13C417.08,238.47 417.38,237.82 417.7,237.24C417.99,236.71 418.28,236.19 418.6,235.76C418.89,235.38 419.18,235.01 419.51,234.76C419.79,234.54 420.1,234.35 420.41,234.28C420.7,234.22 421.03,234.24 421.32,234.34C421.64,234.45 421.94,234.69 422.22,234.94C422.54,235.22 422.83,235.58 423.12,235.96C423.44,236.37 423.74,236.84 424.03,237.33C424.35,237.87 424.64,238.47 424.93,239.09C425.24,239.76 425.55,240.48 425.84,241.21C426.15,241.98 426.44,242.8 426.74,243.6C427.04,244.4 427.34,245.19 427.64,246.01C427.95,246.87 428.25,247.76 428.55,248.66C428.86,249.59 429.15,250.55 429.45,251.51C429.76,252.5 430.06,253.52 430.36,254.53C430.66,255.55 430.96,256.59 431.26,257.61C431.56,258.62 431.86,259.63 432.16,260.62C432.46,261.6 432.77,262.57 433.07,263.54C433.37,264.49 433.67,265.44 433.97,266.37C434.27,267.28 434.57,268.19 434.88,269.08C435.18,269.94 435.47,270.79 435.78,271.61C436.07,272.4 436.37,273.18 436.68,273.91C436.97,274.59 437.27,275.28 437.59,275.87C437.87,276.39 438.16,276.9 438.49,277.28C438.77,277.6 439.09,278.04 439.4,278.05C439.7,278.06 440.01,277.66 440.3,277.39C440.62,277.09 440.92,276.7 441.21,276.32C441.52,275.91 441.82,275.48 442.11,275.02C442.42,274.54 442.71,274.02 443.01,273.5C443.32,272.96 443.62,272.4 443.92,271.84C444.23,271.26 444.52,270.67 444.82,270.08C445.12,269.48 445.43,268.88 445.73,268.28C446.03,267.68 446.33,267.08 446.63,266.49C446.93,265.91 447.22,265.34 447.53,264.79C447.83,264.26 448.13,263.75 448.44,263.26C448.74,262.79 449.03,262.33 449.34,261.89C449.64,261.46 449.94,261.04 450.25,260.63C450.55,260.24 450.84,259.84 451.15,259.49C451.44,259.17 451.74,258.86 452.05,258.6C452.34,258.36 452.65,258.14 452.96,257.99C453.25,257.85 453.56,257.74 453.86,257.69C454.16,257.64 454.47,257.63 454.77,257.67C455.07,257.71 455.38,257.8 455.67,257.92C455.98,258.05 456.29,258.22 456.58,258.42C456.89,258.63 457.19,258.88 457.48,259.14C457.79,259.41 458.08,259.71 458.38,260.02C458.69,260.34 458.99,260.69 459.29,261.03C459.59,261.38 459.89,261.75 460.19,262.1C460.49,262.45 460.79,262.81 461.1,263.13Q461.4,263.44 462,264.01" style="vector-effect: non-scaling-stroke; fill: none; stroke: rgb(0, 100, 80); stroke-opacity: 1; stroke-width: 2px; opacity: 1;"/></g><g class="points"/><g class="text"/></g><g class="trace scatter tracee8df11" style="stroke-miterlimit: 2; opacity: 1;"><g class="fills"/><g class="errorbars"/><g class="lines"><path class="js-line" d="M0,230.45Q0.63,228.26 0.9,226.85C1.27,224.91 1.52,222.31 1.81,219.85C2.13,217.12 2.41,214.14 2.71,211.19C3.02,208.12 3.32,204.93 3.62,201.77C3.92,198.56 4.22,195.3 4.52,192.06C4.82,188.8 5.12,185.55 5.42,182.27C5.72,178.94 6.04,175.66 6.33,172.23C6.64,168.63 6.94,164.94 7.23,161.15C7.54,157.17 7.84,153.01 8.14,148.92C8.44,144.82 8.74,140.65 9.04,136.58C9.34,132.59 9.64,128.61 9.95,124.72C10.25,120.96 10.54,117.24 10.85,113.63C11.14,110.17 11.44,106.77 11.75,103.49C12.04,100.39 12.35,97.37 12.66,94.47C12.95,91.77 13.24,89.15 13.56,86.67C13.85,84.41 14.15,82.23 14.47,80.21C14.76,78.42 15.04,76.69 15.37,75.15C15.65,73.84 15.92,72.58 16.27,71.55C16.54,70.74 16.8,69.91 17.18,69.45C17.44,69.14 17.79,68.82 18.08,68.85C18.39,68.88 18.72,69.32 18.99,69.72C19.36,70.28 19.62,71.16 19.89,72.03C20.23,73.1 20.51,74.38 20.79,75.7C21.12,77.22 21.41,78.9 21.7,80.63C22.02,82.55 22.31,84.6 22.6,86.7C22.91,88.96 23.22,91.32 23.51,93.73C23.82,96.27 24.11,98.9 24.41,101.55C24.72,104.29 25.02,107.1 25.32,109.91C25.62,112.77 25.92,115.68 26.22,118.55C26.52,121.41 26.81,124.3 27.12,127.09C27.42,129.76 27.71,132.46 28.03,134.94C28.32,137.19 28.57,139.56 28.93,141.37C29.2,142.72 29.34,144.52 29.84,144.86C30.09,145.03 30.48,144.94 30.74,144.76C31.12,144.5 31.36,143.68 31.64,143.04C31.97,142.28 32.26,141.37 32.55,140.47C32.86,139.5 33.15,138.45 33.45,137.41C33.76,136.34 34.06,135.22 34.36,134.13C34.66,133.05 34.95,131.95 35.26,130.89C35.55,129.87 35.85,128.84 36.16,127.89C36.45,127 36.75,126.13 37.07,125.35C37.36,124.66 37.63,123.97 37.97,123.42C38.25,122.97 38.54,122.5 38.88,122.26C39.15,122.07 39.49,121.93 39.78,121.98C40.09,122.03 40.41,122.34 40.68,122.66C41.03,123.07 41.31,123.71 41.59,124.36C41.93,125.15 42.21,126.1 42.49,127.09C42.82,128.23 43.11,129.51 43.4,130.84C43.72,132.33 44.01,133.94 44.3,135.6C44.62,137.41 44.92,139.32 45.21,141.28C45.52,143.38 45.82,145.58 46.11,147.82C46.42,150.18 46.71,152.62 47.01,155.08C47.32,157.64 47.62,160.26 47.92,162.89C48.22,165.57 48.52,168.31 48.82,171.02C49.12,173.74 49.43,176.48 49.73,179.17C50.03,181.81 50.32,184.45 50.63,187C50.92,189.43 51.22,191.84 51.53,194.13C51.82,196.27 52.13,198.32 52.44,200.31C52.73,202.16 53.03,203.93 53.34,205.68C53.64,207.37 53.95,209.01 54.25,210.65C54.55,212.26 54.85,213.86 55.15,215.44C55.45,216.99 55.74,218.55 56.05,220.06C56.35,221.53 56.65,222.99 56.96,224.38C57.25,225.68 57.54,226.97 57.86,228.15C58.15,229.21 58.45,230.23 58.77,231.16C59.06,231.98 59.35,232.75 59.67,233.45C59.96,234.07 60.2,234.99 60.58,235.14C60.84,235.24 61.19,234.99 61.48,234.83C61.8,234.65 62.09,234.35 62.38,234.06C62.69,233.75 63,233.39 63.29,233.02C63.6,232.62 63.9,232.18 64.19,231.73C64.5,231.24 64.8,230.71 65.1,230.19C65.41,229.65 65.7,229.08 66,228.54C66.3,228.01 66.59,227.47 66.9,226.99C67.19,226.54 67.49,226.1 67.81,225.73C68.1,225.4 68.39,225.08 68.71,224.88C69,224.7 69.31,224.56 69.62,224.52C69.92,224.49 70.23,224.55 70.52,224.65C70.83,224.76 71.13,224.97 71.42,225.2C71.74,225.45 72.04,225.76 72.33,226.11C72.65,226.5 72.95,226.94 73.23,227.43C73.56,228 73.86,228.65 74.14,229.35C74.47,230.15 74.75,231.04 75.04,231.98C75.36,233.04 75.66,234.2 75.95,235.4C76.27,236.72 76.56,238.14 76.85,239.59C77.16,241.16 77.46,242.81 77.75,244.5C78.06,246.29 78.36,248.16 78.66,250.05C78.97,252.03 79.26,254.07 79.56,256.12C79.86,258.21 80.15,260.45 80.47,262.46C80.76,264.3 81.05,266.1 81.37,267.73C81.65,269.15 81.97,270.38 82.27,271.68C82.57,272.96 82.88,274.24 83.18,275.5C83.48,276.74 83.77,278 84.08,279.2C84.37,280.34 84.67,281.5 84.99,282.52C85.27,283.42 85.53,284.37 85.89,285.03C86.16,285.52 86.44,286.04 86.79,286.2C87.06,286.32 87.41,286.24 87.7,286.14C88.02,286.02 88.31,285.74 88.6,285.48C88.92,285.19 89.2,284.78 89.51,284.46C89.81,284.15 90.1,283.84 90.41,283.58C90.7,283.34 91.01,283.14 91.32,282.95C91.62,282.77 91.92,282.63 92.22,282.48C92.52,282.34 92.82,282.21 93.12,282.08C93.42,281.94 93.73,281.8 94.03,281.67C94.33,281.54 94.63,281.42 94.93,281.28C95.23,281.14 95.55,281.02 95.84,280.85C96.15,280.67 96.46,280.49 96.74,280.2C97.07,279.85 97.37,279.39 97.64,278.84C98,278.11 98.27,277.11 98.55,276.11C98.88,274.93 99.16,273.55 99.45,272.21C99.76,270.8 100.06,269.32 100.36,267.87C100.66,266.42 100.96,264.96 101.26,263.53C101.56,262.14 101.85,260.75 102.16,259.41C102.45,258.14 102.76,256.88 103.07,255.69C103.36,254.58 103.65,253.5 103.97,252.5C104.26,251.59 104.56,250.71 104.88,249.92C105.16,249.23 105.46,248.59 105.78,248C106.07,247.48 106.38,247.03 106.68,246.56C106.98,246.09 107.27,245.57 107.59,245.17C107.87,244.81 108.2,244.58 108.49,244.24C108.81,243.87 109.09,243.4 109.4,243.01C109.69,242.64 109.99,242.29 110.3,241.95C110.6,241.62 110.91,241.32 111.21,240.98C111.52,240.62 111.81,240.21 112.11,239.83C112.41,239.46 112.7,239.08 113.01,238.73C113.31,238.38 113.62,238.07 113.92,237.73C114.22,237.39 114.53,237.06 114.82,236.68C115.13,236.27 115.44,235.83 115.73,235.34C116.05,234.79 116.34,234.18 116.63,233.53C116.95,232.8 117.24,232.01 117.53,231.17C117.85,230.23 118.15,229.21 118.44,228.14C118.76,226.97 119.05,225.7 119.34,224.43C119.65,223.09 119.95,221.67 120.25,220.28C120.55,218.88 120.85,217.45 121.15,216.07C121.45,214.73 121.74,213.38 122.05,212.1C122.34,210.89 122.64,209.71 122.96,208.6C123.25,207.58 123.54,206.58 123.86,205.68C124.15,204.87 124.44,204.1 124.77,203.43C125.05,202.86 125.33,202.31 125.67,201.9C125.95,201.56 126.25,201.23 126.58,201.1C126.86,200.99 127.2,200.97 127.48,201.07C127.8,201.18 128.1,201.48 128.38,201.8C128.72,202.19 129.01,202.74 129.29,203.31C129.62,203.97 129.91,204.75 130.19,205.56C130.51,206.48 130.81,207.49 131.1,208.53C131.42,209.67 131.71,210.89 132,212.14C132.31,213.48 132.61,214.89 132.9,216.33C133.21,217.85 133.51,219.42 133.81,221.02C134.12,222.68 134.41,224.38 134.71,226.1C135.02,227.86 135.32,229.66 135.62,231.46C135.92,233.29 136.22,235.14 136.52,236.98C136.82,238.82 137.11,240.67 137.42,242.49C137.72,244.27 138.02,246.05 138.33,247.76C138.62,249.38 138.92,250.99 139.23,252.5C139.52,253.9 139.82,255.27 140.14,256.52C140.43,257.63 140.7,258.72 141.04,259.63C141.32,260.38 141.59,261.11 141.95,261.61C142.22,261.99 142.52,262.37 142.85,262.46C143.13,262.54 143.48,262.42 143.75,262.25C144.1,262.03 144.38,261.53 144.66,261.09C144.99,260.57 145.27,259.93 145.56,259.31C145.87,258.65 146.17,257.93 146.47,257.22C146.77,256.5 147.07,255.76 147.37,255.04C147.67,254.32 147.96,253.6 148.27,252.9C148.57,252.22 148.87,251.54 149.18,250.88C149.48,250.25 149.77,249.63 150.08,249.04C150.38,248.48 150.68,247.93 150.99,247.41C151.28,246.92 151.58,246.44 151.89,245.99C152.18,245.56 152.48,245.15 152.79,244.77C153.08,244.41 153.39,244.07 153.7,243.74C154,243.42 154.3,243.12 154.6,242.83C154.9,242.54 155.21,242.27 155.51,241.99C155.81,241.72 156.11,241.46 156.41,241.18C156.71,240.9 157.02,240.61 157.32,240.32C157.62,240.03 157.92,239.73 158.22,239.42C158.52,239.1 158.82,238.77 159.12,238.44C159.42,238.1 159.73,237.76 160.03,237.41C160.33,237.05 160.63,236.69 160.93,236.31C161.24,235.92 161.54,235.53 161.84,235.12C162.15,234.69 162.45,234.26 162.74,233.79C163.05,233.29 163.35,232.78 163.64,232.22C163.96,231.61 164.26,230.97 164.55,230.27C164.87,229.5 165.16,228.67 165.45,227.8C165.77,226.84 166.07,225.8 166.36,224.73C166.68,223.56 166.97,222.33 167.26,221.06C167.57,219.7 167.87,218.28 168.16,216.83C168.47,215.3 168.77,213.71 169.07,212.1C169.38,210.42 169.67,208.69 169.97,206.94C170.28,205.13 170.58,203.29 170.88,201.43C171.19,199.52 171.48,197.59 171.78,195.64C172.08,193.66 172.38,191.65 172.68,189.64C172.98,187.61 173.29,185.57 173.59,183.52C173.89,181.47 174.19,179.4 174.49,177.34C174.79,175.28 175.1,173.23 175.4,171.18C175.7,169.14 176,167.11 176.3,165.09C176.6,163.09 176.91,161.09 177.21,159.11C177.51,157.14 177.81,155.19 178.11,153.23C178.41,151.28 178.71,149.35 179.01,147.4C179.31,145.44 179.62,143.48 179.92,141.5C180.22,139.48 180.52,137.45 180.82,135.4C181.12,133.32 181.43,131.2 181.73,129.1C182.03,126.99 182.33,124.86 182.63,122.75C182.93,120.66 183.23,118.56 183.53,116.49C183.83,114.46 184.13,112.45 184.44,110.47C184.74,108.55 185.03,106.65 185.34,104.8C185.64,103.02 185.94,101.25 186.25,99.55C186.54,97.93 186.84,96.34 187.15,94.82C187.44,93.39 187.74,92 188.05,90.68C188.34,89.46 188.64,88.28 188.96,87.19C189.25,86.21 189.53,85.27 189.86,84.43C190.14,83.71 190.43,83 190.77,82.45C191.05,82 191.33,81.54 191.67,81.3C191.95,81.11 192.29,80.97 192.58,81.01C192.89,81.05 193.21,81.32 193.48,81.61C193.83,81.97 194.1,82.54 194.38,83.11C194.72,83.81 195.01,84.65 195.29,85.52C195.62,86.52 195.9,87.64 196.19,88.81C196.51,90.11 196.81,91.52 197.1,92.98C197.42,94.57 197.71,96.24 198,97.97C198.31,99.82 198.61,101.77 198.9,103.75C199.21,105.85 199.51,108.02 199.81,110.24C200.12,112.56 200.41,114.95 200.71,117.38C201.02,119.9 201.32,122.47 201.62,125.08C201.93,127.76 202.22,130.5 202.52,133.26C202.82,136.08 203.12,138.93 203.42,141.8C203.72,144.72 204.03,147.67 204.33,150.62C204.63,153.59 204.93,156.59 205.23,159.58C205.53,162.58 205.84,165.59 206.14,168.58C206.44,171.56 206.74,174.54 207.04,177.5C207.34,180.42 207.65,183.34 207.95,186.22C208.25,189.06 208.55,191.88 208.85,194.66C209.15,197.38 209.44,200.06 209.75,202.71C210.05,205.29 210.35,207.84 210.66,210.34C210.96,212.76 211.25,215.15 211.56,217.49C211.86,219.75 212.16,221.97 212.47,224.14C212.77,226.22 213.06,228.28 213.37,230.26C213.66,232.14 213.94,234.06 214.27,235.76C214.55,237.25 214.82,238.76 215.18,239.92C215.45,240.79 215.74,241.52 216.08,242.14C216.36,242.64 216.64,243.15 216.99,243.39C217.26,243.58 217.61,243.69 217.89,243.63C218.21,243.56 218.52,243.2 218.79,242.86C219.14,242.42 219.42,241.76 219.7,241.1C220.04,240.3 220.32,239.35 220.6,238.36C220.93,237.22 221.22,235.95 221.51,234.62C221.83,233.13 222.12,231.53 222.41,229.86C222.73,228.03 223.03,226.08 223.32,224.08C223.63,221.95 223.93,219.71 224.22,217.44C224.53,215.06 224.82,212.61 225.12,210.13C225.43,207.58 225.73,204.97 226.03,202.34C226.34,199.66 226.63,196.93 226.93,194.2C227.23,191.43 227.54,188.63 227.84,185.83C228.14,183.01 228.44,180.17 228.74,177.33C229.04,174.48 229.34,171.62 229.64,168.76C229.94,165.9 230.25,163.04 230.55,160.18C230.85,157.33 231.15,154.48 231.45,151.65C231.75,148.83 232.06,146.01 232.36,143.22C232.66,140.46 232.96,137.71 233.26,134.99C233.56,132.32 233.85,129.67 234.16,127.06C234.46,124.53 234.76,122.02 235.07,119.57C235.37,117.21 235.66,114.88 235.97,112.63C236.26,110.49 236.57,108.4 236.88,106.39C237.17,104.51 237.47,102.68 237.78,100.95C238.07,99.37 238.36,97.82 238.68,96.41C238.97,95.16 239.26,93.94 239.59,92.88C239.87,91.98 240.14,91.1 240.49,90.42C240.76,89.89 241.04,89.32 241.4,89.1C241.67,88.94 242.03,88.88 242.3,88.99C242.65,89.13 242.94,89.64 243.21,90.11C243.57,90.73 243.83,91.6 244.11,92.48C244.45,93.56 244.73,94.82 245.01,96.13C245.34,97.64 245.63,99.3 245.92,101.03C246.24,102.96 246.53,105.02 246.82,107.16C247.14,109.49 247.44,111.95 247.73,114.48C248.04,117.19 248.34,120.03 248.63,122.93C248.94,126 249.24,129.19 249.53,132.43C249.84,135.83 250.14,139.33 250.44,142.88C250.75,146.57 251.04,150.35 251.34,154.17C251.65,158.1 251.95,162.12 252.25,166.15C252.55,170.26 252.85,174.44 253.15,178.61C253.45,182.8 253.75,187.06 254.05,191.23C254.35,195.33 254.65,199.47 254.96,203.41C255.25,207.14 255.55,210.79 255.86,214.28C256.15,217.54 256.46,220.63 256.77,223.71C257.07,226.67 257.36,229.54 257.67,232.4C257.97,235.18 258.27,237.99 258.58,240.63C258.87,243.09 259.16,245.54 259.48,247.76C259.76,249.7 260.06,251.5 260.38,253.22C260.67,254.77 260.95,256.31 261.29,257.62C261.57,258.71 261.79,259.89 262.19,260.56C262.45,260.99 262.79,261.45 263.1,261.47C263.39,261.49 263.73,261.11 264,260.81C264.34,260.44 264.61,259.86 264.9,259.35C265.21,258.8 265.51,258.2 265.81,257.62C266.11,257.05 266.4,256.46 266.71,255.9C267.01,255.36 267.31,254.83 267.62,254.33C267.91,253.85 268.21,253.38 268.52,252.95C268.81,252.55 269.1,252.16 269.42,251.85C269.71,251.57 270.01,251.3 270.33,251.16C270.62,251.04 270.94,250.97 271.23,251.02C271.54,251.07 271.86,251.27 272.14,251.5C272.47,251.77 272.76,252.16 273.04,252.57C273.37,253.04 273.66,253.61 273.95,254.17C274.26,254.77 274.54,255.47 274.85,256.08C275.14,256.66 275.38,257.42 275.75,257.77C276.02,258.02 276.36,258.2 276.66,258.2C276.96,258.2 277.29,258.01 277.56,257.76C277.92,257.42 278.17,256.69 278.47,256.17C278.77,255.65 279.07,255.16 279.37,254.64C279.67,254.11 279.98,253.59 280.27,253.02C280.58,252.41 280.89,251.79 281.18,251.1C281.5,250.32 281.8,249.49 282.08,248.57C282.41,247.5 282.71,246.3 282.99,245.04C283.31,243.61 283.6,242.02 283.89,240.42C284.2,238.69 284.5,236.86 284.79,235.01C285.1,233.06 285.4,231.05 285.7,229.01C286.01,226.89 286.3,224.7 286.6,222.51C286.91,220.26 287.21,217.97 287.51,215.68C287.81,213.35 288.11,210.99 288.41,208.64C288.71,206.28 289.02,203.91 289.32,201.56C289.62,199.23 289.92,196.89 290.22,194.59C290.52,192.34 290.81,190.09 291.12,187.9C291.42,185.78 291.72,183.68 292.03,181.65C292.32,179.72 292.62,177.81 292.93,175.99C293.22,174.29 293.52,172.63 293.84,171.08C294.13,169.67 294.42,168.29 294.74,167.05C295.02,165.96 295.3,164.9 295.64,164.01C295.92,163.27 296.19,162.53 296.55,162.05C296.82,161.69 297.13,161.3 297.45,161.26C297.74,161.22 298.09,161.44 298.36,161.69C298.73,162.04 298.99,162.7 299.26,163.35C299.6,164.17 299.88,165.19 300.16,166.25C300.49,167.49 300.78,168.9 301.07,170.35C301.39,171.98 301.68,173.76 301.97,175.58C302.29,177.57 302.59,179.69 302.88,181.85C303.19,184.15 303.49,186.55 303.78,188.97C304.09,191.5 304.38,194.11 304.68,196.71C304.98,199.34 305.28,202.04 305.59,204.66C305.89,207.21 306.18,209.78 306.49,212.21C306.78,214.48 307.09,216.68 307.4,218.78C307.69,220.73 307.99,222.6 308.3,224.39C308.59,226.04 308.89,227.65 309.21,229.14C309.5,230.49 309.78,231.82 310.11,232.96C310.39,233.91 310.62,234.94 311.01,235.54C311.27,235.94 311.64,236.43 311.92,236.39C312.25,236.35 312.56,235.57 312.82,234.94C313.23,233.95 313.45,232.37 313.73,230.85C314.07,228.97 314.34,226.74 314.63,224.51C314.95,222.04 315.24,219.35 315.53,216.67C315.84,213.85 316.14,210.9 316.44,207.97C316.75,204.97 317.04,201.9 317.34,198.85C317.64,195.79 317.95,192.69 318.25,189.64C318.55,186.62 318.85,183.59 319.15,180.62C319.45,177.72 319.74,174.82 320.05,172.01C320.35,169.3 320.65,166.62 320.96,164.03C321.25,161.57 321.55,159.15 321.86,156.83C322.15,154.67 322.45,152.55 322.77,150.56C323.06,148.74 323.35,146.97 323.67,145.34C323.96,143.88 324.25,142.48 324.58,141.23C324.86,140.16 325.15,139.14 325.48,138.27C325.76,137.55 326.09,137.03 326.38,136.36C326.69,135.63 327.01,134.91 327.29,134.06C327.62,133.06 327.86,131.73 328.19,130.73C328.47,129.88 328.73,129 329.1,128.43C329.37,128.02 329.68,127.56 330,127.52C330.29,127.49 330.64,127.78 330.9,128.08C331.28,128.52 331.54,129.35 331.81,130.14C332.16,131.15 332.43,132.4 332.71,133.7C333.04,135.23 333.33,136.97 333.62,138.76C333.94,140.78 334.23,142.97 334.52,145.24C334.84,147.73 335.13,150.38 335.42,153.09C335.73,156.01 336.04,159.06 336.33,162.18C336.64,165.48 336.93,168.9 337.23,172.37C337.54,175.98 337.84,179.69 338.14,183.42C338.45,187.24 338.74,191.16 339.04,195.04C339.34,198.94 339.64,202.9 339.95,206.75C340.25,210.49 340.54,214.28 340.85,217.81C341.14,221.05 341.42,224.28 341.75,227.11C342.03,229.49 342.3,231.8 342.66,233.67C342.93,235.09 343.17,236.46 343.56,237.38C343.82,237.99 344.12,238.69 344.47,238.79C344.74,238.86 345.11,238.62 345.37,238.34C345.77,237.91 346,237 346.27,236.14C346.63,235 346.9,233.56 347.18,232.04C347.52,230.17 347.8,228.01 348.08,225.76C348.41,223.16 348.7,220.27 348.99,217.35C349.31,214.18 349.59,210.79 349.89,207.44C350.19,203.98 350.49,200.42 350.79,196.9C351.09,193.35 351.4,189.77 351.7,186.23C352,182.73 352.29,179.22 352.6,175.78C352.9,172.42 353.2,169.08 353.51,165.83C353.81,162.7 354.1,159.61 354.41,156.62C354.7,153.79 355.01,151 355.32,148.34C355.61,145.87 355.9,143.45 356.22,141.18C356.51,139.11 356.8,137.11 357.12,135.27C357.4,133.65 357.7,132.09 358.03,130.73C358.31,129.59 358.57,128.48 358.93,127.64C359.2,127.01 359.46,126.3 359.84,126.06C360.1,125.89 360.47,125.86 360.74,125.99C361.1,126.17 361.37,126.84 361.64,127.42C362,128.2 362.27,129.25 362.55,130.31C362.88,131.59 363.16,133.06 363.45,134.57C363.77,136.27 364.07,138.14 364.36,140.03C364.67,142.06 364.96,144.24 365.26,146.37C365.56,148.53 365.85,150.75 366.16,152.88C366.46,154.95 366.77,156.95 367.07,158.98C367.37,160.99 367.67,162.98 367.97,165C368.27,167.05 368.58,169.12 368.88,171.18C369.18,173.23 369.47,175.32 369.78,177.33C370.08,179.28 370.36,181.24 370.68,183.07C370.97,184.76 371.26,186.44 371.59,187.92C371.87,189.2 372.14,190.46 372.49,191.46C372.76,192.24 373.01,193.08 373.4,193.49C373.66,193.76 374.02,193.99 374.3,193.94C374.63,193.88 374.94,193.38 375.21,192.96C375.57,192.41 375.83,191.61 376.11,190.84C376.43,189.95 376.72,188.94 377.01,187.93C377.32,186.85 377.63,185.75 377.92,184.55C378.24,183.19 378.54,181.77 378.82,180.18C379.15,178.29 379.43,176.01 379.73,173.95C380.03,171.93 380.32,169.91 380.63,167.95C380.92,166.06 381.22,164.19 381.53,162.4C381.82,160.72 382.12,159.07 382.44,157.52C382.73,156.09 383.02,154.7 383.34,153.42C383.63,152.27 383.97,151.35 384.25,150.18C384.58,148.82 384.87,147.32 385.15,145.72C385.47,143.88 385.73,141.65 386.05,139.74C386.34,137.99 386.64,136.28 386.96,134.7C387.25,133.29 387.53,131.94 387.86,130.73C388.14,129.7 388.43,128.7 388.77,127.89C389.04,127.24 389.3,126.57 389.67,126.21C389.94,125.95 390.29,125.71 390.58,125.74C390.89,125.77 391.21,126.13 391.48,126.47C391.84,126.93 392.1,127.66 392.38,128.38C392.72,129.27 393.01,130.34 393.29,131.44C393.62,132.71 393.9,134.13 394.19,135.59C394.51,137.22 394.81,138.98 395.1,140.78C395.42,142.74 395.71,144.8 396,146.91C396.31,149.16 396.61,151.5 396.9,153.89C397.21,156.4 397.51,158.99 397.81,161.62C398.12,164.35 398.41,167.15 398.71,169.97C399.02,172.88 399.32,175.84 399.62,178.82C399.92,181.85 400.22,184.93 400.52,188.01C400.82,191.12 401.12,194.26 401.42,197.38C401.72,200.5 402.03,203.63 402.33,206.73C402.63,209.8 402.93,212.86 403.23,215.88C403.53,218.83 403.83,221.78 404.14,224.65C404.44,227.43 404.73,230.18 405.04,232.86C405.34,235.42 405.64,237.95 405.95,240.38C406.24,242.68 406.54,244.93 406.85,247.08C407.14,249.09 407.44,251.04 407.75,252.9C408.04,254.62 408.34,256.27 408.66,257.84C408.95,259.28 409.24,260.65 409.56,261.96C409.85,263.16 410.15,264.32 410.47,265.4C410.76,266.38 411.03,267.39 411.37,268.18C411.64,268.81 411.91,269.43 412.27,269.79C412.54,270.06 412.87,270.21 413.18,270.3C413.47,270.39 413.78,270.39 414.08,270.36C414.39,270.33 414.69,270.22 414.99,270.1C415.3,269.97 415.6,269.79 415.89,269.59C416.2,269.38 416.49,269.11 416.79,268.85C417.1,268.58 417.39,268.28 417.7,268.01C418,267.74 418.29,267.47 418.6,267.24C418.9,267.02 419.2,266.81 419.51,266.64C419.8,266.48 420.11,266.34 420.41,266.22C420.71,266.1 421.02,266.01 421.32,265.93C421.62,265.85 421.92,265.79 422.22,265.73C422.52,265.67 422.82,265.62 423.12,265.58C423.42,265.54 423.73,265.51 424.03,265.47C424.33,265.44 424.63,265.4 424.93,265.37C425.23,265.34 425.54,265.31 425.84,265.27C426.14,265.23 426.44,265.19 426.74,265.15C427.04,265.11 427.34,265.06 427.64,265.01C427.94,264.96 428.25,264.91 428.55,264.86C428.85,264.82 429.15,264.77 429.45,264.74C429.75,264.71 430.06,264.68 430.36,264.67C430.66,264.66 430.96,264.67 431.26,264.68C431.56,264.69 431.86,264.72 432.16,264.74C432.46,264.76 432.77,264.79 433.07,264.79C433.37,264.79 433.67,264.79 433.97,264.74C434.28,264.69 434.58,264.61 434.88,264.49C435.19,264.37 435.49,264.19 435.78,264.01C436.09,263.82 436.38,263.59 436.68,263.37C436.99,263.14 437.29,262.89 437.59,262.65C437.89,262.41 438.19,262.15 438.49,261.91C438.79,261.68 439.09,261.45 439.4,261.24C439.7,261.04 439.99,260.84 440.3,260.68C440.6,260.53 440.9,260.39 441.21,260.29C441.51,260.2 441.81,260.12 442.11,260.1C442.41,260.08 442.71,260.1 443.01,260.15C443.32,260.2 443.62,260.31 443.92,260.43C444.23,260.56 444.53,260.73 444.82,260.92C445.13,261.12 445.43,261.35 445.73,261.6C446.04,261.85 446.33,262.13 446.63,262.42C446.93,262.72 447.23,263.03 447.53,263.35C447.84,263.68 448.14,264.03 448.44,264.37C448.74,264.71 449,265.26 449.34,265.38C449.62,265.48 449.99,265.42 450.25,265.23C450.63,264.95 450.86,264.12 451.15,263.5C451.47,262.8 451.75,262 452.05,261.24C452.35,260.46 452.65,259.65 452.96,258.88C453.26,258.12 453.55,257.37 453.86,256.65C454.15,255.96 454.46,255.29 454.77,254.66C455.06,254.07 455.36,253.49 455.67,252.96C455.96,252.47 456.26,252 456.58,251.57C456.87,251.18 457.17,250.81 457.48,250.49C457.77,250.2 458.07,249.93 458.38,249.71C458.67,249.5 458.98,249.33 459.29,249.19C459.58,249.06 459.89,248.96 460.19,248.88C460.49,248.8 460.8,248.75 461.1,248.71Q461.4,248.67 462,248.64" style="vector-effect: non-scaling-stroke; fill: none; stroke: rgb(0, 176, 246); stroke-opacity: 1; stroke-width: 2px; opacity: 1;"/></g><g class="points"/><g class="text"/></g><g class="trace scatter trace3aa11c" style="stroke-miterlimit: 2; opacity: 1;"><g class="fills"/><g class="errorbars"/><g class="lines"><path class="js-line" d="M0,211.86Q0.64,211.28 0.9,210.8C1.29,210.1 1.53,208.95 1.81,207.88C2.14,206.61 2.42,205.15 2.71,203.68C3.03,202.08 3.33,200.36 3.62,198.64C3.93,196.83 4.22,194.95 4.52,193.06C4.82,191.12 5.12,189.14 5.42,187.16C5.72,185.14 6.03,183.09 6.33,181.04C6.63,178.96 6.93,176.88 7.23,174.77C7.53,172.63 7.84,170.48 8.14,168.3C8.45,166.06 8.74,163.82 9.04,161.51C9.35,159.1 9.66,156.66 9.95,154.12C10.26,151.42 10.56,148.64 10.85,145.76C11.16,142.68 11.46,139.47 11.75,136.18C12.06,132.7 12.36,129.08 12.66,125.43C12.97,121.65 13.26,117.77 13.56,113.9C13.86,109.97 14.17,105.98 14.47,102.03C14.77,98.09 15.07,94.13 15.37,90.23C15.67,86.38 15.96,82.55 16.27,78.78C16.57,75.11 16.87,71.47 17.18,67.91C17.48,64.47 17.77,61.08 18.08,57.78C18.38,54.63 18.68,51.54 18.99,48.55C19.28,45.72 19.58,42.96 19.89,40.31C20.18,37.84 20.47,35.43 20.79,33.16C21.08,31.08 21.38,29.06 21.7,27.18C21.99,25.5 22.27,23.88 22.6,22.43C22.88,21.18 23.17,19.97 23.51,18.96C23.79,18.15 24.04,17.33 24.41,16.81C24.68,16.44 25.01,16.03 25.32,16C25.61,15.97 25.96,16.25 26.22,16.54C26.59,16.95 26.85,17.71 27.12,18.44C27.47,19.36 27.75,20.5 28.03,21.67C28.36,23.05 28.64,24.61 28.93,26.22C29.25,28.04 29.55,30.01 29.84,32.04C30.16,34.27 30.45,36.64 30.74,39.08C31.05,41.71 31.35,44.47 31.64,47.29C31.95,50.29 32.26,53.41 32.55,56.59C32.86,59.94 33.15,63.39 33.45,66.9C33.76,70.56 34.06,74.32 34.36,78.13C34.67,82.08 34.96,86.11 35.26,90.18C35.56,94.37 35.86,98.63 36.16,102.93C36.47,107.33 36.77,111.8 37.07,116.29C37.37,120.85 37.67,125.47 37.97,130.1C38.27,134.79 38.58,139.52 38.88,144.25C39.18,149 39.48,153.78 39.78,158.54C40.08,163.28 40.37,168.07 40.68,172.75C40.98,177.33 41.27,182.02 41.59,186.32C41.88,190.21 42.11,194.4 42.49,197.43C42.75,199.54 42.95,201.59 43.4,202.77C43.65,203.43 43.94,203.96 44.3,204.19C44.57,204.36 44.92,204.36 45.21,204.3C45.52,204.23 45.83,204 46.11,203.75C46.44,203.45 46.73,203.03 47.01,202.57C47.35,202 47.64,201.32 47.92,200.56C48.26,199.64 48.54,198.54 48.82,197.41C49.15,196.11 49.44,194.65 49.73,193.2C50.04,191.65 50.33,189.99 50.63,188.38C50.93,186.76 51.22,185.09 51.53,183.49C51.83,181.94 52.13,180.39 52.44,178.91C52.73,177.52 53.02,176.16 53.34,174.89C53.63,173.73 53.93,172.59 54.25,171.57C54.53,170.67 54.82,169.81 55.15,169.08C55.43,168.48 55.7,167.87 56.05,167.49C56.32,167.2 56.65,166.91 56.96,166.88C57.25,166.85 57.59,167.05 57.86,167.28C58.21,167.58 58.49,168.14 58.77,168.7C59.11,169.39 59.39,170.27 59.67,171.17C60,172.23 60.29,173.43 60.58,174.68C60.9,176.08 61.19,177.61 61.48,179.19C61.8,180.93 62.09,182.78 62.38,184.69C62.69,186.75 63,188.91 63.29,191.12C63.6,193.48 63.9,195.93 64.19,198.43C64.5,201.06 64.8,203.79 65.1,206.55C65.41,209.43 65.71,212.38 66,215.38C66.31,218.48 66.6,221.65 66.9,224.85C67.21,228.13 67.51,231.47 67.81,234.83C68.11,238.25 68.41,241.72 68.71,245.19C69.01,248.7 69.32,252.24 69.62,255.76C69.92,259.27 70.22,262.81 70.52,266.28C70.82,269.67 71.11,273.1 71.42,276.34C71.71,279.38 71.98,282.58 72.33,285.16C72.6,287.18 72.79,290.47 73.23,290.55C73.49,290.59 73.88,289.6 74.14,288.92C74.52,287.92 74.75,286.4 75.04,285.04C75.36,283.54 75.65,281.89 75.95,280.3C76.25,278.69 76.55,277.04 76.85,275.44C77.15,273.88 77.44,272.31 77.75,270.81C78.04,269.38 78.35,267.97 78.66,266.64C78.95,265.4 79.24,264.19 79.56,263.07C79.85,262.05 80.15,261.07 80.47,260.19C80.75,259.42 81.04,258.68 81.37,258.07C81.65,257.57 81.93,257.07 82.27,256.77C82.55,256.53 82.87,256.31 83.18,256.3C83.48,256.29 83.8,256.46 84.08,256.67C84.42,256.92 84.71,257.36 84.99,257.8C85.32,258.31 85.6,258.95 85.89,259.58C86.21,260.27 86.5,261.03 86.79,261.8C87.1,262.61 87.4,263.45 87.7,264.31C88.01,265.21 88.3,266.14 88.6,267.08C88.91,268.05 89.21,269.05 89.51,270.03C89.81,271.01 90.1,272.03 90.41,272.98C90.7,273.89 91,274.79 91.32,275.62C91.61,276.37 91.9,277.1 92.22,277.74C92.5,278.29 92.79,278.82 93.12,279.24C93.4,279.6 93.7,279.95 94.03,280.16C94.31,280.34 94.63,280.5 94.93,280.48C95.24,280.46 95.57,280.28 95.84,280.03C96.19,279.71 96.47,279.14 96.74,278.57C97.08,277.85 97.36,276.93 97.64,276C97.97,274.91 98.26,273.67 98.55,272.41C98.87,271.02 99.16,269.52 99.45,267.99C99.76,266.35 100.07,264.64 100.36,262.9C100.67,261.07 100.97,259.17 101.26,257.25C101.57,255.25 101.86,253.19 102.16,251.12C102.47,248.99 102.77,246.81 103.07,244.62C103.37,242.39 103.67,240.14 103.97,237.88C104.27,235.6 104.58,233.31 104.88,231.02C105.18,228.74 105.48,226.44 105.78,224.17C106.08,221.92 106.38,219.68 106.68,217.47C106.98,215.3 107.28,213.15 107.59,211.04C107.89,208.99 108.18,206.96 108.49,204.98C108.79,203.08 109.09,201.2 109.4,199.38C109.69,197.64 109.99,195.94 110.3,194.3C110.59,192.75 110.9,191.24 111.21,189.79C111.5,188.44 111.8,187.13 112.11,185.89C112.4,184.75 112.69,183.64 113.01,182.61C113.3,181.67 113.6,180.78 113.92,179.95C114.21,179.21 114.5,178.51 114.82,177.88C115.11,177.32 115.41,176.8 115.73,176.34C116.02,175.93 116.32,175.57 116.63,175.24C116.92,174.93 117.23,174.68 117.53,174.42C117.83,174.16 118.15,173.95 118.44,173.68C118.75,173.39 119.06,173.09 119.34,172.72C119.67,172.29 119.97,171.79 120.25,171.22C120.58,170.54 120.87,169.73 121.15,168.87C121.48,167.85 121.77,166.68 122.05,165.47C122.37,164.09 122.67,162.58 122.96,161.03C123.28,159.33 123.57,157.53 123.86,155.69C124.17,153.74 124.47,151.7 124.77,149.65C125.08,147.52 125.37,145.34 125.67,143.15C125.97,140.91 126.28,138.63 126.58,136.36C126.88,134.06 127.18,131.75 127.48,129.44C127.78,127.14 128.08,124.82 128.38,122.53C128.68,120.26 128.99,117.99 129.29,115.74C129.59,113.53 129.88,111.33 130.19,109.16C130.49,107.04 130.79,104.95 131.1,102.89C131.4,100.9 131.69,98.93 132,97.01C132.29,95.16 132.59,93.34 132.9,91.58C133.19,89.9 133.5,88.25 133.81,86.67C134.1,85.18 134.4,83.72 134.71,82.34C135,81.05 135.3,79.8 135.62,78.63C135.91,77.56 136.2,76.53 136.52,75.59C136.8,74.76 137.09,73.95 137.42,73.26C137.7,72.66 137.99,72.09 138.33,71.65C138.61,71.29 138.9,70.93 139.23,70.78C139.51,70.65 139.85,70.6 140.14,70.68C140.46,70.76 140.76,71.04 141.04,71.33C141.38,71.69 141.67,72.22 141.95,72.76C142.28,73.4 142.57,74.16 142.85,74.95C143.17,75.85 143.46,76.85 143.75,77.89C144.07,79.05 144.37,80.3 144.66,81.6C144.98,83.01 145.27,84.51 145.56,86.05C145.87,87.71 146.18,89.45 146.47,91.24C146.78,93.14 147.08,95.12 147.37,97.15C147.68,99.29 147.98,101.5 148.27,103.76C148.58,106.13 148.88,108.57 149.18,111.05C149.49,113.64 149.78,116.29 150.08,118.98C150.39,121.77 150.69,124.62 150.99,127.5C151.3,130.47 151.59,133.5 151.89,136.56C152.19,139.69 152.49,142.88 152.79,146.08C153.09,149.35 153.4,152.65 153.7,155.97C154,159.33 154.3,162.73 154.6,166.12C154.9,169.54 155.21,172.98 155.51,176.4C155.81,179.81 156.11,183.24 156.41,186.63C156.71,189.97 157.01,193.32 157.32,196.6C157.62,199.8 157.91,202.98 158.22,206.07C158.51,209.02 158.81,211.95 159.12,214.74C159.41,217.35 159.71,219.92 160.03,222.32C160.32,224.5 160.61,226.62 160.93,228.56C161.21,230.26 161.51,231.89 161.84,233.32C162.12,234.51 162.39,235.65 162.74,236.56C163.01,237.26 163.27,237.98 163.64,238.36C163.91,238.63 164.26,238.85 164.55,238.82C164.86,238.79 165.18,238.44 165.45,238.11C165.8,237.68 166.08,237.01 166.36,236.36C166.69,235.58 166.98,234.66 167.26,233.72C167.58,232.66 167.87,231.5 168.16,230.31C168.47,229.02 168.78,227.65 169.07,226.26C169.38,224.78 169.67,223.24 169.97,221.69C170.28,220.08 170.58,218.41 170.88,216.75C171.18,215.05 171.48,213.33 171.78,211.61C172.08,209.88 172.38,208.14 172.68,206.42C172.98,204.71 173.28,203.01 173.59,201.33C173.89,199.69 174.18,198.07 174.49,196.48C174.79,194.95 175.09,193.43 175.4,191.97C175.69,190.58 175.99,189.22 176.3,187.91C176.59,186.68 176.9,185.48 177.21,184.34C177.5,183.29 177.79,182.28 178.11,181.33C178.4,180.47 178.69,179.63 179.01,178.88C179.3,178.21 179.59,177.58 179.92,177.03C180.2,176.55 180.49,176.1 180.82,175.75C181.1,175.45 181.41,175.19 181.73,175.04C182.02,174.9 182.33,174.83 182.63,174.84C182.93,174.85 183.24,174.97 183.53,175.12C183.85,175.28 184.15,175.53 184.44,175.79C184.76,176.07 185.05,176.42 185.34,176.77C185.65,177.14 185.95,177.54 186.25,177.94C186.55,178.35 186.85,178.78 187.15,179.19C187.45,179.59 187.74,180.01 188.05,180.38C188.34,180.73 188.64,181.08 188.96,181.35C189.25,181.6 189.54,181.85 189.86,181.98C190.15,182.1 190.47,182.17 190.77,182.15C191.07,182.13 191.38,182 191.67,181.83C191.99,181.64 192.29,181.35 192.58,181.04C192.9,180.7 193.19,180.28 193.48,179.86C193.79,179.41 194.08,178.91 194.38,178.42C194.69,177.91 194.99,177.37 195.29,176.84C195.59,176.31 195.88,175.77 196.19,175.25C196.49,174.75 196.79,174.24 197.1,173.77C197.39,173.33 197.69,172.89 198,172.5C198.29,172.14 198.58,171.79 198.9,171.5C199.19,171.24 199.49,170.99 199.81,170.83C200.1,170.69 200.41,170.58 200.71,170.56C201.01,170.54 201.33,170.59 201.62,170.7C201.93,170.82 202.24,171.04 202.52,171.29C202.84,171.57 203.13,171.95 203.42,172.34C203.74,172.79 204.04,173.31 204.33,173.85C204.65,174.45 204.94,175.12 205.23,175.81C205.55,176.57 205.85,177.38 206.14,178.22C206.45,179.12 206.75,180.07 207.04,181.05C207.35,182.09 207.66,183.18 207.95,184.3C208.26,185.48 208.56,186.7 208.85,187.94C209.16,189.24 209.45,190.59 209.75,191.95C210.06,193.37 210.36,194.82 210.66,196.3C210.97,197.83 211.26,199.39 211.56,200.97C211.87,202.6 212.17,204.27 212.47,205.95C212.78,207.68 213.07,209.43 213.37,211.2C213.67,213 213.95,214.92 214.27,216.66C214.56,218.26 214.79,220.09 215.18,221.27C215.44,222.05 215.77,222.54 216.08,223.14C216.37,223.71 216.69,224.24 216.99,224.79C217.29,225.34 217.59,225.88 217.89,226.42C218.19,226.95 218.48,227.49 218.79,228.01C219.09,228.51 219.39,229.01 219.7,229.47C219.99,229.9 220.28,230.35 220.6,230.7C220.89,231.02 221.18,231.35 221.51,231.52C221.79,231.66 222.13,231.78 222.41,231.71C222.73,231.63 223.05,231.31 223.32,230.96C223.69,230.47 223.95,229.68 224.22,228.88C224.57,227.84 224.84,226.55 225.12,225.22C225.45,223.64 225.74,221.83 226.03,219.99C226.35,217.95 226.64,215.75 226.93,213.52C227.24,211.15 227.54,208.68 227.84,206.19C228.15,203.62 228.44,200.97 228.74,198.33C229.04,195.65 229.34,192.93 229.64,190.22C229.94,187.5 230.25,184.76 230.55,182.05C230.85,179.35 231.15,176.66 231.45,173.99C231.75,171.37 232.05,168.75 232.36,166.18C232.66,163.67 232.95,161.19 233.26,158.76C233.56,156.41 233.85,154.09 234.16,151.83C234.46,149.67 234.76,147.54 235.07,145.49C235.36,143.55 235.66,141.65 235.97,139.84C236.26,138.15 236.56,136.5 236.88,134.95C237.17,133.53 237.46,132.15 237.78,130.88C238.06,129.75 238.35,128.66 238.68,127.7C238.96,126.88 239.25,126.08 239.59,125.45C239.87,124.94 240.14,124.42 240.49,124.16C240.76,123.96 241.11,123.81 241.4,123.86C241.72,123.91 242.03,124.24 242.3,124.56C242.65,124.98 242.93,125.62 243.21,126.26C243.55,127.04 243.83,127.98 244.11,128.95C244.43,130.07 244.72,131.31 245.01,132.6C245.33,134.04 245.63,135.58 245.92,137.18C246.24,138.92 246.53,140.76 246.82,142.65C247.13,144.67 247.44,146.78 247.73,148.94C248.04,151.22 248.34,153.58 248.63,155.98C248.94,158.49 249.23,161.07 249.53,163.68C249.84,166.39 250.14,169.16 250.44,171.95C250.75,174.82 251.04,177.74 251.34,180.67C251.64,183.66 251.95,186.69 252.25,189.72C252.55,192.78 252.85,195.87 253.15,198.95C253.45,202.03 253.75,205.13 254.05,208.2C254.35,211.25 254.66,214.31 254.96,217.32C255.26,220.28 255.55,223.23 255.86,226.13C256.16,228.95 256.46,231.75 256.77,234.49C257.07,237.13 257.36,239.74 257.67,242.27C257.97,244.69 258.27,247.07 258.58,249.36C258.87,251.51 259.16,253.64 259.48,255.61C259.77,257.39 260.03,259.21 260.38,260.67C260.65,261.81 260.87,263.04 261.29,263.67C261.55,264.05 261.88,264.37 262.19,264.41C262.48,264.45 262.81,264.19 263.1,264C263.42,263.79 263.71,263.48 264,263.19C264.31,262.89 264.6,262.56 264.9,262.25C265.2,261.94 265.5,261.63 265.81,261.35C266.11,261.08 266.4,260.8 266.71,260.57C267,260.35 267.31,260.15 267.62,260.01C267.91,259.88 268.22,259.76 268.52,259.72C268.82,259.68 269.13,259.69 269.42,259.76C269.73,259.83 270.04,259.98 270.33,260.17C270.65,260.38 270.94,260.67 271.23,260.98C271.55,261.33 271.85,261.75 272.14,262.2C272.46,262.7 272.75,263.26 273.04,263.84C273.36,264.47 273.66,265.16 273.95,265.87C274.26,266.64 274.56,267.45 274.85,268.29C275.16,269.18 275.45,270.11 275.75,271.05C276.06,272.03 276.36,273.05 276.66,274.08C276.97,275.14 277.26,276.24 277.56,277.33C277.86,278.44 278.17,279.57 278.47,280.69C278.77,281.81 279.06,282.95 279.37,284.04C279.67,285.1 279.93,286.25 280.27,287.15C280.55,287.88 280.9,289.08 281.18,289.06C281.51,289.04 281.81,287.38 282.08,286.31C282.44,284.85 282.7,282.87 282.99,281.06C283.3,279.13 283.6,277.11 283.89,275.07C284.2,272.96 284.49,270.79 284.79,268.61C285.1,266.37 285.4,264.09 285.7,261.81C286,259.5 286.3,257.15 286.6,254.82C286.9,252.47 287.21,250.12 287.51,247.77C287.81,245.44 288.11,243.09 288.41,240.78C288.71,238.5 289.01,236.23 289.32,233.99C289.62,231.8 289.92,229.63 290.22,227.51C290.52,225.45 290.81,223.42 291.12,221.44C291.42,219.55 291.72,217.69 292.03,215.89C292.32,214.19 292.62,212.52 292.93,210.92C293.22,209.43 293.52,207.98 293.84,206.61C294.13,205.35 294.42,204.14 294.74,203.01C295.03,202 295.31,201.02 295.64,200.15C295.92,199.39 296.22,198.66 296.55,198.06C296.83,197.56 297.11,197.07 297.45,196.75C297.73,196.49 298.05,196.25 298.36,196.2C298.65,196.15 298.98,196.24 299.26,196.39C299.59,196.57 299.88,196.92 300.16,197.28C300.49,197.7 300.78,198.24 301.07,198.8C301.39,199.43 301.68,200.14 301.97,200.87C302.29,201.67 302.59,202.53 302.88,203.4C303.19,204.32 303.48,205.28 303.78,206.24C304.08,207.23 304.38,208.25 304.68,209.26C304.98,210.26 305.28,211.29 305.59,212.27C305.89,213.22 306.18,214.18 306.49,215.07C306.78,215.9 307.07,216.72 307.4,217.44C307.68,218.06 307.95,218.7 308.3,219.14C308.57,219.49 308.89,219.88 309.21,219.95C309.49,220.01 309.84,219.87 310.11,219.65C310.47,219.35 310.74,218.72 311.01,218.11C311.36,217.33 311.64,216.34 311.92,215.33C312.25,214.14 312.53,212.78 312.82,211.39C313.14,209.85 313.44,208.19 313.73,206.5C314.04,204.7 314.34,202.81 314.63,200.9C314.94,198.92 315.23,196.87 315.53,194.83C315.83,192.75 316.14,190.63 316.44,188.52C316.74,186.4 317.04,184.27 317.34,182.16C317.64,180.07 317.94,177.99 318.25,175.94C318.55,173.94 318.84,171.95 319.15,170.01C319.44,168.14 319.74,166.29 320.05,164.5C320.34,162.8 320.65,161.13 320.96,159.53C321.25,158.04 321.54,156.58 321.86,155.2C322.15,153.94 322.45,152.71 322.77,151.58C323.06,150.58 323.34,149.61 323.67,148.76C323.95,148.03 324.24,147.32 324.58,146.78C324.85,146.34 325.14,145.9 325.48,145.7C325.75,145.54 326.1,145.46 326.38,145.53C326.7,145.62 327.02,145.96 327.29,146.3C327.64,146.73 327.91,147.37 328.19,148.01C328.52,148.78 328.82,149.7 329.1,150.65C329.43,151.74 329.71,152.95 330,154.2C330.32,155.59 330.61,157.09 330.9,158.63C331.22,160.31 331.52,162.08 331.81,163.89C332.12,165.83 332.42,167.85 332.71,169.91C333.02,172.09 333.32,174.35 333.62,176.64C333.93,179.03 334.22,181.5 334.52,183.98C334.82,186.54 335.12,189.17 335.42,191.77C335.72,194.37 336.01,197.15 336.33,199.59C336.61,201.73 336.88,203.89 337.23,205.62C337.5,206.96 337.83,208 338.14,209.14C338.43,210.23 338.74,211.25 339.04,212.33C339.35,213.44 339.65,214.57 339.95,215.73C340.26,216.94 340.55,218.18 340.85,219.43C341.15,220.72 341.45,222.05 341.75,223.38C342.05,224.74 342.36,226.12 342.66,227.5C342.96,228.89 343.26,230.29 343.56,231.67C343.86,233.03 344.16,234.41 344.47,235.73C344.77,237 345.06,238.27 345.37,239.45C345.66,240.54 345.94,241.63 346.27,242.58C346.55,243.4 346.83,244.23 347.18,244.83C347.45,245.29 347.74,245.81 348.08,245.95C348.36,246.06 348.72,245.99 348.99,245.82C349.35,245.6 349.62,245.01 349.89,244.48C350.23,243.81 350.51,242.95 350.79,242.09C351.11,241.1 351.41,240 351.7,238.87C352.02,237.65 352.31,236.33 352.6,235.01C352.91,233.61 353.21,232.16 353.51,230.69C353.82,229.17 354.11,227.62 354.41,226.06C354.71,224.47 355.02,222.85 355.32,221.22C355.62,219.57 355.92,217.91 356.22,216.24C356.52,214.55 356.82,212.86 357.12,211.15C357.42,209.43 357.73,207.69 358.03,205.95C358.33,204.19 358.63,202.41 358.93,200.63C359.23,198.83 359.54,197.01 359.84,195.19C360.14,193.35 360.44,191.5 360.74,189.65C361.04,187.79 361.34,185.93 361.64,184.07C361.94,182.22 362.25,180.36 362.55,178.53C362.85,176.72 363.14,174.92 363.45,173.15C363.75,171.43 364.05,169.72 364.36,168.05C364.66,166.44 364.95,164.85 365.26,163.32C365.55,161.86 365.85,160.43 366.16,159.06C366.45,157.77 366.75,156.51 367.07,155.33C367.36,154.24 367.65,153.19 367.97,152.21C368.26,151.33 368.56,150.48 368.88,149.72C369.16,149.06 369.45,148.43 369.78,147.91C370.06,147.47 370.34,147.05 370.68,146.79C370.96,146.58 371.29,146.4 371.59,146.39C371.89,146.38 372.21,146.52 372.49,146.71C372.82,146.94 373.12,147.34 373.4,147.75C373.73,148.24 374.02,148.86 374.3,149.51C374.63,150.26 374.92,151.11 375.21,151.99C375.53,152.98 375.82,154.05 376.11,155.17C376.43,156.4 376.72,157.7 377.01,159.05C377.32,160.51 377.63,162.04 377.92,163.61C378.23,165.29 378.53,167.03 378.82,168.82C379.13,170.71 379.44,172.66 379.73,174.65C380.04,176.74 380.34,178.9 380.63,181.08C380.94,183.35 381.23,185.68 381.53,188.02C381.84,190.42 382.14,192.9 382.44,195.3C382.74,197.66 382.99,200.27 383.34,202.31C383.61,203.9 383.71,206.15 384.25,206.53C384.5,206.7 384.89,206.58 385.15,206.4C385.53,206.14 385.76,205.34 386.05,204.76C386.36,204.14 386.66,203.44 386.96,202.78C387.26,202.11 387.56,201.43 387.86,200.76C388.16,200.11 388.46,199.45 388.77,198.82C389.07,198.21 389.36,197.61 389.67,197.04C389.97,196.49 390.27,195.96 390.58,195.46C390.87,194.99 391.17,194.54 391.48,194.13C391.77,193.75 392.06,193.38 392.38,193.08C392.67,192.8 392.97,192.55 393.29,192.36C393.58,192.19 393.88,192.05 394.19,191.99C394.49,191.94 394.81,191.94 395.1,192.02C395.41,192.1 395.72,192.27 396,192.49C396.32,192.74 396.62,193.08 396.9,193.46C397.23,193.89 397.53,194.41 397.81,194.97C398.13,195.6 398.42,196.32 398.71,197.07C399.03,197.91 399.33,198.82 399.62,199.78C399.94,200.84 400.23,201.97 400.52,203.14C400.83,204.41 401.13,205.75 401.42,207.14C401.73,208.63 402.04,210.2 402.33,211.8C402.64,213.51 402.94,215.28 403.23,217.09C403.54,218.99 403.84,220.96 404.14,222.96C404.45,225.04 404.74,227.19 405.04,229.35C405.35,231.57 405.65,233.84 405.95,236.11C406.25,238.4 406.55,240.74 406.85,243.03C407.15,245.29 407.44,247.56 407.75,249.76C408.05,251.87 408.34,254.01 408.66,255.95C408.95,257.69 409.04,259.98 409.56,260.87C409.81,261.31 410.18,261.35 410.47,261.64C410.78,261.95 411.09,262.28 411.37,262.67C411.69,263.12 411.99,263.66 412.27,264.23C412.6,264.89 412.89,265.63 413.18,266.42C413.5,267.31 413.79,268.28 414.08,269.29C414.4,270.4 414.7,271.59 414.99,272.82C415.3,274.14 415.6,275.53 415.89,276.95C416.2,278.45 416.49,280.03 416.79,281.6C417.1,283.2 417.38,284.94 417.7,286.47C417.99,287.83 418.26,290.31 418.6,290.33C418.88,290.35 419.25,288.95 419.51,287.89C419.95,286.04 420.11,282.72 420.41,280.07C420.72,277.32 421.01,274.44 421.32,271.67C421.62,268.97 421.91,266.27 422.22,263.65C422.51,261.13 422.81,258.64 423.12,256.23C423.41,253.94 423.72,251.7 424.03,249.54C424.32,247.51 424.62,245.52 424.93,243.63C425.22,241.87 425.52,240.17 425.84,238.56C426.13,237.09 426.42,235.67 426.74,234.35C427.03,233.17 427.31,232.04 427.64,231.02C427.92,230.14 428.21,229.29 428.55,228.59C428.83,228.01 429.1,227.44 429.45,227.06C429.72,226.76 430.04,226.47 430.36,226.41C430.65,226.35 430.98,226.46 431.26,226.63C431.6,226.84 431.88,227.25 432.16,227.67C432.5,228.18 432.79,228.84 433.07,229.51C433.4,230.29 433.68,231.17 433.97,232.08C434.29,233.09 434.59,234.19 434.88,235.32C435.19,236.54 435.49,237.84 435.78,239.16C436.09,240.57 436.39,242.03 436.68,243.52C436.99,245.08 437.29,246.69 437.59,248.32C437.9,250.01 438.19,251.75 438.49,253.5C438.8,255.3 439.1,257.12 439.4,258.96C439.7,260.84 440,262.75 440.3,264.66C440.6,266.6 440.91,268.55 441.21,270.51C441.51,272.48 441.81,274.47 442.11,276.45C442.41,278.43 442.71,280.41 443.01,282.37C443.31,284.3 443.61,286.24 443.92,288.13C444.22,289.96 444.51,291.8 444.82,293.54C445.11,295.18 445.41,296.82 445.73,298.3C446.02,299.61 446.28,300.95 446.63,301.98C446.9,302.77 447.13,303.81 447.53,304C447.79,304.13 448.18,304.01 448.44,303.77C448.88,303.37 449.07,302.15 449.34,301.15C449.69,299.86 449.96,298.23 450.25,296.64C450.57,294.86 450.86,292.91 451.15,290.98C451.46,288.97 451.75,286.87 452.05,284.81C452.35,282.73 452.66,280.62 452.96,278.55C453.26,276.51 453.55,274.46 453.86,272.47C454.16,270.54 454.46,268.62 454.77,266.76C455.07,264.98 455.36,263.23 455.67,261.54C455.96,259.94 456.27,258.38 456.58,256.88C456.87,255.48 457.17,254.12 457.48,252.84C457.77,251.66 458.06,250.52 458.38,249.46C458.67,248.5 458.97,247.58 459.29,246.74C459.58,245.99 459.86,245.28 460.19,244.66C460.47,244.12 460.77,243.61 461.1,243.21Q461.38,242.87 462,242.36" style="vector-effect: non-scaling-stroke; fill: none; stroke: rgb(231, 107, 243); stroke-opacity: 1; stroke-width: 2px; opacity: 1;"/></g><g class="points"/><g class="text"/></g></g></g><g class="overplot"/><path class="xlines-above crisp" d="M0,0" style="fill: none;"/><path class="ylines-above crisp" d="M0,0" style="fill: none;"/><g class="overlines-above"/><g class="xaxislayer-above"><g class="xtick"><text text-anchor="middle" x="0" y="433" transform="translate(80,0)" style="font-family: 'Open Sans', verdana, arial, sans-serif; font-size: 12px; fill: rgb(42, 63, 95); fill-opacity: 1; white-space: pre;">0</text></g><g class="xtick"><text text-anchor="middle" x="0" y="433" transform="translate(170.23000000000002,0)" style="font-family: 'Open Sans', verdana, arial, sans-serif; font-size: 12px; fill: rgb(42, 63, 95); fill-opacity: 1; white-space: pre;">100</text></g><g class="xtick"><text text-anchor="middle" x="0" y="433" transform="translate(260.47,0)" style="font-family: 'Open Sans', verdana, arial, sans-serif; font-size: 12px; fill: rgb(42, 63, 95); fill-opacity: 1; white-space: pre;">200</text></g><g class="xtick"><text text-anchor="middle" x="0" y="433" transform="translate(350.7,0)" style="font-family: 'Open Sans', verdana, arial, sans-serif; font-size: 12px; fill: rgb(42, 63, 95); fill-opacity: 1; white-space: pre;">300</text></g><g class="xtick"><text text-anchor="middle" x="0" y="433" transform="translate(440.94,0)" style="font-family: 'Open Sans', verdana, arial, sans-serif; font-size: 12px; fill: rgb(42, 63, 95); fill-opacity: 1; white-space: pre;">400</text></g><g class="xtick"><text text-anchor="middle" x="0" y="433" transform="translate(531.1700000000001,0)" style="font-family: 'Open Sans', verdana, arial, sans-serif; font-size: 12px; fill: rgb(42, 63, 95); fill-opacity: 1; white-space: pre;">500</text></g></g><g class="yaxislayer-above"><g class="ytick"><text text-anchor="end" x="79" y="4.199999999999999" transform="translate(0,384.96)" style="font-family: 'Open Sans', verdana, arial, sans-serif; font-size: 12px; fill: rgb(42, 63, 95); fill-opacity: 1; white-space: pre;">400</text></g><g class="ytick"><text text-anchor="end" x="79" y="4.199999999999999" transform="translate(0,340.6)" style="font-family: 'Open Sans', verdana, arial, sans-serif; font-size: 12px; fill: rgb(42, 63, 95); fill-opacity: 1; white-space: pre;">600</text></g><g class="ytick"><text text-anchor="end" x="79" y="4.199999999999999" transform="translate(0,296.23)" style="font-family: 'Open Sans', verdana, arial, sans-serif; font-size: 12px; fill: rgb(42, 63, 95); fill-opacity: 1; white-space: pre;">800</text></g><g class="ytick"><text text-anchor="end" x="79" y="4.199999999999999" transform="translate(0,251.87)" style="font-family: 'Open Sans', verdana, arial, sans-serif; font-size: 12px; fill: rgb(42, 63, 95); fill-opacity: 1; white-space: pre;">1000</text></g><g class="ytick"><text text-anchor="end" x="79" y="4.199999999999999" transform="translate(0,207.5)" style="font-family: 'Open Sans', verdana, arial, sans-serif; font-size: 12px; fill: rgb(42, 63, 95); fill-opacity: 1; white-space: pre;">1200</text></g><g class="ytick"><text text-anchor="end" x="79" y="4.199999999999999" transform="translate(0,163.14)" style="font-family: 'Open Sans', verdana, arial, sans-serif; font-size: 12px; fill: rgb(42, 63, 95); fill-opacity: 1; white-space: pre;">1400</text></g><g class="ytick"><text text-anchor="end" x="79" y="4.199999999999999" transform="translate(0,118.78)" style="font-family: 'Open Sans', verdana, arial, sans-serif; font-size: 12px; fill: rgb(42, 63, 95); fill-opacity: 1; white-space: pre;">1600</text></g></g><g class="overaxes-above"/></g></g><g class="polarlayer"/><g class="ternarylayer"/><g class="geolayer"/><g class="funnelarealayer"/><g class="pielayer"/><g class="treemaplayer"/><g class="sunburstlayer"/><g class="glimages"/><defs id="topdefs-1ad0ac"><g class="clips"/><clipPath id="legend1ad0ac"><rect width="137" height="67" x="0" y="0"/></clipPath></defs><g class="layer-above"><g class="imagelayer"/><g class="shapelayer"/></g><g class="infolayer"><g class="legend" pointer-events="all" transform="translate(551.24, 100)"><rect class="bg" shape-rendering="crispEdges" width="137" height="67" x="0" y="0" style="stroke: rgb(68, 68, 68); stroke-opacity: 1; fill: rgb(255, 255, 255); fill-opacity: 1; stroke-width: 0px;"/><g class="scrollbox" transform="translate(0, 0)" clip-path="url('#legend1ad0ac')"><g class="groups"><g class="traces" transform="translate(0, 14.5)" style="opacity: 1;"><text class="legendtext" text-anchor="start" x="40" y="4.680000000000001" style="font-family: 'Open Sans', verdana, arial, sans-serif; font-size: 12px; fill: rgb(42, 63, 95); fill-opacity: 1; white-space: pre;">Average Class I</text><g class="layers" style="opacity: 1;"><g class="legendfill"/><g class="legendlines"><path class="js-line" d="M5,0h30" style="fill: none; stroke: rgb(0, 100, 80); stroke-opacity: 1; stroke-width: 2px;"/></g><g class="legendsymbols"><g class="legendpoints"/></g></g><rect class="legendtoggle" x="0" y="-9.5" width="131.15625" height="19" style="fill: rgb(0, 0, 0); fill-opacity: 0;"/></g><g class="traces" transform="translate(0, 33.5)" style="opacity: 1;"><text class="legendtext" text-anchor="start" x="40" y="4.680000000000001" style="font-family: 'Open Sans', verdana, arial, sans-serif; font-size: 12px; fill: rgb(42, 63, 95); fill-opacity: 1; white-space: pre;">Average Class II</text><g class="layers" style="opacity: 1;"><g class="legendfill"/><g class="legendlines"><path class="js-line" d="M5,0h30" style="fill: none; stroke: rgb(0, 176, 246); stroke-opacity: 1; stroke-width: 2px;"/></g><g class="legendsymbols"><g class="legendpoints"/></g></g><rect class="legendtoggle" x="0" y="-9.5" width="131.15625" height="19" style="fill: rgb(0, 0, 0); fill-opacity: 0;"/></g><g class="traces" transform="translate(0, 52.5)" style="opacity: 1;"><text class="legendtext" text-anchor="start" x="40" y="4.680000000000001" style="font-family: 'Open Sans', verdana, arial, sans-serif; font-size: 12px; fill: rgb(42, 63, 95); fill-opacity: 1; white-space: pre;">Average Class III</text><g class="layers" style="opacity: 1;"><g class="legendfill"/><g class="legendlines"><path class="js-line" d="M5,0h30" style="fill: none; stroke: rgb(231, 107, 243); stroke-opacity: 1; stroke-width: 2px;"/></g><g class="legendsymbols"><g class="legendpoints"/></g></g><rect class="legendtoggle" x="0" y="-9.5" width="131.15625" height="19" style="fill: rgb(0, 0, 0); fill-opacity: 0;"/></g></g></g><rect class="scrollbar" rx="20" ry="3" width="0" height="0" x="0" y="0" style="fill: rgb(128, 139, 164); fill-opacity: 1;"/></g><g class="g-gtitle"><text class="gtitle" x="35" y="50" text-anchor="start" dy="0em" style="font-family: 'Open Sans', verdana, arial, sans-serif; font-size: 17px; fill: rgb(42, 63, 95); opacity: 1; font-weight: normal; white-space: pre;">Average curve: index_group</text></g><g class="g-xtitle"><text class="xtitle" x="311" y="460.8" text-anchor="middle" style="font-family: 'Open Sans', verdana, arial, sans-serif; font-size: 14px; fill: rgb(42, 63, 95); opacity: 1; font-weight: normal; white-space: pre;">Domain</text></g><g class="g-ytitle"><text class="ytitle" transform="rotate(-90,27.496875000000003,260)" x="27.496875000000003" y="260" text-anchor="middle" style="font-family: 'Open Sans', verdana, arial, sans-serif; font-size: 14px; fill: rgb(42, 63, 95); opacity: 1; font-weight: normal; white-space: pre;">Frequency</text></g></g></svg>