<svg class="main-svg" xmlns="http://www.w3.org/2000/svg" xmlns:xlink="http://www.w3.org/1999/xlink" width="700" height="500" style="" viewBox="0 0 700 500"><rect x="0" y="0" width="700" height="500" style="fill: rgb(255, 255, 255); fill-opacity: 1;"/><defs id="defs-5ef11a"><g class="clips"><clipPath id="clip5ef11axyplot" class="plotclip"><rect width="462" height="320"/></clipPath><clipPath class="axesclip" id="clip5ef11ax"><rect x="80" y="0" width="462" height="500"/></clipPath><clipPath class="axesclip" id="clip5ef11ay"><rect x="0" y="100" width="700" height="320"/></clipPath><clipPath class="axesclip" id="clip5ef11axy"><rect x="80" y="100" width="462" height="320"/></clipPath></g><g class="gradients"/></defs><g class="bglayer"><rect class="bg" x="80" y="100" width="462" height="320" style="fill: rgb(229, 236, 246); fill-opacity: 1; stroke-width: 0;"/></g><g class="layer-below"><g class="imagelayer"/><g class="shapelayer"/></g><g class="cartesianlayer"><g class="subplot xy"><g class="layer-subplot"><g class="shapelayer"/><g class="imagelayer"/></g><g class="gridlayer"><g class="x"><path class="xgrid crisp" transform="translate(170.23000000000002,0)" d="M0,100v320" style="stroke: rgb(255, 255, 255); stroke-opacity: 1; stroke-width: 1px;"/><path class="xgrid crisp" transform="translate(260.47,0)" d="M0,100v320" style="stroke: rgb(255, 255, 255); stroke-opacity: 1; stroke-width: 1px;"/><path class="xgrid crisp" transform="translate(350.7,0)" d="M0,100v320" style="stroke: rgb(255, 255, 255); stroke-opacity: 1; stroke-width: 1px;"/><path class="xgrid crisp" transform="translate(440.94,0)" d="M0,100v320" style="stroke: rgb(255, 255, 255); stroke-opacity: 1; stroke-width: 1px;"/><path class="xgrid crisp" transform="translate(531.1700000000001,0)" d="M0,100v320" style="stroke: rgb(255, 255, 255); stroke-opacity: 1; stroke-width: 1px;"/></g><g class="y"><path class="ygrid crisp" transform="translate(0,391.18)" d="M80,0h462" style="stroke: rgb(255, 255, 255); stroke-opacity: 1; stroke-width: 1px;"/><path class="ygrid crisp" transform="translate(0,331.18)" d="M80,0h462" style="stroke: rgb(255, 255, 255); stroke-opacity: 1; stroke-width: 1px;"/><path class="ygrid crisp" transform="translate(0,271.19)" d="M80,0h462" style="stroke: rgb(255, 255, 255); stroke-opacity: 1; stroke-width: 1px;"/><path class="ygrid crisp" transform="translate(0,211.19)" d="M80,0h462" style="stroke: rgb(255, 255, 255); stroke-opacity: 1; stroke-width: 1px;"/><path class="ygrid crisp" transform="translate(0,151.2)" d="M80,0h462" style="stroke: rgb(255, 255, 255); stroke-opacity: 1; stroke-width: 1px;"/></g></g><g class="zerolinelayer"><path class="xzl zl crisp" transform="translate(80,0)" d="M0,100v320" style="stroke: rgb(255, 255, 255); stroke-opacity: 1; stroke-width: 2px;"/></g><path class="xlines-below"/><path class="ylines-below"/><g class="overlines-below"/><g class="xaxislayer-below"/><g class="yaxislayer-below"/><g class="overaxes-below"/><g class="plot" transform="translate(80, 100)" clip-path="url('#clip5ef11axyplot')"><g class="scatterlayer mlayer"><g class="trace scatter trace2a0f36" style="stroke-miterlimit: 2; opacity: 1;"><g class="fills"/><g class="errorbars"/><g class="lines"><path class="js-line" d="M0,104.63Q0.62,104.78 0.9,104.98C1.23,105.21 1.53,105.61 1.81,106.02C2.14,106.51 2.43,107.13 2.71,107.77C3.04,108.51 3.33,109.35 3.62,110.22C3.94,111.19 4.23,112.24 4.52,113.32C4.83,114.5 5.13,115.76 5.42,117.05C5.73,118.43 6.04,119.87 6.33,121.34C6.64,122.88 6.93,124.48 7.23,126.1C7.54,127.78 7.84,129.52 8.14,131.26C8.45,133.05 8.74,134.87 9.04,136.7C9.34,138.55 9.65,140.43 9.95,142.29C10.25,144.15 10.55,146.02 10.85,147.86C11.15,149.66 11.44,151.47 11.75,153.19C12.04,154.8 12.35,156.37 12.66,157.86C12.95,159.24 13.24,160.57 13.56,161.83C13.85,162.98 14.15,164.08 14.47,165.1C14.76,166.01 15.04,166.89 15.37,167.65C15.65,168.31 15.93,168.93 16.27,169.43C16.55,169.84 16.85,170.23 17.18,170.46C17.46,170.65 17.78,170.78 18.08,170.81C18.38,170.84 18.7,170.74 18.99,170.63C19.3,170.51 19.6,170.29 19.89,170.09C20.2,169.88 20.49,169.61 20.79,169.37C21.09,169.12 21.39,168.85 21.7,168.62C22,168.39 22.29,168.16 22.6,167.98C22.89,167.81 23.2,167.66 23.51,167.58C23.8,167.51 24.11,167.47 24.41,167.52C24.72,167.57 25.03,167.7 25.32,167.89C25.64,168.1 25.94,168.42 26.22,168.77C26.55,169.18 26.84,169.69 27.12,170.23C27.45,170.85 27.74,171.56 28.03,172.31C28.35,173.15 28.64,174.08 28.93,175.05C29.25,176.12 29.55,177.27 29.84,178.46C30.16,179.75 30.45,181.12 30.74,182.53C31.05,184.03 31.35,185.59 31.64,187.2C31.95,188.91 32.26,190.68 32.55,192.5C32.86,194.42 33.16,196.4 33.45,198.42C33.76,200.54 34.06,202.71 34.36,204.92C34.67,207.21 34.96,209.55 35.26,211.91C35.56,214.32 35.86,216.79 36.16,219.24C36.46,221.71 36.77,224.21 37.07,226.68C37.37,229.13 37.66,231.58 37.97,233.99C38.27,236.34 38.58,238.63 38.88,240.94C39.18,243.23 39.48,245.52 39.78,247.8C40.08,250.06 40.38,252.31 40.68,254.54C40.98,256.74 41.28,258.93 41.59,261.09C41.89,263.19 42.18,265.29 42.49,267.32C42.79,269.26 43.08,271.22 43.4,272.99C43.69,274.56 43.94,276.16 44.3,277.4C44.57,278.35 44.84,279.24 45.21,279.84C45.48,280.27 45.81,280.81 46.11,280.81C46.41,280.81 46.75,280.29 47.01,279.86C47.39,279.22 47.64,278.16 47.92,277.19C48.25,276.06 48.53,274.76 48.82,273.45C49.14,272.02 49.43,270.46 49.73,268.92C50.04,267.31 50.33,265.64 50.63,263.98C50.93,262.28 51.23,260.56 51.53,258.84C51.83,257.1 52.14,255.36 52.44,253.59C52.74,251.79 53.04,249.96 53.34,248.12C53.64,246.26 53.95,244.35 54.25,242.49C54.55,240.67 54.84,238.85 55.15,237.08C55.44,235.38 55.74,233.72 56.05,232.09C56.35,230.53 56.65,229.01 56.96,227.51C57.26,226.05 57.55,224.6 57.86,223.2C58.16,221.86 58.45,220.52 58.77,219.28C59.06,218.14 59.35,217.03 59.67,216.02C59.96,215.11 60.25,214.24 60.58,213.48C60.86,212.82 61.15,212.19 61.48,211.69C61.76,211.27 62.05,210.86 62.38,210.63C62.66,210.43 62.99,210.29 63.29,210.29C63.59,210.29 63.91,210.44 64.19,210.63C64.52,210.85 64.82,211.22 65.1,211.59C65.43,212.02 65.71,212.55 66,213.09C66.32,213.7 66.61,214.37 66.9,215.07C67.22,215.83 67.52,216.65 67.81,217.49C68.12,218.4 68.41,219.38 68.71,220.35C69.02,221.35 69.32,222.38 69.62,223.41C69.92,224.45 70.23,225.49 70.52,226.57C70.83,227.7 71.12,228.86 71.42,230.03C71.73,231.24 72.03,232.47 72.33,233.71C72.63,234.96 72.93,236.24 73.23,237.49C73.53,238.71 73.84,239.9 74.14,241.11C74.44,242.31 74.74,243.52 75.04,244.72C75.34,245.92 75.65,247.13 75.95,248.33C76.25,249.52 76.55,250.71 76.85,251.87C77.15,253 77.44,254.13 77.75,255.21C78.04,256.23 78.35,257.22 78.66,258.19C78.95,259.11 79.25,260.01 79.56,260.88C79.86,261.72 80.16,262.53 80.47,263.33C80.77,264.1 81.06,264.85 81.37,265.58C81.67,266.29 81.96,266.98 82.27,267.66C82.57,268.32 82.87,268.97 83.18,269.61C83.48,270.24 83.77,270.86 84.08,271.46C84.38,272.05 84.67,272.65 84.99,273.18C85.28,273.67 85.56,274.18 85.89,274.55C86.17,274.87 86.47,275.13 86.79,275.33C87.08,275.51 87.4,275.58 87.7,275.71C88,275.83 88.3,275.96 88.6,276.08C88.9,276.2 89.21,276.33 89.51,276.44C89.81,276.54 90.11,276.61 90.41,276.71C90.71,276.81 91.02,276.95 91.32,277.05C91.62,277.15 91.92,277.22 92.22,277.29C92.52,277.36 92.82,277.42 93.12,277.48C93.42,277.54 93.73,277.62 94.03,277.63C94.33,277.64 94.64,277.65 94.93,277.57C95.24,277.48 95.55,277.3 95.84,277.08C96.16,276.83 96.46,276.5 96.74,276.12C97.07,275.67 97.36,275.12 97.64,274.54C97.96,273.88 98.26,273.13 98.55,272.36C98.87,271.52 99.16,270.6 99.45,269.67C99.76,268.68 100.06,267.64 100.36,266.59C100.67,265.49 100.96,264.36 101.26,263.21C101.57,262.02 101.86,260.81 102.16,259.58C102.47,258.32 102.77,257.04 103.07,255.75C103.37,254.45 103.67,253.13 103.97,251.81C104.27,250.48 104.58,249.15 104.88,247.82C105.18,246.5 105.48,245.18 105.78,243.87C106.08,242.57 106.38,241.29 106.68,240C106.98,238.7 107.29,237.39 107.59,236.1C107.89,234.83 108.18,233.55 108.49,232.32C108.79,231.13 109.09,229.97 109.4,228.84C109.69,227.77 109.99,226.72 110.3,225.73C110.59,224.8 110.89,223.9 111.21,223.05C111.5,222.27 111.79,221.51 112.11,220.83C112.4,220.22 112.68,219.62 113.01,219.12C113.29,218.68 113.59,218.27 113.92,217.96C114.2,217.7 114.5,217.45 114.82,217.35C115.11,217.26 115.44,217.24 115.73,217.32C116.04,217.4 116.35,217.63 116.63,217.88C116.96,218.17 117.25,218.59 117.53,219.02C117.86,219.52 118.15,220.11 118.44,220.73C118.76,221.42 119.05,222.2 119.34,223C119.66,223.88 119.96,224.82 120.25,225.79C120.56,226.84 120.86,227.95 121.15,229.08C121.46,230.28 121.76,231.53 122.05,232.8C122.36,234.13 122.66,235.51 122.96,236.9C123.27,238.34 123.56,239.82 123.86,241.3C124.16,242.81 124.47,244.35 124.77,245.88C125.07,247.42 125.37,248.98 125.67,250.51C125.97,252.02 126.27,253.53 126.58,255C126.88,256.41 127.17,257.81 127.48,259.16C127.77,260.44 128.07,261.7 128.38,262.88C128.67,263.97 128.97,265.05 129.29,266.02C129.58,266.88 129.86,267.73 130.19,268.43C130.47,269.02 130.75,269.61 131.1,269.99C131.37,270.29 131.68,270.55 132,270.64C132.29,270.72 132.62,270.67 132.9,270.55C133.22,270.42 133.53,270.12 133.81,269.82C134.14,269.47 134.43,269.01 134.71,268.52C135.04,267.96 135.33,267.28 135.62,266.62C135.93,265.93 136.22,265.19 136.52,264.47C136.82,263.75 137.12,263.02 137.42,262.31C137.72,261.62 138.02,260.92 138.33,260.26C138.63,259.62 138.92,259 139.23,258.41C139.52,257.85 139.83,257.31 140.14,256.81C140.43,256.34 140.73,255.88 141.04,255.48C141.33,255.11 141.63,254.76 141.95,254.46C142.24,254.19 142.54,253.94 142.85,253.76C143.14,253.59 143.44,253.45 143.75,253.38C144.05,253.31 144.36,253.28 144.66,253.31C144.96,253.34 145.27,253.43 145.56,253.55C145.87,253.68 146.18,253.87 146.47,254.09C146.78,254.33 147.08,254.62 147.37,254.93C147.68,255.27 147.98,255.65 148.27,256.05C148.58,256.48 148.89,256.96 149.18,257.45C149.49,257.97 149.79,258.53 150.08,259.11C150.39,259.72 150.69,260.36 150.99,261.01C151.3,261.68 151.59,262.39 151.89,263.08C152.19,263.78 152.49,264.48 152.79,265.18C153.09,265.88 153.4,266.58 153.7,267.28C154,267.97 154.29,268.69 154.6,269.36C154.9,270 155.2,270.63 155.51,271.23C155.8,271.8 156.1,272.35 156.41,272.89C156.71,273.41 157.02,273.91 157.32,274.42C157.62,274.92 157.92,275.41 158.22,275.9C158.52,276.39 158.82,276.87 159.12,277.35C159.42,277.83 159.73,278.31 160.03,278.79C160.33,279.27 160.63,279.75 160.93,280.22C161.23,280.69 161.54,281.16 161.84,281.63C162.14,282.1 162.44,282.57 162.74,283.04C163.04,283.5 163.33,283.97 163.64,284.41C163.94,284.84 164.23,285.29 164.55,285.67C164.84,286.01 165.14,286.31 165.45,286.59C165.75,286.86 166.05,287.1 166.36,287.34C166.66,287.57 166.96,287.8 167.26,288C167.56,288.2 167.85,288.39 168.16,288.54C168.46,288.69 168.76,288.83 169.07,288.92C169.37,289.01 169.67,289.07 169.97,289.07C170.27,289.07 170.59,289.01 170.88,288.89C171.2,288.76 171.49,288.52 171.78,288.27C172.1,287.99 172.39,287.63 172.68,287.26C173,286.86 173.3,286.41 173.59,285.94C173.9,285.43 174.2,284.88 174.49,284.29C174.81,283.64 175.11,282.93 175.4,282.19C175.72,281.38 176.01,280.53 176.3,279.63C176.61,278.66 176.92,277.63 177.21,276.57C177.52,275.45 177.82,274.28 178.11,273.08C178.42,271.82 178.71,270.52 179.01,269.19C179.32,267.8 179.62,266.37 179.92,264.92C180.23,263.42 180.52,261.89 180.82,260.34C181.13,258.75 181.43,257.13 181.73,255.5C182.03,253.84 182.33,252.15 182.63,250.45C182.93,248.73 183.23,246.99 183.53,245.24C183.83,243.48 184.14,241.71 184.44,239.93C184.74,238.14 185.04,236.34 185.34,234.55C185.64,232.75 185.95,230.96 186.25,229.16C186.55,227.37 186.85,225.57 187.15,223.79C187.45,222.02 187.75,220.25 188.05,218.5C188.35,216.77 188.66,215.05 188.96,213.34C189.26,211.66 189.55,209.99 189.86,208.34C190.16,206.73 190.46,205.13 190.77,203.56C191.07,202.03 191.36,200.52 191.67,199.04C191.97,197.61 192.27,196.19 192.58,194.81C192.88,193.48 193.17,192.17 193.48,190.9C193.77,189.69 194.07,188.5 194.38,187.35C194.67,186.26 194.98,185.2 195.29,184.18C195.58,183.23 195.88,182.3 196.19,181.42C196.48,180.6 196.78,179.81 197.1,179.08C197.39,178.41 197.68,177.77 198,177.19C198.29,176.67 198.58,176.17 198.9,175.76C199.19,175.39 199.49,175.05 199.81,174.81C200.09,174.59 200.4,174.41 200.71,174.33C201,174.26 201.33,174.26 201.62,174.34C201.93,174.42 202.24,174.61 202.52,174.83C202.84,175.08 203.14,175.43 203.42,175.8C203.74,176.22 204.04,176.72 204.33,177.25C204.65,177.83 204.94,178.48 205.23,179.16C205.55,179.9 205.85,180.69 206.14,181.51C206.45,182.39 206.75,183.33 207.04,184.29C207.35,185.31 207.66,186.38 207.95,187.47C208.26,188.62 208.56,189.81 208.85,191.02C209.16,192.28 209.45,193.58 209.75,194.9C210.06,196.26 210.36,197.66 210.66,199.07C210.97,200.52 211.26,202 211.56,203.49C211.86,205.01 212.17,206.55 212.47,208.09C212.77,209.65 213.07,211.23 213.37,212.78C213.67,214.31 213.96,215.84 214.27,217.33C214.57,218.76 214.88,220.15 215.18,221.55C215.48,222.93 215.78,224.29 216.08,225.65C216.38,226.99 216.68,228.36 216.99,229.65C217.28,230.88 217.57,232.12 217.89,233.22C218.17,234.18 218.48,235.02 218.79,235.89C219.09,236.73 219.39,237.54 219.7,238.34C220,239.11 220.29,239.87 220.6,240.6C220.9,241.31 221.2,241.99 221.51,242.66C221.81,243.3 222.1,243.92 222.41,244.52C222.7,245.09 223.01,245.64 223.32,246.16C223.61,246.65 223.91,247.13 224.22,247.57C224.51,247.98 224.81,248.38 225.12,248.73C225.41,249.06 225.72,249.36 226.03,249.62C226.32,249.86 226.62,250.06 226.93,250.22C227.22,250.37 227.53,250.48 227.84,250.54C228.14,250.59 228.44,250.61 228.74,250.56C229.04,250.51 229.35,250.4 229.64,250.24C229.96,250.07 230.26,249.83 230.55,249.55C230.87,249.24 231.16,248.86 231.45,248.46C231.77,248.02 232.07,247.52 232.36,247C232.67,246.44 232.97,245.83 233.26,245.21C233.57,244.55 233.86,243.85 234.16,243.15C234.47,242.42 234.77,241.65 235.07,240.89C235.37,240.11 235.67,239.32 235.97,238.52C236.27,237.71 236.58,236.89 236.88,236.08C237.18,235.26 237.48,234.44 237.78,233.63C238.08,232.82 238.38,232.02 238.68,231.22C238.98,230.43 239.29,229.65 239.59,228.88C239.89,228.12 240.18,227.37 240.49,226.64C240.79,225.93 241.09,225.23 241.4,224.55C241.7,223.9 241.99,223.26 242.3,222.64C242.6,222.05 242.9,221.47 243.21,220.93C243.5,220.42 243.8,219.93 244.11,219.47C244.4,219.04 244.7,218.63 245.01,218.27C245.3,217.93 245.6,217.62 245.92,217.36C246.21,217.12 246.51,216.92 246.82,216.77C247.11,216.63 247.42,216.53 247.73,216.49C248.03,216.46 248.34,216.48 248.63,216.55C248.94,216.62 249.23,216.78 249.53,216.93C249.84,217.09 250.13,217.45 250.44,217.49C250.73,217.53 251.04,217.25 251.34,217.2C251.64,217.15 251.95,217.15 252.25,217.19C252.55,217.23 252.85,217.35 253.15,217.42C253.45,217.49 253.75,217.6 254.05,217.61C254.35,217.62 254.67,217.58 254.96,217.47C255.27,217.35 255.57,217.12 255.86,216.88C256.18,216.62 256.48,216.28 256.77,215.94C257.08,215.58 257.38,215.19 257.67,214.78C257.98,214.35 258.28,213.89 258.58,213.41C258.89,212.91 259.19,212.39 259.48,211.86C259.79,211.31 260.08,210.74 260.38,210.16C260.69,209.56 260.99,208.93 261.29,208.3C261.6,207.65 261.89,206.99 262.19,206.32C262.5,205.62 262.8,204.92 263.1,204.19C263.41,203.43 263.71,202.68 264,201.84C264.32,200.91 264.61,199.89 264.9,198.86C265.21,197.76 265.51,196.6 265.81,195.45C266.11,194.28 266.41,193.1 266.71,191.91C267.01,190.7 267.32,189.48 267.62,188.25C267.92,187 268.22,185.73 268.52,184.45C268.82,183.14 269.12,181.82 269.42,180.49C269.72,179.14 270.03,177.77 270.33,176.4C270.63,175.01 270.93,173.59 271.23,172.18C271.53,170.76 271.84,169.33 272.14,167.9C272.44,166.47 272.74,165.04 273.04,163.61C273.34,162.19 273.65,160.77 273.95,159.37C274.25,157.99 274.55,156.62 274.85,155.27C275.15,153.95 275.44,152.64 275.75,151.36C276.05,150.12 276.35,148.9 276.66,147.71C276.95,146.58 277.25,145.47 277.56,144.4C277.85,143.39 278.16,142.41 278.47,141.48C278.76,140.61 279.07,139.8 279.37,138.97C279.67,138.16 279.96,137.36 280.27,136.58C280.57,135.83 280.86,135.04 281.18,134.37C281.46,133.78 281.75,133.21 282.08,132.76C282.36,132.38 282.66,132.01 282.99,131.82C283.27,131.66 283.6,131.56 283.89,131.6C284.2,131.64 284.51,131.87 284.79,132.12C285.13,132.43 285.42,132.91 285.7,133.4C286.03,133.99 286.32,134.71 286.6,135.45C286.93,136.31 287.22,137.26 287.51,138.26C287.83,139.37 288.12,140.58 288.41,141.83C288.73,143.2 289.03,144.65 289.32,146.14C289.63,147.74 289.93,149.43 290.22,151.15C290.53,152.98 290.83,154.89 291.12,156.83C291.43,158.87 291.73,160.97 292.03,163.11C292.34,165.34 292.63,167.63 292.93,169.94C293.24,172.33 293.54,174.76 293.84,177.21C294.15,179.72 294.44,182.27 294.74,184.83C295.04,187.42 295.34,190.04 295.64,192.65C295.94,195.26 296.25,197.9 296.55,200.5C296.85,203.07 297.14,205.64 297.45,208.16C297.75,210.62 298.05,213.06 298.36,215.43C298.65,217.69 298.95,219.93 299.26,222.05C299.55,224.03 299.84,225.96 300.16,227.77C300.45,229.42 300.75,231.02 301.07,232.5C301.36,233.81 301.64,235.06 301.97,236.19C302.25,237.18 302.55,238.1 302.88,238.93C303.16,239.64 303.45,240.31 303.78,240.87C304.06,241.34 304.35,241.78 304.68,242.09C304.96,242.35 305.27,242.57 305.59,242.67C305.88,242.76 306.19,242.77 306.49,242.72C306.8,242.67 307.11,242.51 307.4,242.34C307.71,242.16 308.01,241.91 308.3,241.66C308.61,241.39 308.91,241.09 309.21,240.78C309.52,240.45 309.82,240.11 310.11,239.74C310.42,239.35 310.72,238.94 311.01,238.51C311.32,238.05 311.62,237.55 311.92,237.04C312.23,236.51 312.52,235.94 312.82,235.38C313.12,234.82 313.42,234.24 313.73,233.7C314.02,233.18 314.32,232.67 314.63,232.21C314.92,231.79 315.21,231.37 315.53,231.04C315.82,230.74 316.12,230.46 316.44,230.28C316.73,230.12 317.04,230.01 317.34,229.99C317.64,229.97 317.96,230.04 318.25,230.17C318.57,230.31 318.87,230.56 319.15,230.83C319.47,231.13 319.76,231.52 320.05,231.92C320.37,232.37 320.67,232.88 320.96,233.4C321.27,233.96 321.57,234.57 321.86,235.18C322.17,235.82 322.47,236.5 322.77,237.17C323.07,237.85 323.36,238.55 323.67,239.23C323.97,239.89 324.27,240.56 324.58,241.18C324.87,241.76 325.17,242.32 325.48,242.83C325.77,243.29 326.05,243.76 326.38,244.12C326.66,244.43 326.96,244.8 327.29,244.9C327.57,244.98 327.92,244.93 328.19,244.78C328.53,244.59 328.83,244.14 329.1,243.68C329.46,243.08 329.73,242.25 330,241.39C330.34,240.31 330.61,238.96 330.9,237.69C331.21,236.35 331.51,234.95 331.81,233.56C332.12,232.13 332.41,230.68 332.71,229.23C333.01,227.77 333.32,226.29 333.62,224.82C333.92,223.34 334.22,221.85 334.52,220.37C334.82,218.9 335.11,217.42 335.42,215.98C335.72,214.58 336.02,213.19 336.33,211.85C336.62,210.57 336.92,209.31 337.23,208.11C337.52,206.98 337.82,205.88 338.14,204.84C338.43,203.89 338.72,202.96 339.04,202.11C339.33,201.35 339.63,200.62 339.95,199.97C340.23,199.4 340.52,198.86 340.85,198.43C341.13,198.06 341.42,197.71 341.75,197.5C342.03,197.32 342.36,197.2 342.66,197.19C342.96,197.18 343.27,197.29 343.56,197.44C343.88,197.61 344.18,197.89 344.47,198.18C344.79,198.5 345.08,198.91 345.37,199.31C345.68,199.74 345.97,200.21 346.27,200.68C346.58,201.17 346.88,201.68 347.18,202.19C347.49,202.72 347.78,203.26 348.08,203.81C348.39,204.37 348.69,204.94 348.99,205.53C349.3,206.13 349.59,206.75 349.89,207.37C350.19,208 350.49,208.65 350.79,209.3C351.09,209.95 351.4,210.62 351.7,211.27C352,211.91 352.29,212.56 352.6,213.18C352.9,213.77 353.19,214.37 353.51,214.89C353.8,215.36 354.07,215.88 354.41,216.2C354.69,216.46 355.03,216.79 355.32,216.76C355.63,216.73 355.96,216.32 356.22,215.94C356.59,215.4 356.84,214.51 357.12,213.69C357.45,212.73 357.74,211.63 358.03,210.5C358.35,209.25 358.64,207.9 358.93,206.52C359.24,205.03 359.55,203.46 359.84,201.85C360.15,200.14 360.45,198.37 360.74,196.56C361.05,194.65 361.34,192.68 361.64,190.68C361.95,188.59 362.25,186.45 362.55,184.28C362.86,182.04 363.15,179.75 363.45,177.44C363.76,175.06 364.06,172.65 364.36,170.18C364.67,167.61 364.96,164.97 365.26,162.31C365.56,159.58 365.86,156.77 366.16,154C366.46,151.21 366.77,148.41 367.07,145.63C367.37,142.87 367.67,140.1 367.97,137.37C368.27,134.68 368.58,131.99 368.88,129.35C369.18,126.76 369.48,124.19 369.78,121.66C370.08,119.2 370.37,116.78 370.68,114.4C370.98,112.1 371.28,109.84 371.59,107.63C371.89,105.51 372.18,103.44 372.49,101.42C372.78,99.5 373.09,97.62 373.4,95.8C373.69,94.09 373.99,92.42 374.3,90.82C374.59,89.33 374.9,87.88 375.21,86.51C375.5,85.25 375.79,84.02 376.11,82.88C376.4,81.85 376.69,80.87 377.01,79.97C377.3,79.18 377.59,78.41 377.92,77.76C378.2,77.21 378.48,76.67 378.82,76.28C379.1,75.95 379.4,75.64 379.73,75.51C380.01,75.4 380.34,75.37 380.63,75.45C380.95,75.54 381.25,75.81 381.53,76.09C381.86,76.43 382.16,76.9 382.44,77.4C382.77,77.98 383.05,78.66 383.34,79.37C383.66,80.17 383.96,81.05 384.25,81.97C384.57,82.98 384.86,84.06 385.15,85.17C385.46,86.37 385.76,87.63 386.05,88.93C386.36,90.31 386.67,91.74 386.96,93.21C387.27,94.75 387.56,96.34 387.86,97.96C388.17,99.64 388.47,101.36 388.77,103.1C389.08,104.89 389.37,106.72 389.67,108.55C389.97,110.42 390.28,112.31 390.58,114.21C390.88,116.14 391.18,118.08 391.48,120.04C391.78,122.03 392.08,124.04 392.38,126.05C392.68,128.08 392.99,130.13 393.29,132.15C393.59,134.14 393.89,136.13 394.19,138.09C394.49,140.01 394.8,141.91 395.1,143.8C395.4,145.66 395.7,147.49 396,149.34C396.3,151.2 396.6,153.06 396.9,154.93C397.2,156.82 397.51,158.72 397.81,160.63C398.11,162.57 398.41,164.52 398.71,166.48C399.01,168.47 399.32,170.47 399.62,172.48C399.92,174.52 400.22,176.57 400.52,178.63C400.82,180.72 401.12,182.82 401.42,184.94C401.72,187.08 402.03,189.24 402.33,191.4C402.63,193.59 402.93,195.79 403.23,197.99C403.53,200.21 403.84,202.44 404.14,204.68C404.44,206.92 404.74,209.2 405.04,211.43C405.34,213.64 405.64,215.84 405.95,218C406.25,220.09 406.55,222.15 406.85,224.18C407.15,226.16 407.44,228.11 407.75,230.03C408.05,231.9 408.35,233.74 408.66,235.55C408.96,237.31 409.25,239.07 409.56,240.74C409.85,242.32 410.15,243.89 410.47,245.32C410.76,246.6 411.03,247.88 411.37,248.93C411.64,249.78 411.94,250.53 412.27,251.18C412.55,251.73 412.85,252.23 413.18,252.63C413.46,252.96 413.76,253.28 414.08,253.45C414.36,253.6 414.69,253.65 414.99,253.65C415.29,253.65 415.6,253.55 415.89,253.43C416.2,253.31 416.5,253.13 416.79,252.92C417.11,252.69 417.42,252.44 417.7,252.1C418.04,251.69 418.3,251.1 418.6,250.58C418.91,250.05 419.21,249.5 419.51,248.94C419.81,248.38 420.11,247.79 420.41,247.22C420.71,246.65 421.01,246.07 421.32,245.52C421.61,245 421.91,244.48 422.22,244.01C422.51,243.58 422.8,243.16 423.12,242.81C423.41,242.49 423.71,242.2 424.03,241.98C424.32,241.78 424.62,241.61 424.93,241.53C425.22,241.45 425.54,241.43 425.84,241.48C426.15,241.53 426.45,241.67 426.74,241.83C427.05,242.01 427.35,242.26 427.64,242.54C427.96,242.85 428.26,243.22 428.55,243.61C428.86,244.03 429.16,244.49 429.45,244.97C429.76,245.49 430.07,246.04 430.36,246.62C430.67,247.23 430.97,247.87 431.26,248.54C431.57,249.25 431.87,249.99 432.16,250.75C432.47,251.55 432.77,252.38 433.07,253.21C433.38,254.07 433.67,254.94 433.97,255.82C434.27,256.71 434.58,257.61 434.88,258.5C435.18,259.4 435.48,260.3 435.78,261.19C436.08,262.07 436.37,262.96 436.68,263.81C436.98,264.63 437.27,265.45 437.59,266.2C437.88,266.89 438.17,267.57 438.49,268.16C438.77,268.68 439.07,269.18 439.4,269.56C439.68,269.88 439.98,270.19 440.3,270.34C440.58,270.47 440.92,270.52 441.21,270.47C441.52,270.42 441.83,270.21 442.11,269.99C442.44,269.73 442.73,269.35 443.01,268.95C443.34,268.49 443.63,267.95 443.92,267.38C444.24,266.75 444.53,266.05 444.82,265.33C445.14,264.54 445.44,263.7 445.73,262.83C446.04,261.9 446.34,260.92 446.63,259.91C446.94,258.84 447.24,257.73 447.53,256.59C447.84,255.39 448.14,254.15 448.44,252.89C448.75,251.59 449.04,250.25 449.34,248.9C449.64,247.53 449.95,246.12 450.25,244.73C450.55,243.33 450.85,241.91 451.15,240.51C451.45,239.12 451.75,237.74 452.05,236.37C452.35,235.02 452.65,233.68 452.96,232.37C453.26,231.09 453.55,229.82 453.86,228.58C454.16,227.39 454.46,226.21 454.77,225.07C455.07,223.97 455.36,222.9 455.67,221.86C455.96,220.88 456.27,219.92 456.58,219C456.87,218.14 457.17,217.3 457.48,216.51C457.77,215.78 458.06,215.07 458.38,214.41C458.67,213.81 458.97,213.24 459.29,212.72C459.58,212.25 459.87,211.8 460.19,211.42C460.48,211.08 460.78,210.76 461.1,210.52Q461.39,210.3 462,210" style="vector-effect: non-scaling-stroke; fill: none; stroke: rgb(0, 100, 80); stroke-opacity: 1; stroke-width: 2px; opacity: 1;"/></g><g class="points"/><g class="text"/></g><g class="trace scatter traceb1204c" style="stroke-miterlimit: 2; opacity: 1;"><g class="fills"/><g class="errorbars"/><g class="lines"><path class="js-line" d="M0,169.64Q0.62,169.67 0.9,169.83C1.24,170.02 1.53,170.42 1.81,170.82C2.15,171.31 2.43,171.94 2.71,172.59C3.04,173.34 3.33,174.2 3.62,175.08C3.94,176.06 4.23,177.12 4.52,178.21C4.83,179.38 5.13,180.63 5.42,181.88C5.73,183.19 6.03,184.56 6.33,185.92C6.63,187.31 6.93,188.73 7.23,190.12C7.53,191.49 7.83,192.88 8.14,194.18C8.43,195.39 8.71,196.63 9.04,197.69C9.32,198.6 9.59,199.53 9.95,200.17C10.22,200.64 10.51,201.18 10.85,201.28C11.12,201.36 11.49,201.22 11.75,201C12.12,200.69 12.39,199.99 12.66,199.35C13.01,198.53 13.28,197.48 13.56,196.43C13.88,195.24 14.18,193.91 14.47,192.58C14.78,191.16 15.08,189.67 15.37,188.17C15.68,186.62 15.97,185.01 16.27,183.42C16.57,181.81 16.88,180.17 17.18,178.55C17.48,176.94 17.77,175.32 18.08,173.75C18.38,172.22 18.68,170.71 18.99,169.25C19.28,167.87 19.58,166.51 19.89,165.24C20.18,164.07 20.47,162.92 20.79,161.88C21.08,160.96 21.37,160.07 21.7,159.31C21.98,158.67 22.25,158.04 22.6,157.6C22.87,157.26 23.19,156.9 23.51,156.82C23.79,156.75 24.14,156.83 24.41,157C24.76,157.21 25.04,157.68 25.32,158.14C25.66,158.71 25.94,159.46 26.22,160.23C26.55,161.13 26.83,162.16 27.12,163.23C27.44,164.42 27.74,165.73 28.03,167.06C28.34,168.49 28.61,170.12 28.93,171.53C29.22,172.82 29.48,174.18 29.84,175.2C30.11,175.98 30.45,176.49 30.74,177.19C31.05,177.96 31.36,178.75 31.64,179.64C31.97,180.66 32.26,181.79 32.55,182.97C32.87,184.29 33.16,185.72 33.45,187.2C33.77,188.82 34.07,190.53 34.36,192.3C34.67,194.2 34.97,196.19 35.26,198.22C35.57,200.36 35.86,202.58 36.16,204.83C36.47,207.17 36.77,209.58 37.07,212C37.38,214.49 37.67,217.03 37.97,219.59C38.27,222.2 38.58,224.86 38.88,227.52C39.18,230.23 39.48,232.96 39.78,235.7C40.08,238.45 40.38,241.23 40.68,243.98C40.98,246.7 41.28,249.44 41.59,252.11C41.89,254.7 42.18,257.29 42.49,259.76C42.78,262.09 43.08,264.4 43.4,266.54C43.69,268.47 43.96,270.38 44.3,272.03C44.58,273.4 44.84,274.77 45.21,275.77C45.48,276.48 45.78,277.49 46.11,277.53C46.39,277.56 46.75,276.99 47.01,276.49C47.44,275.66 47.64,274.09 47.92,272.75C48.24,271.22 48.53,269.51 48.82,267.82C49.13,266.03 49.43,264.14 49.73,262.27C50.04,260.36 50.33,258.4 50.63,256.46C50.93,254.53 51.23,252.57 51.53,250.66C51.83,248.78 52.13,246.91 52.44,245.09C52.74,243.34 53.03,241.61 53.34,239.95C53.63,238.38 53.94,236.84 54.25,235.38C54.54,234.03 54.83,232.71 55.15,231.48C55.44,230.36 55.73,229.29 56.05,228.31C56.34,227.44 56.63,226.61 56.96,225.89C57.24,225.28 57.52,224.69 57.86,224.24C58.14,223.87 58.44,223.52 58.77,223.33C59.05,223.17 59.37,223.08 59.67,223.09C59.97,223.1 60.29,223.25 60.58,223.42C60.9,223.6 61.19,223.91 61.48,224.18C61.79,224.47 62.07,224.82 62.38,225.1C62.67,225.36 62.97,225.65 63.29,225.81C63.58,225.96 63.89,226.03 64.19,226.07C64.49,226.11 64.8,226.06 65.1,226.03C65.4,226.01 65.7,225.94 66,225.92C66.3,225.9 66.6,225.89 66.9,225.92C67.2,225.95 67.51,225.99 67.81,226.08C68.12,226.17 68.42,226.3 68.71,226.46C69.02,226.63 69.33,226.83 69.62,227.07C69.93,227.32 70.23,227.62 70.52,227.95C70.83,228.3 71.13,228.71 71.42,229.13C71.73,229.58 72.04,230.08 72.33,230.59C72.64,231.14 72.94,231.72 73.23,232.32C73.54,232.95 73.84,233.6 74.14,234.26C74.45,234.94 74.74,235.63 75.04,236.33C75.34,237.04 75.65,237.75 75.95,238.47C76.25,239.2 76.55,239.95 76.85,240.7C77.15,241.47 77.45,242.26 77.75,243.05C78.06,243.86 78.36,244.7 78.66,245.53C78.96,246.37 79.26,247.24 79.56,248.08C79.86,248.91 80.16,249.75 80.47,250.56C80.77,251.34 81.06,252.1 81.37,252.83C81.66,253.52 81.96,254.18 82.27,254.82C82.57,255.44 82.88,256.02 83.18,256.62C83.48,257.21 83.78,257.8 84.08,258.4C84.38,259.01 84.69,259.62 84.99,260.25C85.3,260.89 85.59,261.55 85.89,262.21C86.19,262.87 86.49,263.53 86.79,264.19C87.09,264.86 87.4,265.53 87.7,266.22C88.01,266.94 88.31,267.66 88.6,268.42C88.91,269.21 89.21,270.03 89.51,270.87C89.82,271.74 90.11,272.65 90.41,273.54C90.71,274.44 91.01,275.36 91.32,276.23C91.61,277.05 91.91,277.85 92.22,278.62C92.51,279.36 92.81,280.09 93.12,280.76C93.41,281.38 93.69,282.04 94.03,282.52C94.31,282.91 94.59,283.35 94.93,283.49C95.21,283.61 95.57,283.62 95.84,283.48C96.19,283.3 96.48,282.77 96.74,282.23C97.13,281.42 97.36,280.14 97.64,278.97C97.97,277.62 98.26,276.11 98.55,274.57C98.87,272.9 99.16,271.11 99.45,269.3C99.76,267.39 100.06,265.39 100.36,263.4C100.67,261.35 100.96,259.26 101.26,257.18C101.56,255.09 101.86,252.98 102.16,250.9C102.46,248.85 102.76,246.81 103.07,244.81C103.37,242.87 103.66,240.94 103.97,239.07C104.27,237.28 104.57,235.51 104.88,233.82C105.17,232.22 105.47,230.66 105.78,229.18C106.07,227.8 106.36,226.46 106.68,225.21C106.97,224.08 107.27,222.98 107.59,221.99C107.87,221.12 108.16,220.28 108.49,219.56C108.77,218.95 109.06,218.36 109.4,217.94C109.68,217.6 109.97,217.26 110.3,217.14C110.58,217.03 110.93,217.04 111.21,217.15C111.54,217.27 111.83,217.6 112.11,217.93C112.45,218.33 112.73,218.88 113.01,219.44C113.34,220.08 113.63,220.82 113.92,221.58C114.24,222.41 114.53,223.32 114.82,224.24C115.13,225.23 115.44,226.28 115.73,227.34C116.04,228.46 116.34,229.62 116.63,230.8C116.94,232.02 117.23,233.28 117.53,234.55C117.84,235.85 118.14,237.17 118.44,238.5C118.74,239.84 119.04,241.2 119.34,242.55C119.64,243.9 119.95,245.26 120.25,246.61C120.55,247.96 120.85,249.32 121.15,250.67C121.45,252.02 121.75,253.37 122.05,254.73C122.35,256.1 122.66,257.46 122.96,258.84C123.26,260.22 123.56,261.62 123.86,263.01C124.16,264.41 124.47,265.82 124.77,267.22C125.07,268.61 125.36,270.02 125.67,271.39C125.97,272.73 126.27,274.06 126.58,275.35C126.88,276.59 127.17,277.81 127.48,278.97C127.77,280.06 128.06,281.15 128.38,282.14C128.67,283.03 128.94,283.94 129.29,284.63C129.56,285.18 129.83,285.74 130.19,286.02C130.46,286.23 130.81,286.38 131.1,286.33C131.41,286.28 131.73,285.96 132,285.66C132.34,285.28 132.62,284.7 132.9,284.13C133.23,283.45 133.52,282.66 133.81,281.84C134.13,280.93 134.42,279.94 134.71,278.93C135.02,277.85 135.32,276.7 135.62,275.54C135.93,274.33 136.22,273.07 136.52,271.81C136.82,270.53 137.12,269.22 137.42,267.92C137.72,266.62 138.03,265.31 138.33,264.02C138.63,262.75 138.92,261.47 139.23,260.23C139.53,259.02 139.83,257.83 140.14,256.67C140.44,255.56 140.73,254.47 141.04,253.43C141.33,252.44 141.64,251.48 141.95,250.57C142.24,249.72 142.54,248.9 142.85,248.13C143.14,247.42 143.43,246.74 143.75,246.12C144.04,245.56 144.34,245.03 144.66,244.57C144.95,244.16 145.24,243.77 145.56,243.46C145.85,243.19 146.15,242.95 146.47,242.79C146.76,242.65 147.07,242.54 147.37,242.53C147.67,242.52 147.98,242.59 148.27,242.71C148.59,242.84 148.89,243.07 149.18,243.32C149.5,243.61 149.79,243.98 150.08,244.37C150.4,244.81 150.7,245.32 150.99,245.85C151.31,246.44 151.6,247.09 151.89,247.76C152.2,248.48 152.5,249.25 152.79,250.04C153.1,250.88 153.4,251.76 153.7,252.65C154.01,253.59 154.3,254.56 154.6,255.54C154.91,256.55 155.21,257.59 155.51,258.64C155.82,259.72 156.11,260.81 156.41,261.92C156.71,263.05 157.02,264.2 157.32,265.35C157.62,266.51 157.92,267.69 158.22,268.86C158.52,270.04 158.82,271.23 159.12,272.4C159.42,273.56 159.72,274.72 160.03,275.85C160.33,276.95 160.62,278.04 160.93,279.08C161.22,280.06 161.53,281.01 161.84,281.92C162.13,282.78 162.43,283.6 162.74,284.39C163.03,285.14 163.33,285.86 163.64,286.54C163.93,287.18 164.24,287.79 164.55,288.37C164.84,288.91 165.14,289.43 165.45,289.91C165.74,290.36 166.05,290.79 166.36,291.19C166.65,291.57 166.95,291.94 167.26,292.27C167.55,292.58 167.84,292.89 168.16,293.11C168.45,293.31 168.76,293.52 169.07,293.54C169.37,293.56 169.7,293.45 169.97,293.25C170.32,292.99 170.6,292.45 170.88,291.97C171.21,291.42 171.49,290.76 171.78,290.09C172.1,289.34 172.4,288.56 172.68,287.65C173.02,286.53 173.3,285.19 173.59,283.84C173.91,282.32 174.19,280.6 174.49,278.95C174.79,277.27 175.1,275.56 175.4,273.86C175.7,272.16 176,270.44 176.3,268.74C176.6,267.04 176.91,265.34 177.21,263.65C177.51,261.97 177.81,260.3 178.11,258.64C178.41,256.99 178.71,255.34 179.01,253.7C179.31,252.06 179.62,250.43 179.92,248.79C180.22,247.13 180.52,245.48 180.82,243.79C181.13,242.06 181.44,240.34 181.73,238.54C182.04,236.65 182.34,234.71 182.63,232.72C182.94,230.64 183.23,228.47 183.53,226.32C183.83,224.15 184.14,221.95 184.44,219.77C184.74,217.6 185.04,215.43 185.34,213.27C185.64,211.13 185.95,209 186.25,206.89C186.55,204.8 186.85,202.73 187.15,200.67C187.45,198.64 187.75,196.63 188.05,194.63C188.35,192.67 188.66,190.72 188.96,188.8C189.26,186.91 189.56,185.05 189.86,183.2C190.16,181.39 190.46,179.6 190.77,177.84C191.07,176.12 191.36,174.42 191.67,172.74C191.97,171.1 192.27,169.49 192.58,167.9C192.88,166.36 193.17,164.83 193.48,163.34C193.78,161.9 194.07,160.48 194.38,159.09C194.68,157.75 194.98,156.44 195.29,155.16C195.58,153.94 195.88,152.75 196.19,151.6C196.48,150.52 196.79,149.46 197.1,148.46C197.39,147.53 197.69,146.62 198,145.77C198.29,145 198.58,144.25 198.9,143.58C199.19,142.98 199.48,142.41 199.81,141.94C200.09,141.53 200.38,141.13 200.71,140.87C200.99,140.65 201.31,140.46 201.62,140.41C201.91,140.37 202.24,140.43 202.52,140.56C202.84,140.71 203.14,141.02 203.42,141.34C203.75,141.72 204.05,142.23 204.33,142.75C204.66,143.35 204.94,144.04 205.23,144.76C205.55,145.57 205.85,146.45 206.14,147.37C206.46,148.37 206.75,149.43 207.04,150.53C207.35,151.71 207.66,152.94 207.95,154.2C208.26,155.53 208.56,156.92 208.85,158.32C209.16,159.78 209.45,161.29 209.75,162.81C210.06,164.38 210.36,165.98 210.66,167.59C210.96,169.23 211.26,170.89 211.56,172.55C211.86,174.22 212.17,175.9 212.47,177.56C212.77,179.21 213.07,180.87 213.37,182.5C213.67,184.09 213.96,185.67 214.27,187.2C214.57,188.67 214.87,190.14 215.18,191.53C215.47,192.83 215.75,194.15 216.08,195.31C216.36,196.32 216.61,197.44 216.99,198.13C217.25,198.6 217.55,199.06 217.89,199.19C218.16,199.3 218.51,199.21 218.79,199.09C219.11,198.95 219.42,198.64 219.7,198.33C220.03,197.97 220.31,197.51 220.6,197.03C220.92,196.5 221.22,195.9 221.51,195.28C221.82,194.61 222.12,193.89 222.41,193.16C222.72,192.38 223.02,191.55 223.32,190.72C223.63,189.85 223.92,188.96 224.22,188.06C224.52,187.13 224.82,186.17 225.12,185.22C225.42,184.25 225.73,183.27 226.03,182.29C226.33,181.3 226.63,180.3 226.93,179.31C227.23,178.32 227.54,177.33 227.84,176.35C228.14,175.38 228.44,174.41 228.74,173.46C229.04,172.53 229.33,171.6 229.64,170.69C229.94,169.8 230.24,168.92 230.55,168.06C230.85,167.23 231.14,166.42 231.45,165.63C231.75,164.87 232.05,164.13 232.36,163.41C232.65,162.73 232.95,162.06 233.26,161.43C233.55,160.83 233.85,160.26 234.16,159.72C234.45,159.22 234.76,158.73 235.07,158.29C235.36,157.88 235.66,157.5 235.97,157.16C236.26,156.85 236.56,156.56 236.88,156.33C237.17,156.12 237.47,155.93 237.78,155.8C238.07,155.68 238.38,155.59 238.68,155.55C238.98,155.51 239.29,155.52 239.59,155.57C239.89,155.62 240.19,155.71 240.49,155.83C240.8,155.95 241.1,156.11 241.4,156.29C241.71,156.47 242,156.69 242.3,156.92C242.61,157.16 242.91,157.41 243.21,157.68C243.52,157.95 243.81,158.24 244.11,158.53C244.41,158.83 244.71,159.13 245.01,159.44C245.31,159.75 245.62,160.06 245.92,160.37C246.22,160.68 246.52,160.99 246.82,161.3C247.12,161.6 247.42,161.91 247.73,162.2C248.03,162.48 248.32,162.77 248.63,163.03C248.93,163.28 249.22,163.53 249.53,163.74C249.83,163.95 250.13,164.16 250.44,164.29C250.73,164.41 251.05,164.57 251.34,164.53C251.65,164.49 251.98,164.28 252.25,164C252.61,163.64 252.89,163.09 253.15,162.39C253.56,161.27 253.75,159.32 254.05,157.77C254.35,156.21 254.65,154.6 254.96,153.05C255.26,151.55 255.55,150.06 255.86,148.61C256.16,147.22 256.46,145.85 256.77,144.54C257.06,143.3 257.36,142.09 257.67,140.94C257.96,139.87 258.26,138.83 258.58,137.86C258.87,136.98 259.16,136.12 259.48,135.35C259.76,134.67 260.05,134.01 260.38,133.45C260.66,132.97 260.96,132.51 261.29,132.18C261.57,131.9 261.87,131.65 262.19,131.55C262.48,131.46 262.81,131.47 263.1,131.56C263.42,131.66 263.72,131.93 264,132.21C264.33,132.54 264.62,132.99 264.9,133.46C265.23,134 265.52,134.64 265.81,135.3C266.13,136.03 266.42,136.83 266.71,137.66C267.03,138.56 267.33,139.52 267.62,140.5C267.93,141.54 268.23,142.64 268.52,143.75C268.83,144.91 269.12,146.11 269.42,147.32C269.73,148.57 270.03,149.86 270.33,151.14C270.63,152.44 270.93,153.77 271.23,155.09C271.53,156.42 271.84,157.76 272.14,159.08C272.44,160.39 272.73,161.69 273.04,162.97C273.34,164.22 273.64,165.47 273.95,166.68C274.25,167.84 274.54,168.98 274.85,170.09C275.14,171.14 275.44,172.18 275.75,173.17C276.04,174.11 276.35,175.03 276.66,175.91C276.95,176.75 277.25,177.56 277.56,178.35C277.85,179.1 278.16,179.83 278.47,180.53C278.76,181.2 279.06,181.85 279.37,182.48C279.66,183.08 279.96,183.67 280.27,184.24C280.57,184.78 280.87,185.32 281.18,185.81C281.47,186.27 281.78,187.1 282.08,187.1C282.38,187.1 282.71,186.27 282.99,185.77C283.32,185.18 283.59,184.4 283.89,183.74C284.19,183.1 284.48,182.45 284.79,181.86C285.08,181.3 285.38,180.76 285.7,180.28C285.99,179.84 286.29,179.46 286.6,179.07C286.9,178.69 287.2,178.33 287.51,177.98C287.81,177.65 288.08,177.25 288.41,177.03C288.69,176.84 289.02,176.69 289.32,176.7C289.62,176.71 289.95,176.9 290.22,177.13C290.56,177.42 290.84,177.9 291.12,178.39C291.46,178.99 291.75,179.72 292.03,180.49C292.36,181.38 292.64,182.4 292.93,183.45C293.25,184.63 293.55,185.91 293.84,187.23C294.16,188.68 294.45,190.22 294.74,191.8C295.05,193.49 295.35,195.27 295.64,197.07C295.95,198.97 296.25,200.93 296.55,202.91C296.86,204.95 297.15,207.05 297.45,209.14C297.75,211.27 298.06,213.43 298.36,215.58C298.66,217.75 298.96,219.94 299.26,222.11C299.56,224.26 299.85,226.44 300.16,228.55C300.46,230.6 300.76,232.66 301.07,234.59C301.36,236.38 301.64,238.18 301.97,239.74C302.25,241.05 302.51,242.37 302.88,243.33C303.15,244.03 303.4,244.78 303.78,245.06C304.04,245.25 304.41,245.31 304.68,245.21C305.03,245.08 305.31,244.53 305.59,244.08C305.93,243.52 306.2,242.76 306.49,242.03C306.81,241.22 307.11,240.33 307.4,239.44C307.71,238.5 308,237.52 308.3,236.54C308.6,235.54 308.91,234.52 309.21,233.51C309.51,232.5 309.81,231.47 310.11,230.47C310.41,229.49 310.7,228.52 311.01,227.58C311.31,226.68 311.61,225.78 311.92,224.94C312.21,224.15 312.5,223.37 312.82,222.66C313.11,222.01 313.41,221.37 313.73,220.82C314.01,220.33 314.3,219.86 314.63,219.5C314.91,219.19 315.21,218.9 315.53,218.75C315.82,218.62 316.15,218.56 316.44,218.61C316.75,218.67 317.06,218.87 317.34,219.11C317.67,219.39 317.97,219.81 318.25,220.24C318.58,220.75 318.87,221.36 319.15,221.99C319.47,222.7 319.76,223.49 320.05,224.3C320.36,225.18 320.66,226.11 320.96,227.06C321.27,228.05 321.56,229.09 321.86,230.12C322.16,231.17 322.47,232.26 322.77,233.32C323.07,234.36 323.36,235.42 323.67,236.42C323.96,237.38 324.26,238.33 324.58,239.21C324.87,240.01 325.15,240.8 325.48,241.46C325.76,242.03 326.03,242.6 326.38,242.97C326.65,243.27 326.98,243.58 327.29,243.61C327.58,243.63 327.92,243.43 328.19,243.18C328.55,242.85 328.82,242.22 329.1,241.62C329.44,240.88 329.72,239.98 330,239.04C330.33,237.96 330.61,236.73 330.9,235.49C331.22,234.13 331.52,232.66 331.81,231.19C332.12,229.64 332.41,228.03 332.71,226.41C333.02,224.75 333.32,223.05 333.62,221.36C333.92,219.66 334.22,217.93 334.52,216.24C334.82,214.58 335.11,212.92 335.42,211.31C335.72,209.76 336.02,208.23 336.33,206.77C336.62,205.4 336.91,204.06 337.23,202.81C337.52,201.66 337.82,200.54 338.14,199.53C338.43,198.63 338.71,197.76 339.04,197.02C339.32,196.39 339.61,195.78 339.95,195.33C340.22,194.97 340.52,194.61 340.85,194.48C341.13,194.37 341.47,194.36 341.75,194.46C342.08,194.58 342.38,194.92 342.66,195.23C342.99,195.59 343.2,196.38 343.56,196.55C343.83,196.68 344.18,196.59 344.47,196.48C344.79,196.36 345.05,195.95 345.37,195.83C345.66,195.72 345.98,195.68 346.27,195.74C346.58,195.81 346.9,196.02 347.18,196.26C347.51,196.53 347.79,196.93 348.08,197.33C348.4,197.78 348.7,198.33 348.99,198.87C349.3,199.46 349.59,200.1 349.89,200.74C350.19,201.39 350.48,202.09 350.79,202.74C351.09,203.38 351.39,204.02 351.7,204.62C351.99,205.18 352.29,205.72 352.6,206.22C352.89,206.68 353.18,207.15 353.51,207.52C353.79,207.84 354.11,208.31 354.41,208.32C354.71,208.33 355.05,207.92 355.32,207.6C355.67,207.19 355.94,206.57 356.22,205.97C356.55,205.27 356.84,204.48 357.12,203.63C357.45,202.66 357.74,201.59 358.03,200.46C358.35,199.18 358.64,197.79 358.93,196.34C359.25,194.74 359.55,193.03 359.84,191.25C360.16,189.31 360.46,187.36 360.74,185.13C361.07,182.45 361.36,179.44 361.64,176.26C361.97,172.56 362.25,168.32 362.55,164.26C362.86,160.09 363.15,155.83 363.45,151.58C363.75,147.27 364.06,142.92 364.36,138.58C364.66,134.23 364.96,129.86 365.26,125.52C365.56,121.2 365.86,116.88 366.16,112.6C366.46,108.38 366.77,104.16 367.07,100.01C367.37,95.94 367.66,91.9 367.97,87.93C368.27,84.07 368.57,80.24 368.88,76.5C369.18,72.88 369.47,69.31 369.78,65.83C370.07,62.5 370.37,59.22 370.68,56.04C370.97,53.02 371.28,50.07 371.59,47.22C371.88,44.54 372.18,41.93 372.49,39.43C372.78,37.11 373.08,34.85 373.4,32.72C373.69,30.77 373.98,28.88 374.3,27.12C374.59,25.55 374.88,24.04 375.21,22.67C375.49,21.48 375.78,20.33 376.11,19.35C376.39,18.53 376.66,17.75 377.01,17.16C377.28,16.7 377.57,16.23 377.92,16.05C378.19,15.91 378.54,15.89 378.82,16C379.15,16.13 379.45,16.54 379.73,16.93C380.07,17.42 380.35,18.08 380.63,18.76C380.96,19.55 381.24,20.46 381.53,21.4C381.85,22.44 382.15,23.57 382.44,24.72C382.75,25.95 383.04,27.26 383.34,28.57C383.65,29.94 383.95,31.36 384.25,32.78C384.55,34.22 384.85,35.69 385.15,37.15C385.45,38.62 385.75,40.09 386.05,41.56C386.35,43.04 386.66,44.51 386.96,46.01C387.26,47.53 387.56,49.06 387.86,50.63C388.17,52.26 388.48,53.91 388.77,55.62C389.08,57.41 389.38,59.24 389.67,61.13C389.98,63.12 390.29,65.16 390.58,67.26C390.89,69.47 391.19,71.74 391.48,74.06C391.79,76.5 392.08,79 392.38,81.56C392.69,84.23 392.99,86.97 393.29,89.76C393.6,92.66 393.89,95.62 394.19,98.63C394.5,101.75 394.8,104.93 395.1,108.15C395.41,111.47 395.7,114.85 396,118.27C396.3,121.78 396.6,125.34 396.9,128.93C397.2,132.6 397.51,136.32 397.81,140.06C398.11,143.87 398.41,147.72 398.71,151.59C399.01,155.51 399.32,159.47 399.62,163.44C399.92,167.45 400.22,171.48 400.52,175.52C400.82,179.58 401.12,183.65 401.42,187.72C401.72,191.79 402.03,195.87 402.33,199.94C402.63,203.99 402.93,208.05 403.23,212.07C403.53,216.05 403.84,220.02 404.14,223.95C404.44,227.81 404.73,231.66 405.04,235.43C405.34,239.1 405.64,242.75 405.95,246.29C406.25,249.69 406.54,253.05 406.85,256.27C407.14,259.29 407.43,262.26 407.75,265.03C408.04,267.53 408.33,269.98 408.66,272.14C408.94,273.97 409.21,275.71 409.56,277.17C409.83,278.32 410.09,279.45 410.47,280.22C410.73,280.76 411.02,281.36 411.37,281.48C411.64,281.57 412.01,281.45 412.27,281.22C412.68,280.86 412.9,279.85 413.18,279.06C413.51,278.13 413.8,277.1 414.08,275.95C414.42,274.57 414.7,272.92 414.99,271.33C415.3,269.65 415.59,267.87 415.89,266.13C416.19,264.37 416.49,262.58 416.79,260.82C417.09,259.06 417.4,257.3 417.7,255.57C418,253.87 418.29,252.19 418.6,250.54C418.9,248.95 419.2,247.37 419.51,245.85C419.8,244.4 420.1,242.98 420.41,241.62C420.7,240.35 421,239.11 421.32,237.94C421.61,236.86 421.9,235.82 422.22,234.86C422.51,234 422.79,233.17 423.12,232.44C423.4,231.81 423.7,231.19 424.03,230.71C424.31,230.31 424.6,229.91 424.93,229.69C425.21,229.5 425.54,229.36 425.84,229.37C426.14,229.38 426.46,229.55 426.74,229.75C427.07,229.99 427.36,230.4 427.64,230.82C427.97,231.31 428.26,231.91 428.55,232.53C428.87,233.24 429.16,234.04 429.45,234.86C429.77,235.77 430.07,236.74 430.36,237.75C430.67,238.84 430.97,239.99 431.26,241.17C431.57,242.42 431.87,243.72 432.16,245.05C432.47,246.44 432.77,247.87 433.07,249.32C433.38,250.82 433.67,252.37 433.97,253.91C434.27,255.48 434.58,257.09 434.88,258.67C435.18,260.23 435.46,261.86 435.78,263.32C436.07,264.64 436.35,265.93 436.68,267.07C436.96,268.04 437.24,269.02 437.59,269.74C437.86,270.29 438.13,270.86 438.49,271.11C438.76,271.3 439.11,271.39 439.4,271.33C439.72,271.26 440.01,270.9 440.3,270.62C440.62,270.3 440.92,269.88 441.21,269.47C441.52,269.02 441.82,268.53 442.11,268.03C442.42,267.5 442.72,266.93 443.01,266.35C443.32,265.74 443.62,265.11 443.92,264.47C444.23,263.81 444.52,263.12 444.82,262.43C445.12,261.73 445.43,261.01 445.73,260.3C446.03,259.58 446.33,258.85 446.63,258.13C446.93,257.41 447.23,256.69 447.53,255.99C447.83,255.3 448.13,254.62 448.44,253.95C448.74,253.3 449.03,252.66 449.34,252.04C449.64,251.45 449.94,250.87 450.25,250.33C450.54,249.82 450.84,249.32 451.15,248.86C451.44,248.43 451.74,248.02 452.05,247.66C452.34,247.32 452.64,247 452.96,246.74C453.25,246.5 453.55,246.29 453.86,246.14C454.15,246 454.46,245.88 454.77,245.83C455.07,245.78 455.37,245.79 455.67,245.83C455.98,245.87 456.29,245.97 456.58,246.1C456.89,246.24 457.19,246.43 457.48,246.64C457.79,246.86 458.09,247.12 458.38,247.39C458.69,247.68 458.99,248 459.29,248.33C459.6,248.67 459.89,249.04 460.19,249.4C460.49,249.77 460.79,250.16 461.1,250.52Q461.4,250.87 462,251.55" style="vector-effect: non-scaling-stroke; fill: none; stroke: rgb(0, 176, 246); stroke-opacity: 1; stroke-width: 2px; opacity: 1;"/></g><g class="points"/><g class="text"/></g><g class="trace scatter tracee79039" style="stroke-miterlimit: 2; opacity: 1;"><g class="fills"/><g class="errorbars"/><g class="lines"><path class="js-line" d="M0,56.11Q0.61,56.17 0.9,56.26C1.21,56.36 1.52,56.5 1.81,56.69C2.12,56.89 2.42,57.15 2.71,57.44C3.03,57.75 3.33,58.12 3.62,58.51C3.94,58.94 4.23,59.43 4.52,59.95C4.83,60.51 5.13,61.13 5.42,61.77C5.74,62.47 6.04,63.22 6.33,64C6.64,64.85 6.94,65.75 7.23,66.68C7.54,67.68 7.85,68.73 8.14,69.82C8.45,70.98 8.75,72.19 9.04,73.43C9.35,74.75 9.66,76.12 9.95,77.53C10.26,79.01 10.56,80.54 10.85,82.11C11.16,83.75 11.45,85.44 11.75,87.17C12.06,88.97 12.36,90.82 12.66,92.7C12.97,94.65 13.26,96.65 13.56,98.68C13.87,100.78 14.17,102.92 14.47,105.09C14.78,107.33 15.07,109.61 15.37,111.91C15.67,114.27 15.97,116.67 16.27,119.1C16.58,121.58 16.88,124.1 17.18,126.64C17.48,129.23 17.78,131.85 18.08,134.49C18.38,137.17 18.69,139.88 18.99,142.6C19.29,145.36 19.59,148.15 19.89,150.95C20.19,153.78 20.49,156.62 20.79,159.48C21.09,162.36 21.4,165.26 21.7,168.16C22,171.07 21.89,175.69 22.6,176.89C22.85,177.32 23.24,177.59 23.51,177.52C23.89,177.41 24.07,176.06 24.41,175.5C24.69,175.05 24.98,174.58 25.32,174.36C25.59,174.18 25.93,174.07 26.22,174.13C26.54,174.2 26.85,174.52 27.12,174.84C27.47,175.25 27.75,175.85 28.03,176.46C28.37,177.2 28.65,178.09 28.93,179.01C29.26,180.06 29.55,181.23 29.84,182.45C30.16,183.8 30.45,185.26 30.74,186.76C31.05,188.4 31.35,190.12 31.64,191.9C31.95,193.8 32.26,195.79 32.55,197.83C32.86,199.98 33.16,202.22 33.45,204.49C33.76,206.87 34.06,209.32 34.36,211.81C34.67,214.39 34.96,217.04 35.26,219.72C35.56,222.48 35.86,225.29 36.16,228.13C36.47,231.04 36.77,233.99 37.07,236.96C37.37,239.98 37.67,243.04 37.97,246.1C38.27,249.2 38.58,252.32 38.88,255.44C39.18,258.58 39.48,261.73 39.78,264.87C40.08,268 40.38,271.14 40.68,274.25C40.98,277.33 41.29,280.42 41.59,283.46C41.89,286.44 42.18,289.46 42.49,292.33C42.78,295.05 42.99,298.26 43.4,300.26C43.66,301.52 43.88,302.64 44.3,303.27C44.56,303.65 44.95,304.08 45.21,304C45.62,303.88 45.84,302.3 46.11,301.22C46.47,299.77 46.72,297.83 47.01,296.04C47.32,294.13 47.62,292.09 47.92,290.09C48.22,288.05 48.52,285.96 48.82,283.9C49.12,281.84 49.43,279.76 49.73,277.71C50.03,275.69 50.33,273.68 50.63,271.7C50.93,269.77 51.22,267.86 51.53,265.99C51.83,264.19 52.13,262.42 52.44,260.7C52.73,259.06 53.03,257.45 53.34,255.9C53.63,254.44 53.94,253.02 54.25,251.67C54.54,250.41 54.83,249.19 55.15,248.05C55.44,247.01 55.73,246 56.05,245.08C56.34,244.25 56.64,243.46 56.96,242.76C57.24,242.15 57.53,241.57 57.86,241.09C58.14,240.68 58.44,240.3 58.77,240.05C59.05,239.84 59.36,239.67 59.67,239.62C59.97,239.57 60.29,239.62 60.58,239.73C60.9,239.85 61.19,240.08 61.48,240.33C61.8,240.61 62.09,240.97 62.38,241.34C62.7,241.75 63,242.21 63.29,242.68C63.6,243.18 63.89,243.71 64.19,244.25C64.5,244.8 64.8,245.38 65.1,245.95C65.4,246.52 65.7,247.11 66,247.68C66.3,248.24 66.59,248.8 66.9,249.32C67.19,249.82 67.49,250.31 67.81,250.74C68.1,251.13 68.38,251.53 68.71,251.79C68.99,252.01 69.31,252.23 69.62,252.25C69.92,252.27 70.25,252.12 70.52,251.91C70.87,251.64 71.14,251.12 71.42,250.62C71.76,250 72.04,249.21 72.33,248.43C72.65,247.55 72.94,246.57 73.23,245.59C73.54,244.56 73.84,243.47 74.14,242.4C74.44,241.32 74.74,240.21 75.04,239.13C75.34,238.08 75.64,237.02 75.95,236.01C76.25,235.04 76.54,234.08 76.85,233.18C77.14,232.35 77.43,231.53 77.75,230.79C78.04,230.12 78.33,229.46 78.66,228.91C78.94,228.43 79.23,227.97 79.56,227.65C79.84,227.38 80.15,227.12 80.47,227.05C80.76,226.98 81.09,227.03 81.37,227.16C81.7,227.32 81.99,227.66 82.27,228.02C82.61,228.46 82.9,229.04 83.18,229.64C83.51,230.35 83.79,231.18 84.08,232.02C84.4,232.94 84.66,234.08 84.99,234.96C85.27,235.7 85.53,236.45 85.89,236.95C86.16,237.33 86.51,237.46 86.79,237.8C87.12,238.19 87.42,238.65 87.7,239.17C88.03,239.78 88.32,240.51 88.6,241.26C88.92,242.12 89.22,243.07 89.51,244.05C89.83,245.13 90.12,246.3 90.41,247.5C90.72,248.79 91.03,250.15 91.32,251.53C91.63,252.99 91.93,254.51 92.22,256.05C92.53,257.64 92.82,259.28 93.12,260.92C93.42,262.58 93.73,264.28 94.03,265.95C94.33,267.6 94.62,269.29 94.93,270.89C95.22,272.42 95.52,273.99 95.84,275.37C96.12,276.58 96.32,278 96.74,278.75C97,279.2 97.37,279.74 97.64,279.69C98.01,279.62 98.28,278.25 98.55,277.32C98.91,276.07 99.17,274.4 99.45,272.79C99.77,270.96 100.07,268.94 100.36,266.9C100.67,264.7 100.97,262.39 101.26,260.05C101.57,257.6 101.86,255.07 102.16,252.53C102.47,249.92 102.77,247.26 103.07,244.6C103.37,241.92 103.67,239.21 103.97,236.52C104.27,233.84 104.58,231.16 104.88,228.51C105.18,225.9 105.48,223.3 105.78,220.74C106.08,218.25 106.37,215.78 106.68,213.37C106.98,211.05 107.28,208.76 107.59,206.54C107.88,204.42 108.18,202.34 108.49,200.34C108.78,198.46 109.09,196.63 109.4,194.88C109.69,193.26 109.98,191.69 110.3,190.22C110.59,188.89 110.89,187.6 111.21,186.42C111.49,185.39 111.78,184.39 112.11,183.53C112.39,182.81 112.66,182.1 113.01,181.58C113.28,181.17 113.58,180.75 113.92,180.6C114.2,180.48 114.54,180.48 114.82,180.6C115.16,180.75 115.46,181.17 115.73,181.58C116.08,182.1 116.35,182.81 116.63,183.53C116.96,184.39 117.25,185.39 117.53,186.42C117.85,187.6 118.15,188.89 118.44,190.22C118.76,191.69 119.05,193.26 119.34,194.88C119.65,196.63 119.96,198.46 120.25,200.34C120.56,202.34 120.86,204.42 121.15,206.53C121.46,208.75 121.75,211.03 122.05,213.35C122.36,215.76 122.66,218.22 122.96,220.71C123.27,223.26 123.56,225.86 123.86,228.47C124.16,231.11 124.47,233.79 124.77,236.46C125.07,239.14 125.37,241.84 125.67,244.51C125.97,247.14 126.27,249.79 126.58,252.36C126.88,254.85 127.17,257.34 127.48,259.71C127.77,261.94 128.06,264.15 128.38,266.2C128.67,268.05 128.96,269.86 129.29,271.47C129.57,272.84 129.84,274.18 130.19,275.25C130.46,276.07 130.7,276.98 131.1,277.37C131.36,277.63 131.73,277.83 132,277.74C132.36,277.62 132.64,276.86 132.9,276.24C133.27,275.37 133.53,274.13 133.81,272.9C134.15,271.42 134.42,269.69 134.71,267.95C135.03,266.02 135.33,263.92 135.62,261.81C135.93,259.58 136.22,257.25 136.52,254.93C136.82,252.55 137.12,250.1 137.42,247.68C137.72,245.24 138.03,242.78 138.33,240.35C138.63,237.94 138.92,235.54 139.23,233.17C139.53,230.85 139.83,228.55 140.14,226.3C140.44,224.13 140.73,221.98 141.04,219.89C141.34,217.9 141.64,215.94 141.95,214.05C142.24,212.27 142.54,210.52 142.85,208.85C143.14,207.3 143.43,205.78 143.75,204.36C144.04,203.06 144.34,201.8 144.66,200.64C144.95,199.6 145.23,198.6 145.56,197.71C145.84,196.94 146.13,196.2 146.47,195.6C146.75,195.11 147.03,194.62 147.37,194.33C147.64,194.1 147.97,193.9 148.27,193.89C148.57,193.88 148.9,194.07 149.18,194.29C149.52,194.56 149.8,195.03 150.08,195.5C150.42,196.07 150.71,196.77 150.99,197.5C151.32,198.34 151.6,199.28 151.89,200.26C152.21,201.35 152.5,202.52 152.79,203.73C153.11,205.05 153.41,206.45 153.7,207.88C154.01,209.41 154.31,211.01 154.6,212.64C154.91,214.36 155.21,216.13 155.51,217.94C155.82,219.82 156.11,221.75 156.41,223.71C156.72,225.73 157.02,227.8 157.32,229.88C157.63,232.01 157.92,234.18 158.22,236.35C158.52,238.56 158.82,240.79 159.12,243.02C159.42,245.27 159.73,247.54 160.03,249.8C160.33,252.06 160.63,254.32 160.93,256.57C161.23,258.8 161.54,261.03 161.84,263.24C162.14,265.42 162.44,267.59 162.74,269.73C163.04,271.83 163.33,273.9 163.64,275.95C163.94,277.95 164.24,279.92 164.55,281.86C164.85,283.73 165.14,285.59 165.45,287.39C165.75,289.12 166.05,290.83 166.36,292.46C166.65,293.99 166.94,295.51 167.26,296.9C167.55,298.16 167.72,300.34 168.16,300.46C168.42,300.53 168.81,300.03 169.07,299.58C169.51,298.81 169.68,297.19 169.97,295.91C170.29,294.51 170.59,293 170.88,291.48C171.19,289.88 171.48,288.22 171.78,286.56C172.08,284.85 172.38,283.11 172.68,281.37C172.98,279.6 173.29,277.8 173.59,276.01C173.89,274.21 174.19,272.39 174.49,270.58C174.79,268.76 175.1,266.93 175.4,265.12C175.7,263.32 176,261.51 176.3,259.72C176.6,257.94 176.91,256.16 177.21,254.4C177.51,252.66 177.81,250.94 178.11,249.23C178.41,247.55 178.7,245.88 179.01,244.24C179.31,242.63 179.61,241.04 179.92,239.47C180.22,237.94 180.51,236.43 180.82,234.94C181.12,233.49 181.42,232.06 181.73,230.66C182.03,229.3 182.32,227.96 182.63,226.65C182.93,225.38 183.22,224.13 183.53,222.91C183.83,221.73 184.13,220.57 184.44,219.44C184.74,218.35 185.03,217.28 185.34,216.24C185.64,215.24 185.94,214.26 186.25,213.3C186.55,212.38 186.84,211.49 187.15,210.62C187.44,209.79 187.74,208.98 188.05,208.19C188.35,207.44 188.65,206.7 188.96,205.99C189.25,205.31 189.55,204.65 189.86,204.02C190.16,203.42 190.46,202.83 190.77,202.27C191.07,201.73 191.36,201.2 191.67,200.7C191.97,200.22 192.27,199.75 192.58,199.3C192.88,198.87 193.17,198.46 193.48,198.07C193.77,197.69 194.07,197.32 194.38,196.97C194.68,196.63 194.98,196.31 195.29,196C195.59,195.7 195.88,195.42 196.19,195.15C196.49,194.89 196.79,194.65 197.1,194.43C197.4,194.22 197.69,194.01 198,193.84C198.29,193.68 198.59,193.53 198.9,193.42C199.2,193.32 199.51,193.24 199.81,193.2C200.11,193.16 200.41,193.15 200.71,193.19C201.02,193.23 201.33,193.32 201.62,193.45C201.93,193.58 202.23,193.77 202.52,193.99C202.83,194.23 203.13,194.53 203.42,194.85C203.74,195.21 204.04,195.61 204.33,196.05C204.65,196.52 204.94,197.05 205.23,197.6C205.55,198.2 205.85,198.84 206.14,199.51C206.45,200.23 206.75,200.99 207.04,201.78C207.35,202.62 207.66,203.49 207.95,204.39C208.26,205.34 208.56,206.32 208.85,207.32C209.16,208.36 209.45,209.43 209.75,210.52C210.06,211.64 210.36,212.8 210.66,213.96C210.96,215.14 211.26,216.35 211.56,217.55C211.86,218.77 212.17,220 212.47,221.22C212.77,222.44 213.07,223.67 213.37,224.87C213.67,226.05 213.96,227.23 214.27,228.38C214.57,229.49 214.87,230.59 215.18,231.65C215.47,232.65 215.77,233.63 216.08,234.55C216.37,235.4 216.67,236.22 216.99,236.97C217.28,237.64 217.56,238.28 217.89,238.82C218.17,239.28 218.45,239.74 218.79,240.01C219.07,240.23 219.4,240.43 219.7,240.43C220,240.43 220.33,240.26 220.6,240.04C220.95,239.76 221.23,239.27 221.51,238.77C221.85,238.16 222.13,237.4 222.41,236.62C222.74,235.71 223.03,234.68 223.32,233.62C223.64,232.44 223.93,231.16 224.22,229.85C224.53,228.42 224.83,226.91 225.12,225.37C225.43,223.73 225.73,222.03 226.03,220.3C226.34,218.49 226.63,216.61 226.93,214.72C227.24,212.76 227.54,210.75 227.84,208.72C228.15,206.64 228.44,204.53 228.74,202.4C229.04,200.24 229.34,198.04 229.64,195.85C229.94,193.64 230.25,191.41 230.55,189.18C230.85,186.94 231.15,184.69 231.45,182.46C231.75,180.24 232.06,178.01 232.36,175.81C232.66,173.63 232.96,171.46 233.26,169.31C233.56,167.2 233.85,165.11 234.16,163.05C234.46,161.04 234.76,159.06 235.07,157.11C235.37,155.23 235.66,153.37 235.97,151.56C236.27,149.82 236.57,148.11 236.88,146.46C237.17,144.89 237.47,143.35 237.78,141.87C238.07,140.48 238.37,139.11 238.68,137.82C238.97,136.62 239.27,135.45 239.59,134.36C239.88,133.36 240.17,132.4 240.49,131.51C240.78,130.71 241.07,129.95 241.4,129.28C241.68,128.7 241.97,128.14 242.3,127.7C242.58,127.33 242.88,126.97 243.21,126.76C243.49,126.58 243.81,126.46 244.11,126.46C244.41,126.46 244.73,126.61 245.01,126.79C245.34,127 245.64,127.36 245.92,127.73C246.25,128.16 246.54,128.71 246.82,129.27C247.14,129.91 247.44,130.63 247.73,131.38C248.05,132.21 248.34,133.1 248.63,134.03C248.94,135.04 249.24,136.11 249.53,137.21C249.84,138.38 250.15,139.6 250.44,140.86C250.75,142.19 251.05,143.57 251.34,144.98C251.65,146.46 251.95,147.97 252.25,149.52C252.56,151.13 252.86,152.78 253.15,154.46C253.46,156.2 253.75,157.97 254.05,159.77C254.36,161.62 254.66,163.5 254.96,165.41C255.27,167.37 255.56,169.36 255.86,171.37C256.17,173.43 256.47,175.51 256.77,177.61C257.07,179.76 257.37,181.93 257.67,184.12C257.97,186.34 258.28,188.59 258.58,190.85C258.88,193.15 259.18,195.46 259.48,197.79C259.78,200.14 260.08,202.51 260.38,204.89C260.68,207.29 260.99,209.71 261.29,212.13C261.59,214.56 261.89,217.01 262.19,219.45C262.49,221.89 262.8,224.34 263.1,226.77C263.4,229.17 263.69,231.61 264,233.95C264.29,236.19 264.55,238.61 264.9,240.54C265.17,242.07 265.35,244.49 265.81,244.62C266.06,244.69 266.45,244.16 266.71,243.73C267.13,243.03 267.33,241.66 267.62,240.55C267.94,239.34 268.23,238.03 268.52,236.73C268.83,235.37 269.12,233.98 269.42,232.57C269.73,231.11 270.03,229.62 270.33,228.1C270.64,226.51 270.94,224.88 271.23,223.21C271.54,221.45 271.85,219.65 272.14,217.79C272.45,215.83 272.75,213.8 273.04,211.73C273.35,209.55 273.65,207.3 273.95,205.03C274.26,202.68 274.55,200.26 274.85,197.85C275.15,195.39 275.45,192.9 275.75,190.42C276.05,187.93 276.36,185.42 276.66,182.94C276.96,180.48 277.26,178.03 277.56,175.61C277.86,173.23 278.16,170.87 278.47,168.55C278.77,166.29 279.06,164.06 279.37,161.87C279.66,159.76 279.96,157.68 280.27,155.66C280.57,153.72 280.87,151.82 281.18,149.98C281.47,148.23 281.77,146.52 282.08,144.88C282.37,143.34 282.68,141.84 282.99,140.41C283.28,139.09 283.57,137.8 283.89,136.6C284.18,135.5 284.47,134.45 284.79,133.48C285.08,132.62 285.37,131.79 285.7,131.06C285.98,130.43 286.27,129.82 286.6,129.35C286.88,128.95 287.18,128.57 287.51,128.36C287.79,128.18 288.11,128.06 288.41,128.08C288.72,128.1 289.04,128.28 289.32,128.5C289.65,128.76 289.94,129.17 290.22,129.59C290.55,130.09 290.84,130.69 291.12,131.32C291.44,132.03 291.74,132.83 292.03,133.66C292.35,134.57 292.64,135.56 292.93,136.57C293.24,137.66 293.55,138.8 293.84,139.98C294.15,141.23 294.45,142.53 294.74,143.85C295.05,145.23 295.34,146.65 295.64,148.09C295.95,149.58 296.25,151.12 296.55,152.66C296.86,154.24 297.15,155.85 297.45,157.46C297.75,159.1 298.06,160.77 298.36,162.43C298.66,164.11 298.96,165.8 299.26,167.49C299.56,169.18 299.86,170.88 300.16,172.57C300.46,174.25 300.77,175.94 301.07,177.61C301.37,179.26 301.67,180.9 301.97,182.52C302.27,184.12 302.57,185.71 302.88,187.27C303.18,188.8 303.48,190.31 303.78,191.79C304.08,193.22 304.37,194.64 304.68,196.02C304.98,197.35 305.28,198.65 305.59,199.92C305.88,201.13 306.18,202.32 306.49,203.46C306.78,204.54 307.09,205.59 307.4,206.59C307.69,207.53 307.99,208.43 308.3,209.29C308.59,210.08 308.89,210.84 309.21,211.55C309.5,212.2 309.79,212.81 310.11,213.37C310.4,213.87 310.69,214.35 311.01,214.75C311.3,215.11 311.6,215.43 311.92,215.68C312.21,215.9 312.51,216.09 312.82,216.19C313.11,216.28 313.43,216.32 313.73,216.29C314.03,216.26 314.34,216.15 314.63,216.02C314.94,215.88 315.24,215.67 315.53,215.45C315.84,215.21 316.14,214.92 316.44,214.63C316.75,214.32 317.04,213.99 317.34,213.65C317.65,213.3 317.95,212.93 318.25,212.57C318.55,212.21 318.85,211.84 319.15,211.48C319.45,211.13 319.75,210.77 320.05,210.43C320.35,210.1 320.65,209.77 320.96,209.46C321.26,209.16 321.55,208.87 321.86,208.6C322.16,208.34 322.46,208.1 322.77,207.87C323.07,207.65 323.37,207.44 323.67,207.25C323.97,207.06 324.28,206.9 324.58,206.73C324.88,206.57 325.18,206.42 325.48,206.26C325.78,206.1 326.08,205.95 326.38,205.79C326.68,205.63 326.99,205.46 327.29,205.28C327.59,205.09 327.89,204.9 328.19,204.68C328.5,204.45 328.8,204.21 329.1,203.94C329.41,203.66 329.71,203.37 330,203.05C330.31,202.72 330.6,202.37 330.9,202C331.21,201.62 331.51,201.21 331.81,200.8C332.11,200.38 332.41,199.95 332.71,199.52C333.01,199.08 333.32,198.63 333.62,198.19C333.92,197.76 334.22,197.33 334.52,196.91C334.82,196.51 335.11,196.1 335.42,195.73C335.72,195.38 336.02,195.03 336.33,194.73C336.62,194.45 336.92,194.18 337.23,193.97C337.52,193.78 337.83,193.61 338.14,193.51C338.43,193.42 338.74,193.37 339.04,193.39C339.34,193.41 339.66,193.51 339.95,193.65C340.26,193.8 340.56,194.03 340.85,194.29C341.17,194.58 341.46,194.94 341.75,195.32C342.07,195.74 342.37,196.23 342.66,196.73C342.98,197.28 343.27,197.88 343.56,198.49C343.87,199.15 344.18,199.84 344.47,200.55C344.78,201.3 345.07,202.08 345.37,202.87C345.67,203.68 345.97,204.52 346.27,205.36C346.57,206.21 346.88,207.09 347.18,207.95C347.48,208.81 347.78,209.69 348.08,210.54C348.38,211.38 348.68,212.21 348.99,213.02C349.29,213.8 349.58,214.57 349.89,215.29C350.18,215.97 350.47,216.64 350.79,217.24C351.08,217.79 351.38,218.33 351.7,218.78C351.98,219.18 352.27,219.57 352.6,219.84C352.88,220.08 353.2,220.3 353.51,220.38C353.8,220.46 354.12,220.46 354.41,220.37C354.73,220.28 355.04,220.05 355.32,219.79C355.65,219.49 355.94,219.08 356.22,218.64C356.55,218.13 356.83,217.53 357.12,216.9C357.44,216.19 357.74,215.41 358.03,214.59C358.35,213.68 358.64,212.7 358.93,211.67C359.25,210.54 359.56,209.36 359.84,208.07C360.17,206.59 360.46,205.04 360.74,203.27C361.08,201.11 361.35,198.54 361.64,196.02C361.96,193.27 362.25,190.28 362.55,187.37C362.85,184.4 363.15,181.38 363.45,178.37C363.75,175.35 364.06,172.31 364.36,169.28C364.66,166.26 364.96,163.23 365.26,160.22C365.56,157.22 365.86,154.23 366.16,151.26C366.46,148.32 366.77,145.38 367.07,142.47C367.37,139.59 367.67,136.73 367.97,133.89C368.27,131.09 368.58,128.31 368.88,125.55C369.18,122.84 369.48,120.14 369.78,117.47C370.08,114.84 370.38,112.24 370.68,109.66C370.98,107.12 371.29,104.61 371.59,102.12C371.89,99.67 372.19,97.25 372.49,94.85C372.79,92.49 373.1,90.16 373.4,87.85C373.7,85.59 374,83.35 374.3,81.13C374.6,78.96 374.9,76.8 375.21,74.68C375.51,72.61 375.81,70.56 376.11,68.54C376.41,66.58 376.7,64.63 377.01,62.73C377.31,60.89 377.61,59.07 377.92,57.29C378.22,55.58 378.51,53.89 378.82,52.25C379.12,50.68 379.42,49.15 379.73,47.66C380.02,46.25 380.32,44.88 380.63,43.56C380.92,42.33 381.21,41.14 381.53,40.01C381.82,38.97 382.12,37.96 382.44,37.04C382.73,36.21 383.01,35.41 383.34,34.71C383.62,34.1 383.92,33.51 384.25,33.05C384.53,32.67 384.82,32.28 385.15,32.09C385.43,31.93 385.76,31.83 386.05,31.88C386.36,31.93 386.68,32.17 386.96,32.43C387.3,32.75 387.58,33.26 387.86,33.77C388.19,34.39 388.49,35.13 388.77,35.91C389.1,36.81 389.38,37.82 389.67,38.87C389.99,40.05 390.29,41.33 390.58,42.66C390.9,44.12 391.19,45.67 391.48,47.27C391.79,49 392.09,50.82 392.38,52.69C392.69,54.69 393,56.78 393.29,58.92C393.6,61.19 393.9,63.54 394.19,65.94C394.5,68.47 394.8,71.07 395.1,73.72C395.41,76.49 395.71,79.34 396,82.23C396.31,85.24 396.6,88.31 396.9,91.43C397.21,94.66 397.51,97.95 397.81,101.29C398.12,104.72 398.41,108.22 398.71,111.75C399.02,115.37 399.32,119.04 399.62,122.75C399.92,126.54 400.22,130.37 400.52,134.23C400.82,138.16 401.12,142.13 401.42,146.12C401.72,150.17 402.03,154.25 402.33,158.34C402.63,162.47 402.93,166.62 403.23,170.78C403.53,174.96 403.84,179.16 404.14,183.34C404.44,187.52 404.74,191.71 405.04,195.87C405.34,199.99 405.64,204.17 405.95,208.18C406.25,212.01 406.48,216.33 406.85,219.43C407.11,221.63 407.43,223.25 407.75,225.04C408.04,226.68 408.35,228.24 408.66,229.76C408.95,231.19 409.25,232.58 409.56,233.92C409.85,235.19 410.16,236.4 410.47,237.6C410.77,238.75 411.07,239.85 411.37,240.96C411.67,242.05 411.97,243.12 412.27,244.2C412.57,245.29 412.88,246.38 413.18,247.48C413.48,248.6 413.78,249.74 414.08,250.89C414.39,252.07 414.69,253.26 414.99,254.48C415.3,255.73 415.59,257.01 415.89,258.3C416.19,259.63 416.49,260.98 416.79,262.34C417.09,263.73 417.4,265.15 417.7,266.55C418,267.94 418.26,269.49 418.6,270.7C418.88,271.67 419.23,273.29 419.51,273.28C419.84,273.27 420.14,271.09 420.41,269.75C420.76,268.02 421.02,265.73 421.32,263.74C421.62,261.78 421.91,259.8 422.22,257.91C422.51,256.11 422.81,254.34 423.12,252.65C423.41,251.07 423.71,249.53 424.03,248.07C424.32,246.73 424.61,245.43 424.93,244.22C425.22,243.12 425.52,242.07 425.84,241.11C426.12,240.26 426.41,239.45 426.74,238.75C427.02,238.15 427.3,237.57 427.64,237.13C427.92,236.76 428.22,236.42 428.55,236.24C428.83,236.09 429.16,236 429.45,236.04C429.76,236.08 430.08,236.28 430.36,236.5C430.69,236.76 430.98,237.15 431.26,237.55C431.58,238 431.87,238.55 432.16,239.1C432.48,239.7 432.77,240.35 433.07,241.01C433.38,241.69 433.67,242.42 433.97,243.12C434.27,243.81 434.57,244.52 434.88,245.19C435.18,245.83 435.47,246.46 435.78,247.06C436.07,247.63 436.37,248.17 436.68,248.7C436.98,249.21 437.29,249.7 437.59,250.2C437.89,250.71 438.19,251.21 438.49,251.74C438.8,252.29 439.11,252.85 439.4,253.44C439.71,254.06 440.01,254.7 440.3,255.37C440.61,256.08 440.92,256.82 441.21,257.58C441.52,258.38 441.82,259.22 442.11,260.07C442.42,260.96 442.71,261.88 443.01,262.82C443.32,263.8 443.62,264.8 443.92,265.82C444.23,266.87 444.52,267.95 444.82,269.04C445.13,270.16 445.43,271.29 445.73,272.44C446.03,273.61 446.33,274.8 446.63,275.98C446.93,277.16 447.25,279.51 447.53,279.5C447.87,279.49 448.15,275.95 448.44,274.04C448.76,271.93 449.04,269.56 449.34,267.35C449.64,265.16 449.95,262.99 450.25,260.84C450.55,258.73 450.85,256.63 451.15,254.56C451.45,252.54 451.74,250.54 452.05,248.57C452.35,246.66 452.65,244.78 452.96,242.93C453.26,241.15 453.55,239.38 453.86,237.67C454.16,236.02 454.46,234.41 454.77,232.84C455.06,231.35 455.36,229.88 455.67,228.47C455.96,227.14 456.27,225.84 456.58,224.59C456.87,223.42 457.17,222.29 457.48,221.21C457.77,220.21 458.06,219.25 458.38,218.35C458.67,217.52 458.97,216.73 459.29,216C459.58,215.35 459.87,214.72 460.19,214.18C460.48,213.7 460.77,213.25 461.1,212.89Q461.38,212.58 462,212.11" style="vector-effect: non-scaling-stroke; fill: none; stroke: rgb(231, 107, 243); stroke-opacity: 1; stroke-width: 2px; opacity: 1;"/></g><g class="points"/><g class="text"/></g></g></g><g class="overplot"/><path class="xlines-above crisp" d="M0,0" style="fill: none;"/><path class="ylines-above crisp" d="M0,0" style="fill: none;"/><g class="overlines-above"/><g class="xaxislayer-above"><g class="xtick"><text text-anchor="middle" x="0" y="433" transform="translate(80,0)" style="font-family: 'Open Sans', verdana, arial, sans-serif; font-size: 12px; fill: rgb(42, 63, 95); fill-opacity: 1; white-space: pre;">0</text></g><g class="xtick"><text text-anchor="middle" x="0" y="433" transform="translate(170.23000000000002,0)" style="font-family: 'Open Sans', verdana, arial, sans-serif; font-size: 12px; fill: rgb(42, 63, 95); fill-opacity: 1; white-space: pre;">100</text></g><g class="xtick"><text text-anchor="middle" x="0" y="433" transform="translate(260.47,0)" style="font-family: 'Open Sans', verdana, arial, sans-serif; font-size: 12px; fill: rgb(42, 63, 95); fill-opacity: 1; white-space: pre;">200</text></g><g class="xtick"><text text-anchor="middle" x="0" y="433" transform="translate(350.7,0)" style="font-family: 'Open Sans', verdana, arial, sans-serif; font-size: 12px; fill: rgb(42, 63, 95); fill-opacity: 1; white-space: pre;">300</text></g><g class="xtick"><text text-anchor="middle" x="0" y="433" transform="translate(440.94,0)" style="font-family: 'Open Sans', verdana, arial, sans-serif; font-size: 12px; fill: rgb(42, 63, 95); fill-opacity: 1; white-space: pre;">400</text></g><g class="xtick"><text text-anchor="middle" x="0" y="433" transform="translate(531.1700000000001,0)" style="font-family: 'Open Sans', verdana, arial, sans-serif; font-size: 12px; fill: rgb(42, 63, 95); fill-opacity: 1; white-space: pre;">500</text></g></g><g class="yaxislayer-above"><g class="ytick"><text text-anchor="end" x="79" y="4.199999999999999" transform="translate(0,391.18)" style="font-family: 'Open Sans', verdana, arial, sans-serif; font-size: 12px; fill: rgb(42, 63, 95); fill-opacity: 1; white-space: pre;">200</text></g><g class="ytick"><text text-anchor="end" x="79" y="4.199999999999999" transform="translate(0,331.18)" style="font-family: 'Open Sans', verdana, arial, sans-serif; font-size: 12px; fill: rgb(42, 63, 95); fill-opacity: 1; white-space: pre;">400</text></g><g class="ytick"><text text-anchor="end" x="79" y="4.199999999999999" transform="translate(0,271.19)" style="font-family: 'Open Sans', verdana, arial, sans-serif; font-size: 12px; fill: rgb(42, 63, 95); fill-opacity: 1; white-space: pre;">600</text></g><g class="ytick"><text text-anchor="end" x="79" y="4.199999999999999" transform="translate(0,211.19)" style="font-family: 'Open Sans', verdana, arial, sans-serif; font-size: 12px; fill: rgb(42, 63, 95); fill-opacity: 1; white-space: pre;">800</text></g><g class="ytick"><text text-anchor="end" x="79" y="4.199999999999999" transform="translate(0,151.2)" style="font-family: 'Open Sans', verdana, arial, sans-serif; font-size: 12px; fill: rgb(42, 63, 95); fill-opacity: 1; white-space: pre;">1000</text></g></g><g class="overaxes-above"/></g></g><g class="polarlayer"/><g class="ternarylayer"/><g class="geolayer"/><g class="funnelarealayer"/><g class="pielayer"/><g class="treemaplayer"/><g class="sunburstlayer"/><g class="glimages"/><defs id="topdefs-5ef11a"><g class="clips"/><clipPath id="legend5ef11a"><rect width="137" height="67" x="0" y="0"/></clipPath></defs><g class="layer-above"><g class="imagelayer"/><g class="shapelayer"/></g><g class="infolayer"><g class="legend" pointer-events="all" transform="translate(551.24, 100)"><rect class="bg" shape-rendering="crispEdges" width="137" height="67" x="0" y="0" style="stroke: rgb(68, 68, 68); stroke-opacity: 1; fill: rgb(255, 255, 255); fill-opacity: 1; stroke-width: 0px;"/><g class="scrollbox" transform="translate(0, 0)" clip-path="url('#legend5ef11a')"><g class="groups"><g class="traces" transform="translate(0, 14.5)" style="opacity: 1;"><text class="legendtext" text-anchor="start" x="40" y="4.680000000000001" style="font-family: 'Open Sans', verdana, arial, sans-serif; font-size: 12px; fill: rgb(42, 63, 95); fill-opacity: 1; white-space: pre;">Average Class I</text><g class="layers" style="opacity: 1;"><g class="legendfill"/><g class="legendlines"><path class="js-line" d="M5,0h30" style="fill: none; stroke: rgb(0, 100, 80); stroke-opacity: 1; stroke-width: 2px;"/></g><g class="legendsymbols"><g class="legendpoints"/></g></g><rect class="legendtoggle" x="0" y="-9.5" width="131.15625" height="19" style="fill: rgb(0, 0, 0); fill-opacity: 0;"/></g><g class="traces" transform="translate(0, 33.5)" style="opacity: 1;"><text class="legendtext" text-anchor="start" x="40" y="4.680000000000001" style="font-family: 'Open Sans', verdana, arial, sans-serif; font-size: 12px; fill: rgb(42, 63, 95); fill-opacity: 1; white-space: pre;">Average Class II</text><g class="layers" style="opacity: 1;"><g class="legendfill"/><g class="legendlines"><path class="js-line" d="M5,0h30" style="fill: none; stroke: rgb(0, 176, 246); stroke-opacity: 1; stroke-width: 2px;"/></g><g class="legendsymbols"><g class="legendpoints"/></g></g><rect class="legendtoggle" x="0" y="-9.5" width="131.15625" height="19" style="fill: rgb(0, 0, 0); fill-opacity: 0;"/></g><g class="traces" transform="translate(0, 52.5)" style="opacity: 1;"><text class="legendtext" text-anchor="start" x="40" y="4.680000000000001" style="font-family: 'Open Sans', verdana, arial, sans-serif; font-size: 12px; fill: rgb(42, 63, 95); fill-opacity: 1; white-space: pre;">Average Class III</text><g class="layers" style="opacity: 1;"><g class="legendfill"/><g class="legendlines"><path class="js-line" d="M5,0h30" style="fill: none; stroke: rgb(231, 107, 243); stroke-opacity: 1; stroke-width: 2px;"/></g><g class="legendsymbols"><g class="legendpoints"/></g></g><rect class="legendtoggle" x="0" y="-9.5" width="131.15625" height="19" style="fill: rgb(0, 0, 0); fill-opacity: 0;"/></g></g></g><rect class="scrollbar" rx="20" ry="3" width="0" height="0" x="0" y="0" style="fill: rgb(128, 139, 164); fill-opacity: 1;"/></g><g class="g-gtitle"><text class="gtitle" x="35" y="50" text-anchor="start" dy="0em" style="font-family: 'Open Sans', verdana, arial, sans-serif; font-size: 17px; fill: rgb(42, 63, 95); opacity: 1; font-weight: normal; white-space: pre;">Average curve: volume_group</text></g><g class="g-xtitle"><text class="xtitle" x="311" y="460.8" text-anchor="middle" style="font-family: 'Open Sans', verdana, arial, sans-serif; font-size: 14px; fill: rgb(42, 63, 95); opacity: 1; font-weight: normal; white-space: pre;">Domain</text></g><g class="g-ytitle"><text class="ytitle" transform="rotate(-90,27.496875000000003,260)" x="27.496875000000003" y="260" text-anchor="middle" style="font-family: 'Open Sans', verdana, arial, sans-serif; font-size: 14px; fill: rgb(42, 63, 95); opacity: 1; font-weight: normal; white-space: pre;">Frequency</text></g></g></svg>