<svg xmlns="http://www.w3.org/2000/svg" xmlns:xlink="http://www.w3.org/1999/xlink" version="1.1" width="732" height="2412" name="tree_result.svg" y="0" viewBox="0 0 732 2412">
<polyline points="732,2412 0,2412 0,0 732,0 732,2412" fill="white" />
<text x="552" y="37" fill="#000000" font-size="15" font-family="default" > sequence 84</text>
<polyline points="549,44 549,32 550,32" fill="none" stroke="#000000" stroke-width="1" stroke-linecap="square"/>
<text x="552" y="61" fill="#000000" font-size="15" font-family="default" > sequence 89</text>
<polyline points="549,45 549,56 550,56" fill="none" stroke="#000000" stroke-width="1" stroke-linecap="square"/>
<text x="552" y="85" fill="#000000" font-size="15" font-family="default" > sequence 75</text>
<polyline points="549,57 549,80 550,80" fill="none" stroke="#000000" stroke-width="1" stroke-linecap="square"/>
<text x="552" y="109" fill="#000000" font-size="15" font-family="default" > sequence 66</text>
<polyline points="549,69 549,104 550,104" fill="none" stroke="#000000" stroke-width="1" stroke-linecap="square"/>
<text x="552" y="133" fill="#000000" font-size="15" font-family="default" > sequence 64</text>
<polyline points="549,81 549,128 550,128" fill="none" stroke="#000000" stroke-width="1" stroke-linecap="square"/>
<text x="552" y="157" fill="#000000" font-size="15" font-family="default" > sequence 63</text>
<polyline points="549,93 549,152 550,152" fill="none" stroke="#000000" stroke-width="1" stroke-linecap="square"/>
<text x="552" y="181" fill="#000000" font-size="15" font-family="default" > sequence 52</text>
<polyline points="549,105 549,176 550,176" fill="none" stroke="#000000" stroke-width="1" stroke-linecap="square"/>
<text x="552" y="205" fill="#000000" font-size="15" font-family="default" > sequence 44</text>
<polyline points="549,117 549,200 550,200" fill="none" stroke="#000000" stroke-width="1" stroke-linecap="square"/>
<text x="552" y="229" fill="#000000" font-size="15" font-family="default" > sequence 43</text>
<polyline points="549,129 549,224 550,224" fill="none" stroke="#000000" stroke-width="1" stroke-linecap="square"/>
<text x="552" y="253" fill="#000000" font-size="15" font-family="default" > sequence 39</text>
<polyline points="549,141 549,248 550,248" fill="none" stroke="#000000" stroke-width="1" stroke-linecap="square"/>
<text x="552" y="277" fill="#000000" font-size="15" font-family="default" > sequence 37</text>
<polyline points="549,153 549,272 550,272" fill="none" stroke="#000000" stroke-width="1" stroke-linecap="square"/>
<text x="552" y="301" fill="#000000" font-size="15" font-family="default" > sequence 31</text>
<polyline points="549,165 549,296 550,296" fill="none" stroke="#000000" stroke-width="1" stroke-linecap="square"/>
<text x="552" y="325" fill="#000000" font-size="15" font-family="default" > sequence 14</text>
<polyline points="549,177 549,320 550,320" fill="none" stroke="#000000" stroke-width="1" stroke-linecap="square"/>
<text x="552" y="349" fill="#000000" font-size="15" font-family="default" > sequence 8</text>
<polyline points="549,189 549,344 550,344" fill="none" stroke="#000000" stroke-width="1" stroke-linecap="square"/>
<text x="552" y="373" fill="#000000" font-size="15" font-family="default" > sequence 2</text>
<polyline points="549,201 549,368 550,368" fill="none" stroke="#000000" stroke-width="1" stroke-linecap="square"/>
<text x="552" y="397" fill="#000000" font-size="15" font-family="default" > sequence 95</text>
<polyline points="549,213 549,392 550,392" fill="none" stroke="#000000" stroke-width="1" stroke-linecap="square"/>
<text x="552" y="421" fill="#000000" font-size="15" font-family="default" > sequence 19</text>
<polyline points="549,225 549,416 550,416" fill="none" stroke="#000000" stroke-width="1" stroke-linecap="square"/>
<text x="552" y="445" fill="#000000" font-size="15" font-family="default" > sequence 85</text>
<polyline points="549,237 549,440 550,440" fill="none" stroke="#000000" stroke-width="1" stroke-linecap="square"/>
<line x1="549" y1="33" x2="549" y2="238" stroke="#000000" stroke-width="1" stroke-linecap="square"/>
<polyline points="548,350 548,236 549,236" fill="none" stroke="#000000" stroke-width="1" stroke-linecap="square"/>
<text x="550" y="469" fill="#000000" font-size="15" font-family="default" > sequence 77</text>
<polyline points="548,351 548,464 548,464" fill="none" stroke="#000000" stroke-width="1" stroke-linecap="square"/>
<text x="550" y="493" fill="#000000" font-size="15" font-family="default" > sequence 81</text>
<polyline points="548,500 548,488 548,488" fill="none" stroke="#000000" stroke-width="1" stroke-linecap="square"/>
<text x="551" y="517" fill="#000000" font-size="15" font-family="default" > sequence 86</text>
<polyline points="548,501 548,512 549,512" fill="none" stroke="#000000" stroke-width="1" stroke-linecap="square"/>
<text x="564" y="541" fill="#000000" font-size="15" font-family="default" > sequence 25</text>
<polyline points="558,566 558,536 562,536" fill="none" stroke="#000000" stroke-width="1" stroke-linecap="square"/>
<text x="572" y="565" fill="#000000" font-size="15" font-family="default" > sequence 9</text>
<polyline points="561,572 561,560 570,560" fill="none" stroke="#000000" stroke-width="1" stroke-linecap="square"/>
<text x="569" y="589" fill="#000000" font-size="15" font-family="default" > sequence 26</text>
<polyline points="561,573 561,584 567,584" fill="none" stroke="#000000" stroke-width="1" stroke-linecap="square"/>
<polyline points="559,596 559,572 561,572" fill="none" stroke="#000000" stroke-width="1" stroke-linecap="square"/>
<text x="563" y="613" fill="#000000" font-size="15" font-family="default" > sequence 21</text>
<polyline points="561,620 561,608 561,608" fill="none" stroke="#000000" stroke-width="1" stroke-linecap="square"/>
<text x="564" y="637" fill="#000000" font-size="15" font-family="default" > sequence 69</text>
<polyline points="561,621 561,632 562,632" fill="none" stroke="#000000" stroke-width="1" stroke-linecap="square"/>
<polyline points="559,597 559,620 561,620" fill="none" stroke="#000000" stroke-width="1" stroke-linecap="square"/>
<polyline points="558,567 558,596 559,596" fill="none" stroke="#000000" stroke-width="1" stroke-linecap="square"/>
<polyline points="548,528 548,566 558,566" fill="none" stroke="#000000" stroke-width="1" stroke-linecap="square"/>
<text x="550" y="661" fill="#000000" font-size="15" font-family="default" > sequence 73</text>
<polyline points="548,680 548,656 548,656" fill="none" stroke="#000000" stroke-width="1" stroke-linecap="square"/>
<text x="551" y="685" fill="#000000" font-size="15" font-family="default" > sequence 76</text>
<polyline points="548,692 548,680 549,680" fill="none" stroke="#000000" stroke-width="1" stroke-linecap="square"/>
<text x="550" y="709" fill="#000000" font-size="15" font-family="default" > sequence 88</text>
<polyline points="548,693 548,704 548,704" fill="none" stroke="#000000" stroke-width="1" stroke-linecap="square"/>
<text x="550" y="733" fill="#000000" font-size="15" font-family="default" > sequence 71</text>
<polyline points="548,483 548,728 548,728" fill="none" stroke="#000000" stroke-width="1" stroke-linecap="square"/>
<text x="551" y="757" fill="#000000" font-size="15" font-family="default" > sequence 35</text>
<polyline points="549,764 549,752 549,752" fill="none" stroke="#000000" stroke-width="1" stroke-linecap="square"/>
<text x="552" y="781" fill="#000000" font-size="15" font-family="default" > sequence 67</text>
<polyline points="549,765 549,776 550,776" fill="none" stroke="#000000" stroke-width="1" stroke-linecap="square"/>
<polyline points="548,501 548,764 549,764" fill="none" stroke="#000000" stroke-width="1" stroke-linecap="square"/>
<text x="551" y="805" fill="#000000" font-size="15" font-family="default" > sequence 30</text>
<polyline points="548,519 548,800 549,800" fill="none" stroke="#000000" stroke-width="1" stroke-linecap="square"/>
<text x="551" y="829" fill="#000000" font-size="15" font-family="default" > sequence 12</text>
<polyline points="548,531 548,824 549,824" fill="none" stroke="#000000" stroke-width="1" stroke-linecap="square"/>
<text x="551" y="853" fill="#000000" font-size="15" font-family="default" > sequence 32</text>
<polyline points="548,543 548,848 549,848" fill="none" stroke="#000000" stroke-width="1" stroke-linecap="square"/>
<text x="551" y="877" fill="#000000" font-size="15" font-family="default" > sequence 60</text>
<polyline points="548,555 548,872 549,872" fill="none" stroke="#000000" stroke-width="1" stroke-linecap="square"/>
<text x="551" y="901" fill="#000000" font-size="15" font-family="default" > sequence 10</text>
<polyline points="548,567 548,896 549,896" fill="none" stroke="#000000" stroke-width="1" stroke-linecap="square"/>
<text x="551" y="925" fill="#000000" font-size="15" font-family="default" > sequence 34</text>
<polyline points="548,1022 548,920 549,920" fill="none" stroke="#000000" stroke-width="1" stroke-linecap="square"/>
<text x="550" y="949" fill="#000000" font-size="15" font-family="default" > sequence 90</text>
<polyline points="548,1034 548,944 548,944" fill="none" stroke="#000000" stroke-width="1" stroke-linecap="square"/>
<text x="550" y="973" fill="#000000" font-size="15" font-family="default" > sequence 79</text>
<polyline points="548,1046 548,968 548,968" fill="none" stroke="#000000" stroke-width="1" stroke-linecap="square"/>
<text x="550" y="997" fill="#000000" font-size="15" font-family="default" > sequence 48</text>
<polyline points="548,1058 548,992 548,992" fill="none" stroke="#000000" stroke-width="1" stroke-linecap="square"/>
<text x="550" y="1021" fill="#000000" font-size="15" font-family="default" > sequence 22</text>
<polyline points="548,1070 548,1016 548,1016" fill="none" stroke="#000000" stroke-width="1" stroke-linecap="square"/>
<text x="550" y="1045" fill="#000000" font-size="15" font-family="default" > sequence 38</text>
<polyline points="548,1082 548,1040 548,1040" fill="none" stroke="#000000" stroke-width="1" stroke-linecap="square"/>
<text x="550" y="1069" fill="#000000" font-size="15" font-family="default" > sequence 94</text>
<polyline points="548,1094 548,1064 548,1064" fill="none" stroke="#000000" stroke-width="1" stroke-linecap="square"/>
<text x="550" y="1093" fill="#000000" font-size="15" font-family="default" > sequence 56</text>
<polyline points="548,1106 548,1088 548,1088" fill="none" stroke="#000000" stroke-width="1" stroke-linecap="square"/>
<text x="551" y="1117" fill="#000000" font-size="15" font-family="default" > sequence 4</text>
<polyline points="549,1124 549,1112 549,1112" fill="none" stroke="#000000" stroke-width="1" stroke-linecap="square"/>
<text x="551" y="1141" fill="#000000" font-size="15" font-family="default" > sequence 59</text>
<polyline points="549,1125 549,1136 549,1136" fill="none" stroke="#000000" stroke-width="1" stroke-linecap="square"/>
<polyline points="548,1107 548,1124 549,1124" fill="none" stroke="#000000" stroke-width="1" stroke-linecap="square"/>
<line x1="548" y1="237" x2="548" y2="682" stroke="#000000" stroke-width="1" stroke-linecap="square"/>
<line x1="548" y1="680" x2="548" y2="1124" stroke="#000000" stroke-width="1" stroke-linecap="square"/>
<polyline points="547,920 547,680 548,680" fill="none" stroke="#000000" stroke-width="1" stroke-linecap="square"/>
<text x="550" y="1165" fill="#000000" font-size="15" font-family="default" > sequence 49</text>
<polyline points="547,921 547,1160 548,1160" fill="none" stroke="#000000" stroke-width="1" stroke-linecap="square"/>
<text x="549" y="1189" fill="#000000" font-size="15" font-family="default" > sequence 78</text>
<polyline points="547,933 547,1184 547,1184" fill="none" stroke="#000000" stroke-width="1" stroke-linecap="square"/>
<text x="549" y="1213" fill="#000000" font-size="15" font-family="default" > sequence 92</text>
<polyline points="547,1340 547,1208 547,1208" fill="none" stroke="#000000" stroke-width="1" stroke-linecap="square"/>
<text x="550" y="1237" fill="#000000" font-size="15" font-family="default" > sequence 1</text>
<polyline points="547,1244 547,1232 548,1232" fill="none" stroke="#000000" stroke-width="1" stroke-linecap="square"/>
<text x="549" y="1261" fill="#000000" font-size="15" font-family="default" > sequence 83</text>
<polyline points="547,1245 547,1256 547,1256" fill="none" stroke="#000000" stroke-width="1" stroke-linecap="square"/>
<text x="550" y="1285" fill="#000000" font-size="15" font-family="default" > sequence 15</text>
<polyline points="547,1292 547,1280 548,1280" fill="none" stroke="#000000" stroke-width="1" stroke-linecap="square"/>
<text x="549" y="1309" fill="#000000" font-size="15" font-family="default" > sequence 91</text>
<polyline points="547,1293 547,1304 547,1304" fill="none" stroke="#000000" stroke-width="1" stroke-linecap="square"/>
<text x="549" y="1333" fill="#000000" font-size="15" font-family="default" > sequence 45</text>
<polyline points="547,1281 547,1328 547,1328" fill="none" stroke="#000000" stroke-width="1" stroke-linecap="square"/>
<text x="550" y="1357" fill="#000000" font-size="15" font-family="default" > sequence 70</text>
<polyline points="547,1412 547,1352 548,1352" fill="none" stroke="#000000" stroke-width="1" stroke-linecap="square"/>
<text x="549" y="1381" fill="#000000" font-size="15" font-family="default" > sequence 7</text>
<polyline points="547,1388 547,1376 547,1376" fill="none" stroke="#000000" stroke-width="1" stroke-linecap="square"/>
<text x="549" y="1405" fill="#000000" font-size="15" font-family="default" > sequence 18</text>
<polyline points="547,1389 547,1400 547,1400" fill="none" stroke="#000000" stroke-width="1" stroke-linecap="square"/>
<text x="549" y="1429" fill="#000000" font-size="15" font-family="default" > sequence 3</text>
<polyline points="547,1448 547,1424 547,1424" fill="none" stroke="#000000" stroke-width="1" stroke-linecap="square"/>
<text x="549" y="1453" fill="#000000" font-size="15" font-family="default" > sequence 41</text>
<polyline points="547,1460 547,1448 547,1448" fill="none" stroke="#000000" stroke-width="1" stroke-linecap="square"/>
<text x="551" y="1477" fill="#000000" font-size="15" font-family="default" > sequence 58</text>
<polyline points="547,1461 547,1472 549,1472" fill="none" stroke="#000000" stroke-width="1" stroke-linecap="square"/>
<line x1="547" y1="681" x2="547" y2="1078" stroke="#000000" stroke-width="1" stroke-linecap="square"/>
<line x1="547" y1="1076" x2="547" y2="1472" stroke="#000000" stroke-width="1" stroke-linecap="square"/>
<polyline points="546,1298 546,1076 547,1076" fill="none" stroke="#000000" stroke-width="1" stroke-linecap="square"/>
<text x="592" y="1501" fill="#000000" font-size="15" font-family="default" > sequence 17</text>
<polyline points="546,1508 546,1496 590,1496" fill="none" stroke="#000000" stroke-width="1" stroke-linecap="square"/>
<text x="548" y="1525" fill="#000000" font-size="15" font-family="default" > sequence 28</text>
<polyline points="546,1509 546,1520 546,1520" fill="none" stroke="#000000" stroke-width="1" stroke-linecap="square"/>
<text x="549" y="1549" fill="#000000" font-size="15" font-family="default" > sequence 57</text>
<polyline points="547,1562 547,1544 547,1544" fill="none" stroke="#000000" stroke-width="1" stroke-linecap="square"/>
<text x="552" y="1573" fill="#000000" font-size="15" font-family="default" > sequence 23</text>
<polyline points="550,1580 550,1568 550,1568" fill="none" stroke="#000000" stroke-width="1" stroke-linecap="square"/>
<text x="584" y="1597" fill="#000000" font-size="15" font-family="default" > sequence 36</text>
<polyline points="550,1581 550,1592 582,1592" fill="none" stroke="#000000" stroke-width="1" stroke-linecap="square"/>
<polyline points="547,1563 547,1580 550,1580" fill="none" stroke="#000000" stroke-width="1" stroke-linecap="square"/>
<polyline points="546,1320 546,1562 547,1562" fill="none" stroke="#000000" stroke-width="1" stroke-linecap="square"/>
<line x1="546" y1="1077" x2="546" y2="1321" stroke="#000000" stroke-width="1" stroke-linecap="square"/>
<polyline points="533,1494 533,1319 546,1319" fill="none" stroke="#000000" stroke-width="1" stroke-linecap="square"/>
<text x="535" y="1621" fill="#000000" font-size="15" font-family="default" > sequence 93</text>
<polyline points="533,1643 533,1616 533,1616" fill="none" stroke="#000000" stroke-width="1" stroke-linecap="square"/>
<text x="536" y="1645" fill="#000000" font-size="15" font-family="default" > sequence 20</text>
<polyline points="534,1670 534,1640 534,1640" fill="none" stroke="#000000" stroke-width="1" stroke-linecap="square"/>
<text x="536" y="1669" fill="#000000" font-size="15" font-family="default" > sequence 55</text>
<polyline points="534,1682 534,1664 534,1664" fill="none" stroke="#000000" stroke-width="1" stroke-linecap="square"/>
<text x="540" y="1693" fill="#000000" font-size="15" font-family="default" > sequence 47</text>
<polyline points="537,1700 537,1688 538,1688" fill="none" stroke="#000000" stroke-width="1" stroke-linecap="square"/>
<text x="539" y="1717" fill="#000000" font-size="15" font-family="default" > sequence 82</text>
<polyline points="537,1701 537,1712 537,1712" fill="none" stroke="#000000" stroke-width="1" stroke-linecap="square"/>
<polyline points="534,1683 534,1700 537,1700" fill="none" stroke="#000000" stroke-width="1" stroke-linecap="square"/>
<line x1="534" y1="1670" x2="534" y2="1700" stroke="#000000" stroke-width="1" stroke-linecap="square"/>
<polyline points="533,1644 533,1670 534,1670" fill="none" stroke="#000000" stroke-width="1" stroke-linecap="square"/>
<line x1="533" y1="1494" x2="533" y2="1670" stroke="#000000" stroke-width="1" stroke-linecap="square"/>
<polyline points="531,1663 531,1494 533,1494" fill="none" stroke="#000000" stroke-width="1" stroke-linecap="square"/>
<text x="533" y="1741" fill="#000000" font-size="15" font-family="default" > sequence 29</text>
<polyline points="531,1784 531,1736 531,1736" fill="none" stroke="#000000" stroke-width="1" stroke-linecap="square"/>
<text x="534" y="1765" fill="#000000" font-size="15" font-family="default" > sequence 16</text>
<polyline points="531,1796 531,1760 532,1760" fill="none" stroke="#000000" stroke-width="1" stroke-linecap="square"/>
<text x="533" y="1789" fill="#000000" font-size="15" font-family="default" > sequence 72</text>
<polyline points="531,1808 531,1784 531,1784" fill="none" stroke="#000000" stroke-width="1" stroke-linecap="square"/>
<text x="533" y="1813" fill="#000000" font-size="15" font-family="default" > sequence 27</text>
<polyline points="531,1820 531,1808 531,1808" fill="none" stroke="#000000" stroke-width="1" stroke-linecap="square"/>
<text x="533" y="1837" fill="#000000" font-size="15" font-family="default" > sequence 62</text>
<polyline points="531,1821 531,1832 531,1832" fill="none" stroke="#000000" stroke-width="1" stroke-linecap="square"/>
<line x1="531" y1="1663" x2="531" y2="1832" stroke="#000000" stroke-width="1" stroke-linecap="square"/>
<polyline points="528,1801 528,1663 531,1663" fill="none" stroke="#000000" stroke-width="1" stroke-linecap="square"/>
<text x="570" y="1861" fill="#000000" font-size="15" font-family="default" > sequence 68</text>
<polyline points="568,1940 568,1856 568,1856" fill="none" stroke="#000000" stroke-width="1" stroke-linecap="square"/>
<text x="572" y="1885" fill="#000000" font-size="15" font-family="default" > sequence 40</text>
<polyline points="569,2024 569,1880 570,1880" fill="none" stroke="#000000" stroke-width="1" stroke-linecap="square"/>
<text x="572" y="1909" fill="#000000" font-size="15" font-family="default" > sequence 50</text>
<polyline points="569,2036 569,1904 570,1904" fill="none" stroke="#000000" stroke-width="1" stroke-linecap="square"/>
<text x="572" y="1933" fill="#000000" font-size="15" font-family="default" > sequence 74</text>
<polyline points="569,2048 569,1928 570,1928" fill="none" stroke="#000000" stroke-width="1" stroke-linecap="square"/>
<text x="572" y="1957" fill="#000000" font-size="15" font-family="default" > sequence 11</text>
<polyline points="569,2060 569,1952 570,1952" fill="none" stroke="#000000" stroke-width="1" stroke-linecap="square"/>
<text x="572" y="1981" fill="#000000" font-size="15" font-family="default" > sequence 24</text>
<polyline points="569,2072 569,1976 570,1976" fill="none" stroke="#000000" stroke-width="1" stroke-linecap="square"/>
<text x="572" y="2005" fill="#000000" font-size="15" font-family="default" > sequence 33</text>
<polyline points="569,2084 569,2000 570,2000" fill="none" stroke="#000000" stroke-width="1" stroke-linecap="square"/>
<text x="572" y="2029" fill="#000000" font-size="15" font-family="default" > sequence 42</text>
<polyline points="569,2096 569,2024 570,2024" fill="none" stroke="#000000" stroke-width="1" stroke-linecap="square"/>
<text x="572" y="2053" fill="#000000" font-size="15" font-family="default" > sequence 54</text>
<polyline points="569,2108 569,2048 570,2048" fill="none" stroke="#000000" stroke-width="1" stroke-linecap="square"/>
<text x="572" y="2077" fill="#000000" font-size="15" font-family="default" > sequence 61</text>
<polyline points="569,2120 569,2072 570,2072" fill="none" stroke="#000000" stroke-width="1" stroke-linecap="square"/>
<text x="572" y="2101" fill="#000000" font-size="15" font-family="default" > sequence 80</text>
<polyline points="569,2132 569,2096 570,2096" fill="none" stroke="#000000" stroke-width="1" stroke-linecap="square"/>
<text x="572" y="2125" fill="#000000" font-size="15" font-family="default" > sequence 87</text>
<polyline points="569,2144 569,2120 570,2120" fill="none" stroke="#000000" stroke-width="1" stroke-linecap="square"/>
<text x="572" y="2149" fill="#000000" font-size="15" font-family="default" > sequence 6</text>
<polyline points="569,2156 569,2144 570,2144" fill="none" stroke="#000000" stroke-width="1" stroke-linecap="square"/>
<text x="572" y="2173" fill="#000000" font-size="15" font-family="default" > sequence 13</text>
<polyline points="569,2157 569,2168 570,2168" fill="none" stroke="#000000" stroke-width="1" stroke-linecap="square"/>
<line x1="569" y1="2024" x2="569" y2="2168" stroke="#000000" stroke-width="1" stroke-linecap="square"/>
<polyline points="568,1941 568,2024 569,2024" fill="none" stroke="#000000" stroke-width="1" stroke-linecap="square"/>
<polyline points="528,1802 528,1940 568,1940" fill="none" stroke="#000000" stroke-width="1" stroke-linecap="square"/>
<polyline points="524,1996 524,1801 528,1801" fill="none" stroke="#000000" stroke-width="1" stroke-linecap="square"/>
<text x="601" y="2197" fill="#000000" font-size="15" font-family="default" > sequence 53</text>
<polyline points="524,1997 524,2192 599,2192" fill="none" stroke="#000000" stroke-width="1" stroke-linecap="square"/>
<polyline points="523,2115 523,1996 524,1996" fill="none" stroke="#000000" stroke-width="1" stroke-linecap="square"/>
<text x="531" y="2221" fill="#000000" font-size="15" font-family="default" > sequence 51</text>
<polyline points="526,2234 526,2216 529,2216" fill="none" stroke="#000000" stroke-width="1" stroke-linecap="square"/>
<text x="604" y="2245" fill="#000000" font-size="15" font-family="default" > sequence 46</text>
<polyline points="553,2252 553,2240 602,2240" fill="none" stroke="#000000" stroke-width="1" stroke-linecap="square"/>
<text x="560" y="2269" fill="#000000" font-size="15" font-family="default" > sequence 65</text>
<polyline points="553,2253 553,2264 558,2264" fill="none" stroke="#000000" stroke-width="1" stroke-linecap="square"/>
<polyline points="526,2235 526,2252 553,2252" fill="none" stroke="#000000" stroke-width="1" stroke-linecap="square"/>
<polyline points="523,2116 523,2234 526,2234" fill="none" stroke="#000000" stroke-width="1" stroke-linecap="square"/>
<polyline points="40,2201 40,2115 523,2115" fill="none" stroke="#000000" stroke-width="1" stroke-linecap="square"/>
<text x="604" y="2293" fill="#000000" font-size="15" font-family="default" > sequence 5</text>
<polyline points="40,2202 40,2288 602,2288" fill="none" stroke="#000000" stroke-width="1" stroke-linecap="square"/>
<text x="553" y="2041" fill="#212121" font-size="11" font-family="MS Sans Serif" >16</text>
<text x="548" y="1957" fill="#212121" font-size="11" font-family="MS Sans Serif" >98</text>
<text x="515" y="1990" fill="#212121" font-size="11" font-family="MS Sans Serif" >0</text>
<text x="519" y="1717" fill="#212121" font-size="11" font-family="MS Sans Serif" >92</text>
<text x="533" y="2269" fill="#212121" font-size="11" font-family="MS Sans Serif" >29</text>
<text x="544" y="566" fill="#212121" font-size="11" font-family="MS Sans Serif" >23</text>
<text x="518" y="1687" fill="#212121" font-size="11" font-family="MS Sans Serif" >21</text>
<text x="523" y="1488" fill="#212121" font-size="11" font-family="MS Sans Serif" >0</text>
<text x="515" y="1795" fill="#212121" font-size="11" font-family="MS Sans Serif" >3</text>
<text x="544" y="637" fill="#212121" font-size="11" font-family="MS Sans Serif" >77</text>
<text x="515" y="2251" fill="#212121" font-size="11" font-family="MS Sans Serif" >4</text>
<text x="543" y="613" fill="#212121" font-size="11" font-family="MS Sans Serif" >14</text>
<text x="533" y="1313" fill="#212121" font-size="11" font-family="MS Sans Serif" >0</text>
<text x="538" y="583" fill="#212121" font-size="11" font-family="MS Sans Serif" >22</text>
<text x="513" y="1657" fill="#212121" font-size="11" font-family="MS Sans Serif" >13</text>
<text x="539" y="1597" fill="#212121" font-size="11" font-family="MS Sans Serif" >0</text>
<text x="538" y="1579" fill="#212121" font-size="11" font-family="MS Sans Serif" >0</text>
<text x="533" y="781" fill="#212121" font-size="11" font-family="MS Sans Serif" >43</text>
<text x="540" y="1141" fill="#212121" font-size="11" font-family="MS Sans Serif" >6</text>
<text x="539" y="674" fill="#212121" font-size="11" font-family="MS Sans Serif" >0</text>
<text x="538" y="1070" fill="#212121" font-size="11" font-family="MS Sans Serif" >0</text>
<text x="533" y="230" fill="#212121" font-size="11" font-family="MS Sans Serif" >22</text>
<line x1="60" y1="2328" x2="197" y2="2328" stroke="#000000" stroke-width="1" stroke-linecap="square"/>
<line x1="60" y1="2324" x2="60" y2="2332" stroke="#000000" stroke-width="1" stroke-linecap="square"/>
<line x1="197" y1="2324" x2="197" y2="2332" stroke="#000000" stroke-width="1" stroke-linecap="square"/>
<text x="125" y="2358" fill="#212121" font-size="11" font-family="MS Sans Serif" >5</text>
</svg>
