<svg class="main-svg" xmlns="http://www.w3.org/2000/svg" xmlns:xlink="http://www.w3.org/1999/xlink" width="700" height="500" style="" viewBox="0 0 700 500"><rect x="0" y="0" width="700" height="500" style="fill: rgb(255, 255, 255); fill-opacity: 1;"/><defs id="defs-85039e"><g class="clips"><clipPath id="clip85039exyplot" class="plotclip"><rect width="462" height="320"/></clipPath><clipPath class="axesclip" id="clip85039ex"><rect x="80" y="0" width="462" height="500"/></clipPath><clipPath class="axesclip" id="clip85039ey"><rect x="0" y="100" width="700" height="320"/></clipPath><clipPath class="axesclip" id="clip85039exy"><rect x="80" y="100" width="462" height="320"/></clipPath></g><g class="gradients"/></defs><g class="bglayer"><rect class="bg" x="80" y="100" width="462" height="320" style="fill: rgb(229, 236, 246); fill-opacity: 1; stroke-width: 0;"/></g><g class="layer-below"><g class="imagelayer"/><g class="shapelayer"/></g><g class="cartesianlayer"><g class="subplot xy"><g class="layer-subplot"><g class="shapelayer"/><g class="imagelayer"/></g><g class="gridlayer"><g class="x"><path class="xgrid crisp" transform="translate(170.23000000000002,0)" d="M0,100v320" style="stroke: rgb(255, 255, 255); stroke-opacity: 1; stroke-width: 1px;"/><path class="xgrid crisp" transform="translate(260.47,0)" d="M0,100v320" style="stroke: rgb(255, 255, 255); stroke-opacity: 1; stroke-width: 1px;"/><path class="xgrid crisp" transform="translate(350.7,0)" d="M0,100v320" style="stroke: rgb(255, 255, 255); stroke-opacity: 1; stroke-width: 1px;"/><path class="xgrid crisp" transform="translate(440.94,0)" d="M0,100v320" style="stroke: rgb(255, 255, 255); stroke-opacity: 1; stroke-width: 1px;"/><path class="xgrid crisp" transform="translate(531.1700000000001,0)" d="M0,100v320" style="stroke: rgb(255, 255, 255); stroke-opacity: 1; stroke-width: 1px;"/></g><g class="y"><path class="ygrid crisp" transform="translate(0,409.83)" d="M80,0h462" style="stroke: rgb(255, 255, 255); stroke-opacity: 1; stroke-width: 1px;"/><path class="ygrid crisp" transform="translate(0,356.89)" d="M80,0h462" style="stroke: rgb(255, 255, 255); stroke-opacity: 1; stroke-width: 1px;"/><path class="ygrid crisp" transform="translate(0,303.95)" d="M80,0h462" style="stroke: rgb(255, 255, 255); stroke-opacity: 1; stroke-width: 1px;"/><path class="ygrid crisp" transform="translate(0,251.01)" d="M80,0h462" style="stroke: rgb(255, 255, 255); stroke-opacity: 1; stroke-width: 1px;"/><path class="ygrid crisp" transform="translate(0,198.07)" d="M80,0h462" style="stroke: rgb(255, 255, 255); stroke-opacity: 1; stroke-width: 1px;"/><path class="ygrid crisp" transform="translate(0,145.13)" d="M80,0h462" style="stroke: rgb(255, 255, 255); stroke-opacity: 1; stroke-width: 1px;"/></g></g><g class="zerolinelayer"><path class="xzl zl crisp" transform="translate(80,0)" d="M0,100v320" style="stroke: rgb(255, 255, 255); stroke-opacity: 1; stroke-width: 2px;"/></g><path class="xlines-below"/><path class="ylines-below"/><g class="overlines-below"/><g class="xaxislayer-below"/><g class="yaxislayer-below"/><g class="overaxes-below"/><g class="plot" transform="translate(80, 100)" clip-path="url('#clip85039exyplot')"><g class="scatterlayer mlayer"><g class="trace scatter tracef49d83" style="stroke-miterlimit: 2; opacity: 1;"><g class="fills"/><g class="errorbars"/><g class="lines"><path class="js-line" d="M0,16.48Q0.6,16.43 0.9,16.39C1.2,16.35 1.51,16.28 1.81,16.22C2.11,16.17 2.41,16.1 2.71,16.06C3.01,16.02 3.32,15.99 3.62,16C3.92,16.01 4.23,16.05 4.52,16.13C4.83,16.22 5.13,16.35 5.42,16.52C5.74,16.71 6.04,16.96 6.33,17.24C6.65,17.56 6.94,17.94 7.23,18.35C7.55,18.81 7.85,19.35 8.14,19.91C8.46,20.54 8.75,21.23 9.04,21.96C9.36,22.77 9.66,23.63 9.95,24.54C10.27,25.53 10.56,26.59 10.85,27.68C11.16,28.86 11.46,30.11 11.75,31.39C12.06,32.76 12.37,34.2 12.66,35.67C12.97,37.24 13.27,38.86 13.56,40.53C13.87,42.29 14.18,44.1 14.47,45.95C14.78,47.89 15.08,49.88 15.37,51.92C15.68,54.05 15.97,56.23 16.27,58.45C16.58,60.77 16.88,63.14 17.18,65.55C17.49,68.06 17.78,70.62 18.08,73.22C18.39,75.91 18.69,78.66 18.99,81.45C19.3,84.32 19.59,87.25 19.89,90.21C20.19,93.26 20.49,96.36 20.79,99.49C21.1,102.7 21.4,105.95 21.7,109.23C22,112.58 22.3,115.98 22.6,119.4C22.9,122.88 23.21,126.4 23.51,129.94C23.81,133.53 24.11,137.15 24.41,140.79C24.71,144.46 25.02,148.17 25.32,151.87C25.62,155.6 25.92,159.34 26.22,163.08C26.52,166.82 26.82,170.56 27.12,174.29C27.42,177.99 27.73,181.7 28.03,185.37C28.33,189 28.63,192.62 28.93,196.2C29.23,199.72 29.53,203.24 29.84,206.66C30.14,209.95 30.43,213.18 30.74,216.35C31.03,219.39 31.34,222.34 31.64,225.3C31.94,228.21 32.25,231.1 32.55,233.96C32.85,236.77 33.14,239.56 33.45,242.31C33.75,245 34.05,247.66 34.36,250.29C34.66,252.86 34.96,255.4 35.26,257.9C35.56,260.33 35.85,262.76 36.16,265.09C36.45,267.31 36.75,269.51 37.07,271.57C37.36,273.45 37.64,275.3 37.97,276.95C38.25,278.38 38.54,279.75 38.88,280.91C39.16,281.85 39.43,282.74 39.78,283.42C40.05,283.94 40.33,284.51 40.68,284.69C40.95,284.82 41.31,284.78 41.59,284.66C41.92,284.52 42.21,284.14 42.49,283.78C42.83,283.34 43.11,282.71 43.4,282.13C43.71,281.51 44,280.84 44.3,280.17C44.61,279.48 44.92,278.8 45.21,278.04C45.53,277.21 45.82,276.29 46.11,275.38C46.42,274.42 46.71,273.41 47.01,272.43C47.31,271.45 47.61,270.46 47.92,269.51C48.22,268.6 48.51,267.7 48.82,266.84C49.11,266.02 49.42,265.23 49.73,264.47C50.02,263.75 50.32,263.05 50.63,262.38C50.92,261.74 51.22,261.12 51.53,260.51C51.83,259.93 52.14,259.38 52.44,258.81C52.74,258.23 53.04,257.64 53.34,257.07C53.64,256.51 53.94,255.94 54.25,255.4C54.55,254.87 54.84,254.33 55.15,253.85C55.44,253.4 55.73,252.98 56.05,252.6C56.34,252.25 56.64,251.92 56.96,251.66C57.25,251.42 57.55,251.19 57.86,251.07C58.15,250.96 58.47,250.9 58.77,250.92C59.07,250.94 59.38,251.06 59.67,251.21C59.99,251.38 60.29,251.64 60.58,251.93C60.9,252.25 61.19,252.64 61.48,253.05C61.8,253.5 62.09,254.01 62.38,254.54C62.7,255.12 63,255.75 63.29,256.39C63.6,257.07 63.89,257.79 64.19,258.51C64.5,259.26 64.8,260.05 65.1,260.82C65.4,261.6 65.69,262.42 66,263.18C66.29,263.91 66.58,264.65 66.9,265.32C67.19,265.93 67.49,266.53 67.81,267.05C68.1,267.51 68.38,267.98 68.71,268.31C68.99,268.59 69.3,268.82 69.62,268.96C69.91,269.09 70.22,269.13 70.52,269.16C70.82,269.19 71.12,269.17 71.42,269.15C71.72,269.13 72.03,269.08 72.33,269.01C72.63,268.94 72.94,268.85 73.23,268.73C73.54,268.6 73.84,268.42 74.14,268.24C74.45,268.05 74.75,267.84 75.04,267.6C75.35,267.35 75.67,267.11 75.95,266.78C76.28,266.39 76.56,265.86 76.85,265.36C77.16,264.83 77.46,264.26 77.75,263.67C78.06,263.03 78.37,262.35 78.66,261.65C78.97,260.91 79.26,260.11 79.56,259.32C79.87,258.51 80.17,257.67 80.47,256.84C80.77,256 81.07,255.15 81.37,254.29C81.67,253.42 81.97,252.52 82.27,251.64C82.57,250.77 82.87,249.91 83.18,249.06C83.48,248.24 83.77,247.42 84.08,246.63C84.38,245.86 84.69,245.12 84.99,244.38C85.29,243.65 85.59,242.93 85.89,242.22C86.19,241.52 86.48,240.82 86.79,240.14C87.09,239.48 87.39,238.83 87.7,238.2C88,237.58 88.3,236.98 88.6,236.39C88.9,235.81 89.21,235.24 89.51,234.67C89.81,234.1 90.12,233.55 90.41,232.95C90.72,232.32 91.03,231.66 91.32,230.97C91.63,230.24 91.92,229.45 92.22,228.67C92.52,227.87 92.82,227.05 93.12,226.23C93.42,225.4 93.73,224.55 94.03,223.71C94.33,222.87 94.63,222.02 94.93,221.19C95.23,220.37 95.53,219.56 95.84,218.77C96.14,218 96.43,217.25 96.74,216.52C97.03,215.83 97.33,215.15 97.64,214.51C97.93,213.91 98.23,213.34 98.55,212.81C98.84,212.33 99.13,211.86 99.45,211.46C99.74,211.1 100.04,210.78 100.36,210.52C100.65,210.29 100.95,210.09 101.26,209.97C101.55,209.86 101.86,209.81 102.16,209.82C102.46,209.83 102.78,209.91 103.07,210.02C103.38,210.14 103.68,210.32 103.97,210.52C104.28,210.73 104.58,210.98 104.88,211.24C105.19,211.52 105.48,211.83 105.78,212.14C106.08,212.45 106.38,212.78 106.68,213.11C106.99,213.45 107.3,213.79 107.59,214.17C107.9,214.57 108.2,215 108.49,215.45C108.8,215.93 109.11,216.45 109.4,216.98C109.71,217.55 110.01,218.14 110.3,218.76C110.61,219.41 110.92,220.1 111.21,220.8C111.52,221.54 111.81,222.32 112.11,223.11C112.42,223.92 112.71,224.77 113.01,225.6C113.31,226.44 113.61,227.31 113.92,228.11C114.21,228.85 114.51,229.56 114.82,230.23C115.11,230.85 115.43,231.42 115.73,232.01C116.03,232.59 116.32,233.19 116.63,233.75C116.92,234.29 117.22,234.8 117.53,235.3C117.83,235.79 118.13,236.27 118.44,236.74C118.74,237.2 119.03,237.65 119.34,238.09C119.64,238.51 119.94,238.93 120.25,239.32C120.55,239.7 120.84,240.06 121.15,240.4C121.44,240.73 121.74,241.04 122.05,241.32C122.34,241.58 122.65,241.83 122.96,242.02C123.25,242.19 123.55,242.36 123.86,242.42C124.16,242.48 124.48,242.48 124.77,242.39C125.08,242.29 125.39,242.08 125.67,241.83C126,241.54 126.29,241.14 126.58,240.73C126.9,240.28 127.19,239.77 127.48,239.24C127.79,238.67 128.09,238.06 128.38,237.43C128.69,236.76 129,236.06 129.29,235.32C129.6,234.53 129.89,233.66 130.19,232.82C130.49,231.97 130.8,231.1 131.1,230.24C131.4,229.38 131.7,228.51 132,227.66C132.3,226.82 132.59,225.99 132.9,225.17C133.2,224.38 133.5,223.59 133.81,222.83C134.11,222.1 134.4,221.39 134.71,220.71C135,220.06 135.31,219.43 135.62,218.84C135.91,218.29 136.21,217.76 136.52,217.28C136.81,216.84 137.1,216.41 137.42,216.05C137.71,215.72 138.01,215.42 138.33,215.18C138.62,214.96 138.92,214.78 139.23,214.66C139.52,214.55 139.84,214.49 140.14,214.48C140.44,214.47 140.74,214.53 141.04,214.6C141.35,214.68 141.65,214.81 141.95,214.94C142.25,215.07 142.55,215.23 142.85,215.4C143.15,215.58 143.46,215.76 143.75,215.98C144.06,216.22 144.37,216.48 144.66,216.78C144.97,217.1 145.27,217.48 145.56,217.87C145.87,218.3 146.18,218.76 146.47,219.25C146.78,219.77 147.08,220.33 147.37,220.91C147.68,221.52 147.97,222.17 148.27,222.81C148.57,223.45 148.88,224.09 149.18,224.74C149.48,225.39 149.78,226.05 150.08,226.71C150.38,227.38 150.68,228.07 150.99,228.72C151.29,229.35 151.58,229.98 151.89,230.55C152.18,231.08 152.47,231.6 152.79,232.04C153.08,232.44 153.38,232.82 153.7,233.1C153.98,233.35 154.29,233.57 154.6,233.67C154.89,233.76 155.22,233.78 155.51,233.72C155.82,233.65 156.13,233.46 156.41,233.24C156.73,232.99 157.03,232.64 157.32,232.27C157.64,231.85 157.93,231.34 158.22,230.83C158.53,230.28 158.82,229.67 159.12,229.08C159.42,228.48 159.73,227.86 160.03,227.24C160.33,226.62 160.63,225.98 160.93,225.36C161.23,224.74 161.53,224.12 161.84,223.52C162.14,222.94 162.43,222.37 162.74,221.84C163.03,221.34 163.33,220.84 163.64,220.4C163.93,219.99 164.23,219.59 164.55,219.26C164.84,218.96 165.13,218.68 165.45,218.48C165.74,218.3 166.05,218.16 166.36,218.1C166.66,218.05 166.97,218.05 167.26,218.13C167.57,218.21 167.87,218.39 168.16,218.59C168.48,218.81 168.78,219.12 169.07,219.44C169.38,219.78 169.67,220.21 169.97,220.59C170.27,220.97 170.55,221.42 170.88,221.72C171.16,221.98 171.47,222.16 171.78,222.32C172.07,222.47 172.38,222.55 172.68,222.68C172.98,222.81 173.29,222.95 173.59,223.12C173.9,223.3 174.2,223.51 174.49,223.74C174.8,223.99 175.11,224.27 175.4,224.57C175.71,224.89 176.01,225.25 176.3,225.63C176.61,226.04 176.92,226.48 177.21,226.95C177.52,227.45 177.82,227.98 178.11,228.53C178.42,229.11 178.72,229.73 179.01,230.36C179.32,231.02 179.62,231.71 179.92,232.41C180.23,233.13 180.52,233.88 180.82,234.63C181.12,235.39 181.43,236.15 181.73,236.92C182.03,237.7 182.33,238.49 182.63,239.3C182.93,240.13 183.23,240.97 183.53,241.82C183.83,242.68 184.14,243.57 184.44,244.44C184.74,245.31 185.03,246.21 185.34,247.06C185.63,247.87 185.91,248.74 186.25,249.4C186.52,249.93 186.8,250.49 187.15,250.74C187.42,250.93 187.75,250.97 188.05,250.96C188.35,250.95 188.67,250.8 188.96,250.65C189.27,250.49 189.57,250.26 189.86,250.01C190.18,249.73 190.48,249.39 190.77,249.02C191.09,248.61 191.37,248.11 191.67,247.64C191.98,247.15 192.28,246.62 192.58,246.12C192.88,245.63 193.17,245.13 193.48,244.66C193.77,244.21 194.08,243.8 194.38,243.37C194.68,242.94 194.99,242.51 195.29,242.08C195.59,241.65 195.88,241.19 196.19,240.8C196.48,240.43 196.78,240.08 197.1,239.79C197.39,239.52 197.69,239.28 198,239.09C198.29,238.92 198.59,238.78 198.9,238.69C199.2,238.6 199.51,238.55 199.81,238.53C200.11,238.51 200.41,238.54 200.71,238.59C201.02,238.64 201.32,238.72 201.62,238.84C201.93,238.97 202.23,239.14 202.52,239.34C202.83,239.55 203.13,239.8 203.42,240.07C203.73,240.35 204.03,240.66 204.33,240.98C204.64,241.32 204.93,241.69 205.23,242.06C205.54,242.45 205.84,242.85 206.14,243.26C206.45,243.68 206.74,244.12 207.04,244.56C207.34,245.01 207.65,245.46 207.95,245.92C208.25,246.38 208.55,246.85 208.85,247.32C209.15,247.79 209.45,248.27 209.75,248.73C210.05,249.19 210.34,249.67 210.66,250.08C210.95,250.46 211.26,250.77 211.56,251.11C211.86,251.44 212.16,251.77 212.47,252.08C212.77,252.39 213.06,252.7 213.37,252.98C213.67,253.25 213.96,253.53 214.27,253.76C214.57,253.98 214.87,254.19 215.18,254.36C215.47,254.52 215.77,254.65 216.08,254.75C216.38,254.84 216.69,254.92 216.99,254.93C217.29,254.94 217.6,254.92 217.89,254.83C218.2,254.73 218.52,254.58 218.79,254.32C219.14,253.98 219.42,253.41 219.7,252.84C220.04,252.14 220.32,251.27 220.6,250.39C220.92,249.39 221.22,248.27 221.51,247.15C221.82,245.94 222.11,244.66 222.41,243.37C222.72,242.03 223.02,240.66 223.32,239.28C223.62,237.88 223.92,236.46 224.22,235.04C224.52,233.62 224.82,232.18 225.12,230.76C225.42,229.35 225.73,227.93 226.03,226.53C226.33,225.16 226.62,223.79 226.93,222.45C227.23,221.14 227.53,219.85 227.84,218.59C228.14,217.37 228.43,216.17 228.74,215.01C229.03,213.9 229.33,212.82 229.64,211.77C229.93,210.78 230.24,209.8 230.55,208.88C230.84,208.02 231.14,207.18 231.45,206.39C231.74,205.66 232.04,204.95 232.36,204.3C232.65,203.71 232.94,203.14 233.26,202.63C233.55,202.17 233.84,201.74 234.16,201.38C234.45,201.06 234.75,200.76 235.07,200.54C235.36,200.35 235.66,200.18 235.97,200.11C236.27,200.04 236.58,200.04 236.88,200.1C237.19,200.17 237.5,200.33 237.78,200.52C238.1,200.74 238.39,201.05 238.68,201.38C239,201.75 239.3,202.19 239.59,202.66C239.91,203.18 240.2,203.76 240.49,204.36C240.81,205.02 241.11,205.72 241.4,206.45C241.71,207.23 242.01,208.06 242.3,208.91C242.61,209.81 242.91,210.75 243.21,211.7C243.52,212.68 243.81,213.69 244.11,214.7C244.41,215.73 244.71,216.78 245.01,217.84C245.32,218.93 245.62,220.04 245.92,221.16C246.23,222.31 246.52,223.48 246.82,224.66C247.13,225.87 247.43,227.1 247.73,228.33C248.03,229.58 248.33,230.85 248.63,232.13C248.93,233.43 249.23,234.74 249.53,236.05C249.83,237.37 250.14,238.7 250.44,240.03C250.74,241.37 251.04,242.72 251.34,244.06C251.64,245.41 251.95,246.76 252.25,248.1C252.55,249.44 252.85,250.78 253.15,252.11C253.45,253.43 253.75,254.75 254.05,256.05C254.35,257.33 254.65,258.6 254.96,259.85C255.26,261.06 255.55,262.29 255.86,263.44C256.15,264.51 256.45,265.55 256.77,266.51C257.06,267.38 257.36,268.19 257.67,268.98C257.96,269.73 258.27,270.45 258.58,271.15C258.88,271.82 259.17,272.48 259.48,273.11C259.77,273.71 260.06,274.32 260.38,274.85C260.67,275.32 260.98,275.72 261.29,276.13C261.58,276.52 261.88,276.88 262.19,277.23C262.49,277.57 262.79,277.9 263.1,278.21C263.4,278.51 263.7,278.79 264,279.08C264.3,279.36 264.6,279.64 264.9,279.92C265.2,280.21 265.51,280.5 265.81,280.8C266.11,281.09 266.4,281.41 266.71,281.69C267.01,281.97 267.3,282.28 267.62,282.48C267.91,282.67 268.21,282.8 268.52,282.89C268.81,282.98 269.12,282.99 269.42,283.03C269.72,283.07 270.03,283.08 270.33,283.11C270.63,283.14 270.93,283.18 271.23,283.22C271.53,283.26 271.84,283.29 272.14,283.33C272.44,283.37 272.74,283.41 273.04,283.46C273.34,283.51 273.65,283.57 273.95,283.62C274.25,283.67 274.55,283.71 274.85,283.75C275.15,283.78 275.45,283.83 275.75,283.83C276.05,283.83 276.36,283.83 276.66,283.75C276.97,283.67 277.27,283.52 277.56,283.36C277.87,283.19 278.18,282.99 278.47,282.74C278.79,282.46 279.08,282.09 279.37,281.72C279.68,281.31 279.97,280.84 280.27,280.37C280.58,279.88 280.88,279.37 281.18,278.85C281.49,278.31 281.78,277.75 282.08,277.19C282.39,276.61 282.69,276.03 282.99,275.43C283.29,274.82 283.59,274.19 283.89,273.57C284.19,272.96 284.49,272.34 284.79,271.74C285.09,271.15 285.39,270.55 285.7,269.98C286,269.43 286.29,268.89 286.6,268.38C286.89,267.9 287.2,267.42 287.51,266.99C287.8,266.58 288.1,266.2 288.41,265.85C288.7,265.52 289.01,265.21 289.32,264.94C289.61,264.68 289.92,264.46 290.22,264.25C290.52,264.04 290.82,263.86 291.12,263.68C291.42,263.5 291.72,263.32 292.03,263.17C292.33,263.03 292.62,262.88 292.93,262.8C293.23,262.72 293.54,262.67 293.84,262.67C294.14,262.67 294.45,262.7 294.74,262.78C295.05,262.86 295.35,263 295.64,263.16C295.95,263.33 296.26,263.56 296.55,263.8C296.86,264.06 297.15,264.36 297.45,264.66C297.76,264.97 298.06,265.32 298.36,265.65C298.66,265.99 298.96,266.33 299.26,266.67C299.56,267.01 299.86,267.36 300.16,267.7C300.46,268.03 300.76,268.37 301.07,268.68C301.37,268.98 301.66,269.29 301.97,269.55C302.26,269.79 302.57,270.04 302.88,270.2C303.17,270.35 303.48,270.51 303.78,270.52C304.08,270.53 304.4,270.46 304.68,270.29C305.02,270.08 305.31,269.66 305.59,269.23C305.93,268.71 306.21,268.03 306.49,267.33C306.82,266.5 307.11,265.52 307.4,264.53C307.72,263.45 308.01,262.28 308.3,261.1C308.61,259.84 308.91,258.53 309.21,257.2C309.52,255.82 309.81,254.4 310.11,252.98C310.41,251.52 310.71,250.04 311.01,248.55C311.31,247.04 311.62,245.52 311.92,244C312.22,242.46 312.52,240.9 312.82,239.36C313.12,237.82 313.43,236.28 313.73,234.75C314.03,233.24 314.33,231.73 314.63,230.24C314.93,228.78 315.22,227.32 315.53,225.89C315.83,224.5 316.13,223.12 316.44,221.77C316.74,220.46 317.03,219.16 317.34,217.9C317.64,216.68 317.94,215.49 318.25,214.33C318.55,213.22 318.84,212.13 319.15,211.08C319.44,210.08 319.74,209.1 320.05,208.16C320.34,207.28 320.65,206.42 320.96,205.6C321.25,204.83 321.55,204.09 321.86,203.39C322.15,202.73 322.46,202.1 322.77,201.49C323.06,200.92 323.36,200.37 323.67,199.85C323.96,199.35 324.26,198.86 324.58,198.43C324.87,198.03 325.16,197.65 325.48,197.33C325.77,197.05 326.06,196.78 326.38,196.6C326.67,196.44 326.98,196.32 327.29,196.29C327.59,196.26 327.9,196.31 328.19,196.41C328.5,196.52 328.81,196.72 329.1,196.95C329.42,197.21 329.71,197.55 330,197.91C330.32,198.31 330.61,198.76 330.9,199.24C331.21,199.76 331.52,200.32 331.81,200.9C332.12,201.51 332.41,202.15 332.71,202.8C333.02,203.47 333.32,204.17 333.62,204.86C333.92,205.56 334.22,206.28 334.52,206.98C334.82,207.68 335.11,208.39 335.42,209.08C335.72,209.75 336.02,210.43 336.33,211.07C336.62,211.67 336.91,212.26 337.23,212.79C337.52,213.28 337.82,213.73 338.14,214.14C338.43,214.51 338.73,214.85 339.04,215.15C339.33,215.43 339.64,215.68 339.95,215.9C340.24,216.11 340.54,216.29 340.85,216.43C341.14,216.57 341.44,216.68 341.75,216.75C342.05,216.82 342.36,216.86 342.66,216.84C342.96,216.82 343.27,216.75 343.56,216.64C343.87,216.52 344.18,216.34 344.47,216.11C344.79,215.86 345.08,215.5 345.37,215.17C345.68,214.82 345.98,214.46 346.27,214.06C346.58,213.64 346.88,213.16 347.18,212.7C347.48,212.23 347.78,211.73 348.08,211.25C348.38,210.78 348.69,210.3 348.99,209.84C349.29,209.38 349.59,208.93 349.89,208.49C350.19,208.06 350.49,207.63 350.79,207.22C351.09,206.81 351.4,206.41 351.7,206.02C352,205.64 352.3,205.26 352.6,204.89C352.9,204.52 353.21,204.15 353.51,203.79C353.81,203.43 354.11,203.07 354.41,202.71C354.71,202.35 355.02,202 355.32,201.64C355.62,201.29 355.92,200.93 356.22,200.58C356.52,200.23 356.82,199.89 357.12,199.55C357.42,199.21 357.72,198.87 358.03,198.55C358.33,198.23 358.62,197.92 358.93,197.63C359.23,197.35 359.53,197.09 359.84,196.85C360.13,196.63 360.43,196.41 360.74,196.24C361.03,196.07 361.33,195.92 361.64,195.82C361.94,195.72 362.25,195.65 362.55,195.62C362.85,195.59 363.15,195.59 363.45,195.63C363.75,195.67 364.06,195.75 364.36,195.86C364.67,195.97 364.97,196.12 365.26,196.29C365.57,196.47 365.87,196.68 366.16,196.9C366.47,197.13 366.77,197.4 367.07,197.67C367.38,197.95 367.67,198.24 367.97,198.55C368.28,198.87 368.58,199.21 368.88,199.55C369.19,199.9 369.48,200.27 369.78,200.64C370.08,201.01 370.38,201.4 370.68,201.78C370.98,202.17 371.29,202.57 371.59,202.96C371.89,203.35 372.19,203.74 372.49,204.11C372.79,204.48 373.09,204.85 373.4,205.18C373.69,205.49 373.98,205.81 374.3,206.05C374.59,206.27 374.9,206.49 375.21,206.59C375.5,206.68 375.82,206.73 376.11,206.66C376.42,206.58 376.72,206.33 377.01,206.11C377.33,205.86 377.63,205.54 377.92,205.22C378.23,204.88 378.52,204.5 378.82,204.12C379.13,203.73 379.43,203.31 379.73,202.89C380.03,202.46 380.33,202.02 380.63,201.58C380.93,201.14 381.23,200.69 381.53,200.25C381.83,199.82 382.13,199.39 382.44,198.97C382.74,198.56 383.03,198.16 383.34,197.78C383.64,197.41 383.94,197.06 384.25,196.73C384.54,196.42 384.84,196.12 385.15,195.87C385.44,195.63 385.74,195.41 386.05,195.24C386.34,195.08 386.65,194.95 386.96,194.88C387.26,194.81 387.56,194.78 387.86,194.81C388.17,194.84 388.48,194.93 388.77,195.06C389.08,195.2 389.38,195.42 389.67,195.67C389.99,195.95 390.29,196.29 390.58,196.66C390.9,197.07 391.19,197.55 391.48,198.05C391.8,198.61 392.09,199.23 392.38,199.88C392.7,200.59 393,201.35 393.29,202.15C393.6,203.01 393.9,203.93 394.19,204.87C394.5,205.88 394.81,206.94 395.1,208.03C395.41,209.19 395.71,210.39 396,211.62C396.31,212.92 396.6,214.26 396.9,215.62C397.21,217.05 397.51,218.51 397.81,220C398.12,221.54 398.41,223.12 398.71,224.71C399.02,226.35 399.32,228.02 399.62,229.7C399.93,231.42 400.22,233.17 400.52,234.92C400.82,236.7 401.12,238.51 401.42,240.31C401.72,242.12 402.03,243.95 402.33,245.77C402.63,247.59 402.93,249.42 403.23,251.22C403.53,252.99 403.83,254.78 404.14,256.49C404.43,258.12 404.72,259.74 405.04,261.25C405.33,262.64 405.63,264 405.95,265.25C406.24,266.36 406.5,267.5 406.85,268.38C407.12,269.06 407.38,270 407.75,270.13C408.02,270.22 408.4,270.01 408.66,269.73C409.09,269.25 409.29,268.05 409.56,267.03C409.91,265.73 410.18,264.12 410.47,262.55C410.79,260.82 411.08,258.93 411.37,257.07C411.68,255.14 411.97,253.14 412.27,251.16C412.57,249.15 412.88,247.1 413.18,245.07C413.48,243.03 413.78,240.98 414.08,238.95C414.38,236.93 414.69,234.9 414.99,232.9C415.29,230.93 415.59,228.96 415.89,227.02C416.19,225.12 416.48,223.23 416.79,221.38C417.09,219.58 417.39,217.79 417.7,216.05C418,214.37 418.29,212.71 418.6,211.09C418.9,209.54 419.2,208.01 419.51,206.53C419.8,205.12 420.1,203.74 420.41,202.41C420.7,201.16 421.01,199.94 421.32,198.78C421.61,197.71 421.91,196.66 422.22,195.69C422.51,194.8 422.8,193.94 423.12,193.16C423.41,192.46 423.71,191.78 424.03,191.19C424.31,190.67 424.61,190.18 424.93,189.77C425.22,189.41 425.52,189.09 425.84,188.83C426.13,188.59 426.43,188.39 426.74,188.25C427.03,188.12 427.34,188.08 427.64,187.98C427.94,187.88 428.25,187.77 428.55,187.65C428.85,187.53 429.14,187.33 429.45,187.24C429.75,187.15 430.06,187.09 430.36,187.11C430.66,187.13 430.97,187.24 431.26,187.38C431.57,187.53 431.87,187.76 432.16,188.01C432.48,188.28 432.78,188.61 433.07,188.96C433.39,189.35 433.68,189.79 433.97,190.25C434.29,190.76 434.59,191.31 434.88,191.89C435.19,192.52 435.49,193.2 435.78,193.9C436.09,194.66 436.39,195.46 436.68,196.28C436.99,197.16 437.3,198.08 437.59,199.02C437.9,200.01 438.19,201.04 438.49,202.09C438.8,203.18 439.1,204.31 439.4,205.45C439.71,206.63 440,207.83 440.3,209.04C440.6,210.27 440.91,211.52 441.21,212.77C441.51,214.03 441.81,215.3 442.11,216.55C442.41,217.79 442.7,219.03 443.01,220.24C443.31,221.41 443.61,222.58 443.92,223.7C444.21,224.75 444.5,225.8 444.82,226.76C445.11,227.64 445.41,228.5 445.73,229.27C446.01,229.94 446.3,230.6 446.63,231.12C446.91,231.56 447.19,232 447.53,232.24C447.81,232.44 448.14,232.57 448.44,232.57C448.74,232.57 449.06,232.39 449.34,232.21C449.66,232 449.96,231.66 450.25,231.33C450.57,230.96 450.86,230.53 451.15,230.09C451.46,229.63 451.75,229.13 452.05,228.64C452.35,228.14 452.66,227.62 452.96,227.11C453.26,226.61 453.55,226.1 453.86,225.61C454.16,225.13 454.46,224.66 454.77,224.22C455.06,223.8 455.36,223.39 455.67,223.02C455.96,222.67 456.27,222.33 456.58,222.04C456.87,221.77 457.17,221.52 457.48,221.32C457.77,221.13 458.07,220.98 458.38,220.87C458.68,220.77 458.99,220.7 459.29,220.68C459.59,220.66 459.89,220.69 460.19,220.73C460.49,220.77 460.8,220.86 461.1,220.93Q461.4,221 462,221.17" style="vector-effect: non-scaling-stroke; fill: none; stroke: rgb(0, 100, 80); stroke-opacity: 1; stroke-width: 2px; opacity: 1;"/></g><g class="points"/><g class="text"/></g><g class="trace scatter trace480b50" style="stroke-miterlimit: 2; opacity: 1;"><g class="fills"/><g class="errorbars"/><g class="lines"><path class="js-line" d="M0,72.8Q0.62,72.61 0.9,72.39C1.24,72.13 1.53,71.69 1.81,71.26C2.14,70.76 2.42,70.16 2.71,69.55C3.03,68.89 3.33,68.16 3.62,67.43C3.93,66.66 4.22,65.85 4.52,65.05C4.82,64.23 5.12,63.39 5.42,62.55C5.72,61.71 6.03,60.86 6.33,60.02C6.63,59.19 6.92,58.34 7.23,57.53C7.53,56.74 7.83,55.96 8.14,55.21C8.43,54.5 8.72,53.8 9.04,53.17C9.33,52.59 9.63,52.02 9.95,51.54C10.23,51.12 10.52,50.7 10.85,50.42C11.13,50.18 11.44,49.97 11.75,49.92C12.04,49.88 12.38,49.95 12.66,50.11C12.99,50.3 13.28,50.67 13.56,51.06C13.9,51.54 14.19,52.17 14.47,52.82C14.8,53.59 15.09,54.48 15.37,55.42C15.69,56.49 15.98,57.67 16.27,58.9C16.59,60.27 16.89,61.74 17.18,63.26C17.5,64.93 17.79,66.69 18.08,68.51C18.39,70.47 18.7,72.53 18.99,74.65C19.3,76.91 19.6,79.26 19.89,81.66C20.2,84.2 20.5,86.82 20.79,89.5C21.1,92.31 21.4,95.2 21.7,98.14C22.01,101.21 22.3,104.35 22.6,107.54C22.91,110.85 23.21,114.22 23.51,117.64C23.82,121.16 24.11,124.75 24.41,128.38C24.72,132.1 25.02,135.88 25.32,139.7C25.63,143.6 25.92,147.55 26.22,151.53C26.52,155.58 26.82,159.67 27.12,163.77C27.42,167.9 27.72,172.23 28.03,176.23C28.32,179.95 28.62,183.53 28.93,187C29.22,190.26 29.54,193.3 29.84,196.48C30.14,199.71 30.44,202.97 30.74,206.25C31.04,209.59 31.33,213.04 31.64,216.34C31.94,219.52 32.25,222.61 32.55,225.7C32.85,228.74 33.15,231.72 33.45,234.73C33.75,237.74 34.06,240.75 34.36,243.76C34.66,246.77 34.96,249.78 35.26,252.78C35.56,255.75 35.86,258.74 36.16,261.67C36.46,264.54 36.75,267.49 37.07,270.19C37.36,272.64 37.64,275.03 37.97,277.2C38.25,279.09 38.51,281.04 38.88,282.5C39.15,283.56 39.43,284.44 39.78,285.18C40.05,285.76 40.32,286.34 40.68,286.64C40.95,286.86 41.3,287.03 41.59,286.99C41.9,286.94 42.21,286.6 42.49,286.3C42.83,285.94 43.12,285.44 43.4,284.92C43.73,284.31 44.02,283.59 44.3,282.84C44.62,281.99 44.92,281.03 45.21,280.08C45.52,279.07 45.82,278.04 46.11,276.96C46.42,275.81 46.71,274.59 47.01,273.39C47.31,272.17 47.61,270.9 47.92,269.71C48.21,268.57 48.51,267.46 48.82,266.39C49.11,265.39 49.42,264.42 49.73,263.5C50.02,262.65 50.32,261.83 50.63,261.06C50.92,260.34 51.22,259.66 51.53,259C51.82,258.37 52.12,257.74 52.44,257.17C52.73,256.66 53.02,256.15 53.34,255.74C53.62,255.38 53.92,255.04 54.25,254.81C54.53,254.61 54.84,254.45 55.15,254.4C55.44,254.35 55.76,254.4 56.05,254.5C56.37,254.61 56.67,254.84 56.96,255.09C57.28,255.38 57.57,255.76 57.86,256.16C58.18,256.61 58.48,257.12 58.77,257.66C59.09,258.25 59.38,258.9 59.67,259.57C59.98,260.29 60.29,261.07 60.58,261.86C60.89,262.7 61.19,263.58 61.48,264.48C61.79,265.42 62.08,266.39 62.38,267.37C62.69,268.38 62.99,269.42 63.29,270.44C63.59,271.46 63.88,272.5 64.19,273.49C64.49,274.44 64.78,275.39 65.1,276.25C65.39,277.03 65.68,277.79 66,278.45C66.28,279.03 66.53,279.7 66.9,280.01C67.17,280.24 67.52,280.39 67.81,280.35C68.12,280.3 68.43,279.95 68.71,279.66C69.04,279.31 69.33,278.83 69.62,278.35C69.94,277.81 70.23,277.2 70.52,276.58C70.83,275.92 71.12,275.21 71.42,274.5C71.73,273.77 72.03,273.01 72.33,272.25C72.63,271.48 72.93,270.7 73.23,269.91C73.53,269.11 73.84,268.31 74.14,267.5C74.44,266.69 74.74,265.87 75.04,265.07C75.34,264.28 75.65,263.49 75.95,262.72C76.25,261.96 76.55,261.23 76.85,260.48C77.15,259.72 77.46,258.97 77.75,258.18C78.06,257.34 78.36,256.45 78.66,255.57C78.96,254.67 79.25,253.74 79.56,252.85C79.86,251.98 80.16,251.11 80.47,250.27C80.77,249.46 81.06,248.65 81.37,247.88C81.66,247.15 81.96,246.44 82.27,245.76C82.56,245.12 82.87,244.5 83.18,243.92C83.47,243.38 83.77,242.85 84.08,242.37C84.37,241.92 84.68,241.51 84.99,241.11C85.29,240.72 85.59,240.36 85.89,240C86.19,239.65 86.48,239.31 86.79,239C87.08,238.71 87.39,238.44 87.7,238.19C88,237.95 88.3,237.72 88.6,237.5C88.9,237.29 89.21,237.09 89.51,236.9C89.81,236.71 90.11,236.53 90.41,236.34C90.71,236.15 91.02,235.98 91.32,235.77C91.63,235.56 91.93,235.33 92.22,235.08C92.53,234.81 92.83,234.52 93.12,234.2C93.43,233.85 93.74,233.46 94.03,233.05C94.34,232.61 94.64,232.12 94.93,231.63C95.24,231.11 95.54,230.55 95.84,229.99C96.15,229.41 96.44,228.81 96.74,228.22C97.04,227.63 97.34,227.02 97.64,226.43C97.94,225.84 98.24,225.26 98.55,224.69C98.85,224.14 99.14,223.6 99.45,223.08C99.75,222.58 100.05,222.09 100.36,221.62C100.66,221.16 100.96,220.72 101.26,220.27C101.56,219.82 101.86,219.38 102.16,218.93C102.46,218.48 102.77,218.02 103.07,217.57C103.37,217.12 103.67,216.66 103.97,216.21C104.27,215.77 104.57,215.31 104.88,214.91C105.17,214.54 105.46,214.16 105.78,213.87C106.07,213.61 106.36,213.36 106.68,213.21C106.97,213.07 107.29,212.98 107.59,212.98C107.89,212.98 108.2,213.06 108.49,213.19C108.81,213.34 109.11,213.59 109.4,213.87C109.72,214.18 110.01,214.59 110.3,215.01C110.62,215.49 110.92,216.04 111.21,216.61C111.53,217.23 111.82,217.91 112.11,218.61C112.42,219.36 112.72,220.17 113.01,220.98C113.32,221.83 113.62,222.73 113.92,223.61C114.22,224.51 114.52,225.43 114.82,226.32C115.12,227.2 115.42,228.07 115.73,228.93C116.03,229.77 116.33,230.59 116.63,231.41C116.93,232.23 117.23,233.04 117.53,233.86C117.83,234.68 118.14,235.51 118.44,236.33C118.74,237.15 119.04,237.96 119.34,238.77C119.64,239.56 119.94,240.36 120.25,241.13C120.55,241.88 120.84,242.62 121.15,243.34C121.44,244.03 121.74,244.7 122.05,245.35C122.35,245.97 122.65,246.58 122.96,247.14C123.25,247.66 123.53,248.2 123.86,248.62C124.14,248.99 124.44,249.4 124.77,249.57C125.05,249.71 125.37,249.72 125.67,249.69C125.98,249.66 126.29,249.51 126.58,249.35C126.9,249.17 127.19,248.91 127.48,248.63C127.8,248.31 128.09,247.93 128.38,247.52C128.7,247.07 129,246.56 129.29,246.03C129.61,245.45 129.9,244.81 130.19,244.14C130.51,243.42 130.81,242.64 131.1,241.84C131.41,241 131.71,240.11 132,239.22C132.31,238.3 132.6,237.35 132.9,236.39C133.21,235.41 133.51,234.4 133.81,233.4C134.11,232.39 134.41,231.36 134.71,230.34C135.01,229.32 135.31,228.3 135.62,227.3C135.92,226.32 136.21,225.35 136.52,224.41C136.81,223.51 137.11,222.63 137.42,221.79C137.71,221 138.01,220.22 138.33,219.51C138.62,218.86 138.91,218.23 139.23,217.67C139.52,217.17 139.81,216.7 140.14,216.31C140.42,215.98 140.72,215.65 141.04,215.46C141.32,215.29 141.65,215.17 141.95,215.16C142.25,215.15 142.57,215.26 142.85,215.42C143.17,215.6 143.47,215.89 143.75,216.21C144.08,216.57 144.37,217.03 144.66,217.5C144.98,218.02 145.27,218.61 145.56,219.2C145.87,219.83 146.17,220.5 146.47,221.17C146.77,221.85 147.07,222.54 147.37,223.24C147.67,223.95 147.97,224.66 148.27,225.39C148.57,226.13 148.88,226.89 149.18,227.64C149.48,228.4 149.77,229.19 150.08,229.93C150.38,230.64 150.64,231.46 150.99,232.01C151.26,232.44 151.56,232.79 151.89,233.03C152.17,233.24 152.48,233.35 152.79,233.43C153.09,233.5 153.4,233.52 153.7,233.49C154,233.46 154.31,233.37 154.6,233.25C154.91,233.12 155.22,232.92 155.51,232.7C155.82,232.46 156.12,232.16 156.41,231.85C156.72,231.51 157.03,231.13 157.32,230.73C157.63,230.31 157.93,229.84 158.22,229.37C158.53,228.88 158.82,228.37 159.12,227.86C159.42,227.34 159.73,226.81 160.03,226.29C160.33,225.78 160.62,225.26 160.93,224.77C161.23,224.29 161.53,223.82 161.84,223.37C162.13,222.95 162.43,222.53 162.74,222.16C163.03,221.81 163.33,221.47 163.64,221.19C163.93,220.93 164.24,220.68 164.55,220.5C164.84,220.33 165.14,220.19 165.45,220.12C165.75,220.05 166.06,220.04 166.36,220.09C166.67,220.14 166.97,220.28 167.26,220.45C167.58,220.64 167.87,220.92 168.16,221.23C168.48,221.57 168.78,221.99 169.07,222.43C169.39,222.91 169.68,223.45 169.97,223.99C170.28,224.57 170.58,225.18 170.88,225.8C171.19,226.44 171.48,227.1 171.78,227.77C172.08,228.46 172.38,229.15 172.68,229.87C172.99,230.61 173.29,231.38 173.59,232.16C173.9,232.97 174.19,233.81 174.49,234.67C174.8,235.57 175.1,236.49 175.4,237.43C175.71,238.42 176,239.43 176.3,240.47C176.61,241.55 176.91,242.67 177.21,243.8C177.52,244.98 177.81,246.19 178.11,247.41C178.41,248.67 178.71,249.95 179.01,251.25C179.32,252.58 179.62,253.93 179.92,255.28C180.22,256.65 180.52,258.03 180.82,259.4C181.12,260.75 181.42,262.13 181.73,263.44C182.02,264.69 182.32,265.94 182.63,267.11C182.92,268.18 183.22,269.2 183.53,270.18C183.82,271.08 184.11,272.01 184.44,272.77C184.72,273.41 184.98,274.08 185.34,274.48C185.61,274.78 185.93,275.04 186.25,275.1C186.54,275.16 186.89,275.1 187.15,274.91C187.52,274.64 187.78,273.95 188.05,273.31C188.41,272.47 188.67,271.32 188.96,270.25C189.28,269.08 189.56,267.81 189.86,266.55C190.17,265.24 190.47,263.89 190.77,262.54C191.08,261.15 191.37,259.73 191.67,258.33C191.97,256.93 192.27,255.52 192.58,254.15C192.88,252.83 193.17,251.53 193.48,250.27C193.77,249.06 194.08,247.92 194.38,246.72C194.69,245.49 194.98,244.18 195.29,242.96C195.58,241.81 195.88,240.68 196.19,239.61C196.48,238.61 196.79,237.64 197.1,236.72C197.39,235.87 197.68,235.06 198,234.3C198.29,233.61 198.58,232.95 198.9,232.35C199.19,231.82 199.49,231.31 199.81,230.88C200.09,230.5 200.39,230.15 200.71,229.88C201,229.64 201.31,229.44 201.62,229.33C201.91,229.23 202.22,229.18 202.52,229.2C202.82,229.22 203.13,229.31 203.42,229.44C203.73,229.58 204.04,229.79 204.33,230.01C204.64,230.25 204.93,230.57 205.23,230.85C205.53,231.13 205.84,231.39 206.14,231.67C206.44,231.95 206.75,232.23 207.04,232.54C207.35,232.86 207.62,233.32 207.95,233.57C208.23,233.78 208.54,233.9 208.85,234C209.14,234.1 209.45,234.15 209.75,234.18C210.05,234.21 210.36,234.22 210.66,234.2C210.96,234.18 211.26,234.11 211.56,234.04C211.87,233.96 212.17,233.86 212.47,233.75C212.77,233.64 213.07,233.5 213.37,233.36C213.67,233.21 213.97,233.05 214.27,232.88C214.58,232.7 214.88,232.52 215.18,232.32C215.49,232.11 215.78,231.88 216.08,231.64C216.39,231.39 216.69,231.13 216.99,230.85C217.3,230.55 217.6,230.23 217.89,229.89C218.2,229.53 218.5,229.15 218.79,228.75C219.1,228.32 219.4,227.86 219.7,227.39C220.01,226.9 220.3,226.38 220.6,225.86C220.91,225.32 221.21,224.76 221.51,224.2C221.81,223.64 222.11,223.07 222.41,222.52C222.71,221.98 223.01,221.43 223.32,220.91C223.62,220.41 223.91,219.9 224.22,219.44C224.51,219 224.81,218.57 225.12,218.19C225.41,217.83 225.71,217.49 226.03,217.21C226.32,216.95 226.62,216.71 226.93,216.55C227.22,216.4 227.53,216.28 227.84,216.24C228.14,216.2 228.45,216.21 228.74,216.28C229.05,216.35 229.35,216.5 229.64,216.67C229.96,216.86 230.26,217.12 230.55,217.4C230.86,217.7 231.16,218.05 231.45,218.41C231.76,218.79 232.06,219.22 232.36,219.63C232.66,220.05 232.95,220.51 233.26,220.89C233.55,221.24 233.83,221.61 234.16,221.82C234.44,222 234.76,222.1 235.07,222.12C235.37,222.14 235.68,222.07 235.97,221.96C236.28,221.84 236.59,221.65 236.88,221.42C237.2,221.16 237.49,220.81 237.78,220.46C238.09,220.08 238.38,219.64 238.68,219.22C238.99,218.79 239.29,218.33 239.59,217.89C239.89,217.46 240.18,217.02 240.49,216.6C240.79,216.2 241.09,215.8 241.4,215.43C241.69,215.08 241.99,214.75 242.3,214.45C242.59,214.17 242.9,213.9 243.21,213.68C243.5,213.48 243.8,213.29 244.11,213.17C244.4,213.05 244.71,212.97 245.01,212.94C245.31,212.91 245.62,212.93 245.92,213C246.23,213.07 246.53,213.21 246.82,213.37C247.13,213.55 247.44,213.79 247.73,214.05C248.05,214.34 248.34,214.68 248.63,215.04C248.94,215.43 249.24,215.88 249.53,216.34C249.84,216.84 250.15,217.37 250.44,217.93C250.75,218.52 251.05,219.15 251.34,219.79C251.65,220.47 251.95,221.18 252.25,221.9C252.56,222.65 252.85,223.43 253.15,224.22C253.45,225.03 253.75,225.87 254.05,226.71C254.36,227.57 254.66,228.44 254.96,229.33C255.26,230.23 255.56,231.15 255.86,232.08C256.16,233.03 256.47,233.99 256.77,234.96C257.07,235.95 257.37,236.95 257.67,237.96C257.97,238.98 258.28,240.02 258.58,241.06C258.88,242.11 259.18,243.18 259.48,244.25C259.78,245.33 260.08,246.42 260.38,247.51C260.68,248.61 260.99,249.72 261.29,250.83C261.59,251.94 261.89,253.05 262.19,254.17C262.49,255.29 262.8,256.42 263.1,257.55C263.4,258.69 263.7,259.85 264,261C264.3,262.15 264.59,263.34 264.9,264.46C265.19,265.52 265.5,266.56 265.81,267.55C266.1,268.48 266.4,269.37 266.71,270.24C267.01,271.07 267.31,271.88 267.62,272.67C267.92,273.42 268.22,274.15 268.52,274.87C268.82,275.56 269.12,276.24 269.42,276.91C269.72,277.57 270.03,278.22 270.33,278.86C270.63,279.49 270.92,280.14 271.23,280.74C271.52,281.31 271.83,281.86 272.14,282.38C272.43,282.87 272.73,283.34 273.04,283.78C273.33,284.2 273.63,284.65 273.95,284.99C274.23,285.29 274.53,285.58 274.85,285.74C275.13,285.89 275.45,285.97 275.75,285.97C276.05,285.97 276.37,285.87 276.66,285.74C276.97,285.61 277.26,285.38 277.56,285.17C277.87,284.95 278.17,284.7 278.47,284.46C278.77,284.21 279.07,283.96 279.37,283.7C279.67,283.44 279.97,283.18 280.27,282.91C280.57,282.64 280.88,282.36 281.18,282.07C281.49,281.77 281.8,281.51 282.08,281.14C282.41,280.71 282.71,280.18 282.99,279.62C283.31,278.99 283.6,278.26 283.89,277.52C284.2,276.71 284.5,275.84 284.79,274.96C285.1,274.04 285.4,273.07 285.7,272.11C286,271.14 286.3,270.16 286.6,269.18C286.9,268.2 287.21,267.22 287.51,266.24C287.81,265.27 288.1,264.28 288.41,263.32C288.71,262.38 289.01,261.44 289.32,260.54C289.62,259.67 289.91,258.82 290.22,258.01C290.51,257.24 290.81,256.5 291.12,255.79C291.41,255.13 291.72,254.49 292.03,253.89C292.32,253.34 292.61,252.8 292.93,252.33C293.22,251.9 293.52,251.5 293.84,251.17C294.13,250.88 294.42,250.61 294.74,250.44C295.03,250.29 295.34,250.18 295.64,250.16C295.94,250.14 296.26,250.21 296.55,250.32C296.86,250.44 297.16,250.65 297.45,250.88C297.77,251.13 298.07,251.46 298.36,251.8C298.67,252.16 298.97,252.58 299.26,252.99C299.57,253.42 299.86,253.89 300.16,254.35C300.46,254.82 300.77,255.31 301.07,255.78C301.37,256.25 301.65,256.75 301.97,257.17C302.26,257.56 302.56,257.92 302.88,258.23C303.17,258.52 303.46,258.8 303.78,258.99C304.07,259.17 304.37,259.31 304.68,259.37C304.98,259.43 305.29,259.44 305.59,259.38C305.9,259.32 306.21,259.19 306.49,259C306.82,258.78 307.12,258.46 307.4,258.09C307.73,257.65 308.01,257.07 308.3,256.49C308.62,255.85 308.92,255.14 309.21,254.4C309.53,253.6 309.82,252.74 310.11,251.87C310.42,250.96 310.71,250 311.01,249.04C311.32,248.06 311.62,247.06 311.92,246.06C312.22,245.04 312.52,244.02 312.82,242.98C313.12,241.93 313.43,240.87 313.73,239.8C314.04,238.7 314.33,237.59 314.63,236.46C314.94,235.29 315.23,234.09 315.53,232.88C315.84,231.65 316.14,230.38 316.44,229.13C316.74,227.88 317.04,226.61 317.34,225.36C317.64,224.12 317.95,222.88 318.25,221.65C318.55,220.44 318.85,219.24 319.15,218.06C319.45,216.9 319.74,215.74 320.05,214.61C320.35,213.5 320.65,212.41 320.96,211.34C321.26,210.3 321.55,209.27 321.86,208.27C322.16,207.3 322.46,206.35 322.77,205.43C323.07,204.55 323.36,203.68 323.67,202.86C323.96,202.08 324.27,201.32 324.58,200.61C324.87,199.95 325.17,199.31 325.48,198.73C325.77,198.2 326.06,197.68 326.38,197.24C326.67,196.85 326.97,196.48 327.29,196.19C327.58,195.93 327.87,195.7 328.19,195.57C328.48,195.45 328.8,195.39 329.1,195.4C329.4,195.41 329.71,195.51 330,195.65C330.31,195.8 330.61,196.04 330.9,196.29C331.22,196.57 331.52,196.91 331.81,197.27C332.12,197.66 332.42,198.09 332.71,198.54C333.02,199.01 333.32,199.52 333.62,200.03C333.93,200.55 334.22,201.1 334.52,201.64C334.82,202.18 335.11,202.74 335.42,203.25C335.71,203.74 336.02,204.23 336.33,204.66C336.62,205.06 336.91,205.47 337.23,205.77C337.51,206.03 337.82,206.25 338.14,206.4C338.43,206.54 338.74,206.61 339.04,206.66C339.34,206.71 339.65,206.73 339.95,206.73C340.25,206.73 340.55,206.73 340.85,206.67C341.15,206.61 341.46,206.54 341.75,206.39C342.07,206.22 342.37,205.94 342.66,205.66C342.97,205.36 343.26,204.99 343.56,204.64C343.87,204.28 344.17,203.9 344.47,203.51C344.78,203.11 345.07,202.7 345.37,202.29C345.67,201.87 345.97,201.46 346.27,201.03C346.57,200.6 346.88,200.16 347.18,199.72C347.48,199.28 347.78,198.85 348.08,198.41C348.38,197.97 348.69,197.53 348.99,197.09C349.29,196.65 349.59,196.22 349.89,195.79C350.19,195.36 350.49,194.94 350.79,194.51C351.09,194.09 351.4,193.66 351.7,193.24C352,192.82 352.3,192.4 352.6,191.98C352.9,191.55 353.21,191.12 353.51,190.68C353.82,190.22 354.11,189.76 354.41,189.28C354.72,188.78 355.02,188.25 355.32,187.71C355.63,187.15 355.92,186.57 356.22,185.99C356.52,185.4 356.82,184.78 357.12,184.18C357.42,183.59 357.72,182.99 358.03,182.41C358.33,181.84 358.62,181.28 358.93,180.74C359.23,180.22 359.53,179.71 359.84,179.24C360.13,178.79 360.43,178.36 360.74,177.97C361.03,177.6 361.33,177.25 361.64,176.95C361.93,176.67 362.24,176.41 362.55,176.21C362.84,176.03 363.14,175.87 363.45,175.78C363.75,175.69 364.06,175.66 364.36,175.67C364.66,175.68 364.97,175.76 365.26,175.87C365.57,175.99 365.87,176.16 366.16,176.36C366.47,176.57 366.77,176.84 367.07,177.11C367.38,177.39 367.67,177.72 367.97,178.03C368.27,178.35 368.57,178.68 368.88,178.99C369.18,179.29 369.47,179.59 369.78,179.86C370.07,180.12 370.37,180.37 370.68,180.58C370.98,180.79 371.28,180.98 371.59,181.13C371.88,181.28 372.18,181.43 372.49,181.49C372.79,181.55 373.13,181.65 373.4,181.52C373.75,181.35 374.03,180.78 374.3,180.28C374.65,179.65 374.92,178.79 375.21,177.99C375.52,177.13 375.81,176.2 376.11,175.3C376.41,174.38 376.71,173.45 377.01,172.52C377.31,171.58 377.62,170.64 377.92,169.7C378.22,168.77 378.52,167.83 378.82,166.9C379.12,165.98 379.43,165.07 379.73,164.17C380.03,163.29 380.33,162.41 380.63,161.55C380.93,160.72 381.22,159.9 381.53,159.11C381.83,158.35 382.13,157.61 382.44,156.9C382.73,156.24 383.03,155.59 383.34,154.99C383.63,154.44 383.93,153.91 384.25,153.44C384.54,153.02 384.83,152.61 385.15,152.3C385.43,152.02 385.73,151.77 386.05,151.63C386.34,151.51 386.66,151.44 386.96,151.48C387.27,151.52 387.58,151.7 387.86,151.91C388.19,152.16 388.49,152.55 388.77,152.96C389.1,153.44 389.39,154.03 389.67,154.65C390,155.37 390.29,156.18 390.58,157.03C390.9,157.98 391.19,159.03 391.48,160.11C391.8,161.3 392.09,162.57 392.38,163.89C392.69,165.32 393,166.81 393.29,168.36C393.6,170.02 393.9,171.75 394.19,173.52C394.5,175.4 394.81,177.34 395.1,179.32C395.41,181.4 395.71,183.55 396,185.73C396.31,188 396.6,190.32 396.9,192.68C397.21,195.11 397.51,197.6 397.81,200.11C398.12,202.68 398.41,205.29 398.71,207.92C399.01,210.59 399.32,213.3 399.62,216.01C399.92,218.75 400.22,221.51 400.52,224.26C400.82,227.01 401.12,229.77 401.42,232.51C401.72,235.23 402.03,237.94 402.33,240.62C402.63,243.24 402.92,245.86 403.23,248.4C403.53,250.84 403.82,253.32 404.14,255.58C404.43,257.6 404.72,259.54 405.04,261.31C405.32,262.86 405.61,264.4 405.95,265.66C406.22,266.66 406.45,267.75 406.85,268.31C407.11,268.67 407.48,269.06 407.75,269C408.1,268.92 408.4,268.05 408.66,267.32C409.08,266.15 409.28,264.23 409.56,262.48C409.89,260.42 410.18,258.06 410.47,255.75C410.78,253.3 411.08,250.79 411.37,248.16C411.68,245.32 411.97,242.26 412.27,239.3C412.57,236.32 412.88,233.3 413.18,230.32C413.48,227.38 413.78,224.44 414.08,221.55C414.38,218.71 414.68,215.89 414.99,213.11C415.29,210.4 415.59,207.73 415.89,205.1C416.19,202.55 416.48,200.04 416.79,197.58C417.09,195.22 417.39,192.9 417.7,190.64C418,188.48 418.29,186.35 418.6,184.3C418.89,182.35 419.2,180.45 419.51,178.62C419.8,176.9 420.1,175.23 420.41,173.64C420.7,172.16 421,170.72 421.32,169.37C421.61,168.13 421.9,166.93 422.22,165.83C422.5,164.85 422.79,163.9 423.12,163.06C423.4,162.33 423.69,161.62 424.03,161.04C424.31,160.56 424.59,160.1 424.93,159.81C425.21,159.57 425.53,159.37 425.84,159.35C426.14,159.33 426.46,159.48 426.74,159.67C427.08,159.9 427.36,160.32 427.64,160.75C427.98,161.27 428.27,161.92 428.55,162.59C428.88,163.36 429.16,164.23 429.45,165.12C429.77,166.1 430.07,167.16 430.36,168.22C430.67,169.33 430.97,170.49 431.26,171.66C431.57,172.88 431.87,174.12 432.16,175.41C432.47,176.78 432.78,178.19 433.07,179.64C433.38,181.17 433.68,182.76 433.97,184.38C434.28,186.07 434.58,187.82 434.88,189.59C435.19,191.42 435.48,193.3 435.78,195.19C436.08,197.11 436.38,199.07 436.68,201.02C436.98,202.97 437.28,204.96 437.59,206.89C437.89,208.78 438.18,210.68 438.49,212.48C438.78,214.17 439.08,215.82 439.4,217.38C439.69,218.82 439.99,220.17 440.3,221.51C440.6,222.79 440.9,224.04 441.21,225.27C441.51,226.46 441.8,227.62 442.11,228.76C442.4,229.86 442.7,230.94 443.01,231.98C443.3,232.97 443.61,233.95 443.92,234.87C444.21,235.72 444.5,236.56 444.82,237.32C445.11,238 445.4,238.68 445.73,239.23C446.01,239.69 446.29,240.18 446.63,240.44C446.9,240.65 447.24,240.83 447.53,240.8C447.84,240.77 448.16,240.47 448.44,240.19C448.78,239.84 449.06,239.3 449.34,238.78C449.67,238.18 449.96,237.47 450.25,236.76C450.57,235.99 450.86,235.15 451.15,234.31C451.46,233.43 451.75,232.51 452.05,231.6C452.35,230.68 452.66,229.74 452.96,228.81C453.26,227.89 453.55,226.97 453.86,226.07C454.16,225.2 454.46,224.34 454.77,223.51C455.06,222.72 455.36,221.94 455.67,221.21C455.96,220.52 456.26,219.85 456.58,219.23C456.87,218.66 457.16,218.12 457.48,217.63C457.77,217.19 458.06,216.76 458.38,216.41C458.67,216.09 458.97,215.8 459.29,215.58C459.58,215.38 459.88,215.21 460.19,215.1C460.48,215 460.8,214.96 461.1,214.94Q461.4,214.92 462,215" style="vector-effect: non-scaling-stroke; fill: none; stroke: rgb(0, 176, 246); stroke-opacity: 1; stroke-width: 2px; opacity: 1;"/></g><g class="points"/><g class="text"/></g><g class="trace scatter tracef1587f" style="stroke-miterlimit: 2; opacity: 1;"><g class="fills"/><g class="errorbars"/><g class="lines"><path class="js-line" d="M0,63Q0.6,62.71 0.9,62.56C1.2,62.41 1.5,62.23 1.81,62.11C2.11,62 2.41,61.9 2.71,61.85C3.01,61.8 3.32,61.79 3.62,61.81C3.92,61.83 4.23,61.89 4.52,61.98C4.83,62.08 5.13,62.22 5.42,62.38C5.73,62.55 6.04,62.77 6.33,63.01C6.64,63.26 6.94,63.56 7.23,63.87C7.54,64.2 7.85,64.57 8.14,64.96C8.45,65.38 8.75,65.83 9.04,66.3C9.35,66.8 9.66,67.32 9.95,67.87C10.26,68.45 10.56,69.06 10.85,69.69C11.16,70.35 11.45,71.04 11.75,71.75C12.06,72.49 12.36,73.25 12.66,74.03C12.97,74.84 13.26,75.68 13.56,76.53C13.87,77.41 14.17,78.32 14.47,79.24C14.78,80.19 15.07,81.16 15.37,82.15C15.67,83.16 15.97,84.19 16.27,85.24C16.58,86.31 16.88,87.4 17.18,88.51C17.49,89.65 17.78,90.81 18.08,91.98C18.39,93.18 18.69,94.4 18.99,95.64C19.3,96.92 19.59,98.22 19.89,99.54C20.19,100.9 20.49,102.29 20.79,103.7C21.1,105.16 21.4,106.64 21.7,108.16C22.01,109.73 22.3,111.33 22.6,112.96C22.91,114.66 23.21,116.38 23.51,118.15C23.82,119.98 24.11,121.86 24.41,123.77C24.72,125.75 25.02,127.77 25.32,129.83C25.63,131.97 25.93,134.15 26.22,136.37C26.53,138.67 26.82,141.02 27.12,143.41C27.43,145.87 27.73,148.38 28.03,150.93C28.34,153.55 28.63,156.22 28.93,158.93C29.24,161.71 29.54,164.54 29.84,167.4C30.15,170.32 30.44,173.29 30.74,176.28C31.04,179.34 31.34,182.43 31.64,185.55C31.94,188.72 32.25,191.92 32.55,195.14C32.85,198.4 33.15,201.68 33.45,204.97C33.75,208.28 34.06,211.61 34.36,214.94C34.66,218.27 34.96,221.62 35.26,224.95C35.56,228.26 35.86,231.57 36.16,234.84C36.46,238.05 36.75,241.4 37.07,244.39C37.36,247.06 37.63,249.69 37.97,251.94C38.25,253.78 38.54,255.46 38.88,256.93C39.16,258.12 39.41,259.28 39.78,260.12C40.04,260.72 40.31,261.35 40.68,261.57C40.95,261.73 41.31,261.75 41.59,261.64C41.93,261.51 42.21,261.06 42.49,260.66C42.83,260.18 43.11,259.54 43.4,258.9C43.72,258.18 44.01,257.37 44.3,256.55C44.61,255.66 44.92,254.71 45.21,253.74C45.52,252.72 45.81,251.64 46.11,250.56C46.41,249.45 46.71,248.3 47.01,247.16C47.31,246.01 47.62,244.84 47.92,243.69C48.22,242.55 48.51,241.4 48.82,240.28C49.12,239.19 49.42,238.1 49.73,237.05C50.03,236.04 50.32,235.05 50.63,234.1C50.92,233.21 51.21,232.34 51.53,231.53C51.82,230.78 52.12,230.05 52.44,229.4C52.73,228.82 53.01,228.25 53.34,227.79C53.62,227.39 53.92,226.99 54.25,226.75C54.53,226.54 54.85,226.37 55.15,226.35C55.45,226.33 55.77,226.45 56.05,226.62C56.38,226.82 56.68,227.2 56.96,227.58C57.29,228.04 57.58,228.62 57.86,229.23C58.19,229.94 58.48,230.75 58.77,231.59C59.09,232.53 59.38,233.55 59.67,234.61C59.99,235.77 60.29,237.01 60.58,238.28C60.89,239.64 61.19,241.06 61.48,242.51C61.79,244.04 62.08,245.62 62.38,247.22C62.69,248.87 62.99,250.57 63.29,252.26C63.59,253.97 63.89,255.7 64.19,257.41C64.49,259.09 64.79,260.79 65.1,262.43C65.4,264.01 65.69,265.58 66,267.07C66.29,268.47 66.58,269.84 66.9,271.13C67.19,272.31 67.49,273.43 67.81,274.5C68.1,275.47 68.39,276.4 68.71,277.28C69,278.08 69.3,278.85 69.62,279.56C69.91,280.21 70.2,280.82 70.52,281.38C70.81,281.88 71.1,282.35 71.42,282.77C71.71,283.15 72.02,283.49 72.33,283.8C72.62,284.09 72.92,284.34 73.23,284.58C73.53,284.81 73.84,285.01 74.14,285.22C74.44,285.42 74.74,285.61 75.04,285.81C75.34,286.01 75.65,286.2 75.95,286.41C76.25,286.62 76.55,286.85 76.85,287.08C77.15,287.31 77.43,287.68 77.75,287.78C78.04,287.87 78.37,287.81 78.66,287.71C78.98,287.6 79.29,287.41 79.56,287.11C79.92,286.7 80.19,285.98 80.47,285.32C80.8,284.56 81.09,283.71 81.37,282.8C81.69,281.77 81.96,280.55 82.27,279.45C82.57,278.38 82.87,277.32 83.18,276.31C83.47,275.35 83.77,274.41 84.08,273.51C84.37,272.66 84.68,271.83 84.99,271.04C85.28,270.3 85.58,269.58 85.89,268.9C86.18,268.27 86.48,267.65 86.79,267.09C87.08,266.57 87.39,266.08 87.7,265.63C87.99,265.21 88.29,264.82 88.6,264.46C88.89,264.12 89.2,263.82 89.51,263.51C89.81,263.21 90.11,262.94 90.41,262.65C90.71,262.35 91.02,262.06 91.32,261.74C91.63,261.4 91.93,261.05 92.22,260.66C92.53,260.24 92.83,259.78 93.12,259.29C93.44,258.75 93.74,258.16 94.03,257.54C94.35,256.86 94.64,256.12 94.93,255.37C95.24,254.58 95.54,253.75 95.84,252.92C96.15,252.07 96.44,251.2 96.74,250.34C97.04,249.48 97.34,248.6 97.64,247.74C97.94,246.89 98.25,246.04 98.55,245.2C98.85,244.38 99.14,243.57 99.45,242.77C99.75,241.99 100.05,241.23 100.36,240.48C100.66,239.75 100.96,239.03 101.26,238.31C101.56,237.6 101.86,236.9 102.16,236.18C102.47,235.44 102.77,234.69 103.07,233.91C103.38,233.09 103.67,232.24 103.97,231.38C104.28,230.5 104.58,229.59 104.88,228.69C105.18,227.79 105.48,226.88 105.78,225.98C106.08,225.09 106.38,224.19 106.68,223.31C106.98,222.44 107.29,221.57 107.59,220.71C107.89,219.87 108.18,219.02 108.49,218.2C108.79,217.4 109.09,216.6 109.4,215.83C109.7,215.09 109.99,214.36 110.3,213.66C110.59,212.99 110.9,212.34 111.21,211.73C111.5,211.16 111.8,210.6 112.11,210.1C112.4,209.64 112.69,209.19 113.01,208.81C113.3,208.47 113.6,208.15 113.92,207.9C114.21,207.68 114.51,207.49 114.82,207.38C115.11,207.28 115.43,207.23 115.73,207.25C116.03,207.27 116.34,207.36 116.63,207.49C116.94,207.63 117.24,207.85 117.53,208.08C117.84,208.33 118.15,208.64 118.44,208.95C118.75,209.28 119.04,209.66 119.34,210.03C119.64,210.41 119.95,210.8 120.25,211.18C120.55,211.55 120.85,211.93 121.15,212.29C121.45,212.64 121.74,212.99 122.05,213.32C122.35,213.64 122.65,213.95 122.96,214.24C123.26,214.52 123.55,214.8 123.86,215.04C124.16,215.27 124.46,215.5 124.77,215.68C125.06,215.85 125.36,216.06 125.67,216.1C125.97,216.14 126.3,216.1 126.58,215.93C126.92,215.72 127.19,215.21 127.48,214.8C127.79,214.35 128.09,213.84 128.38,213.32C128.69,212.76 128.99,212.17 129.29,211.56C129.6,210.93 129.89,210.26 130.19,209.6C130.5,208.92 130.8,208.22 131.1,207.53C131.4,206.85 131.7,206.15 132,205.48C132.3,204.83 132.59,204.17 132.9,203.56C133.19,202.98 133.5,202.4 133.81,201.88C134.1,201.4 134.39,200.92 134.71,200.52C135,200.16 135.3,199.81 135.62,199.56C135.9,199.34 136.21,199.14 136.52,199.07C136.81,199 137.13,199.01 137.42,199.1C137.74,199.2 138.05,199.44 138.33,199.71C138.66,200.02 138.95,200.45 139.23,200.91C139.56,201.44 139.85,202.07 140.14,202.73C140.46,203.48 140.75,204.31 141.04,205.18C141.36,206.14 141.66,207.18 141.95,208.25C142.27,209.42 142.56,210.66 142.85,211.93C143.16,213.3 143.46,214.73 143.75,216.2C144.06,217.75 144.37,219.36 144.66,221C144.97,222.72 145.26,224.5 145.56,226.3C145.87,228.16 146.17,230.07 146.47,232C146.78,233.98 147.07,236 147.37,238.03C147.67,240.08 147.97,242.17 148.27,244.24C148.57,246.32 148.88,248.42 149.18,250.49C149.48,252.52 149.77,254.57 150.08,256.54C150.38,258.42 150.67,260.33 150.99,262.06C151.28,263.61 151.53,265.22 151.89,266.45C152.16,267.37 152.4,268.28 152.79,268.81C153.05,269.17 153.39,269.51 153.7,269.52C154,269.53 154.33,269.23 154.6,268.93C154.97,268.5 155.23,267.74 155.51,267.02C155.85,266.16 156.12,265.13 156.41,264.1C156.73,262.96 157.03,261.72 157.32,260.47C157.63,259.15 157.92,257.76 158.22,256.37C158.52,254.94 158.82,253.46 159.12,251.99C159.42,250.5 159.73,248.98 160.03,247.47C160.33,245.96 160.63,244.44 160.93,242.93C161.23,241.43 161.54,239.93 161.84,238.45C162.14,237 162.44,235.55 162.74,234.13C163.04,232.75 163.33,231.37 163.64,230.04C163.94,228.76 164.24,227.5 164.55,226.29C164.84,225.14 165.14,224.01 165.45,222.95C165.74,221.96 166.04,221 166.36,220.11C166.65,219.3 166.94,218.51 167.26,217.8C167.54,217.17 167.83,216.57 168.16,216.07C168.44,215.64 168.74,215.23 169.07,214.95C169.35,214.72 169.66,214.51 169.97,214.45C170.26,214.4 170.59,214.45 170.88,214.58C171.2,214.73 171.5,215.03 171.78,215.35C172.11,215.73 172.4,216.23 172.68,216.75C173.01,217.35 173.3,218.05 173.59,218.78C173.91,219.6 174.2,220.49 174.49,221.42C174.81,222.44 175.11,223.53 175.4,224.66C175.71,225.88 176.01,227.17 176.3,228.49C176.61,229.9 176.92,231.36 177.21,232.86C177.52,234.44 177.82,236.08 178.11,237.75C178.42,239.49 178.71,241.29 179.01,243.11C179.32,245 179.62,246.94 179.92,248.9C180.23,250.92 180.52,252.99 180.82,255.07C181.13,257.2 181.43,259.37 181.73,261.55C182.03,263.77 182.33,266.01 182.63,268.27C182.93,270.55 183.23,272.86 183.53,275.17C183.83,277.49 184.14,279.83 184.44,282.14C184.74,284.44 185.03,286.76 185.34,289C185.64,291.16 185.91,293.45 186.25,295.35C186.53,296.91 186.61,299.21 187.15,299.58C187.4,299.75 187.79,299.61 188.05,299.43C188.43,299.17 188.68,298.43 188.96,297.83C189.29,297.13 189.57,296.29 189.86,295.45C190.18,294.53 190.47,293.52 190.77,292.54C191.07,291.54 191.37,290.52 191.67,289.51C191.97,288.5 192.28,287.5 192.58,286.5C192.88,285.51 193.18,284.53 193.48,283.56C193.78,282.61 194.07,281.67 194.38,280.74C194.68,279.84 194.98,278.94 195.29,278.07C195.59,277.23 195.88,276.4 196.19,275.61C196.48,274.85 196.79,274.11 197.1,273.41C197.39,272.74 197.69,272.1 198,271.49C198.29,270.92 198.59,270.38 198.9,269.88C199.19,269.41 199.5,268.97 199.81,268.56C200.1,268.18 200.4,267.83 200.71,267.51C201,267.21 201.31,266.94 201.62,266.67C201.92,266.41 202.22,266.18 202.52,265.93C202.82,265.69 203.12,265.45 203.42,265.2C203.72,264.95 204.03,264.68 204.33,264.42C204.63,264.16 204.93,263.88 205.23,263.63C205.53,263.38 205.83,263.13 206.14,262.91C206.44,262.69 206.73,262.49 207.04,262.31C207.34,262.13 207.65,261.97 207.95,261.82C208.25,261.67 208.56,261.59 208.85,261.4C209.16,261.2 209.45,260.9 209.75,260.62C210.06,260.33 210.36,260.01 210.66,259.71C210.96,259.41 211.26,259.1 211.56,258.8C211.86,258.5 212.17,258.2 212.47,257.89C212.77,257.58 213.07,257.27 213.37,256.95C213.67,256.63 213.97,256.3 214.27,255.97C214.57,255.64 214.88,255.3 215.18,254.97C215.48,254.63 215.78,254.3 216.08,253.96C216.38,253.62 216.69,253.27 216.99,252.93C217.29,252.59 217.59,252.25 217.89,251.91C218.19,251.57 218.49,251.24 218.79,250.91C219.09,250.59 219.39,250.27 219.7,249.96C220,249.66 220.29,249.36 220.6,249.08C220.9,248.81 221.2,248.54 221.51,248.3C221.81,248.07 222.1,247.84 222.41,247.65C222.71,247.47 223.01,247.3 223.32,247.17C223.62,247.04 223.92,246.96 224.22,246.86C224.52,246.76 224.82,246.65 225.12,246.55C225.42,246.45 225.72,246.3 226.03,246.24C226.33,246.18 226.63,246.14 226.93,246.17C227.23,246.2 227.55,246.28 227.84,246.4C228.15,246.52 228.45,246.71 228.74,246.91C229.05,247.13 229.34,247.4 229.64,247.67C229.95,247.95 230.25,248.27 230.55,248.58C230.85,248.9 231.15,249.22 231.45,249.55C231.75,249.88 232.06,250.23 232.36,250.57C232.66,250.9 232.95,251.25 233.26,251.55C233.55,251.83 233.85,252.09 234.16,252.3C234.45,252.49 234.76,252.67 235.07,252.77C235.36,252.87 235.67,252.94 235.97,252.92C236.27,252.9 236.58,252.76 236.88,252.64C237.19,252.51 237.48,252.33 237.78,252.17C238.08,252.01 238.38,251.85 238.68,251.7C238.98,251.55 239.29,251.4 239.59,251.26C239.89,251.12 240.19,250.99 240.49,250.88C240.79,250.77 241.1,250.68 241.4,250.6C241.7,250.53 242,250.47 242.3,250.43C242.6,250.39 242.91,250.37 243.21,250.37C243.51,250.37 243.81,250.4 244.11,250.43C244.41,250.47 244.71,250.52 245.01,250.58C245.31,250.64 245.62,250.72 245.92,250.81C246.22,250.9 246.52,251.01 246.82,251.1C247.12,251.19 247.43,251.29 247.73,251.37C248.03,251.44 248.33,251.49 248.63,251.55C248.93,251.61 249.23,251.66 249.53,251.74C249.84,251.82 250.14,251.92 250.44,252.05C250.75,252.18 251.05,252.34 251.34,252.53C251.65,252.73 251.96,252.97 252.25,253.24C252.56,253.53 252.86,253.85 253.15,254.2C253.46,254.58 253.76,255 254.05,255.44C254.36,255.91 254.67,256.42 254.96,256.95C255.27,257.52 255.57,258.13 255.86,258.76C256.17,259.43 256.48,260.12 256.77,260.84C257.08,261.59 257.37,262.38 257.67,263.18C257.98,264.01 258.28,264.88 258.58,265.75C258.89,266.64 259.18,267.56 259.48,268.48C259.78,269.41 260.08,270.36 260.38,271.31C260.68,272.27 260.99,273.24 261.29,274.21C261.59,275.19 261.89,276.18 262.19,277.18C262.49,278.19 262.8,279.2 263.1,280.22C263.4,281.25 263.7,282.31 264,283.35C264.3,284.39 264.59,285.45 264.9,286.45C265.19,287.4 265.49,288.35 265.81,289.21C266.1,289.99 266.41,290.68 266.71,291.42C267.01,292.17 267.32,292.93 267.62,293.69C267.92,294.46 268.22,295.24 268.52,296.01C268.82,296.77 269.11,297.53 269.42,298.26C269.72,298.96 270.01,299.66 270.33,300.3C270.62,300.89 270.91,301.47 271.23,301.96C271.52,302.4 271.82,302.81 272.14,303.14C272.42,303.42 272.72,303.7 273.04,303.84C273.33,303.97 273.66,304.08 273.95,304C274.27,303.91 274.57,303.56 274.85,303.23C275.19,302.83 275.46,302.26 275.75,301.72C276.07,301.12 276.37,300.46 276.66,299.79C276.97,299.07 277.27,298.3 277.56,297.52C277.87,296.69 278.17,295.82 278.47,294.94C278.78,294.02 279.07,293.07 279.37,292.12C279.67,291.14 279.97,290.15 280.27,289.15C280.57,288.14 280.88,287.1 281.18,286.08C281.48,285.07 281.77,284.05 282.08,283.06C282.38,282.09 282.68,281.14 282.99,280.21C283.29,279.32 283.58,278.44 283.89,277.59C284.18,276.78 284.48,275.99 284.79,275.22C285.09,274.49 285.39,273.77 285.7,273.08C286,272.42 286.29,271.78 286.6,271.15C286.9,270.55 287.2,269.96 287.51,269.39C287.81,268.84 288.1,268.3 288.41,267.77C288.71,267.26 289.01,266.77 289.32,266.28C289.62,265.8 289.91,265.33 290.22,264.88C290.52,264.44 290.81,264.02 291.12,263.61C291.42,263.21 291.72,262.82 292.03,262.44C292.33,262.08 292.63,261.74 292.93,261.39C293.23,261.04 293.55,260.71 293.84,260.34C294.15,259.95 294.44,259.52 294.74,259.09C295.04,258.65 295.34,258.19 295.64,257.74C295.94,257.29 296.25,256.85 296.55,256.4C296.85,255.95 297.15,255.5 297.45,255.04C297.75,254.58 298.06,254.11 298.36,253.63C298.66,253.14 298.96,252.66 299.26,252.15C299.56,251.63 299.86,251.1 300.16,250.55C300.47,249.98 300.77,249.41 301.07,248.81C301.38,248.19 301.67,247.55 301.97,246.89C302.28,246.2 302.59,245.49 302.88,244.76C303.19,243.99 303.49,243.19 303.78,242.37C304.09,241.5 304.39,240.59 304.68,239.66C304.99,238.67 305.3,237.65 305.59,236.6C305.9,235.49 306.2,234.34 306.49,233.17C306.8,231.94 307.1,230.67 307.4,229.38C307.71,228.04 308,226.66 308.3,225.26C308.61,223.82 308.91,222.35 309.21,220.87C309.52,219.35 309.81,217.81 310.11,216.26C310.41,214.69 310.71,213.1 311.01,211.5C311.31,209.88 311.62,208.25 311.92,206.59C312.23,204.9 312.52,203.19 312.82,201.45C313.13,199.65 313.43,197.79 313.73,195.95C314.03,194.09 314.33,192.21 314.63,190.35C314.93,188.51 315.23,186.68 315.53,184.87C315.83,183.1 316.13,181.33 316.44,179.6C316.74,177.91 317.03,176.24 317.34,174.61C317.64,173.03 317.94,171.48 318.25,169.97C318.55,168.52 318.84,167.1 319.15,165.72C319.44,164.41 319.74,163.13 320.05,161.91C320.34,160.76 320.65,159.65 320.96,158.59C321.25,157.61 321.54,156.67 321.86,155.79C322.15,155 322.45,154.23 322.77,153.55C323.06,152.95 323.34,152.37 323.67,151.89C323.95,151.48 324.25,151.09 324.58,150.83C324.86,150.61 325.17,150.43 325.48,150.39C325.77,150.35 326.1,150.43 326.38,150.57C326.71,150.73 327.01,151.04 327.29,151.37C327.62,151.76 327.91,152.26 328.19,152.78C328.52,153.38 328.81,154.07 329.1,154.79C329.42,155.59 329.71,156.47 330,157.37C330.31,158.35 330.61,159.4 330.9,160.48C331.21,161.63 331.52,162.84 331.81,164.08C332.12,165.38 332.41,166.74 332.71,168.11C333.02,169.54 333.32,171.02 333.62,172.51C333.93,174.05 334.22,175.63 334.52,177.21C334.82,178.83 335.12,180.47 335.42,182.12C335.72,183.78 336.03,185.47 336.33,187.14C336.63,188.81 336.93,190.48 337.23,192.13C337.53,193.74 337.83,195.37 338.14,196.92C338.43,198.39 338.72,199.84 339.04,201.2C339.33,202.44 339.63,203.63 339.95,204.74C340.24,205.75 340.53,206.71 340.85,207.61C341.14,208.42 341.43,209.2 341.75,209.9C342.04,210.53 342.34,211.12 342.66,211.64C342.94,212.1 343.24,212.53 343.56,212.88C343.85,213.2 344.15,213.47 344.47,213.69C344.76,213.89 345.06,214.05 345.37,214.17C345.66,214.28 345.97,214.35 346.27,214.4C346.57,214.45 346.88,214.47 347.18,214.47C347.48,214.47 347.78,214.45 348.08,214.43C348.38,214.41 348.69,214.38 348.99,214.33C349.29,214.28 349.59,214.22 349.89,214.15C350.19,214.08 350.49,214 350.79,213.9C351.09,213.8 351.4,213.68 351.7,213.55C352,213.42 352.3,213.29 352.6,213.14C352.9,212.99 353.21,212.83 353.51,212.67C353.81,212.51 354.11,212.34 354.41,212.17C354.71,212 355.02,211.83 355.32,211.66C355.62,211.49 355.92,211.31 356.22,211.13C356.52,210.95 356.82,210.76 357.12,210.57C357.42,210.38 357.73,210.19 358.03,209.99C358.33,209.8 358.63,209.6 358.93,209.4C359.23,209.2 359.54,209 359.84,208.79C360.14,208.59 360.44,208.38 360.74,208.17C361.04,207.96 361.34,207.75 361.64,207.53C361.94,207.31 362.25,207.09 362.55,206.86C362.85,206.62 363.15,206.38 363.45,206.12C363.76,205.85 364.06,205.57 364.36,205.27C364.67,204.96 364.97,204.63 365.26,204.27C365.57,203.89 365.87,203.47 366.16,203.03C366.47,202.55 366.78,202.04 367.07,201.5C367.39,200.91 367.68,200.27 367.97,199.6C368.29,198.86 368.59,198.08 368.88,197.25C369.2,196.35 369.49,195.4 369.78,194.4C370.09,193.31 370.39,192.16 370.68,190.95C371,189.61 371.3,188.19 371.59,186.69C371.91,185.04 372.2,183.26 372.49,181.46C372.8,179.56 373.1,177.56 373.4,175.57C373.71,173.53 374,171.45 374.3,169.37C374.6,167.27 374.91,165.15 375.21,163.04C375.51,160.93 375.81,158.81 376.11,156.71C376.41,154.62 376.71,152.54 377.01,150.48C377.31,148.45 377.61,146.43 377.92,144.44C378.22,142.5 378.51,140.58 378.82,138.69C379.12,136.86 379.42,135.05 379.73,133.29C380.03,131.6 380.32,129.94 380.63,128.34C380.92,126.82 381.22,125.33 381.53,123.9C381.82,122.56 382.12,121.26 382.44,120.03C382.73,118.9 383.02,117.81 383.34,116.81C383.63,115.91 383.92,115.05 384.25,114.29C384.53,113.63 384.81,112.99 385.15,112.49C385.43,112.08 385.71,111.67 386.05,111.46C386.33,111.29 386.67,111.18 386.96,111.22C387.27,111.27 387.59,111.51 387.86,111.77C388.2,112.1 388.49,112.61 388.77,113.13C389.11,113.76 389.39,114.54 389.67,115.34C390,116.27 390.29,117.32 390.58,118.41C390.9,119.64 391.19,120.98 391.48,122.36C391.8,123.88 392.09,125.5 392.38,127.17C392.69,128.98 393,130.89 393.29,132.85C393.6,134.95 393.9,137.14 394.19,139.38C394.5,141.75 394.81,144.2 395.1,146.71C395.41,149.34 395.71,152.05 396,154.81C396.31,157.69 396.6,160.64 396.9,163.63C397.21,166.73 397.51,169.9 397.81,173.11C398.12,176.41 398.41,179.77 398.71,183.16C399.02,186.63 399.32,190.15 399.62,193.68C399.92,197.27 400.22,200.9 400.52,204.52C400.82,208.17 401.12,211.84 401.42,215.49C401.72,219.11 402.03,222.75 402.33,226.33C402.63,229.84 402.92,233.33 403.23,236.75C403.53,240.06 403.83,243.35 404.14,246.53C404.43,249.56 404.73,252.54 405.04,255.4C405.33,258.08 405.63,260.73 405.95,263.19C406.24,265.41 406.51,267.66 406.85,269.53C407.12,271.04 407.26,272.86 407.75,273.58C408,273.95 408.41,274.28 408.66,274.18C409.15,273.98 409.29,271.71 409.56,270.15C409.92,268.01 410.18,265.18 410.47,262.51C410.79,259.58 411.08,256.42 411.37,253.28C411.68,250.01 411.97,246.63 412.27,243.27C412.57,239.86 412.88,236.41 413.18,232.97C413.48,229.53 413.78,226.07 414.08,222.64C414.38,219.25 414.69,215.86 414.99,212.51C415.29,209.21 415.59,205.93 415.89,202.69C416.19,199.53 416.48,196.39 416.79,193.31C417.09,190.31 417.39,187.35 417.7,184.44C418,181.63 418.29,178.86 418.6,176.15C418.9,173.54 419.2,170.98 419.51,168.48C419.81,166.08 420.1,163.74 420.41,161.45C420.7,159.27 421.01,157.14 421.32,155.07C421.61,153.1 421.91,151.18 422.22,149.32C422.51,147.56 422.81,145.85 423.12,144.19C423.41,142.62 423.72,141.09 424.03,139.62C424.32,138.23 424.62,136.88 424.93,135.58C425.22,134.35 425.53,133.16 425.84,132.02C426.13,130.95 426.43,129.91 426.74,128.92C427.03,128 427.32,127.11 427.64,126.27C427.93,125.5 428.23,124.76 428.55,124.08C428.84,123.47 429.13,122.87 429.45,122.36C429.73,121.91 430.03,121.49 430.36,121.17C430.64,120.9 430.94,120.64 431.26,120.53C431.55,120.43 431.87,120.41 432.16,120.49C432.48,120.57 432.79,120.8 433.07,121.06C433.4,121.37 433.69,121.81 433.97,122.27C434.3,122.81 434.59,123.44 434.88,124.11C435.2,124.86 435.49,125.7 435.78,126.57C436.1,127.52 436.39,128.54 436.68,129.59C436.99,130.71 437.29,131.89 437.59,133.08C437.9,134.31 438.19,135.59 438.49,136.86C438.79,138.13 439.1,139.41 439.4,140.7C439.7,142 440,143.3 440.3,144.61C440.6,145.94 440.91,147.29 441.21,148.64C441.51,150 441.81,151.39 442.11,152.75C442.41,154.1 442.7,155.45 443.01,156.77C443.31,158.04 443.61,159.32 443.92,160.52C444.21,161.64 444.5,162.75 444.82,163.74C445.11,164.62 445.39,165.49 445.73,166.19C446.01,166.75 446.27,167.35 446.63,167.64C446.9,167.85 447.25,168.01 447.53,167.95C447.86,167.88 448.17,167.45 448.44,167.07C448.8,166.57 449.06,165.82 449.34,165.09C449.67,164.23 449.96,163.22 450.25,162.21C450.57,161.09 450.86,159.88 451.15,158.66C451.46,157.37 451.75,156.02 452.05,154.68C452.35,153.31 452.66,151.91 452.96,150.53C453.26,149.15 453.56,147.75 453.86,146.38C454.16,145.04 454.46,143.7 454.77,142.4C455.07,141.14 455.36,139.9 455.67,138.7C455.96,137.56 456.27,136.45 456.58,135.38C456.87,134.38 457.17,133.41 457.48,132.49C457.77,131.64 458.06,130.82 458.38,130.06C458.67,129.37 458.97,128.7 459.29,128.1C459.58,127.56 459.87,127.05 460.19,126.61C460.48,126.22 460.78,125.86 461.1,125.57Q461.39,125.32 462,124.95" style="vector-effect: non-scaling-stroke; fill: none; stroke: rgb(231, 107, 243); stroke-opacity: 1; stroke-width: 2px; opacity: 1;"/></g><g class="points"/><g class="text"/></g></g></g><g class="overplot"/><path class="xlines-above crisp" d="M0,0" style="fill: none;"/><path class="ylines-above crisp" d="M0,0" style="fill: none;"/><g class="overlines-above"/><g class="xaxislayer-above"><g class="xtick"><text text-anchor="middle" x="0" y="433" transform="translate(80,0)" style="font-family: 'Open Sans', verdana, arial, sans-serif; font-size: 12px; fill: rgb(42, 63, 95); fill-opacity: 1; white-space: pre;">0</text></g><g class="xtick"><text text-anchor="middle" x="0" y="433" transform="translate(170.23000000000002,0)" style="font-family: 'Open Sans', verdana, arial, sans-serif; font-size: 12px; fill: rgb(42, 63, 95); fill-opacity: 1; white-space: pre;">100</text></g><g class="xtick"><text text-anchor="middle" x="0" y="433" transform="translate(260.47,0)" style="font-family: 'Open Sans', verdana, arial, sans-serif; font-size: 12px; fill: rgb(42, 63, 95); fill-opacity: 1; white-space: pre;">200</text></g><g class="xtick"><text text-anchor="middle" x="0" y="433" transform="translate(350.7,0)" style="font-family: 'Open Sans', verdana, arial, sans-serif; font-size: 12px; fill: rgb(42, 63, 95); fill-opacity: 1; white-space: pre;">300</text></g><g class="xtick"><text text-anchor="middle" x="0" y="433" transform="translate(440.94,0)" style="font-family: 'Open Sans', verdana, arial, sans-serif; font-size: 12px; fill: rgb(42, 63, 95); fill-opacity: 1; white-space: pre;">400</text></g><g class="xtick"><text text-anchor="middle" x="0" y="433" transform="translate(531.1700000000001,0)" style="font-family: 'Open Sans', verdana, arial, sans-serif; font-size: 12px; fill: rgb(42, 63, 95); fill-opacity: 1; white-space: pre;">500</text></g></g><g class="yaxislayer-above"><g class="ytick"><text text-anchor="end" x="79" y="4.199999999999999" transform="translate(0,409.83)" style="font-family: 'Open Sans', verdana, arial, sans-serif; font-size: 12px; fill: rgb(42, 63, 95); fill-opacity: 1; white-space: pre;">10</text></g><g class="ytick"><text text-anchor="end" x="79" y="4.199999999999999" transform="translate(0,356.89)" style="font-family: 'Open Sans', verdana, arial, sans-serif; font-size: 12px; fill: rgb(42, 63, 95); fill-opacity: 1; white-space: pre;">20</text></g><g class="ytick"><text text-anchor="end" x="79" y="4.199999999999999" transform="translate(0,303.95)" style="font-family: 'Open Sans', verdana, arial, sans-serif; font-size: 12px; fill: rgb(42, 63, 95); fill-opacity: 1; white-space: pre;">30</text></g><g class="ytick"><text text-anchor="end" x="79" y="4.199999999999999" transform="translate(0,251.01)" style="font-family: 'Open Sans', verdana, arial, sans-serif; font-size: 12px; fill: rgb(42, 63, 95); fill-opacity: 1; white-space: pre;">40</text></g><g class="ytick"><text text-anchor="end" x="79" y="4.199999999999999" transform="translate(0,198.07)" style="font-family: 'Open Sans', verdana, arial, sans-serif; font-size: 12px; fill: rgb(42, 63, 95); fill-opacity: 1; white-space: pre;">50</text></g><g class="ytick"><text text-anchor="end" x="79" y="4.199999999999999" transform="translate(0,145.13)" style="font-family: 'Open Sans', verdana, arial, sans-serif; font-size: 12px; fill: rgb(42, 63, 95); fill-opacity: 1; white-space: pre;">60</text></g></g><g class="overaxes-above"/></g></g><g class="polarlayer"/><g class="ternarylayer"/><g class="geolayer"/><g class="funnelarealayer"/><g class="pielayer"/><g class="treemaplayer"/><g class="sunburstlayer"/><g class="glimages"/><defs id="topdefs-85039e"><g class="clips"/><clipPath id="legend85039e"><rect width="137" height="67" x="0" y="0"/></clipPath></defs><g class="layer-above"><g class="imagelayer"/><g class="shapelayer"/></g><g class="infolayer"><g class="legend" pointer-events="all" transform="translate(551.24, 100)"><rect class="bg" shape-rendering="crispEdges" style="stroke: rgb(68, 68, 68); stroke-opacity: 1; fill: rgb(255, 255, 255); fill-opacity: 1; stroke-width: 0px;" width="137" height="67" x="0" y="0"/><g class="scrollbox" transform="translate(0, 0)" clip-path="url('#legend85039e')"><g class="groups"><g class="traces" transform="translate(0, 14.5)" style="opacity: 1;"><text class="legendtext" text-anchor="start" x="40" y="4.680000000000001" style="font-family: 'Open Sans', verdana, arial, sans-serif; font-size: 12px; fill: rgb(42, 63, 95); fill-opacity: 1; white-space: pre;">Average Class I</text><g class="layers" style="opacity: 1;"><g class="legendfill"/><g class="legendlines"><path class="js-line" d="M5,0h30" style="fill: none; stroke: rgb(0, 100, 80); stroke-opacity: 1; stroke-width: 2px;"/></g><g class="legendsymbols"><g class="legendpoints"/></g></g><rect class="legendtoggle" x="0" y="-9.5" width="131.15625" height="19" style="fill: rgb(0, 0, 0); fill-opacity: 0;"/></g><g class="traces" transform="translate(0, 33.5)" style="opacity: 1;"><text class="legendtext" text-anchor="start" x="40" y="4.680000000000001" style="font-family: 'Open Sans', verdana, arial, sans-serif; font-size: 12px; fill: rgb(42, 63, 95); fill-opacity: 1; white-space: pre;">Average Class II</text><g class="layers" style="opacity: 1;"><g class="legendfill"/><g class="legendlines"><path class="js-line" d="M5,0h30" style="fill: none; stroke: rgb(0, 176, 246); stroke-opacity: 1; stroke-width: 2px;"/></g><g class="legendsymbols"><g class="legendpoints"/></g></g><rect class="legendtoggle" x="0" y="-9.5" width="131.15625" height="19" style="fill: rgb(0, 0, 0); fill-opacity: 0;"/></g><g class="traces" transform="translate(0, 52.5)" style="opacity: 1;"><text class="legendtext" text-anchor="start" x="40" y="4.680000000000001" style="font-family: 'Open Sans', verdana, arial, sans-serif; font-size: 12px; fill: rgb(42, 63, 95); fill-opacity: 1; white-space: pre;">Average Class III</text><g class="layers" style="opacity: 1;"><g class="legendfill"/><g class="legendlines"><path class="js-line" d="M5,0h30" style="fill: none; stroke: rgb(231, 107, 243); stroke-opacity: 1; stroke-width: 2px;"/></g><g class="legendsymbols"><g class="legendpoints"/></g></g><rect class="legendtoggle" x="0" y="-9.5" width="131.15625" height="19" style="fill: rgb(0, 0, 0); fill-opacity: 0;"/></g></g></g><rect class="scrollbar" rx="20" ry="3" width="0" height="0" style="fill: rgb(128, 139, 164); fill-opacity: 1;" x="0" y="0"/></g><g class="g-gtitle"><text class="gtitle" x="35" y="50" text-anchor="start" dy="0em" style="font-family: 'Open Sans', verdana, arial, sans-serif; font-size: 17px; fill: rgb(42, 63, 95); opacity: 1; font-weight: normal; white-space: pre;">Average curve: alpha-structure_group</text></g><g class="g-xtitle"><text class="xtitle" x="311" y="460.8" text-anchor="middle" style="font-family: 'Open Sans', verdana, arial, sans-serif; font-size: 14px; fill: rgb(42, 63, 95); opacity: 1; font-weight: normal; white-space: pre;">Domain</text></g><g class="g-ytitle"><text class="ytitle" transform="rotate(-90,40.840625,260)" x="40.840625" y="260" text-anchor="middle" style="font-family: 'Open Sans', verdana, arial, sans-serif; font-size: 14px; fill: rgb(42, 63, 95); opacity: 1; font-weight: normal; white-space: pre;">Frequency</text></g></g></svg>