<svg class="main-svg" xmlns="http://www.w3.org/2000/svg" xmlns:xlink="http://www.w3.org/1999/xlink" width="700" height="500" style="" viewBox="0 0 700 500"><rect x="0" y="0" width="700" height="500" style="fill: rgb(255, 255, 255); fill-opacity: 1;"/><defs id="defs-8ad372"><g class="clips"><clipPath id="clip8ad372xyplot" class="plotclip"><rect width="462" height="320"/></clipPath><clipPath class="axesclip" id="clip8ad372x"><rect x="80" y="0" width="462" height="500"/></clipPath><clipPath class="axesclip" id="clip8ad372y"><rect x="0" y="100" width="700" height="320"/></clipPath><clipPath class="axesclip" id="clip8ad372xy"><rect x="80" y="100" width="462" height="320"/></clipPath></g><g class="gradients"/></defs><g class="bglayer"><rect class="bg" x="80" y="100" width="462" height="320" style="fill: rgb(229, 236, 246); fill-opacity: 1; stroke-width: 0;"/></g><g class="layer-below"><g class="imagelayer"/><g class="shapelayer"/></g><g class="cartesianlayer"><g class="subplot xy"><g class="layer-subplot"><g class="shapelayer"/><g class="imagelayer"/></g><g class="gridlayer"><g class="x"><path class="xgrid crisp" transform="translate(170.23000000000002,0)" d="M0,100v320" style="stroke: rgb(255, 255, 255); stroke-opacity: 1; stroke-width: 1px;"/><path class="xgrid crisp" transform="translate(260.47,0)" d="M0,100v320" style="stroke: rgb(255, 255, 255); stroke-opacity: 1; stroke-width: 1px;"/><path class="xgrid crisp" transform="translate(350.7,0)" d="M0,100v320" style="stroke: rgb(255, 255, 255); stroke-opacity: 1; stroke-width: 1px;"/><path class="xgrid crisp" transform="translate(440.94,0)" d="M0,100v320" style="stroke: rgb(255, 255, 255); stroke-opacity: 1; stroke-width: 1px;"/><path class="xgrid crisp" transform="translate(531.1700000000001,0)" d="M0,100v320" style="stroke: rgb(255, 255, 255); stroke-opacity: 1; stroke-width: 1px;"/></g><g class="y"><path class="ygrid crisp" transform="translate(0,408.21)" d="M80,0h462" style="stroke: rgb(255, 255, 255); stroke-opacity: 1; stroke-width: 1px;"/><path class="ygrid crisp" transform="translate(0,336.43)" d="M80,0h462" style="stroke: rgb(255, 255, 255); stroke-opacity: 1; stroke-width: 1px;"/><path class="ygrid crisp" transform="translate(0,264.65)" d="M80,0h462" style="stroke: rgb(255, 255, 255); stroke-opacity: 1; stroke-width: 1px;"/><path class="ygrid crisp" transform="translate(0,192.88)" d="M80,0h462" style="stroke: rgb(255, 255, 255); stroke-opacity: 1; stroke-width: 1px;"/><path class="ygrid crisp" transform="translate(0,121.1)" d="M80,0h462" style="stroke: rgb(255, 255, 255); stroke-opacity: 1; stroke-width: 1px;"/></g></g><g class="zerolinelayer"><path class="xzl zl crisp" transform="translate(80,0)" d="M0,100v320" style="stroke: rgb(255, 255, 255); stroke-opacity: 1; stroke-width: 2px;"/></g><path class="xlines-below"/><path class="ylines-below"/><g class="overlines-below"/><g class="xaxislayer-below"/><g class="yaxislayer-below"/><g class="overaxes-below"/><g class="plot" transform="translate(80, 100)" clip-path="url('#clip8ad372xyplot')"><g class="scatterlayer mlayer"><g class="trace scatter trace099df4" style="stroke-miterlimit: 2; opacity: 1;"><g class="fills"/><g class="errorbars"/><g class="lines"><path class="js-line" d="M0,254.28Q0.62,254.01 0.9,253.75C1.24,253.43 1.53,252.92 1.81,252.42C2.14,251.83 2.42,251.13 2.71,250.41C3.03,249.61 3.33,248.73 3.62,247.83C3.93,246.86 4.23,245.82 4.52,244.76C4.83,243.63 5.12,242.46 5.42,241.26C5.73,240.01 6.03,238.72 6.33,237.41C6.64,236.05 6.93,234.66 7.23,233.26C7.54,231.82 7.84,230.35 8.14,228.87C8.44,227.36 8.74,225.82 9.04,224.28C9.34,222.71 9.65,221.13 9.95,219.54C10.25,217.93 10.55,216.3 10.85,214.67C11.15,213.02 11.45,211.37 11.75,209.71C12.05,208.04 12.36,206.37 12.66,204.69C12.96,203.01 13.26,201.32 13.56,199.63C13.86,197.94 14.17,196.24 14.47,194.54C14.77,192.84 15.07,191.14 15.37,189.44C15.67,187.74 15.97,186.04 16.27,184.35C16.57,182.66 16.88,180.97 17.18,179.29C17.48,177.62 17.78,175.94 18.08,174.28C18.38,172.62 18.69,170.97 18.99,169.33C19.29,167.7 19.59,166.08 19.89,164.47C20.19,162.87 20.49,161.29 20.79,159.71C21.09,158.16 21.4,156.61 21.7,155.08C22,153.57 22.3,152.07 22.6,150.58C22.9,149.12 23.21,147.67 23.51,146.23C23.81,144.82 24.11,143.42 24.41,142.04C24.71,140.69 25.02,139.35 25.32,138.02C25.62,136.72 25.92,135.43 26.22,134.16C26.52,132.92 26.81,131.68 27.12,130.47C27.42,129.29 27.72,128.12 28.03,126.97C28.33,125.85 28.62,124.73 28.93,123.64C29.23,122.57 29.53,121.52 29.84,120.49C30.14,119.49 30.44,118.51 30.74,117.55C31.04,116.62 31.33,115.7 31.64,114.8C31.94,113.94 32.24,113.09 32.55,112.27C32.85,111.48 33.14,110.71 33.45,109.97C33.75,109.26 34.05,108.57 34.36,107.91C34.65,107.28 34.95,106.67 35.26,106.09C35.55,105.55 35.85,105.02 36.16,104.53C36.45,104.07 36.76,103.63 37.07,103.23C37.36,102.86 37.66,102.51 37.97,102.2C38.26,101.91 38.57,101.64 38.88,101.42C39.17,101.21 39.47,101.04 39.78,100.9C40.07,100.77 40.38,100.67 40.68,100.6C40.98,100.53 41.29,100.51 41.59,100.49C41.89,100.47 42.19,100.48 42.49,100.5C42.79,100.52 43.1,100.55 43.4,100.6C43.7,100.65 44,100.72 44.3,100.82C44.61,100.92 44.91,101.05 45.21,101.2C45.52,101.36 45.82,101.55 46.11,101.76C46.42,101.99 46.72,102.25 47.01,102.53C47.32,102.83 47.63,103.17 47.92,103.54C48.23,103.93 48.53,104.36 48.82,104.82C49.14,105.32 49.44,105.86 49.73,106.43C50.05,107.05 50.34,107.72 50.63,108.42C50.94,109.18 51.24,109.99 51.53,110.84C51.84,111.75 52.15,112.72 52.44,113.72C52.75,114.8 53.05,115.94 53.34,117.11C53.65,118.37 53.96,119.69 54.25,121.04C54.56,122.48 54.86,123.98 55.15,125.51C55.46,127.13 55.76,128.82 56.05,130.53C56.36,132.33 56.66,134.18 56.96,136.06C57.27,138.02 57.56,140.04 57.86,142.08C58.17,144.2 58.47,146.36 58.77,148.55C59.08,150.81 59.37,153.12 59.67,155.45C59.98,157.84 60.28,160.27 60.58,162.72C60.88,165.21 61.18,167.74 61.48,170.28C61.78,172.85 62.08,175.45 62.38,178.04C62.68,180.65 62.99,183.27 63.29,185.89C63.59,188.51 63.89,191.13 64.19,193.74C64.49,196.34 64.8,198.94 65.1,201.52C65.4,204.07 65.7,206.63 66,209.14C66.3,211.59 66.59,214.03 66.9,216.41C67.2,218.72 67.5,220.99 67.81,223.23C68.11,225.41 68.4,227.57 68.71,229.69C69.01,231.74 69.31,233.76 69.62,235.73C69.92,237.62 70.21,239.48 70.52,241.29C70.81,243.02 71.11,244.72 71.42,246.36C71.71,247.91 72.01,249.44 72.33,250.88C72.62,252.2 72.91,253.5 73.23,254.68C73.52,255.74 73.81,256.76 74.14,257.65C74.42,258.4 74.69,259.15 75.04,259.68C75.31,260.09 75.61,260.5 75.95,260.66C76.23,260.79 76.56,260.76 76.85,260.7C77.16,260.63 77.46,260.41 77.75,260.23C78.06,260.04 78.36,259.78 78.66,259.56C78.96,259.34 79.25,259.09 79.56,258.89C79.86,258.69 80.16,258.5 80.47,258.35C80.76,258.21 81.07,258.09 81.37,258.02C81.67,257.96 81.97,257.94 82.27,257.95C82.57,257.96 82.88,258 83.18,258.07C83.48,258.14 83.79,258.23 84.08,258.36C84.39,258.49 84.68,258.71 84.99,258.86C85.29,259.01 85.59,259.11 85.89,259.26C86.19,259.42 86.5,259.59 86.79,259.79C87.1,260 87.4,260.24 87.7,260.5C88.01,260.77 88.3,261.07 88.6,261.38C88.91,261.7 89.21,262.04 89.51,262.39C89.82,262.75 90.11,263.12 90.41,263.49C90.71,263.87 91.01,264.27 91.32,264.63C91.61,264.97 91.91,265.33 92.22,265.61C92.51,265.87 92.81,266.1 93.12,266.26C93.41,266.41 93.73,266.56 94.03,266.56C94.33,266.56 94.65,266.45 94.93,266.27C95.26,266.06 95.56,265.69 95.84,265.31C96.17,264.87 96.46,264.33 96.74,263.77C97.06,263.13 97.35,262.39 97.64,261.67C97.95,260.91 98.26,260.14 98.55,259.32C98.86,258.45 99.15,257.51 99.45,256.59C99.76,255.64 100.06,254.67 100.36,253.7C100.66,252.73 100.96,251.76 101.26,250.78C101.56,249.79 101.86,248.81 102.16,247.8C102.47,246.77 102.77,245.72 103.07,244.65C103.38,243.54 103.67,242.38 103.97,241.25C104.27,240.12 104.58,238.99 104.88,237.85C105.18,236.7 105.47,235.52 105.78,234.39C106.07,233.3 106.37,232.22 106.68,231.19C106.97,230.21 107.28,229.26 107.59,228.35C107.88,227.51 108.17,226.69 108.49,225.93C108.78,225.23 109.08,224.56 109.4,223.95C109.69,223.4 109.98,222.88 110.3,222.43C110.59,222.03 110.89,221.65 111.21,221.36C111.49,221.1 111.8,220.88 112.11,220.75C112.4,220.63 112.71,220.57 113.01,220.59C113.31,220.61 113.63,220.71 113.92,220.85C114.24,221.01 114.53,221.25 114.82,221.52C115.14,221.81 115.44,222.18 115.73,222.56C116.05,222.97 116.34,223.44 116.63,223.92C116.94,224.44 117.24,224.99 117.53,225.56C117.84,226.15 118.14,226.78 118.44,227.4C118.74,228.04 119.04,228.69 119.34,229.34C119.64,229.98 119.94,230.64 120.25,231.27C120.55,231.88 120.84,232.49 121.15,233.07C121.44,233.62 121.74,234.16 122.05,234.65C122.34,235.1 122.64,235.55 122.96,235.92C123.25,236.25 123.54,236.58 123.86,236.78C124.15,236.96 124.47,237.12 124.77,237.11C125.07,237.1 125.39,236.94 125.67,236.74C126.01,236.5 126.3,236.07 126.58,235.66C126.91,235.19 127.2,234.62 127.48,234.03C127.8,233.36 128.09,232.61 128.38,231.84C128.7,230.99 129,230.06 129.29,229.13C129.6,228.16 129.89,227.14 130.19,226.12C130.5,225.06 130.8,223.98 131.1,222.87C131.41,221.71 131.71,220.53 132,219.32C132.31,218.05 132.6,216.74 132.9,215.42C133.21,214.07 133.51,212.69 133.81,211.32C134.11,209.94 134.41,208.55 134.71,207.18C135.01,205.84 135.31,204.5 135.62,203.2C135.92,201.96 136.21,200.73 136.52,199.55C136.81,198.44 137.11,197.35 137.42,196.31C137.71,195.34 138.02,194.41 138.33,193.52C138.62,192.7 138.91,191.9 139.23,191.17C139.52,190.51 139.82,189.88 140.14,189.33C140.42,188.85 140.72,188.4 141.04,188.03C141.32,187.71 141.62,187.38 141.95,187.21C142.23,187.06 142.55,186.96 142.85,186.98C143.15,187.01 143.47,187.17 143.75,187.38C144.08,187.63 144.38,188.02 144.66,188.43C144.99,188.91 145.28,189.5 145.56,190.12C145.88,190.83 146.18,191.62 146.47,192.45C146.79,193.37 147.08,194.36 147.37,195.39C147.68,196.51 147.98,197.69 148.27,198.91C148.58,200.22 148.89,201.6 149.18,203.02C149.49,204.53 149.79,206.1 150.08,207.71C150.39,209.4 150.69,211.14 150.99,212.92C151.3,214.78 151.6,216.69 151.89,218.63C152.2,220.64 152.49,222.69 152.79,224.77C153.1,226.91 153.4,229.08 153.7,231.27C154,233.51 154.3,235.78 154.6,238.05C154.9,240.35 155.21,242.68 155.51,245C155.81,247.33 156.11,249.69 156.41,252.02C156.71,254.34 157.02,256.67 157.32,258.96C157.62,261.21 157.91,263.47 158.22,265.66C158.51,267.78 158.8,269.91 159.12,271.89C159.41,273.69 159.7,275.47 160.03,277.05C160.31,278.4 160.6,279.65 160.93,280.79C161.21,281.78 161.5,282.74 161.84,283.54C162.12,284.19 162.38,284.85 162.74,285.25C163.01,285.55 163.33,285.84 163.64,285.87C163.93,285.9 164.28,285.71 164.55,285.49C164.9,285.21 165.17,284.7 165.45,284.22C165.78,283.65 166.07,282.94 166.36,282.24C166.68,281.47 166.97,280.62 167.26,279.76C167.57,278.85 167.86,277.88 168.16,276.91C168.47,275.9 168.77,274.85 169.07,273.8C169.38,272.72 169.67,271.6 169.97,270.49C170.27,269.36 170.58,268.2 170.88,267.06C171.18,265.92 171.48,264.78 171.78,263.65C172.08,262.54 172.38,261.45 172.68,260.36C172.98,259.28 173.29,258.2 173.59,257.13C173.89,256.08 174.18,255.02 174.49,253.99C174.79,252.99 175.09,252.01 175.4,251.05C175.7,250.13 175.99,249.22 176.3,248.34C176.6,247.5 176.9,246.68 177.21,245.9C177.5,245.17 177.8,244.45 178.11,243.78C178.4,243.15 178.7,242.55 179.01,241.99C179.3,241.47 179.61,240.97 179.92,240.51C180.21,240.08 180.51,239.67 180.82,239.3C181.11,238.95 181.42,238.62 181.73,238.32C182.02,238.03 182.33,237.77 182.63,237.52C182.93,237.28 183.23,237.05 183.53,236.83C183.83,236.62 184.14,236.43 184.44,236.23C184.74,236.03 185.04,235.84 185.34,235.65C185.64,235.46 185.95,235.27 186.25,235.07C186.55,234.87 186.85,234.66 187.15,234.44C187.45,234.21 187.75,233.99 188.05,233.73C188.36,233.46 188.67,233.18 188.96,232.87C189.27,232.54 189.57,232.18 189.86,231.8C190.17,231.4 190.47,230.95 190.77,230.51C191.08,230.06 191.37,229.59 191.67,229.12C191.97,228.65 192.28,228.17 192.58,227.71C192.88,227.25 193.18,226.8 193.48,226.36C193.78,225.93 194.07,225.5 194.38,225.1C194.68,224.71 194.98,224.34 195.29,223.98C195.59,223.64 195.88,223.31 196.19,223.01C196.49,222.72 196.79,222.44 197.1,222.2C197.39,221.97 197.69,221.75 198,221.58C198.29,221.42 198.59,221.27 198.9,221.18C199.2,221.09 199.51,221.02 199.81,221.02C200.11,221.02 200.42,221.06 200.71,221.16C201.02,221.27 201.33,221.45 201.62,221.68C201.94,221.93 202.24,222.27 202.52,222.64C202.84,223.06 203.13,223.55 203.42,224.08C203.74,224.67 204.04,225.34 204.33,226.04C204.65,226.81 204.94,227.64 205.23,228.5C205.54,229.43 205.85,230.42 206.14,231.43C206.45,232.49 206.74,233.59 207.04,234.7C207.35,235.83 207.65,237 207.95,238.15C208.25,239.31 208.55,240.48 208.85,241.64C209.15,242.79 209.45,243.95 209.75,245.09C210.05,246.22 210.36,247.36 210.66,248.47C210.96,249.56 211.25,250.65 211.56,251.7C211.85,252.7 212.15,253.69 212.47,254.6C212.76,255.43 213.04,256.24 213.37,256.94C213.65,257.54 213.91,258.2 214.27,258.57C214.54,258.85 214.89,259.16 215.18,259.13C215.49,259.1 215.82,258.7 216.08,258.32C216.46,257.78 216.72,256.92 216.99,256.05C217.34,254.94 217.61,253.59 217.89,252.18C218.22,250.49 218.51,248.58 218.79,246.58C219.12,244.29 219.41,241.76 219.7,239.17C220.02,236.32 220.31,233.27 220.6,230.19C220.91,226.93 221.21,223.53 221.51,220.12C221.82,216.6 222.11,213 222.41,209.39C222.71,205.72 223.02,202.01 223.32,198.3C223.62,194.56 223.92,190.8 224.22,187.04C224.52,183.28 224.82,179.5 225.12,175.74C225.42,171.99 225.73,168.23 226.03,164.49C226.33,160.77 226.63,157.06 226.93,153.37C227.23,149.71 227.54,146.06 227.84,142.43C228.14,138.84 228.44,135.27 228.74,131.73C229.04,128.25 229.34,124.79 229.64,121.37C229.94,118.01 230.24,114.68 230.55,111.4C230.85,108.2 231.14,105.03 231.45,101.92C231.75,98.9 232.05,95.9 232.36,92.98C232.66,90.16 232.95,87.39 233.26,84.69C233.55,82.11 233.85,79.57 234.16,77.11C234.45,74.78 234.76,72.5 235.07,70.31C235.36,68.25 235.66,66.24 235.97,64.33C236.26,62.56 236.56,60.84 236.88,59.22C237.17,57.74 237.46,56.31 237.78,54.99C238.07,53.81 238.35,52.67 238.68,51.65C238.96,50.76 239.26,49.91 239.59,49.19C239.87,48.59 240.15,48 240.49,47.6C240.76,47.28 241.08,46.96 241.4,46.88C241.69,46.8 242.02,46.87 242.3,47.02C242.64,47.2 242.93,47.59 243.21,47.98C243.55,48.46 243.83,49.1 244.11,49.76C244.44,50.52 244.72,51.4 245.01,52.31C245.33,53.33 245.63,54.43 245.92,55.57C246.24,56.81 246.53,58.13 246.82,59.46C247.13,60.87 247.43,62.33 247.73,63.8C248.04,65.3 248.33,66.85 248.63,68.36C248.93,69.85 249.22,71.37 249.53,72.79C249.82,74.1 250.1,75.45 250.44,76.57C250.72,77.5 250.94,78.54 251.34,79.07C251.6,79.42 251.97,79.78 252.25,79.73C252.58,79.67 252.89,78.98 253.15,78.43C253.52,77.65 253.78,76.54 254.05,75.4C254.4,73.96 254.67,72.18 254.96,70.45C255.28,68.57 255.56,66.54 255.86,64.54C256.17,62.49 256.47,60.37 256.77,58.29C257.07,56.22 257.36,54.13 257.67,52.1C257.97,50.13 258.27,48.17 258.58,46.29C258.87,44.52 259.17,42.78 259.48,41.14C259.77,39.64 260.06,38.17 260.38,36.83C260.67,35.64 260.96,34.48 261.29,33.47C261.57,32.61 261.84,31.78 262.19,31.14C262.46,30.64 262.75,30.1 263.1,29.88C263.37,29.71 263.72,29.63 264,29.72C264.33,29.83 264.63,30.25 264.9,30.65C265.25,31.17 265.53,31.91 265.81,32.66C266.15,33.56 266.43,34.62 266.71,35.72C267.03,36.98 267.33,38.36 267.62,39.8C267.94,41.39 268.23,43.09 268.52,44.85C268.83,46.75 269.13,48.76 269.42,50.82C269.73,53.02 270.04,55.31 270.33,57.65C270.64,60.12 270.93,62.67 271.23,65.26C271.54,67.97 271.84,70.76 272.14,73.59C272.45,76.53 272.74,79.53 273.04,82.57C273.35,85.7 273.65,88.89 273.95,92.11C274.26,95.41 274.55,98.76 274.85,102.13C275.15,105.57 275.45,109.05 275.75,112.54C276.05,116.08 276.36,119.66 276.66,123.24C276.96,126.85 277.26,130.49 277.56,134.11C277.86,137.74 278.17,141.38 278.47,144.99C278.77,148.57 279.06,152.2 279.37,155.69C279.66,159.04 279.96,162.32 280.27,165.52C280.56,168.56 280.87,171.52 281.18,174.43C281.48,177.22 281.77,180 282.08,182.63C282.37,185.08 282.67,187.52 282.99,189.73C283.27,191.67 283.54,193.6 283.89,195.18C284.16,196.42 284.34,197.83 284.79,198.45C285.05,198.8 285.44,199.12 285.7,199.04C286.09,198.92 286.33,197.7 286.6,196.84C286.96,195.69 287.22,194.18 287.51,192.71C287.83,191.06 288.11,189.22 288.41,187.42C288.72,185.56 289.02,183.62 289.32,181.74C289.62,179.88 289.91,178.01 290.22,176.2C290.51,174.47 290.81,172.75 291.12,171.12C291.41,169.59 291.71,168.09 292.03,166.69C292.32,165.41 292.61,164.17 292.93,163.03C293.22,162.02 293.51,161.05 293.84,160.2C294.12,159.47 294.4,158.77 294.74,158.21C295.02,157.76 295.3,157.31 295.64,157.06C295.92,156.85 296.25,156.71 296.55,156.71C296.85,156.71 297.17,156.88 297.45,157.07C297.78,157.3 298.08,157.68 298.36,158.06C298.68,158.49 298.97,159.02 299.26,159.56C299.57,160.15 299.87,160.8 300.16,161.45C300.47,162.14 300.77,162.86 301.07,163.59C301.38,164.34 301.67,165.11 301.97,165.88C302.27,166.65 302.58,167.43 302.88,168.2C303.18,168.96 303.48,169.72 303.78,170.46C304.08,171.18 304.37,171.9 304.68,172.58C304.97,173.23 305.28,173.87 305.59,174.46C305.88,175.01 306.17,175.55 306.49,176.04C306.78,176.49 307.08,176.91 307.4,177.28C307.69,177.62 307.99,177.93 308.3,178.2C308.59,178.45 308.9,178.65 309.21,178.83C309.5,179 309.81,179.13 310.11,179.24C310.41,179.35 310.71,179.44 311.01,179.51C311.31,179.58 311.62,179.63 311.92,179.67C312.22,179.71 312.52,179.73 312.82,179.73C313.12,179.73 313.43,179.72 313.73,179.68C314.03,179.64 314.33,179.55 314.63,179.49C314.93,179.44 315.23,179.37 315.53,179.35C315.83,179.33 316.14,179.34 316.44,179.39C316.74,179.44 317.05,179.54 317.34,179.67C317.65,179.8 317.96,179.98 318.25,180.19C318.56,180.41 318.86,180.68 319.15,180.97C319.46,181.29 319.76,181.65 320.05,182.03C320.36,182.44 320.67,182.89 320.96,183.37C321.27,183.88 321.57,184.44 321.86,185.02C322.17,185.64 322.48,186.3 322.77,186.99C323.08,187.72 323.38,188.5 323.67,189.3C323.98,190.15 324.29,191.04 324.58,191.95C324.89,192.91 325.19,193.91 325.48,194.94C325.79,196.02 326.08,197.14 326.38,198.28C326.69,199.47 326.99,200.69 327.29,201.93C327.6,203.22 327.89,204.54 328.19,205.88C328.5,207.26 328.8,208.66 329.1,210.08C329.4,211.52 329.7,212.99 330,214.46C330.3,215.95 330.6,217.47 330.9,218.98C331.2,220.5 331.51,222.03 331.81,223.56C332.11,225.08 332.41,226.62 332.71,228.13C333.01,229.62 333.31,231.13 333.62,232.57C333.91,233.95 334.22,235.27 334.52,236.6C334.82,237.91 335.12,239.2 335.42,240.48C335.72,241.74 336.03,242.99 336.33,244.23C336.63,245.45 336.93,246.67 337.23,247.87C337.53,249.06 337.84,250.24 338.14,251.41C338.44,252.56 338.74,253.7 339.04,254.83C339.34,255.94 339.64,257.05 339.95,258.14C340.25,259.2 340.53,260.29 340.85,261.28C341.14,262.18 341.44,263.02 341.75,263.84C342.04,264.62 342.35,265.37 342.66,266.11C342.96,266.82 343.25,267.51 343.56,268.17C343.85,268.8 344.16,269.4 344.47,269.99C344.76,270.55 345.07,271.08 345.37,271.61C345.67,272.13 345.97,272.64 346.27,273.16C346.57,273.68 346.88,274.2 347.18,274.73C347.48,275.27 347.78,275.83 348.08,276.37C348.38,276.91 348.69,277.43 348.99,277.97C349.29,278.51 349.59,279.06 349.89,279.62C350.19,280.2 350.49,280.8 350.79,281.4C351.1,282.02 351.4,282.65 351.7,283.29C352,283.93 352.3,284.58 352.6,285.24C352.9,285.91 353.21,286.59 353.51,287.27C353.81,287.96 354.1,288.69 354.41,289.37C354.71,290.02 355,290.69 355.32,291.28C355.61,291.81 355.86,292.44 356.22,292.74C356.49,292.97 356.82,293.13 357.12,293.12C357.43,293.11 357.75,292.89 358.03,292.64C358.37,292.33 358.66,291.84 358.93,291.31C359.28,290.65 359.55,289.78 359.84,288.92C360.16,287.95 360.45,286.86 360.74,285.77C361.05,284.61 361.34,283.38 361.64,282.14C361.95,280.85 362.25,279.52 362.55,278.17C362.86,276.78 363.15,275.36 363.45,273.94C363.75,272.49 364.06,271.03 364.36,269.56C364.66,268.07 364.96,266.57 365.26,265.07C365.56,263.56 365.86,262.04 366.16,260.53C366.46,259.02 366.77,257.51 367.07,256.01C367.37,254.52 367.67,253.03 367.97,251.56C368.27,250.11 368.58,248.67 368.88,247.25C369.18,245.86 369.48,244.5 369.78,243.11C370.08,241.71 370.37,240.26 370.68,238.9C370.97,237.61 371.28,236.33 371.59,235.13C371.88,234.01 372.17,232.93 372.49,231.92C372.78,231 373.08,230.12 373.4,229.32C373.69,228.61 373.98,227.94 374.3,227.34C374.59,226.81 374.9,226.33 375.21,225.88C375.5,225.46 375.82,225.13 376.11,224.72C376.42,224.28 376.71,223.77 377.01,223.29C377.31,222.81 377.6,222.26 377.92,221.84C378.21,221.46 378.49,221.09 378.82,220.85C379.1,220.65 379.42,220.49 379.73,220.45C380.03,220.42 380.34,220.5 380.63,220.62C380.95,220.76 381.24,221.02 381.53,221.28C381.85,221.57 382.15,221.93 382.44,222.3C382.75,222.7 383.05,223.14 383.34,223.59C383.65,224.07 383.95,224.58 384.25,225.1C384.56,225.63 384.84,226.21 385.15,226.74C385.44,227.25 385.72,227.81 386.05,228.22C386.33,228.57 386.63,228.97 386.96,229.09C387.24,229.19 387.59,229.17 387.86,229.03C388.2,228.86 388.49,228.37 388.77,227.96C389.09,227.5 389.38,226.95 389.67,226.37C389.99,225.72 390.29,224.99 390.58,224.23C390.9,223.4 391.19,222.5 391.48,221.6C391.79,220.65 392.08,219.66 392.38,218.66C392.69,217.63 392.99,216.57 393.29,215.5C393.59,214.41 393.89,213.3 394.19,212.19C394.49,211.06 394.8,209.93 395.1,208.79C395.4,207.65 395.7,206.5 396,205.36C396.3,204.23 396.6,203.09 396.9,201.97C397.2,200.86 397.51,199.75 397.81,198.66C398.11,197.59 398.4,196.52 398.71,195.47C399.01,194.44 399.31,193.43 399.62,192.43C399.92,191.46 400.22,190.51 400.52,189.57C400.82,188.66 401.11,187.77 401.42,186.9C401.72,186.06 402.02,185.24 402.33,184.45C402.62,183.69 402.92,182.95 403.23,182.25C403.52,181.59 403.83,180.95 404.14,180.35C404.43,179.8 404.72,179.27 405.04,178.8C405.33,178.38 405.63,177.98 405.95,177.66C406.24,177.38 406.53,177.11 406.85,176.95C407.14,176.8 407.45,176.7 407.75,176.69C408.05,176.68 408.37,176.78 408.66,176.91C408.98,177.06 409.27,177.31 409.56,177.57C409.88,177.86 410.18,178.23 410.47,178.6C410.78,178.99 411.08,179.41 411.37,179.86C411.68,180.34 411.98,180.86 412.27,181.4C412.58,181.98 412.89,182.6 413.18,183.23C413.49,183.9 413.78,184.6 414.08,185.31C414.39,186.03 414.69,186.78 414.99,187.52C415.29,188.26 415.59,189.02 415.89,189.75C416.19,190.46 416.47,191.21 416.79,191.85C417.08,192.43 417.39,192.94 417.7,193.45C417.99,193.93 418.28,194.44 418.6,194.84C418.88,195.19 419.18,195.54 419.51,195.73C419.79,195.89 420.11,196 420.41,195.98C420.72,195.96 421.02,195.75 421.32,195.61C421.62,195.47 421.92,195.28 422.22,195.14C422.52,195 422.81,194.86 423.12,194.77C423.42,194.68 423.73,194.61 424.03,194.58C424.33,194.55 424.63,194.56 424.93,194.61C425.24,194.66 425.55,194.76 425.84,194.89C426.15,195.03 426.45,195.21 426.74,195.43C427.05,195.66 427.35,195.95 427.64,196.26C427.95,196.59 428.26,196.96 428.55,197.36C428.86,197.78 429.16,198.25 429.45,198.73C429.76,199.23 430.06,199.77 430.36,200.3C430.67,200.85 430.96,201.4 431.26,201.97C431.56,202.56 431.87,203.16 432.16,203.78C432.47,204.43 432.78,205.11 433.07,205.81C433.38,206.55 433.68,207.31 433.97,208.1C434.28,208.93 434.58,209.78 434.88,210.66C435.19,211.57 435.49,212.51 435.78,213.47C436.09,214.47 436.38,215.49 436.68,216.53C436.99,217.6 437.29,218.7 437.59,219.81C437.9,220.95 438.19,222.12 438.49,223.29C438.8,224.49 439.1,225.71 439.4,226.94C439.7,228.19 440,229.45 440.3,230.71C440.6,231.98 440.91,233.25 441.21,234.53C441.51,235.81 441.81,237.08 442.11,238.37C442.41,239.67 442.71,240.99 443.01,242.31C443.31,243.65 443.62,245 443.92,246.35C444.22,247.72 444.52,249.1 444.82,250.48C445.12,251.86 445.43,253.25 445.73,254.64C446.03,256.02 446.33,257.42 446.63,258.78C446.93,260.11 447.21,261.5 447.53,262.73C447.82,263.82 448.12,264.86 448.44,265.8C448.72,266.63 449.01,267.42 449.34,268.09C449.62,268.65 449.93,269.12 450.25,269.58C450.54,270 450.84,270.36 451.15,270.73C451.44,271.08 451.75,271.42 452.05,271.75C452.35,272.08 452.65,272.4 452.96,272.7C453.26,273 453.56,273.28 453.86,273.55C454.16,273.82 454.47,274.07 454.77,274.33C455.07,274.59 455.37,274.86 455.67,275.13C455.97,275.41 456.28,275.68 456.58,275.97C456.88,276.26 457.18,276.56 457.48,276.86C457.78,277.17 458.08,277.49 458.38,277.81C458.68,278.13 458.99,278.45 459.29,278.77C459.59,279.09 459.89,279.42 460.19,279.73C460.49,280.03 460.79,280.35 461.1,280.61Q461.39,280.86 462,281.28" style="vector-effect: non-scaling-stroke; fill: none; stroke: rgb(0, 100, 80); stroke-opacity: 1; stroke-width: 2px; opacity: 1;"/></g><g class="points"/><g class="text"/></g><g class="trace scatter trace456234" style="stroke-miterlimit: 2; opacity: 1;"><g class="fills"/><g class="errorbars"/><g class="lines"><path class="js-line" d="M0,223.1Q0.63,222.62 0.9,222.24C1.25,221.75 1.52,220.99 1.81,220.3C2.13,219.54 2.42,218.7 2.71,217.87C3.02,217 3.32,216.09 3.62,215.18C3.93,214.25 4.22,213.3 4.52,212.35C4.82,211.39 5.12,210.42 5.42,209.46C5.72,208.5 6.03,207.53 6.33,206.57C6.63,205.62 6.93,204.66 7.23,203.72C7.53,202.79 7.84,201.87 8.14,200.95C8.44,200.05 8.74,199.15 9.04,198.27C9.34,197.4 9.65,196.54 9.95,195.68C10.25,194.83 10.55,194 10.85,193.16C11.15,192.32 11.45,191.49 11.75,190.63C12.06,189.75 12.36,188.86 12.66,187.94C12.97,186.98 13.26,185.99 13.56,185C13.87,183.98 14.17,182.93 14.47,181.89C14.77,180.84 15.07,179.77 15.37,178.71C15.67,177.64 15.97,176.57 16.27,175.5C16.57,174.43 16.88,173.36 17.18,172.3C17.48,171.24 17.78,170.18 18.08,169.13C18.38,168.08 18.69,167.03 18.99,165.98C19.29,164.93 19.59,163.89 19.89,162.84C20.19,161.79 20.49,160.74 20.79,159.68C21.09,158.62 21.4,157.55 21.7,156.48C22,155.4 22.3,154.32 22.6,153.24C22.9,152.15 23.21,151.05 23.51,149.95C23.81,148.85 24.11,147.74 24.41,146.64C24.71,145.54 25.02,144.43 25.32,143.33C25.62,142.23 25.92,141.14 26.22,140.05C26.52,138.97 26.82,137.89 27.12,136.81C27.42,135.74 27.73,134.68 28.03,133.62C28.33,132.57 28.63,131.53 28.93,130.5C29.23,129.47 29.54,128.45 29.84,127.44C30.14,126.44 30.44,125.44 30.74,124.45C31.04,123.47 31.34,122.49 31.64,121.51C31.94,120.54 32.25,119.57 32.55,118.6C32.85,117.63 33.15,116.65 33.45,115.67C33.75,114.68 34.06,113.69 34.36,112.68C34.66,111.65 34.96,110.61 35.26,109.55C35.56,108.46 35.86,107.35 36.16,106.23C36.47,105.08 36.77,103.9 37.07,102.72C37.38,101.51 37.67,100.27 37.97,99.04C38.27,97.8 38.58,96.54 38.88,95.29C39.18,94.05 39.48,92.79 39.78,91.56C40.08,90.35 40.37,89.13 40.68,87.95C40.98,86.8 41.28,85.66 41.59,84.55C41.89,83.49 42.18,82.44 42.49,81.44C42.78,80.5 43.09,79.58 43.4,78.71C43.69,77.91 43.98,77.13 44.3,76.41C44.59,75.76 44.89,75.13 45.21,74.59C45.49,74.11 45.78,73.65 46.11,73.31C46.39,73.02 46.69,72.74 47.01,72.61C47.3,72.5 47.63,72.45 47.92,72.52C48.23,72.59 48.54,72.82 48.82,73.07C49.16,73.38 49.45,73.83 49.73,74.3C50.06,74.85 50.35,75.52 50.63,76.21C50.95,77 51.24,77.89 51.53,78.81C51.85,79.84 52.15,80.95 52.44,82.1C52.76,83.36 53.05,84.69 53.34,86.06C53.65,87.54 53.96,89.08 54.25,90.67C54.56,92.36 54.86,94.11 55.15,95.91C55.46,97.81 55.76,99.76 56.05,101.76C56.36,103.85 56.66,106.01 56.96,108.2C57.27,110.49 57.56,112.84 57.86,115.22C58.17,117.69 58.47,120.22 58.77,122.77C59.08,125.4 59.37,128.07 59.67,130.77C59.98,133.53 60.28,136.34 60.58,139.16C60.88,142.03 61.18,144.93 61.48,147.84C61.78,150.78 62.08,153.75 62.38,156.71C62.68,159.69 62.99,162.68 63.29,165.67C63.59,168.66 63.89,171.65 64.19,174.63C64.49,177.6 64.8,180.58 65.1,183.54C65.4,186.48 65.7,189.42 66,192.35C66.3,195.25 66.6,198.16 66.9,201.03C67.2,203.87 67.5,206.71 67.81,209.49C68.11,212.2 68.4,214.95 68.71,217.53C69,219.93 69.31,222.21 69.62,224.47C69.92,226.64 70.22,228.74 70.52,230.83C70.82,232.87 71.11,234.88 71.42,236.86C71.72,238.8 72.02,240.72 72.33,242.6C72.63,244.41 72.91,246.26 73.23,247.93C73.52,249.43 73.82,250.84 74.14,252.18C74.43,253.39 74.72,254.53 75.04,255.61C75.33,256.58 75.63,257.53 75.95,258.37C76.23,259.11 76.54,259.77 76.85,260.42C77.14,261.02 77.44,261.57 77.75,262.12C78.05,262.64 78.36,263.14 78.66,263.64C78.96,264.13 79.26,264.61 79.56,265.08C79.86,265.55 80.17,266 80.47,266.47C80.77,266.94 81.07,267.41 81.37,267.89C81.67,268.38 81.97,268.88 82.27,269.39C82.58,269.92 82.88,270.45 83.18,271C83.49,271.56 83.78,272.15 84.08,272.73C84.38,273.31 84.68,273.93 84.99,274.49C85.28,275.02 85.56,275.59 85.89,276.03C86.17,276.4 86.47,276.73 86.79,276.98C87.08,277.2 87.4,277.32 87.7,277.48C88,277.64 88.3,277.76 88.6,277.92C88.91,278.08 89.21,278.26 89.51,278.44C89.81,278.62 90.11,278.83 90.41,279.02C90.71,279.21 91.01,279.43 91.32,279.58C91.61,279.73 91.92,279.94 92.22,279.93C92.52,279.92 92.86,279.8 93.12,279.53C93.54,279.09 93.76,278.05 94.03,277.13C94.38,275.96 94.64,274.49 94.93,273.07C95.25,271.5 95.55,269.81 95.84,268.12C96.15,266.34 96.44,264.49 96.74,262.63C97.04,260.71 97.34,258.74 97.64,256.78C97.94,254.79 98.25,252.76 98.55,250.75C98.85,248.73 99.15,246.69 99.45,244.67C99.75,242.68 100.05,240.68 100.36,238.72C100.66,236.8 100.95,234.89 101.26,233.03C101.55,231.23 101.85,229.46 102.16,227.74C102.45,226.1 102.76,224.49 103.07,222.95C103.36,221.5 103.66,220.09 103.97,218.76C104.26,217.53 104.56,216.33 104.88,215.22C105.17,214.22 105.46,213.25 105.78,212.38C106.06,211.62 106.35,210.89 106.68,210.27C106.96,209.74 107.26,209.24 107.59,208.86C107.87,208.55 108.17,208.27 108.49,208.12C108.78,207.99 109.1,207.94 109.4,207.97C109.7,208 110.01,208.14 110.3,208.3C110.62,208.47 110.92,208.73 111.21,208.99C111.52,209.27 111.82,209.6 112.11,209.94C112.42,210.3 112.72,210.7 113.01,211.11C113.32,211.55 113.63,212.02 113.92,212.5C114.23,213.01 114.52,213.55 114.82,214.1C115.13,214.68 115.43,215.28 115.73,215.89C116.04,216.53 116.34,217.19 116.63,217.86C116.94,218.56 117.23,219.27 117.53,220C117.84,220.76 118.14,221.55 118.44,222.34C118.75,223.16 119.04,224 119.34,224.84C119.64,225.7 119.95,226.58 120.25,227.44C120.55,228.3 120.84,229.17 121.15,230C121.44,230.8 121.73,231.6 122.05,232.33C122.34,232.99 122.6,233.74 122.96,234.18C123.23,234.5 123.56,234.85 123.86,234.85C124.16,234.85 124.5,234.48 124.77,234.14C125.14,233.67 125.39,232.86 125.67,232.13C126,231.28 126.29,230.3 126.58,229.31C126.9,228.22 127.19,227.05 127.48,225.86C127.79,224.59 128.08,223.26 128.38,221.91C128.69,220.5 128.99,219.05 129.29,217.58C129.6,216.06 129.89,214.52 130.19,212.95C130.5,211.34 130.8,209.73 131.1,208.06C131.41,206.32 131.71,204.57 132,202.71C132.31,200.7 132.61,198.59 132.9,196.43C133.21,194.14 133.51,191.72 133.81,189.34C134.11,186.93 134.41,184.47 134.71,182.06C135.01,179.68 135.31,177.31 135.62,174.98C135.92,172.71 136.21,170.44 136.52,168.24C136.81,166.12 137.11,164.04 137.42,162.02C137.71,160.11 138.02,158.23 138.33,156.44C138.62,154.78 138.91,153.16 139.23,151.65C139.52,150.27 139.82,148.94 140.14,147.73C140.42,146.66 140.71,145.63 141.04,144.74C141.32,143.99 141.6,143.27 141.95,142.73C142.22,142.31 142.51,141.87 142.85,141.72C143.13,141.59 143.47,141.59 143.75,141.71C144.09,141.86 144.39,142.29 144.66,142.7C145.01,143.22 145.28,143.93 145.56,144.66C145.89,145.53 146.18,146.53 146.47,147.57C146.79,148.74 147.08,150.03 147.37,151.36C147.69,152.83 147.98,154.39 148.27,156C148.58,157.73 148.89,159.54 149.18,161.39C149.49,163.35 149.78,165.39 150.08,167.45C150.39,169.6 150.69,171.82 150.99,174.06C151.3,176.36 151.59,178.72 151.89,181.07C152.19,183.45 152.49,185.86 152.79,188.24C153.09,190.59 153.39,192.94 153.7,195.24C154,197.48 154.29,199.67 154.6,201.85C154.9,203.98 155.21,206.06 155.51,208.15C155.81,210.23 156.11,212.29 156.41,214.36C156.71,216.42 157.01,218.5 157.32,220.53C157.62,222.51 157.92,224.48 158.22,226.4C158.52,228.27 158.81,230.1 159.12,231.91C159.42,233.68 159.72,235.46 160.03,237.15C160.32,238.75 160.61,240.35 160.93,241.8C161.22,243.08 161.51,244.33 161.84,245.41C162.12,246.31 162.41,247.13 162.74,247.85C163.02,248.46 163.32,249 163.64,249.5C163.93,249.95 164.24,250.34 164.55,250.72C164.84,251.08 165.14,251.41 165.45,251.74C165.75,252.06 166.05,252.37 166.36,252.67C166.66,252.96 166.95,253.24 167.26,253.49C167.55,253.73 167.85,253.95 168.16,254.14C168.46,254.32 168.76,254.52 169.07,254.62C169.36,254.72 169.67,254.8 169.97,254.77C170.28,254.74 170.59,254.58 170.88,254.4C171.2,254.2 171.49,253.89 171.78,253.57C172.1,253.22 172.39,252.8 172.68,252.37C173,251.9 173.3,251.38 173.59,250.83C173.9,250.24 174.2,249.6 174.49,248.95C174.8,248.27 175.1,247.55 175.4,246.85C175.7,246.15 175.99,245.42 176.3,244.73C176.6,244.06 176.9,243.4 177.21,242.75C177.51,242.12 177.81,241.52 178.11,240.9C178.41,240.29 178.71,239.69 179.01,239.06C179.32,238.4 179.62,237.71 179.92,237.03C180.22,236.35 180.52,235.69 180.82,235C181.13,234.29 181.44,233.6 181.73,232.84C182.05,232.01 182.32,231.06 182.63,230.22C182.92,229.43 183.22,228.66 183.53,227.95C183.82,227.29 184.12,226.65 184.44,226.08C184.73,225.56 185.02,225.07 185.34,224.65C185.63,224.27 185.93,223.92 186.25,223.64C186.54,223.39 186.84,223.18 187.15,223.05C187.44,222.93 187.75,222.85 188.05,222.84C188.35,222.83 188.66,222.89 188.96,222.98C189.27,223.08 189.57,223.24 189.86,223.42C190.17,223.61 190.47,223.85 190.77,224.09C191.08,224.34 191.37,224.64 191.67,224.92C191.97,225.21 192.28,225.5 192.58,225.79C192.88,226.08 193.18,226.38 193.48,226.67C193.78,226.96 194.08,227.25 194.38,227.54C194.68,227.83 194.99,228.13 195.29,228.42C195.59,228.71 195.89,228.99 196.19,229.27C196.49,229.54 196.79,229.82 197.1,230.07C197.4,230.32 197.7,230.56 198,230.78C198.3,230.99 198.59,231.24 198.9,231.38C199.19,231.51 199.51,231.53 199.81,231.62C200.11,231.72 200.42,231.8 200.71,231.95C201.02,232.11 201.33,232.32 201.62,232.56C201.93,232.81 202.23,233.11 202.52,233.44C202.83,233.79 203.13,234.2 203.42,234.61C203.73,235.05 204.04,235.53 204.33,236.02C204.64,236.54 204.93,237.1 205.23,237.65C205.54,238.22 205.84,238.82 206.14,239.4C206.44,239.98 206.73,240.58 207.04,241.15C207.34,241.7 207.64,242.24 207.95,242.74C208.24,243.2 208.53,243.67 208.85,244.05C209.13,244.39 209.42,244.75 209.75,244.94C210.03,245.11 210.36,245.2 210.66,245.2C210.96,245.2 211.27,245.09 211.56,244.96C211.87,244.82 212.18,244.63 212.47,244.39C212.79,244.12 213.09,243.79 213.37,243.41C213.7,242.96 213.99,242.43 214.27,241.84C214.6,241.15 214.9,240.36 215.18,239.49C215.51,238.46 215.8,237.31 216.08,236.06C216.41,234.6 216.71,232.96 216.99,231.25C217.31,229.3 217.6,227.16 217.89,224.96C218.21,222.54 218.5,219.96 218.79,217.33C219.1,214.52 219.4,211.59 219.7,208.62C220.01,205.53 220.3,202.34 220.6,199.14C220.91,195.87 221.21,192.53 221.51,189.2C221.81,185.84 222.11,182.45 222.41,179.09C222.71,175.74 223.02,172.38 223.32,169.05C223.62,165.76 223.92,162.48 224.22,159.24C224.52,156.05 224.82,152.9 225.12,149.74C225.42,146.6 225.73,143.45 226.03,140.34C226.33,137.28 226.63,134.25 226.93,131.25C227.23,128.31 227.53,125.4 227.84,122.52C228.14,119.71 228.44,116.92 228.74,114.19C229.04,111.54 229.33,108.93 229.64,106.38C229.94,103.92 230.24,101.51 230.55,99.15C230.85,96.89 231.14,94.67 231.45,92.51C231.75,90.45 232.05,88.43 232.36,86.47C232.65,84.6 232.95,82.77 233.26,80.99C233.55,79.29 233.85,77.63 234.16,76.02C234.45,74.49 234.76,73 235.07,71.55C235.36,70.18 235.66,68.84 235.97,67.55C236.26,66.32 236.57,65.13 236.88,63.97C237.17,62.87 237.47,61.81 237.78,60.77C238.07,59.78 238.37,58.81 238.68,57.86C238.98,56.94 239.29,56.04 239.59,55.15C239.89,54.27 240.19,53.41 240.49,52.55C240.79,51.7 241.09,50.86 241.4,50.04C241.7,49.24 241.99,48.43 242.3,47.66C242.6,46.92 242.9,46.19 243.21,45.5C243.5,44.86 243.79,44.23 244.11,43.67C244.4,43.16 244.69,42.67 245.01,42.27C245.3,41.91 245.6,41.58 245.92,41.35C246.2,41.15 246.51,40.98 246.82,40.92C247.12,40.86 247.43,40.9 247.73,40.97C248.04,41.04 248.33,41.21 248.63,41.35C248.93,41.49 249.22,41.73 249.53,41.83C249.82,41.92 250.15,42.02 250.44,41.94C250.76,41.85 251.07,41.56 251.34,41.23C251.7,40.79 251.97,40.09 252.25,39.41C252.58,38.59 252.86,37.59 253.15,36.62C253.46,35.59 253.75,34.47 254.05,33.41C254.35,32.37 254.65,31.3 254.96,30.31C255.25,29.39 255.54,28.48 255.86,27.65C256.15,26.9 256.45,26.19 256.77,25.55C257.06,24.99 257.36,24.48 257.67,24C257.96,23.56 258.28,23.17 258.58,22.76C258.88,22.36 259.18,21.97 259.48,21.59C259.78,21.22 260.07,20.84 260.38,20.5C260.67,20.18 260.98,19.88 261.29,19.61C261.58,19.36 261.88,19.15 262.19,18.94C262.49,18.74 262.81,18.6 263.1,18.38C263.41,18.14 263.71,17.85 264,17.55C264.31,17.23 264.57,16.78 264.9,16.51C265.18,16.28 265.5,16.02 265.81,16C266.11,15.98 266.44,16.14 266.71,16.37C267.07,16.67 267.35,17.23 267.62,17.79C267.97,18.5 268.24,19.41 268.52,20.36C268.85,21.49 269.14,22.78 269.42,24.13C269.74,25.67 270.04,27.36 270.33,29.12C270.65,31.07 270.94,33.16 271.23,35.32C271.55,37.67 271.85,40.14 272.14,42.68C272.45,45.41 272.75,48.26 273.04,51.18C273.35,54.27 273.66,57.47 273.95,60.73C274.26,64.15 274.56,67.68 274.85,71.26C275.16,74.98 275.45,78.79 275.75,82.65C276.06,86.63 276.36,90.7 276.66,94.79C276.97,98.98 277.26,103.23 277.56,107.51C277.86,111.86 278.17,116.26 278.47,120.66C278.77,125.09 279.07,129.56 279.37,134C279.67,138.44 279.97,142.9 280.27,147.31C280.57,151.66 280.87,156.02 281.18,160.27C281.48,164.4 281.77,168.53 282.08,172.47C282.37,176.18 282.65,180.05 282.99,183.28C283.27,185.91 283.5,188.54 283.89,190.41C284.15,191.66 284.34,193.29 284.79,193.48C285.05,193.59 285.45,193.31 285.7,192.98C286.17,192.37 286.33,190.77 286.6,189.45C286.94,187.8 287.22,185.8 287.51,183.85C287.83,181.74 288.11,179.46 288.41,177.24C288.71,174.99 289.01,172.69 289.32,170.46C289.62,168.28 289.91,166.09 290.22,163.98C290.51,161.96 290.81,159.97 291.12,158.07C291.41,156.3 291.71,154.57 292.03,152.95C292.32,151.47 292.61,150.04 292.93,148.73C293.22,147.58 293.51,146.46 293.84,145.5C294.12,144.7 294.39,143.92 294.74,143.34C295.01,142.89 295.3,142.41 295.64,142.24C295.92,142.1 296.27,142.09 296.55,142.2C296.89,142.34 297.18,142.77 297.45,143.17C297.79,143.68 298.08,144.36 298.36,145.06C298.69,145.87 298.97,146.81 299.26,147.77C299.58,148.83 299.87,149.97 300.16,151.14C300.47,152.39 300.77,153.7 301.07,155.02C301.38,156.4 301.66,157.88 301.97,159.25C302.26,160.56 302.58,161.8 302.88,163.08C303.18,164.38 303.48,165.69 303.78,166.99C304.08,168.29 304.38,169.6 304.68,170.89C304.98,172.16 305.28,173.43 305.59,174.67C305.89,175.87 306.18,177.07 306.49,178.19C306.78,179.23 307.09,180.22 307.4,181.16C307.69,182.03 307.98,182.88 308.3,183.66C308.59,184.37 308.87,185.11 309.21,185.66C309.48,186.1 309.78,186.5 310.11,186.74C310.39,186.94 310.7,187.01 311.01,187.08C311.31,187.15 311.62,187.14 311.92,187.15C312.22,187.16 312.52,187.13 312.82,187.12C313.12,187.11 313.43,187.08 313.73,187.07C314.03,187.06 314.33,187.05 314.63,187.05C314.93,187.05 315.23,187.06 315.53,187.1C315.83,187.14 316.14,187.19 316.44,187.27C316.74,187.36 317.05,187.46 317.34,187.61C317.65,187.77 317.96,187.97 318.25,188.2C318.56,188.45 318.86,188.74 319.15,189.07C319.47,189.43 319.76,189.85 320.05,190.29C320.37,190.78 320.67,191.32 320.96,191.89C321.28,192.51 321.57,193.19 321.86,193.89C322.17,194.65 322.48,195.46 322.77,196.3C323.08,197.2 323.38,198.15 323.67,199.12C323.98,200.15 324.29,201.23 324.58,202.33C324.89,203.48 325.19,204.68 325.48,205.89C325.79,207.15 326.08,208.44 326.38,209.74C326.69,211.08 326.99,212.44 327.29,213.81C327.59,215.19 327.89,216.6 328.19,217.99C328.49,219.38 328.8,220.79 329.1,222.17C329.4,223.53 329.7,224.89 330,226.22C330.3,227.53 330.59,228.82 330.9,230.09C331.2,231.33 331.51,232.55 331.81,233.76C332.11,234.94 332.41,236.11 332.71,237.27C333.01,238.41 333.31,239.53 333.62,240.64C333.92,241.72 334.21,242.79 334.52,243.84C334.82,244.85 335.11,245.87 335.42,246.82C335.71,247.71 336,248.62 336.33,249.4C336.61,250.07 336.91,250.67 337.23,251.23C337.52,251.74 337.8,252.26 338.14,252.63C338.42,252.93 338.73,253.14 339.04,253.34C339.33,253.52 339.64,253.66 339.95,253.78C340.25,253.89 340.55,253.97 340.85,254.04C341.15,254.11 341.45,254.15 341.75,254.21C342.05,254.28 342.36,254.34 342.66,254.43C342.96,254.53 343.27,254.64 343.56,254.78C343.87,254.93 344.17,255.12 344.47,255.33C344.78,255.55 345.08,255.8 345.37,256.07C345.68,256.35 345.97,256.67 346.27,256.99C346.58,257.33 346.88,257.69 347.18,258.06C347.49,258.45 347.78,258.86 348.08,259.27C348.38,259.69 348.69,260.11 348.99,260.55C349.3,261 349.6,261.45 349.89,261.93C350.2,262.44 350.5,262.97 350.79,263.54C351.1,264.16 351.41,264.82 351.7,265.5C352.01,266.22 352.3,266.99 352.6,267.76C352.91,268.55 353.21,269.37 353.51,270.17C353.81,270.96 354.1,271.76 354.41,272.54C354.71,273.29 355,274.09 355.32,274.76C355.6,275.35 355.9,275.9 356.22,276.38C356.5,276.81 356.8,277.19 357.12,277.53C357.41,277.84 357.71,278.13 358.03,278.33C358.32,278.51 358.62,278.66 358.93,278.7C359.23,278.74 359.56,278.69 359.84,278.56C360.16,278.41 360.47,278.12 360.74,277.78C361.08,277.35 361.37,276.77 361.64,276.12C361.99,275.3 362.27,274.27 362.55,273.21C362.88,271.98 363.16,270.57 363.45,269.17C363.76,267.65 364.06,266.03 364.36,264.42C364.67,262.75 364.96,261.03 365.26,259.31C365.56,257.56 365.86,255.78 366.16,253.99C366.47,252.16 366.77,250.29 367.07,248.42C367.37,246.52 367.67,244.58 367.97,242.66C368.27,240.75 368.58,238.82 368.88,236.93C369.18,235.08 369.47,233.24 369.78,231.44C370.07,229.71 370.37,227.99 370.68,226.33C370.97,224.75 371.28,223.21 371.59,221.73C371.88,220.34 372.17,218.99 372.49,217.71C372.78,216.54 373.08,215.4 373.4,214.35C373.69,213.41 373.97,212.51 374.3,211.71C374.58,211.02 374.87,210.36 375.21,209.84C375.49,209.42 375.77,209 376.11,208.78C376.39,208.6 376.72,208.48 377.01,208.52C377.32,208.56 377.64,208.79 377.92,209.05C378.26,209.36 378.54,209.85 378.82,210.34C379.15,210.91 379.44,211.6 379.73,212.3C380.05,213.07 380.34,213.93 380.63,214.78C380.94,215.68 381.24,216.62 381.53,217.58C381.84,218.59 382.15,219.63 382.44,220.71C382.75,221.85 383.04,223.03 383.34,224.23C383.65,225.48 383.95,226.78 384.25,228.06C384.55,229.34 384.83,230.71 385.15,231.92C385.44,233.02 385.71,234.14 386.05,235.03C386.32,235.74 386.58,236.49 386.96,236.88C387.22,237.15 387.56,237.34 387.86,237.36C388.16,237.38 388.48,237.18 388.77,237C389.09,236.79 389.38,236.46 389.67,236.14C389.99,235.79 390.29,235.38 390.58,234.97C390.89,234.54 391.19,234.07 391.48,233.59C391.79,233.09 392.08,232.58 392.38,232.05C392.69,231.51 392.99,230.95 393.29,230.39C393.59,229.82 393.89,229.24 394.19,228.67C394.49,228.1 394.8,227.52 395.1,226.95C395.4,226.39 395.7,225.83 396,225.28C396.3,224.75 396.59,224.23 396.9,223.72C397.2,223.23 397.5,222.74 397.81,222.28C398.11,221.83 398.4,221.4 398.71,220.99C399.01,220.59 399.31,220.21 399.62,219.85C399.92,219.5 400.21,219.17 400.52,218.86C400.81,218.57 401.11,218.29 401.42,218.04C401.72,217.8 402.02,217.58 402.33,217.4C402.62,217.23 402.92,217.08 403.23,216.98C403.53,216.88 403.84,216.8 404.14,216.78C404.44,216.76 404.74,216.78 405.04,216.84C405.35,216.9 405.65,217 405.95,217.14C406.26,217.28 406.55,217.48 406.85,217.68C407.15,217.88 407.44,218.18 407.75,218.34C408.04,218.49 408.36,218.64 408.66,218.64C408.96,218.64 409.26,218.43 409.56,218.32C409.86,218.21 410.17,218.1 410.47,217.99C410.77,217.89 411.07,217.8 411.37,217.69C411.67,217.58 411.98,217.47 412.27,217.31C412.58,217.15 412.91,217.02 413.18,216.72C413.54,216.33 413.79,215.61 414.08,215.01C414.39,214.37 414.69,213.68 414.99,212.98C415.3,212.25 415.59,211.48 415.89,210.71C416.2,209.91 416.49,209.08 416.79,208.26C417.09,207.44 417.4,206.61 417.7,205.79C418,204.99 418.3,204.19 418.6,203.4C418.9,202.63 419.2,201.86 419.51,201.11C419.81,200.37 420.11,199.65 420.41,198.93C420.71,198.22 421.02,197.52 421.32,196.83C421.62,196.14 421.92,195.47 422.22,194.79C422.52,194.11 422.82,193.44 423.12,192.77C423.42,192.1 423.73,191.44 424.03,190.77C424.33,190.11 424.63,189.44 424.93,188.78C425.23,188.13 425.53,187.49 425.84,186.86C426.14,186.25 426.43,185.64 426.74,185.07C427.03,184.53 427.33,184 427.64,183.52C427.93,183.08 428.23,182.64 428.55,182.28C428.84,181.96 429.13,181.65 429.45,181.43C429.74,181.23 430.05,181.08 430.36,181C430.65,180.93 430.96,180.92 431.26,180.95C431.56,180.98 431.87,181.06 432.16,181.19C432.48,181.33 432.76,181.64 433.07,181.81C433.36,181.97 433.68,182.03 433.97,182.18C434.28,182.34 434.6,182.51 434.88,182.77C435.21,183.08 435.5,183.53 435.78,184C436.11,184.55 436.4,185.19 436.68,185.87C437,186.64 437.3,187.49 437.59,188.38C437.91,189.35 438.2,190.39 438.49,191.47C438.8,192.64 439.11,193.87 439.4,195.13C439.71,196.47 440.01,197.87 440.3,199.29C440.61,200.79 440.91,202.34 441.21,203.91C441.52,205.55 441.81,207.23 442.11,208.93C442.41,210.68 442.71,212.47 443.01,214.28C443.32,216.13 443.62,218.01 443.92,219.9C444.22,221.82 444.52,223.77 444.82,225.72C445.12,227.69 445.43,229.68 445.73,231.66C446.03,233.64 446.33,235.64 446.63,237.62C446.93,239.57 447.2,241.67 447.53,243.45C447.81,244.97 448.09,246.45 448.44,247.67C448.71,248.63 449.02,249.41 449.34,250.21C449.63,250.94 449.94,251.61 450.25,252.27C450.54,252.89 450.84,253.49 451.15,254.05C451.44,254.58 451.74,255.07 452.05,255.55C452.35,256.01 452.66,256.44 452.96,256.87C453.26,257.3 453.56,257.71 453.86,258.13C454.16,258.55 454.47,258.96 454.77,259.38C455.07,259.8 455.37,260.23 455.67,260.66C455.97,261.1 456.28,261.54 456.58,261.99C456.88,262.45 457.18,262.91 457.48,263.38C457.78,263.86 458.08,264.34 458.38,264.83C458.68,265.32 458.99,265.82 459.29,266.3C459.59,266.77 459.88,267.25 460.19,267.69C460.48,268.11 460.78,268.54 461.1,268.89Q461.39,269.21 462,269.74" style="vector-effect: non-scaling-stroke; fill: none; stroke: rgb(0, 176, 246); stroke-opacity: 1; stroke-width: 2px; opacity: 1;"/></g><g class="points"/><g class="text"/></g><g class="trace scatter trace9a9622" style="stroke-miterlimit: 2; opacity: 1;"><g class="fills"/><g class="errorbars"/><g class="lines"><path class="js-line" d="M0,247.3Q0.64,244.93 0.9,243.38C1.28,241.16 1.52,238.09 1.81,235.21C2.13,231.99 2.42,228.49 2.71,224.98C3.02,221.27 3.32,217.4 3.62,213.52C3.93,209.52 4.22,205.42 4.52,201.32C4.82,197.14 5.12,192.91 5.42,188.68C5.72,184.42 6.03,180.12 6.33,175.84C6.63,171.56 6.93,167.25 7.23,162.98C7.53,158.73 7.84,154.48 8.14,150.27C8.44,146.11 8.74,141.96 9.04,137.85C9.34,133.81 9.64,129.79 9.95,125.83C10.25,121.96 10.55,118.12 10.85,114.35C11.15,110.68 11.44,107.05 11.75,103.49C12.05,100.05 12.35,96.65 12.66,93.34C12.96,90.16 13.25,87.03 13.56,83.99C13.85,81.09 14.16,78.25 14.47,75.5C14.76,72.9 15.06,70.36 15.37,67.92C15.66,65.64 15.96,63.42 16.27,61.3C16.56,59.35 16.86,57.45 17.18,55.67C17.47,54.05 17.76,52.49 18.08,51.06C18.37,49.8 18.66,48.58 18.99,47.51C19.27,46.61 19.54,45.73 19.89,45.05C20.16,44.52 20.43,43.95 20.79,43.71C21.06,43.53 21.42,43.43 21.7,43.52C22.03,43.63 22.33,44.07 22.6,44.48C22.96,45.02 23.23,45.79 23.51,46.57C23.85,47.51 24.13,48.62 24.41,49.76C24.73,51.07 25.03,52.52 25.32,54.01C25.64,55.66 25.93,57.43 26.22,59.25C26.53,61.22 26.83,63.29 27.12,65.41C27.43,67.67 27.74,70.02 28.03,72.41C28.34,74.92 28.63,77.5 28.93,80.12C29.24,82.83 29.54,85.62 29.84,88.41C30.14,91.26 30.44,94.17 30.74,97.04C31.04,99.9 31.32,102.89 31.64,105.61C31.93,108.09 32.14,110.93 32.55,112.72C32.81,113.85 33.03,115.29 33.45,115.43C33.71,115.52 34.09,115.14 34.36,114.83C34.74,114.38 34.97,113.53 35.26,112.81C35.58,112 35.86,111.08 36.16,110.2C36.47,109.3 36.76,108.36 37.07,107.46C37.37,106.59 37.66,105.72 37.97,104.89C38.26,104.11 38.57,103.34 38.88,102.62C39.17,101.94 39.48,101.32 39.78,100.67C40.08,100.03 40.38,99.38 40.68,98.75C40.98,98.12 41.28,97.47 41.59,96.89C41.88,96.35 42.17,95.83 42.49,95.38C42.78,94.98 43.08,94.6 43.4,94.3C43.69,94.03 43.98,93.79 44.3,93.64C44.59,93.51 44.91,93.42 45.21,93.42C45.51,93.42 45.82,93.49 46.11,93.62C46.42,93.76 46.72,93.99 47.01,94.25C47.33,94.54 47.63,94.92 47.92,95.32C48.24,95.77 48.53,96.3 48.82,96.85C49.14,97.46 49.44,98.14 49.73,98.85C50.05,99.63 50.34,100.48 50.63,101.36C50.94,102.32 51.24,103.33 51.53,104.39C51.84,105.53 52.15,106.73 52.44,107.97C52.75,109.3 53.05,110.69 53.34,112.12C53.65,113.64 53.96,115.23 54.25,116.85C54.56,118.57 54.86,120.35 55.15,122.17C55.46,124.08 55.75,126.06 56.05,128.07C56.36,130.17 56.66,132.33 56.96,134.53C57.27,136.82 57.56,139.16 57.86,141.53C58.17,143.98 58.47,146.49 58.77,149.02C59.08,151.63 59.37,154.28 59.67,156.95C59.97,159.68 60.28,162.45 60.58,165.23C60.88,168.04 61.17,170.95 61.48,173.7C61.77,176.31 62.04,179.07 62.38,181.34C62.66,183.17 62.95,184.83 63.29,186.28C63.56,187.44 63.83,188.54 64.19,189.37C64.46,189.99 64.74,190.58 65.1,190.91C65.37,191.16 65.69,191.28 66,191.35C66.29,191.42 66.6,191.34 66.9,191.34C67.2,191.34 67.51,191.29 67.81,191.34C68.12,191.39 68.42,191.49 68.71,191.65C69.03,191.83 69.34,192.1 69.62,192.4C69.94,192.74 70.24,193.18 70.52,193.64C70.84,194.16 71.13,194.77 71.42,195.4C71.74,196.11 72.04,196.89 72.33,197.7C72.65,198.59 72.94,199.54 73.23,200.52C73.54,201.59 73.85,202.71 74.14,203.87C74.45,205.1 74.75,206.39 75.04,207.71C75.35,209.11 75.66,210.55 75.95,212.03C76.26,213.58 76.56,215.18 76.85,216.8C77.16,218.49 77.45,220.22 77.75,221.97C78.06,223.78 78.36,225.63 78.66,227.5C78.97,229.41 79.26,231.36 79.56,233.32C79.86,235.32 80.17,237.34 80.47,239.37C80.77,241.42 81.07,243.49 81.37,245.56C81.67,247.64 81.97,249.73 82.27,251.8C82.57,253.86 82.88,255.93 83.18,257.97C83.48,259.98 83.77,262 84.08,263.97C84.38,265.88 84.66,267.87 84.99,269.62C85.27,271.14 85.55,272.62 85.89,273.87C86.16,274.89 86.43,275.87 86.79,276.6C87.06,277.15 87.36,277.61 87.7,277.93C87.97,278.18 88.29,278.38 88.6,278.44C88.89,278.5 89.22,278.44 89.51,278.33C89.83,278.21 90.12,277.97 90.41,277.71C90.73,277.42 91.03,277.05 91.32,276.66C91.64,276.24 91.93,275.76 92.22,275.27C92.53,274.74 92.83,274.18 93.12,273.58C93.43,272.93 93.75,272.3 94.03,271.52C94.37,270.55 94.63,269.29 94.93,268.15C95.24,266.99 95.54,265.8 95.84,264.61C96.14,263.41 96.44,262.2 96.74,261C97.04,259.8 97.34,258.61 97.64,257.42C97.94,256.25 98.24,255.08 98.55,253.93C98.85,252.81 99.14,251.7 99.45,250.62C99.75,249.59 100.05,248.57 100.36,247.59C100.65,246.66 100.95,245.75 101.26,244.89C101.55,244.09 101.84,243.31 102.16,242.59C102.45,241.93 102.75,241.3 103.07,240.73C103.36,240.22 103.65,239.73 103.97,239.32C104.26,238.95 104.56,238.61 104.88,238.36C105.17,238.13 105.47,237.95 105.78,237.84C106.07,237.74 106.38,237.7 106.68,237.71C106.98,237.72 107.29,237.81 107.59,237.92C107.9,238.03 108.19,238.2 108.49,238.38C108.8,238.56 109.1,238.79 109.4,239.01C109.7,239.23 110,239.48 110.3,239.7C110.6,239.92 110.9,240.16 111.21,240.35C111.51,240.53 111.8,240.73 112.11,240.84C112.4,240.94 112.71,241.02 113.01,240.99C113.32,240.95 113.64,240.82 113.92,240.61C114.26,240.35 114.55,239.93 114.82,239.47C115.16,238.9 115.45,238.17 115.73,237.41C116.06,236.52 116.34,235.48 116.63,234.42C116.95,233.24 117.24,231.95 117.53,230.65C117.84,229.26 118.14,227.8 118.44,226.34C118.75,224.83 119.04,223.27 119.34,221.71C119.64,220.13 119.95,218.53 120.25,216.93C120.55,215.31 120.85,213.69 121.15,212.06C121.45,210.4 121.75,208.74 122.05,207.06C122.35,205.35 122.66,203.63 122.96,201.88C123.26,200.1 123.56,198.29 123.86,196.48C124.16,194.66 124.47,192.82 124.77,190.99C125.07,189.17 125.37,187.35 125.67,185.55C125.97,183.77 126.28,182 126.58,180.25C126.88,178.53 127.18,176.81 127.48,175.12C127.78,173.45 128.07,171.8 128.38,170.17C128.68,168.57 128.98,167 129.29,165.44C129.59,163.92 129.88,162.42 130.19,160.95C130.49,159.53 130.79,158.13 131.1,156.78C131.39,155.49 131.69,154.23 132,153.01C132.29,151.86 132.59,150.74 132.9,149.68C133.19,148.7 133.49,147.75 133.81,146.87C134.1,146.07 134.39,145.3 134.71,144.62C135,144.02 135.29,143.44 135.62,142.96C135.9,142.55 136.19,142.16 136.52,141.91C136.8,141.7 137.11,141.52 137.42,141.49C137.72,141.46 138.05,141.55 138.33,141.7C138.66,141.87 138.95,142.2 139.23,142.54C139.56,142.94 139.86,143.46 140.14,144C140.47,144.62 140.75,145.34 141.04,146.09C141.36,146.92 141.66,147.83 141.95,148.77C142.27,149.8 142.56,150.91 142.85,152.04C143.16,153.26 143.46,154.54 143.75,155.85C144.06,157.25 144.37,158.7 144.66,160.18C144.97,161.74 145.26,163.35 145.56,164.99C145.87,166.7 146.17,168.46 146.47,170.24C146.78,172.09 147.07,173.99 147.37,175.91C147.67,177.89 147.97,179.91 148.27,181.96C148.58,184.07 148.88,186.22 149.18,188.4C149.49,190.64 149.78,192.91 150.08,195.21C150.39,197.57 150.69,199.96 150.99,202.38C151.3,204.85 151.59,207.35 151.89,209.87C152.19,212.44 152.49,215.05 152.79,217.67C153.09,220.33 153.4,223.01 153.7,225.71C154,228.44 154.3,231.19 154.6,233.95C154.9,236.73 155.21,239.53 155.51,242.33C155.81,245.14 156.11,247.97 156.41,250.79C156.71,253.61 157.02,256.44 157.32,259.25C157.62,262.04 157.92,264.84 158.22,267.6C158.52,270.32 158.81,273.03 159.12,275.68C159.42,278.25 159.72,280.8 160.03,283.25C160.32,285.57 160.61,287.87 160.93,290.02C161.22,291.99 161.5,293.99 161.84,295.66C162.12,297.02 162.4,298.27 162.74,299.33C163.01,300.18 163.29,300.96 163.64,301.57C163.91,302.05 164.2,302.52 164.55,302.75C164.82,302.93 165.18,303.06 165.45,302.97C165.79,302.85 166.1,302.34 166.36,301.82C166.77,301.01 166.98,299.62 167.26,298.37C167.59,296.91 167.86,295.19 168.16,293.58C168.46,291.93 168.77,290.24 169.07,288.58C169.37,286.94 169.66,285.29 169.97,283.68C170.27,282.11 170.57,280.54 170.88,279.02C171.18,277.55 171.47,276.11 171.78,274.71C172.07,273.37 172.37,272.06 172.68,270.8C172.97,269.61 173.28,268.46 173.59,267.35C173.88,266.31 174.18,265.31 174.49,264.35C174.78,263.46 175.09,262.61 175.4,261.8C175.69,261.05 175.98,260.33 176.3,259.66C176.59,259.04 176.89,258.45 177.21,257.91C177.5,257.42 177.79,256.96 178.11,256.56C178.4,256.2 178.69,255.88 179.01,255.62C179.3,255.39 179.61,255.2 179.92,255.07C180.21,254.95 180.52,254.91 180.82,254.84C181.12,254.77 181.45,254.8 181.73,254.63C182.07,254.43 182.33,253.94 182.63,253.58C182.93,253.21 183.23,252.82 183.53,252.42C183.84,252 184.15,251.59 184.44,251.13C184.75,250.64 185.05,250.13 185.34,249.57C185.66,248.96 185.96,248.31 186.25,247.62C186.57,246.87 186.86,246.07 187.15,245.25C187.46,244.37 187.75,243.45 188.05,242.51C188.36,241.53 188.66,240.52 188.96,239.49C189.27,238.43 189.56,237.34 189.86,236.24C190.17,235.12 190.48,234.01 190.77,232.82C191.08,231.53 191.38,230.17 191.67,228.78C191.98,227.31 192.28,225.75 192.58,224.24C192.88,222.73 193.18,221.22 193.48,219.73C193.78,218.26 194.07,216.8 194.38,215.36C194.68,213.96 194.98,212.57 195.29,211.22C195.59,209.91 195.88,208.62 196.19,207.38C196.48,206.2 196.79,205.05 197.1,203.95C197.39,202.92 197.68,201.92 198,200.99C198.29,200.14 198.58,199.32 198.9,198.59C199.18,197.95 199.47,197.32 199.81,196.83C200.09,196.42 200.37,196.01 200.71,195.81C200.99,195.64 201.33,195.52 201.62,195.58C201.94,195.64 202.25,195.93 202.52,196.23C202.87,196.62 203.14,197.21 203.42,197.82C203.76,198.56 204.05,199.44 204.33,200.37C204.66,201.45 204.94,202.67 205.23,203.93C205.55,205.35 205.85,206.89 206.14,208.49C206.46,210.24 206.75,212.11 207.04,214.03C207.35,216.09 207.66,218.27 207.95,220.47C208.26,222.78 208.55,225.19 208.85,227.58C209.15,229.99 209.45,232.43 209.75,234.87C210.05,237.32 210.36,239.76 210.66,242.25C210.96,244.79 211.26,247.36 211.56,249.94C211.86,252.55 212.16,255.22 212.47,257.8C212.77,260.31 213.05,262.9 213.37,265.23C213.65,267.31 213.94,269.35 214.27,271.13C214.55,272.63 214.83,274.07 215.18,275.24C215.45,276.14 215.67,277.14 216.08,277.58C216.34,277.86 216.72,278.11 216.99,278.02C217.37,277.89 217.63,276.95 217.89,276.19C218.28,275.05 218.52,273.41 218.79,271.75C219.13,269.66 219.42,267.18 219.7,264.63C220.03,261.68 220.31,258.42 220.6,255.09C220.92,251.44 221.22,247.55 221.51,243.62C221.82,239.46 222.11,235.13 222.41,230.79C222.72,226.32 223.02,221.74 223.32,217.18C223.62,212.57 223.92,207.9 224.22,203.26C224.52,198.63 224.82,193.99 225.12,189.39C225.42,184.84 225.73,180.3 226.03,175.82C226.33,171.43 226.62,167.07 226.93,162.79C227.23,158.64 227.53,154.53 227.84,150.52C228.14,146.67 228.43,142.88 228.74,139.2C229.03,135.7 229.33,132.26 229.64,128.95C229.93,125.83 230.24,122.79 230.55,119.88C230.84,117.17 231.13,114.54 231.45,112.05C231.74,109.76 232.04,107.55 232.36,105.49C232.65,103.64 232.94,101.86 233.26,100.24C233.54,98.82 233.83,97.46 234.16,96.28C234.44,95.29 234.72,94.34 235.07,93.6C235.34,93.03 235.61,92.43 235.97,92.18C236.24,92 236.6,91.91 236.88,92.01C237.22,92.13 237.51,92.64 237.78,93.1C238.14,93.72 238.4,94.59 238.68,95.47C239.02,96.54 239.31,97.8 239.59,99.1C239.92,100.59 240.2,102.24 240.49,103.93C240.81,105.77 241.11,107.71 241.4,109.72C241.71,111.88 242.01,114.14 242.3,116.48C242.61,118.99 242.92,121.62 243.21,124.31C243.52,127.16 243.82,130.12 244.11,133.11C244.42,136.23 244.71,139.43 245.01,142.65C245.32,145.94 245.62,149.3 245.92,152.65C246.22,156.04 246.52,159.46 246.82,162.87C247.12,166.27 247.43,169.7 247.73,173.08C248.03,176.43 248.32,179.79 248.63,183.06C248.92,186.22 249.21,189.39 249.53,192.36C249.82,195.09 250.1,197.86 250.44,200.2C250.72,202.1 250.85,204.33 251.34,205.35C251.59,205.88 251.99,206.44 252.25,206.38C252.67,206.28 252.88,204.25 253.15,202.89C253.52,201.01 253.76,198.5 254.05,196.09C254.37,193.37 254.67,190.37 254.96,187.39C255.27,184.26 255.56,180.99 255.86,177.75C256.16,174.46 256.47,171.11 256.77,167.8C257.07,164.49 257.37,161.17 257.67,157.89C257.97,154.66 258.28,151.44 258.58,148.27C258.88,145.16 259.18,142.1 259.48,139.03C259.78,135.99 260.08,132.99 260.38,129.96C260.68,126.9 260.99,123.8 261.29,120.76C261.59,117.77 261.88,114.77 262.19,111.86C262.49,109.05 262.79,106.28 263.1,103.59C263.39,101.03 263.69,98.53 264,96.11C264.29,93.83 264.59,91.61 264.9,89.49C265.19,87.53 265.49,85.62 265.81,83.83C266.1,82.21 266.38,80.64 266.71,79.22C266.99,77.98 267.28,76.77 267.62,75.75C267.9,74.91 268.16,74.08 268.52,73.5C268.79,73.07 269.09,72.59 269.42,72.5C269.7,72.43 270.06,72.59 270.33,72.81C270.7,73.12 270.96,73.78 271.23,74.41C271.58,75.22 271.86,76.25 272.14,77.31C272.47,78.57 272.75,79.99 273.04,81.47C273.36,83.14 273.66,84.95 273.95,86.82C274.27,88.87 274.56,91.06 274.85,93.3C275.16,95.7 275.46,98.22 275.75,100.79C276.06,103.51 276.36,106.33 276.66,109.19C276.97,112.17 277.26,115.24 277.56,118.34C277.87,121.53 278.17,124.79 278.47,128.06C278.77,131.39 279.07,134.78 279.37,138.15C279.67,141.53 279.97,144.95 280.27,148.31C280.57,151.62 280.87,154.95 281.18,158.15C281.47,161.19 281.76,164.27 282.08,167.06C282.37,169.55 282.63,172.13 282.99,174.1C283.26,175.54 283.5,177.74 283.89,177.81C284.15,177.85 284.54,177.09 284.79,176.42C285.28,175.13 285.42,172.55 285.7,170.27C286.04,167.42 286.31,164 286.6,160.63C286.92,156.92 287.21,152.92 287.51,148.95C287.82,144.83 288.11,140.58 288.41,136.37C288.71,132.13 289.02,127.84 289.32,123.6C289.62,119.41 289.92,115.21 290.22,111.08C290.52,107.04 290.81,103.03 291.12,99.09C291.42,95.27 291.72,91.48 292.03,87.79C292.33,84.23 292.62,80.73 292.93,77.32C293.23,74.06 293.53,70.87 293.84,67.77C294.13,64.84 294.43,61.97 294.74,59.21C295.03,56.62 295.33,54.1 295.64,51.69C295.93,49.46 296.23,47.29 296.55,45.24C296.84,43.37 297.13,41.57 297.45,39.89C297.74,38.38 298.04,36.94 298.36,35.62C298.64,34.47 298.93,33.37 299.26,32.41C299.54,31.6 299.82,30.83 300.16,30.22C300.44,29.73 300.72,29.24 301.07,28.98C301.34,28.77 301.68,28.62 301.97,28.65C302.28,28.68 302.61,28.92 302.88,29.19C303.22,29.52 303.5,30.05 303.78,30.59C304.12,31.24 304.4,32.04 304.68,32.87C305.01,33.82 305.3,34.89 305.59,36C305.91,37.24 306.2,38.58 306.49,39.96C306.81,41.47 307.11,43.07 307.4,44.71C307.71,46.47 308.01,48.31 308.3,50.19C308.61,52.18 308.91,54.25 309.21,56.35C309.52,58.55 309.82,60.82 310.11,63.11C310.42,65.49 310.71,67.92 311.01,70.37C311.32,72.88 311.62,75.44 311.92,78C312.22,80.6 312.52,83.23 312.82,85.84C313.12,88.46 313.43,91.09 313.73,93.7C314.03,96.28 314.33,98.86 314.63,101.41C314.93,103.91 315.23,106.39 315.53,108.84C315.83,111.24 316.14,113.61 316.44,115.96C316.74,118.27 317.04,120.55 317.34,122.82C317.64,125.06 317.95,127.29 318.25,129.51C318.55,131.72 318.85,133.91 319.15,136.11C319.45,138.31 319.75,140.49 320.05,142.69C320.35,144.89 320.66,147.09 320.96,149.3C321.26,151.53 321.56,153.76 321.86,156C322.16,158.27 322.47,160.54 322.77,162.83C323.07,165.15 323.37,167.48 323.67,169.83C323.97,172.22 324.28,174.62 324.58,177.05C324.88,179.51 325.18,182 325.48,184.5C325.78,187.04 326.08,189.6 326.38,192.18C326.68,194.79 326.99,197.42 327.29,200.05C327.59,202.7 327.89,205.36 328.19,208.02C328.49,210.67 328.8,213.33 329.1,215.98C329.4,218.62 329.7,221.25 330,223.87C330.3,226.49 330.6,229.1 330.9,231.7C331.2,234.28 331.51,236.87 331.81,239.42C332.11,241.93 332.4,244.44 332.71,246.89C333.01,249.27 333.31,251.65 333.62,253.91C333.91,256.04 334.2,258.14 334.52,260.09C334.81,261.85 335.11,263.49 335.42,265.09C335.71,266.56 336.02,267.95 336.33,269.33C336.62,270.65 336.91,271.96 337.23,273.18C337.52,274.29 337.76,275.55 338.14,276.36C338.4,276.92 338.71,277.33 339.04,277.68C339.32,277.97 339.64,278.17 339.95,278.36C340.24,278.53 340.55,278.64 340.85,278.77C341.15,278.9 341.45,279.01 341.75,279.15C342.06,279.29 342.36,279.45 342.66,279.62C342.97,279.8 343.26,279.99 343.56,280.2C343.87,280.42 344.17,280.66 344.47,280.91C344.78,281.17 345.07,281.46 345.37,281.75C345.67,282.05 345.97,282.37 346.27,282.7C346.58,283.04 346.88,283.39 347.18,283.74C347.48,284.09 347.76,284.5 348.08,284.82C348.37,285.11 348.68,285.57 348.99,285.59C349.29,285.6 349.62,285.26 349.89,284.97C350.23,284.62 350.49,284.01 350.79,283.54C351.09,283.08 351.39,282.59 351.7,282.17C351.99,281.78 352.29,281.4 352.6,281.07C352.89,280.76 353.2,280.49 353.51,280.25C353.8,280.03 354.1,279.86 354.41,279.69C354.71,279.53 355.02,279.42 355.32,279.27C355.62,279.11 355.93,278.96 356.22,278.75C356.53,278.52 356.82,278.22 357.12,277.94C357.43,277.66 357.73,277.35 358.03,277.06C358.33,276.77 358.63,276.49 358.93,276.21C359.23,275.93 359.54,275.66 359.84,275.37C360.14,275.08 360.45,274.79 360.74,274.47C361.05,274.14 361.35,273.81 361.64,273.44C361.95,273.05 362.26,272.64 362.55,272.2C362.86,271.72 363.16,271.2 363.45,270.66C363.76,270.07 364.07,269.45 364.36,268.79C364.67,268.09 364.97,267.34 365.26,266.57C365.57,265.75 365.86,264.89 366.16,264.02C366.47,263.11 366.77,262.16 367.07,261.21C367.38,260.23 367.67,259.22 367.97,258.21C368.27,257.19 368.58,256.15 368.88,255.11C369.18,254.07 369.48,253.02 369.78,251.98C370.08,250.95 370.38,249.92 370.68,248.9C370.98,247.9 371.28,246.91 371.59,245.94C371.89,244.99 372.18,244.05 372.49,243.14C372.79,242.26 373.09,241.4 373.4,240.56C373.7,239.76 373.99,238.97 374.3,238.22C374.59,237.5 374.9,236.8 375.21,236.13C375.5,235.49 375.81,234.87 376.11,234.26C376.41,233.66 376.71,233.08 377.01,232.48C377.32,231.86 377.62,231.23 377.92,230.6C378.22,229.96 378.51,229.3 378.82,228.67C379.12,228.06 379.42,227.44 379.73,226.87C380.02,226.33 380.32,225.8 380.63,225.32C380.92,224.87 381.21,224.45 381.53,224.07C381.82,223.73 382.12,223.4 382.44,223.14C382.73,222.9 383.03,222.69 383.34,222.55C383.63,222.42 383.94,222.32 384.25,222.29C384.55,222.26 384.86,222.39 385.15,222.34C385.46,222.29 385.75,222.07 386.05,221.97C386.35,221.87 386.66,221.77 386.96,221.74C387.26,221.71 387.56,221.74 387.86,221.81C388.17,221.88 388.48,222 388.77,222.15C389.08,222.31 389.38,222.51 389.67,222.74C389.98,222.98 390.29,223.26 390.58,223.56C390.89,223.87 391.19,224.22 391.48,224.57C391.79,224.94 392.08,225.33 392.38,225.73C392.69,226.14 392.99,226.57 393.29,227C393.59,227.44 393.89,227.9 394.19,228.35C394.49,228.81 394.8,229.27 395.1,229.73C395.4,230.19 395.7,230.65 396,231.1C396.3,231.55 396.59,232 396.9,232.43C397.2,232.85 397.5,233.27 397.81,233.66C398.11,234.03 398.4,234.4 398.71,234.73C399,235.04 399.31,235.33 399.62,235.57C399.91,235.79 400.21,235.98 400.52,236.13C400.81,236.27 401.12,236.37 401.42,236.44C401.72,236.51 402.03,236.53 402.33,236.55C402.63,236.57 402.93,236.56 403.23,236.56C403.53,236.56 403.84,236.54 404.14,236.55C404.44,236.56 404.74,236.56 405.04,236.59C405.34,236.62 405.65,236.68 405.95,236.76C406.25,236.84 406.56,236.94 406.85,237.08C407.16,237.23 407.46,237.41 407.75,237.62C408.06,237.84 408.37,238.1 408.66,238.38C408.97,238.68 409.27,239.03 409.56,239.39C409.87,239.78 410.17,240.2 410.47,240.63C410.78,241.08 411.07,241.57 411.37,242.02C411.67,242.47 411.96,242.93 412.27,243.33C412.56,243.71 412.87,244.03 413.18,244.37C413.48,244.7 413.78,245 414.08,245.32C414.38,245.63 414.69,245.95 414.99,246.26C415.29,246.56 415.59,246.87 415.89,247.16C416.19,247.45 416.49,247.72 416.79,247.99C417.09,248.25 417.39,248.51 417.7,248.74C418,248.96 418.29,249.21 418.6,249.35C418.89,249.48 419.23,249.66 419.51,249.58C419.84,249.48 420.13,249.01 420.41,248.63C420.74,248.18 421.04,247.62 421.32,247.01C421.65,246.29 421.94,245.45 422.22,244.58C422.54,243.6 422.83,242.52 423.12,241.43C423.43,240.27 423.73,239.04 424.03,237.82C424.34,236.57 424.63,235.28 424.93,234C425.23,232.72 425.54,231.43 425.84,230.15C426.14,228.88 426.44,227.61 426.74,226.37C427.04,225.15 427.33,223.94 427.64,222.76C427.94,221.62 428.24,220.49 428.55,219.39C428.85,218.34 429.14,217.3 429.45,216.3C429.74,215.36 430.05,214.44 430.36,213.56C430.65,212.74 430.95,211.94 431.26,211.19C431.55,210.5 431.84,209.84 432.16,209.24C432.45,208.69 432.75,208.16 433.07,207.71C433.36,207.31 433.65,206.94 433.97,206.65C434.26,206.4 434.56,206.17 434.88,206.05C435.17,205.94 435.48,205.89 435.78,205.92C436.08,205.95 436.39,206.09 436.68,206.27C437,206.47 437.3,206.77 437.59,207.1C437.91,207.47 438.2,207.92 438.49,208.4C438.81,208.93 439.11,209.53 439.4,210.16C439.72,210.85 440.01,211.6 440.3,212.37C440.61,213.21 440.92,214.1 441.21,215.01C441.52,215.98 441.82,217 442.11,218.04C442.42,219.14 442.71,220.29 443.01,221.45C443.32,222.67 443.62,223.92 443.92,225.19C444.23,226.51 444.52,227.86 444.82,229.22C445.13,230.62 445.43,232.05 445.73,233.49C446.03,234.95 446.33,236.43 446.63,237.91C446.93,239.41 447.23,240.92 447.53,242.43C447.83,243.94 448.14,245.45 448.44,246.95C448.74,248.44 449.04,249.93 449.34,251.4C449.64,252.86 449.95,254.31 450.25,255.75C450.55,257.17 450.85,258.58 451.15,259.98C451.45,261.37 451.75,262.76 452.05,264.14C452.35,265.51 452.66,266.88 452.96,268.25C453.26,269.61 453.56,270.97 453.86,272.33C454.16,273.69 454.47,275.05 454.77,276.41C455.07,277.76 455.37,279.12 455.67,280.47C455.97,281.81 456.28,283.15 456.58,284.48C456.88,285.8 457.18,287.12 457.48,288.42C457.78,289.7 458.07,290.98 458.38,292.23C458.68,293.45 458.98,294.65 459.29,295.82C459.59,296.94 459.88,298.04 460.19,299.09C460.48,300.07 460.78,301.04 461.1,301.9Q461.38,302.66 462,304" style="vector-effect: non-scaling-stroke; fill: none; stroke: rgb(231, 107, 243); stroke-opacity: 1; stroke-width: 2px; opacity: 1;"/></g><g class="points"/><g class="text"/></g></g></g><g class="overplot"/><path class="xlines-above crisp" d="M0,0" style="fill: none;"/><path class="ylines-above crisp" d="M0,0" style="fill: none;"/><g class="overlines-above"/><g class="xaxislayer-above"><g class="xtick"><text text-anchor="middle" x="0" y="433" transform="translate(80,0)" style="font-family: 'Open Sans', verdana, arial, sans-serif; font-size: 12px; fill: rgb(42, 63, 95); fill-opacity: 1; white-space: pre;">0</text></g><g class="xtick"><text text-anchor="middle" x="0" y="433" transform="translate(170.23000000000002,0)" style="font-family: 'Open Sans', verdana, arial, sans-serif; font-size: 12px; fill: rgb(42, 63, 95); fill-opacity: 1; white-space: pre;">100</text></g><g class="xtick"><text text-anchor="middle" x="0" y="433" transform="translate(260.47,0)" style="font-family: 'Open Sans', verdana, arial, sans-serif; font-size: 12px; fill: rgb(42, 63, 95); fill-opacity: 1; white-space: pre;">200</text></g><g class="xtick"><text text-anchor="middle" x="0" y="433" transform="translate(350.7,0)" style="font-family: 'Open Sans', verdana, arial, sans-serif; font-size: 12px; fill: rgb(42, 63, 95); fill-opacity: 1; white-space: pre;">300</text></g><g class="xtick"><text text-anchor="middle" x="0" y="433" transform="translate(440.94,0)" style="font-family: 'Open Sans', verdana, arial, sans-serif; font-size: 12px; fill: rgb(42, 63, 95); fill-opacity: 1; white-space: pre;">400</text></g><g class="xtick"><text text-anchor="middle" x="0" y="433" transform="translate(531.1700000000001,0)" style="font-family: 'Open Sans', verdana, arial, sans-serif; font-size: 12px; fill: rgb(42, 63, 95); fill-opacity: 1; white-space: pre;">500</text></g></g><g class="yaxislayer-above"><g class="ytick"><text text-anchor="end" x="79" y="4.199999999999999" transform="translate(0,408.21)" style="font-family: 'Open Sans', verdana, arial, sans-serif; font-size: 12px; fill: rgb(42, 63, 95); fill-opacity: 1; white-space: pre;">5</text></g><g class="ytick"><text text-anchor="end" x="79" y="4.199999999999999" transform="translate(0,336.43)" style="font-family: 'Open Sans', verdana, arial, sans-serif; font-size: 12px; fill: rgb(42, 63, 95); fill-opacity: 1; white-space: pre;">10</text></g><g class="ytick"><text text-anchor="end" x="79" y="4.199999999999999" transform="translate(0,264.65)" style="font-family: 'Open Sans', verdana, arial, sans-serif; font-size: 12px; fill: rgb(42, 63, 95); fill-opacity: 1; white-space: pre;">15</text></g><g class="ytick"><text text-anchor="end" x="79" y="4.199999999999999" transform="translate(0,192.88)" style="font-family: 'Open Sans', verdana, arial, sans-serif; font-size: 12px; fill: rgb(42, 63, 95); fill-opacity: 1; white-space: pre;">20</text></g><g class="ytick"><text text-anchor="end" x="79" y="4.199999999999999" transform="translate(0,121.1)" style="font-family: 'Open Sans', verdana, arial, sans-serif; font-size: 12px; fill: rgb(42, 63, 95); fill-opacity: 1; white-space: pre;">25</text></g></g><g class="overaxes-above"/></g></g><g class="polarlayer"/><g class="ternarylayer"/><g class="geolayer"/><g class="funnelarealayer"/><g class="pielayer"/><g class="treemaplayer"/><g class="sunburstlayer"/><g class="glimages"/><defs id="topdefs-8ad372"><g class="clips"/><clipPath id="legend8ad372"><rect width="137" height="67" x="0" y="0"/></clipPath></defs><g class="layer-above"><g class="imagelayer"/><g class="shapelayer"/></g><g class="infolayer"><g class="legend" pointer-events="all" transform="translate(551.24, 100)"><rect class="bg" shape-rendering="crispEdges" width="137" height="67" x="0" y="0" style="stroke: rgb(68, 68, 68); stroke-opacity: 1; fill: rgb(255, 255, 255); fill-opacity: 1; stroke-width: 0px;"/><g class="scrollbox" transform="translate(0, 0)" clip-path="url('#legend8ad372')"><g class="groups"><g class="traces" transform="translate(0, 14.5)" style="opacity: 1;"><text class="legendtext" text-anchor="start" x="40" y="4.680000000000001" style="font-family: 'Open Sans', verdana, arial, sans-serif; font-size: 12px; fill: rgb(42, 63, 95); fill-opacity: 1; white-space: pre;">Average Class I</text><g class="layers" style="opacity: 1;"><g class="legendfill"/><g class="legendlines"><path class="js-line" d="M5,0h30" style="fill: none; stroke: rgb(0, 100, 80); stroke-opacity: 1; stroke-width: 2px;"/></g><g class="legendsymbols"><g class="legendpoints"/></g></g><rect class="legendtoggle" x="0" y="-9.5" width="131.15625" height="19" style="fill: rgb(0, 0, 0); fill-opacity: 0;"/></g><g class="traces" transform="translate(0, 33.5)" style="opacity: 1;"><text class="legendtext" text-anchor="start" x="40" y="4.680000000000001" style="font-family: 'Open Sans', verdana, arial, sans-serif; font-size: 12px; fill: rgb(42, 63, 95); fill-opacity: 1; white-space: pre;">Average Class II</text><g class="layers" style="opacity: 1;"><g class="legendfill"/><g class="legendlines"><path class="js-line" d="M5,0h30" style="fill: none; stroke: rgb(0, 176, 246); stroke-opacity: 1; stroke-width: 2px;"/></g><g class="legendsymbols"><g class="legendpoints"/></g></g><rect class="legendtoggle" x="0" y="-9.5" width="131.15625" height="19" style="fill: rgb(0, 0, 0); fill-opacity: 0;"/></g><g class="traces" transform="translate(0, 52.5)" style="opacity: 1;"><text class="legendtext" text-anchor="start" x="40" y="4.680000000000001" style="font-family: 'Open Sans', verdana, arial, sans-serif; font-size: 12px; fill: rgb(42, 63, 95); fill-opacity: 1; white-space: pre;">Average Class III</text><g class="layers" style="opacity: 1;"><g class="legendfill"/><g class="legendlines"><path class="js-line" d="M5,0h30" style="fill: none; stroke: rgb(231, 107, 243); stroke-opacity: 1; stroke-width: 2px;"/></g><g class="legendsymbols"><g class="legendpoints"/></g></g><rect class="legendtoggle" x="0" y="-9.5" width="131.15625" height="19" style="fill: rgb(0, 0, 0); fill-opacity: 0;"/></g></g></g><rect class="scrollbar" rx="20" ry="3" width="0" height="0" x="0" y="0" style="fill: rgb(128, 139, 164); fill-opacity: 1;"/></g><g class="g-gtitle"><text class="gtitle" x="35" y="50" text-anchor="start" dy="0em" style="font-family: 'Open Sans', verdana, arial, sans-serif; font-size: 17px; fill: rgb(42, 63, 95); opacity: 1; font-weight: normal; white-space: pre;">Average curve: betha-structure_group</text></g><g class="g-xtitle"><text class="xtitle" x="311" y="460.8" text-anchor="middle" style="font-family: 'Open Sans', verdana, arial, sans-serif; font-size: 14px; fill: rgb(42, 63, 95); opacity: 1; font-weight: normal; white-space: pre;">Domain</text></g><g class="g-ytitle"><text class="ytitle" transform="rotate(-90,40.840625,260)" x="40.840625" y="260" text-anchor="middle" style="font-family: 'Open Sans', verdana, arial, sans-serif; font-size: 14px; fill: rgb(42, 63, 95); opacity: 1; font-weight: normal; white-space: pre;">Frequency</text></g></g></svg>