<svg class="main-svg" xmlns="http://www.w3.org/2000/svg" xmlns:xlink="http://www.w3.org/1999/xlink" width="700" height="500" style="" viewBox="0 0 700 500"><rect x="0" y="0" width="700" height="500" style="fill: rgb(255, 255, 255); fill-opacity: 1;"/><defs id="defs-18e1eb"><g class="clips"><clipPath id="clip18e1ebxyplot" class="plotclip"><rect width="462" height="320"/></clipPath><clipPath class="axesclip" id="clip18e1ebx"><rect x="80" y="0" width="462" height="500"/></clipPath><clipPath class="axesclip" id="clip18e1eby"><rect x="0" y="100" width="700" height="320"/></clipPath><clipPath class="axesclip" id="clip18e1ebxy"><rect x="80" y="100" width="462" height="320"/></clipPath></g><g class="gradients"/></defs><g class="bglayer"><rect class="bg" x="80" y="100" width="462" height="320" style="fill: rgb(229, 236, 246); fill-opacity: 1; stroke-width: 0;"/></g><g class="layer-below"><g class="imagelayer"/><g class="shapelayer"/></g><g class="cartesianlayer"><g class="subplot xy"><g class="layer-subplot"><g class="shapelayer"/><g class="imagelayer"/></g><g class="gridlayer"><g class="x"><path class="xgrid crisp" transform="translate(170.23000000000002,0)" d="M0,100v320" style="stroke: rgb(255, 255, 255); stroke-opacity: 1; stroke-width: 1px;"/><path class="xgrid crisp" transform="translate(260.47,0)" d="M0,100v320" style="stroke: rgb(255, 255, 255); stroke-opacity: 1; stroke-width: 1px;"/><path class="xgrid crisp" transform="translate(350.7,0)" d="M0,100v320" style="stroke: rgb(255, 255, 255); stroke-opacity: 1; stroke-width: 1px;"/><path class="xgrid crisp" transform="translate(440.94,0)" d="M0,100v320" style="stroke: rgb(255, 255, 255); stroke-opacity: 1; stroke-width: 1px;"/><path class="xgrid crisp" transform="translate(531.1700000000001,0)" d="M0,100v320" style="stroke: rgb(255, 255, 255); stroke-opacity: 1; stroke-width: 1px;"/></g><g class="y"><path class="ygrid crisp" transform="translate(0,392.77)" d="M80,0h462" style="stroke: rgb(255, 255, 255); stroke-opacity: 1; stroke-width: 1px;"/><path class="ygrid crisp" transform="translate(0,328.03999999999996)" d="M80,0h462" style="stroke: rgb(255, 255, 255); stroke-opacity: 1; stroke-width: 1px;"/><path class="ygrid crisp" transform="translate(0,263.31)" d="M80,0h462" style="stroke: rgb(255, 255, 255); stroke-opacity: 1; stroke-width: 1px;"/><path class="ygrid crisp" transform="translate(0,198.57999999999998)" d="M80,0h462" style="stroke: rgb(255, 255, 255); stroke-opacity: 1; stroke-width: 1px;"/><path class="ygrid crisp" transform="translate(0,133.86)" d="M80,0h462" style="stroke: rgb(255, 255, 255); stroke-opacity: 1; stroke-width: 1px;"/></g></g><g class="zerolinelayer"><path class="xzl zl crisp" transform="translate(80,0)" d="M0,100v320" style="stroke: rgb(255, 255, 255); stroke-opacity: 1; stroke-width: 2px;"/></g><path class="xlines-below"/><path class="ylines-below"/><g class="overlines-below"/><g class="xaxislayer-below"/><g class="yaxislayer-below"/><g class="overaxes-below"/><g class="plot" transform="translate(80, 100)" clip-path="url('#clip18e1ebxyplot')"><g class="scatterlayer mlayer"><g class="trace scatter trace56659d" style="stroke-miterlimit: 2; opacity: 1;"><g class="fills"/><g class="errorbars"/><g class="lines"><path class="js-line" d="M0,77.58Q0.6,77.54 0.9,77.47C1.21,77.4 1.51,77.28 1.81,77.14C2.12,77 2.41,76.82 2.71,76.63C3.02,76.43 3.32,76.21 3.62,75.98C3.92,75.75 4.22,75.49 4.52,75.24C4.82,74.99 5.12,74.73 5.42,74.49C5.72,74.25 6.02,74 6.33,73.78C6.63,73.57 6.92,73.35 7.23,73.18C7.53,73.01 7.83,72.85 8.14,72.75C8.44,72.65 8.74,72.57 9.04,72.56C9.34,72.55 9.65,72.57 9.95,72.66C10.26,72.75 10.56,72.91 10.85,73.1C11.17,73.31 11.46,73.6 11.75,73.92C12.07,74.28 12.37,74.7 12.66,75.15C12.98,75.65 13.27,76.22 13.56,76.81C13.88,77.47 14.18,78.18 14.47,78.93C14.79,79.74 15.08,80.62 15.37,81.52C15.68,82.49 15.98,83.52 16.27,84.57C16.58,85.69 16.89,86.87 17.18,88.07C17.49,89.34 17.79,90.66 18.08,92.01C18.39,93.42 18.69,94.88 18.99,96.36C19.3,97.9 19.59,99.47 19.89,101.07C20.2,102.72 20.49,104.41 20.79,106.11C21.1,107.85 21.4,109.62 21.7,111.4C22,113.21 22.3,115.05 22.6,116.89C22.9,118.75 23.21,120.62 23.51,122.49C23.81,124.36 24.11,126.25 24.41,128.12C24.71,129.98 25.02,131.84 25.32,133.68C25.62,135.49 25.92,137.29 26.22,139.06C26.52,140.78 26.81,142.49 27.12,144.15C27.42,145.74 27.72,147.31 28.03,148.82C28.32,150.24 28.61,151.63 28.93,152.93C29.22,154.13 29.52,155.29 29.84,156.36C30.13,157.32 30.42,158.25 30.74,159.08C31.02,159.81 31.31,160.5 31.64,161.09C31.92,161.6 32.22,162.07 32.55,162.46C32.83,162.79 33.13,163.08 33.45,163.3C33.74,163.5 34.05,163.65 34.36,163.75C34.65,163.85 34.96,163.91 35.26,163.91C35.56,163.91 35.86,163.85 36.16,163.76C36.47,163.67 36.77,163.49 37.07,163.36C37.37,163.23 37.67,163.09 37.97,162.98C38.27,162.88 38.58,162.81 38.88,162.73C39.18,162.65 39.48,162.53 39.78,162.5C40.08,162.47 40.39,162.48 40.68,162.56C40.99,162.64 41.3,162.79 41.59,162.99C41.91,163.21 42.2,163.52 42.49,163.84C42.81,164.2 43.11,164.63 43.4,165.08C43.72,165.58 44.01,166.14 44.3,166.72C44.61,167.34 44.92,168.01 45.21,168.69C45.52,169.41 45.82,170.17 46.11,170.94C46.42,171.74 46.71,172.57 47.01,173.41C47.32,174.28 47.62,175.18 47.92,176.08C48.23,177.01 48.52,177.96 48.82,178.91C49.12,179.88 49.43,180.86 49.73,181.84C50.03,182.84 50.33,183.85 50.63,184.86C50.93,185.88 51.23,186.91 51.53,187.95C51.83,189 52.14,190.06 52.44,191.13C52.74,192.21 53.04,193.3 53.34,194.41C53.65,195.54 53.95,196.69 54.25,197.85C54.56,199.04 54.85,200.24 55.15,201.47C55.45,202.73 55.75,204.02 56.05,205.32C56.36,206.66 56.66,208.03 56.96,209.42C57.27,210.85 57.56,212.31 57.86,213.78C58.17,215.29 58.47,216.83 58.77,218.38C59.07,219.96 59.37,221.57 59.67,223.19C59.97,224.84 60.28,226.51 60.58,228.18C60.88,229.88 61.18,231.58 61.48,233.3C61.78,235.04 62.08,236.78 62.38,238.54C62.68,240.32 62.99,242.11 63.29,243.91C63.59,245.72 63.89,247.55 64.19,249.38C64.49,251.21 64.8,253.06 65.1,254.89C65.4,256.72 65.7,258.55 66,260.36C66.3,262.15 66.59,263.94 66.9,265.68C67.2,267.35 67.5,269.03 67.81,270.6C68.1,272.05 68.39,273.47 68.71,274.78C69,275.96 69.29,277.14 69.62,278.13C69.9,278.96 70.16,279.78 70.52,280.36C70.79,280.79 71.08,281.22 71.42,281.38C71.7,281.51 72.04,281.51 72.33,281.42C72.65,281.32 72.95,281.02 73.23,280.72C73.56,280.37 73.85,279.89 74.14,279.41C74.46,278.87 74.75,278.25 75.04,277.62C75.35,276.94 75.65,276.22 75.95,275.48C76.26,274.71 76.55,273.9 76.85,273.09C77.15,272.25 77.45,271.39 77.75,270.52C78.05,269.63 78.36,268.73 78.66,267.83C78.96,266.91 79.26,265.98 79.56,265.06C79.86,264.13 80.17,263.2 80.47,262.28C80.77,261.37 81.07,260.46 81.37,259.57C81.67,258.7 81.97,257.83 82.27,256.98C82.57,256.14 82.87,255.29 83.18,254.49C83.47,253.73 83.76,252.98 84.08,252.29C84.37,251.65 84.67,251.04 84.99,250.49C85.28,250 85.57,249.53 85.89,249.14C86.17,248.8 86.47,248.47 86.79,248.25C87.08,248.06 87.39,247.9 87.7,247.85C87.99,247.8 88.31,247.83 88.6,247.92C88.91,248.02 89.22,248.23 89.51,248.46C89.83,248.72 90.12,249.07 90.41,249.44C90.73,249.85 91.03,250.33 91.32,250.83C91.64,251.38 91.93,251.99 92.22,252.61C92.53,253.28 92.82,254.01 93.12,254.73C93.43,255.47 93.73,256.24 94.03,257.01C94.33,257.8 94.63,258.59 94.93,259.4C95.24,260.23 95.54,261.09 95.84,261.93C96.14,262.77 96.44,263.63 96.74,264.46C97.04,265.27 97.33,266.07 97.64,266.85C97.94,267.6 98.24,268.35 98.55,269.04C98.84,269.68 99.14,270.29 99.45,270.86C99.74,271.4 100.04,271.92 100.36,272.38C100.65,272.8 100.93,273.22 101.26,273.53C101.54,273.79 101.84,274.03 102.16,274.15C102.45,274.26 102.77,274.27 103.07,274.26C103.37,274.25 103.67,274.17 103.97,274.09C104.28,274 104.58,273.89 104.88,273.75C105.19,273.61 105.49,273.45 105.78,273.25C106.09,273.04 106.39,272.79 106.68,272.53C106.99,272.26 107.29,271.95 107.59,271.65C107.89,271.34 108.19,271.02 108.49,270.7C108.79,270.38 109.1,270.05 109.4,269.72C109.7,269.4 110,269.07 110.3,268.75C110.6,268.43 110.91,268.1 111.21,267.78C111.51,267.46 111.81,267.15 112.11,266.84C112.41,266.53 112.71,266.22 113.01,265.92C113.31,265.62 113.62,265.32 113.92,265.03C114.22,264.74 114.52,264.46 114.82,264.18C115.12,263.9 115.42,263.63 115.73,263.37C116.03,263.11 116.33,262.87 116.63,262.63C116.93,262.39 117.23,262.17 117.53,261.94C117.83,261.7 118.14,261.46 118.44,261.22C118.74,260.98 119.04,260.74 119.34,260.5C119.64,260.26 119.95,260.03 120.25,259.8C120.55,259.58 120.85,259.36 121.15,259.16C121.45,258.96 121.75,258.77 122.05,258.59C122.35,258.41 122.66,258.25 122.96,258.08C123.26,257.92 123.56,257.76 123.86,257.6C124.16,257.44 124.47,257.29 124.77,257.13C125.07,256.98 125.37,256.83 125.67,256.67C125.97,256.51 126.28,256.35 126.58,256.18C126.88,256.01 127.18,255.83 127.48,255.64C127.78,255.44 128.08,255.23 128.38,255.01C128.69,254.78 128.99,254.54 129.29,254.28C129.6,254.02 129.89,253.73 130.19,253.45C130.49,253.16 130.8,252.87 131.1,252.56C131.41,252.23 131.71,251.89 132,251.53C132.31,251.15 132.6,250.72 132.9,250.33C133.2,249.95 133.5,249.57 133.81,249.2C134.11,248.84 134.4,248.48 134.71,248.15C135.01,247.83 135.31,247.52 135.62,247.23C135.92,246.95 136.22,246.69 136.52,246.43C136.82,246.18 137.12,245.93 137.42,245.69C137.72,245.46 138.02,245.23 138.33,245.03C138.63,244.84 138.92,244.65 139.23,244.5C139.53,244.35 139.83,244.21 140.14,244.12C140.44,244.03 140.74,243.97 141.04,243.96C141.34,243.95 141.65,244 141.95,244.09C142.26,244.19 142.56,244.34 142.85,244.54C143.17,244.75 143.46,245.04 143.75,245.35C144.07,245.69 144.37,246.09 144.66,246.52C144.98,246.99 145.27,247.51 145.56,248.05C145.88,248.64 146.18,249.28 146.47,249.94C146.78,250.65 147.08,251.41 147.37,252.18C147.68,253 147.98,253.86 148.27,254.74C148.58,255.66 148.88,256.62 149.18,257.59C149.49,258.6 149.78,259.64 150.08,260.69C150.39,261.77 150.69,262.88 150.99,263.99C151.29,265.12 151.59,266.27 151.89,267.42C152.19,268.57 152.49,269.74 152.79,270.88C153.09,272.01 153.39,273.14 153.7,274.23C154,275.27 154.29,276.31 154.6,277.28C154.89,278.19 155.19,279.09 155.51,279.9C155.8,280.63 156.08,281.35 156.41,281.94C156.69,282.43 156.98,282.91 157.32,283.21C157.6,283.45 157.91,283.61 158.22,283.68C158.51,283.75 158.83,283.73 159.12,283.65C159.43,283.56 159.74,283.35 160.03,283.15C160.34,282.94 160.64,282.67 160.93,282.39C161.24,282.1 161.54,281.77 161.84,281.44C162.14,281.11 162.44,280.75 162.74,280.41C163.04,280.07 163.34,279.72 163.64,279.38C163.94,279.04 164.25,278.72 164.55,278.39C164.85,278.07 165.15,277.75 165.45,277.43C165.75,277.12 166.06,276.81 166.36,276.5C166.66,276.2 166.96,275.9 167.26,275.6C167.56,275.3 167.86,275.01 168.16,274.72C168.46,274.44 168.76,274.15 169.07,273.89C169.37,273.63 169.67,273.39 169.97,273.15C170.27,272.91 170.58,272.69 170.88,272.46C171.18,272.23 171.48,272 171.78,271.75C172.08,271.5 172.39,271.26 172.68,270.97C172.99,270.67 173.3,270.34 173.59,269.97C173.91,269.57 174.2,269.11 174.49,268.65C174.8,268.16 175.11,267.68 175.4,267.12C175.72,266.48 176.01,265.75 176.3,265.01C176.62,264.2 176.91,263.33 177.21,262.46C177.52,261.55 177.82,260.62 178.11,259.66C178.42,258.65 178.71,257.61 179.01,256.55C179.32,255.44 179.62,254.3 179.92,253.15C180.23,251.97 180.52,250.76 180.82,249.55C181.12,248.32 181.43,247.07 181.73,245.82C182.03,244.55 182.33,243.28 182.63,242C182.93,240.71 183.23,239.41 183.53,238.11C183.83,236.8 184.14,235.49 184.44,234.17C184.74,232.85 185.04,231.52 185.34,230.19C185.64,228.86 185.95,227.52 186.25,226.19C186.55,224.86 186.85,223.53 187.15,222.19C187.45,220.84 187.75,219.5 188.05,218.12C188.36,216.71 188.66,215.26 188.96,213.82C189.26,212.38 189.56,210.92 189.86,209.49C190.16,208.09 190.46,206.69 190.77,205.33C191.07,204.02 191.36,202.73 191.67,201.48C191.96,200.29 192.27,199.13 192.58,198.02C192.87,196.98 193.17,195.97 193.48,195.03C193.77,194.17 194.06,193.33 194.38,192.58C194.67,191.91 194.96,191.25 195.29,190.71C195.57,190.25 195.86,189.79 196.19,189.49C196.47,189.24 196.79,188.99 197.1,188.94C197.39,188.89 197.72,188.97 198,189.12C198.33,189.3 198.62,189.66 198.9,190.04C199.24,190.5 199.53,191.1 199.81,191.72C200.14,192.45 200.42,193.29 200.71,194.17C201.03,195.16 201.33,196.25 201.62,197.38C201.94,198.62 202.23,199.96 202.52,201.33C202.83,202.81 203.13,204.38 203.42,205.98C203.73,207.69 204.04,209.47 204.33,211.28C204.64,213.18 204.93,215.15 205.23,217.14C205.54,219.22 205.84,221.35 206.14,223.5C206.45,225.72 206.74,228 207.04,230.28C207.34,232.61 207.65,234.99 207.95,237.34C208.25,239.7 208.55,242.04 208.85,244.41C209.15,246.8 209.45,249.21 209.75,251.62C210.05,254.04 210.36,256.48 210.66,258.9C210.96,261.31 211.26,263.72 211.56,266.12C211.86,268.5 212.17,270.89 212.47,273.24C212.77,275.55 213.06,277.87 213.37,280.12C213.66,282.28 213.95,284.46 214.27,286.46C214.56,288.28 214.85,290.04 215.18,291.64C215.46,293.03 215.73,294.4 216.08,295.51C216.35,296.39 216.6,297.33 216.99,297.82C217.25,298.14 217.62,298.48 217.89,298.42C218.23,298.35 218.53,297.63 218.79,297.04C219.17,296.19 219.42,294.93 219.7,293.71C220.03,292.27 220.32,290.66 220.6,288.95C220.93,286.97 221.21,284.7 221.51,282.53C221.82,280.3 222.11,278.01 222.41,275.74C222.71,273.45 223.02,271.14 223.32,268.84C223.62,266.55 223.92,264.26 224.22,261.98C224.52,259.73 224.82,257.48 225.12,255.25C225.42,253.06 225.73,250.88 226.03,248.73C226.33,246.63 226.62,244.54 226.93,242.49C227.23,240.49 227.53,238.52 227.84,236.58C228.14,234.69 228.44,232.84 228.74,230.98C229.04,229.14 229.34,227.34 229.64,225.5C229.94,223.64 230.25,221.77 230.55,219.9C230.85,218.02 231.15,216.14 231.45,214.26C231.75,212.37 232.06,210.49 232.36,208.58C232.66,206.65 232.96,204.7 233.26,202.74C233.56,200.75 233.86,198.75 234.16,196.74C234.46,194.7 234.77,192.63 235.07,190.56C235.37,188.49 235.67,186.39 235.97,184.32C236.27,182.26 236.58,180.2 236.88,178.16C237.18,176.14 237.48,174.12 237.78,172.12C238.08,170.14 238.38,168.16 238.68,166.2C238.98,164.25 239.29,162.31 239.59,160.38C239.89,158.46 240.19,156.54 240.49,154.62C240.79,152.69 241.1,150.75 241.4,148.8C241.7,146.82 242,144.82 242.3,142.83C242.6,140.83 242.91,138.83 243.21,136.84C243.51,134.87 243.81,132.9 244.11,130.95C244.41,129.03 244.71,127.12 245.01,125.23C245.31,123.37 245.62,121.54 245.92,119.71C246.22,117.9 246.52,116.12 246.82,114.33C247.12,112.55 247.43,110.79 247.73,109.01C248.03,107.23 248.33,105.46 248.63,103.66C248.93,101.84 249.23,100.02 249.53,98.17C249.83,96.28 250.14,94.38 250.44,92.45C250.74,90.48 251.04,88.49 251.34,86.49C251.64,84.46 251.95,82.4 252.25,80.34C252.55,78.27 252.85,76.18 253.15,74.1C253.45,72.03 253.75,69.95 254.05,67.9C254.35,65.88 254.65,63.86 254.96,61.89C255.26,59.97 255.55,58.07 255.86,56.22C256.16,54.45 256.46,52.7 256.77,51.02C257.06,49.44 257.35,47.89 257.67,46.42C257.96,45.07 258.26,43.75 258.58,42.54C258.87,41.45 259.15,40.39 259.48,39.46C259.76,38.66 260.04,37.88 260.38,37.27C260.66,36.78 260.94,36.27 261.29,36.04C261.56,35.86 261.91,35.74 262.19,35.81C262.51,35.89 262.83,36.25 263.1,36.6C263.45,37.06 263.72,37.74 264,38.43C264.34,39.27 264.62,40.27 264.9,41.3C265.23,42.49 265.52,43.8 265.81,45.17C266.13,46.69 266.42,48.32 266.71,50.01C267.03,51.85 267.33,53.79 267.62,55.78C267.93,57.91 268.23,60.13 268.52,62.4C268.83,64.79 269.12,67.27 269.42,69.79C269.73,72.42 270.03,75.12 270.33,77.85C270.64,80.68 270.93,83.57 271.23,86.49C271.54,89.49 271.84,92.53 272.14,95.6C272.44,98.73 272.74,101.89 273.04,105.07C273.34,108.29 273.65,111.54 273.95,114.79C274.25,118.07 274.55,121.37 274.85,124.67C275.15,127.97 275.45,131.3 275.75,134.59C276.05,137.85 276.35,141.15 276.66,144.31C276.95,147.32 277.25,150.24 277.56,153.13C277.86,155.93 278.16,158.68 278.47,161.39C278.77,164.01 279.06,166.6 279.37,169.14C279.66,171.58 279.96,174 280.27,176.34C280.57,178.58 280.87,180.8 281.18,182.92C281.47,184.89 281.76,186.85 282.08,188.64C282.37,190.23 282.67,191.73 282.99,193.12C283.27,194.34 283.56,195.52 283.89,196.53C284.17,197.37 284.43,198.2 284.79,198.78C285.06,199.22 285.36,199.67 285.7,199.82C285.98,199.94 286.32,199.9 286.6,199.79C286.93,199.66 287.22,199.3 287.51,198.99C287.83,198.64 288.11,198.18 288.41,197.76C288.72,197.32 289.01,196.84 289.32,196.41C289.62,196 289.91,195.57 290.22,195.22C290.51,194.89 290.8,194.57 291.12,194.35C291.41,194.16 291.72,193.99 292.03,193.95C292.33,193.91 292.64,193.97 292.93,194.09C293.25,194.23 293.56,194.5 293.84,194.79C294.17,195.13 294.46,195.59 294.74,196.06C295.06,196.6 295.35,197.22 295.64,197.86C295.96,198.56 296.26,199.34 296.55,200.12C296.86,200.95 297.15,201.85 297.45,202.72C297.75,203.61 298.05,204.54 298.36,205.41C298.65,206.24 298.96,207.03 299.26,207.82C299.56,208.59 299.85,209.38 300.16,210.1C300.45,210.77 300.74,211.44 301.07,212.01C301.35,212.5 301.64,212.97 301.97,213.32C302.25,213.61 302.56,213.93 302.88,214.01C303.17,214.09 303.51,214.04 303.78,213.89C304.12,213.71 304.41,213.28 304.68,212.84C305.03,212.27 305.31,211.47 305.59,210.69C305.91,209.8 306.2,208.8 306.49,207.78C306.8,206.68 307.11,205.52 307.4,204.31C307.72,202.99 308,201.57 308.3,200.15C308.61,198.67 308.91,197.13 309.21,195.62C309.51,194.1 309.8,192.55 310.11,191.06C310.4,189.62 310.7,188.21 311.01,186.84C311.3,185.54 311.61,184.27 311.92,183.06C312.21,181.92 312.51,180.82 312.82,179.77C313.11,178.8 313.41,177.87 313.73,177C314.02,176.21 314.31,175.45 314.63,174.77C314.91,174.16 315.2,173.58 315.53,173.09C315.81,172.66 316.11,172.26 316.44,171.96C316.72,171.7 317.02,171.47 317.34,171.36C317.63,171.26 317.96,171.24 318.25,171.3C318.56,171.37 318.87,171.55 319.15,171.77C319.47,172.02 319.77,172.37 320.05,172.75C320.38,173.19 320.67,173.71 320.96,174.26C321.28,174.88 321.57,175.56 321.86,176.28C322.18,177.07 322.48,177.93 322.77,178.82C323.09,179.79 323.38,180.81 323.67,181.87C323.98,183 324.29,184.18 324.58,185.4C324.89,186.69 325.19,188.04 325.48,189.42C325.79,190.87 326.08,192.36 326.38,193.88C326.69,195.47 326.99,197.1 327.29,198.76C327.6,200.47 327.89,202.22 328.19,203.99C328.5,205.81 328.8,207.66 329.1,209.52C329.4,211.41 329.7,213.33 330,215.24C330.3,217.15 330.59,219.1 330.9,220.98C331.2,222.8 331.5,224.6 331.81,226.34C332.1,227.99 332.4,229.6 332.71,231.16C333,232.63 333.31,234.06 333.62,235.43C333.91,236.71 334.2,237.98 334.52,239.15C334.81,240.21 335.1,241.22 335.42,242.15C335.71,242.98 336.01,243.74 336.33,244.46C336.62,245.11 336.92,245.69 337.23,246.27C337.53,246.83 337.84,247.36 338.14,247.9C338.44,248.42 338.74,248.94 339.04,249.45C339.34,249.96 339.65,250.45 339.95,250.97C340.25,251.49 340.56,252.02 340.85,252.57C341.16,253.15 341.46,253.75 341.75,254.37C342.06,255.03 342.37,255.72 342.66,256.43C342.97,257.18 343.27,257.97 343.56,258.78C343.87,259.64 344.17,260.53 344.47,261.44C344.78,262.4 345.07,263.39 345.37,264.39C345.68,265.43 345.96,266.52 346.27,267.56C346.57,268.57 346.88,269.53 347.18,270.52C347.48,271.5 347.78,272.47 348.08,273.46C348.38,274.46 348.69,275.47 348.99,276.48C349.29,277.49 349.59,278.51 349.89,279.52C350.19,280.54 350.49,281.55 350.79,282.57C351.09,283.59 351.39,284.63 351.7,285.63C352,286.6 352.29,287.56 352.6,288.5C352.9,289.42 353.21,290.32 353.51,291.21C353.81,292.09 354.1,292.96 354.41,293.82C354.71,294.66 355.01,295.49 355.32,296.29C355.62,297.06 355.91,297.82 356.22,298.54C356.51,299.22 356.8,299.89 357.12,300.5C357.41,301.06 357.7,301.63 358.03,302.07C358.31,302.45 358.6,302.82 358.93,303.03C359.21,303.21 359.54,303.33 359.84,303.31C360.15,303.29 360.46,303.1 360.74,302.87C361.08,302.59 361.36,302.13 361.64,301.66C361.97,301.1 362.27,300.42 362.55,299.68C362.89,298.79 363.16,297.72 363.45,296.66C363.77,295.49 364.07,294.21 364.36,292.93C364.67,291.57 364.97,290.14 365.26,288.7C365.57,287.21 365.86,285.68 366.16,284.15C366.46,282.6 366.77,281.02 367.07,279.45C367.37,277.87 367.67,276.28 367.97,274.7C368.27,273.13 368.58,271.57 368.88,270.02C369.18,268.5 369.48,266.99 369.78,265.51C370.08,264.07 370.37,262.64 370.68,261.24C370.98,259.89 371.28,258.56 371.59,257.27C371.89,256.03 372.18,254.82 372.49,253.63C372.79,252.48 373.09,251.35 373.4,250.25C373.7,249.19 373.99,248.14 374.3,247.13C374.59,246.18 374.9,245.25 375.21,244.37C375.5,243.56 375.79,242.77 376.11,242.05C376.4,241.4 376.69,240.78 377.01,240.24C377.3,239.76 377.59,239.3 377.92,238.94C378.2,238.63 378.5,238.34 378.82,238.16C379.11,238 379.43,237.89 379.73,237.89C380.03,237.89 380.35,238 380.63,238.16C380.95,238.34 381.25,238.65 381.53,238.97C381.86,239.34 382.15,239.83 382.44,240.29C382.75,240.78 383.05,241.3 383.34,241.84C383.65,242.41 383.95,243.04 384.25,243.64C384.55,244.25 384.85,244.86 385.15,245.48C385.45,246.1 385.74,246.75 386.05,247.35C386.35,247.93 386.64,248.53 386.96,249.04C387.25,249.5 387.54,249.95 387.86,250.31C388.14,250.62 388.45,250.9 388.77,251.1C389.06,251.27 389.37,251.44 389.67,251.46C389.97,251.48 390.29,251.37 390.58,251.22C390.9,251.05 391.2,250.74 391.48,250.41C391.81,250.03 392.09,249.53 392.38,249.05C392.69,248.53 392.99,247.95 393.29,247.38C393.6,246.78 393.9,246.18 394.19,245.53C394.5,244.83 394.8,244.07 395.1,243.32C395.41,242.54 395.7,241.73 396,240.93C396.3,240.13 396.59,239.3 396.9,238.52C397.2,237.77 397.5,237.02 397.81,236.32C398.1,235.67 398.39,235.03 398.71,234.45C399,233.91 399.3,233.4 399.62,232.94C399.91,232.52 400.21,232.12 400.52,231.77C400.81,231.45 401.11,231.17 401.42,230.93C401.71,230.71 402.02,230.52 402.33,230.37C402.62,230.23 402.93,230.12 403.23,230.03C403.53,229.95 403.84,229.9 404.14,229.86C404.44,229.82 404.74,229.8 405.04,229.8C405.34,229.8 405.65,229.82 405.95,229.86C406.25,229.9 406.55,229.95 406.85,230.05C407.16,230.15 407.46,230.28 407.75,230.45C408.06,230.63 408.37,230.86 408.66,231.11C408.97,231.38 409.27,231.69 409.56,232.01C409.87,232.35 410.17,232.73 410.47,233.11C410.78,233.51 411.08,233.92 411.37,234.36C411.68,234.82 411.97,235.33 412.27,235.82C412.57,236.33 412.88,236.84 413.18,237.36C413.49,237.9 413.78,238.44 414.08,239C414.39,239.59 414.69,240.21 414.99,240.83C415.3,241.47 415.59,242.13 415.89,242.79C416.19,243.46 416.49,244.13 416.79,244.8C417.09,245.47 417.4,246.14 417.7,246.8C418,247.45 418.29,248.11 418.6,248.74C418.9,249.35 419.2,249.96 419.51,250.54C419.81,251.1 420.11,251.63 420.41,252.18C420.71,252.73 421.02,253.27 421.32,253.83C421.62,254.4 421.92,254.98 422.22,255.57C422.52,256.18 422.82,256.81 423.12,257.44C423.43,258.09 423.73,258.75 424.03,259.42C424.33,260.1 424.63,260.8 424.93,261.5C425.23,262.21 425.54,262.92 425.84,263.63C426.14,264.34 426.44,265.07 426.74,265.78C427.04,266.47 427.33,267.18 427.64,267.83C427.93,268.44 428.24,269 428.55,269.56C428.85,270.1 429.14,270.62 429.45,271.12C429.75,271.6 430.05,272.08 430.36,272.52C430.65,272.93 430.95,273.33 431.26,273.68C431.55,274 431.85,274.31 432.16,274.55C432.45,274.78 432.76,274.95 433.07,275.11C433.36,275.26 433.67,275.38 433.97,275.47C434.27,275.56 434.58,275.62 434.88,275.67C435.18,275.72 435.48,275.74 435.78,275.75C436.08,275.76 436.38,275.73 436.68,275.71C436.98,275.68 437.29,275.65 437.59,275.6C437.89,275.54 438.19,275.48 438.49,275.38C438.8,275.27 439.1,275.11 439.4,274.97C439.7,274.83 440,274.67 440.3,274.53C440.6,274.39 440.91,274.25 441.21,274.13C441.51,274.01 441.81,273.9 442.11,273.81C442.41,273.72 442.71,273.65 443.01,273.59C443.31,273.53 443.62,273.48 443.92,273.46C444.22,273.44 444.52,273.43 444.82,273.44C445.12,273.45 445.43,273.47 445.73,273.51C446.03,273.55 446.33,273.65 446.63,273.67C446.93,273.69 447.23,273.64 447.53,273.64C447.83,273.64 448.14,273.64 448.44,273.66C448.74,273.68 449.04,273.72 449.34,273.77C449.64,273.83 449.95,273.91 450.25,273.99C450.55,274.08 450.85,274.18 451.15,274.28C451.45,274.37 451.75,274.46 452.05,274.56C452.35,274.66 452.66,274.75 452.96,274.88C453.26,275.01 453.56,275.16 453.86,275.32C454.17,275.49 454.47,275.68 454.77,275.88C455.08,276.09 455.37,276.32 455.67,276.56C455.98,276.81 456.28,277.09 456.58,277.37C456.89,277.66 457.18,277.97 457.48,278.28C457.78,278.6 458.08,278.94 458.38,279.28C458.68,279.62 458.99,279.98 459.29,280.33C459.59,280.68 459.89,281.03 460.19,281.37C460.49,281.7 460.79,282.05 461.1,282.35Q461.39,282.63 462,283.12" style="vector-effect: non-scaling-stroke; fill: none; stroke: rgb(0, 100, 80); stroke-opacity: 1; stroke-width: 2px; opacity: 1;"/></g><g class="points"/><g class="text"/></g><g class="trace scatter trace10a4da" style="stroke-miterlimit: 2; opacity: 1;"><g class="fills"/><g class="errorbars"/><g class="lines"><path class="js-line" d="M0,74.83Q0.61,74.69 0.9,74.54C1.22,74.38 1.51,74.11 1.81,73.87C2.12,73.62 2.41,73.33 2.71,73.06C3.01,72.78 3.31,72.49 3.62,72.22C3.92,71.96 4.21,71.69 4.52,71.46C4.81,71.24 5.11,71.03 5.42,70.87C5.71,70.72 6.02,70.59 6.33,70.53C6.63,70.47 6.93,70.45 7.23,70.5C7.54,70.55 7.85,70.66 8.14,70.82C8.46,71 8.75,71.25 9.04,71.54C9.36,71.86 9.66,72.25 9.95,72.67C10.27,73.14 10.56,73.67 10.85,74.23C11.17,74.84 11.46,75.51 11.75,76.2C12.06,76.95 12.37,77.74 12.66,78.56C12.97,79.43 13.27,80.36 13.56,81.29C13.87,82.27 14.17,83.28 14.47,84.31C14.78,85.38 15.07,86.48 15.37,87.58C15.67,88.7 15.97,89.84 16.27,90.98C16.57,92.13 16.88,93.29 17.18,94.45C17.48,95.62 17.78,96.8 18.08,97.99C18.38,99.2 18.69,100.41 18.99,101.64C19.29,102.9 19.59,104.17 19.89,105.46C20.19,106.78 20.49,108.12 20.79,109.48C21.09,110.86 21.4,112.27 21.7,113.68C22,115.12 22.3,116.58 22.6,118.05C22.9,119.53 23.21,121.03 23.51,122.53C23.81,124.04 24.11,125.55 24.41,127.06C24.71,128.56 25.02,130.07 25.32,131.55C25.62,133.01 25.92,134.47 26.22,135.89C26.52,137.27 26.81,138.65 27.12,139.98C27.42,141.26 27.72,142.52 28.03,143.72C28.32,144.85 28.62,145.96 28.93,147C29.22,147.96 29.52,148.89 29.84,149.75C30.13,150.53 30.42,151.26 30.74,151.94C31.03,152.56 31.33,153.13 31.64,153.67C31.93,154.17 32.24,154.64 32.55,155.07C32.84,155.47 33.14,155.85 33.45,156.2C33.74,156.54 34.05,156.85 34.36,157.14C34.65,157.41 34.95,157.66 35.26,157.9C35.55,158.13 35.85,158.34 36.16,158.53C36.46,158.72 36.76,158.9 37.07,159.03C37.36,159.15 37.67,159.28 37.97,159.3C38.27,159.32 38.59,159.26 38.88,159.13C39.2,158.99 39.49,158.71 39.78,158.46C40.09,158.2 40.38,157.89 40.68,157.61C40.98,157.34 41.28,157.06 41.59,156.82C41.88,156.59 42.18,156.37 42.49,156.21C42.78,156.06 43.09,155.93 43.4,155.87C43.7,155.81 44,155.79 44.3,155.84C44.61,155.89 44.92,156.02 45.21,156.19C45.53,156.38 45.83,156.64 46.11,156.94C46.43,157.27 46.72,157.69 47.01,158.12C47.33,158.61 47.63,159.16 47.92,159.73C48.24,160.35 48.53,161.03 48.82,161.73C49.13,162.49 49.44,163.29 49.73,164.12C50.04,165.01 50.34,165.95 50.63,166.91C50.94,167.93 51.24,169.01 51.53,170.1C51.84,171.25 52.14,172.43 52.44,173.64C52.75,174.9 53.04,176.2 53.34,177.51C53.65,178.87 53.95,180.25 54.25,181.66C54.56,183.11 54.85,184.58 55.15,186.07C55.45,187.58 55.75,189.12 56.05,190.66C56.35,192.23 56.66,193.81 56.96,195.42C57.27,197.06 57.56,198.72 57.86,200.4C58.17,202.13 58.47,203.87 58.77,205.65C59.08,207.48 59.37,209.33 59.67,211.21C59.98,213.14 60.28,215.1 60.58,217.07C60.88,219.08 61.18,221.12 61.48,223.16C61.78,225.22 62.08,227.3 62.38,229.36C62.68,231.41 62.98,233.51 63.29,235.49C63.58,237.35 63.88,239.14 64.19,240.91C64.49,242.61 64.79,244.28 65.1,245.89C65.39,247.42 65.69,248.93 66,250.36C66.29,251.68 66.58,252.96 66.9,254.15C67.19,255.23 67.49,256.26 67.81,257.21C68.1,258.06 68.39,258.86 68.71,259.61C69,260.29 69.31,260.91 69.62,261.51C69.91,262.06 70.21,262.57 70.52,263.06C70.81,263.53 71.11,263.97 71.42,264.4C71.72,264.82 72.02,265.22 72.33,265.61C72.63,265.98 72.91,266.38 73.23,266.69C73.52,266.97 73.82,267.21 74.14,267.4C74.43,267.57 74.74,267.67 75.04,267.78C75.34,267.89 75.65,267.96 75.95,268.04C76.25,268.12 76.55,268.18 76.85,268.24C77.15,268.3 77.45,268.36 77.75,268.4C78.05,268.44 78.36,268.48 78.66,268.5C78.96,268.52 79.26,268.54 79.56,268.53C79.86,268.52 80.17,268.49 80.47,268.42C80.78,268.34 81.08,268.22 81.37,268.07C81.68,267.91 81.97,267.69 82.27,267.48C82.58,267.27 82.88,267.02 83.18,266.8C83.48,266.58 83.78,266.35 84.08,266.14C84.38,265.93 84.69,265.72 84.99,265.52C85.29,265.32 85.59,265.12 85.89,264.92C86.19,264.73 86.49,264.53 86.79,264.35C87.09,264.17 87.39,264 87.7,263.85C88,263.71 88.29,263.57 88.6,263.49C88.9,263.41 89.21,263.36 89.51,263.37C89.81,263.38 90.11,263.48 90.41,263.56C90.71,263.64 91.02,263.74 91.32,263.86C91.62,263.98 91.93,264.09 92.22,264.27C92.53,264.47 92.83,264.73 93.12,265.01C93.43,265.31 93.72,265.7 94.03,266.01C94.33,266.31 94.62,266.59 94.93,266.86C95.23,267.12 95.53,267.37 95.84,267.61C96.14,267.84 96.43,268.08 96.74,268.26C97.03,268.43 97.33,268.58 97.64,268.67C97.94,268.75 98.25,268.79 98.55,268.78C98.85,268.77 99.15,268.72 99.45,268.64C99.76,268.56 100.06,268.43 100.36,268.28C100.67,268.12 100.97,267.93 101.26,267.72C101.57,267.5 101.87,267.24 102.16,266.96C102.47,266.67 102.78,266.35 103.07,266.01C103.38,265.65 103.67,265.24 103.97,264.85C104.27,264.45 104.58,264.04 104.88,263.64C105.18,263.25 105.47,262.86 105.78,262.5C106.07,262.15 106.37,261.8 106.68,261.49C106.97,261.19 107.28,260.9 107.59,260.66C107.88,260.43 108.18,260.22 108.49,260.06C108.78,259.91 109.09,259.79 109.4,259.71C109.7,259.63 110,259.6 110.3,259.58C110.6,259.56 110.91,259.6 111.21,259.58C111.51,259.56 111.82,259.53 112.11,259.45C112.42,259.36 112.71,259.19 113.01,259.05C113.31,258.9 113.62,258.73 113.92,258.57C114.22,258.41 114.52,258.26 114.82,258.1C115.12,257.94 115.43,257.78 115.73,257.63C116.03,257.48 116.33,257.33 116.63,257.18C116.93,257.03 117.23,256.87 117.53,256.71C117.83,256.55 118.14,256.4 118.44,256.23C118.74,256.06 119.04,255.88 119.34,255.67C119.65,255.45 119.95,255.21 120.25,254.95C120.56,254.67 120.85,254.36 121.15,254.05C121.45,253.74 121.74,253.4 122.05,253.09C122.35,252.79 122.65,252.48 122.96,252.22C123.25,251.97 123.55,251.74 123.86,251.56C124.15,251.39 124.46,251.24 124.77,251.15C125.06,251.06 125.37,251.03 125.67,251.02C125.97,251.01 126.28,251.06 126.58,251.12C126.88,251.18 127.18,251.27 127.48,251.36C127.78,251.45 128.08,251.56 128.38,251.68C128.68,251.8 128.99,251.94 129.29,252.08C129.59,252.22 129.89,252.37 130.19,252.5C130.49,252.63 130.79,252.83 131.1,252.88C131.4,252.92 131.72,252.91 132,252.79C132.32,252.65 132.63,252.36 132.9,252C133.26,251.52 133.52,250.75 133.81,250.07C134.12,249.33 134.41,248.51 134.71,247.73C135.01,246.96 135.31,246.18 135.62,245.43C135.92,244.7 136.21,243.98 136.52,243.29C136.81,242.63 137.11,241.99 137.42,241.38C137.71,240.81 138.02,240.27 138.33,239.76C138.62,239.29 138.92,238.84 139.23,238.44C139.52,238.07 139.82,237.73 140.14,237.43C140.43,237.16 140.73,236.91 141.04,236.72C141.33,236.55 141.64,236.41 141.95,236.33C142.24,236.26 142.55,236.22 142.85,236.26C143.15,236.3 143.46,236.42 143.75,236.58C144.07,236.76 144.37,237.01 144.66,237.3C144.98,237.62 145.27,238.03 145.56,238.46C145.88,238.94 146.18,239.48 146.47,240.05C146.79,240.67 147.08,241.35 147.37,242.05C147.68,242.81 147.98,243.61 148.27,244.44C148.58,245.32 148.88,246.24 149.18,247.17C149.49,248.14 149.78,249.15 150.08,250.17C150.39,251.22 150.69,252.31 150.99,253.39C151.29,254.48 151.59,255.6 151.89,256.69C152.19,257.75 152.48,258.81 152.79,259.84C153.09,260.84 153.38,261.85 153.7,262.77C153.99,263.6 154.28,264.41 154.6,265.12C154.89,265.75 155.19,266.33 155.51,266.85C155.79,267.3 156.08,267.74 156.41,268.07C156.69,268.35 157,268.61 157.32,268.75C157.61,268.88 157.92,268.96 158.22,268.94C158.52,268.92 158.83,268.78 159.12,268.62C159.44,268.45 159.73,268.17 160.03,267.91C160.34,267.64 160.63,267.33 160.93,267.05C161.23,266.77 161.56,266.56 161.84,266.23C162.17,265.85 162.44,265.33 162.74,264.89C163.04,264.46 163.33,264.01 163.64,263.63C163.93,263.27 164.23,262.94 164.55,262.66C164.84,262.41 165.14,262.18 165.45,262.02C165.74,261.87 166.05,261.77 166.36,261.71C166.66,261.66 166.96,261.65 167.26,261.68C167.56,261.71 167.86,261.8 168.16,261.9C168.47,262 168.77,262.14 169.07,262.28C169.37,262.42 169.67,262.59 169.97,262.72C170.27,262.85 170.57,263 170.88,263.07C171.18,263.14 171.48,263.18 171.78,263.15C172.08,263.12 172.39,263.02 172.68,262.88C172.99,262.73 173.3,262.5 173.59,262.26C173.9,262 174.2,261.67 174.49,261.34C174.8,260.98 175.11,260.58 175.4,260.17C175.71,259.74 176.01,259.28 176.3,258.81C176.61,258.32 176.93,257.85 177.21,257.27C177.54,256.58 177.82,255.72 178.11,254.91C178.42,254.07 178.71,253.2 179.01,252.31C179.32,251.39 179.63,250.48 179.92,249.49C180.24,248.42 180.53,247.3 180.82,246.11C181.14,244.8 181.43,243.36 181.73,241.96C182.04,240.52 182.33,239.03 182.63,237.57C182.93,236.12 183.23,234.67 183.53,233.24C183.83,231.82 184.14,230.41 184.44,229.01C184.74,227.63 185.04,226.25 185.34,224.89C185.64,223.55 185.95,222.21 186.25,220.89C186.55,219.59 186.85,218.3 187.15,217.03C187.45,215.79 187.74,214.55 188.05,213.34C188.35,212.16 188.65,210.99 188.96,209.84C189.26,208.73 189.55,207.63 189.86,206.56C190.16,205.52 190.46,204.51 190.77,203.51C191.07,202.55 191.36,201.61 191.67,200.68C191.97,199.78 192.27,198.9 192.58,198.03C192.88,197.19 193.17,196.35 193.48,195.54C193.77,194.77 194.06,194 194.38,193.29C194.67,192.64 194.97,192.01 195.29,191.46C195.57,190.98 195.86,190.5 196.19,190.16C196.47,189.87 196.78,189.6 197.1,189.49C197.39,189.4 197.71,189.4 198,189.49C198.32,189.6 198.62,189.87 198.9,190.16C199.24,190.51 199.53,191.01 199.81,191.52C200.14,192.12 200.43,192.83 200.71,193.57C201.03,194.42 201.33,195.36 201.62,196.34C201.94,197.43 202.23,198.61 202.52,199.83C202.83,201.16 203.13,202.57 203.42,204.02C203.73,205.58 204.04,207.21 204.33,208.89C204.64,210.67 204.94,212.52 205.23,214.41C205.54,216.39 205.84,218.45 206.14,220.52C206.45,222.66 206.74,224.89 207.04,227.05C207.34,229.17 207.64,231.28 207.95,233.36C208.25,235.39 208.55,237.34 208.85,239.36C209.15,241.42 209.45,243.51 209.75,245.62C210.05,247.78 210.36,249.96 210.66,252.16C210.96,254.38 211.26,256.64 211.56,258.88C211.86,261.11 212.16,263.36 212.47,265.55C212.77,267.69 213.06,269.85 213.37,271.88C213.66,273.77 213.95,275.64 214.27,277.35C214.56,278.87 214.84,280.37 215.18,281.65C215.46,282.71 215.71,283.77 216.08,284.53C216.35,285.09 216.63,285.7 216.99,285.87C217.26,286 217.63,285.96 217.89,285.79C218.26,285.55 218.53,284.89 218.79,284.25C219.16,283.36 219.42,282.1 219.7,280.84C220.04,279.29 220.3,277.39 220.6,275.62C220.91,273.79 221.21,271.91 221.51,270.04C221.81,268.16 222.11,266.25 222.41,264.36C222.71,262.47 223.02,260.58 223.32,258.7C223.62,256.83 223.92,254.96 224.22,253.09C224.52,251.23 224.82,249.38 225.12,247.53C225.42,245.7 225.73,243.86 226.03,242.05C226.33,240.28 226.62,238.52 226.93,236.8C227.23,235.15 227.53,233.51 227.84,231.93C228.13,230.43 228.43,228.96 228.74,227.56C229.03,226.25 229.32,224.98 229.64,223.78C229.93,222.67 230.23,221.61 230.55,220.61C230.84,219.69 231.14,218.83 231.45,217.99C231.74,217.2 232.05,216.45 232.36,215.72C232.65,215.04 232.95,214.39 233.26,213.75C233.55,213.13 233.87,212.58 234.16,211.94C234.48,211.24 234.78,210.51 235.07,209.72C235.39,208.83 235.67,207.83 235.97,206.85C236.28,205.83 236.58,204.8 236.88,203.73C237.19,202.62 237.49,201.48 237.78,200.31C238.09,199.09 238.39,197.84 238.68,196.55C238.99,195.19 239.3,193.8 239.59,192.34C239.9,190.77 240.2,189.13 240.49,187.44C240.8,185.63 241.11,183.79 241.4,181.83C241.72,179.67 242,177.35 242.3,175.03C242.61,172.6 242.91,170.07 243.21,167.58C243.51,165.07 243.81,162.55 244.11,160.03C244.41,157.51 244.71,154.99 245.01,152.47C245.31,149.96 245.62,147.45 245.92,144.95C246.22,142.46 246.52,139.98 246.82,137.49C247.12,135.01 247.43,132.52 247.73,130.04C248.03,127.55 248.33,125.07 248.63,122.58C248.93,120.09 249.23,117.59 249.53,115.1C249.83,112.6 250.14,110.1 250.44,107.61C250.74,105.12 251.04,102.63 251.34,100.16C251.64,97.71 251.95,95.25 252.25,92.83C252.55,90.45 252.85,88.08 253.15,85.75C253.45,83.48 253.74,81.22 254.05,79.02C254.35,76.89 254.65,74.8 254.96,72.76C255.26,70.8 255.55,68.88 255.86,67.01C256.15,65.23 256.46,63.5 256.77,61.81C257.06,60.21 257.36,58.65 257.67,57.13C257.96,55.69 258.27,54.29 258.58,52.94C258.87,51.66 259.17,50.41 259.48,49.22C259.77,48.11 260.06,47.01 260.38,46C260.67,45.08 260.97,44.18 261.29,43.38C261.58,42.67 261.86,41.97 262.19,41.41C262.47,40.94 262.76,40.47 263.1,40.19C263.38,39.96 263.7,39.76 264,39.76C264.3,39.76 264.63,39.94 264.9,40.16C265.25,40.44 265.53,40.94 265.81,41.44C266.15,42.05 266.43,42.81 266.71,43.61C267.04,44.54 267.33,45.6 267.62,46.7C267.94,47.94 268.23,49.29 268.52,50.7C268.84,52.26 269.13,53.93 269.42,55.65C269.74,57.53 270.04,59.5 270.33,61.54C270.64,63.74 270.94,66.03 271.23,68.39C271.54,70.89 271.85,73.49 272.14,76.15C272.45,78.95 272.74,81.84 273.04,84.79C273.35,87.87 273.65,91.03 273.95,94.24C274.26,97.56 274.55,100.97 274.85,104.4C275.15,107.93 275.45,111.53 275.75,115.14C276.05,118.82 276.36,122.56 276.66,126.3C276.96,130.07 277.26,133.89 277.56,137.68C277.86,141.47 278.17,145.29 278.47,149.06C278.77,152.78 279.07,156.51 279.37,160.15C279.67,163.69 279.96,167.23 280.27,170.63C280.56,173.87 280.86,177.09 281.18,180.1C281.47,182.86 281.76,185.56 282.08,188.02C282.36,190.19 282.63,192.39 282.99,194.11C283.26,195.39 283.41,197.18 283.89,197.43C284.14,197.56 284.53,197.33 284.79,197.1C285.17,196.76 285.43,195.98 285.7,195.28C286.05,194.4 286.31,193.3 286.6,192.2C286.92,190.96 287.22,189.59 287.51,188.22C287.82,186.77 288.11,185.24 288.41,183.74C288.71,182.22 289.02,180.67 289.32,179.16C289.62,177.68 289.91,176.2 290.22,174.78C290.51,173.44 290.81,172.11 291.12,170.86C291.41,169.71 291.71,168.58 292.03,167.56C292.32,166.66 292.6,165.78 292.93,165.04C293.21,164.41 293.49,163.79 293.84,163.37C294.11,163.04 294.42,162.7 294.74,162.62C295.02,162.55 295.37,162.65 295.64,162.82C295.99,163.04 296.27,163.51 296.55,163.97C296.89,164.54 297.17,165.29 297.45,166.05C297.78,166.94 298.07,167.96 298.36,169.01C298.68,170.19 298.97,171.48 299.26,172.8C299.57,174.23 299.87,175.75 300.16,177.29C300.47,178.92 300.77,180.62 301.07,182.32C301.38,184.05 301.66,185.87 301.97,187.58C302.26,189.21 302.55,190.89 302.88,192.35C303.16,193.6 303.43,194.81 303.78,195.79C304.05,196.55 304.32,197.27 304.68,197.76C304.95,198.13 305.26,198.45 305.59,198.6C305.87,198.73 306.2,198.77 306.49,198.71C306.8,198.65 307.11,198.42 307.4,198.2C307.72,197.95 308.03,197.65 308.3,197.26C308.64,196.77 308.93,196.13 309.21,195.44C309.55,194.58 309.81,193.46 310.11,192.47C310.41,191.48 310.71,190.47 311.01,189.48C311.31,188.51 311.61,187.53 311.92,186.58C312.22,185.66 312.51,184.74 312.82,183.86C313.12,183.02 313.42,182.19 313.73,181.41C314.02,180.68 314.31,179.98 314.63,179.33C314.92,178.74 315.21,178.17 315.53,177.68C315.82,177.25 316.11,176.84 316.44,176.53C316.72,176.26 317.02,176.02 317.34,175.9C317.63,175.79 317.96,175.76 318.25,175.82C318.56,175.88 318.87,176.08 319.15,176.3C319.48,176.56 319.77,176.94 320.05,177.34C320.38,177.8 320.67,178.36 320.96,178.94C321.28,179.59 321.57,180.32 321.86,181.07C322.18,181.9 322.48,182.8 322.77,183.73C323.08,184.73 323.38,185.79 323.67,186.88C323.98,188.04 324.29,189.25 324.58,190.49C324.89,191.79 325.19,193.15 325.48,194.52C325.79,195.95 326.08,197.42 326.38,198.91C326.69,200.45 326.99,202.03 327.29,203.62C327.6,205.26 327.89,206.92 328.19,208.6C328.49,210.31 328.8,212.05 329.1,213.79C329.4,215.56 329.7,217.34 330,219.13C330.3,220.93 330.6,222.75 330.9,224.55C331.2,226.35 331.51,228.16 331.81,229.94C332.11,231.69 332.4,233.45 332.71,235.15C333.01,236.79 333.31,238.43 333.62,239.97C333.91,241.39 334.21,242.75 334.52,244.04C334.81,245.22 335.1,246.35 335.42,247.4C335.71,248.35 336.01,249.25 336.33,250.07C336.61,250.79 336.91,251.46 337.23,252.05C337.51,252.57 337.82,253.04 338.14,253.45C338.43,253.82 338.73,254.13 339.04,254.42C339.33,254.69 339.64,254.91 339.95,255.13C340.25,255.34 340.55,255.54 340.85,255.72C341.15,255.9 341.45,256.05 341.75,256.2C342.05,256.34 342.36,256.44 342.66,256.59C342.97,256.74 343.27,256.91 343.56,257.11C343.87,257.32 344.18,257.56 344.47,257.82C344.78,258.1 345.08,258.41 345.37,258.75C345.68,259.11 345.98,259.5 346.27,259.91C346.58,260.34 346.89,260.81 347.18,261.29C347.49,261.8 347.78,262.33 348.08,262.88C348.39,263.45 348.69,264.05 348.99,264.66C349.3,265.28 349.59,265.93 349.89,266.57C350.19,267.22 350.49,267.88 350.79,268.55C351.09,269.23 351.4,269.92 351.7,270.6C352,271.28 352.3,271.97 352.6,272.65C352.9,273.32 353.21,274 353.51,274.66C353.81,275.31 354.1,275.95 354.41,276.58C354.71,277.19 355.01,277.8 355.32,278.39C355.62,278.96 355.92,279.52 356.22,280.07C356.52,280.61 356.81,281.14 357.12,281.65C357.42,282.15 357.72,282.65 358.03,283.12C358.32,283.57 358.62,284.02 358.93,284.41C359.22,284.77 359.52,285.13 359.84,285.41C360.13,285.66 360.43,285.9 360.74,286.02C361.03,286.13 361.35,286.19 361.64,286.14C361.95,286.08 362.27,285.89 362.55,285.66C362.88,285.38 363.17,284.96 363.45,284.51C363.79,283.97 364.08,283.31 364.36,282.58C364.7,281.7 364.97,280.62 365.26,279.57C365.57,278.44 365.86,277.23 366.16,276.02C366.47,274.77 366.77,273.48 367.07,272.19C367.37,270.88 367.67,269.55 367.97,268.23C368.27,266.91 368.58,265.59 368.88,264.28C369.18,262.99 369.48,261.7 369.78,260.44C370.08,259.21 370.37,258 370.68,256.82C370.98,255.69 371.28,254.57 371.59,253.49C371.88,252.47 372.18,251.46 372.49,250.51C372.78,249.62 373.08,248.76 373.4,247.95C373.69,247.21 373.98,246.5 374.3,245.85C374.59,245.27 374.89,244.71 375.21,244.23C375.49,243.81 375.79,243.42 376.11,243.13C376.39,242.88 376.7,242.66 377.01,242.56C377.3,242.47 377.63,242.46 377.92,242.53C378.23,242.61 378.54,242.81 378.82,243.04C379.15,243.3 379.44,243.67 379.73,244.06C380.05,244.5 380.34,245.02 380.63,245.55C380.95,246.14 381.24,246.78 381.53,247.44C381.84,248.15 382.15,248.91 382.44,249.69C382.75,250.51 383.04,251.36 383.34,252.22C383.65,253.11 383.95,254.04 384.25,254.94C384.55,255.83 384.84,256.73 385.15,257.59C385.44,258.41 385.74,259.22 386.05,259.99C386.35,260.73 386.65,261.46 386.96,262.14C387.25,262.78 387.54,263.43 387.86,263.98C388.15,264.47 388.41,265.08 388.77,265.3C389.04,265.46 389.38,265.47 389.67,265.41C389.98,265.35 390.29,265.12 390.58,264.92C390.89,264.71 391.18,264.45 391.48,264.19C391.78,263.93 392.08,263.65 392.38,263.36C392.69,263.06 392.99,262.74 393.29,262.41C393.6,262.06 393.89,261.69 394.19,261.32C394.49,260.94 394.8,260.55 395.1,260.17C395.4,259.79 395.7,259.41 396,259.05C396.3,258.7 396.59,258.34 396.9,258.02C397.19,257.72 397.5,257.43 397.81,257.2C398.1,256.99 398.4,256.8 398.71,256.68C399,256.57 399.32,256.5 399.62,256.5C399.92,256.5 400.23,256.56 400.52,256.65C400.83,256.74 401.12,256.9 401.42,257.06C401.73,257.22 402.03,257.41 402.33,257.61C402.64,257.81 402.93,258.04 403.23,258.27C403.53,258.5 403.84,258.75 404.14,258.98C404.44,259.21 404.74,259.43 405.04,259.64C405.34,259.84 405.64,260.06 405.95,260.21C406.24,260.35 406.55,260.49 406.85,260.5C407.15,260.51 407.45,260.37 407.75,260.29C408.05,260.21 408.35,260.08 408.66,260.02C408.96,259.96 409.26,259.91 409.56,259.91C409.86,259.91 410.17,259.97 410.47,260.04C410.77,260.11 411.08,260.19 411.37,260.35C411.68,260.52 411.98,260.77 412.27,261.05C412.59,261.36 412.89,261.75 413.18,262.16C413.5,262.61 413.79,263.12 414.08,263.64C414.39,264.19 414.69,264.78 414.99,265.36C415.29,265.94 415.59,266.53 415.89,267.11C416.19,267.68 416.49,268.23 416.79,268.8C417.09,269.38 417.39,269.99 417.7,270.56C418,271.11 418.29,271.66 418.6,272.16C418.89,272.62 419.21,273 419.51,273.44C419.82,273.89 420.11,274.36 420.41,274.82C420.71,275.29 421.02,275.77 421.32,276.23C421.62,276.69 421.91,277.16 422.22,277.59C422.51,278 422.8,278.43 423.12,278.74C423.4,279.01 423.71,279.3 424.03,279.39C424.32,279.47 424.64,279.41 424.93,279.32C425.24,279.23 425.54,279 425.84,278.81C426.15,278.61 426.44,278.38 426.74,278.16C427.04,277.94 427.34,277.71 427.64,277.49C427.94,277.26 428.25,277.04 428.55,276.81C428.85,276.59 429.15,276.36 429.45,276.14C429.75,275.93 430.05,275.71 430.36,275.52C430.66,275.33 430.96,275.15 431.26,274.99C431.56,274.84 431.85,274.69 432.16,274.58C432.46,274.47 432.77,274.4 433.07,274.32C433.37,274.24 433.67,274.21 433.97,274.11C434.28,274 434.58,273.81 434.88,273.68C435.18,273.55 435.48,273.42 435.78,273.32C436.08,273.22 436.38,273.14 436.68,273.06C436.98,272.98 437.29,272.93 437.59,272.86C437.89,272.79 438.19,272.75 438.49,272.66C438.8,272.57 439.1,272.43 439.4,272.32C439.7,272.21 440,272.07 440.3,272C440.6,271.93 440.91,271.89 441.21,271.9C441.51,271.91 441.81,271.95 442.11,272.03C442.41,272.11 442.71,272.34 443.01,272.37C443.31,272.39 443.63,272.32 443.92,272.19C444.24,272.04 444.51,271.68 444.82,271.46C445.12,271.25 445.42,271.06 445.73,270.91C446.02,270.77 446.33,270.65 446.63,270.58C446.93,270.51 447.23,270.47 447.53,270.47C447.83,270.47 448.14,270.51 448.44,270.57C448.74,270.63 449.04,270.73 449.34,270.82C449.64,270.91 449.95,271.01 450.25,271.11C450.55,271.21 450.85,271.29 451.15,271.4C451.45,271.51 451.75,271.62 452.05,271.77C452.36,271.92 452.67,272.09 452.96,272.3C453.27,272.52 453.57,272.78 453.86,273.06C454.17,273.37 454.48,273.71 454.77,274.08C455.08,274.48 455.38,274.92 455.67,275.38C455.98,275.87 456.29,276.39 456.58,276.93C456.89,277.5 457.19,278.09 457.48,278.7C457.79,279.33 458.08,279.98 458.38,280.63C458.68,281.29 458.99,281.98 459.29,282.65C459.59,283.32 459.88,284 460.19,284.66C460.49,285.3 460.79,285.95 461.1,286.54Q461.39,287.09 462,288.12" style="vector-effect: non-scaling-stroke; fill: none; stroke: rgb(0, 176, 246); stroke-opacity: 1; stroke-width: 2px; opacity: 1;"/></g><g class="points"/><g class="text"/></g><g class="trace scatter trace1d55d6" style="stroke-miterlimit: 2; opacity: 1;"><g class="fills"/><g class="errorbars"/><g class="lines"><path class="js-line" d="M0,164.12Q0.64,162.28 0.9,161.06C1.28,159.32 1.52,156.91 1.81,154.64C2.13,152.09 2.42,149.3 2.71,146.5C3.02,143.51 3.32,140.38 3.62,137.23C3.93,133.96 4.22,130.6 4.52,127.24C4.82,123.81 5.12,120.32 5.42,116.83C5.72,113.31 6.03,109.76 6.33,106.23C6.63,102.7 6.93,99.17 7.23,95.66C7.53,92.19 7.84,88.72 8.14,85.29C8.44,81.92 8.73,78.57 9.04,75.27C9.34,72.05 9.64,68.86 9.95,65.73C10.25,62.7 10.54,59.71 10.85,56.79C11.14,53.99 11.44,51.23 11.75,48.56C12.04,46.01 12.35,43.52 12.66,41.11C12.95,38.85 13.25,36.64 13.56,34.53C13.85,32.57 14.15,30.66 14.47,28.87C14.76,27.24 15.05,25.66 15.37,24.2C15.65,22.9 15.94,21.66 16.27,20.55C16.55,19.61 16.84,18.7 17.18,17.96C17.46,17.37 17.72,16.76 18.08,16.43C18.35,16.18 18.7,15.97 18.99,16C19.3,16.03 19.62,16.34 19.89,16.65C20.25,17.06 20.51,17.73 20.79,18.39C21.13,19.2 21.42,20.17 21.7,21.18C22.03,22.35 22.31,23.66 22.6,25.01C22.92,26.52 23.22,28.14 23.51,29.82C23.83,31.65 24.12,33.59 24.41,35.58C24.72,37.71 25.03,39.94 25.32,42.21C25.63,44.61 25.93,47.1 26.22,49.63C26.53,52.27 26.82,55 27.12,57.75C27.43,60.6 27.73,63.52 28.03,66.46C28.34,69.48 28.63,72.55 28.93,75.64C29.23,78.78 29.54,81.97 29.84,85.16C30.14,88.38 30.44,91.64 30.74,94.88C31.04,98.13 31.34,101.4 31.64,104.64C31.94,107.86 32.24,111.08 32.55,114.25C32.85,117.35 33.14,120.44 33.45,123.44C33.75,126.33 34.05,129.2 34.36,131.96C34.65,134.58 34.95,137.14 35.26,139.6C35.55,141.91 35.85,144.16 36.16,146.32C36.45,148.33 36.76,150.27 37.07,152.13C37.36,153.85 37.66,155.51 37.97,157.1C38.26,158.57 38.56,159.98 38.88,161.32C39.17,162.54 39.46,163.72 39.78,164.81C40.07,165.8 40.36,166.73 40.68,167.61C40.97,168.41 41.28,169.15 41.59,169.88C41.88,170.58 42.19,171.24 42.49,171.91C42.79,172.57 43.1,173.21 43.4,173.87C43.7,174.53 44,175.2 44.3,175.88C44.6,176.57 44.91,177.28 45.21,177.99C45.51,178.72 45.81,179.45 46.11,180.2C46.41,180.96 46.71,181.73 47.01,182.5C47.31,183.28 47.62,184.07 47.92,184.86C48.22,185.66 48.52,186.47 48.82,187.28C49.12,188.09 49.43,188.91 49.73,189.72C50.03,190.53 50.33,191.34 50.63,192.16C50.93,192.98 51.23,193.8 51.53,194.62C51.83,195.45 52.14,196.27 52.44,197.11C52.74,197.95 53.04,198.8 53.34,199.66C53.64,200.54 53.95,201.42 54.25,202.33C54.56,203.26 54.86,204.2 55.15,205.17C55.46,206.17 55.75,207.19 56.05,208.24C56.36,209.33 56.66,210.45 56.96,211.59C57.27,212.78 57.56,214 57.86,215.25C58.17,216.55 58.47,217.88 58.77,219.24C59.08,220.65 59.37,222.1 59.67,223.56C59.98,225.07 60.28,226.61 60.58,228.17C60.89,229.77 61.18,231.41 61.48,233.05C61.78,234.72 62.08,236.42 62.38,238.11C62.68,239.82 62.99,241.55 63.29,243.26C63.59,244.96 63.89,246.68 64.19,248.36C64.49,250.01 64.79,251.66 65.1,253.26C65.4,254.81 65.69,256.35 66,257.84C66.29,259.25 66.59,260.64 66.9,261.97C67.19,263.22 67.49,264.45 67.81,265.6C68.1,266.64 68.38,267.68 68.71,268.57C68.99,269.34 69.3,270.02 69.62,270.66C69.91,271.23 70.21,271.72 70.52,272.22C70.81,272.7 71.12,273.15 71.42,273.61C71.72,274.07 72.03,274.52 72.33,274.97C72.63,275.41 72.93,275.85 73.23,276.28C73.53,276.7 73.83,277.11 74.14,277.51C74.44,277.89 74.73,278.28 75.04,278.62C75.33,278.94 75.63,279.26 75.95,279.5C76.24,279.72 76.54,279.94 76.85,280.03C77.14,280.11 77.46,280.14 77.75,280.06C78.07,279.98 78.38,279.75 78.66,279.51C78.99,279.23 79.27,278.84 79.56,278.44C79.88,277.99 80.18,277.48 80.47,276.94C80.79,276.36 81.08,275.72 81.37,275.07C81.68,274.37 81.98,273.62 82.27,272.86C82.58,272.05 82.88,271.2 83.18,270.34C83.49,269.46 83.78,268.54 84.08,267.63C84.38,266.71 84.69,265.77 84.99,264.84C85.29,263.9 85.59,262.95 85.89,262.01C86.19,261.07 86.49,260.12 86.79,259.18C87.09,258.25 87.4,257.33 87.7,256.4C88,255.48 88.31,254.59 88.6,253.63C88.91,252.61 89.21,251.52 89.51,250.47C89.81,249.43 90.1,248.37 90.41,247.35C90.71,246.37 91.01,245.4 91.32,244.46C91.62,243.56 91.91,242.68 92.22,241.84C92.51,241.04 92.81,240.26 93.12,239.52C93.41,238.83 93.72,238.16 94.03,237.53C94.32,236.95 94.61,236.38 94.93,235.87C95.22,235.41 95.52,234.97 95.84,234.59C96.13,234.25 96.42,233.92 96.74,233.68C97.03,233.46 97.33,233.27 97.64,233.16C97.93,233.06 98.25,233.02 98.55,233.04C98.85,233.06 99.16,233.17 99.45,233.31C99.77,233.47 100.07,233.71 100.36,233.97C100.68,234.26 100.97,234.62 101.26,234.99C101.57,235.4 101.87,235.86 102.16,236.34C102.47,236.85 102.77,237.39 103.07,237.95C103.38,238.53 103.67,239.14 103.97,239.75C104.28,240.38 104.58,241.02 104.88,241.67C105.19,242.34 105.48,243.01 105.78,243.7C106.08,244.41 106.38,245.14 106.68,245.88C106.99,246.64 107.29,247.42 107.59,248.22C107.9,249.04 108.19,249.88 108.49,250.73C108.8,251.61 109.1,252.5 109.4,253.4C109.7,254.32 110,255.26 110.3,256.2C110.6,257.15 110.91,258.11 111.21,259.08C111.51,260.05 111.81,261.04 112.11,262.02C112.41,263 112.71,263.98 113.01,264.96C113.31,265.93 113.62,266.9 113.92,267.86C114.22,268.8 114.51,269.74 114.82,270.64C115.12,271.51 115.41,272.38 115.73,273.18C116.02,273.92 116.31,274.64 116.63,275.27C116.91,275.83 117.21,276.34 117.53,276.81C117.82,277.23 118.13,277.61 118.44,277.97C118.73,278.3 119.01,278.77 119.34,278.88C119.62,278.97 119.97,278.88 120.25,278.73C120.58,278.56 120.86,278.15 121.15,277.81C121.46,277.45 121.77,277.07 122.05,276.61C122.38,276.08 122.67,275.43 122.96,274.8C123.27,274.13 123.56,273.41 123.86,272.71C124.16,272.02 124.47,271.32 124.77,270.63C125.07,269.95 125.37,269.29 125.67,268.61C125.98,267.91 126.29,267.24 126.58,266.48C126.9,265.64 127.18,264.69 127.48,263.8C127.78,262.91 128.08,262.01 128.38,261.13C128.68,260.26 128.98,259.4 129.29,258.56C129.59,257.74 129.88,256.93 130.19,256.14C130.49,255.38 130.79,254.63 131.1,253.92C131.39,253.24 131.69,252.59 132,251.96C132.29,251.36 132.59,250.79 132.9,250.23C133.2,249.68 133.51,249.17 133.81,248.62C134.12,248.05 134.41,247.44 134.71,246.85C135.01,246.27 135.31,245.66 135.62,245.11C135.91,244.6 136.2,244.1 136.52,243.66C136.81,243.26 137.1,242.89 137.42,242.59C137.71,242.33 138.01,242.09 138.33,241.94C138.62,241.8 138.93,241.71 139.23,241.7C139.53,241.69 139.85,241.75 140.14,241.85C140.45,241.96 140.75,242.15 141.04,242.36C141.36,242.59 141.66,242.87 141.95,243.18C142.26,243.51 142.56,243.88 142.85,244.28C143.16,244.71 143.46,245.18 143.75,245.68C144.06,246.22 144.37,246.8 144.66,247.41C144.97,248.06 145.27,248.76 145.56,249.48C145.87,250.25 146.18,251.07 146.47,251.91C146.78,252.8 147.08,253.72 147.37,254.67C147.68,255.66 147.97,256.69 148.27,257.73C148.58,258.8 148.88,259.89 149.18,260.98C149.48,262.07 149.78,263.16 150.08,264.26C150.38,265.37 150.69,266.48 150.99,267.6C151.29,268.73 151.59,269.87 151.89,271.02C152.19,272.17 152.49,273.34 152.79,274.5C153.09,275.66 153.4,276.83 153.7,277.99C154,279.13 154.29,280.3 154.6,281.39C154.89,282.41 155.12,283.63 155.51,284.33C155.77,284.79 156.08,285.25 156.41,285.34C156.69,285.42 157.03,285.21 157.32,285.06C157.63,284.9 157.93,284.65 158.22,284.4C158.53,284.14 158.82,283.82 159.12,283.51C159.43,283.19 159.73,282.83 160.03,282.5C160.33,282.17 160.62,281.83 160.93,281.51C161.23,281.2 161.53,280.9 161.84,280.62C162.14,280.34 162.44,280.08 162.74,279.83C163.04,279.58 163.34,279.35 163.64,279.11C163.94,278.87 164.25,278.64 164.55,278.38C164.86,278.11 165.16,277.84 165.45,277.53C165.76,277.2 166.07,276.84 166.36,276.45C166.67,276.04 166.97,275.6 167.26,275.14C167.57,274.66 167.86,274.15 168.16,273.64C168.47,273.12 168.77,272.59 169.07,272.05C169.37,271.51 169.67,270.96 169.97,270.41C170.27,269.86 170.57,269.3 170.88,268.77C171.18,268.25 171.47,267.73 171.78,267.25C172.07,266.79 172.37,266.35 172.68,265.95C172.97,265.57 173.28,265.21 173.59,264.89C173.88,264.59 174.18,264.31 174.49,264.06C174.78,263.83 175.09,263.62 175.4,263.44C175.7,263.26 176,263.11 176.3,262.98C176.6,262.85 176.91,262.74 177.21,262.64C177.51,262.54 177.81,262.45 178.11,262.37C178.41,262.29 178.71,262.22 179.01,262.15C179.31,262.08 179.64,262.08 179.92,261.93C180.25,261.75 180.55,261.44 180.82,261.07C181.17,260.59 181.44,259.85 181.73,259.21C182.04,258.53 182.34,257.84 182.63,257.11C182.94,256.34 183.24,255.54 183.53,254.72C183.84,253.85 184.14,252.95 184.44,252.03C184.75,251.08 185.04,250.09 185.34,249.1C185.65,248.08 185.95,247.03 186.25,245.98C186.55,244.9 186.85,243.81 187.15,242.71C187.45,241.6 187.75,240.48 188.05,239.35C188.35,238.22 188.66,237.07 188.96,235.93C189.26,234.8 189.56,233.66 189.86,232.54C190.16,231.43 190.47,230.31 190.77,229.22C191.07,228.15 191.36,227.08 191.67,226.04C191.97,225.03 192.27,224.04 192.58,223.08C192.88,222.16 193.17,221.25 193.48,220.39C193.77,219.58 194.07,218.78 194.38,218.04C194.67,217.35 194.97,216.68 195.29,216.07C195.58,215.52 195.87,215 196.19,214.55C196.48,214.15 196.77,213.77 197.1,213.5C197.38,213.27 197.69,213.06 198,212.98C198.29,212.91 198.61,212.92 198.9,213.01C199.22,213.11 199.53,213.35 199.81,213.61C200.14,213.92 200.43,214.35 200.71,214.8C201.04,215.32 201.33,215.94 201.62,216.58C201.94,217.31 202.23,218.11 202.52,218.95C202.84,219.87 203.13,220.87 203.42,221.89C203.73,223 204.04,224.17 204.33,225.37C204.64,226.66 204.94,228 205.23,229.38C205.54,230.83 205.85,232.33 206.14,233.87C206.45,235.49 206.74,237.15 207.04,238.85C207.35,240.62 207.65,242.44 207.95,244.29C208.26,246.21 208.55,248.17 208.85,250.15C209.15,252.19 209.45,254.27 209.75,256.36C210.05,258.49 210.36,260.68 210.66,262.83C210.96,264.97 211.24,267.2 211.56,269.24C211.85,271.1 212.16,272.84 212.47,274.58C212.76,276.23 213.07,277.82 213.37,279.42C213.67,281.01 213.96,282.6 214.27,284.15C214.57,285.65 214.87,287.13 215.18,288.58C215.48,289.97 215.77,291.36 216.08,292.67C216.37,293.9 216.66,295.16 216.99,296.24C217.27,297.17 217.5,298.2 217.89,298.79C218.15,299.18 218.51,299.65 218.79,299.61C219.12,299.57 219.44,298.8 219.7,298.2C220.08,297.33 220.33,296.07 220.6,294.76C220.95,293.05 221.23,290.94 221.51,288.78C221.84,286.23 222.11,283.23 222.41,280.41C222.72,277.52 223.02,274.56 223.32,271.63C223.62,268.69 223.92,265.72 224.22,262.78C224.52,259.87 224.82,256.96 225.12,254.1C225.42,251.29 225.72,248.5 226.03,245.76C226.33,243.09 226.62,240.45 226.93,237.87C227.23,235.38 227.53,232.94 227.84,230.55C228.14,228.26 228.43,226.02 228.74,223.84C229.03,221.78 229.33,219.76 229.64,217.81C229.93,215.97 230.24,214.18 230.55,212.47C230.84,210.87 231.14,209.32 231.45,207.84C231.74,206.47 232.04,205.15 232.36,203.9C232.65,202.76 232.94,201.67 233.26,200.65C233.55,199.72 233.84,198.83 234.16,198.02C234.45,197.29 234.75,196.61 235.07,195.99C235.36,195.44 235.65,194.92 235.97,194.48C236.26,194.09 236.55,193.72 236.88,193.46C237.16,193.23 237.47,193.03 237.78,192.95C238.07,192.87 238.39,192.87 238.68,192.94C238.99,193.02 239.31,193.22 239.59,193.45C239.92,193.71 240.21,194.09 240.49,194.48C240.81,194.92 241.11,195.45 241.4,196C241.72,196.6 242.01,197.27 242.3,197.96C242.61,198.7 242.91,199.49 243.21,200.29C243.52,201.13 243.81,202.02 244.11,202.88C244.41,203.74 244.67,204.72 245.01,205.46C245.29,206.06 245.59,206.57 245.92,207.01C246.2,207.39 246.5,207.71 246.82,207.99C247.11,208.25 247.41,208.54 247.73,208.64C248.02,208.73 248.35,208.75 248.63,208.63C248.96,208.49 249.26,208.12 249.53,207.75C249.88,207.27 250.16,206.61 250.44,205.93C250.78,205.11 251.06,204.13 251.34,203.13C251.66,201.99 251.96,200.72 252.25,199.43C252.57,198.03 252.86,196.53 253.15,195.03C253.46,193.45 253.75,191.82 254.05,190.18C254.36,188.51 254.66,186.79 254.96,185.1C255.26,183.4 255.56,181.7 255.86,180.01C256.16,178.35 256.46,176.68 256.77,175.05C257.07,173.45 257.36,171.87 257.67,170.32C257.97,168.82 258.27,167.33 258.58,165.88C258.88,164.48 259.17,163.11 259.48,161.77C259.77,160.48 260.07,159.21 260.38,157.97C260.68,156.78 260.98,155.61 261.29,154.48C261.58,153.4 261.88,152.34 262.19,151.33C262.48,150.37 262.79,149.44 263.1,148.56C263.39,147.75 263.68,146.96 264,146.24C264.29,145.59 264.58,144.96 264.9,144.42C265.18,143.94 265.48,143.49 265.81,143.14C266.09,142.84 266.39,142.55 266.71,142.39C267,142.24 267.32,142.15 267.62,142.16C267.92,142.17 268.24,142.28 268.52,142.44C268.84,142.62 269.14,142.92 269.42,143.25C269.75,143.63 270.05,144.11 270.33,144.62C270.65,145.2 270.94,145.87 271.23,146.57C271.55,147.36 271.85,148.22 272.14,149.12C272.46,150.11 272.75,151.17 273.04,152.27C273.35,153.45 273.66,154.7 273.95,155.98C274.26,157.34 274.56,158.77 274.85,160.22C275.16,161.74 275.45,163.31 275.75,164.9C276.06,166.55 276.36,168.23 276.66,169.93C276.96,171.66 277.26,173.43 277.56,175.18C277.86,176.94 278.17,178.73 278.47,180.48C278.77,182.21 279.06,183.95 279.37,185.63C279.66,187.24 279.94,188.92 280.27,190.36C280.55,191.58 280.71,193.15 281.18,193.73C281.43,194.04 281.8,194.26 282.08,194.19C282.42,194.11 282.73,193.49 282.99,192.95C283.37,192.18 283.61,191.01 283.89,189.86C284.23,188.46 284.5,186.8 284.79,185.12C285.11,183.23 285.41,181.17 285.7,179.09C286.01,176.86 286.3,174.52 286.6,172.16C286.91,169.71 287.21,167.19 287.51,164.67C287.81,162.11 288.11,159.51 288.41,156.92C288.71,154.32 289.02,151.7 289.32,149.11C289.62,146.54 289.92,143.97 290.22,141.44C290.52,138.95 290.81,136.47 291.12,134.03C291.42,131.65 291.72,129.29 292.03,126.98C292.33,124.74 292.62,122.52 292.93,120.36C293.23,118.28 293.53,116.24 293.84,114.25C294.13,112.35 294.43,110.49 294.74,108.69C295.03,106.99 295.33,105.32 295.64,103.72C295.93,102.22 296.24,100.76 296.55,99.37C296.84,98.08 297.13,96.84 297.45,95.67C297.74,94.6 298.04,93.57 298.36,92.61C298.65,91.75 298.94,90.93 299.26,90.19C299.54,89.54 299.84,88.93 300.16,88.39C300.45,87.91 300.75,87.49 301.07,87.11C301.36,86.77 301.65,86.46 301.97,86.21C302.26,85.98 302.57,85.79 302.88,85.65C303.17,85.52 303.48,85.46 303.78,85.39C304.08,85.32 304.38,85.26 304.68,85.24C304.98,85.22 305.3,85.2 305.59,85.28C305.9,85.36 306.21,85.53 306.49,85.74C306.82,85.99 307.12,86.34 307.4,86.72C307.73,87.15 308.01,87.68 308.3,88.22C308.62,88.83 308.92,89.5 309.21,90.2C309.53,90.96 309.82,91.78 310.11,92.61C310.42,93.5 310.71,94.43 311.01,95.37C311.32,96.35 311.62,97.37 311.92,98.39C312.23,99.43 312.52,100.5 312.82,101.56C313.12,102.64 313.43,103.73 313.73,104.81C314.03,105.89 314.33,106.97 314.63,108.05C314.93,109.12 315.23,110.19 315.53,111.25C315.83,112.31 316.14,113.36 316.44,114.41C316.74,115.46 317.04,116.5 317.34,117.55C317.64,118.59 317.95,119.63 318.25,120.68C318.55,121.73 318.85,122.78 319.15,123.83C319.45,124.89 319.75,125.95 320.05,127.02C320.35,128.1 320.66,129.18 320.96,130.28C321.26,131.39 321.56,132.51 321.86,133.64C322.16,134.79 322.47,135.96 322.77,137.14C323.08,138.35 323.37,139.57 323.67,140.82C323.98,142.1 324.28,143.41 324.58,144.73C324.89,146.09 325.18,147.48 325.48,148.89C325.78,150.34 326.08,151.82 326.38,153.33C326.69,154.89 326.99,156.47 327.29,158.08C327.6,159.74 327.89,161.43 328.19,163.14C328.5,164.9 328.8,166.69 329.1,168.5C329.41,170.36 329.7,172.24 330,174.15C330.3,176.1 330.6,178.07 330.9,180.06C331.2,182.08 331.51,184.12 331.81,186.16C332.11,188.22 332.41,190.29 332.71,192.35C333.01,194.4 333.32,196.44 333.62,198.47C333.92,200.48 334.22,202.46 334.52,204.46C334.82,206.46 335.12,208.45 335.42,210.46C335.72,212.49 336.03,214.53 336.33,216.58C336.63,218.66 336.93,220.75 337.23,222.85C337.53,224.97 337.84,227.12 338.14,229.26C338.44,231.42 338.74,233.6 339.04,235.76C339.34,237.91 339.65,240.07 339.95,242.21C340.25,244.34 340.55,246.48 340.85,248.6C341.15,250.72 341.45,252.83 341.75,254.93C342.05,257.01 342.35,259.09 342.66,261.13C342.96,263.13 343.25,265.12 343.56,267.06C343.86,268.93 344.16,270.78 344.47,272.57C344.76,274.28 345.06,275.95 345.37,277.57C345.66,279.11 345.96,280.62 346.27,282.08C346.56,283.46 346.87,284.81 347.18,286.11C347.47,287.33 347.76,288.54 348.08,289.66C348.37,290.68 348.67,291.66 348.99,292.55C349.27,293.33 349.56,294.08 349.89,294.72C350.17,295.27 350.43,295.88 350.79,296.19C351.06,296.43 351.39,296.52 351.7,296.59C351.99,296.66 352.3,296.64 352.6,296.62C352.9,296.6 353.21,296.56 353.51,296.49C353.81,296.42 354.12,296.32 354.41,296.18C354.72,296.03 355.02,295.83 355.32,295.62C355.63,295.4 355.92,295.14 356.22,294.89C356.52,294.63 356.82,294.36 357.12,294.09C357.42,293.81 357.73,293.52 358.03,293.23C358.33,292.94 358.63,292.64 358.93,292.33C359.24,292.02 359.54,291.69 359.84,291.36C360.14,291.02 360.46,290.73 360.74,290.32C361.07,289.83 361.35,289.19 361.64,288.57C361.96,287.88 362.25,287.1 362.55,286.36C362.85,285.61 363.15,284.86 363.45,284.1C363.75,283.34 364.06,282.58 364.36,281.81C364.66,281.04 364.96,280.27 365.26,279.49C365.56,278.71 365.86,277.93 366.16,277.13C366.47,276.3 366.77,275.44 367.07,274.57C367.38,273.67 367.67,272.73 367.97,271.8C368.27,270.86 368.58,269.92 368.88,268.97C369.18,268.02 369.48,267.07 369.78,266.12C370.08,265.17 370.38,264.23 370.68,263.29C370.98,262.36 371.29,261.42 371.59,260.5C371.89,259.59 372.19,258.69 372.49,257.79C372.79,256.91 373.09,256.02 373.4,255.16C373.7,254.32 373.99,253.48 374.3,252.66C374.6,251.86 374.9,251.07 375.21,250.29C375.51,249.53 375.81,248.78 376.11,248.05C376.41,247.34 376.7,246.64 377.01,245.96C377.31,245.29 377.62,244.64 377.92,243.99C378.22,243.35 378.52,242.73 378.82,242.1C379.12,241.48 379.43,240.86 379.73,240.25C380.03,239.65 380.32,239.05 380.63,238.47C380.92,237.91 381.22,237.36 381.53,236.85C381.82,236.36 382.13,235.89 382.44,235.46C382.73,235.05 383.02,234.66 383.34,234.32C383.63,234.01 383.93,233.72 384.25,233.49C384.54,233.28 384.84,233.09 385.15,232.97C385.44,232.86 385.75,232.8 386.05,232.8C386.35,232.8 386.67,232.87 386.96,232.98C387.27,233.1 387.57,233.3 387.86,233.53C388.18,233.78 388.48,234.1 388.77,234.44C389.09,234.82 389.38,235.26 389.67,235.71C389.98,236.2 390.29,236.74 390.58,237.3C390.89,237.9 391.19,238.54 391.48,239.19C391.79,239.87 392.09,240.58 392.38,241.31C392.69,242.08 392.99,242.87 393.29,243.68C393.6,244.53 393.89,245.4 394.19,246.29C394.5,247.22 394.8,248.18 395.1,249.16C395.41,250.17 395.7,251.21 396,252.27C396.31,253.36 396.6,254.49 396.9,255.62C397.21,256.78 397.51,257.97 397.81,259.16C398.11,260.38 398.41,261.61 398.71,262.85C399.01,264.1 399.32,265.36 399.62,266.62C399.92,267.87 400.22,269.14 400.52,270.38C400.82,271.6 401.11,272.83 401.42,274.01C401.72,275.14 402.01,276.26 402.33,277.3C402.62,278.24 402.9,279.17 403.23,279.97C403.51,280.65 403.8,281.3 404.14,281.82C404.42,282.24 404.71,282.62 405.04,282.89C405.32,283.12 405.64,283.29 405.95,283.4C406.24,283.5 406.55,283.53 406.85,283.53C407.15,283.53 407.45,283.48 407.75,283.42C408.06,283.35 408.36,283.25 408.66,283.14C408.96,283.02 409.26,282.89 409.56,282.73C409.87,282.56 410.18,282.38 410.47,282.16C410.78,281.93 411.08,281.68 411.37,281.39C411.68,281.08 411.97,280.7 412.27,280.35C412.57,279.99 412.87,279.61 413.18,279.25C413.48,278.9 413.77,278.55 414.08,278.23C414.38,277.93 414.68,277.64 414.99,277.38C415.28,277.13 415.58,276.91 415.89,276.71C416.18,276.52 416.48,276.36 416.79,276.22C417.09,276.08 417.39,275.97 417.7,275.87C418,275.77 418.3,275.7 418.6,275.63C418.9,275.56 419.21,275.5 419.51,275.45C419.81,275.4 420.11,275.34 420.41,275.31C420.71,275.27 421.02,275.24 421.32,275.24C421.62,275.24 421.92,275.26 422.22,275.31C422.52,275.36 422.82,275.44 423.12,275.55C423.43,275.67 423.74,275.82 424.03,276C424.34,276.19 424.64,276.43 424.93,276.69C425.24,276.97 425.55,277.3 425.84,277.64C426.15,278.01 426.45,278.41 426.74,278.83C427.05,279.28 427.35,279.78 427.64,280.29C427.95,280.83 428.26,281.4 428.55,281.98C428.86,282.59 429.15,283.24 429.45,283.89C429.76,284.57 430.06,285.28 430.36,285.99C430.67,286.72 430.96,287.47 431.26,288.23C431.56,289 431.86,289.78 432.16,290.56C432.46,291.34 432.77,292.14 433.07,292.92C433.37,293.7 433.66,294.49 433.97,295.25C434.27,296 434.57,296.74 434.88,297.46C435.18,298.16 435.47,298.86 435.78,299.52C436.07,300.15 436.37,300.78 436.68,301.35C436.97,301.88 437.27,302.42 437.59,302.86C437.87,303.25 438.15,303.69 438.49,303.87C438.77,304.02 439.11,304.08 439.4,304C439.72,303.91 440,303.51 440.3,303.24C440.61,302.96 440.9,302.64 441.21,302.35C441.51,302.07 441.81,301.79 442.11,301.53C442.41,301.28 442.7,301.04 443.01,300.82C443.31,300.6 443.61,300.41 443.92,300.22C444.22,300.04 444.52,299.87 444.82,299.71C445.12,299.55 445.43,299.41 445.73,299.26C446.03,299.12 446.33,298.98 446.63,298.84C446.93,298.7 447.23,298.57 447.53,298.44C447.83,298.31 448.14,298.18 448.44,298.04C448.74,297.91 449.04,297.77 449.34,297.63C449.64,297.49 449.95,297.36 450.25,297.22C450.55,297.09 450.85,296.95 451.15,296.82C451.45,296.7 451.75,296.57 452.05,296.47C452.35,296.37 452.66,296.28 452.96,296.21C453.26,296.14 453.56,296.09 453.86,296.06C454.16,296.03 454.47,296.02 454.77,296.04C455.07,296.06 455.37,296.09 455.67,296.15C455.97,296.21 456.28,296.29 456.58,296.39C456.88,296.49 457.18,296.61 457.48,296.74C457.78,296.87 458.08,297.03 458.38,297.18C458.68,297.33 458.99,297.5 459.29,297.66C459.59,297.82 459.89,297.99 460.19,298.14C460.49,298.29 460.79,298.45 461.1,298.57Q461.4,298.69 462,298.88" style="vector-effect: non-scaling-stroke; fill: none; stroke: rgb(231, 107, 243); stroke-opacity: 1; stroke-width: 2px; opacity: 1;"/></g><g class="points"/><g class="text"/></g></g></g><g class="overplot"/><path class="xlines-above crisp" d="M0,0" style="fill: none;"/><path class="ylines-above crisp" d="M0,0" style="fill: none;"/><g class="overlines-above"/><g class="xaxislayer-above"><g class="xtick"><text text-anchor="middle" x="0" y="433" transform="translate(80,0)" style="font-family: 'Open Sans', verdana, arial, sans-serif; font-size: 12px; fill: rgb(42, 63, 95); fill-opacity: 1; white-space: pre;">0</text></g><g class="xtick"><text text-anchor="middle" x="0" y="433" transform="translate(170.23000000000002,0)" style="font-family: 'Open Sans', verdana, arial, sans-serif; font-size: 12px; fill: rgb(42, 63, 95); fill-opacity: 1; white-space: pre;">100</text></g><g class="xtick"><text text-anchor="middle" x="0" y="433" transform="translate(260.47,0)" style="font-family: 'Open Sans', verdana, arial, sans-serif; font-size: 12px; fill: rgb(42, 63, 95); fill-opacity: 1; white-space: pre;">200</text></g><g class="xtick"><text text-anchor="middle" x="0" y="433" transform="translate(350.7,0)" style="font-family: 'Open Sans', verdana, arial, sans-serif; font-size: 12px; fill: rgb(42, 63, 95); fill-opacity: 1; white-space: pre;">300</text></g><g class="xtick"><text text-anchor="middle" x="0" y="433" transform="translate(440.94,0)" style="font-family: 'Open Sans', verdana, arial, sans-serif; font-size: 12px; fill: rgb(42, 63, 95); fill-opacity: 1; white-space: pre;">400</text></g><g class="xtick"><text text-anchor="middle" x="0" y="433" transform="translate(531.1700000000001,0)" style="font-family: 'Open Sans', verdana, arial, sans-serif; font-size: 12px; fill: rgb(42, 63, 95); fill-opacity: 1; white-space: pre;">500</text></g></g><g class="yaxislayer-above"><g class="ytick"><text text-anchor="end" x="79" y="4.199999999999999" transform="translate(0,392.77)" style="font-family: 'Open Sans', verdana, arial, sans-serif; font-size: 12px; fill: rgb(42, 63, 95); fill-opacity: 1; white-space: pre;">500</text></g><g class="ytick"><text text-anchor="end" x="79" y="4.199999999999999" transform="translate(0,328.03999999999996)" style="font-family: 'Open Sans', verdana, arial, sans-serif; font-size: 12px; fill: rgb(42, 63, 95); fill-opacity: 1; white-space: pre;">1000</text></g><g class="ytick"><text text-anchor="end" x="79" y="4.199999999999999" transform="translate(0,263.31)" style="font-family: 'Open Sans', verdana, arial, sans-serif; font-size: 12px; fill: rgb(42, 63, 95); fill-opacity: 1; white-space: pre;">1500</text></g><g class="ytick"><text text-anchor="end" x="79" y="4.199999999999999" transform="translate(0,198.57999999999998)" style="font-family: 'Open Sans', verdana, arial, sans-serif; font-size: 12px; fill: rgb(42, 63, 95); fill-opacity: 1; white-space: pre;">2000</text></g><g class="ytick"><text text-anchor="end" x="79" y="4.199999999999999" transform="translate(0,133.86)" style="font-family: 'Open Sans', verdana, arial, sans-serif; font-size: 12px; fill: rgb(42, 63, 95); fill-opacity: 1; white-space: pre;">2500</text></g></g><g class="overaxes-above"/></g></g><g class="polarlayer"/><g class="ternarylayer"/><g class="geolayer"/><g class="funnelarealayer"/><g class="pielayer"/><g class="treemaplayer"/><g class="sunburstlayer"/><g class="glimages"/><defs id="topdefs-18e1eb"><g class="clips"/><clipPath id="legend18e1eb"><rect width="137" height="67" x="0" y="0"/></clipPath></defs><g class="layer-above"><g class="imagelayer"/><g class="shapelayer"/></g><g class="infolayer"><g class="legend" pointer-events="all" transform="translate(551.24, 100)"><rect class="bg" shape-rendering="crispEdges" width="137" height="67" x="0" y="0" style="stroke: rgb(68, 68, 68); stroke-opacity: 1; fill: rgb(255, 255, 255); fill-opacity: 1; stroke-width: 0px;"/><g class="scrollbox" transform="translate(0, 0)" clip-path="url('#legend18e1eb')"><g class="groups"><g class="traces" transform="translate(0, 14.5)" style="opacity: 1;"><text class="legendtext" text-anchor="start" x="40" y="4.680000000000001" style="font-family: 'Open Sans', verdana, arial, sans-serif; font-size: 12px; fill: rgb(42, 63, 95); fill-opacity: 1; white-space: pre;">Average Class I</text><g class="layers" style="opacity: 1;"><g class="legendfill"/><g class="legendlines"><path class="js-line" d="M5,0h30" style="fill: none; stroke: rgb(0, 100, 80); stroke-opacity: 1; stroke-width: 2px;"/></g><g class="legendsymbols"><g class="legendpoints"/></g></g><rect class="legendtoggle" x="0" y="-9.5" width="131.15625" height="19" style="fill: rgb(0, 0, 0); fill-opacity: 0;"/></g><g class="traces" transform="translate(0, 33.5)" style="opacity: 1;"><text class="legendtext" text-anchor="start" x="40" y="4.680000000000001" style="font-family: 'Open Sans', verdana, arial, sans-serif; font-size: 12px; fill: rgb(42, 63, 95); fill-opacity: 1; white-space: pre;">Average Class II</text><g class="layers" style="opacity: 1;"><g class="legendfill"/><g class="legendlines"><path class="js-line" d="M5,0h30" style="fill: none; stroke: rgb(0, 176, 246); stroke-opacity: 1; stroke-width: 2px;"/></g><g class="legendsymbols"><g class="legendpoints"/></g></g><rect class="legendtoggle" x="0" y="-9.5" width="131.15625" height="19" style="fill: rgb(0, 0, 0); fill-opacity: 0;"/></g><g class="traces" transform="translate(0, 52.5)" style="opacity: 1;"><text class="legendtext" text-anchor="start" x="40" y="4.680000000000001" style="font-family: 'Open Sans', verdana, arial, sans-serif; font-size: 12px; fill: rgb(42, 63, 95); fill-opacity: 1; white-space: pre;">Average Class III</text><g class="layers" style="opacity: 1;"><g class="legendfill"/><g class="legendlines"><path class="js-line" d="M5,0h30" style="fill: none; stroke: rgb(231, 107, 243); stroke-opacity: 1; stroke-width: 2px;"/></g><g class="legendsymbols"><g class="legendpoints"/></g></g><rect class="legendtoggle" x="0" y="-9.5" width="131.15625" height="19" style="fill: rgb(0, 0, 0); fill-opacity: 0;"/></g></g></g><rect class="scrollbar" rx="20" ry="3" width="0" height="0" x="0" y="0" style="fill: rgb(128, 139, 164); fill-opacity: 1;"/></g><g class="g-gtitle"><text class="gtitle" x="35" y="50" text-anchor="start" dy="0em" style="font-family: 'Open Sans', verdana, arial, sans-serif; font-size: 17px; fill: rgb(42, 63, 95); opacity: 1; font-weight: normal; white-space: pre;">Average curve: hydropathy_group</text></g><g class="g-xtitle"><text class="xtitle" x="311" y="460.8" text-anchor="middle" style="font-family: 'Open Sans', verdana, arial, sans-serif; font-size: 14px; fill: rgb(42, 63, 95); opacity: 1; font-weight: normal; white-space: pre;">Domain</text></g><g class="g-ytitle"><text class="ytitle" transform="rotate(-90,27.496875000000003,260)" x="27.496875000000003" y="260" text-anchor="middle" style="font-family: 'Open Sans', verdana, arial, sans-serif; font-size: 14px; fill: rgb(42, 63, 95); opacity: 1; font-weight: normal; white-space: pre;">Frequency</text></g></g></svg>