<svg class="main-svg" xmlns="http://www.w3.org/2000/svg" xmlns:xlink="http://www.w3.org/1999/xlink" width="700" height="500" style="" viewBox="0 0 700 500"><rect x="0" y="0" width="700" height="500" style="fill: rgb(255, 255, 255); fill-opacity: 1;"/><defs id="defs-765e01"><g class="clips"><clipPath id="clip765e01xyplot" class="plotclip"><rect width="462" height="320"/></clipPath><clipPath class="axesclip" id="clip765e01x"><rect x="80" y="0" width="462" height="500"/></clipPath><clipPath class="axesclip" id="clip765e01y"><rect x="0" y="100" width="700" height="320"/></clipPath><clipPath class="axesclip" id="clip765e01xy"><rect x="80" y="100" width="462" height="320"/></clipPath></g><g class="gradients"/></defs><g class="bglayer"><rect class="bg" x="80" y="100" width="462" height="320" style="fill: rgb(229, 236, 246); fill-opacity: 1; stroke-width: 0;"/></g><g class="layer-below"><g class="imagelayer"/><g class="shapelayer"/></g><g class="cartesianlayer"><g class="subplot xy"><g class="layer-subplot"><g class="shapelayer"/><g class="imagelayer"/></g><g class="gridlayer"><g class="x"><path class="xgrid crisp" transform="translate(170.23000000000002,0)" d="M0,100v320" style="stroke: rgb(255, 255, 255); stroke-opacity: 1; stroke-width: 1px;"/><path class="xgrid crisp" transform="translate(260.47,0)" d="M0,100v320" style="stroke: rgb(255, 255, 255); stroke-opacity: 1; stroke-width: 1px;"/><path class="xgrid crisp" transform="translate(350.7,0)" d="M0,100v320" style="stroke: rgb(255, 255, 255); stroke-opacity: 1; stroke-width: 1px;"/><path class="xgrid crisp" transform="translate(440.94,0)" d="M0,100v320" style="stroke: rgb(255, 255, 255); stroke-opacity: 1; stroke-width: 1px;"/><path class="xgrid crisp" transform="translate(531.1700000000001,0)" d="M0,100v320" style="stroke: rgb(255, 255, 255); stroke-opacity: 1; stroke-width: 1px;"/></g><g class="y"><path class="ygrid crisp" transform="translate(0,391.23)" d="M80,0h462" style="stroke: rgb(255, 255, 255); stroke-opacity: 1; stroke-width: 1px;"/><path class="ygrid crisp" transform="translate(0,327.11)" d="M80,0h462" style="stroke: rgb(255, 255, 255); stroke-opacity: 1; stroke-width: 1px;"/><path class="ygrid crisp" transform="translate(0,263)" d="M80,0h462" style="stroke: rgb(255, 255, 255); stroke-opacity: 1; stroke-width: 1px;"/><path class="ygrid crisp" transform="translate(0,198.89)" d="M80,0h462" style="stroke: rgb(255, 255, 255); stroke-opacity: 1; stroke-width: 1px;"/><path class="ygrid crisp" transform="translate(0,134.77)" d="M80,0h462" style="stroke: rgb(255, 255, 255); stroke-opacity: 1; stroke-width: 1px;"/></g></g><g class="zerolinelayer"><path class="xzl zl crisp" transform="translate(80,0)" d="M0,100v320" style="stroke: rgb(255, 255, 255); stroke-opacity: 1; stroke-width: 2px;"/></g><path class="xlines-below"/><path class="ylines-below"/><g class="overlines-below"/><g class="xaxislayer-below"/><g class="yaxislayer-below"/><g class="overaxes-below"/><g class="plot" transform="translate(80, 100)" clip-path="url('#clip765e01xyplot')"><g class="scatterlayer mlayer"><g class="trace scatter traceb8da41" style="stroke-miterlimit: 2; opacity: 1;"><g class="fills"/><g class="errorbars"/><g class="lines"><path class="js-line" d="M0,79.23Q0.6,79.18 0.9,79.11C1.21,79.04 1.51,78.92 1.81,78.79C2.12,78.65 2.41,78.47 2.71,78.28C3.02,78.08 3.32,77.86 3.62,77.63C3.92,77.4 4.22,77.14 4.52,76.89C4.82,76.64 5.12,76.38 5.42,76.13C5.72,75.88 6.02,75.63 6.33,75.41C6.63,75.19 6.92,74.98 7.23,74.8C7.53,74.63 7.83,74.48 8.14,74.37C8.44,74.27 8.74,74.18 9.04,74.16C9.34,74.14 9.65,74.16 9.95,74.24C10.26,74.32 10.56,74.46 10.85,74.64C11.17,74.84 11.46,75.12 11.75,75.42C12.07,75.76 12.37,76.16 12.66,76.6C12.98,77.08 13.27,77.63 13.56,78.21C13.88,78.85 14.18,79.54 14.47,80.26C14.79,81.05 15.08,81.89 15.37,82.76C15.68,83.7 15.98,84.7 16.27,85.72C16.58,86.81 16.89,87.95 17.18,89.12C17.49,90.35 17.79,91.63 18.08,92.94C18.39,94.31 18.69,95.73 18.99,97.17C19.3,98.66 19.59,100.19 19.89,101.74C20.2,103.34 20.49,104.98 20.79,106.63C21.1,108.32 21.4,110.04 21.7,111.77C22,113.53 22.3,115.32 22.6,117.11C22.9,118.91 23.21,120.73 23.51,122.55C23.81,124.37 24.11,126.2 24.41,128.02C24.71,129.83 25.02,131.64 25.32,133.43C25.62,135.19 25.92,136.95 26.22,138.67C26.52,140.35 26.81,142.02 27.12,143.64C27.42,145.2 27.72,146.74 28.03,148.21C28.32,149.6 28.62,150.96 28.93,152.24C29.22,153.42 29.52,154.57 29.84,155.64C30.13,156.6 30.42,157.52 30.74,158.36C31.02,159.1 31.32,159.8 31.64,160.42C31.92,160.96 32.23,161.46 32.55,161.89C32.83,162.26 33.13,162.59 33.45,162.87C33.74,163.12 34.05,163.33 34.36,163.5C34.65,163.66 34.95,163.79 35.26,163.87C35.55,163.94 35.86,163.97 36.16,163.96C36.46,163.95 36.77,163.86 37.07,163.82C37.37,163.78 37.67,163.72 37.97,163.7C38.27,163.68 38.58,163.71 38.88,163.72C39.18,163.73 39.48,163.71 39.78,163.77C40.08,163.83 40.39,163.93 40.68,164.09C41,164.26 41.3,164.5 41.59,164.78C41.91,165.09 42.2,165.47 42.49,165.87C42.81,166.31 43.11,166.81 43.4,167.34C43.72,167.91 44.01,168.54 44.3,169.18C44.61,169.87 44.91,170.6 45.21,171.34C45.52,172.12 45.82,172.93 46.11,173.75C46.42,174.6 46.71,175.48 47.01,176.36C47.32,177.27 47.62,178.2 47.92,179.13C48.22,180.08 48.52,181.05 48.82,182.02C49.12,183 49.43,184 49.73,184.99C50.03,185.99 50.33,187 50.63,188.01C50.93,189.03 51.23,190.05 51.53,191.07C51.83,192.1 52.14,193.13 52.44,194.17C52.74,195.22 53.04,196.29 53.34,197.36C53.64,198.45 53.95,199.55 54.25,200.66C54.55,201.8 54.85,202.94 55.15,204.11C55.45,205.31 55.75,206.53 56.05,207.77C56.36,209.04 56.66,210.34 56.96,211.65C57.27,213 57.56,214.37 57.86,215.76C58.17,217.19 58.47,218.64 58.77,220.1C59.07,221.59 59.37,223.11 59.67,224.63C59.97,226.18 60.28,227.74 60.58,229.31C60.88,230.9 61.18,232.51 61.48,234.12C61.78,235.75 62.08,237.39 62.38,239.04C62.68,240.71 62.99,242.39 63.29,244.08C63.59,245.79 63.89,247.51 64.19,249.23C64.49,250.96 64.8,252.69 65.1,254.42C65.4,256.15 65.7,257.88 66,259.6C66.3,261.29 66.59,263 66.9,264.65C67.2,266.25 67.5,267.85 67.81,269.35C68.1,270.74 68.39,272.1 68.71,273.37C69,274.52 69.29,275.65 69.62,276.63C69.9,277.46 70.17,278.28 70.52,278.88C70.79,279.34 71.08,279.79 71.42,280C71.7,280.17 72.04,280.23 72.33,280.19C72.64,280.14 72.95,279.92 73.23,279.69C73.56,279.42 73.85,279.01 74.14,278.6C74.46,278.14 74.75,277.59 75.04,277.03C75.36,276.42 75.66,275.76 75.95,275.09C76.26,274.38 76.56,273.63 76.85,272.88C77.16,272.1 77.45,271.29 77.75,270.48C78.06,269.64 78.36,268.78 78.66,267.92C78.96,267.04 79.26,266.15 79.56,265.26C79.86,264.36 80.17,263.46 80.47,262.56C80.77,261.67 81.07,260.78 81.37,259.9C81.67,259.04 81.97,258.18 82.27,257.33C82.57,256.49 82.87,255.63 83.18,254.82C83.47,254.05 83.77,253.29 84.08,252.58C84.37,251.92 84.67,251.29 84.99,250.71C85.28,250.19 85.57,249.69 85.89,249.26C86.17,248.88 86.47,248.53 86.79,248.26C87.08,248.02 87.39,247.81 87.7,247.71C87.99,247.62 88.3,247.59 88.6,247.63C88.91,247.67 89.22,247.81 89.51,247.99C89.83,248.18 90.12,248.47 90.41,248.78C90.73,249.12 91.03,249.53 91.32,249.96C91.64,250.44 91.93,250.97 92.22,251.53C92.53,252.13 92.82,252.79 93.12,253.44C93.43,254.12 93.73,254.82 94.03,255.52C94.33,256.24 94.63,256.97 94.93,257.71C95.24,258.48 95.54,259.27 95.84,260.06C96.14,260.86 96.44,261.68 96.74,262.47C97.04,263.25 97.33,264.03 97.64,264.79C97.94,265.53 98.24,266.28 98.55,266.98C98.84,267.63 99.14,268.25 99.45,268.85C99.74,269.42 100.04,269.98 100.36,270.49C100.65,270.96 100.94,271.43 101.26,271.8C101.54,272.12 101.84,272.42 102.16,272.61C102.45,272.78 102.76,272.86 103.07,272.91C103.37,272.96 103.67,272.96 103.97,272.94C104.27,272.92 104.58,272.88 104.88,272.8C105.18,272.72 105.49,272.62 105.78,272.48C106.09,272.33 106.39,272.13 106.68,271.92C106.99,271.7 107.29,271.45 107.59,271.19C107.89,270.93 108.19,270.65 108.49,270.37C108.79,270.08 109.1,269.79 109.4,269.49C109.7,269.19 110,268.89 110.3,268.59C110.6,268.29 110.91,267.99 111.21,267.69C111.51,267.39 111.81,267.08 112.11,266.77C112.41,266.47 112.71,266.16 113.01,265.86C113.31,265.56 113.62,265.25 113.92,264.95C114.22,264.65 114.52,264.35 114.82,264.06C115.12,263.77 115.43,263.48 115.73,263.2C116.03,262.92 116.33,262.65 116.63,262.38C116.93,262.11 117.23,261.86 117.53,261.59C117.83,261.32 118.14,261.05 118.44,260.77C118.74,260.49 119.04,260.2 119.34,259.92C119.64,259.64 119.95,259.36 120.25,259.09C120.55,258.83 120.85,258.57 121.15,258.32C121.45,258.08 121.75,257.84 122.05,257.61C122.35,257.38 122.66,257.17 122.96,256.96C123.26,256.75 123.56,256.56 123.86,256.36C124.16,256.17 124.47,255.98 124.77,255.79C125.07,255.6 125.37,255.42 125.67,255.24C125.97,255.05 126.28,254.87 126.58,254.68C126.88,254.49 127.18,254.3 127.48,254.1C127.78,253.89 128.08,253.67 128.38,253.44C128.69,253.2 128.99,252.96 129.29,252.7C129.59,252.44 129.89,252.17 130.19,251.89C130.49,251.61 130.8,251.33 131.1,251.03C131.41,250.72 131.71,250.39 132,250.04C132.31,249.68 132.6,249.26 132.9,248.89C133.2,248.52 133.5,248.16 133.81,247.81C134.11,247.47 134.4,247.14 134.71,246.83C135.01,246.53 135.31,246.24 135.62,245.96C135.92,245.69 136.22,245.44 136.52,245.2C136.82,244.96 137.12,244.73 137.42,244.51C137.72,244.29 138.02,244.06 138.33,243.87C138.63,243.68 138.92,243.51 139.23,243.36C139.53,243.21 139.83,243.07 140.14,242.98C140.44,242.89 140.74,242.81 141.04,242.8C141.34,242.79 141.65,242.82 141.95,242.9C142.26,242.99 142.56,243.14 142.85,243.32C143.16,243.52 143.46,243.78 143.75,244.07C144.07,244.39 144.37,244.77 144.66,245.17C144.98,245.61 145.27,246.11 145.56,246.63C145.87,247.19 146.18,247.8 146.47,248.43C146.78,249.11 147.08,249.83 147.37,250.57C147.68,251.36 147.98,252.18 148.27,253.02C148.58,253.91 148.88,254.82 149.18,255.76C149.49,256.73 149.78,257.74 150.08,258.75C150.39,259.79 150.69,260.86 150.99,261.93C151.29,263.02 151.59,264.14 151.89,265.25C152.19,266.37 152.49,267.5 152.79,268.61C153.09,269.71 153.39,270.81 153.7,271.87C154,272.89 154.29,273.9 154.6,274.86C154.89,275.76 155.19,276.65 155.51,277.46C155.8,278.19 156.08,278.92 156.41,279.52C156.69,280.03 156.98,280.53 157.32,280.86C157.6,281.13 157.91,281.32 158.22,281.43C158.51,281.53 158.82,281.56 159.12,281.52C159.43,281.48 159.74,281.32 160.03,281.16C160.34,280.99 160.64,280.77 160.93,280.54C161.24,280.29 161.54,280 161.84,279.72C162.14,279.43 162.44,279.13 162.74,278.83C163.04,278.53 163.34,278.23 163.64,277.93C163.94,277.64 164.25,277.35 164.55,277.06C164.85,276.78 165.15,276.5 165.45,276.23C165.75,275.96 166.06,275.69 166.36,275.42C166.66,275.15 166.96,274.89 167.26,274.63C167.56,274.37 167.86,274.1 168.16,273.85C168.46,273.6 168.76,273.35 169.07,273.12C169.37,272.9 169.67,272.69 169.97,272.48C170.27,272.28 170.58,272.09 170.88,271.89C171.18,271.69 171.48,271.49 171.78,271.27C172.08,271.05 172.39,270.84 172.68,270.58C172.99,270.3 173.3,270 173.59,269.66C173.91,269.29 174.2,268.85 174.49,268.42C174.8,267.96 175.12,267.51 175.4,266.97C175.72,266.36 176.01,265.65 176.3,264.93C176.62,264.14 176.91,263.28 177.21,262.43C177.52,261.54 177.82,260.63 178.11,259.69C178.42,258.7 178.71,257.68 179.01,256.63C179.32,255.54 179.62,254.41 179.92,253.27C180.23,252.1 180.52,250.91 180.82,249.71C181.12,248.49 181.43,247.25 181.73,246.01C182.03,244.75 182.33,243.49 182.63,242.22C182.93,240.94 183.23,239.65 183.53,238.35C183.83,237.05 184.14,235.73 184.44,234.42C184.74,233.1 185.04,231.78 185.34,230.45C185.64,229.12 185.95,227.79 186.25,226.45C186.55,225.11 186.85,223.78 187.15,222.43C187.45,221.07 187.75,219.72 188.05,218.34C188.36,216.92 188.66,215.46 188.96,214.01C189.26,212.55 189.56,211.07 189.86,209.62C190.16,208.2 190.46,206.78 190.77,205.4C191.07,204.07 191.36,202.75 191.67,201.48C191.96,200.27 192.27,199.08 192.58,197.94C192.87,196.87 193.17,195.83 193.48,194.85C193.77,193.95 194.06,193.09 194.38,192.3C194.67,191.59 194.96,190.91 195.29,190.33C195.57,189.83 195.86,189.34 196.19,188.99C196.47,188.7 196.78,188.42 197.1,188.33C197.39,188.25 197.72,188.26 198,188.38C198.32,188.51 198.62,188.83 198.9,189.17C199.24,189.58 199.53,190.15 199.81,190.73C200.14,191.41 200.43,192.21 200.71,193.04C201.03,193.99 201.33,195.03 201.62,196.12C201.94,197.32 202.23,198.62 202.52,199.95C202.83,201.4 203.13,202.93 203.42,204.49C203.73,206.16 204.04,207.9 204.33,209.67C204.64,211.54 204.93,213.47 205.23,215.43C205.54,217.47 205.84,219.57 206.14,221.69C206.45,223.89 206.74,226.14 207.04,228.4C207.34,230.71 207.65,233.07 207.95,235.41C208.25,237.75 208.55,240.08 208.85,242.44C209.15,244.83 209.45,247.24 209.75,249.65C210.05,252.07 210.36,254.51 210.66,256.94C210.96,259.36 211.26,261.79 211.56,264.2C211.86,266.61 212.17,269.02 212.47,271.4C212.77,273.75 213.06,276.11 213.37,278.39C213.66,280.58 213.95,282.8 214.27,284.84C214.56,286.69 214.85,288.5 215.18,290.13C215.46,291.55 215.73,292.95 216.08,294.09C216.35,295 216.6,295.97 216.99,296.48C217.25,296.82 217.61,297.18 217.89,297.13C218.23,297.07 218.53,296.34 218.79,295.76C219.17,294.91 219.42,293.63 219.7,292.4C220.03,290.94 220.32,289.31 220.6,287.58C220.93,285.58 221.21,283.27 221.51,281.07C221.82,278.8 222.11,276.47 222.41,274.16C222.71,271.82 223.02,269.47 223.32,267.12C223.62,264.78 223.92,262.42 224.22,260.09C224.52,257.78 224.82,255.47 225.12,253.19C225.42,250.93 225.73,248.69 226.03,246.47C226.33,244.3 226.62,242.14 226.93,240.02C227.23,237.96 227.53,235.92 227.84,233.91C228.14,231.95 228.44,230.04 228.74,228.12C229.04,226.22 229.34,224.36 229.64,222.47C229.94,220.57 230.25,218.66 230.55,216.76C230.85,214.86 231.15,212.97 231.45,211.08C231.75,209.19 232.06,207.31 232.36,205.42C232.66,203.51 232.96,201.59 233.26,199.67C233.56,197.73 233.86,195.79 234.16,193.83C234.46,191.84 234.77,189.83 235.07,187.83C235.37,185.83 235.67,183.81 235.97,181.81C236.27,179.83 236.58,177.85 236.88,175.89C237.18,173.95 237.48,172.03 237.78,170.11C238.08,168.21 238.38,166.33 238.68,164.45C238.98,162.59 239.29,160.74 239.59,158.9C239.89,157.07 240.19,155.24 240.49,153.41C240.79,151.57 241.1,149.72 241.4,147.86C241.7,145.97 242,144.06 242.3,142.15C242.6,140.24 242.91,138.31 243.21,136.41C243.51,134.52 243.81,132.64 244.11,130.77C244.41,128.93 244.71,127.11 245.01,125.3C245.31,123.52 245.62,121.76 245.92,120C246.22,118.27 246.52,116.55 246.82,114.83C247.12,113.12 247.43,111.43 247.73,109.72C248.03,108 248.33,106.28 248.63,104.54C248.93,102.77 249.23,101 249.53,99.2C249.84,97.36 250.14,95.5 250.44,93.61C250.75,91.68 251.04,89.73 251.34,87.76C251.64,85.75 251.95,83.72 252.25,81.68C252.55,79.63 252.85,77.55 253.15,75.49C253.45,73.43 253.75,71.36 254.05,69.32C254.35,67.31 254.65,65.29 254.96,63.32C255.26,61.4 255.55,59.49 255.86,57.63C256.16,55.85 256.46,54.09 256.77,52.4C257.06,50.8 257.36,49.23 257.67,47.75C257.96,46.38 258.26,45.04 258.58,43.8C258.87,42.68 259.15,41.6 259.48,40.64C259.76,39.81 260.04,39.01 260.38,38.37C260.66,37.85 260.94,37.32 261.29,37.05C261.56,36.84 261.9,36.68 262.19,36.72C262.51,36.77 262.83,37.1 263.1,37.42C263.45,37.84 263.72,38.5 264,39.16C264.34,39.97 264.62,40.94 264.9,41.94C265.23,43.1 265.52,44.39 265.81,45.73C266.13,47.23 266.42,48.84 266.71,50.51C267.03,52.33 267.33,54.25 267.62,56.22C267.93,58.33 268.23,60.54 268.52,62.8C268.83,65.18 269.12,67.65 269.42,70.16C269.73,72.78 270.03,75.48 270.33,78.21C270.64,81.04 270.93,83.94 271.23,86.86C271.54,89.86 271.84,92.92 272.14,96C272.44,99.14 272.74,102.32 273.04,105.51C273.34,108.75 273.65,112.02 273.95,115.3C274.25,118.61 274.55,121.94 274.85,125.26C275.15,128.59 275.45,131.95 275.75,135.27C276.05,138.56 276.35,141.9 276.66,145.1C276.95,148.14 277.25,151.09 277.56,154.01C277.86,156.84 278.16,159.63 278.47,162.37C278.77,165.03 279.06,167.65 279.37,170.22C279.66,172.7 279.96,175.14 280.27,177.51C280.57,179.78 280.87,182.02 281.18,184.16C281.47,186.16 281.76,188.15 282.08,189.96C282.37,191.56 282.67,193.08 282.99,194.48C283.27,195.7 283.56,196.89 283.89,197.9C284.17,198.73 284.43,199.57 284.79,200.14C285.06,200.57 285.36,201 285.7,201.13C285.98,201.23 286.32,201.16 286.6,201.03C286.93,200.87 287.22,200.48 287.51,200.13C287.83,199.74 288.11,199.24 288.41,198.77C288.72,198.29 289.01,197.75 289.32,197.27C289.62,196.8 289.91,196.33 290.22,195.91C290.51,195.53 290.8,195.14 291.12,194.86C291.41,194.61 291.71,194.38 292.03,194.27C292.32,194.17 292.64,194.13 292.93,194.19C293.24,194.25 293.56,194.45 293.84,194.68C294.17,194.94 294.46,195.32 294.74,195.72C295.06,196.17 295.35,196.72 295.64,197.28C295.96,197.9 296.26,198.6 296.55,199.3C296.86,200.05 297.15,200.86 297.45,201.65C297.75,202.46 298.05,203.31 298.36,204.09C298.65,204.83 298.96,205.54 299.26,206.24C299.56,206.93 299.85,207.63 300.16,208.27C300.45,208.86 300.74,209.45 301.07,209.93C301.35,210.34 301.64,210.74 301.97,211.01C302.25,211.24 302.57,211.46 302.88,211.49C303.18,211.52 303.51,211.39 303.78,211.2C304.12,210.96 304.41,210.52 304.68,210.06C305.03,209.47 305.3,208.66 305.59,207.88C305.91,207 306.2,206.02 306.49,205.03C306.8,203.95 307.11,202.83 307.4,201.65C307.72,200.37 308,198.99 308.3,197.62C308.61,196.19 308.91,194.7 309.21,193.23C309.51,191.76 309.8,190.26 310.11,188.82C310.4,187.43 310.7,186.06 311.01,184.74C311.3,183.49 311.61,182.27 311.92,181.1C312.21,180.01 312.5,178.94 312.82,177.94C313.11,177.02 313.41,176.13 313.73,175.3C314.02,174.55 314.31,173.83 314.63,173.18C314.91,172.6 315.2,172.05 315.53,171.59C315.81,171.19 316.11,170.81 316.44,170.53C316.72,170.29 317.03,170.08 317.34,169.99C317.63,169.9 317.96,169.89 318.25,169.96C318.56,170.03 318.87,170.22 319.15,170.44C319.47,170.69 319.77,171.05 320.05,171.43C320.37,171.86 320.67,172.38 320.96,172.92C321.28,173.52 321.57,174.2 321.86,174.9C322.18,175.67 322.48,176.51 322.77,177.38C323.08,178.32 323.38,179.32 323.67,180.35C323.98,181.45 324.29,182.61 324.58,183.8C324.89,185.06 325.19,186.37 325.48,187.71C325.79,189.12 326.08,190.57 326.38,192.05C326.69,193.6 326.99,195.19 327.29,196.8C327.6,198.47 327.89,200.17 328.19,201.89C328.5,203.66 328.8,205.46 329.1,207.27C329.4,209.11 329.7,210.97 330,212.83C330.3,214.69 330.59,216.59 330.9,218.41C331.2,220.17 331.5,221.91 331.81,223.59C332.1,225.18 332.4,226.74 332.71,228.24C333,229.65 333.31,231.02 333.62,232.33C333.91,233.56 334.2,234.77 334.52,235.89C334.81,236.91 335.1,237.88 335.42,238.79C335.71,239.63 336.02,240.41 336.33,241.17C336.62,241.88 336.92,242.54 337.23,243.2C337.53,243.84 337.84,244.46 338.14,245.07C338.44,245.67 338.74,246.26 339.04,246.85C339.34,247.44 339.65,248.01 339.95,248.6C340.25,249.2 340.56,249.79 340.85,250.41C341.16,251.05 341.46,251.71 341.75,252.4C342.06,253.12 342.37,253.87 342.66,254.64C342.97,255.45 343.27,256.3 343.56,257.17C343.87,258.08 344.17,259.03 344.47,259.99C344.78,260.99 345.07,262.03 345.37,263.07C345.67,264.15 345.96,265.29 346.27,266.36C346.57,267.4 346.88,268.39 347.18,269.4C347.48,270.41 347.78,271.4 348.08,272.41C348.38,273.43 348.69,274.46 348.99,275.48C349.29,276.5 349.59,277.52 349.89,278.54C350.19,279.56 350.49,280.57 350.79,281.59C351.09,282.61 351.39,283.64 351.7,284.64C352,285.6 352.29,286.54 352.6,287.46C352.9,288.36 353.21,289.23 353.51,290.1C353.81,290.95 354.1,291.8 354.41,292.62C354.71,293.42 355.01,294.22 355.32,294.98C355.61,295.71 355.91,296.42 356.22,297.1C356.51,297.74 356.8,298.37 357.12,298.93C357.41,299.44 357.7,299.95 358.03,300.33C358.31,300.65 358.61,300.97 358.93,301.11C359.21,301.23 359.55,301.27 359.84,301.19C360.16,301.1 360.47,300.83 360.74,300.54C361.08,300.18 361.36,299.66 361.64,299.12C361.97,298.49 362.27,297.74 362.55,296.96C362.88,296.06 363.16,295.04 363.45,294C363.77,292.86 364.07,291.63 364.36,290.39C364.67,289.07 364.96,287.69 365.26,286.3C365.57,284.86 365.86,283.39 366.16,281.91C366.46,280.4 366.77,278.88 367.07,277.35C367.37,275.82 367.67,274.26 367.97,272.73C368.27,271.21 368.58,269.68 368.88,268.18C369.18,266.7 369.48,265.23 369.78,263.79C370.08,262.38 370.37,260.99 370.68,259.63C370.98,258.32 371.28,257.03 371.59,255.77C371.89,254.56 372.18,253.36 372.49,252.2C372.79,251.08 373.09,249.98 373.4,248.9C373.7,247.86 373.99,246.83 374.3,245.84C374.59,244.9 374.9,243.98 375.21,243.12C375.5,242.32 375.79,241.55 376.11,240.84C376.4,240.2 376.69,239.58 377.01,239.04C377.3,238.56 377.59,238.1 377.92,237.74C378.2,237.42 378.5,237.13 378.82,236.95C379.11,236.79 379.43,236.67 379.73,236.66C380.03,236.65 380.35,236.74 380.63,236.89C380.95,237.05 381.25,237.34 381.53,237.64C381.86,237.99 382.15,238.46 382.44,238.9C382.75,239.37 383.05,239.86 383.34,240.37C383.65,240.91 383.95,241.51 384.25,242.08C384.55,242.65 384.85,243.23 385.15,243.81C385.45,244.39 385.74,244.99 386.05,245.55C386.35,246.09 386.64,246.65 386.96,247.11C387.25,247.52 387.54,247.92 387.86,248.22C388.14,248.48 388.45,248.7 388.77,248.83C389.06,248.95 389.38,249.04 389.67,249C389.98,248.96 390.3,248.78 390.58,248.56C390.91,248.31 391.2,247.93 391.48,247.53C391.8,247.08 392.09,246.51 392.38,245.96C392.69,245.37 392.99,244.72 393.29,244.08C393.6,243.43 393.89,242.75 394.19,242.08C394.49,241.39 394.8,240.7 395.1,239.99C395.41,239.26 395.7,238.5 396,237.75C396.3,237 396.59,236.23 396.9,235.5C397.2,234.8 397.5,234.11 397.81,233.47C398.1,232.87 398.39,232.3 398.71,231.77C399,231.29 399.3,230.83 399.62,230.42C399.91,230.05 400.21,229.71 400.52,229.42C400.81,229.15 401.11,228.92 401.42,228.73C401.71,228.56 402.02,228.42 402.33,228.32C402.63,228.22 402.93,228.15 403.23,228.11C403.53,228.07 403.84,228.06 404.14,228.06C404.44,228.06 404.74,228.09 405.04,228.12C405.34,228.16 405.65,228.2 405.95,228.27C406.25,228.34 406.56,228.43 406.85,228.55C407.16,228.68 407.46,228.83 407.75,229.02C408.06,229.22 408.37,229.47 408.66,229.74C408.97,230.02 409.27,230.35 409.56,230.68C409.87,231.03 410.17,231.42 410.47,231.81C410.78,232.22 411.08,232.64 411.37,233.08C411.68,233.55 411.97,234.05 412.27,234.55C412.57,235.05 412.88,235.56 413.18,236.08C413.49,236.61 413.78,237.15 414.08,237.71C414.39,238.29 414.69,238.9 414.99,239.51C415.3,240.14 415.59,240.79 415.89,241.44C416.19,242.1 416.49,242.76 416.79,243.42C417.09,244.07 417.4,244.73 417.7,245.37C418,246.01 418.29,246.64 418.6,247.26C418.9,247.86 419.2,248.44 419.51,249.01C419.81,249.56 420.11,250.07 420.41,250.6C420.71,251.13 421.02,251.66 421.32,252.2C421.63,252.76 421.92,253.33 422.22,253.91C422.52,254.51 422.82,255.12 423.12,255.75C423.43,256.39 423.73,257.05 424.03,257.72C424.34,258.41 424.63,259.11 424.93,259.82C425.23,260.54 425.54,261.26 425.84,261.99C426.14,262.72 426.44,263.46 426.74,264.18C427.04,264.89 427.33,265.63 427.64,266.3C427.93,266.93 428.24,267.51 428.55,268.1C428.85,268.67 429.14,269.23 429.45,269.76C429.75,270.27 430.05,270.78 430.36,271.25C430.65,271.7 430.95,272.13 431.26,272.52C431.55,272.88 431.84,273.21 432.16,273.49C432.45,273.75 432.76,273.96 433.07,274.15C433.36,274.33 433.66,274.47 433.97,274.6C434.27,274.72 434.57,274.82 434.88,274.9C435.18,274.98 435.48,275.03 435.78,275.06C436.08,275.09 436.38,275.1 436.68,275.1C436.98,275.1 437.29,275.09 437.59,275.06C437.89,275.03 438.19,274.98 438.49,274.9C438.8,274.81 439.1,274.67 439.4,274.54C439.7,274.41 440,274.26 440.3,274.13C440.6,274 440.91,273.87 441.21,273.76C441.51,273.65 441.81,273.55 442.11,273.46C442.41,273.37 442.71,273.3 443.01,273.24C443.31,273.18 443.62,273.14 443.92,273.11C444.22,273.08 444.52,273.07 444.82,273.07C445.12,273.07 445.43,273.09 445.73,273.12C446.03,273.15 446.33,273.23 446.63,273.24C446.93,273.25 447.23,273.19 447.53,273.17C447.83,273.15 448.14,273.13 448.44,273.13C448.74,273.13 449.04,273.15 449.34,273.18C449.64,273.21 449.95,273.26 450.25,273.32C450.55,273.38 450.85,273.46 451.15,273.53C451.45,273.6 451.75,273.65 452.05,273.72C452.35,273.79 452.66,273.86 452.96,273.95C453.26,274.05 453.56,274.16 453.86,274.29C454.17,274.43 454.47,274.59 454.77,274.76C455.08,274.94 455.37,275.14 455.67,275.35C455.98,275.57 456.28,275.81 456.58,276.06C456.89,276.32 457.18,276.59 457.48,276.88C457.78,277.17 458.08,277.49 458.38,277.8C458.68,278.12 458.99,278.45 459.29,278.78C459.59,279.11 459.89,279.45 460.19,279.77C460.49,280.09 460.79,280.42 461.1,280.71Q461.39,280.98 462,281.46" style="vector-effect: non-scaling-stroke; fill: none; stroke: rgb(0, 100, 80); stroke-opacity: 1; stroke-width: 2px; opacity: 1;"/></g><g class="points"/><g class="text"/></g><g class="trace scatter trace8cac11" style="stroke-miterlimit: 2; opacity: 1;"><g class="fills"/><g class="errorbars"/><g class="lines"><path class="js-line" d="M0,70.54Q0.61,70.4 0.9,70.27C1.21,70.13 1.51,69.89 1.81,69.68C2.12,69.46 2.41,69.21 2.71,68.98C3.01,68.75 3.31,68.5 3.62,68.29C3.92,68.08 4.21,67.87 4.52,67.71C4.81,67.55 5.11,67.41 5.42,67.33C5.72,67.25 6.03,67.19 6.33,67.21C6.63,67.23 6.94,67.3 7.23,67.43C7.54,67.57 7.85,67.77 8.14,68.02C8.46,68.29 8.75,68.64 9.04,69.02C9.36,69.44 9.66,69.93 9.95,70.45C10.27,71.02 10.56,71.66 10.85,72.32C11.16,73.04 11.46,73.82 11.75,74.62C12.06,75.48 12.37,76.4 12.66,77.34C12.97,78.33 13.27,79.37 13.56,80.43C13.87,81.54 14.17,82.69 14.47,83.85C14.78,85.05 15.07,86.29 15.37,87.53C15.67,88.8 15.97,90.08 16.27,91.37C16.57,92.67 16.88,93.98 17.18,95.3C17.48,96.63 17.78,97.97 18.08,99.32C18.38,100.69 18.69,102.07 18.99,103.47C19.29,104.89 19.59,106.33 19.89,107.79C20.19,109.28 20.49,110.79 20.79,112.31C21.09,113.86 21.4,115.42 21.7,117C22,118.6 22.3,120.23 22.6,121.85C22.9,123.49 23.21,125.14 23.51,126.79C23.81,128.44 24.11,130.1 24.41,131.75C24.71,133.38 25.02,135.02 25.32,136.62C25.62,138.19 25.91,139.76 26.22,141.28C26.52,142.75 26.81,144.21 27.12,145.62C27.41,146.96 27.72,148.28 28.03,149.53C28.32,150.69 28.61,151.83 28.93,152.88C29.22,153.83 29.52,154.75 29.84,155.58C30.12,156.3 30.42,156.98 30.74,157.58C31.02,158.1 31.32,158.59 31.64,158.99C31.92,159.34 32.23,159.65 32.55,159.9C32.84,160.12 33.14,160.3 33.45,160.42C33.74,160.53 34.06,160.58 34.36,160.6C34.66,160.62 34.96,160.58 35.26,160.52C35.56,160.46 35.87,160.34 36.16,160.21C36.47,160.07 36.78,159.9 37.07,159.7C37.38,159.48 37.68,159.24 37.97,158.94C38.29,158.6 38.59,158.19 38.88,157.74C39.2,157.24 39.49,156.63 39.78,156.05C40.09,155.45 40.38,154.81 40.68,154.2C40.98,153.6 41.28,153 41.59,152.43C41.88,151.89 42.18,151.37 42.49,150.89C42.78,150.45 43.08,150.01 43.4,149.65C43.69,149.33 43.98,149.02 44.3,148.8C44.59,148.6 44.9,148.43 45.21,148.37C45.5,148.31 45.82,148.34 46.11,148.43C46.42,148.53 46.73,148.75 47.01,149C47.34,149.29 47.63,149.68 47.92,150.09C48.24,150.56 48.53,151.1 48.82,151.67C49.14,152.31 49.44,153.01 49.73,153.75C50.05,154.56 50.34,155.44 50.63,156.35C50.94,157.34 51.24,158.39 51.53,159.46C51.84,160.61 52.15,161.8 52.44,163.03C52.75,164.33 53.04,165.68 53.34,167.05C53.65,168.49 53.95,169.97 54.25,171.47C54.56,173.03 54.85,174.62 55.15,176.23C55.45,177.89 55.75,179.57 56.05,181.27C56.36,183.01 56.66,184.77 56.96,186.55C57.27,188.38 57.56,190.23 57.86,192.11C58.17,194.04 58.47,196.01 58.77,198C59.08,200.05 59.37,202.13 59.67,204.24C59.98,206.4 60.28,208.59 60.58,210.79C60.88,213.03 61.18,215.31 61.48,217.59C61.78,219.89 62.08,222.21 62.38,224.51C62.68,226.8 62.98,229.13 63.29,231.35C63.58,233.46 63.88,235.49 64.19,237.5C64.49,239.43 64.79,241.34 65.1,243.19C65.39,244.95 65.69,246.68 66,248.32C66.29,249.84 66.58,251.32 66.9,252.7C67.19,253.95 67.49,255.14 67.81,256.24C68.1,257.21 68.39,258.14 68.71,258.97C68.99,259.7 69.29,260.38 69.62,260.98C69.9,261.5 70.2,261.98 70.52,262.39C70.8,262.75 71.1,263.07 71.42,263.34C71.71,263.59 72.02,263.8 72.33,263.98C72.62,264.15 72.92,264.32 73.23,264.39C73.53,264.45 73.84,264.44 74.14,264.39C74.45,264.34 74.74,264.19 75.04,264.08C75.34,263.96 75.65,263.83 75.95,263.7C76.25,263.58 76.55,263.45 76.85,263.33C77.15,263.22 77.45,263.11 77.75,263.01C78.05,262.91 78.36,262.83 78.66,262.74C78.96,262.65 79.26,262.58 79.56,262.49C79.86,262.4 80.17,262.32 80.47,262.2C80.77,262.08 81.07,261.94 81.37,261.78C81.68,261.61 81.97,261.41 82.27,261.22C82.57,261.03 82.87,260.83 83.18,260.66C83.48,260.49 83.78,260.33 84.08,260.19C84.38,260.06 84.69,259.94 84.99,259.84C85.29,259.74 85.59,259.66 85.89,259.59C86.19,259.52 86.49,259.46 86.79,259.43C87.09,259.4 87.4,259.36 87.7,259.38C88,259.4 88.31,259.45 88.6,259.54C88.91,259.64 89.22,259.78 89.51,259.97C89.82,260.17 90.11,260.46 90.41,260.73C90.72,261.01 91.02,261.32 91.32,261.63C91.63,261.95 91.93,262.28 92.22,262.65C92.53,263.06 92.83,263.52 93.12,263.99C93.43,264.49 93.72,265.06 94.03,265.57C94.33,266.05 94.62,266.52 94.93,266.97C95.23,267.4 95.53,267.82 95.84,268.2C96.13,268.56 96.42,268.94 96.74,269.22C97.03,269.47 97.32,269.71 97.64,269.84C97.93,269.96 98.25,270.01 98.55,270C98.85,269.99 99.16,269.89 99.45,269.75C99.77,269.6 100.07,269.37 100.36,269.12C100.68,268.85 100.97,268.52 101.26,268.18C101.57,267.81 101.87,267.39 102.16,266.96C102.47,266.5 102.78,266.01 103.07,265.5C103.38,264.97 103.67,264.39 103.97,263.83C104.27,263.26 104.57,262.67 104.88,262.1C105.18,261.55 105.47,261 105.78,260.47C106.07,259.96 106.37,259.46 106.68,258.99C106.97,258.55 107.28,258.12 107.59,257.74C107.88,257.38 108.18,257.05 108.49,256.76C108.78,256.5 109.09,256.26 109.4,256.07C109.69,255.9 109.99,255.77 110.3,255.66C110.6,255.56 110.91,255.52 111.21,255.44C111.51,255.35 111.82,255.27 112.11,255.15C112.42,255.02 112.71,254.84 113.01,254.68C113.31,254.52 113.62,254.36 113.92,254.21C114.22,254.06 114.52,253.93 114.82,253.8C115.12,253.68 115.43,253.56 115.73,253.46C116.03,253.36 116.33,253.27 116.63,253.19C116.93,253.11 117.23,253.05 117.53,252.98C117.83,252.91 118.14,252.86 118.44,252.79C118.74,252.72 119.04,252.66 119.34,252.57C119.65,252.48 119.95,252.37 120.25,252.23C120.56,252.09 120.85,251.9 121.15,251.73C121.45,251.56 121.75,251.36 122.05,251.19C122.35,251.03 122.65,250.86 122.96,250.74C123.26,250.62 123.56,250.52 123.86,250.46C124.16,250.4 124.47,250.38 124.77,250.39C125.07,250.4 125.37,250.47 125.67,250.55C125.98,250.63 126.28,250.77 126.58,250.89C126.88,251.01 127.18,251.15 127.48,251.29C127.78,251.43 128.08,251.57 128.38,251.72C128.68,251.87 128.99,252.03 129.29,252.17C129.59,252.31 129.89,252.46 130.19,252.58C130.49,252.7 130.79,252.88 131.1,252.9C131.4,252.92 131.72,252.88 132,252.73C132.33,252.56 132.63,252.23 132.9,251.85C133.26,251.34 133.52,250.56 133.81,249.86C134.12,249.1 134.41,248.26 134.71,247.46C135.01,246.67 135.31,245.86 135.62,245.09C135.92,244.34 136.21,243.59 136.52,242.88C136.81,242.2 137.11,241.54 137.42,240.91C137.71,240.32 138.02,239.76 138.33,239.23C138.62,238.74 138.91,238.28 139.23,237.86C139.52,237.48 139.82,237.12 140.14,236.82C140.43,236.55 140.73,236.3 141.04,236.11C141.33,235.93 141.64,235.78 141.95,235.71C142.24,235.64 142.55,235.61 142.85,235.66C143.16,235.71 143.46,235.84 143.75,236.01C144.07,236.2 144.37,236.47 144.66,236.77C144.98,237.11 145.27,237.53 145.56,237.98C145.88,238.48 146.18,239.05 146.47,239.64C146.79,240.29 147.08,240.98 147.37,241.71C147.68,242.49 147.98,243.33 148.27,244.18C148.58,245.08 148.88,246.02 149.18,246.98C149.49,247.98 149.78,249.01 150.08,250.06C150.39,251.14 150.69,252.25 150.99,253.36C151.29,254.47 151.59,255.61 151.89,256.72C152.19,257.81 152.48,258.89 152.79,259.94C153.09,260.95 153.38,261.99 153.7,262.92C153.99,263.76 154.28,264.57 154.6,265.29C154.88,265.92 155.18,266.51 155.51,267.02C155.79,267.46 156.08,267.88 156.41,268.19C156.69,268.45 157,268.69 157.32,268.8C157.61,268.9 157.93,268.94 158.22,268.89C158.53,268.83 158.83,268.64 159.12,268.44C159.44,268.22 159.73,267.9 160.03,267.6C160.34,267.29 160.63,266.94 160.93,266.61C161.23,266.29 161.56,266.02 161.84,265.65C162.16,265.23 162.44,264.67 162.74,264.19C163.04,263.72 163.33,263.23 163.64,262.8C163.93,262.4 164.23,262.03 164.55,261.7C164.84,261.4 165.14,261.12 165.45,260.91C165.74,260.71 166.05,260.55 166.36,260.44C166.65,260.34 166.96,260.27 167.26,260.25C167.56,260.23 167.86,260.25 168.16,260.29C168.46,260.33 168.77,260.41 169.07,260.48C169.37,260.55 169.67,260.65 169.97,260.72C170.27,260.78 170.58,260.87 170.88,260.87C171.18,260.87 171.49,260.84 171.78,260.75C172.09,260.65 172.39,260.48 172.68,260.28C173,260.06 173.3,259.78 173.59,259.47C173.91,259.14 174.2,258.75 174.49,258.35C174.8,257.92 175.11,257.46 175.4,256.98C175.71,256.48 176,255.95 176.3,255.41C176.61,254.85 176.93,254.32 177.21,253.67C177.54,252.91 177.82,252 178.11,251.13C178.42,250.23 178.71,249.32 179.01,248.38C179.32,247.41 179.63,246.44 179.92,245.4C180.23,244.29 180.53,243.13 180.82,241.91C181.14,240.57 181.43,239.11 181.73,237.69C182.04,236.23 182.33,234.74 182.63,233.27C182.93,231.82 183.23,230.37 183.53,228.93C183.83,227.52 184.14,226.11 184.44,224.72C184.74,223.35 185.04,222 185.34,220.66C185.64,219.35 185.94,218.04 186.25,216.76C186.55,215.51 186.85,214.27 187.15,213.05C187.45,211.86 187.74,210.69 188.05,209.54C188.35,208.43 188.65,207.33 188.96,206.26C189.26,205.23 189.55,204.22 189.86,203.24C190.16,202.3 190.46,201.38 190.77,200.48C191.07,199.62 191.36,198.78 191.67,197.97C191.97,197.19 192.27,196.42 192.58,195.68C192.88,194.96 193.17,194.25 193.48,193.58C193.77,192.94 194.06,192.31 194.38,191.74C194.67,191.23 194.96,190.72 195.29,190.32C195.57,189.98 195.86,189.64 196.19,189.45C196.47,189.29 196.8,189.18 197.1,189.2C197.41,189.22 197.72,189.4 198,189.61C198.33,189.86 198.62,190.26 198.9,190.68C199.23,191.17 199.53,191.78 199.81,192.41C200.14,193.14 200.42,193.95 200.71,194.81C201.03,195.77 201.33,196.82 201.62,197.9C201.94,199.09 202.23,200.35 202.52,201.66C202.83,203.07 203.13,204.56 203.42,206.09C203.73,207.72 204.04,209.41 204.33,211.14C204.64,212.97 204.93,214.86 205.23,216.78C205.54,218.79 205.84,220.86 206.14,222.94C206.45,225.08 206.74,227.3 207.04,229.45C207.34,231.55 207.64,233.64 207.95,235.69C208.25,237.67 208.55,239.58 208.85,241.55C209.15,243.54 209.45,245.55 209.75,247.57C210.05,249.62 210.36,251.7 210.66,253.77C210.96,255.85 211.26,257.96 211.56,260.04C211.86,262.1 212.16,264.17 212.47,266.18C212.77,268.12 213.06,270.07 213.37,271.9C213.66,273.59 213.95,275.25 214.27,276.75C214.55,278.07 214.84,279.36 215.18,280.44C215.46,281.31 215.71,282.19 216.08,282.75C216.35,283.16 216.66,283.58 216.99,283.65C217.27,283.71 217.62,283.54 217.89,283.32C218.25,283.02 218.52,282.4 218.79,281.78C219.15,280.94 219.42,279.81 219.7,278.66C220.04,277.26 220.3,275.54 220.6,273.95C220.91,272.32 221.21,270.65 221.51,268.99C221.81,267.33 222.11,265.66 222.41,264C222.71,262.35 223.02,260.7 223.32,259.07C223.62,257.45 223.92,255.85 224.22,254.25C224.52,252.66 224.82,251.07 225.12,249.5C225.42,247.95 225.72,246.39 226.03,244.87C226.33,243.38 226.62,241.9 226.93,240.46C227.23,239.08 227.53,237.73 227.84,236.42C228.13,235.18 228.43,233.97 228.74,232.81C229.03,231.72 229.33,230.67 229.64,229.66C229.93,228.72 230.24,227.81 230.55,226.94C230.84,226.11 231.14,225.33 231.45,224.55C231.75,223.78 232.06,223.04 232.36,222.29C232.66,221.55 232.96,220.83 233.26,220.1C233.56,219.37 233.87,218.67 234.16,217.89C234.48,217.03 234.78,216.11 235.07,215.13C235.39,214.04 235.67,212.84 235.97,211.65C236.28,210.41 236.58,209.13 236.88,207.83C237.19,206.47 237.49,205.08 237.78,203.66C238.09,202.18 238.39,200.66 238.68,199.1C238.99,197.46 239.3,195.79 239.59,194.05C239.9,192.2 240.2,190.27 240.49,188.3C240.8,186.21 241.11,184.09 241.4,181.85C241.72,179.42 242,176.82 242.3,174.23C242.61,171.54 242.91,168.74 243.21,165.98C243.51,163.21 243.81,160.42 244.11,157.64C244.41,154.86 244.71,152.08 245.01,149.31C245.31,146.56 245.62,143.81 245.92,141.07C246.22,138.35 246.52,135.63 246.82,132.92C247.12,130.23 247.43,127.55 247.73,124.88C248.03,122.22 248.33,119.57 248.63,116.92C248.93,114.29 249.23,111.66 249.53,109.05C249.83,106.46 250.14,103.88 250.44,101.32C250.74,98.79 251.04,96.26 251.34,93.76C251.64,91.31 251.94,88.87 252.25,86.47C252.55,84.13 252.84,81.82 253.15,79.55C253.45,77.36 253.74,75.19 254.05,73.09C254.35,71.08 254.65,69.1 254.96,67.18C255.25,65.36 255.55,63.57 255.86,61.85C256.15,60.22 256.46,58.64 256.77,57.12C257.06,55.69 257.36,54.3 257.67,52.96C257.96,51.7 258.27,50.49 258.58,49.32C258.87,48.23 259.17,47.16 259.48,46.16C259.77,45.24 260.06,44.34 260.38,43.52C260.67,42.78 260.96,42.07 261.29,41.46C261.57,40.94 261.85,40.43 262.19,40.06C262.47,39.76 262.78,39.46 263.1,39.36C263.39,39.27 263.72,39.3 264,39.42C264.33,39.56 264.62,39.91 264.9,40.26C265.24,40.7 265.53,41.3 265.81,41.92C266.14,42.65 266.43,43.51 266.71,44.4C267.03,45.42 267.33,46.54 267.62,47.71C267.94,49.01 268.23,50.4 268.52,51.85C268.83,53.43 269.13,55.11 269.42,56.84C269.73,58.71 270.04,60.67 270.33,62.68C270.64,64.83 270.94,67.07 271.23,69.36C271.54,71.79 271.85,74.3 272.14,76.86C272.45,79.55 272.74,82.32 273.04,85.13C273.35,88.06 273.65,91.06 273.95,94.1C274.26,97.24 274.55,100.44 274.85,103.68C275.15,107 275.45,110.38 275.75,113.77C276.05,117.22 276.36,120.71 276.66,124.21C276.96,127.73 277.26,131.29 277.56,134.83C277.86,138.36 278.17,141.91 278.47,145.42C278.77,148.88 279.07,152.34 279.37,155.72C279.67,159.01 279.96,162.29 280.27,165.45C280.56,168.46 280.86,171.45 281.18,174.25C281.47,176.82 281.76,179.33 282.08,181.63C282.37,183.66 282.63,185.73 282.99,187.35C283.26,188.57 283.41,190.24 283.89,190.53C284.14,190.68 284.52,190.54 284.79,190.35C285.16,190.1 285.42,189.45 285.7,188.88C286.04,188.16 286.31,187.25 286.6,186.34C286.92,185.32 287.22,184.18 287.51,183.05C287.82,181.86 288.11,180.61 288.41,179.38C288.71,178.15 289.01,176.89 289.32,175.68C289.62,174.51 289.91,173.35 290.22,172.25C290.51,171.23 290.8,170.22 291.12,169.31C291.41,168.49 291.7,167.7 292.03,167.02C292.31,166.45 292.59,165.87 292.93,165.49C293.2,165.19 293.52,164.88 293.84,164.82C294.13,164.76 294.47,164.86 294.74,165.04C295.08,165.26 295.37,165.72 295.64,166.18C295.98,166.75 296.27,167.48 296.55,168.24C296.88,169.13 297.16,170.14 297.45,171.19C297.77,172.37 298.07,173.64 298.36,174.96C298.68,176.4 298.97,177.93 299.26,179.49C299.57,181.15 299.86,182.89 300.16,184.65C300.47,186.48 300.77,188.39 301.07,190.27C301.37,192.17 301.66,194.15 301.97,196.01C302.26,197.78 302.55,199.6 302.88,201.17C303.16,202.51 303.43,203.82 303.78,204.86C304.05,205.66 304.31,206.44 304.68,206.92C304.95,207.27 305.27,207.58 305.59,207.65C305.88,207.71 306.21,207.6 306.49,207.44C306.82,207.25 307.12,206.85 307.4,206.48C307.73,206.05 308.02,205.55 308.3,204.98C308.64,204.29 308.93,203.47 309.21,202.58C309.54,201.52 309.81,200.22 310.11,199.04C310.41,197.86 310.71,196.67 311.01,195.49C311.31,194.33 311.61,193.16 311.92,192.03C312.22,190.93 312.51,189.83 312.82,188.78C313.11,187.78 313.42,186.79 313.73,185.85C314.02,184.97 314.31,184.11 314.63,183.32C314.92,182.6 315.21,181.9 315.53,181.29C315.82,180.74 316.11,180.22 316.44,179.8C316.72,179.44 317.01,179.1 317.34,178.9C317.62,178.73 317.95,178.61 318.25,178.62C318.55,178.63 318.87,178.76 319.15,178.95C319.48,179.17 319.77,179.53 320.05,179.91C320.38,180.36 320.68,180.91 320.96,181.49C321.28,182.15 321.57,182.9 321.86,183.67C322.18,184.53 322.48,185.46 322.77,186.42C323.09,187.47 323.38,188.59 323.67,189.73C323.98,190.95 324.29,192.23 324.58,193.54C324.89,194.92 325.19,196.35 325.48,197.8C325.79,199.32 326.08,200.88 326.38,202.47C326.69,204.11 326.99,205.79 327.29,207.49C327.6,209.23 327.89,211.01 328.19,212.79C328.49,214.61 328.8,216.46 329.1,218.31C329.4,220.19 329.7,222.1 330,224C330.3,225.92 330.6,227.85 330.9,229.77C331.2,231.68 331.51,233.61 331.81,235.5C332.11,237.36 332.4,239.23 332.71,241.04C333.01,242.78 333.3,244.53 333.62,246.16C333.91,247.66 334.2,249.12 334.52,250.47C334.81,251.69 335.09,252.89 335.42,253.92C335.7,254.79 335.98,255.64 336.33,256.29C336.6,256.79 336.9,257.21 337.23,257.54C337.51,257.82 337.82,258.03 338.14,258.18C338.43,258.31 338.74,258.38 339.04,258.41C339.34,258.44 339.65,258.41 339.95,258.39C340.25,258.37 340.55,258.33 340.85,258.28C341.15,258.23 341.45,258.17 341.75,258.1C342.05,258.03 342.36,257.91 342.66,257.86C342.96,257.81 343.26,257.77 343.56,257.78C343.86,257.79 344.17,257.85 344.47,257.94C344.78,258.04 345.08,258.18 345.37,258.36C345.68,258.55 345.98,258.79 346.27,259.05C346.58,259.33 346.89,259.67 347.18,260.02C347.49,260.4 347.79,260.81 348.08,261.25C348.39,261.71 348.69,262.22 348.99,262.73C349.3,263.26 349.59,263.82 349.89,264.39C350.2,264.98 350.49,265.59 350.79,266.2C351.1,266.83 351.4,267.48 351.7,268.13C352,268.79 352.3,269.47 352.6,270.14C352.9,270.82 353.21,271.49 353.51,272.17C353.81,272.84 354.11,273.52 354.41,274.18C354.71,274.84 355.02,275.49 355.32,276.14C355.62,276.78 355.92,277.41 356.22,278.04C356.52,278.66 356.82,279.28 357.12,279.89C357.42,280.5 357.72,281.1 358.03,281.69C358.33,282.26 358.62,282.83 358.93,283.36C359.22,283.86 359.52,284.35 359.84,284.79C360.13,285.19 360.42,285.58 360.74,285.88C361.02,286.14 361.32,286.41 361.64,286.5C361.93,286.58 362.28,286.59 362.55,286.44C362.91,286.24 363.17,285.65 363.45,285.14C363.79,284.52 364.08,283.76 364.36,282.94C364.69,281.96 364.97,280.79 365.26,279.65C365.57,278.43 365.86,277.13 366.16,275.84C366.47,274.51 366.77,273.14 367.07,271.78C367.37,270.4 367.67,269 367.97,267.62C368.27,266.25 368.58,264.87 368.88,263.51C369.18,262.17 369.48,260.84 369.78,259.54C370.08,258.28 370.37,257.03 370.68,255.82C370.98,254.66 371.28,253.52 371.59,252.42C371.88,251.38 372.18,250.36 372.49,249.4C372.78,248.5 373.08,247.64 373.4,246.83C373.69,246.09 373.98,245.37 374.3,244.73C374.59,244.16 374.88,243.62 375.21,243.16C375.49,242.76 375.78,242.38 376.11,242.12C376.39,241.89 376.7,241.69 377.01,241.63C377.3,241.57 377.63,241.6 377.92,241.71C378.24,241.83 378.54,242.07 378.82,242.34C379.15,242.65 379.44,243.07 379.73,243.51C380.05,244 380.34,244.56 380.63,245.15C380.95,245.79 381.24,246.5 381.53,247.22C381.84,248 382.15,248.82 382.44,249.66C382.75,250.55 383.04,251.48 383.34,252.41C383.65,253.37 383.95,254.38 384.25,255.36C384.55,256.33 384.84,257.32 385.15,258.26C385.44,259.17 385.74,260.06 386.05,260.93C386.35,261.76 386.65,262.58 386.96,263.37C387.25,264.12 387.54,264.87 387.86,265.54C388.15,266.14 388.41,266.83 388.77,267.2C389.04,267.47 389.36,267.64 389.67,267.71C389.96,267.77 390.28,267.69 390.58,267.62C390.89,267.55 391.18,267.42 391.48,267.3C391.78,267.17 392.08,267.03 392.38,266.86C392.69,266.68 393,266.5 393.29,266.26C393.6,266 393.91,265.72 394.19,265.35C394.53,264.9 394.8,264.27 395.1,263.72C395.4,263.16 395.7,262.58 396,262.01C396.3,261.45 396.59,260.88 396.9,260.34C397.2,259.83 397.5,259.32 397.81,258.86C398.1,258.44 398.39,258.03 398.71,257.68C399,257.36 399.3,257.07 399.62,256.84C399.91,256.63 400.21,256.47 400.52,256.35C400.81,256.24 401.12,256.19 401.42,256.15C401.72,256.11 402.03,256.1 402.33,256.12C402.63,256.14 402.93,256.2 403.23,256.27C403.53,256.34 403.84,256.44 404.14,256.54C404.44,256.64 404.74,256.74 405.04,256.85C405.34,256.96 405.64,257.1 405.95,257.18C406.25,257.26 406.55,257.35 406.85,257.33C407.15,257.31 407.45,257.15 407.75,257.06C408.05,256.97 408.35,256.86 408.66,256.81C408.96,256.76 409.26,256.74 409.56,256.77C409.86,256.8 410.17,256.88 410.47,256.99C410.78,257.1 411.08,257.23 411.37,257.42C411.69,257.63 411.98,257.93 412.27,258.25C412.59,258.61 412.89,259.05 413.18,259.5C413.5,260 413.79,260.56 414.08,261.12C414.39,261.71 414.69,262.35 414.99,262.98C415.29,263.61 415.59,264.26 415.89,264.89C416.19,265.51 416.49,266.11 416.79,266.73C417.09,267.36 417.39,268.02 417.7,268.64C418,269.24 418.29,269.84 418.6,270.39C418.89,270.9 419.21,271.33 419.51,271.81C419.81,272.3 420.11,272.8 420.41,273.3C420.71,273.8 421.01,274.31 421.32,274.8C421.62,275.28 421.91,275.77 422.22,276.21C422.51,276.62 422.79,277.06 423.12,277.37C423.4,277.64 423.71,277.91 424.03,277.99C424.32,278.06 424.64,277.98 424.93,277.87C425.25,277.75 425.54,277.49 425.84,277.26C426.15,277.02 426.44,276.74 426.74,276.47C427.04,276.19 427.34,275.89 427.64,275.59C427.94,275.29 428.25,274.98 428.55,274.67C428.85,274.36 429.15,274.03 429.45,273.71C429.75,273.39 430.05,273.07 430.36,272.77C430.66,272.47 430.96,272.18 431.26,271.9C431.56,271.63 431.85,271.38 432.16,271.14C432.46,270.91 432.77,270.71 433.07,270.5C433.37,270.3 433.68,270.14 433.97,269.92C434.28,269.69 434.57,269.4 434.88,269.16C435.18,268.93 435.47,268.69 435.78,268.49C436.07,268.3 436.37,268.13 436.68,267.98C436.98,267.84 437.29,267.73 437.59,267.62C437.89,267.51 438.19,267.45 438.49,267.34C438.79,267.23 439.1,267.08 439.4,266.97C439.7,266.86 440,266.73 440.3,266.67C440.6,266.61 440.91,266.58 441.21,266.6C441.51,266.62 441.81,266.7 442.11,266.79C442.41,266.89 442.7,267.13 443.01,267.18C443.31,267.23 443.63,267.21 443.92,267.11C444.24,267 444.51,266.68 444.82,266.51C445.12,266.35 445.42,266.21 445.73,266.11C446.03,266.02 446.33,265.95 446.63,265.93C446.93,265.91 447.23,265.93 447.53,265.98C447.84,266.03 448.14,266.13 448.44,266.24C448.75,266.35 449.04,266.51 449.34,266.66C449.64,266.81 449.95,266.96 450.25,267.12C450.55,267.28 450.85,267.43 451.15,267.6C451.45,267.77 451.75,267.95 452.05,268.15C452.36,268.36 452.67,268.6 452.96,268.86C453.27,269.14 453.57,269.46 453.86,269.8C454.17,270.17 454.48,270.57 454.77,270.99C455.08,271.44 455.38,271.93 455.67,272.43C455.98,272.96 456.28,273.53 456.58,274.11C456.89,274.72 457.18,275.35 457.48,275.99C457.78,276.65 458.08,277.33 458.38,278.01C458.68,278.7 458.99,279.41 459.29,280.1C459.59,280.78 459.88,281.48 460.19,282.14C460.49,282.78 460.79,283.43 461.1,284.03Q461.39,284.59 462,285.61" style="vector-effect: non-scaling-stroke; fill: none; stroke: rgb(0, 176, 246); stroke-opacity: 1; stroke-width: 2px; opacity: 1;"/></g><g class="points"/><g class="text"/></g><g class="trace scatter trace50f4e5" style="stroke-miterlimit: 2; opacity: 1;"><g class="fills"/><g class="errorbars"/><g class="lines"><path class="js-line" d="M0,163.34Q0.64,161.59 0.9,160.42C1.28,158.76 1.52,156.43 1.81,154.25C2.13,151.79 2.42,149.09 2.71,146.38C3.02,143.48 3.32,140.45 3.62,137.39C3.93,134.21 4.22,130.95 4.52,127.67C4.82,124.32 5.12,120.9 5.42,117.49C5.72,114.05 6.03,110.57 6.33,107.11C6.63,103.65 6.93,100.17 7.23,96.72C7.53,93.3 7.84,89.87 8.14,86.49C8.44,83.16 8.73,79.84 9.04,76.57C9.34,73.38 9.64,70.21 9.95,67.1C10.25,64.08 10.54,61.09 10.85,58.18C11.14,55.38 11.44,52.61 11.75,49.93C12.04,47.37 12.35,44.86 12.66,42.43C12.95,40.14 13.25,37.9 13.56,35.76C13.85,33.76 14.15,31.82 14.47,29.98C14.76,28.3 15.05,26.66 15.37,25.15C15.66,23.79 15.94,22.49 16.27,21.31C16.55,20.29 16.84,19.31 17.18,18.49C17.46,17.82 17.72,17.14 18.08,16.71C18.35,16.38 18.67,16.05 18.99,16C19.28,15.96 19.62,16.13 19.89,16.35C20.24,16.64 20.52,17.22 20.79,17.77C21.13,18.46 21.42,19.32 21.7,20.22C22.03,21.27 22.31,22.46 22.6,23.7C22.92,25.09 23.22,26.6 23.51,28.16C23.83,29.87 24.12,31.68 24.41,33.55C24.72,35.56 25.03,37.67 25.32,39.82C25.63,42.1 25.93,44.47 26.22,46.88C26.53,49.41 26.82,52.02 27.12,54.66C27.43,57.4 27.73,60.21 28.03,63.04C28.34,65.96 28.63,68.93 28.93,71.92C29.23,74.97 29.54,78.07 29.84,81.17C30.14,84.31 30.44,87.49 30.74,90.66C31.04,93.84 31.34,97.04 31.64,100.22C31.94,103.38 32.25,106.56 32.55,109.69C32.85,112.76 33.14,115.81 33.45,118.8C33.75,121.69 34.05,124.55 34.36,127.32C34.65,129.96 34.95,132.55 35.26,135.05C35.55,137.41 35.85,139.71 36.16,141.93C36.45,144.02 36.76,146.04 37.07,147.99C37.36,149.81 37.66,151.58 37.97,153.28C38.26,154.87 38.57,156.4 38.88,157.87C39.17,159.23 39.47,160.55 39.78,161.8C40.07,162.94 40.37,164.03 40.68,165.07C40.97,166.04 41.28,166.95 41.59,167.86C41.89,168.73 42.19,169.57 42.49,170.41C42.79,171.25 43.1,172.07 43.4,172.9C43.7,173.74 44,174.57 44.3,175.42C44.6,176.28 44.91,177.14 45.21,178.01C45.51,178.89 45.81,179.77 46.11,180.66C46.41,181.56 46.71,182.47 47.01,183.37C47.31,184.28 47.62,185.19 47.92,186.1C48.22,187 48.52,187.91 48.82,188.81C49.12,189.71 49.43,190.6 49.73,191.49C50.03,192.37 50.33,193.25 50.63,194.12C50.93,194.98 51.23,195.83 51.53,196.68C51.83,197.52 52.14,198.36 52.44,199.2C52.74,200.04 53.04,200.87 53.34,201.71C53.64,202.56 53.95,203.41 54.25,204.28C54.55,205.17 54.85,206.06 55.15,206.97C55.45,207.91 55.75,208.86 56.05,209.84C56.36,210.86 56.66,211.9 56.96,212.96C57.27,214.07 57.56,215.2 57.86,216.36C58.17,217.57 58.47,218.81 58.77,220.07C59.08,221.38 59.37,222.73 59.67,224.1C59.98,225.52 60.28,226.96 60.58,228.43C60.89,229.94 61.18,231.48 61.48,233.03C61.78,234.61 62.08,236.22 62.38,237.83C62.68,239.45 62.99,241.1 63.29,242.73C63.59,244.36 63.89,246 64.19,247.62C64.49,249.21 64.79,250.8 65.1,252.35C65.4,253.86 65.69,255.35 66,256.8C66.29,258.18 66.59,259.54 66.9,260.85C67.19,262.09 67.49,263.31 67.81,264.45C68.1,265.5 68.38,266.54 68.71,267.45C68.99,268.24 69.3,268.95 69.62,269.62C69.91,270.23 70.21,270.76 70.52,271.31C70.81,271.84 71.12,272.34 71.42,272.85C71.72,273.35 72.03,273.85 72.33,274.34C72.63,274.82 72.93,275.31 73.23,275.78C73.53,276.24 73.83,276.71 74.14,277.14C74.43,277.55 74.73,277.97 75.04,278.33C75.33,278.67 75.63,279.01 75.95,279.27C76.24,279.5 76.54,279.73 76.85,279.82C77.14,279.9 77.46,279.92 77.75,279.84C78.07,279.75 78.38,279.51 78.66,279.25C78.99,278.95 79.27,278.54 79.56,278.12C79.88,277.65 80.18,277.09 80.47,276.53C80.78,275.92 81.08,275.26 81.37,274.58C81.68,273.84 81.98,273.06 82.27,272.26C82.58,271.42 82.88,270.54 83.18,269.66C83.49,268.75 83.78,267.81 84.08,266.87C84.38,265.92 84.69,264.96 84.99,264C85.29,263.04 85.59,262.07 85.89,261.11C86.19,260.15 86.49,259.19 86.79,258.24C87.09,257.3 87.4,256.36 87.7,255.42C88,254.49 88.31,253.59 88.6,252.63C88.91,251.61 89.21,250.52 89.51,249.47C89.81,248.44 90.1,247.39 90.41,246.39C90.71,245.42 91.01,244.47 91.32,243.55C91.62,242.67 91.91,241.81 92.22,240.98C92.51,240.2 92.81,239.43 93.12,238.71C93.41,238.03 93.72,237.37 94.03,236.76C94.32,236.2 94.61,235.66 94.93,235.17C95.22,234.72 95.52,234.3 95.84,233.94C96.13,233.62 96.42,233.32 96.74,233.09C97.03,232.89 97.33,232.71 97.64,232.62C97.93,232.54 98.25,232.51 98.55,232.55C98.85,232.59 99.16,232.71 99.45,232.86C99.77,233.03 100.07,233.28 100.36,233.55C100.68,233.85 100.97,234.22 101.26,234.6C101.57,235.02 101.87,235.49 102.16,235.97C102.47,236.48 102.77,237.04 103.07,237.6C103.38,238.19 103.67,238.8 103.97,239.42C104.28,240.05 104.58,240.7 104.88,241.35C105.19,242.02 105.48,242.7 105.78,243.39C106.08,244.1 106.38,244.82 106.68,245.56C106.99,246.32 107.29,247.11 107.59,247.9C107.9,248.72 108.19,249.55 108.49,250.39C108.8,251.25 109.1,252.13 109.4,253.02C109.7,253.92 110,254.84 110.3,255.76C110.6,256.69 110.91,257.64 111.21,258.58C111.51,259.53 111.81,260.49 112.11,261.44C112.41,262.39 112.71,263.35 113.01,264.29C113.31,265.22 113.62,266.15 113.92,267.07C114.22,267.97 114.51,268.87 114.82,269.73C115.12,270.56 115.41,271.38 115.73,272.14C116.02,272.83 116.31,273.51 116.63,274.1C116.91,274.62 117.21,275.1 117.53,275.53C117.82,275.92 118.13,276.26 118.44,276.58C118.73,276.87 119.02,277.29 119.34,277.37C119.63,277.44 119.97,277.31 120.25,277.14C120.58,276.94 120.86,276.52 121.15,276.17C121.46,275.79 121.77,275.39 122.05,274.92C122.38,274.38 122.67,273.73 122.96,273.1C123.27,272.43 123.56,271.69 123.86,270.99C124.16,270.29 124.47,269.58 124.77,268.89C125.07,268.2 125.37,267.54 125.67,266.85C125.98,266.14 126.29,265.46 126.58,264.7C126.9,263.87 127.18,262.93 127.48,262.04C127.78,261.15 128.08,260.26 128.38,259.38C128.68,258.52 128.98,257.67 129.29,256.83C129.59,256.02 129.88,255.21 130.19,254.43C130.49,253.68 130.79,252.95 131.1,252.24C131.39,251.57 131.69,250.91 132,250.29C132.29,249.7 132.59,249.14 132.9,248.59C133.2,248.05 133.51,247.54 133.81,247C134.12,246.45 134.41,245.86 134.71,245.3C135.01,244.74 135.31,244.15 135.62,243.63C135.91,243.14 136.2,242.67 136.52,242.26C136.81,241.89 137.1,241.55 137.42,241.28C137.71,241.04 138.01,240.82 138.33,240.7C138.62,240.59 138.93,240.53 139.23,240.54C139.53,240.55 139.85,240.65 140.14,240.78C140.45,240.92 140.75,241.14 141.04,241.38C141.36,241.64 141.66,241.95 141.95,242.29C142.26,242.65 142.56,243.07 142.85,243.5C143.16,243.97 143.46,244.48 143.75,245.02C144.06,245.6 144.37,246.21 144.66,246.86C144.97,247.55 145.27,248.29 145.56,249.05C145.87,249.86 146.18,250.71 146.47,251.59C146.78,252.52 147.08,253.48 147.37,254.47C147.68,255.5 147.97,256.58 148.27,257.66C148.58,258.77 148.88,259.9 149.18,261.03C149.48,262.16 149.78,263.3 150.08,264.44C150.38,265.59 150.69,266.75 150.99,267.91C151.29,269.09 151.59,270.27 151.89,271.46C152.19,272.65 152.49,273.85 152.79,275.05C153.09,276.24 153.4,277.45 153.7,278.63C154,279.79 154.29,280.97 154.6,282.06C154.89,283.07 155.11,284.28 155.51,284.96C155.77,285.41 156.08,285.85 156.41,285.92C156.69,285.98 157.03,285.72 157.32,285.53C157.64,285.32 157.93,285 158.22,284.69C158.53,284.35 158.82,283.96 159.12,283.57C159.43,283.17 159.73,282.73 160.03,282.31C160.33,281.89 160.62,281.47 160.93,281.06C161.23,280.66 161.53,280.28 161.84,279.9C162.14,279.54 162.44,279.18 162.74,278.84C163.04,278.51 163.34,278.19 163.64,277.87C163.94,277.54 164.25,277.23 164.55,276.89C164.86,276.54 165.16,276.2 165.45,275.82C165.76,275.42 166.07,275.01 166.36,274.57C166.67,274.11 166.96,273.6 167.26,273.1C167.56,272.58 167.86,272.04 168.16,271.5C168.46,270.95 168.77,270.39 169.07,269.83C169.37,269.27 169.67,268.7 169.97,268.14C170.27,267.59 170.57,267.03 170.88,266.49C171.18,265.97 171.47,265.45 171.78,264.97C172.07,264.52 172.37,264.08 172.68,263.68C172.97,263.31 173.28,262.96 173.59,262.65C173.88,262.36 174.18,262.1 174.49,261.87C174.78,261.65 175.09,261.46 175.4,261.3C175.7,261.14 176,261.02 176.3,260.91C176.6,260.8 176.91,260.71 177.21,260.63C177.51,260.55 177.81,260.5 178.11,260.44C178.41,260.38 178.71,260.34 179.01,260.29C179.31,260.24 179.63,260.28 179.92,260.15C180.24,260 180.55,259.73 180.82,259.39C181.17,258.96 181.44,258.27 181.73,257.67C182.04,257.04 182.34,256.39 182.63,255.71C182.94,254.98 183.24,254.22 183.53,253.43C183.84,252.6 184.14,251.73 184.44,250.85C184.75,249.93 185.04,248.97 185.34,248C185.65,246.99 185.95,245.96 186.25,244.92C186.56,243.85 186.85,242.77 187.15,241.68C187.45,240.57 187.75,239.43 188.05,238.3C188.35,237.16 188.66,236 188.96,234.85C189.26,233.7 189.56,232.55 189.86,231.4C190.16,230.26 190.47,229.12 190.77,228C191.07,226.9 191.36,225.8 191.67,224.73C191.97,223.69 192.27,222.65 192.58,221.65C192.88,220.69 193.17,219.75 193.48,218.84C193.77,217.98 194.07,217.14 194.38,216.35C194.67,215.62 194.97,214.9 195.29,214.25C195.58,213.65 195.87,213.08 196.19,212.58C196.48,212.14 196.77,211.71 197.1,211.39C197.38,211.11 197.68,210.85 198,210.73C198.29,210.62 198.61,210.58 198.9,210.63C199.21,210.69 199.53,210.87 199.81,211.1C200.14,211.36 200.43,211.76 200.71,212.17C201.04,212.65 201.33,213.24 201.62,213.85C201.94,214.54 202.23,215.32 202.52,216.13C202.84,217.02 203.13,217.99 203.42,218.99C203.74,220.08 204.04,221.23 204.33,222.42C204.64,223.69 204.94,225.02 205.23,226.39C205.54,227.84 205.85,229.34 206.14,230.88C206.45,232.5 206.74,234.17 207.04,235.87C207.35,237.65 207.65,239.49 207.95,241.35C208.26,243.28 208.55,245.27 208.85,247.27C209.15,249.34 209.45,251.45 209.75,253.57C210.05,255.74 210.36,257.96 210.66,260.15C210.96,262.34 211.25,264.62 211.56,266.72C211.85,268.66 212.16,270.49 212.47,272.31C212.77,274.06 213.07,275.74 213.37,277.45C213.67,279.14 213.96,280.84 214.27,282.5C214.57,284.11 214.87,285.71 215.18,287.27C215.48,288.77 215.77,290.26 216.08,291.68C216.37,293 216.66,294.36 216.99,295.51C217.27,296.49 217.49,297.6 217.89,298.18C218.15,298.55 218.52,298.96 218.79,298.9C219.14,298.83 219.43,297.91 219.7,297.22C220.08,296.23 220.33,294.87 220.6,293.45C220.95,291.63 221.23,289.44 221.51,287.19C221.84,284.56 222.11,281.52 222.41,278.63C222.72,275.68 223.02,272.66 223.32,269.67C223.62,266.67 223.92,263.64 224.22,260.65C224.52,257.69 224.82,254.73 225.12,251.81C225.42,248.95 225.72,246.1 226.03,243.31C226.33,240.59 226.62,237.91 226.93,235.28C227.23,232.75 227.53,230.25 227.84,227.82C228.14,225.49 228.43,223.2 228.74,220.98C229.03,218.88 229.33,216.82 229.64,214.84C229.93,212.97 230.24,211.15 230.55,209.4C230.84,207.77 231.14,206.19 231.45,204.69C231.74,203.3 232.04,201.96 232.36,200.7C232.65,199.55 232.94,198.44 233.26,197.41C233.55,196.48 233.84,195.6 234.16,194.79C234.45,194.07 234.75,193.38 235.07,192.78C235.35,192.25 235.64,191.75 235.97,191.34C236.25,190.99 236.55,190.66 236.88,190.44C237.16,190.25 237.48,190.1 237.78,190.07C238.08,190.04 238.39,190.11 238.68,190.24C239,190.39 239.31,190.66 239.59,190.96C239.92,191.31 240.21,191.76 240.49,192.23C240.81,192.76 241.11,193.37 241.4,194.01C241.72,194.71 242.01,195.48 242.3,196.26C242.61,197.1 242.91,197.98 243.21,198.88C243.52,199.82 243.81,200.81 244.11,201.77C244.41,202.74 244.68,203.81 245.01,204.67C245.29,205.38 245.6,206.01 245.92,206.58C246.2,207.08 246.5,207.53 246.82,207.93C247.11,208.3 247.4,208.71 247.73,208.92C248.01,209.1 248.34,209.25 248.63,209.2C248.94,209.15 249.26,208.85 249.53,208.54C249.88,208.13 250.16,207.5 250.44,206.85C250.78,206.06 251.06,205.09 251.34,204.1C251.67,202.95 251.96,201.67 252.25,200.36C252.57,198.93 252.86,197.39 253.15,195.84C253.46,194.2 253.75,192.5 254.05,190.79C254.36,189.04 254.66,187.24 254.96,185.46C255.26,183.67 255.56,181.86 255.86,180.08C256.16,178.31 256.47,176.54 256.77,174.8C257.07,173.09 257.36,171.39 257.67,169.73C257.97,168.11 258.27,166.52 258.58,164.96C258.88,163.45 259.17,161.96 259.48,160.51C259.77,159.11 260.07,157.73 260.38,156.39C260.68,155.1 260.98,153.84 261.29,152.61C261.58,151.44 261.88,150.3 262.19,149.2C262.48,148.17 262.79,147.16 263.1,146.21C263.39,145.33 263.68,144.48 264,143.7C264.29,143 264.58,142.33 264.9,141.74C265.18,141.23 265.48,140.74 265.81,140.35C266.09,140.02 266.39,139.71 266.71,139.53C266.99,139.37 267.32,139.28 267.62,139.29C267.92,139.3 268.24,139.43 268.52,139.6C268.84,139.8 269.14,140.13 269.42,140.48C269.75,140.89 270.05,141.42 270.33,141.97C270.66,142.6 270.94,143.32 271.23,144.08C271.55,144.93 271.85,145.85 272.14,146.82C272.46,147.88 272.75,149.02 273.04,150.19C273.35,151.46 273.66,152.8 273.95,154.17C274.26,155.63 274.56,157.14 274.85,158.69C275.16,160.31 275.45,161.99 275.75,163.68C276.06,165.43 276.36,167.23 276.66,169.03C276.96,170.87 277.26,172.75 277.56,174.62C277.86,176.5 278.17,178.4 278.47,180.27C278.77,182.12 279.06,183.97 279.37,185.77C279.66,187.5 279.94,189.29 280.27,190.85C280.55,192.19 280.74,193.8 281.18,194.58C281.43,195.03 281.78,195.47 282.08,195.47C282.38,195.47 282.73,195.03 282.99,194.62C283.39,193.99 283.62,192.88 283.89,191.83C284.23,190.51 284.51,188.92 284.79,187.3C285.11,185.46 285.41,183.42 285.7,181.36C286.01,179.14 286.3,176.78 286.6,174.41C286.91,171.93 287.21,169.37 287.51,166.81C287.82,164.19 288.11,161.52 288.41,158.87C288.71,156.2 289.02,153.5 289.32,150.83C289.62,148.18 289.92,145.52 290.22,142.9C290.52,140.32 290.81,137.74 291.12,135.21C291.42,132.73 291.72,130.28 292.03,127.87C292.33,125.53 292.62,123.22 292.93,120.97C293.23,118.8 293.53,116.66 293.84,114.58C294.14,112.59 294.43,110.64 294.74,108.75C295.03,106.96 295.33,105.21 295.64,103.53C295.93,101.95 296.24,100.42 296.55,98.95C296.84,97.59 297.13,96.27 297.45,95.03C297.74,93.89 298.04,92.8 298.36,91.79C298.65,90.88 298.94,90 299.26,89.21C299.54,88.51 299.84,87.85 300.16,87.27C300.44,86.76 300.75,86.29 301.07,85.89C301.36,85.53 301.65,85.2 301.97,84.94C302.26,84.7 302.57,84.51 302.88,84.37C303.17,84.24 303.48,84.18 303.78,84.13C304.08,84.08 304.38,84.04 304.68,84.05C304.98,84.06 305.3,84.09 305.59,84.2C305.9,84.32 306.21,84.54 306.49,84.8C306.82,85.1 307.12,85.5 307.4,85.92C307.73,86.41 308.01,86.98 308.3,87.58C308.62,88.24 308.92,88.98 309.21,89.73C309.52,90.54 309.82,91.41 310.11,92.3C310.42,93.24 310.71,94.23 311.01,95.22C311.32,96.25 311.62,97.32 311.92,98.39C312.23,99.49 312.52,100.61 312.82,101.72C313.12,102.84 313.43,103.97 313.73,105.1C314.03,106.22 314.33,107.35 314.63,108.47C314.93,109.58 315.23,110.68 315.53,111.78C315.83,112.87 316.14,113.95 316.44,115.03C316.74,116.1 317.04,117.17 317.34,118.23C317.64,119.29 317.95,120.34 318.25,121.39C318.55,122.44 318.85,123.48 319.15,124.53C319.45,125.58 319.75,126.62 320.05,127.67C320.35,128.72 320.66,129.78 320.96,130.84C321.26,131.91 321.56,132.99 321.86,134.08C322.16,135.19 322.47,136.3 322.77,137.43C323.07,138.58 323.37,139.75 323.67,140.93C323.98,142.14 324.28,143.37 324.58,144.62C324.89,145.91 325.18,147.22 325.48,148.55C325.78,149.92 326.08,151.32 326.38,152.74C326.69,154.21 326.99,155.71 327.29,157.23C327.6,158.8 327.89,160.4 328.19,162.02C328.5,163.69 328.8,165.39 329.1,167.11C329.41,168.88 329.7,170.67 330,172.48C330.3,174.34 330.6,176.23 330.9,178.13C331.2,180.06 331.51,182.02 331.81,183.98C332.11,185.96 332.41,187.96 332.71,189.95C333.01,191.93 333.32,193.91 333.62,195.88C333.92,197.83 334.22,199.76 334.52,201.71C334.82,203.67 335.12,205.62 335.42,207.59C335.72,209.58 336.03,211.58 336.33,213.6C336.63,215.65 336.93,217.71 337.23,219.79C337.53,221.89 337.84,224.01 338.14,226.13C338.44,228.27 338.74,230.43 339.04,232.58C339.34,234.73 339.65,236.87 339.95,239.01C340.25,241.14 340.55,243.27 340.85,245.4C341.15,247.52 341.45,249.64 341.75,251.75C342.05,253.84 342.36,255.93 342.66,257.99C342.96,260.01 343.25,262.02 343.56,263.98C343.86,265.88 344.16,267.75 344.47,269.57C344.77,271.32 345.06,273.03 345.37,274.69C345.66,276.28 345.96,277.83 346.27,279.34C346.56,280.78 346.87,282.19 347.18,283.55C347.47,284.83 347.76,286.09 348.08,287.27C348.37,288.35 348.67,289.4 348.99,290.36C349.28,291.22 349.57,292.04 349.89,292.76C350.17,293.39 350.44,294.05 350.79,294.47C351.06,294.79 351.38,294.99 351.7,295.16C351.99,295.31 352.3,295.4 352.6,295.47C352.9,295.54 353.21,295.59 353.51,295.6C353.81,295.61 354.11,295.6 354.41,295.53C354.72,295.46 355.02,295.33 355.32,295.19C355.63,295.05 355.92,294.86 356.22,294.67C356.52,294.48 356.82,294.27 357.12,294.05C357.43,293.83 357.73,293.59 358.03,293.35C358.33,293.1 358.63,292.84 358.93,292.57C359.24,292.29 359.54,292.01 359.84,291.71C360.15,291.4 360.46,291.12 360.74,290.73C361.07,290.26 361.35,289.65 361.64,289.05C361.96,288.39 362.25,287.63 362.55,286.91C362.85,286.18 363.15,285.43 363.45,284.68C363.75,283.92 364.06,283.15 364.36,282.38C364.66,281.6 364.96,280.82 365.26,280.03C365.56,279.23 365.86,278.44 366.16,277.61C366.47,276.75 366.77,275.88 367.07,274.98C367.38,274.05 367.67,273.08 367.97,272.12C368.27,271.15 368.58,270.17 368.88,269.19C369.18,268.21 369.48,267.22 369.78,266.24C370.08,265.25 370.38,264.26 370.68,263.28C370.98,262.3 371.29,261.33 371.59,260.36C371.89,259.4 372.19,258.44 372.49,257.5C372.79,256.57 373.1,255.64 373.4,254.73C373.7,253.83 373.99,252.94 374.3,252.07C374.6,251.21 374.9,250.37 375.21,249.54C375.51,248.73 375.81,247.94 376.11,247.16C376.41,246.4 376.7,245.65 377.01,244.92C377.31,244.2 377.62,243.5 377.92,242.81C378.22,242.13 378.52,241.46 378.82,240.79C379.12,240.13 379.43,239.48 379.73,238.84C380.03,238.21 380.32,237.57 380.63,236.97C380.92,236.39 381.22,235.82 381.53,235.28C381.82,234.77 382.13,234.28 382.44,233.83C382.73,233.41 383.02,233.01 383.34,232.66C383.63,232.34 383.93,232.04 384.25,231.8C384.54,231.58 384.84,231.4 385.15,231.28C385.44,231.17 385.75,231.11 386.05,231.11C386.35,231.11 386.67,231.19 386.96,231.31C387.27,231.44 387.57,231.65 387.86,231.89C388.18,232.15 388.48,232.49 388.77,232.85C389.09,233.24 389.38,233.7 389.67,234.17C389.99,234.69 390.29,235.25 390.58,235.84C390.89,236.46 391.19,237.13 391.48,237.81C391.79,238.53 392.09,239.27 392.38,240.04C392.69,240.84 392.99,241.67 393.29,242.52C393.6,243.41 393.89,244.32 394.19,245.25C394.5,246.23 394.8,247.24 395.1,248.26C395.41,249.32 395.7,250.41 396,251.51C396.31,252.65 396.6,253.82 396.9,255C397.21,256.21 397.51,257.44 397.81,258.68C398.11,259.94 398.41,261.23 398.71,262.51C399.01,263.81 399.32,265.12 399.62,266.42C399.92,267.72 400.22,269.03 400.52,270.32C400.82,271.58 401.11,272.84 401.42,274.06C401.72,275.22 402.01,276.39 402.33,277.46C402.62,278.43 402.9,279.39 403.23,280.22C403.51,280.93 403.8,281.61 404.14,282.14C404.42,282.57 404.71,282.97 405.04,283.23C405.32,283.45 405.64,283.61 405.95,283.69C406.24,283.76 406.55,283.74 406.85,283.7C407.15,283.66 407.45,283.55 407.75,283.43C408.06,283.31 408.36,283.14 408.66,282.96C408.97,282.77 409.26,282.56 409.56,282.33C409.87,282.09 410.18,281.85 410.47,281.57C410.78,281.28 411.08,280.96 411.37,280.61C411.68,280.24 411.97,279.82 412.27,279.42C412.57,279.01 412.87,278.58 413.18,278.18C413.48,277.79 413.77,277.41 414.08,277.05C414.38,276.71 414.68,276.38 414.99,276.09C415.28,275.82 415.58,275.56 415.89,275.34C416.18,275.13 416.48,274.94 416.79,274.78C417.09,274.62 417.39,274.49 417.7,274.38C418,274.27 418.3,274.2 418.6,274.12C418.9,274.05 419.21,273.98 419.51,273.93C419.81,273.88 420.11,273.84 420.41,273.82C420.71,273.8 421.02,273.79 421.32,273.81C421.62,273.83 421.92,273.87 422.22,273.94C422.52,274.02 422.83,274.13 423.12,274.27C423.43,274.42 423.74,274.61 424.03,274.83C424.34,275.06 424.64,275.33 424.93,275.63C425.24,275.95 425.55,276.31 425.84,276.69C426.15,277.1 426.45,277.54 426.74,278.01C427.05,278.51 427.35,279.04 427.64,279.59C427.95,280.17 428.25,280.78 428.55,281.41C428.86,282.07 429.15,282.75 429.45,283.45C429.76,284.17 430.06,284.92 430.36,285.68C430.67,286.46 430.96,287.25 431.26,288.05C431.56,288.86 431.86,289.68 432.16,290.5C432.46,291.33 432.77,292.16 433.07,292.99C433.37,293.81 433.67,294.63 433.97,295.43C434.27,296.21 434.57,297 434.88,297.75C435.18,298.48 435.47,299.2 435.78,299.88C436.07,300.52 436.36,301.15 436.68,301.72C436.97,302.24 437.26,302.75 437.59,303.15C437.87,303.49 438.16,303.88 438.49,304C438.77,304.11 439.12,304.08 439.4,303.96C439.73,303.82 440,303.38 440.3,303.07C440.61,302.75 440.91,302.38 441.21,302.05C441.51,301.73 441.8,301.4 442.11,301.1C442.4,300.81 442.7,300.54 443.01,300.28C443.31,300.03 443.61,299.79 443.92,299.57C444.22,299.35 444.52,299.15 444.82,298.96C445.12,298.77 445.43,298.6 445.73,298.43C446.03,298.26 446.33,298.1 446.63,297.95C446.93,297.8 447.23,297.65 447.53,297.51C447.83,297.37 448.14,297.23 448.44,297.09C448.74,296.95 449.04,296.81 449.34,296.68C449.64,296.55 449.95,296.42 450.25,296.29C450.55,296.17 450.85,296.04 451.15,295.93C451.45,295.82 451.75,295.72 452.05,295.64C452.35,295.56 452.66,295.5 452.96,295.45C453.26,295.41 453.56,295.37 453.86,295.37C454.16,295.37 454.47,295.4 454.77,295.44C455.07,295.49 455.37,295.55 455.67,295.64C455.98,295.73 456.28,295.84 456.58,295.97C456.88,296.1 457.18,296.25 457.48,296.41C457.78,296.57 458.08,296.75 458.38,296.93C458.68,297.11 458.99,297.31 459.29,297.5C459.59,297.69 459.89,297.88 460.19,298.05C460.49,298.22 460.79,298.39 461.1,298.53Q461.4,298.66 462,298.87" style="vector-effect: non-scaling-stroke; fill: none; stroke: rgb(231, 107, 243); stroke-opacity: 1; stroke-width: 2px; opacity: 1;"/></g><g class="points"/><g class="text"/></g></g></g><g class="overplot"/><path class="xlines-above crisp" d="M0,0" style="fill: none;"/><path class="ylines-above crisp" d="M0,0" style="fill: none;"/><g class="overlines-above"/><g class="xaxislayer-above"><g class="xtick"><text text-anchor="middle" x="0" y="433" transform="translate(80,0)" style="font-family: 'Open Sans', verdana, arial, sans-serif; font-size: 12px; fill: rgb(42, 63, 95); fill-opacity: 1; white-space: pre;">0</text></g><g class="xtick"><text text-anchor="middle" x="0" y="433" transform="translate(170.23000000000002,0)" style="font-family: 'Open Sans', verdana, arial, sans-serif; font-size: 12px; fill: rgb(42, 63, 95); fill-opacity: 1; white-space: pre;">100</text></g><g class="xtick"><text text-anchor="middle" x="0" y="433" transform="translate(260.47,0)" style="font-family: 'Open Sans', verdana, arial, sans-serif; font-size: 12px; fill: rgb(42, 63, 95); fill-opacity: 1; white-space: pre;">200</text></g><g class="xtick"><text text-anchor="middle" x="0" y="433" transform="translate(350.7,0)" style="font-family: 'Open Sans', verdana, arial, sans-serif; font-size: 12px; fill: rgb(42, 63, 95); fill-opacity: 1; white-space: pre;">300</text></g><g class="xtick"><text text-anchor="middle" x="0" y="433" transform="translate(440.94,0)" style="font-family: 'Open Sans', verdana, arial, sans-serif; font-size: 12px; fill: rgb(42, 63, 95); fill-opacity: 1; white-space: pre;">400</text></g><g class="xtick"><text text-anchor="middle" x="0" y="433" transform="translate(531.1700000000001,0)" style="font-family: 'Open Sans', verdana, arial, sans-serif; font-size: 12px; fill: rgb(42, 63, 95); fill-opacity: 1; white-space: pre;">500</text></g></g><g class="yaxislayer-above"><g class="ytick"><text text-anchor="end" x="79" y="4.199999999999999" transform="translate(0,391.23)" style="font-family: 'Open Sans', verdana, arial, sans-serif; font-size: 12px; fill: rgb(42, 63, 95); fill-opacity: 1; white-space: pre;">500</text></g><g class="ytick"><text text-anchor="end" x="79" y="4.199999999999999" transform="translate(0,327.11)" style="font-family: 'Open Sans', verdana, arial, sans-serif; font-size: 12px; fill: rgb(42, 63, 95); fill-opacity: 1; white-space: pre;">1000</text></g><g class="ytick"><text text-anchor="end" x="79" y="4.199999999999999" transform="translate(0,263)" style="font-family: 'Open Sans', verdana, arial, sans-serif; font-size: 12px; fill: rgb(42, 63, 95); fill-opacity: 1; white-space: pre;">1500</text></g><g class="ytick"><text text-anchor="end" x="79" y="4.199999999999999" transform="translate(0,198.89)" style="font-family: 'Open Sans', verdana, arial, sans-serif; font-size: 12px; fill: rgb(42, 63, 95); fill-opacity: 1; white-space: pre;">2000</text></g><g class="ytick"><text text-anchor="end" x="79" y="4.199999999999999" transform="translate(0,134.77)" style="font-family: 'Open Sans', verdana, arial, sans-serif; font-size: 12px; fill: rgb(42, 63, 95); fill-opacity: 1; white-space: pre;">2500</text></g></g><g class="overaxes-above"/></g></g><g class="polarlayer"/><g class="ternarylayer"/><g class="geolayer"/><g class="funnelarealayer"/><g class="pielayer"/><g class="treemaplayer"/><g class="sunburstlayer"/><g class="glimages"/><defs id="topdefs-765e01"><g class="clips"/><clipPath id="legend765e01"><rect width="137" height="67" x="0" y="0"/></clipPath></defs><g class="layer-above"><g class="imagelayer"/><g class="shapelayer"/></g><g class="infolayer"><g class="legend" pointer-events="all" transform="translate(551.24, 100)"><rect class="bg" shape-rendering="crispEdges" width="137" height="67" x="0" y="0" style="stroke: rgb(68, 68, 68); stroke-opacity: 1; fill: rgb(255, 255, 255); fill-opacity: 1; stroke-width: 0px;"/><g class="scrollbox" transform="translate(0, 0)" clip-path="url('#legend765e01')"><g class="groups"><g class="traces" transform="translate(0, 14.5)" style="opacity: 1;"><text class="legendtext" text-anchor="start" x="40" y="4.680000000000001" style="font-family: 'Open Sans', verdana, arial, sans-serif; font-size: 12px; fill: rgb(42, 63, 95); fill-opacity: 1; white-space: pre;">Average Class I</text><g class="layers" style="opacity: 1;"><g class="legendfill"/><g class="legendlines"><path class="js-line" d="M5,0h30" style="fill: none; stroke: rgb(0, 100, 80); stroke-opacity: 1; stroke-width: 2px;"/></g><g class="legendsymbols"><g class="legendpoints"/></g></g><rect class="legendtoggle" x="0" y="-9.5" width="131.15625" height="19" style="fill: rgb(0, 0, 0); fill-opacity: 0;"/></g><g class="traces" transform="translate(0, 33.5)" style="opacity: 1;"><text class="legendtext" text-anchor="start" x="40" y="4.680000000000001" style="font-family: 'Open Sans', verdana, arial, sans-serif; font-size: 12px; fill: rgb(42, 63, 95); fill-opacity: 1; white-space: pre;">Average Class II</text><g class="layers" style="opacity: 1;"><g class="legendfill"/><g class="legendlines"><path class="js-line" d="M5,0h30" style="fill: none; stroke: rgb(0, 176, 246); stroke-opacity: 1; stroke-width: 2px;"/></g><g class="legendsymbols"><g class="legendpoints"/></g></g><rect class="legendtoggle" x="0" y="-9.5" width="131.15625" height="19" style="fill: rgb(0, 0, 0); fill-opacity: 0;"/></g><g class="traces" transform="translate(0, 52.5)" style="opacity: 1;"><text class="legendtext" text-anchor="start" x="40" y="4.680000000000001" style="font-family: 'Open Sans', verdana, arial, sans-serif; font-size: 12px; fill: rgb(42, 63, 95); fill-opacity: 1; white-space: pre;">Average Class III</text><g class="layers" style="opacity: 1;"><g class="legendfill"/><g class="legendlines"><path class="js-line" d="M5,0h30" style="fill: none; stroke: rgb(231, 107, 243); stroke-opacity: 1; stroke-width: 2px;"/></g><g class="legendsymbols"><g class="legendpoints"/></g></g><rect class="legendtoggle" x="0" y="-9.5" width="131.15625" height="19" style="fill: rgb(0, 0, 0); fill-opacity: 0;"/></g></g></g><rect class="scrollbar" rx="20" ry="3" width="0" height="0" x="0" y="0" style="fill: rgb(128, 139, 164); fill-opacity: 1;"/></g><g class="g-gtitle"><text class="gtitle" x="35" y="50" text-anchor="start" dy="0em" style="font-family: 'Open Sans', verdana, arial, sans-serif; font-size: 17px; fill: rgb(42, 63, 95); opacity: 1; font-weight: normal; white-space: pre;">Average curve: hydropathy_group</text></g><g class="g-xtitle"><text class="xtitle" x="311" y="460.8" text-anchor="middle" style="font-family: 'Open Sans', verdana, arial, sans-serif; font-size: 14px; fill: rgb(42, 63, 95); opacity: 1; font-weight: normal; white-space: pre;">Domain</text></g><g class="g-ytitle"><text class="ytitle" transform="rotate(-90,27.496875000000003,260)" x="27.496875000000003" y="260" text-anchor="middle" style="font-family: 'Open Sans', verdana, arial, sans-serif; font-size: 14px; fill: rgb(42, 63, 95); opacity: 1; font-weight: normal; white-space: pre;">Frequency</text></g></g></svg>