<svg class="main-svg" xmlns="http://www.w3.org/2000/svg" xmlns:xlink="http://www.w3.org/1999/xlink" width="700" height="500" style="" viewBox="0 0 700 500"><rect x="0" y="0" width="700" height="500" style="fill: rgb(255, 255, 255); fill-opacity: 1;"/><defs id="defs-05fb09"><g class="clips"><clipPath id="clip05fb09xyplot" class="plotclip"><rect width="462" height="320"/></clipPath><clipPath class="axesclip" id="clip05fb09x"><rect x="80" y="0" width="462" height="500"/></clipPath><clipPath class="axesclip" id="clip05fb09y"><rect x="0" y="100" width="700" height="320"/></clipPath><clipPath class="axesclip" id="clip05fb09xy"><rect x="80" y="100" width="462" height="320"/></clipPath></g><g class="gradients"/></defs><g class="bglayer"><rect class="bg" x="80" y="100" width="462" height="320" style="fill: rgb(229, 236, 246); fill-opacity: 1; stroke-width: 0;"/></g><g class="layer-below"><g class="imagelayer"/><g class="shapelayer"/></g><g class="cartesianlayer"><g class="subplot xy"><g class="layer-subplot"><g class="shapelayer"/><g class="imagelayer"/></g><g class="gridlayer"><g class="x"><path class="xgrid crisp" transform="translate(170.23000000000002,0)" d="M0,100v320" style="stroke: rgb(255, 255, 255); stroke-opacity: 1; stroke-width: 1px;"/><path class="xgrid crisp" transform="translate(260.47,0)" d="M0,100v320" style="stroke: rgb(255, 255, 255); stroke-opacity: 1; stroke-width: 1px;"/><path class="xgrid crisp" transform="translate(350.7,0)" d="M0,100v320" style="stroke: rgb(255, 255, 255); stroke-opacity: 1; stroke-width: 1px;"/><path class="xgrid crisp" transform="translate(440.94,0)" d="M0,100v320" style="stroke: rgb(255, 255, 255); stroke-opacity: 1; stroke-width: 1px;"/><path class="xgrid crisp" transform="translate(531.1700000000001,0)" d="M0,100v320" style="stroke: rgb(255, 255, 255); stroke-opacity: 1; stroke-width: 1px;"/></g><g class="y"><path class="ygrid crisp" transform="translate(0,402.68)" d="M80,0h462" style="stroke: rgb(255, 255, 255); stroke-opacity: 1; stroke-width: 1px;"/><path class="ygrid crisp" transform="translate(0,354.15)" d="M80,0h462" style="stroke: rgb(255, 255, 255); stroke-opacity: 1; stroke-width: 1px;"/><path class="ygrid crisp" transform="translate(0,305.63)" d="M80,0h462" style="stroke: rgb(255, 255, 255); stroke-opacity: 1; stroke-width: 1px;"/><path class="ygrid crisp" transform="translate(0,257.1)" d="M80,0h462" style="stroke: rgb(255, 255, 255); stroke-opacity: 1; stroke-width: 1px;"/><path class="ygrid crisp" transform="translate(0,208.57)" d="M80,0h462" style="stroke: rgb(255, 255, 255); stroke-opacity: 1; stroke-width: 1px;"/><path class="ygrid crisp" transform="translate(0,160.05)" d="M80,0h462" style="stroke: rgb(255, 255, 255); stroke-opacity: 1; stroke-width: 1px;"/><path class="ygrid crisp" transform="translate(0,111.52)" d="M80,0h462" style="stroke: rgb(255, 255, 255); stroke-opacity: 1; stroke-width: 1px;"/></g></g><g class="zerolinelayer"><path class="xzl zl crisp" transform="translate(80,0)" d="M0,100v320" style="stroke: rgb(255, 255, 255); stroke-opacity: 1; stroke-width: 2px;"/></g><path class="xlines-below"/><path class="ylines-below"/><g class="overlines-below"/><g class="xaxislayer-below"/><g class="yaxislayer-below"/><g class="overaxes-below"/><g class="plot" transform="translate(80, 100)" clip-path="url('#clip05fb09xyplot')"><g class="scatterlayer mlayer"><g class="trace scatter trace46fcd1" style="stroke-miterlimit: 2; opacity: 1;"><g class="fills"/><g class="errorbars"/><g class="lines"><path class="js-line" d="M0,262.14Q0.64,260.08 0.9,258.69C1.29,256.61 1.53,253.63 1.81,250.82C2.14,247.6 2.42,244.02 2.71,240.45C3.02,236.63 3.32,232.61 3.62,228.58C3.93,224.41 4.22,220.13 4.52,215.86C4.82,211.53 5.12,207.14 5.42,202.78C5.72,198.41 6.03,194.02 6.33,189.68C6.63,185.38 6.93,181.09 7.23,176.86C7.53,172.71 7.83,168.59 8.14,164.55C8.44,160.62 8.73,156.73 9.04,152.94C9.34,149.29 9.64,145.69 9.95,142.2C10.24,138.88 10.54,135.63 10.85,132.49C11.14,129.54 11.44,126.66 11.75,123.91C12.04,121.36 12.34,118.89 12.66,116.56C12.95,114.45 13.24,112.4 13.56,110.52C13.85,108.86 14.14,107.25 14.47,105.84C14.75,104.65 15.02,103.49 15.37,102.57C15.64,101.85 15.89,101.09 16.27,100.71C16.54,100.44 16.89,100.2 17.18,100.25C17.5,100.3 17.81,100.77 18.08,101.18C18.44,101.74 18.71,102.58 18.99,103.42C19.33,104.44 19.61,105.65 19.89,106.9C20.21,108.33 20.5,109.9 20.79,111.52C21.11,113.29 21.41,115.18 21.7,117.11C22.01,119.17 22.3,121.33 22.6,123.51C22.91,125.79 23.21,128.14 23.51,130.49C23.81,132.89 24.11,135.35 24.41,137.78C24.71,140.22 25.02,142.69 25.32,145.11C25.62,147.49 25.91,149.88 26.22,152.19C26.51,154.4 26.81,156.61 27.12,158.69C27.41,160.61 27.71,162.51 28.03,164.23C28.31,165.75 28.59,167.24 28.93,168.49C29.21,169.51 29.47,170.53 29.84,171.22C30.1,171.71 30.4,172.26 30.74,172.36C31.01,172.44 31.37,172.26 31.64,172.04C32,171.74 32.27,171.1 32.55,170.52C32.89,169.83 33.16,168.97 33.45,168.13C33.77,167.21 34.06,166.22 34.36,165.23C34.67,164.21 34.96,163.14 35.26,162.11C35.56,161.08 35.85,160.04 36.16,159.05C36.46,158.1 36.76,157.16 37.07,156.28C37.36,155.47 37.65,154.67 37.97,153.97C38.25,153.35 38.54,152.74 38.88,152.28C39.16,151.9 39.45,151.5 39.78,151.33C40.06,151.19 40.4,151.13 40.68,151.21C41,151.3 41.32,151.62 41.59,151.95C41.94,152.37 42.21,152.97 42.49,153.59C42.82,154.33 43.12,155.21 43.4,156.13C43.72,157.18 44.01,158.34 44.3,159.54C44.62,160.88 44.92,162.32 45.21,163.81C45.53,165.42 45.82,167.13 46.11,168.88C46.42,170.75 46.72,172.71 47.01,174.71C47.32,176.82 47.62,179.01 47.92,181.23C48.23,183.56 48.52,185.96 48.82,188.38C49.13,190.89 49.43,193.45 49.73,196.04C50.04,198.7 50.33,201.41 50.63,204.12C50.93,206.87 51.23,209.67 51.53,212.44C51.83,215.2 52.13,218 52.44,220.72C52.74,223.36 53.03,225.98 53.34,228.51C53.63,230.92 53.94,233.32 54.25,235.58C54.54,237.66 54.84,239.67 55.15,241.57C55.44,243.31 55.73,245.01 56.05,246.56C56.33,247.92 56.61,249.29 56.96,250.38C57.23,251.23 57.46,252.16 57.86,252.58C58.12,252.85 58.5,253.09 58.77,253.01C59.12,252.91 59.41,252.24 59.67,251.67C60.05,250.83 60.3,249.55 60.58,248.35C60.91,246.95 61.19,245.35 61.48,243.75C61.79,242.01 62.08,240.16 62.38,238.3C62.69,236.37 62.99,234.36 63.29,232.37C63.59,230.35 63.89,228.3 64.19,226.26C64.49,224.22 64.8,222.16 65.1,220.13C65.4,218.12 65.69,216.09 66,214.13C66.29,212.25 66.59,210.37 66.9,208.59C67.19,206.93 67.49,205.31 67.81,203.79C68.1,202.42 68.38,201.08 68.71,199.88C68.99,198.84 69.28,197.82 69.62,196.98C69.9,196.29 70.16,195.59 70.52,195.15C70.79,194.82 71.11,194.49 71.42,194.46C71.71,194.43 72.06,194.67 72.33,194.93C72.69,195.28 72.96,195.94 73.23,196.57C73.57,197.37 73.86,198.36 74.14,199.38C74.47,200.57 74.75,201.91 75.04,203.3C75.36,204.86 75.66,206.54 75.95,208.28C76.27,210.17 76.56,212.17 76.85,214.22C77.16,216.4 77.46,218.68 77.75,220.99C78.06,223.42 78.36,225.93 78.66,228.47C78.97,231.09 79.26,233.77 79.56,236.48C79.87,239.26 80.17,242.08 80.47,244.92C80.77,247.8 81.07,250.73 81.37,253.64C81.67,256.56 81.97,259.5 82.27,262.4C82.57,265.27 82.87,268.15 83.18,270.95C83.48,273.66 83.77,276.37 84.08,278.93C84.37,281.32 84.67,283.7 84.99,285.85C85.27,287.73 85.55,289.57 85.89,291.14C86.17,292.43 86.42,293.69 86.79,294.62C87.06,295.3 87.32,296.14 87.7,296.3C87.96,296.41 88.34,296.28 88.6,296.05C89.01,295.69 89.24,294.71 89.51,293.87C89.86,292.8 90.12,291.45 90.41,290.12C90.73,288.63 91.03,287.01 91.32,285.35C91.63,283.56 91.93,281.67 92.22,279.76C92.53,277.75 92.82,275.65 93.12,273.57C93.42,271.46 93.73,269.32 94.03,267.21C94.33,265.11 94.63,262.99 94.93,260.91C95.23,258.87 95.53,256.84 95.84,254.85C96.14,252.93 96.44,251.04 96.74,249.17C97.04,247.34 97.34,245.56 97.64,243.76C97.94,241.97 98.24,240.14 98.55,238.39C98.85,236.7 99.14,235.05 99.45,233.43C99.75,231.87 100.05,230.34 100.36,228.86C100.65,227.45 100.95,226.07 101.26,224.73C101.55,223.46 101.84,222.19 102.16,221.02C102.45,219.95 102.74,218.91 103.07,217.98C103.35,217.17 103.63,216.38 103.97,215.74C104.25,215.21 104.54,214.69 104.88,214.36C105.15,214.1 105.47,213.87 105.78,213.82C106.07,213.78 106.4,213.89 106.68,214.05C107.01,214.23 107.3,214.58 107.59,214.92C107.91,215.3 108.2,215.77 108.49,216.24C108.8,216.74 109.1,217.29 109.4,217.84C109.71,218.41 110,219.01 110.3,219.59C110.6,220.17 110.89,220.8 111.21,221.34C111.5,221.84 111.79,222.31 112.11,222.73C112.4,223.11 112.68,223.51 113.01,223.76C113.29,223.98 113.62,224.2 113.92,224.2C114.22,224.2 114.55,224.04 114.82,223.8C115.18,223.49 115.46,222.9 115.73,222.31C116.08,221.56 116.35,220.58 116.63,219.59C116.96,218.43 117.24,217.12 117.53,215.76C117.85,214.24 118.15,212.6 118.44,210.9C118.76,209.03 119.05,207.02 119.34,205.01C119.65,202.9 119.95,200.7 120.25,198.51C120.55,196.27 120.85,193.99 121.15,191.72C121.45,189.44 121.75,187.14 122.05,184.86C122.35,182.59 122.66,180.32 122.96,178.08C123.26,175.88 123.55,173.69 123.86,171.54C124.16,169.46 124.46,167.39 124.77,165.39C125.06,163.48 125.36,161.6 125.67,159.8C125.96,158.11 126.27,156.46 126.58,154.89C126.87,153.45 127.16,152.04 127.48,150.74C127.77,149.56 128.06,148.43 128.38,147.4C128.66,146.5 128.96,145.63 129.29,144.89C129.57,144.27 129.84,143.66 130.19,143.25C130.46,142.93 130.78,142.6 131.1,142.54C131.39,142.49 131.73,142.62 132,142.82C132.35,143.07 132.63,143.59 132.9,144.1C133.24,144.74 133.53,145.55 133.81,146.39C134.14,147.38 134.42,148.5 134.71,149.66C135.03,150.97 135.33,152.4 135.62,153.86C135.93,155.43 136.23,157.07 136.52,158.77C136.83,160.58 137.13,162.47 137.42,164.41C137.73,166.46 138.03,168.58 138.33,170.74C138.64,172.99 138.93,175.3 139.23,177.63C139.54,180.03 139.84,182.48 140.14,184.93C140.44,187.42 140.74,189.94 141.04,192.44C141.34,194.94 141.65,197.47 141.95,199.95C142.25,202.39 142.54,204.83 142.85,207.2C143.14,209.49 143.44,211.77 143.75,213.93C144.04,215.95 144.34,217.95 144.66,219.77C144.95,221.38 145.22,222.96 145.56,224.3C145.84,225.4 146.11,226.48 146.47,227.28C146.74,227.88 147,228.53 147.37,228.75C147.64,228.91 148,228.94 148.27,228.82C148.62,228.66 148.91,228.08 149.18,227.57C149.53,226.92 149.8,226.03 150.08,225.16C150.4,224.17 150.7,223.07 150.99,221.95C151.3,220.75 151.59,219.46 151.89,218.19C152.19,216.9 152.49,215.59 152.79,214.29C153.09,212.98 153.4,211.67 153.7,210.37C154,209.07 154.3,207.77 154.6,206.49C154.9,205.22 155.2,203.96 155.51,202.72C155.81,201.51 156.1,200.31 156.41,199.15C156.71,198.03 157.01,196.94 157.32,195.88C157.61,194.87 157.91,193.86 158.22,192.93C158.51,192.07 158.8,191.23 159.12,190.48C159.41,189.81 159.7,189.16 160.03,188.62C160.31,188.15 160.6,187.72 160.93,187.39C161.21,187.11 161.52,186.87 161.84,186.72C162.13,186.58 162.44,186.47 162.74,186.49C163.04,186.51 163.36,186.65 163.64,186.83C163.97,187.04 164.27,187.39 164.55,187.76C164.88,188.18 165.16,188.71 165.45,189.25C165.77,189.84 166.07,190.5 166.36,191.17C166.67,191.87 166.96,192.63 167.26,193.37C167.56,194.13 167.85,194.95 168.16,195.69C168.45,196.4 168.76,197.09 169.07,197.73C169.36,198.33 169.66,198.89 169.97,199.43C170.26,199.94 170.56,200.44 170.88,200.87C171.17,201.26 171.46,201.66 171.78,201.94C172.06,202.19 172.37,202.42 172.68,202.51C172.97,202.59 173.31,202.6 173.59,202.48C173.92,202.34 174.22,202 174.49,201.63C174.84,201.15 175.12,200.45 175.4,199.73C175.74,198.83 176.02,197.75 176.3,196.61C176.63,195.27 176.92,193.76 177.21,192.2C177.53,190.44 177.82,188.52 178.11,186.56C178.42,184.44 178.72,182.18 179.01,179.91C179.32,177.52 179.62,175.03 179.92,172.54C180.23,169.98 180.52,167.36 180.82,164.76C181.12,162.13 181.43,159.48 181.73,156.85C182.03,154.24 182.33,151.63 182.63,149.06C182.93,146.54 183.22,144.03 183.53,141.58C183.83,139.2 184.13,136.85 184.44,134.56C184.74,132.37 185.03,130.2 185.34,128.12C185.63,126.15 185.94,124.23 186.25,122.39C186.54,120.68 186.83,119.01 187.15,117.44C187.44,116.01 187.73,114.62 188.05,113.35C188.34,112.22 188.63,111.14 188.96,110.18C189.24,109.36 189.52,108.56 189.86,107.94C190.14,107.44 190.42,106.93 190.77,106.68C191.04,106.49 191.38,106.35 191.67,106.41C191.99,106.47 192.31,106.81 192.58,107.15C192.93,107.58 193.2,108.24 193.48,108.9C193.81,109.7 194.1,110.66 194.38,111.65C194.71,112.79 195,114.06 195.29,115.38C195.61,116.85 195.9,118.42 196.19,120.05C196.51,121.82 196.81,123.7 197.1,125.62C197.41,127.68 197.71,129.83 198,132.03C198.31,134.35 198.6,136.76 198.9,139.2C199.21,141.73 199.51,144.33 199.81,146.93C200.11,149.57 200.41,152.23 200.71,154.92C201.01,157.65 201.32,160.44 201.62,163.19C201.92,165.93 202.22,168.65 202.52,171.4C202.82,174.17 203.12,176.94 203.42,179.73C203.72,182.55 204.03,185.39 204.33,188.24C204.63,191.1 204.93,193.99 205.23,196.86C205.53,199.72 205.84,202.57 206.14,205.41C206.44,208.23 206.73,211.09 207.04,213.84C207.34,216.47 207.65,218.99 207.95,221.56C208.25,224.11 208.55,226.64 208.85,229.19C209.15,231.75 209.45,234.32 209.75,236.89C210.05,239.47 210.36,242.06 210.66,244.65C210.96,247.24 211.26,249.85 211.56,252.42C211.86,254.97 212.17,257.51 212.47,260.01C212.77,262.46 213.06,264.9 213.37,267.28C213.67,269.59 213.96,271.9 214.27,274.08C214.56,276.11 214.85,278.19 215.18,279.96C215.46,281.43 215.6,283.21 216.08,283.97C216.33,284.38 216.73,284.77 216.99,284.7C217.37,284.6 217.62,283.3 217.89,282.4C218.25,281.18 218.51,279.62 218.79,278C219.13,276.04 219.41,273.74 219.7,271.46C220.02,268.98 220.3,266.29 220.6,263.66C220.9,260.98 221.21,258.25 221.51,255.53C221.81,252.79 222.11,250.01 222.41,247.27C222.71,244.54 223.02,241.82 223.32,239.12C223.62,236.46 223.92,233.82 224.22,231.2C224.52,228.63 224.82,226.1 225.12,223.57C225.42,221.08 225.73,218.61 226.03,216.15C226.33,213.72 226.63,211.28 226.93,208.89C227.23,206.54 227.54,204.22 227.84,201.92C228.14,199.66 228.44,197.44 228.74,195.21C229.04,193.01 229.34,190.82 229.64,188.63C229.94,186.44 230.25,184.28 230.55,182.07C230.85,179.82 231.15,177.51 231.45,175.24C231.75,172.99 232.06,170.73 232.36,168.5C232.66,166.31 232.96,164.13 233.26,161.99C233.56,159.91 233.85,157.85 234.16,155.84C234.46,153.9 234.76,151.99 235.07,150.11C235.37,148.29 235.66,146.49 235.97,144.73C236.27,143.03 236.57,141.34 236.88,139.73C237.17,138.23 237.46,136.76 237.78,135.39C238.07,134.15 238.36,132.94 238.68,131.85C238.97,130.89 239.26,129.95 239.59,129.16C239.87,128.5 240.14,127.84 240.49,127.39C240.76,127.04 241.07,126.67 241.4,126.58C241.68,126.5 242.03,126.59 242.3,126.76C242.65,126.97 242.94,127.46 243.21,127.93C243.56,128.53 243.83,129.31 244.11,130.12C244.44,131.08 244.73,132.18 245.01,133.32C245.33,134.62 245.63,136.04 245.92,137.51C246.24,139.13 246.53,140.86 246.82,142.65C247.13,144.59 247.44,146.62 247.73,148.71C248.04,150.94 248.34,153.26 248.63,155.63C248.94,158.13 249.23,160.72 249.53,163.33C249.84,166.04 250.14,168.8 250.44,171.6C250.75,174.47 251.04,177.39 251.34,180.34C251.65,183.37 251.95,186.46 252.25,189.55C252.55,192.68 252.85,195.86 253.15,199.02C253.45,202.19 253.75,205.38 254.05,208.55C254.35,211.7 254.66,214.86 254.96,217.98C255.26,221.05 255.55,224.12 255.86,227.12C256.16,230.04 256.46,232.94 256.77,235.76C257.07,238.47 257.36,241.15 257.67,243.73C257.96,246.17 258.27,248.57 258.58,250.84C258.87,252.94 259.16,255 259.48,256.9C259.77,258.61 260.04,260.29 260.38,261.74C260.66,262.93 260.93,264.11 261.29,264.98C261.56,265.61 261.83,266.23 262.19,266.54C262.46,266.77 262.82,266.96 263.1,266.9C263.43,266.83 263.72,266.32 264,265.93C264.33,265.46 264.61,264.83 264.9,264.24C265.21,263.62 265.51,262.95 265.81,262.29C266.12,261.61 266.41,260.92 266.71,260.23C267.01,259.53 267.32,258.83 267.62,258.13C267.92,257.42 268.22,256.72 268.52,256C268.82,255.26 269.12,254.52 269.42,253.75C269.73,252.96 270.03,252.15 270.33,251.32C270.64,250.46 270.93,249.55 271.23,248.67C271.53,247.78 271.84,246.88 272.14,246C272.44,245.13 272.74,244.28 273.04,243.42C273.34,242.57 273.65,241.76 273.95,240.89C274.26,239.99 274.55,239.05 274.85,238.11C275.15,237.16 275.45,236.2 275.75,235.22C276.06,234.21 276.36,233.19 276.66,232.14C276.97,231.05 277.26,229.92 277.56,228.78C277.87,227.59 278.17,226.38 278.47,225.15C278.78,223.88 279.07,222.59 279.37,221.29C279.67,219.95 279.97,218.6 280.27,217.23C280.58,215.82 280.88,214.39 281.18,212.93C281.49,211.42 281.78,209.87 282.08,208.31C282.39,206.71 282.69,205.06 282.99,203.44C283.29,201.82 283.59,200.18 283.89,198.58C284.19,197.01 284.48,195.44 284.79,193.91C285.09,192.42 285.39,190.93 285.7,189.49C286,188.1 286.29,186.73 286.6,185.4C286.89,184.14 287.2,182.9 287.51,181.71C287.8,180.6 288.1,179.51 288.41,178.48C288.7,177.53 289,176.62 289.32,175.77C289.61,175.01 289.9,174.27 290.22,173.62C290.5,173.06 290.79,172.51 291.12,172.09C291.4,171.73 291.7,171.38 292.03,171.2C292.31,171.04 292.64,170.94 292.93,170.98C293.24,171.02 293.56,171.23 293.84,171.47C294.18,171.76 294.46,172.21 294.74,172.68C295.07,173.24 295.36,173.92 295.64,174.63C295.97,175.45 296.26,176.36 296.55,177.32C296.87,178.39 297.16,179.54 297.45,180.74C297.77,182.04 298.07,183.43 298.36,184.85C298.67,186.37 298.97,187.97 299.26,189.6C299.57,191.32 299.86,193.11 300.16,194.93C300.47,196.82 300.77,198.77 301.07,200.73C301.38,202.75 301.67,204.82 301.97,206.88C302.27,208.97 302.58,211.09 302.88,213.2C303.18,215.3 303.48,217.41 303.78,219.5C304.08,221.56 304.38,223.6 304.68,225.63C304.98,227.62 305.29,229.6 305.59,231.55C305.89,233.46 306.18,235.36 306.49,237.22C306.79,239.04 307.08,240.88 307.4,242.59C307.69,244.16 307.99,245.66 308.3,247.1C308.59,248.44 308.89,249.76 309.21,250.97C309.5,252.05 309.77,253.13 310.11,254.02C310.39,254.75 310.64,255.53 311.01,255.97C311.28,256.28 311.62,256.58 311.92,256.58C312.22,256.58 312.55,256.26 312.82,255.96C313.17,255.57 313.45,254.93 313.73,254.31C314.06,253.58 314.34,252.72 314.63,251.85C314.95,250.89 315.24,249.85 315.53,248.79C315.84,247.66 316.14,246.47 316.44,245.27C316.75,244.02 317.04,242.73 317.34,241.42C317.65,240.07 317.95,238.69 318.25,237.31C318.55,235.91 318.85,234.49 319.15,233.09C319.45,231.7 319.74,230.3 320.05,228.94C320.35,227.62 320.65,226.3 320.96,225.03C321.26,223.81 321.55,222.63 321.86,221.47C322.16,220.36 322.46,219.27 322.77,218.21C323.06,217.21 323.36,216.23 323.67,215.28C323.96,214.38 324.27,213.51 324.58,212.65C324.88,211.82 325.18,211.03 325.48,210.23C325.78,209.43 326.09,208.66 326.38,207.84C326.69,206.97 327,206.09 327.29,205.16C327.6,204.18 327.89,203.14 328.19,202.1C328.5,201.02 328.79,199.87 329.1,198.8C329.4,197.77 329.69,196.74 330,195.78C330.29,194.89 330.58,194.02 330.9,193.24C331.19,192.54 331.48,191.87 331.81,191.3C332.09,190.81 332.38,190.34 332.71,190.01C332.99,189.73 333.3,189.49 333.62,189.39C333.91,189.3 334.23,189.31 334.52,189.4C334.84,189.5 335.14,189.75 335.42,190.02C335.75,190.34 336.05,190.78 336.33,191.23C336.65,191.75 336.94,192.37 337.23,192.99C337.54,193.66 337.85,194.39 338.14,195.12C338.45,195.89 338.75,196.68 339.04,197.5C339.35,198.36 339.65,199.26 339.95,200.15C340.25,201.06 340.55,202 340.85,202.92C341.15,203.84 341.44,204.77 341.75,205.66C342.05,206.51 342.34,207.36 342.66,208.15C342.95,208.87 343.24,209.59 343.56,210.21C343.85,210.76 344.13,211.32 344.47,211.71C344.75,212.03 345.05,212.38 345.37,212.46C345.65,212.53 346,212.46 346.27,212.29C346.62,212.07 346.91,211.55 347.18,211.05C347.53,210.4 347.8,209.54 348.08,208.64C348.42,207.53 348.7,206.18 348.99,204.87C349.3,203.45 349.59,201.93 349.89,200.42C350.19,198.87 350.48,197.24 350.79,195.68C351.09,194.16 351.39,192.66 351.7,191.2C352,189.79 352.29,188.42 352.6,187.07C352.9,185.77 353.2,184.46 353.51,183.24C353.8,182.11 354.09,180.99 354.41,179.99C354.69,179.11 354.98,178.25 355.32,177.54C355.6,176.95 355.87,176.35 356.22,175.98C356.49,175.69 356.81,175.4 357.12,175.37C357.41,175.34 357.76,175.52 358.03,175.75C358.38,176.04 358.65,176.59 358.93,177.13C359.27,177.8 359.56,178.63 359.84,179.5C360.17,180.51 360.46,181.66 360.74,182.84C361.06,184.17 361.35,185.61 361.64,187.09C361.96,188.71 362.26,190.43 362.55,192.19C362.86,194.08 363.16,196.05 363.45,198.06C363.76,200.18 364.06,202.38 364.36,204.6C364.67,206.91 364.96,209.29 365.26,211.69C365.56,214.16 365.86,216.68 366.16,219.2C366.46,221.76 366.77,224.37 367.07,226.95C367.37,229.53 367.67,232.12 367.97,234.7C368.27,237.26 368.58,239.83 368.88,242.36C369.18,244.86 369.48,247.35 369.78,249.8C370.08,252.19 370.37,254.58 370.68,256.87C370.97,259.05 371.28,261.18 371.59,263.24C371.88,265.17 372.17,267.09 372.49,268.86C372.78,270.46 373.04,272.14 373.4,273.43C373.67,274.41 373.88,275.49 374.3,275.95C374.56,276.23 374.93,276.43 375.21,276.36C375.54,276.28 375.84,275.7 376.11,275.26C376.45,274.71 376.73,273.98 377.01,273.24C377.34,272.39 377.63,271.43 377.92,270.44C378.24,269.36 378.53,268.2 378.82,267.01C379.13,265.72 379.43,264.33 379.73,262.96C380.04,261.54 380.33,260.09 380.63,258.62C380.93,257.11 381.23,255.59 381.53,254.04C381.84,252.44 382.14,250.8 382.44,249.14C382.75,247.44 383.04,245.7 383.34,243.97C383.64,242.22 383.95,240.47 384.25,238.71C384.55,236.95 384.85,235.2 385.15,233.43C385.45,231.64 385.75,229.82 386.05,228.03C386.35,226.24 386.66,224.46 386.96,222.69C387.26,220.95 387.55,219.22 387.86,217.52C388.16,215.85 388.46,214.2 388.77,212.58C389.07,211.01 389.36,209.45 389.67,207.93C389.97,206.47 390.27,205.05 390.58,203.66C390.87,202.34 391.17,201.04 391.48,199.8C391.77,198.63 392.06,197.49 392.38,196.42C392.67,195.43 392.97,194.48 393.29,193.6C393.58,192.82 393.86,192.06 394.19,191.4C394.47,190.82 394.77,190.27 395.1,189.83C395.38,189.46 395.67,189.11 396,188.89C396.28,188.7 396.59,188.6 396.9,188.55C397.2,188.5 397.52,188.48 397.81,188.56C398.12,188.64 398.43,188.84 398.71,189.07C399.04,189.33 399.33,189.71 399.62,190.1C399.94,190.53 400.22,191.06 400.52,191.55C400.82,192.05 401.13,192.54 401.42,193.07C401.73,193.64 402.03,194.24 402.33,194.85C402.64,195.48 402.93,196.15 403.23,196.78C403.53,197.4 403.83,198.03 404.14,198.63C404.44,199.22 404.74,199.78 405.04,200.36C405.34,200.94 405.65,201.52 405.95,202.09C406.25,202.66 406.55,203.24 406.85,203.8C407.15,204.34 407.44,204.89 407.75,205.39C408.04,205.86 408.34,206.34 408.66,206.71C408.94,207.04 409.25,207.3 409.56,207.54C409.85,207.76 410.16,207.94 410.47,208.1C410.77,208.25 411.06,208.39 411.37,208.48C411.67,208.57 411.97,208.56 412.27,208.63C412.57,208.7 412.88,208.76 413.18,208.88C413.49,209.01 413.79,209.18 414.08,209.38C414.39,209.59 414.69,209.87 414.99,210.14C415.3,210.43 415.6,210.74 415.89,211.07C416.2,211.42 416.5,211.79 416.79,212.19C417.1,212.61 417.41,213.07 417.7,213.55C418.01,214.06 418.31,214.6 418.6,215.15C418.91,215.73 419.21,216.33 419.51,216.95C419.82,217.59 420.11,218.26 420.41,218.93C420.72,219.62 421.02,220.32 421.32,221.02C421.62,221.73 421.92,222.44 422.22,223.15C422.52,223.85 422.81,224.55 423.12,225.23C423.42,225.89 423.72,226.54 424.03,227.18C424.33,227.8 424.63,228.42 424.93,229.02C425.23,229.61 425.53,230.2 425.84,230.77C426.14,231.32 426.43,231.87 426.74,232.37C427.03,232.84 427.33,233.26 427.64,233.69C427.94,234.11 428.24,234.52 428.55,234.92C428.85,235.31 429.14,235.69 429.45,236.05C429.75,236.41 430.05,236.77 430.36,237.08C430.65,237.38 430.94,237.68 431.26,237.89C431.55,238.08 431.85,238.26 432.16,238.3C432.46,238.34 432.78,238.27 433.07,238.17C433.38,238.07 433.67,237.85 433.97,237.67C434.28,237.48 434.58,237.26 434.88,237.04C435.18,236.82 435.48,236.59 435.78,236.36C436.08,236.13 436.38,235.89 436.68,235.64C436.99,235.38 437.3,235.13 437.59,234.83C437.9,234.51 438.2,234.17 438.49,233.79C438.8,233.38 439.12,232.97 439.4,232.45C439.74,231.82 440,230.99 440.3,230.24C440.61,229.47 440.91,228.68 441.21,227.89C441.51,227.1 441.81,226.31 442.11,225.52C442.41,224.72 442.71,223.92 443.01,223.12C443.31,222.32 443.62,221.53 443.92,220.73C444.22,219.94 444.52,219.15 444.82,218.36C445.12,217.58 445.43,216.79 445.73,216.02C446.03,215.26 446.33,214.5 446.63,213.76C446.93,213.03 447.22,212.31 447.53,211.61C447.83,210.93 448.13,210.25 448.44,209.6C448.74,208.97 449.04,208.36 449.34,207.75C449.64,207.15 449.95,206.56 450.25,205.98C450.55,205.41 450.84,204.84 451.15,204.3C451.44,203.79 451.74,203.29 452.05,202.82C452.34,202.37 452.65,201.94 452.96,201.54C453.25,201.16 453.55,200.8 453.86,200.47C454.15,200.16 454.46,199.86 454.77,199.6C455.06,199.35 455.36,199.13 455.67,198.94C455.97,198.76 456.27,198.6 456.58,198.48C456.88,198.37 457.18,198.29 457.48,198.24C457.78,198.19 458.08,198.18 458.38,198.2C458.68,198.22 458.99,198.28 459.29,198.36C459.59,198.44 459.89,198.54 460.19,198.66C460.5,198.78 460.8,198.93 461.1,199.07Q461.4,199.21 462,199.5" style="vector-effect: non-scaling-stroke; fill: none; stroke: rgb(0, 100, 80); stroke-opacity: 1; stroke-width: 2px; opacity: 1;"/></g><g class="points"/><g class="text"/></g><g class="trace scatter trace97a9f0" style="stroke-miterlimit: 2; opacity: 1;"><g class="fills"/><g class="errorbars"/><g class="lines"><path class="js-line" d="M0,231.16Q0.63,229.28 0.9,228.05C1.27,226.33 1.52,223.96 1.81,221.75C2.13,219.3 2.41,216.62 2.71,213.97C3.02,211.22 3.32,208.37 3.62,205.54C3.92,202.68 4.22,199.78 4.52,196.91C4.82,194.04 5.12,191.17 5.42,188.31C5.72,185.45 6.03,182.62 6.33,179.73C6.64,176.77 6.93,173.78 7.23,170.75C7.54,167.66 7.84,164.47 8.14,161.36C8.44,158.3 8.73,155.23 9.04,152.26C9.34,149.4 9.64,146.57 9.95,143.85C10.24,141.27 10.54,138.74 10.85,136.33C11.14,134.09 11.43,131.91 11.75,129.86C12.04,127.99 12.34,126.19 12.66,124.53C12.94,123.07 13.23,121.66 13.56,120.43C13.84,119.39 14.12,118.39 14.47,117.61C14.74,117.01 15,116.36 15.37,116.1C15.64,115.91 16,115.83 16.27,115.93C16.62,116.06 16.91,116.59 17.18,117.07C17.54,117.7 17.8,118.59 18.08,119.49C18.41,120.57 18.7,121.82 18.99,123.11C19.31,124.57 19.6,126.18 19.89,127.83C20.2,129.63 20.5,131.55 20.79,133.51C21.1,135.59 21.4,137.77 21.7,139.97C22.01,142.27 22.3,144.64 22.6,147.02C22.91,149.46 23.21,151.95 23.51,154.42C23.81,156.9 24.11,159.42 24.41,161.89C24.71,164.32 25.01,166.75 25.32,169.11C25.62,171.37 25.91,173.61 26.22,175.76C26.51,177.79 26.8,179.8 27.12,181.68C27.41,183.39 27.7,185.09 28.03,186.58C28.31,187.84 28.52,189.23 28.93,190.04C29.19,190.55 29.55,191.18 29.84,191.16C30.16,191.13 30.47,190.2 30.74,189.57C31.09,188.74 31.36,187.62 31.64,186.54C31.96,185.31 32.26,183.95 32.55,182.57C32.87,181.07 33.16,179.48 33.45,177.86C33.76,176.15 34.06,174.36 34.36,172.57C34.67,170.73 34.96,168.82 35.26,166.95C35.56,165.09 35.85,163.2 36.16,161.38C36.46,159.61 36.76,157.85 37.07,156.17C37.36,154.59 37.65,153.04 37.97,151.59C38.26,150.27 38.55,148.98 38.88,147.83C39.16,146.83 39.44,145.85 39.78,145.05C40.05,144.4 40.32,143.72 40.68,143.34C40.95,143.06 41.29,142.78 41.59,142.8C41.9,142.82 42.22,143.15 42.49,143.48C42.86,143.93 43.12,144.66 43.4,145.39C43.74,146.3 44.02,147.39 44.3,148.53C44.63,149.85 44.92,151.34 45.21,152.87C45.53,154.59 45.82,156.45 46.11,158.36C46.42,160.45 46.72,162.65 47.01,164.91C47.32,167.32 47.63,169.84 47.92,172.39C48.23,175.07 48.52,177.83 48.82,180.62C49.13,183.49 49.43,186.43 49.73,189.37C50.03,192.35 50.33,195.37 50.63,198.37C50.93,201.36 51.23,204.37 51.53,207.33C51.83,210.24 52.14,213.13 52.44,215.99C52.74,218.8 53.04,221.58 53.34,224.35C53.64,227.09 53.95,229.81 54.25,232.52C54.55,235.2 54.85,237.87 55.15,240.51C55.45,243.1 55.74,245.68 56.05,248.2C56.35,250.63 56.65,253.05 56.96,255.36C57.25,257.52 57.54,259.67 57.86,261.63C58.15,263.38 58.43,265.13 58.77,266.59C59.04,267.76 59.26,269.02 59.67,269.72C59.93,270.16 60.3,270.65 60.58,270.62C60.91,270.58 61.21,269.73 61.48,269.17C61.82,268.47 62.09,267.56 62.38,266.68C62.7,265.69 63,264.61 63.29,263.52C63.6,262.35 63.9,261.13 64.19,259.89C64.5,258.59 64.8,257.24 65.1,255.88C65.41,254.48 65.7,253.03 66,251.59C66.3,250.13 66.6,248.62 66.9,247.16C67.2,245.73 67.5,244.29 67.81,242.91C68.1,241.6 68.4,240.3 68.71,239.08C69,237.95 69.3,236.84 69.62,235.82C69.91,234.9 70.2,234.03 70.52,233.24C70.8,232.55 71.09,231.88 71.42,231.33C71.7,230.86 71.99,230.39 72.33,230.09C72.61,229.85 72.93,229.62 73.23,229.6C73.53,229.58 73.87,229.76 74.14,229.98C74.49,230.27 74.77,230.8 75.04,231.33C75.38,231.99 75.67,232.82 75.95,233.68C76.28,234.69 76.57,235.85 76.85,237.04C77.17,238.38 77.46,239.84 77.75,241.34C78.07,242.98 78.37,244.73 78.66,246.52C78.97,248.43 79.26,250.43 79.56,252.45C79.87,254.55 80.16,256.79 80.47,258.9C80.77,260.94 81.06,262.97 81.37,264.91C81.66,266.74 81.97,268.47 82.27,270.25C82.57,272.04 82.88,273.84 83.18,275.64C83.48,277.43 83.77,279.25 84.08,281.02C84.38,282.75 84.68,284.5 84.99,286.15C85.28,287.7 85.57,289.25 85.89,290.63C86.17,291.83 86.45,293 86.79,293.98C87.07,294.78 87.35,295.52 87.7,296.09C87.97,296.53 88.26,296.99 88.6,297.17C88.88,297.32 89.22,297.33 89.51,297.26C89.82,297.18 90.13,296.94 90.41,296.68C90.74,296.38 91.04,295.96 91.32,295.52C91.65,295.02 91.94,294.42 92.22,293.8C92.54,293.1 92.83,292.33 93.12,291.53C93.44,290.65 93.74,289.7 94.03,288.73C94.34,287.69 94.63,286.6 94.93,285.49C95.24,284.33 95.54,283.13 95.84,281.92C96.15,280.68 96.45,279.43 96.74,278.14C97.05,276.81 97.35,275.47 97.64,274.06C97.95,272.56 98.25,270.98 98.55,269.4C98.86,267.76 99.15,266.03 99.45,264.37C99.75,262.73 100.05,261.07 100.36,259.48C100.66,257.96 100.95,256.45 101.26,255.02C101.55,253.69 101.84,252.38 102.16,251.17C102.45,250.07 102.75,249 103.07,248.03C103.35,247.18 103.64,246.36 103.97,245.66C104.25,245.07 104.54,244.5 104.88,244.08C105.16,243.74 105.46,243.46 105.78,243.28C106.06,243.12 106.38,243.1 106.68,243.02C106.98,242.95 107.29,242.89 107.59,242.83C107.89,242.77 108.2,242.79 108.49,242.66C108.81,242.51 109.11,242.21 109.4,241.95C109.71,241.68 110.01,241.37 110.3,241.05C110.61,240.71 110.92,240.36 111.21,239.95C111.53,239.5 111.82,238.99 112.11,238.47C112.42,237.92 112.72,237.35 113.01,236.75C113.32,236.11 113.63,235.45 113.92,234.74C114.24,233.97 114.53,233.16 114.82,232.29C115.14,231.31 115.44,230.26 115.73,229.15C116.05,227.91 116.34,226.58 116.63,225.2C116.94,223.69 117.24,222.09 117.53,220.45C117.84,218.68 118.15,216.83 118.44,214.94C118.75,212.94 119.04,210.84 119.34,208.74C119.65,206.56 119.95,204.32 120.25,202.09C120.55,199.84 120.85,197.55 121.15,195.29C121.45,193.05 121.74,190.8 122.05,188.6C122.35,186.45 122.65,184.31 122.96,182.23C123.26,180.23 123.55,178.26 123.86,176.36C124.15,174.56 124.46,172.8 124.77,171.12C125.06,169.57 125.35,168.05 125.67,166.64C125.96,165.36 126.25,164.12 126.58,163.01C126.86,162.04 127.14,161.1 127.48,160.32C127.76,159.68 128.03,159.03 128.38,158.62C128.65,158.31 128.98,158 129.29,157.96C129.58,157.93 129.92,158.11 130.19,158.34C130.55,158.64 130.82,159.22 131.1,159.78C131.44,160.47 131.72,161.34 132,162.23C132.33,163.27 132.61,164.45 132.9,165.67C133.22,167.03 133.52,168.51 133.81,170.03C134.13,171.68 134.42,173.44 134.71,175.23C135.02,177.15 135.33,179.14 135.62,181.18C135.93,183.32 136.23,185.54 136.52,187.78C136.83,190.1 137.12,192.48 137.42,194.87C137.72,197.31 138.03,199.79 138.33,202.26C138.63,204.74 138.93,207.24 139.23,209.72C139.53,212.17 139.83,214.64 140.14,217.05C140.44,219.41 140.73,221.76 141.04,224.04C141.34,226.22 141.64,228.36 141.95,230.42C142.24,232.35 142.53,234.25 142.85,236.02C143.14,237.63 143.42,239.23 143.75,240.63C144.03,241.82 144.28,243.08 144.66,243.9C144.92,244.46 145.22,245.14 145.56,245.21C145.84,245.27 146.2,244.92 146.47,244.62C146.84,244.21 147.09,243.48 147.37,242.8C147.7,242 147.98,241.04 148.27,240.09C148.59,239.04 148.89,237.9 149.18,236.75C149.49,235.54 149.78,234.27 150.08,233C150.39,231.7 150.69,230.37 150.99,229.05C151.29,227.72 151.59,226.38 151.89,225.06C152.19,223.75 152.48,222.45 152.79,221.17C153.09,219.92 153.39,218.67 153.7,217.46C154,216.29 154.29,215.13 154.6,214C154.9,212.92 155.2,211.85 155.51,210.82C155.81,209.83 156.1,208.86 156.41,207.93C156.7,207.04 157.01,206.18 157.32,205.35C157.61,204.57 157.91,203.81 158.22,203.08C158.51,202.39 158.81,201.73 159.12,201.1C159.41,200.51 159.72,199.94 160.03,199.42C160.32,198.94 160.61,198.46 160.93,198.06C161.22,197.7 161.52,197.35 161.84,197.09C162.13,196.86 162.43,196.67 162.74,196.56C163.03,196.46 163.34,196.43 163.64,196.45C163.94,196.47 164.26,196.56 164.55,196.68C164.86,196.8 165.16,196.99 165.45,197.19C165.76,197.4 166.07,197.65 166.36,197.91C166.67,198.19 166.97,198.5 167.26,198.82C167.57,199.16 167.87,199.52 168.16,199.9C168.47,200.3 168.77,200.72 169.07,201.15C169.38,201.6 169.67,202.07 169.97,202.54C170.28,203.02 170.58,203.53 170.88,204.02C171.18,204.52 171.48,205.02 171.78,205.51C172.08,205.99 172.37,206.47 172.68,206.91C172.97,207.33 173.27,207.76 173.59,208.11C173.88,208.43 174.17,208.76 174.49,208.96C174.78,209.14 175.1,209.32 175.4,209.32C175.7,209.32 176.03,209.19 176.3,208.99C176.64,208.74 176.94,208.29 177.21,207.81C177.56,207.21 177.83,206.43 178.11,205.62C178.44,204.64 178.73,203.5 179.01,202.31C179.34,200.93 179.63,199.41 179.92,197.83C180.24,196.06 180.53,194.15 180.82,192.18C181.14,190.04 181.44,187.78 181.73,185.48C182.04,183.04 182.34,180.51 182.63,177.95C182.94,175.3 183.23,172.57 183.53,169.83C183.84,167.01 184.14,164.14 184.44,161.27C184.74,158.37 185.04,155.42 185.34,152.51C185.64,149.62 185.94,146.72 186.25,143.88C186.55,141.1 186.84,138.33 187.15,135.63C187.45,133.02 187.74,130.44 188.05,127.93C188.35,125.53 188.65,123.18 188.96,120.9C189.25,118.75 189.55,116.64 189.86,114.62C190.15,112.74 190.45,110.91 190.77,109.18C191.06,107.59 191.35,106.04 191.67,104.61C191.96,103.33 192.25,102.09 192.58,100.98C192.86,100.02 193.14,99.08 193.48,98.31C193.76,97.68 194.03,97.05 194.38,96.66C194.65,96.36 194.98,96.06 195.29,96.04C195.59,96.02 195.92,96.24 196.19,96.49C196.55,96.82 196.82,97.42 197.1,98.01C197.44,98.74 197.72,99.66 198,100.6C198.33,101.71 198.61,102.95 198.9,104.25C199.22,105.71 199.52,107.29 199.81,108.92C200.13,110.71 200.42,112.62 200.71,114.58C201.02,116.69 201.33,118.9 201.62,121.16C201.93,123.57 202.23,126.07 202.52,128.62C202.83,131.3 203.12,134.06 203.42,136.86C203.73,139.78 204.03,142.78 204.33,145.82C204.64,148.96 204.93,152.16 205.23,155.39C205.54,158.71 205.84,162.08 206.14,165.48C206.44,168.94 206.74,172.45 207.04,175.97C207.34,179.54 207.65,183.15 207.95,186.76C208.25,190.4 208.55,194.06 208.85,197.73C209.15,201.41 209.45,205.12 209.75,208.81C210.05,212.5 210.36,216.2 210.66,219.88C210.96,223.55 211.26,227.22 211.56,230.86C211.86,234.48 212.17,238.09 212.47,241.66C212.77,245.17 213.07,248.68 213.37,252.12C213.67,255.47 213.96,258.84 214.27,262.03C214.56,265 214.85,267.99 215.18,270.63C215.46,272.88 215.67,275.31 216.08,276.89C216.34,277.89 216.69,279.28 216.99,279.28C217.29,279.28 217.63,277.83 217.89,276.83C218.28,275.36 218.51,273.24 218.79,271.22C219.12,268.88 219.41,266.24 219.7,263.6C220.01,260.75 220.31,257.73 220.6,254.68C220.91,251.49 221.21,248.19 221.51,244.86C221.82,241.42 222.11,237.9 222.41,234.36C222.72,230.73 223.02,227.03 223.32,223.33C223.62,219.57 223.92,215.77 224.22,211.97C224.52,208.15 224.82,204.31 225.12,200.49C225.42,196.68 225.73,192.87 226.03,189.09C226.33,185.35 226.63,181.61 226.93,177.91C227.23,174.27 227.54,170.65 227.84,167.08C228.14,163.59 228.44,160.12 228.74,156.71C229.04,153.39 229.33,150.1 229.64,146.87C229.94,143.74 230.24,140.66 230.55,137.64C230.85,134.73 231.14,131.86 231.45,129.07C231.75,126.4 232.05,123.77 232.36,121.22C232.65,118.8 232.95,116.42 233.26,114.13C233.55,111.98 233.85,109.87 234.16,107.87C234.45,106.01 234.75,104.2 235.07,102.5C235.36,100.95 235.65,99.45 235.97,98.06C236.26,96.81 236.56,95.63 236.88,94.52C237.17,93.53 237.47,92.61 237.78,91.72C238.07,90.89 238.36,90.08 238.68,89.33C238.97,88.65 239.25,87.94 239.59,87.41C239.87,86.98 240.15,86.5 240.49,86.32C240.77,86.18 241.12,86.13 241.4,86.25C241.74,86.39 242.03,86.88 242.3,87.33C242.66,87.93 242.93,88.78 243.21,89.64C243.55,90.7 243.83,91.94 244.11,93.23C244.44,94.73 244.72,96.4 245.01,98.13C245.33,100.07 245.63,102.17 245.92,104.34C246.24,106.72 246.53,109.25 246.82,111.85C247.13,114.65 247.44,117.58 247.73,120.59C248.04,123.79 248.34,127.12 248.63,130.51C248.94,134.08 249.23,137.76 249.53,141.5C249.84,145.4 250.14,149.4 250.44,153.45C250.75,157.63 251.04,161.9 251.34,166.2C251.65,170.59 251.95,175.06 252.25,179.53C252.55,184.05 252.85,188.63 253.15,193.16C253.45,197.66 253.74,202.22 254.05,206.63C254.35,210.89 254.64,215.18 254.96,219.19C255.25,222.87 255.54,226.46 255.86,229.79C256.15,232.76 256.45,235.57 256.77,238.22C257.06,240.58 257.35,242.82 257.67,244.91C257.96,246.76 258.24,248.56 258.58,250.11C258.86,251.38 259.1,252.65 259.48,253.53C259.74,254.14 260.01,254.74 260.38,254.99C260.65,255.17 261.01,255.26 261.29,255.16C261.63,255.04 261.92,254.53 262.19,254.06C262.56,253.41 262.82,252.45 263.1,251.52C263.43,250.43 263.71,249.16 264,247.91C264.31,246.58 264.6,245.17 264.9,243.79C265.2,242.4 265.5,240.97 265.81,239.59C266.11,238.24 266.4,236.9 266.71,235.61C267,234.38 267.31,233.17 267.62,232.02C267.91,230.94 268.21,229.88 268.52,228.89C268.81,227.98 269.1,227.1 269.42,226.31C269.71,225.61 270,224.93 270.33,224.38C270.61,223.92 270.89,223.47 271.23,223.2C271.51,222.98 271.83,222.79 272.14,222.77C272.44,222.75 272.76,222.88 273.04,223.04C273.37,223.23 273.66,223.58 273.95,223.91C274.27,224.28 274.55,224.75 274.85,225.18C275.15,225.61 275.42,226.14 275.75,226.47C276.03,226.75 276.34,226.95 276.66,227.09C276.95,227.22 277.27,227.32 277.56,227.29C277.87,227.25 278.16,226.98 278.47,226.85C278.77,226.72 279.07,226.62 279.37,226.51C279.67,226.39 279.98,226.3 280.27,226.16C280.58,226.01 280.89,225.84 281.18,225.61C281.5,225.36 281.8,225.05 282.08,224.68C282.41,224.24 282.71,223.69 282.99,223.1C283.32,222.42 283.6,221.63 283.89,220.83C284.2,219.97 284.5,219.04 284.79,218.1C285.1,217.11 285.4,216.09 285.7,215.05C286.01,213.98 286.3,212.88 286.6,211.78C286.9,210.66 287.21,209.53 287.51,208.4C287.81,207.28 288.11,206.15 288.41,205.04C288.71,203.94 289.01,202.85 289.32,201.78C289.62,200.75 289.91,199.72 290.22,198.73C290.51,197.79 290.81,196.86 291.12,195.98C291.41,195.16 291.71,194.36 292.03,193.62C292.32,192.95 292.61,192.29 292.93,191.72C293.22,191.21 293.51,190.73 293.84,190.34C294.12,190.01 294.42,189.69 294.74,189.51C295.02,189.35 295.34,189.25 295.64,189.26C295.94,189.27 296.27,189.42 296.55,189.6C296.88,189.81 297.17,190.16 297.45,190.52C297.78,190.94 298.07,191.47 298.36,192.01C298.68,192.62 298.97,193.31 299.26,194.03C299.58,194.82 299.87,195.67 300.16,196.55C300.47,197.51 300.78,198.52 301.07,199.57C301.38,200.69 301.68,201.87 301.97,203.07C302.28,204.34 302.59,205.67 302.88,207.02C303.19,208.44 303.48,209.91 303.78,211.39C304.09,212.92 304.38,214.5 304.68,216.07C304.98,217.66 305.29,219.28 305.59,220.86C305.89,222.4 306.18,223.96 306.49,225.44C306.78,226.83 307.09,228.19 307.4,229.49C307.69,230.72 307.99,231.9 308.3,233.05C308.59,234.14 308.9,235.21 309.21,236.23C309.5,237.19 309.79,238.14 310.11,239.01C310.4,239.79 310.65,240.66 311.01,241.21C311.28,241.62 311.59,242.06 311.92,242.14C312.2,242.21 312.56,242.06 312.82,241.84C313.2,241.52 313.45,240.79 313.73,240.13C314.07,239.31 314.34,238.28 314.63,237.27C314.95,236.15 315.23,234.92 315.53,233.71C315.84,232.45 316.14,231.15 316.44,229.86C316.74,228.56 317.04,227.25 317.34,225.96C317.64,224.7 317.94,223.43 318.25,222.21C318.55,221.04 318.84,219.88 319.15,218.77C319.44,217.73 319.73,216.7 320.05,215.75C320.34,214.88 320.64,214.03 320.96,213.26C321.25,212.58 321.53,211.91 321.86,211.36C322.14,210.89 322.43,210.43 322.77,210.12C323.05,209.86 323.36,209.63 323.67,209.56C323.96,209.49 324.29,209.55 324.58,209.65C324.89,209.76 325.18,210.02 325.48,210.22C325.78,210.43 326.07,210.83 326.38,210.88C326.67,210.92 327.03,210.79 327.29,210.56C327.67,210.22 327.89,209.36 328.19,208.73C328.5,208.08 328.79,207.37 329.1,206.72C329.4,206.1 329.68,205.47 330,204.91C330.29,204.4 330.6,203.96 330.9,203.49C331.2,203.03 331.52,202.61 331.81,202.13C332.12,201.62 332.39,201 332.71,200.52C333,200.08 333.29,199.64 333.62,199.34C333.9,199.08 334.21,198.89 334.52,198.76C334.81,198.64 335.12,198.56 335.42,198.56C335.72,198.56 336.05,198.6 336.33,198.75C336.66,198.93 336.95,199.3 337.23,199.67C337.57,200.12 337.86,200.72 338.14,201.32C338.46,202.01 338.75,202.8 339.04,203.58C339.35,204.42 339.65,205.33 339.95,206.2C340.25,207.06 340.53,207.98 340.85,208.76C341.13,209.44 341.38,210.21 341.75,210.63C342.02,210.93 342.36,211.23 342.66,211.22C342.97,211.2 343.29,210.82 343.56,210.5C343.91,210.09 344.19,209.46 344.47,208.85C344.8,208.16 345.08,207.36 345.37,206.55C345.69,205.65 345.98,204.69 346.27,203.69C346.59,202.59 346.89,201.43 347.18,200.2C347.5,198.84 347.79,197.39 348.08,195.89C348.39,194.26 348.69,192.52 348.99,190.78C349.3,188.98 349.59,187.1 349.89,185.27C350.19,183.46 350.48,181.63 350.79,179.87C351.09,178.17 351.39,176.48 351.7,174.87C351.99,173.35 352.28,171.85 352.6,170.44C352.89,169.14 353.19,167.88 353.51,166.72C353.8,165.68 354.08,164.68 354.41,163.8C354.69,163.04 354.98,162.31 355.32,161.74C355.6,161.28 355.88,160.81 356.22,160.59C356.49,160.41 356.83,160.3 357.12,160.36C357.44,160.42 357.76,160.74 358.03,161.05C358.38,161.45 358.65,162.04 358.93,162.64C359.26,163.36 359.56,164.22 359.84,165.12C360.17,166.15 360.45,167.3 360.74,168.49C361.06,169.82 361.35,171.25 361.64,172.73C361.96,174.34 362.26,176.06 362.55,177.81C362.86,179.69 363.16,181.66 363.45,183.66C363.76,185.77 364.06,187.97 364.36,190.18C364.67,192.47 364.96,194.84 365.26,197.17C365.56,199.5 365.85,201.88 366.16,204.18C366.46,206.42 366.77,208.62 367.07,210.82C367.37,212.98 367.67,215.12 367.97,217.25C368.27,219.36 368.57,221.49 368.88,223.53C369.17,225.48 369.47,227.4 369.78,229.24C370.07,230.96 370.36,232.64 370.68,234.22C370.97,235.68 371.27,237.11 371.59,238.4C371.87,239.54 372.15,240.64 372.49,241.58C372.77,242.36 373.05,243.12 373.4,243.66C373.67,244.07 373.96,244.49 374.3,244.63C374.58,244.75 374.93,244.71 375.21,244.6C375.54,244.47 375.83,244.11 376.11,243.78C376.44,243.39 376.72,242.89 377.01,242.39C377.33,241.85 377.64,241.28 377.92,240.63C378.25,239.88 378.55,239.08 378.82,238.14C379.16,236.96 379.44,235.46 379.73,234.06C380.04,232.57 380.33,230.98 380.63,229.44C380.93,227.91 381.23,226.37 381.53,224.86C381.83,223.38 382.13,221.9 382.44,220.45C382.74,219.04 383.04,217.66 383.34,216.28C383.64,214.91 383.97,213.66 384.25,212.19C384.58,210.5 384.87,208.66 385.15,206.72C385.47,204.54 385.75,202.06 386.05,199.73C386.35,197.41 386.66,195.08 386.96,192.77C387.26,190.47 387.55,188.16 387.86,185.9C388.16,183.68 388.46,181.48 388.77,179.33C389.07,177.26 389.36,175.22 389.67,173.25C389.96,171.37 390.27,169.52 390.58,167.75C390.87,166.08 391.17,164.45 391.48,162.9C391.77,161.46 392.06,160.06 392.38,158.74C392.67,157.54 392.97,156.38 393.29,155.32C393.58,154.37 393.86,153.45 394.19,152.65C394.47,151.96 394.76,151.29 395.1,150.76C395.38,150.32 395.66,149.89 396,149.65C396.28,149.45 396.6,149.31 396.9,149.32C397.21,149.34 397.53,149.53 397.81,149.76C398.15,150.04 398.43,150.49 398.71,150.95C399.04,151.5 399.34,152.17 399.62,152.87C399.94,153.66 400.23,154.55 400.52,155.46C400.84,156.47 401.13,157.55 401.42,158.66C401.73,159.86 402.04,161.12 402.33,162.4C402.64,163.75 402.93,165.16 403.23,166.58C403.54,168.06 403.84,169.58 404.14,171.12C404.45,172.7 404.74,174.31 405.04,175.92C405.34,177.56 405.65,179.22 405.95,180.89C406.25,182.57 406.55,184.27 406.85,185.97C407.15,187.68 407.45,189.39 407.75,191.1C408.05,192.82 408.36,194.53 408.66,196.25C408.96,197.98 409.26,199.71 409.56,201.45C409.86,203.2 410.17,204.96 410.47,206.72C410.77,208.49 411.07,210.3 411.37,212.05C411.67,213.74 411.96,215.41 412.27,217.04C412.57,218.62 412.88,220.14 413.18,221.68C413.48,223.22 413.78,224.75 414.08,226.28C414.38,227.8 414.69,229.32 414.99,230.83C415.29,232.32 415.59,233.8 415.89,235.26C416.19,236.68 416.48,238.09 416.79,239.47C417.09,240.8 417.39,242.1 417.7,243.38C418,244.61 418.29,245.82 418.6,246.98C418.89,248.08 419.2,249.16 419.51,250.18C419.8,251.12 420.09,252.05 420.41,252.88C420.7,253.63 420.99,254.35 421.32,254.96C421.6,255.48 421.88,255.99 422.22,256.34C422.5,256.62 422.8,256.89 423.12,256.97C423.41,257.04 423.75,256.99 424.03,256.86C424.36,256.71 424.65,256.36 424.93,256.02C425.26,255.61 425.56,255.08 425.84,254.53C426.16,253.9 426.45,253.18 426.74,252.45C427.05,251.65 427.35,250.79 427.64,249.91C427.95,248.98 428.25,248.01 428.55,247.03C428.86,246.02 429.15,244.98 429.45,243.94C429.75,242.89 430.06,241.81 430.36,240.75C430.66,239.68 430.96,238.61 431.26,237.55C431.56,236.5 431.86,235.46 432.16,234.43C432.46,233.41 432.77,232.4 433.07,231.39C433.37,230.39 433.67,229.4 433.97,228.42C434.27,227.44 434.58,226.47 434.88,225.51C435.18,224.55 435.48,223.6 435.78,222.66C436.08,221.74 436.37,220.83 436.68,219.94C436.98,219.07 437.28,218.22 437.59,217.39C437.89,216.59 438.18,215.81 438.49,215.06C438.78,214.35 439.09,213.66 439.4,213C439.69,212.38 439.99,211.77 440.3,211.21C440.59,210.69 440.9,210.19 441.21,209.73C441.5,209.31 441.8,208.9 442.11,208.55C442.4,208.23 442.7,207.93 443.01,207.68C443.3,207.45 443.61,207.24 443.92,207.09C444.21,206.95 444.52,206.85 444.82,206.78C445.12,206.71 445.43,206.69 445.73,206.69C446.03,206.69 446.33,206.74 446.63,206.8C446.93,206.86 447.23,206.95 447.53,207.06C447.84,207.17 448.14,207.32 448.44,207.47C448.74,207.62 449.03,207.91 449.34,207.95C449.64,207.99 449.97,207.92 450.25,207.75C450.59,207.54 450.86,207.04 451.15,206.64C451.46,206.21 451.75,205.71 452.05,205.24C452.35,204.77 452.65,204.29 452.96,203.83C453.26,203.39 453.55,202.95 453.86,202.55C454.15,202.17 454.46,201.79 454.77,201.46C455.06,201.15 455.36,200.85 455.67,200.6C455.96,200.36 456.27,200.14 456.58,199.97C456.87,199.81 457.17,199.67 457.48,199.58C457.77,199.49 458.08,199.44 458.38,199.42C458.68,199.4 458.99,199.41 459.29,199.44C459.59,199.47 459.89,199.54 460.19,199.61C460.49,199.68 460.8,199.78 461.1,199.87Q461.4,199.95 462,200.12" style="vector-effect: non-scaling-stroke; fill: none; stroke: rgb(0, 176, 246); stroke-opacity: 1; stroke-width: 2px; opacity: 1;"/></g><g class="points"/><g class="text"/></g><g class="trace scatter traceab6e3b" style="stroke-miterlimit: 2; opacity: 1;"><g class="fills"/><g class="errorbars"/><g class="lines"><path class="js-line" d="M0,272.21Q0.64,271.35 0.9,270.7C1.3,269.7 1.53,268.12 1.81,266.64C2.14,264.89 2.42,262.88 2.71,260.87C3.03,258.69 3.32,256.36 3.62,254.04C3.93,251.62 4.22,249.12 4.52,246.63C4.82,244.1 5.12,241.52 5.42,238.97C5.72,236.41 6.03,233.83 6.33,231.29C6.63,228.78 6.93,226.27 7.23,223.8C7.53,221.38 7.83,218.97 8.14,216.61C8.44,214.31 8.73,212.04 9.04,209.81C9.34,207.65 9.64,205.53 9.95,203.44C10.25,201.42 10.54,199.43 10.85,197.49C11.14,195.62 11.44,193.77 11.75,191.98C12.05,190.26 12.35,188.57 12.66,186.95C12.95,185.42 13.24,183.93 13.56,182.52C13.85,181.23 14.15,179.97 14.47,178.81C14.76,177.77 15.04,176.77 15.37,175.89C15.65,175.13 15.93,174.4 16.27,173.81C16.55,173.33 16.84,172.86 17.18,172.59C17.45,172.38 17.78,172.22 18.08,172.22C18.38,172.23 18.71,172.41 18.99,172.63C19.33,172.89 19.61,173.34 19.89,173.77C20.22,174.27 20.5,174.88 20.79,175.5C21.11,176.18 21.4,176.93 21.7,177.68C22.01,178.46 22.3,179.29 22.6,180.09C22.9,180.89 23.2,181.71 23.51,182.48C23.8,183.21 24.09,183.95 24.41,184.59C24.7,185.16 24.98,185.75 25.32,186.17C25.6,186.51 25.9,186.86 26.22,186.97C26.5,187.07 26.84,187.03 27.12,186.91C27.45,186.78 27.75,186.44 28.03,186.12C28.36,185.75 28.64,185.27 28.93,184.78C29.25,184.24 29.55,183.62 29.84,183C30.15,182.34 30.45,181.63 30.74,180.91C31.05,180.16 31.34,179.38 31.64,178.61C31.94,177.82 32.25,177.02 32.55,176.22C32.85,175.43 33.14,174.63 33.45,173.85C33.75,173.09 34.05,172.34 34.36,171.62C34.65,170.93 34.95,170.25 35.26,169.62C35.55,169.04 35.84,168.47 36.16,167.97C36.45,167.52 36.75,167.08 37.07,166.74C37.35,166.44 37.65,166.16 37.97,166C38.26,165.86 38.58,165.77 38.88,165.8C39.19,165.83 39.5,165.99 39.78,166.19C40.11,166.42 40.4,166.79 40.68,167.17C41.01,167.61 41.29,168.16 41.59,168.68C41.9,169.23 42.17,169.87 42.49,170.39C42.78,170.85 43.1,171.24 43.4,171.65C43.7,172.06 44.02,172.41 44.3,172.86C44.62,173.38 44.93,173.96 45.21,174.6C45.53,175.32 45.83,176.14 46.11,176.99C46.43,177.94 46.72,178.99 47.01,180.06C47.33,181.23 47.63,182.47 47.92,183.74C48.23,185.09 48.53,186.5 48.82,187.94C49.13,189.46 49.44,191.03 49.73,192.64C50.04,194.34 50.34,196.09 50.63,197.88C50.94,199.77 51.24,201.71 51.53,203.7C51.84,205.78 52.14,207.92 52.44,210.09C52.75,212.34 53.04,214.65 53.34,216.97C53.65,219.34 53.95,221.78 54.25,224.17C54.55,226.55 54.84,228.95 55.15,231.28C55.45,233.53 55.74,235.73 56.05,237.91C56.35,240.02 56.65,242.13 56.96,244.15C57.25,246.07 57.54,248 57.86,249.76C58.15,251.34 58.42,252.95 58.77,254.25C59.04,255.27 59.25,256.42 59.67,256.94C59.93,257.25 60.3,257.52 60.58,257.46C60.92,257.38 61.21,256.68 61.48,256.16C61.83,255.49 62.09,254.57 62.38,253.7C62.7,252.75 62.99,251.7 63.29,250.68C63.6,249.63 63.89,248.54 64.19,247.48C64.49,246.43 64.79,245.36 65.1,244.34C65.4,243.35 65.69,242.37 66,241.44C66.29,240.56 66.58,239.7 66.9,238.9C67.19,238.16 67.49,237.44 67.81,236.8C68.1,236.22 68.38,235.67 68.71,235.21C68.99,234.81 69.29,234.43 69.62,234.17C69.9,233.95 70.21,233.77 70.52,233.71C70.81,233.65 71.13,233.69 71.42,233.78C71.73,233.87 72.03,234.11 72.33,234.27C72.63,234.43 72.92,234.72 73.23,234.76C73.53,234.8 73.84,234.55 74.14,234.52C74.44,234.49 74.75,234.48 75.04,234.58C75.36,234.69 75.67,234.94 75.95,235.23C76.29,235.58 76.57,236.09 76.85,236.62C77.18,237.25 77.47,238.01 77.75,238.8C78.08,239.71 78.37,240.73 78.66,241.79C78.98,242.96 79.27,244.24 79.56,245.54C79.87,246.95 80.18,248.44 80.47,249.96C80.78,251.57 81.08,253.24 81.37,254.94C81.68,256.72 81.97,258.55 82.27,260.41C82.58,262.34 82.88,264.32 83.18,266.31C83.49,268.35 83.78,270.44 84.08,272.52C84.38,274.63 84.69,276.77 84.99,278.89C85.29,281 85.59,283.12 85.89,285.19C86.19,287.2 86.48,289.22 86.79,291.13C87.08,292.93 87.38,294.71 87.7,296.34C87.99,297.8 88.26,299.25 88.6,300.46C88.88,301.45 89.12,302.49 89.51,303.11C89.77,303.53 90.11,304.01 90.41,304C90.72,303.99 91.06,303.43 91.32,302.96C91.71,302.26 91.94,301.14 92.22,300.06C92.56,298.74 92.83,297.18 93.12,295.61C93.44,293.85 93.74,291.93 94.03,290C94.34,287.94 94.63,285.78 94.93,283.61C95.24,281.36 95.54,279.06 95.84,276.75C96.14,274.39 96.44,272 96.74,269.6C97.04,267.18 97.34,264.73 97.64,262.3C97.94,259.86 98.25,257.41 98.55,254.99C98.85,252.6 99.14,250.22 99.45,247.88C99.75,245.6 100.05,243.34 100.36,241.13C100.66,239 100.95,236.89 101.26,234.85C101.55,232.9 101.85,230.97 102.16,229.12C102.45,227.36 102.76,225.65 103.07,224C103.36,222.46 103.66,220.96 103.97,219.53C104.26,218.2 104.56,216.92 104.88,215.7C105.17,214.58 105.46,213.51 105.78,212.51C106.07,211.6 106.36,210.73 106.68,209.93C106.97,209.21 107.27,208.53 107.59,207.9C107.88,207.34 108.17,206.81 108.49,206.33C108.78,205.89 109.09,205.49 109.4,205.1C109.69,204.73 110,204.39 110.3,204.04C110.6,203.69 110.91,203.36 111.21,202.99C111.52,202.6 111.82,202.2 112.11,201.76C112.42,201.27 112.72,200.75 113.01,200.18C113.33,199.54 113.63,198.83 113.92,198.08C114.24,197.23 114.53,196.3 114.82,195.32C115.14,194.22 115.44,193.04 115.73,191.81C116.05,190.46 116.34,189.01 116.63,187.53C116.94,185.93 117.24,184.25 117.53,182.53C117.84,180.72 118.14,178.83 118.44,176.92C118.75,174.93 119.04,172.88 119.34,170.81C119.65,168.68 119.95,166.5 120.25,164.31C120.55,162.07 120.85,159.81 121.15,157.53C121.45,155.23 121.75,152.89 122.05,150.57C122.35,148.24 122.66,145.91 122.96,143.59C123.26,141.3 123.56,139 123.86,136.74C124.16,134.52 124.46,132.31 124.77,130.15C125.07,128.05 125.36,125.97 125.67,123.94C125.97,121.99 126.27,120.07 126.58,118.22C126.87,116.47 127.17,114.76 127.48,113.13C127.77,111.62 128.06,110.15 128.38,108.78C128.67,107.54 128.97,106.35 129.29,105.27C129.57,104.32 129.85,103.41 130.19,102.64C130.47,102 130.75,101.38 131.1,100.96C131.37,100.64 131.68,100.31 132,100.25C132.29,100.2 132.63,100.33 132.9,100.53C133.25,100.78 133.54,101.29 133.81,101.8C134.15,102.43 134.43,103.25 134.71,104.09C135.04,105.08 135.33,106.21 135.62,107.38C135.94,108.71 136.23,110.16 136.52,111.66C136.84,113.32 137.13,115.09 137.42,116.91C137.73,118.88 138.04,120.96 138.33,123.08C138.64,125.34 138.94,127.69 139.23,130.09C139.54,132.61 139.84,135.2 140.14,137.83C140.45,140.55 140.74,143.35 141.04,146.15C141.34,149 141.65,151.91 141.95,154.79C142.25,157.67 142.55,160.59 142.85,163.43C143.15,166.18 143.43,168.96 143.75,171.56C144.04,173.95 144.33,176.37 144.66,178.44C144.94,180.17 145.18,181.9 145.56,183.16C145.82,184.04 146.05,185.05 146.47,185.33C146.73,185.51 147.11,185.5 147.37,185.35C147.74,185.14 147.99,184.4 148.27,183.81C148.61,183.07 148.89,182.14 149.18,181.23C149.5,180.23 149.78,179.12 150.08,178.04C150.39,176.92 150.69,175.75 150.99,174.62C151.29,173.5 151.58,172.37 151.89,171.29C152.18,170.26 152.47,169.23 152.79,168.27C153.08,167.39 153.38,166.53 153.7,165.76C153.98,165.08 154.27,164.42 154.6,163.88C154.88,163.43 155.17,162.98 155.51,162.72C155.79,162.51 156.11,162.33 156.41,162.33C156.71,162.33 157.04,162.52 157.32,162.74C157.66,163.01 157.94,163.48 158.22,163.95C158.55,164.51 158.84,165.2 159.12,165.92C159.45,166.74 159.74,167.66 160.03,168.62C160.35,169.68 160.64,170.83 160.93,172.01C161.24,173.29 161.55,174.64 161.84,176.03C162.15,177.52 162.45,179.07 162.74,180.66C163.05,182.35 163.35,184.1 163.64,185.89C163.95,187.77 164.25,189.71 164.55,191.69C164.86,193.75 165.15,195.87 165.45,198C165.76,200.19 166.06,202.43 166.36,204.65C166.66,206.88 166.96,209.11 167.26,211.34C167.56,213.57 167.85,215.91 168.16,218.05C168.45,220.03 168.76,221.93 169.07,223.76C169.36,225.45 169.65,227.11 169.97,228.65C170.26,230.03 170.58,231.24 170.88,232.58C171.19,233.98 171.48,235.42 171.78,236.87C172.08,238.37 172.38,239.92 172.68,241.45C172.98,243 173.28,244.59 173.59,246.12C173.89,247.61 174.18,249.13 174.49,250.54C174.78,251.84 175.07,253.17 175.4,254.29C175.68,255.22 175.91,256.25 176.3,256.82C176.56,257.2 176.93,257.62 177.21,257.58C177.54,257.53 177.85,256.79 178.11,256.2C178.5,255.32 178.73,253.99 179.01,252.69C179.35,251.08 179.63,249.18 179.92,247.25C180.24,245.06 180.53,242.65 180.82,240.2C181.14,237.54 181.44,234.72 181.73,231.87C182.04,228.88 182.33,225.77 182.63,222.65C182.93,219.44 183.23,216.15 183.53,212.88C183.83,209.57 184.14,206.23 184.44,202.91C184.74,199.6 185.04,196.27 185.34,192.98C185.64,189.73 185.95,186.49 186.25,183.29C186.55,180.16 186.85,177.05 187.15,173.99C187.45,171.02 187.74,168.07 188.05,165.19C188.35,162.4 188.65,159.65 188.96,156.97C189.26,154.39 189.55,151.85 189.86,149.39C190.15,147.04 190.46,144.74 190.77,142.52C191.06,140.42 191.36,138.37 191.67,136.4C191.96,134.56 192.26,132.77 192.58,131.08C192.87,129.53 193.16,128.02 193.48,126.62C193.77,125.37 194.05,124.16 194.38,123.08C194.66,122.14 194.95,121.23 195.29,120.48C195.57,119.87 195.84,119.26 196.19,118.88C196.46,118.59 196.79,118.3 197.1,118.28C197.4,118.26 197.73,118.48 198,118.72C198.35,119.04 198.63,119.62 198.9,120.19C199.24,120.9 199.53,121.78 199.81,122.7C200.14,123.77 200.42,124.99 200.71,126.25C201.03,127.67 201.33,129.22 201.62,130.82C201.94,132.59 202.23,134.47 202.52,136.41C202.83,138.51 203.13,140.72 203.42,142.99C203.73,145.41 204.04,147.94 204.33,150.52C204.64,153.25 204.94,156.08 205.23,158.96C205.54,161.98 205.84,165.1 206.14,168.26C206.45,171.56 206.74,174.93 207.04,178.36C207.35,181.91 207.65,185.53 207.95,189.19C208.26,192.96 208.55,196.79 208.85,200.66C209.15,204.62 209.45,208.64 209.75,212.68C210.05,216.8 210.36,220.96 210.66,225.14C210.96,229.38 211.26,233.65 211.56,237.93C211.86,242.24 212.17,246.58 212.47,250.9C212.77,255.22 213.07,259.56 213.37,263.85C213.67,268.09 213.96,272.36 214.27,276.49C214.57,280.46 214.86,284.48 215.18,288.15C215.47,291.44 215.53,295.64 216.08,297.5C216.33,298.36 216.73,299.31 216.99,299.27C217.44,299.2 217.62,295.45 217.89,293.22C218.23,290.48 218.5,287.2 218.79,284.02C219.1,280.61 219.4,277.01 219.7,273.4C220.01,269.66 220.3,265.82 220.6,261.96C220.91,258.02 221.21,254.02 221.51,250C221.81,245.92 222.11,241.81 222.41,237.68C222.71,233.51 223.02,229.31 223.32,225.1C223.62,220.86 223.92,216.59 224.22,212.32C224.52,208.03 224.82,203.72 225.12,199.42C225.42,195.11 225.73,190.79 226.03,186.5C226.33,182.23 226.63,177.97 226.93,173.74C227.23,169.57 227.54,165.41 227.84,161.31C228.14,157.29 228.44,153.29 228.74,149.36C229.04,145.54 229.33,141.75 229.64,138.04C229.94,134.45 230.24,130.91 230.55,127.46C230.85,124.15 231.14,120.88 231.45,117.72C231.74,114.71 232.05,111.76 232.36,108.92C232.65,106.24 232.95,103.63 233.26,101.13C233.55,98.81 233.84,96.55 234.16,94.42C234.45,92.47 234.75,90.59 235.07,88.85C235.36,87.3 235.64,85.82 235.97,84.49C236.25,83.35 236.54,82.25 236.88,81.35C237.15,80.64 237.41,79.9 237.78,79.49C238.04,79.19 238.38,78.9 238.68,78.92C238.99,78.94 239.32,79.3 239.59,79.64C239.96,80.11 240.22,80.89 240.49,81.66C240.83,82.62 241.12,83.78 241.4,84.98C241.73,86.38 242.01,87.93 242.3,89.55C242.62,91.37 242.92,93.33 243.21,95.36C243.53,97.58 243.82,99.94 244.11,102.36C244.42,104.97 244.72,107.7 245.01,110.5C245.32,113.47 245.63,116.55 245.92,119.7C246.23,123.01 246.52,126.43 246.82,129.9C247.13,133.52 247.43,137.23 247.73,141C248.04,144.9 248.33,148.88 248.63,152.91C248.93,157.05 249.23,161.26 249.53,165.51C249.83,169.85 250.14,174.25 250.44,178.67C250.74,183.16 251.04,187.7 251.34,192.24C251.64,196.82 251.95,201.43 252.25,206.02C252.55,210.61 252.85,215.24 253.15,219.8C253.45,224.31 253.74,228.83 254.05,233.24C254.35,237.52 254.65,241.8 254.96,245.88C255.25,249.72 255.54,253.54 255.86,257.07C256.15,260.24 256.44,263.34 256.77,266.1C257.05,268.44 257.32,270.7 257.67,272.57C257.94,274.02 258.19,275.43 258.58,276.39C258.84,277.03 259.12,277.78 259.48,277.89C259.75,277.97 260.12,277.75 260.38,277.49C260.77,277.1 261.02,276.24 261.29,275.46C261.64,274.48 261.9,273.24 262.19,272.03C262.51,270.69 262.8,269.2 263.1,267.75C263.41,266.25 263.7,264.69 264,263.15C264.3,261.61 264.6,260.05 264.9,258.53C265.2,257.03 265.5,255.55 265.81,254.09C266.11,252.68 266.4,251.28 266.71,249.93C267.01,248.63 267.31,247.35 267.62,246.12C267.91,244.95 268.21,243.8 268.52,242.7C268.81,241.65 269.11,240.63 269.42,239.66C269.71,238.75 270.02,237.86 270.33,237.02C270.62,236.23 270.92,235.47 271.23,234.75C271.52,234.08 271.83,233.43 272.14,232.83C272.43,232.27 272.73,231.75 273.04,231.26C273.33,230.81 273.64,230.39 273.95,230.01C274.24,229.66 274.54,229.33 274.85,229.05C275.14,228.79 275.44,228.55 275.75,228.36C276.04,228.18 276.35,228.04 276.66,227.92C276.96,227.81 277.26,227.72 277.56,227.67C277.86,227.62 278.17,227.6 278.47,227.6C278.77,227.6 279.07,227.62 279.37,227.64C279.67,227.66 279.97,227.72 280.27,227.73C280.57,227.74 280.9,227.8 281.18,227.67C281.52,227.51 281.79,227.07 282.08,226.7C282.4,226.28 282.69,225.77 282.99,225.28C283.3,224.78 283.59,224.26 283.89,223.74C284.19,223.22 284.49,222.68 284.79,222.15C285.09,221.61 285.4,221.06 285.7,220.52C286,219.98 286.3,219.43 286.6,218.89C286.9,218.35 287.21,217.8 287.51,217.27C287.81,216.74 288.11,216.22 288.41,215.71C288.71,215.21 289.01,214.72 289.32,214.24C289.62,213.78 289.91,213.32 290.22,212.89C290.51,212.48 290.81,212.07 291.12,211.7C291.42,211.34 291.72,211 292.03,210.69C292.32,210.4 292.62,210.12 292.93,209.89C293.22,209.67 293.53,209.47 293.84,209.32C294.13,209.18 294.44,209.07 294.74,209.01C295.04,208.95 295.34,208.94 295.64,208.97C295.94,209 296.26,209.07 296.55,209.19C296.86,209.31 297.16,209.49 297.45,209.69C297.76,209.9 298.07,210.17 298.36,210.45C298.67,210.75 298.97,211.1 299.26,211.46C299.57,211.84 299.87,212.26 300.16,212.69C300.47,213.15 300.77,213.63 301.07,214.13C301.38,214.65 301.67,215.2 301.97,215.76C302.28,216.34 302.58,216.93 302.88,217.53C303.19,218.15 303.48,218.8 303.78,219.44C304.08,220.1 304.38,220.76 304.68,221.43C304.98,222.11 305.29,222.8 305.59,223.49C305.89,224.18 306.19,224.88 306.49,225.57C306.79,226.26 307.1,226.95 307.4,227.64C307.7,228.32 308,229 308.3,229.67C308.6,230.33 308.91,230.98 309.21,231.63C309.51,232.26 309.81,232.89 310.11,233.51C310.41,234.12 310.71,234.72 311.01,235.32C311.31,235.91 311.62,236.5 311.92,237.09C312.22,237.68 312.52,238.27 312.82,238.88C313.13,239.5 313.43,240.12 313.73,240.77C314.04,241.44 314.34,242.13 314.63,242.84C314.94,243.59 315.24,244.37 315.53,245.18C315.84,246.04 316.15,246.93 316.44,247.86C316.75,248.84 317.05,249.87 317.34,250.92C317.65,252.04 317.95,253.22 318.25,254.39C318.55,255.58 318.85,256.8 319.15,258.01C319.45,259.23 319.75,260.44 320.05,261.7C320.36,263.01 320.66,264.35 320.96,265.71C321.27,267.11 321.56,268.55 321.86,269.98C322.16,271.43 322.47,272.91 322.77,274.36C323.07,275.78 323.36,277.23 323.67,278.59C323.96,279.85 324.25,281.15 324.58,282.24C324.86,283.15 325.09,284.16 325.48,284.7C325.74,285.05 326.09,285.42 326.38,285.39C326.7,285.35 327.03,284.78 327.29,284.3C327.67,283.61 327.92,282.56 328.19,281.5C328.54,280.14 328.82,278.48 329.1,276.76C329.43,274.74 329.71,272.45 330,270.13C330.32,267.56 330.61,264.8 330.9,262.01C331.21,259.06 331.51,255.98 331.81,252.9C332.12,249.73 332.41,246.47 332.71,243.23C333.01,239.95 333.32,236.63 333.62,233.33C333.92,230.03 334.22,226.71 334.52,223.42C334.82,220.15 335.12,216.89 335.42,213.65C335.72,210.44 336.03,207.26 336.33,204.05C336.63,200.83 336.93,197.61 337.23,194.38C337.53,191.12 337.84,187.81 338.14,184.58C338.44,181.42 338.73,178.27 339.04,175.2C339.34,172.23 339.64,169.3 339.95,166.45C340.25,163.71 340.54,161.02 340.85,158.41C341.14,155.93 341.44,153.49 341.75,151.15C342.04,148.94 342.35,146.79 342.66,144.73C342.95,142.81 343.24,140.95 343.56,139.18C343.85,137.55 344.15,135.98 344.47,134.51C344.76,133.18 345.05,131.9 345.37,130.72C345.65,129.68 345.94,128.69 346.27,127.8C346.55,127.03 346.85,126.3 347.18,125.7C347.46,125.2 347.74,124.71 348.08,124.4C348.36,124.15 348.68,123.92 348.99,123.88C349.28,123.84 349.61,123.96 349.89,124.14C350.23,124.36 350.51,124.78 350.79,125.2C351.13,125.72 351.42,126.39 351.7,127.08C352.03,127.89 352.32,128.83 352.6,129.8C352.92,130.9 353.22,132.11 353.51,133.36C353.83,134.74 354.12,136.22 354.41,137.74C354.72,139.39 355.03,141.11 355.32,142.89C355.63,144.79 355.93,146.76 356.22,148.78C356.53,150.9 356.82,153.1 357.12,155.33C357.43,157.66 357.73,160.05 358.03,162.47C358.34,164.97 358.63,167.53 358.93,170.11C359.24,172.76 359.54,175.45 359.84,178.16C360.14,180.92 360.44,183.72 360.74,186.53C361.04,189.37 361.34,192.24 361.64,195.11C361.94,198 362.25,200.92 362.55,203.83C362.85,206.74 363.15,209.66 363.45,212.57C363.75,215.46 364.06,218.35 364.36,221.22C364.66,224.06 364.96,226.89 365.26,229.69C365.56,232.44 365.85,235.18 366.16,237.87C366.46,240.48 366.76,243.13 367.07,245.6C367.36,247.88 367.66,250.06 367.97,252.17C368.26,254.13 368.57,255.98 368.88,257.83C369.18,259.61 369.47,261.37 369.78,263.08C370.07,264.72 370.37,266.34 370.68,267.91C370.97,269.4 371.28,270.86 371.59,272.25C371.88,273.55 372.17,274.81 372.49,275.99C372.78,277.07 373.08,278.11 373.4,279.05C373.68,279.88 373.97,280.67 374.3,281.36C374.58,281.95 374.88,282.5 375.21,282.94C375.49,283.31 375.78,283.66 376.11,283.85C376.39,284.01 376.72,284.14 377.01,284.1C377.32,284.06 377.64,283.81 377.92,283.56C378.25,283.26 378.55,282.87 378.82,282.37C379.19,281.68 379.44,280.66 379.73,279.71C380.05,278.63 380.34,277.42 380.63,276.22C380.94,274.95 381.24,273.63 381.53,272.28C381.84,270.86 382.15,269.4 382.44,267.89C382.75,266.3 383.05,264.7 383.34,262.98C383.66,261.1 383.96,259.13 384.25,257.05C384.57,254.76 384.86,252.29 385.15,249.8C385.46,247.17 385.76,244.47 386.05,241.66C386.36,238.65 386.67,235.51 386.96,232.32C387.27,228.96 387.56,225.47 387.86,221.97C388.17,218.38 388.47,214.7 388.77,211.05C389.07,207.37 389.37,203.66 389.67,199.96C389.97,196.26 390.28,192.55 390.58,188.87C390.88,185.21 391.18,181.55 391.48,177.92C391.78,174.34 392.08,170.76 392.38,167.24C392.68,163.78 392.98,160.35 393.29,156.97C393.59,153.68 393.88,150.41 394.19,147.22C394.49,144.13 394.79,141.09 395.1,138.12C395.4,135.28 395.69,132.48 396,129.78C396.29,127.22 396.59,124.71 396.9,122.3C397.19,120.05 397.49,117.84 397.81,115.76C398.1,113.85 398.39,111.99 398.71,110.26C399,108.71 399.29,107.21 399.62,105.86C399.9,104.69 400.18,103.57 400.52,102.62C400.79,101.85 401.06,101.08 401.42,100.58C401.69,100.21 402.01,99.82 402.33,99.77C402.62,99.73 402.96,99.95 403.23,100.2C403.6,100.55 403.87,101.23 404.14,101.88C404.49,102.7 404.76,103.73 405.04,104.79C405.37,106.03 405.66,107.43 405.95,108.88C406.27,110.51 406.56,112.27 406.85,114.08C407.16,116.05 407.46,118.14 407.75,120.28C408.06,122.56 408.36,124.95 408.66,127.36C408.97,129.88 409.26,132.52 409.56,135.09C409.86,137.66 410.18,140.16 410.47,142.8C410.78,145.57 411.08,148.42 411.37,151.32C411.68,154.35 411.97,157.45 412.27,160.6C412.58,163.86 412.88,167.18 413.18,170.54C413.49,173.98 413.78,177.48 414.08,181C414.38,184.58 414.69,188.2 414.99,191.83C415.29,195.48 415.59,199.17 415.89,202.84C416.19,206.5 416.49,210.18 416.79,213.81C417.09,217.38 417.39,220.97 417.7,224.45C418,227.79 418.28,231.22 418.6,234.29C418.89,237.01 419.18,239.62 419.51,241.95C419.79,243.92 420.08,245.73 420.41,247.4C420.69,248.83 420.98,250.22 421.32,251.37C421.59,252.29 421.82,253.29 422.22,253.8C422.48,254.13 422.85,254.49 423.12,254.42C423.48,254.33 423.77,253.42 424.03,252.67C424.44,251.49 424.65,249.65 424.93,247.9C425.27,245.79 425.55,243.31 425.84,240.89C426.15,238.31 426.44,235.59 426.74,232.89C427.04,230.12 427.34,227.3 427.64,224.49C427.94,221.66 428.25,218.8 428.55,215.97C428.85,213.15 429.15,210.32 429.45,207.52C429.75,204.75 430.06,202 430.36,199.27C430.66,196.59 430.96,193.93 431.26,191.31C431.56,188.75 431.85,186.21 432.16,183.71C432.46,181.27 432.76,178.87 433.07,176.5C433.37,174.2 433.66,171.92 433.97,169.69C434.27,167.52 434.57,165.38 434.88,163.28C435.18,161.24 435.48,159.24 435.78,157.26C436.08,155.34 436.37,153.44 436.68,151.57C436.98,149.75 437.28,147.96 437.59,146.19C437.89,144.46 438.19,142.75 438.49,141.06C438.79,139.4 439.1,137.76 439.4,136.13C439.7,134.53 440,132.94 440.3,131.36C440.6,129.8 440.91,128.25 441.21,126.7C441.51,125.16 441.81,123.64 442.11,122.11C442.41,120.58 442.71,119.06 443.01,117.54C443.31,116.01 443.62,114.49 443.92,112.95C444.22,111.4 444.52,109.85 444.82,108.28C445.12,106.69 445.43,105.09 445.73,103.47C446.04,101.81 446.33,100.14 446.63,98.44C446.93,96.68 447.23,94.9 447.53,93.07C447.84,91.17 448.14,89.23 448.44,87.26C448.75,85.21 449.04,83.11 449.34,80.99C449.65,78.82 449.95,76.61 450.25,74.41C450.55,72.19 450.85,69.94 451.15,67.71C451.45,65.49 451.75,63.25 452.05,61.05C452.35,58.87 452.65,56.7 452.96,54.57C453.26,52.48 453.55,50.41 453.86,48.38C454.16,46.41 454.46,44.45 454.77,42.55C455.07,40.72 455.36,38.92 455.67,37.17C455.96,35.5 456.27,33.87 456.58,32.29C456.87,30.8 457.17,29.35 457.48,27.97C457.77,26.68 458.06,25.44 458.38,24.26C458.67,23.18 458.97,22.14 459.29,21.18C459.58,20.32 459.86,19.5 460.19,18.77C460.47,18.14 460.77,17.53 461.1,17.04Q461.38,16.63 462,16" style="vector-effect: non-scaling-stroke; fill: none; stroke: rgb(231, 107, 243); stroke-opacity: 1; stroke-width: 2px; opacity: 1;"/></g><g class="points"/><g class="text"/></g></g></g><g class="overplot"/><path class="xlines-above crisp" d="M0,0" style="fill: none;"/><path class="ylines-above crisp" d="M0,0" style="fill: none;"/><g class="overlines-above"/><g class="xaxislayer-above"><g class="xtick"><text text-anchor="middle" x="0" y="433" transform="translate(80,0)" style="font-family: 'Open Sans', verdana, arial, sans-serif; font-size: 12px; fill: rgb(42, 63, 95); fill-opacity: 1; white-space: pre;">0</text></g><g class="xtick"><text text-anchor="middle" x="0" y="433" transform="translate(170.23000000000002,0)" style="font-family: 'Open Sans', verdana, arial, sans-serif; font-size: 12px; fill: rgb(42, 63, 95); fill-opacity: 1; white-space: pre;">100</text></g><g class="xtick"><text text-anchor="middle" x="0" y="433" transform="translate(260.47,0)" style="font-family: 'Open Sans', verdana, arial, sans-serif; font-size: 12px; fill: rgb(42, 63, 95); fill-opacity: 1; white-space: pre;">200</text></g><g class="xtick"><text text-anchor="middle" x="0" y="433" transform="translate(350.7,0)" style="font-family: 'Open Sans', verdana, arial, sans-serif; font-size: 12px; fill: rgb(42, 63, 95); fill-opacity: 1; white-space: pre;">300</text></g><g class="xtick"><text text-anchor="middle" x="0" y="433" transform="translate(440.94,0)" style="font-family: 'Open Sans', verdana, arial, sans-serif; font-size: 12px; fill: rgb(42, 63, 95); fill-opacity: 1; white-space: pre;">400</text></g><g class="xtick"><text text-anchor="middle" x="0" y="433" transform="translate(531.1700000000001,0)" style="font-family: 'Open Sans', verdana, arial, sans-serif; font-size: 12px; fill: rgb(42, 63, 95); fill-opacity: 1; white-space: pre;">500</text></g></g><g class="yaxislayer-above"><g class="ytick"><text text-anchor="end" x="79" y="4.199999999999999" transform="translate(0,402.68)" style="font-family: 'Open Sans', verdana, arial, sans-serif; font-size: 12px; fill: rgb(42, 63, 95); fill-opacity: 1; white-space: pre;">400</text></g><g class="ytick"><text text-anchor="end" x="79" y="4.199999999999999" transform="translate(0,354.15)" style="font-family: 'Open Sans', verdana, arial, sans-serif; font-size: 12px; fill: rgb(42, 63, 95); fill-opacity: 1; white-space: pre;">600</text></g><g class="ytick"><text text-anchor="end" x="79" y="4.199999999999999" transform="translate(0,305.63)" style="font-family: 'Open Sans', verdana, arial, sans-serif; font-size: 12px; fill: rgb(42, 63, 95); fill-opacity: 1; white-space: pre;">800</text></g><g class="ytick"><text text-anchor="end" x="79" y="4.199999999999999" transform="translate(0,257.1)" style="font-family: 'Open Sans', verdana, arial, sans-serif; font-size: 12px; fill: rgb(42, 63, 95); fill-opacity: 1; white-space: pre;">1000</text></g><g class="ytick"><text text-anchor="end" x="79" y="4.199999999999999" transform="translate(0,208.57)" style="font-family: 'Open Sans', verdana, arial, sans-serif; font-size: 12px; fill: rgb(42, 63, 95); fill-opacity: 1; white-space: pre;">1200</text></g><g class="ytick"><text text-anchor="end" x="79" y="4.199999999999999" transform="translate(0,160.05)" style="font-family: 'Open Sans', verdana, arial, sans-serif; font-size: 12px; fill: rgb(42, 63, 95); fill-opacity: 1; white-space: pre;">1400</text></g><g class="ytick"><text text-anchor="end" x="79" y="4.199999999999999" transform="translate(0,111.52)" style="font-family: 'Open Sans', verdana, arial, sans-serif; font-size: 12px; fill: rgb(42, 63, 95); fill-opacity: 1; white-space: pre;">1600</text></g></g><g class="overaxes-above"/></g></g><g class="polarlayer"/><g class="ternarylayer"/><g class="geolayer"/><g class="funnelarealayer"/><g class="pielayer"/><g class="treemaplayer"/><g class="sunburstlayer"/><g class="glimages"/><defs id="topdefs-05fb09"><g class="clips"/><clipPath id="legend05fb09"><rect width="137" height="67" x="0" y="0"/></clipPath></defs><g class="layer-above"><g class="imagelayer"/><g class="shapelayer"/></g><g class="infolayer"><g class="legend" pointer-events="all" transform="translate(551.24, 100)"><rect class="bg" shape-rendering="crispEdges" width="137" height="67" x="0" y="0" style="stroke: rgb(68, 68, 68); stroke-opacity: 1; fill: rgb(255, 255, 255); fill-opacity: 1; stroke-width: 0px;"/><g class="scrollbox" transform="translate(0, 0)" clip-path="url('#legend05fb09')"><g class="groups"><g class="traces" transform="translate(0, 14.5)" style="opacity: 1;"><text class="legendtext" text-anchor="start" x="40" y="4.680000000000001" style="font-family: 'Open Sans', verdana, arial, sans-serif; font-size: 12px; fill: rgb(42, 63, 95); fill-opacity: 1; white-space: pre;">Average Class I</text><g class="layers" style="opacity: 1;"><g class="legendfill"/><g class="legendlines"><path class="js-line" d="M5,0h30" style="fill: none; stroke: rgb(0, 100, 80); stroke-opacity: 1; stroke-width: 2px;"/></g><g class="legendsymbols"><g class="legendpoints"/></g></g><rect class="legendtoggle" x="0" y="-9.5" width="131.15625" height="19" style="fill: rgb(0, 0, 0); fill-opacity: 0;"/></g><g class="traces" transform="translate(0, 33.5)" style="opacity: 1;"><text class="legendtext" text-anchor="start" x="40" y="4.680000000000001" style="font-family: 'Open Sans', verdana, arial, sans-serif; font-size: 12px; fill: rgb(42, 63, 95); fill-opacity: 1; white-space: pre;">Average Class II</text><g class="layers" style="opacity: 1;"><g class="legendfill"/><g class="legendlines"><path class="js-line" d="M5,0h30" style="fill: none; stroke: rgb(0, 176, 246); stroke-opacity: 1; stroke-width: 2px;"/></g><g class="legendsymbols"><g class="legendpoints"/></g></g><rect class="legendtoggle" x="0" y="-9.5" width="131.15625" height="19" style="fill: rgb(0, 0, 0); fill-opacity: 0;"/></g><g class="traces" transform="translate(0, 52.5)" style="opacity: 1;"><text class="legendtext" text-anchor="start" x="40" y="4.680000000000001" style="font-family: 'Open Sans', verdana, arial, sans-serif; font-size: 12px; fill: rgb(42, 63, 95); fill-opacity: 1; white-space: pre;">Average Class III</text><g class="layers" style="opacity: 1;"><g class="legendfill"/><g class="legendlines"><path class="js-line" d="M5,0h30" style="fill: none; stroke: rgb(231, 107, 243); stroke-opacity: 1; stroke-width: 2px;"/></g><g class="legendsymbols"><g class="legendpoints"/></g></g><rect class="legendtoggle" x="0" y="-9.5" width="131.15625" height="19" style="fill: rgb(0, 0, 0); fill-opacity: 0;"/></g></g></g><rect class="scrollbar" rx="20" ry="3" width="0" height="0" x="0" y="0" style="fill: rgb(128, 139, 164); fill-opacity: 1;"/></g><g class="g-gtitle"><text class="gtitle" x="35" y="50" text-anchor="start" dy="0em" style="font-family: 'Open Sans', verdana, arial, sans-serif; font-size: 17px; fill: rgb(42, 63, 95); opacity: 1; font-weight: normal; white-space: pre;">Average curve: index_group</text></g><g class="g-xtitle"><text class="xtitle" x="311" y="460.8" text-anchor="middle" style="font-family: 'Open Sans', verdana, arial, sans-serif; font-size: 14px; fill: rgb(42, 63, 95); opacity: 1; font-weight: normal; white-space: pre;">Domain</text></g><g class="g-ytitle"><text class="ytitle" transform="rotate(-90,27.496875000000003,260)" x="27.496875000000003" y="260" text-anchor="middle" style="font-family: 'Open Sans', verdana, arial, sans-serif; font-size: 14px; fill: rgb(42, 63, 95); opacity: 1; font-weight: normal; white-space: pre;">Frequency</text></g></g></svg>