<svg class="main-svg" xmlns="http://www.w3.org/2000/svg" xmlns:xlink="http://www.w3.org/1999/xlink" width="700" height="500" style="" viewBox="0 0 700 500"><rect x="0" y="0" width="700" height="500" style="fill: rgb(255, 255, 255); fill-opacity: 1;"/><defs id="defs-5453c1"><g class="clips"><clipPath id="clip5453c1xyplot" class="plotclip"><rect width="462" height="320"/></clipPath><clipPath class="axesclip" id="clip5453c1x"><rect x="80" y="0" width="462" height="500"/></clipPath><clipPath class="axesclip" id="clip5453c1y"><rect x="0" y="100" width="700" height="320"/></clipPath><clipPath class="axesclip" id="clip5453c1xy"><rect x="80" y="100" width="462" height="320"/></clipPath></g><g class="gradients"/></defs><g class="bglayer"><rect class="bg" x="80" y="100" width="462" height="320" style="fill: rgb(229, 236, 246); fill-opacity: 1; stroke-width: 0;"/></g><g class="layer-below"><g class="imagelayer"/><g class="shapelayer"/></g><g class="cartesianlayer"><g class="subplot xy"><g class="layer-subplot"><g class="shapelayer"/><g class="imagelayer"/></g><g class="gridlayer"><g class="x"><path class="xgrid crisp" transform="translate(170.23000000000002,0)" d="M0,100v320" style="stroke: rgb(255, 255, 255); stroke-opacity: 1; stroke-width: 1px;"/><path class="xgrid crisp" transform="translate(260.47,0)" d="M0,100v320" style="stroke: rgb(255, 255, 255); stroke-opacity: 1; stroke-width: 1px;"/><path class="xgrid crisp" transform="translate(350.7,0)" d="M0,100v320" style="stroke: rgb(255, 255, 255); stroke-opacity: 1; stroke-width: 1px;"/><path class="xgrid crisp" transform="translate(440.94,0)" d="M0,100v320" style="stroke: rgb(255, 255, 255); stroke-opacity: 1; stroke-width: 1px;"/><path class="xgrid crisp" transform="translate(531.1700000000001,0)" d="M0,100v320" style="stroke: rgb(255, 255, 255); stroke-opacity: 1; stroke-width: 1px;"/></g><g class="y"><path class="ygrid crisp" transform="translate(0,370.36)" d="M80,0h462" style="stroke: rgb(255, 255, 255); stroke-opacity: 1; stroke-width: 1px;"/><path class="ygrid crisp" transform="translate(0,287.83000000000004)" d="M80,0h462" style="stroke: rgb(255, 255, 255); stroke-opacity: 1; stroke-width: 1px;"/><path class="ygrid crisp" transform="translate(0,205.3)" d="M80,0h462" style="stroke: rgb(255, 255, 255); stroke-opacity: 1; stroke-width: 1px;"/><path class="ygrid crisp" transform="translate(0,122.76)" d="M80,0h462" style="stroke: rgb(255, 255, 255); stroke-opacity: 1; stroke-width: 1px;"/></g></g><g class="zerolinelayer"><path class="xzl zl crisp" transform="translate(80,0)" d="M0,100v320" style="stroke: rgb(255, 255, 255); stroke-opacity: 1; stroke-width: 2px;"/></g><path class="xlines-below"/><path class="ylines-below"/><g class="overlines-below"/><g class="xaxislayer-below"/><g class="yaxislayer-below"/><g class="overaxes-below"/><g class="plot" transform="translate(80, 100)" clip-path="url('#clip5453c1xyplot')"><g class="scatterlayer mlayer"><g class="trace scatter trace95babd" style="stroke-miterlimit: 2; opacity: 1;"><g class="fills"/><g class="errorbars"/><g class="lines"><path class="js-line" d="M0,85.15Q0.6,85.1 0.9,85.01C1.21,84.92 1.52,84.78 1.81,84.61C2.12,84.43 2.42,84.21 2.71,83.97C3.02,83.72 3.32,83.42 3.62,83.13C3.93,82.83 4.22,82.51 4.52,82.18C4.82,81.85 5.12,81.49 5.42,81.15C5.72,80.81 6.03,80.47 6.33,80.14C6.63,79.82 6.92,79.49 7.23,79.19C7.53,78.9 7.83,78.62 8.14,78.37C8.43,78.14 8.73,77.92 9.04,77.75C9.33,77.59 9.64,77.44 9.95,77.36C10.25,77.28 10.55,77.24 10.85,77.25C11.15,77.26 11.46,77.33 11.75,77.45C12.06,77.58 12.37,77.77 12.66,78C12.98,78.25 13.27,78.57 13.56,78.92C13.88,79.3 14.18,79.75 14.47,80.22C14.79,80.74 15.08,81.32 15.37,81.92C15.68,82.57 15.98,83.27 16.27,84C16.58,84.78 16.89,85.61 17.18,86.47C17.49,87.38 17.79,88.34 18.08,89.32C18.39,90.36 18.69,91.43 18.99,92.53C19.3,93.68 19.6,94.86 19.89,96.07C20.2,97.32 20.49,98.61 20.79,99.92C21.1,101.27 21.4,102.64 21.7,104.03C22.01,105.46 22.3,106.91 22.6,108.37C22.9,109.86 23.21,111.37 23.51,112.88C23.81,114.41 24.11,115.96 24.41,117.51C24.71,119.06 25.02,120.62 25.32,122.17C25.62,123.71 25.92,125.26 26.22,126.79C26.52,128.3 26.81,129.8 27.12,131.27C27.42,132.71 27.72,134.14 28.03,135.53C28.33,136.88 28.62,138.21 28.93,139.5C29.23,140.73 29.53,141.95 29.84,143.1C30.13,144.18 30.43,145.22 30.74,146.21C31.03,147.12 31.32,148 31.64,148.82C31.93,149.58 32.24,150.29 32.55,150.97C32.84,151.59 33.14,152.18 33.45,152.74C33.74,153.26 34.05,153.75 34.36,154.22C34.65,154.66 34.94,155.11 35.26,155.47C35.55,155.8 35.84,156.11 36.16,156.32C36.45,156.51 36.76,156.69 37.07,156.73C37.37,156.77 37.67,156.6 37.97,156.56C38.27,156.52 38.58,156.46 38.88,156.47C39.18,156.48 39.49,156.53 39.78,156.62C40.09,156.72 40.39,156.87 40.68,157.06C40.99,157.26 41.3,157.52 41.59,157.81C41.9,158.12 42.2,158.48 42.49,158.86C42.8,159.27 43.11,159.73 43.4,160.2C43.71,160.7 43.99,161.29 44.3,161.79C44.59,162.26 44.91,162.67 45.21,163.12C45.51,163.58 45.81,164.07 46.11,164.53C46.41,164.99 46.7,165.45 47.01,165.88C47.3,166.29 47.61,166.66 47.92,167.03C48.22,167.39 48.51,167.74 48.82,168.06C49.12,168.37 49.42,168.66 49.73,168.93C50.03,169.19 50.31,169.48 50.63,169.65C50.92,169.8 51.23,169.86 51.53,169.93C51.83,169.99 52.14,170 52.44,170.04C52.74,170.08 53.04,170.1 53.34,170.15C53.64,170.2 53.95,170.26 54.25,170.36C54.56,170.46 54.86,170.59 55.15,170.76C55.46,170.95 55.76,171.19 56.05,171.47C56.37,171.78 56.67,172.14 56.96,172.54C57.28,172.98 57.57,173.49 57.86,174.03C58.18,174.62 58.48,175.27 58.77,175.94C59.09,176.67 59.38,177.46 59.67,178.28C59.99,179.18 60.29,180.13 60.58,181.12C60.89,182.19 61.19,183.33 61.48,184.49C61.79,185.73 62.09,187.03 62.38,188.36C62.69,189.76 62.99,191.21 63.29,192.67C63.6,194.18 63.89,195.73 64.19,197.28C64.49,198.87 64.8,200.47 65.1,202.1C65.41,203.77 65.7,205.47 66,207.18C66.3,208.92 66.6,210.69 66.9,212.47C67.2,214.27 67.51,216.09 67.81,217.91C68.11,219.74 68.41,221.58 68.71,223.42C69.01,225.26 69.32,227.1 69.62,228.93C69.92,230.75 70.22,232.58 70.52,234.39C70.82,236.18 71.11,237.96 71.42,239.71C71.72,241.41 72.02,243.12 72.33,244.75C72.62,246.29 72.91,247.84 73.23,249.24C73.52,250.49 73.82,251.67 74.14,252.77C74.43,253.75 74.72,254.66 75.04,255.53C75.33,256.32 75.63,257.08 75.95,257.76C76.23,258.36 76.54,258.89 76.85,259.41C77.14,259.89 77.44,260.35 77.75,260.78C78.04,261.19 78.35,261.58 78.66,261.94C78.95,262.28 79.25,262.61 79.56,262.89C79.85,263.15 80.15,263.41 80.47,263.59C80.76,263.75 81.07,263.9 81.37,263.93C81.67,263.96 81.98,263.92 82.27,263.81C82.59,263.69 82.9,263.47 83.18,263.21C83.51,262.9 83.8,262.48 84.08,262.04C84.4,261.54 84.7,260.95 84.99,260.35C85.31,259.7 85.6,259 85.89,258.28C86.2,257.51 86.49,256.66 86.79,255.85C87.09,255.03 87.4,254.19 87.7,253.38C88,252.58 88.29,251.78 88.6,251.01C88.9,250.26 89.2,249.53 89.51,248.82C89.8,248.15 90.1,247.49 90.41,246.87C90.7,246.28 91.01,245.71 91.32,245.18C91.61,244.68 91.91,244.2 92.22,243.75C92.51,243.33 92.81,242.94 93.12,242.58C93.41,242.24 93.72,241.93 94.03,241.64C94.32,241.36 94.62,241.11 94.93,240.87C95.23,240.64 95.54,240.45 95.84,240.24C96.14,240.03 96.44,239.84 96.74,239.63C97.04,239.41 97.34,239.19 97.64,238.95C97.95,238.7 98.25,238.42 98.55,238.13C98.86,237.83 99.15,237.5 99.45,237.17C99.76,236.83 100.05,236.45 100.36,236.11C100.66,235.78 100.95,235.44 101.26,235.14C101.55,234.86 101.85,234.58 102.16,234.35C102.45,234.13 102.76,233.94 103.07,233.79C103.36,233.64 103.66,233.52 103.97,233.44C104.27,233.36 104.58,233.33 104.88,233.31C105.18,233.29 105.48,233.31 105.78,233.34C106.08,233.37 106.38,233.44 106.68,233.52C106.98,233.6 107.29,233.71 107.59,233.81C107.89,233.91 108.19,234 108.49,234.1C108.79,234.2 109.1,234.3 109.4,234.4C109.7,234.49 110,234.58 110.3,234.67C110.6,234.76 110.91,234.84 111.21,234.96C111.51,235.08 111.81,235.21 112.11,235.37C112.41,235.53 112.71,235.72 113.01,235.91C113.31,236.1 113.63,236.28 113.92,236.51C114.23,236.75 114.53,237.01 114.82,237.3C115.13,237.61 115.44,237.94 115.73,238.3C116.04,238.68 116.34,239.08 116.63,239.51C116.94,239.96 117.24,240.44 117.53,240.93C117.84,241.45 118.14,242 118.44,242.56C118.75,243.15 119.04,243.77 119.34,244.4C119.65,245.06 119.95,245.73 120.25,246.43C120.56,247.15 120.85,247.9 121.15,248.66C121.46,249.45 121.75,250.25 122.05,251.07C122.36,251.91 122.66,252.77 122.96,253.63C123.26,254.51 123.56,255.41 123.86,256.31C124.16,257.22 124.47,258.15 124.77,259.07C125.07,259.99 125.37,260.92 125.67,261.84C125.97,262.75 126.27,263.66 126.58,264.55C126.88,265.41 127.17,266.27 127.48,267.08C127.77,267.85 128.06,268.62 128.38,269.31C128.67,269.94 128.93,270.64 129.29,271.06C129.56,271.37 129.87,271.64 130.19,271.71C130.48,271.77 130.81,271.64 131.1,271.51C131.42,271.37 131.72,271.12 132,270.85C132.32,270.54 132.61,270.13 132.9,269.71C133.22,269.25 133.52,268.73 133.81,268.2C134.12,267.64 134.41,267.04 134.71,266.45C135.01,265.86 135.32,265.25 135.62,264.66C135.92,264.07 136.22,263.48 136.52,262.9C136.82,262.33 137.12,261.75 137.42,261.19C137.72,260.63 138.03,260.09 138.33,259.54C138.63,258.99 138.93,258.46 139.23,257.91C139.53,257.36 139.84,256.8 140.14,256.25C140.44,255.7 140.73,255.14 141.04,254.6C141.34,254.07 141.64,253.55 141.95,253.05C142.24,252.58 142.54,252.11 142.85,251.69C143.14,251.29 143.44,250.91 143.75,250.57C144.04,250.26 144.34,249.97 144.66,249.73C144.95,249.51 145.25,249.32 145.56,249.19C145.85,249.07 146.17,248.99 146.47,248.97C146.77,248.95 147.08,249 147.37,249.09C147.68,249.19 147.98,249.36 148.27,249.57C148.59,249.8 148.89,250.11 149.18,250.45C149.5,250.83 149.79,251.29 150.08,251.77C150.4,252.3 150.7,252.9 150.99,253.52C151.31,254.2 151.6,254.94 151.89,255.7C152.2,256.52 152.5,257.39 152.79,258.28C153.1,259.23 153.41,260.22 153.7,261.23C154.01,262.29 154.3,263.4 154.6,264.51C154.91,265.66 155.21,266.84 155.51,268.03C155.81,269.24 156.11,270.48 156.41,271.7C156.71,272.93 157.01,274.18 157.32,275.39C157.62,276.58 157.91,277.77 158.22,278.91C158.51,279.98 158.8,281.04 159.12,282.03C159.41,282.94 159.7,283.83 160.03,284.62C160.31,285.3 160.59,285.98 160.93,286.49C161.21,286.91 161.5,287.33 161.84,287.52C162.12,287.68 162.45,287.75 162.74,287.7C163.05,287.65 163.36,287.43 163.64,287.2C163.97,286.93 164.27,286.52 164.55,286.11C164.87,285.64 165.16,285.08 165.45,284.5C165.77,283.87 166.07,283.17 166.36,282.46C166.67,281.69 166.97,280.89 167.26,280.05C167.57,279.16 167.87,278.23 168.16,277.27C168.47,276.25 168.77,275.16 169.07,274.09C169.37,273 169.67,271.89 169.97,270.78C170.27,269.65 170.58,268.51 170.88,267.37C171.18,266.22 171.48,265.07 171.78,263.9C172.08,262.69 172.38,261.46 172.68,260.22C172.99,258.94 173.29,257.64 173.59,256.34C173.89,255.03 174.19,253.69 174.49,252.38C174.79,251.08 175.1,249.79 175.4,248.5C175.7,247.22 176,245.96 176.3,244.69C176.6,243.43 176.91,242.17 177.21,240.93C177.51,239.71 177.81,238.49 178.11,237.29C178.41,236.12 178.7,234.96 179.01,233.83C179.31,232.73 179.61,231.65 179.92,230.6C180.22,229.6 180.51,228.61 180.82,227.66C181.11,226.76 181.42,225.88 181.73,225.03C182.02,224.23 182.32,223.45 182.63,222.7C182.92,222 183.22,221.32 183.53,220.68C183.82,220.07 184.13,219.49 184.44,218.94C184.73,218.42 185.03,217.93 185.34,217.47C185.63,217.04 185.94,216.63 186.25,216.25C186.54,215.89 186.84,215.55 187.15,215.23C187.44,214.93 187.74,214.65 188.05,214.39C188.35,214.14 188.65,213.91 188.96,213.7C189.26,213.49 189.56,213.3 189.86,213.12C190.16,212.94 190.47,212.78 190.77,212.61C191.07,212.44 191.38,212.32 191.67,212.12C191.98,211.91 192.28,211.61 192.58,211.36C192.88,211.11 193.17,210.84 193.48,210.6C193.77,210.37 194.07,210.15 194.38,209.97C194.68,209.8 194.98,209.65 195.29,209.55C195.59,209.46 195.89,209.39 196.19,209.38C196.49,209.37 196.81,209.41 197.1,209.51C197.41,209.61 197.71,209.79 198,210.01C198.32,210.25 198.61,210.57 198.9,210.92C199.22,211.31 199.52,211.77 199.81,212.26C200.13,212.81 200.42,213.43 200.71,214.08C201.03,214.8 201.33,215.58 201.62,216.4C201.94,217.29 202.23,218.25 202.52,219.24C202.83,220.31 203.13,221.44 203.42,222.6C203.73,223.84 204.04,225.14 204.33,226.48C204.64,227.9 204.94,229.37 205.23,230.87C205.54,232.45 205.84,234.08 206.14,235.74C206.45,237.46 206.74,239.23 207.04,241.01C207.35,242.85 207.65,244.72 207.95,246.62C208.26,248.57 208.55,250.56 208.85,252.57C209.15,254.63 209.45,256.73 209.75,258.84C210.05,260.99 210.36,263.17 210.66,265.35C210.96,267.55 211.26,269.77 211.56,271.98C211.86,274.19 212.17,276.41 212.47,278.6C212.77,280.75 213.06,282.9 213.37,284.99C213.66,287 213.96,289 214.27,290.9C214.56,292.68 214.86,294.45 215.18,296.07C215.47,297.52 215.74,298.95 216.08,300.17C216.36,301.17 216.62,302.2 216.99,302.88C217.25,303.36 217.58,303.97 217.89,304C218.18,304.02 218.53,303.59 218.79,303.19C219.2,302.54 219.42,301.33 219.7,300.23C220.04,298.89 220.31,297.28 220.6,295.7C220.92,293.96 221.22,292.1 221.51,290.22C221.82,288.25 222.11,286.2 222.41,284.14C222.72,282.02 223.02,279.83 223.32,277.67C223.62,275.51 223.92,273.33 224.22,271.17C224.52,269.03 224.82,266.9 225.12,264.79C225.42,262.71 225.73,260.65 226.03,258.6C226.33,256.59 226.63,254.6 226.93,252.62C227.23,250.65 227.54,248.68 227.84,246.74C228.14,244.84 228.44,242.96 228.74,241.09C229.04,239.25 229.34,237.44 229.64,235.63C229.94,233.83 230.25,232.04 230.55,230.26C230.85,228.49 231.15,226.72 231.45,224.97C231.75,223.23 232.06,221.5 232.36,219.79C232.66,218.1 232.96,216.42 233.26,214.76C233.56,213.12 233.86,211.5 234.16,209.89C234.46,208.31 234.77,206.74 235.07,205.19C235.37,203.66 235.67,202.14 235.97,200.63C236.27,199.14 236.58,197.66 236.88,196.19C237.18,194.73 237.48,193.29 237.78,191.84C238.08,190.39 238.38,188.94 238.68,187.49C238.98,186.04 239.29,184.58 239.59,183.13C239.89,181.68 240.19,180.26 240.49,178.8C240.8,177.3 241.1,175.76 241.4,174.24C241.7,172.71 242,171.16 242.3,169.63C242.6,168.12 242.91,166.61 243.21,165.11C243.51,163.63 243.81,162.15 244.11,160.68C244.41,159.21 244.71,157.76 245.01,156.29C245.31,154.81 245.62,153.33 245.92,151.82C246.23,150.28 246.52,148.73 246.82,147.14C247.13,145.48 247.44,143.8 247.73,142.06C248.04,140.23 248.34,138.35 248.63,136.42C248.94,134.39 249.23,132.3 249.53,130.17C249.84,127.95 250.14,125.66 250.44,123.36C250.75,120.99 251.04,118.56 251.34,116.14C251.64,113.68 251.95,111.19 252.25,108.72C252.55,106.25 252.85,103.77 253.15,101.32C253.45,98.91 253.74,96.51 254.05,94.15C254.35,91.86 254.65,89.59 254.96,87.38C255.26,85.26 255.55,83.17 255.86,81.16C256.15,79.25 256.46,77.38 256.77,75.6C257.06,73.94 257.35,72.31 257.67,70.79C257.96,69.4 258.26,68.05 258.58,66.82C258.87,65.73 259.15,64.68 259.48,63.76C259.76,62.98 260.03,62.22 260.38,61.65C260.65,61.2 260.94,60.72 261.29,60.54C261.56,60.4 261.91,60.35 262.19,60.46C262.53,60.59 262.83,61.01 263.1,61.42C263.45,61.95 263.72,62.68 264,63.43C264.33,64.33 264.62,65.38 264.9,66.47C265.22,67.72 265.52,69.09 265.81,70.52C266.13,72.1 266.42,73.79 266.71,75.53C267.02,77.41 267.33,79.4 267.62,81.43C267.93,83.6 268.23,85.86 268.52,88.16C268.83,90.58 269.12,93.07 269.42,95.6C269.73,98.23 270.03,100.94 270.33,103.66C270.64,106.46 270.93,109.31 271.23,112.18C271.53,115.1 271.84,118.07 272.14,121.03C272.44,124.02 272.74,127.04 273.04,130.04C273.34,133.04 273.65,136.06 273.95,139.04C274.25,141.99 274.55,144.95 274.85,147.86C275.15,150.71 275.44,153.56 275.75,156.33C276.05,159.01 276.35,161.69 276.66,164.22C276.95,166.57 277.24,168.87 277.56,171C277.85,172.91 278.15,174.73 278.47,176.42C278.76,177.92 279.05,179.36 279.37,180.66C279.65,181.79 279.94,182.86 280.27,183.79C280.55,184.57 280.81,185.41 281.18,185.9C281.44,186.25 281.76,186.52 282.08,186.63C282.37,186.73 282.7,186.72 282.99,186.63C283.31,186.53 283.61,186.25 283.89,185.98C284.21,185.67 284.5,185.24 284.79,184.81C285.11,184.33 285.41,183.78 285.7,183.23C286.01,182.66 286.3,182.04 286.6,181.44C286.9,180.84 287.2,180.22 287.51,179.63C287.81,179.06 288.1,178.49 288.41,177.98C288.7,177.51 289,177.04 289.32,176.66C289.61,176.32 289.9,175.98 290.22,175.79C290.5,175.62 290.82,175.5 291.12,175.51C291.42,175.52 291.75,175.67 292.03,175.87C292.36,176.11 292.65,176.53 292.93,176.95C293.26,177.46 293.56,178.1 293.84,178.76C294.17,179.53 294.45,180.4 294.74,181.3C295.06,182.3 295.35,183.38 295.64,184.49C295.95,185.68 296.26,186.94 296.55,188.23C296.86,189.59 297.15,191.02 297.45,192.45C297.76,193.93 298.06,195.46 298.36,196.96C298.66,198.46 298.96,199.97 299.26,201.45C299.56,202.89 299.85,204.33 300.16,205.71C300.45,207.02 300.76,208.3 301.07,209.53C301.36,210.68 301.63,211.87 301.97,212.84C302.25,213.64 302.53,214.4 302.88,214.97C303.15,215.41 303.45,215.98 303.78,216.05C304.06,216.11 304.41,215.86 304.68,215.62C305.03,215.31 305.32,214.77 305.59,214.2C305.94,213.47 306.21,212.51 306.49,211.53C306.82,210.37 307.12,209.06 307.4,207.69C307.72,206.14 308,204.39 308.3,202.68C308.61,200.89 308.91,199.02 309.21,197.19C309.51,195.35 309.81,193.49 310.11,191.66C310.41,189.86 310.7,188.05 311.01,186.29C311.31,184.57 311.61,182.86 311.92,181.21C312.22,179.62 312.51,178.06 312.82,176.56C313.11,175.14 313.42,173.75 313.73,172.43C314.02,171.2 314.31,170.01 314.63,168.9C314.92,167.88 315.21,166.9 315.53,166.01C315.82,165.22 316.11,164.46 316.44,163.82C316.72,163.27 317,162.74 317.34,162.36C317.62,162.05 317.93,161.74 318.25,161.64C318.53,161.55 318.87,161.57 319.15,161.69C319.48,161.83 319.77,162.17 320.05,162.52C320.39,162.95 320.68,163.52 320.96,164.12C321.29,164.82 321.57,165.65 321.86,166.5C322.18,167.46 322.48,168.52 322.77,169.62C323.09,170.83 323.38,172.13 323.67,173.47C323.98,174.92 324.29,176.45 324.58,178.02C324.89,179.69 325.19,181.44 325.48,183.22C325.79,185.1 326.08,187.05 326.38,189.03C326.69,191.1 326.99,193.22 327.29,195.38C327.6,197.62 327.89,199.91 328.19,202.22C328.5,204.6 328.8,207.02 329.1,209.45C329.4,211.93 329.7,214.46 330,216.98C330.3,219.53 330.6,222.13 330.9,224.68C331.2,227.19 331.51,229.69 331.81,232.17C332.11,234.62 332.41,237.06 332.71,239.47C333.01,241.84 333.31,244.21 333.62,246.52C333.92,248.76 334.21,250.99 334.52,253.14C334.81,255.18 335.11,257.17 335.42,259.11C335.72,260.97 336.02,262.77 336.33,264.55C336.63,266.26 336.92,267.94 337.23,269.59C337.53,271.18 337.83,272.77 338.14,274.28C338.43,275.69 338.72,277.09 339.04,278.38C339.33,279.55 339.64,280.63 339.95,281.69C340.24,282.67 340.54,283.62 340.85,284.52C341.14,285.35 341.42,286.18 341.75,286.89C342.03,287.51 342.3,288.18 342.66,288.57C342.93,288.86 343.24,289.06 343.56,289.16C343.85,289.25 344.17,289.24 344.47,289.18C344.78,289.12 345.08,288.98 345.37,288.8C345.69,288.61 345.98,288.33 346.27,288.04C346.59,287.73 346.89,287.37 347.18,286.99C347.49,286.59 347.78,286.14 348.08,285.7C348.39,285.25 348.69,284.78 348.99,284.32C349.29,283.86 349.59,283.39 349.89,282.93C350.19,282.47 350.49,282.01 350.79,281.55C351.09,281.08 351.41,280.64 351.7,280.14C352.02,279.59 352.3,278.97 352.6,278.38C352.9,277.78 353.21,277.19 353.51,276.57C353.82,275.93 354.11,275.25 354.41,274.59C354.71,273.93 355.02,273.26 355.32,272.6C355.62,271.95 355.93,271.32 356.22,270.65C356.53,269.94 356.82,269.21 357.12,268.46C357.43,267.68 357.73,266.86 358.03,266.04C358.34,265.19 358.63,264.32 358.93,263.45C359.23,262.56 359.54,261.65 359.84,260.74C360.14,259.81 360.44,258.87 360.74,257.91C361.04,256.92 361.34,255.91 361.64,254.88C361.95,253.81 362.25,252.71 362.55,251.6C362.86,250.45 363.15,249.27 363.45,248.1C363.75,246.92 364.06,245.72 364.36,244.54C364.66,243.37 364.96,242.2 365.26,241.04C365.56,239.9 365.86,238.79 366.16,237.66C366.46,236.53 366.77,235.4 367.07,234.28C367.37,233.17 367.66,232.05 367.97,230.98C368.26,229.97 368.57,228.97 368.88,228.04C369.17,227.18 369.46,226.34 369.78,225.57C370.07,224.88 370.36,224.2 370.68,223.62C370.96,223.11 371.26,222.61 371.59,222.24C371.87,221.92 372.17,221.62 372.49,221.48C372.78,221.35 373.11,221.29 373.4,221.35C373.71,221.41 374.02,221.63 374.3,221.87C374.63,222.16 374.92,222.62 375.21,223.03C375.52,223.47 375.81,223.97 376.11,224.43C376.41,224.87 376.72,225.26 377.01,225.73C377.33,226.25 377.63,226.84 377.92,227.45C378.23,228.11 378.53,228.82 378.82,229.55C379.13,230.33 379.43,231.19 379.73,232.01C380.03,232.84 380.33,233.67 380.63,234.51C380.93,235.36 381.23,236.22 381.53,237.08C381.83,237.95 382.13,238.85 382.44,239.7C382.73,240.5 383.03,241.29 383.34,242.04C383.63,242.74 383.94,243.42 384.25,244.07C384.54,244.69 384.83,245.33 385.15,245.87C385.43,246.34 385.71,246.86 386.05,247.15C386.33,247.39 386.66,247.61 386.96,247.6C387.27,247.59 387.59,247.33 387.86,247.04C388.22,246.66 388.49,245.97 388.77,245.35C389.1,244.63 389.39,243.83 389.67,242.97C389.99,241.99 390.29,240.89 390.58,239.76C390.9,238.53 391.19,237.21 391.48,235.87C391.79,234.45 392.08,232.95 392.38,231.47C392.69,229.95 392.99,228.41 393.29,226.86C393.59,225.29 393.89,223.71 394.19,222.13C394.49,220.54 394.8,218.94 395.1,217.35C395.4,215.76 395.7,214.17 396,212.6C396.3,211.05 396.59,209.51 396.9,207.99C397.2,206.51 397.5,205.04 397.81,203.6C398.11,202.21 398.4,200.84 398.71,199.52C399,198.26 399.31,197.02 399.62,195.84C399.91,194.73 400.21,193.65 400.52,192.63C400.81,191.69 401.1,190.78 401.42,189.94C401.71,189.19 402.01,188.46 402.33,187.83C402.61,187.28 402.9,186.74 403.23,186.33C403.51,185.98 403.81,185.65 404.14,185.48C404.42,185.33 404.75,185.24 405.04,185.28C405.35,185.32 405.67,185.53 405.95,185.77C406.28,186.05 406.57,186.48 406.85,186.92C407.18,187.44 407.47,188.09 407.75,188.75C408.07,189.5 408.37,190.34 408.66,191.22C408.98,192.19 409.27,193.25 409.56,194.33C409.87,195.51 410.18,196.75 410.47,198.03C410.78,199.4 411.08,200.83 411.37,202.3C411.68,203.85 411.97,205.45 412.27,207.08C412.58,208.78 412.88,210.53 413.18,212.31C413.49,214.15 413.78,216.04 414.08,217.94C414.39,219.89 414.69,221.88 414.99,223.87C415.29,225.88 415.59,227.94 415.89,229.94C416.19,231.9 416.49,233.84 416.79,235.77C417.09,237.69 417.4,239.61 417.7,241.5C418,243.37 418.29,245.23 418.6,247.05C418.9,248.81 419.2,250.57 419.51,252.25C419.8,253.85 420.1,255.42 420.41,256.91C420.7,258.28 421.01,259.59 421.32,260.86C421.61,262.05 421.91,263.19 422.22,264.3C422.51,265.35 422.81,266.38 423.12,267.37C423.41,268.32 423.72,269.24 424.03,270.13C424.32,270.96 424.61,271.78 424.93,272.54C425.22,273.24 425.53,273.9 425.84,274.52C426.13,275.09 426.43,275.63 426.74,276.14C427.03,276.62 427.32,277.12 427.64,277.51C427.93,277.86 428.23,278.17 428.55,278.4C428.84,278.61 429.14,278.78 429.45,278.88C429.74,278.97 430.06,279.01 430.36,278.98C430.66,278.95 430.97,278.84 431.26,278.68C431.58,278.5 431.87,278.2 432.16,277.92C432.47,277.62 432.77,277.29 433.07,276.95C433.38,276.59 433.67,276.18 433.97,275.8C434.27,275.42 434.57,275.03 434.88,274.66C435.18,274.31 435.47,273.96 435.78,273.64C436.07,273.33 436.37,273.03 436.68,272.77C436.97,272.52 437.28,272.3 437.59,272.1C437.88,271.91 438.18,271.75 438.49,271.62C438.79,271.5 439.09,271.4 439.4,271.35C439.7,271.3 440,271.28 440.3,271.29C440.6,271.3 440.91,271.36 441.21,271.43C441.51,271.5 441.81,271.61 442.11,271.73C442.41,271.85 442.71,271.99 443.01,272.14C443.31,272.29 443.62,272.46 443.92,272.61C444.22,272.76 444.52,272.91 444.82,273.03C445.12,273.14 445.43,273.23 445.73,273.31C446.03,273.38 446.33,273.45 446.63,273.48C446.93,273.51 447.23,273.5 447.53,273.5C447.83,273.5 448.14,273.5 448.44,273.45C448.74,273.4 449.04,273.31 449.34,273.21C449.65,273.1 449.95,272.95 450.25,272.81C450.55,272.67 450.85,272.5 451.15,272.35C451.45,272.2 451.75,272.05 452.05,271.91C452.35,271.78 452.65,271.64 452.96,271.54C453.26,271.44 453.56,271.36 453.86,271.3C454.16,271.24 454.47,271.21 454.77,271.2C455.07,271.19 455.37,271.21 455.67,271.25C455.97,271.29 456.28,271.37 456.58,271.46C456.88,271.56 457.18,271.68 457.48,271.82C457.78,271.96 458.08,272.14 458.38,272.32C458.69,272.51 458.99,272.72 459.29,272.93C459.59,273.15 459.89,273.39 460.19,273.62C460.49,273.86 460.79,274.12 461.1,274.35Q461.4,274.58 462,275.01" style="vector-effect: non-scaling-stroke; fill: none; stroke: rgb(0, 100, 80); stroke-opacity: 1; stroke-width: 2px; opacity: 1;"/></g><g class="points"/><g class="text"/></g><g class="trace scatter trace3bcda1" style="stroke-miterlimit: 2; opacity: 1;"><g class="fills"/><g class="errorbars"/><g class="lines"><path class="js-line" d="M0,109.45Q0.62,109.22 0.9,109C1.23,108.74 1.52,108.32 1.81,107.93C2.13,107.5 2.42,106.99 2.71,106.49C3.02,105.96 3.32,105.39 3.62,104.82C3.93,104.24 4.22,103.63 4.52,103.04C4.82,102.45 5.12,101.86 5.42,101.28C5.72,100.71 6.02,100.15 6.33,99.61C6.62,99.1 6.92,98.6 7.23,98.13C7.52,97.69 7.83,97.27 8.14,96.89C8.43,96.54 8.72,96.21 9.04,95.94C9.33,95.69 9.64,95.46 9.95,95.31C10.24,95.17 10.55,95.07 10.85,95.03C11.15,94.99 11.45,95.01 11.75,95.08C12.06,95.15 12.37,95.3 12.66,95.46C12.97,95.63 13.26,95.89 13.56,96.11C13.86,96.34 14.16,96.59 14.47,96.82C14.77,97.04 15.08,97.22 15.37,97.46C15.68,97.71 15.98,97.99 16.27,98.3C16.58,98.64 16.89,99.02 17.18,99.43C17.5,99.88 17.79,100.37 18.08,100.89C18.39,101.45 18.7,102.05 18.99,102.68C19.3,103.35 19.6,104.06 19.89,104.79C20.2,105.56 20.5,106.37 20.79,107.2C21.1,108.07 21.4,108.97 21.7,109.88C22.01,110.83 22.3,111.81 22.6,112.8C22.91,113.82 23.21,114.86 23.51,115.91C23.81,116.98 24.11,118.06 24.41,119.15C24.71,120.24 25.02,121.35 25.32,122.45C25.62,123.55 25.92,124.65 26.22,125.74C26.52,126.81 26.82,127.88 27.12,128.93C27.42,129.96 27.72,130.99 28.03,131.99C28.33,132.97 28.62,133.93 28.93,134.88C29.23,135.8 29.53,136.7 29.84,137.58C30.14,138.42 30.43,139.25 30.74,140.04C31.03,140.78 31.33,141.5 31.64,142.18C31.93,142.81 32.24,143.41 32.55,143.98C32.84,144.51 33.14,145.01 33.45,145.48C33.74,145.92 34.05,146.34 34.36,146.74C34.65,147.12 34.95,147.48 35.26,147.83C35.55,148.16 35.85,148.49 36.16,148.78C36.45,149.05 36.75,149.35 37.07,149.52C37.36,149.67 37.67,149.8 37.97,149.78C38.28,149.76 38.59,149.56 38.88,149.39C39.19,149.21 39.48,148.94 39.78,148.7C40.08,148.46 40.38,148.2 40.68,147.96C40.98,147.72 41.28,147.48 41.59,147.26C41.89,147.05 42.18,146.85 42.49,146.67C42.79,146.5 43.09,146.34 43.4,146.22C43.7,146.1 44,146 44.3,145.93C44.6,145.87 44.91,145.83 45.21,145.83C45.51,145.83 45.81,145.87 46.11,145.93C46.41,146 46.71,146.1 47.01,146.22C47.32,146.35 47.62,146.51 47.92,146.69C48.23,146.88 48.52,147.1 48.82,147.33C49.13,147.57 49.43,147.83 49.73,148.1C50.04,148.38 50.33,148.69 50.63,149C50.93,149.32 51.23,149.66 51.53,150.01C51.84,150.38 52.15,150.76 52.44,151.17C52.75,151.6 53.05,152.05 53.34,152.52C53.65,153.03 53.96,153.56 54.25,154.12C54.56,154.72 54.86,155.36 55.15,156.02C55.46,156.72 55.76,157.46 56.05,158.22C56.36,159.02 56.66,159.86 56.96,160.7C57.27,161.57 57.56,162.46 57.86,163.36C58.17,164.3 58.48,165.24 58.77,166.23C59.08,167.27 59.38,168.35 59.67,169.46C59.98,170.64 60.29,171.86 60.58,173.12C60.89,174.46 61.19,175.86 61.48,177.29C61.79,178.8 62.08,180.35 62.38,181.94C62.69,183.6 62.99,185.31 63.29,187.04C63.6,188.83 63.89,190.67 64.19,192.52C64.5,194.41 64.8,196.33 65.1,198.26C65.4,200.21 65.7,202.18 66,204.15C66.3,206.14 66.6,208.15 66.9,210.16C67.2,212.18 67.51,214.21 67.81,216.23C68.11,218.24 68.4,220.29 68.71,222.26C69.01,224.16 69.31,226.07 69.62,227.86C69.91,229.52 70.21,231.07 70.52,232.63C70.81,234.13 71.12,235.59 71.42,237.05C71.72,238.49 72.03,239.91 72.33,241.32C72.63,242.71 72.92,244.09 73.23,245.45C73.53,246.77 73.83,248.08 74.14,249.36C74.44,250.59 74.73,251.79 75.04,252.97C75.34,254.11 75.64,255.23 75.95,256.33C76.25,257.4 76.55,258.45 76.85,259.49C77.15,260.51 77.44,261.53 77.75,262.53C78.05,263.5 78.35,264.48 78.66,265.41C78.95,266.29 79.24,267.17 79.56,267.95C79.85,268.65 80.14,269.33 80.47,269.9C80.75,270.39 81.04,270.83 81.37,271.18C81.65,271.48 81.95,271.76 82.27,271.92C82.56,272.07 82.88,272.17 83.18,272.16C83.48,272.15 83.81,272.04 84.08,271.83C84.43,271.56 84.71,271.03 84.99,270.52C85.33,269.9 85.6,269.11 85.89,268.36C86.2,267.55 86.49,266.68 86.79,265.83C87.09,264.96 87.4,264.06 87.7,263.19C88,262.32 88.29,261.46 88.6,260.61C88.9,259.78 89.2,258.97 89.51,258.17C89.81,257.4 90.1,256.65 90.41,255.92C90.71,255.22 91.01,254.54 91.32,253.89C91.61,253.27 91.91,252.67 92.22,252.09C92.51,251.54 92.81,251.02 93.12,250.52C93.41,250.05 93.72,249.6 94.03,249.17C94.32,248.77 94.64,248.44 94.93,248.02C95.25,247.56 95.54,247.03 95.84,246.52C96.15,245.99 96.44,245.43 96.74,244.88C97.04,244.33 97.34,243.8 97.64,243.24C97.95,242.67 98.26,242.11 98.55,241.51C98.86,240.88 99.16,240.23 99.45,239.53C99.77,238.76 100.06,237.92 100.36,237.09C100.67,236.23 100.96,235.34 101.26,234.47C101.56,233.61 101.85,232.74 102.16,231.9C102.46,231.09 102.76,230.28 103.07,229.51C103.36,228.79 103.65,228.07 103.97,227.42C104.26,226.82 104.56,226.24 104.88,225.73C105.17,225.28 105.46,224.84 105.78,224.5C106.06,224.2 106.36,223.92 106.68,223.75C106.97,223.6 107.29,223.53 107.59,223.5C107.89,223.47 108.19,223.63 108.49,223.59C108.8,223.55 109.09,223.31 109.4,223.25C109.7,223.19 110,223.18 110.3,223.22C110.61,223.26 110.92,223.37 111.21,223.51C111.52,223.66 111.82,223.88 112.11,224.12C112.42,224.39 112.72,224.71 113.01,225.06C113.33,225.44 113.63,225.88 113.92,226.33C114.23,226.82 114.52,227.38 114.82,227.9C115.12,228.41 115.43,228.89 115.73,229.4C116.04,229.93 116.34,230.46 116.63,231.02C116.94,231.6 117.23,232.22 117.53,232.83C117.83,233.45 118.13,234.1 118.44,234.69C118.73,235.24 119.03,235.77 119.34,236.25C119.63,236.7 119.95,237.09 120.25,237.51C120.55,237.93 120.85,238.35 121.15,238.79C121.45,239.24 121.75,239.71 122.05,240.19C122.36,240.69 122.66,241.21 122.96,241.74C123.27,242.29 123.56,242.86 123.86,243.44C124.17,244.05 124.47,244.68 124.77,245.33C125.08,246 125.37,246.7 125.67,247.41C125.98,248.15 126.28,248.91 126.58,249.67C126.88,250.45 127.18,251.25 127.48,252.03C127.78,252.81 128.07,253.62 128.38,254.37C128.67,255.09 128.94,255.89 129.29,256.46C129.56,256.91 129.85,257.37 130.19,257.57C130.47,257.73 130.8,257.75 131.1,257.71C131.41,257.66 131.72,257.48 132,257.27C132.32,257.03 132.62,256.69 132.9,256.32C133.23,255.9 133.53,255.4 133.81,254.85C134.14,254.21 134.42,253.47 134.71,252.71C135.03,251.86 135.32,250.89 135.62,249.96C135.93,249.01 136.22,248.01 136.52,247.05C136.82,246.09 137.11,245.13 137.42,244.2C137.72,243.3 138.02,242.4 138.33,241.54C138.62,240.72 138.92,239.91 139.23,239.15C139.52,238.44 139.83,237.75 140.14,237.1C140.43,236.5 140.72,235.92 141.04,235.39C141.33,234.9 141.63,234.44 141.95,234.03C142.24,233.66 142.53,233.31 142.85,233.05C143.13,232.82 143.44,232.61 143.75,232.52C144.04,232.43 144.37,232.42 144.66,232.48C144.97,232.55 145.28,232.73 145.56,232.94C145.88,233.18 146.19,233.53 146.47,233.9C146.79,234.32 147.08,234.82 147.37,235.35C147.69,235.94 147.98,236.59 148.27,237.27C148.59,238.01 148.89,238.81 149.18,239.64C149.49,240.53 149.79,241.47 150.08,242.43C150.39,243.45 150.69,244.51 150.99,245.59C151.3,246.72 151.59,247.9 151.89,249.08C152.19,250.3 152.49,251.55 152.79,252.81C153.09,254.09 153.4,255.38 153.7,256.68C154,257.99 154.3,259.31 154.6,260.63C154.9,261.95 155.21,263.29 155.51,264.61C155.81,265.91 156.1,267.22 156.41,268.49C156.71,269.71 156.95,271.13 157.32,272.08C157.58,272.75 157.9,273.24 158.22,273.72C158.5,274.14 158.81,274.49 159.12,274.82C159.41,275.13 159.71,275.47 160.03,275.67C160.31,275.85 160.63,276.02 160.93,276.01C161.23,276 161.55,275.79 161.84,275.62C162.15,275.44 162.46,275.24 162.74,274.94C163.08,274.58 163.35,274.02 163.64,273.53C163.95,273.01 164.25,272.46 164.55,271.91C164.85,271.36 165.15,270.79 165.45,270.24C165.75,269.69 166.06,269.14 166.36,268.6C166.66,268.07 166.96,267.55 167.26,267.03C167.56,266.51 167.86,266 168.16,265.48C168.46,264.95 168.77,264.43 169.07,263.89C169.38,263.33 169.67,262.76 169.97,262.18C170.27,261.59 170.58,260.99 170.88,260.4C171.18,259.81 171.48,259.22 171.78,258.64C172.08,258.07 172.37,257.51 172.68,256.96C172.98,256.43 173.28,255.9 173.59,255.4C173.89,254.92 174.18,254.44 174.49,254C174.78,253.58 175.09,253.18 175.4,252.79C175.7,252.42 176,252.07 176.3,251.73C176.6,251.39 176.91,251.09 177.21,250.74C177.52,250.37 177.82,249.99 178.11,249.58C178.42,249.15 178.71,248.68 179.01,248.24C179.31,247.81 179.62,247.39 179.92,246.96C180.22,246.53 180.52,246.12 180.82,245.68C181.13,245.23 181.43,244.77 181.73,244.28C182.04,243.77 182.34,243.26 182.63,242.69C182.95,242.07 183.23,241.35 183.53,240.68C183.83,240.01 184.14,239.34 184.44,238.66C184.74,237.98 185.04,237.27 185.34,236.59C185.64,235.91 185.94,235.24 186.25,234.58C186.55,233.94 186.85,233.31 187.15,232.7C187.45,232.11 187.74,231.52 188.05,230.96C188.35,230.41 188.65,229.88 188.96,229.36C189.26,228.85 189.56,228.35 189.86,227.85C190.16,227.34 190.47,226.85 190.77,226.33C191.08,225.78 191.37,225.21 191.67,224.63C191.98,224.03 192.27,223.39 192.58,222.78C192.88,222.19 193.17,221.58 193.48,221.03C193.77,220.51 194.06,220 194.38,219.56C194.67,219.16 194.97,218.78 195.29,218.48C195.57,218.22 195.87,217.98 196.19,217.85C196.48,217.74 196.8,217.68 197.1,217.72C197.41,217.76 197.72,217.93 198,218.13C198.33,218.36 198.62,218.72 198.9,219.1C199.23,219.54 199.52,220.08 199.81,220.64C200.13,221.28 200.42,222.01 200.71,222.76C201.03,223.6 201.33,224.5 201.62,225.44C201.94,226.46 202.23,227.54 202.52,228.65C202.83,229.84 203.13,231.09 203.42,232.36C203.73,233.7 204.03,235.09 204.33,236.5C204.64,237.96 204.93,239.46 205.23,240.97C205.54,242.51 205.84,244.08 206.14,245.65C206.44,247.24 206.74,248.83 207.04,250.44C207.34,252.06 207.65,253.69 207.95,255.33C208.25,256.99 208.55,258.66 208.85,260.33C209.15,262.02 209.45,263.72 209.75,265.41C210.05,267.1 210.36,268.8 210.66,270.49C210.96,272.16 211.25,273.84 211.56,275.48C211.86,277.08 212.15,278.7 212.47,280.2C212.76,281.58 213.05,282.93 213.37,284.15C213.65,285.22 213.92,286.28 214.27,287.13C214.54,287.81 214.79,288.62 215.18,288.88C215.44,289.05 215.81,289.08 216.08,288.95C216.45,288.76 216.71,288.05 216.99,287.48C217.33,286.76 217.61,285.86 217.89,284.94C218.22,283.87 218.5,282.67 218.79,281.43C219.11,280.05 219.41,278.55 219.7,277.02C220.01,275.37 220.3,273.63 220.6,271.88C220.91,270.05 221.21,268.17 221.51,266.28C221.81,264.35 222.11,262.39 222.41,260.44C222.71,258.48 223.02,256.5 223.32,254.54C223.62,252.6 223.92,250.64 224.22,248.73C224.52,246.86 224.81,245 225.12,243.19C225.42,241.44 225.72,239.72 226.03,238.05C226.32,236.46 226.62,234.91 226.93,233.41C227.22,232 227.53,230.63 227.84,229.32C228.13,228.1 228.43,226.92 228.74,225.79C229.03,224.73 229.33,223.72 229.64,222.74C229.93,221.81 230.24,220.9 230.55,220.03C230.84,219.22 231.14,218.43 231.45,217.69C231.74,217 232.05,216.35 232.36,215.72C232.65,215.13 232.95,214.57 233.26,214.02C233.55,213.49 233.86,212.99 234.16,212.48C234.46,211.98 234.77,211.49 235.07,210.99C235.37,210.49 235.67,210 235.97,209.5C236.27,208.99 236.58,208.49 236.88,207.96C237.19,207.42 237.49,206.88 237.78,206.3C238.09,205.69 238.39,205.06 238.68,204.39C238.99,203.66 239.3,202.9 239.59,202.09C239.91,201.21 240.2,200.3 240.49,199.31C240.81,198.2 241.11,197 241.4,195.73C241.72,194.31 242,192.74 242.3,191.21C242.61,189.64 242.91,188.03 243.21,186.42C243.51,184.78 243.81,183.12 244.11,181.44C244.41,179.72 244.71,177.98 245.01,176.21C245.32,174.38 245.62,172.54 245.92,170.63C246.23,168.63 246.53,166.59 246.82,164.49C247.13,162.27 247.43,159.97 247.73,157.63C248.04,155.2 248.33,152.7 248.63,150.17C248.93,147.57 249.23,144.91 249.53,142.24C249.83,139.52 250.14,136.75 250.44,134C250.74,131.24 251.04,128.46 251.34,125.72C251.64,123.01 251.94,120.3 252.25,117.65C252.55,115.07 252.84,112.5 253.15,110C253.44,107.6 253.74,105.24 254.05,102.96C254.34,100.8 254.65,98.67 254.96,96.64C255.25,94.74 255.54,92.89 255.86,91.14C256.15,89.53 256.45,87.97 256.77,86.51C257.06,85.2 257.35,83.94 257.67,82.79C257.95,81.78 258.25,80.82 258.58,79.97C258.86,79.24 259.15,78.56 259.48,77.97C259.76,77.47 260.06,77.02 260.38,76.64C260.66,76.31 260.97,76 261.29,75.79C261.57,75.61 261.89,75.43 262.19,75.43C262.49,75.43 262.82,75.57 263.1,75.77C263.44,76.02 263.73,76.48 264,76.94C264.34,77.51 264.62,78.24 264.9,78.99C265.23,79.88 265.52,80.89 265.81,81.94C266.13,83.12 266.42,84.4 266.71,85.73C267.03,87.19 267.33,88.74 267.62,90.33C267.93,92.04 268.23,93.82 268.52,95.65C268.83,97.58 269.13,99.59 269.42,101.63C269.73,103.77 270.03,105.98 270.33,108.23C270.64,110.58 270.93,112.99 271.23,115.44C271.54,117.98 271.84,120.58 272.14,123.22C272.45,125.95 272.74,128.73 273.04,131.54C273.35,134.43 273.65,137.37 273.95,140.34C274.26,143.37 274.55,146.46 274.85,149.55C275.15,152.69 275.45,155.87 275.75,159.05C276.05,162.26 276.36,165.49 276.66,168.71C276.96,171.93 277.26,175.16 277.56,178.36C277.86,181.52 278.15,184.77 278.47,187.78C278.76,190.55 279.06,193.21 279.37,195.75C279.66,198.09 279.95,200.4 280.27,202.5C280.55,204.35 280.83,206.21 281.18,207.7C281.45,208.85 281.61,210.29 282.08,210.71C282.33,210.94 282.73,211.02 282.99,210.87C283.41,210.63 283.61,209.41 283.89,208.53C284.23,207.46 284.5,206.15 284.79,204.87C285.11,203.49 285.4,202 285.7,200.52C286.01,198.99 286.3,197.4 286.6,195.84C286.9,194.27 287.21,192.67 287.51,191.11C287.81,189.57 288.1,188.02 288.41,186.52C288.71,185.06 289.01,183.62 289.32,182.23C289.61,180.91 289.91,179.6 290.22,178.37C290.51,177.23 290.8,176.11 291.12,175.09C291.41,174.17 291.7,173.28 292.03,172.51C292.31,171.85 292.59,171.21 292.93,170.74C293.21,170.36 293.51,169.97 293.84,169.83C294.12,169.71 294.46,169.71 294.74,169.83C295.07,169.97 295.37,170.35 295.64,170.73C295.98,171.2 296.27,171.84 296.55,172.5C296.88,173.27 297.16,174.17 297.45,175.08C297.77,176.1 298.07,177.21 298.36,178.33C298.67,179.52 298.96,180.79 299.26,182.02C299.56,183.25 299.85,184.54 300.16,185.73C300.45,186.84 300.75,187.92 301.07,188.93C301.36,189.84 301.64,190.75 301.97,191.52C302.25,192.17 302.51,192.9 302.88,193.28C303.15,193.55 303.48,193.78 303.78,193.77C304.08,193.76 304.41,193.51 304.68,193.23C305.04,192.87 305.32,192.26 305.59,191.64C305.93,190.86 306.2,189.86 306.49,188.9C306.81,187.85 307.1,186.73 307.4,185.6C307.71,184.43 308.01,183.23 308.3,181.99C308.61,180.68 308.91,179.29 309.21,177.95C309.51,176.63 309.8,175.31 310.11,174.03C310.41,172.79 310.7,171.56 311.01,170.37C311.31,169.24 311.61,168.12 311.92,167.06C312.21,166.06 312.5,165.09 312.82,164.18C313.11,163.34 313.41,162.53 313.73,161.8C314.02,161.15 314.3,160.52 314.63,160C314.91,159.55 315.2,159.11 315.53,158.83C315.81,158.59 316.13,158.38 316.44,158.34C316.73,158.3 317.06,158.41 317.34,158.57C317.67,158.77 317.97,159.14 318.25,159.53C318.59,160 318.87,160.62 319.15,161.26C319.48,162 319.76,162.85 320.05,163.74C320.37,164.74 320.67,165.83 320.96,166.97C321.28,168.22 321.57,169.56 321.86,170.93C322.17,172.41 322.48,173.96 322.77,175.56C323.08,177.26 323.38,179.03 323.67,180.84C323.98,182.74 324.28,184.69 324.58,186.68C324.89,188.75 325.18,190.88 325.48,193.03C325.78,195.25 326.08,197.52 326.38,199.81C326.69,202.15 326.99,204.53 327.29,206.92C327.59,209.35 327.89,211.81 328.19,214.27C328.49,216.76 328.8,219.27 329.1,221.77C329.4,224.28 329.7,226.8 330,229.3C330.3,231.79 330.6,234.27 330.9,236.73C331.2,239.15 331.5,241.56 331.81,243.93C332.11,246.25 332.4,248.55 332.71,250.81C333.01,253.01 333.31,255.19 333.62,257.33C333.92,259.41 334.21,261.46 334.52,263.46C334.81,265.39 335.11,267.3 335.42,269.14C335.71,270.89 336.02,272.61 336.33,274.26C336.62,275.82 336.92,277.34 337.23,278.81C337.52,280.19 337.83,281.53 338.14,282.81C338.43,284.01 338.73,285.18 339.04,286.29C339.33,287.32 339.63,288.31 339.95,289.24C340.24,290.1 340.53,290.92 340.85,291.68C341.14,292.37 341.43,293.04 341.75,293.62C342.03,294.13 342.31,294.71 342.66,294.99C342.93,295.21 343.26,295.31 343.56,295.33C343.86,295.35 344.18,295.24 344.47,295.12C344.78,294.99 345.1,294.82 345.37,294.53C345.72,294.15 345.98,293.49 346.27,292.92C346.59,292.3 346.88,291.6 347.18,290.92C347.49,290.22 347.78,289.5 348.08,288.79C348.38,288.09 348.69,287.38 348.99,286.69C349.29,286.01 349.59,285.35 349.89,284.68C350.19,284.02 350.49,283.36 350.79,282.71C351.09,282.06 351.4,281.41 351.7,280.77C352,280.14 352.3,279.52 352.6,278.91C352.9,278.3 353.21,277.71 353.51,277.11C353.81,276.5 354.12,275.91 354.41,275.28C354.72,274.61 355.03,273.92 355.32,273.2C355.63,272.44 355.93,271.65 356.22,270.84C356.53,270 356.82,269.15 357.12,268.27C357.43,267.35 357.74,266.41 358.03,265.43C358.34,264.4 358.64,263.34 358.93,262.23C359.24,261.03 359.55,259.77 359.84,258.45C360.16,257.01 360.45,255.46 360.74,253.92C361.05,252.33 361.34,250.67 361.64,249.05C361.94,247.43 362.25,245.8 362.55,244.2C362.85,242.62 363.14,241.05 363.45,239.5C363.75,237.99 364.05,236.49 364.36,235.02C364.66,233.59 364.95,232.19 365.26,230.81C365.56,229.48 365.85,228.17 366.16,226.89C366.46,225.66 366.76,224.46 367.07,223.29C367.36,222.18 367.66,221.09 367.97,220.05C368.26,219.07 368.56,218.12 368.88,217.22C369.17,216.4 369.46,215.6 369.78,214.87C370.07,214.22 370.35,213.59 370.68,213.05C370.96,212.58 371.26,212.13 371.59,211.81C371.87,211.54 372.17,211.28 372.49,211.19C372.78,211.1 373.11,211.11 373.4,211.21C373.72,211.32 374.02,211.6 374.3,211.89C374.63,212.24 374.93,212.72 375.21,213.22C375.54,213.8 375.83,214.48 376.11,215.19C376.43,215.99 376.72,216.87 377.01,217.78C377.33,218.78 377.63,219.85 377.92,220.95C378.23,222.13 378.53,223.38 378.82,224.64C379.13,225.97 379.43,227.36 379.73,228.75C380.04,230.19 380.33,231.68 380.63,233.15C380.93,234.63 381.23,236.13 381.53,237.61C381.83,239.07 382.13,240.53 382.44,241.96C382.74,243.35 383.03,244.75 383.34,246.08C383.63,247.33 383.92,248.6 384.25,249.7C384.53,250.64 384.81,251.57 385.15,252.3C385.42,252.89 385.7,253.46 386.05,253.81C386.32,254.08 386.65,254.32 386.96,254.35C387.25,254.38 387.59,254.24 387.86,254.04C388.21,253.78 388.5,253.28 388.77,252.76C389.13,252.07 389.38,251.09 389.67,250.17C389.99,249.14 390.28,247.99 390.58,246.86C390.89,245.68 391.18,244.44 391.48,243.21C391.78,241.95 392.08,240.67 392.38,239.39C392.68,238.09 392.99,236.79 393.29,235.48C393.59,234.17 393.89,232.85 394.19,231.55C394.49,230.26 394.79,228.97 395.1,227.71C395.4,226.48 395.69,225.26 396,224.08C396.29,222.95 396.59,221.83 396.9,220.77C397.19,219.77 397.5,218.78 397.81,217.86C398.1,217.01 398.39,216.18 398.71,215.42C399,214.74 399.29,214.08 399.62,213.52C399.9,213.03 400.19,212.55 400.52,212.2C400.8,211.9 401.1,211.61 401.42,211.48C401.71,211.37 402.04,211.33 402.33,211.4C402.64,211.47 402.95,211.71 403.23,211.96C403.56,212.26 403.86,212.7 404.14,213.16C404.47,213.69 404.75,214.33 405.04,214.99C405.36,215.74 405.66,216.56 405.95,217.42C406.27,218.37 406.56,219.39 406.85,220.44C407.16,221.57 407.46,222.76 407.75,223.98C408.06,225.27 408.36,226.64 408.66,227.97C408.96,229.3 409.25,230.67 409.56,231.96C409.85,233.17 410.17,234.28 410.47,235.47C410.78,236.69 411.08,237.93 411.37,239.2C411.68,240.52 411.97,241.87 412.27,243.23C412.58,244.63 412.88,246.06 413.18,247.49C413.48,248.93 413.78,250.38 414.08,251.83C414.38,253.28 414.69,254.73 414.99,256.2C415.29,257.69 415.59,259.2 415.89,260.7C416.19,262.19 416.48,263.72 416.79,265.15C417.08,266.5 417.39,267.79 417.7,269.07C418,270.31 418.29,271.53 418.6,272.71C418.89,273.83 419.19,274.96 419.51,275.99C419.8,276.92 420.09,277.79 420.41,278.61C420.7,279.35 421.01,280.02 421.32,280.68C421.61,281.3 421.91,281.89 422.22,282.45C422.51,282.98 422.8,283.52 423.12,283.98C423.41,284.4 423.69,284.87 424.03,285.12C424.31,285.33 424.65,285.54 424.93,285.49C425.25,285.43 425.55,284.93 425.84,284.61C426.15,284.27 426.44,283.86 426.74,283.48C427.04,283.11 427.34,282.74 427.64,282.36C427.94,281.97 428.25,281.56 428.55,281.17C428.85,280.78 429.14,280.38 429.45,280C429.75,279.64 430.05,279.28 430.36,278.95C430.66,278.63 430.96,278.35 431.26,278.05C431.56,277.75 431.87,277.49 432.16,277.17C432.47,276.83 432.77,276.41 433.07,276.04C433.37,275.68 433.68,275.36 433.97,274.98C434.28,274.58 434.58,274.13 434.88,273.71C435.18,273.29 435.47,272.83 435.78,272.44C436.07,272.08 436.36,271.74 436.68,271.47C436.97,271.22 437.28,271 437.59,270.85C437.88,270.71 438.19,270.6 438.49,270.56C438.79,270.52 439.1,270.53 439.4,270.58C439.7,270.63 440.01,270.74 440.3,270.88C440.61,271.02 440.91,271.22 441.21,271.43C441.52,271.64 441.81,271.9 442.11,272.15C442.41,272.4 442.7,272.72 443.01,272.93C443.3,273.13 443.61,273.33 443.92,273.39C444.21,273.45 444.52,273.37 444.82,273.31C445.13,273.25 445.43,273.13 445.73,273.04C446.03,272.95 446.33,272.87 446.63,272.79C446.93,272.71 447.23,272.65 447.53,272.57C447.83,272.49 448.14,272.42 448.44,272.33C448.74,272.23 449.04,272.11 449.34,272C449.64,271.89 449.94,271.77 450.25,271.69C450.55,271.61 450.85,271.55 451.15,271.54C451.45,271.53 451.75,271.55 452.05,271.61C452.36,271.68 452.67,271.79 452.96,271.94C453.27,272.1 453.57,272.3 453.86,272.53C454.17,272.78 454.48,273.07 454.77,273.38C455.08,273.72 455.38,274.1 455.67,274.49C455.98,274.91 456.29,275.36 456.58,275.83C456.89,276.32 457.19,276.84 457.48,277.37C457.79,277.92 458.08,278.49 458.38,279.06C458.69,279.65 458.99,280.25 459.29,280.85C459.59,281.45 459.89,282.07 460.19,282.66C460.49,283.24 460.79,283.83 461.1,284.37Q461.39,284.87 462,285.79" style="vector-effect: non-scaling-stroke; fill: none; stroke: rgb(0, 176, 246); stroke-opacity: 1; stroke-width: 2px; opacity: 1;"/></g><g class="points"/><g class="text"/></g><g class="trace scatter trace90926a" style="stroke-miterlimit: 2; opacity: 1;"><g class="fills"/><g class="errorbars"/><g class="lines"><path class="js-line" d="M0,172.76Q0.64,171.07 0.9,169.92C1.28,168.25 1.53,165.87 1.81,163.63C2.13,161.09 2.42,158.29 2.71,155.47C3.02,152.45 3.32,149.28 3.62,146.09C3.93,142.77 4.22,139.35 4.52,135.92C4.82,132.41 5.12,128.83 5.42,125.25C5.72,121.64 6.03,117.99 6.33,114.35C6.63,110.71 6.93,107.05 7.23,103.42C7.53,99.82 7.84,96.21 8.14,92.65C8.44,89.14 8.74,85.63 9.04,82.18C9.34,78.8 9.64,75.44 9.95,72.15C10.25,68.95 10.54,65.78 10.85,62.68C11.14,59.69 11.44,56.75 11.75,53.88C12.05,51.14 12.35,48.45 12.66,45.84C12.95,43.37 13.25,40.95 13.56,38.63C13.85,36.46 14.16,34.34 14.47,32.33C14.76,30.47 15.05,28.67 15.37,26.99C15.66,25.47 15.95,24 16.27,22.66C16.55,21.48 16.85,20.35 17.18,19.37C17.46,18.55 17.73,17.74 18.08,17.15C18.35,16.69 18.64,16.2 18.99,16.03C19.26,15.89 19.62,15.88 19.89,16C20.23,16.15 20.52,16.63 20.79,17.07C21.14,17.64 21.42,18.42 21.7,19.22C22.03,20.18 22.32,21.29 22.6,22.44C22.92,23.75 23.22,25.19 23.51,26.68C23.83,28.33 24.12,30.09 24.41,31.91C24.72,33.88 25.03,35.94 25.32,38.06C25.63,40.32 25.93,42.66 26.22,45.06C26.53,47.58 26.82,50.19 27.12,52.84C27.43,55.6 27.73,58.43 28.03,61.29C28.34,64.25 28.63,67.27 28.93,70.31C29.24,73.43 29.54,76.59 29.84,79.77C30.14,83.01 30.44,86.29 30.74,89.57C31.04,92.89 31.34,96.23 31.64,99.57C31.94,102.92 32.25,106.28 32.55,109.62C32.85,112.94 33.15,116.28 33.45,119.55C33.75,122.76 34.05,125.97 34.36,129.07C34.66,132.03 34.95,134.96 35.26,137.76C35.55,140.37 35.85,142.9 36.16,145.34C36.45,147.62 36.76,149.82 37.07,151.95C37.36,153.93 37.66,155.86 37.97,157.7C38.26,159.42 38.57,161.08 38.88,162.67C39.17,164.15 39.47,165.58 39.78,166.95C40.07,168.22 40.37,169.45 40.68,170.61C40.97,171.69 41.28,172.72 41.59,173.7C41.88,174.61 42.18,175.48 42.49,176.31C42.78,177.09 43.09,177.83 43.4,178.55C43.69,179.23 43.99,179.89 44.3,180.53C44.6,181.14 44.9,181.73 45.21,182.3C45.51,182.84 45.8,183.38 46.11,183.88C46.4,184.35 46.69,184.81 47.01,185.21C47.3,185.58 47.6,185.94 47.92,186.22C48.21,186.48 48.5,186.71 48.82,186.86C49.11,186.99 49.43,187.08 49.73,187.09C50.03,187.1 50.34,187.01 50.63,186.9C50.94,186.78 51.24,186.58 51.53,186.37C51.84,186.15 52.14,185.86 52.44,185.59C52.75,185.31 53.04,185 53.34,184.71C53.64,184.42 53.94,184.12 54.25,183.86C54.54,183.61 54.84,183.36 55.15,183.17C55.44,183 55.74,182.84 56.05,182.76C56.35,182.69 56.66,182.65 56.96,182.7C57.27,182.75 57.57,182.88 57.86,183.05C58.18,183.24 58.48,183.52 58.77,183.83C59.09,184.17 59.38,184.59 59.67,185.02C59.99,185.5 60.29,186.04 60.58,186.59C60.89,187.17 61.18,187.8 61.48,188.43C61.78,189.08 62.08,189.76 62.38,190.42C62.68,191.07 62.98,191.75 63.29,192.37C63.58,192.95 63.87,193.51 64.19,194.01C64.48,194.46 64.79,194.84 65.1,195.24C65.4,195.63 65.7,195.98 66,196.36C66.3,196.74 66.6,197.13 66.9,197.53C67.21,197.94 67.51,198.36 67.81,198.8C68.12,199.26 68.42,199.73 68.71,200.23C69.02,200.76 69.33,201.31 69.62,201.89C69.93,202.51 70.23,203.17 70.52,203.86C70.83,204.59 71.13,205.37 71.42,206.16C71.73,206.99 72.03,207.86 72.33,208.74C72.64,209.64 72.93,210.55 73.23,211.49C73.54,212.47 73.85,213.46 74.14,214.49C74.45,215.57 74.75,216.69 75.04,217.84C75.35,219.05 75.65,220.29 75.95,221.56C76.26,222.88 76.55,224.23 76.85,225.6C77.15,227 77.45,228.43 77.75,229.87C78.05,231.33 78.36,232.81 78.66,234.28C78.96,235.74 79.25,237.22 79.56,238.66C79.86,240.07 80.16,241.49 80.47,242.84C80.76,244.13 81.05,245.41 81.37,246.59C81.66,247.66 81.93,248.73 82.27,249.61C82.55,250.33 82.79,251.21 83.18,251.52C83.44,251.72 83.81,251.81 84.08,251.71C84.43,251.58 84.72,251.02 84.99,250.53C85.35,249.87 85.61,248.95 85.89,248.02C86.22,246.9 86.5,245.56 86.79,244.27C87.1,242.89 87.4,241.44 87.7,240C88.01,238.53 88.3,237.01 88.6,235.52C88.9,234.02 89.21,232.51 89.51,231.02C89.81,229.54 90.11,228.05 90.41,226.59C90.71,225.16 91.01,223.73 91.32,222.33C91.62,220.96 91.91,219.6 92.22,218.28C92.52,217 92.81,215.74 93.12,214.51C93.42,213.33 93.72,212.17 94.03,211.05C94.32,209.98 94.62,208.93 94.93,207.93C95.22,206.99 95.53,206.07 95.84,205.21C96.13,204.41 96.42,203.63 96.74,202.92C97.03,202.27 97.32,201.64 97.64,201.09C97.93,200.6 98.22,200.14 98.55,199.77C98.83,199.45 99.13,199.15 99.45,198.98C99.74,198.83 100.06,198.73 100.36,198.74C100.66,198.75 100.98,198.88 101.26,199.06C101.58,199.26 101.88,199.59 102.16,199.93C102.49,200.33 102.78,200.83 103.07,201.34C103.39,201.9 103.67,202.53 103.97,203.14C104.28,203.77 104.59,204.39 104.88,205.05C105.19,205.74 105.49,206.45 105.78,207.2C106.09,208.01 106.39,208.86 106.68,209.74C106.99,210.68 107.3,211.67 107.59,212.68C107.9,213.75 108.19,214.86 108.49,215.99C108.8,217.17 109.1,218.38 109.4,219.6C109.71,220.86 110,222.15 110.3,223.45C110.61,224.78 110.91,226.13 111.21,227.49C111.51,228.87 111.81,230.26 112.11,231.66C112.41,233.08 112.71,234.51 113.01,235.94C113.31,237.39 113.62,238.84 113.92,240.3C114.22,241.77 114.52,243.25 114.82,244.73C115.12,246.21 115.43,247.7 115.73,249.19C116.03,250.68 116.33,252.17 116.63,253.66C116.93,255.14 117.22,256.64 117.53,258.08C117.83,259.47 118.12,260.9 118.44,262.16C118.72,263.26 119.03,264.24 119.34,265.23C119.63,266.17 119.94,267.1 120.25,267.97C120.54,268.78 120.83,269.6 121.15,270.31C121.43,270.94 121.72,271.53 122.05,272.03C122.33,272.46 122.62,272.92 122.96,273.17C123.24,273.37 123.57,273.54 123.86,273.51C124.17,273.48 124.48,273.16 124.77,272.92C125.09,272.66 125.38,272.33 125.67,271.98C125.99,271.6 126.29,271.18 126.58,270.71C126.9,270.17 127.19,269.55 127.48,268.91C127.8,268.2 128.09,267.4 128.38,266.61C128.69,265.77 128.99,264.9 129.29,264.02C129.6,263.12 129.89,262.2 130.19,261.27C130.49,260.32 130.8,259.36 131.1,258.4C131.4,257.42 131.7,256.44 132,255.45C132.3,254.46 132.6,253.46 132.9,252.46C133.2,251.46 133.51,250.46 133.81,249.46C134.11,248.47 134.41,247.47 134.71,246.48C135.01,245.5 135.32,244.52 135.62,243.55C135.92,242.59 136.22,241.63 136.52,240.69C136.82,239.76 137.12,238.84 137.42,237.93C137.72,237.04 138.02,236.16 138.33,235.3C138.63,234.46 138.92,233.63 139.23,232.83C139.53,232.06 139.83,231.3 140.14,230.58C140.43,229.89 140.73,229.22 141.04,228.59C141.33,228 141.63,227.42 141.95,226.89C142.24,226.41 142.53,225.94 142.85,225.54C143.14,225.17 143.43,224.82 143.75,224.55C144.04,224.3 144.34,224.08 144.66,223.95C144.95,223.83 145.26,223.76 145.56,223.76C145.86,223.76 146.18,223.84 146.47,223.97C146.78,224.11 147.08,224.33 147.37,224.58C147.69,224.86 147.98,225.21 148.27,225.58C148.59,225.99 148.89,226.45 149.18,226.94C149.5,227.47 149.79,228.04 150.08,228.64C150.39,229.28 150.7,229.95 150.99,230.65C151.3,231.38 151.6,232.15 151.89,232.94C152.2,233.76 152.49,234.61 152.79,235.48C153.1,236.38 153.4,237.31 153.7,238.25C154.01,239.23 154.3,240.23 154.6,241.24C154.91,242.28 155.21,243.34 155.51,244.41C155.82,245.51 156.11,246.62 156.41,247.74C156.71,248.87 157.02,250.02 157.32,251.16C157.62,252.3 157.92,253.45 158.22,254.58C158.52,255.68 158.81,256.79 159.12,257.85C159.41,258.85 159.71,259.85 160.03,260.77C160.32,261.61 160.61,262.43 160.93,263.17C161.22,263.83 161.52,264.45 161.84,265C162.12,265.48 162.42,265.93 162.74,266.29C163.02,266.61 163.32,266.9 163.64,267.09C163.93,267.27 164.24,267.38 164.55,267.44C164.85,267.5 165.15,267.49 165.45,267.45C165.76,267.41 166.06,267.3 166.36,267.18C166.67,267.06 166.96,266.89 167.26,266.72C167.57,266.54 167.86,266.34 168.16,266.12C168.47,265.9 168.77,265.66 169.07,265.4C169.38,265.14 169.68,264.86 169.97,264.56C170.28,264.25 170.58,263.91 170.88,263.56C171.19,263.19 171.49,262.79 171.78,262.38C172.09,261.95 172.39,261.5 172.68,261.02C172.99,260.51 173.3,259.99 173.59,259.42C173.9,258.81 174.19,258.13 174.49,257.46C174.8,256.77 175.09,256.04 175.4,255.35C175.7,254.67 175.99,254 176.3,253.35C176.6,252.72 176.9,252.11 177.21,251.52C177.51,250.95 177.8,250.4 178.11,249.87C178.4,249.36 178.7,248.86 179.01,248.38C179.31,247.92 179.61,247.49 179.92,247.06C180.22,246.64 180.52,246.26 180.82,245.84C181.13,245.41 181.44,244.98 181.73,244.52C182.04,244.04 182.33,243.52 182.63,243C182.93,242.47 183.23,241.93 183.53,241.39C183.83,240.85 184.14,240.31 184.44,239.77C184.74,239.24 185.04,238.71 185.34,238.19C185.64,237.67 185.95,237.16 186.25,236.65C186.55,236.15 186.85,235.65 187.15,235.16C187.45,234.67 187.75,234.19 188.05,233.7C188.35,233.21 188.66,232.73 188.96,232.24C189.26,231.76 189.56,231.27 189.86,230.79C190.16,230.3 190.47,229.82 190.77,229.33C191.07,228.85 191.37,228.36 191.67,227.88C191.97,227.41 192.28,226.93 192.58,226.47C192.88,226.02 193.17,225.56 193.48,225.13C193.78,224.71 194.07,224.3 194.38,223.92C194.68,223.56 194.98,223.2 195.29,222.89C195.58,222.6 195.88,222.31 196.19,222.09C196.48,221.88 196.79,221.69 197.1,221.57C197.39,221.46 197.7,221.39 198,221.4C198.3,221.41 198.61,221.48 198.9,221.61C199.22,221.76 199.52,222 199.81,222.27C200.13,222.58 200.43,222.97 200.71,223.39C201.03,223.87 201.33,224.43 201.62,225.02C201.94,225.68 202.23,226.41 202.52,227.17C202.84,228.01 203.13,228.91 203.42,229.85C203.74,230.87 204.04,231.95 204.33,233.06C204.64,234.25 204.94,235.51 205.23,236.79C205.54,238.15 205.85,239.56 206.14,241.01C206.45,242.53 206.74,244.1 207.04,245.7C207.35,247.37 207.65,249.08 207.95,250.81C208.26,252.6 208.55,254.42 208.85,256.26C209.15,258.15 209.45,260.07 209.75,261.99C210.05,263.93 210.36,265.9 210.66,267.85C210.96,269.8 211.26,271.76 211.56,273.68C211.86,275.56 212.16,277.48 212.47,279.26C212.76,280.91 213.04,282.56 213.37,284.01C213.65,285.26 213.95,286.39 214.27,287.47C214.56,288.43 214.86,289.33 215.18,290.18C215.47,290.95 215.75,291.72 216.08,292.36C216.36,292.9 216.63,293.51 216.99,293.8C217.26,294.02 217.62,294.24 217.89,294.15C218.24,294.04 218.53,293.36 218.79,292.76C219.18,291.85 219.42,290.46 219.7,289.11C220.04,287.46 220.31,285.5 220.6,283.56C220.92,281.42 221.22,279.12 221.51,276.82C221.82,274.41 222.11,271.9 222.41,269.4C222.71,266.86 223.02,264.27 223.32,261.71C223.62,259.15 223.92,256.57 224.22,254.04C224.52,251.55 224.81,249.07 225.12,246.63C225.42,244.26 225.72,241.9 226.03,239.61C226.33,237.4 226.62,235.22 226.93,233.11C227.23,231.09 227.53,229.11 227.84,227.2C228.13,225.4 228.43,223.64 228.74,221.95C229.03,220.37 229.32,218.84 229.64,217.39C229.93,216.05 230.23,214.76 230.55,213.56C230.84,212.47 231.13,211.43 231.45,210.48C231.74,209.64 232.03,208.84 232.36,208.14C232.64,207.55 232.93,206.98 233.26,206.54C233.54,206.18 233.83,205.84 234.16,205.66C234.44,205.51 234.77,205.43 235.07,205.47C235.38,205.51 235.69,205.7 235.97,205.91C236.3,206.15 236.59,206.53 236.88,206.9C237.2,207.32 237.49,207.83 237.78,208.33C238.09,208.87 238.38,209.48 238.68,210.05C238.98,210.63 239.29,211.21 239.59,211.78C239.89,212.34 240.19,212.87 240.49,213.43C240.79,213.99 241.1,214.56 241.4,215.14C241.71,215.73 242,216.35 242.3,216.96C242.6,217.58 242.91,218.21 243.21,218.83C243.51,219.44 243.8,220.06 244.11,220.64C244.4,221.2 244.69,221.76 245.01,222.25C245.3,222.7 245.59,223.16 245.92,223.48C246.2,223.75 246.51,224.04 246.82,224.08C247.11,224.12 247.46,223.98 247.73,223.75C248.1,223.44 248.36,222.8 248.63,222.16C248.99,221.32 249.25,220.21 249.53,219.08C249.86,217.73 250.15,216.16 250.44,214.58C250.76,212.82 251.05,210.91 251.34,208.99C251.65,206.96 251.95,204.82 252.25,202.7C252.56,200.52 252.85,198.29 253.15,196.07C253.45,193.84 253.75,191.59 254.05,189.36C254.35,187.16 254.65,184.95 254.96,182.78C255.26,180.66 255.55,178.55 255.86,176.49C256.16,174.49 256.46,172.52 256.77,170.6C257.07,168.76 257.36,166.96 257.67,165.21C257.96,163.55 258.27,161.93 258.58,160.37C258.87,158.91 259.17,157.48 259.48,156.13C259.77,154.87 260.06,153.66 260.38,152.51C260.67,151.45 260.97,150.44 261.29,149.49C261.58,148.63 261.87,147.81 262.19,147.06C262.48,146.39 262.77,145.75 263.1,145.21C263.38,144.74 263.67,144.28 264,143.96C264.28,143.69 264.58,143.43 264.9,143.34C265.19,143.26 265.52,143.28 265.81,143.39C266.13,143.51 266.43,143.81 266.71,144.12C267.04,144.49 267.34,144.99 267.62,145.51C267.95,146.11 268.23,146.82 268.52,147.54C268.84,148.35 269.13,149.23 269.42,150.14C269.73,151.12 270.04,152.15 270.33,153.2C270.64,154.31 270.93,155.46 271.23,156.62C271.54,157.81 271.84,159.03 272.14,160.24C272.44,161.47 272.74,162.71 273.04,163.94C273.34,165.16 273.65,166.39 273.95,167.59C274.25,168.77 274.55,169.95 274.85,171.1C275.15,172.22 275.44,173.33 275.75,174.4C276.05,175.43 276.35,176.44 276.66,177.4C276.95,178.3 277.24,179.19 277.56,179.99C277.85,180.71 278.14,181.44 278.47,182.02C278.75,182.51 279.02,183.02 279.37,183.28C279.64,183.48 279.99,183.65 280.27,183.59C280.6,183.52 280.91,183.12 281.18,182.73C281.55,182.19 281.81,181.36 282.08,180.51C282.43,179.43 282.71,178.1 282.99,176.75C283.32,175.2 283.6,173.46 283.89,171.72C284.2,169.84 284.49,167.85 284.79,165.84C285.1,163.74 285.4,161.57 285.7,159.39C286.01,157.15 286.3,154.86 286.6,152.57C286.9,150.25 287.21,147.9 287.51,145.55C287.81,143.2 288.11,140.82 288.41,138.47C288.71,136.13 289.02,133.79 289.32,131.47C289.62,129.18 289.92,126.9 290.22,124.65C290.52,122.45 290.81,120.28 291.12,118.14C291.42,116.07 291.72,114.01 292.03,112.01C292.33,110.08 292.62,108.18 292.93,106.33C293.23,104.57 293.53,102.84 293.84,101.17C294.13,99.59 294.43,98.06 294.74,96.58C295.03,95.2 295.33,93.85 295.64,92.58C295.93,91.41 296.23,90.27 296.55,89.21C296.84,88.24 297.13,87.31 297.45,86.45C297.74,85.68 298.04,84.95 298.36,84.29C298.65,83.7 298.94,83.15 299.26,82.66C299.54,82.23 299.84,81.84 300.16,81.5C300.45,81.2 300.75,80.92 301.07,80.71C301.36,80.52 301.66,80.37 301.97,80.29C302.27,80.21 302.58,80.19 302.88,80.22C303.18,80.25 303.49,80.36 303.78,80.5C304.09,80.65 304.39,80.87 304.68,81.11C305,81.38 305.3,81.7 305.59,82.05C305.91,82.44 306.2,82.88 306.49,83.35C306.81,83.86 307.11,84.43 307.4,85.02C307.71,85.66 308.01,86.35 308.3,87.06C308.61,87.83 308.92,88.64 309.21,89.47C309.52,90.35 309.82,91.28 310.11,92.22C310.42,93.21 310.71,94.24 311.01,95.29C311.32,96.38 311.62,97.51 311.92,98.65C312.23,99.84 312.52,101.05 312.82,102.28C313.13,103.55 313.43,104.83 313.73,106.14C314.04,107.48 314.33,108.85 314.63,110.23C314.93,111.65 315.23,113.08 315.53,114.54C315.84,116.04 316.14,117.55 316.44,119.09C316.75,120.66 317.04,122.25 317.34,123.87C317.65,125.53 317.95,127.22 318.25,128.93C318.56,130.68 318.85,132.46 319.15,134.26C319.45,136.11 319.75,137.99 320.05,139.9C320.36,141.86 320.66,143.84 320.96,145.85C321.27,147.91 321.56,150 321.86,152.12C322.17,154.29 322.47,156.49 322.77,158.71C323.08,160.99 323.37,163.29 323.67,165.62C323.97,168 324.28,170.4 324.58,172.82C324.88,175.29 325.18,177.79 325.48,180.3C325.78,182.86 326.08,185.44 326.38,188.03C326.68,190.66 326.99,193.32 327.29,195.98C327.59,198.67 327.89,201.38 328.19,204.09C328.49,206.82 328.8,209.57 329.1,212.32C329.4,215.07 329.7,217.83 330,220.58C330.3,223.32 330.6,226.06 330.9,228.77C331.2,231.45 331.51,234.12 331.81,236.75C332.11,239.32 332.4,241.88 332.71,244.39C333.01,246.84 333.31,249.27 333.62,251.66C333.92,254 334.22,256.31 334.52,258.6C334.82,260.84 335.11,263.05 335.42,265.23C335.72,267.36 336.02,269.46 336.33,271.53C336.63,273.54 336.92,275.52 337.23,277.46C337.53,279.33 337.83,281.18 338.14,282.98C338.44,284.7 338.73,286.41 339.04,288.03C339.33,289.54 339.62,291.05 339.95,292.39C340.23,293.54 340.53,294.59 340.85,295.59C341.14,296.49 341.41,297.41 341.75,298.13C342.03,298.71 342.29,299.43 342.66,299.64C342.93,299.79 343.29,299.78 343.56,299.65C343.91,299.48 344.19,298.93 344.47,298.46C344.81,297.89 345.08,297.15 345.37,296.45C345.68,295.72 345.97,294.93 346.27,294.16C346.58,293.37 346.88,292.56 347.18,291.74C347.48,290.91 347.78,290.06 348.08,289.23C348.38,288.4 348.69,287.57 348.99,286.75C349.29,285.94 349.59,285.13 349.89,284.32C350.19,283.5 350.48,282.65 350.79,281.85C351.09,281.08 351.39,280.32 351.7,279.6C351.99,278.93 352.28,278.29 352.6,277.69C352.89,277.14 353.19,276.62 353.51,276.15C353.8,275.72 354.09,275.32 354.41,274.96C354.7,274.63 355.01,274.34 355.32,274.08C355.61,273.84 355.92,273.64 356.22,273.44C356.52,273.25 356.82,273.09 357.12,272.92C357.42,272.75 357.73,272.58 358.03,272.4C358.33,272.22 358.63,272.05 358.93,271.85C359.24,271.64 359.55,271.44 359.84,271.18C360.15,270.9 360.45,270.59 360.74,270.24C361.05,269.86 361.34,269.41 361.64,268.99C361.94,268.56 362.25,268.11 362.55,267.67C362.85,267.24 363.15,266.82 363.45,266.38C363.76,265.92 364.06,265.45 364.36,264.96C364.67,264.46 364.96,263.94 365.26,263.43C365.56,262.92 365.87,262.45 366.16,261.92C366.47,261.36 366.78,260.78 367.07,260.14C367.39,259.43 367.67,258.61 367.97,257.84C368.27,257.07 368.58,256.29 368.88,255.51C369.18,254.73 369.48,253.95 369.78,253.17C370.08,252.4 370.38,251.63 370.68,250.87C370.98,250.12 371.29,249.37 371.59,248.63C371.89,247.91 372.18,247.18 372.49,246.48C372.79,245.8 373.09,245.13 373.4,244.47C373.7,243.83 373.99,243.21 374.3,242.6C374.6,242.01 374.9,241.44 375.21,240.89C375.51,240.36 375.81,239.84 376.11,239.34C376.41,238.85 376.71,238.38 377.01,237.92C377.31,237.47 377.62,237.03 377.92,236.59C378.22,236.15 378.52,235.72 378.82,235.27C379.12,234.81 379.43,234.35 379.73,233.88C380.03,233.4 380.33,232.9 380.63,232.4C380.93,231.9 381.23,231.38 381.53,230.88C381.83,230.39 382.13,229.89 382.44,229.42C382.74,228.96 383.03,228.51 383.34,228.08C383.64,227.67 383.94,227.27 384.25,226.9C384.54,226.55 384.84,226.22 385.15,225.92C385.44,225.63 385.74,225.36 386.05,225.13C386.34,224.91 386.65,224.71 386.96,224.54C387.25,224.38 387.55,224.24 387.86,224.14C388.16,224.04 388.47,223.97 388.77,223.93C389.07,223.89 389.37,223.87 389.67,223.87C389.97,223.87 390.28,223.91 390.58,223.96C390.88,224.01 391.18,224.08 391.48,224.16C391.78,224.24 392.08,224.35 392.38,224.45C392.68,224.55 392.99,224.67 393.29,224.78C393.59,224.9 393.89,225.02 394.19,225.14C394.49,225.26 394.8,225.37 395.1,225.49C395.4,225.61 395.7,225.72 396,225.84C396.3,225.96 396.6,226.08 396.9,226.21C397.2,226.34 397.51,226.47 397.81,226.62C398.11,226.77 398.41,226.92 398.71,227.1C399.02,227.28 399.32,227.48 399.62,227.7C399.93,227.93 400.23,228.18 400.52,228.45C400.83,228.74 401.13,229.05 401.42,229.39C401.73,229.75 402.04,230.13 402.33,230.53C402.64,230.96 402.94,231.42 403.23,231.9C403.54,232.41 403.85,232.96 404.14,233.52C404.45,234.11 404.75,234.74 405.04,235.38C405.35,236.06 405.65,236.77 405.95,237.5C406.26,238.26 406.56,239.05 406.85,239.85C407.16,240.69 407.45,241.54 407.75,242.42C408.06,243.33 408.36,244.26 408.66,245.2C408.97,246.16 409.26,247.15 409.56,248.14C409.86,249.15 410.17,250.18 410.47,251.21C410.77,252.25 411.07,253.3 411.37,254.34C411.67,255.38 411.97,256.43 412.27,257.47C412.57,258.5 412.88,259.52 413.18,260.54C413.48,261.54 413.78,262.54 414.08,263.52C414.38,264.49 414.69,265.45 414.99,266.41C415.29,267.35 415.59,268.29 415.89,269.22C416.19,270.13 416.48,271.05 416.79,271.92C417.09,272.75 417.39,273.56 417.7,274.35C418,275.11 418.3,275.84 418.6,276.57C418.9,277.29 419.21,278 419.51,278.7C419.81,279.39 420.11,280.07 420.41,280.75C420.71,281.42 421.02,282.09 421.32,282.75C421.62,283.4 421.92,284.05 422.22,284.7C422.52,285.35 422.82,285.99 423.12,286.63C423.42,287.28 423.73,287.92 424.03,288.57C424.33,289.21 424.63,289.86 424.93,290.5C425.23,291.13 425.54,291.75 425.84,292.36C426.14,292.97 426.44,293.57 426.74,294.16C427.04,294.75 427.33,295.35 427.64,295.91C427.94,296.45 428.25,296.94 428.55,297.46C428.85,297.98 429.15,298.49 429.45,299.02C429.75,299.55 430.05,300.12 430.36,300.64C430.65,301.13 430.93,301.68 431.26,302.05C431.54,302.36 431.84,302.63 432.16,302.76C432.45,302.88 432.77,302.89 433.07,302.85C433.38,302.81 433.67,302.63 433.97,302.53C434.27,302.43 434.58,302.34 434.88,302.25C435.18,302.16 435.48,302.1 435.78,301.98C436.09,301.86 436.38,301.69 436.68,301.53C436.99,301.37 437.29,301.18 437.59,301C437.89,300.82 438.19,300.65 438.49,300.47C438.79,300.29 439.1,300.12 439.4,299.94C439.7,299.77 440,299.59 440.3,299.42C440.6,299.25 440.91,299.07 441.21,298.9C441.51,298.73 441.81,298.57 442.11,298.41C442.41,298.26 442.71,298.1 443.01,297.97C443.31,297.84 443.62,297.71 443.92,297.61C444.22,297.51 444.52,297.42 444.82,297.35C445.12,297.28 445.43,297.23 445.73,297.19C446.03,297.15 446.33,297.12 446.63,297.09C446.93,297.07 447.23,297.05 447.53,297.04C447.83,297.03 448.14,297.03 448.44,297.02C448.74,297.01 449.04,297 449.34,297C449.64,296.99 449.95,297 450.25,296.99C450.55,296.98 450.85,296.97 451.15,296.94C451.45,296.91 451.75,296.85 452.05,296.83C452.35,296.8 452.66,296.78 452.96,296.79C453.26,296.8 453.56,296.82 453.86,296.87C454.16,296.92 454.47,296.99 454.77,297.08C455.07,297.18 455.37,297.3 455.67,297.44C455.98,297.59 456.28,297.76 456.58,297.94C456.89,298.13 457.18,298.34 457.48,298.56C457.78,298.79 458.08,299.04 458.38,299.3C458.69,299.56 458.99,299.84 459.29,300.12C459.59,300.4 459.89,300.69 460.19,300.97C460.49,301.25 460.79,301.53 461.1,301.79Q461.4,302.04 462,302.48" style="vector-effect: non-scaling-stroke; fill: none; stroke: rgb(231, 107, 243); stroke-opacity: 1; stroke-width: 2px; opacity: 1;"/></g><g class="points"/><g class="text"/></g></g></g><g class="overplot"/><path class="xlines-above crisp" d="M0,0" style="fill: none;"/><path class="ylines-above crisp" d="M0,0" style="fill: none;"/><g class="overlines-above"/><g class="xaxislayer-above"><g class="xtick"><text text-anchor="middle" x="0" y="433" transform="translate(80,0)" style="font-family: 'Open Sans', verdana, arial, sans-serif; font-size: 12px; fill: rgb(42, 63, 95); fill-opacity: 1; white-space: pre;">0</text></g><g class="xtick"><text text-anchor="middle" x="0" y="433" transform="translate(170.23000000000002,0)" style="font-family: 'Open Sans', verdana, arial, sans-serif; font-size: 12px; fill: rgb(42, 63, 95); fill-opacity: 1; white-space: pre;">100</text></g><g class="xtick"><text text-anchor="middle" x="0" y="433" transform="translate(260.47,0)" style="font-family: 'Open Sans', verdana, arial, sans-serif; font-size: 12px; fill: rgb(42, 63, 95); fill-opacity: 1; white-space: pre;">200</text></g><g class="xtick"><text text-anchor="middle" x="0" y="433" transform="translate(350.7,0)" style="font-family: 'Open Sans', verdana, arial, sans-serif; font-size: 12px; fill: rgb(42, 63, 95); fill-opacity: 1; white-space: pre;">300</text></g><g class="xtick"><text text-anchor="middle" x="0" y="433" transform="translate(440.94,0)" style="font-family: 'Open Sans', verdana, arial, sans-serif; font-size: 12px; fill: rgb(42, 63, 95); fill-opacity: 1; white-space: pre;">400</text></g><g class="xtick"><text text-anchor="middle" x="0" y="433" transform="translate(531.1700000000001,0)" style="font-family: 'Open Sans', verdana, arial, sans-serif; font-size: 12px; fill: rgb(42, 63, 95); fill-opacity: 1; white-space: pre;">500</text></g></g><g class="yaxislayer-above"><g class="ytick"><text text-anchor="end" x="79" y="4.199999999999999" transform="translate(0,370.36)" style="font-family: 'Open Sans', verdana, arial, sans-serif; font-size: 12px; fill: rgb(42, 63, 95); fill-opacity: 1; white-space: pre;">500</text></g><g class="ytick"><text text-anchor="end" x="79" y="4.199999999999999" transform="translate(0,287.83000000000004)" style="font-family: 'Open Sans', verdana, arial, sans-serif; font-size: 12px; fill: rgb(42, 63, 95); fill-opacity: 1; white-space: pre;">1000</text></g><g class="ytick"><text text-anchor="end" x="79" y="4.199999999999999" transform="translate(0,205.3)" style="font-family: 'Open Sans', verdana, arial, sans-serif; font-size: 12px; fill: rgb(42, 63, 95); fill-opacity: 1; white-space: pre;">1500</text></g><g class="ytick"><text text-anchor="end" x="79" y="4.199999999999999" transform="translate(0,122.76)" style="font-family: 'Open Sans', verdana, arial, sans-serif; font-size: 12px; fill: rgb(42, 63, 95); fill-opacity: 1; white-space: pre;">2000</text></g></g><g class="overaxes-above"/></g></g><g class="polarlayer"/><g class="ternarylayer"/><g class="geolayer"/><g class="funnelarealayer"/><g class="pielayer"/><g class="treemaplayer"/><g class="sunburstlayer"/><g class="glimages"/><defs id="topdefs-5453c1"><g class="clips"/><clipPath id="legend5453c1"><rect width="137" height="67" x="0" y="0"/></clipPath></defs><g class="layer-above"><g class="imagelayer"/><g class="shapelayer"/></g><g class="infolayer"><g class="legend" pointer-events="all" transform="translate(551.24, 100)"><rect class="bg" shape-rendering="crispEdges" width="137" height="67" x="0" y="0" style="stroke: rgb(68, 68, 68); stroke-opacity: 1; fill: rgb(255, 255, 255); fill-opacity: 1; stroke-width: 0px;"/><g class="scrollbox" transform="translate(0, 0)" clip-path="url('#legend5453c1')"><g class="groups"><g class="traces" transform="translate(0, 14.5)" style="opacity: 1;"><text class="legendtext" text-anchor="start" x="40" y="4.680000000000001" style="font-family: 'Open Sans', verdana, arial, sans-serif; font-size: 12px; fill: rgb(42, 63, 95); fill-opacity: 1; white-space: pre;">Average Class I</text><g class="layers" style="opacity: 1;"><g class="legendfill"/><g class="legendlines"><path class="js-line" d="M5,0h30" style="fill: none; stroke: rgb(0, 100, 80); stroke-opacity: 1; stroke-width: 2px;"/></g><g class="legendsymbols"><g class="legendpoints"/></g></g><rect class="legendtoggle" x="0" y="-9.5" width="131.15625" height="19" style="fill: rgb(0, 0, 0); fill-opacity: 0;"/></g><g class="traces" transform="translate(0, 33.5)" style="opacity: 1;"><text class="legendtext" text-anchor="start" x="40" y="4.680000000000001" style="font-family: 'Open Sans', verdana, arial, sans-serif; font-size: 12px; fill: rgb(42, 63, 95); fill-opacity: 1; white-space: pre;">Average Class II</text><g class="layers" style="opacity: 1;"><g class="legendfill"/><g class="legendlines"><path class="js-line" d="M5,0h30" style="fill: none; stroke: rgb(0, 176, 246); stroke-opacity: 1; stroke-width: 2px;"/></g><g class="legendsymbols"><g class="legendpoints"/></g></g><rect class="legendtoggle" x="0" y="-9.5" width="131.15625" height="19" style="fill: rgb(0, 0, 0); fill-opacity: 0;"/></g><g class="traces" transform="translate(0, 52.5)" style="opacity: 1;"><text class="legendtext" text-anchor="start" x="40" y="4.680000000000001" style="font-family: 'Open Sans', verdana, arial, sans-serif; font-size: 12px; fill: rgb(42, 63, 95); fill-opacity: 1; white-space: pre;">Average Class III</text><g class="layers" style="opacity: 1;"><g class="legendfill"/><g class="legendlines"><path class="js-line" d="M5,0h30" style="fill: none; stroke: rgb(231, 107, 243); stroke-opacity: 1; stroke-width: 2px;"/></g><g class="legendsymbols"><g class="legendpoints"/></g></g><rect class="legendtoggle" x="0" y="-9.5" width="131.15625" height="19" style="fill: rgb(0, 0, 0); fill-opacity: 0;"/></g></g></g><rect class="scrollbar" rx="20" ry="3" width="0" height="0" x="0" y="0" style="fill: rgb(128, 139, 164); fill-opacity: 1;"/></g><g class="g-gtitle"><text class="gtitle" x="35" y="50" text-anchor="start" dy="0em" style="font-family: 'Open Sans', verdana, arial, sans-serif; font-size: 17px; fill: rgb(42, 63, 95); opacity: 1; font-weight: normal; white-space: pre;">Average curve: secondary_structure_properties_group</text></g><g class="g-xtitle"><text class="xtitle" x="311" y="460.8" text-anchor="middle" style="font-family: 'Open Sans', verdana, arial, sans-serif; font-size: 14px; fill: rgb(42, 63, 95); opacity: 1; font-weight: normal; white-space: pre;">Domain</text></g><g class="g-ytitle"><text class="ytitle" transform="rotate(-90,27.496875000000003,260)" x="27.496875000000003" y="260" text-anchor="middle" style="font-family: 'Open Sans', verdana, arial, sans-serif; font-size: 14px; fill: rgb(42, 63, 95); opacity: 1; font-weight: normal; white-space: pre;">Frequency</text></g></g></svg>