<svg class="main-svg" xmlns="http://www.w3.org/2000/svg" xmlns:xlink="http://www.w3.org/1999/xlink" width="700" height="500" style="" viewBox="0 0 700 500"><rect x="0" y="0" width="700" height="500" style="fill: rgb(255, 255, 255); fill-opacity: 1;"/><defs id="defs-15ef87"><g class="clips"><clipPath id="clip15ef87xyplot" class="plotclip"><rect width="497" height="320"/></clipPath><clipPath class="axesclip" id="clip15ef87x"><rect x="80" y="0" width="497" height="500"/></clipPath><clipPath class="axesclip" id="clip15ef87y"><rect x="0" y="100" width="700" height="320"/></clipPath><clipPath class="axesclip" id="clip15ef87xy"><rect x="80" y="100" width="497" height="320"/></clipPath></g><g class="gradients"/></defs><g class="bglayer"><rect class="bg" x="80" y="100" width="497" height="320" style="fill: rgb(229, 236, 246); fill-opacity: 1; stroke-width: 0;"/></g><g class="layer-below"><g class="imagelayer"/><g class="shapelayer"/></g><g class="cartesianlayer"><g class="subplot xy"><g class="layer-subplot"><g class="shapelayer"/><g class="imagelayer"/></g><g class="gridlayer"><g class="x"><path class="xgrid crisp" transform="translate(157.66,0)" d="M0,100v320" style="stroke: rgb(255, 255, 255); stroke-opacity: 1; stroke-width: 1px;"/><path class="xgrid crisp" transform="translate(235.31,0)" d="M0,100v320" style="stroke: rgb(255, 255, 255); stroke-opacity: 1; stroke-width: 1px;"/><path class="xgrid crisp" transform="translate(312.97,0)" d="M0,100v320" style="stroke: rgb(255, 255, 255); stroke-opacity: 1; stroke-width: 1px;"/><path class="xgrid crisp" transform="translate(390.63,0)" d="M0,100v320" style="stroke: rgb(255, 255, 255); stroke-opacity: 1; stroke-width: 1px;"/><path class="xgrid crisp" transform="translate(468.28,0)" d="M0,100v320" style="stroke: rgb(255, 255, 255); stroke-opacity: 1; stroke-width: 1px;"/><path class="xgrid crisp" transform="translate(545.94,0)" d="M0,100v320" style="stroke: rgb(255, 255, 255); stroke-opacity: 1; stroke-width: 1px;"/></g><g class="y"><path class="ygrid crisp" transform="translate(0,358.77)" d="M80,0h497" style="stroke: rgb(255, 255, 255); stroke-opacity: 1; stroke-width: 1px;"/><path class="ygrid crisp" transform="translate(0,306.4)" d="M80,0h497" style="stroke: rgb(255, 255, 255); stroke-opacity: 1; stroke-width: 1px;"/><path class="ygrid crisp" transform="translate(0,254.03)" d="M80,0h497" style="stroke: rgb(255, 255, 255); stroke-opacity: 1; stroke-width: 1px;"/><path class="ygrid crisp" transform="translate(0,201.66)" d="M80,0h497" style="stroke: rgb(255, 255, 255); stroke-opacity: 1; stroke-width: 1px;"/><path class="ygrid crisp" transform="translate(0,149.29)" d="M80,0h497" style="stroke: rgb(255, 255, 255); stroke-opacity: 1; stroke-width: 1px;"/></g></g><g class="zerolinelayer"><path class="xzl zl crisp" transform="translate(80,0)" d="M0,100v320" style="stroke: rgb(255, 255, 255); stroke-opacity: 1; stroke-width: 2px;"/><path class="yzl zl crisp" transform="translate(0,411.14)" d="M80,0h497" style="stroke: rgb(255, 255, 255); stroke-opacity: 1; stroke-width: 2px;"/></g><path class="xlines-below"/><path class="ylines-below"/><g class="overlines-below"/><g class="xaxislayer-below"/><g class="yaxislayer-below"/><g class="overaxes-below"/><g class="plot" transform="translate(80, 100)" clip-path="url('#clip15ef87xyplot')"><g class="scatterlayer mlayer"><g class="trace scatter trace184fcc" style="stroke-miterlimit: 2; opacity: 1;"><g class="fills"/><g class="errorbars"/><g class="lines"><path class="js-line" d="M0,16Q7.54,170.06 16.03,171.24C20.5,171.86 26.25,143.02 32.06,131.03C37.06,120.69 43.51,102.42 48.1,103.16C55.31,104.32 55.97,164.63 64.13,180.81C68.62,189.72 75.68,199.95 80.16,198.71C88.54,196.39 91.37,115.77 96.19,115.95C102.4,116.19 106.3,254.69 112.23,254.84C117.17,254.97 122.15,159.59 128.26,159.29C133.12,159.05 135.82,214.01 144.29,218.4C148.76,220.72 155.53,210.95 160.32,212.55C166.62,214.66 170.73,236.88 176.35,237.28C181.47,237.65 186.95,219.07 192.39,218.91C197.65,218.75 203.87,236.38 208.42,235.18C215.88,233.22 218.85,176.09 224.45,175.94C229.57,175.8 234.89,224.52 240.48,224.69C245.62,224.85 249.49,186.68 256.52,184.31C261.14,182.75 268.11,196.18 272.55,193.96C285.35,187.58 283.56,39.64 288.58,39.7C294.34,39.77 298.7,243.12 304.61,243.22C309.56,243.3 315.38,101.25 320.65,101.27C326.07,101.29 331.4,251.65 336.68,251.64C342.09,251.63 347.12,94.16 352.71,94.11C357.85,94.06 362.32,226.78 368.74,227.1C373.49,227.34 379.69,155.2 384.77,155.31C390.45,155.44 395.73,245.97 400.81,245.88C406.49,245.78 410.92,132.38 416.84,132.2C421.78,132.05 426.33,189.26 432.87,210.51C437.59,225.85 443.38,248.79 448.9,248.94C454.09,249.09 459.56,215.87 464.94,215.84C470.25,215.81 474.48,240.73 480.97,247.98Q485.7,253.26 497,258.3" style="vector-effect: non-scaling-stroke; fill: none; stroke: rgb(0, 100, 80); stroke-opacity: 1; stroke-width: 2px; opacity: 1;"/></g><g class="points"/><g class="text"/></g><g class="trace scatter trace132421" style="stroke-miterlimit: 2; opacity: 1;"><g class="fills"/><g class="errorbars"/><g class="lines"><path class="js-line" d="M0,86.17Q10.38,157.84 16.03,157.98C21.13,158.11 25.66,115.93 32.06,100.27C36.82,88.62 43.66,70.37 48.1,71.26C57.37,73.11 53,210.8 64.13,214.65C68.56,216.18 75.57,206.14 80.16,198.38C87.35,186.22 91.36,144.43 96.19,144.71C102.38,145.07 107.1,235.28 112.23,235.21C117.83,235.13 121.96,126.97 128.26,126.63C133.05,126.37 137.61,172.08 144.29,188.01C148.98,199.19 155.14,215.04 160.32,214.86C165.85,214.66 170.25,191.48 176.35,183.06C181.21,176.35 187.96,165.6 192.39,167.09C202.42,170.46 203.33,281.92 208.42,281.85C214.07,281.78 218.68,139.87 224.45,139.77C229.47,139.68 234.51,246.85 240.48,247.06C245.4,247.23 248.68,177.1 256.52,175.11C261.04,173.97 268.12,194.97 272.55,193.55C284.22,189.8 283.49,24.65 288.58,24.7C294.24,24.75 298.95,233.85 304.61,233.9C309.7,233.95 315.56,65.1 320.65,65.15C326.3,65.2 331.34,273.39 336.68,273.39C342.03,273.39 347.27,64.45 352.71,64.43C357.96,64.42 362.23,259.03 368.74,259.27C373.47,259.45 379.53,157.5 384.77,157.53C390.23,157.56 395.52,267.92 400.81,267.9C406.22,267.88 410.81,152.56 416.84,152.34C421.73,152.16 426.38,207.04 432.87,227.55C437.6,242.51 444.29,265.71 448.9,265.16C455.99,264.32 459.49,169.63 464.94,169.59C470.19,169.56 470.72,251.87 480.97,258.08Q485.4,260.76 497,253.09" style="vector-effect: non-scaling-stroke; fill: none; stroke: rgb(0, 176, 246); stroke-opacity: 1; stroke-width: 2px; opacity: 1;"/></g><g class="points"/><g class="text"/></g><g class="trace scatter trace944b6d" style="stroke-miterlimit: 2; opacity: 1;"><g class="fills"/><g class="errorbars"/><g class="lines"><path class="js-line" d="M0,192.87Q10.55,152.01 16.03,132.43C21.25,113.78 27.24,77.72 32.06,78C38.28,78.36 43.15,137.14 48.1,170.97C54,211.28 53.53,300.51 64.13,304C68.56,305.46 75.65,295.46 80.16,287.01C88.09,272.13 90.18,237.21 96.19,216.42C101.09,199.47 104.5,175.24 112.23,171.05C116.76,168.59 123.57,171.35 128.26,174.92C134.9,179.97 139.62,191.8 144.29,203.79C151.02,221.06 155.63,270.61 160.32,270.33C166.98,269.93 169.35,133.64 176.35,133.11C180.97,132.76 187.36,170.42 192.39,191.32C198.16,215.3 202.72,268.99 208.42,269.15C213.48,269.29 219.19,208.47 224.45,208.51C229.88,208.55 234.95,273.13 240.48,273.23C245.66,273.32 251.77,238.82 256.52,216.89C262.96,187.14 261.06,120 272.55,110.24C276.98,106.48 284.15,106.73 288.58,110.45C298.84,119.06 297.46,194.05 304.61,195.05C309.21,195.7 315.44,163.06 320.65,163.2C326.15,163.34 331.29,199.58 336.68,199.62C341.98,199.66 347.03,164.92 352.71,164.58C357.79,164.28 363.99,180.18 368.74,190.86C375.16,205.28 379.35,244.59 384.77,244.64C390.04,244.69 393.35,196.46 400.81,194C405.37,192.5 412.12,199.88 416.84,205.61C423.39,213.56 426.2,238.18 432.87,240.19C437.56,241.6 444.15,235.43 448.9,230.34C455.34,223.44 459.95,199.34 464.94,199.68C470.78,200.08 474.47,232.93 480.97,244.34Q485.7,252.65 497,263.73" style="vector-effect: non-scaling-stroke; fill: none; stroke: rgb(231, 107, 243); stroke-opacity: 1; stroke-width: 2px; opacity: 1;"/></g><g class="points"/><g class="text"/></g></g></g><g class="overplot"/><path class="xlines-above crisp" d="M0,0" style="fill: none;"/><path class="ylines-above crisp" d="M0,0" style="fill: none;"/><g class="overlines-above"/><g class="xaxislayer-above"><g class="xtick"><text text-anchor="middle" x="0" y="433" transform="translate(80,0)" style="font-family: 'Open Sans', verdana, arial, sans-serif; font-size: 12px; fill: rgb(42, 63, 95); fill-opacity: 1; white-space: pre;">0</text></g><g class="xtick"><text text-anchor="middle" x="0" y="433" transform="translate(157.66,0)" style="font-family: 'Open Sans', verdana, arial, sans-serif; font-size: 12px; fill: rgb(42, 63, 95); fill-opacity: 1; white-space: pre;">5</text></g><g class="xtick"><text text-anchor="middle" x="0" y="433" transform="translate(235.31,0)" style="font-family: 'Open Sans', verdana, arial, sans-serif; font-size: 12px; fill: rgb(42, 63, 95); fill-opacity: 1; white-space: pre;">10</text></g><g class="xtick"><text text-anchor="middle" x="0" y="433" transform="translate(312.97,0)" style="font-family: 'Open Sans', verdana, arial, sans-serif; font-size: 12px; fill: rgb(42, 63, 95); fill-opacity: 1; white-space: pre;">15</text></g><g class="xtick"><text text-anchor="middle" x="0" y="433" transform="translate(390.63,0)" style="font-family: 'Open Sans', verdana, arial, sans-serif; font-size: 12px; fill: rgb(42, 63, 95); fill-opacity: 1; white-space: pre;">20</text></g><g class="xtick"><text text-anchor="middle" x="0" y="433" transform="translate(468.28,0)" style="font-family: 'Open Sans', verdana, arial, sans-serif; font-size: 12px; fill: rgb(42, 63, 95); fill-opacity: 1; white-space: pre;">25</text></g><g class="xtick"><text text-anchor="middle" x="0" y="433" transform="translate(545.94,0)" style="font-family: 'Open Sans', verdana, arial, sans-serif; font-size: 12px; fill: rgb(42, 63, 95); fill-opacity: 1; white-space: pre;">30</text></g></g><g class="yaxislayer-above"><g class="ytick"><text text-anchor="end" x="79" y="4.199999999999999" transform="translate(0,411.14)" style="font-family: 'Open Sans', verdana, arial, sans-serif; font-size: 12px; fill: rgb(42, 63, 95); fill-opacity: 1; white-space: pre;">0</text></g><g class="ytick"><text text-anchor="end" x="79" y="4.199999999999999" transform="translate(0,358.77)" style="font-family: 'Open Sans', verdana, arial, sans-serif; font-size: 12px; fill: rgb(42, 63, 95); fill-opacity: 1; white-space: pre;">100</text></g><g class="ytick"><text text-anchor="end" x="79" y="4.199999999999999" transform="translate(0,306.4)" style="font-family: 'Open Sans', verdana, arial, sans-serif; font-size: 12px; fill: rgb(42, 63, 95); fill-opacity: 1; white-space: pre;">200</text></g><g class="ytick"><text text-anchor="end" x="79" y="4.199999999999999" transform="translate(0,254.03)" style="font-family: 'Open Sans', verdana, arial, sans-serif; font-size: 12px; fill: rgb(42, 63, 95); fill-opacity: 1; white-space: pre;">300</text></g><g class="ytick"><text text-anchor="end" x="79" y="4.199999999999999" transform="translate(0,201.66)" style="font-family: 'Open Sans', verdana, arial, sans-serif; font-size: 12px; fill: rgb(42, 63, 95); fill-opacity: 1; white-space: pre;">400</text></g><g class="ytick"><text text-anchor="end" x="79" y="4.199999999999999" transform="translate(0,149.29)" style="font-family: 'Open Sans', verdana, arial, sans-serif; font-size: 12px; fill: rgb(42, 63, 95); fill-opacity: 1; white-space: pre;">500</text></g></g><g class="overaxes-above"/></g></g><g class="polarlayer"/><g class="ternarylayer"/><g class="geolayer"/><g class="funnelarealayer"/><g class="pielayer"/><g class="treemaplayer"/><g class="sunburstlayer"/><g class="glimages"/><defs id="topdefs-15ef87"><g class="clips"/><clipPath id="legend15ef87"><rect width="101" height="67" x="0" y="0"/></clipPath></defs><g class="layer-above"><g class="imagelayer"/><g class="shapelayer"/></g><g class="infolayer"><g class="legend" pointer-events="all" transform="translate(586.94, 100)"><rect class="bg" shape-rendering="crispEdges" width="101" height="67" x="0" y="0" style="stroke: rgb(68, 68, 68); stroke-opacity: 1; fill: rgb(255, 255, 255); fill-opacity: 1; stroke-width: 0px;"/><g class="scrollbox" transform="translate(0, 0)" clip-path="url('#legend15ef87')"><g class="groups"><g class="traces" transform="translate(0, 14.5)" style="opacity: 1;"><text class="legendtext" text-anchor="start" x="40" y="4.680000000000001" style="font-family: 'Open Sans', verdana, arial, sans-serif; font-size: 12px; fill: rgb(42, 63, 95); fill-opacity: 1; white-space: pre;">PBD-CHR</text><g class="layers" style="opacity: 1;"><g class="legendfill"/><g class="legendlines"><path class="js-line" d="M5,0h30" style="fill: none; stroke: rgb(0, 100, 80); stroke-opacity: 1; stroke-width: 2px;"/></g><g class="legendsymbols"><g class="legendpoints"/></g></g><rect class="legendtoggle" x="0" y="-9.5" width="95.015625" height="19" style="fill: rgb(0, 0, 0); fill-opacity: 0;"/></g><g class="traces" transform="translate(0, 33.5)" style="opacity: 1;"><text class="legendtext" text-anchor="start" x="40" y="4.680000000000001" style="font-family: 'Open Sans', verdana, arial, sans-serif; font-size: 12px; fill: rgb(42, 63, 95); fill-opacity: 1; white-space: pre;">CHR-full</text><g class="layers" style="opacity: 1;"><g class="legendfill"/><g class="legendlines"><path class="js-line" d="M5,0h30" style="fill: none; stroke: rgb(0, 176, 246); stroke-opacity: 1; stroke-width: 2px;"/></g><g class="legendsymbols"><g class="legendpoints"/></g></g><rect class="legendtoggle" x="0" y="-9.5" width="95.015625" height="19" style="fill: rgb(0, 0, 0); fill-opacity: 0;"/></g><g class="traces" transform="translate(0, 52.5)" style="opacity: 1;"><text class="legendtext" text-anchor="start" x="40" y="4.680000000000001" style="font-family: 'Open Sans', verdana, arial, sans-serif; font-size: 12px; fill: rgb(42, 63, 95); fill-opacity: 1; white-space: pre;">CHR-LPB</text><g class="layers" style="opacity: 1;"><g class="legendfill"/><g class="legendlines"><path class="js-line" d="M5,0h30" style="fill: none; stroke: rgb(231, 107, 243); stroke-opacity: 1; stroke-width: 2px;"/></g><g class="legendsymbols"><g class="legendpoints"/></g></g><rect class="legendtoggle" x="0" y="-9.5" width="95.015625" height="19" style="fill: rgb(0, 0, 0); fill-opacity: 0;"/></g></g></g><rect class="scrollbar" rx="20" ry="3" width="0" height="0" x="0" y="0" style="fill: rgb(128, 139, 164); fill-opacity: 1;"/></g><g class="g-gtitle"><text class="gtitle" x="35" y="50" text-anchor="start" dy="0em" style="font-family: 'Open Sans', verdana, arial, sans-serif; font-size: 17px; fill: rgb(42, 63, 95); opacity: 1; font-weight: normal; white-space: pre;">Comparison domains curves for : energetic_group</text></g><g class="g-xtitle"><text class="xtitle" x="328.5" y="460.8" text-anchor="middle" style="font-family: 'Open Sans', verdana, arial, sans-serif; font-size: 14px; fill: rgb(42, 63, 95); opacity: 1; font-weight: normal; white-space: pre;">Domain</text></g><g class="g-ytitle"><text class="ytitle" transform="rotate(-90,34.16875,260)" x="34.16875" y="260" text-anchor="middle" style="font-family: 'Open Sans', verdana, arial, sans-serif; font-size: 14px; fill: rgb(42, 63, 95); opacity: 1; font-weight: normal; white-space: pre;">Frequency</text></g></g></svg>