<svg class="main-svg" xmlns="http://www.w3.org/2000/svg" xmlns:xlink="http://www.w3.org/1999/xlink" width="700" height="500" style="" viewBox="0 0 700 500"><rect x="0" y="0" width="700" height="500" style="fill: rgb(255, 255, 255); fill-opacity: 1;"/><defs id="defs-eff1a0"><g class="clips"><clipPath id="clipeff1a0xyplot" class="plotclip"><rect width="462" height="320"/></clipPath><clipPath class="axesclip" id="clipeff1a0x"><rect x="80" y="0" width="462" height="500"/></clipPath><clipPath class="axesclip" id="clipeff1a0y"><rect x="0" y="100" width="700" height="320"/></clipPath><clipPath class="axesclip" id="clipeff1a0xy"><rect x="80" y="100" width="462" height="320"/></clipPath></g><g class="gradients"/></defs><g class="bglayer"><rect class="bg" x="80" y="100" width="462" height="320" style="fill: rgb(229, 236, 246); fill-opacity: 1; stroke-width: 0;"/></g><g class="layer-below"><g class="imagelayer"/><g class="shapelayer"/></g><g class="cartesianlayer"><g class="subplot xy"><g class="layer-subplot"><g class="shapelayer"/><g class="imagelayer"/></g><g class="gridlayer"><g class="x"><path class="xgrid crisp" transform="translate(170.23000000000002,0)" d="M0,100v320" style="stroke: rgb(255, 255, 255); stroke-opacity: 1; stroke-width: 1px;"/><path class="xgrid crisp" transform="translate(260.47,0)" d="M0,100v320" style="stroke: rgb(255, 255, 255); stroke-opacity: 1; stroke-width: 1px;"/><path class="xgrid crisp" transform="translate(350.7,0)" d="M0,100v320" style="stroke: rgb(255, 255, 255); stroke-opacity: 1; stroke-width: 1px;"/><path class="xgrid crisp" transform="translate(440.94,0)" d="M0,100v320" style="stroke: rgb(255, 255, 255); stroke-opacity: 1; stroke-width: 1px;"/><path class="xgrid crisp" transform="translate(531.1700000000001,0)" d="M0,100v320" style="stroke: rgb(255, 255, 255); stroke-opacity: 1; stroke-width: 1px;"/></g><g class="y"><path class="ygrid crisp" transform="translate(0,395.25)" d="M80,0h462" style="stroke: rgb(255, 255, 255); stroke-opacity: 1; stroke-width: 1px;"/><path class="ygrid crisp" transform="translate(0,341.95)" d="M80,0h462" style="stroke: rgb(255, 255, 255); stroke-opacity: 1; stroke-width: 1px;"/><path class="ygrid crisp" transform="translate(0,288.65999999999997)" d="M80,0h462" style="stroke: rgb(255, 255, 255); stroke-opacity: 1; stroke-width: 1px;"/><path class="ygrid crisp" transform="translate(0,235.36)" d="M80,0h462" style="stroke: rgb(255, 255, 255); stroke-opacity: 1; stroke-width: 1px;"/><path class="ygrid crisp" transform="translate(0,182.06)" d="M80,0h462" style="stroke: rgb(255, 255, 255); stroke-opacity: 1; stroke-width: 1px;"/><path class="ygrid crisp" transform="translate(0,128.77)" d="M80,0h462" style="stroke: rgb(255, 255, 255); stroke-opacity: 1; stroke-width: 1px;"/></g></g><g class="zerolinelayer"><path class="xzl zl crisp" transform="translate(80,0)" d="M0,100v320" style="stroke: rgb(255, 255, 255); stroke-opacity: 1; stroke-width: 2px;"/></g><path class="xlines-below"/><path class="ylines-below"/><g class="overlines-below"/><g class="xaxislayer-below"/><g class="yaxislayer-below"/><g class="overaxes-below"/><g class="plot" transform="translate(80, 100)" clip-path="url('#clipeff1a0xyplot')"><g class="scatterlayer mlayer"><g class="trace scatter trace96a97d" style="stroke-miterlimit: 2; opacity: 1;"><g class="fills"/><g class="errorbars"/><g class="lines"><path class="js-line" d="M0,17.24Q0.6,17.16 0.9,17.08C1.21,17 1.51,16.86 1.81,16.74C2.11,16.62 2.41,16.47 2.71,16.36C3.01,16.25 3.31,16.14 3.62,16.08C3.92,16.02 4.22,15.98 4.52,16C4.82,16.02 5.13,16.09 5.42,16.21C5.74,16.35 6.04,16.56 6.33,16.81C6.65,17.09 6.95,17.45 7.23,17.85C7.55,18.3 7.85,18.83 8.14,19.4C8.46,20.04 8.75,20.76 9.04,21.51C9.36,22.35 9.66,23.25 9.95,24.2C10.27,25.24 10.56,26.34 10.85,27.49C11.16,28.73 11.46,30.05 11.75,31.4C12.06,32.85 12.37,34.35 12.66,35.9C12.97,37.54 13.27,39.24 13.56,40.97C13.87,42.79 14.17,44.67 14.47,46.58C14.78,48.57 15.08,50.62 15.37,52.7C15.68,54.87 15.97,57.09 16.27,59.35C16.58,61.69 16.88,64.08 17.18,66.51C17.49,69.03 17.78,71.6 18.08,74.2C18.39,76.89 18.69,79.63 18.99,82.4C19.3,85.25 19.59,88.16 19.89,91.09C20.19,94.1 20.49,97.15 20.79,100.23C21.09,103.38 21.4,106.57 21.7,109.78C22,113.05 22.3,116.35 22.6,119.67C22.9,123.04 23.21,126.44 23.51,129.86C23.81,133.31 24.11,136.79 24.41,140.27C24.71,143.77 25.02,147.29 25.32,150.81C25.62,154.34 25.92,157.88 26.22,161.41C26.52,164.93 26.82,168.46 27.12,171.96C27.42,175.43 27.73,178.9 28.03,182.33C28.33,185.7 28.62,189.06 28.93,192.34C29.23,195.51 29.53,198.69 29.84,201.68C30.13,204.46 30.43,207.15 30.74,209.71C31.03,212.06 31.33,214.27 31.64,216.48C31.94,218.61 32.24,220.69 32.55,222.74C32.85,224.71 33.14,226.64 33.45,228.53C33.75,230.35 34.05,232.11 34.36,233.87C34.66,235.58 34.96,237.27 35.26,238.95C35.56,240.61 35.86,242.25 36.16,243.88C36.46,245.48 36.76,247.09 37.07,248.63C37.36,250.1 37.66,251.53 37.97,252.93C38.27,254.28 38.57,255.6 38.88,256.91C39.18,258.19 39.47,259.47 39.78,260.69C40.07,261.85 40.36,263 40.68,264.05C40.97,265 41.27,265.9 41.59,266.74C41.88,267.49 42.15,268.27 42.49,268.86C42.77,269.34 43.08,269.73 43.4,270.09C43.69,270.42 43.99,270.7 44.3,270.95C44.59,271.19 44.89,271.48 45.21,271.58C45.5,271.67 45.82,271.67 46.11,271.59C46.42,271.51 46.72,271.27 47.01,271.05C47.32,270.82 47.62,270.5 47.92,270.22C48.22,269.94 48.52,269.66 48.82,269.38C49.12,269.1 49.43,268.84 49.73,268.56C50.03,268.28 50.34,268.01 50.63,267.71C50.94,267.4 51.24,267.08 51.53,266.72C51.84,266.34 52.16,265.95 52.44,265.49C52.76,264.97 53.05,264.34 53.34,263.72C53.66,263.04 53.96,262.3 54.25,261.56C54.56,260.78 54.85,259.95 55.15,259.14C55.45,258.34 55.75,257.52 56.05,256.73C56.35,255.95 56.65,255.17 56.96,254.41C57.26,253.67 57.55,252.92 57.86,252.23C58.15,251.58 58.45,250.95 58.77,250.37C59.06,249.84 59.35,249.33 59.67,248.88C59.96,248.47 60.26,248.08 60.58,247.76C60.87,247.47 61.16,247.21 61.48,247.03C61.77,246.86 62.07,246.73 62.38,246.69C62.68,246.65 63,246.7 63.29,246.8C63.6,246.91 63.9,247.12 64.19,247.35C64.51,247.61 64.81,247.95 65.1,248.3C65.41,248.68 65.7,249.13 66,249.54C66.3,249.94 66.59,250.36 66.9,250.72C67.19,251.06 67.5,251.37 67.81,251.66C68.1,251.93 68.39,252.21 68.71,252.39C69,252.55 69.31,252.64 69.62,252.71C69.92,252.78 70.22,252.76 70.52,252.8C70.82,252.84 71.12,252.9 71.42,252.97C71.72,253.04 72.03,253.15 72.33,253.24C72.63,253.33 72.93,253.45 73.23,253.49C73.53,253.53 73.84,253.54 74.14,253.51C74.44,253.48 74.75,253.41 75.04,253.29C75.35,253.17 75.68,253.04 75.95,252.78C76.3,252.44 76.57,251.82 76.85,251.27C77.17,250.64 77.47,249.94 77.75,249.19C78.07,248.34 78.37,247.38 78.66,246.4C78.98,245.32 79.27,244.15 79.56,242.97C79.87,241.71 80.17,240.4 80.47,239.06C80.78,237.66 81.08,236.23 81.37,234.76C81.68,233.21 81.97,231.59 82.27,229.98C82.57,228.35 82.88,226.69 83.18,225.04C83.48,223.38 83.78,221.71 84.08,220.06C84.38,218.41 84.69,216.77 84.99,215.14C85.29,213.53 85.59,211.93 85.89,210.36C86.19,208.82 86.48,207.29 86.79,205.8C87.09,204.35 87.39,202.93 87.7,201.54C88,200.21 88.29,198.89 88.6,197.63C88.89,196.43 89.2,195.26 89.51,194.14C89.8,193.08 90.1,192.07 90.41,191.07C90.71,190.1 91.01,189.14 91.32,188.2C91.62,187.3 91.91,186.38 92.22,185.55C92.51,184.79 92.8,184.05 93.12,183.39C93.41,182.81 93.7,182.25 94.03,181.79C94.31,181.4 94.6,181.03 94.93,180.78C95.21,180.57 95.53,180.39 95.84,180.35C96.13,180.31 96.46,180.38 96.74,180.52C97.06,180.67 97.36,180.97 97.64,181.29C97.97,181.66 98.27,182.14 98.55,182.64C98.87,183.21 99.16,183.87 99.45,184.55C99.77,185.31 100.07,186.14 100.36,187C100.67,187.93 100.97,188.92 101.26,189.93C101.57,191.01 101.86,192.14 102.16,193.29C102.47,194.49 102.77,195.73 103.07,196.98C103.38,198.26 103.67,199.56 103.97,200.86C104.27,202.17 104.58,203.48 104.88,204.79C105.18,206.11 105.48,207.43 105.78,208.76C106.08,210.11 106.38,211.46 106.68,212.83C106.98,214.22 107.29,215.63 107.59,217.04C107.89,218.47 108.19,219.91 108.49,221.34C108.79,222.78 109.1,224.23 109.4,225.66C109.7,227.09 110,228.5 110.3,229.92C110.6,231.34 110.91,232.76 111.21,234.17C111.51,235.57 111.81,236.98 112.11,238.37C112.41,239.73 112.7,241.11 113.01,242.42C113.3,243.66 113.59,244.94 113.92,246.04C114.2,246.98 114.48,247.87 114.82,248.63C115.1,249.26 115.41,249.79 115.73,250.29C116.02,250.74 116.3,251.2 116.63,251.51C116.91,251.77 117.22,251.97 117.53,252.09C117.82,252.2 118.14,252.26 118.44,252.25C118.74,252.24 119.05,252.15 119.34,252.02C119.65,251.88 119.96,251.67 120.25,251.44C120.56,251.19 120.86,250.88 121.15,250.55C121.46,250.2 121.76,249.8 122.05,249.38C122.36,248.93 122.67,248.46 122.96,247.95C123.27,247.41 123.57,246.83 123.86,246.21C124.18,245.53 124.48,244.82 124.77,244.05C125.09,243.21 125.38,242.29 125.67,241.36C125.98,240.36 126.28,239.29 126.58,238.23C126.89,237.14 127.18,236.02 127.48,234.91C127.78,233.78 128.08,232.65 128.38,231.51C128.68,230.35 128.99,229.21 129.29,228.02C129.6,226.79 129.89,225.5 130.19,224.26C130.49,223.03 130.79,221.81 131.1,220.61C131.4,219.45 131.69,218.3 132,217.18C132.29,216.1 132.59,215.04 132.9,214.01C133.2,213.02 133.5,212.06 133.81,211.13C134.1,210.25 134.4,209.39 134.71,208.57C135,207.8 135.31,207.05 135.62,206.34C135.91,205.68 136.21,205.05 136.52,204.45C136.81,203.9 137.11,203.37 137.42,202.88C137.71,202.43 138.02,202 138.33,201.61C138.62,201.25 138.92,200.92 139.23,200.61C139.52,200.32 139.83,200.06 140.14,199.81C140.44,199.56 140.74,199.34 141.04,199.1C141.34,198.86 141.66,198.64 141.95,198.37C142.26,198.09 142.56,197.78 142.85,197.45C143.16,197.1 143.45,196.71 143.75,196.34C144.05,195.97 144.35,195.6 144.66,195.25C144.96,194.92 145.25,194.59 145.56,194.29C145.86,194.01 146.16,193.74 146.47,193.51C146.76,193.3 147.06,193.1 147.37,192.96C147.66,192.83 147.97,192.72 148.27,192.68C148.57,192.64 148.88,192.65 149.18,192.72C149.49,192.79 149.79,192.93 150.08,193.1C150.4,193.29 150.7,193.54 150.99,193.82C151.31,194.13 151.6,194.5 151.89,194.89C152.2,195.31 152.5,195.79 152.79,196.27C153.1,196.79 153.4,197.34 153.7,197.9C154.01,198.47 154.3,199.08 154.6,199.66C154.9,200.23 155.2,200.81 155.51,201.36C155.81,201.88 156.1,202.4 156.41,202.88C156.7,203.33 157,203.76 157.32,204.14C157.61,204.49 157.91,204.8 158.22,205.08C158.51,205.35 158.82,205.57 159.12,205.81C159.42,206.05 159.73,206.29 160.03,206.54C160.33,206.78 160.63,207.02 160.93,207.28C161.24,207.54 161.54,207.81 161.84,208.11C162.15,208.42 162.45,208.75 162.74,209.11C163.05,209.49 163.35,209.9 163.64,210.32C163.95,210.77 164.26,211.25 164.55,211.74C164.86,212.26 165.16,212.8 165.45,213.36C165.76,213.95 166.06,214.56 166.36,215.18C166.67,215.83 166.96,216.5 167.26,217.18C167.57,217.88 167.86,218.61 168.16,219.34C168.46,220.08 168.77,220.85 169.07,221.6C169.37,222.34 169.65,223.13 169.97,223.8C170.26,224.4 170.51,225.14 170.88,225.45C171.14,225.67 171.49,225.79 171.78,225.75C172.09,225.71 172.39,225.41 172.68,225.18C173,224.92 173.29,224.59 173.59,224.26C173.9,223.92 174.19,223.54 174.49,223.17C174.8,222.79 175.1,222.39 175.4,222C175.7,221.61 176,221.21 176.3,220.82C176.6,220.44 176.9,220.05 177.21,219.69C177.51,219.34 177.8,218.99 178.11,218.66C178.41,218.34 178.7,218.03 179.01,217.75C179.31,217.48 179.61,217.22 179.92,216.98C180.22,216.75 180.51,216.54 180.82,216.35C181.12,216.17 181.42,216.01 181.73,215.88C182.03,215.76 182.33,215.66 182.63,215.6C182.93,215.54 183.23,215.52 183.53,215.52C183.83,215.52 184.14,215.57 184.44,215.63C184.74,215.69 185.04,215.79 185.34,215.89C185.64,215.99 185.95,216.09 186.25,216.21C186.55,216.33 186.85,216.46 187.15,216.61C187.45,216.76 187.75,216.93 188.05,217.09C188.35,217.25 188.66,217.41 188.96,217.58C189.26,217.75 189.56,217.91 189.86,218.09C190.17,218.28 190.47,218.49 190.77,218.71C191.08,218.94 191.37,219.19 191.67,219.46C191.98,219.74 192.28,220.03 192.58,220.34C192.89,220.66 193.18,220.99 193.48,221.33C193.78,221.68 194.08,222.04 194.38,222.4C194.68,222.77 194.99,223.15 195.29,223.51C195.59,223.87 195.89,224.2 196.19,224.56C196.5,224.93 196.8,225.3 197.1,225.69C197.41,226.09 197.7,226.51 198,226.94C198.3,227.38 198.6,227.85 198.9,228.31C199.2,228.77 199.51,229.22 199.81,229.68C200.11,230.14 200.41,230.6 200.71,231.06C201.01,231.51 201.32,231.95 201.62,232.41C201.92,232.88 202.22,233.36 202.52,233.85C202.82,234.35 203.12,234.87 203.42,235.39C203.72,235.92 204.03,236.46 204.33,237.01C204.63,237.57 204.93,238.14 205.23,238.71C205.53,239.3 205.84,239.89 206.14,240.49C206.44,241.1 206.74,241.73 207.04,242.35C207.34,242.98 207.65,243.61 207.95,244.25C208.25,244.89 208.55,245.53 208.85,246.17C209.15,246.81 209.44,247.45 209.75,248.07C210.05,248.67 210.33,249.3 210.66,249.81C210.94,250.25 211.25,250.6 211.56,250.98C211.86,251.34 212.16,251.69 212.47,252.03C212.77,252.35 213.06,252.67 213.37,252.96C213.66,253.24 213.96,253.51 214.27,253.75C214.57,253.98 214.87,254.18 215.18,254.36C215.47,254.53 215.77,254.68 216.08,254.79C216.38,254.89 216.69,254.98 216.99,255C217.29,255.02 217.6,255.01 217.89,254.91C218.2,254.8 218.52,254.63 218.79,254.33C219.15,253.93 219.42,253.23 219.7,252.55C220.04,251.72 220.32,250.7 220.6,249.67C220.92,248.49 221.22,247.18 221.51,245.84C221.83,244.39 222.11,242.83 222.41,241.28C222.72,239.66 223.02,237.98 223.32,236.31C223.62,234.61 223.92,232.88 224.22,231.16C224.52,229.43 224.82,227.69 225.12,225.96C225.42,224.24 225.73,222.52 226.03,220.82C226.33,219.14 226.63,217.47 226.93,215.82C227.23,214.2 227.53,212.59 227.84,211.01C228.14,209.46 228.44,207.93 228.74,206.43C229.04,204.98 229.33,203.54 229.64,202.14C229.94,200.78 230.24,199.45 230.55,198.15C230.85,196.9 231.14,195.68 231.45,194.49C231.74,193.36 232.05,192.25 232.36,191.19C232.65,190.19 232.95,189.21 233.26,188.28C233.55,187.41 233.85,186.57 234.16,185.78C234.45,185.05 234.75,184.34 235.07,183.7C235.36,183.12 235.65,182.57 235.97,182.09C236.26,181.66 236.56,181.25 236.88,180.94C237.16,180.67 237.46,180.42 237.78,180.28C238.07,180.16 238.38,180.09 238.68,180.12C238.99,180.15 239.3,180.28 239.59,180.46C239.91,180.66 240.21,180.98 240.49,181.32C240.82,181.71 241.11,182.19 241.4,182.69C241.72,183.26 242.01,183.91 242.3,184.58C242.62,185.32 242.92,186.12 243.21,186.96C243.53,187.87 243.82,188.83 244.11,189.83C244.42,190.9 244.72,192.01 245.01,193.16C245.32,194.38 245.63,195.65 245.92,196.94C246.23,198.3 246.52,199.7 246.82,201.12C247.13,202.6 247.43,204.13 247.73,205.67C248.04,207.26 248.33,208.89 248.63,210.53C248.93,212.22 249.23,213.93 249.53,215.66C249.83,217.42 250.14,219.2 250.44,220.99C250.74,222.8 251.04,224.63 251.34,226.45C251.64,228.28 251.95,230.13 252.25,231.96C252.55,233.79 252.85,235.62 253.15,237.44C253.45,239.24 253.75,241.03 254.05,242.8C254.35,244.53 254.65,246.25 254.96,247.93C255.26,249.54 255.54,251.18 255.86,252.68C256.15,254.04 256.44,255.37 256.77,256.56C257.05,257.6 257.35,258.53 257.67,259.44C257.96,260.27 258.27,261.04 258.58,261.78C258.87,262.46 259.17,263.12 259.48,263.73C259.77,264.3 260.06,264.85 260.38,265.33C260.67,265.75 260.97,266.13 261.29,266.47C261.58,266.78 261.88,267.05 262.19,267.29C262.48,267.52 262.79,267.73 263.1,267.88C263.39,268.02 263.7,268.11 264,268.2C264.3,268.28 264.6,268.34 264.9,268.39C265.2,268.44 265.51,268.49 265.81,268.52C266.11,268.55 266.41,268.59 266.71,268.57C267.01,268.55 267.34,268.52 267.62,268.37C267.95,268.2 268.24,267.86 268.52,267.53C268.84,267.16 269.12,266.69 269.42,266.26C269.73,265.81 270.03,265.34 270.33,264.89C270.63,264.45 270.92,264 271.23,263.59C271.53,263.19 271.83,262.81 272.14,262.45C272.43,262.11 272.73,261.78 273.04,261.49C273.33,261.21 273.64,260.96 273.95,260.73C274.25,260.51 274.54,260.3 274.85,260.12C275.15,259.94 275.44,259.78 275.75,259.65C276.05,259.52 276.35,259.42 276.66,259.33C276.96,259.25 277.26,259.19 277.56,259.14C277.86,259.08 278.17,259.05 278.47,259C278.77,258.95 279.08,258.93 279.37,258.83C279.68,258.73 279.97,258.56 280.27,258.4C280.58,258.23 280.88,258.04 281.18,257.83C281.49,257.62 281.78,257.37 282.08,257.13C282.38,256.89 282.69,256.66 282.99,256.4C283.3,256.13 283.59,255.82 283.89,255.53C284.19,255.24 284.49,254.96 284.79,254.68C285.09,254.4 285.39,254.13 285.7,253.87C286,253.62 286.29,253.38 286.6,253.17C286.9,252.97 287.2,252.77 287.51,252.62C287.8,252.48 288.1,252.36 288.41,252.27C288.71,252.19 289.02,252.13 289.32,252.11C289.62,252.09 289.92,252.11 290.22,252.17C290.52,252.23 290.83,252.32 291.12,252.45C291.43,252.58 291.74,252.75 292.03,252.95C292.34,253.16 292.64,253.41 292.93,253.68C293.24,253.97 293.54,254.29 293.84,254.62C294.15,254.97 294.45,255.34 294.74,255.73C295.05,256.14 295.34,256.57 295.64,257.01C295.95,257.47 296.25,257.96 296.55,258.45C296.86,258.95 297.15,259.49 297.45,260C297.75,260.51 298.05,261.03 298.36,261.53C298.66,262.01 298.96,262.49 299.26,262.95C299.56,263.4 299.85,263.83 300.16,264.25C300.46,264.65 300.76,265.04 301.07,265.4C301.36,265.74 301.66,266.07 301.97,266.35C302.26,266.61 302.56,266.86 302.88,267.03C303.17,267.19 303.48,267.34 303.78,267.36C304.08,267.38 304.4,267.3 304.68,267.13C305.02,266.92 305.31,266.48 305.59,266.04C305.93,265.5 306.21,264.81 306.49,264.08C306.83,263.2 307.11,262.13 307.4,261.08C307.72,259.93 308.01,258.69 308.3,257.45C308.61,256.14 308.91,254.77 309.21,253.41C309.51,252.02 309.81,250.6 310.11,249.19C310.41,247.78 310.71,246.35 311.01,244.94C311.31,243.54 311.62,242.15 311.92,240.77C312.22,239.4 312.51,238.02 312.82,236.68C313.12,235.37 313.42,234.08 313.73,232.82C314.03,231.61 314.32,230.42 314.63,229.27C314.92,228.17 315.22,227.09 315.53,226.06C315.82,225.08 316.13,224.13 316.44,223.23C316.73,222.39 317.03,221.57 317.34,220.8C317.63,220.09 317.93,219.4 318.25,218.76C318.54,218.17 318.83,217.61 319.15,217.11C319.44,216.65 319.73,216.22 320.05,215.85C320.34,215.51 320.64,215.2 320.96,214.94C321.25,214.7 321.55,214.5 321.86,214.34C322.15,214.19 322.46,214.08 322.77,213.98C323.07,213.88 323.37,213.81 323.67,213.73C323.97,213.66 324.28,213.57 324.58,213.53C324.88,213.49 325.18,213.47 325.48,213.5C325.78,213.53 326.09,213.6 326.38,213.72C326.69,213.85 327,214.03 327.29,214.25C327.6,214.48 327.9,214.78 328.19,215.09C328.51,215.43 328.81,215.82 329.1,216.23C329.41,216.67 329.71,217.15 330,217.64C330.31,218.16 330.6,218.72 330.9,219.29C331.21,219.88 331.51,220.5 331.81,221.11C332.11,221.73 332.41,222.37 332.71,222.99C333.01,223.61 333.31,224.23 333.62,224.82C333.92,225.39 334.21,225.95 334.52,226.48C334.81,226.98 335.1,227.47 335.42,227.9C335.71,228.3 336.01,228.69 336.33,228.98C336.61,229.23 336.91,229.48 337.23,229.58C337.52,229.67 337.85,229.67 338.14,229.58C338.46,229.49 338.76,229.24 339.04,228.99C339.36,228.7 339.66,228.31 339.95,227.91C340.27,227.46 340.56,226.93 340.85,226.38C341.17,225.77 341.46,225.11 341.75,224.42C342.07,223.67 342.37,222.86 342.66,222.02C342.98,221.11 343.27,220.13 343.56,219.13C343.87,218.05 344.18,216.94 344.47,215.77C344.78,214.51 345.07,213.16 345.37,211.83C345.67,210.47 345.97,209.1 346.27,207.69C346.58,206.24 346.88,204.73 347.18,203.25C347.48,201.76 347.78,200.25 348.08,198.78C348.38,197.33 348.68,195.89 348.99,194.48C349.29,193.11 349.58,191.76 349.89,190.45C350.18,189.19 350.48,187.95 350.79,186.76C351.08,185.62 351.39,184.51 351.7,183.45C351.99,182.45 352.29,181.49 352.6,180.57C352.89,179.71 353.19,178.88 353.51,178.11C353.8,177.41 354.09,176.73 354.41,176.13C354.7,175.59 354.99,175.07 355.32,174.64C355.6,174.27 355.9,173.92 356.22,173.69C356.5,173.49 356.81,173.32 357.12,173.27C357.42,173.22 357.74,173.27 358.03,173.39C358.35,173.52 358.65,173.77 358.93,174.05C359.26,174.37 359.55,174.78 359.84,175.22C360.16,175.72 360.45,176.29 360.74,176.89C361.06,177.56 361.35,178.29 361.64,179.05C361.96,179.87 362.26,180.75 362.55,181.66C362.86,182.63 363.16,183.65 363.45,184.69C363.76,185.79 364.06,186.92 364.36,188.08C364.67,189.29 364.96,190.53 365.26,191.79C365.56,193.09 365.86,194.42 366.16,195.75C366.46,197.11 366.77,198.49 367.07,199.88C367.37,201.28 367.67,202.7 367.97,204.12C368.27,205.55 368.58,207 368.88,208.44C369.18,209.89 369.48,211.34 369.78,212.79C370.08,214.23 370.38,215.67 370.68,217.1C370.98,218.51 371.29,219.93 371.59,221.32C371.89,222.68 372.18,224.05 372.49,225.37C372.79,226.65 373.09,227.92 373.4,229.13C373.69,230.27 373.98,231.4 374.3,232.43C374.59,233.36 374.88,234.29 375.21,235.06C375.49,235.71 375.75,236.38 376.11,236.78C376.38,237.08 376.69,237.3 377.01,237.38C377.3,237.45 377.63,237.38 377.92,237.27C378.24,237.15 378.53,236.92 378.82,236.67C379.14,236.4 379.44,236.04 379.73,235.68C380.04,235.29 380.34,234.85 380.63,234.41C380.94,233.94 381.23,233.44 381.53,232.93C381.84,232.4 382.14,231.86 382.44,231.31C382.74,230.76 383.04,230.19 383.34,229.63C383.64,229.07 383.95,228.5 384.25,227.94C384.55,227.39 384.85,226.84 385.15,226.31C385.45,225.79 385.74,225.27 386.05,224.78C386.35,224.3 386.65,223.84 386.96,223.4C387.25,222.98 387.55,222.58 387.86,222.21C388.15,221.86 388.46,221.53 388.77,221.24C389.06,220.97 389.36,220.72 389.67,220.52C389.96,220.33 390.27,220.17 390.58,220.06C390.87,219.96 391.18,219.89 391.48,219.88C391.78,219.87 392.08,219.9 392.38,219.98C392.69,220.06 393,220.19 393.29,220.36C393.6,220.54 393.9,220.77 394.19,221.02C394.5,221.29 394.81,221.6 395.1,221.93C395.41,222.28 395.71,222.68 396,223.09C396.31,223.52 396.61,223.98 396.9,224.46C397.21,224.96 397.51,225.48 397.81,226.02C398.12,226.58 398.41,227.16 398.71,227.74C399.02,228.34 399.32,228.94 399.62,229.56C399.92,230.19 400.22,230.83 400.52,231.47C400.82,232.11 401.12,232.76 401.42,233.4C401.72,234.04 402.03,234.69 402.33,235.32C402.63,235.95 402.92,236.57 403.23,237.18C403.53,237.77 403.83,238.36 404.14,238.92C404.44,239.46 404.73,239.99 405.04,240.49C405.33,240.96 405.64,241.42 405.95,241.84C406.24,242.23 406.54,242.61 406.85,242.94C407.14,243.25 407.44,243.55 407.75,243.79C408.04,244.02 408.35,244.24 408.66,244.36C408.95,244.47 409.27,244.56 409.56,244.52C409.87,244.48 410.18,244.28 410.47,244.09C410.79,243.88 411.08,243.6 411.37,243.31C411.68,243 411.98,242.66 412.27,242.3C412.58,241.93 412.88,241.53 413.18,241.12C413.49,240.69 413.78,240.24 414.08,239.79C414.39,239.33 414.69,238.85 414.99,238.37C415.29,237.88 415.59,237.38 415.89,236.89C416.19,236.4 416.49,235.91 416.79,235.42C417.09,234.94 417.4,234.46 417.7,233.99C418,233.53 418.3,233.08 418.6,232.63C418.9,232.19 419.2,231.75 419.51,231.33C419.81,230.91 420.1,230.5 420.41,230.11C420.71,229.73 421.01,229.36 421.32,229.02C421.61,228.7 421.91,228.39 422.22,228.11C422.51,227.85 422.81,227.61 423.12,227.4C423.42,227.2 423.72,227.02 424.03,226.87C424.32,226.73 424.63,226.62 424.93,226.54C425.23,226.46 425.54,226.42 425.84,226.37C426.14,226.32 426.44,226.27 426.74,226.25C427.04,226.23 427.34,226.22 427.64,226.22C427.94,226.22 428.25,226.22 428.55,226.23C428.85,226.24 429.15,226.25 429.45,226.26C429.75,226.27 430.06,226.26 430.36,226.27C430.66,226.28 430.96,226.3 431.26,226.32C431.56,226.34 431.86,226.37 432.16,226.4C432.46,226.43 432.77,226.46 433.07,226.48C433.37,226.5 433.67,226.51 433.97,226.51C434.27,226.51 434.58,226.48 434.88,226.46C435.18,226.44 435.48,226.42 435.78,226.41C436.08,226.4 436.38,226.39 436.68,226.4C436.98,226.41 437.29,226.42 437.59,226.45C437.89,226.48 438.19,226.52 438.49,226.58C438.79,226.64 439.1,226.72 439.4,226.81C439.7,226.91 440,227.02 440.3,227.15C440.61,227.28 440.91,227.43 441.21,227.6C441.52,227.77 441.81,227.96 442.11,228.16C442.41,228.36 442.71,228.58 443.01,228.81C443.32,229.05 443.62,229.3 443.92,229.56C444.22,229.82 444.52,230.09 444.82,230.37C445.13,230.65 445.43,230.95 445.73,231.25C446.03,231.55 446.33,231.86 446.63,232.17C446.93,232.48 447.23,232.8 447.53,233.1C447.83,233.4 448.13,233.68 448.44,233.96C448.74,234.23 449.04,234.47 449.34,234.73C449.64,234.99 449.95,235.25 450.25,235.52C450.55,235.79 450.85,236.06 451.15,236.34C451.45,236.62 451.75,236.9 452.05,237.19C452.35,237.48 452.66,237.78 452.96,238.09C453.26,238.4 453.56,238.72 453.86,239.04C454.16,239.37 454.47,239.7 454.77,240.04C455.07,240.38 455.37,240.72 455.67,241.06C455.97,241.4 456.28,241.75 456.58,242.1C456.88,242.44 457.18,242.79 457.48,243.13C457.78,243.47 458.08,243.82 458.38,244.16C458.68,244.5 458.98,244.83 459.29,245.15C459.59,245.46 459.88,245.77 460.19,246.06C460.49,246.34 460.79,246.61 461.1,246.84Q461.39,247.06 462,247.41" style="vector-effect: non-scaling-stroke; fill: none; stroke: rgb(0, 100, 80); stroke-opacity: 1; stroke-width: 2px; opacity: 1;"/></g><g class="points"/><g class="text"/></g><g class="trace scatter tracea5106e" style="stroke-miterlimit: 2; opacity: 1;"><g class="fills"/><g class="errorbars"/><g class="lines"><path class="js-line" d="M0,91.19Q0.63,90.96 0.9,90.72C1.24,90.41 1.53,89.89 1.81,89.39C2.14,88.81 2.42,88.1 2.71,87.4C3.03,86.63 3.32,85.79 3.62,84.95C3.93,84.07 4.22,83.15 4.52,82.23C4.82,81.29 5.12,80.33 5.42,79.37C5.72,78.4 6.03,77.42 6.33,76.45C6.63,75.48 6.93,74.5 7.23,73.54C7.53,72.6 7.83,71.65 8.14,70.74C8.44,69.87 8.73,69 9.04,68.18C9.33,67.41 9.63,66.66 9.95,65.97C10.24,65.35 10.53,64.74 10.85,64.22C11.13,63.77 11.42,63.33 11.75,63.02C12.03,62.76 12.34,62.51 12.66,62.44C12.95,62.37 13.28,62.42 13.56,62.55C13.89,62.7 14.19,63.05 14.47,63.4C14.81,63.83 15.09,64.41 15.37,65.01C15.7,65.72 15.99,66.55 16.27,67.42C16.59,68.41 16.89,69.49 17.18,70.63C17.5,71.89 17.79,73.25 18.08,74.66C18.4,76.2 18.7,77.82 18.99,79.5C19.3,81.31 19.6,83.2 19.89,85.14C20.2,87.21 20.5,89.36 20.79,91.56C21.1,93.88 21.4,96.28 21.7,98.73C22.01,101.29 22.3,103.93 22.6,106.61C22.91,109.4 23.21,112.26 23.51,115.16C23.82,118.17 24.11,121.24 24.41,124.35C24.72,127.55 25.02,130.81 25.32,134.1C25.63,137.48 25.92,140.9 26.22,144.36C26.52,147.89 26.82,151.47 27.12,155.07C27.42,158.73 27.73,162.46 28.03,166.14C28.33,169.8 28.62,173.56 28.93,177.11C29.22,180.45 29.54,183.59 29.84,186.85C30.14,190.12 30.44,193.4 30.74,196.69C31.04,200.01 31.33,203.46 31.64,206.68C31.93,209.7 32.24,212.59 32.55,215.46C32.85,218.23 33.15,220.9 33.45,223.6C33.75,226.29 34.06,228.95 34.36,231.63C34.66,234.31 34.96,236.99 35.26,239.66C35.56,242.32 35.86,244.99 36.16,247.63C36.46,250.24 36.76,252.84 37.07,255.4C37.37,257.89 37.65,260.42 37.97,262.78C38.26,264.95 38.56,267.05 38.88,269.03C39.17,270.83 39.46,272.54 39.78,274.17C40.07,275.65 40.35,277.1 40.68,278.41C40.96,279.55 41.25,280.65 41.59,281.58C41.87,282.34 42.15,283.03 42.49,283.6C42.77,284.08 43.05,284.58 43.4,284.83C43.67,285.03 44.01,285.19 44.3,285.13C44.62,285.07 44.94,284.72 45.21,284.36C45.58,283.87 45.83,283.06 46.11,282.29C46.44,281.37 46.71,280.26 47.01,279.21C47.32,278.11 47.61,276.93 47.92,275.83C48.22,274.77 48.51,273.72 48.82,272.7C49.12,271.73 49.42,270.78 49.73,269.85C50.03,268.96 50.33,268.12 50.63,267.26C50.93,266.42 51.23,265.6 51.53,264.75C51.84,263.88 52.14,262.97 52.44,262.09C52.74,261.23 53.03,260.36 53.34,259.52C53.64,258.71 53.94,257.92 54.25,257.15C54.55,256.41 54.84,255.69 55.15,255C55.44,254.34 55.74,253.71 56.05,253.1C56.34,252.53 56.65,251.97 56.96,251.45C57.25,250.95 57.55,250.48 57.86,250.03C58.15,249.61 58.46,249.21 58.77,248.84C59.06,248.49 59.36,248.16 59.67,247.87C59.96,247.6 60.27,247.35 60.58,247.14C60.87,246.95 61.17,246.78 61.48,246.66C61.77,246.54 62.08,246.46 62.38,246.41C62.68,246.36 62.99,246.35 63.29,246.34C63.59,246.33 63.89,246.36 64.19,246.36C64.49,246.36 64.8,246.37 65.1,246.34C65.4,246.31 65.7,246.25 66,246.18C66.3,246.11 66.6,246.02 66.9,245.9C67.21,245.78 67.51,245.63 67.81,245.46C68.12,245.29 68.41,245.06 68.71,244.87C69.01,244.68 69.31,244.47 69.62,244.3C69.92,244.14 70.22,243.98 70.52,243.86C70.82,243.74 71.12,243.65 71.42,243.59C71.72,243.53 72.03,243.5 72.33,243.48C72.63,243.46 72.93,243.47 73.23,243.46C73.53,243.45 73.84,243.43 74.14,243.39C74.44,243.35 74.74,243.29 75.04,243.22C75.34,243.15 75.65,243.09 75.95,242.99C76.25,242.89 76.57,242.82 76.85,242.64C77.17,242.43 77.48,242.14 77.75,241.77C78.1,241.3 78.38,240.63 78.66,239.96C78.99,239.19 79.27,238.29 79.56,237.4C79.87,236.45 80.17,235.45 80.47,234.45C80.78,233.42 81.07,232.36 81.37,231.3C81.67,230.23 81.97,229.15 82.27,228.08C82.57,227.01 82.88,225.95 83.18,224.89C83.48,223.85 83.78,222.81 84.08,221.79C84.38,220.79 84.69,219.82 84.99,218.83C85.29,217.84 85.59,216.86 85.89,215.87C86.19,214.89 86.48,213.88 86.79,212.92C87.09,212 87.39,211.1 87.7,210.24C87.99,209.43 88.29,208.63 88.6,207.88C88.89,207.18 89.19,206.5 89.51,205.87C89.8,205.29 90.09,204.74 90.41,204.24C90.7,203.78 91,203.35 91.32,202.97C91.61,202.63 91.91,202.32 92.22,202.06C92.51,201.82 92.81,201.62 93.12,201.46C93.41,201.31 93.72,201.21 94.03,201.13C94.33,201.06 94.63,201.02 94.93,201.01C95.23,201 95.54,201.03 95.84,201.1C96.15,201.17 96.45,201.28 96.74,201.43C97.05,201.59 97.35,201.79 97.64,202.03C97.96,202.29 98.26,202.61 98.55,202.94C98.86,203.3 99.16,203.7 99.45,204.12C99.76,204.56 100.06,205.05 100.36,205.53C100.66,206.02 100.96,206.53 101.26,207.01C101.56,207.48 101.85,207.95 102.16,208.38C102.45,208.78 102.76,209.17 103.07,209.51C103.36,209.83 103.66,210.12 103.97,210.38C104.26,210.62 104.58,210.81 104.88,211.03C105.18,211.25 105.49,211.46 105.78,211.7C106.09,211.95 106.39,212.22 106.68,212.51C106.99,212.82 107.3,213.16 107.59,213.52C107.9,213.9 108.2,214.32 108.49,214.75C108.8,215.21 109.11,215.7 109.4,216.21C109.71,216.76 110.01,217.34 110.3,217.94C110.61,218.57 110.92,219.24 111.21,219.92C111.52,220.64 111.82,221.39 112.11,222.16C112.42,222.97 112.71,223.8 113.01,224.65C113.32,225.54 113.62,226.46 113.92,227.39C114.23,228.35 114.52,229.33 114.82,230.33C115.13,231.36 115.43,232.41 115.73,233.46C116.03,234.53 116.33,235.62 116.63,236.71C116.93,237.8 117.23,238.91 117.53,240C117.83,241.09 118.13,242.18 118.44,243.25C118.74,244.29 119.03,245.32 119.34,246.31C119.64,247.26 119.94,248.19 120.25,249.07C120.54,249.89 120.84,250.69 121.15,251.43C121.44,252.11 121.73,252.77 122.05,253.36C122.34,253.89 122.64,254.41 122.96,254.84C123.24,255.21 123.53,255.61 123.86,255.81C124.14,255.98 124.49,256.12 124.77,256.04C125.1,255.95 125.39,255.51 125.67,255.16C126,254.76 126.29,254.25 126.58,253.74C126.9,253.17 127.19,252.54 127.48,251.89C127.79,251.18 128.09,250.42 128.38,249.64C128.69,248.8 129,247.92 129.29,247C129.6,246.02 129.9,244.99 130.19,243.93C130.5,242.81 130.8,241.63 131.1,240.45C131.41,239.22 131.7,237.95 132,236.69C132.3,235.4 132.6,234.1 132.9,232.8C133.2,231.5 133.51,230.18 133.81,228.88C134.11,227.58 134.41,226.28 134.71,224.99C135.01,223.72 135.32,222.44 135.62,221.19C135.92,219.96 136.22,218.75 136.52,217.55C136.82,216.39 137.11,215.23 137.42,214.11C137.72,213.02 138.02,211.95 138.33,210.91C138.63,209.91 138.92,208.93 139.23,207.98C139.52,207.08 139.83,206.19 140.14,205.35C140.43,204.55 140.73,203.78 141.04,203.05C141.33,202.36 141.64,201.7 141.95,201.08C142.24,200.51 142.54,199.96 142.85,199.45C143.14,198.98 143.43,198.54 143.75,198.15C144.04,197.79 144.35,197.46 144.66,197.16C144.95,196.88 145.26,196.64 145.56,196.39C145.86,196.14 146.17,195.92 146.47,195.67C146.77,195.41 147.07,195.13 147.37,194.86C147.67,194.58 147.97,194.29 148.27,194.02C148.57,193.75 148.87,193.48 149.18,193.25C149.47,193.04 149.77,192.83 150.08,192.69C150.37,192.55 150.68,192.44 150.99,192.4C151.29,192.36 151.6,192.36 151.89,192.42C152.2,192.48 152.5,192.61 152.79,192.78C153.11,192.96 153.41,193.21 153.7,193.48C154.02,193.78 154.31,194.13 154.6,194.5C154.92,194.91 155.22,195.36 155.51,195.83C155.82,196.33 156.12,196.88 156.41,197.44C156.72,198.03 157.02,198.66 157.32,199.3C157.63,199.97 157.92,200.66 158.22,201.36C158.53,202.09 158.82,202.84 159.12,203.59C159.42,204.35 159.73,205.13 160.03,205.91C160.33,206.69 160.63,207.49 160.93,208.27C161.23,209.04 161.54,209.82 161.84,210.58C162.14,211.33 162.44,212.08 162.74,212.81C163.04,213.52 163.34,214.23 163.64,214.92C163.94,215.6 164.25,216.27 164.55,216.93C164.85,217.58 165.15,218.22 165.45,218.86C165.75,219.49 166.06,220.11 166.36,220.74C166.66,221.36 166.96,221.98 167.26,222.6C167.56,223.22 167.86,223.85 168.16,224.47C168.46,225.1 168.77,225.73 169.07,226.35C169.37,226.96 169.66,227.59 169.97,228.18C170.27,228.74 170.57,229.3 170.88,229.81C171.17,230.28 171.47,230.73 171.78,231.14C172.07,231.52 172.37,231.86 172.68,232.19C172.97,232.5 173.28,232.78 173.59,233.06C173.89,233.33 174.19,233.59 174.49,233.85C174.79,234.11 175.1,234.36 175.4,234.64C175.71,234.92 176,235.21 176.3,235.52C176.61,235.84 176.91,236.16 177.21,236.51C177.52,236.87 177.81,237.26 178.11,237.65C178.41,238.06 178.71,238.48 179.01,238.91C179.32,239.35 179.62,239.82 179.92,240.28C180.22,240.75 180.52,241.23 180.82,241.69C181.12,242.15 181.41,242.64 181.73,243.04C182.02,243.4 182.31,243.77 182.63,244.01C182.91,244.22 183.22,244.34 183.53,244.43C183.83,244.52 184.15,244.63 184.44,244.56C184.76,244.48 185.07,244.23 185.34,243.93C185.69,243.54 185.96,242.88 186.25,242.31C186.56,241.7 186.86,241.05 187.15,240.39C187.46,239.69 187.75,238.96 188.05,238.23C188.36,237.47 188.66,236.68 188.96,235.91C189.26,235.14 189.56,234.36 189.86,233.59C190.16,232.83 190.47,232.1 190.77,231.32C191.08,230.51 191.37,229.66 191.67,228.81C191.97,227.95 192.27,227.05 192.58,226.2C192.88,225.39 193.17,224.59 193.48,223.82C193.77,223.09 194.07,222.39 194.38,221.72C194.67,221.09 194.98,220.49 195.29,219.93C195.58,219.41 195.88,218.9 196.19,218.45C196.48,218.03 196.78,217.64 197.1,217.29C197.39,216.97 197.69,216.68 198,216.44C198.29,216.22 198.59,216.02 198.9,215.89C199.19,215.76 199.51,215.68 199.81,215.65C200.11,215.62 200.41,215.64 200.71,215.71C201.02,215.78 201.33,215.9 201.62,216.06C201.93,216.23 202.23,216.46 202.52,216.71C202.83,216.98 203.13,217.3 203.42,217.63C203.73,217.99 204.03,218.39 204.33,218.8C204.64,219.22 204.92,219.71 205.23,220.13C205.52,220.52 205.83,220.88 206.14,221.23C206.44,221.56 206.74,221.86 207.04,222.18C207.34,222.5 207.64,222.84 207.95,223.15C208.25,223.46 208.54,223.78 208.85,224.05C209.14,224.31 209.44,224.56 209.75,224.74C210.04,224.91 210.35,225.04 210.66,225.11C210.96,225.18 211.26,225.18 211.56,225.16C211.86,225.14 212.17,225.06 212.47,224.97C212.78,224.88 213.07,224.74 213.37,224.6C213.67,224.45 213.97,224.28 214.27,224.09C214.58,223.9 214.88,223.68 215.18,223.46C215.49,223.23 215.78,222.99 216.08,222.73C216.39,222.46 216.69,222.18 216.99,221.89C217.3,221.59 217.59,221.28 217.89,220.95C218.19,220.62 218.49,220.27 218.79,219.91C219.1,219.54 219.4,219.15 219.7,218.76C220.01,218.36 220.3,217.94 220.6,217.52C220.91,217.09 221.21,216.65 221.51,216.2C221.81,215.74 222.11,215.28 222.41,214.81C222.71,214.34 223.02,213.85 223.32,213.37C223.62,212.89 223.92,212.41 224.22,211.93C224.52,211.46 224.82,210.99 225.12,210.52C225.42,210.06 225.73,209.59 226.03,209.14C226.33,208.69 226.63,208.25 226.93,207.82C227.23,207.4 227.53,206.98 227.84,206.57C228.14,206.17 228.44,205.78 228.74,205.4C229.04,205.03 229.33,204.66 229.64,204.31C229.94,203.97 230.24,203.64 230.55,203.32C230.85,203.01 231.15,202.7 231.45,202.4C231.75,202.11 232.06,201.83 232.36,201.56C232.66,201.29 232.96,201.03 233.26,200.77C233.56,200.52 233.86,200.27 234.16,200.03C234.46,199.79 234.77,199.56 235.07,199.33C235.37,199.11 235.67,198.89 235.97,198.68C236.27,198.47 236.58,198.27 236.88,198.07C237.18,197.88 237.48,197.69 237.78,197.52C238.08,197.35 238.38,197.19 238.68,197.04C238.98,196.9 239.28,196.76 239.59,196.65C239.89,196.54 240.19,196.44 240.49,196.37C240.79,196.3 241.1,196.24 241.4,196.21C241.7,196.18 242,196.18 242.3,196.21C242.6,196.24 242.91,196.31 243.21,196.4C243.52,196.5 243.82,196.63 244.11,196.79C244.42,196.96 244.72,197.17 245.01,197.4C245.32,197.65 245.63,197.94 245.92,198.26C246.23,198.6 246.53,198.98 246.82,199.38C247.13,199.8 247.44,200.26 247.73,200.74C248.04,201.25 248.34,201.8 248.63,202.36C248.94,202.95 249.24,203.58 249.53,204.22C249.84,204.89 250.14,205.6 250.44,206.31C250.75,207.05 251.04,207.81 251.34,208.58C251.65,209.37 251.95,210.18 252.25,210.99C252.55,211.82 252.85,212.66 253.15,213.5C253.45,214.35 253.75,215.2 254.05,216.05C254.35,216.9 254.66,217.74 254.96,218.59C255.26,219.44 255.56,220.28 255.86,221.13C256.16,221.98 256.47,222.82 256.77,223.67C257.07,224.52 257.37,225.38 257.67,226.23C257.97,227.09 258.28,227.94 258.58,228.8C258.88,229.67 259.18,230.54 259.48,231.43C259.78,232.33 260.08,233.24 260.38,234.16C260.68,235.1 260.99,236.05 261.29,237.02C261.6,238.02 261.89,239.03 262.19,240.06C262.5,241.12 262.8,242.19 263.1,243.28C263.41,244.4 263.7,245.54 264,246.68C264.3,247.83 264.59,249.03 264.9,250.13C265.19,251.16 265.49,252.15 265.81,253.09C266.1,253.95 266.4,254.76 266.71,255.54C267,256.27 267.3,256.99 267.62,257.65C267.91,258.25 268.2,258.83 268.52,259.35C268.81,259.81 269.1,260.25 269.42,260.62C269.71,260.96 270.01,261.27 270.33,261.52C270.62,261.75 270.92,261.98 271.23,262.09C271.52,262.19 271.84,262.2 272.14,262.17C272.44,262.14 272.74,261.99 273.04,261.88C273.35,261.77 273.65,261.62 273.95,261.49C274.25,261.36 274.55,261.23 274.85,261.1C275.15,260.97 275.45,260.85 275.75,260.7C276.06,260.54 276.36,260.36 276.66,260.17C276.96,259.98 277.26,259.75 277.56,259.55C277.86,259.34 278.17,259.14 278.47,258.94C278.77,258.75 279.07,258.56 279.37,258.39C279.67,258.22 279.97,258.05 280.27,257.91C280.57,257.77 280.88,257.64 281.18,257.53C281.48,257.42 281.78,257.33 282.08,257.23C282.38,257.13 282.69,257.04 282.99,256.92C283.29,256.79 283.59,256.64 283.89,256.48C284.19,256.32 284.49,256.11 284.79,255.94C285.09,255.77 285.4,255.6 285.7,255.44C286,255.28 286.3,255.14 286.6,254.99C286.9,254.83 287.21,254.68 287.51,254.51C287.81,254.33 288.11,254.12 288.41,253.93C288.71,253.73 289.01,253.53 289.32,253.34C289.62,253.16 289.92,252.98 290.22,252.83C290.52,252.68 290.82,252.54 291.12,252.42C291.42,252.3 291.73,252.19 292.03,252.1C292.33,252.01 292.63,251.93 292.93,251.89C293.23,251.85 293.54,251.83 293.84,251.85C294.14,251.87 294.45,251.94 294.74,252.04C295.05,252.15 295.35,252.3 295.64,252.48C295.95,252.68 296.26,252.93 296.55,253.2C296.86,253.49 297.16,253.83 297.45,254.18C297.76,254.56 298.07,254.97 298.36,255.4C298.67,255.85 298.97,256.33 299.26,256.81C299.57,257.31 299.86,257.84 300.16,258.36C300.46,258.89 300.77,259.44 301.07,259.97C301.37,260.5 301.65,261.06 301.97,261.54C302.26,261.97 302.56,262.39 302.88,262.73C303.17,263.04 303.46,263.35 303.78,263.52C304.06,263.67 304.39,263.77 304.68,263.73C304.99,263.69 305.31,263.46 305.59,263.24C305.92,262.98 306.2,262.61 306.49,262.23C306.81,261.81 307.11,261.32 307.4,260.8C307.72,260.22 308,259.54 308.3,258.88C308.61,258.19 308.91,257.48 309.21,256.75C309.52,255.98 309.81,255.18 310.11,254.38C310.41,253.56 310.71,252.73 311.01,251.9C311.31,251.07 311.62,250.24 311.92,249.41C312.22,248.59 312.52,247.77 312.82,246.94C313.12,246.11 313.43,245.28 313.73,244.43C314.04,243.56 314.34,242.69 314.63,241.78C314.94,240.83 315.23,239.84 315.53,238.84C315.84,237.81 316.14,236.75 316.44,235.7C316.74,234.65 317.04,233.58 317.34,232.54C317.64,231.51 317.94,230.48 318.25,229.47C318.55,228.48 318.85,227.51 319.15,226.55C319.45,225.62 319.74,224.7 320.05,223.81C320.35,222.95 320.65,222.11 320.96,221.29C321.26,220.51 321.55,219.74 321.86,219C322.15,218.3 322.46,217.62 322.77,216.97C323.06,216.36 323.36,215.77 323.67,215.22C323.96,214.7 324.27,214.2 324.58,213.74C324.87,213.32 325.17,212.92 325.48,212.57C325.77,212.25 326.06,211.95 326.38,211.73C326.67,211.53 326.98,211.35 327.29,211.26C327.58,211.17 327.89,211.13 328.19,211.16C328.5,211.19 328.81,211.29 329.1,211.43C329.41,211.58 329.71,211.8 330,212.04C330.31,212.3 330.61,212.62 330.9,212.96C331.21,213.32 331.52,213.73 331.81,214.15C332.12,214.59 332.41,215.07 332.71,215.55C333.02,216.04 333.32,216.56 333.62,217.07C333.92,217.58 334.21,218.12 334.52,218.62C334.81,219.1 335.1,219.6 335.42,220.02C335.71,220.4 336,220.79 336.33,221.04C336.61,221.26 336.93,221.47 337.23,221.49C337.53,221.51 337.86,221.34 338.14,221.15C338.47,220.92 338.75,220.51 339.04,220.13C339.36,219.7 339.66,219.21 339.95,218.69C340.27,218.13 340.56,217.52 340.85,216.87C341.17,216.16 341.47,215.41 341.75,214.58C342.07,213.63 342.37,212.56 342.66,211.48C342.97,210.31 343.26,209.07 343.56,207.82C343.87,206.52 344.17,205.19 344.47,203.84C344.78,202.45 345.07,201.03 345.37,199.6C345.67,198.14 345.97,196.66 346.27,195.17C346.57,193.66 346.88,192.13 347.18,190.61C347.48,189.08 347.78,187.54 348.08,186C348.38,184.46 348.69,182.92 348.99,181.39C349.29,179.88 349.59,178.37 349.89,176.88C350.19,175.42 350.48,173.97 350.79,172.54C351.09,171.15 351.39,169.78 351.7,168.44C352,167.15 352.29,165.88 352.6,164.66C352.89,163.49 353.2,162.35 353.51,161.26C353.8,160.24 354.09,159.24 354.41,158.3C354.7,157.44 355,156.61 355.32,155.85C355.61,155.17 355.9,154.51 356.22,153.95C356.5,153.46 356.79,152.98 357.12,152.63C357.4,152.33 357.71,152.05 358.03,151.92C358.32,151.81 358.64,151.77 358.93,151.84C359.24,151.91 359.56,152.14 359.84,152.39C360.17,152.69 360.46,153.12 360.74,153.57C361.07,154.09 361.35,154.71 361.64,155.35C361.96,156.07 362.26,156.87 362.55,157.7C362.87,158.6 363.16,159.57 363.45,160.56C363.76,161.62 364.07,162.74 364.36,163.88C364.67,165.08 364.97,166.33 365.26,167.59C365.57,168.91 365.86,170.26 366.16,171.63C366.47,173.04 366.77,174.47 367.07,175.91C367.37,177.37 367.67,178.85 367.97,180.31C368.27,181.76 368.57,183.23 368.88,184.65C369.18,186.03 369.47,187.4 369.78,188.73C370.07,190.01 370.37,191.26 370.68,192.47C370.97,193.63 371.28,194.76 371.59,195.85C371.88,196.88 372.17,197.9 372.49,198.85C372.78,199.72 373,200.79 373.4,201.32C373.66,201.66 374,201.99 374.3,201.98C374.61,201.97 374.93,201.5 375.21,201.17C375.54,200.79 375.82,200.27 376.11,199.8C376.42,199.31 376.71,198.79 377.01,198.27C377.31,197.75 377.62,197.21 377.92,196.68C378.22,196.15 378.52,195.61 378.82,195.07C379.12,194.53 379.43,193.99 379.73,193.46C380.03,192.93 380.33,192.41 380.63,191.89C380.93,191.38 381.23,190.88 381.53,190.39C381.83,189.91 382.13,189.43 382.44,188.98C382.74,188.54 383.03,188.12 383.34,187.72C383.64,187.34 383.94,186.96 384.25,186.62C384.54,186.3 384.84,186 385.15,185.74C385.44,185.5 385.74,185.28 386.05,185.12C386.34,184.97 386.65,184.84 386.96,184.78C387.26,184.73 387.56,184.72 387.86,184.78C388.17,184.84 388.48,184.97 388.77,185.14C389.09,185.33 389.38,185.6 389.67,185.89C389.99,186.22 390.29,186.62 390.58,187.05C390.9,187.53 391.19,188.07 391.48,188.64C391.8,189.26 392.09,189.94 392.38,190.65C392.69,191.42 393,192.24 393.29,193.08C393.6,193.98 393.9,194.94 394.19,195.91C394.5,196.94 394.8,198.02 395.1,199.11C395.41,200.25 395.71,201.43 396,202.63C396.31,203.87 396.6,205.15 396.9,206.43C397.21,207.74 397.51,209.08 397.81,210.42C398.11,211.78 398.41,213.17 398.71,214.55C399.01,215.93 399.32,217.32 399.62,218.7C399.92,220.06 400.22,221.43 400.52,222.77C400.82,224.08 401.11,225.38 401.42,226.64C401.72,227.84 402.02,229.03 402.33,230.16C402.62,231.22 402.91,232.28 403.23,233.22C403.52,234.05 403.75,235.03 404.14,235.52C404.4,235.85 404.74,236.15 405.04,236.14C405.35,236.13 405.68,235.75 405.95,235.41C406.31,234.95 406.57,234.19 406.85,233.49C407.18,232.67 407.46,231.71 407.75,230.77C408.06,229.78 408.37,228.75 408.66,227.7C408.97,226.6 409.27,225.47 409.56,224.3C409.87,223.07 410.17,221.8 410.47,220.51C410.78,219.17 411.07,217.78 411.37,216.4C411.67,215.01 411.97,213.59 412.27,212.19C412.57,210.81 412.87,209.42 413.18,208.07C413.48,206.75 413.77,205.44 414.08,204.17C414.38,202.94 414.68,201.73 414.99,200.57C415.28,199.46 415.58,198.38 415.89,197.35C416.18,196.38 416.47,195.43 416.79,194.55C417.08,193.74 417.38,192.95 417.7,192.23C417.99,191.59 418.28,190.96 418.6,190.43C418.88,189.96 419.18,189.52 419.51,189.18C419.79,188.89 420.09,188.62 420.41,188.49C420.7,188.37 421.03,188.33 421.32,188.39C421.63,188.45 421.94,188.65 422.22,188.88C422.55,189.15 422.84,189.55 423.12,189.96C423.45,190.44 423.74,191.01 424.03,191.61C424.35,192.28 424.64,193.04 424.93,193.82C425.25,194.68 425.55,195.61 425.84,196.57C426.15,197.6 426.45,198.69 426.74,199.81C427.05,201 427.35,202.24 427.64,203.5C427.95,204.82 428.25,206.19 428.55,207.57C428.86,208.99 429.15,210.46 429.45,211.92C429.75,213.39 430.05,214.9 430.36,216.35C430.66,217.76 430.96,219.16 431.26,220.53C431.56,221.86 431.86,223.15 432.16,224.45C432.46,225.75 432.77,227.04 433.07,228.34C433.37,229.65 433.67,230.97 433.97,232.29C434.27,233.61 434.58,234.94 434.88,236.27C435.18,237.59 435.48,238.92 435.78,240.23C436.08,241.51 436.37,242.8 436.68,244.03C436.97,245.2 437.27,246.38 437.59,247.45C437.88,248.42 438.14,249.41 438.49,250.18C438.76,250.79 439.04,251.42 439.4,251.76C439.67,252.02 439.99,252.14 440.3,252.22C440.59,252.3 440.91,252.27 441.21,252.26C441.51,252.25 441.81,252.21 442.11,252.18C442.41,252.16 442.71,252.12 443.01,252.11C443.31,252.1 443.62,252.1 443.92,252.11C444.22,252.12 444.52,252.15 444.82,252.19C445.12,252.23 445.43,252.3 445.73,252.37C446.03,252.44 446.33,252.54 446.63,252.61C446.93,252.68 447.23,252.77 447.53,252.81C447.83,252.85 448.14,252.83 448.44,252.85C448.74,252.87 449.04,252.87 449.34,252.92C449.64,252.97 449.95,253.05 450.25,253.16C450.56,253.28 450.86,253.43 451.15,253.62C451.46,253.82 451.76,254.08 452.05,254.35C452.36,254.64 452.67,254.98 452.96,255.34C453.27,255.73 453.57,256.16 453.86,256.61C454.17,257.09 454.48,257.61 454.77,258.14C455.08,258.7 455.37,259.3 455.67,259.9C455.98,260.53 456.28,261.18 456.58,261.84C456.89,262.52 457.18,263.23 457.48,263.93C457.78,264.65 458.08,265.38 458.38,266.1C458.68,266.82 458.99,267.55 459.29,268.26C459.59,268.96 459.88,269.66 460.19,270.32C460.48,270.95 460.78,271.59 461.1,272.15Q461.39,272.66 462,273.55" style="vector-effect: non-scaling-stroke; fill: none; stroke: rgb(0, 176, 246); stroke-opacity: 1; stroke-width: 2px; opacity: 1;"/></g><g class="points"/><g class="text"/></g><g class="trace scatter trace57eb80" style="stroke-miterlimit: 2; opacity: 1;"><g class="fills"/><g class="errorbars"/><g class="lines"><path class="js-line" d="M0,250.57Q0.62,248.72 0.9,247.67C1.23,246.44 1.51,244.98 1.81,243.62C2.11,242.25 2.41,240.86 2.71,239.48C3.01,238.09 3.32,236.7 3.62,235.31C3.92,233.92 4.22,232.53 4.52,231.13C4.82,229.73 5.12,228.33 5.42,226.93C5.72,225.52 6.03,224.12 6.33,222.71C6.63,221.3 6.93,219.9 7.23,218.49C7.53,217.09 7.84,215.68 8.14,214.28C8.44,212.89 8.74,211.5 9.04,210.12C9.34,208.75 9.65,207.38 9.95,206.03C10.25,204.7 10.55,203.38 10.85,202.07C11.15,200.79 11.44,199.52 11.75,198.27C12.05,197.05 12.35,195.85 12.66,194.67C12.96,193.53 13.25,192.41 13.56,191.32C13.86,190.27 14.16,189.24 14.47,188.24C14.76,187.29 15.06,186.36 15.37,185.47C15.66,184.63 15.96,183.82 16.27,183.05C16.56,182.33 16.86,181.64 17.18,181C17.47,180.41 17.76,179.84 18.08,179.34C18.37,178.89 18.67,178.46 18.99,178.11C19.27,177.8 19.57,177.52 19.89,177.33C20.18,177.16 20.49,177.03 20.79,177C21.09,176.97 21.41,177.04 21.7,177.16C22.02,177.3 22.32,177.54 22.6,177.82C22.93,178.14 23.23,178.55 23.51,178.99C23.83,179.49 24.12,180.07 24.41,180.68C24.73,181.36 25.03,182.1 25.32,182.88C25.64,183.73 25.93,184.65 26.22,185.6C26.53,186.62 26.83,187.71 27.12,188.82C27.43,190.01 27.74,191.25 28.03,192.52C28.34,193.86 28.63,195.26 28.93,196.68C29.24,198.17 29.54,199.7 29.84,201.25C30.15,202.86 30.44,204.52 30.74,206.19C31.04,207.92 31.34,209.68 31.64,211.45C31.95,213.26 32.25,215.11 32.55,216.96C32.85,218.84 33.15,220.73 33.45,222.63C33.75,224.54 34.06,226.46 34.36,228.38C34.66,230.29 34.96,232.22 35.26,234.12C35.56,236.01 35.86,237.89 36.16,239.75C36.46,241.58 36.76,243.4 37.07,245.19C37.37,246.94 37.66,248.67 37.97,250.36C38.27,252 38.57,253.61 38.88,255.18C39.18,256.69 39.47,258.17 39.78,259.61C40.07,260.97 40.37,262.31 40.68,263.59C40.97,264.79 41.27,265.97 41.59,267.07C41.88,268.08 42.17,269.08 42.49,269.97C42.78,270.76 43.06,271.55 43.4,272.16C43.67,272.65 43.95,273.21 44.3,273.39C44.57,273.53 44.94,273.55 45.21,273.41C45.57,273.22 45.84,272.6 46.11,272.07C46.46,271.39 46.72,270.47 47.01,269.59C47.33,268.6 47.62,267.5 47.92,266.42C48.23,265.29 48.52,264.11 48.82,262.96C49.12,261.81 49.42,260.64 49.73,259.51C50.03,258.41 50.32,257.32 50.63,256.27C50.92,255.28 51.22,254.3 51.53,253.39C51.82,252.55 52.12,251.73 52.44,250.98C52.73,250.31 53.01,249.66 53.34,249.11C53.62,248.64 53.92,248.18 54.25,247.86C54.53,247.59 54.84,247.34 55.15,247.26C55.44,247.19 55.77,247.22 56.05,247.34C56.38,247.48 56.68,247.79 56.96,248.11C57.29,248.5 57.58,249.03 57.86,249.57C58.19,250.2 58.48,250.93 58.77,251.69C59.09,252.54 59.38,253.47 59.67,254.42C59.98,255.45 60.29,256.55 60.58,257.67C60.89,258.85 61.18,260.08 61.48,261.31C61.78,262.56 62.07,263.86 62.38,265.11C62.68,266.33 62.97,267.58 63.29,268.72C63.58,269.76 63.85,270.82 64.19,271.69C64.47,272.4 64.74,273.13 65.1,273.58C65.37,273.91 65.69,274.25 66,274.28C66.29,274.31 66.63,274.09 66.9,273.85C67.25,273.53 67.53,272.96 67.81,272.4C68.15,271.72 68.43,270.9 68.71,270.05C69.03,269.08 69.33,268 69.62,266.89C69.94,265.67 70.23,264.37 70.52,263.04C70.83,261.61 71.13,260.1 71.42,258.56C71.73,256.93 72.03,255.23 72.33,253.51C72.64,251.71 72.93,249.85 73.23,247.98C73.54,246.06 73.84,244.09 74.14,242.12C74.44,240.12 74.74,238.08 75.04,236.06C75.34,234.03 75.65,231.98 75.95,229.94C76.25,227.91 76.55,225.88 76.85,223.87C77.15,221.88 77.45,219.89 77.75,217.92C78.05,215.98 78.36,214.06 78.66,212.16C78.96,210.3 79.25,208.44 79.56,206.62C79.86,204.85 80.16,203.1 80.47,201.38C80.77,199.72 81.06,198.08 81.37,196.48C81.66,194.95 81.96,193.44 82.27,191.99C82.56,190.61 82.87,189.26 83.18,187.97C83.47,186.77 83.76,185.59 84.08,184.49C84.37,183.48 84.67,182.49 84.99,181.59C85.28,180.78 85.56,180.01 85.89,179.33C86.17,178.75 86.46,178.18 86.79,177.75C87.07,177.39 87.37,177.03 87.7,176.86C87.98,176.71 88.31,176.64 88.6,176.69C88.91,176.75 89.23,176.98 89.51,177.23C89.85,177.54 90.13,178 90.41,178.48C90.74,179.04 91.03,179.71 91.32,180.41C91.64,181.2 91.93,182.08 92.22,182.99C92.54,183.99 92.83,185.06 93.12,186.17C93.43,187.37 93.74,188.63 94.03,189.92C94.34,191.29 94.63,192.71 94.93,194.15C95.24,195.66 95.54,197.22 95.84,198.8C96.15,200.44 96.44,202.11 96.74,203.8C97.04,205.53 97.34,207.28 97.64,209.04C97.94,210.82 98.25,212.62 98.55,214.42C98.85,216.22 99.15,218.05 99.45,219.84C99.75,221.61 100.05,223.39 100.36,225.12C100.66,226.78 100.94,228.46 101.26,230.01C101.55,231.41 101.8,232.89 102.16,234.01C102.43,234.87 102.66,235.98 103.07,236.21C103.33,236.35 103.71,236.24 103.97,236.05C104.36,235.77 104.6,234.94 104.88,234.3C105.2,233.58 105.48,232.73 105.78,231.92C106.08,231.1 106.37,230.23 106.68,229.41C106.98,228.6 107.28,227.8 107.59,227.03C107.88,226.3 108.17,225.58 108.49,224.92C108.78,224.31 109.08,223.72 109.4,223.2C109.69,222.74 109.97,222.28 110.3,221.94C110.58,221.64 110.89,221.36 111.21,221.22C111.5,221.1 111.82,221.03 112.11,221.08C112.42,221.13 112.73,221.33 113.01,221.56C113.34,221.84 113.64,222.26 113.92,222.7C114.25,223.22 114.54,223.86 114.82,224.52C115.14,225.28 115.44,226.13 115.73,227.01C116.05,227.99 116.34,229.05 116.63,230.15C116.94,231.34 117.24,232.61 117.53,233.9C117.84,235.27 118.14,236.71 118.44,238.15C118.75,239.63 119.04,241.18 119.34,242.68C119.64,244.18 119.94,245.7 120.25,247.15C120.55,248.54 120.84,249.9 121.15,251.23C121.44,252.51 121.75,253.74 122.05,254.99C122.35,256.23 122.66,257.44 122.96,258.68C123.26,259.93 123.56,261.18 123.86,262.44C124.16,263.7 124.47,264.98 124.77,266.23C125.07,267.46 125.29,268.94 125.67,269.88C125.93,270.53 126.3,271.46 126.58,271.43C126.92,271.4 127.2,269.79 127.48,268.84C127.81,267.73 128.09,266.47 128.38,265.17C128.7,263.71 129,262.12 129.29,260.49C129.61,258.7 129.9,256.8 130.19,254.86C130.5,252.79 130.8,250.62 131.1,248.43C131.41,246.14 131.7,243.78 132,241.41C132.3,238.97 132.6,236.49 132.9,234C133.2,231.47 133.51,228.92 133.81,226.36C134.11,223.79 134.41,221.2 134.71,218.62C135.01,216.04 135.32,213.46 135.62,210.9C135.92,208.36 136.22,205.82 136.52,203.31C136.82,200.84 137.11,198.37 137.42,195.94C137.72,193.57 138.02,191.21 138.33,188.9C138.63,186.66 138.92,184.44 139.23,182.27C139.53,180.19 139.83,178.13 140.14,176.14C140.43,174.24 140.73,172.37 141.04,170.57C141.33,168.87 141.64,167.21 141.95,165.63C142.24,164.16 142.54,162.73 142.85,161.39C143.14,160.16 143.43,158.97 143.75,157.88C144.04,156.9 144.33,155.97 144.66,155.14C144.94,154.43 145.22,153.74 145.56,153.2C145.84,152.76 146.13,152.32 146.47,152.08C146.75,151.89 147.08,151.75 147.37,151.78C147.68,151.81 148,152.04 148.27,152.29C148.61,152.61 148.9,153.11 149.18,153.62C149.51,154.23 149.8,154.96 150.08,155.72C150.4,156.59 150.7,157.56 150.99,158.57C151.31,159.69 151.6,160.89 151.89,162.13C152.2,163.47 152.5,164.9 152.79,166.35C153.1,167.9 153.41,169.51 153.7,171.16C154.01,172.89 154.3,174.67 154.6,176.48C154.91,178.36 155.21,180.29 155.51,182.24C155.82,184.24 156.11,186.28 156.41,188.33C156.71,190.41 157.02,192.51 157.32,194.61C157.62,196.72 157.92,198.86 158.22,200.96C158.52,203.04 158.81,205.13 159.12,207.17C159.42,209.15 159.72,211.13 160.03,213.04C160.32,214.86 160.62,216.66 160.93,218.37C161.22,219.96 161.52,221.51 161.84,222.97C162.13,224.3 162.42,225.57 162.74,226.77C163.03,227.85 163.32,228.88 163.64,229.84C163.93,230.71 164.23,231.53 164.55,232.3C164.84,233.01 165.14,233.67 165.45,234.3C165.74,234.89 166.05,235.43 166.36,235.96C166.65,236.46 166.95,236.94 167.26,237.4C167.55,237.84 167.85,238.25 168.16,238.65C168.46,239.04 168.76,239.41 169.07,239.77C169.37,240.12 169.66,240.45 169.97,240.77C170.27,241.08 170.57,241.39 170.88,241.68C171.18,241.97 171.48,242.24 171.78,242.51C172.08,242.78 172.38,243.03 172.68,243.29C172.98,243.55 173.29,243.8 173.59,244.06C173.89,244.32 174.19,244.58 174.49,244.85C174.8,245.13 175.1,245.42 175.4,245.73C175.71,246.05 176.01,246.38 176.3,246.74C176.61,247.11 176.92,247.51 177.21,247.93C177.52,248.37 177.82,248.84 178.11,249.33C178.42,249.85 178.72,250.4 179.01,250.97C179.32,251.57 179.63,252.19 179.92,252.83C180.23,253.51 180.52,254.21 180.82,254.93C181.13,255.68 181.43,256.45 181.73,257.23C182.04,258.04 182.33,258.86 182.63,259.7C182.93,260.56 183.23,261.44 183.53,262.32C183.83,263.22 184.14,264.12 184.44,265.03C184.74,265.95 185.04,266.88 185.34,267.8C185.64,268.73 185.95,269.66 186.25,270.58C186.55,271.5 186.85,272.42 187.15,273.33C187.45,274.23 187.75,275.13 188.05,276.01C188.35,276.88 188.65,277.74 188.96,278.58C189.26,279.4 189.47,280.45 189.86,281C190.12,281.37 190.45,281.57 190.77,281.75C191.06,281.91 191.37,281.98 191.67,282.08C191.97,282.18 192.28,282.27 192.58,282.35C192.88,282.43 193.18,282.5 193.48,282.56C193.78,282.62 194.08,282.68 194.38,282.73C194.68,282.78 194.99,282.82 195.29,282.88C195.59,282.93 195.89,282.99 196.19,283.06C196.49,283.13 196.8,283.2 197.1,283.29C197.4,283.39 197.7,283.5 198,283.63C198.3,283.77 198.61,283.93 198.9,284.11C199.21,284.3 199.52,284.52 199.81,284.77C200.12,285.03 200.42,285.34 200.71,285.66C201.02,286.01 201.33,286.39 201.62,286.79C201.93,287.22 202.23,287.69 202.52,288.18C202.83,288.71 203.13,289.27 203.42,289.85C203.73,290.47 204.04,291.12 204.33,291.79C204.64,292.5 204.93,293.24 205.23,293.99C205.54,294.78 205.84,295.59 206.14,296.41C206.45,297.26 206.74,298.13 207.04,299C207.34,299.89 207.64,300.82 207.95,301.68C208.24,302.48 208.44,303.81 208.85,304C209.11,304.12 209.48,303.91 209.75,303.69C210.12,303.38 210.37,302.66 210.66,302.08C210.98,301.43 211.27,300.7 211.56,299.94C211.88,299.11 212.18,298.21 212.47,297.28C212.78,296.27 213.08,295.2 213.37,294.11C213.68,292.95 213.97,291.74 214.27,290.51C214.58,289.23 214.88,287.92 215.18,286.59C215.49,285.23 215.78,283.83 216.08,282.44C216.38,281.02 216.69,279.59 216.99,278.16C217.29,276.72 217.59,275.27 217.89,273.82C218.19,272.37 218.49,270.92 218.79,269.48C219.09,268.05 219.4,266.62 219.7,265.2C220,263.8 220.3,262.4 220.6,261.02C220.9,259.66 221.21,258.31 221.51,256.97C221.81,255.66 222.11,254.35 222.41,253.07C222.71,251.81 223.02,250.58 223.32,249.34C223.62,248.1 223.94,246.95 224.22,245.64C224.54,244.17 224.83,242.6 225.12,240.95C225.44,239.12 225.73,237.08 226.03,235.15C226.33,233.23 226.62,231.3 226.93,229.42C227.23,227.58 227.53,225.76 227.84,223.98C228.14,222.25 228.43,220.54 228.74,218.87C229.03,217.26 229.33,215.67 229.64,214.12C229.94,212.63 230.24,211.18 230.55,209.76C230.84,208.41 231.14,207.09 231.45,205.81C231.74,204.59 232.05,203.4 232.36,202.26C232.65,201.18 232.95,200.13 233.26,199.13C233.55,198.19 233.85,197.29 234.16,196.43C234.45,195.64 234.75,194.87 235.07,194.16C235.36,193.51 235.65,192.89 235.97,192.33C236.26,191.82 236.56,191.33 236.88,190.92C237.17,190.55 237.46,190.21 237.78,189.95C238.06,189.72 238.37,189.52 238.68,189.41C238.97,189.31 239.29,189.27 239.59,189.3C239.89,189.33 240.2,189.45 240.49,189.61C240.81,189.79 241.11,190.06 241.4,190.35C241.72,190.67 242.01,191.07 242.3,191.49C242.62,191.96 242.92,192.49 243.21,193.05C243.53,193.66 243.82,194.32 244.11,195.01C244.42,195.75 244.72,196.54 245.01,197.36C245.32,198.23 245.63,199.15 245.92,200.09C246.23,201.09 246.53,202.13 246.82,203.19C247.13,204.31 247.43,205.48 247.73,206.66C248.04,207.9 248.34,209.17 248.63,210.46C248.94,211.8 249.23,213.18 249.53,214.58C249.84,216.02 250.14,217.5 250.44,218.99C250.75,220.52 251.04,222.08 251.34,223.66C251.65,225.27 251.95,226.91 252.25,228.56C252.55,230.23 252.85,231.92 253.15,233.62C253.45,235.34 253.75,237.07 254.05,238.8C254.35,240.53 254.66,242.28 254.96,244.01C255.26,245.73 255.56,247.45 255.86,249.14C256.16,250.8 256.46,252.45 256.77,254.05C257.07,255.58 257.36,257.11 257.67,258.54C257.96,259.87 258.25,261.19 258.58,262.37C258.86,263.39 259.13,264.42 259.48,265.21C259.75,265.83 260.01,266.53 260.38,266.78C260.65,266.96 261.02,267.01 261.29,266.89C261.64,266.74 261.92,266.15 262.19,265.65C262.54,265.01 262.81,264.14 263.1,263.3C263.42,262.34 263.71,261.27 264,260.19C264.31,259.04 264.6,257.82 264.9,256.61C265.21,255.36 265.51,254.08 265.81,252.81C266.11,251.54 266.41,250.25 266.71,248.98C267.01,247.73 267.31,246.47 267.62,245.25C267.92,244.06 268.21,242.88 268.52,241.73C268.81,240.62 269.11,239.53 269.42,238.48C269.71,237.48 270.02,236.5 270.33,235.57C270.62,234.69 270.92,233.84 271.23,233.04C271.52,232.29 271.82,231.57 272.14,230.9C272.43,230.29 272.72,229.7 273.04,229.18C273.33,228.71 273.63,228.27 273.95,227.9C274.24,227.57 274.53,227.26 274.85,227.05C275.13,226.86 275.44,226.7 275.75,226.64C276.05,226.58 276.37,226.6 276.66,226.67C276.97,226.75 277.27,226.92 277.56,227.12C277.88,227.35 278.18,227.66 278.47,227.99C278.79,228.36 279.08,228.8 279.37,229.26C279.69,229.77 279.98,230.33 280.27,230.91C280.58,231.54 280.89,232.21 281.18,232.91C281.49,233.65 281.79,234.44 282.08,235.24C282.39,236.08 282.69,236.96 282.99,237.85C283.3,238.78 283.59,239.74 283.89,240.7C284.19,241.69 284.49,242.7 284.79,243.71C285.09,244.74 285.4,245.78 285.7,246.81C286,247.84 286.3,248.88 286.6,249.89C286.9,250.88 287.2,251.87 287.51,252.83C287.81,253.75 288.1,254.66 288.41,255.53C288.7,256.35 289.01,257.14 289.32,257.89C289.61,258.58 289.91,259.24 290.22,259.86C290.51,260.43 290.8,260.97 291.12,261.46C291.41,261.91 291.72,262.33 292.03,262.72C292.32,263.08 292.62,263.4 292.93,263.7C293.22,263.98 293.53,264.23 293.84,264.45C294.13,264.66 294.43,264.84 294.74,264.99C295.03,265.14 295.33,265.26 295.64,265.35C295.94,265.43 296.25,265.49 296.55,265.51C296.85,265.53 297.15,265.52 297.45,265.47C297.76,265.42 298.06,265.33 298.36,265.21C298.67,265.08 298.97,264.92 299.26,264.72C299.57,264.51 299.87,264.26 300.16,263.98C300.47,263.68 300.78,263.34 301.07,262.97C301.38,262.58 301.68,262.15 301.97,261.69C302.28,261.2 302.59,260.67 302.88,260.12C303.19,259.53 303.49,258.9 303.78,258.25C304.09,257.56 304.39,256.83 304.68,256.08C304.99,255.29 305.29,254.46 305.59,253.62C305.9,252.74 306.19,251.83 306.49,250.92C306.8,249.98 307.1,249.02 307.4,248.06C307.7,247.08 308,246.09 308.3,245.1C308.6,244.11 308.91,243.11 309.21,242.12C309.51,241.13 309.81,240.14 310.11,239.16C310.41,238.19 310.71,237.23 311.01,236.28C311.31,235.34 311.61,234.41 311.92,233.49C312.22,232.59 312.51,231.71 312.82,230.84C313.12,230 313.42,229.16 313.73,228.35C314.03,227.56 314.32,226.78 314.63,226.03C314.92,225.31 315.22,224.6 315.53,223.92C315.82,223.27 316.13,222.64 316.44,222.05C316.73,221.49 317.03,220.95 317.34,220.45C317.63,219.99 317.93,219.55 318.25,219.16C318.54,218.81 318.83,218.48 319.15,218.22C319.44,217.99 319.74,217.77 320.05,217.65C320.34,217.54 320.66,217.48 320.96,217.5C321.26,217.52 321.57,217.62 321.86,217.78C322.18,217.95 322.48,218.24 322.77,218.54C323.09,218.88 323.38,219.31 323.67,219.77C323.99,220.28 324.29,220.87 324.58,221.49C324.9,222.17 325.19,222.92 325.48,223.7C325.79,224.55 326.09,225.46 326.38,226.39C326.69,227.39 327,228.45 327.29,229.53C327.6,230.68 327.9,231.88 328.19,233.1C328.5,234.38 328.8,235.7 329.1,237.04C329.41,238.43 329.7,239.86 330,241.3C330.3,242.78 330.6,244.29 330.9,245.81C331.2,247.36 331.51,248.93 331.81,250.49C332.11,252.06 332.41,253.65 332.71,255.22C333.01,256.78 333.32,258.35 333.62,259.9C333.92,261.42 334.21,262.94 334.52,264.41C334.81,265.83 335.11,267.25 335.42,268.6C335.71,269.88 336.01,271.14 336.33,272.31C336.62,273.36 336.88,274.44 337.23,275.29C337.5,275.96 337.77,276.93 338.14,277.03C338.41,277.11 338.79,276.83 339.04,276.49C339.51,275.87 339.67,274.31 339.95,273C340.29,271.37 340.56,269.38 340.85,267.43C341.17,265.29 341.46,262.99 341.75,260.69C342.06,258.27 342.36,255.75 342.66,253.23C342.97,250.63 343.26,247.98 343.56,245.32C343.86,242.62 344.17,239.88 344.47,237.15C344.77,234.4 345.07,231.64 345.37,228.89C345.67,226.15 345.97,223.4 346.27,220.68C346.57,217.99 346.88,215.3 347.18,212.65C347.48,210.05 347.77,207.46 348.08,204.91C348.38,202.43 348.68,199.96 348.99,197.55C349.29,195.22 349.58,192.91 349.89,190.67C350.18,188.52 350.48,186.4 350.79,184.35C351.08,182.4 351.39,180.48 351.7,178.64C351.99,176.91 352.29,175.23 352.6,173.62C352.89,172.13 353.19,170.69 353.51,169.33C353.8,168.1 354.09,166.91 354.41,165.82C354.7,164.86 354.99,163.93 355.32,163.12C355.6,162.43 355.88,161.77 356.22,161.26C356.49,160.85 356.78,160.44 357.12,160.25C357.4,160.1 357.74,160.03 358.03,160.1C358.35,160.18 358.66,160.5 358.93,160.82C359.27,161.22 359.56,161.8 359.84,162.4C360.17,163.11 360.46,163.94 360.74,164.81C361.06,165.8 361.35,166.9 361.64,168.04C361.96,169.3 362.26,170.65 362.55,172.04C362.86,173.55 363.16,175.14 363.45,176.77C363.76,178.51 364.07,180.33 364.36,182.18C364.67,184.13 364.97,186.14 365.26,188.19C365.57,190.32 365.86,192.51 366.16,194.72C366.47,197 366.77,199.33 367.07,201.68C367.38,204.08 367.67,206.52 367.97,208.96C368.27,211.42 368.58,213.91 368.88,216.37C369.18,218.8 369.47,221.28 369.78,223.64C370.07,225.88 370.34,228.22 370.68,230.18C370.96,231.79 371.12,233.69 371.59,234.56C371.84,235.03 372.21,235.49 372.49,235.46C372.82,235.42 373.12,234.58 373.4,234.02C373.74,233.32 374.01,232.41 374.3,231.53C374.62,230.56 374.92,229.5 375.21,228.43C375.52,227.29 375.82,226.1 376.11,224.89C376.42,223.62 376.71,222.3 377.01,220.97C377.32,219.59 377.62,218.16 377.92,216.73C378.23,215.26 378.52,213.75 378.82,212.24C379.12,210.7 379.43,209.13 379.73,207.56C380.03,205.98 380.33,204.39 380.63,202.81C380.93,201.23 381.23,199.64 381.53,198.07C381.83,196.52 382.13,194.98 382.44,193.46C382.74,191.98 383.03,190.51 383.34,189.07C383.64,187.68 383.94,186.31 384.25,184.98C384.54,183.72 384.84,182.48 385.15,181.29C385.44,180.17 385.74,179.08 386.05,178.05C386.34,177.1 386.64,176.17 386.96,175.32C387.25,174.55 387.54,173.81 387.86,173.16C388.14,172.59 388.44,172.04 388.77,171.61C389.05,171.24 389.34,170.89 389.67,170.69C389.95,170.52 390.28,170.4 390.58,170.42C390.88,170.44 391.2,170.6 391.48,170.81C391.81,171.06 392.1,171.46 392.38,171.88C392.71,172.37 393.01,172.96 393.29,173.59C393.61,174.3 393.9,175.11 394.19,175.95C394.51,176.87 394.81,177.87 395.1,178.9C395.41,180.02 395.71,181.2 396,182.41C396.31,183.7 396.61,185.04 396.9,186.41C397.21,187.84 397.51,189.33 397.81,190.82C398.12,192.36 398.41,193.93 398.71,195.5C399.01,197.08 399.31,198.69 399.62,200.26C399.92,201.79 400.21,203.36 400.52,204.8C400.81,206.12 401.08,207.49 401.42,208.58C401.69,209.45 401.92,210.47 402.33,210.88C402.59,211.14 402.96,211.31 403.23,211.23C403.58,211.12 403.87,210.44 404.14,209.92C404.48,209.27 404.75,208.4 405.04,207.58C405.36,206.68 405.65,205.7 405.95,204.73C406.26,203.72 406.55,202.66 406.85,201.62C407.15,200.56 407.45,199.49 407.75,198.43C408.05,197.37 408.36,196.3 408.66,195.25C408.96,194.2 409.26,193.16 409.56,192.13C409.86,191.12 410.16,190.12 410.47,189.13C410.77,188.17 411.07,187.21 411.37,186.28C411.67,185.38 411.96,184.49 412.27,183.62C412.57,182.79 412.87,181.97 413.18,181.18C413.47,180.43 413.77,179.7 414.08,179.01C414.37,178.36 414.68,177.72 414.99,177.13C415.28,176.58 415.57,176.05 415.89,175.57C416.18,175.13 416.47,174.72 416.79,174.37C417.08,174.06 417.38,173.76 417.7,173.56C417.99,173.38 418.29,173.23 418.6,173.17C418.9,173.12 419.22,173.13 419.51,173.22C419.82,173.31 420.13,173.51 420.41,173.73C420.73,173.99 421.03,174.33 421.32,174.71C421.64,175.14 421.93,175.65 422.22,176.18C422.54,176.78 422.83,177.44 423.12,178.13C423.44,178.89 423.74,179.71 424.03,180.56C424.34,181.48 424.64,182.46 424.93,183.47C425.24,184.55 425.55,185.68 425.84,186.84C426.15,188.07 426.45,189.35 426.74,190.65C427.05,192.02 427.34,193.42 427.64,194.86C427.95,196.36 428.25,197.91 428.55,199.47C428.86,201.09 429.15,202.74 429.45,204.41C429.76,206.13 430.06,207.89 430.36,209.66C430.67,211.47 430.96,213.32 431.26,215.17C431.56,217.06 431.86,218.97 432.16,220.89C432.46,222.83 432.77,224.79 433.07,226.75C433.37,228.73 433.67,230.72 433.97,232.7C434.27,234.68 434.58,236.67 434.88,238.64C435.18,240.59 435.48,242.56 435.78,244.48C436.08,246.35 436.37,248.24 436.68,250.03C436.97,251.72 437.26,253.45 437.59,254.95C437.87,256.23 438.1,257.61 438.49,258.5C438.75,259.1 439.04,259.78 439.4,259.9C439.67,259.99 440.02,259.78 440.3,259.59C440.64,259.36 440.92,258.91 441.21,258.53C441.52,258.12 441.81,257.66 442.11,257.21C442.41,256.75 442.71,256.28 443.01,255.82C443.31,255.36 443.61,254.89 443.92,254.44C444.22,254 444.51,253.56 444.82,253.14C445.12,252.73 445.42,252.32 445.73,251.93C446.03,251.56 446.32,251.2 446.63,250.86C446.92,250.54 447.22,250.23 447.53,249.96C447.82,249.7 448.13,249.45 448.44,249.25C448.73,249.06 449.03,248.89 449.34,248.77C449.64,248.65 449.94,248.55 450.25,248.51C450.55,248.47 450.85,248.48 451.15,248.52C451.45,248.56 451.76,248.65 452.05,248.78C452.36,248.91 452.67,249.1 452.96,249.31C453.27,249.53 453.57,249.81 453.86,250.1C454.17,250.41 454.48,250.76 454.77,251.12C455.08,251.5 455.37,251.92 455.67,252.35C455.98,252.8 456.28,253.27 456.58,253.75C456.89,254.24 457.18,254.75 457.48,255.26C457.78,255.77 458.08,256.31 458.38,256.82C458.68,257.33 458.98,257.84 459.29,258.33C459.59,258.8 459.88,259.27 460.19,259.69C460.48,260.08 460.78,260.47 461.1,260.79Q461.39,261.07 462,261.52" style="vector-effect: non-scaling-stroke; fill: none; stroke: rgb(231, 107, 243); stroke-opacity: 1; stroke-width: 2px; opacity: 1;"/></g><g class="points"/><g class="text"/></g></g></g><g class="overplot"/><path class="xlines-above crisp" d="M0,0" style="fill: none;"/><path class="ylines-above crisp" d="M0,0" style="fill: none;"/><g class="overlines-above"/><g class="xaxislayer-above"><g class="xtick"><text text-anchor="middle" x="0" y="433" transform="translate(80,0)" style="font-family: 'Open Sans', verdana, arial, sans-serif; font-size: 12px; fill: rgb(42, 63, 95); fill-opacity: 1; white-space: pre;">0</text></g><g class="xtick"><text text-anchor="middle" x="0" y="433" transform="translate(170.23000000000002,0)" style="font-family: 'Open Sans', verdana, arial, sans-serif; font-size: 12px; fill: rgb(42, 63, 95); fill-opacity: 1; white-space: pre;">100</text></g><g class="xtick"><text text-anchor="middle" x="0" y="433" transform="translate(260.47,0)" style="font-family: 'Open Sans', verdana, arial, sans-serif; font-size: 12px; fill: rgb(42, 63, 95); fill-opacity: 1; white-space: pre;">200</text></g><g class="xtick"><text text-anchor="middle" x="0" y="433" transform="translate(350.7,0)" style="font-family: 'Open Sans', verdana, arial, sans-serif; font-size: 12px; fill: rgb(42, 63, 95); fill-opacity: 1; white-space: pre;">300</text></g><g class="xtick"><text text-anchor="middle" x="0" y="433" transform="translate(440.94,0)" style="font-family: 'Open Sans', verdana, arial, sans-serif; font-size: 12px; fill: rgb(42, 63, 95); fill-opacity: 1; white-space: pre;">400</text></g><g class="xtick"><text text-anchor="middle" x="0" y="433" transform="translate(531.1700000000001,0)" style="font-family: 'Open Sans', verdana, arial, sans-serif; font-size: 12px; fill: rgb(42, 63, 95); fill-opacity: 1; white-space: pre;">500</text></g></g><g class="yaxislayer-above"><g class="ytick"><text text-anchor="end" x="79" y="4.199999999999999" transform="translate(0,395.25)" style="font-family: 'Open Sans', verdana, arial, sans-serif; font-size: 12px; fill: rgb(42, 63, 95); fill-opacity: 1; white-space: pre;">10</text></g><g class="ytick"><text text-anchor="end" x="79" y="4.199999999999999" transform="translate(0,341.95)" style="font-family: 'Open Sans', verdana, arial, sans-serif; font-size: 12px; fill: rgb(42, 63, 95); fill-opacity: 1; white-space: pre;">20</text></g><g class="ytick"><text text-anchor="end" x="79" y="4.199999999999999" transform="translate(0,288.65999999999997)" style="font-family: 'Open Sans', verdana, arial, sans-serif; font-size: 12px; fill: rgb(42, 63, 95); fill-opacity: 1; white-space: pre;">30</text></g><g class="ytick"><text text-anchor="end" x="79" y="4.199999999999999" transform="translate(0,235.36)" style="font-family: 'Open Sans', verdana, arial, sans-serif; font-size: 12px; fill: rgb(42, 63, 95); fill-opacity: 1; white-space: pre;">40</text></g><g class="ytick"><text text-anchor="end" x="79" y="4.199999999999999" transform="translate(0,182.06)" style="font-family: 'Open Sans', verdana, arial, sans-serif; font-size: 12px; fill: rgb(42, 63, 95); fill-opacity: 1; white-space: pre;">50</text></g><g class="ytick"><text text-anchor="end" x="79" y="4.199999999999999" transform="translate(0,128.77)" style="font-family: 'Open Sans', verdana, arial, sans-serif; font-size: 12px; fill: rgb(42, 63, 95); fill-opacity: 1; white-space: pre;">60</text></g></g><g class="overaxes-above"/></g></g><g class="polarlayer"/><g class="ternarylayer"/><g class="geolayer"/><g class="funnelarealayer"/><g class="pielayer"/><g class="treemaplayer"/><g class="sunburstlayer"/><g class="glimages"/><defs id="topdefs-eff1a0"><g class="clips"/><clipPath id="legendeff1a0"><rect width="137" height="67" x="0" y="0"/></clipPath></defs><g class="layer-above"><g class="imagelayer"/><g class="shapelayer"/></g><g class="infolayer"><g class="legend" pointer-events="all" transform="translate(551.24, 100)"><rect class="bg" shape-rendering="crispEdges" style="stroke: rgb(68, 68, 68); stroke-opacity: 1; fill: rgb(255, 255, 255); fill-opacity: 1; stroke-width: 0px;" width="137" height="67" x="0" y="0"/><g class="scrollbox" transform="translate(0, 0)" clip-path="url('#legendeff1a0')"><g class="groups"><g class="traces" transform="translate(0, 14.5)" style="opacity: 1;"><text class="legendtext" text-anchor="start" x="40" y="4.680000000000001" style="font-family: 'Open Sans', verdana, arial, sans-serif; font-size: 12px; fill: rgb(42, 63, 95); fill-opacity: 1; white-space: pre;">Average Class I</text><g class="layers" style="opacity: 1;"><g class="legendfill"/><g class="legendlines"><path class="js-line" d="M5,0h30" style="fill: none; stroke: rgb(0, 100, 80); stroke-opacity: 1; stroke-width: 2px;"/></g><g class="legendsymbols"><g class="legendpoints"/></g></g><rect class="legendtoggle" x="0" y="-9.5" width="131.15625" height="19" style="fill: rgb(0, 0, 0); fill-opacity: 0;"/></g><g class="traces" transform="translate(0, 33.5)" style="opacity: 1;"><text class="legendtext" text-anchor="start" x="40" y="4.680000000000001" style="font-family: 'Open Sans', verdana, arial, sans-serif; font-size: 12px; fill: rgb(42, 63, 95); fill-opacity: 1; white-space: pre;">Average Class II</text><g class="layers" style="opacity: 1;"><g class="legendfill"/><g class="legendlines"><path class="js-line" d="M5,0h30" style="fill: none; stroke: rgb(0, 176, 246); stroke-opacity: 1; stroke-width: 2px;"/></g><g class="legendsymbols"><g class="legendpoints"/></g></g><rect class="legendtoggle" x="0" y="-9.5" width="131.15625" height="19" style="fill: rgb(0, 0, 0); fill-opacity: 0;"/></g><g class="traces" transform="translate(0, 52.5)" style="opacity: 1;"><text class="legendtext" text-anchor="start" x="40" y="4.680000000000001" style="font-family: 'Open Sans', verdana, arial, sans-serif; font-size: 12px; fill: rgb(42, 63, 95); fill-opacity: 1; white-space: pre;">Average Class III</text><g class="layers" style="opacity: 1;"><g class="legendfill"/><g class="legendlines"><path class="js-line" d="M5,0h30" style="fill: none; stroke: rgb(231, 107, 243); stroke-opacity: 1; stroke-width: 2px;"/></g><g class="legendsymbols"><g class="legendpoints"/></g></g><rect class="legendtoggle" x="0" y="-9.5" width="131.15625" height="19" style="fill: rgb(0, 0, 0); fill-opacity: 0;"/></g></g></g><rect class="scrollbar" rx="20" ry="3" width="0" height="0" style="fill: rgb(128, 139, 164); fill-opacity: 1;" x="0" y="0"/></g><g class="g-gtitle"><text class="gtitle" x="35" y="50" text-anchor="start" dy="0em" style="font-family: 'Open Sans', verdana, arial, sans-serif; font-size: 17px; fill: rgb(42, 63, 95); opacity: 1; font-weight: normal; white-space: pre;">Average curve: alpha-structure_group</text></g><g class="g-xtitle"><text class="xtitle" x="311" y="460.8" text-anchor="middle" style="font-family: 'Open Sans', verdana, arial, sans-serif; font-size: 14px; fill: rgb(42, 63, 95); opacity: 1; font-weight: normal; white-space: pre;">Domain</text></g><g class="g-ytitle"><text class="ytitle" transform="rotate(-90,40.840625,260)" x="40.840625" y="260" text-anchor="middle" style="font-family: 'Open Sans', verdana, arial, sans-serif; font-size: 14px; fill: rgb(42, 63, 95); opacity: 1; font-weight: normal; white-space: pre;">Frequency</text></g></g></svg>