<svg class="main-svg" xmlns="http://www.w3.org/2000/svg" xmlns:xlink="http://www.w3.org/1999/xlink" width="700" height="500" style="" viewBox="0 0 700 500"><rect x="0" y="0" width="700" height="500" style="fill: rgb(255, 255, 255); fill-opacity: 1;"/><defs id="defs-c655ad"><g class="clips"><clipPath id="clipc655adxyplot" class="plotclip"><rect width="462" height="320"/></clipPath><clipPath class="axesclip" id="clipc655adx"><rect x="80" y="0" width="462" height="500"/></clipPath><clipPath class="axesclip" id="clipc655ady"><rect x="0" y="100" width="700" height="320"/></clipPath><clipPath class="axesclip" id="clipc655adxy"><rect x="80" y="100" width="462" height="320"/></clipPath></g><g class="gradients"/></defs><g class="bglayer"><rect class="bg" x="80" y="100" width="462" height="320" style="fill: rgb(229, 236, 246); fill-opacity: 1; stroke-width: 0;"/></g><g class="layer-below"><g class="imagelayer"/><g class="shapelayer"/></g><g class="cartesianlayer"><g class="subplot xy"><g class="layer-subplot"><g class="shapelayer"/><g class="imagelayer"/></g><g class="gridlayer"><g class="x"><path class="xgrid crisp" transform="translate(170.23000000000002,0)" d="M0,100v320" style="stroke: rgb(255, 255, 255); stroke-opacity: 1; stroke-width: 1px;"/><path class="xgrid crisp" transform="translate(260.47,0)" d="M0,100v320" style="stroke: rgb(255, 255, 255); stroke-opacity: 1; stroke-width: 1px;"/><path class="xgrid crisp" transform="translate(350.7,0)" d="M0,100v320" style="stroke: rgb(255, 255, 255); stroke-opacity: 1; stroke-width: 1px;"/><path class="xgrid crisp" transform="translate(440.94,0)" d="M0,100v320" style="stroke: rgb(255, 255, 255); stroke-opacity: 1; stroke-width: 1px;"/><path class="xgrid crisp" transform="translate(531.1700000000001,0)" d="M0,100v320" style="stroke: rgb(255, 255, 255); stroke-opacity: 1; stroke-width: 1px;"/></g><g class="y"><path class="ygrid crisp" transform="translate(0,377.14)" d="M80,0h462" style="stroke: rgb(255, 255, 255); stroke-opacity: 1; stroke-width: 1px;"/><path class="ygrid crisp" transform="translate(0,319.76)" d="M80,0h462" style="stroke: rgb(255, 255, 255); stroke-opacity: 1; stroke-width: 1px;"/><path class="ygrid crisp" transform="translate(0,262.39)" d="M80,0h462" style="stroke: rgb(255, 255, 255); stroke-opacity: 1; stroke-width: 1px;"/><path class="ygrid crisp" transform="translate(0,205.01)" d="M80,0h462" style="stroke: rgb(255, 255, 255); stroke-opacity: 1; stroke-width: 1px;"/><path class="ygrid crisp" transform="translate(0,147.63)" d="M80,0h462" style="stroke: rgb(255, 255, 255); stroke-opacity: 1; stroke-width: 1px;"/></g></g><g class="zerolinelayer"><path class="xzl zl crisp" transform="translate(80,0)" d="M0,100v320" style="stroke: rgb(255, 255, 255); stroke-opacity: 1; stroke-width: 2px;"/></g><path class="xlines-below"/><path class="ylines-below"/><g class="overlines-below"/><g class="xaxislayer-below"/><g class="yaxislayer-below"/><g class="overaxes-below"/><g class="plot" transform="translate(80, 100)" clip-path="url('#clipc655adxyplot')"><g class="scatterlayer mlayer"><g class="trace scatter trace7cd982" style="stroke-miterlimit: 2; opacity: 1;"><g class="fills"/><g class="errorbars"/><g class="lines"><path class="js-line" d="M0,48.78Q0.61,48.83 0.9,48.93C1.21,49.03 1.52,49.2 1.81,49.4C2.12,49.61 2.42,49.88 2.71,50.18C3.03,50.5 3.33,50.88 3.62,51.28C3.94,51.72 4.23,52.21 4.52,52.73C4.83,53.29 5.13,53.9 5.42,54.54C5.73,55.23 6.04,55.96 6.33,56.73C6.64,57.55 6.94,58.42 7.23,59.32C7.54,60.28 7.85,61.29 8.14,62.33C8.45,63.44 8.75,64.59 9.04,65.78C9.35,67.04 9.66,68.34 9.95,69.68C10.26,71.09 10.56,72.54 10.85,74.03C11.16,75.6 11.45,77.21 11.75,78.86C12.06,80.58 12.36,82.35 12.66,84.15C12.97,86.03 13.26,87.95 13.56,89.9C13.87,91.93 14.17,94 14.47,96.11C14.78,98.29 15.07,100.5 15.37,102.75C15.67,105.06 15.97,107.41 16.27,109.79C16.58,112.23 16.88,114.7 17.18,117.19C17.49,119.74 17.78,122.32 18.08,124.92C18.38,127.56 18.69,130.23 18.99,132.91C19.29,135.62 19.59,138.36 19.89,141.1C20.19,143.86 20.49,146.64 20.79,149.41C21.09,152.19 21.4,154.98 21.7,157.75C22,160.51 22.3,163.27 22.6,166.01C22.9,168.72 23.21,171.42 23.51,174.08C23.81,176.69 24.1,179.29 24.41,181.83C24.71,184.3 25.01,186.74 25.32,189.12C25.62,191.4 25.91,193.65 26.22,195.81C26.51,197.84 26.8,199.84 27.12,201.73C27.41,203.46 27.71,205.16 28.03,206.71C28.32,208.08 28.6,209.42 28.93,210.57C29.21,211.53 29.48,212.47 29.84,213.17C30.11,213.7 30.38,214.27 30.74,214.48C31.01,214.63 31.36,214.66 31.64,214.55C31.98,214.41 32.28,213.93 32.55,213.5C32.9,212.96 33.17,212.22 33.45,211.49C33.78,210.64 34.07,209.67 34.36,208.67C34.68,207.57 34.97,206.39 35.26,205.17C35.57,203.83 35.87,202.41 36.16,200.96C36.47,199.41 36.77,197.77 37.07,196.14C37.38,194.47 37.67,192.77 37.97,191.08C38.27,189.38 38.58,187.67 38.88,185.95C39.18,184.2 39.48,182.41 39.78,180.67C40.08,178.96 40.37,177.25 40.68,175.59C40.98,174 41.28,172.43 41.59,170.91C41.88,169.47 42.18,168.06 42.49,166.71C42.78,165.45 43.08,164.22 43.4,163.06C43.69,161.99 43.98,160.96 44.3,160.01C44.59,159.15 44.89,158.32 45.21,157.58C45.49,156.94 45.78,156.32 46.11,155.82C46.39,155.4 46.68,154.98 47.01,154.73C47.29,154.52 47.61,154.35 47.92,154.33C48.22,154.31 48.54,154.44 48.82,154.62C49.15,154.83 49.45,155.21 49.73,155.6C50.06,156.06 50.35,156.65 50.63,157.26C50.95,157.96 51.24,158.76 51.53,159.59C51.85,160.51 52.15,161.52 52.44,162.56C52.76,163.69 53.05,164.9 53.34,166.14C53.65,167.47 53.96,168.88 54.25,170.31C54.56,171.83 54.86,173.4 55.15,175.01C55.46,176.7 55.75,178.44 56.05,180.21C56.36,182.05 56.66,183.93 56.96,185.84C57.27,187.8 57.56,189.81 57.86,191.83C58.16,193.89 58.47,195.98 58.77,198.08C59.07,200.2 59.37,202.35 59.67,204.49C59.97,206.64 60.28,208.79 60.58,210.94C60.88,213.08 61.18,215.23 61.48,217.36C61.78,219.48 62.08,221.6 62.38,223.71C62.68,225.8 62.99,227.89 63.29,229.97C63.59,232.03 63.89,234.08 64.19,236.11C64.49,238.11 64.79,240.1 65.1,242.06C65.4,243.97 65.69,245.87 66,247.73C66.29,249.52 66.59,251.31 66.9,253.01C67.19,254.6 67.49,256.18 67.81,257.61C68.09,258.87 68.38,260.07 68.71,261.13C68.99,262.03 69.26,262.93 69.62,263.59C69.89,264.09 70.17,264.63 70.52,264.81C70.79,264.95 71.14,264.94 71.42,264.83C71.75,264.7 72.05,264.3 72.33,263.93C72.66,263.49 72.94,262.92 73.23,262.34C73.55,261.69 73.85,260.96 74.14,260.22C74.45,259.44 74.74,258.6 75.04,257.77C75.35,256.92 75.65,256.03 75.95,255.16C76.25,254.28 76.55,253.39 76.85,252.51C77.15,251.64 77.45,250.77 77.75,249.91C78.05,249.07 78.35,248.23 78.66,247.41C78.96,246.61 79.25,245.82 79.56,245.06C79.86,244.33 80.16,243.62 80.47,242.93C80.76,242.28 81.06,241.64 81.37,241.04C81.66,240.48 81.96,239.95 82.27,239.43C82.57,238.93 82.86,238.42 83.18,237.98C83.47,237.58 83.76,237.18 84.08,236.87C84.37,236.59 84.67,236.33 84.99,236.16C85.28,236.01 85.59,235.9 85.89,235.88C86.19,235.86 86.5,235.92 86.79,236.04C87.11,236.17 87.41,236.4 87.7,236.66C88.02,236.95 88.31,237.32 88.6,237.71C88.92,238.15 89.22,238.65 89.51,239.17C89.83,239.74 90.12,240.36 90.41,241C90.72,241.69 91.03,242.43 91.32,243.18C91.63,243.98 91.93,244.82 92.22,245.67C92.53,246.57 92.82,247.51 93.12,248.44C93.42,249.37 93.73,250.31 94.03,251.24C94.33,252.17 94.63,253.08 94.93,254.01C95.23,254.95 95.54,255.9 95.84,256.83C96.14,257.74 96.44,258.65 96.74,259.54C97.04,260.4 97.33,261.25 97.64,262.07C97.94,262.86 98.23,263.67 98.55,264.37C98.84,265 99.13,265.58 99.45,266.1C99.74,266.56 100.03,267.01 100.36,267.33C100.64,267.6 100.95,267.88 101.26,267.94C101.55,267.99 101.88,267.89 102.16,267.73C102.49,267.54 102.78,267.12 103.07,266.75C103.39,266.33 103.68,265.82 103.97,265.32C104.28,264.79 104.59,264.22 104.88,263.64C105.19,263.03 105.49,262.38 105.78,261.72C106.09,261.03 106.38,260.3 106.68,259.57C106.99,258.82 107.29,258.05 107.59,257.3C107.89,256.55 108.18,255.8 108.49,255.07C108.79,254.36 109.09,253.65 109.4,252.97C109.7,252.32 109.99,251.68 110.3,251.06C110.6,250.47 110.9,249.89 111.21,249.34C111.5,248.81 111.8,248.3 112.11,247.82C112.4,247.36 112.7,246.93 113.01,246.52C113.3,246.14 113.61,245.77 113.92,245.44C114.21,245.14 114.51,244.85 114.82,244.62C115.11,244.4 115.42,244.21 115.73,244.07C116.02,243.94 116.33,243.84 116.63,243.78C116.93,243.72 117.23,243.71 117.53,243.7C117.83,243.69 118.14,243.69 118.44,243.71C118.74,243.73 119.04,243.75 119.34,243.8C119.64,243.85 119.95,243.91 120.25,244C120.55,244.09 120.85,244.21 121.15,244.34C121.45,244.47 121.75,244.63 122.05,244.79C122.36,244.96 122.66,245.15 122.96,245.33C123.26,245.52 123.56,245.71 123.86,245.9C124.16,246.09 124.47,246.29 124.77,246.47C125.07,246.65 125.37,246.83 125.67,246.98C125.97,247.13 126.27,247.28 126.58,247.39C126.88,247.5 127.18,247.59 127.48,247.64C127.78,247.69 128.08,247.72 128.38,247.69C128.68,247.66 128.99,247.59 129.29,247.48C129.6,247.37 129.9,247.21 130.19,247.03C130.5,246.84 130.81,246.63 131.1,246.37C131.41,246.09 131.71,245.77 132,245.41C132.32,245.02 132.6,244.53 132.9,244.09C133.2,243.64 133.51,243.18 133.81,242.73C134.11,242.28 134.41,241.82 134.71,241.37C135.01,240.92 135.32,240.48 135.62,240.04C135.92,239.61 136.22,239.2 136.52,238.77C136.82,238.34 137.12,237.91 137.42,237.48C137.72,237.05 138.02,236.62 138.33,236.21C138.63,235.82 138.92,235.42 139.23,235.07C139.52,234.73 139.83,234.42 140.14,234.13C140.43,233.86 140.73,233.61 141.04,233.4C141.33,233.21 141.64,233.04 141.95,232.92C142.24,232.81 142.55,232.72 142.85,232.7C143.15,232.68 143.45,232.7 143.75,232.77C144.06,232.84 144.37,232.98 144.66,233.15C144.97,233.33 145.27,233.57 145.56,233.83C145.88,234.12 146.18,234.46 146.47,234.83C146.78,235.23 147.08,235.67 147.37,236.13C147.68,236.63 147.98,237.17 148.27,237.73C148.58,238.33 148.89,238.96 149.18,239.61C149.49,240.3 149.78,241.02 150.08,241.75C150.39,242.52 150.69,243.31 150.99,244.11C151.3,244.94 151.59,245.8 151.89,246.67C152.19,247.56 152.49,248.47 152.79,249.38C153.09,250.3 153.4,251.22 153.7,252.14C154,253.05 154.3,253.97 154.6,254.87C154.9,255.76 155.2,256.65 155.51,257.52C155.81,258.36 156.1,259.2 156.41,259.98C156.7,260.71 157,261.42 157.32,262.06C157.61,262.63 157.91,263.15 158.22,263.65C158.51,264.13 158.81,264.57 159.12,265.01C159.42,265.44 159.72,265.86 160.03,266.25C160.32,266.62 160.62,266.99 160.93,267.32C161.23,267.64 161.53,267.93 161.84,268.22C162.14,268.5 162.44,268.78 162.74,269.05C163.04,269.32 163.34,269.58 163.64,269.84C163.94,270.1 164.25,270.35 164.55,270.6C164.85,270.84 165.14,271.09 165.45,271.31C165.75,271.52 166.05,271.72 166.36,271.9C166.66,272.07 166.96,272.24 167.26,272.37C167.56,272.5 167.86,272.6 168.16,272.68C168.46,272.76 168.77,272.82 169.07,272.87C169.37,272.92 169.67,272.95 169.97,272.96C170.27,272.97 170.58,272.96 170.88,272.9C171.19,272.84 171.49,272.72 171.78,272.57C172.09,272.41 172.39,272.2 172.68,271.94C173,271.65 173.3,271.27 173.59,270.88C173.91,270.45 174.2,269.96 174.49,269.44C174.81,268.86 175.12,268.26 175.4,267.55C175.73,266.71 176.01,265.7 176.3,264.69C176.62,263.56 176.92,262.31 177.21,261.06C177.52,259.73 177.82,258.36 178.11,256.95C178.42,255.45 178.72,253.89 179.01,252.31C179.32,250.65 179.62,248.94 179.92,247.21C180.23,245.44 180.52,243.62 180.82,241.81C181.12,239.98 181.43,238.12 181.73,236.27C182.03,234.41 182.33,232.55 182.63,230.69C182.93,228.83 183.23,226.97 183.53,225.12C183.83,223.29 184.14,221.46 184.44,219.65C184.74,217.86 185.04,216.08 185.34,214.32C185.64,212.6 185.94,210.88 186.25,209.2C186.55,207.56 186.85,205.93 187.15,204.34C187.45,202.8 187.74,201.27 188.05,199.79C188.35,198.37 188.65,196.97 188.96,195.61C189.25,194.32 189.55,193.05 189.86,191.84C190.15,190.7 190.46,189.59 190.77,188.54C191.06,187.57 191.35,186.62 191.67,185.74C191.96,184.94 192.26,184.16 192.58,183.47C192.87,182.86 193.15,182.27 193.48,181.78C193.76,181.36 194.05,180.96 194.38,180.69C194.66,180.46 194.98,180.27 195.29,180.22C195.58,180.18 195.91,180.25 196.19,180.39C196.52,180.55 196.82,180.88 197.1,181.22C197.43,181.63 197.72,182.16 198,182.71C198.32,183.35 198.61,184.08 198.9,184.85C199.22,185.71 199.52,186.66 199.81,187.65C200.13,188.73 200.42,189.89 200.71,191.08C201.02,192.37 201.33,193.73 201.62,195.13C201.93,196.62 202.23,198.17 202.52,199.75C202.83,201.42 203.12,203.14 203.42,204.9C203.73,206.73 204.03,208.62 204.33,210.53C204.64,212.51 204.93,214.53 205.23,216.57C205.54,218.66 205.84,220.79 206.14,222.92C206.44,225.09 206.74,227.28 207.04,229.47C207.34,231.66 207.64,233.89 207.95,236.05C208.25,238.16 208.55,240.22 208.85,242.3C209.15,244.36 209.45,246.42 209.75,248.47C210.05,250.49 210.36,252.52 210.66,254.51C210.96,256.46 211.26,258.4 211.56,260.31C211.86,262.18 212.16,264.05 212.47,265.87C212.77,267.64 213.06,269.41 213.37,271.09C213.66,272.66 213.94,274.26 214.27,275.65C214.55,276.84 214.84,277.98 215.18,278.94C215.46,279.72 215.73,280.48 216.08,281.02C216.35,281.44 216.65,281.85 216.99,282C217.27,282.12 217.61,282.12 217.89,282C218.22,281.85 218.52,281.44 218.79,281.03C219.14,280.51 219.42,279.76 219.7,279.04C220.03,278.21 220.32,277.33 220.6,276.31C220.94,275.05 221.21,273.47 221.51,272.03C221.81,270.56 222.11,269.06 222.41,267.57C222.71,266.07 223.02,264.56 223.32,263.05C223.62,261.55 223.92,260.04 224.22,258.54C224.52,257.05 224.82,255.56 225.12,254.09C225.42,252.65 225.72,251.22 226.03,249.82C226.33,248.45 226.62,247.1 226.93,245.78C227.23,244.49 227.53,243.23 227.84,241.98C228.14,240.77 228.44,239.61 228.74,238.42C229.04,237.24 229.34,236.07 229.64,234.87C229.95,233.63 230.25,232.36 230.55,231.07C230.86,229.73 231.16,228.38 231.45,226.98C231.76,225.52 232.07,224.03 232.36,222.48C232.67,220.82 232.97,219.1 233.26,217.33C233.57,215.46 233.87,213.53 234.16,211.55C234.47,209.47 234.77,207.32 235.07,205.14C235.38,202.88 235.67,200.56 235.97,198.21C236.28,195.79 236.58,193.33 236.88,190.84C237.19,188.28 237.48,185.68 237.78,183.05C238.08,180.35 238.38,177.61 238.68,174.84C238.99,172 239.29,169.12 239.59,166.21C239.9,163.22 240.19,160.2 240.49,157.12C240.8,153.94 241.1,150.72 241.4,147.44C241.71,144.06 242,140.59 242.3,137.12C242.6,133.58 242.91,129.98 243.21,126.39C243.51,122.78 243.81,119.13 244.11,115.51C244.41,111.9 244.71,108.28 245.01,104.7C245.31,101.15 245.62,97.62 245.92,94.12C246.22,90.68 246.51,87.27 246.82,83.9C247.12,80.61 247.42,77.34 247.73,74.13C248.03,71.01 248.32,67.92 248.63,64.9C248.92,61.98 249.22,59.11 249.53,56.3C249.83,53.61 250.13,50.96 250.44,48.39C250.73,45.95 251.03,43.55 251.34,41.24C251.63,39.06 251.94,36.93 252.25,34.89C252.54,32.99 252.84,31.15 253.15,29.41C253.44,27.81 253.73,26.27 254.05,24.83C254.34,23.54 254.63,22.3 254.96,21.18C255.24,20.21 255.52,19.28 255.86,18.49C256.14,17.84 256.42,17.2 256.77,16.76C257.04,16.42 257.35,16.08 257.67,16C257.96,15.93 258.31,16.03 258.58,16.21C258.93,16.43 259.21,16.91 259.48,17.38C259.82,17.96 260.1,18.71 260.38,19.48C260.71,20.39 261,21.42 261.29,22.49C261.61,23.69 261.9,25 262.19,26.35C262.51,27.83 262.81,29.41 263.1,31.03C263.41,32.77 263.71,34.6 264,36.47C264.31,38.45 264.61,40.51 264.9,42.6C265.21,44.79 265.51,47.05 265.81,49.34C266.12,51.71 266.41,54.14 266.71,56.6C267.02,59.13 267.32,61.71 267.62,64.3C267.92,66.95 268.22,69.63 268.52,72.33C268.82,75.06 269.12,77.83 269.42,80.59C269.72,83.37 270.03,86.16 270.33,88.94C270.63,91.72 270.93,94.52 271.23,97.29C271.53,100.04 271.84,102.78 272.14,105.5C272.44,108.18 272.74,110.86 273.04,113.5C273.34,116.09 273.64,118.65 273.95,121.18C274.25,123.65 274.55,126.09 274.85,128.49C275.15,130.82 275.44,133.12 275.75,135.37C276.05,137.55 276.35,139.7 276.66,141.79C276.96,143.8 277.25,145.78 277.56,147.7C277.86,149.54 278.16,151.35 278.47,153.1C278.76,154.76 279.06,156.38 279.37,157.94C279.66,159.41 279.96,160.84 280.27,162.21C280.56,163.5 280.87,164.75 281.18,165.96C281.47,167.11 281.77,168.22 282.08,169.32C282.38,170.38 282.69,171.41 282.99,172.43C283.29,173.43 283.59,174.42 283.89,175.41C284.19,176.39 284.49,177.36 284.79,178.34C285.09,179.32 285.4,180.3 285.7,181.3C286,182.32 286.3,183.34 286.6,184.38C286.91,185.45 287.21,186.53 287.51,187.64C287.82,188.79 288.11,189.95 288.41,191.15C288.72,192.4 289.02,193.68 289.32,195C289.63,196.38 289.93,197.79 290.22,199.23C290.53,200.74 290.82,202.29 291.12,203.88C291.43,205.54 291.73,207.24 292.03,208.97C292.34,210.77 292.63,212.6 292.93,214.47C293.24,216.4 293.54,218.37 293.84,220.36C294.15,222.4 294.44,224.48 294.74,226.58C295.04,228.72 295.34,230.89 295.64,233.07C295.94,235.27 296.25,237.5 296.55,239.72C296.85,241.95 297.15,244.21 297.45,246.42C297.75,248.59 298.05,250.78 298.36,252.87C298.65,254.86 298.95,256.77 299.26,258.67C299.55,260.5 299.85,262.32 300.16,264.04C300.45,265.65 300.75,267.25 301.07,268.69C301.35,269.96 301.64,271.19 301.97,272.26C302.25,273.16 302.51,274.09 302.88,274.69C303.15,275.12 303.47,275.63 303.78,275.66C304.07,275.69 304.42,275.35 304.68,275.01C305.08,274.47 305.31,273.42 305.59,272.47C305.93,271.31 306.2,269.94 306.49,268.54C306.81,266.96 307.11,265.25 307.4,263.46C307.72,261.46 308.01,259.29 308.3,257.11C308.61,254.79 308.91,252.35 309.21,249.93C309.52,247.45 309.81,244.9 310.11,242.41C310.41,239.95 310.7,237.5 311.01,235.09C311.31,232.74 311.61,230.41 311.92,228.14C312.22,225.95 312.51,223.78 312.82,221.68C313.12,219.67 313.42,217.7 313.73,215.8C314.02,214.01 314.32,212.26 314.63,210.59C314.92,209.03 315.21,207.52 315.53,206.09C315.82,204.78 316.12,203.52 316.44,202.35C316.73,201.3 317.01,200.3 317.34,199.4C317.62,198.62 317.91,197.88 318.25,197.27C318.53,196.77 318.81,196.27 319.15,195.97C319.42,195.73 319.75,195.52 320.05,195.5C320.35,195.48 320.68,195.65 320.96,195.86C321.3,196.12 321.58,196.57 321.86,197.03C322.2,197.58 322.49,198.28 322.77,198.99C323.1,199.81 323.38,200.74 323.67,201.7C323.99,202.77 324.29,203.93 324.58,205.13C324.9,206.43 325.19,207.82 325.48,209.23C325.79,210.74 326.09,212.31 326.38,213.92C326.69,215.61 326.99,217.37 327.29,219.15C327.6,221 327.89,222.9 328.19,224.81C328.5,226.78 328.8,228.79 329.1,230.81C329.4,232.86 329.7,234.94 330,237C330.3,239.05 330.59,241.13 330.9,243.12C331.19,245.01 331.5,246.87 331.81,248.63C332.1,250.26 332.39,251.84 332.71,253.32C333,254.67 333.3,255.97 333.62,257.16C333.91,258.22 334.18,259.25 334.52,260.12C334.8,260.83 335.07,261.54 335.42,262.02C335.69,262.39 336,262.72 336.33,262.85C336.61,262.96 336.94,262.93 337.23,262.87C337.54,262.81 337.85,262.64 338.14,262.46C338.45,262.27 338.75,262.01 339.04,261.74C339.35,261.46 339.65,261.12 339.95,260.8C340.26,260.47 340.55,260.1 340.85,259.77C341.15,259.45 341.44,259.13 341.75,258.85C342.04,258.59 342.35,258.33 342.66,258.14C342.95,257.96 343.25,257.81 343.56,257.73C343.86,257.65 344.17,257.62 344.47,257.66C344.77,257.7 345.08,257.82 345.37,257.96C345.68,258.11 345.96,258.4 346.27,258.57C346.56,258.73 346.88,258.8 347.18,258.94C347.48,259.08 347.79,259.22 348.08,259.41C348.39,259.61 348.7,259.86 348.99,260.12C349.3,260.39 349.6,260.69 349.89,261.02C350.2,261.37 350.5,261.75 350.79,262.16C351.1,262.61 351.41,263.1 351.7,263.61C352.01,264.15 352.3,264.72 352.6,265.3C352.91,265.9 353.21,266.52 353.51,267.16C353.82,267.82 354.11,268.52 354.41,269.21C354.71,269.92 355.02,270.65 355.32,271.36C355.62,272.07 355.92,272.78 356.22,273.47C356.52,274.14 356.81,274.82 357.12,275.45C357.41,276.05 357.71,276.67 358.03,277.19C358.32,277.65 358.59,278.14 358.93,278.45C359.21,278.71 359.53,278.95 359.84,279C360.13,279.05 360.46,278.95 360.74,278.79C361.07,278.6 361.36,278.2 361.64,277.81C361.98,277.33 362.27,276.74 362.55,276.08C362.89,275.26 363.16,274.23 363.45,273.23C363.77,272.13 364.07,270.93 364.36,269.73C364.67,268.47 364.96,267.15 365.26,265.85C365.56,264.52 365.86,263.17 366.16,261.84C366.46,260.51 366.77,259.17 367.07,257.85C367.37,256.55 367.66,255.26 367.97,254C368.27,252.78 368.57,251.57 368.88,250.4C369.17,249.29 369.47,248.2 369.78,247.15C370.07,246.16 370.37,245.2 370.68,244.29C370.97,243.44 371.28,242.62 371.59,241.85C371.88,241.13 372.18,240.45 372.49,239.8C372.78,239.19 373.09,238.61 373.4,238.05C373.69,237.52 373.99,236.99 374.3,236.52C374.59,236.08 374.89,235.66 375.21,235.31C375.5,235 375.79,234.7 376.11,234.5C376.4,234.32 376.7,234.18 377.01,234.14C377.31,234.1 377.63,234.14 377.92,234.23C378.23,234.33 378.53,234.51 378.82,234.73C379.14,234.97 379.44,235.29 379.73,235.64C380.05,236.03 380.34,236.48 380.63,236.96C380.95,237.49 381.24,238.07 381.53,238.68C381.85,239.34 382.14,240.09 382.44,240.79C382.74,241.49 383.04,242.18 383.34,242.89C383.64,243.6 383.94,244.35 384.25,245.05C384.55,245.73 384.85,246.39 385.15,247.05C385.45,247.7 385.74,248.37 386.05,248.99C386.34,249.58 386.65,250.16 386.96,250.69C387.25,251.18 387.54,251.65 387.86,252.07C388.15,252.45 388.43,252.89 388.77,253.12C389.05,253.31 389.38,253.49 389.67,253.44C389.99,253.39 390.31,253.06 390.58,252.74C390.93,252.32 391.2,251.68 391.48,251.03C391.81,250.25 392.09,249.3 392.38,248.36C392.7,247.32 393,246.18 393.29,245.03C393.6,243.81 393.9,242.55 394.19,241.23C394.5,239.8 394.8,238.27 395.1,236.73C395.41,235.12 395.7,233.45 396,231.79C396.3,230.09 396.6,228.35 396.9,226.65C397.2,224.97 397.5,223.29 397.81,221.66C398.11,220.08 398.4,218.52 398.71,217.01C399.01,215.57 399.31,214.15 399.62,212.79C399.91,211.5 400.21,210.25 400.52,209.05C400.81,207.93 401.1,206.84 401.42,205.82C401.71,204.88 402.01,203.96 402.33,203.12C402.62,202.36 402.91,201.63 403.23,200.99C403.52,200.42 403.81,199.88 404.14,199.44C404.42,199.07 404.71,198.71 405.04,198.49C405.32,198.3 405.65,198.15 405.95,198.14C406.25,198.13 406.57,198.24 406.85,198.4C407.17,198.58 407.47,198.9 407.75,199.23C408.08,199.61 408.37,200.09 408.66,200.58C408.98,201.13 409.27,201.76 409.56,202.39C409.87,203.06 410.17,203.78 410.47,204.51C410.78,205.27 411.08,206.04 411.37,206.84C411.68,207.68 411.97,208.56 412.27,209.42C412.57,210.29 412.88,211.17 413.18,212.05C413.48,212.93 413.78,213.81 414.08,214.71C414.39,215.63 414.69,216.58 414.99,217.52C415.29,218.46 415.59,219.42 415.89,220.36C416.19,221.29 416.48,222.22 416.79,223.13C417.09,224.01 417.39,224.89 417.7,225.74C418,226.55 418.29,227.35 418.6,228.1C418.89,228.81 419.2,229.49 419.51,230.13C419.8,230.72 420.1,231.25 420.41,231.79C420.71,232.31 421.02,232.8 421.32,233.3C421.62,233.79 421.92,234.28 422.22,234.77C422.52,235.26 422.82,235.76 423.12,236.25C423.42,236.75 423.73,237.24 424.03,237.74C424.33,238.24 424.63,238.74 424.93,239.23C425.23,239.72 425.54,240.22 425.84,240.7C426.14,241.17 426.43,241.65 426.74,242.09C427.03,242.52 427.32,242.97 427.64,243.32C427.93,243.63 428.24,243.87 428.55,244.11C428.84,244.34 429.14,244.55 429.45,244.74C429.75,244.92 430.05,245.1 430.36,245.23C430.66,245.36 430.96,245.47 431.26,245.52C431.56,245.57 431.86,245.58 432.16,245.56C432.46,245.54 432.77,245.44 433.07,245.37C433.37,245.29 433.67,245.19 433.97,245.11C434.27,245.04 434.58,244.96 434.88,244.92C435.18,244.88 435.48,244.86 435.78,244.86C436.08,244.86 436.38,244.89 436.68,244.95C436.98,245.01 437.29,245.1 437.59,245.2C437.89,245.31 438.19,245.44 438.49,245.58C438.8,245.73 439.1,245.89 439.4,246.07C439.7,246.25 440,246.44 440.3,246.64C440.6,246.84 440.91,247.05 441.21,247.27C441.51,247.49 441.81,247.72 442.11,247.94C442.41,248.17 442.71,248.39 443.01,248.62C443.31,248.85 443.62,249.08 443.92,249.3C444.22,249.52 444.52,249.74 444.82,249.95C445.12,250.16 445.42,250.37 445.73,250.56C446.03,250.75 446.32,250.98 446.63,251.09C446.92,251.19 447.23,251.19 447.53,251.21C447.83,251.23 448.14,251.21 448.44,251.2C448.74,251.19 449.04,251.18 449.34,251.16C449.64,251.14 449.95,251.12 450.25,251.09C450.55,251.06 450.85,251.03 451.15,250.96C451.45,250.89 451.75,250.79 452.05,250.68C452.35,250.57 452.66,250.43 452.96,250.32C453.26,250.21 453.56,250.11 453.86,250.01C454.16,249.92 454.47,249.82 454.77,249.75C455.07,249.68 455.37,249.61 455.67,249.57C455.97,249.53 456.28,249.5 456.58,249.49C456.88,249.48 457.18,249.49 457.48,249.51C457.78,249.53 458.08,249.58 458.38,249.63C458.68,249.68 458.99,249.75 459.29,249.83C459.59,249.91 459.89,250 460.19,250.09C460.49,250.18 460.8,250.28 461.1,250.37Q461.4,250.46 462,250.64" style="vector-effect: non-scaling-stroke; fill: none; stroke: rgb(0, 100, 80); stroke-opacity: 1; stroke-width: 2px; opacity: 1;"/></g><g class="points"/><g class="text"/></g><g class="trace scatter trace105be4" style="stroke-miterlimit: 2; opacity: 1;"><g class="fills"/><g class="errorbars"/><g class="lines"><path class="js-line" d="M0,62.69Q0.6,62.67 0.9,62.73C1.21,62.8 1.53,62.91 1.81,63.1C2.13,63.32 2.43,63.65 2.71,64.01C3.04,64.43 3.34,64.95 3.62,65.5C3.95,66.13 4.23,66.85 4.52,67.6C4.84,68.44 5.13,69.34 5.42,70.29C5.74,71.33 6.04,72.44 6.33,73.58C6.64,74.81 6.94,76.1 7.23,77.43C7.54,78.85 7.85,80.33 8.14,81.84C8.45,83.43 8.74,85.08 9.04,86.76C9.35,88.52 9.65,90.32 9.95,92.16C10.26,94.07 10.55,96.02 10.85,97.99C11.15,100.02 11.45,102.08 11.75,104.16C12.05,106.28 12.36,108.43 12.66,110.59C12.96,112.79 13.26,115.02 13.56,117.25C13.86,119.51 14.17,121.8 14.47,124.08C14.77,126.38 15.07,128.69 15.37,130.99C15.67,133.29 15.97,135.59 16.27,137.88C16.57,140.15 16.88,142.41 17.18,144.65C17.48,146.87 17.78,149.07 18.08,151.27C18.38,153.45 18.69,155.62 18.99,157.78C19.29,159.93 19.59,162.09 19.89,164.23C20.19,166.37 20.49,168.5 20.79,170.62C21.09,172.73 21.4,174.83 21.7,176.91C22,178.97 22.3,181.02 22.6,183.05C22.9,185.04 23.2,187.02 23.51,188.97C23.81,190.87 24.1,192.75 24.41,194.58C24.71,196.34 25.01,198.08 25.32,199.75C25.61,201.33 25.91,202.89 26.22,204.36C26.51,205.73 26.8,207.06 27.12,208.3C27.41,209.41 27.7,210.49 28.03,211.45C28.31,212.28 28.59,213.08 28.93,213.72C29.21,214.23 29.49,214.75 29.84,215.02C30.11,215.23 30.44,215.37 30.74,215.35C31.04,215.33 31.36,215.1 31.64,214.87C31.97,214.6 32.27,214.18 32.55,213.76C32.87,213.28 33.16,212.71 33.45,212.12C33.77,211.47 34.07,210.75 34.36,210.01C34.67,209.22 34.97,208.37 35.26,207.52C35.57,206.63 35.86,205.71 36.16,204.77C36.47,203.8 36.77,202.82 37.07,201.8C37.38,200.74 37.68,199.66 37.97,198.52C38.28,197.29 38.59,196 38.88,194.66C39.19,193.22 39.48,191.67 39.78,190.15C40.08,188.59 40.38,186.98 40.68,185.4C40.98,183.84 41.28,182.27 41.59,180.74C41.89,179.25 42.18,177.78 42.49,176.34C42.79,174.96 43.09,173.59 43.4,172.28C43.69,171.04 43.99,169.82 44.3,168.66C44.59,167.58 44.89,166.52 45.21,165.53C45.5,164.62 45.79,163.74 46.11,162.93C46.4,162.21 46.68,161.51 47.01,160.91C47.29,160.38 47.59,159.88 47.92,159.49C48.2,159.16 48.5,158.86 48.82,158.7C49.1,158.56 49.43,158.48 49.73,158.52C50.04,158.56 50.35,158.74 50.63,158.95C50.96,159.2 51.25,159.57 51.53,159.96C51.86,160.42 52.15,160.97 52.44,161.55C52.76,162.2 53.05,162.94 53.34,163.7C53.66,164.54 53.96,165.45 54.25,166.4C54.57,167.43 54.86,168.52 55.15,169.64C55.46,170.84 55.76,172.1 56.05,173.38C56.36,174.74 56.66,176.14 56.96,177.58C57.27,179.08 57.56,180.64 57.86,182.21C58.17,183.84 58.47,185.51 58.77,187.2C59.08,188.94 59.37,190.71 59.67,192.5C59.97,194.33 60.28,196.18 60.58,198.04C60.88,199.93 61.18,201.84 61.48,203.74C61.78,205.65 62.08,207.58 62.38,209.49C62.68,211.38 62.98,213.33 63.29,215.13C63.58,216.79 63.88,218.36 64.19,219.92C64.49,221.42 64.79,222.89 65.1,224.31C65.39,225.66 65.69,227 66,228.24C66.29,229.38 66.58,230.48 66.9,231.49C67.19,232.38 67.49,233.23 67.81,233.99C68.09,234.66 68.39,235.29 68.71,235.85C69,236.35 69.3,236.81 69.62,237.23C69.91,237.61 70.21,237.95 70.52,238.25C70.81,238.53 71.11,238.79 71.42,239.01C71.71,239.22 72.02,239.41 72.33,239.56C72.62,239.7 72.93,239.86 73.23,239.88C73.53,239.9 73.85,239.81 74.14,239.68C74.45,239.54 74.74,239.27 75.04,239.07C75.34,238.86 75.64,238.64 75.95,238.45C76.25,238.26 76.55,238.08 76.85,237.93C77.15,237.78 77.45,237.65 77.75,237.54C78.05,237.43 78.35,237.34 78.66,237.29C78.96,237.24 79.26,237.21 79.56,237.22C79.86,237.23 80.17,237.28 80.47,237.36C80.78,237.44 81.08,237.56 81.37,237.71C81.68,237.87 81.98,238.07 82.27,238.29C82.58,238.53 82.89,238.82 83.18,239.12C83.49,239.44 83.79,239.81 84.08,240.19C84.39,240.6 84.7,241.04 84.99,241.5C85.3,241.98 85.6,242.5 85.89,243.03C86.2,243.59 86.49,244.18 86.79,244.79C87.1,245.42 87.4,246.08 87.7,246.75C88.01,247.46 88.31,248.19 88.6,248.94C88.91,249.73 89.21,250.55 89.51,251.38C89.82,252.25 90.11,253.17 90.41,254.06C90.71,254.94 91.02,255.81 91.32,256.67C91.62,257.51 91.92,258.32 92.22,259.16C92.52,260.02 92.82,260.91 93.12,261.79C93.42,262.67 93.71,263.61 94.03,264.45C94.32,265.22 94.61,265.95 94.93,266.63C95.22,267.26 95.52,267.86 95.84,268.41C96.13,268.91 96.41,269.42 96.74,269.82C97.02,270.16 97.32,270.49 97.64,270.69C97.92,270.86 98.24,270.98 98.55,271C98.85,271.02 99.16,270.96 99.45,270.85C99.76,270.74 100.07,270.54 100.36,270.31C100.68,270.06 100.97,269.73 101.26,269.39C101.58,269.01 101.87,268.58 102.16,268.11C102.48,267.59 102.78,267 103.07,266.39C103.39,265.72 103.68,264.98 103.97,264.23C104.28,263.44 104.58,262.6 104.88,261.77C105.19,260.91 105.48,260.04 105.78,259.16C106.08,258.27 106.38,257.36 106.68,256.46C106.98,255.55 107.29,254.64 107.59,253.74C107.89,252.85 108.19,251.96 108.49,251.08C108.79,250.22 109.09,249.37 109.4,248.54C109.7,247.73 109.99,246.93 110.3,246.15C110.6,245.4 110.9,244.66 111.21,243.95C111.5,243.27 111.8,242.61 112.11,241.98C112.4,241.38 112.7,240.8 113.01,240.25C113.3,239.74 113.61,239.25 113.92,238.79C114.21,238.36 114.51,237.95 114.82,237.58C115.11,237.24 115.42,236.92 115.73,236.64C116.02,236.38 116.32,236.14 116.63,235.95C116.92,235.77 117.22,235.62 117.53,235.52C117.83,235.42 118.14,235.37 118.44,235.35C118.74,235.33 119.04,235.36 119.34,235.42C119.65,235.48 119.95,235.6 120.25,235.74C120.56,235.89 120.86,236.08 121.15,236.29C121.46,236.52 121.76,236.79 122.05,237.07C122.36,237.37 122.67,237.71 122.96,238.06C123.27,238.43 123.57,238.83 123.86,239.24C124.17,239.67 124.47,240.13 124.77,240.59C125.08,241.06 125.37,241.55 125.67,242.04C125.97,242.53 126.27,243.04 126.58,243.51C126.87,243.96 127.17,244.4 127.48,244.8C127.77,245.18 128.07,245.53 128.38,245.85C128.67,246.15 128.97,246.43 129.29,246.65C129.58,246.85 129.88,247.03 130.19,247.13C130.48,247.23 130.81,247.33 131.1,247.26C131.42,247.18 131.72,246.89 132,246.63C132.32,246.34 132.6,245.94 132.9,245.57C133.21,245.19 133.51,244.79 133.81,244.39C134.11,243.98 134.41,243.55 134.71,243.13C135.01,242.7 135.32,242.27 135.62,241.84C135.92,241.41 136.22,240.97 136.52,240.54C136.82,240.11 137.12,239.68 137.42,239.25C137.72,238.82 138.03,238.4 138.33,237.97C138.63,237.54 138.93,237.12 139.23,236.69C139.53,236.26 139.84,235.84 140.14,235.4C140.44,234.96 140.74,234.51 141.04,234.05C141.34,233.58 141.65,233.11 141.95,232.63C142.25,232.15 142.55,231.66 142.85,231.18C143.15,230.7 143.45,230.22 143.75,229.75C144.05,229.29 144.35,228.84 144.66,228.41C144.95,228 145.25,227.6 145.56,227.24C145.85,226.9 146.16,226.56 146.47,226.28C146.76,226.02 147.06,225.77 147.37,225.58C147.66,225.4 147.96,225.25 148.27,225.17C148.57,225.09 148.88,225.06 149.18,225.08C149.48,225.1 149.79,225.19 150.08,225.32C150.39,225.46 150.7,225.66 150.99,225.9C151.31,226.16 151.6,226.48 151.89,226.82C152.2,227.19 152.5,227.62 152.79,228.07C153.11,228.56 153.41,229.09 153.7,229.65C154.01,230.24 154.31,230.88 154.6,231.53C154.91,232.22 155.21,232.94 155.51,233.67C155.82,234.44 156.11,235.24 156.41,236.04C156.72,236.86 157.02,237.71 157.32,238.55C157.62,239.39 157.91,240.26 158.22,241.08C158.52,241.88 158.81,242.67 159.12,243.42C159.41,244.13 159.72,244.81 160.03,245.47C160.33,246.1 160.62,246.71 160.93,247.31C161.23,247.89 161.49,248.58 161.84,248.99C162.11,249.31 162.43,249.48 162.74,249.67C163.03,249.85 163.34,249.96 163.64,250.1C163.94,250.24 164.25,250.36 164.55,250.49C164.85,250.62 165.15,250.75 165.45,250.89C165.75,251.03 166.06,251.17 166.36,251.31C166.66,251.45 166.96,251.59 167.26,251.73C167.56,251.87 167.86,252.01 168.16,252.14C168.46,252.27 168.77,252.4 169.07,252.52C169.37,252.64 169.67,252.75 169.97,252.85C170.27,252.95 170.58,253.04 170.88,253.1C171.18,253.16 171.48,253.21 171.78,253.23C172.08,253.25 172.38,253.24 172.68,253.21C172.98,253.18 173.29,253.13 173.59,253.05C173.89,252.97 174.19,252.87 174.49,252.75C174.8,252.63 175.1,252.48 175.4,252.32C175.7,252.16 176,251.99 176.3,251.81C176.61,251.62 176.94,251.49 177.21,251.19C177.56,250.8 177.82,250.12 178.11,249.54C178.42,248.92 178.72,248.26 179.01,247.58C179.32,246.85 179.64,246.11 179.92,245.28C180.24,244.33 180.54,243.29 180.82,242.18C181.15,240.9 181.43,239.44 181.73,238.02C182.04,236.54 182.33,234.99 182.63,233.48C182.93,231.97 183.23,230.45 183.53,228.94C183.83,227.44 184.14,225.95 184.44,224.47C184.74,223 185.04,221.55 185.34,220.1C185.64,218.67 185.95,217.25 186.25,215.84C186.55,214.46 186.85,213.08 187.15,211.73C187.45,210.4 187.74,209.09 188.05,207.8C188.35,206.54 188.65,205.3 188.96,204.08C189.26,202.9 189.55,201.74 189.86,200.61C190.16,199.52 190.46,198.45 190.77,197.42C191.06,196.44 191.36,195.48 191.67,194.56C191.96,193.69 192.27,192.85 192.58,192.05C192.87,191.31 193.17,190.58 193.48,189.92C193.77,189.31 194.06,188.73 194.38,188.21C194.67,187.74 194.97,187.3 195.29,186.93C195.58,186.6 195.87,186.3 196.19,186.09C196.48,185.9 196.79,185.76 197.1,185.71C197.4,185.66 197.71,185.69 198,185.78C198.31,185.88 198.62,186.09 198.9,186.32C199.22,186.59 199.53,186.94 199.81,187.33C200.13,187.77 200.42,188.3 200.71,188.85C201.03,189.47 201.33,190.15 201.62,190.87C201.94,191.66 202.23,192.51 202.52,193.4C202.83,194.37 203.13,195.39 203.42,196.45C203.73,197.58 204.04,198.77 204.33,199.99C204.64,201.29 204.94,202.64 205.23,204.02C205.54,205.47 205.84,206.98 206.14,208.51C206.45,210.11 206.74,211.76 207.04,213.43C207.35,215.16 207.65,216.94 207.95,218.73C208.26,220.58 208.55,222.46 208.85,224.35C209.15,226.28 209.45,228.24 209.75,230.2C210.05,232.18 210.36,234.18 210.66,236.17C210.96,238.15 211.25,240.15 211.56,242.1C211.86,244.01 212.16,245.93 212.47,247.76C212.76,249.5 213.05,251.24 213.37,252.82C213.65,254.21 213.93,255.57 214.27,256.74C214.55,257.71 214.85,258.59 215.18,259.37C215.46,260.03 215.75,260.64 216.08,261.16C216.36,261.61 216.66,262.03 216.99,262.35C217.27,262.62 217.57,262.87 217.89,262.98C218.18,263.08 218.52,263.14 218.79,263.01C219.14,262.84 219.43,262.31 219.7,261.8C220.07,261.08 220.3,259.94 220.6,259C220.9,258.04 221.21,257.07 221.51,256.1C221.81,255.13 222.11,254.16 222.41,253.2C222.71,252.24 223.02,251.29 223.32,250.33C223.62,249.37 223.92,248.41 224.22,247.45C224.52,246.48 224.82,245.5 225.12,244.52C225.42,243.53 225.73,242.52 226.03,241.54C226.33,240.57 226.62,239.59 226.93,238.66C227.22,237.77 227.53,236.9 227.84,236.08C228.13,235.32 228.42,234.59 228.74,233.92C229.03,233.32 229.32,232.74 229.64,232.25C229.92,231.82 230.23,231.42 230.55,231.1C230.84,230.82 231.14,230.58 231.45,230.39C231.74,230.21 232.05,230.08 232.36,229.97C232.66,229.87 232.96,229.83 233.26,229.75C233.56,229.67 233.88,229.66 234.16,229.48C234.5,229.25 234.8,228.84 235.07,228.38C235.42,227.79 235.68,226.95 235.97,226.16C236.29,225.28 236.59,224.32 236.88,223.32C237.2,222.2 237.49,221.01 237.78,219.76C238.1,218.38 238.39,216.93 238.68,215.4C239,213.72 239.3,211.97 239.59,210.11C239.91,208.05 240.2,205.85 240.49,203.57C240.81,201.09 241.11,198.51 241.4,195.77C241.72,192.73 242.01,189.44 242.3,186.14C242.61,182.66 242.91,179.01 243.21,175.41C243.51,171.75 243.81,168.04 244.11,164.34C244.41,160.62 244.71,156.87 245.01,153.15C245.31,149.43 245.62,145.71 245.92,142.02C246.22,138.36 246.52,134.71 246.82,131.09C247.12,127.53 247.43,123.98 247.73,120.48C248.03,117.05 248.33,113.64 248.63,110.29C248.93,107.02 249.22,103.78 249.53,100.6C249.83,97.52 250.13,94.48 250.44,91.5C250.74,88.63 251.03,85.8 251.34,83.04C251.64,80.39 251.94,77.8 252.25,75.27C252.54,72.86 252.84,70.51 253.15,68.23C253.44,66.07 253.74,63.97 254.05,61.94C254.34,60.04 254.65,58.18 254.96,56.41C255.25,54.76 255.55,53.15 255.86,51.63C256.15,50.22 256.45,48.87 256.77,47.59C257.06,46.43 257.35,45.31 257.67,44.27C257.96,43.33 258.26,42.43 258.58,41.62C258.86,40.9 259.16,40.22 259.48,39.63C259.76,39.12 260.05,38.64 260.38,38.26C260.66,37.94 260.97,37.65 261.29,37.46C261.58,37.29 261.89,37.15 262.19,37.14C262.49,37.13 262.82,37.22 263.1,37.38C263.43,37.57 263.72,37.93 264,38.31C264.34,38.77 264.62,39.38 264.9,40.01C265.23,40.75 265.52,41.61 265.81,42.51C266.13,43.53 266.42,44.65 266.71,45.82C267.03,47.11 267.33,48.49 267.62,49.92C267.94,51.47 268.23,53.11 268.52,54.79C268.83,56.59 269.13,58.47 269.42,60.39C269.73,62.42 270.03,64.52 270.33,66.66C270.64,68.9 270.93,71.2 271.23,73.53C271.54,75.95 271.84,78.43 272.14,80.94C272.45,83.52 272.74,86.14 273.04,88.78C273.34,91.48 273.65,94.21 273.95,96.96C274.25,99.74 274.55,102.56 274.85,105.37C275.15,108.2 275.45,111.05 275.75,113.89C276.05,116.72 276.36,119.57 276.66,122.37C276.96,125.13 277.25,127.89 277.56,130.59C277.86,133.22 278.16,135.84 278.47,138.39C278.77,140.85 279.06,143.28 279.37,145.64C279.66,147.88 279.96,150.08 280.27,152.2C280.56,154.19 280.87,156.13 281.18,157.99C281.47,159.72 281.76,161.39 282.08,162.98C282.37,164.44 282.67,165.85 282.99,167.17C283.28,168.36 283.57,169.51 283.89,170.56C284.17,171.5 284.46,172.39 284.79,173.19C285.07,173.89 285.38,174.53 285.7,175.11C285.98,175.62 286.28,176.06 286.6,176.48C286.89,176.86 287.21,177.19 287.51,177.53C287.81,177.87 288.12,178.17 288.41,178.52C288.72,178.88 289.03,179.25 289.32,179.67C289.64,180.13 289.93,180.63 290.22,181.18C290.54,181.79 290.83,182.46 291.12,183.17C291.44,183.95 291.74,184.8 292.03,185.68C292.35,186.64 292.64,187.68 292.93,188.74C293.24,189.87 293.55,191.06 293.84,192.28C294.15,193.57 294.45,194.9 294.74,196.28C295.05,197.74 295.35,199.25 295.64,200.8C295.95,202.44 296.26,204.14 296.55,205.88C296.86,207.71 297.15,209.6 297.45,211.52C297.76,213.53 298.06,215.6 298.36,217.69C298.67,219.86 298.96,222.08 299.26,224.32C299.56,226.62 299.86,228.97 300.16,231.32C300.46,233.71 300.77,236.14 301.07,238.53C301.37,240.9 301.66,243.33 301.97,245.6C302.26,247.71 302.54,249.87 302.88,251.7C303.16,253.21 303.42,254.69 303.78,255.81C304.05,256.62 304.29,257.43 304.68,257.85C304.94,258.13 305.29,258.33 305.59,258.33C305.89,258.33 306.22,258.07 306.49,257.82C306.83,257.5 307.12,256.99 307.4,256.49C307.73,255.92 308.02,255.29 308.3,254.56C308.64,253.65 308.93,252.59 309.21,251.43C309.55,250.02 309.81,248.28 310.11,246.68C310.41,245.06 310.71,243.41 311.01,241.77C311.31,240.12 311.62,238.46 311.92,236.81C312.22,235.17 312.52,233.53 312.82,231.91C313.12,230.33 313.42,228.75 313.73,227.21C314.03,225.72 314.32,224.25 314.63,222.83C314.92,221.48 315.22,220.15 315.53,218.89C315.82,217.71 316.12,216.56 316.44,215.48C316.73,214.49 317.02,213.53 317.34,212.66C317.63,211.88 317.92,211.13 318.25,210.49C318.53,209.94 318.82,209.4 319.15,209C319.43,208.67 319.73,208.35 320.05,208.22C320.33,208.1 320.67,208.08 320.96,208.16C321.28,208.25 321.58,208.52 321.86,208.81C322.2,209.16 322.49,209.64 322.77,210.15C323.1,210.74 323.38,211.45 323.67,212.18C323.99,213 324.29,213.91 324.58,214.85C324.9,215.88 325.19,216.98 325.48,218.12C325.79,219.34 326.09,220.63 326.38,221.94C326.69,223.33 326.99,224.78 327.29,226.25C327.6,227.79 327.89,229.37 328.19,230.97C328.5,232.62 328.8,234.31 329.1,236.01C329.4,237.74 329.7,239.51 330,241.27C330.3,243.04 330.6,244.84 330.9,246.61C331.2,248.37 331.5,250.13 331.81,251.85C332.11,253.52 332.4,255.2 332.71,256.78C333,258.26 333.29,259.75 333.62,261.06C333.9,262.2 334.19,263.28 334.52,264.21C334.8,264.98 335.07,265.72 335.42,266.26C335.69,266.68 335.99,267.12 336.33,267.25C336.61,267.36 336.95,267.3 337.23,267.17C337.57,267.01 337.86,266.59 338.14,266.21C338.47,265.76 338.75,265.17 339.04,264.6C339.36,263.97 339.65,263.27 339.95,262.57C340.26,261.84 340.55,261.09 340.85,260.33C341.16,259.54 341.45,258.73 341.75,257.91C342.06,257.07 342.35,256.19 342.66,255.35C342.96,254.54 343.25,253.73 343.56,252.96C343.85,252.23 344.16,251.51 344.47,250.84C344.76,250.21 345.06,249.6 345.37,249.04C345.66,248.52 345.95,248.02 346.27,247.59C346.56,247.2 346.86,246.83 347.18,246.53C347.47,246.27 347.76,246.03 348.08,245.88C348.37,245.74 348.69,245.65 348.99,245.65C349.29,245.65 349.6,245.73 349.89,245.85C350.2,245.99 350.5,246.21 350.79,246.46C351.11,246.74 351.41,247.09 351.7,247.46C352.02,247.86 352.31,248.33 352.6,248.8C352.91,249.31 353.21,249.86 353.51,250.42C353.82,251 354.11,251.61 354.41,252.21C354.71,252.82 355.02,253.45 355.32,254.07C355.62,254.68 355.92,255.3 356.22,255.91C356.52,256.51 356.82,257.12 357.12,257.71C357.42,258.29 357.72,258.88 358.03,259.44C358.33,259.98 358.62,260.52 358.93,261C359.22,261.45 359.52,261.88 359.84,262.24C360.13,262.56 360.42,262.88 360.74,263.08C361.02,263.26 361.34,263.41 361.64,263.43C361.94,263.45 362.26,263.36 362.55,263.22C362.87,263.06 363.17,262.77 363.45,262.45C363.78,262.07 364.08,261.6 364.36,261.05C364.7,260.37 364.97,259.47 365.26,258.63C365.57,257.73 365.86,256.75 366.16,255.8C366.46,254.83 366.77,253.83 367.07,252.85C367.37,251.87 367.67,250.89 367.97,249.92C368.27,248.97 368.57,248.03 368.88,247.11C369.18,246.23 369.47,245.36 369.78,244.52C370.07,243.72 370.37,242.94 370.68,242.19C370.97,241.48 371.28,240.78 371.59,240.12C371.88,239.5 372.18,238.89 372.49,238.33C372.78,237.8 373.08,237.29 373.4,236.84C373.69,236.43 373.98,236.04 374.3,235.73C374.59,235.46 374.89,235.21 375.21,235.06C375.5,234.92 375.81,234.83 376.11,234.83C376.41,234.83 376.72,234.93 377.01,235.07C377.33,235.22 377.63,235.47 377.92,235.75C378.24,236.06 378.53,236.46 378.82,236.87C379.14,237.33 379.44,237.85 379.73,238.38C380.04,238.96 380.34,239.59 380.63,240.22C380.94,240.89 381.23,241.58 381.53,242.29C381.84,243.02 382.14,243.78 382.44,244.55C382.75,245.34 383.04,246.15 383.34,246.96C383.64,247.79 383.95,248.63 384.25,249.47C384.55,250.31 384.85,251.16 385.15,251.98C385.45,252.78 385.74,253.58 386.05,254.33C386.34,255.03 386.64,255.72 386.96,256.34C387.25,256.9 387.52,257.47 387.86,257.88C388.14,258.21 388.47,258.67 388.77,258.66C389.08,258.65 389.4,258.14 389.67,257.77C390.01,257.3 390.29,256.62 390.58,255.99C390.9,255.3 391.19,254.53 391.48,253.76C391.79,252.95 392.09,252.11 392.38,251.24C392.69,250.32 393,249.37 393.29,248.38C393.6,247.34 393.89,246.24 394.19,245.14C394.5,243.99 394.8,242.8 395.1,241.61C395.4,240.4 395.7,239.16 396,237.93C396.3,236.68 396.6,235.41 396.9,234.16C397.2,232.93 397.5,231.68 397.81,230.48C398.11,229.32 398.4,228.17 398.71,227.07C399,226.02 399.31,224.98 399.62,224C399.91,223.08 400.21,222.17 400.52,221.33C400.81,220.55 401.1,219.8 401.42,219.11C401.71,218.48 402.01,217.88 402.33,217.35C402.62,216.88 402.91,216.45 403.23,216.09C403.52,215.78 403.82,215.49 404.14,215.3C404.43,215.14 404.74,215.02 405.04,214.99C405.34,214.96 405.66,215.01 405.95,215.11C406.26,215.22 406.56,215.42 406.85,215.64C407.17,215.88 407.46,216.19 407.75,216.52C408.07,216.88 408.37,217.3 408.66,217.74C408.98,218.22 409.27,218.75 409.56,219.3C409.88,219.9 410.18,220.55 410.47,221.23C410.78,221.97 411.08,222.76 411.37,223.57C411.68,224.44 411.98,225.35 412.27,226.28C412.58,227.26 412.88,228.29 413.18,229.33C413.49,230.41 413.78,231.52 414.08,232.63C414.38,233.75 414.68,234.89 414.99,236C415.29,237.07 415.58,238.14 415.89,239.17C416.18,240.17 416.49,241.12 416.79,242.09C417.09,243.06 417.39,244.06 417.7,245C417.99,245.89 418.28,246.78 418.6,247.59C418.89,248.32 419.21,248.95 419.51,249.63C419.81,250.31 420.11,250.99 420.41,251.66C420.71,252.33 421.01,253 421.32,253.65C421.62,254.28 421.91,254.92 422.22,255.52C422.51,256.1 422.81,256.66 423.12,257.19C423.41,257.69 423.71,258.2 424.03,258.61C424.31,258.98 424.61,259.33 424.93,259.57C425.21,259.78 425.53,259.93 425.84,260.02C426.13,260.1 426.44,260.13 426.74,260.11C427.04,260.09 427.35,260 427.64,259.88C427.95,259.75 428.26,259.57 428.55,259.36C428.86,259.14 429.16,258.87 429.45,258.6C429.76,258.31 430.06,258 430.36,257.68C430.67,257.36 430.96,257.01 431.26,256.67C431.56,256.32 431.86,255.97 432.16,255.62C432.46,255.27 432.77,254.93 433.07,254.56C433.38,254.19 433.68,253.83 433.97,253.4C434.29,252.93 434.58,252.36 434.88,251.83C435.18,251.3 435.48,250.76 435.78,250.24C436.08,249.74 436.37,249.24 436.68,248.77C436.98,248.31 437.28,247.86 437.59,247.44C437.88,247.04 438.18,246.64 438.49,246.28C438.78,245.93 439.09,245.61 439.4,245.31C439.69,245.03 439.99,244.77 440.3,244.55C440.59,244.34 440.9,244.16 441.21,244.02C441.5,243.89 441.81,243.78 442.11,243.72C442.41,243.66 442.71,243.64 443.01,243.66C443.31,243.68 443.62,243.74 443.92,243.84C444.23,243.94 444.53,244.08 444.82,244.25C445.13,244.42 445.44,244.64 445.73,244.87C446.04,245.11 446.34,245.39 446.63,245.68C446.94,245.98 447.23,246.32 447.53,246.66C447.84,247.01 448.14,247.38 448.44,247.76C448.74,248.14 449.04,248.54 449.34,248.93C449.64,249.32 449.95,249.71 450.25,250.1C450.55,250.48 450.85,250.86 451.15,251.24C451.45,251.62 451.75,251.98 452.05,252.36C452.35,252.74 452.66,253.13 452.96,253.53C453.26,253.93 453.56,254.34 453.86,254.76C454.17,255.19 454.47,255.62 454.77,256.07C455.07,256.53 455.37,257 455.67,257.47C455.97,257.95 456.28,258.45 456.58,258.95C456.88,259.46 457.18,259.97 457.48,260.49C457.78,261.01 458.08,261.54 458.38,262.06C458.68,262.58 458.98,263.1 459.29,263.6C459.59,264.09 459.88,264.58 460.19,265.04C460.48,265.47 460.78,265.91 461.1,266.27Q461.39,266.6 462,267.13" style="vector-effect: non-scaling-stroke; fill: none; stroke: rgb(0, 176, 246); stroke-opacity: 1; stroke-width: 2px; opacity: 1;"/></g><g class="points"/><g class="text"/></g><g class="trace scatter tracedb077e" style="stroke-miterlimit: 2; opacity: 1;"><g class="fills"/><g class="errorbars"/><g class="lines"><path class="js-line" d="M0,105.11Q0.6,105.07 0.9,105.01C1.21,104.94 1.51,104.84 1.81,104.72C2.12,104.6 2.41,104.43 2.71,104.27C3.02,104.1 3.32,103.91 3.62,103.72C3.92,103.53 4.22,103.33 4.52,103.14C4.82,102.95 5.11,102.75 5.42,102.59C5.72,102.43 6.02,102.27 6.33,102.16C6.63,102.05 6.93,101.95 7.23,101.91C7.53,101.87 7.84,101.86 8.14,101.9C8.44,101.94 8.75,102.04 9.04,102.18C9.35,102.33 9.66,102.56 9.95,102.81C10.27,103.09 10.56,103.44 10.85,103.82C11.17,104.24 11.46,104.73 11.75,105.24C12.07,105.81 12.37,106.43 12.66,107.09C12.98,107.81 13.27,108.58 13.56,109.39C13.88,110.27 14.18,111.2 14.47,112.16C14.78,113.19 15.08,114.27 15.37,115.38C15.68,116.57 15.98,117.81 16.27,119.08C16.58,120.43 16.89,121.82 17.18,123.25C17.49,124.75 17.79,126.31 18.08,127.89C18.39,129.55 18.69,131.25 18.99,132.99C19.3,134.8 19.6,136.66 19.89,138.55C20.2,140.51 20.49,142.52 20.79,144.56C21.1,146.67 21.4,148.83 21.7,151.01C22.01,153.26 22.3,155.54 22.6,157.85C22.91,160.22 23.21,162.63 23.51,165.06C23.81,167.53 24.11,170.04 24.41,172.56C24.71,175.11 25.02,177.7 25.32,180.28C25.62,182.88 25.92,185.5 26.22,188.1C26.52,190.7 26.82,193.31 27.12,195.89C27.42,198.44 27.72,200.99 28.03,203.49C28.33,205.94 28.62,208.38 28.93,210.76C29.23,213.07 29.53,215.34 29.84,217.56C30.14,219.68 30.43,221.77 30.74,223.79C31.03,225.7 31.33,227.58 31.64,229.37C31.93,231.03 32.23,232.66 32.55,234.16C32.84,235.5 33.11,236.83 33.45,237.95C33.73,238.88 34,239.79 34.36,240.45C34.63,240.95 34.91,241.45 35.26,241.66C35.53,241.83 35.87,241.88 36.16,241.81C36.48,241.73 36.79,241.41 37.07,241.09C37.41,240.69 37.69,240.12 37.97,239.51C38.31,238.76 38.6,237.86 38.88,236.88C39.22,235.67 39.5,234.27 39.78,232.75C40.11,230.91 40.39,228.79 40.68,226.62C41,224.17 41.3,221.47 41.59,218.79C41.9,215.97 42.19,213.02 42.49,210.12C42.79,207.19 43.1,204.21 43.4,201.28C43.7,198.38 43.99,195.48 44.3,192.64C44.6,189.86 44.9,187.11 45.21,184.41C45.51,181.81 45.8,179.23 46.11,176.73C46.4,174.33 46.7,171.98 47.01,169.7C47.3,167.54 47.61,165.42 47.92,163.38C48.21,161.47 48.51,159.61 48.82,157.84C49.11,156.19 49.41,154.59 49.73,153.09C50.02,151.72 50.31,150.4 50.63,149.18C50.91,148.09 51.2,147.05 51.53,146.12C51.81,145.32 52.1,144.55 52.44,143.92C52.72,143.4 53,142.89 53.34,142.57C53.62,142.32 53.94,142.09 54.25,142.07C54.55,142.05 54.88,142.2 55.15,142.4C55.49,142.65 55.77,143.09 56.05,143.54C56.39,144.08 56.68,144.76 56.96,145.46C57.29,146.27 57.57,147.18 57.86,148.12C58.18,149.17 58.48,150.31 58.77,151.48C59.09,152.75 59.38,154.1 59.67,155.49C59.98,156.97 60.29,158.53 60.58,160.11C60.89,161.78 61.19,163.51 61.48,165.27C61.79,167.1 62.08,168.99 62.38,170.9C62.69,172.88 62.99,174.91 63.29,176.95C63.6,179.05 63.89,181.18 64.19,183.33C64.49,185.52 64.8,187.74 65.1,189.96C65.4,192.21 65.7,194.47 66,196.74C66.3,199.02 66.6,201.31 66.9,203.59C67.2,205.86 67.51,208.13 67.81,210.37C68.11,212.58 68.4,214.79 68.71,216.96C69.01,219.07 69.31,221.17 69.62,223.21C69.92,225.17 70.21,227.11 70.52,228.97C70.81,230.73 71.11,232.46 71.42,234.1C71.71,235.63 72.01,237.11 72.33,238.51C72.62,239.79 72.91,241.03 73.23,242.19C73.52,243.24 73.82,244.23 74.14,245.16C74.43,246 74.72,246.79 75.04,247.52C75.33,248.18 75.63,248.79 75.95,249.36C76.24,249.87 76.54,250.35 76.85,250.79C77.14,251.2 77.44,251.58 77.75,251.93C78.04,252.27 78.35,252.57 78.66,252.87C78.96,253.16 79.26,253.43 79.56,253.7C79.86,253.97 80.17,254.22 80.47,254.48C80.77,254.74 81.07,255.01 81.37,255.28C81.67,255.55 81.97,255.83 82.27,256.12C82.58,256.41 82.88,256.72 83.18,257.03C83.48,257.35 83.78,257.68 84.08,258.01C84.38,258.35 84.69,258.7 84.99,259.06C85.29,259.42 85.59,259.8 85.89,260.18C86.19,260.56 86.49,260.95 86.79,261.33C87.09,261.71 87.38,262.14 87.7,262.48C87.99,262.79 88.32,263.35 88.6,263.31C88.94,263.25 89.22,262.25 89.51,261.65C89.83,260.98 90.1,260.19 90.41,259.48C90.71,258.79 91.01,258.11 91.32,257.46C91.61,256.84 91.91,256.23 92.22,255.65C92.51,255.11 92.81,254.58 93.12,254.09C93.41,253.63 93.71,253.19 94.03,252.8C94.32,252.44 94.61,252.09 94.93,251.81C95.22,251.55 95.53,251.31 95.84,251.14C96.13,250.98 96.43,250.86 96.74,250.8C97.04,250.75 97.34,250.75 97.64,250.8C97.95,250.86 98.26,250.98 98.55,251.14C98.86,251.31 99.16,251.54 99.45,251.79C99.76,252.06 100.07,252.39 100.36,252.72C100.67,253.07 100.96,253.45 101.26,253.83C101.56,254.21 101.85,254.63 102.16,254.99C102.45,255.34 102.75,255.71 103.07,255.96C103.35,256.18 103.66,256.4 103.97,256.43C104.27,256.46 104.6,256.34 104.88,256.18C105.21,255.99 105.49,255.63 105.78,255.29C106.1,254.92 106.38,254.46 106.68,254.02C106.99,253.57 107.29,253.09 107.59,252.63C107.89,252.18 108.18,251.73 108.49,251.31C108.79,250.91 109.09,250.51 109.4,250.15C109.69,249.81 109.99,249.49 110.3,249.21C110.59,248.95 110.9,248.72 111.21,248.54C111.5,248.37 111.8,248.23 112.11,248.16C112.4,248.09 112.71,248.07 113.01,248.1C113.32,248.13 113.63,248.22 113.92,248.35C114.23,248.49 114.53,248.69 114.82,248.92C115.14,249.17 115.44,249.48 115.73,249.81C116.04,250.17 116.34,250.58 116.63,251C116.94,251.45 117.24,251.93 117.53,252.43C117.84,252.95 118.14,253.51 118.44,254.06C118.74,254.61 119.04,255.19 119.34,255.74C119.64,256.28 119.94,256.83 120.25,257.33C120.54,257.79 120.84,258.24 121.15,258.64C121.44,259.02 121.74,259.35 122.05,259.68C122.35,260 122.66,260.28 122.96,260.59C123.26,260.91 123.57,261.23 123.86,261.58C124.17,261.95 124.48,262.35 124.77,262.77C125.08,263.22 125.38,263.7 125.67,264.2C125.98,264.73 126.28,265.29 126.58,265.86C126.89,266.46 127.18,267.08 127.48,267.71C127.78,268.35 128.08,269.02 128.38,269.68C128.68,270.36 128.99,271.04 129.29,271.73C129.59,272.43 129.89,273.13 130.19,273.84C130.49,274.56 130.8,275.28 131.1,276.01C131.4,276.74 131.69,277.49 132,278.2C132.3,278.89 132.55,279.68 132.9,280.22C133.17,280.65 133.52,281.27 133.81,281.25C134.12,281.23 134.44,280.51 134.71,279.98C135.08,279.24 135.33,278.1 135.62,277.1C135.93,276.04 136.22,274.9 136.52,273.8C136.82,272.7 137.12,271.58 137.42,270.49C137.72,269.41 138.03,268.33 138.33,267.27C138.63,266.22 138.93,265.19 139.23,264.15C139.53,263.11 139.84,262.09 140.14,261.05C140.44,259.99 140.74,258.92 141.04,257.82C141.35,256.67 141.65,255.5 141.95,254.3C142.26,253.04 142.55,251.73 142.85,250.42C143.15,249.07 143.45,247.68 143.75,246.3C144.05,244.91 144.36,243.5 144.66,242.11C144.96,240.74 145.25,239.36 145.56,238.01C145.86,236.7 146.16,235.39 146.47,234.12C146.77,232.89 147.06,231.68 147.37,230.51C147.66,229.39 147.96,228.28 148.27,227.22C148.56,226.21 148.87,225.23 149.18,224.29C149.47,223.41 149.77,222.56 150.08,221.76C150.37,221.02 150.67,220.3 150.99,219.64C151.28,219.04 151.57,218.46 151.89,217.95C152.18,217.49 152.47,217.06 152.79,216.7C153.08,216.38 153.38,216.09 153.7,215.9C153.99,215.73 154.29,215.6 154.6,215.56C154.9,215.52 155.22,215.56 155.51,215.67C155.82,215.78 156.12,216.01 156.41,216.25C156.73,216.53 157.03,216.89 157.32,217.27C157.64,217.7 157.93,218.2 158.22,218.73C158.54,219.31 158.83,219.95 159.12,220.62C159.44,221.35 159.74,222.13 160.03,222.93C160.34,223.79 160.64,224.7 160.93,225.63C161.24,226.62 161.55,227.65 161.84,228.7C162.15,229.81 162.45,230.95 162.74,232.12C163.05,233.34 163.34,234.59 163.64,235.86C163.95,237.18 164.25,238.52 164.55,239.89C164.86,241.3 165.15,242.74 165.45,244.19C165.76,245.68 166.06,247.19 166.36,248.71C166.66,250.27 166.96,251.84 167.26,253.43C167.56,255.04 167.86,256.67 168.16,258.31C168.46,259.97 168.77,261.64 169.07,263.32C169.37,265.01 169.67,266.71 169.97,268.4C170.27,270.1 170.58,271.8 170.88,273.5C171.18,275.19 171.48,276.88 171.78,278.55C172.08,280.2 172.37,281.84 172.68,283.45C172.98,285.01 173.28,286.57 173.59,288.07C173.88,289.5 174.18,290.9 174.49,292.24C174.78,293.49 175.08,294.71 175.4,295.84C175.69,296.87 175.98,297.87 176.3,298.77C176.59,299.57 176.88,300.32 177.21,300.98C177.49,301.55 177.78,302.07 178.11,302.51C178.39,302.89 178.69,303.21 179.01,303.47C179.3,303.7 179.66,304.1 179.92,304C180.34,303.85 180.56,302.49 180.82,301.4C181.23,299.66 181.43,296.79 181.73,294.45C182.03,292.06 182.33,289.63 182.63,287.2C182.93,284.73 183.23,282.24 183.53,279.74C183.83,277.22 184.14,274.67 184.44,272.13C184.74,269.57 185.04,267 185.34,264.43C185.64,261.85 185.95,259.26 186.25,256.68C186.55,254.1 186.85,251.51 187.15,248.93C187.45,246.36 187.75,243.79 188.05,241.23C188.35,238.69 188.66,236.15 188.96,233.63C189.26,231.14 189.56,228.65 189.86,226.19C190.16,223.76 190.47,221.35 190.77,218.96C191.07,216.62 191.36,214.29 191.67,212C191.97,209.77 192.27,207.55 192.58,205.38C192.88,203.28 193.17,201.2 193.48,199.17C193.77,197.22 194.07,195.29 194.38,193.43C194.67,191.65 194.98,189.91 195.29,188.23C195.58,186.65 195.88,185.1 196.19,183.63C196.48,182.26 196.78,180.92 197.1,179.67C197.39,178.53 197.68,177.42 198,176.41C198.28,175.51 198.57,174.65 198.9,173.89C199.18,173.24 199.47,172.6 199.81,172.11C200.09,171.7 200.38,171.31 200.71,171.09C200.99,170.91 201.32,170.79 201.62,170.81C201.92,170.83 202.24,171.01 202.52,171.22C202.85,171.46 203.14,171.85 203.42,172.24C203.75,172.69 204.04,173.23 204.33,173.79C204.65,174.4 204.94,175.07 205.23,175.77C205.54,176.52 205.85,177.33 206.14,178.16C206.45,179.05 206.75,179.98 207.04,180.94C207.35,181.97 207.66,183.04 207.95,184.15C208.26,185.33 208.56,186.55 208.85,187.81C209.16,189.14 209.46,190.52 209.75,191.94C210.06,193.43 210.36,194.97 210.66,196.54C210.97,198.19 211.26,199.88 211.56,201.61C211.87,203.41 212.17,205.26 212.47,207.14C212.78,209.09 213.07,211.08 213.37,213.1C213.67,215.18 213.97,217.3 214.27,219.45C214.58,221.65 214.88,223.89 215.18,226.15C215.48,228.45 215.78,230.79 216.08,233.13C216.38,235.5 216.69,237.9 216.99,240.29C217.29,242.69 217.59,245.11 217.89,247.5C218.19,249.86 218.48,252.24 218.79,254.53C219.09,256.73 219.38,259 219.7,261.01C219.98,262.77 220.19,265.9 220.6,265.96C220.86,266 221.25,264.94 221.51,264.21C221.9,263.12 222.13,261.51 222.41,259.95C222.74,258.08 223.03,255.91 223.32,253.75C223.64,251.4 223.93,248.88 224.22,246.37C224.53,243.77 224.82,241.07 225.12,238.4C225.42,235.7 225.73,232.96 226.03,230.25C226.33,227.56 226.63,224.85 226.93,222.19C227.23,219.58 227.53,216.98 227.84,214.43C228.14,211.94 228.43,209.47 228.74,207.06C229.04,204.73 229.33,202.43 229.64,200.18C229.94,198.01 230.24,195.88 230.55,193.79C230.85,191.78 231.14,189.82 231.45,187.88C231.75,186.01 232.05,184.18 232.36,182.36C232.66,180.58 232.96,178.84 233.26,177.09C233.56,175.34 233.86,173.61 234.16,171.84C234.47,170.03 234.77,168.22 235.07,166.34C235.38,164.38 235.68,162.38 235.97,160.32C236.28,158.15 236.58,155.9 236.88,153.61C237.19,151.21 237.48,148.74 237.78,146.25C238.08,143.68 238.38,141.04 238.68,138.4C238.98,135.71 239.29,132.99 239.59,130.27C239.89,127.54 240.19,124.8 240.49,122.07C240.79,119.35 241.1,116.63 241.4,113.94C241.7,111.28 242,108.63 242.3,106.01C242.6,103.44 242.9,100.88 243.21,98.37C243.51,95.92 243.81,93.49 244.11,91.1C244.41,88.78 244.7,86.5 245.01,84.26C245.31,82.1 245.61,79.97 245.92,77.9C246.22,75.91 246.51,73.95 246.82,72.05C247.11,70.24 247.42,68.47 247.73,66.76C248.02,65.14 248.32,63.56 248.63,62.05C248.92,60.63 249.22,59.25 249.53,57.94C249.82,56.72 250.12,55.55 250.44,54.44C250.73,53.43 251.02,52.46 251.34,51.56C251.63,50.75 251.93,49.98 252.25,49.29C252.53,48.68 252.82,48.1 253.15,47.61C253.43,47.19 253.72,46.8 254.05,46.51C254.33,46.26 254.64,46.05 254.96,45.95C255.25,45.85 255.56,45.83 255.86,45.87C256.17,45.91 256.48,46.05 256.77,46.21C257.08,46.39 257.38,46.65 257.67,46.91C257.98,47.19 258.29,47.53 258.58,47.87C258.89,48.23 259.18,48.62 259.48,49.02C259.78,49.43 260.08,49.86 260.38,50.29C260.68,50.73 260.99,51.17 261.29,51.62C261.59,52.07 261.89,52.52 262.19,52.98C262.49,53.44 262.8,53.9 263.1,54.37C263.4,54.84 263.7,55.32 264,55.81C264.3,56.31 264.6,56.82 264.9,57.35C265.21,57.89 265.51,58.45 265.81,59.02C266.12,59.62 266.41,60.23 266.71,60.87C267.02,61.54 267.32,62.22 267.62,62.93C267.93,63.67 268.23,64.44 268.52,65.23C268.83,66.05 269.12,66.89 269.42,67.76C269.73,68.66 270.03,69.59 270.33,70.54C270.64,71.52 270.93,72.52 271.23,73.54C271.54,74.59 271.84,75.66 272.14,76.74C272.44,77.84 272.74,78.96 273.04,80.08C273.34,81.22 273.65,82.37 273.95,83.51C274.25,84.65 274.55,85.8 274.85,86.94C275.15,88.06 275.44,89.18 275.75,90.28C276.05,91.35 276.35,92.41 276.66,93.43C276.96,94.41 277.25,95.37 277.56,96.29C277.85,97.15 278.16,97.99 278.47,98.78C278.76,99.51 279.06,100.21 279.37,100.87C279.66,101.49 279.96,102.07 280.27,102.63C280.56,103.17 280.88,103.66 281.18,104.17C281.48,104.67 281.78,105.15 282.08,105.66C282.39,106.19 282.7,106.72 282.99,107.29C283.3,107.9 283.6,108.54 283.89,109.22C284.2,109.97 284.5,110.76 284.79,111.6C285.11,112.53 285.41,113.52 285.7,114.55C286.02,115.68 286.31,116.88 286.6,118.13C286.92,119.49 287.22,120.92 287.51,122.4C287.82,123.99 288.12,125.65 288.41,127.36C288.72,129.19 289.03,131.09 289.32,133.03C289.63,135.08 289.93,137.21 290.22,139.37C290.53,141.64 290.82,143.97 291.12,146.34C291.43,148.8 291.73,151.33 292.03,153.88C292.34,156.52 292.63,159.21 292.93,161.92C293.24,164.7 293.54,167.53 293.84,170.37C294.14,173.26 294.44,176.19 294.74,179.12C295.04,182.08 295.34,185.08 295.64,188.06C295.94,191.06 296.25,194.06 296.55,197.06C296.85,200.04 297.15,203.04 297.45,206C297.75,208.93 298.06,211.85 298.36,214.73C298.66,217.55 298.95,220.36 299.26,223.1C299.55,225.73 299.85,228.37 300.16,230.85C300.45,233.16 300.74,235.47 301.07,237.52C301.35,239.28 301.62,240.99 301.97,242.42C302.24,243.55 302.48,244.74 302.88,245.43C303.14,245.87 303.51,246.4 303.78,246.36C304.13,246.3 304.42,245.23 304.68,244.46C305.06,243.35 305.3,241.75 305.59,240.28C305.91,238.65 306.19,236.85 306.49,235.1C306.8,233.3 307.1,231.45 307.4,229.63C307.7,227.81 307.99,225.98 308.3,224.19C308.6,222.44 308.9,220.69 309.21,218.99C309.51,217.34 309.8,215.71 310.11,214.14C310.4,212.65 310.7,211.18 311.01,209.78C311.3,208.46 311.6,207.18 311.92,205.97C312.21,204.86 312.5,203.79 312.82,202.81C313.11,201.93 313.4,201.08 313.73,200.34C314.01,199.7 314.29,199.08 314.63,198.61C314.91,198.22 315.2,197.84 315.53,197.66C315.81,197.51 316.15,197.43 316.44,197.5C316.76,197.57 317.06,197.86 317.34,198.15C317.68,198.51 317.97,199.04 318.25,199.59C318.58,200.24 318.87,201.02 319.15,201.82C319.47,202.73 319.76,203.75 320.05,204.8C320.37,205.96 320.67,207.21 320.96,208.5C321.27,209.89 321.57,211.36 321.86,212.87C322.17,214.48 322.48,216.15 322.77,217.86C323.08,219.65 323.37,221.5 323.67,223.38C323.98,225.34 324.28,227.34 324.58,229.37C324.89,231.46 325.18,233.59 325.48,235.73C325.78,237.92 326.08,240.14 326.38,242.37C326.68,244.62 326.99,246.89 327.29,249.16C327.59,251.43 327.89,253.72 328.19,255.98C328.49,258.22 328.8,260.47 329.1,262.68C329.4,264.85 329.69,267.01 330,269.12C330.29,271.15 330.59,273.17 330.9,275.1C331.19,276.91 331.49,278.72 331.81,280.36C332.1,281.82 332.35,283.31 332.71,284.46C332.98,285.33 333.21,286.33 333.62,286.7C333.88,286.93 334.24,287.03 334.52,286.95C334.85,286.86 335.14,286.35 335.42,285.97C335.75,285.53 336.03,284.98 336.33,284.45C336.64,283.9 336.93,283.31 337.23,282.73C337.53,282.14 337.84,281.55 338.14,280.95C338.44,280.35 338.75,279.76 339.04,279.12C339.35,278.43 339.65,277.69 339.95,276.95C340.26,276.19 340.54,275.37 340.85,274.63C341.14,273.95 341.43,273.28 341.75,272.68C342.04,272.14 342.34,271.63 342.66,271.2C342.94,270.83 343.24,270.47 343.56,270.23C343.84,270.02 344.16,269.84 344.47,269.77C344.76,269.71 345.08,269.72 345.37,269.8C345.68,269.88 345.98,270.07 346.27,270.27C346.59,270.5 346.89,270.8 347.18,271.12C347.5,271.47 347.79,271.87 348.08,272.29C348.39,272.73 348.69,273.22 348.99,273.71C349.3,274.23 349.6,274.77 349.89,275.32C350.2,275.9 350.49,276.49 350.79,277.1C351.1,277.73 351.4,278.37 351.7,279.02C352.01,279.69 352.3,280.38 352.6,281.07C352.9,281.77 353.21,282.49 353.51,283.21C353.81,283.93 354.11,284.66 354.41,285.39C354.71,286.11 355.02,286.84 355.32,287.56C355.62,288.27 355.92,288.98 356.22,289.67C356.52,290.34 356.81,291.01 357.12,291.65C357.42,292.27 357.72,292.87 358.03,293.45C358.32,294 358.62,294.53 358.93,295.03C359.22,295.5 359.53,295.96 359.84,296.37C360.13,296.75 360.47,297.45 360.74,297.41C361.09,297.35 361.37,296.12 361.64,295.28C362,294.15 362.25,292.57 362.55,291.21C362.85,289.85 363.15,288.47 363.45,287.11C363.75,285.76 364.06,284.4 364.36,283.06C364.66,281.74 364.96,280.42 365.26,279.12C365.56,277.85 365.85,276.58 366.16,275.35C366.46,274.16 366.76,272.98 367.07,271.83C367.37,270.72 367.66,269.63 367.97,268.58C368.26,267.58 368.57,266.61 368.88,265.67C369.17,264.79 369.47,263.93 369.78,263.12C370.07,262.36 370.36,261.62 370.68,260.94C370.97,260.31 371.27,259.71 371.59,259.16C371.88,258.66 372.17,258.19 372.49,257.77C372.78,257.39 373.08,257.04 373.4,256.75C373.69,256.49 373.99,256.26 374.3,256.09C374.59,255.94 374.9,255.83 375.21,255.77C375.51,255.71 375.81,255.7 376.11,255.72C376.41,255.74 376.71,255.82 377.01,255.91C377.32,256 377.62,256.13 377.92,256.26C378.22,256.39 378.52,256.55 378.82,256.7C379.12,256.85 379.43,257 379.73,257.14C380.03,257.27 380.33,257.41 380.63,257.51C380.93,257.61 381.23,257.69 381.53,257.73C381.83,257.77 382.14,257.77 382.44,257.73C382.74,257.69 383.05,257.59 383.34,257.47C383.65,257.34 383.96,257.16 384.25,256.96C384.56,256.74 384.86,256.48 385.15,256.2C385.46,255.91 385.76,255.58 386.05,255.24C386.36,254.88 386.66,254.49 386.96,254.1C387.27,253.69 387.56,253.27 387.86,252.84C388.17,252.4 388.47,251.95 388.77,251.48C389.08,251 389.37,250.52 389.67,250.01C389.98,249.48 390.29,248.94 390.58,248.37C390.89,247.76 391.19,247.13 391.48,246.46C391.79,245.74 392.09,244.97 392.38,244.19C392.69,243.36 392.99,242.48 393.29,241.61C393.59,240.73 393.89,239.82 394.19,238.94C394.49,238.07 394.79,237.2 395.1,236.35C395.4,235.53 395.69,234.72 396,233.95C396.29,233.21 396.59,232.49 396.9,231.81C397.19,231.17 397.5,230.56 397.81,229.98C398.1,229.45 398.39,228.93 398.71,228.47C399,228.04 399.3,227.64 399.62,227.29C399.91,226.97 400.21,226.68 400.52,226.45C400.81,226.24 401.11,226.07 401.42,225.95C401.71,225.84 402.03,225.77 402.33,225.76C402.63,225.75 402.94,225.8 403.23,225.88C403.54,225.97 403.85,226.12 404.14,226.29C404.45,226.47 404.75,226.7 405.04,226.95C405.35,227.22 405.66,227.53 405.95,227.86C406.26,228.2 406.56,228.58 406.85,228.97C407.16,229.38 407.45,229.81 407.75,230.26C408.06,230.72 408.36,231.21 408.66,231.7C408.97,232.21 409.26,232.74 409.56,233.27C409.86,233.81 410.17,234.36 410.47,234.91C410.77,235.47 411.07,236.05 411.37,236.62C411.67,237.19 411.97,237.77 412.27,238.35C412.57,238.93 412.88,239.51 413.18,240.08C413.48,240.65 413.78,241.22 414.08,241.78C414.38,242.33 414.68,242.88 414.99,243.41C415.29,243.93 415.59,244.45 415.89,244.95C416.19,245.44 416.48,245.91 416.79,246.37C417.09,246.82 417.39,247.25 417.7,247.67C418,248.07 418.29,248.45 418.6,248.82C418.9,249.17 419.2,249.51 419.51,249.83C419.81,250.14 420.1,250.43 420.41,250.7C420.71,250.97 421.01,251.21 421.32,251.45C421.62,251.68 421.92,251.91 422.22,252.12C422.52,252.33 422.82,252.52 423.12,252.71C423.42,252.9 423.73,253.09 424.03,253.27C424.33,253.45 424.63,253.62 424.93,253.8C425.23,253.98 425.54,254.17 425.84,254.35C426.14,254.53 426.44,254.71 426.74,254.9C427.04,255.09 427.34,255.28 427.64,255.47C427.94,255.66 428.25,255.86 428.55,256.05C428.85,256.24 429.15,256.43 429.45,256.61C429.75,256.79 430.06,256.96 430.36,257.12C430.66,257.28 430.96,257.43 431.26,257.56C431.56,257.69 431.86,257.81 432.16,257.9C432.46,257.99 432.77,258.06 433.07,258.12C433.37,258.18 433.67,258.21 433.97,258.24C434.27,258.27 434.58,258.27 434.88,258.27C435.18,258.27 435.48,258.26 435.78,258.26C436.08,258.26 436.38,258.25 436.68,258.25C436.98,258.25 437.29,258.26 437.59,258.28C437.89,258.3 438.19,258.33 438.49,258.38C438.79,258.43 439.1,258.5 439.4,258.58C439.7,258.66 440,258.76 440.3,258.87C440.61,258.98 440.91,259.12 441.21,259.26C441.51,259.4 441.81,259.55 442.11,259.71C442.41,259.87 442.71,260.05 443.01,260.21C443.31,260.37 443.62,260.54 443.92,260.69C444.22,260.83 444.52,260.98 444.82,261.09C445.12,261.2 445.42,261.3 445.73,261.35C446.03,261.4 446.33,261.43 446.63,261.42C446.93,261.41 447.23,261.36 447.53,261.3C447.83,261.24 448.14,261.14 448.44,261.04C448.74,260.94 449.04,260.8 449.34,260.68C449.64,260.55 449.95,260.42 450.25,260.29C450.55,260.16 450.85,260.04 451.15,259.92C451.45,259.81 451.75,259.7 452.05,259.6C452.35,259.51 452.66,259.42 452.96,259.35C453.26,259.28 453.56,259.23 453.86,259.19C454.16,259.15 454.47,259.12 454.77,259.11C455.07,259.1 455.37,259.1 455.67,259.11C455.97,259.12 456.28,259.14 456.58,259.17C456.88,259.2 457.18,259.23 457.48,259.27C457.78,259.31 458.08,259.35 458.38,259.4C458.68,259.45 458.99,259.5 459.29,259.55C459.59,259.6 459.89,259.64 460.19,259.68C460.49,259.72 460.8,259.76 461.1,259.79Q461.4,259.82 462,259.86" style="vector-effect: non-scaling-stroke; fill: none; stroke: rgb(231, 107, 243); stroke-opacity: 1; stroke-width: 2px; opacity: 1;"/></g><g class="points"/><g class="text"/></g></g></g><g class="overplot"/><path class="xlines-above crisp" d="M0,0" style="fill: none;"/><path class="ylines-above crisp" d="M0,0" style="fill: none;"/><g class="overlines-above"/><g class="xaxislayer-above"><g class="xtick"><text text-anchor="middle" x="0" y="433" transform="translate(80,0)" style="font-family: 'Open Sans', verdana, arial, sans-serif; font-size: 12px; fill: rgb(42, 63, 95); fill-opacity: 1; white-space: pre;">0</text></g><g class="xtick"><text text-anchor="middle" x="0" y="433" transform="translate(170.23000000000002,0)" style="font-family: 'Open Sans', verdana, arial, sans-serif; font-size: 12px; fill: rgb(42, 63, 95); fill-opacity: 1; white-space: pre;">100</text></g><g class="xtick"><text text-anchor="middle" x="0" y="433" transform="translate(260.47,0)" style="font-family: 'Open Sans', verdana, arial, sans-serif; font-size: 12px; fill: rgb(42, 63, 95); fill-opacity: 1; white-space: pre;">200</text></g><g class="xtick"><text text-anchor="middle" x="0" y="433" transform="translate(350.7,0)" style="font-family: 'Open Sans', verdana, arial, sans-serif; font-size: 12px; fill: rgb(42, 63, 95); fill-opacity: 1; white-space: pre;">300</text></g><g class="xtick"><text text-anchor="middle" x="0" y="433" transform="translate(440.94,0)" style="font-family: 'Open Sans', verdana, arial, sans-serif; font-size: 12px; fill: rgb(42, 63, 95); fill-opacity: 1; white-space: pre;">400</text></g><g class="xtick"><text text-anchor="middle" x="0" y="433" transform="translate(531.1700000000001,0)" style="font-family: 'Open Sans', verdana, arial, sans-serif; font-size: 12px; fill: rgb(42, 63, 95); fill-opacity: 1; white-space: pre;">500</text></g></g><g class="yaxislayer-above"><g class="ytick"><text text-anchor="end" x="79" y="4.199999999999999" transform="translate(0,377.14)" style="font-family: 'Open Sans', verdana, arial, sans-serif; font-size: 12px; fill: rgb(42, 63, 95); fill-opacity: 1; white-space: pre;">500</text></g><g class="ytick"><text text-anchor="end" x="79" y="4.199999999999999" transform="translate(0,319.76)" style="font-family: 'Open Sans', verdana, arial, sans-serif; font-size: 12px; fill: rgb(42, 63, 95); fill-opacity: 1; white-space: pre;">1000</text></g><g class="ytick"><text text-anchor="end" x="79" y="4.199999999999999" transform="translate(0,262.39)" style="font-family: 'Open Sans', verdana, arial, sans-serif; font-size: 12px; fill: rgb(42, 63, 95); fill-opacity: 1; white-space: pre;">1500</text></g><g class="ytick"><text text-anchor="end" x="79" y="4.199999999999999" transform="translate(0,205.01)" style="font-family: 'Open Sans', verdana, arial, sans-serif; font-size: 12px; fill: rgb(42, 63, 95); fill-opacity: 1; white-space: pre;">2000</text></g><g class="ytick"><text text-anchor="end" x="79" y="4.199999999999999" transform="translate(0,147.63)" style="font-family: 'Open Sans', verdana, arial, sans-serif; font-size: 12px; fill: rgb(42, 63, 95); fill-opacity: 1; white-space: pre;">2500</text></g></g><g class="overaxes-above"/></g></g><g class="polarlayer"/><g class="ternarylayer"/><g class="geolayer"/><g class="funnelarealayer"/><g class="pielayer"/><g class="treemaplayer"/><g class="sunburstlayer"/><g class="glimages"/><defs id="topdefs-c655ad"><g class="clips"/><clipPath id="legendc655ad"><rect width="137" height="67" x="0" y="0"/></clipPath></defs><g class="layer-above"><g class="imagelayer"/><g class="shapelayer"/></g><g class="infolayer"><g class="legend" pointer-events="all" transform="translate(551.24, 100)"><rect class="bg" shape-rendering="crispEdges" width="137" height="67" x="0" y="0" style="stroke: rgb(68, 68, 68); stroke-opacity: 1; fill: rgb(255, 255, 255); fill-opacity: 1; stroke-width: 0px;"/><g class="scrollbox" transform="translate(0, 0)" clip-path="url('#legendc655ad')"><g class="groups"><g class="traces" transform="translate(0, 14.5)" style="opacity: 1;"><text class="legendtext" text-anchor="start" x="40" y="4.680000000000001" style="font-family: 'Open Sans', verdana, arial, sans-serif; font-size: 12px; fill: rgb(42, 63, 95); fill-opacity: 1; white-space: pre;">Average Class I</text><g class="layers" style="opacity: 1;"><g class="legendfill"/><g class="legendlines"><path class="js-line" d="M5,0h30" style="fill: none; stroke: rgb(0, 100, 80); stroke-opacity: 1; stroke-width: 2px;"/></g><g class="legendsymbols"><g class="legendpoints"/></g></g><rect class="legendtoggle" x="0" y="-9.5" width="131.15625" height="19" style="fill: rgb(0, 0, 0); fill-opacity: 0;"/></g><g class="traces" transform="translate(0, 33.5)" style="opacity: 1;"><text class="legendtext" text-anchor="start" x="40" y="4.680000000000001" style="font-family: 'Open Sans', verdana, arial, sans-serif; font-size: 12px; fill: rgb(42, 63, 95); fill-opacity: 1; white-space: pre;">Average Class II</text><g class="layers" style="opacity: 1;"><g class="legendfill"/><g class="legendlines"><path class="js-line" d="M5,0h30" style="fill: none; stroke: rgb(0, 176, 246); stroke-opacity: 1; stroke-width: 2px;"/></g><g class="legendsymbols"><g class="legendpoints"/></g></g><rect class="legendtoggle" x="0" y="-9.5" width="131.15625" height="19" style="fill: rgb(0, 0, 0); fill-opacity: 0;"/></g><g class="traces" transform="translate(0, 52.5)" style="opacity: 1;"><text class="legendtext" text-anchor="start" x="40" y="4.680000000000001" style="font-family: 'Open Sans', verdana, arial, sans-serif; font-size: 12px; fill: rgb(42, 63, 95); fill-opacity: 1; white-space: pre;">Average Class III</text><g class="layers" style="opacity: 1;"><g class="legendfill"/><g class="legendlines"><path class="js-line" d="M5,0h30" style="fill: none; stroke: rgb(231, 107, 243); stroke-opacity: 1; stroke-width: 2px;"/></g><g class="legendsymbols"><g class="legendpoints"/></g></g><rect class="legendtoggle" x="0" y="-9.5" width="131.15625" height="19" style="fill: rgb(0, 0, 0); fill-opacity: 0;"/></g></g></g><rect class="scrollbar" rx="20" ry="3" width="0" height="0" x="0" y="0" style="fill: rgb(128, 139, 164); fill-opacity: 1;"/></g><g class="g-gtitle"><text class="gtitle" x="35" y="50" text-anchor="start" dy="0em" style="font-family: 'Open Sans', verdana, arial, sans-serif; font-size: 17px; fill: rgb(42, 63, 95); opacity: 1; font-weight: normal; white-space: pre;">Average curve: hydropathy_group</text></g><g class="g-xtitle"><text class="xtitle" x="311" y="460.8" text-anchor="middle" style="font-family: 'Open Sans', verdana, arial, sans-serif; font-size: 14px; fill: rgb(42, 63, 95); opacity: 1; font-weight: normal; white-space: pre;">Domain</text></g><g class="g-ytitle"><text class="ytitle" transform="rotate(-90,27.496875000000003,260)" x="27.496875000000003" y="260" text-anchor="middle" style="font-family: 'Open Sans', verdana, arial, sans-serif; font-size: 14px; fill: rgb(42, 63, 95); opacity: 1; font-weight: normal; white-space: pre;">Frequency</text></g></g></svg>