<svg class="main-svg" xmlns="http://www.w3.org/2000/svg" xmlns:xlink="http://www.w3.org/1999/xlink" width="700" height="500" style="" viewBox="0 0 700 500"><rect x="0" y="0" width="700" height="500" style="fill: rgb(255, 255, 255); fill-opacity: 1;"/><defs id="defs-7f9015"><g class="clips"><clipPath id="clip7f9015xyplot" class="plotclip"><rect width="462" height="320"/></clipPath><clipPath class="axesclip" id="clip7f9015x"><rect x="80" y="0" width="462" height="500"/></clipPath><clipPath class="axesclip" id="clip7f9015y"><rect x="0" y="100" width="700" height="320"/></clipPath><clipPath class="axesclip" id="clip7f9015xy"><rect x="80" y="100" width="462" height="320"/></clipPath></g><g class="gradients"/></defs><g class="bglayer"><rect class="bg" x="80" y="100" width="462" height="320" style="fill: rgb(229, 236, 246); fill-opacity: 1; stroke-width: 0;"/></g><g class="layer-below"><g class="imagelayer"/><g class="shapelayer"/></g><g class="cartesianlayer"><g class="subplot xy"><g class="layer-subplot"><g class="shapelayer"/><g class="imagelayer"/></g><g class="gridlayer"><g class="x"><path class="xgrid crisp" transform="translate(170.23000000000002,0)" d="M0,100v320" style="stroke: rgb(255, 255, 255); stroke-opacity: 1; stroke-width: 1px;"/><path class="xgrid crisp" transform="translate(260.47,0)" d="M0,100v320" style="stroke: rgb(255, 255, 255); stroke-opacity: 1; stroke-width: 1px;"/><path class="xgrid crisp" transform="translate(350.7,0)" d="M0,100v320" style="stroke: rgb(255, 255, 255); stroke-opacity: 1; stroke-width: 1px;"/><path class="xgrid crisp" transform="translate(440.94,0)" d="M0,100v320" style="stroke: rgb(255, 255, 255); stroke-opacity: 1; stroke-width: 1px;"/><path class="xgrid crisp" transform="translate(531.1700000000001,0)" d="M0,100v320" style="stroke: rgb(255, 255, 255); stroke-opacity: 1; stroke-width: 1px;"/></g><g class="y"><path class="ygrid crisp" transform="translate(0,393.95)" d="M80,0h462" style="stroke: rgb(255, 255, 255); stroke-opacity: 1; stroke-width: 1px;"/><path class="ygrid crisp" transform="translate(0,320.36)" d="M80,0h462" style="stroke: rgb(255, 255, 255); stroke-opacity: 1; stroke-width: 1px;"/><path class="ygrid crisp" transform="translate(0,246.78)" d="M80,0h462" style="stroke: rgb(255, 255, 255); stroke-opacity: 1; stroke-width: 1px;"/><path class="ygrid crisp" transform="translate(0,173.19)" d="M80,0h462" style="stroke: rgb(255, 255, 255); stroke-opacity: 1; stroke-width: 1px;"/></g></g><g class="zerolinelayer"><path class="xzl zl crisp" transform="translate(80,0)" d="M0,100v320" style="stroke: rgb(255, 255, 255); stroke-opacity: 1; stroke-width: 2px;"/></g><path class="xlines-below"/><path class="ylines-below"/><g class="overlines-below"/><g class="xaxislayer-below"/><g class="yaxislayer-below"/><g class="overaxes-below"/><g class="plot" transform="translate(80, 100)" clip-path="url('#clip7f9015xyplot')"><g class="scatterlayer mlayer"><g class="trace scatter tracea46f67" style="stroke-miterlimit: 2; opacity: 1;"><g class="fills"/><g class="errorbars"/><g class="lines"><path class="js-line" d="M0,51.93Q0.61,52.03 0.9,52.17C1.22,52.33 1.53,52.6 1.81,52.89C2.13,53.22 2.42,53.65 2.71,54.1C3.03,54.61 3.33,55.19 3.62,55.8C3.94,56.48 4.23,57.24 4.52,58.02C4.84,58.88 5.13,59.8 5.42,60.76C5.74,61.8 6.04,62.9 6.33,64.04C6.64,65.27 6.94,66.56 7.23,67.88C7.54,69.29 7.85,70.76 8.14,72.27C8.45,73.87 8.75,75.52 9.04,77.22C9.35,79.01 9.65,80.85 9.95,82.73C10.26,84.7 10.56,86.72 10.85,88.78C11.16,90.92 11.45,93.12 11.75,95.35C12.06,97.66 12.36,100.03 12.66,102.42C12.97,104.88 13.26,107.39 13.56,109.93C13.87,112.53 14.17,115.17 14.47,117.83C14.77,120.54 15.07,123.29 15.37,126.05C15.67,128.85 15.97,131.68 16.27,134.52C16.57,137.38 16.88,140.26 17.18,143.14C17.48,146.03 17.78,148.93 18.08,151.81C18.38,154.69 18.69,157.56 18.99,160.42C19.29,163.25 19.59,166.08 19.89,168.86C20.19,171.59 20.48,174.33 20.79,176.97C21.09,179.49 21.39,181.99 21.7,184.37C21.99,186.6 22.28,188.8 22.6,190.84C22.89,192.68 23.18,194.47 23.51,196.09C23.79,197.5 24.08,198.84 24.41,200.04C24.69,201.06 24.97,202.07 25.32,202.85C25.59,203.45 25.85,204.12 26.22,204.37C26.48,204.55 26.85,204.63 27.12,204.52C27.47,204.38 27.76,203.82 28.03,203.33C28.39,202.68 28.65,201.8 28.93,200.89C29.27,199.79 29.56,198.51 29.84,197.16C30.17,195.58 30.46,193.83 30.74,191.99C31.06,189.88 31.35,187.54 31.64,185.18C31.95,182.63 32.26,179.97 32.55,177.22C32.86,174.27 33.15,171.13 33.45,168.02C33.76,164.82 34.06,161.54 34.36,158.29C34.66,155.03 34.96,151.75 35.26,148.5C35.56,145.28 35.86,142.05 36.16,138.87C36.46,135.74 36.76,132.62 37.07,129.56C37.37,126.57 37.66,123.61 37.97,120.71C38.27,117.9 38.57,115.13 38.88,112.43C39.18,109.83 39.47,107.28 39.78,104.8C40.07,102.44 40.37,100.12 40.68,97.89C40.97,95.79 41.28,93.73 41.59,91.77C41.88,89.95 42.17,88.17 42.49,86.5C42.78,84.97 43.08,83.49 43.4,82.12C43.69,80.89 43.97,79.71 44.3,78.66C44.58,77.75 44.87,76.88 45.21,76.16C45.49,75.58 45.76,74.99 46.11,74.64C46.38,74.37 46.71,74.12 47.01,74.11C47.31,74.1 47.65,74.33 47.92,74.58C48.27,74.91 48.54,75.48 48.82,76.05C49.16,76.75 49.45,77.62 49.73,78.52C50.06,79.56 50.35,80.74 50.63,81.96C50.95,83.33 51.24,84.82 51.53,86.36C51.85,88.05 52.15,89.85 52.44,91.7C52.75,93.7 53.05,95.79 53.34,97.94C53.65,100.23 53.96,102.61 54.25,105.05C54.56,107.62 54.86,110.28 55.15,112.99C55.46,115.83 55.75,118.74 56.05,121.71C56.36,124.8 56.66,127.96 56.96,131.16C57.27,134.48 57.56,137.86 57.86,141.28C58.17,144.8 58.47,148.39 58.77,152.01C59.08,155.72 59.37,159.49 59.67,163.28C59.97,167.15 60.28,171.07 60.58,175.01C60.88,179.01 61.18,183.06 61.48,187.12C61.78,191.22 62.08,195.35 62.38,199.48C62.68,203.63 62.99,207.81 63.29,211.97C63.59,216.13 63.89,220.31 64.19,224.46C64.49,228.59 64.8,232.71 65.1,236.8C65.4,240.83 65.7,244.87 66,248.82C66.3,252.67 66.59,256.52 66.9,260.21C67.19,263.69 67.5,267.11 67.81,270.37C68.1,273.39 68.39,276.39 68.71,279.11C68.99,281.5 69.27,283.87 69.62,285.82C69.89,287.34 70.1,288.92 70.52,289.85C70.78,290.42 71.13,291.11 71.42,291.09C71.74,291.07 72.07,290.13 72.33,289.44C72.72,288.42 72.95,286.89 73.23,285.45C73.56,283.77 73.85,281.89 74.14,279.96C74.46,277.81 74.75,275.51 75.04,273.15C75.35,270.6 75.65,267.89 75.95,265.2C76.26,262.43 76.55,259.58 76.85,256.76C77.15,253.92 77.45,251.05 77.75,248.21C78.05,245.39 78.36,242.58 78.66,239.8C78.96,237.08 79.25,234.37 79.56,231.71C79.86,229.13 80.16,226.58 80.47,224.08C80.77,221.67 81.06,219.3 81.37,216.98C81.66,214.76 81.96,212.57 82.27,210.45C82.57,208.42 82.87,206.43 83.18,204.51C83.47,202.69 83.77,200.91 84.08,199.21C84.37,197.63 84.67,196.08 84.99,194.63C85.28,193.3 85.57,192.02 85.89,190.84C86.18,189.78 86.46,188.76 86.79,187.85C87.07,187.06 87.36,186.3 87.7,185.68C87.98,185.16 88.26,184.66 88.6,184.34C88.88,184.08 89.2,183.84 89.51,183.8C89.8,183.76 90.13,183.87 90.41,184.04C90.74,184.24 91.04,184.63 91.32,185.02C91.65,185.48 91.94,186.07 92.22,186.68C92.54,187.37 92.83,188.14 93.12,188.94C93.44,189.81 93.74,190.75 94.03,191.7C94.34,192.71 94.63,193.78 94.93,194.85C95.24,195.96 95.54,197.1 95.84,198.24C96.14,199.39 96.44,200.56 96.74,201.7C97.04,202.83 97.33,203.96 97.64,205.06C97.94,206.12 98.24,207.18 98.55,208.18C98.84,209.12 99.13,210.05 99.45,210.91C99.74,211.69 100.03,212.46 100.36,213.12C100.64,213.69 100.93,214.24 101.26,214.67C101.54,215.03 101.84,215.34 102.16,215.55C102.45,215.73 102.76,215.85 103.07,215.91C103.37,215.97 103.67,215.97 103.97,215.94C104.27,215.91 104.58,215.84 104.88,215.74C105.19,215.64 105.49,215.5 105.78,215.32C106.09,215.13 106.39,214.9 106.68,214.63C107,214.32 107.3,213.95 107.59,213.55C107.91,213.11 108.2,212.61 108.49,212.1C108.8,211.54 109.1,210.93 109.4,210.32C109.71,209.68 110,209 110.3,208.34C110.6,207.68 110.9,207.02 111.21,206.38C111.51,205.77 111.8,205.15 112.11,204.59C112.4,204.07 112.69,203.56 113.01,203.12C113.3,202.73 113.6,202.34 113.92,202.06C114.2,201.81 114.51,201.59 114.82,201.49C115.11,201.4 115.44,201.37 115.73,201.44C116.04,201.51 116.35,201.72 116.63,201.95C116.96,202.22 117.25,202.62 117.53,203.03C117.86,203.51 118.15,204.08 118.44,204.68C118.76,205.35 119.05,206.1 119.34,206.88C119.66,207.74 119.96,208.66 120.25,209.62C120.56,210.65 120.86,211.74 121.15,212.86C121.46,214.05 121.76,215.29 122.05,216.55C122.36,217.88 122.66,219.25 122.96,220.64C123.27,222.08 123.56,223.56 123.86,225.03C124.16,226.52 124.47,228.05 124.77,229.54C125.07,231.02 125.36,232.5 125.67,233.95C125.97,235.36 126.27,236.8 126.58,238.13C126.87,239.36 127.15,240.61 127.48,241.68C127.76,242.59 128.01,243.52 128.38,244.15C128.65,244.61 128.95,245.12 129.29,245.23C129.57,245.32 129.91,245.17 130.19,245C130.53,244.79 130.82,244.34 131.1,243.93C131.43,243.45 131.71,242.85 132,242.25C132.31,241.6 132.6,240.86 132.9,240.15C133.21,239.41 133.51,238.64 133.81,237.89C134.11,237.14 134.4,236.37 134.71,235.63C135.01,234.91 135.31,234.18 135.62,233.49C135.92,232.82 136.21,232.16 136.52,231.54C136.81,230.95 137.11,230.37 137.42,229.83C137.71,229.33 138.01,228.85 138.33,228.41C138.62,228.01 138.91,227.62 139.23,227.3C139.52,227 139.82,226.73 140.14,226.53C140.43,226.34 140.73,226.18 141.04,226.1C141.34,226.02 141.65,225.99 141.95,226.03C142.25,226.07 142.56,226.17 142.85,226.32C143.16,226.48 143.46,226.71 143.75,226.96C144.07,227.24 144.37,227.59 144.66,227.95C144.98,228.34 145.27,228.79 145.56,229.25C145.87,229.75 146.18,230.28 146.47,230.84C146.78,231.43 147.08,232.05 147.37,232.7C147.68,233.39 147.98,234.1 148.27,234.85C148.58,235.64 148.89,236.47 149.18,237.33C149.49,238.25 149.79,239.2 150.08,240.19C150.39,241.24 150.7,242.33 150.99,243.46C151.3,244.65 151.6,245.89 151.89,247.16C152.2,248.5 152.49,249.88 152.79,251.29C153.1,252.77 153.4,254.29 153.7,255.83C154.01,257.43 154.3,259.07 154.6,260.72C154.91,262.41 155.21,264.14 155.51,265.86C155.81,267.6 156.11,269.37 156.41,271.11C156.71,272.83 157.01,274.56 157.32,276.24C157.62,277.85 157.9,279.53 158.22,280.99C158.5,282.27 158.77,283.54 159.12,284.55C159.39,285.34 159.67,286.08 160.03,286.6C160.3,286.99 160.6,287.37 160.93,287.51C161.21,287.63 161.55,287.6 161.84,287.5C162.16,287.38 162.46,287.07 162.74,286.76C163.07,286.4 163.36,285.91 163.64,285.41C163.96,284.84 164.26,284.18 164.55,283.52C164.86,282.81 165.16,282.05 165.45,281.28C165.76,280.47 166.07,279.64 166.36,278.77C166.67,277.86 166.96,276.89 167.26,275.93C167.56,274.95 167.87,273.99 168.16,272.97C168.47,271.89 168.77,270.74 169.07,269.62C169.37,268.49 169.67,267.35 169.97,266.22C170.27,265.08 170.58,263.95 170.88,262.8C171.18,261.63 171.49,260.45 171.78,259.24C172.09,257.98 172.39,256.7 172.68,255.37C172.99,253.95 173.3,252.48 173.59,250.97C173.9,249.38 174.19,247.73 174.49,246.08C174.79,244.4 175.1,242.71 175.4,240.98C175.71,239.19 176,237.37 176.3,235.51C176.61,233.59 176.91,231.6 177.21,229.65C177.51,227.7 177.81,225.74 178.11,223.81C178.41,221.92 178.7,220.03 179.01,218.18C179.31,216.38 179.61,214.6 179.92,212.85C180.22,211.16 180.51,209.49 180.82,207.86C181.12,206.29 181.42,204.74 181.73,203.24C182.03,201.8 182.32,200.39 182.63,199.03C182.92,197.73 183.22,196.46 183.53,195.24C183.82,194.09 184.13,192.97 184.44,191.9C184.73,190.9 185.02,189.94 185.34,189.03C185.63,188.2 185.93,187.4 186.25,186.66C186.54,185.99 186.83,185.35 187.15,184.79C187.43,184.29 187.72,183.82 188.05,183.44C188.33,183.11 188.64,182.81 188.96,182.63C189.24,182.47 189.56,182.36 189.86,182.35C190.16,182.34 190.48,182.45 190.77,182.6C191.09,182.77 191.39,183.07 191.67,183.39C192,183.76 192.29,184.22 192.58,184.71C192.9,185.26 193.19,185.89 193.48,186.55C193.8,187.28 194.09,188.07 194.38,188.89C194.7,189.79 195,190.74 195.29,191.73C195.6,192.79 195.9,193.91 196.19,195.05C196.5,196.26 196.81,197.52 197.1,198.81C197.41,200.16 197.71,201.56 198,202.98C198.31,204.46 198.6,205.99 198.9,207.53C199.21,209.12 199.51,210.74 199.81,212.38C200.12,214.06 200.41,215.76 200.71,217.47C201.01,219.2 201.32,220.96 201.62,222.71C201.92,224.47 202.22,226.24 202.52,228C202.82,229.75 203.11,231.51 203.42,233.23C203.72,234.9 204.02,236.55 204.33,238.16C204.63,239.7 204.92,241.2 205.23,242.69C205.53,244.15 205.83,245.59 206.14,247.01C206.44,248.4 206.74,249.74 207.04,251.11C207.34,252.48 207.65,253.86 207.95,255.24C208.25,256.63 208.55,258.04 208.85,259.44C209.15,260.85 209.45,262.27 209.75,263.68C210.05,265.09 210.35,266.54 210.66,267.92C210.96,269.25 211.25,270.56 211.56,271.82C211.85,273 212.15,274.17 212.47,275.25C212.76,276.24 213.04,277.22 213.37,278.07C213.65,278.81 213.92,279.56 214.27,280.08C214.54,280.48 214.85,280.91 215.18,281C215.46,281.07 215.8,280.92 216.08,280.74C216.42,280.52 216.71,280.07 216.99,279.65C217.32,279.16 217.62,278.6 217.89,277.94C218.23,277.11 218.51,276.08 218.79,275.01C219.12,273.73 219.4,272.2 219.7,270.76C220.01,269.27 220.3,267.73 220.6,266.19C220.9,264.63 221.21,263.04 221.51,261.46C221.81,259.86 222.11,258.25 222.41,256.65C222.71,255.05 223.02,253.44 223.32,251.85C223.62,250.29 223.92,248.73 224.22,247.2C224.52,245.7 224.81,244.22 225.12,242.77C225.42,241.36 225.72,239.97 226.03,238.6C226.33,237.27 226.62,235.97 226.93,234.68C227.23,233.43 227.54,232.2 227.84,230.98C228.14,229.78 228.44,228.6 228.74,227.4C229.04,226.18 229.35,224.99 229.64,223.7C229.96,222.29 230.26,220.81 230.55,219.26C230.87,217.58 231.16,215.82 231.45,213.98C231.76,211.99 232.07,209.88 232.36,207.74C232.67,205.48 232.96,203.12 233.26,200.78C233.56,198.4 233.86,195.99 234.16,193.57C234.46,191.12 234.77,188.66 235.07,186.18C235.37,183.67 235.67,181.15 235.97,178.62C236.27,176.06 236.58,173.48 236.88,170.89C237.18,168.28 237.48,165.67 237.78,163.04C238.08,160.39 238.38,157.74 238.68,155.07C238.98,152.38 239.29,149.68 239.59,146.95C239.89,144.18 240.19,141.41 240.49,138.59C240.8,135.69 241.1,132.77 241.4,129.79C241.71,126.7 242,123.55 242.3,120.37C242.61,117.1 242.91,113.77 243.21,110.44C243.51,107.07 243.81,103.66 244.11,100.26C244.41,96.86 244.71,93.44 245.01,90.05C245.31,86.69 245.62,83.34 245.92,80.03C246.22,76.78 246.51,73.55 246.82,70.37C247.12,67.28 247.42,64.21 247.73,61.21C248.03,58.32 248.32,55.46 248.63,52.68C248.92,50.02 249.22,47.39 249.53,44.86C249.82,42.46 250.13,40.11 250.44,37.86C250.73,35.75 251.03,33.69 251.34,31.74C251.63,29.94 251.93,28.19 252.25,26.55C252.54,25.07 252.83,23.64 253.15,22.34C253.43,21.2 253.72,20.11 254.05,19.17C254.33,18.38 254.61,17.61 254.96,17.05C255.23,16.61 255.52,16.15 255.86,16C256.14,15.88 256.5,15.9 256.77,16.04C257.12,16.21 257.4,16.7 257.67,17.16C258.02,17.75 258.3,18.55 258.58,19.37C258.91,20.34 259.2,21.46 259.48,22.63C259.8,23.96 260.09,25.41 260.38,26.92C260.7,28.59 261,30.37 261.29,32.21C261.6,34.2 261.9,36.3 262.19,38.45C262.5,40.74 262.81,43.13 263.1,45.57C263.41,48.14 263.71,50.8 264,53.51C264.31,56.34 264.6,59.25 264.9,62.2C265.21,65.26 265.51,68.39 265.81,71.56C266.12,74.82 266.41,78.13 266.71,81.48C267.02,84.91 267.32,88.38 267.62,91.88C267.92,95.44 268.22,99.03 268.52,102.64C268.82,106.29 269.12,109.96 269.42,113.64C269.72,117.33 270.03,121.05 270.33,124.75C270.63,128.44 270.93,132.15 271.23,135.82C271.53,139.46 271.84,143.11 272.14,146.7C272.44,150.23 272.73,153.77 273.04,157.18C273.33,160.43 273.64,163.61 273.95,166.69C274.24,169.6 274.54,172.43 274.85,175.19C275.14,177.82 275.44,180.39 275.75,182.88C276.04,185.23 276.35,187.53 276.66,189.73C276.95,191.78 277.24,193.8 277.56,195.67C277.85,197.36 278.14,199.02 278.47,200.46C278.75,201.67 279.05,202.74 279.37,203.76C279.65,204.66 279.95,205.49 280.27,206.26C280.56,206.94 280.86,207.58 281.18,208.16C281.47,208.68 281.76,209.17 282.08,209.6C282.37,209.99 282.66,210.37 282.99,210.63C283.27,210.86 283.58,211.02 283.89,211.13C284.18,211.23 284.49,211.24 284.79,211.28C285.09,211.32 285.4,211.34 285.7,211.38C286,211.42 286.3,211.46 286.6,211.54C286.91,211.62 287.21,211.73 287.51,211.86C287.81,211.99 288.11,212.15 288.41,212.31C288.71,212.47 289.03,212.61 289.32,212.83C289.64,213.07 289.94,213.38 290.22,213.72C290.54,214.1 290.83,214.55 291.12,215.03C291.44,215.56 291.74,216.14 292.03,216.75C292.35,217.42 292.64,218.14 292.93,218.88C293.24,219.68 293.55,220.52 293.84,221.38C294.15,222.3 294.45,223.26 294.74,224.24C295.05,225.27 295.35,226.34 295.64,227.43C295.95,228.57 296.25,229.75 296.55,230.95C296.86,232.19 297.15,233.45 297.45,234.73C297.76,236.05 298.06,237.39 298.36,238.74C298.66,240.12 298.96,241.51 299.26,242.91C299.56,244.32 299.86,245.74 300.16,247.15C300.46,248.55 300.76,249.98 301.07,251.34C301.36,252.64 301.64,254 301.97,255.13C302.25,256.08 302.53,256.99 302.88,257.7C303.15,258.26 303.43,258.82 303.78,259.12C304.05,259.35 304.39,259.54 304.68,259.5C305,259.45 305.32,259.11 305.59,258.76C305.96,258.27 306.22,257.47 306.49,256.65C306.84,255.59 307.11,254.24 307.4,252.91C307.72,251.41 308.01,249.81 308.3,248.1C308.62,246.17 308.92,244.05 309.21,241.9C309.52,239.59 309.81,237.12 310.11,234.7C310.41,232.25 310.71,229.79 311.01,227.29C311.32,224.74 311.62,222.14 311.92,219.54C312.22,216.9 312.52,214.22 312.82,211.58C313.12,208.96 313.43,206.35 313.73,203.76C314.03,201.22 314.33,198.68 314.63,196.19C314.93,193.76 315.22,191.35 315.53,188.99C315.83,186.71 316.13,184.46 316.44,182.27C316.74,180.18 317.03,178.12 317.34,176.14C317.63,174.27 317.94,172.44 318.25,170.69C318.54,169.06 318.84,167.47 319.15,165.97C319.44,164.6 319.73,163.27 320.05,162.05C320.34,160.96 320.63,159.9 320.96,158.97C321.24,158.16 321.52,157.39 321.86,156.76C322.14,156.25 322.42,155.73 322.77,155.44C323.04,155.21 323.37,155.02 323.67,155.03C323.98,155.04 324.31,155.27 324.58,155.53C324.93,155.85 325.2,156.39 325.48,156.93C325.82,157.59 326.1,158.39 326.38,159.22C326.71,160.18 327,161.25 327.29,162.36C327.61,163.6 327.9,164.95 328.19,166.34C328.51,167.85 328.81,169.45 329.1,171.09C329.41,172.85 329.71,174.7 330,176.59C330.31,178.59 330.61,180.65 330.9,182.76C331.21,184.97 331.51,187.24 331.81,189.54C332.12,191.93 332.41,194.39 332.71,196.86C333.02,199.4 333.32,202 333.62,204.6C333.92,207.25 334.22,209.94 334.52,212.62C334.82,215.31 335.12,218.02 335.42,220.72C335.72,223.41 336.03,226.09 336.33,228.78C336.63,231.46 336.93,234.15 337.23,236.82C337.53,239.47 337.84,242.11 338.14,244.72C338.44,247.29 338.73,249.85 339.04,252.37C339.34,254.83 339.64,257.27 339.95,259.66C340.25,261.96 340.54,264.25 340.85,266.45C341.14,268.54 341.43,270.62 341.75,272.57C342.04,274.37 342.34,276.12 342.66,277.74C342.95,279.18 343.23,280.57 343.56,281.81C343.84,282.87 344.14,283.86 344.47,284.73C344.75,285.46 345.02,286.18 345.37,286.7C345.64,287.1 345.95,287.59 346.27,287.65C346.55,287.7 346.91,287.45 347.18,287.21C347.53,286.91 347.79,286.34 348.08,285.85C348.4,285.32 348.69,284.73 348.99,284.15C349.3,283.56 349.6,282.96 349.89,282.34C350.2,281.7 350.49,281.01 350.79,280.36C351.09,279.72 351.4,279.08 351.7,278.45C352,277.83 352.29,277.22 352.6,276.62C352.9,276.04 353.2,275.47 353.51,274.92C353.81,274.4 354.1,273.89 354.41,273.4C354.71,272.93 355.01,272.48 355.32,272.05C355.62,271.63 355.91,271.23 356.22,270.85C356.51,270.48 356.81,270.13 357.12,269.79C357.42,269.46 357.73,269.15 358.03,268.84C358.33,268.53 358.63,268.24 358.93,267.94C359.23,267.63 359.54,267.32 359.84,267C360.14,266.68 360.44,266.35 360.74,266.02C361.04,265.69 361.34,265.35 361.64,265.01C361.94,264.66 362.25,264.3 362.55,263.93C362.86,263.55 363.15,263.14 363.45,262.74C363.75,262.34 364.06,261.93 364.36,261.52C364.66,261.11 364.96,260.7 365.26,260.29C365.56,259.88 365.86,259.47 366.16,259.07C366.46,258.68 366.76,258.29 367.07,257.93C367.36,257.59 367.66,257.24 367.97,256.95C368.26,256.68 368.56,256.41 368.88,256.22C369.17,256.04 369.47,255.89 369.78,255.82C370.07,255.75 370.38,255.74 370.68,255.79C370.99,255.84 371.3,255.97 371.59,256.13C371.91,256.31 372.2,256.56 372.49,256.84C372.81,257.14 373.11,257.51 373.4,257.89C373.71,258.3 374,258.76 374.3,259.21C374.61,259.67 374.91,260.15 375.21,260.62C375.51,261.09 375.81,261.57 376.11,262.05C376.41,262.52 376.71,263.01 377.01,263.47C377.31,263.93 377.61,264.38 377.92,264.81C378.22,265.22 378.51,265.62 378.82,266C379.12,266.36 379.42,266.7 379.73,267.02C380.02,267.32 380.32,267.61 380.63,267.86C380.92,268.09 381.22,268.32 381.53,268.48C381.82,268.63 382.13,268.75 382.44,268.79C382.74,268.83 383.05,268.83 383.34,268.75C383.65,268.67 383.97,268.49 384.25,268.27C384.58,268.02 384.87,267.66 385.15,267.27C385.47,266.83 385.76,266.29 386.05,265.73C386.37,265.1 386.67,264.4 386.96,263.66C387.28,262.83 387.57,261.93 387.86,260.98C388.18,259.92 388.48,258.78 388.77,257.57C389.09,256.22 389.38,254.76 389.67,253.26C389.99,251.63 390.29,249.89 390.58,248.13C390.89,246.27 391.19,244.34 391.48,242.4C391.79,240.39 392.08,238.32 392.38,236.25C392.69,234.13 392.99,231.97 393.29,229.81C393.59,227.62 393.89,225.41 394.19,223.21C394.49,221.01 394.8,218.8 395.1,216.62C395.4,214.46 395.7,212.31 396,210.19C396.3,208.11 396.59,206.05 396.9,204.03C397.2,202.07 397.5,200.14 397.81,198.25C398.11,196.44 398.4,194.65 398.71,192.92C399,191.28 399.31,189.67 399.62,188.13C399.91,186.68 400.21,185.28 400.52,183.94C400.81,182.71 401.1,181.51 401.42,180.4C401.71,179.39 402.01,178.42 402.33,177.55C402.61,176.78 402.9,176.04 403.23,175.42C403.51,174.9 403.8,174.39 404.14,174.05C404.42,173.77 404.73,173.51 405.04,173.44C405.33,173.38 405.67,173.46 405.95,173.61C406.28,173.79 406.57,174.17 406.85,174.55C407.19,175.02 407.47,175.63 407.75,176.26C408.08,176.99 408.37,177.84 408.66,178.71C408.98,179.69 409.27,180.75 409.56,181.85C409.88,183.04 410.18,184.31 410.47,185.6C410.78,186.97 411.08,188.39 411.37,189.85C411.68,191.39 411.97,193.01 412.27,194.63C412.58,196.31 412.88,198.02 413.18,199.76C413.49,201.56 413.78,203.4 414.08,205.27C414.39,207.19 414.69,209.16 414.99,211.13C415.29,213.14 415.59,215.19 415.89,217.23C416.19,219.29 416.49,221.36 416.79,223.43C417.09,225.5 417.4,227.57 417.7,229.63C418,231.67 418.3,233.72 418.6,235.74C418.9,237.72 419.2,239.7 419.51,241.61C419.81,243.44 420.09,245.26 420.41,246.96C420.7,248.53 421,250.05 421.32,251.46C421.61,252.71 421.88,253.95 422.22,254.99C422.5,255.83 422.79,256.57 423.12,257.24C423.4,257.82 423.72,258.31 424.03,258.82C424.33,259.31 424.63,259.78 424.93,260.26C425.23,260.73 425.54,261.2 425.84,261.67C426.14,262.13 426.44,262.59 426.74,263.04C427.04,263.48 427.33,263.92 427.64,264.34C427.94,264.74 428.24,265.14 428.55,265.51C428.84,265.86 429.14,266.21 429.45,266.51C429.74,266.79 430.04,267.06 430.36,267.25C430.65,267.43 430.95,267.57 431.26,267.64C431.55,267.71 431.87,267.73 432.16,267.67C432.47,267.61 432.78,267.45 433.07,267.28C433.38,267.1 433.67,266.85 433.97,266.61C434.28,266.36 434.58,266.1 434.88,265.83C435.18,265.56 435.48,265.28 435.78,265C436.08,264.73 436.38,264.44 436.68,264.18C436.98,263.92 437.28,263.68 437.59,263.45C437.89,263.23 438.18,263.02 438.49,262.84C438.79,262.67 439.09,262.52 439.4,262.4C439.7,262.28 440,262.18 440.3,262.11C440.6,262.04 440.91,261.99 441.21,261.97C441.51,261.95 441.81,261.96 442.11,261.98C442.41,262 442.71,262.05 443.01,262.12C443.31,262.19 443.62,262.28 443.92,262.38C444.22,262.48 444.52,262.6 444.82,262.72C445.12,262.84 445.42,263 445.73,263.11C446.03,263.22 446.33,263.35 446.63,263.38C446.93,263.41 447.24,263.38 447.53,263.28C447.85,263.17 448.16,262.96 448.44,262.7C448.77,262.39 449.04,261.9 449.34,261.47C449.65,261.03 449.95,260.54 450.25,260.09C450.55,259.64 450.85,259.2 451.15,258.77C451.45,258.35 451.74,257.94 452.05,257.54C452.35,257.16 452.65,256.78 452.96,256.43C453.26,256.09 453.55,255.76 453.86,255.46C454.16,255.17 454.46,254.89 454.77,254.65C455.06,254.42 455.36,254.21 455.67,254.04C455.97,253.88 456.27,253.74 456.58,253.64C456.88,253.55 457.18,253.48 457.48,253.47C457.78,253.46 458.08,253.49 458.38,253.55C458.69,253.61 458.99,253.73 459.29,253.86C459.6,254 459.89,254.18 460.19,254.37C460.5,254.56 460.8,254.8 461.1,255.01Q461.4,255.22 462,255.63" style="vector-effect: non-scaling-stroke; fill: none; stroke: rgb(0, 100, 80); stroke-opacity: 1; stroke-width: 2px; opacity: 1;"/></g><g class="points"/><g class="text"/></g><g class="trace scatter trace48cfce" style="stroke-miterlimit: 2; opacity: 1;"><g class="fills"/><g class="errorbars"/><g class="lines"><path class="js-line" d="M0,117.71Q0.62,117.83 0.9,118C1.23,118.19 1.53,118.51 1.81,118.85C2.14,119.24 2.43,119.74 2.71,120.26C3.03,120.85 3.33,121.52 3.62,122.22C3.94,123 4.23,123.85 4.52,124.73C4.83,125.69 5.13,126.71 5.42,127.76C5.73,128.89 6.04,130.08 6.33,131.3C6.64,132.6 6.94,133.94 7.23,135.32C7.54,136.76 7.84,138.25 8.14,139.77C8.45,141.35 8.74,142.98 9.04,144.62C9.35,146.32 9.65,148.04 9.95,149.79C10.26,151.58 10.55,153.4 10.85,155.23C11.15,157.08 11.45,158.96 11.75,160.83C12.05,162.71 12.36,164.61 12.66,166.48C12.96,168.34 13.26,170.19 13.56,172.02C13.86,173.81 14.16,175.58 14.47,177.32C14.77,179.02 15.07,180.69 15.37,182.34C15.67,183.94 15.96,185.52 16.27,187.06C16.57,188.54 16.87,190 17.18,191.41C17.47,192.74 17.77,194.06 18.08,195.3C18.37,196.45 18.67,197.58 18.99,198.62C19.28,199.55 19.56,200.46 19.89,201.25C20.17,201.92 20.45,202.59 20.79,203.07C21.06,203.46 21.37,203.87 21.7,203.99C21.98,204.09 22.33,204.04 22.6,203.89C22.95,203.69 23.24,203.19 23.51,202.71C23.86,202.1 24.13,201.28 24.41,200.44C24.74,199.45 25.03,198.31 25.32,197.14C25.64,195.82 25.93,194.39 26.22,192.92C26.53,191.32 26.83,189.62 27.12,187.9C27.43,186.07 27.73,184.17 28.03,182.24C28.34,180.22 28.63,178.14 28.93,176.03C29.24,173.85 29.54,171.62 29.84,169.37C30.15,167.06 30.44,164.72 30.74,162.36C31.04,159.94 31.34,157.49 31.64,155.03C31.94,152.52 32.25,149.99 32.55,147.45C32.85,144.88 33.15,142.29 33.45,139.7C33.75,137.09 34.06,134.47 34.36,131.85C34.66,129.24 34.96,126.61 35.26,124.01C35.56,121.42 35.86,118.83 36.16,116.27C36.46,113.74 36.77,111.23 37.07,108.74C37.37,106.3 37.66,103.87 37.97,101.49C38.27,99.17 38.57,96.86 38.88,94.61C39.18,92.43 39.47,90.28 39.78,88.18C40.07,86.17 40.37,84.19 40.68,82.27C40.97,80.45 41.28,78.66 41.59,76.94C41.88,75.32 42.18,73.74 42.49,72.24C42.78,70.85 43.08,69.5 43.4,68.23C43.69,67.08 43.98,65.96 44.3,64.95C44.59,64.05 44.88,63.19 45.21,62.44C45.49,61.8 45.77,61.19 46.11,60.73C46.38,60.36 46.68,59.99 47.01,59.85C47.29,59.73 47.64,59.72 47.92,59.83C48.25,59.96 48.55,60.34 48.82,60.71C49.17,61.18 49.45,61.82 49.73,62.49C50.06,63.29 50.35,64.22 50.63,65.19C50.95,66.31 51.24,67.54 51.53,68.83C51.85,70.26 52.15,71.8 52.44,73.4C52.76,75.15 53.05,77 53.34,78.91C53.65,80.97 53.96,83.12 54.25,85.33C54.56,87.69 54.86,90.13 55.15,92.64C55.46,95.29 55.76,98.02 56.05,100.81C56.36,103.73 56.66,106.73 56.96,109.78C57.27,112.95 57.56,116.21 57.86,119.5C58.17,122.9 58.47,126.37 58.77,129.87C59.08,133.47 59.37,137.13 59.67,140.82C59.98,144.59 60.28,148.42 60.58,152.27C60.88,156.19 61.18,160.16 61.48,164.15C61.78,168.19 62.08,172.28 62.38,176.37C62.68,180.51 62.99,184.68 63.29,188.85C63.59,193.03 63.89,197.25 64.19,201.43C64.49,205.59 64.79,209.77 65.1,213.87C65.4,217.88 65.69,221.88 66,225.76C66.29,229.47 66.59,233.13 66.9,236.66C67.19,240 67.5,243.25 67.81,246.39C68.1,249.33 68.39,252.22 68.71,254.93C69,257.4 69.28,259.91 69.62,261.99C69.89,263.65 70.11,265.38 70.52,266.46C70.78,267.13 71.08,267.95 71.42,268C71.7,268.04 72.07,267.58 72.33,267.17C72.74,266.52 72.95,265.31 73.23,264.21C73.57,262.86 73.85,261.24 74.14,259.65C74.46,257.91 74.74,256.04 75.04,254.19C75.35,252.27 75.65,250.28 75.95,248.31C76.25,246.33 76.55,244.33 76.85,242.36C77.15,240.41 77.45,238.47 77.75,236.55C78.05,234.67 78.35,232.8 78.66,230.96C78.96,229.17 79.25,227.39 79.56,225.66C79.86,223.99 80.16,222.34 80.47,220.74C80.76,219.22 81.06,217.73 81.37,216.29C81.66,214.93 81.96,213.62 82.27,212.35C82.56,211.16 82.86,209.99 83.18,208.9C83.47,207.9 83.76,206.92 84.08,206.04C84.37,205.25 84.66,204.5 84.99,203.85C85.27,203.29 85.56,202.75 85.89,202.35C86.17,202.02 86.47,201.71 86.79,201.56C87.07,201.43 87.41,201.37 87.7,201.43C88.01,201.49 88.32,201.71 88.6,201.95C88.93,202.24 89.23,202.67 89.51,203.11C89.84,203.62 90.12,204.23 90.41,204.86C90.73,205.57 91.03,206.35 91.32,207.16C91.64,208.04 91.93,208.98 92.22,209.94C92.53,210.96 92.83,212.04 93.12,213.13C93.43,214.28 93.73,215.48 94.03,216.69C94.34,217.94 94.63,219.23 94.93,220.53C95.24,221.86 95.54,223.22 95.84,224.58C96.14,225.95 96.44,227.35 96.74,228.72C97.04,230.07 97.29,231.58 97.64,232.74C97.91,233.65 98.16,234.61 98.55,235.13C98.81,235.47 99.13,235.64 99.45,235.79C99.74,235.93 100.06,236.02 100.36,236.02C100.66,236.02 100.99,235.96 101.26,235.77C101.61,235.52 101.89,235.03 102.16,234.5C102.53,233.75 102.78,232.64 103.07,231.61C103.39,230.45 103.67,229.13 103.97,227.86C104.28,226.55 104.58,225.2 104.88,223.86C105.18,222.5 105.48,221.13 105.78,219.77C106.08,218.41 106.38,217.03 106.68,215.68C106.98,214.35 107.28,213.02 107.59,211.72C107.89,210.45 108.18,209.2 108.49,207.98C108.79,206.81 109.09,205.66 109.4,204.54C109.7,203.46 109.99,202.41 110.3,201.38C110.6,200.38 110.9,199.39 111.21,198.43C111.51,197.5 111.8,196.57 112.11,195.7C112.4,194.88 112.69,194.07 113.01,193.35C113.3,192.7 113.59,192.08 113.92,191.55C114.2,191.1 114.49,190.65 114.82,190.35C115.1,190.09 115.41,189.86 115.73,189.78C116.02,189.71 116.34,189.73 116.63,189.83C116.95,189.94 117.25,190.2 117.53,190.47C117.86,190.79 118.15,191.21 118.44,191.65C118.76,192.15 119.05,192.73 119.34,193.34C119.66,194.01 119.96,194.75 120.25,195.51C120.57,196.34 120.86,197.23 121.15,198.14C121.46,199.11 121.76,200.14 122.05,201.18C122.36,202.27 122.66,203.4 122.96,204.54C123.27,205.72 123.56,206.92 123.86,208.14C124.17,209.39 124.47,210.66 124.77,211.93C125.07,213.22 125.37,214.53 125.67,215.84C125.97,217.16 126.26,218.59 126.58,219.83C126.86,220.92 127.17,221.9 127.48,222.89C127.77,223.83 128.05,224.81 128.38,225.62C128.66,226.31 128.9,227.17 129.29,227.48C129.55,227.69 129.89,227.67 130.19,227.68C130.49,227.69 130.81,227.61 131.1,227.51C131.41,227.4 131.72,227.24 132,227.02C132.32,226.77 132.62,226.43 132.9,226.06C133.22,225.64 133.51,225.09 133.81,224.59C134.11,224.09 134.4,223.55 134.71,223.07C135,222.61 135.3,222.16 135.62,221.77C135.91,221.41 136.2,221.07 136.52,220.81C136.81,220.57 137.11,220.36 137.42,220.24C137.71,220.13 138.03,220.07 138.33,220.08C138.63,220.09 138.94,220.19 139.23,220.31C139.54,220.43 139.84,220.65 140.14,220.82C140.44,221 140.74,221.19 141.04,221.36C141.34,221.53 141.65,221.69 141.95,221.86C142.25,222.03 142.55,222.2 142.85,222.38C143.15,222.57 143.46,222.76 143.75,222.98C144.06,223.21 144.37,223.48 144.66,223.76C144.97,224.06 145.27,224.39 145.56,224.73C145.87,225.09 146.17,225.48 146.47,225.89C146.78,226.32 147.08,226.77 147.37,227.23C147.68,227.71 147.97,228.21 148.27,228.73C148.58,229.27 148.88,229.83 149.18,230.41C149.49,231.01 149.78,231.63 150.08,232.27C150.39,232.93 150.69,233.61 150.99,234.3C151.3,235.02 151.59,235.76 151.89,236.5C152.19,237.26 152.49,238.05 152.79,238.82C153.09,239.59 153.4,240.36 153.7,241.13C154,241.89 154.3,242.65 154.6,243.41C154.9,244.18 155.21,244.95 155.51,245.73C155.81,246.52 156.11,247.34 156.41,248.14C156.71,248.95 157.02,249.76 157.32,250.56C157.62,251.35 157.91,252.17 158.22,252.92C158.51,253.61 158.74,254.47 159.12,254.9C159.39,255.21 159.77,255.56 160.03,255.48C160.41,255.36 160.65,254.16 160.93,253.42C161.25,252.57 161.55,251.61 161.84,250.66C162.15,249.65 162.44,248.6 162.74,247.54C163.04,246.45 163.34,245.34 163.64,244.23C163.94,243.1 164.25,241.96 164.55,240.83C164.85,239.7 165.15,238.57 165.45,237.45C165.75,236.33 166.06,235.22 166.36,234.1C166.66,232.98 166.96,231.88 167.26,230.75C167.56,229.59 167.86,228.43 168.16,227.23C168.47,225.99 168.77,224.72 169.07,223.45C169.37,222.16 169.67,220.83 169.97,219.53C170.27,218.23 170.58,216.95 170.88,215.65C171.18,214.35 171.48,213.06 171.78,211.74C172.08,210.38 172.38,208.96 172.68,207.58C172.98,206.2 173.28,204.81 173.59,203.45C173.89,202.13 174.18,200.83 174.49,199.56C174.79,198.34 175.09,197.15 175.4,195.99C175.69,194.89 175.99,193.82 176.3,192.79C176.59,191.83 176.9,190.9 177.21,190.01C177.5,189.19 177.79,188.39 178.11,187.65C178.4,186.98 178.69,186.34 179.01,185.77C179.3,185.26 179.6,184.77 179.92,184.36C180.2,184 180.5,183.67 180.82,183.44C181.11,183.23 181.42,183.11 181.73,183C182.03,182.9 182.33,182.82 182.63,182.79C182.93,182.76 183.24,182.74 183.53,182.81C183.84,182.89 184.15,183.06 184.44,183.27C184.76,183.5 185.05,183.83 185.34,184.17C185.66,184.55 185.96,185 186.25,185.48C186.57,186.01 186.86,186.59 187.15,187.2C187.46,187.86 187.76,188.58 188.05,189.31C188.36,190.09 188.67,190.92 188.96,191.76C189.27,192.65 189.56,193.58 189.86,194.52C190.17,195.5 190.47,196.51 190.77,197.51C191.07,198.52 191.36,199.57 191.67,200.54C191.96,201.45 192.27,202.33 192.58,203.18C192.87,203.97 193.18,204.71 193.48,205.47C193.78,206.22 194.08,206.96 194.38,207.71C194.68,208.47 194.99,209.22 195.29,209.99C195.59,210.77 195.89,211.56 196.19,212.36C196.5,213.18 196.8,214.02 197.1,214.87C197.41,215.74 197.7,216.64 198,217.54C198.3,218.46 198.6,219.4 198.9,220.34C199.2,221.29 199.51,222.25 199.81,223.2C200.11,224.14 200.4,225.08 200.71,225.99C201.01,226.88 201.31,227.75 201.62,228.6C201.92,229.43 202.21,230.24 202.52,231.03C202.81,231.79 203.11,232.52 203.42,233.24C203.72,233.93 204.02,234.59 204.33,235.24C204.63,235.86 204.92,236.46 205.23,237.05C205.53,237.63 205.84,238.18 206.14,238.74C206.44,239.29 206.74,239.84 207.04,240.39C207.34,240.95 207.65,241.51 207.95,242.07C208.25,242.63 208.54,243.2 208.85,243.73C209.14,244.24 209.4,244.86 209.75,245.22C210.02,245.5 210.34,245.72 210.66,245.8C210.95,245.87 211.26,245.77 211.56,245.73C211.86,245.69 212.17,245.61 212.47,245.57C212.77,245.53 213.07,245.5 213.37,245.48C213.67,245.46 213.98,245.53 214.27,245.46C214.58,245.38 214.9,245.22 215.18,244.99C215.51,244.73 215.79,244.3 216.08,243.92C216.39,243.51 216.69,243.03 216.99,242.59C217.29,242.15 217.59,241.7 217.89,241.27C218.19,240.84 218.51,240.48 218.79,240.01C219.12,239.46 219.4,238.79 219.7,238.16C220.01,237.5 220.3,236.8 220.6,236.13C220.9,235.48 221.2,234.82 221.51,234.2C221.81,233.6 222.1,233.02 222.41,232.47C222.7,231.96 223,231.46 223.32,231.02C223.61,230.61 223.91,230.23 224.22,229.9C224.51,229.6 224.81,229.33 225.12,229.11C225.41,228.91 225.72,228.74 226.03,228.63C226.32,228.52 226.63,228.46 226.93,228.43C227.23,228.4 227.54,228.43 227.84,228.45C228.14,228.47 228.45,228.57 228.74,228.53C229.05,228.48 229.36,228.37 229.64,228.16C229.98,227.9 230.27,227.44 230.55,226.99C230.88,226.47 231.16,225.83 231.45,225.22C231.76,224.57 232.06,223.88 232.36,223.2C232.67,222.5 232.96,221.79 233.26,221.06C233.56,220.31 233.86,219.56 234.16,218.78C234.47,217.97 234.78,217.15 235.07,216.3C235.38,215.4 235.68,214.48 235.97,213.52C236.28,212.5 236.59,211.45 236.88,210.35C237.19,209.18 237.49,207.97 237.78,206.69C238.09,205.3 238.39,203.87 238.68,202.33C239,200.62 239.3,198.82 239.59,196.89C239.91,194.7 240.2,192.3 240.49,189.84C240.81,187.14 241.11,184.25 241.4,181.32C241.71,178.21 242,174.97 242.3,171.7C242.61,168.31 242.91,164.83 243.21,161.35C243.51,157.82 243.81,154.24 244.11,150.68C244.41,147.12 244.71,143.54 245.01,139.99C245.31,136.48 245.62,132.96 245.92,129.5C246.22,126.1 246.51,122.72 246.82,119.39C247.12,116.15 247.42,112.94 247.73,109.79C248.03,106.75 248.32,103.75 248.63,100.82C248.92,98.01 249.22,95.25 249.53,92.57C249.82,90.02 250.13,87.52 250.44,85.12C250.73,82.86 251.03,80.66 251.34,78.56C251.63,76.61 251.93,74.71 252.25,72.93C252.54,71.31 252.83,69.74 253.15,68.29C253.43,67 253.72,65.76 254.05,64.67C254.33,63.74 254.62,62.84 254.96,62.12C255.23,61.54 255.5,60.95 255.86,60.63C256.13,60.39 256.47,60.18 256.77,60.21C257.08,60.24 257.4,60.54 257.67,60.84C258.02,61.24 258.3,61.87 258.58,62.5C258.92,63.26 259.2,64.17 259.48,65.11C259.8,66.17 260.09,67.35 260.38,68.54C260.69,69.83 260.99,71.22 261.29,72.6C261.6,74.02 261.89,75.49 262.19,76.94C262.49,78.39 262.8,79.84 263.1,81.31C263.4,82.81 263.71,84.3 264,85.84C264.31,87.45 264.61,89.1 264.9,90.79C265.21,92.56 265.51,94.38 265.81,96.24C266.12,98.19 266.41,100.19 266.71,102.24C267.02,104.38 267.32,106.57 267.62,108.8C267.93,111.12 268.23,113.49 268.52,115.9C268.83,118.39 269.12,120.94 269.42,123.52C269.73,126.17 270.03,128.87 270.33,131.6C270.64,134.39 270.93,137.22 271.23,140.07C271.53,142.97 271.84,145.9 272.14,148.84C272.44,151.82 272.74,154.82 273.04,157.82C273.34,160.84 273.65,163.88 273.95,166.91C274.25,169.95 274.55,173 274.85,176.03C275.15,179.05 275.45,182.08 275.75,185.08C276.05,188.05 276.36,191.03 276.66,193.96C276.96,196.83 277.24,199.81 277.56,202.5C277.85,204.91 278.13,207.3 278.47,209.36C278.75,211.07 279.06,212.55 279.37,214.04C279.66,215.42 279.95,216.75 280.27,217.99C280.56,219.11 280.85,220.21 281.18,221.18C281.46,222.01 281.66,223.19 282.08,223.47C282.34,223.64 282.71,223.55 282.99,223.43C283.32,223.28 283.6,222.87 283.89,222.53C284.2,222.16 284.49,221.72 284.79,221.3C285.1,220.87 285.41,220.44 285.7,219.96C286.01,219.44 286.32,218.91 286.6,218.3C286.92,217.61 287.19,216.73 287.51,216.03C287.8,215.41 288.08,214.79 288.41,214.3C288.69,213.88 288.98,213.47 289.32,213.23C289.6,213.03 289.92,212.88 290.22,212.89C290.52,212.9 290.84,213.07 291.12,213.28C291.46,213.54 291.75,214 292.03,214.46C292.37,215.02 292.65,215.71 292.93,216.43C293.26,217.26 293.55,218.2 293.84,219.18C294.16,220.27 294.45,221.46 294.74,222.68C295.05,224 295.35,225.39 295.64,226.81C295.95,228.31 296.25,229.87 296.55,231.45C296.86,233.09 297.15,234.77 297.45,236.47C297.76,238.21 298.06,239.98 298.36,241.76C298.66,243.57 298.96,245.4 299.26,247.22C299.56,249.05 299.86,250.9 300.16,252.72C300.46,254.51 300.76,256.32 301.07,258.06C301.36,259.72 301.65,261.38 301.97,262.91C302.26,264.28 302.54,265.66 302.88,266.81C303.16,267.75 303.41,268.68 303.78,269.32C304.05,269.78 304.34,270.27 304.68,270.4C304.96,270.51 305.32,270.43 305.59,270.27C305.94,270.06 306.23,269.55 306.49,269.02C306.87,268.26 307.13,267.16 307.4,266.02C307.75,264.56 308.01,262.75 308.3,260.97C308.62,258.97 308.92,256.8 309.21,254.59C309.52,252.22 309.81,249.7 310.11,247.21C310.41,244.65 310.71,242.02 311.01,239.42C311.31,236.8 311.62,234.16 311.92,231.54C312.22,228.94 312.52,226.34 312.82,223.78C313.12,221.26 313.42,218.76 313.73,216.3C314.03,213.92 314.32,211.56 314.63,209.26C314.92,207.06 315.22,204.89 315.53,202.8C315.82,200.81 316.13,198.87 316.44,197C316.73,195.25 317.02,193.54 317.34,191.93C317.63,190.44 317.93,189 318.25,187.66C318.54,186.45 318.83,185.29 319.15,184.23C319.43,183.3 319.72,182.41 320.05,181.65C320.33,181.01 320.62,180.38 320.96,179.93C321.23,179.57 321.53,179.2 321.86,179.07C322.14,178.96 322.49,178.95 322.77,179.06C323.1,179.19 323.4,179.55 323.67,179.91C324.01,180.36 324.3,180.98 324.58,181.62C324.91,182.37 325.2,183.25 325.48,184.16C325.8,185.19 326.09,186.33 326.38,187.51C326.7,188.81 327,190.2 327.29,191.63C327.6,193.18 327.9,194.8 328.19,196.47C328.5,198.24 328.81,200.09 329.1,201.97C329.41,203.95 329.71,205.99 330,208.07C330.31,210.24 330.6,212.46 330.9,214.71C331.21,217.04 331.51,219.42 331.81,221.81C332.12,224.26 332.41,226.77 332.71,229.24C333.01,231.7 333.32,234.17 333.62,236.62C333.92,239.05 334.22,241.45 334.52,243.87C334.82,246.3 335.12,248.75 335.42,251.19C335.72,253.63 336.03,256.07 336.33,258.49C336.63,260.89 336.93,263.29 337.23,265.65C337.53,267.96 337.83,270.26 338.14,272.51C338.44,274.68 338.73,276.82 339.04,278.9C339.33,280.88 339.64,282.81 339.95,284.68C340.24,286.44 340.54,288.16 340.85,289.81C341.14,291.37 341.44,292.88 341.75,294.33C342.04,295.67 342.34,296.99 342.66,298.2C342.95,299.28 343.22,300.37 343.56,301.26C343.84,301.98 344.1,302.74 344.47,303.17C344.74,303.48 345.06,303.73 345.37,303.77C345.66,303.8 346,303.66 346.27,303.43C346.64,303.11 346.9,302.44 347.18,301.82C347.52,301.06 347.79,300.08 348.08,299.16C348.39,298.18 348.69,297.13 348.99,296.11C349.29,295.08 349.59,294.02 349.89,292.99C350.19,291.98 350.49,290.98 350.79,289.98C351.09,288.99 351.4,288.01 351.7,287.02C352,286.03 352.29,285.01 352.6,284.04C352.9,283.1 353.2,282.17 353.51,281.26C353.81,280.39 354.11,279.54 354.41,278.7C354.71,277.87 355.02,277.07 355.32,276.23C355.63,275.36 355.92,274.45 356.22,273.56C356.52,272.66 356.82,271.74 357.12,270.84C357.42,269.96 357.72,269.08 358.03,268.22C358.33,267.38 358.62,266.55 358.93,265.73C359.23,264.93 359.53,264.14 359.84,263.37C360.14,262.62 360.44,261.88 360.74,261.16C361.04,260.46 361.33,259.78 361.64,259.11C361.94,258.47 362.24,257.84 362.55,257.23C362.85,256.64 363.14,256.06 363.45,255.49C363.75,254.94 364.05,254.4 364.36,253.88C364.66,253.37 364.95,252.87 365.26,252.39C365.56,251.92 365.85,251.46 366.16,251.03C366.46,250.61 366.76,250.21 367.07,249.84C367.36,249.49 367.66,249.17 367.97,248.88C368.26,248.61 368.57,248.36 368.88,248.16C369.17,247.97 369.47,247.81 369.78,247.7C370.07,247.6 370.38,247.53 370.68,247.51C370.98,247.49 371.29,247.51 371.59,247.57C371.9,247.63 372.2,247.74 372.49,247.88C372.8,248.03 373.11,248.22 373.4,248.43C373.71,248.66 374.01,248.92 374.3,249.21C374.61,249.52 374.92,249.86 375.21,250.23C375.52,250.62 375.82,251.06 376.11,251.5C376.42,251.97 376.72,252.47 377.01,252.98C377.32,253.52 377.62,254.09 377.92,254.67C378.23,255.27 378.52,255.89 378.82,256.51C379.12,257.14 379.42,257.81 379.73,258.43C380.02,259.02 380.32,259.59 380.63,260.13C380.92,260.64 381.22,261.11 381.53,261.58C381.83,262.04 382.13,262.48 382.44,262.91C382.74,263.32 383.03,263.73 383.34,264.08C383.63,264.41 383.93,264.74 384.25,264.98C384.54,265.2 384.84,265.41 385.15,265.5C385.44,265.58 385.76,265.6 386.05,265.51C386.37,265.41 386.68,265.16 386.96,264.88C387.3,264.54 387.58,264.04 387.86,263.52C388.19,262.9 388.49,262.14 388.77,261.36C389.09,260.47 389.38,259.48 389.67,258.46C389.99,257.34 390.29,256.15 390.58,254.91C390.9,253.56 391.19,252.13 391.48,250.68C391.79,249.14 392.08,247.51 392.38,245.9C392.69,244.24 392.99,242.55 393.29,240.86C393.59,239.16 393.89,237.44 394.19,235.73C394.49,234.03 394.8,232.32 395.1,230.63C395.4,228.96 395.7,227.3 396,225.66C396.3,224.06 396.59,222.47 396.9,220.92C397.2,219.41 397.5,217.91 397.81,216.46C398.11,215.06 398.4,213.69 398.71,212.36C399,211.1 399.31,209.86 399.62,208.67C399.91,207.56 400.21,206.47 400.52,205.44C400.81,204.49 401.1,203.56 401.42,202.7C401.71,201.92 402.01,201.16 402.33,200.48C402.62,199.88 402.9,199.3 403.23,198.81C403.51,198.39 403.81,197.98 404.14,197.7C404.42,197.46 404.73,197.24 405.04,197.16C405.33,197.09 405.66,197.1 405.95,197.2C406.27,197.31 406.57,197.55 406.85,197.82C407.18,198.13 407.47,198.56 407.75,199.01C408.08,199.53 408.37,200.13 408.66,200.76C408.98,201.46 409.27,202.24 409.56,203.05C409.88,203.93 410.18,204.87 410.47,205.84C410.78,206.89 411.08,207.99 411.37,209.12C411.68,210.32 411.98,211.57 412.27,212.84C412.58,214.17 412.88,215.55 413.18,216.95C413.49,218.4 413.78,219.88 414.08,221.38C414.39,222.91 414.69,224.48 414.99,226.04C415.29,227.62 415.59,229.23 415.89,230.82C416.19,232.41 416.48,234.04 416.79,235.6C417.09,237.11 417.39,238.59 417.7,240.04C418,241.44 418.29,242.83 418.6,244.15C418.89,245.39 419.19,246.63 419.51,247.76C419.8,248.78 420.1,249.72 420.41,250.64C420.7,251.5 421.01,252.31 421.32,253.12C421.62,253.91 421.92,254.69 422.22,255.45C422.52,256.2 422.81,256.93 423.12,257.65C423.42,258.34 423.72,259.02 424.03,259.68C424.33,260.32 424.62,260.94 424.93,261.55C425.23,262.15 425.53,262.73 425.84,263.3C426.14,263.86 426.44,264.4 426.74,264.94C427.04,265.46 427.33,265.98 427.64,266.48C427.94,266.97 428.25,267.45 428.55,267.92C428.85,268.38 429.15,268.83 429.45,269.28C429.75,269.72 430.06,270.15 430.36,270.57C430.66,270.99 430.96,271.4 431.26,271.81C431.56,272.21 431.85,272.61 432.16,272.99C432.46,273.36 432.76,273.73 433.07,274.08C433.37,274.42 433.66,274.75 433.97,275.07C434.27,275.38 434.57,275.67 434.88,275.96C435.18,276.24 435.47,276.52 435.78,276.77C436.08,277.02 436.37,277.26 436.68,277.46C436.98,277.66 437.28,277.83 437.59,277.98C437.89,278.12 438.19,278.24 438.49,278.33C438.79,278.42 439.1,278.48 439.4,278.53C439.7,278.58 440,278.61 440.3,278.63C440.6,278.65 440.91,278.65 441.21,278.65C441.51,278.65 441.81,278.65 442.11,278.65C442.41,278.65 442.71,278.66 443.01,278.67C443.31,278.68 443.62,278.71 443.92,278.74C444.22,278.77 444.52,278.82 444.82,278.84C445.12,278.86 445.43,278.89 445.73,278.88C446.03,278.87 446.33,278.84 446.63,278.81C446.93,278.78 447.23,278.74 447.53,278.71C447.83,278.68 448.14,278.65 448.44,278.64C448.74,278.63 449.04,278.62 449.34,278.62C449.64,278.62 449.95,278.62 450.25,278.63C450.55,278.64 450.85,278.66 451.15,278.67C451.45,278.68 451.75,278.69 452.05,278.68C452.35,278.67 452.66,278.67 452.96,278.63C453.26,278.59 453.56,278.52 453.86,278.45C454.16,278.37 454.47,278.28 454.77,278.18C455.07,278.08 455.37,277.97 455.67,277.87C455.97,277.77 456.28,277.67 456.58,277.58C456.88,277.5 457.18,277.42 457.48,277.36C457.78,277.3 458.08,277.25 458.38,277.22C458.68,277.19 458.99,277.17 459.29,277.17C459.59,277.17 459.89,277.18 460.19,277.19C460.49,277.2 460.8,277.23 461.1,277.25Q461.4,277.27 462,277.32" style="vector-effect: non-scaling-stroke; fill: none; stroke: rgb(0, 176, 246); stroke-opacity: 1; stroke-width: 2px; opacity: 1;"/></g><g class="points"/><g class="text"/></g><g class="trace scatter tracefa9e62" style="stroke-miterlimit: 2; opacity: 1;"><g class="fills"/><g class="errorbars"/><g class="lines"><path class="js-line" d="M0,148.98Q0.62,148.79 0.9,148.57C1.24,148.3 1.53,147.84 1.81,147.39C2.14,146.85 2.42,146.2 2.71,145.53C3.03,144.79 3.33,143.96 3.62,143.13C3.93,142.24 4.22,141.3 4.52,140.36C4.82,139.4 5.12,138.4 5.42,137.42C5.72,136.44 6.02,135.46 6.33,134.5C6.63,133.57 6.92,132.64 7.23,131.76C7.52,130.93 7.82,130.12 8.14,129.37C8.43,128.69 8.71,128.03 9.04,127.47C9.32,126.99 9.61,126.51 9.95,126.19C10.23,125.93 10.54,125.68 10.85,125.63C11.14,125.59 11.47,125.69 11.75,125.86C12.09,126.08 12.38,126.52 12.66,126.96C13,127.51 13.28,128.23 13.56,128.98C13.89,129.86 14.19,130.87 14.47,131.92C14.79,133.12 15.08,134.44 15.37,135.81C15.69,137.33 15.98,138.95 16.27,140.62C16.58,142.43 16.89,144.34 17.18,146.3C17.49,148.39 17.79,150.57 18.08,152.79C18.39,155.12 18.69,157.53 18.99,159.97C19.3,162.5 19.59,165.09 19.89,167.7C20.19,170.37 20.49,173.08 20.79,175.79C21.09,178.52 21.4,181.28 21.7,184C22,186.7 22.29,189.41 22.6,192.06C22.9,194.63 23.2,197.19 23.51,199.67C23.8,202.03 24.1,204.37 24.41,206.59C24.7,208.67 25,210.69 25.32,212.6C25.61,214.34 25.9,216.03 26.22,217.59C26.5,218.97 26.79,220.3 27.12,221.47C27.4,222.47 27.67,223.46 28.03,224.2C28.3,224.76 28.59,225.5 28.93,225.58C29.21,225.64 29.59,225.37 29.84,225.04C30.29,224.45 30.47,223.03 30.74,221.8C31.09,220.21 31.35,218.2 31.64,216.26C31.96,214.14 32.25,211.84 32.55,209.57C32.86,207.21 33.15,204.78 33.45,202.36C33.75,199.89 34.06,197.4 34.36,194.89C34.66,192.35 34.96,189.79 35.26,187.2C35.56,184.55 35.86,181.9 36.16,179.17C36.47,176.34 36.78,173.49 37.07,170.53C37.38,167.42 37.68,164.22 37.97,160.94C38.28,157.48 38.58,153.89 38.88,150.28C39.19,146.55 39.48,142.7 39.78,138.89C40.08,135.04 40.38,131.13 40.68,127.28C40.98,123.47 41.28,119.65 41.59,115.91C41.89,112.27 42.18,108.65 42.49,105.12C42.79,101.72 43.09,98.37 43.4,95.12C43.69,92.02 43.99,88.97 44.3,86.04C44.59,83.28 44.9,80.58 45.21,78C45.5,75.6 45.8,73.26 46.11,71.06C46.4,69.05 46.69,67.1 47.01,65.29C47.3,63.67 47.59,62.11 47.92,60.71C48.2,59.5 48.48,58.34 48.82,57.36C49.1,56.56 49.37,55.77 49.73,55.24C50,54.85 50.31,54.43 50.63,54.37C50.91,54.32 51.26,54.51 51.53,54.74C51.9,55.06 52.17,55.72 52.44,56.34C52.79,57.13 53.06,58.12 53.34,59.15C53.67,60.36 53.96,61.72 54.25,63.14C54.57,64.74 54.86,66.48 55.15,68.28C55.47,70.26 55.76,72.37 56.05,74.54C56.36,76.89 56.67,79.35 56.96,81.87C57.27,84.56 57.57,87.35 57.86,90.21C58.17,93.23 58.47,96.35 58.77,99.53C59.08,102.86 59.37,106.28 59.67,109.75C59.98,113.36 60.28,117.06 60.58,120.81C60.89,124.69 61.18,128.65 61.48,132.65C61.78,136.77 62.08,140.96 62.38,145.19C62.69,149.52 62.99,153.92 63.29,158.35C63.59,162.87 63.89,167.45 64.19,172.05C64.49,176.73 64.8,181.45 65.1,186.19C65.4,190.98 65.7,195.82 66,200.65C66.3,205.51 66.6,210.41 66.9,215.27C67.2,220.12 67.5,225.01 67.81,229.78C68.11,234.41 68.39,239.11 68.71,243.47C69,247.45 69.3,251.34 69.62,254.89C69.9,258 70.21,260.85 70.52,263.64C70.81,266.2 71.11,268.63 71.42,270.99C71.71,273.19 72.01,275.37 72.33,277.37C72.62,279.16 72.88,280.98 73.23,282.43C73.5,283.56 73.7,284.85 74.14,285.4C74.39,285.71 74.77,285.97 75.04,285.9C75.39,285.82 75.68,285.07 75.95,284.52C76.3,283.81 76.57,282.87 76.85,281.95C77.17,280.89 77.46,279.73 77.75,278.52C78.07,277.18 78.37,275.75 78.66,274.24C78.98,272.56 79.27,270.77 79.56,268.88C79.88,266.77 80.18,264.51 80.47,262.18C80.79,259.64 81.08,256.94 81.37,254.22C81.68,251.38 81.97,248.42 82.27,245.49C82.57,242.52 82.88,239.5 83.18,236.52C83.48,233.57 83.77,230.6 84.08,227.69C84.38,224.84 84.68,222.02 84.99,219.25C85.29,216.57 85.58,213.93 85.89,211.35C86.18,208.88 86.48,206.44 86.79,204.08C87.08,201.84 87.39,199.64 87.7,197.52C87.99,195.52 88.29,193.57 88.6,191.71C88.89,189.97 89.19,188.29 89.51,186.69C89.8,185.22 90.09,183.79 90.41,182.46C90.7,181.26 91,180.1 91.32,179.05C91.6,178.12 91.89,177.22 92.22,176.45C92.5,175.79 92.78,175.16 93.12,174.67C93.4,174.27 93.69,173.88 94.03,173.69C94.31,173.53 94.64,173.44 94.93,173.49C95.24,173.54 95.56,173.79 95.84,174.05C96.18,174.37 96.46,174.84 96.74,175.33C97.07,175.9 97.35,176.58 97.64,177.29C97.96,178.08 98.26,178.96 98.55,179.87C98.87,180.86 99.16,181.92 99.45,183C99.76,184.15 100.06,185.36 100.36,186.58C100.67,187.86 100.96,189.19 101.26,190.53C101.56,191.91 101.86,193.31 102.16,194.72C102.46,196.14 102.77,197.59 103.07,199.02C103.37,200.44 103.67,201.87 103.97,203.28C104.27,204.66 104.57,206.04 104.88,207.38C105.18,208.67 105.47,209.95 105.78,211.18C106.07,212.34 106.37,213.48 106.68,214.57C106.97,215.59 107.27,216.57 107.59,217.5C107.88,218.35 108.17,219.17 108.49,219.93C108.78,220.61 109.08,221.26 109.4,221.85C109.69,222.37 109.98,222.87 110.3,223.29C110.59,223.67 110.89,224.01 111.21,224.29C111.5,224.54 111.8,224.75 112.11,224.9C112.4,225.04 112.71,225.13 113.01,225.17C113.31,225.21 113.62,225.21 113.92,225.17C114.22,225.13 114.52,225.04 114.82,224.93C115.13,224.81 115.43,224.66 115.73,224.48C116.04,224.3 116.34,224.09 116.63,223.85C116.94,223.59 117.24,223.31 117.53,222.97C117.85,222.59 118.16,222.18 118.44,221.68C118.77,221.09 119.06,220.39 119.34,219.63C119.67,218.72 119.96,217.64 120.25,216.57C120.57,215.4 120.85,214.11 121.15,212.86C121.45,211.59 121.74,210.29 122.05,209.03C122.35,207.8 122.65,206.57 122.96,205.39C123.26,204.26 123.55,203.14 123.86,202.08C124.15,201.08 124.46,200.1 124.77,199.18C125.06,198.32 125.35,197.49 125.67,196.72C125.96,196.01 126.26,195.33 126.58,194.72C126.87,194.17 127.16,193.64 127.48,193.19C127.76,192.79 128.06,192.41 128.38,192.12C128.67,191.86 128.97,191.63 129.29,191.49C129.58,191.36 129.89,191.29 130.19,191.29C130.49,191.29 130.81,191.36 131.1,191.47C131.41,191.59 131.71,191.79 132,192.01C132.31,192.25 132.61,192.55 132.9,192.87C133.21,193.21 133.52,193.6 133.81,194.01C134.12,194.44 134.42,194.92 134.71,195.4C135.02,195.91 135.32,196.45 135.62,197C135.93,197.58 136.23,198.18 136.52,198.8C136.83,199.45 137.12,200.12 137.42,200.8C137.73,201.51 138.03,202.23 138.33,202.98C138.64,203.76 138.93,204.56 139.23,205.38C139.54,206.23 139.84,207.09 140.14,207.98C140.45,208.9 140.74,209.85 141.04,210.82C141.35,211.82 141.65,212.85 141.95,213.89C142.26,214.97 142.55,216.08 142.85,217.2C143.15,218.36 143.45,219.54 143.75,220.73C144.06,221.95 144.36,223.19 144.66,224.44C144.96,225.7 145.26,226.99 145.56,228.26C145.86,229.53 146.16,230.83 146.47,232.07C146.77,233.27 147.05,234.5 147.37,235.6C147.66,236.59 147.91,237.64 148.27,238.4C148.54,238.98 148.82,239.68 149.18,239.84C149.45,239.96 149.81,239.84 150.08,239.67C150.43,239.44 150.7,238.85 150.99,238.38C151.31,237.86 151.59,237.24 151.89,236.67C152.19,236.09 152.48,235.49 152.79,234.93C153.09,234.39 153.39,233.86 153.7,233.37C153.99,232.91 154.29,232.47 154.6,232.07C154.89,231.7 155.2,231.36 155.51,231.06C155.8,230.78 156.1,230.53 156.41,230.33C156.7,230.14 157.01,229.99 157.32,229.89C157.61,229.79 157.92,229.73 158.22,229.71C158.52,229.69 158.82,229.72 159.12,229.78C159.43,229.84 159.73,229.95 160.03,230.09C160.34,230.23 160.64,230.42 160.93,230.63C161.24,230.85 161.55,231.11 161.84,231.38C162.15,231.67 162.45,231.99 162.74,232.33C163.05,232.69 163.35,233.08 163.64,233.49C163.95,233.92 164.25,234.37 164.55,234.84C164.86,235.33 165.15,235.85 165.45,236.38C165.76,236.93 166.06,237.5 166.36,238.09C166.67,238.7 166.97,239.33 167.26,239.98C167.57,240.65 167.86,241.35 168.16,242.05C168.47,242.78 168.77,243.52 169.07,244.28C169.38,245.06 169.67,245.85 169.97,246.66C170.28,247.49 170.58,248.34 170.88,249.19C171.18,250.06 171.48,250.95 171.78,251.84C172.08,252.74 172.38,253.66 172.68,254.57C172.98,255.49 173.29,256.41 173.59,257.32C173.89,258.23 174.18,259.15 174.49,260.04C174.79,260.91 175.09,261.78 175.4,262.61C175.7,263.41 175.99,264.21 176.3,264.95C176.59,265.64 176.89,266.32 177.21,266.93C177.5,267.48 177.79,268 178.11,268.44C178.39,268.82 178.68,269.18 179.01,269.43C179.29,269.65 179.61,269.82 179.92,269.89C180.21,269.96 180.53,269.94 180.82,269.87C181.13,269.8 181.44,269.63 181.73,269.44C182.05,269.24 182.34,268.96 182.63,268.67C182.94,268.35 183.24,267.99 183.53,267.59C183.85,267.16 184.15,266.68 184.44,266.16C184.76,265.59 185.05,264.98 185.34,264.32C185.66,263.59 185.96,262.81 186.25,261.98C186.57,261.07 186.86,260.08 187.15,259.06C187.46,257.94 187.76,256.74 188.05,255.51C188.36,254.19 188.67,252.79 188.96,251.38C189.27,249.9 189.56,248.36 189.86,246.81C190.17,245.21 190.47,243.57 190.77,241.94C191.07,240.28 191.37,238.6 191.67,236.94C191.97,235.28 192.28,233.61 192.58,231.96C192.88,230.33 193.18,228.71 193.48,227.11C193.78,225.55 194.07,224 194.38,222.48C194.68,221 194.98,219.54 195.29,218.12C195.59,216.75 195.88,215.39 196.19,214.08C196.49,212.82 196.79,211.59 197.1,210.39C197.39,209.25 197.69,208.14 198,207.07C198.29,206.06 198.59,205.08 198.9,204.15C199.19,203.28 199.49,202.44 199.81,201.66C200.1,200.94 200.39,200.25 200.71,199.63C201,199.07 201.29,198.53 201.62,198.09C201.9,197.71 202.19,197.34 202.52,197.1C202.8,196.9 203.11,196.72 203.42,196.69C203.72,196.66 204.05,196.75 204.33,196.9C204.66,197.08 204.95,197.41 205.23,197.76C205.56,198.18 205.86,198.72 206.14,199.29C206.47,199.95 206.75,200.71 207.04,201.5C207.36,202.39 207.66,203.36 207.95,204.37C208.27,205.48 208.56,206.67 208.85,207.9C209.16,209.22 209.46,210.61 209.75,212.04C210.06,213.56 210.36,215.13 210.66,216.74C210.97,218.42 211.26,220.16 211.56,221.91C211.87,223.72 212.17,225.58 212.47,227.43C212.77,229.31 213.07,231.22 213.37,233.1C213.67,234.95 213.96,236.84 214.27,238.61C214.56,240.27 214.85,241.93 215.18,243.41C215.46,244.69 215.74,245.93 216.08,246.98C216.36,247.84 216.65,248.63 216.99,249.26C217.26,249.76 217.55,250.25 217.89,250.53C218.16,250.75 218.49,250.92 218.79,250.91C219.1,250.9 219.43,250.67 219.7,250.42C220.05,250.1 220.32,249.55 220.6,249.01C220.94,248.35 221.23,247.53 221.51,246.69C221.84,245.73 222.12,244.64 222.41,243.53C222.73,242.32 223.03,241.01 223.32,239.69C223.63,238.29 223.92,236.83 224.22,235.37C224.52,233.86 224.82,232.31 225.12,230.78C225.42,229.24 225.73,227.68 226.03,226.14C226.33,224.62 226.62,223.09 226.93,221.6C227.23,220.15 227.53,218.71 227.84,217.31C228.14,215.95 228.44,214.63 228.74,213.32C229.04,212.03 229.35,210.85 229.64,209.5C229.96,208.01 230.28,206.58 230.55,204.76C230.91,202.34 231.16,199.25 231.45,196.25C231.77,192.89 232.06,189.14 232.36,185.54C232.66,181.89 232.96,178.17 233.26,174.51C233.56,170.87 233.86,167.23 234.16,163.62C234.46,160.06 234.77,156.51 235.07,153C235.37,149.55 235.67,146.12 235.97,142.73C236.27,139.4 236.57,136.1 236.88,132.85C237.18,129.67 237.48,126.53 237.78,123.43C238.08,120.41 238.37,117.42 238.68,114.48C238.98,111.62 239.28,108.81 239.59,106.04C239.89,103.36 240.18,100.72 240.49,98.14C240.79,95.65 241.09,93.2 241.4,90.8C241.7,88.5 241.99,86.24 242.3,84.04C242.6,81.94 242.9,79.88 243.21,77.88C243.5,75.98 243.8,74.13 244.11,72.34C244.4,70.65 244.7,69 245.01,67.42C245.3,65.94 245.61,64.51 245.92,63.15C246.21,61.89 246.5,60.67 246.82,59.53C247.11,58.49 247.41,57.5 247.73,56.58C248.02,55.76 248.31,54.98 248.63,54.29C248.91,53.7 249.2,53.13 249.53,52.68C249.81,52.3 250.11,51.94 250.44,51.74C250.72,51.57 251.04,51.46 251.34,51.48C251.65,51.5 251.97,51.68 252.25,51.9C252.58,52.15 252.87,52.56 253.15,52.98C253.48,53.48 253.77,54.09 254.05,54.72C254.37,55.44 254.67,56.25 254.96,57.09C255.28,58.03 255.57,59.04 255.86,60.09C256.18,61.23 256.48,62.43 256.77,63.67C257.08,64.99 257.38,66.38 257.67,67.79C257.98,69.28 258.28,70.83 258.58,72.4C258.89,74.04 259.18,75.72 259.48,77.42C259.78,79.17 260.08,80.97 260.38,82.76C260.68,84.58 260.99,86.43 261.29,88.26C261.59,90.09 261.88,91.94 262.19,93.75C262.49,95.52 262.79,97.28 263.1,98.98C263.39,100.59 263.69,102.19 264,103.7C264.29,105.1 264.58,106.46 264.9,107.75C265.19,108.93 265.5,110.06 265.81,111.13C266.1,112.12 266.4,113.06 266.71,113.97C267,114.83 267.31,115.65 267.62,116.46C267.92,117.24 268.22,118 268.52,118.76C268.82,119.51 269.12,120.25 269.42,121C269.72,121.75 270.03,122.5 270.33,123.26C270.63,124.03 270.93,124.8 271.23,125.59C271.53,126.39 271.84,127.21 272.14,128.03C272.44,128.87 272.74,129.72 273.04,130.59C273.35,131.48 273.65,132.38 273.95,133.29C274.25,134.22 274.55,135.16 274.85,136.12C275.15,137.1 275.45,138.09 275.75,139.09C276.05,140.11 276.36,141.14 276.66,142.18C276.96,143.24 277.26,144.31 277.56,145.38C277.86,146.47 278.17,147.57 278.47,148.67C278.77,149.78 279.07,150.91 279.37,152.03C279.67,153.16 279.97,154.29 280.27,155.43C280.57,156.57 280.88,157.72 281.18,158.86C281.48,160 281.78,161.14 282.08,162.28C282.38,163.42 282.69,164.56 282.99,165.7C283.29,166.84 283.59,167.97 283.89,169.11C284.19,170.25 284.49,171.39 284.79,172.54C285.09,173.71 285.4,174.87 285.7,176.06C286,177.27 286.3,178.49 286.6,179.73C286.91,181.01 287.21,182.31 287.51,183.64C287.82,185.02 288.11,186.43 288.41,187.88C288.72,189.39 289.02,190.93 289.32,192.51C289.63,194.16 289.93,195.85 290.22,197.57C290.53,199.37 290.82,201.21 291.12,203.09C291.43,205.04 291.73,207.03 292.03,209.05C292.34,211.14 292.63,213.27 292.93,215.42C293.24,217.64 293.54,219.9 293.84,222.17C294.14,224.49 294.44,226.84 294.74,229.21C295.04,231.61 295.34,234.05 295.64,236.48C295.94,238.94 296.25,241.42 296.55,243.89C296.85,246.36 297.15,248.85 297.45,251.32C297.75,253.78 298.01,256.56 298.36,258.67C298.63,260.29 298.84,261.96 299.26,262.94C299.52,263.53 299.83,263.89 300.16,264.23C300.44,264.52 300.75,264.81 301.07,264.92C301.36,265.02 301.69,265.03 301.97,264.93C302.29,264.82 302.6,264.52 302.88,264.2C303.22,263.81 303.5,263.25 303.78,262.67C304.11,261.98 304.4,261.17 304.68,260.33C305,259.37 305.3,258.3 305.59,257.21C305.91,256.01 306.2,254.73 306.49,253.42C306.8,252.02 307.1,250.56 307.4,249.08C307.71,247.54 308,245.96 308.3,244.37C308.6,242.75 308.91,241.09 309.21,239.45C309.51,237.8 309.81,236.14 310.11,234.5C310.41,232.88 310.7,231.26 311.01,229.68C311.31,228.15 311.61,226.63 311.92,225.16C312.21,223.76 312.51,222.38 312.82,221.07C313.11,219.84 313.41,218.63 313.73,217.5C314.02,216.47 314.31,215.47 314.63,214.57C314.91,213.77 315.2,213 315.53,212.34C315.81,211.78 316.1,211.24 316.44,210.86C316.72,210.56 317.02,210.26 317.34,210.18C317.63,210.11 317.97,210.17 318.25,210.32C318.59,210.5 318.88,210.9 319.15,211.3C319.49,211.79 319.77,212.44 320.05,213.11C320.38,213.9 320.67,214.81 320.96,215.75C321.28,216.82 321.57,217.98 321.86,219.19C322.18,220.52 322.48,221.93 322.77,223.39C323.08,224.96 323.38,226.62 323.67,228.31C323.98,230.11 324.28,231.98 324.58,233.88C324.89,235.87 325.18,237.93 325.48,240C325.78,242.14 326.08,244.33 326.38,246.51C326.68,248.7 326.98,250.95 327.29,253.1C327.59,255.16 327.87,257.25 328.19,259.13C328.48,260.79 328.77,262.37 329.1,263.81C329.38,265.06 329.69,266.17 330,267.28C330.29,268.32 330.6,269.28 330.9,270.28C331.2,271.28 331.51,272.26 331.81,273.27C332.12,274.3 332.41,275.35 332.71,276.41C333.02,277.51 333.32,278.62 333.62,279.76C333.93,280.93 334.22,282.14 334.52,283.35C334.82,284.59 335.12,285.86 335.42,287.12C335.72,288.4 336.02,289.71 336.33,290.97C336.63,292.19 336.89,293.52 337.23,294.58C337.51,295.45 337.76,296.37 338.14,296.91C338.4,297.29 338.72,297.53 339.04,297.7C339.33,297.85 339.65,297.89 339.95,297.93C340.25,297.97 340.55,297.97 340.85,297.97C341.15,297.97 341.45,297.95 341.75,297.95C342.05,297.95 342.36,297.94 342.66,297.98C342.96,298.02 343.27,298.09 343.56,298.2C343.87,298.32 344.18,298.48 344.47,298.69C344.79,298.92 345.07,299.25 345.37,299.52C345.67,299.79 346.01,300.39 346.27,300.32C346.67,300.21 346.89,298.51 347.18,297.53C347.5,296.44 347.77,295.18 348.08,294.07C348.37,293.02 348.68,292 348.99,291.02C349.28,290.11 349.58,289.22 349.89,288.38C350.18,287.6 350.48,286.86 350.79,286.16C351.08,285.51 351.39,284.89 351.7,284.31C351.99,283.78 352.29,283.28 352.6,282.81C352.89,282.37 353.2,281.97 353.51,281.59C353.8,281.24 354.1,280.92 354.41,280.6C354.71,280.29 355.02,280.02 355.32,279.72C355.62,279.41 355.93,279.13 356.22,278.77C356.54,278.38 356.84,277.96 357.12,277.45C357.46,276.83 357.75,276.09 358.03,275.29C358.36,274.33 358.64,273.19 358.93,272.04C359.25,270.77 359.54,269.37 359.84,268C360.15,266.57 360.44,265.08 360.74,263.63C361.04,262.19 361.33,260.73 361.64,259.31C361.94,257.93 362.24,256.56 362.55,255.23C362.84,253.97 363.14,252.72 363.45,251.53C363.74,250.41 364.05,249.32 364.36,248.29C364.65,247.34 364.94,246.42 365.26,245.57C365.55,244.81 365.84,244.07 366.16,243.42C366.44,242.85 366.74,242.3 367.07,241.86C367.35,241.49 367.64,241.13 367.97,240.92C368.25,240.74 368.58,240.61 368.88,240.61C369.18,240.61 369.5,240.76 369.78,240.94C370.11,241.15 370.4,241.51 370.68,241.88C371.01,242.31 371.3,242.86 371.59,243.42C371.91,244.05 372.2,244.76 372.49,245.48C372.8,246.26 373.1,247.11 373.4,247.95C373.71,248.82 374,249.74 374.3,250.62C374.6,251.48 374.9,252.36 375.21,253.18C375.5,253.94 375.8,254.68 376.11,255.38C376.4,256.05 376.71,256.66 377.01,257.3C377.31,257.93 377.62,258.54 377.92,259.18C378.23,259.83 378.52,260.49 378.82,261.17C379.13,261.88 379.43,262.62 379.73,263.38C380.04,264.17 380.33,264.98 380.63,265.8C380.94,266.65 381.23,267.53 381.53,268.41C381.84,269.31 382.14,270.24 382.44,271.16C382.74,272.09 383.04,273.04 383.34,273.98C383.64,274.92 383.94,275.87 384.25,276.79C384.55,277.69 384.84,278.6 385.15,279.47C385.44,280.3 385.74,281.13 386.05,281.9C386.34,282.62 386.64,283.33 386.96,283.95C387.25,284.5 387.53,285.05 387.86,285.46C388.14,285.81 388.46,286.28 388.77,286.3C389.06,286.32 389.42,286.07 389.67,285.69C390.2,284.88 390.29,282.59 390.58,280.88C390.9,278.94 391.18,276.75 391.48,274.64C391.78,272.47 392.08,270.24 392.38,268.02C392.68,265.78 392.99,263.51 393.29,261.25C393.59,259 393.89,256.73 394.19,254.49C394.49,252.26 394.8,250.03 395.1,247.83C395.4,245.67 395.7,243.51 396,241.39C396.3,239.32 396.59,237.26 396.9,235.24C397.2,233.28 397.5,231.34 397.81,229.44C398.11,227.61 398.4,225.81 398.71,224.06C399.01,222.38 399.31,220.74 399.62,219.14C399.91,217.62 400.21,216.14 400.52,214.71C400.81,213.37 401.11,212.07 401.42,210.82C401.71,209.66 402.01,208.53 402.33,207.47C402.62,206.5 402.91,205.56 403.23,204.69C403.52,203.91 403.82,203.16 404.14,202.49C404.42,201.9 404.71,201.34 405.04,200.88C405.32,200.48 405.62,200.1 405.95,199.84C406.23,199.62 406.54,199.43 406.85,199.38C407.14,199.33 407.46,199.38 407.75,199.49C408.07,199.61 408.38,199.86 408.66,200.14C408.99,200.46 409.28,200.89 409.56,201.33C409.88,201.83 410.18,202.41 410.47,203.02C410.79,203.69 411.08,204.43 411.37,205.19C411.68,206.02 411.98,206.9 412.27,207.81C412.58,208.78 412.89,209.8 413.18,210.85C413.49,211.96 413.78,213.11 414.08,214.28C414.39,215.51 414.69,216.77 414.99,218.05C415.3,219.38 415.59,220.75 415.89,222.13C416.19,223.56 416.49,225.01 416.79,226.48C417.1,227.99 417.4,229.52 417.7,231.06C418,232.63 418.3,234.22 418.6,235.82C418.9,237.44 419.21,239.09 419.51,240.73C419.81,242.39 420.11,244.05 420.41,245.72C420.71,247.4 421.02,249.09 421.32,250.77C421.62,252.45 421.92,254.13 422.22,255.8C422.52,257.46 422.82,259.12 423.12,260.77C423.42,262.4 423.73,264.02 424.03,265.62C424.33,267.19 424.62,268.75 424.93,270.29C425.23,271.79 425.53,273.27 425.84,274.72C426.14,276.12 426.43,277.5 426.74,278.84C427.03,280.13 427.33,281.39 427.64,282.61C427.93,283.77 428.24,284.9 428.55,285.98C428.84,287 429.14,287.99 429.45,288.94C429.74,289.82 430.05,290.67 430.36,291.48C430.65,292.23 430.95,292.95 431.26,293.63C431.55,294.26 431.85,294.86 432.16,295.42C432.45,295.94 432.76,296.42 433.07,296.87C433.36,297.29 433.66,297.68 433.97,298.03C434.26,298.36 434.57,298.66 434.88,298.92C435.17,299.17 435.47,299.38 435.78,299.57C436.07,299.75 436.37,299.9 436.68,300.02C436.98,300.14 437.28,300.23 437.59,300.29C437.89,300.35 438.19,300.38 438.49,300.4C438.79,300.42 439.1,300.41 439.4,300.39C439.7,300.37 440,300.32 440.3,300.27C440.6,300.22 440.91,300.15 441.21,300.08C441.51,300.01 441.81,299.91 442.11,299.83C442.41,299.74 442.71,299.66 443.01,299.57C443.31,299.48 443.62,299.39 443.92,299.3C444.22,299.21 444.52,299.12 444.82,299.04C445.12,298.96 445.43,298.89 445.73,298.83C446.03,298.77 446.33,298.72 446.63,298.68C446.93,298.64 447.23,298.6 447.53,298.58C447.83,298.56 448.14,298.56 448.44,298.57C448.74,298.58 449.04,298.6 449.34,298.63C449.64,298.66 449.95,298.71 450.25,298.77C450.55,298.83 450.85,298.91 451.15,299C451.45,299.09 451.75,299.19 452.05,299.3C452.35,299.41 452.66,299.54 452.96,299.67C453.26,299.8 453.56,299.94 453.86,300.09C454.16,300.24 454.47,300.41 454.77,300.57C455.07,300.74 455.37,300.91 455.67,301.08C455.97,301.25 456.28,301.43 456.58,301.61C456.88,301.79 457.18,301.97 457.48,302.14C457.78,302.31 458.08,302.48 458.38,302.64C458.68,302.8 458.99,302.97 459.29,303.11C459.59,303.25 459.89,303.38 460.19,303.5C460.49,303.62 460.79,303.73 461.1,303.81Q461.4,303.89 462,304" style="vector-effect: non-scaling-stroke; fill: none; stroke: rgb(231, 107, 243); stroke-opacity: 1; stroke-width: 2px; opacity: 1;"/></g><g class="points"/><g class="text"/></g></g></g><g class="overplot"/><path class="xlines-above crisp" d="M0,0" style="fill: none;"/><path class="ylines-above crisp" d="M0,0" style="fill: none;"/><g class="overlines-above"/><g class="xaxislayer-above"><g class="xtick"><text text-anchor="middle" x="0" y="433" transform="translate(80,0)" style="font-family: 'Open Sans', verdana, arial, sans-serif; font-size: 12px; fill: rgb(42, 63, 95); fill-opacity: 1; white-space: pre;">0</text></g><g class="xtick"><text text-anchor="middle" x="0" y="433" transform="translate(170.23000000000002,0)" style="font-family: 'Open Sans', verdana, arial, sans-serif; font-size: 12px; fill: rgb(42, 63, 95); fill-opacity: 1; white-space: pre;">100</text></g><g class="xtick"><text text-anchor="middle" x="0" y="433" transform="translate(260.47,0)" style="font-family: 'Open Sans', verdana, arial, sans-serif; font-size: 12px; fill: rgb(42, 63, 95); fill-opacity: 1; white-space: pre;">200</text></g><g class="xtick"><text text-anchor="middle" x="0" y="433" transform="translate(350.7,0)" style="font-family: 'Open Sans', verdana, arial, sans-serif; font-size: 12px; fill: rgb(42, 63, 95); fill-opacity: 1; white-space: pre;">300</text></g><g class="xtick"><text text-anchor="middle" x="0" y="433" transform="translate(440.94,0)" style="font-family: 'Open Sans', verdana, arial, sans-serif; font-size: 12px; fill: rgb(42, 63, 95); fill-opacity: 1; white-space: pre;">400</text></g><g class="xtick"><text text-anchor="middle" x="0" y="433" transform="translate(531.1700000000001,0)" style="font-family: 'Open Sans', verdana, arial, sans-serif; font-size: 12px; fill: rgb(42, 63, 95); fill-opacity: 1; white-space: pre;">500</text></g></g><g class="yaxislayer-above"><g class="ytick"><text text-anchor="end" x="79" y="4.199999999999999" transform="translate(0,393.95)" style="font-family: 'Open Sans', verdana, arial, sans-serif; font-size: 12px; fill: rgb(42, 63, 95); fill-opacity: 1; white-space: pre;">50</text></g><g class="ytick"><text text-anchor="end" x="79" y="4.199999999999999" transform="translate(0,320.36)" style="font-family: 'Open Sans', verdana, arial, sans-serif; font-size: 12px; fill: rgb(42, 63, 95); fill-opacity: 1; white-space: pre;">100</text></g><g class="ytick"><text text-anchor="end" x="79" y="4.199999999999999" transform="translate(0,246.78)" style="font-family: 'Open Sans', verdana, arial, sans-serif; font-size: 12px; fill: rgb(42, 63, 95); fill-opacity: 1; white-space: pre;">150</text></g><g class="ytick"><text text-anchor="end" x="79" y="4.199999999999999" transform="translate(0,173.19)" style="font-family: 'Open Sans', verdana, arial, sans-serif; font-size: 12px; fill: rgb(42, 63, 95); fill-opacity: 1; white-space: pre;">200</text></g></g><g class="overaxes-above"/></g></g><g class="polarlayer"/><g class="ternarylayer"/><g class="geolayer"/><g class="funnelarealayer"/><g class="pielayer"/><g class="treemaplayer"/><g class="sunburstlayer"/><g class="glimages"/><defs id="topdefs-7f9015"><g class="clips"/><clipPath id="legend7f9015"><rect width="137" height="67" x="0" y="0"/></clipPath></defs><g class="layer-above"><g class="imagelayer"/><g class="shapelayer"/></g><g class="infolayer"><g class="legend" pointer-events="all" transform="translate(551.24, 100)"><rect class="bg" shape-rendering="crispEdges" width="137" height="67" x="0" y="0" style="stroke: rgb(68, 68, 68); stroke-opacity: 1; fill: rgb(255, 255, 255); fill-opacity: 1; stroke-width: 0px;"/><g class="scrollbox" transform="translate(0, 0)" clip-path="url('#legend7f9015')"><g class="groups"><g class="traces" transform="translate(0, 14.5)" style="opacity: 1;"><text class="legendtext" text-anchor="start" x="40" y="4.680000000000001" style="font-family: 'Open Sans', verdana, arial, sans-serif; font-size: 12px; fill: rgb(42, 63, 95); fill-opacity: 1; white-space: pre;">Average Class I</text><g class="layers" style="opacity: 1;"><g class="legendfill"/><g class="legendlines"><path class="js-line" d="M5,0h30" style="fill: none; stroke: rgb(0, 100, 80); stroke-opacity: 1; stroke-width: 2px;"/></g><g class="legendsymbols"><g class="legendpoints"/></g></g><rect class="legendtoggle" x="0" y="-9.5" width="131.15625" height="19" style="fill: rgb(0, 0, 0); fill-opacity: 0;"/></g><g class="traces" transform="translate(0, 33.5)" style="opacity: 1;"><text class="legendtext" text-anchor="start" x="40" y="4.680000000000001" style="font-family: 'Open Sans', verdana, arial, sans-serif; font-size: 12px; fill: rgb(42, 63, 95); fill-opacity: 1; white-space: pre;">Average Class II</text><g class="layers" style="opacity: 1;"><g class="legendfill"/><g class="legendlines"><path class="js-line" d="M5,0h30" style="fill: none; stroke: rgb(0, 176, 246); stroke-opacity: 1; stroke-width: 2px;"/></g><g class="legendsymbols"><g class="legendpoints"/></g></g><rect class="legendtoggle" x="0" y="-9.5" width="131.15625" height="19" style="fill: rgb(0, 0, 0); fill-opacity: 0;"/></g><g class="traces" transform="translate(0, 52.5)" style="opacity: 1;"><text class="legendtext" text-anchor="start" x="40" y="4.680000000000001" style="font-family: 'Open Sans', verdana, arial, sans-serif; font-size: 12px; fill: rgb(42, 63, 95); fill-opacity: 1; white-space: pre;">Average Class III</text><g class="layers" style="opacity: 1;"><g class="legendfill"/><g class="legendlines"><path class="js-line" d="M5,0h30" style="fill: none; stroke: rgb(231, 107, 243); stroke-opacity: 1; stroke-width: 2px;"/></g><g class="legendsymbols"><g class="legendpoints"/></g></g><rect class="legendtoggle" x="0" y="-9.5" width="131.15625" height="19" style="fill: rgb(0, 0, 0); fill-opacity: 0;"/></g></g></g><rect class="scrollbar" rx="20" ry="3" width="0" height="0" x="0" y="0" style="fill: rgb(128, 139, 164); fill-opacity: 1;"/></g><g class="g-gtitle"><text class="gtitle" x="35" y="50" text-anchor="start" dy="0em" style="font-family: 'Open Sans', verdana, arial, sans-serif; font-size: 17px; fill: rgb(42, 63, 95); opacity: 1; font-weight: normal; white-space: pre;">Average curve: hydrophobicity_group</text></g><g class="g-xtitle"><text class="xtitle" x="311" y="460.8" text-anchor="middle" style="font-family: 'Open Sans', verdana, arial, sans-serif; font-size: 14px; fill: rgb(42, 63, 95); opacity: 1; font-weight: normal; white-space: pre;">Domain</text></g><g class="g-ytitle"><text class="ytitle" transform="rotate(-90,34.16875,260)" x="34.16875" y="260" text-anchor="middle" style="font-family: 'Open Sans', verdana, arial, sans-serif; font-size: 14px; fill: rgb(42, 63, 95); opacity: 1; font-weight: normal; white-space: pre;">Frequency</text></g></g></svg>