<svg class="main-svg" xmlns="http://www.w3.org/2000/svg" xmlns:xlink="http://www.w3.org/1999/xlink" width="700" height="500" style="" viewBox="0 0 700 500"><rect x="0" y="0" width="700" height="500" style="fill: rgb(255, 255, 255); fill-opacity: 1;"/><defs id="defs-e31352"><g class="clips"><clipPath id="clipe31352xyplot" class="plotclip"><rect width="462" height="320"/></clipPath><clipPath class="axesclip" id="clipe31352x"><rect x="80" y="0" width="462" height="500"/></clipPath><clipPath class="axesclip" id="clipe31352y"><rect x="0" y="100" width="700" height="320"/></clipPath><clipPath class="axesclip" id="clipe31352xy"><rect x="80" y="100" width="462" height="320"/></clipPath></g><g class="gradients"/></defs><g class="bglayer"><rect class="bg" x="80" y="100" width="462" height="320" style="fill: rgb(229, 236, 246); fill-opacity: 1; stroke-width: 0;"/></g><g class="layer-below"><g class="imagelayer"/><g class="shapelayer"/></g><g class="cartesianlayer"><g class="subplot xy"><g class="layer-subplot"><g class="shapelayer"/><g class="imagelayer"/></g><g class="gridlayer"><g class="x"><path class="xgrid crisp" transform="translate(170.23000000000002,0)" d="M0,100v320" style="stroke: rgb(255, 255, 255); stroke-opacity: 1; stroke-width: 1px;"/><path class="xgrid crisp" transform="translate(260.47,0)" d="M0,100v320" style="stroke: rgb(255, 255, 255); stroke-opacity: 1; stroke-width: 1px;"/><path class="xgrid crisp" transform="translate(350.7,0)" d="M0,100v320" style="stroke: rgb(255, 255, 255); stroke-opacity: 1; stroke-width: 1px;"/><path class="xgrid crisp" transform="translate(440.94,0)" d="M0,100v320" style="stroke: rgb(255, 255, 255); stroke-opacity: 1; stroke-width: 1px;"/><path class="xgrid crisp" transform="translate(531.1700000000001,0)" d="M0,100v320" style="stroke: rgb(255, 255, 255); stroke-opacity: 1; stroke-width: 1px;"/></g><g class="y"><path class="ygrid crisp" transform="translate(0,384.96)" d="M80,0h462" style="stroke: rgb(255, 255, 255); stroke-opacity: 1; stroke-width: 1px;"/><path class="ygrid crisp" transform="translate(0,340.6)" d="M80,0h462" style="stroke: rgb(255, 255, 255); stroke-opacity: 1; stroke-width: 1px;"/><path class="ygrid crisp" transform="translate(0,296.23)" d="M80,0h462" style="stroke: rgb(255, 255, 255); stroke-opacity: 1; stroke-width: 1px;"/><path class="ygrid crisp" transform="translate(0,251.87)" d="M80,0h462" style="stroke: rgb(255, 255, 255); stroke-opacity: 1; stroke-width: 1px;"/><path class="ygrid crisp" transform="translate(0,207.5)" d="M80,0h462" style="stroke: rgb(255, 255, 255); stroke-opacity: 1; stroke-width: 1px;"/><path class="ygrid crisp" transform="translate(0,163.14)" d="M80,0h462" style="stroke: rgb(255, 255, 255); stroke-opacity: 1; stroke-width: 1px;"/><path class="ygrid crisp" transform="translate(0,118.78)" d="M80,0h462" style="stroke: rgb(255, 255, 255); stroke-opacity: 1; stroke-width: 1px;"/></g></g><g class="zerolinelayer"><path class="xzl zl crisp" transform="translate(80,0)" d="M0,100v320" style="stroke: rgb(255, 255, 255); stroke-opacity: 1; stroke-width: 2px;"/></g><path class="xlines-below"/><path class="ylines-below"/><g class="overlines-below"/><g class="xaxislayer-below"/><g class="yaxislayer-below"/><g class="overaxes-below"/><g class="plot" transform="translate(80, 100)" clip-path="url('#clipe31352xyplot')"><g class="scatterlayer mlayer"><g class="trace scatter trace58f74a" style="stroke-miterlimit: 2; opacity: 1;"><g class="fills"/><g class="errorbars"/><g class="lines"><path class="js-line" d="M0,249.68Q0.64,247.32 0.9,245.74C1.29,243.41 1.53,240.1 1.81,237C2.13,233.47 2.42,229.57 2.71,225.68C3.02,221.56 3.32,217.25 3.62,212.94C3.93,208.51 4.22,203.97 4.52,199.45C4.82,194.88 5.12,190.27 5.42,185.68C5.72,181.1 6.03,176.51 6.33,171.96C6.63,167.47 6.93,162.98 7.23,158.56C7.53,154.22 7.83,149.91 8.14,145.67C8.44,141.54 8.73,137.45 9.04,133.45C9.34,129.58 9.64,125.77 9.95,122.05C10.25,118.48 10.54,114.97 10.85,111.56C11.14,108.32 11.44,105.14 11.75,102.08C12.04,99.19 12.35,96.38 12.66,93.68C12.95,91.17 13.24,88.73 13.56,86.42C13.85,84.3 14.15,82.25 14.47,80.34C14.76,78.62 15.05,76.97 15.37,75.46C15.65,74.15 15.93,72.89 16.27,71.8C16.55,70.89 16.83,70.02 17.18,69.35C17.45,68.84 17.73,68.29 18.08,68.08C18.35,67.92 18.71,67.87 18.99,67.98C19.33,68.11 19.62,68.55 19.89,68.97C20.24,69.51 20.51,70.26 20.79,71.01C21.12,71.9 21.41,72.94 21.7,74C22.02,75.2 22.31,76.51 22.6,77.85C22.92,79.31 23.22,80.86 23.51,82.44C23.82,84.11 24.11,85.86 24.41,87.62C24.72,89.45 25.02,91.35 25.32,93.24C25.62,95.17 25.92,97.14 26.22,99.1C26.52,101.06 26.82,103.05 27.12,105C27.42,106.92 27.72,108.84 28.03,110.7C28.33,112.49 28.62,114.28 28.93,115.98C29.22,117.58 29.53,119.15 29.84,120.64C30.13,122.02 30.43,123.36 30.74,124.63C31.03,125.79 31.32,126.91 31.64,127.96C31.93,128.92 32.24,129.83 32.55,130.7C32.84,131.51 33.14,132.27 33.45,133.01C33.74,133.71 34.05,134.37 34.36,135.03C34.66,135.68 34.96,136.3 35.26,136.94C35.56,137.58 35.86,138.2 36.16,138.85C36.47,139.52 36.77,140.2 37.07,140.9C37.38,141.64 37.68,142.39 37.97,143.18C38.28,144.01 38.59,144.87 38.88,145.76C39.19,146.7 39.49,147.69 39.78,148.7C40.09,149.77 40.39,150.88 40.68,152.02C40.99,153.22 41.29,154.47 41.59,155.74C41.9,157.07 42.19,158.45 42.49,159.84C42.8,161.29 43.1,162.77 43.4,164.28C43.71,165.83 44,167.42 44.3,169.02C44.61,170.67 44.91,172.34 45.21,174.03C45.51,175.75 45.81,177.5 46.11,179.26C46.41,181.05 46.71,182.86 47.01,184.68C47.31,186.53 47.62,188.4 47.92,190.27C48.22,192.16 48.52,194.07 48.82,195.98C49.12,197.91 49.43,199.85 49.73,201.79C50.03,203.74 50.33,205.71 50.63,207.66C50.93,209.61 51.23,211.58 51.53,213.51C51.83,215.42 52.13,217.34 52.44,219.18C52.73,220.92 53.03,222.63 53.34,224.27C53.63,225.82 53.93,227.36 54.25,228.78C54.54,230.06 54.84,231.27 55.15,232.43C55.44,233.49 55.73,234.53 56.05,235.47C56.34,236.3 56.61,237.16 56.96,237.78C57.23,238.25 57.51,238.78 57.86,238.92C58.13,239.03 58.5,238.98 58.77,238.82C59.12,238.62 59.4,238.09 59.67,237.58C60.03,236.89 60.29,235.9 60.58,234.97C60.9,233.94 61.19,232.81 61.48,231.67C61.79,230.47 62.08,229.2 62.38,227.95C62.68,226.67 62.99,225.36 63.29,224.06C63.59,222.75 63.89,221.44 64.19,220.12C64.49,218.79 64.8,217.46 65.1,216.13C65.4,214.79 65.7,213.42 66,212.09C66.3,210.8 66.59,209.51 66.9,208.29C67.19,207.16 67.49,206.05 67.81,205.02C68.1,204.09 68.38,203.19 68.71,202.39C68.99,201.69 69.28,201.01 69.62,200.47C69.9,200.02 70.18,199.57 70.52,199.33C70.79,199.13 71.13,198.98 71.42,199.01C71.73,199.04 72.06,199.27 72.33,199.53C72.67,199.85 72.95,200.38 73.23,200.91C73.57,201.55 73.86,202.34 74.14,203.16C74.47,204.1 74.75,205.16 75.04,206.26C75.36,207.49 75.66,208.81 75.95,210.18C76.27,211.67 76.56,213.25 76.85,214.87C77.16,216.6 77.46,218.41 77.75,220.25C78.06,222.18 78.36,224.18 78.66,226.2C78.97,228.28 79.26,230.41 79.56,232.55C79.86,234.73 80.17,236.94 80.47,239.14C80.77,241.35 81.07,243.59 81.37,245.8C81.67,247.99 81.96,250.19 82.27,252.34C82.57,254.45 82.87,256.57 83.18,258.59C83.47,260.49 83.76,262.38 84.08,264.1C84.37,265.63 84.66,267.1 84.99,268.41C85.27,269.53 85.54,270.63 85.89,271.51C86.16,272.2 86.44,272.85 86.79,273.3C87.06,273.65 87.37,273.98 87.7,274.09C87.98,274.18 88.32,274.14 88.6,274.01C88.93,273.86 89.23,273.5 89.51,273.15C89.84,272.74 90.12,272.19 90.41,271.65C90.73,271.06 91.03,270.43 91.32,269.74C91.64,268.97 91.93,268.13 92.22,267.24C92.54,266.26 92.82,265.17 93.12,264.11C93.43,263.01 93.73,261.87 94.03,260.74C94.33,259.61 94.63,258.46 94.93,257.33C95.23,256.2 95.54,255.06 95.84,253.94C96.14,252.84 96.44,251.74 96.74,250.66C97.04,249.61 97.33,248.58 97.64,247.57C97.94,246.59 98.24,245.62 98.55,244.67C98.85,243.74 99.15,242.82 99.45,241.91C99.75,241 100.06,240.12 100.36,239.21C100.66,238.3 100.96,237.38 101.26,236.45C101.56,235.5 101.85,234.51 102.16,233.56C102.46,232.63 102.76,231.7 103.07,230.81C103.36,229.97 103.65,229.15 103.97,228.38C104.26,227.68 104.56,227 104.88,226.38C105.17,225.82 105.46,225.29 105.78,224.81C106.07,224.38 106.37,223.99 106.68,223.64C106.97,223.31 107.28,223.03 107.59,222.75C107.89,222.48 108.19,222.23 108.49,221.97C108.79,221.71 109.1,221.44 109.4,221.17C109.7,220.9 110,220.65 110.3,220.37C110.61,220.08 110.92,219.81 111.21,219.47C111.53,219.1 111.81,218.64 112.11,218.21C112.42,217.76 112.72,217.31 113.01,216.82C113.32,216.31 113.63,215.77 113.92,215.2C114.23,214.59 114.53,213.94 114.82,213.26C115.14,212.51 115.44,211.73 115.73,210.89C116.05,209.97 116.34,208.99 116.63,207.98C116.94,206.89 117.24,205.74 117.53,204.56C117.84,203.3 118.15,202.01 118.44,200.65C118.75,199.19 119.04,197.62 119.34,196.07C119.65,194.48 119.95,192.83 120.25,191.22C120.55,189.61 120.85,188 121.15,186.4C121.45,184.82 121.75,183.24 122.05,181.69C122.35,180.16 122.65,178.64 122.96,177.15C123.26,175.69 123.55,174.24 123.86,172.83C124.16,171.47 124.46,170.13 124.77,168.83C125.06,167.59 125.36,166.38 125.67,165.22C125.96,164.13 126.27,163.08 126.58,162.08C126.87,161.16 127.17,160.27 127.48,159.44C127.77,158.68 128.06,157.94 128.38,157.27C128.67,156.66 128.97,156.08 129.29,155.57C129.58,155.11 129.86,154.66 130.19,154.31C130.47,154.01 130.78,153.71 131.1,153.56C131.38,153.43 131.71,153.35 132,153.39C132.31,153.43 132.62,153.6 132.9,153.81C133.23,154.06 133.53,154.45 133.81,154.85C134.14,155.32 134.42,155.9 134.71,156.5C135.03,157.17 135.33,157.94 135.62,158.71C135.93,159.52 136.23,160.37 136.52,161.25C136.83,162.2 137.13,163.19 137.42,164.21C137.73,165.3 138.04,166.45 138.33,167.62C138.64,168.85 138.93,170.14 139.23,171.44C139.54,172.79 139.84,174.19 140.14,175.59C140.45,177.03 140.74,178.5 141.04,179.98C141.34,181.48 141.65,183 141.95,184.52C142.25,186.05 142.55,187.59 142.85,189.12C143.15,190.66 143.45,192.2 143.75,193.73C144.05,195.25 144.36,196.77 144.66,198.26C144.96,199.72 145.25,201.18 145.56,202.6C145.86,203.97 146.16,205.32 146.47,206.63C146.76,207.88 147.06,209.11 147.37,210.28C147.66,211.38 147.95,212.47 148.27,213.47C148.56,214.37 148.86,215.24 149.18,216.02C149.46,216.7 149.75,217.33 150.08,217.88C150.36,218.36 150.67,218.8 150.99,219.17C151.27,219.49 151.58,219.74 151.89,220C152.18,220.25 152.48,220.48 152.79,220.68C153.09,220.88 153.39,221.07 153.7,221.2C153.99,221.32 154.3,221.41 154.6,221.45C154.9,221.49 155.21,221.49 155.51,221.44C155.81,221.39 156.12,221.29 156.41,221.16C156.72,221.03 157.03,220.85 157.32,220.65C157.63,220.43 157.92,220.15 158.22,219.88C158.52,219.6 158.82,219.3 159.12,219.01C159.42,218.72 159.73,218.44 160.03,218.16C160.33,217.88 160.63,217.61 160.93,217.32C161.24,217.02 161.55,216.72 161.84,216.38C162.15,216.02 162.44,215.6 162.74,215.19C163.04,214.77 163.34,214.33 163.64,213.91C163.94,213.49 164.25,213.07 164.55,212.65C164.85,212.23 165.15,211.81 165.45,211.38C165.76,210.94 166.06,210.5 166.36,210.03C166.67,209.54 166.97,209.03 167.26,208.49C167.57,207.91 167.88,207.33 168.16,206.66C168.49,205.88 168.78,205 169.07,204.09C169.39,203.07 169.68,201.94 169.97,200.82C170.28,199.65 170.58,198.43 170.88,197.21C171.19,195.95 171.48,194.67 171.78,193.37C172.08,192.05 172.38,190.7 172.68,189.35C172.98,187.97 173.29,186.57 173.59,185.17C173.89,183.75 174.19,182.32 174.49,180.89C174.79,179.45 175.1,178 175.4,176.55C175.7,175.1 176,173.65 176.3,172.21C176.6,170.78 176.91,169.36 177.21,167.95C177.51,166.56 177.81,165.18 178.11,163.82C178.41,162.49 178.7,161.17 179.01,159.87C179.31,158.61 179.61,157.36 179.92,156.14C180.22,154.96 180.51,153.8 180.82,152.68C181.11,151.61 181.42,150.56 181.73,149.56C182.02,148.62 182.32,147.7 182.63,146.84C182.92,146.05 183.21,145.29 183.53,144.59C183.82,143.96 184.11,143.36 184.44,142.84C184.72,142.39 185.01,141.96 185.34,141.64C185.62,141.36 185.93,141.11 186.25,140.99C186.54,140.88 186.86,140.83 187.15,140.88C187.46,140.93 187.77,141.11 188.05,141.32C188.38,141.56 188.68,141.92 188.96,142.3C189.28,142.73 189.57,143.25 189.86,143.79C190.18,144.4 190.48,145.09 190.77,145.8C191.09,146.59 191.38,147.44 191.67,148.33C191.99,149.29 192.29,150.31 192.58,151.37C192.89,152.5 193.19,153.7 193.48,154.92C193.79,156.22 194.09,157.57 194.38,158.96C194.69,160.43 194.99,161.94 195.29,163.49C195.6,165.11 195.89,166.77 196.19,168.47C196.5,170.24 196.8,172.05 197.1,173.88C197.41,175.77 197.7,177.7 198,179.64C198.3,181.63 198.6,183.67 198.9,185.7C199.2,187.74 199.51,189.81 199.81,191.83C200.11,193.81 200.41,195.76 200.71,197.7C201.01,199.61 201.31,201.55 201.62,203.4C201.91,205.16 202.22,206.85 202.52,208.55C202.82,210.21 203.12,211.84 203.42,213.46C203.72,215.05 204.02,216.64 204.33,218.2C204.63,219.72 204.92,221.23 205.23,222.7C205.53,224.11 205.83,225.47 206.14,226.82C206.44,228.12 206.73,229.41 207.04,230.65C207.34,231.84 207.64,232.99 207.95,234.13C208.25,235.23 208.55,236.31 208.85,237.38C209.15,238.43 209.45,239.47 209.75,240.5C210.05,241.51 210.35,242.51 210.66,243.49C210.96,244.44 211.25,245.39 211.56,246.29C211.85,247.13 212.16,247.96 212.47,248.73C212.76,249.44 213.06,250.12 213.37,250.77C213.66,251.37 213.95,251.97 214.27,252.49C214.56,252.96 214.85,253.41 215.18,253.77C215.46,254.08 215.77,254.32 216.08,254.54C216.37,254.74 216.68,254.92 216.99,255.04C217.28,255.16 217.59,255.26 217.89,255.27C218.19,255.28 218.53,255.3 218.79,255.11C219.17,254.84 219.42,254.07 219.7,253.46C220.03,252.75 220.3,251.89 220.6,251.07C220.91,250.22 221.21,249.35 221.51,248.46C221.82,247.53 222.11,246.56 222.41,245.6C222.71,244.63 223.02,243.65 223.32,242.67C223.62,241.69 223.92,240.71 224.22,239.74C224.52,238.77 224.82,237.82 225.12,236.84C225.43,235.84 225.73,234.83 226.03,233.8C226.34,232.73 226.63,231.62 226.93,230.53C227.23,229.43 227.54,228.33 227.84,227.22C228.14,226.1 228.44,224.98 228.74,223.83C229.04,222.65 229.34,221.45 229.64,220.23C229.95,218.96 230.26,217.69 230.55,216.34C230.86,214.89 231.15,213.34 231.45,211.82C231.75,210.27 232.06,208.7 232.36,207.13C232.66,205.54 232.96,203.93 233.26,202.32C233.56,200.71 233.86,199.08 234.16,197.47C234.46,195.86 234.77,194.25 235.07,192.66C235.37,191.1 235.66,189.54 235.97,188.01C236.27,186.52 236.57,185.03 236.88,183.59C237.18,182.2 237.47,180.82 237.78,179.49C238.07,178.22 238.37,176.98 238.68,175.78C238.97,174.65 239.28,173.55 239.59,172.51C239.88,171.54 240.17,170.6 240.49,169.73C240.78,168.93 241.08,168.17 241.4,167.48C241.69,166.87 241.97,166.29 242.3,165.81C242.58,165.39 242.88,164.99 243.21,164.73C243.49,164.51 243.8,164.33 244.11,164.29C244.4,164.25 244.73,164.33 245.01,164.47C245.34,164.64 245.64,164.96 245.92,165.3C246.25,165.7 246.54,166.22 246.82,166.76C247.15,167.38 247.44,168.1 247.73,168.85C248.05,169.68 248.34,170.59 248.63,171.53C248.94,172.56 249.23,173.67 249.53,174.78C249.84,175.94 250.14,177.13 250.44,178.35C250.75,179.61 251.05,180.9 251.34,182.23C251.65,183.62 251.95,185.06 252.25,186.51C252.56,188 252.85,189.52 253.15,191.04C253.45,192.59 253.75,194.15 254.05,195.72C254.35,197.32 254.66,198.93 254.96,200.57C255.27,202.24 255.56,203.94 255.86,205.65C256.17,207.4 256.47,209.18 256.77,210.97C257.07,212.8 257.37,214.65 257.67,216.52C257.97,218.41 258.28,220.33 258.58,222.25C258.88,224.19 259.18,226.15 259.48,228.1C259.78,230.05 260.07,232.06 260.38,233.97C260.67,235.79 260.97,237.59 261.29,239.28C261.58,240.83 261.88,242.29 262.19,243.73C262.48,245.11 262.78,246.49 263.1,247.75C263.39,248.88 263.69,249.93 264,250.94C264.29,251.86 264.59,252.72 264.9,253.56C265.19,254.36 265.5,255.14 265.81,255.88C266.1,256.57 266.39,257.25 266.71,257.87C267,258.44 267.3,259.01 267.62,259.49C267.91,259.92 268.19,260.36 268.52,260.64C268.8,260.88 269.11,261.12 269.42,261.15C269.72,261.18 270.05,261.06 270.33,260.87C270.67,260.64 270.95,260.18 271.23,259.75C271.56,259.26 271.85,258.66 272.14,258.07C272.45,257.43 272.75,256.73 273.04,256.02C273.35,255.26 273.66,254.46 273.95,253.63C274.26,252.75 274.56,251.83 274.85,250.89C275.16,249.89 275.46,248.86 275.75,247.8C276.06,246.69 276.36,245.54 276.66,244.37C276.97,243.15 277.26,241.9 277.56,240.63C277.87,239.31 278.17,237.97 278.47,236.6C278.78,235.19 279.07,233.75 279.37,232.3C279.67,230.82 279.97,229.32 280.27,227.8C280.58,226.25 280.88,224.69 281.18,223.09C281.49,221.43 281.78,219.73 282.08,218.01C282.39,216.23 282.69,214.38 282.99,212.57C283.29,210.76 283.59,208.94 283.89,207.14C284.19,205.36 284.48,203.59 284.79,201.85C285.09,200.14 285.39,198.45 285.7,196.79C286,195.18 286.29,193.59 286.6,192.03C286.9,190.53 287.2,189.05 287.51,187.61C287.8,186.24 288.1,184.9 288.41,183.61C288.7,182.39 289.01,181.2 289.32,180.07C289.61,179.02 289.91,178 290.22,177.05C290.51,176.18 290.8,175.34 291.12,174.58C291.41,173.9 291.7,173.25 292.03,172.7C292.31,172.22 292.6,171.76 292.93,171.44C293.21,171.17 293.52,170.91 293.84,170.84C294.13,170.77 294.46,170.82 294.74,170.95C295.07,171.1 295.36,171.44 295.64,171.79C295.98,172.22 296.27,172.8 296.55,173.4C296.88,174.1 297.17,174.91 297.45,175.76C297.77,176.72 298.07,177.79 298.36,178.89C298.68,180.11 298.97,181.42 299.26,182.77C299.57,184.23 299.87,185.78 300.16,187.36C300.47,189.05 300.78,190.81 301.07,192.61C301.38,194.5 301.67,196.45 301.97,198.43C302.28,200.48 302.58,202.59 302.88,204.69C303.18,206.82 303.48,208.99 303.78,211.14C304.08,213.28 304.38,215.42 304.68,217.55C304.98,219.66 305.29,221.76 305.59,223.84C305.89,225.88 306.18,227.92 306.49,229.92C306.79,231.87 307.08,233.88 307.4,235.69C307.69,237.31 307.98,238.84 308.3,240.29C308.59,241.6 308.88,242.89 309.21,244.03C309.49,245 309.74,246.02 310.11,246.71C310.38,247.21 310.68,247.85 311.01,247.9C311.29,247.94 311.66,247.59 311.92,247.25C312.32,246.74 312.55,245.76 312.82,244.86C313.16,243.73 313.45,242.36 313.73,240.97C314.05,239.39 314.34,237.65 314.63,235.88C314.94,233.95 315.24,231.91 315.53,229.83C315.84,227.62 316.14,225.31 316.44,222.98C316.75,220.54 317.04,218.03 317.34,215.5C317.65,212.88 317.95,210.21 318.25,207.52C318.55,204.78 318.85,202 319.15,199.23C319.45,196.46 319.75,193.67 320.05,190.92C320.35,188.21 320.65,185.51 320.96,182.86C321.26,180.29 321.55,177.74 321.86,175.27C322.16,172.9 322.46,170.56 322.77,168.31C323.06,166.18 323.36,164.1 323.67,162.11C323.96,160.26 324.26,158.47 324.58,156.78C324.87,155.24 325.16,153.75 325.48,152.39C325.76,151.18 326.05,150.02 326.38,149C326.66,148.14 326.94,147.31 327.29,146.67C327.56,146.17 327.84,145.65 328.19,145.42C328.46,145.24 328.82,145.14 329.1,145.22C329.43,145.31 329.73,145.71 330,146.08C330.35,146.56 330.62,147.26 330.9,147.96C331.23,148.81 331.53,149.81 331.81,150.84C332.13,152.01 332.42,153.31 332.71,154.64C333.03,156.1 333.33,157.65 333.62,159.23C333.93,160.92 334.23,162.67 334.52,164.47C334.83,166.37 335.13,168.33 335.42,170.33C335.73,172.43 336.03,174.58 336.33,176.77C336.64,179.03 336.93,181.37 337.23,183.68C337.53,186.02 337.84,188.39 338.14,190.73C338.44,193.06 338.74,195.37 339.04,197.7C339.34,200.03 339.65,202.38 339.95,204.71C340.25,207.02 340.55,209.36 340.85,211.63C341.15,213.83 341.44,216.04 341.75,218.13C342.04,220.08 342.34,222 342.66,223.77C342.95,225.35 343.23,226.9 343.56,228.26C343.84,229.4 344.11,230.55 344.47,231.39C344.74,232.02 345,232.77 345.37,232.94C345.63,233.06 346.01,232.96 346.27,232.76C346.66,232.46 346.91,231.62 347.18,230.89C347.53,229.95 347.8,228.73 348.08,227.52C348.41,226.12 348.7,224.56 348.99,222.94C349.31,221.13 349.6,219.15 349.89,217.16C350.2,215.04 350.49,212.77 350.79,210.57C351.09,208.35 351.4,206.11 351.7,203.9C352,201.71 352.29,199.51 352.6,197.36C352.9,195.26 353.2,193.17 353.51,191.14C353.81,189.18 354.1,187.25 354.41,185.38C354.7,183.61 355.01,181.87 355.32,180.21C355.61,178.66 355.91,177.14 356.22,175.72C356.51,174.42 356.8,173.16 357.12,172C357.41,170.97 357.7,169.98 358.03,169.12C358.31,168.39 358.59,167.67 358.93,167.13C359.21,166.69 359.5,166.25 359.84,166.05C360.12,165.89 360.46,165.81 360.74,165.88C361.06,165.96 361.37,166.3 361.64,166.63C361.98,167.04 362.27,167.64 362.55,168.25C362.88,168.97 363.17,169.83 363.45,170.71C363.77,171.71 364.07,172.82 364.36,173.96C364.68,175.22 364.97,176.56 365.26,177.94C365.57,179.43 365.87,180.99 366.16,182.58C366.47,184.27 366.77,186.03 367.07,187.81C367.38,189.67 367.67,191.59 367.97,193.53C368.28,195.53 368.58,197.58 368.88,199.63C369.18,201.72 369.48,203.86 369.78,205.98C370.08,208.12 370.38,210.28 370.68,212.41C370.98,214.51 371.28,216.63 371.59,218.68C371.89,220.65 372.17,222.64 372.49,224.49C372.78,226.19 373.05,227.98 373.4,229.36C373.67,230.41 373.87,231.61 374.3,232.1C374.56,232.39 374.93,232.58 375.21,232.52C375.54,232.45 375.84,231.9 376.11,231.45C376.47,230.85 376.73,229.99 377.01,229.15C377.34,228.18 377.63,227.07 377.92,225.95C378.24,224.73 378.53,223.44 378.82,222.09C379.14,220.62 379.43,219.03 379.73,217.47C380.04,215.86 380.33,214.21 380.63,212.57C380.93,210.9 381.23,209.22 381.53,207.54C381.83,205.87 382.13,204.17 382.44,202.52C382.74,200.93 383.03,199.34 383.34,197.82C383.63,196.37 383.94,194.95 384.25,193.6C384.54,192.34 384.83,191.12 385.15,189.98C385.44,188.94 385.73,187.93 386.05,187.02C386.34,186.21 386.63,185.44 386.96,184.77C387.24,184.2 387.53,183.65 387.86,183.24C388.14,182.89 388.44,182.56 388.77,182.4C389.05,182.26 389.38,182.19 389.67,182.24C389.98,182.29 390.3,182.49 390.58,182.72C390.91,182.98 391.2,183.37 391.48,183.78C391.81,184.26 392.1,184.83 392.38,185.44C392.7,186.13 393,186.92 393.29,187.73C393.61,188.63 393.9,189.62 394.19,190.63C394.51,191.74 394.81,192.91 395.1,194.12C395.41,195.41 395.71,196.77 396,198.15C396.31,199.6 396.6,201.12 396.9,202.61C397.2,204.11 397.51,205.6 397.81,207.12C398.12,208.68 398.41,210.27 398.71,211.87C399.02,213.51 399.32,215.19 399.62,216.87C399.92,218.56 400.21,220.31 400.52,221.97C400.81,223.57 401.12,225.11 401.42,226.67C401.72,228.21 402.02,229.75 402.33,231.26C402.63,232.73 402.92,234.21 403.23,235.6C403.52,236.9 403.82,238.16 404.14,239.35C404.43,240.44 404.73,241.47 405.04,242.46C405.33,243.39 405.63,244.29 405.95,245.14C406.24,245.92 406.53,246.67 406.85,247.35C407.13,247.95 407.41,248.56 407.75,249.02C408.03,249.4 408.32,249.85 408.66,249.97C408.94,250.07 409.28,250 409.56,249.87C409.89,249.72 410.19,249.35 410.47,249C410.8,248.59 411.08,248.06 411.37,247.53C411.69,246.95 411.97,246.28 412.27,245.63C412.58,244.95 412.88,244.23 413.18,243.52C413.48,242.81 413.78,242.09 414.08,241.39C414.38,240.7 414.69,240.02 414.99,239.33C415.29,238.64 415.59,237.92 415.89,237.24C416.19,236.58 416.48,235.92 416.79,235.3C417.08,234.72 417.38,234.15 417.7,233.64C417.99,233.18 418.28,232.73 418.6,232.37C418.89,232.05 419.19,231.75 419.51,231.57C419.79,231.41 420.11,231.29 420.41,231.28C420.71,231.27 421.03,231.36 421.32,231.5C421.64,231.66 421.93,231.95 422.22,232.24C422.54,232.56 422.83,232.97 423.12,233.38C423.44,233.83 423.74,234.33 424.03,234.86C424.35,235.44 424.64,236.07 424.93,236.72C425.24,237.43 425.55,238.19 425.84,238.96C426.15,239.77 426.44,240.62 426.74,241.46C427.04,242.3 427.34,243.12 427.64,243.98C427.95,244.87 428.25,245.8 428.55,246.73C428.86,247.69 429.15,248.68 429.45,249.67C429.76,250.69 430.06,251.73 430.36,252.77C430.66,253.81 430.96,254.87 431.26,255.91C431.56,256.93 431.86,257.95 432.16,258.95C432.46,259.93 432.77,260.91 433.07,261.87C433.37,262.82 433.66,263.76 433.97,264.69C434.27,265.59 434.57,266.49 434.88,267.36C435.18,268.2 435.47,269.02 435.78,269.82C436.07,270.58 436.37,271.34 436.68,272.04C436.97,272.69 437.26,273.34 437.59,273.88C437.87,274.35 438.16,274.82 438.49,275.14C438.77,275.4 439.11,275.75 439.4,275.72C439.71,275.69 440.01,275.17 440.3,274.83C440.62,274.45 440.92,273.97 441.21,273.51C441.52,273.02 441.82,272.5 442.11,271.97C442.42,271.42 442.71,270.84 443.01,270.26C443.31,269.67 443.62,269.06 443.92,268.46C444.22,267.87 444.51,267.27 444.82,266.69C445.12,266.12 445.42,265.56 445.73,265.02C446.03,264.5 446.32,263.98 446.63,263.5C446.92,263.04 447.22,262.6 447.53,262.19C447.82,261.8 448.13,261.44 448.44,261.11C448.73,260.8 449.03,260.52 449.34,260.25C449.64,259.99 449.94,259.74 450.25,259.51C450.55,259.29 450.84,259.06 451.15,258.89C451.44,258.73 451.74,258.59 452.05,258.5C452.35,258.42 452.66,258.37 452.96,258.37C453.26,258.37 453.56,258.41 453.86,258.48C454.17,258.55 454.47,258.67 454.77,258.8C455.08,258.94 455.38,259.11 455.67,259.31C455.98,259.52 456.28,259.75 456.58,260.01C456.89,260.28 457.19,260.57 457.48,260.88C457.79,261.2 458.08,261.55 458.38,261.9C458.69,262.26 458.99,262.64 459.29,263.02C459.59,263.4 459.89,263.79 460.19,264.16C460.49,264.53 460.79,264.9 461.1,265.24Q461.39,265.56 462,266.13" style="vector-effect: non-scaling-stroke; fill: none; stroke: rgb(0, 100, 80); stroke-opacity: 1; stroke-width: 2px; opacity: 1;"/></g><g class="points"/><g class="text"/></g><g class="trace scatter trace7ae539" style="stroke-miterlimit: 2; opacity: 1;"><g class="fills"/><g class="errorbars"/><g class="lines"><path class="js-line" d="M0,215.34Q0.64,213.1 0.9,211.63C1.28,209.52 1.52,206.6 1.81,203.85C2.13,200.75 2.42,197.33 2.71,193.94C3.02,190.37 3.32,186.65 3.62,182.94C3.92,179.15 4.22,175.29 4.52,171.46C4.82,167.61 5.12,163.73 5.42,159.89C5.72,156.08 6.03,152.27 6.33,148.52C6.63,144.84 6.92,141.17 7.23,137.57C7.53,134.07 7.83,130.6 8.14,127.22C8.44,123.96 8.73,120.74 9.04,117.62C9.33,114.64 9.64,111.72 9.95,108.9C10.24,106.24 10.54,103.65 10.85,101.17C11.14,98.87 11.43,96.62 11.75,94.51C12.04,92.58 12.34,90.71 12.66,88.98C12.95,87.45 13.23,85.97 13.56,84.65C13.84,83.52 14.13,82.43 14.47,81.53C14.74,80.81 15.01,80.08 15.37,79.65C15.64,79.33 15.97,79.02 16.27,79.01C16.57,79 16.91,79.29 17.18,79.58C17.54,79.97 17.8,80.65 18.08,81.32C18.42,82.15 18.71,83.15 18.99,84.19C19.32,85.39 19.6,86.72 19.89,88.1C20.21,89.63 20.5,91.28 20.79,92.97C21.1,94.79 21.41,96.71 21.7,98.67C22.01,100.74 22.3,102.89 22.6,105.07C22.91,107.34 23.21,109.67 23.51,112.01C23.82,114.41 24.11,116.87 24.41,119.31C24.71,121.78 25.02,124.27 25.32,126.74C25.62,129.19 25.92,131.66 26.22,134.06C26.52,136.39 26.81,138.73 27.12,140.95C27.41,143.03 27.71,145.08 28.03,146.97C28.32,148.67 28.6,150.31 28.93,151.79C29.21,153.08 29.5,154.32 29.84,155.37C30.12,156.23 30.38,157.08 30.74,157.67C31.01,158.1 31.31,158.56 31.64,158.67C31.92,158.76 32.28,158.64 32.55,158.46C32.9,158.23 33.17,157.72 33.45,157.25C33.78,156.69 34.07,155.98 34.36,155.28C34.68,154.52 34.97,153.67 35.26,152.84C35.57,151.97 35.86,151.06 36.16,150.18C36.46,149.3 36.76,148.4 37.07,147.54C37.37,146.71 37.66,145.89 37.97,145.12C38.26,144.41 38.56,143.7 38.88,143.08C39.17,142.52 39.45,141.98 39.78,141.55C40.06,141.19 40.35,140.83 40.68,140.65C40.96,140.5 41.3,140.4 41.59,140.45C41.9,140.5 42.21,140.75 42.49,141.02C42.83,141.35 43.12,141.85 43.4,142.37C43.73,142.99 44.02,143.75 44.3,144.53C44.63,145.43 44.92,146.45 45.21,147.5C45.53,148.67 45.82,149.94 46.11,151.24C46.42,152.66 46.72,154.16 47.01,155.7C47.32,157.34 47.62,159.06 47.92,160.8C48.23,162.62 48.52,164.51 48.82,166.41C49.13,168.37 49.43,170.38 49.73,172.39C50.03,174.44 50.33,176.52 50.63,178.61C50.93,180.73 51.23,182.86 51.53,185C51.83,187.17 52.14,189.37 52.44,191.57C52.74,193.8 53.04,196.04 53.34,198.29C53.64,200.55 53.95,202.82 54.25,205.08C54.55,207.33 54.85,209.6 55.15,211.83C55.45,214.03 55.74,216.24 56.05,218.39C56.35,220.47 56.65,222.55 56.96,224.54C57.25,226.42 57.54,228.27 57.86,230.01C58.15,231.6 58.45,233.13 58.77,234.55C59.06,235.82 59.34,237.03 59.67,238.12C59.95,239.07 60.16,240.22 60.58,240.74C60.84,241.06 61.17,241.26 61.48,241.29C61.77,241.32 62.1,241.14 62.38,240.96C62.71,240.74 63,240.37 63.29,240C63.61,239.58 63.9,239.07 64.19,238.56C64.51,238 64.8,237.38 65.1,236.77C65.41,236.14 65.7,235.46 66,234.83C66.3,234.21 66.59,233.58 66.9,233.01C67.19,232.48 67.49,231.96 67.81,231.52C68.09,231.13 68.38,230.75 68.71,230.5C68.99,230.28 69.31,230.09 69.62,230.03C69.91,229.97 70.23,230.02 70.52,230.12C70.83,230.23 71.13,230.46 71.42,230.71C71.74,230.99 72.04,231.34 72.33,231.72C72.65,232.15 72.95,232.65 73.23,233.19C73.55,233.8 73.85,234.5 74.14,235.23C74.46,236.06 74.75,236.96 75.04,237.91C75.36,238.96 75.66,240.1 75.95,241.28C76.27,242.56 76.56,243.91 76.85,245.3C77.16,246.78 77.46,248.32 77.75,249.89C78.06,251.54 78.36,253.25 78.66,254.96C78.96,256.7 79.26,258.49 79.56,260.25C79.86,262.01 80.17,263.76 80.47,265.52C80.77,267.28 81.07,269.03 81.37,270.79C81.67,272.55 81.97,274.32 82.27,276.08C82.57,277.82 82.87,279.58 83.18,281.28C83.48,282.93 83.76,284.6 84.08,286.13C84.37,287.52 84.64,288.97 84.99,290.1C85.26,290.98 85.48,291.98 85.89,292.4C86.15,292.66 86.52,292.86 86.79,292.78C87.14,292.68 87.43,291.97 87.7,291.44C88.04,290.78 88.31,289.91 88.6,289.06C88.92,288.11 89.21,287.05 89.51,286.02C89.81,284.98 90.11,283.9 90.41,282.85C90.71,281.8 91.02,280.75 91.32,279.71C91.62,278.67 91.92,277.64 92.22,276.6C92.52,275.56 92.82,274.53 93.12,273.49C93.42,272.46 93.73,271.42 94.03,270.39C94.33,269.37 94.63,268.36 94.93,267.36C95.23,266.38 95.53,265.41 95.84,264.46C96.14,263.53 96.44,262.62 96.74,261.72C97.04,260.85 97.33,259.98 97.64,259.14C97.94,258.34 98.24,257.55 98.55,256.81C98.84,256.11 99.14,255.43 99.45,254.8C99.74,254.22 100.04,253.65 100.36,253.15C100.65,252.7 100.94,252.27 101.26,251.92C101.54,251.62 101.84,251.33 102.16,251.16C102.45,251.01 102.77,250.91 103.07,250.91C103.37,250.91 103.69,251.02 103.97,251.18C104.29,251.36 104.59,251.66 104.88,251.97C105.2,252.32 105.49,252.77 105.78,253.2C106.09,253.65 106.36,254.19 106.68,254.6C106.97,254.96 107.27,255.31 107.59,255.55C107.87,255.77 108.2,256.05 108.49,256.03C108.8,256.01 109.12,255.66 109.4,255.38C109.73,255.04 110.02,254.57 110.3,254.09C110.63,253.53 110.93,252.88 111.21,252.19C111.53,251.4 111.82,250.5 112.11,249.59C112.42,248.61 112.72,247.57 113.01,246.51C113.32,245.39 113.63,244.24 113.92,243.05C114.23,241.79 114.53,240.48 114.82,239.13C115.13,237.7 115.44,236.2 115.73,234.68C116.04,233.08 116.33,231.42 116.63,229.76C116.93,228.06 117.23,226.31 117.53,224.58C117.83,222.85 118.14,221.09 118.44,219.37C118.74,217.68 119.03,215.98 119.34,214.33C119.64,212.73 119.94,211.14 120.25,209.6C120.55,208.13 120.84,206.68 121.15,205.28C121.44,203.96 121.74,202.66 122.05,201.43C122.34,200.28 122.65,199.17 122.96,198.12C123.25,197.15 123.54,196.21 123.86,195.35C124.15,194.57 124.45,193.83 124.77,193.16C125.06,192.57 125.34,191.99 125.67,191.52C125.95,191.11 126.25,190.72 126.58,190.45C126.86,190.22 127.17,190.01 127.48,189.94C127.77,189.88 128.09,189.91 128.38,190.01C128.7,190.12 129.01,190.37 129.29,190.64C129.62,190.95 129.91,191.38 130.19,191.83C130.52,192.34 130.81,192.94 131.1,193.57C131.42,194.27 131.71,195.03 132,195.83C132.31,196.7 132.61,197.63 132.9,198.58C133.21,199.6 133.52,200.67 133.81,201.77C134.12,202.93 134.41,204.14 134.71,205.37C135.02,206.65 135.32,207.97 135.62,209.3C135.93,210.68 136.22,212.09 136.52,213.51C136.82,214.96 137.12,216.43 137.42,217.9C137.72,219.38 138.03,220.88 138.33,222.36C138.63,223.82 138.93,225.27 139.23,226.71C139.53,228.14 139.84,229.55 140.14,230.96C140.44,232.35 140.74,233.75 141.04,235.12C141.34,236.47 141.64,237.83 141.95,239.14C142.25,240.41 142.54,241.68 142.85,242.88C143.14,244 143.43,245.11 143.75,246.12C144.04,247.02 144.34,247.88 144.66,248.65C144.94,249.33 145.24,249.97 145.56,250.54C145.85,251.04 146.15,251.52 146.47,251.91C146.75,252.25 147.05,252.57 147.37,252.79C147.65,252.99 147.96,253.15 148.27,253.21C148.57,253.27 148.88,253.25 149.18,253.19C149.49,253.12 149.79,252.97 150.08,252.81C150.39,252.64 150.7,252.4 150.99,252.16C151.3,251.91 151.6,251.61 151.89,251.31C152.2,250.99 152.49,250.64 152.79,250.28C153.1,249.91 153.4,249.51 153.7,249.11C154.01,248.7 154.3,248.28 154.6,247.85C154.91,247.41 155.21,246.96 155.51,246.51C155.81,246.05 156.11,245.59 156.41,245.12C156.71,244.64 157.02,244.16 157.32,243.67C157.62,243.18 157.92,242.69 158.22,242.18C158.52,241.66 158.82,241.14 159.12,240.6C159.43,240.05 159.73,239.5 160.03,238.93C160.34,238.35 160.63,237.75 160.93,237.16C161.23,236.56 161.54,235.95 161.84,235.35C162.14,234.74 162.44,234.14 162.74,233.53C163.04,232.9 163.34,232.28 163.64,231.63C163.95,230.96 164.26,230.28 164.55,229.56C164.86,228.81 165.16,228.02 165.45,227.21C165.76,226.34 166.07,225.44 166.36,224.51C166.67,223.52 166.97,222.49 167.26,221.44C167.57,220.33 167.86,219.19 168.16,218.02C168.47,216.8 168.77,215.56 169.07,214.29C169.38,212.98 169.67,211.63 169.97,210.27C170.28,208.87 170.58,207.45 170.88,206.01C171.19,204.54 171.48,203.04 171.78,201.53C172.08,199.99 172.38,198.44 172.68,196.88C172.98,195.3 173.29,193.7 173.59,192.09C173.89,190.46 174.19,188.82 174.49,187.17C174.79,185.51 175.1,183.85 175.4,182.17C175.7,180.48 176,178.78 176.3,177.06C176.6,175.32 176.91,173.56 177.21,171.79C177.51,169.99 177.81,168.16 178.11,166.34C178.41,164.52 178.71,162.69 179.01,160.88C179.31,159.09 179.62,157.3 179.92,155.54C180.22,153.81 180.51,152.1 180.82,150.41C181.12,148.76 181.42,147.13 181.73,145.54C182.03,144 182.32,142.48 182.63,141C182.92,139.57 183.22,138.16 183.53,136.8C183.83,135.5 184.13,134.22 184.44,132.99C184.73,131.82 185.03,130.67 185.34,129.58C185.63,128.55 185.94,127.56 186.25,126.61C186.54,125.73 186.84,124.88 187.15,124.09C187.44,123.37 187.73,122.67 188.05,122.05C188.34,121.49 188.63,120.96 188.96,120.52C189.24,120.14 189.53,119.77 189.86,119.53C190.14,119.32 190.46,119.13 190.77,119.09C191.06,119.05 191.39,119.11 191.67,119.24C191.99,119.39 192.3,119.68 192.58,119.99C192.91,120.36 193.2,120.83 193.48,121.34C193.81,121.93 194.09,122.61 194.38,123.32C194.7,124.11 195,124.98 195.29,125.89C195.61,126.89 195.9,127.96 196.19,129.07C196.5,130.27 196.81,131.53 197.1,132.82C197.41,134.2 197.71,135.64 198,137.11C198.31,138.67 198.6,140.28 198.9,141.92C199.21,143.63 199.51,145.39 199.81,147.18C200.12,149.04 200.41,150.94 200.71,152.86C201.02,154.84 201.32,156.86 201.62,158.89C201.93,160.97 202.22,163.08 202.52,165.2C202.82,167.36 203.12,169.54 203.42,171.72C203.72,173.93 204.03,176.15 204.33,178.37C204.63,180.59 204.93,182.83 205.23,185.05C205.53,187.26 205.84,189.48 206.14,191.67C206.44,193.83 206.74,195.99 207.04,198.12C207.34,200.21 207.64,202.29 207.95,204.32C208.25,206.29 208.54,208.24 208.85,210.14C209.14,211.95 209.44,213.75 209.75,215.46C210.04,217.07 210.35,218.64 210.66,220.14C210.95,221.54 211.25,222.89 211.56,224.19C211.85,225.4 212.16,226.57 212.47,227.68C212.76,228.71 213.06,229.71 213.37,230.65C213.66,231.51 213.92,232.41 214.27,233.09C214.54,233.63 214.82,234.29 215.18,234.45C215.45,234.57 215.8,234.45 216.08,234.31C216.41,234.14 216.71,233.79 216.99,233.42C217.33,232.98 217.61,232.39 217.89,231.78C218.22,231.07 218.5,230.26 218.79,229.42C219.11,228.48 219.41,227.45 219.7,226.4C220.01,225.26 220.31,224.05 220.6,222.81C220.91,221.5 221.21,220.12 221.51,218.73C221.82,217.27 222.11,215.75 222.41,214.23C222.72,212.66 223.02,211.05 223.32,209.43C223.63,207.78 223.92,206.09 224.22,204.41C224.52,202.7 224.82,200.98 225.12,199.26C225.42,197.53 225.73,195.78 226.03,194.05C226.33,192.32 226.63,190.6 226.93,188.88C227.23,187.18 227.54,185.48 227.84,183.8C228.14,182.14 228.44,180.49 228.74,178.86C229.04,177.26 229.34,175.67 229.64,174.1C229.94,172.56 230.24,171.04 230.55,169.54C230.85,168.08 231.14,166.63 231.45,165.21C231.75,163.83 232.05,162.46 232.36,161.13C232.66,159.84 232.95,158.57 233.26,157.33C233.55,156.13 233.87,155.05 234.16,153.81C234.48,152.44 234.77,150.92 235.07,149.48C235.37,148.06 235.66,146.62 235.97,145.24C236.26,143.93 236.57,142.65 236.88,141.41C237.17,140.24 237.47,139.11 237.78,138.02C238.07,137 238.37,136.02 238.68,135.08C238.97,134.21 239.27,133.37 239.59,132.59C239.88,131.87 240.17,131.17 240.49,130.54C240.78,129.97 241.08,129.42 241.4,128.96C241.68,128.56 241.97,128.16 242.3,127.9C242.58,127.68 242.9,127.47 243.21,127.43C243.5,127.39 243.83,127.46 244.11,127.61C244.44,127.78 244.73,128.12 245.01,128.48C245.35,128.91 245.64,129.47 245.92,130.06C246.25,130.75 246.53,131.54 246.82,132.37C247.14,133.31 247.44,134.33 247.73,135.4C248.05,136.58 248.34,137.85 248.63,139.17C248.94,140.6 249.24,142.11 249.53,143.67C249.84,145.34 250.15,147.07 250.44,148.86C250.75,150.76 251.05,152.73 251.34,154.74C251.65,156.85 251.95,159.03 252.25,161.25C252.56,163.56 252.85,165.93 253.15,168.33C253.46,170.81 253.75,173.34 254.05,175.89C254.35,178.49 254.66,181.13 254.96,183.76C255.26,186.4 255.56,189.06 255.86,191.7C256.16,194.33 256.47,196.95 256.77,199.58C257.07,202.2 257.37,204.83 257.67,207.44C257.97,210.04 258.27,212.7 258.58,215.23C258.87,217.64 259.16,220.06 259.48,222.3C259.77,224.34 260.07,226.27 260.38,228.15C260.67,229.9 260.97,231.65 261.29,233.23C261.58,234.64 261.85,236.04 262.19,237.19C262.46,238.11 262.74,238.97 263.1,239.61C263.37,240.1 263.67,240.5 264,240.8C264.28,241.05 264.59,241.21 264.9,241.36C265.2,241.51 265.51,241.59 265.81,241.7C266.11,241.81 266.41,241.91 266.71,242.04C267.02,242.17 267.32,242.31 267.62,242.48C267.93,242.65 268.23,242.83 268.52,243.05C268.83,243.28 269.13,243.53 269.42,243.82C269.73,244.13 270.04,244.48 270.33,244.87C270.65,245.3 270.94,245.78 271.23,246.29C271.55,246.85 271.85,247.46 272.14,248.09C272.45,248.76 272.74,249.48 273.04,250.21C273.35,250.97 273.65,251.76 273.95,252.54C274.25,253.32 274.54,254.13 274.85,254.87C275.14,255.56 275.42,256.25 275.75,256.83C276.03,257.34 276.33,257.83 276.66,258.2C276.94,258.51 277.25,258.93 277.56,258.96C277.85,258.99 278.18,258.65 278.47,258.43C278.79,258.19 279.09,257.88 279.37,257.53C279.69,257.13 279.99,256.67 280.27,256.15C280.6,255.55 280.9,254.88 281.18,254.1C281.52,253.13 281.8,251.99 282.08,250.76C282.42,249.28 282.7,247.52 282.99,245.8C283.3,243.95 283.59,241.98 283.89,240.03C284.19,238.03 284.49,235.98 284.79,233.93C285.09,231.86 285.4,229.76 285.7,227.67C286,225.57 286.3,223.45 286.6,221.34C286.9,219.24 287.21,217.14 287.51,215.05C287.81,212.98 288.11,210.91 288.41,208.87C288.71,206.86 289.01,204.87 289.32,202.91C289.62,201 289.91,199.1 290.22,197.25C290.51,195.46 290.81,193.7 291.12,191.99C291.41,190.36 291.72,188.76 292.03,187.23C292.32,185.79 292.62,184.37 292.93,183.04C293.22,181.81 293.52,180.61 293.84,179.5C294.13,178.5 294.42,177.54 294.74,176.69C295.02,175.95 295.3,175.23 295.64,174.65C295.92,174.17 296.21,173.69 296.55,173.42C296.82,173.21 297.15,173.03 297.45,173.05C297.76,173.07 298.09,173.29 298.36,173.54C298.7,173.85 298.98,174.37 299.26,174.89C299.59,175.52 299.88,176.29 300.16,177.09C300.49,178.01 300.78,179.03 301.07,180.1C301.39,181.29 301.68,182.57 301.97,183.9C302.29,185.34 302.59,186.87 302.88,188.44C303.19,190.12 303.49,191.87 303.78,193.66C304.09,195.55 304.38,197.5 304.68,199.48C304.99,201.53 305.29,203.65 305.59,205.75C305.89,207.88 306.19,210.05 306.49,212.19C306.79,214.31 307.1,216.42 307.4,218.51C307.7,220.57 307.99,222.64 308.3,224.66C308.6,226.63 308.9,228.62 309.21,230.5C309.5,232.27 309.79,234.05 310.11,235.65C310.39,237.06 310.66,238.47 311.01,239.59C311.28,240.45 311.5,241.52 311.92,241.82C312.18,242.01 312.56,242.04 312.82,241.88C313.25,241.6 313.46,240.42 313.73,239.49C314.09,238.24 314.35,236.62 314.63,235.02C314.95,233.19 315.24,231.15 315.53,229.1C315.84,226.9 316.14,224.59 316.44,222.26C316.75,219.83 317.04,217.33 317.34,214.82C317.65,212.25 317.95,209.62 318.25,207.01C318.55,204.38 318.85,201.76 319.15,199.09C319.45,196.36 319.75,193.62 320.05,190.79C320.36,187.84 320.65,184.7 320.96,181.73C321.26,178.87 321.55,176.04 321.86,173.3C322.15,170.69 322.46,168.12 322.77,165.65C323.06,163.33 323.36,161.06 323.67,158.91C323.96,156.92 324.26,154.99 324.58,153.19C324.87,151.57 325.16,149.99 325.48,148.57C325.76,147.33 326.04,146.14 326.38,145.12C326.66,144.29 326.93,143.46 327.29,142.89C327.56,142.46 327.86,141.99 328.19,141.9C328.47,141.82 328.83,141.96 329.1,142.17C329.47,142.45 329.73,143.09 330,143.68C330.35,144.43 330.61,145.43 330.9,146.38C331.22,147.41 331.51,148.56 331.81,149.65C332.11,150.75 332.42,151.8 332.71,152.96C333.03,154.24 333.33,155.6 333.62,157.03C333.94,158.6 334.23,160.25 334.52,161.98C334.83,163.86 335.13,165.85 335.42,167.9C335.73,170.1 336.04,172.4 336.33,174.76C336.64,177.26 336.93,179.85 337.23,182.48C337.54,185.23 337.84,188.06 338.14,190.91C338.45,193.84 338.74,196.84 339.04,199.83C339.34,202.84 339.64,205.91 339.95,208.9C340.25,211.82 340.54,214.79 340.85,217.56C341.14,220.13 341.42,222.71 341.75,224.99C342.03,226.95 342.32,228.85 342.66,230.45C342.93,231.74 343.2,232.94 343.56,233.89C343.83,234.61 344.1,235.31 344.47,235.73C344.74,236.03 345.07,236.33 345.37,236.33C345.67,236.33 346,236.06 346.27,235.76C346.64,235.35 346.91,234.63 347.18,233.91C347.53,232.98 347.81,231.89 348.08,230.58C348.45,228.76 348.7,226.25 348.99,223.97C349.3,221.52 349.59,218.92 349.89,216.36C350.19,213.76 350.49,211.1 350.79,208.49C351.09,205.89 351.4,203.28 351.7,200.72C352,198.21 352.29,195.72 352.6,193.28C352.9,190.92 353.21,188.67 353.51,186.3C353.82,183.85 354.11,181.28 354.41,178.81C354.71,176.39 355.01,173.93 355.32,171.61C355.61,169.43 355.91,167.29 356.22,165.26C356.51,163.38 356.8,161.55 357.12,159.83C357.41,158.27 357.71,156.77 358.03,155.39C358.32,154.17 358.6,152.99 358.93,151.95C359.21,151.06 359.5,150.21 359.84,149.51C360.12,148.95 360.39,148.39 360.74,148.05C361.01,147.79 361.33,147.56 361.64,147.54C361.94,147.52 362.27,147.7 362.55,147.92C362.89,148.19 363.17,148.67 363.45,149.14C363.79,149.71 364.08,150.43 364.36,151.16C364.68,152 364.97,152.94 365.26,153.91C365.58,154.99 365.87,156.15 366.16,157.35C366.47,158.64 366.78,160.02 367.07,161.41C367.38,162.88 367.67,164.42 367.97,165.97C368.28,167.57 368.58,169.21 368.88,170.84C369.18,172.47 369.47,174.14 369.78,175.74C370.08,177.29 370.36,178.86 370.68,180.32C370.97,181.66 371.26,182.99 371.59,184.16C371.87,185.16 372.14,186.15 372.49,186.91C372.76,187.49 373.03,188.14 373.4,188.37C373.67,188.54 374.03,188.58 374.3,188.47C374.65,188.32 374.94,187.78 375.21,187.31C375.56,186.71 375.83,185.89 376.11,185.09C376.43,184.17 376.72,183.13 377.01,182.09C377.32,180.96 377.63,179.8 377.92,178.55C378.24,177.15 378.54,175.69 378.82,174.09C379.15,172.24 379.43,170.08 379.73,168.08C380.03,166.09 380.33,164.09 380.63,162.14C380.93,160.23 381.22,158.33 381.53,156.49C381.83,154.72 382.13,152.98 382.44,151.3C382.73,149.72 383.03,148.17 383.34,146.71C383.63,145.36 383.93,144.04 384.25,142.82C384.54,141.72 384.83,140.66 385.15,139.71C385.43,138.88 385.71,138.08 386.05,137.41C386.33,136.86 386.62,136.32 386.96,135.96C387.23,135.67 387.54,135.41 387.86,135.34C388.15,135.28 388.49,135.37 388.77,135.52C389.1,135.7 389.39,136.07 389.67,136.44C390,136.88 390.3,137.46 390.58,138.05C390.9,138.72 391.19,139.49 391.48,140.28C391.8,141.17 392.09,142.13 392.38,143.13C392.7,144.23 393,145.39 393.29,146.6C393.6,147.9 393.9,149.28 394.19,150.69C394.5,152.2 394.81,153.77 395.1,155.37C395.41,157.06 395.71,158.82 396,160.6C396.31,162.47 396.6,164.39 396.9,166.34C397.21,168.36 397.51,170.43 397.81,172.52C398.12,174.67 398.41,176.87 398.71,179.08C399.02,181.34 399.32,183.64 399.62,185.94C399.92,188.28 400.22,190.64 400.52,193.01C400.82,195.4 401.12,197.8 401.42,200.2C401.72,202.59 402.03,205 402.33,207.38C402.63,209.75 402.93,212.11 403.23,214.45C403.53,216.75 403.83,219.05 404.14,221.3C404.44,223.5 404.73,225.68 405.04,227.81C405.34,229.88 405.64,231.92 405.95,233.91C406.25,235.83 406.54,237.72 406.85,239.55C407.14,241.3 407.44,243.01 407.75,244.68C408.04,246.27 408.35,247.82 408.66,249.33C408.95,250.77 409.25,252.17 409.56,253.55C409.86,254.87 410.16,256.19 410.47,257.43C410.76,258.58 411.02,259.81 411.37,260.74C411.64,261.46 411.93,262.09 412.27,262.6C412.55,263.01 412.87,263.31 413.18,263.62C413.47,263.92 413.77,264.18 414.08,264.44C414.38,264.69 414.68,264.92 414.99,265.13C415.29,265.33 415.59,265.52 415.89,265.69C416.19,265.85 416.49,265.99 416.79,266.12C417.09,266.25 417.4,266.34 417.7,266.46C418,266.58 418.3,266.69 418.6,266.83C418.91,266.97 419.21,267.14 419.51,267.31C419.81,267.49 420.11,267.68 420.41,267.88C420.71,268.08 421.02,268.3 421.32,268.5C421.62,268.7 421.92,268.91 422.22,269.1C422.52,269.29 422.81,269.48 423.12,269.64C423.42,269.8 423.72,269.95 424.03,270.06C424.33,270.16 424.63,270.25 424.93,270.28C425.23,270.31 425.54,270.29 425.84,270.23C426.15,270.16 426.45,270.04 426.74,269.88C427.05,269.71 427.35,269.48 427.64,269.24C427.95,268.98 428.25,268.68 428.55,268.37C428.86,268.05 429.15,267.7 429.45,267.35C429.75,267 430.06,266.63 430.36,266.27C430.66,265.91 430.96,265.54 431.26,265.18C431.56,264.82 431.86,264.47 432.16,264.12C432.46,263.78 432.77,263.45 433.07,263.11C433.37,262.77 433.67,262.44 433.97,262.1C434.27,261.76 434.58,261.43 434.88,261.09C435.18,260.76 435.48,260.41 435.78,260.09C436.08,259.78 436.37,259.46 436.68,259.19C436.97,258.93 437.28,258.69 437.59,258.49C437.88,258.31 438.18,258.14 438.49,258.04C438.79,257.94 439.1,257.88 439.4,257.88C439.7,257.88 440.01,257.95 440.3,258.06C440.61,258.18 440.92,258.36 441.21,258.58C441.53,258.82 441.82,259.12 442.11,259.44C442.42,259.79 442.72,260.2 443.01,260.63C443.33,261.1 443.63,261.61 443.92,262.14C444.23,262.7 444.52,263.29 444.82,263.89C445.13,264.52 445.43,265.17 445.73,265.83C446.04,266.5 446.33,267.2 446.63,267.89C446.93,268.59 447.23,269.3 447.53,270.02C447.83,270.75 448.14,271.49 448.44,272.22C448.74,272.95 449,273.79 449.34,274.41C449.62,274.91 449.89,275.49 450.25,275.7C450.52,275.86 450.85,275.83 451.15,275.8C451.45,275.76 451.75,275.6 452.05,275.48C452.35,275.36 452.66,275.21 452.96,275.1C453.26,274.99 453.56,274.88 453.86,274.81C454.16,274.74 454.47,274.69 454.77,274.68C455.07,274.67 455.37,274.7 455.67,274.76C455.98,274.82 456.28,274.91 456.58,275.03C456.89,275.15 457.18,275.32 457.48,275.49C457.79,275.67 458.08,275.88 458.38,276.09C458.69,276.31 458.99,276.55 459.29,276.78C459.59,277.01 459.89,277.26 460.19,277.48C460.49,277.7 460.79,277.92 461.1,278.11Q461.4,278.29 462,278.58" style="vector-effect: non-scaling-stroke; fill: none; stroke: rgb(0, 176, 246); stroke-opacity: 1; stroke-width: 2px; opacity: 1;"/></g><g class="points"/><g class="text"/></g><g class="trace scatter trace909df5" style="stroke-miterlimit: 2; opacity: 1;"><g class="fills"/><g class="errorbars"/><g class="lines"><path class="js-line" d="M0,211.86Q0.64,211.28 0.9,210.8C1.29,210.1 1.53,208.95 1.81,207.88C2.14,206.61 2.42,205.15 2.71,203.68C3.03,202.08 3.33,200.36 3.62,198.64C3.93,196.83 4.22,194.95 4.52,193.06C4.82,191.12 5.12,189.14 5.42,187.16C5.72,185.14 6.03,183.09 6.33,181.04C6.63,178.96 6.93,176.88 7.23,174.77C7.53,172.63 7.84,170.48 8.14,168.3C8.45,166.06 8.74,163.82 9.04,161.51C9.35,159.1 9.66,156.66 9.95,154.12C10.26,151.42 10.56,148.64 10.85,145.76C11.16,142.68 11.46,139.47 11.75,136.18C12.06,132.7 12.36,129.08 12.66,125.43C12.97,121.65 13.26,117.77 13.56,113.9C13.86,109.97 14.17,105.98 14.47,102.03C14.77,98.09 15.07,94.13 15.37,90.23C15.67,86.38 15.96,82.55 16.27,78.78C16.57,75.11 16.87,71.47 17.18,67.91C17.48,64.47 17.77,61.08 18.08,57.78C18.38,54.63 18.68,51.54 18.99,48.55C19.28,45.72 19.58,42.96 19.89,40.31C20.18,37.84 20.47,35.43 20.79,33.16C21.08,31.08 21.38,29.06 21.7,27.18C21.99,25.5 22.27,23.88 22.6,22.43C22.88,21.18 23.17,19.97 23.51,18.96C23.79,18.15 24.04,17.33 24.41,16.81C24.68,16.44 25.01,16.03 25.32,16C25.61,15.97 25.96,16.25 26.22,16.54C26.59,16.95 26.85,17.71 27.12,18.44C27.47,19.36 27.75,20.5 28.03,21.67C28.36,23.05 28.64,24.61 28.93,26.22C29.25,28.04 29.55,30.01 29.84,32.04C30.16,34.27 30.45,36.64 30.74,39.08C31.05,41.71 31.35,44.47 31.64,47.29C31.95,50.29 32.26,53.41 32.55,56.59C32.86,59.94 33.15,63.39 33.45,66.9C33.76,70.56 34.06,74.32 34.36,78.13C34.67,82.08 34.96,86.11 35.26,90.18C35.56,94.37 35.86,98.63 36.16,102.93C36.47,107.33 36.77,111.8 37.07,116.29C37.37,120.85 37.67,125.47 37.97,130.1C38.27,134.79 38.58,139.52 38.88,144.25C39.18,149 39.48,153.78 39.78,158.54C40.08,163.28 40.37,168.07 40.68,172.75C40.98,177.33 41.27,182.02 41.59,186.32C41.88,190.21 42.11,194.4 42.49,197.43C42.75,199.54 42.95,201.59 43.4,202.77C43.65,203.43 43.94,203.96 44.3,204.19C44.57,204.36 44.92,204.36 45.21,204.3C45.52,204.23 45.83,204 46.11,203.75C46.44,203.45 46.73,203.03 47.01,202.57C47.35,202 47.64,201.32 47.92,200.56C48.26,199.64 48.54,198.54 48.82,197.41C49.15,196.11 49.44,194.65 49.73,193.2C50.04,191.65 50.33,189.99 50.63,188.38C50.93,186.76 51.22,185.09 51.53,183.49C51.83,181.94 52.13,180.39 52.44,178.91C52.73,177.52 53.02,176.16 53.34,174.89C53.63,173.73 53.93,172.59 54.25,171.57C54.53,170.67 54.82,169.81 55.15,169.08C55.43,168.48 55.7,167.87 56.05,167.49C56.32,167.2 56.65,166.91 56.96,166.88C57.25,166.85 57.59,167.05 57.86,167.28C58.21,167.58 58.49,168.14 58.77,168.7C59.11,169.39 59.39,170.27 59.67,171.17C60,172.23 60.29,173.43 60.58,174.68C60.9,176.08 61.19,177.61 61.48,179.19C61.8,180.93 62.09,182.78 62.38,184.69C62.69,186.75 63,188.91 63.29,191.12C63.6,193.48 63.9,195.93 64.19,198.43C64.5,201.06 64.8,203.79 65.1,206.55C65.41,209.43 65.71,212.38 66,215.38C66.31,218.48 66.6,221.65 66.9,224.85C67.21,228.13 67.51,231.47 67.81,234.83C68.11,238.25 68.41,241.72 68.71,245.19C69.01,248.7 69.32,252.24 69.62,255.76C69.92,259.27 70.22,262.81 70.52,266.28C70.82,269.67 71.11,273.1 71.42,276.34C71.71,279.38 71.98,282.58 72.33,285.16C72.6,287.18 72.79,290.47 73.23,290.55C73.49,290.59 73.88,289.6 74.14,288.92C74.52,287.92 74.75,286.4 75.04,285.04C75.36,283.54 75.65,281.89 75.95,280.3C76.25,278.69 76.55,277.04 76.85,275.44C77.15,273.88 77.44,272.31 77.75,270.81C78.04,269.38 78.35,267.97 78.66,266.64C78.95,265.4 79.24,264.19 79.56,263.07C79.85,262.05 80.15,261.07 80.47,260.19C80.75,259.42 81.04,258.68 81.37,258.07C81.65,257.57 81.93,257.07 82.27,256.77C82.55,256.53 82.87,256.31 83.18,256.3C83.48,256.29 83.8,256.46 84.08,256.67C84.42,256.92 84.71,257.36 84.99,257.8C85.32,258.31 85.6,258.95 85.89,259.58C86.21,260.27 86.5,261.03 86.79,261.8C87.1,262.61 87.4,263.45 87.7,264.31C88.01,265.21 88.3,266.14 88.6,267.08C88.91,268.05 89.21,269.05 89.51,270.03C89.81,271.01 90.1,272.03 90.41,272.98C90.7,273.89 91,274.79 91.32,275.62C91.61,276.37 91.9,277.1 92.22,277.74C92.5,278.29 92.79,278.82 93.12,279.24C93.4,279.6 93.7,279.95 94.03,280.16C94.31,280.34 94.63,280.5 94.93,280.48C95.24,280.46 95.57,280.28 95.84,280.03C96.19,279.71 96.47,279.14 96.74,278.57C97.08,277.85 97.36,276.93 97.64,276C97.97,274.91 98.26,273.67 98.55,272.41C98.87,271.02 99.16,269.52 99.45,267.99C99.76,266.35 100.07,264.64 100.36,262.9C100.67,261.07 100.97,259.17 101.26,257.25C101.57,255.25 101.86,253.19 102.16,251.12C102.47,248.99 102.77,246.81 103.07,244.62C103.37,242.39 103.67,240.14 103.97,237.88C104.27,235.6 104.58,233.31 104.88,231.02C105.18,228.74 105.48,226.44 105.78,224.17C106.08,221.92 106.38,219.68 106.68,217.47C106.98,215.3 107.28,213.15 107.59,211.04C107.89,208.99 108.18,206.96 108.49,204.98C108.79,203.08 109.09,201.2 109.4,199.38C109.69,197.64 109.99,195.94 110.3,194.3C110.59,192.75 110.9,191.24 111.21,189.79C111.5,188.44 111.8,187.13 112.11,185.89C112.4,184.75 112.69,183.64 113.01,182.61C113.3,181.67 113.6,180.78 113.92,179.95C114.21,179.21 114.5,178.51 114.82,177.88C115.11,177.32 115.41,176.8 115.73,176.34C116.02,175.93 116.32,175.57 116.63,175.24C116.92,174.93 117.23,174.68 117.53,174.42C117.83,174.16 118.15,173.95 118.44,173.68C118.75,173.39 119.06,173.09 119.34,172.72C119.67,172.29 119.97,171.79 120.25,171.22C120.58,170.54 120.87,169.73 121.15,168.87C121.48,167.85 121.77,166.68 122.05,165.47C122.37,164.09 122.67,162.58 122.96,161.03C123.28,159.33 123.57,157.53 123.86,155.69C124.17,153.74 124.47,151.7 124.77,149.65C125.08,147.52 125.37,145.34 125.67,143.15C125.97,140.91 126.28,138.63 126.58,136.36C126.88,134.06 127.18,131.75 127.48,129.44C127.78,127.14 128.08,124.82 128.38,122.53C128.68,120.26 128.99,117.99 129.29,115.74C129.59,113.53 129.88,111.33 130.19,109.16C130.49,107.04 130.79,104.95 131.1,102.89C131.4,100.9 131.69,98.93 132,97.01C132.29,95.16 132.59,93.34 132.9,91.58C133.19,89.9 133.5,88.25 133.81,86.67C134.1,85.18 134.4,83.72 134.71,82.34C135,81.05 135.3,79.8 135.62,78.63C135.91,77.56 136.2,76.53 136.52,75.59C136.8,74.76 137.09,73.95 137.42,73.26C137.7,72.66 137.99,72.09 138.33,71.65C138.61,71.29 138.9,70.93 139.23,70.78C139.51,70.65 139.85,70.6 140.14,70.68C140.46,70.76 140.76,71.04 141.04,71.33C141.38,71.69 141.67,72.22 141.95,72.76C142.28,73.4 142.57,74.16 142.85,74.95C143.17,75.85 143.46,76.85 143.75,77.89C144.07,79.05 144.37,80.3 144.66,81.6C144.98,83.01 145.27,84.51 145.56,86.05C145.87,87.71 146.18,89.45 146.47,91.24C146.78,93.14 147.08,95.12 147.37,97.15C147.68,99.29 147.98,101.5 148.27,103.76C148.58,106.13 148.88,108.57 149.18,111.05C149.49,113.64 149.78,116.29 150.08,118.98C150.39,121.77 150.69,124.62 150.99,127.5C151.3,130.47 151.59,133.5 151.89,136.56C152.19,139.69 152.49,142.88 152.79,146.08C153.09,149.35 153.4,152.65 153.7,155.97C154,159.33 154.3,162.73 154.6,166.12C154.9,169.54 155.21,172.98 155.51,176.4C155.81,179.81 156.11,183.24 156.41,186.63C156.71,189.97 157.01,193.32 157.32,196.6C157.62,199.8 157.91,202.98 158.22,206.07C158.51,209.02 158.81,211.95 159.12,214.74C159.41,217.35 159.71,219.92 160.03,222.32C160.32,224.5 160.61,226.62 160.93,228.56C161.21,230.26 161.51,231.89 161.84,233.32C162.12,234.51 162.39,235.65 162.74,236.56C163.01,237.26 163.27,237.98 163.64,238.36C163.91,238.63 164.26,238.85 164.55,238.82C164.86,238.79 165.18,238.44 165.45,238.11C165.8,237.68 166.08,237.01 166.36,236.36C166.69,235.58 166.98,234.66 167.26,233.72C167.58,232.66 167.87,231.5 168.16,230.31C168.47,229.02 168.78,227.65 169.07,226.26C169.38,224.78 169.67,223.24 169.97,221.69C170.28,220.08 170.58,218.41 170.88,216.75C171.18,215.05 171.48,213.33 171.78,211.61C172.08,209.88 172.38,208.14 172.68,206.42C172.98,204.71 173.28,203.01 173.59,201.33C173.89,199.69 174.18,198.07 174.49,196.48C174.79,194.95 175.09,193.43 175.4,191.97C175.69,190.58 175.99,189.22 176.3,187.91C176.59,186.68 176.9,185.48 177.21,184.34C177.5,183.29 177.79,182.28 178.11,181.33C178.4,180.47 178.69,179.63 179.01,178.88C179.3,178.21 179.59,177.58 179.92,177.03C180.2,176.55 180.49,176.1 180.82,175.75C181.1,175.45 181.41,175.19 181.73,175.04C182.02,174.9 182.33,174.83 182.63,174.84C182.93,174.85 183.24,174.97 183.53,175.12C183.85,175.28 184.15,175.53 184.44,175.79C184.76,176.07 185.05,176.42 185.34,176.77C185.65,177.14 185.95,177.54 186.25,177.94C186.55,178.35 186.85,178.78 187.15,179.19C187.45,179.59 187.74,180.01 188.05,180.38C188.34,180.73 188.64,181.08 188.96,181.35C189.25,181.6 189.54,181.85 189.86,181.98C190.15,182.1 190.47,182.17 190.77,182.15C191.07,182.13 191.38,182 191.67,181.83C191.99,181.64 192.29,181.35 192.58,181.04C192.9,180.7 193.19,180.28 193.48,179.86C193.79,179.41 194.08,178.91 194.38,178.42C194.69,177.91 194.99,177.37 195.29,176.84C195.59,176.31 195.88,175.77 196.19,175.25C196.49,174.75 196.79,174.24 197.1,173.77C197.39,173.33 197.69,172.89 198,172.5C198.29,172.14 198.58,171.79 198.9,171.5C199.19,171.24 199.49,170.99 199.81,170.83C200.1,170.69 200.41,170.58 200.71,170.56C201.01,170.54 201.33,170.59 201.62,170.7C201.93,170.82 202.24,171.04 202.52,171.29C202.84,171.57 203.13,171.95 203.42,172.34C203.74,172.79 204.04,173.31 204.33,173.85C204.65,174.45 204.94,175.12 205.23,175.81C205.55,176.57 205.85,177.38 206.14,178.22C206.45,179.12 206.75,180.07 207.04,181.05C207.35,182.09 207.66,183.18 207.95,184.3C208.26,185.48 208.56,186.7 208.85,187.94C209.16,189.24 209.45,190.59 209.75,191.95C210.06,193.37 210.36,194.82 210.66,196.3C210.97,197.83 211.26,199.39 211.56,200.97C211.87,202.6 212.17,204.27 212.47,205.95C212.78,207.68 213.07,209.43 213.37,211.2C213.67,213 213.95,214.92 214.27,216.66C214.56,218.26 214.79,220.09 215.18,221.27C215.44,222.05 215.77,222.54 216.08,223.14C216.37,223.71 216.69,224.24 216.99,224.79C217.29,225.34 217.59,225.88 217.89,226.42C218.19,226.95 218.48,227.49 218.79,228.01C219.09,228.51 219.39,229.01 219.7,229.47C219.99,229.9 220.28,230.35 220.6,230.7C220.89,231.02 221.18,231.35 221.51,231.52C221.79,231.66 222.13,231.78 222.41,231.71C222.73,231.63 223.05,231.31 223.32,230.96C223.69,230.47 223.95,229.68 224.22,228.88C224.57,227.84 224.84,226.55 225.12,225.22C225.45,223.64 225.74,221.83 226.03,219.99C226.35,217.95 226.64,215.75 226.93,213.52C227.24,211.15 227.54,208.68 227.84,206.19C228.15,203.62 228.44,200.97 228.74,198.33C229.04,195.65 229.34,192.93 229.64,190.22C229.94,187.5 230.25,184.76 230.55,182.05C230.85,179.35 231.15,176.66 231.45,173.99C231.75,171.37 232.05,168.75 232.36,166.18C232.66,163.67 232.95,161.19 233.26,158.76C233.56,156.41 233.85,154.09 234.16,151.83C234.46,149.67 234.76,147.54 235.07,145.49C235.36,143.55 235.66,141.65 235.97,139.84C236.26,138.15 236.56,136.5 236.88,134.95C237.17,133.53 237.46,132.15 237.78,130.88C238.06,129.75 238.35,128.66 238.68,127.7C238.96,126.88 239.25,126.08 239.59,125.45C239.87,124.94 240.14,124.42 240.49,124.16C240.76,123.96 241.11,123.81 241.4,123.86C241.72,123.91 242.03,124.24 242.3,124.56C242.65,124.98 242.93,125.62 243.21,126.26C243.55,127.04 243.83,127.98 244.11,128.95C244.43,130.07 244.72,131.31 245.01,132.6C245.33,134.04 245.63,135.58 245.92,137.18C246.24,138.92 246.53,140.76 246.82,142.65C247.13,144.67 247.44,146.78 247.73,148.94C248.04,151.22 248.34,153.58 248.63,155.98C248.94,158.49 249.23,161.07 249.53,163.68C249.84,166.39 250.14,169.16 250.44,171.95C250.75,174.82 251.04,177.74 251.34,180.67C251.64,183.66 251.95,186.69 252.25,189.72C252.55,192.78 252.85,195.87 253.15,198.95C253.45,202.03 253.75,205.13 254.05,208.2C254.35,211.25 254.66,214.31 254.96,217.32C255.26,220.28 255.55,223.23 255.86,226.13C256.16,228.95 256.46,231.75 256.77,234.49C257.07,237.13 257.36,239.74 257.67,242.27C257.97,244.69 258.27,247.07 258.58,249.36C258.87,251.51 259.16,253.64 259.48,255.61C259.77,257.39 260.03,259.21 260.38,260.67C260.65,261.81 260.87,263.04 261.29,263.67C261.55,264.05 261.88,264.37 262.19,264.41C262.48,264.45 262.81,264.19 263.1,264C263.42,263.79 263.71,263.48 264,263.19C264.31,262.89 264.6,262.56 264.9,262.25C265.2,261.94 265.5,261.63 265.81,261.35C266.11,261.08 266.4,260.8 266.71,260.57C267,260.35 267.31,260.15 267.62,260.01C267.91,259.88 268.22,259.76 268.52,259.72C268.82,259.68 269.13,259.69 269.42,259.76C269.73,259.83 270.04,259.98 270.33,260.17C270.65,260.38 270.94,260.67 271.23,260.98C271.55,261.33 271.85,261.75 272.14,262.2C272.46,262.7 272.75,263.26 273.04,263.84C273.36,264.47 273.66,265.16 273.95,265.87C274.26,266.64 274.56,267.45 274.85,268.29C275.16,269.18 275.45,270.11 275.75,271.05C276.06,272.03 276.36,273.05 276.66,274.08C276.97,275.14 277.26,276.24 277.56,277.33C277.86,278.44 278.17,279.57 278.47,280.69C278.77,281.81 279.06,282.95 279.37,284.04C279.67,285.1 279.93,286.25 280.27,287.15C280.55,287.88 280.9,289.08 281.18,289.06C281.51,289.04 281.81,287.38 282.08,286.31C282.44,284.85 282.7,282.87 282.99,281.06C283.3,279.13 283.6,277.11 283.89,275.07C284.2,272.96 284.49,270.79 284.79,268.61C285.1,266.37 285.4,264.09 285.7,261.81C286,259.5 286.3,257.15 286.6,254.82C286.9,252.47 287.21,250.12 287.51,247.77C287.81,245.44 288.11,243.09 288.41,240.78C288.71,238.5 289.01,236.23 289.32,233.99C289.62,231.8 289.92,229.63 290.22,227.51C290.52,225.45 290.81,223.42 291.12,221.44C291.42,219.55 291.72,217.69 292.03,215.89C292.32,214.19 292.62,212.52 292.93,210.92C293.22,209.43 293.52,207.98 293.84,206.61C294.13,205.35 294.42,204.14 294.74,203.01C295.03,202 295.31,201.02 295.64,200.15C295.92,199.39 296.22,198.66 296.55,198.06C296.83,197.56 297.11,197.07 297.45,196.75C297.73,196.49 298.05,196.25 298.36,196.2C298.65,196.15 298.98,196.24 299.26,196.39C299.59,196.57 299.88,196.92 300.16,197.28C300.49,197.7 300.78,198.24 301.07,198.8C301.39,199.43 301.68,200.14 301.97,200.87C302.29,201.67 302.59,202.53 302.88,203.4C303.19,204.32 303.48,205.28 303.78,206.24C304.08,207.23 304.38,208.25 304.68,209.26C304.98,210.26 305.28,211.29 305.59,212.27C305.89,213.22 306.18,214.18 306.49,215.07C306.78,215.9 307.07,216.72 307.4,217.44C307.68,218.06 307.95,218.7 308.3,219.14C308.57,219.49 308.89,219.88 309.21,219.95C309.49,220.01 309.84,219.87 310.11,219.65C310.47,219.35 310.74,218.72 311.01,218.11C311.36,217.33 311.64,216.34 311.92,215.33C312.25,214.14 312.53,212.78 312.82,211.39C313.14,209.85 313.44,208.19 313.73,206.5C314.04,204.7 314.34,202.81 314.63,200.9C314.94,198.92 315.23,196.87 315.53,194.83C315.83,192.75 316.14,190.63 316.44,188.52C316.74,186.4 317.04,184.27 317.34,182.16C317.64,180.07 317.94,177.99 318.25,175.94C318.55,173.94 318.84,171.95 319.15,170.01C319.44,168.14 319.74,166.29 320.05,164.5C320.34,162.8 320.65,161.13 320.96,159.53C321.25,158.04 321.54,156.58 321.86,155.2C322.15,153.94 322.45,152.71 322.77,151.58C323.06,150.58 323.34,149.61 323.67,148.76C323.95,148.03 324.24,147.32 324.58,146.78C324.85,146.34 325.14,145.9 325.48,145.7C325.75,145.54 326.1,145.46 326.38,145.53C326.7,145.62 327.02,145.96 327.29,146.3C327.64,146.73 327.91,147.37 328.19,148.01C328.52,148.78 328.82,149.7 329.1,150.65C329.43,151.74 329.71,152.95 330,154.2C330.32,155.59 330.61,157.09 330.9,158.63C331.22,160.31 331.52,162.08 331.81,163.89C332.12,165.83 332.42,167.85 332.71,169.91C333.02,172.09 333.32,174.35 333.62,176.64C333.93,179.03 334.22,181.5 334.52,183.98C334.82,186.54 335.12,189.17 335.42,191.77C335.72,194.37 336.01,197.15 336.33,199.59C336.61,201.73 336.88,203.89 337.23,205.62C337.5,206.96 337.83,208 338.14,209.14C338.43,210.23 338.74,211.25 339.04,212.33C339.35,213.44 339.65,214.57 339.95,215.73C340.26,216.94 340.55,218.18 340.85,219.43C341.15,220.72 341.45,222.05 341.75,223.38C342.05,224.74 342.36,226.12 342.66,227.5C342.96,228.89 343.26,230.29 343.56,231.67C343.86,233.03 344.16,234.41 344.47,235.73C344.77,237 345.06,238.27 345.37,239.45C345.66,240.54 345.94,241.63 346.27,242.58C346.55,243.4 346.83,244.23 347.18,244.83C347.45,245.29 347.74,245.81 348.08,245.95C348.36,246.06 348.72,245.99 348.99,245.82C349.35,245.6 349.62,245.01 349.89,244.48C350.23,243.81 350.51,242.95 350.79,242.09C351.11,241.1 351.41,240 351.7,238.87C352.02,237.65 352.31,236.33 352.6,235.01C352.91,233.61 353.21,232.16 353.51,230.69C353.82,229.17 354.11,227.62 354.41,226.06C354.71,224.47 355.02,222.85 355.32,221.22C355.62,219.57 355.92,217.91 356.22,216.24C356.52,214.55 356.82,212.86 357.12,211.15C357.42,209.43 357.73,207.69 358.03,205.95C358.33,204.19 358.63,202.41 358.93,200.63C359.23,198.83 359.54,197.01 359.84,195.19C360.14,193.35 360.44,191.5 360.74,189.65C361.04,187.79 361.34,185.93 361.64,184.07C361.94,182.22 362.25,180.36 362.55,178.53C362.85,176.72 363.14,174.92 363.45,173.15C363.75,171.43 364.05,169.72 364.36,168.05C364.66,166.44 364.95,164.85 365.26,163.32C365.55,161.86 365.85,160.43 366.16,159.06C366.45,157.77 366.75,156.51 367.07,155.33C367.36,154.24 367.65,153.19 367.97,152.21C368.26,151.33 368.56,150.48 368.88,149.72C369.16,149.06 369.45,148.43 369.78,147.91C370.06,147.47 370.34,147.05 370.68,146.79C370.96,146.58 371.29,146.4 371.59,146.39C371.89,146.38 372.21,146.52 372.49,146.71C372.82,146.94 373.12,147.34 373.4,147.75C373.73,148.24 374.02,148.86 374.3,149.51C374.63,150.26 374.92,151.11 375.21,151.99C375.53,152.98 375.82,154.05 376.11,155.17C376.43,156.4 376.72,157.7 377.01,159.05C377.32,160.51 377.63,162.04 377.92,163.61C378.23,165.29 378.53,167.03 378.82,168.82C379.13,170.71 379.44,172.66 379.73,174.65C380.04,176.74 380.34,178.9 380.63,181.08C380.94,183.35 381.23,185.68 381.53,188.02C381.84,190.42 382.14,192.9 382.44,195.3C382.74,197.66 382.99,200.27 383.34,202.31C383.61,203.9 383.71,206.15 384.25,206.53C384.5,206.7 384.89,206.58 385.15,206.4C385.53,206.14 385.76,205.34 386.05,204.76C386.36,204.14 386.66,203.44 386.96,202.78C387.26,202.11 387.56,201.43 387.86,200.76C388.16,200.11 388.46,199.45 388.77,198.82C389.07,198.21 389.36,197.61 389.67,197.04C389.97,196.49 390.27,195.96 390.58,195.46C390.87,194.99 391.17,194.54 391.48,194.13C391.77,193.75 392.06,193.38 392.38,193.08C392.67,192.8 392.97,192.55 393.29,192.36C393.58,192.19 393.88,192.05 394.19,191.99C394.49,191.94 394.81,191.94 395.1,192.02C395.41,192.1 395.72,192.27 396,192.49C396.32,192.74 396.62,193.08 396.9,193.46C397.23,193.89 397.53,194.41 397.81,194.97C398.13,195.6 398.42,196.32 398.71,197.07C399.03,197.91 399.33,198.82 399.62,199.78C399.94,200.84 400.23,201.97 400.52,203.14C400.83,204.41 401.13,205.75 401.42,207.14C401.73,208.63 402.04,210.2 402.33,211.8C402.64,213.51 402.94,215.28 403.23,217.09C403.54,218.99 403.84,220.96 404.14,222.96C404.45,225.04 404.74,227.19 405.04,229.35C405.35,231.57 405.65,233.84 405.95,236.11C406.25,238.4 406.55,240.74 406.85,243.03C407.15,245.29 407.44,247.56 407.75,249.76C408.05,251.87 408.34,254.01 408.66,255.95C408.95,257.69 409.04,259.98 409.56,260.87C409.81,261.31 410.18,261.35 410.47,261.64C410.78,261.95 411.09,262.28 411.37,262.67C411.69,263.12 411.99,263.66 412.27,264.23C412.6,264.89 412.89,265.63 413.18,266.42C413.5,267.31 413.79,268.28 414.08,269.29C414.4,270.4 414.7,271.59 414.99,272.82C415.3,274.14 415.6,275.53 415.89,276.95C416.2,278.45 416.49,280.03 416.79,281.6C417.1,283.2 417.38,284.94 417.7,286.47C417.99,287.83 418.26,290.31 418.6,290.33C418.88,290.35 419.25,288.95 419.51,287.89C419.95,286.04 420.11,282.72 420.41,280.07C420.72,277.32 421.01,274.44 421.32,271.67C421.62,268.97 421.91,266.27 422.22,263.65C422.51,261.13 422.81,258.64 423.12,256.23C423.41,253.94 423.72,251.7 424.03,249.54C424.32,247.51 424.62,245.52 424.93,243.63C425.22,241.87 425.52,240.17 425.84,238.56C426.13,237.09 426.42,235.67 426.74,234.35C427.03,233.17 427.31,232.04 427.64,231.02C427.92,230.14 428.21,229.29 428.55,228.59C428.83,228.01 429.1,227.44 429.45,227.06C429.72,226.76 430.04,226.47 430.36,226.41C430.65,226.35 430.98,226.46 431.26,226.63C431.6,226.84 431.88,227.25 432.16,227.67C432.5,228.18 432.79,228.84 433.07,229.51C433.4,230.29 433.68,231.17 433.97,232.08C434.29,233.09 434.59,234.19 434.88,235.32C435.19,236.54 435.49,237.84 435.78,239.16C436.09,240.57 436.39,242.03 436.68,243.52C436.99,245.08 437.29,246.69 437.59,248.32C437.9,250.01 438.19,251.75 438.49,253.5C438.8,255.3 439.1,257.12 439.4,258.96C439.7,260.84 440,262.75 440.3,264.66C440.6,266.6 440.91,268.55 441.21,270.51C441.51,272.48 441.81,274.47 442.11,276.45C442.41,278.43 442.71,280.41 443.01,282.37C443.31,284.3 443.61,286.24 443.92,288.13C444.22,289.96 444.51,291.8 444.82,293.54C445.11,295.18 445.41,296.82 445.73,298.3C446.02,299.61 446.28,300.95 446.63,301.98C446.9,302.77 447.13,303.81 447.53,304C447.79,304.13 448.18,304.01 448.44,303.77C448.88,303.37 449.07,302.15 449.34,301.15C449.69,299.86 449.96,298.23 450.25,296.64C450.57,294.86 450.86,292.91 451.15,290.98C451.46,288.97 451.75,286.87 452.05,284.81C452.35,282.73 452.66,280.62 452.96,278.55C453.26,276.51 453.55,274.46 453.86,272.47C454.16,270.54 454.46,268.62 454.77,266.76C455.07,264.98 455.36,263.23 455.67,261.54C455.96,259.94 456.27,258.38 456.58,256.88C456.87,255.48 457.17,254.12 457.48,252.84C457.77,251.66 458.06,250.52 458.38,249.46C458.67,248.5 458.97,247.58 459.29,246.74C459.58,245.99 459.86,245.28 460.19,244.66C460.47,244.12 460.77,243.61 461.1,243.21Q461.38,242.87 462,242.36" style="vector-effect: non-scaling-stroke; fill: none; stroke: rgb(231, 107, 243); stroke-opacity: 1; stroke-width: 2px; opacity: 1;"/></g><g class="points"/><g class="text"/></g></g></g><g class="overplot"/><path class="xlines-above crisp" d="M0,0" style="fill: none;"/><path class="ylines-above crisp" d="M0,0" style="fill: none;"/><g class="overlines-above"/><g class="xaxislayer-above"><g class="xtick"><text text-anchor="middle" x="0" y="433" transform="translate(80,0)" style="font-family: 'Open Sans', verdana, arial, sans-serif; font-size: 12px; fill: rgb(42, 63, 95); fill-opacity: 1; white-space: pre;">0</text></g><g class="xtick"><text text-anchor="middle" x="0" y="433" transform="translate(170.23000000000002,0)" style="font-family: 'Open Sans', verdana, arial, sans-serif; font-size: 12px; fill: rgb(42, 63, 95); fill-opacity: 1; white-space: pre;">100</text></g><g class="xtick"><text text-anchor="middle" x="0" y="433" transform="translate(260.47,0)" style="font-family: 'Open Sans', verdana, arial, sans-serif; font-size: 12px; fill: rgb(42, 63, 95); fill-opacity: 1; white-space: pre;">200</text></g><g class="xtick"><text text-anchor="middle" x="0" y="433" transform="translate(350.7,0)" style="font-family: 'Open Sans', verdana, arial, sans-serif; font-size: 12px; fill: rgb(42, 63, 95); fill-opacity: 1; white-space: pre;">300</text></g><g class="xtick"><text text-anchor="middle" x="0" y="433" transform="translate(440.94,0)" style="font-family: 'Open Sans', verdana, arial, sans-serif; font-size: 12px; fill: rgb(42, 63, 95); fill-opacity: 1; white-space: pre;">400</text></g><g class="xtick"><text text-anchor="middle" x="0" y="433" transform="translate(531.1700000000001,0)" style="font-family: 'Open Sans', verdana, arial, sans-serif; font-size: 12px; fill: rgb(42, 63, 95); fill-opacity: 1; white-space: pre;">500</text></g></g><g class="yaxislayer-above"><g class="ytick"><text text-anchor="end" x="79" y="4.199999999999999" transform="translate(0,384.96)" style="font-family: 'Open Sans', verdana, arial, sans-serif; font-size: 12px; fill: rgb(42, 63, 95); fill-opacity: 1; white-space: pre;">400</text></g><g class="ytick"><text text-anchor="end" x="79" y="4.199999999999999" transform="translate(0,340.6)" style="font-family: 'Open Sans', verdana, arial, sans-serif; font-size: 12px; fill: rgb(42, 63, 95); fill-opacity: 1; white-space: pre;">600</text></g><g class="ytick"><text text-anchor="end" x="79" y="4.199999999999999" transform="translate(0,296.23)" style="font-family: 'Open Sans', verdana, arial, sans-serif; font-size: 12px; fill: rgb(42, 63, 95); fill-opacity: 1; white-space: pre;">800</text></g><g class="ytick"><text text-anchor="end" x="79" y="4.199999999999999" transform="translate(0,251.87)" style="font-family: 'Open Sans', verdana, arial, sans-serif; font-size: 12px; fill: rgb(42, 63, 95); fill-opacity: 1; white-space: pre;">1000</text></g><g class="ytick"><text text-anchor="end" x="79" y="4.199999999999999" transform="translate(0,207.5)" style="font-family: 'Open Sans', verdana, arial, sans-serif; font-size: 12px; fill: rgb(42, 63, 95); fill-opacity: 1; white-space: pre;">1200</text></g><g class="ytick"><text text-anchor="end" x="79" y="4.199999999999999" transform="translate(0,163.14)" style="font-family: 'Open Sans', verdana, arial, sans-serif; font-size: 12px; fill: rgb(42, 63, 95); fill-opacity: 1; white-space: pre;">1400</text></g><g class="ytick"><text text-anchor="end" x="79" y="4.199999999999999" transform="translate(0,118.78)" style="font-family: 'Open Sans', verdana, arial, sans-serif; font-size: 12px; fill: rgb(42, 63, 95); fill-opacity: 1; white-space: pre;">1600</text></g></g><g class="overaxes-above"/></g></g><g class="polarlayer"/><g class="ternarylayer"/><g class="geolayer"/><g class="funnelarealayer"/><g class="pielayer"/><g class="treemaplayer"/><g class="sunburstlayer"/><g class="glimages"/><defs id="topdefs-e31352"><g class="clips"/><clipPath id="legende31352"><rect width="137" height="67" x="0" y="0"/></clipPath></defs><g class="layer-above"><g class="imagelayer"/><g class="shapelayer"/></g><g class="infolayer"><g class="legend" pointer-events="all" transform="translate(551.24, 100)"><rect class="bg" shape-rendering="crispEdges" width="137" height="67" x="0" y="0" style="stroke: rgb(68, 68, 68); stroke-opacity: 1; fill: rgb(255, 255, 255); fill-opacity: 1; stroke-width: 0px;"/><g class="scrollbox" transform="translate(0, 0)" clip-path="url('#legende31352')"><g class="groups"><g class="traces" transform="translate(0, 14.5)" style="opacity: 1;"><text class="legendtext" text-anchor="start" x="40" y="4.680000000000001" style="font-family: 'Open Sans', verdana, arial, sans-serif; font-size: 12px; fill: rgb(42, 63, 95); fill-opacity: 1; white-space: pre;">Average Class I</text><g class="layers" style="opacity: 1;"><g class="legendfill"/><g class="legendlines"><path class="js-line" d="M5,0h30" style="fill: none; stroke: rgb(0, 100, 80); stroke-opacity: 1; stroke-width: 2px;"/></g><g class="legendsymbols"><g class="legendpoints"/></g></g><rect class="legendtoggle" x="0" y="-9.5" width="131.15625" height="19" style="fill: rgb(0, 0, 0); fill-opacity: 0;"/></g><g class="traces" transform="translate(0, 33.5)" style="opacity: 1;"><text class="legendtext" text-anchor="start" x="40" y="4.680000000000001" style="font-family: 'Open Sans', verdana, arial, sans-serif; font-size: 12px; fill: rgb(42, 63, 95); fill-opacity: 1; white-space: pre;">Average Class II</text><g class="layers" style="opacity: 1;"><g class="legendfill"/><g class="legendlines"><path class="js-line" d="M5,0h30" style="fill: none; stroke: rgb(0, 176, 246); stroke-opacity: 1; stroke-width: 2px;"/></g><g class="legendsymbols"><g class="legendpoints"/></g></g><rect class="legendtoggle" x="0" y="-9.5" width="131.15625" height="19" style="fill: rgb(0, 0, 0); fill-opacity: 0;"/></g><g class="traces" transform="translate(0, 52.5)" style="opacity: 1;"><text class="legendtext" text-anchor="start" x="40" y="4.680000000000001" style="font-family: 'Open Sans', verdana, arial, sans-serif; font-size: 12px; fill: rgb(42, 63, 95); fill-opacity: 1; white-space: pre;">Average Class III</text><g class="layers" style="opacity: 1;"><g class="legendfill"/><g class="legendlines"><path class="js-line" d="M5,0h30" style="fill: none; stroke: rgb(231, 107, 243); stroke-opacity: 1; stroke-width: 2px;"/></g><g class="legendsymbols"><g class="legendpoints"/></g></g><rect class="legendtoggle" x="0" y="-9.5" width="131.15625" height="19" style="fill: rgb(0, 0, 0); fill-opacity: 0;"/></g></g></g><rect class="scrollbar" rx="20" ry="3" width="0" height="0" x="0" y="0" style="fill: rgb(128, 139, 164); fill-opacity: 1;"/></g><g class="g-gtitle"><text class="gtitle" x="35" y="50" text-anchor="start" dy="0em" style="font-family: 'Open Sans', verdana, arial, sans-serif; font-size: 17px; fill: rgb(42, 63, 95); opacity: 1; font-weight: normal; white-space: pre;">Average curve: index_group</text></g><g class="g-xtitle"><text class="xtitle" x="311" y="460.8" text-anchor="middle" style="font-family: 'Open Sans', verdana, arial, sans-serif; font-size: 14px; fill: rgb(42, 63, 95); opacity: 1; font-weight: normal; white-space: pre;">Domain</text></g><g class="g-ytitle"><text class="ytitle" transform="rotate(-90,27.496875000000003,260)" x="27.496875000000003" y="260" text-anchor="middle" style="font-family: 'Open Sans', verdana, arial, sans-serif; font-size: 14px; fill: rgb(42, 63, 95); opacity: 1; font-weight: normal; white-space: pre;">Frequency</text></g></g></svg>