<svg xmlns="http://www.w3.org/2000/svg" xmlns:xlink="http://www.w3.org/1999/xlink" version="1.1" width="792" height="2160" name="result_tree.svg" y="0" viewBox="0 0 792 2160">
<polyline points="792,2160 0,2160 0,0 792,0 792,2160" fill="white" />
<text x="441" y="37" fill="#000000" font-size="15" font-family="default" > seq 101:HP23-E6-IDL:0.338:Class I</text>
<polyline points="420,44 420,32 439,32" fill="none" stroke="#000000" stroke-width="1" stroke-linecap="square"/>
<text x="441" y="61" fill="#000000" font-size="15" font-family="default" > seq 140:YIK:0.275:Class I</text>
<polyline points="420,45 420,56 439,56" fill="none" stroke="#000000" stroke-width="1" stroke-linecap="square"/>
<polyline points="401,62 401,44 420,44" fill="none" stroke="#000000" stroke-width="1" stroke-linecap="square"/>
<text x="441" y="85" fill="#000000" font-size="15" font-family="default" > seq 143:HP23:0.19:Class I</text>
<polyline points="401,63 401,80 439,80" fill="none" stroke="#000000" stroke-width="1" stroke-linecap="square"/>
<polyline points="382,83 382,62 401,62" fill="none" stroke="#000000" stroke-width="1" stroke-linecap="square"/>
<text x="441" y="109" fill="#000000" font-size="15" font-family="default" > seq 50:HP23L:0.39:Class I</text>
<polyline points="382,84 382,104 439,104" fill="none" stroke="#000000" stroke-width="1" stroke-linecap="square"/>
<polyline points="363,114 363,83 382,83" fill="none" stroke="#000000" stroke-width="1" stroke-linecap="square"/>
<text x="441" y="133" fill="#000000" font-size="15" font-family="default" > seq 139:2P23Q:1.39:Class I</text>
<polyline points="401,146 401,128 439,128" fill="none" stroke="#000000" stroke-width="1" stroke-linecap="square"/>
<text x="441" y="157" fill="#000000" font-size="15" font-family="default" > seq 1:2P23:0.69:Class I</text>
<polyline points="420,164 420,152 439,152" fill="none" stroke="#000000" stroke-width="1" stroke-linecap="square"/>
<text x="441" y="181" fill="#000000" font-size="15" font-family="default" > seq 75:2P23L:0.59:Class I</text>
<polyline points="420,165 420,176 439,176" fill="none" stroke="#000000" stroke-width="1" stroke-linecap="square"/>
<polyline points="401,147 401,164 420,164" fill="none" stroke="#000000" stroke-width="1" stroke-linecap="square"/>
<polyline points="363,115 363,146 401,146" fill="none" stroke="#000000" stroke-width="1" stroke-linecap="square"/>
<polyline points="344,166 344,114 363,114" fill="none" stroke="#000000" stroke-width="1" stroke-linecap="square"/>
<text x="441" y="205" fill="#000000" font-size="15" font-family="default" > seq 124:WQ-LDL:3.7:Class I</text>
<polyline points="401,218 401,200 439,200" fill="none" stroke="#000000" stroke-width="1" stroke-linecap="square"/>
<text x="441" y="229" fill="#000000" font-size="15" font-family="default" > seq 53:MT-WQ-IDL:0.6:Class I</text>
<polyline points="420,236 420,224 439,224" fill="none" stroke="#000000" stroke-width="1" stroke-linecap="square"/>
<text x="441" y="253" fill="#000000" font-size="15" font-family="default" > seq 177:WQ-IDL:1.6:Class I</text>
<polyline points="420,237 420,248 439,248" fill="none" stroke="#000000" stroke-width="1" stroke-linecap="square"/>
<polyline points="401,219 401,236 420,236" fill="none" stroke="#000000" stroke-width="1" stroke-linecap="square"/>
<polyline points="344,167 344,218 401,218" fill="none" stroke="#000000" stroke-width="1" stroke-linecap="square"/>
<polyline points="287,231 287,166 344,166" fill="none" stroke="#000000" stroke-width="1" stroke-linecap="square"/>
<text x="441" y="277" fill="#000000" font-size="15" font-family="default" > seq 113:MT-SC19EK:4.8:Class I</text>
<polyline points="306,296 306,272 439,272" fill="none" stroke="#000000" stroke-width="1" stroke-linecap="square"/>
<text x="441" y="301" fill="#000000" font-size="15" font-family="default" > seq 26:MT-SC20EK:3.0:Class I</text>
<polyline points="325,321 325,296 439,296" fill="none" stroke="#000000" stroke-width="1" stroke-linecap="square"/>
<text x="441" y="325" fill="#000000" font-size="15" font-family="default" > seq 110:MT-SC22:1.32:Class I</text>
<polyline points="344,347 344,320 439,320" fill="none" stroke="#000000" stroke-width="1" stroke-linecap="square"/>
<text x="441" y="349" fill="#000000" font-size="15" font-family="default" > seq 131:MT-SC21EK:2.7:Class I</text>
<polyline points="363,375 363,344 439,344" fill="none" stroke="#000000" stroke-width="1" stroke-linecap="square"/>
<text x="441" y="373" fill="#000000" font-size="15" font-family="default" > seq 80:SC22:54.58:Class II</text>
<polyline points="420,380 420,368 439,368" fill="none" stroke="#000000" stroke-width="1" stroke-linecap="square"/>
<text x="441" y="397" fill="#000000" font-size="15" font-family="default" > seq 88:SC22EK:51.3:Class II</text>
<polyline points="420,381 420,392 439,392" fill="none" stroke="#000000" stroke-width="1" stroke-linecap="square"/>
<polyline points="382,407 382,380 420,380" fill="none" stroke="#000000" stroke-width="1" stroke-linecap="square"/>
<text x="441" y="421" fill="#000000" font-size="15" font-family="default" > seq 61:MT-SC29:0.43:Class I</text>
<polyline points="401,434 401,416 439,416" fill="none" stroke="#000000" stroke-width="1" stroke-linecap="square"/>
<text x="441" y="445" fill="#000000" font-size="15" font-family="default" > seq 126:SC35EK:0.39:Class I</text>
<polyline points="420,452 420,440 439,440" fill="none" stroke="#000000" stroke-width="1" stroke-linecap="square"/>
<text x="441" y="469" fill="#000000" font-size="15" font-family="default" > seq 132:SC29EK:0.7:Class I</text>
<polyline points="420,453 420,464 439,464" fill="none" stroke="#000000" stroke-width="1" stroke-linecap="square"/>
<polyline points="401,435 401,452 420,452" fill="none" stroke="#000000" stroke-width="1" stroke-linecap="square"/>
<polyline points="382,408 382,434 401,434" fill="none" stroke="#000000" stroke-width="1" stroke-linecap="square"/>
<polyline points="363,376 363,407 382,407" fill="none" stroke="#000000" stroke-width="1" stroke-linecap="square"/>
<polyline points="344,348 344,375 363,375" fill="none" stroke="#000000" stroke-width="1" stroke-linecap="square"/>
<polyline points="325,322 325,347 344,347" fill="none" stroke="#000000" stroke-width="1" stroke-linecap="square"/>
<polyline points="306,297 306,321 325,321" fill="none" stroke="#000000" stroke-width="1" stroke-linecap="square"/>
<polyline points="287,232 287,296 306,296" fill="none" stroke="#000000" stroke-width="1" stroke-linecap="square"/>
<polyline points="268,365 268,231 287,231" fill="none" stroke="#000000" stroke-width="1" stroke-linecap="square"/>
<text x="441" y="493" fill="#000000" font-size="15" font-family="default" > seq 145:WQ-IDI:3.7:Class I</text>
<polyline points="420,500 420,488 439,488" fill="none" stroke="#000000" stroke-width="1" stroke-linecap="square"/>
<text x="441" y="517" fill="#000000" font-size="15" font-family="default" > seq 153:WQ-LDI:3.6:Class I</text>
<polyline points="420,501 420,512 439,512" fill="none" stroke="#000000" stroke-width="1" stroke-linecap="square"/>
<polyline points="268,366 268,500 420,500" fill="none" stroke="#000000" stroke-width="1" stroke-linecap="square"/>
<polyline points="249,456 249,365 268,365" fill="none" stroke="#000000" stroke-width="1" stroke-linecap="square"/>
<text x="441" y="541" fill="#000000" font-size="15" font-family="default" > seq 146:MT-WQ:8.8:Class I</text>
<polyline points="420,548 420,536 439,536" fill="none" stroke="#000000" stroke-width="1" stroke-linecap="square"/>
<text x="441" y="565" fill="#000000" font-size="15" font-family="default" > seq 148:WQ:123.4:Class III</text>
<polyline points="420,549 420,560 439,560" fill="none" stroke="#000000" stroke-width="1" stroke-linecap="square"/>
<polyline points="249,457 249,548 420,548" fill="none" stroke="#000000" stroke-width="1" stroke-linecap="square"/>
<polyline points="230,529 230,456 249,456" fill="none" stroke="#000000" stroke-width="1" stroke-linecap="square"/>
<text x="441" y="589" fill="#000000" font-size="15" font-family="default" > seq 68:SC34EK:1.6:Class I</text>
<polyline points="401,602 401,584 439,584" fill="none" stroke="#000000" stroke-width="1" stroke-linecap="square"/>
<text x="441" y="613" fill="#000000" font-size="15" font-family="default" > seq 158:SC34:0.39:Class I</text>
<polyline points="420,620 420,608 439,608" fill="none" stroke="#000000" stroke-width="1" stroke-linecap="square"/>
<text x="441" y="637" fill="#000000" font-size="15" font-family="default" > seq 166:SC34:1.4:Class I</text>
<polyline points="420,621 420,632 439,632" fill="none" stroke="#000000" stroke-width="1" stroke-linecap="square"/>
<polyline points="401,603 401,620 420,620" fill="none" stroke="#000000" stroke-width="1" stroke-linecap="square"/>
<polyline points="230,530 230,602 401,602" fill="none" stroke="#000000" stroke-width="1" stroke-linecap="square"/>
<polyline points="211,673 211,529 230,529" fill="none" stroke="#000000" stroke-width="1" stroke-linecap="square"/>
<text x="441" y="661" fill="#000000" font-size="15" font-family="default" > seq 30:AP2:23.05:Class II</text>
<polyline points="420,668 420,656 439,656" fill="none" stroke="#000000" stroke-width="1" stroke-linecap="square"/>
<text x="441" y="685" fill="#000000" font-size="15" font-family="default" > seq 73:AP3:3.06:Class I</text>
<polyline points="420,669 420,680 439,680" fill="none" stroke="#000000" stroke-width="1" stroke-linecap="square"/>
<polyline points="401,686 401,668 420,668" fill="none" stroke="#000000" stroke-width="1" stroke-linecap="square"/>
<text x="441" y="709" fill="#000000" font-size="15" font-family="default" > seq 21:AP1:86.25:Class II</text>
<polyline points="401,687 401,704 439,704" fill="none" stroke="#000000" stroke-width="1" stroke-linecap="square"/>
<polyline points="382,707 382,686 401,686" fill="none" stroke="#000000" stroke-width="1" stroke-linecap="square"/>
<text x="441" y="733" fill="#000000" font-size="15" font-family="default" > seq 93:PBD-3HR-LBD:580.0:Class III</text>
<polyline points="382,708 382,728 439,728" fill="none" stroke="#000000" stroke-width="1" stroke-linecap="square"/>
<polyline points="363,738 363,707 382,707" fill="none" stroke="#000000" stroke-width="1" stroke-linecap="square"/>
<text x="441" y="757" fill="#000000" font-size="15" font-family="default" > seq 105:15K:50.0:Class II</text>
<polyline points="401,770 401,752 439,752" fill="none" stroke="#000000" stroke-width="1" stroke-linecap="square"/>
<text x="441" y="781" fill="#000000" font-size="15" font-family="default" > seq 16:Izm:26.0:Class II</text>
<polyline points="420,788 420,776 439,776" fill="none" stroke="#000000" stroke-width="1" stroke-linecap="square"/>
<text x="441" y="805" fill="#000000" font-size="15" font-family="default" > seq 51:T5:16.6924641112:Class II</text>
<polyline points="420,789 420,800 439,800" fill="none" stroke="#000000" stroke-width="1" stroke-linecap="square"/>
<polyline points="401,771 401,788 420,788" fill="none" stroke="#000000" stroke-width="1" stroke-linecap="square"/>
<polyline points="363,739 363,770 401,770" fill="none" stroke="#000000" stroke-width="1" stroke-linecap="square"/>
<polyline points="344,818 344,738 363,738" fill="none" stroke="#000000" stroke-width="1" stroke-linecap="square"/>
<text x="441" y="829" fill="#000000" font-size="15" font-family="default" > seq 155:MT-SFT:0.8:Class I</text>
<polyline points="420,836 420,824 439,824" fill="none" stroke="#000000" stroke-width="1" stroke-linecap="square"/>
<text x="441" y="853" fill="#000000" font-size="15" font-family="default" > seq 171:Sifuvirtide/SFT:2.87:Class I</text>
<polyline points="420,837 420,848 439,848" fill="none" stroke="#000000" stroke-width="1" stroke-linecap="square"/>
<polyline points="401,854 401,836 420,836" fill="none" stroke="#000000" stroke-width="1" stroke-linecap="square"/>
<text x="441" y="877" fill="#000000" font-size="15" font-family="default" > seq 178:CP32M:1.8:Class I</text>
<polyline points="401,855 401,872 439,872" fill="none" stroke="#000000" stroke-width="1" stroke-linecap="square"/>
<polyline points="363,899 363,854 401,854" fill="none" stroke="#000000" stroke-width="1" stroke-linecap="square"/>
<text x="441" y="901" fill="#000000" font-size="15" font-family="default" > seq 109:C34 EHO:1.88:Class I</text>
<polyline points="420,908 420,896 439,896" fill="none" stroke="#000000" stroke-width="1" stroke-linecap="square"/>
<text x="441" y="925" fill="#000000" font-size="15" font-family="default" > seq 111:MT-SC34 EHO:1.17:Class I</text>
<polyline points="420,909 420,920 439,920" fill="none" stroke="#000000" stroke-width="1" stroke-linecap="square"/>
<polyline points="382,944 382,908 420,908" fill="none" stroke="#000000" stroke-width="1" stroke-linecap="square"/>
<text x="441" y="949" fill="#000000" font-size="15" font-family="default" > seq 52:C34 ROD:5.51:Class I</text>
<polyline points="420,956 420,944 439,944" fill="none" stroke="#000000" stroke-width="1" stroke-linecap="square"/>
<text x="441" y="973" fill="#000000" font-size="15" font-family="default" > seq 165:MT-SC34 ROD:0.84:Class I</text>
<polyline points="420,957 420,968 439,968" fill="none" stroke="#000000" stroke-width="1" stroke-linecap="square"/>
<polyline points="401,980 401,956 420,956" fill="none" stroke="#000000" stroke-width="1" stroke-linecap="square"/>
<text x="441" y="997" fill="#000000" font-size="15" font-family="default" > seq 76:MT-P3:1.38:Class I</text>
<polyline points="420,1004 420,992 439,992" fill="none" stroke="#000000" stroke-width="1" stroke-linecap="square"/>
<text x="441" y="1021" fill="#000000" font-size="15" font-family="default" > seq 175:P3:6.34:Class I</text>
<polyline points="420,1005 420,1016 439,1016" fill="none" stroke="#000000" stroke-width="1" stroke-linecap="square"/>
<polyline points="401,981 401,1004 420,1004" fill="none" stroke="#000000" stroke-width="1" stroke-linecap="square"/>
<polyline points="382,945 382,980 401,980" fill="none" stroke="#000000" stroke-width="1" stroke-linecap="square"/>
<polyline points="363,900 363,944 382,944" fill="none" stroke="#000000" stroke-width="1" stroke-linecap="square"/>
<polyline points="344,819 344,899 363,899" fill="none" stroke="#000000" stroke-width="1" stroke-linecap="square"/>
<polyline points="211,674 211,818 344,818" fill="none" stroke="#000000" stroke-width="1" stroke-linecap="square"/>
<polyline points="192,868 192,673 211,673" fill="none" stroke="#000000" stroke-width="1" stroke-linecap="square"/>
<text x="441" y="1045" fill="#000000" font-size="15" font-family="default" > seq 125:2429:4.3522414043:Class I</text>
<polyline points="306,1064 306,1040 439,1040" fill="none" stroke="#000000" stroke-width="1" stroke-linecap="square"/>
<text x="441" y="1069" fill="#000000" font-size="15" font-family="default" > seq 89:2638:18.3213471524:Class II</text>
<polyline points="325,1088 325,1064 439,1064" fill="none" stroke="#000000" stroke-width="1" stroke-linecap="square"/>
<text x="441" y="1093" fill="#000000" font-size="15" font-family="default" > seq 97:290676:2.8960388871:Class I</text>
<polyline points="344,1113 344,1088 439,1088" fill="none" stroke="#000000" stroke-width="1" stroke-linecap="square"/>
<text x="441" y="1117" fill="#000000" font-size="15" font-family="default" > seq 100:2544:5.8493346382:Class I</text>
<polyline points="363,1139 363,1112 439,1112" fill="none" stroke="#000000" stroke-width="1" stroke-linecap="square"/>
<text x="441" y="1141" fill="#000000" font-size="15" font-family="default" > seq 104:291022:11.031166422:Class II</text>
<polyline points="382,1166 382,1136 439,1136" fill="none" stroke="#000000" stroke-width="1" stroke-linecap="square"/>
<text x="441" y="1165" fill="#000000" font-size="15" font-family="default" > seq 11:267209:4.7117529067:Class I</text>
<polyline points="420,1172 420,1160 439,1160" fill="none" stroke="#000000" stroke-width="1" stroke-linecap="square"/>
<text x="441" y="1189" fill="#000000" font-size="15" font-family="default" > seq 122:267225:9.5576369965:Class I</text>
<polyline points="420,1173 420,1184 439,1184" fill="none" stroke="#000000" stroke-width="1" stroke-linecap="square"/>
<polyline points="401,1196 401,1172 420,1172" fill="none" stroke="#000000" stroke-width="1" stroke-linecap="square"/>
<text x="441" y="1213" fill="#000000" font-size="15" font-family="default" > seq 28:267226:4.7728574416:Class I</text>
<polyline points="420,1220 420,1208 439,1208" fill="none" stroke="#000000" stroke-width="1" stroke-linecap="square"/>
<text x="441" y="1237" fill="#000000" font-size="15" font-family="default" > seq 74:267221:7.8529215112:Class I</text>
<polyline points="420,1221 420,1232 439,1232" fill="none" stroke="#000000" stroke-width="1" stroke-linecap="square"/>
<polyline points="401,1197 401,1220 420,1220" fill="none" stroke="#000000" stroke-width="1" stroke-linecap="square"/>
<polyline points="382,1167 382,1196 401,1196" fill="none" stroke="#000000" stroke-width="1" stroke-linecap="square"/>
<polyline points="363,1140 363,1166 382,1166" fill="none" stroke="#000000" stroke-width="1" stroke-linecap="square"/>
<polyline points="344,1114 344,1139 363,1139" fill="none" stroke="#000000" stroke-width="1" stroke-linecap="square"/>
<polyline points="325,1089 325,1113 344,1113" fill="none" stroke="#000000" stroke-width="1" stroke-linecap="square"/>
<polyline points="306,1065 306,1088 325,1088" fill="none" stroke="#000000" stroke-width="1" stroke-linecap="square"/>
<polyline points="192,869 192,1064 306,1064" fill="none" stroke="#000000" stroke-width="1" stroke-linecap="square"/>
<polyline points="173,1073 173,868 192,868" fill="none" stroke="#000000" stroke-width="1" stroke-linecap="square"/>
<text x="441" y="1261" fill="#000000" font-size="15" font-family="default" > seq 79:C36M4:15.9:Class II</text>
<polyline points="363,1278 363,1256 439,1256" fill="none" stroke="#000000" stroke-width="1" stroke-linecap="square"/>
<text x="441" y="1285" fill="#000000" font-size="15" font-family="default" > seq 36:C36M3:30.5:Class II</text>
<polyline points="382,1301 382,1280 439,1280" fill="none" stroke="#000000" stroke-width="1" stroke-linecap="square"/>
<text x="441" y="1309" fill="#000000" font-size="15" font-family="default" > seq 167:C36M1:28.5:Class II</text>
<polyline points="401,1322 401,1304 439,1304" fill="none" stroke="#000000" stroke-width="1" stroke-linecap="square"/>
<text x="441" y="1333" fill="#000000" font-size="15" font-family="default" > seq 136:C36M0:39.8:Class II</text>
<polyline points="420,1340 420,1328 439,1328" fill="none" stroke="#000000" stroke-width="1" stroke-linecap="square"/>
<text x="441" y="1357" fill="#000000" font-size="15" font-family="default" > seq 169:C36M2:42.0:Class II</text>
<polyline points="420,1341 420,1352 439,1352" fill="none" stroke="#000000" stroke-width="1" stroke-linecap="square"/>
<polyline points="401,1323 401,1340 420,1340" fill="none" stroke="#000000" stroke-width="1" stroke-linecap="square"/>
<polyline points="382,1302 382,1322 401,1322" fill="none" stroke="#000000" stroke-width="1" stroke-linecap="square"/>
<polyline points="363,1279 363,1301 382,1301" fill="none" stroke="#000000" stroke-width="1" stroke-linecap="square"/>
<polyline points="173,1074 173,1278 363,1278" fill="none" stroke="#000000" stroke-width="1" stroke-linecap="square"/>
<polyline points="154,1233 154,1073 173,1073" fill="none" stroke="#000000" stroke-width="1" stroke-linecap="square"/>
<text x="441" y="1381" fill="#000000" font-size="15" font-family="default" > seq 107:T661:66.4892128528:Class II</text>
<polyline points="401,1394 401,1376 439,1376" fill="none" stroke="#000000" stroke-width="1" stroke-linecap="square"/>
<text x="441" y="1405" fill="#000000" font-size="15" font-family="default" > seq 3:T645:19.5057920728:Class II</text>
<polyline points="420,1412 420,1400 439,1400" fill="none" stroke="#000000" stroke-width="1" stroke-linecap="square"/>
<text x="441" y="1429" fill="#000000" font-size="15" font-family="default" > seq 33:FB006:1.4:Class I</text>
<polyline points="420,1413 420,1424 439,1424" fill="none" stroke="#000000" stroke-width="1" stroke-linecap="square"/>
<polyline points="401,1395 401,1412 420,1412" fill="none" stroke="#000000" stroke-width="1" stroke-linecap="square"/>
<polyline points="154,1234 154,1394 401,1394" fill="none" stroke="#000000" stroke-width="1" stroke-linecap="square"/>
<polyline points="135,1351 135,1233 154,1233" fill="none" stroke="#000000" stroke-width="1" stroke-linecap="square"/>
<text x="441" y="1453" fill="#000000" font-size="15" font-family="default" > seq 92:T654:0.2203191543:Class I</text>
<polyline points="382,1469 382,1448 439,1448" fill="none" stroke="#000000" stroke-width="1" stroke-linecap="square"/>
<text x="441" y="1477" fill="#000000" font-size="15" font-family="default" > seq 91:T655:508.4108844139:Class III</text>
<polyline points="401,1490 401,1472 439,1472" fill="none" stroke="#000000" stroke-width="1" stroke-linecap="square"/>
<text x="441" y="1501" fill="#000000" font-size="15" font-family="default" > seq 98:T656:1.1054805303:Class I</text>
<polyline points="420,1508 420,1496 439,1496" fill="none" stroke="#000000" stroke-width="1" stroke-linecap="square"/>
<text x="441" y="1525" fill="#000000" font-size="15" font-family="default" > seq 174:C36M4A:6.84:Class I</text>
<polyline points="420,1509 420,1520 439,1520" fill="none" stroke="#000000" stroke-width="1" stroke-linecap="square"/>
<polyline points="401,1491 401,1508 420,1508" fill="none" stroke="#000000" stroke-width="1" stroke-linecap="square"/>
<polyline points="382,1470 382,1490 401,1490" fill="none" stroke="#000000" stroke-width="1" stroke-linecap="square"/>
<polyline points="135,1352 135,1469 382,1469" fill="none" stroke="#000000" stroke-width="1" stroke-linecap="square"/>
<polyline points="116,1458 116,1351 135,1351" fill="none" stroke="#000000" stroke-width="1" stroke-linecap="square"/>
<text x="441" y="1549" fill="#000000" font-size="15" font-family="default" > seq 95:T658:42.2294496242:Class II</text>
<polyline points="363,1566 363,1544 439,1544" fill="none" stroke="#000000" stroke-width="1" stroke-linecap="square"/>
<text x="441" y="1573" fill="#000000" font-size="15" font-family="default" > seq 114:T657:28.2066933602:Class II</text>
<polyline points="382,1589 382,1568 439,1568" fill="none" stroke="#000000" stroke-width="1" stroke-linecap="square"/>
<text x="441" y="1597" fill="#000000" font-size="15" font-family="default" > seq 99:T659:511.0603274357:Class III</text>
<polyline points="401,1610 401,1592 439,1592" fill="none" stroke="#000000" stroke-width="1" stroke-linecap="square"/>
<text x="441" y="1621" fill="#000000" font-size="15" font-family="default" > seq 94:C36M3A:8.62:Class I</text>
<polyline points="420,1628 420,1616 439,1616" fill="none" stroke="#000000" stroke-width="1" stroke-linecap="square"/>
<text x="441" y="1645" fill="#000000" font-size="15" font-family="default" > seq 172:T660:57.5774617712:Class II</text>
<polyline points="420,1629 420,1640 439,1640" fill="none" stroke="#000000" stroke-width="1" stroke-linecap="square"/>
<polyline points="401,1611 401,1628 420,1628" fill="none" stroke="#000000" stroke-width="1" stroke-linecap="square"/>
<polyline points="382,1590 382,1610 401,1610" fill="none" stroke="#000000" stroke-width="1" stroke-linecap="square"/>
<polyline points="363,1567 363,1589 382,1589" fill="none" stroke="#000000" stroke-width="1" stroke-linecap="square"/>
<polyline points="116,1459 116,1566 363,1566" fill="none" stroke="#000000" stroke-width="1" stroke-linecap="square"/>
<polyline points="97,1588 97,1458 116,1458" fill="none" stroke="#000000" stroke-width="1" stroke-linecap="square"/>
<text x="441" y="1669" fill="#000000" font-size="15" font-family="default" > seq 65:TM-C34:1.4:Class I</text>
<polyline points="420,1676 420,1664 439,1664" fill="none" stroke="#000000" stroke-width="1" stroke-linecap="square"/>
<text x="441" y="1693" fill="#000000" font-size="15" font-family="default" > seq 176:T648:8.1471372996:Class I</text>
<polyline points="420,1677 420,1688 439,1688" fill="none" stroke="#000000" stroke-width="1" stroke-linecap="square"/>
<polyline points="344,1718 344,1676 420,1676" fill="none" stroke="#000000" stroke-width="1" stroke-linecap="square"/>
<text x="441" y="1717" fill="#000000" font-size="15" font-family="default" > seq 129:AA-C34:1.3:Class I</text>
<polyline points="420,1724 420,1712 439,1712" fill="none" stroke="#000000" stroke-width="1" stroke-linecap="square"/>
<text x="441" y="1741" fill="#000000" font-size="15" font-family="default" > seq 168:T624:1.3964497591999998:Class I</text>
<polyline points="420,1725 420,1736 439,1736" fill="none" stroke="#000000" stroke-width="1" stroke-linecap="square"/>
<polyline points="363,1761 363,1724 420,1724" fill="none" stroke="#000000" stroke-width="1" stroke-linecap="square"/>
<text x="441" y="1765" fill="#000000" font-size="15" font-family="default" > seq 6:C36M1A:18.5:Class II</text>
<polyline points="420,1772 420,1760 439,1760" fill="none" stroke="#000000" stroke-width="1" stroke-linecap="square"/>
<text x="441" y="1789" fill="#000000" font-size="15" font-family="default" > seq 48:C34S138L:1.5:Class I</text>
<polyline points="420,1773 420,1784 439,1784" fill="none" stroke="#000000" stroke-width="1" stroke-linecap="square"/>
<polyline points="382,1799 382,1772 420,1772" fill="none" stroke="#000000" stroke-width="1" stroke-linecap="square"/>
<text x="441" y="1813" fill="#000000" font-size="15" font-family="default" > seq 134:C34S138A:2.0:Class I</text>
<polyline points="401,1826 401,1808 439,1808" fill="none" stroke="#000000" stroke-width="1" stroke-linecap="square"/>
<text x="441" y="1837" fill="#000000" font-size="15" font-family="default" > seq 35:C34S138T:2.6:Class I</text>
<polyline points="420,1844 420,1832 439,1832" fill="none" stroke="#000000" stroke-width="1" stroke-linecap="square"/>
<text x="441" y="1861" fill="#000000" font-size="15" font-family="default" > seq 157:C34S138P:46.0:Class II</text>
<polyline points="420,1845 420,1856 439,1856" fill="none" stroke="#000000" stroke-width="1" stroke-linecap="square"/>
<polyline points="401,1827 401,1844 420,1844" fill="none" stroke="#000000" stroke-width="1" stroke-linecap="square"/>
<polyline points="382,1800 382,1826 401,1826" fill="none" stroke="#000000" stroke-width="1" stroke-linecap="square"/>
<polyline points="363,1762 363,1799 382,1799" fill="none" stroke="#000000" stroke-width="1" stroke-linecap="square"/>
<polyline points="344,1719 344,1761 363,1761" fill="none" stroke="#000000" stroke-width="1" stroke-linecap="square"/>
<polyline points="97,1589 97,1718 344,1718" fill="none" stroke="#000000" stroke-width="1" stroke-linecap="square"/>
<polyline points="78,1752 78,1588 97,1588" fill="none" stroke="#000000" stroke-width="1" stroke-linecap="square"/>
<text x="441" y="1885" fill="#000000" font-size="15" font-family="default" > seq 18:T652:0.8926917557999999:Class I</text>
<polyline points="420,1892 420,1880 439,1880" fill="none" stroke="#000000" stroke-width="1" stroke-linecap="square"/>
<text x="441" y="1909" fill="#000000" font-size="15" font-family="default" > seq 150:T653:14.056914886500001:Class II</text>
<polyline points="420,1893 420,1904 439,1904" fill="none" stroke="#000000" stroke-width="1" stroke-linecap="square"/>
<polyline points="401,1916 401,1892 420,1892" fill="none" stroke="#000000" stroke-width="1" stroke-linecap="square"/>
<text x="441" y="1933" fill="#000000" font-size="15" font-family="default" > seq 77:MT-C34:0.5:Class I</text>
<polyline points="420,1940 420,1928 439,1928" fill="none" stroke="#000000" stroke-width="1" stroke-linecap="square"/>
<text x="441" y="1957" fill="#000000" font-size="15" font-family="default" > seq 147:2410:6.776559879400001:Class I</text>
<polyline points="420,1941 420,1952 439,1952" fill="none" stroke="#000000" stroke-width="1" stroke-linecap="square"/>
<polyline points="401,1917 401,1940 420,1940" fill="none" stroke="#000000" stroke-width="1" stroke-linecap="square"/>
<polyline points="78,1753 78,1916 401,1916" fill="none" stroke="#000000" stroke-width="1" stroke-linecap="square"/>
<polyline points="59,1882 59,1752 78,1752" fill="none" stroke="#000000" stroke-width="1" stroke-linecap="square"/>
<text x="441" y="1981" fill="#000000" font-size="15" font-family="default" > seq 42:WT:1.5:Class I</text>
<polyline points="420,1988 420,1976 439,1976" fill="none" stroke="#000000" stroke-width="1" stroke-linecap="square"/>
<text x="441" y="2005" fill="#000000" font-size="15" font-family="default" > seq 115:T647:9.9644224825:Class I</text>
<polyline points="420,1989 420,2000 439,2000" fill="none" stroke="#000000" stroke-width="1" stroke-linecap="square"/>
<polyline points="401,2012 401,1988 420,1988" fill="none" stroke="#000000" stroke-width="1" stroke-linecap="square"/>
<text x="441" y="2029" fill="#000000" font-size="15" font-family="default" > seq 56:T646:18.556567347999998:Class II</text>
<polyline points="420,2036 420,2024 439,2024" fill="none" stroke="#000000" stroke-width="1" stroke-linecap="square"/>
<text x="441" y="2053" fill="#000000" font-size="15" font-family="default" > seq 154:C34:2.7:Class I</text>
<polyline points="420,2037 420,2048 439,2048" fill="none" stroke="#000000" stroke-width="1" stroke-linecap="square"/>
<polyline points="401,2013 401,2036 420,2036" fill="none" stroke="#000000" stroke-width="1" stroke-linecap="square"/>
<polyline points="59,1883 59,2012 401,2012" fill="none" stroke="#000000" stroke-width="1" stroke-linecap="square"/>
<polyline points="40,1986 40,1882 59,1882" fill="none" stroke="#000000" stroke-width="1" stroke-linecap="square"/>
<text x="441" y="2077" fill="#000000" font-size="15" font-family="default" > seq 108:C36M2A:18.2:Class II</text>
<polyline points="401,2090 401,2072 439,2072" fill="none" stroke="#000000" stroke-width="1" stroke-linecap="square"/>
<text x="441" y="2101" fill="#000000" font-size="15" font-family="default" > seq 66:T624:0.4569652935:Class I</text>
<polyline points="420,2108 420,2096 439,2096" fill="none" stroke="#000000" stroke-width="1" stroke-linecap="square"/>
<text x="441" y="2125" fill="#000000" font-size="15" font-family="default" > seq 173:T650:9.826253964:Class I</text>
<polyline points="420,2109 420,2120 439,2120" fill="none" stroke="#000000" stroke-width="1" stroke-linecap="square"/>
<polyline points="401,2091 401,2108 420,2108" fill="none" stroke="#000000" stroke-width="1" stroke-linecap="square"/>
<polyline points="40,1987 40,2090 401,2090" fill="none" stroke="#000000" stroke-width="1" stroke-linecap="square"/>
<text x="400" y="1021" fill="#212121" font-size="11" font-family="MS Sans Serif" >96</text>
<text x="400" y="950" fill="#212121" font-size="11" font-family="MS Sans Serif" >96</text>
<text x="400" y="830" fill="#212121" font-size="11" font-family="MS Sans Serif" >95</text>
<text x="400" y="902" fill="#212121" font-size="11" font-family="MS Sans Serif" >93</text>
<text x="381" y="997" fill="#212121" font-size="11" font-family="MS Sans Serif" >92</text>
<text x="362" y="961" fill="#212121" font-size="11" font-family="MS Sans Serif" >93</text>
<text x="400" y="662" fill="#212121" font-size="11" font-family="MS Sans Serif" >89</text>
<text x="381" y="848" fill="#212121" font-size="11" font-family="MS Sans Serif" >74</text>
<text x="400" y="637" fill="#212121" font-size="11" font-family="MS Sans Serif" >65</text>
<text x="400" y="181" fill="#212121" font-size="11" font-family="MS Sans Serif" >54</text>
<text x="381" y="163" fill="#212121" font-size="11" font-family="MS Sans Serif" >74</text>
<text x="381" y="680" fill="#212121" font-size="11" font-family="MS Sans Serif" >51</text>
<text x="362" y="701" fill="#212121" font-size="11" font-family="MS Sans Serif" >76</text>
<text x="400" y="805" fill="#212121" font-size="11" font-family="MS Sans Serif" >47</text>
<text x="400" y="1861" fill="#212121" font-size="11" font-family="MS Sans Serif" >45</text>
<text x="400" y="1166" fill="#212121" font-size="11" font-family="MS Sans Serif" >43</text>
<text x="400" y="253" fill="#212121" font-size="11" font-family="MS Sans Serif" >38</text>
<text x="400" y="1766" fill="#212121" font-size="11" font-family="MS Sans Serif" >35</text>
<text x="381" y="1843" fill="#212121" font-size="11" font-family="MS Sans Serif" >35</text>
<text x="400" y="469" fill="#212121" font-size="11" font-family="MS Sans Serif" >34</text>
<text x="381" y="451" fill="#212121" font-size="11" font-family="MS Sans Serif" >50</text>
<text x="400" y="38" fill="#212121" font-size="11" font-family="MS Sans Serif" >33</text>
<text x="381" y="56" fill="#212121" font-size="11" font-family="MS Sans Serif" >42</text>
<text x="362" y="77" fill="#212121" font-size="11" font-family="MS Sans Serif" >46</text>
<text x="343" y="108" fill="#212121" font-size="11" font-family="MS Sans Serif" >43</text>
<text x="400" y="1357" fill="#212121" font-size="11" font-family="MS Sans Serif" >32</text>
<text x="400" y="1645" fill="#212121" font-size="11" font-family="MS Sans Serif" >28</text>
<text x="400" y="1237" fill="#212121" font-size="11" font-family="MS Sans Serif" >26</text>
<text x="400" y="517" fill="#212121" font-size="11" font-family="MS Sans Serif" >25</text>
<text x="381" y="235" fill="#212121" font-size="11" font-family="MS Sans Serif" >24</text>
<text x="381" y="787" fill="#212121" font-size="11" font-family="MS Sans Serif" >22</text>
<text x="343" y="732" fill="#212121" font-size="11" font-family="MS Sans Serif" >43</text>
<text x="381" y="1339" fill="#212121" font-size="11" font-family="MS Sans Serif" >22</text>
<text x="362" y="1318" fill="#212121" font-size="11" font-family="MS Sans Serif" >31</text>
<text x="343" y="1295" fill="#212121" font-size="11" font-family="MS Sans Serif" >51</text>
<text x="362" y="1816" fill="#212121" font-size="11" font-family="MS Sans Serif" >19</text>
<text x="381" y="1213" fill="#212121" font-size="11" font-family="MS Sans Serif" >18</text>
<text x="362" y="1183" fill="#212121" font-size="11" font-family="MS Sans Serif" >24</text>
<text x="343" y="1156" fill="#212121" font-size="11" font-family="MS Sans Serif" >39</text>
<text x="324" y="1130" fill="#212121" font-size="11" font-family="MS Sans Serif" >80</text>
<text x="305" y="1105" fill="#212121" font-size="11" font-family="MS Sans Serif" >49</text>
<text x="343" y="916" fill="#212121" font-size="11" font-family="MS Sans Serif" >16</text>
<text x="400" y="1718" fill="#212121" font-size="11" font-family="MS Sans Serif" >16</text>
<text x="400" y="1429" fill="#212121" font-size="11" font-family="MS Sans Serif" >14</text>
<text x="400" y="374" fill="#212121" font-size="11" font-family="MS Sans Serif" >11</text>
<text x="362" y="424" fill="#212121" font-size="11" font-family="MS Sans Serif" >11</text>
<text x="381" y="1627" fill="#212121" font-size="11" font-family="MS Sans Serif" >10</text>
<text x="343" y="392" fill="#212121" font-size="11" font-family="MS Sans Serif" >10</text>
<text x="324" y="364" fill="#212121" font-size="11" font-family="MS Sans Serif" >13</text>
<text x="305" y="338" fill="#212121" font-size="11" font-family="MS Sans Serif" >14</text>
<text x="286" y="313" fill="#212121" font-size="11" font-family="MS Sans Serif" >12</text>
<text x="407" y="1525" fill="#212121" font-size="11" font-family="MS Sans Serif" >9</text>
<text x="388" y="619" fill="#212121" font-size="11" font-family="MS Sans Serif" >9</text>
<text x="293" y="1081" fill="#212121" font-size="11" font-family="MS Sans Serif" >8</text>
<text x="407" y="1957" fill="#212121" font-size="11" font-family="MS Sans Serif" >8</text>
<text x="407" y="1670" fill="#212121" font-size="11" font-family="MS Sans Serif" >8</text>
<text x="388" y="1507" fill="#212121" font-size="11" font-family="MS Sans Serif" >6</text>
<text x="407" y="1886" fill="#212121" font-size="11" font-family="MS Sans Serif" >6</text>
<text x="407" y="1982" fill="#212121" font-size="11" font-family="MS Sans Serif" >6</text>
<text x="331" y="160" fill="#212121" font-size="11" font-family="MS Sans Serif" >6</text>
<text x="388" y="1411" fill="#212121" font-size="11" font-family="MS Sans Serif" >6</text>
<text x="407" y="565" fill="#212121" font-size="11" font-family="MS Sans Serif" >6</text>
<text x="331" y="835" fill="#212121" font-size="11" font-family="MS Sans Serif" >5</text>
<text x="407" y="2125" fill="#212121" font-size="11" font-family="MS Sans Serif" >5</text>
<text x="369" y="1606" fill="#212121" font-size="11" font-family="MS Sans Serif" >5</text>
<text x="350" y="1583" fill="#212121" font-size="11" font-family="MS Sans Serif" >4</text>
<text x="407" y="2053" fill="#212121" font-size="11" font-family="MS Sans Serif" >4</text>
<text x="350" y="1778" fill="#212121" font-size="11" font-family="MS Sans Serif" >4</text>
<text x="369" y="1486" fill="#212121" font-size="11" font-family="MS Sans Serif" >3</text>
<text x="388" y="2107" fill="#212121" font-size="11" font-family="MS Sans Serif" >2</text>
<text x="388" y="1933" fill="#212121" font-size="11" font-family="MS Sans Serif" >1</text>
<text x="274" y="225" fill="#212121" font-size="11" font-family="MS Sans Serif" >1</text>
<text x="255" y="359" fill="#212121" font-size="11" font-family="MS Sans Serif" >7</text>
<text x="229" y="450" fill="#212121" font-size="11" font-family="MS Sans Serif" >22</text>
<text x="217" y="523" fill="#212121" font-size="11" font-family="MS Sans Serif" >8</text>
<text x="191" y="667" fill="#212121" font-size="11" font-family="MS Sans Serif" >28</text>
<text x="172" y="862" fill="#212121" font-size="11" font-family="MS Sans Serif" >23</text>
<text x="160" y="1067" fill="#212121" font-size="11" font-family="MS Sans Serif" >9</text>
<text x="141" y="1227" fill="#212121" font-size="11" font-family="MS Sans Serif" >3</text>
<text x="388" y="2029" fill="#212121" font-size="11" font-family="MS Sans Serif" >1</text>
<text x="331" y="1735" fill="#212121" font-size="11" font-family="MS Sans Serif" >1</text>
<text x="122" y="1345" fill="#212121" font-size="11" font-family="MS Sans Serif" >2</text>
<text x="103" y="1452" fill="#212121" font-size="11" font-family="MS Sans Serif" >2</text>
<text x="84" y="1582" fill="#212121" font-size="11" font-family="MS Sans Serif" >2</text>
<text x="65" y="1746" fill="#212121" font-size="11" font-family="MS Sans Serif" >2</text>
</svg>
