<svg class="main-svg" xmlns="http://www.w3.org/2000/svg" xmlns:xlink="http://www.w3.org/1999/xlink" width="700" height="500" style="" viewBox="0 0 700 500"><rect x="0" y="0" width="700" height="500" style="fill: rgb(255, 255, 255); fill-opacity: 1;"/><defs id="defs-1d602c"><g class="clips"><clipPath id="clip1d602cxyplot" class="plotclip"><rect width="462" height="320"/></clipPath><clipPath class="axesclip" id="clip1d602cx"><rect x="80" y="0" width="462" height="500"/></clipPath><clipPath class="axesclip" id="clip1d602cy"><rect x="0" y="100" width="700" height="320"/></clipPath><clipPath class="axesclip" id="clip1d602cxy"><rect x="80" y="100" width="462" height="320"/></clipPath></g><g class="gradients"/></defs><g class="bglayer"><rect class="bg" x="80" y="100" width="462" height="320" style="fill: rgb(229, 236, 246); fill-opacity: 1; stroke-width: 0;"/></g><g class="layer-below"><g class="imagelayer"/><g class="shapelayer"/></g><g class="cartesianlayer"><g class="subplot xy"><g class="layer-subplot"><g class="shapelayer"/><g class="imagelayer"/></g><g class="gridlayer"><g class="x"><path class="xgrid crisp" transform="translate(170.23000000000002,0)" d="M0,100v320" style="stroke: rgb(255, 255, 255); stroke-opacity: 1; stroke-width: 1px;"/><path class="xgrid crisp" transform="translate(260.47,0)" d="M0,100v320" style="stroke: rgb(255, 255, 255); stroke-opacity: 1; stroke-width: 1px;"/><path class="xgrid crisp" transform="translate(350.7,0)" d="M0,100v320" style="stroke: rgb(255, 255, 255); stroke-opacity: 1; stroke-width: 1px;"/><path class="xgrid crisp" transform="translate(440.94,0)" d="M0,100v320" style="stroke: rgb(255, 255, 255); stroke-opacity: 1; stroke-width: 1px;"/><path class="xgrid crisp" transform="translate(531.1700000000001,0)" d="M0,100v320" style="stroke: rgb(255, 255, 255); stroke-opacity: 1; stroke-width: 1px;"/></g><g class="y"><path class="ygrid crisp" transform="translate(0,360.71)" d="M80,0h462" style="stroke: rgb(255, 255, 255); stroke-opacity: 1; stroke-width: 1px;"/><path class="ygrid crisp" transform="translate(0,275.5)" d="M80,0h462" style="stroke: rgb(255, 255, 255); stroke-opacity: 1; stroke-width: 1px;"/><path class="ygrid crisp" transform="translate(0,190.3)" d="M80,0h462" style="stroke: rgb(255, 255, 255); stroke-opacity: 1; stroke-width: 1px;"/><path class="ygrid crisp" transform="translate(0,105.09)" d="M80,0h462" style="stroke: rgb(255, 255, 255); stroke-opacity: 1; stroke-width: 1px;"/></g></g><g class="zerolinelayer"><path class="xzl zl crisp" transform="translate(80,0)" d="M0,100v320" style="stroke: rgb(255, 255, 255); stroke-opacity: 1; stroke-width: 2px;"/></g><path class="xlines-below"/><path class="ylines-below"/><g class="overlines-below"/><g class="xaxislayer-below"/><g class="yaxislayer-below"/><g class="overaxes-below"/><g class="plot" transform="translate(80, 100)" clip-path="url('#clip1d602cxyplot')"><g class="scatterlayer mlayer"><g class="trace scatter trace4b069e" style="stroke-miterlimit: 2; opacity: 1;"><g class="fills"/><g class="errorbars"/><g class="lines"><path class="js-line" d="M0,22.17Q0.61,22.23 0.9,22.33C1.21,22.44 1.52,22.62 1.81,22.83C2.13,23.06 2.42,23.35 2.71,23.66C3.03,24.01 3.33,24.4 3.62,24.83C3.94,25.3 4.23,25.81 4.52,26.36C4.83,26.95 5.13,27.6 5.42,28.27C5.73,28.99 6.04,29.76 6.33,30.56C6.64,31.42 6.94,32.33 7.23,33.26C7.54,34.26 7.85,35.3 8.14,36.37C8.45,37.51 8.75,38.69 9.04,39.9C9.35,41.18 9.66,42.51 9.95,43.87C10.26,45.3 10.56,46.77 10.85,48.28C11.16,49.85 11.45,51.47 11.75,53.12C12.06,54.84 12.36,56.61 12.66,58.4C12.97,60.26 13.26,62.16 13.56,64.09C13.87,66.08 14.17,68.12 14.47,70.18C14.78,72.3 15.07,74.46 15.37,76.65C15.67,78.9 15.97,81.18 16.27,83.48C16.58,85.83 16.88,88.22 17.18,90.62C17.48,93.07 17.78,95.55 18.08,98.04C18.38,100.57 18.69,103.12 18.99,105.69C19.29,108.28 19.59,110.9 19.89,113.52C20.19,116.16 20.49,118.81 20.79,121.46C21.09,124.12 21.4,126.78 21.7,129.44C22,132.09 22.3,134.75 22.6,137.39C22.9,140.01 23.21,142.63 23.51,145.22C23.81,147.77 24.1,150.32 24.41,152.83C24.71,155.28 25.01,157.71 25.32,160.09C25.62,162.39 25.91,164.68 26.22,166.89C26.51,169.01 26.81,171.09 27.12,173.09C27.41,174.97 27.72,176.81 28.03,178.55C28.32,180.16 28.61,181.73 28.93,183.19C29.22,184.5 29.51,185.77 29.84,186.92C30.12,187.92 30.4,188.89 30.74,189.69C31.02,190.35 31.29,191 31.64,191.42C31.91,191.74 32.23,192.06 32.55,192.11C32.84,192.15 33.18,191.99 33.45,191.79C33.79,191.54 34.08,191.08 34.36,190.62C34.7,190.07 34.98,189.4 35.26,188.67C35.59,187.79 35.88,186.75 36.16,185.67C36.49,184.42 36.79,183.03 37.07,181.57C37.39,179.9 37.67,178 37.97,176.19C38.27,174.34 38.58,172.45 38.88,170.6C39.18,168.76 39.48,166.92 39.78,165.11C40.08,163.33 40.37,161.56 40.68,159.83C40.98,158.15 41.28,156.5 41.59,154.88C41.89,153.32 42.18,151.79 42.49,150.3C42.78,148.88 43.09,147.49 43.4,146.16C43.69,144.9 43.99,143.68 44.3,142.51C44.59,141.42 44.89,140.36 45.21,139.37C45.5,138.46 45.79,137.59 46.11,136.79C46.4,136.07 46.68,135.39 47.01,134.79C47.29,134.27 47.59,133.77 47.92,133.39C48.2,133.07 48.5,132.76 48.82,132.61C49.11,132.47 49.44,132.4 49.73,132.45C50.04,132.5 50.35,132.69 50.63,132.92C50.96,133.19 51.25,133.6 51.53,134.03C51.86,134.53 52.15,135.14 52.44,135.77C52.76,136.49 53.05,137.29 53.34,138.13C53.66,139.06 53.96,140.06 54.25,141.1C54.57,142.23 54.86,143.43 55.15,144.67C55.46,146 55.76,147.39 56.05,148.81C56.36,150.32 56.67,151.88 56.96,153.48C57.27,155.16 57.56,156.89 57.86,158.64C58.17,160.45 58.47,162.3 58.77,164.17C59.08,166.09 59.37,168.05 59.67,170.03C59.98,172.07 60.28,174.15 60.58,176.26C60.89,178.43 61.18,180.63 61.48,182.85C61.78,185.12 62.08,187.43 62.38,189.74C62.68,192.08 62.99,194.46 63.29,196.82C63.59,199.16 63.89,201.51 64.19,203.84C64.49,206.14 64.8,208.42 65.1,210.71C65.4,212.98 65.7,215.26 66,217.52C66.3,219.78 66.6,222.03 66.9,224.27C67.2,226.5 67.51,228.72 67.81,230.92C68.11,233.09 68.41,235.26 68.71,237.4C69.01,239.51 69.31,241.6 69.62,243.66C69.92,245.67 70.21,247.66 70.52,249.61C70.81,251.49 71.11,253.35 71.42,255.14C71.71,256.83 72.01,258.51 72.33,260.06C72.62,261.45 72.89,262.87 73.23,264.01C73.5,264.92 73.79,265.77 74.14,266.42C74.41,266.91 74.7,267.38 75.04,267.62C75.31,267.82 75.66,267.96 75.95,267.91C76.27,267.85 76.57,267.49 76.85,267.2C77.17,266.87 77.46,266.42 77.75,265.99C78.07,265.52 78.36,264.99 78.66,264.46C78.97,263.91 79.26,263.32 79.56,262.73C79.87,262.12 80.17,261.51 80.47,260.87C80.78,260.21 81.07,259.53 81.37,258.85C81.67,258.15 81.97,257.43 82.27,256.72C82.57,256.01 82.88,255.3 83.18,254.6C83.48,253.9 83.77,253.19 84.08,252.51C84.38,251.84 84.68,251.18 84.99,250.55C85.28,249.95 85.59,249.39 85.89,248.82C86.19,248.25 86.48,247.66 86.79,247.13C87.08,246.63 87.39,246.15 87.7,245.71C87.99,245.3 88.29,244.92 88.6,244.58C88.89,244.27 89.2,243.98 89.51,243.74C89.8,243.51 90.1,243.32 90.41,243.16C90.71,243.01 91.01,242.89 91.32,242.81C91.62,242.73 91.92,242.69 92.22,242.67C92.52,242.65 92.82,242.67 93.12,242.7C93.42,242.73 93.73,242.78 94.03,242.83C94.33,242.88 94.63,242.94 94.93,242.98C95.23,243.03 95.54,243.09 95.84,243.1C96.14,243.11 96.45,243.11 96.74,243.03C97.05,242.95 97.35,242.8 97.64,242.61C97.96,242.39 98.26,242.08 98.55,241.76C98.87,241.4 99.16,240.97 99.45,240.54C99.76,240.08 100.06,239.58 100.36,239.09C100.67,238.58 100.96,238.05 101.26,237.54C101.56,237.03 101.86,236.51 102.16,236.01C102.46,235.51 102.77,235.02 103.07,234.53C103.37,234.05 103.67,233.57 103.97,233.11C104.27,232.66 104.58,232.22 104.88,231.78C105.18,231.33 105.48,230.88 105.78,230.44C106.08,230 106.38,229.58 106.68,229.15C106.98,228.72 107.29,228.3 107.59,227.85C107.9,227.39 108.19,226.9 108.49,226.42C108.79,225.93 109.1,225.43 109.4,224.93C109.7,224.42 110,223.89 110.3,223.37C110.6,222.86 110.9,222.33 111.21,221.85C111.5,221.4 111.8,220.96 112.11,220.57C112.4,220.2 112.7,219.88 113.01,219.56C113.31,219.26 113.6,218.94 113.92,218.71C114.21,218.51 114.51,218.32 114.82,218.24C115.11,218.16 115.43,218.15 115.73,218.21C116.04,218.27 116.34,218.43 116.63,218.62C116.95,218.83 117.24,219.13 117.53,219.46C117.85,219.83 118.15,220.27 118.44,220.74C118.76,221.25 119.05,221.83 119.34,222.43C119.66,223.08 119.96,223.78 120.25,224.51C120.56,225.29 120.86,226.11 121.15,226.96C121.46,227.85 121.75,228.79 122.05,229.74C122.36,230.73 122.66,231.76 122.96,232.8C123.27,233.88 123.56,234.99 123.86,236.1C124.17,237.24 124.47,238.41 124.77,239.57C125.07,240.75 125.37,241.94 125.67,243.13C125.97,244.32 126.28,245.52 126.58,246.71C126.88,247.88 127.17,249.06 127.48,250.2C127.78,251.3 128.07,252.41 128.38,253.45C128.67,254.41 128.94,255.45 129.29,256.22C129.56,256.81 129.85,257.33 130.19,257.72C130.47,258.04 130.78,258.3 131.1,258.47C131.39,258.62 131.7,258.73 132,258.71C132.3,258.69 132.61,258.53 132.9,258.35C133.22,258.15 133.52,257.85 133.81,257.55C134.12,257.22 134.41,256.81 134.71,256.45C135.01,256.09 135.31,255.72 135.62,255.38C135.92,255.05 136.22,254.72 136.52,254.41C136.82,254.11 137.12,253.82 137.42,253.54C137.72,253.26 138.03,253.01 138.33,252.74C138.63,252.47 138.93,252.2 139.23,251.91C139.54,251.6 139.84,251.28 140.14,250.94C140.45,250.59 140.74,250.22 141.04,249.86C141.34,249.51 141.64,249.15 141.95,248.81C142.25,248.48 142.54,248.16 142.85,247.87C143.14,247.6 143.44,247.34 143.75,247.12C144.04,246.92 144.35,246.73 144.66,246.6C144.95,246.48 145.26,246.38 145.56,246.34C145.86,246.3 146.17,246.29 146.47,246.34C146.77,246.39 147.08,246.49 147.37,246.63C147.68,246.78 147.98,247 148.27,247.24C148.59,247.51 148.89,247.84 149.18,248.2C149.5,248.6 149.79,249.06 150.08,249.55C150.4,250.08 150.7,250.66 150.99,251.27C151.3,251.93 151.6,252.63 151.89,253.36C152.2,254.14 152.5,254.95 152.79,255.79C153.1,256.68 153.4,257.6 153.7,258.54C154.01,259.52 154.3,260.53 154.6,261.55C154.91,262.6 155.21,263.67 155.51,264.75C155.81,265.84 156.11,266.96 156.41,268.06C156.71,269.16 157.01,270.27 157.32,271.36C157.62,272.42 157.91,273.49 158.22,274.5C158.51,275.46 158.81,276.4 159.12,277.29C159.41,278.13 159.71,278.96 160.03,279.7C160.32,280.36 160.6,281.01 160.93,281.53C161.21,281.96 161.51,282.38 161.84,282.64C162.12,282.86 162.43,283 162.74,283.08C163.03,283.16 163.34,283.16 163.64,283.13C163.95,283.1 164.25,283 164.55,282.88C164.86,282.76 165.16,282.58 165.45,282.39C165.76,282.19 166.07,281.94 166.36,281.68C166.67,281.4 166.97,281.11 167.26,280.77C167.58,280.4 167.87,279.97 168.16,279.51C168.48,278.99 168.77,278.37 169.07,277.78C169.38,277.17 169.67,276.54 169.97,275.9C170.28,275.23 170.59,274.56 170.88,273.85C171.19,273.11 171.49,272.36 171.78,271.55C172.09,270.67 172.39,269.73 172.68,268.75C173,267.68 173.3,266.55 173.59,265.39C173.9,264.16 174.19,262.88 174.49,261.59C174.8,260.27 175.1,258.93 175.4,257.57C175.71,256.17 176,254.76 176.3,253.31C176.61,251.81 176.91,250.27 177.21,248.73C177.52,247.15 177.81,245.55 178.11,243.94C178.41,242.32 178.71,240.67 179.01,239.04C179.31,237.4 179.62,235.76 179.92,234.13C180.22,232.51 180.52,230.89 180.82,229.29C181.12,227.71 181.43,226.14 181.73,224.59C182.03,223.07 182.33,221.55 182.63,220.06C182.93,218.6 183.22,217.16 183.53,215.74C183.83,214.36 184.13,213 184.44,211.66C184.74,210.37 185.03,209.1 185.34,207.85C185.64,206.65 185.94,205.46 186.25,204.31C186.55,203.21 186.84,202.13 187.15,201.09C187.44,200.1 187.74,199.13 188.05,198.2C188.34,197.33 188.65,196.48 188.96,195.67C189.25,194.92 189.54,194.19 189.86,193.51C190.15,192.89 190.45,192.29 190.77,191.75C191.06,191.26 191.35,190.8 191.67,190.41C191.96,190.06 192.26,189.74 192.58,189.51C192.87,189.31 193.17,189.13 193.48,189.06C193.77,188.99 194.09,189 194.38,189.08C194.69,189.16 195,189.36 195.29,189.58C195.61,189.84 195.91,190.19 196.19,190.57C196.51,191 196.81,191.52 197.1,192.06C197.42,192.67 197.71,193.34 198,194.05C198.32,194.83 198.61,195.67 198.9,196.55C199.22,197.5 199.52,198.51 199.81,199.55C200.12,200.67 200.42,201.84 200.71,203.05C201.02,204.33 201.33,205.66 201.62,207.03C201.93,208.47 202.23,209.96 202.52,211.48C202.83,213.07 203.12,214.71 203.42,216.37C203.73,218.1 204.03,219.88 204.33,221.68C204.64,223.54 204.93,225.44 205.23,227.36C205.54,229.33 205.84,231.34 206.14,233.35C206.44,235.4 206.74,237.48 207.04,239.55C207.34,241.64 207.65,243.74 207.95,245.85C208.25,247.99 208.55,250.14 208.85,252.3C209.15,254.49 209.45,256.69 209.75,258.9C210.05,261.12 210.36,263.37 210.66,265.6C210.96,267.83 211.26,270.07 211.56,272.29C211.86,274.49 212.16,276.69 212.47,278.85C212.77,280.95 213.06,283.05 213.37,285.08C213.66,287.02 213.96,288.94 214.27,290.78C214.56,292.5 214.86,294.2 215.18,295.77C215.47,297.19 215.75,298.58 216.08,299.79C216.36,300.81 216.63,301.83 216.99,302.59C217.26,303.16 217.54,303.91 217.89,304C218.16,304.07 218.53,303.8 218.79,303.51C219.2,303.05 219.42,302.05 219.7,301.16C220.04,300.06 220.31,298.71 220.6,297.39C220.92,295.95 221.22,294.4 221.51,292.84C221.82,291.19 222.11,289.48 222.41,287.74C222.72,285.93 223.02,284.05 223.32,282.2C223.62,280.34 223.92,278.47 224.22,276.62C224.52,274.78 224.82,272.94 225.12,271.11C225.42,269.3 225.73,267.5 226.03,265.71C226.33,263.93 226.63,262.18 226.93,260.39C227.23,258.58 227.54,256.74 227.84,254.92C228.14,253.11 228.44,251.32 228.74,249.52C229.04,247.73 229.34,245.95 229.64,244.16C229.94,242.37 230.25,240.59 230.55,238.79C230.85,236.97 231.15,235.14 231.45,233.29C231.75,231.4 232.06,229.49 232.36,227.56C232.67,225.58 232.96,223.57 233.26,221.54C233.56,219.46 233.86,217.35 234.16,215.22C234.47,213.03 234.77,210.82 235.07,208.57C235.38,206.26 235.67,203.92 235.97,201.54C236.28,199.08 236.58,196.58 236.88,194.05C237.19,191.44 237.48,188.8 237.78,186.12C238.08,183.36 238.38,180.56 238.68,177.72C238.99,174.81 239.29,171.86 239.59,168.87C239.9,165.81 240.19,162.74 240.49,159.57C240.8,156.26 241.1,152.83 241.4,149.4C241.71,145.89 242,142.31 242.3,138.75C242.6,135.16 242.91,131.55 243.21,127.94C243.51,124.33 243.81,120.71 244.11,117.11C244.41,113.53 244.71,109.95 245.01,106.4C245.31,102.88 245.62,99.37 245.92,95.9C246.22,92.48 246.52,89.07 246.82,85.7C247.12,82.4 247.42,79.13 247.73,75.9C248.03,72.75 248.33,69.64 248.63,66.58C248.93,63.62 249.22,60.69 249.53,57.83C249.83,55.08 250.13,52.37 250.44,49.74C250.73,47.23 251.03,44.75 251.34,42.37C251.63,40.12 251.94,37.92 252.25,35.81C252.54,33.84 252.84,31.92 253.15,30.1C253.44,28.43 253.73,26.81 254.05,25.31C254.34,23.96 254.63,22.65 254.96,21.47C255.24,20.45 255.52,19.46 255.86,18.63C256.14,17.94 256.42,17.26 256.77,16.8C257.04,16.45 257.35,16.08 257.67,16C257.96,15.93 258.31,16.05 258.58,16.24C258.93,16.48 259.21,17.01 259.48,17.52C259.82,18.16 260.1,18.98 260.38,19.82C260.71,20.81 261,21.94 261.29,23.12C261.61,24.45 261.9,25.89 262.19,27.39C262.51,29.04 262.81,30.79 263.1,32.6C263.41,34.55 263.71,36.59 264,38.68C264.31,40.91 264.61,43.23 264.9,45.59C265.21,48.08 265.51,50.64 265.81,53.25C266.12,55.97 266.41,58.75 266.71,61.57C267.02,64.48 267.32,67.46 267.62,70.46C267.93,73.54 268.22,76.67 268.52,79.81C268.82,83.01 269.12,86.25 269.42,89.49C269.72,92.76 270.03,96.07 270.33,99.36C270.63,102.65 270.93,105.97 271.23,109.25C271.53,112.51 271.84,115.78 272.14,119C272.44,122.17 272.73,125.33 273.04,128.43C273.34,131.45 273.64,134.45 273.95,137.38C274.25,140.2 274.54,142.98 274.85,145.68C275.14,148.26 275.44,150.8 275.75,153.24C276.04,155.54 276.35,157.79 276.66,159.93C276.95,161.91 277.24,163.84 277.56,165.64C277.85,167.27 278.14,168.85 278.47,170.27C278.75,171.5 279.04,172.67 279.37,173.68C279.65,174.52 279.94,175.27 280.27,175.93C280.55,176.49 280.85,176.98 281.18,177.4C281.46,177.76 281.76,178.08 282.08,178.33C282.37,178.56 282.68,178.73 282.99,178.88C283.28,179.02 283.59,179.1 283.89,179.19C284.19,179.28 284.49,179.32 284.79,179.4C285.09,179.48 285.4,179.54 285.7,179.67C286.01,179.8 286.31,179.96 286.6,180.18C286.92,180.43 287.23,180.75 287.51,181.12C287.84,181.55 288.13,182.06 288.41,182.62C288.74,183.27 289.04,184.02 289.32,184.81C289.64,185.71 289.93,186.71 290.22,187.76C290.54,188.93 290.83,190.19 291.12,191.51C291.44,192.96 291.74,194.51 292.03,196.11C292.34,197.84 292.64,199.66 292.93,201.54C293.24,203.55 293.55,205.65 293.84,207.8C294.15,210.07 294.45,212.43 294.74,214.82C295.05,217.31 295.34,219.88 295.64,222.47C295.95,225.13 296.25,227.85 296.55,230.58C296.86,233.37 297.15,236.22 297.45,239.06C297.75,241.91 298.06,244.81 298.36,247.65C298.66,250.44 298.95,253.22 299.26,255.93C299.55,258.54 299.85,261.13 300.16,263.61C300.45,265.95 300.76,268.24 301.07,270.42C301.36,272.45 301.63,274.53 301.97,276.27C302.25,277.69 302.52,279.04 302.88,280.1C303.15,280.89 303.4,281.98 303.78,282.09C304.04,282.17 304.42,281.84 304.68,281.53C305.07,281.07 305.32,280.18 305.59,279.31C305.95,278.14 306.21,276.64 306.49,275.11C306.82,273.29 307.12,271.25 307.4,269.1C307.73,266.63 308.01,263.86 308.3,261.13C308.61,258.24 308.91,255.21 309.21,252.21C309.51,249.16 309.81,246.06 310.11,242.98C310.41,239.89 310.71,236.78 311.01,233.71C311.31,230.66 311.62,227.62 311.92,224.62C312.22,221.68 312.51,218.76 312.82,215.9C313.12,213.12 313.42,210.38 313.73,207.7C314.03,205.13 314.32,202.59 314.63,200.13C314.92,197.8 315.22,195.51 315.53,193.31C315.82,191.24 316.13,189.22 316.44,187.29C316.73,185.5 317.02,183.77 317.34,182.14C317.63,180.66 317.93,179.23 318.25,177.91C318.54,176.75 318.82,175.63 319.15,174.64C319.43,173.8 319.71,172.99 320.05,172.35C320.33,171.84 320.61,171.32 320.96,171.06C321.23,170.86 321.57,170.72 321.86,170.77C322.18,170.82 322.5,171.14 322.77,171.46C323.12,171.87 323.39,172.49 323.67,173.12C324.01,173.88 324.3,174.78 324.58,175.72C324.91,176.79 325.19,177.98 325.48,179.21C325.8,180.57 326.09,182.03 326.38,183.54C326.69,185.17 327,186.89 327.29,188.65C327.6,190.53 327.9,192.48 328.19,194.47C328.5,196.56 328.8,198.71 329.1,200.89C329.41,203.15 329.7,205.47 330,207.8C330.3,210.18 330.6,212.64 330.9,215.02C331.2,217.36 331.51,219.67 331.81,221.97C332.11,224.24 332.41,226.49 332.71,228.72C333.01,230.91 333.31,233.1 333.62,235.21C333.92,237.23 334.21,239.25 334.52,241.15C334.81,242.91 335.11,244.6 335.42,246.24C335.71,247.78 336.02,249.24 336.33,250.69C336.63,252.08 336.92,253.42 337.23,254.75C337.53,256.04 337.83,257.33 338.14,258.56C338.43,259.72 338.73,260.84 339.04,261.93C339.33,262.97 339.64,263.97 339.95,264.96C340.25,265.91 340.54,266.84 340.85,267.74C341.14,268.61 341.44,269.47 341.75,270.29C342.05,271.08 342.35,271.86 342.66,272.58C342.95,273.25 343.24,273.9 343.56,274.49C343.85,275.02 344.15,275.53 344.47,275.97C344.76,276.36 345.05,276.74 345.37,277.01C345.65,277.24 345.96,277.42 346.27,277.52C346.56,277.61 346.88,277.65 347.18,277.61C347.49,277.57 347.79,277.43 348.08,277.28C348.39,277.12 348.69,276.91 348.99,276.69C349.3,276.46 349.6,276.19 349.89,275.91C350.2,275.62 350.5,275.31 350.79,274.97C351.1,274.61 351.42,274.26 351.7,273.82C352.03,273.3 352.3,272.62 352.6,272C352.91,271.36 353.22,270.73 353.51,270.05C353.82,269.31 354.11,268.51 354.41,267.72C354.72,266.91 355.02,266.08 355.32,265.25C355.62,264.4 355.93,263.57 356.22,262.67C356.53,261.69 356.83,260.65 357.12,259.59C357.43,258.46 357.73,257.27 358.03,256.06C358.34,254.8 358.63,253.48 358.93,252.17C359.23,250.84 359.54,249.48 359.84,248.13C360.14,246.76 360.44,245.38 360.74,244C361.04,242.61 361.34,241.22 361.64,239.82C361.94,238.41 362.25,237.01 362.55,235.59C362.85,234.15 363.15,232.68 363.45,231.24C363.75,229.81 364.05,228.37 364.36,226.97C364.66,225.6 364.96,224.25 365.26,222.92C365.56,221.63 365.85,220.36 366.16,219.12C366.46,217.91 366.76,216.71 367.07,215.56C367.36,214.46 367.65,213.37 367.97,212.35C368.26,211.41 368.56,210.5 368.88,209.68C369.17,208.95 369.45,208.24 369.78,207.64C370.06,207.13 370.34,206.64 370.68,206.3C370.96,206.02 371.27,205.76 371.59,205.69C371.88,205.63 372.21,205.7 372.49,205.85C372.82,206.03 373.12,206.4 373.4,206.78C373.74,207.24 374.02,207.85 374.3,208.48C374.63,209.21 374.91,210.09 375.21,210.9C375.51,211.73 375.79,212.62 376.11,213.4C376.4,214.11 376.72,214.71 377.01,215.41C377.32,216.16 377.63,216.96 377.92,217.77C378.23,218.62 378.52,219.51 378.82,220.42C379.13,221.37 379.42,222.38 379.73,223.33C380.03,224.24 380.33,225.13 380.63,226.01C380.93,226.87 381.23,227.71 381.53,228.54C381.83,229.35 382.13,230.19 382.44,230.95C382.73,231.65 383.04,232.3 383.34,232.96C383.64,233.61 383.94,234.27 384.25,234.87C384.54,235.42 384.81,236.02 385.15,236.44C385.43,236.78 385.73,237.2 386.05,237.26C386.34,237.32 386.69,237.16 386.96,236.93C387.33,236.61 387.59,235.95 387.86,235.3C388.22,234.44 388.48,233.29 388.77,232.17C389.09,230.91 389.38,229.55 389.67,228.11C389.99,226.48 390.29,224.7 390.58,222.88C390.9,220.91 391.19,218.81 391.48,216.7C391.79,214.49 392.08,212.17 392.38,209.89C392.68,207.58 392.99,205.24 393.29,202.91C393.59,200.58 393.89,198.23 394.19,195.91C394.49,193.6 394.8,191.3 395.1,189.02C395.4,186.78 395.7,184.54 396,182.35C396.3,180.21 396.59,178.1 396.9,176.03C397.2,174.04 397.5,172.07 397.81,170.16C398.1,168.34 398.4,166.55 398.71,164.84C399,163.23 399.31,161.66 399.62,160.16C399.91,158.77 400.2,157.42 400.52,156.17C400.81,155.04 401.1,153.94 401.42,152.95C401.71,152.07 402,151.23 402.33,150.51C402.61,149.91 402.89,149.32 403.23,148.91C403.51,148.58 403.82,148.26 404.14,148.16C404.42,148.08 404.76,148.12 405.04,148.26C405.38,148.43 405.67,148.82 405.95,149.21C406.29,149.69 406.57,150.34 406.85,151.01C407.18,151.79 407.46,152.69 407.75,153.63C408.07,154.69 408.37,155.84 408.66,157.04C408.98,158.35 409.27,159.76 409.56,161.2C409.87,162.76 410.18,164.39 410.47,166.07C410.78,167.85 411.08,169.7 411.37,171.58C411.68,173.56 411.97,175.6 412.27,177.67C412.58,179.82 412.88,182.02 413.18,184.24C413.49,186.53 413.78,188.87 414.08,191.21C414.38,193.6 414.69,196.03 414.99,198.44C415.29,200.86 415.58,203.34 415.89,205.71C416.18,207.99 416.48,210.2 416.79,212.41C417.09,214.57 417.39,216.71 417.7,218.81C418,220.84 418.29,222.85 418.6,224.79C418.89,226.63 419.19,228.45 419.51,230.16C419.8,231.72 420.09,233.26 420.41,234.64C420.69,235.85 421,236.98 421.32,238.03C421.61,238.96 421.91,239.82 422.22,240.65C422.51,241.41 422.81,242.12 423.12,242.81C423.41,243.45 423.72,244.06 424.03,244.64C424.32,245.19 424.62,245.72 424.93,246.21C425.22,246.68 425.53,247.11 425.84,247.53C426.14,247.94 426.44,248.32 426.74,248.7C427.04,249.07 427.32,249.48 427.64,249.77C427.93,250.02 428.24,250.23 428.55,250.36C428.84,250.48 429.15,250.55 429.45,250.57C429.75,250.59 430.06,250.54 430.36,250.47C430.67,250.4 430.96,250.26 431.26,250.13C431.56,249.99 431.86,249.82 432.16,249.65C432.46,249.48 432.77,249.28 433.07,249.11C433.37,248.94 433.66,248.76 433.97,248.63C434.27,248.5 434.57,248.38 434.88,248.32C435.18,248.26 435.48,248.22 435.78,248.24C436.08,248.26 436.38,248.33 436.68,248.43C436.99,248.53 437.29,248.69 437.59,248.86C437.9,249.03 438.2,249.24 438.49,249.46C438.8,249.69 439.1,249.96 439.4,250.23C439.71,250.51 440,250.82 440.3,251.14C440.61,251.47 440.91,251.81 441.21,252.16C441.51,252.51 441.81,252.87 442.11,253.22C442.41,253.57 442.7,253.93 443.01,254.26C443.31,254.58 443.61,254.91 443.92,255.18C444.21,255.43 444.5,255.68 444.82,255.84C445.11,255.98 445.42,256.08 445.73,256.11C446.03,256.14 446.34,256.12 446.63,256.03C446.94,255.94 447.24,255.73 447.53,255.54C447.84,255.33 448.15,255.1 448.44,254.81C448.76,254.49 449.05,254.09 449.34,253.68C449.66,253.23 449.95,252.71 450.25,252.21C450.55,251.7 450.85,251.17 451.15,250.65C451.45,250.13 451.75,249.61 452.05,249.11C452.35,248.62 452.65,248.13 452.96,247.66C453.26,247.21 453.55,246.76 453.86,246.34C454.16,245.94 454.46,245.55 454.77,245.19C455.06,244.85 455.36,244.52 455.67,244.23C455.96,243.96 456.27,243.7 456.58,243.49C456.87,243.29 457.17,243.11 457.48,242.97C457.77,242.84 458.08,242.73 458.38,242.67C458.68,242.61 458.99,242.58 459.29,242.58C459.59,242.58 459.89,242.62 460.19,242.68C460.5,242.74 460.8,242.84 461.1,242.95Q461.4,243.06 462,243.33" style="vector-effect: non-scaling-stroke; fill: none; stroke: rgb(0, 100, 80); stroke-opacity: 1; stroke-width: 2px; opacity: 1;"/></g><g class="points"/><g class="text"/></g><g class="trace scatter traceeaf962" style="stroke-miterlimit: 2; opacity: 1;"><g class="fills"/><g class="errorbars"/><g class="lines"><path class="js-line" d="M0,71.46Q0.6,71.37 0.9,71.37C1.2,71.37 1.52,71.37 1.81,71.45C2.12,71.54 2.42,71.71 2.71,71.91C3.03,72.14 3.33,72.44 3.62,72.78C3.94,73.16 4.23,73.61 4.52,74.09C4.84,74.62 5.13,75.22 5.42,75.84C5.74,76.52 6.04,77.25 6.33,78.02C6.65,78.85 6.94,79.74 7.23,80.65C7.54,81.62 7.84,82.65 8.14,83.69C8.45,84.78 8.74,85.91 9.04,87.05C9.35,88.22 9.65,89.41 9.95,90.63C10.26,91.9 10.56,93.2 10.85,94.52C11.16,95.89 11.45,97.3 11.75,98.73C12.06,100.2 12.36,101.7 12.66,103.2C12.96,104.73 13.26,106.3 13.56,107.83C13.86,109.34 14.16,110.86 14.47,112.33C14.77,113.74 15.07,115.1 15.37,116.49C15.67,117.88 15.97,119.27 16.27,120.68C16.57,122.12 16.88,123.56 17.18,125.03C17.49,126.53 17.78,128.05 18.08,129.59C18.38,131.16 18.69,132.75 18.99,134.35C19.29,135.98 19.59,137.63 19.89,139.29C20.19,140.98 20.49,142.68 20.79,144.39C21.09,146.11 21.4,147.84 21.7,149.57C22,151.31 22.3,153.06 22.6,154.79C22.9,156.52 23.21,158.24 23.51,159.95C23.81,161.63 24.1,163.31 24.41,164.95C24.71,166.54 25.01,168.13 25.32,169.66C25.62,171.13 25.91,172.58 26.22,173.97C26.51,175.28 26.81,176.55 27.12,177.76C27.41,178.88 27.71,179.96 28.03,180.96C28.32,181.86 28.61,182.73 28.93,183.51C29.22,184.2 29.51,184.86 29.84,185.4C30.12,185.85 30.4,186.31 30.74,186.56C31.01,186.77 31.34,186.93 31.64,186.92C31.95,186.91 32.27,186.7 32.55,186.47C32.89,186.19 33.17,185.74 33.45,185.3C33.78,184.79 34.07,184.17 34.36,183.54C34.68,182.85 34.97,182.09 35.26,181.31C35.57,180.47 35.87,179.59 36.16,178.67C36.47,177.68 36.78,176.66 37.07,175.55C37.39,174.31 37.68,172.98 37.97,171.58C38.29,170.01 38.59,168.27 38.88,166.55C39.19,164.74 39.48,162.84 39.78,160.97C40.08,159.07 40.38,157.13 40.68,155.22C40.98,153.31 41.29,151.4 41.59,149.51C41.89,147.65 42.18,145.79 42.49,143.97C42.79,142.19 43.09,140.43 43.4,138.71C43.7,137.05 43.99,135.4 44.3,133.81C44.6,132.29 44.9,130.8 45.21,129.36C45.5,128 45.8,126.67 46.11,125.41C46.4,124.24 46.69,123.09 47.01,122.03C47.3,121.06 47.6,120.12 47.92,119.28C48.2,118.53 48.49,117.81 48.82,117.21C49.1,116.7 49.39,116.2 49.73,115.87C50.01,115.6 50.32,115.34 50.63,115.28C50.92,115.23 51.25,115.32 51.53,115.48C51.87,115.68 52.16,116.08 52.44,116.49C52.78,116.99 53.06,117.63 53.34,118.3C53.67,119.08 53.96,119.97 54.25,120.9C54.57,121.94 54.86,123.09 55.15,124.27C55.47,125.57 55.76,126.95 56.05,128.37C56.36,129.89 56.67,131.49 56.96,133.12C57.27,134.84 57.56,136.62 57.86,138.43C58.17,140.32 58.47,142.26 58.77,144.23C59.08,146.27 59.37,148.35 59.67,150.47C59.98,152.66 60.28,154.89 60.58,157.16C60.89,159.5 61.18,161.89 61.48,164.3C61.78,166.78 62.08,169.31 62.38,171.86C62.69,174.47 62.99,177.12 63.29,179.78C63.59,182.49 63.89,185.23 64.19,187.97C64.49,190.74 64.8,193.53 65.1,196.31C65.4,199.09 65.7,201.89 66,204.67C66.3,207.45 66.6,210.24 66.9,213.01C67.2,215.78 67.51,218.55 67.81,221.29C68.11,223.99 68.4,226.71 68.71,229.32C69,231.81 69.3,234.3 69.62,236.6C69.91,238.67 70.21,240.59 70.52,242.48C70.81,244.24 71.11,245.93 71.42,247.57C71.71,249.11 72.01,250.62 72.33,252.03C72.62,253.31 72.9,254.57 73.23,255.67C73.51,256.6 73.79,257.51 74.14,258.21C74.41,258.76 74.69,259.28 75.04,259.59C75.31,259.84 75.64,260 75.95,260.05C76.24,260.09 76.56,260 76.85,259.9C77.16,259.79 77.46,259.59 77.75,259.4C78.06,259.2 78.37,258.96 78.66,258.7C78.97,258.42 79.27,258.11 79.56,257.78C79.87,257.43 80.17,257.03 80.47,256.63C80.78,256.22 81.07,255.77 81.37,255.34C81.67,254.92 81.96,254.49 82.27,254.08C82.57,253.69 82.87,253.3 83.18,252.94C83.47,252.6 83.77,252.28 84.08,252C84.37,251.73 84.68,251.48 84.99,251.28C85.28,251.1 85.58,250.93 85.89,250.84C86.18,250.75 86.49,250.7 86.79,250.71C87.09,250.72 87.41,250.78 87.7,250.9C88.01,251.02 88.31,251.22 88.6,251.45C88.92,251.7 89.22,252.02 89.51,252.36C89.83,252.73 90.12,253.16 90.41,253.6C90.72,254.08 91.03,254.61 91.32,255.15C91.63,255.72 91.93,256.32 92.22,256.93C92.53,257.56 92.82,258.23 93.12,258.88C93.42,259.54 93.73,260.22 94.03,260.88C94.33,261.53 94.59,262.27 94.93,262.79C95.21,263.2 95.51,263.58 95.84,263.8C96.12,263.98 96.44,264.1 96.74,264.11C97.04,264.12 97.36,264.05 97.64,263.89C97.97,263.7 98.28,263.36 98.55,262.96C98.91,262.44 99.18,261.7 99.45,260.92C99.8,259.93 100.07,258.68 100.36,257.46C100.68,256.11 100.97,254.63 101.26,253.17C101.57,251.65 101.86,250.07 102.16,248.49C102.46,246.89 102.77,245.25 103.07,243.63C103.37,242.01 103.67,240.38 103.97,238.77C104.27,237.19 104.57,235.62 104.88,234.07C105.18,232.56 105.47,231.07 105.78,229.61C106.08,228.2 106.37,226.8 106.68,225.45C106.98,224.15 107.28,222.88 107.59,221.64C107.88,220.46 108.18,219.31 108.49,218.2C108.78,217.15 109.09,216.14 109.4,215.16C109.69,214.24 109.99,213.35 110.3,212.5C110.59,211.7 110.9,210.92 111.21,210.18C111.5,209.5 111.79,208.83 112.11,208.23C112.4,207.68 112.69,207.15 113.01,206.69C113.3,206.28 113.6,205.9 113.92,205.6C114.2,205.34 114.52,205.18 114.82,204.97C115.12,204.76 115.42,204.49 115.73,204.32C116.02,204.16 116.32,204 116.63,203.96C116.93,203.92 117.24,203.97 117.53,204.07C117.85,204.18 118.15,204.4 118.44,204.65C118.76,204.93 119.05,205.31 119.34,205.7C119.66,206.14 119.96,206.65 120.25,207.19C120.57,207.78 120.86,208.43 121.15,209.11C121.46,209.85 121.76,210.64 122.05,211.45C122.36,212.32 122.67,213.23 122.96,214.16C123.27,215.15 123.56,216.17 123.86,217.22C124.17,218.31 124.47,219.45 124.77,220.59C125.08,221.77 125.37,222.99 125.67,224.21C125.98,225.46 126.28,226.74 126.58,228.02C126.88,229.32 127.18,230.63 127.48,231.94C127.78,233.24 128.07,234.56 128.38,235.85C128.68,237.1 128.95,238.46 129.29,239.56C129.57,240.47 129.82,241.4 130.19,242C130.46,242.43 130.79,242.67 131.1,242.95C131.39,243.21 131.69,243.44 132,243.62C132.29,243.79 132.59,243.93 132.9,244.01C133.2,244.09 133.51,244.16 133.81,244.11C134.12,244.06 134.43,243.89 134.71,243.68C135.04,243.44 135.32,243.05 135.62,242.72C135.93,242.38 136.22,242.02 136.52,241.67C136.82,241.33 137.11,240.98 137.42,240.65C137.72,240.33 138.02,240.02 138.33,239.73C138.63,239.45 138.92,239.18 139.23,238.93C139.53,238.69 139.83,238.46 140.14,238.24C140.44,238.02 140.74,237.82 141.04,237.62C141.34,237.41 141.65,237.21 141.95,237.01C142.25,236.81 142.55,236.61 142.85,236.43C143.15,236.26 143.44,236.09 143.75,235.95C144.05,235.82 144.35,235.7 144.66,235.62C144.96,235.54 145.26,235.48 145.56,235.47C145.86,235.46 146.17,235.48 146.47,235.54C146.77,235.6 147.08,235.7 147.37,235.84C147.68,235.99 147.98,236.19 148.27,236.41C148.58,236.65 148.89,236.94 149.18,237.26C149.49,237.6 149.79,237.98 150.08,238.39C150.39,238.83 150.7,239.32 150.99,239.82C151.3,240.36 151.6,240.93 151.89,241.53C152.2,242.17 152.5,242.84 152.79,243.53C153.1,244.26 153.4,245.03 153.7,245.81C154.01,246.63 154.3,247.48 154.6,248.34C154.91,249.24 155.21,250.16 155.51,251.1C155.82,252.07 156.11,253.07 156.41,254.08C156.72,255.11 157.02,256.16 157.32,257.21C157.62,258.27 157.92,259.36 158.22,260.43C158.52,261.49 158.81,262.59 159.12,263.6C159.41,264.53 159.69,265.5 160.03,266.28C160.31,266.93 160.56,267.63 160.93,267.99C161.2,268.25 161.53,268.4 161.84,268.43C162.14,268.46 162.47,268.4 162.74,268.2C163.1,267.94 163.35,267.27 163.64,266.75C163.96,266.17 164.25,265.51 164.55,264.86C164.86,264.19 165.15,263.48 165.45,262.78C165.75,262.07 166.06,261.36 166.36,260.65C166.66,259.94 166.96,259.23 167.26,258.53C167.56,257.84 167.85,257.16 168.16,256.49C168.46,255.84 168.76,255.2 169.07,254.57C169.37,253.96 169.66,253.36 169.97,252.78C170.27,252.22 170.57,251.67 170.88,251.13C171.18,250.61 171.48,250.1 171.78,249.61C172.08,249.13 172.37,248.66 172.68,248.21C172.98,247.77 173.28,247.34 173.59,246.94C173.89,246.55 174.18,246.18 174.49,245.83C174.78,245.5 175.09,245.2 175.4,244.91C175.69,244.64 176,244.4 176.3,244.15C176.6,243.9 176.92,243.69 177.21,243.41C177.52,243.11 177.82,242.78 178.11,242.42C178.42,242.03 178.71,241.58 179.01,241.16C179.31,240.75 179.62,240.35 179.92,239.94C180.22,239.53 180.53,239.14 180.82,238.7C181.13,238.23 181.44,237.72 181.73,237.18C182.05,236.59 182.35,235.99 182.63,235.3C182.95,234.51 183.23,233.58 183.53,232.7C183.84,231.8 184.14,230.88 184.44,229.95C184.75,228.99 185.04,228 185.34,227.02C185.64,226.04 185.94,225.03 186.25,224.06C186.55,223.11 186.85,222.16 187.15,221.24C187.45,220.35 187.74,219.46 188.05,218.61C188.35,217.79 188.65,216.99 188.96,216.22C189.25,215.49 189.55,214.77 189.86,214.09C190.15,213.45 190.46,212.84 190.77,212.27C191.06,211.74 191.35,211.23 191.67,210.78C191.96,210.36 192.26,209.97 192.58,209.64C192.87,209.34 193.16,209.07 193.48,208.88C193.77,208.71 194.07,208.57 194.38,208.52C194.68,208.47 195,208.48 195.29,208.56C195.6,208.64 195.9,208.82 196.19,209.02C196.51,209.25 196.81,209.56 197.1,209.9C197.42,210.28 197.71,210.73 198,211.2C198.32,211.72 198.61,212.3 198.9,212.91C199.22,213.57 199.52,214.28 199.81,215.02C200.12,215.82 200.42,216.66 200.71,217.53C201.02,218.46 201.33,219.42 201.62,220.42C201.93,221.47 202.23,222.56 202.52,223.68C202.83,224.85 203.12,226.05 203.42,227.28C203.73,228.56 204.03,229.89 204.33,231.23C204.64,232.63 204.93,234.06 205.23,235.51C205.54,237.01 205.84,238.54 206.14,240.09C206.45,241.68 206.74,243.31 207.04,244.95C207.35,246.63 207.65,248.33 207.95,250.04C208.25,251.77 208.55,253.52 208.85,255.27C209.15,257.03 209.45,258.8 209.75,260.55C210.05,262.29 210.36,264.02 210.66,265.73C210.96,267.4 211.25,269.08 211.56,270.7C211.86,272.26 212.15,273.84 212.47,275.28C212.76,276.57 213.04,277.82 213.37,278.94C213.65,279.9 213.93,280.82 214.27,281.59C214.55,282.22 214.81,282.9 215.18,283.25C215.45,283.51 215.79,283.74 216.08,283.7C216.4,283.65 216.71,283.22 216.99,282.86C217.33,282.41 217.61,281.77 217.89,281.14C218.22,280.4 218.5,279.56 218.79,278.69C219.11,277.71 219.41,276.65 219.7,275.55C220.02,274.35 220.31,273.05 220.6,271.74C220.91,270.36 221.21,268.91 221.51,267.46C221.82,265.96 222.11,264.42 222.41,262.89C222.71,261.33 223.02,259.76 223.32,258.19C223.62,256.63 223.92,255.05 224.22,253.51C224.52,251.99 224.81,250.48 225.12,249.01C225.42,247.59 225.72,246.19 226.03,244.84C226.32,243.56 226.62,242.3 226.93,241.09C227.22,239.95 227.53,238.85 227.84,237.79C228.13,236.8 228.43,235.86 228.74,234.93C229.03,234.05 229.34,233.2 229.64,232.35C229.94,231.51 230.25,230.67 230.55,229.84C230.85,229.02 231.15,228.2 231.45,227.39C231.75,226.59 232.06,225.81 232.36,225.01C232.66,224.2 232.96,223.39 233.26,222.56C233.57,221.7 233.87,220.83 234.16,219.92C234.47,218.97 234.78,218 235.07,216.99C235.38,215.93 235.68,214.85 235.97,213.73C236.28,212.54 236.59,211.32 236.88,210.05C237.19,208.7 237.49,207.3 237.78,205.84C238.09,204.27 238.39,202.64 238.68,200.93C239,199.07 239.3,197.12 239.59,195.1C239.9,192.92 240.2,190.66 240.49,188.28C240.81,185.67 241.11,182.93 241.4,180.08C241.72,176.98 242,173.64 242.3,170.36C242.61,167.01 242.91,163.6 243.21,160.2C243.51,156.76 243.81,153.29 244.11,149.83C244.41,146.37 244.71,142.89 245.01,139.43C245.31,135.99 245.62,132.55 245.92,129.15C246.22,125.79 246.52,122.44 246.82,119.13C247.12,115.89 247.42,112.67 247.73,109.51C248.03,106.43 248.32,103.37 248.63,100.38C248.93,97.49 249.22,94.64 249.53,91.86C249.83,89.19 250.13,86.57 250.44,84.03C250.73,81.61 251.03,79.24 251.34,76.96C251.63,74.81 251.94,72.72 252.25,70.72C252.54,68.87 252.84,67.07 253.15,65.37C253.44,63.82 253.73,62.32 254.05,60.93C254.34,59.69 254.63,58.51 254.96,57.44C255.24,56.51 255.53,55.63 255.86,54.88C256.14,54.25 256.43,53.66 256.77,53.22C257.04,52.87 257.34,52.53 257.67,52.4C257.95,52.29 258.29,52.28 258.58,52.37C258.9,52.46 259.2,52.74 259.48,53C259.8,53.29 260.09,53.7 260.38,54.07C260.69,54.46 261,54.88 261.29,55.31C261.6,55.77 261.9,56.23 262.19,56.75C262.51,57.33 262.82,57.97 263.1,58.66C263.42,59.45 263.72,60.34 264,61.27C264.32,62.33 264.61,63.48 264.9,64.69C265.22,66.03 265.52,67.47 265.81,68.96C266.13,70.59 266.42,72.31 266.71,74.08C267.02,75.98 267.33,77.97 267.62,80.01C267.93,82.18 268.23,84.43 268.52,86.72C268.83,89.13 269.12,91.6 269.42,94.12C269.73,96.74 270.03,99.42 270.33,102.14C270.64,104.94 270.93,107.79 271.23,110.67C271.54,113.62 271.84,116.61 272.14,119.62C272.44,122.68 272.74,125.78 273.04,128.88C273.34,132.02 273.65,135.18 273.95,138.34C274.25,141.51 274.55,144.7 274.85,147.88C275.15,151.05 275.45,154.23 275.75,157.39C276.05,160.52 276.36,163.65 276.66,166.75C276.96,169.81 277.25,172.86 277.56,175.86C277.86,178.79 278.15,181.83 278.47,184.54C278.75,186.93 279.05,189.16 279.37,191.28C279.65,193.17 279.94,195.01 280.27,196.64C280.55,198.03 280.81,199.45 281.18,200.49C281.45,201.24 281.69,202.16 282.08,202.37C282.34,202.51 282.73,202.43 282.99,202.25C283.37,201.99 283.61,201.19 283.89,200.57C284.22,199.84 284.49,198.96 284.79,198.12C285.1,197.25 285.39,196.33 285.7,195.45C286,194.6 286.28,193.73 286.6,192.94C286.89,192.22 287.18,191.51 287.51,190.91C287.79,190.4 288.07,189.88 288.41,189.54C288.69,189.26 289,188.99 289.32,188.92C289.61,188.86 289.94,188.92 290.22,189.07C290.55,189.25 290.84,189.62 291.12,190.01C291.46,190.49 291.75,191.12 292.03,191.78C292.36,192.56 292.65,193.47 292.93,194.42C293.25,195.51 293.55,196.7 293.84,197.95C294.16,199.33 294.45,200.82 294.74,202.36C295.05,204.03 295.35,205.8 295.64,207.61C295.95,209.54 296.26,211.56 296.55,213.62C296.86,215.78 297.15,218.02 297.45,220.28C297.76,222.62 298.06,225.02 298.36,227.41C298.66,229.83 298.96,232.3 299.26,234.7C299.56,237.03 299.84,239.39 300.16,241.59C300.45,243.61 300.75,245.57 301.07,247.4C301.36,249.04 301.64,250.65 301.97,252.06C302.25,253.25 302.5,254.51 302.88,255.33C303.14,255.9 303.43,256.53 303.78,256.65C304.05,256.74 304.42,256.6 304.68,256.37C305.07,256.03 305.32,255.21 305.59,254.43C305.96,253.36 306.21,251.89 306.49,250.48C306.81,248.87 307.11,247.08 307.4,245.29C307.71,243.38 308.01,241.4 308.3,239.35C308.61,237.16 308.91,234.82 309.21,232.55C309.51,230.26 309.81,227.95 310.11,225.66C310.41,223.39 310.71,221.13 311.01,218.89C311.31,216.69 311.61,214.49 311.92,212.34C312.22,210.24 312.51,208.16 312.82,206.12C313.12,204.15 313.42,202.21 313.73,200.33C314.03,198.53 314.32,196.75 314.63,195.05C314.92,193.44 315.22,191.87 315.53,190.38C315.82,188.99 316.12,187.64 316.44,186.38C316.73,185.24 317.02,184.13 317.34,183.13C317.63,182.24 317.92,181.39 318.25,180.66C318.53,180.05 318.81,179.45 319.15,179.03C319.42,178.69 319.72,178.35 320.05,178.24C320.33,178.15 320.68,178.19 320.96,178.32C321.29,178.48 321.59,178.86 321.86,179.25C322.2,179.73 322.49,180.38 322.77,181.04C323.1,181.82 323.38,182.71 323.67,183.64C323.99,184.69 324.29,185.84 324.58,187.03C324.9,188.34 325.19,189.73 325.48,191.16C325.79,192.7 326.09,194.32 326.38,195.98C326.69,197.73 327,199.56 327.29,201.41C327.6,203.35 327.89,205.36 328.19,207.39C328.5,209.49 328.8,211.65 329.1,213.82C329.41,216.05 329.7,218.33 330,220.62C330.3,222.94 330.6,225.3 330.9,227.65C331.2,230.01 331.51,232.39 331.81,234.75C332.11,237.08 332.41,239.42 332.71,241.72C333.01,243.97 333.31,246.21 333.62,248.41C333.92,250.54 334.21,252.66 334.52,254.71C334.81,256.67 335.11,258.61 335.42,260.47C335.71,262.22 336.02,263.93 336.33,265.57C336.62,267.1 336.92,268.58 337.23,270C337.52,271.33 337.83,272.62 338.14,273.85C338.43,275 338.73,276.11 339.04,277.18C339.33,278.18 339.64,279.13 339.95,280.06C340.24,280.93 340.54,281.76 340.85,282.58C341.14,283.36 341.44,284.12 341.75,284.86C342.05,285.56 342.35,286.25 342.66,286.9C342.95,287.52 343.25,288.11 343.56,288.68C343.85,289.22 344.15,289.76 344.47,290.23C344.76,290.66 345.03,291.31 345.37,291.41C345.64,291.49 345.99,291.26 346.27,291.07C346.6,290.84 346.89,290.42 347.18,290.04C347.5,289.62 347.78,289.13 348.08,288.66C348.39,288.17 348.69,287.66 348.99,287.15C349.29,286.64 349.59,286.13 349.89,285.6C350.19,285.05 350.49,284.5 350.79,283.92C351.1,283.32 351.4,282.69 351.7,282.06C352.01,281.41 352.3,280.75 352.6,280.07C352.91,279.37 353.22,278.66 353.51,277.92C353.82,277.13 354.12,276.33 354.41,275.46C354.73,274.51 355.03,273.49 355.32,272.43C355.64,271.28 355.93,270.04 356.22,268.79C356.53,267.47 356.83,266.11 357.12,264.71C357.43,263.24 357.74,261.74 358.03,260.19C358.34,258.57 358.64,256.91 358.93,255.19C359.24,253.35 359.55,251.43 359.84,249.46C360.15,247.37 360.44,245.17 360.74,243C361.04,240.81 361.34,238.59 361.64,236.4C361.94,234.22 362.25,232.03 362.55,229.88C362.85,227.76 363.14,225.66 363.45,223.59C363.75,221.58 364.05,219.59 364.36,217.65C364.66,215.79 364.95,213.95 365.26,212.17C365.55,210.48 365.85,208.83 366.16,207.24C366.45,205.75 366.76,204.3 367.07,202.92C367.36,201.65 367.65,200.41 367.97,199.26C368.26,198.22 368.56,197.23 368.88,196.33C369.16,195.55 369.45,194.79 369.78,194.16C370.06,193.63 370.34,193.12 370.68,192.78C370.96,192.51 371.28,192.25 371.59,192.2C371.88,192.15 372.21,192.26 372.49,192.43C372.83,192.64 373.12,193.05 373.4,193.47C373.74,193.97 374.02,194.62 374.3,195.28C374.63,196.04 374.92,196.92 375.21,197.81C375.53,198.78 375.82,199.83 376.11,200.9C376.42,202.04 376.72,203.22 377.01,204.44C377.32,205.74 377.63,207.1 377.92,208.48C378.23,209.94 378.52,211.45 378.82,212.98C379.13,214.57 379.43,216.21 379.73,217.85C380.03,219.51 380.33,221.21 380.63,222.88C380.93,224.53 381.22,226.19 381.53,227.79C381.83,229.33 382.13,230.86 382.44,232.33C382.73,233.72 383.02,235.12 383.34,236.39C383.63,237.53 383.9,238.7 384.25,239.6C384.52,240.3 384.77,241.04 385.15,241.39C385.41,241.63 385.76,241.8 386.05,241.76C386.37,241.72 386.68,241.37 386.96,241.06C387.3,240.67 387.58,240.1 387.86,239.51C388.2,238.79 388.49,237.95 388.77,237.01C389.11,235.84 389.38,234.41 389.67,233.02C389.99,231.5 390.28,229.86 390.58,228.24C390.89,226.56 391.18,224.83 391.48,223.1C391.78,221.34 392.08,219.55 392.38,217.77C392.68,215.97 392.99,214.16 393.29,212.35C393.59,210.54 393.89,208.72 394.19,206.92C394.49,205.13 394.79,203.34 395.1,201.59C395.4,199.88 395.69,198.19 396,196.54C396.29,194.96 396.59,193.4 396.9,191.9C397.19,190.48 397.5,189.08 397.81,187.75C398.1,186.52 398.39,185.31 398.71,184.19C399,183.16 399.3,182.17 399.62,181.26C399.91,180.45 400.19,179.68 400.52,179.01C400.8,178.44 401.08,177.89 401.42,177.48C401.7,177.14 402,176.81 402.33,176.68C402.61,176.56 402.94,176.54 403.23,176.63C403.55,176.73 403.86,177.02 404.14,177.33C404.48,177.71 404.76,178.24 405.04,178.79C405.37,179.43 405.66,180.19 405.95,180.98C406.27,181.87 406.56,182.86 406.85,183.88C407.17,185.01 407.46,186.22 407.75,187.46C408.06,188.81 408.37,190.23 408.66,191.68C408.97,193.23 409.27,194.84 409.56,196.49C409.87,198.22 410.17,200.01 410.47,201.82C410.78,203.7 411.07,205.63 411.37,207.57C411.67,209.56 411.97,211.59 412.27,213.61C412.57,215.66 412.88,217.73 413.18,219.78C413.48,221.81 413.78,223.85 414.08,225.86C414.38,227.85 414.69,229.81 414.99,231.78C415.29,233.75 415.59,235.74 415.89,237.68C416.19,239.58 416.47,241.53 416.79,243.32C417.08,244.96 417.39,246.51 417.7,248.03C417.99,249.47 418.29,250.88 418.6,252.23C418.89,253.49 419.19,254.74 419.51,255.87C419.8,256.87 420.08,257.85 420.41,258.69C420.69,259.41 421,260.04 421.32,260.63C421.6,261.15 421.9,261.63 422.22,262.04C422.5,262.41 422.79,262.79 423.12,263C423.4,263.18 423.74,263.36 424.03,263.31C424.35,263.26 424.63,262.85 424.93,262.6C425.24,262.34 425.54,262.04 425.84,261.75C426.14,261.46 426.44,261.16 426.74,260.85C427.04,260.54 427.34,260.22 427.64,259.9C427.94,259.57 428.25,259.23 428.55,258.89C428.85,258.54 429.15,258.18 429.45,257.82C429.75,257.45 430.06,257.06 430.36,256.68C430.66,256.3 430.96,255.91 431.26,255.53C431.56,255.16 431.85,254.78 432.16,254.43C432.46,254.09 432.76,253.77 433.07,253.47C433.37,253.18 433.68,252.93 433.97,252.63C434.28,252.31 434.59,251.97 434.88,251.6C435.19,251.21 435.47,250.74 435.78,250.34C436.07,249.95 436.37,249.57 436.68,249.22C436.97,248.89 437.28,248.58 437.59,248.3C437.88,248.04 438.18,247.79 438.49,247.58C438.78,247.38 439.09,247.21 439.4,247.07C439.69,246.94 440,246.83 440.3,246.76C440.6,246.69 440.91,246.65 441.21,246.64C441.51,246.63 441.81,246.65 442.11,246.69C442.41,246.73 442.71,246.8 443.01,246.88C443.31,246.96 443.62,247.06 443.92,247.18C444.22,247.3 444.52,247.44 444.82,247.59C445.13,247.74 445.43,247.91 445.73,248.09C446.04,248.28 446.33,248.49 446.63,248.7C446.93,248.92 447.23,249.16 447.53,249.39C447.83,249.63 448.13,249.88 448.44,250.11C448.74,250.33 449.04,250.53 449.34,250.73C449.64,250.92 449.95,251.09 450.25,251.28C450.55,251.47 450.85,251.65 451.15,251.85C451.45,252.06 451.75,252.28 452.05,252.5C452.35,252.73 452.66,252.97 452.96,253.21C453.26,253.46 453.56,253.71 453.86,253.98C454.17,254.25 454.47,254.53 454.77,254.82C455.07,255.11 455.37,255.41 455.67,255.71C455.97,256.02 456.28,256.33 456.58,256.64C456.88,256.95 457.18,257.27 457.48,257.59C457.78,257.9 458.08,258.22 458.38,258.53C458.68,258.84 458.98,259.14 459.29,259.43C459.59,259.71 459.88,260 460.19,260.26C460.49,260.51 460.79,260.76 461.1,260.97Q461.39,261.17 462,261.51" style="vector-effect: non-scaling-stroke; fill: none; stroke: rgb(0, 176, 246); stroke-opacity: 1; stroke-width: 2px; opacity: 1;"/></g><g class="points"/><g class="text"/></g><g class="trace scatter tracee42319" style="stroke-miterlimit: 2; opacity: 1;"><g class="fills"/><g class="errorbars"/><g class="lines"><path class="js-line" d="M0,86.43Q0.62,86.3 0.9,86.13C1.23,85.93 1.53,85.59 1.81,85.24C2.14,84.84 2.42,84.34 2.71,83.83C3.03,83.26 3.33,82.62 3.62,81.97C3.93,81.28 4.23,80.54 4.52,79.79C4.83,79.01 5.12,78.2 5.42,77.39C5.72,76.57 6.03,75.73 6.33,74.9C6.63,74.08 6.92,73.24 7.23,72.43C7.53,71.64 7.83,70.85 8.14,70.1C8.44,69.38 8.73,68.66 9.04,68C9.33,67.38 9.63,66.78 9.95,66.23C10.24,65.73 10.53,65.25 10.85,64.85C11.13,64.5 11.43,64.16 11.75,63.95C12.03,63.76 12.35,63.61 12.66,63.59C12.96,63.57 13.28,63.67 13.56,63.83C13.89,64.02 14.19,64.36 14.47,64.72C14.81,65.16 15.09,65.73 15.37,66.32C15.7,67.01 15.99,67.81 16.27,68.65C16.59,69.61 16.89,70.67 17.18,71.77C17.5,73 17.79,74.32 18.08,75.69C18.4,77.19 18.7,78.78 18.99,80.43C19.3,82.21 19.6,84.08 19.89,86C20.2,88.06 20.5,90.2 20.79,92.39C21.1,94.71 21.41,97.12 21.7,99.58C22.01,102.16 22.3,104.82 22.6,107.53C22.91,110.35 23.21,113.24 23.51,116.17C23.82,119.2 24.11,122.29 24.41,125.41C24.72,128.61 25.02,131.87 25.32,135.14C25.62,138.47 25.92,141.84 26.22,145.21C26.52,148.6 26.82,152.03 27.12,155.43C27.42,158.82 27.73,162.23 28.03,165.6C28.33,168.92 28.62,172.25 28.93,175.51C29.23,178.7 29.53,181.86 29.84,184.95C30.14,187.95 30.43,190.91 30.74,193.79C31.03,196.56 31.33,199.28 31.64,201.92C31.93,204.43 32.24,206.9 32.55,209.26C32.84,211.48 33.13,213.68 33.45,215.69C33.74,217.48 33.99,219.38 34.36,220.76C34.63,221.75 34.86,223.12 35.26,223.25C35.52,223.33 35.9,222.97 36.16,222.64C36.56,222.14 36.79,221.16 37.07,220.3C37.4,219.29 37.68,218.13 37.97,216.95C38.29,215.64 38.59,214.24 38.88,212.79C39.2,211.2 39.49,209.52 39.78,207.77C40.1,205.85 40.39,203.83 40.68,201.71C41,199.38 41.3,196.92 41.59,194.37C41.9,191.61 42.2,188.7 42.49,185.75C42.8,182.65 43.1,179.41 43.4,176.19C43.7,172.9 44,169.54 44.3,166.23C44.6,162.93 44.9,159.61 45.21,156.35C45.51,153.17 45.8,150 46.11,146.91C46.4,143.93 46.7,140.98 47.01,138.13C47.3,135.41 47.61,132.75 47.92,130.18C48.21,127.77 48.51,125.41 48.82,123.17C49.11,121.09 49.41,119.07 49.73,117.17C50.02,115.44 50.31,113.78 50.63,112.24C50.91,110.88 51.2,109.56 51.53,108.4C51.81,107.41 52.1,106.45 52.44,105.67C52.71,105.05 52.98,104.42 53.34,104.06C53.61,103.79 53.95,103.55 54.25,103.56C54.55,103.57 54.88,103.84 55.15,104.13C55.51,104.51 55.77,105.15 56.05,105.77C56.39,106.53 56.68,107.45 56.96,108.41C57.29,109.52 57.57,110.75 57.86,112.03C58.18,113.45 58.48,114.98 58.77,116.55C59.09,118.26 59.38,120.07 59.67,121.93C59.98,123.91 60.29,125.98 60.58,128.09C60.89,130.32 61.19,132.62 61.48,134.96C61.79,137.41 62.08,139.92 62.38,142.47C62.69,145.11 62.99,147.81 63.29,150.54C63.6,153.35 63.89,156.21 64.19,159.09C64.5,162.04 64.8,165.03 65.1,168.04C65.4,171.1 65.7,174.2 66,177.31C66.3,180.45 66.6,183.63 66.9,186.8C67.2,190 67.51,193.22 67.81,196.43C68.11,199.65 68.41,202.88 68.71,206.09C69.01,209.29 69.32,212.51 69.62,215.68C69.92,218.81 70.22,221.94 70.52,225C70.82,227.96 71.11,230.94 71.42,233.74C71.71,236.34 72.01,238.93 72.33,241.26C72.61,243.29 72.9,245.2 73.23,246.96C73.51,248.5 73.82,249.89 74.14,251.26C74.43,252.52 74.73,253.7 75.04,254.86C75.33,255.96 75.64,257.03 75.95,258.07C76.24,259.06 76.54,260.02 76.85,260.95C77.14,261.83 77.44,262.69 77.75,263.5C78.04,264.26 78.34,265 78.66,265.68C78.95,266.3 79.24,266.91 79.56,267.43C79.85,267.9 80.14,268.34 80.47,268.69C80.75,268.99 81.05,269.27 81.37,269.42C81.65,269.55 81.97,269.62 82.27,269.59C82.58,269.56 82.89,269.42 83.18,269.25C83.5,269.07 83.79,268.78 84.08,268.5C84.39,268.2 84.69,267.83 84.99,267.48C85.3,267.11 85.59,266.72 85.89,266.34C86.19,265.96 86.48,265.56 86.79,265.19C87.09,264.83 87.39,264.46 87.7,264.13C88,263.81 88.29,263.5 88.6,263.22C88.89,262.96 89.2,262.71 89.51,262.5C89.8,262.3 90.1,262.12 90.41,261.98C90.71,261.84 91.01,261.73 91.32,261.64C91.62,261.56 91.92,261.5 92.22,261.46C92.52,261.42 92.82,261.4 93.12,261.38C93.42,261.36 93.73,261.37 94.03,261.37C94.33,261.37 94.63,261.38 94.93,261.4C95.23,261.42 95.54,261.43 95.84,261.47C96.14,261.51 96.44,261.55 96.74,261.63C97.04,261.71 97.34,261.8 97.64,261.93C97.95,262.06 98.26,262.23 98.55,262.43C98.86,262.65 99.16,262.91 99.45,263.2C99.77,263.52 100.07,263.88 100.36,264.27C100.68,264.7 100.97,265.17 101.26,265.67C101.57,266.2 101.86,266.78 102.16,267.37C102.47,267.98 102.75,268.69 103.07,269.27C103.36,269.79 103.62,270.61 103.97,270.69C104.24,270.76 104.61,270.44 104.88,270.16C105.24,269.79 105.49,269.08 105.78,268.51C106.09,267.92 106.38,267.3 106.68,266.7C106.98,266.1 107.29,265.51 107.59,264.91C107.89,264.31 108.19,263.72 108.49,263.11C108.79,262.49 109.11,261.87 109.4,261.22C109.71,260.53 110.01,259.82 110.3,259.08C110.61,258.28 110.92,257.45 111.21,256.59C111.52,255.67 111.82,254.7 112.11,253.71C112.42,252.68 112.71,251.6 113.01,250.52C113.32,249.41 113.62,248.26 113.92,247.12C114.22,245.96 114.52,244.79 114.82,243.63C115.12,242.47 115.43,241.3 115.73,240.14C116.03,238.99 116.33,237.85 116.63,236.72C116.93,235.61 117.22,234.51 117.53,233.42C117.83,232.36 118.13,231.31 118.44,230.28C118.74,229.28 119.03,228.28 119.34,227.31C119.64,226.36 119.94,225.43 120.25,224.52C120.55,223.63 120.85,222.76 121.15,221.91C121.45,221.08 121.74,220.27 122.05,219.48C122.35,218.72 122.65,217.97 122.96,217.24C123.26,216.54 123.55,215.84 123.86,215.18C124.16,214.55 124.46,213.93 124.77,213.34C125.06,212.78 125.36,212.24 125.67,211.74C125.96,211.27 126.26,210.81 126.58,210.4C126.87,210.02 127.16,209.67 127.48,209.37C127.77,209.1 128.07,208.86 128.38,208.68C128.67,208.52 128.98,208.38 129.29,208.33C129.59,208.28 129.89,208.29 130.19,208.35C130.5,208.42 130.81,208.56 131.1,208.73C131.41,208.91 131.71,209.16 132,209.43C132.31,209.72 132.61,210.07 132.9,210.43C133.21,210.81 133.51,211.23 133.81,211.65C134.12,212.09 134.41,212.55 134.71,213.01C135.01,213.47 135.32,213.94 135.62,214.39C135.92,214.83 136.21,215.29 136.52,215.7C136.81,216.09 137.11,216.47 137.42,216.81C137.71,217.13 138.02,217.42 138.33,217.68C138.62,217.92 138.92,218.13 139.23,218.31C139.53,218.48 139.83,218.61 140.14,218.74C140.44,218.86 140.74,218.96 141.04,219.06C141.34,219.16 141.65,219.25 141.95,219.35C142.25,219.45 142.55,219.55 142.85,219.68C143.15,219.81 143.45,219.95 143.75,220.11C144.06,220.27 144.36,220.45 144.66,220.65C144.97,220.86 145.26,221.09 145.56,221.33C145.87,221.58 146.17,221.84 146.47,222.12C146.78,222.41 147.07,222.71 147.37,223.02C147.67,223.34 147.97,223.67 148.27,224C148.57,224.34 148.88,224.68 149.18,225.02C149.48,225.36 149.78,225.7 150.08,226.04C150.38,226.38 150.69,226.72 150.99,227.06C151.29,227.39 151.59,227.72 151.89,228.04C152.19,228.36 152.49,228.68 152.79,229C153.09,229.32 153.4,229.63 153.7,229.95C154,230.27 154.3,230.6 154.6,230.94C154.9,231.29 155.21,231.63 155.51,232C155.82,232.38 156.12,232.77 156.41,233.18C156.72,233.61 157.03,234.06 157.32,234.53C157.63,235.03 157.93,235.56 158.22,236.11C158.53,236.69 158.83,237.3 159.12,237.94C159.43,238.62 159.74,239.33 160.03,240.06C160.34,240.84 160.64,241.65 160.93,242.49C161.24,243.38 161.55,244.29 161.84,245.24C162.15,246.23 162.45,247.27 162.74,248.32C163.05,249.43 163.34,250.57 163.64,251.73C163.95,252.94 164.25,254.17 164.55,255.43C164.86,256.73 165.15,258.07 165.45,259.41C165.76,260.79 166.06,262.19 166.36,263.6C166.66,265.03 166.96,266.48 167.26,267.93C167.56,269.38 167.86,270.85 168.16,272.3C168.46,273.74 168.77,275.18 169.07,276.61C169.37,278.01 169.66,279.41 169.97,280.79C170.27,282.13 170.57,283.46 170.88,284.77C171.18,286.04 171.47,287.3 171.78,288.51C172.07,289.66 172.36,290.82 172.68,291.87C172.97,292.82 173.25,293.77 173.59,294.54C173.87,295.16 174.14,295.77 174.49,296.17C174.76,296.48 175.08,296.69 175.4,296.83C175.69,296.95 176,296.98 176.3,296.99C176.6,297 176.91,296.96 177.21,296.91C177.51,296.86 177.81,296.8 178.11,296.7C178.41,296.6 178.72,296.48 179.01,296.31C179.32,296.12 179.64,295.91 179.92,295.6C180.26,295.22 180.55,294.74 180.82,294.14C181.19,293.32 181.46,292.21 181.73,291.04C182.08,289.57 182.34,287.75 182.63,285.97C182.95,284.01 183.23,281.87 183.53,279.76C183.84,277.57 184.14,275.32 184.44,273.07C184.74,270.79 185.04,268.48 185.34,266.17C185.64,263.85 185.95,261.52 186.25,259.2C186.55,256.88 186.85,254.57 187.15,252.26C187.45,249.97 187.75,247.68 188.05,245.41C188.35,243.16 188.66,240.93 188.96,238.71C189.26,236.53 189.56,234.35 189.86,232.21C190.16,230.11 190.46,228.02 190.77,225.96C191.07,223.95 191.36,221.96 191.67,220.01C191.97,218.11 192.27,216.24 192.58,214.4C192.88,212.63 193.17,210.88 193.48,209.18C193.77,207.55 194.07,205.95 194.38,204.4C194.67,202.93 194.98,201.48 195.29,200.1C195.58,198.8 195.88,197.53 196.19,196.33C196.48,195.22 196.78,194.14 197.1,193.14C197.39,192.22 197.68,191.34 198,190.54C198.28,189.84 198.57,189.16 198.9,188.59C199.18,188.1 199.47,187.62 199.81,187.3C200.09,187.03 200.4,186.78 200.71,186.71C201,186.64 201.34,186.7 201.62,186.83C201.95,186.98 202.24,187.31 202.52,187.66C202.86,188.08 203.14,188.64 203.42,189.22C203.75,189.9 204.04,190.69 204.33,191.51C204.65,192.43 204.94,193.45 205.23,194.5C205.55,195.66 205.85,196.91 206.14,198.19C206.45,199.58 206.75,201.05 207.04,202.56C207.35,204.17 207.66,205.86 207.95,207.58C208.26,209.4 208.56,211.29 208.85,213.21C209.16,215.23 209.45,217.31 209.75,219.42C210.06,221.62 210.36,223.89 210.66,226.18C210.97,228.56 211.26,230.98 211.56,233.44C211.87,235.97 212.17,238.55 212.47,241.15C212.78,243.82 213.07,246.52 213.37,249.25C213.67,252.03 213.97,254.85 214.27,257.68C214.57,260.55 214.88,263.45 215.18,266.35C215.48,269.26 215.78,272.2 216.08,275.1C216.38,277.97 216.68,280.9 216.99,283.67C217.28,286.29 217.53,289.17 217.89,291.3C218.16,292.87 218.43,295.31 218.79,295.34C219.06,295.36 219.44,294.13 219.7,293.17C220.15,291.49 220.32,288.53 220.6,285.96C220.92,283.03 221.21,279.74 221.51,276.54C221.82,273.22 222.11,269.78 222.41,266.38C222.71,262.95 223.02,259.48 223.32,256.04C223.62,252.61 223.92,249.18 224.22,245.77C224.52,242.4 224.82,239.04 225.12,235.71C225.42,232.43 225.73,229.17 226.03,225.94C226.33,222.77 226.63,219.61 226.93,216.5C227.23,213.45 227.54,210.42 227.84,207.43C228.14,204.5 228.44,201.59 228.74,198.72C229.04,195.9 229.34,193.12 229.64,190.35C229.94,187.63 230.25,184.94 230.55,182.27C230.85,179.64 231.15,177.03 231.45,174.43C231.75,171.86 232.06,169.31 232.36,166.77C232.66,164.24 232.96,161.73 233.26,159.22C233.56,156.72 233.86,154.23 234.16,151.74C234.46,149.26 234.77,146.78 235.07,144.31C235.37,141.85 235.67,139.39 235.97,136.94C236.27,134.5 236.58,132.07 236.88,129.65C237.18,127.25 237.48,124.85 237.78,122.48C238.08,120.13 238.38,117.8 238.68,115.49C238.98,113.22 239.29,110.96 239.59,108.73C239.89,106.55 240.18,104.39 240.49,102.26C240.79,100.19 241.09,98.13 241.4,96.12C241.7,94.17 241.99,92.25 242.3,90.37C242.6,88.56 242.9,86.78 243.21,85.04C243.51,83.38 243.8,81.75 244.11,80.17C244.4,78.67 244.7,77.2 245.01,75.79C245.3,74.46 245.61,73.17 245.92,71.94C246.21,70.79 246.5,69.68 246.82,68.63C247.11,67.67 247.41,66.74 247.73,65.88C248.02,65.11 248.31,64.37 248.63,63.72C248.91,63.15 249.2,62.59 249.53,62.15C249.81,61.77 250.11,61.41 250.44,61.18C250.72,60.99 251.04,60.83 251.34,60.81C251.64,60.79 251.97,60.89 252.25,61.04C252.57,61.21 252.87,61.52 253.15,61.85C253.48,62.24 253.77,62.73 254.05,63.25C254.37,63.83 254.67,64.5 254.96,65.19C255.28,65.95 255.57,66.79 255.86,67.65C256.17,68.58 256.48,69.56 256.77,70.57C257.08,71.64 257.37,72.77 257.67,73.91C257.98,75.1 258.28,76.33 258.58,77.56C258.89,78.83 259.18,80.13 259.48,81.41C259.78,82.7 260.07,84 260.38,85.27C260.68,86.5 260.98,87.75 261.29,88.92C261.58,90.02 261.87,91.1 262.19,92.1C262.48,93.01 262.78,93.88 263.1,94.67C263.39,95.38 263.69,96.03 264,96.64C264.29,97.2 264.59,97.71 264.9,98.21C265.19,98.69 265.51,99.13 265.81,99.58C266.11,100.03 266.41,100.46 266.71,100.91C267.01,101.37 267.32,101.83 267.62,102.31C267.93,102.81 268.23,103.33 268.52,103.86C268.83,104.41 269.12,104.98 269.42,105.57C269.73,106.18 270.03,106.82 270.33,107.47C270.64,108.14 270.93,108.84 271.23,109.54C271.54,110.26 271.84,111 272.14,111.75C272.44,112.51 272.74,113.29 273.04,114.06C273.34,114.84 273.65,115.63 273.95,116.41C274.25,117.18 274.55,117.96 274.85,118.72C275.15,119.45 275.44,120.19 275.75,120.88C276.04,121.53 276.34,122.17 276.66,122.75C276.95,123.27 277.23,123.79 277.56,124.21C277.84,124.57 278.14,124.92 278.47,125.14C278.75,125.33 279.07,125.47 279.37,125.5C279.67,125.53 279.98,125.46 280.27,125.36C280.58,125.26 280.88,125.06 281.18,124.89C281.48,124.72 281.77,124.5 282.08,124.34C282.38,124.18 282.68,124.01 282.99,123.94C283.28,123.87 283.6,123.84 283.89,123.91C284.2,123.99 284.51,124.18 284.79,124.42C285.12,124.71 285.42,125.13 285.7,125.58C286.03,126.12 286.32,126.79 286.6,127.49C286.93,128.3 287.22,129.22 287.51,130.19C287.83,131.28 288.12,132.47 288.41,133.71C288.73,135.08 289.03,136.54 289.32,138.05C289.63,139.69 289.93,141.41 290.22,143.18C290.53,145.08 290.83,147.06 291.12,149.08C291.43,151.22 291.73,153.43 292.03,155.69C292.34,158.05 292.63,160.48 292.93,162.95C293.24,165.51 293.54,168.13 293.84,170.77C294.15,173.49 294.44,176.26 294.74,179.04C295.04,181.88 295.34,184.77 295.64,187.65C295.94,190.56 296.25,193.5 296.55,196.43C296.85,199.35 297.15,202.3 297.45,205.19C297.75,208.03 298.05,210.89 298.36,213.65C298.66,216.29 298.95,218.92 299.26,221.39C299.55,223.65 299.83,225.88 300.16,227.89C300.44,229.63 300.73,231.31 301.07,232.75C301.35,233.91 301.6,235.05 301.97,235.88C302.24,236.48 302.52,237.19 302.88,237.34C303.15,237.45 303.52,237.34 303.78,237.13C304.16,236.83 304.41,236.03 304.68,235.34C305.03,234.45 305.31,233.32 305.59,232.19C305.91,230.9 306.2,229.47 306.49,228.02C306.8,226.46 307.1,224.8 307.4,223.14C307.71,221.41 308,219.61 308.3,217.82C308.6,216 308.91,214.15 309.21,212.31C309.51,210.48 309.81,208.63 310.11,206.81C310.41,205.02 310.7,203.22 311.01,201.47C311.31,199.77 311.61,198.09 311.92,196.45C312.22,194.88 312.51,193.33 312.82,191.85C313.11,190.45 313.42,189.09 313.73,187.79C314.02,186.59 314.31,185.42 314.63,184.34C314.92,183.36 315.21,182.42 315.53,181.57C315.81,180.83 316.11,180.11 316.44,179.52C316.72,179.03 317,178.54 317.34,178.24C317.62,177.99 317.94,177.77 318.25,177.75C318.55,177.73 318.87,177.87 319.15,178.07C319.49,178.31 319.77,178.75 320.05,179.19C320.39,179.73 320.68,180.41 320.96,181.12C321.29,181.94 321.57,182.87 321.86,183.83C322.18,184.91 322.48,186.09 322.77,187.31C323.09,188.64 323.38,190.06 323.67,191.52C323.98,193.09 324.29,194.74 324.58,196.43C324.89,198.22 325.19,200.09 325.48,201.99C325.79,203.98 326.08,206.04 326.38,208.13C326.69,210.31 326.99,212.54 327.29,214.8C327.6,217.13 327.89,219.5 328.19,221.89C328.49,224.33 328.8,226.81 329.1,229.29C329.4,231.79 329.7,234.32 330,236.81C330.3,239.27 330.59,241.75 330.9,244.14C331.2,246.42 331.49,248.69 331.81,250.82C332.1,252.78 332.39,254.66 332.71,256.44C333,258.06 333.31,259.58 333.62,261.07C333.91,262.48 334.22,263.81 334.52,265.17C334.82,266.5 335.12,267.81 335.42,269.14C335.72,270.48 336.03,271.82 336.33,273.18C336.63,274.57 336.93,275.96 337.23,277.38C337.54,278.83 337.84,280.3 338.14,281.78C338.44,283.29 338.72,284.91 339.04,286.34C339.33,287.62 339.47,289.35 339.95,289.95C340.2,290.26 340.55,290.26 340.85,290.39C341.15,290.52 341.45,290.73 341.75,290.75C342.05,290.77 342.39,290.71 342.66,290.52C343.01,290.27 343.26,289.63 343.56,289.19C343.86,288.75 344.16,288.28 344.47,287.87C344.76,287.48 345.07,287.14 345.37,286.77C345.67,286.4 345.98,286.06 346.27,285.65C346.59,285.19 346.9,284.69 347.18,284.12C347.51,283.45 347.79,282.67 348.08,281.87C348.4,280.99 348.69,280.02 348.99,279.07C349.3,278.1 349.59,277.1 349.89,276.13C350.19,275.18 350.48,274.23 350.79,273.31C351.09,272.43 351.39,271.56 351.7,270.73C351.99,269.95 352.29,269.19 352.6,268.47C352.89,267.79 353.2,267.14 353.51,266.52C353.8,265.94 354.1,265.38 354.41,264.86C354.7,264.37 355.01,263.91 355.32,263.47C355.61,263.05 355.91,262.66 356.22,262.28C356.52,261.91 356.82,261.57 357.12,261.21C357.42,260.85 357.74,260.51 358.03,260.11C358.35,259.68 358.65,259.23 358.93,258.69C359.26,258.06 359.56,257.33 359.84,256.54C360.17,255.61 360.45,254.53 360.74,253.46C361.05,252.31 361.34,251.06 361.64,249.85C361.94,248.63 362.24,247.39 362.55,246.18C362.85,245 363.14,243.82 363.45,242.69C363.75,241.61 364.05,240.55 364.36,239.53C364.65,238.57 364.95,237.63 365.26,236.75C365.55,235.93 365.84,235.14 366.16,234.41C366.45,233.74 366.75,233.1 367.07,232.52C367.36,232 367.65,231.51 367.97,231.1C368.26,230.73 368.56,230.39 368.88,230.14C369.17,229.91 369.47,229.72 369.78,229.62C370.07,229.52 370.38,229.49 370.68,229.52C370.99,229.55 371.3,229.66 371.59,229.81C371.9,229.97 372.2,230.2 372.49,230.45C372.81,230.72 373.11,231.05 373.4,231.39C373.71,231.75 374.01,232.16 374.3,232.58C374.61,233.02 374.91,233.48 375.21,233.95C375.51,234.43 375.81,234.93 376.11,235.41C376.41,235.89 376.7,236.38 377.01,236.82C377.3,237.23 377.6,237.66 377.92,237.98C378.2,238.26 378.5,238.56 378.82,238.65C379.11,238.73 379.45,238.72 379.73,238.59C380.06,238.44 380.35,238.06 380.63,237.69C380.97,237.24 381.25,236.63 381.53,236.02C381.85,235.32 382.15,234.53 382.44,233.72C382.76,232.83 383.05,231.88 383.34,230.9C383.65,229.86 383.96,228.76 384.25,227.65C384.56,226.48 384.86,225.26 385.15,224.03C385.46,222.74 385.75,221.42 386.05,220.08C386.36,218.69 386.66,217.27 386.96,215.84C387.27,214.37 387.56,212.87 387.86,211.36C388.16,209.82 388.47,208.25 388.77,206.68C389.07,205.09 389.37,203.49 389.67,201.89C389.97,200.29 390.28,198.67 390.58,197.07C390.88,195.47 391.18,193.87 391.48,192.29C391.78,190.73 392.07,189.17 392.38,187.64C392.68,186.15 392.98,184.67 393.29,183.22C393.59,181.82 393.88,180.44 394.19,179.1C394.49,177.82 394.79,176.55 395.1,175.34C395.39,174.2 395.69,173.08 396,172.02C396.29,171.03 396.58,170.07 396.9,169.17C397.19,168.35 397.49,167.56 397.81,166.85C398.1,166.21 398.38,165.6 398.71,165.08C398.99,164.63 399.29,164.2 399.62,163.89C399.9,163.62 400.2,163.38 400.52,163.28C400.81,163.19 401.13,163.2 401.42,163.28C401.74,163.37 402.05,163.6 402.33,163.86C402.66,164.16 402.95,164.6 403.23,165.04C403.56,165.55 403.85,166.14 404.14,166.77C404.46,167.47 404.75,168.25 405.04,169.06C405.36,169.94 405.66,170.88 405.95,171.85C406.26,172.9 406.56,174 406.85,175.13C407.16,176.33 407.46,177.57 407.75,178.84C408.06,180.17 408.36,181.55 408.66,182.95C408.97,184.4 409.26,185.89 409.56,187.39C409.87,188.94 410.17,190.52 410.47,192.11C410.78,193.74 411.07,195.4 411.37,197.06C411.67,198.75 411.97,200.47 412.27,202.18C412.57,203.91 412.88,205.65 413.18,207.39C413.48,209.13 413.78,210.89 414.08,212.63C414.38,214.36 414.69,216.1 414.99,217.82C415.29,219.53 415.59,221.23 415.89,222.91C416.19,224.56 416.48,226.19 416.79,227.8C417.09,229.36 417.39,230.91 417.7,232.42C418,233.87 418.29,235.31 418.6,236.69C418.89,238.01 419.2,239.3 419.51,240.54C419.8,241.7 420.09,242.82 420.41,243.88C420.7,244.86 421,245.8 421.32,246.67C421.61,247.46 421.9,248.21 422.22,248.89C422.5,249.49 422.8,250.06 423.12,250.55C423.41,250.98 423.71,251.38 424.03,251.7C424.32,251.99 424.62,252.23 424.93,252.42C425.22,252.59 425.53,252.72 425.84,252.81C426.14,252.9 426.44,252.94 426.74,252.96C427.04,252.98 427.34,252.97 427.64,252.95C427.94,252.93 428.25,252.9 428.55,252.86C428.85,252.83 429.15,252.78 429.45,252.74C429.75,252.7 430.06,252.67 430.36,252.64C430.66,252.62 430.96,252.59 431.26,252.59C431.56,252.59 431.86,252.59 432.16,252.61C432.46,252.63 432.77,252.66 433.07,252.7C433.37,252.74 433.67,252.8 433.97,252.87C434.27,252.94 434.58,253.02 434.88,253.11C435.18,253.2 435.48,253.29 435.78,253.39C436.08,253.49 436.38,253.6 436.68,253.71C436.98,253.82 437.29,253.93 437.59,254.04C437.89,254.15 438.19,254.27 438.49,254.39C438.79,254.51 439.1,254.62 439.4,254.74C439.7,254.85 440,254.97 440.3,255.08C440.6,255.2 440.91,255.31 441.21,255.43C441.51,255.54 441.81,255.66 442.11,255.77C442.41,255.88 442.71,256 443.01,256.11C443.31,256.22 443.62,256.34 443.92,256.45C444.22,256.56 444.52,256.67 444.82,256.77C445.12,256.88 445.43,256.98 445.73,257.08C446.03,257.18 446.33,257.27 446.63,257.37C446.93,257.46 447.23,257.56 447.53,257.65C447.83,257.74 448.14,257.82 448.44,257.91C448.74,257.99 449.04,258.08 449.34,258.16C449.64,258.24 449.95,258.32 450.25,258.4C450.55,258.48 450.85,258.57 451.15,258.65C451.45,258.74 451.75,258.82 452.05,258.91C452.35,259 452.66,259.09 452.96,259.19C453.26,259.29 453.56,259.38 453.86,259.49C454.16,259.6 454.47,259.71 454.77,259.83C455.07,259.95 455.37,260.07 455.67,260.2C455.97,260.33 456.28,260.46 456.58,260.6C456.88,260.74 457.18,260.88 457.48,261.02C457.78,261.16 458.08,261.32 458.38,261.46C458.68,261.61 458.99,261.75 459.29,261.89C459.59,262.03 459.89,262.17 460.19,262.29C460.49,262.41 460.8,262.53 461.1,262.63Q461.4,262.73 462,262.87" style="vector-effect: non-scaling-stroke; fill: none; stroke: rgb(231, 107, 243); stroke-opacity: 1; stroke-width: 2px; opacity: 1;"/></g><g class="points"/><g class="text"/></g></g></g><g class="overplot"/><path class="xlines-above crisp" d="M0,0" style="fill: none;"/><path class="ylines-above crisp" d="M0,0" style="fill: none;"/><g class="overlines-above"/><g class="xaxislayer-above"><g class="xtick"><text text-anchor="middle" x="0" y="433" transform="translate(80,0)" style="font-family: 'Open Sans', verdana, arial, sans-serif; font-size: 12px; fill: rgb(42, 63, 95); fill-opacity: 1; white-space: pre;">0</text></g><g class="xtick"><text text-anchor="middle" x="0" y="433" transform="translate(170.23000000000002,0)" style="font-family: 'Open Sans', verdana, arial, sans-serif; font-size: 12px; fill: rgb(42, 63, 95); fill-opacity: 1; white-space: pre;">100</text></g><g class="xtick"><text text-anchor="middle" x="0" y="433" transform="translate(260.47,0)" style="font-family: 'Open Sans', verdana, arial, sans-serif; font-size: 12px; fill: rgb(42, 63, 95); fill-opacity: 1; white-space: pre;">200</text></g><g class="xtick"><text text-anchor="middle" x="0" y="433" transform="translate(350.7,0)" style="font-family: 'Open Sans', verdana, arial, sans-serif; font-size: 12px; fill: rgb(42, 63, 95); fill-opacity: 1; white-space: pre;">300</text></g><g class="xtick"><text text-anchor="middle" x="0" y="433" transform="translate(440.94,0)" style="font-family: 'Open Sans', verdana, arial, sans-serif; font-size: 12px; fill: rgb(42, 63, 95); fill-opacity: 1; white-space: pre;">400</text></g><g class="xtick"><text text-anchor="middle" x="0" y="433" transform="translate(531.1700000000001,0)" style="font-family: 'Open Sans', verdana, arial, sans-serif; font-size: 12px; fill: rgb(42, 63, 95); fill-opacity: 1; white-space: pre;">500</text></g></g><g class="yaxislayer-above"><g class="ytick"><text text-anchor="end" x="79" y="4.199999999999999" transform="translate(0,360.71)" style="font-family: 'Open Sans', verdana, arial, sans-serif; font-size: 12px; fill: rgb(42, 63, 95); fill-opacity: 1; white-space: pre;">500</text></g><g class="ytick"><text text-anchor="end" x="79" y="4.199999999999999" transform="translate(0,275.5)" style="font-family: 'Open Sans', verdana, arial, sans-serif; font-size: 12px; fill: rgb(42, 63, 95); fill-opacity: 1; white-space: pre;">1000</text></g><g class="ytick"><text text-anchor="end" x="79" y="4.199999999999999" transform="translate(0,190.3)" style="font-family: 'Open Sans', verdana, arial, sans-serif; font-size: 12px; fill: rgb(42, 63, 95); fill-opacity: 1; white-space: pre;">1500</text></g><g class="ytick"><text text-anchor="end" x="79" y="4.199999999999999" transform="translate(0,105.09)" style="font-family: 'Open Sans', verdana, arial, sans-serif; font-size: 12px; fill: rgb(42, 63, 95); fill-opacity: 1; white-space: pre;">2000</text></g></g><g class="overaxes-above"/></g></g><g class="polarlayer"/><g class="ternarylayer"/><g class="geolayer"/><g class="funnelarealayer"/><g class="pielayer"/><g class="treemaplayer"/><g class="sunburstlayer"/><g class="glimages"/><defs id="topdefs-1d602c"><g class="clips"/><clipPath id="legend1d602c"><rect width="137" height="67" x="0" y="0"/></clipPath></defs><g class="layer-above"><g class="imagelayer"/><g class="shapelayer"/></g><g class="infolayer"><g class="legend" pointer-events="all" transform="translate(551.24, 100)"><rect class="bg" shape-rendering="crispEdges" width="137" height="67" x="0" y="0" style="stroke: rgb(68, 68, 68); stroke-opacity: 1; fill: rgb(255, 255, 255); fill-opacity: 1; stroke-width: 0px;"/><g class="scrollbox" transform="translate(0, 0)" clip-path="url('#legend1d602c')"><g class="groups"><g class="traces" transform="translate(0, 14.5)" style="opacity: 1;"><text class="legendtext" text-anchor="start" x="40" y="4.680000000000001" style="font-family: 'Open Sans', verdana, arial, sans-serif; font-size: 12px; fill: rgb(42, 63, 95); fill-opacity: 1; white-space: pre;">Average Class I</text><g class="layers" style="opacity: 1;"><g class="legendfill"/><g class="legendlines"><path class="js-line" d="M5,0h30" style="fill: none; stroke: rgb(0, 100, 80); stroke-opacity: 1; stroke-width: 2px;"/></g><g class="legendsymbols"><g class="legendpoints"/></g></g><rect class="legendtoggle" x="0" y="-9.5" width="131.15625" height="19" style="fill: rgb(0, 0, 0); fill-opacity: 0;"/></g><g class="traces" transform="translate(0, 33.5)" style="opacity: 1;"><text class="legendtext" text-anchor="start" x="40" y="4.680000000000001" style="font-family: 'Open Sans', verdana, arial, sans-serif; font-size: 12px; fill: rgb(42, 63, 95); fill-opacity: 1; white-space: pre;">Average Class II</text><g class="layers" style="opacity: 1;"><g class="legendfill"/><g class="legendlines"><path class="js-line" d="M5,0h30" style="fill: none; stroke: rgb(0, 176, 246); stroke-opacity: 1; stroke-width: 2px;"/></g><g class="legendsymbols"><g class="legendpoints"/></g></g><rect class="legendtoggle" x="0" y="-9.5" width="131.15625" height="19" style="fill: rgb(0, 0, 0); fill-opacity: 0;"/></g><g class="traces" transform="translate(0, 52.5)" style="opacity: 1;"><text class="legendtext" text-anchor="start" x="40" y="4.680000000000001" style="font-family: 'Open Sans', verdana, arial, sans-serif; font-size: 12px; fill: rgb(42, 63, 95); fill-opacity: 1; white-space: pre;">Average Class III</text><g class="layers" style="opacity: 1;"><g class="legendfill"/><g class="legendlines"><path class="js-line" d="M5,0h30" style="fill: none; stroke: rgb(231, 107, 243); stroke-opacity: 1; stroke-width: 2px;"/></g><g class="legendsymbols"><g class="legendpoints"/></g></g><rect class="legendtoggle" x="0" y="-9.5" width="131.15625" height="19" style="fill: rgb(0, 0, 0); fill-opacity: 0;"/></g></g></g><rect class="scrollbar" rx="20" ry="3" width="0" height="0" x="0" y="0" style="fill: rgb(128, 139, 164); fill-opacity: 1;"/></g><g class="g-gtitle"><text class="gtitle" x="35" y="50" text-anchor="start" dy="0em" style="font-family: 'Open Sans', verdana, arial, sans-serif; font-size: 17px; fill: rgb(42, 63, 95); opacity: 1; font-weight: normal; white-space: pre;">Average curve: secondary_structure_properties_group</text></g><g class="g-xtitle"><text class="xtitle" x="311" y="460.8" text-anchor="middle" style="font-family: 'Open Sans', verdana, arial, sans-serif; font-size: 14px; fill: rgb(42, 63, 95); opacity: 1; font-weight: normal; white-space: pre;">Domain</text></g><g class="g-ytitle"><text class="ytitle" transform="rotate(-90,27.496875000000003,260)" x="27.496875000000003" y="260" text-anchor="middle" style="font-family: 'Open Sans', verdana, arial, sans-serif; font-size: 14px; fill: rgb(42, 63, 95); opacity: 1; font-weight: normal; white-space: pre;">Frequency</text></g></g></svg>