<svg class="main-svg" xmlns="http://www.w3.org/2000/svg" xmlns:xlink="http://www.w3.org/1999/xlink" width="700" height="500" style="" viewBox="0 0 700 500"><rect x="0" y="0" width="700" height="500" style="fill: rgb(255, 255, 255); fill-opacity: 1;"/><defs id="defs-47c3e7"><g class="clips"><clipPath id="clip47c3e7xyplot" class="plotclip"><rect width="462" height="320"/></clipPath><clipPath class="axesclip" id="clip47c3e7x"><rect x="80" y="0" width="462" height="500"/></clipPath><clipPath class="axesclip" id="clip47c3e7y"><rect x="0" y="100" width="700" height="320"/></clipPath><clipPath class="axesclip" id="clip47c3e7xy"><rect x="80" y="100" width="462" height="320"/></clipPath></g><g class="gradients"/></defs><g class="bglayer"><rect class="bg" x="80" y="100" width="462" height="320" style="fill: rgb(229, 236, 246); fill-opacity: 1; stroke-width: 0;"/></g><g class="layer-below"><g class="imagelayer"/><g class="shapelayer"/></g><g class="cartesianlayer"><g class="subplot xy"><g class="layer-subplot"><g class="shapelayer"/><g class="imagelayer"/></g><g class="gridlayer"><g class="x"><path class="xgrid crisp" transform="translate(170.23000000000002,0)" d="M0,100v320" style="stroke: rgb(255, 255, 255); stroke-opacity: 1; stroke-width: 1px;"/><path class="xgrid crisp" transform="translate(260.47,0)" d="M0,100v320" style="stroke: rgb(255, 255, 255); stroke-opacity: 1; stroke-width: 1px;"/><path class="xgrid crisp" transform="translate(350.7,0)" d="M0,100v320" style="stroke: rgb(255, 255, 255); stroke-opacity: 1; stroke-width: 1px;"/><path class="xgrid crisp" transform="translate(440.94,0)" d="M0,100v320" style="stroke: rgb(255, 255, 255); stroke-opacity: 1; stroke-width: 1px;"/><path class="xgrid crisp" transform="translate(531.1700000000001,0)" d="M0,100v320" style="stroke: rgb(255, 255, 255); stroke-opacity: 1; stroke-width: 1px;"/></g><g class="y"><path class="ygrid crisp" transform="translate(0,390.43)" d="M80,0h462" style="stroke: rgb(255, 255, 255); stroke-opacity: 1; stroke-width: 1px;"/><path class="ygrid crisp" transform="translate(0,326.93)" d="M80,0h462" style="stroke: rgb(255, 255, 255); stroke-opacity: 1; stroke-width: 1px;"/><path class="ygrid crisp" transform="translate(0,263.44)" d="M80,0h462" style="stroke: rgb(255, 255, 255); stroke-opacity: 1; stroke-width: 1px;"/><path class="ygrid crisp" transform="translate(0,199.95)" d="M80,0h462" style="stroke: rgb(255, 255, 255); stroke-opacity: 1; stroke-width: 1px;"/><path class="ygrid crisp" transform="translate(0,136.45)" d="M80,0h462" style="stroke: rgb(255, 255, 255); stroke-opacity: 1; stroke-width: 1px;"/></g></g><g class="zerolinelayer"><path class="xzl zl crisp" transform="translate(80,0)" d="M0,100v320" style="stroke: rgb(255, 255, 255); stroke-opacity: 1; stroke-width: 2px;"/></g><path class="xlines-below"/><path class="ylines-below"/><g class="overlines-below"/><g class="xaxislayer-below"/><g class="yaxislayer-below"/><g class="overaxes-below"/><g class="plot" transform="translate(80, 100)" clip-path="url('#clip47c3e7xyplot')"><g class="scatterlayer mlayer"><g class="trace scatter trace5a9f5e" style="stroke-miterlimit: 2; opacity: 1;"><g class="fills"/><g class="errorbars"/><g class="lines"><path class="js-line" d="M0,93.31Q0.62,93.48 0.9,93.69C1.24,93.95 1.53,94.39 1.81,94.84C2.14,95.38 2.43,96.05 2.71,96.75C3.04,97.56 3.33,98.48 3.62,99.43C3.94,100.49 4.23,101.64 4.52,102.82C4.83,104.11 5.13,105.48 5.42,106.88C5.73,108.38 6.04,109.95 6.33,111.55C6.64,113.23 6.93,114.97 7.23,116.73C7.54,118.56 7.84,120.44 8.14,122.33C8.45,124.27 8.74,126.24 9.04,128.21C9.34,130.21 9.65,132.23 9.95,134.24C10.25,136.24 10.55,138.27 10.85,140.24C11.15,142.17 11.44,144.11 11.75,145.95C12.04,147.68 12.35,149.36 12.66,150.96C12.95,152.44 13.24,153.87 13.56,155.21C13.85,156.44 14.15,157.62 14.47,158.71C14.76,159.68 15.04,160.61 15.37,161.42C15.65,162.12 15.93,162.79 16.27,163.31C16.55,163.74 16.84,164.15 17.18,164.39C17.46,164.59 17.78,164.72 18.08,164.74C18.38,164.76 18.7,164.66 18.99,164.53C19.3,164.39 19.6,164.15 19.89,163.92C20.2,163.68 20.49,163.38 20.79,163.1C21.09,162.82 21.39,162.52 21.7,162.24C22,161.97 22.29,161.68 22.6,161.45C22.89,161.23 23.2,161.02 23.51,160.87C23.8,160.73 24.11,160.61 24.41,160.59C24.71,160.57 25.03,160.6 25.32,160.72C25.64,160.85 25.94,161.09 26.22,161.36C26.55,161.68 26.84,162.12 27.12,162.58C27.45,163.12 27.75,163.77 28.03,164.45C28.36,165.23 28.64,166.11 28.93,167.03C29.25,168.06 29.55,169.17 29.84,170.33C30.16,171.6 30.45,172.95 30.74,174.34C31.05,175.84 31.35,177.4 31.64,179.02C31.95,180.75 32.26,182.55 32.55,184.39C32.86,186.35 33.16,188.37 33.45,190.44C33.76,192.62 34.06,194.86 34.36,197.14C34.67,199.51 34.96,201.93 35.26,204.38C35.56,206.89 35.86,209.45 36.16,212.01C36.46,214.59 36.77,217.2 37.07,219.79C37.37,222.36 37.66,224.95 37.97,227.48C38.27,229.96 38.58,232.39 38.88,234.83C39.18,237.26 39.48,239.69 39.78,242.1C40.08,244.5 40.38,246.9 40.68,249.27C40.98,251.62 41.28,253.96 41.59,256.26C41.89,258.5 42.18,260.75 42.49,262.91C42.79,264.98 43.08,267.08 43.4,268.97C43.69,270.65 43.95,272.37 44.3,273.71C44.57,274.74 44.84,275.71 45.21,276.38C45.47,276.86 45.8,277.47 46.11,277.48C46.4,277.49 46.75,276.98 47.01,276.55C47.4,275.89 47.64,274.76 47.92,273.73C48.25,272.52 48.53,271.12 48.82,269.72C49.14,268.18 49.43,266.51 49.73,264.85C50.04,263.11 50.33,261.31 50.63,259.51C50.93,257.68 51.23,255.81 51.53,253.95C51.83,252.07 52.14,250.18 52.44,248.27C52.74,246.33 53.04,244.37 53.34,242.4C53.64,240.41 53.95,238.36 54.25,236.38C54.55,234.44 54.84,232.5 55.15,230.62C55.44,228.82 55.74,227.05 56.05,225.33C56.34,223.69 56.65,222.1 56.96,220.53C57.26,219.01 57.55,217.5 57.86,216.05C58.15,214.67 58.45,213.29 58.77,212.02C59.06,210.86 59.35,209.74 59.67,208.73C59.96,207.84 60.25,206.98 60.58,206.24C60.86,205.61 61.14,205.01 61.48,204.56C61.75,204.2 62.05,203.85 62.38,203.7C62.66,203.57 63,203.55 63.29,203.63C63.61,203.72 63.91,204.01 64.19,204.3C64.52,204.65 64.82,205.14 65.1,205.64C65.43,206.21 65.71,206.88 66,207.57C66.32,208.33 66.61,209.16 66.9,210.01C67.21,210.94 67.52,211.92 67.81,212.93C68.12,214.01 68.41,215.15 68.71,216.28C69.02,217.44 69.32,218.63 69.62,219.81C69.92,221 70.22,222.19 70.52,223.41C70.82,224.67 71.12,225.95 71.42,227.25C71.73,228.58 72.03,229.95 72.33,231.31C72.63,232.68 72.93,234.08 73.23,235.45C73.53,236.79 73.84,238.1 74.14,239.43C74.44,240.75 74.74,242.07 75.04,243.39C75.34,244.71 75.65,246.03 75.95,247.34C76.25,248.63 76.55,249.93 76.85,251.2C77.15,252.44 77.44,253.68 77.75,254.87C78.04,256 78.35,257.09 78.66,258.16C78.95,259.18 79.25,260.16 79.56,261.13C79.86,262.06 80.16,262.96 80.47,263.85C80.77,264.71 81.06,265.54 81.37,266.36C81.67,267.15 81.96,267.93 82.27,268.69C82.57,269.43 82.88,270.15 83.18,270.87C83.48,271.57 83.77,272.27 84.08,272.95C84.38,273.61 84.68,274.28 84.99,274.89C85.28,275.45 85.56,276.02 85.89,276.47C86.17,276.86 86.47,277.19 86.79,277.46C87.08,277.7 87.4,277.85 87.7,278.04C88,278.23 88.3,278.42 88.6,278.61C88.9,278.8 89.2,278.99 89.51,279.17C89.81,279.34 90.11,279.48 90.41,279.65C90.71,279.82 91.01,280.02 91.32,280.17C91.62,280.32 91.92,280.44 92.22,280.55C92.52,280.66 92.82,280.76 93.12,280.83C93.42,280.9 93.73,280.98 94.03,280.96C94.33,280.94 94.64,280.87 94.93,280.72C95.25,280.55 95.56,280.26 95.84,279.95C96.17,279.59 96.46,279.14 96.74,278.65C97.07,278.08 97.35,277.4 97.64,276.69C97.96,275.89 98.26,275.01 98.55,274.1C98.87,273.11 99.16,272.06 99.45,270.99C99.76,269.86 100.06,268.67 100.36,267.47C100.67,266.22 100.96,264.95 101.26,263.65C101.56,262.31 101.86,260.95 102.16,259.57C102.46,258.17 102.77,256.74 103.07,255.31C103.37,253.86 103.67,252.4 103.97,250.94C104.27,249.48 104.58,248 104.88,246.54C105.18,245.09 105.48,243.63 105.78,242.19C106.08,240.77 106.38,239.37 106.68,237.96C106.98,236.55 107.29,235.12 107.59,233.72C107.89,232.34 108.18,230.95 108.49,229.62C108.79,228.34 109.09,227.08 109.4,225.87C109.69,224.72 109.99,223.6 110.3,222.53C110.59,221.53 110.89,220.56 111.21,219.65C111.5,218.82 111.79,218.01 112.11,217.28C112.39,216.63 112.68,216 113.01,215.47C113.29,215.01 113.59,214.56 113.92,214.24C114.2,213.97 114.5,213.73 114.82,213.63C115.11,213.54 115.44,213.54 115.73,213.63C116.05,213.73 116.35,213.98 116.63,214.26C116.96,214.59 117.25,215.05 117.53,215.52C117.86,216.07 118.15,216.72 118.44,217.39C118.76,218.15 119.05,218.99 119.34,219.86C119.66,220.81 119.96,221.83 120.25,222.88C120.56,224.01 120.86,225.2 121.15,226.42C121.46,227.71 121.75,229.05 122.05,230.42C122.36,231.85 122.66,233.32 122.96,234.81C123.27,236.35 123.56,237.93 123.86,239.51C124.16,241.12 124.47,242.76 124.77,244.39C125.07,246.02 125.37,247.68 125.67,249.3C125.97,250.89 126.27,252.49 126.58,254.04C126.88,255.53 127.17,257.01 127.48,258.42C127.77,259.76 128.06,261.08 128.38,262.31C128.67,263.44 128.97,264.55 129.29,265.54C129.57,266.41 129.85,267.27 130.19,267.96C130.47,268.53 130.75,269.11 131.1,269.44C131.37,269.7 131.7,269.91 132,269.93C132.3,269.95 132.62,269.78 132.9,269.59C133.23,269.36 133.53,268.97 133.81,268.57C134.14,268.1 134.43,267.53 134.71,266.93C135.03,266.25 135.33,265.46 135.62,264.68C135.93,263.86 136.22,262.99 136.52,262.15C136.82,261.31 137.11,260.46 137.42,259.64C137.72,258.83 138.02,258.03 138.33,257.26C138.62,256.53 138.92,255.8 139.23,255.12C139.52,254.47 139.83,253.84 140.14,253.26C140.43,252.72 140.72,252.2 141.04,251.74C141.33,251.32 141.63,250.92 141.95,250.59C142.24,250.29 142.53,250.02 142.85,249.82C143.14,249.64 143.44,249.49 143.75,249.43C144.05,249.37 144.36,249.37 144.66,249.43C144.97,249.49 145.27,249.63 145.56,249.8C145.88,249.99 146.18,250.24 146.47,250.52C146.79,250.83 147.08,251.2 147.37,251.59C147.68,252.02 147.98,252.5 148.27,253C148.58,253.54 148.89,254.12 149.18,254.72C149.49,255.36 149.79,256.04 150.08,256.73C150.39,257.46 150.69,258.23 150.99,259.01C151.3,259.81 151.59,260.64 151.89,261.46C152.19,262.29 152.48,263.16 152.79,263.96C153.08,264.72 153.39,265.43 153.7,266.15C154,266.85 154.29,267.56 154.6,268.23C154.9,268.87 155.2,269.5 155.51,270.1C155.8,270.67 156.1,271.22 156.41,271.75C156.71,272.27 157.02,272.76 157.32,273.25C157.62,273.73 157.92,274.21 158.22,274.68C158.52,275.15 158.82,275.62 159.12,276.08C159.42,276.54 159.73,277 160.03,277.46C160.33,277.91 160.63,278.36 160.93,278.81C161.23,279.26 161.54,279.7 161.84,280.14C162.14,280.58 162.44,281.02 162.74,281.46C163.04,281.9 163.34,282.34 163.64,282.77C163.94,283.2 164.24,283.65 164.55,284.04C164.84,284.41 165.14,284.73 165.45,285.06C165.75,285.38 166.06,285.68 166.36,285.98C166.66,286.27 166.96,286.57 167.26,286.84C167.56,287.11 167.85,287.37 168.16,287.6C168.46,287.83 168.76,288.05 169.07,288.22C169.36,288.38 169.66,288.54 169.97,288.62C170.27,288.7 170.58,288.74 170.88,288.7C171.19,288.66 171.49,288.52 171.78,288.35C172.09,288.17 172.39,287.9 172.68,287.62C173,287.32 173.3,286.96 173.59,286.58C173.91,286.16 174.2,285.7 174.49,285.2C174.81,284.64 175.11,284.02 175.4,283.37C175.72,282.65 176.01,281.88 176.3,281.07C176.62,280.18 176.92,279.21 177.21,278.23C177.52,277.18 177.82,276.08 178.11,274.95C178.42,273.75 178.72,272.5 179.01,271.22C179.32,269.88 179.62,268.5 179.92,267.09C180.23,265.63 180.52,264.12 180.82,262.6C181.13,261.03 181.43,259.43 181.73,257.81C182.04,256.15 182.33,254.47 182.63,252.77C182.93,251.04 183.23,249.3 183.53,247.54C183.83,245.76 184.14,243.96 184.44,242.16C184.74,240.34 185.04,238.5 185.34,236.67C185.64,234.83 185.95,232.98 186.25,231.13C186.55,229.28 186.85,227.42 187.15,225.57C187.45,223.73 187.75,221.88 188.05,220.05C188.35,218.23 188.66,216.41 188.96,214.61C189.26,212.83 189.56,211.05 189.86,209.29C190.16,207.56 190.47,205.84 190.77,204.14C191.07,202.47 191.36,200.82 191.67,199.19C191.97,197.6 192.27,196.03 192.58,194.49C192.88,193 193.17,191.53 193.48,190.09C193.77,188.7 194.07,187.34 194.38,186.01C194.68,184.74 194.98,183.5 195.29,182.3C195.58,181.16 195.88,180.05 196.19,178.99C196.48,177.99 196.79,177.02 197.1,176.1C197.39,175.25 197.68,174.42 198,173.66C198.29,172.96 198.58,172.29 198.9,171.69C199.19,171.15 199.49,170.63 199.81,170.2C200.09,169.82 200.39,169.46 200.71,169.2C200.99,168.98 201.31,168.79 201.62,168.71C201.91,168.64 202.23,168.65 202.52,168.73C202.83,168.82 203.14,169.01 203.42,169.24C203.75,169.5 204.04,169.87 204.33,170.26C204.65,170.7 204.94,171.22 205.23,171.77C205.55,172.38 205.85,173.05 206.14,173.75C206.46,174.51 206.75,175.33 207.04,176.18C207.35,177.09 207.66,178.06 207.95,179.05C208.26,180.1 208.56,181.19 208.85,182.31C209.16,183.49 209.45,184.7 209.75,185.94C210.06,187.23 210.36,188.56 210.66,189.9C210.97,191.29 211.26,192.71 211.56,194.14C211.87,195.61 212.17,197.11 212.47,198.61C212.77,200.14 213.07,201.7 213.37,203.25C213.67,204.8 213.97,206.36 214.27,207.9C214.57,209.42 214.88,210.91 215.18,212.41C215.48,213.91 215.78,215.42 216.08,216.92C216.38,218.41 216.68,219.94 216.99,221.39C217.28,222.77 217.57,224.16 217.89,225.41C218.17,226.52 218.48,227.51 218.79,228.52C219.09,229.5 219.39,230.46 219.7,231.4C220,232.31 220.29,233.19 220.6,234.06C220.9,234.9 221.2,235.72 221.51,236.51C221.81,237.27 222.1,238.01 222.41,238.72C222.71,239.4 223.01,240.07 223.32,240.7C223.61,241.3 223.91,241.88 224.22,242.42C224.51,242.93 224.81,243.42 225.12,243.86C225.41,244.27 225.71,244.65 226.03,244.99C226.32,245.3 226.61,245.59 226.93,245.82C227.22,246.03 227.53,246.21 227.84,246.32C228.13,246.42 228.44,246.49 228.74,246.48C229.04,246.47 229.35,246.41 229.64,246.28C229.96,246.14 230.26,245.92 230.55,245.66C230.87,245.37 231.16,244.99 231.45,244.6C231.77,244.16 232.07,243.66 232.36,243.14C232.68,242.57 232.97,241.94 233.26,241.3C233.57,240.61 233.87,239.88 234.16,239.14C234.47,238.36 234.77,237.55 235.07,236.73C235.38,235.88 235.67,235.01 235.97,234.14C236.28,233.25 236.58,232.33 236.88,231.42C237.18,230.51 237.48,229.58 237.78,228.67C238.08,227.76 238.38,226.84 238.68,225.94C238.98,225.05 239.28,224.17 239.59,223.3C239.89,222.45 240.18,221.61 240.49,220.8C240.79,220.01 241.09,219.25 241.4,218.5C241.7,217.78 241.99,217.08 242.3,216.41C242.59,215.78 242.9,215.17 243.21,214.59C243.5,214.05 243.8,213.53 244.11,213.06C244.4,212.62 244.69,212.2 245.01,211.84C245.3,211.51 245.6,211.2 245.92,210.95C246.21,210.73 246.51,210.53 246.82,210.41C247.11,210.3 247.43,210.23 247.73,210.23C248.03,210.23 248.34,210.29 248.63,210.4C248.94,210.52 249.24,210.72 249.53,210.92C249.84,211.13 250.12,211.56 250.44,211.65C250.72,211.73 251.04,211.51 251.34,211.51C251.64,211.51 251.95,211.58 252.25,211.67C252.56,211.77 252.85,211.96 253.15,212.09C253.45,212.22 253.74,212.4 254.05,212.47C254.35,212.54 254.66,212.57 254.96,212.52C255.27,212.46 255.57,212.3 255.86,212.12C256.18,211.92 256.48,211.63 256.77,211.34C257.08,211.03 257.38,210.69 257.67,210.33C257.98,209.95 258.29,209.53 258.58,209.1C258.89,208.64 259.19,208.15 259.48,207.65C259.79,207.12 260.09,206.58 260.38,206.01C260.69,205.41 261,204.79 261.29,204.14C261.6,203.46 261.9,202.75 262.19,202.02C262.5,201.25 262.81,200.45 263.1,199.63C263.41,198.76 263.71,197.89 264,196.94C264.32,195.88 264.61,194.73 264.9,193.57C265.21,192.33 265.51,191.02 265.81,189.73C266.11,188.42 266.41,187.09 266.71,185.76C267.01,184.41 267.32,183.05 267.62,181.68C267.92,180.29 268.22,178.88 268.52,177.47C268.82,176.04 269.12,174.59 269.42,173.14C269.72,171.67 270.03,170.19 270.33,168.7C270.63,167.2 270.93,165.69 271.23,164.18C271.53,162.67 271.84,161.14 272.14,159.63C272.44,158.12 272.74,156.62 273.04,155.12C273.34,153.64 273.65,152.16 273.95,150.7C274.25,149.27 274.55,147.85 274.85,146.45C275.15,145.09 275.44,143.74 275.75,142.43C276.05,141.17 276.35,139.93 276.66,138.73C276.95,137.59 277.25,136.46 277.56,135.39C277.85,134.39 278.16,133.41 278.47,132.49C278.76,131.64 279.07,130.85 279.37,130.05C279.67,129.27 279.96,128.5 280.27,127.76C280.57,127.05 280.85,126.3 281.18,125.68C281.46,125.14 281.74,124.62 282.08,124.24C282.36,123.93 282.67,123.63 282.99,123.52C283.27,123.43 283.61,123.44 283.89,123.55C284.22,123.68 284.51,124.02 284.79,124.37C285.13,124.8 285.42,125.38 285.7,125.99C286.03,126.7 286.32,127.54 286.6,128.41C286.92,129.4 287.22,130.49 287.51,131.63C287.83,132.89 288.12,134.24 288.41,135.63C288.73,137.15 289.03,138.75 289.32,140.4C289.63,142.17 289.93,144.02 290.22,145.91C290.53,147.91 290.83,149.98 291.12,152.09C291.43,154.3 291.73,156.59 292.03,158.9C292.34,161.3 292.63,163.76 292.93,166.25C293.24,168.81 293.54,171.42 293.84,174.05C294.14,176.73 294.44,179.46 294.74,182.19C295.04,184.95 295.34,187.74 295.64,190.51C295.94,193.29 296.25,196.08 296.55,198.84C296.85,201.56 297.14,204.28 297.45,206.95C297.75,209.54 298.05,212.12 298.36,214.62C298.65,217 298.95,219.36 299.26,221.6C299.55,223.68 299.84,225.71 300.16,227.62C300.45,229.36 300.75,231.03 301.07,232.58C301.36,233.95 301.64,235.26 301.97,236.43C302.25,237.44 302.55,238.39 302.88,239.21C303.16,239.9 303.44,240.55 303.78,241.06C304.06,241.48 304.35,241.87 304.68,242.11C304.96,242.31 305.28,242.45 305.59,242.48C305.89,242.5 306.2,242.41 306.49,242.28C306.81,242.14 307.11,241.9 307.4,241.66C307.71,241.4 308.01,241.08 308.3,240.76C308.61,240.42 308.91,240.06 309.21,239.69C309.52,239.31 309.82,238.91 310.11,238.49C310.42,238.06 310.72,237.6 311.01,237.13C311.32,236.63 311.62,236.11 311.92,235.57C312.23,235.01 312.52,234.41 312.82,233.83C313.12,233.26 313.42,232.67 313.73,232.12C314.02,231.6 314.32,231.08 314.63,230.62C314.92,230.2 315.21,229.79 315.53,229.47C315.82,229.19 316.12,228.92 316.44,228.77C316.73,228.63 317.04,228.55 317.34,228.56C317.64,228.57 317.96,228.69 318.25,228.85C318.57,229.03 318.87,229.32 319.15,229.63C319.47,229.98 319.76,230.41 320.05,230.86C320.37,231.35 320.67,231.91 320.96,232.48C321.27,233.09 321.56,233.74 321.86,234.4C322.17,235.08 322.47,235.8 322.77,236.51C323.07,237.22 323.36,237.97 323.67,238.67C323.97,239.35 324.27,240.05 324.58,240.68C324.87,241.27 325.16,241.84 325.48,242.34C325.77,242.79 326.05,243.24 326.38,243.57C326.66,243.85 326.98,244.18 327.29,244.22C327.58,244.26 327.92,244.1 328.19,243.88C328.55,243.59 328.83,243.03 329.1,242.46C329.45,241.72 329.72,240.75 330,239.73C330.34,238.48 330.61,236.95 330.9,235.49C331.21,233.94 331.51,232.32 331.81,230.7C332.12,229.05 332.41,227.36 332.71,225.69C333.01,224.01 333.32,222.31 333.62,220.63C333.92,218.98 334.22,217.32 334.52,215.7C334.82,214.12 335.11,212.55 335.42,211.02C335.72,209.55 336.02,208.1 336.33,206.7C336.62,205.37 336.92,204.07 337.23,202.83C337.52,201.67 337.82,200.54 338.14,199.48C338.43,198.51 338.72,197.56 339.04,196.7C339.33,195.93 339.62,195.19 339.95,194.54C340.23,193.98 340.52,193.43 340.85,193.01C341.13,192.65 341.42,192.32 341.75,192.13C342.03,191.97 342.36,191.87 342.66,191.89C342.96,191.91 343.28,192.07 343.56,192.25C343.88,192.46 344.18,192.79 344.47,193.12C344.79,193.49 345.08,193.95 345.37,194.4C345.68,194.88 345.97,195.41 346.27,195.94C346.58,196.49 346.88,197.06 347.18,197.63C347.48,198.21 347.78,198.81 348.08,199.41C348.39,200.03 348.69,200.66 348.99,201.3C349.3,201.96 349.59,202.63 349.89,203.3C350.19,203.98 350.49,204.68 350.79,205.37C351.09,206.06 351.4,206.76 351.7,207.44C352,208.11 352.29,208.78 352.6,209.41C352.89,210.01 353.19,210.61 353.51,211.13C353.8,211.59 354.07,212.09 354.41,212.37C354.69,212.59 355.04,212.85 355.32,212.78C355.65,212.7 355.96,212.16 356.22,211.68C356.59,211.01 356.84,210 357.12,209.04C357.45,207.92 357.74,206.66 358.03,205.36C358.35,203.92 358.64,202.38 358.93,200.8C359.24,199.09 359.55,197.29 359.84,195.45C360.15,193.5 360.45,191.47 360.74,189.4C361.05,187.22 361.34,184.98 361.64,182.7C361.95,180.33 362.25,177.9 362.55,175.44C362.86,172.9 363.15,170.32 363.45,167.71C363.76,165.03 364.06,162.34 364.36,159.58C364.67,156.73 364.96,153.81 365.26,150.88C365.56,147.89 365.86,144.83 366.16,141.81C366.46,138.79 366.77,135.76 367.07,132.76C367.37,129.79 367.67,126.82 367.97,123.89C368.27,121.01 368.57,118.14 368.88,115.31C369.18,112.55 369.48,109.82 369.78,107.13C370.08,104.52 370.37,101.94 370.68,99.42C370.98,96.98 371.28,94.58 371.59,92.24C371.89,90 372.18,87.8 372.49,85.67C372.78,83.64 373.09,81.65 373.4,79.74C373.69,77.94 373.99,76.18 374.3,74.5C374.59,72.94 374.89,71.42 375.21,69.98C375.5,68.66 375.79,67.39 376.11,66.2C376.4,65.13 376.69,64.11 377.01,63.18C377.29,62.37 377.59,61.59 377.92,60.93C378.2,60.38 378.48,59.84 378.82,59.46C379.1,59.15 379.41,58.86 379.73,58.76C380.02,58.67 380.35,58.7 380.63,58.82C380.96,58.96 381.25,59.3 381.53,59.64C381.87,60.06 382.16,60.62 382.44,61.2C382.77,61.87 383.05,62.66 383.34,63.47C383.66,64.38 383.96,65.38 384.25,66.42C384.57,67.56 384.86,68.77 385.15,70.02C385.46,71.37 385.76,72.79 386.05,74.24C386.36,75.78 386.67,77.38 386.96,79.02C387.27,80.74 387.56,82.51 387.86,84.31C388.17,86.18 388.47,88.1 388.77,90.04C389.08,92.03 389.37,94.07 389.67,96.11C389.97,98.19 390.28,100.29 390.58,102.41C390.88,104.56 391.18,106.72 391.48,108.9C391.78,111.11 392.08,113.35 392.38,115.59C392.68,117.84 392.99,120.12 393.29,122.36C393.59,124.57 393.89,126.78 394.19,128.96C394.49,131.1 394.8,133.2 395.1,135.3C395.4,137.36 395.7,139.39 396,141.43C396.3,143.47 396.6,145.49 396.9,147.53C397.2,149.58 397.51,151.63 397.81,153.69C398.11,155.76 398.41,157.84 398.71,159.93C399.01,162.04 399.32,164.16 399.62,166.29C399.92,168.44 400.22,170.6 400.52,172.77C400.82,174.97 401.12,177.18 401.42,179.4C401.72,181.65 402.03,183.92 402.33,186.19C402.63,188.49 402.93,190.79 403.23,193.11C403.53,195.44 403.84,197.79 404.14,200.14C404.44,202.5 404.74,204.88 405.04,207.23C405.34,209.55 405.64,211.86 405.95,214.13C406.25,216.33 406.55,218.5 406.85,220.63C407.15,222.7 407.44,224.74 407.75,226.75C408.05,228.69 408.35,230.61 408.66,232.48C408.96,234.28 409.25,236.08 409.56,237.78C409.85,239.36 410.15,240.92 410.47,242.33C410.75,243.56 411.03,244.76 411.37,245.76C411.64,246.56 411.94,247.26 412.27,247.88C412.55,248.41 412.85,248.9 413.18,249.28C413.46,249.6 413.76,249.9 414.08,250.05C414.37,250.19 414.69,250.23 414.99,250.22C415.29,250.21 415.6,250.1 415.89,249.98C416.2,249.85 416.5,249.68 416.79,249.47C417.1,249.25 417.42,249 417.7,248.67C418.04,248.27 418.3,247.68 418.6,247.17C418.91,246.64 419.21,246.1 419.51,245.56C419.81,245.01 420.11,244.44 420.41,243.88C420.71,243.32 421.01,242.76 421.32,242.22C421.62,241.7 421.91,241.19 422.22,240.71C422.51,240.26 422.81,239.82 423.12,239.43C423.41,239.07 423.71,238.72 424.03,238.43C424.32,238.17 424.61,237.92 424.93,237.76C425.22,237.61 425.53,237.51 425.84,237.48C426.14,237.45 426.45,237.49 426.74,237.59C427.05,237.69 427.35,237.88 427.64,238.1C427.96,238.34 428.26,238.65 428.55,238.98C428.87,239.34 429.16,239.76 429.45,240.19C429.76,240.66 430.07,241.17 430.36,241.71C430.67,242.29 430.97,242.91 431.26,243.56C431.57,244.25 431.87,244.98 432.16,245.73C432.47,246.52 432.77,247.35 433.07,248.19C433.38,249.06 433.67,249.97 433.97,250.87C434.27,251.79 434.58,252.72 434.88,253.65C435.18,254.6 435.48,255.56 435.78,256.51C436.08,257.46 436.37,258.42 436.68,259.34C436.98,260.23 437.28,261.13 437.59,261.97C437.88,262.75 438.17,263.52 438.49,264.21C438.78,264.82 439.07,265.42 439.4,265.9C439.68,266.31 439.97,266.71 440.3,266.96C440.58,267.17 440.9,267.35 441.21,267.38C441.51,267.41 441.83,267.32 442.11,267.17C442.43,267 442.73,266.7 443.01,266.38C443.34,266.01 443.63,265.53 443.92,265.04C444.24,264.48 444.53,263.84 444.82,263.18C445.14,262.45 445.44,261.67 445.73,260.85C446.04,259.97 446.34,259.03 446.63,258.07C446.94,257.04 447.24,255.96 447.53,254.86C447.84,253.69 448.14,252.47 448.44,251.24C448.75,249.96 449.04,248.63 449.34,247.3C449.65,245.94 449.95,244.55 450.25,243.17C450.55,241.78 450.85,240.37 451.15,238.98C451.45,237.59 451.75,236.2 452.05,234.83C452.35,233.48 452.65,232.14 452.96,230.83C453.26,229.55 453.55,228.28 453.86,227.04C454.16,225.84 454.46,224.66 454.77,223.51C455.07,222.41 455.36,221.32 455.67,220.28C455.96,219.29 456.27,218.32 456.58,217.4C456.87,216.53 457.17,215.69 457.48,214.9C457.77,214.16 458.06,213.44 458.38,212.78C458.67,212.17 458.97,211.59 459.29,211.07C459.58,210.6 459.87,210.14 460.19,209.76C460.48,209.42 460.78,209.11 461.1,208.86Q461.39,208.64 462,208.33" style="vector-effect: non-scaling-stroke; fill: none; stroke: rgb(0, 100, 80); stroke-opacity: 1; stroke-width: 2px; opacity: 1;"/></g><g class="points"/><g class="text"/></g><g class="trace scatter trace0b69a9" style="stroke-miterlimit: 2; opacity: 1;"><g class="fills"/><g class="errorbars"/><g class="lines"><path class="js-line" d="M0,173.46Q0.61,173.4 0.9,173.46C1.21,173.53 1.52,173.68 1.81,173.87C2.13,174.08 2.42,174.37 2.71,174.69C3.03,175.05 3.33,175.47 3.62,175.92C3.94,176.41 4.23,176.97 4.52,177.54C4.83,178.16 5.13,178.82 5.42,179.51C5.73,180.24 6.03,181.01 6.33,181.8C6.64,182.62 6.93,183.48 7.23,184.34C7.54,185.23 7.84,186.14 8.14,187.06C8.44,187.99 8.74,188.94 9.04,189.87C9.34,190.8 9.64,191.73 9.95,192.64C10.25,193.52 10.54,194.41 10.85,195.24C11.14,196.01 11.42,196.79 11.75,197.45C12.03,198.02 12.31,198.61 12.66,198.98C12.93,199.27 13.25,199.53 13.56,199.59C13.85,199.65 14.19,199.54 14.47,199.39C14.79,199.22 15.09,198.91 15.37,198.59C15.69,198.22 15.98,197.75 16.27,197.28C16.59,196.76 16.89,196.17 17.18,195.58C17.49,194.95 17.78,194.27 18.08,193.59C18.39,192.9 18.69,192.18 18.99,191.47C19.29,190.76 19.59,190.04 19.89,189.34C20.19,188.65 20.48,187.97 20.79,187.31C21.09,186.68 21.39,186.05 21.7,185.46C21.99,184.89 22.29,184.34 22.6,183.82C22.89,183.33 23.2,182.86 23.51,182.44C23.8,182.05 24.09,181.67 24.41,181.36C24.7,181.08 25,180.81 25.32,180.65C25.61,180.5 25.92,180.39 26.22,180.39C26.52,180.39 26.84,180.51 27.12,180.68C27.45,180.88 27.75,181.23 28.03,181.6C28.36,182.04 28.65,182.61 28.93,183.21C29.26,183.9 29.55,184.69 29.84,185.52C30.16,186.45 30.45,187.48 30.74,188.54C31.06,189.71 31.35,190.97 31.64,192.26C31.95,193.66 32.26,195.12 32.55,196.63C32.86,198.23 33.16,199.91 33.45,201.61C33.76,203.4 34.06,205.26 34.36,207.13C34.67,209.07 34.96,211.06 35.26,213.07C35.56,215.13 35.86,217.22 36.16,219.32C36.46,221.44 36.77,223.59 37.07,225.73C37.37,227.88 37.67,230.03 37.97,232.18C38.27,234.32 38.58,236.47 38.88,238.6C39.18,240.71 39.48,242.82 39.78,244.91C40.08,246.96 40.37,249.02 40.68,251.02C40.98,252.96 41.28,254.88 41.59,256.73C41.88,258.47 42.17,260.2 42.49,261.8C42.78,263.25 43.07,264.68 43.4,265.92C43.68,266.96 43.91,268.07 44.3,268.76C44.56,269.23 44.89,269.78 45.21,269.81C45.5,269.84 45.84,269.46 46.11,269.14C46.47,268.72 46.73,268.04 47.01,267.39C47.34,266.63 47.63,265.73 47.92,264.83C48.24,263.83 48.53,262.75 48.82,261.65C49.13,260.48 49.43,259.25 49.73,258.01C50.04,256.73 50.33,255.42 50.63,254.11C50.93,252.79 51.23,251.44 51.53,250.12C51.83,248.8 52.13,247.48 52.44,246.19C52.74,244.93 53.03,243.67 53.34,242.46C53.64,241.3 53.94,240.15 54.25,239.05C54.54,238.01 54.84,236.99 55.15,236.03C55.44,235.14 55.73,234.27 56.05,233.47C56.34,232.74 56.64,232.04 56.96,231.41C57.25,230.85 57.53,230.3 57.86,229.85C58.14,229.45 58.44,229.09 58.77,228.82C59.05,228.59 59.36,228.38 59.67,228.29C59.96,228.2 60.28,228.19 60.58,228.24C60.89,228.3 61.19,228.45 61.48,228.63C61.8,228.83 62.09,229.11 62.38,229.41C62.7,229.74 63,230.13 63.29,230.54C63.6,230.97 63.9,231.45 64.19,231.94C64.5,232.46 64.8,233.01 65.1,233.57C65.41,234.15 65.7,234.75 66,235.35C66.3,235.97 66.6,236.6 66.9,237.23C67.2,237.86 67.51,238.5 67.81,239.13C68.11,239.75 68.39,240.4 68.71,240.97C69,241.49 69.27,242.09 69.62,242.42C69.89,242.68 70.21,242.8 70.52,242.93C70.81,243.06 71.12,243.12 71.42,243.2C71.72,243.28 72.03,243.35 72.33,243.43C72.63,243.51 72.93,243.59 73.23,243.66C73.53,243.73 73.84,243.81 74.14,243.86C74.44,243.91 74.74,243.95 75.04,243.98C75.34,244.01 75.65,244.01 75.95,244.02C76.25,244.03 76.55,244.02 76.85,244.04C77.15,244.06 77.45,244.08 77.75,244.14C78.06,244.2 78.36,244.28 78.66,244.4C78.97,244.53 79.27,244.7 79.56,244.9C79.87,245.12 80.18,245.38 80.47,245.68C80.79,246 81.08,246.37 81.37,246.77C81.68,247.2 81.98,247.69 82.27,248.19C82.58,248.74 82.89,249.33 83.18,249.94C83.49,250.6 83.79,251.3 84.08,252.02C84.39,252.78 84.69,253.57 84.99,254.37C85.3,255.19 85.59,256.04 85.89,256.88C86.19,257.72 86.49,258.57 86.79,259.41C87.09,260.25 87.4,261.08 87.7,261.92C88,262.77 88.3,263.61 88.6,264.47C88.9,265.34 89.21,266.22 89.51,267.1C89.81,267.98 90.1,268.88 90.41,269.74C90.71,270.57 91,271.42 91.32,272.18C91.61,272.86 91.9,273.5 92.22,274.09C92.51,274.62 92.8,275.12 93.12,275.57C93.41,275.98 93.7,276.39 94.03,276.69C94.31,276.94 94.62,277.22 94.93,277.28C95.22,277.34 95.57,277.27 95.84,277.1C96.19,276.88 96.48,276.41 96.74,275.89C97.11,275.15 97.35,274.02 97.64,272.98C97.96,271.81 98.26,270.51 98.55,269.2C98.86,267.79 99.15,266.31 99.45,264.81C99.76,263.25 100.06,261.63 100.36,260.02C100.66,258.38 100.96,256.71 101.26,255.06C101.56,253.42 101.86,251.77 102.16,250.15C102.46,248.56 102.76,246.98 103.07,245.44C103.37,243.95 103.66,242.49 103.97,241.06C104.27,239.68 104.58,238.37 104.88,236.99C105.19,235.56 105.48,234.07 105.78,232.62C106.08,231.19 106.37,229.73 106.68,228.36C106.97,227.07 107.28,225.8 107.59,224.61C107.88,223.51 108.17,222.44 108.49,221.44C108.78,220.54 109.08,219.66 109.4,218.88C109.68,218.19 109.97,217.52 110.3,216.96C110.58,216.48 110.88,216.02 111.21,215.69C111.49,215.41 111.79,215.15 112.11,215.04C112.4,214.94 112.72,214.92 113.01,214.99C113.32,215.06 113.63,215.28 113.92,215.51C114.24,215.77 114.53,216.13 114.82,216.51C115.14,216.93 115.44,217.43 115.73,217.95C116.05,218.53 116.34,219.17 116.63,219.83C116.94,220.55 117.24,221.33 117.53,222.13C117.84,222.99 118.15,223.9 118.44,224.84C118.75,225.83 119.05,226.87 119.34,227.93C119.65,229.04 119.95,230.19 120.25,231.36C120.56,232.57 120.85,233.81 121.15,235.06C121.45,236.35 121.75,237.66 122.05,238.98C122.35,240.33 122.66,241.69 122.96,243.06C123.26,244.44 123.56,245.83 123.86,247.21C124.16,248.59 124.47,249.99 124.77,251.36C125.07,252.71 125.36,254.07 125.67,255.38C125.97,256.65 126.27,257.9 126.58,259.1C126.87,260.22 127.17,261.32 127.48,262.35C127.77,263.29 128.05,264.22 128.38,265.02C128.66,265.71 128.93,266.43 129.29,266.9C129.56,267.25 129.87,267.6 130.19,267.68C130.48,267.75 130.82,267.65 131.1,267.49C131.44,267.3 131.72,266.88 132,266.48C132.33,266.01 132.61,265.42 132.9,264.82C133.22,264.15 133.52,263.4 133.81,262.64C134.12,261.83 134.41,260.97 134.71,260.11C135.02,259.22 135.32,258.29 135.62,257.37C135.92,256.45 136.22,255.51 136.52,254.59C136.82,253.69 137.11,252.78 137.42,251.9C137.72,251.05 138.02,250.21 138.33,249.41C138.62,248.65 138.92,247.9 139.23,247.2C139.52,246.54 139.82,245.9 140.14,245.32C140.43,244.79 140.72,244.28 141.04,243.83C141.33,243.42 141.63,243.04 141.95,242.73C142.24,242.45 142.54,242.2 142.85,242.03C143.14,241.87 143.45,241.76 143.75,241.72C144.05,241.68 144.36,241.71 144.66,241.79C144.97,241.87 145.27,242.03 145.56,242.21C145.88,242.41 146.18,242.68 146.47,242.96C146.78,243.27 147.08,243.62 147.37,244C147.68,244.41 147.98,244.85 148.27,245.32C148.58,245.82 148.89,246.35 149.18,246.91C149.49,247.5 149.78,248.13 150.08,248.76C150.39,249.42 150.69,250.11 150.99,250.79C151.29,251.48 151.58,252.22 151.89,252.87C152.18,253.47 152.46,254.08 152.79,254.55C153.07,254.94 153.38,255.24 153.7,255.52C153.99,255.77 154.3,255.97 154.6,256.17C154.9,256.37 155.21,256.54 155.51,256.73C155.81,256.92 156.11,257.1 156.41,257.29C156.71,257.48 157.02,257.68 157.32,257.89C157.62,258.1 157.92,258.34 158.22,258.57C158.52,258.81 158.82,259.06 159.12,259.31C159.42,259.56 159.72,259.83 160.03,260.07C160.33,260.31 160.62,260.56 160.93,260.76C161.23,260.95 161.53,261.11 161.84,261.26C162.14,261.4 162.44,261.52 162.74,261.64C163.04,261.75 163.34,261.85 163.64,261.95C163.94,262.05 164.25,262.15 164.55,262.26C164.85,262.37 165.15,262.47 165.45,262.59C165.75,262.71 166.06,262.84 166.36,262.98C166.66,263.12 166.96,263.29 167.26,263.44C167.56,263.6 167.85,263.78 168.16,263.91C168.46,264.03 168.77,264.19 169.07,264.2C169.37,264.21 169.69,264.12 169.97,263.95C170.31,263.74 170.59,263.3 170.88,262.91C171.2,262.47 171.49,261.94 171.78,261.4C172.1,260.8 172.4,260.2 172.68,259.47C173.02,258.56 173.31,257.45 173.59,256.32C173.91,255.04 174.19,253.57 174.49,252.18C174.79,250.78 175.1,249.35 175.4,247.94C175.7,246.53 176,245.12 176.3,243.72C176.6,242.34 176.91,240.96 177.21,239.59C177.51,238.24 177.81,236.91 178.11,235.58C178.41,234.27 178.71,232.98 179.01,231.68C179.31,230.39 179.62,229.12 179.92,227.83C180.22,226.54 180.52,225.25 180.82,223.95C181.12,222.63 181.43,221.29 181.73,219.96C182.03,218.62 182.33,217.27 182.63,215.93C182.93,214.6 183.23,213.27 183.53,211.95C183.83,210.65 184.14,209.34 184.44,208.06C184.74,206.8 185.04,205.55 185.34,204.31C185.64,203.09 185.95,201.89 186.25,200.7C186.55,199.53 186.85,198.38 187.15,197.24C187.45,196.12 187.75,195 188.05,193.9C188.35,192.81 188.66,191.73 188.96,190.66C189.26,189.6 189.56,188.54 189.86,187.49C190.16,186.46 190.47,185.43 190.77,184.42C191.07,183.43 191.36,182.45 191.67,181.49C191.97,180.56 192.27,179.63 192.58,178.74C192.88,177.88 193.17,177.03 193.48,176.22C193.77,175.44 194.07,174.69 194.38,173.96C194.67,173.27 194.98,172.6 195.29,171.97C195.58,171.38 195.88,170.81 196.19,170.29C196.48,169.81 196.78,169.34 197.1,168.93C197.39,168.56 197.68,168.21 198,167.93C198.29,167.67 198.59,167.44 198.9,167.29C199.19,167.15 199.51,167.05 199.81,167.03C200.11,167.01 200.42,167.06 200.71,167.16C201.02,167.26 201.33,167.45 201.62,167.65C201.93,167.86 202.21,168.17 202.52,168.4C202.81,168.62 203.11,168.83 203.42,169C203.72,169.17 204.03,169.25 204.33,169.42C204.64,169.6 204.94,169.8 205.23,170.05C205.55,170.32 205.85,170.64 206.14,170.99C206.45,171.36 206.75,171.79 207.04,172.23C207.35,172.71 207.66,173.23 207.95,173.76C208.26,174.32 208.56,174.91 208.85,175.52C209.16,176.15 209.45,176.81 209.75,177.48C210.06,178.16 210.36,178.87 210.66,179.57C210.96,180.28 211.26,181.01 211.56,181.73C211.86,182.45 212.16,183.17 212.47,183.87C212.77,184.56 213.06,185.24 213.37,185.9C213.66,186.53 213.96,187.15 214.27,187.72C214.56,188.26 214.86,188.78 215.18,189.24C215.47,189.66 215.76,190.06 216.08,190.37C216.37,190.65 216.67,190.91 216.99,191.06C217.28,191.2 217.59,191.29 217.89,191.29C218.19,191.29 218.5,191.19 218.79,191.06C219.11,190.91 219.41,190.68 219.7,190.42C220.02,190.14 220.31,189.79 220.6,189.43C220.91,189.04 221.22,188.61 221.51,188.16C221.82,187.69 222.11,187.19 222.41,186.68C222.72,186.15 223.02,185.61 223.32,185.06C223.62,184.51 223.92,183.95 224.22,183.39C224.52,182.83 224.82,182.27 225.12,181.72C225.42,181.18 225.72,180.63 226.03,180.11C226.33,179.6 226.62,179.1 226.93,178.62C227.23,178.16 227.53,177.72 227.84,177.3C228.13,176.91 228.43,176.52 228.74,176.18C229.03,175.86 229.33,175.56 229.64,175.3C229.93,175.06 230.24,174.84 230.55,174.67C230.84,174.51 231.14,174.38 231.45,174.3C231.75,174.22 232.06,174.19 232.36,174.2C232.66,174.21 232.97,174.27 233.26,174.36C233.57,174.45 233.85,174.68 234.16,174.76C234.46,174.83 234.77,174.86 235.07,174.83C235.37,174.8 235.67,174.62 235.97,174.56C236.27,174.5 236.59,174.56 236.88,174.45C237.2,174.33 237.49,174.08 237.78,173.83C238.09,173.56 238.38,173.19 238.68,172.88C238.98,172.57 239.29,172.27 239.59,171.96C239.89,171.65 240.19,171.35 240.49,171.03C240.79,170.71 241.1,170.38 241.4,170.04C241.7,169.7 242,169.34 242.3,168.98C242.61,168.61 242.91,168.22 243.21,167.83C243.52,167.43 243.81,167.01 244.11,166.59C244.41,166.16 244.71,165.72 245.01,165.27C245.32,164.81 245.62,164.34 245.92,163.86C246.22,163.37 246.52,162.88 246.82,162.38C247.13,161.87 247.43,161.34 247.73,160.81C248.03,160.27 248.33,159.72 248.63,159.17C248.93,158.6 249.23,158.03 249.53,157.45C249.84,156.85 250.14,156.24 250.44,155.61C250.75,154.95 251.05,154.3 251.34,153.56C251.66,152.73 251.96,151.82 252.25,150.88C252.57,149.84 252.85,148.68 253.15,147.58C253.45,146.49 253.74,145.38 254.05,144.33C254.34,143.33 254.65,142.33 254.96,141.4C255.25,140.53 255.54,139.69 255.86,138.91C256.15,138.21 256.45,137.53 256.77,136.94C257.05,136.43 257.34,135.93 257.67,135.55C257.95,135.23 258.26,134.92 258.58,134.77C258.86,134.64 259.19,134.58 259.48,134.62C259.79,134.66 260.09,134.89 260.38,135.06C260.69,135.24 260.98,135.5 261.29,135.68C261.58,135.85 261.9,135.93 262.19,136.11C262.5,136.3 262.81,136.53 263.1,136.81C263.42,137.12 263.72,137.49 264,137.9C264.32,138.36 264.61,138.9 264.9,139.47C265.22,140.1 265.52,140.81 265.81,141.54C266.13,142.34 266.42,143.2 266.71,144.09C267.02,145.04 267.33,146.04 267.62,147.07C267.93,148.15 268.23,149.29 268.52,150.43C268.83,151.62 269.12,152.83 269.42,154.06C269.73,155.32 270.03,156.6 270.33,157.88C270.63,159.17 270.93,160.47 271.23,161.75C271.53,163.02 271.83,164.29 272.14,165.53C272.44,166.72 272.73,167.91 273.04,169.04C273.33,170.1 273.63,171.15 273.95,172.12C274.24,173.01 274.53,173.87 274.85,174.65C275.14,175.35 275.43,176.02 275.75,176.62C276.04,177.15 276.34,177.65 276.66,178.08C276.95,178.47 277.24,178.82 277.56,179.12C277.85,179.4 278.16,179.63 278.47,179.83C278.76,180.01 279.06,180.17 279.37,180.28C279.66,180.39 279.97,180.46 280.27,180.51C280.57,180.56 280.88,180.57 281.18,180.56C281.48,180.55 281.78,180.5 282.08,180.44C282.38,180.38 282.69,180.29 282.99,180.2C283.29,180.11 283.59,180 283.89,179.88C284.19,179.75 284.5,179.62 284.79,179.44C285.1,179.25 285.4,178.99 285.7,178.78C286,178.57 286.3,178.37 286.6,178.17C286.9,177.97 287.21,177.77 287.51,177.58C287.81,177.4 288.1,177.14 288.41,177.06C288.7,176.98 289.03,176.96 289.32,177.06C289.64,177.17 289.94,177.44 290.22,177.73C290.55,178.08 290.84,178.58 291.12,179.1C291.45,179.7 291.74,180.42 292.03,181.16C292.35,182 292.64,182.93 292.93,183.89C293.25,184.95 293.55,186.09 293.84,187.25C294.15,188.5 294.45,189.81 294.74,191.15C295.05,192.56 295.34,194.04 295.64,195.52C295.95,197.05 296.25,198.62 296.55,200.19C296.85,201.79 297.15,203.41 297.45,205.02C297.75,206.63 298.06,208.24 298.36,209.85C298.66,211.45 298.96,213.05 299.26,214.63C299.56,216.19 299.85,217.76 300.16,219.28C300.46,220.75 300.76,222.22 301.07,223.6C301.36,224.88 301.64,226.17 301.97,227.28C302.25,228.23 302.53,229.17 302.88,229.87C303.15,230.4 303.43,230.92 303.78,231.19C304.05,231.4 304.38,231.54 304.68,231.53C304.98,231.52 305.3,231.31 305.59,231.11C305.91,230.89 306.2,230.54 306.49,230.22C306.8,229.88 307.1,229.48 307.4,229.1C307.7,228.71 308,228.3 308.3,227.9C308.6,227.49 308.91,227.08 309.21,226.67C309.51,226.26 309.81,225.85 310.11,225.46C310.41,225.08 310.7,224.71 311.01,224.36C311.31,224.03 311.61,223.7 311.92,223.42C312.21,223.16 312.51,222.9 312.82,222.71C313.11,222.53 313.42,222.37 313.73,222.29C314.02,222.21 314.33,222.18 314.63,222.22C314.93,222.26 315.24,222.57 315.53,222.54C315.84,222.51 316.16,222.22 316.44,221.97C316.76,221.69 317.01,221.18 317.34,220.9C317.62,220.65 317.93,220.44 318.25,220.34C318.54,220.25 318.86,220.23 319.15,220.29C319.46,220.35 319.77,220.53 320.05,220.74C320.37,220.97 320.67,221.31 320.96,221.66C321.28,222.05 321.57,222.51 321.86,222.99C322.17,223.51 322.48,224.07 322.77,224.65C323.08,225.26 323.37,225.91 323.67,226.56C323.98,227.23 324.28,227.92 324.58,228.61C324.88,229.3 325.18,230.02 325.48,230.7C325.78,231.36 326.06,232.05 326.38,232.65C326.67,233.2 326.95,233.79 327.29,234.19C327.57,234.51 327.88,234.9 328.19,234.93C328.48,234.96 328.83,234.72 329.1,234.45C329.47,234.06 329.73,233.32 330,232.62C330.34,231.73 330.62,230.62 330.9,229.5C331.22,228.23 331.52,226.81 331.81,225.39C332.12,223.86 332.41,222.25 332.71,220.62C333.02,218.92 333.32,217.16 333.62,215.4C333.93,213.6 334.22,211.76 334.52,209.94C334.82,208.12 335.12,206.27 335.42,204.46C335.72,202.67 336.02,200.89 336.33,199.14C336.63,197.44 336.92,195.76 337.23,194.13C337.53,192.56 337.83,191 338.14,189.51C338.43,188.1 338.73,186.71 339.04,185.4C339.33,184.18 339.63,182.98 339.95,181.88C340.24,180.88 340.53,179.92 340.85,179.06C341.13,178.31 341.42,177.59 341.75,177C342.03,176.51 342.32,176.02 342.66,175.72C342.93,175.48 343.25,175.27 343.56,175.25C343.86,175.23 344.19,175.38 344.47,175.57C344.81,175.8 345.09,176.23 345.37,176.65C345.7,177.15 345.99,177.78 346.27,178.43C346.59,179.16 346.89,179.98 347.18,180.83C347.5,181.76 347.79,182.76 348.08,183.77C348.39,184.85 348.69,185.98 348.99,187.11C349.3,188.28 349.59,189.49 349.89,190.69C350.19,191.89 350.48,193.11 350.79,194.29C351.09,195.43 351.39,196.57 351.7,197.66C351.99,198.68 352.29,199.68 352.6,200.63C352.89,201.51 353.19,202.38 353.51,203.15C353.79,203.83 354.02,204.73 354.41,205.03C354.67,205.23 355.06,205.32 355.32,205.19C355.71,204.99 355.95,204.06 356.22,203.31C356.58,202.28 356.83,200.86 357.12,199.52C357.44,198.01 357.74,196.37 358.03,194.67C358.35,192.79 358.64,190.79 358.93,188.73C359.25,186.49 359.55,184.13 359.84,181.7C360.15,179.1 360.45,176.39 360.74,173.62C361.05,170.71 361.34,167.69 361.64,164.64C361.95,161.47 362.25,158.22 362.55,154.95C362.86,151.59 363.15,148.18 363.45,144.75C363.75,141.27 364.06,137.75 364.36,134.23C364.66,130.69 364.96,127.12 365.26,123.57C365.56,120.02 365.86,116.46 366.16,112.92C366.46,109.41 366.77,105.91 367.07,102.43C367.37,99 367.67,95.57 367.97,92.19C368.27,88.87 368.57,85.58 368.88,82.33C369.18,79.16 369.48,76.02 369.78,72.94C370.08,69.95 370.37,67 370.68,64.11C370.98,61.33 371.28,58.6 371.59,55.94C371.89,53.4 372.18,50.9 372.49,48.49C372.78,46.21 373.09,43.98 373.4,41.84C373.69,39.84 373.99,37.89 374.3,36.04C374.59,34.33 374.89,32.67 375.21,31.12C375.5,29.71 375.79,28.36 376.11,27.12C376.39,26.02 376.68,24.96 377.01,24.04C377.29,23.26 377.58,22.5 377.92,21.91C378.2,21.43 378.47,20.95 378.82,20.7C379.09,20.5 379.44,20.37 379.73,20.41C380.04,20.45 380.36,20.73 380.63,21.01C380.97,21.36 381.25,21.91 381.53,22.46C381.86,23.12 382.16,23.9 382.44,24.72C382.76,25.65 383.05,26.68 383.34,27.74C383.66,28.92 383.96,30.18 384.25,31.48C384.56,32.89 384.86,34.37 385.15,35.9C385.46,37.53 385.76,39.24 386.05,40.99C386.36,42.84 386.67,44.76 386.96,46.72C387.27,48.79 387.56,50.92 387.86,53.1C388.17,55.38 388.47,57.71 388.77,60.09C389.08,62.57 389.37,65.12 389.67,67.7C389.98,70.38 390.28,73.12 390.58,75.9C390.89,78.77 391.18,81.69 391.48,84.65C391.78,87.69 392.08,90.79 392.38,93.92C392.69,97.13 392.99,100.38 393.29,103.66C393.59,107 393.89,110.38 394.19,113.78C394.49,117.24 394.8,120.73 395.1,124.23C395.4,127.76 395.7,131.32 396,134.87C396.3,138.43 396.6,142.02 396.9,145.58C397.2,149.13 397.51,152.68 397.81,156.2C398.11,159.69 398.41,163.16 398.71,166.61C399.01,170.03 399.32,173.43 399.62,176.82C399.92,180.18 400.21,183.56 400.52,186.85C400.82,190.03 401.11,193.15 401.42,196.23C401.72,199.23 402.03,202.17 402.33,205.12C402.63,208.05 402.93,210.98 403.23,213.89C403.53,216.77 403.84,219.65 404.14,222.5C404.44,225.3 404.73,228.1 405.04,230.85C405.34,233.52 405.64,236.18 405.95,238.76C406.25,241.24 406.54,243.69 406.85,246.04C407.14,248.24 407.43,250.42 407.75,252.43C408.04,254.24 408.33,256.02 408.66,257.58C408.94,258.9 409.22,260.15 409.56,261.22C409.84,262.1 410.13,262.89 410.47,263.56C410.75,264.11 411.04,264.6 411.37,264.98C411.65,265.3 411.96,265.72 412.27,265.75C412.56,265.78 412.9,265.49 413.18,265.26C413.51,264.99 413.81,264.62 414.08,264.16C414.44,263.54 414.7,262.61 414.99,261.78C415.3,260.88 415.59,259.88 415.89,258.93C416.19,257.98 416.49,257.02 416.79,256.08C417.09,255.15 417.39,254.22 417.7,253.33C418,252.47 418.29,251.62 418.6,250.81C418.89,250.04 419.2,249.29 419.51,248.59C419.8,247.94 420.09,247.31 420.41,246.73C420.7,246.2 421,245.7 421.32,245.26C421.61,244.86 421.9,244.48 422.22,244.17C422.51,243.89 422.81,243.65 423.12,243.46C423.41,243.28 423.74,243.25 424.03,243.06C424.35,242.85 424.62,242.46 424.93,242.21C425.22,241.97 425.53,241.75 425.84,241.56C426.13,241.38 426.43,241.22 426.74,241.11C427.03,241 427.34,240.91 427.64,240.9C427.94,240.89 428.26,240.93 428.55,241.03C428.86,241.14 429.16,241.33 429.45,241.55C429.77,241.8 430.07,242.13 430.36,242.48C430.68,242.87 430.97,243.33 431.26,243.8C431.57,244.32 431.87,244.89 432.16,245.48C432.47,246.12 432.78,246.8 433.07,247.49C433.38,248.22 433.67,248.99 433.97,249.76C434.28,250.56 434.58,251.39 434.88,252.2C435.18,252.99 435.45,253.87 435.78,254.56C436.06,255.14 436.33,255.73 436.68,256.11C436.95,256.41 437.28,256.7 437.59,256.75C437.88,256.79 438.2,256.6 438.49,256.46C438.8,256.31 439.1,256.1 439.4,255.89C439.71,255.67 440.01,255.44 440.3,255.18C440.61,254.91 440.92,254.62 441.21,254.31C441.52,253.98 441.82,253.62 442.11,253.25C442.42,252.86 442.71,252.45 443.01,252.03C443.32,251.6 443.62,251.15 443.92,250.7C444.22,250.24 444.52,249.77 444.82,249.3C445.12,248.83 445.43,248.35 445.73,247.88C446.03,247.42 446.33,246.95 446.63,246.5C446.93,246.06 447.22,245.62 447.53,245.2C447.83,244.79 448.13,244.4 448.44,244.02C448.74,243.66 449.03,243.31 449.34,242.99C449.63,242.69 449.94,242.4 450.25,242.15C450.54,241.91 450.84,241.69 451.15,241.52C451.44,241.35 451.74,241.22 452.05,241.12C452.35,241.03 452.66,240.97 452.96,240.95C453.26,240.93 453.56,240.96 453.86,241.01C454.17,241.06 454.47,241.16 454.77,241.28C455.08,241.4 455.37,241.57 455.67,241.75C455.98,241.94 456.28,242.16 456.58,242.39C456.89,242.63 457.18,242.89 457.48,243.15C457.78,243.42 458.08,243.7 458.38,243.98C458.68,244.26 458.99,244.56 459.29,244.84C459.59,245.12 459.88,245.4 460.19,245.66C460.49,245.91 460.79,246.16 461.1,246.37Q461.39,246.56 462,246.87" style="vector-effect: non-scaling-stroke; fill: none; stroke: rgb(0, 176, 246); stroke-opacity: 1; stroke-width: 2px; opacity: 1;"/></g><g class="points"/><g class="text"/></g><g class="trace scatter trace093739" style="stroke-miterlimit: 2; opacity: 1;"><g class="fills"/><g class="errorbars"/><g class="lines"><path class="js-line" d="M0,41.65Q0.61,41.7 0.9,41.8C1.21,41.9 1.52,42.07 1.81,42.27C2.12,42.48 2.42,42.75 2.71,43.05C3.03,43.38 3.33,43.77 3.62,44.19C3.94,44.65 4.23,45.17 4.52,45.71C4.83,46.31 5.13,46.95 5.42,47.63C5.74,48.37 6.04,49.17 6.33,50C6.64,50.9 6.94,51.85 7.23,52.83C7.54,53.89 7.85,55.01 8.14,56.16C8.45,57.39 8.75,58.66 9.04,59.98C9.35,61.38 9.66,62.82 9.95,64.31C10.26,65.88 10.56,67.5 10.85,69.16C11.16,70.9 11.45,72.69 11.75,74.52C12.06,76.43 12.36,78.38 12.66,80.37C12.97,82.44 13.26,84.55 13.56,86.7C13.87,88.92 14.17,91.18 14.47,93.48C14.78,95.85 15.07,98.26 15.37,100.7C15.67,103.2 15.97,105.74 16.27,108.31C16.58,110.94 16.88,113.6 17.18,116.29C17.48,119.03 17.78,121.81 18.08,124.6C18.38,127.44 18.69,130.31 18.99,133.19C19.29,136.11 19.59,139.06 19.89,142.02C20.19,145.01 20.49,148.03 20.79,151.05C21.09,154.1 21.4,157.17 21.7,160.24C22,163.31 21.88,168.2 22.6,169.47C22.85,169.91 23.25,170.21 23.51,170.14C23.89,170.04 24.07,168.6 24.41,168C24.69,167.52 24.97,167.02 25.32,166.79C25.59,166.61 25.94,166.5 26.22,166.56C26.54,166.63 26.85,166.97 27.12,167.3C27.47,167.73 27.75,168.37 28.03,169.02C28.37,169.8 28.65,170.74 28.93,171.71C29.26,172.83 29.55,174.07 29.84,175.36C30.16,176.79 30.45,178.33 30.74,179.92C31.05,181.65 31.35,183.48 31.64,185.36C31.95,187.37 32.26,189.48 32.55,191.63C32.86,193.91 33.16,196.27 33.45,198.68C33.76,201.2 34.06,203.8 34.36,206.43C34.67,209.17 34.96,211.97 35.26,214.8C35.56,217.72 35.86,220.7 36.16,223.71C36.47,226.79 36.77,229.91 37.07,233.05C37.37,236.25 37.67,239.48 37.97,242.72C38.27,246 38.58,249.31 38.88,252.61C39.18,255.93 39.48,259.26 39.78,262.58C40.08,265.89 40.38,269.22 40.68,272.51C40.98,275.78 41.29,279.04 41.59,282.26C41.89,285.42 42.18,288.61 42.49,291.65C42.78,294.53 42.99,297.92 43.4,300.04C43.66,301.37 43.87,302.56 44.3,303.23C44.56,303.63 44.95,304.08 45.21,304C45.63,303.88 45.84,302.2 46.11,301.06C46.47,299.52 46.72,297.46 47.01,295.57C47.32,293.54 47.62,291.39 47.92,289.27C48.22,287.11 48.52,284.91 48.82,282.73C49.12,280.55 49.43,278.35 49.73,276.18C50.03,274.04 50.33,271.91 50.63,269.82C50.93,267.78 51.22,265.75 51.53,263.77C51.83,261.87 52.13,259.99 52.44,258.17C52.73,256.43 53.03,254.73 53.34,253.09C53.63,251.55 53.94,250.04 54.25,248.61C54.54,247.28 54.84,246 55.15,244.79C55.44,243.69 55.73,242.62 56.05,241.64C56.34,240.76 56.63,239.92 56.96,239.18C57.24,238.54 57.53,237.92 57.86,237.42C58.14,236.99 58.44,236.59 58.77,236.32C59.05,236.1 59.36,235.91 59.67,235.86C59.96,235.81 60.29,235.87 60.58,235.98C60.9,236.1 61.2,236.35 61.48,236.61C61.8,236.9 62.09,237.29 62.38,237.68C62.7,238.11 63,238.6 63.29,239.1C63.6,239.63 63.89,240.2 64.19,240.77C64.5,241.36 64.8,241.97 65.1,242.57C65.4,243.18 65.7,243.8 66,244.4C66.3,244.99 66.59,245.58 66.9,246.13C67.19,246.66 67.49,247.19 67.81,247.64C68.1,248.05 68.38,248.48 68.71,248.75C68.99,248.98 69.31,249.22 69.62,249.24C69.92,249.26 70.25,249.09 70.52,248.87C70.87,248.58 71.14,248.03 71.42,247.5C71.76,246.84 72.04,246.02 72.33,245.19C72.65,244.26 72.94,243.21 73.23,242.18C73.54,241.09 73.84,239.93 74.14,238.8C74.44,237.66 74.74,236.49 75.04,235.35C75.34,234.23 75.64,233.11 75.95,232.04C76.24,231.02 76.54,230 76.85,229.05C77.14,228.17 77.43,227.3 77.75,226.51C78.04,225.8 78.33,225.11 78.66,224.53C78.94,224.03 79.22,223.53 79.56,223.19C79.84,222.91 80.15,222.64 80.47,222.56C80.76,222.49 81.09,222.54 81.37,222.68C81.7,222.84 81.99,223.21 82.27,223.59C82.61,224.05 82.9,224.67 83.18,225.31C83.51,226.06 83.79,226.93 84.08,227.82C84.4,228.8 84.66,230 84.99,230.93C85.27,231.71 85.53,232.5 85.89,233.03C86.16,233.43 86.51,233.58 86.79,233.94C87.12,234.35 87.42,234.84 87.7,235.39C88.03,236.04 88.32,236.8 88.6,237.6C88.92,238.51 89.22,239.51 89.51,240.55C89.83,241.7 90.12,242.93 90.41,244.2C90.72,245.57 91.03,247 91.32,248.47C91.63,250.02 91.93,251.63 92.22,253.25C92.53,254.93 92.82,256.67 93.12,258.4C93.42,260.16 93.73,261.96 94.03,263.73C94.33,265.48 94.62,267.26 94.93,268.96C95.22,270.58 95.52,272.24 95.84,273.7C96.12,274.98 96.32,276.48 96.74,277.27C97,277.75 97.38,278.32 97.64,278.27C98.01,278.2 98.28,276.74 98.55,275.76C98.91,274.43 99.17,272.67 99.45,270.96C99.77,269.02 100.07,266.9 100.36,264.74C100.67,262.42 100.97,259.96 101.26,257.48C101.57,254.89 101.86,252.21 102.16,249.52C102.47,246.76 102.77,243.94 103.07,241.13C103.37,238.3 103.67,235.43 103.97,232.59C104.27,229.76 104.58,226.91 104.88,224.1C105.18,221.34 105.48,218.58 105.78,215.88C106.08,213.25 106.37,210.64 106.68,208.09C106.98,205.63 107.28,203.2 107.59,200.85C107.88,198.61 108.18,196.41 108.49,194.3C108.78,192.31 109.09,190.36 109.4,188.51C109.69,186.8 109.98,185.14 110.3,183.58C110.59,182.17 110.89,180.8 111.21,179.56C111.49,178.47 111.78,177.41 112.11,176.5C112.39,175.74 112.66,174.99 113.01,174.44C113.28,174.01 113.58,173.55 113.92,173.4C114.2,173.28 114.54,173.28 114.82,173.4C115.16,173.55 115.46,174.01 115.73,174.44C116.08,174.99 116.35,175.74 116.63,176.5C116.96,177.41 117.25,178.47 117.53,179.56C117.85,180.8 118.15,182.17 118.44,183.58C118.76,185.14 119.05,186.8 119.34,188.51C119.65,190.36 119.96,192.3 120.25,194.29C120.56,196.4 120.86,198.6 121.15,200.84C121.46,203.19 121.75,205.61 122.05,208.06C122.36,210.61 122.66,213.22 122.96,215.85C123.27,218.55 123.56,221.3 123.86,224.06C124.16,226.86 124.47,229.69 124.77,232.52C125.07,235.35 125.37,238.22 125.67,241.04C125.97,243.83 126.27,246.62 126.58,249.34C126.88,251.98 127.17,254.62 127.48,257.13C127.77,259.49 128.06,261.83 128.38,264C128.67,265.96 128.96,267.87 129.29,269.57C129.57,271.02 129.84,272.44 130.19,273.57C130.46,274.44 130.69,275.4 131.1,275.82C131.36,276.08 131.73,276.3 132,276.21C132.36,276.09 132.64,275.28 132.9,274.62C133.27,273.69 133.53,272.38 133.81,271.08C134.15,269.51 134.42,267.68 134.71,265.84C135.03,263.79 135.33,261.58 135.62,259.35C135.93,256.99 136.22,254.53 136.52,252.07C136.82,249.54 137.12,246.96 137.42,244.39C137.72,241.81 138.03,239.21 138.33,236.64C138.63,234.09 138.92,231.54 139.23,229.03C139.53,226.58 139.83,224.15 140.14,221.77C140.44,219.47 140.73,217.2 141.04,214.99C141.34,212.88 141.64,210.8 141.95,208.8C142.24,206.91 142.54,205.06 142.85,203.3C143.14,201.66 143.43,200.06 143.75,198.55C144.04,197.17 144.34,195.83 144.66,194.6C144.95,193.5 145.23,192.44 145.56,191.5C145.84,190.69 146.13,189.9 146.47,189.27C146.75,188.75 147.03,188.24 147.37,187.93C147.64,187.69 147.97,187.48 148.27,187.47C148.57,187.46 148.91,187.65 149.18,187.88C149.52,188.17 149.8,188.67 150.08,189.17C150.42,189.77 150.71,190.51 150.99,191.28C151.32,192.17 151.6,193.17 151.89,194.2C152.21,195.35 152.5,196.6 152.79,197.88C153.11,199.28 153.41,200.75 153.7,202.27C154.01,203.89 154.31,205.58 154.6,207.3C154.91,209.12 155.21,211.01 155.51,212.92C155.82,214.91 156.11,216.96 156.41,219.03C156.72,221.17 157.02,223.36 157.32,225.56C157.63,227.81 157.92,230.1 158.22,232.4C158.52,234.74 158.82,237.11 159.12,239.47C159.42,241.85 159.73,244.25 160.03,246.64C160.33,249.03 160.63,251.42 160.93,253.8C161.23,256.16 161.54,258.52 161.84,260.86C162.14,263.17 162.44,265.47 162.74,267.73C163.04,269.95 163.33,272.14 163.64,274.31C163.94,276.42 164.24,278.52 164.55,280.57C164.85,282.56 165.14,284.52 165.45,286.43C165.75,288.26 166.05,290.06 166.36,291.79C166.65,293.41 166.94,295.01 167.26,296.48C167.55,297.81 167.72,300.13 168.16,300.25C168.42,300.32 168.81,299.79 169.07,299.32C169.52,298.5 169.68,296.8 169.97,295.44C170.29,293.95 170.59,292.36 170.88,290.75C171.19,289.06 171.48,287.31 171.78,285.55C172.08,283.74 172.38,281.9 172.68,280.05C172.98,278.17 173.29,276.28 173.59,274.38C173.89,272.47 174.19,270.55 174.49,268.63C174.79,266.71 175.1,264.78 175.4,262.86C175.7,260.95 176,259.03 176.3,257.13C176.6,255.25 176.91,253.37 177.21,251.51C177.51,249.67 177.81,247.85 178.11,246.04C178.41,244.26 178.7,242.5 179.01,240.76C179.31,239.06 179.61,237.37 179.92,235.71C180.22,234.09 180.51,232.49 180.82,230.91C181.12,229.38 181.42,227.86 181.73,226.38C182.03,224.94 182.32,223.53 182.63,222.14C182.93,220.8 183.22,219.47 183.53,218.18C183.83,216.93 184.13,215.7 184.44,214.5C184.74,213.35 185.03,212.22 185.34,211.12C185.64,210.06 185.94,209.02 186.25,208.01C186.55,207.04 186.84,206.09 187.15,205.17C187.44,204.29 187.74,203.43 188.05,202.6C188.35,201.8 188.65,201.03 188.96,200.28C189.26,199.56 189.55,198.86 189.86,198.19C190.15,197.55 190.46,196.93 190.77,196.33C191.06,195.76 191.36,195.2 191.67,194.67C191.97,194.16 192.27,193.67 192.58,193.2C192.88,192.75 193.17,192.31 193.48,191.89C193.77,191.48 194.07,191.09 194.38,190.72C194.68,190.36 194.98,190.02 195.29,189.69C195.59,189.38 195.88,189.08 196.19,188.8C196.49,188.53 196.79,188.26 197.1,188.03C197.39,187.81 197.69,187.6 198,187.42C198.29,187.25 198.59,187.09 198.9,186.97C199.2,186.86 199.5,186.77 199.81,186.73C200.11,186.69 200.41,186.69 200.71,186.73C201.02,186.77 201.33,186.87 201.62,187C201.93,187.14 202.23,187.34 202.52,187.57C202.84,187.82 203.13,188.14 203.42,188.48C203.74,188.86 204.04,189.29 204.33,189.75C204.65,190.26 204.94,190.82 205.23,191.4C205.54,192.03 205.85,192.71 206.14,193.42C206.45,194.18 206.75,194.99 207.04,195.82C207.35,196.7 207.66,197.63 207.95,198.58C208.26,199.58 208.56,200.62 208.85,201.68C209.16,202.78 209.45,203.92 209.75,205.07C210.06,206.26 210.36,207.47 210.66,208.7C210.97,209.95 211.26,211.23 211.56,212.51C211.86,213.8 212.17,215.1 212.47,216.39C212.77,217.68 213.07,218.98 213.37,220.25C213.67,221.5 213.96,222.75 214.27,223.97C214.57,225.15 214.87,226.31 215.18,227.43C215.47,228.49 215.76,229.53 216.08,230.5C216.37,231.4 216.67,232.27 216.99,233.06C217.28,233.76 217.56,234.45 217.89,235.02C218.17,235.5 218.45,235.98 218.79,236.27C219.07,236.5 219.4,236.72 219.7,236.72C220,236.72 220.33,236.53 220.6,236.3C220.95,236 221.23,235.48 221.51,234.96C221.85,234.32 222.13,233.52 222.41,232.69C222.74,231.73 223.03,230.64 223.32,229.52C223.64,228.27 223.93,226.91 224.22,225.52C224.53,224.01 224.83,222.41 225.12,220.78C225.43,219.05 225.73,217.24 226.03,215.41C226.34,213.49 226.63,211.51 226.93,209.51C227.24,207.43 227.54,205.3 227.84,203.16C228.15,200.96 228.44,198.72 228.74,196.47C229.04,194.18 229.34,191.86 229.64,189.54C229.94,187.2 230.25,184.84 230.55,182.48C230.85,180.11 231.15,177.73 231.45,175.37C231.75,173.02 232.06,170.66 232.36,168.33C232.66,166.02 232.96,163.72 233.26,161.45C233.56,159.22 233.85,157.01 234.16,154.83C234.46,152.71 234.76,150.6 235.07,148.54C235.37,146.55 235.66,144.58 235.97,142.67C236.27,140.83 236.57,139.02 236.88,137.27C237.17,135.61 237.47,133.98 237.78,132.41C238.07,130.94 238.37,129.5 238.68,128.13C238.97,126.86 239.27,125.62 239.59,124.46C239.88,123.4 240.17,122.38 240.49,121.44C240.78,120.6 241.07,119.8 241.4,119.09C241.68,118.47 241.97,117.88 242.3,117.41C242.58,117.02 242.88,116.64 243.21,116.42C243.49,116.23 243.81,116.1 244.11,116.1C244.41,116.1 244.73,116.26 245.01,116.45C245.34,116.68 245.64,117.05 245.92,117.44C246.25,117.9 246.54,118.47 246.82,119.07C247.14,119.75 247.44,120.52 247.73,121.31C248.05,122.19 248.34,123.14 248.63,124.12C248.94,125.18 249.24,126.31 249.53,127.47C249.84,128.71 250.15,130.02 250.44,131.35C250.75,132.76 251.05,134.21 251.34,135.7C251.65,137.26 251.95,138.87 252.25,140.51C252.56,142.22 252.85,143.97 253.15,145.74C253.46,147.58 253.75,149.45 254.05,151.35C254.36,153.31 254.66,155.31 254.96,157.33C255.27,159.4 255.56,161.5 255.86,163.63C256.17,165.81 256.47,168.01 256.77,170.24C257.07,172.51 257.37,174.81 257.67,177.12C257.97,179.48 258.28,181.86 258.58,184.25C258.88,186.68 259.18,189.13 259.48,191.59C259.78,194.08 260.08,196.59 260.38,199.11C260.68,201.65 260.99,204.21 261.29,206.77C261.59,209.34 261.89,211.93 262.19,214.51C262.49,217.09 262.8,219.69 263.1,222.26C263.4,224.81 263.69,227.38 264,229.86C264.29,232.23 264.55,234.79 264.9,236.83C265.17,238.45 265.35,241.03 265.81,241.16C266.06,241.23 266.45,240.67 266.71,240.21C267.13,239.46 267.33,238.03 267.62,236.85C267.94,235.57 268.23,234.19 268.52,232.81C268.83,231.38 269.12,229.9 269.42,228.41C269.73,226.86 270.03,225.29 270.33,223.67C270.64,221.99 270.94,220.27 271.23,218.5C271.54,216.64 271.85,214.73 272.14,212.76C272.45,210.68 272.75,208.54 273.04,206.35C273.35,204.05 273.65,201.67 273.95,199.26C274.26,196.77 274.55,194.22 274.85,191.66C275.15,189.06 275.45,186.42 275.75,183.79C276.05,181.16 276.36,178.5 276.66,175.88C276.96,173.28 277.26,170.68 277.56,168.12C277.86,165.61 278.16,163.11 278.47,160.65C278.77,158.26 279.06,155.89 279.37,153.58C279.66,151.35 279.96,149.15 280.27,147.01C280.57,144.96 280.87,142.95 281.18,141C281.47,139.15 281.77,137.34 282.08,135.6C282.37,133.97 282.68,132.38 282.99,130.87C283.28,129.47 283.57,128.11 283.89,126.83C284.18,125.67 284.47,124.55 284.79,123.53C285.08,122.62 285.37,121.74 285.7,120.97C285.98,120.31 286.26,119.66 286.6,119.16C286.88,118.74 287.17,118.33 287.51,118.11C287.79,117.93 288.11,117.8 288.41,117.82C288.72,117.84 289.04,118.04 289.32,118.26C289.66,118.53 289.94,118.97 290.22,119.41C290.55,119.94 290.84,120.58 291.12,121.25C291.44,122.01 291.74,122.85 292.03,123.72C292.35,124.68 292.64,125.73 292.93,126.8C293.24,127.95 293.55,129.17 293.84,130.41C294.15,131.73 294.45,133.1 294.74,134.5C295.05,135.96 295.34,137.47 295.64,139C295.95,140.58 296.25,142.2 296.55,143.83C296.86,145.5 297.15,147.2 297.45,148.91C297.75,150.65 298.06,152.41 298.36,154.17C298.66,155.95 298.96,157.74 299.26,159.53C299.56,161.32 299.86,163.12 300.16,164.91C300.46,166.69 300.77,168.47 301.07,170.23C301.37,171.98 301.67,173.72 301.97,175.44C302.27,177.13 302.57,178.81 302.88,180.46C303.18,182.07 303.48,183.67 303.78,185.24C304.08,186.76 304.37,188.26 304.68,189.72C304.98,191.13 305.28,192.51 305.59,193.85C305.88,195.13 306.18,196.38 306.49,197.59C306.78,198.73 307.09,199.84 307.4,200.9C307.69,201.89 307.99,202.85 308.3,203.76C308.59,204.6 308.89,205.41 309.21,206.16C309.5,206.84 309.79,207.49 310.11,208.08C310.4,208.61 310.69,209.11 311.01,209.54C311.3,209.92 311.6,210.27 311.92,210.53C312.2,210.76 312.51,210.95 312.82,211.06C313.11,211.16 313.43,211.2 313.73,211.17C314.03,211.14 314.34,211.03 314.63,210.89C314.94,210.74 315.24,210.51 315.53,210.28C315.84,210.03 316.15,209.73 316.44,209.42C316.75,209.09 317.04,208.73 317.34,208.37C317.65,208 317.95,207.62 318.25,207.24C318.55,206.86 318.85,206.46 319.15,206.08C319.45,205.7 319.75,205.33 320.05,204.97C320.35,204.62 320.65,204.27 320.96,203.94C321.26,203.63 321.55,203.32 321.86,203.04C322.16,202.76 322.46,202.5 322.77,202.26C323.07,202.03 323.37,201.81 323.67,201.61C323.97,201.41 324.28,201.23 324.58,201.05C324.88,200.88 325.18,200.72 325.48,200.55C325.78,200.39 326.08,200.23 326.38,200.06C326.68,199.89 326.99,199.71 327.29,199.52C327.59,199.32 327.89,199.12 328.19,198.89C328.5,198.65 328.8,198.39 329.1,198.11C329.41,197.82 329.71,197.5 330,197.16C330.31,196.81 330.6,196.43 330.9,196.04C331.21,195.64 331.51,195.21 331.81,194.78C332.12,194.34 332.41,193.88 332.71,193.42C333.01,192.96 333.32,192.48 333.62,192.02C333.92,191.56 334.22,191.1 334.52,190.66C334.82,190.23 335.11,189.8 335.42,189.41C335.71,189.04 336.02,188.67 336.33,188.35C336.62,188.05 336.92,187.77 337.23,187.55C337.52,187.35 337.83,187.16 338.14,187.06C338.43,186.97 338.74,186.92 339.04,186.94C339.35,186.96 339.66,187.06 339.95,187.21C340.27,187.37 340.57,187.62 340.85,187.89C341.17,188.2 341.46,188.58 341.75,188.98C342.07,189.43 342.37,189.94 342.66,190.47C342.98,191.05 343.27,191.68 343.56,192.33C343.87,193.03 344.18,193.77 344.47,194.52C344.78,195.31 345.07,196.14 345.37,196.97C345.68,197.83 345.97,198.72 346.27,199.61C346.57,200.51 346.88,201.44 347.18,202.35C347.48,203.26 347.78,204.19 348.08,205.09C348.38,205.98 348.68,206.87 348.99,207.72C349.29,208.54 349.58,209.35 349.89,210.12C350.18,210.84 350.47,211.54 350.79,212.18C351.08,212.76 351.38,213.33 351.7,213.81C351.98,214.23 352.27,214.64 352.6,214.93C352.88,215.18 353.19,215.41 353.51,215.5C353.8,215.58 354.12,215.58 354.41,215.49C354.73,215.39 355.04,215.15 355.32,214.88C355.65,214.56 355.94,214.11 356.22,213.65C356.55,213.11 356.84,212.48 357.12,211.82C357.44,211.07 357.74,210.24 358.03,209.37C358.35,208.41 358.64,207.37 358.93,206.28C359.25,205.08 359.56,203.84 359.84,202.47C360.17,200.9 360.46,199.27 360.74,197.4C361.08,195.11 361.35,192.39 361.64,189.72C361.96,186.8 362.25,183.64 362.55,180.56C362.85,177.42 363.15,174.22 363.45,171.04C363.75,167.84 364.06,164.62 364.36,161.42C364.66,158.22 364.96,155.02 365.26,151.83C365.56,148.66 365.86,145.49 366.16,142.35C366.46,139.23 366.77,136.13 367.07,133.05C367.37,130.01 367.67,126.98 367.97,123.97C368.27,121.01 368.58,118.06 368.88,115.14C369.18,112.27 369.48,109.42 369.78,106.59C370.08,103.81 370.38,101.05 370.68,98.32C370.98,95.64 371.29,92.98 371.59,90.34C371.89,87.75 372.19,85.19 372.49,82.65C372.79,80.16 373.1,77.69 373.4,75.24C373.7,72.84 374,70.47 374.3,68.12C374.6,65.82 374.9,63.55 375.21,61.3C375.51,59.11 375.81,56.94 376.11,54.8C376.41,52.72 376.7,50.67 377.01,48.66C377.31,46.71 377.61,44.77 377.92,42.89C378.22,41.08 378.51,39.29 378.82,37.56C379.12,35.9 379.42,34.27 379.73,32.7C380.02,31.21 380.32,29.75 380.63,28.36C380.92,27.06 381.21,25.8 381.53,24.61C381.82,23.51 382.12,22.45 382.44,21.47C382.73,20.59 383.01,19.74 383.34,19C383.62,18.35 383.91,17.73 384.25,17.24C384.53,16.84 384.82,16.43 385.15,16.23C385.43,16.06 385.76,15.95 386.05,16C386.36,16.05 386.68,16.3 386.96,16.58C387.3,16.92 387.58,17.46 387.86,18C388.2,18.66 388.49,19.44 388.77,20.27C389.1,21.22 389.38,22.29 389.67,23.4C389.99,24.65 390.29,26 390.58,27.41C390.9,28.95 391.19,30.6 391.48,32.29C391.79,34.12 392.09,36.05 392.38,38.03C392.69,40.15 393,42.36 393.29,44.62C393.6,47.02 393.9,49.51 394.19,52.05C394.5,54.72 394.8,57.47 395.1,60.28C395.41,63.21 395.71,66.23 396,69.29C396.31,72.47 396.6,75.73 396.9,79.03C397.21,82.45 397.51,85.93 397.81,89.46C398.12,93.09 398.41,96.79 398.71,100.53C399.02,104.36 399.32,108.26 399.62,112.18C399.92,116.19 400.22,120.24 400.52,124.33C400.82,128.49 401.12,132.69 401.42,136.91C401.72,141.19 402.03,145.51 402.33,149.84C402.63,154.21 402.93,158.61 403.23,163.01C403.53,167.43 403.84,171.87 404.14,176.3C404.44,180.72 404.74,185.16 405.04,189.56C405.34,193.92 405.64,198.34 405.95,202.59C406.25,206.65 406.48,211.22 406.85,214.5C407.11,216.82 407.43,218.54 407.75,220.43C408.04,222.17 408.35,223.82 408.66,225.43C408.95,226.95 409.25,228.42 409.56,229.84C409.85,231.18 410.16,232.46 410.47,233.73C410.77,234.94 411.07,236.11 411.37,237.28C411.67,238.44 411.97,239.57 412.27,240.72C412.57,241.87 412.88,243.01 413.18,244.18C413.48,245.37 413.78,246.57 414.08,247.79C414.39,249.04 414.69,250.31 414.99,251.6C415.3,252.93 415.59,254.27 415.89,255.64C416.19,257.04 416.49,258.47 416.79,259.91C417.09,261.38 417.4,262.89 417.7,264.37C418,265.84 418.26,267.48 418.6,268.76C418.88,269.79 419.23,271.5 419.51,271.49C419.84,271.48 420.14,269.17 420.41,267.75C420.76,265.92 421.02,263.49 421.32,261.39C421.62,259.32 421.91,257.22 422.22,255.22C422.51,253.31 422.81,251.44 423.12,249.65C423.41,247.98 423.72,246.35 424.03,244.81C424.32,243.39 424.61,242.01 424.93,240.73C425.22,239.57 425.52,238.46 425.84,237.44C426.12,236.54 426.41,235.68 426.74,234.94C427.02,234.31 427.3,233.7 427.64,233.23C427.92,232.85 428.22,232.48 428.55,232.29C428.83,232.13 429.16,232.04 429.45,232.08C429.76,232.12 430.08,232.33 430.36,232.56C430.69,232.83 430.98,233.25 431.26,233.67C431.58,234.15 431.87,234.73 432.16,235.31C432.48,235.94 432.77,236.65 433.07,237.34C433.38,238.06 433.67,238.82 433.97,239.56C434.27,240.3 434.57,241.05 434.88,241.76C435.18,242.44 435.47,243.11 435.78,243.74C436.07,244.34 436.37,244.91 436.68,245.47C436.98,246.01 437.29,246.53 437.59,247.06C437.89,247.6 438.19,248.13 438.49,248.69C438.8,249.27 439.11,249.87 439.4,250.49C439.71,251.15 440.01,251.83 440.3,252.54C440.61,253.29 440.92,254.07 441.21,254.87C441.52,255.72 441.82,256.6 442.11,257.5C442.42,258.45 442.71,259.42 443.01,260.42C443.32,261.46 443.62,262.52 443.92,263.6C444.23,264.71 444.52,265.85 444.82,267C445.13,268.18 445.43,269.39 445.73,270.6C446.03,271.83 446.33,273.09 446.63,274.34C446.93,275.59 447.25,278.09 447.53,278.08C447.87,278.07 448.15,274.32 448.44,272.29C448.76,270.05 449.04,267.55 449.34,265.21C449.64,262.9 449.95,260.6 450.25,258.32C450.55,256.09 450.85,253.87 451.15,251.68C451.45,249.54 451.74,247.42 452.05,245.34C452.35,243.32 452.65,241.32 452.96,239.36C453.26,237.47 453.55,235.61 453.86,233.8C454.16,232.06 454.46,230.35 454.77,228.69C455.06,227.11 455.36,225.56 455.67,224.07C455.96,222.66 456.27,221.28 456.58,219.96C456.87,218.72 457.17,217.52 457.48,216.38C457.77,215.32 458.06,214.3 458.38,213.35C458.67,212.48 458.97,211.64 459.29,210.87C459.58,210.18 459.87,209.52 460.19,208.94C460.47,208.43 460.77,207.95 461.1,207.57Q461.38,207.24 462,206.75" style="vector-effect: non-scaling-stroke; fill: none; stroke: rgb(231, 107, 243); stroke-opacity: 1; stroke-width: 2px; opacity: 1;"/></g><g class="points"/><g class="text"/></g></g></g><g class="overplot"/><path class="xlines-above crisp" d="M0,0" style="fill: none;"/><path class="ylines-above crisp" d="M0,0" style="fill: none;"/><g class="overlines-above"/><g class="xaxislayer-above"><g class="xtick"><text text-anchor="middle" x="0" y="433" transform="translate(80,0)" style="font-family: 'Open Sans', verdana, arial, sans-serif; font-size: 12px; fill: rgb(42, 63, 95); fill-opacity: 1; white-space: pre;">0</text></g><g class="xtick"><text text-anchor="middle" x="0" y="433" transform="translate(170.23000000000002,0)" style="font-family: 'Open Sans', verdana, arial, sans-serif; font-size: 12px; fill: rgb(42, 63, 95); fill-opacity: 1; white-space: pre;">100</text></g><g class="xtick"><text text-anchor="middle" x="0" y="433" transform="translate(260.47,0)" style="font-family: 'Open Sans', verdana, arial, sans-serif; font-size: 12px; fill: rgb(42, 63, 95); fill-opacity: 1; white-space: pre;">200</text></g><g class="xtick"><text text-anchor="middle" x="0" y="433" transform="translate(350.7,0)" style="font-family: 'Open Sans', verdana, arial, sans-serif; font-size: 12px; fill: rgb(42, 63, 95); fill-opacity: 1; white-space: pre;">300</text></g><g class="xtick"><text text-anchor="middle" x="0" y="433" transform="translate(440.94,0)" style="font-family: 'Open Sans', verdana, arial, sans-serif; font-size: 12px; fill: rgb(42, 63, 95); fill-opacity: 1; white-space: pre;">400</text></g><g class="xtick"><text text-anchor="middle" x="0" y="433" transform="translate(531.1700000000001,0)" style="font-family: 'Open Sans', verdana, arial, sans-serif; font-size: 12px; fill: rgb(42, 63, 95); fill-opacity: 1; white-space: pre;">500</text></g></g><g class="yaxislayer-above"><g class="ytick"><text text-anchor="end" x="79" y="4.199999999999999" transform="translate(0,390.43)" style="font-family: 'Open Sans', verdana, arial, sans-serif; font-size: 12px; fill: rgb(42, 63, 95); fill-opacity: 1; white-space: pre;">200</text></g><g class="ytick"><text text-anchor="end" x="79" y="4.199999999999999" transform="translate(0,326.93)" style="font-family: 'Open Sans', verdana, arial, sans-serif; font-size: 12px; fill: rgb(42, 63, 95); fill-opacity: 1; white-space: pre;">400</text></g><g class="ytick"><text text-anchor="end" x="79" y="4.199999999999999" transform="translate(0,263.44)" style="font-family: 'Open Sans', verdana, arial, sans-serif; font-size: 12px; fill: rgb(42, 63, 95); fill-opacity: 1; white-space: pre;">600</text></g><g class="ytick"><text text-anchor="end" x="79" y="4.199999999999999" transform="translate(0,199.95)" style="font-family: 'Open Sans', verdana, arial, sans-serif; font-size: 12px; fill: rgb(42, 63, 95); fill-opacity: 1; white-space: pre;">800</text></g><g class="ytick"><text text-anchor="end" x="79" y="4.199999999999999" transform="translate(0,136.45)" style="font-family: 'Open Sans', verdana, arial, sans-serif; font-size: 12px; fill: rgb(42, 63, 95); fill-opacity: 1; white-space: pre;">1000</text></g></g><g class="overaxes-above"/></g></g><g class="polarlayer"/><g class="ternarylayer"/><g class="geolayer"/><g class="funnelarealayer"/><g class="pielayer"/><g class="treemaplayer"/><g class="sunburstlayer"/><g class="glimages"/><defs id="topdefs-47c3e7"><g class="clips"/><clipPath id="legend47c3e7"><rect width="137" height="67" x="0" y="0"/></clipPath></defs><g class="layer-above"><g class="imagelayer"/><g class="shapelayer"/></g><g class="infolayer"><g class="legend" pointer-events="all" transform="translate(551.24, 100)"><rect class="bg" shape-rendering="crispEdges" width="137" height="67" x="0" y="0" style="stroke: rgb(68, 68, 68); stroke-opacity: 1; fill: rgb(255, 255, 255); fill-opacity: 1; stroke-width: 0px;"/><g class="scrollbox" transform="translate(0, 0)" clip-path="url('#legend47c3e7')"><g class="groups"><g class="traces" transform="translate(0, 14.5)" style="opacity: 1;"><text class="legendtext" text-anchor="start" x="40" y="4.680000000000001" style="font-family: 'Open Sans', verdana, arial, sans-serif; font-size: 12px; fill: rgb(42, 63, 95); fill-opacity: 1; white-space: pre;">Average Class I</text><g class="layers" style="opacity: 1;"><g class="legendfill"/><g class="legendlines"><path class="js-line" d="M5,0h30" style="fill: none; stroke: rgb(0, 100, 80); stroke-opacity: 1; stroke-width: 2px;"/></g><g class="legendsymbols"><g class="legendpoints"/></g></g><rect class="legendtoggle" x="0" y="-9.5" width="131.15625" height="19" style="fill: rgb(0, 0, 0); fill-opacity: 0;"/></g><g class="traces" transform="translate(0, 33.5)" style="opacity: 1;"><text class="legendtext" text-anchor="start" x="40" y="4.680000000000001" style="font-family: 'Open Sans', verdana, arial, sans-serif; font-size: 12px; fill: rgb(42, 63, 95); fill-opacity: 1; white-space: pre;">Average Class II</text><g class="layers" style="opacity: 1;"><g class="legendfill"/><g class="legendlines"><path class="js-line" d="M5,0h30" style="fill: none; stroke: rgb(0, 176, 246); stroke-opacity: 1; stroke-width: 2px;"/></g><g class="legendsymbols"><g class="legendpoints"/></g></g><rect class="legendtoggle" x="0" y="-9.5" width="131.15625" height="19" style="fill: rgb(0, 0, 0); fill-opacity: 0;"/></g><g class="traces" transform="translate(0, 52.5)" style="opacity: 1;"><text class="legendtext" text-anchor="start" x="40" y="4.680000000000001" style="font-family: 'Open Sans', verdana, arial, sans-serif; font-size: 12px; fill: rgb(42, 63, 95); fill-opacity: 1; white-space: pre;">Average Class III</text><g class="layers" style="opacity: 1;"><g class="legendfill"/><g class="legendlines"><path class="js-line" d="M5,0h30" style="fill: none; stroke: rgb(231, 107, 243); stroke-opacity: 1; stroke-width: 2px;"/></g><g class="legendsymbols"><g class="legendpoints"/></g></g><rect class="legendtoggle" x="0" y="-9.5" width="131.15625" height="19" style="fill: rgb(0, 0, 0); fill-opacity: 0;"/></g></g></g><rect class="scrollbar" rx="20" ry="3" width="0" height="0" x="0" y="0" style="fill: rgb(128, 139, 164); fill-opacity: 1;"/></g><g class="g-gtitle"><text class="gtitle" x="35" y="50" text-anchor="start" dy="0em" style="font-family: 'Open Sans', verdana, arial, sans-serif; font-size: 17px; fill: rgb(42, 63, 95); opacity: 1; font-weight: normal; white-space: pre;">Average curve: volume_group</text></g><g class="g-xtitle"><text class="xtitle" x="311" y="460.8" text-anchor="middle" style="font-family: 'Open Sans', verdana, arial, sans-serif; font-size: 14px; fill: rgb(42, 63, 95); opacity: 1; font-weight: normal; white-space: pre;">Domain</text></g><g class="g-ytitle"><text class="ytitle" transform="rotate(-90,27.496875000000003,260)" x="27.496875000000003" y="260" text-anchor="middle" style="font-family: 'Open Sans', verdana, arial, sans-serif; font-size: 14px; fill: rgb(42, 63, 95); opacity: 1; font-weight: normal; white-space: pre;">Frequency</text></g></g></svg>