<svg class="main-svg" xmlns="http://www.w3.org/2000/svg" xmlns:xlink="http://www.w3.org/1999/xlink" width="700" height="500" style="" viewBox="0 0 700 500"><rect x="0" y="0" width="700" height="500" style="fill: rgb(255, 255, 255); fill-opacity: 1;"/><defs id="defs-5cbd3a"><g class="clips"><clipPath id="clip5cbd3axyplot" class="plotclip"><rect width="462" height="320"/></clipPath><clipPath class="axesclip" id="clip5cbd3ax"><rect x="80" y="0" width="462" height="500"/></clipPath><clipPath class="axesclip" id="clip5cbd3ay"><rect x="0" y="100" width="700" height="320"/></clipPath><clipPath class="axesclip" id="clip5cbd3axy"><rect x="80" y="100" width="462" height="320"/></clipPath></g><g class="gradients"/></defs><g class="bglayer"><rect class="bg" x="80" y="100" width="462" height="320" style="fill: rgb(229, 236, 246); fill-opacity: 1; stroke-width: 0;"/></g><g class="layer-below"><g class="imagelayer"/><g class="shapelayer"/></g><g class="cartesianlayer"><g class="subplot xy"><g class="layer-subplot"><g class="shapelayer"/><g class="imagelayer"/></g><g class="gridlayer"><g class="x"><path class="xgrid crisp" transform="translate(170.23000000000002,0)" d="M0,100v320" style="stroke: rgb(255, 255, 255); stroke-opacity: 1; stroke-width: 1px;"/><path class="xgrid crisp" transform="translate(260.47,0)" d="M0,100v320" style="stroke: rgb(255, 255, 255); stroke-opacity: 1; stroke-width: 1px;"/><path class="xgrid crisp" transform="translate(350.7,0)" d="M0,100v320" style="stroke: rgb(255, 255, 255); stroke-opacity: 1; stroke-width: 1px;"/><path class="xgrid crisp" transform="translate(440.94,0)" d="M0,100v320" style="stroke: rgb(255, 255, 255); stroke-opacity: 1; stroke-width: 1px;"/><path class="xgrid crisp" transform="translate(531.1700000000001,0)" d="M0,100v320" style="stroke: rgb(255, 255, 255); stroke-opacity: 1; stroke-width: 1px;"/></g><g class="y"><path class="ygrid crisp" transform="translate(0,390.43)" d="M80,0h462" style="stroke: rgb(255, 255, 255); stroke-opacity: 1; stroke-width: 1px;"/><path class="ygrid crisp" transform="translate(0,326.93)" d="M80,0h462" style="stroke: rgb(255, 255, 255); stroke-opacity: 1; stroke-width: 1px;"/><path class="ygrid crisp" transform="translate(0,263.44)" d="M80,0h462" style="stroke: rgb(255, 255, 255); stroke-opacity: 1; stroke-width: 1px;"/><path class="ygrid crisp" transform="translate(0,199.95)" d="M80,0h462" style="stroke: rgb(255, 255, 255); stroke-opacity: 1; stroke-width: 1px;"/><path class="ygrid crisp" transform="translate(0,136.45)" d="M80,0h462" style="stroke: rgb(255, 255, 255); stroke-opacity: 1; stroke-width: 1px;"/></g></g><g class="zerolinelayer"><path class="xzl zl crisp" transform="translate(80,0)" d="M0,100v320" style="stroke: rgb(255, 255, 255); stroke-opacity: 1; stroke-width: 2px;"/></g><path class="xlines-below"/><path class="ylines-below"/><g class="overlines-below"/><g class="xaxislayer-below"/><g class="yaxislayer-below"/><g class="overaxes-below"/><g class="plot" transform="translate(80, 100)" clip-path="url('#clip5cbd3axyplot')"><g class="scatterlayer mlayer"><g class="trace scatter trace3f059e" style="stroke-miterlimit: 2; opacity: 1;"><g class="fills"/><g class="errorbars"/><g class="lines"><path class="js-line" d="M0,90.52Q0.62,90.69 0.9,90.9C1.24,91.16 1.53,91.59 1.81,92.04C2.15,92.58 2.43,93.25 2.71,93.95C3.04,94.76 3.33,95.67 3.62,96.62C3.94,97.68 4.23,98.83 4.52,100.02C4.83,101.31 5.13,102.68 5.42,104.09C5.73,105.6 6.04,107.17 6.33,108.78C6.64,110.47 6.93,112.22 7.23,114C7.54,115.85 7.84,117.74 8.14,119.65C8.45,121.61 8.74,123.62 9.04,125.62C9.34,127.65 9.65,129.71 9.95,131.76C10.25,133.81 10.55,135.88 10.85,137.91C11.15,139.9 11.44,141.9 11.75,143.8C12.04,145.59 12.35,147.34 12.66,149.01C12.95,150.56 13.24,152.06 13.56,153.48C13.85,154.79 14.15,156.06 14.47,157.23C14.76,158.28 15.05,159.3 15.37,160.21C15.65,161 15.94,161.75 16.27,162.37C16.55,162.89 16.84,163.38 17.18,163.73C17.46,164.02 17.76,164.26 18.08,164.37C18.37,164.47 18.69,164.47 18.99,164.42C19.3,164.37 19.6,164.22 19.89,164.07C20.2,163.92 20.49,163.71 20.79,163.51C21.1,163.31 21.39,163.07 21.7,162.87C22,162.67 22.29,162.47 22.6,162.31C22.9,162.16 23.2,162.01 23.51,161.93C23.81,161.86 24.11,161.81 24.41,161.84C24.72,161.87 25.03,161.98 25.32,162.14C25.64,162.32 25.94,162.6 26.22,162.92C26.55,163.29 26.84,163.76 27.12,164.26C27.45,164.84 27.74,165.52 28.03,166.24C28.35,167.05 28.64,167.96 28.93,168.9C29.25,169.95 29.55,171.09 29.84,172.27C30.16,173.56 30.45,174.92 30.74,176.33C31.05,177.84 31.35,179.41 31.64,181.03C31.95,182.76 32.26,184.56 32.55,186.4C32.86,188.35 33.16,190.37 33.45,192.43C33.76,194.59 34.06,196.82 34.36,199.08C34.67,201.43 34.96,203.84 35.26,206.26C35.56,208.74 35.86,211.28 36.16,213.8C36.46,216.35 36.77,218.92 37.07,221.47C37.37,223.99 37.66,226.53 37.97,229.01C38.27,231.43 38.58,233.8 38.88,236.18C39.18,238.55 39.48,240.91 39.78,243.26C40.08,245.59 40.38,247.91 40.68,250.21C40.98,252.48 41.28,254.75 41.59,256.98C41.89,259.15 42.18,261.33 42.49,263.42C42.79,265.42 43.08,267.45 43.4,269.28C43.69,270.9 43.94,272.55 44.3,273.83C44.57,274.8 44.84,275.72 45.21,276.34C45.47,276.78 45.81,277.34 46.11,277.34C46.41,277.34 46.75,276.81 47.01,276.37C47.4,275.71 47.64,274.6 47.92,273.59C48.25,272.41 48.53,271.05 48.82,269.69C49.14,268.19 49.43,266.58 49.73,264.97C50.04,263.29 50.33,261.55 50.63,259.81C50.93,258.04 51.23,256.23 51.53,254.43C51.83,252.61 52.14,250.79 52.44,248.94C52.74,247.06 53.04,245.15 53.34,243.24C53.64,241.3 53.94,239.3 54.25,237.36C54.55,235.47 54.84,233.57 55.15,231.74C55.44,229.98 55.74,228.24 56.05,226.56C56.35,224.95 56.65,223.39 56.96,221.85C57.26,220.36 57.55,218.88 57.86,217.45C58.15,216.09 58.45,214.73 58.77,213.47C59.06,212.33 59.35,211.22 59.67,210.22C59.96,209.33 60.25,208.48 60.58,207.75C60.86,207.13 61.14,206.53 61.48,206.09C61.75,205.73 62.05,205.38 62.38,205.23C62.66,205.1 63,205.07 63.29,205.15C63.61,205.24 63.91,205.51 64.19,205.79C64.52,206.13 64.82,206.61 65.1,207.1C65.42,207.66 65.71,208.31 66,208.98C66.32,209.72 66.61,210.52 66.9,211.35C67.21,212.25 67.52,213.21 67.81,214.19C68.12,215.24 68.41,216.36 68.71,217.46C69.01,218.59 69.32,219.73 69.62,220.88C69.92,222.03 70.22,223.18 70.52,224.36C70.82,225.58 71.12,226.81 71.42,228.07C71.73,229.36 72.03,230.68 72.33,232C72.63,233.33 72.92,234.68 73.23,236C73.53,237.29 73.84,238.55 74.14,239.82C74.44,241.09 74.74,242.36 75.04,243.63C75.34,244.9 75.65,246.16 75.95,247.42C76.25,248.67 76.55,249.92 76.85,251.14C77.15,252.33 77.44,253.52 77.75,254.66C78.04,255.74 78.35,256.78 78.66,257.8C78.95,258.77 79.25,259.71 79.56,260.63C79.86,261.51 80.16,262.38 80.47,263.22C80.77,264.03 81.07,264.82 81.37,265.6C81.67,266.35 81.96,267.09 82.27,267.82C82.57,268.53 82.88,269.22 83.18,269.9C83.48,270.57 83.77,271.23 84.08,271.88C84.38,272.51 84.67,273.17 84.99,273.75C85.28,274.28 85.56,274.83 85.89,275.25C86.17,275.61 86.47,275.91 86.79,276.14C87.08,276.35 87.4,276.45 87.7,276.61C88,276.76 88.3,276.92 88.6,277.07C88.9,277.22 89.2,277.38 89.51,277.52C89.81,277.65 90.11,277.75 90.41,277.88C90.71,278.01 91.01,278.17 91.32,278.28C91.62,278.39 91.92,278.47 92.22,278.54C92.52,278.61 92.82,278.67 93.12,278.72C93.42,278.77 93.73,278.83 94.03,278.82C94.33,278.81 94.64,278.8 94.93,278.69C95.25,278.57 95.56,278.33 95.84,278.06C96.16,277.76 96.46,277.37 96.74,276.93C97.07,276.42 97.36,275.8 97.64,275.15C97.96,274.41 98.26,273.57 98.55,272.72C98.87,271.79 99.16,270.79 99.45,269.77C99.76,268.69 100.06,267.55 100.36,266.4C100.67,265.2 100.96,263.96 101.26,262.71C101.56,261.42 101.86,260.1 102.16,258.77C102.47,257.41 102.77,256.02 103.07,254.63C103.37,253.22 103.67,251.79 103.97,250.37C104.27,248.94 104.58,247.51 104.88,246.08C105.18,244.66 105.48,243.23 105.78,241.82C106.08,240.43 106.38,239.06 106.68,237.67C106.98,236.28 107.29,234.87 107.59,233.49C107.89,232.13 108.18,230.76 108.49,229.44C108.79,228.17 109.09,226.93 109.4,225.73C109.69,224.59 109.99,223.47 110.3,222.41C110.59,221.42 110.89,220.46 111.21,219.56C111.5,218.73 111.79,217.93 112.11,217.2C112.4,216.55 112.68,215.92 113.01,215.39C113.29,214.93 113.59,214.48 113.92,214.16C114.2,213.88 114.5,213.62 114.82,213.52C115.11,213.43 115.44,213.42 115.73,213.51C116.05,213.6 116.35,213.84 116.63,214.11C116.96,214.42 117.25,214.87 117.53,215.33C117.86,215.87 118.15,216.5 118.44,217.16C118.76,217.9 119.05,218.73 119.34,219.58C119.66,220.51 119.96,221.52 120.25,222.55C120.56,223.66 120.86,224.83 121.15,226.03C121.46,227.3 121.75,228.62 122.05,229.97C122.36,231.38 122.66,232.83 122.96,234.3C123.27,235.82 123.56,237.37 123.86,238.93C124.16,240.52 124.47,242.14 124.77,243.75C125.07,245.37 125.37,247.01 125.67,248.61C125.97,250.19 126.27,251.76 126.58,253.29C126.88,254.76 127.17,256.22 127.48,257.62C127.77,258.94 128.06,260.25 128.38,261.47C128.67,262.6 128.97,263.7 129.29,264.7C129.57,265.58 129.85,266.44 130.19,267.14C130.47,267.72 130.75,268.3 131.1,268.66C131.37,268.94 131.69,269.17 132,269.22C132.29,269.26 132.62,269.14 132.9,268.98C133.23,268.79 133.53,268.43 133.81,268.07C134.14,267.65 134.43,267.12 134.71,266.56C135.04,265.92 135.33,265.16 135.62,264.42C135.93,263.64 136.22,262.81 136.52,262.01C136.82,261.21 137.11,260.4 137.42,259.61C137.72,258.84 138.02,258.08 138.33,257.35C138.62,256.65 138.92,255.97 139.23,255.32C139.52,254.71 139.83,254.12 140.14,253.57C140.43,253.07 140.72,252.58 141.04,252.15C141.33,251.76 141.63,251.39 141.95,251.09C142.24,250.82 142.54,250.57 142.85,250.4C143.14,250.25 143.44,250.13 143.75,250.09C144.05,250.05 144.36,250.07 144.66,250.14C144.97,250.22 145.27,250.38 145.56,250.56C145.88,250.76 146.18,251.03 146.47,251.32C146.79,251.64 147.08,252.01 147.37,252.41C147.68,252.84 147.98,253.31 148.27,253.81C148.58,254.35 148.89,254.92 149.18,255.52C149.49,256.16 149.79,256.83 150.08,257.52C150.39,258.24 150.69,258.99 150.99,259.75C151.3,260.54 151.59,261.35 151.89,262.16C152.19,262.97 152.48,263.81 152.79,264.59C153.08,265.32 153.39,265.99 153.7,266.68C154,267.35 154.29,268.02 154.6,268.65C154.89,269.25 155.2,269.84 155.51,270.39C155.8,270.91 156.1,271.4 156.41,271.88C156.71,272.34 157.02,272.78 157.32,273.22C157.62,273.65 157.92,274.07 158.22,274.49C158.52,274.9 158.82,275.31 159.12,275.72C159.42,276.13 159.73,276.53 160.03,276.93C160.33,277.33 160.63,277.72 160.93,278.12C161.23,278.51 161.54,278.91 161.84,279.3C162.14,279.69 162.44,280.09 162.74,280.48C163.04,280.88 163.34,281.27 163.64,281.67C163.94,282.07 164.24,282.49 164.55,282.86C164.84,283.21 165.15,283.52 165.45,283.83C165.75,284.14 166.06,284.43 166.36,284.72C166.66,285.01 166.96,285.3 167.26,285.58C167.56,285.85 167.85,286.13 168.16,286.38C168.46,286.62 168.76,286.85 169.07,287.04C169.36,287.21 169.66,287.38 169.97,287.47C170.27,287.56 170.58,287.62 170.88,287.59C171.18,287.56 171.49,287.43 171.78,287.27C172.09,287.1 172.39,286.83 172.68,286.56C173,286.26 173.3,285.9 173.59,285.52C173.91,285.1 174.2,284.65 174.49,284.15C174.81,283.59 175.11,282.97 175.4,282.32C175.72,281.6 176.01,280.82 176.3,280C176.62,279.11 176.92,278.14 177.21,277.16C177.52,276.11 177.82,275 178.11,273.87C178.42,272.67 178.72,271.42 179.01,270.14C179.32,268.8 179.62,267.42 179.92,266.01C180.23,264.55 180.52,263.05 180.82,261.54C181.13,259.98 181.43,258.39 181.73,256.78C182.04,255.14 182.33,253.47 182.63,251.79C182.93,250.08 183.23,248.35 183.53,246.61C183.83,244.85 184.14,243.08 184.44,241.3C184.74,239.51 185.04,237.7 185.34,235.89C185.64,234.07 185.95,232.25 186.25,230.43C186.55,228.61 186.85,226.79 187.15,224.97C187.45,223.16 187.75,221.35 188.05,219.55C188.35,217.76 188.66,215.98 188.96,214.21C189.26,212.46 189.56,210.73 189.86,209.01C190.16,207.32 190.47,205.64 190.77,203.98C191.07,202.35 191.36,200.74 191.67,199.15C191.97,197.6 192.27,196.08 192.58,194.58C192.88,193.13 193.17,191.7 193.48,190.3C193.77,188.96 194.07,187.63 194.38,186.35C194.68,185.13 194.98,183.93 195.29,182.77C195.58,181.67 195.88,180.6 196.19,179.58C196.48,178.62 196.79,177.7 197.1,176.82C197.39,176.01 197.68,175.22 198,174.5C198.29,173.84 198.58,173.21 198.9,172.65C199.19,172.15 199.49,171.67 199.81,171.28C200.09,170.94 200.39,170.62 200.71,170.41C201,170.22 201.31,170.07 201.62,170.03C201.92,169.99 202.23,170.04 202.52,170.15C202.84,170.27 203.14,170.52 203.42,170.78C203.74,171.08 204.04,171.48 204.33,171.9C204.65,172.37 204.94,172.92 205.23,173.5C205.55,174.14 205.85,174.85 206.14,175.58C206.46,176.37 206.75,177.22 207.04,178.1C207.35,179.04 207.66,180.03 207.95,181.05C208.26,182.13 208.56,183.25 208.85,184.4C209.16,185.6 209.45,186.85 209.75,188.11C210.06,189.42 210.36,190.77 210.66,192.14C210.97,193.55 211.26,194.99 211.56,196.45C211.87,197.94 212.17,199.46 212.47,200.99C212.77,202.54 213.07,204.13 213.37,205.7C213.67,207.27 213.97,208.85 214.27,210.4C214.57,211.93 214.88,213.44 215.18,214.96C215.48,216.48 215.78,218 216.08,219.51C216.38,221.01 216.68,222.54 216.99,224C217.28,225.39 217.57,226.8 217.89,228.05C218.17,229.15 218.48,230.13 218.79,231.14C219.09,232.11 219.39,233.07 219.7,234C220,234.9 220.29,235.78 220.6,236.64C220.9,237.47 221.2,238.28 221.51,239.06C221.81,239.81 222.1,240.54 222.41,241.25C222.7,241.92 223.01,242.58 223.32,243.2C223.61,243.79 223.91,244.36 224.22,244.89C224.51,245.39 224.81,245.87 225.12,246.3C225.41,246.7 225.71,247.08 226.03,247.41C226.32,247.71 226.61,247.99 226.93,248.21C227.22,248.41 227.53,248.58 227.84,248.68C228.13,248.78 228.44,248.84 228.74,248.82C229.04,248.8 229.35,248.72 229.64,248.58C229.96,248.43 230.26,248.2 230.55,247.93C230.87,247.63 231.16,247.24 231.45,246.84C231.77,246.39 232.07,245.88 232.36,245.34C232.68,244.76 232.97,244.12 233.26,243.46C233.57,242.76 233.87,242.02 234.16,241.26C234.47,240.47 234.77,239.64 235.07,238.81C235.38,237.95 235.67,237.06 235.97,236.17C236.27,235.26 236.58,234.34 236.88,233.42C237.18,232.49 237.48,231.55 237.78,230.62C238.08,229.7 238.38,228.77 238.68,227.86C238.98,226.96 239.28,226.07 239.59,225.2C239.89,224.35 240.18,223.5 240.49,222.68C240.79,221.89 241.09,221.1 241.4,220.35C241.69,219.63 241.99,218.93 242.3,218.26C242.59,217.63 242.9,217.01 243.21,216.43C243.5,215.89 243.8,215.37 244.11,214.9C244.4,214.46 244.69,214.05 245.01,213.69C245.3,213.36 245.6,213.05 245.92,212.81C246.21,212.59 246.51,212.4 246.82,212.28C247.11,212.17 247.43,212.11 247.73,212.11C248.03,212.11 248.34,212.18 248.63,212.3C248.94,212.42 249.24,212.64 249.53,212.85C249.84,213.07 250.12,213.5 250.44,213.59C250.72,213.67 251.04,213.44 251.34,213.44C251.64,213.44 251.95,213.49 252.25,213.58C252.56,213.67 252.85,213.85 253.15,213.98C253.45,214.11 253.74,214.28 254.05,214.34C254.35,214.4 254.67,214.41 254.96,214.34C255.27,214.26 255.57,214.07 255.86,213.87C256.18,213.64 256.48,213.33 256.77,213.02C257.08,212.69 257.38,212.31 257.67,211.92C257.98,211.5 258.29,211.06 258.58,210.59C258.89,210.1 259.19,209.58 259.48,209.05C259.79,208.49 260.09,207.91 260.38,207.31C260.69,206.68 261,206.03 261.29,205.35C261.6,204.64 261.9,203.9 262.19,203.14C262.5,202.34 262.81,201.52 263.1,200.67C263.41,199.78 263.71,198.89 264,197.91C264.32,196.83 264.61,195.64 264.9,194.45C265.21,193.19 265.51,191.85 265.81,190.53C266.11,189.2 266.41,187.85 266.71,186.5C267.01,185.13 267.32,183.75 267.62,182.36C267.92,180.95 268.22,179.54 268.52,178.11C268.82,176.67 269.12,175.21 269.42,173.75C269.72,172.27 270.03,170.78 270.33,169.28C270.63,167.77 270.93,166.26 271.23,164.74C271.53,163.22 271.84,161.69 272.14,160.17C272.44,158.65 272.74,157.13 273.04,155.63C273.34,154.14 273.65,152.66 273.95,151.19C274.25,149.75 274.55,148.32 274.85,146.92C275.15,145.55 275.44,144.2 275.75,142.88C276.05,141.61 276.35,140.36 276.66,139.15C276.95,138 277.25,136.86 277.56,135.78C277.85,134.76 278.16,133.78 278.47,132.84C278.76,131.97 279.07,131.17 279.37,130.35C279.67,129.55 279.96,128.76 280.27,127.99C280.57,127.25 280.85,126.48 281.18,125.83C281.46,125.27 281.74,124.71 282.08,124.3C282.36,123.96 282.66,123.63 282.99,123.49C283.27,123.37 283.61,123.33 283.89,123.42C284.21,123.52 284.51,123.83 284.79,124.14C285.13,124.53 285.42,125.08 285.7,125.65C286.03,126.33 286.32,127.13 286.6,127.96C286.92,128.91 287.22,129.97 287.51,131.07C287.83,132.29 288.12,133.6 288.41,134.96C288.73,136.44 289.03,138.01 289.32,139.62C289.63,141.35 289.93,143.16 290.22,145.01C290.53,146.97 290.83,149 291.12,151.07C291.43,153.24 291.73,155.49 292.03,157.76C292.34,160.12 292.63,162.55 292.93,165C293.24,167.52 293.54,170.1 293.84,172.69C294.14,175.33 294.44,178.01 294.74,180.7C295.04,183.42 295.34,186.17 295.64,188.9C295.94,191.63 296.25,194.38 296.55,197.09C296.85,199.76 297.14,202.44 297.45,205.06C297.75,207.6 298.05,210.14 298.36,212.58C298.65,214.91 298.95,217.22 299.26,219.4C299.55,221.43 299.84,223.4 300.16,225.25C300.45,226.93 300.75,228.55 301.07,230.04C301.36,231.36 301.64,232.61 301.97,233.75C302.25,234.74 302.55,235.66 302.88,236.48C303.16,237.18 303.45,237.84 303.78,238.38C304.06,238.84 304.35,239.26 304.68,239.56C304.96,239.81 305.28,240.01 305.59,240.1C305.88,240.18 306.2,240.17 306.49,240.11C306.8,240.05 307.11,239.88 307.4,239.7C307.71,239.51 308.01,239.25 308.3,238.99C308.61,238.72 308.91,238.41 309.21,238.1C309.52,237.77 309.82,237.43 310.11,237.06C310.42,236.68 310.72,236.27 311.01,235.84C311.32,235.38 311.62,234.87 311.92,234.36C312.23,233.82 312.52,233.25 312.82,232.69C313.12,232.13 313.42,231.55 313.73,231.01C314.02,230.49 314.32,229.98 314.63,229.52C314.92,229.1 315.21,228.69 315.53,228.37C315.82,228.08 316.12,227.81 316.44,227.65C316.73,227.51 317.04,227.41 317.34,227.41C317.64,227.41 317.96,227.51 318.25,227.66C318.57,227.83 318.87,228.11 319.15,228.41C319.47,228.75 319.76,229.17 320.05,229.6C320.37,230.08 320.67,230.62 320.96,231.18C321.27,231.78 321.56,232.42 321.86,233.07C322.17,233.75 322.47,234.46 322.77,235.16C323.07,235.87 323.36,236.61 323.67,237.31C323.97,237.99 324.27,238.68 324.58,239.32C324.87,239.91 325.16,240.49 325.48,241C325.77,241.46 326.05,241.92 326.38,242.26C326.66,242.56 326.97,242.91 327.29,242.97C327.58,243.02 327.92,242.89 328.19,242.69C328.55,242.42 328.83,241.88 329.1,241.33C329.46,240.61 329.73,239.65 330,238.65C330.34,237.41 330.61,235.88 330.9,234.43C331.21,232.89 331.51,231.28 331.81,229.67C332.12,228.03 332.41,226.35 332.71,224.68C333.01,223.01 333.32,221.32 333.62,219.66C333.92,218.02 334.22,216.38 334.52,214.77C334.82,213.2 335.11,211.65 335.42,210.14C335.72,208.68 336.02,207.24 336.33,205.86C336.62,204.55 336.92,203.26 337.23,202.04C337.52,200.9 337.82,199.78 338.14,198.74C338.43,197.78 338.72,196.86 339.04,196.01C339.33,195.25 339.62,194.52 339.95,193.89C340.23,193.34 340.52,192.82 340.85,192.41C341.13,192.07 341.42,191.74 341.75,191.57C342.03,191.42 342.36,191.34 342.66,191.37C342.97,191.4 343.28,191.56 343.56,191.75C343.89,191.97 344.18,192.32 344.47,192.66C344.79,193.04 345.08,193.49 345.37,193.95C345.68,194.43 345.97,194.96 346.27,195.49C346.58,196.04 346.88,196.6 347.18,197.17C347.48,197.75 347.78,198.34 348.08,198.94C348.38,199.55 348.69,200.17 348.99,200.8C349.3,201.45 349.59,202.11 349.89,202.77C350.19,203.45 350.49,204.14 350.79,204.82C351.09,205.51 351.4,206.21 351.7,206.89C352,207.56 352.29,208.23 352.6,208.87C352.9,209.48 353.19,210.1 353.51,210.63C353.8,211.11 354.07,211.63 354.41,211.93C354.69,212.17 355.04,212.46 355.32,212.41C355.65,212.35 355.96,211.84 356.22,211.39C356.59,210.76 356.84,209.76 357.12,208.83C357.45,207.74 357.74,206.51 358.03,205.24C358.35,203.84 358.64,202.33 358.93,200.78C359.24,199.11 359.55,197.36 359.84,195.57C360.15,193.66 360.45,191.68 360.74,189.66C361.05,187.53 361.34,185.34 361.64,183.11C361.95,180.79 362.25,178.41 362.55,176C362.86,173.52 363.15,170.99 363.45,168.43C363.76,165.81 364.06,163.16 364.36,160.46C364.67,157.66 364.96,154.78 365.26,151.9C365.56,148.96 365.86,145.95 366.16,142.97C366.46,140 366.77,137.01 367.07,134.05C367.37,131.12 367.67,128.2 367.97,125.31C368.27,122.47 368.57,119.64 368.88,116.86C369.18,114.14 369.48,111.45 369.78,108.81C370.08,106.24 370.37,103.7 370.68,101.22C370.98,98.83 371.28,96.47 371.59,94.17C371.89,91.97 372.18,89.8 372.49,87.71C372.78,85.72 373.09,83.78 373.4,81.9C373.69,80.14 373.99,78.41 374.3,76.77C374.59,75.24 374.89,73.76 375.21,72.36C375.5,71.08 375.79,69.83 376.11,68.68C376.4,67.64 376.68,66.64 377.01,65.75C377.29,64.97 377.59,64.22 377.92,63.59C378.2,63.06 378.48,62.55 378.82,62.2C379.1,61.91 379.41,61.65 379.73,61.57C380.02,61.5 380.35,61.55 380.63,61.69C380.96,61.85 381.25,62.2 381.53,62.56C381.87,62.99 382.16,63.56 382.44,64.15C382.77,64.83 383.05,65.62 383.34,66.44C383.66,67.36 383.96,68.36 384.25,69.4C384.57,70.54 384.86,71.75 385.15,73C385.46,74.34 385.76,75.75 386.05,77.19C386.36,78.72 386.66,80.32 386.96,81.94C387.27,83.64 387.56,85.39 387.86,87.17C388.17,89.02 388.47,90.92 388.77,92.83C389.08,94.79 389.37,96.79 389.67,98.8C389.97,100.84 390.28,102.91 390.58,104.98C390.88,107.08 391.18,109.2 391.48,111.33C391.78,113.49 392.08,115.68 392.38,117.86C392.68,120.05 392.99,122.26 393.29,124.44C393.59,126.58 393.88,128.72 394.19,130.82C394.49,132.87 394.8,134.9 395.1,136.91C395.4,138.88 395.7,140.81 396,142.75C396.3,144.69 396.6,146.62 396.9,148.56C397.2,150.51 397.51,152.45 397.81,154.41C398.11,156.38 398.41,158.35 398.71,160.33C399.01,162.33 399.32,164.33 399.62,166.35C399.92,168.39 400.22,170.44 400.52,172.5C400.82,174.59 401.12,176.69 401.42,178.8C401.72,180.94 402.03,183.09 402.33,185.25C402.63,187.44 402.93,189.64 403.23,191.85C403.53,194.08 403.84,196.32 404.14,198.57C404.44,200.83 404.74,203.11 405.04,205.36C405.34,207.58 405.64,209.8 405.95,211.97C406.25,214.08 406.55,216.16 406.85,218.21C407.15,220.2 407.44,222.17 407.75,224.11C408.05,226 408.35,227.86 408.66,229.7C408.96,231.48 409.25,233.27 409.56,234.97C409.85,236.57 410.15,238.17 410.47,239.63C410.76,240.94 411.04,242.24 411.37,243.35C411.65,244.28 411.94,245.11 412.27,245.87C412.55,246.53 412.85,247.16 413.18,247.68C413.46,248.13 413.75,248.56 414.08,248.85C414.36,249.1 414.68,249.28 414.99,249.38C415.28,249.47 415.59,249.49 415.89,249.47C416.19,249.45 416.5,249.38 416.79,249.26C417.1,249.14 417.42,248.99 417.7,248.73C418.04,248.42 418.3,247.88 418.6,247.44C418.91,246.98 419.21,246.5 419.51,246.01C419.82,245.51 420.11,244.98 420.41,244.47C420.71,243.95 421.01,243.42 421.32,242.92C421.62,242.43 421.91,241.95 422.22,241.5C422.51,241.07 422.81,240.66 423.12,240.29C423.41,239.94 423.71,239.6 424.03,239.33C424.32,239.08 424.62,238.84 424.93,238.69C425.22,238.55 425.53,238.45 425.84,238.42C426.14,238.39 426.45,238.43 426.74,238.52C427.05,238.62 427.35,238.8 427.64,239.01C427.96,239.24 428.26,239.54 428.55,239.86C428.87,240.21 429.16,240.61 429.45,241.03C429.76,241.48 430.07,241.98 430.36,242.5C430.67,243.06 430.97,243.66 431.26,244.28C431.57,244.95 431.87,245.65 432.16,246.38C432.47,247.15 432.77,247.95 433.07,248.77C433.38,249.62 433.67,250.49 433.97,251.37C434.27,252.26 434.58,253.16 434.88,254.07C435.18,254.99 435.48,255.93 435.78,256.85C436.08,257.77 436.37,258.7 436.68,259.6C436.98,260.46 437.28,261.33 437.59,262.13C437.88,262.88 438.17,263.62 438.49,264.27C438.78,264.85 439.07,265.41 439.4,265.86C439.68,266.24 439.97,266.6 440.3,266.81C440.58,266.99 440.91,267.12 441.21,267.11C441.51,267.1 441.83,266.95 442.11,266.77C442.43,266.56 442.73,266.22 443.01,265.86C443.34,265.45 443.63,264.93 443.92,264.4C444.24,263.8 444.53,263.13 444.82,262.44C445.14,261.68 445.44,260.85 445.73,260C446.04,259.08 446.34,258.12 446.63,257.12C446.94,256.06 447.24,254.95 447.53,253.82C447.84,252.62 448.14,251.37 448.44,250.11C448.75,248.79 449.04,247.43 449.34,246.07C449.65,244.68 449.95,243.25 450.25,241.84C450.55,240.42 450.85,238.98 451.15,237.56C451.45,236.15 451.75,234.73 452.05,233.33C452.35,231.95 452.65,230.58 452.96,229.24C453.26,227.93 453.55,226.63 453.86,225.36C454.16,224.13 454.46,222.92 454.77,221.75C455.07,220.63 455.36,219.52 455.67,218.46C455.96,217.45 456.27,216.46 456.58,215.52C456.87,214.63 457.17,213.77 457.48,212.95C457.77,212.19 458.06,211.47 458.38,210.79C458.67,210.17 458.97,209.57 459.29,209.04C459.58,208.56 459.87,208.1 460.19,207.71C460.48,207.36 460.78,207.03 461.1,206.78Q461.39,206.55 462,206.23" style="vector-effect: non-scaling-stroke; fill: none; stroke: rgb(0, 100, 80); stroke-opacity: 1; stroke-width: 2px; opacity: 1;"/></g><g class="points"/><g class="text"/></g><g class="trace scatter trace856682" style="stroke-miterlimit: 2; opacity: 1;"><g class="fills"/><g class="errorbars"/><g class="lines"><path class="js-line" d="M0,173.52Q0.61,173.47 0.9,173.55C1.21,173.63 1.52,173.82 1.81,174.03C2.13,174.27 2.42,174.6 2.71,174.95C3.03,175.34 3.33,175.8 3.62,176.29C3.94,176.83 4.23,177.42 4.52,178.04C4.83,178.71 5.13,179.42 5.42,180.15C5.73,180.93 6.03,181.74 6.33,182.57C6.64,183.43 6.93,184.33 7.23,185.23C7.54,186.16 7.84,187.11 8.14,188.05C8.44,189 8.74,189.96 9.04,190.9C9.34,191.83 9.64,192.77 9.95,193.67C10.25,194.53 10.54,195.4 10.85,196.2C11.14,196.93 11.42,197.68 11.75,198.29C12.03,198.8 12.31,199.35 12.66,199.64C12.93,199.86 13.26,200.03 13.56,200.02C13.87,200.01 14.19,199.78 14.47,199.55C14.8,199.28 15.09,198.85 15.37,198.42C15.69,197.93 15.98,197.35 16.27,196.75C16.59,196.09 16.89,195.36 17.18,194.63C17.49,193.85 17.78,193.03 18.08,192.21C18.39,191.37 18.69,190.5 18.99,189.64C19.29,188.78 19.59,187.9 19.89,187.05C20.19,186.21 20.48,185.37 20.79,184.56C21.09,183.77 21.39,183 21.7,182.25C21.99,181.54 22.29,180.85 22.6,180.19C22.89,179.57 23.2,178.97 23.51,178.42C23.8,177.91 24.09,177.41 24.41,176.98C24.7,176.6 24.99,176.22 25.32,175.96C25.6,175.73 25.91,175.51 26.22,175.44C26.51,175.38 26.84,175.41 27.12,175.53C27.44,175.67 27.75,175.97 28.03,176.29C28.37,176.68 28.65,177.21 28.93,177.77C29.26,178.43 29.56,179.2 29.84,180.01C30.16,180.93 30.45,181.95 30.74,183.01C31.06,184.19 31.35,185.45 31.64,186.76C31.95,188.18 32.26,189.67 32.55,191.21C32.86,192.85 33.16,194.57 33.45,196.32C33.76,198.17 34.06,200.08 34.36,202.02C34.67,204.04 34.96,206.12 35.26,208.21C35.56,210.36 35.86,212.56 36.16,214.76C36.46,217 36.77,219.26 37.07,221.53C37.37,223.81 37.67,226.11 37.97,228.4C38.27,230.7 38.58,233 38.88,235.29C39.18,237.57 39.48,239.87 39.78,242.13C40.08,244.37 40.37,246.6 40.68,248.79C40.98,250.92 41.28,253.04 41.59,255.08C41.88,257.02 42.17,258.95 42.49,260.75C42.78,262.4 43.07,264.02 43.4,265.46C43.68,266.69 43.93,267.98 44.3,268.87C44.57,269.51 44.84,270.28 45.21,270.41C45.48,270.51 45.85,270.32 46.11,270.1C46.48,269.79 46.73,269.11 47.01,268.49C47.35,267.73 47.63,266.78 47.92,265.82C48.24,264.74 48.53,263.54 48.82,262.33C49.13,261.03 49.43,259.65 49.73,258.27C50.04,256.83 50.33,255.35 50.63,253.87C50.93,252.37 51.23,250.84 51.53,249.33C51.83,247.83 52.13,246.32 52.44,244.85C52.74,243.41 53.03,241.98 53.34,240.59C53.64,239.25 53.94,237.92 54.25,236.65C54.54,235.44 54.84,234.26 55.15,233.13C55.44,232.08 55.73,231.06 56.05,230.1C56.34,229.22 56.64,228.37 56.96,227.6C57.25,226.91 57.54,226.24 57.86,225.66C58.14,225.15 58.44,224.67 58.77,224.28C59.05,223.95 59.35,223.64 59.67,223.45C59.96,223.28 60.28,223.17 60.58,223.16C60.88,223.15 61.19,223.24 61.48,223.37C61.8,223.51 62.09,223.76 62.38,224.02C62.7,224.32 63,224.69 63.29,225.08C63.61,225.5 63.9,225.99 64.19,226.48C64.5,227.01 64.8,227.59 65.1,228.17C65.41,228.78 65.71,229.42 66,230.07C66.31,230.74 66.6,231.44 66.9,232.14C67.2,232.85 67.51,233.57 67.81,234.29C68.11,235.01 68.4,235.75 68.71,236.44C69,237.08 69.28,237.78 69.62,238.29C69.9,238.7 70.21,238.99 70.52,239.31C70.81,239.61 71.12,239.87 71.42,240.15C71.72,240.43 72.03,240.69 72.33,240.97C72.63,241.25 72.93,241.54 73.23,241.82C73.53,242.1 73.84,242.37 74.14,242.64C74.44,242.9 74.74,243.16 75.04,243.4C75.34,243.64 75.65,243.86 75.95,244.08C76.25,244.3 76.55,244.51 76.85,244.73C77.15,244.96 77.45,245.18 77.75,245.43C78.06,245.69 78.37,245.95 78.66,246.25C78.97,246.56 79.27,246.9 79.56,247.26C79.87,247.64 80.18,248.05 80.47,248.49C80.78,248.95 81.08,249.45 81.37,249.97C81.68,250.52 81.98,251.11 82.27,251.71C82.58,252.35 82.89,253.03 83.18,253.72C83.49,254.45 83.78,255.22 84.08,256C84.39,256.81 84.69,257.65 84.99,258.49C85.3,259.35 85.59,260.24 85.89,261.11C86.19,261.99 86.49,262.87 86.79,263.74C87.09,264.61 87.4,265.47 87.7,266.34C88,267.22 88.3,268.1 88.6,268.99C88.9,269.89 89.21,270.8 89.51,271.71C89.81,272.62 90.1,273.55 90.41,274.45C90.71,275.32 91,276.21 91.32,277.01C91.61,277.74 91.9,278.42 92.22,279.06C92.51,279.64 92.8,280.2 93.12,280.68C93.4,281.1 93.69,281.56 94.03,281.79C94.31,281.98 94.64,282.12 94.93,282.09C95.24,282.05 95.57,281.8 95.84,281.52C96.19,281.15 96.47,280.57 96.74,279.93C97.1,279.06 97.35,277.84 97.64,276.7C97.96,275.43 98.26,274.05 98.55,272.65C98.86,271.16 99.15,269.59 99.45,268.01C99.76,266.37 100.06,264.68 100.36,262.99C100.66,261.27 100.96,259.53 101.26,257.8C101.56,256.08 101.86,254.36 102.16,252.66C102.46,250.99 102.76,249.33 103.07,247.71C103.37,246.14 103.66,244.6 103.97,243.09C104.27,241.62 104.58,240.22 104.88,238.76C105.19,237.26 105.48,235.7 105.78,234.19C106.08,232.7 106.37,231.18 106.68,229.75C106.97,228.4 107.28,227.08 107.59,225.82C107.88,224.66 108.17,223.53 108.49,222.47C108.78,221.51 109.08,220.58 109.4,219.74C109.69,218.99 109.97,218.26 110.3,217.64C110.58,217.1 110.88,216.59 111.21,216.2C111.49,215.87 111.79,215.55 112.11,215.39C112.39,215.25 112.71,215.18 113.01,215.21C113.32,215.24 113.64,215.41 113.92,215.6C114.24,215.82 114.54,216.16 114.82,216.51C115.14,216.91 115.44,217.39 115.73,217.89C116.05,218.45 116.34,219.08 116.63,219.74C116.95,220.46 117.24,221.24 117.53,222.04C117.84,222.91 118.15,223.84 118.44,224.79C118.75,225.8 119.05,226.86 119.34,227.94C119.65,229.07 119.95,230.25 120.25,231.44C120.56,232.68 120.85,233.97 121.15,235.26C121.45,236.59 121.75,237.95 122.05,239.32C122.35,240.72 122.66,242.14 122.96,243.56C123.26,245 123.56,246.45 123.86,247.9C124.16,249.35 124.47,250.8 124.77,252.24C125.07,253.66 125.36,255.08 125.67,256.46C125.97,257.79 126.27,259.12 126.58,260.38C126.87,261.57 127.17,262.74 127.48,263.83C127.77,264.83 128.05,265.81 128.38,266.67C128.66,267.41 128.93,268.17 129.29,268.68C129.56,269.06 129.86,269.45 130.19,269.55C130.47,269.63 130.82,269.53 131.1,269.37C131.44,269.17 131.72,268.74 132,268.32C132.33,267.82 132.61,267.17 132.9,266.53C133.22,265.81 133.52,265 133.81,264.19C134.12,263.32 134.41,262.39 134.71,261.46C135.02,260.49 135.32,259.49 135.62,258.5C135.92,257.5 136.22,256.49 136.52,255.49C136.82,254.5 137.11,253.51 137.42,252.55C137.72,251.62 138.02,250.7 138.33,249.81C138.62,248.97 138.92,248.14 139.23,247.36C139.52,246.63 139.82,245.91 140.14,245.25C140.43,244.64 140.72,244.06 141.04,243.53C141.33,243.05 141.63,242.6 141.95,242.22C142.24,241.88 142.53,241.56 142.85,241.33C143.14,241.12 143.44,240.95 143.75,240.86C144.04,240.78 144.36,240.75 144.66,240.79C144.96,240.83 145.27,240.95 145.56,241.1C145.88,241.27 146.18,241.51 146.47,241.77C146.79,242.06 147.08,242.4 147.37,242.77C147.68,243.17 147.98,243.62 148.27,244.09C148.58,244.6 148.89,245.14 149.18,245.71C149.49,246.32 149.79,246.96 150.08,247.62C150.39,248.31 150.69,249.04 150.99,249.76C151.29,250.49 151.58,251.27 151.89,251.98C152.18,252.64 152.46,253.31 152.79,253.87C153.07,254.35 153.39,254.76 153.7,255.15C153.99,255.51 154.3,255.82 154.6,256.15C154.9,256.48 155.21,256.79 155.51,257.11C155.81,257.43 156.11,257.76 156.41,258.09C156.71,258.43 157.02,258.77 157.32,259.13C157.62,259.49 157.92,259.86 158.22,260.24C158.52,260.62 158.82,261.02 159.12,261.41C159.42,261.8 159.72,262.21 160.03,262.59C160.33,262.97 160.62,263.35 160.93,263.69C161.22,264.02 161.53,264.32 161.84,264.6C162.13,264.87 162.44,265.11 162.74,265.35C163.04,265.58 163.34,265.8 163.64,266C163.94,266.2 164.25,266.39 164.55,266.57C164.85,266.75 165.15,266.91 165.45,267.08C165.75,267.24 166.06,267.4 166.36,267.56C166.66,267.72 166.96,267.88 167.26,268.03C167.56,268.18 167.85,268.36 168.16,268.47C168.46,268.58 168.77,268.7 169.07,268.69C169.37,268.68 169.69,268.59 169.97,268.41C170.31,268.19 170.59,267.76 170.88,267.37C171.2,266.93 171.49,266.43 171.78,265.9C172.1,265.32 172.4,264.73 172.68,264.02C173.02,263.15 173.3,262.09 173.59,261.01C173.91,259.79 174.19,258.39 174.49,257.07C174.79,255.73 175.1,254.37 175.4,253.02C175.7,251.67 176,250.32 176.3,248.97C176.6,247.63 176.91,246.29 177.21,244.96C177.51,243.64 177.81,242.33 178.11,241.02C178.41,239.72 178.71,238.43 179.01,237.13C179.31,235.84 179.62,234.55 179.92,233.25C180.22,231.93 180.52,230.62 180.82,229.28C181.12,227.92 181.43,226.54 181.73,225.16C182.03,223.77 182.33,222.36 182.63,220.96C182.93,219.56 183.23,218.16 183.53,216.76C183.83,215.37 184.14,213.99 184.44,212.61C184.74,211.25 185.04,209.89 185.34,208.55C185.64,207.22 185.95,205.91 186.25,204.6C186.55,203.31 186.85,202.04 187.15,200.77C187.45,199.52 187.75,198.28 188.05,197.04C188.35,195.81 188.66,194.59 188.96,193.38C189.26,192.18 189.56,190.98 189.86,189.79C190.16,188.62 190.47,187.45 190.77,186.3C191.07,185.17 191.36,184.04 191.67,182.94C191.97,181.86 192.27,180.8 192.58,179.76C192.88,178.76 193.17,177.78 193.48,176.82C193.77,175.9 194.07,175 194.38,174.13C194.67,173.3 194.98,172.49 195.29,171.72C195.58,171 195.88,170.29 196.19,169.63C196.48,169.02 196.78,168.42 197.1,167.88C197.39,167.38 197.68,166.9 198,166.48C198.29,166.1 198.58,165.75 198.9,165.47C199.19,165.22 199.49,164.99 199.81,164.85C200.1,164.72 200.41,164.65 200.71,164.64C201.01,164.63 201.32,164.7 201.62,164.8C201.93,164.9 202.22,165.11 202.52,165.24C202.82,165.37 203.12,165.5 203.42,165.6C203.72,165.7 204.03,165.72 204.33,165.84C204.64,165.96 204.94,166.12 205.23,166.32C205.55,166.54 205.85,166.81 206.14,167.12C206.46,167.45 206.75,167.85 207.04,168.26C207.35,168.7 207.66,169.19 207.95,169.69C208.26,170.23 208.56,170.8 208.85,171.39C209.16,172 209.45,172.65 209.75,173.3C210.06,173.97 210.36,174.66 210.66,175.36C210.96,176.07 211.26,176.8 211.56,177.52C211.86,178.24 212.17,178.97 212.47,179.69C212.77,180.39 213.06,181.1 213.37,181.78C213.66,182.43 213.96,183.08 214.27,183.69C214.56,184.26 214.86,184.83 215.18,185.34C215.47,185.81 215.76,186.27 216.08,186.65C216.37,187 216.67,187.32 216.99,187.56C217.28,187.77 217.58,187.94 217.89,188.03C218.18,188.11 218.49,188.13 218.79,188.09C219.1,188.05 219.41,187.92 219.7,187.77C220.01,187.6 220.31,187.36 220.6,187.11C220.91,186.84 221.22,186.51 221.51,186.18C221.82,185.83 222.11,185.44 222.41,185.05C222.72,184.64 223.02,184.2 223.32,183.77C223.62,183.33 223.92,182.87 224.22,182.42C224.52,181.97 224.82,181.5 225.12,181.05C225.42,180.6 225.72,180.15 226.03,179.71C226.33,179.28 226.62,178.86 226.93,178.46C227.23,178.07 227.53,177.69 227.84,177.34C228.13,177 228.43,176.67 228.74,176.38C229.03,176.1 229.33,175.84 229.64,175.61C229.93,175.4 230.24,175.2 230.55,175.05C230.84,174.91 231.14,174.79 231.45,174.71C231.75,174.64 232.06,174.59 232.36,174.59C232.66,174.59 232.96,174.62 233.26,174.69C233.56,174.76 233.86,174.95 234.16,174.99C234.46,175.03 234.77,175.02 235.07,174.96C235.38,174.9 235.67,174.71 235.97,174.61C236.27,174.52 236.59,174.53 236.88,174.39C237.2,174.24 237.49,173.96 237.78,173.69C238.09,173.4 238.38,173.01 238.68,172.68C238.98,172.35 239.29,172.02 239.59,171.69C239.89,171.36 240.19,171.02 240.49,170.68C240.79,170.33 241.1,169.99 241.4,169.63C241.7,169.27 242,168.89 242.3,168.51C242.6,168.12 242.91,167.72 243.21,167.32C243.51,166.91 243.81,166.49 244.11,166.06C244.41,165.63 244.71,165.19 245.01,164.74C245.31,164.28 245.62,163.82 245.92,163.35C246.22,162.87 246.52,162.39 246.82,161.9C247.12,161.41 247.43,160.91 247.73,160.41C248.03,159.9 248.33,159.38 248.63,158.86C248.93,158.33 249.23,157.8 249.53,157.26C249.84,156.71 250.14,156.15 250.44,155.57C250.75,154.97 251.05,154.39 251.34,153.72C251.66,152.97 251.96,152.15 252.25,151.29C252.57,150.35 252.85,149.3 253.15,148.32C253.45,147.34 253.74,146.35 254.05,145.41C254.34,144.52 254.65,143.64 254.96,142.81C255.25,142.04 255.54,141.3 255.86,140.62C256.15,140.01 256.45,139.42 256.77,138.92C257.05,138.48 257.34,138.07 257.67,137.76C257.95,137.5 258.26,137.25 258.58,137.15C258.87,137.06 259.19,137.05 259.48,137.12C259.79,137.19 260.08,137.43 260.38,137.61C260.69,137.8 260.98,138.06 261.29,138.24C261.58,138.41 261.9,138.5 262.19,138.67C262.5,138.85 262.81,139.06 263.1,139.31C263.42,139.59 263.71,139.92 264,140.29C264.32,140.7 264.61,141.16 264.9,141.66C265.22,142.21 265.52,142.82 265.81,143.45C266.13,144.14 266.42,144.89 266.71,145.65C267.02,146.47 267.33,147.33 267.62,148.21C267.93,149.13 268.23,150.1 268.52,151.07C268.83,152.08 269.12,153.12 269.42,154.17C269.72,155.24 270.03,156.33 270.33,157.41C270.63,158.5 270.93,159.61 271.23,160.69C271.53,161.76 271.83,162.84 272.14,163.88C272.44,164.88 272.73,165.88 273.04,166.82C273.33,167.7 273.63,168.57 273.95,169.37C274.24,170.1 274.53,170.8 274.85,171.43C275.14,171.99 275.43,172.52 275.75,172.99C276.04,173.41 276.34,173.78 276.66,174.11C276.95,174.41 277.25,174.67 277.56,174.89C277.85,175.1 278.16,175.27 278.47,175.41C278.77,175.55 279.07,175.65 279.37,175.74C279.67,175.82 279.97,175.88 280.27,175.92C280.57,175.96 280.88,175.98 281.18,175.99C281.48,176 281.78,175.98 282.08,175.97C282.38,175.96 282.69,175.93 282.99,175.91C283.29,175.89 283.59,175.87 283.89,175.84C284.19,175.81 284.49,175.78 284.79,175.72C285.09,175.66 285.4,175.53 285.7,175.47C286,175.41 286.3,175.37 286.6,175.34C286.9,175.31 287.21,175.28 287.51,175.28C287.81,175.28 288.12,175.26 288.41,175.36C288.73,175.48 289.04,175.71 289.32,175.99C289.65,176.32 289.94,176.8 290.22,177.29C290.55,177.87 290.84,178.56 291.12,179.28C291.44,180.1 291.74,181.02 292.03,181.97C292.35,183.02 292.64,184.15 292.93,185.32C293.24,186.58 293.55,187.92 293.84,189.28C294.15,190.73 294.45,192.24 294.74,193.78C295.05,195.39 295.34,197.06 295.64,198.73C295.95,200.45 296.25,202.22 296.55,203.98C296.85,205.76 297.15,207.57 297.45,209.37C297.75,211.16 298.06,212.96 298.36,214.75C298.66,216.53 298.96,218.31 299.26,220.07C299.56,221.8 299.85,223.53 300.16,225.21C300.46,226.83 300.75,228.45 301.07,229.96C301.36,231.35 301.64,232.75 301.97,233.95C302.25,234.95 302.52,235.96 302.88,236.68C303.15,237.2 303.43,237.73 303.78,237.94C304.05,238.1 304.4,238.13 304.68,238.04C305,237.94 305.31,237.59 305.59,237.28C305.92,236.92 306.2,236.44 306.49,235.99C306.8,235.51 307.1,234.98 307.4,234.46C307.71,233.93 308,233.37 308.3,232.83C308.6,232.29 308.91,231.74 309.21,231.21C309.51,230.68 309.8,230.15 310.11,229.65C310.4,229.16 310.7,228.69 311.01,228.24C311.3,227.82 311.61,227.41 311.92,227.04C312.21,226.7 312.5,226.37 312.82,226.11C313.11,225.87 313.42,225.65 313.73,225.52C314.02,225.4 314.33,225.31 314.63,225.31C314.93,225.31 315.24,225.57 315.53,225.53C315.84,225.48 316.15,225.22 316.44,224.99C316.76,224.74 317.02,224.28 317.34,224.05C317.62,223.85 317.94,223.68 318.25,223.63C318.54,223.58 318.86,223.63 319.15,223.73C319.46,223.84 319.77,224.08 320.05,224.33C320.37,224.62 320.67,225 320.96,225.39C321.28,225.82 321.57,226.32 321.86,226.83C322.17,227.38 322.47,227.98 322.77,228.58C323.08,229.21 323.37,229.86 323.67,230.52C323.98,231.19 324.28,231.89 324.58,232.57C324.88,233.25 325.17,233.94 325.48,234.59C325.77,235.21 326.06,235.85 326.38,236.4C326.67,236.9 326.95,237.44 327.29,237.76C327.56,238.02 327.9,238.3 328.19,238.28C328.5,238.26 328.83,237.93 329.1,237.59C329.47,237.13 329.73,236.35 330,235.59C330.34,234.65 330.61,233.49 330.9,232.33C331.22,231.02 331.52,229.57 331.81,228.11C332.12,226.55 332.41,224.91 332.71,223.25C333.02,221.52 333.32,219.74 333.62,217.96C333.92,216.14 334.22,214.29 334.52,212.45C334.82,210.61 335.12,208.76 335.42,206.94C335.72,205.15 336.02,203.35 336.33,201.6C336.63,199.9 336.92,198.2 337.23,196.56C337.53,194.99 337.83,193.43 338.14,191.94C338.43,190.53 338.73,189.14 339.04,187.82C339.33,186.6 339.63,185.41 339.95,184.31C340.24,183.31 340.53,182.35 340.85,181.49C341.13,180.74 341.42,180.01 341.75,179.42C342.03,178.93 342.32,178.44 342.66,178.14C342.94,177.9 343.25,177.68 343.56,177.66C343.86,177.64 344.19,177.78 344.47,177.97C344.8,178.2 345.09,178.61 345.37,179.02C345.7,179.52 345.99,180.14 346.27,180.78C346.59,181.5 346.89,182.32 347.18,183.15C347.5,184.06 347.79,185.04 348.08,186.04C348.39,187.1 348.69,188.21 348.99,189.32C349.3,190.47 349.59,191.66 349.89,192.83C350.19,194 350.48,195.21 350.79,196.36C351.09,197.47 351.39,198.59 351.7,199.64C351.99,200.63 352.29,201.59 352.6,202.5C352.89,203.34 353.18,204.17 353.51,204.89C353.79,205.51 354.03,206.34 354.41,206.58C354.67,206.74 355.06,206.76 355.32,206.6C355.72,206.35 355.95,205.4 356.22,204.61C356.58,203.55 356.83,202.11 357.12,200.74C357.44,199.19 357.74,197.51 358.03,195.77C358.35,193.85 358.64,191.8 358.93,189.69C359.25,187.4 359.55,184.98 359.84,182.5C360.15,179.85 360.45,177.08 360.74,174.26C361.05,171.29 361.34,168.22 361.64,165.12C361.95,161.9 362.25,158.6 362.55,155.27C362.86,151.86 363.15,148.38 363.45,144.9C363.75,141.37 364.06,137.79 364.36,134.22C364.66,130.62 364.96,126.99 365.26,123.38C365.56,119.77 365.86,116.15 366.16,112.56C366.46,108.99 366.77,105.43 367.07,101.89C367.37,98.4 367.67,94.91 367.97,91.47C368.27,88.09 368.57,84.73 368.88,81.42C369.18,78.19 369.48,74.99 369.78,71.84C370.08,68.79 370.37,65.76 370.68,62.81C370.98,59.97 371.28,57.17 371.59,54.44C371.89,51.83 372.18,49.27 372.49,46.79C372.78,44.44 373.09,42.15 373.4,39.94C373.69,37.87 373.99,35.84 374.3,33.92C374.59,32.14 374.89,30.42 375.21,28.8C375.5,27.33 375.79,25.9 376.11,24.59C376.39,23.42 376.68,22.3 377.01,21.31C377.29,20.46 377.58,19.64 377.92,18.97C378.2,18.43 378.47,17.89 378.82,17.57C379.09,17.32 379.43,17.11 379.73,17.1C380.03,17.09 380.36,17.29 380.63,17.52C380.97,17.81 381.25,18.32 381.53,18.82C381.87,19.43 382.16,20.18 382.44,20.95C382.77,21.84 383.05,22.83 383.34,23.86C383.66,25.01 383.96,26.24 384.25,27.52C384.57,28.91 384.86,30.38 385.15,31.9C385.46,33.53 385.76,35.23 386.05,36.97C386.36,38.82 386.67,40.74 386.96,42.71C387.27,44.79 387.57,46.93 387.86,49.12C388.17,51.42 388.47,53.78 388.77,56.19C389.08,58.7 389.37,61.27 389.67,63.89C389.98,66.61 390.28,69.38 390.58,72.2C390.89,75.12 391.18,78.09 391.48,81.1C391.78,84.2 392.08,87.35 392.38,90.54C392.69,93.81 392.99,97.12 393.29,100.46C393.59,103.87 393.89,107.33 394.19,110.81C394.49,114.34 394.8,117.91 395.1,121.49C395.4,125.11 395.7,128.76 396,132.41C396.3,136.07 396.6,139.76 396.9,143.43C397.2,147.09 397.51,150.76 397.81,154.4C398.11,158.02 398.41,161.62 398.71,165.21C399.01,168.78 399.32,172.33 399.62,175.87C399.92,179.38 400.22,182.91 400.52,186.36C400.82,189.71 401.11,193.01 401.42,196.28C401.72,199.47 402.03,202.6 402.33,205.75C402.63,208.88 402.93,212 403.23,215.1C403.53,218.18 403.84,221.25 404.14,224.29C404.44,227.29 404.73,230.28 405.04,233.21C405.34,236.07 405.64,238.91 405.95,241.68C406.25,244.34 406.54,246.97 406.85,249.49C407.14,251.85 407.43,254.18 407.75,256.34C408.04,258.28 408.33,260.19 408.66,261.86C408.94,263.26 409.21,264.6 409.56,265.69C409.83,266.55 410.11,267.37 410.47,267.93C410.74,268.34 411.04,268.73 411.37,268.87C411.65,268.99 412,269.02 412.27,268.88C412.63,268.7 412.9,268.09 413.18,267.61C413.51,267.07 413.8,266.47 414.08,265.77C414.42,264.9 414.7,263.8 414.99,262.76C415.3,261.67 415.59,260.5 415.89,259.37C416.19,258.25 416.49,257.13 416.79,256.03C417.09,254.95 417.39,253.88 417.7,252.84C418,251.84 418.29,250.86 418.6,249.92C418.89,249.04 419.2,248.17 419.51,247.36C419.8,246.6 420.09,245.87 420.41,245.19C420.7,244.57 421,243.98 421.32,243.45C421.61,242.97 421.9,242.52 422.22,242.13C422.5,241.79 422.8,241.48 423.12,241.23C423.41,241.01 423.74,240.91 424.03,240.69C424.35,240.45 424.62,240.06 424.93,239.8C425.22,239.56 425.53,239.34 425.84,239.16C426.13,238.99 426.43,238.84 426.74,238.76C427.03,238.68 427.34,238.63 427.64,238.65C427.94,238.67 428.26,238.77 428.55,238.91C428.87,239.07 429.16,239.31 429.45,239.58C429.77,239.89 430.07,240.27 430.36,240.68C430.68,241.13 430.97,241.64 431.26,242.17C431.57,242.75 431.87,243.39 432.16,244.04C432.47,244.74 432.78,245.48 433.07,246.24C433.38,247.04 433.67,247.88 433.97,248.72C434.28,249.59 434.58,250.48 434.88,251.36C435.18,252.23 435.45,253.17 435.78,253.95C436.06,254.62 436.34,255.29 436.68,255.79C436.96,256.19 437.25,256.6 437.59,256.78C437.87,256.92 438.19,256.9 438.49,256.9C438.79,256.9 439.1,256.83 439.4,256.75C439.7,256.67 440,256.56 440.3,256.43C440.61,256.29 440.92,256.13 441.21,255.93C441.52,255.72 441.82,255.47 442.11,255.21C442.42,254.93 442.72,254.62 443.01,254.3C443.32,253.96 443.62,253.59 443.92,253.22C444.23,252.84 444.52,252.43 444.82,252.03C445.12,251.62 445.43,251.2 445.73,250.78C446.03,250.36 446.33,249.93 446.63,249.51C446.93,249.09 447.23,248.67 447.53,248.27C447.83,247.87 448.13,247.48 448.44,247.11C448.74,246.75 449.03,246.4 449.34,246.07C449.64,245.76 449.94,245.46 450.25,245.19C450.54,244.93 450.84,244.69 451.15,244.49C451.44,244.3 451.74,244.13 452.05,244C452.35,243.88 452.65,243.78 452.96,243.73C453.26,243.68 453.56,243.66 453.86,243.67C454.16,243.68 454.47,243.74 454.77,243.82C455.08,243.9 455.37,244.03 455.67,244.17C455.98,244.32 456.28,244.49 456.58,244.68C456.89,244.87 457.18,245.09 457.48,245.31C457.78,245.54 458.08,245.78 458.38,246.02C458.68,246.26 458.99,246.52 459.29,246.77C459.59,247.01 459.89,247.26 460.19,247.49C460.49,247.71 460.79,247.94 461.1,248.12Q461.4,248.3 462,248.58" style="vector-effect: non-scaling-stroke; fill: none; stroke: rgb(0, 176, 246); stroke-opacity: 1; stroke-width: 2px; opacity: 1;"/></g><g class="points"/><g class="text"/></g><g class="trace scatter tracef22e77" style="stroke-miterlimit: 2; opacity: 1;"><g class="fills"/><g class="errorbars"/><g class="lines"><path class="js-line" d="M0,41.65Q0.61,41.7 0.9,41.8C1.21,41.9 1.52,42.07 1.81,42.27C2.12,42.48 2.42,42.75 2.71,43.05C3.03,43.38 3.33,43.77 3.62,44.19C3.94,44.65 4.23,45.17 4.52,45.71C4.83,46.31 5.13,46.95 5.42,47.63C5.74,48.37 6.04,49.17 6.33,50C6.64,50.9 6.94,51.85 7.23,52.83C7.54,53.89 7.85,55.01 8.14,56.16C8.45,57.39 8.75,58.66 9.04,59.98C9.35,61.38 9.66,62.82 9.95,64.31C10.26,65.88 10.56,67.5 10.85,69.16C11.16,70.9 11.45,72.69 11.75,74.52C12.06,76.43 12.36,78.38 12.66,80.37C12.97,82.44 13.26,84.55 13.56,86.7C13.87,88.92 14.17,91.18 14.47,93.48C14.78,95.85 15.07,98.26 15.37,100.7C15.67,103.2 15.97,105.74 16.27,108.31C16.58,110.94 16.88,113.6 17.18,116.29C17.48,119.03 17.78,121.81 18.08,124.6C18.38,127.44 18.69,130.31 18.99,133.19C19.29,136.11 19.59,139.06 19.89,142.02C20.19,145.01 20.49,148.03 20.79,151.05C21.09,154.1 21.4,157.17 21.7,160.24C22,163.31 21.88,168.2 22.6,169.47C22.85,169.91 23.25,170.21 23.51,170.14C23.89,170.04 24.07,168.6 24.41,168C24.69,167.52 24.97,167.02 25.32,166.79C25.59,166.61 25.94,166.5 26.22,166.56C26.54,166.63 26.85,166.97 27.12,167.3C27.47,167.73 27.75,168.37 28.03,169.02C28.37,169.8 28.65,170.74 28.93,171.71C29.26,172.83 29.55,174.07 29.84,175.36C30.16,176.79 30.45,178.33 30.74,179.92C31.05,181.65 31.35,183.48 31.64,185.36C31.95,187.37 32.26,189.48 32.55,191.63C32.86,193.91 33.16,196.27 33.45,198.68C33.76,201.2 34.06,203.8 34.36,206.43C34.67,209.17 34.96,211.97 35.26,214.8C35.56,217.72 35.86,220.7 36.16,223.71C36.47,226.79 36.77,229.91 37.07,233.05C37.37,236.25 37.67,239.48 37.97,242.72C38.27,246 38.58,249.31 38.88,252.61C39.18,255.93 39.48,259.26 39.78,262.58C40.08,265.89 40.38,269.22 40.68,272.51C40.98,275.78 41.29,279.04 41.59,282.26C41.89,285.42 42.18,288.61 42.49,291.65C42.78,294.53 42.99,297.92 43.4,300.04C43.66,301.37 43.87,302.56 44.3,303.23C44.56,303.63 44.95,304.08 45.21,304C45.63,303.88 45.84,302.2 46.11,301.06C46.47,299.52 46.72,297.46 47.01,295.57C47.32,293.54 47.62,291.39 47.92,289.27C48.22,287.11 48.52,284.91 48.82,282.73C49.12,280.55 49.43,278.35 49.73,276.18C50.03,274.04 50.33,271.91 50.63,269.82C50.93,267.78 51.22,265.75 51.53,263.77C51.83,261.87 52.13,259.99 52.44,258.17C52.73,256.43 53.03,254.73 53.34,253.09C53.63,251.55 53.94,250.04 54.25,248.61C54.54,247.28 54.84,246 55.15,244.79C55.44,243.69 55.73,242.62 56.05,241.64C56.34,240.76 56.63,239.92 56.96,239.18C57.24,238.54 57.53,237.92 57.86,237.42C58.14,236.99 58.44,236.59 58.77,236.32C59.05,236.1 59.36,235.91 59.67,235.86C59.96,235.81 60.29,235.87 60.58,235.98C60.9,236.1 61.2,236.35 61.48,236.61C61.8,236.9 62.09,237.29 62.38,237.68C62.7,238.11 63,238.6 63.29,239.1C63.6,239.63 63.89,240.2 64.19,240.77C64.5,241.36 64.8,241.97 65.1,242.57C65.4,243.18 65.7,243.8 66,244.4C66.3,244.99 66.59,245.58 66.9,246.13C67.19,246.66 67.49,247.19 67.81,247.64C68.1,248.05 68.38,248.48 68.71,248.75C68.99,248.98 69.31,249.22 69.62,249.24C69.92,249.26 70.25,249.09 70.52,248.87C70.87,248.58 71.14,248.03 71.42,247.5C71.76,246.84 72.04,246.02 72.33,245.19C72.65,244.26 72.94,243.21 73.23,242.18C73.54,241.09 73.84,239.93 74.14,238.8C74.44,237.66 74.74,236.49 75.04,235.35C75.34,234.23 75.64,233.11 75.95,232.04C76.24,231.02 76.54,230 76.85,229.05C77.14,228.17 77.43,227.3 77.75,226.51C78.04,225.8 78.33,225.11 78.66,224.53C78.94,224.03 79.22,223.53 79.56,223.19C79.84,222.91 80.15,222.64 80.47,222.56C80.76,222.49 81.09,222.54 81.37,222.68C81.7,222.84 81.99,223.21 82.27,223.59C82.61,224.05 82.9,224.67 83.18,225.31C83.51,226.06 83.79,226.93 84.08,227.82C84.4,228.8 84.66,230 84.99,230.93C85.27,231.71 85.53,232.5 85.89,233.03C86.16,233.43 86.51,233.58 86.79,233.94C87.12,234.35 87.42,234.84 87.7,235.39C88.03,236.04 88.32,236.8 88.6,237.6C88.92,238.51 89.22,239.51 89.51,240.55C89.83,241.7 90.12,242.93 90.41,244.2C90.72,245.57 91.03,247 91.32,248.47C91.63,250.02 91.93,251.63 92.22,253.25C92.53,254.93 92.82,256.67 93.12,258.4C93.42,260.16 93.73,261.96 94.03,263.73C94.33,265.48 94.62,267.26 94.93,268.96C95.22,270.58 95.52,272.24 95.84,273.7C96.12,274.98 96.32,276.48 96.74,277.27C97,277.75 97.38,278.32 97.64,278.27C98.01,278.2 98.28,276.74 98.55,275.76C98.91,274.43 99.17,272.67 99.45,270.96C99.77,269.02 100.07,266.9 100.36,264.74C100.67,262.42 100.97,259.96 101.26,257.48C101.57,254.89 101.86,252.21 102.16,249.52C102.47,246.76 102.77,243.94 103.07,241.13C103.37,238.3 103.67,235.43 103.97,232.59C104.27,229.76 104.58,226.91 104.88,224.1C105.18,221.34 105.48,218.58 105.78,215.88C106.08,213.25 106.37,210.64 106.68,208.09C106.98,205.63 107.28,203.2 107.59,200.85C107.88,198.61 108.18,196.41 108.49,194.3C108.78,192.31 109.09,190.36 109.4,188.51C109.69,186.8 109.98,185.14 110.3,183.58C110.59,182.17 110.89,180.8 111.21,179.56C111.49,178.47 111.78,177.41 112.11,176.5C112.39,175.74 112.66,174.99 113.01,174.44C113.28,174.01 113.58,173.55 113.92,173.4C114.2,173.28 114.54,173.28 114.82,173.4C115.16,173.55 115.46,174.01 115.73,174.44C116.08,174.99 116.35,175.74 116.63,176.5C116.96,177.41 117.25,178.47 117.53,179.56C117.85,180.8 118.15,182.17 118.44,183.58C118.76,185.14 119.05,186.8 119.34,188.51C119.65,190.36 119.96,192.3 120.25,194.29C120.56,196.4 120.86,198.6 121.15,200.84C121.46,203.19 121.75,205.61 122.05,208.06C122.36,210.61 122.66,213.22 122.96,215.85C123.27,218.55 123.56,221.3 123.86,224.06C124.16,226.86 124.47,229.69 124.77,232.52C125.07,235.35 125.37,238.22 125.67,241.04C125.97,243.83 126.27,246.62 126.58,249.34C126.88,251.98 127.17,254.62 127.48,257.13C127.77,259.49 128.06,261.83 128.38,264C128.67,265.96 128.96,267.87 129.29,269.57C129.57,271.02 129.84,272.44 130.19,273.57C130.46,274.44 130.69,275.4 131.1,275.82C131.36,276.08 131.73,276.3 132,276.21C132.36,276.09 132.64,275.28 132.9,274.62C133.27,273.69 133.53,272.38 133.81,271.08C134.15,269.51 134.42,267.68 134.71,265.84C135.03,263.79 135.33,261.58 135.62,259.35C135.93,256.99 136.22,254.53 136.52,252.07C136.82,249.54 137.12,246.96 137.42,244.39C137.72,241.81 138.03,239.21 138.33,236.64C138.63,234.09 138.92,231.54 139.23,229.03C139.53,226.58 139.83,224.15 140.14,221.77C140.44,219.47 140.73,217.2 141.04,214.99C141.34,212.88 141.64,210.8 141.95,208.8C142.24,206.91 142.54,205.06 142.85,203.3C143.14,201.66 143.43,200.06 143.75,198.55C144.04,197.17 144.34,195.83 144.66,194.6C144.95,193.5 145.23,192.44 145.56,191.5C145.84,190.69 146.13,189.9 146.47,189.27C146.75,188.75 147.03,188.24 147.37,187.93C147.64,187.69 147.97,187.48 148.27,187.47C148.57,187.46 148.91,187.65 149.18,187.88C149.52,188.17 149.8,188.67 150.08,189.17C150.42,189.77 150.71,190.51 150.99,191.28C151.32,192.17 151.6,193.17 151.89,194.2C152.21,195.35 152.5,196.6 152.79,197.88C153.11,199.28 153.41,200.75 153.7,202.27C154.01,203.89 154.31,205.58 154.6,207.3C154.91,209.12 155.21,211.01 155.51,212.92C155.82,214.91 156.11,216.96 156.41,219.03C156.72,221.17 157.02,223.36 157.32,225.56C157.63,227.81 157.92,230.1 158.22,232.4C158.52,234.74 158.82,237.11 159.12,239.47C159.42,241.85 159.73,244.25 160.03,246.64C160.33,249.03 160.63,251.42 160.93,253.8C161.23,256.16 161.54,258.52 161.84,260.86C162.14,263.17 162.44,265.47 162.74,267.73C163.04,269.95 163.33,272.14 163.64,274.31C163.94,276.42 164.24,278.52 164.55,280.57C164.85,282.56 165.14,284.52 165.45,286.43C165.75,288.26 166.05,290.06 166.36,291.79C166.65,293.41 166.94,295.01 167.26,296.48C167.55,297.81 167.72,300.13 168.16,300.25C168.42,300.32 168.81,299.79 169.07,299.32C169.52,298.5 169.68,296.8 169.97,295.44C170.29,293.95 170.59,292.36 170.88,290.75C171.19,289.06 171.48,287.31 171.78,285.55C172.08,283.74 172.38,281.9 172.68,280.05C172.98,278.17 173.29,276.28 173.59,274.38C173.89,272.47 174.19,270.55 174.49,268.63C174.79,266.71 175.1,264.78 175.4,262.86C175.7,260.95 176,259.03 176.3,257.13C176.6,255.25 176.91,253.37 177.21,251.51C177.51,249.67 177.81,247.85 178.11,246.04C178.41,244.26 178.7,242.5 179.01,240.76C179.31,239.06 179.61,237.37 179.92,235.71C180.22,234.09 180.51,232.49 180.82,230.91C181.12,229.38 181.42,227.86 181.73,226.38C182.03,224.94 182.32,223.53 182.63,222.14C182.93,220.8 183.22,219.47 183.53,218.18C183.83,216.93 184.13,215.7 184.44,214.5C184.74,213.35 185.03,212.22 185.34,211.12C185.64,210.06 185.94,209.02 186.25,208.01C186.55,207.04 186.84,206.09 187.15,205.17C187.44,204.29 187.74,203.43 188.05,202.6C188.35,201.8 188.65,201.03 188.96,200.28C189.26,199.56 189.55,198.86 189.86,198.19C190.15,197.55 190.46,196.93 190.77,196.33C191.06,195.76 191.36,195.2 191.67,194.67C191.97,194.16 192.27,193.67 192.58,193.2C192.88,192.75 193.17,192.31 193.48,191.89C193.77,191.48 194.07,191.09 194.38,190.72C194.68,190.36 194.98,190.02 195.29,189.69C195.59,189.38 195.88,189.08 196.19,188.8C196.49,188.53 196.79,188.26 197.1,188.03C197.39,187.81 197.69,187.6 198,187.42C198.29,187.25 198.59,187.09 198.9,186.97C199.2,186.86 199.5,186.77 199.81,186.73C200.11,186.69 200.41,186.69 200.71,186.73C201.02,186.77 201.33,186.87 201.62,187C201.93,187.14 202.23,187.34 202.52,187.57C202.84,187.82 203.13,188.14 203.42,188.48C203.74,188.86 204.04,189.29 204.33,189.75C204.65,190.26 204.94,190.82 205.23,191.4C205.54,192.03 205.85,192.71 206.14,193.42C206.45,194.18 206.75,194.99 207.04,195.82C207.35,196.7 207.66,197.63 207.95,198.58C208.26,199.58 208.56,200.62 208.85,201.68C209.16,202.78 209.45,203.92 209.75,205.07C210.06,206.26 210.36,207.47 210.66,208.7C210.97,209.95 211.26,211.23 211.56,212.51C211.86,213.8 212.17,215.1 212.47,216.39C212.77,217.68 213.07,218.98 213.37,220.25C213.67,221.5 213.96,222.75 214.27,223.97C214.57,225.15 214.87,226.31 215.18,227.43C215.47,228.49 215.76,229.53 216.08,230.5C216.37,231.4 216.67,232.27 216.99,233.06C217.28,233.76 217.56,234.45 217.89,235.02C218.17,235.5 218.45,235.98 218.79,236.27C219.07,236.5 219.4,236.72 219.7,236.72C220,236.72 220.33,236.53 220.6,236.3C220.95,236 221.23,235.48 221.51,234.96C221.85,234.32 222.13,233.52 222.41,232.69C222.74,231.73 223.03,230.64 223.32,229.52C223.64,228.27 223.93,226.91 224.22,225.52C224.53,224.01 224.83,222.41 225.12,220.78C225.43,219.05 225.73,217.24 226.03,215.41C226.34,213.49 226.63,211.51 226.93,209.51C227.24,207.43 227.54,205.3 227.84,203.16C228.15,200.96 228.44,198.72 228.74,196.47C229.04,194.18 229.34,191.86 229.64,189.54C229.94,187.2 230.25,184.84 230.55,182.48C230.85,180.11 231.15,177.73 231.45,175.37C231.75,173.02 232.06,170.66 232.36,168.33C232.66,166.02 232.96,163.72 233.26,161.45C233.56,159.22 233.85,157.01 234.16,154.83C234.46,152.71 234.76,150.6 235.07,148.54C235.37,146.55 235.66,144.58 235.97,142.67C236.27,140.83 236.57,139.02 236.88,137.27C237.17,135.61 237.47,133.98 237.78,132.41C238.07,130.94 238.37,129.5 238.68,128.13C238.97,126.86 239.27,125.62 239.59,124.46C239.88,123.4 240.17,122.38 240.49,121.44C240.78,120.6 241.07,119.8 241.4,119.09C241.68,118.47 241.97,117.88 242.3,117.41C242.58,117.02 242.88,116.64 243.21,116.42C243.49,116.23 243.81,116.1 244.11,116.1C244.41,116.1 244.73,116.26 245.01,116.45C245.34,116.68 245.64,117.05 245.92,117.44C246.25,117.9 246.54,118.47 246.82,119.07C247.14,119.75 247.44,120.52 247.73,121.31C248.05,122.19 248.34,123.14 248.63,124.12C248.94,125.18 249.24,126.31 249.53,127.47C249.84,128.71 250.15,130.02 250.44,131.35C250.75,132.76 251.05,134.21 251.34,135.7C251.65,137.26 251.95,138.87 252.25,140.51C252.56,142.22 252.85,143.97 253.15,145.74C253.46,147.58 253.75,149.45 254.05,151.35C254.36,153.31 254.66,155.31 254.96,157.33C255.27,159.4 255.56,161.5 255.86,163.63C256.17,165.81 256.47,168.01 256.77,170.24C257.07,172.51 257.37,174.81 257.67,177.12C257.97,179.48 258.28,181.86 258.58,184.25C258.88,186.68 259.18,189.13 259.48,191.59C259.78,194.08 260.08,196.59 260.38,199.11C260.68,201.65 260.99,204.21 261.29,206.77C261.59,209.34 261.89,211.93 262.19,214.51C262.49,217.09 262.8,219.69 263.1,222.26C263.4,224.81 263.69,227.38 264,229.86C264.29,232.23 264.55,234.79 264.9,236.83C265.17,238.45 265.35,241.03 265.81,241.16C266.06,241.23 266.45,240.67 266.71,240.21C267.13,239.46 267.33,238.03 267.62,236.85C267.94,235.57 268.23,234.19 268.52,232.81C268.83,231.38 269.12,229.9 269.42,228.41C269.73,226.86 270.03,225.29 270.33,223.67C270.64,221.99 270.94,220.27 271.23,218.5C271.54,216.64 271.85,214.73 272.14,212.76C272.45,210.68 272.75,208.54 273.04,206.35C273.35,204.05 273.65,201.67 273.95,199.26C274.26,196.77 274.55,194.22 274.85,191.66C275.15,189.06 275.45,186.42 275.75,183.79C276.05,181.16 276.36,178.5 276.66,175.88C276.96,173.28 277.26,170.68 277.56,168.12C277.86,165.61 278.16,163.11 278.47,160.65C278.77,158.26 279.06,155.89 279.37,153.58C279.66,151.35 279.96,149.15 280.27,147.01C280.57,144.96 280.87,142.95 281.18,141C281.47,139.15 281.77,137.34 282.08,135.6C282.37,133.97 282.68,132.38 282.99,130.87C283.28,129.47 283.57,128.11 283.89,126.83C284.18,125.67 284.47,124.55 284.79,123.53C285.08,122.62 285.37,121.74 285.7,120.97C285.98,120.31 286.26,119.66 286.6,119.16C286.88,118.74 287.17,118.33 287.51,118.11C287.79,117.93 288.11,117.8 288.41,117.82C288.72,117.84 289.04,118.04 289.32,118.26C289.66,118.53 289.94,118.97 290.22,119.41C290.55,119.94 290.84,120.58 291.12,121.25C291.44,122.01 291.74,122.85 292.03,123.72C292.35,124.68 292.64,125.73 292.93,126.8C293.24,127.95 293.55,129.17 293.84,130.41C294.15,131.73 294.45,133.1 294.74,134.5C295.05,135.96 295.34,137.47 295.64,139C295.95,140.58 296.25,142.2 296.55,143.83C296.86,145.5 297.15,147.2 297.45,148.91C297.75,150.65 298.06,152.41 298.36,154.17C298.66,155.95 298.96,157.74 299.26,159.53C299.56,161.32 299.86,163.12 300.16,164.91C300.46,166.69 300.77,168.47 301.07,170.23C301.37,171.98 301.67,173.72 301.97,175.44C302.27,177.13 302.57,178.81 302.88,180.46C303.18,182.07 303.48,183.67 303.78,185.24C304.08,186.76 304.37,188.26 304.68,189.72C304.98,191.13 305.28,192.51 305.59,193.85C305.88,195.13 306.18,196.38 306.49,197.59C306.78,198.73 307.09,199.84 307.4,200.9C307.69,201.89 307.99,202.85 308.3,203.76C308.59,204.6 308.89,205.41 309.21,206.16C309.5,206.84 309.79,207.49 310.11,208.08C310.4,208.61 310.69,209.11 311.01,209.54C311.3,209.92 311.6,210.27 311.92,210.53C312.2,210.76 312.51,210.95 312.82,211.06C313.11,211.16 313.43,211.2 313.73,211.17C314.03,211.14 314.34,211.03 314.63,210.89C314.94,210.74 315.24,210.51 315.53,210.28C315.84,210.03 316.15,209.73 316.44,209.42C316.75,209.09 317.04,208.73 317.34,208.37C317.65,208 317.95,207.62 318.25,207.24C318.55,206.86 318.85,206.46 319.15,206.08C319.45,205.7 319.75,205.33 320.05,204.97C320.35,204.62 320.65,204.27 320.96,203.94C321.26,203.63 321.55,203.32 321.86,203.04C322.16,202.76 322.46,202.5 322.77,202.26C323.07,202.03 323.37,201.81 323.67,201.61C323.97,201.41 324.28,201.23 324.58,201.05C324.88,200.88 325.18,200.72 325.48,200.55C325.78,200.39 326.08,200.23 326.38,200.06C326.68,199.89 326.99,199.71 327.29,199.52C327.59,199.32 327.89,199.12 328.19,198.89C328.5,198.65 328.8,198.39 329.1,198.11C329.41,197.82 329.71,197.5 330,197.16C330.31,196.81 330.6,196.43 330.9,196.04C331.21,195.64 331.51,195.21 331.81,194.78C332.12,194.34 332.41,193.88 332.71,193.42C333.01,192.96 333.32,192.48 333.62,192.02C333.92,191.56 334.22,191.1 334.52,190.66C334.82,190.23 335.11,189.8 335.42,189.41C335.71,189.04 336.02,188.67 336.33,188.35C336.62,188.05 336.92,187.77 337.23,187.55C337.52,187.35 337.83,187.16 338.14,187.06C338.43,186.97 338.74,186.92 339.04,186.94C339.35,186.96 339.66,187.06 339.95,187.21C340.27,187.37 340.57,187.62 340.85,187.89C341.17,188.2 341.46,188.58 341.75,188.98C342.07,189.43 342.37,189.94 342.66,190.47C342.98,191.05 343.27,191.68 343.56,192.33C343.87,193.03 344.18,193.77 344.47,194.52C344.78,195.31 345.07,196.14 345.37,196.97C345.68,197.83 345.97,198.72 346.27,199.61C346.57,200.51 346.88,201.44 347.18,202.35C347.48,203.26 347.78,204.19 348.08,205.09C348.38,205.98 348.68,206.87 348.99,207.72C349.29,208.54 349.58,209.35 349.89,210.12C350.18,210.84 350.47,211.54 350.79,212.18C351.08,212.76 351.38,213.33 351.7,213.81C351.98,214.23 352.27,214.64 352.6,214.93C352.88,215.18 353.19,215.41 353.51,215.5C353.8,215.58 354.12,215.58 354.41,215.49C354.73,215.39 355.04,215.15 355.32,214.88C355.65,214.56 355.94,214.11 356.22,213.65C356.55,213.11 356.84,212.48 357.12,211.82C357.44,211.07 357.74,210.24 358.03,209.37C358.35,208.41 358.64,207.37 358.93,206.28C359.25,205.08 359.56,203.84 359.84,202.47C360.17,200.9 360.46,199.27 360.74,197.4C361.08,195.11 361.35,192.39 361.64,189.72C361.96,186.8 362.25,183.64 362.55,180.56C362.85,177.42 363.15,174.22 363.45,171.04C363.75,167.84 364.06,164.62 364.36,161.42C364.66,158.22 364.96,155.02 365.26,151.83C365.56,148.66 365.86,145.49 366.16,142.35C366.46,139.23 366.77,136.13 367.07,133.05C367.37,130.01 367.67,126.98 367.97,123.97C368.27,121.01 368.58,118.06 368.88,115.14C369.18,112.27 369.48,109.42 369.78,106.59C370.08,103.81 370.38,101.05 370.68,98.32C370.98,95.64 371.29,92.98 371.59,90.34C371.89,87.75 372.19,85.19 372.49,82.65C372.79,80.16 373.1,77.69 373.4,75.24C373.7,72.84 374,70.47 374.3,68.12C374.6,65.82 374.9,63.55 375.21,61.3C375.51,59.11 375.81,56.94 376.11,54.8C376.41,52.72 376.7,50.67 377.01,48.66C377.31,46.71 377.61,44.77 377.92,42.89C378.22,41.08 378.51,39.29 378.82,37.56C379.12,35.9 379.42,34.27 379.73,32.7C380.02,31.21 380.32,29.75 380.63,28.36C380.92,27.06 381.21,25.8 381.53,24.61C381.82,23.51 382.12,22.45 382.44,21.47C382.73,20.59 383.01,19.74 383.34,19C383.62,18.35 383.91,17.73 384.25,17.24C384.53,16.84 384.82,16.43 385.15,16.23C385.43,16.06 385.76,15.95 386.05,16C386.36,16.05 386.68,16.3 386.96,16.58C387.3,16.92 387.58,17.46 387.86,18C388.2,18.66 388.49,19.44 388.77,20.27C389.1,21.22 389.38,22.29 389.67,23.4C389.99,24.65 390.29,26 390.58,27.41C390.9,28.95 391.19,30.6 391.48,32.29C391.79,34.12 392.09,36.05 392.38,38.03C392.69,40.15 393,42.36 393.29,44.62C393.6,47.02 393.9,49.51 394.19,52.05C394.5,54.72 394.8,57.47 395.1,60.28C395.41,63.21 395.71,66.23 396,69.29C396.31,72.47 396.6,75.73 396.9,79.03C397.21,82.45 397.51,85.93 397.81,89.46C398.12,93.09 398.41,96.79 398.71,100.53C399.02,104.36 399.32,108.26 399.62,112.18C399.92,116.19 400.22,120.24 400.52,124.33C400.82,128.49 401.12,132.69 401.42,136.91C401.72,141.19 402.03,145.51 402.33,149.84C402.63,154.21 402.93,158.61 403.23,163.01C403.53,167.43 403.84,171.87 404.14,176.3C404.44,180.72 404.74,185.16 405.04,189.56C405.34,193.92 405.64,198.34 405.95,202.59C406.25,206.65 406.48,211.22 406.85,214.5C407.11,216.82 407.43,218.54 407.75,220.43C408.04,222.17 408.35,223.82 408.66,225.43C408.95,226.95 409.25,228.42 409.56,229.84C409.85,231.18 410.16,232.46 410.47,233.73C410.77,234.94 411.07,236.11 411.37,237.28C411.67,238.44 411.97,239.57 412.27,240.72C412.57,241.87 412.88,243.01 413.18,244.18C413.48,245.37 413.78,246.57 414.08,247.79C414.39,249.04 414.69,250.31 414.99,251.6C415.3,252.93 415.59,254.27 415.89,255.64C416.19,257.04 416.49,258.47 416.79,259.91C417.09,261.38 417.4,262.89 417.7,264.37C418,265.84 418.26,267.48 418.6,268.76C418.88,269.79 419.23,271.5 419.51,271.49C419.84,271.48 420.14,269.17 420.41,267.75C420.76,265.92 421.02,263.49 421.32,261.39C421.62,259.32 421.91,257.22 422.22,255.22C422.51,253.31 422.81,251.44 423.12,249.65C423.41,247.98 423.72,246.35 424.03,244.81C424.32,243.39 424.61,242.01 424.93,240.73C425.22,239.57 425.52,238.46 425.84,237.44C426.12,236.54 426.41,235.68 426.74,234.94C427.02,234.31 427.3,233.7 427.64,233.23C427.92,232.85 428.22,232.48 428.55,232.29C428.83,232.13 429.16,232.04 429.45,232.08C429.76,232.12 430.08,232.33 430.36,232.56C430.69,232.83 430.98,233.25 431.26,233.67C431.58,234.15 431.87,234.73 432.16,235.31C432.48,235.94 432.77,236.65 433.07,237.34C433.38,238.06 433.67,238.82 433.97,239.56C434.27,240.3 434.57,241.05 434.88,241.76C435.18,242.44 435.47,243.11 435.78,243.74C436.07,244.34 436.37,244.91 436.68,245.47C436.98,246.01 437.29,246.53 437.59,247.06C437.89,247.6 438.19,248.13 438.49,248.69C438.8,249.27 439.11,249.87 439.4,250.49C439.71,251.15 440.01,251.83 440.3,252.54C440.61,253.29 440.92,254.07 441.21,254.87C441.52,255.72 441.82,256.6 442.11,257.5C442.42,258.45 442.71,259.42 443.01,260.42C443.32,261.46 443.62,262.52 443.92,263.6C444.23,264.71 444.52,265.85 444.82,267C445.13,268.18 445.43,269.39 445.73,270.6C446.03,271.83 446.33,273.09 446.63,274.34C446.93,275.59 447.25,278.09 447.53,278.08C447.87,278.07 448.15,274.32 448.44,272.29C448.76,270.05 449.04,267.55 449.34,265.21C449.64,262.9 449.95,260.6 450.25,258.32C450.55,256.09 450.85,253.87 451.15,251.68C451.45,249.54 451.74,247.42 452.05,245.34C452.35,243.32 452.65,241.32 452.96,239.36C453.26,237.47 453.55,235.61 453.86,233.8C454.16,232.06 454.46,230.35 454.77,228.69C455.06,227.11 455.36,225.56 455.67,224.07C455.96,222.66 456.27,221.28 456.58,219.96C456.87,218.72 457.17,217.52 457.48,216.38C457.77,215.32 458.06,214.3 458.38,213.35C458.67,212.48 458.97,211.64 459.29,210.87C459.58,210.18 459.87,209.52 460.19,208.94C460.47,208.43 460.77,207.95 461.1,207.57Q461.38,207.24 462,206.75" style="vector-effect: non-scaling-stroke; fill: none; stroke: rgb(231, 107, 243); stroke-opacity: 1; stroke-width: 2px; opacity: 1;"/></g><g class="points"/><g class="text"/></g></g></g><g class="overplot"/><path class="xlines-above crisp" d="M0,0" style="fill: none;"/><path class="ylines-above crisp" d="M0,0" style="fill: none;"/><g class="overlines-above"/><g class="xaxislayer-above"><g class="xtick"><text text-anchor="middle" x="0" y="433" transform="translate(80,0)" style="font-family: 'Open Sans', verdana, arial, sans-serif; font-size: 12px; fill: rgb(42, 63, 95); fill-opacity: 1; white-space: pre;">0</text></g><g class="xtick"><text text-anchor="middle" x="0" y="433" transform="translate(170.23000000000002,0)" style="font-family: 'Open Sans', verdana, arial, sans-serif; font-size: 12px; fill: rgb(42, 63, 95); fill-opacity: 1; white-space: pre;">100</text></g><g class="xtick"><text text-anchor="middle" x="0" y="433" transform="translate(260.47,0)" style="font-family: 'Open Sans', verdana, arial, sans-serif; font-size: 12px; fill: rgb(42, 63, 95); fill-opacity: 1; white-space: pre;">200</text></g><g class="xtick"><text text-anchor="middle" x="0" y="433" transform="translate(350.7,0)" style="font-family: 'Open Sans', verdana, arial, sans-serif; font-size: 12px; fill: rgb(42, 63, 95); fill-opacity: 1; white-space: pre;">300</text></g><g class="xtick"><text text-anchor="middle" x="0" y="433" transform="translate(440.94,0)" style="font-family: 'Open Sans', verdana, arial, sans-serif; font-size: 12px; fill: rgb(42, 63, 95); fill-opacity: 1; white-space: pre;">400</text></g><g class="xtick"><text text-anchor="middle" x="0" y="433" transform="translate(531.1700000000001,0)" style="font-family: 'Open Sans', verdana, arial, sans-serif; font-size: 12px; fill: rgb(42, 63, 95); fill-opacity: 1; white-space: pre;">500</text></g></g><g class="yaxislayer-above"><g class="ytick"><text text-anchor="end" x="79" y="4.199999999999999" transform="translate(0,390.43)" style="font-family: 'Open Sans', verdana, arial, sans-serif; font-size: 12px; fill: rgb(42, 63, 95); fill-opacity: 1; white-space: pre;">200</text></g><g class="ytick"><text text-anchor="end" x="79" y="4.199999999999999" transform="translate(0,326.93)" style="font-family: 'Open Sans', verdana, arial, sans-serif; font-size: 12px; fill: rgb(42, 63, 95); fill-opacity: 1; white-space: pre;">400</text></g><g class="ytick"><text text-anchor="end" x="79" y="4.199999999999999" transform="translate(0,263.44)" style="font-family: 'Open Sans', verdana, arial, sans-serif; font-size: 12px; fill: rgb(42, 63, 95); fill-opacity: 1; white-space: pre;">600</text></g><g class="ytick"><text text-anchor="end" x="79" y="4.199999999999999" transform="translate(0,199.95)" style="font-family: 'Open Sans', verdana, arial, sans-serif; font-size: 12px; fill: rgb(42, 63, 95); fill-opacity: 1; white-space: pre;">800</text></g><g class="ytick"><text text-anchor="end" x="79" y="4.199999999999999" transform="translate(0,136.45)" style="font-family: 'Open Sans', verdana, arial, sans-serif; font-size: 12px; fill: rgb(42, 63, 95); fill-opacity: 1; white-space: pre;">1000</text></g></g><g class="overaxes-above"/></g></g><g class="polarlayer"/><g class="ternarylayer"/><g class="geolayer"/><g class="funnelarealayer"/><g class="pielayer"/><g class="treemaplayer"/><g class="sunburstlayer"/><g class="glimages"/><defs id="topdefs-5cbd3a"><g class="clips"/><clipPath id="legend5cbd3a"><rect width="137" height="67" x="0" y="0"/></clipPath></defs><g class="layer-above"><g class="imagelayer"/><g class="shapelayer"/></g><g class="infolayer"><g class="legend" pointer-events="all" transform="translate(551.24, 100)"><rect class="bg" shape-rendering="crispEdges" width="137" height="67" x="0" y="0" style="stroke: rgb(68, 68, 68); stroke-opacity: 1; fill: rgb(255, 255, 255); fill-opacity: 1; stroke-width: 0px;"/><g class="scrollbox" transform="translate(0, 0)" clip-path="url('#legend5cbd3a')"><g class="groups"><g class="traces" transform="translate(0, 14.5)" style="opacity: 1;"><text class="legendtext" text-anchor="start" x="40" y="4.680000000000001" style="font-family: 'Open Sans', verdana, arial, sans-serif; font-size: 12px; fill: rgb(42, 63, 95); fill-opacity: 1; white-space: pre;">Average Class I</text><g class="layers" style="opacity: 1;"><g class="legendfill"/><g class="legendlines"><path class="js-line" d="M5,0h30" style="fill: none; stroke: rgb(0, 100, 80); stroke-opacity: 1; stroke-width: 2px;"/></g><g class="legendsymbols"><g class="legendpoints"/></g></g><rect class="legendtoggle" x="0" y="-9.5" width="131.15625" height="19" style="fill: rgb(0, 0, 0); fill-opacity: 0;"/></g><g class="traces" transform="translate(0, 33.5)" style="opacity: 1;"><text class="legendtext" text-anchor="start" x="40" y="4.680000000000001" style="font-family: 'Open Sans', verdana, arial, sans-serif; font-size: 12px; fill: rgb(42, 63, 95); fill-opacity: 1; white-space: pre;">Average Class II</text><g class="layers" style="opacity: 1;"><g class="legendfill"/><g class="legendlines"><path class="js-line" d="M5,0h30" style="fill: none; stroke: rgb(0, 176, 246); stroke-opacity: 1; stroke-width: 2px;"/></g><g class="legendsymbols"><g class="legendpoints"/></g></g><rect class="legendtoggle" x="0" y="-9.5" width="131.15625" height="19" style="fill: rgb(0, 0, 0); fill-opacity: 0;"/></g><g class="traces" transform="translate(0, 52.5)" style="opacity: 1;"><text class="legendtext" text-anchor="start" x="40" y="4.680000000000001" style="font-family: 'Open Sans', verdana, arial, sans-serif; font-size: 12px; fill: rgb(42, 63, 95); fill-opacity: 1; white-space: pre;">Average Class III</text><g class="layers" style="opacity: 1;"><g class="legendfill"/><g class="legendlines"><path class="js-line" d="M5,0h30" style="fill: none; stroke: rgb(231, 107, 243); stroke-opacity: 1; stroke-width: 2px;"/></g><g class="legendsymbols"><g class="legendpoints"/></g></g><rect class="legendtoggle" x="0" y="-9.5" width="131.15625" height="19" style="fill: rgb(0, 0, 0); fill-opacity: 0;"/></g></g></g><rect class="scrollbar" rx="20" ry="3" width="0" height="0" x="0" y="0" style="fill: rgb(128, 139, 164); fill-opacity: 1;"/></g><g class="g-gtitle"><text class="gtitle" x="35" y="50" text-anchor="start" dy="0em" style="font-family: 'Open Sans', verdana, arial, sans-serif; font-size: 17px; fill: rgb(42, 63, 95); opacity: 1; font-weight: normal; white-space: pre;">Average curve: volume_group</text></g><g class="g-xtitle"><text class="xtitle" x="311" y="460.8" text-anchor="middle" style="font-family: 'Open Sans', verdana, arial, sans-serif; font-size: 14px; fill: rgb(42, 63, 95); opacity: 1; font-weight: normal; white-space: pre;">Domain</text></g><g class="g-ytitle"><text class="ytitle" transform="rotate(-90,27.496875000000003,260)" x="27.496875000000003" y="260" text-anchor="middle" style="font-family: 'Open Sans', verdana, arial, sans-serif; font-size: 14px; fill: rgb(42, 63, 95); opacity: 1; font-weight: normal; white-space: pre;">Frequency</text></g></g></svg>