<svg class="main-svg" xmlns="http://www.w3.org/2000/svg" xmlns:xlink="http://www.w3.org/1999/xlink" width="700" height="500" style="" viewBox="0 0 700 500"><rect x="0" y="0" width="700" height="500" style="fill: rgb(255, 255, 255); fill-opacity: 1;"/><defs id="defs-8af0e2"><g class="clips"><clipPath id="clip8af0e2xyplot" class="plotclip"><rect width="462" height="320"/></clipPath><clipPath class="axesclip" id="clip8af0e2x"><rect x="80" y="0" width="462" height="500"/></clipPath><clipPath class="axesclip" id="clip8af0e2y"><rect x="0" y="100" width="700" height="320"/></clipPath><clipPath class="axesclip" id="clip8af0e2xy"><rect x="80" y="100" width="462" height="320"/></clipPath></g><g class="gradients"/></defs><g class="bglayer"><rect class="bg" x="80" y="100" width="462" height="320" style="fill: rgb(229, 236, 246); fill-opacity: 1; stroke-width: 0;"/></g><g class="layer-below"><g class="imagelayer"/><g class="shapelayer"/></g><g class="cartesianlayer"><g class="subplot xy"><g class="layer-subplot"><g class="shapelayer"/><g class="imagelayer"/></g><g class="gridlayer"><g class="x"><path class="xgrid crisp" transform="translate(170.23000000000002,0)" d="M0,100v320" style="stroke: rgb(255, 255, 255); stroke-opacity: 1; stroke-width: 1px;"/><path class="xgrid crisp" transform="translate(260.47,0)" d="M0,100v320" style="stroke: rgb(255, 255, 255); stroke-opacity: 1; stroke-width: 1px;"/><path class="xgrid crisp" transform="translate(350.7,0)" d="M0,100v320" style="stroke: rgb(255, 255, 255); stroke-opacity: 1; stroke-width: 1px;"/><path class="xgrid crisp" transform="translate(440.94,0)" d="M0,100v320" style="stroke: rgb(255, 255, 255); stroke-opacity: 1; stroke-width: 1px;"/><path class="xgrid crisp" transform="translate(531.1700000000001,0)" d="M0,100v320" style="stroke: rgb(255, 255, 255); stroke-opacity: 1; stroke-width: 1px;"/></g><g class="y"><path class="ygrid crisp" transform="translate(0,410.86)" d="M80,0h462" style="stroke: rgb(255, 255, 255); stroke-opacity: 1; stroke-width: 1px;"/><path class="ygrid crisp" transform="translate(0,355.11)" d="M80,0h462" style="stroke: rgb(255, 255, 255); stroke-opacity: 1; stroke-width: 1px;"/><path class="ygrid crisp" transform="translate(0,299.35)" d="M80,0h462" style="stroke: rgb(255, 255, 255); stroke-opacity: 1; stroke-width: 1px;"/><path class="ygrid crisp" transform="translate(0,243.6)" d="M80,0h462" style="stroke: rgb(255, 255, 255); stroke-opacity: 1; stroke-width: 1px;"/><path class="ygrid crisp" transform="translate(0,187.84)" d="M80,0h462" style="stroke: rgb(255, 255, 255); stroke-opacity: 1; stroke-width: 1px;"/><path class="ygrid crisp" transform="translate(0,132.09)" d="M80,0h462" style="stroke: rgb(255, 255, 255); stroke-opacity: 1; stroke-width: 1px;"/></g></g><g class="zerolinelayer"><path class="xzl zl crisp" transform="translate(80,0)" d="M0,100v320" style="stroke: rgb(255, 255, 255); stroke-opacity: 1; stroke-width: 2px;"/></g><path class="xlines-below"/><path class="ylines-below"/><g class="overlines-below"/><g class="xaxislayer-below"/><g class="yaxislayer-below"/><g class="overaxes-below"/><g class="plot" transform="translate(80, 100)" clip-path="url('#clip8af0e2xyplot')"><g class="scatterlayer mlayer"><g class="trace scatter trace48810e" style="stroke-miterlimit: 2; opacity: 1;"><g class="fills"/><g class="errorbars"/><g class="lines"><path class="js-line" d="M0,16.98Q0.6,16.93 0.9,16.87C1.2,16.81 1.51,16.7 1.81,16.61C2.11,16.52 2.41,16.4 2.71,16.31C3.01,16.22 3.32,16.13 3.62,16.08C3.92,16.03 4.22,15.99 4.52,16C4.82,16.01 5.13,16.05 5.42,16.15C5.73,16.25 6.04,16.41 6.33,16.61C6.65,16.83 6.94,17.12 7.23,17.45C7.55,17.82 7.85,18.25 8.14,18.72C8.46,19.24 8.75,19.83 9.04,20.46C9.36,21.16 9.66,21.93 9.95,22.73C10.27,23.61 10.56,24.56 10.85,25.55C11.16,26.62 11.46,27.76 11.75,28.94C12.06,30.21 12.37,31.53 12.66,32.9C12.97,34.36 13.27,35.87 13.56,37.43C13.87,39.08 14.18,40.78 14.47,42.52C14.78,44.35 15.08,46.24 15.37,48.17C15.68,50.19 15.97,52.27 16.27,54.39C16.58,56.6 16.88,58.87 17.18,61.18C17.49,63.59 17.78,66.05 18.08,68.55C18.39,71.15 18.69,73.8 18.99,76.5C19.3,79.29 19.59,82.13 19.89,85.01C20.19,87.98 20.49,91 20.79,94.05C21.1,97.19 21.4,100.37 21.7,103.59C22.01,106.88 22.3,110.22 22.6,113.59C22.9,117.02 23.21,120.49 23.51,123.98C23.81,127.53 24.11,131.11 24.41,134.71C24.71,138.35 25.02,142.02 25.32,145.7C25.62,149.41 25.92,153.14 26.22,156.87C26.52,160.6 26.82,164.35 27.12,168.07C27.42,171.78 27.73,175.48 28.03,179.16C28.33,182.81 28.63,186.46 28.93,190.07C29.23,193.63 29.53,197.2 29.84,200.69C30.14,204.08 30.44,207.43 30.74,210.73C31.04,213.95 31.34,217.1 31.64,220.26C31.94,223.39 32.25,226.52 32.55,229.62C32.85,232.67 33.15,235.71 33.45,238.7C33.75,241.63 34.05,244.53 34.36,247.4C34.66,250.2 34.96,252.98 35.26,255.71C35.56,258.36 35.85,261 36.16,263.54C36.45,265.95 36.75,268.33 37.07,270.58C37.36,272.65 37.65,274.67 37.97,276.53C38.26,278.18 38.54,279.81 38.88,281.19C39.16,282.31 39.43,283.38 39.78,284.21C40.05,284.85 40.3,285.56 40.68,285.81C40.95,285.99 41.31,286.02 41.59,285.93C41.92,285.82 42.22,285.43 42.49,285.06C42.84,284.59 43.11,283.91 43.4,283.28C43.71,282.6 44.01,281.85 44.3,281.11C44.61,280.33 44.92,279.56 45.21,278.7C45.53,277.75 45.82,276.7 46.11,275.66C46.42,274.56 46.71,273.4 47.01,272.27C47.31,271.14 47.61,269.99 47.92,268.88C48.22,267.81 48.51,266.76 48.82,265.74C49.11,264.77 49.42,263.84 49.73,262.93C50.02,262.07 50.32,261.23 50.63,260.43C50.92,259.67 51.22,258.94 51.53,258.23C51.82,257.56 52.13,256.93 52.44,256.3C52.74,255.69 53.03,255.07 53.34,254.49C53.63,253.94 53.94,253.4 54.25,252.9C54.54,252.43 54.83,251.95 55.15,251.55C55.44,251.18 55.73,250.84 56.05,250.57C56.34,250.32 56.64,250.11 56.96,249.97C57.25,249.85 57.56,249.75 57.86,249.76C58.16,249.77 58.48,249.88 58.77,250.04C59.09,250.21 59.39,250.5 59.67,250.8C59.99,251.14 60.29,251.57 60.58,252.02C60.9,252.51 61.19,253.07 61.48,253.65C61.79,254.28 62.09,254.96 62.38,255.66C62.69,256.41 62.99,257.22 63.29,258.03C63.6,258.88 63.89,259.77 64.19,260.66C64.5,261.58 64.8,262.53 65.1,263.46C65.4,264.4 65.69,265.36 66,266.27C66.29,267.14 66.58,268.01 66.9,268.8C67.19,269.52 67.49,270.21 67.81,270.82C68.09,271.36 68.37,271.89 68.71,272.28C68.99,272.6 69.3,272.88 69.62,273.04C69.9,273.18 70.22,273.23 70.52,273.25C70.82,273.27 71.12,273.24 71.42,273.19C71.73,273.14 72.03,273.04 72.33,272.92C72.64,272.8 72.94,272.66 73.23,272.48C73.54,272.28 73.85,272.02 74.14,271.76C74.45,271.48 74.75,271.17 75.04,270.84C75.35,270.49 75.67,270.13 75.95,269.69C76.28,269.17 76.56,268.51 76.85,267.87C77.16,267.19 77.46,266.48 77.75,265.73C78.06,264.93 78.37,264.08 78.66,263.22C78.97,262.31 79.26,261.35 79.56,260.39C79.87,259.41 80.17,258.41 80.47,257.41C80.77,256.4 81.07,255.4 81.37,254.38C81.67,253.35 81.97,252.29 82.27,251.27C82.57,250.27 82.87,249.27 83.18,248.3C83.48,247.36 83.77,246.44 84.08,245.54C84.38,244.68 84.68,243.84 84.99,243.01C85.29,242.2 85.59,241.41 85.89,240.63C86.19,239.87 86.48,239.1 86.79,238.37C87.09,237.66 87.39,236.97 87.7,236.3C88,235.65 88.29,235.02 88.6,234.4C88.9,233.79 89.21,233.21 89.51,232.62C89.81,232.03 90.12,231.48 90.41,230.87C90.72,230.22 91.03,229.55 91.32,228.85C91.63,228.1 91.92,227.3 92.22,226.51C92.52,225.69 92.82,224.85 93.12,224.01C93.42,223.15 93.73,222.28 94.03,221.42C94.33,220.56 94.63,219.69 94.93,218.84C95.23,218 95.53,217.16 95.84,216.35C96.14,215.56 96.43,214.77 96.74,214.02C97.03,213.3 97.33,212.59 97.64,211.93C97.93,211.31 98.23,210.7 98.55,210.14C98.84,209.63 99.13,209.14 99.45,208.72C99.74,208.34 100.04,207.98 100.36,207.7C100.65,207.45 100.95,207.22 101.26,207.08C101.55,206.95 101.86,206.87 102.16,206.85C102.46,206.83 102.77,206.89 103.07,206.98C103.38,207.07 103.68,207.23 103.97,207.4C104.28,207.58 104.58,207.79 104.88,208.02C105.19,208.26 105.48,208.55 105.78,208.82C106.08,209.1 106.38,209.38 106.68,209.67C106.99,209.97 107.3,210.26 107.59,210.59C107.9,210.94 108.2,211.33 108.49,211.74C108.8,212.18 109.11,212.65 109.4,213.15C109.71,213.68 110.01,214.23 110.3,214.82C110.61,215.45 110.92,216.11 111.21,216.8C111.52,217.53 111.82,218.3 112.11,219.09C112.42,219.91 112.71,220.78 113.01,221.63C113.31,222.49 113.61,223.4 113.92,224.23C114.21,225.01 114.51,225.77 114.82,226.48C115.11,227.15 115.43,227.75 115.73,228.38C116.03,229.01 116.32,229.66 116.63,230.27C116.92,230.85 117.22,231.41 117.53,231.97C117.83,232.51 118.13,233.05 118.44,233.57C118.74,234.08 119.03,234.59 119.34,235.07C119.64,235.54 119.94,235.99 120.25,236.43C120.55,236.85 120.84,237.25 121.15,237.63C121.44,237.99 121.74,238.34 122.05,238.64C122.34,238.93 122.64,239.21 122.96,239.41C123.25,239.6 123.55,239.78 123.86,239.84C124.16,239.9 124.48,239.88 124.77,239.78C125.09,239.67 125.39,239.41 125.67,239.13C126,238.8 126.29,238.35 126.58,237.89C126.9,237.38 127.19,236.8 127.48,236.21C127.79,235.57 128.09,234.87 128.38,234.16C128.69,233.4 129,232.62 129.29,231.79C129.6,230.9 129.89,229.93 130.19,228.99C130.49,228.03 130.8,227.04 131.1,226.07C131.4,225.1 131.7,224.12 132,223.16C132.3,222.21 132.59,221.25 132.9,220.32C133.2,219.41 133.5,218.51 133.81,217.63C134.11,216.79 134.4,215.96 134.71,215.16C135,214.4 135.31,213.65 135.62,212.95C135.91,212.29 136.21,211.65 136.52,211.05C136.81,210.5 137.1,209.96 137.42,209.49C137.71,209.06 138.01,208.65 138.33,208.31C138.62,208 138.91,207.72 139.23,207.52C139.52,207.34 139.83,207.19 140.14,207.12C140.43,207.06 140.74,207.05 141.04,207.11C141.35,207.17 141.66,207.32 141.95,207.48C142.26,207.66 142.56,207.89 142.85,208.15C143.16,208.43 143.46,208.74 143.75,209.09C144.07,209.47 144.37,209.89 144.66,210.34C144.98,210.83 145.27,211.36 145.56,211.92C145.87,212.53 146.18,213.18 146.47,213.85C146.78,214.56 147.08,215.31 147.37,216.08C147.68,216.88 147.97,217.74 148.27,218.57C148.57,219.41 148.88,220.24 149.18,221.08C149.48,221.93 149.78,222.78 150.08,223.63C150.38,224.49 150.68,225.37 150.99,226.21C151.29,227.02 151.58,227.82 151.89,228.57C152.18,229.26 152.47,229.93 152.79,230.53C153.08,231.06 153.37,231.59 153.7,232C153.98,232.36 154.27,232.7 154.6,232.9C154.88,233.07 155.21,233.2 155.51,233.19C155.81,233.18 156.13,233.04 156.41,232.86C156.74,232.65 157.04,232.3 157.32,231.94C157.65,231.52 157.93,231 158.22,230.47C158.53,229.89 158.82,229.24 159.12,228.61C159.43,227.95 159.73,227.27 160.03,226.59C160.33,225.89 160.63,225.18 160.93,224.47C161.23,223.76 161.53,223.05 161.84,222.35C162.14,221.67 162.43,220.99 162.74,220.34C163.03,219.72 163.33,219.1 163.64,218.53C163.93,217.99 164.23,217.47 164.55,217C164.84,216.57 165.13,216.15 165.45,215.8C165.74,215.49 166.04,215.2 166.36,214.99C166.65,214.8 166.95,214.65 167.26,214.59C167.55,214.53 167.87,214.54 168.16,214.61C168.47,214.69 168.78,214.87 169.07,215.07C169.39,215.29 169.68,215.58 169.97,215.88C170.28,216.2 170.57,216.61 170.88,216.92C171.17,217.21 171.48,217.46 171.78,217.7C172.08,217.94 172.39,218.12 172.68,218.37C172.99,218.63 173.3,218.91 173.59,219.23C173.9,219.57 174.2,219.95 174.49,220.36C174.81,220.81 175.11,221.3 175.4,221.81C175.71,222.36 176.01,222.96 176.3,223.58C176.61,224.25 176.92,224.95 177.21,225.68C177.52,226.45 177.82,227.26 178.11,228.09C178.42,228.97 178.71,229.89 179.01,230.82C179.32,231.79 179.62,232.8 179.92,233.81C180.23,234.85 180.52,235.93 180.82,237C181.12,238.08 181.43,239.17 181.73,240.27C182.03,241.38 182.33,242.5 182.63,243.63C182.93,244.79 183.23,245.96 183.53,247.14C183.83,248.33 184.14,249.54 184.44,250.74C184.74,251.93 185.03,253.14 185.34,254.29C185.64,255.39 185.91,256.56 186.25,257.51C186.53,258.29 186.79,259.1 187.15,259.61C187.42,259.98 187.73,260.26 188.05,260.42C188.33,260.56 188.66,260.62 188.96,260.61C189.26,260.6 189.57,260.51 189.86,260.37C190.18,260.22 190.49,259.98 190.77,259.7C191.09,259.38 191.38,258.94 191.67,258.53C191.98,258.09 192.28,257.61 192.58,257.15C192.88,256.69 193.18,256.21 193.48,255.76C193.78,255.32 194.08,254.91 194.38,254.47C194.68,254.03 194.99,253.58 195.29,253.13C195.59,252.67 195.88,252.16 196.19,251.72C196.48,251.3 196.79,250.9 197.1,250.54C197.39,250.21 197.69,249.9 198,249.63C198.29,249.38 198.59,249.17 198.9,248.98C199.2,248.8 199.5,248.65 199.81,248.53C200.11,248.41 200.41,248.32 200.71,248.26C201.01,248.2 201.32,248.15 201.62,248.15C201.92,248.15 202.22,248.18 202.52,248.25C202.82,248.32 203.12,248.43 203.42,248.56C203.73,248.69 204.03,248.85 204.33,249.03C204.64,249.21 204.93,249.42 205.23,249.64C205.54,249.86 205.84,250.1 206.14,250.35C206.44,250.6 206.74,250.87 207.04,251.14C207.34,251.42 207.65,251.7 207.95,251.99C208.25,252.28 208.55,252.57 208.85,252.86C209.15,253.15 209.45,253.46 209.75,253.75C210.05,254.03 210.34,254.34 210.66,254.56C210.95,254.76 211.26,254.88 211.56,255.03C211.86,255.18 212.17,255.32 212.47,255.45C212.77,255.58 213.07,255.71 213.37,255.81C213.67,255.91 213.97,256 214.27,256.05C214.57,256.1 214.88,256.13 215.18,256.12C215.48,256.11 215.78,256.07 216.08,256C216.39,255.92 216.7,255.82 216.99,255.67C217.3,255.52 217.61,255.33 217.89,255.09C218.21,254.82 218.52,254.51 218.79,254.09C219.14,253.56 219.42,252.83 219.7,252.08C220.03,251.19 220.31,250.13 220.6,249.06C220.92,247.86 221.22,246.55 221.51,245.23C221.82,243.82 222.11,242.34 222.41,240.86C222.72,239.33 223.02,237.76 223.32,236.2C223.62,234.62 223.92,233.01 224.22,231.42C224.52,229.83 224.82,228.23 225.12,226.64C225.42,225.07 225.73,223.49 226.03,221.94C226.33,220.42 226.62,218.92 226.93,217.44C227.23,216 227.53,214.58 227.84,213.2C228.14,211.87 228.43,210.56 228.74,209.29C229.03,208.08 229.33,206.9 229.64,205.76C229.93,204.69 230.24,203.64 230.55,202.65C230.84,201.73 231.13,200.83 231.45,199.99C231.74,199.22 232.04,198.47 232.36,197.79C232.65,197.17 232.94,196.59 233.26,196.07C233.54,195.61 233.84,195.18 234.16,194.83C234.45,194.52 234.75,194.24 235.07,194.06C235.36,193.9 235.67,193.79 235.97,193.77C236.27,193.75 236.59,193.83 236.88,193.96C237.2,194.1 237.5,194.36 237.78,194.64C238.1,194.96 238.39,195.38 238.68,195.81C239,196.3 239.3,196.86 239.59,197.45C239.91,198.1 240.2,198.82 240.49,199.56C240.8,200.36 241.11,201.21 241.4,202.09C241.71,203.03 242.01,204.01 242.3,205.02C242.61,206.08 242.91,207.18 243.21,208.29C243.52,209.44 243.81,210.61 244.11,211.79C244.41,212.98 244.71,214.18 245.01,215.4C245.32,216.64 245.62,217.9 245.92,219.18C246.23,220.48 246.52,221.81 246.82,223.14C247.12,224.5 247.43,225.87 247.73,227.25C248.03,228.65 248.33,230.06 248.63,231.48C248.93,232.91 249.23,234.34 249.53,235.78C249.83,237.23 250.14,238.68 250.44,240.13C250.74,241.58 251.04,243.04 251.34,244.49C251.64,245.94 251.95,247.38 252.25,248.82C252.55,250.25 252.85,251.67 253.15,253.08C253.45,254.47 253.75,255.86 254.05,257.22C254.35,258.56 254.65,259.89 254.96,261.19C255.26,262.44 255.54,263.71 255.86,264.88C256.15,265.96 256.45,267.02 256.77,267.98C257.06,268.84 257.36,269.62 257.67,270.39C257.96,271.11 258.27,271.79 258.58,272.45C258.87,273.08 259.17,273.69 259.48,274.27C259.77,274.81 260.06,275.36 260.38,275.81C260.66,276.2 260.98,276.52 261.29,276.84C261.58,277.14 261.88,277.4 262.19,277.66C262.49,277.91 262.79,278.14 263.1,278.35C263.4,278.56 263.7,278.73 264,278.92C264.3,279.1 264.6,279.27 264.9,279.46C265.2,279.65 265.51,279.85 265.81,280.05C266.11,280.26 266.41,280.49 266.71,280.69C267.01,280.89 267.31,281.1 267.62,281.27C267.92,281.43 268.22,281.57 268.52,281.7C268.82,281.82 269.12,281.92 269.42,282.02C269.72,282.12 270.03,282.2 270.33,282.31C270.63,282.42 270.93,282.54 271.23,282.66C271.53,282.78 271.84,282.9 272.14,283.03C272.44,283.16 272.74,283.3 273.04,283.44C273.34,283.58 273.65,283.74 273.95,283.88C274.25,284.02 274.55,284.17 274.85,284.3C275.15,284.43 275.45,284.56 275.75,284.64C276.05,284.72 276.36,284.8 276.66,284.8C276.96,284.8 277.27,284.72 277.56,284.62C277.87,284.51 278.18,284.36 278.47,284.15C278.79,283.92 279.08,283.59 279.37,283.25C279.69,282.87 279.98,282.4 280.27,281.95C280.58,281.47 280.88,280.97 281.18,280.45C281.49,279.91 281.78,279.35 282.08,278.78C282.39,278.19 282.69,277.59 282.99,276.98C283.3,276.35 283.59,275.7 283.89,275.06C284.19,274.42 284.49,273.78 284.79,273.15C285.09,272.53 285.39,271.91 285.7,271.31C286,270.74 286.29,270.17 286.6,269.64C286.89,269.13 287.2,268.64 287.51,268.19C287.8,267.77 288.1,267.36 288.41,267C288.7,266.66 289.01,266.35 289.32,266.07C289.61,265.81 289.91,265.58 290.22,265.36C290.51,265.15 290.82,264.97 291.12,264.79C291.42,264.61 291.72,264.43 292.03,264.29C292.33,264.15 292.62,264.01 292.93,263.94C293.23,263.87 293.54,263.83 293.84,263.84C294.14,263.85 294.45,263.92 294.74,264.02C295.05,264.13 295.35,264.3 295.64,264.49C295.95,264.7 296.26,264.96 296.55,265.24C296.86,265.54 297.15,265.88 297.45,266.22C297.76,266.58 298.06,266.96 298.36,267.34C298.66,267.72 298.96,268.11 299.26,268.49C299.56,268.87 299.86,269.26 300.16,269.64C300.46,270.01 300.76,270.38 301.07,270.73C301.37,271.06 301.66,271.4 301.97,271.68C302.26,271.95 302.56,272.22 302.88,272.39C303.17,272.55 303.48,272.71 303.78,272.71C304.08,272.71 304.41,272.61 304.68,272.41C305.03,272.16 305.31,271.68 305.59,271.2C305.93,270.6 306.21,269.84 306.49,269.04C306.82,268.1 307.11,267 307.4,265.89C307.72,264.67 308.01,263.36 308.3,262.03C308.61,260.61 308.91,259.13 309.21,257.63C309.52,256.07 309.81,254.47 310.11,252.86C310.41,251.21 310.71,249.53 311.01,247.84C311.31,246.13 311.62,244.4 311.92,242.66C312.22,240.91 312.52,239.13 312.82,237.37C313.12,235.61 313.43,233.84 313.73,232.09C314.03,230.35 314.33,228.62 314.63,226.9C314.93,225.21 315.22,223.53 315.53,221.88C315.83,220.26 316.13,218.65 316.44,217.08C316.74,215.55 317.03,214.05 317.34,212.57C317.64,211.14 317.94,209.74 318.25,208.37C318.55,207.06 318.84,205.77 319.15,204.52C319.44,203.34 319.74,202.18 320.05,201.07C320.34,200.02 320.65,198.99 320.96,198.02C321.25,197.11 321.55,196.24 321.86,195.41C322.15,194.64 322.46,193.91 322.77,193.21C323.06,192.56 323.35,191.94 323.67,191.37C323.96,190.84 324.26,190.33 324.58,189.89C324.87,189.5 325.16,189.12 325.48,188.84C325.76,188.59 326.07,188.37 326.38,188.26C326.67,188.16 326.99,188.13 327.29,188.19C327.6,188.25 327.91,188.42 328.19,188.62C328.51,188.85 328.81,189.17 329.1,189.52C329.42,189.91 329.71,190.39 330,190.88C330.32,191.42 330.61,192.03 330.9,192.65C331.21,193.32 331.52,194.04 331.81,194.77C332.12,195.54 332.41,196.34 332.71,197.15C333.02,197.98 333.32,198.83 333.62,199.68C333.92,200.54 334.22,201.41 334.52,202.27C334.82,203.12 335.11,203.98 335.42,204.81C335.72,205.62 336.02,206.44 336.33,207.21C336.62,207.94 336.91,208.66 337.23,209.31C337.52,209.91 337.82,210.47 338.14,210.98C338.43,211.44 338.73,211.87 339.04,212.26C339.33,212.62 339.64,212.95 339.95,213.24C340.24,213.51 340.54,213.76 340.85,213.96C341.14,214.15 341.44,214.32 341.75,214.44C342.05,214.55 342.36,214.64 342.66,214.65C342.96,214.66 343.27,214.62 343.56,214.53C343.87,214.43 344.18,214.27 344.47,214.05C344.79,213.81 345.08,213.45 345.37,213.11C345.68,212.76 345.98,212.38 346.27,211.97C346.58,211.53 346.88,211.04 347.18,210.56C347.48,210.07 347.78,209.56 348.08,209.06C348.38,208.56 348.69,208.07 348.99,207.58C349.29,207.1 349.59,206.63 349.89,206.17C350.19,205.72 350.49,205.28 350.79,204.85C351.09,204.43 351.4,204.02 351.7,203.61C352,203.21 352.3,202.82 352.6,202.43C352.9,202.04 353.21,201.66 353.51,201.28C353.81,200.9 354.11,200.53 354.41,200.15C354.71,199.77 355.02,199.4 355.32,199.02C355.62,198.65 355.92,198.27 356.22,197.9C356.52,197.53 356.82,197.16 357.12,196.79C357.42,196.42 357.72,196.05 358.03,195.7C358.33,195.35 358.62,195.01 358.93,194.69C359.23,194.38 359.53,194.08 359.84,193.8C360.13,193.54 360.43,193.29 360.74,193.07C361.03,192.86 361.33,192.67 361.64,192.52C361.94,192.38 362.24,192.27 362.55,192.19C362.85,192.12 363.15,192.07 363.45,192.06C363.75,192.05 364.06,192.08 364.36,192.13C364.66,192.18 364.96,192.28 365.26,192.39C365.56,192.51 365.86,192.66 366.16,192.82C366.47,192.99 366.77,193.18 367.07,193.38C367.38,193.59 367.67,193.81 367.97,194.04C368.28,194.28 368.58,194.54 368.88,194.8C369.18,195.06 369.48,195.34 369.78,195.62C370.08,195.9 370.38,196.2 370.68,196.49C370.98,196.78 371.29,197.08 371.59,197.37C371.89,197.66 372.18,197.96 372.49,198.23C372.79,198.5 373.09,198.76 373.4,199C373.7,199.23 373.99,199.46 374.3,199.62C374.59,199.77 374.9,199.92 375.21,199.97C375.51,200.02 375.82,200.03 376.11,199.94C376.42,199.85 376.72,199.61 377.01,199.39C377.32,199.15 377.62,198.86 377.92,198.56C378.23,198.25 378.52,197.91 378.82,197.57C379.13,197.21 379.43,196.84 379.73,196.46C380.03,196.08 380.33,195.67 380.63,195.28C380.93,194.88 381.23,194.48 381.53,194.09C381.83,193.7 382.13,193.31 382.44,192.93C382.74,192.56 383.03,192.2 383.34,191.86C383.64,191.54 383.94,191.22 384.25,190.94C384.54,190.67 384.84,190.42 385.15,190.21C385.44,190.01 385.74,189.84 386.05,189.72C386.35,189.61 386.66,189.53 386.96,189.51C387.26,189.49 387.57,189.52 387.86,189.61C388.17,189.7 388.48,189.86 388.77,190.06C389.09,190.28 389.38,190.57 389.67,190.89C389.99,191.25 390.29,191.67 390.58,192.13C390.9,192.64 391.19,193.21 391.48,193.81C391.8,194.47 392.09,195.18 392.38,195.93C392.7,196.74 393,197.6 393.29,198.5C393.6,199.47 393.9,200.49 394.19,201.54C394.5,202.66 394.81,203.82 395.1,205.02C395.41,206.29 395.71,207.6 396,208.94C396.31,210.35 396.6,211.8 396.9,213.27C397.21,214.8 397.51,216.38 397.81,217.97C398.12,219.62 398.41,221.3 398.71,223C399.02,224.75 399.32,226.53 399.62,228.32C399.92,230.14 400.22,231.99 400.52,233.85C400.82,235.73 401.12,237.64 401.42,239.54C401.72,241.45 402.03,243.38 402.33,245.3C402.63,247.21 402.93,249.13 403.23,251.02C403.53,252.87 403.83,254.74 404.14,256.53C404.43,258.23 404.72,259.91 405.04,261.49C405.33,262.94 405.63,264.35 405.95,265.63C406.23,266.76 406.5,267.93 406.85,268.81C407.12,269.48 407.39,270.42 407.75,270.51C408.02,270.57 408.4,270.23 408.66,269.87C409.1,269.26 409.29,267.92 409.56,266.75C409.9,265.28 410.18,263.47 410.47,261.71C410.79,259.78 411.07,257.68 411.37,255.61C411.68,253.47 411.97,251.26 412.27,249.07C412.57,246.85 412.88,244.59 413.18,242.35C413.48,240.11 413.78,237.86 414.08,235.63C414.38,233.41 414.69,231.19 414.99,229C415.29,226.84 415.59,224.68 415.89,222.56C416.19,220.48 416.48,218.42 416.79,216.4C417.09,214.43 417.39,212.48 417.7,210.57C418,208.73 418.29,206.91 418.6,205.14C418.9,203.44 419.2,201.77 419.51,200.14C419.81,198.59 420.1,197.06 420.41,195.59C420.7,194.2 421.01,192.85 421.32,191.56C421.61,190.36 421.91,189.2 422.22,188.1C422.51,187.09 422.8,186.12 423.12,185.23C423.41,184.42 423.71,183.65 424.03,182.96C424.32,182.35 424.61,181.77 424.93,181.27C425.21,180.83 425.52,180.44 425.84,180.11C426.13,179.81 426.43,179.55 426.74,179.35C427.03,179.17 427.34,179.08 427.64,178.93C427.94,178.78 428.25,178.63 428.55,178.47C428.85,178.3 429.14,178.06 429.45,177.94C429.74,177.82 430.06,177.72 430.36,177.73C430.66,177.74 430.98,177.85 431.26,178C431.58,178.17 431.88,178.46 432.16,178.76C432.48,179.11 432.78,179.54 433.07,180C433.39,180.51 433.68,181.08 433.97,181.68C434.29,182.33 434.59,183.03 434.88,183.77C435.2,184.57 435.49,185.42 435.78,186.3C436.09,187.24 436.39,188.23 436.68,189.25C436.99,190.33 437.3,191.47 437.59,192.62C437.9,193.83 438.19,195.08 438.49,196.35C438.8,197.67 439.1,199.04 439.4,200.41C439.71,201.82 440,203.26 440.3,204.71C440.6,206.18 440.91,207.67 441.21,209.16C441.51,210.65 441.81,212.16 442.11,213.65C442.41,215.12 442.7,216.6 443.01,218.03C443.31,219.42 443.61,220.81 443.92,222.13C444.21,223.38 444.5,224.62 444.82,225.77C445.11,226.83 445.41,227.86 445.73,228.79C446.01,229.61 446.3,230.4 446.63,231.06C446.91,231.61 447.18,232.15 447.53,232.49C447.8,232.76 448.13,233 448.44,233.05C448.73,233.09 449.06,232.96 449.34,232.81C449.67,232.63 449.96,232.3 450.25,231.98C450.57,231.62 450.86,231.17 451.15,230.72C451.46,230.24 451.75,229.72 452.05,229.2C452.36,228.67 452.66,228.11 452.96,227.57C453.26,227.03 453.55,226.47 453.86,225.94C454.16,225.42 454.46,224.9 454.77,224.41C455.06,223.94 455.36,223.48 455.67,223.06C455.96,222.66 456.27,222.27 456.58,221.93C456.87,221.61 457.17,221.32 457.48,221.07C457.77,220.84 458.07,220.63 458.38,220.49C458.67,220.35 458.98,220.26 459.29,220.21C459.59,220.16 459.89,220.15 460.19,220.17C460.49,220.19 460.8,220.26 461.1,220.32Q461.4,220.38 462,220.53" style="vector-effect: non-scaling-stroke; fill: none; stroke: rgb(0, 100, 80); stroke-opacity: 1; stroke-width: 2px; opacity: 1;"/></g><g class="points"/><g class="text"/></g><g class="trace scatter traceac2f80" style="stroke-miterlimit: 2; opacity: 1;"><g class="fills"/><g class="errorbars"/><g class="lines"><path class="js-line" d="M0,54.23Q0.62,54.05 0.9,53.85C1.23,53.61 1.53,53.2 1.81,52.8C2.14,52.34 2.42,51.77 2.71,51.21C3.02,50.6 3.32,49.93 3.62,49.26C3.93,48.56 4.22,47.83 4.52,47.1C4.82,46.36 5.12,45.59 5.42,44.84C5.72,44.09 6.03,43.32 6.33,42.58C6.63,41.85 6.92,41.12 7.23,40.41C7.53,39.73 7.83,39.05 8.14,38.42C8.43,37.83 8.72,37.26 9.04,36.75C9.33,36.29 9.62,35.84 9.95,35.5C10.23,35.21 10.53,34.93 10.85,34.8C11.13,34.69 11.46,34.64 11.75,34.72C12.07,34.8 12.38,35.06 12.66,35.35C13,35.7 13.28,36.22 13.56,36.75C13.89,37.39 14.19,38.16 14.47,38.97C14.8,39.91 15.09,40.95 15.37,42.05C15.69,43.28 15.98,44.63 16.27,46.02C16.59,47.56 16.89,49.19 17.18,50.88C17.5,52.72 17.79,54.65 18.08,56.64C18.39,58.78 18.7,61 18.99,63.29C19.3,65.72 19.6,68.24 19.89,70.81C20.2,73.52 20.49,76.33 20.79,79.18C21.1,82.17 21.4,85.23 21.7,88.35C22.01,91.6 22.3,94.92 22.6,98.29C22.91,101.78 23.21,105.33 23.51,108.93C23.82,112.64 24.11,116.41 24.41,120.22C24.72,124.13 25.02,128.09 25.32,132.09C25.62,136.17 25.92,140.3 26.22,144.46C26.52,148.69 26.82,152.96 27.12,157.24C27.42,161.56 27.72,166.06 28.03,170.25C28.32,174.17 28.62,177.93 28.93,181.61C29.22,185.08 29.54,188.34 29.84,191.73C30.14,195.17 30.44,198.63 30.74,202.11C31.04,205.64 31.33,209.28 31.64,212.77C31.94,216.14 32.25,219.42 32.55,222.7C32.85,225.92 33.15,229.09 33.45,232.27C33.75,235.45 34.06,238.62 34.36,241.78C34.66,244.93 34.96,248.08 35.26,251.21C35.56,254.31 35.85,257.41 36.16,260.45C36.46,263.42 36.75,266.45 37.07,269.24C37.36,271.77 37.64,274.23 37.97,276.47C38.25,278.43 38.52,280.43 38.88,281.95C39.15,283.06 39.43,284 39.78,284.79C40.05,285.4 40.32,286.03 40.68,286.34C40.95,286.57 41.3,286.74 41.59,286.69C41.91,286.63 42.21,286.24 42.49,285.91C42.83,285.5 43.12,284.93 43.4,284.35C43.73,283.66 44.01,282.86 44.3,282.03C44.62,281.09 44.92,280.04 45.21,279C45.52,277.9 45.82,276.77 46.11,275.6C46.42,274.36 46.71,273.05 47.01,271.76C47.31,270.46 47.61,269.11 47.92,267.83C48.22,266.61 48.51,265.4 48.82,264.25C49.11,263.17 49.42,262.11 49.73,261.11C50.02,260.18 50.32,259.3 50.63,258.45C50.92,257.66 51.22,256.9 51.53,256.17C51.82,255.47 52.12,254.77 52.44,254.14C52.73,253.56 53.02,253 53.34,252.52C53.62,252.1 53.92,251.7 54.25,251.41C54.53,251.16 54.84,250.93 55.15,250.83C55.44,250.74 55.76,250.72 56.05,250.78C56.36,250.84 56.67,251.02 56.96,251.23C57.28,251.47 57.57,251.8 57.86,252.16C58.18,252.56 58.48,253.04 58.77,253.54C59.09,254.09 59.38,254.7 59.67,255.33C59.98,256.01 60.29,256.75 60.58,257.5C60.89,258.3 61.19,259.14 61.48,260C61.79,260.89 62.08,261.82 62.38,262.75C62.69,263.7 62.99,264.68 63.29,265.64C63.59,266.58 63.88,267.55 64.19,268.45C64.48,269.3 64.78,270.15 65.1,270.91C65.39,271.58 65.67,272.24 66,272.78C66.28,273.24 66.55,273.81 66.9,273.99C67.17,274.13 67.53,274.12 67.81,274C68.15,273.85 68.43,273.4 68.71,273.02C69.04,272.58 69.33,272.02 69.62,271.46C69.94,270.85 70.23,270.17 70.52,269.49C70.83,268.77 71.12,268.01 71.42,267.25C71.73,266.47 72.03,265.67 72.33,264.88C72.63,264.08 72.93,263.28 73.23,262.48C73.53,261.67 73.84,260.85 74.14,260.04C74.44,259.23 74.73,258.42 75.04,257.63C75.34,256.86 75.64,256.09 75.95,255.35C76.25,254.63 76.55,253.94 76.85,253.23C77.15,252.52 77.46,251.82 77.75,251.08C78.06,250.31 78.36,249.49 78.66,248.69C78.96,247.88 79.25,247.04 79.56,246.24C79.86,245.46 80.16,244.7 80.47,243.96C80.76,243.26 81.06,242.57 81.37,241.92C81.66,241.31 81.96,240.72 82.27,240.17C82.56,239.66 82.86,239.18 83.18,238.74C83.47,238.34 83.76,237.95 84.08,237.62C84.37,237.32 84.68,237.06 84.99,236.82C85.28,236.59 85.58,236.37 85.89,236.18C86.19,235.99 86.48,235.81 86.79,235.67C87.09,235.54 87.39,235.44 87.7,235.36C88,235.28 88.3,235.23 88.6,235.18C88.9,235.13 89.21,235.1 89.51,235.07C89.81,235.04 90.11,235.03 90.41,235C90.71,234.97 91.02,234.94 91.32,234.87C91.62,234.8 91.93,234.72 92.22,234.58C92.53,234.43 92.83,234.24 93.12,234C93.44,233.73 93.74,233.39 94.03,233.02C94.35,232.61 94.64,232.12 94.93,231.61C95.25,231.06 95.55,230.44 95.84,229.82C96.15,229.16 96.44,228.46 96.74,227.76C97.04,227.05 97.34,226.31 97.64,225.58C97.94,224.85 98.25,224.12 98.55,223.4C98.85,222.69 99.14,221.99 99.45,221.3C99.75,220.63 100.05,219.98 100.36,219.34C100.66,218.71 100.96,218.1 101.26,217.48C101.56,216.87 101.86,216.26 102.16,215.65C102.46,215.04 102.77,214.44 103.07,213.83C103.37,213.23 103.66,212.61 103.97,212.02C104.27,211.44 104.57,210.85 104.88,210.32C105.17,209.82 105.46,209.33 105.78,208.91C106.07,208.53 106.36,208.17 106.68,207.9C106.97,207.66 107.28,207.45 107.59,207.35C107.88,207.26 108.2,207.22 108.49,207.28C108.8,207.34 109.11,207.51 109.4,207.72C109.72,207.95 110.02,208.29 110.3,208.65C110.62,209.06 110.92,209.55 111.21,210.06C111.53,210.63 111.82,211.27 112.11,211.93C112.42,212.64 112.72,213.41 113.01,214.19C113.32,215.01 113.62,215.89 113.92,216.75C114.22,217.63 114.52,218.54 114.82,219.43C115.12,220.31 115.43,221.19 115.73,222.06C116.03,222.91 116.33,223.75 116.63,224.59C116.93,225.43 117.23,226.27 117.53,227.11C117.83,227.96 118.14,228.81 118.44,229.66C118.74,230.5 119.04,231.36 119.34,232.19C119.64,233.01 119.94,233.83 120.25,234.62C120.55,235.39 120.84,236.14 121.15,236.87C121.44,237.56 121.74,238.25 122.05,238.89C122.34,239.5 122.64,240.1 122.96,240.64C123.25,241.14 123.53,241.65 123.86,242.04C124.14,242.38 124.44,242.75 124.77,242.88C125.05,242.99 125.38,242.96 125.67,242.89C125.98,242.82 126.29,242.64 126.58,242.44C126.9,242.22 127.19,241.93 127.48,241.61C127.8,241.26 128.09,240.84 128.38,240.4C128.7,239.91 129,239.38 129.29,238.81C129.61,238.2 129.9,237.53 130.19,236.84C130.5,236.09 130.81,235.29 131.1,234.47C131.41,233.61 131.7,232.72 132,231.82C132.31,230.89 132.6,229.93 132.9,228.96C133.21,227.97 133.51,226.96 133.81,225.95C134.11,224.93 134.41,223.9 134.71,222.88C135.01,221.87 135.31,220.85 135.62,219.85C135.92,218.88 136.21,217.91 136.52,216.97C136.81,216.07 137.11,215.19 137.42,214.35C137.71,213.56 138.01,212.8 138.33,212.09C138.62,211.44 138.91,210.81 139.23,210.25C139.52,209.75 139.81,209.27 140.14,208.89C140.42,208.56 140.72,208.24 141.04,208.05C141.33,207.88 141.65,207.77 141.95,207.76C142.25,207.75 142.57,207.85 142.85,208.01C143.17,208.19 143.47,208.5 143.75,208.82C144.08,209.19 144.37,209.65 144.66,210.13C144.98,210.66 145.27,211.27 145.56,211.88C145.87,212.53 146.17,213.21 146.47,213.9C146.78,214.61 147.07,215.33 147.37,216.06C147.67,216.81 147.97,217.57 148.27,218.34C148.57,219.13 148.88,219.93 149.18,220.73C149.48,221.55 149.77,222.39 150.08,223.2C150.38,223.98 150.65,224.85 150.99,225.49C151.26,226 151.56,226.44 151.89,226.79C152.17,227.09 152.48,227.32 152.79,227.52C153.08,227.7 153.39,227.84 153.7,227.94C153.99,228.03 154.3,228.09 154.6,228.09C154.9,228.09 155.21,228.05 155.51,227.96C155.82,227.87 156.12,227.73 156.41,227.56C156.72,227.38 157.03,227.15 157.32,226.9C157.63,226.63 157.93,226.32 158.22,226C158.53,225.67 158.82,225.3 159.12,224.94C159.43,224.56 159.73,224.17 160.03,223.78C160.33,223.39 160.63,222.98 160.93,222.59C161.23,222.2 161.53,221.81 161.84,221.44C162.14,221.07 162.43,220.71 162.74,220.37C163.03,220.04 163.33,219.72 163.64,219.44C163.93,219.17 164.24,218.92 164.55,218.72C164.84,218.53 165.14,218.36 165.45,218.26C165.75,218.16 166.06,218.1 166.36,218.12C166.66,218.14 166.97,218.22 167.26,218.36C167.57,218.51 167.87,218.75 168.16,219.01C168.48,219.31 168.78,219.69 169.07,220.08C169.39,220.51 169.68,221.01 169.97,221.52C170.28,222.06 170.58,222.64 170.88,223.22C171.19,223.83 171.48,224.46 171.78,225.1C172.09,225.76 172.38,226.44 172.68,227.14C172.99,227.87 173.29,228.61 173.59,229.38C173.9,230.18 174.2,231 174.49,231.85C174.8,232.74 175.1,233.66 175.4,234.6C175.71,235.59 176,236.61 176.3,237.65C176.61,238.74 176.91,239.86 177.21,241C177.52,242.19 177.81,243.4 178.11,244.64C178.42,245.92 178.71,247.22 179.01,248.54C179.32,249.89 179.62,251.26 179.92,252.63C180.22,254.02 180.52,255.43 180.82,256.83C181.12,258.22 181.42,259.63 181.73,260.98C182.03,262.28 182.32,263.58 182.63,264.79C182.92,265.91 183.22,266.98 183.53,268.01C183.82,268.97 184.11,269.96 184.44,270.79C184.72,271.5 184.99,272.23 185.34,272.71C185.61,273.08 185.92,273.42 186.25,273.55C186.53,273.66 186.88,273.7 187.15,273.55C187.51,273.35 187.78,272.71 188.05,272.14C188.41,271.37 188.67,270.27 188.96,269.26C189.28,268.15 189.56,266.94 189.86,265.74C190.17,264.49 190.47,263.2 190.77,261.91C191.08,260.58 191.37,259.21 191.67,257.87C191.97,256.53 192.27,255.17 192.58,253.86C192.88,252.59 193.17,251.34 193.48,250.12C193.77,248.95 194.08,247.85 194.38,246.69C194.69,245.49 194.98,244.22 195.29,243.03C195.58,241.9 195.88,240.8 196.19,239.74C196.48,238.75 196.79,237.78 197.1,236.86C197.39,236 197.69,235.16 198,234.38C198.29,233.66 198.58,232.96 198.9,232.32C199.19,231.73 199.49,231.18 199.81,230.68C200.1,230.23 200.39,229.8 200.71,229.45C201,229.13 201.3,228.84 201.62,228.63C201.91,228.44 202.21,228.28 202.52,228.2C202.81,228.12 203.12,228.1 203.42,228.13C203.73,228.16 204.04,228.26 204.33,228.38C204.64,228.51 204.93,228.74 205.23,228.91C205.53,229.08 205.84,229.24 206.14,229.42C206.44,229.6 206.75,229.79 207.04,230.01C207.35,230.24 207.63,230.61 207.95,230.77C208.23,230.91 208.55,230.94 208.85,230.97C209.15,231 209.45,230.98 209.75,230.96C210.05,230.94 210.36,230.89 210.66,230.82C210.96,230.75 211.26,230.64 211.56,230.53C211.87,230.42 212.17,230.28 212.47,230.14C212.77,230 213.07,229.85 213.37,229.69C213.67,229.53 213.97,229.35 214.27,229.17C214.57,228.99 214.88,228.8 215.18,228.6C215.48,228.4 215.78,228.18 216.08,227.95C216.39,227.72 216.69,227.47 216.99,227.21C217.3,226.94 217.6,226.64 217.89,226.33C218.2,226.01 218.5,225.66 218.79,225.3C219.1,224.92 219.4,224.51 219.7,224.09C220.01,223.65 220.3,223.19 220.6,222.72C220.91,222.24 221.21,221.74 221.51,221.25C221.81,220.76 222.11,220.26 222.41,219.77C222.71,219.29 223.01,218.81 223.32,218.36C223.62,217.92 223.91,217.49 224.22,217.09C224.51,216.71 224.81,216.35 225.12,216.03C225.41,215.73 225.72,215.45 226.03,215.22C226.32,215.01 226.62,214.82 226.93,214.69C227.22,214.57 227.54,214.49 227.84,214.46C228.14,214.43 228.45,214.46 228.74,214.53C229.05,214.6 229.35,214.74 229.64,214.91C229.95,215.09 230.26,215.33 230.55,215.59C230.86,215.86 231.16,216.19 231.45,216.52C231.76,216.87 232.06,217.26 232.36,217.64C232.66,218.02 232.94,218.45 233.26,218.79C233.55,219.1 233.84,219.43 234.16,219.6C234.44,219.75 234.77,219.81 235.07,219.8C235.37,219.79 235.68,219.67 235.97,219.53C236.29,219.37 236.59,219.14 236.88,218.87C237.2,218.57 237.49,218.19 237.78,217.8C238.09,217.38 238.38,216.9 238.68,216.43C238.99,215.95 239.29,215.44 239.59,214.95C239.89,214.46 240.18,213.96 240.49,213.48C240.79,213.01 241.09,212.56 241.4,212.12C241.7,211.7 241.99,211.28 242.3,210.9C242.59,210.54 242.9,210.2 243.21,209.89C243.5,209.6 243.8,209.33 244.11,209.11C244.4,208.9 244.7,208.71 245.01,208.58C245.3,208.46 245.62,208.37 245.92,208.34C246.22,208.31 246.52,208.33 246.82,208.39C247.13,208.46 247.44,208.59 247.73,208.75C248.04,208.92 248.34,209.15 248.63,209.41C248.94,209.69 249.24,210.03 249.53,210.38C249.84,210.76 250.15,211.19 250.44,211.64C250.75,212.12 251.05,212.64 251.34,213.18C251.65,213.75 251.95,214.36 252.25,214.98C252.56,215.63 252.86,216.3 253.15,216.99C253.46,217.7 253.75,218.44 254.05,219.19C254.36,219.96 254.66,220.74 254.96,221.54C255.27,222.36 255.56,223.19 255.86,224.04C256.17,224.91 256.47,225.79 256.77,226.68C257.08,227.59 257.37,228.52 257.67,229.46C257.97,230.42 258.28,231.39 258.58,232.37C258.88,233.37 259.18,234.38 259.48,235.39C259.78,236.42 260.08,237.46 260.38,238.5C260.68,239.56 260.99,240.63 261.29,241.7C261.59,242.78 261.89,243.85 262.19,244.94C262.49,246.04 262.8,247.14 263.1,248.25C263.4,249.38 263.7,250.52 264,251.66C264.3,252.8 264.59,253.98 264.9,255.1C265.2,256.16 265.5,257.21 265.81,258.21C266.1,259.16 266.4,260.07 266.71,260.97C267.01,261.83 267.31,262.67 267.62,263.49C267.92,264.28 268.22,265.05 268.52,265.81C268.82,266.55 269.12,267.28 269.42,268C269.72,268.72 270.03,269.42 270.33,270.13C270.63,270.83 270.92,271.54 271.23,272.21C271.53,272.86 271.83,273.49 272.14,274.09C272.43,274.66 272.73,275.21 273.04,275.74C273.34,276.25 273.63,276.78 273.95,277.22C274.24,277.61 274.53,277.99 274.85,278.27C275.13,278.51 275.44,278.72 275.75,278.83C276.04,278.94 276.36,278.97 276.66,278.96C276.96,278.95 277.26,278.86 277.56,278.77C277.87,278.68 278.17,278.56 278.47,278.44C278.77,278.32 279.07,278.2 279.37,278.07C279.67,277.94 279.97,277.8 280.27,277.66C280.57,277.52 280.88,277.38 281.18,277.22C281.48,277.06 281.8,276.92 282.08,276.68C282.41,276.4 282.71,276 282.99,275.57C283.32,275.08 283.6,274.48 283.89,273.87C284.21,273.2 284.5,272.47 284.79,271.73C285.1,270.95 285.4,270.11 285.7,269.29C286,268.45 286.3,267.59 286.6,266.74C286.9,265.89 287.21,265.03 287.51,264.18C287.81,263.32 288.11,262.46 288.41,261.61C288.71,260.78 289.01,259.95 289.32,259.16C289.62,258.4 289.91,257.65 290.22,256.94C290.51,256.26 290.81,255.6 291.12,254.98C291.41,254.39 291.72,253.82 292.03,253.3C292.32,252.82 292.61,252.35 292.93,251.94C293.22,251.57 293.52,251.22 293.84,250.94C294.13,250.69 294.43,250.46 294.74,250.33C295.03,250.21 295.34,250.14 295.64,250.14C295.94,250.14 296.26,250.23 296.55,250.35C296.86,250.48 297.16,250.7 297.45,250.94C297.77,251.2 298.07,251.53 298.36,251.86C298.67,252.22 298.97,252.62 299.26,253.03C299.57,253.45 299.86,253.91 300.16,254.36C300.46,254.81 300.77,255.28 301.07,255.74C301.37,256.19 301.65,256.67 301.97,257.08C302.26,257.45 302.56,257.8 302.88,258.1C303.17,258.37 303.47,258.64 303.78,258.82C304.07,258.99 304.37,259.11 304.68,259.17C304.98,259.22 305.29,259.22 305.59,259.16C305.9,259.1 306.21,258.97 306.49,258.78C306.81,258.56 307.12,258.24 307.4,257.88C307.73,257.45 308.01,256.88 308.3,256.32C308.62,255.7 308.92,255 309.21,254.29C309.53,253.51 309.82,252.67 310.11,251.83C310.42,250.95 310.71,250.02 311.01,249.1C311.32,248.15 311.62,247.18 311.92,246.21C312.22,245.23 312.52,244.24 312.82,243.24C313.12,242.23 313.43,241.21 313.73,240.18C314.03,239.13 314.33,238.07 314.63,236.98C314.94,235.86 315.23,234.71 315.53,233.55C315.83,232.37 316.14,231.16 316.44,229.97C316.74,228.77 317.04,227.57 317.34,226.38C317.64,225.2 317.95,224.02 318.25,222.85C318.55,221.71 318.85,220.57 319.15,219.45C319.45,218.35 319.74,217.27 320.05,216.2C320.35,215.16 320.65,214.13 320.96,213.12C321.26,212.15 321.55,211.18 321.86,210.25C322.16,209.35 322.46,208.47 322.77,207.61C323.07,206.79 323.36,205.99 323.67,205.22C323.96,204.49 324.27,203.79 324.58,203.12C324.87,202.5 325.17,201.89 325.48,201.34C325.77,200.83 326.06,200.34 326.38,199.92C326.67,199.54 326.97,199.18 327.29,198.9C327.58,198.65 327.88,198.43 328.19,198.3C328.48,198.18 328.8,198.11 329.1,198.12C329.4,198.13 329.71,198.21 330,198.33C330.31,198.46 330.61,198.68 330.9,198.92C331.22,199.18 331.52,199.5 331.81,199.83C332.12,200.19 332.42,200.6 332.71,201.01C333.02,201.45 333.32,201.92 333.62,202.4C333.93,202.89 334.22,203.41 334.52,203.91C334.82,204.41 335.11,204.94 335.42,205.42C335.72,205.88 336.02,206.34 336.33,206.74C336.62,207.11 336.91,207.5 337.23,207.77C337.52,208.01 337.83,208.21 338.14,208.34C338.43,208.46 338.74,208.51 339.04,208.55C339.34,208.59 339.65,208.6 339.95,208.59C340.25,208.58 340.55,208.56 340.85,208.5C341.15,208.44 341.46,208.36 341.75,208.2C342.07,208.02 342.37,207.73 342.66,207.45C342.97,207.15 343.26,206.79 343.56,206.44C343.87,206.08 344.17,205.7 344.47,205.31C344.77,204.92 345.07,204.51 345.37,204.1C345.67,203.69 345.97,203.27 346.27,202.84C346.57,202.41 346.88,201.97 347.18,201.53C347.48,201.09 347.78,200.65 348.08,200.21C348.38,199.77 348.69,199.33 348.99,198.89C349.29,198.45 349.59,198.02 349.89,197.58C350.19,197.15 350.49,196.71 350.79,196.28C351.09,195.85 351.4,195.43 351.7,195C352,194.58 352.3,194.16 352.6,193.73C352.9,193.3 353.21,192.87 353.51,192.43C353.81,191.98 354.11,191.52 354.41,191.04C354.72,190.54 355.02,190.03 355.32,189.5C355.63,188.96 355.92,188.39 356.22,187.82C356.52,187.24 356.82,186.65 357.12,186.07C357.42,185.5 357.72,184.92 358.03,184.36C358.33,183.82 358.62,183.28 358.93,182.77C359.23,182.28 359.53,181.8 359.84,181.35C360.13,180.93 360.43,180.51 360.74,180.14C361.03,179.79 361.33,179.47 361.64,179.18C361.93,178.91 362.24,178.67 362.55,178.47C362.84,178.29 363.14,178.13 363.45,178.02C363.75,177.92 364.06,177.85 364.36,177.82C364.66,177.79 364.96,177.81 365.26,177.86C365.56,177.91 365.86,178.01 366.16,178.13C366.47,178.25 366.77,178.42 367.07,178.6C367.38,178.78 367.67,179.01 367.97,179.21C368.27,179.42 368.57,179.64 368.88,179.83C369.18,180.02 369.47,180.21 369.78,180.36C370.07,180.51 370.38,180.63 370.68,180.73C370.98,180.83 371.29,180.9 371.59,180.94C371.89,180.98 372.19,181.01 372.49,180.97C372.8,180.93 373.13,180.91 373.4,180.7C373.76,180.42 374.02,179.78 374.3,179.2C374.64,178.48 374.92,177.56 375.21,176.69C375.52,175.77 375.81,174.78 376.11,173.81C376.41,172.83 376.71,171.84 377.01,170.85C377.31,169.86 377.62,168.87 377.92,167.88C378.22,166.9 378.52,165.92 378.82,164.95C379.12,163.99 379.43,163.04 379.73,162.1C380.03,161.18 380.33,160.27 380.63,159.38C380.93,158.52 381.22,157.66 381.53,156.84C381.83,156.06 382.13,155.29 382.44,154.56C382.73,153.87 383.02,153.2 383.34,152.58C383.63,152.01 383.93,151.46 384.25,150.97C384.54,150.53 384.83,150.11 385.15,149.78C385.43,149.49 385.73,149.21 386.05,149.06C386.34,148.92 386.66,148.84 386.96,148.87C387.27,148.9 387.58,149.05 387.86,149.25C388.19,149.48 388.49,149.86 388.77,150.25C389.1,150.72 389.39,151.29 389.67,151.9C390,152.6 390.29,153.38 390.58,154.21C390.9,155.14 391.19,156.16 391.48,157.22C391.8,158.38 392.09,159.62 392.38,160.91C392.69,162.3 393,163.78 393.29,165.29C393.6,166.91 393.9,168.6 394.19,170.33C394.5,172.16 394.81,174.06 395.1,175.99C395.41,178.02 395.71,180.11 396,182.24C396.31,184.45 396.6,186.72 396.9,189.01C397.21,191.38 397.51,193.8 397.81,196.24C398.12,198.74 398.41,201.28 398.71,203.83C399.01,206.43 399.32,209.06 399.62,211.69C399.92,214.35 400.22,217.03 400.52,219.7C400.82,222.37 401.12,225.06 401.42,227.72C401.72,230.36 402.03,233.01 402.33,235.61C402.63,238.16 402.92,240.71 403.23,243.18C403.53,245.56 403.82,247.98 404.14,250.18C404.43,252.15 404.72,254.04 405.04,255.78C405.32,257.31 405.61,258.82 405.95,260.07C406.22,261.07 406.45,262.12 406.85,262.71C407.11,263.09 407.47,263.53 407.75,263.48C408.09,263.42 408.4,262.63 408.66,261.96C409.08,260.87 409.28,259.04 409.56,257.39C409.89,255.44 410.18,253.19 410.47,251C410.78,248.67 411.08,246.29 411.37,243.8C411.68,241.11 411.97,238.2 412.27,235.39C412.57,232.56 412.88,229.7 413.18,226.88C413.48,224.1 413.78,221.32 414.08,218.58C414.38,215.9 414.68,213.24 414.99,210.63C415.29,208.09 415.58,205.57 415.89,203.1C416.18,200.72 416.48,198.37 416.79,196.08C417.09,193.88 417.39,191.72 417.7,189.62C417.99,187.62 418.29,185.65 418.6,183.76C418.89,181.97 419.2,180.22 419.51,178.55C419.8,176.99 420.09,175.46 420.41,174.02C420.7,172.69 421,171.4 421.32,170.2C421.61,169.11 421.9,168.05 422.22,167.09C422.5,166.24 422.79,165.43 423.12,164.72C423.4,164.11 423.69,163.53 424.03,163.09C424.31,162.73 424.6,162.37 424.93,162.21C425.21,162.07 425.55,162.01 425.84,162.07C426.15,162.14 426.46,162.39 426.74,162.66C427.07,162.99 427.36,163.47 427.64,163.96C427.97,164.54 428.26,165.23 428.55,165.95C428.87,166.75 429.16,167.65 429.45,168.56C429.76,169.55 430.06,170.61 430.36,171.67C430.67,172.77 430.97,173.89 431.26,175.03C431.57,176.22 431.87,177.42 432.16,178.66C432.47,179.97 432.78,181.32 433.07,182.7C433.38,184.16 433.68,185.66 433.97,187.2C434.28,188.81 434.58,190.47 434.88,192.15C435.19,193.89 435.48,195.67 435.78,197.46C436.08,199.29 436.38,201.16 436.68,203.01C436.98,204.87 437.28,206.76 437.59,208.6C437.89,210.4 438.18,212.22 438.49,213.94C438.78,215.55 439.09,217.13 439.4,218.62C439.69,219.99 439.99,221.28 440.3,222.57C440.6,223.8 440.9,225.01 441.21,226.19C441.51,227.34 441.8,228.47 442.11,229.57C442.41,230.64 442.7,231.69 443.01,232.71C443.31,233.69 443.61,234.65 443.92,235.56C444.21,236.41 444.5,237.26 444.82,238.02C445.11,238.71 445.4,239.39 445.73,239.96C446.01,240.45 446.29,240.96 446.63,241.27C446.9,241.52 447.23,241.76 447.53,241.77C447.83,241.78 448.16,241.57 448.44,241.35C448.78,241.08 449.06,240.63 449.34,240.19C449.67,239.68 449.96,239.07 450.25,238.46C450.57,237.79 450.86,237.06 451.15,236.33C451.46,235.57 451.75,234.77 452.05,233.98C452.35,233.18 452.66,232.36 452.96,231.56C453.26,230.77 453.55,229.98 453.86,229.22C454.16,228.48 454.46,227.74 454.77,227.05C455.06,226.39 455.36,225.76 455.67,225.16C455.96,224.6 456.26,224.06 456.58,223.58C456.87,223.14 457.16,222.73 457.48,222.37C457.77,222.05 458.06,221.75 458.38,221.52C458.67,221.31 458.98,221.14 459.29,221.03C459.58,220.93 459.89,220.87 460.19,220.86C460.49,220.85 460.8,220.89 461.1,220.94Q461.4,220.99 462,221.17" style="vector-effect: non-scaling-stroke; fill: none; stroke: rgb(0, 176, 246); stroke-opacity: 1; stroke-width: 2px; opacity: 1;"/></g><g class="points"/><g class="text"/></g><g class="trace scatter tracec03add" style="stroke-miterlimit: 2; opacity: 1;"><g class="fills"/><g class="errorbars"/><g class="lines"><path class="js-line" d="M0,61.49Q0.6,61.19 0.9,61.04C1.2,60.88 1.5,60.69 1.81,60.56C2.11,60.44 2.41,60.33 2.71,60.27C3.01,60.21 3.32,60.18 3.62,60.19C3.92,60.2 4.22,60.24 4.52,60.31C4.82,60.39 5.13,60.5 5.42,60.64C5.73,60.79 6.04,60.99 6.33,61.2C6.64,61.43 6.94,61.69 7.23,61.97C7.54,62.27 7.85,62.62 8.14,62.98C8.45,63.36 8.75,63.78 9.04,64.22C9.35,64.69 9.66,65.18 9.95,65.7C10.26,66.25 10.56,66.82 10.85,67.42C11.16,68.05 11.45,68.7 11.75,69.37C12.06,70.07 12.36,70.8 12.66,71.54C12.97,72.31 13.26,73.11 13.56,73.93C13.87,74.78 14.17,75.65 14.47,76.53C14.78,77.44 15.07,78.37 15.37,79.32C15.67,80.3 15.97,81.29 16.27,82.3C16.58,83.34 16.88,84.39 17.18,85.46C17.49,86.56 17.78,87.68 18.08,88.81C18.39,89.98 18.69,91.16 18.99,92.37C19.3,93.61 19.59,94.87 19.89,96.16C20.2,97.49 20.49,98.84 20.79,100.22C21.1,101.64 21.4,103.09 21.7,104.57C22.01,106.11 22.3,107.68 22.6,109.28C22.91,110.94 23.21,112.64 23.51,114.37C23.82,116.17 24.11,118.01 24.41,119.89C24.72,121.84 25.02,123.84 25.32,125.87C25.63,127.98 25.93,130.14 26.22,132.33C26.53,134.61 26.82,136.93 27.12,139.29C27.43,141.73 27.73,144.22 28.03,146.74C28.34,149.34 28.63,152 28.93,154.68C29.24,157.44 29.54,160.24 29.84,163.08C30.15,165.99 30.44,168.94 30.74,171.91C31.04,174.95 31.34,178.02 31.64,181.12C31.94,184.27 32.25,187.46 32.55,190.66C32.85,193.9 33.15,197.17 33.45,200.44C33.75,203.74 34.06,207.06 34.36,210.37C34.66,213.69 34.96,217.03 35.26,220.34C35.56,223.63 35.86,226.93 36.16,230.18C36.46,233.38 36.75,236.72 37.07,239.7C37.36,242.35 37.63,244.96 37.97,247.19C38.25,249.01 38.54,250.66 38.88,252.11C39.16,253.28 39.41,254.42 39.78,255.23C40.04,255.8 40.32,256.41 40.68,256.6C40.95,256.74 41.31,256.71 41.59,256.58C41.93,256.41 42.21,255.93 42.49,255.5C42.83,254.98 43.11,254.31 43.4,253.64C43.72,252.88 44.01,252.04 44.3,251.18C44.61,250.25 44.92,249.27 45.21,248.26C45.52,247.2 45.81,246.09 46.11,244.97C46.41,243.82 46.71,242.63 47.01,241.45C47.31,240.26 47.62,239.05 47.92,237.86C48.22,236.68 48.51,235.49 48.82,234.33C49.12,233.2 49.42,232.07 49.73,230.98C50.03,229.93 50.32,228.9 50.63,227.91C50.92,226.98 51.22,226.06 51.53,225.21C51.82,224.42 52.12,223.65 52.44,222.96C52.73,222.34 53.01,221.74 53.34,221.23C53.62,220.79 53.92,220.36 54.25,220.07C54.53,219.83 54.84,219.61 55.15,219.55C55.44,219.5 55.77,219.56 56.05,219.7C56.38,219.86 56.68,220.19 56.96,220.54C57.29,220.96 57.58,221.51 57.86,222.08C58.19,222.74 58.48,223.51 58.77,224.31C59.09,225.21 59.38,226.21 59.67,227.23C59.99,228.35 60.29,229.55 60.58,230.78C60.89,232.1 61.19,233.49 61.48,234.91C61.79,236.4 62.08,237.95 62.38,239.51C62.69,241.12 62.99,242.79 63.29,244.44C63.59,246.11 63.89,247.82 64.19,249.49C64.49,251.14 64.79,252.8 65.1,254.4C65.4,255.94 65.69,257.47 66,258.93C66.29,260.3 66.58,261.64 66.9,262.89C67.19,264.03 67.49,265.12 67.81,266.15C68.1,267.09 68.39,267.97 68.71,268.81C69,269.58 69.3,270.31 69.62,270.99C69.91,271.6 70.2,272.18 70.52,272.7C70.81,273.17 71.1,273.6 71.42,273.98C71.71,274.33 72.02,274.63 72.33,274.9C72.62,275.16 72.92,275.37 73.23,275.58C73.53,275.78 73.84,275.96 74.14,276.13C74.44,276.3 74.74,276.45 75.04,276.62C75.34,276.79 75.65,276.95 75.95,277.14C76.25,277.33 76.55,277.54 76.85,277.74C77.15,277.95 77.43,278.29 77.75,278.37C78.04,278.44 78.37,278.36 78.66,278.24C78.98,278.11 79.29,277.89 79.56,277.57C79.92,277.14 80.19,276.4 80.47,275.73C80.8,274.95 81.09,274.08 81.37,273.16C81.69,272.11 81.96,270.88 82.27,269.77C82.57,268.69 82.87,267.62 83.18,266.59C83.47,265.62 83.77,264.68 84.08,263.77C84.37,262.92 84.68,262.09 84.99,261.3C85.28,260.56 85.58,259.84 85.89,259.16C86.18,258.53 86.47,257.93 86.79,257.37C87.08,256.86 87.38,256.38 87.7,255.94C87.99,255.54 88.29,255.16 88.6,254.82C88.89,254.49 89.2,254.2 89.51,253.92C89.81,253.65 90.11,253.4 90.41,253.14C90.71,252.87 91.02,252.61 91.32,252.32C91.63,252.01 91.93,251.69 92.22,251.33C92.53,250.94 92.83,250.53 93.12,250.07C93.44,249.57 93.74,249.02 94.03,248.44C94.35,247.81 94.64,247.11 94.93,246.41C95.24,245.67 95.54,244.89 95.84,244.11C96.15,243.31 96.44,242.49 96.74,241.68C97.04,240.87 97.34,240.05 97.64,239.25C97.94,238.46 98.24,237.66 98.55,236.89C98.85,236.13 99.14,235.39 99.45,234.66C99.75,233.95 100.05,233.26 100.36,232.58C100.66,231.92 100.96,231.28 101.26,230.63C101.56,229.99 101.86,229.37 102.16,228.73C102.47,228.07 102.78,227.41 103.07,226.71C103.38,225.98 103.67,225.2 103.97,224.43C104.28,223.64 104.58,222.82 104.88,222.01C105.18,221.2 105.48,220.39 105.78,219.58C106.08,218.78 106.38,217.99 106.68,217.2C106.98,216.43 107.29,215.66 107.59,214.9C107.89,214.16 108.18,213.42 108.49,212.7C108.79,212 109.09,211.31 109.4,210.64C109.7,210 109.99,209.38 110.3,208.79C110.59,208.23 110.9,207.69 111.21,207.19C111.5,206.73 111.79,206.29 112.11,205.9C112.4,205.55 112.69,205.22 113.01,204.96C113.3,204.73 113.61,204.52 113.92,204.4C114.21,204.29 114.52,204.23 114.82,204.24C115.12,204.25 115.44,204.33 115.73,204.46C116.04,204.6 116.34,204.82 116.63,205.06C116.94,205.32 117.24,205.65 117.53,205.99C117.84,206.36 118.14,206.78 118.44,207.21C118.75,207.66 119.04,208.14 119.34,208.61C119.64,209.09 119.95,209.59 120.25,210.07C120.55,210.54 120.84,211.02 121.15,211.47C121.45,211.91 121.74,212.33 122.05,212.74C122.35,213.13 122.65,213.51 122.96,213.87C123.25,214.21 123.55,214.54 123.86,214.83C124.15,215.1 124.46,215.36 124.77,215.56C125.06,215.75 125.36,215.97 125.67,216.01C125.97,216.05 126.31,215.98 126.58,215.8C126.93,215.57 127.19,215.01 127.48,214.56C127.8,214.06 128.09,213.49 128.38,212.91C128.69,212.29 129,211.61 129.29,210.93C129.6,210.21 129.89,209.46 130.19,208.71C130.5,207.94 130.8,207.14 131.1,206.35C131.4,205.56 131.7,204.76 132,203.98C132.3,203.22 132.59,202.45 132.9,201.72C133.2,201.02 133.5,200.33 133.81,199.69C134.1,199.09 134.39,198.5 134.71,197.97C135,197.49 135.3,197.03 135.62,196.65C135.9,196.32 136.2,196 136.52,195.8C136.8,195.63 137.12,195.49 137.42,195.48C137.72,195.47 138.05,195.57 138.33,195.73C138.66,195.91 138.95,196.24 139.23,196.58C139.56,196.99 139.86,197.51 140.14,198.06C140.47,198.69 140.75,199.42 141.04,200.18C141.36,201.03 141.66,201.96 141.95,202.93C142.27,203.99 142.56,205.13 142.85,206.3C143.16,207.57 143.46,208.9 143.75,210.27C144.06,211.73 144.37,213.24 144.66,214.79C144.97,216.42 145.26,218.1 145.56,219.81C145.87,221.59 146.17,223.41 146.47,225.25C146.78,227.14 147.07,229.08 147.37,231.02C147.67,233 147.97,235 148.27,237C148.57,239 148.88,241.03 149.18,243.02C149.48,244.98 149.77,246.96 150.08,248.86C150.38,250.67 150.67,252.51 150.99,254.17C151.28,255.65 151.53,257.21 151.89,258.36C152.16,259.21 152.4,260.08 152.79,260.52C153.05,260.82 153.41,261.07 153.7,261.04C154.01,261.01 154.33,260.62 154.6,260.26C154.97,259.76 155.23,258.95 155.51,258.18C155.84,257.26 156.12,256.17 156.41,255.08C156.73,253.88 157.03,252.58 157.32,251.28C157.63,249.9 157.92,248.47 158.22,247.03C158.52,245.55 158.82,244.03 159.12,242.51C159.42,240.97 159.73,239.42 160.03,237.87C160.33,236.32 160.63,234.76 160.93,233.21C161.23,231.68 161.54,230.14 161.84,228.63C162.14,227.15 162.44,225.67 162.74,224.22C163.04,222.81 163.33,221.41 163.64,220.05C163.94,218.75 164.24,217.47 164.55,216.24C164.84,215.08 165.14,213.94 165.45,212.86C165.74,211.86 166.04,210.88 166.36,209.98C166.65,209.16 166.94,208.37 167.26,207.66C167.54,207.03 167.83,206.43 168.16,205.93C168.44,205.5 168.74,205.09 169.07,204.82C169.35,204.59 169.66,204.39 169.97,204.35C170.27,204.31 170.6,204.39 170.88,204.53C171.21,204.69 171.5,205.01 171.78,205.35C172.11,205.75 172.4,206.27 172.68,206.82C173.01,207.45 173.3,208.17 173.59,208.93C173.91,209.77 174.2,210.7 174.49,211.66C174.81,212.71 175.11,213.84 175.4,215C175.71,216.26 176.01,217.58 176.3,218.94C176.61,220.39 176.92,221.9 177.21,223.44C177.52,225.07 177.82,226.75 178.11,228.46C178.42,230.25 178.71,232.1 179.01,233.97C179.32,235.91 179.62,237.9 179.92,239.91C180.23,241.98 180.52,244.1 180.82,246.23C181.13,248.42 181.43,250.64 181.73,252.87C182.03,255.14 182.33,257.45 182.63,259.76C182.93,262.1 183.23,264.47 183.53,266.83C183.83,269.21 184.14,271.61 184.44,273.98C184.74,276.34 185.03,278.73 185.34,281.03C185.64,283.25 185.91,285.59 186.25,287.55C186.53,289.17 186.59,291.5 187.15,291.95C187.4,292.15 187.78,292.1 188.05,291.95C188.42,291.74 188.68,291.04 188.96,290.48C189.29,289.82 189.57,289.03 189.86,288.24C190.18,287.37 190.47,286.4 190.77,285.46C191.07,284.5 191.37,283.52 191.67,282.55C191.97,281.59 192.28,280.62 192.58,279.67C192.88,278.73 193.18,277.79 193.48,276.86C193.78,275.95 194.07,275.05 194.38,274.16C194.68,273.3 194.98,272.44 195.29,271.61C195.59,270.81 195.88,270.02 196.19,269.27C196.48,268.55 196.79,267.85 197.1,267.18C197.39,266.55 197.69,265.95 198,265.38C198.29,264.85 198.59,264.35 198.9,263.88C199.19,263.45 199.5,263.04 199.81,262.67C200.1,262.33 200.4,262.01 200.71,261.72C201,261.45 201.31,261.21 201.62,260.98C201.92,260.75 202.22,260.55 202.52,260.34C202.82,260.13 203.12,259.92 203.42,259.7C203.72,259.47 204.03,259.23 204.33,259C204.63,258.77 204.93,258.52 205.23,258.3C205.53,258.08 205.83,257.86 206.14,257.66C206.44,257.47 206.74,257.29 207.04,257.13C207.34,256.97 207.65,256.84 207.95,256.71C208.25,256.58 208.56,256.53 208.85,256.36C209.16,256.18 209.45,255.89 209.75,255.63C210.06,255.36 210.36,255.06 210.66,254.78C210.96,254.5 211.26,254.21 211.56,253.93C211.86,253.64 212.17,253.36 212.47,253.07C212.77,252.78 213.07,252.47 213.37,252.17C213.67,251.86 213.97,251.55 214.27,251.24C214.57,250.93 214.88,250.61 215.18,250.29C215.48,249.97 215.78,249.64 216.08,249.31C216.38,248.98 216.69,248.65 216.99,248.32C217.29,247.99 217.59,247.66 217.89,247.34C218.19,247.02 218.49,246.69 218.79,246.38C219.09,246.07 219.39,245.76 219.7,245.47C220,245.18 220.29,244.89 220.6,244.63C220.9,244.37 221.2,244.13 221.51,243.9C221.81,243.68 222.1,243.48 222.41,243.3C222.71,243.13 223.01,242.98 223.32,242.86C223.62,242.75 223.92,242.69 224.22,242.6C224.52,242.52 224.82,242.43 225.12,242.35C225.42,242.27 225.72,242.14 226.03,242.1C226.33,242.06 226.63,242.05 226.93,242.09C227.24,242.14 227.55,242.24 227.84,242.38C228.15,242.53 228.45,242.74 228.74,242.97C229.05,243.21 229.35,243.51 229.64,243.81C229.95,244.12 230.25,244.47 230.55,244.81C230.85,245.16 231.15,245.51 231.45,245.87C231.75,246.23 232.06,246.61 232.36,246.98C232.66,247.35 232.95,247.74 233.26,248.07C233.55,248.38 233.85,248.68 234.16,248.92C234.45,249.15 234.76,249.36 235.07,249.5C235.36,249.63 235.67,249.75 235.97,249.77C236.27,249.79 236.58,249.69 236.88,249.61C237.19,249.52 237.48,249.38 237.78,249.26C238.08,249.15 238.38,249.03 238.68,248.92C238.98,248.81 239.29,248.7 239.59,248.61C239.89,248.52 240.19,248.44 240.49,248.38C240.79,248.32 241.1,248.27 241.4,248.25C241.7,248.23 242,248.23 242.3,248.25C242.6,248.27 242.91,248.31 243.21,248.36C243.51,248.42 243.81,248.49 244.11,248.58C244.41,248.67 244.71,248.79 245.01,248.92C245.31,249.05 245.62,249.19 245.92,249.34C246.22,249.49 246.52,249.66 246.82,249.82C247.12,249.98 247.43,250.15 247.73,250.3C248.03,250.44 248.33,250.57 248.63,250.7C248.93,250.83 249.23,250.95 249.53,251.1C249.84,251.26 250.14,251.43 250.44,251.63C250.75,251.84 251.05,252.08 251.34,252.35C251.65,252.64 251.96,252.96 252.25,253.3C252.56,253.67 252.86,254.07 253.15,254.5C253.46,254.96 253.76,255.47 254.05,255.99C254.36,256.55 254.67,257.14 254.96,257.76C255.27,258.42 255.57,259.11 255.86,259.83C256.17,260.59 256.47,261.38 256.77,262.19C257.08,263.04 257.37,263.92 257.67,264.81C257.98,265.74 258.28,266.7 258.58,267.66C258.89,268.65 259.18,269.66 259.48,270.67C259.78,271.7 260.08,272.74 260.38,273.78C260.68,274.83 260.99,275.89 261.29,276.95C261.59,278.01 261.89,279.09 262.19,280.15C262.49,281.2 262.8,282.25 263.1,283.28C263.4,284.29 263.7,285.29 264,286.28C264.3,287.25 264.59,288.24 264.9,289.16C265.19,290.03 265.49,290.89 265.81,291.66C266.1,292.35 266.41,292.95 266.71,293.6C267.01,294.26 267.32,294.91 267.62,295.58C267.92,296.25 268.22,296.95 268.52,297.62C268.82,298.28 269.11,298.96 269.42,299.59C269.71,300.19 270.01,300.79 270.33,301.33C270.62,301.82 270.91,302.31 271.23,302.7C271.52,303.05 271.82,303.37 272.14,303.59C272.42,303.79 272.73,303.96 273.04,304C273.34,304.04 273.67,304.01 273.95,303.86C274.29,303.67 274.57,303.22 274.85,302.8C275.18,302.29 275.46,301.62 275.75,300.98C276.07,300.28 276.37,299.53 276.66,298.76C276.97,297.94 277.27,297.08 277.56,296.2C277.87,295.27 278.17,294.31 278.47,293.33C278.78,292.32 279.07,291.27 279.37,290.22C279.67,289.15 279.97,288.05 280.27,286.96C280.57,285.85 280.88,284.73 281.18,283.62C281.48,282.52 281.77,281.42 282.08,280.34C282.38,279.29 282.68,278.25 282.99,277.23C283.29,276.25 283.58,275.28 283.89,274.35C284.18,273.46 284.48,272.59 284.79,271.74C285.09,270.93 285.39,270.14 285.7,269.37C286,268.63 286.29,267.92 286.6,267.22C286.9,266.55 287.2,265.89 287.51,265.25C287.81,264.63 288.1,264.03 288.41,263.44C288.71,262.86 289.01,262.3 289.32,261.75C289.62,261.22 289.92,260.69 290.22,260.18C290.52,259.69 290.81,259.21 291.12,258.74C291.42,258.29 291.72,257.85 292.03,257.43C292.33,257.02 292.63,256.63 292.93,256.23C293.23,255.83 293.54,255.46 293.84,255.05C294.15,254.62 294.44,254.15 294.74,253.69C295.04,253.22 295.34,252.72 295.64,252.24C295.94,251.76 296.25,251.29 296.55,250.81C296.85,250.33 297.15,249.86 297.45,249.38C297.75,248.89 298.06,248.41 298.36,247.91C298.66,247.41 298.96,246.9 299.26,246.38C299.56,245.85 299.86,245.31 300.16,244.75C300.47,244.18 300.77,243.59 301.07,242.99C301.38,242.37 301.67,241.73 301.97,241.07C302.28,240.38 302.58,239.67 302.88,238.94C303.19,238.17 303.49,237.39 303.78,236.57C304.09,235.71 304.39,234.82 304.68,233.9C304.99,232.93 305.3,231.92 305.59,230.89C305.9,229.8 306.2,228.67 306.49,227.52C306.8,226.31 307.1,225.07 307.4,223.8C307.71,222.48 308,221.13 308.3,219.76C308.61,218.35 308.91,216.92 309.21,215.47C309.52,213.99 309.81,212.48 310.11,210.97C310.41,209.44 310.71,207.89 311.01,206.33C311.31,204.75 311.62,203.17 311.92,201.56C312.23,199.92 312.52,198.26 312.82,196.57C313.13,194.82 313.43,193.02 313.73,191.23C314.03,189.43 314.33,187.6 314.63,185.8C314.93,184.02 315.23,182.25 315.53,180.5C315.83,178.79 316.13,177.09 316.44,175.43C316.74,173.81 317.03,172.21 317.34,170.65C317.64,169.15 317.94,167.67 318.25,166.23C318.55,164.86 318.84,163.51 319.15,162.21C319.44,160.98 319.74,159.78 320.05,158.64C320.34,157.57 320.64,156.54 320.96,155.57C321.25,154.68 321.54,153.82 321.86,153.03C322.15,152.32 322.44,151.64 322.77,151.05C323.05,150.53 323.34,150.04 323.67,149.66C323.95,149.34 324.25,149.03 324.58,148.87C324.86,148.73 325.19,148.66 325.48,148.7C325.79,148.74 326.1,148.92 326.38,149.14C326.71,149.4 327.01,149.79 327.29,150.2C327.62,150.67 327.91,151.25 328.19,151.85C328.51,152.53 328.81,153.29 329.1,154.08C329.42,154.95 329.71,155.89 330,156.85C330.31,157.89 330.61,158.99 330.9,160.11C331.21,161.3 331.52,162.55 331.81,163.82C332.12,165.15 332.41,166.53 332.71,167.92C333.02,169.36 333.32,170.84 333.62,172.33C333.93,173.86 334.22,175.42 334.52,176.98C334.82,178.57 335.12,180.18 335.42,181.79C335.72,183.41 336.03,185.04 336.33,186.66C336.63,188.27 336.92,189.88 337.23,191.46C337.53,193 337.83,194.55 338.14,196.02C338.43,197.41 338.72,198.78 339.04,200.05C339.33,201.2 339.63,202.29 339.95,203.31C340.24,204.23 340.53,205.09 340.85,205.89C341.13,206.6 341.43,207.27 341.75,207.86C342.03,208.38 342.34,208.87 342.66,209.27C342.94,209.62 343.24,209.94 343.56,210.18C343.85,210.39 344.16,210.55 344.47,210.65C344.76,210.74 345.07,210.78 345.37,210.78C345.67,210.78 345.97,210.73 346.27,210.67C346.58,210.61 346.88,210.51 347.18,210.4C347.48,210.29 347.78,210.16 348.08,210.03C348.38,209.89 348.69,209.75 348.99,209.59C349.29,209.43 349.59,209.27 349.89,209.09C350.19,208.91 350.49,208.71 350.79,208.51C351.09,208.3 351.4,208.09 351.7,207.86C352,207.63 352.3,207.38 352.6,207.14C352.9,206.89 353.21,206.64 353.51,206.38C353.81,206.12 354.11,205.86 354.41,205.6C354.71,205.34 355.02,205.07 355.32,204.81C355.62,204.55 355.92,204.28 356.22,204.02C356.52,203.75 356.82,203.49 357.12,203.22C357.42,202.95 357.73,202.68 358.03,202.41C358.33,202.14 358.63,201.87 358.93,201.6C359.23,201.33 359.54,201.06 359.84,200.79C360.14,200.52 360.44,200.25 360.74,199.98C361.04,199.71 361.34,199.44 361.64,199.17C361.94,198.89 362.25,198.62 362.55,198.33C362.85,198.04 363.15,197.75 363.45,197.45C363.76,197.14 364.06,196.82 364.36,196.48C364.67,196.13 364.97,195.76 365.26,195.36C365.57,194.94 365.87,194.5 366.16,194.03C366.47,193.52 366.78,192.99 367.07,192.42C367.38,191.8 367.68,191.14 367.97,190.45C368.29,189.69 368.59,188.89 368.88,188.05C369.2,187.14 369.49,186.18 369.78,185.17C370.09,184.07 370.39,182.92 370.68,181.7C371,180.35 371.3,178.93 371.59,177.43C371.91,175.78 372.2,173.99 372.49,172.2C372.8,170.3 373.1,168.31 373.4,166.33C373.71,164.3 374,162.23 374.3,160.16C374.6,158.08 374.91,155.97 375.21,153.88C375.51,151.79 375.81,149.69 376.11,147.61C376.41,145.55 376.71,143.5 377.01,141.47C377.31,139.48 377.61,137.49 377.92,135.54C378.22,133.64 378.51,131.75 378.82,129.9C379.12,128.12 379.42,126.35 379.73,124.64C380.03,123 380.32,121.39 380.63,119.84C380.92,118.37 381.22,116.94 381.53,115.57C381.82,114.3 382.12,113.06 382.44,111.9C382.73,110.84 383.02,109.82 383.34,108.89C383.63,108.07 383.92,107.27 384.25,106.59C384.53,106.01 384.81,105.45 385.15,105.04C385.42,104.71 385.73,104.38 386.05,104.27C386.33,104.17 386.68,104.18 386.96,104.3C387.29,104.44 387.58,104.79 387.86,105.14C388.2,105.58 388.49,106.18 388.77,106.81C389.1,107.56 389.39,108.44 389.67,109.35C389.99,110.39 390.29,111.55 390.58,112.75C390.9,114.1 391.19,115.55 391.48,117.05C391.79,118.69 392.09,120.43 392.38,122.23C392.69,124.17 393,126.19 393.29,128.28C393.6,130.51 393.9,132.82 394.19,135.19C394.5,137.69 394.8,140.28 395.1,142.92C395.41,145.69 395.71,148.53 396,151.42C396.31,154.44 396.6,157.53 396.9,160.66C397.21,163.9 397.51,167.21 397.81,170.55C398.12,173.99 398.41,177.5 398.71,181.03C399.01,184.64 399.32,188.3 399.62,191.97C399.92,195.7 400.22,199.47 400.52,203.24C400.82,207.03 401.12,210.85 401.42,214.64C401.72,218.4 402.03,222.18 402.33,225.89C402.63,229.53 402.92,233.17 403.23,236.72C403.53,240.16 403.83,243.58 404.14,246.89C404.43,250.05 404.73,253.16 405.04,256.14C405.33,258.94 405.63,261.71 405.95,264.28C406.24,266.61 406.51,268.96 406.85,270.93C407.12,272.52 407.26,274.42 407.75,275.23C408,275.65 408.41,276.08 408.66,275.99C409.13,275.83 409.29,273.58 409.56,272.03C409.93,269.89 410.18,267.02 410.47,264.33C410.79,261.36 411.08,258.16 411.37,254.97C411.68,251.64 411.97,248.19 412.27,244.76C412.57,241.27 412.88,237.72 413.18,234.19C413.48,230.66 413.78,227.1 414.08,223.58C414.38,220.09 414.69,216.59 414.99,213.14C415.29,209.74 415.59,206.36 415.89,203.02C416.19,199.75 416.48,196.51 416.79,193.33C417.09,190.23 417.39,187.17 417.7,184.16C418,181.25 418.29,178.38 418.6,175.57C418.9,172.87 419.2,170.21 419.51,167.61C419.81,165.12 420.1,162.69 420.41,160.31C420.71,158.04 421.01,155.82 421.32,153.66C421.61,151.61 421.91,149.61 422.22,147.67C422.51,145.83 422.81,144.04 423.12,142.3C423.41,140.66 423.72,139.06 424.03,137.52C424.32,136.06 424.62,134.65 424.93,133.28C425.22,131.99 425.53,130.74 425.84,129.54C426.13,128.41 426.43,127.31 426.74,126.27C427.03,125.3 427.32,124.36 427.64,123.47C427.93,122.65 428.23,121.86 428.55,121.14C428.84,120.49 429.13,119.86 429.45,119.32C429.74,118.84 430.03,118.37 430.36,118.02C430.64,117.72 430.94,117.44 431.26,117.31C431.54,117.19 431.87,117.15 432.16,117.21C432.47,117.28 432.79,117.49 433.07,117.74C433.4,118.04 433.69,118.48 433.97,118.93C434.3,119.46 434.59,120.1 434.88,120.77C435.2,121.52 435.49,122.37 435.78,123.24C436.1,124.2 436.39,125.24 436.68,126.3C436.99,127.44 437.29,128.64 437.59,129.85C437.9,131.1 438.19,132.4 438.49,133.69C438.79,134.99 439.1,136.3 439.4,137.62C439.7,138.95 440,140.28 440.3,141.63C440.6,143 440.91,144.39 441.21,145.78C441.51,147.18 441.81,148.61 442.11,150.01C442.41,151.41 442.7,152.81 443.01,154.18C443.31,155.51 443.61,156.84 443.92,158.09C444.21,159.26 444.5,160.43 444.82,161.48C445.11,162.42 445.39,163.34 445.73,164.1C446.01,164.72 446.27,165.38 446.63,165.74C446.9,166.01 447.24,166.25 447.53,166.23C447.84,166.21 448.17,165.86 448.44,165.54C448.8,165.11 449.06,164.43 449.34,163.77C449.67,162.98 449.96,162.04 450.25,161.09C450.57,160.04 450.86,158.89 451.15,157.74C451.46,156.53 451.75,155.26 452.05,153.99C452.36,152.69 452.66,151.36 452.96,150.05C453.26,148.74 453.55,147.42 453.86,146.13C454.16,144.87 454.46,143.61 454.77,142.39C455.07,141.22 455.36,140.05 455.67,138.94C455.96,137.88 456.27,136.84 456.58,135.86C456.87,134.94 457.17,134.05 457.48,133.22C457.77,132.45 458.06,131.72 458.38,131.04C458.67,130.43 458.97,129.84 459.29,129.32C459.58,128.86 459.87,128.42 460.19,128.06C460.48,127.74 460.78,127.45 461.1,127.23Q461.39,127.03 462,126.76" style="vector-effect: non-scaling-stroke; fill: none; stroke: rgb(231, 107, 243); stroke-opacity: 1; stroke-width: 2px; opacity: 1;"/></g><g class="points"/><g class="text"/></g></g></g><g class="overplot"/><path class="xlines-above crisp" d="M0,0" style="fill: none;"/><path class="ylines-above crisp" d="M0,0" style="fill: none;"/><g class="overlines-above"/><g class="xaxislayer-above"><g class="xtick"><text text-anchor="middle" x="0" y="433" transform="translate(80,0)" style="font-family: 'Open Sans', verdana, arial, sans-serif; font-size: 12px; fill: rgb(42, 63, 95); fill-opacity: 1; white-space: pre;">0</text></g><g class="xtick"><text text-anchor="middle" x="0" y="433" transform="translate(170.23000000000002,0)" style="font-family: 'Open Sans', verdana, arial, sans-serif; font-size: 12px; fill: rgb(42, 63, 95); fill-opacity: 1; white-space: pre;">100</text></g><g class="xtick"><text text-anchor="middle" x="0" y="433" transform="translate(260.47,0)" style="font-family: 'Open Sans', verdana, arial, sans-serif; font-size: 12px; fill: rgb(42, 63, 95); fill-opacity: 1; white-space: pre;">200</text></g><g class="xtick"><text text-anchor="middle" x="0" y="433" transform="translate(350.7,0)" style="font-family: 'Open Sans', verdana, arial, sans-serif; font-size: 12px; fill: rgb(42, 63, 95); fill-opacity: 1; white-space: pre;">300</text></g><g class="xtick"><text text-anchor="middle" x="0" y="433" transform="translate(440.94,0)" style="font-family: 'Open Sans', verdana, arial, sans-serif; font-size: 12px; fill: rgb(42, 63, 95); fill-opacity: 1; white-space: pre;">400</text></g><g class="xtick"><text text-anchor="middle" x="0" y="433" transform="translate(531.1700000000001,0)" style="font-family: 'Open Sans', verdana, arial, sans-serif; font-size: 12px; fill: rgb(42, 63, 95); fill-opacity: 1; white-space: pre;">500</text></g></g><g class="yaxislayer-above"><g class="ytick"><text text-anchor="end" x="79" y="4.199999999999999" transform="translate(0,410.86)" style="font-family: 'Open Sans', verdana, arial, sans-serif; font-size: 12px; fill: rgb(42, 63, 95); fill-opacity: 1; white-space: pre;">10</text></g><g class="ytick"><text text-anchor="end" x="79" y="4.199999999999999" transform="translate(0,355.11)" style="font-family: 'Open Sans', verdana, arial, sans-serif; font-size: 12px; fill: rgb(42, 63, 95); fill-opacity: 1; white-space: pre;">20</text></g><g class="ytick"><text text-anchor="end" x="79" y="4.199999999999999" transform="translate(0,299.35)" style="font-family: 'Open Sans', verdana, arial, sans-serif; font-size: 12px; fill: rgb(42, 63, 95); fill-opacity: 1; white-space: pre;">30</text></g><g class="ytick"><text text-anchor="end" x="79" y="4.199999999999999" transform="translate(0,243.6)" style="font-family: 'Open Sans', verdana, arial, sans-serif; font-size: 12px; fill: rgb(42, 63, 95); fill-opacity: 1; white-space: pre;">40</text></g><g class="ytick"><text text-anchor="end" x="79" y="4.199999999999999" transform="translate(0,187.84)" style="font-family: 'Open Sans', verdana, arial, sans-serif; font-size: 12px; fill: rgb(42, 63, 95); fill-opacity: 1; white-space: pre;">50</text></g><g class="ytick"><text text-anchor="end" x="79" y="4.199999999999999" transform="translate(0,132.09)" style="font-family: 'Open Sans', verdana, arial, sans-serif; font-size: 12px; fill: rgb(42, 63, 95); fill-opacity: 1; white-space: pre;">60</text></g></g><g class="overaxes-above"/></g></g><g class="polarlayer"/><g class="ternarylayer"/><g class="geolayer"/><g class="funnelarealayer"/><g class="pielayer"/><g class="treemaplayer"/><g class="sunburstlayer"/><g class="glimages"/><defs id="topdefs-8af0e2"><g class="clips"/><clipPath id="legend8af0e2"><rect width="137" height="67" x="0" y="0"/></clipPath></defs><g class="layer-above"><g class="imagelayer"/><g class="shapelayer"/></g><g class="infolayer"><g class="legend" pointer-events="all" transform="translate(551.24, 100)"><rect class="bg" shape-rendering="crispEdges" style="stroke: rgb(68, 68, 68); stroke-opacity: 1; fill: rgb(255, 255, 255); fill-opacity: 1; stroke-width: 0px;" width="137" height="67" x="0" y="0"/><g class="scrollbox" transform="translate(0, 0)" clip-path="url('#legend8af0e2')"><g class="groups"><g class="traces" transform="translate(0, 14.5)" style="opacity: 1;"><text class="legendtext" text-anchor="start" x="40" y="4.680000000000001" style="font-family: 'Open Sans', verdana, arial, sans-serif; font-size: 12px; fill: rgb(42, 63, 95); fill-opacity: 1; white-space: pre;">Average Class I</text><g class="layers" style="opacity: 1;"><g class="legendfill"/><g class="legendlines"><path class="js-line" d="M5,0h30" style="fill: none; stroke: rgb(0, 100, 80); stroke-opacity: 1; stroke-width: 2px;"/></g><g class="legendsymbols"><g class="legendpoints"/></g></g><rect class="legendtoggle" x="0" y="-9.5" width="131.15625" height="19" style="fill: rgb(0, 0, 0); fill-opacity: 0;"/></g><g class="traces" transform="translate(0, 33.5)" style="opacity: 1;"><text class="legendtext" text-anchor="start" x="40" y="4.680000000000001" style="font-family: 'Open Sans', verdana, arial, sans-serif; font-size: 12px; fill: rgb(42, 63, 95); fill-opacity: 1; white-space: pre;">Average Class II</text><g class="layers" style="opacity: 1;"><g class="legendfill"/><g class="legendlines"><path class="js-line" d="M5,0h30" style="fill: none; stroke: rgb(0, 176, 246); stroke-opacity: 1; stroke-width: 2px;"/></g><g class="legendsymbols"><g class="legendpoints"/></g></g><rect class="legendtoggle" x="0" y="-9.5" width="131.15625" height="19" style="fill: rgb(0, 0, 0); fill-opacity: 0;"/></g><g class="traces" transform="translate(0, 52.5)" style="opacity: 1;"><text class="legendtext" text-anchor="start" x="40" y="4.680000000000001" style="font-family: 'Open Sans', verdana, arial, sans-serif; font-size: 12px; fill: rgb(42, 63, 95); fill-opacity: 1; white-space: pre;">Average Class III</text><g class="layers" style="opacity: 1;"><g class="legendfill"/><g class="legendlines"><path class="js-line" d="M5,0h30" style="fill: none; stroke: rgb(231, 107, 243); stroke-opacity: 1; stroke-width: 2px;"/></g><g class="legendsymbols"><g class="legendpoints"/></g></g><rect class="legendtoggle" x="0" y="-9.5" width="131.15625" height="19" style="fill: rgb(0, 0, 0); fill-opacity: 0;"/></g></g></g><rect class="scrollbar" rx="20" ry="3" width="0" height="0" style="fill: rgb(128, 139, 164); fill-opacity: 1;" x="0" y="0"/></g><g class="g-gtitle"><text class="gtitle" x="35" y="50" text-anchor="start" dy="0em" style="font-family: 'Open Sans', verdana, arial, sans-serif; font-size: 17px; fill: rgb(42, 63, 95); opacity: 1; font-weight: normal; white-space: pre;">Average curve: alpha-structure_group</text></g><g class="g-xtitle"><text class="xtitle" x="311" y="460.8" text-anchor="middle" style="font-family: 'Open Sans', verdana, arial, sans-serif; font-size: 14px; fill: rgb(42, 63, 95); opacity: 1; font-weight: normal; white-space: pre;">Domain</text></g><g class="g-ytitle"><text class="ytitle" transform="rotate(-90,40.840625,260)" x="40.840625" y="260" text-anchor="middle" style="font-family: 'Open Sans', verdana, arial, sans-serif; font-size: 14px; fill: rgb(42, 63, 95); opacity: 1; font-weight: normal; white-space: pre;">Frequency</text></g></g></svg>