<svg class="main-svg" xmlns="http://www.w3.org/2000/svg" xmlns:xlink="http://www.w3.org/1999/xlink" width="700" height="500" style="" viewBox="0 0 700 500"><rect x="0" y="0" width="700" height="500" style="fill: rgb(255, 255, 255); fill-opacity: 1;"/><defs id="defs-cbe754"><g class="clips"><clipPath id="clipcbe754xyplot" class="plotclip"><rect width="462" height="320"/></clipPath><clipPath class="axesclip" id="clipcbe754x"><rect x="80" y="0" width="462" height="500"/></clipPath><clipPath class="axesclip" id="clipcbe754y"><rect x="0" y="100" width="700" height="320"/></clipPath><clipPath class="axesclip" id="clipcbe754xy"><rect x="80" y="100" width="462" height="320"/></clipPath></g><g class="gradients"/></defs><g class="bglayer"><rect class="bg" x="80" y="100" width="462" height="320" style="fill: rgb(229, 236, 246); fill-opacity: 1; stroke-width: 0;"/></g><g class="layer-below"><g class="imagelayer"/><g class="shapelayer"/></g><g class="cartesianlayer"><g class="subplot xy"><g class="layer-subplot"><g class="shapelayer"/><g class="imagelayer"/></g><g class="gridlayer"><g class="x"><path class="xgrid crisp" transform="translate(170.23000000000002,0)" d="M0,100v320" style="stroke: rgb(255, 255, 255); stroke-opacity: 1; stroke-width: 1px;"/><path class="xgrid crisp" transform="translate(260.47,0)" d="M0,100v320" style="stroke: rgb(255, 255, 255); stroke-opacity: 1; stroke-width: 1px;"/><path class="xgrid crisp" transform="translate(350.7,0)" d="M0,100v320" style="stroke: rgb(255, 255, 255); stroke-opacity: 1; stroke-width: 1px;"/><path class="xgrid crisp" transform="translate(440.94,0)" d="M0,100v320" style="stroke: rgb(255, 255, 255); stroke-opacity: 1; stroke-width: 1px;"/><path class="xgrid crisp" transform="translate(531.1700000000001,0)" d="M0,100v320" style="stroke: rgb(255, 255, 255); stroke-opacity: 1; stroke-width: 1px;"/></g><g class="y"><path class="ygrid crisp" transform="translate(0,392.8)" d="M80,0h462" style="stroke: rgb(255, 255, 255); stroke-opacity: 1; stroke-width: 1px;"/><path class="ygrid crisp" transform="translate(0,325.28)" d="M80,0h462" style="stroke: rgb(255, 255, 255); stroke-opacity: 1; stroke-width: 1px;"/><path class="ygrid crisp" transform="translate(0,257.76)" d="M80,0h462" style="stroke: rgb(255, 255, 255); stroke-opacity: 1; stroke-width: 1px;"/><path class="ygrid crisp" transform="translate(0,190.24)" d="M80,0h462" style="stroke: rgb(255, 255, 255); stroke-opacity: 1; stroke-width: 1px;"/><path class="ygrid crisp" transform="translate(0,122.71000000000001)" d="M80,0h462" style="stroke: rgb(255, 255, 255); stroke-opacity: 1; stroke-width: 1px;"/></g></g><g class="zerolinelayer"><path class="xzl zl crisp" transform="translate(80,0)" d="M0,100v320" style="stroke: rgb(255, 255, 255); stroke-opacity: 1; stroke-width: 2px;"/></g><path class="xlines-below"/><path class="ylines-below"/><g class="overlines-below"/><g class="xaxislayer-below"/><g class="yaxislayer-below"/><g class="overaxes-below"/><g class="plot" transform="translate(80, 100)" clip-path="url('#clipcbe754xyplot')"><g class="scatterlayer mlayer"><g class="trace scatter trace9428ac" style="stroke-miterlimit: 2; opacity: 1;"><g class="fills"/><g class="errorbars"/><g class="lines"><path class="js-line" d="M0,66.06Q0.6,66.03 0.9,65.96C1.21,65.89 1.51,65.78 1.81,65.65C2.12,65.52 2.41,65.35 2.71,65.17C3.02,64.99 3.32,64.78 3.62,64.57C3.92,64.36 4.22,64.12 4.52,63.89C4.82,63.66 5.12,63.42 5.42,63.2C5.72,62.98 6.02,62.76 6.33,62.57C6.63,62.38 6.92,62.2 7.23,62.06C7.53,61.92 7.83,61.8 8.14,61.73C8.44,61.66 8.74,61.63 9.04,61.65C9.34,61.67 9.66,61.75 9.95,61.87C10.26,62 10.56,62.19 10.85,62.42C11.17,62.68 11.46,63 11.75,63.36C12.07,63.76 12.37,64.23 12.66,64.72C12.98,65.27 13.27,65.88 13.56,66.52C13.88,67.22 14.18,67.98 14.47,68.77C14.79,69.63 15.08,70.54 15.37,71.49C15.68,72.51 15.98,73.57 16.27,74.67C16.58,75.84 16.89,77.06 17.18,78.31C17.49,79.62 17.79,80.98 18.08,82.37C18.39,83.82 18.69,85.32 18.99,86.84C19.3,88.42 19.59,90.03 19.89,91.67C20.19,93.36 20.49,95.08 20.79,96.81C21.1,98.58 21.4,100.39 21.7,102.2C22,104.04 22.3,105.9 22.6,107.76C22.9,109.64 23.21,111.54 23.51,113.43C23.81,115.32 24.11,117.23 24.41,119.11C24.71,120.98 25.02,122.85 25.32,124.69C25.62,126.5 25.92,128.31 26.22,130.08C26.52,131.8 26.81,133.51 27.12,135.16C27.42,136.74 27.72,138.29 28.03,139.78C28.32,141.18 28.61,142.55 28.93,143.83C29.22,145.01 29.52,146.15 29.84,147.2C30.13,148.14 30.42,149.04 30.74,149.86C31.02,150.58 31.32,151.26 31.64,151.87C31.93,152.4 32.23,152.89 32.55,153.32C32.84,153.7 33.13,154.03 33.45,154.32C33.74,154.58 34.05,154.81 34.36,155C34.65,155.18 34.95,155.34 35.26,155.44C35.55,155.53 35.86,155.58 36.16,155.59C36.46,155.6 36.77,155.53 37.07,155.51C37.37,155.49 37.67,155.45 37.97,155.45C38.27,155.45 38.58,155.5 38.88,155.54C39.18,155.57 39.49,155.58 39.78,155.66C40.09,155.75 40.39,155.88 40.68,156.06C41,156.26 41.3,156.54 41.59,156.85C41.91,157.2 42.2,157.62 42.49,158.06C42.81,158.55 43.11,159.1 43.4,159.68C43.72,160.31 44.01,160.98 44.3,161.68C44.61,162.43 44.91,163.22 45.21,164.02C45.52,164.86 45.82,165.73 46.11,166.62C46.42,167.54 46.71,168.48 47.01,169.43C47.32,170.41 47.62,171.4 47.92,172.41C48.22,173.43 48.52,174.48 48.82,175.52C49.12,176.58 49.43,177.65 49.73,178.72C50.03,179.8 50.33,180.88 50.63,181.96C50.93,183.05 51.23,184.15 51.53,185.25C51.83,186.36 52.14,187.47 52.44,188.59C52.74,189.72 53.04,190.86 53.34,192.01C53.64,193.18 53.95,194.37 54.25,195.57C54.56,196.8 54.85,198.04 55.15,199.3C55.45,200.59 55.75,201.91 56.05,203.24C56.36,204.61 56.66,206.01 56.96,207.43C57.27,208.89 57.56,210.38 57.86,211.88C58.17,213.42 58.47,214.99 58.77,216.57C59.07,218.18 59.37,219.82 59.67,221.47C59.97,223.15 60.28,224.85 60.58,226.55C60.88,228.28 61.18,230.01 61.48,231.76C61.78,233.53 62.08,235.31 62.38,237.1C62.68,238.91 62.99,240.74 63.29,242.57C63.59,244.42 63.89,246.29 64.19,248.16C64.49,250.04 64.8,251.92 65.1,253.8C65.4,255.67 65.7,257.55 66,259.41C66.3,261.25 66.59,263.09 66.9,264.88C67.2,266.61 67.5,268.34 67.81,269.96C68.1,271.46 68.39,272.91 68.71,274.26C69,275.48 69.29,276.7 69.62,277.73C69.9,278.59 70.16,279.45 70.52,280.06C70.79,280.52 71.08,280.97 71.42,281.15C71.7,281.3 72.04,281.33 72.33,281.25C72.65,281.17 72.95,280.88 73.23,280.6C73.56,280.27 73.85,279.8 74.14,279.33C74.46,278.8 74.75,278.18 75.04,277.56C75.35,276.89 75.66,276.16 75.95,275.42C76.26,274.64 76.55,273.83 76.85,273.01C77.15,272.16 77.45,271.29 77.75,270.42C78.06,269.53 78.36,268.62 78.66,267.7C78.96,266.77 79.26,265.81 79.56,264.87C79.86,263.92 80.17,262.96 80.47,262.02C80.77,261.09 81.07,260.16 81.37,259.24C81.67,258.34 81.97,257.46 82.27,256.58C82.57,255.71 82.87,254.82 83.18,253.99C83.47,253.2 83.76,252.42 84.08,251.7C84.37,251.04 84.67,250.4 84.99,249.83C85.28,249.32 85.57,248.82 85.89,248.41C86.17,248.05 86.47,247.71 86.79,247.47C87.08,247.26 87.39,247.08 87.7,247.02C87.99,246.96 88.31,246.98 88.6,247.07C88.91,247.16 89.22,247.37 89.51,247.6C89.83,247.86 90.12,248.21 90.41,248.57C90.73,248.98 91.03,249.45 91.32,249.95C91.64,250.5 91.93,251.11 92.22,251.74C92.53,252.41 92.82,253.15 93.12,253.87C93.43,254.62 93.73,255.38 94.03,256.15C94.33,256.93 94.63,257.71 94.93,258.51C95.24,259.33 95.54,260.18 95.84,261.01C96.14,261.84 96.44,262.68 96.74,263.49C97.04,264.28 97.33,265.06 97.64,265.81C97.94,266.53 98.23,267.25 98.55,267.9C98.84,268.5 99.14,269.06 99.45,269.58C99.74,270.06 100.04,270.53 100.36,270.94C100.65,271.31 100.94,271.68 101.26,271.93C101.54,272.15 101.85,272.32 102.16,272.39C102.45,272.45 102.77,272.4 103.07,272.34C103.38,272.28 103.67,272.15 103.97,272.03C104.28,271.91 104.58,271.76 104.88,271.6C105.19,271.43 105.49,271.25 105.78,271.04C106.09,270.83 106.38,270.58 106.68,270.33C106.99,270.07 107.29,269.79 107.59,269.52C107.89,269.25 108.19,268.96 108.49,268.69C108.79,268.41 109.1,268.14 109.4,267.87C109.7,267.6 110,267.34 110.3,267.08C110.6,266.82 110.91,266.56 111.21,266.3C111.51,266.05 111.81,265.8 112.11,265.55C112.41,265.3 112.71,265.05 113.01,264.81C113.31,264.57 113.62,264.33 113.92,264.09C114.22,263.85 114.52,263.62 114.82,263.39C115.12,263.16 115.43,262.94 115.73,262.72C116.03,262.5 116.33,262.3 116.63,262.09C116.93,261.89 117.23,261.7 117.53,261.49C117.83,261.28 118.14,261.06 118.44,260.84C118.74,260.62 119.04,260.38 119.34,260.15C119.64,259.92 119.95,259.69 120.25,259.47C120.55,259.25 120.85,259.03 121.15,258.82C121.45,258.61 121.75,258.42 122.05,258.22C122.35,258.03 122.66,257.84 122.96,257.65C123.26,257.47 123.56,257.29 123.86,257.11C124.16,256.93 124.47,256.75 124.77,256.56C125.07,256.38 125.37,256.19 125.67,256C125.97,255.81 126.28,255.61 126.58,255.4C126.88,255.19 127.18,254.97 127.48,254.74C127.78,254.5 128.08,254.25 128.38,253.99C128.69,253.72 128.99,253.42 129.29,253.12C129.6,252.81 129.89,252.48 130.19,252.15C130.49,251.82 130.8,251.49 131.1,251.13C131.41,250.76 131.71,250.38 132,249.98C132.31,249.56 132.59,249.1 132.9,248.67C133.2,248.25 133.5,247.84 133.81,247.45C134.11,247.07 134.4,246.7 134.71,246.36C135.01,246.03 135.31,245.72 135.62,245.43C135.91,245.16 136.22,244.91 136.52,244.67C136.82,244.44 137.11,244.22 137.42,244.02C137.72,243.82 138.02,243.64 138.33,243.48C138.63,243.33 138.92,243.2 139.23,243.1C139.53,243 139.84,242.92 140.14,242.89C140.44,242.86 140.74,242.86 141.04,242.92C141.35,242.98 141.66,243.1 141.95,243.26C142.26,243.43 142.56,243.68 142.85,243.95C143.17,244.25 143.46,244.61 143.75,245C144.07,245.43 144.37,245.91 144.66,246.42C144.98,246.97 145.27,247.58 145.56,248.21C145.87,248.89 146.18,249.62 146.47,250.37C146.78,251.17 147.08,252.01 147.37,252.87C147.68,253.78 147.97,254.73 148.27,255.7C148.58,256.71 148.88,257.75 149.18,258.81C149.49,259.91 149.78,261.03 150.08,262.17C150.39,263.34 150.69,264.53 150.99,265.72C151.29,266.93 151.59,268.17 151.89,269.39C152.19,270.62 152.49,271.86 152.79,273.07C153.09,274.26 153.39,275.46 153.7,276.61C153.99,277.71 154.29,278.8 154.6,279.82C154.89,280.77 155.19,281.7 155.51,282.54C155.8,283.29 156.07,284.03 156.41,284.62C156.69,285.11 156.97,285.6 157.32,285.87C157.59,286.09 157.92,286.21 158.22,286.24C158.52,286.27 158.83,286.2 159.12,286.07C159.44,285.93 159.74,285.65 160.03,285.39C160.34,285.11 160.64,284.77 160.93,284.42C161.24,284.05 161.54,283.64 161.84,283.23C162.14,282.82 162.44,282.38 162.74,281.96C163.04,281.53 163.34,281.1 163.64,280.68C163.94,280.26 164.25,279.84 164.55,279.43C164.85,279.02 165.15,278.62 165.45,278.21C165.75,277.81 166.06,277.4 166.36,277C166.66,276.6 166.96,276.21 167.26,275.81C167.56,275.42 167.86,275.02 168.16,274.63C168.46,274.25 168.76,273.86 169.07,273.49C169.37,273.13 169.67,272.78 169.97,272.43C170.27,272.09 170.58,271.77 170.88,271.43C171.18,271.09 171.48,270.74 171.78,270.38C172.08,270.02 172.39,269.66 172.68,269.28C172.99,268.88 173.29,268.45 173.59,268.01C173.9,267.56 174.2,267.1 174.49,266.62C174.8,266.12 175.12,265.63 175.4,265.05C175.72,264.39 176.01,263.64 176.3,262.88C176.62,262.05 176.91,261.15 177.21,260.26C177.52,259.33 177.82,258.39 178.11,257.42C178.42,256.41 178.71,255.38 179.01,254.32C179.32,253.22 179.62,252.09 179.92,250.96C180.23,249.8 180.52,248.62 180.82,247.43C181.12,246.23 181.43,245.02 181.73,243.8C182.03,242.57 182.33,241.33 182.63,240.08C182.93,238.83 183.23,237.57 183.53,236.3C183.83,235.03 184.14,233.74 184.44,232.46C184.74,231.17 185.04,229.87 185.34,228.57C185.64,227.27 185.95,225.96 186.25,224.65C186.55,223.34 186.85,222.03 187.15,220.71C187.45,219.37 187.75,218.04 188.05,216.67C188.36,215.26 188.66,213.8 188.96,212.36C189.26,210.91 189.56,209.43 189.86,207.98C190.16,206.56 190.46,205.14 190.77,203.76C191.07,202.42 191.36,201.1 191.67,199.82C191.96,198.6 192.27,197.41 192.58,196.27C192.87,195.2 193.17,194.17 193.48,193.19C193.77,192.29 194.06,191.42 194.38,190.63C194.67,189.93 194.96,189.25 195.29,188.67C195.57,188.17 195.85,187.69 196.19,187.35C196.47,187.07 196.78,186.8 197.1,186.72C197.39,186.65 197.72,186.68 198,186.81C198.33,186.96 198.62,187.31 198.9,187.66C199.24,188.1 199.53,188.68 199.81,189.29C200.14,190 200.43,190.83 200.71,191.69C201.03,192.67 201.33,193.76 201.62,194.88C201.94,196.12 202.23,197.45 202.52,198.83C202.83,200.33 203.13,201.91 203.42,203.53C203.73,205.27 204.04,207.08 204.33,208.93C204.64,210.89 204.93,212.92 205.23,214.98C205.54,217.13 205.84,219.35 206.14,221.59C206.45,223.91 206.74,226.28 207.04,228.66C207.34,231.09 207.65,233.57 207.95,236.02C208.25,238.47 208.55,240.91 208.85,243.38C209.15,245.87 209.45,248.37 209.75,250.88C210.05,253.4 210.36,255.93 210.66,258.45C210.96,260.96 211.26,263.47 211.56,265.97C211.86,268.45 212.17,270.94 212.47,273.4C212.77,275.82 213.06,278.26 213.37,280.62C213.66,282.9 213.95,285.2 214.27,287.32C214.56,289.25 214.86,291.12 215.18,292.83C215.46,294.33 215.74,295.8 216.08,297.03C216.36,298.02 216.6,299.06 216.99,299.67C217.25,300.08 217.6,300.57 217.89,300.55C218.2,300.53 218.53,299.89 218.79,299.36C219.18,298.57 219.42,297.29 219.7,296.09C220.04,294.65 220.32,293.01 220.6,291.27C220.93,289.24 221.21,286.89 221.51,284.65C221.82,282.33 222.11,279.95 222.41,277.58C222.71,275.19 223.02,272.77 223.32,270.36C223.62,267.95 223.92,265.53 224.22,263.13C224.52,260.74 224.82,258.36 225.12,256C225.42,253.66 225.73,251.33 226.03,249.03C226.33,246.77 226.62,244.52 226.93,242.3C227.23,240.13 227.53,238 227.84,235.88C228.14,233.81 228.44,231.78 228.74,229.74C229.04,227.71 229.34,225.69 229.64,223.65C229.94,221.58 230.25,219.49 230.55,217.39C230.85,215.28 231.15,213.15 231.45,211.02C231.75,208.87 232.06,206.73 232.36,204.56C232.66,202.35 232.96,200.12 233.26,197.88C233.56,195.61 233.86,193.33 234.16,191.04C234.46,188.73 234.77,186.41 235.07,184.09C235.37,181.77 235.67,179.44 235.97,177.12C236.27,174.82 236.58,172.52 236.88,170.24C237.18,167.97 237.48,165.72 237.78,163.47C238.08,161.24 238.38,159.02 238.68,156.82C238.98,154.64 239.29,152.47 239.59,150.32C239.89,148.19 240.19,146.07 240.49,143.96C240.79,141.88 241.1,139.81 241.4,137.75C241.7,135.72 242,133.69 242.3,131.68C242.6,129.7 242.91,127.73 243.21,125.78C243.51,123.87 243.81,121.97 244.11,120.1C244.41,118.27 244.71,116.46 245.01,114.67C245.31,112.91 245.62,111.18 245.92,109.46C246.22,107.77 246.52,106.09 246.82,104.42C247.12,102.76 247.43,101.11 247.73,99.45C248.03,97.78 248.33,96.11 248.63,94.42C248.93,92.7 249.23,90.98 249.53,89.23C249.84,87.43 250.14,85.61 250.44,83.76C250.75,81.87 251.04,79.95 251.34,78.02C251.64,76.04 251.95,74.03 252.25,72.02C252.55,69.99 252.85,67.94 253.15,65.9C253.45,63.86 253.75,61.8 254.05,59.77C254.35,57.77 254.65,55.77 254.96,53.81C255.26,51.9 255.55,49.99 255.86,48.15C256.16,46.38 256.46,44.64 256.77,42.96C257.06,41.38 257.35,39.82 257.67,38.35C257.96,37 258.26,35.68 258.58,34.46C258.87,33.37 259.15,32.31 259.48,31.38C259.76,30.59 260.04,29.81 260.38,29.21C260.66,28.73 260.94,28.22 261.29,28C261.56,27.83 261.91,27.73 262.19,27.81C262.52,27.9 262.83,28.29 263.1,28.67C263.45,29.16 263.72,29.87 264,30.59C264.33,31.46 264.62,32.5 264.9,33.57C265.23,34.8 265.52,36.17 265.81,37.58C266.13,39.15 266.42,40.84 266.71,42.58C267.03,44.48 267.33,46.48 267.62,48.53C267.93,50.72 268.23,53.01 268.52,55.35C268.83,57.82 269.12,60.37 269.42,62.96C269.73,65.67 270.03,68.45 270.33,71.26C270.64,74.17 270.93,77.14 271.23,80.14C271.54,83.22 271.84,86.35 272.14,89.5C272.44,92.71 272.74,95.96 273.04,99.22C273.34,102.52 273.65,105.85 273.95,109.19C274.25,112.55 274.55,115.94 274.85,119.32C275.15,122.7 275.45,126.1 275.75,129.47C276.05,132.8 276.35,136.18 276.66,139.41C276.95,142.48 277.25,145.44 277.56,148.38C277.86,151.22 278.16,154 278.47,156.74C278.77,159.39 279.06,162.01 279.37,164.57C279.66,167.04 279.96,169.47 280.27,171.83C280.56,174.08 280.87,176.3 281.18,178.42C281.47,180.39 281.76,182.36 282.08,184.13C282.37,185.69 282.66,187.17 282.99,188.52C283.27,189.69 283.55,190.83 283.89,191.78C284.16,192.55 284.42,193.34 284.79,193.83C285.06,194.19 285.38,194.55 285.7,194.61C285.99,194.66 286.32,194.47 286.6,194.27C286.94,194.02 287.22,193.56 287.51,193.14C287.83,192.67 288.11,192.11 288.41,191.58C288.72,191.04 289.01,190.46 289.32,189.93C289.61,189.43 289.9,188.92 290.22,188.49C290.51,188.1 290.79,187.71 291.12,187.44C291.4,187.21 291.72,186.98 292.03,186.92C292.32,186.86 292.65,186.91 292.93,187.03C293.25,187.17 293.56,187.46 293.84,187.78C294.17,188.15 294.46,188.66 294.74,189.18C295.06,189.77 295.35,190.46 295.64,191.17C295.96,191.95 296.26,192.82 296.55,193.69C296.86,194.62 297.15,195.62 297.45,196.6C297.75,197.59 298.05,198.63 298.36,199.61C298.66,200.55 298.96,201.45 299.26,202.35C299.56,203.23 299.85,204.12 300.16,204.94C300.45,205.71 300.74,206.49 301.07,207.15C301.35,207.73 301.64,208.29 301.97,208.72C302.25,209.08 302.55,209.48 302.88,209.62C303.16,209.74 303.5,209.76 303.78,209.64C304.11,209.5 304.41,209.09 304.68,208.67C305.04,208.12 305.31,207.3 305.59,206.51C305.92,205.61 306.2,204.58 306.49,203.54C306.81,202.4 307.11,201.21 307.4,199.95C307.72,198.58 308,197.1 308.3,195.63C308.61,194.09 308.91,192.49 309.21,190.91C309.51,189.33 309.8,187.7 310.11,186.15C310.4,184.65 310.7,183.17 311.01,181.75C311.3,180.4 311.61,179.08 311.92,177.82C312.21,176.64 312.51,175.49 312.82,174.4C313.11,173.4 313.41,172.42 313.73,171.52C314.02,170.7 314.31,169.91 314.63,169.2C314.91,168.56 315.2,167.96 315.53,167.44C315.81,166.99 316.11,166.56 316.44,166.24C316.72,165.96 317.02,165.71 317.34,165.58C317.63,165.46 317.95,165.41 318.25,165.45C318.56,165.49 318.87,165.66 319.15,165.86C319.47,166.09 319.77,166.43 320.05,166.79C320.38,167.2 320.67,167.7 320.96,168.23C321.28,168.83 321.57,169.5 321.86,170.2C322.18,170.97 322.48,171.81 322.77,172.68C323.09,173.62 323.38,174.62 323.67,175.66C323.98,176.77 324.29,177.95 324.58,179.15C324.89,180.43 325.19,181.76 325.48,183.12C325.79,184.55 326.08,186.04 326.38,187.55C326.69,189.13 326.99,190.75 327.29,192.4C327.6,194.11 327.89,195.85 328.19,197.62C328.5,199.44 328.8,201.29 329.1,203.15C329.4,205.05 329.7,206.99 330,208.92C330.3,210.87 330.59,212.86 330.9,214.79C331.2,216.68 331.5,218.56 331.81,220.39C332.11,222.15 332.4,223.87 332.71,225.55C333.01,227.15 333.31,228.73 333.62,230.25C333.91,231.69 334.21,233.12 334.52,234.45C334.81,235.67 335.1,236.84 335.42,237.93C335.71,238.91 336.01,239.83 336.33,240.71C336.62,241.51 336.92,242.25 337.23,242.99C337.53,243.7 337.84,244.38 338.14,245.07C338.44,245.75 338.74,246.42 339.04,247.08C339.34,247.74 339.65,248.38 339.95,249.04C340.25,249.71 340.56,250.37 340.85,251.06C341.16,251.78 341.46,252.5 341.75,253.26C342.06,254.05 342.37,254.87 342.66,255.71C342.97,256.59 343.26,257.51 343.56,258.45C343.87,259.43 344.17,260.44 344.47,261.47C344.78,262.54 345.07,263.65 345.37,264.76C345.67,265.91 345.96,267.11 346.27,268.25C346.57,269.34 346.88,270.39 347.18,271.45C347.48,272.5 347.78,273.55 348.08,274.6C348.38,275.66 348.69,276.73 348.99,277.79C349.29,278.85 349.59,279.91 349.89,280.96C350.19,282.01 350.49,283.06 350.79,284.1C351.09,285.14 351.39,286.2 351.7,287.22C352,288.2 352.29,289.15 352.6,290.09C352.9,291 353.2,291.88 353.51,292.76C353.81,293.62 354.1,294.47 354.41,295.3C354.71,296.11 355.01,296.91 355.32,297.68C355.61,298.41 355.91,299.13 356.22,299.81C356.51,300.45 356.8,301.08 357.12,301.64C357.41,302.15 357.7,302.66 358.03,303.05C358.31,303.38 358.6,303.71 358.93,303.86C359.21,303.99 359.55,304.06 359.84,304C360.15,303.93 360.47,303.7 360.74,303.43C361.08,303.1 361.36,302.6 361.64,302.09C361.97,301.48 362.27,300.77 362.55,299.99C362.88,299.05 363.16,297.93 363.45,296.82C363.77,295.6 364.07,294.28 364.36,292.95C364.67,291.54 364.96,290.06 365.26,288.58C365.57,287.05 365.86,285.47 366.16,283.9C366.46,282.3 366.77,280.67 367.07,279.05C367.37,277.42 367.67,275.77 367.97,274.14C368.27,272.52 368.58,270.89 368.88,269.29C369.18,267.71 369.48,266.14 369.78,264.59C370.08,263.08 370.37,261.58 370.68,260.12C370.98,258.7 371.28,257.31 371.59,255.95C371.89,254.63 372.18,253.35 372.49,252.08C372.79,250.85 373.09,249.65 373.4,248.47C373.7,247.32 373.99,246.18 374.3,245.09C374.59,244.05 374.9,243.02 375.21,242.05C375.5,241.15 375.79,240.27 376.11,239.46C376.4,238.72 376.69,238.01 377.01,237.37C377.3,236.8 377.59,236.25 377.92,235.79C378.2,235.39 378.49,235.01 378.82,234.74C379.1,234.5 379.42,234.29 379.73,234.21C380.02,234.14 380.34,234.15 380.63,234.24C380.94,234.34 381.25,234.57 381.53,234.82C381.86,235.12 382.15,235.53 382.44,235.95C382.76,236.43 383.05,237.01 383.34,237.58C383.65,238.2 383.95,238.87 384.25,239.53C384.55,240.2 384.85,240.87 385.15,241.56C385.45,242.26 385.74,242.99 386.05,243.68C386.35,244.36 386.64,245.05 386.96,245.67C387.25,246.23 387.54,246.77 387.86,247.23C388.15,247.64 388.45,248.01 388.77,248.31C389.06,248.57 389.35,248.85 389.67,248.95C389.96,249.04 390.29,249.04 390.58,248.96C390.9,248.87 391.2,248.63 391.48,248.37C391.81,248.07 392.09,247.62 392.38,247.2C392.7,246.74 392.99,246.21 393.29,245.69C393.6,245.14 393.9,244.59 394.19,243.98C394.51,243.32 394.8,242.59 395.1,241.87C395.41,241.12 395.7,240.32 396,239.54C396.3,238.75 396.59,237.94 396.9,237.17C397.2,236.43 397.5,235.68 397.81,234.99C398.1,234.34 398.4,233.72 398.71,233.14C399,232.6 399.3,232.09 399.62,231.63C399.91,231.21 400.21,230.82 400.52,230.47C400.81,230.15 401.11,229.87 401.42,229.62C401.71,229.39 402.02,229.2 402.33,229.03C402.62,228.87 402.93,228.75 403.23,228.64C403.53,228.54 403.84,228.47 404.14,228.4C404.44,228.33 404.74,228.28 405.04,228.24C405.34,228.2 405.65,228.18 405.95,228.18C406.25,228.18 406.55,228.18 406.85,228.23C407.15,228.28 407.46,228.35 407.75,228.47C408.06,228.59 408.37,228.76 408.66,228.96C408.97,229.17 409.27,229.43 409.56,229.7C409.87,229.98 410.17,230.3 410.47,230.63C410.78,230.97 411.08,231.33 411.37,231.71C411.68,232.11 411.97,232.56 412.27,233C412.58,233.45 412.88,233.91 413.18,234.39C413.49,234.88 413.79,235.37 414.08,235.89C414.39,236.44 414.69,237.01 414.99,237.6C415.3,238.21 415.59,238.84 415.89,239.48C416.19,240.13 416.49,240.8 416.79,241.46C417.09,242.13 417.4,242.79 417.7,243.46C418,244.12 418.3,244.79 418.6,245.44C418.9,246.08 419.2,246.72 419.51,247.34C419.81,247.95 420.11,248.53 420.41,249.13C420.71,249.74 421.02,250.35 421.32,250.98C421.63,251.63 421.92,252.29 422.22,252.96C422.52,253.66 422.82,254.37 423.12,255.09C423.43,255.84 423.73,256.6 424.03,257.37C424.33,258.16 424.63,258.96 424.93,259.76C425.23,260.58 425.54,261.41 425.84,262.23C426.14,263.05 426.44,263.88 426.74,264.7C427.04,265.5 427.33,266.33 427.64,267.09C427.93,267.8 428.24,268.45 428.55,269.11C428.85,269.75 429.14,270.38 429.45,270.98C429.75,271.56 430.05,272.13 430.36,272.67C430.65,273.18 430.95,273.68 431.26,274.12C431.55,274.53 431.84,274.91 432.16,275.25C432.45,275.56 432.76,275.83 433.07,276.07C433.36,276.3 433.66,276.49 433.97,276.67C434.27,276.84 434.57,276.99 434.88,277.11C435.18,277.23 435.48,277.32 435.78,277.4C436.08,277.48 436.38,277.54 436.68,277.59C436.98,277.64 437.29,277.68 437.59,277.69C437.89,277.7 438.19,277.7 438.49,277.66C438.8,277.62 439.1,277.51 439.4,277.42C439.7,277.33 440,277.23 440.3,277.14C440.6,277.05 440.91,276.97 441.21,276.9C441.51,276.83 441.81,276.76 442.11,276.72C442.41,276.68 442.71,276.65 443.01,276.64C443.31,276.63 443.62,276.62 443.92,276.64C444.22,276.66 444.52,276.69 444.82,276.74C445.12,276.79 445.43,276.87 445.73,276.94C446.03,277.02 446.33,277.14 446.63,277.19C446.93,277.24 447.23,277.23 447.53,277.25C447.83,277.27 448.14,277.28 448.44,277.32C448.74,277.36 449.04,277.42 449.34,277.49C449.64,277.56 449.95,277.65 450.25,277.75C450.55,277.85 450.85,277.97 451.15,278.07C451.45,278.17 451.75,278.27 452.05,278.37C452.35,278.48 452.66,278.57 452.96,278.7C453.26,278.83 453.56,278.98 453.86,279.14C454.17,279.31 454.47,279.5 454.77,279.7C455.08,279.91 455.37,280.14 455.67,280.38C455.98,280.63 456.28,280.9 456.58,281.18C456.89,281.47 457.18,281.78 457.48,282.09C457.78,282.41 458.08,282.74 458.38,283.08C458.68,283.42 458.99,283.78 459.29,284.13C459.59,284.48 459.89,284.84 460.19,285.18C460.49,285.51 460.79,285.85 461.1,286.15Q461.39,286.43 462,286.93" style="vector-effect: non-scaling-stroke; fill: none; stroke: rgb(0, 100, 80); stroke-opacity: 1; stroke-width: 2px; opacity: 1;"/></g><g class="points"/><g class="text"/></g><g class="trace scatter trace51edd4" style="stroke-miterlimit: 2; opacity: 1;"><g class="fills"/><g class="errorbars"/><g class="lines"><path class="js-line" d="M0,75.34Q0.61,75.21 0.9,75.08C1.21,74.94 1.51,74.71 1.81,74.5C2.12,74.29 2.41,74.04 2.71,73.82C3.01,73.59 3.31,73.36 3.62,73.15C3.92,72.95 4.21,72.74 4.52,72.59C4.81,72.44 5.11,72.31 5.42,72.24C5.72,72.17 6.03,72.13 6.33,72.16C6.63,72.19 6.94,72.27 7.23,72.4C7.55,72.54 7.85,72.77 8.14,73.02C8.46,73.3 8.75,73.67 9.04,74.05C9.36,74.48 9.66,74.96 9.95,75.48C10.27,76.05 10.56,76.67 10.85,77.32C11.16,78.02 11.46,78.76 11.75,79.53C12.06,80.34 12.37,81.2 12.66,82.07C12.97,82.99 13.26,83.95 13.56,84.92C13.87,85.93 14.17,86.98 14.47,88.04C14.78,89.13 15.07,90.26 15.37,91.38C15.67,92.52 15.97,93.69 16.27,94.85C16.57,96.03 16.88,97.21 17.18,98.4C17.48,99.6 17.78,100.8 18.08,102.01C18.38,103.24 18.69,104.48 18.99,105.74C19.29,107.02 19.59,108.32 19.89,109.63C20.19,110.98 20.49,112.34 20.79,113.72C21.1,115.13 21.4,116.56 21.7,118C22,119.46 22.3,120.94 22.6,122.43C22.9,123.94 23.21,125.47 23.51,126.99C23.81,128.52 24.11,130.06 24.41,131.59C24.71,133.12 25.02,134.65 25.32,136.16C25.62,137.65 25.92,139.14 26.22,140.59C26.52,142 26.81,143.41 27.12,144.77C27.42,146.08 27.72,147.38 28.03,148.62C28.32,149.8 28.62,150.95 28.93,152.04C29.22,153.05 29.52,154.03 29.84,154.94C30.13,155.77 30.42,156.56 30.74,157.29C31.03,157.96 31.33,158.59 31.64,159.18C31.93,159.73 32.24,160.24 32.55,160.72C32.84,161.16 33.14,161.58 33.45,161.95C33.74,162.3 34.05,162.62 34.36,162.9C34.65,163.17 34.95,163.39 35.26,163.61C35.55,163.82 35.85,164.01 36.16,164.18C36.46,164.34 36.76,164.5 37.07,164.61C37.37,164.72 37.67,164.84 37.97,164.85C38.27,164.86 38.59,164.81 38.88,164.69C39.19,164.56 39.49,164.31 39.78,164.09C40.09,163.86 40.38,163.57 40.68,163.33C40.98,163.09 41.28,162.85 41.59,162.66C41.88,162.48 42.18,162.3 42.49,162.19C42.79,162.08 43.1,162.01 43.4,162C43.7,161.99 44.01,162.05 44.3,162.15C44.61,162.26 44.92,162.44 45.21,162.66C45.53,162.9 45.82,163.23 46.11,163.58C46.43,163.97 46.72,164.43 47.01,164.91C47.33,165.44 47.63,166.04 47.92,166.66C48.23,167.32 48.53,168.04 48.82,168.77C49.13,169.55 49.44,170.37 49.73,171.22C50.04,172.12 50.34,173.05 50.63,174.01C50.94,175.01 51.23,176.05 51.53,177.11C51.84,178.21 52.14,179.33 52.44,180.47C52.75,181.65 53.04,182.86 53.34,184.08C53.65,185.34 53.95,186.62 54.25,187.91C54.56,189.23 54.85,190.57 55.15,191.92C55.45,193.29 55.75,194.68 56.05,196.08C56.35,197.5 56.66,198.92 56.96,200.36C57.26,201.83 57.56,203.31 57.86,204.81C58.17,206.35 58.47,207.92 58.77,209.51C59.08,211.14 59.37,212.8 59.67,214.48C59.98,216.2 60.28,217.96 60.58,219.72C60.88,221.52 61.18,223.34 61.48,225.17C61.78,227.01 62.08,228.88 62.38,230.72C62.68,232.56 62.98,234.44 63.29,236.21C63.58,237.87 63.88,239.45 64.19,241.01C64.49,242.51 64.79,243.98 65.1,245.4C65.39,246.74 65.69,248.07 66,249.31C66.29,250.45 66.58,251.57 66.9,252.59C67.19,253.51 67.49,254.37 67.81,255.17C68.1,255.88 68.39,256.54 68.71,257.15C69,257.7 69.31,258.2 69.62,258.67C69.91,259.1 70.21,259.5 70.52,259.88C70.81,260.24 71.12,260.58 71.42,260.91C71.72,261.24 72.02,261.56 72.33,261.86C72.63,262.15 72.92,262.47 73.23,262.7C73.52,262.91 73.83,263.09 74.14,263.22C74.43,263.34 74.74,263.39 75.04,263.45C75.34,263.51 75.65,263.55 75.95,263.6C76.25,263.64 76.55,263.68 76.85,263.72C77.15,263.76 77.45,263.8 77.75,263.84C78.05,263.88 78.36,263.91 78.66,263.94C78.96,263.97 79.26,264 79.56,264C79.86,264 80.17,264.01 80.47,263.96C80.77,263.91 81.07,263.82 81.37,263.71C81.68,263.6 81.97,263.43 82.27,263.28C82.57,263.12 82.88,262.94 83.18,262.78C83.48,262.62 83.78,262.47 84.08,262.33C84.38,262.19 84.69,262.07 84.99,261.95C85.29,261.83 85.59,261.71 85.89,261.61C86.19,261.51 86.49,261.41 86.79,261.33C87.09,261.25 87.4,261.17 87.7,261.13C88,261.09 88.3,261.05 88.6,261.08C88.9,261.11 89.22,261.18 89.51,261.29C89.82,261.41 90.11,261.61 90.41,261.8C90.72,261.99 91.02,262.2 91.32,262.43C91.63,262.66 91.93,262.89 92.22,263.18C92.53,263.49 92.83,263.86 93.12,264.24C93.43,264.64 93.72,265.13 94.03,265.54C94.33,265.94 94.62,266.31 94.93,266.68C95.23,267.04 95.53,267.39 95.84,267.72C96.14,268.04 96.43,268.37 96.74,268.63C97.03,268.87 97.33,269.11 97.64,269.26C97.93,269.4 98.24,269.5 98.55,269.54C98.85,269.58 99.15,269.56 99.45,269.51C99.76,269.45 100.07,269.34 100.36,269.2C100.67,269.05 100.97,268.84 101.26,268.61C101.57,268.36 101.87,268.07 102.16,267.76C102.47,267.42 102.78,267.04 103.07,266.64C103.38,266.22 103.67,265.74 103.97,265.28C104.28,264.81 104.58,264.31 104.88,263.83C105.18,263.36 105.48,262.89 105.78,262.43C106.08,261.98 106.37,261.53 106.68,261.12C106.98,260.72 107.28,260.34 107.59,259.99C107.88,259.66 108.18,259.35 108.49,259.08C108.78,258.83 109.09,258.6 109.4,258.41C109.69,258.23 110,258.09 110.3,257.96C110.6,257.83 110.91,257.76 111.21,257.64C111.51,257.51 111.82,257.39 112.11,257.21C112.42,257.02 112.71,256.77 113.01,256.54C113.31,256.31 113.62,256.06 113.92,255.82C114.22,255.58 114.52,255.34 114.82,255.11C115.12,254.88 115.43,254.65 115.73,254.43C116.03,254.21 116.33,254 116.63,253.78C116.93,253.57 117.23,253.35 117.53,253.14C117.83,252.93 118.14,252.72 118.44,252.5C118.74,252.28 119.04,252.06 119.34,251.81C119.65,251.55 119.95,251.28 120.25,250.99C120.56,250.68 120.85,250.34 121.15,250.01C121.45,249.67 121.74,249.32 122.05,248.99C122.35,248.67 122.65,248.35 122.96,248.08C123.25,247.82 123.55,247.57 123.86,247.38C124.15,247.2 124.46,247.04 124.77,246.94C125.06,246.84 125.37,246.79 125.67,246.78C125.97,246.77 126.28,246.8 126.58,246.85C126.88,246.9 127.18,246.98 127.48,247.06C127.78,247.14 128.08,247.24 128.38,247.35C128.68,247.46 128.99,247.59 129.29,247.72C129.59,247.85 129.89,247.99 130.19,248.11C130.49,248.23 130.79,248.42 131.1,248.45C131.4,248.48 131.72,248.45 132,248.32C132.32,248.17 132.63,247.87 132.9,247.51C133.26,247.03 133.52,246.27 133.81,245.59C134.13,244.86 134.41,244.03 134.71,243.26C135.01,242.49 135.31,241.71 135.62,240.95C135.92,240.22 136.21,239.49 136.52,238.79C136.81,238.12 137.11,237.46 137.42,236.84C137.71,236.25 138.02,235.69 138.33,235.16C138.62,234.67 138.92,234.2 139.23,233.78C139.52,233.39 139.82,233.01 140.14,232.69C140.43,232.39 140.73,232.12 141.04,231.9C141.33,231.7 141.64,231.53 141.95,231.42C142.24,231.32 142.55,231.25 142.85,231.26C143.15,231.27 143.46,231.34 143.75,231.47C144.07,231.61 144.37,231.84 144.66,232.1C144.98,232.39 145.27,232.76 145.56,233.15C145.88,233.59 146.18,234.1 146.47,234.64C146.79,235.23 147.08,235.87 147.37,236.54C147.68,237.26 147.98,238.03 148.27,238.82C148.58,239.66 148.88,240.54 149.18,241.44C149.49,242.38 149.78,243.36 150.08,244.35C150.39,245.37 150.69,246.43 150.99,247.48C151.29,248.54 151.59,249.63 151.89,250.69C152.19,251.73 152.48,252.78 152.79,253.79C153.09,254.77 153.38,255.78 153.7,256.69C153.99,257.52 154.28,258.32 154.6,259.04C154.89,259.68 155.19,260.28 155.51,260.82C155.8,261.3 156.09,261.75 156.41,262.11C156.69,262.43 157,262.72 157.32,262.91C157.61,263.08 157.92,263.21 158.22,263.24C158.52,263.27 158.83,263.19 159.12,263.08C159.43,262.97 159.73,262.75 160.03,262.56C160.34,262.36 160.63,262.12 160.93,261.91C161.23,261.7 161.56,261.57 161.84,261.31C162.17,261.02 162.44,260.56 162.74,260.2C163.04,259.85 163.33,259.48 163.64,259.18C163.93,258.9 164.24,258.64 164.55,258.44C164.84,258.26 165.14,258.1 165.45,258.01C165.75,257.92 166.06,257.88 166.36,257.89C166.66,257.9 166.96,257.96 167.26,258.05C167.57,258.14 167.86,258.28 168.16,258.43C168.47,258.58 168.77,258.77 169.07,258.95C169.37,259.13 169.66,259.35 169.97,259.52C170.27,259.69 170.57,259.87 170.88,259.98C171.17,260.08 171.48,260.16 171.78,260.16C172.08,260.16 172.39,260.1 172.68,259.99C172.99,259.87 173.3,259.68 173.59,259.47C173.9,259.24 174.2,258.94 174.49,258.64C174.8,258.31 175.11,257.95 175.4,257.57C175.71,257.17 176,256.75 176.3,256.31C176.61,255.85 176.93,255.42 177.21,254.88C177.54,254.24 177.82,253.43 178.11,252.67C178.42,251.88 178.71,251.08 179.01,250.25C179.32,249.39 179.63,248.54 179.92,247.62C180.24,246.62 180.53,245.57 180.82,244.46C181.14,243.24 181.43,241.89 181.73,240.58C182.04,239.24 182.33,237.85 182.63,236.5C182.93,235.15 183.23,233.81 183.53,232.48C183.83,231.17 184.14,229.86 184.44,228.57C184.74,227.3 185.04,226.04 185.34,224.79C185.64,223.56 185.95,222.34 186.25,221.14C186.55,219.96 186.85,218.79 187.15,217.64C187.45,216.52 187.74,215.42 188.05,214.33C188.35,213.27 188.65,212.23 188.96,211.21C189.26,210.22 189.55,209.25 189.86,208.31C190.16,207.4 190.46,206.51 190.77,205.64C191.07,204.81 191.36,204 191.67,203.2C191.97,202.43 192.27,201.68 192.58,200.94C192.88,200.22 193.17,199.51 193.48,198.83C193.77,198.18 194.06,197.53 194.38,196.95C194.67,196.41 194.97,195.89 195.29,195.45C195.57,195.07 195.86,194.7 196.19,194.45C196.47,194.24 196.79,194.06 197.1,194.01C197.39,193.97 197.72,194.02 198,194.15C198.32,194.3 198.62,194.59 198.9,194.9C199.23,195.27 199.53,195.74 199.81,196.25C200.14,196.83 200.42,197.51 200.71,198.22C201.03,199.02 201.33,199.91 201.62,200.84C201.94,201.86 202.23,202.97 202.52,204.11C202.83,205.35 203.13,206.67 203.42,208.03C203.73,209.49 204.04,211.01 204.33,212.57C204.64,214.23 204.94,215.95 205.23,217.71C205.54,219.56 205.84,221.47 206.14,223.4C206.45,225.39 206.74,227.48 207.04,229.49C207.34,231.46 207.64,233.42 207.95,235.34C208.25,237.22 208.55,239.03 208.85,240.9C209.15,242.81 209.45,244.74 209.75,246.69C210.06,248.69 210.36,250.72 210.66,252.76C210.96,254.83 211.26,256.92 211.56,259C211.86,261.07 212.16,263.16 212.47,265.2C212.77,267.19 213.06,269.2 213.37,271.09C213.66,272.85 213.95,274.58 214.27,276.16C214.56,277.57 214.84,278.95 215.18,280.12C215.46,281.09 215.71,282.05 216.08,282.72C216.35,283.21 216.64,283.75 216.99,283.88C217.26,283.98 217.63,283.88 217.89,283.69C218.26,283.42 218.52,282.76 218.79,282.12C219.16,281.23 219.42,280.01 219.7,278.78C220.04,277.28 220.3,275.44 220.6,273.73C220.91,271.97 221.21,270.15 221.51,268.35C221.81,266.54 222.11,264.72 222.41,262.91C222.71,261.11 223.02,259.3 223.32,257.51C223.62,255.73 223.92,253.95 224.22,252.18C224.52,250.42 224.82,248.67 225.12,246.93C225.42,245.2 225.72,243.48 226.03,241.78C226.33,240.12 226.62,238.47 226.93,236.87C227.23,235.33 227.53,233.81 227.84,232.35C228.13,230.97 228.43,229.62 228.74,228.33C229.03,227.13 229.32,225.97 229.64,224.88C229.93,223.88 230.23,222.93 230.55,222.03C230.84,221.21 231.14,220.45 231.45,219.71C231.74,219.02 232.05,218.36 232.36,217.73C232.65,217.14 232.95,216.58 233.26,216.02C233.56,215.48 233.87,215.01 234.16,214.45C234.48,213.83 234.78,213.17 235.07,212.44C235.39,211.62 235.68,210.68 235.97,209.76C236.28,208.79 236.59,207.79 236.88,206.76C237.19,205.67 237.49,204.56 237.78,203.4C238.09,202.18 238.39,200.92 238.68,199.62C238.99,198.24 239.3,196.82 239.59,195.34C239.9,193.74 240.2,192.07 240.49,190.35C240.8,188.51 241.11,186.63 241.4,184.64C241.72,182.46 242,180.11 242.3,177.77C242.61,175.33 242.91,172.78 243.21,170.27C243.51,167.74 243.81,165.2 244.11,162.66C244.41,160.12 244.71,157.58 245.01,155.05C245.31,152.52 245.62,150 245.92,147.48C246.22,144.97 246.52,142.48 246.82,139.98C247.12,137.49 247.43,135.01 247.73,132.52C248.03,130.03 248.33,127.55 248.63,125.06C248.93,122.57 249.23,120.08 249.53,117.6C249.83,115.12 250.14,112.64 250.44,110.16C250.74,107.7 251.04,105.23 251.34,102.78C251.64,100.36 251.95,97.95 252.25,95.56C252.55,93.22 252.85,90.88 253.15,88.59C253.45,86.36 253.74,84.16 254.05,82.01C254.35,79.94 254.65,77.9 254.96,75.91C255.26,74.01 255.55,72.15 255.86,70.34C256.15,68.62 256.46,66.95 256.77,65.33C257.06,63.79 257.36,62.3 257.67,60.85C257.96,59.49 258.27,58.17 258.58,56.89C258.87,55.69 259.17,54.52 259.48,53.4C259.77,52.36 260.06,51.35 260.38,50.41C260.67,49.54 260.97,48.71 261.29,47.94C261.58,47.24 261.86,46.56 262.19,45.98C262.47,45.48 262.76,44.97 263.1,44.63C263.38,44.35 263.69,44.08 264,44.02C264.29,43.96 264.62,44.06 264.9,44.22C265.24,44.42 265.53,44.84 265.81,45.26C266.15,45.78 266.43,46.47 266.71,47.18C267.04,48.02 267.34,48.98 267.62,49.99C267.94,51.14 268.23,52.4 268.52,53.71C268.84,55.17 269.13,56.74 269.42,58.36C269.74,60.13 270.04,62.01 270.33,63.94C270.64,66.02 270.94,68.21 271.23,70.45C271.54,72.84 271.85,75.33 272.14,77.88C272.45,80.57 272.74,83.34 273.04,86.17C273.35,89.13 273.65,92.17 273.95,95.26C274.26,98.46 274.55,101.75 274.85,105.06C275.15,108.47 275.45,111.94 275.75,115.43C276.05,118.99 276.36,122.61 276.66,126.22C276.96,129.86 277.26,133.54 277.56,137.2C277.86,140.85 278.17,144.52 278.47,148.14C278.77,151.72 279.07,155.31 279.37,158.82C279.67,162.24 279.96,165.64 280.27,168.93C280.56,172.06 280.86,175.18 281.18,178.1C281.47,180.78 281.76,183.41 282.08,185.81C282.37,187.93 282.63,190.09 282.99,191.78C283.26,193.06 283.4,194.81 283.89,195.12C284.14,195.28 284.53,195.15 284.79,194.97C285.16,194.71 285.43,194.02 285.7,193.41C286.05,192.64 286.32,191.65 286.6,190.67C286.92,189.56 287.22,188.31 287.51,187.07C287.82,185.76 288.11,184.38 288.41,183.02C288.71,181.65 289.01,180.24 289.32,178.88C289.62,177.55 289.91,176.22 290.22,174.95C290.51,173.75 290.8,172.56 291.12,171.45C291.41,170.43 291.71,169.45 292.03,168.55C292.32,167.75 292.6,166.98 292.93,166.33C293.21,165.77 293.5,165.23 293.84,164.84C294.12,164.52 294.42,164.2 294.74,164.1C295.02,164.01 295.36,164.05 295.64,164.19C295.98,164.36 296.27,164.78 296.55,165.19C296.89,165.7 297.17,166.39 297.45,167.09C297.78,167.92 298.07,168.88 298.36,169.87C298.68,170.98 298.97,172.21 299.26,173.46C299.57,174.83 299.87,176.29 300.16,177.77C300.47,179.34 300.77,180.99 301.07,182.63C301.38,184.31 301.66,186.07 301.97,187.73C302.27,189.32 302.55,190.98 302.88,192.41C303.16,193.64 303.44,194.84 303.78,195.82C304.05,196.6 304.33,197.32 304.68,197.85C304.95,198.26 305.26,198.62 305.59,198.83C305.87,199.01 306.19,199.11 306.49,199.11C306.79,199.11 307.11,198.97 307.4,198.82C307.72,198.65 308.03,198.43 308.3,198.12C308.64,197.73 308.93,197.18 309.21,196.58C309.55,195.83 309.81,194.82 310.11,193.93C310.41,193.04 310.71,192.14 311.01,191.26C311.31,190.38 311.61,189.5 311.92,188.65C312.22,187.82 312.51,186.99 312.82,186.2C313.12,185.44 313.42,184.69 313.73,183.98C314.02,183.32 314.32,182.68 314.63,182.09C314.92,181.55 315.21,181.03 315.53,180.58C315.82,180.18 316.12,179.81 316.44,179.53C316.72,179.28 317.03,179.06 317.34,178.95C317.63,178.85 317.96,178.82 318.25,178.88C318.56,178.94 318.87,179.13 319.15,179.34C319.47,179.58 319.77,179.93 320.05,180.31C320.38,180.74 320.67,181.27 320.96,181.82C321.28,182.43 321.57,183.12 321.86,183.83C322.18,184.61 322.48,185.46 322.77,186.34C323.08,187.29 323.38,188.29 323.67,189.32C323.98,190.42 324.29,191.57 324.58,192.74C324.89,193.98 325.19,195.26 325.48,196.56C325.79,197.92 326.08,199.32 326.38,200.74C326.69,202.2 326.99,203.7 327.29,205.21C327.6,206.76 327.89,208.35 328.19,209.94C328.49,211.57 328.8,213.21 329.1,214.87C329.4,216.55 329.7,218.25 330,219.95C330.3,221.66 330.6,223.39 330.9,225.1C331.2,226.81 331.51,228.53 331.81,230.22C332.11,231.88 332.4,233.55 332.71,235.17C333.01,236.73 333.3,238.29 333.62,239.75C333.91,241.09 334.21,242.38 334.52,243.6C334.81,244.71 335.1,245.78 335.42,246.77C335.71,247.66 336.01,248.52 336.33,249.29C336.61,249.96 336.91,250.58 337.23,251.13C337.51,251.61 337.82,252.04 338.14,252.42C338.43,252.76 338.73,253.05 339.04,253.31C339.33,253.55 339.64,253.75 339.95,253.94C340.25,254.13 340.55,254.3 340.85,254.46C341.15,254.61 341.45,254.75 341.75,254.87C342.05,254.99 342.36,255.06 342.66,255.18C342.96,255.31 343.27,255.45 343.56,255.62C343.87,255.8 344.18,256.01 344.47,256.24C344.78,256.48 345.08,256.76 345.37,257.06C345.68,257.37 345.98,257.72 346.27,258.08C346.58,258.46 346.89,258.87 347.18,259.3C347.49,259.75 347.78,260.22 348.08,260.71C348.39,261.22 348.69,261.75 348.99,262.28C349.3,262.83 349.59,263.39 349.89,263.95C350.19,264.52 350.49,265.1 350.79,265.68C351.09,266.26 351.4,266.85 351.7,267.44C352,268.02 352.3,268.61 352.6,269.19C352.9,269.76 353.2,270.33 353.51,270.89C353.81,271.43 354.1,271.97 354.41,272.49C354.71,273 355.01,273.49 355.32,273.97C355.62,274.44 355.92,274.9 356.22,275.34C356.52,275.77 356.81,276.19 357.12,276.6C357.42,277 357.72,277.39 358.03,277.76C358.32,278.11 358.62,278.46 358.93,278.76C359.22,279.04 359.52,279.31 359.84,279.5C360.13,279.67 360.43,279.83 360.74,279.88C361.03,279.93 361.35,279.91 361.64,279.81C361.96,279.7 362.27,279.46 362.55,279.18C362.88,278.85 363.17,278.41 363.45,277.93C363.78,277.36 364.08,276.69 364.36,275.96C364.69,275.08 364.97,274.02 365.26,272.99C365.57,271.88 365.86,270.7 366.16,269.52C366.47,268.3 366.77,267.05 367.07,265.8C367.37,264.54 367.67,263.26 367.97,261.99C368.27,260.73 368.58,259.46 368.88,258.21C369.18,256.98 369.48,255.75 369.78,254.54C370.08,253.37 370.37,252.21 370.68,251.07C370.98,249.97 371.28,248.88 371.59,247.82C371.89,246.8 372.18,245.8 372.49,244.83C372.78,243.91 373.09,243.01 373.4,242.15C373.69,241.35 373.98,240.57 374.3,239.85C374.59,239.19 374.89,238.56 375.21,238C375.5,237.5 375.79,237.03 376.11,236.64C376.39,236.3 376.69,235.98 377.01,235.78C377.3,235.6 377.61,235.46 377.92,235.44C378.22,235.42 378.53,235.49 378.82,235.62C379.14,235.76 379.44,236.02 379.73,236.3C380.05,236.61 380.34,237.01 380.63,237.42C380.95,237.88 381.24,238.4 381.53,238.94C381.84,239.52 382.15,240.15 382.44,240.8C382.75,241.49 383.04,242.22 383.34,242.95C383.65,243.71 383.95,244.51 384.25,245.28C384.55,246.04 384.84,246.82 385.15,247.55C385.44,248.25 385.74,248.94 386.05,249.59C386.34,250.21 386.65,250.81 386.96,251.38C387.25,251.91 387.54,252.46 387.86,252.9C388.14,253.29 388.43,253.8 388.77,253.92C389.05,254.02 389.38,253.91 389.67,253.79C389.99,253.66 390.29,253.36 390.58,253.1C390.89,252.83 391.18,252.5 391.48,252.18C391.78,251.86 392.08,251.52 392.38,251.18C392.69,250.83 392.99,250.46 393.29,250.08C393.6,249.69 393.89,249.28 394.19,248.87C394.49,248.45 394.8,248.02 395.1,247.6C395.4,247.19 395.7,246.79 396,246.4C396.3,246.02 396.59,245.64 396.9,245.3C397.19,244.98 397.49,244.67 397.81,244.42C398.1,244.19 398.4,243.98 398.71,243.85C399,243.73 399.32,243.65 399.62,243.64C399.92,243.63 400.23,243.69 400.52,243.78C400.83,243.87 401.12,244.04 401.42,244.2C401.73,244.37 402.03,244.57 402.33,244.78C402.64,245 402.93,245.26 403.23,245.51C403.54,245.77 403.84,246.04 404.14,246.31C404.44,246.57 404.74,246.84 405.04,247.1C405.34,247.35 405.64,247.63 405.95,247.84C406.24,248.04 406.54,248.25 406.85,248.34C407.14,248.43 407.45,248.38 407.75,248.4C408.05,248.42 408.36,248.4 408.66,248.44C408.96,248.48 409.27,248.56 409.56,248.67C409.87,248.79 410.18,248.96 410.47,249.15C410.78,249.35 411.08,249.57 411.37,249.85C411.69,250.16 411.98,250.53 412.27,250.94C412.59,251.39 412.89,251.92 413.18,252.46C413.5,253.05 413.79,253.71 414.08,254.37C414.39,255.06 414.69,255.8 414.99,256.53C415.29,257.26 415.59,258.01 415.89,258.75C416.19,259.48 416.49,260.2 416.79,260.93C417.09,261.68 417.39,262.45 417.7,263.19C418,263.91 418.29,264.64 418.6,265.32C418.89,265.96 419.21,266.54 419.51,267.16C419.81,267.79 420.11,268.44 420.41,269.09C420.71,269.75 421.02,270.42 421.32,271.07C421.62,271.72 421.91,272.37 422.22,272.99C422.51,273.58 422.8,274.2 423.12,274.71C423.41,275.16 423.69,275.63 424.03,275.92C424.31,276.16 424.62,276.33 424.93,276.4C425.22,276.47 425.54,276.42 425.84,276.37C426.14,276.32 426.44,276.2 426.74,276.07C427.05,275.94 427.34,275.78 427.64,275.6C427.95,275.42 428.25,275.2 428.55,274.99C428.85,274.78 429.15,274.55 429.45,274.33C429.75,274.11 430.05,273.88 430.36,273.67C430.66,273.47 430.96,273.27 431.26,273.1C431.56,272.93 431.85,272.78 432.16,272.65C432.46,272.53 432.77,272.43 433.07,272.34C433.37,272.25 433.67,272.2 433.97,272.09C434.28,271.97 434.57,271.78 434.88,271.64C435.18,271.51 435.48,271.38 435.78,271.28C436.08,271.18 436.38,271.1 436.68,271.03C436.98,270.96 437.29,270.91 437.59,270.85C437.89,270.8 438.19,270.77 438.49,270.7C438.79,270.63 439.1,270.51 439.4,270.42C439.7,270.34 440,270.23 440.3,270.19C440.6,270.15 440.91,270.15 441.21,270.19C441.51,270.23 441.82,270.33 442.11,270.44C442.42,270.56 442.7,270.82 443.01,270.89C443.3,270.96 443.63,270.96 443.92,270.88C444.23,270.79 444.51,270.49 444.82,270.35C445.12,270.21 445.42,270.09 445.73,270.02C446.03,269.95 446.33,269.92 446.63,269.92C446.93,269.92 447.23,269.97 447.53,270.05C447.84,270.13 448.14,270.25 448.44,270.39C448.75,270.53 449.04,270.72 449.34,270.9C449.64,271.08 449.95,271.28 450.25,271.47C450.55,271.66 450.85,271.84 451.15,272.04C451.45,272.25 451.76,272.47 452.05,272.71C452.36,272.97 452.67,273.24 452.96,273.55C453.27,273.88 453.57,274.24 453.86,274.62C454.17,275.03 454.48,275.49 454.77,275.96C455.08,276.46 455.38,277 455.67,277.56C455.98,278.15 456.28,278.78 456.58,279.42C456.89,280.09 457.18,280.78 457.48,281.48C457.79,282.21 458.08,282.96 458.38,283.71C458.68,284.47 458.99,285.25 459.29,286.01C459.59,286.77 459.88,287.54 460.19,288.28C460.49,289 460.79,289.72 461.1,290.38Q461.39,290.99 462,292.12" style="vector-effect: non-scaling-stroke; fill: none; stroke: rgb(0, 176, 246); stroke-opacity: 1; stroke-width: 2px; opacity: 1;"/></g><g class="points"/><g class="text"/></g><g class="trace scatter trace3e6fee" style="stroke-miterlimit: 2; opacity: 1;"><g class="fills"/><g class="errorbars"/><g class="lines"><path class="js-line" d="M0,161.74Q0.64,159.91 0.9,158.7C1.28,156.97 1.52,154.58 1.81,152.32C2.13,149.79 2.42,147.01 2.71,144.23C3.02,141.26 3.32,138.15 3.62,135.03C3.93,131.79 4.22,128.46 4.52,125.13C4.82,121.73 5.12,118.26 5.42,114.81C5.72,111.33 6.03,107.81 6.33,104.32C6.63,100.83 6.93,97.33 7.23,93.86C7.53,90.42 7.84,86.99 8.14,83.6C8.44,80.27 8.73,76.96 9.04,73.7C9.34,70.52 9.64,67.37 9.95,64.29C10.25,61.31 10.54,58.36 10.85,55.49C11.14,52.73 11.44,50.01 11.75,47.38C12.04,44.88 12.35,42.44 12.66,40.08C12.95,37.86 13.25,35.7 13.56,33.64C13.85,31.73 14.15,29.87 14.47,28.13C14.76,26.55 15.05,25.02 15.37,23.61C15.65,22.36 15.94,21.16 16.27,20.1C16.55,19.2 16.83,18.34 17.18,17.66C17.45,17.12 17.72,16.56 18.08,16.29C18.35,16.08 18.7,15.94 18.99,16C19.31,16.07 19.62,16.44 19.89,16.8C20.24,17.27 20.51,17.97 20.79,18.68C21.13,19.54 21.42,20.56 21.7,21.62C22.03,22.84 22.31,24.19 22.6,25.59C22.92,27.15 23.22,28.82 23.51,30.55C23.83,32.43 24.12,34.41 24.41,36.45C24.72,38.63 25.03,40.9 25.32,43.22C25.63,45.67 25.93,48.2 26.22,50.77C26.53,53.46 26.82,56.23 27.12,59.03C27.43,61.93 27.73,64.88 28.03,67.87C28.34,70.93 28.63,74.05 28.93,77.18C29.23,80.37 29.54,83.6 29.84,86.83C30.14,90.1 30.44,93.39 30.74,96.68C31.04,99.97 31.34,103.28 31.64,106.56C31.94,109.82 32.25,113.08 32.55,116.29C32.85,119.43 33.14,122.56 33.45,125.61C33.75,128.54 34.05,131.44 34.36,134.24C34.65,136.9 34.95,139.5 35.26,142.01C35.55,144.36 35.85,146.65 36.16,148.85C36.45,150.9 36.76,152.87 37.07,154.77C37.36,156.53 37.66,158.24 37.97,159.86C38.26,161.36 38.56,162.81 38.88,164.18C39.17,165.43 39.46,166.64 39.78,167.77C40.07,168.78 40.36,169.74 40.68,170.64C40.97,171.46 41.28,172.22 41.59,172.96C41.88,173.66 42.19,174.32 42.49,174.99C42.79,175.65 43.1,176.28 43.4,176.93C43.7,177.58 44,178.23 44.3,178.89C44.6,179.56 44.91,180.23 45.21,180.91C45.51,181.61 45.81,182.32 46.11,183.03C46.41,183.75 46.71,184.48 47.01,185.22C47.31,185.97 47.62,186.73 47.92,187.49C48.22,188.25 48.52,189.02 48.82,189.79C49.12,190.56 49.43,191.34 49.73,192.12C50.03,192.9 50.33,193.67 50.63,194.45C50.93,195.23 51.23,196.01 51.53,196.8C51.83,197.59 52.14,198.38 52.44,199.18C52.74,199.99 53.04,200.8 53.34,201.63C53.64,202.47 53.95,203.32 54.25,204.19C54.56,205.09 54.86,206 55.15,206.93C55.46,207.9 55.75,208.89 56.05,209.9C56.36,210.96 56.66,212.04 56.96,213.15C57.27,214.31 57.56,215.5 57.86,216.71C58.17,217.98 58.47,219.28 58.77,220.6C59.08,221.97 59.37,223.38 59.67,224.81C59.98,226.29 60.28,227.8 60.58,229.33C60.89,230.9 61.18,232.49 61.48,234.1C61.78,235.74 62.08,237.41 62.38,239.07C62.68,240.74 62.99,242.43 63.29,244.11C63.59,245.78 63.89,247.47 64.19,249.12C64.49,250.74 64.79,252.35 65.1,253.92C65.4,255.44 65.69,256.95 66,258.4C66.29,259.78 66.59,261.14 66.9,262.44C67.19,263.66 67.49,264.86 67.81,265.98C68.1,267 68.38,268 68.71,268.87C68.99,269.61 69.3,270.26 69.62,270.87C69.91,271.41 70.21,271.88 70.52,272.35C70.81,272.8 71.12,273.23 71.42,273.66C71.72,274.09 72.03,274.51 72.33,274.93C72.63,275.34 72.93,275.76 73.23,276.16C73.53,276.55 73.83,276.95 74.14,277.32C74.44,277.68 74.73,278.03 75.04,278.34C75.33,278.63 75.63,278.93 75.95,279.14C76.24,279.33 76.54,279.52 76.85,279.58C77.14,279.64 77.46,279.63 77.75,279.53C78.07,279.42 78.38,279.18 78.66,278.91C78.99,278.6 79.27,278.18 79.56,277.76C79.88,277.29 80.18,276.74 80.47,276.18C80.79,275.57 81.08,274.91 81.37,274.23C81.68,273.5 81.98,272.73 82.27,271.94C82.58,271.1 82.88,270.22 83.18,269.34C83.49,268.43 83.78,267.49 84.08,266.55C84.38,265.6 84.69,264.63 84.99,263.67C85.29,262.7 85.59,261.72 85.89,260.75C86.19,259.78 86.49,258.8 86.79,257.83C87.09,256.87 87.4,255.91 87.7,254.95C88,254 88.31,253.08 88.6,252.09C88.91,251.04 89.21,249.91 89.51,248.82C89.81,247.74 90.1,246.65 90.41,245.59C90.71,244.57 91.01,243.56 91.32,242.59C91.62,241.66 91.91,240.74 92.22,239.86C92.51,239.02 92.81,238.19 93.12,237.41C93.41,236.67 93.72,235.95 94.03,235.28C94.32,234.65 94.61,234.05 94.93,233.49C95.22,232.98 95.52,232.49 95.84,232.06C96.13,231.67 96.42,231.29 96.74,230.99C97.03,230.72 97.33,230.48 97.64,230.32C97.93,230.17 98.24,230.06 98.55,230.03C98.85,230 99.16,230.04 99.45,230.13C99.76,230.22 100.07,230.4 100.36,230.6C100.68,230.82 100.97,231.13 101.26,231.44C101.57,231.78 101.87,232.18 102.16,232.59C102.47,233.03 102.77,233.52 103.07,234.01C103.38,234.52 103.67,235.06 103.97,235.6C104.28,236.16 104.58,236.73 104.88,237.31C105.19,237.9 105.48,238.51 105.78,239.13C106.08,239.77 106.38,240.41 106.68,241.08C106.99,241.77 107.29,242.48 107.59,243.2C107.9,243.95 108.19,244.71 108.49,245.49C108.8,246.29 109.1,247.1 109.4,247.93C109.71,248.77 110,249.64 110.3,250.5C110.6,251.38 110.91,252.26 111.21,253.15C111.51,254.05 111.81,254.95 112.11,255.85C112.41,256.75 112.71,257.66 113.01,258.56C113.31,259.45 113.62,260.34 113.92,261.22C114.22,262.08 114.51,262.94 114.82,263.77C115.12,264.56 115.41,265.36 115.73,266.08C116.02,266.74 116.31,267.39 116.63,267.95C116.91,268.44 117.21,268.88 117.53,269.27C117.82,269.63 118.13,269.94 118.44,270.22C118.73,270.48 119.03,270.88 119.34,270.92C119.63,270.96 119.97,270.76 120.25,270.56C120.59,270.31 120.86,269.85 121.15,269.45C121.46,269.02 121.77,268.58 122.05,268.06C122.38,267.47 122.67,266.77 122.96,266.08C123.27,265.36 123.56,264.57 123.86,263.82C124.16,263.07 124.47,262.31 124.77,261.57C125.07,260.84 125.37,260.14 125.67,259.41C125.98,258.66 126.29,257.94 126.58,257.13C126.9,256.25 127.18,255.26 127.48,254.32C127.78,253.39 128.08,252.44 128.38,251.52C128.68,250.62 128.98,249.72 129.29,248.84C129.59,247.98 129.88,247.13 130.19,246.31C130.49,245.52 130.79,244.74 131.1,244C131.39,243.29 131.69,242.61 132,241.95C132.29,241.33 132.59,240.74 132.9,240.16C133.2,239.59 133.51,239.05 133.81,238.48C134.12,237.89 134.41,237.27 134.71,236.67C135.01,236.07 135.31,235.45 135.62,234.89C135.91,234.37 136.2,233.85 136.52,233.41C136.81,233.01 137.1,232.63 137.42,232.33C137.71,232.06 138.01,231.82 138.33,231.67C138.62,231.54 138.93,231.46 139.23,231.45C139.53,231.44 139.85,231.51 140.14,231.62C140.45,231.74 140.75,231.95 141.04,232.17C141.36,232.41 141.66,232.71 141.95,233.03C142.27,233.38 142.56,233.78 142.85,234.2C143.16,234.65 143.46,235.15 143.75,235.67C144.06,236.24 144.37,236.84 144.66,237.48C144.97,238.17 145.27,238.9 145.56,239.66C145.87,240.47 146.18,241.32 146.47,242.19C146.78,243.12 147.08,244.08 147.37,245.07C147.68,246.11 147.97,247.19 148.27,248.27C148.58,249.38 148.88,250.53 149.18,251.66C149.48,252.8 149.78,253.95 150.08,255.1C150.38,256.26 150.69,257.42 150.99,258.6C151.29,259.79 151.59,260.99 151.89,262.2C152.19,263.42 152.49,264.65 152.79,265.88C153.09,267.11 153.4,268.35 153.7,269.57C154,270.78 154.29,272.03 154.6,273.19C154.89,274.28 155.13,275.56 155.51,276.35C155.77,276.89 156.06,277.43 156.41,277.61C156.68,277.75 157.02,277.66 157.32,277.6C157.63,277.53 157.93,277.37 158.22,277.21C158.53,277.04 158.82,276.82 159.12,276.6C159.43,276.37 159.73,276.11 160.03,275.87C160.33,275.64 160.62,275.4 160.93,275.18C161.23,274.97 161.53,274.77 161.84,274.59C162.14,274.41 162.44,274.26 162.74,274.11C163.04,273.96 163.34,273.84 163.64,273.7C163.94,273.56 164.25,273.44 164.55,273.28C164.86,273.12 165.16,272.95 165.45,272.74C165.76,272.52 166.07,272.27 166.36,271.99C166.67,271.69 166.97,271.35 167.26,271C167.57,270.63 167.86,270.23 168.16,269.83C168.47,269.42 168.77,269 169.07,268.57C169.37,268.14 169.67,267.7 169.97,267.26C170.27,266.82 170.57,266.37 170.88,265.95C171.18,265.54 171.47,265.13 171.78,264.76C172.07,264.41 172.37,264.07 172.68,263.78C172.97,263.5 173.28,263.25 173.59,263.04C173.88,262.84 174.18,262.67 174.49,262.53C174.79,262.4 175.09,262.3 175.4,262.22C175.7,262.14 176,262.1 176.3,262.07C176.6,262.04 176.91,262.03 177.21,262.03C177.51,262.03 177.81,262.04 178.11,262.05C178.41,262.06 178.71,262.09 179.01,262.11C179.31,262.13 179.63,262.25 179.92,262.17C180.24,262.09 180.55,261.87 180.82,261.58C181.17,261.2 181.44,260.54 181.73,259.99C182.04,259.4 182.34,258.79 182.63,258.15C182.94,257.47 183.24,256.74 183.53,256C183.84,255.21 184.14,254.39 184.44,253.55C184.75,252.67 185.04,251.76 185.34,250.84C185.65,249.89 185.95,248.92 186.25,247.93C186.56,246.92 186.85,245.89 187.15,244.85C187.45,243.79 187.75,242.72 188.05,241.65C188.35,240.56 188.66,239.46 188.96,238.37C189.26,237.27 189.56,236.17 189.86,235.08C190.16,233.99 190.47,232.9 190.77,231.82C191.07,230.76 191.36,229.7 191.67,228.67C191.97,227.66 192.27,226.66 192.58,225.69C192.88,224.76 193.17,223.84 193.48,222.96C193.77,222.13 194.07,221.31 194.38,220.54C194.67,219.83 194.97,219.13 195.29,218.5C195.58,217.92 195.87,217.37 196.19,216.89C196.48,216.47 196.77,216.06 197.1,215.76C197.38,215.5 197.68,215.26 198,215.15C198.29,215.05 198.61,215.02 198.9,215.09C199.21,215.16 199.53,215.36 199.81,215.6C200.14,215.88 200.43,216.28 200.71,216.7C201.04,217.19 201.33,217.78 201.62,218.39C201.94,219.08 202.23,219.86 202.52,220.67C202.84,221.56 203.13,222.52 203.42,223.51C203.73,224.58 204.04,225.72 204.33,226.89C204.64,228.14 204.94,229.45 205.23,230.79C205.54,232.21 205.85,233.68 206.14,235.18C206.45,236.76 206.74,238.38 207.04,240.04C207.35,241.77 207.65,243.55 207.95,245.36C208.26,247.23 208.55,249.15 208.85,251.09C209.15,253.09 209.45,255.13 209.75,257.18C210.05,259.27 210.36,261.4 210.66,263.5C210.96,265.59 211.24,267.78 211.56,269.77C211.85,271.58 212.16,273.28 212.47,274.96C212.76,276.56 213.07,278.1 213.37,279.65C213.67,281.19 213.96,282.73 214.27,284.23C214.57,285.68 214.87,287.11 215.18,288.5C215.48,289.84 215.77,291.17 216.08,292.43C216.37,293.61 216.66,294.81 216.99,295.84C217.27,296.71 217.5,297.71 217.89,298.22C218.15,298.56 218.52,298.93 218.79,298.87C219.14,298.8 219.44,297.95 219.7,297.3C220.08,296.37 220.33,295.07 220.6,293.71C220.95,291.95 221.23,289.8 221.51,287.59C221.84,284.99 222.11,281.95 222.41,279.08C222.72,276.14 223.02,273.15 223.32,270.17C223.62,267.18 223.92,264.16 224.22,261.18C224.52,258.23 224.82,255.27 225.12,252.36C225.42,249.51 225.72,246.67 226.03,243.88C226.33,241.17 226.62,238.49 226.93,235.86C227.23,233.33 227.53,230.83 227.84,228.39C228.14,226.06 228.43,223.76 228.74,221.54C229.03,219.43 229.33,217.36 229.64,215.36C229.93,213.48 230.24,211.64 230.55,209.88C230.84,208.23 231.14,206.63 231.45,205.11C231.74,203.7 232.04,202.33 232.36,201.04C232.65,199.85 232.94,198.71 233.26,197.64C233.55,196.67 233.84,195.74 234.16,194.88C234.45,194.11 234.75,193.38 235.07,192.71C235.36,192.12 235.65,191.55 235.97,191.07C236.26,190.64 236.55,190.24 236.88,189.93C237.16,189.66 237.46,189.42 237.78,189.3C238.07,189.19 238.38,189.13 238.68,189.17C238.99,189.21 239.31,189.37 239.59,189.57C239.91,189.8 240.21,190.14 240.49,190.5C240.81,190.91 241.11,191.41 241.4,191.92C241.72,192.49 242.01,193.13 242.3,193.78C242.61,194.49 242.91,195.26 243.21,196.03C243.52,196.84 243.81,197.7 244.11,198.53C244.41,199.37 244.67,200.33 245.01,201.04C245.29,201.62 245.59,202.11 245.92,202.53C246.2,202.89 246.5,203.2 246.82,203.46C247.11,203.7 247.41,203.98 247.73,204.07C248.02,204.15 248.35,204.16 248.63,204.04C248.96,203.9 249.26,203.52 249.53,203.14C249.88,202.66 250.16,202 250.44,201.32C250.77,200.5 251.06,199.53 251.34,198.53C251.66,197.39 251.96,196.13 252.25,194.85C252.57,193.46 252.86,191.97 253.15,190.48C253.46,188.92 253.75,187.29 254.05,185.67C254.35,184.01 254.66,182.33 254.96,180.65C255.26,178.97 255.56,177.28 255.86,175.61C256.16,173.97 256.46,172.33 256.77,170.72C257.07,169.15 257.36,167.59 257.67,166.06C257.97,164.58 258.27,163.12 258.58,161.7C258.88,160.33 259.17,158.98 259.48,157.67C259.77,156.41 260.07,155.17 260.38,153.96C260.68,152.8 260.98,151.66 261.29,150.56C261.58,149.51 261.88,148.48 262.19,147.5C262.48,146.58 262.79,145.67 263.1,144.83C263.39,144.05 263.68,143.29 264,142.61C264.29,142 264.58,141.41 264.9,140.91C265.18,140.47 265.48,140.05 265.81,139.73C266.09,139.46 266.39,139.21 266.71,139.09C267,138.98 267.32,138.93 267.62,138.97C267.93,139.01 268.24,139.17 268.52,139.37C268.84,139.6 269.14,139.94 269.42,140.3C269.75,140.72 270.05,141.24 270.33,141.79C270.65,142.41 270.94,143.12 271.23,143.86C271.55,144.69 271.85,145.59 272.14,146.53C272.46,147.56 272.75,148.66 273.04,149.8C273.35,151.02 273.66,152.31 273.95,153.63C274.26,155.03 274.56,156.5 274.85,157.99C275.16,159.55 275.45,161.17 275.75,162.8C276.06,164.49 276.36,166.22 276.66,167.96C276.96,169.73 277.26,171.54 277.56,173.33C277.86,175.13 278.17,176.96 278.47,178.76C278.77,180.53 279.06,182.32 279.37,184.04C279.66,185.7 279.94,187.43 280.27,188.92C280.55,190.19 280.72,191.77 281.18,192.43C281.43,192.79 281.79,193.1 282.08,193.06C282.4,193.02 282.73,192.48 282.99,192C283.38,191.3 283.62,190.17 283.89,189.08C284.23,187.74 284.5,186.14 284.79,184.53C285.11,182.71 285.41,180.72 285.7,178.71C286.01,176.55 286.3,174.27 286.6,171.99C286.91,169.61 287.21,167.17 287.51,164.72C287.81,162.23 288.11,159.7 288.41,157.18C288.71,154.65 289.02,152.11 289.32,149.59C289.62,147.1 289.92,144.6 290.22,142.14C290.52,139.72 290.81,137.32 291.12,134.95C291.42,132.64 291.72,130.36 292.03,128.12C292.33,125.95 292.62,123.82 292.93,121.73C293.23,119.73 293.53,117.76 293.84,115.84C294.13,114.01 294.43,112.22 294.74,110.49C295.03,108.86 295.33,107.26 295.64,105.73C295.93,104.3 296.24,102.9 296.55,101.58C296.84,100.36 297.13,99.17 297.45,98.06C297.74,97.05 298.04,96.07 298.36,95.17C298.65,94.36 298.94,93.59 299.26,92.89C299.54,92.27 299.84,91.7 300.16,91.19C300.45,90.74 300.75,90.34 301.07,89.97C301.36,89.64 301.66,89.33 301.97,89.07C302.26,88.83 302.57,88.63 302.88,88.46C303.17,88.3 303.48,88.2 303.78,88.09C304.08,87.98 304.38,87.86 304.68,87.79C304.98,87.72 305.29,87.63 305.59,87.65C305.89,87.67 306.2,87.75 306.49,87.9C306.81,88.07 307.12,88.35 307.4,88.66C307.72,89.01 308.01,89.46 308.3,89.92C308.62,90.44 308.92,91.04 309.21,91.66C309.53,92.33 309.82,93.07 310.11,93.82C310.42,94.62 310.71,95.46 311.01,96.32C311.32,97.21 311.62,98.14 311.92,99.07C312.23,100.02 312.52,101 312.82,101.98C313.12,102.96 313.43,103.96 313.73,104.95C314.03,105.94 314.33,106.93 314.63,107.92C314.93,108.9 315.23,109.88 315.53,110.86C315.83,111.83 316.14,112.79 316.44,113.75C316.74,114.71 317.04,115.66 317.34,116.62C317.64,117.57 317.95,118.52 318.25,119.48C318.55,120.44 318.85,121.4 319.15,122.36C319.45,123.33 319.75,124.3 320.05,125.28C320.35,126.27 320.66,127.27 320.96,128.28C321.26,129.3 321.56,130.33 321.86,131.38C322.17,132.45 322.47,133.53 322.77,134.63C323.08,135.76 323.37,136.9 323.67,138.06C323.98,139.26 324.28,140.47 324.58,141.71C324.89,142.99 325.18,144.3 325.48,145.63C325.79,147 326.08,148.4 326.38,149.83C326.69,151.31 326.99,152.81 327.29,154.34C327.6,155.92 327.89,157.53 328.19,159.16C328.5,160.84 328.8,162.56 329.1,164.29C329.41,166.07 329.7,167.88 330,169.71C330.3,171.58 330.6,173.49 330.9,175.4C331.2,177.34 331.51,179.31 331.81,181.28C332.11,183.26 332.41,185.27 332.71,187.26C333.01,189.24 333.32,191.21 333.62,193.17C333.92,195.11 334.22,197.03 334.52,198.96C334.82,200.89 335.12,202.82 335.42,204.76C335.72,206.73 336.03,208.7 336.33,210.69C336.63,212.71 336.93,214.74 337.23,216.78C337.53,218.84 337.84,220.93 338.14,223.01C338.44,225.11 338.74,227.23 339.04,229.33C339.34,231.43 339.65,233.53 339.95,235.62C340.25,237.7 340.55,239.77 340.85,241.84C341.15,243.9 341.45,245.96 341.75,248.01C342.05,250.04 342.35,252.07 342.66,254.06C342.96,256.01 343.25,257.95 343.56,259.84C343.86,261.66 344.16,263.46 344.47,265.21C344.76,266.87 345.06,268.5 345.37,270.08C345.66,271.58 345.96,273.04 346.27,274.46C346.56,275.8 346.87,277.12 347.18,278.38C347.47,279.56 347.76,280.72 348.08,281.8C348.37,282.78 348.67,283.74 348.99,284.59C349.27,285.34 349.56,286.05 349.89,286.66C350.17,287.18 350.44,287.76 350.79,288.03C351.06,288.24 351.39,288.3 351.7,288.34C352,288.38 352.3,288.33 352.6,288.29C352.9,288.25 353.21,288.17 353.51,288.07C353.81,287.97 354.12,287.85 354.41,287.69C354.72,287.52 355.02,287.28 355.32,287.05C355.63,286.81 355.92,286.53 356.22,286.25C356.52,285.97 356.82,285.67 357.12,285.38C357.42,285.08 357.73,284.78 358.03,284.47C358.33,284.15 358.63,283.83 358.93,283.5C359.23,283.17 359.54,282.83 359.84,282.48C360.14,282.12 360.46,281.81 360.74,281.38C361.07,280.87 361.35,280.22 361.64,279.58C361.96,278.88 362.25,278.08 362.55,277.33C362.85,276.57 363.15,275.8 363.45,275.03C363.75,274.26 364.06,273.48 364.36,272.7C364.66,271.92 364.96,271.14 365.26,270.35C365.56,269.56 365.86,268.77 366.16,267.96C366.47,267.12 366.77,266.26 367.07,265.38C367.38,264.47 367.67,263.52 367.97,262.59C368.27,261.65 368.58,260.7 368.88,259.75C369.18,258.8 369.48,257.85 369.78,256.9C370.08,255.95 370.38,255.01 370.68,254.07C370.98,253.14 371.29,252.21 371.59,251.29C371.89,250.38 372.19,249.47 372.49,248.58C372.79,247.7 373.1,246.84 373.4,245.98C373.7,245.14 373.99,244.31 374.3,243.5C374.6,242.71 374.9,241.93 375.21,241.16C375.51,240.42 375.81,239.69 376.11,238.97C376.41,238.28 376.7,237.6 377.01,236.93C377.31,236.28 377.61,235.64 377.92,235.01C378.22,234.39 378.52,233.79 378.82,233.19C379.12,232.59 379.43,231.99 379.73,231.41C380.03,230.84 380.32,230.27 380.63,229.72C380.92,229.19 381.22,228.67 381.53,228.19C381.82,227.74 382.13,227.3 382.44,226.9C382.73,226.53 383.02,226.18 383.34,225.88C383.63,225.61 383.94,225.36 384.25,225.17C384.54,225 384.84,224.85 385.15,224.78C385.44,224.71 385.75,224.7 386.05,224.75C386.36,224.8 386.67,224.92 386.96,225.08C387.28,225.26 387.57,225.51 387.86,225.79C388.18,226.1 388.48,226.47 388.77,226.87C389.09,227.31 389.38,227.81 389.67,228.32C389.98,228.88 390.29,229.48 390.58,230.1C390.89,230.76 391.19,231.46 391.48,232.18C391.79,232.93 392.08,233.72 392.38,234.52C392.69,235.35 392.99,236.21 393.29,237.09C393.6,238.01 393.89,238.96 394.19,239.93C394.5,240.94 394.8,241.97 395.1,243.03C395.41,244.13 395.7,245.25 396,246.39C396.31,247.57 396.6,248.77 396.9,249.99C397.21,251.24 397.51,252.51 397.81,253.79C398.11,255.09 398.41,256.41 398.71,257.74C399.01,259.08 399.32,260.44 399.62,261.79C399.92,263.14 400.22,264.49 400.52,265.83C400.82,267.15 401.11,268.47 401.42,269.75C401.72,270.97 402.01,272.2 402.33,273.33C402.62,274.37 402.9,275.4 403.23,276.3C403.51,277.09 403.81,277.83 404.14,278.46C404.42,278.99 404.71,279.46 405.04,279.85C405.32,280.18 405.63,280.45 405.95,280.67C406.24,280.87 406.54,281.02 406.85,281.13C407.14,281.24 407.45,281.3 407.75,281.34C408.05,281.38 408.36,281.39 408.66,281.38C408.96,281.37 409.26,281.34 409.56,281.28C409.87,281.22 410.17,281.14 410.47,281.02C410.78,280.9 411.08,280.73 411.37,280.54C411.68,280.33 411.97,280.06 412.27,279.8C412.58,279.53 412.87,279.23 413.18,278.96C413.48,278.69 413.77,278.43 414.08,278.19C414.38,277.96 414.68,277.74 414.99,277.55C415.29,277.37 415.59,277.2 415.89,277.06C416.19,276.92 416.49,276.81 416.79,276.71C417.09,276.61 417.4,276.53 417.7,276.45C418,276.37 418.3,276.32 418.6,276.25C418.9,276.18 419.21,276.12 419.51,276.05C419.81,275.98 420.11,275.91 420.41,275.85C420.71,275.79 421.02,275.72 421.32,275.68C421.62,275.64 421.92,275.6 422.22,275.6C422.52,275.6 422.82,275.62 423.12,275.67C423.43,275.72 423.73,275.8 424.03,275.92C424.34,276.04 424.64,276.21 424.93,276.4C425.24,276.6 425.55,276.84 425.84,277.11C426.15,277.4 426.45,277.72 426.74,278.07C427.05,278.44 427.35,278.85 427.64,279.28C427.95,279.74 428.26,280.22 428.55,280.73C428.86,281.26 429.15,281.83 429.45,282.4C429.76,283 430.06,283.62 430.36,284.25C430.67,284.9 430.96,285.57 431.26,286.25C431.56,286.94 431.86,287.65 432.16,288.35C432.46,289.06 432.77,289.77 433.07,290.48C433.37,291.18 433.66,291.9 433.97,292.59C434.27,293.27 434.57,293.94 434.88,294.59C435.18,295.22 435.47,295.85 435.78,296.44C436.07,297 436.37,297.56 436.68,298.07C436.97,298.55 437.26,299.03 437.59,299.41C437.87,299.74 438.16,300.12 438.49,300.24C438.77,300.34 439.12,300.32 439.4,300.2C439.73,300.05 440,299.62 440.3,299.3C440.61,298.97 440.9,298.6 441.21,298.26C441.51,297.93 441.8,297.61 442.11,297.31C442.41,297.02 442.7,296.74 443.01,296.48C443.31,296.23 443.61,295.99 443.92,295.76C444.22,295.54 444.52,295.34 444.82,295.14C445.12,294.95 445.43,294.77 445.73,294.59C446.03,294.41 446.33,294.25 446.63,294.08C446.93,293.92 447.23,293.76 447.53,293.6C447.83,293.44 448.14,293.28 448.44,293.12C448.74,292.96 449.04,292.8 449.34,292.64C449.64,292.48 449.95,292.32 450.25,292.16C450.55,292.01 450.85,291.85 451.15,291.71C451.45,291.57 451.75,291.43 452.05,291.31C452.35,291.19 452.65,291.08 452.96,291C453.26,290.92 453.56,290.85 453.86,290.81C454.16,290.77 454.47,290.75 454.77,290.75C455.07,290.75 455.37,290.78 455.67,290.83C455.97,290.88 456.28,290.95 456.58,291.04C456.88,291.13 457.18,291.25 457.48,291.37C457.78,291.49 458.08,291.63 458.38,291.78C458.68,291.93 458.99,292.09 459.29,292.25C459.59,292.41 459.89,292.57 460.19,292.72C460.49,292.87 460.79,293.01 461.1,293.13Q461.4,293.25 462,293.44" style="vector-effect: non-scaling-stroke; fill: none; stroke: rgb(231, 107, 243); stroke-opacity: 1; stroke-width: 2px; opacity: 1;"/></g><g class="points"/><g class="text"/></g></g></g><g class="overplot"/><path class="xlines-above crisp" d="M0,0" style="fill: none;"/><path class="ylines-above crisp" d="M0,0" style="fill: none;"/><g class="overlines-above"/><g class="xaxislayer-above"><g class="xtick"><text text-anchor="middle" x="0" y="433" transform="translate(80,0)" style="font-family: 'Open Sans', verdana, arial, sans-serif; font-size: 12px; fill: rgb(42, 63, 95); fill-opacity: 1; white-space: pre;">0</text></g><g class="xtick"><text text-anchor="middle" x="0" y="433" transform="translate(170.23000000000002,0)" style="font-family: 'Open Sans', verdana, arial, sans-serif; font-size: 12px; fill: rgb(42, 63, 95); fill-opacity: 1; white-space: pre;">100</text></g><g class="xtick"><text text-anchor="middle" x="0" y="433" transform="translate(260.47,0)" style="font-family: 'Open Sans', verdana, arial, sans-serif; font-size: 12px; fill: rgb(42, 63, 95); fill-opacity: 1; white-space: pre;">200</text></g><g class="xtick"><text text-anchor="middle" x="0" y="433" transform="translate(350.7,0)" style="font-family: 'Open Sans', verdana, arial, sans-serif; font-size: 12px; fill: rgb(42, 63, 95); fill-opacity: 1; white-space: pre;">300</text></g><g class="xtick"><text text-anchor="middle" x="0" y="433" transform="translate(440.94,0)" style="font-family: 'Open Sans', verdana, arial, sans-serif; font-size: 12px; fill: rgb(42, 63, 95); fill-opacity: 1; white-space: pre;">400</text></g><g class="xtick"><text text-anchor="middle" x="0" y="433" transform="translate(531.1700000000001,0)" style="font-family: 'Open Sans', verdana, arial, sans-serif; font-size: 12px; fill: rgb(42, 63, 95); fill-opacity: 1; white-space: pre;">500</text></g></g><g class="yaxislayer-above"><g class="ytick"><text text-anchor="end" x="79" y="4.199999999999999" transform="translate(0,392.8)" style="font-family: 'Open Sans', verdana, arial, sans-serif; font-size: 12px; fill: rgb(42, 63, 95); fill-opacity: 1; white-space: pre;">500</text></g><g class="ytick"><text text-anchor="end" x="79" y="4.199999999999999" transform="translate(0,325.28)" style="font-family: 'Open Sans', verdana, arial, sans-serif; font-size: 12px; fill: rgb(42, 63, 95); fill-opacity: 1; white-space: pre;">1000</text></g><g class="ytick"><text text-anchor="end" x="79" y="4.199999999999999" transform="translate(0,257.76)" style="font-family: 'Open Sans', verdana, arial, sans-serif; font-size: 12px; fill: rgb(42, 63, 95); fill-opacity: 1; white-space: pre;">1500</text></g><g class="ytick"><text text-anchor="end" x="79" y="4.199999999999999" transform="translate(0,190.24)" style="font-family: 'Open Sans', verdana, arial, sans-serif; font-size: 12px; fill: rgb(42, 63, 95); fill-opacity: 1; white-space: pre;">2000</text></g><g class="ytick"><text text-anchor="end" x="79" y="4.199999999999999" transform="translate(0,122.71000000000001)" style="font-family: 'Open Sans', verdana, arial, sans-serif; font-size: 12px; fill: rgb(42, 63, 95); fill-opacity: 1; white-space: pre;">2500</text></g></g><g class="overaxes-above"/></g></g><g class="polarlayer"/><g class="ternarylayer"/><g class="geolayer"/><g class="funnelarealayer"/><g class="pielayer"/><g class="treemaplayer"/><g class="sunburstlayer"/><g class="glimages"/><defs id="topdefs-cbe754"><g class="clips"/><clipPath id="legendcbe754"><rect width="137" height="67" x="0" y="0"/></clipPath></defs><g class="layer-above"><g class="imagelayer"/><g class="shapelayer"/></g><g class="infolayer"><g class="legend" pointer-events="all" transform="translate(551.24, 100)"><rect class="bg" shape-rendering="crispEdges" width="137" height="67" x="0" y="0" style="stroke: rgb(68, 68, 68); stroke-opacity: 1; fill: rgb(255, 255, 255); fill-opacity: 1; stroke-width: 0px;"/><g class="scrollbox" transform="translate(0, 0)" clip-path="url('#legendcbe754')"><g class="groups"><g class="traces" transform="translate(0, 14.5)" style="opacity: 1;"><text class="legendtext" text-anchor="start" x="40" y="4.680000000000001" style="font-family: 'Open Sans', verdana, arial, sans-serif; font-size: 12px; fill: rgb(42, 63, 95); fill-opacity: 1; white-space: pre;">Average Class I</text><g class="layers" style="opacity: 1;"><g class="legendfill"/><g class="legendlines"><path class="js-line" d="M5,0h30" style="fill: none; stroke: rgb(0, 100, 80); stroke-opacity: 1; stroke-width: 2px;"/></g><g class="legendsymbols"><g class="legendpoints"/></g></g><rect class="legendtoggle" x="0" y="-9.5" width="131.15625" height="19" style="fill: rgb(0, 0, 0); fill-opacity: 0;"/></g><g class="traces" transform="translate(0, 33.5)" style="opacity: 1;"><text class="legendtext" text-anchor="start" x="40" y="4.680000000000001" style="font-family: 'Open Sans', verdana, arial, sans-serif; font-size: 12px; fill: rgb(42, 63, 95); fill-opacity: 1; white-space: pre;">Average Class II</text><g class="layers" style="opacity: 1;"><g class="legendfill"/><g class="legendlines"><path class="js-line" d="M5,0h30" style="fill: none; stroke: rgb(0, 176, 246); stroke-opacity: 1; stroke-width: 2px;"/></g><g class="legendsymbols"><g class="legendpoints"/></g></g><rect class="legendtoggle" x="0" y="-9.5" width="131.15625" height="19" style="fill: rgb(0, 0, 0); fill-opacity: 0;"/></g><g class="traces" transform="translate(0, 52.5)" style="opacity: 1;"><text class="legendtext" text-anchor="start" x="40" y="4.680000000000001" style="font-family: 'Open Sans', verdana, arial, sans-serif; font-size: 12px; fill: rgb(42, 63, 95); fill-opacity: 1; white-space: pre;">Average Class III</text><g class="layers" style="opacity: 1;"><g class="legendfill"/><g class="legendlines"><path class="js-line" d="M5,0h30" style="fill: none; stroke: rgb(231, 107, 243); stroke-opacity: 1; stroke-width: 2px;"/></g><g class="legendsymbols"><g class="legendpoints"/></g></g><rect class="legendtoggle" x="0" y="-9.5" width="131.15625" height="19" style="fill: rgb(0, 0, 0); fill-opacity: 0;"/></g></g></g><rect class="scrollbar" rx="20" ry="3" width="0" height="0" x="0" y="0" style="fill: rgb(128, 139, 164); fill-opacity: 1;"/></g><g class="g-gtitle"><text class="gtitle" x="35" y="50" text-anchor="start" dy="0em" style="font-family: 'Open Sans', verdana, arial, sans-serif; font-size: 17px; fill: rgb(42, 63, 95); opacity: 1; font-weight: normal; white-space: pre;">Average curve: hydropathy_group</text></g><g class="g-xtitle"><text class="xtitle" x="311" y="460.8" text-anchor="middle" style="font-family: 'Open Sans', verdana, arial, sans-serif; font-size: 14px; fill: rgb(42, 63, 95); opacity: 1; font-weight: normal; white-space: pre;">Domain</text></g><g class="g-ytitle"><text class="ytitle" transform="rotate(-90,27.496875000000003,260)" x="27.496875000000003" y="260" text-anchor="middle" style="font-family: 'Open Sans', verdana, arial, sans-serif; font-size: 14px; fill: rgb(42, 63, 95); opacity: 1; font-weight: normal; white-space: pre;">Frequency</text></g></g></svg>