<svg class="main-svg" xmlns="http://www.w3.org/2000/svg" xmlns:xlink="http://www.w3.org/1999/xlink" width="700" height="500" style="" viewBox="0 0 700 500"><rect x="0" y="0" width="700" height="500" style="fill: rgb(255, 255, 255); fill-opacity: 1;"/><defs id="defs-edf2a1"><g class="clips"><clipPath id="clipedf2a1xyplot" class="plotclip"><rect width="462" height="320"/></clipPath><clipPath class="axesclip" id="clipedf2a1x"><rect x="80" y="0" width="462" height="500"/></clipPath><clipPath class="axesclip" id="clipedf2a1y"><rect x="0" y="100" width="700" height="320"/></clipPath><clipPath class="axesclip" id="clipedf2a1xy"><rect x="80" y="100" width="462" height="320"/></clipPath></g><g class="gradients"/></defs><g class="bglayer"><rect class="bg" x="80" y="100" width="462" height="320" style="fill: rgb(229, 236, 246); fill-opacity: 1; stroke-width: 0;"/></g><g class="layer-below"><g class="imagelayer"/><g class="shapelayer"/></g><g class="cartesianlayer"><g class="subplot xy"><g class="layer-subplot"><g class="shapelayer"/><g class="imagelayer"/></g><g class="gridlayer"><g class="x"><path class="xgrid crisp" transform="translate(170.23000000000002,0)" d="M0,100v320" style="stroke: rgb(255, 255, 255); stroke-opacity: 1; stroke-width: 1px;"/><path class="xgrid crisp" transform="translate(260.47,0)" d="M0,100v320" style="stroke: rgb(255, 255, 255); stroke-opacity: 1; stroke-width: 1px;"/><path class="xgrid crisp" transform="translate(350.7,0)" d="M0,100v320" style="stroke: rgb(255, 255, 255); stroke-opacity: 1; stroke-width: 1px;"/><path class="xgrid crisp" transform="translate(440.94,0)" d="M0,100v320" style="stroke: rgb(255, 255, 255); stroke-opacity: 1; stroke-width: 1px;"/><path class="xgrid crisp" transform="translate(531.1700000000001,0)" d="M0,100v320" style="stroke: rgb(255, 255, 255); stroke-opacity: 1; stroke-width: 1px;"/></g><g class="y"><path class="ygrid crisp" transform="translate(0,393.28)" d="M80,0h462" style="stroke: rgb(255, 255, 255); stroke-opacity: 1; stroke-width: 1px;"/><path class="ygrid crisp" transform="translate(0,326.03)" d="M80,0h462" style="stroke: rgb(255, 255, 255); stroke-opacity: 1; stroke-width: 1px;"/><path class="ygrid crisp" transform="translate(0,258.78999999999996)" d="M80,0h462" style="stroke: rgb(255, 255, 255); stroke-opacity: 1; stroke-width: 1px;"/><path class="ygrid crisp" transform="translate(0,191.54000000000002)" d="M80,0h462" style="stroke: rgb(255, 255, 255); stroke-opacity: 1; stroke-width: 1px;"/><path class="ygrid crisp" transform="translate(0,124.28999999999999)" d="M80,0h462" style="stroke: rgb(255, 255, 255); stroke-opacity: 1; stroke-width: 1px;"/></g></g><g class="zerolinelayer"><path class="xzl zl crisp" transform="translate(80,0)" d="M0,100v320" style="stroke: rgb(255, 255, 255); stroke-opacity: 1; stroke-width: 2px;"/></g><path class="xlines-below"/><path class="ylines-below"/><g class="overlines-below"/><g class="xaxislayer-below"/><g class="yaxislayer-below"/><g class="overaxes-below"/><g class="plot" transform="translate(80, 100)" clip-path="url('#clipedf2a1xyplot')"><g class="scatterlayer mlayer"><g class="trace scatter tracea0c825" style="stroke-miterlimit: 2; opacity: 1;"><g class="fills"/><g class="errorbars"/><g class="lines"><path class="js-line" d="M0,68.65Q0.6,68.62 0.9,68.55C1.21,68.48 1.51,68.37 1.81,68.24C2.12,68.11 2.41,67.94 2.71,67.76C3.02,67.58 3.32,67.36 3.62,67.15C3.92,66.93 4.22,66.7 4.52,66.47C4.82,66.24 5.12,66 5.42,65.78C5.72,65.56 6.02,65.34 6.33,65.14C6.63,64.95 6.92,64.75 7.23,64.61C7.53,64.47 7.83,64.35 8.14,64.28C8.44,64.21 8.74,64.16 9.04,64.17C9.34,64.18 9.66,64.26 9.95,64.37C10.26,64.49 10.56,64.67 10.85,64.89C11.17,65.13 11.46,65.46 11.75,65.8C12.07,66.18 12.37,66.63 12.66,67.11C12.98,67.64 13.27,68.23 13.56,68.85C13.88,69.53 14.18,70.28 14.47,71.05C14.78,71.89 15.08,72.77 15.37,73.69C15.68,74.68 15.98,75.72 16.27,76.79C16.58,77.93 16.89,79.12 17.18,80.34C17.49,81.62 17.79,82.95 18.08,84.3C18.39,85.72 18.69,87.18 18.99,88.66C19.3,90.2 19.59,91.77 19.89,93.37C20.19,95.01 20.49,96.69 20.79,98.38C21.1,100.11 21.4,101.86 21.7,103.63C22,105.42 22.3,107.24 22.6,109.06C22.9,110.89 23.21,112.74 23.51,114.58C23.81,116.42 24.11,118.28 24.41,120.12C24.71,121.94 25.02,123.77 25.32,125.57C25.62,127.34 25.92,129.11 26.22,130.84C26.52,132.52 26.81,134.18 27.12,135.8C27.42,137.35 27.72,138.88 28.03,140.34C28.32,141.71 28.61,143.06 28.93,144.33C29.22,145.5 29.52,146.63 29.84,147.68C30.13,148.63 30.42,149.53 30.74,150.36C31.02,151.1 31.32,151.8 31.64,152.43C31.93,153 32.23,153.52 32.55,153.99C32.84,154.42 33.14,154.8 33.45,155.15C33.74,155.48 34.05,155.77 34.36,156.04C34.65,156.29 34.95,156.54 35.26,156.72C35.55,156.89 35.85,157.03 36.16,157.13C36.46,157.23 36.77,157.26 37.07,157.33C37.37,157.4 37.67,157.47 37.97,157.57C38.28,157.68 38.58,157.83 38.88,157.96C39.18,158.09 39.49,158.2 39.78,158.37C40.09,158.56 40.39,158.79 40.68,159.06C41,159.37 41.3,159.75 41.59,160.15C41.91,160.6 42.2,161.1 42.49,161.63C42.81,162.21 43.11,162.86 43.4,163.52C43.71,164.23 44.01,164.99 44.3,165.76C44.61,166.58 44.91,167.44 45.21,168.31C45.52,169.22 45.81,170.16 46.11,171.11C46.41,172.08 46.71,173.08 47.01,174.08C47.31,175.1 47.62,176.15 47.92,177.19C48.22,178.25 48.52,179.32 48.82,180.39C49.12,181.47 49.43,182.56 49.73,183.65C50.03,184.74 50.33,185.82 50.63,186.91C50.93,188 51.23,189.09 51.53,190.18C51.83,191.27 52.14,192.36 52.44,193.46C52.74,194.57 53.04,195.68 53.34,196.8C53.64,197.94 53.95,199.07 54.25,200.23C54.55,201.41 54.85,202.59 55.15,203.8C55.45,205.03 55.75,206.28 56.05,207.55C56.36,208.86 56.66,210.18 56.96,211.53C57.27,212.91 57.56,214.32 57.86,215.74C58.17,217.2 58.47,218.68 58.77,220.17C59.07,221.69 59.37,223.24 59.67,224.79C59.97,226.37 60.28,227.96 60.58,229.56C60.88,231.18 61.18,232.82 61.48,234.46C61.78,236.12 62.08,237.8 62.38,239.48C62.68,241.19 62.99,242.9 63.29,244.63C63.59,246.38 63.89,248.14 64.19,249.9C64.49,251.67 64.8,253.45 65.1,255.23C65.4,257 65.7,258.79 66,260.55C66.3,262.3 66.59,264.05 66.9,265.76C67.2,267.41 67.5,269.07 67.81,270.62C68.1,272.06 68.39,273.47 68.71,274.78C69,275.97 69.29,277.15 69.62,278.17C69.9,279.04 70.17,279.89 70.52,280.53C70.79,281.02 71.07,281.5 71.42,281.74C71.69,281.93 72.03,282.03 72.33,282.01C72.64,281.98 72.95,281.78 73.23,281.57C73.56,281.32 73.86,280.93 74.14,280.53C74.46,280.08 74.75,279.53 75.04,278.98C75.36,278.38 75.66,277.72 75.95,277.05C76.26,276.34 76.56,275.6 76.85,274.84C77.16,274.05 77.45,273.23 77.75,272.41C78.06,271.56 78.36,270.7 78.66,269.82C78.96,268.93 79.26,268.01 79.56,267.1C79.86,266.18 80.17,265.24 80.47,264.31C80.77,263.39 81.07,262.48 81.37,261.57C81.67,260.68 81.97,259.79 82.27,258.91C82.57,258.03 82.87,257.14 83.18,256.29C83.47,255.48 83.77,254.68 84.08,253.94C84.37,253.25 84.67,252.59 84.99,251.98C85.28,251.43 85.57,250.9 85.89,250.45C86.17,250.05 86.47,249.67 86.79,249.38C87.08,249.13 87.38,248.9 87.7,248.78C87.99,248.67 88.3,248.62 88.6,248.65C88.91,248.68 89.22,248.82 89.51,248.99C89.83,249.18 90.12,249.46 90.41,249.76C90.73,250.1 91.03,250.51 91.32,250.94C91.64,251.41 91.93,251.95 92.22,252.5C92.53,253.1 92.82,253.76 93.12,254.41C93.43,255.08 93.73,255.78 94.03,256.48C94.33,257.19 94.63,257.9 94.93,258.64C95.24,259.4 95.54,260.19 95.84,260.97C96.14,261.75 96.44,262.55 96.74,263.32C97.04,264.08 97.33,264.84 97.64,265.57C97.94,266.28 98.24,267.01 98.55,267.67C98.84,268.28 99.14,268.87 99.45,269.42C99.74,269.94 100.04,270.45 100.36,270.91C100.65,271.33 100.94,271.76 101.26,272.07C101.54,272.34 101.84,272.59 102.16,272.73C102.45,272.85 102.77,272.88 103.07,272.89C103.37,272.9 103.67,272.85 103.97,272.8C104.27,272.75 104.58,272.67 104.88,272.57C105.18,272.47 105.49,272.35 105.78,272.21C106.09,272.06 106.38,271.87 106.68,271.68C106.99,271.48 107.29,271.25 107.59,271.03C107.89,270.8 108.19,270.56 108.49,270.33C108.79,270.09 109.1,269.86 109.4,269.62C109.7,269.38 110,269.14 110.3,268.9C110.6,268.66 110.91,268.43 111.21,268.19C111.51,267.95 111.81,267.7 112.11,267.46C112.41,267.22 112.71,266.97 113.01,266.73C113.31,266.48 113.62,266.24 113.92,265.99C114.22,265.74 114.52,265.5 114.82,265.25C115.12,265 115.43,264.75 115.73,264.51C116.03,264.27 116.33,264.04 116.63,263.81C116.93,263.57 117.23,263.34 117.53,263.1C117.83,262.85 118.14,262.59 118.44,262.33C118.74,262.06 119.04,261.78 119.34,261.5C119.64,261.22 119.95,260.94 120.25,260.67C120.55,260.4 120.85,260.13 121.15,259.87C121.45,259.61 121.75,259.36 122.05,259.12C122.35,258.88 122.66,258.64 122.96,258.41C123.26,258.18 123.56,257.95 123.86,257.73C124.16,257.5 124.47,257.28 124.77,257.06C125.07,256.84 125.37,256.62 125.67,256.4C125.97,256.18 126.28,255.95 126.58,255.72C126.88,255.49 127.18,255.25 127.48,255C127.78,254.75 128.08,254.49 128.38,254.22C128.69,253.94 128.99,253.63 129.29,253.33C129.59,253.02 129.89,252.7 130.19,252.38C130.49,252.05 130.8,251.73 131.1,251.38C131.41,251.02 131.71,250.66 132,250.27C132.31,249.87 132.59,249.41 132.9,249C133.2,248.6 133.5,248.21 133.81,247.84C134.11,247.48 134.4,247.12 134.71,246.8C135.01,246.49 135.31,246.2 135.62,245.93C135.91,245.67 136.22,245.44 136.52,245.22C136.82,245 137.11,244.79 137.42,244.6C137.72,244.41 138.02,244.24 138.33,244.09C138.63,243.95 138.93,243.83 139.23,243.73C139.53,243.64 139.84,243.55 140.14,243.52C140.44,243.49 140.74,243.49 141.04,243.54C141.35,243.59 141.66,243.7 141.95,243.85C142.26,244.01 142.56,244.24 142.85,244.5C143.17,244.78 143.46,245.13 143.75,245.5C144.07,245.91 144.37,246.38 144.66,246.87C144.98,247.4 145.27,247.98 145.56,248.59C145.87,249.24 146.18,249.94 146.47,250.66C146.78,251.43 147.08,252.25 147.37,253.08C147.68,253.96 147.97,254.88 148.27,255.81C148.58,256.79 148.88,257.79 149.18,258.82C149.49,259.88 149.78,260.98 150.08,262.08C150.39,263.21 150.69,264.37 150.99,265.53C151.29,266.71 151.59,267.91 151.89,269.1C152.19,270.29 152.49,271.51 152.79,272.69C153.09,273.85 153.39,275.02 153.7,276.15C154,277.23 154.29,278.3 154.6,279.31C154.89,280.25 155.19,281.18 155.51,282.02C155.8,282.78 156.07,283.54 156.41,284.15C156.69,284.66 156.98,285.16 157.32,285.47C157.59,285.71 157.91,285.88 158.22,285.95C158.51,286.02 158.83,286 159.12,285.91C159.43,285.82 159.74,285.59 160.03,285.37C160.34,285.14 160.64,284.84 160.93,284.54C161.24,284.22 161.54,283.86 161.84,283.5C162.15,283.13 162.44,282.74 162.74,282.36C163.04,281.98 163.34,281.59 163.64,281.21C163.94,280.83 164.25,280.46 164.55,280.09C164.85,279.72 165.15,279.36 165.45,278.99C165.75,278.62 166.06,278.25 166.36,277.89C166.66,277.53 166.96,277.18 167.26,276.82C167.56,276.46 167.86,276.09 168.16,275.74C168.46,275.39 168.76,275.04 169.07,274.7C169.37,274.37 169.67,274.06 169.97,273.75C170.27,273.44 170.58,273.14 170.88,272.83C171.18,272.52 171.48,272.2 171.78,271.88C172.08,271.55 172.39,271.22 172.68,270.86C172.99,270.48 173.29,270.08 173.59,269.67C173.9,269.25 174.2,268.81 174.49,268.36C174.8,267.88 175.12,267.42 175.4,266.87C175.73,266.24 176.01,265.5 176.3,264.76C176.62,263.95 176.91,263.06 177.21,262.18C177.52,261.27 177.82,260.34 178.11,259.39C178.42,258.39 178.71,257.37 179.01,256.32C179.32,255.23 179.62,254.11 179.92,252.99C180.23,251.84 180.52,250.67 180.82,249.49C181.12,248.29 181.43,247.08 181.73,245.87C182.03,244.64 182.33,243.41 182.63,242.17C182.93,240.92 183.23,239.66 183.53,238.39C183.83,237.12 184.14,235.84 184.44,234.55C184.74,233.26 185.04,231.95 185.34,230.65C185.64,229.34 185.95,228.03 186.25,226.71C186.55,225.39 186.85,224.07 187.15,222.73C187.45,221.38 187.75,220.03 188.05,218.64C188.36,217.21 188.66,215.73 188.96,214.27C189.26,212.79 189.56,211.28 189.86,209.81C190.16,208.36 190.46,206.9 190.77,205.49C191.07,204.12 191.36,202.77 191.67,201.46C191.97,200.21 192.27,198.98 192.58,197.8C192.87,196.7 193.17,195.62 193.48,194.6C193.77,193.66 194.06,192.75 194.38,191.92C194.67,191.17 194.96,190.45 195.29,189.83C195.57,189.29 195.86,188.77 196.19,188.38C196.47,188.06 196.77,187.74 197.1,187.61C197.38,187.5 197.72,187.48 198,187.57C198.32,187.67 198.62,187.98 198.9,188.29C199.24,188.68 199.53,189.22 199.81,189.78C200.14,190.45 200.43,191.24 200.71,192.06C201.03,193 201.33,194.04 201.62,195.12C201.94,196.33 202.23,197.63 202.52,198.97C202.83,200.43 203.13,201.97 203.42,203.56C203.73,205.26 204.04,207.05 204.33,208.87C204.64,210.8 204.93,212.8 205.23,214.84C205.54,216.97 205.84,219.16 206.14,221.38C206.45,223.68 206.74,226.04 207.04,228.41C207.35,230.83 207.65,233.31 207.95,235.76C208.25,238.21 208.55,240.65 208.85,243.12C209.15,245.62 209.45,248.14 209.75,250.66C210.05,253.2 210.36,255.75 210.66,258.29C210.96,260.83 211.26,263.37 211.56,265.9C211.86,268.42 212.17,270.96 212.47,273.46C212.77,275.93 213.06,278.42 213.37,280.83C213.66,283.16 213.95,285.51 214.27,287.69C214.56,289.67 214.86,291.6 215.18,293.36C215.46,294.9 215.74,296.41 216.08,297.68C216.36,298.71 216.6,299.78 216.99,300.43C217.25,300.86 217.6,301.39 217.89,301.37C218.2,301.35 218.53,300.72 218.79,300.2C219.19,299.4 219.42,298.1 219.7,296.88C220.04,295.41 220.32,293.74 220.6,291.97C220.93,289.9 221.21,287.5 221.51,285.2C221.82,282.83 222.11,280.39 222.41,277.96C222.71,275.5 223.02,273.02 223.32,270.55C223.62,268.07 223.92,265.58 224.22,263.1C224.52,260.63 224.82,258.17 225.12,255.72C225.42,253.3 225.73,250.89 226.03,248.5C226.33,246.15 226.62,243.81 226.93,241.51C227.23,239.26 227.53,237.02 227.84,234.82C228.14,232.67 228.44,230.55 228.74,228.43C229.04,226.32 229.34,224.24 229.64,222.13C229.94,220 230.25,217.85 230.55,215.7C230.85,213.55 231.15,211.4 231.45,209.25C231.75,207.09 232.06,204.93 232.36,202.76C232.66,200.57 232.96,198.36 233.26,196.15C233.56,193.92 233.86,191.67 234.16,189.42C234.46,187.16 234.77,184.88 235.07,182.62C235.37,180.36 235.67,178.1 235.97,175.85C236.27,173.62 236.58,171.39 236.88,169.18C237.18,166.99 237.48,164.8 237.78,162.63C238.08,160.48 238.38,158.35 238.68,156.23C238.98,154.13 239.29,152.04 239.59,149.97C239.89,147.92 240.19,145.89 240.49,143.87C240.79,141.87 241.1,139.88 241.4,137.91C241.7,135.96 242,134.02 242.3,132.09C242.6,130.19 242.91,128.3 243.21,126.44C243.51,124.61 243.81,122.8 244.11,121.01C244.41,119.26 244.71,117.52 245.01,115.81C245.31,114.13 245.62,112.48 245.92,110.83C246.22,109.21 246.52,107.61 246.82,106C247.12,104.4 247.43,102.82 247.73,101.22C248.03,99.61 248.33,98 248.63,96.37C248.93,94.7 249.23,93.02 249.53,91.31C249.84,89.55 250.14,87.78 250.44,85.97C250.75,84.11 251.04,82.21 251.34,80.3C251.65,78.35 251.95,76.36 252.25,74.37C252.55,72.35 252.85,70.3 253.15,68.26C253.45,66.22 253.75,64.17 254.05,62.14C254.35,60.13 254.65,58.12 254.96,56.15C255.26,54.22 255.55,52.3 255.86,50.44C256.16,48.65 256.46,46.88 256.77,45.18C257.06,43.57 257.36,41.99 257.67,40.5C257.96,39.12 258.26,37.77 258.58,36.52C258.87,35.4 259.15,34.3 259.48,33.34C259.76,32.51 260.04,31.7 260.38,31.06C260.66,30.54 260.94,30.01 261.29,29.75C261.56,29.55 261.9,29.4 262.19,29.46C262.51,29.52 262.83,29.88 263.1,30.22C263.46,30.67 263.72,31.36 264,32.05C264.34,32.89 264.62,33.9 264.9,34.95C265.23,36.16 265.52,37.5 265.81,38.9C266.13,40.46 266.42,42.13 266.71,43.86C267.03,45.74 267.33,47.74 267.62,49.78C267.93,51.97 268.23,54.26 268.52,56.59C268.83,59.06 269.12,61.61 269.42,64.21C269.73,66.93 270.03,69.72 270.33,72.55C270.64,75.48 270.93,78.47 271.23,81.49C271.54,84.59 271.84,87.75 272.14,90.93C272.44,94.17 272.74,97.46 273.04,100.76C273.34,104.1 273.65,107.48 273.95,110.86C274.25,114.27 274.55,117.7 274.85,121.13C275.15,124.56 275.45,128.02 275.75,131.44C276.05,134.83 276.35,138.27 276.66,141.55C276.95,144.67 277.25,147.67 277.56,150.66C277.86,153.55 278.16,156.39 278.47,159.18C278.77,161.88 279.06,164.55 279.37,167.16C279.66,169.67 279.96,172.15 280.27,174.56C280.56,176.85 280.87,179.12 281.18,181.27C281.47,183.28 281.76,185.28 282.08,187.08C282.36,188.67 282.66,190.16 282.99,191.53C283.27,192.72 283.55,193.87 283.89,194.83C284.16,195.6 284.42,196.39 284.79,196.87C285.06,197.22 285.39,197.55 285.7,197.59C285.99,197.62 286.33,197.4 286.6,197.17C286.94,196.89 287.22,196.38 287.51,195.92C287.83,195.4 288.11,194.79 288.41,194.21C288.72,193.61 289.01,192.98 289.32,192.39C289.62,191.83 289.9,191.25 290.22,190.75C290.51,190.29 290.79,189.84 291.12,189.49C291.4,189.19 291.71,188.9 292.03,188.76C292.31,188.64 292.64,188.58 292.93,188.64C293.24,188.7 293.56,188.92 293.84,189.16C294.17,189.45 294.46,189.88 294.74,190.32C295.07,190.83 295.35,191.44 295.64,192.07C295.96,192.77 296.26,193.55 296.55,194.34C296.86,195.19 297.15,196.1 297.45,197C297.75,197.91 298.05,198.87 298.36,199.76C298.65,200.61 298.96,201.43 299.26,202.24C299.56,203.03 299.85,203.83 300.16,204.57C300.45,205.26 300.74,205.95 301.07,206.53C301.35,207.03 301.64,207.5 301.97,207.85C302.25,208.15 302.56,208.46 302.88,208.54C303.17,208.61 303.51,208.55 303.78,208.39C304.12,208.2 304.41,207.76 304.68,207.31C305.03,206.73 305.31,205.9 305.59,205.11C305.91,204.21 306.2,203.2 306.49,202.17C306.8,201.06 307.11,199.89 307.4,198.67C307.72,197.33 308,195.89 308.3,194.46C308.61,192.96 308.91,191.4 309.21,189.87C309.51,188.33 309.8,186.75 310.11,185.24C310.4,183.79 310.7,182.35 311.01,180.97C311.3,179.66 311.61,178.39 311.92,177.17C312.21,176.03 312.5,174.92 312.82,173.87C313.11,172.9 313.41,171.97 313.73,171.11C314.02,170.33 314.31,169.58 314.63,168.9C314.91,168.29 315.2,167.71 315.53,167.22C315.81,166.79 316.11,166.39 316.44,166.09C316.72,165.83 317.02,165.6 317.34,165.49C317.63,165.39 317.95,165.35 318.25,165.4C318.56,165.45 318.87,165.63 319.15,165.83C319.47,166.06 319.77,166.4 320.05,166.76C320.37,167.17 320.67,167.67 320.96,168.19C321.28,168.78 321.57,169.43 321.86,170.12C322.18,170.88 322.48,171.7 322.77,172.55C323.09,173.47 323.38,174.46 323.67,175.47C323.98,176.56 324.29,177.7 324.58,178.88C324.89,180.13 325.19,181.42 325.48,182.75C325.79,184.15 326.08,185.6 326.38,187.07C326.69,188.61 326.99,190.2 327.29,191.81C327.6,193.48 327.89,195.18 328.19,196.9C328.5,198.67 328.8,200.48 329.1,202.3C329.4,204.16 329.7,206.05 330,207.93C330.3,209.83 330.59,211.77 330.9,213.65C331.2,215.49 331.5,217.32 331.81,219.1C332.11,220.8 332.4,222.48 332.71,224.1C333.01,225.65 333.31,227.17 333.62,228.64C333.91,230.03 334.21,231.41 334.52,232.7C334.81,233.89 335.11,235.02 335.42,236.1C335.71,237.1 336.02,238.04 336.33,238.96C336.62,239.83 336.92,240.67 337.23,241.5C337.53,242.3 337.84,243.08 338.14,243.86C338.44,244.62 338.74,245.38 339.04,246.13C339.34,246.87 339.65,247.61 339.95,248.35C340.25,249.1 340.55,249.85 340.85,250.62C341.15,251.41 341.45,252.22 341.75,253.05C342.06,253.92 342.36,254.81 342.66,255.73C342.97,256.69 343.26,257.67 343.56,258.67C343.87,259.71 344.17,260.79 344.47,261.88C344.78,263.01 345.07,264.16 345.37,265.33C345.67,266.53 345.96,267.79 346.27,268.97C346.57,270.1 346.88,271.19 347.18,272.29C347.48,273.38 347.78,274.46 348.08,275.54C348.38,276.63 348.69,277.72 348.99,278.8C349.29,279.87 349.59,280.94 349.89,282.01C350.19,283.07 350.49,284.12 350.79,285.17C351.09,286.21 351.39,287.27 351.7,288.28C352,289.25 352.29,290.2 352.6,291.12C352.9,292.01 353.2,292.87 353.51,293.73C353.81,294.56 354.1,295.39 354.41,296.19C354.71,296.96 355.01,297.73 355.32,298.46C355.61,299.15 355.91,299.83 356.22,300.46C356.51,301.05 356.8,301.63 357.12,302.14C357.41,302.6 357.7,303.06 358.03,303.38C358.31,303.65 358.61,303.92 358.93,304C359.22,304.08 359.56,304.04 359.84,303.92C360.17,303.78 360.47,303.46 360.74,303.12C361.08,302.7 361.36,302.13 361.64,301.54C361.97,300.85 362.27,300.07 362.55,299.23C362.88,298.28 363.16,297.2 363.45,296.11C363.77,294.92 364.07,293.64 364.36,292.35C364.67,290.98 364.96,289.55 365.26,288.11C365.57,286.62 365.86,285.09 366.16,283.56C366.46,282 366.77,280.42 367.07,278.84C367.37,277.25 367.67,275.64 367.97,274.05C368.27,272.47 368.58,270.88 368.88,269.31C369.18,267.77 369.48,266.23 369.78,264.72C370.08,263.24 370.37,261.78 370.68,260.35C370.98,258.96 371.28,257.6 371.59,256.26C371.89,254.97 372.18,253.7 372.49,252.46C372.79,251.25 373.09,250.07 373.4,248.9C373.7,247.77 373.99,246.64 374.3,245.56C374.59,244.53 374.9,243.51 375.21,242.55C375.5,241.65 375.79,240.78 376.11,239.97C376.4,239.23 376.69,238.52 377.01,237.88C377.3,237.31 377.6,236.76 377.92,236.3C378.2,235.89 378.49,235.51 378.82,235.23C379.1,234.98 379.41,234.77 379.73,234.67C380.02,234.58 380.34,234.57 380.63,234.64C380.94,234.72 381.25,234.93 381.53,235.17C381.86,235.45 382.15,235.84 382.44,236.24C382.76,236.7 383.05,237.24 383.34,237.79C383.65,238.38 383.95,239.02 384.25,239.65C384.55,240.29 384.85,240.93 385.15,241.58C385.45,242.24 385.74,242.93 386.05,243.58C386.35,244.21 386.64,244.86 386.96,245.43C387.25,245.94 387.54,246.43 387.86,246.83C388.14,247.18 388.45,247.49 388.77,247.72C389.06,247.92 389.36,248.13 389.67,248.17C389.97,248.21 390.3,248.12 390.58,247.97C390.91,247.8 391.2,247.47 391.48,247.14C391.81,246.75 392.09,246.23 392.38,245.73C392.69,245.19 392.99,244.58 393.29,243.99C393.6,243.38 393.89,242.75 394.19,242.11C394.5,241.46 394.8,240.79 395.1,240.11C395.41,239.4 395.7,238.67 396,237.94C396.3,237.21 396.59,236.45 396.9,235.73C397.2,235.04 397.5,234.36 397.81,233.73C398.1,233.14 398.39,232.57 398.71,232.05C399,231.57 399.3,231.11 399.62,230.71C399.91,230.34 400.21,230.01 400.52,229.72C400.81,229.45 401.11,229.22 401.42,229.03C401.71,228.85 402.02,228.71 402.33,228.6C402.63,228.49 402.93,228.42 403.23,228.36C403.53,228.3 403.84,228.26 404.14,228.24C404.44,228.22 404.74,228.21 405.04,228.21C405.34,228.21 405.65,228.22 405.95,228.25C406.25,228.28 406.55,228.31 406.85,228.38C407.15,228.46 407.46,228.57 407.75,228.71C408.06,228.86 408.37,229.05 408.66,229.26C408.97,229.49 409.27,229.77 409.56,230.05C409.87,230.35 410.17,230.67 410.47,231.01C410.78,231.36 411.08,231.73 411.37,232.12C411.68,232.53 411.97,232.99 412.27,233.43C412.57,233.88 412.88,234.34 413.18,234.81C413.49,235.29 413.79,235.78 414.08,236.3C414.39,236.84 414.69,237.42 414.99,238C415.3,238.6 415.59,239.22 415.89,239.85C416.19,240.49 416.49,241.14 416.79,241.79C417.09,242.44 417.4,243.1 417.7,243.75C418,244.4 418.3,245.05 418.6,245.69C418.9,246.32 419.2,246.94 419.51,247.55C419.81,248.14 420.11,248.71 420.41,249.3C420.71,249.9 421.02,250.49 421.32,251.11C421.63,251.75 421.93,252.39 422.22,253.06C422.53,253.75 422.82,254.46 423.12,255.18C423.43,255.93 423.73,256.69 424.03,257.47C424.34,258.26 424.63,259.07 424.93,259.89C425.23,260.72 425.54,261.57 425.84,262.41C426.14,263.26 426.44,264.12 426.74,264.96C427.04,265.79 427.33,266.64 427.64,267.43C427.93,268.17 428.24,268.86 428.55,269.56C428.85,270.23 429.14,270.9 429.45,271.54C429.75,272.16 430.05,272.77 430.36,273.35C430.65,273.89 430.95,274.42 431.26,274.91C431.55,275.36 431.84,275.79 432.16,276.17C432.45,276.52 432.76,276.82 433.07,277.1C433.36,277.36 433.66,277.6 433.97,277.81C434.27,278.02 434.57,278.2 434.88,278.36C435.18,278.51 435.48,278.64 435.78,278.75C436.08,278.86 436.38,278.94 436.68,279.02C436.98,279.09 437.29,279.16 437.59,279.2C437.89,279.24 438.19,279.26 438.49,279.24C438.79,279.22 439.1,279.13 439.4,279.06C439.7,278.99 440,278.89 440.3,278.81C440.6,278.73 440.91,278.66 441.21,278.6C441.51,278.54 441.81,278.49 442.11,278.45C442.41,278.41 442.71,278.38 443.01,278.37C443.31,278.36 443.62,278.35 443.92,278.37C444.22,278.39 444.52,278.42 444.82,278.46C445.12,278.5 445.43,278.57 445.73,278.63C446.03,278.7 446.33,278.81 446.63,278.85C446.93,278.89 447.23,278.85 447.53,278.85C447.83,278.85 448.14,278.85 448.44,278.87C448.74,278.89 449.04,278.92 449.34,278.97C449.64,279.02 449.95,279.08 450.25,279.15C450.55,279.22 450.85,279.32 451.15,279.39C451.45,279.46 451.75,279.52 452.05,279.59C452.35,279.66 452.66,279.73 452.96,279.82C453.26,279.92 453.56,280.03 453.86,280.16C454.17,280.29 454.47,280.45 454.77,280.62C455.08,280.8 455.37,280.99 455.67,281.2C455.98,281.42 456.28,281.65 456.58,281.9C456.89,282.16 457.18,282.43 457.48,282.72C457.78,283.01 458.08,283.33 458.38,283.64C458.68,283.96 458.99,284.29 459.29,284.62C459.59,284.95 459.89,285.29 460.19,285.61C460.49,285.93 460.79,286.25 461.1,286.54Q461.39,286.81 462,287.3" style="vector-effect: non-scaling-stroke; fill: none; stroke: rgb(0, 100, 80); stroke-opacity: 1; stroke-width: 2px; opacity: 1;"/></g><g class="points"/><g class="text"/></g><g class="trace scatter trace7eaf18" style="stroke-miterlimit: 2; opacity: 1;"><g class="fills"/><g class="errorbars"/><g class="lines"><path class="js-line" d="M0,71.79Q0.61,71.67 0.9,71.55C1.21,71.42 1.51,71.22 1.81,71.04C2.11,70.86 2.41,70.64 2.71,70.45C3.01,70.26 3.31,70.08 3.62,69.92C3.92,69.77 4.21,69.62 4.52,69.53C4.82,69.44 5.12,69.37 5.42,69.36C5.72,69.35 6.04,69.39 6.33,69.49C6.64,69.59 6.94,69.76 7.23,69.97C7.55,70.2 7.85,70.51 8.14,70.84C8.46,71.21 8.75,71.65 9.04,72.12C9.36,72.64 9.66,73.24 9.95,73.85C10.27,74.52 10.56,75.24 10.85,75.99C11.16,76.8 11.46,77.65 11.75,78.53C12.06,79.46 12.37,80.43 12.66,81.42C12.97,82.46 13.26,83.54 13.56,84.64C13.87,85.79 14.17,86.97 14.47,88.16C14.78,89.39 15.07,90.65 15.37,91.91C15.67,93.2 15.97,94.52 16.27,95.83C16.57,97.16 16.88,98.5 17.18,99.84C17.48,101.2 17.78,102.55 18.08,103.93C18.38,105.33 18.69,106.74 18.99,108.17C19.29,109.62 19.59,111.09 19.89,112.57C20.19,114.09 20.49,115.62 20.79,117.17C21.09,118.75 21.4,120.34 21.7,121.94C22,123.57 22.3,125.22 22.6,126.87C22.9,128.54 23.21,130.21 23.51,131.89C23.81,133.57 24.11,135.27 24.41,136.94C24.71,138.6 25.02,140.26 25.32,141.89C25.62,143.5 25.91,145.1 26.22,146.66C26.52,148.17 26.81,149.67 27.12,151.12C27.41,152.5 27.72,153.86 28.03,155.15C28.32,156.36 28.61,157.55 28.93,158.65C29.22,159.65 29.52,160.62 29.84,161.5C30.13,162.28 30.42,163.03 30.74,163.69C31.02,164.27 31.32,164.81 31.64,165.27C31.93,165.68 32.23,166.05 32.55,166.35C32.83,166.61 33.14,166.84 33.45,166.98C33.74,167.11 34.06,167.19 34.36,167.21C34.66,167.23 34.96,167.18 35.26,167.11C35.56,167.04 35.86,166.91 36.16,166.77C36.47,166.62 36.78,166.45 37.07,166.24C37.38,166.02 37.68,165.78 37.97,165.48C38.29,165.15 38.59,164.75 38.88,164.32C39.2,163.84 39.48,163.27 39.78,162.72C40.08,162.16 40.37,161.55 40.68,160.99C40.98,160.44 41.28,159.88 41.59,159.37C41.88,158.88 42.17,158.4 42.49,157.98C42.78,157.59 43.08,157.23 43.4,156.93C43.69,156.66 43.98,156.41 44.3,156.26C44.59,156.12 44.91,156.03 45.21,156.03C45.51,156.03 45.83,156.12 46.11,156.27C46.43,156.44 46.73,156.72 47.01,157.02C47.34,157.37 47.63,157.81 47.92,158.27C48.24,158.79 48.53,159.37 48.82,159.98C49.14,160.65 49.44,161.39 49.73,162.15C50.05,162.98 50.34,163.86 50.63,164.77C50.94,165.74 51.24,166.76 51.53,167.81C51.84,168.91 52.15,170.06 52.44,171.23C52.75,172.46 53.04,173.73 53.34,175.02C53.65,176.36 53.95,177.74 54.25,179.13C54.56,180.57 54.85,182.04 55.15,183.53C55.45,185.05 55.75,186.6 56.05,188.16C56.35,189.75 56.66,191.36 56.96,192.99C57.27,194.66 57.56,196.35 57.86,198.06C58.17,199.82 58.47,201.61 58.77,203.42C59.08,205.29 59.37,207.18 59.67,209.1C59.98,211.06 60.28,213.06 60.58,215.07C60.88,217.11 61.18,219.19 61.48,221.26C61.78,223.35 62.08,225.47 62.38,227.56C62.68,229.65 62.98,231.78 63.29,233.8C63.58,235.71 63.88,237.54 64.19,239.35C64.49,241.09 64.79,242.82 65.1,244.48C65.39,246.05 65.69,247.61 66,249.07C66.29,250.42 66.58,251.74 66.9,252.96C67.19,254.05 67.49,255.1 67.81,256.05C68.09,256.89 68.38,257.68 68.71,258.38C68.99,258.99 69.29,259.55 69.62,260.03C69.9,260.45 70.2,260.82 70.52,261.12C70.8,261.39 71.11,261.61 71.42,261.79C71.71,261.96 72.02,262.09 72.33,262.19C72.63,262.29 72.93,262.39 73.23,262.4C73.53,262.41 73.84,262.33 74.14,262.24C74.45,262.14 74.74,261.97 75.04,261.82C75.34,261.67 75.65,261.5 75.95,261.35C76.25,261.2 76.55,261.05 76.85,260.92C77.15,260.79 77.45,260.68 77.75,260.58C78.05,260.48 78.36,260.39 78.66,260.31C78.96,260.23 79.26,260.18 79.56,260.11C79.86,260.04 80.17,259.98 80.47,259.89C80.77,259.8 81.07,259.69 81.37,259.57C81.67,259.45 81.97,259.29 82.27,259.15C82.57,259.02 82.87,258.87 83.18,258.76C83.48,258.65 83.78,258.56 84.08,258.49C84.38,258.42 84.69,258.38 84.99,258.36C85.29,258.34 85.59,258.34 85.89,258.35C86.19,258.36 86.49,258.39 86.79,258.44C87.09,258.5 87.4,258.57 87.7,258.68C88.01,258.79 88.31,258.94 88.6,259.12C88.91,259.32 89.22,259.56 89.51,259.84C89.83,260.15 90.11,260.53 90.41,260.9C90.72,261.28 91.02,261.69 91.32,262.1C91.63,262.53 91.93,262.96 92.22,263.43C92.53,263.94 92.83,264.5 93.12,265.07C93.43,265.67 93.72,266.33 94.03,266.93C94.33,267.51 94.62,268.07 94.93,268.61C95.23,269.13 95.53,269.63 95.84,270.1C96.13,270.54 96.42,271 96.74,271.36C97.02,271.68 97.32,272 97.64,272.2C97.93,272.37 98.24,272.5 98.55,272.53C98.85,272.56 99.16,272.49 99.45,272.38C99.76,272.26 100.07,272.05 100.36,271.81C100.68,271.55 100.97,271.21 101.26,270.85C101.58,270.46 101.87,270.01 102.16,269.54C102.47,269.04 102.78,268.49 103.07,267.93C103.38,267.34 103.67,266.7 103.97,266.07C104.27,265.43 104.58,264.77 104.88,264.13C105.18,263.5 105.47,262.85 105.78,262.24C106.08,261.65 106.37,261.06 106.68,260.5C106.98,259.96 107.28,259.43 107.59,258.95C107.88,258.5 108.18,258.07 108.49,257.68C108.78,257.32 109.09,256.98 109.4,256.69C109.69,256.42 109.99,256.18 110.3,255.97C110.59,255.77 110.91,255.63 111.21,255.45C111.51,255.27 111.82,255.09 112.11,254.88C112.42,254.66 112.71,254.39 113.01,254.15C113.31,253.91 113.61,253.66 113.92,253.43C114.22,253.21 114.52,252.99 114.82,252.79C115.12,252.59 115.42,252.41 115.73,252.24C116.03,252.07 116.33,251.91 116.63,251.77C116.93,251.63 117.23,251.51 117.53,251.38C117.83,251.26 118.14,251.14 118.44,251.02C118.74,250.9 119.04,250.79 119.34,250.66C119.65,250.52 119.95,250.38 120.25,250.21C120.56,250.03 120.85,249.82 121.15,249.62C121.45,249.42 121.74,249.19 122.05,249C122.35,248.81 122.65,248.63 122.96,248.49C123.26,248.35 123.55,248.22 123.86,248.15C124.16,248.08 124.47,248.04 124.77,248.04C125.07,248.04 125.37,248.09 125.67,248.16C125.98,248.23 126.28,248.35 126.58,248.46C126.88,248.57 127.18,248.71 127.48,248.84C127.78,248.97 128.08,249.11 128.38,249.24C128.68,249.38 128.99,249.52 129.29,249.65C129.59,249.78 129.89,249.93 130.19,250.04C130.49,250.15 130.8,250.31 131.1,250.32C131.4,250.33 131.72,250.27 132,250.12C132.33,249.94 132.63,249.61 132.9,249.22C133.25,248.71 133.52,247.92 133.81,247.22C134.12,246.46 134.41,245.62 134.71,244.82C135.01,244.02 135.31,243.21 135.62,242.43C135.92,241.67 136.21,240.91 136.52,240.19C136.81,239.5 137.11,238.82 137.42,238.18C137.71,237.57 138.02,236.98 138.33,236.43C138.62,235.92 138.92,235.44 139.23,235C139.52,234.59 139.82,234.2 140.14,233.87C140.43,233.57 140.73,233.29 141.04,233.07C141.33,232.87 141.64,232.68 141.95,232.58C142.24,232.48 142.55,232.43 142.85,232.45C143.15,232.47 143.46,232.56 143.75,232.7C144.07,232.85 144.37,233.1 144.66,233.37C144.98,233.68 145.27,234.07 145.56,234.49C145.88,234.95 146.18,235.48 146.47,236.04C146.79,236.65 147.08,237.33 147.37,238.03C147.68,238.78 147.98,239.58 148.27,240.4C148.58,241.27 148.89,242.18 149.18,243.11C149.49,244.08 149.78,245.1 150.08,246.12C150.39,247.18 150.69,248.27 150.99,249.35C151.29,250.44 151.59,251.56 151.89,252.65C152.19,253.72 152.48,254.79 152.79,255.83C153.09,256.84 153.38,257.87 153.7,258.8C153.99,259.64 154.28,260.46 154.6,261.19C154.89,261.84 155.19,262.44 155.51,262.97C155.79,263.44 156.08,263.88 156.41,264.22C156.69,264.52 157,264.79 157.32,264.95C157.61,265.09 157.92,265.18 158.22,265.17C158.52,265.16 158.83,265.04 159.12,264.9C159.44,264.75 159.73,264.49 160.03,264.25C160.34,264 160.63,263.71 160.93,263.45C161.23,263.19 161.56,263 161.84,262.7C162.16,262.36 162.44,261.86 162.74,261.46C163.04,261.06 163.33,260.65 163.64,260.3C163.93,259.98 164.23,259.67 164.55,259.42C164.84,259.19 165.14,258.98 165.45,258.84C165.74,258.7 166.05,258.61 166.36,258.56C166.66,258.51 166.96,258.52 167.26,258.55C167.56,258.58 167.86,258.66 168.16,258.75C168.47,258.84 168.77,258.97 169.07,259.09C169.37,259.21 169.67,259.36 169.97,259.47C170.27,259.58 170.57,259.69 170.88,259.73C171.18,259.77 171.49,259.78 171.78,259.72C172.09,259.66 172.39,259.52 172.68,259.35C173,259.16 173.3,258.91 173.59,258.63C173.91,258.33 174.2,257.97 174.49,257.6C174.8,257.2 175.1,256.77 175.4,256.32C175.71,255.85 176,255.36 176.3,254.85C176.61,254.32 176.93,253.83 177.21,253.22C177.54,252.51 177.82,251.64 178.11,250.82C178.42,249.97 178.71,249.1 179.01,248.22C179.32,247.31 179.63,246.4 179.92,245.42C180.23,244.37 180.53,243.27 180.82,242.12C181.14,240.86 181.43,239.49 181.73,238.15C182.04,236.78 182.33,235.37 182.63,233.99C182.93,232.63 183.23,231.26 183.53,229.92C183.83,228.6 184.14,227.29 184.44,226C184.74,224.73 185.03,223.48 185.34,222.24C185.64,221.03 185.94,219.84 186.25,218.66C186.55,217.51 186.85,216.38 187.15,215.27C187.45,214.19 187.74,213.13 188.05,212.09C188.35,211.09 188.65,210.11 188.96,209.16C189.26,208.24 189.55,207.34 189.86,206.47C190.15,205.64 190.46,204.84 190.77,204.06C191.06,203.32 191.36,202.61 191.67,201.91C191.97,201.24 192.27,200.59 192.58,199.96C192.88,199.36 193.17,198.76 193.48,198.2C193.77,197.67 194.06,197.15 194.38,196.69C194.67,196.28 194.96,195.87 195.29,195.57C195.57,195.31 195.87,195.06 196.19,194.96C196.48,194.86 196.81,194.85 197.1,194.92C197.41,195 197.72,195.22 198,195.46C198.33,195.75 198.62,196.16 198.9,196.59C199.23,197.09 199.52,197.68 199.81,198.31C200.13,199.02 200.42,199.81 200.71,200.64C201.03,201.56 201.33,202.56 201.62,203.59C201.94,204.72 202.23,205.91 202.52,207.15C202.83,208.48 203.13,209.89 203.42,211.33C203.73,212.86 204.04,214.46 204.33,216.09C204.64,217.81 204.93,219.58 205.23,221.39C205.54,223.28 205.84,225.22 206.14,227.18C206.45,229.19 206.73,231.28 207.04,233.3C207.34,235.27 207.64,237.23 207.95,239.14C208.25,240.99 208.55,242.77 208.85,244.61C209.15,246.47 209.45,248.33 209.75,250.22C210.05,252.14 210.36,254.08 210.66,256.02C210.96,257.97 211.26,259.94 211.56,261.88C211.86,263.8 212.16,265.74 212.47,267.62C212.77,269.44 213.06,271.27 213.37,272.97C213.66,274.54 213.95,276.09 214.27,277.48C214.55,278.7 214.84,279.89 215.18,280.88C215.46,281.68 215.71,282.49 216.08,282.98C216.35,283.33 216.68,283.68 216.99,283.72C217.28,283.75 217.62,283.54 217.89,283.29C218.25,282.96 218.52,282.35 218.79,281.72C219.15,280.88 219.42,279.77 219.7,278.63C220.04,277.26 220.3,275.58 220.6,274.03C220.91,272.44 221.21,270.82 221.51,269.21C221.81,267.61 222.11,266 222.41,264.4C222.71,262.82 223.02,261.24 223.32,259.67C223.62,258.12 223.92,256.59 224.22,255.06C224.52,253.55 224.82,252.05 225.12,250.56C225.42,249.09 225.72,247.62 226.03,246.18C226.33,244.78 226.62,243.39 226.93,242.04C227.23,240.75 227.53,239.49 227.84,238.28C228.13,237.13 228.43,236.02 228.74,234.95C229.03,233.95 229.33,232.99 229.64,232.08C229.93,231.23 230.24,230.42 230.55,229.64C230.84,228.91 231.14,228.21 231.45,227.52C231.75,226.84 232.06,226.18 232.36,225.52C232.66,224.87 232.96,224.23 233.26,223.58C233.56,222.92 233.87,222.31 234.16,221.6C234.48,220.81 234.78,219.97 235.07,219.06C235.39,218.04 235.68,216.89 235.97,215.76C236.28,214.57 236.59,213.34 236.88,212.07C237.19,210.73 237.49,209.35 237.78,207.94C238.09,206.46 238.39,204.94 238.68,203.37C238.99,201.72 239.3,200.02 239.59,198.26C239.9,196.38 240.2,194.42 240.49,192.42C240.8,190.3 241.11,188.14 241.4,185.86C241.71,183.4 242,180.77 242.3,178.15C242.61,175.43 242.91,172.61 243.21,169.83C243.51,167.03 243.81,164.21 244.11,161.41C244.41,158.61 244.71,155.8 245.01,153.01C245.31,150.23 245.62,147.46 245.92,144.7C246.22,141.96 246.52,139.22 246.82,136.5C247.12,133.79 247.43,131.09 247.73,128.4C248.03,125.73 248.33,123.06 248.63,120.41C248.93,117.78 249.23,115.15 249.53,112.54C249.83,109.95 250.14,107.37 250.44,104.81C250.74,102.28 251.04,99.76 251.34,97.28C251.64,94.84 251.94,92.42 252.25,90.04C252.55,87.72 252.84,85.43 253.15,83.19C253.44,81.03 253.74,78.89 254.05,76.82C254.35,74.84 254.65,72.89 254.96,71.01C255.25,69.23 255.55,67.49 255.86,65.81C256.15,64.23 256.46,62.7 256.77,61.22C257.06,59.84 257.36,58.5 257.67,57.21C257.96,56.01 258.27,54.85 258.58,53.74C258.87,52.71 259.17,51.71 259.48,50.77C259.77,49.91 260.06,49.07 260.38,48.31C260.67,47.62 260.97,46.96 261.29,46.37C261.58,45.85 261.86,45.34 262.19,44.94C262.47,44.6 262.77,44.26 263.1,44.1C263.38,43.97 263.71,43.9 264,43.97C264.32,44.04 264.63,44.3 264.9,44.59C265.24,44.95 265.53,45.48 265.81,46.02C266.14,46.67 266.43,47.44 266.71,48.25C267.04,49.18 267.33,50.22 267.62,51.31C267.94,52.52 268.23,53.84 268.52,55.2C268.84,56.7 269.13,58.29 269.42,59.93C269.73,61.71 270.04,63.58 270.33,65.5C270.64,67.56 270.94,69.71 271.23,71.91C271.54,74.24 271.85,76.66 272.14,79.13C272.45,81.73 272.74,84.41 273.04,87.13C273.35,89.97 273.65,92.88 273.95,95.83C274.26,98.88 274.55,101.99 274.85,105.14C275.15,108.37 275.45,111.66 275.75,114.96C276.05,118.32 276.36,121.73 276.66,125.14C276.96,128.57 277.26,132.03 277.56,135.46C277.86,138.89 278.17,142.32 278.47,145.72C278.77,149.07 279.07,152.43 279.37,155.72C279.67,158.92 279.96,162.1 280.27,165.18C280.56,168.11 280.86,171.03 281.18,173.77C281.47,176.29 281.76,178.75 282.08,181.01C282.37,183.01 282.64,185.05 282.99,186.66C283.26,187.89 283.41,189.52 283.89,189.88C284.14,190.07 284.52,190.01 284.79,189.87C285.14,189.69 285.43,189.13 285.7,188.64C286.05,188.02 286.32,187.2 286.6,186.39C286.92,185.47 287.22,184.44 287.51,183.42C287.82,182.35 288.11,181.21 288.41,180.11C288.71,179 289.01,177.87 289.32,176.79C289.62,175.75 289.91,174.71 290.22,173.74C290.51,172.84 290.8,171.95 291.12,171.15C291.41,170.44 291.7,169.76 292.03,169.19C292.31,168.7 292.59,168.22 292.93,167.91C293.21,167.65 293.53,167.41 293.84,167.36C294.13,167.31 294.46,167.4 294.74,167.56C295.08,167.76 295.36,168.17 295.64,168.58C295.98,169.09 296.27,169.76 296.55,170.46C296.88,171.28 297.16,172.23 297.45,173.22C297.77,174.33 298.07,175.55 298.36,176.81C298.68,178.18 298.97,179.65 299.26,181.15C299.57,182.75 299.86,184.44 300.16,186.14C300.47,187.92 300.77,189.77 301.07,191.6C301.37,193.46 301.66,195.39 301.97,197.21C302.26,198.95 302.55,200.74 302.88,202.29C303.16,203.62 303.43,204.92 303.78,205.97C304.05,206.79 304.32,207.57 304.68,208.1C304.95,208.49 305.26,208.83 305.59,208.96C305.87,209.07 306.21,209.04 306.49,208.94C306.81,208.82 307.12,208.5 307.4,208.2C307.73,207.85 308.02,207.44 308.3,206.95C308.64,206.35 308.93,205.62 309.21,204.83C309.55,203.88 309.81,202.68 310.11,201.6C310.41,200.52 310.71,199.43 311.01,198.35C311.31,197.29 311.61,196.22 311.92,195.18C312.22,194.17 312.51,193.16 312.82,192.19C313.12,191.26 313.42,190.35 313.73,189.48C314.02,188.67 314.32,187.87 314.63,187.14C314.92,186.47 315.21,185.82 315.53,185.25C315.82,184.74 316.11,184.25 316.44,183.86C316.72,183.52 317.02,183.2 317.34,183.01C317.62,182.85 317.95,182.73 318.25,182.74C318.55,182.75 318.87,182.88 319.15,183.06C319.48,183.27 319.77,183.61 320.05,183.97C320.38,184.39 320.68,184.91 320.96,185.46C321.28,186.09 321.57,186.8 321.86,187.54C322.18,188.36 322.48,189.24 322.77,190.16C323.09,191.16 323.38,192.23 323.67,193.32C323.98,194.49 324.29,195.71 324.58,196.96C324.89,198.28 325.19,199.65 325.48,201.04C325.79,202.5 326.08,204 326.38,205.52C326.69,207.09 326.99,208.7 327.29,210.32C327.6,211.99 327.89,213.69 328.19,215.4C328.49,217.15 328.8,218.92 329.1,220.7C329.4,222.5 329.7,224.33 330,226.15C330.3,227.99 330.6,229.84 330.9,231.68C331.2,233.52 331.51,235.36 331.81,237.18C332.11,238.97 332.4,240.76 332.71,242.49C333.01,244.16 333.3,245.83 333.62,247.39C333.91,248.83 334.2,250.22 334.52,251.51C334.81,252.67 335.09,253.82 335.42,254.8C335.7,255.62 335.98,256.43 336.33,257.03C336.6,257.5 336.9,257.89 337.23,258.19C337.51,258.44 337.83,258.64 338.14,258.76C338.43,258.87 338.74,258.91 339.04,258.93C339.34,258.95 339.65,258.9 339.95,258.87C340.25,258.83 340.55,258.78 340.85,258.72C341.15,258.66 341.45,258.58 341.75,258.49C342.05,258.4 342.35,258.27 342.66,258.2C342.96,258.13 343.26,258.08 343.56,258.07C343.86,258.06 344.17,258.09 344.47,258.16C344.78,258.23 345.08,258.34 345.37,258.49C345.68,258.64 345.98,258.84 346.27,259.07C346.58,259.31 346.89,259.6 347.18,259.91C347.49,260.24 347.79,260.6 348.08,260.98C348.39,261.39 348.69,261.83 348.99,262.28C349.3,262.75 349.59,263.23 349.89,263.73C350.19,264.24 350.49,264.77 350.79,265.31C351.1,265.86 351.4,266.42 351.7,266.98C352,267.55 352.3,268.13 352.6,268.71C352.9,269.29 353.21,269.87 353.51,270.45C353.81,271.02 354.11,271.6 354.41,272.16C354.71,272.72 355.02,273.27 355.32,273.81C355.62,274.35 355.92,274.87 356.22,275.4C356.52,275.92 356.82,276.44 357.12,276.95C357.42,277.46 357.72,277.96 358.03,278.45C358.33,278.92 358.62,279.4 358.93,279.83C359.22,280.24 359.52,280.65 359.84,281C360.13,281.32 360.42,281.63 360.74,281.85C361.03,282.04 361.33,282.24 361.64,282.27C361.94,282.3 362.28,282.24 362.55,282.05C362.91,281.8 363.17,281.19 363.45,280.66C363.79,280.01 364.08,279.24 364.36,278.41C364.69,277.43 364.97,276.28 365.26,275.15C365.57,273.95 365.86,272.67 366.16,271.4C366.47,270.1 366.77,268.76 367.07,267.43C367.37,266.09 367.67,264.74 367.97,263.4C368.27,262.07 368.58,260.74 368.88,259.43C369.18,258.14 369.48,256.86 369.78,255.61C370.08,254.39 370.37,253.19 370.68,252.02C370.98,250.89 371.28,249.77 371.59,248.68C371.89,247.64 372.18,246.61 372.49,245.63C372.78,244.7 373.09,243.78 373.4,242.92C373.69,242.12 373.98,241.35 374.3,240.64C374.59,239.99 374.89,239.37 375.21,238.82C375.49,238.34 375.79,237.88 376.11,237.52C376.39,237.21 376.69,236.92 377.01,236.75C377.3,236.6 377.62,236.51 377.92,236.52C378.22,236.53 378.54,236.66 378.82,236.83C379.14,237.02 379.44,237.33 379.73,237.66C380.05,238.03 380.34,238.49 380.63,238.96C380.95,239.48 381.24,240.07 381.53,240.67C381.84,241.32 382.15,242.02 382.44,242.74C382.75,243.5 383.04,244.31 383.34,245.12C383.65,245.96 383.95,246.84 384.25,247.7C384.55,248.55 384.84,249.41 385.15,250.24C385.44,251.04 385.74,251.82 386.05,252.57C386.35,253.29 386.65,254 386.96,254.68C387.25,255.32 387.54,255.97 387.86,256.53C388.15,257.03 388.41,257.64 388.77,257.9C389.04,258.1 389.37,258.17 389.67,258.16C389.97,258.15 390.28,257.99 390.58,257.86C390.89,257.72 391.18,257.53 391.48,257.34C391.78,257.15 392.08,256.94 392.38,256.72C392.69,256.49 393,256.25 393.29,255.96C393.6,255.65 393.91,255.33 394.19,254.92C394.52,254.43 394.8,253.76 395.1,253.18C395.4,252.59 395.7,251.99 396,251.4C396.3,250.82 396.59,250.22 396.9,249.67C397.19,249.14 397.49,248.62 397.81,248.15C398.1,247.72 398.39,247.3 398.71,246.95C399,246.63 399.3,246.33 399.62,246.1C399.91,245.89 400.21,245.73 400.52,245.62C400.81,245.52 401.12,245.47 401.42,245.45C401.72,245.43 402.03,245.44 402.33,245.48C402.63,245.52 402.93,245.61 403.23,245.71C403.54,245.81 403.84,245.95 404.14,246.09C404.44,246.23 404.74,246.38 405.04,246.54C405.34,246.7 405.64,246.89 405.95,247.04C406.25,247.18 406.54,247.34 406.85,247.4C407.14,247.46 407.45,247.39 407.75,247.4C408.05,247.41 408.36,247.4 408.66,247.45C408.96,247.5 409.27,247.59 409.56,247.72C409.87,247.86 410.18,248.07 410.47,248.29C410.78,248.52 411.09,248.78 411.37,249.09C411.69,249.44 411.98,249.85 412.27,250.3C412.59,250.8 412.89,251.37 413.18,251.96C413.49,252.6 413.79,253.29 414.08,253.99C414.39,254.73 414.69,255.53 414.99,256.3C415.29,257.08 415.59,257.88 415.89,258.66C416.19,259.44 416.49,260.2 416.79,260.98C417.09,261.78 417.39,262.6 417.7,263.39C418,264.16 418.29,264.94 418.6,265.66C418.89,266.34 419.21,266.96 419.51,267.62C419.81,268.29 420.11,268.98 420.41,269.66C420.71,270.34 421.02,271.03 421.32,271.7C421.62,272.36 421.91,273.04 422.22,273.67C422.51,274.26 422.8,274.88 423.12,275.38C423.4,275.82 423.69,276.29 424.03,276.56C424.31,276.78 424.62,276.93 424.93,276.97C425.23,277.01 425.54,276.92 425.84,276.83C426.15,276.73 426.45,276.56 426.74,276.38C427.05,276.19 427.35,275.95 427.64,275.7C427.95,275.44 428.25,275.15 428.55,274.85C428.86,274.55 429.15,274.22 429.45,273.9C429.75,273.58 430.06,273.25 430.36,272.94C430.66,272.63 430.96,272.32 431.26,272.03C431.56,271.75 431.85,271.48 432.16,271.23C432.46,270.99 432.77,270.78 433.07,270.56C433.37,270.35 433.68,270.17 433.97,269.95C434.28,269.72 434.57,269.42 434.88,269.18C435.18,268.94 435.47,268.71 435.78,268.51C436.07,268.32 436.37,268.16 436.68,268.02C436.98,267.89 437.29,267.79 437.59,267.69C437.89,267.6 438.19,267.54 438.49,267.45C438.79,267.36 439.1,267.24 439.4,267.15C439.7,267.06 440,266.96 440.3,266.93C440.6,266.9 440.91,266.91 441.21,266.96C441.51,267.01 441.82,267.12 442.11,267.25C442.42,267.38 442.7,267.66 443.01,267.76C443.3,267.85 443.62,267.89 443.92,267.84C444.23,267.79 444.51,267.53 444.82,267.43C445.12,267.33 445.43,267.26 445.73,267.23C446.03,267.2 446.33,267.22 446.63,267.27C446.93,267.32 447.24,267.42 447.53,267.54C447.84,267.67 448.14,267.85 448.44,268.04C448.75,268.24 449.04,268.47 449.34,268.7C449.65,268.93 449.95,269.18 450.25,269.43C450.55,269.68 450.85,269.92 451.15,270.18C451.45,270.45 451.75,270.73 452.05,271.03C452.36,271.34 452.67,271.67 452.96,272.03C453.27,272.41 453.57,272.83 453.86,273.27C454.17,273.74 454.48,274.24 454.77,274.76C455.08,275.31 455.38,275.91 455.67,276.51C455.98,277.15 456.28,277.81 456.58,278.49C456.89,279.2 457.18,279.93 457.48,280.67C457.78,281.43 458.08,282.2 458.38,282.98C458.68,283.76 458.99,284.57 459.29,285.35C459.59,286.13 459.88,286.91 460.19,287.66C460.49,288.38 460.79,289.11 461.1,289.77Q461.39,290.38 462,291.51" style="vector-effect: non-scaling-stroke; fill: none; stroke: rgb(0, 176, 246); stroke-opacity: 1; stroke-width: 2px; opacity: 1;"/></g><g class="points"/><g class="text"/></g><g class="trace scatter tracea5fd69" style="stroke-miterlimit: 2; opacity: 1;"><g class="fills"/><g class="errorbars"/><g class="lines"><path class="js-line" d="M0,162.16Q0.64,160.4 0.9,159.23C1.28,157.56 1.52,155.24 1.81,153.05C2.13,150.59 2.42,147.89 2.71,145.18C3.02,142.28 3.32,139.25 3.62,136.19C3.93,133.01 4.22,129.75 4.52,126.47C4.82,123.12 5.12,119.71 5.42,116.31C5.72,112.87 6.03,109.4 6.33,105.95C6.63,102.49 6.93,99.02 7.23,95.58C7.53,92.17 7.84,88.76 8.14,85.39C8.44,82.07 8.73,78.76 9.04,75.51C9.34,72.33 9.64,69.18 9.95,66.09C10.25,63.09 10.54,60.13 10.85,57.24C11.14,54.46 11.44,51.72 11.75,49.06C12.04,46.53 12.35,44.04 12.66,41.64C12.95,39.38 13.25,37.16 13.56,35.05C13.85,33.08 14.15,31.17 14.47,29.37C14.76,27.72 15.05,26.12 15.37,24.64C15.65,23.32 15.94,22.05 16.27,20.92C16.55,19.94 16.84,19 17.18,18.22C17.46,17.59 17.72,16.95 18.08,16.57C18.35,16.28 18.69,16.01 18.99,16C19.29,15.99 19.62,16.24 19.89,16.5C20.25,16.85 20.51,17.46 20.79,18.06C21.13,18.81 21.42,19.73 21.7,20.68C22.03,21.79 22.31,23.03 22.6,24.32C22.92,25.77 23.22,27.33 23.51,28.95C23.83,30.72 24.12,32.59 24.41,34.52C24.72,36.59 25.03,38.75 25.32,40.96C25.63,43.3 25.93,45.74 26.22,48.21C26.53,50.8 26.82,53.47 27.12,56.17C27.43,58.97 27.73,61.84 28.03,64.74C28.34,67.72 28.63,70.76 28.93,73.81C29.23,76.93 29.54,80.08 29.84,83.25C30.14,86.46 30.44,89.7 30.74,92.93C31.04,96.18 31.34,99.45 31.64,102.69C31.94,105.92 32.25,109.15 32.55,112.34C32.85,115.47 33.14,118.59 33.45,121.64C33.75,124.59 34.05,127.5 34.36,130.33C34.65,133.03 34.95,135.67 35.26,138.23C35.55,140.65 35.85,143.01 36.16,145.28C36.45,147.42 36.76,149.49 37.07,151.49C37.36,153.36 37.66,155.17 37.97,156.92C38.26,158.55 38.57,160.14 38.88,161.65C39.17,163.05 39.47,164.41 39.78,165.69C40.07,166.87 40.37,167.99 40.68,169.06C40.97,170.05 41.28,170.99 41.59,171.91C41.89,172.79 42.19,173.64 42.49,174.49C42.79,175.33 43.1,176.14 43.4,176.97C43.7,177.8 44,178.62 44.3,179.45C44.6,180.29 44.91,181.13 45.21,181.98C45.51,182.84 45.81,183.7 46.11,184.56C46.41,185.43 46.71,186.31 47.01,187.19C47.31,188.07 47.62,188.95 47.92,189.83C48.22,190.71 48.52,191.59 48.82,192.47C49.12,193.34 49.43,194.2 49.73,195.06C50.03,195.91 50.33,196.75 50.63,197.59C50.93,198.42 51.23,199.25 51.53,200.07C51.83,200.89 52.14,201.7 52.44,202.51C52.74,203.32 53.04,204.12 53.34,204.94C53.64,205.76 53.95,206.59 54.25,207.43C54.55,208.29 54.85,209.15 55.15,210.04C55.45,210.96 55.75,211.89 56.05,212.84C56.36,213.83 56.66,214.84 56.96,215.88C57.27,216.96 57.56,218.07 57.86,219.21C58.17,220.39 58.47,221.61 58.77,222.85C59.08,224.14 59.37,225.47 59.67,226.82C59.98,228.22 60.28,229.64 60.58,231.09C60.89,232.58 61.18,234.09 61.48,235.62C61.78,237.18 62.08,238.77 62.38,240.36C62.68,241.97 62.99,243.59 63.29,245.21C63.59,246.82 63.89,248.44 64.19,250.04C64.49,251.61 64.79,253.19 65.1,254.72C65.4,256.2 65.69,257.68 66,259.1C66.29,260.46 66.59,261.8 66.9,263.09C67.19,264.31 67.49,265.52 67.81,266.64C68.1,267.67 68.38,268.68 68.71,269.57C68.99,270.34 69.3,271.04 69.62,271.69C69.91,272.27 70.22,272.78 70.52,273.3C70.82,273.81 71.12,274.29 71.42,274.78C71.72,275.26 72.03,275.73 72.33,276.2C72.63,276.66 72.92,277.13 73.23,277.58C73.53,278.02 73.83,278.45 74.14,278.86C74.44,279.25 74.73,279.65 75.04,279.99C75.33,280.31 75.63,280.63 75.95,280.86C76.24,281.07 76.54,281.26 76.85,281.33C77.14,281.39 77.46,281.37 77.75,281.27C78.07,281.15 78.38,280.89 78.66,280.61C78.99,280.28 79.27,279.84 79.56,279.39C79.88,278.89 80.18,278.31 80.47,277.72C80.79,277.08 81.08,276.38 81.37,275.67C81.68,274.91 81.98,274.1 82.27,273.27C82.58,272.4 82.88,271.49 83.18,270.57C83.49,269.62 83.78,268.65 84.08,267.68C84.38,266.7 84.69,265.7 84.99,264.71C85.29,263.71 85.59,262.71 85.89,261.71C86.19,260.71 86.49,259.72 86.79,258.73C87.09,257.75 87.4,256.77 87.7,255.79C88,254.82 88.31,253.89 88.6,252.89C88.91,251.83 89.21,250.7 89.51,249.62C89.81,248.54 90.1,247.46 90.41,246.41C90.71,245.4 91.01,244.4 91.32,243.43C91.62,242.51 91.91,241.6 92.22,240.73C92.51,239.9 92.81,239.1 93.12,238.33C93.41,237.61 93.72,236.9 94.03,236.24C94.32,235.63 94.61,235.05 94.93,234.51C95.22,234.02 95.52,233.54 95.84,233.13C96.13,232.76 96.42,232.4 96.74,232.12C97.03,231.87 97.33,231.64 97.64,231.5C97.93,231.37 98.25,231.28 98.55,231.27C98.85,231.26 99.16,231.32 99.45,231.42C99.76,231.53 100.07,231.72 100.36,231.94C100.68,232.18 100.97,232.49 101.26,232.82C101.57,233.18 101.87,233.59 102.16,234.02C102.47,234.47 102.77,234.97 103.07,235.47C103.38,235.99 103.67,236.55 103.97,237.1C104.28,237.67 104.58,238.25 104.88,238.84C105.19,239.45 105.48,240.06 105.78,240.69C106.08,241.34 106.38,242 106.68,242.68C106.99,243.38 107.29,244.09 107.59,244.82C107.9,245.57 108.19,246.33 108.49,247.11C108.8,247.91 109.1,248.73 109.4,249.55C109.7,250.39 110,251.24 110.3,252.09C110.6,252.96 110.91,253.83 111.21,254.71C111.51,255.59 111.81,256.49 112.11,257.37C112.41,258.25 112.71,259.14 113.01,260.01C113.31,260.88 113.62,261.74 113.92,262.59C114.22,263.42 114.51,264.25 114.82,265.05C115.12,265.81 115.41,266.57 115.73,267.26C116.02,267.89 116.31,268.5 116.63,269.02C116.91,269.48 117.21,269.89 117.53,270.25C117.82,270.58 118.13,270.86 118.44,271.11C118.73,271.34 119.03,271.68 119.34,271.7C119.64,271.72 119.97,271.5 120.25,271.28C120.59,271.01 120.86,270.53 121.15,270.12C121.46,269.68 121.77,269.22 122.05,268.69C122.37,268.09 122.67,267.37 122.96,266.68C123.27,265.95 123.56,265.16 123.86,264.4C124.16,263.64 124.47,262.87 124.77,262.12C125.07,261.38 125.37,260.66 125.67,259.92C125.97,259.16 126.29,258.43 126.58,257.62C126.9,256.74 127.18,255.74 127.48,254.81C127.78,253.88 128.08,252.94 128.38,252.02C128.68,251.12 128.98,250.22 129.29,249.34C129.59,248.49 129.88,247.64 130.19,246.82C130.49,246.03 130.79,245.26 131.1,244.52C131.39,243.82 131.69,243.13 132,242.48C132.29,241.86 132.59,241.28 132.9,240.7C133.2,240.13 133.51,239.6 133.81,239.04C134.12,238.46 134.41,237.86 134.71,237.28C135.01,236.7 135.31,236.11 135.62,235.57C135.91,235.07 136.2,234.58 136.52,234.16C136.81,233.78 137.1,233.43 137.42,233.16C137.71,232.92 138.01,232.7 138.33,232.58C138.62,232.47 138.93,232.41 139.23,232.43C139.53,232.45 139.85,232.55 140.14,232.69C140.45,232.84 140.75,233.08 141.04,233.33C141.36,233.6 141.66,233.94 141.95,234.29C142.27,234.68 142.56,235.11 142.85,235.57C143.16,236.06 143.46,236.6 143.75,237.16C144.06,237.77 144.37,238.42 144.66,239.1C144.97,239.83 145.27,240.6 145.56,241.4C145.87,242.25 146.18,243.14 146.47,244.06C146.78,245.03 147.08,246.05 147.37,247.08C147.68,248.16 147.97,249.28 148.27,250.41C148.58,251.57 148.88,252.76 149.18,253.94C149.48,255.13 149.78,256.33 150.08,257.53C150.38,258.74 150.69,259.96 150.99,261.19C151.29,262.43 151.59,263.68 151.89,264.93C152.19,266.19 152.49,267.46 152.79,268.73C153.09,270 153.4,271.28 153.7,272.53C154,273.76 154.29,275.02 154.6,276.19C154.89,277.28 155.12,278.56 155.51,279.34C155.77,279.87 156.06,280.4 156.41,280.54C156.68,280.65 157.03,280.5 157.32,280.39C157.63,280.27 157.93,280.03 158.22,279.8C158.53,279.55 158.82,279.24 159.12,278.94C159.43,278.63 159.73,278.28 160.03,277.95C160.33,277.62 160.62,277.28 160.93,276.97C161.23,276.66 161.53,276.37 161.84,276.09C162.14,275.82 162.44,275.57 162.74,275.32C163.04,275.08 163.34,274.86 163.64,274.63C163.94,274.4 164.25,274.19 164.55,273.95C164.86,273.7 165.16,273.45 165.45,273.17C165.76,272.88 166.07,272.56 166.36,272.22C166.67,271.86 166.97,271.46 167.26,271.06C167.57,270.64 167.86,270.19 168.16,269.75C168.46,269.3 168.77,268.84 169.07,268.38C169.37,267.92 169.67,267.46 169.97,267C170.27,266.55 170.57,266.09 170.88,265.65C171.18,265.23 171.47,264.81 171.78,264.43C172.07,264.07 172.37,263.73 172.68,263.44C172.97,263.17 173.28,262.92 173.59,262.71C173.88,262.52 174.18,262.35 174.49,262.22C174.79,262.1 175.09,262.01 175.4,261.95C175.7,261.89 176,261.86 176.3,261.84C176.6,261.82 176.91,261.83 177.21,261.85C177.51,261.87 177.81,261.9 178.11,261.93C178.41,261.96 178.71,262.01 179.01,262.05C179.31,262.09 179.63,262.24 179.92,262.18C180.23,262.12 180.55,261.93 180.82,261.67C181.17,261.33 181.44,260.71 181.73,260.19C182.04,259.64 182.34,259.07 182.63,258.46C182.94,257.81 183.24,257.12 183.53,256.4C183.84,255.64 184.15,254.84 184.44,254.02C184.75,253.16 185.04,252.27 185.34,251.36C185.65,250.42 185.95,249.44 186.25,248.46C186.56,247.45 186.85,246.41 187.15,245.37C187.45,244.3 187.75,243.22 188.05,242.13C188.35,241.02 188.66,239.9 188.96,238.78C189.26,237.66 189.56,236.52 189.86,235.4C190.16,234.28 190.47,233.15 190.77,232.04C191.07,230.94 191.36,229.84 191.67,228.76C191.97,227.71 192.27,226.67 192.58,225.65C192.88,224.67 193.17,223.7 193.48,222.77C193.77,221.89 194.07,221.03 194.38,220.21C194.67,219.45 194.97,218.7 195.29,218.02C195.58,217.4 195.87,216.79 196.19,216.26C196.48,215.79 196.77,215.34 197.1,214.99C197.38,214.69 197.68,214.4 198,214.24C198.28,214.1 198.6,214.02 198.9,214.05C199.21,214.08 199.53,214.24 199.81,214.44C200.14,214.67 200.43,215.04 200.71,215.43C201.04,215.88 201.34,216.44 201.62,217.03C201.94,217.7 202.23,218.45 202.52,219.24C202.84,220.11 203.13,221.05 203.42,222.03C203.74,223.09 204.04,224.23 204.33,225.39C204.64,226.64 204.94,227.94 205.23,229.28C205.54,230.7 205.85,232.18 206.14,233.7C206.45,235.3 206.74,236.95 207.04,238.63C207.35,240.39 207.65,242.19 207.95,244.03C208.26,245.94 208.55,247.89 208.85,249.87C209.15,251.91 209.45,253.99 209.75,256.09C210.05,258.23 210.36,260.42 210.66,262.59C210.96,264.75 211.24,267 211.56,269.07C211.85,270.98 212.16,272.77 212.47,274.56C212.77,276.27 213.07,277.92 213.37,279.59C213.67,281.25 213.96,282.92 214.27,284.54C214.57,286.12 214.87,287.67 215.18,289.19C215.48,290.65 215.77,292.1 216.08,293.47C216.37,294.75 216.66,296.06 216.99,297.17C217.27,298.1 217.48,299.19 217.89,299.7C218.15,300.02 218.52,300.35 218.79,300.28C219.16,300.18 219.43,299.18 219.7,298.43C220.07,297.38 220.33,295.97 220.6,294.49C220.95,292.61 221.23,290.36 221.51,288.05C221.84,285.36 222.11,282.24 222.41,279.29C222.71,276.27 223.02,273.2 223.32,270.14C223.62,267.08 223.92,263.99 224.22,260.93C224.52,257.9 224.82,254.87 225.12,251.89C225.42,248.96 225.72,246.05 226.03,243.19C226.33,240.41 226.62,237.66 226.93,234.97C227.23,232.37 227.53,229.81 227.84,227.32C228.14,224.93 228.43,222.59 228.74,220.31C229.03,218.15 229.33,216.02 229.64,213.98C229.93,212.05 230.24,210.17 230.55,208.37C230.84,206.69 231.14,205.05 231.45,203.49C231.74,202.05 232.04,200.65 232.36,199.33C232.65,198.13 232.94,196.97 233.26,195.89C233.55,194.91 233.84,193.98 234.16,193.12C234.45,192.35 234.75,191.62 235.07,190.97C235.35,190.4 235.64,189.86 235.97,189.4C236.25,189 236.55,188.62 236.88,188.36C237.16,188.13 237.47,187.94 237.78,187.87C238.07,187.81 238.39,187.84 238.68,187.94C239,188.05 239.31,188.29 239.59,188.56C239.92,188.87 240.21,189.29 240.49,189.73C240.81,190.23 241.11,190.82 241.4,191.43C241.72,192.1 242.01,192.84 242.3,193.6C242.61,194.41 242.91,195.28 243.21,196.16C243.52,197.08 243.81,198.04 244.11,198.99C244.41,199.94 244.67,201.01 245.01,201.85C245.29,202.55 245.6,203.15 245.92,203.71C246.2,204.2 246.5,204.64 246.82,205.03C247.11,205.39 247.4,205.78 247.73,205.98C248.01,206.15 248.34,206.28 248.63,206.23C248.95,206.17 249.26,205.87 249.53,205.55C249.88,205.14 250.16,204.51 250.44,203.86C250.78,203.06 251.06,202.09 251.34,201.09C251.67,199.94 251.96,198.65 252.25,197.34C252.57,195.91 252.86,194.37 253.15,192.82C253.46,191.18 253.75,189.47 254.05,187.77C254.36,186.02 254.66,184.24 254.96,182.46C255.26,180.68 255.56,178.87 255.86,177.09C256.16,175.33 256.47,173.56 256.77,171.83C257.07,170.13 257.36,168.45 257.67,166.8C257.97,165.2 258.27,163.62 258.58,162.07C258.88,160.57 259.17,159.1 259.48,157.66C259.77,156.28 260.07,154.92 260.38,153.6C260.68,152.33 260.98,151.08 261.29,149.88C261.58,148.73 261.88,147.61 262.19,146.54C262.48,145.53 262.78,144.54 263.1,143.62C263.39,142.77 263.68,141.95 264,141.2C264.29,140.53 264.57,139.88 264.9,139.32C265.18,138.83 265.48,138.37 265.81,138.02C266.09,137.72 266.39,137.45 266.71,137.31C267,137.19 267.32,137.13 267.62,137.17C267.93,137.21 268.24,137.38 268.52,137.59C268.85,137.83 269.14,138.21 269.42,138.6C269.75,139.06 270.05,139.62 270.33,140.21C270.65,140.88 270.94,141.64 271.23,142.44C271.55,143.33 271.85,144.31 272.14,145.32C272.46,146.43 272.75,147.61 273.04,148.83C273.35,150.15 273.66,151.53 273.95,152.95C274.26,154.46 274.56,156.02 274.85,157.62C275.16,159.29 275.45,161.02 275.75,162.76C276.06,164.57 276.36,166.42 276.66,168.28C276.96,170.17 277.26,172.1 277.56,174.02C277.86,175.95 278.17,177.91 278.47,179.84C278.77,181.74 279.06,183.66 279.37,185.51C279.66,187.29 279.94,189.15 280.27,190.76C280.55,192.16 280.75,193.8 281.18,194.65C281.43,195.15 281.76,195.67 282.08,195.7C282.37,195.73 282.73,195.37 282.99,195.01C283.4,194.45 283.62,193.38 283.89,192.38C284.24,191.11 284.51,189.56 284.79,187.99C285.11,186.2 285.41,184.21 285.7,182.2C286.01,180.03 286.3,177.72 286.6,175.4C286.91,172.97 287.21,170.46 287.51,167.95C287.82,165.38 288.11,162.76 288.41,160.15C288.71,157.53 289.02,154.89 289.32,152.27C289.62,149.67 289.92,147.06 290.22,144.49C290.52,141.96 290.81,139.44 291.12,136.96C291.42,134.54 291.72,132.13 292.03,129.78C292.33,127.5 292.62,125.24 292.93,123.04C293.23,120.92 293.53,118.84 293.84,116.81C294.13,114.88 294.43,112.98 294.74,111.15C295.03,109.41 295.33,107.72 295.64,106.09C295.93,104.56 296.24,103.07 296.55,101.66C296.84,100.35 297.13,99.09 297.45,97.9C297.74,96.81 298.04,95.76 298.36,94.79C298.65,93.91 298.94,93.08 299.26,92.32C299.54,91.65 299.84,91.03 300.16,90.47C300.45,89.98 300.75,89.54 301.07,89.14C301.36,88.78 301.65,88.44 301.97,88.17C302.26,87.92 302.57,87.7 302.88,87.54C303.17,87.39 303.48,87.29 303.78,87.2C304.08,87.11 304.38,87.02 304.68,86.98C304.98,86.94 305.29,86.9 305.59,86.96C305.9,87.02 306.21,87.17 306.49,87.37C306.81,87.6 307.12,87.93 307.4,88.29C307.73,88.7 308.01,89.21 308.3,89.74C308.62,90.33 308.92,90.99 309.21,91.67C309.52,92.41 309.82,93.2 310.11,94.01C310.42,94.87 310.71,95.79 311.01,96.71C311.32,97.67 311.62,98.66 311.92,99.65C312.23,100.67 312.52,101.7 312.82,102.74C313.12,103.78 313.43,104.84 313.73,105.89C314.03,106.93 314.33,107.98 314.63,109.02C314.93,110.05 315.23,111.08 315.53,112.1C315.83,113.11 316.14,114.12 316.44,115.12C316.74,116.11 317.04,117.1 317.34,118.09C317.64,119.07 317.95,120.04 318.25,121.01C318.55,121.98 318.85,122.95 319.15,123.92C319.45,124.89 319.75,125.86 320.05,126.83C320.35,127.81 320.66,128.79 320.96,129.78C321.26,130.78 321.56,131.78 321.86,132.8C322.16,133.83 322.47,134.87 322.77,135.93C323.07,137.01 323.37,138.1 323.67,139.21C323.98,140.35 324.28,141.52 324.58,142.7C324.89,143.92 325.18,145.16 325.48,146.42C325.79,147.73 326.08,149.05 326.38,150.41C326.69,151.81 326.99,153.24 327.29,154.7C327.6,156.21 327.89,157.74 328.19,159.3C328.5,160.91 328.8,162.55 329.1,164.21C329.41,165.92 329.7,167.65 330,169.41C330.3,171.21 330.6,173.04 330.9,174.88C331.2,176.76 331.51,178.66 331.81,180.57C332.11,182.5 332.41,184.45 332.71,186.38C333.01,188.31 333.32,190.24 333.62,192.16C333.92,194.06 334.22,195.94 334.52,197.84C334.82,199.75 335.12,201.65 335.42,203.57C335.72,205.52 336.03,207.47 336.33,209.45C336.63,211.45 336.93,213.48 337.23,215.51C337.53,217.57 337.84,219.65 338.14,221.73C338.44,223.83 338.74,225.95 339.04,228.06C339.34,230.17 339.65,232.27 339.95,234.37C340.25,236.47 340.55,238.56 340.85,240.65C341.15,242.74 341.45,244.83 341.75,246.9C342.05,248.96 342.36,251.01 342.66,253.04C342.96,255.02 343.25,257 343.56,258.93C343.86,260.8 344.16,262.64 344.47,264.43C344.77,266.15 345.06,267.82 345.37,269.46C345.66,271.02 345.96,272.55 346.27,274.03C346.56,275.44 346.87,276.81 347.18,278.14C347.47,279.39 347.76,280.63 348.08,281.78C348.37,282.84 348.67,283.87 348.99,284.8C349.28,285.63 349.56,286.42 349.89,287.12C350.17,287.72 350.44,288.37 350.79,288.75C351.06,289.04 351.39,289.21 351.7,289.35C351.99,289.48 352.3,289.53 352.6,289.58C352.9,289.63 353.21,289.65 353.51,289.63C353.81,289.61 354.11,289.58 354.41,289.49C354.72,289.4 355.02,289.24 355.32,289.08C355.63,288.91 355.92,288.7 356.22,288.49C356.52,288.27 356.82,288.04 357.12,287.8C357.43,287.55 357.73,287.3 358.03,287.03C358.33,286.76 358.63,286.48 358.93,286.19C359.24,285.89 359.54,285.58 359.84,285.26C360.15,284.93 360.46,284.63 360.74,284.22C361.07,283.73 361.35,283.11 361.64,282.49C361.96,281.8 362.25,281.02 362.55,280.28C362.85,279.53 363.15,278.77 363.45,278C363.75,277.23 364.06,276.45 364.36,275.66C364.66,274.86 364.96,274.06 365.26,273.25C365.56,272.43 365.86,271.63 366.16,270.79C366.47,269.92 366.77,269.03 367.07,268.12C367.38,267.18 367.67,266.2 367.97,265.23C368.27,264.25 368.58,263.25 368.88,262.26C369.18,261.27 369.48,260.27 369.78,259.28C370.08,258.29 370.38,257.3 370.68,256.31C370.98,255.33 371.29,254.34 371.59,253.37C371.89,252.41 372.19,251.45 372.49,250.5C372.79,249.57 373.1,248.64 373.4,247.73C373.7,246.84 373.99,245.95 374.3,245.08C374.6,244.23 374.9,243.38 375.21,242.56C375.51,241.76 375.81,240.97 376.11,240.2C376.41,239.45 376.7,238.71 377.01,237.99C377.31,237.29 377.62,236.6 377.92,235.92C378.22,235.25 378.52,234.6 378.82,233.95C379.12,233.31 379.42,232.67 379.73,232.05C380.03,231.44 380.32,230.84 380.63,230.26C380.92,229.71 381.22,229.16 381.53,228.65C381.82,228.17 382.13,227.7 382.44,227.28C382.73,226.89 383.02,226.52 383.34,226.21C383.63,225.93 383.93,225.67 384.25,225.47C384.54,225.29 384.84,225.13 385.15,225.06C385.44,224.99 385.75,224.98 386.05,225.03C386.36,225.08 386.67,225.2 386.96,225.37C387.28,225.55 387.57,225.82 387.86,226.11C388.18,226.43 388.48,226.82 388.77,227.23C389.09,227.69 389.38,228.2 389.67,228.74C389.98,229.32 390.29,229.95 390.58,230.6C390.89,231.29 391.19,232.02 391.48,232.77C391.79,233.56 392.08,234.37 392.38,235.21C392.69,236.09 392.99,236.99 393.29,237.91C393.6,238.87 393.89,239.87 394.19,240.88C394.5,241.94 394.8,243.02 395.1,244.13C395.41,245.28 395.7,246.45 396,247.64C396.3,248.87 396.6,250.12 396.9,251.39C397.21,252.69 397.51,254.02 397.81,255.35C398.11,256.71 398.41,258.08 398.71,259.46C399.01,260.85 399.32,262.25 399.62,263.65C399.92,265.05 400.22,266.46 400.52,267.84C400.82,269.2 401.11,270.57 401.42,271.89C401.72,273.15 402.01,274.42 402.33,275.59C402.62,276.66 402.9,277.73 403.23,278.66C403.51,279.47 403.81,280.24 404.14,280.88C404.42,281.41 404.71,281.9 405.04,282.28C405.32,282.6 405.63,282.87 405.95,283.05C406.24,283.21 406.55,283.31 406.85,283.37C407.15,283.43 407.45,283.42 407.75,283.4C408.05,283.38 408.36,283.31 408.66,283.23C408.96,283.15 409.26,283.03 409.56,282.9C409.87,282.77 410.18,282.62 410.47,282.43C410.78,282.24 411.08,282.01 411.37,281.75C411.68,281.47 411.97,281.14 412.27,280.82C412.57,280.5 412.87,280.15 413.18,279.83C413.48,279.52 413.77,279.2 414.08,278.92C414.38,278.65 414.68,278.4 414.99,278.17C415.29,277.95 415.58,277.75 415.89,277.58C416.18,277.41 416.49,277.27 416.79,277.15C417.09,277.03 417.4,276.93 417.7,276.84C418,276.75 418.3,276.67 418.6,276.6C418.9,276.53 419.21,276.47 419.51,276.41C419.81,276.35 420.11,276.28 420.41,276.23C420.71,276.18 421.02,276.14 421.32,276.12C421.62,276.1 421.92,276.09 422.22,276.12C422.52,276.15 422.82,276.19 423.12,276.28C423.43,276.37 423.74,276.49 424.03,276.65C424.34,276.81 424.64,277.02 424.93,277.25C425.24,277.5 425.55,277.79 425.84,278.1C426.15,278.44 426.45,278.81 426.74,279.21C427.05,279.63 427.35,280.09 427.64,280.57C427.95,281.08 428.26,281.62 428.55,282.17C428.86,282.75 429.15,283.37 429.45,283.99C429.76,284.64 430.06,285.32 430.36,286C430.67,286.7 430.96,287.43 431.26,288.16C431.56,288.9 431.86,289.66 432.16,290.41C432.46,291.17 432.77,291.94 433.07,292.7C433.37,293.45 433.67,294.2 433.97,294.94C434.27,295.66 434.57,296.39 434.88,297.08C435.18,297.74 435.47,298.4 435.78,299.02C436.07,299.6 436.36,300.18 436.68,300.69C436.97,301.15 437.26,301.62 437.59,301.96C437.87,302.25 438.17,302.58 438.49,302.65C438.78,302.72 439.12,302.62 439.4,302.46C439.74,302.26 440,301.77 440.3,301.41C440.61,301.04 440.9,300.63 441.21,300.25C441.51,299.88 441.8,299.51 442.11,299.17C442.4,298.84 442.7,298.52 443.01,298.22C443.31,297.93 443.61,297.66 443.92,297.4C444.22,297.15 444.52,296.92 444.82,296.69C445.12,296.47 445.43,296.26 445.73,296.06C446.03,295.86 446.33,295.67 446.63,295.49C446.93,295.31 447.23,295.13 447.53,294.96C447.83,294.79 448.14,294.63 448.44,294.47C448.74,294.31 449.04,294.15 449.34,293.99C449.64,293.83 449.95,293.68 450.25,293.53C450.55,293.39 450.85,293.25 451.15,293.12C451.45,293 451.75,292.88 452.05,292.78C452.35,292.68 452.66,292.6 452.96,292.54C453.26,292.48 453.56,292.44 453.86,292.42C454.16,292.4 454.47,292.42 454.77,292.45C455.07,292.48 455.37,292.54 455.67,292.62C455.98,292.7 456.28,292.81 456.58,292.93C456.88,293.05 457.18,293.2 457.48,293.35C457.78,293.51 458.08,293.68 458.38,293.86C458.68,294.04 458.99,294.23 459.29,294.41C459.59,294.59 459.89,294.78 460.19,294.95C460.49,295.12 460.79,295.28 461.1,295.42Q461.4,295.55 462,295.76" style="vector-effect: non-scaling-stroke; fill: none; stroke: rgb(231, 107, 243); stroke-opacity: 1; stroke-width: 2px; opacity: 1;"/></g><g class="points"/><g class="text"/></g></g></g><g class="overplot"/><path class="xlines-above crisp" d="M0,0" style="fill: none;"/><path class="ylines-above crisp" d="M0,0" style="fill: none;"/><g class="overlines-above"/><g class="xaxislayer-above"><g class="xtick"><text text-anchor="middle" x="0" y="433" transform="translate(80,0)" style="font-family: 'Open Sans', verdana, arial, sans-serif; font-size: 12px; fill: rgb(42, 63, 95); fill-opacity: 1; white-space: pre;">0</text></g><g class="xtick"><text text-anchor="middle" x="0" y="433" transform="translate(170.23000000000002,0)" style="font-family: 'Open Sans', verdana, arial, sans-serif; font-size: 12px; fill: rgb(42, 63, 95); fill-opacity: 1; white-space: pre;">100</text></g><g class="xtick"><text text-anchor="middle" x="0" y="433" transform="translate(260.47,0)" style="font-family: 'Open Sans', verdana, arial, sans-serif; font-size: 12px; fill: rgb(42, 63, 95); fill-opacity: 1; white-space: pre;">200</text></g><g class="xtick"><text text-anchor="middle" x="0" y="433" transform="translate(350.7,0)" style="font-family: 'Open Sans', verdana, arial, sans-serif; font-size: 12px; fill: rgb(42, 63, 95); fill-opacity: 1; white-space: pre;">300</text></g><g class="xtick"><text text-anchor="middle" x="0" y="433" transform="translate(440.94,0)" style="font-family: 'Open Sans', verdana, arial, sans-serif; font-size: 12px; fill: rgb(42, 63, 95); fill-opacity: 1; white-space: pre;">400</text></g><g class="xtick"><text text-anchor="middle" x="0" y="433" transform="translate(531.1700000000001,0)" style="font-family: 'Open Sans', verdana, arial, sans-serif; font-size: 12px; fill: rgb(42, 63, 95); fill-opacity: 1; white-space: pre;">500</text></g></g><g class="yaxislayer-above"><g class="ytick"><text text-anchor="end" x="79" y="4.199999999999999" transform="translate(0,393.28)" style="font-family: 'Open Sans', verdana, arial, sans-serif; font-size: 12px; fill: rgb(42, 63, 95); fill-opacity: 1; white-space: pre;">500</text></g><g class="ytick"><text text-anchor="end" x="79" y="4.199999999999999" transform="translate(0,326.03)" style="font-family: 'Open Sans', verdana, arial, sans-serif; font-size: 12px; fill: rgb(42, 63, 95); fill-opacity: 1; white-space: pre;">1000</text></g><g class="ytick"><text text-anchor="end" x="79" y="4.199999999999999" transform="translate(0,258.78999999999996)" style="font-family: 'Open Sans', verdana, arial, sans-serif; font-size: 12px; fill: rgb(42, 63, 95); fill-opacity: 1; white-space: pre;">1500</text></g><g class="ytick"><text text-anchor="end" x="79" y="4.199999999999999" transform="translate(0,191.54000000000002)" style="font-family: 'Open Sans', verdana, arial, sans-serif; font-size: 12px; fill: rgb(42, 63, 95); fill-opacity: 1; white-space: pre;">2000</text></g><g class="ytick"><text text-anchor="end" x="79" y="4.199999999999999" transform="translate(0,124.28999999999999)" style="font-family: 'Open Sans', verdana, arial, sans-serif; font-size: 12px; fill: rgb(42, 63, 95); fill-opacity: 1; white-space: pre;">2500</text></g></g><g class="overaxes-above"/></g></g><g class="polarlayer"/><g class="ternarylayer"/><g class="geolayer"/><g class="funnelarealayer"/><g class="pielayer"/><g class="treemaplayer"/><g class="sunburstlayer"/><g class="glimages"/><defs id="topdefs-edf2a1"><g class="clips"/><clipPath id="legendedf2a1"><rect width="137" height="67" x="0" y="0"/></clipPath></defs><g class="layer-above"><g class="imagelayer"/><g class="shapelayer"/></g><g class="infolayer"><g class="legend" pointer-events="all" transform="translate(551.24, 100)"><rect class="bg" shape-rendering="crispEdges" width="137" height="67" x="0" y="0" style="stroke: rgb(68, 68, 68); stroke-opacity: 1; fill: rgb(255, 255, 255); fill-opacity: 1; stroke-width: 0px;"/><g class="scrollbox" transform="translate(0, 0)" clip-path="url('#legendedf2a1')"><g class="groups"><g class="traces" transform="translate(0, 14.5)" style="opacity: 1;"><text class="legendtext" text-anchor="start" x="40" y="4.680000000000001" style="font-family: 'Open Sans', verdana, arial, sans-serif; font-size: 12px; fill: rgb(42, 63, 95); fill-opacity: 1; white-space: pre;">Average Class I</text><g class="layers" style="opacity: 1;"><g class="legendfill"/><g class="legendlines"><path class="js-line" d="M5,0h30" style="fill: none; stroke: rgb(0, 100, 80); stroke-opacity: 1; stroke-width: 2px;"/></g><g class="legendsymbols"><g class="legendpoints"/></g></g><rect class="legendtoggle" x="0" y="-9.5" width="131.15625" height="19" style="fill: rgb(0, 0, 0); fill-opacity: 0;"/></g><g class="traces" transform="translate(0, 33.5)" style="opacity: 1;"><text class="legendtext" text-anchor="start" x="40" y="4.680000000000001" style="font-family: 'Open Sans', verdana, arial, sans-serif; font-size: 12px; fill: rgb(42, 63, 95); fill-opacity: 1; white-space: pre;">Average Class II</text><g class="layers" style="opacity: 1;"><g class="legendfill"/><g class="legendlines"><path class="js-line" d="M5,0h30" style="fill: none; stroke: rgb(0, 176, 246); stroke-opacity: 1; stroke-width: 2px;"/></g><g class="legendsymbols"><g class="legendpoints"/></g></g><rect class="legendtoggle" x="0" y="-9.5" width="131.15625" height="19" style="fill: rgb(0, 0, 0); fill-opacity: 0;"/></g><g class="traces" transform="translate(0, 52.5)" style="opacity: 1;"><text class="legendtext" text-anchor="start" x="40" y="4.680000000000001" style="font-family: 'Open Sans', verdana, arial, sans-serif; font-size: 12px; fill: rgb(42, 63, 95); fill-opacity: 1; white-space: pre;">Average Class III</text><g class="layers" style="opacity: 1;"><g class="legendfill"/><g class="legendlines"><path class="js-line" d="M5,0h30" style="fill: none; stroke: rgb(231, 107, 243); stroke-opacity: 1; stroke-width: 2px;"/></g><g class="legendsymbols"><g class="legendpoints"/></g></g><rect class="legendtoggle" x="0" y="-9.5" width="131.15625" height="19" style="fill: rgb(0, 0, 0); fill-opacity: 0;"/></g></g></g><rect class="scrollbar" rx="20" ry="3" width="0" height="0" x="0" y="0" style="fill: rgb(128, 139, 164); fill-opacity: 1;"/></g><g class="g-gtitle"><text class="gtitle" x="35" y="50" text-anchor="start" dy="0em" style="font-family: 'Open Sans', verdana, arial, sans-serif; font-size: 17px; fill: rgb(42, 63, 95); opacity: 1; font-weight: normal; white-space: pre;">Average curve: hydropathy_group</text></g><g class="g-xtitle"><text class="xtitle" x="311" y="460.8" text-anchor="middle" style="font-family: 'Open Sans', verdana, arial, sans-serif; font-size: 14px; fill: rgb(42, 63, 95); opacity: 1; font-weight: normal; white-space: pre;">Domain</text></g><g class="g-ytitle"><text class="ytitle" transform="rotate(-90,27.496875000000003,260)" x="27.496875000000003" y="260" text-anchor="middle" style="font-family: 'Open Sans', verdana, arial, sans-serif; font-size: 14px; fill: rgb(42, 63, 95); opacity: 1; font-weight: normal; white-space: pre;">Frequency</text></g></g></svg>