<svg class="main-svg" xmlns="http://www.w3.org/2000/svg" xmlns:xlink="http://www.w3.org/1999/xlink" width="700" height="500" style="" viewBox="0 0 700 500"><rect x="0" y="0" width="700" height="500" style="fill: rgb(255, 255, 255); fill-opacity: 1;"/><defs id="defs-038dc7"><g class="clips"><clipPath id="clip038dc7xyplot" class="plotclip"><rect width="462" height="320"/></clipPath><clipPath class="axesclip" id="clip038dc7x"><rect x="80" y="0" width="462" height="500"/></clipPath><clipPath class="axesclip" id="clip038dc7y"><rect x="0" y="100" width="700" height="320"/></clipPath><clipPath class="axesclip" id="clip038dc7xy"><rect x="80" y="100" width="462" height="320"/></clipPath></g><g class="gradients"/></defs><g class="bglayer"><rect class="bg" x="80" y="100" width="462" height="320" style="fill: rgb(229, 236, 246); fill-opacity: 1; stroke-width: 0;"/></g><g class="layer-below"><g class="imagelayer"/><g class="shapelayer"/></g><g class="cartesianlayer"><g class="subplot xy"><g class="layer-subplot"><g class="shapelayer"/><g class="imagelayer"/></g><g class="gridlayer"><g class="x"><path class="xgrid crisp" transform="translate(170.23000000000002,0)" d="M0,100v320" style="stroke: rgb(255, 255, 255); stroke-opacity: 1; stroke-width: 1px;"/><path class="xgrid crisp" transform="translate(260.47,0)" d="M0,100v320" style="stroke: rgb(255, 255, 255); stroke-opacity: 1; stroke-width: 1px;"/><path class="xgrid crisp" transform="translate(350.7,0)" d="M0,100v320" style="stroke: rgb(255, 255, 255); stroke-opacity: 1; stroke-width: 1px;"/><path class="xgrid crisp" transform="translate(440.94,0)" d="M0,100v320" style="stroke: rgb(255, 255, 255); stroke-opacity: 1; stroke-width: 1px;"/><path class="xgrid crisp" transform="translate(531.1700000000001,0)" d="M0,100v320" style="stroke: rgb(255, 255, 255); stroke-opacity: 1; stroke-width: 1px;"/></g><g class="y"><path class="ygrid crisp" transform="translate(0,368.36)" d="M80,0h462" style="stroke: rgb(255, 255, 255); stroke-opacity: 1; stroke-width: 1px;"/><path class="ygrid crisp" transform="translate(0,282.73)" d="M80,0h462" style="stroke: rgb(255, 255, 255); stroke-opacity: 1; stroke-width: 1px;"/><path class="ygrid crisp" transform="translate(0,197.1)" d="M80,0h462" style="stroke: rgb(255, 255, 255); stroke-opacity: 1; stroke-width: 1px;"/><path class="ygrid crisp" transform="translate(0,111.47)" d="M80,0h462" style="stroke: rgb(255, 255, 255); stroke-opacity: 1; stroke-width: 1px;"/></g></g><g class="zerolinelayer"><path class="xzl zl crisp" transform="translate(80,0)" d="M0,100v320" style="stroke: rgb(255, 255, 255); stroke-opacity: 1; stroke-width: 2px;"/></g><path class="xlines-below"/><path class="ylines-below"/><g class="overlines-below"/><g class="xaxislayer-below"/><g class="yaxislayer-below"/><g class="overaxes-below"/><g class="plot" transform="translate(80, 100)" clip-path="url('#clip038dc7xyplot')"><g class="scatterlayer mlayer"><g class="trace scatter traced4c086" style="stroke-miterlimit: 2; opacity: 1;"><g class="fills"/><g class="errorbars"/><g class="lines"><path class="js-line" d="M0,73.59Q0.61,73.53 0.9,73.43C1.21,73.33 1.52,73.17 1.81,72.99C2.12,72.8 2.42,72.55 2.71,72.29C3.02,72.02 3.32,71.7 3.62,71.38C3.93,71.05 4.22,70.69 4.52,70.33C4.82,69.97 5.12,69.58 5.42,69.21C5.72,68.83 6.02,68.45 6.33,68.08C6.63,67.72 6.92,67.36 7.23,67.03C7.53,66.71 7.83,66.39 8.14,66.11C8.43,65.85 8.73,65.59 9.04,65.39C9.33,65.2 9.64,65.03 9.95,64.92C10.24,64.82 10.55,64.74 10.85,64.74C11.15,64.74 11.46,64.8 11.75,64.91C12.06,65.03 12.37,65.21 12.66,65.43C12.98,65.68 13.27,66 13.56,66.35C13.88,66.74 14.18,67.2 14.47,67.68C14.79,68.21 15.08,68.81 15.37,69.43C15.68,70.11 15.98,70.83 16.27,71.59C16.58,72.41 16.89,73.28 17.18,74.17C17.49,75.12 17.79,76.12 18.08,77.14C18.39,78.22 18.7,79.35 18.99,80.5C19.3,81.71 19.6,82.95 19.89,84.22C20.2,85.54 20.49,86.88 20.79,88.25C21.1,89.66 21.4,91.11 21.7,92.57C22.01,94.07 22.3,95.59 22.6,97.12C22.9,98.68 23.21,100.26 23.51,101.85C23.81,103.45 24.11,105.07 24.41,106.69C24.71,108.31 25.02,109.94 25.32,111.56C25.62,113.17 25.92,114.79 26.22,116.38C26.52,117.95 26.81,119.51 27.12,121.05C27.42,122.55 27.72,124.03 28.03,125.48C28.33,126.88 28.62,128.27 28.93,129.61C29.23,130.9 29.53,132.17 29.84,133.39C30.13,134.55 30.43,135.68 30.74,136.77C31.03,137.79 31.33,138.78 31.64,139.72C31.93,140.59 32.24,141.43 32.55,142.23C32.84,142.97 33.14,143.68 33.45,144.35C33.74,144.98 34.05,145.58 34.36,146.15C34.65,146.69 34.94,147.24 35.26,147.7C35.54,148.11 35.84,148.5 36.16,148.8C36.44,149.06 36.75,149.33 37.07,149.42C37.36,149.51 37.67,149.4 37.97,149.4C38.27,149.4 38.58,149.39 38.88,149.45C39.18,149.51 39.49,149.61 39.78,149.75C40.09,149.9 40.39,150.11 40.68,150.35C41,150.61 41.3,150.93 41.59,151.27C41.91,151.64 42.2,152.06 42.49,152.5C42.8,152.98 43.11,153.5 43.4,154.03C43.71,154.6 43.99,155.25 44.3,155.81C44.59,156.34 44.91,156.8 45.21,157.31C45.51,157.83 45.81,158.37 46.11,158.88C46.41,159.38 46.7,159.9 47.01,160.37C47.3,160.82 47.61,161.24 47.92,161.65C48.22,162.04 48.51,162.42 48.82,162.77C49.12,163.11 49.42,163.44 49.73,163.73C50.02,164.01 50.31,164.32 50.63,164.5C50.92,164.66 51.23,164.73 51.53,164.8C51.83,164.87 52.14,164.88 52.44,164.92C52.74,164.95 53.04,164.97 53.34,165.01C53.64,165.06 53.95,165.1 54.25,165.19C54.56,165.29 54.86,165.41 55.15,165.58C55.46,165.76 55.76,166 56.05,166.28C56.37,166.59 56.67,166.96 56.96,167.36C57.28,167.81 57.57,168.33 57.86,168.87C58.18,169.47 58.48,170.12 58.77,170.81C59.09,171.56 59.38,172.37 59.67,173.21C59.99,174.13 60.29,175.12 60.58,176.14C60.89,177.24 61.19,178.41 61.48,179.61C61.79,180.89 62.09,182.24 62.38,183.61C62.69,185.06 62.99,186.57 63.29,188.08C63.6,189.64 63.89,191.23 64.19,192.84C64.5,194.49 64.8,196.15 65.1,197.84C65.41,199.57 65.7,201.33 66,203.1C66.3,204.91 66.6,206.74 66.9,208.58C67.2,210.45 67.51,212.33 67.81,214.22C68.11,216.12 68.41,218.03 68.71,219.93C69.01,221.84 69.32,223.75 69.62,225.65C69.92,227.54 70.22,229.44 70.52,231.32C70.82,233.18 71.11,235.04 71.42,236.86C71.72,238.63 72.02,240.41 72.33,242.11C72.62,243.72 72.91,245.33 73.23,246.79C73.52,248.09 73.82,249.32 74.14,250.46C74.43,251.48 74.72,252.43 75.04,253.33C75.33,254.15 75.63,254.94 75.95,255.64C76.23,256.26 76.54,256.81 76.85,257.34C77.14,257.84 77.44,258.31 77.75,258.75C78.04,259.17 78.35,259.56 78.66,259.93C78.95,260.28 79.25,260.61 79.56,260.9C79.85,261.17 80.15,261.44 80.47,261.61C80.76,261.77 81.07,261.9 81.37,261.93C81.67,261.95 81.98,261.89 82.27,261.77C82.59,261.63 82.9,261.39 83.18,261.1C83.51,260.76 83.8,260.3 84.08,259.82C84.4,259.28 84.7,258.64 84.99,257.99C85.31,257.29 85.6,256.54 85.89,255.76C86.2,254.93 86.49,254.02 86.79,253.15C87.09,252.27 87.4,251.37 87.7,250.49C88,249.63 88.29,248.77 88.6,247.94C88.9,247.14 89.2,246.35 89.51,245.59C89.8,244.87 90.1,244.16 90.41,243.48C90.7,242.84 91.01,242.22 91.32,241.64C91.61,241.09 91.91,240.56 92.22,240.07C92.51,239.61 92.81,239.18 93.12,238.78C93.41,238.4 93.72,238.04 94.03,237.71C94.32,237.39 94.62,237.1 94.93,236.82C95.23,236.55 95.54,236.3 95.84,236.05C96.14,235.8 96.44,235.56 96.74,235.3C97.04,235.03 97.35,234.76 97.64,234.46C97.95,234.15 98.25,233.81 98.55,233.46C98.86,233.09 99.15,232.69 99.45,232.29C99.76,231.88 100.05,231.43 100.36,231.02C100.66,230.61 100.95,230.2 101.26,229.83C101.55,229.48 101.85,229.13 102.16,228.84C102.45,228.57 102.76,228.32 103.07,228.12C103.36,227.94 103.66,227.79 103.97,227.69C104.27,227.6 104.58,227.56 104.88,227.54C105.18,227.52 105.48,227.53 105.78,227.57C106.08,227.61 106.38,227.7 106.68,227.79C106.99,227.88 107.29,228.01 107.59,228.13C107.89,228.25 108.19,228.37 108.49,228.5C108.79,228.63 109.1,228.76 109.4,228.89C109.7,229.02 110,229.14 110.3,229.27C110.6,229.41 110.91,229.53 111.21,229.7C111.52,229.88 111.82,230.09 112.11,230.32C112.42,230.56 112.71,230.84 113.01,231.12C113.32,231.41 113.63,231.69 113.92,232.01C114.23,232.35 114.53,232.72 114.82,233.11C115.13,233.52 115.44,233.97 115.73,234.43C116.04,234.92 116.34,235.44 116.63,235.98C116.94,236.54 117.23,237.13 117.53,237.74C117.84,238.37 118.14,239.03 118.44,239.7C118.75,240.4 119.04,241.13 119.34,241.87C119.65,242.64 119.95,243.43 120.25,244.23C120.56,245.06 120.85,245.91 121.15,246.77C121.45,247.66 121.75,248.56 122.05,249.48C122.36,250.42 122.66,251.37 122.96,252.33C123.26,253.31 123.56,254.3 123.86,255.29C124.16,256.29 124.47,257.3 124.77,258.3C125.07,259.3 125.37,260.3 125.67,261.29C125.97,262.26 126.27,263.24 126.58,264.19C126.88,265.1 127.17,266.01 127.48,266.87C127.77,267.68 128.06,268.48 128.38,269.2C128.67,269.84 128.92,270.59 129.29,270.99C129.56,271.29 129.88,271.54 130.19,271.57C130.49,271.6 130.81,271.39 131.1,271.21C131.42,271 131.72,270.69 132,270.35C132.33,269.96 132.61,269.45 132.9,268.95C133.22,268.4 133.52,267.78 133.81,267.15C134.12,266.49 134.41,265.77 134.71,265.07C135.01,264.37 135.32,263.65 135.62,262.95C135.92,262.25 136.22,261.56 136.52,260.87C136.82,260.2 137.12,259.53 137.42,258.87C137.72,258.22 138.03,257.59 138.33,256.96C138.63,256.34 138.93,255.73 139.23,255.12C139.53,254.51 139.84,253.9 140.14,253.3C140.44,252.71 140.73,252.12 141.04,251.56C141.34,251.02 141.64,250.48 141.95,249.98C142.24,249.51 142.54,249.06 142.85,248.66C143.14,248.29 143.43,247.93 143.75,247.63C144.04,247.36 144.34,247.11 144.66,246.93C144.95,246.76 145.25,246.63 145.56,246.57C145.86,246.51 146.17,246.51 146.47,246.57C146.78,246.63 147.08,246.76 147.37,246.93C147.69,247.12 147.98,247.39 148.27,247.69C148.59,248.03 148.89,248.44 149.18,248.88C149.5,249.37 149.79,249.93 150.08,250.52C150.4,251.17 150.7,251.87 150.99,252.61C151.31,253.41 151.6,254.26 151.89,255.14C152.2,256.08 152.5,257.07 152.79,258.08C153.1,259.15 153.4,260.27 153.7,261.41C154.01,262.59 154.3,263.81 154.6,265.04C154.91,266.31 155.21,267.62 155.51,268.92C155.81,270.24 156.11,271.6 156.41,272.93C156.71,274.26 157.01,275.61 157.32,276.92C157.62,278.2 157.91,279.48 158.22,280.7C158.51,281.84 158.8,282.97 159.12,284.02C159.41,284.98 159.7,285.92 160.03,286.74C160.31,287.44 160.58,288.15 160.93,288.66C161.2,289.07 161.5,289.49 161.84,289.64C162.12,289.77 162.46,289.76 162.74,289.67C163.06,289.56 163.36,289.26 163.64,288.95C163.97,288.58 164.27,288.08 164.55,287.57C164.87,286.98 165.16,286.31 165.45,285.61C165.77,284.84 166.07,284.01 166.36,283.16C166.67,282.25 166.97,281.29 167.26,280.3C167.57,279.24 167.87,278.14 168.16,277.01C168.47,275.81 168.77,274.54 169.07,273.28C169.37,272 169.67,270.7 169.97,269.4C170.27,268.08 170.58,266.76 170.88,265.43C171.18,264.1 171.48,262.77 171.78,261.43C172.08,260.06 172.38,258.69 172.68,257.3C172.98,255.89 173.29,254.46 173.59,253.04C173.89,251.61 174.19,250.16 174.49,248.73C174.79,247.32 175.1,245.91 175.4,244.51C175.7,243.13 176,241.75 176.3,240.38C176.6,239.02 176.91,237.67 177.21,236.33C177.51,235.02 177.8,233.72 178.11,232.45C178.41,231.22 178.7,230.01 179.01,228.84C179.31,227.71 179.61,226.61 179.92,225.54C180.21,224.52 180.51,223.51 180.82,222.55C181.11,221.64 181.42,220.75 181.73,219.9C182.02,219.1 182.32,218.31 182.63,217.57C182.92,216.87 183.22,216.2 183.53,215.56C183.82,214.96 184.13,214.39 184.44,213.85C184.73,213.35 185.03,212.87 185.34,212.42C185.63,212 185.94,211.6 186.25,211.23C186.54,210.88 186.84,210.56 187.15,210.26C187.44,209.97 187.74,209.71 188.05,209.46C188.35,209.22 188.65,209.01 188.96,208.81C189.26,208.61 189.56,208.43 189.86,208.26C190.16,208.09 190.47,207.94 190.77,207.78C191.07,207.62 191.38,207.5 191.67,207.3C191.99,207.08 192.28,206.78 192.58,206.51C192.88,206.24 193.17,205.94 193.48,205.69C193.77,205.45 194.07,205.21 194.38,205.01C194.68,204.82 194.98,204.64 195.29,204.52C195.58,204.41 195.89,204.31 196.19,204.29C196.49,204.27 196.81,204.29 197.1,204.37C197.41,204.46 197.71,204.62 198,204.83C198.32,205.06 198.62,205.37 198.9,205.71C199.22,206.1 199.52,206.56 199.81,207.05C200.13,207.61 200.42,208.24 200.71,208.9C201.03,209.64 201.33,210.44 201.62,211.28C201.94,212.2 202.23,213.19 202.52,214.22C202.83,215.33 203.13,216.51 203.42,217.72C203.73,219.02 204.04,220.37 204.33,221.77C204.64,223.25 204.94,224.8 205.23,226.37C205.54,228.02 205.84,229.73 206.14,231.47C206.45,233.27 206.74,235.13 207.04,237C207.35,238.93 207.65,240.9 207.95,242.89C208.26,244.94 208.55,247.03 208.85,249.15C209.15,251.32 209.45,253.54 209.75,255.76C210.05,258.03 210.36,260.33 210.66,262.63C210.96,264.96 211.26,267.32 211.56,269.67C211.86,272.01 212.17,274.38 212.47,276.7C212.77,278.99 213.06,281.28 213.37,283.51C213.66,285.65 213.96,287.79 214.27,289.82C214.56,291.73 214.86,293.62 215.18,295.35C215.47,296.9 215.74,298.44 216.08,299.74C216.36,300.81 216.63,301.87 216.99,302.64C217.26,303.2 217.55,303.93 217.89,304C218.16,304.06 218.53,303.76 218.79,303.42C219.22,302.85 219.42,301.6 219.7,300.51C220.04,299.16 220.31,297.52 220.6,295.9C220.92,294.11 221.22,292.18 221.51,290.24C221.82,288.2 222.11,286.07 222.41,283.93C222.72,281.71 223.02,279.42 223.32,277.16C223.62,274.89 223.92,272.6 224.22,270.33C224.52,268.08 224.82,265.82 225.12,263.59C225.42,261.39 225.73,259.19 226.03,257.02C226.33,254.88 226.63,252.77 226.93,250.65C227.23,248.54 227.54,246.42 227.84,244.33C228.14,242.28 228.44,240.25 228.74,238.23C229.04,236.24 229.34,234.27 229.64,232.29C229.94,230.32 230.25,228.35 230.55,226.39C230.85,224.44 231.15,222.48 231.45,220.54C231.75,218.61 232.06,216.68 232.36,214.77C232.66,212.87 232.96,210.99 233.26,209.11C233.56,207.26 233.86,205.41 234.16,203.58C234.46,201.77 234.77,199.98 235.07,198.2C235.37,196.44 235.67,194.69 235.97,192.94C236.27,191.21 236.58,189.48 236.88,187.77C237.18,186.07 237.48,184.39 237.78,182.71C238.08,181.05 238.38,179.39 238.68,177.75C238.98,176.13 239.29,174.51 239.59,172.91C239.89,171.33 240.19,169.76 240.49,168.2C240.79,166.67 241.1,165.15 241.4,163.64C241.7,162.16 242,160.69 242.3,159.24C242.6,157.81 242.91,156.4 243.21,155C243.51,153.62 243.81,152.25 244.11,150.89C244.41,149.53 244.71,148.19 245.01,146.84C245.31,145.48 245.62,144.13 245.92,142.74C246.23,141.32 246.52,139.89 246.82,138.41C247.13,136.86 247.44,135.29 247.73,133.66C248.04,131.93 248.34,130.14 248.63,128.3C248.94,126.35 249.24,124.34 249.53,122.28C249.84,120.12 250.14,117.89 250.44,115.64C250.75,113.31 251.04,110.93 251.34,108.54C251.64,106.11 251.95,103.65 252.25,101.2C252.55,98.75 252.85,96.29 253.15,93.86C253.45,91.46 253.74,89.07 254.05,86.72C254.35,84.44 254.65,82.18 254.96,79.98C255.26,77.87 255.55,75.78 255.86,73.77C256.15,71.87 256.46,70.01 256.77,68.23C257.06,66.58 257.35,64.96 257.67,63.45C257.96,62.07 258.26,60.73 258.58,59.51C258.86,58.43 259.15,57.39 259.48,56.49C259.76,55.73 260.03,54.98 260.38,54.43C260.65,54 260.95,53.55 261.29,53.39C261.57,53.26 261.92,53.26 262.19,53.38C262.53,53.54 262.83,54 263.1,54.44C263.45,55 263.72,55.77 264,56.56C264.33,57.5 264.62,58.59 264.9,59.72C265.22,61.01 265.52,62.43 265.81,63.9C266.13,65.53 266.42,67.27 266.71,69.06C267.02,71 267.33,73.03 267.62,75.12C267.93,77.34 268.23,79.66 268.52,82.02C268.83,84.5 269.12,87.05 269.42,89.64C269.73,92.33 270.03,95.08 270.33,97.86C270.64,100.72 270.93,103.63 271.23,106.55C271.53,109.53 271.84,112.55 272.14,115.56C272.44,118.6 272.74,121.66 273.04,124.7C273.34,127.74 273.65,130.8 273.95,133.82C274.25,136.81 274.55,139.79 274.85,142.73C275.15,145.6 275.44,148.47 275.75,151.26C276.05,153.94 276.35,156.63 276.66,159.15C276.95,161.48 277.24,163.76 277.56,165.86C277.85,167.73 278.15,169.5 278.47,171.13C278.75,172.56 279.04,173.93 279.37,175.15C279.65,176.19 279.93,177.19 280.27,178.02C280.55,178.71 280.8,179.47 281.18,179.83C281.44,180.08 281.78,180.21 282.08,180.22C282.38,180.23 282.71,180.08 282.99,179.89C283.32,179.67 283.61,179.3 283.89,178.93C284.21,178.51 284.5,177.99 284.79,177.47C285.11,176.9 285.4,176.27 285.7,175.64C286.01,174.98 286.3,174.29 286.6,173.61C286.9,172.93 287.2,172.24 287.51,171.58C287.81,170.95 288.1,170.31 288.41,169.73C288.7,169.2 289,168.67 289.32,168.23C289.6,167.84 289.89,167.46 290.22,167.21C290.5,167 290.81,166.82 291.12,166.79C291.42,166.76 291.75,166.87 292.03,167.04C292.36,167.24 292.65,167.63 292.93,168.03C293.27,168.52 293.56,169.14 293.84,169.79C294.17,170.54 294.46,171.4 294.74,172.3C295.06,173.31 295.35,174.42 295.64,175.56C295.96,176.8 296.26,178.12 296.55,179.47C296.86,180.91 297.15,182.42 297.45,183.93C297.76,185.49 298.06,187.1 298.36,188.7C298.66,190.32 298.96,191.97 299.26,193.59C299.56,195.19 299.85,196.81 300.16,198.35C300.45,199.82 300.76,201.27 301.07,202.65C301.36,203.94 301.63,205.28 301.97,206.39C302.25,207.31 302.53,208.19 302.88,208.88C303.15,209.42 303.43,210.11 303.78,210.24C304.05,210.34 304.41,210.18 304.68,209.99C305.03,209.74 305.32,209.23 305.59,208.71C305.95,208.02 306.21,207.09 306.49,206.15C306.82,205.03 307.12,203.75 307.4,202.41C307.72,200.88 308.01,199.15 308.3,197.46C308.61,195.68 308.91,193.82 309.21,191.99C309.51,190.16 309.81,188.3 310.11,186.48C310.41,184.68 310.7,182.87 311.01,181.11C311.31,179.39 311.61,177.69 311.92,176.03C312.22,174.44 312.51,172.87 312.82,171.36C313.11,169.94 313.42,168.54 313.73,167.22C314.02,165.99 314.31,164.79 314.63,163.67C314.92,162.65 315.21,161.66 315.53,160.76C315.82,159.96 316.11,159.2 316.44,158.54C316.72,157.98 317,157.44 317.34,157.05C317.62,156.73 317.93,156.42 318.25,156.31C318.53,156.21 318.87,156.23 319.15,156.34C319.48,156.47 319.77,156.8 320.05,157.14C320.39,157.56 320.68,158.13 320.96,158.72C321.29,159.41 321.58,160.22 321.86,161.06C322.18,162.02 322.48,163.08 322.77,164.17C323.09,165.38 323.38,166.67 323.67,168C323.98,169.44 324.29,170.97 324.58,172.53C324.89,174.2 325.19,175.94 325.48,177.72C325.79,179.6 326.08,181.54 326.38,183.52C326.69,185.59 326.99,187.71 327.29,189.87C327.6,192.1 327.89,194.39 328.19,196.7C328.5,199.08 328.8,201.5 329.1,203.94C329.4,206.43 329.7,208.96 330,211.49C330.3,214.06 330.6,216.65 330.9,219.24C331.2,221.84 331.51,224.47 331.81,227.07C332.11,229.65 332.41,232.24 332.71,234.8C333.01,237.32 333.31,239.84 333.62,242.3C333.92,244.69 334.21,247.06 334.52,249.36C334.81,251.55 335.11,253.68 335.42,255.77C335.72,257.77 336.02,259.72 336.33,261.64C336.63,263.49 336.92,265.3 337.23,267.08C337.53,268.8 337.83,270.5 338.14,272.14C338.43,273.69 338.73,275.2 339.04,276.65C339.33,278.02 339.64,279.34 339.95,280.61C340.24,281.8 340.54,282.96 340.85,284.06C341.14,285.07 341.42,286.08 341.75,286.96C342.03,287.73 342.3,288.55 342.66,289.09C342.93,289.49 343.23,289.81 343.56,290C343.84,290.17 344.17,290.25 344.47,290.26C344.77,290.27 345.08,290.18 345.37,290.04C345.69,289.89 345.98,289.63 346.27,289.36C346.59,289.06 346.89,288.69 347.18,288.31C347.49,287.9 347.78,287.43 348.08,286.97C348.39,286.49 348.69,285.98 348.99,285.48C349.29,284.97 349.59,284.46 349.89,283.94C350.19,283.42 350.49,282.9 350.79,282.37C351.09,281.83 351.41,281.31 351.7,280.72C352.02,280.08 352.3,279.35 352.6,278.66C352.9,277.95 353.21,277.25 353.51,276.52C353.82,275.76 354.11,274.95 354.41,274.17C354.71,273.38 355.02,272.6 355.32,271.81C355.62,271.02 355.93,270.26 356.22,269.45C356.53,268.6 356.82,267.73 357.12,266.84C357.43,265.91 357.73,264.96 358.03,264C358.34,263.01 358.63,261.98 358.93,260.96C359.23,259.92 359.54,258.87 359.84,257.82C360.14,256.75 360.44,255.68 360.74,254.59C361.04,253.47 361.34,252.34 361.64,251.19C361.95,250.01 362.25,248.82 362.55,247.6C362.86,246.35 363.15,245.06 363.45,243.79C363.75,242.51 364.06,241.21 364.36,239.93C364.66,238.66 364.96,237.39 365.26,236.13C365.56,234.89 365.86,233.66 366.16,232.45C366.46,231.26 366.76,230.06 367.07,228.9C367.37,227.77 367.66,226.65 367.97,225.58C368.26,224.57 368.57,223.57 368.88,222.63C369.17,221.76 369.46,220.91 369.78,220.14C370.07,219.44 370.36,218.77 370.68,218.18C370.96,217.67 371.26,217.18 371.59,216.8C371.87,216.48 372.17,216.18 372.49,216.03C372.78,215.9 373.11,215.84 373.4,215.9C373.71,215.96 374.02,216.19 374.3,216.44C374.63,216.74 374.92,217.2 375.21,217.62C375.52,218.06 375.8,218.57 376.11,219.02C376.4,219.45 376.72,219.82 377.01,220.28C377.33,220.79 377.63,221.36 377.92,221.96C378.24,222.61 378.53,223.31 378.82,224.04C379.13,224.82 379.43,225.67 379.73,226.49C380.03,227.32 380.34,228.14 380.63,229.01C380.94,229.93 381.23,230.89 381.53,231.85C381.83,232.83 382.13,233.86 382.44,234.82C382.74,235.74 383.03,236.65 383.34,237.52C383.63,238.35 383.94,239.14 384.25,239.92C384.55,240.67 384.83,241.43 385.15,242.1C385.43,242.7 385.71,243.32 386.05,243.75C386.33,244.09 386.64,244.47 386.96,244.53C387.25,244.59 387.59,244.44 387.86,244.23C388.22,243.94 388.49,243.31 388.77,242.75C389.1,242.1 389.39,241.34 389.67,240.53C390,239.59 390.29,238.52 390.58,237.43C390.9,236.22 391.19,234.91 391.48,233.58C391.79,232.17 392.08,230.67 392.38,229.19C392.69,227.67 392.99,226.11 393.29,224.55C393.59,222.97 393.89,221.36 394.19,219.76C394.49,218.14 394.8,216.51 395.1,214.89C395.4,213.27 395.7,211.65 396,210.04C396.3,208.45 396.6,206.86 396.9,205.29C397.2,203.76 397.5,202.23 397.81,200.74C398.11,199.3 398.4,197.88 398.71,196.5C399.01,195.18 399.31,193.88 399.62,192.64C399.91,191.47 400.21,190.32 400.52,189.24C400.81,188.24 401.1,187.26 401.42,186.36C401.71,185.54 402.01,184.75 402.33,184.05C402.61,183.44 402.9,182.85 403.23,182.37C403.51,181.97 403.81,181.58 404.14,181.34C404.42,181.14 404.74,180.98 405.04,180.97C405.34,180.96 405.67,181.11 405.95,181.3C406.28,181.52 406.57,181.91 406.85,182.31C407.18,182.78 407.47,183.38 407.75,184C408.08,184.71 408.37,185.52 408.66,186.36C408.98,187.3 409.27,188.32 409.56,189.37C409.88,190.52 410.18,191.74 410.47,193C410.78,194.35 411.08,195.76 411.37,197.21C411.68,198.74 411.98,200.33 412.27,201.95C412.58,203.65 412.88,205.4 413.18,207.17C413.49,209.01 413.78,210.9 414.08,212.81C414.39,214.77 414.69,216.76 414.99,218.76C415.29,220.79 415.59,222.86 415.89,224.88C416.19,226.86 416.49,228.79 416.79,230.74C417.09,232.67 417.4,234.61 417.7,236.52C418,238.4 418.29,240.28 418.6,242.13C418.9,243.94 419.2,245.74 419.51,247.49C419.81,249.18 420.1,250.87 420.41,252.46C420.7,253.94 421.01,255.36 421.32,256.74C421.61,258.04 421.91,259.29 422.22,260.52C422.51,261.69 422.81,262.83 423.12,263.95C423.42,265.02 423.72,266.07 424.03,267.08C424.32,268.03 424.62,268.97 424.93,269.85C425.22,270.66 425.53,271.44 425.84,272.17C426.13,272.85 426.43,273.49 426.74,274.1C427.03,274.68 427.32,275.27 427.64,275.76C427.92,276.19 428.23,276.58 428.55,276.89C428.84,277.17 429.13,277.42 429.45,277.58C429.74,277.73 430.06,277.84 430.36,277.85C430.66,277.86 430.97,277.8 431.26,277.67C431.58,277.53 431.87,277.25 432.16,277C432.47,276.73 432.78,276.4 433.07,276.07C433.38,275.72 433.67,275.33 433.97,274.96C434.27,274.59 434.57,274.2 434.88,273.84C435.18,273.5 435.47,273.16 435.78,272.85C436.07,272.55 436.37,272.27 436.68,272.02C436.97,271.78 437.28,271.57 437.59,271.39C437.88,271.22 438.18,271.07 438.49,270.96C438.79,270.86 439.1,270.78 439.4,270.75C439.7,270.72 440,270.72 440.3,270.76C440.6,270.8 440.91,270.89 441.21,270.99C441.52,271.09 441.81,271.23 442.11,271.38C442.41,271.53 442.71,271.7 443.01,271.88C443.31,272.06 443.62,272.27 443.92,272.45C444.22,272.63 444.51,272.81 444.82,272.95C445.12,273.09 445.42,273.19 445.73,273.29C446.03,273.38 446.33,273.47 446.63,273.52C446.93,273.57 447.23,273.57 447.53,273.57C447.83,273.57 448.14,273.58 448.44,273.54C448.74,273.5 449.04,273.42 449.34,273.31C449.65,273.2 449.95,273.04 450.25,272.89C450.55,272.74 450.85,272.56 451.15,272.4C451.45,272.24 451.75,272.07 452.05,271.93C452.35,271.79 452.65,271.65 452.96,271.54C453.26,271.43 453.56,271.34 453.86,271.27C454.16,271.21 454.47,271.16 454.77,271.15C455.07,271.14 455.37,271.16 455.67,271.2C455.97,271.24 456.28,271.31 456.58,271.41C456.88,271.51 457.18,271.63 457.48,271.78C457.79,271.93 458.08,272.11 458.38,272.3C458.69,272.5 458.99,272.72 459.29,272.95C459.59,273.18 459.89,273.43 460.19,273.68C460.49,273.93 460.8,274.2 461.1,274.45Q461.4,274.69 462,275.16" style="vector-effect: non-scaling-stroke; fill: none; stroke: rgb(0, 100, 80); stroke-opacity: 1; stroke-width: 2px; opacity: 1;"/></g><g class="points"/><g class="text"/></g><g class="trace scatter tracec74e2a" style="stroke-miterlimit: 2; opacity: 1;"><g class="fills"/><g class="errorbars"/><g class="lines"><path class="js-line" d="M0,107.74Q0.62,107.53 0.9,107.33C1.23,107.1 1.52,106.73 1.81,106.37C2.13,105.98 2.42,105.53 2.71,105.08C3.02,104.61 3.32,104.11 3.62,103.61C3.92,103.1 4.22,102.58 4.52,102.07C4.82,101.57 5.11,101.06 5.42,100.57C5.72,100.1 6.02,99.63 6.33,99.2C6.62,98.79 6.92,98.4 7.23,98.04C7.52,97.71 7.83,97.39 8.14,97.12C8.43,96.86 8.73,96.64 9.04,96.44C9.34,96.25 9.64,96.07 9.95,95.96C10.24,95.86 10.55,95.8 10.85,95.8C11.15,95.8 11.46,95.87 11.75,95.97C12.06,96.08 12.37,96.25 12.66,96.45C12.97,96.66 13.26,96.94 13.56,97.2C13.87,97.47 14.17,97.76 14.47,98.03C14.77,98.29 15.08,98.52 15.37,98.8C15.68,99.09 15.98,99.41 16.27,99.76C16.58,100.14 16.89,100.56 17.18,101.01C17.5,101.5 17.79,102.03 18.08,102.59C18.39,103.19 18.7,103.83 18.99,104.49C19.3,105.2 19.6,105.94 19.89,106.71C20.2,107.52 20.5,108.36 20.79,109.22C21.1,110.12 21.4,111.06 21.7,112.01C22.01,112.99 22.3,114.01 22.6,115.03C22.91,116.08 23.21,117.16 23.51,118.24C23.81,119.34 24.11,120.47 24.41,121.59C24.71,122.72 25.02,123.87 25.32,125.01C25.62,126.14 25.92,127.28 26.22,128.41C26.52,129.53 26.82,130.64 27.12,131.74C27.42,132.82 27.72,133.89 28.03,134.95C28.33,135.98 28.62,137 28.93,138C29.23,138.97 29.53,139.93 29.84,140.87C30.14,141.77 30.43,142.67 30.74,143.52C31.03,144.33 31.33,145.12 31.64,145.87C31.93,146.58 32.24,147.25 32.55,147.9C32.84,148.5 33.14,149.08 33.45,149.63C33.74,150.16 34.05,150.66 34.36,151.15C34.65,151.61 34.95,152.06 35.26,152.49C35.55,152.91 35.85,153.32 36.16,153.69C36.45,154.04 36.75,154.42 37.07,154.68C37.35,154.91 37.66,155.13 37.97,155.19C38.26,155.24 38.58,155.14 38.88,155.05C39.19,154.95 39.48,154.76 39.78,154.6C40.08,154.43 40.38,154.24 40.68,154.06C40.98,153.88 41.28,153.69 41.59,153.52C41.89,153.36 42.19,153.2 42.49,153.06C42.79,152.92 43.09,152.8 43.4,152.7C43.7,152.6 44,152.52 44.3,152.47C44.6,152.42 44.91,152.39 45.21,152.39C45.51,152.39 45.81,152.41 46.11,152.46C46.41,152.51 46.71,152.59 47.01,152.69C47.32,152.79 47.62,152.91 47.92,153.05C48.23,153.19 48.52,153.36 48.82,153.54C49.13,153.72 49.43,153.92 49.73,154.13C50.03,154.34 50.33,154.57 50.63,154.81C50.93,155.06 51.23,155.32 51.53,155.6C51.84,155.89 52.15,156.18 52.44,156.5C52.75,156.84 53.05,157.2 53.34,157.58C53.65,157.99 53.96,158.43 54.25,158.89C54.56,159.39 54.86,159.92 55.15,160.47C55.46,161.06 55.76,161.68 56.05,162.32C56.36,162.99 56.66,163.7 56.96,164.4C57.27,165.12 57.56,165.85 57.86,166.6C58.17,167.37 58.48,168.15 58.77,168.96C59.08,169.82 59.38,170.7 59.67,171.62C59.98,172.61 60.29,173.63 60.58,174.7C60.89,175.84 61.19,177.03 61.48,178.25C61.79,179.55 62.09,180.9 62.38,182.28C62.69,183.73 62.99,185.22 63.29,186.74C63.6,188.32 63.89,189.94 64.19,191.57C64.5,193.25 64.8,194.96 65.1,196.67C65.4,198.41 65.7,200.17 66,201.93C66.3,203.72 66.6,205.52 66.9,207.32C67.2,209.14 67.51,210.97 67.81,212.8C68.11,214.62 68.4,216.47 68.71,218.26C69.01,219.98 69.31,221.72 69.62,223.34C69.91,224.84 70.21,226.24 70.52,227.65C70.82,229.01 71.12,230.34 71.42,231.67C71.72,232.98 72.03,234.29 72.33,235.58C72.63,236.86 72.92,238.13 73.23,239.38C73.53,240.6 73.83,241.81 74.14,243C74.44,244.15 74.73,245.28 75.04,246.39C75.34,247.47 75.64,248.52 75.95,249.56C76.25,250.58 76.55,251.58 76.85,252.58C77.15,253.57 77.45,254.55 77.75,255.52C78.05,256.48 78.35,257.44 78.66,258.36C78.95,259.24 79.24,260.12 79.56,260.91C79.85,261.63 80.15,262.32 80.47,262.92C80.75,263.45 81.05,263.93 81.37,264.34C81.65,264.7 81.95,265.03 82.27,265.27C82.56,265.49 82.87,265.69 83.18,265.77C83.47,265.84 83.8,265.87 84.08,265.75C84.41,265.61 84.71,265.22 84.99,264.84C85.33,264.38 85.6,263.74 85.89,263.14C86.2,262.5 86.49,261.79 86.79,261.11C87.09,260.42 87.4,259.71 87.7,259.02C88,258.34 88.29,257.65 88.6,256.99C88.9,256.35 89.2,255.73 89.51,255.13C89.8,254.56 90.1,254 90.41,253.47C90.7,252.97 91.01,252.48 91.32,252.03C91.61,251.6 91.91,251.19 92.22,250.81C92.51,250.46 92.81,250.13 93.12,249.83C93.41,249.54 93.72,249.28 94.03,249.04C94.32,248.81 94.64,248.67 94.93,248.42C95.25,248.14 95.54,247.78 95.84,247.43C96.15,247.06 96.44,246.67 96.74,246.27C97.04,245.87 97.35,245.46 97.64,245.03C97.95,244.57 98.26,244.11 98.55,243.58C98.87,242.99 99.17,242.35 99.45,241.64C99.78,240.83 100.07,239.89 100.36,238.98C100.67,238.02 100.96,236.99 101.26,236C101.56,235 101.86,233.99 102.16,233.01C102.46,232.05 102.76,231.08 103.07,230.16C103.36,229.28 103.66,228.42 103.97,227.6C104.26,226.84 104.56,226.09 104.88,225.41C105.17,224.79 105.46,224.2 105.78,223.67C106.06,223.2 106.36,222.75 106.68,222.39C106.96,222.07 107.27,221.81 107.59,221.6C107.88,221.41 108.2,221.35 108.49,221.15C108.81,220.93 109.08,220.54 109.4,220.31C109.69,220.09 109.99,219.9 110.3,219.78C110.59,219.66 110.91,219.59 111.21,219.58C111.51,219.57 111.82,219.62 112.11,219.71C112.42,219.81 112.72,219.98 113.01,220.18C113.33,220.4 113.63,220.68 113.92,220.98C114.24,221.31 114.52,221.74 114.82,222.11C115.12,222.48 115.43,222.81 115.73,223.19C116.04,223.58 116.34,223.99 116.63,224.42C116.94,224.88 117.23,225.37 117.53,225.86C117.83,226.36 118.13,226.89 118.44,227.37C118.73,227.82 119.03,228.25 119.34,228.64C119.63,229 119.95,229.3 120.25,229.64C120.55,229.98 120.86,230.32 121.15,230.69C121.46,231.07 121.75,231.48 122.05,231.9C122.36,232.34 122.66,232.79 122.96,233.27C123.27,233.77 123.57,234.28 123.86,234.82C124.17,235.38 124.48,235.96 124.77,236.57C125.08,237.21 125.37,237.87 125.67,238.55C125.98,239.25 126.28,239.98 126.58,240.72C126.89,241.47 127.18,242.25 127.48,243.02C127.78,243.79 128.07,244.57 128.38,245.32C128.68,246.04 128.95,246.83 129.29,247.41C129.57,247.88 129.85,248.35 130.19,248.59C130.47,248.78 130.8,248.87 131.1,248.87C131.4,248.87 131.71,248.76 132,248.61C132.32,248.45 132.62,248.18 132.9,247.89C133.22,247.56 133.53,247.14 133.81,246.68C134.14,246.15 134.42,245.51 134.71,244.85C135.03,244.11 135.32,243.26 135.62,242.45C135.93,241.62 136.22,240.75 136.52,239.91C136.82,239.08 137.11,238.24 137.42,237.43C137.72,236.64 138.02,235.86 138.33,235.12C138.62,234.42 138.92,233.73 139.23,233.08C139.52,232.47 139.83,231.89 140.14,231.34C140.43,230.83 140.73,230.35 141.04,229.91C141.33,229.5 141.63,229.11 141.95,228.79C142.24,228.5 142.53,228.22 142.85,228.03C143.14,227.86 143.44,227.71 143.75,227.66C144.05,227.61 144.37,227.65 144.66,227.74C144.97,227.84 145.28,228.05 145.56,228.28C145.88,228.55 146.18,228.91 146.47,229.29C146.79,229.72 147.08,230.24 147.37,230.77C147.69,231.36 147.98,232.02 148.27,232.7C148.59,233.44 148.89,234.24 149.18,235.06C149.49,235.94 149.79,236.87 150.08,237.82C150.39,238.83 150.69,239.87 150.99,240.94C151.3,242.06 151.59,243.21 151.89,244.38C152.19,245.58 152.49,246.81 152.79,248.05C153.09,249.31 153.4,250.58 153.7,251.86C154,253.15 154.3,254.45 154.6,255.75C154.9,257.06 155.21,258.38 155.51,259.68C155.81,260.96 156.1,262.25 156.41,263.5C156.71,264.71 156.95,266.11 157.32,267.06C157.59,267.74 157.9,268.24 158.22,268.74C158.5,269.18 158.81,269.54 159.12,269.9C159.41,270.23 159.71,270.6 160.03,270.82C160.31,271.02 160.63,271.2 160.93,271.22C161.23,271.23 161.55,271.06 161.84,270.92C162.15,270.77 162.46,270.6 162.74,270.33C163.08,270 163.35,269.46 163.64,269C163.95,268.51 164.25,267.98 164.55,267.46C164.85,266.93 165.15,266.38 165.45,265.84C165.75,265.3 166.06,264.76 166.36,264.22C166.66,263.69 166.96,263.16 167.26,262.64C167.56,262.12 167.86,261.6 168.16,261.08C168.46,260.55 168.77,260.02 169.07,259.47C169.38,258.91 169.67,258.32 169.97,257.74C170.27,257.15 170.58,256.54 170.88,255.95C171.18,255.36 171.48,254.76 171.78,254.18C172.08,253.61 172.37,253.05 172.68,252.5C172.98,251.97 173.28,251.44 173.59,250.94C173.88,250.46 174.18,250 174.49,249.56C174.79,249.14 175.09,248.74 175.4,248.36C175.69,248 176,247.67 176.3,247.34C176.6,247.01 176.91,246.72 177.21,246.39C177.52,246.05 177.82,245.69 178.11,245.31C178.42,244.92 178.71,244.48 179.01,244.08C179.31,243.68 179.62,243.3 179.92,242.91C180.22,242.53 180.52,242.17 180.82,241.78C181.13,241.38 181.43,240.98 181.73,240.55C182.04,240.11 182.34,239.66 182.63,239.16C182.95,238.61 183.23,237.97 183.53,237.38C183.83,236.79 184.14,236.2 184.44,235.61C184.74,235.01 185.04,234.4 185.34,233.81C185.64,233.22 185.94,232.64 186.25,232.07C186.55,231.52 186.84,230.98 187.15,230.46C187.44,229.96 187.74,229.47 188.05,229C188.35,228.54 188.65,228.1 188.96,227.67C189.26,227.25 189.56,226.84 189.86,226.43C190.16,226.01 190.47,225.61 190.77,225.18C191.08,224.73 191.37,224.25 191.67,223.76C191.98,223.25 192.27,222.7 192.58,222.19C192.88,221.69 193.17,221.17 193.48,220.71C193.77,220.28 194.06,219.85 194.38,219.49C194.67,219.16 194.97,218.85 195.29,218.63C195.58,218.43 195.88,218.25 196.19,218.18C196.48,218.11 196.81,218.12 197.1,218.2C197.41,218.29 197.72,218.48 198,218.71C198.32,218.97 198.62,219.34 198.9,219.73C199.23,220.18 199.52,220.71 199.81,221.27C200.13,221.9 200.42,222.61 200.71,223.34C201.03,224.15 201.33,225.02 201.62,225.92C201.93,226.89 202.23,227.93 202.52,228.99C202.83,230.12 203.13,231.3 203.42,232.51C203.73,233.78 204.03,235.11 204.33,236.44C204.64,237.82 204.93,239.24 205.23,240.66C205.53,242.11 205.84,243.59 206.14,245.07C206.44,246.56 206.74,248.07 207.04,249.58C207.34,251.1 207.65,252.62 207.95,254.16C208.25,255.71 208.55,257.28 208.85,258.84C209.15,260.41 209.45,261.99 209.75,263.57C210.05,265.14 210.36,266.73 210.66,268.29C210.96,269.83 211.25,271.38 211.56,272.89C211.86,274.36 212.15,275.86 212.47,277.23C212.76,278.48 213.05,279.71 213.37,280.81C213.65,281.77 213.92,282.72 214.27,283.46C214.54,284.04 214.81,284.77 215.18,284.94C215.45,285.07 215.82,285 216.08,284.82C216.45,284.57 216.71,283.85 216.99,283.25C217.33,282.51 217.61,281.6 217.89,280.67C218.21,279.6 218.5,278.41 218.79,277.18C219.11,275.82 219.41,274.35 219.7,272.86C220.01,271.26 220.3,269.56 220.6,267.86C220.91,266.1 221.21,264.28 221.51,262.46C221.81,260.61 222.11,258.73 222.41,256.86C222.71,254.99 223.02,253.1 223.32,251.23C223.62,249.38 223.92,247.52 224.22,245.71C224.52,243.94 224.81,242.19 225.12,240.48C225.42,238.84 225.72,237.21 226.03,235.65C226.32,234.17 226.62,232.72 226.93,231.33C227.22,230.03 227.53,228.76 227.84,227.55C228.13,226.43 228.43,225.36 228.74,224.33C229.03,223.37 229.33,222.46 229.64,221.57C229.93,220.73 230.24,219.92 230.55,219.14C230.84,218.41 231.14,217.7 231.45,217.03C231.74,216.4 232.05,215.82 232.36,215.24C232.65,214.69 232.96,214.17 233.26,213.65C233.56,213.14 233.86,212.65 234.16,212.14C234.46,211.63 234.77,211.13 235.07,210.61C235.37,210.09 235.67,209.56 235.97,209.02C236.28,208.47 236.58,207.91 236.88,207.34C237.19,206.75 237.49,206.15 237.78,205.52C238.09,204.85 238.39,204.17 238.68,203.44C238.99,202.66 239.3,201.83 239.59,200.97C239.9,200.04 240.2,199.08 240.49,198.04C240.81,196.89 241.11,195.65 241.4,194.35C241.72,192.91 242,191.32 242.3,189.77C242.61,188.18 242.91,186.57 243.21,184.94C243.51,183.29 243.81,181.62 244.11,179.93C244.41,178.21 244.71,176.47 245.01,174.7C245.32,172.88 245.62,171.04 245.92,169.15C246.23,167.17 246.53,165.15 246.82,163.07C247.13,160.88 247.43,158.63 247.73,156.34C248.04,153.96 248.33,151.52 248.63,149.05C248.93,146.51 249.23,143.92 249.53,141.32C249.83,138.68 250.14,136 250.44,133.34C250.74,130.67 251.04,127.98 251.34,125.33C251.64,122.71 251.94,120.1 252.25,117.54C252.55,115.05 252.84,112.59 253.15,110.19C253.44,107.89 253.74,105.61 254.05,103.42C254.34,101.34 254.65,99.31 254.96,97.36C255.25,95.54 255.55,93.76 255.86,92.07C256.15,90.51 256.45,89 256.77,87.59C257.06,86.31 257.35,85.07 257.67,83.94C257.96,82.93 258.25,81.97 258.58,81.11C258.86,80.36 259.16,79.66 259.48,79.05C259.76,78.52 260.06,78.03 260.38,77.62C260.67,77.25 260.97,76.91 261.29,76.67C261.57,76.46 261.88,76.24 262.19,76.2C262.49,76.16 262.82,76.24 263.1,76.4C263.44,76.6 263.73,77 264,77.41C264.34,77.92 264.62,78.59 264.9,79.29C265.23,80.11 265.52,81.05 265.81,82.03C266.13,83.14 266.42,84.35 266.71,85.6C267.03,86.98 267.33,88.44 267.62,89.95C267.93,91.57 268.23,93.26 268.52,95C268.83,96.84 269.13,98.75 269.42,100.7C269.73,102.74 270.03,104.85 270.33,106.99C270.64,109.23 270.93,111.53 271.23,113.87C271.54,116.3 271.84,118.79 272.14,121.32C272.45,123.93 272.74,126.59 273.04,129.29C273.35,132.07 273.65,134.89 273.95,137.74C274.26,140.66 274.55,143.61 274.85,146.59C275.15,149.62 275.45,152.68 275.75,155.75C276.05,158.84 276.36,161.96 276.66,165.07C276.96,168.18 277.26,171.31 277.56,174.41C277.86,177.47 278.16,180.63 278.47,183.55C278.76,186.25 279.06,188.84 279.37,191.33C279.66,193.63 279.95,195.88 280.27,197.95C280.56,199.78 280.83,201.62 281.18,203.12C281.45,204.29 281.62,205.7 282.08,206.22C282.33,206.51 282.73,206.72 282.99,206.62C283.38,206.47 283.62,205.39 283.89,204.63C284.23,203.69 284.5,202.53 284.79,201.4C285.11,200.17 285.4,198.83 285.7,197.51C286.01,196.14 286.3,194.72 286.6,193.32C286.9,191.91 287.21,190.47 287.51,189.06C287.81,187.67 288.1,186.27 288.41,184.91C288.71,183.58 289.01,182.27 289.32,180.99C289.62,179.76 289.91,178.55 290.22,177.39C290.51,176.3 290.8,175.23 291.12,174.23C291.41,173.32 291.7,172.43 292.03,171.65C292.31,170.97 292.59,170.3 292.93,169.79C293.21,169.37 293.5,168.94 293.84,168.75C294.12,168.59 294.46,168.51 294.74,168.58C295.06,168.66 295.37,168.97 295.64,169.29C295.98,169.69 296.27,170.27 296.55,170.86C296.88,171.56 297.16,172.38 297.45,173.23C297.77,174.18 298.07,175.23 298.36,176.28C298.67,177.4 298.96,178.61 299.26,179.78C299.56,180.96 299.85,182.2 300.16,183.34C300.45,184.41 300.75,185.45 301.07,186.43C301.36,187.32 301.64,188.22 301.97,188.98C302.25,189.64 302.52,190.35 302.88,190.76C303.15,191.06 303.47,191.33 303.78,191.36C304.07,191.39 304.41,191.21 304.68,190.99C305.03,190.7 305.32,190.18 305.59,189.64C305.94,188.96 306.2,188.05 306.49,187.19C306.81,186.25 307.1,185.23 307.4,184.21C307.71,183.15 308.01,182.06 308.3,180.93C308.61,179.74 308.91,178.46 309.21,177.23C309.51,176.02 309.81,174.8 310.11,173.61C310.41,172.46 310.7,171.32 311.01,170.21C311.31,169.15 311.61,168.11 311.92,167.11C312.21,166.17 312.5,165.24 312.82,164.38C313.11,163.59 313.41,162.82 313.73,162.12C314.02,161.49 314.3,160.88 314.63,160.37C314.91,159.93 315.2,159.5 315.53,159.22C315.81,158.98 316.13,158.76 316.44,158.71C316.73,158.66 317.06,158.74 317.34,158.89C317.67,159.06 317.97,159.41 318.25,159.78C318.59,160.22 318.87,160.8 319.15,161.4C319.48,162.1 319.76,162.91 320.05,163.75C320.37,164.7 320.67,165.75 320.96,166.83C321.28,168.02 321.57,169.3 321.86,170.61C322.17,172.03 322.48,173.52 322.77,175.05C323.08,176.68 323.38,178.39 323.67,180.12C323.98,181.94 324.28,183.83 324.58,185.74C324.89,187.74 325.18,189.79 325.48,191.86C325.78,194 326.08,196.19 326.38,198.39C326.69,200.65 326.99,202.94 327.29,205.25C327.59,207.6 327.89,209.97 328.19,212.35C328.49,214.75 328.8,217.18 329.1,219.6C329.4,222.02 329.7,224.46 330,226.88C330.3,229.29 330.6,231.7 330.9,234.08C331.2,236.43 331.51,238.76 331.81,241.06C332.11,243.31 332.4,245.54 332.71,247.74C333.01,249.88 333.31,252 333.62,254.08C333.92,256.1 334.21,258.1 334.52,260.05C334.81,261.93 335.11,263.79 335.42,265.59C335.71,267.3 336.02,268.97 336.33,270.59C336.62,272.12 336.92,273.61 337.23,275.05C337.52,276.41 337.83,277.72 338.14,278.99C338.43,280.18 338.73,281.33 339.04,282.42C339.33,283.44 339.63,284.42 339.95,285.35C340.24,286.2 340.53,287.01 340.85,287.77C341.14,288.46 341.43,289.14 341.75,289.72C342.03,290.23 342.31,290.8 342.66,291.1C342.93,291.33 343.25,291.45 343.56,291.49C343.86,291.53 344.18,291.45 344.47,291.35C344.78,291.24 345.1,291.1 345.37,290.83C345.72,290.48 345.98,289.85 346.27,289.31C346.59,288.72 346.88,288.06 347.18,287.41C347.49,286.74 347.78,286.05 348.08,285.37C348.38,284.69 348.69,284.02 348.99,283.35C349.29,282.69 349.59,282.03 349.89,281.38C350.19,280.73 350.49,280.09 350.79,279.45C351.09,278.81 351.4,278.16 351.7,277.52C352,276.89 352.3,276.27 352.6,275.65C352.9,275.04 353.21,274.44 353.51,273.82C353.81,273.2 354.12,272.58 354.41,271.93C354.72,271.24 355.03,270.54 355.32,269.8C355.63,269.02 355.93,268.21 356.22,267.38C356.53,266.52 356.82,265.65 357.12,264.75C357.43,263.81 357.74,262.85 358.03,261.85C358.34,260.8 358.64,259.74 358.93,258.61C359.24,257.4 359.55,256.13 359.84,254.81C360.16,253.37 360.44,251.82 360.74,250.29C361.04,248.71 361.34,247.07 361.64,245.46C361.94,243.86 362.25,242.25 362.55,240.66C362.85,239.1 363.14,237.54 363.45,236.01C363.75,234.52 364.05,233.04 364.36,231.59C364.66,230.18 364.95,228.8 365.26,227.44C365.55,226.13 365.85,224.85 366.16,223.6C366.46,222.4 366.76,221.22 367.07,220.08C367.36,219 367.66,217.93 367.97,216.92C368.26,215.97 368.56,215.05 368.88,214.19C369.17,213.4 369.46,212.63 369.78,211.94C370.07,211.32 370.35,210.72 370.68,210.22C370.96,209.79 371.26,209.37 371.59,209.08C371.87,208.83 372.18,208.61 372.49,208.54C372.78,208.48 373.11,208.52 373.4,208.64C373.72,208.78 374.02,209.07 374.3,209.38C374.63,209.74 374.92,210.22 375.21,210.71C375.53,211.27 375.82,211.9 376.11,212.56C376.43,213.28 376.72,214.06 377.01,214.87C377.33,215.75 377.63,216.69 377.92,217.66C378.23,218.7 378.53,219.8 378.82,220.92C379.13,222.1 379.43,223.33 379.73,224.57C380.04,225.85 380.33,227.18 380.63,228.5C380.93,229.82 381.23,231.17 381.53,232.49C381.83,233.79 382.13,235.09 382.44,236.36C382.74,237.6 383.03,238.85 383.34,240.03C383.63,241.13 383.92,242.25 384.25,243.21C384.53,244.02 384.8,244.82 385.15,245.42C385.42,245.89 385.71,246.36 386.05,246.59C386.33,246.78 386.67,246.89 386.96,246.85C387.27,246.81 387.59,246.57 387.86,246.3C388.21,245.95 388.5,245.41 388.77,244.82C389.12,244.07 389.38,243.07 389.67,242.11C389.99,241.05 390.28,239.87 390.58,238.71C390.89,237.5 391.18,236.24 391.48,234.99C391.78,233.72 392.08,232.42 392.38,231.13C392.68,229.83 392.99,228.51 393.29,227.2C393.59,225.89 393.89,224.56 394.19,223.26C394.49,221.97 394.79,220.69 395.1,219.43C395.4,218.21 395.69,216.99 396,215.81C396.29,214.68 396.59,213.57 396.9,212.51C397.19,211.51 397.5,210.54 397.81,209.62C398.1,208.78 398.39,207.96 398.71,207.21C399,206.54 399.29,205.89 399.62,205.33C399.9,204.84 400.19,204.37 400.52,204.02C400.8,203.73 401.1,203.45 401.42,203.33C401.71,203.22 402.04,203.19 402.33,203.26C402.64,203.34 402.95,203.58 403.23,203.84C403.56,204.15 403.86,204.59 404.14,205.05C404.47,205.59 404.75,206.22 405.04,206.89C405.36,207.64 405.66,208.48 405.95,209.35C406.27,210.3 406.56,211.33 406.85,212.38C407.16,213.52 407.46,214.72 407.75,215.95C408.06,217.25 408.36,218.63 408.66,219.98C408.96,221.33 409.25,222.72 409.56,224.03C409.85,225.27 410.17,226.42 410.47,227.65C410.78,228.91 411.08,230.19 411.37,231.5C411.68,232.86 411.97,234.27 412.27,235.68C412.58,237.13 412.88,238.61 413.18,240.09C413.48,241.58 413.78,243.09 414.08,244.6C414.38,246.12 414.69,247.63 414.99,249.16C415.29,250.72 415.59,252.3 415.89,253.87C416.19,255.43 416.48,257.03 416.79,258.54C417.08,259.97 417.39,261.35 417.7,262.72C418,264.05 418.29,265.38 418.6,266.66C418.9,267.89 419.19,269.11 419.51,270.25C419.8,271.29 420.09,272.27 420.41,273.21C420.7,274.07 421.01,274.87 421.32,275.66C421.61,276.41 421.91,277.12 422.22,277.82C422.51,278.48 422.8,279.14 423.12,279.74C423.41,280.29 423.69,280.87 424.03,281.27C424.31,281.6 424.61,282.01 424.93,282.05C425.22,282.09 425.55,281.8 425.84,281.61C426.15,281.41 426.44,281.13 426.74,280.88C427.04,280.63 427.34,280.38 427.64,280.11C427.95,279.83 428.25,279.52 428.55,279.22C428.85,278.91 429.15,278.58 429.45,278.28C429.75,277.98 430.05,277.7 430.36,277.42C430.66,277.15 430.96,276.91 431.26,276.65C431.56,276.39 431.87,276.16 432.16,275.87C432.47,275.56 432.77,275.18 433.07,274.84C433.37,274.5 433.68,274.19 433.97,273.84C434.28,273.47 434.58,273.05 434.88,272.65C435.18,272.25 435.47,271.81 435.78,271.45C436.07,271.11 436.36,270.79 436.68,270.53C436.97,270.29 437.28,270.09 437.59,269.95C437.88,269.82 438.19,269.72 438.49,269.68C438.79,269.64 439.1,269.65 439.4,269.71C439.71,269.77 440.01,269.88 440.3,270.02C440.61,270.16 440.91,270.36 441.21,270.56C441.52,270.77 441.81,271.03 442.11,271.28C442.41,271.53 442.7,271.83 443.01,272.04C443.3,272.24 443.61,272.45 443.92,272.52C444.21,272.59 444.52,272.52 444.82,272.48C445.12,272.44 445.43,272.34 445.73,272.27C446.03,272.21 446.33,272.14 446.63,272.09C446.93,272.04 447.23,272 447.53,271.95C447.83,271.9 448.14,271.85 448.44,271.79C448.74,271.73 449.04,271.64 449.34,271.57C449.64,271.5 449.95,271.41 450.25,271.37C450.55,271.33 450.85,271.31 451.15,271.33C451.45,271.35 451.76,271.41 452.05,271.51C452.36,271.61 452.67,271.77 452.96,271.95C453.27,272.14 453.57,272.38 453.86,272.64C454.17,272.92 454.48,273.25 454.77,273.59C455.08,273.96 455.38,274.36 455.67,274.78C455.98,275.22 456.28,275.7 456.58,276.19C456.89,276.7 457.18,277.24 457.48,277.78C457.79,278.34 458.08,278.92 458.38,279.51C458.68,280.11 458.99,280.73 459.29,281.33C459.59,281.93 459.89,282.54 460.19,283.13C460.49,283.71 460.79,284.3 461.1,284.83Q461.39,285.33 462,286.23" style="vector-effect: non-scaling-stroke; fill: none; stroke: rgb(0, 176, 246); stroke-opacity: 1; stroke-width: 2px; opacity: 1;"/></g><g class="points"/><g class="text"/></g><g class="trace scatter trace0b3a40" style="stroke-miterlimit: 2; opacity: 1;"><g class="fills"/><g class="errorbars"/><g class="lines"><path class="js-line" d="M0,168.97Q0.64,167.29 0.9,166.15C1.28,164.5 1.53,162.15 1.81,159.94C2.13,157.43 2.42,154.67 2.71,151.89C3.02,148.92 3.32,145.79 3.62,142.65C3.93,139.38 4.22,136 4.52,132.62C4.82,129.16 5.12,125.64 5.42,122.12C5.72,118.57 6.03,114.98 6.33,111.4C6.63,107.82 6.93,104.23 7.23,100.66C7.53,97.12 7.84,93.58 8.14,90.08C8.44,86.63 8.73,83.19 9.04,79.81C9.34,76.5 9.64,73.22 9.95,70C10.25,66.87 10.54,63.77 10.85,60.74C11.14,57.82 11.44,54.95 11.75,52.16C12.05,49.49 12.35,46.87 12.66,44.34C12.95,41.94 13.25,39.6 13.56,37.35C13.85,35.25 14.15,33.21 14.47,31.27C14.76,29.49 15.05,27.75 15.37,26.14C15.66,24.69 15.94,23.29 16.27,22.02C16.55,20.91 16.84,19.85 17.18,18.94C17.46,18.19 17.73,17.45 18.08,16.93C18.35,16.53 18.66,16.1 18.99,16C19.27,15.91 19.62,16 19.89,16.17C20.24,16.39 20.52,16.92 20.79,17.42C21.14,18.06 21.42,18.89 21.7,19.75C22.03,20.77 22.32,21.93 22.6,23.14C22.92,24.51 23.22,26 23.51,27.54C23.83,29.24 24.12,31.05 24.41,32.92C24.72,34.94 25.03,37.05 25.32,39.22C25.63,41.52 25.93,43.92 26.22,46.36C26.53,48.93 26.82,51.57 27.12,54.26C27.43,57.06 27.73,59.93 28.03,62.83C28.34,65.82 28.63,68.87 28.93,71.95C29.24,75.1 29.54,78.3 29.84,81.52C30.14,84.79 30.44,88.1 30.74,91.41C31.04,94.75 31.34,98.12 31.64,101.48C31.94,104.85 32.25,108.24 32.55,111.6C32.85,114.94 33.15,118.28 33.45,121.57C33.75,124.79 34.05,128.02 34.36,131.13C34.65,134.1 34.95,137.04 35.26,139.84C35.55,142.46 35.85,144.99 36.16,147.43C36.45,149.71 36.76,151.9 37.07,154.02C37.36,155.99 37.66,157.89 37.97,159.72C38.26,161.42 38.57,163.05 38.88,164.62C39.17,166.07 39.47,167.47 39.78,168.81C40.07,170.05 40.36,171.24 40.68,172.37C40.97,173.41 41.28,174.4 41.59,175.35C41.88,176.22 42.18,177.06 42.49,177.85C42.78,178.59 43.09,179.29 43.4,179.97C43.69,180.62 43.99,181.24 44.3,181.84C44.6,182.41 44.9,182.97 45.21,183.5C45.5,184.01 45.8,184.51 46.11,184.97C46.4,185.41 46.69,185.84 47.01,186.21C47.3,186.55 47.6,186.88 47.92,187.13C48.21,187.36 48.51,187.57 48.82,187.69C49.11,187.8 49.43,187.86 49.73,187.84C50.03,187.82 50.34,187.72 50.63,187.59C50.94,187.45 51.24,187.23 51.53,187C51.84,186.76 52.14,186.47 52.44,186.18C52.75,185.89 53.04,185.56 53.34,185.26C53.64,184.96 53.94,184.65 54.25,184.38C54.54,184.12 54.84,183.87 55.15,183.67C55.44,183.49 55.74,183.32 56.05,183.23C56.35,183.15 56.66,183.1 56.96,183.14C57.27,183.18 57.57,183.3 57.86,183.46C58.18,183.64 58.48,183.91 58.77,184.21C59.09,184.54 59.38,184.95 59.67,185.38C59.99,185.85 60.29,186.37 60.58,186.91C60.89,187.48 61.18,188.1 61.48,188.72C61.79,189.36 62.08,190.03 62.38,190.68C62.68,191.32 62.98,191.99 63.29,192.6C63.58,193.16 63.87,193.71 64.19,194.2C64.48,194.64 64.79,195.01 65.1,195.4C65.4,195.78 65.7,196.12 66,196.49C66.3,196.86 66.6,197.23 66.9,197.62C67.21,198.02 67.51,198.42 67.81,198.84C68.12,199.28 68.42,199.74 68.71,200.22C69.02,200.73 69.33,201.26 69.62,201.82C69.93,202.42 70.23,203.06 70.52,203.72C70.83,204.43 71.13,205.18 71.42,205.94C71.73,206.74 72.03,207.59 72.33,208.43C72.64,209.3 72.93,210.17 73.23,211.08C73.54,212.02 73.85,212.98 74.14,213.98C74.45,215.03 74.75,216.11 75.04,217.22C75.35,218.38 75.65,219.59 75.95,220.81C76.26,222.08 76.55,223.4 76.85,224.72C77.15,226.08 77.45,227.46 77.75,228.85C78.05,230.26 78.36,231.69 78.66,233.11C78.96,234.52 79.25,235.95 79.56,237.34C79.86,238.7 80.16,240.07 80.47,241.37C80.76,242.61 81.05,243.84 81.37,244.97C81.66,245.99 81.93,247.01 82.27,247.84C82.55,248.51 82.79,249.35 83.18,249.61C83.44,249.78 83.81,249.81 84.08,249.68C84.44,249.51 84.72,248.92 84.99,248.39C85.35,247.69 85.61,246.74 85.89,245.78C86.22,244.63 86.5,243.26 86.79,241.94C87.1,240.54 87.4,239.06 87.7,237.59C88,236.09 88.3,234.56 88.6,233.04C88.9,231.51 89.21,229.97 89.51,228.45C89.81,226.94 90.11,225.44 90.41,223.95C90.71,222.49 91.01,221.04 91.32,219.61C91.62,218.22 91.91,216.83 92.22,215.48C92.52,214.17 92.81,212.89 93.12,211.63C93.42,210.42 93.72,209.23 94.03,208.08C94.32,206.98 94.62,205.91 94.93,204.88C95.22,203.91 95.53,202.96 95.84,202.07C96.13,201.24 96.43,200.44 96.74,199.69C97.03,199.01 97.32,198.35 97.64,197.77C97.93,197.25 98.22,196.76 98.55,196.36C98.83,196.01 99.13,195.68 99.45,195.47C99.73,195.29 100.05,195.15 100.36,195.13C100.66,195.11 100.98,195.2 101.26,195.34C101.58,195.5 101.88,195.79 102.16,196.1C102.49,196.46 102.78,196.92 103.07,197.39C103.39,197.9 103.67,198.5 103.97,199.07C104.28,199.66 104.59,200.24 104.88,200.86C105.19,201.51 105.49,202.18 105.78,202.89C106.09,203.66 106.39,204.47 106.68,205.31C106.99,206.21 107.3,207.16 107.59,208.13C107.9,209.15 108.19,210.22 108.49,211.3C108.8,212.43 109.1,213.6 109.4,214.78C109.71,216 110,217.24 110.3,218.5C110.61,219.78 110.91,221.09 111.21,222.4C111.51,223.73 111.81,225.08 112.11,226.43C112.41,227.8 112.71,229.18 113.01,230.57C113.31,231.97 113.62,233.38 113.92,234.79C114.22,236.21 114.52,237.65 114.82,239.08C115.12,240.52 115.43,241.97 115.73,243.41C116.03,244.85 116.33,246.29 116.63,247.73C116.93,249.16 117.22,250.61 117.53,252.01C117.83,253.35 118.11,254.74 118.44,255.96C118.72,257.02 119.03,257.96 119.34,258.91C119.63,259.81 119.94,260.69 120.25,261.52C120.54,262.3 120.83,263.08 121.15,263.76C121.43,264.35 121.72,264.91 122.05,265.37C122.33,265.77 122.62,266.2 122.96,266.41C123.24,266.58 123.57,266.71 123.86,266.66C124.18,266.6 124.48,266.26 124.77,266C125.09,265.71 125.38,265.36 125.67,264.99C125.99,264.59 126.29,264.15 126.58,263.66C126.9,263.1 127.19,262.47 127.48,261.81C127.8,261.08 128.09,260.27 128.38,259.46C128.69,258.61 128.99,257.72 129.29,256.83C129.6,255.92 129.89,254.99 130.19,254.05C130.49,253.1 130.8,252.13 131.1,251.16C131.4,250.18 131.7,249.19 132,248.2C132.3,247.2 132.6,246.2 132.9,245.2C133.2,244.2 133.51,243.19 133.81,242.19C134.11,241.19 134.41,240.2 134.71,239.21C135.01,238.23 135.32,237.26 135.62,236.29C135.92,235.34 136.22,234.39 136.52,233.45C136.82,232.53 137.11,231.61 137.42,230.71C137.72,229.83 138.02,228.96 138.33,228.11C138.63,227.28 138.92,226.47 139.23,225.68C139.53,224.92 139.83,224.18 140.14,223.47C140.43,222.8 140.73,222.14 141.04,221.53C141.33,220.95 141.63,220.4 141.95,219.89C142.24,219.42 142.53,218.97 142.85,218.59C143.14,218.24 143.43,217.92 143.75,217.67C144.04,217.45 144.35,217.25 144.66,217.14C144.95,217.04 145.26,216.99 145.56,217.02C145.87,217.05 146.18,217.16 146.47,217.31C146.79,217.47 147.08,217.72 147.37,218C147.69,218.31 147.98,218.69 148.27,219.09C148.59,219.53 148.89,220.02 149.18,220.54C149.5,221.1 149.79,221.71 150.08,222.34C150.39,223.01 150.7,223.72 150.99,224.45C151.3,225.22 151.6,226.03 151.89,226.85C152.2,227.71 152.49,228.6 152.79,229.5C153.1,230.44 153.4,231.4 153.7,232.38C154.01,233.39 154.3,234.44 154.6,235.49C154.91,236.57 155.21,237.67 155.51,238.78C155.82,239.92 156.11,241.07 156.41,242.23C156.71,243.4 157.02,244.6 157.32,245.78C157.62,246.96 157.92,248.16 158.22,249.33C158.52,250.48 158.81,251.64 159.12,252.74C159.41,253.79 159.71,254.83 160.03,255.8C160.32,256.69 160.61,257.55 160.93,258.34C161.22,259.05 161.52,259.73 161.84,260.33C162.12,260.86 162.42,261.36 162.74,261.78C163.02,262.15 163.32,262.48 163.64,262.73C163.93,262.96 164.24,263.13 164.55,263.25C164.84,263.36 165.15,263.41 165.45,263.42C165.75,263.43 166.06,263.38 166.36,263.31C166.66,263.24 166.96,263.13 167.26,263.01C167.56,262.88 167.86,262.72 168.16,262.55C168.47,262.38 168.77,262.19 169.07,261.98C169.38,261.77 169.68,261.53 169.97,261.28C170.28,261.01 170.59,260.72 170.88,260.41C171.19,260.08 171.49,259.72 171.78,259.35C172.09,258.96 172.39,258.54 172.68,258.1C172.99,257.63 173.3,257.13 173.59,256.6C173.91,256.02 174.19,255.37 174.49,254.74C174.8,254.08 175.1,253.39 175.4,252.72C175.7,252.07 175.99,251.41 176.3,250.78C176.6,250.17 176.9,249.58 177.21,249.01C177.51,248.46 177.8,247.92 178.11,247.4C178.4,246.9 178.7,246.41 179.01,245.94C179.31,245.49 179.61,245.06 179.92,244.64C180.22,244.23 180.52,243.84 180.82,243.43C181.13,243 181.44,242.57 181.73,242.11C182.04,241.63 182.33,241.11 182.63,240.59C182.93,240.06 183.23,239.51 183.53,238.97C183.83,238.43 184.14,237.89 184.44,237.35C184.74,236.81 185.04,236.28 185.34,235.75C185.64,235.23 185.95,234.71 186.25,234.2C186.55,233.69 186.85,233.19 187.15,232.69C187.45,232.19 187.75,231.7 188.05,231.21C188.35,230.72 188.66,230.23 188.96,229.74C189.26,229.25 189.56,228.76 189.86,228.27C190.16,227.78 190.47,227.3 190.77,226.81C191.07,226.33 191.37,225.84 191.67,225.36C191.97,224.89 192.27,224.41 192.58,223.95C192.88,223.5 193.17,223.05 193.48,222.62C193.78,222.21 194.07,221.8 194.38,221.42C194.68,221.06 194.98,220.71 195.29,220.4C195.58,220.11 195.88,219.84 196.19,219.62C196.48,219.42 196.79,219.23 197.1,219.13C197.39,219.03 197.7,218.97 198,218.99C198.3,219.01 198.61,219.11 198.9,219.25C199.22,219.41 199.53,219.66 199.81,219.94C200.13,220.26 200.43,220.67 200.71,221.11C201.03,221.61 201.33,222.18 201.62,222.79C201.94,223.47 202.23,224.21 202.52,224.99C202.84,225.85 203.13,226.77 203.42,227.73C203.73,228.77 204.04,229.87 204.33,231C204.64,232.22 204.94,233.49 205.23,234.8C205.54,236.18 205.85,237.62 206.14,239.09C206.45,240.64 206.74,242.24 207.04,243.86C207.35,245.55 207.65,247.28 207.95,249.04C208.26,250.85 208.55,252.71 208.85,254.58C209.15,256.49 209.45,258.44 209.75,260.39C210.05,262.36 210.36,264.37 210.66,266.35C210.96,268.33 211.26,270.32 211.56,272.28C211.86,274.2 212.16,276.15 212.47,277.97C212.76,279.66 213.04,281.35 213.37,282.85C213.65,284.15 213.95,285.32 214.27,286.45C214.56,287.47 214.86,288.42 215.18,289.32C215.47,290.15 215.75,290.97 216.08,291.67C216.36,292.27 216.63,292.92 216.99,293.29C217.26,293.57 217.61,293.88 217.89,293.83C218.22,293.77 218.53,293.18 218.79,292.65C219.19,291.84 219.42,290.52 219.7,289.25C220.04,287.69 220.31,285.81 220.6,283.96C220.92,281.91 221.22,279.7 221.51,277.49C221.82,275.17 222.11,272.75 222.41,270.35C222.71,267.9 223.02,265.4 223.32,262.93C223.62,260.46 223.92,257.98 224.22,255.54C224.52,253.13 224.81,250.73 225.12,248.37C225.42,246.06 225.72,243.77 226.03,241.52C226.33,239.33 226.62,237.15 226.93,235.03C227.23,232.99 227.53,230.97 227.84,229.02C228.13,227.17 228.43,225.36 228.74,223.62C229.03,221.99 229.33,220.41 229.64,218.9C229.93,217.51 230.23,216.16 230.55,214.9C230.84,213.75 231.13,212.65 231.45,211.64C231.74,210.74 232.03,209.87 232.36,209.11C232.64,208.45 232.93,207.82 233.26,207.32C233.54,206.9 233.83,206.5 234.16,206.25C234.44,206.04 234.76,205.88 235.07,205.85C235.37,205.83 235.69,205.93 235.97,206.08C236.29,206.25 236.59,206.56 236.88,206.87C237.2,207.22 237.49,207.65 237.78,208.09C238.09,208.56 238.38,209.09 238.68,209.6C238.98,210.11 239.29,210.63 239.59,211.13C239.89,211.62 240.19,212.09 240.49,212.58C240.79,213.08 241.1,213.58 241.4,214.1C241.71,214.63 242,215.17 242.3,215.72C242.6,216.27 242.91,216.84 243.21,217.4C243.51,217.95 243.8,218.51 244.11,219.03C244.4,219.53 244.69,220.04 245.01,220.47C245.3,220.86 245.59,221.27 245.92,221.53C246.2,221.75 246.52,221.98 246.82,221.98C247.12,221.98 247.46,221.78 247.73,221.51C248.1,221.14 248.36,220.47 248.63,219.79C248.98,218.9 249.25,217.77 249.53,216.6C249.86,215.22 250.15,213.63 250.44,212.02C250.76,210.23 251.05,208.29 251.34,206.35C251.65,204.3 251.95,202.15 252.25,200.01C252.56,197.81 252.85,195.56 253.15,193.32C253.45,191.08 253.75,188.81 254.05,186.57C254.35,184.35 254.65,182.13 254.96,179.95C255.26,177.82 255.55,175.69 255.86,173.62C256.16,171.61 256.46,169.63 256.77,167.7C257.07,165.85 257.36,164.03 257.67,162.27C257.96,160.6 258.27,158.96 258.58,157.39C258.87,155.92 259.17,154.49 259.48,153.12C259.77,151.85 260.06,150.61 260.38,149.45C260.67,148.38 260.97,147.36 261.29,146.4C261.58,145.53 261.87,144.69 262.19,143.93C262.48,143.25 262.77,142.6 263.1,142.04C263.38,141.56 263.67,141.09 264,140.75C264.28,140.46 264.58,140.19 264.9,140.09C265.19,140 265.52,140 265.81,140.1C266.13,140.21 266.43,140.49 266.71,140.78C267.05,141.13 267.34,141.63 267.62,142.14C267.95,142.73 268.23,143.42 268.52,144.13C268.84,144.92 269.13,145.79 269.42,146.68C269.73,147.64 270.04,148.67 270.33,149.71C270.64,150.8 270.93,151.95 271.23,153.09C271.54,154.27 271.84,155.48 272.14,156.68C272.44,157.9 272.74,159.13 273.04,160.35C273.34,161.56 273.65,162.78 273.95,163.98C274.25,165.16 274.55,166.33 274.85,167.48C275.15,168.6 275.44,169.71 275.75,170.78C276.05,171.81 276.35,172.82 276.66,173.79C276.95,174.7 277.24,175.6 277.56,176.41C277.85,177.14 278.14,177.86 278.47,178.46C278.75,178.96 279.02,179.5 279.37,179.78C279.64,180 279.98,180.2 280.27,180.15C280.59,180.1 280.91,179.74 281.18,179.38C281.55,178.88 281.81,178.07 282.08,177.26C282.43,176.22 282.71,174.93 282.99,173.62C283.32,172.11 283.6,170.43 283.89,168.73C284.2,166.9 284.49,164.96 284.79,163.01C285.1,160.97 285.4,158.86 285.7,156.74C286.01,154.56 286.3,152.33 286.6,150.1C286.9,147.84 287.21,145.55 287.51,143.27C287.81,140.98 288.11,138.68 288.41,136.39C288.71,134.12 289.02,131.84 289.32,129.59C289.62,127.37 289.92,125.16 290.22,122.99C290.52,120.86 290.81,118.75 291.12,116.68C291.42,114.67 291.72,112.69 292.03,110.76C292.33,108.9 292.62,107.07 292.93,105.29C293.22,103.6 293.53,101.94 293.84,100.34C294.13,98.83 294.43,97.35 294.74,95.94C295.03,94.63 295.33,93.36 295.64,92.15C295.93,91.04 296.23,89.96 296.55,88.96C296.84,88.05 297.13,87.18 297.45,86.38C297.74,85.67 298.04,84.99 298.36,84.39C298.65,83.85 298.94,83.35 299.26,82.92C299.54,82.54 299.84,82.19 300.16,81.9C300.45,81.64 300.75,81.4 301.07,81.24C301.36,81.09 301.66,80.98 301.97,80.93C302.27,80.89 302.58,80.9 302.88,80.96C303.19,81.02 303.49,81.15 303.78,81.3C304.09,81.47 304.39,81.69 304.68,81.94C305,82.21 305.3,82.55 305.59,82.9C305.91,83.29 306.2,83.72 306.49,84.18C306.81,84.68 307.11,85.23 307.4,85.8C307.71,86.42 308.01,87.08 308.3,87.77C308.61,88.5 308.92,89.27 309.21,90.07C309.52,90.91 309.82,91.79 310.11,92.69C310.42,93.63 310.71,94.61 311.01,95.61C311.32,96.65 311.62,97.71 311.92,98.79C312.23,99.91 312.52,101.06 312.82,102.23C313.13,103.43 313.43,104.65 313.73,105.89C314.04,107.16 314.33,108.45 314.63,109.76C314.93,111.1 315.23,112.47 315.53,113.85C315.84,115.27 316.14,116.7 316.44,118.16C316.75,119.66 317.04,121.17 317.34,122.71C317.65,124.29 317.95,125.89 318.25,127.52C318.56,129.19 318.85,130.89 319.15,132.61C319.45,134.38 319.75,136.18 320.05,138C320.36,139.87 320.66,141.77 320.96,143.7C321.27,145.68 321.56,147.69 321.86,149.73C322.17,151.82 322.47,153.94 322.77,156.08C323.08,158.27 323.37,160.5 323.67,162.74C323.97,165.03 324.28,167.36 324.58,169.7C324.88,172.09 325.18,174.51 325.48,176.95C325.78,179.43 326.08,181.93 326.38,184.45C326.68,187 326.99,189.58 327.29,192.17C327.59,194.79 327.89,197.43 328.19,200.07C328.49,202.73 328.8,205.41 329.1,208.09C329.4,210.77 329.7,213.47 330,216.15C330.3,218.82 330.6,221.5 330.9,224.15C331.2,226.77 331.51,229.39 331.81,231.96C332.11,234.48 332.4,236.98 332.71,239.44C333.01,241.85 333.31,244.22 333.62,246.57C333.92,248.87 334.22,251.14 334.52,253.38C334.82,255.57 335.11,257.74 335.42,259.88C335.72,261.97 336.02,264.04 336.33,266.08C336.63,268.06 336.92,270.01 337.23,271.92C337.53,273.77 337.83,275.59 338.14,277.36C338.44,279.06 338.73,280.76 339.04,282.36C339.33,283.85 339.62,285.35 339.95,286.67C340.23,287.82 340.53,288.85 340.85,289.85C341.14,290.75 341.41,291.66 341.75,292.39C342.03,292.98 342.29,293.69 342.66,293.92C342.93,294.08 343.29,294.09 343.56,293.97C343.91,293.82 344.19,293.29 344.47,292.84C344.81,292.3 345.08,291.57 345.37,290.9C345.68,290.19 345.97,289.45 346.27,288.7C346.58,287.94 346.88,287.15 347.18,286.37C347.48,285.58 347.78,284.77 348.08,283.97C348.38,283.17 348.69,282.38 348.99,281.59C349.29,280.81 349.59,280.05 349.89,279.27C350.19,278.49 350.48,277.67 350.79,276.91C351.09,276.18 351.39,275.45 351.7,274.78C351.99,274.15 352.28,273.55 352.6,272.99C352.89,272.48 353.19,271.99 353.51,271.55C353.8,271.15 354.1,270.79 354.41,270.47C354.7,270.18 355.01,269.92 355.32,269.69C355.61,269.48 355.92,269.31 356.22,269.15C356.52,268.99 356.82,268.86 357.12,268.72C357.42,268.58 357.73,268.44 358.03,268.29C358.33,268.14 358.63,267.99 358.93,267.82C359.24,267.64 359.55,267.46 359.84,267.23C360.15,266.98 360.45,266.68 360.74,266.36C361.05,266.01 361.34,265.58 361.64,265.18C361.95,264.77 362.25,264.34 362.55,263.92C362.85,263.5 363.15,263.1 363.45,262.67C363.76,262.23 364.06,261.77 364.36,261.3C364.67,260.81 364.96,260.3 365.26,259.8C365.56,259.3 365.87,258.83 366.16,258.3C366.47,257.74 366.78,257.16 367.07,256.53C367.39,255.83 367.67,255.01 367.97,254.25C368.27,253.48 368.58,252.7 368.88,251.92C369.18,251.14 369.48,250.35 369.78,249.57C370.08,248.79 370.38,248.02 370.68,247.25C370.98,246.49 371.29,245.73 371.59,244.99C371.89,244.26 372.18,243.53 372.49,242.82C372.79,242.13 373.09,241.44 373.4,240.77C373.7,240.12 373.99,239.48 374.3,238.86C374.6,238.26 374.9,237.68 375.21,237.11C375.51,236.56 375.81,236.04 376.11,235.52C376.41,235.02 376.7,234.53 377.01,234.05C377.31,233.58 377.62,233.14 377.92,232.68C378.22,232.23 378.52,231.78 378.82,231.32C379.12,230.85 379.43,230.38 379.73,229.89C380.03,229.4 380.33,228.89 380.63,228.38C380.93,227.87 381.23,227.34 381.53,226.83C381.83,226.33 382.13,225.83 382.44,225.35C382.74,224.89 383.03,224.43 383.34,224C383.64,223.59 383.94,223.18 384.25,222.81C384.54,222.46 384.84,222.12 385.15,221.82C385.44,221.54 385.74,221.27 386.05,221.04C386.34,220.82 386.65,220.62 386.96,220.46C387.25,220.31 387.55,220.18 387.86,220.08C388.16,219.99 388.47,219.92 388.77,219.89C389.07,219.86 389.37,219.86 389.67,219.88C389.97,219.9 390.28,219.95 390.58,220.01C390.88,220.07 391.18,220.16 391.48,220.26C391.78,220.36 392.08,220.49 392.38,220.61C392.68,220.74 392.99,220.87 393.29,221.01C393.59,221.15 393.89,221.3 394.19,221.45C394.49,221.6 394.8,221.75 395.1,221.9C395.4,222.05 395.7,222.2 396,222.35C396.3,222.51 396.6,222.66 396.9,222.83C397.2,223 397.51,223.16 397.81,223.35C398.11,223.54 398.41,223.75 398.71,223.97C399.02,224.2 399.32,224.44 399.62,224.7C399.93,224.97 400.23,225.27 400.52,225.59C400.83,225.93 401.13,226.29 401.42,226.67C401.73,227.08 402.04,227.51 402.33,227.96C402.64,228.44 402.94,228.96 403.23,229.49C403.54,230.05 403.85,230.65 404.14,231.26C404.45,231.91 404.75,232.58 405.04,233.28C405.35,234.01 405.65,234.77 405.95,235.55C406.26,236.36 406.56,237.2 406.85,238.05C407.16,238.94 407.45,239.85 407.75,240.78C408.06,241.74 408.36,242.71 408.66,243.7C408.97,244.71 409.26,245.74 409.56,246.78C409.86,247.84 410.17,248.91 410.47,249.98C410.77,251.06 411.07,252.15 411.37,253.23C411.67,254.31 411.97,255.4 412.27,256.47C412.57,257.53 412.88,258.59 413.18,259.64C413.48,260.67 413.78,261.68 414.08,262.69C414.38,263.68 414.69,264.66 414.99,265.63C415.29,266.59 415.59,267.53 415.89,268.47C416.19,269.39 416.48,270.31 416.79,271.19C417.08,272.02 417.39,272.82 417.7,273.6C418,274.35 418.3,275.06 418.6,275.78C418.9,276.48 419.21,277.17 419.51,277.85C419.81,278.52 420.11,279.17 420.41,279.82C420.71,280.46 421.02,281.08 421.32,281.7C421.62,282.31 421.92,282.92 422.22,283.53C422.52,284.13 422.82,284.73 423.12,285.33C423.42,285.93 423.73,286.52 424.03,287.11C424.33,287.7 424.63,288.29 424.93,288.87C425.23,289.44 425.54,290.01 425.84,290.57C426.14,291.12 426.44,291.66 426.74,292.2C427.04,292.73 427.33,293.28 427.64,293.78C427.93,294.26 428.25,294.7 428.55,295.16C428.85,295.62 429.15,296.07 429.45,296.54C429.75,297.02 430.05,297.54 430.36,298C430.65,298.44 430.93,298.93 431.26,299.24C431.54,299.5 431.85,299.72 432.16,299.8C432.45,299.87 432.78,299.82 433.07,299.74C433.38,299.66 433.67,299.44 433.97,299.29C434.27,299.15 434.58,299.01 434.88,298.87C435.18,298.74 435.49,298.63 435.78,298.48C436.09,298.32 436.38,298.12 436.68,297.92C436.99,297.72 437.29,297.49 437.59,297.28C437.89,297.07 438.19,296.85 438.49,296.64C438.79,296.43 439.1,296.23 439.4,296.03C439.7,295.83 440,295.62 440.3,295.42C440.6,295.22 440.91,295.02 441.21,294.82C441.51,294.63 441.81,294.43 442.11,294.25C442.41,294.07 442.71,293.9 443.01,293.75C443.31,293.6 443.61,293.45 443.92,293.33C444.22,293.21 444.52,293.11 444.82,293.02C445.12,292.93 445.43,292.86 445.73,292.8C446.03,292.74 446.33,292.7 446.63,292.66C446.93,292.62 447.23,292.59 447.53,292.57C447.83,292.55 448.14,292.54 448.44,292.52C448.74,292.5 449.04,292.48 449.34,292.47C449.64,292.45 449.95,292.45 450.25,292.43C450.55,292.41 450.85,292.4 451.15,292.37C451.45,292.34 451.75,292.27 452.05,292.24C452.35,292.21 452.66,292.18 452.96,292.18C453.26,292.18 453.56,292.21 453.86,292.25C454.16,292.3 454.47,292.36 454.77,292.45C455.07,292.54 455.37,292.66 455.67,292.8C455.98,292.94 456.28,293.11 456.58,293.29C456.89,293.48 457.18,293.69 457.48,293.91C457.78,294.14 458.08,294.38 458.38,294.63C458.69,294.89 458.99,295.17 459.29,295.44C459.59,295.72 459.89,296 460.19,296.28C460.49,296.55 460.79,296.84 461.1,297.09Q461.4,297.33 462,297.78" style="vector-effect: non-scaling-stroke; fill: none; stroke: rgb(231, 107, 243); stroke-opacity: 1; stroke-width: 2px; opacity: 1;"/></g><g class="points"/><g class="text"/></g></g></g><g class="overplot"/><path class="xlines-above crisp" d="M0,0" style="fill: none;"/><path class="ylines-above crisp" d="M0,0" style="fill: none;"/><g class="overlines-above"/><g class="xaxislayer-above"><g class="xtick"><text text-anchor="middle" x="0" y="433" transform="translate(80,0)" style="font-family: 'Open Sans', verdana, arial, sans-serif; font-size: 12px; fill: rgb(42, 63, 95); fill-opacity: 1; white-space: pre;">0</text></g><g class="xtick"><text text-anchor="middle" x="0" y="433" transform="translate(170.23000000000002,0)" style="font-family: 'Open Sans', verdana, arial, sans-serif; font-size: 12px; fill: rgb(42, 63, 95); fill-opacity: 1; white-space: pre;">100</text></g><g class="xtick"><text text-anchor="middle" x="0" y="433" transform="translate(260.47,0)" style="font-family: 'Open Sans', verdana, arial, sans-serif; font-size: 12px; fill: rgb(42, 63, 95); fill-opacity: 1; white-space: pre;">200</text></g><g class="xtick"><text text-anchor="middle" x="0" y="433" transform="translate(350.7,0)" style="font-family: 'Open Sans', verdana, arial, sans-serif; font-size: 12px; fill: rgb(42, 63, 95); fill-opacity: 1; white-space: pre;">300</text></g><g class="xtick"><text text-anchor="middle" x="0" y="433" transform="translate(440.94,0)" style="font-family: 'Open Sans', verdana, arial, sans-serif; font-size: 12px; fill: rgb(42, 63, 95); fill-opacity: 1; white-space: pre;">400</text></g><g class="xtick"><text text-anchor="middle" x="0" y="433" transform="translate(531.1700000000001,0)" style="font-family: 'Open Sans', verdana, arial, sans-serif; font-size: 12px; fill: rgb(42, 63, 95); fill-opacity: 1; white-space: pre;">500</text></g></g><g class="yaxislayer-above"><g class="ytick"><text text-anchor="end" x="79" y="4.199999999999999" transform="translate(0,368.36)" style="font-family: 'Open Sans', verdana, arial, sans-serif; font-size: 12px; fill: rgb(42, 63, 95); fill-opacity: 1; white-space: pre;">500</text></g><g class="ytick"><text text-anchor="end" x="79" y="4.199999999999999" transform="translate(0,282.73)" style="font-family: 'Open Sans', verdana, arial, sans-serif; font-size: 12px; fill: rgb(42, 63, 95); fill-opacity: 1; white-space: pre;">1000</text></g><g class="ytick"><text text-anchor="end" x="79" y="4.199999999999999" transform="translate(0,197.1)" style="font-family: 'Open Sans', verdana, arial, sans-serif; font-size: 12px; fill: rgb(42, 63, 95); fill-opacity: 1; white-space: pre;">1500</text></g><g class="ytick"><text text-anchor="end" x="79" y="4.199999999999999" transform="translate(0,111.47)" style="font-family: 'Open Sans', verdana, arial, sans-serif; font-size: 12px; fill: rgb(42, 63, 95); fill-opacity: 1; white-space: pre;">2000</text></g></g><g class="overaxes-above"/></g></g><g class="polarlayer"/><g class="ternarylayer"/><g class="geolayer"/><g class="funnelarealayer"/><g class="pielayer"/><g class="treemaplayer"/><g class="sunburstlayer"/><g class="glimages"/><defs id="topdefs-038dc7"><g class="clips"/><clipPath id="legend038dc7"><rect width="137" height="67" x="0" y="0"/></clipPath></defs><g class="layer-above"><g class="imagelayer"/><g class="shapelayer"/></g><g class="infolayer"><g class="legend" pointer-events="all" transform="translate(551.24, 100)"><rect class="bg" shape-rendering="crispEdges" width="137" height="67" x="0" y="0" style="stroke: rgb(68, 68, 68); stroke-opacity: 1; fill: rgb(255, 255, 255); fill-opacity: 1; stroke-width: 0px;"/><g class="scrollbox" transform="translate(0, 0)" clip-path="url('#legend038dc7')"><g class="groups"><g class="traces" transform="translate(0, 14.5)" style="opacity: 1;"><text class="legendtext" text-anchor="start" x="40" y="4.680000000000001" style="font-family: 'Open Sans', verdana, arial, sans-serif; font-size: 12px; fill: rgb(42, 63, 95); fill-opacity: 1; white-space: pre;">Average Class I</text><g class="layers" style="opacity: 1;"><g class="legendfill"/><g class="legendlines"><path class="js-line" d="M5,0h30" style="fill: none; stroke: rgb(0, 100, 80); stroke-opacity: 1; stroke-width: 2px;"/></g><g class="legendsymbols"><g class="legendpoints"/></g></g><rect class="legendtoggle" x="0" y="-9.5" width="131.15625" height="19" style="fill: rgb(0, 0, 0); fill-opacity: 0;"/></g><g class="traces" transform="translate(0, 33.5)" style="opacity: 1;"><text class="legendtext" text-anchor="start" x="40" y="4.680000000000001" style="font-family: 'Open Sans', verdana, arial, sans-serif; font-size: 12px; fill: rgb(42, 63, 95); fill-opacity: 1; white-space: pre;">Average Class II</text><g class="layers" style="opacity: 1;"><g class="legendfill"/><g class="legendlines"><path class="js-line" d="M5,0h30" style="fill: none; stroke: rgb(0, 176, 246); stroke-opacity: 1; stroke-width: 2px;"/></g><g class="legendsymbols"><g class="legendpoints"/></g></g><rect class="legendtoggle" x="0" y="-9.5" width="131.15625" height="19" style="fill: rgb(0, 0, 0); fill-opacity: 0;"/></g><g class="traces" transform="translate(0, 52.5)" style="opacity: 1;"><text class="legendtext" text-anchor="start" x="40" y="4.680000000000001" style="font-family: 'Open Sans', verdana, arial, sans-serif; font-size: 12px; fill: rgb(42, 63, 95); fill-opacity: 1; white-space: pre;">Average Class III</text><g class="layers" style="opacity: 1;"><g class="legendfill"/><g class="legendlines"><path class="js-line" d="M5,0h30" style="fill: none; stroke: rgb(231, 107, 243); stroke-opacity: 1; stroke-width: 2px;"/></g><g class="legendsymbols"><g class="legendpoints"/></g></g><rect class="legendtoggle" x="0" y="-9.5" width="131.15625" height="19" style="fill: rgb(0, 0, 0); fill-opacity: 0;"/></g></g></g><rect class="scrollbar" rx="20" ry="3" width="0" height="0" x="0" y="0" style="fill: rgb(128, 139, 164); fill-opacity: 1;"/></g><g class="g-gtitle"><text class="gtitle" x="35" y="50" text-anchor="start" dy="0em" style="font-family: 'Open Sans', verdana, arial, sans-serif; font-size: 17px; fill: rgb(42, 63, 95); opacity: 1; font-weight: normal; white-space: pre;">Average curve: secondary_structure_properties_group</text></g><g class="g-xtitle"><text class="xtitle" x="311" y="460.8" text-anchor="middle" style="font-family: 'Open Sans', verdana, arial, sans-serif; font-size: 14px; fill: rgb(42, 63, 95); opacity: 1; font-weight: normal; white-space: pre;">Domain</text></g><g class="g-ytitle"><text class="ytitle" transform="rotate(-90,27.496875000000003,260)" x="27.496875000000003" y="260" text-anchor="middle" style="font-family: 'Open Sans', verdana, arial, sans-serif; font-size: 14px; fill: rgb(42, 63, 95); opacity: 1; font-weight: normal; white-space: pre;">Frequency</text></g></g></svg>