<svg class="main-svg" xmlns="http://www.w3.org/2000/svg" xmlns:xlink="http://www.w3.org/1999/xlink" width="700" height="500" style="" viewBox="0 0 700 500"><rect x="0" y="0" width="700" height="500" style="fill: rgb(255, 255, 255); fill-opacity: 1;"/><defs id="defs-49918b"><g class="clips"><clipPath id="clip49918bxyplot" class="plotclip"><rect width="462" height="320"/></clipPath><clipPath class="axesclip" id="clip49918bx"><rect x="80" y="0" width="462" height="500"/></clipPath><clipPath class="axesclip" id="clip49918by"><rect x="0" y="100" width="700" height="320"/></clipPath><clipPath class="axesclip" id="clip49918bxy"><rect x="80" y="100" width="462" height="320"/></clipPath></g><g class="gradients"/></defs><g class="bglayer"><rect class="bg" x="80" y="100" width="462" height="320" style="fill: rgb(229, 236, 246); fill-opacity: 1; stroke-width: 0;"/></g><g class="layer-below"><g class="imagelayer"/><g class="shapelayer"/></g><g class="cartesianlayer"><g class="subplot xy"><g class="layer-subplot"><g class="shapelayer"/><g class="imagelayer"/></g><g class="gridlayer"><g class="x"><path class="xgrid crisp" transform="translate(170.23000000000002,0)" d="M0,100v320" style="stroke: rgb(255, 255, 255); stroke-opacity: 1; stroke-width: 1px;"/><path class="xgrid crisp" transform="translate(260.47,0)" d="M0,100v320" style="stroke: rgb(255, 255, 255); stroke-opacity: 1; stroke-width: 1px;"/><path class="xgrid crisp" transform="translate(350.7,0)" d="M0,100v320" style="stroke: rgb(255, 255, 255); stroke-opacity: 1; stroke-width: 1px;"/><path class="xgrid crisp" transform="translate(440.94,0)" d="M0,100v320" style="stroke: rgb(255, 255, 255); stroke-opacity: 1; stroke-width: 1px;"/><path class="xgrid crisp" transform="translate(531.1700000000001,0)" d="M0,100v320" style="stroke: rgb(255, 255, 255); stroke-opacity: 1; stroke-width: 1px;"/></g><g class="y"><path class="ygrid crisp" transform="translate(0,409.53)" d="M80,0h462" style="stroke: rgb(255, 255, 255); stroke-opacity: 1; stroke-width: 1px;"/><path class="ygrid crisp" transform="translate(0,370.84)" d="M80,0h462" style="stroke: rgb(255, 255, 255); stroke-opacity: 1; stroke-width: 1px;"/><path class="ygrid crisp" transform="translate(0,332.14)" d="M80,0h462" style="stroke: rgb(255, 255, 255); stroke-opacity: 1; stroke-width: 1px;"/><path class="ygrid crisp" transform="translate(0,293.45)" d="M80,0h462" style="stroke: rgb(255, 255, 255); stroke-opacity: 1; stroke-width: 1px;"/><path class="ygrid crisp" transform="translate(0,254.76)" d="M80,0h462" style="stroke: rgb(255, 255, 255); stroke-opacity: 1; stroke-width: 1px;"/><path class="ygrid crisp" transform="translate(0,216.06)" d="M80,0h462" style="stroke: rgb(255, 255, 255); stroke-opacity: 1; stroke-width: 1px;"/><path class="ygrid crisp" transform="translate(0,177.37)" d="M80,0h462" style="stroke: rgb(255, 255, 255); stroke-opacity: 1; stroke-width: 1px;"/><path class="ygrid crisp" transform="translate(0,138.68)" d="M80,0h462" style="stroke: rgb(255, 255, 255); stroke-opacity: 1; stroke-width: 1px;"/></g></g><g class="zerolinelayer"><path class="xzl zl crisp" transform="translate(80,0)" d="M0,100v320" style="stroke: rgb(255, 255, 255); stroke-opacity: 1; stroke-width: 2px;"/></g><path class="xlines-below"/><path class="ylines-below"/><g class="overlines-below"/><g class="xaxislayer-below"/><g class="yaxislayer-below"/><g class="overaxes-below"/><g class="plot" transform="translate(80, 100)" clip-path="url('#clip49918bxyplot')"><g class="scatterlayer mlayer"><g class="trace scatter trace102428" style="stroke-miterlimit: 2; opacity: 1;"><g class="fills"/><g class="errorbars"/><g class="lines"><path class="js-line" d="M0,82.64Q0.63,82.85 0.9,83.09C1.25,83.4 1.53,83.93 1.81,84.46C2.15,85.11 2.43,85.9 2.71,86.73C3.04,87.69 3.33,88.78 3.62,89.9C3.94,91.15 4.23,92.51 4.52,93.9C4.83,95.42 5.13,97.03 5.42,98.67C5.73,100.42 6.03,102.26 6.33,104.12C6.64,106.07 6.93,108.08 7.23,110.12C7.54,112.23 7.84,114.39 8.14,116.55C8.44,118.75 8.74,120.99 9.04,123.21C9.34,125.44 9.65,127.71 9.95,129.93C10.25,132.12 10.54,134.33 10.85,136.47C11.14,138.53 11.43,140.61 11.75,142.55C12.04,144.33 12.33,146.13 12.66,147.68C12.94,148.97 13.21,150.22 13.56,151.21C13.83,151.96 14.13,152.6 14.47,153.14C14.75,153.59 15.04,154 15.37,154.27C15.65,154.49 15.96,154.66 16.27,154.71C16.57,154.75 16.89,154.68 17.18,154.57C17.5,154.45 17.79,154.2 18.08,153.96C18.4,153.7 18.69,153.36 18.99,153.05C19.3,152.73 19.59,152.37 19.89,152.05C20.19,151.73 20.48,151.4 20.79,151.13C21.08,150.88 21.38,150.63 21.7,150.48C21.99,150.34 22.3,150.22 22.6,150.22C22.9,150.22 23.23,150.31 23.51,150.48C23.84,150.67 24.13,151.01 24.41,151.37C24.74,151.81 25.04,152.36 25.32,152.96C25.65,153.66 25.94,154.48 26.22,155.34C26.54,156.33 26.83,157.42 27.12,158.56C27.44,159.84 27.74,161.22 28.03,162.65C28.35,164.22 28.64,165.88 28.93,167.6C29.24,169.45 29.55,171.39 29.84,173.38C30.15,175.49 30.45,177.67 30.74,179.9C31.05,182.23 31.34,184.63 31.64,187.06C31.95,189.59 32.25,192.17 32.55,194.79C32.86,197.49 33.15,200.24 33.45,203.02C33.76,205.86 34.06,208.75 34.36,211.66C34.66,214.62 34.96,217.61 35.26,220.61C35.56,223.63 35.86,226.68 36.16,229.72C36.46,232.76 36.77,235.8 37.07,238.83C37.37,241.86 37.66,244.92 37.97,247.91C38.27,250.84 38.58,253.73 38.88,256.59C39.18,259.4 39.47,262.22 39.78,264.92C40.07,267.48 40.37,269.99 40.68,272.4C40.97,274.66 41.27,276.91 41.59,278.95C41.87,280.74 42.16,282.42 42.49,283.97C42.77,285.31 43.06,286.62 43.4,287.71C43.67,288.58 43.88,289.64 44.3,290.02C44.56,290.26 44.93,290.36 45.21,290.28C45.55,290.18 45.84,289.68 46.11,289.22C46.48,288.59 46.73,287.66 47.01,286.74C47.35,285.63 47.63,284.31 47.92,283.01C48.23,281.61 48.53,280.11 48.82,278.61C49.13,277.04 49.43,275.4 49.73,273.77C50.03,272.12 50.33,270.45 50.63,268.79C50.93,267.13 51.23,265.47 51.53,263.8C51.83,262.13 52.14,260.48 52.44,258.78C52.75,257.04 53.04,255.29 53.34,253.5C53.65,251.64 53.95,249.74 54.25,247.83C54.56,245.88 54.85,243.91 55.15,241.9C55.46,239.82 55.75,237.64 56.05,235.54C56.35,233.47 56.66,231.42 56.96,229.39C57.26,227.4 57.55,225.41 57.86,223.46C58.16,221.57 58.46,219.68 58.77,217.87C59.06,216.16 59.36,214.49 59.67,212.89C59.96,211.4 60.26,209.96 60.58,208.6C60.87,207.35 61.16,206.14 61.48,205.02C61.77,204.01 62.06,203.05 62.38,202.18C62.66,201.42 62.96,200.69 63.29,200.08C63.57,199.56 63.85,199.06 64.19,198.71C64.47,198.42 64.78,198.16 65.1,198.07C65.39,197.99 65.72,198.02 66,198.14C66.32,198.27 66.62,198.58 66.9,198.9C67.24,199.29 67.53,199.81 67.81,200.35C68.14,200.97 68.42,201.7 68.71,202.44C69.03,203.24 69.33,204.1 69.62,204.98C69.93,205.91 70.23,206.86 70.52,207.86C70.83,208.95 71.13,210.1 71.42,211.28C71.73,212.54 72.04,213.86 72.33,215.21C72.64,216.64 72.93,218.11 73.23,219.62C73.54,221.19 73.84,222.81 74.14,224.46C74.45,226.17 74.74,227.92 75.04,229.69C75.35,231.51 75.65,233.37 75.95,235.23C76.25,237.13 76.55,239.06 76.85,240.98C77.15,242.91 77.45,244.87 77.75,246.8C78.05,248.7 78.36,250.6 78.66,252.47C78.96,254.31 79.26,256.13 79.56,257.93C79.86,259.7 80.17,261.45 80.47,263.19C80.77,264.9 81.07,266.61 81.37,268.29C81.67,269.94 81.96,271.58 82.27,273.18C82.57,274.73 82.87,276.27 83.18,277.76C83.47,279.18 83.77,280.58 84.08,281.9C84.37,283.12 84.66,284.35 84.99,285.42C85.27,286.35 85.54,287.29 85.89,287.98C86.16,288.51 86.44,289.05 86.79,289.28C87.06,289.45 87.42,289.53 87.7,289.44C88.03,289.33 88.33,288.91 88.6,288.52C88.95,288.02 89.23,287.3 89.51,286.59C89.84,285.77 90.12,284.83 90.41,283.88C90.73,282.84 91.03,281.74 91.32,280.59C91.63,279.35 91.93,278.03 92.22,276.69C92.53,275.28 92.82,273.81 93.12,272.33C93.43,270.8 93.73,269.24 94.03,267.65C94.34,266.01 94.64,264.34 94.93,262.63C95.24,260.83 95.54,258.98 95.84,257.11C96.15,255.18 96.44,253.22 96.74,251.23C97.04,249.19 97.34,247.11 97.64,245.03C97.94,242.92 98.25,240.78 98.55,238.66C98.85,236.53 99.15,234.39 99.45,232.28C99.75,230.2 100.05,228.13 100.36,226.1C100.66,224.13 100.95,222.17 101.26,220.26C101.55,218.43 101.85,216.62 102.16,214.87C102.45,213.2 102.76,211.56 103.07,209.98C103.36,208.49 103.66,207.04 103.97,205.66C104.26,204.38 104.56,203.13 104.88,201.96C105.17,200.9 105.46,199.87 105.78,198.93C106.06,198.1 106.36,197.32 106.68,196.62C106.97,196 107.26,195.39 107.59,194.91C107.87,194.51 108.15,194.09 108.49,193.9C108.77,193.74 109.11,193.67 109.4,193.74C109.72,193.82 110.03,194.13 110.3,194.44C110.64,194.83 110.93,195.41 111.21,196C111.54,196.71 111.83,197.55 112.11,198.42C112.43,199.42 112.72,200.52 113.01,201.67C113.33,202.94 113.63,204.3 113.92,205.7C114.23,207.22 114.53,208.82 114.82,210.46C115.13,212.2 115.43,214.01 115.73,215.84C116.04,217.76 116.33,219.74 116.63,221.72C116.93,223.74 117.23,225.81 117.53,227.86C117.83,229.92 118.14,232 118.44,234.06C118.74,236.12 119.04,238.19 119.34,240.23C119.64,242.23 119.94,244.23 120.25,246.18C120.55,248.06 120.84,249.93 121.15,251.72C121.44,253.4 121.73,255.08 122.05,256.61C122.34,257.98 122.63,259.31 122.96,260.47C123.24,261.44 123.53,262.33 123.86,263.12C124.14,263.78 124.44,264.38 124.77,264.9C125.05,265.36 125.35,265.76 125.67,266.11C125.96,266.42 126.26,266.7 126.58,266.91C126.87,267.1 127.17,267.26 127.48,267.36C127.77,267.46 128.08,267.52 128.38,267.51C128.68,267.5 129,267.44 129.29,267.31C129.6,267.17 129.91,266.96 130.19,266.7C130.51,266.4 130.81,266.01 131.1,265.6C131.42,265.13 131.71,264.57 132,264.02C132.31,263.43 132.6,262.78 132.9,262.14C133.21,261.47 133.51,260.79 133.81,260.09C134.12,259.37 134.41,258.64 134.71,257.89C135.02,257.11 135.32,256.29 135.62,255.5C135.92,254.72 136.21,253.92 136.52,253.17C136.81,252.45 137.11,251.74 137.42,251.06C137.71,250.42 138.02,249.79 138.33,249.2C138.62,248.64 138.92,248.11 139.23,247.59C139.53,247.09 139.83,246.62 140.14,246.16C140.44,245.72 140.74,245.29 141.04,244.87C141.34,244.45 141.65,244.04 141.95,243.63C142.25,243.22 142.55,242.82 142.85,242.41C143.15,242 143.45,241.6 143.75,241.19C144.05,240.78 144.36,240.37 144.66,239.96C144.96,239.55 145.26,239.15 145.56,238.75C145.86,238.35 146.17,237.96 146.47,237.57C146.77,237.19 147.07,236.82 147.37,236.46C147.67,236.11 147.96,235.77 148.27,235.45C148.57,235.15 148.87,234.85 149.18,234.59C149.47,234.34 149.77,234.11 150.08,233.91C150.38,233.72 150.68,233.56 150.99,233.43C151.29,233.31 151.59,233.25 151.89,233.14C152.19,233.03 152.51,232.98 152.79,232.79C153.12,232.57 153.39,232.13 153.7,231.83C154,231.54 154.29,231.27 154.6,231.01C154.9,230.76 155.2,230.51 155.51,230.3C155.81,230.1 156.1,229.89 156.41,229.75C156.7,229.62 157.01,229.51 157.32,229.48C157.62,229.46 157.93,229.49 158.22,229.59C158.53,229.7 158.84,229.92 159.12,230.17C159.44,230.45 159.75,230.83 160.03,231.24C160.35,231.71 160.64,232.26 160.93,232.84C161.25,233.49 161.55,234.22 161.84,234.98C162.16,235.82 162.45,236.74 162.74,237.69C163.05,238.72 163.35,239.82 163.64,240.95C163.95,242.17 164.25,243.45 164.55,244.75C164.86,246.1 165.16,247.47 165.45,248.89C165.76,250.38 166.06,251.91 166.36,253.47C166.67,255.11 166.96,256.79 167.26,258.5C167.57,260.27 167.86,262.08 168.16,263.9C168.47,265.77 168.77,267.68 169.07,269.58C169.37,271.5 169.67,273.45 169.97,275.38C170.27,277.3 170.57,279.23 170.88,281.11C171.18,282.93 171.47,284.73 171.78,286.47C172.07,288.13 172.37,289.74 172.68,291.31C172.97,292.81 173.28,294.28 173.59,295.69C173.88,297 174.17,298.31 174.49,299.49C174.78,300.55 175.04,301.66 175.4,302.47C175.67,303.08 175.99,303.99 176.3,304C176.6,304.01 176.95,303.24 177.21,302.6C177.64,301.52 177.83,299.58 178.11,297.89C178.43,295.94 178.72,293.77 179.01,291.58C179.32,289.22 179.63,286.74 179.92,284.2C180.23,281.49 180.53,278.65 180.82,275.78C181.13,272.77 181.43,269.66 181.73,266.53C182.04,263.32 182.33,260.04 182.63,256.77C182.93,253.47 183.23,250.13 183.53,246.81C183.83,243.49 184.14,240.15 184.44,236.84C184.74,233.55 185.04,230.26 185.34,227C185.64,223.77 185.95,220.54 186.25,217.35C186.55,214.2 186.85,211.07 187.15,207.97C187.45,204.93 187.75,201.9 188.05,198.92C188.35,196 188.65,193.1 188.96,190.24C189.26,187.45 189.55,184.7 189.86,181.99C190.16,179.36 190.46,176.76 190.77,174.22C191.07,171.76 191.36,169.34 191.67,166.98C191.97,164.71 192.27,162.48 192.58,160.31C192.87,158.24 193.17,156.21 193.48,154.25C193.77,152.39 194.07,150.58 194.38,148.84C194.67,147.21 194.98,145.63 195.29,144.12C195.58,142.72 195.87,141.38 196.19,140.1C196.48,138.93 196.78,137.81 197.1,136.75C197.39,135.78 197.68,134.85 198,134C198.29,133.24 198.57,132.48 198.9,131.86C199.18,131.34 199.46,130.81 199.81,130.49C200.08,130.24 200.41,130 200.71,130C201.01,130 201.35,130.21 201.62,130.46C201.97,130.78 202.25,131.35 202.52,131.91C202.86,132.61 203.14,133.47 203.42,134.37C203.75,135.42 204.04,136.61 204.33,137.85C204.65,139.25 204.94,140.77 205.23,142.35C205.55,144.09 205.85,145.95 206.14,147.86C206.45,149.94 206.75,152.12 207.04,154.36C207.35,156.76 207.66,159.26 207.95,161.82C208.26,164.52 208.56,167.31 208.85,170.16C209.16,173.14 209.45,176.22 209.75,179.33C210.06,182.56 210.36,185.87 210.66,189.21C210.97,192.65 211.26,196.15 211.56,199.68C211.86,203.28 212.17,206.94 212.47,210.6C212.77,214.31 213.07,218.07 213.37,221.8C213.67,225.53 213.96,229.3 214.27,232.97C214.57,236.54 214.86,240.16 215.18,243.53C215.47,246.62 215.74,249.74 216.08,252.4C216.36,254.58 216.57,256.89 216.99,258.33C217.25,259.21 217.59,260.38 217.89,260.38C218.19,260.38 218.53,259.15 218.79,258.3C219.17,257.06 219.42,255.26 219.7,253.57C220.03,251.64 220.31,249.47 220.6,247.33C220.91,245.06 221.21,242.68 221.51,240.3C221.82,237.86 222.11,235.37 222.41,232.88C222.71,230.36 223.02,227.8 223.32,225.26C223.62,222.71 223.92,220.14 224.22,217.59C224.52,215.05 224.82,212.51 225.12,209.99C225.42,207.5 225.73,205.01 226.03,202.55C226.33,200.13 226.62,197.73 226.93,195.36C227.23,193.04 227.53,190.75 227.84,188.49C228.14,186.3 228.44,184.14 228.74,182.01C229.04,179.95 229.33,177.91 229.64,175.91C229.94,173.97 230.24,172.07 230.55,170.19C230.85,168.37 231.14,166.57 231.45,164.8C231.75,163.08 232.05,161.38 232.36,159.72C232.66,158.11 232.95,156.52 233.26,154.99C233.55,153.53 233.85,152.09 234.16,150.72C234.45,149.45 234.75,148.2 235.07,147.04C235.36,145.99 235.64,144.97 235.97,144.06C236.25,143.27 236.54,142.5 236.88,141.88C237.16,141.38 237.43,140.86 237.78,140.6C238.05,140.39 238.39,140.23 238.68,140.28C239,140.33 239.32,140.67 239.59,141C239.94,141.43 240.21,142.1 240.49,142.77C240.83,143.6 241.12,144.6 241.4,145.63C241.73,146.83 242.01,148.16 242.3,149.55C242.62,151.11 242.92,152.79 243.21,154.52C243.53,156.41 243.82,158.42 244.11,160.48C244.42,162.69 244.72,165 245.01,167.36C245.32,169.85 245.62,172.43 245.92,175.04C246.23,177.76 246.52,180.56 246.82,183.37C247.13,186.26 247.43,189.21 247.73,192.14C248.03,195.09 248.33,198.1 248.63,201.03C248.93,203.91 249.22,206.83 249.53,209.58C249.82,212.14 250.09,214.85 250.44,216.99C250.71,218.64 250.89,220.4 251.34,221.33C251.59,221.85 251.98,222.44 252.25,222.4C252.6,222.35 252.89,221.16 253.15,220.32C253.52,219.12 253.77,217.46 254.05,215.83C254.38,213.9 254.67,211.71 254.96,209.49C255.28,207.04 255.57,204.41 255.86,201.76C256.17,198.96 256.47,196.05 256.77,193.13C257.08,190.14 257.37,187.08 257.67,184.03C257.97,180.93 258.28,177.8 258.58,174.68C258.88,171.56 259.18,168.42 259.48,165.31C259.78,162.22 260.08,159.14 260.38,156.09C260.68,153.09 260.98,150.11 261.29,147.17C261.59,144.3 261.88,141.46 262.19,138.67C262.49,135.97 262.79,133.29 263.1,130.69C263.4,128.19 263.7,125.76 264,123.34C264.3,120.98 264.59,118.63 264.9,116.36C265.19,114.2 265.49,112.05 265.81,110.03C266.1,108.18 266.39,106.38 266.71,104.7C267,103.19 267.3,101.73 267.62,100.4C267.9,99.24 268.19,98.13 268.52,97.17C268.8,96.37 269.07,95.59 269.42,95.01C269.69,94.56 269.99,94.09 270.33,93.92C270.6,93.79 270.95,93.77 271.23,93.89C271.57,94.04 271.87,94.48 272.14,94.91C272.49,95.45 272.76,96.2 273.04,96.96C273.37,97.87 273.67,98.93 273.95,100.02C274.27,101.26 274.56,102.63 274.85,104.04C275.17,105.59 275.46,107.25 275.75,108.95C276.06,110.78 276.37,112.7 276.66,114.66C276.97,116.73 277.26,118.88 277.56,121.05C277.87,123.3 278.17,125.61 278.47,127.91C278.77,130.23 279.05,132.7 279.37,134.91C279.66,136.89 279.95,138.78 280.27,140.55C280.56,142.13 280.86,143.64 281.18,145.02C281.46,146.23 281.71,147.5 282.08,148.39C282.35,149.03 282.62,149.81 282.99,149.95C283.26,150.05 283.63,149.89 283.89,149.67C284.27,149.35 284.51,148.57 284.79,147.9C285.13,147.07 285.41,146.04 285.7,145.04C286.02,143.94 286.3,142.73 286.6,141.56C286.9,140.36 287.2,139.12 287.51,137.93C287.81,136.77 288.1,135.6 288.41,134.52C288.7,133.52 288.99,132.53 289.32,131.66C289.6,130.9 289.88,130.15 290.22,129.57C290.49,129.11 290.77,128.62 291.12,128.42C291.39,128.26 291.75,128.19 292.03,128.29C292.36,128.41 292.66,128.83 292.93,129.23C293.28,129.75 293.56,130.49 293.84,131.24C294.17,132.14 294.46,133.19 294.74,134.28C295.06,135.51 295.35,136.86 295.64,138.25C295.96,139.76 296.26,141.37 296.55,143C296.86,144.73 297.15,146.54 297.45,148.35C297.76,150.22 298.06,152.15 298.36,154.06C298.66,155.99 298.96,157.95 299.26,159.88C299.56,161.78 299.85,163.68 300.16,165.54C300.46,167.35 300.76,169.13 301.07,170.88C301.37,172.56 301.66,174.21 301.97,175.83C302.27,177.39 302.57,178.91 302.88,180.42C303.18,181.88 303.48,183.32 303.78,184.74C304.08,186.12 304.37,187.48 304.68,188.81C304.98,190.11 305.28,191.39 305.59,192.64C305.89,193.85 306.18,195.04 306.49,196.21C306.79,197.35 307.09,198.47 307.4,199.57C307.7,200.65 308,201.71 308.3,202.76C308.6,203.8 308.9,204.83 309.21,205.84C309.51,206.82 309.8,207.8 310.11,208.74C310.4,209.63 310.69,210.51 311.01,211.33C311.3,212.08 311.6,212.82 311.92,213.47C312.21,214.05 312.5,214.6 312.82,215.08C313.11,215.5 313.41,215.89 313.73,216.21C314.02,216.5 314.32,216.75 314.63,216.95C314.92,217.14 315.22,217.28 315.53,217.4C315.83,217.52 316.14,217.58 316.44,217.66C316.74,217.74 317.04,217.79 317.34,217.88C317.64,217.97 317.95,218.05 318.25,218.18C318.56,218.31 318.86,218.47 319.15,218.67C319.46,218.88 319.76,219.14 320.05,219.43C320.37,219.74 320.67,220.11 320.96,220.49C321.27,220.9 321.57,221.36 321.86,221.83C322.17,222.32 322.47,222.84 322.77,223.36C323.08,223.89 323.37,224.46 323.67,224.99C323.97,225.51 324.26,226.06 324.58,226.53C324.87,226.95 325.17,227.33 325.48,227.68C325.77,228 326.07,228.29 326.38,228.56C326.67,228.81 326.97,229.1 327.29,229.25C327.58,229.38 327.89,229.47 328.19,229.45C328.5,229.43 328.82,229.32 329.1,229.13C329.43,228.9 329.73,228.51 330,228.08C330.34,227.55 330.6,226.8 330.9,226.15C331.2,225.49 331.5,224.8 331.81,224.16C332.11,223.54 332.4,222.93 332.71,222.37C333,221.85 333.3,221.34 333.62,220.91C333.91,220.52 334.2,220.15 334.52,219.88C334.8,219.65 335.11,219.44 335.42,219.35C335.71,219.27 336.04,219.26 336.33,219.34C336.64,219.42 336.95,219.64 337.23,219.87C337.56,220.14 337.85,220.51 338.14,220.9C338.46,221.33 338.75,221.85 339.04,222.37C339.36,222.94 339.66,223.57 339.95,224.2C340.26,224.86 340.55,225.57 340.85,226.26C341.15,226.96 341.44,227.69 341.75,228.36C342.04,229 342.34,229.63 342.66,230.19C342.95,230.7 343.24,231.18 343.56,231.59C343.85,231.96 344.16,232.26 344.47,232.57C344.77,232.87 345.07,233.14 345.37,233.41C345.67,233.68 345.97,233.92 346.27,234.2C346.58,234.48 346.89,234.77 347.18,235.09C347.49,235.43 347.79,235.78 348.08,236.17C348.39,236.59 348.7,237.05 348.99,237.53C349.3,238.05 349.6,238.62 349.89,239.19C350.2,239.79 350.49,240.41 350.79,241.04C351.1,241.69 351.4,242.36 351.7,243.03C352,243.7 352.29,244.4 352.6,245.06C352.9,245.71 353.19,246.39 353.51,246.96C353.79,247.46 354.05,248.08 354.41,248.32C354.68,248.5 355.05,248.62 355.32,248.5C355.69,248.33 355.96,247.59 356.22,246.95C356.59,246.07 356.84,244.83 357.12,243.62C357.45,242.21 357.74,240.62 358.03,238.98C358.35,237.16 358.64,235.22 358.93,233.19C359.25,230.96 359.55,228.58 359.84,226.13C360.15,223.49 360.45,220.7 360.74,217.87C361.05,214.88 361.34,211.78 361.64,208.64C361.95,205.38 362.25,202.05 362.55,198.67C362.86,195.18 363.15,191.62 363.45,188.01C363.76,184.28 364.06,180.5 364.36,176.64C364.67,172.65 364.96,168.56 365.26,164.46C365.56,160.27 365.86,155.98 366.16,151.76C366.46,147.55 366.77,143.33 367.07,139.16C367.37,135.06 367.66,130.98 367.97,126.96C368.27,123.04 368.57,119.14 368.88,115.33C369.18,111.63 369.47,107.98 369.78,104.42C370.07,101 370.37,97.63 370.68,94.36C370.97,91.25 371.28,88.2 371.59,85.26C371.88,82.49 372.18,79.79 372.49,77.21C372.78,74.82 373.08,72.49 373.4,70.3C373.69,68.3 373.98,66.36 374.3,64.57C374.59,62.98 374.88,61.45 375.21,60.09C375.49,58.93 375.77,57.81 376.11,56.89C376.38,56.16 376.64,55.41 377.01,54.98C377.28,54.67 377.62,54.38 377.92,54.39C378.23,54.4 378.55,54.76 378.82,55.1C379.19,55.57 379.45,56.33 379.73,57.09C380.07,58.03 380.35,59.16 380.63,60.34C380.96,61.71 381.24,63.24 381.53,64.82C381.85,66.59 382.15,68.49 382.44,70.45C382.76,72.59 383.05,74.86 383.34,77.19C383.65,79.68 383.96,82.29 384.25,84.95C384.56,87.76 384.86,90.66 385.15,93.61C385.46,96.68 385.75,99.84 386.05,103.03C386.36,106.32 386.66,109.67 386.96,113.05C387.27,116.5 387.56,120.01 387.86,123.52C388.16,127.07 388.47,130.68 388.77,134.25C389.07,137.82 389.36,141.42 389.67,144.94C389.97,148.37 390.27,151.83 390.58,155.08C390.87,158.1 391.15,161.13 391.48,163.81C391.76,166.11 392.04,168.34 392.38,170.22C392.66,171.73 392.91,173.2 393.29,174.26C393.55,175.01 393.8,175.82 394.19,176.08C394.45,176.25 394.82,176.23 395.1,176.12C395.43,175.99 395.71,175.53 396,175.18C396.32,174.78 396.6,174.29 396.9,173.84C397.2,173.38 397.5,172.88 397.81,172.43C398.11,172 398.4,171.56 398.71,171.18C399,170.83 399.3,170.48 399.62,170.23C399.91,170.01 400.21,169.79 400.52,169.71C400.81,169.63 401.13,169.63 401.42,169.72C401.74,169.82 402.05,170.05 402.33,170.32C402.66,170.64 402.95,171.08 403.23,171.55C403.56,172.1 403.85,172.76 404.14,173.44C404.46,174.21 404.75,175.09 405.04,175.97C405.35,176.92 405.65,177.94 405.95,178.96C406.26,180.02 406.56,181.11 406.85,182.23C407.16,183.4 407.45,184.62 407.75,185.85C408.06,187.13 408.36,188.45 408.66,189.79C408.97,191.17 409.26,192.6 409.56,194C409.86,195.39 410.16,196.81 410.47,198.17C410.77,199.47 411.06,200.75 411.37,201.97C411.66,203.1 411.97,204.16 412.27,205.23C412.57,206.28 412.87,207.32 413.18,208.34C413.48,209.34 413.77,210.33 414.08,211.29C414.38,212.22 414.69,213.12 414.99,214.04C415.29,214.96 415.59,215.87 415.89,216.8C416.19,217.75 416.49,218.73 416.79,219.7C417.09,220.68 417.39,221.71 417.7,222.66C417.99,223.56 418.3,224.4 418.6,225.28C418.9,226.18 419.21,227.08 419.51,227.99C419.81,228.9 420.11,229.82 420.41,230.73C420.71,231.64 421.02,232.55 421.32,233.46C421.62,234.37 421.92,235.28 422.22,236.18C422.52,237.06 422.81,237.94 423.12,238.79C423.42,239.61 423.72,240.42 424.03,241.19C424.32,241.92 424.62,242.64 424.93,243.32C425.22,243.96 425.53,244.58 425.84,245.17C426.13,245.73 426.43,246.27 426.74,246.79C427.03,247.29 427.33,247.77 427.64,248.23C427.94,248.68 428.24,249.11 428.55,249.53C428.85,249.94 429.15,250.34 429.45,250.73C429.75,251.12 430.06,251.49 430.36,251.88C430.66,252.27 430.96,252.65 431.26,253.05C431.56,253.45 431.86,253.87 432.16,254.28C432.46,254.69 432.77,255.09 433.07,255.5C433.37,255.9 433.67,256.3 433.97,256.71C434.27,257.13 434.58,257.54 434.88,257.98C435.19,258.44 435.48,258.91 435.78,259.4C436.09,259.9 436.38,260.44 436.68,260.96C436.98,261.49 437.29,262.04 437.59,262.57C437.89,263.09 438.18,263.62 438.49,264.13C438.79,264.62 439.09,265.11 439.4,265.56C439.69,265.98 439.99,266.4 440.3,266.76C440.59,267.1 440.9,267.41 441.21,267.68C441.5,267.93 441.8,268.16 442.11,268.34C442.4,268.5 442.7,268.65 443.01,268.72C443.31,268.79 443.62,268.78 443.92,268.75C444.22,268.72 444.53,268.65 444.82,268.52C445.13,268.38 445.44,268.16 445.73,267.92C446.04,267.67 446.34,267.36 446.63,267.03C446.94,266.67 447.24,266.27 447.53,265.85C447.84,265.39 448.15,264.89 448.44,264.36C448.75,263.8 449.05,263.19 449.34,262.57C449.65,261.92 449.95,261.24 450.25,260.55C450.56,259.84 450.85,259.12 451.15,258.39C451.45,257.65 451.75,256.9 452.05,256.15C452.35,255.4 452.66,254.65 452.96,253.9C453.26,253.16 453.56,252.42 453.86,251.69C454.16,250.98 454.46,250.27 454.77,249.58C455.07,248.92 455.36,248.26 455.67,247.64C455.97,247.04 456.27,246.46 456.58,245.91C456.87,245.4 457.17,244.89 457.48,244.44C457.77,244.02 458.06,243.62 458.38,243.28C458.67,242.97 458.97,242.68 459.29,242.45C459.58,242.24 459.88,242.07 460.19,241.95C460.48,241.84 460.8,241.78 461.1,241.76Q461.4,241.74 462,241.8" style="vector-effect: non-scaling-stroke; fill: none; stroke: rgb(0, 100, 80); stroke-opacity: 1; stroke-width: 2px; opacity: 1;"/></g><g class="points"/><g class="text"/></g><g class="trace scatter trace9cfbd8" style="stroke-miterlimit: 2; opacity: 1;"><g class="fills"/><g class="errorbars"/><g class="lines"><path class="js-line" d="M0,160.63Q0.62,160.65 0.9,160.78C1.22,160.93 1.53,161.23 1.81,161.55C2.14,161.93 2.43,162.43 2.71,162.96C3.04,163.57 3.33,164.29 3.62,165.04C3.94,165.88 4.23,166.8 4.52,167.75C4.83,168.79 5.13,169.9 5.42,171.04C5.73,172.25 6.03,173.53 6.33,174.81C6.64,176.14 6.93,177.52 7.23,178.89C7.53,180.27 7.83,181.68 8.14,183.05C8.44,184.38 8.73,185.74 9.04,187C9.33,188.17 9.63,189.32 9.95,190.35C10.23,191.25 10.52,192.12 10.85,192.85C11.13,193.46 11.4,194.05 11.75,194.45C12.02,194.77 12.34,195.07 12.66,195.15C12.95,195.22 13.28,195.12 13.56,194.99C13.88,194.84 14.18,194.51 14.47,194.21C14.79,193.87 15.08,193.45 15.37,193.03C15.68,192.58 15.97,192.09 16.27,191.6C16.58,191.09 16.88,190.56 17.18,190.04C17.48,189.52 17.77,188.98 18.08,188.47C18.38,187.97 18.68,187.47 18.99,187C19.29,186.55 19.58,186.1 19.89,185.7C20.18,185.32 20.48,184.96 20.79,184.64C21.08,184.33 21.39,184.05 21.7,183.8C21.99,183.57 22.29,183.35 22.6,183.2C22.89,183.06 23.2,182.94 23.51,182.91C23.81,182.88 24.12,182.91 24.41,183.02C24.73,183.14 25.04,183.36 25.32,183.63C25.65,183.95 25.94,184.39 26.22,184.86C26.55,185.41 26.84,186.07 27.12,186.76C27.44,187.55 27.74,188.44 28.03,189.36C28.35,190.37 28.62,191.54 28.93,192.57C29.22,193.55 29.5,194.57 29.84,195.4C30.12,196.08 30.45,196.56 30.74,197.21C31.06,197.94 31.36,198.72 31.64,199.57C31.97,200.55 32.26,201.64 32.55,202.77C32.87,204.03 33.16,205.4 33.45,206.81C33.77,208.35 34.07,209.98 34.36,211.65C34.67,213.43 34.97,215.31 35.26,217.2C35.57,219.18 35.86,221.23 36.16,223.3C36.47,225.43 36.77,227.62 37.07,229.8C37.37,232.02 37.67,234.27 37.97,236.51C38.27,238.76 38.58,241.03 38.88,243.29C39.18,245.55 39.48,247.82 39.78,250.06C40.08,252.28 40.37,254.5 40.68,256.68C40.98,258.8 41.28,260.92 41.59,262.96C41.88,264.89 42.17,266.81 42.49,268.61C42.78,270.27 43.08,271.91 43.4,273.39C43.68,274.69 43.95,276 44.3,277.02C44.57,277.8 44.81,278.72 45.21,279.01C45.47,279.2 45.85,279.26 46.11,279.11C46.52,278.87 46.74,277.82 47.01,276.99C47.37,275.87 47.63,274.36 47.92,272.96C48.24,271.44 48.52,269.79 48.82,268.18C49.13,266.52 49.43,264.82 49.73,263.14C50.03,261.47 50.33,259.77 50.63,258.12C50.93,256.5 51.22,254.88 51.53,253.32C51.83,251.83 52.13,250.35 52.44,248.94C52.73,247.61 53.02,246.31 53.34,245.09C53.63,243.97 53.93,242.88 54.25,241.87C54.54,240.96 54.83,240.09 55.15,239.31C55.43,238.62 55.73,237.97 56.05,237.4C56.33,236.9 56.64,236.45 56.96,236.06C57.25,235.71 57.54,235.4 57.86,235.14C58.15,234.9 58.46,234.7 58.77,234.56C59.06,234.43 59.37,234.35 59.67,234.33C59.97,234.31 60.28,234.37 60.58,234.45C60.89,234.53 61.18,234.69 61.48,234.83C61.78,234.98 62.07,235.18 62.38,235.32C62.68,235.45 62.98,235.59 63.29,235.64C63.59,235.68 63.89,235.65 64.19,235.6C64.5,235.54 64.8,235.41 65.1,235.3C65.4,235.19 65.7,235.05 66,234.93C66.3,234.81 66.6,234.68 66.9,234.59C67.2,234.5 67.51,234.43 67.81,234.38C68.11,234.33 68.41,234.33 68.71,234.3C69.01,234.27 69.33,234.28 69.62,234.19C69.93,234.09 70.21,233.83 70.52,233.7C70.81,233.57 71.12,233.44 71.42,233.4C71.72,233.36 72.04,233.37 72.33,233.45C72.64,233.53 72.94,233.71 73.23,233.91C73.55,234.13 73.85,234.44 74.14,234.76C74.46,235.12 74.75,235.54 75.04,235.97C75.35,236.44 75.66,236.95 75.95,237.49C76.26,238.07 76.56,238.7 76.85,239.35C77.16,240.04 77.45,240.79 77.75,241.53C78.06,242.28 78.36,243.04 78.66,243.82C78.97,244.62 79.26,245.44 79.56,246.27C79.87,247.13 80.17,248.01 80.47,248.89C80.77,249.78 81.07,250.69 81.37,251.58C81.67,252.47 81.97,253.36 82.27,254.25C82.57,255.14 82.88,256.02 83.18,256.91C83.48,257.81 83.78,258.71 84.08,259.61C84.38,260.52 84.69,261.43 84.99,262.34C85.29,263.24 85.59,264.15 85.89,265.03C86.19,265.9 86.48,266.76 86.79,267.59C87.09,268.39 87.39,269.18 87.7,269.95C88,270.69 88.29,271.43 88.6,272.13C88.9,272.8 89.2,273.47 89.51,274.09C89.8,274.67 90.09,275.26 90.41,275.76C90.7,276.21 90.98,276.68 91.32,276.97C91.6,277.21 91.91,277.42 92.22,277.47C92.51,277.52 92.84,277.44 93.12,277.29C93.45,277.11 93.76,276.75 94.03,276.35C94.38,275.84 94.65,275.13 94.93,274.4C95.27,273.52 95.56,272.5 95.84,271.42C96.17,270.17 96.46,268.81 96.74,267.34C97.07,265.63 97.35,263.68 97.64,261.76C97.95,259.71 98.25,257.57 98.55,255.41C98.86,253.18 99.15,250.88 99.45,248.59C99.75,246.26 100.06,243.89 100.36,241.55C100.66,239.22 100.96,236.86 101.26,234.56C101.56,232.3 101.85,230.05 102.16,227.86C102.46,225.75 102.76,223.66 103.07,221.65C103.36,219.74 103.66,217.86 103.97,216.06C104.26,214.36 104.57,212.75 104.88,211.13C105.18,209.54 105.47,207.94 105.78,206.43C106.07,205.01 106.36,203.59 106.68,202.3C106.97,201.14 107.26,200.03 107.59,199.04C107.87,198.19 108.15,197.37 108.49,196.72C108.77,196.19 109.05,195.65 109.4,195.36C109.67,195.13 110,194.94 110.3,194.96C110.61,194.98 110.94,195.25 111.21,195.52C111.56,195.87 111.83,196.43 112.11,196.99C112.44,197.67 112.73,198.49 113.01,199.33C113.33,200.29 113.63,201.35 113.92,202.44C114.24,203.63 114.53,204.91 114.82,206.22C115.13,207.62 115.44,209.09 115.73,210.58C116.04,212.15 116.34,213.77 116.63,215.41C116.94,217.12 117.23,218.87 117.53,220.63C117.84,222.43 118.14,224.27 118.44,226.1C118.74,227.95 119.04,229.83 119.34,231.69C119.64,233.55 119.95,235.42 120.25,237.27C120.55,239.1 120.85,240.92 121.15,242.71C121.45,244.46 121.74,246.2 122.05,247.9C122.35,249.54 122.65,251.16 122.96,252.73C123.25,254.23 123.55,255.69 123.86,257.11C124.15,258.45 124.46,259.77 124.77,261.03C125.06,262.22 125.36,263.38 125.67,264.48C125.96,265.51 126.26,266.51 126.58,267.44C126.87,268.28 127.16,269.1 127.48,269.83C127.76,270.47 128.04,271.11 128.38,271.6C128.66,272.01 128.95,272.45 129.29,272.62C129.57,272.76 129.91,272.79 130.19,272.71C130.51,272.61 130.82,272.29 131.1,271.98C131.44,271.6 131.72,271.08 132,270.55C132.33,269.93 132.61,269.21 132.9,268.47C133.22,267.66 133.51,266.77 133.81,265.89C134.12,264.97 134.41,264 134.71,263.04C135.01,262.06 135.32,261.07 135.62,260.08C135.92,259.1 136.22,258.11 136.52,257.14C136.82,256.19 137.11,255.24 137.42,254.32C137.72,253.43 138.02,252.56 138.33,251.71C138.63,250.9 138.92,250.11 139.23,249.34C139.53,248.59 139.84,247.87 140.14,247.13C140.44,246.4 140.74,245.68 141.04,244.94C141.34,244.18 141.65,243.41 141.95,242.64C142.25,241.87 142.55,241.09 142.85,240.34C143.15,239.61 143.44,238.88 143.75,238.19C144.04,237.53 144.35,236.89 144.66,236.28C144.95,235.71 145.25,235.15 145.56,234.64C145.85,234.16 146.15,233.7 146.47,233.28C146.76,232.9 147.06,232.54 147.37,232.23C147.66,231.95 147.95,231.68 148.27,231.48C148.56,231.3 148.87,231.16 149.18,231.08C149.47,231.01 149.78,230.99 150.08,231.02C150.39,231.05 150.69,231.16 150.99,231.28C151.3,231.41 151.59,231.62 151.89,231.77C152.19,231.91 152.48,232.08 152.79,232.16C153.09,232.24 153.4,232.23 153.7,232.26C154,232.29 154.3,232.29 154.6,232.35C154.91,232.41 155.21,232.49 155.51,232.61C155.82,232.74 156.12,232.91 156.41,233.12C156.72,233.34 157.01,233.66 157.32,233.91C157.62,234.16 157.91,234.41 158.22,234.62C158.51,234.82 158.83,234.95 159.12,235.16C159.43,235.38 159.73,235.65 160.03,235.92C160.34,236.21 160.63,236.53 160.93,236.85C161.24,237.18 161.54,237.5 161.84,237.85C162.15,238.21 162.45,238.58 162.74,238.97C163.05,239.38 163.35,239.81 163.64,240.26C163.95,240.74 164.26,241.24 164.55,241.76C164.86,242.31 165.16,242.89 165.45,243.49C165.76,244.13 166.07,244.8 166.36,245.5C166.67,246.24 166.97,247.02 167.26,247.82C167.57,248.66 167.86,249.55 168.16,250.43C168.47,251.34 168.77,252.29 169.07,253.2C169.37,254.09 169.66,255 169.97,255.85C170.26,256.65 170.57,257.41 170.88,258.17C171.18,258.91 171.48,259.64 171.78,260.36C172.08,261.05 172.34,261.82 172.68,262.4C172.96,262.88 173.26,263.31 173.59,263.62C173.87,263.89 174.19,264.02 174.49,264.22C174.79,264.42 175.1,264.61 175.4,264.81C175.7,265.02 176,265.24 176.3,265.45C176.6,265.65 176.89,265.97 177.21,266.04C177.5,266.11 177.84,266.1 178.11,265.93C178.47,265.7 178.74,265.06 179.01,264.49C179.36,263.75 179.64,262.78 179.92,261.81C180.25,260.7 180.54,259.47 180.82,258.17C181.14,256.69 181.45,255.09 181.73,253.38C182.06,251.41 182.34,249.25 182.63,247.02C182.95,244.57 183.23,241.92 183.53,239.29C183.84,236.54 184.14,233.7 184.44,230.87C184.74,228 185.04,225.09 185.34,222.19C185.64,219.29 185.95,216.37 186.25,213.47C186.55,210.59 186.85,207.72 187.15,204.87C187.45,202.06 187.75,199.25 188.05,196.48C188.35,193.75 188.66,191.04 188.96,188.35C189.26,185.71 189.56,183.09 189.86,180.5C190.16,177.96 190.46,175.44 190.77,172.96C191.07,170.53 191.36,168.12 191.67,165.75C191.97,163.45 192.27,161.18 192.58,158.96C192.88,156.82 193.17,154.72 193.48,152.67C193.77,150.72 194.07,148.8 194.38,146.95C194.67,145.2 194.98,143.49 195.29,141.86C195.58,140.34 195.87,138.87 196.19,137.48C196.48,136.21 196.78,134.98 197.1,133.85C197.39,132.85 197.67,131.88 198,131.04C198.28,130.32 198.56,129.62 198.9,129.08C199.18,128.65 199.47,128.21 199.81,128.01C200.09,127.85 200.43,127.77 200.71,127.85C201.03,127.94 201.34,128.29 201.62,128.62C201.96,129.03 202.24,129.64 202.52,130.22C202.84,130.88 203.13,131.62 203.42,132.39C203.74,133.23 204.04,134.11 204.33,135.07C204.65,136.15 204.94,137.33 205.23,138.56C205.55,139.93 205.85,141.41 206.14,142.93C206.46,144.59 206.75,146.35 207.04,148.15C207.35,150.09 207.66,152.11 207.95,154.18C208.26,156.37 208.56,158.65 208.85,160.97C209.16,163.4 209.45,165.9 209.75,168.43C210.06,171.06 210.36,173.76 210.66,176.48C210.97,179.28 211.26,182.15 211.56,185.02C211.86,187.95 212.17,190.92 212.47,193.89C212.77,196.89 213.07,199.94 213.37,202.93C213.67,205.86 213.94,208.95 214.27,211.65C214.55,214 214.85,216.24 215.18,218.24C215.46,219.93 215.61,221.91 216.08,222.88C216.33,223.41 216.73,224.01 216.99,223.95C217.42,223.85 217.62,221.54 217.89,220.09C218.24,218.24 218.5,215.94 218.79,213.71C219.11,211.26 219.41,208.63 219.7,205.99C220.01,203.23 220.3,200.36 220.6,197.5C220.91,194.57 221.21,191.58 221.51,188.59C221.81,185.57 222.11,182.51 222.41,179.47C222.71,176.42 223.02,173.35 223.32,170.31C223.62,167.29 223.92,164.26 224.22,161.27C224.52,158.32 224.82,155.38 225.12,152.48C225.42,149.64 225.72,146.82 226.03,144.05C226.33,141.37 226.62,138.71 226.93,136.12C227.23,133.62 227.53,131.16 227.84,128.77C228.13,126.49 228.43,124.25 228.74,122.1C229.03,120.07 229.33,118.08 229.64,116.19C229.93,114.43 230.23,112.72 230.55,111.11C230.84,109.64 231.13,108.22 231.45,106.92C231.74,105.76 232.03,104.64 232.36,103.66C232.64,102.82 232.92,102 233.26,101.36C233.53,100.84 233.83,100.4 234.16,100.04C234.44,99.73 234.75,99.44 235.07,99.29C235.35,99.16 235.69,99.05 235.97,99.13C236.3,99.22 236.59,99.62 236.88,99.94C237.2,100.3 237.5,100.74 237.78,101.22C238.1,101.77 238.4,102.41 238.68,103.1C239.01,103.92 239.3,104.86 239.59,105.83C239.91,106.92 240.2,108.12 240.49,109.35C240.81,110.7 241.11,112.14 241.4,113.61C241.71,115.19 242.01,116.84 242.3,118.53C242.61,120.32 242.91,122.17 243.21,124.05C243.52,126.02 243.81,128.04 244.11,130.09C244.42,132.21 244.71,134.38 245.01,136.56C245.32,138.79 245.62,141.06 245.92,143.34C246.22,145.64 246.52,147.98 246.82,150.3C247.12,152.62 247.43,154.96 247.73,157.26C248.03,159.51 248.32,161.78 248.63,163.96C248.92,166.05 249.21,168.14 249.53,170.09C249.82,171.87 250.1,173.68 250.44,175.17C250.71,176.36 251,178.32 251.34,178.34C251.62,178.36 251.99,177.2 252.25,176.32C252.68,174.84 252.88,172.45 253.15,170.15C253.49,167.24 253.75,163.58 254.05,160.24C254.36,156.82 254.66,153.31 254.96,149.86C255.26,146.44 255.55,143.01 255.86,139.64C256.16,136.35 256.46,133.07 256.77,129.87C257.07,126.77 257.36,123.71 257.67,120.73C257.97,117.89 258.27,115.09 258.58,112.39C258.87,109.84 259.17,107.34 259.48,104.94C259.77,102.69 260.07,100.53 260.38,98.42C260.67,96.42 260.98,94.5 261.29,92.6C261.59,90.78 261.87,88.96 262.19,87.26C262.48,85.71 262.78,84.19 263.1,82.81C263.38,81.59 263.67,80.41 264,79.39C264.28,78.54 264.55,77.7 264.9,77.09C265.17,76.62 265.46,76.12 265.81,75.97C266.08,75.85 266.44,75.89 266.71,76.04C267.06,76.24 267.35,76.78 267.62,77.28C267.97,77.92 268.24,78.78 268.52,79.65C268.85,80.69 269.13,81.88 269.42,83.11C269.74,84.49 270.04,86 270.33,87.55C270.65,89.24 270.94,91.04 271.23,92.87C271.54,94.83 271.84,96.87 272.14,98.94C272.45,101.1 272.74,103.33 273.04,105.58C273.35,107.9 273.65,110.26 273.95,112.64C274.25,115.06 274.55,117.5 274.85,119.96C275.15,122.45 275.45,124.96 275.75,127.47C276.05,130.01 276.36,132.56 276.66,135.12C276.96,137.69 277.26,140.28 277.56,142.87C277.86,145.46 278.17,148.06 278.47,150.65C278.77,153.22 279.07,155.8 279.37,158.34C279.67,160.83 279.96,163.32 280.27,165.74C280.57,168.07 280.87,170.4 281.18,172.6C281.47,174.64 281.7,176.9 282.08,178.49C282.35,179.61 282.61,180.6 282.99,181.29C283.25,181.77 283.55,182.25 283.89,182.39C284.16,182.5 284.53,182.49 284.79,182.3C285.22,181.98 285.41,180.8 285.7,179.96C286.02,179.01 286.31,177.96 286.6,176.9C286.91,175.77 287.21,174.57 287.51,173.37C287.82,172.13 288.1,170.82 288.41,169.58C288.71,168.38 289.01,167.17 289.32,166.04C289.61,165 289.9,163.97 290.22,163.04C290.5,162.21 290.79,161.4 291.12,160.73C291.4,160.16 291.68,159.59 292.03,159.23C292.3,158.94 292.62,158.66 292.93,158.62C293.22,158.58 293.57,158.72 293.84,158.92C294.18,159.17 294.46,159.66 294.74,160.13C295.08,160.71 295.36,161.44 295.64,162.18C295.96,163.03 296.26,163.99 296.55,164.97C296.87,166.04 297.16,167.19 297.45,168.35C297.76,169.58 298.06,170.87 298.36,172.18C298.67,173.54 298.96,174.95 299.26,176.37C299.56,177.83 299.86,179.32 300.16,180.8C300.46,182.28 300.76,183.79 301.07,185.24C301.37,186.63 301.65,188.05 301.97,189.34C302.26,190.5 302.55,191.65 302.88,192.64C303.16,193.48 303.45,194.25 303.78,194.91C304.06,195.46 304.35,195.96 304.68,196.35C304.96,196.68 305.27,196.95 305.59,197.16C305.88,197.35 306.18,197.46 306.49,197.56C306.79,197.66 307.1,197.72 307.4,197.78C307.7,197.84 308,197.87 308.3,197.92C308.6,197.97 308.91,198.01 309.21,198.07C309.51,198.12 309.81,198.18 310.11,198.25C310.41,198.32 310.71,198.4 311.01,198.5C311.31,198.6 311.62,198.72 311.92,198.85C312.22,198.98 312.52,199.13 312.82,199.29C313.13,199.45 313.43,199.63 313.73,199.82C314.03,200.01 314.33,200.21 314.63,200.43C314.93,200.65 315.21,201.05 315.53,201.14C315.82,201.22 316.15,201.15 316.44,201.05C316.75,200.95 317.03,200.62 317.34,200.51C317.63,200.41 317.95,200.34 318.25,200.38C318.56,200.42 318.87,200.55 319.15,200.74C319.47,200.96 319.77,201.3 320.05,201.66C320.38,202.08 320.67,202.59 320.96,203.13C321.28,203.73 321.57,204.42 321.86,205.11C322.17,205.86 322.47,206.66 322.77,207.47C323.08,208.32 323.37,209.21 323.67,210.09C323.97,210.98 324.28,211.89 324.58,212.78C324.88,213.65 325.17,214.53 325.48,215.35C325.77,216.13 326.06,216.9 326.38,217.6C326.67,218.23 326.95,218.87 327.29,219.35C327.57,219.75 327.85,220.2 328.19,220.34C328.47,220.46 328.82,220.44 329.1,220.31C329.44,220.14 329.73,219.68 330,219.24C330.34,218.69 330.61,217.95 330.9,217.23C331.22,216.42 331.52,215.5 331.81,214.59C332.12,213.64 332.41,212.64 332.71,211.65C333.01,210.65 333.32,209.63 333.62,208.63C333.92,207.65 334.21,206.66 334.52,205.72C334.81,204.83 335.1,203.94 335.42,203.12C335.71,202.36 336.01,201.63 336.33,200.97C336.62,200.38 336.9,199.82 337.23,199.35C337.51,198.95 337.81,198.56 338.14,198.31C338.42,198.1 338.73,197.92 339.04,197.89C339.34,197.86 339.67,197.94 339.95,198.09C340.27,198.26 340.57,198.58 340.85,198.91C341.18,199.29 341.46,199.78 341.75,200.27C342.07,200.81 342.36,201.43 342.66,202.04C342.97,202.67 343.2,203.52 343.56,203.99C343.83,204.34 344.15,204.58 344.47,204.76C344.76,204.92 345.09,204.91 345.37,205.07C345.69,205.25 345.99,205.53 346.27,205.85C346.6,206.22 346.89,206.7 347.18,207.17C347.49,207.68 347.78,208.26 348.08,208.82C348.39,209.39 348.7,209.96 348.99,210.57C349.3,211.23 349.59,211.95 349.89,212.66C350.19,213.39 350.49,214.16 350.79,214.89C351.09,215.61 351.39,216.34 351.7,217.01C351.99,217.63 352.28,218.25 352.6,218.79C352.89,219.28 353.18,219.77 353.51,220.14C353.79,220.45 354.1,220.87 354.41,220.9C354.7,220.93 355.06,220.66 355.32,220.37C355.7,219.94 355.95,219.12 356.22,218.34C356.57,217.35 356.83,216.09 357.12,214.85C357.44,213.47 357.74,211.98 358.03,210.43C358.35,208.71 358.64,206.87 358.93,204.98C359.24,202.94 359.55,200.79 359.84,198.6C360.15,196.28 360.46,193.96 360.74,191.41C361.06,188.52 361.36,185.46 361.64,182.16C361.97,178.36 362.25,174.09 362.55,169.91C362.86,165.53 363.15,160.99 363.45,156.47C363.75,151.86 364.06,147.18 364.36,142.52C364.66,137.84 364.96,133.14 365.26,128.46C365.56,123.8 365.86,119.13 366.16,114.51C366.46,109.94 366.77,105.37 367.07,100.87C367.37,96.45 367.66,92.06 367.97,87.74C368.27,83.54 368.57,79.37 368.88,75.3C369.18,71.37 369.47,67.48 369.78,63.71C370.07,60.1 370.37,56.55 370.68,53.13C370.97,49.9 371.28,46.73 371.59,43.7C371.88,40.88 372.17,38.12 372.49,35.52C372.78,33.14 373.08,30.83 373.4,28.69C373.69,26.78 373.97,24.93 374.3,23.28C374.58,21.86 374.87,20.49 375.21,19.35C375.48,18.43 375.74,17.51 376.11,16.92C376.37,16.5 376.69,16.04 377.01,16C377.3,15.97 377.66,16.26 377.92,16.57C378.3,17.01 378.55,17.83 378.82,18.61C379.17,19.6 379.45,20.8 379.73,22.05C380.06,23.5 380.34,25.14 380.63,26.82C380.95,28.7 381.24,30.73 381.53,32.81C381.84,35.07 382.15,37.46 382.44,39.89C382.75,42.47 383.04,45.17 383.34,47.89C383.65,50.73 383.95,53.66 384.25,56.59C384.56,59.59 384.85,62.66 385.15,65.71C385.45,68.78 385.75,71.89 386.05,74.95C386.35,77.98 386.65,81.02 386.96,83.99C387.26,86.87 387.55,89.74 387.86,92.51C388.15,95.15 388.46,97.71 388.77,100.22C389.06,102.61 389.36,104.96 389.67,107.22C389.96,109.36 390.25,111.55 390.58,113.45C390.86,115.07 391.16,116.53 391.48,117.94C391.77,119.21 392.07,120.37 392.38,121.54C392.67,122.65 392.99,123.71 393.29,124.78C393.59,125.83 393.89,126.84 394.19,127.9C394.5,128.98 394.8,130.07 395.1,131.2C395.41,132.38 395.71,133.6 396,134.85C396.31,136.17 396.6,137.52 396.9,138.91C397.21,140.36 397.51,141.85 397.81,143.37C398.12,144.95 398.41,146.57 398.71,148.23C399.02,149.96 399.32,151.72 399.62,153.52C399.93,155.4 400.22,157.35 400.52,159.29C400.82,161.25 401.12,163.22 401.42,165.21C401.72,167.25 402.03,169.29 402.33,171.39C402.64,173.58 402.93,175.83 403.23,178.11C403.54,180.47 403.84,182.87 404.14,185.3C404.45,187.79 404.74,190.32 405.04,192.85C405.34,195.42 405.65,198.03 405.95,200.62C406.25,203.21 406.55,205.82 406.85,208.39C407.15,210.91 407.44,213.45 407.75,215.89C408.05,218.23 408.35,220.55 408.66,222.75C408.95,224.79 409.24,226.77 409.56,228.65C409.85,230.37 410.15,232.03 410.47,233.6C410.76,235.03 411.06,236.4 411.37,237.7C411.66,238.88 411.94,240.06 412.27,241.08C412.55,241.94 412.87,242.69 413.18,243.43C413.47,244.12 413.74,244.85 414.08,245.39C414.36,245.83 414.68,246.14 414.99,246.47C415.28,246.77 415.59,247.01 415.89,247.29C416.19,247.57 416.49,247.84 416.79,248.13C417.1,248.42 417.4,248.72 417.7,249.04C418.01,249.36 418.3,249.7 418.6,250.05C418.91,250.41 419.21,250.79 419.51,251.17C419.81,251.56 420.11,251.97 420.41,252.37C420.71,252.77 421.01,253.18 421.32,253.56C421.62,253.92 421.9,254.31 422.22,254.59C422.5,254.84 422.8,255.09 423.12,255.21C423.41,255.32 423.75,255.4 424.03,255.3C424.36,255.18 424.64,254.75 424.93,254.42C425.25,254.05 425.55,253.61 425.84,253.18C426.15,252.72 426.44,252.22 426.74,251.74C427.04,251.25 427.33,250.74 427.64,250.27C427.94,249.81 428.24,249.35 428.55,248.95C428.84,248.58 429.13,248.21 429.45,247.92C429.74,247.66 430.04,247.41 430.36,247.27C430.65,247.14 430.96,247.05 431.26,247.06C431.56,247.07 431.87,247.17 432.16,247.32C432.48,247.49 432.78,247.77 433.07,248.07C433.39,248.41 433.68,248.84 433.97,249.29C434.29,249.78 434.59,250.35 434.88,250.92C435.19,251.52 435.47,252.21 435.78,252.8C436.07,253.35 436.36,253.88 436.68,254.34C436.97,254.75 437.26,255.17 437.59,255.44C437.87,255.67 438.18,255.85 438.49,255.92C438.78,255.98 439.11,255.95 439.4,255.87C439.71,255.79 440,255.59 440.3,255.43C440.6,255.27 440.91,255.09 441.21,254.92C441.51,254.75 441.81,254.59 442.11,254.42C442.41,254.25 442.71,254.1 443.01,253.92C443.31,253.74 443.62,253.54 443.92,253.35C444.22,253.16 444.52,252.95 444.82,252.77C445.12,252.59 445.42,252.42 445.73,252.27C446.03,252.13 446.33,252 446.63,251.9C446.93,251.8 447.23,251.72 447.53,251.67C447.83,251.62 448.14,251.6 448.44,251.62C448.74,251.64 449.04,251.69 449.34,251.77C449.65,251.86 449.96,251.98 450.25,252.14C450.56,252.31 450.86,252.52 451.15,252.76C451.46,253.02 451.76,253.32 452.05,253.64C452.36,253.99 452.67,254.38 452.96,254.79C453.27,255.23 453.57,255.71 453.86,256.21C454.17,256.74 454.48,257.31 454.77,257.9C455.08,258.52 455.38,259.16 455.67,259.82C455.98,260.51 456.28,261.23 456.58,261.96C456.89,262.71 457.18,263.48 457.48,264.26C457.78,265.05 458.08,265.86 458.38,266.67C458.68,267.48 458.99,268.31 459.29,269.12C459.59,269.92 459.88,270.73 460.19,271.51C460.49,272.26 460.79,273.02 461.1,273.72Q461.39,274.36 462,275.54" style="vector-effect: non-scaling-stroke; fill: none; stroke: rgb(0, 176, 246); stroke-opacity: 1; stroke-width: 2px; opacity: 1;"/></g><g class="points"/><g class="text"/></g><g class="trace scatter tracee5b83d" style="stroke-miterlimit: 2; opacity: 1;"><g class="fills"/><g class="errorbars"/><g class="lines"><path class="js-line" d="M0,84.44Q0.6,84.46 0.9,84.52C1.21,84.58 1.51,84.67 1.81,84.78C2.12,84.9 2.42,85.04 2.71,85.21C3.02,85.39 3.33,85.6 3.62,85.84C3.93,86.09 4.23,86.38 4.52,86.68C4.83,87 5.13,87.36 5.42,87.73C5.73,88.13 6.04,88.56 6.33,89.01C6.64,89.49 6.94,90.01 7.23,90.54C7.54,91.11 7.85,91.7 8.14,92.32C8.45,92.97 8.75,93.66 9.04,94.36C9.35,95.1 9.65,95.86 9.95,96.65C10.26,97.47 10.56,98.33 10.85,99.2C11.16,100.11 11.45,101.06 11.75,102.02C12.06,103.02 12.36,104.05 12.66,105.1C12.97,106.19 13.26,107.3 13.56,108.44C13.87,109.62 14.17,110.82 14.47,112.04C14.78,113.31 15.07,114.6 15.37,115.92C15.67,117.28 15.97,118.66 16.27,120.07C16.58,121.52 16.88,123.01 17.18,124.51C17.49,126.06 17.78,127.64 18.08,129.24C18.39,130.9 18.69,132.59 18.99,134.3C19.3,136.07 19.59,137.86 19.89,139.69C20.19,141.57 20.49,143.49 20.79,145.44C21.1,147.45 21.4,149.48 21.7,151.55C22.01,153.68 22.28,156.02 22.6,158.04C22.89,159.83 23.21,161.43 23.51,163.09C23.81,164.72 24.12,166.26 24.41,167.92C24.72,169.67 25.03,171.48 25.32,173.32C25.63,175.25 25.93,177.25 26.22,179.27C26.53,181.38 26.82,183.54 27.12,185.73C27.43,187.99 27.73,190.3 28.03,192.63C28.34,195.02 28.63,197.45 28.93,199.88C29.23,202.35 29.54,204.86 29.84,207.35C30.14,209.84 30.44,212.36 30.74,214.84C31.04,217.28 31.33,219.74 31.64,222.12C31.94,224.42 32.24,226.7 32.55,228.89C32.84,230.97 33.14,233.01 33.45,234.96C33.74,236.79 34.05,238.56 34.36,240.27C34.65,241.88 34.95,243.43 35.26,244.93C35.55,246.33 35.85,247.7 36.16,249C36.45,250.21 36.76,251.39 37.07,252.5C37.36,253.53 37.66,254.51 37.97,255.46C38.26,256.35 38.57,257.19 38.88,258.02C39.17,258.81 39.47,259.59 39.78,260.32C40.07,261.01 40.35,261.7 40.68,262.29C40.96,262.8 41.24,263.35 41.59,263.67C41.86,263.92 42.19,264.14 42.49,264.15C42.79,264.16 43.13,264.01 43.4,263.76C43.77,263.42 44.01,262.66 44.3,262.06C44.61,261.41 44.92,260.73 45.21,260C45.53,259.21 45.81,258.34 46.11,257.5C46.41,256.65 46.7,255.74 47.01,254.92C47.3,254.15 47.6,253.38 47.92,252.69C48.21,252.07 48.49,251.48 48.82,250.98C49.1,250.55 49.4,250.13 49.73,249.84C50.01,249.6 50.32,249.38 50.63,249.31C50.92,249.24 51.24,249.27 51.53,249.38C51.85,249.5 52.16,249.77 52.44,250.05C52.77,250.38 53.05,250.81 53.34,251.26C53.66,251.76 53.96,252.33 54.25,252.92C54.56,253.55 54.86,254.25 55.15,254.94C55.46,255.66 55.75,256.43 56.05,257.18C56.35,257.94 56.65,258.71 56.96,259.46C57.26,260.19 57.55,260.92 57.86,261.6C58.15,262.24 58.44,262.88 58.77,263.42C59.05,263.89 59.34,264.6 59.67,264.66C59.95,264.71 60.32,264.37 60.58,264.05C60.97,263.58 61.2,262.68 61.48,261.86C61.82,260.87 62.09,259.68 62.38,258.49C62.7,257.18 62.99,255.74 63.29,254.32C63.6,252.84 63.89,251.28 64.19,249.76C64.49,248.23 64.8,246.69 65.1,245.17C65.4,243.66 65.7,242.15 66,240.67C66.3,239.21 66.59,237.77 66.9,236.35C67.2,234.97 67.5,233.6 67.81,232.27C68.11,230.98 68.4,229.72 68.71,228.48C69.01,227.29 69.31,226.12 69.62,224.99C69.91,223.91 70.21,222.86 70.52,221.84C70.81,220.88 71.11,219.94 71.42,219.05C71.71,218.22 72.01,217.41 72.33,216.67C72.62,216.01 72.9,215.36 73.23,214.82C73.51,214.35 73.8,213.89 74.14,213.58C74.42,213.33 74.73,213.09 75.04,213.04C75.33,212.99 75.67,213.08 75.95,213.23C76.28,213.41 76.57,213.79 76.85,214.16C77.18,214.6 77.46,215.18 77.75,215.75C78.07,216.38 78.37,217.08 78.66,217.79C78.97,218.56 79.27,219.37 79.56,220.22C79.88,221.15 80.18,222.14 80.47,223.17C80.78,224.28 81.08,225.46 81.37,226.66C81.68,227.92 81.97,229.24 82.27,230.57C82.58,231.94 82.88,233.36 83.18,234.77C83.48,236.19 83.78,237.65 84.08,239.06C84.38,240.45 84.67,241.89 84.99,243.18C85.28,244.34 85.55,245.53 85.89,246.48C86.16,247.24 86.42,248.01 86.79,248.49C87.06,248.84 87.38,249.21 87.7,249.25C87.99,249.29 88.33,249.08 88.6,248.83C88.96,248.49 89.24,247.86 89.51,247.23C89.86,246.44 90.13,245.43 90.41,244.4C90.74,243.18 91.03,241.8 91.32,240.37C91.64,238.76 91.93,237.02 92.22,235.23C92.53,233.28 92.83,231.21 93.12,229.11C93.43,226.89 93.73,224.58 94.03,222.25C94.34,219.83 94.63,217.34 94.93,214.85C95.23,212.3 95.54,209.72 95.84,207.12C96.14,204.49 96.44,201.84 96.74,199.16C97.04,196.43 97.34,193.68 97.64,190.9C97.94,188.06 98.25,185.17 98.55,182.31C98.85,179.47 99.14,176.61 99.45,173.81C99.75,171.07 100.05,168.34 100.36,165.68C100.66,163.12 100.95,160.58 101.26,158.13C101.55,155.8 101.85,153.51 102.16,151.31C102.45,149.25 102.75,147.24 103.07,145.33C103.36,143.58 103.65,141.88 103.97,140.3C104.26,138.89 104.55,137.53 104.88,136.32C105.16,135.28 105.44,134.27 105.78,133.45C106.05,132.79 106.32,132.12 106.68,131.73C106.95,131.44 107.29,131.17 107.59,131.18C107.89,131.19 108.22,131.51 108.49,131.82C108.85,132.24 109.12,132.95 109.4,133.64C109.74,134.5 110.02,135.54 110.3,136.61C110.63,137.86 110.92,139.26 111.21,140.7C111.53,142.31 111.82,144.04 112.11,145.83C112.42,147.78 112.72,149.85 113.01,151.96C113.32,154.22 113.63,156.58 113.92,158.98C114.23,161.51 114.52,164.13 114.82,166.79C115.13,169.56 115.43,172.41 115.73,175.28C116.04,178.24 116.33,181.26 116.63,184.3C116.93,187.4 117.23,190.54 117.53,193.69C117.83,196.87 118.14,200.09 118.44,203.28C118.74,206.47 119.04,209.67 119.34,212.83C119.64,215.94 119.94,219.06 120.25,222.1C120.55,225.03 120.84,227.96 121.15,230.75C121.44,233.38 121.73,235.98 122.05,238.4C122.34,240.6 122.64,242.73 122.96,244.67C123.24,246.37 123.53,247.98 123.86,249.42C124.14,250.63 124.43,251.78 124.77,252.75C125.05,253.54 125.32,254.29 125.67,254.85C125.94,255.28 126.24,255.7 126.58,255.88C126.86,256.02 127.2,256.07 127.48,255.98C127.8,255.88 128.11,255.54 128.38,255.21C128.72,254.8 129.01,254.21 129.29,253.62C129.62,252.93 129.9,252.13 130.19,251.31C130.51,250.41 130.81,249.43 131.1,248.44C131.41,247.38 131.71,246.28 132,245.15C132.31,243.97 132.6,242.74 132.9,241.5C133.21,240.21 133.51,238.89 133.81,237.56C134.11,236.21 134.41,234.83 134.71,233.47C135.01,232.11 135.32,230.74 135.62,229.4C135.92,228.08 136.22,226.76 136.52,225.47C136.82,224.21 137.11,222.97 137.42,221.74C137.72,220.54 138.03,219.37 138.33,218.2C138.63,217.04 138.93,215.91 139.23,214.76C139.53,213.61 139.84,212.47 140.14,211.31C140.44,210.12 140.74,208.93 141.04,207.7C141.35,206.43 141.65,205.13 141.95,203.8C142.26,202.42 142.55,201.01 142.85,199.58C143.16,198.1 143.45,196.58 143.75,195.06C144.06,193.5 144.36,191.92 144.66,190.33C144.96,188.73 145.26,187.1 145.56,185.49C145.86,183.87 146.17,182.25 146.47,180.64C146.77,179.05 147.07,177.47 147.37,175.91C147.67,174.39 147.96,172.88 148.27,171.41C148.57,169.99 148.87,168.59 149.18,167.24C149.47,165.96 149.77,164.7 150.08,163.51C150.37,162.4 150.67,161.32 150.99,160.31C151.28,159.39 151.57,158.5 151.89,157.71C152.17,157.01 152.46,156.34 152.79,155.79C153.07,155.33 153.36,154.87 153.7,154.6C153.98,154.38 154.3,154.19 154.6,154.19C154.9,154.19 155.23,154.35 155.51,154.57C155.85,154.84 156.13,155.31 156.41,155.78C156.75,156.35 157.04,157.06 157.32,157.8C157.65,158.66 157.94,159.64 158.22,160.65C158.54,161.78 158.83,163.01 159.12,164.28C159.44,165.67 159.74,167.15 160.03,168.68C160.34,170.32 160.64,172.05 160.93,173.81C161.24,175.68 161.55,177.62 161.84,179.6C162.15,181.68 162.45,183.82 162.74,185.99C163.05,188.25 163.34,190.57 163.64,192.92C163.95,195.34 164.25,197.8 164.55,200.28C164.85,202.81 165.15,205.38 165.45,207.96C165.75,210.57 166.06,213.21 166.36,215.84C166.66,218.47 166.96,221.12 167.26,223.75C167.56,226.36 167.85,229.03 168.16,231.54C168.45,233.89 168.76,236.15 169.07,238.37C169.36,240.49 169.67,242.52 169.97,244.57C170.27,246.6 170.58,248.6 170.88,250.61C171.18,252.61 171.48,254.61 171.78,256.61C172.08,258.62 172.38,260.63 172.68,262.64C172.98,264.66 173.29,266.69 173.59,268.72C173.89,270.76 174.19,272.81 174.49,274.85C174.79,276.88 175.09,278.92 175.4,280.92C175.7,282.87 175.98,284.9 176.3,286.71C176.59,288.32 176.76,290.27 177.21,291.26C177.46,291.82 177.84,292.47 178.11,292.43C178.46,292.38 178.75,291.09 179.01,290.19C179.39,288.91 179.64,287.17 179.92,285.39C180.26,283.18 180.53,280.55 180.82,277.9C181.14,274.92 181.44,271.66 181.73,268.4C182.04,264.95 182.33,261.34 182.63,257.75C182.93,254.06 183.23,250.3 183.53,246.55C183.83,242.76 184.14,238.95 184.44,235.14C184.74,231.33 185.04,227.5 185.34,223.7C185.64,219.91 185.95,216.12 186.25,212.36C186.55,208.63 186.85,204.91 187.15,201.23C187.45,197.6 187.75,193.99 188.05,190.42C188.35,186.91 188.65,183.43 188.96,180C189.26,176.65 189.55,173.33 189.86,170.06C190.16,166.88 190.46,163.73 190.77,160.65C191.07,157.67 191.36,154.73 191.67,151.85C191.97,149.08 192.27,146.35 192.58,143.7C192.88,141.17 193.17,138.68 193.48,136.27C193.77,133.99 194.07,131.76 194.38,129.61C194.67,127.6 194.98,125.64 195.29,123.77C195.58,122.05 195.87,120.38 196.19,118.81C196.48,117.39 196.78,116.02 197.1,114.77C197.38,113.67 197.67,112.61 198,111.7C198.28,110.94 198.55,110.19 198.9,109.66C199.17,109.25 199.48,108.81 199.81,108.7C200.09,108.61 200.44,108.68 200.71,108.85C201.07,109.07 201.35,109.63 201.62,110.15C201.97,110.83 202.24,111.72 202.52,112.64C202.85,113.74 203.14,115.01 203.42,116.34C203.74,117.86 204.04,119.53 204.33,121.26C204.65,123.19 204.94,125.27 205.23,127.41C205.55,129.75 205.85,132.22 206.14,134.77C206.45,137.51 206.75,140.39 207.04,143.33C207.35,146.46 207.66,149.72 207.95,153.04C208.26,156.55 208.56,160.16 208.85,163.85C209.16,167.71 209.45,171.68 209.75,175.7C210.06,179.88 210.36,184.15 210.66,188.48C210.97,192.94 211.26,197.49 211.56,202.07C211.87,206.76 212.17,211.53 212.47,216.31C212.77,221.16 213.07,226.08 213.37,230.98C213.67,235.88 213.96,240.88 214.27,245.71C214.57,250.39 214.85,255.29 215.18,259.52C215.46,263.13 215.61,267.25 216.08,269.54C216.33,270.77 216.71,272.34 216.99,272.32C217.33,272.3 217.63,269.72 217.89,268.03C218.26,265.65 218.51,262.47 218.79,259.38C219.12,255.83 219.41,251.87 219.7,247.92C220.01,243.69 220.3,239.26 220.6,234.78C220.91,230.11 221.21,225.3 221.51,220.45C221.82,215.45 222.11,210.35 222.41,205.23C222.71,200.02 223.02,194.73 223.32,189.46C223.62,184.15 223.92,178.79 224.22,173.47C224.52,168.17 224.82,162.85 225.12,157.59C225.42,152.38 225.73,147.19 226.03,142.06C226.33,137.03 226.62,132.02 226.93,127.1C227.23,122.3 227.53,117.55 227.84,112.89C228.14,108.39 228.43,103.94 228.74,99.6C229.03,95.44 229.33,91.35 229.64,87.38C229.93,83.61 230.24,79.92 230.55,76.36C230.84,73.02 231.14,69.77 231.45,66.66C231.74,63.78 232.04,60.99 232.36,58.36C232.65,55.97 232.94,53.66 233.26,51.53C233.54,49.65 233.83,47.84 234.16,46.25C234.44,44.91 234.71,43.6 235.07,42.58C235.34,41.8 235.57,40.94 235.97,40.6C236.23,40.38 236.61,40.25 236.88,40.36C237.25,40.51 237.52,41.25 237.78,41.88C238.15,42.75 238.4,43.96 238.68,45.18C239.02,46.67 239.31,48.41 239.59,50.21C239.92,52.29 240.2,54.58 240.49,56.95C240.81,59.59 241.11,62.42 241.4,65.34C241.72,68.51 242.01,71.86 242.3,75.29C242.61,78.97 242.92,82.8 243.21,86.72C243.52,90.86 243.82,95.14 244.11,99.5C244.42,104.06 244.71,108.74 245.01,113.49C245.32,118.41 245.62,123.44 245.92,128.52C246.23,133.73 246.52,139.04 246.82,144.36C247.12,149.77 247.43,155.26 247.73,160.73C248.03,166.21 248.33,171.76 248.63,177.2C248.93,182.55 249.22,187.97 249.53,193.12C249.82,197.97 250.11,202.95 250.44,207.23C250.72,210.81 250.86,214.88 251.34,217.08C251.59,218.24 251.99,219.68 252.25,219.66C252.64,219.62 252.88,216.05 253.15,213.81C253.51,210.83 253.76,206.99 254.05,203.33C254.37,199.32 254.66,194.99 254.96,190.72C255.27,186.31 255.56,181.75 255.86,177.26C256.16,172.75 256.47,168.19 256.77,163.71C257.07,159.29 257.36,154.87 257.67,150.54C257.97,146.32 258.27,142.12 258.58,138.03C258.88,134.08 259.17,130.19 259.48,126.4C259.77,122.79 260.07,119.24 260.38,115.81C260.67,112.58 260.98,109.42 261.29,106.39C261.58,103.57 261.87,100.83 262.19,98.24C262.48,95.87 262.78,93.58 263.1,91.44C263.39,89.53 263.68,87.69 264,86.02C264.28,84.56 264.58,83.2 264.9,81.94C265.19,80.83 265.5,79.82 265.81,78.82C266.1,77.88 266.37,76.89 266.71,76.1C266.99,75.46 267.24,74.73 267.62,74.42C267.88,74.2 268.25,74.05 268.52,74.13C268.86,74.23 269.15,74.79 269.42,75.27C269.78,75.92 270.05,76.85 270.33,77.79C270.67,78.93 270.95,80.26 271.23,81.63C271.55,83.2 271.85,84.92 272.14,86.69C272.46,88.64 272.75,90.72 273.04,92.85C273.35,95.14 273.66,97.54 273.95,100C274.26,102.61 274.56,105.32 274.85,108.08C275.16,110.97 275.45,113.95 275.75,116.98C276.06,120.13 276.36,123.35 276.66,126.61C276.97,129.97 277.26,133.39 277.56,136.83C277.86,140.34 278.17,143.9 278.47,147.46C278.77,151.05 279.07,154.67 279.37,158.26C279.67,161.83 279.96,165.42 280.27,168.93C280.57,172.35 280.87,175.78 281.18,179.06C281.47,182.16 281.72,185.52 282.08,188.1C282.35,190.06 282.5,192.22 282.99,193.23C283.24,193.75 283.63,194.29 283.89,194.24C284.26,194.17 284.53,192.77 284.79,191.7C285.2,189.98 285.41,187.23 285.7,184.78C286.02,182.03 286.31,179.03 286.6,176.01C286.91,172.79 287.21,169.42 287.51,166.04C287.82,162.56 288.11,158.97 288.41,155.42C288.71,151.85 289.02,148.24 289.32,144.68C289.62,141.17 289.92,137.65 290.22,134.21C290.52,130.87 290.81,127.55 291.12,124.32C291.42,121.22 291.72,118.17 292.03,115.22C292.32,112.43 292.62,109.7 292.93,107.09C293.22,104.65 293.52,102.28 293.84,100.04C294.13,97.99 294.42,96.01 294.74,94.17C295.02,92.53 295.31,90.94 295.64,89.52C295.92,88.3 296.21,87.12 296.55,86.13C296.83,85.33 297.08,84.54 297.45,84.02C297.72,83.64 298.04,83.23 298.36,83.18C298.65,83.13 298.99,83.34 299.26,83.59C299.62,83.92 299.89,84.58 300.16,85.2C300.5,85.98 300.79,86.96 301.07,87.96C301.4,89.13 301.68,90.44 301.97,91.79C302.29,93.3 302.59,94.92 302.88,96.59C303.2,98.4 303.49,100.32 303.78,102.27C304.09,104.34 304.38,106.5 304.68,108.69C304.99,110.97 305.29,113.33 305.59,115.7C305.9,118.14 306.19,120.64 306.49,123.15C306.79,125.7 307.1,128.29 307.4,130.87C307.7,133.46 308,136.07 308.3,138.65C308.6,141.21 308.9,143.79 309.21,146.31C309.51,148.77 309.8,151.23 310.11,153.61C310.4,155.9 310.7,158.17 311.01,160.34C311.3,162.38 311.6,164.39 311.92,166.27C312.21,167.99 312.49,169.67 312.82,171.19C313.1,172.52 313.39,173.81 313.73,174.9C314.01,175.78 314.27,176.67 314.63,177.26C314.9,177.69 315.2,178.16 315.53,178.25C315.81,178.33 316.17,178.18 316.44,177.99C316.79,177.75 317.06,177.23 317.34,176.77C317.67,176.23 317.96,175.57 318.25,174.92C318.56,174.23 318.85,173.48 319.15,172.75C319.45,172.01 319.74,171.25 320.05,170.53C320.35,169.83 320.65,169.14 320.96,168.49C321.25,167.89 321.54,167.3 321.86,166.78C322.15,166.32 322.44,165.87 322.77,165.53C323.05,165.24 323.35,164.96 323.67,164.82C323.96,164.7 324.28,164.64 324.58,164.69C324.89,164.74 325.2,164.92 325.48,165.13C325.81,165.38 326.1,165.76 326.38,166.15C326.71,166.61 327.01,167.16 327.29,167.75C327.61,168.42 327.9,169.18 328.19,169.98C328.51,170.87 328.81,171.83 329.1,172.84C329.42,173.94 329.71,175.12 330,176.34C330.31,177.66 330.61,179.04 330.9,180.47C331.21,182 331.52,183.59 331.81,185.22C332.12,186.95 332.42,188.73 332.71,190.56C333.02,192.48 333.32,194.47 333.62,196.48C333.93,198.57 334.22,200.72 334.52,202.88C334.82,205.1 335.12,207.38 335.42,209.64C335.72,211.93 336.03,214.24 336.33,216.54C336.63,218.85 336.93,221.15 337.23,223.47C337.53,225.8 337.84,228.14 338.14,230.49C338.44,232.85 338.74,235.22 339.04,237.58C339.34,239.94 339.65,242.31 339.95,244.65C340.25,246.96 340.54,249.27 340.85,251.52C341.15,253.69 341.44,255.88 341.75,257.93C342.04,259.82 342.33,261.74 342.66,263.39C342.94,264.78 343.23,266.07 343.56,267.22C343.84,268.19 344.15,269.04 344.47,269.85C344.76,270.56 345.05,271.22 345.37,271.83C345.66,272.39 345.95,272.92 346.27,273.4C346.56,273.84 346.83,274.4 347.18,274.63C347.45,274.81 347.79,274.9 348.08,274.84C348.4,274.78 348.7,274.44 348.99,274.18C349.31,273.89 349.61,273.55 349.89,273.17C350.21,272.74 350.51,272.26 350.79,271.72C351.12,271.08 351.42,270.35 351.7,269.57C352.02,268.68 352.31,267.66 352.6,266.66C352.91,265.61 353.21,264.49 353.51,263.4C353.81,262.29 354.11,261.18 354.41,260.06C354.71,258.92 355.02,257.79 355.32,256.63C355.63,255.43 355.93,254.23 356.22,252.98C356.53,251.66 356.83,250.31 357.12,248.89C357.43,247.35 357.74,245.77 358.03,244.07C358.35,242.17 358.65,240.17 358.93,238.01C359.25,235.55 359.55,232.86 359.84,230.09C360.16,227.03 360.45,223.81 360.74,220.44C361.06,216.72 361.34,212.66 361.64,208.72C361.94,204.71 362.25,200.63 362.55,196.6C362.85,192.6 363.15,188.6 363.45,184.64C363.75,180.74 364.05,176.86 364.36,173.04C364.66,169.3 364.96,165.59 365.26,161.95C365.56,158.41 365.85,154.92 366.16,151.5C366.46,148.2 366.76,144.94 367.07,141.78C367.36,138.76 367.66,135.79 367.97,132.92C368.26,130.2 368.57,127.53 368.88,124.97C369.17,122.58 369.47,120.24 369.78,118.03C370.07,115.99 370.36,114.01 370.68,112.16C370.97,110.48 371.27,108.87 371.59,107.39C371.87,106.1 372.16,104.86 372.49,103.78C372.77,102.88 373.05,102.01 373.4,101.35C373.67,100.84 373.95,100.3 374.3,100.1C374.57,99.95 374.94,99.92 375.21,100.04C375.56,100.19 375.84,100.71 376.11,101.18C376.46,101.79 376.73,102.63 377.01,103.48C377.34,104.5 377.64,105.69 377.92,106.92C378.24,108.32 378.53,109.86 378.82,111.46C379.14,113.23 379.44,115.11 379.73,117.06C380.04,119.17 380.34,121.39 380.63,123.66C380.94,126.09 381.24,128.62 381.53,131.2C381.84,133.92 382.14,136.73 382.44,139.59C382.75,142.57 383.04,145.64 383.34,148.74C383.65,151.93 383.95,155.24 384.25,158.46C384.55,161.65 384.85,164.81 385.15,167.97C385.45,171.12 385.75,174.24 386.05,177.4C386.35,180.59 386.66,183.82 386.96,187.03C387.26,190.25 387.56,193.5 387.86,196.7C388.16,199.85 388.45,203.16 388.77,206.08C389.05,208.65 389.36,210.98 389.67,213.33C389.96,215.55 390.24,217.87 390.58,219.79C390.86,221.36 390.94,223.52 391.48,224.03C391.73,224.27 392.13,224.33 392.38,224.17C392.84,223.89 393.02,222.43 393.29,221.37C393.64,220.01 393.9,218.31 394.19,216.65C394.51,214.82 394.8,212.82 395.1,210.84C395.41,208.77 395.7,206.63 396,204.47C396.31,202.24 396.6,199.96 396.9,197.65C397.21,195.28 397.51,192.81 397.81,190.42C398.11,188.06 398.4,185.66 398.71,183.37C399,181.18 399.31,179.03 399.62,176.97C399.91,175.05 400.2,173.18 400.52,171.42C400.81,169.82 401.1,168.26 401.42,166.84C401.71,165.58 402,164.37 402.33,163.31C402.61,162.41 402.88,161.54 403.23,160.86C403.5,160.32 403.78,159.76 404.14,159.5C404.41,159.3 404.76,159.18 405.04,159.24C405.36,159.31 405.67,159.69 405.95,160.03C406.29,160.46 406.54,161.15 406.85,161.68C407.14,162.19 407.47,162.59 407.75,163.15C408.08,163.82 408.38,164.61 408.66,165.45C408.99,166.41 409.27,167.5 409.56,168.62C409.88,169.87 410.18,171.21 410.47,172.59C410.79,174.09 411.08,175.69 411.37,177.32C411.68,179.06 411.98,180.88 412.27,182.73C412.58,184.67 412.88,186.68 413.18,188.71C413.49,190.81 413.78,192.97 414.08,195.13C414.38,197.34 414.69,199.59 414.99,201.84C415.29,204.12 415.59,206.42 415.89,208.72C416.19,211.03 416.49,213.36 416.79,215.67C417.09,217.98 417.4,220.3 417.7,222.59C418,224.85 418.29,227.14 418.6,229.34C418.9,231.44 419.18,233.62 419.51,235.5C419.79,237.1 420.09,238.56 420.41,239.94C420.7,241.15 421,242.27 421.32,243.34C421.61,244.32 421.9,245.27 422.22,246.12C422.5,246.86 422.78,247.59 423.12,248.15C423.4,248.6 423.68,249.08 424.03,249.26C424.3,249.4 424.65,249.44 424.93,249.34C425.26,249.22 425.56,248.83 425.84,248.47C426.18,248.02 426.46,247.4 426.74,246.79C427.06,246.1 427.35,245.3 427.64,244.51C427.95,243.66 428.25,242.75 428.55,241.85C428.86,240.92 429.15,239.95 429.45,238.99C429.75,238.03 430.06,237.05 430.36,236.1C430.66,235.16 430.95,234.23 431.26,233.32C431.55,232.44 431.85,231.58 432.16,230.75C432.45,229.96 432.76,229.2 433.07,228.47C433.36,227.79 433.66,227.13 433.97,226.52C434.26,225.95 434.56,225.4 434.88,224.91C435.17,224.46 435.46,224.03 435.78,223.66C436.07,223.33 436.36,223.01 436.68,222.78C436.97,222.57 437.28,222.4 437.59,222.32C437.88,222.25 438.2,222.24 438.49,222.31C438.8,222.38 439.11,222.57 439.4,222.78C439.72,223.02 440.01,223.35 440.3,223.7C440.62,224.09 440.92,224.56 441.21,225.05C441.53,225.59 441.82,226.19 442.11,226.8C442.42,227.46 442.72,228.15 443.01,228.87C443.32,229.63 443.62,230.42 443.92,231.23C444.23,232.07 444.52,232.93 444.82,233.8C445.13,234.7 445.43,235.62 445.73,236.54C446.03,237.47 446.33,238.42 446.63,239.37C446.93,240.32 447.12,241.59 447.53,242.22C447.79,242.62 448.12,242.81 448.44,243.03C448.73,243.23 449.04,243.35 449.34,243.51C449.64,243.66 449.95,243.81 450.25,243.96C450.55,244.1 450.85,244.24 451.15,244.38C451.45,244.52 451.75,244.65 452.05,244.78C452.35,244.91 452.66,245.03 452.96,245.16C453.26,245.29 453.56,245.41 453.86,245.54C454.16,245.67 454.47,245.81 454.77,245.95C455.07,246.09 455.37,246.23 455.67,246.39C455.97,246.55 456.28,246.71 456.58,246.89C456.88,247.07 457.18,247.27 457.48,247.47C457.78,247.68 458.08,247.9 458.38,248.13C458.69,248.37 458.99,248.62 459.29,248.88C459.59,249.14 459.89,249.42 460.19,249.7C460.49,249.98 460.8,250.27 461.1,250.54Q461.4,250.81 462,251.32" style="vector-effect: non-scaling-stroke; fill: none; stroke: rgb(231, 107, 243); stroke-opacity: 1; stroke-width: 2px; opacity: 1;"/></g><g class="points"/><g class="text"/></g></g></g><g class="overplot"/><path class="xlines-above crisp" d="M0,0" style="fill: none;"/><path class="ylines-above crisp" d="M0,0" style="fill: none;"/><g class="overlines-above"/><g class="xaxislayer-above"><g class="xtick"><text text-anchor="middle" x="0" y="433" transform="translate(80,0)" style="font-family: 'Open Sans', verdana, arial, sans-serif; font-size: 12px; fill: rgb(42, 63, 95); fill-opacity: 1; white-space: pre;">0</text></g><g class="xtick"><text text-anchor="middle" x="0" y="433" transform="translate(170.23000000000002,0)" style="font-family: 'Open Sans', verdana, arial, sans-serif; font-size: 12px; fill: rgb(42, 63, 95); fill-opacity: 1; white-space: pre;">100</text></g><g class="xtick"><text text-anchor="middle" x="0" y="433" transform="translate(260.47,0)" style="font-family: 'Open Sans', verdana, arial, sans-serif; font-size: 12px; fill: rgb(42, 63, 95); fill-opacity: 1; white-space: pre;">200</text></g><g class="xtick"><text text-anchor="middle" x="0" y="433" transform="translate(350.7,0)" style="font-family: 'Open Sans', verdana, arial, sans-serif; font-size: 12px; fill: rgb(42, 63, 95); fill-opacity: 1; white-space: pre;">300</text></g><g class="xtick"><text text-anchor="middle" x="0" y="433" transform="translate(440.94,0)" style="font-family: 'Open Sans', verdana, arial, sans-serif; font-size: 12px; fill: rgb(42, 63, 95); fill-opacity: 1; white-space: pre;">400</text></g><g class="xtick"><text text-anchor="middle" x="0" y="433" transform="translate(531.1700000000001,0)" style="font-family: 'Open Sans', verdana, arial, sans-serif; font-size: 12px; fill: rgb(42, 63, 95); fill-opacity: 1; white-space: pre;">500</text></g></g><g class="yaxislayer-above"><g class="ytick"><text text-anchor="end" x="79" y="4.199999999999999" transform="translate(0,409.53)" style="font-family: 'Open Sans', verdana, arial, sans-serif; font-size: 12px; fill: rgb(42, 63, 95); fill-opacity: 1; white-space: pre;">200</text></g><g class="ytick"><text text-anchor="end" x="79" y="4.199999999999999" transform="translate(0,370.84)" style="font-family: 'Open Sans', verdana, arial, sans-serif; font-size: 12px; fill: rgb(42, 63, 95); fill-opacity: 1; white-space: pre;">300</text></g><g class="ytick"><text text-anchor="end" x="79" y="4.199999999999999" transform="translate(0,332.14)" style="font-family: 'Open Sans', verdana, arial, sans-serif; font-size: 12px; fill: rgb(42, 63, 95); fill-opacity: 1; white-space: pre;">400</text></g><g class="ytick"><text text-anchor="end" x="79" y="4.199999999999999" transform="translate(0,293.45)" style="font-family: 'Open Sans', verdana, arial, sans-serif; font-size: 12px; fill: rgb(42, 63, 95); fill-opacity: 1; white-space: pre;">500</text></g><g class="ytick"><text text-anchor="end" x="79" y="4.199999999999999" transform="translate(0,254.76)" style="font-family: 'Open Sans', verdana, arial, sans-serif; font-size: 12px; fill: rgb(42, 63, 95); fill-opacity: 1; white-space: pre;">600</text></g><g class="ytick"><text text-anchor="end" x="79" y="4.199999999999999" transform="translate(0,216.06)" style="font-family: 'Open Sans', verdana, arial, sans-serif; font-size: 12px; fill: rgb(42, 63, 95); fill-opacity: 1; white-space: pre;">700</text></g><g class="ytick"><text text-anchor="end" x="79" y="4.199999999999999" transform="translate(0,177.37)" style="font-family: 'Open Sans', verdana, arial, sans-serif; font-size: 12px; fill: rgb(42, 63, 95); fill-opacity: 1; white-space: pre;">800</text></g><g class="ytick"><text text-anchor="end" x="79" y="4.199999999999999" transform="translate(0,138.68)" style="font-family: 'Open Sans', verdana, arial, sans-serif; font-size: 12px; fill: rgb(42, 63, 95); fill-opacity: 1; white-space: pre;">900</text></g><g class="ytick"><text text-anchor="end" x="79" y="4.199999999999999" transform="translate(0,99.99)" style="font-family: 'Open Sans', verdana, arial, sans-serif; font-size: 12px; fill: rgb(42, 63, 95); fill-opacity: 1; white-space: pre;">1000</text></g></g><g class="overaxes-above"/></g></g><g class="polarlayer"/><g class="ternarylayer"/><g class="geolayer"/><g class="funnelarealayer"/><g class="pielayer"/><g class="treemaplayer"/><g class="sunburstlayer"/><g class="glimages"/><defs id="topdefs-49918b"><g class="clips"/><clipPath id="legend49918b"><rect width="137" height="67" x="0" y="0"/></clipPath></defs><g class="layer-above"><g class="imagelayer"/><g class="shapelayer"/></g><g class="infolayer"><g class="legend" pointer-events="all" transform="translate(551.24, 100)"><rect class="bg" shape-rendering="crispEdges" width="137" height="67" x="0" y="0" style="stroke: rgb(68, 68, 68); stroke-opacity: 1; fill: rgb(255, 255, 255); fill-opacity: 1; stroke-width: 0px;"/><g class="scrollbox" transform="translate(0, 0)" clip-path="url('#legend49918b')"><g class="groups"><g class="traces" transform="translate(0, 14.5)" style="opacity: 1;"><text class="legendtext" text-anchor="start" x="40" y="4.680000000000001" style="font-family: 'Open Sans', verdana, arial, sans-serif; font-size: 12px; fill: rgb(42, 63, 95); fill-opacity: 1; white-space: pre;">Average Class I</text><g class="layers" style="opacity: 1;"><g class="legendfill"/><g class="legendlines"><path class="js-line" d="M5,0h30" style="fill: none; stroke: rgb(0, 100, 80); stroke-opacity: 1; stroke-width: 2px;"/></g><g class="legendsymbols"><g class="legendpoints"/></g></g><rect class="legendtoggle" x="0" y="-9.5" width="131.15625" height="19" style="fill: rgb(0, 0, 0); fill-opacity: 0;"/></g><g class="traces" transform="translate(0, 33.5)" style="opacity: 1;"><text class="legendtext" text-anchor="start" x="40" y="4.680000000000001" style="font-family: 'Open Sans', verdana, arial, sans-serif; font-size: 12px; fill: rgb(42, 63, 95); fill-opacity: 1; white-space: pre;">Average Class II</text><g class="layers" style="opacity: 1;"><g class="legendfill"/><g class="legendlines"><path class="js-line" d="M5,0h30" style="fill: none; stroke: rgb(0, 176, 246); stroke-opacity: 1; stroke-width: 2px;"/></g><g class="legendsymbols"><g class="legendpoints"/></g></g><rect class="legendtoggle" x="0" y="-9.5" width="131.15625" height="19" style="fill: rgb(0, 0, 0); fill-opacity: 0;"/></g><g class="traces" transform="translate(0, 52.5)" style="opacity: 1;"><text class="legendtext" text-anchor="start" x="40" y="4.680000000000001" style="font-family: 'Open Sans', verdana, arial, sans-serif; font-size: 12px; fill: rgb(42, 63, 95); fill-opacity: 1; white-space: pre;">Average Class III</text><g class="layers" style="opacity: 1;"><g class="legendfill"/><g class="legendlines"><path class="js-line" d="M5,0h30" style="fill: none; stroke: rgb(231, 107, 243); stroke-opacity: 1; stroke-width: 2px;"/></g><g class="legendsymbols"><g class="legendpoints"/></g></g><rect class="legendtoggle" x="0" y="-9.5" width="131.15625" height="19" style="fill: rgb(0, 0, 0); fill-opacity: 0;"/></g></g></g><rect class="scrollbar" rx="20" ry="3" width="0" height="0" x="0" y="0" style="fill: rgb(128, 139, 164); fill-opacity: 1;"/></g><g class="g-gtitle"><text class="gtitle" x="35" y="50" text-anchor="start" dy="0em" style="font-family: 'Open Sans', verdana, arial, sans-serif; font-size: 17px; fill: rgb(42, 63, 95); opacity: 1; font-weight: normal; white-space: pre;">Average curve: volume_group</text></g><g class="g-xtitle"><text class="xtitle" x="311" y="460.8" text-anchor="middle" style="font-family: 'Open Sans', verdana, arial, sans-serif; font-size: 14px; fill: rgb(42, 63, 95); opacity: 1; font-weight: normal; white-space: pre;">Domain</text></g><g class="g-ytitle"><text class="ytitle" transform="rotate(-90,27.496875000000003,260)" x="27.496875000000003" y="260" text-anchor="middle" style="font-family: 'Open Sans', verdana, arial, sans-serif; font-size: 14px; fill: rgb(42, 63, 95); opacity: 1; font-weight: normal; white-space: pre;">Frequency</text></g></g></svg>